<?xml version="1.0" encoding="UTF-8" standalone="no"?>
<svg id="Nederlands_verkeersbord_L3b_bushalte" width="600" height="600" xmlns="http://www.w3.org/2000/svg" version="1.1">
<path id="vlak_blauw" fill="#0e518d" d="M0,30 a30,30 0 0,1 30,-30 h540 a30,30 0 0,1 30,30 v540 a30,30 0 0,1 -30,30 h-540 a30,30 0 0,1 -30,-30 z"/> 	 
<path id="bies_wit" style="fill:none;stroke-width:15;stroke:#f7fbf5" d="M21.5,44 a22.5,22.5 0 0,1 22.5,-22.5 h512 a22.5,22.5 0 0,1 22.5,22.5 v512 a22.5,22.5 0 0,1 -22.5,22.5 h-512 a22.5,22.5 0 0,1 -22.5,-22.5 z"/>
<rect id="vlak_wit" width="420" height="420" x="90" y="90" fill="#f7fbf5"/>
<path id="bus_romp_zwart" fill="#2a2d2f" d="m 195.5625,219.625 c -31.05606,0.009 -52.56856,0.0471 -54.71875,0.0937 -2.555,0.0506 -3.02288,5.98924 -3.59375,7.23828 1.13111,2.50373 2.19932,5.1024 3.25,7.66797 l -17.59375,44.53125 c 0,0 5.15628,10.59202 7.53125,13.78125 3.17227,4.24101 2.6973,30.0993 1.78125,41.3125 -0.27143,3.17227 -4.15625,5.15625 -4.15625,5.15625 l 0,8.65625 279.875,0.15625 c 0,0 56.35371,-2.65275 64.9375,-7.25 8.58379,-4.58028 0,-9.875 0,-9.875 l 0,-48.25 L 465.5625,234 c 0,0 5.33036,-3.60991 5.5,-8.75 0.15268,-4.39368 -3.25,-5.53125 -3.25,-5.53125 0,0 -179.08182,-0.11999 -272.25,-0.0937 z m -1.71875,14.375 48.03125,0 0,48.84375 -48.03125,0 z m 59.03125,0 51.4375,0 0,48.84375 -51.4375,0 z m 61.59375,0 54.1875,0 0,48.84375 -54.1875,0 z m 63.75,0 43.71875,0 0,48.84375 -43.71875,0 z m 55.15625,0 19.28125,0 7.3125,48.84375 -26.59375,0 z m -282.53125,5.25 30.25,0 0,50.5 -46.5,0 -1.3125,-10.59375 z"/>
<path id="bus_wielen_zwart" style="fill:#2a2d2f;stroke:#f7fbf5;stroke-width:3.63" d="m 205.78513,378.50958 c 15.16582,0 27.48169,-12.58729 27.48169,-28.12632 0,-15.53903 -12.31587,-28.12633 -27.48169,-28.12633 -15.18279,0 -27.48169,12.5873 -27.48169,28.12633 0,15.53903 12.2989,28.12632 27.48169,28.12632 z M 381.4101,378.50958 c 15.18279,0 27.48169,-12.58729 27.48169,-28.12632 0,-15.53903 -12.2989,-28.12633 -27.48169,-28.12633 -15.18279,0 -27.48169,12.5873 -27.48169,28.12633 0,15.53903 12.2989,28.12632 27.48169,28.12632"/>
</svg>