<?xml version="1.0" encoding="UTF-8" standalone="no"?>
<svg id="Nederlands_verkeersbord_L2" width="300" height="300" viewBox="0 0 300 300" xmlns="http://www.w3.org/2000/svg" version="1.1">

<rect id="blauw_vlak" width="300" height="300" fill="#0e518d"/>

<path id="witte_bies" style="fill:none;stroke:#f7fbf5;stroke-width:6.75" d="M 276.33521,292.12448 C 285.0442,292.12448 292.12448,285.03576 292.12448,276.33521 L 292.12448,23.664791 C 292.12448,14.922045 285.0442,7.8755274 276.33521,7.8755274 L 23.66479,7.8755274 C 14.930481,7.8755274 7.8755248,14.922045 7.8755248,23.664791 L 7.8755248,276.33521 C 7.8755248,285.03576 14.930481,292.12448 23.66479,292.12448 L 276.33521,292.12448"/>

<path id="witte_driehoek" fill="#f7fbf5" d="M 150.66221,29.398532 L 271.95119,241.14389 L 27.71139,241.14389 L 150.66221,29.398532"/>

<path id="zwarte_persoon" fill="#2a2d2f" d="M 151.28645,96.85066 C 147.98808,96.85066 145.02713,98.32691 143.04474,100.70579 L 112.49895,131.97705 L 116.42156,136.02621 L 140.74178,117.34106 C 141.23105,127.75919 143.33999,138.59911 143.33999,138.59911 L 124.19931,207.56967 L 131.31907,207.56967 L 153.88466,155.63085 L 161.9914,177.87588 L 180.3813,205.29202 L 186.21039,200.41616 L 171.7178,171.7178 L 164.73301,136.65045 L 164.59804,117.83877 L 169.93786,121.72764 L 173.65802,140.53932 L 179.03158,140.86832 L 177.38661,117.50977 L 159.88246,99.35607 C 155.99359,95.79619 151.28645,96.85066 151.28645,96.85066 z M 151.28645,95.26474 C 157.21677,95.26474 161.9914,90.45637 161.9914,84.526052 C 161.9914,78.621039 157.21677,73.81267 151.28645,73.81267 C 145.35613,73.81267 140.57307,78.621039 140.57307,84.526052 C 140.57307,90.45637 145.35613,95.26474 151.28645,95.26474"/>

<path id="zwart_zebrapad" fill="#2a2d2f" d="M 72.39547,231.65369 L 46.13503,231.65369 L 72.39547,183.44347 L 92.43033,183.44347 L 72.39547,231.65369 z M 117.63631,231.65369 L 90.5576,231.65369 L 106.23963,183.44347 L 126.01299,183.44347 L 117.63631,231.65369 z M 144.49568,183.44347 L 160.15241,183.44347 L 164.20156,231.65369 L 137.11442,231.65369 L 140.37905,193.00115 L 144.49568,183.44347 z M 180.71029,183.44347 L 195.07634,183.44347 L 210.76681,231.65369 L 183.71341,231.65369 L 179.79079,209.24838 L 189.70278,201.73214 L 180.71029,183.44347 z M 228.92051,231.65369 L 255.18095,231.65369 L 228.92051,183.44347 L 208.88564,183.44347 L 228.92051,231.65369"/>

</svg>