<?xml version="1.0" encoding="UTF-8" standalone="yes"?>
<svg xmlns="http://www.w3.org/2000/svg" xmlns:xlink="http://www.w3.org/1999/xlink" width="375px" height="375px" viewBox="0 0 375 375" version="1.1">
  <g id="surface1">
    <use xlink:href="#image12" mask="url(#mask0)"/>
    <path style="fill-rule:nonzero;fill:rgb(47.058824%,26.666668%,12.941177%);fill-opacity:1;stroke-width:0.52917;stroke-linecap:butt;stroke-linejoin:miter;stroke:rgb(33.333334%,13.333334%,0%);stroke-opacity:1;stroke-miterlimit:10;" d="M 21.029996 32.417852 C 19.223403 30.689576 19.316185 17.154065 19.316185 17.154065 L 15.313176 17.154065 C 15.313176 17.154065 15.429594 30.960865 13.599365 32.417852 C 15.84517 32.974893 18.521369 32.965368 21.029996 32.417852 Z M 21.029996 32.417852 " transform="matrix(11.072725,0,0,11.072725,0,8.491341)"/>
    <path style="fill-rule:nonzero;fill:rgb(0%,50.196081%,0%);fill-opacity:1;stroke-width:0.52917;stroke-linecap:round;stroke-linejoin:round;stroke:rgb(8.627451%,31.37255%,8.627451%);stroke-opacity:1;stroke-miterlimit:10;" d="M 19.853118 4.86493 C 18.580636 4.867752 17.398466 5.523573 16.722184 6.601672 C 16.023325 5.871768 15.057057 5.459366 14.046691 5.459366 C 12.000207 5.459366 10.34143 7.118497 10.34143 9.164981 C 10.34143 9.395347 10.362949 9.62536 10.405636 9.851846 C 8.593399 10.125604 7.253535 11.682781 7.253535 13.515832 C 7.253535 14.942479 8.073046 16.242478 9.359992 16.857729 C 9.052367 17.409479 8.890793 18.030726 8.890793 18.662205 C 8.890793 20.708689 10.549923 22.367466 12.596408 22.367466 C 13.153096 22.367466 13.70273 22.241876 14.204384 22.000221 C 14.892308 23.02752 16.047314 23.644182 17.283812 23.644182 C 18.399659 23.643829 19.456239 23.140763 20.159332 22.274685 C 20.547391 22.408036 20.954854 22.476123 21.364786 22.476123 C 23.41127 22.476476 25.0704 20.817698 25.0704 18.771214 C 25.0704 18.057891 24.864376 17.359736 24.477375 16.760714 C 25.780549 16.151461 26.613465 14.842642 26.613465 13.404 C 26.613465 11.540257 25.228799 9.9665 23.380225 9.729078 C 23.503346 9.35513 23.565788 8.964248 23.565788 8.570544 C 23.566141 6.524413 21.907363 4.865283 19.860879 4.865283 C 19.858057 4.865283 19.855587 4.865283 19.853118 4.865283 Z M 19.853118 4.86493 " transform="matrix(11.072725,0,0,11.072725,0,8.491341)"/>
    <path style="fill:none;stroke-width:0.52917;stroke-linecap:round;stroke-linejoin:round;stroke:rgb(8.627451%,31.37255%,8.627451%);stroke-opacity:1;stroke-miterlimit:10;" d="M 21.228965 15.950023 C 21.228965 17.855747 19.722236 19.420685 17.817923 19.493005 " transform="matrix(11.072725,0,0,11.072725,0,8.491341)"/>
    <path style="fill:none;stroke-width:0.52917;stroke-linecap:round;stroke-linejoin:round;stroke:rgb(8.627451%,31.37255%,8.627451%);stroke-opacity:1;stroke-miterlimit:10;" d="M 16.18384 13.935994 C 14.278469 13.961747 12.693422 12.476186 12.595349 10.572578 " transform="matrix(11.072725,0,0,11.072725,0,8.491341)"/>
  </g>
</svg>
