<?xml version="1.0" encoding="utf-8"?>
<!-- Svg Vector Icons : http://www.onlinewebfonts.com/icon -->
<!DOCTYPE svg PUBLIC "-//W3C//DTD SVG 1.1//EN" "http://www.w3.org/Graphics/SVG/1.1/DTD/svg11.dtd">
<svg version="1.1" xmlns="http://www.w3.org/2000/svg" xmlns:xlink="http://www.w3.org/1999/xlink" x="0px" y="0px" viewBox="0 0 1000 1000" enable-background="new 0 0 1000 1000" xml:space="preserve">
<metadata> Svg Vector Icons : http://www.onlinewebfonts.com/icon </metadata>
<g><g transform="translate(0.000000,511.000000) scale(0.100000,-0.100000)"><path d="M3975.1,2900.8c-550.4-468.2-999.6-866.7-999.6-885.7c0-79.1,613.7-430.2,863.6-490.3c47.5-12.6,85.4-34.8,85.4-47.5c0-19-1309.6-1154.6-1483.6-1284.3c-41.1-31.6-41.1-47.5,6.3-120.2c82.3-123.4,449.2-354.3,781.3-490.3l291-120.2l-661.1-563.1c-879.4-749.7-790.8-654.8-708.6-771.9c230.9-319.5,1236.9-752.9,2015-860.4l265.7-38v-313.2v-313.2l151.8-66.4c208.8-94.9,626.3-94.9,838.3,0l148.7,66.4v313.2v313.2l259.4,38c790.8,120.2,1594.3,449.2,1948.6,790.8c72.8,72.7,132.9,142.3,132.9,155c0,15.8-322.7,300.5-714.9,635.8l-718.1,610.5l297.3,123.3C7227-230.8,7666.6,95,7574.9,177.2c-15.8,12.6-360.6,306.8-762.4,651.6c-404.9,341.6-737,635.8-737,648.5c0,12.7,38,34.8,88.6,47.5c246.8,60.1,860.4,411.2,860.4,490.3c0,34.8-1983.4,1739.8-2024.5,1739.8C4984.2,3754.9,4522.3,3372.2,3975.1,2900.8z"/><path d="M1558.3,2015.1c-420.7-363.8-768.7-673.8-771.9-686.4c-9.5-47.5,249.9-221.4,468.2-310c120.2-50.6,230.9-101.2,243.6-110.7c12.7-12.6-240.4-246.7-563.1-521.9S349.9-132.8,349.9-154.9c0-82.3,389.1-335.3,673.8-439.7c82.3-31.6,148.7-66.4,148.7-79.1c0-12.7-240.4-227.8-534.6-477.6C340.4-1401.3,100-1622.7,100-1644.9c-3.2-63.3,256.2-262.5,515.6-392.2c284.7-142.4,680.1-268.9,1009.1-325.8l227.8-37.9l15.8-249.9c15.8-253.1,15.8-253.1,126.5-306.8c79.1-41.1,186.6-56.9,363.8-56.9s284.7,15.8,363.8,56.9c98.1,47.5,110.7,69.6,120.2,196.1l6.3,142.3L2583.2-2480c-145.5,75.9-341.7,202.4-433.4,281.5c-161.3,145.5-344.8,392.3-344.8,471.3c0,22.1,246.7,249.9,547.2,502.9c297.4,256.2,578.9,496.6,620,534.6l72.8,72.7l-262.6,136c-294.2,151.9-594.7,423.9-654.8,588.4l-34.8,101.2l695.9,594.7l692.8,591.5l-234.1,123.4c-246.7,129.7-534.6,382.8-575.7,503c-15.8,53.8,0,88.6,85.4,158.2c56.9,47.5,98.1,91.7,88.6,98c-6.3,3.2-113.9,98.1-237.3,205.6c-126.5,107.6-240.4,196.1-253.1,193C2339.7,2676.2,1982.2,2378.9,1558.3,2015.1z"/><path d="M7499,2575c-63.3-53.8-167.6-148.7-234.1-205.6l-120.2-107.6l101.2-85.4c82.2-66.4,98-101.2,82.2-155c-41.1-120.2-329-373.3-575.7-503l-234.1-123.4l692.8-591.5l695.9-594.7l-34.8-101.2c-56.9-164.5-360.6-436.5-648.5-585.2c-145.5-75.9-262.5-139.2-262.5-145.5c0-6.3,278.4-246.7,616.9-537.8c338.5-287.9,616.8-540.9,616.8-559.9c0-202.5-477.7-639-911-832c-132.9-60.1-136-63.3-126.5-205.6c9.5-129.7,22.1-151.8,120.2-199.3c79.1-41.1,186.7-56.9,363.8-56.9c177.1,0,284.7,15.8,363.8,56.9c110.7,53.8,110.7,53.8,126.5,303.7l15.8,253.1l284.7,53.8c360.6,66.5,730.7,193,1002.8,335.3c227.8,120.2,468.2,310,465,366.9c0,22.1-240.4,243.6-537.8,493.5c-294.2,249.9-534.6,465-534.6,480.8c0,12.7,31.6,34.8,72.8,47.5c256.2,75.9,749.7,385.9,749.7,468.2c0,22.1-262.5,265.7-585.2,540.9s-575.7,509.3-563.1,521.9c12.6,9.5,123.3,60.1,243.6,110.7c237.3,98.1,480.8,265.7,461.8,316.3c-15.8,41.1-1543.7,1344.4-1572.2,1344.4C7619.2,2679.4,7559.1,2632,7499,2575z"/></g></g>
</svg>