<?xml version="1.0" encoding="UTF-8" standalone="yes"?>
<svg xmlns="http://www.w3.org/2000/svg" xmlns:xlink="http://www.w3.org/1999/xlink" width="375px" height="375px" viewBox="0 0 375 375" version="1.1">
  <g id="surface1">
    <path style=" stroke:none;fill-rule:nonzero;fill:rgb(0%,0%,0%);fill-opacity:1;" d="M 154.945312 2.265625 C 84.273438 14.835938 25.960938 68.199219 5.769531 139.078125 C 1.648438 153.296875 1.03125 160.097656 1.234375 188.53125 C 1.234375 218.40625 1.855469 223.351562 7.003906 240.042969 C 27.609375 307.828125 81.59375 357.898438 148.765625 371.703125 C 169.160156 376.03125 205.839844 376.03125 226.234375 371.703125 C 298.765625 356.867188 356.867188 298.765625 371.703125 226.234375 C 376.03125 205.839844 376.03125 169.160156 371.703125 148.765625 C 357.898438 81.59375 307.210938 26.992188 240.042969 7.210938 C 225 2.679688 216.347656 1.441406 193.679688 1.03125 C 178.433594 0.617188 160.921875 1.03125 154.945312 2.265625 Z M 230.769531 15.453125 C 296.496094 32.761719 347.800781 86.746094 361.402344 152.882812 C 383.652344 261.265625 298.96875 364.699219 188.324219 364.699219 C 118.269531 364.699219 56.457031 325.136719 26.992188 261.265625 C 7.828125 219.847656 5.152344 174.105469 19.78125 131.457031 C 40.382812 70.671875 90.246094 27.199219 154.53125 13.394531 C 171.839844 9.683594 212.636719 10.714844 230.769531 15.453125 Z M 230.769531 15.453125 "/>
    <path style=" stroke:none;fill-rule:nonzero;fill:rgb(0%,0%,0%);fill-opacity:1;" d="M 139.902344 89.011719 C 139.902344 114.355469 139.902344 164.011719 140.109375 199.246094 L 140.316406 263.734375 L 91.277344 264.148438 C 43.886719 264.765625 42.238281 264.972656 42.238281 268.886719 C 42.238281 273.007812 43.679688 273.007812 191.621094 273.007812 C 339.558594 273.007812 341.003906 273.007812 341.003906 268.886719 C 341.003906 264.972656 339.355469 264.765625 307.625 264.148438 C 270.742188 263.53125 269.710938 263.117188 278.367188 251.375 C 281.457031 247.253906 282.484375 243.957031 281.457031 240.246094 C 280.425781 235.714844 278.984375 234.890625 273.007812 234.890625 L 265.796875 234.890625 L 265.796875 121.359375 L 260.644531 116.414062 C 255.699219 111.265625 255.082031 111.265625 221.496094 111.265625 C 187.910156 111.265625 187.292969 111.265625 182.347656 116.414062 C 179.050781 119.503906 177.199219 123.832031 177.199219 127.746094 C 177.199219 133.722656 176.992188 133.929688 166.894531 133.929688 L 156.59375 133.929688 L 156.59375 88.597656 C 156.59375 59.753906 155.769531 43.269531 154.53125 43.269531 C 153.296875 43.269531 152.472656 59.339844 152.472656 87.570312 C 152.472656 130.425781 152.265625 131.867188 148.351562 131.867188 C 144.4375 131.867188 144.230469 130.425781 144.230469 87.570312 C 144.230469 59.339844 143.40625 43.269531 142.171875 43.269531 C 140.933594 43.269531 140.109375 59.957031 139.902344 89.011719 Z M 256.523438 120.535156 L 261.675781 125.480469 L 261.675781 234.890625 L 256.730469 234.890625 C 254.050781 234.890625 251.375 236.125 250.753906 237.363281 C 250.136719 239.21875 247.664062 237.980469 243.542969 234.066406 C 236.949219 227.882812 232.828125 228.296875 232.828125 235.097656 C 232.828125 237.363281 234.273438 239.011719 236.539062 239.011719 C 241.484375 239.21875 251.992188 254.671875 250.34375 259.820312 C 249.105469 263.53125 246.839844 263.734375 215.109375 263.734375 L 181.320312 263.734375 L 181.320312 123.832031 L 186.675781 119.710938 C 191.621094 115.796875 194.917969 115.382812 221.910156 115.382812 C 250.550781 115.382812 251.785156 115.589844 256.523438 120.535156 Z M 177.199219 201.921875 L 177.199219 263.734375 L 156.59375 263.734375 L 156.59375 203.367188 C 156.59375 169.984375 157.210938 142.171875 158.035156 141.550781 C 158.652344 140.726562 163.394531 140.109375 168.339844 140.109375 L 177.199219 140.109375 Z M 152.472656 202.953125 C 152.472656 262.292969 152.472656 263.734375 148.351562 263.734375 C 144.230469 263.734375 144.230469 262.292969 144.230469 202.953125 C 144.230469 143.613281 144.230469 142.171875 148.351562 142.171875 C 152.472656 142.171875 152.472656 143.613281 152.472656 202.953125 Z M 239.011719 233.652344 C 239.011719 234.273438 238.1875 235.300781 236.949219 235.921875 C 235.921875 236.539062 234.890625 236.125 234.890625 235.097656 C 234.890625 233.859375 235.921875 232.828125 236.949219 232.828125 C 238.1875 232.828125 239.011719 233.242188 239.011719 233.652344 Z M 271.976562 249.3125 L 271.976562 261.675781 L 262.707031 261.675781 C 254.464844 261.675781 253.433594 261.265625 253.433594 256.9375 C 253.433594 254.464844 251.992188 250.136719 250.136719 247.664062 C 247.253906 243.542969 247.253906 243.132812 250.136719 243.132812 C 251.992188 243.132812 253.433594 241.691406 253.433594 240.042969 C 253.433594 237.773438 255.90625 236.949219 262.707031 236.949219 L 271.976562 236.949219 Z M 271.976562 249.3125 "/>
    <path style=" stroke:none;fill-rule:nonzero;fill:rgb(0%,0%,0%);fill-opacity:1;" d="M 216.550781 148.144531 C 209.339844 158.035156 207.691406 164.835938 210.371094 171.429688 C 215.523438 183.996094 232.828125 179.671875 232.828125 165.867188 C 232.828125 159.890625 224.175781 142.171875 221.292969 142.171875 C 221.085938 142.171875 218.820312 144.847656 216.550781 148.144531 Z M 229.53125 164.011719 C 231.179688 169.574219 224.382812 175.960938 218.613281 174.105469 C 212.226562 172.046875 211.402344 165.867188 216.550781 156.59375 L 221.292969 148.351562 L 224.792969 153.914062 C 226.648438 157.210938 228.914062 161.539062 229.53125 164.011719 Z M 229.53125 164.011719 "/>
    <path style=" stroke:none;fill-rule:nonzero;fill:rgb(0%,0%,0%);fill-opacity:1;" d="M 216.757812 225.617188 C 216.347656 234.273438 216.757812 234.890625 221.496094 234.890625 C 226.234375 234.890625 226.648438 234.273438 226.234375 225.617188 C 226.03125 217.582031 225.410156 216.347656 221.496094 216.347656 C 217.582031 216.347656 216.964844 217.582031 216.757812 225.617188 Z M 221.910156 230.152344 C 221.292969 232.210938 220.878906 230.976562 220.878906 227.679688 C 220.878906 224.175781 221.292969 222.734375 221.910156 223.96875 C 222.320312 225.410156 222.320312 228.296875 221.910156 230.152344 Z M 221.910156 230.152344 "/>
  </g>
</svg>