<?xml version="1.0" standalone="no"?>
<!DOCTYPE svg PUBLIC "-//W3C//DTD SVG 20010904//EN"
 "http://www.w3.org/TR/2001/REC-SVG-20010904/DTD/svg10.dtd">
<svg version="1.0" xmlns="http://www.w3.org/2000/svg"
 width="182.000000pt" height="182.000000pt" viewBox="0 0 182.000000 182.000000"
 preserveAspectRatio="xMidYMid meet">
<metadata>
Created by potrace 1.16, written by Peter Selinger 2001-2019
</metadata>
<g transform="translate(0.000000,182.000000) scale(0.100000,-0.100000)"
fill="#000000" stroke="none">
<path d="M752 1809 c-343 -61 -626 -320 -724 -664 -20 -69 -23 -102 -22 -240
0 -145 3 -169 28 -250 100 -329 362 -572 688 -639 99 -21 277 -21 376 0 352
72 634 354 706 706 21 99 21 277 0 376 -67 326 -313 591 -639 687 -73 22 -115
28 -225 30 -74 2 -159 0 -188 -6z m368 -64 c319 -84 568 -346 634 -667 108
-526 -303 -1028 -840 -1028 -340 0 -640 192 -783 502 -93 201 -106 423 -35
630 100 295 342 506 654 573 84 18 282 13 370 -10z"/>
<path d="M679 1388 c0 -123 0 -364 1 -535 l1 -313 -238 -2 c-230 -3 -238 -4
-238 -23 0 -20 7 -20 725 -20 718 0 725 0 725 20 0 19 -8 20 -162 23 -179 3
-184 5 -142 62 15 20 20 36 15 54 -5 22 -12 26 -41 26 l-35 0 0 275 0 276 -25
24 c-24 25 -27 25 -190 25 -163 0 -166 0 -190 -25 -16 -15 -25 -36 -25 -55 0
-29 -1 -30 -50 -30 l-50 0 0 220 c0 140 -4 220 -10 220 -6 0 -10 -78 -10 -215
0 -208 -1 -215 -20 -215 -19 0 -20 7 -20 215 0 137 -4 215 -10 215 -6 0 -10
-81 -11 -222z m566 -153 l25 -24 0 -266 0 -265 -24 0 c-13 0 -26 -6 -29 -12
-3 -9 -15 -3 -35 16 -32 30 -52 28 -52 -5 0 -11 7 -19 18 -19 24 -1 75 -76 67
-101 -6 -18 -17 -19 -171 -19 l-164 0 0 339 0 340 26 20 c24 19 40 21 171 21
139 0 145 -1 168 -25z m-385 -395 l0 -300 -50 0 -50 0 0 293 c0 162 3 297 7
300 3 4 26 7 50 7 l43 0 0 -300z m-120 -5 c0 -288 0 -295 -20 -295 -20 0 -20
7 -20 295 0 288 0 295 20 295 20 0 20 -7 20 -295z m420 -149 c0 -3 -4 -8 -10
-11 -5 -3 -10 -1 -10 4 0 6 5 11 10 11 6 0 10 -2 10 -4z m160 -76 l0 -60 -45
0 c-40 0 -45 2 -45 23 0 12 -7 33 -16 45 -14 20 -14 22 0 22 9 0 16 7 16 15 0
11 12 15 45 15 l45 0 0 -60z"/>
<path d="M1051 1101 c-35 -48 -43 -81 -30 -113 25 -61 109 -40 109 27 0 29
-42 115 -56 115 -1 0 -12 -13 -23 -29z m63 -77 c8 -27 -25 -58 -53 -49 -31 10
-35 40 -10 85 l23 40 17 -27 c9 -16 20 -37 23 -49z"/>
<path d="M1052 725 c-2 -42 0 -45 23 -45 23 0 25 3 23 45 -1 39 -4 45 -23 45
-19 0 -22 -6 -23 -45z m25 -22 c-3 -10 -5 -4 -5 12 0 17 2 24 5 18 2 -7 2 -21
0 -30z"/>
</g>
</svg>
