<?xml version="1.0" standalone="no"?>
<!DOCTYPE svg PUBLIC "-//W3C//DTD SVG 20010904//EN"
 "http://www.w3.org/TR/2001/REC-SVG-20010904/DTD/svg10.dtd">
<svg version="1.0" xmlns="http://www.w3.org/2000/svg"
 width="182.000000pt" height="182.000000pt" viewBox="0 0 182.000000 182.000000"
 preserveAspectRatio="xMidYMid meet">
<metadata>
Created by potrace 1.16, written by Peter Selinger 2001-2019
</metadata>
<g transform="translate(0.000000,182.000000) scale(0.100000,-0.100000)"
fill="#000000" stroke="none">
<path d="M752 1809 c-343 -61 -626 -320 -724 -664 -20 -69 -23 -102 -22 -240
0 -145 3 -169 28 -250 100 -329 362 -572 688 -639 99 -21 277 -21 376 0 352
72 634 354 706 706 21 99 21 277 0 376 -67 326 -313 591 -639 687 -73 22 -115
28 -225 30 -74 2 -159 0 -188 -6z m368 -64 c319 -84 568 -346 634 -667 108
-526 -303 -1028 -840 -1028 -340 0 -640 192 -783 502 -93 201 -106 423 -35
630 100 295 342 506 654 573 84 18 282 13 370 -10z"/>
<path d="M853 1600 c-43 -35 -65 -61 -74 -87 -7 -21 -18 -42 -25 -48 -10 -8
-9 -27 3 -92 15 -82 15 -83 -10 -130 -16 -31 -32 -49 -46 -51 -20 -3 -21 1
-21 82 0 51 -4 86 -10 86 -6 0 -10 -27 -10 -60 0 -33 -3 -60 -7 -60 -5 0 -21
9 -38 20 -36 24 -55 25 -55 5 0 -10 -10 -15 -26 -15 -21 0 -25 -4 -21 -20 4
-15 0 -20 -14 -20 -10 0 -19 -6 -19 -13 0 -8 -14 -11 -45 -9 -28 3 -45 0 -45
-7 0 -6 19 -11 44 -11 43 0 44 -1 50 -39 3 -23 18 -52 35 -70 25 -27 36 -31
78 -31 45 0 73 -12 73 -32 0 -4 -63 -8 -140 -8 -91 0 -140 -4 -140 -11 0 -7
50 -9 150 -7 l151 3 19 -40 c27 -55 42 -141 34 -190 -4 -22 -18 -65 -32 -97
-29 -68 -50 -74 -89 -28 -14 17 -37 37 -52 45 -32 16 -96 29 -109 21 -5 -3 -6
-26 -2 -51 l7 -45 -39 0 c-21 0 -38 -5 -38 -11 0 -6 16 -9 40 -8 39 3 42 2 70
-47 27 -48 70 -80 133 -98 9 -3 17 -14 17 -25 0 -11 11 -54 24 -96 l24 -75
-99 0 c-59 0 -99 -4 -99 -10 0 -6 80 -10 220 -10 140 0 220 4 220 10 0 6 -41
10 -104 10 l-104 0 -26 78 c-39 116 -42 160 -18 215 l21 47 125 0 126 0 0 -25
c0 -14 5 -25 10 -25 6 0 10 11 10 25 l0 25 140 0 140 0 0 -25 c0 -14 5 -25 10
-25 6 0 10 11 10 25 l0 25 110 0 c67 0 110 4 110 10 0 6 -137 10 -390 10
l-390 0 16 33 c11 22 33 40 68 57 30 15 59 38 71 57 16 25 27 32 53 33 l32 0
0 -85 c0 -50 4 -85 10 -85 6 0 10 35 10 85 l0 85 140 0 140 0 0 -85 c0 -50 4
-85 10 -85 6 0 10 35 10 85 l0 85 110 0 c67 0 110 4 110 10 0 6 -106 10 -297
10 l-298 0 3 65 c3 45 0 65 -8 65 -20 0 -101 -63 -116 -90 l-13 -25 -1 26 c0
14 -9 52 -21 85 -21 61 -31 186 -17 234 l7 25 381 -3 c254 -2 380 1 380 8 0 6
-42 10 -110 10 l-110 0 0 85 c0 50 -4 85 -10 85 -6 0 -10 -35 -10 -85 l0 -85
-140 0 -140 0 0 85 c0 50 -4 85 -10 85 -6 0 -10 -35 -10 -85 l0 -85 -100 0
c-55 0 -100 1 -100 3 0 1 9 21 20 42 17 32 19 51 14 92 -7 60 6 97 62 174 19
26 34 52 34 58 0 22 -17 10 -49 -34 -36 -50 -42 -54 -34 -26 6 23 80 97 89 88
3 -3 3 -29 -1 -58 -6 -44 -14 -59 -51 -95 -24 -23 -44 -47 -44 -53 0 -8 104
-10 353 -9 l352 3 -333 5 -333 5 35 34 c25 24 38 48 45 83 13 57 14 148 3 148
-4 0 -35 -22 -69 -50z m-197 -421 c7 -15 14 -43 14 -61 l0 -33 -36 37 c-28 27
-37 46 -40 77 l-4 41 26 -16 c14 -9 32 -30 40 -45z m-86 20 c0 -5 -4 -9 -10
-9 -5 0 -10 7 -10 16 0 8 5 12 10 9 6 -3 10 -10 10 -16z m24 -80 c49 -50 50
-52 28 -60 -44 -17 -112 36 -112 87 0 38 28 29 84 -27z m100 -75 c10 -25 -1
-29 -14 -5 -6 12 -7 21 -1 21 5 0 12 -7 15 -16z m182 -239 c-7 -28 -50 -81
-78 -96 -18 -10 -19 -9 -7 13 7 13 27 41 46 64 18 23 33 44 33 48 0 15 -26 4
-47 -21 -12 -16 -22 -23 -23 -17 0 7 17 27 38 45 36 32 37 33 40 10 2 -13 1
-33 -2 -46z m-314 -171 c27 -14 61 -61 73 -104 5 -17 -3 -10 -23 20 -34 50
-92 92 -92 67 0 -8 11 -22 25 -31 26 -17 79 -100 73 -116 -6 -18 -67 28 -94
71 -14 23 -29 60 -32 82 -5 38 -4 39 19 32 13 -4 36 -14 51 -21z"/>
<path d="M660 1420 c0 -16 5 -30 10 -30 6 0 10 14 10 30 0 17 -4 30 -10 30 -5
0 -10 -13 -10 -30z"/>
<path d="M960 1420 c0 -16 5 -30 10 -30 6 0 10 14 10 30 0 17 -4 30 -10 30 -5
0 -10 -13 -10 -30z"/>
<path d="M1260 1420 c0 -16 5 -30 10 -30 6 0 10 14 10 30 0 17 -4 30 -10 30
-5 0 -10 -13 -10 -30z"/>
<path d="M477 1373 c51 -2 135 -2 185 0 51 1 10 3 -92 3 -102 0 -143 -2 -93
-3z"/>
<path d="M960 1075 l0 -85 -110 0 c-67 0 -110 -4 -110 -10 0 -6 133 -10 380
-10 247 0 380 4 380 10 0 6 -43 10 -110 10 l-110 0 0 85 c0 54 -4 85 -11 85
-7 0 -9 -29 -7 -85 l3 -85 -145 0 -145 0 3 85 c2 56 0 85 -7 85 -7 0 -11 -31
-11 -85z"/>
<path d="M660 880 c0 -47 4 -80 10 -80 6 0 10 33 10 80 0 47 -4 80 -10 80 -6
0 -10 -33 -10 -80z"/>
<path d="M960 880 c0 -47 4 -80 10 -80 6 0 10 33 10 80 0 47 -4 80 -10 80 -6
0 -10 -33 -10 -80z"/>
<path d="M1260 880 c0 -47 4 -80 10 -80 6 0 10 33 10 80 0 47 -4 80 -10 80 -6
0 -10 -33 -10 -80z"/>
<path d="M390 780 c0 -6 52 -10 135 -10 l135 0 0 -85 c0 -50 4 -85 10 -85 6 0
10 35 10 85 0 83 0 85 24 85 14 0 28 5 31 10 4 7 -55 10 -169 10 -111 0 -176
-4 -176 -10z"/>
</g>
</svg>
