<?xml version="1.0" encoding="UTF-8"?>
<!DOCTYPE svg PUBLIC "-//W3C//DTD SVG 1.1//EN" "http://www.w3.org/Graphics/SVG/1.1/DTD/svg11.dtd">
<svg version="1.1" id="Layer_1" xmlns="http://www.w3.org/2000/svg" xmlns:xlink="http://www.w3.org/1999/xlink" x="0px" y="0px" viewBox="0 0 1702 1701.673" enable-background="new 0 0 1702 1701.673" xml:space="preserve">
<g>
	<path fill="#FF0000" d="M501.52,1043.712c-1.61,0.14-3.35,0.21-4.67,1.34c-6.24,4.38-12.54,8.69-18.79,13.07   c0.073,23.734-3.728,47.512-11.453,69.959c17.038-0.003,34.077-0.012,51.115-0.019c-2.031-4.964-3.722-10.079-5.243-15.17   C506.19,1090.352,503.05,1067.022,501.52,1043.712z"/>
	<path fill="#FF0000" d="M1651.154,1127.774c-0.187-184.46,0.013-368.922-0.094-553.396c-174.545-0.013-349.104,0.013-523.635-0.013   c-0.187-174.505-0.107-349.01-0.04-523.528c-185.182,0.107-370.35,0.027-555.532,0.04c0.134,174.505-0.094,349.01,0.12,523.528   c-173.705-0.08-347.422,0.04-521.127-0.067c0.04,184.607,0,369.203,0.013,553.81c15.548-0.016,31.095-0.015,46.643-0.025   c-0.227-0.421-0.461-0.838-0.683-1.261c-7.89-14.97-12.78-31.38-15.66-48.01c-0.77-21.05,5.7-44.11,22.97-57.46   c3.94-0.93,8.21-0.17,12.26-0.36c0.97,0.93,1.92,1.86,2.85,2.81c-3.55,13.7-7.04,27.42-10.62,41.12   c-2.03,6.12-0.82,12.66-0.07,18.91c1.86,12.52,6.85,24.62,14.78,34.52c2.788,3.526,5.895,6.748,9.232,9.712   c54.023-0.023,108.045-0.031,162.068-0.024c-0.289-4.045-0.584-8.089-0.84-12.137c-4.17-45.73,5.73-92.98,29.54-132.4   c19.32-32.29,47.01-58.9,77.84-80.15c5.38-3.42,10.31-7.82,16.53-9.62c12.16-4.21,24.2-8.77,36.02-13.83   c13.72-6.04,27.54-12.39,39.41-21.67c5.12-4.26,10.63-9.42,11.33-16.43c-0.56-9.99-2.24-19.92-2.76-29.92   c1.29-13.14,3.58-26.22,2.8-39.48c1-0.91,2-1.83,2.96-2.71c-7.11-20.14-12.37-41.38-11.49-62.87c-0.14-5.11,6.77-7.84,10.27-4.39   c11.2,9.07,22.4,18.12,33.58,27.21c2.88,0.32,6.07-0.35,7.26-3.31c3.73-7.89,3.85-16.86,4.54-25.4c2.4,0.04,5.29,0.01,6.63,2.41   c3.8,6.11,4.15,13.6,5.1,20.55c10.79,0,21.57,0,32.35,0c2.92,2.81,5.86,5.61,8.72,8.48c6.54,0.2,13.17,1.05,19.19,3.73   c6.68,2.77,12.22,7.77,16.37,13.62c-0.42,6.79-2.08,13.45-4.66,19.74c-6.79,16.72-17.31,31.53-27.88,46.02   c2.03,18.12,4.14,36.25,5.85,54.4c-1.29,21.94-3.4,43.89-7.17,65.56c-1,6.91-3.26,13.61-4.3,20.48c3.07,16.11,8.5,32.8,20.22,44.76   c6.65,2.5,13.62,4.17,20.28,6.7c19.95,7.14,39.69,16.19,55.84,30.17c11.92,10.32,21.26,24.38,23.36,40.25   c0.85,7.06,1.56,14.94-2.39,21.27c-3.61,5.78-10.96,7.73-17.4,7.49c-4.11-2.7-8.2-5.59-11.94-8.78   c-5.98-13.15-11.72-26.42-17.53-39.64c-37.59-7.54-75.29-15.47-111.46-28.4c-2.03-0.46-4.13-0.22-6.22-0.27   c-8.14,21.21-14.27,43.54-14.7,66.39c-0.16,2.79,0.8,5.45,1.46,8.12c1.47,5.61,2.93,11.22,4.34,16.85   c3.174,2.414,6.464,4.751,9.682,7.176c6.231-0.004,12.461-0.002,18.692-0.007c-0.12,106.883-0.013,213.768-0.053,320.651   c0.094,67.381-0.174,134.763,0.134,202.144c185.848-0.174,371.712-0.067,557.56-0.053c-0.749-33.537-0.094-67.101-0.321-100.638   c0.067-140.701-0.067-281.43,0.094-422.104c27.517,0.021,55.035,0.03,82.552,0.038c-1.605-11.692-3.466-23.348-5.644-34.946   c-2.96-14.88-6.3-29.77-11.83-43.93c-3.29-8.07-7.16-16.48-14.23-21.91c-2.84-2.48-7-1.88-9.91-4.1   c-14.71-10.73-28.66-22.68-40.42-36.63c-15.13-17.83-26.48-39.76-28.15-63.39c-1.15-10.78,1.26-21.47,3.28-31.99   c6.09-29.1,13.89-57.8,21.57-86.51c-7.14-0.47-13.94,3.31-21.07,1.81c-12.1-1.65-24.57-2.24-36.14-6.38   c-9.14-6.54-14.31-16.95-19.53-26.6c-1.27-1.95-1.7-4.88,0.3-6.51c4.62-4.18,10.61-6.38,16.22-8.9c9.98-4.2,20.28-7.6,30.52-11.12   c11.07-20,29.47-35.21,50.24-44.36c0.08-7.87,0.87-16.05,4.67-23.09c3.16-5.84,9.28-10.26,16.06-10.33   c2.12,3.67,3.54,7.74,3.98,11.97c0.51,3.6-0.01,7.41,1.49,10.82c1.92,4.93,3.85,9.85,5.71,14.81c8.5,0.95,14.73,7.5,19.81,13.82   c9.09,11.79,15.89,25.15,22.2,38.58c7.83,16.78,14.57,34.04,21.06,51.38c1.75,3.94,0.86,8.34,1.08,12.51   c0.34,7.27-1.29,14.41-2.3,21.57c39.66,25.99,84.26,46.6,131.95,51.08c2.03,2.58,5.3,3.42,8.44,3.77c9.66,1.2,19.43,0.6,29.15,0.75   c12.36-0.08,24.72,0.15,37.08-0.11c7.26-1.26,13.58-5.46,19.99-8.88c20.34-11.94,39.64-25.56,58.89-39.16   c2.59-2.02,5.64-3.54,7.81-6.05c14.31-21.29,28.52-42.68,44.11-63.07c4.54-5.66,8.86-11.68,14.72-16.08   c1.5,0.02,3.01,0.04,4.56,0.07c6.98,7.02,12.28,16.05,13.44,26.02c0.52,6,0.51,12.05,0.32,18.07c0.05,15.29-7.59,29.34-16.58,41.22   c-12.58,16.39-28.29,30.03-44.53,42.66c-12.78,9.7-25.9,19.01-39.56,27.41c-8.31,1.67-16.69,3.12-25.06,4.42   c-3.89-1.17-7.57-2.91-11.38-4.26c12.92,12.04,22.91,27.19,28.71,43.88c5.72,15.81,7.58,32.7,7.95,49.42   c5.46,17.55,14.46,34.22,27.09,47.67c7.94,8.53,17.43,15.51,27.64,21.08c-0.74,4.62-2.55,9.19-2.01,13.94   c1.001,9.848,1.993,19.695,2.984,29.543C1596.183,1128.079,1623.676,1128.35,1651.154,1127.774z"/>
	<path fill="#FF0000" d="M1521.946,1102.274c0.347,8.608,0.874,17.209,1.463,25.807c6.814,0.001,13.628-0.001,20.442,0   C1539.464,1117.479,1531.072,1109.001,1521.946,1102.274z"/>
	<path fill="#FF0000" d="M1497.886,1114.724c-3.04-9.21-9.81-16.55-16.9-22.9c-17.62-15.29-38.64-25.87-59.39-36.17   c-4.33-5.34-7.87-11.29-11.51-17.11c-3.01-5.07-6.07-10.27-7.2-16.13c-4.82,0.69-9.6,2.61-14.5,2.01   c-3.92-2.11-4.57-7.1-5.93-10.92c-11.36-1.41-22.7-3.13-34.08-4.3c-30.62,8.27-62.41,10.83-93.93,13.22   c0.68,3.88,1.89,7.69,2.12,11.64c-1.91,13.33-4.08,26.64-6.1,39.96c-1,4.95-0.25,10-0.19,15.01   c0.54,13.01,0.924,26.038,1.436,39.056c82.461,0.011,164.925-0.011,247.39-0.009   C1499.117,1123.585,1499.367,1119.029,1497.886,1114.724z"/>
	<path fill="#FF0000" d="M1217.796,1160.104c0.17,16.94-10.79,31.44-22.89,42.23c0.16,1.74-0.17,3.77,1.28,5.12   c1.57,1.24,3.68,1.24,5.58,1.66c-1.58,3-3.1,6.02-4.7,9.01c0.57,2.8,2.22,5.44,5.02,6.46c7.86,3.16,16.54,1.78,24.8,2.05   c2.8-3.11,7.21-3.39,10.67-5.45c6.25-3.07,11.5-8.97,12.14-16.11c0.59-9.98-0.45-20.05,1.06-29.97c0.89-6.47,2.9-13.3,8.19-17.55   c-2.24-5.97-4.93-11.81-6.74-17.91c-0.183-3.85-0.342-7.702-0.494-11.554c-12.564-0.002-25.128-0.007-37.693-0.01   C1215.481,1138.728,1216.733,1149.408,1217.796,1160.104z"/>
	<path fill="#FF0000" d="M1543.851,1128.082c0.367,0.887,0.716,1.785,1.025,2.702c3.39,9.41,1.9,19.54,2.26,29.32   c0.34,5.51-1.59,10.81-4.04,15.65c-4.18,8.14-9.63,15.54-15.29,22.7c-0.91,0.98-1.22,2.29-1.57,3.55c2.45,2.25,4.78,4.62,7.21,6.91   c8.31-0.12,16.62,0.13,24.93-0.11c7.42-2.73,14.71-8.64,15.96-16.89c0.67-5.96-0.6-11.91-1.04-17.84   c-1.516-15.342-3.052-30.685-4.596-46.027c-6.943-0.008-13.886-0.005-20.828,0.035   C1546.531,1128.081,1545.191,1128.082,1543.851,1128.082z"/>
	<path fill="#FF0000" d="M1499.116,1130.064c-0.09,4.61,0.17,9.24-0.14,13.85c-0.86,5.22-3.76,9.8-6.61,14.16   c-4.88,7.08-10.48,13.65-16.33,19.95c0.13,2.18,0.61,4.72,2.95,5.6c7.62,3.5,16.35,3.51,24.53,2.4c7.29-1.06,14.9-3.35,20.13-8.82   c1.22-1.46,3.03-2.94,2.75-5.06c-0.795-14.696-1.982-29.376-2.987-44.063c-8.102-0.001-16.205,0-24.307-0.001   C1499.099,1128.743,1499.102,1129.405,1499.116,1130.064z"/>
	<path fill="#FF0000" d="M530.35,1149.382c6.26,7.22,15.62,12.15,25.34,11.44c5.69-0.06,10.63-3.82,13.54-8.5   c1.72-2.79,4.28-6.38,1.61-9.43c-4.201-5.881-9.723-10.506-15.478-14.844c-12.547,0.008-25.093,0.009-37.64,0.014   C520.874,1135.763,524.853,1143.095,530.35,1149.382z"/>
	<path fill="#FF0000" d="M294.63,1128.079c0.376,5.267,0.741,10.535,0.99,15.813c-29.53,8.71-60.29,12.64-90.98,14.12   c-14.43-2.33-28.67-6.15-42.21-11.72c-10.754-4.501-21.127-10.427-29.868-18.188c-11.686,0.005-23.373,0.012-35.059,0.019   c7.816,14.467,18.676,27.368,32.077,36.959c15.3,11.1,33.44,17.78,51.94,21.19c19.82,3.84,40.09,3.26,60.18,3.1   c30.02-1.72,60.04-3.77,90-6.4c21.8-2.04,43.61-4.24,65.22-7.78c8.43-1.47,16.86-3.05,25.03-5.62c1.26,7.27,9.18,9.82,15.32,11.64   c22.03,5.57,44.97,5.02,67.51,5.6c10.05,2.42,20.01,5.28,30.02,7.85c2.85,1.02,5.58-0.75,8.21-1.58   c5.64-2.36,12.01-5.44,14.31-11.52c0.29-3.63,0.57-7.42-0.2-10.98c-2.52-4.71-8.09-6.4-12.75-8.24   c-16.58-5.46-34.01-7.67-51.26-9.94c-2.06-4.29-6.96-5.61-11.24-6.55c-7.02-1.54-14.23-1.75-21.38-2.13   c2.259-5.127,4.296-10.348,6.117-15.641C409.281,1128.09,351.956,1128.086,294.63,1128.079z"/>
</g>
</svg>