<?xml version="1.0" encoding="utf-8"?>
<!-- Generator: Adobe Illustrator 14.0.0, SVG Export Plug-In . SVG Version: 6.00 Build 43363)  -->
<!DOCTYPE svg PUBLIC "-//W3C//DTD SVG 1.1//EN" "http://www.w3.org/Graphics/SVG/1.1/DTD/svg11.dtd">
<svg version="1.1" id="Calque_1" xmlns="http://www.w3.org/2000/svg" xmlns:xlink="http://www.w3.org/1999/xlink" x="0px" y="0px"
	 width="68.478px" height="102.179px" viewBox="0 0 68.478 102.179" enable-background="new 0 0 68.478 102.179"
	 xml:space="preserve">
<path fill="#0071B3" d="M8.028,0h52.512c4.377,0,7.938,3.543,7.938,7.929V94.34c0,4.354-3.561,7.839-7.938,7.839H7.968
	c-4.406,0-7.968-3.545-7.968-7.9L0.031,7.929C0.031,3.544,3.622,0,8.028,0z"/>
<path fill="none" stroke="#0071B3" stroke-width="0" stroke-miterlimit="3.863" d="M8.028,0h52.512c4.377,0,7.938,3.544,7.938,7.929
	V94.34c0,4.354-3.561,7.839-7.938,7.839H7.968c-4.406,0-7.968-3.545-7.968-7.9L0.031,7.929C0.031,3.544,3.622,0,8.028,0z"/>
<path fill-rule="evenodd" clip-rule="evenodd" fill="#00AEEF" d="M58.337,14.987c-3.984,0-6.459-4.265-4.467-7.688
	c1.992-3.394,6.941-3.394,8.903,0C64.765,10.723,62.291,14.987,58.337,14.987z"/>
<path fill="none" stroke="#000000" stroke-width="0" stroke-miterlimit="3.863" d="M58.337,14.987c-3.984,0-6.459-4.265-4.467-7.688
	c1.992-3.394,6.941-3.394,8.903,0C64.765,10.723,62.291,14.987,58.337,14.987z"/>
<path fill="#FFFFFF" d="M65.912,94.43c0,2.853-2.322,5.165-5.13,5.165H7.727c-2.837,0-5.13-2.313-5.13-5.165V7.719
	c0-2.823,2.293-5.166,5.13-5.166c16.629,0,36.396,0,53.055,0c2.808,0,5.13,2.313,5.13,5.195V94.43z"/>
<path fill="none" stroke="#FFFFFF" stroke-width="0" stroke-miterlimit="3.863" d="M65.912,94.43c0,2.853-2.322,5.165-5.13,5.165
	H7.727c-2.837,0-5.13-2.313-5.13-5.165V7.719c0-2.823,2.293-5.166,5.13-5.166c16.629,0,36.396,0,53.055,0
	c2.808,0,5.13,2.313,5.13,5.195V94.43z"/>
<path fill="#0071B3" d="M63.376,94.459c0,1.441-1.206,2.583-2.625,2.583H7.696c-1.418,0-2.565-1.142-2.565-2.583V7.689
	c0-1.412,1.146-2.583,2.565-2.583c15.301,0,37.815,0,53.116,0c1.418,0,2.564,1.141,2.564,2.583V94.459z"/>
<path fill="none" stroke="#0071B3" stroke-width="0" stroke-miterlimit="3.863" d="M63.376,94.459c0,1.441-1.206,2.583-2.625,2.583
	H7.696c-1.418,0-2.565-1.142-2.565-2.583V7.689c0-1.412,1.146-2.583,2.565-2.583c15.301,0,37.815,0,53.116,0
	c1.418,0,2.564,1.141,2.564,2.583V94.459z"/>
<polygon fill="#FFFFFF" points="39.686,68.088 39.686,86.71 31.146,86.71 31.146,35.622 39.686,35.622 "/>
<polygon fill="none" stroke="#FFFFFF" stroke-width="0" stroke-miterlimit="3.863" points="39.686,68.088 39.686,86.71 
	31.146,86.71 31.146,35.622 39.686,35.622 "/>
<path fill-rule="evenodd" clip-rule="evenodd" fill="#ED1C24" d="M25.17,35.531 M45.722,35.531H25.17v-6.848h20.552V35.531z"/>
<path fill="none" stroke="#ED1C24" stroke-width="0" stroke-miterlimit="3.863" d="M25.17,35.531 M45.722,35.531H25.17v-6.848
	h20.552V35.531z"/>
</svg>
