<?xml version="1.0" encoding="UTF-8" standalone="no"?>
<!-- Created with Inkscape (http://www.inkscape.org/) -->

<svg
   xmlns:svg="http://www.w3.org/2000/svg"
   xmlns="http://www.w3.org/2000/svg"
   xmlns:xlink="http://www.w3.org/1999/xlink"
   version="1.1"
   width="175.68977"
   height="262.15436"
   id="svg2"
   xml:space="preserve"><defs
     id="defs6"><clipPath
       id="clipPath20"><path
         d="m 0,0 1030,0 0,1442 L 0,1442 0,0 z"
         id="path22" /></clipPath><clipPath
       id="clipPath30"><path
         d="m 718,-692 0,1859 c 0,2.209 -1.7909,4 -4,4 l -683,0 c -2.20914,0 -4,-1.791 -4,-4 l 0,-3718 c 0,-2.209 1.79086,-4 4,-4 l 683,0 c 2.2091,0 4,1.791 4,4 l 0,1859 z"
         id="path32" /></clipPath><clipPath
       id="clipPath36"><path
         d="m 27,1171 691,0 L 718,0 27,0 27,1171 z m 690,-1863 0,-1859 c 0,-1.657 -1.3431,-3 -3,-3 l -683,0 c -1.65685,0 -3,1.343 -3,3 l 0,3718 c 0,1.657 1.34315,3 3,3 l 683,0 c 1.6569,0 3,-1.343 3,-3 l 0,-1859 z"
         id="path38" /></clipPath><clipPath
       id="clipPath42"><path
         d="m 0,0 1030,0 0,1442 L 0,1442 0,0 z"
         id="path44" /></clipPath><clipPath
       id="clipPath48"><path
         d="m 27,0 691,0 0,1171 -691,0 L 27,0 z"
         id="path50" /></clipPath><clipPath
       id="clipPath52"><path
         d="m 27,1171 345.5,-345.5 0,0 345.5,345.5 -691,0 z"
         id="path54" /></clipPath><clipPath
       id="clipPath56"><path
         d="m 27,0 691,0 0,1171 -691,0 L 27,0 z"
         id="path58" /></clipPath><clipPath
       id="clipPath60"><path
         d="m 27,1171 345.5,-345.5 0,-3380.5 -345.5,0 0,3726 z"
         id="path62" /></clipPath><clipPath
       id="clipPath64"><path
         d="m 27,1171 345.5,0 0,-3380.5 L 27,-2555 27,1171 z"
         id="path66" /></clipPath><clipPath
       id="clipPath68"><path
         d="m 27,0 691,0 0,1171 -691,0 L 27,0 z"
         id="path70" /></clipPath><clipPath
       id="clipPath72"><path
         d="m 718,1171 -345.5,-345.5 0,-3380.5 345.5,0 0,3726 z"
         id="path74" /></clipPath><clipPath
       id="clipPath76"><path
         d="m 718,1171 -345.5,0 0,-3380.5 345.5,-345.5 0,3726 z"
         id="path78" /></clipPath><clipPath
       id="clipPath80"><path
         d="m 27,0 691,0 0,1171 -691,0 L 27,0 z"
         id="path82" /></clipPath><clipPath
       id="clipPath122"><path
         d="m 718,-692 0,1859 c 0,2.209 -1.7909,4 -4,4 l -683,0 c -2.20914,0 -4,-1.791 -4,-4 l 0,-3718 c 0,-2.209 1.79086,-4 4,-4 l 683,0 c 2.2091,0 4,1.791 4,4 l 0,1859 z"
         id="path124" /></clipPath><clipPath
       id="clipPath128"><path
         d="m 27,1171 691,0 L 718,0 27,0 27,1171 z m 690,-1863 0,-1859 c 0,-1.657 -1.3431,-3 -3,-3 l -683,0 c -1.65685,0 -3,1.343 -3,3 l 0,3718 c 0,1.657 1.34315,3 3,3 l 683,0 c 1.6569,0 3,-1.343 3,-3 l 0,-1859 z"
         id="path130" /></clipPath><clipPath
       id="clipPath134"><path
         d="m 27,-2555 345.5,345.5 0,0 345.5,-345.5 -691,0 z"
         id="path136" /></clipPath><clipPath
       id="clipPath140"><path
         d="m 0,0 1030,0 0,1442 L 0,1442 0,0 z"
         id="path142" /></clipPath><clipPath
       id="clipPath150"><path
         d="m 0,0 1030,0 0,1442 L 0,1442 0,0 z"
         id="path152" /></clipPath><clipPath
       id="clipPath578"><path
         d="m 1003,1240.5 0,61.5 c 0,2.209 -1.791,4 -4,4 l -968,0 c -2.20914,0 -4,-1.791 -4,-4 l 0,-123 c 0,-2.209 1.79086,-4 4,-4 l 968,0 c 2.209,0 4,1.791 4,4 l 0,61.5 z"
         id="path580" /></clipPath><clipPath
       id="clipPath584"><path
         d="m 27,1306 976,0 0,-131 -976,0 0,131 z m 975,-65.5 0,-61.5 c 0,-1.657 -1.343,-3 -3,-3 l -968,0 c -1.65685,0 -3,1.343 -3,3 l 0,123 c 0,1.657 1.34315,3 3,3 l 968,0 c 1.657,0 3,-1.343 3,-3 l 0,-61.5 z"
         id="path586" /></clipPath><clipPath
       id="clipPath590"><path
         d="m 0,0 1030,0 0,1442 L 0,1442 0,0 z"
         id="path592" /></clipPath><clipPath
       id="clipPath596"><path
         d="m 27,1175 976,0 0,131 -976,0 0,-131 z"
         id="path598" /></clipPath><clipPath
       id="clipPath600"><path
         d="m 27,1306 65.5,-65.5 845,0 65.5,65.5 -976,0 z"
         id="path602" /></clipPath><clipPath
       id="clipPath604"><path
         d="m 27,1175 976,0 0,131 -976,0 0,-131 z"
         id="path606" /></clipPath><clipPath
       id="clipPath608"><path
         d="m 27,1306 65.5,-65.5 0,-65.5 -65.5,0 0,131 z"
         id="path610" /></clipPath><clipPath
       id="clipPath612"><path
         d="m 27,1306 65.5,0 0,-65.5 -65.5,-65.5 0,131 z"
         id="path614" /></clipPath><clipPath
       id="clipPath616"><path
         d="m 27,1175 976,0 0,131 -976,0 0,-131 z"
         id="path618" /></clipPath><clipPath
       id="clipPath620"><path
         d="m 1003,1306 -65.5,-65.5 0,-65.5 65.5,0 0,131 z"
         id="path622" /></clipPath><clipPath
       id="clipPath624"><path
         d="m 1003,1306 -65.5,0 0,-65.5 65.5,-65.5 0,131 z"
         id="path626" /></clipPath><clipPath
       id="clipPath628"><path
         d="m 27,1175 976,0 0,131 -976,0 0,-131 z"
         id="path630" /></clipPath><clipPath
       id="clipPath670"><path
         d="m 1003,1240.5 0,61.5 c 0,2.209 -1.791,4 -4,4 l -968,0 c -2.20914,0 -4,-1.791 -4,-4 l 0,-123 c 0,-2.209 1.79086,-4 4,-4 l 968,0 c 2.209,0 4,1.791 4,4 l 0,61.5 z"
         id="path672" /></clipPath><clipPath
       id="clipPath676"><path
         d="m 27,1306 976,0 0,-131 -976,0 0,131 z m 975,-65.5 0,-61.5 c 0,-1.657 -1.343,-3 -3,-3 l -968,0 c -1.65685,0 -3,1.343 -3,3 l 0,123 c 0,1.657 1.34315,3 3,3 l 968,0 c 1.657,0 3,-1.343 3,-3 l 0,-61.5 z"
         id="path678" /></clipPath><clipPath
       id="clipPath682"><path
         d="m 27,1175 65.5,65.5 845,0 65.5,-65.5 -976,0 z"
         id="path684" /></clipPath><clipPath
       id="clipPath688"><path
         d="m 0,0 1030,0 0,1442 L 0,1442 0,0 z"
         id="path690" /></clipPath><clipPath
       id="clipPath698"><path
         d="m 0,0 1030,0 0,1442 L 0,1442 0,0 z"
         id="path700" /></clipPath><clipPath
       id="clipPath822"><path
         d="m 832,1229 130,0 0,15 -130,0 0,-15 z"
         id="path824" /></clipPath><clipPath
       id="clipPath836"><path
         d="m 1003,1126 0,41 c 0,2.209 -1.791,4 -4,4 l -273,0 c -2.2091,0 -4,-1.791 -4,-4 l 0,-82 c 0,-2.209 1.7909,-4 4,-4 l 273,0 c 2.209,0 4,1.791 4,4 l 0,41 z"
         id="path838" /></clipPath><clipPath
       id="clipPath842"><path
         d="m 722,1171 281,0 0,-90 -281,0 0,90 z m 280,-45 0,-41 c 0,-1.657 -1.343,-3 -3,-3 l -273,0 c -1.6569,0 -3,1.343 -3,3 l 0,82 c 0,1.657 1.3431,3 3,3 l 273,0 c 1.657,0 3,-1.343 3,-3 l 0,-41 z"
         id="path844" /></clipPath><clipPath
       id="clipPath848"><path
         d="m 0,0 1030,0 0,1442 L 0,1442 0,0 z"
         id="path850" /></clipPath><clipPath
       id="clipPath854"><path
         d="m 722,1081 281,0 0,90 -281,0 0,-90 z"
         id="path856" /></clipPath><clipPath
       id="clipPath858"><path
         d="m 722,1171 45,-45 191,0 45,45 -281,0 z"
         id="path860" /></clipPath><clipPath
       id="clipPath862"><path
         d="m 722,1081 281,0 0,90 -281,0 0,-90 z"
         id="path864" /></clipPath><clipPath
       id="clipPath866"><path
         d="m 722,1171 45,-45 0,-45 -45,0 0,90 z"
         id="path868" /></clipPath><clipPath
       id="clipPath870"><path
         d="m 722,1171 45,0 0,-45 -45,-45 0,90 z"
         id="path872" /></clipPath><clipPath
       id="clipPath874"><path
         d="m 722,1081 281,0 0,90 -281,0 0,-90 z"
         id="path876" /></clipPath><clipPath
       id="clipPath878"><path
         d="m 1003,1171 -45,-45 0,-45 45,0 0,90 z"
         id="path880" /></clipPath><clipPath
       id="clipPath882"><path
         d="m 1003,1171 -45,0 0,-45 45,-45 0,90 z"
         id="path884" /></clipPath><clipPath
       id="clipPath886"><path
         d="m 722,1081 281,0 0,90 -281,0 0,-90 z"
         id="path888" /></clipPath><clipPath
       id="clipPath928"><path
         d="m 1003,1126 0,41 c 0,2.209 -1.791,4 -4,4 l -273,0 c -2.2091,0 -4,-1.791 -4,-4 l 0,-82 c 0,-2.209 1.7909,-4 4,-4 l 273,0 c 2.209,0 4,1.791 4,4 l 0,41 z"
         id="path930" /></clipPath><clipPath
       id="clipPath934"><path
         d="m 722,1171 281,0 0,-90 -281,0 0,90 z m 280,-45 0,-41 c 0,-1.657 -1.343,-3 -3,-3 l -273,0 c -1.6569,0 -3,1.343 -3,3 l 0,82 c 0,1.657 1.3431,3 3,3 l 273,0 c 1.657,0 3,-1.343 3,-3 l 0,-41 z"
         id="path936" /></clipPath><clipPath
       id="clipPath940"><path
         d="m 722,1081 45,45 191,0 45,-45 -281,0 z"
         id="path942" /></clipPath><clipPath
       id="clipPath946"><path
         d="m 0,0 1030,0 0,1442 L 0,1442 0,0 z"
         id="path948" /></clipPath><clipPath
       id="clipPath956"><path
         d="m 0,0 1030,0 0,1442 L 0,1442 0,0 z"
         id="path958" /></clipPath><clipPath
       id="clipPath978"><path
         d="m 927,1108.5 0,3.5 c 0,2.761 -2.2386,5 -5,5 l -178,0 c -2.7614,0 -5,-2.239 -5,-5 l 0,-7 c 0,-2.761 2.2386,-5 5,-5 l 178,0 c 2.7614,0 5,2.239 5,5 l 0,3.5 z"
         id="path980" /></clipPath><linearGradient
       x1="739"
       y1="325"
       x2="739"
       y2="342"
       id="linearGradient990"
       gradientUnits="userSpaceOnUse"
       gradientTransform="matrix(1,0,0,-1,0,1442)"><stop
         id="stop992"
         style="stop-color:#000000;stop-opacity:1"
         offset="0" /><stop
         id="stop994"
         style="stop-color:#000000;stop-opacity:1"
         offset="1" /></linearGradient><clipPath
       id="clipPath1002"><path
         d="m 744,1117 178,0 c 2.7614,0 5,-2.239 5,-5 l 0,-4 -188,0 0,4 c 0,2.761 2.2386,5 5,5 z"
         id="path1004" /></clipPath><linearGradient
       x1="739"
       y1="325"
       x2="739"
       y2="333.5"
       id="linearGradient1014"
       gradientUnits="userSpaceOnUse"
       gradientTransform="matrix(1,0,0,-1,0,1442)"><stop
         id="stop1016"
         style="stop-color:#ffffff;stop-opacity:1"
         offset="0" /><stop
         id="stop1018"
         style="stop-color:#ffffff;stop-opacity:1"
         offset="1" /></linearGradient><clipPath
       id="clipPath1026"><path
         d="m 744,1109 178,0 0,-4 c 0,-2.761 -2.2386,-5 -5,-5 l -168,0 c -2.7614,0 -5,2.239 -5,5 l 0,4 z"
         id="path1028" /></clipPath><linearGradient
       x1="744"
       y1="333.5"
       x2="744"
       y2="342"
       id="linearGradient1038"
       gradientUnits="userSpaceOnUse"
       gradientTransform="matrix(1,0,0,-1,0,1442)"><stop
         id="stop1040"
         style="stop-color:#ffffff;stop-opacity:1"
         offset="0" /><stop
         id="stop1042"
         style="stop-color:#ffffff;stop-opacity:1"
         offset="1" /></linearGradient><clipPath
       id="clipPath1050"><path
         d="m 927,1108.5 0,3.5 c 0,2.761 -2.2386,5 -5,5 l -178,0 c -2.7614,0 -5,-2.239 -5,-5 l 0,-7 c 0,-2.761 2.2386,-5 5,-5 l 178,0 c 2.7614,0 5,2.239 5,5 l 0,3.5 z"
         id="path1052" /></clipPath><linearGradient
       x1="739"
       y1="325"
       x2="744"
       y2="325"
       id="linearGradient1062"
       gradientUnits="userSpaceOnUse"
       gradientTransform="matrix(1,0,0,-1,0,1442)"><stop
         id="stop1064"
         style="stop-color:#000000;stop-opacity:1"
         offset="0" /><stop
         id="stop1066"
         style="stop-color:#000000;stop-opacity:1"
         offset="1" /></linearGradient><linearGradient
       x1="927"
       y1="325"
       x2="922"
       y2="325"
       id="linearGradient1072"
       gradientUnits="userSpaceOnUse"
       gradientTransform="matrix(1,0,0,-1,0,1442)"><stop
         id="stop1074"
         style="stop-color:#000000;stop-opacity:1"
         offset="0" /><stop
         id="stop1076"
         style="stop-color:#000000;stop-opacity:1"
         offset="1" /></linearGradient><clipPath
       id="clipPath1084"><path
         d="m 0,0 1030,0 0,1442 L 0,1442 0,0 z"
         id="path1086" /></clipPath><clipPath
       id="clipPath1106"><path
         d="m 927,1108.5 0,4.5 c 0,2.209 -1.7909,4 -4,4 l -180,0 c -2.2091,0 -4,-1.791 -4,-4 l 0,-9 c 0,-2.209 1.7909,-4 4,-4 l 180,0 c 2.2091,0 4,1.791 4,4 l 0,4.5 z"
         id="path1108" /></clipPath><clipPath
       id="clipPath1112"><path
         d="m 747,1102 158,0 0,14 -158,0 0,-14 z"
         id="path1114" /></clipPath><clipPath
       id="clipPath1126"><path
         d="m 1003,941.5 0,131.5 c 0,2.209 -1.791,4 -4,4 l -273,0 c -2.2091,0 -4,-1.791 -4,-4 l 0,-263 c 0,-2.2091 1.7909,-4 4,-4 l 273,0 c 2.209,0 4,1.7909 4,4 l 0,131.5 z"
         id="path1128" /></clipPath><clipPath
       id="clipPath1132"><path
         d="m 722,1077 281,0 0,-271 -281,0 0,271 z m 280,-135.5 0,-131.5 c 0,-1.6569 -1.343,-3 -3,-3 l -273,0 c -1.6569,0 -3,1.3431 -3,3 l 0,263 c 0,1.657 1.3431,3 3,3 l 273,0 c 1.657,0 3,-1.343 3,-3 l 0,-131.5 z"
         id="path1134" /></clipPath><clipPath
       id="clipPath1138"><path
         d="m 0,0 1030,0 0,1442 L 0,1442 0,0 z"
         id="path1140" /></clipPath><clipPath
       id="clipPath1144"><path
         d="m 722,806 281,0 0,271 -281,0 0,-271 z"
         id="path1146" /></clipPath><clipPath
       id="clipPath1148"><path
         d="m 722,1077 135.5,-135.5 10,0 135.5,135.5 -281,0 z"
         id="path1150" /></clipPath><clipPath
       id="clipPath1152"><path
         d="m 722,806 281,0 0,271 -281,0 0,-271 z"
         id="path1154" /></clipPath><clipPath
       id="clipPath1156"><path
         d="m 722,1077 135.5,-135.5 0,-135.5 -135.5,0 0,271 z"
         id="path1158" /></clipPath><clipPath
       id="clipPath1160"><path
         d="m 722,1077 135.5,0 0,-135.5 L 722,806 l 0,271 z"
         id="path1162" /></clipPath><clipPath
       id="clipPath1164"><path
         d="m 722,806 281,0 0,271 -281,0 0,-271 z"
         id="path1166" /></clipPath><clipPath
       id="clipPath1168"><path
         d="m 1003,1077 -135.5,-135.5 0,-135.5 135.5,0 0,271 z"
         id="path1170" /></clipPath><clipPath
       id="clipPath1172"><path
         d="m 1003,1077 -135.5,0 0,-135.5 135.5,-135.5 0,271 z"
         id="path1174" /></clipPath><clipPath
       id="clipPath1176"><path
         d="m 722,806 281,0 0,271 -281,0 0,-271 z"
         id="path1178" /></clipPath><clipPath
       id="clipPath1218"><path
         d="m 1003,941.5 0,131.5 c 0,2.209 -1.791,4 -4,4 l -273,0 c -2.2091,0 -4,-1.791 -4,-4 l 0,-263 c 0,-2.2091 1.7909,-4 4,-4 l 273,0 c 2.209,0 4,1.7909 4,4 l 0,131.5 z"
         id="path1220" /></clipPath><clipPath
       id="clipPath1224"><path
         d="m 722,1077 281,0 0,-271 -281,0 0,271 z m 280,-135.5 0,-131.5 c 0,-1.6569 -1.343,-3 -3,-3 l -273,0 c -1.6569,0 -3,1.3431 -3,3 l 0,263 c 0,1.657 1.3431,3 3,3 l 273,0 c 1.657,0 3,-1.343 3,-3 l 0,-131.5 z"
         id="path1226" /></clipPath><clipPath
       id="clipPath1230"><path
         d="m 722,806 135.5,135.5 10,0 L 1003,806 722,806 z"
         id="path1232" /></clipPath><clipPath
       id="clipPath1236"><path
         d="m 0,0 1030,0 0,1442 L 0,1442 0,0 z"
         id="path1238" /></clipPath><clipPath
       id="clipPath1246"><path
         d="m 0,0 1030,0 0,1442 L 0,1442 0,0 z"
         id="path1248" /></clipPath><clipPath
       id="clipPath1262"><path
         d="m 740,824 250,0 0,200 -250,0 0,-200 z"
         id="path1264" /></clipPath><clipPath
       id="clipPath1854"><path
         d="m 1003,681 0,117 c 0,2.2091 -1.791,4 -4,4 l -273,0 c -2.2091,0 -4,-1.7909 -4,-4 l 0,-234 c 0,-2.2091 1.7909,-4 4,-4 l 273,0 c 2.209,0 4,1.7909 4,4 l 0,117 z"
         id="path1856" /></clipPath><clipPath
       id="clipPath1860"><path
         d="m 722,802 281,0 0,-242 -281,0 0,242 z m 280,-121 0,-117 c 0,-1.6569 -1.343,-3 -3,-3 l -273,0 c -1.6569,0 -3,1.3431 -3,3 l 0,234 c 0,1.6569 1.3431,3 3,3 l 273,0 c 1.657,0 3,-1.3431 3,-3 l 0,-117 z"
         id="path1862" /></clipPath><clipPath
       id="clipPath1866"><path
         d="m 0,0 1030,0 0,1442 L 0,1442 0,0 z"
         id="path1868" /></clipPath><clipPath
       id="clipPath1872"><path
         d="m 722,560 281,0 0,242 -281,0 0,-242 z"
         id="path1874" /></clipPath><clipPath
       id="clipPath1876"><path
         d="m 722,802 121,-121 39,0 121,121 -281,0 z"
         id="path1878" /></clipPath><clipPath
       id="clipPath1880"><path
         d="m 722,560 281,0 0,242 -281,0 0,-242 z"
         id="path1882" /></clipPath><clipPath
       id="clipPath1884"><path
         d="m 722,802 121,-121 0,-121 -121,0 0,242 z"
         id="path1886" /></clipPath><clipPath
       id="clipPath1888"><path
         d="m 722,802 121,0 0,-121 -121,-121 0,242 z"
         id="path1890" /></clipPath><clipPath
       id="clipPath1892"><path
         d="m 722,560 281,0 0,242 -281,0 0,-242 z"
         id="path1894" /></clipPath><clipPath
       id="clipPath1896"><path
         d="m 1003,802 -121,-121 0,-121 121,0 0,242 z"
         id="path1898" /></clipPath><clipPath
       id="clipPath1900"><path
         d="m 1003,802 -121,0 0,-121 121,-121 0,242 z"
         id="path1902" /></clipPath><clipPath
       id="clipPath1904"><path
         d="m 722,560 281,0 0,242 -281,0 0,-242 z"
         id="path1906" /></clipPath><clipPath
       id="clipPath1946"><path
         d="m 1003,681 0,117 c 0,2.2091 -1.791,4 -4,4 l -273,0 c -2.2091,0 -4,-1.7909 -4,-4 l 0,-234 c 0,-2.2091 1.7909,-4 4,-4 l 273,0 c 2.209,0 4,1.7909 4,4 l 0,117 z"
         id="path1948" /></clipPath><clipPath
       id="clipPath1952"><path
         d="m 722,802 281,0 0,-242 -281,0 0,242 z m 280,-121 0,-117 c 0,-1.6569 -1.343,-3 -3,-3 l -273,0 c -1.6569,0 -3,1.3431 -3,3 l 0,234 c 0,1.6569 1.3431,3 3,3 l 273,0 c 1.657,0 3,-1.3431 3,-3 l 0,-117 z"
         id="path1954" /></clipPath><clipPath
       id="clipPath1958"><path
         d="m 722,560 121,121 39,0 121,-121 -281,0 z"
         id="path1960" /></clipPath><clipPath
       id="clipPath1964"><path
         d="m 0,0 1030,0 0,1442 L 0,1442 0,0 z"
         id="path1966" /></clipPath><clipPath
       id="clipPath1974"><path
         d="m 0,0 1030,0 0,1442 L 0,1442 0,0 z"
         id="path1976" /></clipPath></defs><g
     transform="matrix(1.25,0,0,-1.25,713.73025,509.20073)"
     id="g12"><g
   id="g14" /><g
   id="g118"><g
     clip-path="url(#clipPath122)"
     id="g120"><g
       clip-path="url(#clipPath128)"
       id="g126"><g
         clip-path="url(#clipPath134)"
         id="g132"><g
           clip-path="url(#clipPath140)"
           id="g138"><path
             d="m 27,1171 691,0 0,-3726 -691,0 0,3726 z"
             id="path144"
             style="fill:#000000;fill-opacity:0.24709999;fill-rule:nonzero;stroke:none" /></g></g></g></g></g>
<path
   d="m -554.50665,407.36058 107.78144,0 c 8.98384,0 16.29283,-7.27205 16.29283,-16.27436 l 0,-177.35949 c 0,-8.93663 -7.30899,-16.08963 -16.29283,-16.08963 l -107.90459,0 c -9.04336,0 -16.3544,7.27615 -16.3544,16.21483 l 0.0636,177.23429 c 0,9.00026 7.37056,16.27436 16.41392,16.27436 z"
   id="path5255"
   style="fill:#0071b3" />
<path
   d="m -554.50664,407.36057 107.78143,0 c 8.98384,0 16.29283,-7.2741 16.29283,-16.27436 l 0,-177.35949 c 0,-8.93663 -7.30899,-16.08963 -16.29283,-16.08963 l -107.90458,0 c -9.04336,0 -16.35441,7.27615 -16.35441,16.21484 l 0.0636,177.23428 c 0,9.00026 7.37057,16.27436 16.41393,16.27436 z"
   id="path5257"
   style="fill:none;stroke:#0071b3;stroke-width:0;stroke-miterlimit:3.86299992" />
<path
   d="m -473.29904,372.28624 c -2.42027,0 -3.92382,2.59098 -2.71369,4.67043 1.21013,2.06184 4.21664,2.06184 5.40854,0 1.21013,-2.08006 -0.29281,-4.67043 -2.69485,-4.67043 z"
   id="path5259"
   style="fill:#00aeef;fill-rule:evenodd" />
<path
   d="m -473.29904,372.28623 c -2.42027,0 -3.92382,2.59098 -2.71369,4.67044 1.21013,2.06184 4.21664,2.06184 5.40854,0 1.21013,-2.08007 -0.29281,-4.67044 -2.69485,-4.67044 z"
   id="path5261"
   style="fill:none;stroke:#000000;stroke-width:0;stroke-miterlimit:3.86299992" />
<path
   d="m -435.69912,213.542 c 0,-5.85581 -4.76593,-10.60121 -10.52938,-10.60121 l -108.89595,0 c -5.82297,0 -10.52938,4.74745 -10.52938,10.60121 l 0,177.97525 c 0,5.79424 4.70641,10.60327 10.52938,10.60327 34.1312,0 74.70317,0 108.89595,0 5.76345,0 10.52938,-4.74746 10.52938,-10.66279 l 0,-177.91573 z"
   id="path5263"
   style="fill:#ffffff" />
<path
   d="m -435.69912,213.542 c 0,-5.85581 -4.76593,-10.60122 -10.52938,-10.60122 l -108.89595,0 c -5.82297,0 -10.52938,4.74746 -10.52938,10.60122 l 0,177.97524 c 0,5.79424 4.70641,10.60327 10.52938,10.60327 34.1312,0 74.70318,0 108.89595,0 5.76345,0 10.52938,-4.74746 10.52938,-10.66279 l 0,-177.91572 z"
   id="path5265"
   style="fill:none;stroke:#ffffff;stroke-width:0;stroke-miterlimit:3.86299992" />
<path
   d="m -440.90429,213.48248 c 0,-2.95767 -2.47533,-5.30163 -5.38784,-5.30163 l -108.89595,0 c -2.91046,0 -5.26469,2.34396 -5.26469,5.30163 l 0,178.09634 c 0,2.89815 2.35218,5.30164 5.26469,5.30164 31.40547,0 77.61569,0 109.02115,0 2.91046,0 5.26264,-2.34192 5.26264,-5.30164 l 0,-178.09634 z"
   id="path5267"
   style="fill:#0071b3" />
<path
   d="m -440.90429,213.48248 c 0,-2.95767 -2.47532,-5.30164 -5.38784,-5.30164 l -108.89594,0 c -2.91046,0 -5.26469,2.34397 -5.26469,5.30164 l 0,178.09634 c 0,2.89814 2.35217,5.30163 5.26469,5.30163 31.40546,0 77.61568,0 109.02115,0 2.91046,0 5.26263,-2.34191 5.26263,-5.30163 l 0,-178.09634 z"
   id="path5269"
   style="fill:none;stroke:#0071b3;stroke-width:0;stroke-miterlimit:3.86299992" />
<polygon
   points="31.146,86.71 31.146,35.622 39.686,35.622 39.686,68.088 39.686,86.71 "
   transform="matrix(2.0525106,0,0,-2.0525106,-570.9842,407.36058)"
   id="polygon5271"
   style="fill:#ffffff" />
<polygon
   points="31.146,35.622 39.686,35.622 39.686,68.088 39.686,86.71 31.146,86.71 "
   transform="matrix(2.0525106,0,0,-2.0525106,-570.9842,407.36058)"
   id="polygon5273"
   style="fill:none;stroke:#ffffff;stroke-width:0;stroke-miterlimit:3.86299992" />

<path
   d="m -622.53033,1369.2334 c 0.40398,10e-5 0.202,-43.2256 0.202,-43.2256"
   transform="matrix(0.8,0,0,-0.8,0,1442)"
   id="path5367"
   style="fill:#ffffff;stroke:#ffffff;stroke-width:4;stroke-linecap:butt;stroke-linejoin:miter;stroke-miterlimit:4;stroke-opacity:1;stroke-dasharray:none" /><path
   d="m -519.3225,334.43282 m 42.18319,0 -42.18319,0 0,14.05559 42.18319,0 0,-14.05559 z"
   id="path5277"
   style="fill:none;stroke:#ed1c24;stroke-width:0;stroke-miterlimit:3.86299992" />



















<g
   transform="matrix(1.3512814,0,0,1.3512814,761.33475,-64.346435)"
   id="g6141"
   style="stroke-width:0.0685913;stroke-miterlimit:3.86299992;stroke-dasharray:none"><path
     d="m -955.53366,320.95441 5.1976,-4.676 c -0.1992,-0.224 -0.3232,-0.5472 -0.3232,-0.8456 0,-0.6712 0.572,-1.2432 1.1936,-1.3176 l 0,-1.5424 -0.1992,0 0,-0.2736 0.6464,0 0,0.2736 -0.1736,0 0,1.5168 c 0.6216,0.025 1.1184,0.5216 1.1936,1.1184 l 0.7456,0 c 0.1,-2.5608 2.164,-4.5248 4.6752,-4.5248 2.636,0 4.7504,2.1136 4.7504,4.724 0,2.5864 -2.1144,4.7 -4.7504,4.7 -0.7704,0 -1.4912,-0.1744 -2.1376,-0.548 l -1.344,2.4376 0.3232,0.672 c 0.1,0.1736 0.3488,0.099 0.5216,0.2728 0.0256,0.1256 0.0256,0.2 0.0256,0.2992 -0.0744,0.076 -0.0992,0.1496 -0.2232,0.1496 l -1.7408,0 c -0.0248,-0.024 -0.1,0 -0.1496,0 0,-0.024 -0.0496,-0.05 -0.0744,-0.05 -0.0248,-0.124 -0.0248,-0.224 0,-0.3224 0.0248,-0.025 0.0744,-0.05 0.0984,-0.05 l 0.8952,0 c 0.1,0.025 0.1752,-0.026 0.2984,-0.026 0,-0.024 0,-0.024 0.0504,-0.05 -0.0248,-0.1 0.0504,-0.1736 0,-0.1984 l -0.1736,-0.4232 -9.0272,0 0.2488,1.0696 c 0.224,0.05 0.3728,-0.1 0.796,0.074 0.1488,0 0.5464,0.2 0.9944,0.05 0.0992,0.074 -0.0248,0.1 0.0248,0.1248 -0.0496,0.025 0.0744,0.1736 0.0496,0.1984 -0.2488,0.075 -0.8704,0.1248 -1.144,-0.025 -0.2984,-0.1736 -0.6712,-0.075 -0.9448,-0.099 l -0.8952,-3.8544 c -0.4976,0.1984 -1.0944,0.3232 -1.6664,0.3232 -2.6104,0 -4.7248,-2.1136 -4.7248,-4.7248 0,-2.6112 2.1144,-4.724 4.7248,-4.724 2.5616,0 4.7,2.1136 4.7,4.724 0,1.9152 -1.1688,3.5312 -2.7848,4.2776 l 0.3232,1.268"
     id="path5317"
     style="fill:#ffffff;stroke-width:0.0685913;stroke-miterlimit:3.86299992;stroke-dasharray:none" /><path
     d="m -958.54246,320.43121 c 0.2736,0.024 0.4968,0.099 0.7704,0.099 2.7856,0 5.0736,-2.3128 5.0736,-5.1224 0,-0.1744 0,-0.348 -0.0248,-0.4976"
     id="path5319"
     style="fill:none;stroke:#ffffff;stroke-width:0.05920306;stroke-miterlimit:3.86299992;stroke-dasharray:none" /><path
     d="m -957.39846,315.98081 c -0.1248,0.074 -0.2488,0.05 -0.3736,0.05 -0.3976,0 -0.7208,-0.3232 -0.7208,-0.6712 0,-0.3984 0.3232,-0.672 0.7208,-0.672 0.2736,0 0.572,0.1736 0.6472,0.472 l 3.5808,0 c -0.1496,-2.2624 -1.9896,-4.0032 -4.228,-4.0032 -2.3872,0 -4.3016,1.9152 -4.3016,4.2776 0,2.3864 1.9144,4.3024 4.3016,4.3024 0.5472,0 1.0448,-0.1504 1.592,-0.324 l -0.2984,-1.1688 c -0.1744,-0.672 -0.3728,-1.4424 -0.92,-2.2624"
     id="path5321"
     style="fill:#0071b3;stroke-width:0.0685913;stroke-miterlimit:3.86299992;stroke-dasharray:none" /><path
     d="m -955.90646,319.26241 -0.2984,-1.2184 c -0.1496,-0.5472 -0.6216,-1.7656 -0.9952,-2.2384 0,-0.099 0.0752,-0.2232 0.1,-0.3232 l 3.556,0 c -0.0248,1.6912 -0.9704,3.1096 -2.3624,3.78 z"
     id="path5323"
     style="fill:#0071b3;stroke-width:0.0685913;stroke-miterlimit:3.86299992;stroke-dasharray:none" /><path
     d="m -955.90646,319.26241 -0.2984,-1.2184 c -0.1496,-0.5472 -0.6216,-1.7656 -0.9952,-2.2384 0,-0.099 0.0752,-0.2232 0.1,-0.3232 l 3.556,0 c -0.0248,1.6912 -0.9704,3.1096 -2.3624,3.78 z"
     id="path5325"
     style="fill:none;stroke:#0071b3;stroke-width:0.05920306;stroke-miterlimit:3.86299992;stroke-dasharray:none" /><path
     d="m -955.45926,321.20161 0.1496,0.7464 8.952,0 -2.4856,-5.2472 c -0.1248,0.05 -0.2,0.1 -0.3736,0.1 l 0,1.492 0.1984,0 0,0.2736 -0.6464,0 0,-0.2736 0.1992,0 0,-1.5176 c -0.3856,-0.037 -0.448,-0.1496 -0.6216,-0.3224 l -5.372,4.7488"
     id="path5327"
     style="fill:#0071b3;stroke-width:0.0685913;stroke-miterlimit:3.86299992;stroke-dasharray:none" /><path
     d="m -941.60726,315.88081 2.8344,1.5672 c 0.3232,-0.6472 0.5232,-1.344 0.5232,-2.04 0,-2.3616 -1.916,-4.3024 -4.3032,-4.3024 -2.2872,0 -4.1528,1.7904 -4.2264,4.1032 l 3.3064,0 c 0.0504,-0.4472 0.4736,-0.7952 0.92,-0.7952 0.5472,0 0.9952,0.4472 0.9952,0.9944 0,0.1744 -0.0248,0.2984 -0.0752,0.4224"
     id="path5329"
     style="fill:#0071b3;stroke-width:0.0685913;stroke-miterlimit:3.86299992;stroke-dasharray:none" /><path
     d="m -941.78086,316.02961 2.8592,1.5912 c -0.7712,1.2176 -2.0648,2.0392 -3.656,2.0392 -0.6464,0 -1.3168,-0.1496 -1.8888,-0.4224 l 1.616,-2.9592 c 0.0752,0.05 0.224,0.074 0.2984,0.074 0.2976,0 0.5712,-0.124 0.7712,-0.3232"
     id="path5331"
     style="fill:#0071b3;stroke-width:0.0685913;stroke-miterlimit:3.86299992;stroke-dasharray:none" /><path
     d="m -944.71526,319.03841 1.616,-2.9344 c -0.1488,-0.1736 -0.3232,-0.3728 -0.3488,-0.5968 l -3.3568,0 c 0.0248,1.492 0.8456,2.8112 2.0392,3.556"
     id="path5333"
     style="fill:#0071b3;stroke-width:0.0685913;stroke-miterlimit:3.86299992;stroke-dasharray:none" /><path
     d="m -946.20726,321.69921 -2.3136,-5.1224 c 0.2984,-0.2488 0.5728,-0.6464 0.5968,-1.0944 l 0.7208,0 c 0.0504,1.6672 0.92,3.1344 2.2624,3.9536 l -1.2664,2.2632"
     id="path5335"
     style="fill:#0071b3;stroke-width:0.0685913;stroke-miterlimit:3.86299992;stroke-dasharray:none" /><path
     d="m -947.52646,314.61201 c -0.0504,0.2488 -0.0744,0.5224 -0.0744,0.796 0,2.8104 2.3128,5.1224 5.0976,5.1224 2.1144,0 3.88,-1.2928 4.6752,-3.0336"
     id="path5337"
     style="fill:none;stroke:#ffffff;stroke-width:0.05920306;stroke-miterlimit:3.86299992;stroke-dasharray:none" /></g>
<path
   d="m -519.32251,334.43282 m 42.1832,0 -42.1832,0 0,14.0556 42.1832,0 0,-14.0556 z"
   id="path5275"
   style="fill:#ed1c24;fill-rule:evenodd" /><path
   d="m -1506.6521,382.82 486.9784,0 0,485.3264 -486.9784,0 0,-485.3264 z"
   id="path12895"
   style="fill:#ffffff;fill-opacity:1;fill-rule:nonzero;stroke:none" /><path
   d="m -487.63224,357.02299 5.28234,10.78102 -0.51853,1.80928 -2.93402,-3.3369 c -0.92886,-0.8207 -2.32967,0.58755 -1.41009,1.50712 l 5.20585,5.97805 c 0.57636,0.40102 0.83004,0.54651 1.40823,0.85054 0.6547,0.30217 0.79272,0.25367 1.40826,-0.30403 l 4.65747,-4.69479 c 0.16601,-0.1772 0.22384,-0.13803 0.29287,-0.53905 l 0,-2.33714 c 0,-1.01655 -1.92678,-1.00722 -1.938,0.0205 l 0.0298,1.64327 -1.72161,1.66192 -0.68454,-1.96596 c 1.45674,-3.87409 2.64115,-7.38444 4.08857,-11.26039 0.65657,-1.82792 -1.58357,-2.71951 -2.48449,-0.94753 l -3.62978,9.64518 c -1.62275,-3.31638 -3.07017,-6.45557 -4.70411,-9.76261 -0.92887,-1.71229 -3.23805,-0.3917 -2.34831,1.25157"
   id="path13005"
   style="fill:#ffffff;fill-opacity:1;fill-rule:evenodd;stroke:none" /><path
   d="m -487.65094,357.03228 5.28233,10.78103 0.0354,-0.0187 -5.28233,-10.78103 -0.0354,0.0187 z m 5.31962,10.77731 -0.003,-0.0149 -0.0169,0.009 0.0187,0.006 z m -0.0392,-0.0112 -0.51852,1.80928 0.0392,0.0112 0.51852,-1.80928 -0.0392,-0.0112 z m -0.51292,1.82793 0.0243,0.028 0.009,-0.0355 -0.0187,-0.006 -0.0148,0.013 z m 0.0298,-0.0261 -2.93589,-3.33503 -0.0298,0.0261 2.93586,3.33504 0.0298,-0.0261 z m -2.93589,-3.33503 -0.003,-0.001 -0.013,0.0149 0.0148,-0.013 z m -0.003,-0.001 c -0.33389,-0.29657 -0.73305,-0.30776 -1.06318,-0.15667 l 0.0169,0.0354 c 0.31708,-0.14549 0.69946,-0.1343 1.02027,0.15108 l 0.026,-0.0298 z m -1.06318,-0.15667 c -0.13618,0.0615 -0.26487,0.15481 -0.36748,0.26486 l 0.0281,0.028 c 0.10072,-0.10818 0.22382,-0.19585 0.35627,-0.2574 l -0.0169,-0.0354 z m -0.36748,0.26486 c -0.10629,0.11191 -0.19023,0.24247 -0.24433,0.38424 l 0.0373,0.013 c 0.0504,-0.1343 0.13245,-0.263 0.23503,-0.36931 l -0.0281,-0.028 z m -0.24433,0.38424 c -0.12683,0.33014 -0.0858,0.71811 0.23876,1.04265 l 0.0298,-0.028 c -0.31335,-0.31337 -0.35254,-0.68454 -0.23131,-1.00163 l -0.0373,-0.013 z m 0.2686,1.01468 -0.0148,0.013 0.0148,-0.013 z m -0.0298,0.0261 5.20399,5.97806 0.0298,-0.0261 -5.20399,-5.97806 -0.0298,0.0261 z m 5.20399,5.97806 0.004,0.004 0.0112,-0.0168 -0.0148,0.0131 z m 0.004,0.004 c 0.28724,0.19959 0.49614,0.33761 0.70504,0.46258 l 0.0204,-0.0336 c -0.20517,-0.1231 -0.4141,-0.26113 -0.70321,-0.46258 l -0.0225,0.0336 z m 0.70504,0.46258 c 0.2108,0.12497 0.41969,0.23875 0.70508,0.38797 l 0.0204,-0.0336 c -0.29098,-0.15295 -0.49987,-0.26673 -0.70505,-0.38797 l -0.0204,0.0336 z m 0.70508,0.38797 0.003,10e-4 0.009,-0.0187 -0.0112,0.0168 z m 0.003,10e-4 c 0.33013,0.15294 0.53347,0.21636 0.73118,0.1716 l -0.009,-0.0392 c -0.18652,0.0429 -0.38237,-0.0205 -0.70508,-0.16974 l -0.0169,0.0373 z m 0.73118,0.1716 c 0.19771,-0.0429 0.38796,-0.19772 0.69945,-0.4775 l -0.0261,-0.0298 c -0.30592,0.27605 -0.49428,0.42714 -0.68267,0.46817 l 0.009,0.0392 z m 0.69945,-0.4775 0,-10e-4 -0.013,-0.013 0.013,0.0149 z m 0,-10e-4 4.6575,-4.69479 -0.0281,-0.0298 -4.65747,4.69665 0.0278,0.028 z m 4.6575,-4.69479 -0.0148,-0.0149 0.0148,0.0149 z m 0,0 c 0.0336,-0.0373 0.0653,-0.0671 0.0914,-0.0895 l -0.026,-0.0298 c -0.0261,0.0242 -0.0578,0.0541 -0.0933,0.0914 l 0.0281,0.0279 z m 0.0914,-0.0895 c 0.1007,-0.0933 0.15294,-0.13803 0.20704,-0.46071 l -0.0392,-0.006 c -0.0522,0.30777 -0.10072,0.35067 -0.19398,0.43646 l 0.0261,0.0298 z m 0.20704,-0.46071 0,-0.001 -0.0204,0 0.0204,0.001 z m -0.0392,-0.001 0.0391,0 0,-2.339 -0.0391,0 0,2.339 z m 0.0392,0 z m 0,-2.339 c 0,-0.36932 -0.24809,-0.60807 -0.56703,-0.71439 l -0.013,0.0392 c 0.30403,0.10073 0.54092,0.32642 0.54092,0.67522 l 0.0391,0 z m -0.56703,-0.71439 c -0.12683,-0.041 -0.26674,-0.0615 -0.40475,-0.0615 l 0,0.0392 c 0.13429,0 0.26857,0.0205 0.39167,0.0615 l 0.013,-0.0392 z m -0.40475,-0.0615 c -0.13991,0 -0.27979,0.0205 -0.40851,0.0615 l 0.013,0.0373 c 0.12496,-0.0392 0.25925,-0.0597 0.39542,-0.0597 l 0,-0.0392 z m -0.40851,0.0615 c -0.33199,0.10632 -0.59314,0.35254 -0.59686,0.73491 l 0.0411,0 c 0.003,-0.36186 0.25365,-0.59501 0.5689,-0.6976 l -0.013,-0.0373 z m -0.59686,0.73491 0.0204,0 -0.0204,0 z m 0,0 0.0298,1.64327 0.0411,0 -0.0298,-1.64327 -0.0411,0 z m 0.0634,1.65818 0.007,-0.007 0,-0.007 -0.0204,0 0.013,0.0149 z m -0.0281,-0.0298 -1.72158,1.66379 0.0278,0.028 1.72161,-1.66192 -0.0281,-0.0298 z m -1.72535,1.6843 0.009,0.0298 0.0225,-0.0224 -0.013,-0.0149 -0.0187,0.007 z m 0.0373,-0.013 -0.68454,-1.96596 -0.0391,0.013 0.68636,1.96596 0.0373,-0.013 z m -0.72186,-1.96782 -0.003,0.0149 0.0187,-0.007 -0.0169,-0.007 z m 0.0354,0.0149 c 0.76661,-2.03498 1.44369,-3.93378 2.12261,-5.83258 l -0.0391,-0.013 c -0.68827,1.92678 -1.37467,3.8517 -2.1189,5.83071 l 0.0354,0.0149 z m 2.12261,-5.83258 c 0.63978,-1.79435 1.28142,-3.5943 1.96783,-5.42782 l -0.0373,-0.013 c -0.70881,1.89693 -1.34113,3.66517 -1.9697,5.42781 l 0.0392,0.0131 z m 1.96783,-5.42782 -0.0187,-0.006 0.0187,0.006 z m 0,0 c 0.22381,-0.62298 0.11377,-1.13966 -0.16598,-1.48286 l -0.0298,0.0261 c 0.27046,0.33014 0.37492,0.83562 0.15856,1.44369 l 0.0373,0.013 z m -0.16598,-1.48286 c -0.13619,-0.16787 -0.31526,-0.29471 -0.51483,-0.36931 l -0.0148,0.0355 c 0.19401,0.0746 0.36748,0.19585 0.4999,0.35999 l 0.0298,-0.0261 z m -0.51483,-0.36931 c -0.18093,-0.069 -0.38237,-0.097 -0.58568,-0.0765 l 0.006,0.0392 c 0.19584,-0.0187 0.38983,0.007 0.56516,0.0727 l 0.0148,-0.0355 z m -0.58568,-0.0765 c -0.46258,0.0485 -0.94009,0.34506 -1.2553,0.96432 l 0.0355,0.0187 c 0.30776,-0.60434 0.77407,-0.89718 1.22546,-0.94381 l -0.006,-0.0392 z m -1.2553,0.96432 0,10e-4 0.0187,0.007 -0.0187,-0.009 z m 0,10e-4 -3.62975,9.64697 0.0373,0.013 3.62974,-9.64511 -0.0373,-0.0149 z m -3.62975,9.66188 0.0204,0.0411 0.0169,-0.0429 -0.0187,-0.007 -0.0187,0.009 z m 0.0373,-0.0187 c -0.76475,-1.55933 -1.47726,-3.05338 -2.1879,-4.5437 l -0.0355,0.0187 c 0.71999,1.50711 1.44182,3.02353 2.18606,4.5437 l 0.0373,-0.0187 z m -2.1879,-4.5437 c -0.8263,-1.7328 -1.65072,-3.46373 -2.51808,-5.21891 l -0.0373,0.0187 c 0.88225,1.78317 1.70111,3.49917 2.51992,5.21892 l 0.0355,-0.0187 z m -2.51808,-5.21891 -0.003,0 -0.0169,0.009 0.0187,-0.009 z m -0.003,0 c -0.33576,-0.62113 -0.85242,-0.84869 -1.33551,-0.80765 l 0.003,0.041 c 0.47005,-0.0392 0.97179,0.18093 1.30006,0.78526 l 0.0336,-0.0187 z m -1.33551,-0.80765 c -0.18839,0.0149 -0.37305,0.0728 -0.53906,0.16414 l 0.0187,0.0336 c 0.1604,-0.0877 0.33946,-0.14362 0.52225,-0.15668 l -0.003,-0.041 z m -0.53906,0.16414 c -0.16602,0.0895 -0.31522,0.2145 -0.43272,0.36372 l 0.0317,0.0242 c 0.11381,-0.14549 0.25928,-0.26673 0.4197,-0.35439 l -0.0187,-0.0336 z m -0.43272,0.36372 c -0.30217,0.38611 -0.39915,0.94753 -0.0746,1.55001 l 0.0354,-0.0187 c -0.31708,-0.58568 -0.22196,-1.13033 0.0709,-1.50711 l -0.0317,-0.0242 z m -0.0392,1.53135 -0.0169,0.009"
   id="path13009"
   style="fill:#ffffff;fill-opacity:1;fill-rule:nonzero;stroke:none" /><path
   d="m -481.84074,378.68199 c 0.96806,0 1.75145,-0.79272 1.75145,-1.76077 0,-0.96806 -0.78339,-1.76078 -1.75145,-1.76078 -0.96805,0 -1.76076,0.79272 -1.76076,1.76078 0,0.96805 0.79271,1.76077 1.76076,1.76077"
   id="path13013"
   style="fill:#ffffff;fill-opacity:1;fill-rule:evenodd;stroke:none" /><path
   d="m -481.84074,378.70252 c 0.48869,0 0.93263,-0.20144 1.25157,-0.52226 l -0.0281,-0.028 c -0.31335,0.31335 -0.7461,0.5092 -1.2236,0.5092 l 0,0.0411 z m 1.25157,-0.52226 c 0.32084,-0.32268 0.52042,-0.76848 0.52042,-1.25903 l -0.0411,0 c 0,0.47936 -0.19399,0.91583 -0.50733,1.23105 l 0.0281,0.0279 z m 0.52042,-1.25903 c 0,-0.4887 -0.19958,-0.93635 -0.52042,-1.25903 l -0.0281,0.0298 c 0.31336,0.31522 0.50734,0.74982 0.50734,1.22919 l 0.0411,0 z m -0.52042,-1.25903 c -0.31894,-0.32082 -0.76288,-0.52227 -1.25157,-0.52227 l 0,0.0411 c 0.47751,0 0.91025,0.19585 1.22361,0.51107 l 0.0281,-0.0298 z m -1.25157,-0.52227 c -0.49054,0 -0.93634,0.20145 -1.25716,0.52413 l 0.0281,0.028 c 0.31521,-0.31523 0.7498,-0.51108 1.22916,-0.51108 l 0,-0.0411 z m -1.25716,0.52413 c -0.32267,0.32082 -0.52411,0.76847 -0.52411,1.25717 l 0.041,0 c 0,-0.4775 0.19584,-0.91397 0.51109,-1.22919 l -0.0281,-0.028 z m -0.52411,1.25717 c 0,0.49055 0.20144,0.93635 0.52411,1.25903 l 0.0281,-0.0298 c -0.31525,-0.31523 -0.51109,-0.74983 -0.51109,-1.22919 l -0.041,0 z m 0.52411,1.25903 c 0.3227,0.32082 0.76662,0.52226 1.25716,0.52226 l 0,-0.041 c -0.47936,0 -0.91394,-0.19584 -1.22916,-0.51107"
   id="path13017"
   style="fill:#ffffff;fill-opacity:1;fill-rule:nonzero;stroke:none" /></g></svg>