<?xml version="1.0" encoding="utf-8"?>
<!-- Generator: Adobe Illustrator 14.0.0, SVG Export Plug-In . SVG Version: 6.00 Build 43363)  -->
<!DOCTYPE svg PUBLIC "-//W3C//DTD SVG 1.1//EN" "http://www.w3.org/Graphics/SVG/1.1/DTD/svg11.dtd">
<svg version="1.1" id="Calque_1" xmlns="http://www.w3.org/2000/svg" xmlns:xlink="http://www.w3.org/1999/xlink" x="0px" y="0px"
	 width="102.13px" height="102.25px" viewBox="0 0 102.13 102.25" enable-background="new 0 0 102.13 102.25" xml:space="preserve">
<path fill="#0071B3" d="M7.576,0h87.059c4.129,0.04,7.495,3.407,7.495,7.575v87.22c0,4.089-3.366,7.455-7.454,7.455H7.536
	C3.367,102.25,0,98.924,0,94.835V7.575C0,3.407,3.367,0.04,7.536,0.04L7.576,0z"/>
<path fill="none" stroke="#0071B3" stroke-width="0" stroke-miterlimit="3.863" d="M7.576,0h87.059
	c4.129,0.04,7.495,3.407,7.495,7.575v87.22c0,4.089-3.366,7.455-7.454,7.455H7.536C3.367,102.25,0,98.924,0,94.835V7.575
	C0,3.407,3.367,0.04,7.536,0.04L7.576,0z"/>
<path fill="#FFFFFF" d="M7.496,1.844l87.139,0.04c3.087,0,5.651,2.565,5.651,5.691v87.26c0,3.087-2.564,5.652-5.651,5.652
	l-87.54-0.12c-2.926,0-5.211-2.405-5.211-5.291L1.804,7.535C1.804,4.409,4.369,1.844,7.496,1.844z"/>
<path fill="none" stroke="#FFFFFF" stroke-width="0.2" stroke-miterlimit="3.863" d="M7.496,1.844l87.139,0.04
	c3.087,0,5.651,2.565,5.651,5.691v87.26c0,3.087-2.564,5.652-5.651,5.652l-87.54-0.12c-2.926,0-5.211-2.405-5.211-5.291L1.804,7.535
	C1.804,4.409,4.369,1.844,7.496,1.844z"/>
<path fill="#0071B3" d="M7.496,3.567l87.139,0.04c2.165,0,3.969,1.804,3.969,3.968v87.26c0,2.165-1.804,3.969-3.969,3.969H7.496
	c-2.165,0-3.969-1.804-3.969-3.969v-87.3C3.527,5.371,5.331,3.567,7.496,3.567z"/>
<path fill="none" stroke="#0071B3" stroke-width="0.2" stroke-miterlimit="3.863" d="M7.496,3.567l87.139,0.04
	c2.165,0,3.969,1.804,3.969,3.968v87.26c0,2.165-1.804,3.969-3.969,3.969H7.496c-2.165,0-3.969-1.804-3.969-3.969v-87.3
	C3.527,5.371,5.331,3.567,7.496,3.567z"/>
<path fill="#FFFFFF" d="M53.551,29.42l-5.973-9.339c-0.922-1.082-2.725-2.325-4.208-2.124v-1.644
	c1.042-0.481,1.763-1.523,1.763-2.767c0-1.643-1.282-3.006-2.966-3.006c-1.683,0-2.966,1.363-2.966,3.006
	c0,1.363,0.802,2.446,2.044,2.847v1.402c-1.643,0-5.772,1.123-5.772,5.291v8.818c0,0.722,0.562,1.283,1.283,1.283
	c0.722,0,1.323-0.562,1.323-1.283V23.77c0-0.321,0.2-0.522,0.521-0.522c0.321,0,0.561,0.201,0.561,0.522v23.448
	c0,0.721,0.561,1.322,1.323,1.322c0.721,0,1.322-0.602,1.322-1.322V34.512c0-0.441,0.361-0.803,0.802-0.803
	c0.481,0,0.802,0.361,0.802,0.803v15.632c0,0.721,0.601,1.362,1.363,1.362c0.721,0,1.362-0.642,1.362-1.362V22.928l4.931,7.855
	c0.439,0.722,0.962,0.601,1.523,0.441c0.44,1.603,0.721,2.564,1.803,2.604l3.447,0.241l-2.485,7.976h1.964v5.853
	c0,0.44,0.401,0.802,0.803,0.802c0.48,0,0.842-0.361,0.842-0.802v-5.933h1.121v4.811c0,0.441,0.401,0.842,0.922,0.842
	c0.441,0,0.843-0.4,0.843-0.842v-4.73h1.844l-1.724-6.612l2.285,2.484c0.199,0.2,0.521,0.2,0.721,0c0.201-0.2,0.32-0.4,0.08-0.842
	l-2.967-3.407c-0.68-0.641-1.041-1.082-1.803-1.242c-0.281-0.2-0.201-0.481-0.121-0.722c0.763-0.321,1.203-1.082,1.203-1.924
	c0-1.203-0.962-2.164-2.125-2.164c-1.201,0-2.203,0.961-2.203,2.164c0,0.962,0.681,1.764,1.563,2.044
	c0.04,0.281,0.08,0.722-0.24,0.882h-2.926c-0.521,0-0.682-0.04-1.043-0.44c-0.28-0.521-0.641-1.283-0.641-1.684
	c0-0.24-0.121-0.201-0.24-0.36C53.671,30.063,53.751,29.861,53.551,29.42z"/>
<path fill="none" stroke="#FFFFFF" stroke-width="0" stroke-miterlimit="3.863" d="M53.551,29.42l-5.973-9.339
	c-0.922-1.082-2.725-2.325-4.208-2.124v-1.644c1.042-0.481,1.763-1.523,1.763-2.767c0-1.643-1.282-3.006-2.966-3.006
	c-1.683,0-2.966,1.363-2.966,3.006c0,1.363,0.802,2.446,2.044,2.847v1.402c-1.643,0-5.772,1.123-5.772,5.291v8.818
	c0,0.722,0.562,1.283,1.283,1.283c0.722,0,1.323-0.562,1.323-1.283V23.77c0-0.321,0.2-0.522,0.521-0.522
	c0.321,0,0.561,0.201,0.561,0.522v23.448c0,0.721,0.561,1.322,1.323,1.322c0.721,0,1.322-0.602,1.322-1.322V34.512
	c0-0.441,0.361-0.803,0.802-0.803c0.481,0,0.802,0.361,0.802,0.803v15.632c0,0.721,0.601,1.362,1.363,1.362
	c0.721,0,1.362-0.642,1.362-1.362V22.928l4.931,7.855c0.439,0.722,0.962,0.601,1.523,0.441c0.44,1.603,0.721,2.564,1.803,2.604
	l3.447,0.241l-2.485,7.976h1.964v5.853c0,0.44,0.401,0.802,0.803,0.802c0.48,0,0.842-0.361,0.842-0.802v-5.933h1.121v4.811
	c0,0.441,0.401,0.842,0.922,0.842c0.441,0,0.843-0.4,0.843-0.842v-4.73h1.844l-1.724-6.612l2.285,2.484c0.199,0.2,0.521,0.2,0.721,0
	c0.201-0.2,0.32-0.4,0.08-0.842l-2.967-3.407c-0.68-0.641-1.041-1.082-1.803-1.242c-0.281-0.2-0.201-0.481-0.121-0.722
	c0.763-0.321,1.203-1.082,1.203-1.924c0-1.203-0.962-2.164-2.125-2.164c-1.201,0-2.203,0.961-2.203,2.164
	c0,0.962,0.681,1.764,1.563,2.044c0.04,0.281,0.08,0.722-0.24,0.882h-2.926c-0.521,0-0.682-0.04-1.043-0.44
	c-0.28-0.521-0.641-1.283-0.641-1.684c0-0.24-0.121-0.201-0.24-0.36C53.671,30.063,53.751,29.861,53.551,29.42z"/>
<path fill="#FFFFFF" d="M58.24,69.344c0.121,0,1.123,0.721,1.243,0.761c5.331,3.607,1.804,5.972,5.571,9.42l-4.088,4.369
	c0,0-0.08,0.04-0.04,0.12c-0.321,0.48-0.401,1.042-0.321,1.643c0.08,0.04,0.842,2.566,1.323,3.207c0,0.12,0.04,0.321,0.12,0.441
	c0,0,0.039,0.079,0.08,0.119c-0.2,0.321-0.32,0.723-0.28,1.082c0.159,0.201,0.401,0.361,0.562,0.643l0.961-0.521l-0.119-0.722
	c-0.08-0.441-0.281-0.481-0.521-0.802c0-0.08-0.361-0.682-0.361-0.761c-0.16-0.161-0.24-1.123-0.361-1.363
	c-0.4-0.962,0.041-0.361-0.4-1.283c0.121-0.12,0.121-0.641,0.321-0.561c1.884-1.323,3.768-2.646,5.692-3.969
	c0.601,0.962,1.762,2.285,2.164,3.809c0.32,1.322,3.006,4.369,3.406,5.451c0.201,0.4-0.32,1.082-0.32,1.563h1.362l-0.12-0.962
	l0.321-0.12l-0.722-1.042c-0.602-0.922-0.642-0.762-1.202-1.764c-0.321-0.642-0.562-1.322-0.683-1.924
	c-0.039-0.12-0.721-3.607-0.399-5.25l0.881-0.643c1.323,0,2.444,0.12,3.808-0.08c1.002-0.16,2.727-0.321,3.447-0.802
	c1.645-0.521,2.205-1.242,2.646-1.362c0.08,0,0,0.04,0,0c0,0,0.039,0.802,1.281,2.806c0.522,1.123,1.764,2.284,0.803,3.406
	c-0.401,0.521-2.205,2.526-2.405,2.927c0,0.16-0.08,0.32-0.2,0.44c0,0.08-0.08,0.121-0.04,0.241c-0.161,0.08-0.28,0.28-0.401,0.441
	c0.041,0.4-0.281,0.601-0.039,1.002c0.279,0.119,0.199,0.601,0.279,0.801l0.922-0.801l-0.32-0.361l0.32-0.16l-0.199-0.44
	c-0.041-0.12,0.08-0.321,0.119-0.481c0.481-0.722,1.082-1.243,1.685-1.804c0.962-0.883,1.843-1.644,2.646-2.565
	c0.36-0.682,0.199-1.443,0.28-2.205c0.04,0.08,0.04,0.161,0.04,0.321c0.12,0.08,0.24,0.28,0.24,0.44
	c0.642,0.722,1.523,1.523,2.445,2.045c0.521,0.28,0.722,0.32,1.123,0.601c0.48,0.08,1.041,0.962,0.881,1.483l0.24,4.049
	c0.08,0.12,0.08,0.239,0.08,0.4c-0.521,0.28-0.641,0.842-0.561,1.442h1.242l-0.08-1.122l0.201-0.08
	c0.16-0.04-0.321-2.245-0.121-3.167c0.201-2.725,0.682-1.643,0.24-3.206c-0.281-0.962-0.922-0.762-1.363-1.644
	c-0.32,0-1.764-2.525-2.123-3.647c-0.321-0.842-0.361-3.487-0.121-4.169c0.361-1.002,0.121-2.405-0.32-3.126
	c0.12-0.08,0.401,0,0.521,0c0.119,0.04,0.199,0.12,0.32,0.12c1.803,1.243,1.322,3.127,2.084,4.89c0.041,0.04,0.08,0.08,0.08,0.08
	c0,0.081,0.04,0.121,0.04,0.201c0.16,0.562,0.722,0.922,1.283,0.842c0.481-0.32,1.002-0.682,1.483-0.602l-2.687-5.13
	c-0.481-0.683-0.962-0.882-1.282-1.163c-0.802-0.32-1.203-0.24-2.004-0.28c-1.764-0.08-1.884-1.403-3.647-1.482
	c-3.007-0.08-3.046-0.08-4.69,0c-0.24,0-1.201,0.319-1.122,0.159l0.04-0.239l-1.121,0.04l0.44-1.044l-0.321-0.239l-1.322,1.323
	c0-0.763-0.16-1.003-0.32-1.483c-0.361-0.441-0.441-0.802-0.723-1.123c-0.199-1.162-0.561-4.93-3.447-5.651l-0.039-0.44l-0.321,0.12
	v-0.521h0.321l-0.201-0.882l0.441-1.002c-0.842-0.08-2.525-1.042-3.006,0c-0.361,0-0.562,0.08-0.843,0.12l0.763,0.32h0.08
	l0.039,0.642l-0.32,0.802h0.32v0.641c0,0.161-0.039,0.401,0.161,0.401c0.28-0.16,0.642,0,0.962-0.04l0.4,0.2
	c0.24,1.083-0.682,0.602,0.24,2.726c0,0.401-0.4,1.042-0.762,1.483c-0.561,0.762-0.601,0.722-1.924,1.844
	c-0.641,0.04-0.922,0.361-1.002,1.002c0.161,0.16,0.281,0.361,0.521,0.441c0.16,0.04,0.281,0,0.4,0
	c0.361-0.16,0.241-0.722,0.321-0.802c0.04-0.04,0.08-0.08,0.12-0.08c0.16,0.16,0.281,0.32,0.441,0.48
	c0.561-0.04,0.881-0.641,2.004-1.283c0-0.399,0.722-0.359,0.682-0.761c0-0.12,0.04,0.24,0.16,0.28
	c-0.08,0.762,0.279,1.443-0.201,2.165l-0.961,1.323h-1.163c-0.681,0-1.563-0.121-1.804-0.441c-1.443-0.882-2.164-1.163-3.407-2.004
	c-2.886-2.085-5.933-2.687-6.854-2.687c-0.4,0-0.801-0.32-1.041-0.521c0-0.08,0-0.12,0-0.2c-0.16-0.36-0.602-0.602-0.562-1.043
	l-0.241,0.842l-0.641-0.802c-0.04,0.041-0.08,0.081-0.08,0.161c0.199,0.441,0,1.002,0.08,1.443c-0.08,0.04-0.08,0.119-0.12,0.159
	c0,0.281-0.16,0.562-0.281,0.803c0.121,0.721-0.721,1.082-0.481,1.844c-0.119,0.881-0.359,1.322-0.681,2.164
	c-0.241,0.601-0.28,1.122-0.2,1.964c0.041,0.361,0.44,0.641,0.842,0.681c0.119,0,0.16-0.12,0.281-0.16
	c0.039,0.12,0.079,0.201,0.199,0.321c0.281,0,0.321,0.12,0.521-0.12c0-0.24,0.281-0.44,0.281-0.682
	C57.479,70.425,57.479,70.545,58.24,69.344z"/>
<path fill="none" stroke="#FFFFFF" stroke-width="0.2" stroke-miterlimit="3.863" d="M58.24,69.344c0.121,0,1.123,0.721,1.243,0.761
	c5.331,3.607,1.804,5.972,5.571,9.42l-4.088,4.369c0,0-0.08,0.04-0.04,0.12c-0.321,0.48-0.401,1.042-0.321,1.643
	c0.08,0.04,0.842,2.566,1.323,3.207c0,0.12,0.04,0.321,0.12,0.441c0,0,0.039,0.079,0.08,0.119c-0.2,0.321-0.32,0.723-0.28,1.082
	c0.159,0.201,0.401,0.361,0.562,0.643l0.961-0.521l-0.119-0.722c-0.08-0.441-0.281-0.481-0.521-0.802
	c0-0.08-0.361-0.682-0.361-0.761c-0.16-0.161-0.24-1.123-0.361-1.363c-0.4-0.962,0.041-0.361-0.4-1.283
	c0.121-0.12,0.121-0.641,0.321-0.561c1.884-1.323,3.768-2.646,5.692-3.969c0.601,0.962,1.762,2.285,2.164,3.809
	c0.32,1.322,3.006,4.369,3.406,5.451c0.201,0.4-0.32,1.082-0.32,1.563h1.362l-0.12-0.962l0.321-0.12l-0.722-1.042
	c-0.602-0.922-0.642-0.762-1.202-1.764c-0.321-0.642-0.562-1.322-0.683-1.924c-0.039-0.12-0.721-3.607-0.399-5.25l0.881-0.643
	c1.323,0,2.444,0.12,3.808-0.08c1.002-0.16,2.727-0.321,3.447-0.802c1.645-0.521,2.205-1.242,2.646-1.362c0.08,0,0,0.04,0,0
	c0,0,0.039,0.802,1.281,2.806c0.522,1.123,1.764,2.284,0.803,3.406c-0.401,0.521-2.205,2.526-2.405,2.927c0,0.16-0.08,0.32-0.2,0.44
	c0,0.08-0.08,0.121-0.04,0.241c-0.161,0.08-0.28,0.28-0.401,0.441c0.041,0.4-0.281,0.601-0.039,1.002
	c0.279,0.119,0.199,0.601,0.279,0.801l0.922-0.801l-0.32-0.361l0.32-0.16l-0.199-0.44c-0.041-0.12,0.08-0.321,0.119-0.481
	c0.481-0.722,1.082-1.243,1.685-1.804c0.962-0.883,1.843-1.644,2.646-2.565c0.36-0.682,0.199-1.443,0.28-2.205
	c0.04,0.08,0.04,0.161,0.04,0.321c0.12,0.08,0.24,0.28,0.24,0.44c0.642,0.722,1.523,1.523,2.445,2.045
	c0.521,0.28,0.722,0.32,1.123,0.601c0.48,0.08,1.041,0.962,0.881,1.483l0.24,4.049c0.08,0.12,0.08,0.239,0.08,0.4
	c-0.521,0.28-0.641,0.842-0.561,1.442h1.242l-0.08-1.122l0.201-0.08c0.16-0.04-0.321-2.245-0.121-3.167
	c0.201-2.725,0.682-1.643,0.24-3.206c-0.281-0.962-0.922-0.762-1.363-1.644c-0.32,0-1.764-2.525-2.123-3.647
	c-0.321-0.842-0.361-3.487-0.121-4.169c0.361-1.002,0.121-2.405-0.32-3.126c0.12-0.08,0.401,0,0.521,0
	c0.119,0.04,0.199,0.12,0.32,0.12c1.803,1.243,1.322,3.127,2.084,4.89c0.041,0.04,0.08,0.08,0.08,0.08
	c0,0.081,0.04,0.121,0.04,0.201c0.16,0.562,0.722,0.922,1.283,0.842c0.481-0.32,1.002-0.682,1.483-0.602l-2.687-5.13
	c-0.481-0.683-0.962-0.882-1.282-1.163c-0.802-0.32-1.203-0.24-2.004-0.28c-1.764-0.08-1.884-1.403-3.647-1.482
	c-3.007-0.08-3.046-0.08-4.69,0c-0.24,0-1.201,0.319-1.122,0.159l0.04-0.239l-1.121,0.04l0.44-1.044l-0.321-0.239l-1.322,1.323
	c0-0.763-0.16-1.003-0.32-1.483c-0.361-0.441-0.441-0.802-0.723-1.123c-0.199-1.162-0.561-4.93-3.447-5.651l-0.039-0.44l-0.321,0.12
	v-0.521h0.321l-0.201-0.882l0.441-1.002c-0.842-0.08-2.525-1.042-3.006,0c-0.361,0-0.562,0.08-0.843,0.12l0.763,0.32h0.08
	l0.039,0.642l-0.32,0.802h0.32v0.641c0,0.161-0.039,0.401,0.161,0.401c0.28-0.16,0.642,0,0.962-0.04l0.4,0.2
	c0.24,1.083-0.682,0.602,0.24,2.726c0,0.401-0.4,1.042-0.762,1.483c-0.561,0.762-0.601,0.722-1.924,1.844
	c-0.641,0.04-0.922,0.361-1.002,1.002c0.161,0.16,0.281,0.361,0.521,0.441c0.16,0.04,0.281,0,0.4,0
	c0.361-0.16,0.241-0.722,0.321-0.802c0.04-0.04,0.08-0.08,0.12-0.08c0.16,0.16,0.281,0.32,0.441,0.48
	c0.561-0.04,0.881-0.641,2.004-1.283c0-0.399,0.722-0.359,0.682-0.761c0-0.12,0.04,0.24,0.16,0.28
	c-0.08,0.762,0.279,1.443-0.201,2.165l-0.961,1.323h-1.163c-0.681,0-1.563-0.121-1.804-0.441c-1.443-0.882-2.164-1.163-3.407-2.004
	c-2.886-2.085-5.933-2.687-6.854-2.687c-0.4,0-0.801-0.32-1.041-0.521c0-0.08,0-0.12,0-0.2c-0.16-0.36-0.602-0.602-0.562-1.043
	l-0.241,0.842l-0.641-0.802c-0.04,0.041-0.08,0.081-0.08,0.161c0.199,0.441,0,1.002,0.08,1.443c-0.08,0.04-0.08,0.119-0.12,0.159
	c0,0.281-0.16,0.562-0.281,0.803c0.121,0.721-0.721,1.082-0.481,1.844c-0.119,0.881-0.359,1.322-0.681,2.164
	c-0.241,0.601-0.28,1.122-0.2,1.964c0.041,0.361,0.44,0.641,0.842,0.681c0.119,0,0.16-0.12,0.281-0.16
	c0.039,0.12,0.079,0.201,0.199,0.321c0.281,0,0.321,0.12,0.521-0.12c0-0.24,0.281-0.44,0.281-0.682
	C57.479,70.425,57.479,70.545,58.24,69.344z"/>
<path fill="#FFFFFF" d="M69.063,68.661c0.481,0.441,1.162,1.645-0.241,1.403c-0.039,0-0.361-0.441-0.4-0.401
	c-0.24-0.24,0-0.44,0-0.681c0-0.08,0.16,0.12,0.201,0.24c-0.121,0.4,0.279,0.722,0.681,0.642c0.04-0.08-0.08,0.04,0,0
	c0-0.121,0.241,0.04,0.079-0.441c-0.079-0.16-0.521-0.28-0.561-0.44L69.063,68.661z"/>
<path fill="none" stroke="#FFFFFF" stroke-width="0.2" stroke-miterlimit="3.863" d="M69.063,68.661
	c0.481,0.441,1.162,1.645-0.241,1.403c-0.039,0-0.361-0.441-0.4-0.401c-0.24-0.24,0-0.44,0-0.681c0-0.08,0.16,0.12,0.201,0.24
	c-0.121,0.4,0.279,0.722,0.681,0.642c0.04-0.08-0.08,0.04,0,0c0-0.121,0.241,0.04,0.079-0.441c-0.079-0.16-0.521-0.28-0.561-0.44
	L69.063,68.661z"/>
<path fill="#FFFFFF" d="M56.037,72.028l-0.041,0.441c1.123-0.361,3.127-0.682,4.569-1.403l-0.28-0.28
	C58.841,71.507,57.158,71.667,56.037,72.028z"/>
<path fill="none" stroke="#FFFFFF" stroke-width="0.2" stroke-miterlimit="3.863" d="M56.037,72.028l-0.041,0.441
	c1.123-0.361,3.127-0.682,4.569-1.403l-0.28-0.28C58.841,71.507,57.158,71.667,56.037,72.028z"/>
<polygon fill="#FFFFFF" points="67.9,68.541 68.101,68.822 66.858,68.982 66.498,68.741 "/>
<polygon fill="none" stroke="#FFFFFF" stroke-width="0.2" stroke-miterlimit="3.863" points="67.9,68.541 68.101,68.822 
	66.858,68.982 66.498,68.741 "/>
<path fill="#FFFFFF" d="M16.995,73.872l9.059,8.058c-0.361,0.399-0.561,0.921-0.561,1.482c0,1.162,0.962,2.164,2.084,2.284v2.686
	h-0.361v0.481h1.163v-0.481h-0.321v-2.646c1.082-0.04,1.924-0.921,2.084-1.924h1.283c0.16,4.41,3.768,7.896,8.177,7.896
	c4.569,0,8.257-3.688,8.257-8.217c0-4.53-3.688-8.217-8.257-8.217c-1.363,0-2.646,0.32-3.768,0.962l-2.325-4.249l0.562-1.122
	c0.16-0.361,0.641-0.241,0.921-0.521c0.041-0.201,0.041-0.321,0.041-0.521c-0.161-0.081-0.201-0.241-0.401-0.241h-3.047
	c-0.04,0.08-0.16,0.04-0.24,0.04c-0.04,0.04-0.08,0.08-0.12,0.08c-0.04,0.161-0.04,0.361,0,0.521c0.04,0.04,0.12,0.081,0.16,0.081
	h1.563c0.161-0.041,0.321,0.04,0.481,0.08c0.04,0.039,0.04,0.039,0.12,0.079c-0.04,0.12,0.081,0.28,0.041,0.361l-0.321,0.721H17.516
	l0.441-1.844c0.361-0.12,0.642,0.121,1.363-0.2c0.281,0,0.962-0.36,1.764-0.08c0.16-0.079-0.04-0.119,0.04-0.24
	c-0.08-0.04,0.12-0.2,0.08-0.28c-0.481-0.161-1.523-0.241-2.004,0.08c-0.521,0.28-1.203,0.08-1.644,0.12l-1.563,6.693
	c-0.882-0.36-1.884-0.561-2.926-0.561c-4.529,0-8.217,3.687-8.217,8.217c0,4.529,3.688,8.217,8.217,8.217
	c4.53,0,8.217-3.688,8.217-8.217c0-3.327-2.004-6.133-4.81-7.456L16.995,73.872z"/>
<path fill="none" stroke="#FFFFFF" stroke-width="0.2" stroke-miterlimit="3.863" d="M16.995,73.872l9.059,8.058
	c-0.361,0.399-0.561,0.921-0.561,1.482c0,1.162,0.962,2.164,2.084,2.284v2.686h-0.361v0.481h1.163v-0.481h-0.321v-2.646
	c1.082-0.04,1.924-0.921,2.084-1.924h1.283c0.16,4.41,3.768,7.896,8.177,7.896c4.569,0,8.257-3.688,8.257-8.217
	c0-4.53-3.688-8.217-8.257-8.217c-1.363,0-2.646,0.32-3.768,0.962l-2.325-4.249l0.562-1.122c0.16-0.361,0.641-0.241,0.921-0.521
	c0.041-0.201,0.041-0.321,0.041-0.521c-0.161-0.081-0.201-0.241-0.401-0.241h-3.047c-0.04,0.08-0.16,0.04-0.24,0.04
	c-0.04,0.04-0.08,0.08-0.12,0.08c-0.04,0.161-0.04,0.361,0,0.521c0.04,0.04,0.12,0.081,0.16,0.081h1.563
	c0.161-0.041,0.321,0.04,0.481,0.08c0.04,0.039,0.04,0.039,0.12,0.079c-0.04,0.12,0.081,0.28,0.041,0.361l-0.321,0.721H17.516
	l0.441-1.844c0.361-0.12,0.642,0.121,1.363-0.2c0.281,0,0.962-0.36,1.764-0.08c0.16-0.079-0.04-0.119,0.04-0.24
	c-0.08-0.04,0.12-0.2,0.08-0.28c-0.481-0.161-1.523-0.241-2.004,0.08c-0.521,0.28-1.203,0.08-1.644,0.12l-1.563,6.693
	c-0.882-0.36-1.884-0.561-2.926-0.561c-4.529,0-8.217,3.687-8.217,8.217c0,4.529,3.688,8.217,8.217,8.217
	c4.53,0,8.217-3.688,8.217-8.217c0-3.327-2.004-6.133-4.81-7.456L16.995,73.872z"/>
<path fill="none" stroke="#FFFFFF" stroke-width="0.2" stroke-miterlimit="3.863" d="M11.744,74.714
	c0.481-0.08,0.922-0.16,1.323-0.16c4.89,0,8.858,4.009,8.858,8.938c0,0.28,0,0.521-0.04,0.801"/>
<path fill-rule="evenodd" clip-rule="evenodd" fill="#FFFFFF" d="M5.892,92.11 M46.777,92.11H5.893v-0.602h40.884V92.11z"/>
<path fill="none" stroke="#FFFFFF" stroke-width="0.2" stroke-miterlimit="3.863" d="M5.892,92.11 M46.777,92.11H5.893v-0.602
	h40.884V92.11z"/>
<path fill="#0071B3" d="M13.749,82.45c-0.201-0.121-0.441-0.081-0.682-0.081c-0.681,0-1.242,0.522-1.242,1.163
	c0,0.681,0.561,1.202,1.242,1.202c0.521,0,1.042-0.36,1.163-0.841h6.212c-0.24,3.888-3.447,6.934-7.375,6.934
	c-4.168,0-7.495-3.327-7.495-7.415c0-4.129,3.327-7.456,7.495-7.456c0.962,0,1.884,0.201,2.766,0.562l-0.481,2.005
	C15.071,79.685,14.67,81.047,13.749,82.45z"/>
<path fill="none" stroke="#0071B3" stroke-width="0.2" stroke-miterlimit="3.863" d="M13.749,82.45
	c-0.201-0.121-0.441-0.081-0.682-0.081c-0.681,0-1.242,0.522-1.242,1.163c0,0.681,0.561,1.202,1.242,1.202
	c0.521,0,1.042-0.36,1.163-0.841h6.212c-0.24,3.888-3.447,6.934-7.375,6.934c-4.168,0-7.495-3.327-7.495-7.415
	c0-4.129,3.327-7.456,7.495-7.456c0.962,0,1.884,0.201,2.766,0.562l-0.481,2.005C15.071,79.685,14.67,81.047,13.749,82.45z"/>
<path fill="#0071B3" d="M16.354,76.719l-0.561,2.124c-0.241,1.041-1.042,3.127-1.724,3.928c0.08,0.161,0.161,0.36,0.201,0.521h6.212
	C20.402,80.365,18.759,77.92,16.354,76.719z"/>
<path fill="none" stroke="#0071B3" stroke-width="0.2" stroke-miterlimit="3.863" d="M16.354,76.719l-0.561,2.124
	c-0.241,1.041-1.042,3.127-1.724,3.928c0.08,0.161,0.161,0.36,0.201,0.521h6.212C20.402,80.365,18.759,77.92,16.354,76.719z"/>
<path fill="#0071B3" d="M17.116,73.352l0.24-1.283h15.632l-4.329,9.139c-0.2-0.08-0.36-0.239-0.641-0.16v-2.605h0.361V78h-1.163
	v0.441h0.361v2.646c-0.441,0.08-0.802,0.24-1.122,0.521L17.116,73.352z"/>
<path fill="none" stroke="#0071B3" stroke-width="0.2" stroke-miterlimit="3.863" d="M17.116,73.352l0.24-1.283h15.632l-4.329,9.139
	c-0.2-0.08-0.36-0.239-0.641-0.16v-2.605h0.361V78h-1.163v0.441h0.361v2.646c-0.441,0.08-0.802,0.24-1.122,0.521L17.116,73.352z"/>
<path fill="#0071B3" d="M41.245,82.65l4.93-2.727c0.602,1.044,0.922,2.285,0.922,3.568c0,4.088-3.326,7.415-7.455,7.415
	c-4.008,0-7.255-3.126-7.415-7.095h5.812c0.12,0.762,0.801,1.323,1.603,1.323c0.922,0,1.724-0.762,1.724-1.644
	c0-0.321-0.081-0.561-0.201-0.762L41.245,82.65z"/>
<path fill="none" stroke="#0071B3" stroke-width="0.2" stroke-miterlimit="3.863" d="M41.245,82.65l4.93-2.727
	c0.602,1.044,0.922,2.285,0.922,3.568c0,4.088-3.326,7.415-7.455,7.415c-4.008,0-7.255-3.126-7.415-7.095h5.812
	c0.12,0.762,0.801,1.323,1.603,1.323c0.922,0,1.724-0.762,1.724-1.644c0-0.321-0.081-0.561-0.201-0.762L41.245,82.65z"/>
<path fill="#0071B3" d="M40.965,82.369l5.01-2.765c-1.323-2.125-3.647-3.568-6.373-3.568c-1.162,0-2.325,0.281-3.327,0.802
	l2.806,5.092c0.16-0.081,0.401-0.121,0.601-0.121C40.163,81.809,40.604,82.049,40.965,82.369z"/>
<path fill="none" stroke="#0071B3" stroke-width="0.2" stroke-miterlimit="3.863" d="M40.965,82.369l5.01-2.765
	c-1.323-2.125-3.647-3.568-6.373-3.568c-1.162,0-2.325,0.281-3.327,0.802l2.806,5.092c0.16-0.081,0.401-0.121,0.601-0.121
	C40.163,81.809,40.604,82.049,40.965,82.369z"/>
<path fill="#0071B3" d="M35.874,77.159l2.806,5.09c-0.281,0.241-0.521,0.602-0.601,1.002h-5.892c0.08-2.604,1.483-4.85,3.567-6.132
	L35.874,77.159z"/>
<path fill="none" stroke="#0071B3" stroke-width="0.2" stroke-miterlimit="3.863" d="M35.874,77.159l2.806,5.09
	c-0.281,0.241-0.521,0.602-0.601,1.002h-5.892c0.08-2.604,1.483-4.85,3.567-6.132L35.874,77.159z"/>
<path fill="#0071B3" d="M33.269,72.509l-4.089,8.939c0.602,0.4,1.043,1.082,1.083,1.843h1.242c0.08-2.886,1.604-5.411,3.968-6.813
	L33.269,72.509z"/>
<path fill="none" stroke="#0071B3" stroke-width="0.2" stroke-miterlimit="3.863" d="M33.269,72.509l-4.089,8.939
	c0.602,0.4,1.043,1.082,1.083,1.843h1.242c0.08-2.886,1.604-5.411,3.968-6.813L33.269,72.509z"/>
<path fill="none" stroke="#FFFFFF" stroke-width="0.2" stroke-miterlimit="3.863" d="M30.944,84.815
	c-0.08-0.441-0.12-0.882-0.12-1.323c0-4.93,4.008-8.938,8.898-8.938c3.648,0,6.734,2.205,8.137,5.33"/>
<path fill="#ED1C24" d="M4.61,97.762c-0.882-0.722-1.203-1.563-1.203-2.605v-3.968l86.9-87.781l4.89,0.12
	c0.762,0,2.525,0.962,2.605,1.363c0.08,0.359,0.922,1.082,0.922,2.765l0.04,4.209l-85.657,87.02H7.215
	C6.454,98.884,5.732,98.684,4.61,97.762"/>
</svg>
