<?xml version="1.0" encoding="utf-8"?>
<!-- Generator: Adobe Illustrator 14.0.0, SVG Export Plug-In . SVG Version: 6.00 Build 43363)  -->
<!DOCTYPE svg PUBLIC "-//W3C//DTD SVG 1.1//EN" "http://www.w3.org/Graphics/SVG/1.1/DTD/svg11.dtd">
<svg version="1.1" id="Calque_1" xmlns="http://www.w3.org/2000/svg" xmlns:xlink="http://www.w3.org/1999/xlink" x="0px" y="0px"
	 width="79.32px" height="79.4px" viewBox="0 0 79.32 79.4" enable-background="new 0 0 79.32 79.4" xml:space="preserve">
<path fill="#0071B3" d="M5.877,0h67.606c3.239,0.04,5.837,2.639,5.837,5.877v67.727c0,3.199-2.598,5.797-5.797,5.797H5.837
	C2.598,79.4,0,76.803,0,73.644V5.877C0,2.639,2.598,0.04,5.837,0.04L5.877,0z"/>
<path fill="none" stroke="#0071B3" stroke-width="0" stroke-miterlimit="3.863" d="M5.877,0h67.606
	c3.239,0.04,5.837,2.639,5.837,5.877v67.727c0,3.199-2.598,5.797-5.797,5.797H5.837C2.598,79.4,0,76.803,0,73.644V5.877
	C0,2.639,2.598,0.04,5.837,0.04L5.877,0z"/>
<path fill="#FFFFFF" d="M5.837,1.439l67.646,0.04c2.399,0,4.397,1.959,4.397,4.397v67.767c0,2.398-1.998,4.397-4.397,4.397
	L5.517,77.922c-2.279,0-4.038-1.84-4.038-4.078L1.399,5.837C1.399,3.438,3.398,1.439,5.837,1.439z"/>
<path fill="none" stroke="#FFFFFF" stroke-width="0.2" stroke-miterlimit="3.863" d="M5.837,1.439l67.646,0.04
	c2.399,0,4.397,1.959,4.397,4.397v67.767c0,2.398-1.998,4.397-4.397,4.397L5.517,77.922c-2.279,0-4.038-1.84-4.038-4.078
	L1.399,5.837C1.399,3.438,3.398,1.439,5.837,1.439z"/>
<path fill="#0071B3" d="M5.837,2.759l67.646,0.04c1.679,0,3.079,1.399,3.079,3.078v67.767c0,1.679-1.4,3.079-3.079,3.079H5.837
	c-1.679,0-3.079-1.4-3.079-3.079V5.837C2.758,4.158,4.158,2.759,5.837,2.759z"/>
<path fill="none" stroke="#0071B3" stroke-width="0.2" stroke-miterlimit="3.863" d="M5.837,2.759l67.646,0.04
	c1.679,0,3.079,1.399,3.079,3.078v67.767c0,1.679-1.4,3.079-3.079,3.079H5.837c-1.679,0-3.079-1.4-3.079-3.079V5.837
	C2.758,4.158,4.158,2.759,5.837,2.759z"/>
<polygon fill="#FFFFFF" points="63.688,8.716 71.005,8.716 71.005,7.956 62.889,7.916 62.889,14.073 36.901,14.033 36.901,70.525 
	37.781,70.525 37.781,36.462 57.011,36.462 57.011,40.221 57.851,40.221 57.851,33.623 37.701,33.623 37.701,16.911 62.929,16.911 
	62.929,70.325 63.728,70.325 "/>
<polygon fill="none" stroke="#FFFFFF" stroke-width="0" stroke-miterlimit="3.863" points="63.688,8.716 71.005,8.716 71.005,7.956 
	62.889,7.916 62.889,14.073 36.901,14.033 36.901,70.525 37.781,70.525 37.781,36.462 57.011,36.462 57.011,40.221 57.851,40.221 
	57.851,33.623 37.701,33.623 37.701,16.911 62.929,16.911 62.929,70.325 63.728,70.325 "/>
<path fill-rule="evenodd" clip-rule="evenodd" fill="#FFFFFF" d="M57.091,52.895 M57.931,52.895h-0.84v-5.718h0.84V52.895z"/>
<path fill="none" stroke="#FFFFFF" stroke-width="0" stroke-miterlimit="3.863" d="M57.091,52.895 M57.931,52.895h-0.84v-5.718h0.84
	V52.895z"/>
<path fill-rule="evenodd" clip-rule="evenodd" fill="#FFFFFF" d="M57.011,65.487 M57.851,65.487h-0.84v-5.717h0.84V65.487z"/>
<path fill="none" stroke="#FFFFFF" stroke-width="0" stroke-miterlimit="3.863" d="M57.011,65.487 M57.851,65.487h-0.84v-5.717h0.84
	V65.487z"/>
<path fill-rule="evenodd" clip-rule="evenodd" fill="#FFFFFF" d="M61.729,52.774 M62.569,52.774H61.73v-5.717h0.839V52.774z"/>
<path fill="none" stroke="#FFFFFF" stroke-width="0" stroke-miterlimit="3.863" d="M61.729,52.774 M62.569,52.774H61.73v-5.717
	h0.839V52.774z"/>
<path fill-rule="evenodd" clip-rule="evenodd" fill="#FFFFFF" d="M61.729,65.487 M62.569,65.487H61.73v-5.717h0.839V65.487z"/>
<path fill="none" stroke="#FFFFFF" stroke-width="0" stroke-miterlimit="3.863" d="M61.729,65.487 M62.569,65.487H61.73v-5.717
	h0.839V65.487z"/>
<path fill-rule="evenodd" clip-rule="evenodd" fill="#FFFFFF" d="M61.769,40.341 M62.609,40.341h-0.84v-6.797h0.84V40.341z"/>
<path fill="none" stroke="#FFFFFF" stroke-width="0" stroke-miterlimit="3.863" d="M61.769,40.341 M62.609,40.341h-0.84v-6.797h0.84
	V40.341z"/>
<polygon fill="#FFFFFF" points="17.151,70.525 17.951,70.525 17.951,7.916 10.035,7.916 10.035,8.676 17.151,8.676 17.151,70.646 
	"/>
<polygon fill="none" stroke="#FFFFFF" stroke-width="0" stroke-miterlimit="3.863" points="17.151,70.525 17.951,70.525 
	17.951,7.916 10.035,7.916 10.035,8.676 17.151,8.676 17.151,70.646 "/>
<path fill="#FFFFFF" d="M45.296,22.149l3.359,2.998c-0.16,0.12-0.24,0.36-0.24,0.56c0,0.4,0.36,0.801,0.799,0.841v0.999h-0.119
	v0.159h0.439v-0.159h-0.16v-0.999c0.44,0,0.721-0.32,0.801-0.721h0.439c0.08,1.64,1.399,2.959,3.038,2.959
	c1.679,0,3.039-1.399,3.039-3.079c0-1.639-1.36-3.038-3.039-3.038c-0.521,0-0.999,0.12-1.399,0.359l-0.879-1.559l0.239-0.44
	c0.04-0.12,0.2-0.08,0.32-0.16c0.04-0.08,0.04-0.119,0.04-0.198c-0.08-0.04-0.08-0.08-0.16-0.08h-1.199c-0.039,0-0.039,0-0.039,0.04
	c-0.041,0.04-0.041,0.119,0,0.158c0,0.04,0.039,0.04,0.039,0.04h0.559c0.08,0,0.121,0.04,0.201,0.04c0,0.04,0,0.04,0.039,0.04
	c-0.039,0.04,0.041,0.08,0,0.12l-0.119,0.28h-5.797l0.159-0.719c0.12,0,0.24,0.08,0.521-0.04c0.119,0,0.32-0.16,0.64-0.04
	c0.04-0.04-0.04-0.04,0-0.12c0,0,0.04-0.04,0.04-0.08c-0.2-0.08-0.561-0.08-0.72,0.04c-0.2,0.08-0.44,0.04-0.64,0.04l-0.561,2.478
	c-0.318-0.119-0.719-0.199-1.079-0.199c-1.679,0-3.038,1.359-3.038,3.038c0,1.68,1.359,3.079,3.038,3.079
	c1.64,0,3.039-1.399,3.039-3.079c0-1.238-0.76-2.278-1.8-2.759L45.296,22.149z"/>
<path fill="none" stroke="#FFFFFF" stroke-width="0.2" stroke-miterlimit="3.863" d="M45.296,22.149l3.359,2.998
	c-0.16,0.12-0.24,0.36-0.24,0.56c0,0.4,0.36,0.801,0.799,0.841v0.999h-0.119v0.159h0.439v-0.159h-0.16v-0.999
	c0.44,0,0.721-0.32,0.801-0.721h0.439c0.08,1.64,1.399,2.959,3.038,2.959c1.679,0,3.039-1.399,3.039-3.079
	c0-1.639-1.36-3.038-3.039-3.038c-0.521,0-0.999,0.12-1.399,0.359l-0.879-1.559l0.239-0.44c0.04-0.12,0.2-0.08,0.32-0.16
	c0.04-0.08,0.04-0.119,0.04-0.198c-0.08-0.04-0.08-0.08-0.16-0.08h-1.199c-0.039,0-0.039,0-0.039,0.04
	c-0.041,0.04-0.041,0.119,0,0.158c0,0.04,0.039,0.04,0.039,0.04h0.559c0.08,0,0.121,0.04,0.201,0.04c0,0.04,0,0.04,0.039,0.04
	c-0.039,0.04,0.041,0.08,0,0.12l-0.119,0.28h-5.797l0.159-0.719c0.12,0,0.24,0.08,0.521-0.04c0.119,0,0.32-0.16,0.64-0.04
	c0.04-0.04-0.04-0.04,0-0.12c0,0,0.04-0.04,0.04-0.08c-0.2-0.08-0.561-0.08-0.72,0.04c-0.2,0.08-0.44,0.04-0.64,0.04l-0.561,2.478
	c-0.318-0.119-0.719-0.199-1.079-0.199c-1.679,0-3.038,1.359-3.038,3.038c0,1.68,1.359,3.079,3.038,3.079
	c1.64,0,3.039-1.399,3.039-3.079c0-1.238-0.76-2.278-1.8-2.759L45.296,22.149z"/>
<path fill="none" stroke="#FFFFFF" stroke-width="0.2" stroke-miterlimit="3.863" d="M43.378,22.47c0.16-0.04,0.319-0.08,0.479-0.08
	c1.799,0,3.238,1.519,3.238,3.317c0,0.12,0,0.2,0,0.32"/>
<path fill-rule="evenodd" clip-rule="evenodd" fill="#FFFFFF" d="M41.219,28.945 M56.332,28.945H41.218v-0.24h15.113V28.945z"/>
<path fill="none" stroke="#FFFFFF" stroke-width="0.2" stroke-miterlimit="3.863" d="M41.219,28.945 M56.332,28.945H41.218v-0.24
	h15.113V28.945z"/>
<path fill="#0071B3" d="M44.098,25.348c-0.08-0.08-0.16-0.04-0.24-0.04c-0.28,0-0.479,0.2-0.479,0.439c0,0.24,0.199,0.44,0.479,0.44
	c0.16,0,0.36-0.12,0.44-0.32h2.279c-0.08,1.439-1.281,2.56-2.72,2.56c-1.519,0-2.759-1.2-2.759-2.72c0-1.519,1.24-2.759,2.759-2.759
	c0.32,0,0.681,0.08,1,0.16l-0.16,0.8C44.578,24.309,44.458,24.827,44.098,25.348z"/>
<path fill="none" stroke="#0071B3" stroke-width="0.2" stroke-miterlimit="3.863" d="M44.098,25.348c-0.08-0.08-0.16-0.04-0.24-0.04
	c-0.28,0-0.479,0.2-0.479,0.439c0,0.24,0.199,0.44,0.479,0.44c0.16,0,0.36-0.12,0.44-0.32h2.279c-0.08,1.439-1.281,2.56-2.72,2.56
	c-1.519,0-2.759-1.2-2.759-2.72c0-1.519,1.24-2.759,2.759-2.759c0.32,0,0.681,0.08,1,0.16l-0.16,0.8
	C44.578,24.309,44.458,24.827,44.098,25.348z"/>
<path fill="#0071B3" d="M45.057,23.229l-0.199,0.76c-0.12,0.4-0.399,1.199-0.64,1.479c0.039,0.04,0.08,0.119,0.08,0.199h2.279
	C46.578,24.549,45.937,23.668,45.057,23.229z"/>
<path fill="none" stroke="#FFFFFF" stroke-width="0.2" stroke-miterlimit="3.863" d="M45.057,23.229l-0.199,0.76
	c-0.12,0.4-0.399,1.199-0.64,1.479c0.039,0.04,0.08,0.119,0.08,0.199h2.279C46.578,24.549,45.937,23.668,45.057,23.229z"/>
<path fill="#0071B3" d="M45.337,21.949l0.08-0.479h5.797l-1.6,3.397c-0.08-0.04-0.16-0.079-0.24-0.04v-0.959h0.16v-0.2h-0.439v0.2
	h0.08v0.959c-0.16,0.04-0.24,0.12-0.399,0.2L45.337,21.949z"/>
<path fill="none" stroke="#FFFFFF" stroke-width="0.2" stroke-miterlimit="3.863" d="M45.337,21.949l0.08-0.479h5.797l-1.6,3.397
	c-0.08-0.04-0.16-0.079-0.24-0.04v-0.959h0.16v-0.2h-0.439v0.2h0.08v0.959c-0.16,0.04-0.24,0.12-0.399,0.2L45.337,21.949z"/>
<path fill="#0071B3" d="M54.253,25.388l1.838-0.999c0.201,0.399,0.32,0.879,0.32,1.318c0,1.52-1.24,2.8-2.759,2.8
	c-1.479,0-2.679-1.2-2.719-2.68h2.119c0.079,0.28,0.319,0.521,0.6,0.521c0.36,0,0.64-0.28,0.64-0.641c0-0.08-0.039-0.199-0.08-0.279
	L54.253,25.388z"/>
<path fill="none" stroke="#FFFFFF" stroke-width="0.2" stroke-miterlimit="3.863" d="M54.253,25.388l1.838-0.999
	c0.201,0.399,0.32,0.879,0.32,1.318c0,1.52-1.24,2.8-2.759,2.8c-1.479,0-2.679-1.2-2.719-2.68h2.119
	c0.079,0.28,0.319,0.521,0.6,0.521c0.36,0,0.64-0.28,0.64-0.641c0-0.08-0.039-0.199-0.08-0.279L54.253,25.388z"/>
<path fill="#0071B3" d="M54.132,25.308l1.88-1.039c-0.521-0.76-1.359-1.32-2.359-1.32c-0.44,0-0.879,0.12-1.239,0.32l1.039,1.879
	c0.08-0.04,0.12-0.04,0.24-0.04C53.853,25.107,54.013,25.188,54.132,25.308z"/>
<path fill="none" stroke="#FFFFFF" stroke-width="0.2" stroke-miterlimit="3.863" d="M54.132,25.308l1.88-1.039
	c-0.521-0.76-1.359-1.32-2.359-1.32c-0.44,0-0.879,0.12-1.239,0.32l1.039,1.879c0.08-0.04,0.12-0.04,0.24-0.04
	C53.853,25.107,54.013,25.188,54.132,25.308z"/>
<path fill="#0071B3" d="M52.253,23.389l1.08,1.879c-0.121,0.08-0.201,0.24-0.24,0.359h-2.198c0.039-0.959,0.56-1.799,1.319-2.278
	L52.253,23.389z"/>
<path fill="none" stroke="#FFFFFF" stroke-width="0.2" stroke-miterlimit="3.863" d="M52.253,23.389l1.08,1.879
	c-0.121,0.08-0.201,0.24-0.24,0.359h-2.198c0.039-0.959,0.56-1.799,1.319-2.278L52.253,23.389z"/>
<path fill="#0071B3" d="M51.294,21.63l-1.479,3.317c0.2,0.16,0.36,0.44,0.36,0.72h0.479c0.04-1.078,0.599-2.039,1.439-2.559
	L51.294,21.63z"/>
<path fill="none" stroke="#FFFFFF" stroke-width="0.2" stroke-miterlimit="3.863" d="M51.294,21.63l-1.479,3.317
	c0.2,0.16,0.36,0.44,0.36,0.72h0.479c0.04-1.078,0.599-2.039,1.439-2.559L51.294,21.63z"/>
<path fill="none" stroke="#FFFFFF" stroke-width="0.2" stroke-miterlimit="3.863" d="M50.455,26.228
	c-0.039-0.16-0.039-0.32-0.039-0.521c0-1.799,1.479-3.317,3.277-3.317c1.359,0,2.479,0.839,2.999,1.999"/>
</svg>
