<?xml version="1.0" encoding="utf-8"?>
<!-- Generator: Adobe Illustrator 14.0.0, SVG Export Plug-In . SVG Version: 6.00 Build 43363)  -->
<!DOCTYPE svg PUBLIC "-//W3C//DTD SVG 1.1//EN" "http://www.w3.org/Graphics/SVG/1.1/DTD/svg11.dtd">
<svg version="1.1" id="Calque_1" xmlns="http://www.w3.org/2000/svg" xmlns:xlink="http://www.w3.org/1999/xlink" x="0px" y="0px"
	 width="68.137px" height="124.535px" viewBox="0 0 68.137 124.535" enable-background="new 0 0 68.137 124.535"
	 xml:space="preserve">
<path fill="#FFFFFF" d="M62.973,124.436H5.185c-2.792,0-5.065-2.273-5.065-5.104V5.164C0.12,2.373,2.393,0.1,5.185,0.1h57.788
	c2.791,0,5.064,2.273,5.064,5.064v114.088C68.037,122.043,65.764,124.436,62.973,124.436z"/>
<path fill="none" stroke="#120C0E" stroke-width="0.199" stroke-miterlimit="3.863" d="M62.973,124.436H5.185
	c-2.792,0-5.065-2.273-5.065-5.104V5.164C0.12,2.373,2.393,0.1,5.185,0.1h57.788c2.791,0,5.064,2.273,5.064,5.064v114.088
	C68.037,122.043,65.764,124.436,62.973,124.436z"/>
<polygon fill="#BFBFBF" points="37.209,16.568 39.203,16.568 39.203,10.108 42.593,16.568 45.186,16.568 45.186,6 43.111,6.041 
	43.15,12.541 39.721,6 37.209,6 "/>
<polygon fill="none" stroke="#BFBFBF" stroke-width="0" stroke-miterlimit="3.863" points="37.209,16.568 39.203,16.568 
	39.203,10.108 42.593,16.568 45.186,16.568 45.186,6 43.111,6.041 43.15,12.541 39.721,6 37.209,6 "/>
<polygon fill="#BFBFBF" points="49.053,16.568 56.313,16.568 56.313,14.615 51.327,14.615 51.366,11.982 54.637,11.982 
	54.637,10.188 51.327,10.188 51.327,7.955 56.191,7.955 56.191,6.121 49.053,6.121 "/>
<polygon fill="none" stroke="#BFBFBF" stroke-width="0" stroke-miterlimit="3.863" points="49.053,16.568 56.313,16.568 
	56.313,14.615 51.327,14.615 51.366,11.982 54.637,11.982 54.637,10.188 51.327,10.188 51.327,7.955 56.191,7.955 56.191,6.121 
	49.053,6.121 "/>
<polygon fill="#BFBFBF" points="17.827,7.955 13.161,15.053 13.121,16.647 20.579,16.647 20.579,14.894 15.873,14.854 20.698,8.075 
	20.659,6.201 13.321,6.201 13.321,7.995 "/>
<polygon fill="none" stroke="#BFBFBF" stroke-width="0" stroke-miterlimit="3.863" points="17.827,7.955 13.161,15.053 
	13.121,16.647 20.579,16.647 20.579,14.894 15.873,14.854 20.698,8.075 20.659,6.201 13.321,6.201 13.321,7.995 "/>
<path fill="#BFBFBF" d="M28.834,5.603c-3.23,0-4.626,2.592-4.626,5.662c0,3.071,1.396,5.663,4.626,5.663s4.626-2.592,4.626-5.663
	C33.46,8.194,32.064,5.603,28.834,5.603z"/>
<path fill="none" stroke="#BFBFBF" stroke-width="0" stroke-miterlimit="3.863" d="M28.834,5.603c-3.23,0-4.626,2.592-4.626,5.662
	c0,3.071,1.396,5.663,4.626,5.663s4.626-2.592,4.626-5.663C33.46,8.194,32.064,5.603,28.834,5.603z"/>
<path fill="#FFFFFF" d="M28.834,7.955c1.755,0,2.193,1.954,2.193,3.31s-0.438,3.31-2.193,3.31s-2.154-1.954-2.154-3.31
	S27.079,7.955,28.834,7.955z"/>
<path fill="none" stroke="#BFBFBF" stroke-width="0" stroke-miterlimit="3.863" d="M28.834,7.955c1.755,0,2.193,1.954,2.193,3.31
	s-0.438,3.31-2.193,3.31s-2.154-1.954-2.154-3.31S27.079,7.955,28.834,7.955z"/>
<path fill="#FFFFFF" d="M26.68,104.217l7.139,6.381c-0.279,0.279-0.439,0.718-0.439,1.197c0,0.916,0.758,1.715,1.636,1.793v2.074
	h-0.279v0.399h0.918v-0.399h-0.24v-2.074c0.838,0,1.557-0.717,1.675-1.514h0.997c0.12,3.469,2.951,6.26,6.421,6.26
	c3.589,0,6.54-2.91,6.54-6.539c0-3.59-2.951-6.5-6.54-6.5c-1.077,0-2.034,0.279-2.95,0.797l-1.836-3.35l0.399-0.877
	c0.2-0.279,0.56-0.16,0.758-0.438c0.04-0.16,0.04-0.239,0.04-0.399c-0.12-0.08-0.16-0.238-0.318-0.238h-2.394
	c-0.04,0.08-0.12,0.039-0.199,0.039c-0.04,0.041-0.079,0.08-0.079,0.08c-0.041,0.159-0.041,0.279,0,0.438
	c0,0.04,0.079,0.04,0.118,0.04h1.237c0.119,0,0.238,0.04,0.359,0.04c0.039,0.04,0.039,0.04,0.119,0.079
	c-0.041,0.16,0.039,0.24,0,0.32l-0.24,0.557H27.119l0.319-1.475c0.279-0.119,0.479,0.119,1.117-0.119
	c0.199,0,0.718-0.319,1.356-0.08c0.08-0.041-0.04-0.08,0.04-0.199c-0.08-0.04,0.04-0.16,0.04-0.24
	c-0.319-0.079-1.197-0.159-1.556,0.08c-0.399,0.238-0.957,0.08-1.316,0.12l-1.196,5.264c-0.718-0.239-1.516-0.438-2.313-0.438
	c-3.59,0-6.501,2.91-6.501,6.5c0,3.629,2.911,6.5,6.501,6.5c3.549,0,6.42-2.871,6.42-6.5c0-2.633-1.555-4.825-3.788-5.902
	L26.68,104.217z"/>
<path fill="none" stroke="#BFBFBF" stroke-width="0.199" stroke-miterlimit="3.863" d="M26.68,104.217l7.139,6.381
	c-0.279,0.279-0.439,0.718-0.439,1.197c0,0.916,0.758,1.715,1.636,1.793v2.074h-0.279v0.399h0.918v-0.399h-0.24v-2.074
	c0.838,0,1.557-0.717,1.675-1.514h0.997c0.12,3.469,2.951,6.26,6.421,6.26c3.589,0,6.54-2.91,6.54-6.539c0-3.59-2.951-6.5-6.54-6.5
	c-1.077,0-2.034,0.279-2.95,0.797l-1.836-3.35l0.399-0.877c0.2-0.279,0.56-0.16,0.758-0.438c0.04-0.16,0.04-0.239,0.04-0.399
	c-0.12-0.08-0.16-0.238-0.318-0.238h-2.394c-0.04,0.08-0.12,0.039-0.199,0.039c-0.04,0.041-0.079,0.08-0.079,0.08
	c-0.041,0.159-0.041,0.279,0,0.438c0,0.04,0.079,0.04,0.118,0.04h1.237c0.119,0,0.238,0.04,0.359,0.04
	c0.039,0.04,0.039,0.04,0.119,0.079c-0.041,0.16,0.039,0.24,0,0.32l-0.24,0.557H27.119l0.319-1.475
	c0.279-0.119,0.479,0.119,1.117-0.119c0.199,0,0.718-0.319,1.356-0.08c0.08-0.041-0.04-0.08,0.04-0.199
	c-0.08-0.04,0.04-0.16,0.04-0.24c-0.319-0.079-1.197-0.159-1.556,0.08c-0.399,0.238-0.957,0.08-1.316,0.12l-1.196,5.264
	c-0.718-0.239-1.516-0.438-2.313-0.438c-3.59,0-6.501,2.91-6.501,6.5c0,3.629,2.911,6.5,6.501,6.5c3.549,0,6.42-2.871,6.42-6.5
	c0-2.633-1.555-4.825-3.788-5.902L26.68,104.217z"/>
<path fill="none" stroke="#BFBFBF" stroke-width="0.199" stroke-miterlimit="3.863" d="M22.573,104.896
	c0.319-0.08,0.718-0.159,1.037-0.159c3.828,0,6.939,3.23,6.939,7.059c0,0.279,0,0.438,0,0.678"/>
<path fill-rule="evenodd" clip-rule="evenodd" fill="#FFFFFF" d="M17.907,118.653 M50.17,118.653H17.907v-0.519H50.17V118.653z"/>
<path fill="none" stroke="#BFBFBF" stroke-width="0.199" stroke-miterlimit="3.863" d="M17.907,118.653 M50.17,118.653H17.907
	v-0.519H50.17V118.653z"/>
<path fill="none" stroke="#BFBFBF" stroke-width="0.199" stroke-miterlimit="3.863" d="M37.688,112.871
	c-0.039-0.319-0.08-0.718-0.08-1.076c0-3.828,3.15-7.059,6.979-7.059c2.911,0,5.304,1.754,6.46,4.227 M39.521,103.142l-3.229,7.058
	c0.478,0.359,0.837,0.877,0.837,1.475h1.037c0.04-2.272,1.236-4.307,3.111-5.422L39.521,103.142z M41.557,106.81l2.232,4.028
	c-0.199,0.199-0.438,0.478-0.479,0.797h-4.666c0.08-2.073,1.196-3.828,2.871-4.865L41.557,106.81z M45.584,110.918l3.948-2.154
	c-1.077-1.715-2.871-2.831-5.025-2.831c-0.877,0-1.795,0.198-2.592,0.638l2.233,4.027c0.08-0.039,0.238-0.079,0.398-0.079
	C44.945,110.519,45.346,110.638,45.584,110.918z M45.823,111.156l3.868-2.154c0.479,0.838,0.718,1.836,0.718,2.793
	c0,3.27-2.632,5.901-5.902,5.901c-3.11,0-5.663-2.473-5.821-5.622h4.586c0.08,0.637,0.638,1.036,1.235,1.036
	c0.798,0,1.396-0.559,1.396-1.315c0-0.239-0.079-0.399-0.159-0.599L45.823,111.156z M26.76,103.818l0.24-0.997h12.323L35.893,110
	c-0.16-0.041-0.278-0.16-0.519-0.119v-2.034h0.28v-0.359h-0.918v0.359h0.279v2.073c-0.32,0.08-0.599,0.199-0.877,0.438
	L26.76,103.818z M26.162,106.49l-0.399,1.715c-0.239,0.758-0.837,2.393-1.396,3.031c0.08,0.159,0.12,0.319,0.16,0.438h4.905
	C29.352,109.401,28.076,107.408,26.162,106.49z M24.128,110.996c-0.159-0.119-0.359-0.078-0.518-0.078
	c-0.559,0-1.037,0.438-1.037,0.916c0,0.559,0.478,0.957,1.037,0.957c0.399,0,0.797-0.239,0.877-0.678h4.905
	c-0.159,3.11-2.712,5.504-5.782,5.504c-3.31,0-5.903-2.633-5.903-5.822c0-3.311,2.593-5.982,5.903-5.982
	c0.718,0,1.435,0.2,2.193,0.479l-0.399,1.636C25.165,108.844,24.886,109.881,24.128,110.996z"/>
<polygon fill-rule="evenodd" clip-rule="evenodd" fill="#BFBFBF" points="6.98,71.998 6.98,78.139 9.532,78.139 9.532,77.142 
	7.857,77.142 7.857,75.427 9.372,75.427 9.372,74.43 7.857,74.43 7.857,72.955 9.532,72.955 9.532,71.998 "/>
<polygon fill="none" stroke="#BFBFBF" stroke-width="0" stroke-miterlimit="3.863" points="6.98,71.998 6.98,78.139 9.532,78.139 
	9.532,77.142 7.857,77.142 7.857,75.427 9.372,75.427 9.372,74.43 7.857,74.43 7.857,72.955 9.532,72.955 9.532,71.998 "/>
<polygon fill-rule="evenodd" clip-rule="evenodd" fill="#BFBFBF" points="10.21,73.553 11.127,75.785 10.21,78.139 11.167,78.139 
	11.566,76.742 12.005,78.139 12.962,78.139 12.044,75.785 12.962,73.553 12.005,73.553 11.566,74.908 11.167,73.553 "/>
<polygon fill="none" stroke="#BFBFBF" stroke-width="0" stroke-miterlimit="3.863" points="10.21,73.553 11.127,75.785 
	10.21,78.139 11.167,78.139 11.566,76.742 12.005,78.139 12.962,78.139 12.044,75.785 12.962,73.553 12.005,73.553 11.566,74.908 
	11.167,73.553 "/>
<path fill-rule="evenodd" clip-rule="evenodd" fill="#BFBFBF" d="M15.953,75.147c0-0.957-0.16-1.755-1.077-1.755h-0.16
	c-0.997,0-1.076,0.918-1.076,1.954v0.957c0,1.036,0.079,1.954,1.076,1.954h0.16c0.957,0,1.077-0.877,1.077-1.875h-0.838
	c0,0.759-0.04,1.078-0.319,1.078c-0.279,0-0.319-0.319-0.319-1.078v-1.076c0-0.797,0.04-1.116,0.319-1.116
	c0.279,0,0.319,0.319,0.319,1.116h0.838V75.147z"/>
<path fill="none" stroke="#BFBFBF" stroke-width="0" stroke-miterlimit="3.863" d="M15.953,75.147c0-0.957-0.16-1.755-1.077-1.755
	h-0.16c-0.997,0-1.076,0.918-1.076,1.954v0.957c0,1.036,0.079,1.954,1.076,1.954h0.16c0.957,0,1.077-0.877,1.077-1.875h-0.838
	c0,0.759-0.04,1.078-0.319,1.078c-0.279,0-0.319-0.319-0.319-1.078v-1.076c0-0.797,0.04-1.116,0.319-1.116
	c0.279,0,0.319,0.319,0.319,1.116h0.838V75.147z"/>
<path fill-rule="evenodd" clip-rule="evenodd" fill="#BFBFBF" d="M17.468,75.228v-0.319c0-0.957,0.838-0.957,0.838,0v0.319H17.468z
	 M16.631,76.304v-0.957c0-1.476,0.398-1.954,1.236-1.954c0.877,0,1.276,0.479,1.276,1.954v0.638h-1.675v0.838
	c0,0.479,0.08,0.639,0.399,0.639c0.359,0,0.439-0.16,0.439-0.639v-0.199h0.837c0,1.116-0.279,1.635-1.276,1.635
	C16.91,78.258,16.631,77.739,16.631,76.304z"/>
<path fill="none" stroke="#BFBFBF" stroke-width="0" stroke-miterlimit="3.863" d="M17.468,75.228v-0.319
	c0-0.957,0.838-0.957,0.838,0v0.319H17.468z M16.631,76.304v-0.957c0-1.476,0.398-1.954,1.236-1.954
	c0.877,0,1.276,0.479,1.276,1.954v0.638h-1.675v0.838c0,0.479,0.08,0.639,0.399,0.639c0.359,0,0.439-0.16,0.439-0.639v-0.199h0.837
	c0,1.116-0.279,1.635-1.276,1.635C16.91,78.258,16.631,77.739,16.631,76.304z"/>
<path fill-rule="evenodd" clip-rule="evenodd" fill="#BFBFBF" d="M20.698,76.344c0,0.996,0.12,1.156,0.399,1.156
	c0.319,0,0.399-0.16,0.399-1.156v-0.957c0-0.997-0.08-1.156-0.399-1.156c-0.279,0-0.399,0.159-0.399,1.156V76.344z M19.861,79.733
	v-6.181h0.837v0.279c0.16-0.239,0.399-0.399,0.639-0.399c0.997,0,1.076,0.917,1.076,1.954v0.957c0,1.076-0.079,1.953-1.076,1.953
	c-0.24,0-0.479-0.158-0.639-0.358v1.795H19.861z"/>
<path fill="none" stroke="#BFBFBF" stroke-width="0" stroke-miterlimit="3.863" d="M20.698,76.344c0,0.996,0.12,1.156,0.399,1.156
	c0.319,0,0.399-0.16,0.399-1.156v-0.957c0-0.997-0.08-1.156-0.399-1.156c-0.279,0-0.399,0.159-0.399,1.156V76.344z M19.861,79.733
	v-6.181h0.837v0.279c0.16-0.239,0.399-0.399,0.639-0.399c0.997,0,1.076,0.917,1.076,1.954v0.957c0,1.076-0.079,1.953-1.076,1.953
	c-0.24,0-0.479-0.158-0.639-0.358v1.795H19.861z"/>
<path fill-rule="evenodd" clip-rule="evenodd" fill="#BFBFBF" d="M23.45,71.998v1.555h-0.359v0.797h0.359v2.752
	c0,1.156,0.319,1.037,1.197,1.037V77.34c-0.16,0-0.359,0.08-0.359-0.238V74.35h0.359v-0.797h-0.359v-1.555H23.45z"/>
<path fill="none" stroke="#BFBFBF" stroke-width="0" stroke-miterlimit="3.863" d="M23.45,71.998v1.555h-0.359v0.797h0.359v2.752
	c0,1.156,0.319,1.037,1.197,1.037V77.34c-0.16,0-0.359,0.08-0.359-0.238V74.35h0.359v-0.797h-0.359v-1.555H23.45z"/>
<path fill-rule="evenodd" clip-rule="evenodd" fill="#BFBFBF" d="M26.162,75.228v-0.319c0-0.957,0.838-0.957,0.838,0v0.319H26.162z
	 M25.325,76.304v-0.957c0-1.476,0.398-1.954,1.236-1.954c0.877,0,1.276,0.479,1.276,1.954v0.638h-1.675v0.838
	c0,0.479,0.08,0.639,0.399,0.639c0.359,0,0.439-0.16,0.439-0.639v-0.199h0.837c0,1.116-0.279,1.635-1.276,1.635
	C25.604,78.258,25.325,77.739,25.325,76.304z"/>
<path fill="none" stroke="#BFBFBF" stroke-width="0" stroke-miterlimit="3.863" d="M26.162,75.228v-0.319
	c0-0.957,0.838-0.957,0.838,0v0.319H26.162z M25.325,76.304v-0.957c0-1.476,0.398-1.954,1.236-1.954
	c0.877,0,1.276,0.479,1.276,1.954v0.638h-1.675v0.838c0,0.479,0.08,0.639,0.399,0.639c0.359,0,0.439-0.16,0.439-0.639v-0.199h0.837
	c0,1.116-0.279,1.635-1.276,1.635C25.604,78.258,25.325,77.739,25.325,76.304z"/>
<polygon fill-rule="evenodd" clip-rule="evenodd" fill="#BFBFBF" points="26.202,72.715 26.88,71.559 27.558,71.559 26.601,72.715 
	"/>
<polygon fill="none" stroke="#BFBFBF" stroke-width="0" stroke-miterlimit="3.863" points="26.202,72.715 26.88,71.559 
	27.558,71.559 26.601,72.715 "/>
<path fill-rule="evenodd" clip-rule="evenodd" fill="#BFBFBF" d="M32.742,75.147c0-0.957-0.159-1.755-1.076-1.755h-0.16
	c-0.997,0-1.077,0.918-1.077,1.954v0.957c0,1.036,0.08,1.954,1.077,1.954h0.16c0.957,0,1.076-0.877,1.076-1.875h-0.837
	c0,0.759-0.04,1.078-0.319,1.078c-0.279,0-0.319-0.319-0.319-1.078v-1.076c0-0.797,0.04-1.116,0.319-1.116
	c0.279,0,0.319,0.319,0.319,1.116h0.837V75.147z"/>
<path fill="none" stroke="#BFBFBF" stroke-width="0" stroke-miterlimit="3.863" d="M32.742,75.147c0-0.957-0.159-1.755-1.076-1.755
	h-0.16c-0.997,0-1.077,0.918-1.077,1.954v0.957c0,1.036,0.08,1.954,1.077,1.954h0.16c0.957,0,1.076-0.877,1.076-1.875h-0.837
	c0,0.759-0.04,1.078-0.319,1.078c-0.279,0-0.319-0.319-0.319-1.078v-1.076c0-0.797,0.04-1.116,0.319-1.116
	c0.279,0,0.319,0.319,0.319,1.116h0.837V75.147z"/>
<path fill-rule="evenodd" clip-rule="evenodd" fill="#BFBFBF" d="M33.42,71.998v6.141h0.838v-3.111c0-0.997,0.797-0.997,0.797,0
	v3.111h0.838V74.47c0-0.638-0.318-1.077-0.838-1.077c-0.318,0-0.558,0.16-0.797,0.52v-1.914H33.42z"/>
<path fill="none" stroke="#BFBFBF" stroke-width="0" stroke-miterlimit="3.863" d="M33.42,71.998v6.141h0.838v-3.111
	c0-0.997,0.797-0.997,0.797,0v3.111h0.838V74.47c0-0.638-0.318-1.077-0.838-1.077c-0.318,0-0.558,0.16-0.797,0.52v-1.914H33.42z"/>
<path fill-rule="evenodd" clip-rule="evenodd" fill="#BFBFBF" d="M38.246,75.746v0.957c0,0.398-0.12,0.758-0.439,0.758
	c-0.279,0-0.398-0.279-0.398-0.599C37.408,76.104,37.848,76.145,38.246,75.746z M38.286,77.699c-0.24,0.399-0.479,0.559-0.878,0.559
	c-0.598,0-0.838-0.717-0.838-1.355c0-1.755,1.676-1.316,1.676-2.234c0-0.357-0.12-0.478-0.439-0.478
	c-0.279,0-0.398,0.159-0.398,0.718h-0.797c0-0.918,0.359-1.476,1.236-1.476c0.758,0,1.235,0.278,1.235,1.315v2.793l0.08,0.598
	h-0.798L38.286,77.699z"/>
<path fill="none" stroke="#BFBFBF" stroke-width="0" stroke-miterlimit="3.863" d="M38.246,75.746v0.957
	c0,0.398-0.12,0.758-0.439,0.758c-0.279,0-0.398-0.279-0.398-0.599C37.408,76.104,37.848,76.145,38.246,75.746z M38.286,77.699
	c-0.24,0.399-0.479,0.559-0.878,0.559c-0.598,0-0.838-0.717-0.838-1.355c0-1.755,1.676-1.316,1.676-2.234
	c0-0.357-0.12-0.478-0.439-0.478c-0.279,0-0.398,0.159-0.398,0.718h-0.797c0-0.918,0.359-1.476,1.236-1.476
	c0.758,0,1.235,0.278,1.235,1.315v2.793l0.08,0.598h-0.798L38.286,77.699z"/>
<path fill-rule="evenodd" clip-rule="evenodd" fill="#BFBFBF" d="M39.841,78.139v-4.586h0.839v0.478
	c0.158-0.358,0.518-0.638,0.836-0.638v1.275c-0.479,0-0.836,0.121-0.836,0.838v2.633H39.841z"/>
<path fill="none" stroke="#BFBFBF" stroke-width="0" stroke-miterlimit="3.863" d="M39.841,78.139v-4.586h0.839v0.478
	c0.158-0.358,0.518-0.638,0.836-0.638v1.275c-0.479,0-0.836,0.121-0.836,0.838v2.633H39.841z"/>
<path fill-rule="evenodd" clip-rule="evenodd" fill="#BFBFBF" d="M43.51,74.23c-0.318,0-0.398,0.159-0.398,1.156v0.957
	c0,0.996,0.08,1.156,0.398,1.156c0.279,0,0.399-0.16,0.399-1.156v-0.957C43.909,74.39,43.789,74.23,43.51,74.23z M44.746,73.553
	h-0.837v0.199c-0.16-0.159-0.399-0.319-0.638-0.319c-0.998,0-1.078,0.917-1.078,1.954v0.957c0,1.076,0.08,1.953,1.078,1.953
	c0.238,0,0.478-0.118,0.638-0.318c0,0.838-0.08,1.037-0.438,1.037c-0.199,0-0.32-0.08-0.32-0.279h-0.877
	c0,0.797,0.199,1.077,1.197,1.077c0.957,0,1.275-0.399,1.275-1.196V73.553z"/>
<path fill="none" stroke="#BFBFBF" stroke-width="0" stroke-miterlimit="3.863" d="M43.51,74.23c-0.318,0-0.398,0.159-0.398,1.156
	v0.957c0,0.996,0.08,1.156,0.398,1.156c0.279,0,0.399-0.16,0.399-1.156v-0.957C43.909,74.39,43.789,74.23,43.51,74.23z
	 M44.746,73.553h-0.837v0.199c-0.16-0.159-0.399-0.319-0.638-0.319c-0.998,0-1.078,0.917-1.078,1.954v0.957
	c0,1.076,0.08,1.953,1.078,1.953c0.238,0,0.478-0.118,0.638-0.318c0,0.838-0.08,1.037-0.438,1.037c-0.199,0-0.32-0.08-0.32-0.279
	h-0.877c0,0.797,0.199,1.077,1.197,1.077c0.957,0,1.275-0.399,1.275-1.196V73.553z"/>
<path fill-rule="evenodd" clip-rule="evenodd" fill="#BFBFBF" d="M46.262,75.228v-0.319c0-0.957,0.877-0.957,0.877,0v0.319H46.262z
	 M45.424,76.304v-0.957c0-1.476,0.439-1.954,1.276-1.954c0.878,0,1.276,0.479,1.276,1.954v0.638h-1.715v0.838
	c0,0.479,0.08,0.639,0.438,0.639s0.438-0.16,0.438-0.639v-0.199h0.838c0,1.116-0.279,1.635-1.276,1.635S45.424,77.739,45.424,76.304
	z"/>
<path fill="none" stroke="#BFBFBF" stroke-width="0" stroke-miterlimit="3.863" d="M46.262,75.228v-0.319
	c0-0.957,0.877-0.957,0.877,0v0.319H46.262z M45.424,76.304v-0.957c0-1.476,0.439-1.954,1.276-1.954
	c0.878,0,1.276,0.479,1.276,1.954v0.638h-1.715v0.838c0,0.479,0.08,0.639,0.438,0.639s0.438-0.16,0.438-0.639v-0.199h0.838
	c0,1.116-0.279,1.635-1.276,1.635S45.424,77.739,45.424,76.304z"/>
<path fill-rule="evenodd" clip-rule="evenodd" fill="#BFBFBF" d="M48.655,78.139v-4.586h0.837v0.478
	c0.16-0.358,0.52-0.638,0.838-0.638s0.717,0.2,0.797,0.638c0.16-0.358,0.52-0.638,0.838-0.638c0.559,0,0.917,0.398,0.917,1.156v3.59
	h-0.838v-3.23c0-0.798-0.837-0.798-0.837,0v3.23h-0.838v-3.23c0-0.798-0.877-0.798-0.877,0v3.23H48.655z"/>
<path fill="none" stroke="#BFBFBF" stroke-width="0" stroke-miterlimit="3.863" d="M48.655,78.139v-4.586h0.837v0.478
	c0.16-0.358,0.52-0.638,0.838-0.638s0.717,0.2,0.797,0.638c0.16-0.358,0.52-0.638,0.838-0.638c0.559,0,0.917,0.398,0.917,1.156v3.59
	h-0.838v-3.23c0-0.798-0.837-0.798-0.837,0v3.23h-0.838v-3.23c0-0.798-0.877-0.798-0.877,0v3.23H48.655z"/>
<path fill-rule="evenodd" clip-rule="evenodd" fill="#BFBFBF" d="M54.396,75.228v-0.319c0-0.957,0.838-0.957,0.838,0v0.319H54.396z
	 M53.561,76.304v-0.957c0-1.476,0.398-1.954,1.235-1.954c0.878,0,1.276,0.479,1.276,1.954v0.638h-1.676v0.838
	c0,0.479,0.08,0.639,0.399,0.639c0.359,0,0.438-0.16,0.438-0.639v-0.199h0.838c0,1.116-0.279,1.635-1.276,1.635
	C53.839,78.258,53.561,77.739,53.561,76.304z"/>
<path fill="none" stroke="#BFBFBF" stroke-width="0" stroke-miterlimit="3.863" d="M54.396,75.228v-0.319
	c0-0.957,0.838-0.957,0.838,0v0.319H54.396z M53.561,76.304v-0.957c0-1.476,0.398-1.954,1.235-1.954
	c0.878,0,1.276,0.479,1.276,1.954v0.638h-1.676v0.838c0,0.479,0.08,0.639,0.399,0.639c0.359,0,0.438-0.16,0.438-0.639v-0.199h0.838
	c0,1.116-0.279,1.635-1.276,1.635C53.839,78.258,53.561,77.739,53.561,76.304z"/>
<path fill-rule="evenodd" clip-rule="evenodd" fill="#BFBFBF" d="M56.75,78.139v-4.586h0.838v0.478
	c0.159-0.358,0.518-0.638,0.837-0.638c0.56,0,0.918,0.398,0.918,1.156v3.59h-0.838v-3.23c0-0.798-0.917-0.798-0.917,0v3.23H56.75z"
	/>
<path fill="none" stroke="#BFBFBF" stroke-width="0" stroke-miterlimit="3.863" d="M56.75,78.139v-4.586h0.838v0.478
	c0.159-0.358,0.518-0.638,0.837-0.638c0.56,0,0.918,0.398,0.918,1.156v3.59h-0.838v-3.23c0-0.798-0.917-0.798-0.917,0v3.23H56.75z"
	/>
<path fill-rule="evenodd" clip-rule="evenodd" fill="#BFBFBF" d="M60.379,71.998v1.555h-0.357v0.797h0.357v2.752
	c0,1.156,0.32,1.037,1.197,1.037V77.34c-0.16,0-0.359,0.08-0.359-0.238V74.35h0.359v-0.797h-0.359v-1.555H60.379z"/>
<path fill="none" stroke="#BFBFBF" stroke-width="0" stroke-miterlimit="3.863" d="M60.379,71.998v1.555h-0.357v0.797h0.357v2.752
	c0,1.156,0.32,1.037,1.197,1.037V77.34c-0.16,0-0.359,0.08-0.359-0.238V74.35h0.359v-0.797h-0.359v-1.555H60.379z"/>
<path fill-rule="evenodd" clip-rule="evenodd" fill="#BFBFBF" d="M12.682,83.602v-0.318c0-0.957,0.838-0.957,0.838,0v0.318H12.682z
	 M11.845,84.717v-0.956c0-1.476,0.399-1.994,1.236-1.994c0.878,0,1.276,0.519,1.276,1.994v0.638h-1.675v0.838
	c0,0.479,0.08,0.639,0.399,0.639c0.359,0,0.439-0.16,0.439-0.639v-0.238h0.837c0,1.155-0.279,1.674-1.276,1.674
	C12.124,86.672,11.845,86.113,11.845,84.717z"/>
<path fill="none" stroke="#BFBFBF" stroke-width="0" stroke-miterlimit="3.863" d="M12.682,83.602v-0.318
	c0-0.957,0.838-0.957,0.838,0v0.318H12.682z M11.845,84.717v-0.956c0-1.476,0.399-1.994,1.236-1.994
	c0.878,0,1.276,0.519,1.276,1.994v0.638h-1.675v0.838c0,0.479,0.08,0.639,0.399,0.639c0.359,0,0.439-0.16,0.439-0.639v-0.238h0.837
	c0,1.155-0.279,1.674-1.276,1.674C12.124,86.672,11.845,86.113,11.845,84.717z"/>
<path fill-rule="evenodd" clip-rule="evenodd" fill="#BFBFBF" d="M15.354,80.371v1.596h-0.358v0.797h0.358v2.712
	c0,1.196,0.319,1.077,1.197,1.077v-0.799c-0.16,0-0.359,0.041-0.359-0.278v-2.712h0.359v-0.797h-0.359v-1.596H15.354z"/>
<path fill="none" stroke="#BFBFBF" stroke-width="0" stroke-miterlimit="3.863" d="M15.354,80.371v1.596h-0.358v0.797h0.358v2.712
	c0,1.196,0.319,1.077,1.197,1.077v-0.799c-0.16,0-0.359,0.041-0.359-0.278v-2.712h0.359v-0.797h-0.359v-1.596H15.354z"/>
<path fill-rule="evenodd" clip-rule="evenodd" fill="#BFBFBF" d="M20.858,83.761v0.956c0,0.998-0.08,1.158-0.399,1.158
	c-0.279,0-0.399-0.16-0.399-1.158v-0.956c0-0.997,0.12-1.196,0.399-1.196C20.778,82.564,20.858,82.764,20.858,83.761z
	 M21.735,80.371v6.182h-0.877v-0.2c-0.12,0.16-0.359,0.319-0.598,0.319c-1.037,0-1.117-0.918-1.117-1.955v-0.956
	c0-1.076,0.08-1.994,1.117-1.994c0.239,0,0.478,0.16,0.598,0.319v-1.715H21.735z"/>
<path fill="none" stroke="#BFBFBF" stroke-width="0" stroke-miterlimit="3.863" d="M20.858,83.761v0.956
	c0,0.998-0.08,1.158-0.399,1.158c-0.279,0-0.399-0.16-0.399-1.158v-0.956c0-0.997,0.12-1.196,0.399-1.196
	C20.778,82.564,20.858,82.764,20.858,83.761z M21.735,80.371v6.182h-0.877v-0.2c-0.12,0.16-0.359,0.319-0.598,0.319
	c-1.037,0-1.117-0.918-1.117-1.955v-0.956c0-1.076,0.08-1.994,1.117-1.994c0.239,0,0.478,0.16,0.598,0.319v-1.715H21.735z"/>
<path fill-rule="evenodd" clip-rule="evenodd" fill="#BFBFBF" d="M23.251,83.602v-0.318c0-0.957,0.837-0.957,0.837,0v0.318H23.251z
	 M22.413,84.717v-0.956c0-1.476,0.399-1.994,1.237-1.994c0.877,0,1.276,0.519,1.276,1.994v0.638h-1.675v0.838
	c0,0.479,0.08,0.639,0.399,0.639c0.359,0,0.438-0.16,0.438-0.639v-0.238h0.838c0,1.155-0.279,1.674-1.276,1.674
	C22.692,86.672,22.413,86.113,22.413,84.717z"/>
<path fill="none" stroke="#BFBFBF" stroke-width="0" stroke-miterlimit="3.863" d="M23.251,83.602v-0.318
	c0-0.957,0.837-0.957,0.837,0v0.318H23.251z M22.413,84.717v-0.956c0-1.476,0.399-1.994,1.237-1.994
	c0.877,0,1.276,0.519,1.276,1.994v0.638h-1.675v0.838c0,0.479,0.08,0.639,0.399,0.639c0.359,0,0.438-0.16,0.438-0.639v-0.238h0.838
	c0,1.155-0.279,1.674-1.276,1.674C22.692,86.672,22.413,86.113,22.413,84.717z"/>
<polygon fill-rule="evenodd" clip-rule="evenodd" fill="#BFBFBF" points="23.291,81.09 23.969,79.933 24.647,79.933 23.689,81.09 
	"/>
<polygon fill="none" stroke="#BFBFBF" stroke-width="0" stroke-miterlimit="3.863" points="23.291,81.09 23.969,79.933 
	24.647,79.933 23.689,81.09 "/>
<path fill-rule="evenodd" clip-rule="evenodd" fill="#BFBFBF" d="M27.917,83.521c0-0.957-0.16-1.755-1.077-1.755h-0.16
	c-0.997,0-1.076,0.918-1.076,1.994v0.956c0,1.037,0.079,1.955,1.076,1.955h0.16c0.957,0,1.077-0.877,1.077-1.914h-0.838
	c0,0.758-0.04,1.117-0.319,1.117c-0.279,0-0.319-0.359-0.319-1.117v-1.076c0-0.758,0.04-1.117,0.319-1.117
	c0.279,0,0.319,0.359,0.319,1.117h0.838V83.521z"/>
<path fill="none" stroke="#BFBFBF" stroke-width="0" stroke-miterlimit="3.863" d="M27.917,83.521c0-0.957-0.16-1.755-1.077-1.755
	h-0.16c-0.997,0-1.076,0.918-1.076,1.994v0.956c0,1.037,0.079,1.955,1.076,1.955h0.16c0.957,0,1.077-0.877,1.077-1.914h-0.838
	c0,0.758-0.04,1.117-0.319,1.117c-0.279,0-0.319-0.359-0.319-1.117v-1.076c0-0.758,0.04-1.117,0.319-1.117
	c0.279,0,0.319,0.359,0.319,1.117h0.838V83.521z"/>
<path fill-rule="evenodd" clip-rule="evenodd" fill="#BFBFBF" d="M28.595,80.371v6.182h0.837v-3.151c0-0.957,0.798-0.957,0.798,0
	v3.151h0.837v-3.67c0-0.678-0.319-1.116-0.837-1.116c-0.319,0-0.558,0.16-0.798,0.519v-1.914H28.595z"/>
<path fill="none" stroke="#BFBFBF" stroke-width="0" stroke-miterlimit="3.863" d="M28.595,80.371v6.182h0.837v-3.151
	c0-0.957,0.798-0.957,0.798,0v3.151h0.837v-3.67c0-0.678-0.319-1.116-0.837-1.116c-0.319,0-0.558,0.16-0.798,0.519v-1.914H28.595z"
	/>
<path fill-rule="evenodd" clip-rule="evenodd" fill="#BFBFBF" d="M33.42,84.119v0.998c0,0.358-0.119,0.758-0.438,0.758
	c-0.28,0-0.399-0.279-0.399-0.599C32.583,84.519,33.021,84.519,33.42,84.119z M33.46,86.113c-0.239,0.399-0.478,0.559-0.877,0.559
	c-0.598,0-0.838-0.717-0.838-1.396c0-1.715,1.675-1.315,1.675-2.194c0-0.357-0.119-0.518-0.438-0.518
	c-0.28,0-0.399,0.199-0.399,0.758h-0.798c0-0.957,0.359-1.516,1.236-1.516c0.758,0,1.237,0.279,1.237,1.355v2.752l0.08,0.639H33.54
	L33.46,86.113z"/>
<path fill="none" stroke="#BFBFBF" stroke-width="0" stroke-miterlimit="3.863" d="M33.42,84.119v0.998
	c0,0.358-0.119,0.758-0.438,0.758c-0.28,0-0.399-0.279-0.399-0.599C32.583,84.519,33.021,84.519,33.42,84.119z M33.46,86.113
	c-0.239,0.399-0.478,0.559-0.877,0.559c-0.598,0-0.838-0.717-0.838-1.396c0-1.715,1.675-1.315,1.675-2.194
	c0-0.357-0.119-0.518-0.438-0.518c-0.28,0-0.399,0.199-0.399,0.758h-0.798c0-0.957,0.359-1.516,1.236-1.516
	c0.758,0,1.237,0.279,1.237,1.355v2.752l0.08,0.639H33.54L33.46,86.113z"/>
<path fill-rule="evenodd" clip-rule="evenodd" fill="#BFBFBF" d="M35.016,86.553v-4.586h0.838v0.438
	c0.16-0.358,0.518-0.639,0.836-0.639v1.315c-0.478,0-0.836,0.08-0.836,0.799v2.672H35.016z"/>
<path fill="none" stroke="#BFBFBF" stroke-width="0" stroke-miterlimit="3.863" d="M35.016,86.553v-4.586h0.838v0.438
	c0.16-0.358,0.518-0.639,0.836-0.639v1.315c-0.478,0-0.836,0.08-0.836,0.799v2.672H35.016z"/>
<path fill-rule="evenodd" clip-rule="evenodd" fill="#BFBFBF" d="M38.686,82.645c-0.32,0-0.399,0.159-0.399,1.156v0.957
	c0,0.996,0.079,1.156,0.399,1.156c0.278,0,0.397-0.16,0.397-1.156v-0.957C39.083,82.804,38.964,82.645,38.686,82.645z
	 M39.921,81.967h-0.838v0.199c-0.159-0.199-0.397-0.319-0.638-0.319c-0.997,0-1.077,0.878-1.077,1.954v0.957
	c0,1.037,0.08,1.953,1.077,1.953c0.24,0,0.479-0.158,0.638-0.318c0,0.838-0.079,1.037-0.438,1.037c-0.199,0-0.318-0.08-0.318-0.279
	h-0.878c0,0.797,0.2,1.077,1.196,1.077c0.957,0,1.276-0.399,1.276-1.197V81.967z"/>
<path fill="none" stroke="#BFBFBF" stroke-width="0" stroke-miterlimit="3.863" d="M38.686,82.645c-0.32,0-0.399,0.159-0.399,1.156
	v0.957c0,0.996,0.079,1.156,0.399,1.156c0.278,0,0.397-0.16,0.397-1.156v-0.957C39.083,82.804,38.964,82.645,38.686,82.645z
	 M39.921,81.967h-0.838v0.199c-0.159-0.199-0.397-0.319-0.638-0.319c-0.997,0-1.077,0.878-1.077,1.954v0.957
	c0,1.037,0.08,1.953,1.077,1.953c0.24,0,0.479-0.158,0.638-0.318c0,0.838-0.079,1.037-0.438,1.037c-0.199,0-0.318-0.08-0.318-0.279
	h-0.878c0,0.797,0.2,1.077,1.196,1.077c0.957,0,1.276-0.399,1.276-1.197V81.967z"/>
<path fill-rule="evenodd" clip-rule="evenodd" fill="#BFBFBF" d="M41.436,83.602v-0.318c0-0.957,0.838-0.957,0.838,0v0.318H41.436z
	 M40.6,84.717v-0.956c0-1.476,0.398-1.994,1.235-1.994c0.877,0,1.276,0.519,1.276,1.994v0.638h-1.676v0.838
	c0,0.479,0.08,0.639,0.399,0.639c0.358,0,0.438-0.16,0.438-0.639v-0.238h0.838c0,1.155-0.279,1.674-1.276,1.674
	C40.878,86.672,40.6,86.113,40.6,84.717z"/>
<path fill="none" stroke="#BFBFBF" stroke-width="0" stroke-miterlimit="3.863" d="M41.436,83.602v-0.318
	c0-0.957,0.838-0.957,0.838,0v0.318H41.436z M40.6,84.717v-0.956c0-1.476,0.398-1.994,1.235-1.994c0.877,0,1.276,0.519,1.276,1.994
	v0.638h-1.676v0.838c0,0.479,0.08,0.639,0.399,0.639c0.358,0,0.438-0.16,0.438-0.639v-0.238h0.838c0,1.155-0.279,1.674-1.276,1.674
	C40.878,86.672,40.6,86.113,40.6,84.717z"/>
<path fill-rule="evenodd" clip-rule="evenodd" fill="#BFBFBF" d="M43.789,86.553v-4.586h0.838v0.438
	c0.159-0.358,0.518-0.639,0.837-0.639s0.759,0.2,0.839,0.639c0.118-0.358,0.478-0.639,0.797-0.639c0.598,0,0.957,0.438,0.957,1.157
	v3.629h-0.838v-3.27c0-0.799-0.838-0.799-0.838,0v3.27h-0.837v-3.27c0-0.799-0.917-0.799-0.917,0v3.27H43.789z"/>
<path fill="none" stroke="#BFBFBF" stroke-width="0" stroke-miterlimit="3.863" d="M43.789,86.553v-4.586h0.838v0.438
	c0.159-0.358,0.518-0.639,0.837-0.639s0.759,0.2,0.839,0.639c0.118-0.358,0.478-0.639,0.797-0.639c0.598,0,0.957,0.438,0.957,1.157
	v3.629h-0.838v-3.27c0-0.799-0.838-0.799-0.838,0v3.27h-0.837v-3.27c0-0.799-0.917-0.799-0.917,0v3.27H43.789z"/>
<path fill-rule="evenodd" clip-rule="evenodd" fill="#BFBFBF" d="M49.572,83.602v-0.318c0-0.957,0.837-0.957,0.837,0v0.318H49.572z
	 M48.734,84.717v-0.956c0-1.476,0.398-1.994,1.236-1.994c0.877,0,1.276,0.519,1.276,1.994v0.638h-1.675v0.838
	c0,0.479,0.08,0.639,0.398,0.639c0.359,0,0.438-0.16,0.438-0.639v-0.238h0.838c0,1.155-0.279,1.674-1.276,1.674
	C49.014,86.672,48.734,86.113,48.734,84.717z"/>
<path fill="none" stroke="#BFBFBF" stroke-width="0" stroke-miterlimit="3.863" d="M49.572,83.602v-0.318
	c0-0.957,0.837-0.957,0.837,0v0.318H49.572z M48.734,84.717v-0.956c0-1.476,0.398-1.994,1.236-1.994
	c0.877,0,1.276,0.519,1.276,1.994v0.638h-1.675v0.838c0,0.479,0.08,0.639,0.398,0.639c0.359,0,0.438-0.16,0.438-0.639v-0.238h0.838
	c0,1.155-0.279,1.674-1.276,1.674C49.014,86.672,48.734,86.113,48.734,84.717z"/>
<path fill-rule="evenodd" clip-rule="evenodd" fill="#BFBFBF" d="M51.925,86.553v-4.586h0.837v0.438
	c0.16-0.358,0.52-0.639,0.838-0.639c0.559,0,0.918,0.438,0.918,1.157v3.629H53.68v-3.27c0-0.799-0.918-0.799-0.918,0v3.27H51.925z"
	/>
<path fill="none" stroke="#BFBFBF" stroke-width="0" stroke-miterlimit="3.863" d="M51.925,86.553v-4.586h0.837v0.438
	c0.16-0.358,0.52-0.639,0.838-0.639c0.559,0,0.918,0.438,0.918,1.157v3.629H53.68v-3.27c0-0.799-0.918-0.799-0.918,0v3.27H51.925z"
	/>
<path fill-rule="evenodd" clip-rule="evenodd" fill="#BFBFBF" d="M55.555,80.371v1.596h-0.359v0.797h0.359v2.712
	c0,1.196,0.318,1.077,1.195,1.077v-0.799c-0.159,0-0.359,0.041-0.359-0.278v-2.712h0.359v-0.797h-0.359v-1.596H55.555z"/>
<path fill="none" stroke="#BFBFBF" stroke-width="0" stroke-miterlimit="3.863" d="M55.555,80.371v1.596h-0.359v0.797h0.359v2.712
	c0,1.196,0.318,1.077,1.195,1.077v-0.799c-0.159,0-0.359,0.041-0.359-0.278v-2.712h0.359v-0.797h-0.359v-1.596H55.555z"/>
<path fill-rule="evenodd" clip-rule="evenodd" fill="#BFBFBF" d="M22.254,92.135v0.957c0,0.996-0.12,1.156-0.399,1.156
	c-0.319,0-0.399-0.16-0.399-1.156v-0.957c0-0.996,0.08-1.156,0.399-1.156C22.134,90.979,22.254,91.139,22.254,92.135z
	 M23.091,88.785v6.142h-0.837v-0.2c-0.16,0.16-0.399,0.32-0.638,0.32c-0.997,0-1.077-0.918-1.077-1.955v-0.957
	c0-1.036,0.08-1.953,1.077-1.953c0.239,0,0.478,0.158,0.638,0.318v-1.715H23.091z"/>
<path fill="none" stroke="#BFBFBF" stroke-width="0" stroke-miterlimit="3.863" d="M22.254,92.135v0.957
	c0,0.996-0.12,1.156-0.399,1.156c-0.319,0-0.399-0.16-0.399-1.156v-0.957c0-0.996,0.08-1.156,0.399-1.156
	C22.134,90.979,22.254,91.139,22.254,92.135z M23.091,88.785v6.142h-0.837v-0.2c-0.16,0.16-0.399,0.32-0.638,0.32
	c-0.997,0-1.077-0.918-1.077-1.955v-0.957c0-1.036,0.08-1.953,1.077-1.953c0.239,0,0.478,0.158,0.638,0.318v-1.715H23.091z"/>
<path fill-rule="evenodd" clip-rule="evenodd" fill="#BFBFBF" d="M24.607,92.016v-0.319c0-0.957,0.837-0.957,0.837,0v0.319H24.607z
	 M23.769,93.092v-0.957c0-1.475,0.399-1.953,1.237-1.953c0.877,0,1.276,0.479,1.276,1.953v0.639h-1.675v0.837
	c0,0.478,0.079,0.638,0.399,0.638c0.358,0,0.438-0.16,0.438-0.638v-0.198h0.838c0,1.115-0.279,1.635-1.276,1.635
	C24.048,95.047,23.769,94.527,23.769,93.092z"/>
<path fill="none" stroke="#BFBFBF" stroke-width="0" stroke-miterlimit="3.863" d="M24.607,92.016v-0.319
	c0-0.957,0.837-0.957,0.837,0v0.319H24.607z M23.769,93.092v-0.957c0-1.475,0.399-1.953,1.237-1.953
	c0.877,0,1.276,0.479,1.276,1.953v0.639h-1.675v0.837c0,0.478,0.079,0.638,0.399,0.638c0.358,0,0.438-0.16,0.438-0.638v-0.198h0.838
	c0,1.115-0.279,1.635-1.276,1.635C24.048,95.047,23.769,94.527,23.769,93.092z"/>
<path fill-rule="evenodd" clip-rule="evenodd" fill="#BFBFBF" d="M36.292,92.533v0.957c0,0.399-0.12,0.758-0.438,0.758
	c-0.279,0-0.399-0.278-0.399-0.598C35.454,92.893,35.893,92.933,36.292,92.533z M36.332,94.487c-0.24,0.399-0.479,0.56-0.878,0.56
	c-0.599,0-0.837-0.719-0.837-1.356c0-1.755,1.675-1.315,1.675-2.233c0-0.358-0.12-0.479-0.438-0.479
	c-0.279,0-0.399,0.16-0.399,0.718h-0.797c0-0.917,0.358-1.476,1.235-1.476c0.758,0,1.236,0.279,1.236,1.316v2.791l0.08,0.599h-0.798
	L36.332,94.487z"/>
<path fill="none" stroke="#BFBFBF" stroke-width="0" stroke-miterlimit="3.863" d="M36.292,92.533v0.957
	c0,0.399-0.12,0.758-0.438,0.758c-0.279,0-0.399-0.278-0.399-0.598C35.454,92.893,35.893,92.933,36.292,92.533z M36.332,94.487
	c-0.24,0.399-0.479,0.56-0.878,0.56c-0.599,0-0.837-0.719-0.837-1.356c0-1.755,1.675-1.315,1.675-2.233
	c0-0.358-0.12-0.479-0.438-0.479c-0.279,0-0.399,0.16-0.399,0.718h-0.797c0-0.917,0.358-1.476,1.235-1.476
	c0.758,0,1.236,0.279,1.236,1.316v2.791l0.08,0.599h-0.798L36.332,94.487z"/>
<polygon fill-rule="evenodd" clip-rule="evenodd" fill="#BFBFBF" points="36.092,89.504 35.135,88.347 35.813,88.347 36.491,89.504 
	"/>
<polygon fill="none" stroke="#BFBFBF" stroke-width="0" stroke-miterlimit="3.863" points="36.092,89.504 35.135,88.347 
	35.813,88.347 36.491,89.504 "/>
<path fill-rule="evenodd" clip-rule="evenodd" fill="#BFBFBF" d="M45.544,88.785v6.142h0.877v-3.111c0-0.996,0.759-0.996,0.759,0
	v3.111h0.877v-3.669c0-0.639-0.32-1.076-0.877-1.076c-0.279,0-0.559,0.158-0.759,0.518v-1.914H45.544z"/>
<path fill="none" stroke="#BFBFBF" stroke-width="0" stroke-miterlimit="3.863" d="M45.544,88.785v6.142h0.877v-3.111
	c0-0.996,0.759-0.996,0.759,0v3.111h0.877v-3.669c0-0.639-0.32-1.076-0.877-1.076c-0.279,0-0.559,0.158-0.759,0.518v-1.914H45.544z"
	/>
<path fill="none" stroke="#1A1A1A" stroke-width="0.199" stroke-miterlimit="3.863" d="M17.109,66.853 M51.087,66.853H17.109v-45.26
	h33.978V66.853z"/>
<path fill="#BFBFBF" d="M36.73,42.887l-4.945-8.055c-0.718-0.917-2.233-1.994-3.469-1.794v-1.436
	c0.877-0.438,1.475-1.276,1.475-2.392c0-1.356-1.116-2.592-2.512-2.592c-1.356,0-2.473,1.236-2.473,2.592
	c0,1.196,0.758,2.113,1.755,2.472v1.196c-1.396,0-4.786,0.957-4.786,4.546v7.537c0,0.598,0.479,1.117,1.077,1.117
	s1.077-0.519,1.077-1.117v-6.938c0-0.28,0.199-0.479,0.438-0.479c0.28,0,0.439,0.199,0.439,0.479v20.058
	c0,0.638,0.519,1.156,1.117,1.156c0.598,0,1.077-0.518,1.077-1.156V47.233c0-0.439,0.279-0.718,0.717-0.718
	c0.399,0,0.638,0.279,0.638,0.718v13.359c0,0.598,0.519,1.196,1.117,1.196c0.638,0,1.117-0.598,1.117-1.196V37.265l4.106,6.739
	c0.359,0.598,0.799,0.518,1.238,0.399c0.398,1.356,0.598,2.233,1.515,2.233l2.832,0.159l-2.034,6.899h1.635v5.025
	c0,0.319,0.319,0.638,0.678,0.638c0.359,0,0.678-0.319,0.678-0.638v-5.105h0.918v4.108c0,0.359,0.318,0.717,0.758,0.717
	c0.398,0,0.678-0.358,0.678-0.717v-4.028h1.555l-1.436-5.702l1.915,2.153c0.159,0.16,0.399,0.16,0.558,0
	c0.199-0.159,0.279-0.359,0.08-0.718l-2.473-2.951c-0.518-0.558-0.837-0.957-1.475-1.036c-0.2-0.2-0.16-0.399-0.08-0.599
	c0.598-0.319,0.996-0.957,0.996-1.674c0-1.077-0.838-1.835-1.795-1.835c-0.996,0-1.754,0.758-1.754,1.835
	c0,0.797,0.519,1.475,1.236,1.714c0.04,0.28,0.08,0.598-0.2,0.798h-2.392c-0.439,0-0.6-0.08-0.878-0.399
	c-0.239-0.439-0.558-1.077-0.558-1.396c0-0.279-0.08-0.239-0.201-0.319C36.85,43.365,36.891,43.246,36.73,42.887z"/>
<path fill="none" stroke="#BFBFBF" stroke-width="0.199" stroke-miterlimit="3.863" d="M36.73,42.887l-4.945-8.055
	c-0.718-0.917-2.233-1.994-3.469-1.794v-1.436c0.877-0.438,1.475-1.276,1.475-2.392c0-1.356-1.116-2.592-2.512-2.592
	c-1.356,0-2.473,1.236-2.473,2.592c0,1.196,0.758,2.113,1.755,2.472v1.196c-1.396,0-4.786,0.957-4.786,4.546v7.537
	c0,0.598,0.479,1.117,1.077,1.117s1.077-0.519,1.077-1.117v-6.938c0-0.28,0.199-0.479,0.438-0.479c0.28,0,0.439,0.199,0.439,0.479
	v20.058c0,0.638,0.519,1.156,1.117,1.156c0.598,0,1.077-0.518,1.077-1.156V47.233c0-0.439,0.279-0.718,0.717-0.718
	c0.399,0,0.638,0.279,0.638,0.718v13.359c0,0.598,0.519,1.196,1.117,1.196c0.638,0,1.117-0.598,1.117-1.196V37.265l4.106,6.739
	c0.359,0.598,0.799,0.518,1.238,0.399c0.398,1.356,0.598,2.233,1.515,2.233l2.832,0.159l-2.034,6.899h1.635v5.025
	c0,0.319,0.319,0.638,0.678,0.638c0.359,0,0.678-0.319,0.678-0.638v-5.105h0.918v4.108c0,0.359,0.318,0.717,0.758,0.717
	c0.398,0,0.678-0.358,0.678-0.717v-4.028h1.555l-1.436-5.702l1.915,2.153c0.159,0.16,0.399,0.16,0.558,0
	c0.199-0.159,0.279-0.359,0.08-0.718l-2.473-2.951c-0.518-0.558-0.837-0.957-1.475-1.036c-0.2-0.2-0.16-0.399-0.08-0.599
	c0.598-0.319,0.996-0.957,0.996-1.674c0-1.077-0.838-1.835-1.795-1.835c-0.996,0-1.754,0.758-1.754,1.835
	c0,0.797,0.519,1.475,1.236,1.714c0.04,0.28,0.08,0.598-0.2,0.798h-2.392c-0.439,0-0.6-0.08-0.878-0.399
	c-0.239-0.439-0.558-1.077-0.558-1.396c0-0.279-0.08-0.239-0.201-0.319C36.85,43.365,36.891,43.246,36.73,42.887z"/>
<path d="M5.105,124.355L68.116,5.284c0-2.832-2.273-5.065-5.104-5.065L0,119.172C0,121.963,2.314,124.355,5.105,124.355z"/>
<path fill="none" stroke="#000000" stroke-width="0" stroke-miterlimit="3.863" d="M5.105,124.355L68.116,5.284
	c0-2.832-2.273-5.065-5.104-5.065L0,119.172C0,121.963,2.314,124.355,5.105,124.355z"/>
</svg>
