<?xml version="1.0" encoding="utf-8"?>
<!-- Generator: Adobe Illustrator 14.0.0, SVG Export Plug-In . SVG Version: 6.00 Build 43363)  -->
<!DOCTYPE svg PUBLIC "-//W3C//DTD SVG 1.1//EN" "http://www.w3.org/Graphics/SVG/1.1/DTD/svg11.dtd">
<svg version="1.1" id="Calque_1" xmlns="http://www.w3.org/2000/svg" xmlns:xlink="http://www.w3.org/1999/xlink" x="0px" y="0px"
	 width="79.284px" height="79.363px" viewBox="0 0 79.284 79.363" enable-background="new 0 0 79.284 79.363" xml:space="preserve">
<path fill="#0071B3" d="M5.959,0.1h67.405c3.229,0.04,5.82,2.631,5.82,5.859v67.525c0,3.189-2.592,5.779-5.781,5.779H5.919
	c-3.229,0-5.82-2.59-5.82-5.739V5.958c0-3.228,2.591-5.819,5.82-5.819L5.959,0.1z"/>
<path fill="none" stroke="#0071B3" stroke-width="0.199" stroke-miterlimit="3.863" d="M5.959,0.1h67.405
	c3.229,0.04,5.82,2.631,5.82,5.859v67.525c0,3.189-2.592,5.779-5.781,5.779H5.919c-3.229,0-5.82-2.59-5.82-5.739V5.958
	c0-3.228,2.591-5.819,5.82-5.819L5.959,0.1z"/>
<path fill="#FFFFFF" d="M5.919,1.535l67.445,0.04c2.392,0,4.385,1.953,4.385,4.384v67.565c0,2.391-1.993,4.385-4.385,4.385
	l-67.764-0.12c-2.272,0-4.026-1.834-4.026-4.066L1.496,5.918C1.496,3.528,3.488,1.535,5.919,1.535z"/>
<path fill="none" stroke="#FFFFFF" stroke-width="0.199" stroke-miterlimit="3.863" d="M5.919,1.535l67.445,0.04
	c2.392,0,4.385,1.953,4.385,4.384v67.565c0,2.391-1.993,4.385-4.385,4.385l-67.764-0.12c-2.272,0-4.026-1.834-4.026-4.066
	L1.496,5.918C1.496,3.528,3.488,1.535,5.919,1.535z"/>
<path fill="#0071B3" d="M5.919,2.85l67.445,0.04c1.674,0,3.068,1.395,3.068,3.069v67.565c0,1.674-1.395,3.069-3.068,3.069H5.919
	c-1.674,0-3.069-1.396-3.069-3.069V5.918C2.851,4.245,4.246,2.85,5.919,2.85z"/>
<path fill="none" stroke="#0071B3" stroke-width="0.199" stroke-miterlimit="3.863" d="M5.919,2.85l67.445,0.04
	c1.674,0,3.068,1.395,3.068,3.069v67.565c0,1.674-1.395,3.069-3.068,3.069H5.919c-1.674,0-3.069-1.396-3.069-3.069V5.918
	C2.851,4.245,4.246,2.85,5.919,2.85z"/>
<polygon fill-rule="evenodd" clip-rule="evenodd" fill="#FFFFFF" points="8.55,66.628 39.643,12.775 70.734,66.628 "/>
<polygon fill="none" stroke="#FFFFFF" stroke-width="0" stroke-miterlimit="3.863" points="8.55,66.628 39.643,12.775 
	70.734,66.628 "/>
<path fill="#120C0E" d="M56.383,59.692l6.498-0.04l-0.04,3.468H16.522v-3.468h6.458c2.949,0,5.62-1.436,7.254-3.667
	c2.153-2.83,5.581-4.664,9.447-4.664c3.867,0,7.294,1.834,9.448,4.704C50.763,58.257,53.435,59.692,56.383,59.692z"/>
<path fill="none" stroke="#120C0E" stroke-width="0" stroke-miterlimit="3.863" d="M56.383,59.692l6.498-0.04l-0.04,3.468H16.522
	v-3.468h6.458c2.949,0,5.62-1.436,7.254-3.667c2.153-2.83,5.581-4.664,9.447-4.664c3.867,0,7.294,1.834,9.448,4.704
	C50.763,58.257,53.435,59.692,56.383,59.692z"/>
</svg>
