<?xml version="1.0" encoding="UTF-8" standalone="yes"?>
<svg xmlns="http://www.w3.org/2000/svg" xmlns:xlink="http://www.w3.org/1999/xlink" width="375px" height="375px" viewBox="0 0 375 375" version="1.1">
  <g id="surface1">
    <path style="fill:none;stroke-width:2;stroke-linecap:butt;stroke-linejoin:miter;stroke:rgb(0%,0%,0%);stroke-opacity:1;stroke-miterlimit:4;" d="M 0 1031.362212 L 114.000007 1031.362212 " transform="matrix(3.307291,0,0,3.307291,0,-3105.468564)"/>
    <path style="fill-rule:nonzero;fill:rgb(88.627452%,88.627452%,88.627452%);fill-opacity:1;stroke-width:2;stroke-linecap:square;stroke-linejoin:miter;stroke:rgb(0%,0%,0%);stroke-opacity:1;stroke-miterlimit:4;" d="M 34.500002 951.362601 L 94.500006 951.362601 L 94.500006 1031.362212 L 34.500002 1031.362212 Z M 34.500002 951.362601 " transform="matrix(3.307291,0,0,3.307291,0,-3105.468564)"/>
    <path style="fill-rule:nonzero;fill:rgb(0.392157%,58.431375%,0.392157%);fill-opacity:1;stroke-width:0.936624;stroke-linecap:butt;stroke-linejoin:miter;stroke:rgb(100%,100%,100%);stroke-opacity:1;stroke-miterlimit:4;" d="M 68.306279 997.516586 C 67.446724 996.493306 64.399009 996.616099 64.399009 996.616099 L 60.291509 996.616099 L 57.403094 993.28961 C 55.815628 991.467619 53.586537 988.990729 52.458164 987.774962 L 50.397223 985.556934 L 40.317087 985.415334 C 31.734812 985.287009 29.96039 985.377722 28.504567 986.069127 C 25.586283 987.872312 24.580703 990.889051 23.073993 993.446698 C 20.229828 998.257772 20.246422 999.804307 23.145899 1000.724706 C 26.918206 1000.149457 27.874005 996.295287 29.50019 993.602679 L 31.248063 990.717583 L 34.404189 990.717583 C 36.299193 990.717583 37.573591 990.929982 37.573591 991.243051 C 37.573591 991.761881 34.229402 999.133921 32.883098 1001.593111 C 32.448342 1002.385185 31.953849 1005.710568 31.61755 1010.177599 C 31.315544 1014.188855 30.988094 1017.759825 30.892957 1018.097231 C 30.76242 1018.556324 28.720285 1018.706774 22.804069 1018.706774 C 12.803583 1018.706774 11.305722 1019.297511 10.039068 1023.710336 L 9.640819 1025.088721 L 22.847212 1025.088721 C 35.496057 1025.088721 36.098962 1025.052215 36.991705 1024.091991 C 37.778247 1023.250136 37.974053 1021.981269 38.270528 1015.876991 C 38.595765 1009.180869 38.866796 1007.406446 39.378989 1008.644338 C 39.491826 1008.912051 42.389091 1014.65348 45.817354 1021.394958 C 49.815336 1029.246003 52.507945 1033.977427 53.308869 1034.554889 C 54.291217 1035.259569 55.279097 1035.423294 57.830106 1035.30935 L 61.088008 1035.154476 L 54.760267 1022.404962 C 51.280009 1015.385816 47.959051 1008.625532 47.38159 1007.393171 L 46.330654 1005.146381 L 48.646032 1000.141713 C 49.924855 997.390473 51.098584 995.156958 51.262309 995.180189 C 51.426034 995.204526 52.908407 996.799737 54.546761 998.734565 L 57.530313 1002.257966 L 63.020624 1002.402885 C 63.020624 1002.402885 67.370392 1002.714847 68.50651 1001.230261 C 69.259865 1000.2457 69.10499 998.46464 68.306279 997.516586 Z M 68.306279 997.516586 " transform="matrix(3.531078,0,0,3.531078,12.117669,-3356.063263)"/>
    <path style="fill-rule:nonzero;fill:rgb(0.392157%,58.431375%,0.392157%);fill-opacity:1;stroke-width:0.936624;stroke-linecap:square;stroke-linejoin:round;stroke:rgb(100%,100%,100%);stroke-opacity:1;stroke-miterlimit:4;" d="M 55.591059 977.942626 C 55.591059 981.221546 52.932744 983.879861 49.652718 983.879861 C 46.373797 983.879861 43.715482 981.221546 43.715482 977.942626 C 43.715482 974.663706 46.373797 972.005391 49.652718 972.005391 C 52.932744 972.005391 55.591059 974.663706 55.591059 977.942626 Z M 55.591059 977.942626 " transform="matrix(3.531078,0,0,3.531078,12.117669,-3356.063263)"/>
  </g>
</svg>