<?xml version="1.0" encoding="UTF-8" standalone="yes"?>
<svg xmlns="http://www.w3.org/2000/svg" width="375px" height="375px" viewBox="0 0 375 375" version="1.1">
  <g id="surface1">
    <path style=" stroke:none;fill-rule:nonzero;fill:rgb(28.627452%,35.294119%,67.843139%);fill-opacity:1;" d="M 115.585938 82 L 259.414062 82 C 278.089844 82 293.128906 97.039062 293.128906 115.71875 L 293.128906 259.28125 C 293.128906 277.960938 278.09375 293 259.414062 293 L 115.585938 293 C 96.910156 293 81.871094 277.960938 81.871094 259.28125 L 81.871094 115.71875 C 81.871094 97.039062 96.90625 82 115.585938 82 Z M 115.585938 82 "/>
    <path style="fill:none;stroke-width:2.825373;stroke-linecap:butt;stroke-linejoin:miter;stroke:rgb(100%,100%,100%);stroke-opacity:1;stroke-miterlimit:4;" d="M 24.138495 32.015701 L 24.138495 55.80864 C 28.10368 55.80864 32.068864 59.773825 32.068864 63.739009 L 55.861804 63.739009 C 55.861804 59.773825 59.826988 55.80864 63.793089 55.80864 L 63.793089 32.015701 C 59.826988 32.015701 55.861804 28.050516 55.861804 24.085332 L 32.068864 24.085332 C 32.068864 28.050516 28.10368 32.015701 24.138495 32.015701 Z M 24.138495 32.015701 " transform="matrix(4.261703,0,0,4.261703,-0.000000000000030279,0.234379)"/>
    <path style=" stroke:none;fill-rule:nonzero;fill:rgb(99.215686%,84.705883%,20.784314%);fill-opacity:1;" d="M 188.207031 132.203125 C 156.132812 132.203125 130.132812 158.203125 130.132812 190.277344 C 130.132812 222.351562 156.132812 248.351562 188.207031 248.351562 C 220.277344 248.351562 246.28125 222.351562 246.28125 190.277344 C 246.28125 158.203125 220.277344 132.203125 188.207031 132.203125 Z M 174.703125 225.121094 L 174.664062 225.082031 L 174.632812 225.121094 L 147.554688 197.246094 L 161.160156 183.378906 L 174.667969 197.285156 L 215.320312 155.433594 L 228.859375 169.367188 Z M 174.703125 225.121094 "/>
  </g>
</svg>