<?xml version="1.0" encoding="UTF-8" standalone="yes"?>
<svg xmlns="http://www.w3.org/2000/svg" xmlns:xlink="http://www.w3.org/1999/xlink" width="375px" height="375px" viewBox="0 0 375 375" version="1.1">
  <g id="surface1">
    <path style=" stroke:none;fill-rule:nonzero;fill:rgb(28.627452%,35.294119%,67.843139%);fill-opacity:1;" d="M 59.851562 0.234375 L 315.148438 0.234375 C 348.304688 0.234375 375 26.925781 375 60.085938 L 375 314.914062 C 375 348.070312 348.308594 374.765625 315.148438 374.765625 L 59.851562 374.765625 C 26.695312 374.765625 0 348.074219 0 314.914062 L 0 60.085938 C 0 26.929688 26.691406 0.234375 59.851562 0.234375 Z M 59.851562 0.234375 "/>
    <path style="fill:none;stroke-width:5.0152;stroke-linecap:butt;stroke-linejoin:miter;stroke:rgb(100%,100%,100%);stroke-opacity:1;stroke-miterlimit:4;" d="M 8.747054 22.77277 L 8.747054 65.005742 C 15.785577 65.005742 22.825017 72.045181 22.825017 79.083704 L 65.057988 79.083704 C 65.057988 72.045181 72.096511 65.005742 79.135951 65.005742 L 79.135951 22.77277 C 72.097428 22.77277 65.057988 15.734247 65.057988 8.694807 L 22.825017 8.694807 C 22.825017 15.734247 15.786493 22.77277 8.747054 22.77277 Z M 8.747054 22.77277 " transform="matrix(4.261703,0,0,4.261703,-0.000000000000030279,0.234379)"/>
    <path style=" stroke:none;fill-rule:nonzero;fill:rgb(100%,100%,100%);fill-opacity:1;" d="M 179.128906 192.207031 C 179.128906 203.871094 177.324219 214.0625 173.707031 222.78125 C 170.191406 231.398438 164.769531 238.125 157.445312 242.957031 C 150.117188 247.789062 140.738281 250.207031 129.308594 250.207031 C 117.980469 250.207031 108.601562 247.789062 101.175781 242.957031 C 93.851562 238.125 88.378906 231.347656 84.765625 222.625 C 81.25 213.902344 79.492188 203.710938 79.492188 192.050781 C 79.492188 180.386719 81.25 170.246094 84.765625 161.628906 C 88.378906 153.015625 93.851562 146.34375 101.175781 141.613281 C 108.601562 136.78125 118.027344 134.363281 129.457031 134.363281 C 140.789062 134.363281 150.117188 136.78125 157.445312 141.613281 C 164.769531 146.34375 170.191406 153.066406 173.707031 161.789062 C 177.324219 170.40625 179.128906 180.542969 179.128906 192.207031 Z M 102.789062 192.207031 C 102.789062 203.976562 104.890625 213.273438 109.089844 220.101562 C 113.289062 226.828125 120.03125 230.191406 129.308594 230.191406 C 138.785156 230.191406 145.574219 226.828125 149.679688 220.101562 C 153.78125 213.273438 155.832031 203.976562 155.832031 192.207031 C 155.832031 180.332031 153.78125 171.035156 149.679688 164.308594 C 145.574219 157.585938 138.835938 154.222656 129.457031 154.222656 C 120.078125 154.222656 113.289062 157.585938 109.089844 164.308594 C 104.890625 171.035156 102.789062 180.332031 102.789062 192.207031 Z M 102.789062 192.207031 "/>
    <path style=" stroke:none;fill-rule:nonzero;fill:rgb(100%,100%,100%);fill-opacity:1;" d="M 284.921875 248.628906 L 259.71875 248.628906 L 232.320312 201.191406 L 222.941406 208.441406 L 222.941406 248.628906 L 200.816406 248.628906 L 200.816406 136.097656 L 222.941406 136.097656 L 222.941406 187.636719 C 224.40625 185.429688 225.871094 183.222656 227.335938 181.015625 C 228.804688 178.808594 230.269531 176.605469 231.734375 174.398438 L 260.011719 136.097656 L 284.628906 136.097656 L 248.144531 185.902344 Z M 284.921875 248.628906 "/>
  </g>
</svg>