<?xml version="1.0" encoding="UTF-8" standalone="no"?>
<svg
        xmlns:dc="http://purl.org/dc/elements/1.1/"
        xmlns:cc="http://creativecommons.org/ns#"
        xmlns:rdf="http://www.w3.org/1999/02/22-rdf-syntax-ns#"
        xmlns:sodipodi="http://sodipodi.sourceforge.net/DTD/sodipodi-0.dtd"
        xmlns:inkscape="http://www.inkscape.org/namespaces/inkscape"
        xmlns="http://www.w3.org/2000/svg"
        version="1.1"
        viewBox="0 0 87.992996 87.883003"
        id="svg12"
        sodipodi:docname="housenumber.svg"
        inkscape:version="0.92.5 (2060ec1f9f, 2020-04-08)"
        width="87.992996"
        height="87.883003">
    <metadata
            id="metadata18">
        <rdf:RDF>
            <cc:Work
                    rdf:about="">
                <dc:format>image/svg+xml</dc:format>
                <dc:type
                        rdf:resource="http://purl.org/dc/dcmitype/StillImage"/>
            </cc:Work>
        </rdf:RDF>
    </metadata>
    <defs
            id="defs16"/>
    <sodipodi:namedview
            pagecolor="#ffffff"
            bordercolor="#666666"
            borderopacity="1"
            objecttolerance="10"
            gridtolerance="10"
            guidetolerance="10"
            inkscape:pageopacity="0"
            inkscape:pageshadow="2"
            inkscape:window-width="1920"
            inkscape:window-height="999"
            id="namedview14"
            showgrid="false"
            inkscape:zoom="5.2149125"
            inkscape:cx="5.7838971"
            inkscape:cy="38.08924"
            inkscape:window-x="0"
            inkscape:window-y="0"
            inkscape:window-maximized="1"
            inkscape:current-layer="svg12"/>
    <path
            d="m 14.044,0 h 59.905 c 7.7801,0 14.044,6.2634 14.044,14.044 v 59.795 c 0,7.7801 -6.2634,14.044 -14.044,14.044 H 14.044 C 6.2639,87.883 0,81.6196 0,73.839 V 14.044 C 0,6.2639 6.2634,0 14.044,0 Z"
            style="fill:#495aad;paint-order:normal"
            id="path6"
            inkscape:connector-curvature="0"/>
    <path
            d="m 8.747,22.773 v 42.233 c 7.0389,0 14.078,7.0389 14.078,14.078 h 42.233 c 0,-7.0389 7.0389,-14.078 14.078,-14.078 V 22.773 c -7.0389,0 -14.078,-7.0389 -14.078,-14.078 H 22.825 c 0,7.0389 -7.0389,14.078 -14.078,14.078 z"
            id="path8"
            inkscape:connector-curvature="0"
            style="fill:none;stroke:#ffffff;stroke-width:5.01520014"/>
    <g
            aria-label="?"
            transform="matrix(3.3535798,0,0,2.9487578,-113.10213,-129.7194)"
            style="font-style:normal;font-weight:normal;font-size:20px;line-height:1.25;font-family:sans-serif;letter-spacing:0px;word-spacing:0px;fill:#000000;fill-opacity:1;stroke:none"
            id="flowRoot828">
        <path
                d="m 44.8875,61.303207 v -0.72 q 0,-1 0.42,-1.68 0.42,-0.68 1.44,-1.42 0.9,-0.64 1.28,-1.1 0.4,-0.48 0.4,-1.12 0,-0.64 -0.48,-0.96 -0.46,-0.34 -1.3,-0.34 -0.84,0 -1.66,0.26 -0.82,0.26 -1.68,0.7 l -1.06,-2.14 q 0.98,-0.54 2.12,-0.88 1.14,-0.34 2.5,-0.34 2.08,0 3.22,1 1.16,1 1.16,2.54 0,0.82 -0.26,1.42 -0.26,0.6 -0.78,1.12 -0.52,0.5 -1.3,1.08 -0.58,0.42 -0.9,0.72 -0.32,0.3 -0.44,0.58 -0.1,0.28 -0.1,0.7 v 0.58 z m -0.32,3.34 q 0,-0.92 0.5,-1.28 0.5,-0.38 1.22,-0.38 0.7,0 1.2,0.38 0.5,0.36 0.5,1.28 0,0.88 -0.5,1.28 -0.5,0.38 -1.2,0.38 -0.72,0 -1.22,-0.38 -0.5,-0.4 -0.5,-1.28 z"
                style="font-weight:bold;fill:#ffffff;fill-opacity:1"
                id="path817"/>
    </g>
</svg>
