<?xml version="1.0" encoding="UTF-8" standalone="no"?>
<svg
   xmlns:dc="http://purl.org/dc/elements/1.1/"
   xmlns:cc="http://creativecommons.org/ns#"
   xmlns:rdf="http://www.w3.org/1999/02/22-rdf-syntax-ns#"
   xmlns:svg="http://www.w3.org/2000/svg"
   xmlns="http://www.w3.org/2000/svg"
   xmlns:sodipodi="http://sodipodi.sourceforge.net/DTD/sodipodi-0.dtd"
   xmlns:inkscape="http://www.inkscape.org/namespaces/inkscape"
   width="116"
   height="106"
   version="1.1"
   id="svg4"
   sodipodi:docname="club.svg"
   inkscape:version="0.92.4 (5da689c313, 2019-01-14)">
  <metadata
     id="metadata10">
    <rdf:RDF>
      <cc:Work
         rdf:about="">
        <dc:format>image/svg+xml</dc:format>
        <dc:type
           rdf:resource="http://purl.org/dc/dcmitype/StillImage" />
      </cc:Work>
    </rdf:RDF>
  </metadata>
  <defs
     id="defs8" />
  <sodipodi:namedview
     pagecolor="#ffffff"
     bordercolor="#666666"
     borderopacity="1"
     objecttolerance="10"
     gridtolerance="10"
     guidetolerance="10"
     inkscape:pageopacity="0"
     inkscape:pageshadow="2"
     inkscape:window-width="1920"
     inkscape:window-height="1043"
     id="namedview6"
     showgrid="false"
     inkscape:zoom="4.4528302"
     inkscape:cx="72.99966"
     inkscape:cy="35.709231"
     inkscape:window-x="0"
     inkscape:window-y="0"
     inkscape:window-maximized="1"
     inkscape:current-layer="svg4" />
  <path
     d="M 58,17 C 52,7 42,0 30,0 C 13,0 0,13 0,30 C 0,63 18,68 58,106 C 98,68 116,63 116,30 C 116,13 103,0 86,0 C 74,0 64,7 58,17 z"
     fill="#ff0707"
     id="path2"
     style="fill:#000000" />
  <g
     style="opacity:1;vector-effect:none;fill:#d38d5f;fill-opacity:1;stroke-width:1;stroke-linecap:butt;stroke-linejoin:miter;stroke-miterlimit:4;stroke-dasharray:none;stroke-dashoffset:0;stroke-opacity:1"
     id="g1035"
     transform="matrix(0.23378689,-0.07059172,0.07059172,0.23378689,-6.8946019,18.026566)">
	<circle
   style="clip-rule:evenodd;vector-effect:none;fill:#d38d5f;fill-opacity:1;fill-rule:evenodd;stroke-width:1;stroke-linecap:butt;stroke-linejoin:miter;stroke-miterlimit:4;stroke-dasharray:none;stroke-dashoffset:0;stroke-opacity:1"
   id="circle1029"
   r="23.049999"
   cy="92.550003"
   cx="190.403" />

	<path
   style="clip-rule:evenodd;vector-effect:none;fill:#d38d5f;fill-opacity:1;fill-rule:evenodd;stroke-width:1;stroke-linecap:butt;stroke-linejoin:miter;stroke-miterlimit:4;stroke-dasharray:none;stroke-dashoffset:0;stroke-opacity:1"
   id="path1031"
   d="m 256.594,147.631 31.687,-38.824 c 3.497,-4.285 10.495,-4.362 15.628,-0.171 l 1.643,1.34 c 5.135,4.191 6.461,11.062 2.965,15.346 0,0 -37.64,46.27 -38.512,46.778 -4.412,4.632 -8.461,6.728 -13.859,4.187 L 219.024,158.816 V 186 h -60.72 V 147.316 L 104.147,74.935 C 97.898,66.584 97.135,56.595 102.44,52.627 l 1.697,-1.271 c 5.308,-3.972 14.674,-0.419 20.923,7.934 l 48.777,65.191 h 34.097 z"
   inkscape:connector-curvature="0" />

	<path
   style="clip-rule:evenodd;vector-effect:none;fill:#d38d5f;fill-opacity:1;fill-rule:evenodd;stroke-width:1;stroke-linecap:butt;stroke-linejoin:miter;stroke-miterlimit:4;stroke-dasharray:none;stroke-dashoffset:0;stroke-opacity:1"
   id="path1033"
   d="m 220.993,219.764 13.847,50.956 37.23,48.658 c 3.849,5.028 1.842,13.032 -4.484,17.874 l -2.023,1.549 c -6.326,4.839 -14.574,4.686 -18.425,-0.347 l -38.7,-50.578 c -0.779,-1.02 -1.307,-2.164 -1.619,-3.376 -0.717,-0.833 -1.25,-1.784 -1.539,-2.848 l -7.947,-29.245 c -3.057,0.421 -6.562,0.693 -10.292,0.765 l -3.824,0.073 c -11.378,0.218 -23.561,-4.499 -24.396,-5.07 l -22.519,-15.411 -6.271,41.158 c -0.878,5.765 -7.974,9.467 -15.849,8.268 l -2.52,-0.384 c -7.874,-1.199 -13.547,-6.845 -12.668,-12.613 l 8.83,-57.962 c 0.224,-1.468 3.203,-9.405 4.99,-12.018 l 1.439,-2.103 c 4.498,-6.573 11.845,-9.371 16.41,-6.246 l 27.638,18.915 V 197.5 h 60.72 z"
   inkscape:connector-curvature="0" />

</g>
</svg>
