<?xml version="1.0" encoding="UTF-8" standalone="yes"?>
<svg xmlns="http://www.w3.org/2000/svg" xmlns:xlink="http://www.w3.org/1999/xlink" width="375px" height="453px" viewBox="0 0 375 453" version="1.1">
  <g id="surface1">
    <path style=" stroke:none;fill-rule:nonzero;fill:rgb(33.333334%,74.117649%,75.294119%);fill-opacity:1;" d="M 0 0.257812 L 0 299.84375 C 0 333.203125 27.601562 368.730469 82.042969 405.460938 C 108.105469 423.046875 159.636719 452.804688 187.46875 452.804688 C 215.296875 452.804688 266.882812 423.046875 292.894531 405.460938 C 347.335938 368.691406 374.9375 333.1875 374.9375 299.84375 L 374.9375 0.257812 Z M 0 0.257812 "/>
    <path style=" stroke:none;fill-rule:nonzero;fill:rgb(100%,100%,100%);fill-opacity:1;" d="M 248.78125 217.71875 L 248.78125 188.925781 L 259.09375 188.925781 L 259.09375 181.851562 L 231.277344 181.851562 L 231.277344 188.925781 L 241.589844 188.925781 L 241.589844 217.71875 Z M 165.023438 210.734375 L 165.023438 202.074219 L 175.335938 202.074219 L 175.335938 195.113281 L 165.023438 195.113281 L 165.023438 188.914062 L 182.804688 188.914062 L 182.804688 181.886719 L 157.796875 181.886719 L 157.796875 217.757812 L 183.519531 217.757812 L 183.519531 210.734375 Z M 135.328125 205.863281 L 141.015625 205.863281 C 140.609375 208.996094 138.910156 211.292969 133.992188 211.292969 C 128.59375 211.292969 125.46875 206.433594 125.46875 199.816406 C 125.46875 193.199219 128.542969 188.40625 133.929688 188.40625 C 137.839844 188.40625 139.480469 190.410156 140.8125 193.070312 L 147.636719 190.257812 C 145.285156 184.714844 141.371094 181.292969 134.042969 181.292969 C 124.644531 181.292969 118.078125 188.898438 118.078125 199.777344 C 118.078125 211.101562 124.429688 218.277344 133.777344 218.277344 C 142.097656 218.277344 148.207031 213.054688 148.207031 203.824219 L 148.207031 199.121094 L 135.289062 199.121094 Z M 56.714844 119.644531 L 44.457031 119.644531 L 50.617188 99.585938 Z M 60.792969 133.085938 L 65.871094 133.085938 L 53.78125 95.667969 L 47.785156 95.667969 L 35.640625 133.085938 L 40.429688 133.085938 L 43.378906 123.511719 L 57.972656 123.511719 Z M 89.726562 123.347656 L 81.496094 95.667969 L 75.070312 95.667969 L 71.917969 133.085938 L 76.375 133.085938 L 77.648438 116.222656 C 78.140625 110.683594 78.460938 104.648438 78.523438 100.398438 L 87.339844 128.789062 L 91.757812 128.789062 L 100.242188 100.425781 C 100.242188 103.582031 100.726562 109.996094 101.273438 115.929688 L 102.695312 133.0625 L 107.269531 133.0625 L 104.003906 95.644531 L 97.5625 95.644531 Z M 108.167969 61.359375 C 108.167969 70.652344 105.222656 73.214844 100.054688 73.214844 L 97.4375 73.214844 L 97.4375 49.785156 L 99.976562 49.785156 C 104.996094 49.785156 108.15625 51.964844 108.15625 61.371094 M 118.558594 61.371094 C 118.558594 45.816406 108.917969 42.605469 98.667969 42.605469 L 87.339844 42.605469 L 87.339844 80.402344 L 99.445312 80.402344 C 109.515625 80.402344 118.558594 76.484375 118.558594 61.386719 M 124.035156 99.421875 L 128.554688 99.421875 C 134.273438 99.421875 137.652344 100.691406 137.652344 105.40625 C 137.652344 109.476562 134.4375 111.660156 130.132812 111.660156 L 124.035156 111.660156 Z M 124.035156 115.296875 L 130.628906 115.296875 C 135.261719 115.296875 139.175781 117.148438 139.175781 122.484375 C 139.175781 127.824219 135.261719 129.28125 129.648438 129.28125 L 124.035156 129.28125 Z M 128.0625 95.667969 L 119.296875 95.667969 L 119.296875 133.085938 L 129.597656 133.085938 C 138.199219 133.085938 144.140625 130.257812 144.140625 122.484375 C 144.140625 116.148438 139.886719 113.992188 135.480469 113.292969 C 139.527344 112.667969 142.5 109.167969 142.453125 105.078125 C 142.453125 98.597656 137.117188 95.667969 128.011719 95.667969 M 148.117188 49.707031 L 149.144531 42.582031 L 125.128906 42.582031 L 125.128906 80.378906 L 148.992188 80.378906 L 148.992188 73.253906 L 135.199219 73.253906 L 135.199219 64.65625 L 146.480469 64.65625 L 146.480469 57.757812 L 135.199219 57.757812 L 135.199219 49.707031 Z M 169.394531 119.632812 L 157.136719 119.632812 L 163.285156 99.574219 Z M 178.488281 133.074219 L 166.394531 95.65625 L 160.398438 95.65625 L 148.257812 133.074219 L 153.046875 133.074219 L 155.992188 123.5 L 170.585938 123.5 L 173.46875 133.074219 Z M 192.625 49.707031 L 193.652344 42.582031 L 170.398438 42.582031 L 170.398438 80.378906 L 180.480469 80.378906 L 180.480469 65.9375 L 191.152344 65.9375 L 191.152344 58.8125 L 180.480469 58.8125 L 180.480469 49.707031 Z M 207.144531 99.296875 C 204.085938 96.355469 199.953125 94.800781 195.710938 94.996094 C 188.890625 94.996094 184.101562 99.03125 184.101562 104.632812 C 184.101562 110.238281 187.746094 113.117188 195.101562 115.347656 C 201.53125 117.300781 203.382812 118.988281 203.382812 122.839844 C 203.382812 127.46875 199.675781 129.816406 195.101562 129.816406 C 191.453125 129.890625 187.933594 128.476562 185.359375 125.898438 L 182.578125 128.941406 C 185.960938 132.152344 190.496094 133.875 195.164062 133.71875 C 203.382812 133.71875 208.285156 129.207031 208.285156 122.6875 C 208.285156 115.664062 203.433594 113.28125 197.285156 111.429688 C 190.53125 109.363281 188.953125 107.777344 188.953125 104.46875 C 188.953125 100.816406 191.953125 98.914062 195.929688 98.914062 C 199.09375 98.894531 202.140625 100.105469 204.425781 102.289062 Z M 199.050781 80.378906 L 209.125 80.378906 L 209.125 42.605469 L 199.050781 42.605469 Z M 215.324219 204.824219 C 214.867188 203.910156 213.683594 202.113281 212.785156 200.78125 L 200.082031 181.824219 L 193.210938 181.824219 L 193.210938 217.695312 L 200.285156 217.695312 L 200.285156 201.933594 C 200.285156 199.929688 200.183594 195.429688 200.183594 194.097656 C 200.652344 195.011719 201.820312 196.8125 202.722656 198.144531 L 215.921875 217.71875 L 222.335938 217.71875 L 222.335938 181.851562 L 215.246094 181.851562 L 215.246094 197.066406 C 215.246094 199.070312 215.347656 203.570312 215.347656 204.902344 M 234.730469 122.917969 C 234.730469 127.546875 231.023438 129.890625 226.449219 129.890625 C 222.804688 129.96875 219.28125 128.554688 216.707031 125.972656 L 213.925781 129.015625 C 217.304688 132.226562 221.835938 133.949219 226.5 133.796875 C 234.730469 133.796875 239.636719 129.28125 239.636719 122.765625 C 239.636719 115.742188 234.78125 113.355469 228.636719 111.507812 C 221.878906 109.4375 220.304688 107.855469 220.304688 104.546875 C 220.304688 100.894531 223.300781 98.992188 227.277344 98.992188 C 230.441406 98.96875 233.488281 100.179688 235.773438 102.363281 L 238.441406 99.371094 C 235.386719 96.429688 231.25 94.875 227.007812 95.074219 C 220.1875 95.074219 215.398438 99.105469 215.398438 104.710938 C 215.398438 110.3125 219.046875 113.191406 226.398438 115.425781 C 232.828125 117.375 234.679688 119.0625 234.679688 122.917969 M 240.179688 49.707031 L 241.210938 42.582031 L 217.191406 42.582031 L 217.191406 80.378906 L 241.058594 80.378906 L 241.058594 73.253906 L 227.261719 73.253906 L 227.261719 64.65625 L 238.542969 64.65625 L 238.542969 57.757812 L 227.261719 57.757812 L 227.261719 49.707031 Z M 252.414062 119.632812 L 258.574219 99.574219 L 264.671875 119.632812 Z M 255.679688 95.65625 L 243.535156 133.074219 L 248.335938 133.074219 L 251.269531 123.5 L 265.878906 123.5 L 268.761719 133.074219 L 273.765625 133.074219 L 261.671875 95.65625 Z M 273.804688 50.253906 L 274.832031 42.644531 L 245.300781 42.644531 L 245.300781 50.253906 L 254.789062 50.253906 L 254.789062 80.378906 L 264.859375 80.378906 L 264.859375 50.277344 Z M 288.285156 52.039062 C 288.285156 49.972656 289.921875 48.832031 292.867188 48.832031 C 295.875 48.863281 298.773438 49.964844 301.035156 51.9375 L 305.609375 46.601562 C 301.953125 43.175781 297.054688 41.378906 292.042969 41.632812 C 283.925781 41.632812 277.878906 45.980469 277.878906 52.890625 C 277.878906 58.429688 280.726562 62.070312 289.542969 64.847656 C 294.773438 66.429688 296.082031 67.507812 296.082031 70.019531 C 296.082031 72.53125 294.175781 74.089844 290.683594 74.089844 C 287.195312 74.046875 283.851562 72.691406 281.324219 70.285156 L 276.242188 75.839844 C 280.25 79.617188 285.609375 81.621094 291.117188 81.40625 C 300.820312 81.40625 306.585938 76.398438 306.585938 69.273438 C 306.585938 62.425781 302.777344 59.21875 295.371094 56.882812 C 289.707031 55.03125 288.285156 54.273438 288.285156 52.089844 M 303.132812 114.21875 C 303.132812 126.785156 297.085938 129.433594 291.089844 129.433594 L 286.683594 129.433594 L 286.683594 99.484375 L 290.773438 99.484375 C 296.871094 99.484375 303.195312 101.285156 303.195312 114.167969 M 308.277344 114.167969 C 308.277344 98.675781 299.183594 95.683594 289.808594 95.683594 L 282.074219 95.683594 L 282.074219 133.097656 L 290.773438 133.097656 C 298.789062 133.097656 308.265625 129.511719 308.265625 114.167969 M 323.796875 129.296875 L 323.796875 115.90625 L 336.601562 115.90625 L 336.601562 112.101562 L 323.796875 112.101562 L 323.796875 99.421875 L 338.558594 99.421875 L 339.105469 95.617188 L 319.097656 95.617188 L 319.097656 133.035156 L 339.421875 133.035156 L 339.421875 129.230469 Z M 323.796875 129.296875 "/>
    <path style=" stroke:none;fill-rule:nonzero;fill:rgb(100%,100%,100%);fill-opacity:1;" d="M 271.480469 297.929688 C 271.113281 299.785156 272.324219 301.589844 274.183594 301.960938 L 321.714844 311.457031 C 321.9375 311.503906 322.164062 311.523438 322.386719 311.519531 C 324.140625 311.496094 325.597656 310.164062 325.769531 308.421875 C 325.941406 306.683594 324.777344 305.089844 323.0625 304.722656 L 275.53125 295.226562 C 273.667969 294.863281 271.855469 296.070312 271.480469 297.929688 M 202.785156 348.824219 L 202.785156 380.632812 C 202.898438 382.449219 204.402344 383.863281 206.222656 383.863281 C 208.042969 383.863281 209.546875 382.449219 209.660156 380.632812 L 209.660156 348.824219 C 209.546875 347.007812 208.042969 345.59375 206.222656 345.59375 C 204.402344 345.59375 202.898438 347.007812 202.785156 348.824219 M 184.078125 343.21875 L 184.078125 386.199219 C 184.078125 388.097656 185.617188 389.636719 187.519531 389.636719 C 189.421875 389.636719 190.960938 388.097656 190.960938 386.199219 L 190.960938 343.21875 C 190.960938 341.320312 189.421875 339.78125 187.519531 339.78125 C 185.617188 339.78125 184.078125 341.320312 184.078125 343.21875 M 165.355469 348.824219 L 165.355469 380.632812 C 165.355469 382.53125 166.894531 384.070312 168.796875 384.070312 C 170.699219 384.070312 172.238281 382.53125 172.238281 380.632812 L 172.238281 348.824219 C 172.238281 346.925781 170.699219 345.386719 168.796875 345.386719 C 166.894531 345.386719 165.355469 346.925781 165.355469 348.824219 M 150.113281 364.039062 C 150.113281 343.394531 166.875 326.660156 187.558594 326.660156 C 208.238281 326.660156 225.003906 343.394531 225.003906 364.039062 C 225.003906 384.679688 208.238281 401.414062 187.558594 401.414062 C 166.902344 401.445312 150.125 384.769531 150.0625 364.152344 M 140.167969 364.152344 C 140.167969 390.25 161.359375 411.40625 187.507812 411.40625 C 213.652344 411.40625 234.847656 390.25 234.847656 364.152344 C 234.847656 338.054688 213.652344 316.894531 187.507812 316.894531 C 161.371094 316.925781 140.195312 338.066406 140.167969 364.152344 M 49.246094 308.820312 C 49.570312 310.417969 50.976562 311.566406 52.613281 311.570312 C 52.835938 311.574219 53.0625 311.554688 53.285156 311.507812 L 100.828125 302.023438 C 102.632812 301.59375 103.773438 299.816406 103.40625 298.003906 C 103.039062 296.1875 101.296875 294.988281 99.46875 295.289062 L 51.976562 304.722656 C 51.082031 304.902344 50.292969 305.429688 49.789062 306.1875 C 49.28125 306.945312 49.101562 307.875 49.285156 308.769531 M 38.003906 271.59375 C 38.003906 278.121094 43.304688 283.410156 49.84375 283.410156 L 105.730469 283.410156 C 110.035156 283.398438 113.988281 281.046875 116.046875 277.273438 C 123.003906 280.355469 127.351562 286.261719 131.808594 292.488281 C 137.828125 300.894531 144.066406 309.59375 156.871094 309.59375 L 218.144531 309.59375 C 230.945312 309.59375 237.195312 300.894531 243.203125 292.488281 C 247.648438 286.277344 252.007812 280.367188 258.953125 277.273438 C 261.015625 281.046875 264.976562 283.398438 269.28125 283.410156 L 325.171875 283.410156 C 331.707031 283.410156 337.007812 278.121094 337.007812 271.59375 C 337.007812 265.066406 331.707031 259.777344 325.171875 259.777344 L 269.28125 259.777344 C 263.238281 259.785156 258.183594 264.351562 257.570312 270.351562 C 248.082031 273.976562 242.582031 281.546875 237.601562 288.480469 C 231.914062 296.433594 227.441406 302.707031 218.144531 302.707031 L 156.871094 302.707031 C 147.609375 302.707031 143.101562 296.433594 137.398438 288.480469 C 132.429688 281.546875 126.917969 273.976562 117.441406 270.351562 C 116.824219 264.355469 111.769531 259.789062 105.730469 259.777344 L 49.84375 259.777344 C 43.304688 259.777344 38.003906 265.066406 38.003906 271.59375 "/>
  </g>
</svg>