<?xml version="1.0" encoding="UTF-8" standalone="yes"?>
<svg xmlns="http://www.w3.org/2000/svg" xmlns:xlink="http://www.w3.org/1999/xlink" width="373px" height="294px" viewBox="0 0 373 294" version="1.1">
  <g id="surface1">
    <path style=" stroke:none;fill-rule:nonzero;fill:rgb(33.333334%,74.117649%,75.294119%);fill-opacity:1;" d="M 0.203125 23.828125 L 0.0820312 141.378906 C 0.0507812 174.664062 27.511719 210.113281 81.613281 246.761719 C 107.515625 264.308594 158.726562 294 186.382812 294 C 214.039062 294 265.296875 264.308594 291.148438 246.761719 C 345.25 210.074219 372.613281 174.652344 372.679688 141.378906 L 372.917969 20.167969 C 372.886719 8.574219 363.910156 0 352.796875 0 L 23.679688 0.300781 C 11.214844 0.414062 0.203125 8.789062 0.203125 23.828125 Z M 0.203125 23.828125 "/>
    <path style=" stroke:none;fill-rule:nonzero;fill:rgb(100%,100%,100%);fill-opacity:1;" d="M 282.28125 97.117188 C 281.863281 99.257812 283.25 101.332031 285.386719 101.757812 L 339.917969 112.699219 C 340.171875 112.75 340.429688 112.777344 340.6875 112.773438 C 345.394531 112.710938 346.066406 105.929688 341.460938 104.945312 L 286.929688 94.003906 C 284.789062 93.582031 282.714844 94.972656 282.28125 97.113281 M 203.472656 155.742188 L 203.472656 192.386719 C 203.773438 197.34375 211.054688 197.34375 211.355469 192.386719 L 211.355469 155.742188 C 211.054688 150.785156 203.773438 150.785156 203.472656 155.742188 M 182.007812 149.285156 L 182.007812 198.796875 C 182.007812 204.074219 189.90625 204.074219 189.90625 198.796875 L 189.90625 149.285156 C 189.90625 144.007812 182.007812 144.007812 182.007812 149.285156 M 160.527344 155.742188 L 160.527344 192.386719 C 160.527344 197.664062 168.425781 197.664062 168.425781 192.386719 L 168.425781 155.742188 C 168.425781 150.464844 160.527344 150.464844 160.527344 155.742188 M 143.039062 173.265625 C 143.039062 134.90625 189.3125 115.699219 216.375 142.824219 C 228.664062 155.136719 232.339844 173.65625 225.691406 189.746094 C 219.039062 205.832031 203.375 216.324219 186 216.324219 C 162.300781 216.355469 143.054688 197.148438 142.980469 173.398438 M 131.628906 173.398438 C 131.628906 195.414062 144.863281 215.265625 165.15625 223.6875 C 185.453125 232.113281 208.8125 227.457031 224.34375 211.886719 C 239.878906 196.320312 244.527344 172.90625 236.121094 152.566406 C 227.714844 132.226562 207.910156 118.964844 185.941406 118.964844 C 155.960938 118.996094 131.660156 143.347656 131.628906 173.398438 M 27.320312 109.660156 C 27.691406 111.503906 29.304688 112.828125 31.179688 112.832031 C 31.441406 112.835938 31.699219 112.8125 31.953125 112.757812 L 86.5 101.832031 C 91.445312 100.652344 89.957031 93.246094 84.9375 94.078125 L 30.453125 104.945312 C 28.3125 105.371094 26.925781 107.460938 27.363281 109.601562 M 14.421875 66.78125 C 14.421875 74.296875 20.503906 80.390625 28.003906 80.390625 L 92.125 80.390625 C 97.058594 80.378906 101.597656 77.667969 103.957031 73.324219 C 111.941406 76.871094 116.925781 83.679688 122.039062 90.847656 C 128.949219 100.53125 136.101562 110.550781 150.792969 110.550781 L 221.089844 110.550781 C 235.78125 110.550781 242.949219 100.53125 249.84375 90.847656 C 254.945312 83.691406 259.941406 76.886719 267.914062 73.324219 C 270.28125 77.667969 274.820312 80.378906 279.761719 80.390625 L 343.878906 80.390625 C 351.382812 80.390625 357.460938 74.296875 357.460938 66.78125 C 357.460938 59.261719 351.382812 53.167969 343.878906 53.167969 L 279.761719 53.167969 C 272.828125 53.175781 267.027344 58.4375 266.324219 65.347656 C 255.4375 69.527344 249.128906 78.246094 243.417969 86.234375 C 236.886719 95.390625 231.757812 102.621094 221.089844 102.621094 L 150.792969 102.621094 C 140.167969 102.621094 134.996094 95.390625 128.453125 86.234375 C 122.753906 78.246094 116.429688 69.527344 105.558594 65.347656 C 104.851562 58.441406 99.050781 53.183594 92.125 53.167969 L 28.003906 53.167969 C 20.503906 53.167969 14.421875 59.261719 14.421875 66.78125 "/>
  </g>
</svg>