<?xml version="1.0" encoding="UTF-8" standalone="yes"?>
<svg xmlns="http://www.w3.org/2000/svg" xmlns:xlink="http://www.w3.org/1999/xlink" width="375px" height="375px" viewBox="0 0 375 375" version="1.1">
  <g id="surface1">
    <path style=" stroke:none;fill-rule:nonzero;fill:rgb(78.039217%,45.490196%,0%);fill-opacity:1;" d="M 40.179688 0 C 33.480469 0 26.785156 6.695312 26.785156 20.089844 L 26.785156 187.5 C 26.785156 214.285156 73.660156 214.285156 73.660156 241.070312 L 60.269531 375 L 127.230469 375 L 113.839844 241.070312 C 113.839844 214.285156 160.714844 214.285156 160.714844 187.5 L 160.714844 20.089844 C 160.714844 -6.695312 133.929688 -6.695312 133.929688 20.089844 L 133.929688 160.714844 C 133.929688 175.800781 107.144531 175.800781 107.144531 160.714844 L 107.144531 20.089844 C 107.144531 -6.695312 80.355469 -6.695312 80.355469 20.089844 L 80.355469 160.714844 C 80.355469 174.839844 53.570312 174.839844 53.570312 160.714844 L 53.570312 20.089844 C 53.570312 6.695312 46.875 0 40.179688 0 Z M 267.855469 0 C 241.070312 0 187.5 53.570312 187.5 133.929688 C 187.5 214.285156 247.769531 241.070312 247.769531 241.070312 L 234.375 375 L 301.339844 375 L 287.945312 241.070312 C 287.945312 241.070312 348.214844 214.285156 348.214844 133.929688 C 348.214844 53.570312 294.644531 0 267.855469 0 Z M 267.855469 0 "/>
  </g>
</svg>