<?xml version="1.0" encoding="UTF-8" standalone="yes"?>
<svg xmlns="http://www.w3.org/2000/svg" xmlns:xlink="http://www.w3.org/1999/xlink" width="352px" height="375px" viewBox="0 0 352 375" version="1.1">
  <g id="surface1">
    <path style=" stroke:none;fill-rule:nonzero;fill:rgb(0.392157%,49.803922%,0%);fill-opacity:1;" d="M 330.257812 7.449219 C 321.976562 9.625 304.480469 13.554688 291.433594 16.140625 C 258.203125 22.660156 252.921875 24.628906 238.117188 35.597656 C 217.101562 51.222656 202.398438 81.4375 202.503906 108.859375 C 202.605469 119.308594 204.160156 126.757812 205.921875 124.792969 C 206.335938 124.277344 207.785156 121.273438 209.027344 118.171875 C 215.339844 102.960938 233.664062 79.78125 249.296875 67.261719 C 257.269531 60.84375 273.316406 54.53125 273.316406 57.84375 C 273.316406 58.980469 267.832031 65.8125 261.308594 72.640625 C 255.199219 79.160156 253.128906 81.851562 241.636719 98.511719 C 229.730469 115.996094 214.203125 147.246094 203.746094 175.082031 C 193.601562 202.089844 186.144531 223.613281 181.175781 239.753906 C 172.789062 267.382812 165.234375 289.21875 163.886719 289.632812 C 162.230469 290.253906 157.675781 275.457031 148.152344 238.722656 C 133.347656 181.1875 127.03125 161.425781 111.914062 125.414062 C 101.5625 100.890625 87.894531 81.230469 60.152344 51.117188 C 44.933594 34.457031 23.292969 18.523438 10.25 14.175781 C 1.761719 11.277344 1.035156 12.726562 7.453125 19.867188 C 37.683594 53.910156 55.179688 79.160156 73.714844 115.066406 C 89.347656 145.59375 100.113281 175.910156 119.679688 245.445312 C 124.648438 263.246094 135.625 308.566406 139.144531 326.160156 C 143.078125 345.714844 147.425781 364.859375 148.566406 367.859375 C 148.980469 368.792969 150.53125 370.03125 152.085938 370.445312 C 155.605469 371.378906 172.582031 371.378906 176.207031 370.445312 C 181.589844 368.894531 182.625 364.652344 190.078125 315.8125 C 195.050781 282.800781 199.292969 263.039062 207.785156 233.546875 C 222.175781 183.257812 237.496094 146.417969 246.8125 140.417969 C 248.160156 139.589844 254.785156 137.933594 261.722656 136.796875 C 288.640625 132.347656 310.277344 120.445312 325.601562 101.511719 C 335.847656 88.886719 338.542969 79.574219 341.128906 48.53125 C 342.476562 32.078125 343.304688 27.421875 346.410156 17.589844 C 348.375 11.175781 349.722656 5.378906 349.515625 4.65625 C 348.789062 2.792969 347.132812 3 330.257812 7.449219 Z M 330.257812 7.449219 "/>
  </g>
</svg>