<?xml version="1.0" encoding="utf-8"?>
<!-- Generator: Adobe Illustrator 24.2.1, SVG Export Plug-In . SVG Version: 6.00 Build 0)  -->
<svg version="1.1" xmlns="http://www.w3.org/2000/svg" xmlns:xlink="http://www.w3.org/1999/xlink" x="0px" y="0px"
	 viewBox="0 0 300 300" style="enable-background:new 0 0 300 300;" xml:space="preserve">
<style type="text/css">
	.st0{fill:#0181C2;}
	.st1{fill:#020203;}
	.st2{fill:none;stroke:#000000;stroke-width:4.6057;}
	.st3{fill:none;stroke:#000000;stroke-width:2.3029;}
	.st4{fill:#FFFFFF;stroke:#000000;stroke-width:4;stroke-miterlimit:10;}
	.st5{fill:#E74436;}
	.st6{fill:#FCC407;}
	.st7{fill:#0682C2;}
	.st8{fill:#73B254;}
	.st9{fill:#FFFFFF;stroke:#000000;stroke-width:7.155;stroke-miterlimit:10;}
	.st10{fill:#FFFFFF;stroke:#000000;stroke-width:7.7355;stroke-miterlimit:10;}
	.st11{fill:none;stroke:#010202;stroke-width:4;stroke-miterlimit:10;}
	.st12{fill:none;stroke:#000000;stroke-width:4;stroke-miterlimit:10;}
</style>
<g id="Laag_1">
	<g>
		<path class="st2" d="M133.7,168.1h15h13.9h19.3l19.3,42.8h-35.4 M124,156h7.5h7.5l-5.4,12.1 M115.4,210.9l11.8-28.6l4.3-8.8
			l2.1-5.5 M150,194.4l-6.1-9.9l-10.2-16.5 M150,194.4l4.1,6.6 M178.7,169.2l6.4-13.2l-21.4,48.3l10.7-24.2 M150,194.4l7.3,12.1"/>
		<path class="st3" d="M160.6,202.5c3.5,0,6.4,2.9,6.4,6.5c0,3.6-2.9,6.5-6.4,6.5c-3.5,0-6.4-2.9-6.4-6.5
			C154.3,205.4,157.1,202.5,160.6,202.5z"/>
		<path class="st2" d="M201.4,181.7c13.5,0,24.5,11.2,24.5,25.2c0,13.9-11,25.2-24.5,25.2c-13.5,0-24.5-11.2-24.5-25.2
			C176.9,192.9,187.9,181.7,201.4,181.7z"/>
	</g>
	<g>
		<circle class="st2" cx="117.6" cy="209" r="25.3"/>
	</g>
	<g>
		<path class="st2" d="M149.8,80.7h15h13.9H198l19.3,42.8h-35.4 M140.1,68.6h7.5h7.5l-5.4,12.1 M131.5,123.5L143.3,95l4.3-8.8
			l2.1-5.5 M166.1,107.1l-6.1-9.9l-10.2-16.5 M166.1,107.1l4.1,6.6 M194.8,81.8l6.4-13.2L179.8,117l10.7-24.2 M166.1,107.1l7.3,12.1
			"/>
		<path class="st3" d="M176.7,115.1c3.5,0,6.4,2.9,6.4,6.5c0,3.6-2.9,6.5-6.4,6.5c-3.5,0-6.4-2.9-6.4-6.5
			C170.4,118,173.3,115.1,176.7,115.1z"/>
		<path class="st2" d="M217.5,94.3c13.5,0,24.5,11.2,24.5,25.2c0,13.9-11,25.2-24.5,25.2c-13.5,0-24.5-11.2-24.5-25.2
			C193,105.5,204,94.3,217.5,94.3z"/>
	</g>
	<g>
		<circle class="st2" cx="133.7" cy="121.6" r="25.3"/>
	</g>
	<path class="st4" d="M212.3,229.9c-45.9,0-91.8-0.1-137.7-0.1c10.4-26.7,20.8-53.3,31.2-80c41.4-0.2,82.7-0.5,124.1-0.7
		c1.2-2.6,2.4-5.2,3.6-7.8c-44.9,0.1-89.7,0.2-134.6,0.3c-12.7,32.6-25.3,65.1-38,97.7c49,0,97.9,0.1,146.9,0.1
		C209.3,236.2,210.8,233,212.3,229.9z"/>
</g>
<g id="Isolatiemodus">
</g>
<g id="Capa_1">
</g>
</svg>
