<?xml version="1.0" encoding="utf-8"?>
<!-- Svg Vector Icons : http://www.onlinewebfonts.com/icon -->
<!DOCTYPE svg PUBLIC "-//W3C//DTD SVG 1.1//EN" "http://www.w3.org/Graphics/SVG/1.1/DTD/svg11.dtd">
<svg version="1.1" xmlns="http://www.w3.org/2000/svg" xmlns:xlink="http://www.w3.org/1999/xlink" x="0px" y="0px" viewBox="0 0 1000 1000" enable-background="new 0 0 1000 1000" xml:space="preserve">
<metadata> Svg Vector Icons : http://www.onlinewebfonts.com/icon </metadata>
<g><g transform="translate(0.000000,511.000000) scale(0.100000,-0.100000)"><path d="M5572.6,4277.4c-596-130.5-1096.5-520-1363.3-1063.4c-155.8-313.6-185-447.9-185-827.7c0-354.5,25.3-488.8,146.1-753.7c33.1-70.1,54.5-132.4,50.6-138.3c-7.8-5.8-1324.3,206.4-1842.4,298c-91.5,17.5-432.4,74-759.5,128.5c-562.8,93.5-595.9,97.4-656.3,68.2c-37-17.5-76-56.5-93.5-93.5C844,1837.2,100-2581.8,100-2677.2c0-66.2,52.6-148,111-171.4c62.3-25.3,91.5-31.2,4378-745.9c3359.5-558.9,3207.6-539.5,3291.3-446c35.1,38.9,40.9,74,284.3,1499.6c74,444,138.3,808.2,140.2,808.2c2,2,74,21.4,159.7,44.8C9302.1-1450.3,9901.9-677.1,9900,166.2c0,535.6-183.1,962.1-576.5,1353.5c-372,370-753.7,547.3-1228.9,568.7l-235.6,11.7l-2,274.6c-2,325.2-50.6,545.3-179.2,814.1c-212.3,446-636.8,839.4-1080.9,1003C6275.6,4310.5,5870.5,4343.7,5572.6,4277.4z M6151,3884c348.6-46.7,627.1-185,872.5-434.3c173.3-175.3,284.3-362.2,364.2-615.4c38.9-128.5,44.8-185,44.8-461.6c0-362.2,7.8-346.7-183.1-422.6C6854,1790.4,6404.2,1360,6234.7,978.3l-38.9-87.6L6053.6,877c-350.5-31.2-761.5,83.7-1038,294.1c-122.7,93.5-317.5,309.7-385.6,426.5C4248.2,2248.1,4417.7,3161.5,4998,3590C5336.9,3839.2,5734.2,3942.5,6151,3884z M8416,1626.8c255.1-74,436.3-181.1,634.9-379.8c150-148,190.9-204.5,266.8-360.3c136.3-276.6,159.7-385.6,159.7-730.3c-2-278.5-3.9-299.9-64.3-477.2C9193-955.6,8659.4-1333.4,7977.8-1333.4c-679.7,0-1221.1,381.7-1433.4,1012.7c-48.7,148-64.3,227.9-72.1,401.2c-21.4,484.9,112.9,845.2,434.3,1168.5c148,150,204.5,190.9,360.3,268.8c262.9,128.5,453.8,169.4,759.5,159.7C8199.8,1671.6,8312.8,1658,8416,1626.8z M1628.8,1498.3c183.1-29.2,338.9-60.4,348.6-68.2c31.2-27.3-91.5-235.6-204.5-352.5c-132.4-134.4-338.9-241.5-531.7-272.7c-70.1-11.7-132.4-17.5-138.3-13.6c-7.8,9.7,99.3,699.2,118.8,753.7c3.9,13.6,23.4,21.4,40.9,15.6C1282.2,1556.7,1447.7,1527.5,1628.8,1498.3z M3543.2,1177l1065.3-177.2l93.5-77.9c346.7-290.2,808.2-463.5,1228.9-463.5h140.2l-13.6-140.2c-70.1-718.6,358.3-1480.1,1038-1844.3c188.9-103.2,463.5-192.8,634.9-208.4c111-9.7,140.2-19.5,138.3-44.8c0-17.5-23.4-171.4-52.6-342.8l-54.5-311.6l-173.3-11.7c-356.4-25.3-652.4-169.4-934.8-453.8c-150-149.9-192.8-208.4-270.7-368.1c-89.6-179.2-99.3-190.9-146.1-181.1c-27.3,5.8-1028.3,173.3-2222.1,372c-1193.8,198.7-2194.9,366.1-2224.1,372c-46.7,9.7-52.6,19.5-64.3,130.5c-40.9,370-200.6,693.3-463.5,942.6c-124.6,118.8-311.6,243.4-434.3,290.2c-72.1,27.2-85.7,40.9-77.9,74c3.9,23.4,68.2,401.2,140.2,841.3l132.4,800.4l138.3,11.7c488.8,42.9,960.1,370,1174.4,816c48.7,103.2,83.8,151.9,107.1,151.9C2462.4,1354.2,2957,1274.3,3543.2,1177z M805-1783.3c255.1-128.6,461.6-416.8,500.5-699.2c9.7-70.1,13.6-130.5,9.7-134.4c-7.8-9.7-751.7,111-763.4,124.6c-7.8,7.8,118.8,769.3,128.5,769.3C682.3-1722.9,738.8-1750.2,805-1783.3z M7623.3-3245.9c-37-218.1-74-401.2-79.8-407c-7.8-7.8-196.7,17.5-418.7,56.5l-405.1,70.1l11.7,48.7c23.4,93.5,146.1,270.7,257.1,372c173.3,159.7,389.5,249.3,601.8,251.2l99.3,2L7623.3-3245.9z"/><path d="M5835.5,3627c-50.6-50.6-68.2-83.8-68.2-134.4c0-58.4-9.7-68.2-97.4-109.1c-222-101.3-389.5-340.8-389.5-560.9c0-286.3,194.7-473.2,660.2-631c284.3-95.4,335-146.1,288.2-286.3c-60.4-185-393.4-188.9-619.3-5.8c-142.2,114.9-241.5,120.8-338.9,19.5c-58.4-62.3-72.1-161.6-31.2-239.5c33.1-62.3,259-210.3,407-264.9c103.2-38.9,120.7-52.6,120.7-93.5c0-27.3,25.3-72.1,56.5-105.2c122.7-120.7,352.5-35,352.5,132.4c0,23.4,29.2,46.7,91.5,72.1c50.6,21.4,138.3,85.7,202.5,150c237.6,237.6,255.1,521.9,44.8,755.6c-101.3,111-272.7,206.4-537.5,292.1c-270.7,89.6-335,167.5-259,311.6c35.1,70.1,120.8,105.2,251.3,103.2c122.7,0,167.5-21.4,264.8-122.7c60.4-64.3,83.8-75.9,150-75.9c150,0,251.2,142.2,194.8,276.6c-37,85.7-206.4,237.6-313.6,278.5c-77.9,29.2-85.7,39-95.4,111c-13.6,103.2-81.8,171.4-185,185C5913.4,3695.1,5897.8,3689.3,5835.5,3627z"/><path d="M7917.4,1416.5c-54.5-42.9-85.7-105.2-85.7-173.3c0-46.7-13.7-60.4-89.6-91.5c-48.7-19.5-136.3-83.8-194.7-140.2c-173.3-167.5-233.7-358.3-175.3-555c56.5-196.7,241.5-354.5,531.7-455.7c286.3-99.3,358.3-132.4,385.6-173.3c60.4-83.8,13.7-222-87.6-264.9c-101.3-42.9-266.8-25.3-399.2,38.9c-64.3,33.1-146.1,79.9-183.1,107.1c-146.1,107.1-335,17.5-333-159.7c1.9-74,37-130.5,116.8-192.8c74-56.5,364.2-202.5,401.2-202.5c11.7,0,27.3-35.1,33.1-79.8c13.6-97.4,76-169.4,161.6-185c79.8-15.6,128.5,0,190.9,64.3c35.1,35.1,50.6,70.1,50.6,120.8c0,66.2,7.8,74,97.4,116.8C8663.3-655.7,8815.2-309,8677-32.5c-89.6,179.2-276.6,305.8-621.3,420.7c-270.7,87.6-321.3,142.2-274.6,286.3c31.2,95.4,124.6,138.3,280.4,130.5c114.9-7.8,124.6-11.7,218.1-103.2c87.6-87.6,107.1-97.4,185-97.4c148,0,243.4,144.1,185,282.4c-33.1,81.8-179.2,208.4-303.8,266.8c-97.4,44.8-105.2,52.6-105.2,116.9c0,101.3-87.7,181.1-198.7,181.1C7991.4,1451.6,7940.8,1437.9,7917.4,1416.5z"/><path d="M4491.7,627.8c-39-33.1-58.4-79.9-83.7-196.7l-33.1-153.9l-120.8-25.3C3997,199.3,3747.7,12.3,3648.4-200c-58.4-126.6-70.1-331.1-27.3-455.7c54.5-153.8,272.7-387.5,461.6-498.6c19.5-9.7,9.7-95.4-46.7-379.8l-70.1-364.2l-77.9,50.6c-42.8,29.2-140.2,113-216.2,185c-120.7,116.9-150,134.4-212.3,134.4c-56.5,0-87.6-15.6-138.3-66.2c-74-74-85.7-150-37-243.4c40.9-81.8,280.4-294.1,416.8-372c202.5-114.9,187-93.5,159.7-247.3c-29.2-163.6-15.6-224,60.4-288.2c70.1-58.4,157.7-62.3,243.4-9.7c62.3,37,79.8,77.9,116.9,270.7l15.6,83.7l142.2,37c270.7,68.2,484.9,229.8,584.3,440.1c42.9,93.5,52.6,140.2,52.6,268.8c0,132.4-9.7,171.4-56.5,261c-66.2,128.5-216.2,292.1-344.7,373.9c-52.6,33.1-95.4,74-95.4,93.5c0,17.5,29.2,181.1,64.3,366.1c72.1,379.8,79.9,387.6,190.9,188.9c95.4-165.5,231.8-210.3,346.7-112.9c79.8,66.2,95.4,153.8,44.8,262.9c-48.7,113-194.8,270.7-319.4,350.6c-56.5,35.1-107.1,66.2-111,68.2c-2,3.9,5.8,66.2,17.5,140.2c29.2,159.7,17.5,224-52.6,288.2C4692.3,688.1,4563.7,690.1,4491.7,627.8z M4263.8-334.3c-19.5-105.2-46.7-237.6-56.5-296l-21.4-103.2l-75.9,74c-42.8,40.9-83.7,101.3-93.5,134.4c-17.5,72.1,3.9,175.3,52.6,241.5c46.7,62.3,153.9,138.3,198.7,138.3C4298.9-145.4,4298.9-157.1,4263.8-334.3z M4606.6-1489.2c91.5-111,79.9-264.9-33.1-387.5c-44.8-46.8-165.5-109.1-183.1-91.5c-5.8,5.8,13.6,136.3,42.9,292.1C4491.7-1362.6,4495.6-1358.7,4606.6-1489.2z"/></g></g>
</svg>