<?xml version="1.0" encoding="UTF-8" standalone="no"?>
<svg
   xmlns:dc="http://purl.org/dc/elements/1.1/"
   xmlns:cc="http://creativecommons.org/ns#"
   xmlns:rdf="http://www.w3.org/1999/02/22-rdf-syntax-ns#"
   xmlns:svg="http://www.w3.org/2000/svg"
   xmlns="http://www.w3.org/2000/svg"
   xmlns:sodipodi="http://sodipodi.sourceforge.net/DTD/sodipodi-0.dtd"
   xmlns:inkscape="http://www.inkscape.org/namespaces/inkscape"
   width="20"
   height="20"
   viewBox="0 0 20 20"
   version="1.1"
   id="svg4"
   sodipodi:docname="copyright.svg"
   inkscape:version="0.92.5 (2060ec1f9f, 2020-04-08)"
   style="fill:none">
  <metadata
     id="metadata10">
    <rdf:RDF>
      <cc:Work
         rdf:about="">
        <dc:format>image/svg+xml</dc:format>
        <dc:type
           rdf:resource="http://purl.org/dc/dcmitype/StillImage" />
      </cc:Work>
    </rdf:RDF>
  </metadata>
  <defs
     id="defs8" />
  <sodipodi:namedview
     pagecolor="#ffffff"
     bordercolor="#666666"
     borderopacity="1"
     objecttolerance="10"
     gridtolerance="10"
     guidetolerance="10"
     inkscape:pageopacity="0"
     inkscape:pageshadow="2"
     inkscape:window-width="640"
     inkscape:window-height="480"
     id="namedview6"
     showgrid="false"
     inkscape:zoom="16.68772"
     inkscape:cx="7.5715453"
     inkscape:cy="7.3459724"
     inkscape:current-layer="svg4" />
  <path
     d="M 8.4941968,9.1059293 C 8.5334104,8.8471194 8.6196804,8.6196804 8.7294785,8.4236123 8.8392767,8.2275441 8.9961312,8.0628469 9.1921993,7.9373633 9.3804247,7.8197224 9.6157065,7.7648234 9.9058877,7.7569806 c 0.1803823,0.00784 0.3450793,0.039214 0.4940913,0.1019555 0.156854,0.070584 0.298024,0.1646972 0.407822,0.2823381 0.109798,0.1176408 0.196068,0.2588099 0.266652,0.4156644 0.07058,0.1568545 0.101956,0.3293944 0.109798,0.5019344 h 1.403848 C 12.572414,8.6902649 12.501829,8.3530277 12.368503,8.0471615 12.235177,7.7412952 12.054794,7.4746425 11.819512,7.2550462 11.58423,7.0354499 11.301892,6.86291 10.972498,6.7374264 10.643103,6.6119428 10.282338,6.5570437 9.8823595,6.5570437 c -0.5097775,0 -0.9568128,0.08627 -1.3332636,0.2666526 C 8.1726451,7.004079 7.8589361,7.2393608 7.6079689,7.5452271 7.3570017,7.8510933 7.1687762,8.204016 7.0511354,8.6118377 6.9334945,9.0196594 6.86291,9.4431665 6.86291,9.8980443 v 0.2117537 c 0,0.454878 0.062742,0.878385 0.1803826,1.286207 0.1176409,0.407822 0.3058663,0.760744 0.5568335,1.058768 0.2509672,0.298024 0.5646762,0.541148 0.941127,0.713688 0.3764508,0.17254 0.8234862,0.266653 1.3332637,0.266653 0.3686072,0 0.7136872,-0.06274 1.0352392,-0.180383 0.321552,-0.117641 0.60389,-0.282338 0.847014,-0.494092 0.243125,-0.211753 0.439193,-0.454878 0.580362,-0.737216 0.141169,-0.282338 0.227439,-0.580362 0.235282,-0.901913 h -1.403848 c -0.0078,0.164697 -0.04706,0.313709 -0.117641,0.454878 -0.07058,0.141169 -0.164697,0.25881 -0.282338,0.360765 -0.117641,0.101956 -0.250967,0.180383 -0.407822,0.235282 -0.149011,0.0549 -0.305866,0.07058 -0.4705628,0.07843 C 9.6078637,12.243019 9.372582,12.18812 9.1921993,12.070479 8.9961312,11.944996 8.8392767,11.780299 8.7294785,11.58423 8.6196804,11.388162 8.5334104,11.152881 8.4941968,10.894071 8.4549832,10.635261 8.431455,10.368608 8.431455,10.109798 V 9.8980443 c 0,-0.2744951 0.023528,-0.533305 0.062742,-0.792115 z M 10,2.1572749 c -4.3291842,0 -7.8427251,3.5135409 -7.8427251,7.8427248 0,4.3291843 3.5135409,7.8427253 7.8427251,7.8427253 4.329184,0 7.842725,-3.513541 7.842725,-7.8427253 C 17.842725,5.6708158 14.329184,2.1572749 10,2.1572749 Z M 10,16.27418 c -3.4586418,0 -6.2741801,-2.815538 -6.2741801,-6.2741803 0,-3.4586415 2.8155383,-6.2741798 6.2741801,-6.2741798 3.458642,0 6.27418,2.8155383 6.27418,6.2741798 0,3.4586423 -2.815538,6.2741803 -6.27418,6.2741803 z"
     id="path2"
     style="fill:#000000;fill-opacity:1;stroke-width:0.78427249"
     inkscape:connector-curvature="0" />
</svg>
