<svg width="14" height="16" viewBox="0 0 14 16" fill="none" xmlns="http://www.w3.org/2000/svg">
<path d="M8.71478 7.99533V15.0032C8.73645 15.138 8.7246 15.2762 8.68028 15.4051C8.63597 15.534 8.56056 15.6497 8.46103 15.7414C8.29711 15.907 8.07541 16 7.84428 16C7.61315 16 7.39145 15.907 7.22753 15.7414L5.47778 13.9627C5.38296 13.8675 5.31072 13.7513 5.26675 13.6234C5.22277 13.4954 5.2082 13.3591 5.22403 13.2245V8.00402L0.18473 1.44083C0.0426575 1.25543 -0.0214882 1.02037 0.0063802 0.78707C0.0342486 0.553773 0.151904 0.341292 0.333498 0.195845C0.487423 0.0703057 0.678576 0.00116361 0.875917 0H13.1242C13.3215 0.00116361 13.5127 0.0703057 13.6666 0.195845C13.8482 0.341292 13.9658 0.553773 13.9936 0.78707C14.0215 1.02037 13.9573 1.25543 13.8153 1.44083L8.77597 8.00402L8.71478 7.99533Z" fill="white"/>
</svg>
