<?xml version="1.0" encoding="UTF-8" standalone="no"?>
<svg
   xmlns:dc="http://purl.org/dc/elements/1.1/"
   xmlns:cc="http://creativecommons.org/ns#"
   xmlns:rdf="http://www.w3.org/1999/02/22-rdf-syntax-ns#"
   xmlns:svg="http://www.w3.org/2000/svg"
   xmlns="http://www.w3.org/2000/svg"
   xmlns:sodipodi="http://sodipodi.sourceforge.net/DTD/sodipodi-0.dtd"
   xmlns:inkscape="http://www.inkscape.org/namespaces/inkscape"
   width="100"
   height="100"
   viewBox="0 0 100 100"
   version="1.1"
   id="svg8"
   sodipodi:docname="layers.svg"
   inkscape:version="0.92.5 (2060ec1f9f, 2020-04-08)"
   style="fill:none">
  <metadata
     id="metadata14">
    <rdf:RDF>
      <cc:Work
         rdf:about="">
        <dc:format>image/svg+xml</dc:format>
        <dc:type
           rdf:resource="http://purl.org/dc/dcmitype/StillImage" />
        <dc:title></dc:title>
      </cc:Work>
    </rdf:RDF>
  </metadata>
  <defs
     id="defs12" />
  <sodipodi:namedview
     pagecolor="#ffffff"
     bordercolor="#666666"
     borderopacity="1"
     objecttolerance="10"
     gridtolerance="10"
     guidetolerance="10"
     inkscape:pageopacity="0"
     inkscape:pageshadow="2"
     inkscape:window-width="1920"
     inkscape:window-height="999"
     id="namedview10"
     showgrid="false"
     inkscape:zoom="5.6568542"
     inkscape:cx="83.509105"
     inkscape:cy="42.25915"
     inkscape:window-x="0"
     inkscape:window-y="0"
     inkscape:window-maximized="1"
     inkscape:current-layer="svg8" />
  <path
     d="m 99.121956,29.976384 c -0.352319,0.827558 -1.010404,1.286454 -1.786559,1.698932 C 81.950425,39.819417 66.576048,47.9766 51.214917,56.164327 50.350967,56.623222 49.728833,56.602861 48.87245,56.14622 33.513666,47.955862 18.136716,39.801316 2.7623776,31.639232 0.56162839,30.471367 0.40223092,27.679304 2.4564303,26.217549 2.7932195,25.977807 3.1634352,25.784445 3.5285042,25.585917 18.226706,17.645436 32.935202,9.7204527 47.615314,1.7464766 49.340565,0.80805546 50.844437,0.83641499 52.55947,1.769855 67.183046,9.7154641 81.829706,17.61986 96.484313,25.506193 c 1.20567,0.649657 2.167256,1.430835 2.637643,2.740479 0,0.577483 0,1.152406 0,1.72989 z"
     id="path2"
     style="fill:#030000;fill-opacity:1;stroke-width:3.77748823;stroke:none"
     inkscape:connector-curvature="0" />
  <path
     d="M 49.104049,99.358227 C 44.712775,96.981166 40.321502,94.601846 35.927731,92.227428 25.067995,86.359443 14.208259,80.497116 3.3485241,74.626869 1.3328713,73.538641 0.46902716,71.829377 1.2403155,70.086931 1.5796818,69.321099 2.2301382,68.552628 2.942282,68.122389 c 2.0696204,-1.255646 4.2292307,-2.369516 6.3914144,-3.462645 0.323934,-0.164782 0.9126916,-0.04637 1.2726516,0.144418 12.348318,6.530498 24.69149,13.068538 37.006317,19.657859 1.689301,0.902332 3.167439,0.925709 4.859388,0.02073 12.289057,-6.571599 24.611793,-13.08362 36.906148,-19.645038 0.714471,-0.381596 1.223456,-0.366137 1.902355,0.02827 1.624968,0.946449 3.280589,1.846142 4.964592,2.686634 1.267353,0.634234 2.303488,1.453988 2.874156,2.784294 0,0.577297 0,1.152331 0,1.729627 -0.490824,1.340866 -1.493653,2.127059 -2.722407,2.786934 -10.667116,5.726205 -21.313419,11.487855 -31.965019,17.24234 -4.473392,2.415518 -8.941865,4.841595 -13.409958,7.262401 -0.6403,0 -1.280221,0 -1.917871,0 z"
     id="path4"
     style="fill:#030000;fill-opacity:1;stroke-width:3.77748823;stroke:none"
     inkscape:connector-curvature="0" />
  <path
     d="m 98.605401,51.116473 c -0.390539,0.848033 -1.120903,1.281288 -1.915223,1.701345 C 81.277202,60.982544 65.872173,69.157826 50.479632,77.361013 49.762513,77.742609 49.263744,77.69623 48.579926,77.332731 33.128275,69.10353 17.66652,60.900342 2.204757,52.68886 0.21740311,51.63457 -0.1296755,49.319351 1.487459,47.710765 c 0.3547909,-0.353316 0.8021377,-0.631594 1.2443416,-0.876692 1.8973601,-1.046748 3.8307465,-2.03656 5.7100934,-3.11687 0.640186,-0.368399 1.1081116,-0.327298 1.74054,0.01056 12.268659,6.537662 24.560402,13.031962 36.813773,19.598282 1.794503,0.961908 3.324108,0.95399 5.115962,-0.0076 12.253485,-6.566321 24.54746,-13.05798 36.816082,-19.598659 0.63538,-0.337856 1.105765,-0.368776 1.740767,-0.0027 1.652971,0.961532 3.332054,1.887241 5.04671,2.733013 1.267354,0.623676 2.298568,1.430608 2.892325,2.740177 -0.003,0.644792 -0.003,1.286567 -0.003,1.926081 z"
     id="path6"
     style="fill:#030000;fill-opacity:1;stroke-width:3.77748823;stroke:none"
     inkscape:connector-curvature="0" />
</svg>
