<?xml version="1.0" encoding="UTF-8" standalone="no"?>
<svg
        xmlns:dc="http://purl.org/dc/elements/1.1/"
        xmlns:cc="http://creativecommons.org/ns#"
        xmlns:rdf="http://www.w3.org/1999/02/22-rdf-syntax-ns#"
        xmlns="http://www.w3.org/2000/svg"
        id="svg9"
        version="1.1"
        viewBox="0 0 24 24">
    <metadata
            id="metadata13">
        <rdf:RDF>
            <cc:Work
                    rdf:about="">
                <dc:format>image/svg+xml</dc:format>
                <dc:type
                        rdf:resource="http://purl.org/dc/dcmitype/StillImage"/>
                <dc:title></dc:title>
            </cc:Work>
        </rdf:RDF>
    </metadata>
    <defs
            id="defs4">
        <style
                id="style2">.cls-1{fill:#000;}
        </style>
    </defs>
    <g
            data-name="Calque 1"
            id="Calque_1">
        <path
                id="path6"
                d="M23.86,11.25H20A8.09,8.09,0,0,0,12.77,4V.11H11.23V4A8.11,8.11,0,0,0,4,11.29H.14v1.58H4a8.06,8.06,0,0,0,7.26,7.25V24h1.54V20.11A8.06,8.06,0,0,0,20,12.86h3.83V11.25ZM12,18.55a6.45,6.45,0,0,1-3.61-1.1,6.51,6.51,0,0,1-2.77-6.69A6.59,6.59,0,0,1,7.4,7.43,6.51,6.51,0,0,1,14.49,6a6.49,6.49,0,0,1,4,6,6.52,6.52,0,0,1-1.9,4.62,6.37,6.37,0,0,1-2.12,1.42,6.49,6.49,0,0,1-2.5.5Z"
                class="cls-1"/>
    </g>
    <path
            id="path820"
            d="M 3.1887134,2.3641419 A 0.53296954,0.53296954 0 0 0 2.8473139,3.2696832 L 19.973494,21.261852 a 0.53302379,0.53302379 0 1 0 0.772311,-0.734841 L 3.6196261,2.5348416 A 0.53296954,0.53296954 0 0 0 3.1887134,2.3641419 Z"
            style="color:#000000;font-style:normal;font-variant:normal;font-weight:normal;font-stretch:normal;font-size:medium;line-height:normal;font-family:sans-serif;font-variant-ligatures:normal;font-variant-position:normal;font-variant-caps:normal;font-variant-numeric:normal;font-variant-alternates:normal;font-feature-settings:normal;text-indent:0;text-align:start;text-decoration:none;text-decoration-line:none;text-decoration-style:solid;text-decoration-color:#000000;letter-spacing:normal;word-spacing:normal;text-transform:none;writing-mode:lr-tb;direction:ltr;text-orientation:mixed;dominant-baseline:auto;baseline-shift:baseline;text-anchor:start;white-space:normal;shape-padding:0;clip-rule:nonzero;display:inline;overflow:visible;visibility:visible;opacity:1;isolation:auto;mix-blend-mode:normal;color-interpolation:sRGB;color-interpolation-filters:linearRGB;solid-color:#000000;solid-opacity:1;vector-effect:none;fill:#bd0f00;fill-opacity:1;fill-rule:nonzero;stroke:#ffffff !important;stroke-width:0.42633301;stroke-linecap:round;stroke-linejoin:miter;stroke-miterlimit:4;stroke-dasharray:none;stroke-dashoffset:0;stroke-opacity:1;color-rendering:auto;image-rendering:auto;shape-rendering:auto;text-rendering:auto;enable-background:accumulate"/>
</svg>
