<svg width="22" height="22" viewBox="0 0 22 22" fill="none" xmlns="http://www.w3.org/2000/svg">
<path d="M15.346 13.5045H14.3761L14.0324 13.173C15.2355 11.7734 15.9598 9.95647 15.9598 7.97991C15.9598 3.57254 12.3873 0 7.97991 0C3.57254 0 0 3.57254 0 7.97991C0 12.3873 3.57254 15.9598 7.97991 15.9598C9.95647 15.9598 11.7734 15.2355 13.173 14.0324L13.5045 14.3761V15.346L19.6429 21.4721L21.4721 19.6429L15.346 13.5045ZM7.97991 13.5045C4.92299 13.5045 2.45536 11.0368 2.45536 7.97991C2.45536 4.92299 4.92299 2.45536 7.97991 2.45536C11.0368 2.45536 13.5045 4.92299 13.5045 7.97991C13.5045 11.0368 11.0368 13.5045 7.97991 13.5045ZM4.91071 7.36607H11.0491V8.59375H4.91071V7.36607Z" fill="white"/>
</svg>
