<?xml version="1.0" encoding="UTF-8" standalone="no"?>
<svg
   version="1.1"
   id="svg4"
   sodipodi:docname="nfc_card.svg"
   width="612.04352"
   height="433.42136"
   inkscape:version="1.1.1 (1:1.1+202109281949+c3084ef5ed)"
   xmlns:inkscape="http://www.inkscape.org/namespaces/inkscape"
   xmlns:sodipodi="http://sodipodi.sourceforge.net/DTD/sodipodi-0.dtd"
   xmlns="http://www.w3.org/2000/svg"
   xmlns:svg="http://www.w3.org/2000/svg">
  <defs
     id="defs8" />
  <sodipodi:namedview
     id="namedview6"
     pagecolor="#505050"
     bordercolor="#eeeeee"
     borderopacity="1"
     inkscape:pageshadow="0"
     inkscape:pageopacity="0"
     inkscape:pagecheckerboard="0"
     showgrid="false"
     inkscape:zoom="0.26045375"
     inkscape:cx="-483.77111"
     inkscape:cy="552.88127"
     inkscape:current-layer="svg4" />
  <path
     path-name="ampersand"
     unicode="&amp;"
     horiz-adv-x="713"
     d="m 568.7017,9e-4 c 23.9375,0 43.3418,19.4033 43.3418,43.3408 v 261.312 c 0,23.9375 -19.4033,43.3428 -43.3408,43.3428 h -220.968 c -20.873,0 -38.291,-14.7578 -42.4092,-34.4072 l -106.996,107 c -17.1162,17.1094 -44.9492,17.1094 -62.0654,0 L 12.8311,297.1583 C 4.27641,288.59678 0,277.3624 0,266.1261 0,254.8898 4.27637,243.6554 12.8311,235.0939 l 215.638,-215.629 c 8.29199,-8.28613 19.3096,-12.8467 31.0322,-12.8467 11.7139,0 22.7314,4.56152 31.0234,12.8457 L 305.3528,34.292 C 309.51784,14.7012 326.9026,0 347.7337,0 h 220.968 z m -172.105,187.591 c 3.77539,-3.76855 5.65527,-8.71973 5.65527,-13.6641 0,-4.95117 -1.87988,-9.90234 -5.65527,-13.6699 L 273.1637,36.8249 c -7.53418,-7.54297 -19.7959,-7.54297 -27.332,0 l -215.638,215.629 c -7.55078,7.53809 -7.55078,19.8066 0,27.3408 l 123.433,123.433 c 7.53613,7.54297 19.8047,7.54297 27.3408,0.009 z m 39.481,26.841 16.4277,16.4297 c 13.1621,-16.0303 20.3193,-35.9385 20.3193,-56.9414 0,-19.8311 -6.46875,-38.6279 -18.251,-54.1572 l -16.4326,16.4326 c 7.57227,11.0322 11.6738,24.0566 11.6738,37.7246 0,14.8447 -4.86426,28.9111 -13.7373,40.5117 z m 32.697,32.699 16.2686,16.2686 c 21.7842,-24.7969 33.7988,-56.1846 33.7988,-89.4795 0,-32.1475 -11.1299,-62.5615 -31.4932,-86.9365 l -16.3477,16.3496 c 16.0625,19.9697 24.8311,44.5996 24.8311,70.5869 0,27.1514 -9.59473,52.79 -27.0576,73.2109 z m 48.961,48.962 c 30.4561,-33.5215 47.1279,-76.5605 47.126,-122.172 0,-44.4512 -15.877,-86.4395 -44.8682,-119.582 l -16.373,16.373 c 24.6719,28.7627 38.2305,64.918 38.2305,103.209 0,39.4434 -14.4307,76.5918 -40.5381,105.749 z"
     id="path2" />
</svg>
