<svg><path transform="scale(1,-1)" path-name="ampersand" unicode="&#x26;" horiz-adv-x="713" d="M618.701 494.586c23.9375 0 43.3418 -19.4033 43.3418 -43.3408v-261.312c0 -23.9375 -19.4033 -43.3428 -43.3408 -43.3428h-220.968c-20.873 0 -38.291 14.7578 -42.4092 34.4072l-106.996 -107c-17.1162 -17.1094 -44.9492 -17.1094 -62.0654 0l-123.433 123.431c-8.55469 8.56152 -12.8311 19.7959 -12.8311 31.0322s4.27637 22.4707 12.8311 31.0322l215.638 215.629c8.29199 8.28613 19.3096 12.8467 31.0322 12.8467c11.7139 0 22.7314 -4.56152 31.0234 -12.8457l14.8281 -14.8281c4.16504 19.5908 21.5498 34.292 42.3809 34.292h220.968zM446.596 306.995c3.77539 3.76855 5.65527 8.71973 5.65527 13.6641c0 4.95117 -1.87988 9.90234 -5.65527 13.6699l-123.433 123.433c-7.53418 7.54297 -19.7959 7.54297 -27.332 0l-215.638 -215.629c-7.55078 -7.53809 -7.55078 -19.8066 0 -27.3408l123.433 -123.433c7.53613 -7.54297 19.8047 -7.54297 27.3408 -0.00878906zM486.077 280.154l16.4277 -16.4297c13.1621 16.0303 20.3193 35.9385 20.3193 56.9414c0 19.8311 -6.46875 38.6279 -18.251 54.1572l-16.4326 -16.4326c7.57227 -11.0322 11.6738 -24.0566 11.6738 -37.7246c0 -14.8447 -4.86426 -28.9111 -13.7373 -40.5117zM518.774 247.455l16.2686 -16.2686c21.7842 24.7969 33.7988 56.1846 33.7988 89.4795c0 32.1475 -11.1299 62.5615 -31.4932 86.9365l-16.3477 -16.3496c16.0625 -19.9697 24.8311 -44.5996 24.8311 -70.5869c0 -27.1514 -9.59473 -52.79 -27.0576 -73.2109zM567.735 198.493c30.4561 33.5215 47.1279 76.5605 47.126 122.172c0 44.4512 -15.877 86.4395 -44.8682 119.582l-16.373 -16.373c24.6719 -28.7627 38.2305 -64.918 38.2305 -103.209c0 -39.4434 -14.4307 -76.5918 -40.5381 -105.749z" />    </svg>
