<?xml version="1.0" encoding="UTF-8" standalone="no"?>
<!-- Generator: Adobe Illustrator 24.0.2, SVG Export Plug-In . SVG Version: 6.00 Build 0)  -->

<svg
   version="1.1"
   id="Calque_1"
   x="0px"
   y="0px"
   width="343.25757mm"
   height="343.25757mm"
   viewBox="0 0 1297.3515 1297.3513"
   xml:space="preserve"
   sodipodi:docname="panoramax_bw.svg"
   inkscape:version="1.3.2 (1:1.3.2+202311252150+091e20ef0f)"
   xmlns:inkscape="http://www.inkscape.org/namespaces/inkscape"
   xmlns:sodipodi="http://sodipodi.sourceforge.net/DTD/sodipodi-0.dtd"
   xmlns="http://www.w3.org/2000/svg"
   xmlns:svg="http://www.w3.org/2000/svg"
   xmlns:rdf="http://www.w3.org/1999/02/22-rdf-syntax-ns#"
   xmlns:cc="http://creativecommons.org/ns#"
   xmlns:dc="http://purl.org/dc/elements/1.1/"><sodipodi:namedview
   id="namedview1"
   pagecolor="#ffffff"
   bordercolor="#999999"
   borderopacity="1"
   inkscape:showpageshadow="2"
   inkscape:pageopacity="0"
   inkscape:pagecheckerboard="0"
   inkscape:deskcolor="#d1d1d1"
   inkscape:document-units="mm"
   inkscape:zoom="0.45168948"
   inkscape:cx="618.78793"
   inkscape:cy="809.18422"
   inkscape:window-width="1920"
   inkscape:window-height="995"
   inkscape:window-x="0"
   inkscape:window-y="0"
   inkscape:window-maximized="1"
   inkscape:current-layer="Calque_1" /><metadata
   id="metadata118"><rdf:RDF><cc:Work
       rdf:about=""><dc:format>image/svg+xml</dc:format><dc:type
         rdf:resource="http://purl.org/dc/dcmitype/StillImage" /></cc:Work></rdf:RDF></metadata><defs
   id="defs72"><rect
     x="1150.3843"
     y="2292.8162"
     width="2107.8879"
     height="701.88715"
     id="rect141823" /><rect
     x="411.88269"
     y="1261.6108"
     width="815.34668"
     height="181.92911"
     id="rect66775" /><rect
     x="253.02008"
     y="1213.0352"
     width="2209.7197"
     height="583.65765"
     id="rect60279" /><rect
     x="1150.3843"
     y="2292.8162"
     width="2551.0081"
     height="701.39136"
     id="rect141823-1" /><linearGradient
     y2="62.288601"
     x2="248.6918"
     y1="231.7114"
     x1="346.50821"
     gradientUnits="userSpaceOnUse"
     id="SVGID_1_"
     gradientTransform="matrix(6.6326761,0,0,6.6326761,-1325.2087,-326.32767)">
		<stop
   id="stop4"
   style="stop-color:#8F2A85"
   offset="0" />
		<stop
   id="stop6"
   style="stop-color:#2570B6"
   offset="1" />
	</linearGradient></defs>
<style
   type="text/css"
   id="style2">
	.st0{fill:url(#SVGID_1_);}
	.st1{fill:#FFFFFF;}
	.st2{display:none;fill:none;stroke:#E62054;stroke-width:7.5;stroke-miterlimit:10;}
</style>

<text
   y="-2248.8188"
   style="font-style:normal;font-weight:normal;font-size:40px;line-height:125%;font-family:Sans;letter-spacing:0px;word-spacing:0px;white-space:pre;shape-inside:url(#rect60279);display:inline;fill:#000000;fill-opacity:1;stroke:none;stroke-width:1px;stroke-linecap:butt;stroke-linejoin:miter;stroke-opacity:1"
   id="text60277"
   xml:space="preserve"
   transform="matrix(0.99999889,0,0,0.99999889,-164.71991,-165.18467)" /><text
   y="-4324.1934"
   x="304.06815"
   style="font-style:normal;font-weight:normal;font-size:89.8058px;line-height:200%;font-family:Sans;letter-spacing:0px;word-spacing:0px;white-space:pre;shape-inside:url(#rect66775);display:inline;fill:#000000;fill-opacity:1;stroke:none;stroke-width:2.24515px;stroke-linecap:butt;stroke-linejoin:miter;stroke-opacity:1"
   id="text66773"
   xml:space="preserve"
   transform="matrix(0.99999889,0,0,0.99999889,-164.71991,-165.18467)" /><text
   y="-2248.5173"
   x="-121.66869"
   style="font-style:normal;font-weight:normal;font-size:40px;line-height:0;font-family:Sans;letter-spacing:0px;word-spacing:0px;white-space:pre;shape-inside:url(#rect141823);display:inline;fill:#000000;fill-opacity:1;stroke:none;stroke-width:1px;stroke-linecap:butt;stroke-linejoin:miter;stroke-opacity:1"
   id="text141821"
   xml:space="preserve"
   transform="matrix(0.99999889,0,0,0.99999889,-164.71991,-165.18467)" /><text
   y="-3181.1731"
   x="-158.83984"
   style="font-style:normal;font-weight:normal;font-size:40px;line-height:0;font-family:Sans;letter-spacing:0px;word-spacing:0px;white-space:pre;shape-inside:url(#rect141823-1);display:inline;fill:#000000;fill-opacity:1;stroke:none;stroke-width:1px;stroke-linecap:butt;stroke-linejoin:miter;stroke-opacity:1"
   id="text141821-0"
   xml:space="preserve"
   transform="matrix(0.99999889,0,0,0.99999889,-164.71991,-165.18467)" /><path
   style="display:none;fill:none;stroke:#e62054;stroke-width:49.7451;stroke-miterlimit:10"
   id="path49"
   d="m 1065.871,503.42011 c -19.2347,0 -35.1531,-15.91842 -35.1531,-35.15318 V 334.28687 H 870.87032 c -19.23476,0 -35.15319,-15.91842 -35.15319,-35.15318 0,-19.23476 15.91843,-35.15319 35.15319,-35.15319 H 1065.871 c 19.2348,0 35.1532,15.91843 35.1532,35.15319 v 169.13324 c 0.6633,19.23476 -15.2551,35.15318 -35.1532,35.15318 z"
   class="st2" /><path
   style="display:none;fill:none;stroke:#e62054;stroke-width:49.7451;stroke-miterlimit:10"
   id="path53"
   d="M 426.48102,1032.7077 H 231.48034 c -19.23476,0 -35.15318,-15.9185 -35.15318,-35.15322 V 828.42124 c 0,-19.23476 15.91842,-35.15318 35.15318,-35.15318 19.23476,0 35.15318,15.91842 35.15318,35.15318 v 133.31679 h 159.8475 c 19.23476,0 35.15318,15.91842 35.15318,35.15318 0,19.23479 -15.25515,35.81649 -35.15318,35.81649 z"
   class="st2" /><path
   style="display:none;fill:none;stroke:#e62054;stroke-width:49.7451;stroke-miterlimit:10"
   id="path57"
   d="m 231.48034,503.42011 c -19.23476,0 -35.15318,-15.91842 -35.15318,-35.15318 V 299.13369 c 0,-19.23476 15.91842,-35.15319 35.15318,-35.15319 h 195.00068 c 19.23476,0 35.15318,15.91843 35.15318,35.15319 0,19.23476 -15.91842,35.15318 -35.15318,35.15318 h -159.8475 v 133.31679 c 0.66327,19.89803 -15.25515,35.81645 -35.15318,35.81645 z"
   class="st2" /><path
   style="display:none;fill:none;stroke:#e62054;stroke-width:49.7451;stroke-miterlimit:10"
   id="path61"
   d="M 1065.871,1032.7077 H 870.87032 c -19.23476,0 -35.15319,-15.9185 -35.15319,-35.15322 0,-19.23476 15.91843,-35.15318 35.15319,-35.15318 H 1030.7179 V 829.08451 c 0,-19.23476 15.9184,-35.15319 35.1531,-35.15319 19.2348,0 35.1532,15.91843 35.1532,35.15319 v 169.13324 c 0.6633,18.57145 -15.2551,34.48995 -35.1532,34.48995 z"
   class="st2" /><circle
   style="fill:#ffffff;stroke-width:6.63268;fill-opacity:1"
   id="circle9"
   r="648.67572"
   cy="648.67572"
   cx="648.67572"
   class="st0" /><path
   style="fill:#000000;stroke-width:6.63268;fill-opacity:1"
   id="path11"
   d="m 361.48079,586.99183 c -0.66327,0 -1.32653,0 -1.9898,0 l -36.47972,-10.61228 c -2.65307,-0.66327 -4.64287,-3.31634 -4.64287,-6.63268 v -49.0818 c 0,-1.9898 1.32653,-3.97961 2.65307,-5.30614 1.9898,-1.32654 3.9796,-1.32654 5.96941,-0.66327 l 36.47972,13.26535 c 2.65307,0.66327 4.64287,3.31634 4.64287,5.96941 v 46.42873 c 0,1.98981 -0.66327,3.97961 -2.65307,5.30614 -1.32654,0.66327 -2.65307,1.32654 -3.97961,1.32654 z m -29.84704,-22.5511 23.21437,6.63268 v -33.16338 l -23.21437,-8.62248 z"
   class="st1" /><path
   style="fill:#000000;stroke-width:6.63268;fill-opacity:1"
   id="path13"
   d="m 361.48079,679.84929 c -0.66327,0 -0.66327,0 -1.32653,0 l -36.47972,-7.95921 c -3.31634,-0.66326 -5.30614,-3.31633 -5.30614,-6.63267 V 616.1756 c 0,-1.9898 0.66327,-3.9796 2.65307,-5.30614 1.32653,-1.32653 3.9796,-1.9898 5.96941,-1.32653 l 36.47972,9.28574 c 2.65307,0.66327 5.30614,3.31634 5.30614,6.63268 v 47.75527 c 0,1.9898 -0.66327,3.9796 -2.65307,5.30614 -1.98981,0.66327 -3.31634,1.32653 -4.64288,1.32653 z m -29.84704,-19.89802 23.21437,5.30614 v -34.48992 l -23.21437,-5.96941 z"
   class="st1" /><path
   style="fill:#000000;stroke-width:6.63268;fill-opacity:1"
   id="path15"
   d="m 421.83814,693.77791 c -0.66326,0 -1.32653,0 -1.32653,0 l -36.47972,-8.62247 c -3.31634,-0.66327 -5.30614,-3.31634 -5.30614,-6.63268 v -48.41854 c 0,-1.9898 0.66327,-3.9796 2.65307,-5.30614 1.9898,-1.32653 3.97961,-1.9898 5.96941,-1.32653 l 36.47972,9.28574 c 2.65307,0.66327 5.30614,3.31634 5.30614,6.63268 v 47.75527 c 0,1.9898 -0.66327,3.9796 -2.65307,5.30614 -1.9898,0.66327 -3.31634,1.32653 -4.64288,1.32653 z m -29.84704,-20.56129 23.21437,5.30614 v -34.48992 l -23.21437,-5.96941 z"
   class="st1" /><path
   style="fill:#000000;stroke-width:6.63268;fill-opacity:1"
   id="path17"
   d="m 506.07313,672.55335 c -0.66327,0 -1.32653,0 -1.9898,0 l -43.1124,-14.59189 c -2.65307,-0.66326 -3.9796,-3.31633 -3.9796,-5.30614 v -30.51031 c 0,-1.9898 0.66327,-3.9796 2.65307,-4.64287 1.32653,-1.32654 3.31634,-1.32654 5.30614,-0.66327 l 43.11239,15.91842 c 1.98981,0.66327 3.97961,3.31634 3.97961,5.30614 v 29.18378 c 0,1.9898 -0.66327,3.31634 -2.65307,4.64287 -0.66327,0 -1.9898,0.66327 -3.31634,0.66327 z m -37.14298,-24.5409 31.83684,10.61228 v -17.24496 l -31.83684,-11.93881 z"
   class="st1" /><path
   style="fill:#000000;stroke-width:6.63268;fill-opacity:1"
   id="path19"
   d="m 534.59364,737.55358 c -0.66327,0 -0.66327,0 -1.32654,0 l -41.78586,-9.94902 c -2.65307,-0.66327 -4.64287,-2.65307 -4.64287,-5.30614 v -31.17358 c 0,-1.9898 0.66327,-3.31633 1.9898,-4.64287 1.32654,-1.32653 3.31634,-1.32653 5.30614,-0.66327 l 41.78586,11.27555 c 2.65307,0.66327 3.97961,2.65307 3.97961,5.30614 v 29.84705 c 0,1.9898 -0.66327,3.31633 -1.9898,4.64287 -0.66327,0 -1.98981,0.66327 -3.31634,0.66327 z m -35.81645,-20.5613 30.51031,7.29594 V 706.38 l -30.51031,-7.95921 z"
   class="st1" /><path
   style="fill:#000000;stroke-width:6.63268;fill-opacity:1"
   id="path21"
   d="m 421.83814,605.56332 c -0.66326,0 -1.32653,0 -1.9898,0 l -37.14298,-9.94901 c -2.65307,-0.66327 -4.64288,-3.31634 -4.64288,-6.63268 v -49.0818 c 0,-1.9898 1.32654,-3.97961 2.65307,-5.30614 1.98981,-1.32654 3.97961,-1.32654 5.96941,-0.66327 l 37.14299,13.26535 c 2.65307,0.66327 4.64287,3.31634 4.64287,5.96941 v 45.76547 c 0,1.9898 -0.66327,3.9796 -2.65307,5.30614 -1.32653,0.66326 -2.65307,1.32653 -3.97961,1.32653 z m -30.51031,-21.88783 23.87764,6.63268 v -32.50012 l -23.87764,-8.62247 z"
   class="st1" /><path
   style="fill:#000000;stroke-width:6.63268;fill-opacity:1"
   id="path23"
   d="m 586.99178,744.18625 c -8.62248,0 -15.25516,-7.95921 -15.25516,-17.24496 0,-9.28574 6.63268,-17.24495 15.25516,-17.24495 8.62248,0 15.25515,7.95921 15.25515,17.24495 0,9.28575 -6.63267,17.24496 -15.25515,17.24496 z m 0,-25.20417 c -3.31634,0 -5.96941,3.31634 -5.96941,7.95921 0,4.64288 2.65307,7.95922 5.96941,7.95922 3.31634,0 5.96941,-3.31634 5.96941,-7.95922 0,-4.64287 -2.65307,-7.95921 -5.96941,-7.95921 z"
   class="st1" /><path
   style="fill:#000000;stroke-width:6.63268;fill-opacity:1"
   id="path25"
   d="m 937.86036,586.99183 c -1.3265,0 -2.6531,-0.66327 -3.9796,-1.32654 -1.9898,-1.32653 -2.6531,-3.31633 -2.6531,-5.30614 v -46.42873 c 0,-2.65307 1.9898,-5.30614 4.6429,-5.96941 l 36.4797,-13.26535 c 1.9898,-0.66327 3.9796,-0.66327 5.9694,0.66327 1.9898,1.32653 2.6531,3.31634 2.6531,5.30614 v 49.0818 c 0,2.65307 -1.9898,5.30614 -4.6429,6.63268 l -36.4797,10.61228 c -0.6633,0 -1.3265,0 -1.9898,0 z m 6.6327,-48.41854 v 33.16338 l 23.2143,-6.63267 v -34.48992 z"
   class="st1" /><path
   style="fill:#000000;stroke-width:6.63268;fill-opacity:1"
   id="path27"
   d="m 937.86036,679.84929 c -1.3265,0 -2.6531,-0.66326 -3.9796,-1.32653 -1.3266,-1.32654 -2.6531,-3.31634 -2.6531,-5.30614 v -47.75527 c 0,-3.31634 1.9898,-5.96941 5.3062,-6.63268 l 36.4797,-9.28574 c 1.9898,-0.66327 3.9796,0 5.9694,1.32653 1.3265,1.32654 2.653,3.31634 2.653,5.30614 v 49.08181 c 0,3.31634 -1.9898,5.96941 -5.3061,6.63267 l -36.4797,7.95921 c -1.3265,0 -1.3265,0 -1.9898,0 z m 6.6327,-49.0818 v 34.48992 l 23.2143,-5.30614 v -35.15319 z"
   class="st1" /><path
   style="fill:#000000;stroke-width:6.63268;fill-opacity:1"
   id="path29"
   d="m 878.16626,693.77791 c -1.32653,0 -2.65307,-0.66326 -3.97961,-1.32653 -1.32653,-1.32654 -2.65307,-3.31634 -2.65307,-5.30614 v -47.75527 c 0,-3.31634 1.98981,-5.96941 5.30615,-6.63268 l 36.47973,-9.28574 c 1.9898,-0.66327 3.9796,0 5.9694,1.32653 1.3265,1.32654 2.6531,3.31634 2.6531,5.30614 v 48.41854 c 0,3.31634 -1.9898,5.96941 -5.3062,6.63268 l -36.4797,8.62247 c -0.66326,0 -1.32653,0 -1.9898,0 z m 6.63268,-49.0818 v 34.48992 l 23.21432,-5.30614 v -34.48992 z"
   class="st1" /><path
   style="fill:#000000;stroke-width:6.63268;fill-opacity:1"
   id="path31"
   d="m 793.26801,672.55335 c -1.32654,0 -2.65307,-0.66327 -3.31634,-1.32653 -1.32654,-1.32654 -2.65307,-2.65307 -2.65307,-4.64288 v -29.18377 c 0,-2.65307 1.32653,-4.64288 3.9796,-5.30614 l 43.77567,-15.91843 c 1.9898,-0.66326 3.9796,-0.66326 5.30614,0.66327 1.32653,1.32654 2.65307,2.65307 2.65307,4.64287 v 30.51031 c 0,2.65308 -1.32654,4.64288 -3.97961,5.30615 l -43.77566,14.59188 c -0.66327,0.66327 -1.32654,0.66327 -1.9898,0.66327 z m 5.9694,-31.17358 v 17.24496 l 32.50012,-10.61228 v -17.90823 z"
   class="st1" /><path
   style="fill:#000000;stroke-width:6.63268;fill-opacity:1"
   id="path33"
   d="m 762.09443,736.89031 c -1.32654,-1.32654 -1.9898,-2.65307 -1.9898,-4.64287 v -29.84705 c 0,-2.65307 1.9898,-4.64287 3.9796,-5.30614 l 41.78586,-11.27555 c 1.9898,-0.66326 3.31634,0 5.30614,0.66327 1.32654,1.32654 1.9898,2.65307 1.9898,4.64287 v 31.17358 c 0,2.65307 -1.9898,5.30614 -4.64287,5.30614 l -41.78586,9.94902 c -0.66327,0.66326 -3.9796,0 -4.64287,-0.66327 z m 9.28575,-29.84704 v 17.90822 l 30.51031,-7.29594 v -19.23476 z"
   class="st1" /><path
   style="fill:#000000;stroke-width:6.63268;fill-opacity:1"
   id="path35"
   d="m 878.16626,605.56332 c -1.32653,0 -2.65307,-0.66327 -3.97961,-1.32653 -1.32653,-1.32654 -2.65307,-3.31634 -2.65307,-5.30614 v -45.76547 c 0,-2.65307 1.98981,-5.30614 4.64288,-5.96941 l 36.4797,-13.26535 c 1.9898,-0.66327 3.9796,-0.66327 5.9694,0.66327 1.9898,1.32653 2.6531,3.31634 2.6531,5.30614 v 49.0818 c 0,3.31634 -1.9898,5.30614 -4.6429,6.63268 l -36.4797,9.94901 c -0.66326,0 -1.32653,0 -1.9898,0 z m 6.63268,-47.75527 v 32.50012 l 23.21432,-6.63268 v -34.48991 z"
   class="st1" /><path
   style="fill:#000000;stroke-width:6.63268;fill-opacity:1"
   id="path37"
   d="m 713.01263,744.18625 c -8.62248,0 -15.25516,-7.95921 -15.25516,-17.24496 0,-9.28574 6.63268,-17.24495 15.25516,-17.24495 8.62247,0 15.25515,7.95921 15.25515,17.24495 0,9.28575 -6.63268,17.24496 -15.25515,17.24496 z m 0,-25.20417 c -3.31634,0 -5.96941,3.31634 -5.96941,7.95921 0,4.64288 2.65307,7.95922 5.96941,7.95922 3.31633,0 5.9694,-3.31634 5.9694,-7.95922 0,-4.64287 -2.65307,-7.95921 -5.9694,-7.95921 z"
   class="st1" /><path
   style="fill:#000000;stroke-width:6.63268;fill-opacity:1"
   id="path39"
   d="m 1171.9939,374.08293 c 0,-1.32654 0,-1.98981 0,-3.31634 -1.3266,-3.31634 -5.3062,-5.30614 -8.6225,-3.97961 l -37.143,13.92862 v 13.92862 6.63268 l 32.5001,-15.25516 v 530.61409 h -32.5001 v 13.26535 h 39.1328 c 3.9796,0 6.6327,-2.65307 7.2959,-6.63267 V 375.40946 c 0,0 0,-0.66327 -0.6632,-1.32653 z"
   class="st1" /><path
   style="fill:#000000;stroke-width:6.63268;fill-opacity:1"
   id="path41"
   d="m 1004.8504,440.40969 v -13.92862 l -33.16344,12.60208 c -0.6632,0 -0.6632,0.66327 -1.3265,0.66327 0,0 -113.41876,69.6431 -115.40857,70.96963 -1.9898,1.32654 -3.9796,3.31634 -3.9796,5.96941 v 37.80626 l -109.43916,65.00022 c -1.9898,0.66327 -3.31634,3.31634 -3.31634,5.30614 l -0.66326,31.83685 -59.69409,35.15318 c -3.31634,1.9898 -1.9898,6.63268 -1.9898,9.94902 0,3.31633 0,72.29616 0,72.29616 l -25.20417,-9.28574 c -1.32654,-0.66327 -3.31634,-0.66327 -4.64287,0 l -22.5511,9.28574 c 0,0 0,-71.6329 0,-72.29616 0,-3.97961 0.66327,-7.29595 -2.65307,-9.28575 l -59.69409,-35.15318 -0.66326,-31.83685 c 0,-1.9898 -1.32654,-3.97961 -3.31634,-5.30614 L 448.36885,555.81825 v -39.13279 c 0,-2.65307 -1.32654,-4.64287 -3.97961,-5.96941 l -8.62248,-3.9796 -130.66371,-78.92885 c -0.66327,0 -0.66327,-0.66327 -1.32654,-0.66327 l -9.28575,-3.9796 v 14.59189 l 3.97961,1.9898 31.17358,19.89803 -25.20417,-11.27555 c -0.66327,0 -0.66327,0 -0.66327,0 l -9.28575,-5.30614 v 15.91842 458.98119 13.26535 h 5.96941 c 1.9898,0 3.31634,-0.66327 5.30614,-1.9898 1.98981,-1.32654 342.90936,-150.56175 342.90936,-150.56175 0,0 346.88899,151.88828 348.87879,152.55155 1.9898,0.66327 7.29594,0 7.29594,0 V 917.96237 458.98118 445.05256 l -60.35734,26.5307 31.8368,-19.89802 z m -606.22662,432.45048 -51.07161,22.5511 V 730.9209 l 51.07161,9.28575 z m 35.81645,-290.51121 v 273.92952 l -22.5511,9.94901 V 734.90051 c 0,-3.31634 -1.9898,-5.96941 -5.30614,-6.63268 l -64.33696,-11.27555 c -1.9898,-0.66327 -3.9796,0 -5.30614,1.32654 -1.9898,1.32653 -2.65307,3.31633 -2.65307,5.30614 v 177.09245 l -26.5307,11.93882 V 464.28732 l 119.38817,53.06141 7.29594,3.97961 z m 13.92862,-11.27555 47.092,27.85724 -47.092,-20.5613 z m 35.81645,183.72512 27.85724,3.97961 0.66327,63.01042 -27.85724,11.93882 z m 61.68389,-76.93904 c 0,0.66327 0,1.9898 0,2.65307 v 126.68412 l -22.5511,9.94901 -0.66327,-63.01042 c 0,-3.31634 -1.9898,-5.30614 -4.64287,-5.96941 l -39.13279,-5.96941 c -1.9898,0 -3.31634,0 -4.64287,1.32653 -1.32654,1.32654 -1.98981,2.65308 -1.98981,4.64288 l 0.66327,90.86766 -24.5409,10.61228 V 592.29797 l 97.50034,43.11239 z m 13.26535,-5.96941 11.93882,7.29595 -11.93882,-3.97961 z m 33.16338,115.40857 -11.27555,5.30614 v -31.17358 l 11.27555,1.32654 z m 17.90823,-7.95921 -8.62248,3.31633 V 757.4516 c 0,-2.65307 -1.98981,-4.64287 -4.64288,-4.64287 L 576.3795,751.4822 c -1.32654,0 -2.65307,0.66326 -3.31634,1.32653 -0.66327,0.66327 -1.32654,1.9898 -1.32654,3.31634 v 40.45932 l -12.60208,5.30614 V 689.79831 l 51.07161,17.24496 z m 108.11262,11.93881 -11.27555,-5.30614 v -24.5409 l 11.27555,-0.66327 z m 21.88783,9.94902 -13.26535,-5.96941 v -39.13279 c 0,-1.32654 -0.66327,-2.65307 -1.32654,-3.31634 -0.66327,-0.66327 -1.9898,-1.32653 -3.31634,-1.32653 l -20.56129,1.32653 c -2.65307,0 -4.64288,1.9898 -4.64288,4.64287 v 24.54091 l -7.95921,-3.31634 v -72.95944 l 51.07161,-16.58169 z m 0,-125.35758 -22.5511,7.29594 22.5511,-13.26535 z m 72.29617,157.19442 -27.85724,-12.60208 0.66327,-63.67369 27.85723,-3.97961 z m 38.46952,17.24496 -27.19397,-11.93882 0.66326,-91.53093 c 0,-1.9898 -0.66326,-3.31634 -1.9898,-4.64287 -1.32653,-1.32654 -2.65307,-1.32654 -4.64287,-1.32654 l -39.13279,5.96941 c -2.65307,0.66327 -4.64287,3.31634 -4.64287,5.96941 l -0.66327,63.01042 -19.89803,-8.62247 v -126.68412 -45.1022 l 97.50034,-43.11239 z m 0,-271.93972 -57.04102,25.20417 57.04102,-33.82665 z M 898.06426,872.1969 V 738.21684 l 51.0716,-8.62247 v 164.49036 z m 92.8575,-407.24631 v 448.3689 l -28.5205,-12.60208 V 722.29842 c 0,-1.9898 -1.3265,-3.9796 -2.6531,-5.30614 -1.3265,-1.32653 -3.3163,-1.9898 -5.3061,-1.32653 l -64.33698,11.27554 c -3.31634,0.66327 -5.30614,3.31634 -5.30614,6.63268 v 132.65352 l -19.89803,-8.62248 -0.66327,-335.61341 z"
   class="st1" /><path
   style="fill:#000000;stroke-width:6.63268;fill-opacity:1"
   id="path43"
   d="m 139.28614,386.68501 31.83685,14.59189 v -3.97961 -13.92862 l -28.52051,-9.94901 -7.29594,-3.31634 c -2.65307,-0.66327 -4.64288,-0.66327 -6.63268,0.66327 -1.9898,0.66327 -3.31634,3.31634 -3.31634,5.30614 v 547.85904 c 0,3.97961 2.65307,6.63268 6.63268,6.63268 h 39.13279 V 917.2991 h -31.83685 z"
   class="st1" /><path
   style="fill:#000000;stroke-width:6.63268;fill-opacity:1"
   id="path51"
   d="m 1065.871,505.40991 c -20.5613,0 -37.143,-16.58169 -37.143,-37.14298 V 336.27667 H 870.87032 c -20.5613,0 -37.14299,-16.58169 -37.14299,-37.14298 0,-20.5613 16.58169,-37.14299 37.14299,-37.14299 H 1065.871 c 20.5613,0 37.143,16.58169 37.143,37.14299 v 169.13324 c 0,20.56129 -16.5817,37.14298 -37.143,37.14298 z"
   class="st1" /><path
   style="fill:#000000;stroke-width:6.63268;fill-opacity:1"
   id="path55"
   d="M 426.48102,1034.6975 H 231.48034 c -20.5613,0 -37.14299,-16.5817 -37.14299,-37.14302 V 828.42124 c 0,-20.5613 16.58169,-37.14299 37.14299,-37.14299 20.5613,0 37.14299,16.58169 37.14299,37.14299 v 131.99025 h 157.85769 c 20.56129,0 37.14298,16.58169 37.14298,37.14299 0,20.56132 -16.58169,37.14302 -37.14298,37.14302 z"
   class="st1" /><path
   style="fill:#000000;stroke-width:6.63268;fill-opacity:1"
   id="path59"
   d="m 231.48034,505.40991 c -20.5613,0 -37.14299,-16.58169 -37.14299,-37.14298 V 299.13369 c 0,-20.5613 16.58169,-37.14299 37.14299,-37.14299 h 195.00068 c 20.56129,0 37.14298,16.58169 37.14298,37.14299 0,20.56129 -16.58169,37.14298 -37.14298,37.14298 H 268.62333 v 131.99026 c 0,20.56129 -16.58169,37.14298 -37.14299,37.14298 z"
   class="st1" /><path
   style="fill:#000000;stroke-width:6.63268;fill-opacity:1"
   id="path63"
   d="M 1065.871,1034.6975 H 870.87032 c -20.5613,0 -37.14299,-16.5817 -37.14299,-37.14302 0,-20.5613 16.58169,-37.14299 37.14299,-37.14299 H 1028.728 V 828.42124 c 0,-20.5613 16.5817,-37.14299 37.143,-37.14299 20.5613,0 37.143,16.58169 37.143,37.14299 v 169.13324 c 0,20.56132 -16.5817,37.14302 -37.143,37.14302 z"
   class="st1" /></svg>
