<?xml version="1.0" encoding="UTF-8" standalone="no"?>
<svg
   xmlns:dc="http://purl.org/dc/elements/1.1/"
   xmlns:cc="http://creativecommons.org/ns#"
   xmlns:rdf="http://www.w3.org/1999/02/22-rdf-syntax-ns#"
   xmlns:svg="http://www.w3.org/2000/svg"
   xmlns="http://www.w3.org/2000/svg"
   xmlns:sodipodi="http://sodipodi.sourceforge.net/DTD/sodipodi-0.dtd"
   xmlns:inkscape="http://www.inkscape.org/namespaces/inkscape"
   version="1.1"
   x="0px"
   y="0px"
   viewBox="0 0 64 62"
   xml:space="preserve"
   id="svg18"
   sodipodi:docname="scissors.svg"
   inkscape:version="0.92.5 (2060ec1f9f, 2020-04-08)"
   width="64"
   height="62"><metadata
     id="metadata24"><rdf:RDF><cc:Work
         rdf:about=""><dc:format>image/svg+xml</dc:format><dc:type
           rdf:resource="http://purl.org/dc/dcmitype/StillImage" /><dc:title></dc:title></cc:Work></rdf:RDF></metadata><defs
     id="defs22" /><sodipodi:namedview
     pagecolor="#ffffff"
     bordercolor="#666666"
     borderopacity="1"
     objecttolerance="10"
     gridtolerance="10"
     guidetolerance="10"
     inkscape:pageopacity="0"
     inkscape:pageshadow="2"
     inkscape:window-width="1920"
     inkscape:window-height="1053"
     id="namedview20"
     showgrid="false"
     units="in"
     height="0.8"
     inkscape:zoom="2.95"
     inkscape:cx="-35.288136"
     inkscape:cy="40"
     inkscape:window-x="0"
     inkscape:window-y="27"
     inkscape:window-maximized="1"
     inkscape:current-layer="svg18" /><path
     d="m 31.850939,35.56215 c -1.123789,0 -2.038585,-0.918488 -2.038585,-2.045617 0,-1.129524 0.914796,-2.048011 2.038585,-2.048011 1.123791,0 2.037396,0.918487 2.037396,2.048011 0,1.127129 -0.913605,2.045617 -2.037396,2.045617 z m 0,-2.86578 c -0.450231,0 -0.815672,0.366916 -0.815672,0.820163 0,0.450852 0.365441,0.817768 0.815672,0.817768 0.44904,0 0.81448,-0.366916 0.81448,-0.817768 0,-0.453247 -0.36544,-0.820163 -0.81448,-0.820163 z"
     id="path2"
     inkscape:connector-curvature="0" /><path
     d="m 16.746047,56.399613 c -2.171149,0 -4.172715,-0.872925 -5.862581,-2.604385 -1.7651031,-2.472485 -3.0035427,-6.391049 0.585183,-11.654973 2.216531,-3.244686 8.030148,-6.249561 11.901911,-5.46297 L 44.668845,5.1920716 c 0.259151,-0.384902 0.763126,-0.515601 1.177528,-0.300967 2.548535,1.312983 3.566036,4.3634207 2.315655,6.9450214 -2.161594,4.455748 -5.032574,10.411536 -7.553639,15.641885 -2.484043,5.153608 -4.628921,9.602163 -5.419513,11.216112 -0.298565,0.611526 -0.929131,0.628315 -1.345925,0.640304 -0.73088,0.02158 -1.640899,0.04557 -2.412387,1.654721 l -3.560063,7.266372 c -1.507147,3.069622 -3.686655,5.429394 -6.304455,6.822716 -1.658815,0.882515 -3.281803,1.321377 -4.819999,1.321377 z m 5.288147,-18.010052 c -3.069228,0 -7.427051,2.410134 -9.051234,4.791489 -2.402834,3.522869 -2.636907,6.698013 -0.697443,9.434292 2.242805,2.280635 5.106621,2.59719 8.421862,0.836952 2.273855,-1.213459 4.18227,-3.290253 5.517443,-6.012142 l 3.556482,-7.256783 c 1.221718,-2.549225 3.094305,-2.661938 3.950582,-2.688316 0.907631,-1.863358 2.919945,-6.036125 5.226044,-10.820419 2.521069,-5.230349 5.393242,-11.187336 7.553642,-15.644284 0.690277,-1.4232984 0.314091,-3.0684235 -0.833587,-4.0516624 L 24.520625,38.255265 c -0.235268,0.342934 -0.668782,0.484425 -1.060496,0.352528 -0.426347,-0.151086 -0.907631,-0.218232 -1.425935,-0.218232 z"
     id="path4"
     inkscape:connector-curvature="0" /><path
     d="m 16.740077,52.672898 c -1.177533,0 -2.234446,-0.390896 -2.989212,-1.20147 -1.846314,-1.980865 -1.089158,-5.604458 1.724498,-8.247211 2.816046,-2.645153 6.468067,-3.160751 8.310797,-1.179886 1.846314,1.980865 1.089157,5.604458 -1.723305,8.247211 0,0 0,0 -0.0012,0.0024 -1.662399,1.561188 -3.618582,2.378956 -5.321584,2.378956 z m 4.067619,-9.988262 c -1.234856,0 -2.787382,0.671478 -4.078367,1.882541 -1.994401,1.875347 -2.744392,4.460545 -1.638515,5.647625 1.108266,1.187081 3.724872,0.601933 5.718078,-1.26622 v 0 c 1.993206,-1.875347 2.743195,-4.460544 1.637318,-5.647625 -0.389327,-0.417278 -0.967343,-0.616321 -1.638514,-0.616321 z m 0.628178,6.935424 h 0.02269 z"
     id="path6"
     inkscape:connector-curvature="0" /><path
     d="m 46.54143,57.788136 c -1.620602,0 -3.312855,-0.501213 -5.026604,-1.496441 -2.56406,-1.489246 -4.656387,-3.928158 -6.048885,-7.052937 l -3.286579,-7.38388 c -0.206608,-0.465241 0.0012,-1.009621 0.463367,-1.218258 0.459786,-0.201443 1.004368,0.0024 1.210972,0.46524 l 3.286579,7.383881 c 1.234856,2.769856 3.06445,4.918591 5.292923,6.213589 3.245976,1.882541 6.121735,1.671505 8.542481,-0.630715 1.941856,-2.556419 1.824818,-5.738754 -0.445454,-9.345562 -1.793766,-2.85139 -7.324344,-5.889835 -10.301613,-4.961753 -0.396492,0.119903 -0.826423,-0.03837 -1.047359,-0.3909 l -1.437882,-2.304615 c -0.268703,-0.431664 -0.13853,-1.000027 0.290203,-1.268616 0.431126,-0.270992 0.996006,-0.139091 1.264714,0.290173 l 1.091545,1.750644 c 3.890873,-0.673877 9.597008,2.573208 11.690529,5.901829 3.392872,5.391026 2.01112,9.261627 0.253181,11.559048 -1.740024,1.661915 -3.706955,2.489273 -5.792118,2.489273 z"
     id="path8"
     inkscape:connector-curvature="0" /><path
     d="m 27.243519,33.454182 c -0.352304,0 -0.689083,-0.206238 -0.839559,-0.551571 -1.329203,-3.038448 -3.294941,-7.067327 -5.194994,-10.965507 -1.81168,-3.714724 -3.523043,-7.224406 -4.677883,-9.846774 -1.154843,-2.6247684 -0.02627,-5.6356364 2.570028,-6.8538924 0.4156,-0.196648 0.917185,-0.04796 1.16559,0.345332 L 32.383578,25.003128 c 0.268707,0.431665 0.138531,1.000025 -0.290203,1.268618 -0.43232,0.27099 -0.996006,0.139091 -1.264714,-0.290177 L 19.191874,7.3288165 c -1.183502,0.9400721 -1.619404,2.5696101 -0.982868,4.0180885 1.139315,2.588795 2.843511,6.08169 4.646831,9.780825 1.909609,3.913769 3.882513,7.959434 5.22724,11.036253 0.204218,0.46524 -0.0072,1.007217 -0.470535,1.213459 -0.120619,0.05276 -0.246016,0.07674 -0.369023,0.07674 z"
     id="path10"
     inkscape:connector-curvature="0" /><path
     d="m 46.636969,54.068615 c -0.385742,0 -0.789398,-0.04556 -1.204998,-0.134296 -1.488037,-0.316551 -2.992794,-1.184681 -4.237205,-2.446102 -1.245606,-1.259026 -2.098301,-2.774655 -2.401642,-4.271095 -0.333195,-1.637928 0.01672,-3.069622 0.982872,-4.033673 0.968536,-0.961658 2.400444,-1.290203 4.023433,-0.956859 1.488038,0.31895 2.993988,1.184681 4.238396,2.443706 2.712147,2.748272 3.335545,6.398243 1.418774,8.307167 -0.720135,0.719441 -1.695839,1.091152 -2.81963,1.091152 z M 42.601592,43.938862 c -0.518303,0 -1.101098,0.122307 -1.533417,0.551575 -0.692665,0.690662 -0.597126,1.772224 -0.477699,2.357372 0.232875,1.148713 0.910018,2.335793 1.906025,3.34301 0,0.0024 0,0.0024 0,0.0024 0.996006,1.007221 2.173538,1.697883 3.316436,1.940097 0.578019,0.119908 1.65762,0.225426 2.351479,-0.462841 1.147678,-1.143917 0.493229,-3.755493 -1.428322,-5.702785 -0.996006,-1.007217 -2.174732,-1.695484 -3.316437,-1.937698 -0.218548,-0.04796 -0.506363,-0.09113 -0.818065,-0.09113 z"
     id="path12"
     inkscape:connector-curvature="0" /></svg>