<svg xmlns="http://www.w3.org/2000/svg" xmlns:xlink="http://www.w3.org/1999/xlink" version="1.1" x="0px" y="0px" viewBox="0 0 64 80" style="enable-background:new 0 0 64 64;" xml:space="preserve"><path d="M32.1899223,36.2740135c-1.1237888,0-2.0385857-0.9184875-2.0385857-2.0456161  c0-1.1295242,0.9147968-2.0480118,2.0385857-2.0480118c1.1237907,0,2.0373955,0.9184875,2.0373955,2.0480118  C34.2273178,35.355526,33.3137131,36.2740135,32.1899223,36.2740135z M32.1899223,33.4082336  c-0.4502316,0-0.8156719,0.3669167-0.8156719,0.8201637c0,0.4508514,0.3654404,0.8177681,0.8156719,0.8177681  c0.4490395,0,0.8144798-0.3669167,0.8144798-0.8177681C33.0044022,33.7751503,32.6389618,33.4082336,32.1899223,33.4082336z"/><path d="M17.0850296,57.1114769c-2.1711483,0-4.1727142-0.8729248-5.8625803-2.6043854  c-1.7651033-2.4724846-3.0035429-6.3910484,0.5851831-11.6549721c2.2165308-3.2446861,8.0301476-6.2495613,11.9019108-5.4629707  L45.0078278,5.9039359c0.2591515-0.384902,0.7631264-0.5156007,1.1775284-0.3009667  c2.5485344,1.312983,3.5660362,4.3634205,2.3156548,6.9450207c-2.1615944,4.4557486-5.0325737,10.4115362-7.5536385,15.6418848  c-2.4840431,5.1536083-4.6289215,9.6021633-5.4195137,11.2161121c-0.2985649,0.6115265-0.9291306,0.628315-1.3459244,0.6403046  c-0.7308807,0.0215836-1.6408997,0.0455666-2.4123878,1.6547203l-3.5600624,7.2663727  c-1.5071468,3.069622-3.686655,5.4293938-6.3044548,6.8227158C20.2462139,56.6726151,18.6232262,57.1114769,17.0850296,57.1114769z   M22.3731766,39.1014252c-3.0692272,0-7.4270506,2.4101334-9.0512333,4.7914886  c-2.4028339,3.5228691-2.6369076,6.6980133-0.697443,9.4342918c2.2428045,2.2806358,5.1066208,2.5971909,8.4218616,0.8369522  c2.2738552-1.213459,4.1822701-3.2902527,5.5174427-6.0121422l3.5564823-7.2567825  c1.2217178-2.5492249,3.094305-2.6619377,3.9505825-2.6883163c0.9076309-1.8633575,2.9199448-6.0361252,5.2260437-10.8204193  c2.5210686-5.2303486,5.3932419-11.187336,7.5536423-15.6442833c0.6902771-1.4232979,0.3140907-3.0684233-0.8335876-4.051662  l-21.1573601,31.276577c-0.2352676,0.3429337-0.6687813,0.4844246-1.0604954,0.3525276  C23.3727646,39.1685715,22.8914814,39.1014252,22.3731766,39.1014252z"/><path d="M17.0790596,53.3847618c-1.1775322,0-2.2344456-0.3908958-2.989212-1.2014694  c-1.8463135-1.9808655-1.0891581-5.6044579,1.7244987-8.2472115c2.8160458-2.645153,6.4680672-3.1607513,8.3107967-1.1798859  c1.8463135,1.9808655,1.0891571,5.6044579-1.7233047,8.2472115c0,0,0,0-0.001194,0.0023994  C20.738245,52.5669937,18.7820625,53.3847618,17.0790596,53.3847618z M21.1466789,43.3964996  c-1.2348557,0-2.7873821,0.6714783-4.0783672,1.8825417c-1.994401,1.8753471-2.7443914,4.4605446-1.6385145,5.647625  c1.1082659,1.1870804,3.7248716,0.6019325,5.7180777-1.2662201l0,0c1.993206-1.8753471,2.7431946-4.4605446,1.6373177-5.647625  C22.3958664,43.5955429,21.8178501,43.3964996,21.1466789,43.3964996z M21.7748566,50.3319244h0.0226898H21.7748566z"/><path d="M46.8804131,58.5c-1.6206017,0-3.3128548-0.5012131-5.0266037-1.4964409  c-2.5640602-1.4892464-4.6563873-3.9281578-6.0488853-7.0529366l-3.2865791-7.3838806  c-0.2066078-0.4652405,0.001194-1.0096207,0.4633675-1.2182579c0.4597855-0.2014427,1.0043678,0.0023994,1.2109718,0.4652405  l3.2865791,7.3838806c1.2348557,2.7698555,3.0644493,4.9185905,5.292923,6.2135887  c3.2459755,1.8825417,6.1217346,1.671505,8.5424805-0.6307144c1.9418564-2.5564194,1.8248177-5.7387543-0.4454536-9.345562  c-1.793766-2.8513908-7.3243446-5.8898354-10.3016129-4.9617538c-0.396492,0.1199036-0.8264236-0.038372-1.0473595-0.3908997  l-1.4378815-2.304615c-0.2687035-0.4316635-0.1385307-1.0000267,0.2902031-1.2686157  c0.4311256-0.2709923,0.996006-0.1390915,1.2647133,0.2901726l1.0915451,1.7506447  c3.890873-0.6738777,9.5970078,2.5732079,11.6905289,5.9018288c3.3928719,5.3910255,2.0111198,9.2616272,0.2531815,11.5590477  C50.9325066,57.6726418,48.9655762,58.5,46.8804131,58.5z"/><path d="M27.5825024,34.1660461c-0.3523045,0-0.6890831-0.2062378-0.8395596-0.5515709  c-1.3292027-3.0384483-3.2949409-7.0673275-5.194994-10.9655075c-1.8116798-3.7147236-3.5230427-7.2244053-4.6778831-9.8467741  c-1.1548424-2.6247673-0.0262737-5.6356354,2.5700283-6.8538918c0.4155998-0.1966476,0.9171848-0.0479631,1.1655903,0.3453321  l12.1168766,19.4213581c0.2687073,0.4316654,0.1385307,1.0000248-0.2902031,1.2686176  c-0.4323196,0.2709904-0.996006,0.1390915-1.2647133-0.2901764L19.5308571,8.0406809  c-1.1835022,0.9400721-1.6194038,2.5696096-0.9828682,4.0180883c1.1393147,2.5887947,2.8435116,6.0816898,4.6468315,9.7808247  c1.9096088,3.9137688,3.882513,7.9594345,5.2272396,11.036253c0.2042179,0.4652405-0.0071659,1.0072174-0.4705353,1.213459  C27.8309059,34.142067,27.7055092,34.1660461,27.5825024,34.1660461z"/><path d="M46.9759521,54.7804794c-0.3857422,0-0.7893982-0.0455627-1.204998-0.1342964  c-1.4880371-0.3165512-2.992794-1.1846809-4.2372055-2.4461021c-1.2456055-1.2590256-2.0983009-2.7746544-2.4016418-4.2710953  c-0.3331947-1.637928,0.0167198-3.069622,0.982872-4.0336723c0.9685364-0.9616585,2.400444-1.2902031,4.0234337-0.9568596  c1.4880371,0.3189507,2.993988,1.1846809,4.2383957,2.4437065c2.7121468,2.7482719,3.3355446,6.398243,1.4187737,8.3071671  C49.0754471,54.4087677,48.0997429,54.7804794,46.9759521,54.7804794z M42.9405746,44.6507263  c-0.5183029,0-1.1010971,0.1223068-1.5334167,0.5515747c-0.6926651,0.6906624-0.597126,1.7722244-0.4776993,2.3573723  c0.2328758,1.1487122,0.9100189,2.3357925,1.9060249,3.3430099c0,0.0023994,0,0.0023994,0,0.0023994  c0.996006,1.0072212,2.1735382,1.6978836,3.3164368,1.9400978c0.5780182,0.1199074,1.6576195,0.2254257,2.3514786-0.462841  c1.1476784-1.1439171,0.4932289-3.7554932-1.4283218-5.7027855c-0.996006-1.0072174-2.1747322-1.6954842-3.3164368-1.9376984  C43.5400925,44.6938934,43.2522774,44.6507263,42.9405746,44.6507263z"/><text x="0" y="79" fill="#000000" font-size="5px" font-weight="bold" font-family="'Helvetica Neue', Helvetica, Arial-Unicode, Arial, Sans-serif">Created by basith ibrahim</text><text x="0" y="84" fill="#000000" font-size="5px" font-weight="bold" font-family="'Helvetica Neue', Helvetica, Arial-Unicode, Arial, Sans-serif">from the Noun Project</text></svg>