<?xml version="1.0" encoding="UTF-8" standalone="yes"?>
<svg xmlns="http://www.w3.org/2000/svg" xmlns:xlink="http://www.w3.org/1999/xlink" width="374px" height="374px" viewBox="0 0 374 374" version="1.1">
  <g id="surface1">
    <path style=" stroke:none;fill-rule:nonzero;fill:rgb(0%,0%,0%);fill-opacity:1;" d="M 197.824219 10.429688 C 193.816406 11.191406 188.988281 15.195312 184.570312 21.386719 C 178.515625 29.949219 173.335938 40.234375 161.109375 68.078125 C 150.957031 91.164062 146.890625 99.34375 141.597656 107.144531 C 135.421875 116.230469 131.152344 118.042969 115.910156 118.074219 C 107.046875 118.074219 99.144531 117.429688 77.4375 114.976562 C 68.371094 113.925781 57.953125 112.84375 50.230469 112.140625 C 44.644531 111.644531 27.0625 111.644531 23.753906 112.140625 C 13.253906 113.777344 8.394531 117.226562 8.015625 123.304688 C 7.8125 127.042969 9.273438 131.046875 12.726562 136.21875 C 18.488281 144.808594 27.761719 154.101562 51.253906 174.875 C 79.195312 199.5625 87.738281 209.175781 88.996094 217.300781 C 90.078125 224.136719 86.214844 236.46875 75.742188 259.902344 C 65.09375 283.742188 63.164062 288.039062 61.40625 292.332031 C 54.035156 310.1875 51.109375 321.492188 52.105469 328.449219 C 53.011719 334.933594 56.347656 338.179688 62.546875 338.558594 C 71.644531 339.171875 85.015625 333.621094 112.253906 317.988281 C 134.164062 305.394531 138.144531 303.144531 143 300.574219 C 156.195312 293.5625 164.003906 290.699219 170.03125 290.609375 Z M 197.824219 10.429688 "/>
  </g>
</svg>