<?xml version="1.0" encoding="UTF-8" standalone="no"?>
<svg
   version="1.1"
   id="svg4619"
   x="0px"
   y="0px"
   width="500"
   height="500"
   viewBox="0 0 500 500"
   xml:space="preserve"
   xmlns="http://www.w3.org/2000/svg"
   xmlns:svg="http://www.w3.org/2000/svg"
   xmlns:rdf="http://www.w3.org/1999/02/22-rdf-syntax-ns#"
   xmlns:cc="http://creativecommons.org/ns#"
   xmlns:dc="http://purl.org/dc/elements/1.1/"><metadata
   id="metadata8"><rdf:RDF><cc:Work
       rdf:about=""><dc:format>image/svg+xml</dc:format><dc:type
         rdf:resource="http://purl.org/dc/dcmitype/StillImage" /></cc:Work></rdf:RDF></metadata><defs
   id="defs6" />
<path
   id="path14245"
   d="M 183.33333,0 C 166.66667,0 166.66667,16.666667 166.66667,16.666667 V 50 c 0,9.233332 7.43333,16.666668 16.66666,16.666668 C 192.56667,66.666668 200,59.233332 200,50 V 33.333332 h 33.33333 V 100 H 200 c 0,0 -66.66667,0 -66.66667,66.66667 v 100 c 0,100.00001 100,100.00001 100,100.00001 h 33.33334 c 0,0 100.00001,0 100.00001,-100.00001 v -100 C 366.66668,100 300,100 300,100 H 266.66667 V 33.333332 H 300 V 50 c 0,9.233332 7.43333,16.666668 16.66667,16.666668 9.23333,0 16.66665,-7.433336 16.66665,-16.666668 V 16.666667 C 333.33332,0 316.66667,0 316.66667,0 Z M 250,133.33333 l 68.16333,25.78 15.16999,57.55334 c 4.38669,16.66666 -16.66665,16.66666 -16.66665,16.66666 H 183.33333 c 0,0 -21.05333,0 -16.66666,-16.66666 l 15.16999,-57.55334 z m 0,133.33334 c 9.20333,0 16.66667,7.46333 16.66667,16.66666 C 266.66667,292.53667 259.20333,300 250,300 c -9.20333,0 -16.66667,-7.46333 -16.66667,-16.66667 0,-9.20333 7.46334,-16.66666 16.66667,-16.66666 z M 137.5,400 100,500 h 50 l 12.5,-33.33332 H 337.50002 L 350,500 h 50 L 362.50002,400 H 312.5 L 325,433.33332 H 175 L 187.5,400 Z"
   style="stroke-width:33.3332; fill: #000" />
</svg>
