<?xml version="1.0" encoding="utf-8"?>
<!-- Generator: Adobe Illustrator 24.2.1, SVG Export Plug-In . SVG Version: 6.00 Build 0)  -->
<svg version="1.1" xmlns="http://www.w3.org/2000/svg" xmlns:xlink="http://www.w3.org/1999/xlink" x="0px" y="0px"
	 viewBox="0 0 300 300" style="enable-background:new 0 0 300 300;" xml:space="preserve">
<style type="text/css">
	.st0{fill:#0181C2;}
	.st1{fill:#020203;}
	.st2{fill:none;stroke:#000000;stroke-width:4.6057;}
	.st3{fill:none;stroke:#000000;stroke-width:2.3029;}
	.st4{fill:#FFFFFF;stroke:#000000;stroke-width:4;stroke-miterlimit:10;}
	.st5{fill:#E74436;}
	.st6{fill:#FCC407;}
	.st7{fill:#0682C2;}
	.st8{fill:#73B254;}
	.st9{fill:#FFFFFF;stroke:#000000;stroke-width:7.155;stroke-miterlimit:10;}
	.st10{fill:#FFFFFF;stroke:#000000;stroke-width:7.7355;stroke-miterlimit:10;}
	.st11{fill:none;stroke:#010202;stroke-width:4;stroke-miterlimit:10;}
	.st12{fill:none;stroke:#000000;stroke-width:4;stroke-miterlimit:10;}
</style>
<g id="Laag_1">
	<g id="outline">
		<g id="XMLID_3_">
			<g>
				<path class="st1" d="M255.3,213.4V228c0,2-1.6,3.6-3.6,3.6H73c-2,0-3.6-1.6-3.6-3.6v-14.6c0-2,1.6-3.6,3.6-3.6h10.9v-21.9H40.2
					c-2,0-3.6-1.6-3.6-3.6v-14.6c0-2,1.6-3.6,3.6-3.6h10.9v-61.3c0-3.6,1.7-7,4.6-9.2c5.1-3.8,12.3-2.9,16.1,2.2
					c3.3-4.5,9.3-5.9,14.3-3.3c2.9,1.5,5.1,4.1,6,7.3l16.6,64.4h8.1v-61.3c0-3.6,1.7-7,4.6-9.2c5.1-3.9,12.3-2.9,16.1,2.2
					c0.8-1.1,1.9-2.1,3-2.8c0.9-0.6,1.9-1,3-1.3c6.1-1.7,12.5,1.9,14.2,8.1l16.6,64.4h8.1v-61.3c0-3.6,1.7-7,4.6-9.2
					c5.1-3.8,12.3-2.9,16.1,2.2c3.3-4.5,9.3-5.9,14.3-3.3c2.9,1.5,5.1,4.1,6,7.3l17,65.9c0.3,1,0.4,2,0.4,3v39.3h10.9
					C253.7,209.7,255.3,211.4,255.3,213.4z M248,224.3V217h-7.3v7.3H248z M233.4,224.3V217h-10.9v7.3H233.4z M233.4,209.7v-39.3
					c0-0.4-0.1-0.8-0.2-1.2l-17-65.9c-0.3-1.1-1.1-2.1-2.2-2.6c-0.6-0.3-1.3-0.5-1.9-0.4c-2.4,0-4.2,1.9-4.2,4.3v7.9l14.2,54.9
					c0.2,0.6,0.3,1.2,0.3,1.8c0,0.1,0.1,0.3,0.1,0.4v40.1H233.4z M215.2,224.3V217h-40.1v7.3H215.2z M215.2,209.7v-21.9h-40.1v21.9
					H215.2z M215.2,180.6v-7.3h-7.3v7.3H215.2z M214.2,166l-6.3-24.3V166H214.2z M200.6,180.6v-7.3h-25.5v7.3H200.6z M200.6,166
					v-52.5l-2.6-10c-0.3-1.1-1.1-2.1-2.2-2.6c-0.6-0.3-1.3-0.5-1.9-0.4c-2.4,0-4.2,1.9-4.2,4.3V166H200.6z M167.8,224.3V217h-10.9
					v7.3H167.8z M167.8,209.7v-21.9h-10.9v21.9H167.8z M167.8,180.6v-7.3h-10.9v7.3H167.8z M166.8,166l-16.2-62.6
					c-0.5-1.8-2.2-3.1-4.1-3.1c-2.4,0-4.2,1.9-4.2,4.3v7.9l13.8,53.5H166.8z M149.6,224.3V217h-40.1v7.3H149.6z M149.6,209.7v-21.9
					h-40.1v21.9H149.6z M149.6,180.6v-7.3h-40.1v7.3H149.6z M148.6,166l-6.3-24.3V166H148.6z M135,166v-52.5l-2.6-10
					c-0.5-1.8-2.2-3.1-4.1-3.1c-2.4,0-4.2,1.9-4.2,4.3V166H135z M102.2,224.3V217H91.2v7.3H102.2z M102.2,209.7v-21.9H91.2v21.9
					H102.2z M102.2,180.6v-7.3H91.2v7.3H102.2z M101.1,166L85,103.4c-0.3-1.1-1.1-2.1-2.2-2.6c-0.6-0.3-1.3-0.5-1.9-0.4
					c-2.4,0-4.2,1.9-4.2,4.3v7.9L90.4,166H101.1z M83.9,224.3V217h-7.3v7.3H83.9z M83.9,180.6v-7.3H58.4v7.3H83.9z M82.9,166
					l-6.3-24.3V166H82.9z M69.3,166v-52.5l-2.6-10c-0.3-1.1-1.1-2.1-2.2-2.6c-0.6-0.3-1.3-0.5-1.9-0.4c-2.4,0-4.2,1.9-4.2,4.3V166
					H69.3z M51.1,180.6v-7.3h-7.3v7.3H51.1z"/>
			</g>
		</g>
	</g>
</g>
<g id="Isolatiemodus">
</g>
<g id="Capa_1">
</g>
</svg>
