<?xml version="1.0" encoding="UTF-8" standalone="yes"?>
<svg xmlns="http://www.w3.org/2000/svg" xmlns:xlink="http://www.w3.org/1999/xlink" width="301px" height="374px" viewBox="0 0 301 374" version="1.1">
  <g id="surface1">
    <path style=" stroke:none;fill-rule:nonzero;fill:rgb(9.019608%,8.627451%,8.235294%);fill-opacity:1;" d="M 162.921875 343.632812 C 157.445312 355.546875 140.484375 355.546875 135.007812 343.632812 L 40.582031 138.210938 C 35.914062 128.058594 43.347656 116.492188 54.539062 116.492188 L 243.390625 116.492188 C 254.582031 116.492188 262.015625 128.058594 257.347656 138.210938 Z M 162.921875 343.632812 "/>
    <path style=" stroke:none;fill-rule:nonzero;fill:rgb(9.019608%,8.627451%,8.235294%);fill-opacity:1;" d="M 301 150.214844 C 301 233.171875 233.617188 300.425781 150.5 300.425781 C 67.382812 300.425781 0 233.171875 0 150.214844 C 0 67.253906 67.382812 0 150.5 0 C 233.617188 0 301 67.253906 301 150.214844 Z M 301 150.214844 "/>
    <path style="fill:none;stroke-width:2;stroke-linecap:butt;stroke-linejoin:miter;stroke:rgb(100%,100%,100%);stroke-opacity:1;stroke-miterlimit:4;" d="M 45.07649 63.84281 L 29.711846 63.84281 L 38.091751 45.245404 L 59.044695 45.245404 M 59.044695 45.245404 L 56.716025 39.999394 L 63.235283 39.999394 M 59.044695 45.245404 L 59.975654 47.629491 L 61.837573 51.44454 L 66.959121 63.84281 M 59.044695 45.245404 L 54.621366 52.398939 L 51.967115 56.69055 M 50.198038 59.551199 L 51.967115 56.69055 M 41.351381 50.491415 L 46.007449 60.982161 L 36.695312 39.999394 L 39.489462 45.721967 M 48.801599 61.935286 L 51.967115 56.69055 " transform="matrix(3.071429,0,0,3.065574,0,0)"/>
    <path style="fill:none;stroke-width:1;stroke-linecap:butt;stroke-linejoin:miter;stroke:rgb(100%,100%,100%);stroke-opacity:1;stroke-miterlimit:4;" d="M 50.092478 63.032399 C 50.092478 64.611171 48.846112 65.870112 47.332667 65.870112 C 45.820494 65.870112 44.574128 64.611171 44.574128 63.032399 C 44.574128 61.453626 45.820494 60.193412 47.332667 60.193412 C 48.846112 60.193412 50.092478 61.453626 50.092478 63.032399 Z M 50.092478 63.032399 " transform="matrix(3.071429,0,0,3.065574,0,0)"/>
    <path style="fill:none;stroke-width:2;stroke-linecap:butt;stroke-linejoin:miter;stroke:rgb(100%,100%,100%);stroke-opacity:1;stroke-miterlimit:4;" d="M 40.280523 62.078 C 40.280523 68.133147 35.493459 72.999436 29.640625 72.999436 C 23.786519 72.999436 18.999455 68.133147 18.999455 62.078 C 18.999455 56.024127 23.786519 51.156563 29.640625 51.156563 C 35.493459 51.156563 40.280523 56.024127 40.280523 62.078 Z M 40.280523 62.078 " transform="matrix(3.071429,0,0,3.065574,0,0)"/>
    <path style="fill:none;stroke-width:2;stroke-linecap:butt;stroke-linejoin:miter;stroke:rgb(100%,100%,100%);stroke-opacity:1;stroke-miterlimit:4;" d="M 77 63.000543 C 77 69.074804 72.075581 73.999708 66.000182 73.999708 C 59.924782 73.999708 55.000363 69.074804 55.000363 63.000543 C 55.000363 56.925008 59.924782 52.000104 66.000182 52.000104 C 72.075581 52.000104 77 56.925008 77 63.000543 Z M 77 63.000543 " transform="matrix(3.071429,0,0,3.065574,0,0)"/>
    <path style=" stroke:none;fill-rule:nonzero;fill:rgb(100%,98.823529%,98.823529%);fill-opacity:1;" d="M 173.371094 37.707031 L 153.199219 37.707031 L 153.199219 20.816406 C 153.199219 19.476562 152.066406 18.394531 150.667969 18.394531 L 145.019531 18.394531 C 143.621094 18.394531 142.488281 19.476562 142.488281 20.816406 L 142.488281 37.707031 L 122.316406 37.707031 C 120.917969 37.707031 119.785156 38.792969 119.785156 40.128906 L 119.785156 45.535156 C 119.785156 46.871094 120.917969 47.957031 122.316406 47.957031 L 142.488281 47.957031 L 142.488281 98.742188 C 142.488281 100.078125 143.621094 101.164062 145.019531 101.164062 L 150.667969 101.164062 C 152.066406 101.164062 153.199219 100.078125 153.199219 98.742188 L 153.199219 47.957031 L 173.371094 47.957031 C 174.769531 47.957031 175.902344 46.871094 175.902344 45.535156 L 175.902344 40.128906 C 175.902344 38.792969 174.769531 37.707031 173.371094 37.707031 Z M 173.371094 37.707031 "/>
  </g>
</svg>