<?xml version="1.0" encoding="UTF-8" standalone="no"?>
<svg id="Nederlands_verkeersbord_C8" width="300" height="300" viewBox="0 0 300 300" xmlns="http://www.w3.org/2000/svg" version="1.1">

<circle id="witte_cirkel_met_rode_rand" cx="150" cy="150" r="130.5" fill="#f7fbf5" stroke="#c1121c" stroke-width="39"/>

<g id="tractor">

<path fill="#2a2d2f" d="M 99.1504,210.94018 C 109.5172,210.94018 117.94788,202.55126 117.94788,192.14474 C 117.94788,181.77907 109.5172,173.35748 99.1504,173.35748 C 88.74275,173.35748 80.32024,181.77907 80.32024,192.14474 C 80.32024,202.55126 88.74275,210.94018 99.1504,210.94018"/>

<path fill="#f7fbf5" d="M 99.08504,200.12525 C 103.52095,200.12525 107.09909,196.5475 107.09909,192.12024 C 107.09909,187.70932 103.52095,184.10706 99.08504,184.10706 C 94.68181,184.10706 91.11184,187.70932 91.11184,192.12024 C 91.11184,196.5475 94.68181,200.12525 99.08504,200.12525"/>

<path fill="#2a2d2f" d="M 189.36361,210.90751 C 208.4797,210.90751 223.98497,195.40393 223.98497,176.28992 C 223.98497,157.17592 208.4797,141.67234 189.36361,141.67234 C 170.24753,141.67234 154.77494,157.17592 154.77494,176.28992 C 154.77494,195.40393 170.24753,210.90751 189.36361,210.90751"/>

<path fill="#f7fbf5" d="M 189.26558,196.17175 C 200.27776,196.17175 209.18226,187.26822 209.18226,176.25725 C 209.18226,165.24628 200.27776,156.35091 189.26558,156.35091 C 178.26158,156.35091 169.35708,165.24628 169.35708,176.25725 C 169.35708,187.26822 178.26158,196.17175 189.26558,196.17175"/>

<path fill="#2a2d2f" d="M 189.26558,191.28706 C 197.56556,191.28706 204.29703,184.55632 204.29703,176.22458 C 204.29703,167.93367 197.56556,161.19476 189.26558,161.19476 C 180.97378,161.19476 174.23413,167.93367 174.23413,176.22458 C 174.23413,184.55632 180.97378,191.28706 189.26558,191.28706"/>

<path fill="#2a2d2f" d="M 216.38755,149.26076 C 209.46818,142.34215 199.8938,138.06192 189.36361,138.06192 C 168.23789,138.06192 151.09877,155.1665 151.09877,176.28992 C 151.09877,178.93648 151.38469,181.52585 151.89935,184.00904 L 119.3775,183.95186 C 116.12613,175.97136 108.27547,170.32701 99.1504,170.32701 C 93.27669,170.32701 87.98301,172.655 84.05359,176.42062 L 76.01503,176.42062 L 76.01503,141.70501 C 76.01503,137.35944 80.45094,137.42478 80.45094,137.42478 L 138.97557,137.42478 L 148.06797,97.92251 L 147.01413,89.01898 L 207.45854,89.01898 L 207.45854,129.86087 L 221.08488,144.73548 L 216.38755,149.26076"/>

<path fill="#f7fbf5" d="M 145.42113,137.42478 L 154.48084,97.92251 C 154.57887,97.92251 198.55404,97.92251 198.55404,97.92251 L 198.55404,129.86087 L 162.24165,129.86087 L 156.1147,137.42478 L 145.42113,137.42478"/>

</g>

</svg>