<?xml version="1.0" encoding="UTF-8" standalone="no"?>
<svg id="Nederlands_verkeersbord_C9" width="300" height="300" viewBox="0 0 300 300" xmlns="http://www.w3.org/2000/svg" version="1.1">

<circle id="witte_cirkel_met_rode_rand" cx="150" cy="150" r="130.5" fill="#f7fbf5" stroke="#c1121c" stroke-width="39"/>

<g id="tractor">

<path fill="#2a2d2f" d="M 120.10211,132.35582 C 126.45147,132.35582 131.62049,127.1851 131.62049,120.80542 C 131.62049,114.41758 126.45147,109.2877 120.10211,109.2877 C 113.72007,109.2877 108.55105,114.41758 108.55105,120.80542 C 108.55105,127.1851 113.72007,132.35582 120.10211,132.35582"/>

<path fill="#f7fbf5" d="M 120.07025,125.71475 C 122.78219,125.71475 124.98359,123.5174 124.98359,120.80542 C 124.98359,118.09345 122.78219,115.88793 120.07025,115.88793 C 117.35749,115.88793 115.15609,118.09345 115.15609,120.80542 C 115.15609,123.5174 117.35749,125.71475 120.07025,125.71475"/>

<path fill="#2a2d2f" d="M 175.4624,132.32315 C 187.20461,132.32315 196.71354,122.8149 196.71354,111.06845 C 196.71354,99.330175 187.20461,89.821925 175.4624,89.821925 C 163.75206,89.821925 154.24394,99.330175 154.24394,111.06845 C 154.24394,122.8149 163.75206,132.32315 175.4624,132.32315"/>

<path fill="#f7fbf5" d="M 175.39869,123.28868 C 182.16302,123.28868 187.65142,117.80755 187.65142,111.03578 C 187.65142,104.30485 182.16302,98.815553 175.39869,98.815553 C 168.66622,98.815553 163.17781,104.30485 163.17781,111.03578 C 163.17781,117.80755 168.66622,123.28868 175.39869,123.28868"/>

<path fill="#2a2d2f" d="M 175.39869,120.25813 C 180.504,120.25813 184.65195,116.14115 184.65195,111.03578 C 184.65195,105.9304 180.504,101.8216 175.39869,101.8216 C 170.32524,101.8216 166.17728,105.9304 166.17728,111.03578 C 166.17728,116.14115 170.32524,120.25813 175.39869,120.25813"/>

<path fill="#2a2d2f" d="M 192.05506,94.478026 C 187.81071,90.238523 181.94002,87.616403 175.4624,87.616403 C 162.508,87.616403 151.978,98.113053 151.978,111.06845 C 151.978,112.70217 152.16996,114.29505 152.48853,115.7899 L 132.51412,115.7654 C 130.50386,110.88058 125.71794,107.40075 120.10211,107.40075 C 116.49654,107.40075 113.24139,108.83843 110.81699,111.1338 L 105.90282,111.1338 L 105.90282,89.854599 C 105.90282,87.175298 108.61476,87.232478 108.61476,87.232478 L 144.54386,87.232478 L 150.12784,62.955399 L 149.48906,57.498775 L 186.56665,57.498775 L 186.56665,82.576376 L 194.92628,91.700702 L 192.05506,94.478026"/>

<path fill="#f7fbf5" d="M 148.49986,87.232478 L 154.05198,62.955399 C 154.11569,62.955399 181.1101,62.955399 181.1101,62.955399 L 181.1101,82.576376 L 158.83871,82.576376 L 155.04118,87.232478 L 148.49986,87.232478"/>

</g>

<g id="bromfiets">

<path fill="#2a2d2f" d="M 179.09983,188.70283 C 188.00267,188.70283 195.24567,181.46545 195.24567,172.529 C 195.24567,163.62522 188.00267,156.347 179.09983,156.347 C 170.16596,156.347 162.92296,163.62522 162.92296,172.529 C 162.92296,181.46545 170.16596,188.70283 179.09983,188.70283"/>

<path fill="#f7fbf5" d="M 179.09983,183.27888 C 185.03506,183.27888 189.85283,178.4594 189.85283,172.529 C 189.85283,166.59043 185.03506,161.77095 179.09983,161.77095 C 173.13357,161.77095 168.31498,166.59043 168.31498,172.529 C 168.31498,178.4594 173.13357,183.27888 179.09983,183.27888"/>

<path fill="#2a2d2f" d="M 122.78219,188.70283 C 131.71688,188.70283 138.95988,181.46545 138.95988,172.529 C 138.95988,163.62522 131.71688,156.347 122.78219,156.347 C 113.84831,156.347 106.6045,163.62522 106.6045,172.529 C 106.6045,181.46545 113.84831,188.70283 122.78219,188.70283"/>

<path fill="#f7fbf5" d="M 122.78219,183.27888 C 128.71741,183.27888 133.53519,178.4594 133.53519,172.529 C 133.53519,166.59043 128.71741,161.77095 122.78219,161.77095 C 116.84696,161.77095 112.02919,166.59043 112.02919,172.529 C 112.02919,178.4594 116.84696,183.27888 122.78219,183.27888"/>

<path fill="#2a2d2f" d="M 146.71341,134.68387 L 139.50227,134.68387 C 139.50227,134.68387 135.80112,134.33262 133.82272,139.33998 L 120.22953,171.94903 C 120.22953,171.94903 119.17662,174.40778 121.37802,175.2083 C 123.58025,176.03333 125.20741,173.1008 125.20741,173.1008 L 139.27845,140.2712 L 146.71341,140.2712 L 146.71341,134.68387"/>

<path fill="#2a2d2f" d="M 134.26953,146.65087 L 146.45773,146.87143 L 151.34004,154.6561 L 147.60704,165.3488 L 150.7658,169.88237 L 179.67408,169.97223 C 179.67408,169.97223 182.22673,169.88237 182.22673,172.30028 C 182.22673,174.72635 179.89789,175.2083 179.89789,175.2083 L 151.21261,175.339 C 151.21261,175.339 147.60704,176.03333 145.08625,171.37723 C 145.08625,171.37723 133.2158,151.9768 133.12023,151.9768 C 132.9928,151.9768 134.26953,146.65087 134.26953,146.65087"/>

<path fill="#2a2d2f" d="M 190.45975,146.7734 L 190.68275,153.16125 L 175.36683,153.9536 C 175.36683,153.9536 171.53826,154.43555 169.81471,156.6329 C 168.06012,158.83842 165.60304,157.91537 164.93322,156.28165 C 164.23073,154.6561 161.32765,149.55073 161.32765,149.55073 C 161.32765,149.55073 160.27392,146.7734 163.8803,146.7734 L 190.45975,146.7734"/>

<path fill="#2a2d2f" d="M 123.35643,156.86162 L 123.58025,153.5125 C 123.58025,153.5125 118.25113,152.89985 116.04972,154.30485 L 117.10264,157.56412 L 123.35643,156.86162"/>

</g>

<g id="fiets">

<path fill="#2a2d2f" d="M 124.31378,248.595 C 134.01386,248.595 141.86296,240.74498 141.86296,231.04885 C 141.86296,221.34455 134.01386,213.49453 124.31378,213.49453 C 114.64556,213.49453 106.79645,221.34455 106.79645,231.04885 C 106.79645,240.74498 114.64556,248.595 124.31378,248.595"/>

<path fill="#f7fbf5" d="M 124.31378,244.25747 C 131.62049,244.25747 137.55572,238.3189 137.55572,231.01617 C 137.55572,223.70528 131.62049,217.77487 124.31378,217.77487 C 116.97521,217.77487 111.07184,223.70528 111.07184,231.01617 C 111.07184,238.3189 116.97521,244.25747 124.31378,244.25747"/>

<path fill="#2a2d2f" d="M 147.16022,196.58552 L 147.16022,192.28067 L 139.56598,192.28067 C 136.1197,192.28067 135.16235,196.58552 135.16235,196.58552 C 132.7698,203.3818 123.00519,230.95083 123.00519,230.95083 C 122.0168,233.44225 125.9728,234.84725 126.89829,232.45385 C 127.82378,230.09312 138.99174,198.69302 138.99174,198.69302 C 139.72527,196.29962 141.92749,196.58552 141.92749,196.58552 L 147.16022,196.58552"/>

<path fill="#2a2d2f" d="M 180.82338,228.876 C 179.09983,225.17562 172.71861,211.51773 168.66622,202.81 L 135.44988,202.81 L 132.7698,209.89217 L 153.38216,233.15635 L 178.39816,233.15635 C 183.28047,233.15635 180.82338,228.876 180.82338,228.876"/>
    
<path fill="#f7fbf5" d="M 176.16489,228.876 C 173.32471,222.84757 169.04932,213.69057 166.04986,207.21287 L 135.96041,207.14752 L 155.23314,228.84333 L 176.16489,228.876"/>

<path fill="#2a2d2f" d="M 175.90922,196.58552 L 175.90922,200 L 161.10384,199.93465 C 158.55118,199.93465 158.48747,196.58552 161.10384,196.58552 C 162.41243,196.58552 175.90922,196.58552 175.90922,196.58552"/>

<path fill="#2a2d2f" d="M 161.58251,231.04885 C 161.58251,221.34455 169.43161,213.49453 179.13169,213.49453 C 188.79991,213.49453 196.68169,221.34455 196.68169,231.04885 C 196.68169,240.74498 188.79991,248.595 179.13169,248.595 C 169.43161,248.595 161.58251,240.74498 161.58251,231.04885 z M 179.09983,244.25747 C 186.40736,244.25747 192.34177,238.3189 192.34177,231.01617 C 192.34177,223.70528 186.40736,217.77487 179.09983,217.77487 C 171.79312,217.77487 165.8579,223.70528 165.8579,231.01617 C 165.8579,238.3189 171.79312,244.25747 179.09983,244.25747"/>

<path fill="#2a2d2f" d="M 156.38163,232.22513 L 171.82498,199.39552 L 167.93187,197.57393 L 152.45667,230.59958 L 156.38163,232.22513"/>

</g>

</svg>