<?xml version="1.0" encoding="UTF-8" standalone="no"?>
<svg id="Nederlands_verkeersbord_C4" width="300" height="200" viewBox="0 0 300 200" xmlns="http://www.w3.org/2000/svg" version="1.1">

<rect id="blauw vlak" width="300" height="200" fill="#0e518d"/>

<path id="witte_bies" style="fill:none;stroke:#f7fbf5;stroke-width:6.76430559" d="M 276.30572,192.10324 C 285.02726,192.10324 292.09611,185.04066 292.09611,176.32687 L 292.09611,23.65008 C 292.09611,14.93628 285.02726,7.87951 276.30572,7.87951 L 23.671083,7.87951 C 14.949549,7.87951 7.8806944,14.93628 7.8806944,23.65008 L 7.8806944,176.32687 C 7.8806944,185.04066 14.949549,192.10324 23.671083,192.10324 L 276.30572,192.10324"/>

<path id="witte_pijl" fill="#f7fbf5" d="M 38.90669,114.05832 L 184.13391,114.05832 L 176.47603,146.97219 C 173.31095,154.92458 177.43057,161.19899 185.1387,156.71727 L 257.36116,106.46449 C 263.80613,101.92538 263.80613,98.08902 257.36116,93.55708 L 185.1387,43.33299 C 177.43057,38.85126 173.31095,45.09699 176.47603,53.07806 L 184.13391,85.99192 L 38.90669,85.99192 L 38.90669,114.05832"/>

</svg>