<?xml version="1.0" encoding="UTF-8" standalone="no"?>
<svg id="Nederlands_verkeersbord_C5" width="300" height="300" viewBox="0 0 300 300" xmlns="http://www.w3.org/2000/svg" version="1.1">

<rect id="blauw_vlak" width="300" height="300" fill="#0e518d"/>

<path id="witte_bies" style="fill:none;stroke:#f7fbf5;stroke-width:6.76668739" d="M 276.29665,292.11498 C 285.02992,292.11498 292.09051,285.02856 292.09051,276.31975 L 292.09051,23.68023 C 292.09051,14.9462 285.02992,7.885 276.29665,7.885 L 23.67313,7.885 C 14.971801,7.885 7.880118,14.9462 7.880118,23.68023 L 7.880118,276.31975 C 7.880118,285.02856 14.971801,292.11498 23.67313,292.11498 L 276.29665,292.11498 z "/>

<path id="witte_pijl_naar_beneden" fill="#f7fbf5" d="M 76.469503,45.18325 L 76.469503,182.67484 L 45.277683,175.4203 C 37.726223,172.42769 31.782718,176.33658 36.018223,183.62474 L 83.627603,251.99225 C 87.928653,258.09514 91.540473,258.09514 95.841553,251.99225 L 143.4509,183.62474 C 147.71919,176.33658 141.77653,172.42769 134.22422,175.4203 L 103.03242,182.67484 L 103.03242,45.18325 L 76.469503,45.18325"/>
 
<path id="witte_pijl_naar_boven" fill="#f7fbf5" d="M 223.99199,255.27907 L 223.99199,117.78748 L 255.18465,125.04202 C 262.73613,128.03462 268.67878,124.09213 264.4105,116.83759 L 216.83475,48.47008 C 212.53284,42.35877 208.88906,42.35877 204.58716,48.47008 L 157.01142,116.83759 C 152.74314,124.09213 158.68581,128.03462 166.23726,125.04202 L 197.4299,117.78748 L 197.4299,255.27907 L 223.99199,255.27907"/>

</svg>