<?xml version="1.0" encoding="UTF-8" standalone="yes"?>
<svg xmlns="http://www.w3.org/2000/svg" xmlns:xlink="http://www.w3.org/1999/xlink" width="375px" height="375px" viewBox="0 0 375 375" version="1.1">
  <g id="surface1">
    <path style=" stroke:none;fill-rule:nonzero;fill:rgb(78.039217%,45.490196%,0%);fill-opacity:1;" d="M 46.875 46.875 L 46.875 187.5 C 46.875 234.375 93.75 257.8125 152.34375 257.8125 C 210.9375 257.8125 257.8125 234.375 257.8125 187.5 L 304.6875 187.5 C 328.125 187.5 351.5625 164.0625 351.5625 140.625 L 351.5625 117.1875 C 351.5625 93.75 328.125 70.3125 304.6875 70.3125 L 257.8125 70.3125 L 257.8125 46.875 Z M 257.8125 99.609375 L 298.828125 99.609375 C 314.480469 99.609375 322.265625 112.800781 322.265625 128.90625 C 322.265625 145.011719 313.167969 158.203125 298.828125 158.203125 L 257.8125 158.203125 Z M 23.4375 281.25 C 23.4375 304.6875 46.875 328.125 70.3125 328.125 L 234.375 328.125 C 257.8125 328.125 281.25 304.6875 281.25 281.25 Z M 23.4375 281.25 "/>
  </g>
</svg>