<?xml version="1.0" encoding="UTF-8" standalone="no"?>
<svg
   version="1.1"
   id="Nederlands_verkeersbord_OB53"
   width="300"
   height="150"
   viewBox="0 0 300 150"
   sodipodi:docname="Nederlands_verkeersbord_OB53.svg"
   inkscape:version="1.2.2 (b0a8486541, 2022-12-01)"
   xmlns:inkscape="http://www.inkscape.org/namespaces/inkscape"
   xmlns:sodipodi="http://sodipodi.sourceforge.net/DTD/sodipodi-0.dtd"
   xmlns="http://www.w3.org/2000/svg"
   xmlns:svg="http://www.w3.org/2000/svg">
  <defs
     id="defs1912" />
  <sodipodi:namedview
     id="namedview1910"
     pagecolor="#505050"
     bordercolor="#eeeeee"
     borderopacity="1"
     inkscape:showpageshadow="0"
     inkscape:pageopacity="0"
     inkscape:pagecheckerboard="0"
     inkscape:deskcolor="#505050"
     showgrid="false"
     inkscape:zoom="1.5733333"
     inkscape:cx="150"
     inkscape:cy="75"
     inkscape:window-width="3840"
     inkscape:window-height="2091"
     inkscape:window-x="0"
     inkscape:window-y="0"
     inkscape:window-maximized="1"
     inkscape:current-layer="g1907" />
  <g
     id="g1907">
    <rect
       id="wit_vlak"
       width="300"
       height="150"
       fill="#f7fbf5" />
    <g
       aria-label="uitgezonderd"
       id="text1887"
       style="font-size:32px;font-family:Verdana">
      <path
         d="m 44.820312,22.625 h 3.84375 V 40 h -3.84375 v -1.765625 q -1.90625,1.984375 -4.671875,1.984375 -1.75,0 -3.234375,-0.859375 -1.46875,-0.859375 -2.328125,-2.3125 -0.859375,-1.46875 -0.859375,-3.21875 V 22.625 h 3.875 v 9.984375 q 0,0.984375 0.46875,1.8125 0.484375,0.8125 1.3125,1.3125 0.828125,0.484375 1.828125,0.484375 0.984375,0 1.8125,-0.484375 0.828125,-0.484375 1.3125,-1.3125 0.484375,-0.828125 0.484375,-1.8125 z"
         style="font-family:'Anwb Ee VL';-inkscape-font-specification:'Anwb Ee VL'"
         id="path2048" />
      <path
         d="M 57.914062,40 V 22.625 h 3.875 V 40 Z m -0.28125,-20.921875 q 0,-0.59375 0.296875,-1.109375 0.3125,-0.515625 0.8125,-0.8125 0.515625,-0.296875 1.125,-0.296875 0.59375,0 1.09375,0.296875 0.515625,0.296875 0.8125,0.8125 0.296875,0.515625 0.296875,1.109375 0,0.90625 -0.65625,1.578125 -0.640625,0.65625 -1.546875,0.65625 -0.9375,0 -1.59375,-0.65625 -0.640625,-0.671875 -0.640625,-1.578125 z"
         style="font-family:'Anwb Ee VL';-inkscape-font-specification:'Anwb Ee VL'"
         id="path2050" />
      <path
         d="m 79.164062,39.390625 q -0.734375,0.4375 -1.3125,0.625 -0.578125,0.203125 -2.046875,0.203125 -1.140625,0 -2.078125,-0.546875 -0.921875,-0.5625 -1.46875,-1.5 -0.546875,-0.9375 -0.546875,-2.046875 v -9.59375 h -3.109375 v -3.875 h 3.109375 V 18.5 l 3.828125,-1.640625 v 5.796875 h 4.359375 v 3.875 h -4.359375 v 8.25 q 0,0.703125 0.5,1.1875 0.5,0.484375 1.171875,0.484375 1.578125,0 2.84375,-1.3125 z"
         style="font-family:'Anwb Ee VL';-inkscape-font-specification:'Anwb Ee VL'"
         id="path2052" />
      <path
         d="m 96.304687,39.203125 q -1.5625,1.015625 -3.453125,1.015625 -2.203125,0 -3.9375,-1.15625 -1.734375,-1.171875 -2.671875,-3.1875 -0.9375,-2.03125 -0.9375,-4.546875 0,-2.53125 0.9375,-4.546875 0.9375,-2.03125 2.65625,-3.203125 1.734375,-1.171875 3.953125,-1.171875 1.890625,0 3.453125,1.015625 V 22.625 h 3.843753 V 40 q 0,2.078125 -0.953128,3.890625 -0.9375,1.828125 -2.578125,3.03125 -1.640625,1.203125 -3.640625,1.5 l -1.6875,-3.96875 q 0.15625,0 0.234375,0 0.09375,0.01563 0.203125,0.03125 1.890625,0 3.234375,-1.34375 1.34375,-1.34375 1.34375,-3.234375 z m 0,-11.296875 q -0.515625,-0.734375 -1.234375,-1.09375 -0.703125,-0.375 -1.640625,-0.375 -1.78125,0 -2.796875,1.359375 -1.015625,1.34375 -1.015625,3.53125 0,1.4375 0.453125,2.546875 0.453125,1.09375 1.3125,1.703125 0.875,0.609375 2.046875,0.609375 1.796875,0 2.875,-1.46875 z"
         style="font-family:'Anwb Ee VL';-inkscape-font-specification:'Anwb Ee VL'"
         id="path2054" />
      <path
         d="m 120.78906,37.53125 q -1.26562,1.328125 -2.8125,2.015625 -1.53125,0.671875 -3.35937,0.671875 -1.625,0 -3.03125,-0.65625 -1.39063,-0.671875 -2.40625,-1.890625 -1.01563,-1.21875 -1.5625,-2.84375 -0.54688,-1.640625 -0.54688,-3.53125 0,-2.53125 0.9375,-4.546875 0.95313,-2.015625 2.67188,-3.171875 1.73437,-1.171875 3.9375,-1.171875 2.20312,0 3.9375,1.171875 1.73437,1.15625 2.67187,3.1875 0.9375,2.015625 0.9375,4.53125 0,0.703125 -0.0312,1.0625 h -10.90625 q 0.20313,1.875 1.07813,3.0625 0.89062,1.1875 2.3125,1.1875 1.20312,0 1.92187,-0.3125 0.73438,-0.3125 1.34375,-1.03125 z m -2.90625,-8.25 q -0.3125,-1.5 -1.14062,-2.34375 -0.8125,-0.859375 -2.125,-0.859375 -2.51563,0 -3.23438,3.203125 z"
         style="font-family:'Anwb Ee VL';-inkscape-font-specification:'Anwb Ee VL'"
         id="path2056" />
      <path
         d="m 133.57031,36.15625 h 9.59375 V 40 H 127.80469 V 36.640625 L 137.36719,26.5 h -9.10938 v -3.84375 h 14.84375 v 3.390625 z"
         style="font-family:'Anwb Ee VL';-inkscape-font-specification:'Anwb Ee VL'"
         id="path2058" />
      <path
         d="m 163.50781,31.296875 q 0,2.53125 -0.9375,4.5625 -0.9375,2.015625 -2.67187,3.1875 -1.71875,1.171875 -3.9375,1.171875 -2.20313,0 -3.9375,-1.171875 -1.73438,-1.171875 -2.67188,-3.1875 -0.9375,-2.03125 -0.9375,-4.5625 0,-2.515625 0.9375,-4.53125 0.9375,-2.03125 2.65625,-3.1875 1.73438,-1.171875 3.95313,-1.171875 2.20312,0 3.9375,1.171875 1.73437,1.15625 2.67187,3.1875 0.9375,2.015625 0.9375,4.53125 z m -7.54687,-5.21875 q -1.15625,0 -1.9375,0.6875 -0.76563,0.6875 -1.14063,1.859375 -0.375,1.171875 -0.375,2.671875 0,2.3125 0.875,3.78125 0.875,1.46875 2.57813,1.46875 1.70312,0 2.57812,-1.46875 0.875,-1.46875 0.875,-3.78125 0,-1.5 -0.375,-2.671875 -0.375,-1.171875 -1.15625,-1.859375 -0.76562,-0.6875 -1.92187,-0.6875 z"
         style="font-family:'Anwb Ee VL';-inkscape-font-specification:'Anwb Ee VL'"
         id="path2060" />
      <path
         d="m 174.44531,40 h -3.82812 V 22.625 h 3.82812 v 1.765625 q 0.89063,-0.921875 2.125,-1.46875 1.23438,-0.546875 2.54688,-0.546875 1.73437,0 3.21875,0.875 1.48437,0.859375 2.34375,2.34375 0.875,1.46875 0.875,3.203125 V 40 h -3.84375 v -9.984375 q 0,-1 -0.5,-1.8125 -0.48438,-0.828125 -1.3125,-1.3125 -0.82813,-0.484375 -1.82813,-0.484375 -0.98437,0 -1.82812,0.5 -0.82813,0.484375 -1.3125,1.3125 -0.48438,0.828125 -0.48438,1.796875 z"
         style="font-family:'Anwb Ee VL';-inkscape-font-specification:'Anwb Ee VL'"
         id="path2062" />
      <path
         d="m 203.47656,17.5625 3.875,-1.625 V 40 h -3.875 v -0.796875 q -1.5625,1.015625 -3.45312,1.015625 -2.20313,0 -3.9375,-1.171875 -1.73438,-1.171875 -2.67188,-3.1875 -0.9375,-2.03125 -0.9375,-4.5625 0,-2.515625 0.9375,-4.53125 0.9375,-2.03125 2.65625,-3.1875 1.73438,-1.171875 3.95313,-1.171875 1.85937,0 3.45312,0.984375 z m 0,10.34375 q -1,-1.46875 -2.84375,-1.46875 -1.78125,0 -2.79687,1.34375 -1.01563,1.328125 -1.01563,3.515625 0,2.1875 1.01563,3.546875 1.01562,1.34375 2.79687,1.34375 1.82813,0 2.84375,-1.46875 z"
         style="font-family:'Anwb Ee VL';-inkscape-font-specification:'Anwb Ee VL'"
         id="path2064" />
      <path
         d="m 227.99219,37.53125 q -1.26563,1.328125 -2.8125,2.015625 -1.53125,0.671875 -3.35938,0.671875 -1.625,0 -3.03125,-0.65625 -1.39062,-0.671875 -2.40625,-1.890625 -1.01562,-1.21875 -1.5625,-2.84375 -0.54687,-1.640625 -0.54687,-3.53125 0,-2.53125 0.9375,-4.546875 0.95312,-2.015625 2.67187,-3.171875 1.73438,-1.171875 3.9375,-1.171875 2.20313,0 3.9375,1.171875 1.73438,1.15625 2.67188,3.1875 0.9375,2.015625 0.9375,4.53125 0,0.703125 -0.0312,1.0625 h -10.90625 q 0.20312,1.875 1.07812,3.0625 0.89063,1.1875 2.3125,1.1875 1.20313,0 1.92188,-0.3125 0.73437,-0.3125 1.34375,-1.03125 z m -2.90625,-8.25 q -0.3125,-1.5 -1.14063,-2.34375 -0.8125,-0.859375 -2.125,-0.859375 -2.51562,0 -3.23437,3.203125 z"
         style="font-family:'Anwb Ee VL';-inkscape-font-specification:'Anwb Ee VL'"
         id="path2066" />
      <path
         d="m 246.75781,27.609375 q -0.79687,-1.203125 -2.53125,-1.203125 -1.48437,0 -2.5625,1.0625 -1.0625,1.046875 -1.0625,2.546875 V 40 h -3.82812 V 22.625 h 3.82812 v 1.765625 q 0.95313,-0.984375 2,-1.515625 1.0625,-0.53125 2.39063,-0.53125 1.01562,0 1.6875,0.25 0.67187,0.234375 1.21875,0.703125 z"
         style="font-family:'Anwb Ee VL';-inkscape-font-specification:'Anwb Ee VL'"
         id="path2068" />
      <path
         d="m 262.39844,17.5625 3.875,-1.625 V 40 h -3.875 v -0.796875 q -1.5625,1.015625 -3.45313,1.015625 -2.20312,0 -3.9375,-1.171875 -1.73437,-1.171875 -2.67187,-3.1875 -0.9375,-2.03125 -0.9375,-4.5625 0,-2.515625 0.9375,-4.53125 0.9375,-2.03125 2.65625,-3.1875 1.73437,-1.171875 3.95312,-1.171875 1.85938,0 3.45313,0.984375 z m 0,10.34375 q -1,-1.46875 -2.84375,-1.46875 -1.78125,0 -2.79688,1.34375 -1.01562,1.328125 -1.01562,3.515625 0,2.1875 1.01562,3.546875 1.01563,1.34375 2.79688,1.34375 1.82812,0 2.84375,-1.46875 z"
         style="font-family:'Anwb Ee VL';-inkscape-font-specification:'Anwb Ee VL'"
         id="path2070" />
    </g>
    <g
       id="bromfiets"
       transform="scale(0.8) translate(40, -30)">
      <path
         fill="#2a2d2f"
         d="M 206.69099,199.03603 C 224.43407,199.03603 238.82606,184.64178 238.82606,166.89813 C 238.82606,149.15448 224.43407,134.7684 206.69099,134.7684 C 188.94874,134.7684 174.58779,149.15448 174.58779,166.89813 C 174.58779,184.64178 188.94874,199.03603 206.69099,199.03603"
         id="path1889" />
      <path
         fill="#f7fbf5"
         d="M 206.69099,188.24442 C 218.4982,188.24442 228.07189,178.70272 228.07189,166.89813 C 228.07189,155.09354 218.4982,145.55183 206.69099,145.55183 C 194.88379,145.55183 185.34277,155.09354 185.34277,166.89813 C 185.34277,178.70272 194.88379,188.24442 206.69099,188.24442"
         id="path1891" />
      <path
         fill="#2a2d2f"
         d="M 94.84077,199.03603 C 112.58384,199.03603 126.97583,184.64178 126.97583,166.89813 C 126.97583,149.15448 112.58384,134.7684 94.84077,134.7684 C 77.09851,134.7684 62.73756,149.15448 62.73756,166.89813 C 62.73756,184.64178 77.09851,199.03603 94.84077,199.03603"
         id="path1893" />
      <path
         fill="#f7fbf5"
         d="M 94.84077,188.24442 C 106.64797,188.24442 116.22166,178.70272 116.22166,166.89813 C 116.22166,155.09354 106.64797,145.55183 94.84077,145.55183 C 83.06542,145.55183 73.49173,155.09354 73.49173,166.89813 C 73.49173,178.70272 83.06542,188.24442 94.84077,188.24442"
         id="path1895" />
      <path
         fill="#2a2d2f"
         d="M 142.35714,91.716363 L 128.06073,91.716363 C 128.06073,91.716363 120.6895,91.013806 116.76411,100.93947 L 89.79862,165.74626 C 89.79862,165.74626 87.69256,170.59881 92.09667,172.19998 C 96.46811,173.82567 99.69174,168.05 99.69174,168.05 L 127.61386,102.78572 L 142.35714,102.78572 L 142.35714,91.716363"
         id="path1897" />
      <path
         fill="#2a2d2f"
         d="M 117.6897,115.45625 L 141.91027,115.93824 L 151.57955,131.37816 L 144.20832,152.60191 L 150.43093,161.60444 L 207.84042,161.82501 C 207.84042,161.82501 212.91443,161.60444 212.91443,166.44882 C 212.91443,171.26869 208.31915,172.19998 208.31915,172.19998 L 151.35653,172.45323 C 151.35653,172.45323 144.20832,173.82567 139.13432,164.60257 C 139.13432,164.60257 115.61549,126.08447 115.39247,126.08447 C 115.13677,126.08447 117.6897,115.45625 117.6897,115.45625"
         id="path1899" />
      <path
         fill="#2a2d2f"
         d="M 229.28504,115.7095 L 229.76377,128.38003 L 199.31976,130.00572 C 199.31976,130.00572 191.72469,130.93701 188.24617,135.30757 C 184.79951,139.67813 179.94935,137.83188 178.57689,134.60502 C 177.1734,131.37816 171.39683,121.23193 171.39683,121.23193 C 171.39683,121.23193 169.32262,115.7095 176.47083,115.7095 L 229.28504,115.7095"
         id="path1901" />
      <path
         fill="#2a2d2f"
         d="M 96.02206,135.75688 L 96.46811,129.08259 C 96.46811,129.08259 85.87406,127.93889 81.46994,130.68377 L 83.54415,137.15383 L 96.02206,135.75688"
         id="path1903" />
    </g>
    <path
       id="zwarte_bies"
       style="fill:none;stroke:#808080;stroke-width:3"
       d="M 280,145 C 290,145 295,140 295,130 L 295,25 C 295,15 290,5 280,5 L 25,5 C 15,5 5,15 5,25 L 5,130 C 5,140 15,145 25,145 L 280,145 z" />
  </g>
</svg>
