<?xml version="1.0" encoding="UTF-8" standalone="no"?>
<svg
   version="1"
   id="Netherlands_traffic_sign_OB66"
   width="300"
   height="150"
   viewBox="0 0 300 150"
   sodipodi:docname="Nederlands_verkeersbord_OB66.svg"
   inkscape:version="1.2.2 (b0a8486541, 2022-12-01)"
   xmlns:inkscape="http://www.inkscape.org/namespaces/inkscape"
   xmlns:sodipodi="http://sodipodi.sourceforge.net/DTD/sodipodi-0.dtd"
   xmlns="http://www.w3.org/2000/svg"
   xmlns:svg="http://www.w3.org/2000/svg">
  <defs
     id="defs4618" />
  <sodipodi:namedview
     id="namedview4616"
     pagecolor="#505050"
     bordercolor="#eeeeee"
     borderopacity="1"
     inkscape:showpageshadow="0"
     inkscape:pageopacity="0"
     inkscape:pagecheckerboard="0"
     inkscape:deskcolor="#505050"
     showgrid="false"
     inkscape:zoom="1.5733333"
     inkscape:cx="150"
     inkscape:cy="75"
     inkscape:window-width="3840"
     inkscape:window-height="2091"
     inkscape:window-x="0"
     inkscape:window-y="0"
     inkscape:window-maximized="1"
     inkscape:current-layer="g4613" />
  <g
     font-family="Verdana,Arial,Helvetica,Sans,Liberation Sans,sans-serif"
     id="g4613">
    <rect
       id="white_surface"
       width="300"
       height="150"
       fill="#f7fbf5" />
    <rect
       id="border"
       x="2"
       y="2"
       rx="10"
       ry="10"
       width="296"
       height="146"
       stroke="gray"
       stroke-width="4px"
       fill="none" />
    <g
       aria-label="uitgezonderd
gehandicapten-
voertuigen"
       id="text4839"
       style="font-size:28px;font-family:'Anwb Ee VL';-inkscape-font-specification:'Anwb Ee VL'">
      <path
         d="m 36.796875,31.639648 h 3.363281 v 15.203125 h -3.363281 v -1.544921 q -1.667969,1.736328 -4.087891,1.736328 -1.53125,0 -2.830078,-0.751953 -1.285156,-0.751954 -2.037109,-2.023438 -0.751953,-1.285156 -0.751953,-2.816406 v -9.802735 h 3.390625 v 8.736329 q 0,0.861328 0.410156,1.585937 0.423828,0.710938 1.148437,1.148438 0.72461,0.423828 1.59961,0.423828 0.861328,0 1.585937,-0.423828 0.72461,-0.423829 1.148438,-1.148438 0.423828,-0.724609 0.423828,-1.585937 z"
         id="path4918" />
      <path
         d="M 48.253906,46.842773 V 31.639648 h 3.390625 v 15.203125 z m -0.246094,-18.30664 q 0,-0.519531 0.259766,-0.970703 0.273438,-0.451172 0.710938,-0.710938 0.451171,-0.259765 0.984375,-0.259765 0.519531,0 0.957031,0.259765 0.451172,0.259766 0.710937,0.710938 0.259766,0.451172 0.259766,0.970703 0,0.792969 -0.574219,1.380859 -0.560547,0.574219 -1.353515,0.574219 -0.820313,0 -1.394532,-0.574219 -0.560547,-0.58789 -0.560547,-1.380859 z"
         id="path4920" />
      <path
         d="m 66.847656,46.30957 q -0.642578,0.382813 -1.148437,0.546875 -0.50586,0.177735 -1.791016,0.177735 -0.998047,0 -1.818359,-0.478516 -0.806641,-0.492187 -1.285157,-1.3125 -0.478515,-0.820312 -0.478515,-1.791016 v -8.394531 h -2.720703 v -3.390625 h 2.720703 v -3.636719 l 3.349609,-1.435546 v 5.072265 h 3.814453 v 3.390625 h -3.814453 v 7.21875 q 0,0.615235 0.4375,1.039063 0.4375,0.423828 1.025391,0.423828 1.380859,0 2.488281,-1.148438 z"
         id="path4922" />
      <path
         d="m 81.845703,46.145508 q -1.367187,0.888672 -3.021484,0.888672 -1.927735,0 -3.445313,-1.011719 -1.517578,-1.025391 -2.33789,-2.789063 -0.820313,-1.777343 -0.820313,-3.978515 0,-2.214844 0.820313,-3.978516 0.820312,-1.777344 2.324218,-2.802734 1.517578,-1.025391 3.458985,-1.025391 1.654297,0 3.021484,0.888672 v -0.697266 h 3.363281 v 15.203125 q 0,1.81836 -0.833984,3.404297 -0.820313,1.59961 -2.255859,2.652344 -1.435547,1.052734 -3.185547,1.3125 l -1.476563,-3.472656 q 0.136719,0 0.205078,0 0.08203,0.01367 0.177735,0.02734 1.654297,0 2.830078,-1.175782 1.175781,-1.175781 1.175781,-2.830078 z m 0,-9.884766 q -0.451172,-0.642578 -1.080078,-0.957031 -0.615234,-0.328125 -1.435547,-0.328125 -1.558594,0 -2.447266,1.189453 -0.888671,1.175781 -0.888671,3.089844 0,1.257812 0.396484,2.228515 0.396484,0.957032 1.148437,1.490235 0.765625,0.533203 1.791016,0.533203 1.572266,0 2.515625,-1.285156 z"
         id="path4924" />
      <path
         d="m 103.26953,44.682617 q -1.10742,1.16211 -2.46094,1.763672 -1.33984,0.587891 -2.939449,0.587891 -1.421875,0 -2.652344,-0.574219 Q 94,45.87207 93.111328,44.805664 q -0.888672,-1.066406 -1.367187,-2.488281 -0.478516,-1.435547 -0.478516,-3.089844 0,-2.214844 0.820312,-3.978516 0.833985,-1.763671 2.337891,-2.77539 1.517578,-1.025391 3.445313,-1.025391 1.927734,0 3.445309,1.025391 1.51758,1.011719 2.33789,2.789062 0.82032,1.763672 0.82032,3.964844 0,0.615234 -0.0273,0.929688 h -9.542966 q 0.177734,1.640625 0.943359,2.679687 0.779297,1.039063 2.023438,1.039063 1.052734,0 1.68164,-0.273438 0.642579,-0.273437 1.175779,-0.902344 z m -2.54297,-7.21875 q -0.27343,-1.3125 -0.998044,-2.050781 -0.710938,-0.751953 -1.859375,-0.751953 -2.201172,0 -2.830079,2.802734 z"
         id="path4926" />
      <path
         d="m 114.45313,43.479492 h 8.39453 v 3.363281 H 109.4082 V 43.90332 l 8.36719,-8.873047 h -7.9707 v -3.363281 h 12.98828 v 2.966797 z"
         id="path4928" />
      <path
         d="m 140.64844,39.227539 q 0,2.214844 -0.82032,3.992188 -0.82031,1.763671 -2.33789,2.789062 -1.5039,1.025391 -3.44531,1.025391 -1.92773,0 -3.44531,-1.025391 -1.51758,-1.025391 -2.33789,-2.789062 -0.82031,-1.777344 -0.82031,-3.992188 0,-2.201172 0.82031,-3.964844 0.82031,-1.777343 2.32422,-2.789062 1.51758,-1.025391 3.45898,-1.025391 1.92774,0 3.44531,1.025391 1.51758,1.011719 2.33789,2.789062 0.82032,1.763672 0.82032,3.964844 z m -6.60352,-4.566406 q -1.01172,0 -1.69531,0.601562 -0.66992,0.601563 -0.99805,1.626953 -0.32812,1.025391 -0.32812,2.337891 0,2.023438 0.76562,3.308594 0.76563,1.285156 2.25586,1.285156 1.49024,0 2.25586,-1.285156 0.76563,-1.285156 0.76563,-3.308594 0,-1.3125 -0.32813,-2.337891 -0.32812,-1.02539 -1.01172,-1.626953 -0.66992,-0.601562 -1.68164,-0.601562 z"
         id="path4930" />
      <path
         d="m 150.21875,46.842773 h -3.34961 V 31.639648 h 3.34961 v 1.544922 q 0.7793,-0.80664 1.85937,-1.285156 1.08008,-0.478516 2.22852,-0.478516 1.51758,0 2.81641,0.765625 1.29882,0.751954 2.05078,2.050782 0.76562,1.285156 0.76562,2.802734 v 9.802734 h -3.36328 v -8.736328 q 0,-0.875 -0.4375,-1.585937 -0.42383,-0.72461 -1.14844,-1.148438 -0.72461,-0.423828 -1.59961,-0.423828 -0.86132,0 -1.5996,0.4375 -0.72461,0.423828 -1.14844,1.148438 -0.42383,0.724609 -0.42383,1.572265 z"
         id="path4932" />
      <path
         d="m 175.62109,27.209961 3.39063,-1.421875 v 21.054687 h -3.39063 v -0.697265 q -1.36718,0.888672 -3.02148,0.888672 -1.92774,0 -3.44531,-1.025391 -1.51758,-1.025391 -2.33789,-2.789062 -0.82032,-1.777344 -0.82032,-3.992188 0,-2.201172 0.82032,-3.964844 0.82031,-1.777343 2.32421,-2.789062 1.51758,-1.025391 3.45899,-1.025391 1.62695,0 3.02148,0.861328 z m 0,9.050781 q -0.875,-1.285156 -2.48828,-1.285156 -1.55859,0 -2.44726,1.175781 -0.88868,1.16211 -0.88868,3.076172 0,1.914063 0.88868,3.103516 0.88867,1.175781 2.44726,1.175781 1.59961,0 2.48828,-1.285156 z"
         id="path4934" />
      <path
         d="m 197.07227,44.682617 q -1.10743,1.16211 -2.46094,1.763672 -1.33985,0.587891 -2.93946,0.587891 -1.42187,0 -2.65234,-0.574219 -1.2168,-0.587891 -2.10547,-1.654297 -0.88867,-1.066406 -1.36719,-2.488281 -0.47851,-1.435547 -0.47851,-3.089844 0,-2.214844 0.82031,-3.978516 0.83399,-1.763671 2.33789,-2.77539 1.51758,-1.025391 3.44531,-1.025391 1.92774,0 3.44532,1.025391 1.51758,1.011719 2.33789,2.789062 0.82031,1.763672 0.82031,3.964844 0,0.615234 -0.0273,0.929688 h -9.54297 q 0.17773,1.640625 0.94336,2.679687 0.77929,1.039063 2.02343,1.039063 1.05274,0 1.68165,-0.273438 0.64257,-0.273437 1.17578,-0.902344 z m -2.54297,-7.21875 q -0.27344,-1.3125 -0.99805,-2.050781 -0.71094,-0.751953 -1.85938,-0.751953 -2.20117,0 -2.83007,2.802734 z"
         id="path4936" />
      <path
         d="m 213.49219,36.000977 q -0.69727,-1.052735 -2.21485,-1.052735 -1.29882,0 -2.24218,0.929688 -0.92969,0.916015 -0.92969,2.228515 v 8.736328 h -3.34961 V 31.639648 h 3.34961 v 1.544922 q 0.83398,-0.861328 1.75,-1.326172 0.92969,-0.464843 2.0918,-0.464843 0.88867,0 1.47656,0.21875 0.58789,0.205078 1.0664,0.615234 z"
         id="path4938" />
      <path
         d="m 227.17773,27.209961 3.39063,-1.421875 v 21.054687 h -3.39063 v -0.697265 q -1.36718,0.888672 -3.02148,0.888672 -1.92773,0 -3.44531,-1.025391 -1.51758,-1.025391 -2.33789,-2.789062 -0.82032,-1.777344 -0.82032,-3.992188 0,-2.201172 0.82032,-3.964844 0.82031,-1.777343 2.32422,-2.789062 1.51757,-1.025391 3.45898,-1.025391 1.62695,0 3.02148,0.861328 z m 0,9.050781 q -0.875,-1.285156 -2.48828,-1.285156 -1.55859,0 -2.44726,1.175781 -0.88867,1.16211 -0.88867,3.076172 0,1.914063 0.88867,3.103516 0.88867,1.175781 2.44726,1.175781 1.59961,0 2.48828,-1.285156 z"
         id="path4940" />
      <path
         d="m 34.923828,81.145508 q -1.367187,0.888672 -3.021484,0.888672 -1.927735,0 -3.445313,-1.011719 -1.517578,-1.025391 -2.33789,-2.789063 -0.820313,-1.777343 -0.820313,-3.978515 0,-2.214844 0.820313,-3.978516 0.820312,-1.777344 2.324218,-2.802734 1.517578,-1.025391 3.458985,-1.025391 1.654297,0 3.021484,0.888672 v -0.697266 h 3.363281 v 15.203125 q 0,1.81836 -0.833984,3.404297 -0.820313,1.59961 -2.255859,2.652344 -1.435547,1.052734 -3.185547,1.3125 l -1.476563,-3.472656 q 0.136719,0 0.205078,0 0.08203,0.01367 0.177735,0.02734 1.654297,0 2.830078,-1.175782 1.175781,-1.175781 1.175781,-2.830078 z m 0,-9.884766 q -0.451172,-0.642578 -1.080078,-0.957031 -0.615234,-0.328125 -1.435547,-0.328125 -1.558594,0 -2.447266,1.189453 -0.888671,1.175781 -0.888671,3.089844 0,1.257812 0.396484,2.228515 0.396484,0.957032 1.148437,1.490235 0.765625,0.533203 1.791016,0.533203 1.572266,0 2.515625,-1.285156 z"
         id="path4942" />
      <path
         d="m 56.347656,79.682617 q -1.107422,1.16211 -2.460937,1.763672 -1.339844,0.587891 -2.939453,0.587891 -1.421875,0 -2.652344,-0.574219 -1.216797,-0.587891 -2.105469,-1.654297 -0.888672,-1.066406 -1.367187,-2.488281 -0.478516,-1.435547 -0.478516,-3.089844 0,-2.214844 0.820312,-3.978516 0.833985,-1.763671 2.337891,-2.77539 1.517578,-1.025391 3.445313,-1.025391 1.927734,0 3.445312,1.025391 1.517578,1.011719 2.337891,2.789062 0.820312,1.763672 0.820312,3.964844 0,0.615234 -0.02734,0.929688 h -9.542968 q 0.177734,1.640625 0.943359,2.679687 0.779297,1.039063 2.023438,1.039063 1.052734,0 1.68164,-0.273438 0.642578,-0.273437 1.175781,-0.902344 z m -2.542969,-7.21875 q -0.273437,-1.3125 -0.998046,-2.050781 -0.710938,-0.751953 -1.859375,-0.751953 -2.201172,0 -2.830079,2.802734 z"
         id="path4944" />
      <path
         d="m 64.03125,62.209961 3.390625,-1.449219 v 7.423828 q 1.626953,-1.736328 3.964844,-1.736328 1.544922,0 2.816406,0.751953 1.271484,0.751953 2.009766,2.050782 0.751953,1.298828 0.751953,2.816406 v 9.77539 h -3.390625 v -8.736328 q 0,-0.847656 -0.410157,-1.572265 -0.396484,-0.72461 -1.107421,-1.148438 -0.697266,-0.4375 -1.558594,-0.4375 -0.875,0 -1.585938,0.4375 -0.697265,0.423828 -1.09375,1.16211 -0.396484,0.724609 -0.396484,1.558593 v 8.736328 H 64.03125 Z"
         id="path4946" />
      <path
         d="m 92.509766,81.09082 q -1.53125,0.916016 -3.445313,0.916016 -1.613281,0 -3.007812,-0.683594 -1.394532,-0.697265 -2.214844,-1.90039 -0.820313,-1.203125 -0.820313,-2.597657 0,-1.394531 0.820313,-2.583984 0.820312,-1.203125 2.214844,-1.886719 1.394531,-0.697265 3.007812,-0.697265 1.914063,0 3.445313,0.916015 V 71.09668 q 0,-0.341797 -0.341797,-0.72461 -0.341797,-0.382812 -0.875,-0.642578 -0.519532,-0.259765 -1.052735,-0.259765 -1.572265,0 -2.501953,0.273437 -0.929687,0.259766 -2.091797,0.875 l -1.339843,-2.501953 q 1.066406,-0.601563 1.859375,-0.943359 0.80664,-0.355469 1.75,-0.533204 0.943359,-0.191406 2.105468,-0.191406 h 0.697266 q 1.476562,0.06836 2.638672,0.669922 1.175781,0.587891 1.845703,1.626953 0.669922,1.025391 0.669922,2.228516 v 10.86914 h -3.363281 z m 0,-5.605468 q -0.546875,-0.464844 -1.503907,-0.765625 -0.957031,-0.300782 -1.941406,-0.300782 -0.65625,0 -1.230469,0.314453 -0.560547,0.300782 -0.902343,0.806641 -0.328125,0.505859 -0.328125,1.121094 0,0.601562 0.328125,1.121094 0.341796,0.505859 0.902343,0.820312 0.574219,0.300781 1.230469,0.300781 2.296875,0 3.445313,-0.929687 z"
         id="path4948" />
      <path
         d="m 107.08398,81.842773 h -3.3496 V 66.639648 h 3.3496 v 1.544922 q 0.7793,-0.80664 1.85938,-1.285156 1.08008,-0.478516 2.22852,-0.478516 1.51757,0 2.8164,0.765625 1.29883,0.751954 2.05078,2.050782 0.76563,1.285156 0.76563,2.802734 v 9.802734 h -3.36328 v -8.736328 q 0,-0.875 -0.4375,-1.585937 -0.42383,-0.72461 -1.14844,-1.148438 -0.72461,-0.423828 -1.59961,-0.423828 -0.86133,0 -1.59961,0.4375 -0.72461,0.423828 -1.14844,1.148438 -0.42383,0.724609 -0.42383,1.572265 z"
         id="path4950" />
      <path
         d="m 132.48633,62.209961 3.39062,-1.421875 v 21.054687 h -3.39062 v -0.697265 q -1.36719,0.888672 -3.02149,0.888672 -1.92773,0 -3.44531,-1.025391 -1.51758,-1.025391 -2.33789,-2.789062 -0.82031,-1.777344 -0.82031,-3.992188 0,-2.201172 0.82031,-3.964844 0.82031,-1.777343 2.32422,-2.789062 1.51758,-1.025391 3.45898,-1.025391 1.62696,0 3.02149,0.861328 z m 0,9.050781 q -0.875,-1.285156 -2.48828,-1.285156 -1.5586,0 -2.44727,1.175781 -0.88867,1.16211 -0.88867,3.076172 0,1.914063 0.88867,3.103516 0.88867,1.175781 2.44727,1.175781 1.59961,0 2.48828,-1.285156 z"
         id="path4952" />
      <path
         d="M 143.9707,81.842773 V 66.639648 h 3.39063 v 15.203125 z m -0.24609,-18.30664 q 0,-0.519531 0.25976,-0.970703 0.27344,-0.451172 0.71094,-0.710938 0.45117,-0.259765 0.98438,-0.259765 0.51953,0 0.95703,0.259765 0.45117,0.259766 0.71094,0.710938 0.25976,0.451172 0.25976,0.970703 0,0.792969 -0.57422,1.380859 -0.56054,0.574219 -1.35351,0.574219 -0.82032,0 -1.39453,-0.574219 -0.56055,-0.58789 -0.56055,-1.380859 z"
         id="path4954" />
      <path
         d="m 164.4375,71.985352 q -0.46484,-1.039063 -1.38086,-1.640625 -0.90234,-0.601563 -2.00977,-0.601563 -1.01171,0 -1.87304,0.615234 -0.86133,0.601563 -1.36719,1.640625 -0.50586,1.039063 -0.50586,2.228516 0,1.203125 0.50586,2.242188 0.50586,1.039062 1.36719,1.640625 0.86133,0.601562 1.87304,0.601562 1.09375,0 2.05079,-0.65625 0.95703,-0.669922 1.39453,-1.722656 l 2.52929,2.515625 q -1.03906,1.490234 -2.61132,2.33789 -1.5586,0.847657 -3.36329,0.847657 -1.49023,0 -2.84375,-0.601563 -1.33984,-0.601562 -2.36523,-1.667969 -1.01172,-1.066406 -1.59961,-2.515625 -0.57422,-1.449218 -0.57422,-3.021484 0,-1.572266 0.57422,-3.007812 0.58789,-1.449219 1.58594,-2.501954 1.01172,-1.052734 2.36523,-1.654296 1.36719,-0.615235 2.85742,-0.615235 1.76368,0 3.29493,0.820313 1.54492,0.820312 2.55664,2.228515 z"
         id="path4956" />
      <path
         d="m 181.02148,81.09082 q -1.53125,0.916016 -3.44531,0.916016 -1.61328,0 -3.00781,-0.683594 -1.39453,-0.697265 -2.21484,-1.90039 -0.82032,-1.203125 -0.82032,-2.597657 0,-1.394531 0.82032,-2.583984 0.82031,-1.203125 2.21484,-1.886719 1.39453,-0.697265 3.00781,-0.697265 1.91406,0 3.44531,0.916015 V 71.09668 q 0,-0.341797 -0.34179,-0.72461 -0.3418,-0.382812 -0.875,-0.642578 -0.51953,-0.259765 -1.05274,-0.259765 -1.57226,0 -2.50195,0.273437 -0.92969,0.259766 -2.0918,0.875 l -1.33984,-2.501953 q 1.06641,-0.601563 1.85937,-0.943359 0.80664,-0.355469 1.75,-0.533204 0.94336,-0.191406 2.10547,-0.191406 h 0.69727 q 1.47656,0.06836 2.63867,0.669922 1.17578,0.587891 1.8457,1.626953 0.66993,1.025391 0.66993,2.228516 v 10.86914 h -3.36329 z m 0,-5.605468 q -0.54687,-0.464844 -1.5039,-0.765625 -0.95703,-0.300782 -1.94141,-0.300782 -0.65625,0 -1.23047,0.314453 -0.56054,0.300782 -0.90234,0.806641 -0.32813,0.505859 -0.32813,1.121094 0,0.601562 0.32813,1.121094 0.3418,0.505859 0.90234,0.820312 0.57422,0.300781 1.23047,0.300781 2.29688,0 3.44531,-0.929687 z"
         id="path4958" />
      <path
         d="m 195.63672,85.452148 -3.39063,1.462891 V 66.639648 h 3.39063 v 0.697266 q 1.32617,-0.861328 3.02148,-0.861328 1.92774,0 3.44532,1.025391 1.51757,1.011718 2.33789,2.789062 0.82031,1.763672 0.82031,3.964844 0,1.613281 -0.47852,3.0625 -0.46484,1.435547 -1.33984,2.488281 -0.86133,1.052734 -2.0918,1.640625 -1.23047,0.587891 -2.69336,0.587891 -1.69531,0 -3.02148,-0.861328 z m 0,-8.203125 q 0.86133,1.285157 2.51562,1.285157 1.02539,0 1.76368,-0.546875 0.75195,-0.546875 1.14843,-1.503907 0.39649,-0.970703 0.39649,-2.228515 0,-1.257813 -0.39649,-2.214844 -0.39648,-0.970703 -1.14843,-1.517578 -0.73829,-0.546875 -1.76368,-0.546875 -1.65429,0 -2.51562,1.285156 z"
         id="path4960" />
      <path
         d="m 218.5918,81.30957 q -0.64258,0.382813 -1.14844,0.546875 -0.50586,0.177735 -1.79102,0.177735 -0.99804,0 -1.81836,-0.478516 -0.80664,-0.492187 -1.28515,-1.3125 -0.47852,-0.820312 -0.47852,-1.791016 v -8.394531 h -2.7207 v -3.390625 h 2.7207 v -3.636719 l 3.34961,-1.435546 v 5.072265 h 3.81445 v 3.390625 h -3.81445 v 7.21875 q 0,0.615235 0.4375,1.039063 0.4375,0.423828 1.02539,0.423828 1.38086,0 2.48828,-1.148438 z"
         id="path4962" />
      <path
         d="m 235.96875,79.682617 q -1.10742,1.16211 -2.46094,1.763672 -1.33984,0.587891 -2.93945,0.587891 -1.42188,0 -2.65234,-0.574219 -1.2168,-0.587891 -2.10547,-1.654297 -0.88868,-1.066406 -1.36719,-2.488281 -0.47852,-1.435547 -0.47852,-3.089844 0,-2.214844 0.82032,-3.978516 0.83398,-1.763671 2.33789,-2.77539 1.51757,-1.025391 3.44531,-1.025391 1.92773,0 3.44531,1.025391 1.51758,1.011719 2.33789,2.789062 0.82031,1.763672 0.82031,3.964844 0,0.615234 -0.0273,0.929688 h -9.54297 q 0.17774,1.640625 0.94336,2.679687 0.7793,1.039063 2.02344,1.039063 1.05273,0 1.68164,-0.273438 0.64258,-0.273437 1.17578,-0.902344 z m -2.54297,-7.21875 q -0.27344,-1.3125 -0.99805,-2.050781 -0.71093,-0.751953 -1.85937,-0.751953 -2.20117,0 -2.83008,2.802734 z"
         id="path4964" />
      <path
         d="m 247.00195,81.842773 h -3.34961 V 66.639648 h 3.34961 v 1.544922 q 0.7793,-0.80664 1.85938,-1.285156 1.08008,-0.478516 2.22851,-0.478516 1.51758,0 2.81641,0.765625 1.29883,0.751954 2.05078,2.050782 0.76563,1.285156 0.76563,2.802734 v 9.802734 h -3.36329 v -8.736328 q 0,-0.875 -0.4375,-1.585937 -0.42382,-0.72461 -1.14843,-1.148438 -0.72461,-0.423828 -1.59961,-0.423828 -0.86133,0 -1.59961,0.4375 -0.72461,0.423828 -1.14844,1.148438 -0.42383,0.724609 -0.42383,1.572265 z"
         id="path4966" />
      <path
         d="m 275.04297,75.704102 h -10.14453 v -3.376954 h 10.14453 z"
         id="path4968" />
      <path
         d="m 34.595703,116.84277 h -3.677734 l -5.960938,-15.17578 h 3.664063 l 4.142578,10.44531 3.814453,-10.44531 h 3.691406 z"
         id="path4970" />
      <path
         d="m 57.496094,109.22754 q 0,2.21484 -0.820313,3.99219 -0.820312,1.76367 -2.33789,2.78906 -1.503907,1.02539 -3.445313,1.02539 -1.927734,0 -3.445312,-1.02539 -1.517579,-1.02539 -2.337891,-2.78906 -0.820313,-1.77735 -0.820313,-3.99219 0,-2.20117 0.820313,-3.96484 0.820312,-1.77735 2.324219,-2.78907 1.517578,-1.02539 3.458984,-1.02539 1.927734,0 3.445313,1.02539 1.517578,1.01172 2.33789,2.78907 0.820313,1.76367 0.820313,3.96484 z m -6.603516,-4.56641 q -1.011719,0 -1.695312,0.60157 -0.669922,0.60156 -0.998047,1.62695 -0.328125,1.02539 -0.328125,2.33789 0,2.02344 0.765625,3.30859 0.765625,1.28516 2.255859,1.28516 1.490234,0 2.255859,-1.28516 0.765625,-1.28515 0.765625,-3.30859 0,-1.3125 -0.328125,-2.33789 -0.328125,-1.02539 -1.011718,-1.62695 -0.669922,-0.60157 -1.681641,-0.60157 z"
         id="path4972" />
      <path
         d="m 73.929687,114.68262 q -1.107421,1.16211 -2.460937,1.76367 -1.339844,0.58789 -2.939453,0.58789 -1.421875,0 -2.652344,-0.57422 -1.216797,-0.58789 -2.105469,-1.6543 -0.888672,-1.0664 -1.367187,-2.48828 -0.478516,-1.43554 -0.478516,-3.08984 0,-2.21484 0.820313,-3.97852 0.833984,-1.76367 2.33789,-2.77539 1.517578,-1.02539 3.445313,-1.02539 1.927734,0 3.445312,1.02539 1.517578,1.01172 2.337891,2.78907 0.820312,1.76367 0.820312,3.96484 0,0.61523 -0.02734,0.92969 H 65.5625 q 0.177734,1.64062 0.943359,2.67968 0.779297,1.03907 2.023438,1.03907 1.052734,0 1.68164,-0.27344 0.642579,-0.27344 1.175782,-0.90234 z m -2.542968,-7.21875 q -0.273438,-1.3125 -0.998047,-2.05078 -0.710938,-0.75196 -1.859375,-0.75196 -2.201172,0 -2.830078,2.80274 z"
         id="path4974" />
      <path
         d="m 90.349609,106.00098 q -0.697265,-1.05274 -2.214843,-1.05274 -1.298829,0 -2.242188,0.92969 -0.929687,0.91602 -0.929687,2.22852 v 8.73632 h -3.34961 v -15.20312 h 3.34961 v 1.54492 q 0.833984,-0.86133 1.75,-1.32617 0.929687,-0.46485 2.091796,-0.46485 0.888672,0 1.476563,0.21875 0.587891,0.20508 1.066406,0.61524 z"
         id="path4976" />
      <path
         d="m 103.31055,116.30957 q -0.64258,0.38281 -1.14844,0.54688 -0.50586,0.17773 -1.79102,0.17773 -0.998043,0 -1.818356,-0.47852 -0.80664,-0.49218 -1.285156,-1.3125 -0.478516,-0.82031 -0.478516,-1.79101 v -8.39453 h -2.720703 v -3.39063 h 2.720703 v -3.636717 l 3.349608,-1.435546 v 5.072263 h 3.81446 v 3.39063 h -3.81446 v 7.21875 q 0,0.61523 0.4375,1.03906 0.4375,0.42383 1.02539,0.42383 1.38086,0 2.48828,-1.14844 z"
         id="path4978" />
      <path
         d="m 120.18164,101.63965 h 3.36328 v 15.20312 h -3.36328 v -1.54492 q -1.66797,1.73633 -4.08789,1.73633 -1.53125,0 -2.83008,-0.75195 -1.28515,-0.75196 -2.03711,-2.02344 -0.75195,-1.28516 -0.75195,-2.81641 v -9.80273 h 3.39062 v 8.73633 q 0,0.86132 0.41016,1.58593 0.42383,0.71094 1.14844,1.14844 0.72461,0.42383 1.59961,0.42383 0.86133,0 1.58594,-0.42383 0.7246,-0.42383 1.14843,-1.14844 0.42383,-0.72461 0.42383,-1.58593 z"
         id="path4980" />
      <path
         d="m 131.63867,116.84277 v -15.20312 h 3.39063 v 15.20312 z m -0.24609,-18.306637 q 0,-0.519531 0.25976,-0.970703 0.27344,-0.451172 0.71094,-0.710938 0.45117,-0.259765 0.98438,-0.259765 0.51953,0 0.95703,0.259765 0.45117,0.259766 0.71093,0.710938 0.25977,0.451172 0.25977,0.970703 0,0.792969 -0.57422,1.380859 -0.56055,0.574218 -1.35351,0.574218 -0.82032,0 -1.39454,-0.574218 -0.56054,-0.58789 -0.56054,-1.380859 z"
         id="path4982" />
      <path
         d="m 150.95703,116.14551 q -1.36719,0.88867 -3.02148,0.88867 -1.92774,0 -3.44532,-1.01172 -1.51757,-1.02539 -2.33789,-2.78906 -0.82031,-1.77735 -0.82031,-3.97852 0,-2.21484 0.82031,-3.97851 0.82032,-1.77735 2.32422,-2.80274 1.51758,-1.02539 3.45899,-1.02539 1.65429,0 3.02148,0.88867 v -0.69726 h 3.36328 v 15.20312 q 0,1.81836 -0.83398,3.4043 -0.82031,1.59961 -2.25586,2.65234 -1.43555,1.05274 -3.18555,1.3125 l -1.47656,-3.47265 q 0.13672,0 0.20508,0 0.082,0.0137 0.17773,0.0273 1.6543,0 2.83008,-1.17578 1.17578,-1.17578 1.17578,-2.83008 z m 0,-9.88477 q -0.45117,-0.64258 -1.08008,-0.95703 -0.61523,-0.32812 -1.43554,-0.32812 -1.5586,0 -2.44727,1.18945 -0.88867,1.17578 -0.88867,3.08984 0,1.25782 0.39648,2.22852 0.39649,0.95703 1.14844,1.49023 0.76563,0.53321 1.79102,0.53321 1.57226,0 2.51562,-1.28516 z"
         id="path4984" />
      <path
         d="m 172.38086,114.68262 q -1.10742,1.16211 -2.46094,1.76367 -1.33984,0.58789 -2.93945,0.58789 -1.42188,0 -2.65235,-0.57422 -1.21679,-0.58789 -2.10546,-1.6543 -0.88868,-1.0664 -1.36719,-2.48828 -0.47852,-1.43554 -0.47852,-3.08984 0,-2.21484 0.82032,-3.97852 0.83398,-1.76367 2.33789,-2.77539 1.51757,-1.02539 3.44531,-1.02539 1.92773,0 3.44531,1.02539 1.51758,1.01172 2.33789,2.78907 0.82031,1.76367 0.82031,3.96484 0,0.61523 -0.0273,0.92969 h -9.54297 q 0.17774,1.64062 0.94336,2.67968 0.7793,1.03907 2.02344,1.03907 1.05273,0 1.68164,-0.27344 0.64258,-0.27344 1.17578,-0.90234 z m -2.54297,-7.21875 q -0.27344,-1.3125 -0.99805,-2.05078 -0.71093,-0.75196 -1.85937,-0.75196 -2.20117,0 -2.83008,2.80274 z"
         id="path4986" />
      <path
         d="m 183.41406,116.84277 h -3.34961 v -15.20312 h 3.34961 v 1.54492 q 0.7793,-0.80664 1.85938,-1.28516 1.08008,-0.47851 2.22851,-0.47851 1.51758,0 2.81641,0.76562 1.29883,0.75196 2.05078,2.05078 0.76563,1.28516 0.76563,2.80274 v 9.80273 h -3.36329 v -8.73632 q 0,-0.875 -0.4375,-1.58594 -0.42382,-0.72461 -1.14843,-1.14844 -0.72461,-0.42383 -1.59961,-0.42383 -0.86133,0 -1.59961,0.4375 -0.72461,0.42383 -1.14844,1.14844 -0.42383,0.72461 -0.42383,1.57227 z"
         id="path4988" />
    </g>
  </g>
</svg>
