<?xml version="1.0" encoding="UTF-8" standalone="no"?>
<svg version="1.1" xmlns="http://www.w3.org/2000/svg" id="Nederlands_verkeersbord_OB04" width="300" height="100" viewBox="0 0 300 100"> 
	<g> 
		<rect id="wit_vlak" width="300" height="100" fill="#f7fbf5"> </rect>

		<g id="fiets"
		   transform="scale(0.7) translate(-40, -75)">
		<path fill="#2a2d2f"
			   d="M 96.93414,200.60448 C 115.98279,200.60448 131.42919,185.15765 131.42919,166.10848 C 131.42919,147.0593 115.98279,131.62065 96.93414,131.62065 C 77.88548,131.62065 62.44725,147.0593 62.44725,166.10848 C 62.44725,185.15765 77.88548,200.60448 96.93414,200.60448" />
		<path fill="#f7fbf5"
			   d="M 96.90146,192.1173 C 111.26147,192.1173 122.94225,180.4362 122.94225,166.08397 C 122.94225,151.6909 111.26147,140.04248 96.90146,140.04248 C 82.51695,140.04248 70.86884,151.6909 70.86884,166.08397 C 70.86884,180.4362 82.51695,192.1173 96.90146,192.1173" />
		<path fill="#2a2d2f"
			   d="M 141.82754,98.36628 L 141.82754,89.911779 L 126.89574,89.911779 C 120.13233,89.911779 118.22093,98.36628 118.22093,98.36628 C 113.53228,111.7056 94.35293,165.9206 94.35293,165.9206 C 92.40885,170.8381 100.19332,173.58275 102.0067,168.8858 C 103.82825,164.2297 125.75217,102.45058 125.75217,102.45058 C 127.21431,97.794478 131.55989,98.36628 131.55989,98.36628 L 141.82754,98.36628" />
		<path fill="#2a2d2f"
			   d="M 208.04041,161.86898 C 204.6587,154.55808 192.08757,127.69155 184.10706,110.59467 L 118.79271,110.59467 L 113.53228,124.5058 L 154.04743,170.25813 L 203.25374,170.25813 C 212.85975,170.25813 208.04041,161.86898 208.04041,161.86898" />
		<path fill="#f7fbf5"
			   d="M 198.91633,161.8363 C 193.29648,150 184.90756,131.9719 178.93648,119.23705 L 119.81376,119.13903 L 157.7232,161.80363 L 198.91633,161.8363" />
		<path fill="#2a2d2f"
			   d="M 198.33637,98.36628 L 198.33637,105.10538 L 169.24061,104.97468 C 164.20072,104.97468 164.1027,98.36628 169.24061,98.36628 C 171.85449,98.36628 198.33637,98.36628 198.33637,98.36628" />
		<path fill="#2a2d2f"
			   d="M 170.19631,166.10848 C 170.19631,147.0593 185.64272,131.62065 204.69137,131.62065 C 223.74003,131.62065 239.17826,147.0593 239.17826,166.10848 C 239.17826,185.15765 223.74003,200.60448 204.69137,200.60448 C 185.64272,200.60448 170.19631,185.15765 170.19631,166.10848 z M 204.6587,192.1173 C 219.01871,192.1173 230.69132,180.4362 230.69132,166.08397 C 230.69132,151.6909 219.01871,140.04248 204.6587,140.04248 C 190.26602,140.04248 178.61791,151.6909 178.61791,166.08397 C 178.61791,180.4362 190.26602,192.1173 204.6587,192.1173" />
		<path fill="#2a2d2f"
			   d="M 159.95317,168.4447 L 190.33136,103.85558 L 182.7021,100.2859 L 152.23405,165.25078 L 159.95317,168.4447" />
		</g>

		<g id="bromfiets"
		   transform="scale(0.7) translate(165, -75)">
		<path fill="#2a2d2f"
			   d="M 206.69099,199.03603 C 224.43407,199.03603 238.82606,184.64178 238.82606,166.89813 C 238.82606,149.15448 224.43407,134.7684 206.69099,134.7684 C 188.94874,134.7684 174.58779,149.15448 174.58779,166.89813 C 174.58779,184.64178 188.94874,199.03603 206.69099,199.03603" />
		<path fill="#f7fbf5"
			   d="M 206.69099,188.24442 C 218.4982,188.24442 228.07189,178.70272 228.07189,166.89813 C 228.07189,155.09354 218.4982,145.55183 206.69099,145.55183 C 194.88379,145.55183 185.34277,155.09354 185.34277,166.89813 C 185.34277,178.70272 194.88379,188.24442 206.69099,188.24442" />
		<path fill="#2a2d2f"
			   d="M 94.84077,199.03603 C 112.58384,199.03603 126.97583,184.64178 126.97583,166.89813 C 126.97583,149.15448 112.58384,134.7684 94.84077,134.7684 C 77.09851,134.7684 62.73756,149.15448 62.73756,166.89813 C 62.73756,184.64178 77.09851,199.03603 94.84077,199.03603" />
		<path fill="#f7fbf5"
			   d="M 94.84077,188.24442 C 106.64797,188.24442 116.22166,178.70272 116.22166,166.89813 C 116.22166,155.09354 106.64797,145.55183 94.84077,145.55183 C 83.06542,145.55183 73.49173,155.09354 73.49173,166.89813 C 73.49173,178.70272 83.06542,188.24442 94.84077,188.24442" />
		<path fill="#2a2d2f"
			   d="M 142.35714,91.716363 L 128.06073,91.716363 C 128.06073,91.716363 120.6895,91.013806 116.76411,100.93947 L 89.79862,165.74626 C 89.79862,165.74626 87.69256,170.59881 92.09667,172.19998 C 96.46811,173.82567 99.69174,168.05 99.69174,168.05 L 127.61386,102.78572 L 142.35714,102.78572 L 142.35714,91.716363" />
		<path fill="#2a2d2f"
			   d="M 117.6897,115.45625 L 141.91027,115.93824 L 151.57955,131.37816 L 144.20832,152.60191 L 150.43093,161.60444 L 207.84042,161.82501 C 207.84042,161.82501 212.91443,161.60444 212.91443,166.44882 C 212.91443,171.26869 208.31915,172.19998 208.31915,172.19998 L 151.35653,172.45323 C 151.35653,172.45323 144.20832,173.82567 139.13432,164.60257 C 139.13432,164.60257 115.61549,126.08447 115.39247,126.08447 C 115.13677,126.08447 117.6897,115.45625 117.6897,115.45625" />
		<path fill="#2a2d2f"
			   d="M 229.28504,115.7095 L 229.76377,128.38003 L 199.31976,130.00572 C 199.31976,130.00572 191.72469,130.93701 188.24617,135.30757 C 184.79951,139.67813 179.94935,137.83188 178.57689,134.60502 C 177.1734,131.37816 171.39683,121.23193 171.39683,121.23193 C 171.39683,121.23193 169.32262,115.7095 176.47083,115.7095 L 229.28504,115.7095" />
		<path fill="#2a2d2f"
			   d="M 96.02206,135.75688 L 96.46811,129.08259 C 96.46811,129.08259 85.87406,127.93889 81.46994,130.68377 L 83.54415,137.15383 L 96.02206,135.75688" />
		</g>
		
		<path id="zwarte_bies" style="fill:none;stroke:#808080;stroke-width:3" d="M 280,95 C 290,95 295,90 295,80 L 295,25 C 295,15 290,5 280,5 L 25,5 C 15,5 5,15 5,25 L 5,80 C 5,90 15,95 25,95 L 280,95 z"> </path>
	</g>
</svg>
