<?xml version="1.0" encoding="UTF-8" standalone="no"?>
<svg
   version="1"
   id="Netherlands_traffic_sign_OB65"
   width="300"
   height="100"
   viewBox="0 0 300 100"
   sodipodi:docname="Nederlands_verkeersbord_OB65.svg"
   inkscape:version="1.2.2 (b0a8486541, 2022-12-01)"
   xmlns:inkscape="http://www.inkscape.org/namespaces/inkscape"
   xmlns:sodipodi="http://sodipodi.sourceforge.net/DTD/sodipodi-0.dtd"
   xmlns="http://www.w3.org/2000/svg"
   xmlns:svg="http://www.w3.org/2000/svg">
  <defs
     id="defs4322" />
  <sodipodi:namedview
     id="namedview4320"
     pagecolor="#505050"
     bordercolor="#eeeeee"
     borderopacity="1"
     inkscape:showpageshadow="0"
     inkscape:pageopacity="0"
     inkscape:pagecheckerboard="0"
     inkscape:deskcolor="#505050"
     showgrid="false"
     inkscape:zoom="2.36"
     inkscape:cx="150"
     inkscape:cy="50"
     inkscape:window-width="3840"
     inkscape:window-height="2091"
     inkscape:window-x="0"
     inkscape:window-y="0"
     inkscape:window-maximized="1"
     inkscape:current-layer="g4317" />
  <g
     font-family="Arial,Helvetica,Sans,Liberation Sans,sans-serif"
     id="g4317">
    <rect
       id="white_surface"
       width="300"
       height="100"
       fill="#f7fbf5" />
    <rect
       id="border"
       x="2"
       y="2"
       rx="10"
       ry="10"
       width="296"
       height="96"
       stroke="gray"
       stroke-width="3px"
       fill="none" />
    <g
       aria-label="uitgezonderd
brom-
mobielen"
       id="text4459"
       style="font-size:28px;line-height:1;font-family:'Anwb Ee VL';-inkscape-font-specification:'Anwb Ee VL';text-align:center;text-anchor:middle">
      <path
         d="m 57.967773,17.228516 h 3.363282 v 15.203125 h -3.363282 v -1.544922 q -1.667968,1.736328 -4.08789,1.736328 -1.53125,0 -2.830078,-0.751953 -1.285157,-0.751953 -2.03711,-2.023438 Q 48.260742,28.5625 48.260742,27.03125 v -9.802734 h 3.390625 v 8.736328 q 0,0.861328 0.410156,1.585937 0.423829,0.710938 1.148438,1.148438 0.724609,0.423828 1.599609,0.423828 0.861328,0 1.585938,-0.423828 0.724609,-0.423828 1.148437,-1.148438 0.423828,-0.724609 0.423828,-1.585937 z"
         style="text-align:start;text-anchor:start"
         id="path4747" />
      <path
         d="M 69.424805,32.431641 V 17.228516 H 72.81543 V 32.431641 Z M 69.178711,14.125 q 0,-0.519531 0.259766,-0.970703 0.273437,-0.451172 0.710937,-0.710938 0.451172,-0.259765 0.984375,-0.259765 0.519531,0 0.957031,0.259765 0.451172,0.259766 0.710938,0.710938 0.259765,0.451172 0.259765,0.970703 0,0.792969 -0.574218,1.380859 -0.560547,0.574219 -1.353516,0.574219 -0.820312,0 -1.394531,-0.574219 -0.560547,-0.58789 -0.560547,-1.380859 z"
         style="text-align:start;text-anchor:start"
         id="path4749" />
      <path
         d="m 88.018555,31.898437 q -0.642578,0.382813 -1.148438,0.546875 -0.505859,0.177735 -1.791015,0.177735 -0.998047,0 -1.81836,-0.478516 -0.80664,-0.492187 -1.285156,-1.3125 -0.478516,-0.820312 -0.478516,-1.791015 v -8.394532 h -2.720703 v -3.390625 h 2.720703 v -3.636718 l 3.34961,-1.435547 v 5.072265 h 3.814453 v 3.390625 H 84.84668 v 7.21875 q 0,0.615235 0.4375,1.039063 0.4375,0.423828 1.02539,0.423828 1.38086,0 2.488282,-1.148438 z"
         style="text-align:start;text-anchor:start"
         id="path4751" />
      <path
         d="m 103.0166,31.734375 q -1.36719,0.888672 -3.021483,0.888672 -1.927734,0 -3.445312,-1.011719 -1.517578,-1.025391 -2.337891,-2.789062 -0.820312,-1.777344 -0.820312,-3.978516 0,-2.214844 0.820312,-3.978516 0.820313,-1.777343 2.324219,-2.802734 1.517578,-1.025391 3.458984,-1.025391 1.654293,0 3.021483,0.888672 v -0.697265 h 3.36328 v 15.203125 q 0,1.818359 -0.83398,3.404296 -0.82031,1.59961 -2.25586,2.652344 -1.43555,1.052735 -3.18555,1.3125 l -1.47656,-3.472656 q 0.136718,0 0.205078,0 0.08203,0.01367 0.177734,0.02734 1.654298,0 2.830078,-1.175782 1.17578,-1.175781 1.17578,-2.830078 z m 0,-9.884766 q -0.45117,-0.642578 -1.08008,-0.957031 -0.61523,-0.328125 -1.43554,-0.328125 -1.558597,0 -2.447269,1.189453 -0.888672,1.175781 -0.888672,3.089844 0,1.257812 0.396484,2.228516 0.396485,0.957031 1.148438,1.490234 0.765625,0.533203 1.791019,0.533203 1.57226,0 2.51562,-1.285156 z"
         style="text-align:start;text-anchor:start"
         id="path4753" />
      <path
         d="m 124.44043,30.271484 q -1.10742,1.16211 -2.46094,1.763672 -1.33984,0.587891 -2.93945,0.587891 -1.42188,0 -2.65234,-0.574219 -1.2168,-0.587891 -2.10547,-1.654297 -0.88868,-1.066406 -1.36719,-2.488281 -0.47852,-1.435547 -0.47852,-3.089844 0,-2.214844 0.82032,-3.978515 0.83398,-1.763672 2.33789,-2.775391 1.51757,-1.025391 3.44531,-1.025391 1.92773,0 3.44531,1.025391 1.51758,1.011719 2.33789,2.789062 0.82031,1.763672 0.82031,3.964844 0,0.615235 -0.0273,0.929688 h -9.54297 q 0.17774,1.640625 0.94336,2.679687 0.7793,1.039063 2.02344,1.039063 1.05273,0 1.68164,-0.273438 0.64258,-0.273437 1.17578,-0.902344 z m -2.54297,-7.21875 q -0.27344,-1.3125 -0.99805,-2.050781 Q 120.18848,20.25 119.04004,20.25 q -2.20117,0 -2.83008,2.802734 z"
         style="text-align:start;text-anchor:start"
         id="path4755" />
      <path
         d="m 135.62402,29.068359 h 8.39453 v 3.363282 H 130.5791 v -2.939454 l 8.36719,-8.873046 h -7.9707 v -3.363282 h 12.98828 v 2.966797 z"
         style="text-align:start;text-anchor:start"
         id="path4757" />
      <path
         d="m 161.81934,24.816406 q 0,2.214844 -0.82032,3.992188 -0.82031,1.763672 -2.33789,2.789062 -1.5039,1.025391 -3.44531,1.025391 -1.92773,0 -3.44531,-1.025391 -1.51758,-1.02539 -2.33789,-2.789062 -0.82032,-1.777344 -0.82032,-3.992188 0,-2.201172 0.82032,-3.964844 0.82031,-1.777343 2.32422,-2.789062 1.51757,-1.025391 3.45898,-1.025391 1.92773,0 3.44531,1.025391 1.51758,1.011719 2.33789,2.789062 0.82032,1.763672 0.82032,3.964844 z M 155.21582,20.25 q -1.01172,0 -1.69531,0.601562 -0.66992,0.601563 -0.99805,1.626954 -0.32812,1.02539 -0.32812,2.33789 0,2.023438 0.76562,3.308594 0.76563,1.285156 2.25586,1.285156 1.49023,0 2.25586,-1.285156 0.76562,-1.285156 0.76562,-3.308594 0,-1.3125 -0.32812,-2.33789 -0.32813,-1.025391 -1.01172,-1.626954 Q 156.22754,20.25 155.21582,20.25 Z"
         style="text-align:start;text-anchor:start"
         id="path4759" />
      <path
         d="m 171.38965,32.431641 h -3.34961 V 17.228516 h 3.34961 v 1.544921 q 0.7793,-0.80664 1.85937,-1.285156 1.08008,-0.478515 2.22852,-0.478515 1.51758,0 2.81641,0.765625 1.29882,0.751953 2.05078,2.050781 0.76562,1.285156 0.76562,2.802734 v 9.802735 h -3.36328 v -8.736329 q 0,-0.875 -0.4375,-1.585937 -0.42383,-0.724609 -1.14844,-1.148438 -0.72461,-0.423828 -1.59961,-0.423828 -0.86132,0 -1.59961,0.4375 -0.72461,0.423828 -1.14843,1.148438 -0.42383,0.724609 -0.42383,1.572265 z"
         style="text-align:start;text-anchor:start"
         id="path4761" />
      <path
         d="m 196.79199,12.798828 3.39063,-1.421875 v 21.054688 h -3.39063 v -0.697266 q -1.36719,0.888672 -3.02148,0.888672 -1.92774,0 -3.44531,-1.025391 -1.51758,-1.02539 -2.3379,-2.789062 -0.82031,-1.777344 -0.82031,-3.992188 0,-2.201172 0.82031,-3.964844 0.82032,-1.777343 2.32422,-2.789062 1.51758,-1.025391 3.45899,-1.025391 1.62695,0 3.02148,0.861328 z m 0,9.050781 q -0.875,-1.285156 -2.48828,-1.285156 -1.55859,0 -2.44726,1.175781 -0.88868,1.16211 -0.88868,3.076172 0,1.914063 0.88868,3.103516 0.88867,1.175781 2.44726,1.175781 1.59961,0 2.48828,-1.285156 z"
         style="text-align:start;text-anchor:start"
         id="path4763" />
      <path
         d="m 218.24316,30.271484 q -1.10742,1.16211 -2.46093,1.763672 -1.33985,0.587891 -2.93946,0.587891 -1.42187,0 -2.65234,-0.574219 -1.2168,-0.587891 -2.10547,-1.654297 -0.88867,-1.066406 -1.36719,-2.488281 -0.47851,-1.435547 -0.47851,-3.089844 0,-2.214844 0.82031,-3.978515 0.83398,-1.763672 2.33789,-2.775391 1.51758,-1.025391 3.44531,-1.025391 1.92774,0 3.44532,1.025391 1.51757,1.011719 2.33789,2.789062 0.82031,1.763672 0.82031,3.964844 0,0.615235 -0.0273,0.929688 h -9.54297 q 0.17773,1.640625 0.94336,2.679687 0.77929,1.039063 2.02343,1.039063 1.05274,0 1.68164,-0.273438 0.64258,-0.273437 1.17579,-0.902344 z m -2.54296,-7.21875 q -0.27344,-1.3125 -0.99805,-2.050781 Q 213.99121,20.25 212.84277,20.25 q -2.20117,0 -2.83007,2.802734 z"
         style="text-align:start;text-anchor:start"
         id="path4765" />
      <path
         d="m 234.66309,21.589844 q -0.69727,-1.052735 -2.21485,-1.052735 -1.29883,0 -2.24219,0.929688 -0.92968,0.916015 -0.92968,2.228515 v 8.736329 h -3.34961 V 17.228516 h 3.34961 v 1.544921 q 0.83398,-0.861328 1.75,-1.326171 0.92968,-0.464844 2.09179,-0.464844 0.88868,0 1.47657,0.21875 0.58789,0.205078 1.0664,0.615234 z"
         style="text-align:start;text-anchor:start"
         id="path4767" />
      <path
         d="m 248.34863,12.798828 3.39063,-1.421875 v 21.054688 h -3.39063 v -0.697266 q -1.36718,0.888672 -3.02148,0.888672 -1.92774,0 -3.44531,-1.025391 -1.51758,-1.02539 -2.33789,-2.789062 -0.82032,-1.777344 -0.82032,-3.992188 0,-2.201172 0.82032,-3.964844 0.82031,-1.777343 2.32421,-2.789062 1.51758,-1.025391 3.45899,-1.025391 1.62695,0 3.02148,0.861328 z m 0,9.050781 q -0.875,-1.285156 -2.48828,-1.285156 -1.55859,0 -2.44726,1.175781 -0.88868,1.16211 -0.88868,3.076172 0,1.914063 0.88868,3.103516 0.88867,1.175781 2.44726,1.175781 1.59961,0 2.48828,-1.285156 z"
         style="text-align:start;text-anchor:start"
         id="path4769" />
      <path
         d="m 51.651367,45.925781 q 1.367188,-0.888672 3.021485,-0.888672 1.927734,0 3.445312,1.025391 1.517578,1.011719 2.337891,2.789062 0.820312,1.763672 0.820312,3.964844 0,2.214844 -0.820312,3.992188 -0.820313,1.763672 -2.337891,2.789062 -1.503906,1.025391 -3.445312,1.025391 -1.654297,0 -3.021485,-0.888672 v 0.697266 H 48.260742 V 40.798828 l 3.390625,-1.421875 z m 0,9.884766 q 0.875,1.285156 2.515625,1.285156 1.025391,0 1.763672,-0.533203 0.751953,-0.546875 1.148438,-1.503906 0.396484,-0.970703 0.396484,-2.242188 0,-1.257812 -0.396484,-2.214844 -0.396485,-0.957031 -1.148438,-1.490234 -0.751953,-0.546875 -1.763672,-0.546875 -1.654297,0 -2.515625,1.285156 z"
         style="text-align:start;text-anchor:start"
         id="path4771" />
      <path
         d="m 76.233398,49.589844 q -0.697265,-1.052735 -2.214843,-1.052735 -1.298828,0 -2.242188,0.929688 -0.929687,0.916015 -0.929687,2.228515 v 8.736329 H 67.49707 V 45.228516 h 3.34961 v 1.544921 q 0.833984,-0.861328 1.75,-1.326171 0.929687,-0.464844 2.091797,-0.464844 0.888671,0 1.476562,0.21875 0.587891,0.205078 1.066406,0.615234 z"
         style="text-align:start;text-anchor:start"
         id="path4773" />
      <path
         d="m 93.500977,52.816406 q 0,2.214844 -0.820313,3.992188 -0.820312,1.763672 -2.337891,2.789062 -1.503906,1.025391 -3.445312,1.025391 -1.927734,0 -3.445313,-1.025391 -1.517578,-1.02539 -2.33789,-2.789062 -0.820313,-1.777344 -0.820313,-3.992188 0,-2.201172 0.820313,-3.964844 0.820312,-1.777343 2.324219,-2.789062 1.517578,-1.025391 3.458984,-1.025391 1.927734,0 3.445312,1.025391 1.517579,1.011719 2.337891,2.789062 0.820313,1.763672 0.820313,3.964844 z M 86.897461,48.25 q -1.011719,0 -1.695313,0.601562 -0.669921,0.601563 -0.998046,1.626954 -0.328125,1.02539 -0.328125,2.33789 0,2.023438 0.765625,3.308594 0.765625,1.285156 2.255859,1.285156 1.490234,0 2.255859,-1.285156 0.765625,-1.285156 0.765625,-3.308594 0,-1.3125 -0.328125,-2.33789 Q 89.262695,49.453125 88.579102,48.851562 87.90918,48.25 86.897461,48.25 Z"
         style="text-align:start;text-anchor:start"
         id="path4775" />
      <path
         d="m 103.07129,46.800781 q 0.7793,-0.820312 1.83203,-1.285156 1.06641,-0.478516 2.25586,-0.478516 1.35352,0 2.48828,0.574219 1.14844,0.574219 1.94141,1.572266 0.79297,-0.998047 1.9414,-1.572266 1.16211,-0.574219 2.48828,-0.574219 1.16211,0 2.1875,0.4375 1.0254,0.4375 1.79102,1.203125 0.76563,0.765625 1.20313,1.791016 0.4375,1.025391 0.4375,2.1875 v 9.775391 h -3.39063 v -8.927735 q 0,-1.24414 -0.86133,-2.105469 -0.86133,-0.861328 -2.07812,-0.861328 -1.2168,0 -2.07813,0.861328 -0.86133,0.861329 -0.86133,2.105469 v 8.927735 h -3.37695 v -8.927735 q 0,-1.230469 -0.88867,-2.091797 -0.875,-0.875 -2.07813,-0.875 -1.20312,0 -2.07812,0.861328 -0.875,0.861329 -0.875,2.105469 v 8.927735 H 99.72168 V 45.228516 h 3.34961 z"
         style="text-align:start;text-anchor:start"
         id="path4777" />
      <path
         d="m 139.95801,54.292969 h -10.14453 v -3.376953 h 10.14453 z"
         style="text-align:start;text-anchor:start"
         id="path4779" />
      <path
         d="m 51.610352,74.800781 q 0.779296,-0.820312 1.832031,-1.285156 1.066406,-0.478516 2.255859,-0.478516 1.353516,0 2.488281,0.574219 1.148438,0.574219 1.941407,1.572266 0.792968,-0.998047 1.941406,-1.572266 1.162109,-0.574219 2.488281,-0.574219 1.16211,0 2.1875,0.4375 1.025391,0.4375 1.791016,1.203125 0.765625,0.765625 1.203125,1.791016 0.4375,1.025391 0.4375,2.1875 v 9.775391 h -3.390625 v -8.927735 q 0,-1.24414 -0.861328,-2.105469 -0.861328,-0.861328 -2.078125,-0.861328 -1.216797,0 -2.078125,0.861328 -0.861328,0.861329 -0.861328,2.105469 v 8.927735 h -3.376954 v -8.927735 q 0,-1.230469 -0.888671,-2.091797 -0.875,-0.875 -2.078125,-0.875 -1.203125,0 -2.078125,0.861328 -0.875,0.861329 -0.875,2.105469 v 8.927735 h -3.34961 V 73.228516 h 3.34961 z"
         style="text-align:start;text-anchor:start"
         id="path4781" />
      <path
         d="m 89.44043,80.816406 q 0,2.214844 -0.820313,3.992188 -0.820312,1.763672 -2.33789,2.789062 -1.503907,1.025391 -3.445313,1.025391 -1.927734,0 -3.445312,-1.025391 -1.517579,-1.02539 -2.337891,-2.789062 -0.820313,-1.777344 -0.820313,-3.992188 0,-2.201172 0.820313,-3.964844 0.820312,-1.777343 2.324219,-2.789062 1.517578,-1.025391 3.458984,-1.025391 1.927734,0 3.445313,1.025391 1.517578,1.011719 2.33789,2.789062 0.820313,1.763672 0.820313,3.964844 z M 82.836914,76.25 q -1.011719,0 -1.695312,0.601562 -0.669922,0.601563 -0.998047,1.626954 -0.328125,1.02539 -0.328125,2.33789 0,2.023438 0.765625,3.308594 0.765625,1.285156 2.255859,1.285156 1.490234,0 2.255859,-1.285156 0.765625,-1.285156 0.765625,-3.308594 0,-1.3125 -0.328125,-2.33789 Q 85.202148,77.453125 84.518555,76.851562 83.848633,76.25 82.836914,76.25 Z"
         style="text-align:start;text-anchor:start"
         id="path4783" />
      <path
         d="m 99.051758,73.925781 q 1.367192,-0.888672 3.021482,-0.888672 1.92774,0 3.44531,1.025391 1.51758,1.011719 2.3379,2.789062 0.82031,1.763672 0.82031,3.964844 0,2.214844 -0.82031,3.992188 -0.82032,1.763672 -2.3379,2.789062 -1.5039,1.025391 -3.44531,1.025391 -1.65429,0 -3.021482,-0.888672 v 0.697266 H 95.661133 V 68.798828 l 3.390625,-1.421875 z m 0,9.884766 q 0.875,1.285156 2.515622,1.285156 1.02539,0 1.76367,-0.533203 0.75196,-0.546875 1.14844,-1.503906 0.39649,-0.970703 0.39649,-2.242188 0,-1.257812 -0.39649,-2.214844 -0.39648,-0.957031 -1.14844,-1.490234 -0.75195,-0.546875 -1.76367,-0.546875 -1.654294,0 -2.515622,1.285156 z"
         style="text-align:start;text-anchor:start"
         id="path4785" />
      <path
         d="M 115.14355,88.431641 V 73.228516 h 3.39063 V 88.431641 Z M 114.89746,70.125 q 0,-0.519531 0.25977,-0.970703 0.27343,-0.451172 0.71093,-0.710938 0.45118,-0.259765 0.98438,-0.259765 0.51953,0 0.95703,0.259765 0.45117,0.259766 0.71094,0.710938 0.25976,0.451172 0.25976,0.970703 0,0.792969 -0.57422,1.380859 -0.56054,0.574219 -1.35351,0.574219 -0.82031,0 -1.39453,-0.574219 -0.56055,-0.58789 -0.56055,-1.380859 z"
         style="text-align:start;text-anchor:start"
         id="path4787" />
      <path
         d="m 136.84082,86.271484 q -1.10742,1.16211 -2.46094,1.763672 -1.33984,0.587891 -2.93945,0.587891 -1.42188,0 -2.65234,-0.574219 -1.2168,-0.587891 -2.10547,-1.654297 -0.88867,-1.066406 -1.36719,-2.488281 -0.47852,-1.435547 -0.47852,-3.089844 0,-2.214844 0.82032,-3.978515 0.83398,-1.763672 2.33789,-2.775391 1.51758,-1.025391 3.44531,-1.025391 1.92773,0 3.44531,1.025391 1.51758,1.011719 2.33789,2.789062 0.82032,1.763672 0.82032,3.964844 0,0.615235 -0.0273,0.929688 h -9.54297 q 0.17774,1.640625 0.94336,2.679687 0.7793,1.039063 2.02344,1.039063 1.05273,0 1.68164,-0.273438 0.64258,-0.273437 1.17578,-0.902344 z m -2.54297,-7.21875 q -0.27344,-1.3125 -0.99805,-2.050781 Q 132.58887,76.25 131.44043,76.25 q -2.20117,0 -2.83008,2.802734 z"
         style="text-align:start;text-anchor:start"
         id="path4789" />
      <path
         d="M 144.52441,88.431641 V 68.798828 l 3.34961,-1.421875 v 21.054688 z"
         style="text-align:start;text-anchor:start"
         id="path4791" />
      <path
         d="m 165.93457,86.271484 q -1.10742,1.16211 -2.46094,1.763672 -1.33984,0.587891 -2.93945,0.587891 -1.42188,0 -2.65234,-0.574219 -1.2168,-0.587891 -2.10547,-1.654297 -0.88867,-1.066406 -1.36719,-2.488281 -0.47852,-1.435547 -0.47852,-3.089844 0,-2.214844 0.82032,-3.978515 0.83398,-1.763672 2.33789,-2.775391 1.51758,-1.025391 3.44531,-1.025391 1.92773,0 3.44531,1.025391 1.51758,1.011719 2.33789,2.789062 0.82032,1.763672 0.82032,3.964844 0,0.615235 -0.0273,0.929688 h -9.54297 q 0.17774,1.640625 0.94336,2.679687 0.7793,1.039063 2.02344,1.039063 1.05273,0 1.68164,-0.273438 0.64258,-0.273437 1.17578,-0.902344 z m -2.54297,-7.21875 q -0.27344,-1.3125 -0.99805,-2.050781 Q 161.68262,76.25 160.53418,76.25 q -2.20117,0 -2.83008,2.802734 z"
         style="text-align:start;text-anchor:start"
         id="path4793" />
      <path
         d="m 176.96777,88.431641 h -3.34961 V 73.228516 h 3.34961 v 1.544921 q 0.7793,-0.80664 1.85938,-1.285156 1.08008,-0.478515 2.22851,-0.478515 1.51758,0 2.81641,0.765625 1.29883,0.751953 2.05078,2.050781 0.76563,1.285156 0.76563,2.802734 v 9.802735 h -3.36328 v -8.736329 q 0,-0.875 -0.4375,-1.585937 -0.42383,-0.724609 -1.14844,-1.148438 -0.72461,-0.423828 -1.59961,-0.423828 -0.86133,0 -1.59961,0.4375 -0.72461,0.423828 -1.14844,1.148438 -0.42383,0.724609 -0.42383,1.572265 z"
         style="text-align:start;text-anchor:start"
         id="path4795" />
    </g>
  </g>
</svg>
