<?xml version="1.0" encoding="UTF-8" standalone="no"?>
<svg version="1.1" id="Nederlands_verkeersbord_OB08" width="300" height="100" viewBox="0 0 300 100" xmlns="http://www.w3.org/2000/svg">
  <g
     id="g3441">
    <rect
       id="wit_vlak"
       width="300"
       height="100"
       fill="#f7fbf5" />
    <path
       id="zwarte_bies"
       style="fill:none;stroke:#808080;stroke-width:3"
       d="M 280,95 C 290,95 295,90 295,80 L 295,25 C 295,15 290,5 280,5 L 25,5 C 15,5 5,15 5,25 L 5,80 C 5,90 15,95 25,95 L 280,95 z" />
  </g>
  <g
     id="g3798"
     transform="scale(0.7) translate(70, 20)">
    <path
       d="m 145.16337,81.316888 44.34733,0 0,20.651902 c 0,4.01928 2.90802,3.8559 2.90802,3.8559 l 13.39651,0 c 0,0 2.90802,0.16338 2.90802,-3.8559 l 0,-20.651902 1.27429,0 9.02631,-10.33413 0,-32.90581 -9.02631,-6.76415 -13.05342,-33.0610199 C 167.74955,-5.6367919 145,-5.9554019 145,-5.8001819 c 0,-0.15522 -22.71688,0.16339 -51.91145,4.05196 l -13.0861,33.0610199 -9.03447,6.76415 0,32.90581 9.03447,10.33413 1.30698,0 0,20.651902 c 0,4.01928 2.90802,3.8559 2.90802,3.8559 l 13.36383,0 c 0,0 2.90802,0.16338 2.90802,-3.8559 l 0,-20.651902 44.67407,0"
       id="auto"
       style="fill:#2a2d2f" />
    <path
       d="m 145,27.270074 c 0,-0.16338 38.22904,0.95581 56.92697,2.42628 l 0.1552,-0.0654 -9.98202,-25.2757104 C 162.8974,0.4993936 145,0.1726136 145,0.3360036 c 0,-0.16339 -17.8974,0.16339 -47.100145,4.01928 l -9.98203,25.2757104 0.15521,0.0654 C 106.77095,28.225884 145,27.106694 145,27.270074"
       id="voorruit"
       style="fill:#f7fbf5" />
    <path
       style="fill:#f7fbf5"
       id="koplamp_rechts"
       d="m 178.9673,59.603056 24.85063,0 c 2.68214,0 2.8048,-2.74487 2.8048,-2.74487 l 0,-12.82575 c 0,0 -0.12266,-2.74487 -2.8048,-2.74487 l -20.57393,0 c -2.68214,0 -3.60616,1.84625 -3.95779,2.64684 -0.58059,1.30708 -3.23001,12.92378 -3.23001,12.92378 0,2.54881 2.9111,2.74487 2.9111,2.74487" />
    <path
       style="fill:#f7fbf5"
       id="koplamp_links"
       d="m 112.34275,59.603056 -24.82437,0 c -2.64664,0 -2.80183,-2.74487 -2.80183,-2.74487 l 0,-12.82575 c 0,0 0.15519,-2.74487 2.80183,-2.74487 l 20.58486,0 c 2.64663,0 3.56968,1.84625 3.92093,2.64684 0.57998,1.30708 3.25928,12.92378 3.25928,12.92378 0,2.54881 -2.9407,2.74487 -2.9407,2.74487" />
  </g>
</svg>
