<?xml version="1.0" standalone="no"?>
<svg xmlns="http://www.w3.org/2000/svg" id="Netherlands_traffic_sign_OB62" width="300" height="150" viewBox="0 0 300 150" version="1.1">
 <g font-family="Arial,Helvetica,Sans,Liberation Sans,sans-serif">
	<rect id="white_surface" width="300" height="150" fill="#f7fbf5"> </rect>
	<rect id="border" x="5" y="5" rx="10" ry="10" width="290" height="140" stroke="gray" stroke-width="3px" fill="none"/>
	<text textLength="260" lengthAdjust="spacingAndGlyphs">
		<tspan font-weight="bold" font-size="32px" x="50%" y="25%" alignment-baseline="centre" text-anchor="middle">uitgezonderd</tspan>
	</text>
	<path id="bus" transform="scale(1) translate(0, -54)" fill="#2a2d2f" d="m 96,109 c -16,0 -27,0 -28,0 -1,0 -2,3 -2,4 1,1 2,4 2,4 l -9,23 c 0,0 3,5 4,7 2,2 1,15 1,21 0,2 -2,3 -2,3 l 0,4 25,0 c 1,-8 7,-14 15,-14 8,0 15,6 15,14 l 60,0 c 1,-8 7,-14 15,-14 8,0 15,6 15,14 4,0 28,-1 32,-4 4,-2 0,-5 0,-5 l 0,-25 -4,-25 c 0,0 3,-2 3,-4 0,-2 -2,-3 -2,-3 0,0 -92,0 -139,-0 z m -30,4 c 0,-1 -1,-1 0,0 0,1 0,1 0,0 z m 29,4 25,0 0,25 -25,0 0,-25 z m 30,0 26,0 0,25 -26,0 0,-25 z m 32,0 28,0 0,25 -28,0 0,-25 z m 33,0 22,0 0,25 -22,0 0,-25 z m 28,0 10,0 4,25 -14,0 0,-25 z M 73,120 l 16,0 0,26 -24,0 -1,-5 9,-20 z m 29,43 c -7,0 -13,6 -13,13 0,7 6,13 13,13 7,0 13,-6 13,-13 0,-7 -6,-13 -13,-13 z m 90,0 c -7,0 -13,6 -13,13 0,7 6,13 13,13 7,0 13,-6 13,-13 0,-7 -6,-13 -13,-13"/>

 </g>
</svg>
