<?xml version="1.0" standalone="no"?>
<svg xmlns="http://www.w3.org/2000/svg" id="Netherlands_traffic_sign_OB61" width="300" height="150" viewBox="0 0 300 150" version="1.1">
 <g font-family="Arial,Helvetica,Sans,Liberation Sans,sans-serif">	
	<rect id="surface" width="300" height="150" fill="#f7fbf5"> </rect>
	<rect id="border" x="5" y="5" rx="10" ry="10" width="290" height="140" stroke="gray" stroke-width="3px" fill="none"/>
	<text textLength="260" lengthAdjust="spacingAndGlyphs">
		<tspan font-weight="bold" font-size="32px" x="50%" y="25%" alignment-baseline="centre" text-anchor="middle">uitgezonderd</tspan>
	</text>
	<path id="hgv" transform="scale(1) translate(0, -54)" fill="#2a2d2f" d="M 103 109 L 103 154 C 103 154 101 155 101 153 C 100 147 99 131 98 120 L 71 120 L 59 148 L 61 169 L 58 169 L 58 176 L 75 176 C 75 159 103 159 103 175 L 162 175 C 164 160 183 162 192 162 C 201 162 218 159 219 175 L 240 175 L 240 109 L 103 109 z M 75 126 L 92 126 L 92 127 L 93 146 L 67 146 L 75 126 z M 89 164 C 82 164 76 170 76 177 C 76 184 82 190 89 190 C 96 190 102 184 102 177 C 102 170 96 164 89 164 z M 176 164 C 169 164 163 170 163 177 C 163 184 169 190 176 190 C 183 190 189 184 189 177 C 189 170 183 164 176 164 z M 205 164 C 198 164 193 170 193 177 C 193 184 198 190 205 190 C 212 190 218 184 218 177 C 218 170 212 164 205 164"/>
 </g>
</svg>
