<?xml version="1.0" encoding="UTF-8" standalone="no"?>
<svg id="Nederlands_verkeersbord_F4" width="300" height="300" viewBox="0 0 300 300" xmlns="http://www.w3.org/2000/svg" version="1.1">
  

<circle id="witte_cirkel_met_zwarte_rand" cx="150" cy="150" r="149.7675" fill="#f7fbf5" stroke="#2a2d2f" stroke-width="0.465"/>

<path id="auto" fill="#8f9695" d="M 168.2196,177.26824 C 168.95278,177.26824 169.52303,176.63272 169.52303,175.89946 L 169.52303,164.00473 C 169.52303,163.2389 168.95278,162.63604 168.2196,162.63604 L 167.38867,162.63604 C 166.66363,162.63604 166.08524,163.2389 166.08524,164.00473 L 166.08524,175.89946 C 166.08524,176.63272 166.66363,177.26824 167.38867,177.26824 L 168.2196,177.26824 z M 215.37928,189.13851 L 182.82614,189.13851 L 182.82614,203.55881 C 182.82614,206.39401 180.69179,206.29626 180.69179,206.29626 L 170.85904,206.29626 C 170.85904,206.29626 168.73284,206.39401 168.73284,203.55881 L 168.73284,189.13851 L 167.77155,189.13851 L 161.15667,181.9202 L 161.15667,158.91282 L 167.77155,154.16312 L 177.38433,131.98673 C 198.83387,129.28193 215.5096,129.05379 215.5096,129.15153 C 215.5096,129.05379 232.21792,129.28193 253.6593,131.98673 L 263.23951,154.16312 L 269.89514,158.91282 L 269.89514,181.9202 L 263.23951,189.13851 L 262.31896,189.13851 L 262.31896,203.55881 C 262.31896,206.39401 260.15201,206.29626 260.15201,206.29626 L 250.31928,206.29626 C 250.31928,206.29626 248.21749,206.39401 248.21749,203.55881 L 248.21749,189.13851 L 215.37928,189.13851 z M 215.5096,154.00826 C 215.5096,153.87794 257.41481,154.22827 257.3252,154.26085 L 257.41481,154.00826 L 250.09933,137.49414 C 228.68237,134.78935 215.5096,134.5612 215.5096,134.69161 C 215.5096,134.5612 202.36128,134.78935 180.91988,137.49414 L 173.59624,154.22827 L 173.694,154.00826 C 173.694,154.00826 215.5096,153.87794 215.5096,154.00826 z M 201.22078,177.52887 L 229.83103,177.52887 L 229.83103,172.94207 L 201.22078,172.94207 L 201.22078,177.52887 z M 263.78532,177.26824 C 264.47775,177.26824 265.08875,176.63272 265.08875,175.89946 L 265.08875,164.00473 C 265.08875,163.2389 264.47775,162.63604 263.78532,162.63604 L 262.92178,162.63604 C 262.2212,162.63604 261.65094,163.2389 261.65094,164.00473 L 261.65094,175.89946 C 261.65094,176.63272 262.2212,177.26824 262.92178,177.26824 L 263.78532,177.26824"/>

<g id="vrachtauto">

<path fill="#8f9695" d="M 104.86485,194.26301 L 130.32244,193.66016 C 130.41205,196.84561 130.25726,203.3063 131.27557,204.32464 C 132.19611,205.21267 133.9476,205.14751 136.71738,205.08235 C 139.16945,205.0579 141.26309,205.56302 142.54208,204.03955 C 143.33228,203.11073 143.11232,196.74787 143.11232,189.87177 C 143.11232,183.15857 143.33228,177.52887 142.37916,176.6653 C 141.29567,175.67953 139.51976,175.93213 136.65221,175.93213 C 133.88242,175.93213 132.07392,175.52475 131.02303,176.5431 C 129.93955,177.58591 130.50981,180.20117 130.32244,186.59662 L 104.79969,185.04049 C 104.79969,185.04049 101.80994,179.78568 95.765302,179.68785 C 89.679922,179.59824 86.755352,185.06495 86.755352,185.06495 L 61.167442,186.6292 C 60.947472,180.23375 61.745832,178.51473 60.564602,176.7957 C 60.026932,175.99729 57.672622,175.99729 54.902822,175.93213 C 52.067872,175.89946 49.998682,175.96471 49.265502,176.6653 C 48.092422,177.81405 48.125012,182.80823 48.125012,189.65175 C 48.125012,196.52793 47.807292,203.37146 49.208482,204.512 C 50.226782,205.37565 52.483342,205.0579 54.968012,205.08235 C 57.705202,205.14751 59.326342,205.27784 60.279482,204.35723 C 61.582912,203.04557 61.012652,196.87819 61.110412,193.66016 L 86.657592,194.26301 C 86.657592,194.26301 89.777692,199.16757 95.765302,199.16757 C 101.14193,199.16757 104.86485,194.26301 104.86485,194.26301"/>

<path fill="#8f9695" d="M 143.39745,156.29764 C 143.39745,83.707122 143.56037,67.7307 140.50547,64.675567 C 138.3385,62.541044 128.8235,62.834344 94.999532,62.834344 C 64.540062,62.834344 53.053602,61.432996 49.811322,64.675567 C 47.008952,67.478184 47.709532,76.741405 47.709532,156.29764 L 143.39745,156.29764"/>

<path fill="#8f9695" d="M 46.854162,170.75051 L 144.35059,170.75051 L 144.35059,162.75824 L 46.854162,162.75824 L 46.854162,170.75051 z"/>

</g>

<g id="zwarte_strepen_met_witte_randen">

<path id="zwarte_streep_met_witte_rand_rechts" d="M 242.29035,35.712735 L 231.72359,29.602381 L 87.275682,279.77478 L 97.875042,285.88505 L 242.29035,35.712735 z " style="fill:#2a2d2f;stroke:#f7fbf5;stroke-width:1.4"/>

<path id="zwarte_streep_met_witte_rand_midden" d="M 227.26713,27.027902 L 216.7085,20.91763 L 72.252452,271.08995 L 82.851832,277.20029 L 227.26713,27.027902 z " style="fill:#2a2d2f;stroke:#f7fbf5;stroke-width:1.4"/>

<path id="zwarte_streep_met_witte_rand_links" d="M 212.25204,18.375732 L 201.68526,12.265377 L 57.229212,262.4052 L 67.796012,268.51547 L 212.25204,18.375732 z " style="fill:#2a2d2f;stroke:#f7fbf5;stroke-width:1.4"/>

</g>

<circle id="witte_bies" cx="150" cy="150" r="143.69" stroke="#f7fbf5" fill="none" stroke-width="9.32"/>
  
</svg>