<?xml version="1.0" encoding="UTF-8" standalone="no"?>
<svg id="Nederlands_verkeersbord_F5" width="300" height="300" viewBox="0 0 300 300" xmlns="http://www.w3.org/2000/svg" version="1.1">

<circle id="witte_cirkel_met_rode_rand" cx="150" cy="150" r="130.5" fill="#f7fbf5" stroke="#c1121c" stroke-width="39"/>

<path id="rode_pijl" fill="#c1121c" d="M 200.70575,224.54735 L 200.70575,129.64898 L 222.23876,134.6667 C 227.43935,136.69653 231.56183,134.02528 228.61245,128.98319 L 195.75845,81.793824 C 192.80988,77.571788 190.27291,77.571788 187.32353,81.793824 L 154.46954,128.98319 C 151.55182,134.02528 155.64263,136.69653 160.84403,134.6667 L 182.37623,129.64898 L 182.37623,224.54735 L 200.70575,224.54735"/>

<path id="zwarte_pijl" fill="#2a2d2f" d="M 97.03898,73.9587 L 97.03898,168.84895 L 75.50597,163.83935 C 70.30538,161.77704 66.18291,164.47265 69.13229,169.51474 L 101.98628,216.67975 C 104.93485,220.90178 107.44016,220.90178 110.42121,216.67975 L 143.24354,169.51474 C 146.19292,164.47265 142.1021,161.77704 136.9007,163.83935 L 115.3685,168.84895 L 115.3685,73.9587 L 97.03898,73.9587"/>

</svg>