<?xml version="1.0" encoding="UTF-8" standalone="no"?>
<svg id="Nederlands_verkeersbord_F1" width="300" height="300" viewBox="0 0 300 300" xmlns="http://www.w3.org/2000/svg" version="1.1">

<circle id="witte_cirkel_met_rode_rand" cx="150" cy="150" r="130.5" fill="#f7fbf5" stroke="#c1121c" stroke-width="39"/>

<path id="rode_auto" fill="#c1121c" d="M 61.16843,156.36794 C 60.62604,156.36794 60.17922,155.91863 60.17922,155.34678 L 60.17922,146.37693 C 60.17922,145.80508 60.62604,145.35577 61.16843,145.35577 L 61.80639,145.35577 C 62.34878,145.35577 62.7956,145.80508 62.7956,146.37693 L 62.7956,155.34678 C 62.7956,155.91863 62.34878,156.36794 61.80639,156.36794 L 61.16843,156.36794 z M 86.63138,153.10841 L 108.13749,153.10841 L 108.13749,156.55584 L 86.63138,156.55584 L 86.63138,153.10841 z M 97.48001,165.29695 L 121.98561,165.29695 L 121.98561,176.14574 C 121.98561,178.28609 123.61278,178.18806 123.61278,178.18806 L 130.98406,178.18806 C 130.98406,178.18806 132.61124,178.28609 132.61124,176.14574 L 132.61124,165.29695 L 133.31291,165.29695 L 138.29082,159.83988 L 138.29082,142.54554 L 133.31291,138.97557 L 126.10173,122.28576 C 109.95663,120.24344 97.38444,120.08006 97.38444,120.17809 C 97.38444,120.08006 84.81225,120.24344 68.699,122.28576 L 61.45596,138.97557 L 56.47806,142.54554 L 56.47806,159.83988 L 61.45596,165.29695 L 62.18949,165.29695 L 62.18949,176.14574 C 62.18949,178.28609 63.78481,178.18806 63.78481,178.18806 L 71.18795,178.18806 C 71.18795,178.18806 72.78326,178.28609 72.78326,176.14574 L 72.78326,165.29695 L 97.48001,165.29695 z M 65.92251,138.87754 L 65.8588,139.03276 L 71.34724,126.42758 C 87.49316,124.38526 97.38444,124.23005 97.38444,124.32808 C 97.38444,124.23005 107.27571,124.38526 123.42164,126.42758 L 128.94193,138.87754 L 128.84636,139.06544 C 128.94193,139.03276 97.38444,138.77951 97.38444,138.87754 C 97.38444,138.77951 65.92251,138.87754 65.92251,138.87754 z M 133.05805,156.36794 C 132.51566,156.36794 132.1007,155.91863 132.1007,155.34678 L 132.1007,146.37693 C 132.1007,145.80508 132.51566,145.35577 133.05805,145.35577 L 133.69602,145.35577 C 134.23841,145.35577 134.68523,145.80508 134.68523,146.37693 L 134.68523,155.34678 C 134.68523,155.91863 134.23841,156.36794 133.69602,156.36794 L 133.05805,156.36794"/>

<path id="zwarte_auto" fill="#2a2d2f" d="M 166.11529,156.36794 C 166.65768,156.36794 167.07264,155.91863 167.07264,155.34678 L 167.07264,146.37693 C 167.07264,145.80508 166.65768,145.35577 166.11529,145.35577 L 165.47651,145.35577 C 164.93412,145.35577 164.48812,145.80508 164.48812,146.37693 L 164.48812,155.34678 C 164.48812,155.91863 164.93412,156.36794 165.47651,156.36794 L 166.11529,156.36794 z M 201.59695,165.29695 L 177.09135,165.29695 L 177.09135,176.14574 C 177.09135,178.28609 175.49603,178.18806 175.49603,178.18806 L 168.09371,178.18806 C 168.09371,178.18806 166.49758,178.28609 166.49758,176.14574 L 166.49758,165.29695 L 165.76404,165.29695 L 160.78614,159.83988 L 160.78614,142.54554 L 165.76404,138.97557 L 173.00708,122.28576 C 189.12115,120.24344 201.69252,120.08006 201.69252,120.17809 C 201.69252,120.08006 214.26471,120.24344 230.37877,122.28576 L 237.62181,138.97557 L 242.59972,142.54554 L 242.59972,159.83988 L 237.62181,165.29695 L 236.91932,165.29695 L 236.91932,176.14574 C 236.91932,178.28609 235.29215,178.18806 235.29215,178.18806 L 227.88982,178.18806 C 227.88982,178.18806 226.29451,178.28609 226.29451,176.14574 L 226.29451,165.29695 L 201.59695,165.29695 z M 201.69252,138.87754 C 201.69252,138.77951 233.25001,139.03276 233.15444,139.06544 L 233.25001,138.87754 L 227.72972,126.42758 C 211.58461,124.38526 201.69252,124.23005 201.69252,124.32808 C 201.69252,124.23005 191.80124,124.38526 175.65532,126.42758 L 170.13584,139.03276 L 170.23141,138.87754 C 170.23141,138.87754 201.69252,138.77951 201.69252,138.87754 z M 190.93946,156.55584 L 212.47825,156.55584 L 212.47825,153.10841 L 190.93946,153.10841 L 190.93946,156.55584 z M 238.00492,156.36794 C 238.54731,156.36794 238.99331,155.91863 238.99331,155.34678 L 238.99331,146.37693 C 238.99331,145.80508 238.54731,145.35577 238.00492,145.35577 L 237.36614,145.35577 C 236.82375,145.35577 236.40879,145.80508 236.40879,146.37693 L 236.40879,155.34678 C 236.40879,155.91863 236.82375,156.36794 237.36614,156.36794 L 238.00492,156.36794"/>

</svg>