<?xml version="1.0" encoding="UTF-8" standalone="no"?>
<svg id="Nederlands_verkeersbord_F3" width="300" height="300" viewBox="0 0 300 300" xmlns="http://www.w3.org/2000/svg" version="1.1">

<circle id="witte_cirkel_met_rode_rand" cx="150" cy="150" r="130.5" fill="#f7fbf5" stroke="#c1121c" stroke-width="39"/>

<g id="rode_vrachtauto">

<path fill="#c1121c" d="M 111.34197,196.88751 L 131.06312,196.41369 C 131.12031,198.90532 130.99777,203.91308 131.79021,204.7055 C 132.49278,205.38355 133.86526,205.31819 136.00566,205.28552 C 137.91732,205.25284 139.55122,205.63679 140.53973,204.48493 C 141.14427,203.74969 140.95637,198.80729 140.95637,193.47275 C 140.95637,188.2771 141.1116,183.90654 140.40902,183.26117 C 139.55122,182.50143 138.17875,182.68932 135.97299,182.68932 C 133.83258,182.68932 132.40292,182.33804 131.56963,183.13863 C 130.74451,183.96373 131.18567,186.00604 131.06312,190.95662 L 111.27662,189.7394 C 111.27662,189.7394 108.94831,185.65477 104.25086,185.59758 C 99.56157,185.53223 97.26594,189.7394 97.26594,189.7394 L 77.44676,190.95662 C 77.29154,186.00604 77.89608,184.69896 76.99744,183.3592 C 76.58897,182.722 74.73449,182.722 72.59409,182.68932 C 70.39649,182.65665 68.80344,182.68932 68.22341,183.26117 C 67.33293,184.12711 67.33293,188.02385 67.33293,193.31754 C 67.33293,198.6439 67.10419,203.94576 68.15805,204.83621 C 68.95866,205.50609 70.7151,205.25284 72.62676,205.28552 C 74.76717,205.31819 76.00893,205.44073 76.74419,204.7055 C 77.76537,203.71702 77.31605,198.90532 77.38141,196.44637 L 97.20059,196.88751 C 97.20059,196.88751 99.62693,200.68622 104.25086,200.68622 C 108.43364,200.68622 111.34197,196.88751 111.34197,196.88751" id="path270"/>

<path fill="#c1121c" d="M 141.20963,167.46998 C 141.20963,111.20823 141.30766,98.831795 138.93851,96.462707 C 137.2801,94.804346 129.91122,95.033085 103.64632,95.033085 C 80.061,95.033085 71.16442,93.946573 68.64005,96.462707 C 66.46697,98.603055 67.01432,105.78384 67.01432,167.46998 L 141.20963,167.46998"/>

<path fill="#c1121c" d="M 66.3771,178.67004 L 141.94488,178.67004 L 141.94488,172.47774 L 66.3771,172.47774 L 66.3771,178.67004 z "/>

</g>

<path id="zwarte_personenauto" fill="#2a2d2f" d="M 159.49295,182.78735 C 160.06481,182.78735 160.51413,182.30537 160.51413,181.73352 L 160.51413,172.51042 C 160.51413,171.93857 160.06481,171.4239 159.49295,171.4239 L 158.85573,171.4239 C 158.28386,171.4239 157.83454,171.93857 157.83454,172.51042 L 157.83454,181.73352 C 157.83454,182.30537 158.28386,182.78735 158.85573,182.78735 L 159.49295,182.78735 z M 196.06775,191.97778 L 170.82403,191.97778 L 170.82403,203.17784 C 170.82403,205.35087 169.16562,205.28552 169.16562,205.28552 L 161.53532,205.28552 C 161.53532,205.28552 159.90959,205.35087 159.90959,203.17784 L 159.90959,191.97778 L 159.14166,191.97778 L 154.00305,186.39 L 154.00305,168.55649 L 159.14166,164.88032 L 166.57589,147.68401 C 183.20081,145.57634 196.15762,145.42113 196.15762,145.51099 C 196.15762,145.42113 209.08175,145.57634 225.71483,147.68401 L 233.14907,164.88032 L 238.28767,168.55649 L 238.28767,186.39 L 233.14907,191.97778 L 232.41381,191.97778 L 232.41381,203.17784 C 232.41381,205.35087 230.75541,205.28552 230.75541,205.28552 L 223.15778,205.28552 C 223.15778,205.28552 221.49937,205.35087 221.49937,203.17784 L 221.49937,191.97778 L 196.06775,191.97778 z M 196.15762,164.75778 C 196.15762,164.65975 228.64768,164.94567 228.54964,164.94567 L 228.64768,164.75778 L 222.96988,151.95654 C 206.3368,149.88971 196.15762,149.69365 196.15762,149.79168 C 196.15762,149.69365 185.94575,149.88971 169.35352,151.95654 L 163.67573,164.94567 L 163.74108,164.75778 C 163.74108,164.75778 196.15762,164.65975 196.15762,164.75778 z M 185.05528,182.97525 L 207.23544,182.97525 L 207.23544,179.43795 L 185.05528,179.43795 L 185.05528,182.97525 z M 233.55754,182.78735 C 234.1049,182.78735 234.55422,182.30537 234.55422,181.73352 L 234.55422,172.51042 C 234.55422,171.93857 234.1049,171.4239 233.55754,171.4239 L 232.88764,171.4239 C 232.34846,171.4239 231.89913,171.93857 231.89913,172.51042 L 231.89913,181.73352 C 231.89913,182.30537 232.34846,182.78735 232.88764,182.78735 L 233.55754,182.78735"/>

</svg>