<svg width="98" height="124" viewBox="0 0 98 124" fill="none" xmlns="http://www.w3.org/2000/svg">
<path d="M55.0445 114.094C53.2614 117.981 47.7386 117.981 45.9555 114.094L15.2124 47.085C13.6928 43.7729 16.1129 40 19.7569 40L81.2431 40C84.8871 40 87.3072 43.7729 85.7876 47.085L55.0445 114.094Z" fill="#694E2D"/>
<circle cx="49" cy="49" r="49" fill="#694E2D"/>
<path d="M67.5 76.3395H62.0436C65.206 74.0913 67.7862 70.9283 69.476 67.1884H74.8929C79.4101 67.1884 83.0851 63.1243 83.0851 58.1289C83.0851 53.1335 79.4101 49.0695 74.8929 49.0695H71.6699V44.494C71.6699 43.483 70.9288 42.6637 70.0149 42.6637H25.655C24.7411 42.6637 24 43.4829 24 44.494V56.9003C24 65.0531 27.8426 72.2276 33.6265 76.3396H27.3352C26.4212 76.3395 25.6551 77.1588 25.6551 78.1698C25.6551 79.1807 26.4212 80 27.3351 80H44.8888H50.7817H67.5C68.4139 80 69 79.0111 69 78C69 76.9889 68.4139 76.3395 67.5 76.3395ZM74.8931 52.7298C77.5852 52.7298 79.7754 55.1519 79.7754 58.1289C79.7754 61.106 77.5852 63.5281 74.8931 63.5281H70.7897C71.3601 61.4274 71.6702 59.2033 71.6702 56.9001V52.7298H74.8931ZM37.1501 22.8301C39.7848 19.9164 39.7848 15.1754 37.1501 12.2614L37.0263 12.1245C36.3799 11.41 36.3799 10.2511 37.0263 9.53653C37.6727 8.82167 38.7203 8.82167 39.3668 9.53653L39.4906 9.67342C43.4157 14.014 43.4157 21.0775 39.4906 25.4183C38.2143 26.8298 37.5116 28.7061 37.5116 30.7025C37.5116 32.6989 38.2146 34.5752 39.4906 35.987C40.137 36.7015 40.137 37.8604 39.4906 38.575C39.1675 38.9327 38.7438 39.1113 38.3202 39.1113C37.8965 39.1113 37.4732 38.9327 37.1497 38.575C35.2481 36.4725 34.2011 33.6766 34.2011 30.7025C34.2015 27.7285 35.2487 24.9326 37.1501 22.8301ZM46.7302 22.8301C48.0065 21.4186 48.7096 19.5419 48.7096 17.5455C48.7096 15.5492 48.0065 13.6729 46.7302 12.261L46.6064 12.1241C45.96 11.4096 45.96 10.2507 46.6064 9.53614C47.2528 8.82129 48.3004 8.82129 48.9469 9.53614L49.0707 9.67303C50.9723 11.7755 52.0197 14.5718 52.0197 17.5455C52.0197 20.5193 50.9724 23.3154 49.0707 25.4181C47.7944 26.8295 47.0917 28.7058 47.0917 30.7022C47.0917 32.6986 47.7947 34.5749 49.0707 35.9868C49.7172 36.7013 49.7172 37.8601 49.0707 38.5747C48.7476 38.9324 48.324 39.111 47.9003 39.111C47.4766 39.111 47.0533 38.9324 46.7298 38.5747C44.8283 36.4723 43.7812 33.6763 43.7812 30.7022C43.7812 27.7285 44.8286 24.9326 46.7302 22.8301ZM56.3104 22.8297C58.9448 19.9164 58.9448 15.1754 56.3104 12.2614L56.1866 12.1245C55.5402 11.41 55.5402 10.2511 56.1866 9.53653C56.833 8.82167 57.8806 8.82167 58.5272 9.53653L58.651 9.67342C62.576 14.014 62.576 21.0775 58.651 25.4183C57.3746 26.8298 56.6715 28.7061 56.6715 30.7025C56.6715 32.6989 57.3746 34.5752 58.6506 35.9867C59.297 36.7015 59.297 37.8604 58.6506 38.575C58.3275 38.9327 57.9038 39.1113 57.4802 39.1113C57.0565 39.1113 56.6331 38.9327 56.3101 38.5754C54.4085 36.4725 53.3611 33.6766 53.3611 30.7026C53.3615 27.7285 54.4087 24.9326 56.3104 22.8297Z" fill="white"/>
<g filter="url(#filter0_d)">
<path d="M45.4541 63.4281H35.5495L40.952 51.3942H46.3545H50.2563H54.4583M54.4583 51.3942L52.9576 48H55.0586H57.1595M54.4583 51.3942L55.0586 52.937L56.2591 55.4055L59.5607 63.4281M54.4583 51.3942L51.607 56.0226L49.8962 58.7996M48.7556 60.651L49.8962 58.7996M43.053 54.7883L46.0544 61.5767L40.0516 48L41.8524 51.7027M47.8552 62.1938L49.8962 58.7996" stroke="#694E2D" stroke-width="2"/>
<path d="M48.5098 62.9031C48.5098 63.833 47.78 64.563 46.9088 64.563C46.0375 64.563 45.3078 63.833 45.3078 62.9031C45.3078 61.9732 46.0375 61.2432 46.9088 61.2432C47.78 61.2432 48.5098 61.9732 48.5098 62.9031Z" stroke="#694E2D"/>
<path d="M42.007 62.286C42.007 66.0203 39.0694 69 35.5035 69C31.9376 69 29 66.0203 29 62.286C29 58.5517 31.9376 55.572 35.5035 55.572C39.0694 55.572 42.007 58.5517 42.007 62.286Z" stroke="#694E2D" stroke-width="2"/>
<ellipse cx="63.1725" cy="56.7207" rx="0.217504" ry="0.223607" fill="black" fill-opacity="0.49"/>
</g>
<path d="M66.007 62.714C66.007 66.4483 63.0694 69.4281 59.5035 69.4281C55.9376 69.4281 53 66.4483 53 62.714C53 58.9797 55.9376 56 59.5035 56C63.0694 56 66.007 58.9797 66.007 62.714Z" stroke="#694E2D" stroke-width="2"/>
<defs>
<filter id="filter0_d" x="24" y="47" width="43.39" height="31" filterUnits="userSpaceOnUse" color-interpolation-filters="sRGB">
<feFlood flood-opacity="0" result="BackgroundImageFix"/>
<feColorMatrix in="SourceAlpha" type="matrix" values="0 0 0 0 0 0 0 0 0 0 0 0 0 0 0 0 0 0 127 0"/>
<feOffset dy="4"/>
<feGaussianBlur stdDeviation="2"/>
<feColorMatrix type="matrix" values="0 0 0 0 0 0 0 0 0 0 0 0 0 0 0 0 0 0 0.25 0"/>
<feBlend mode="normal" in2="BackgroundImageFix" result="effect1_dropShadow"/>
<feBlend mode="normal" in="SourceGraphic" in2="effect1_dropShadow" result="shape"/>
</filter>
</defs>
</svg>
