<?xml version="1.0" encoding="UTF-8" standalone="no"?>
<svg
   xmlns:dc="http://purl.org/dc/elements/1.1/"
   xmlns:cc="http://creativecommons.org/ns#"
   xmlns:rdf="http://www.w3.org/1999/02/22-rdf-syntax-ns#"
   xmlns:svg="http://www.w3.org/2000/svg"
   xmlns="http://www.w3.org/2000/svg"
   xmlns:sodipodi="http://sodipodi.sourceforge.net/DTD/sodipodi-0.dtd"
   xmlns:inkscape="http://www.inkscape.org/namespaces/inkscape"
   width="50.096"
   height="50.096"
   viewBox="0 0 2480 2480"
   version="1.1"
   id="svg11"
   sodipodi:docname="logo.svg"
   inkscape:version="0.92.5 (2060ec1f9f, 2020-04-08)">
  <metadata
     id="metadata15">
    <rdf:RDF>
      <cc:Work
         rdf:about="">
        <dc:format>image/svg+xml</dc:format>
        <dc:type
           rdf:resource="http://purl.org/dc/dcmitype/StillImage" />
      </cc:Work>
    </rdf:RDF>
  </metadata>
  <sodipodi:namedview
     pagecolor="#ffffff"
     bordercolor="#666666"
     borderopacity="1"
     objecttolerance="10"
     gridtolerance="10"
     guidetolerance="10"
     inkscape:pageopacity="0"
     inkscape:pageshadow="2"
     inkscape:window-width="1920"
     inkscape:window-height="1039"
     id="namedview13"
     showgrid="false"
     inkscape:zoom="9.4219098"
     inkscape:cx="5.9244412"
     inkscape:cy="9.9741576"
     inkscape:window-x="1920"
     inkscape:window-y="0"
     inkscape:window-maximized="1"
     inkscape:current-layer="layer2" />
  <defs
     id="defs4">
    <style
       id="style2">
      .cls-1 {
        fill: #5dbaa8;
      }

      .cls-1, .cls-2, .cls-3, .cls-4, .cls-5 {
        fill-rule: evenodd;
      }

      .cls-2 {
        fill: #937f20;
      }

      .cls-3 {
        fill: #007054;
      }

      .cls-4 {
        fill: #6a9529;
      }
    </style>
  </defs>
  <g
     inkscape:groupmode="layer"
     id="layer1"
     inkscape:label="fg"
     style="display:inline">
    <g
       inkscape:groupmode="layer"
       id="layer2"
       inkscape:label="bg"
       style="display:inline">
      <circle
         style="fill:#ffffff;fill-opacity:1;stroke:none;stroke-width:0;stroke-linecap:round;stroke-linejoin:round;stroke-miterlimit:4;stroke-dasharray:none;stroke-opacity:1"
         id="path840"
         cx="1240"
         cy="1234.7457"
         r="1240" />
    </g>
    <g
       id="g830">
      <path
         style="fill:#5dbaa8;fill-rule:evenodd;stroke-width:0.91525459"
         inkscape:connector-curvature="0"
         d="m 1083.9285,241.00005 9.1525,1.30699 c 2.7184,3.42854 7.8346,4.428 10.4523,7.84098 21.2064,27.67273 45.5156,55.05531 62.7315,86.2536 5.8942,10.68926 4.9424,22.56285 9.1434,35.28581 24.6844,74.65274 15.1932,137.48131 -37.9007,179.04119 -13.8661,10.8595 -24.7393,32.38903 -45.7353,35.28581 -36.3356,-25.65367 -72.954,-43.93222 -88.8712,-90.17454 -6.04067,-17.56099 -5.3524,-37.08978 -5.22792,-53.58175 0.0558,-7.41357 -4.43533,-18.40577 -1.30699,-31.36486 3.00021,-12.42459 3.22719,-29.31012 7.84191,-41.81982 13.5211,-36.65595 28.9403,-63.98453 49.6617,-92.78759 9.8225,-13.66018 16.9981,-24.86747 30.0588,-35.28582 z m 411.6632,500.5317 c 2.7183,-0.486 2.517,-0.31577 3.9265,-1.30699 2.8739,-5.16478 4.4115,-16.08011 9.1434,-23.52204 24.4464,-38.4828 50.3115,-57.51551 96.7058,-74.49166 19.2569,-7.04746 40.2437,-2.052 62.7315,-6.53492 14.2963,-2.84918 39.1637,0.46495 56.1966,5.22794 17.8567,4.99363 68.516,2.7659 74.4926,19.60292 3.359,4.02712 3.3132,12.75316 0,16.98896 -4.2285,12.54814 -31.1278,40.19066 -40.5183,50.9687 -9.8848,11.35556 -16.1634,25.35255 -26.1305,36.59188 -6.5349,7.35864 -15.596,13.61715 -23.5221,19.60292 q -5.8896,6.534 -11.7701,13.06892 c -16.0353,12.00631 -36.6926,25.19055 -57.4963,31.36486 -45.2319,13.42129 -97.4838,-7.95356 -125.4631,-28.75089 -9.7292,-7.23692 -22.8356,-11.06269 -23.5221,-27.44483 3.2766,-4.52502 4.4298,-12.44746 1.3088,-15.68197 7.258,-6.26217 4.7685,-7.23051 3.9173,-15.68472 z M 789.88282,1176.7198 h -3.92095 v 3.9172 h -3.92003 v 3.9265 h -3.92095 c -11.40957,21.9112 -51.1847,29.398 -73.18468,41.818 -4.96068,2.8006 -39.00357,0.2745 -40.51283,0 h -32.67459 v -3.9173 c -12.88312,-0.8238 -26.40875,-7.02 -36.59279,-10.4614 -33.96601,-11.459 -53.04083,-18.5339 -78.41261,-37.9007 -15.77533,-12.0356 -38.80679,-14.0217 -36.59188,-40.5091 l 28.7509,-28.7482 c 53.2852,-38.8159 132.10876,-85.6367 209.09998,-65.3492 8.41302,2.2149 16.29702,0.897 23.52204,3.9265 18.61079,7.7796 27.22059,16.3739 40.51375,28.7481 10.87231,10.1227 35.1412,37.3607 36.59188,54.8878 -2.67255,3.4689 -2.44923,9.5095 -5.22702,13.0699 -6.39214,8.2007 -22.13177,25.0963 -23.52022,36.5919 z"
         class="cls-1"
         id="Blauw" />
      <path
         style="fill:#937f20;fill-rule:evenodd;stroke-width:0.91525459"
         inkscape:connector-curvature="0"
         d="m 1542.645,327.25273 c 6.123,0.15285 8.3196,1.45983 13.0606,2.61397 35.6217,58.34748 65.3858,166.23037 30.0662,239.15603 -8.8597,18.29136 -39.8136,53.26782 -56.1967,64.0367 -7.0841,4.65224 -15.5135,5.63339 -23.5312,9.15255 -14.8546,6.51844 -22.5061,18.09367 -47.0441,18.29594 -4.0362,-3.22353 -9.1342,-4.52319 -13.0698,-7.84099 -6.5898,-5.56658 -11.2027,-14.39878 -16.9871,-20.90991 l -15.6783,-15.68563 c -4.8783,-8.18146 -4.4024,-17.92526 -7.8438,-27.44391 a 271.34187,271.34187 0 0 1 -10.4522,-35.28581 c -3.1668,-15.03672 7.3038,-77.81403 15.6783,-94.09458 15.9255,-30.9594 44.097,-61.18751 67.9577,-84.94661 3.963,-3.95115 10.2783,-5.30848 14.3786,-9.14797 9.1526,-8.57685 18.1038,-17.69279 28.7482,-24.83086 6.9102,-4.63027 15.0468,-7.43003 20.9136,-13.06892 z m 155.5109,710.93407 c 61.02,-1.9952 109.62,18.9092 155.52,39.2095 11.5231,5.098 41.9278,12.7587 45.7445,23.5221 3.0752,4.1461 2.9379,12.5756 0,18.2959 l -18.296,18.2959 c -9.0702,11.9624 -19.5315,22.2133 -30.0661,32.6746 -26.4966,26.3319 -63.3722,41.8821 -103.2407,54.8879 -18.2319,5.9491 -39.3285,12.905 -57.4963,10.4522 -14.7082,-1.977 -30.2126,3.0111 -43.1268,-2.6085 -14.342,-6.2421 -27.357,-16.2824 -39.2095,-24.8309 -14.4702,-10.4339 -41.5983,-29.0502 -43.1268,-50.9705 3.899,-4.9881 4.6495,-11.1478 7.8437,-16.9871 7.1939,-13.1614 17.1061,-26.6889 24.8309,-39.2095 3.0661,-4.979 13.2712,-25.3343 14.3695,-26.1306 13.1064,-9.5644 28.6474,-18.964 44.4356,-24.8308 13.3627,-4.979 30.8349,-4.0637 41.818,-11.7702 z m -707.01591,192.112 c 7.50509,2.16 25.38731,5.8027 27.44391,3.9264 1.8616,1.8305 31.3511,13.7837 32.6691,13.0607 2.398,1.9769 3.2583,6.6539 6.5349,3.9264 0.4393,1.3088 0.8695,2.6085 1.3088,3.9173 5.2261,3.3224 19.5041,2.2515 20.9136,14.3787 4.979,6.7271 -0.1007,24.419 -1.3088,40.5091 -1.4827,19.6597 -6.6814,43.3556 -20.9136,65.3492 -2.8556,4.4207 -8.5576,7.7431 -11.761,11.761 -1.8763,2.3431 -1.8763,5.7021 -3.9173,7.8438 -3.5512,3.7159 -10.0678,6.3518 -13.0698,10.4522 -2.3522,3.2125 1.3088,4.4664 -1.3088,6.5349 -2.6451,2.0868 -11.3163,7.203 -13.0671,5.2261 -8.0982,8.521 -13.414,7.1024 -26.13788,14.3786 -5.95464,3.3956 -14.27797,11.1753 -20.9099,13.0607 -4.26875,1.2173 -3.03316,-1.9129 -5.22702,-2.6084 -30.62076,13.1705 -90.62302,18.3142 -112.39327,14.3786 -1.54586,-0.2837 -8.90726,0.1281 -10.45495,1.2997 v -2.6085 c -1.87261,-0.9519 -12.6534,0.8695 -14.37591,1.3088 -4.79868,-1.7573 -7.992,-3.1576 -11.76102,-3.9264 -6.64841,-1.3546 -12.0539,2.2606 -15.68289,-1.3089 -3.47796,-1.8305 -6.21915,-4.1461 -7.84098,-7.8345 -8.2437,-11.5322 17.14089,-59.4092 23.52204,-71.8841 28.36283,-55.437 64.61698,-99.0397 116.31147,-126.7628 1.3381,-0.7139 13.86336,-3.1393 15.68197,-2.6176 8.2373,-3.8349 13.78831,-6.6814 22.21689,-9.1434 8.68211,-2.5353 18.53483,2.8922 23.52754,-2.6176 z"
         class="cls-2"
         id="Bruin" />
      <path
         style="fill:#007054;fill-rule:evenodd;stroke-width:0.91525459"
         inkscape:connector-curvature="0"
         d="m 1376.6635,105.08475 11.7702,2.61396 c 7.2031,13.54577 6.837,23.59435 13.0607,39.20585 9.1251,22.87221 20.7122,66.95545 14.3786,105.85652 -3.0111,18.50553 4.2834,38.16611 -2.6084,57.5027 -13.1065,36.74198 -39.2553,68.86009 -69.2665,88.87122 -10.5803,7.05295 -25.2061,7.06668 -37.9007,11.76194 -14.0858,5.21695 -23.8058,13.12292 -44.4356,13.06892 -10.9556,-10.55563 -26.6065,-20.22713 -32.6746,-35.28581 q -2.6085,-13.06709 -5.2261,-26.13693 c -25.0871,-83.28817 9.4912,-141.49836 58.8143,-190.80313 q 14.3695,-14.37407 28.7481,-28.75089 c 9.7383,-7.08407 20.877,-10.55929 31.3658,-16.98896 5.0522,-3.09356 10.6993,-8.94386 15.6783,-11.76193 6.5532,-3.71319 13.1797,-4.30261 18.2959,-9.15346 z m 606.3928,620.76411 c 3.5512,-0.009 6.0041,0.0503 7.8438,1.30698 3.8257,1.23651 4.5854,2.30461 6.5349,5.22702 4.439,5.65902 2.041,16.25401 0,23.52204 -5.7661,20.47791 -12.9692,43.62836 -18.296,64.03671 -17.5454,67.13392 -65.1203,150.8788 -151.6027,147.67633 -14.0309,-0.51987 -31.0546,3.91637 -48.3529,0 q -18.2868,-3.92004 -36.5919,-7.84099 c -15.4038,-26.19733 -4.4848,-69.55935 2.6176,-92.78759 24.6295,-80.61563 67.738,-101.20977 146.3675,-126.76277 19.8061,-6.43881 44.8017,-5.59952 65.34,-10.45495 8.8414,-2.09136 19.4584,0.3661 26.1397,-3.92278 z m -968.3943,95.40156 v 5.22702 h 3.9201 v 3.92095 h 3.9209 c 0.4851,2.71282 0.3204,2.51512 1.3088,3.92095 v 1.30607 h 3.9173 c 1.2722,18.48082 24.3183,37.85585 31.3658,54.88874 12.1912,29.43275 14.0766,109.13038 0,138.52925 -6.297,13.1431 -15.2939,26.579 -23.522,37.9007 -7.8804,10.8366 -13.0607,27.0092 -31.3658,27.4393 -10.53826,-7.2122 -25.53562,-6.361 -36.59281,-13.0698 -3.07892,-1.8671 -8.29862,-6.4525 -11.76194,-7.8346 h -6.534 c -0.41461,-0.2562 -4.3676,-5.9583 -5.22794,-6.5349 -13.52655,-9.18 -22.74774,-20.1264 -33.97791,-31.3658 q -5.22793,-4.5717 -10.45587,-9.1525 c -36.73923,-60.84979 -14.66787,-157.13915 9.15255,-213.01636 5.91071,-13.86886 16.63566,-44.62873 27.44391,-52.27569 2.70366,-2.17464 5.43112,-2.49589 10.45495,-2.61305 17.03838,14.74475 32.58306,29.90229 49.6608,44.43378 6.63466,5.64621 8.40846,15.69845 18.29316,18.29594 z m 458.7165,475.69718 c 7.258,1.7664 13.7288,0.1007 19.6047,0 3.4689,-0.055 11.4956,3.0753 14.3695,3.9264 6.1689,1.8214 15.358,-0.4942 22.2224,1.3089 9.2807,2.4345 16.7034,8.1 26.1305,13.0606 9.2716,4.8875 23.1011,10.7909 24.8309,15.6875 -0.4302,0.4302 -0.8695,0.8695 -1.2997,1.3088 9.5461,-0.421 26.0665,23.156 37.8916,32.6655 13.3169,10.7176 12.2918,11.7427 23.5312,26.1396 2.5535,3.2766 8.5301,5.2444 10.4522,9.1526 -0.4393,1.2996 -0.8695,2.6084 -1.3088,3.9173 5.6654,0.1189 1.5193,2.7 5.2261,7.8437 2.3705,3.2858 6.3244,7.0749 9.1525,10.4522 0.8695,-0.4393 1.739,-0.8695 2.6085,-1.3088 q 0.659,5.8896 1.3088,11.761 c 7.8346,12.8685 17.9207,21.1424 18.2959,39.2095 -2.5444,2.6726 -3.3956,5.6288 -6.5349,7.8437 -3.24,2.6909 -38.2576,15.0468 -47.0441,11.7611 -15.6783,7.8895 -59.3634,11.1661 -74.4925,7.8437 -7.9261,-1.7481 -13.5275,1.1898 -16.9872,-2.6176 -0.8878,-0.3021 -2.8006,1.5284 -5.2261,1.3088 -7.6332,-0.6956 -14.4152,0.7596 -23.5312,-1.3088 -13.7745,-3.1394 -45.7352,-14.3787 -45.7352,-14.3787 -2.8922,0.7322 -9.2807,-6.9834 -11.7611,-6.5349 -5.7844,1.0434 -21.2705,-14.9919 -24.8308,-18.2959 -5.9034,-5.4733 -15.6875,-7.8346 -15.6875,-7.8346 -10.3698,-13.9302 -24.7851,-29.0685 -26.1305,-43.1268 -8.8871,-13.2804 -11.761,-55.5102 -10.4614,-67.9577 5.6929,-3.6976 6.6082,-8.0908 13.0699,-11.761 18.2502,-10.379 27.2288,-14.223 43.1268,-24.8308 4.1186,-2.755 12.3376,-0.3021 13.0698,0 8.8231,-4.979 21.7739,-0.778 26.1397,-5.2353 z"
         class="cls-3"
         data-name="Donker groen"
         id="Donker_groen" />
      <path
         style="fill:#6a9529;fill-rule:evenodd;stroke-width:0.91525459"
         inkscape:connector-curvature="0"
         d="m 727.1531,267.13698 c 20.32964,1.91746 48.41697,11.52123 66.64976,18.29594 l 22.21689,5.22793 c 43.93222,17.95547 74.79278,28.95958 105.85652,60.11576 4.59549,4.60922 11.98343,9.14431 15.68288,14.3759 v 5.22702 c 3.66102,8.55763 7.85472,14.63492 11.76194,24.83086 1.84149,4.806 6.89278,10.32865 9.15255,14.37499 l 2.61396,18.29685 c 1.28685,5.17485 7.47397,27.85211 3.92004,43.1268 -4.26143,18.31699 -8.7178,37.78445 -13.06801,54.88873 l -10.45495,6.534 c -3.90905,1.2539 -44.66442,-2.12979 -47.04409,-2.61396 -3.06518,-0.62329 -6.60722,-3.72875 -11.76193,-2.61397 -0.62238,1.6978 -15.51814,1.25848 -22.21689,-1.30607 -5.8979,-2.25885 -16.85899,-2.32749 -23.52205,-5.22793 -6.20176,-2.69909 -11.48553,-9.69529 -16.98895,-13.06892 -7.64238,-4.68428 -12.84835,-3.49994 -19.60292,-10.45496 -27.96012,-28.78475 -48.78308,-56.12341 -64.03671,-98.01553 -5.86861,-16.1158 -9.25322,-39.7733 -13.06892,-56.19663 v -15.68106 c -4.11864,-18.2996 -8.89261,-37.91533 -5.22702,-54.88873 2.57004,-1.41132 6.79943,-3.26563 9.1379,-5.22702 z M 606.91611,576.86555 c 25.01116,-0.19495 37.83937,17.39899 53.58175,27.4439 13.3856,8.54116 27.58211,13.29133 40.51283,22.21689 l 10.45495,11.76194 c 29.5435,22.37981 60.69602,56.84463 73.18467,95.40157 7.81536,24.12519 5.05221,81.79447 -3.92003,101.93556 -3.28027,7.36414 -10.98855,14.69533 -15.68289,20.91082 -6.92848,9.17269 -10.55289,24.62035 -22.21689,28.7509 -5.77709,4.44173 -18.7078,2.37966 -26.13693,0 -22.26448,-7.12892 -42.69937,-14.85459 -60.11666,-26.13784 -24.56086,-15.91079 -49.35602,-34.65063 -61.42274,-62.72972 -26.26781,-61.11796 -8.0396,-154.44098 5.22793,-214.32701 a 32.65903,32.65903 0 0 0 6.53401,-5.22701 z m 724.01219,304.50063 c -7.6333,1.0681 -13.4085,5.66451 -19.6048,7.84098 l -18.2959,1.30699 c -17.3166,4.82156 -38.4499,10.71671 -57.5055,6.53491 -22.2864,-35.22174 -47.4559,-81.4485 -30.0569,-133.30134 2.3705,-7.0621 0.9518,-12.51153 3.9264,-19.60292 1.3912,-3.33336 5.9949,-8.67021 7.8346,-11.76194 4.5763,-7.68814 4.4664,-16.23204 9.1525,-23.52204 6.2512,-9.72733 18.2044,-18.40669 20.9044,-31.36486 h 3.9265 c 8.5393,-26.1415 70.5844,-63.28345 95.397,-77.10471 8.1274,-4.52227 34.322,-24.25974 41.8271,-7.8419 q 3.9127,26.7895 7.8346,53.58175 c 13.1156,53.02619 12.4658,104.43512 -5.2261,151.59728 -3.6244,9.66783 -3.9997,20.42574 -9.1434,28.75089 -5.4183,8.75441 -14.8363,15.55933 -20.9136,23.52205 -2.1417,2.80891 -2.7549,6.7381 -5.2261,9.15254 -7.2946,7.09597 -22.2956,10.79451 -24.8308,22.21232 z m 48.3529,117.61845 a 90.21024,90.21024 0 0 1 18.2959,1.30697 c 14.2322,28.1294 2.8281,95.9681 -6.5349,118.9227 -7.1665,17.5912 -9.5187,34.8804 -16.9871,52.2793 -3.1485,7.3312 -10.26,13.134 -14.3787,19.6048 -23.8515,37.4705 -44.2617,51.0254 -87.5624,69.2573 -19.0556,8.036 -42.3488,21.1332 -70.5661,15.6875 -7.2122,-11.5231 -8.3838,-25.0414 -13.0699,-40.5183 -4.1003,-13.5458 -7.6423,-37.6353 -3.9173,-54.8879 v -20.9044 c 2.6268,-10.7634 5.9309,-23.3939 10.4523,-33.9834 11.1752,-26.1763 37.1684,-47.6939 58.8051,-64.0312 10.9464,-8.2647 18.5613,-20.639 31.3657,-27.4485 5.8028,-3.0844 11.8892,-2.6085 18.296,-5.2261 15.3763,-6.2786 33.0956,-14.1324 47.0532,-22.2178 8.2922,-4.8042 21.0509,-2.4474 28.7482,-7.84097 z"
         class="cls-4"
         data-name="Licht groen"
         id="Licht_groen" />
      <path
         style="fill-rule:evenodd;stroke-width:0.91525459"
         inkscape:connector-curvature="0"
         d="m 1299.5625,414.81331 c 0.6132,21.41696 -12.7404,47.39371 -19.6048,64.0367 -6.0315,14.62669 -7.4684,28.20998 -13.0698,43.1268 -10.2692,27.34964 -20.9319,57.80382 -31.3658,84.94661 -16.9596,44.13358 -26.3227,87.8196 -43.1268,131.99436 -9.0701,23.85886 -20.9135,50.46531 -27.4393,75.79772 q -2.6222,47.69667 -5.2261,95.40248 c -5.5922,25.02123 0.6132,54.81643 -5.2261,81.02566 -2.3339,10.46776 -5.336,32.61876 -2.6176,41.81706 24.1901,-11.2393 44.2891,-33.17156 65.34,-48.35106 44.4814,-32.07052 87.9285,-64.97392 131.998,-96.70855 13.7197,-9.87925 27.0915,-20.75889 40.5092,-30.05879 10.9098,-7.56 23.5952,-8.42492 23.5312,-27.44391 5.5739,-9.32187 1.1257,-33.15784 3.9173,-45.74076 6.8552,-30.89259 3.5328,-68.91867 10.4522,-100.62858 3.6976,-16.94594 0.4393,-29.85469 6.5349,-43.1268 h 2.6176 c 6.599,10.4577 15.1292,19.75852 32.6654,19.60292 4.0729,-3.38644 20.1631,-10.56204 23.5312,-9.15254 1.7482,2.60298 1.437,8.50363 1.2997,13.06892 -5.4458,8.9942 -1.1807,32.20872 -3.9173,44.43286 -8.0268,35.86883 -3.7617,79.79922 -11.761,116.31147 -3.3041,15.06875 1.0891,32.36615 -5.2261,44.43378 -13.1339,25.09994 -65.4499,56.52796 -90.18,73.18468 -11.6787,7.87119 -22.5519,19.18831 -33.9743,27.44482 -46.321,33.49284 -91.4156,67.01034 -138.5329,99.31884 -21.6916,14.8821 -41.1224,36.5095 -65.3401,48.3621 q -1.3042,25.4807 -2.6176,50.9613 c -0.9976,5.0156 -5.2352,25.7279 -3.9173,30.057 3.4688,11.3949 11.0654,25.5905 15.6875,36.5919 3.9173,9.3539 4.1095,16.4929 7.8346,26.1397 10.5803,27.4027 23.3298,57.5237 33.9834,84.9447 7.8437,20.2089 14.3878,39.9509 22.2132,58.8143 2.9654,7.139 1.2264,13.6281 7.8437,16.9871 2.5078,-9.7932 9.6651,-17.2342 14.3787,-24.8308 8.9237,-14.4061 16.2274,-29.4895 24.8308,-43.1268 13.9485,-22.1217 21.9387,-46.4309 36.5919,-67.9577 2.4254,-3.5695 6.9651,-5.1529 10.4522,-7.8437 l 6.5349,-9.1434 c 10.3882,-8.2282 19.6689,-16.5936 30.057,-24.8309 q 1.9632,-3.2674 3.9173,-6.5349 c 5.6197,-5.94 13.0607,-10.6536 19.6047,-15.6783 2.3889,-1.8397 2.9929,-5.9492 5.2261,-7.8437 31.4757,-26.6248 60.0591,-55.6475 91.4797,-82.3363 l 6.535,-9.1434 c 18.9549,-14.4153 36.6285,-33.297 50.9705,-52.2794 q 16.9825,-16.9825 33.9834,-33.9742 c 11.5688,-15.2939 25.5814,-31.159 40.5092,-43.12957 3.9356,-3.15488 32.6379,-35.61621 33.9742,-39.20676 3.1027,-8.32881 1.382,-13.95397 3.9265,-22.21689 5.3908,-17.51797 11.6603,-38.63015 16.9871,-56.19663 3.9722,-13.10919 3.3864,-26.85357 10.4522,-36.59279 12.0722,-16.61371 47.941,-14.64408 54.8878,5.22793 4.0912,5.11078 5.3817,18.30509 2.6176,26.13693 -8.9695,25.38641 -14.5159,55.70056 -23.522,81.02657 -4.0729,11.45807 -2.4529,23.61357 -7.8437,33.97791 -4.8875,9.41431 -14.8912,17.5042 -22.2133,24.8309 -10.6352,10.6361 -18.2684,23.0927 -30.0569,32.6745 -6.4709,5.2536 -11.88,14.1865 -16.9963,20.9045 -6.0498,7.9627 -14.5983,13.8844 -20.9044,22.2223 -16.3556,21.6275 -39.6122,38.1936 -56.1967,60.114 -11.0837,14.644 -49.5061,38.6329 -54.8878,53.579 12.6214,1.4552 27.0275,7.7522 37.9007,11.761 20.9594,7.7247 43.8956,11.6237 64.0312,18.2959 12.8044,4.2468 30.6519,4.4939 39.2095,13.0699 7.7339,7.7522 11.2394,30.6244 3.9173,41.818 -11.5505,17.6827 -36.6193,15.3671 -57.4963,7.8437 -29.4346,-10.5987 -61.02,-14.9736 -91.4888,-26.1397 -15.7515,-5.7661 -35.3105,-13.9302 -53.579,-15.6783 -6.7454,9.7841 -17.9756,17.6187 -27.4394,24.8309 l -6.5349,9.1434 c -12.0722,10.2325 -23.1193,20.0166 -33.9834,31.3657 -3.7068,3.8807 -10.0129,5.9766 -13.0698,10.4614 -4.8417,7.1115 -5.9766,14.7539 -10.4522,22.2132 -12.4841,20.7854 -27.8604,42.7241 -39.2095,64.0404 -6.7638,12.7037 -10.9282,24.3183 -18.296,36.5919 -8.2556,13.7379 -15.9345,28.7115 -24.8308,43.1268 -2.2241,3.6061 -6.4892,7.02 -7.8346,11.761 q 0.6453,54.8741 1.2997,109.7756 1.9632,118.9053 3.9264,237.8472 c 0.9793,31.8967 -2.5536,68.3238 1.3088,91.4797 4.5214,27.1831 -3.3041,62.1184 1.2997,83.6451 3.4139,15.9163 -5.0614,61.5875 1.3088,71.875 0.9885,-7.5417 5.2993,-10.5529 7.8437,-15.6783 q 2.6085,-11.1066 5.2261,-22.2224 c 1.6475,-3.6885 6.3977,-7.7614 7.8438,-11.761 12.2461,-33.9011 14.1864,-62.1092 43.1268,-79.7187 13.1888,-8.0268 40.6464,-10.9739 57.4963,-3.9173 52.7278,22.0576 110.8281,43.5387 164.6726,64.0312 9.5552,3.6427 20.099,-0.4027 30.0569,1.3088 42.7882,7.3495 117.2533,-20.4559 129.3804,28.7482 1.9953,8.1 -1.7756,15.422 -3.9264,19.6047 -14.4611,28.2082 -47.5292,20.1906 -86.2536,20.9136 -25.9475,0.4851 -58.5489,4.9881 -83.636,-2.6176 -31.6037,-9.5736 -64.9922,-31.0638 -99.3234,-36.5919 -3.4322,16.7217 -12.8593,34.0475 -18.296,48.3529 q -0.6452,5.8897 -1.3088,11.761 c -1.9495,6.2878 -6.8278,13.2071 -9.1434,18.3051 q -1.3042,8.4844 -2.6176,16.9871 c -1.6383,4.8783 -6.1505,9.9214 -7.8346,14.3695 q -0.659,5.8897 -1.3088,11.7702 c -2.9929,9.6651 -8.823,16.0261 -10.4613,27.4393 h 1.3088 c 7.6698,-9.6925 25.8834,-18.7901 36.5918,-26.1396 6.4434,-4.4116 11.9807,-12.5939 18.296,-16.9872 19.7054,-13.7105 37.6261,-27.0366 57.5054,-40.5091 10.7085,-7.258 23.0461,-28.6475 44.4356,-23.5312 28.4279,6.8186 30.7892,19.7878 47.0441,36.601 26.2038,27.0824 53.0299,54.5217 75.8014,84.9448 8.7956,11.7519 22.6343,20.8678 31.3658,32.6654 4.0546,5.4824 7.0383,12.118 11.761,16.9963 2.9746,3.0661 7.8346,4.3749 10.4522,7.8346 7.139,9.4546 13.9027,20.3552 22.2132,28.7573 2.5994,2.6176 6.9651,3.4871 9.1526,6.5349 5.6837,7.8895 9.8024,26.341 3.9173,37.8915 -7.2946,14.3421 -32.5465,26.6889 -50.9614,14.3787 -4.8417,-3.2309 -17.2159,-17.3166 -20.9136,-22.2132 -28.5376,-37.8275 -64.0495,-69.6784 -94.0973,-105.8584 -4.9424,-5.9491 -8.4478,-12.1729 -13.0698,-18.2959 l -22.2133,-22.2133 c -4.3291,-5.7386 -9.1433,-15.065 -15.6783,-18.2959 v -1.3088 c -0.4393,0.4302 -0.8786,0.8695 -1.3088,1.3088 -15.0651,9.5004 -27.7596,22.5061 -41.818,32.6654 -46.7512,33.8004 -90.7017,69.477 -138.5329,101.9411 -11.2942,7.6607 -21.2247,19.7787 -32.6746,27.4393 -20.8495,13.9577 -71.5088,11.1204 -91.4797,-1.3088 -13.1064,-8.1549 -26.8352,-25.5356 -31.3658,-41.818 V 2232.66 c -2.7091,-12.9326 -1.3088,-35.1733 -1.2996,-53.579 q -0.659,-37.8916 -1.3088,-75.8014 v -50.9614 q -3.2675,-189.4852 -6.535,-378.9978 -0.6589,-76.442 -1.3088,-152.9024 c -0.8512,-2.6542 -4.3657,-7.1024 -5.2261,-10.4522 v -14.3787 c -9.6468,-30.6518 -24.2451,-63.4637 -36.5918,-92.7885 -14.516,-34.4502 -23.0919,-68.1498 -36.5919,-103.2407 -9.6468,-25.078 -23.4031,-50.879 -30.057,-78.4099 -50.458,-5.0156 -99.52752,-19.3393 -150.29303,-22.2223 -11.76743,18.3051 -33.6951,29.0776 -47.04409,45.7444 -6.56695,8.1915 -14.60289,19.3393 -24.83086,23.522 -27.4137,11.221 -47.17679,-13.1156 -47.04408,-39.2095 5.81919,-4.1735 7.50509,-12.6763 13.06892,-16.9871 14.65414,-11.3309 26.24401,-24.9407 39.20584,-37.9007 6.9413,-6.9376 15.39642,-12.5573 20.90991,-20.9044 -8.65099,-6.3976 -12.15824,-18.3966 -18.29594,-27.4485 -10.02387,-14.7722 -22.69831,-29.6359 -32.67459,-44.4356 -0.87132,-2.6085 -1.73898,-5.2261 -2.61397,-7.8346 -27.10068,-40.2986 -55.03151,-80.52867 -82.33264,-121.54122 -12.31658,-18.50188 -25.05143,-37.2408 -37.89978,-56.19664 -3.47796,-5.12542 -8.16864,-8.71414 -10.45495,-15.68289 h 5.22793 c 11.66035,8.25194 28.901,7.05845 41.81982,3.92096 3.69946,-6.75184 9.55617,-19.25147 18.29594,-20.90991 10.31766,21.1973 27.54916,39.78154 40.51283,58.80877 20.12187,29.52703 37.53276,59.18219 57.5027,88.87123 10.82105,16.0819 24.48489,32.1996 35.28581,48.3538 11.88,17.7743 23.64011,35.1275 35.28489,52.2793 4.85085,7.139 8.56679,20.2638 15.68289,24.8309 9.5818,6.1414 34.0191,3.3864 47.04409,6.5258 22.33226,5.4 58.39326,12.6488 82.33446,13.0698 -0.1556,-22.9088 1.5743,-46.9526 5.2261,-67.9576 3.0844,-17.7011 -0.3935,-43.7401 3.9173,-62.7224 q 1.318,-31.36765 2.6176,-62.73343 c 3.9814,-18.09458 7.3038,-56.75402 5.2261,-73.18558 -2.2606,-17.90605 10.2234,-58.92959 3.9173,-73.18468 -1.739,-3.93559 -6.8644,-6.88912 -9.1434,-10.45495 -11.8525,-18.56136 -24.84,-35.79652 -36.5918,-53.58175 -31.9607,-48.35565 -62.31607,-96.27106 -95.40252,-143.75538 -11.90838,-17.09055 -23.31611,-34.46666 -35.28581,-52.27477 -5.4659,-8.13295 -15.01933,-14.53424 -16.98896,-26.13784 16.6915,0.2279 37.48425,7.25065 45.74076,-5.22702 q 3.26563,-11.76193 6.53401,-23.52204 c 1.40217,-0.98207 1.23559,-0.7862 3.92095,-1.30698 11.00593,24.0657 30.7617,45.65015 45.73987,66.65067 23.7847,33.35004 43.7491,67.87162 66.6552,101.93556 14.9278,22.20591 34.9536,43.33456 47.0441,67.95766 h 2.6085 c 1.0251,-9.36214 6.1322,-17.36604 9.1525,-24.83086 3.5604,-8.80841 3.1851,-15.91719 6.5349,-24.83086 4.5214,-12.02553 11.1295,-27.24438 15.6784,-39.20584 20.9044,-54.93084 34.679,-111.39564 56.1966,-164.66529 7.0383,-17.42462 12.1729,-35.73703 18.2959,-52.27568 3.1668,-8.53292 2.8556,-24.91049 11.7611,-27.44391 5.5372,8.69492 15.5044,19.9974 28.7573,20.9099 6.2685,-4.86549 19.3109,-8.42858 28.7472,-9.14522 z M 796.41683,1546.565 c 15.37627,-0.238 36.58455,0.6956 45.74076,7.8437 20.34153,15.8705 47.41019,54.2746 31.36486,92.7885 -8.88529,21.3255 -30.77635,39.8411 -54.88873,45.7353 -21.32544,5.217 -37.6792,-5.7478 -48.35382,-11.761 -28.27313,-15.9255 -50.99524,-51.6936 -33.97883,-95.397 5.07234,-13.0332 28.60812,-30.5787 41.81982,-35.2922 6.59807,-2.3522 13.1577,-0.6041 18.29594,-3.9173 z m -226.08894,10.4522 c 29.68994,0.183 46.29358,31.0271 60.11667,48.3529 1.69139,2.1234 5.92993,1.9952 7.84098,3.9264 1.62183,1.6292 1.1999,4.6312 2.61397,6.535 2.22773,2.9928 6.59899,3.8898 9.15255,6.5349 1.62732,1.684 1.18251,4.5945 2.61396,6.5349 8.52194,11.5047 27.99673,24.0803 35.2849,35.2831 v 3.9172 l 6.53492,3.9265 c 2.76224,2.6908 2.65424,6.059 5.22702,9.1434 3.36356,4.0179 13.40298,10.0861 16.98987,14.3786 7.71834,9.2258 15.01841,17.7926 22.21689,27.4394 l 9.15254,6.5349 c 4.70899,5.9857 7.64787,13.262 14.37499,16.9871 2.0456,0.659 28.55595,-6.1047 36.5928,-7.8346 16.55512,-3.5603 42.8092,11.6604 50.96778,9.1434 3.69031,-1.1349 23.03787,-26.9176 27.44482,-31.3658 31.6248,-31.9057 62.84047,-64.443 94.09458,-96.7058 4.74011,-4.8966 8.9338,-12.5939 13.06892,-18.2959 4.25777,-5.8759 16.49385,-12.301 20.90995,-18.2959 5.4558,-7.4044 11.2375,-19.5041 22.215,-20.9136 7.0932,-6.5532 21.7922,-0.5217 28.7482,1.3088 4.0362,5.9126 8.5942,7.0932 9.1525,16.9871 2.5261,4.0729 1.8854,16.2824 0,20.9136 -4.2102,10.3424 -28.1166,26.7437 -35.2831,36.5919 -10.6114,14.58 -24.0107,26.3227 -35.28759,40.5092 q -5.88143,4.5854 -11.76194,9.1525 v 3.9173 c -4.93048,6.9376 -15.70485,11.4224 -20.90991,18.2959 -10.16664,13.436 -21.50848,25.3709 -32.67458,37.9007 -9.00245,10.1136 -39.35138,32.9034 -40.51375,47.0533 -4.41336,7.1023 -0.56837,19.3393 -2.61305,28.7481 -2.42268,11.1387 -2.13621,27.4576 -3.92095,39.2095 v 26.1305 c -2.57004,11.9533 -3.76536,33.3153 -1.30699,44.4356 5.07143,22.9363 -8.85325,43.8316 0,64.0404 6.82506,15.5685 21.09479,30.4139 30.05788,44.4265 11.76102,18.3966 22.03384,36.1983 33.97883,53.5881 q 1.96047,5.217 3.92095,10.4522 c 2.60481,3.4688 8.55214,7.917 10.45495,11.7611 7.74672,15.6417 1.29966,42.4403 -3.92095,57.5054 -15.72773,45.3783 -24.05655,100.9251 -44.43378,142.4502 -8.67936,1.8214 -19.82441,11.2851 -30.05788,3.9173 -6.14502,-1.7024 -12.36966,-5.7386 -14.37499,-11.761 -8.80017,-10.8915 -1.3262,-35.4936 2.61306,-47.0441 7.84922,-23.0278 12.29187,-46.7512 19.60292,-71.8841 4.32,-14.8454 11.92577,-28.6658 13.06892,-47.0441 -13.76451,-14.4061 -25.86235,-32.5281 -36.59188,-49.6617 q -4.57627,-3.9264 -9.15254,-7.8437 c -17.85662,-24.4648 -38.4526,-46.7512 -54.88874,-71.875 h -2.61854 c -1.25665,2.3065 -1.64288,2.1966 -2.61397,5.2261 -8.7178,13.0333 -7.95722,30.2034 -14.37499,45.7445 -9.15895,22.1674 -20.46051,46.7146 -30.05879,69.2573 -5.8677,13.7929 -5.7661,27.2654 -16.98896,35.2922 -12.31566,8.7956 -102.01427,8.9878 -122.84638,6.5349 -24.8034,-2.9288 -62.6501,10.4156 -75.79773,-6.5349 -14.32007,-16.4471 -5.20963,-41.1773 11.76102,-48.3621 q 75.13783,-1.9495 150.2903,-3.9172 c 0.43566,-0.4302 0.87132,-0.8695 1.30698,-1.3089 0.21509,-12.5023 6.74177,-19.7695 10.45496,-28.7481 q 0.65349,-5.2307 1.30698,-10.4522 c 2.5801,-7.3495 7.88766,-17.097 10.45495,-24.8309 q 0.6535,-7.1939 1.30699,-14.3786 c 5.54644,-21.1058 10.46044,-41.6716 6.534,-69.2665 -1.61085,-11.3125 1.58522,-29.16 -1.30607,-41.818 -3.06976,-13.4451 1.39851,-31.2834 -1.30698,-43.1268 v -20.9044 c -0.0384,-16.7125 1.35274,-36.2807 -2.61397,-53.5881 -1.5962,-6.9651 1.8241,-15.6601 -1.30698,-20.9045 -4.52044,-7.5783 -15.53736,-12.6122 -20.90991,-19.6047 -11.61641,-15.12 -24.08767,-27.6499 -37.89886,-40.5183 q -0.65349,-2.6085 -1.30699,-5.2261 c -2.26708,-3.0753 -6.33081,-3.9539 -9.15254,-6.535 -1.57882,-1.4461 -0.0275,-3.2583 -1.30699,-5.2261 l -11.76193,-9.1434 v -3.9264 l -9.15255,-6.5349 c -2.03369,-1.9587 -0.83471,-4.0454 -2.61397,-6.5349 -1.30698,-0.4302 -2.61396,-0.8695 -3.92095,-1.2997 -5.18857,-4.2559 -15.55932,-15.5685 -19.60292,-20.9136 -13.32061,-17.6003 -31.38591,-31.1003 -44.43378,-48.3529 -4.81698,-6.3701 -8.84685,-13.8752 -14.37499,-19.6047 -0.58759,-30.0295 7.58746,-25.9475 23.53486,-37.9007 z m 848.16641,218.2516 c 55.4828,-0.2105 103.854,44.8566 78.4099,105.8584 -10.7268,25.7095 -31.3017,40.3535 -61.4227,47.044 -12.356,2.7458 -28.1899,-2.3247 -36.5919,-5.2261 -38.0197,-13.143 -68.5709,-53.9176 -47.0441,-104.5495 7.0749,-16.6668 23.1651,-30.1485 40.5092,-36.5919 7.9316,-2.9562 18.9238,-2.1234 26.136,-6.5349 z"
         class="cls-5"
         id="Zwart" />
    </g>
  </g>
</svg>
