<?xml version="1.0" encoding="UTF-8" standalone="no"?>
<svg
   id="Nederlands_verkeersbord_A1"
   width="300"
   height="300"
   viewBox="0 0 100 100"
   version="1.1"
   sodipodi:docname="Nederlands_verkeersbord_A1-30.svg"
   inkscape:version="1.2.2 (b0a8486541, 2022-12-01)"
   xmlns:inkscape="http://www.inkscape.org/namespaces/inkscape"
   xmlns:sodipodi="http://sodipodi.sourceforge.net/DTD/sodipodi-0.dtd"
   xmlns="http://www.w3.org/2000/svg"
   xmlns:svg="http://www.w3.org/2000/svg">
  <defs
     id="defs9" />
  <sodipodi:namedview
     id="namedview7"
     pagecolor="#505050"
     bordercolor="#eeeeee"
     borderopacity="1"
     inkscape:showpageshadow="0"
     inkscape:pageopacity="0"
     inkscape:pagecheckerboard="0"
     inkscape:deskcolor="#505050"
     showgrid="false"
     inkscape:zoom="3.6184615"
     inkscape:cx="65.77381"
     inkscape:cy="144.81293"
     inkscape:window-width="2256"
     inkscape:window-height="1435"
     inkscape:window-x="0"
     inkscape:window-y="0"
     inkscape:window-maximized="1"
     inkscape:current-layer="Nederlands_verkeersbord_A1" />
  <circle
     id="witte cirkel met rode rand"
     cx="50"
     cy="50"
     r="43.5"
     fill="#f7fbf5"
     stroke="#c1121c"
     stroke-width="13" />
  <g
     aria-label="30"
     id="text169"
     style="font-weight:bold;font-size:48px;-inkscape-font-specification:'sans-serif Bold';letter-spacing:-4px;fill:#2a2d2f;stroke-width:0.333333">
    <path
       d="m 27.355469,41.246094 -4.523438,-4.3125 q 0.46875,-0.585938 1.476563,-1.382813 1.007812,-0.796875 2.132812,-1.453125 3.914063,-2.15625 8.203125,-2.15625 3.375,0 5.71875,0.84375 2.34375,0.84375 4.03125,2.648438 2.789063,2.929687 2.789063,6.1875 0,1.804687 -0.398438,3.234375 -0.398437,1.40625 -0.867187,2.273437 -0.445313,0.867188 -0.703125,1.125 0.445312,0.328125 1.242187,1.289063 0.796875,0.9375 1.523438,2.695312 0.726562,1.757813 0.726562,4.125 0,4.359375 -3.890625,7.6875 -4.171875,3.46875 -10.171875,3.539063 -6.28125,-0.07031 -10.757812,-3.75 -1.992188,-1.664063 -3.585938,-4.59375 l 5.460938,-3.304688 q 0.304687,0.703125 1.476562,1.945313 1.195313,1.242187 3.140625,2.25 1.96875,0.984375 4.265625,0.984375 1.078125,0 2.015625,-0.1875 0.960938,-0.1875 1.757813,-0.539063 0.796875,-0.351562 1.664062,-0.914062 0.960938,-0.632813 1.476563,-1.523438 0.539062,-0.890625 0.539062,-1.828125 0,-3.5625 -3.75,-4.382812 -0.890625,-0.1875 -1.734375,-0.28125 -0.820312,-0.09375 -1.3125,-0.117188 -0.492187,-0.02344 -0.65625,-0.02344 v -5.859375 q 1.96875,0 2.929688,-0.04687 1.242187,-0.117188 1.898437,-0.46875 0.679688,-0.375 0.9375,-1.125 0.28125,-0.773438 0.28125,-2.109375 0,-0.585938 -0.632812,-1.453125 -0.609375,-0.867188 -1.96875,-1.523438 -1.359375,-0.65625 -3.445313,-0.65625 -2.742187,0 -4.664062,1.148438 -1.921875,1.148437 -2.625,2.015625 z"
       style="font-family:'Anwb Eex VL';-inkscape-font-specification:'Anwb Eex VL Bold'"
       id="path2339" />
    <path
       d="m 50.472656,49.871094 q 0,-8.390625 4.40625,-13.289063 4.078125,-4.5 10.171875,-4.5 6.117188,0 10.171875,4.5 1.054688,1.125 1.921875,2.648438 0.867188,1.523437 1.429688,3.140625 0.5625,1.617187 0.84375,3.515625 0.28125,1.875 0.28125,3.984375 0,8.460937 -4.382813,13.40625 -1.054687,1.125 -2.25,1.96875 -1.171875,0.84375 -2.414062,1.382812 -1.242188,0.515625 -2.695313,0.773438 -1.429687,0.28125 -2.90625,0.28125 -6.117187,0 -10.171875,-4.40625 -4.40625,-4.96875 -4.40625,-13.40625 z m 22.992188,0.07031 q 0,-2.085937 -0.328125,-3.726562 -0.304688,-1.664063 -0.9375,-2.953125 -0.632813,-1.3125 -1.617188,-2.34375 -2.273437,-2.414063 -5.53125,-2.414063 -1.6875,0 -2.976562,0.585938 -1.289063,0.5625 -2.53125,1.828125 -2.835938,3.046875 -2.835938,9.023437 0,5.976563 2.882813,9.023438 2.203125,2.34375 5.507812,2.34375 1.640625,0 2.976563,-0.5625 1.359375,-0.585938 2.554687,-1.78125 2.835938,-3.070313 2.835938,-9.023438 z"
       style="font-family:'Anwb Eex VL';-inkscape-font-specification:'Anwb Eex VL Bold'"
       id="path2341" />
  </g>
</svg>
