<?xml version="1.0" encoding="UTF-8" standalone="no"?>
<svg id="Nederlands_verkeersbord_C1" width="240" height="300" viewBox="0 0 240 300" version="1.1" sodipodi:docname="Nederlands_verkeersbord_A1_30zone.svg" inkscape:version="1.1 (c68e22c387, 2021-05-23)" xmlns:inkscape="http://www.inkscape.org/namespaces/inkscape" xmlns:sodipodi="http://sodipodi.sourceforge.net/DTD/sodipodi-0.dtd" xmlns="http://www.w3.org/2000/svg" xmlns:svg="http://www.w3.org/2000/svg">
  <defs id="defs42"/>
  <sodipodi:namedview id="namedview40" pagecolor="#ffffff" bordercolor="#666666" borderopacity="1.0" inkscape:pageshadow="2" inkscape:pageopacity="0.0" inkscape:pagecheckerboard="0" showgrid="false" inkscape:zoom="1.7333333" inkscape:cx="107.01923" inkscape:cy="133.55769" inkscape:window-width="1366" inkscape:window-height="705" inkscape:window-x="-8" inkscape:window-y="-8" inkscape:window-maximized="1" inkscape:current-layer="layer1"/>
  <path id="wit_vlak" style="fill:#f7fbf5;stroke:none" d="M 0.24756664,299.75244 L 239.7525,299.75244 L 239.7525,0.24756664 L 0.24756664,0.24756664 L 0.24756664,299.75244 z M 239.7525,299.75244 L 239.7525,299.75244 z "/>
  <path id="zwarte_rand" style="fill:none;stroke:#2a2d2f;stroke-width:0.49513328" d="M 0.24756664,299.75244 L 239.7525,299.75244 L 239.7525,0.24756664 L 0.24756664,0.24756664 L 0.24756664,299.75244 z M 239.7525,299.75244 L 239.7525,299.75244 z "/>
  <path id="zwarte_bies" style="fill:none;stroke:#2a2d2f;stroke-width:4.95133305" d="M 210.5602,291.86796 C 221.31649,291.86796 230.01308,284.81341 230.01308,276.10711 L 230.01308,23.901037 C 230.01308,15.186607 221.31649,8.1320466 210.5602,8.1320466 L 29.442379,8.1320466 C 18.686924,8.1320466 9.9576883,15.186607 9.9576883,23.901037 L 9.9576883,276.10711 C 9.9576883,284.81341 18.686924,291.86796 29.442379,291.86796 L 210.5602,291.86796 z "/>
  <g id="tekst_ZONE" style="fill:#8f9695;fill-opacity:1">
    <path id="letter_Z_zwart" style="fill:#8f9695;fill-opacity:1;stroke:none" d="m 98.391618,43.510567 h -14.87485 v -3.40116 l 9.839848,-12.45734 h -9.578724 v -3.4337 h 14.548446 v 3.17332 l -9.938607,12.71772 h 10.003887 z"/>
    <path id="letter_Z_contour" style="fill:#2a2d2f;fill-opacity:1;stroke:#f7fbf5;stroke-width:0.107279" d="m 98.391618,43.510567 h -14.87485 v -3.40116 l 9.839848,-12.45734 h -9.578724 v -3.4337 h 14.548446 v 3.17332 l -9.938607,12.71772 h 10.003887 z"/>
    <path id="letter_O_zwart" style="fill:#8f9695;fill-opacity:1;stroke:none" d="m 118.07298,33.689517 c 0.39169,13.44188 -16.77134,13.37679 -16.57549,0.0651 0.0653,-13.25473 16.80398,-12.55497 16.57549,-0.0651 z m -3.76034,-1.04963 c -0.68629,-7.21728 -10.23237,-6.8023 -8.99037,2.76649 0.58837,6.8023 10.20058,6.67211 8.99037,-2.76649 z"/>
    <path id="letter_O_contour" style="fill:#2a2d2f;fill-opacity:1;stroke:#f7fbf5;stroke-width:0.107279" d="m 118.07298,33.689517 c 0.39169,13.44188 -16.77134,13.37679 -16.57549,0.0651 0.0653,-13.25473 16.80398,-12.55497 16.57549,-0.0651 z m -3.76034,-1.04963 c -0.68629,-7.21728 -10.23237,-6.8023 -8.99037,2.76649 0.58837,6.8023 10.20058,6.67211 8.99037,-2.76649 z"/>
    <path id="letter_N_zwart" style="fill:#8f9695;fill-opacity:1;stroke:none" d="m 138.30925,24.405517 v 19.17014 h -3.66159 l -8.46728,-12.17256 v 12.17256 h -3.75951 v -19.17014 h 3.39962 l 8.82717,12.45733 v -12.45733 z"/>
    <path id="letter_N_contour" style="fill:#2a2d2f;fill-opacity:1;stroke:#f7fbf5;stroke-width:0.107279" d="m 138.30925,24.405517 v 19.17014 h -3.66159 l -8.46728,-12.17256 v 12.17256 h -3.75951 v -19.17014 h 3.39962 l 8.82717,12.45733 v -12.45733 z"/>
    <path id="letter_E_zwart" style="fill:#8f9695;fill-opacity:1;stroke:none" d="m 156.45401,24.307887 v 3.24654 h -9.44816 v 4.35316 h 5.72128 v 3.11636 h -5.72128 v 5.53298 h 9.41551 v 3.20587 h -12.61931 v -19.45491 z"/>
    <path id="letter_E_contour" style="fill:#2a2d2f;fill-opacity:1;stroke:#f7fbf5;stroke-width:0.107279" d="m 156.45401,24.307887 v 3.24654 h -9.44816 v 4.35316 h 5.72128 v 3.11636 h -5.72128 v 5.53298 h 9.41551 v 3.20587 h -12.61931 v -19.45491 z"/>
  </g>
  <path id="path36" style="fill:none;stroke:#2a2d2f;stroke-width:4.95718098;stroke-opacity:1" d="M 210.67168,292.01651 C 221.43954,292.01651 230.14601,284.95399 230.14601,276.2297 L 230.14601,23.738624 C 230.14601,15.022484 221.43954,7.9599636 210.67168,7.9599636 L 29.293888,7.9599636 C 18.559544,7.9599636 9.8195456,15.022484 9.8195456,23.738624 L 9.8195456,276.2297 C 9.8195456,284.95399 18.559544,292.01651 29.293888,292.01651 L 210.67168,292.01651 z "/>
  <g inkscape:groupmode="layer" id="layer1" inkscape:label="Layer 1">
    <circle id="blauwe_cirkel" cx="120.6" cy="150.60001" r="85" fill="#0e518d" style="display:inline;fill:#c1121c;fill-opacity:1;stroke-width:0.566667"/>
    <path inkscape:connector-curvature="0" id="path3944" d="m 120.59998,213.50005 c 34.73873,0 62.90002,-28.1613 62.90002,-62.90002 0,-34.73869 -28.16129,-62.900016 -62.90002,-62.900016 -34.73866,0 -62.89998,28.161326 -62.89998,62.900016 0,34.73872 28.16132,62.90002 62.89998,62.90002 z" style="display:inline;fill:#f7fbf5;fill-opacity:1;stroke:none" sodipodi:nodetypes="sssss"/>
    <path d="m 146.47956,120.99635 c -6.62893,-0.0295 -12.95965,2.75602 -17.41601,7.66338 -5.42903,6.29103 -8.39901,14.33241 -8.36098,22.64114 -0.0381,8.30819 2.93195,16.35106 8.36098,22.64212 4.45636,4.90732 10.78708,7.69215 17.41601,7.6624 6.62961,0.03 12.96002,-2.75508 17.41703,-7.6624 5.42897,-6.29106 8.39848,-14.33393 8.35946,-22.64212 0.0386,-8.30873 -2.93049,-16.35011 -8.35946,-22.64114 -4.45701,-4.90736 -10.78742,-7.69313 -17.41703,-7.66338 z m -56.968743,0.009 c -6.793651,0.0176 -13.351411,2.492 -18.462135,6.96681 l 6.966802,7.66389 c 4.038593,-3.43829 9.424516,-4.8483 14.629204,-3.83146 2.477965,0.4903 4.630165,2.00952 5.921685,4.179 0.640222,1.56247 0.640222,3.31508 0,4.87756 -0.94192,2.21555 -3.167837,3.60701 -5.572646,3.48291 H 83.93717 v 10.10166 h 9.753139 c 3.123104,-0.0853 5.998064,1.69481 7.315341,4.52853 0.85532,2.00239 0.85532,4.26747 0,6.26923 -1.51633,2.76428 -4.208824,4.68809 -7.315341,5.2251 -2.876687,0.54926 -5.831326,0.54926 -8.708013,0 -3.192553,-0.80245 -6.090194,-2.49333 -8.360471,-4.87606 l -8.01143,6.96631 c 3.595598,4.24687 8.494209,7.18587 13.93361,8.35997 4.366062,0.90383 8.870979,0.90383 13.237041,0 5.789694,-1.40823 10.793074,-5.03592 13.932124,-10.10118 2.01157,-3.85363 2.62687,-8.28499 1.7427,-12.54044 -0.60398,-3.64409 -2.4504,-6.96721 -5.2251,-9.40461 2.51053,-3.2853 3.7472,-7.36826 3.4824,-11.49532 -0.21811,-4.7697 -2.67004,-9.15791 -6.61826,-11.84289 -3.97467,-2.8307 -8.706237,-4.40735 -13.584093,-4.52901 z m 56.968743,10.78881 c 3.54094,-0.0291 6.92999,1.43353 9.33609,4.03006 3.6779,4.31446 5.68088,9.80751 5.64216,15.47672 0.0389,5.66929 -1.96426,11.16289 -5.64216,15.47672 -2.4061,2.59651 -5.79515,4.05896 -9.33609,4.03004 -3.5403,0.0288 -6.92905,-1.43353 -9.33508,-4.03004 -3.67792,-4.31383 -5.68111,-9.80743 -5.64365,-15.47672 -0.0375,-5.66921 1.96573,-11.16226 5.64365,-15.47672 2.40603,-2.59653 5.79478,-4.05951 9.33508,-4.03006 z" style="fill:#2a2d2f;fill-opacity:1;fill-rule:nonzero;stroke:none;stroke-width:0.276741" id="path41"/>
  </g>
</svg>