<?xml version="1.0" encoding="UTF-8" standalone="no"?>
<svg
   id="Nederlands_verkeersbord_C1"
   width="240"
   height="300"
   viewBox="0 0 240 300"
   version="1.1"
   sodipodi:docname="Nederlands_verkeersbord_A1_60_Zone.svg"
   inkscape:version="1.2.2 (b0a8486541, 2022-12-01)"
   xmlns:inkscape="http://www.inkscape.org/namespaces/inkscape"
   xmlns:sodipodi="http://sodipodi.sourceforge.net/DTD/sodipodi-0.dtd"
   xmlns="http://www.w3.org/2000/svg"
   xmlns:svg="http://www.w3.org/2000/svg">
  <defs
     id="defs42" />
  <sodipodi:namedview
     id="namedview40"
     pagecolor="#ffffff"
     bordercolor="#666666"
     borderopacity="1.0"
     inkscape:pageshadow="2"
     inkscape:pageopacity="0.0"
     inkscape:pagecheckerboard="0"
     showgrid="false"
     inkscape:zoom="4.9026069"
     inkscape:cx="109.94151"
     inkscape:cy="169.29769"
     inkscape:window-width="3840"
     inkscape:window-height="2091"
     inkscape:window-x="0"
     inkscape:window-y="0"
     inkscape:window-maximized="1"
     inkscape:current-layer="layer1"
     inkscape:showpageshadow="0"
     inkscape:deskcolor="#d1d1d1" />
  <path
     id="wit_vlak"
     style="fill:#f7fbf5;stroke:none"
     d="M 0.24756664,299.75244 L 239.7525,299.75244 L 239.7525,0.24756664 L 0.24756664,0.24756664 L 0.24756664,299.75244 z M 239.7525,299.75244 L 239.7525,299.75244 z " />
  <path
     id="zwarte_rand"
     style="fill:none;stroke:#2a2d2f;stroke-width:0.49513328"
     d="M 0.24756664,299.75244 L 239.7525,299.75244 L 239.7525,0.24756664 L 0.24756664,0.24756664 L 0.24756664,299.75244 z M 239.7525,299.75244 L 239.7525,299.75244 z " />
  <path
     id="zwarte_bies"
     style="fill:none;stroke:#2a2d2f;stroke-width:4.95133305"
     d="M 210.5602,291.86796 C 221.31649,291.86796 230.01308,284.81341 230.01308,276.10711 L 230.01308,23.901037 C 230.01308,15.186607 221.31649,8.1320466 210.5602,8.1320466 L 29.442379,8.1320466 C 18.686924,8.1320466 9.9576883,15.186607 9.9576883,23.901037 L 9.9576883,276.10711 C 9.9576883,284.81341 18.686924,291.86796 29.442379,291.86796 L 210.5602,291.86796 z " />
  <g
     id="tekst_ZONE"
     style="fill:#8f9695;fill-opacity:1">
    <path
       id="letter_Z_zwart"
       style="fill:#8f9695;fill-opacity:1;stroke:none"
       d="m 98.391618,43.510567 h -14.87485 v -3.40116 l 9.839848,-12.45734 h -9.578724 v -3.4337 h 14.548446 v 3.17332 l -9.938607,12.71772 h 10.003887 z" />
    <path
       id="letter_Z_contour"
       style="fill:#2a2d2f;fill-opacity:1;stroke:#f7fbf5;stroke-width:0.107279"
       d="m 98.391618,43.510567 h -14.87485 v -3.40116 l 9.839848,-12.45734 h -9.578724 v -3.4337 h 14.548446 v 3.17332 l -9.938607,12.71772 h 10.003887 z" />
    <path
       id="letter_O_zwart"
       style="fill:#8f9695;fill-opacity:1;stroke:none"
       d="m 118.07298,33.689517 c 0.39169,13.44188 -16.77134,13.37679 -16.57549,0.0651 0.0653,-13.25473 16.80398,-12.55497 16.57549,-0.0651 z m -3.76034,-1.04963 c -0.68629,-7.21728 -10.23237,-6.8023 -8.99037,2.76649 0.58837,6.8023 10.20058,6.67211 8.99037,-2.76649 z" />
    <path
       id="letter_O_contour"
       style="fill:#2a2d2f;fill-opacity:1;stroke:#f7fbf5;stroke-width:0.107279"
       d="m 118.07298,33.689517 c 0.39169,13.44188 -16.77134,13.37679 -16.57549,0.0651 0.0653,-13.25473 16.80398,-12.55497 16.57549,-0.0651 z m -3.76034,-1.04963 c -0.68629,-7.21728 -10.23237,-6.8023 -8.99037,2.76649 0.58837,6.8023 10.20058,6.67211 8.99037,-2.76649 z" />
    <path
       id="letter_N_zwart"
       style="fill:#8f9695;fill-opacity:1;stroke:none"
       d="m 138.30925,24.405517 v 19.17014 h -3.66159 l -8.46728,-12.17256 v 12.17256 h -3.75951 v -19.17014 h 3.39962 l 8.82717,12.45733 v -12.45733 z" />
    <path
       id="letter_N_contour"
       style="fill:#2a2d2f;fill-opacity:1;stroke:#f7fbf5;stroke-width:0.107279"
       d="m 138.30925,24.405517 v 19.17014 h -3.66159 l -8.46728,-12.17256 v 12.17256 h -3.75951 v -19.17014 h 3.39962 l 8.82717,12.45733 v -12.45733 z" />
    <path
       id="letter_E_zwart"
       style="fill:#8f9695;fill-opacity:1;stroke:none"
       d="m 156.45401,24.307887 v 3.24654 h -9.44816 v 4.35316 h 5.72128 v 3.11636 h -5.72128 v 5.53298 h 9.41551 v 3.20587 h -12.61931 v -19.45491 z" />
    <path
       id="letter_E_contour"
       style="fill:#2a2d2f;fill-opacity:1;stroke:#f7fbf5;stroke-width:0.107279"
       d="m 156.45401,24.307887 v 3.24654 h -9.44816 v 4.35316 h 5.72128 v 3.11636 h -5.72128 v 5.53298 h 9.41551 v 3.20587 h -12.61931 v -19.45491 z" />
  </g>
  <path
     id="path36"
     style="fill:none;stroke:#2a2d2f;stroke-width:4.95718098;stroke-opacity:1"
     d="M 210.67168,292.01651 C 221.43954,292.01651 230.14601,284.95399 230.14601,276.2297 L 230.14601,23.738624 C 230.14601,15.022484 221.43954,7.9599636 210.67168,7.9599636 L 29.293888,7.9599636 C 18.559544,7.9599636 9.8195456,15.022484 9.8195456,23.738624 L 9.8195456,276.2297 C 9.8195456,284.95399 18.559544,292.01651 29.293888,292.01651 L 210.67168,292.01651 z " />
  <g
     inkscape:groupmode="layer"
     id="layer1"
     inkscape:label="Layer 1">
    <circle
       id="blauwe_cirkel"
       cx="120.6"
       cy="150.60001"
       r="85"
       fill="#0e518d"
       style="display:inline;fill:#c1121c;fill-opacity:1;stroke-width:0.566667" />
    <path
       inkscape:connector-curvature="0"
       id="path3944"
       d="m 120.59998,213.50005 c 34.73873,0 62.90002,-28.1613 62.90002,-62.90002 0,-34.73869 -28.16129,-62.900016 -62.90002,-62.900016 -34.73866,0 -62.89998,28.161326 -62.89998,62.900016 0,34.73872 28.16132,62.90002 62.89998,62.90002 z"
       style="display:inline;fill:#f7fbf5;fill-opacity:1;stroke:none"
       sodipodi:nodetypes="sssss" />
    <g
       aria-label="60"
       id="text413"
       style="font-weight:bold;font-size:80px;font-family:'Anwb Eex VL';-inkscape-font-specification:'Anwb Eex VL Bold';fill:#2a2d2f">
      <path
         d="m 114.23828,161.42578 q 0,6.99219 -4.49219,11.91406 -5.9375,6.32813 -17.929684,6.32813 -6.289062,0 -11.054687,-1.75781 -4.726563,-1.75782 -7.890625,-5.35157 -5.429688,-6.13281 -5.429688,-16.48437 0,-8.28125 4.0625,-15.89844 1.445313,-2.8125 3.125,-5.11719 1.71875,-2.34375 3.90625,-4.41406 5.390625,-5.27344 12.734375,-7.85156 5.78125,-1.99219 10.078129,-1.99219 l 3.20312,0.0781 v 9.92187 q -2.34375,0 -5.117186,0.39063 -5.195313,0.66406 -8.632813,2.65625 -5.15625,3.00781 -8.242187,7.5 -0.898438,1.25 -1.445313,2.96875 1.445313,-0.46875 5.039063,-1.05469 3.945312,-0.54688 6.40625,-0.54688 7.773436,0 13.437496,3.4375 8.24219,5.11719 8.24219,15.27344 z m -10.50781,-0.0781 q 0,-4.88282 -4.609376,-6.71875 -3.164063,-1.17188 -8.007813,-1.17188 -5.703125,0 -8.90625,2.53906 -2.617187,2.26563 -2.617187,5.42969 0,1.67969 0.546875,2.85156 0.546875,1.17188 1.835937,2.34375 3.007813,2.65625 9.21875,2.65625 6.601563,0 9.687504,-2.22656 2.85156,-2.03125 2.85156,-5.70312 z"
         id="path465" />
      <path
         d="m 123.84766,149.98047 q 0,-13.98438 7.34375,-22.14844 6.79687,-7.5 16.95312,-7.5 10.19531,0 16.95313,7.5 1.75781,1.875 3.20312,4.41406 1.44531,2.53907 2.38281,5.23438 0.9375,2.69531 1.40625,5.85937 0.46875,3.125 0.46875,6.64063 0,14.10156 -7.30468,22.34375 -1.75782,1.875 -3.75,3.28125 -1.95313,1.40625 -4.02344,2.30469 -2.07031,0.85937 -4.49219,1.28906 -2.38281,0.46875 -4.84375,0.46875 -10.19531,0 -16.95312,-7.34375 -7.34375,-8.28125 -7.34375,-22.34375 z m 38.32031,0.11719 q 0,-3.47657 -0.54688,-6.21094 -0.50781,-2.77344 -1.5625,-4.92188 -1.05468,-2.1875 -2.69531,-3.90625 -3.78906,-4.02343 -9.21875,-4.02343 -2.8125,0 -4.96094,0.97656 -2.14843,0.9375 -4.21875,3.04687 -4.72656,5.07813 -4.72656,15.03907 0,9.96093 4.80469,15.03906 3.67187,3.90625 9.17969,3.90625 2.73437,0 4.96093,-0.9375 2.26563,-0.97656 4.25782,-2.96875 4.72656,-5.11719 4.72656,-15.03906 z"
         id="path467" />
    </g>
  </g>
</svg>
