<?xml version="1.0" encoding="UTF-8" standalone="no"?>
<svg
   id="Nederlands_verkeersbord_A2"
   width="300"
   height="300"
   viewBox="0 0 100 100"
   version="1.1"
   sodipodi:docname="Nederlands_verkeersbord_A2-130.svg"
   inkscape:version="1.2.2 (b0a8486541, 2022-12-01)"
   xmlns:inkscape="http://www.inkscape.org/namespaces/inkscape"
   xmlns:sodipodi="http://sodipodi.sourceforge.net/DTD/sodipodi-0.dtd"
   xmlns="http://www.w3.org/2000/svg"
   xmlns:svg="http://www.w3.org/2000/svg">
  <defs
     id="defs3320" />
  <sodipodi:namedview
     id="namedview3318"
     pagecolor="#505050"
     bordercolor="#eeeeee"
     borderopacity="1"
     inkscape:showpageshadow="0"
     inkscape:pageopacity="0"
     inkscape:pagecheckerboard="0"
     inkscape:deskcolor="#505050"
     showgrid="false"
     inkscape:zoom="0.78666667"
     inkscape:cx="150"
     inkscape:cy="150"
     inkscape:window-width="3840"
     inkscape:window-height="2091"
     inkscape:window-x="0"
     inkscape:window-y="0"
     inkscape:window-maximized="1"
     inkscape:current-layer="Nederlands_verkeersbord_A2" />
  <circle
     id="witte cirkel met zwarte rand"
     cx="50"
     cy="50"
     r="49.7"
     fill="#f7fbf5"
     stroke="#2a2d2f"
     stroke-width="0.6" />
  <g
     aria-label="130"
     id="text350"
     style="font-weight:bold;font-size:51.6667px;font-family:'Anwb Ee VL';-inkscape-font-specification:'Anwb Ee VL Bold';letter-spacing:-3.33333px;fill:#8f9695;stroke-width:0.333333">
    <path
       d="m 6.8635743,40.123283 v -4.793297 q 0.5550133,-0.126139 1.6398122,-0.479329 1.0847988,-0.353191 1.8164075,-0.857748 0.756836,-0.580242 1.362305,-1.43799 0.630697,-0.882975 0.908204,-1.362305 H 17.86293 V 68.908295 H 12.085745 V 40.123283 Z"
       id="path3456" />
    <path
       d="m 33.072091,40.072828 -4.112144,-4.086917 q 0.908204,-1.31185 4.011233,-3.279624 3.103029,-1.967775 8.854986,-1.967775 4.213056,0 7.089034,1.79118 2.875978,1.791179 4.238284,4.263511 1.362305,2.447105 1.362305,4.465335 -0.02523,3.077801 -0.882975,4.742842 -0.83252,1.66504 -1.387534,2.194825 0.252279,0.176595 0.807292,0.731609 0.580242,0.529785 1.337078,1.639812 0.782064,1.084799 1.362306,2.800295 0.580241,1.690267 0.580241,3.708498 0,2.951662 -1.942547,5.777184 -1.917319,2.825523 -5.423994,4.591475 -3.481448,1.765951 -7.820643,1.765951 -4.667158,0 -7.97201,-1.892091 -3.304852,-1.892091 -4.868981,-3.758954 -1.564129,-1.892091 -2.043458,-2.825522 l 4.868981,-2.926435 q 0.378418,0.60547 1.564128,1.841636 1.210938,1.210938 3.632815,2.396648 2.447104,1.185711 5.701501,1.185711 1.917319,0 3.506675,-0.605469 1.614584,-0.60547 2.699383,-1.589357 1.110027,-0.983887 1.66504,-2.093914 0.555014,-1.110027 0.555014,-2.169598 0,-3.153485 -2.346193,-4.263511 -2.320965,-1.110027 -5.196943,-1.110027 -0.580242,0 -1.009116,0.05046 -0.403646,0.02523 -0.555013,0.05045 v -5.953779 q 1.866863,0 3.33008,-0.100912 1.488445,-0.126139 2.14437,-0.454102 1.765952,-0.83252 1.765952,-3.582359 0,-0.908203 -0.655925,-2.01823 -0.655925,-1.110027 -2.346193,-1.942547 -1.690268,-0.83252 -4.440107,-0.83252 -3.103029,0 -5.196943,1.31185 -2.093914,1.286622 -2.875979,2.14437 z"
       id="path3458" />
    <path
       d="m 61.778171,50.03784 q 0,-4.541018 1.236166,-8.173833 1.261394,-3.658042 3.45622,-6.079919 2.220053,-2.447104 5.020348,-3.658043 2.825522,-1.236166 5.928551,-1.236166 3.153485,0 5.979008,1.236166 2.825523,1.210939 5.020348,3.632815 2.194826,2.421877 3.45622,6.029464 1.261394,3.582359 1.261394,8.249516 0,4.64193 -1.261394,8.274745 -1.261394,3.632815 -3.45622,6.054691 -2.169597,2.396649 -5.020348,3.658043 -2.825523,1.236166 -5.979008,1.236166 -3.103029,0 -5.928551,-1.236166 -2.800295,-1.261394 -4.995121,-3.683271 -2.194825,-2.421876 -3.456219,-6.079919 -1.261394,-3.68327 -1.261394,-8.224289 z m 25.404475,0 q 0,-3.632814 -0.882976,-6.206058 -0.882976,-2.598472 -2.346193,-4.137372 -1.437989,-1.564129 -3.103029,-2.220054 -1.66504,-0.655925 -3.430992,-0.655925 -1.740723,0 -3.405763,0.655925 -1.639813,0.655925 -3.10303,2.220054 -1.463217,1.564128 -2.346192,4.137372 -0.857748,2.573244 -0.857748,6.206058 0,4.818525 1.463217,7.795415 1.488445,2.951662 3.708498,4.238284 2.220054,1.261394 4.591474,1.261394 1.66504,0 3.405764,-0.681153 1.740724,-0.70638 3.153485,-2.245281 1.437989,-1.538901 2.295737,-4.086916 0.857748,-2.573244 0.857748,-6.281743 z"
       id="path3460" />
  </g>
  <g
     id="zwarte schuine strepen">
    <path
       id="schuine_streep_1"
       style="fill:#2a2d2f;stroke:none"
       d="M 68.444051,9.489988 L 24.160001,86.184308 L 24.171111,86.217688 C 22.942621,85.335858 21.76138,84.403952 20.630168,83.402504 L 20.66352,83.380249 L 64.274951,7.848725 L 64.274951,7.82647 C 65.698001,8.304941 67.087701,8.847393 68.435711,9.467734 L 68.444051,9.489988" />
    <path
       id="schuine_streep_2"
       style="fill:#2a2d2f;stroke:none"
       d="M 74.394721,12.739135 L 29.968931,89.683816 L 29.946691,89.717196 C 28.620921,89.044001 27.339611,88.315168 26.102791,87.522355 L 26.113901,87.511227 L 70.561941,10.510911 L 70.584171,10.52204 C 71.887711,11.206361 73.157891,11.946322 74.383601,12.750263 L 74.394721,12.739135" />
    <path
       id="schuine_streep_3"
       style="fill:#2a2d2f;stroke:none"
       d="M 79.800631,16.922967 L 36.264241,92.334874 L 36.297601,92.323746 C 34.863431,91.856403 33.454281,91.32508 32.084041,90.715865 L 32.072921,90.726991 L 76.326401,14.085529 L 76.337521,14.118911 C 77.554891,14.99796 78.705561,15.943773 79.811761,16.945221 L 79.800631,16.922967" />
  </g>
</svg>
