<?xml version="1.0" encoding="UTF-8" standalone="no"?>
<svg
   id="Netherlands_traffic_sign_A2-30-ZE"
   width="240"
   height="300"
   viewBox="0 0 240 300"
   version="1.1"
   sodipodi:docname="Netherlands_traffic_sign_A2-30-ZE.svg"
   inkscape:version="1.2.2 (b0a8486541, 2022-12-01)"
   xmlns:inkscape="http://www.inkscape.org/namespaces/inkscape"
   xmlns:sodipodi="http://sodipodi.sourceforge.net/DTD/sodipodi-0.dtd"
   xmlns="http://www.w3.org/2000/svg"
   xmlns:svg="http://www.w3.org/2000/svg">
  <defs
     id="defs562" />
  <sodipodi:namedview
     id="namedview560"
     pagecolor="#505050"
     bordercolor="#eeeeee"
     borderopacity="1"
     inkscape:showpageshadow="0"
     inkscape:pageopacity="0"
     inkscape:pagecheckerboard="0"
     inkscape:deskcolor="#505050"
     showgrid="false"
     inkscape:zoom="3.1466667"
     inkscape:cx="333.05084"
     inkscape:cy="200.84746"
     inkscape:window-width="3840"
     inkscape:window-height="2091"
     inkscape:window-x="0"
     inkscape:window-y="0"
     inkscape:window-maximized="1"
     inkscape:current-layer="g557" />
  <g
     font-family="Arial,Helvetica,sans-serif"
     id="g557">
    <path
       id="surface"
       style="fill:#f7fbf5"
       d="m0,300 240,0 0,-300 -240,0 0,300 z m240,0 0,0 z" />
    <g
       aria-label="ZONE"
       id="text547">
      <path
         d="M 87.724609,48 H 65.634766 V 43.917969 L 80.517578,24.992187 H 67.119141 v -4.511718 h 19.804687 v 4.003906 L 72.041016,43.488281 h 15.683593 z"
         style="font-weight:bold;font-size:40px;text-anchor:middle"
         id="path246" />
      <path
         d="m 118.31055,34.113281 q 0,4.296875 -1.69922,7.558594 -1.69922,3.261719 -4.86328,5 -3.16407,1.71875 -7.38282,1.71875 -6.484371,0 -10.175777,-3.808594 -3.671875,-3.828125 -3.671875,-10.46875 0,-6.621094 3.671875,-10.332031 3.671875,-3.710938 10.214847,-3.710938 6.54297,0 10.21484,3.75 3.69141,3.75 3.69141,10.292969 z m -5.87891,0 q 0,-4.453125 -2.10937,-6.972656 -2.10938,-2.539063 -5.91797,-2.539063 -3.86719,0 -5.976566,2.519532 -2.109375,2.5 -2.109375,6.992187 0,4.53125 2.148438,7.148438 2.167973,2.597656 5.898433,2.597656 3.86719,0 5.95704,-2.539063 2.10937,-2.539062 2.10937,-7.207031 z"
         style="font-weight:bold;font-size:40px;text-anchor:middle"
         id="path248" />
      <path
         d="M 139.42383,48 127.43164,26.808594 q 0.35156,3.085937 0.35156,4.960937 V 48 h -5.11718 V 20.480469 h 6.58203 l 12.16797,21.367187 q -0.35157,-2.949219 -0.35157,-5.371094 V 20.480469 h 5.11719 V 48 Z"
         style="font-weight:bold;font-size:40px;text-anchor:middle"
         id="path250" />
      <path
         d="M 151.55273,48 V 20.480469 h 21.64063 v 4.453125 h -15.87891 v 6.914062 h 14.6875 v 4.453125 h -14.6875 v 7.246094 h 16.67969 V 48 Z"
         style="font-weight:bold;font-size:40px;text-anchor:middle"
         id="path252" />
    </g>
    <circle
       cx="120"
       cy="140"
       r="76"
       fill="#f7fbf5"
       stroke="#b3b3b3"
       stroke-width="22"
       id="circle549" />
    <g
       aria-label="30"
       id="text553"
       style="font-size:85px">
      <path
         d="m 73.619385,120.56104 -6.765137,-6.72364 q 1.494141,-2.1582 6.599121,-5.39551 5.104981,-3.2373 14.567871,-3.2373 6.931153,0 11.662598,2.94678 4.731442,2.94677 6.972652,7.01416 2.24122,4.02588 2.24122,7.34619 -0.0415,5.06348 -1.45264,7.80273 -1.36963,2.73926 -2.28272,3.61084 0.41504,0.29053 1.32813,1.20362 0.95459,0.87158 2.19971,2.69775 1.28662,1.78467 2.24121,4.60693 0.95459,2.78077 0.95459,6.10108 0,4.85595 -3.1958,9.50439 -3.1543,4.64844 -8.923344,7.55371 -5.727539,2.90528 -12.866211,2.90528 -7.678223,0 -13.115235,-3.1128 -5.437011,-3.11279 -8.010254,-6.18408 -2.573242,-3.11279 -3.361816,-4.64844 l 8.010254,-4.81445 q 0.622559,0.99609 2.573242,3.02979 1.992188,1.99218 5.976563,3.94287 4.025879,1.95068 9.379882,1.95068 3.154297,0 5.769043,-0.99609 2.65625,-0.9961 4.440918,-2.61475 1.826168,-1.61865 2.739258,-3.44482 0.91309,-1.82617 0.91309,-3.56934 0,-5.18799 -3.859867,-7.01416 -3.818359,-1.82617 -8.549805,-1.82617 -0.95459,0 -1.660156,0.083 -0.664063,0.0415 -0.913086,0.083 v -9.79492 q 3.071289,0 5.478516,-0.16601 2.44873,-0.20752 3.527832,-0.74707 2.905273,-1.36963 2.905273,-5.89356 0,-1.49414 -1.079101,-3.32031 -1.079102,-1.82617 -3.859864,-3.1958 -2.780761,-1.36963 -7.304687,-1.36963 -5.104981,0 -8.549805,2.1582 -3.444824,2.1167 -4.731445,3.52784 z"
         style="font-weight:bold;font-family:'Anwb Ee VL';-inkscape-font-specification:'Anwb Ee VL Bold';text-anchor:middle;fill:#b3b3b3"
         id="path1107" />
      <path
         d="m 126.32935,136.95508 q 0,-7.47071 2.03369,-13.44727 2.07519,-6.01806 5.68603,-10.00244 3.65235,-4.02588 8.25928,-6.01807 4.64844,-2.03369 9.75342,-2.03369 5.18799,0 9.83642,2.03369 4.64844,1.99219 8.25928,5.97657 3.61084,3.98437 5.68604,9.91943 2.07519,5.89356 2.07519,13.57178 0,7.63672 -2.07519,13.61328 -2.0752,5.97656 -5.68604,9.96094 -3.56934,3.94287 -8.25928,6.01806 -4.64843,2.03369 -9.83642,2.03369 -5.10498,0 -9.75342,-2.03369 -4.60693,-2.07519 -8.21777,-6.05957 -3.61084,-3.98437 -5.68604,-10.00244 -2.07519,-6.05957 -2.07519,-13.53027 z m 41.79443,0 q 0,-5.97656 -1.45264,-10.20996 -1.45263,-4.27491 -3.85986,-6.80664 -2.36572,-2.57325 -5.10498,-3.65235 -2.73926,-1.0791 -5.64453,-1.0791 -2.86377,0 -5.60303,1.0791 -2.69775,1.0791 -5.10498,3.65235 -2.40723,2.57324 -3.85986,6.80664 -1.41114,4.2334 -1.41114,10.20996 0,7.92724 2.40723,12.82471 2.44873,4.85595 6.10107,6.97265 3.65235,2.0752 7.55372,2.0752 2.73925,0 5.60302,-1.12061 2.86377,-1.16211 5.18799,-3.69385 2.36572,-2.53173 3.77686,-6.72363 1.41113,-4.2334 1.41113,-10.33447 z"
         style="font-weight:bold;font-family:'Anwb Ee VL';-inkscape-font-specification:'Anwb Ee VL Bold';text-anchor:middle;fill:#b3b3b3"
         id="path1109" />
    </g>
    <path
       id="stripes"
       style="fill:none;stroke:#2a2d2f;stroke-width:5;stroke-opacity:1"
       d="M2,280 L220,2 M5,297 L235,3 M20,298 L238,20" />
    <rect
       id="border"
       x="2"
       y="2"
       rx="10"
       ry="10"
       width="236"
       height="296"
       stroke="black"
       stroke-width="4"
       fill="none" />
  </g>
</svg>
