<?xml version="1.0" encoding="utf-8"?><!DOCTYPE svg PUBLIC "-//W3C//DTD SVG 1.0//EN" "http://www.w3.org/TR/2001/REC-SVG-20010904/DTD/svg10.dtd"><svg version="1.0" xmlns="http://www.w3.org/2000/svg" xmlns:xlink="http://www.w3.org/1999/xlink" x="0px" y="0px" viewBox="0 0 82.376 100" enable-background="new 0 0 82.376 100" xml:space="preserve"><path d="M52.074,20.308c5.59,0,10.131-4.541,10.155-10.152C62.205,4.563,57.664,0.021,52.074,0
	c-5.615,0.021-10.156,4.563-10.153,10.156C41.918,15.767,46.459,20.308,52.074,20.308L52.074,20.308z"></path><path d="M28.78,12.165c5.746-2.962,13.778,2.471,13.846,8.416v19.333l9.178,10.154c4.218,4.726-2.458,11.231-7.115,6.515
	l-10.37-11.458c-0.669-0.637-1.152-1.395-1.141-3.149v-9.233L15.04,42.517v49.145C15.045,102.762,0.011,102.76,0,91.769V33.503
	c0.011-3.246,1.297-6.405,4.506-8.253L28.78,12.165L28.78,12.165z"></path><path d="M66.41,62.012h15.966V32.96l-32.147-0.055c-4.107-0.001-5.652,4.657-3.094,7.605L66.41,62.012L66.41,62.012z"></path><path d="M57.178,31.604c0.675-0.007,1.23-0.563,1.249-1.249c-0.019-0.686-0.574-1.241-1.249-1.25
	c-0.694,0.01-1.249,0.564-1.249,1.25C55.929,31.041,56.483,31.597,57.178,31.604L57.178,31.604z"></path><path d="M57.178,30.355"></path><path d="M60.491,31.82c0.684-0.008,1.238-0.563,1.249-1.247c-0.011-0.685-0.565-1.241-1.249-1.25c-0.687,0.01-1.242,0.566-1.25,1.25
	C59.249,31.257,59.805,31.812,60.491,31.82L60.491,31.82z"></path><path d="M60.491,30.574"></path><path d="M60.708,28.13c0.68,0.016,1.234-0.54,1.249-1.197c-0.015-0.711-0.569-1.264-1.249-1.25c-0.689-0.015-1.244,0.539-1.249,1.25
	C59.464,27.59,60.019,28.146,60.708,28.13L60.708,28.13z"></path><path d="M60.708,26.934"></path><path d="M57.396,27.91c0.684,0.008,1.238-0.549,1.25-1.248c-0.012-0.67-0.566-1.225-1.25-1.25c-0.686,0.025-1.241,0.58-1.248,1.25
	C56.155,27.361,56.711,27.918,57.396,27.91L57.396,27.91z"></path><path d="M57.396,26.662"></path><path d="M58.482,24.545c0.705-0.026,1.289-0.609,1.304-1.304c-0.015-0.743-0.599-1.327-1.304-1.303
	c-0.732-0.024-1.314,0.56-1.305,1.303C57.168,23.936,57.75,24.519,58.482,24.545L58.482,24.545z"></path><path d="M58.482,23.241"></path><path d="M62.501,25.197c0.723-0.028,1.307-0.61,1.303-1.306c0.004-0.743-0.58-1.327-1.303-1.3c-0.715-0.026-1.298,0.557-1.303,1.3
	C61.203,24.587,61.786,25.169,62.501,25.197L62.501,25.197z"></path><path d="M62.501,23.892"></path><path d="M61.091,21.828c0.735-0.015,1.348-0.625,1.356-1.355c-0.009-0.781-0.621-1.394-1.356-1.414
	c-0.775,0.02-1.386,0.633-1.359,1.414C59.705,21.204,60.315,21.813,61.091,21.828L61.091,21.828z"></path><path d="M61.091,20.473"></path><path d="M65.757,24.001c0.744-0.015,1.354-0.628,1.358-1.358c-0.004-0.781-0.614-1.392-1.358-1.41
	c-0.767,0.019-1.38,0.629-1.356,1.41C64.377,23.373,64.99,23.987,65.757,24.001L65.757,24.001z"></path><path d="M65.757,22.644"></path><path d="M64.238,20.635c0.774-0.017,1.387-0.627,1.414-1.359c-0.027-0.778-0.64-1.392-1.414-1.41
	c-0.734,0.019-1.35,0.632-1.357,1.41C62.889,20.008,63.504,20.619,64.238,20.635L64.238,20.635z"></path><path d="M64.238,19.276"></path><path d="M67.931,20.635c0.846-0.01,1.521-0.687,1.521-1.521c0-0.828-0.675-1.504-1.521-1.521c-0.819,0.018-1.494,0.693-1.521,1.521
	C66.437,19.948,67.111,20.625,67.931,20.635L67.931,20.635z"></path><path d="M67.931,19.115"></path><path d="M69.125,25.306c0.819-0.012,1.494-0.688,1.519-1.52c-0.024-0.831-0.699-1.507-1.519-1.521
	c-0.846,0.015-1.519,0.69-1.519,1.521C67.606,24.618,68.279,25.293,69.125,25.306L69.125,25.306z"></path><path d="M69.125,23.786"></path><path d="M71.404,22.428c0.889-0.02,1.597-0.727,1.577-1.577c0.02-0.897-0.688-1.605-1.577-1.627
	c-0.859,0.022-1.568,0.73-1.572,1.627C69.836,21.701,70.545,22.408,71.404,22.428L71.404,22.428z"></path><path d="M71.404,20.851"></path><path d="M74.446,25.468c0.915,0.006,1.659-0.738,1.685-1.63c-0.025-0.943-0.77-1.685-1.685-1.681
	c-0.921-0.004-1.664,0.738-1.683,1.681C72.782,24.73,73.525,25.474,74.446,25.468L74.446,25.468z"></path><path d="M74.446,23.838"></path><path d="M71.568,28.399c0.925,0.006,1.666-0.736,1.686-1.628c-0.02-0.942-0.761-1.689-1.686-1.683
	c-0.912-0.006-1.656,0.741-1.626,1.683C69.912,27.663,70.656,28.405,71.568,28.399L71.568,28.399z"></path><path d="M71.568,26.771"></path></svg>