<?xml version="1.0" encoding="UTF-8" standalone="yes"?>
<svg xmlns="http://www.w3.org/2000/svg" width="375px" height="375px" viewBox="0 0 375 375" version="1.1">
  <g id="surface1">
    <path style=" stroke:none;fill-rule:nonzero;fill:rgb(49.019608%,91.764706%,49.411765%);fill-opacity:1;" d="M 200.011719 363.828125 C 194.3125 376.257812 176.652344 376.257812 170.949219 363.828125 L 72.644531 149.554688 C 67.785156 138.964844 75.523438 126.898438 87.175781 126.898438 L 283.785156 126.898438 C 295.4375 126.898438 303.175781 138.964844 298.316406 149.554688 Z M 200.011719 363.828125 "/>
    <path style=" stroke:none;fill-rule:nonzero;fill:rgb(49.019608%,91.764706%,49.411765%);fill-opacity:1;" d="M 342.433594 155.679688 C 342.433594 242.214844 272.28125 312.363281 185.746094 312.363281 C 99.210938 312.363281 29.0625 242.214844 29.0625 155.679688 C 29.0625 69.144531 99.210938 -1.007812 185.746094 -1.007812 C 272.28125 -1.007812 342.433594 69.144531 342.433594 155.679688 Z M 342.433594 155.679688 "/>
    <path style=" stroke:none;fill-rule:nonzero;fill:rgb(100%,100%,100%);fill-opacity:1;" d="M 185.71875 15 C 108.691406 15 46.25 77.441406 46.25 154.46875 C 46.289062 212.742188 82.554688 264.84375 137.183594 285.125 L 110.429688 253.277344 C 109.234375 251.855469 108.839844 249.925781 109.378906 248.148438 C 109.921875 246.371094 111.328125 244.988281 113.113281 244.472656 L 153.878906 232.722656 C 154.316406 232.59375 154.761719 232.523438 155.199219 232.507812 C 157.109375 232.4375 158.960938 233.375 160.023438 235.035156 C 161.332031 237.085938 161.140625 239.75 159.550781 241.585938 L 154.886719 246.96875 C 153.382812 249.191406 152.011719 250.960938 150.796875 252.574219 C 165.734375 255.636719 214.609375 263.109375 242.753906 236.980469 C 244.386719 235.421875 246.566406 234.558594 248.824219 234.574219 C 252.414062 234.601562 255.613281 236.828125 256.890625 240.179688 C 258.164062 243.535156 257.25 247.328125 254.585938 249.730469 C 217.976562 283.714844 162.066406 273.375 146.007812 269.476562 C 146.105469 270.328125 146.230469 271.230469 146.386719 272.191406 L 147.503906 281.753906 C 147.789062 284.164062 146.457031 286.46875 144.226562 287.433594 C 144.210938 287.441406 144.195312 287.445312 144.179688 287.449219 C 157.621094 291.699219 171.625 293.886719 185.71875 293.9375 C 262.746094 293.9375 325.1875 231.496094 325.1875 154.46875 C 325.160156 96.4375 289.199219 44.488281 234.894531 24.023438 C 235.574219 24.394531 236.179688 24.910156 236.664062 25.558594 L 262.199219 59.699219 C 263.308594 61.1875 263.59375 63.136719 262.957031 64.878906 C 262.3125 66.625 260.832031 67.925781 259.023438 68.339844 L 217.65625 77.769531 C 215.289062 78.308594 212.84375 77.226562 211.652344 75.109375 C 210.460938 72.988281 210.800781 70.339844 212.496094 68.59375 L 217.453125 63.484375 C 219.082031 61.351562 220.550781 59.664062 221.855469 58.121094 C 207.113281 54.21875 158.742188 43.996094 129.167969 68.492188 C 126.777344 70.527344 123.480469 71.121094 120.535156 70.042969 C 117.585938 68.964844 115.449219 66.382812 114.941406 63.285156 C 114.429688 60.191406 115.625 57.0625 118.070312 55.09375 C 137.894531 38.675781 162.179688 34.300781 183.226562 34.570312 C 203.035156 34.828125 219.933594 39.195312 227.589844 41.519531 C 227.542969 40.660156 227.46875 39.753906 227.367188 38.78125 L 226.789062 29.171875 C 226.644531 26.753906 228.105469 24.523438 230.382812 23.691406 C 230.953125 23.480469 231.539062 23.371094 232.121094 23.355469 C 232.433594 23.347656 232.742188 23.367188 233.046875 23.410156 C 217.878906 17.890625 201.863281 15.042969 185.71875 15 Z M 204.28125 90.679688 L 214.082031 90.679688 C 218.207031 90.679688 221.542969 92.285156 223.949219 94.320312 C 226.355469 96.355469 227.878906 98.777344 228.664062 100.710938 L 228.679688 100.746094 L 228.691406 100.78125 C 228.769531 101 228.726562 100.886719 228.753906 100.964844 C 228.777344 101.046875 228.8125 101.160156 228.859375 101.308594 C 228.953125 101.601562 229.09375 102.03125 229.265625 102.582031 C 229.617188 103.683594 230.117188 105.269531 230.742188 107.234375 C 231.988281 111.167969 233.714844 116.617188 235.660156 122.753906 L 235.589844 122.574219 C 235.734375 122.898438 235.757812 123.066406 235.75 123.035156 L 235.75 123.039062 C 237.34375 128.074219 239.089844 133.597656 240.828125 139.082031 C 242.199219 138.859375 243.597656 138.714844 245.019531 138.640625 L 245 138.535156 L 247.070312 138.535156 C 268.761719 138.535156 286.390625 156.15625 286.386719 177.847656 C 286.386719 199.542969 268.765625 217.164062 247.070312 217.164062 C 225.382812 217.164062 207.757812 199.542969 207.757812 177.847656 C 207.757812 162.378906 216.726562 149 229.742188 142.59375 L 227.589844 135.792969 L 184.765625 178.621094 L 188.167969 188.339844 L 189.757812 188.339844 C 192.835938 188.339844 195.363281 190.875 195.363281 193.949219 C 195.363281 197.023438 192.835938 199.558594 189.757812 199.558594 L 178.542969 199.558594 C 175.46875 199.558594 172.9375 197.027344 172.9375 193.949219 C 172.9375 191.433594 174.640625 189.304688 176.945312 188.605469 L 174.480469 182.679688 L 166.273438 182.679688 C 163.882812 202.097656 147.359375 217.164062 127.308594 217.164062 C 105.617188 217.164062 87.996094 199.542969 87.996094 177.847656 C 87.996094 156.15625 105.617188 138.535156 127.308594 138.535156 C 131.03125 138.535156 134.621094 139.089844 138.035156 140.058594 L 148.464844 118.449219 L 144.382812 108.3125 L 137.519531 108.3125 C 136.71875 108.3125 135.929688 108.140625 135.265625 107.714844 C 134.601562 107.285156 134.152344 106.628906 133.910156 106.011719 C 133.429688 104.777344 133.496094 103.628906 133.496094 102.496094 C 133.496094 101.363281 133.429688 100.214844 133.910156 98.980469 C 134.152344 98.363281 134.601562 97.707031 135.265625 97.277344 C 135.929688 96.851562 136.71875 96.679688 137.519531 96.679688 L 163.703125 96.679688 C 166.898438 96.679688 169.527344 99.300781 169.527344 102.496094 C 169.527344 105.691406 166.894531 108.3125 163.703125 108.3125 L 156.925781 108.3125 L 158.683594 112.671875 L 220.265625 112.671875 L 217.851562 105.042969 C 217.742188 104.824219 217.371094 104.125 216.746094 103.5 C 216.085938 102.839844 215.273438 102.320312 214.078125 102.320312 L 204.28125 102.320312 C 203.484375 102.320312 202.695312 102.148438 202.03125 101.71875 C 201.367188 101.289062 200.917969 100.632812 200.679688 100.015625 C 200.199219 98.78125 200.265625 97.632812 200.265625 96.503906 C 200.265625 95.371094 200.199219 94.222656 200.679688 92.988281 C 200.917969 92.371094 201.367188 91.710938 202.03125 91.28125 C 202.691406 90.851562 203.484375 90.679688 204.28125 90.679688 Z M 163.378906 124.304688 L 175.644531 154.738281 L 177.636719 154.746094 C 180.671875 154.753906 183.238281 157.167969 183.226562 160.191406 C 183.21875 162.425781 181.804688 164.308594 179.84375 165.140625 L 180.402344 166.527344 L 222.628906 124.304688 Z M 154.347656 133.027344 L 148.621094 144.886719 C 153.800781 148.242188 158.121094 152.769531 161.234375 158.109375 C 161.679688 157.050781 162.460938 156.175781 163.4375 155.574219 Z M 127.3125 150.136719 C 111.984375 150.136719 99.601562 162.523438 99.601562 177.847656 C 99.601562 193.175781 111.988281 205.558594 127.3125 205.558594 C 140.984375 205.558594 152.292969 195.679688 154.578125 182.679688 L 126.722656 182.679688 C 124.71875 182.679688 122.859375 181.640625 121.796875 179.957031 L 121.796875 179.953125 C 120.734375 178.261719 120.613281 176.132812 121.488281 174.332031 L 132.863281 150.765625 C 131.0625 150.398438 129.21875 150.136719 127.3125 150.136719 Z M 247.074219 150.136719 C 246.160156 150.136719 245.257812 150.195312 244.367188 150.285156 C 248.835938 164.492188 252 175.261719 252.011719 175.308594 C 252.972656 178.351562 251.261719 181.644531 248.222656 182.609375 L 248.21875 182.609375 L 248.214844 182.613281 C 245.171875 183.566406 241.882812 181.859375 240.914062 178.820312 L 240.910156 178.8125 L 233.292969 153.878906 C 224.992188 158.664062 219.363281 167.5625 219.363281 177.847656 C 219.363281 193.175781 231.75 205.5625 247.074219 205.5625 C 262.398438 205.5625 274.785156 193.175781 274.785156 177.847656 C 274.785156 162.527344 262.398438 150.140625 247.078125 150.136719 Z M 143.53125 155.425781 L 135.992188 171.039062 L 154.136719 171.039062 C 152.523438 164.660156 148.710938 159.179688 143.53125 155.425781 Z M 164.476562 165.207031 C 165.117188 167.09375 165.613281 169.039062 165.964844 171.042969 L 169.675781 171.042969 L 167.472656 165.566406 L 166.390625 165.566406 C 165.71875 165.5625 165.078125 165.425781 164.476562 165.207031 Z M 164.476562 165.207031 "/>
  </g>
</svg>