<?xml version="1.0" encoding="UTF-8" standalone="no"?>
<svg
   xmlns:dc="http://purl.org/dc/elements/1.1/"
   xmlns:cc="http://creativecommons.org/ns#"
   xmlns:rdf="http://www.w3.org/1999/02/22-rdf-syntax-ns#"
   xmlns:svg="http://www.w3.org/2000/svg"
   xmlns="http://www.w3.org/2000/svg"
   xmlns:sodipodi="http://sodipodi.sourceforge.net/DTD/sodipodi-0.dtd"
   xmlns:inkscape="http://www.inkscape.org/namespaces/inkscape"
   version="1.1"
   id="svg4"
   sodipodi:docname="bicycle_library.svg"
   width="1000"
   height="1000"
   inkscape:version="0.92.5 (2060ec1f9f, 2020-04-08)"
   style="enable-background:new">
  <metadata
     id="metadata10">
    <rdf:RDF>
      <cc:Work
         rdf:about="">
        <dc:format>image/svg+xml</dc:format>
        <dc:type
           rdf:resource="http://purl.org/dc/dcmitype/StillImage" />
        <dc:title />
      </cc:Work>
    </rdf:RDF>
  </metadata>
  <defs
     id="defs8">
    <filter
       style="color-interpolation-filters:sRGB"
       filterUnits="userSpaceOnUse"
       height="63"
       width="67"
       y="23"
       x="16"
       id="filter0_d">
      <feFlood
         id="feFlood10"
         result="BackgroundImageFix"
         flood-opacity="0" />
      <feColorMatrix
         id="feColorMatrix12"
         values="0 0 0 0 0 0 0 0 0 0 0 0 0 0 0 0 0 0 127 0"
         type="matrix"
         in="SourceAlpha" />
      <feOffset
         id="feOffset14"
         dy="4" />
      <feGaussianBlur
         id="feGaussianBlur16"
         stdDeviation="2" />
      <feColorMatrix
         id="feColorMatrix18"
         values="0 0 0 0 0 0 0 0 0 0 0 0 0 0 0 0 0 0 0.25 0"
         type="matrix" />
      <feBlend
         id="feBlend20"
         result="effect1_dropShadow"
         in2="BackgroundImageFix"
         mode="normal" />
      <feBlend
         id="feBlend22"
         result="shape"
         in2="effect1_dropShadow"
         in="SourceGraphic"
         mode="normal" />
    </filter>
  </defs>
  <sodipodi:namedview
     pagecolor="#ffffff"
     bordercolor="#666666"
     borderopacity="1"
     objecttolerance="10"
     gridtolerance="10"
     guidetolerance="10"
     inkscape:pageopacity="0"
     inkscape:pageshadow="2"
     inkscape:window-width="1920"
     inkscape:window-height="999"
     id="namedview6"
     showgrid="false"
     inkscape:zoom="0.37035536"
     inkscape:cx="-364.34347"
     inkscape:cy="764.959"
     inkscape:window-x="0"
     inkscape:window-y="0"
     inkscape:window-maximized="1"
     inkscape:current-layer="layer1"
     showguides="true"
     inkscape:guide-bbox="true">
    <sodipodi:guide
       position="494.12003,453.61838"
       orientation="1,0"
       id="guide847"
       inkscape:locked="false" />
  </sodipodi:namedview>
  <g
     inkscape:groupmode="layer"
     id="layer1"
     inkscape:label="background"
     style="display:inline"
     transform="translate(25.862067,388.65816)">
    <path
       d="m 507.50477,581.54633 c -15.20463,33.14474 -62.29796,33.14474 -77.50259,0 L 167.85343,10.155493 c -12.95774,-28.242528 7.67863,-60.414333 38.7513,-60.414333 h 524.2975 c 31.07266,0 51.70904,32.171805 38.75129,60.414333 z"
       id="path2"
       inkscape:connector-curvature="0"
       style="fill:#7dea7e;fill-opacity:1;stroke-width:8.52707577" />
    <path
       inkscape:connector-curvature="0"
       id="circle4"
       d="M 887.29014,26.484844 A 417.82672,417.82672 0 0 1 469.46341,444.31157 417.82672,417.82672 0 0 1 51.636689,26.484844 417.82672,417.82672 0 0 1 469.46341,-391.34188 417.82672,417.82672 0 0 1 887.29014,26.484844 Z"
       style="fill:#7dea7e;fill-opacity:1;stroke-width:8.52707577" />
  </g>
  <g
     inkscape:groupmode="layer"
     id="layer2"
     inkscape:label="foreground"
     style="display:inline"
     transform="translate(25.862067,388.65816)">
    <g
       id="g4673"
       transform="matrix(-0.36495618,2.0593776,-2.0593776,-0.36495618,996.72369,-262.88967)" />
    <g
       id="g4675"
       transform="matrix(-0.36495618,2.0593776,-2.0593776,-0.36495618,996.72369,-262.88967)" />
    <g
       id="g4677"
       transform="matrix(-0.36495618,2.0593776,-2.0593776,-0.36495618,996.72369,-262.88967)" />
    <g
       id="g4679"
       transform="matrix(-0.36495618,2.0593776,-2.0593776,-0.36495618,996.72369,-262.88967)" />
    <g
       id="g4681"
       transform="matrix(-0.36495618,2.0593776,-2.0593776,-0.36495618,996.72369,-262.88967)" />
    <g
       id="g4683"
       transform="matrix(-0.36495618,2.0593776,-2.0593776,-0.36495618,996.72369,-262.88967)" />
    <g
       id="g4685"
       transform="matrix(-0.36495618,2.0593776,-2.0593776,-0.36495618,996.72369,-262.88967)" />
    <g
       id="g4687"
       transform="matrix(-0.36495618,2.0593776,-2.0593776,-0.36495618,996.72369,-262.88967)" />
    <g
       id="g4689"
       transform="matrix(-0.36495618,2.0593776,-2.0593776,-0.36495618,996.72369,-262.88967)" />
    <g
       id="g4691"
       transform="matrix(-0.36495618,2.0593776,-2.0593776,-0.36495618,996.72369,-262.88967)" />
    <g
       id="g4693"
       transform="matrix(-0.36495618,2.0593776,-2.0593776,-0.36495618,996.72369,-262.88967)" />
    <g
       id="g4695"
       transform="matrix(-0.36495618,2.0593776,-2.0593776,-0.36495618,996.72369,-262.88967)" />
    <g
       id="g4697"
       transform="matrix(-0.36495618,2.0593776,-2.0593776,-0.36495618,996.72369,-262.88967)" />
    <g
       id="g4699"
       transform="matrix(-0.36495618,2.0593776,-2.0593776,-0.36495618,996.72369,-262.88967)" />
    <g
       id="g4701"
       transform="matrix(-0.36495618,2.0593776,-2.0593776,-0.36495618,996.72369,-262.88967)" />
    <g
       id="layer3"
       transform="translate(-162.70603,85.814023)" />
    <g
       id="layer1-9"
       transform="translate(-162.70603,85.814023)" />
    <path
       style="display:inline;fill:#ffffff;fill-opacity:1;stroke:none;stroke-width:64.07788849;stroke-linecap:round;stroke-miterlimit:4;stroke-dasharray:none;stroke-opacity:1;enable-background:new"
       d="M 469.38855,-348.66009 A 371.91883,371.91883 0 0 0 97.469577,23.258866 371.91883,371.91883 0 0 0 339.95776,371.67413 l -71.34468,-84.92214 c -3.1838,-3.79494 -4.23357,-8.94138 -2.79595,-13.67894 1.44644,-4.74048 5.1906,-8.42519 9.95345,-9.80303 l 108.71033,-31.33889 c 1.16713,-0.33703 2.34979,-0.52246 3.52439,-0.56534 5.0899,-0.18584 10.02548,2.30471 12.86171,6.74072 3.49346,5.46421 2.98128,12.56718 -1.263,17.46967 l -12.43224,14.35121 c -4.01168,5.92832 -7.66503,10.63939 -10.90657,14.94191 39.83526,8.1711 170.1602,28.09575 245.21164,-41.575 a 23.196179,23.196179 0 0 1 16.19403,-6.42178 23.196179,23.196179 0 0 1 15.36412,40.4171 c -97.62691,90.62767 -246.71712,63.05085 -289.53908,52.65187 0.2594,2.27536 0.59044,4.67684 1.01109,7.24809 l 2.97898,25.49875 c 0.75184,6.42247 -2.80051,12.57455 -8.74121,15.14123 -0.0407,0.0175 -0.0824,0.0299 -0.1232,0.0471 A 371.91883,371.91883 0 0 0 469.38855,395.17787 371.91883,371.91883 0 0 0 841.30752,23.258889 371.91883,371.91883 0 0 0 600.52446,-324.59099 c 1.80888,0.98567 3.42766,2.36066 4.71849,4.08972 l 68.09211,91.03952 c 2.96417,3.96883 3.71984,9.16795 2.01677,13.81667 -1.71198,4.65117 -5.65665,8.1185 -10.48978,9.22499 l -110.30673,25.14539 c -6.31634,1.44289 -12.83439,-1.44399 -16.01101,-7.09224 -3.17905,-5.65292 -2.26585,-12.71702 2.24871,-17.37184 l 13.22232,-13.62458 c 4.34087,-5.69288 8.25482,-10.19119 11.73463,-14.3041 -39.30878,-10.4089 -168.29924,-37.66527 -247.16862,27.65325 A 23.196179,23.196179 0 1 1 288.99288,-241.74 c 52.86818,-43.78469 117.62425,-55.45292 173.74555,-54.72664 52.82749,0.68368 97.89403,12.32696 118.30681,18.52791 -0.13041,-2.28786 -0.32489,-4.70598 -0.59979,-7.29881 l -1.53296,-25.62559 c -0.38771,-6.45471 3.50574,-12.39617 9.58196,-14.62302 1.51718,-0.55528 3.08098,-0.84621 4.63333,-0.88788 0.83081,-0.0222 1.65787,0.0294 2.47342,0.14677 a 371.91883,371.91883 0 0 0 -126.21265,-22.43281 z m 49.50078,201.8192 h 26.12932 c 11.00901,0 19.90175,4.27706 26.31598,9.70155 6.41421,5.42449 10.4817,11.88589 12.57723,17.04386 l 0.038,0.0942 0.0345,0.096 c 0.20773,0.58321 0.0908,0.27341 0.15946,0.48743 0.0684,0.21403 0.1645,0.51894 0.28994,0.91326 0.25095,0.78872 0.61592,1.9331 1.08175,3.40117 0.93174,2.93612 2.27084,7.16541 3.93208,12.4069 3.32257,10.482961 7.92946,25.020973 13.11541,41.386533 l -0.18483,-0.487433 c 0.38512,0.864778 0.45097,1.320492 0.42222,1.232179 v 0.0073 0.0073 c 4.2556,13.422928 8.91552,28.148865 13.54122,42.774551 3.66583,-0.58812 7.39149,-0.97466 11.17655,-1.174184 l -0.0488,-0.277241 h 5.52305 c 57.84743,0 104.84914,46.985794 104.83987,104.834422 0,57.847543 -46.98872,104.836253 -104.83625,104.836253 -57.83797,0 -104.83624,-46.98813 -104.83624,-104.836253 0,-41.257598 23.91381,-76.9284137 58.6261,-94.0202841 l -5.74588,-18.1256539 -114.19713,114.198955 9.08003,25.926406 h 4.23469 c 8.20472,0 14.94556,6.7571 14.94556,14.9564 0,8.19931 -6.74084,14.95461 -14.94556,14.95461 h -29.90196 c -8.20474,0 -14.95461,-6.7499 -14.95461,-14.95461 0,-6.71511 4.54898,-12.39001 10.68912,-14.25334 l -6.56677,-15.797203 h -21.891 c -6.36946,51.779603 -50.43786,91.950963 -103.90669,91.950963 -57.83799,0 -104.82718,-46.98871 -104.82718,-104.836245 0,-57.847579 46.98937,-104.836252 104.82718,-104.836252 9.92825,0 19.49895,1.47691 28.60273,4.060745 l 27.81803,-57.62221 -10.88481,-27.033523 h -18.30875 c -2.1294,0 -4.23345,-0.453665 -6.00322,-1.596385 -1.76976,-1.14272 -2.9686,-2.89016 -3.61316,-4.5373 -1.28915,-3.29429 -1.10896,-6.35692 -1.10896,-9.37721 0,-3.02028 -0.18019,-6.08292 1.10896,-9.3772 0.64456,-1.64714 1.8434,-3.39459 3.61316,-4.5373 1.76976,-1.14272 3.87382,-1.5982 6.00322,-1.5982 h 69.83165 c 8.51182,0 15.52177,6.99624 15.52177,15.5127 0,8.52228 -7.01464,15.512705 -15.52177,15.512705 h -18.08035 l 4.69494,11.624109 h 164.21253 l -6.4363,-20.345364 c -0.28742,-0.58681 -1.27871,-2.45075 -2.94997,-4.11872 -1.76151,-1.75806 -3.92946,-3.14566 -7.11035,-3.14566 h -26.12571 c -2.128,-1e-5 -4.23285,-0.45324 -6.00142,-1.5982 -1.76848,-1.14497 -2.96446,-2.89422 -3.60593,-4.54093 -1.28289,-3.29342 -1.09988,-6.35379 -1.09988,-9.37177 0,-3.01788 -0.18369,-6.07919 1.09808,-9.37358 0.64089,-1.64719 1.83562,-3.39784 3.60411,-4.54455 1.76857,-1.1467 3.87583,-1.60363 6.00504,-1.60363 z m -109.07637,89.665997 32.71421,81.153131 5.31285,0.01637 c 8.08558,0.02571 14.93067,6.462539 14.90385,14.525156 -0.0198,5.954236 -3.79609,10.980338 -9.02385,13.19695 l 1.49129,3.700145 112.59893,-112.591701 z m -24.08358,23.260907 -15.26987,31.6251897 c 13.81003,8.9465866 25.33007,21.0164693 33.6347,35.2564713 1.19025,-2.819301 3.26979,-5.157657 5.8782,-6.758818 z M 313.63455,11.71087 c -40.87502,0 -73.89419,33.029861 -73.89419,73.896 0,40.8654 33.03059,73.89601 73.896,73.89601 36.46157,0 66.61177,-26.34466 72.70731,-61.010723 h -74.27653 c -5.34787,0 -10.30193,-2.77288 -13.13534,-7.266214 l -0.003,-0.0058 -0.003,-0.0035 c -2.83235,-4.512626 -3.15048,-10.188178 -0.82358,-14.994381 l 30.34047,-62.835441 c -4.80723,-0.987407 -9.71918,-1.676116 -14.80782,-1.676116 z m 319.36855,0 c -2.44043,2.39e-4 -4.84261,0.156858 -7.22451,0.395028 11.92497,37.882356 20.35624,66.596512 20.39429,66.727629 2.56012,8.113193 -1.99949,16.89225 -10.10927,19.46837 l -0.009,0.002 -0.009,0.004 c -8.11746,2.548903 -16.88913,-2.00651 -19.46652,-10.107442 l -0.009,-0.02525 -20.32001,-66.486843 c -22.13259,12.754659 -37.14097,36.489324 -37.14097,63.919004 0,40.865404 33.03065,73.896004 73.896,73.896004 40.86545,0 73.8942,-33.03046 73.8942,-73.896004 0,-40.863592 -33.02773,-73.893054 -73.89057,-73.895992 z M 356.89109,25.813836 336.78854,67.450431 h 48.38457 C 380.86598,50.439928 370.69604,35.821769 356.89109,25.813836 Z m 55.84647,26.082209 c 1.71032,5.028408 3.03833,10.218299 3.97375,15.558006 l 9.89907,0.0035 -5.88363,-14.601257 -2.88111,-0.0069 c -1.79026,-0.0058 -3.50061,-0.371203 -5.10808,-0.953129 z"
       id="path5053"
       inkscape:connector-curvature="0" />
  </g>
</svg>
