<?xml version="1.0" encoding="UTF-8" standalone="no"?>
<!-- Created with Inkscape (http://www.inkscape.org/) -->

<svg
   width="1000"
   height="1000"
   viewBox="0 0 264.58333 264.58333"
   version="1.1"
   id="svg1"
   xml:space="preserve"
   inkscape:version="1.3.2 (1:1.3.2+202311252150+091e20ef0f)"
   sodipodi:docname="glutenfree.svg"
   xmlns:inkscape="http://www.inkscape.org/namespaces/inkscape"
   xmlns:sodipodi="http://sodipodi.sourceforge.net/DTD/sodipodi-0.dtd"
   xmlns="http://www.w3.org/2000/svg"
   xmlns:svg="http://www.w3.org/2000/svg"><sodipodi:namedview
     id="namedview1"
     pagecolor="#ffffff"
     bordercolor="#999999"
     borderopacity="1"
     inkscape:showpageshadow="2"
     inkscape:pageopacity="0"
     inkscape:pagecheckerboard="0"
     inkscape:deskcolor="#d1d1d1"
     inkscape:document-units="mm"
     inkscape:zoom="0.26266611"
     inkscape:cx="-142.7668"
     inkscape:cy="683.37709"
     inkscape:window-width="1920"
     inkscape:window-height="995"
     inkscape:window-x="0"
     inkscape:window-y="0"
     inkscape:window-maximized="1"
     inkscape:current-layer="layer1" /><defs
     id="defs1" /><g
     inkscape:label="Layer 1"
     inkscape:groupmode="layer"
     id="layer1"><path
       style="fill:#ebb00a;stroke:none;stroke-width:8.94153"
       d="m 32.802262,221.43705 -19.683289,6.43495 1.892627,8.32752 c 5.505908,-0.44976 11.523747,-2.8679 16.655089,-4.84926 1.986119,-0.76718 5.428673,-3.08833 7.570509,-2.72798 2.773581,0.46675 6.534995,5.31038 8.706058,7.10413 6.192451,5.11608 13.044506,9.50333 20.061831,13.39559 19.602823,10.87273 42.780603,16.00828 65.106273,15.46133 12.69309,-0.31115 25.84045,-2.58757 37.85249,-6.75532 63.09003,-21.89003 101.28559,-90.18377 84.13304,-155.24772 -4.69931,-17.825571 -12.98267,-34.944207 -24.73649,-49.208275 -4.11605,-4.995205 -8.60712,-9.485357 -13.21684,-14.0054 -1.89605,-1.859203 -4.70862,-3.458497 -6.15356,-5.69281 -1.76927,-2.735559 -1.46875,-8.12481 -2.09947,-11.340816 C 207.404,14.753438 204.86461,7.4166349 202.75994,0 c -5.97955,1.4203729 -11.75776,5.3676836 -16.65511,8.9485073 -2.09295,1.5303537 -4.97606,5.0255037 -7.57044,5.4666657 -2.65877,0.452439 -6.90968,-2.25541 -9.46319,-3.049772 C 162.08349,9.1917265 154.77243,7.3761305 147.4953,6.493613 123.17915,3.5447912 99.284636,6.7770585 76.711145,16.438384 20.89096,40.328537 -9.9666777,104.1862 2.9040589,162.76576 7.8776684,185.4025 19.065932,203.21055 32.802262,221.43705 M 168.69271,25.361236 c -0.85481,2.579083 -2.82151,4.76521 -4.06564,7.191924 -2.86415,5.586768 -4.581,12.35148 -2.84393,18.547697 1.10453,3.939736 3.37988,7.459557 5.94925,10.598747 1.24993,1.52723 3.98183,3.555704 4.05104,5.677876 0.11705,3.600765 -2.87863,8.760107 -4.15362,12.112732 -3.91369,10.291894 -8.56839,20.222885 -13.81644,29.903528 -18.28524,33.72916 -44.62479,62.38266 -75.2096,85.30938 -7.274302,5.45299 -15.012555,10.03981 -22.71148,14.823 -2.616634,1.62556 -6.69055,5.08057 -9.841659,5.27221 -2.389783,0.14571 -4.803039,-3.83826 -6.130571,-5.47401 -4.885785,-6.02044 -9.43309,-12.40987 -13.013557,-19.30478 -15.015311,-28.9153 -17.8585837,-62.15545 -7.536032,-93.117104 3.565848,-10.695505 9.076791,-20.714138 15.547565,-29.903811 1.432862,-2.034915 4.699279,-8.036098 7.352908,-8.35701 2.191156,-0.26468 5.407118,4.306866 6.807892,5.707639 l 12.112796,12.112839 c 1.045156,1.04507 2.91801,3.764196 4.542296,3.764196 2.1946,0 7.81128,-6.451846 8.877812,-8.30508 1.203429,-2.09106 -3.029296,-5.150226 -4.335216,-6.430834 -4.443785,-4.357662 -8.713077,-8.911854 -13.233762,-13.189663 -1.104062,-1.044727 -4.11808,-3.226276 -3.6693,-4.979521 0.505182,-1.973677 4.026158,-3.87715 5.547033,-5.076214 5.581546,-4.400477 11.821755,-8.125602 18.169184,-11.299413 21.229248,-10.614581 45.358871,-14.72866 68.891531,-11.36478 7.30988,1.04492 16.12417,2.309245 22.7115,5.780452 m -38.87408,13.298723 c -3.49278,1.640783 -6.57995,9.84106 -8.17537,13.198157 -7.72366,16.252038 -7.67625,34.220754 4.18334,48.451204 3.63842,4.3658 8.14837,8.17499 12.96273,11.19508 1.17007,0.73409 3.36724,2.73691 4.85101,2.2723 1.22827,-0.38448 2.08053,-2.2614 2.76359,-3.24721 2.03637,-2.93908 3.79706,-5.93949 5.4921,-9.08459 8.4199,-15.622472 9.06029,-35.69988 -2.68354,-49.965274 -3.81367,-4.632527 -8.93085,-8.112208 -14.20841,-10.880589 -1.30109,-0.682242 -3.65024,-2.660198 -5.18545,-1.939078 m 80.13334,12.062578 c 29.15343,26.920176 40.88016,68.247333 33.89208,106.744013 -2.73234,15.05235 -9.13359,29.72782 -17.61579,42.39475 -1.93245,2.88598 -4.03622,5.60367 -6.18432,8.32761 -0.80296,1.01801 -1.8239,2.85853 -3.24605,3.05945 -1.74109,0.24589 -4.24859,-3.11362 -5.33176,-4.19503 -4.47766,-4.47049 -9.98303,-8.83262 -13.62689,-14.00546 H 197.461 c -1.88415,2.67485 -4.50823,4.87724 -6.81343,7.19203 -0.81548,0.81903 -2.54611,2.06172 -2.19291,3.40672 0.40952,1.55868 2.60921,3.06597 3.70698,4.16372 3.29584,3.29583 6.59625,6.58606 9.9369,9.83613 1.36437,1.32745 4.80152,3.48737 3.17451,5.61885 -5.32647,6.97771 -16.40153,12.21252 -24.08867,16.05604 -29.74902,14.87452 -65.44531,15.92209 -96.145282,3.26072 -8.601534,-3.54746 -16.707708,-8.14682 -24.225614,-13.63155 -2.779273,-2.02768 -6.835473,-4.34022 -8.327547,-7.51331 9.614895,-6.34096 19.822527,-11.59278 29.146423,-18.44717 27.08061,-19.90833 51.13366,-44.05987 69.38659,-72.39879 8.01117,-12.43794 15.03395,-25.41783 20.92023,-38.988038 2.05593,-4.73964 3.86981,-9.547665 5.67788,-14.383976 0.68581,-1.834618 1.01969,-4.332435 2.1584,-5.936372 1.02211,-1.439673 3.64,-1.169986 5.19424,-1.363307 3.97172,-0.494463 8.12506,-1.218108 11.73424,-3.022684 4.09923,-2.049679 7.52858,-5.367791 9.77622,-9.360891 1.24009,-2.203202 1.85904,-4.859185 3.47217,-6.813455 M 83.525349,81.00456 c -12.077813,21.22272 -15.409255,53.91083 8.706058,67.69893 4.702303,2.68863 9.602953,4.63244 14.762463,6.24245 1.60182,0.49983 4.37547,1.74422 6.0167,0.96209 1.82824,-0.87089 2.78098,-3.91369 3.5618,-5.63343 2.68034,-5.90355 3.64117,-12.14205 4.08231,-18.54776 0.62554,-9.08335 0.0128,-20.05667 -4.12553,-28.38938 C 110.3983,90.994843 96.602613,83.710976 83.525349,81.00456 m 78.733211,49.20821 c 6.58444,0.52397 13.05266,2.34438 19.68325,2.6348 17.79786,0.77971 36.36943,-5.311 45.12739,-21.93958 2.72296,-5.16998 3.96253,-10.914379 4.78828,-16.655118 0.19942,-1.384769 1.32229,-4.571182 0.41221,-5.776858 -0.80117,-1.061888 -3.31901,-1.101515 -4.52621,-1.415088 -4.60999,-1.197545 -9.28024,-1.828092 -14.00549,-2.333916 -27.76666,-2.972786 -48.08819,19.22634 -51.47935,45.48576 M 39.430113,124.17258 c -1.119938,0.7475 -1.443546,2.94632 -1.814355,4.14772 -1.128476,3.65626 -2.316572,7.23807 -3.167216,10.97723 -4.147762,18.23224 -0.802234,37.48193 17.279836,46.46478 4.527404,2.24914 9.441515,3.88231 14.383955,4.93482 1.583054,0.33709 3.785379,1.19325 5.265171,0.22444 4.52888,-2.96536 6.755448,-11.06998 7.755969,-16.04263 3.540255,-17.59579 -2.300536,-35.02301 -18.320503,-43.96114 -4.90123,-2.7346 -10.158698,-4.3166 -15.519513,-5.84462 -1.475727,-0.42116 -4.42228,-1.86199 -5.863344,-0.90051 m 130.776577,17.93529 c -12.76065,1.67626 -23.34113,7.57266 -31.62057,17.63 -1.44682,1.75757 -6.94717,7.34808 -6.11743,9.77597 0.99863,2.9221 7.8995,5.7428 10.48418,7.14079 11.46306,6.20032 25.07566,10.33015 38.23106,8.71459 11.4373,-1.40462 21.43723,-8.00222 27.61181,-17.68231 1.17983,-1.84964 4.92259,-6.02695 4.56393,-8.28809 -0.39073,-2.46429 -7.07167,-5.83211 -9.08575,-7.11049 -9.79043,-6.21408 -22.14003,-11.7473 -34.06723,-10.18046 m -45.04359,45.422 c -10.85087,1.55376 -20.94219,6.62334 -29.903467,12.78021 -2.102059,1.44414 -7.909963,4.28934 -8.078421,7.11979 -0.246065,4.13563 6.197479,10.23162 8.835467,12.86954 10.817681,10.81764 28.342321,18.34954 43.908891,16.11452 9.9661,-1.431 18.69225,-7.88813 25.75866,-14.714 1.77265,-1.7122 6.41385,-5.52792 6.15043,-8.21397 -0.41309,-4.21405 -4.89038,-9.24821 -7.689,-12.11273 -9.47354,-9.69655 -25.32332,-15.79924 -38.98256,-13.84336"
       id="path5"
       sodipodi:nodetypes="cccssssssssssscsssscsccsssssssscsssssscssssssssccssssssssccsssssccsssssssscssssscssccssssssccssssscccssssssscccsssssssccsssssssc" /></g></svg>
