<?xml version="1.0" encoding="UTF-8" standalone="yes"?>
<svg xmlns="http://www.w3.org/2000/svg" xmlns:xlink="http://www.w3.org/1999/xlink" width="375px" height="375px" viewBox="0 0 375 375" version="1.1">
  <g id="surface1">
    <path style="fill:none;stroke-width:17.875193;stroke-linecap:butt;stroke-linejoin:miter;stroke:rgb(0%,0%,0%);stroke-opacity:1;stroke-miterlimit:4;" d="M 320.63498 784.307291 C 320.63498 798.33729 308.98498 809.71229 294.619981 809.71229 C 280.249982 809.71229 268.599983 798.33729 268.599983 784.307291 C 268.599983 770.272292 280.249982 758.902293 294.619981 758.902293 C 308.98498 758.902293 320.63498 770.272292 320.63498 784.307291 Z M 320.63498 784.307291 " transform="matrix(0.78125,0,0,0.78125,0,-447.158079)"/>
    <path style="fill:none;stroke-width:17.875193;stroke-linecap:butt;stroke-linejoin:miter;stroke:rgb(0%,0%,0%);stroke-opacity:1;stroke-miterlimit:4;" d="M 237.319985 784.307291 C 237.319985 798.33729 225.674986 809.71229 211.304987 809.71229 C 196.934987 809.71229 185.284988 798.33729 185.284988 784.307291 C 185.284988 770.272292 196.934987 758.902293 211.304987 758.902293 C 225.674986 758.902293 237.319985 770.272292 237.319985 784.307291 Z M 237.319985 784.307291 " transform="matrix(0.78125,0,0,0.78125,0,-447.158079)"/>
    <path style="fill:none;stroke-width:17.875193;stroke-linecap:butt;stroke-linejoin:miter;stroke:rgb(0%,0%,0%);stroke-opacity:1;stroke-miterlimit:4;" d="M 198.114987 715.692296 C 198.114987 729.727295 186.464988 741.097294 172.094989 741.097294 C 157.72999 741.097294 146.079991 729.727295 146.079991 715.692296 C 146.079991 701.662296 157.72999 690.287297 172.094989 690.287297 C 186.464988 690.287297 198.114987 701.662296 198.114987 715.692296 Z M 198.114987 715.692296 " transform="matrix(0.78125,0,0,0.78125,0,-447.158079)"/>
    <path style="fill:none;stroke-width:17.875193;stroke-linecap:butt;stroke-linejoin:miter;stroke:rgb(0%,0%,0%);stroke-opacity:1;stroke-miterlimit:4;" d="M 278.979982 715.692296 C 278.979982 729.727295 267.329983 741.097294 252.959984 741.097294 C 238.589985 741.097294 226.944986 729.727295 226.944986 715.692296 C 226.944986 701.662296 238.589985 690.287297 252.959984 690.287297 C 267.329983 690.287297 278.979982 701.662296 278.979982 715.692296 Z M 278.979982 715.692296 " transform="matrix(0.78125,0,0,0.78125,0,-447.158079)"/>
    <path style="fill:none;stroke-width:17.875193;stroke-linecap:butt;stroke-linejoin:miter;stroke:rgb(0%,0%,0%);stroke-opacity:1;stroke-miterlimit:4;" d="M 358.614977 715.692296 C 358.614977 729.727295 346.969978 741.097294 332.599979 741.097294 C 318.22998 741.097294 306.579981 729.727295 306.579981 715.692296 C 306.579981 701.662296 318.22998 690.287297 332.599979 690.287297 C 346.969978 690.287297 358.614977 701.662296 358.614977 715.692296 Z M 358.614977 715.692296 " transform="matrix(0.78125,0,0,0.78125,0,-447.158079)"/>
    <path style="fill:none;stroke-width:17.875193;stroke-linecap:butt;stroke-linejoin:miter;stroke:rgb(0%,0%,0%);stroke-opacity:1;stroke-miterlimit:4;" d="M 312.99998 659.947299 C 312.99998 670.777298 304.494981 679.552298 294.004981 679.552298 C 283.514982 679.552298 275.009983 670.777298 275.009983 659.947299 C 275.009983 649.1173 283.514982 640.3423 294.004981 640.3423 C 304.494981 640.3423 312.99998 649.1173 312.99998 659.947299 Z M 312.99998 659.947299 " transform="matrix(0.78125,0,0,0.78125,0,-447.158079)"/>
    <path style="fill:none;stroke-width:17.875193;stroke-linecap:butt;stroke-linejoin:miter;stroke:rgb(0%,0%,0%);stroke-opacity:1;stroke-miterlimit:4;" d="M 233.359985 659.947299 C 233.359985 670.777298 224.854986 679.552298 214.364986 679.552298 C 203.874987 679.552298 195.369988 670.777298 195.369988 659.947299 C 195.369988 649.1173 203.874987 640.3423 214.364986 640.3423 C 224.854986 640.3423 233.359985 649.1173 233.359985 659.947299 Z M 233.359985 659.947299 " transform="matrix(0.78125,0,0,0.78125,0,-447.158079)"/>
    <path style="fill:none;stroke-width:31.087292;stroke-linecap:butt;stroke-linejoin:round;stroke:rgb(0%,0%,0%);stroke-opacity:1;stroke-miterlimit:4;" d="M 170.869989 602.362303 L 337.499979 602.362303 C 337.499979 602.362303 354.969977 614.177302 362.334977 622.292302 C 369.694976 630.412301 376.704976 641.3273 381.604976 650.1473 C 386.509975 658.962299 390.479975 666.862299 393.859975 677.102298 C 397.239975 687.337297 400.334975 698.007297 401.209974 711.407296 C 402.084974 724.807295 400.814975 743.137294 397.534975 756.737293 C 394.254975 770.337292 388.164975 782.712291 382.834976 792.267291 C 377.499976 801.82729 373.594976 806.66729 366.904977 814.322289 C 360.214977 821.977289 351.419978 830.612288 342.399978 837.602288 C 333.379979 844.592287 323.884979 850.987287 312.99498 855.982287 C 302.104981 860.972286 277.464982 867.007286 277.464982 867.007286 C 277.464982 867.007286 244.099984 871.482286 217.429986 862.107286 C 206.829987 858.377287 199.884987 857.107287 188.024988 851.077287 C 173.169989 843.527287 158.86499 833.947288 147.594991 821.672289 C 132.104992 804.80229 119.689992 784.462291 112.059993 762.862293 C 106.024993 745.762294 104.044993 727.077295 104.709993 708.957296 C 105.214993 695.187297 108.434993 681.417298 113.284993 668.522299 C 117.404993 657.572299 124.394992 647.0373 130.439992 637.892301 C 136.349991 628.952301 146.759991 619.147302 153.71999 613.387302 C 160.67999 607.632302 170.869989 602.362303 170.869989 602.362303 Z M 170.869989 602.362303 " transform="matrix(0.78125,0,0,0.78125,0,-447.158079)"/>
    <path style="fill:none;stroke-width:17.875193;stroke-linecap:butt;stroke-linejoin:miter;stroke:rgb(0%,0%,0%);stroke-opacity:1;stroke-miterlimit:4;" d="M 226.444986 963.18728 C 226.444986 986.097278 208.149987 1004.672277 185.574988 1004.672277 C 162.99999 1004.672277 144.699991 986.097278 144.699991 963.18728 C 144.699991 940.272281 162.99999 921.702282 185.574988 921.702282 C 208.149987 921.702282 226.444986 940.272281 226.444986 963.18728 Z M 226.444986 963.18728 " transform="matrix(0.78125,0,0,0.78125,0,-447.158079)"/>
    <path style="fill:none;stroke-width:17.875193;stroke-linecap:butt;stroke-linejoin:miter;stroke:rgb(0%,0%,0%);stroke-opacity:1;stroke-miterlimit:4;" d="M 359.994977 961.96228 C 359.994977 984.872278 341.694978 1003.447277 319.11998 1003.447277 C 296.549981 1003.447277 278.249982 984.872278 278.249982 961.96228 C 278.249982 939.047281 296.549981 920.477283 319.11998 920.477283 C 341.694978 920.477283 359.994977 939.047281 359.994977 961.96228 Z M 359.994977 961.96228 " transform="matrix(0.78125,0,0,0.78125,0,-447.158079)"/>
    <path style="fill:none;stroke-width:23.665842;stroke-linecap:round;stroke-linejoin:round;stroke:rgb(0%,0%,0%);stroke-opacity:1;stroke-miterlimit:4;" d="M 175.774989 889.237285 L 328.924979 889.237285 C 370.104976 889.237285 403.484974 922.617282 403.484974 963.79728 C 403.484974 1004.977277 370.104976 1038.362275 328.924979 1038.362275 L 175.774989 1038.362275 C 134.594991 1038.362275 101.209994 1004.977277 101.209994 963.79728 C 101.209994 922.617282 134.594991 889.237285 175.774989 889.237285 Z M 175.774989 889.237285 " transform="matrix(0.78125,0,0,0.78125,0,-447.158079)"/>
    <path style="fill:none;stroke-width:17.875193;stroke-linecap:butt;stroke-linejoin:miter;stroke:rgb(0%,0%,0%);stroke-opacity:1;stroke-miterlimit:4;" d="M 190.474988 873.132286 L 315.44498 874.357285 " transform="matrix(0.78125,0,0,0.78125,0,-447.158079)"/>
  </g>
</svg>