<?xml version="1.0" encoding="UTF-8" standalone="yes"?>
<svg xmlns="http://www.w3.org/2000/svg" width="373px" height="374px" viewBox="0 0 373 374" version="1.1">
  <g id="surface1">
    <path style="fill:none;stroke-width:1.322917;stroke-linecap:round;stroke-linejoin:round;stroke:rgb(0%,0%,0%);stroke-opacity:1;stroke-miterlimit:4;" d="M 52.916604 270.475504 C 52.916604 285.124745 41.100326 296.999852 26.52448 296.999852 C 11.948633 296.999852 0.132355 285.124745 0.132355 270.475504 C 0.132355 255.826263 11.948633 243.951156 26.52448 243.951156 C 41.100326 243.951156 52.916604 255.826263 52.916604 270.475504 Z M 52.916604 270.475504 " transform="matrix(6.893628,0,0,6.878556,3.650092,-1673.480939)"/>
    <path style="fill:none;stroke-width:1;stroke-linecap:round;stroke-linejoin:round;stroke:rgb(0%,0%,0%);stroke-opacity:1;stroke-miterlimit:4;" d="M 29.537905 253.601846 C 29.537905 255.266326 28.18872 256.615628 26.52448 256.615628 C 24.860239 256.615628 23.511054 255.266326 23.511054 253.601846 C 23.511054 251.937934 24.860239 250.588631 26.52448 250.588631 C 28.18872 250.588631 29.537905 251.937934 29.537905 253.601846 Z M 29.537905 253.601846 " transform="matrix(6.893628,0,0,6.878556,3.650092,-1673.480939)"/>
    <path style=" stroke:none;fill-rule:nonzero;fill:rgb(0%,0%,0%);fill-opacity:1;" d="M 262.890625 159.339844 C 249.277344 159.359375 238.265625 170.390625 238.285156 183.960938 C 238.304688 197.535156 249.347656 208.519531 262.960938 208.511719 C 276.574219 208.503906 287.605469 197.496094 287.605469 183.886719 C 287.566406 170.28125 276.503906 159.3125 262.890625 159.339844 Z M 102.46875 159.382812 C 88.855469 159.402344 77.839844 170.429688 77.863281 184.003906 C 77.878906 197.574219 88.929688 208.558594 102.542969 208.550781 C 116.152344 208.542969 127.179688 197.535156 127.179688 183.929688 C 127.140625 170.320312 116.078125 159.355469 102.46875 159.382812 Z M 102.46875 159.382812 "/>
  </g>
</svg>