<?xml version="1.0" encoding="UTF-8" standalone="yes"?>
<svg xmlns="http://www.w3.org/2000/svg" xmlns:xlink="http://www.w3.org/1999/xlink" width="372px" height="345px" viewBox="0 0 372 345" version="1.1">
  <g id="surface1">
    <path style=" stroke:none;fill-rule:nonzero;fill:rgb(0%,0%,0%);fill-opacity:1;" d="M 343.089844 18.445312 C 348.691406 18.445312 353.855469 23.03125 353.855469 28.632812 L 353.855469 124.007812 C 353.855469 129.617188 348.515625 134.199219 342.914062 134.199219 L 29.089844 134.199219 C 23.484375 134.199219 18.144531 129.613281 18.144531 124.007812 L 18.144531 28.632812 C 18.144531 23.027344 23.484375 18.445312 29.089844 18.445312 L 342.511719 18.445312 M 342.914062 0.285156 L 29.089844 0.285156 C 13.175781 0.285156 0 12.710938 0 28.632812 L 0 124.007812 C 0 139.929688 13.175781 152.359375 29.089844 152.359375 L 342.914062 152.359375 C 358.828125 152.359375 372 139.929688 372 124.007812 L 372 28.632812 C 372 12.710938 358.828125 0.285156 342.914062 0.285156 Z M 342.914062 0.285156 "/>
    <path style=" stroke:none;fill-rule:nonzero;fill:rgb(0%,0%,0%);fill-opacity:1;" d="M 102.074219 95.613281 C 102.074219 96.863281 101.050781 97.882812 99.804688 97.882812 L 72.585938 97.882812 C 71.335938 97.882812 70.316406 96.863281 70.316406 95.613281 L 70.316406 72.917969 C 70.316406 71.667969 71.335938 70.648438 72.585938 70.648438 L 99.804688 70.648438 C 101.050781 70.648438 102.074219 71.667969 102.074219 72.917969 Z M 102.074219 95.613281 "/>
    <path style=" stroke:none;fill-rule:nonzero;fill:rgb(0%,0%,0%);fill-opacity:1;" d="M 170.121094 95.613281 C 170.121094 96.863281 169.101562 97.882812 167.855469 97.882812 L 140.632812 97.882812 C 139.386719 97.882812 138.367188 96.863281 138.367188 95.613281 L 138.367188 72.917969 C 138.367188 71.667969 139.386719 70.648438 140.632812 70.648438 L 167.855469 70.648438 C 169.101562 70.648438 170.121094 71.667969 170.121094 72.917969 Z M 170.121094 95.613281 "/>
    <path style=" stroke:none;fill-rule:nonzero;fill:rgb(0%,0%,0%);fill-opacity:1;" d="M 229.097656 95.613281 C 229.097656 96.863281 228.078125 97.882812 226.828125 97.882812 L 199.609375 97.882812 C 198.363281 97.882812 197.339844 96.863281 197.339844 95.613281 L 197.339844 72.917969 C 197.339844 71.667969 198.363281 70.648438 199.609375 70.648438 L 226.828125 70.648438 C 228.078125 70.648438 229.097656 71.667969 229.097656 72.917969 Z M 229.097656 95.613281 "/>
    <path style=" stroke:none;fill-rule:nonzero;fill:rgb(0%,0%,0%);fill-opacity:1;" d="M 297.144531 95.613281 C 297.144531 96.863281 296.125 97.882812 294.878906 97.882812 L 267.660156 97.882812 C 266.410156 97.882812 265.390625 96.863281 265.390625 95.613281 L 265.390625 72.917969 C 265.390625 71.667969 266.410156 70.648438 267.660156 70.648438 L 294.878906 70.648438 C 296.125 70.648438 297.144531 71.667969 297.144531 72.917969 Z M 297.144531 95.613281 "/>
    <path style=" stroke:none;fill-rule:nonzero;fill:rgb(0%,0%,0%);fill-opacity:1;" d="M 337.976562 77.457031 C 337.976562 81.203125 334.914062 84.265625 331.171875 84.265625 L 38.5625 84.265625 C 34.816406 84.265625 31.757812 81.203125 31.757812 77.457031 L 31.757812 41.140625 C 31.757812 37.394531 34.816406 34.332031 38.5625 34.332031 L 331.171875 34.332031 C 334.914062 34.332031 337.976562 37.394531 337.976562 41.140625 Z M 337.976562 77.457031 "/>
    <path style=" stroke:none;fill-rule:nonzero;fill:rgb(0%,0%,0%);fill-opacity:1;" d="M 330.871094 274.832031 L 295.953125 254.652344 L 295.953125 269.046875 L 117.480469 269.046875 L 152.230469 232.308594 C 155.1875 229.9375 159.058594 228.273438 163.039062 228.183594 C 179.140625 228.183594 188.703125 228.175781 192.222656 228.171875 C 194.609375 234.972656 201.019531 239.882812 208.636719 239.882812 C 218.277344 239.882812 226.097656 232.054688 226.097656 222.40625 C 226.097656 212.753906 218.277344 204.933594 208.636719 204.933594 C 201.019531 204.933594 194.609375 209.839844 192.222656 216.636719 L 163.378906 216.628906 C 155.5625 216.628906 147.371094 220.917969 142.160156 225.949219 C 142.300781 225.800781 142.449219 225.640625 142.152344 225.953125 C 142.042969 226.078125 105.28125 264.925781 105.28125 264.925781 C 102.332031 267.292969 98.464844 268.949219 94.488281 269.042969 L 74.296875 269.042969 C 71.621094 255.695312 59.84375 245.640625 45.714844 245.640625 C 29.605469 245.640625 16.550781 258.707031 16.550781 274.820312 C 16.550781 290.9375 29.605469 304.003906 45.714844 304.003906 C 59.84375 304.003906 71.625 293.941406 74.300781 280.585938 L 94.136719 280.585938 C 94.1875 280.585938 94.238281 280.585938 94.289062 280.585938 L 138.164062 280.585938 C 142.132812 280.6875 145.996094 282.339844 148.941406 284.710938 C 148.941406 284.710938 185.695312 323.558594 185.808594 323.683594 C 186.101562 323.996094 185.957031 323.835938 185.808594 323.6875 C 191.023438 328.71875 199.21875 333.007812 207.035156 333.007812 L 234.832031 333 L 234.832031 344.714844 L 269.757812 344.714844 L 269.757812 309.769531 L 234.832031 309.769531 L 234.832031 321.46875 C 234.832031 321.46875 227.511719 321.457031 206.695312 321.457031 C 202.714844 321.367188 198.839844 319.703125 195.886719 317.332031 L 161.125 280.585938 L 295.953125 280.585938 L 295.953125 295.003906 Z M 330.871094 274.832031 "/>
  </g>
</svg>