<?xml version="1.0" encoding="UTF-8" standalone="no"?>
<!-- Created with Inkscape (http://www.inkscape.org/) -->
<svg id="svg5184" xmlns:rdf="http://www.w3.org/1999/02/22-rdf-syntax-ns#" xmlns="http://www.w3.org/2000/svg" height="15" width="15" version="1.1" xmlns:cc="http://creativecommons.org/ns#" xmlns:dc="http://purl.org/dc/elements/1.1/" viewBox="0 0 15 15">
 <metadata id="metadata5189">
  <rdf:RDF>
   <cc:Work rdf:about="">
    <dc:format>image/svg+xml</dc:format>
    <dc:type rdf:resource="http://purl.org/dc/dcmitype/StillImage"/>
    <dc:title/>
   </cc:Work>
  </rdf:RDF>
 </metadata>
 <g id="layer1" transform="translate(0 -1037.4)">
  <g id="landslide-15" transform="translate(-185 775)">
   <path id="path7243" opacity=".5" stroke-linejoin="round" style="color:#000000" d="m199 263.36-5.6562 5.6562l-3.34-0.66-2.84 0.16 0.84 0.84c-0.82843 0-1.5 0.67157-1.5 1.5s0.67157 1.5 1.5 1.5 1.5-0.67157 1.5-1.5l1 1-4.5 4.5h13v-13zm-8 1c-1.1046 0-2 0.89543-2 2s0.89543 2 2 2 2-0.89543 2-2-0.89543-2-2-2zm-4 2c-0.55229 0-1 0.44771-1 1s0.44771 1 1 1 1-0.44771 1-1-0.44771-1-1-1z" stroke-dashoffset="9.9" stroke="#fefefe" stroke-linecap="round" stroke-width="2" fill="#fefefe"/>
   <g>
    <path id="path7186" style="color:#000000" d="m199 263.36-13 13h13v-13z"/>
    <g>
     <circle id="path7188" style="color:#000000" transform="translate(177 88.362)" cy="178" cx="14" r="2"/>
     <circle id="path7188-4" style="color:#000000" transform="matrix(0.75 0 0 0.75 177.5 137.36)" cy="178" cx="14" r="2"/>
     <circle id="path7188-4-0" style="color:#000000" transform="matrix(0.5 0 0 0.5 180 178.36)" cy="178" cx="14" r="2"/>
    </g>
   </g>
  </g>
 </g>
</svg>