<?xml version="1.0" encoding="utf-8"?>
<!-- Generator: Adobe Illustrator 14.0.0, SVG Export Plug-In . SVG Version: 6.00 Build 43363)  -->
<!DOCTYPE svg PUBLIC "-//W3C//DTD SVG 1.1//EN" "http://www.w3.org/Graphics/SVG/1.1/DTD/svg11.dtd">
<svg version="1.1" id="Calque_1" xmlns="http://www.w3.org/2000/svg" xmlns:xlink="http://www.w3.org/1999/xlink" x="0px" y="0px"
	 width="80.077px" height="79.982px" viewBox="0 0 80.077 79.982" enable-background="new 0 0 80.077 79.982" xml:space="preserve">
<path fill-rule="evenodd" clip-rule="evenodd" fill="#0071B3" d="M40.031,79.904c-30.716,0-49.905-33.266-34.547-59.868
	c15.358-26.603,53.753-26.619,69.111,0C89.953,46.638,70.748,79.904,40.031,79.904z"/>
<path fill="none" stroke="#0071B3" stroke-width="0.156" stroke-miterlimit="3.863" d="M40.031,79.904
	c-30.716,0-49.905-33.266-34.547-59.868c15.358-26.603,53.753-26.619,69.111,0C89.953,46.638,70.748,79.904,40.031,79.904z"/>
<path fill-rule="evenodd" clip-rule="evenodd" fill="#FFFFFF" d="M40.031,77.902c-29.183,0-47.419-31.607-32.827-56.881
	c14.576-25.274,51.063-25.274,65.655,0C87.45,46.294,69.215,77.902,40.031,77.902z"/>
<path fill="none" stroke="#FFFFFF" stroke-width="0.156" stroke-miterlimit="3.863" d="M40.031,77.902
	c-29.183,0-47.419-31.607-32.827-56.881c14.576-25.274,51.063-25.274,65.655,0C87.45,46.294,69.215,77.902,40.031,77.902z"/>
<path fill-rule="evenodd" clip-rule="evenodd" fill="#0071B3" d="M40.031,75.462c-27.306,0-44.369-29.574-30.716-53.221
	c13.654-23.647,47.778-23.647,61.433,0C84.401,45.888,67.338,75.462,40.031,75.462z"/>
<path fill="none" stroke="#0071B3" stroke-width="0.156" stroke-miterlimit="3.863" d="M40.031,75.462
	c-27.306,0-44.369-29.574-30.716-53.221c13.654-23.647,47.778-23.647,61.433,0C84.401,45.888,67.338,75.462,40.031,75.462z"/>
<path fill="#FFFFFF" d="M60.598,38.787l-4.566-7.1c-0.656-0.813-2.033-1.752-3.128-1.626v-1.22c0.782-0.376,1.313-1.126,1.313-2.096
	c0-1.22-0.969-2.283-2.283-2.283c-1.221,0-2.252,1.063-2.252,2.283c0,1.032,0.656,1.845,1.595,2.158v1.064
	c-1.282,0-4.379,0.844-4.379,4.003v6.663c0,0.532,0.438,0.97,0.97,0.97c0.563,0,0.969-0.438,0.969-0.97v-6.162
	c0-0.25,0.188-0.375,0.438-0.375s0.376,0.125,0.376,0.375v17.735c0,0.563,0.469,1.031,1.063,1.031c0.533,0,0.938-0.469,0.938-1.031
	v-9.571c0-0.376,0.282-0.626,0.657-0.626c0.376,0,0.595,0.25,0.595,0.626v11.792c0,0.531,0.47,1.063,1.063,1.063
	c0.531,0,0.97-0.531,0.97-1.063V33.845l3.784,5.943c0.313,0.531,0.75,0.47,1.127,0.344c0.312,1.22,0.531,1.939,1.376,1.971
	l2.627,0.156l-1.876,6.068h1.438v4.441c0,0.282,0.313,0.563,0.657,0.563c0.376,0,0.657-0.28,0.657-0.563v-4.504h0.845v3.628
	c0,0.313,0.281,0.626,0.656,0.626c0.376,0,0.688-0.313,0.688-0.626v-3.565h1.377l-1.314-5.004l1.689,1.877
	c0.219,0.125,0.438,0.125,0.563,0c0.188-0.157,0.251-0.313,0.094-0.627l-2.283-2.596c-0.469-0.501-0.75-0.813-1.377-0.939
	c-0.156-0.155-0.093-0.344-0.062-0.53c0.563-0.25,0.876-0.845,0.876-1.47c0-0.907-0.657-1.627-1.533-1.627
	c-0.97,0-1.689,0.72-1.689,1.627c0,0.719,0.47,1.313,1.189,1.531c0.031,0.219,0.063,0.563-0.219,0.688h-2.189
	c-0.375,0-0.563-0.062-0.813-0.345c-0.22-0.405-0.501-0.969-0.501-1.25c0-0.219-0.063-0.188-0.156-0.281
	C60.66,39.225,60.723,39.1,60.598,38.787z"/>
<path fill="none" stroke="#FFFFFF" stroke-width="0" stroke-miterlimit="3.863" d="M60.598,38.787l-4.566-7.1
	c-0.656-0.813-2.033-1.752-3.128-1.626v-1.22c0.782-0.376,1.313-1.126,1.313-2.096c0-1.22-0.969-2.283-2.283-2.283
	c-1.221,0-2.252,1.063-2.252,2.283c0,1.032,0.656,1.845,1.595,2.158v1.064c-1.282,0-4.379,0.844-4.379,4.003v6.663
	c0,0.532,0.438,0.97,0.97,0.97c0.563,0,0.969-0.438,0.969-0.97v-6.162c0-0.25,0.188-0.375,0.438-0.375s0.376,0.125,0.376,0.375
	v17.735c0,0.563,0.469,1.031,1.063,1.031c0.533,0,0.938-0.469,0.938-1.031v-9.571c0-0.376,0.282-0.626,0.657-0.626
	c0.376,0,0.595,0.25,0.595,0.626v11.792c0,0.531,0.47,1.063,1.063,1.063c0.531,0,0.97-0.531,0.97-1.063V33.845l3.784,5.943
	c0.313,0.531,0.75,0.47,1.127,0.344c0.312,1.22,0.531,1.939,1.376,1.971l2.627,0.156l-1.876,6.068h1.438v4.441
	c0,0.282,0.313,0.563,0.657,0.563c0.376,0,0.657-0.28,0.657-0.563v-4.504h0.845v3.628c0,0.313,0.281,0.626,0.656,0.626
	c0.376,0,0.688-0.313,0.688-0.626v-3.565h1.377l-1.314-5.004l1.689,1.877c0.219,0.125,0.438,0.125,0.563,0
	c0.188-0.157,0.251-0.313,0.094-0.627l-2.283-2.596c-0.469-0.501-0.75-0.813-1.377-0.939c-0.156-0.155-0.093-0.344-0.062-0.53
	c0.563-0.25,0.876-0.845,0.876-1.47c0-0.907-0.657-1.627-1.533-1.627c-0.97,0-1.689,0.72-1.689,1.627
	c0,0.719,0.47,1.313,1.189,1.531c0.031,0.219,0.063,0.563-0.219,0.688h-2.189c-0.375,0-0.563-0.062-0.813-0.345
	c-0.22-0.405-0.501-0.969-0.501-1.25c0-0.219-0.063-0.188-0.156-0.281C60.66,39.225,60.723,39.1,60.598,38.787z"/>
<path fill-rule="evenodd" clip-rule="evenodd" fill="#FFFFFF" d="M39.234,77.152 M40.846,77.152h-1.611V2.816h1.611V77.152z"/>
<path fill="none" stroke="#FFFFFF" stroke-width="0.156" stroke-miterlimit="3.863" d="M39.234,77.152 M40.846,77.152h-1.611V2.816
	h1.611V77.152z"/>
<path fill="#FFFFFF" d="M15.258,35.347l6.538,5.88c-0.251,0.282-0.407,0.688-0.407,1.063c0,0.845,0.719,1.564,1.501,1.658v1.939
	h-0.25v0.344h0.813v-0.344h-0.219V43.98c0.782-0.031,1.408-0.656,1.502-1.408h0.938c0.125,3.223,2.721,5.693,5.881,5.693
	c3.315,0,5.974-2.659,5.974-5.943c0-3.252-2.659-5.912-5.974-5.912c-0.97,0-1.877,0.219-2.69,0.688l-1.689-3.065l0.406-0.844
	c0.125-0.219,0.438-0.126,0.657-0.345c0.031-0.156,0.031-0.25,0.031-0.375c-0.093-0.094-0.125-0.188-0.281-0.188h-2.19
	c-0.031,0.032-0.125,0-0.187,0c0,0.032-0.063,0.063-0.094,0.063c-0.031,0.156-0.031,0.281,0,0.407
	c0.031,0.031,0.094,0.062,0.125,0.062h1.126c0.125-0.031,0.219,0.031,0.375,0.031c0,0.032,0,0.032,0.063,0.063
	c-0.031,0.125,0.062,0.219,0,0.25l-0.219,0.532H15.634l0.312-1.345c0.282-0.063,0.47,0.125,1.001-0.094
	c0.188,0,0.688-0.25,1.251-0.062c0.126-0.094-0.031-0.126,0.032-0.157c-0.063-0.031,0.094-0.219,0.062-0.25
	c-0.312-0.094-1.094-0.156-1.439,0.031c-0.375,0.219-0.844,0.094-1.188,0.125l-1.126,4.849c-0.626-0.251-1.376-0.407-2.096-0.407
	c-3.284,0-5.943,2.659-5.943,5.942c0,3.284,2.659,5.943,5.943,5.943c3.222,0,5.912-2.659,5.912-5.943
	c0-2.408-1.47-4.441-3.503-5.379L15.258,35.347"/>
<path fill="none" stroke="#FFFFFF" stroke-width="0.156" stroke-miterlimit="3.863" d="M11.474,36.004
	c0.345-0.032,0.626-0.126,0.97-0.126c3.503,0,6.381,2.908,6.381,6.443c0,0.219,0,0.438-0.031,0.627"/>
<path fill="#0071B3" d="M12.913,41.603c-0.156-0.094-0.312-0.063-0.469-0.063c-0.5,0-0.907,0.406-0.907,0.845
	c0,0.5,0.407,0.844,0.907,0.844c0.344,0,0.72-0.219,0.813-0.594h4.505c-0.188,2.846-2.503,5.036-5.318,5.036
	c-3.003,0-5.411-2.409-5.411-5.381c0-3.002,2.408-5.411,5.411-5.411c0.688,0,1.314,0.188,2.002,0.407l-0.375,1.47
	C13.852,39.601,13.601,40.57,12.913,41.603"/>
<path fill="#0071B3" d="M14.79,37.474l-0.375,1.532c-0.188,0.688-0.782,2.221-1.251,2.815c0,0.125,0.093,0.281,0.125,0.406h4.473
	C17.729,40.101,16.542,38.318,14.79,37.474z"/>
<path fill="none" stroke="#0071B3" stroke-width="0" stroke-miterlimit="3.863" d="M14.79,37.474l-0.375,1.532
	c-0.188,0.688-0.782,2.221-1.251,2.815c0,0.125,0.093,0.281,0.125,0.406h4.473C17.729,40.101,16.542,38.318,14.79,37.474z"/>
<path fill="#0071B3" d="M15.353,35.034l0.188-0.938H26.8l-3.128,6.599c-0.156-0.062-0.25-0.125-0.469-0.125v-1.875h0.25V38.35
	h-0.813v0.345h0.25v1.907c-0.484,0.047-0.563,0.187-0.782,0.406L15.353,35.034"/>
<path fill="#0071B3" d="M32.775,41.728l3.565-1.971c0.407,0.813,0.657,1.689,0.657,2.564c0,2.972-2.408,5.411-5.411,5.411
	c-2.878,0-5.224-2.252-5.318-5.161h4.161c0.062,0.563,0.594,1.002,1.157,1.002c0.688,0,1.251-0.563,1.251-1.252
	c0-0.219-0.031-0.375-0.094-0.531"/>
<path fill="#0071B3" d="M32.557,41.541l3.597-2.002c-0.97-1.533-2.597-2.565-4.598-2.565c-0.814,0-1.658,0.188-2.378,0.532
	l2.034,3.722c0.093-0.062,0.281-0.094,0.375-0.094C31.961,41.133,32.305,41.291,32.557,41.541"/>
<path fill="#0071B3" d="M28.865,37.755l2.033,3.691c-0.188,0.219-0.407,0.469-0.438,0.75h-4.223
	c0.031-1.877,1.064-3.535,2.565-4.473"/>
<path fill="#0071B3" d="M26.988,34.408l-2.909,6.444c0.375,0.313,0.719,0.813,0.751,1.376h0.907
	c0.062-2.096,1.157-3.941,2.846-4.973L26.988,34.408"/>
<path fill="none" stroke="#FFFFFF" stroke-width="0.156" stroke-miterlimit="3.863" d="M25.331,43.324
	c-0.062-0.313-0.094-0.658-0.094-1.002c0-3.535,2.909-6.443,6.412-6.443c2.659,0,4.88,1.627,5.881,3.816"/>
</svg>
