<?xml version="1.0" encoding="UTF-8"?>
<!DOCTYPE svg PUBLIC "-//W3C//DTD SVG 1.1//EN" "http://www.w3.org/Graphics/SVG/1.1/DTD/svg11.dtd">
<svg version="1.2" width="33.31mm" height="25.03mm" viewBox="34574 55499 3331 2503" preserveAspectRatio="xMidYMid" fill-rule="evenodd" stroke-width="28.222" stroke-linejoin="round" xmlns="http://www.w3.org/2000/svg" xmlns:ooo="http://xml.openoffice.org/svg/export" xmlns:xlink="http://www.w3.org/1999/xlink" xmlns:presentation="http://sun.com/xmlns/staroffice/presentation" xmlns:smil="http://www.w3.org/2001/SMIL20/" xmlns:anim="urn:oasis:names:tc:opendocument:xmlns:animation:1.0" xml:space="preserve">
 <defs class="EmbeddedBulletChars">
  <g id="bullet-char-template-57356" transform="scale(0.00048828125,-0.00048828125)">
   <path d="M 580,1141 L 1163,571 580,0 -4,571 580,1141 Z"/>
  </g>
  <g id="bullet-char-template-57354" transform="scale(0.00048828125,-0.00048828125)">
   <path d="M 8,1128 L 1137,1128 1137,0 8,0 8,1128 Z"/>
  </g>
  <g id="bullet-char-template-10146" transform="scale(0.00048828125,-0.00048828125)">
   <path d="M 174,0 L 602,739 174,1481 1456,739 174,0 Z M 1358,739 L 309,1346 659,739 1358,739 Z"/>
  </g>
  <g id="bullet-char-template-10132" transform="scale(0.00048828125,-0.00048828125)">
   <path d="M 2015,739 L 1276,0 717,0 1260,543 174,543 174,936 1260,936 717,1481 1274,1481 2015,739 Z"/>
  </g>
  <g id="bullet-char-template-10007" transform="scale(0.00048828125,-0.00048828125)">
   <path d="M 0,-2 C -7,14 -16,27 -25,37 L 356,567 C 262,823 215,952 215,954 215,979 228,992 255,992 264,992 276,990 289,987 310,991 331,999 354,1012 L 381,999 492,748 772,1049 836,1024 860,1049 C 881,1039 901,1025 922,1006 886,937 835,863 770,784 769,783 710,716 594,584 L 774,223 C 774,196 753,168 711,139 L 727,119 C 717,90 699,76 672,76 641,76 570,178 457,381 L 164,-76 C 142,-110 111,-127 72,-127 30,-127 9,-110 8,-76 1,-67 -2,-52 -2,-32 -2,-23 -1,-13 0,-2 Z"/>
  </g>
  <g id="bullet-char-template-10004" transform="scale(0.00048828125,-0.00048828125)">
   <path d="M 285,-33 C 182,-33 111,30 74,156 52,228 41,333 41,471 41,549 55,616 82,672 116,743 169,778 240,778 293,778 328,747 346,684 L 369,508 C 377,444 397,411 428,410 L 1163,1116 C 1174,1127 1196,1133 1229,1133 1271,1133 1292,1118 1292,1087 L 1292,965 C 1292,929 1282,901 1262,881 L 442,47 C 390,-6 338,-33 285,-33 Z"/>
  </g>
  <g id="bullet-char-template-9679" transform="scale(0.00048828125,-0.00048828125)">
   <path d="M 813,0 C 632,0 489,54 383,161 276,268 223,411 223,592 223,773 276,916 383,1023 489,1130 632,1184 813,1184 992,1184 1136,1130 1245,1023 1353,916 1407,772 1407,592 1407,412 1353,268 1245,161 1136,54 992,0 813,0 Z"/>
  </g>
  <g id="bullet-char-template-8226" transform="scale(0.00048828125,-0.00048828125)">
   <path d="M 346,457 C 273,457 209,483 155,535 101,586 74,649 74,723 74,796 101,859 155,911 209,963 273,989 346,989 419,989 480,963 531,910 582,859 608,796 608,723 608,648 583,586 532,535 482,483 420,457 346,457 Z"/>
  </g>
  <g id="bullet-char-template-8211" transform="scale(0.00048828125,-0.00048828125)">
   <path d="M -4,459 L 1135,459 1135,606 -4,606 -4,459 Z"/>
  </g>
  <g id="bullet-char-template-61548" transform="scale(0.00048828125,-0.00048828125)">
   <path d="M 173,740 C 173,903 231,1043 346,1159 462,1274 601,1332 765,1332 928,1332 1067,1274 1183,1159 1299,1043 1357,903 1357,740 1357,577 1299,437 1183,322 1067,206 928,148 765,148 601,148 462,206 346,322 231,437 173,577 173,740 Z"/>
  </g>
 </defs>
 <g class="Page">
  <g class="com.sun.star.drawing.PolyPolygonShape">
   <g id="id3">
    <rect class="BoundingBox" stroke="none" fill="none" x="34574" y="55499" width="3331" height="2503"/>
    <path fill="rgb(255,255,255)" stroke="none" d="M 34950,58000 L 37529,58000 37565,57998 37601,57993 37637,57984 37672,57972 37705,57956 37736,57937 37766,57915 37793,57890 37818,57863 37840,57834 37858,57802 37874,57769 37887,57734 37896,57698 37901,57662 37903,57625 37903,55875 37901,55838 37896,55802 37887,55766 37874,55731 37858,55698 37840,55666 37818,55637 37793,55609 37766,55585 37736,55563 37705,55544 37672,55528 37637,55516 37601,55507 37565,55502 37529,55500 34950,55500 34912,55502 34876,55507 34840,55516 34806,55528 34773,55544 34741,55563 34712,55585 34684,55609 34660,55637 34638,55666 34619,55698 34603,55731 34591,55766 34582,55802 34576,55838 34575,55875 34575,57625 34576,57662 34582,57698 34591,57734 34603,57769 34619,57802 34638,57834 34660,57863 34684,57890 34712,57915 34741,57937 34773,57956 34806,57972 34840,57984 34876,57993 34912,57998 34950,58000 Z"/>
    <path fill="none" stroke="rgb(0,0,0)" d="M 34950,58000 L 37529,58000 37565,57998 37601,57993 37637,57984 37672,57972 37705,57956 37736,57937 37766,57915 37793,57890 37818,57863 37840,57834 37858,57802 37874,57769 37887,57734 37896,57698 37901,57662 37903,57625 37903,55875 37901,55838 37896,55802 37887,55766 37874,55731 37858,55698 37840,55666 37818,55637 37793,55609 37766,55585 37736,55563 37705,55544 37672,55528 37637,55516 37601,55507 37565,55502 37529,55500 34950,55500 34912,55502 34876,55507 34840,55516 34806,55528 34773,55544 34741,55563 34712,55585 34684,55609 34660,55637 34638,55666 34619,55698 34603,55731 34591,55766 34582,55802 34576,55838 34575,55875 34575,57625 34576,57662 34582,57698 34591,57734 34603,57769 34619,57802 34638,57834 34660,57863 34684,57890 34712,57915 34741,57937 34773,57956 34806,57972 34840,57984 34876,57993 34912,57998 34950,58000 Z"/>
   </g>
  </g>
  <g class="com.sun.star.drawing.PolyPolygonShape">
   <g id="id4">
    <rect class="BoundingBox" stroke="none" fill="none" x="35239" y="55624" width="2001" height="1259"/>
    <path fill="rgb(0,0,0)" stroke="none" d="M 36538,56375 L 36599,56137 36638,56137 36646,56158 36656,56177 36668,56195 36682,56212 36692,56218 36704,56221 36740,56221 36718,56231 36697,56244 36677,56257 36657,56272 36639,56289 36622,56306 36606,56325 36592,56345 36579,56365 36567,56387 36557,56409 36548,56432 36541,56455 36536,56479 36532,56503 36530,56528 36515,56528 36515,56414 36519,56413 36522,56410 36532,56394 36538,56376 36538,56375 Z M 37019,56691 L 36640,56691 36660,56722 36686,56750 36714,56775 36746,56796 36780,56812 36815,56824 36852,56831 36890,56833 36929,56830 36966,56822 37001,56809 37035,56792 37066,56770 37093,56745 37118,56716 37138,56684 37154,56650 37165,56613 37171,56576 37172,56539 37169,56501 37160,56464 37147,56429 37129,56395 37107,56365 37081,56337 37052,56314 37019,56294 36985,56279 36949,56268 36911,56262 36873,56261 36896,56478 36907,56481 36917,56485 36928,56491 36936,56498 36943,56506 36949,56516 36953,56526 36956,56537 36956,56548 36955,56559 36953,56570 36948,56581 36942,56590 36934,56598 36925,56605 36915,56610 37018,56601 37024,56603 37029,56607 37032,56611 37033,56617 37037,56671 37037,56679 37033,56685 37027,56690 37019,56691 Z M 36601,56556 L 36817,56556 36823,56576 36834,56593 36850,56607 36869,56615 36615,56638 36605,56597 36601,56556 Z M 36516,56556 L 36529,56556 36533,56601 36516,56597 36516,56556 Z M 36071,56575 L 36131,56592 36133,56612 36138,56632 36145,56651 36155,56668 36171,56687 36191,56702 36179,56706 36166,56708 36153,56706 36141,56701 36125,56690 36109,56678 36095,56664 36083,56649 36074,56632 36069,56613 36068,56594 36071,56575 Z M 36342,56669 L 36296,56677 36252,56691 36342,56651 36342,56669 Z M 37165,56322 L 37137,56291 37105,56264 37070,56240 37033,56221 37126,56221 37165,56322 Z M 36451,56657 L 36362,56666 36362,56640 36449,56610 36451,56657 Z M 36852,56486 L 36829,56267 36806,56273 36784,56280 36763,56289 36742,56300 36723,56313 36704,56327 36687,56342 36671,56359 36657,56377 36644,56396 36632,56417 36622,56438 36614,56460 36608,56482 36604,56505 36601,56528 36820,56528 36824,56515 36832,56504 36841,56494 36852,56486 Z M 35641,56528 L 35856,56528 35853,56494 35845,56460 35833,56427 35817,56397 35798,56368 35775,56342 35749,56319 35721,56299 35624,56494 35635,56510 35641,56528 Z M 35602,56478 L 35687,56281 35666,56273 35645,56267 35623,56262 35601,56259 35578,56257 35556,56258 35533,56260 35511,56264 35490,56270 35468,56278 35448,56287 35428,56297 35409,56310 35392,56323 35375,56339 35360,56355 35345,56372 35333,56391 35322,56411 35312,56431 35304,56452 35298,56474 35294,56496 35291,56518 35290,56541 35291,56563 35293,56585 35298,56607 35304,56629 35312,56650 35321,56671 35332,56690 35344,56709 35358,56726 35374,56743 35390,56758 35408,56772 35427,56784 35446,56795 35467,56804 35488,56812 35510,56818 35532,56822 35554,56825 35576,56825 35599,56824 35621,56821 35643,56817 35665,56810 35686,56802 35706,56792 35725,56781 35744,56768 35761,56754 35777,56738 35792,56722 35806,56704 35818,56685 35828,56665 35837,56644 35845,56623 35850,56601 35854,56579 35856,56557 35641,56557 35633,56576 35620,56593 35602,56604 35582,56610 35560,56609 35541,56602 35523,56590 35511,56572 35505,56552 35505,56531 35511,56510 35524,56493 35541,56480 35560,56473 35582,56473 35602,56478 Z M 36033,56263 L 35968,56264 35949,56263 35931,56258 35913,56250 35898,56238 35872,56210 35850,56178 35835,56143 35825,56105 35755,56234 35782,56252 35807,56272 35831,56295 35852,56319 35871,56345 35887,56372 35901,56401 35912,56432 35921,56463 35927,56495 35929,56527 35929,56559 35926,56591 35920,56623 35912,56654 35900,56684 35879,56675 35860,56711 35838,56745 35811,56776 35780,56804 35746,56827 35710,56846 35671,56861 35631,56870 35590,56875 35549,56874 35508,56869 35469,56859 35431,56843 35395,56824 35361,56799 35331,56771 35305,56740 35282,56705 35265,56668 35251,56629 35243,56589 35240,56548 35242,56506 35248,56466 35260,56426 35277,56389 35298,56353 35323,56321 35352,56291 35384,56266 35419,56245 35457,56228 35457,56204 35489,56195 35522,56188 35555,56185 35589,56185 35622,56188 35655,56194 35687,56203 35718,56215 35859,55908 35870,55893 35885,55881 35895,55875 35911,55861 35915,55853 35913,55842 35907,55835 35898,55833 35885,55835 35874,55840 35837,55859 35813,55866 35808,55866 35804,55864 35800,55861 35798,55857 35772,55787 35819,55767 35843,55758 35868,55755 35886,55757 35902,55766 35932,55787 35948,55795 35965,55800 35965,55678 35957,55667 35954,55654 35958,55640 35967,55630 35975,55626 35985,55625 35994,55627 36002,55631 36013,55641 36022,55653 36075,55653 36075,55670 35991,55670 35991,55797 35989,55818 35985,55839 35973,55880 35982,55886 35985,55890 35984,55895 35904,56061 35925,56088 35930,56091 35935,56090 35940,56087 35948,56085 35956,56089 35965,56101 35966,56106 35964,56112 35963,56119 35965,56126 36194,56359 36448,56359 36464,56356 36478,56348 36488,56336 36494,56321 36571,55996 36365,55933 36365,55913 36655,55913 36664,55914 36672,55918 36679,55924 36684,55931 36687,55939 36688,55948 36686,55957 36682,55965 36668,55980 36635,56007 36629,56013 36625,56020 36606,56111 37096,56111 37100,56119 37106,56126 37114,56129 37123,56128 37160,56128 37160,56221 37142,56221 37238,56477 37213,56477 37218,56507 37221,56537 37220,56567 37217,56598 37211,56628 37202,56657 37191,56685 37177,56712 37161,56738 37143,56762 37122,56784 37100,56805 37076,56823 37050,56839 37023,56852 36995,56863 36966,56872 36936,56878 36905,56881 36874,56881 36844,56879 36814,56874 36785,56866 36757,56855 36729,56842 36703,56827 36679,56809 36656,56789 36635,56767 36616,56743 36599,56718 36585,56691 36361,56691 36361,56762 36381,56762 36381,56788 36317,56788 36317,56762 36342,56762 36342,56698 36309,56703 36277,56711 36207,56733 36181,56738 36153,56738 36127,56733 36101,56722 36091,56716 36082,56707 36074,56698 36068,56687 36058,56664 36050,56641 36044,56617 36040,56592 36038,56567 36038,56543 36040,56518 36044,56493 36065,56407 36089,56323 36033,56263 Z"/>
    <path fill="none" stroke="rgb(0,0,0)" d="M 36538,56375 L 36599,56137 36638,56137 36646,56158 36656,56177 36668,56195 36682,56212 36692,56218 36704,56221 36740,56221 36718,56231 36697,56244 36677,56257 36657,56272 36639,56289 36622,56306 36606,56325 36592,56345 36579,56365 36567,56387 36557,56409 36548,56432 36541,56455 36536,56479 36532,56503 36530,56528 36515,56528 36515,56414 36519,56413 36522,56410 36532,56394 36538,56376 36538,56375 Z"/>
    <path fill="none" stroke="rgb(0,0,0)" d="M 37019,56691 L 36640,56691 36660,56722 36686,56750 36714,56775 36746,56796 36780,56812 36815,56824 36852,56831 36890,56833 36929,56830 36966,56822 37001,56809 37035,56792 37066,56770 37093,56745 37118,56716 37138,56684 37154,56650 37165,56613 37171,56576 37172,56539 37169,56501 37160,56464 37147,56429 37129,56395 37107,56365 37081,56337 37052,56314 37019,56294 36985,56279 36949,56268 36911,56262 36873,56261 36896,56478 36907,56481 36917,56485 36928,56491 36936,56498 36943,56506 36949,56516 36953,56526 36956,56537 36956,56548 36955,56559 36953,56570 36948,56581 36942,56590 36934,56598 36925,56605 36915,56610 37018,56601 37024,56603 37029,56607 37032,56611 37033,56617 37037,56671 37037,56679 37033,56685 37027,56690 37019,56691 Z"/>
    <path fill="none" stroke="rgb(0,0,0)" d="M 36601,56556 L 36817,56556 36823,56576 36834,56593 36850,56607 36869,56615 36615,56638 36605,56597 36601,56556 Z"/>
    <path fill="none" stroke="rgb(0,0,0)" d="M 36516,56556 L 36529,56556 36533,56601 36516,56597 36516,56556 Z"/>
    <path fill="none" stroke="rgb(0,0,0)" d="M 36071,56575 L 36131,56592 36133,56612 36138,56632 36145,56651 36155,56668 36171,56687 36191,56702 36179,56706 36166,56708 36153,56706 36141,56701 36125,56690 36109,56678 36095,56664 36083,56649 36074,56632 36069,56613 36068,56594 36071,56575 Z"/>
    <path fill="none" stroke="rgb(0,0,0)" d="M 36342,56669 L 36296,56677 36252,56691 36342,56651 36342,56669 Z"/>
    <path fill="none" stroke="rgb(0,0,0)" d="M 37165,56322 L 37137,56291 37105,56264 37070,56240 37033,56221 37126,56221 37165,56322 Z"/>
    <path fill="none" stroke="rgb(0,0,0)" d="M 36451,56657 L 36362,56666 36362,56640 36449,56610 36451,56657 Z"/>
    <path fill="none" stroke="rgb(0,0,0)" d="M 36852,56486 L 36829,56267 36806,56273 36784,56280 36763,56289 36742,56300 36723,56313 36704,56327 36687,56342 36671,56359 36657,56377 36644,56396 36632,56417 36622,56438 36614,56460 36608,56482 36604,56505 36601,56528 36820,56528 36824,56515 36832,56504 36841,56494 36852,56486 Z"/>
    <path fill="none" stroke="rgb(0,0,0)" d="M 35641,56528 L 35856,56528 35853,56494 35845,56460 35833,56427 35817,56397 35798,56368 35775,56342 35749,56319 35721,56299 35624,56494 35635,56510 35641,56528 Z"/>
    <path fill="none" stroke="rgb(0,0,0)" d="M 35602,56478 L 35687,56281 35666,56273 35645,56267 35623,56262 35601,56259 35578,56257 35556,56258 35533,56260 35511,56264 35490,56270 35468,56278 35448,56287 35428,56297 35409,56310 35392,56323 35375,56339 35360,56355 35345,56372 35333,56391 35322,56411 35312,56431 35304,56452 35298,56474 35294,56496 35291,56518 35290,56541 35291,56563 35293,56585 35298,56607 35304,56629 35312,56650 35321,56671 35332,56690 35344,56709 35358,56726 35374,56743 35390,56758 35408,56772 35427,56784 35446,56795 35467,56804 35488,56812 35510,56818 35532,56822 35554,56825 35576,56825 35599,56824 35621,56821 35643,56817 35665,56810 35686,56802 35706,56792 35725,56781 35744,56768 35761,56754 35777,56738 35792,56722 35806,56704 35818,56685 35828,56665 35837,56644 35845,56623 35850,56601 35854,56579 35856,56557 35641,56557 35633,56576 35620,56593 35602,56604 35582,56610 35560,56609 35541,56602 35523,56590 35511,56572 35505,56552 35505,56531 35511,56510 35524,56493 35541,56480 35560,56473 35582,56473 35602,56478 Z"/>
    <path fill="none" stroke="rgb(0,0,0)" d="M 36033,56263 L 35968,56264 35949,56263 35931,56258 35913,56250 35898,56238 35872,56210 35850,56178 35835,56143 35825,56105 35755,56234 35782,56252 35807,56272 35831,56295 35852,56319 35871,56345 35887,56372 35901,56401 35912,56432 35921,56463 35927,56495 35929,56527 35929,56559 35926,56591 35920,56623 35912,56654 35900,56684 35879,56675 35860,56711 35838,56745 35811,56776 35780,56804 35746,56827 35710,56846 35671,56861 35631,56870 35590,56875 35549,56874 35508,56869 35469,56859 35431,56843 35395,56824 35361,56799 35331,56771 35305,56740 35282,56705 35265,56668 35251,56629 35243,56589 35240,56548 35242,56506 35248,56466 35260,56426 35277,56389 35298,56353 35323,56321 35352,56291 35384,56266 35419,56245 35457,56228 35457,56204 35489,56195 35522,56188 35555,56185 35589,56185 35622,56188 35655,56194 35687,56203 35718,56215 35859,55908 35870,55893 35885,55881 35895,55875 35911,55861 35915,55853 35913,55842 35907,55835 35898,55833 35885,55835 35874,55840 35837,55859 35813,55866 35808,55866 35804,55864 35800,55861 35798,55857 35772,55787 35819,55767 35843,55758 35868,55755 35886,55757 35902,55766 35932,55787 35948,55795 35965,55800 35965,55678 35957,55667 35954,55654 35958,55640 35967,55630 35975,55626 35985,55625 35994,55627 36002,55631 36013,55641 36022,55653 36075,55653 36075,55670 35991,55670 35991,55797 35989,55818 35985,55839 35973,55880 35982,55886 35985,55890 35984,55895 35904,56061 35925,56088 35930,56091 35935,56090 35940,56087 35948,56085 35956,56089 35965,56101 35966,56106 35964,56112 35963,56119 35965,56126 36194,56359 36448,56359 36464,56356 36478,56348 36488,56336 36494,56321 36571,55996 36365,55933 36365,55913 36655,55913 36664,55914 36672,55918 36679,55924 36684,55931 36687,55939 36688,55948 36686,55957 36682,55965 36668,55980 36635,56007 36629,56013 36625,56020 36606,56111 37096,56111 37100,56119 37106,56126 37114,56129 37123,56128 37160,56128 37160,56221 37142,56221 37238,56477 37213,56477 37218,56507 37221,56537 37220,56567 37217,56598 37211,56628 37202,56657 37191,56685 37177,56712 37161,56738 37143,56762 37122,56784 37100,56805 37076,56823 37050,56839 37023,56852 36995,56863 36966,56872 36936,56878 36905,56881 36874,56881 36844,56879 36814,56874 36785,56866 36757,56855 36729,56842 36703,56827 36679,56809 36656,56789 36635,56767 36616,56743 36599,56718 36585,56691 36361,56691 36361,56762 36381,56762 36381,56788 36317,56788 36317,56762 36342,56762 36342,56698 36309,56703 36277,56711 36207,56733 36181,56738 36153,56738 36127,56733 36101,56722 36091,56716 36082,56707 36074,56698 36068,56687 36058,56664 36050,56641 36044,56617 36040,56592 36038,56567 36038,56543 36040,56518 36044,56493 36065,56407 36089,56323 36033,56263 Z"/>
   </g>
  </g>
  <g class="com.sun.star.drawing.PolyPolygonShape">
   <g id="id5">
    <rect class="BoundingBox" stroke="none" fill="none" x="34893" y="57498" width="303" height="379"/>
    <path fill="rgb(0,0,0)" stroke="none" d="M 35003,57875 L 35083,57875 35194,57499 35122,57499 35043,57767 34965,57499 34894,57499 35003,57875 Z"/>
    <path fill="none" stroke="rgb(0,0,0)" d="M 35003,57875 L 35083,57875 35194,57499 35122,57499 35043,57767 34965,57499 34894,57499 35003,57875 Z"/>
   </g>
  </g>
  <g class="com.sun.star.drawing.PolyPolygonShape">
   <g id="id6">
    <rect class="BoundingBox" stroke="none" fill="none" x="35259" y="57498" width="234" height="379"/>
    <path fill="rgb(0,0,0)" stroke="none" d="M 35260,57875 L 35491,57875 35491,57813 35330,57813 35330,57712 35438,57712 35438,57649 35330,57649 35330,57562 35491,57562 35491,57499 35260,57499 35260,57875 Z"/>
    <path fill="none" stroke="rgb(0,0,0)" d="M 35260,57875 L 35491,57875 35491,57813 35330,57813 35330,57712 35438,57712 35438,57649 35330,57649 35330,57562 35491,57562 35491,57499 35260,57499 35260,57875 Z"/>
   </g>
  </g>
  <g class="com.sun.star.drawing.PolyPolygonShape">
   <g id="id7">
    <rect class="BoundingBox" stroke="none" fill="none" x="35564" y="57498" width="282" height="379"/>
    <path fill="rgb(0,0,0)" stroke="none" d="M 35634,57649 L 35716,57649 35731,57647 35743,57638 35751,57626 35754,57612 35754,57599 35751,57585 35743,57573 35731,57565 35716,57562 35634,57562 35634,57649 Z M 35565,57875 L 35634,57875 35634,57712 35670,57712 35765,57875 35844,57875 35748,57709 35764,57703 35778,57695 35791,57685 35802,57673 35811,57659 35817,57644 35822,57628 35823,57612 35823,57599 35821,57580 35815,57561 35806,57544 35793,57529 35778,57516 35761,57507 35742,57501 35722,57499 35565,57499 35565,57875 Z"/>
    <path fill="none" stroke="rgb(0,0,0)" d="M 35634,57649 L 35716,57649 35731,57647 35743,57638 35751,57626 35754,57612 35754,57599 35751,57585 35743,57573 35731,57565 35716,57562 35634,57562 35634,57649 Z"/>
    <path fill="none" stroke="rgb(0,0,0)" d="M 35565,57875 L 35634,57875 35634,57712 35670,57712 35765,57875 35844,57875 35748,57709 35764,57703 35778,57695 35791,57685 35802,57673 35811,57659 35817,57644 35822,57628 35823,57612 35823,57599 35821,57580 35815,57561 35806,57544 35793,57529 35778,57516 35761,57507 35742,57501 35722,57499 35565,57499 35565,57875 Z"/>
   </g>
  </g>
  <g class="com.sun.star.drawing.PolyPolygonShape">
   <g id="id8">
    <rect class="BoundingBox" stroke="none" fill="none" x="37001" y="57498" width="261" height="379"/>
    <path fill="rgb(0,0,0)" stroke="none" d="M 37002,57875 L 37071,57875 37071,57712 37190,57712 37190,57875 37260,57875 37260,57499 37190,57499 37190,57649 37071,57649 37071,57499 37002,57499 37002,57875 Z"/>
    <path fill="none" stroke="rgb(0,0,0)" d="M 37002,57875 L 37071,57875 37071,57712 37190,57712 37190,57875 37260,57875 37260,57499 37190,57499 37190,57649 37071,57649 37071,57499 37002,57499 37002,57875 Z"/>
   </g>
  </g>
  <g class="com.sun.star.drawing.PolyPolygonShape">
   <g id="id9">
    <rect class="BoundingBox" stroke="none" fill="none" x="36511" y="57498" width="73" height="379"/>
    <path fill="rgb(0,0,0)" stroke="none" d="M 36512,57875 L 36582,57875 36582,57499 36512,57499 36512,57875 Z"/>
    <path fill="none" stroke="rgb(0,0,0)" d="M 36512,57875 L 36582,57875 36582,57499 36512,57499 36512,57875 Z"/>
   </g>
  </g>
  <g class="com.sun.star.drawing.PolyPolygonShape">
   <g id="id10">
    <rect class="BoundingBox" stroke="none" fill="none" x="36234" y="57498" width="218" height="379"/>
    <path fill="rgb(0,0,0)" stroke="none" d="M 36235,57875 L 36450,57875 36450,57813 36303,57813 36303,57499 36235,57499 36235,57875 Z"/>
    <path fill="none" stroke="rgb(0,0,0)" d="M 36235,57875 L 36450,57875 36450,57813 36303,57813 36303,57499 36235,57499 36235,57875 Z"/>
   </g>
  </g>
  <g class="com.sun.star.drawing.PolyPolygonShape">
   <g id="id11">
    <rect class="BoundingBox" stroke="none" fill="none" x="35910" y="57498" width="260" height="379"/>
    <path fill="rgb(0,0,0)" stroke="none" d="M 35980,57649 L 36062,57649 36076,57647 36089,57638 36097,57626 36100,57612 36100,57599 36097,57585 36089,57573 36076,57565 36062,57562 35980,57562 35980,57649 Z M 35911,57875 L 35980,57875 35980,57712 36068,57712 36088,57710 36107,57704 36124,57695 36139,57683 36151,57667 36161,57650 36166,57631 36168,57612 36168,57599 36166,57580 36161,57561 36151,57544 36139,57529 36124,57516 36107,57507 36088,57501 36068,57499 35911,57499 35911,57875 Z"/>
    <path fill="none" stroke="rgb(0,0,0)" d="M 35980,57649 L 36062,57649 36076,57647 36089,57638 36097,57626 36100,57612 36100,57599 36097,57585 36089,57573 36076,57565 36062,57562 35980,57562 35980,57649 Z"/>
    <path fill="none" stroke="rgb(0,0,0)" d="M 35911,57875 L 35980,57875 35980,57712 36068,57712 36088,57710 36107,57704 36124,57695 36139,57683 36151,57667 36161,57650 36166,57631 36168,57612 36168,57599 36166,57580 36161,57561 36151,57544 36139,57529 36124,57516 36107,57507 36088,57501 36068,57499 35911,57499 35911,57875 Z"/>
   </g>
  </g>
  <g class="com.sun.star.drawing.PolyPolygonShape">
   <g id="id12">
    <rect class="BoundingBox" stroke="none" fill="none" x="36662" y="57491" width="261" height="394"/>
    <path fill="rgb(0,0,0)" stroke="none" d="M 36852,57760 L 36852,57753 36921,57753 36918,57779 36911,57804 36899,57826 36883,57845 36864,57861 36842,57873 36817,57880 36792,57883 36767,57880 36743,57873 36720,57861 36701,57845 36685,57826 36673,57804 36666,57779 36663,57753 36663,57621 36665,57596 36672,57573 36683,57551 36698,57532 36717,57516 36739,57504 36761,57496 36785,57492 36810,57493 36833,57499 36856,57509 36875,57523 36893,57540 36906,57560 36915,57583 36920,57606 36852,57606 36849,57596 36845,57585 36838,57576 36830,57568 36821,57562 36811,57557 36800,57555 36789,57555 36778,57556 36767,57560 36757,57566 36749,57573 36742,57582 36737,57592 36733,57603 36732,57614 36732,57760 36733,57772 36737,57783 36743,57794 36750,57803 36759,57810 36770,57816 36781,57819 36792,57820 36804,57819 36815,57816 36826,57810 36835,57803 36842,57794 36848,57783 36851,57772 36852,57760 Z"/>
    <path fill="none" stroke="rgb(0,0,0)" d="M 36852,57760 L 36852,57753 36921,57753 36918,57779 36911,57804 36899,57826 36883,57845 36864,57861 36842,57873 36817,57880 36792,57883 36767,57880 36743,57873 36720,57861 36701,57845 36685,57826 36673,57804 36666,57779 36663,57753 36663,57621 36665,57596 36672,57573 36683,57551 36698,57532 36717,57516 36739,57504 36761,57496 36785,57492 36810,57493 36833,57499 36856,57509 36875,57523 36893,57540 36906,57560 36915,57583 36920,57606 36852,57606 36849,57596 36845,57585 36838,57576 36830,57568 36821,57562 36811,57557 36800,57555 36789,57555 36778,57556 36767,57560 36757,57566 36749,57573 36742,57582 36737,57592 36733,57603 36732,57614 36732,57760 36733,57772 36737,57783 36743,57794 36750,57803 36759,57810 36770,57816 36781,57819 36792,57820 36804,57819 36815,57816 36826,57810 36835,57803 36842,57794 36848,57783 36851,57772 36852,57760 Z"/>
   </g>
  </g>
  <g class="com.sun.star.drawing.PolyPolygonShape">
   <g id="id13">
    <rect class="BoundingBox" stroke="none" fill="none" x="37325" y="57498" width="261" height="379"/>
    <path fill="rgb(0,0,0)" stroke="none" d="M 37420,57875 L 37489,57875 37489,57562 37584,57562 37584,57499 37326,57499 37326,57562 37420,57562 37420,57875 Z"/>
    <path fill="none" stroke="rgb(0,0,0)" d="M 37420,57875 L 37489,57875 37489,57562 37584,57562 37584,57499 37326,57499 37326,57562 37420,57562 37420,57875 Z"/>
   </g>
  </g>
  <g class="com.sun.star.drawing.PolyPolygonShape">
   <g id="id14">
    <rect class="BoundingBox" stroke="none" fill="none" x="36105" y="56999" width="268" height="379"/>
    <path fill="rgb(0,0,0)" stroke="none" d="M 36175,57313 L 36264,57313 36278,57310 36291,57302 36299,57290 36303,57275 36303,57251 36299,57236 36291,57224 36278,57216 36264,57213 36175,57213 36175,57313 Z M 36175,57150 L 36257,57150 36271,57148 36283,57139 36291,57127 36294,57113 36294,57100 36291,57086 36283,57074 36271,57066 36257,57063 36175,57063 36175,57150 Z M 36106,57376 L 36270,57376 36290,57374 36310,57368 36327,57359 36342,57346 36354,57331 36364,57314 36369,57295 36371,57275 36371,57251 36370,57239 36368,57228 36364,57217 36358,57208 36351,57199 36342,57191 36333,57185 36322,57180 36339,57168 36353,57152 36361,57133 36364,57113 36364,57100 36362,57081 36356,57062 36347,57045 36335,57029 36319,57016 36302,57007 36282,57001 36263,57000 36106,57000 36106,57376 Z"/>
    <path fill="none" stroke="rgb(0,0,0)" d="M 36175,57313 L 36264,57313 36278,57310 36291,57302 36299,57290 36303,57275 36303,57251 36299,57236 36291,57224 36278,57216 36264,57213 36175,57213 36175,57313 Z"/>
    <path fill="none" stroke="rgb(0,0,0)" d="M 36175,57150 L 36257,57150 36271,57148 36283,57139 36291,57127 36294,57113 36294,57100 36291,57086 36283,57074 36271,57066 36257,57063 36175,57063 36175,57150 Z"/>
    <path fill="none" stroke="rgb(0,0,0)" d="M 36106,57376 L 36270,57376 36290,57374 36310,57368 36327,57359 36342,57346 36354,57331 36364,57314 36369,57295 36371,57275 36371,57251 36370,57239 36368,57228 36364,57217 36358,57208 36351,57199 36342,57191 36333,57185 36322,57180 36339,57168 36353,57152 36361,57133 36364,57113 36364,57100 36362,57081 36356,57062 36347,57045 36335,57029 36319,57016 36302,57007 36282,57001 36263,57000 36106,57000 36106,57376 Z"/>
   </g>
  </g>
  <g class="com.sun.star.drawing.PolyPolygonShape">
   <g id="id15">
    <rect class="BoundingBox" stroke="none" fill="none" x="36105" y="56999" width="268" height="379"/>
    <path fill="rgb(0,0,0)" stroke="none" d="M 36175,57313 L 36264,57313 36278,57310 36291,57302 36299,57290 36303,57275 36303,57251 36299,57236 36291,57224 36278,57216 36264,57213 36175,57213 36175,57313 Z M 36175,57150 L 36257,57150 36271,57148 36283,57139 36291,57127 36294,57113 36294,57100 36291,57086 36283,57074 36271,57066 36257,57063 36175,57063 36175,57150 Z M 36106,57376 L 36270,57376 36290,57374 36310,57368 36327,57359 36342,57346 36354,57331 36364,57314 36369,57295 36371,57275 36371,57251 36370,57239 36368,57228 36364,57217 36358,57208 36351,57199 36342,57191 36333,57185 36322,57180 36339,57168 36353,57152 36361,57133 36364,57113 36364,57100 36362,57081 36356,57062 36347,57045 36335,57029 36319,57016 36302,57007 36282,57001 36263,57000 36106,57000 36106,57376 Z"/>
    <path fill="none" stroke="rgb(0,0,0)" d="M 36175,57313 L 36264,57313 36278,57310 36291,57302 36299,57290 36303,57275 36303,57251 36299,57236 36291,57224 36278,57216 36264,57213 36175,57213 36175,57313 Z"/>
    <path fill="none" stroke="rgb(0,0,0)" d="M 36175,57150 L 36257,57150 36271,57148 36283,57139 36291,57127 36294,57113 36294,57100 36291,57086 36283,57074 36271,57066 36257,57063 36175,57063 36175,57150 Z"/>
    <path fill="none" stroke="rgb(0,0,0)" d="M 36106,57376 L 36270,57376 36290,57374 36310,57368 36327,57359 36342,57346 36354,57331 36364,57314 36369,57295 36371,57275 36371,57251 36370,57239 36368,57228 36364,57217 36358,57208 36351,57199 36342,57191 36333,57185 36322,57180 36339,57168 36353,57152 36361,57133 36364,57113 36364,57100 36362,57081 36356,57062 36347,57045 36335,57029 36319,57016 36302,57007 36282,57001 36263,57000 36106,57000 36106,57376 Z"/>
   </g>
  </g>
 </g>
</svg>