<?xml version="1.0" encoding="UTF-8" standalone="yes"?>
<svg xmlns="http://www.w3.org/2000/svg" width="370px" height="370px" viewBox="0 0 370 370" version="1.1">
  <g id="surface1">
    <path style="fill-rule:evenodd;fill:rgb(0%,44.313726%,70.19608%);fill-opacity:1;stroke-width:0.156;stroke-linecap:butt;stroke-linejoin:miter;stroke:rgb(0%,44.313726%,70.19608%);stroke-opacity:1;stroke-miterlimit:3.863;" d="M 40.030893 79.904383 C 9.3147 79.904383 -9.87436 46.637595 5.484159 20.036001 C 20.841832 -6.567284 59.236862 -6.583346 74.595381 20.036001 C 89.953055 46.637595 70.747931 79.904383 40.030893 79.904383 Z M 40.030893 79.904383 " transform="matrix(4.620553,0,0,4.620553,0,0.219479)"/>
    <path style="fill-rule:evenodd;fill:rgb(100%,100%,100%);fill-opacity:1;stroke-width:0.156;stroke-linecap:butt;stroke-linejoin:miter;stroke:rgb(100%,100%,100%);stroke-opacity:1;stroke-miterlimit:3.863;" d="M 40.030893 77.901612 C 10.84827 77.901612 -7.388017 46.295205 7.203718 21.020901 C 21.780235 -4.253403 58.267179 -4.253403 72.858914 21.020901 C 87.449803 46.29436 69.215207 77.901612 40.030893 77.901612 Z M 40.030893 77.901612 " transform="matrix(4.620553,0,0,4.620553,0,0.219479)"/>
    <path style="fill-rule:evenodd;fill:rgb(0%,44.313726%,70.19608%);fill-opacity:1;stroke-width:0.156;stroke-linecap:butt;stroke-linejoin:miter;stroke:rgb(0%,44.313726%,70.19608%);stroke-opacity:1;stroke-miterlimit:3.863;" d="M 40.030893 75.461766 C 12.725074 75.461766 -4.337786 45.887719 9.3147 22.240824 C 22.968878 -1.406071 57.092908 -1.406071 70.747931 22.240824 C 84.401263 45.887719 67.338402 75.461766 40.030893 75.461766 Z M 40.030893 75.461766 " transform="matrix(4.620553,0,0,4.620553,0,0.219479)"/>
    <path style=" stroke:none;fill-rule:nonzero;fill:rgb(100%,100%,100%);fill-opacity:1;" d="M 279.996094 179.4375 L 258.898438 146.632812 C 255.867188 142.875 249.503906 138.535156 244.445312 139.117188 L 244.445312 133.480469 C 248.058594 131.742188 250.511719 128.277344 250.511719 123.796875 C 250.511719 118.160156 246.035156 113.246094 239.964844 113.246094 C 234.320312 113.246094 229.558594 118.160156 229.558594 123.796875 C 229.558594 128.566406 232.589844 132.320312 236.929688 133.765625 L 236.929688 138.683594 C 231.003906 138.683594 216.695312 142.582031 216.695312 157.179688 L 216.695312 187.964844 C 216.695312 190.425781 218.71875 192.449219 221.175781 192.449219 C 223.777344 192.449219 225.652344 190.425781 225.652344 187.964844 L 225.652344 159.496094 C 225.652344 158.339844 226.523438 157.761719 227.675781 157.761719 C 228.832031 157.761719 229.414062 158.339844 229.414062 159.496094 L 229.414062 241.441406 C 229.414062 244.042969 231.582031 246.203125 234.328125 246.203125 C 236.789062 246.203125 238.660156 244.035156 238.660156 241.441406 L 238.660156 197.214844 C 238.660156 195.480469 239.964844 194.324219 241.695312 194.324219 C 243.433594 194.324219 244.445312 195.480469 244.445312 197.214844 L 244.445312 251.703125 C 244.445312 254.15625 246.617188 256.613281 249.355469 256.613281 C 251.8125 256.613281 253.839844 254.160156 253.839844 251.703125 L 253.839844 156.601562 L 271.324219 184.0625 C 272.769531 186.515625 274.789062 186.234375 276.53125 185.652344 C 277.972656 191.289062 278.984375 194.609375 282.890625 194.757812 L 295.027344 195.480469 L 286.359375 223.515625 L 293.003906 223.515625 L 293.003906 244.035156 C 293.003906 245.339844 294.449219 246.636719 296.039062 246.636719 C 297.777344 246.636719 299.074219 245.34375 299.074219 244.035156 L 299.074219 223.226562 L 302.980469 223.226562 L 302.980469 239.988281 C 302.980469 241.433594 304.277344 242.882812 306.011719 242.882812 C 307.746094 242.882812 309.1875 241.433594 309.1875 239.988281 L 309.1875 223.515625 L 315.550781 223.515625 L 309.480469 200.394531 L 317.285156 209.070312 C 318.296875 209.644531 319.308594 209.644531 319.886719 209.070312 C 320.753906 208.34375 321.046875 207.621094 320.320312 206.171875 L 309.769531 194.175781 C 307.605469 191.863281 306.304688 190.417969 303.410156 189.835938 C 302.6875 189.121094 302.980469 188.25 303.121094 187.390625 C 305.722656 186.234375 307.167969 183.484375 307.167969 180.597656 C 307.167969 176.40625 304.132812 173.078125 300.085938 173.078125 C 295.605469 173.078125 292.28125 176.40625 292.28125 180.597656 C 292.28125 183.917969 294.453125 186.664062 297.777344 187.671875 C 297.917969 188.683594 298.066406 190.273438 296.765625 190.851562 L 286.648438 190.851562 C 284.917969 190.851562 284.046875 190.5625 282.894531 189.253906 C 281.875 187.382812 280.578125 184.777344 280.578125 183.480469 C 280.578125 182.46875 280.289062 182.609375 279.859375 182.179688 C 280.28125 181.460938 280.574219 180.882812 279.996094 179.4375 Z M 279.996094 179.4375 "/>
    <path style="fill-rule:evenodd;fill:rgb(100%,100%,100%);fill-opacity:1;stroke-width:0.156;stroke-linecap:butt;stroke-linejoin:miter;stroke:rgb(100%,100%,100%);stroke-opacity:1;stroke-miterlimit:3.863;" d="M 40.845866 77.151736 L 39.235365 77.151736 L 39.235365 2.815895 L 40.845866 2.815895 Z M 40.845866 77.151736 " transform="matrix(4.620553,0,0,4.620553,0,0.219479)"/>
    <path style=" stroke:none;fill-rule:nonzero;fill:rgb(100%,100%,100%);fill-opacity:1;" d="M 70.5 163.542969 L 100.710938 190.710938 C 99.550781 192.015625 98.828125 193.890625 98.828125 195.621094 C 98.828125 199.527344 102.152344 202.847656 105.765625 203.285156 L 105.765625 212.242188 L 104.609375 212.242188 L 104.609375 213.832031 L 108.367188 213.832031 L 108.367188 212.242188 L 107.355469 212.242188 L 107.355469 203.429688 C 110.96875 203.289062 113.859375 200.398438 114.292969 196.925781 L 118.628906 196.925781 C 119.207031 211.816406 131.199219 223.230469 145.800781 223.230469 C 161.117188 223.230469 173.40625 210.945312 173.40625 195.769531 C 173.40625 180.746094 161.117188 168.453125 145.800781 168.453125 C 141.320312 168.453125 137.128906 169.464844 133.371094 171.632812 L 125.566406 157.472656 L 127.445312 153.570312 C 128.023438 152.558594 129.46875 152.988281 130.480469 151.976562 C 130.621094 151.257812 130.621094 150.820312 130.621094 150.246094 C 130.191406 149.808594 130.046875 149.375 129.324219 149.375 L 119.207031 149.375 C 119.0625 149.523438 118.628906 149.375 118.339844 149.375 C 118.339844 149.523438 118.050781 149.667969 117.90625 149.667969 C 117.765625 150.386719 117.765625 150.964844 117.90625 151.546875 C 118.050781 151.691406 118.339844 151.832031 118.484375 151.832031 L 123.6875 151.832031 C 124.265625 151.691406 124.699219 151.976562 125.421875 151.976562 C 125.421875 152.125 125.421875 152.125 125.710938 152.269531 C 125.566406 152.84375 125.996094 153.28125 125.710938 153.421875 L 124.699219 155.882812 L 72.238281 155.882812 L 73.679688 149.667969 C 74.980469 149.375 75.851562 150.246094 78.304688 149.230469 C 79.171875 149.230469 81.484375 148.078125 84.085938 148.945312 C 84.667969 148.511719 83.941406 148.363281 84.234375 148.21875 C 83.941406 148.078125 84.667969 147.207031 84.519531 147.066406 C 83.078125 146.632812 79.464844 146.34375 77.871094 147.207031 C 76.136719 148.21875 73.96875 147.644531 72.382812 147.785156 L 67.179688 170.191406 C 64.285156 169.03125 60.820312 168.3125 57.492188 168.3125 C 42.320312 168.3125 30.035156 180.597656 30.035156 195.765625 C 30.035156 210.941406 42.320312 223.226562 57.492188 223.226562 C 72.382812 223.226562 84.808594 210.941406 84.808594 195.765625 C 84.808594 184.640625 78.019531 175.246094 68.625 170.910156 L 70.5 163.542969 "/>
    <path style="fill:none;stroke-width:0.156;stroke-linecap:butt;stroke-linejoin:miter;stroke:rgb(100%,100%,100%);stroke-opacity:1;stroke-miterlimit:3.863;" d="M 11.473871 36.004059 C 11.818798 35.971934 12.100318 35.878093 12.444399 35.878093 C 15.946923 35.878093 18.82469 38.786295 18.82469 42.320944 C 18.82469 42.539905 18.82469 42.758865 18.794255 42.948237 " transform="matrix(4.620553,0,0,4.620553,0,0.219479)"/>
    <path style=" stroke:none;fill-rule:nonzero;fill:rgb(0%,44.313726%,70.19608%);fill-opacity:1;" d="M 59.664062 192.449219 C 58.945312 192.015625 58.222656 192.15625 57.5 192.15625 C 55.1875 192.15625 53.308594 194.03125 53.308594 196.0625 C 53.308594 198.371094 55.1875 199.960938 57.5 199.960938 C 59.085938 199.960938 60.824219 198.949219 61.253906 197.214844 L 82.070312 197.214844 C 81.203125 210.367188 70.503906 220.484375 57.5 220.484375 C 43.621094 220.484375 32.496094 209.355469 32.496094 195.621094 C 32.496094 181.75 43.621094 170.621094 57.5 170.621094 C 60.675781 170.621094 63.570312 171.488281 66.75 172.5 L 65.015625 179.292969 C 64.003906 183.199219 62.84375 187.675781 59.664062 192.449219 "/>
    <path style=" stroke:none;fill-rule:nonzero;fill:rgb(0%,44.313726%,70.19608%);fill-opacity:1;" d="M 68.339844 173.371094 L 66.605469 180.449219 C 65.738281 183.628906 62.992188 190.710938 60.824219 193.457031 C 60.824219 194.03125 61.253906 194.753906 61.402344 195.332031 L 82.070312 195.332031 C 81.917969 185.507812 76.433594 177.269531 68.339844 173.371094 Z M 68.339844 173.371094 "/>
    <path style=" stroke:none;fill-rule:nonzero;fill:rgb(0%,44.313726%,70.19608%);fill-opacity:1;" d="M 70.9375 162.097656 L 71.808594 157.761719 L 123.832031 157.761719 L 109.378906 188.253906 C 108.65625 187.964844 108.222656 187.675781 107.210938 187.675781 L 107.210938 179.011719 L 108.367188 179.011719 L 108.367188 177.417969 L 104.609375 177.417969 L 104.609375 179.011719 L 105.765625 179.011719 L 105.765625 187.824219 C 103.527344 188.039062 103.164062 188.6875 102.152344 189.699219 L 70.9375 162.097656 "/>
    <path style=" stroke:none;fill-rule:nonzero;fill:rgb(0%,44.313726%,70.19608%);fill-opacity:1;" d="M 151.4375 193.027344 L 167.910156 183.917969 C 169.792969 187.675781 170.945312 191.722656 170.945312 195.765625 C 170.945312 209.5 159.820312 220.769531 145.945312 220.769531 C 132.648438 220.769531 121.808594 210.363281 121.371094 196.921875 L 140.597656 196.921875 C 140.886719 199.523438 143.34375 201.550781 145.945312 201.550781 C 149.125 201.550781 151.726562 198.949219 151.726562 195.765625 C 151.726562 194.753906 151.582031 194.03125 151.289062 193.3125 "/>
    <path style=" stroke:none;fill-rule:nonzero;fill:rgb(0%,44.313726%,70.19608%);fill-opacity:1;" d="M 150.429688 192.160156 L 167.050781 182.910156 C 162.570312 175.828125 155.050781 171.058594 145.804688 171.058594 C 142.046875 171.058594 138.144531 171.929688 134.820312 173.519531 L 144.214844 190.714844 C 144.644531 190.429688 145.515625 190.28125 145.949219 190.28125 C 147.675781 190.277344 149.265625 191.007812 150.429688 192.160156 "/>
    <path style=" stroke:none;fill-rule:nonzero;fill:rgb(0%,44.313726%,70.19608%);fill-opacity:1;" d="M 133.371094 174.667969 L 142.765625 191.722656 C 141.898438 192.734375 140.886719 193.890625 140.742188 195.1875 L 121.230469 195.1875 C 121.371094 186.515625 126.144531 178.855469 133.082031 174.519531 "/>
    <path style=" stroke:none;fill-rule:nonzero;fill:rgb(0%,44.313726%,70.19608%);fill-opacity:1;" d="M 124.699219 159.203125 L 111.257812 188.976562 C 112.992188 190.425781 114.582031 192.734375 114.726562 195.335938 L 118.917969 195.335938 C 119.207031 185.652344 124.265625 177.125 132.070312 172.359375 L 124.699219 159.203125 "/>
    <path style="fill:none;stroke-width:0.156;stroke-linecap:butt;stroke-linejoin:miter;stroke:rgb(100%,100%,100%);stroke-opacity:1;stroke-miterlimit:3.863;" d="M 25.330947 43.323598 C 25.269232 43.010797 25.237106 42.665871 25.237106 42.32179 C 25.237106 38.787141 28.146154 35.878939 31.648677 35.878939 C 34.308329 35.878939 36.529215 37.506348 37.530178 39.695108 " transform="matrix(4.620553,0,0,4.620553,0,0.219479)"/>
  </g>
</svg>