<svg id="Layer_1" data-name="Layer 1" xmlns="http://www.w3.org/2000/svg" xmlns:xlink="http://www.w3.org/1999/xlink" viewBox="0 0 400 400"><defs><style>.cls-1,.cls-4{fill:none;}.cls-2,.cls-6,.cls-7{fill:#f7d728;}.cls-3{clip-path:url(#clip-path);}.cls-4,.cls-6,.cls-7{stroke:#fff;}.cls-4{stroke-width:7px;}.cls-5{fill:#fff;}.cls-6{stroke-width:6px;stroke-dasharray:13 3;}.cls-7{stroke-width:7px;}</style><clipPath id="clip-path"><circle class="cls-1" cx="200.39" cy="200" r="200"/></clipPath></defs><circle id="Ellipse_182" data-name="Ellipse 182" class="cls-2" cx="200.39" cy="200" r="200"/><g class="cls-3"><g id="Mask_Group_1" data-name="Mask Group 1"><g id="Group_334" data-name="Group 334"><g id="Group_331" data-name="Group 331"><line id="Line_1" data-name="Line 1" class="cls-4" x1="137.92" y1="224.95" x2="233.04" y2="327.83"/><line id="Line_15" data-name="Line 15" class="cls-4" x1="103.4" y1="250.4" x2="176.35" y2="350.76"/><line id="Line_2" data-name="Line 2" class="cls-4" x1="179.41" y1="189.31" x2="298.47" y2="326.96"/><line id="Line_9" data-name="Line 9" class="cls-4" x1="349.15" y1="239" x2="352.96" y2="335.77"/><line id="Line_10" data-name="Line 10" class="cls-4" x1="299.69" y1="237.6" x2="298.22" y2="329.05"/><line id="Line_12" data-name="Line 12" class="cls-4" x1="339.59" y1="201.12" x2="259.23" y2="278.64"/><line id="Line_14" data-name="Line 14" class="cls-4" x1="219.13" y1="309.79" x2="176.37" y2="350.57"/><line id="Line_13" data-name="Line 13" class="cls-4" x1="310.23" y1="172.49" x2="229.87" y2="250.01"/><line id="Line_16" data-name="Line 16" class="cls-4" x1="307.75" y1="171.98" x2="354.44" y2="244.32"/><line id="Line_11" data-name="Line 11" class="cls-4" x1="299.69" y1="237.6" x2="349.15" y2="239"/><path id="Path_803" data-name="Path 803" class="cls-4" d="M55.76,443.29s63.19-56.78,131.3-91c53.79-27,108.22-39.39,154.09-1.13"/><line id="Line_3" data-name="Line 3" class="cls-4" x1="226.16" y1="501.34" x2="310.35" y2="337.32"/><line id="Line_4" data-name="Line 4" class="cls-4" x1="180.87" y1="355.36" x2="209.58" y2="394.52"/><line id="Line_5" data-name="Line 5" class="cls-4" x1="205.49" y1="389.78" x2="309.38" y2="466.17"/><line id="Line_6" data-name="Line 6" class="cls-4" x1="209.27" y1="393.78" x2="152.46" y2="492.13"/><line id="Line_7" data-name="Line 7" class="cls-4" x1="270.33" y1="295.96" x2="244.3" y2="331.72"/><g id="Ellipse_68" data-name="Ellipse 68"><circle class="cls-1" cx="357.41" cy="356.42" r="22.2"/><circle class="cls-4" cx="357.41" cy="356.42" r="18.7"/></g><line id="Line_8" data-name="Line 8" class="cls-4" x1="361.41" y1="377.53" x2="379.53" y2="495.99"/></g><g id="Group_332" data-name="Group 332"><line id="Line_1-2" data-name="Line 1-2" class="cls-4" x1="-82.61" y1="224.95" x2="12.51" y2="327.83"/><line id="Line_2-2" data-name="Line 2-2" class="cls-4" x1="-41.12" y1="189.31" x2="77.94" y2="326.96"/><line id="Line_9-2" data-name="Line 9-2" class="cls-4" x1="128.62" y1="239" x2="132.43" y2="335.77"/><line id="Line_10-2" data-name="Line 10-2" class="cls-4" x1="79.16" y1="237.6" x2="77.69" y2="329.05"/><line id="Line_12-2" data-name="Line 12-2" class="cls-4" x1="119.06" y1="201.12" x2="38.7" y2="278.64"/><line id="Line_14-2" data-name="Line 14-2" class="cls-4" x1="-1.4" y1="309.79" x2="-44.16" y2="350.57"/><line id="Line_13-2" data-name="Line 13-2" class="cls-4" x1="89.7" y1="172.49" x2="9.34" y2="250.01"/><line id="Line_16-2" data-name="Line 16-2" class="cls-4" x1="87.22" y1="171.98" x2="133.91" y2="244.32"/><line id="Line_11-2" data-name="Line 11-2" class="cls-4" x1="79.16" y1="237.6" x2="128.62" y2="239"/><path id="Path_803-2" data-name="Path 803-2" class="cls-4" d="M-164.77,443.29s63.19-56.78,131.3-91c53.79-27,108.22-39.39,154.09-1.13"/><line id="Line_3-2" data-name="Line 3-2" class="cls-4" x1="5.63" y1="501.34" x2="89.82" y2="337.32"/><line id="Line_5-2" data-name="Line 5-2" class="cls-4" x1="-15.04" y1="389.78" x2="88.85" y2="466.17"/><line id="Line_7-2" data-name="Line 7-2" class="cls-4" x1="49.8" y1="295.96" x2="23.77" y2="331.72"/><g id="Ellipse_68-2" data-name="Ellipse 68-2"><circle class="cls-1" cx="136.88" cy="356.42" r="22.2"/><circle class="cls-4" cx="136.88" cy="356.42" r="18.7"/></g><line id="Line_8-2" data-name="Line 8-2" class="cls-4" x1="140.88" y1="377.53" x2="159" y2="495.99"/></g></g></g></g><path id="Subtraction_2" data-name="Subtraction 2" class="cls-2" d="M389,265.48H11C-25.11,161.08,30.29,47.2,134.69,11.13S353,30.45,389,134.85A200,200,0,0,1,389,265.48Z"/><path id="Path_943" data-name="Path 943" class="cls-5" d="M264.37,143.65A41.14,41.14,0,0,0,254,145.13l-17.14-41.25h19.46a4.7,4.7,0,0,1,4.65,4.66,4.77,4.77,0,0,1-3.81,4.65l-3.39-1.7a4.09,4.09,0,0,0-3.81.22,3.93,3.93,0,0,0-1.9,3.17V117a3.81,3.81,0,0,0,3.79,3.81h4.47a12.48,12.48,0,0,0-.42-25h-25a3.72,3.72,0,0,0-3.17,1.69,4.25,4.25,0,0,0-.42,3.59l7.19,17.35H180l-3.81-8H184a3.76,3.76,0,0,0,3.6-3.81,3.82,3.82,0,0,0-3.36-4.23h0l-23.05-2.75a4.64,4.64,0,0,0-4.45,1.9,6.32,6.32,0,0,0-.42,6.13,4.93,4.93,0,0,0,4.45,2.75h6.76l5.08,11-18.19,26.88a35.91,35.91,0,0,0-17.76-4.66,36.6,36.6,0,1,0,36.6,40.41h20.51a10.83,10.83,0,0,0,20.95-3.81,10.63,10.63,0,0,0-1.9-6.13l26.44-44.42,7.62,18.2a36.79,36.79,0,1,0,17.55-4.24h0Zm-87.79-13.74,19.88,42.52a8.15,8.15,0,0,0-2.75,4.23H173.19a37.32,37.32,0,0,0-12.47-23.91Zm-11.21,46.74H144l12.27-17.56a28.5,28.5,0,0,1,9.09,17.56Zm-28.76,32.79a29,29,0,0,1,0-58,31.17,31.17,0,0,1,13.33,3.17l-13.12,18.83h-.21a7,7,0,0,0,0,14,7.33,7.33,0,0,0,5.71-3h23.05a29,29,0,0,1-28.77,24.95Zm69.8-39.56a11.66,11.66,0,0,0-2.75-.42h-.22l-19.88-42.73h48.66Zm58,39.56a28.93,28.93,0,0,1-14.59-53.94l8.89,21.15a7.17,7.17,0,0,0-1.06,3.8,7,7,0,1,0,14,0,6.81,6.81,0,0,0-5.5-6.76l-8.88-21.15a28.45,28.45,0,0,1,7.4-1.06,29,29,0,0,1,29,29c0,15.86-13.33,29-29.19,29Z"/><g id="Group_330" data-name="Group 330"><path id="Path_807" data-name="Path 807" class="cls-6" d="M0,241H395.82"/><path id="Path_808" data-name="Path 808" class="cls-7" d="M0,216.85H407.45"/><path id="Path_809" data-name="Path 809" class="cls-7" d="M0,265.05H407.45"/></g></svg>