<?xml version="1.0" encoding="UTF-8" standalone="yes"?>
<svg xmlns="http://www.w3.org/2000/svg" xmlns:xlink="http://www.w3.org/1999/xlink" width="356px" height="376px" viewBox="0 0 356 376" version="1.1">
  <g id="surface1">
    <path style=" stroke:none;fill-rule:nonzero;fill:rgb(78.431374%,78.431374%,78.431374%);fill-opacity:1;" d="M 0 0.433594 L 356 0.433594 L 356 375.566406 L 0 375.566406 Z M 0 0.433594 "/>
    <path style="fill:none;stroke-width:4.853075;stroke-linecap:round;stroke-linejoin:miter;stroke:rgb(0%,0%,0%);stroke-opacity:1;stroke-miterlimit:4;" d="M 74.434403 136.772381 L 130.961593 136.772381 " transform="matrix(3.704868,0,0,3.695618,-137.644647,-393.966219)"/>
    <path style="fill:none;stroke-width:4.853;stroke-linecap:butt;stroke-linejoin:miter;stroke:rgb(100%,100%,0%);stroke-opacity:1;stroke-dasharray:4.853,4.853;stroke-miterlimit:4;" d="M 74.434403 136.772381 L 130.961593 136.772381 " transform="matrix(3.704868,0,0,3.695618,-137.644647,-393.966219)"/>
    <path style="fill:none;stroke-width:4.853075;stroke-linecap:round;stroke-linejoin:miter;stroke:rgb(0%,0%,0%);stroke-opacity:1;stroke-miterlimit:4;" d="M 40.157289 179.935838 L 96.684478 179.935838 " transform="matrix(3.704868,0,0,3.695618,-137.644647,-393.966219)"/>
    <path style="fill:none;stroke-width:4.853;stroke-linecap:butt;stroke-linejoin:miter;stroke:rgb(100%,100%,0%);stroke-opacity:1;stroke-dasharray:4.853001,4.853001;stroke-miterlimit:4;" d="M 40.157289 179.935838 L 96.684478 179.935838 " transform="matrix(3.704868,0,0,3.695618,-137.644647,-393.966219)"/>
    <path style="fill:none;stroke-width:0.7;stroke-linecap:butt;stroke-linejoin:miter;stroke:rgb(100%,0%,0%);stroke-opacity:1;stroke-miterlimit:4;" d="M 86.329648 176.109515 L 86.329648 141.230787 " transform="matrix(3.704868,0,0,3.695618,-137.644647,-393.966219)"/>
    <path style="fill-rule:evenodd;fill:rgb(100%,0%,0%);fill-opacity:1;stroke-width:1.25;stroke-linecap:butt;stroke-linejoin:miter;stroke:rgb(100%,0%,0%);stroke-opacity:1;stroke-miterlimit:4;" d="M 0.0000970659 -0.000568203 L 5.000062 -4.999345 L -12.500759 -0.000568203 L 5.000062 5.000092 Z M 0.0000970659 -0.000568203 " transform="matrix(-0.000000000000000381,-2.069546,2.074726,-0.00000000000000038,182.196491,230.996295)"/>
    <path style="fill-rule:evenodd;fill:rgb(100%,0%,0%);fill-opacity:1;stroke-width:1.25;stroke-linecap:butt;stroke-linejoin:miter;stroke:rgb(100%,0%,0%);stroke-opacity:1;stroke-miterlimit:4;" d="M -0.000358046 0.000568203 L 4.999607 -5.000092 L -12.499326 0.000568203 L 4.999607 4.999345 Z M -0.000358046 0.000568203 " transform="matrix(0.000000000000000381,2.069546,-2.074726,0.00000000000000038,182.196491,153.836678)"/>
    <path style="fill:none;stroke-width:0.662941;stroke-linecap:butt;stroke-linejoin:miter;stroke:rgb(100%,0%,0%);stroke-opacity:1;stroke-miterlimit:4;" d="M 38.88679 136.772381 L 70.170587 136.772381 " transform="matrix(3.704868,0,0,3.695618,-137.644647,-393.966219)"/>
    <path style="fill-rule:evenodd;fill:rgb(100%,0%,0%);fill-opacity:1;stroke-width:1.25;stroke-linecap:butt;stroke-linejoin:miter;stroke:rgb(100%,0%,0%);stroke-opacity:1;stroke-miterlimit:4;" d="M 0.00097864 0.000888647 L 5.000865 -4.999555 L -12.49973 0.000888647 L 5.000865 4.999339 Z M 0.00097864 0.000888647 " transform="matrix(1.964889,0,0,1.959982,30.986358,111.490446)"/>
    <path style="fill-rule:evenodd;fill:rgb(100%,0%,0%);fill-opacity:1;stroke-width:1.25;stroke-linecap:butt;stroke-linejoin:miter;stroke:rgb(100%,0%,0%);stroke-opacity:1;stroke-miterlimit:4;" d="M -0.000272127 -0.000888647 L 4.999614 -4.999339 L -12.500981 -0.000888647 L 4.999614 4.999555 Z M -0.000272127 -0.000888647 " transform="matrix(-1.964889,0,0,-1.959982,97.76509,111.490446)"/>
    <path style="fill:none;stroke-width:0.508849;stroke-linecap:butt;stroke-linejoin:miter;stroke:rgb(100%,0%,0%);stroke-opacity:1;stroke-miterlimit:4;" d="M 73.923041 158.602503 L 97.934945 158.602503 " transform="matrix(3.704868,0,0,3.695618,-137.644647,-393.966219)"/>
    <path style="fill-rule:evenodd;fill:rgb(100%,0%,0%);fill-opacity:1;stroke-width:1.25;stroke-linecap:butt;stroke-linejoin:miter;stroke:rgb(100%,0%,0%);stroke-opacity:1;stroke-miterlimit:4;" d="M -0.000479416 -0.00104802 L 5.000906 -4.999373 L -12.500058 -0.00104802 L 5.000906 4.999874 Z M -0.000479416 -0.00104802 " transform="matrix(1.508176,0,0,1.50441,155.082754,192.169545)"/>
    <path style="fill-rule:evenodd;fill:rgb(100%,0%,0%);fill-opacity:1;stroke-width:1.25;stroke-linecap:butt;stroke-linejoin:miter;stroke:rgb(100%,0%,0%);stroke-opacity:1;stroke-miterlimit:4;" d="M -0.000128224 0.00104802 L 5.001257 -4.999874 L -12.499706 0.00104802 L 5.001257 4.999373 Z M -0.000128224 0.00104802 " transform="matrix(-1.508176,0,0,-1.50441,206.33965,192.169545)"/>
    <path style="fill:none;stroke-width:0.746717;stroke-linecap:butt;stroke-linejoin:miter;stroke:rgb(100%,0%,0%);stroke-opacity:1;stroke-dasharray:0.746717,0.746717;stroke-miterlimit:4;" d="M 99.292955 180.05105 L 99.292955 140.361937 " transform="matrix(3.704868,0,0,3.695618,-137.644647,-393.966219)"/>
    <path style="fill:none;stroke-width:0.737865;stroke-linecap:butt;stroke-linejoin:miter;stroke:rgb(100%,0%,0%);stroke-opacity:1;stroke-dasharray:0.737865,0.737865;stroke-miterlimit:4;" d="M 72.432181 176.710945 L 72.432181 137.956216 " transform="matrix(3.704868,0,0,3.695618,-137.644647,-393.966219)"/>
  </g>
</svg>