<?xml version="1.0" encoding="UTF-8" standalone="yes"?>
<svg xmlns="http://www.w3.org/2000/svg" xmlns:xlink="http://www.w3.org/1999/xlink" width="375px" height="375px" viewBox="0 0 375 375" version="1.1">
  <g id="surface1">
    <path style=" stroke:none;fill-rule:nonzero;fill:rgb(3.137255%,0%,0%);fill-opacity:1;" d="M 202.777344 351.15625 C 197.339844 363.003906 180.503906 363.003906 175.066406 351.15625 L 81.335938 146.859375 C 76.703125 136.761719 84.082031 125.257812 95.191406 125.257812 L 282.648438 125.257812 C 293.757812 125.257812 301.136719 136.761719 296.503906 146.859375 Z M 202.777344 351.15625 "/>
    <path style=" stroke:none;fill-rule:nonzero;fill:rgb(3.137255%,0%,0%);fill-opacity:1;" d="M 336.785156 155.746094 C 336.785156 238.253906 269.902344 305.136719 187.398438 305.136719 C 104.890625 305.136719 38.007812 238.253906 38.007812 155.746094 C 38.007812 73.238281 104.890625 6.355469 187.398438 6.355469 C 269.902344 6.355469 336.785156 73.238281 336.785156 155.746094 Z M 336.785156 155.746094 "/>
    <path style="fill-rule:nonzero;fill:rgb(100%,98.823529%,100%);fill-opacity:1;stroke-width:3.509;stroke-linecap:round;stroke-linejoin:round;stroke:rgb(100%,100%,100%);stroke-opacity:1;stroke-miterlimit:4;" d="M 46.171488 1.138089 L 70.134195 1.137316 L 70.134107 5.128611 L 46.170859 5.128222 Z M 46.171488 1.138089 " transform="matrix(2.763856,1.286919,-1.286919,2.763856,15.243902,3.04878)"/>
    <path style=" stroke:none;fill-rule:nonzero;fill:rgb(100%,100%,100%);fill-opacity:1;" d="M 162.398438 94.199219 L 182.265625 94.199219 L 182.265625 121.589844 L 162.398438 121.589844 Z M 162.398438 94.199219 "/>
    <path style="fill:none;stroke-width:7.939;stroke-linecap:round;stroke-linejoin:miter;stroke:rgb(100%,100%,100%);stroke-opacity:1;stroke-miterlimit:4;" d="M 47.842594 77.142156 L 71.663594 77.352281 " transform="matrix(3.04878,0,0,3.04878,15.243902,3.04878)"/>
    <path style="fill-rule:nonzero;fill:rgb(100%,100%,100%);fill-opacity:1;stroke-width:2.872;stroke-linecap:round;stroke-linejoin:round;stroke:rgb(100%,100%,100%);stroke-opacity:1;stroke-miterlimit:4;" d="M 39.906794 47.422458 L 47.375477 47.423509 L 47.374981 83.467558 L 39.907308 83.468011 Z M 39.906794 47.422458 " transform="matrix(2.992099,-0.585154,0.585154,2.992099,15.243902,3.04878)"/>
    <path style="fill:none;stroke-width:2.6;stroke-linecap:butt;stroke-linejoin:miter;stroke:rgb(100%,100%,100%);stroke-opacity:1;stroke-miterlimit:4;" d="M 61.790281 70.320781 C 61.790281 70.320781 70.291375 71.425219 70.291375 66.122125 L 70.291375 34.921125 C 70.291375 34.921125 70.468187 31.296469 74.445188 31.296469 C 78.422188 31.296469 78.510594 34.744312 78.510594 34.744312 L 78.599 64.619219 " transform="matrix(3.04878,0,0,3.04878,15.243902,3.04878)"/>
    <path style="fill-rule:nonzero;fill:rgb(100%,99.607843%,100%);fill-opacity:1;stroke-width:2;stroke-linecap:butt;stroke-linejoin:round;stroke:rgb(100%,99.607843%,100%);stroke-opacity:0.970149;stroke-miterlimit:4;" d="M 76.543875 62.218156 L 80.561875 62.187406 L 80.687438 66.828094 L 83.688125 66.765313 L 83.791906 70.987031 L 80.008375 70.961406 C 77.278031 70.691063 76.331187 69.753188 76.522094 67.391844 Z M 76.543875 62.218156 " transform="matrix(3.04878,0,0,3.04878,15.243902,3.04878)"/>
    <path style="fill:none;stroke-width:7.939;stroke-linecap:round;stroke-linejoin:miter;stroke:rgb(100%,0%,18.431373%);stroke-opacity:1;stroke-miterlimit:4;" d="M 80.687958 63.907347 L 97.680165 47.211245 " transform="matrix(3.522295,0,0,3.522295,-177.187233,22.266677)"/>
    <path style="fill:none;stroke-width:7.939;stroke-linecap:round;stroke-linejoin:miter;stroke:rgb(100%,0%,18.431373%);stroke-opacity:1;stroke-miterlimit:4;" d="M 80.747844 46.886306 L 97.443947 63.879622 " transform="matrix(3.522295,0,0,3.522295,-177.187233,22.266677)"/>
    <path style="fill:none;stroke-width:1.5;stroke-linecap:round;stroke-linejoin:miter;stroke:rgb(100%,94.901961%,96.862745%);stroke-opacity:1;stroke-miterlimit:4;" d="M 42.637887 56.720158 L 32.870883 59.580638 " transform="matrix(-1.178466,1.00587,-1.00587,-1.178466,365.374612,120.626496)"/>
    <path style="fill:none;stroke-width:1.5;stroke-linecap:round;stroke-linejoin:miter;stroke:rgb(100%,94.901961%,96.862745%);stroke-opacity:1;stroke-miterlimit:4;" d="M 41.55656 54.849198 L 31.428801 53.8683 " transform="matrix(-1.178466,1.00587,-1.00587,-1.178466,365.374612,120.626496)"/>
    <path style="fill:none;stroke-width:1.5;stroke-linecap:round;stroke-linejoin:miter;stroke:rgb(100%,94.901961%,96.862745%);stroke-opacity:1;stroke-miterlimit:4;" d="M 42.911561 53.009269 L 34.051947 48.002847 " transform="matrix(-1.178466,1.00587,-1.00587,-1.178466,365.374612,120.626496)"/>
    <path style="fill:none;stroke-width:1;stroke-linecap:round;stroke-linejoin:miter;stroke:rgb(99.607843%,100%,100%);stroke-opacity:1;stroke-miterlimit:4;" d="M 31.023895 63.11541 C 33.069142 68.653119 23.128614 70.652831 25.25787 62.542742 C 25.337356 62.236026 25.733795 61.934668 25.226578 62.4862 C 18.565831 69.691807 9.067782 58.551886 21.410346 56.398142 C 9.319759 58.345993 13.883841 42.575569 25.69225 49.979582 C 13.805759 42.900056 25.043684 35.8192 28.701331 45.467778 C 28.735151 45.556309 28.745959 45.625199 28.739218 45.539893 C 28.157219 39.192704 33.498017 41.082971 34.319875 45.079263 " transform="matrix(-1.178466,1.00587,-1.00587,-1.178466,365.374612,120.626496)"/>
    <path style="fill-rule:nonzero;fill:rgb(3.137255%,0%,0%);fill-opacity:1;stroke-width:0.563483;stroke-linecap:round;stroke-linejoin:round;stroke:rgb(0%,0.392157%,0%);stroke-opacity:1;stroke-miterlimit:4;" d="M 84.762375 33.734031 C 84.762375 34.267031 84.308813 34.700094 83.750188 34.700094 C 83.191563 34.700094 82.738 34.267031 82.738 33.734031 C 82.738 33.201031 83.191563 32.76925 83.750188 32.76925 C 84.308813 32.76925 84.762375 33.201031 84.762375 33.734031 Z M 84.762375 33.734031 " transform="matrix(3.04878,0,0,3.04878,0,0)"/>
  </g>
</svg>