<?xml version="1.0" encoding="UTF-8" standalone="no"?>
<svg
   width="303"
   height="353.75391"
   viewBox="0 0 303 353.75391"
   version="1.1"
   id="svg21"
   sodipodi:docname="repair_station.svg"
   inkscape:version="1.1.1 (1:1.1+202109281949+c3084ef5ed)"
   xmlns:inkscape="http://www.inkscape.org/namespaces/inkscape"
   xmlns:sodipodi="http://sodipodi.sourceforge.net/DTD/sodipodi-0.dtd"
   xmlns="http://www.w3.org/2000/svg"
   xmlns:svg="http://www.w3.org/2000/svg">
  <defs
     id="defs10" />
  <sodipodi:namedview
     id="namedview23"
     pagecolor="#505050"
     bordercolor="#eeeeee"
     borderopacity="1"
     inkscape:pageshadow="0"
     inkscape:pageopacity="0"
     inkscape:pagecheckerboard="0"
     showgrid="false"
     inkscape:zoom="2.2486631"
     inkscape:cx="151.64566"
     inkscape:cy="187.22235"
     inkscape:current-layer="svg21" />
  <path
     style="fill:#feffff;fill-opacity:1;stroke:none;stroke-width:1.97728px;stroke-linecap:butt;stroke-linejoin:miter;stroke-opacity:1"
     d="M 78.094298,75.276172 99.465716,96.064632 112.94263,82.133831 93.027553,60.643501 c 0,0 49.817067,-14.524823 44.465977,34.961514 -0.0367,0.339557 70.23356,71.214035 70.23356,71.214035 47.81484,-8.02817 35.81789,45.47112 35.81789,45.47112 l -22.68221,-21.06445 -13.18046,14.60845 21.09318,19.98897 c 0,0 -49.53242,14.80277 -46.87766,-37.76153 0.0275,-0.54412 -69.11138,-67.6753 -69.11138,-67.6753 -48.526837,3.7379 -34.692152,-45.110138 -34.692152,-45.110138 z"
     id="path886"
     sodipodi:nodetypes="ccccscccccscc" />
  <path
     style="fill:#feffff;fill-opacity:1;stroke:none;stroke-width:1.97728px;stroke-linecap:butt;stroke-linejoin:miter;stroke-opacity:1"
     d="m 118.33626,166.89121 c -14.52781,24.8942 -79.689479,29.97303 -47.349409,65.89854 32.340089,35.92552 39.940129,-35.46137 65.307089,-47.63356 z"
     id="path2590"
     sodipodi:nodetypes="cscc" />
  <path
     style="fill:none;stroke:#ffffff;stroke-width:9.88638;stroke-linecap:butt;stroke-linejoin:miter;stroke-miterlimit:4;stroke-dasharray:none;stroke-opacity:1"
     d="m 131.2664,171.82291 12.43401,-12.06668"
     id="path2815"
     sodipodi:nodetypes="cc" />
  <path
     style="fill:none;stroke:#ffffff;stroke-width:9.88638;stroke-linecap:butt;stroke-linejoin:miter;stroke-miterlimit:4;stroke-dasharray:none;stroke-opacity:1"
     d="m 131.2664,171.82291 12.43401,-12.06668"
     id="path4002"
     sodipodi:nodetypes="cc" />
  <path
     style="fill:none;stroke:#ffffff;stroke-width:9.88638;stroke-linecap:butt;stroke-linejoin:miter;stroke-miterlimit:4;stroke-dasharray:none;stroke-opacity:1"
     d="M 177.74112,127.49099 213.427,91.87753"
     id="path4141"
     sodipodi:nodetypes="cc" />
  <path
     style="fill:none;stroke:#ffffff;stroke-width:19.7728;stroke-linecap:butt;stroke-linejoin:miter;stroke-miterlimit:4;stroke-dasharray:none;stroke-opacity:1"
     d="M 217.47704,85.567929 229.91105,73.501277"
     id="path4436"
     sodipodi:nodetypes="cc" />
</svg>
