<?xml version="1.0" encoding="UTF-8" standalone="no"?>
<!-- Created with Inkscape (http://www.inkscape.org/) -->

<svg
   xmlns:dc="http://purl.org/dc/elements/1.1/"
   xmlns:cc="http://creativecommons.org/ns#"
   xmlns:rdf="http://www.w3.org/1999/02/22-rdf-syntax-ns#"
   xmlns:svg="http://www.w3.org/2000/svg"
   xmlns="http://www.w3.org/2000/svg"
   xmlns:sodipodi="http://sodipodi.sourceforge.net/DTD/sodipodi-0.dtd"
   xmlns:inkscape="http://www.inkscape.org/namespaces/inkscape"
   width="210mm"
   height="297mm"
   viewBox="0 0 744.09448819 1052.3622047"
   id="svg2"
   version="1.1"
   inkscape:version="0.91 r13725"
   sodipodi:docname="Newspaper_kiosk3_3.svg">
  <defs
     id="defs4">
    <inkscape:perspective
       sodipodi:type="inkscape:persp3d"
       inkscape:vp_x="489.83756 : 335.66675 : 1"
       inkscape:vp_y="-221.02247 : 203.19766 : 0"
       inkscape:vp_z="314.35404 : 398.60764 : 1"
       inkscape:persp3d-origin="590.74531 : 461.01499 : 1"
       id="perspective7227" />
  </defs>
  <sodipodi:namedview
     id="base"
     pagecolor="#ffffff"
     bordercolor="#666666"
     borderopacity="1.0"
     inkscape:pageopacity="0.0"
     inkscape:pageshadow="2"
     inkscape:zoom="0.45254832"
     inkscape:cx="624.76104"
     inkscape:cy="713.05841"
     inkscape:document-units="px"
     inkscape:current-layer="layer1"
     showgrid="true"
     inkscape:window-width="1535"
     inkscape:window-height="876"
     inkscape:window-x="65"
     inkscape:window-y="24"
     inkscape:window-maximized="1">
    <inkscape:grid
       type="xygrid"
       id="grid4298" />
  </sodipodi:namedview>
  <metadata
     id="metadata7">
    <rdf:RDF>
      <cc:Work
         rdf:about="">
        <dc:format>image/svg+xml</dc:format>
        <dc:type
           rdf:resource="http://purl.org/dc/dcmitype/StillImage" />
        <dc:title />
      </cc:Work>
    </rdf:RDF>
  </metadata>
  <g
     inkscape:label="Layer 1"
     inkscape:groupmode="layer"
     id="layer1">
    <rect
       style="fill:#0a0d09;fill-opacity:1;stroke:#010b00;stroke-width:0;stroke-miterlimit:4;stroke-dasharray:none;stroke-opacity:1"
       id="rect4219-4-7"
       width="4.671258"
       height="555.7677"
       x="838.35303"
       y="643.25342"
       transform="matrix(0.79022392,-0.6128182,0,1,0,0)" />
    <path
       style="fill:#25581e;fill-opacity:1;fill-rule:evenodd;stroke:#000000;stroke-width:1.99004447;stroke-linecap:butt;stroke-linejoin:miter;stroke-miterlimit:4;stroke-dasharray:none;stroke-opacity:1"
       d="m 371.69252,126.63056 c 0,0 -10.61058,-25.65059 -36.19546,-12.30513 -24.43921,12.74781 -23.81753,43.03998 -48.26064,55.3129 -22.72609,11.41082 -25.53446,-17.57161 -48.26061,-6.16113 -23.2941,11.69558 -24.96603,43.30668 -48.26065,55.31291 -26.17398,13.49029 -22.09198,-19.82815 -48.26063,-6.16111 -24.99062,13.05179 -24.05712,42.58506 -48.260625,55.31296 C 68.610873,281.3953 71.527348,248.74741 45.933276,261.78081 23.182988,273.36595 9.7378019,310.94976 9.7378019,310.94976"
       id="path6563-0-9"
       inkscape:connector-curvature="0"
       sodipodi:nodetypes="csssssssc" />
    <path
       style="fill:#25581e;fill-opacity:1;fill-rule:evenodd;stroke:#000000;stroke-width:1.68917084;stroke-linecap:butt;stroke-linejoin:miter;stroke-miterlimit:4;stroke-dasharray:none;stroke-opacity:1"
       d="m 734.06218,112.41988 c 0,0 -11.4156,-34.483633 -38.94163,-33.965725 -26.2934,0.494706 -25.62458,34.547665 -51.92218,34.511775 -24.45035,-0.0334 -27.47179,-33.853879 -51.92218,-33.887661 -25.06143,-0.03466 -26.8602,34.201101 -51.92222,34.511771 -28.15981,0.3491 -23.7681,-34.436407 -51.92218,-33.887658 -26.88668,0.524039 -25.88236,33.907298 -51.92218,34.511818 -27.52404,0.63901 -24.3863,-34.053196 -51.9222,-33.887704 -24.47636,0.147105 -38.94165,34.433814 -38.94165,34.433814"
       id="path6563-0-7-15"
       inkscape:connector-curvature="0"
       sodipodi:nodetypes="csssssssc" />
    <path
       style="fill:#78a072;fill-opacity:1;fill-rule:evenodd;stroke:#2c6823;stroke-width:0;stroke-linecap:butt;stroke-linejoin:miter;stroke-miterlimit:4;stroke-dasharray:none;stroke-opacity:1"
       d="M 43.424264,846.20596 367.99573,661.07262 645.16385,662.63107 380.7213,851.97768 Z"
       id="path3518-2"
       inkscape:connector-curvature="0"
       sodipodi:nodetypes="ccccc" />
    <path
       style="fill:#78a072;fill-opacity:1;fill-rule:evenodd;stroke:#78a072;stroke-width:1.45520663;stroke-linecap:butt;stroke-linejoin:miter;stroke-miterlimit:4;stroke-dasharray:none;stroke-opacity:1"
       d="M 45.715909,849.95783 419.84263,648.72226 407.20259,135.48165 45.715909,318.25446 Z"
       id="path4324"
       inkscape:connector-curvature="0"
       sodipodi:nodetypes="ccccc" />
    <rect
       style="fill:#78a072;fill-opacity:1;stroke:#828382;stroke-width:7.75724745;stroke-miterlimit:4;stroke-dasharray:none;stroke-opacity:1"
       id="rect4219-3"
       width="278.2399"
       height="543.30273"
       x="380.31882"
       y="131.76976" />
    <rect
       style="fill:#2c6823;fill-opacity:1;stroke:#2c6823;stroke-width:15.42881837;stroke-miterlimit:4;stroke-dasharray:none;stroke-opacity:1"
       id="rect4219-8"
       width="305.0206"
       height="281.62708"
       x="468.07455"
       y="808.64545"
       transform="matrix(0.84848675,-0.52921663,0,1,0,0)" />
    <rect
       style="fill:#fffe73;fill-opacity:1;stroke:#e9f9e9;stroke-width:3.95503211;stroke-miterlimit:4;stroke-dasharray:none;stroke-opacity:1"
       id="rect4219-8-7"
       width="117.56584"
       height="107.34969"
       x="476.77921"
       y="957.32141"
       transform="matrix(0.85210621,-0.5233689,0,1,0,0)" />
    <rect
       style="fill:#fffe73;fill-opacity:1;stroke:#e9f9e9;stroke-width:3.95503211;stroke-miterlimit:4;stroke-dasharray:none;stroke-opacity:1"
       id="rect4219-8-7-7-0-9"
       width="117.56584"
       height="107.34969"
       x="628.05969"
       y="833.11609"
       transform="matrix(0.85210621,-0.5233689,0,1,0,0)"
       inkscape:transform-center-x="90.282931"
       inkscape:transform-center-y="39.341631" />
    <rect
       style="fill:#fffe73;fill-opacity:1;stroke:#e9f9e9;stroke-width:3.95503211;stroke-miterlimit:4;stroke-dasharray:none;stroke-opacity:1"
       id="rect4219-8-7-7-0"
       width="117.56584"
       height="107.34969"
       x="476.77921"
       y="827.29639"
       transform="matrix(0.85210621,-0.5233689,0,1,0,0)"
       inkscape:transform-center-x="90.282947"
       inkscape:transform-center-y="39.341587" />
    <rect
       style="fill:#2c6823;fill-opacity:1;stroke:#010b00;stroke-width:0;stroke-miterlimit:4;stroke-dasharray:none;stroke-opacity:1"
       id="rect4219-4"
       width="22.977047"
       height="554.70178"
       x="639.62952"
       y="128.77559" />
    <path
       style="fill:#2c6823;fill-opacity:1;fill-rule:evenodd;stroke:#050c04;stroke-width:4.07476425;stroke-linecap:butt;stroke-linejoin:miter;stroke-miterlimit:4;stroke-dasharray:none;stroke-opacity:1"
       d="m 337.96236,559.39282 292.83667,-154.62228 87.40786,1.01794 -277.82251,158.07275 z"
       id="path3518-0"
       inkscape:connector-curvature="0"
       sodipodi:nodetypes="ccccc"
       inkscape:transform-center-x="-40.509534"
       inkscape:transform-center-y="12.234761" />
    <rect
       style="fill:#fffeac;fill-opacity:1;stroke:#e9f9e9;stroke-width:1.79972577;stroke-miterlimit:4;stroke-dasharray:none;stroke-opacity:1"
       id="rect15157-3-8-0"
       width="70.104469"
       height="92.405304"
       x="560.27832"
       y="180.22142"
       inkscape:transform-center-x="-92.019139"
       inkscape:transform-center-y="5.9012492" />
    <rect
       style="fill:#fffeac;fill-opacity:1;stroke:#e9f9e9;stroke-width:1.79972577;stroke-miterlimit:4;stroke-dasharray:none;stroke-opacity:1"
       id="rect15157-3-8-1"
       width="70.104469"
       height="92.405304"
       x="474.25433"
       y="176.28725"
       inkscape:transform-center-x="3.4724437"
       inkscape:transform-center-y="96.386984" />
    <rect
       style="fill:#2c6823;fill-opacity:1;stroke:#010b00;stroke-width:5.59663439;stroke-miterlimit:4;stroke-dasharray:none;stroke-opacity:1"
       id="rect4219"
       width="345.19373"
       height="557.8219"
       x="46.213509"
       y="295.20825" />
    <rect
       style="fill:#fffe73;fill-opacity:1;stroke:#e9f9e9;stroke-width:7.31788206;stroke-miterlimit:4;stroke-dasharray:none;stroke-opacity:1"
       id="rect15157"
       width="275.00174"
       height="389.46222"
       x="86.687767"
       y="332.45871" />
    <rect
       style="fill:#fffe73;fill-opacity:1;stroke:#e9f9e9;stroke-width:1.79972577;stroke-miterlimit:4;stroke-dasharray:none;stroke-opacity:1"
       id="rect15157-3"
       width="70.104469"
       height="92.405304"
       x="58.226994"
       y="745.39648" />
    <rect
       style="fill:#fffe73;fill-opacity:1;stroke:#e9f9e9;stroke-width:1.79972577;stroke-miterlimit:4;stroke-dasharray:none;stroke-opacity:1"
       id="rect15157-3-1"
       width="70.104469"
       height="92.405304"
       x="304.94339"
       y="745.39648" />
    <rect
       style="fill:#fffe73;fill-opacity:1;stroke:#e9f9e9;stroke-width:1.79972577;stroke-miterlimit:4;stroke-dasharray:none;stroke-opacity:1"
       id="rect15157-3-5"
       width="70.104469"
       height="92.405304"
       x="223.34149"
       y="745.39648" />
    <rect
       style="fill:#fffe73;fill-opacity:1;stroke:#e9f9e9;stroke-width:1.79972577;stroke-miterlimit:4;stroke-dasharray:none;stroke-opacity:1"
       id="rect15157-3-7"
       width="70.104469"
       height="92.405304"
       x="140.00339"
       y="745.39648" />
    <rect
       style="fill:#fffe73;fill-opacity:1;stroke:#e9f9e9;stroke-width:3.95503211;stroke-miterlimit:4;stroke-dasharray:none;stroke-opacity:1"
       id="rect4219-8-7-7"
       width="117.56584"
       height="107.34969"
       x="628.05969"
       y="958.01172"
       transform="matrix(0.85210621,-0.5233689,0,1,0,0)"
       inkscape:transform-center-x="90.282931"
       inkscape:transform-center-y="39.341571" />
    <rect
       style="fill:#fffeac;fill-opacity:1;stroke:#e9f9e9;stroke-width:1.79972577;stroke-miterlimit:4;stroke-dasharray:none;stroke-opacity:1"
       id="rect15157-3-8"
       width="70.104469"
       height="92.405304"
       x="560.19238"
       y="297.51492" />
    <rect
       style="fill:#fffeac;fill-opacity:1;stroke:#e9f9e9;stroke-width:1.79972577;stroke-miterlimit:4;stroke-dasharray:none;stroke-opacity:1"
       id="rect15157-3-8-3"
       width="70.104469"
       height="92.405304"
       x="474.25433"
       y="297.51492"
       inkscape:transform-center-x="-78.129454"
       inkscape:transform-center-y="-15.736649" />
    <path
       style="fill:#2c6823;fill-opacity:1;fill-rule:evenodd;stroke:#000000;stroke-width:2.74399996;stroke-linecap:butt;stroke-linejoin:miter;stroke-miterlimit:4;stroke-dasharray:none;stroke-opacity:1"
       d="M 4.1745724,310.96591 396.60747,115.77773 731.72594,112.14453 411.99371,310.50208 Z"
       id="path3518"
       inkscape:connector-curvature="0"
       sodipodi:nodetypes="ccccc" />
    <text
       xml:space="preserve"
       style="font-style:normal;font-variant:normal;font-weight:500;font-stretch:normal;font-size:102.90770721px;line-height:125%;font-family:'Century Schoolbook L';-inkscape-font-specification:'Century Schoolbook L, Medium';text-align:start;letter-spacing:0px;word-spacing:0px;writing-mode:lr-tb;text-anchor:start;fill:#000000;fill-opacity:1;stroke:none;stroke-width:1px;stroke-linecap:butt;stroke-linejoin:miter;stroke-opacity:1"
       x="103.45692"
       y="404.74234"
       id="text16665"
       sodipodi:linespacing="125%"
       inkscape:transform-center-x="-31.251785"
       inkscape:transform-center-y="7.868328"
       transform="scale(0.9394854,1.0644125)"><tspan
         sodipodi:role="line"
         id="tspan16667"
         x="103.45692"
         y="404.74234">ELLE</tspan></text>
    <ellipse
       style="opacity:1;fill:#2c6823;fill-opacity:1;fill-rule:evenodd;stroke:#000000;stroke-width:3.47030473;stroke-linecap:round;stroke-linejoin:round;stroke-miterlimit:4;stroke-dasharray:none;stroke-dashoffset:0;stroke-opacity:1"
       id="path6557"
       cx="448.5687"
       cy="248.64709"
       rx="151.8517"
       ry="80.622414"
       transform="matrix(0.99028328,-0.13906481,-0.24660694,0.96911558,0,0)" />
    <path
       style="fill:#25581e;fill-opacity:1;fill-rule:evenodd;stroke:#000000;stroke-width:2.02551103;stroke-linecap:butt;stroke-linejoin:miter;stroke-miterlimit:4;stroke-dasharray:none;stroke-opacity:1"
       d="m 734.36563,111.20819 c 0,0 -9.51619,-27.598973 -32.46224,-13.239821 -21.91853,13.716121 -21.36098,46.309241 -43.283,59.514381 -20.38212,12.27756 -22.90083,-18.90632 -43.283,-6.62912 -20.89153,12.58397 -22.39102,46.59619 -43.28302,59.51439 -23.47439,14.51499 -19.81341,-21.33427 -43.28301,-6.62911 -22.41307,14.04319 -21.57586,45.81976 -43.283,59.51444 -22.94439,14.47524 -20.32872,-20.65254 -43.28301,-6.62913 -20.40381,12.46512 -32.46226,52.90373 -32.46226,52.90373"
       id="path6563-0"
       inkscape:connector-curvature="0"
       sodipodi:nodetypes="csssssssc" />
    <path
       style="fill:#25581e;fill-opacity:1;fill-rule:evenodd;stroke:#000000;stroke-width:2;stroke-linecap:butt;stroke-linejoin:miter;stroke-miterlimit:4;stroke-dasharray:none;stroke-opacity:1"
       d="m 409.10695,311.08365 c 0,0 -11.8634,-46.61 -40.46915,-46.13452 -27.32479,0.45417 -26.62973,46.39609 -53.95889,46.13445 -25.40943,-0.24322 -28.54939,-45.89065 -53.95887,-46.13445 -26.04449,-0.24994 -27.91382,45.91855 -53.95892,46.13445 -29.2644,0.24262 -24.70043,-46.64644 -53.95887,-46.13445 -27.94134,0.48893 -26.89762,45.53015 -53.958891,46.13452 -28.60369,0.63883 -25.342858,-46.13452 -53.958894,-46.13452 -25.436466,0 -40.4691592,46.13452 -40.4691592,46.13452"
       id="path6563-0-7"
       inkscape:connector-curvature="0"
       sodipodi:nodetypes="csssssssc" />
    <path
       style="fill:none;fill-rule:evenodd;stroke:#000000;stroke-width:3.02;stroke-linecap:butt;stroke-linejoin:miter;stroke-miterlimit:4;stroke-dasharray:none;stroke-opacity:1"
       d="m 392.14849,854.49581 272.13356,-172.12247 0,0"
       id="path4244"
       inkscape:connector-curvature="0" />
    <path
       sodipodi:type="spiral"
       style="fill:#b5befe;fill-opacity:1;fill-rule:evenodd;stroke:#ff0000;stroke-width:8;stroke-linecap:butt;stroke-linejoin:miter;stroke-miterlimit:4;stroke-dasharray:none;stroke-opacity:1"
       id="path4178"
       sodipodi:cx="354.86203"
       sodipodi:cy="373.78302"
       sodipodi:expansion="1"
       sodipodi:revolution="2.2986083"
       sodipodi:radius="74.712395"
       sodipodi:argument="-25.492455"
       sodipodi:t0="0.038965192"
       d="m 357.71341,374.37007 c 4.26414,3.70709 -1.33671,9.32671 -5.07702,10.22323 -8.90331,2.13404 -16.0483,-6.51539 -16.54354,-14.67451 -0.80844,-13.31906 11.72945,-23.06078 24.27201,-22.86385 17.66382,0.27733 30.16537,16.97051 29.18416,33.8695 -1.27726,21.99757 -22.22018,37.31028 -43.467,35.50447 -26.32945,-2.23779 -44.47651,-27.47377 -41.82478,-53.06449 3.17716,-30.66134 32.72957,-51.65542 62.66199,-48.14509 34.99363,4.10388 58.84245,37.98678 54.46539,72.25948 -4.08654,31.99797 -30.76626,56.97365 -62.46783,60.90649"
       transform="matrix(0.47175073,0,0,0.43563122,-77.21179,630.3023)" />
    <path
       sodipodi:type="star"
       style="opacity:1;fill:#b5befe;fill-opacity:1;stroke:#ff0000;stroke-width:8;stroke-linecap:round;stroke-linejoin:round;stroke-miterlimit:4;stroke-dasharray:none;stroke-dashoffset:0;stroke-opacity:1"
       id="path4180"
       sodipodi:sides="5"
       sodipodi:cx="355.44702"
       sodipodi:cy="544.95685"
       sodipodi:r1="63.245552"
       sodipodi:r2="29.670052"
       sodipodi:arg1="1.2490458"
       sodipodi:arg2="1.9640381"
       inkscape:flatsided="false"
       inkscape:rounded="0"
       inkscape:randomized="0"
       d="m 375.44702,604.95685 -31.36911,-32.59461 -39.51394,10.15676 21.30573,-39.90609 -21.87013,-34.44138 44.53677,7.9313 25.99746,-31.4427 6.21951,44.80789 37.93744,15.00872 -40.6929,19.76151 z"
       inkscape:transform-center-x="-2.9314067"
       inkscape:transform-center-y="-0.08502321"
       transform="matrix(0.49700255,0,0,0.57328227,-3.0665074,478.25835)" />
    <path
       sodipodi:type="spiral"
       style="fill:#b5befe;fill-opacity:1;fill-rule:evenodd;stroke:#ff0000;stroke-width:8;stroke-linecap:butt;stroke-linejoin:miter;stroke-miterlimit:4;stroke-dasharray:none;stroke-opacity:1"
       id="path4178-8"
       sodipodi:cx="354.86203"
       sodipodi:cy="373.78302"
       sodipodi:expansion="1"
       sodipodi:revolution="2.2986083"
       sodipodi:radius="74.712395"
       sodipodi:argument="-25.492455"
       sodipodi:t0="0.038965192"
       d="m 357.71341,374.37007 c 4.26414,3.70709 -1.33671,9.32671 -5.07702,10.22323 -8.90331,2.13404 -16.0483,-6.51539 -16.54354,-14.67451 -0.80844,-13.31906 11.72945,-23.06078 24.27201,-22.86385 17.66382,0.27733 30.16537,16.97051 29.18416,33.8695 -1.27726,21.99757 -22.22018,37.31028 -43.467,35.50447 -26.32945,-2.23779 -44.47651,-27.47377 -41.82478,-53.06449 3.17716,-30.66134 32.72957,-51.65542 62.66199,-48.14509 34.99363,4.10388 58.84245,37.98678 54.46539,72.25948 -4.08654,31.99797 -30.76626,56.97365 -62.46783,60.90649"
       transform="matrix(0.47175073,0,0,0.43563122,167.07392,630.3023)" />
    <path
       sodipodi:type="spiral"
       style="fill:#b5befe;fill-opacity:1;fill-rule:evenodd;stroke:#ff0000;stroke-width:8;stroke-linecap:butt;stroke-linejoin:miter;stroke-miterlimit:4;stroke-dasharray:none;stroke-opacity:1"
       id="path4178-9"
       sodipodi:cx="354.86203"
       sodipodi:cy="373.78302"
       sodipodi:expansion="1"
       sodipodi:revolution="2.2986083"
       sodipodi:radius="74.712395"
       sodipodi:argument="-25.492455"
       sodipodi:t0="0.038965192"
       d="m 357.71341,374.37007 c 4.26414,3.70709 -1.33671,9.32671 -5.07702,10.22323 -8.90331,2.13404 -16.0483,-6.51539 -16.54354,-14.67451 -0.80844,-13.31906 11.72945,-23.06078 24.27201,-22.86385 17.66382,0.27733 30.16537,16.97051 29.18416,33.8695 -1.27726,21.99757 -22.22018,37.31028 -43.467,35.50447 -26.32945,-2.23779 -44.47651,-27.47377 -41.82478,-53.06449 3.17716,-30.66134 32.72957,-51.65542 62.66199,-48.14509 34.99363,4.10388 58.84245,37.98678 54.46539,72.25948 -4.08654,31.99797 -30.76626,56.97365 -62.46783,60.90649"
       transform="matrix(1.5886153,0,0,1.4132116,-353.29651,41.265149)" />
    <ellipse
       style="opacity:1;fill:#2c6823;fill-opacity:1;fill-rule:evenodd;stroke:#000000;stroke-width:0;stroke-linecap:round;stroke-linejoin:round;stroke-miterlimit:4;stroke-dasharray:none;stroke-dashoffset:0;stroke-opacity:1"
       id="path6557-2"
       cx="450.24249"
       cy="244.18185"
       rx="159.44762"
       ry="80.877922"
       transform="matrix(0.99119114,-0.13243915,-0.25836127,0.96604837,0,0)" />
    <ellipse
       style="opacity:1;fill:#2c6823;fill-opacity:1;fill-rule:evenodd;stroke:#000000;stroke-width:3.22430012;stroke-linecap:round;stroke-linejoin:round;stroke-miterlimit:4;stroke-dasharray:none;stroke-dashoffset:0;stroke-opacity:1"
       id="path6559"
       cx="484.34894"
       cy="432.11969"
       rx="23.457737"
       ry="52.965115"
       transform="matrix(0.72057669,-0.69337525,0.08675797,0.99622942,0,0)"
       inkscape:transform-center-x="18.828937"
       inkscape:transform-center-y="-2.5791713" />
    <rect
       style="opacity:1;fill:#2c6823;fill-opacity:1;stroke:#ff0000;stroke-width:0;stroke-linecap:butt;stroke-linejoin:miter;stroke-miterlimit:4;stroke-dasharray:none;stroke-dashoffset:0;stroke-opacity:1"
       id="rect7798"
       width="50.245777"
       height="42.14616"
       x="370.68158"
       y="356.06964"
       transform="matrix(0.79508241,-0.60650142,0.18828405,0.98211462,0,0)" />
    <g
       sodipodi:type="inkscape:box3d"
       id="g7229"
       style="opacity:1;fill:#b5befe;fill-opacity:1;fill-rule:nonzero;stroke:#ff0000;stroke-width:8.6590004;stroke-linecap:round;stroke-linejoin:miter;stroke-miterlimit:4;stroke-dasharray:none;stroke-dashoffset:0;stroke-opacity:1"
       inkscape:perspectiveID="#perspective7227"
       inkscape:corner0="-1.7750984 : -0.31587834 : 0 : 1"
       inkscape:corner7="-1.8455619 : -0.40889015 : 0.12606765 : 1">
      <path
         sodipodi:type="inkscape:box3dside"
         id="path7235"
         style="fill:#b5befe;fill-opacity:1;fill-rule:evenodd;stroke:#ff0000;stroke-width:3.27894998;stroke-linecap:butt;stroke-linejoin:round;stroke-miterlimit:4;stroke-dasharray:none;stroke-opacity:1"
         inkscape:box3dsidetype="3"
         d="m 269.57654,795.6048 18.35509,-6.57578 -24.31247,-22.35174 -20.56531,4.5438 z"
         points="287.93163,789.02902 263.61916,766.67728 243.05385,771.22108 269.57654,795.6048 " />
      <path
         sodipodi:type="inkscape:box3dside"
         id="path7231"
         style="fill:#b5befe;fill-opacity:1;fill-rule:evenodd;stroke:#ff0000;stroke-width:3.27894998;stroke-linecap:butt;stroke-linejoin:round;stroke-miterlimit:4;stroke-dasharray:none;stroke-opacity:1"
         inkscape:box3dsidetype="6"
         d="m 269.57654,795.6048 -26.52269,-24.38372 -13.84934,22.81668 31.67446,29.12001 z"
         points="243.05385,771.22108 229.20451,794.03776 260.87897,823.15777 269.57654,795.6048 " />
      <path
         sodipodi:type="inkscape:box3dside"
         id="path7233"
         style="fill:#b5befe;fill-opacity:1;fill-rule:evenodd;stroke:#ff0000;stroke-width:3.27894998;stroke-linecap:butt;stroke-linejoin:round;stroke-miterlimit:4;stroke-dasharray:none;stroke-opacity:1"
         inkscape:box3dsidetype="5"
         d="m 269.57654,795.6048 18.35509,-6.57578 -4.62966,23.70239 -22.423,10.42636 z"
         points="287.93163,789.02902 283.30197,812.73141 260.87897,823.15777 269.57654,795.6048 " />
      <path
         sodipodi:type="inkscape:box3dside"
         id="path7241"
         style="fill:#b5befe;fill-opacity:1;fill-rule:evenodd;stroke:#ff0000;stroke-width:3.27894998;stroke-linecap:butt;stroke-linejoin:round;stroke-miterlimit:4;stroke-dasharray:none;stroke-opacity:1"
         inkscape:box3dsidetype="11"
         d="m 260.87897,823.15777 22.423,-10.42636 -28.57243,-26.26815 -25.52503,7.5745 z"
         points="283.30197,812.73141 254.72954,786.46326 229.20451,794.03776 260.87897,823.15777 " />
      <path
         sodipodi:type="inkscape:box3dside"
         id="path7239"
         style="fill:#b5befe;fill-opacity:1;fill-rule:evenodd;stroke:#ff0000;stroke-width:3.27894998;stroke-linecap:butt;stroke-linejoin:round;stroke-miterlimit:4;stroke-dasharray:none;stroke-opacity:1"
         inkscape:box3dsidetype="13"
         d="m 243.05385,771.22108 20.56531,-4.5438 -8.88962,19.78598 -25.52503,7.5745 z"
         points="263.61916,766.67728 254.72954,786.46326 229.20451,794.03776 243.05385,771.22108 " />
      <path
         sodipodi:type="inkscape:box3dside"
         id="path7237"
         style="fill:#b5befe;fill-opacity:1;fill-rule:evenodd;stroke:#ff0000;stroke-width:3.27894998;stroke-linecap:butt;stroke-linejoin:round;stroke-miterlimit:4;stroke-dasharray:none;stroke-opacity:1"
         inkscape:box3dsidetype="14"
         d="m 287.93163,789.02902 -24.31247,-22.35174 -8.88962,19.78598 28.57243,26.26815 z"
         points="263.61916,766.67728 254.72954,786.46326 283.30197,812.73141 287.93163,789.02902 " />
    </g>
  </g>
</svg>
