<?xml version="1.0" encoding="UTF-8" standalone="no"?>
<svg
   xmlns:dc="http://purl.org/dc/elements/1.1/"
   xmlns:cc="http://creativecommons.org/ns#"
   xmlns:rdf="http://www.w3.org/1999/02/22-rdf-syntax-ns#"
   xmlns:svg="http://www.w3.org/2000/svg"
   xmlns="http://www.w3.org/2000/svg"
   xmlns:sodipodi="http://sodipodi.sourceforge.net/DTD/sodipodi-0.dtd"
   xmlns:inkscape="http://www.inkscape.org/namespaces/inkscape"
   width="50.01"
   height="50.01"
   viewBox="0 0 300 300"
   version="1.1"
   id="svg8"
   sodipodi:docname="baseball.svg"
   inkscape:version="0.92.5 (2060ec1f9f, 2020-04-08)">
  <metadata
     id="metadata12">
    <rdf:RDF>
      <cc:Work
         rdf:about="">
        <dc:format>image/svg+xml</dc:format>
        <dc:type
           rdf:resource="http://purl.org/dc/dcmitype/StillImage" />
      </cc:Work>
    </rdf:RDF>
  </metadata>
  <sodipodi:namedview
     pagecolor="#ffffff"
     bordercolor="#666666"
     borderopacity="1"
     objecttolerance="10"
     gridtolerance="10"
     guidetolerance="10"
     inkscape:pageopacity="0"
     inkscape:pageshadow="2"
     inkscape:window-width="1920"
     inkscape:window-height="1039"
     id="namedview10"
     showgrid="false"
     inkscape:zoom="4.7190563"
     inkscape:cx="25.004999"
     inkscape:cy="25.004999"
     inkscape:window-x="0"
     inkscape:window-y="0"
     inkscape:window-maximized="1"
     inkscape:current-layer="svg8" />
  <defs
     id="defs4">
    <style
       id="style2">
      .cls-1 {
        fill: #6a9529;
      }

      .cls-1, .cls-2 {
        fill-rule: evenodd;
      }
    </style>
  </defs>
  <path
     id="Groen"
     class="cls-1"
     d="m 218.14905,125.3466 10.64774,1.77462 c 3.16316,5.40005 4.93432,6.81629 5.32387,15.97162 a 63.789504,63.789504 0 0 1 -17.74624,8.87312 q 0.88818,6.21032 1.77463,12.42063 h 14.19699 c 18.27256,28.28145 -4.97588,14.54326 -10.64775,31.94323 a 34.638926,34.638926 0 0 1 3.54925,7.0985 c 7.5573,-1.98931 9.50852,-3.27397 17.74624,-1.77463 3.46268,5.47623 5.12304,6.08567 5.32387,15.97162 -3.80895,3.36226 -8.63419,7.25432 -10.64774,12.42064 a 18.514954,18.514954 0 0 1 7.09849,10.64774 h -1.77462 l -15.97681,15.97161 q -0.88471,-0.88817 -1.77462,-1.77462 c -4.53265,-4.52226 -4.82871,-8.73115 -12.42237,-10.64774 -3.28955,4.26082 -5.0382,4.8339 -12.42064,5.32387 -6.11509,-6.20686 -8.95449,-6.14453 -8.87312,-19.52086 6.18262,-3.67218 10.11623,-6.07701 10.64775,-15.96989 -3.27916,-4.12751 -4.98626,-10.82607 -7.0985,-15.97161 -7.18333,1.01456 -9.42541,0.90376 -15.97161,-1.77463 -4.30758,-8.64631 -5.13343,-17.75835 5.32387,-21.29548 2.09319,-1.4249 2.9831,-1.37122 7.09849,-1.77463 v -23.07184 c -9.54487,0.0537 -12.9106,-1.78501 -19.52086,-3.54925 -1.30716,-5.36715 -2.59701,-6.26052 -3.54925,-12.42236 1.21194,-1.36949 2.32693,-3.95958 3.54925,-5.32387 4.68847,-4.61056 9.76476,-5.43295 19.52086,-5.32388 0.81893,-13.45251 6.81802,-21.64175 8.87312,-33.716118 -9.74398,-5.367155 -11.6675,-12.292517 -7.09849,-23.07011 8.38834,-3.893785 11.95663,-2.323459 21.29548,0 2.1209,-8.622075 6.98943,-13.947678 10.64775,-21.295487 h 3.54925 c 3.93014,5.694379 11.94624,12.19383 17.74623,15.971615 -3.07312,5.029544 -13.04218,17.441523 -10.64774,21.295486 4.09808,5.08841 6.39038,6.792048 7.0985,15.969884 l -8.87312,8.87312 c -5.62859,2.01528 -8.50608,-1.31582 -10.64775,0 -4.02882,4.2591 -5.12996,9.44792 -5.3204,17.7497 z m -110.02322,49.68947 c 6.18435,0.8068 7.09849,2.14167 12.42237,3.54925 2.48274,9.53968 2.43599,9.98637 0,19.52086 -5.55068,1.0388 -17.51078,2.26979 -19.52087,5.32387 -3.573483,4.15522 -7.077716,15.81233 -5.323869,19.52086 6.752229,6.77647 10.703149,6.75223 10.647739,21.29549 -5.19402,3.3259 -6.21551,5.83115 -14.196986,7.09849 a 22.716917,22.716917 0 0 0 -12.420636,-5.32387 q -2.662801,4.4357 -5.323872,8.87312 -0.888177,-0.88818 -1.774623,-1.77462 c -6.916705,-4.07038 -11.319504,-9.89981 -17.746239,-14.19699 5.020887,-12.90541 -5.252887,-11.27103 -7.098496,-26.61763 3.604651,-3.36572 3.315517,-5.09707 8.87312,-7.09849 5.628587,-3.65486 10.375923,0.17313 15.971615,1.77462 0.791222,-5.76363 3.092173,-10.07813 1.774623,-12.42237 -4.757723,-3.60811 -9.522372,-3.06101 -12.422367,-8.87312 -2.652413,-2.88268 -2.754562,-3.5908 -3.549247,-8.87312 a 33.186332,33.186332 0 0 0 5.323871,-8.87312 59.648138,59.648138 0 0 1 17.744508,0 c 0.86567,-6.88554 2.087996,-11.57747 0,-17.7445 -12.095144,3.91109 -18.416268,-2.91212 -17.744508,-17.74624 3.675636,-2.27671 4.085963,-3.68603 8.87312,-5.32387 1.904474,-1.33314 1.677668,-1.06651 5.323871,-1.77463 -0.209492,-8.32601 -1.982385,-11.30911 -3.549248,-17.74624 h -3.549247 c -3.209905,3.73624 -5.180171,3.55271 -12.422367,3.54925 L 53.11422,105.8292 C 50.489508,102.44789 49.824673,99.942643 51.339596,96.956081 53.271772,87.243262 58.725494,88.763379 61.987339,80.986198 57.832123,76.85522 55.545022,70.866513 51.339596,66.789207 l 1.774624,-1.774624 c 2.460235,-4.155217 14.370125,-17.659672 17.746239,-14.196991 6.980764,5.72208 6.752227,13.783201 17.744507,15.971615 9.503327,-9.245358 20.002174,0.78776 19.520864,14.196991 -4.40453,3.867814 -10.21491,8.137299 -12.422369,14.196991 4.736949,5.419091 4.539579,15.291201 8.873119,21.295481 5.00184,2.82728 13.20147,1.15481 19.52086,3.54925 a 29.363532,29.363532 0 0 1 3.54925,14.19699 c -18.30027,15.45741 -20.62199,5.05552 -19.52606,40.80943 z"
     inkscape:connector-curvature="0"
     style="fill:#6a9529;fill-rule:evenodd;stroke-width:1.73134041" />
  <path
     id="Zwart"
     class="cls-2"
     d="M 267.17195,244.29661 C 253.69173,258.03999 240.88154,272.0119 226.60664,279.61595 161.2849,314.383 50.106882,306.49155 11.475485,207.60085 -8.4349295,156.63019 0.2217723,108.25308 32.992582,57.11794 47.103006,35.103947 73.999379,22.060029 89.5018,15.75795 148.54051,-8.2436213 244.83246,-2.9613019 285.05669,85.231444 a 157.42385,157.42385 0 0 1 3.09391,123.664446 c -4.68155,11.56016 -18.15137,23.07011 -20.97865,35.40072 z m -17.06929,-14.7718 c 2.42388,-10.25473 13.35556,-19.53471 17.27532,-29.3012 13.22397,-32.94222 12.19036,-73.49886 -3.17355,-106.52418 C 229.63476,19.386839 147.01866,16.422785 97.973249,36.611945 84.988196,41.951398 61.945787,53.120275 50.061867,71.891467 21.425498,117.11927 15.007419,162.65352 35.9601,207.70992 c 37.087042,79.76112 131.63034,79.8702 183.40608,49.82971 z"
     inkscape:connector-curvature="0"
     style="fill-rule:evenodd;stroke-width:1.73134041" />
</svg>
