<?xml version="1.0" encoding="UTF-8" standalone="no"?>
<svg
   xmlns:dc="http://purl.org/dc/elements/1.1/"
   xmlns:cc="http://creativecommons.org/ns#"
   xmlns:rdf="http://www.w3.org/1999/02/22-rdf-syntax-ns#"
   xmlns:svg="http://www.w3.org/2000/svg"
   xmlns="http://www.w3.org/2000/svg"
   xmlns:sodipodi="http://sodipodi.sourceforge.net/DTD/sodipodi-0.dtd"
   xmlns:inkscape="http://www.inkscape.org/namespaces/inkscape"
   width="28.722986"
   height="28.551975"
   viewBox="0 0 172.30346 171.2776"
   version="1.1"
   id="svg8"
   sodipodi:docname="Basebal.svg"
   inkscape:version="0.92.5 (2060ec1f9f, 2020-04-08)">
  <metadata
     id="metadata12">
    <rdf:RDF>
      <cc:Work
         rdf:about="">
        <dc:format>image/svg+xml</dc:format>
        <dc:type
           rdf:resource="http://purl.org/dc/dcmitype/StillImage" />
      </cc:Work>
    </rdf:RDF>
  </metadata>
  <sodipodi:namedview
     pagecolor="#ffffff"
     bordercolor="#666666"
     borderopacity="1"
     objecttolerance="10"
     gridtolerance="10"
     guidetolerance="10"
     inkscape:pageopacity="0"
     inkscape:pageshadow="2"
     inkscape:window-width="640"
     inkscape:window-height="480"
     id="namedview10"
     showgrid="false"
     inkscape:zoom="4.7190563"
     inkscape:cx="14.208312"
     inkscape:cy="14.303812"
     inkscape:window-x="0"
     inkscape:window-y="0"
     inkscape:window-maximized="0"
     inkscape:current-layer="svg8" />
  <defs
     id="defs4">
    <style
       id="style2">
      .cls-1 {
        fill: #7cb82f;
      }

      .cls-1, .cls-2 {
        fill-rule: evenodd;
      }
    </style>
  </defs>
  <path
     id="Groen"
     class="cls-1"
     d="m 125.10383,72.029891 h 5.1 c 2.425,3.618 3.932,3.655 4.078,10.195 -0.82,1.041 -0.362,0.279 -1.02,2.039 -5.61,2.14 -8.374,1.694 -8.156,10.195 l 10.195,1.019 c 0.956,3.261 1.773,3.564 2.039,8.155999 -0.82,1.041 -0.361,0.28 -1.019,2.039 -3.333,1.7 -8.053,2.881 -9.176,7.137 a 19.869,19.869 0 0 1 2.039,4.078 c 4.341,-1.143 5.463,-1.881 10.195,-1.02 1.985,3.146 2.943,3.5 3.059,9.176 -2.069,1.864 -4.9,4.5 -6.117,7.136 a 10.635,10.635 0 0 1 4.078,6.117 c -3.437,2.172 -7.93,5.777 -10.195,9.175 l -1.02,-1.019 c -2.23,-2.188 -3.03,-4.672 -6.117,-6.117 -2.17,2.13 -3.957,2.766 -8.156,3.058 -3.512,-3.565 -5.143,-3.53 -5.1,-11.214 3.553,-2.11 5.812,-3.492 6.117,-9.175 -1.884,-2.372 -2.864,-6.22 -4.078,-9.176 -7.09,1.537 -11.48,-0.247 -11.214,-9.175 2.07,-1.934 1.9,-2.929 5.1,-4.078 1.2,-0.818999 1.714,-0.787999 4.078,-1.019999 v -13.253 a 24.66,24.66 0 0 1 -11.213999,-2.039 c -1.96,-4.426 -2.893,-8.114 1.019,-11.215 2.421999,-1.946 5.593999,-2.1 10.199999,-2.039 0.449,-8.007 3.9,-12.336 5.1,-19.37 -3.9,-2.258 -5.743,-4.249 -6.116,-10.2 2.07,-1.933 1.9,-2.928 5.1,-4.078 3.063,-1.847 7.11,1.035 8.156,0 3.183,-2.525 5.325,-7.389 7.136,-11.214 h 2.039 c 2.258,3.271 6.867,7.005 10.195,9.175 -2.478,4.225 -5.462,7.181 -6.117,13.254 3.494,1.529 3.985,3.163 4.078,8.155 -3.356,3.309 -3.09,5.006 -10.195,5.1 -0.986,-0.256 -0.386,-0.8 -1.019,0 -2.327,2.448 -2.96,5.428 -3.072,10.198 z M 61.895831,100.57189 c 3.552,0.463 4.076,1.23 7.136,2.039 4.527,17.578 -6.723,8.581 -11.214,14.273 -2.053,2.388 -4.067,9.084 -3.059,11.214 3.876,3.894 6.149,3.879 6.117,12.234 -10.07,6.369 -9.812,0.009 -15.292,2.039 a 19.435,19.435 0 0 0 -3.059,4.078 l -1.019,-1.02 c -3.974,-2.338 -6.5,-5.687 -10.195,-8.156 2.885,-7.414 -3.018,-6.475 -4.078,-15.292 2.071,-1.933 1.9,-2.928 5.1,-4.078 3.063,-1.847 7.111,1.035 8.156,0 1.742,-1.784 2.787,-4.738 2.039,-6.117 -2.732,-2.073 -5.469,-1.759 -7.136,-5.1 -2.7,-3.09 -1.586,-5.471 0,-9.175999 4.058,-1.872 6.054,-1.689 11.214,-1.019 l 1.02,-9.176 c -2.773,0.007 -4.687,-0.039 -6.117,-1.019 -4.759,-1.476 -5.311,-3.766 -5.1,-10.195 2.113,-1.308 2.348,-2.118 5.1,-3.059 1.094,-0.766 0.964,-0.613 3.058,-1.019 -0.119,-4.783 -1.138,-6.5 -2.039,-10.195 h -1.019 c -4.544,4.463 -15.585,0.631 -13.254,-7.137 0.982,-3.27 5.441,-5.037 7.137,-8.155 -2.386,-2.373 -3.7,-5.814 -6.117,-8.156 l 1.019,-1.02 c 1.413,-2.387 8.252,-10.142 10.195,-8.156 3.919,3.18 4.161,7.934 10.195,9.176 1.844,-2.146 2.976,-2.041 7.137,-2.039 1.31,1.869 2.006,1.745 3.058,4.078 0.98,1.445 1,3.337 1.02,6.117 -2.531,2.222 -5.868,4.672 -7.137,8.155 2.722,3.114 2.609,8.785 5.1,12.234 2.873,1.625 7.584,0.663 11.214,2.039 a 16.855,16.855 0 0 1 2.039,8.156 c -10.516,8.891 -11.849,2.918 -11.219,23.451999 z"
     inkscape:connector-curvature="0"
     style="fill:#7cb82f;fill-rule:evenodd" />
  <path
     id="Zwart"
     class="cls-2"
     d="m 150.55083,144.00389 c -8.245,7.46 -16.112,15.076 -24.6,18.965 -38.808999,17.776 -102.753999,9.473 -121.5589994,-48.923 -9.7,-30.112999 -3.112,-57.618999 17.5840004,-86.021999 8.894,-12.206 24.849,-18.8000004 34,-21.9000004 34.39,-11.644 55.199999,-6.92999996 87.523999,16.2630004 9.725,6.978 19.459,20.947 22.835,30.521 8.393,23.8 8.258,48.868999 -2.471,71.406999 -3.096,6.504 -11.258,12.678 -13.313,19.689 z m -9.333,-9.1 c 1.752,-5.83 8.373,-10.8 10.969,-16.3 8.758,-18.538 9.557,-41.956999 1.835,-61.526999 -17.375,-44.036 -64.905999,-48.5870004 -93.877999,-38.639 -7.665,2.632 -21.34,8.279 -28.837,18.693 -18.068,25.1 -23.3350004,51.126 -12.8,77.825999 18.639,47.263 73.144,50.579 104.028999,35.041 z"
     inkscape:connector-curvature="0"
     style="fill-rule:evenodd" />
</svg>
