<?xml version="1.0" encoding="UTF-8" standalone="no"?>
<svg
   xmlns:dc="http://purl.org/dc/elements/1.1/"
   xmlns:cc="http://creativecommons.org/ns#"
   xmlns:rdf="http://www.w3.org/1999/02/22-rdf-syntax-ns#"
   xmlns:svg="http://www.w3.org/2000/svg"
   xmlns="http://www.w3.org/2000/svg"
   xmlns:sodipodi="http://sodipodi.sourceforge.net/DTD/sodipodi-0.dtd"
   xmlns:inkscape="http://www.inkscape.org/namespaces/inkscape"
   width="28.884645"
   height="28.63718"
   viewBox="0 0 173.27322 171.78873"
   version="1.1"
   id="svg20"
   sodipodi:docname="Basketbal.svg"
   inkscape:version="0.92.5 (2060ec1f9f, 2020-04-08)">
  <metadata
     id="metadata24">
    <rdf:RDF>
      <cc:Work
         rdf:about="">
        <dc:format>image/svg+xml</dc:format>
        <dc:type
           rdf:resource="http://purl.org/dc/dcmitype/StillImage" />
      </cc:Work>
    </rdf:RDF>
  </metadata>
  <sodipodi:namedview
     pagecolor="#ffffff"
     bordercolor="#666666"
     borderopacity="1"
     objecttolerance="10"
     gridtolerance="10"
     guidetolerance="10"
     inkscape:pageopacity="0"
     inkscape:pageshadow="2"
     inkscape:window-width="640"
     inkscape:window-height="480"
     id="namedview22"
     showgrid="false"
     inkscape:zoom="4.7190563"
     inkscape:cx="14.463005"
     inkscape:cy="14.290775"
     inkscape:window-x="0"
     inkscape:window-y="0"
     inkscape:window-maximized="0"
     inkscape:current-layer="svg20" />
  <defs
     id="defs16">
    <style
       id="style14">
      .cls-1 {
        fill: #7cb82f;
      }

      .cls-1, .cls-2 {
        fill-rule: evenodd;
      }
    </style>
  </defs>
  <path
     id="Groen"
     class="cls-1"
     d="m 106.36568,14.549228 c 0.41,11.119 3.861,21.649 6.1,31.541 3.411,15.038 0.03,32.89 0,47.82 h 11.195 c -0.657,-28.895 8.462,-39.94 19.332,-55.959 h 1.017 c 1.092,3.128 9.39,11.112 7.122,13.226 -7.316,11.6 -12.183,19.566 -12.209,39.681 h 2.038 a 73.782,73.782 0 0 1 20.348,-10.175 v 16.278 c -3.334,1.782 -20.089,8.748002 -21.366,11.192002 2.149,3.025 8.14,20.349 8.14,20.349 -1.373,4.375 -5.784,9.717 -10.175,11.192 v -1.018 c -6.347,-6.25 -10.824,-18.716 -12.209,-29.506 h -13.229 c -1.6,4.692 -1.095,13.022 -1.017,19.332 -2.812,4.349 -4.928,23.908 -5.087,30.523 -5.626,0.635 -9.736996,1.9 -16.278996,2.035 v -2.035 c 5.349,-8.387 6.224,-35.273 7.122,-47.82 a 21.9,21.9 0 0 0 -7.122,-1.017 c -1.577,-1.068 -4.157,-1.049 -7.123,-1.018 -4.577,18.9 -19.887,30.6 -31.54,42.733 l -1.018,-1.017 c -4.988,-1.249 -9.2,-4.819 -12.209,-8.14 h 1.017 c 2.1,-2.943 4.2,-2.948 7.123,-5.087 6.381,-4.68 19.057,-22.045 21.366,-30.523 -16.567,-3.187 -32.53,-11.324002 -44.768,-19.332002 -5.314,-3.477 -9.933,-2.231 -10.174,-11.192 2.008,-3.37 0.622,-8.084 4.07,-10.174 7.318,8.944 39.7,24.572 54.942,25.436 1.686,-4.951 1.095,-13.759 1.017,-20.349 -3.934,-5.779 -3.566,-14.366 -7.122,-20.349 -5.745,-9.666 -15.282,-16.418 -21.366,-25.436 4.609,-2.688 7.953,-6.12 14.244,-7.122 15.341,23.326 33.125,33.329 28.488,75.291 2.491,0.864 6.292,1.057 10.175,1.017 1.681,-30.905 -1.83,-57.579 -7.122,-82.413 h 7.122 c 1.952,1.32 6.358996,1.748 9.156996,2.036 z"
     inkscape:connector-curvature="0"
     style="fill:#7cb82f;fill-rule:evenodd" />
  <path
     id="Zwart"
     class="cls-2"
     d="m 47.638684,8.9472285 c 10.383,-3.978 20.469,-8.23800004 29.792,-8.80000004 C 120.04068,-2.4117715 176.66968,28.426228 173.11368,89.672228 c -1.833,31.582002 -17.909,54.854002 -47.466,73.865002 -12.7,8.17 -29.961996,8.558 -39.618996,8.142 -36.275,-1.563 -53.98,-13.477 -75.742,-46.778 -6.5480005,-10.019 -10.58000049,-26.561002 -10.27000049,-36.709002 0.771,-25.227 9.94999999,-48.552 28.10000049,-65.693 5.233,-4.947 15.073,-7.755 19.522,-13.5519995 z m 5.415,11.8599995 c -3.813,4.9 -11.916,6.687 -16.115,11.237 -14.218,15.405 -24.543,34.557 -23.934,56.717 0.866,31.524002 26.163,60.182002 46.576,66.000002 5.467,1.557 10.2,1.529 15.9,2.689 9.712,1.978 27.076996,4.543 40.999996,-4.386 27.1,-17.384 42.133,-35.262 43.65,-63.943002 2.561,-48.43 -42.566,-77.415 -75.999996,-76.509 -9.89,0.26 -20.299,4.112 -31.077,8.196 z"
     inkscape:connector-curvature="0"
     style="fill-rule:evenodd" />
</svg>
