<?xml version="1.0" encoding="UTF-8" standalone="no"?>
<svg
   xmlns:dc="http://purl.org/dc/elements/1.1/"
   xmlns:cc="http://creativecommons.org/ns#"
   xmlns:rdf="http://www.w3.org/1999/02/22-rdf-syntax-ns#"
   xmlns:svg="http://www.w3.org/2000/svg"
   xmlns="http://www.w3.org/2000/svg"
   xmlns:sodipodi="http://sodipodi.sourceforge.net/DTD/sodipodi-0.dtd"
   xmlns:inkscape="http://www.inkscape.org/namespaces/inkscape"
   width="50.01"
   height="50.01"
   viewBox="0 0 300 300"
   version="1.1"
   id="svg20"
   sodipodi:docname="basketball.svg"
   inkscape:version="0.92.5 (2060ec1f9f, 2020-04-08)">
  <metadata
     id="metadata24">
    <rdf:RDF>
      <cc:Work
         rdf:about="">
        <dc:format>image/svg+xml</dc:format>
        <dc:type
           rdf:resource="http://purl.org/dc/dcmitype/StillImage" />
      </cc:Work>
    </rdf:RDF>
  </metadata>
  <sodipodi:namedview
     pagecolor="#ffffff"
     bordercolor="#666666"
     borderopacity="1"
     objecttolerance="10"
     gridtolerance="10"
     guidetolerance="10"
     inkscape:pageopacity="0"
     inkscape:pageshadow="2"
     inkscape:window-width="1920"
     inkscape:window-height="1039"
     id="namedview22"
     showgrid="false"
     inkscape:zoom="4.7190563"
     inkscape:cx="25.004999"
     inkscape:cy="25.004999"
     inkscape:window-x="0"
     inkscape:window-y="0"
     inkscape:window-maximized="1"
     inkscape:current-layer="svg20" />
  <defs
     id="defs16">
    <style
       id="style14">
      .cls-1 {
        fill: #6a9529;
      }

      .cls-1, .cls-2 {
        fill-rule: evenodd;
      }
    </style>
  </defs>
  <path
     id="groen"
     class="cls-1"
     d="m 182.97537,24.387107 c 0.71352,19.349016 6.68401,37.949535 10.61363,54.832706 6.14537,26.407277 -0.0472,56.885827 0,83.132217 h 19.45744 c -1.14898,-50.15809 14.71638,-69.447649 33.60545,-97.283721 h 1.76981 c 1.89923,5.440599 16.32355,19.319287 12.38169,22.99532 -11.97771,19.139161 -21.54904,36.025831 -22.99532,67.214401 l 1.76982,1.76806 c 16.35153,-3.44519 24.77212,-13.46596 38.91314,-17.68763 v 28.30126 c -5.79736,3.09542 -34.92407,15.21479 -37.14508,19.45569 3.84742,5.42137 14.1515,35.37702 14.1515,35.37702 -3.58509,7.58815 -9.26878,16.59636 -17.68938,19.45569 v -1.76806 C 226.77298,229.3146 218.9907,207.64139 216.58257,188.88523 H 193.589 c -2.62324,7.70707 -1.90273,21.35142 -1.76807,31.82864 -4.81277,7.57941 -8.56925,43.47757 -8.84556,54.83271 -9.77944,1.1035 -16.92689,3.30353 -28.29951,3.53787 v -3.53787 c 9.36846,-14.27218 10.83223,-61.39431 12.38169,-83.13222 a 38.043972,38.043972 0 0 0 -12.38169,-1.76981 c -2.74041,-1.85551 -7.22615,-1.82228 -12.38169,-1.76807 -8.17052,32.69257 -34.55682,53.17307 -54.832711,74.2884 l -1.769812,-1.76806 c -8.670682,-2.17204 -15.986023,-8.37688 -21.225508,-14.1515 h 1.775059 c 3.642806,-5.11707 7.310095,-5.12407 12.381692,-8.84382 11.094555,-8.13554 33.12977,-38.32378 37.14508,-53.06289 l -1.76982,-1.76982 c -28.346726,-1.25565 -56.871835,-19.27731 -76.058211,-31.83738 -9.219814,-6.0352 -17.301141,-3.88415 -17.687632,-19.45745 3.497653,-5.85857 1.080775,-14.05357 7.075753,-17.68763 13.116198,16.04374 69.382943,43.19602 97.28372,44.22083 C 125.96187,86.384755 101.89977,83.247361 75.085014,43.834058 83.192574,39.155947 89.273244,33.99516 99.848397,31.452366 125.80098,70.93912 157.1487,91.828852 149.37342,162.34329 c 4.33184,1.50399 10.93891,1.83801 17.68938,1.76981 2.92228,-53.7292 -3.18112,-100.101082 -12.3817,-143.272613 h 12.3817 c 3.39097,2.301455 11.04908,3.044707 15.91257,3.54662 z"
     inkscape:connector-curvature="0"
     style="fill:#6a9529;fill-rule:evenodd;stroke-width:1.7488265" />
  <path
     id="zwart"
     class="cls-2"
     d="M 132.17196,-0.71904673 C 151.61541,-0.99711014 170.74058,-1.9169929 186.38558,2.7786063 257.8846,24.238456 332.29018,108.9761 289.56634,207.39131 c -22.03521,50.7492 -62.4331,79.27605 -122.41785,92.6878 -25.77596,5.77113 -54.34828,-3.99432 -69.953062,-10.49296 C 38.580009,265.17429 16.684701,234.95107 1.0099693,167.1683 -3.7118623,146.77523 -0.36460833,117.18859 6.2564489,100.71289 22.714655,59.757123 51.832617,26.989361 91.948948,9.7739124 103.52968,4.8037474 121.37645,6.1188649 132.17196,-0.71904673 Z m 1.74882,22.73474473 c -9.20932,5.744895 -23.59341,3.801949 -33.2277,8.744133 -32.619112,16.729274 -61.107495,41.954348 -73.450713,78.697189 -17.5634647,52.27942 6.711996,114.56738 36.725357,136.40847 8.044602,5.84983 15.82688,8.6532 24.483571,13.99061 14.754845,9.0939 41.720005,23.76481 69.953065,17.48827 54.96386,-12.21905 90.41433,-32.51943 110.17607,-78.69719 33.37285,-77.97143 -23.2594,-152.739014 -78.6972,-171.385002 -16.39699,-5.515799 -35.80897,-5.459837 -55.96245,-5.24648 z"
     inkscape:connector-curvature="0"
     style="fill-rule:evenodd;stroke-width:1.7488265" />
</svg>
