<?xml version="1.0" encoding="UTF-8" standalone="yes"?>
<svg xmlns="http://www.w3.org/2000/svg" width="375px" height="375px" viewBox="0 0 375 375" version="1.1">
  <g id="surface1">
    <path style=" stroke:none;fill-rule:evenodd;fill:rgb(48.627451%,72.156864%,18.431373%);fill-opacity:1;" d="M 230.199219 33.09375 C 231.085938 57.15625 238.554688 79.945312 243.398438 101.355469 C 250.78125 133.902344 243.464844 172.535156 243.398438 204.847656 L 267.628906 204.847656 C 266.207031 142.3125 285.941406 118.410156 309.464844 83.742188 L 311.667969 83.742188 C 314.03125 90.511719 331.988281 107.789062 327.082031 112.363281 C 311.246094 137.46875 300.714844 154.710938 300.65625 198.242188 L 305.070312 198.242188 C 318.519531 188.671875 333.375 181.242188 349.105469 176.222656 L 349.105469 211.449219 C 341.890625 215.308594 305.628906 230.382812 302.867188 235.671875 C 307.515625 242.21875 320.480469 279.710938 320.480469 279.710938 C 317.511719 289.179688 307.964844 300.742188 298.460938 303.933594 L 298.460938 301.730469 C 284.726562 288.203125 275.035156 261.226562 272.039062 237.875 L 243.410156 237.875 C 239.945312 248.027344 241.039062 266.054688 241.207031 279.710938 C 235.121094 289.125 230.542969 331.453125 230.199219 345.769531 C 218.023438 347.144531 209.125 349.882812 194.964844 350.175781 L 194.964844 345.769531 C 206.542969 327.621094 208.4375 269.433594 210.378906 242.277344 C 205.398438 240.699219 200.191406 239.957031 194.964844 240.078125 C 191.554688 237.765625 185.96875 237.808594 179.550781 237.875 C 169.644531 278.777344 136.511719 304.097656 111.292969 330.355469 L 109.089844 328.15625 C 98.292969 325.453125 89.179688 317.726562 82.664062 310.539062 L 84.867188 310.539062 C 89.410156 304.171875 93.957031 304.160156 100.28125 299.53125 C 114.09375 289.402344 141.527344 251.820312 146.523438 233.472656 C 110.667969 226.574219 76.121094 208.964844 49.636719 191.632812 C 38.136719 184.109375 28.136719 186.804688 27.617188 167.410156 C 31.960938 160.117188 28.964844 149.914062 36.425781 145.394531 C 52.261719 164.75 122.34375 198.570312 155.332031 200.441406 C 158.980469 189.726562 157.699219 170.664062 157.53125 156.402344 C 149.019531 143.894531 149.816406 125.3125 142.117188 112.363281 C 129.683594 91.441406 109.046875 76.832031 95.878906 57.3125 C 105.851562 51.496094 113.089844 44.070312 126.707031 41.898438 C 159.90625 92.382812 198.394531 114.03125 188.359375 204.847656 C 193.75 206.714844 201.976562 207.132812 210.378906 207.046875 C 214.019531 140.160156 206.417969 82.433594 194.964844 28.6875 L 210.378906 28.6875 C 214.605469 31.542969 224.140625 32.472656 230.199219 33.09375 Z M 230.199219 33.09375 "/>
    <path style=" stroke:none;fill-rule:evenodd;fill:rgb(0%,0%,0%);fill-opacity:1;" d="M 103.101562 20.96875 C 125.570312 12.359375 147.398438 3.140625 167.578125 1.925781 C 259.792969 -3.613281 382.351562 63.125 374.65625 195.675781 C 370.6875 264.027344 335.894531 314.390625 271.929688 355.535156 C 244.441406 373.21875 207.085938 374.058594 186.183594 373.15625 C 107.675781 369.773438 69.359375 343.988281 22.261719 271.917969 C 8.089844 250.234375 -0.636719 214.433594 0.0351562 192.472656 C 1.703125 137.875 21.570312 87.394531 60.851562 50.300781 C 72.175781 39.59375 93.472656 33.515625 103.101562 20.96875 Z M 114.820312 46.636719 C 106.566406 57.242188 89.03125 61.109375 79.941406 70.957031 C 49.171875 104.296875 26.828125 145.746094 28.144531 193.703125 C 30.019531 261.929688 84.765625 323.949219 128.945312 336.542969 C 140.777344 339.914062 151.019531 339.851562 163.355469 342.363281 C 184.375 346.644531 221.957031 352.195312 252.089844 332.871094 C 310.738281 295.246094 343.273438 256.554688 346.558594 194.484375 C 352.097656 89.671875 254.433594 26.941406 182.078125 28.902344 C 160.671875 29.464844 138.144531 37.800781 114.820312 46.640625 Z M 114.820312 46.636719 "/>
  </g>
</svg>