<?xml version="1.0" encoding="UTF-8" standalone="yes"?>
<svg xmlns="http://www.w3.org/2000/svg" width="375px" height="375px" viewBox="0 0 375 375" version="1.1">
  <g id="surface1">
    <path style=" stroke:none;fill-rule:evenodd;fill:rgb(48.627451%,72.156864%,18.431373%);fill-opacity:1;" d="m 240,270 c -10.51214,0 -17.06362,5.31218 -21.09208,8.22243 L 200,295 l -13.40899,9.13092 4.81906,-4.41221 c -2.45204,1.98626 -8.43462,9.4328 -9.5545,12.00606 -0.80851,1.8688 -2.80916,16.5391 -2.8094,18.50388 L 180,345 h 100.00002 v -28.12499 l 0.95383,-24.02418 C 279.36417,275.26526 275,275 260,275 Z"/>
    <path style=" stroke:none;fill-rule:evenodd;fill:rgb(0%,0%,0%);fill-opacity:1;" d="M 224.78416,27.867714 C 207.83633,20.892181 205,30 201.4908,33.483328 c -3.13355,3.110444 -4.18514,6.793339 -4.92975,13.162944 C 195,60 200,60 212.17552,64.021358 c 8.42757,2.783478 13.09879,0.933943 17.36376,-3.873285 3.30497,-3.725168 5.40227,-4.73171 6.11084,-11.873509 0.8525,-8.592508 0.044,-15.916436 -10.86596,-20.40685 z M 190,65 c -9.52441,-0.917061 -12.07747,2.762778 -15,5 l -5,10 -10,20 c -5,5 -7.02649,20.45319 0,25 l 11.46579,6.14143 c -13.95723,6.14722 -25.90358,8.69174 -40.41254,12.50155 -8.92858,2.34449 -19.88001,3.37632 -28.56099,7.76485 -9.014982,4.55739 -14.786174,10.31022 -19.927371,17.45223 -9.072982,1.05932 -32.906871,14.0154 -42.052984,31.2902 -3.839032,7.65623 -19.072351,74.0743 -3.955093,80.72348 5.708983,1.27809 15.640201,-0.70601 15.599701,-13.86338 -0.108001,-35.02595 0.339952,-65.14068 25.79507,-79.45023 C 78.825248,201.92336 80.834978,208.68765 90,225 l -20,40 -16.32953,39.88548 c -2.522365,5.62883 -3.243613,13.4183 5.077871,19.11488 C 64.372524,326.54946 73.614821,320.68296 75,315 L 98.669339,262.36113 117.54355,243.09234 141.10638,216.635 c 28.64298,4.09511 70.89542,-1.80723 100.97701,-26.39969 h 28.16814 l -11.82569,23.9346 C 250,220 255.27742,230.99587 260.8042,233.88839 270,240 277.18878,230.56171 280,225 l 18.46458,-40.05047 c 0.90355,-11.60271 -2.04845,-13.5154 -9.80084,-17.04381 -11.12002,-1.78157 1.65674,0.0402 0,0 v -0.1326 c -13.56808,-2.82951 -25.38466,-1.28029 -37.30881,0 7.75126,-22.2122 23.68226,-38.18561 43.3733,-36.63364 13.04658,10.51921 29.18544,30.02218 28.45642,28.99055 -1.37763,-1.9495 0.55254,2.10376 2.17266,3.91304 2.13859,2.37925 5.19256,3.73586 8.39458,3.73005 6.21306,0 11.24811,-5.02833 11.24811,-11.23109 -0.002,-1.19274 -1.78451,-15.41319 -2.16003,-16.5454 l -8.47284,-29.82576 -0.30859,0.0877 c -1.75045,-4.985 -5.20489,-9.19557 -9.75592,-11.890135 L 332,85 c 1.14686,-1.622582 2,-3 1,-5 -2,-2 -6,-1 -9,1 l -14,9 c -12.49469,-3.56121 -33.58022,-3.171563 -55.22958,6.252257 -3.15809,1.41264 -18.18315,7.408833 -28.06798,12.733063 -0.14174,-0.36321 -0.13182,-0.62598 -0.30664,-1.00807 L 216.9494,91.939125 210,75 c -1.75586,-3.835199 -2.84028,-5.186845 -7.17863,-6.731979 -0.50012,-0.05264 -5.7694,-2.017607 -6.27893,-2.020137 z"/>
  </g>
</svg>
