<?xml version="1.0" encoding="UTF-8" standalone="no"?>
<svg
   xmlns:dc="http://purl.org/dc/elements/1.1/"
   xmlns:cc="http://creativecommons.org/ns#"
   xmlns:rdf="http://www.w3.org/1999/02/22-rdf-syntax-ns#"
   xmlns:svg="http://www.w3.org/2000/svg"
   xmlns="http://www.w3.org/2000/svg"
   xmlns:sodipodi="http://sodipodi.sourceforge.net/DTD/sodipodi-0.dtd"
   xmlns:inkscape="http://www.inkscape.org/namespaces/inkscape"
   width="29.035688"
   height="29.225443"
   viewBox="0 0 174.1793 175.3176"
   version="1.1"
   id="svg60"
   sodipodi:docname="Skateboard.svg"
   inkscape:version="0.92.5 (2060ec1f9f, 2020-04-08)">
  <metadata
     id="metadata64">
    <rdf:RDF>
      <cc:Work
         rdf:about="">
        <dc:format>image/svg+xml</dc:format>
        <dc:type
           rdf:resource="http://purl.org/dc/dcmitype/StillImage" />
      </cc:Work>
    </rdf:RDF>
  </metadata>
  <sodipodi:namedview
     pagecolor="#ffffff"
     bordercolor="#666666"
     borderopacity="1"
     objecttolerance="10"
     gridtolerance="10"
     guidetolerance="10"
     inkscape:pageopacity="0"
     inkscape:pageshadow="2"
     inkscape:window-width="640"
     inkscape:window-height="480"
     id="namedview62"
     showgrid="false"
     inkscape:zoom="4.7190563"
     inkscape:cx="15.328474"
     inkscape:cy="14.386902"
     inkscape:window-x="0"
     inkscape:window-y="0"
     inkscape:window-maximized="0"
     inkscape:current-layer="svg60" />
  <defs
     id="defs55">
    <style
       id="style53">
      .cls-1 {
        fill: #7cb82f;
      }

      .cls-1, .cls-2 {
        fill-rule: evenodd;
      }
    </style>
  </defs>
  <path
     id="Groen2"
     class="cls-1"
     d="m 159.95245,66.013447 c 5.641,2.77 8.82,7.763 9,16 -6.984,9.025 -8.338,16.213 -25,16 -1.021,-0.8 -0.274,-0.355 -2,-1 -1.807,-2.718 -3.777,-3.544 -5,-7 l 7,-7 h 1 c 0.975,4.06 1.177,4.6 6,5 3.1,-2.541 5.492,-2.646 7,-7 0.752,-1.073 0.6,-0.946 1,-3 -6.815,-5.571 -3.192,-6.1 1,-12 z M 81.952455,144.01345 h 3 c 1.283,2.072 2.077,2.3 3,5 2.242,2.81 2.136,7.715 2,13 -4.038,4.156 -7.845,7.961 -12,12 -9.93,0.557 -14.719,0.157 -19,-7 l 6,-6 h 2 l 4,4 c 6.591,-1.254 9.243,-3.694 9,-12 -2.5,-1.456 -2.156,-0.586 -3,-4 2.178,-1.323 3.87,-2.523 5,-5 z"
     inkscape:connector-curvature="0"
     style="fill:#7cb82f;fill-rule:evenodd" />
  <path
     id="Groen1"
     class="cls-1"
     d="m 118.95245,41.013447 h 5 c 1.3,2.418 1.8,2.833 2,7 -2.281,1.225 -2.251,1.638 -6,2 -2.975,-3.586 -3.289,-4.712 -1,-9 z m 17,11 c 3.593,0.955 3.784,2.018 6,4 -0.631,1.754 -0.193,0.971 -1,2 -1,2.748 -1.44,2.195 -3,4 -1.754,-0.631 -0.971,-0.193 -2,-1 -3.364,-1.121 -3.314,-1.133 -4,-5 0.8,-1.021 0.355,-0.274 1,-2 a 10.925,10.925 0 0 0 3,-2 z m -29,2 h 5 c 1.3,2.418 1.8,2.833 2,7 -2.418,1.3 -2.833,1.8 -7,2 -2.148,-3.8 -2.044,-5.206 0,-9 z m 17,11 h 3 c 1.708,2.725 2.536,2.5 3,7 a 18.068,18.068 0 0 0 -4,3 c -1.754,-0.631 -0.971,-0.193 -2,-1 -3.483,-1.368 -3.074,-2.283 -3,-7 a 10.925,10.925 0 0 0 3,-2 z M 49.952455,112.01345 c 4.318,1.691 5.06,1.738 5,8 -2.418,1.3 -2.833,1.8 -7,2 -1.3,-2.418 -1.8,-2.833 -2,-7 0.8,-1.021 0.355,-0.274 1,-2 2.076,-0.372 1.924,-0.242 3,-1 z m 12,12 h 5 c 1.372,2.542 1.917,3.5 2,8 l -3,1 c -5.848,5.033 -5.92,-5.809 -4,-9 z m -28,2 h 6 c 1.225,2.281 1.638,2.251 2,6 -2.467,1.948 -2.449,2.624 -7,3 -1.682,-2.973 -2.347,-5.131 -1,-9 z m 17,11 5,1 a 21.509,21.509 0 0 1 1,7 l -3,1 c -4.227,2.839 -6.281,-1.63 -6,-7 a 10.925,10.925 0 0 0 3,-2 z"
     inkscape:connector-curvature="0"
     style="fill:#7cb82f;fill-rule:evenodd" />
  <path
     id="Zwart"
     class="cls-2"
     d="m 133.95245,0.01344661 c 23.578,-0.411 34,8.59999999 39,27.00000039 1.275,4.689 1.961,15.191 0,20 -7.789,19.1 -21.625,30.627 -35,44 l -41.999995,42.000003 -34,35 c -13.866,8.121 -35.638,10.834 -50,1 -9.5120002,-6.513 -16.7820002,-28.16 -8.0000002,-41 3.245,-4.744 10.2000002,-5.695 15.0000002,-9 l 27,-27.000003 c 15,-15 29,-31 44,-46 l 24.999995,-24 c 3.271,-4.492 4.72,-9.516 8,-14.0000004 2.67,-3.65 7.735,-4.927 11,-7.99999999 z m 2,10.00000039 c -4.927,5.339 -7.66,10.744 -12,17 -7.141,10.294 -20.052,17.287 -27.999995,27 -16.942,20.7 -37.132,39.135 -56,58.000003 l -15,15 c -3.522,2.435 -9.146,2.942 -12,6 -6.9280002,7.425 -0.947,22.308 4,27 9.016,8.552 28.672,6.324 38,0 L 154.95245,60.013447 c 13.59,-20.154 14.145,-50.2060004 -19,-50 z"
     inkscape:connector-curvature="0"
     style="fill-rule:evenodd" />
</svg>
