<?xml version="1.0" encoding="UTF-8" standalone="yes"?>
<svg xmlns="http://www.w3.org/2000/svg" xmlns:xlink="http://www.w3.org/1999/xlink" width="375px" height="375px" viewBox="0 0 375 375" version="1.1">
  <g id="surface1">
    <path style=" stroke:none;fill-rule:evenodd;fill:rgb(48.627451%,72.156864%,18.431373%);fill-opacity:1;" d="M 46.25 122.5 C 61.464844 122.265625 82.5625 120.515625 93.75 125 C 95.414062 128.070312 96.273438 131.507812 96.25 135 L 92.5 138.75 C 88.109375 142.375 48.597656 142.210938 43.75 138.75 C 40.785156 136.632812 41.109375 131.5 41.25 126.25 C 43.082031 125.238281 44.765625 123.976562 46.25 122.5 Z M 57.5 152.5 C 67.148438 152.179688 76.800781 153.019531 86.25 155 C 87.730469 160.605469 90.332031 168.207031 83.75 171.25 L 13.75 171.25 C 11.109375 172.75 9.460938 171.640625 5 171.25 C -15.863281 139.0625 41.839844 161.566406 57.5 152.5 Z M 22.5 183.75 C 38.367188 183.515625 60.730469 181.535156 72.5 186.25 C 74.164062 189.320312 75.023438 192.757812 75 196.25 L 71.25 200 C 63.199219 206.359375 27.429688 203.558594 18.75 200 C 15.464844 194.625 14.8125 192.734375 17.5 186.25 C 19.265625 185.632812 20.945312 184.792969 22.5 183.75 Z M 22.5 183.75 "/>
    <path style=" stroke:none;fill-rule:evenodd;fill:rgb(0%,0%,0%);fill-opacity:1;" d="M 313.75 71.25 C 318.957031 71.15625 323.359375 71.558594 326.25 73.75 C 335.53125 76.441406 339.097656 83.75 338.75 96.25 C 337.441406 98.109375 336.585938 100.25 336.25 102.5 C 332.230469 105.050781 328.460938 107.980469 325 111.25 C 300.777344 113.390625 295.210938 99.585938 301.25 78.75 C 304.792969 76.625 310.382812 74.03125 313.75 71.25 Z M 181.25 110 C 188.179688 109.953125 191.214844 111.273438 196.25 112.5 C 201.574219 119.609375 205.140625 121.34375 205 135 C 201.011719 139.277344 200.046875 144.0625 193.75 146.25 C 187.328125 151.519531 178.757812 146.824219 172.5 145 C 168.566406 138.488281 166.183594 135.226562 166.25 123.75 C 169.398438 120.5 171.222656 115.027344 175 112.5 C 177.023438 111.144531 179.550781 111.382812 181.25 110 Z M 258.75 136.25 L 255 165 C 250.949219 167.558594 249.960938 168.734375 242.5 168.75 L 240 165 C 233.117188 156.339844 241.433594 131.550781 243.75 122.5 C 246.039062 121.109375 248.140625 119.429688 250 117.5 C 271.8125 117.144531 304.902344 116.457031 313.75 130 C 318.65625 136.632812 320.351562 150.410156 323.75 157.5 C 325.941406 156.710938 324.964844 157.257812 326.25 156.25 C 341.910156 151.363281 349.375 135.863281 368.75 135 C 371.335938 139.015625 373.175781 139.625 373.75 146.25 C 362.207031 156.992188 336.535156 178.460938 316.25 178.75 C 313.773438 174.632812 310.207031 168.992188 306.25 166.25 C 301.667969 180 297.082031 193.75 292.5 207.5 C 302.609375 213.8125 316.480469 223.183594 316.25 240 C 312.894531 245.226562 314.34375 253.050781 312.5 260 C 308.578125 274.785156 305.835938 292.398438 302.5 307.5 C 298.96875 309.558594 298.21875 310.765625 292.5 311.25 C 287.519531 306.167969 285.953125 304.855469 286.25 293.75 C 290.375 287.425781 296.683594 245.308594 297.5 235 C 287.207031 228.859375 280.441406 216.601562 268.75 212.5 L 268.75 215 C 263.25 223.203125 266.058594 237.050781 261.25 246.25 C 259.5 249.605469 255.140625 251.199219 252.5 253.75 C 242.152344 251.949219 201.507812 240.671875 198.75 233.75 C 195.363281 229.140625 198.335938 224 202.5 222.5 C 211.699219 216.816406 236.402344 234.546875 245 231.25 C 250.679688 222.261719 248.875 208.355469 252.5 197.5 L 278.75 137.5 L 268.75 137.5 C 266.636719 136.074219 262.625 136.167969 258.75 136.25 Z M 118.75 260 C 120.359375 225.820312 134.109375 197.199219 146.25 172.5 L 131.25 172.5 L 130 173.75 C 129.949219 183.453125 127.171875 204.011719 121.25 208.75 C 119.15625 210.804688 116.128906 211.597656 113.296875 210.824219 C 110.46875 210.050781 108.257812 207.835938 107.5 205 C 103.125 198.425781 114.230469 157.039062 120 155 C 129.109375 147.925781 166.597656 154.019531 177.5 155 C 179.570312 158.449219 183.335938 161.203125 185 165 C 188.125 172.148438 188.347656 179.148438 192.5 185 L 192.5 187.5 L 196.25 187.5 C 202.300781 181.75 214.042969 175.105469 223.75 173.75 C 225.316406 174.773438 226.992188 175.609375 228.75 176.25 C 230.140625 179.34375 230.859375 180.292969 231.25 185 C 218.992188 197.230469 203.207031 211.519531 181.25 210 L 176.25 198.75 L 175 200 C 171.96875 203.328125 159.914062 233.625 160 233.75 C 163.375 238.902344 167.605469 241.300781 172.5 245 C 177.625 248.875 180.519531 255.433594 185 260 C 185.558594 278.179688 180.257812 294.75 176.25 310 C 174.191406 317.839844 175.710938 328.164062 171.25 333.75 C 169.066406 336.484375 163.773438 336.304688 158.75 336.25 C 157.738281 334.417969 156.476562 332.734375 155 331.25 C 154.671875 306.929688 163.195312 287.117188 166.25 265 C 155.972656 259.683594 151.238281 247.777344 140 243.75 C 140.175781 254.238281 137.277344 276.425781 130 280 C 126.484375 282.425781 117.742188 281.339844 113.75 280 C 100.890625 275.675781 70 272.613281 70 256.25 L 73.75 252.5 C 81.027344 246.875 107.09375 258.773438 118.75 260 Z M 118.75 260 "/>
  </g>
</svg>