<svg xmlns="http://www.w3.org/2000/svg" width="50.01" height="50.01" viewBox="0 0 300 300">
  <defs>
    <style>
      .cls-1 {
        fill: #7cb82f;
      }

      .cls-1, .cls-2 {
        fill-rule: evenodd;
      }
    </style>
  </defs>
  <path id="Groen" class="cls-1" d="M37,98c12.173-.186,29.051-1.588,38,2a16.535,16.535,0,0,1,2,8l-3,3c-3.513,2.9-35.121,2.77-39,0-2.373-1.695-2.113-5.8-2-10A18.051,18.051,0,0,0,37,98Zm9,24a96.649,96.649,0,0,1,23,2c1.185,4.485,3.266,10.567-2,13H11c-2.113,1.2-3.431.311-7,0C-12.69,111.251,33.471,129.253,46,122ZM18,147c12.693-.186,30.583-1.771,40,2a16.535,16.535,0,0,1,2,8l-3,3c-6.44,5.089-35.056,2.847-42,0-2.629-4.3-3.149-5.812-1-11A17.684,17.684,0,0,0,18,147Z"/>
  <path id="Zwart" class="cls-2" d="M251,57c4.166-.075,7.689.247,10,2,7.425,2.152,10.278,8,10,18a11.725,11.725,0,0,0-2,5,59.8,59.8,0,0,0-9,7c-19.377,1.712-23.831-9.33-19-26C243.835,61.3,248.307,59.225,251,57ZM145,88c5.543-.036,7.973,1.02,12,2,4.26,5.686,7.113,7.076,7,18-3.19,3.423-3.961,7.249-9,9-5.138,4.216-11.994.46-17-1-3.146-5.209-5.054-7.819-5-17,2.519-2.6,3.978-6.977,7-9C141.618,88.916,143.641,89.105,145,88Zm62,21-3,23c-3.241,2.046-4.032,2.988-10,3l-2-3c-5.506-6.929,1.148-26.759,3-34a24.956,24.956,0,0,0,5-4c17.451-.283,43.921-0.835,51,10,3.926,5.306,5.281,16.328,8,22,1.754-.631.971-0.193,2-1,12.527-3.91,18.5-16.308,34-17,2.068,3.211,3.542,3.7,4,9-9.233,8.594-29.771,25.769-46,26-1.982-3.295-4.834-7.805-8-10q-5.5,16.5-11,33c8.087,5.051,19.183,12.548,19,26-2.684,4.18-1.526,10.442-3,16-3.136,11.827-5.331,25.919-8,38-2.825,1.647-3.424,2.611-8,3-3.983-4.066-5.236-5.117-5-14,3.3-5.06,8.346-38.753,9-47-8.235-4.912-13.647-14.72-23-18v2c-4.4,6.564-2.152,17.64-6,25-1.4,2.684-4.889,3.958-7,6-8.279-1.44-40.793-10.462-43-16-2.709-3.687-.331-7.8,3-9,7.36-4.548,27.123,9.638,34,7,4.544-7.192,3.1-18.315,6-27l21-48h-8C213.31,108.858,210.1,108.934,207,109ZM95,208c1.289-27.344,12.289-50.242,22-70H105l-1,1c-0.041,7.762-2.261,24.208-7,28a6.6,6.6,0,0,1-11-3c-3.5-5.26,5.383-38.37,10-40,7.286-5.659,37.277-.783,46,0,1.656,2.759,4.67,4.961,6,8,2.5,5.719,2.679,11.318,6,16v2h3c4.842-4.6,14.234-9.915,22-11a19.54,19.54,0,0,0,4,2c1.113,2.476,1.688,3.233,2,7-9.807,9.783-22.433,21.215-40,20l-4-9-1,1c-2.425,2.663-12.068,26.9-12,27,2.7,4.123,6.083,6.04,10,9,4.1,3.1,6.417,8.348,10,12,0.447,14.545-3.795,27.8-7,40-1.648,6.273-.432,14.531-4,19-1.747,2.188-5.98,2.045-10,2a18.068,18.068,0,0,0-3-4c-0.264-19.455,6.557-35.305,9-53-8.222-4.253-12.01-13.779-21-17,0.142,8.39-2.178,26.141-8,29-2.814,1.94-9.807,1.073-13,0-10.288-3.459-35-5.909-35-19l3-3C64.823,197.5,85.676,207.02,95,208Z"/>
</svg>
