<?xml version="1.0" encoding="UTF-8" standalone="no"?>
<svg id="Nederlands_verkeersbord_C11" width="300" height="300" viewBox="0 0 300 300" xmlns="http://www.w3.org/2000/svg" version="1.1">

<circle id="witte_cirkel_met_rode_rand" cx="150" cy="150" r="130.5" fill="#f7fbf5" stroke="#c1121c" stroke-width="39"/>

<g id="motorfiets">
    
<path fill="#2a2d2f" d="M 96.07646,209.95998 C 113.08302,209.95998 126.89574,196.17175 126.89574,179.13252 C 126.89574,162.12596 113.08302,148.31323 96.07646,148.31323 C 79.03722,148.31323 65.249,162.12596 65.249,179.13252 C 65.249,196.17175 79.03722,209.95998 96.07646,209.95998"/>

<path fill="#f7fbf5" d="M 95.97844,198.72846 C 106.82604,198.72846 115.59888,189.94745 115.59888,179.13252 C 115.59888,168.28491 106.82604,159.51208 95.97844,159.51208 C 85.1635,159.51208 76.35799,168.28491 76.35799,179.13252 C 76.35799,189.94745 85.1635,198.72846 95.97844,198.72846"/>

<path fill="#2a2d2f" d="M 203.8582,209.95998 C 220.89743,209.95998 234.67749,196.17175 234.67749,179.13252 C 234.67749,162.12596 220.89743,148.31323 203.8582,148.31323 C 186.85164,148.31323 173.03891,162.12596 173.03891,179.13252 C 173.03891,196.17175 186.85164,209.95998 203.8582,209.95998"/>

<path fill="#f7fbf5" d="M 203.76018,198.72846 C 214.60778,198.72846 223.38879,189.94745 223.38879,179.13252 C 223.38879,168.28491 214.60778,159.51208 203.76018,159.51208 C 192.94524,159.51208 184.17241,168.28491 184.17241,179.13252 C 184.17241,189.94745 192.94524,198.72846 203.76018,198.72846"/>

<path fill="#2a2d2f" d="M 106.98941,128.21085 L 138.19261,93.813815 C 144.60479,86.789011 155.0113,85.098157 160.11654,92.090288 C 165.22177,99.106924 184.90756,125.5643 184.90756,125.5643 C 193.58238,139.5649 183.75582,149.39962 178.65058,149.39962 C 166.36534,149.39962 146.51619,149.39962 146.51619,149.39962 L 169.20794,175.49759 L 162.95096,185.51202 L 128.90517,150.89444 C 125.33558,147.51273 125.90737,137.87404 131.55172,136.53443 C 137.23691,135.22749 157.30661,129.73834 157.30661,129.73834 L 139.69559,111.20429 L 113.43426,134.6557 L 106.98941,128.21085"/>

<path fill="#2a2d2f" d="M 152.00534,84.624391 C 147.28401,84.305824 142.02358,86.601138 138.19261,90.783347 L 137.0082,92.057614 L 125.13954,92.057614 L 125.13954,83.21943 L 135.35001,83.21943 L 135.35001,76.962453 L 125.13954,76.962453 C 125.13954,54.278868 155.0113,54.850655 155.0113,76.962453 C 155.0113,79.617175 152.00534,84.624391 152.00534,84.624391"/>

</g>

</svg>