<?xml version="1.0" standalone="no"?>
<svg id="Nederlands_verkeersbord_A1" width="300" height="300" viewBox="0 0 100 100"
xmlns="http://www.w3.org/2000/svg" version="1.1">

<circle id="witte cirkel met rode rand" cx="50" cy="50" r="43.5"
fill="#f7fbf5" stroke="#c1121c" stroke-width="13" />

<g id="nummer 50">
<path id="nummer 5" fill="#2a2d2f"
     d="M 29.727338,42.532742 C 31.248298,41.650557 31.567411,41.258475 35.587909,41.258475 C 41.129094,41.258475 49.903885,43.0773 49.521058,53.467476 C 49.372121,57.720478 47.755318,66.016827 35.556052,66.016827 C 29.089384,66.016827 21.569535,61.880905 21.463346,61.902687 L 24.983935,56.010564 C 25.026411,56.20116 31.950238,59.487571 35.556052,59.487571 C 39.470087,59.487571 42.979786,57.646963 42.979786,53.957579 C 42.979786,50.276363 41.852544,47.627086 35.683479,47.77684 C 34.566856,47.809513 31.152728,47.989218 29.270179,49.797152 L 23.526689,48.266943 L 23.601022,31.015329 L 46.500376,31.015329 L 46.500376,37.525526 L 29.801943,37.525526 L 29.727338,42.532742" />
<path id="nummer 0" fill="#2a2d2f"
     d="M 67.453195,30.429929 C 76.568337,30.429929 81.790409,37.727013 81.790409,48.117189 C 81.790409,58.518256 76.419399,65.858905 67.453195,65.858905 C 58.48699,65.858905 53.094743,58.678901 53.094743,48.117189 C 53.094743,37.727013 58.48699,30.429929 67.453195,30.429929 z M 67.453195,59.487571 C 72.111646,59.487571 75.408966,56.08408 75.408966,48.117189 C 75.408966,40.618618 72.111646,36.959185 67.453195,36.959185 C 62.784125,36.959185 59.795299,40.618618 59.795299,48.117189 C 59.795299,55.776404 62.784125,59.487571 67.453195,59.487571" />
</g>
</svg>