<?xml version="1.0" encoding="UTF-8" standalone="no"?>
<svg id="Nederlands_verkeersbord_C22a" width="300" height="300" viewBox="0 0 300 300" xmlns="http://www.w3.org/2000/svg" version="1.1">

<circle id="witte_cirkel_met_rode_rand" cx="150" cy="150" r="130" fill="#f7fbf5" stroke="#c1121c" stroke-width="40"/>

<path id="zwarte_tekst_Milieu" fill="#2a2d2f" d="M 101.81789,98.738284 L 108.54444,98.738284 L 108.54444,139.61719 L 101.81789,139.61719 L 101.81789,114.07812 L 89.48589,139.34375 L 77.181233,114.07812 L 77.181233,139.61719 L 70.4,139.61719 L 70.4,98.738284 L 77.181233,98.738284 L 89.48589,123.94922 L 101.81789,98.738284 z M 122.19219,139.617 L 122.19219,109.21075 L 128.97342,109.21075 L 128.97342,139.617 L 122.19219,139.617 z M 121.7,103.00371 C 121.7,102.31104 121.87773,101.66391 122.23321,101.06231 C 122.58867,100.46079 123.06263,99.98683 123.65508,99.640434 C 124.24752,99.294124 124.8992,99.120944 125.61015,99.120904 C 126.30285,99.120944 126.94542,99.294124 127.53789,99.640434 C 128.13032,99.98683 128.59971,100.46079 128.94608,101.06231 C 129.29242,101.66391 129.46559,102.31104 129.46561,103.00371 C 129.46559,104.06104 129.08734,104.97706 128.33085,105.75176 C 127.57433,106.52653 126.66743,106.9139 125.61015,106.91387 C 124.51639,106.9139 123.59127,106.52653 122.83477,105.75176 C 122.07825,104.97706 121.7,104.06104 121.7,103.00371 L 121.7,103.00371 z M 141.7,139.617 L 141.7,100.35137 L 148.39921,97.507624 L 148.39921,139.617 L 141.7,139.617 z M 161.09218,139.617 L 161.09218,109.21075 L 167.87342,109.21075 L 167.87342,139.617 L 161.09218,139.617 z M 160.6,103.00371 C 160.6,102.31104 160.77773,101.66391 161.1332,101.06231 C 161.48866,100.46079 161.96262,99.98683 162.55507,99.640434 C 163.14751,99.294124 163.7992,99.120944 164.51015,99.120904 C 165.20284,99.120944 165.84541,99.294124 166.43788,99.640434 C 167.03031,99.98683 167.49971,100.46079 167.84608,101.06231 C 168.19242,101.66391 168.36559,102.31104 168.36561,103.00371 C 168.36559,104.06104 167.98734,104.97706 167.23084,105.75176 C 166.47432,106.52653 165.56742,106.9139 164.51015,106.91387 C 163.41639,106.9139 162.49126,106.52653 161.73476,105.75176 C 160.97824,104.97706 160.6,104.06104 160.6,103.00371 L 160.6,103.00371 z M 190.01871,108.84075 C 187.44839,108.84078 185.15803,109.51396 183.14373,110.872 C 181.1294,112.2301 179.55909,114.08296 178.45624,116.4345 C 177.35337,118.78608 176.79999,121.41889 176.8,124.372 C 176.79999,126.57774 177.13071,128.65457 177.76874,130.5595 C 178.40675,132.46446 179.33384,134.10638 180.51874,135.52825 C 181.70362,136.95013 183.10596,138.06601 184.73748,138.84075 C 186.36897,139.61549 188.12287,139.997 190.01871,139.997 C 192.1515,139.997 194.12935,139.60246 195.92495,138.8095 C 197.72049,138.01653 199.3546,136.85899 200.83118,135.3095 L 195.73745,131.34075 C 195.02649,132.1793 194.24134,132.75742 193.3937,133.122 C 192.54604,133.48659 191.42234,133.68451 190.01871,133.6845 C 188.35985,133.68451 187.0174,132.97617 185.98747,131.59075 C 184.95751,130.20534 184.31819,128.43451 184.08123,126.247 L 203.17493,126.247 C 203.21136,125.82775 203.2374,125.19232 203.23743,124.372 C 203.2374,121.43712 202.6749,118.7952 201.58118,116.4345 C 200.48741,114.07385 198.94836,112.2301 196.92494,110.872 C 194.9015,109.51396 192.589,108.84078 190.01871,108.84075 z M 190.01871,115.247 C 191.54994,115.24703 192.81166,115.75353 193.7687,116.747 C 194.72571,117.74051 195.37285,119.12202 195.73745,120.872 L 184.36248,120.872 C 185.201,117.13505 187.08381,115.24703 190.01871,115.247 z M 231.61402,109.21094 L 238.34056,109.21094 L 238.34056,139.61719 L 231.61402,139.61719 L 231.61402,136.52734 C 229.39003,138.84245 226.66479,140 223.43826,140 C 221.39657,140 219.51442,139.4987 217.79178,138.49609 C 216.06912,137.49349 214.70649,136.13998 213.7039,134.43555 C 212.70129,132.73113 212.2,130.85808 212.2,128.8164 L 212.2,109.21094 L 218.98123,109.21094 L 218.98123,126.68359 C 218.98122,127.83204 219.25921,128.88478 219.81522,129.8418 C 220.37119,130.79884 221.13225,131.56446 222.09841,132.13867 C 223.06454,132.7129 224.13094,133.00001 225.29762,133 C 226.44604,133.00001 227.50333,132.71745 228.46949,132.15234 C 229.43561,131.58725 230.20123,130.82162 230.76636,129.85547 C 231.33144,128.88933 231.61399,127.83204 231.61402,126.68359 L 231.61402,109.21094"/>

<path id="zwarte_tekst_zone" fill="#2a2d2f" d="M 98.289826,193.89343 L 115.07885,193.89343 L 115.07885,200.62 L 88.2,200.62 L 88.2,194.74109 L 104.93434,176.995 L 88.992968,176.995 L 88.992968,170.26843 L 114.96948,170.26843 L 114.96948,176.20203 L 98.289826,193.89343 z M 133.71872,169.84375 C 131.13017,169.84378 128.82679,170.51696 126.81249,171.875 C 124.79816,173.2331 123.24999,175.07685 122.15624,177.4375 C 121.0625,179.7982 120.49999,182.44012 120.5,185.375 C 120.49999,188.32813 121.0625,191.01433 122.15624,193.375 C 123.24999,195.73568 124.8203,197.57031 126.84374,198.9375 C 128.86716,200.30469 131.1484,201 133.71872,201 C 136.30724,201 138.61062,200.30469 140.62496,198.9375 C 142.63925,197.57031 144.18743,195.73568 145.2812,193.375 C 146.37492,191.01433 146.93742,188.32813 146.93745,185.375 C 146.93742,182.44012 146.37492,179.7982 145.2812,177.4375 C 144.18743,175.07685 142.64838,173.2331 140.62496,171.875 C 138.60152,170.51696 136.28901,169.84378 133.71872,169.84375 z M 133.71872,176.25 C 135.06766,176.25003 136.19136,176.66669 137.09372,177.46875 C 137.99604,178.27086 138.6562,179.35158 139.09371,180.71875 C 139.53119,182.08595 139.74994,183.62501 139.74996,185.375 C 139.74994,188.07293 139.23952,190.28647 138.21872,192 C 137.19786,193.71355 135.70568,194.5625 133.71872,194.5625 C 131.73174,194.5625 130.23955,193.71355 129.21873,192 C 128.19789,190.28647 127.68747,188.07293 127.68748,185.375 C 127.68747,183.62501 127.90622,182.08595 128.34373,180.71875 C 128.78122,179.35158 129.44137,178.27086 130.34373,177.46875 C 131.24606,176.66669 132.36976,176.25003 133.71872,176.25 z M 162.09921,200.62 L 155.4,200.62 L 155.4,170.21375 L 162.09921,170.21375 L 162.09921,173.30359 C 163.13826,172.2281 164.37783,171.37133 165.81795,170.73328 C 167.25804,170.09529 168.74371,169.77628 170.27497,169.77625 C 172.29839,169.77628 174.17599,170.28214 175.90778,171.29382 C 177.63952,172.30557 179.01126,173.67276 180.02301,175.39539 C 181.03469,177.11807 181.54055,178.99111 181.54058,181.01453 L 181.54058,200.62 L 174.81404,200.62 L 174.81404,183.14734 C 174.81401,181.98069 174.5269,180.91884 173.95271,179.96179 C 173.37846,179.00478 172.60828,178.24372 171.64216,177.67859 C 170.67599,177.11351 169.60959,176.83096 168.44295,176.83093 C 167.2945,176.83096 166.23265,177.11807 165.25741,177.69226 C 164.28213,178.2665 163.51195,179.03668 162.94687,180.00281 C 162.38175,180.96897 162.0992,182.01715 162.09921,183.14734 L 162.09921,200.62 z M 203.11873,169.84375 C 200.5484,169.84378 198.25805,170.51696 196.24374,171.875 C 194.22941,173.2331 192.6591,175.08596 191.55625,177.4375 C 190.45338,179.78908 189.89999,182.42189 189.9,185.375 C 189.89999,187.58074 190.23072,189.65757 190.86875,191.5625 C 191.50676,193.46746 192.43385,195.10938 193.61875,196.53125 C 194.80363,197.95313 196.20597,199.06901 197.83749,199.84375 C 199.46899,200.61849 201.22288,201 203.11873,201 C 205.25152,201 207.22937,200.60546 209.02497,199.8125 C 210.82052,199.01953 212.45462,197.86199 213.93121,196.3125 L 208.83747,192.34375 C 208.12651,193.1823 207.34136,193.76042 206.49372,194.125 C 205.64605,194.48959 204.52236,194.68751 203.11873,194.6875 C 201.45986,194.68751 200.11741,193.97917 199.08749,192.59375 C 198.05753,191.20834 197.4182,189.43751 197.18124,187.25 L 216.27496,187.25 C 216.31139,186.83075 216.33743,186.19532 216.33746,185.375 C 216.33743,182.44012 215.77493,179.7982 214.68121,177.4375 C 213.58743,175.07685 212.04838,173.2331 210.02497,171.875 C 208.00152,170.51696 205.68901,169.84378 203.11873,169.84375 z M 203.11873,176.25 C 204.64996,176.25003 205.91167,176.75653 206.86872,177.75 C 207.82573,178.74351 208.47287,180.12502 208.83747,181.875 L 197.46249,181.875 C 198.30102,178.13805 200.18382,176.25003 203.11873,176.25"/>

</svg>