<?xml version="1.0" encoding="UTF-8" standalone="no"?>
<svg id="Nederlands_verkeersbord_C22b" width="300" height="300" viewBox="0 0 300 300" xmlns="http://www.w3.org/2000/svg" version="1.1">

<circle id="witte_cirkel_met_zwarte_rand" cx="150" cy="150" r="149.7675" fill="#f7fbf5" stroke="#2a2d2f" stroke-width="0.465"/>

<path id="grijze_tekst_Milieu" fill="#8f9695" d="M 82.594525,84.949222 L 91.242963,84.949222 L 91.242963,137.50781 L 82.594525,137.50781 L 82.594525,104.67188 L 66.739067,137.15625 L 50.918749,104.67188 L 50.918749,137.50781 L 42.2,137.50781 L 42.2,84.949222 L 50.918749,84.949222 L 66.739067,117.36328 L 82.594525,84.949222 z M 108.83281,137.508 L 108.83281,98.414255 L 117.55156,98.414255 L 117.55156,137.508 L 108.83281,137.508 z M 108.2,90.433787 C 108.19999,89.54321 108.42851,88.711179 108.88555,87.937693 C 109.34257,87.164306 109.95194,86.554931 110.71367,86.109568 C 111.47538,85.664307 112.31327,85.441651 113.22734,85.441599 C 114.11795,85.441651 114.94412,85.664307 115.70586,86.109568 C 116.46756,86.554931 117.07107,87.164306 117.51641,87.937693 C 117.9617,88.711179 118.18435,89.54321 118.18437,90.433787 C 118.18435,91.793207 117.69803,92.97094 116.72539,93.96699 C 115.75272,94.963126 114.5867,95.461172 113.22734,95.46113 C 111.82108,95.461172 110.63163,94.963126 109.65898,93.96699 C 108.68632,92.97094 108.19999,91.793207 108.2,90.433787 L 108.2,90.433787 z M 134,137.508 L 134,87.02363 L 142.61329,83.36738 L 142.61329,137.508 L 134,137.508 z M 158.93281,137.508 L 158.93281,98.414255 L 167.65156,98.414255 L 167.65156,137.508 L 158.93281,137.508 z M 158.3,90.433787 C 158.29999,89.54321 158.52851,88.711179 158.98555,87.937693 C 159.44257,87.164306 160.05194,86.554931 160.81367,86.109568 C 161.57538,85.664307 162.41327,85.441651 163.32734,85.441599 C 164.21795,85.441651 165.04412,85.664307 165.80586,86.109568 C 166.56756,86.554931 167.17107,87.164306 167.61641,87.937693 C 168.0617,88.711179 168.28435,89.54321 168.28437,90.433787 C 168.28435,91.793207 167.79803,92.97094 166.82539,93.96699 C 165.85272,94.963126 164.6867,95.461172 163.32734,95.46113 C 161.92108,95.461172 160.73163,94.963126 159.75898,93.96699 C 158.78632,92.97094 158.29999,91.793207 158.3,90.433787 L 158.3,90.433787 z M 196.06875,97.933502 C 192.76404,97.933541 189.81483,98.781197 187.225,100.52725 C 184.63514,102.27338 182.64296,104.6601 181.225,107.6835 C 179.80702,110.70697 179.09999,114.13665 179.1,117.9335 C 179.09999,120.76946 179.49843,123.39054 180.31875,125.83975 C 181.13905,128.28897 182.32655,130.44913 183.85,132.27725 C 185.37342,134.10538 187.18983,135.49991 189.2875,136.496 C 191.38514,137.49209 193.63123,137.996 196.06875,137.996 C 198.81091,137.996 201.35388,137.48429 203.6625,136.46475 C 205.97106,135.44522 208.07653,133.95694 209.975,131.96475 L 203.4125,126.871 C 202.49841,127.94913 201.50231,128.71476 200.4125,129.1835 C 199.32263,129.65226 197.87341,129.871 196.06875,129.871 C 193.93592,129.871 192.20545,128.99601 190.88125,127.21475 C 189.55701,125.43351 188.74842,123.12102 188.44375,120.3085 L 212.975,120.3085 C 213.02183,119.76946 213.06871,118.98821 213.06875,117.9335 C 213.06871,114.16009 212.34996,110.74994 210.94375,107.71475 C 209.53746,104.67963 207.54528,102.27338 204.94375,100.52725 C 202.34216,98.781197 199.37341,97.933541 196.06875,97.933502 z M 196.06875,106.1835 C 198.03747,106.18353 199.65075,106.81244 200.88125,108.08975 C 202.11169,109.36712 202.94372,111.15228 203.4125,113.40225 L 188.7875,113.40225 C 189.86561,108.59759 192.29529,106.18353 196.06875,106.1835 z M 249.46094,98.414065 L 258.10937,98.414065 L 258.10937,137.50781 L 249.46094,137.50781 L 249.46094,133.53516 C 246.60153,136.51172 243.09763,138 238.94922,138 C 236.3242,138 233.90428,137.35547 231.68945,136.06641 C 229.47459,134.77735 227.72264,133.03711 226.43359,130.8457 C 225.14452,128.65431 224.49999,126.24611 224.5,123.62109 L 224.5,98.414065 L 233.21875,98.414065 L 233.21875,120.87891 C 233.21873,122.35549 233.57615,123.709 234.29101,124.93945 C 235.00584,126.16993 235.98435,127.15431 237.22656,127.89258 C 238.46872,128.63087 239.83982,129.00001 241.33984,129 C 242.81638,129.00001 244.17575,128.63673 245.41797,127.91016 C 246.66012,127.1836 247.6445,126.19923 248.37109,124.95703 C 249.09762,123.71486 249.4609,122.35549 249.46094,120.87891 L 249.46094,98.414065"/>

<path id="grijze_tekst_zone" fill="#8f9695" d="M 81.672628,206.36357 L 103.25853,206.36357 L 103.25853,215.012 L 68.7,215.012 L 68.7,207.45341 L 90.215584,184.637 L 69.719528,184.637 L 69.719528,175.98857 L 103.11791,175.98857 L 103.11791,183.61747 L 81.672628,206.36357 z M 127.16872,175.4375 C 123.84059,175.43754 120.88356,176.28519 118.29374,178.03125 C 115.70389,179.77738 113.69999,182.18363 112.29375,185.21875 C 110.88749,188.25393 110.19999,191.66409 110.2,195.4375 C 110.19999,199.23439 110.88749,202.65236 112.29375,205.6875 C 113.69999,208.72266 115.72342,211.11719 118.32499,212.875 C 120.92653,214.63281 123.86403,215.5 127.16872,215.5 C 130.49682,215.5 133.45384,214.63281 136.04371,212.875 C 138.63351,211.11719 140.63741,208.72266 142.0437,205.6875 C 143.44991,202.65236 144.16866,199.23439 144.1687,195.4375 C 144.16866,191.66409 143.44991,188.25393 142.0437,185.21875 C 140.63741,182.18363 138.64523,179.77738 136.04371,178.03125 C 133.44212,176.28519 130.47339,175.43754 127.16872,175.4375 z M 127.16872,183.6875 C 128.90308,183.68754 130.35229,184.21878 131.51247,185.25 C 132.67259,186.28128 133.54368,187.64847 134.10621,189.40625 C 134.66868,191.16409 134.94993,193.18752 134.94996,195.4375 C 134.94993,198.90627 134.29368,201.73439 132.98121,203.9375 C 131.66869,206.14064 129.72339,207.25001 127.16872,207.25 C 124.61403,207.25001 122.69997,206.14064 121.38748,203.9375 C 120.07498,201.73439 119.41873,198.90627 119.41874,195.4375 C 119.41873,193.18752 119.69998,191.16409 120.26249,189.40625 C 120.82497,187.64847 121.6648,186.28128 122.82498,185.25 C 123.98511,184.21878 125.43434,183.68754 127.16872,183.6875 z M 163.71326,215.012 L 155.1,215.012 L 155.1,175.91825 L 163.71326,175.91825 L 163.71326,179.89091 C 165.04918,178.50813 166.64293,177.40657 168.49451,176.58622 C 170.34604,175.76595 172.25619,175.35579 174.22497,175.35575 C 176.82649,175.35579 179.24055,176.00618 181.46713,177.30693 C 183.69366,178.60774 185.45733,180.36555 186.75815,182.58036 C 188.05888,184.79524 188.70927,187.20344 188.70931,189.80497 L 188.70931,215.012 L 180.06089,215.012 L 180.06089,192.54716 C 180.06086,191.04718 179.69172,189.68195 178.95347,188.45146 C 178.21516,187.22102 177.22492,186.2425 175.98277,185.51591 C 174.74057,184.78938 173.36947,184.4261 171.8695,184.42607 C 170.39291,184.4261 169.02769,184.79524 167.77381,185.53349 C 166.51988,186.2718 165.52965,187.26203 164.8031,188.50419 C 164.07652,189.7464 163.71324,191.09406 163.71326,192.54716 L 163.71326,215.012 z M 216.26872,175.4375 C 212.96401,175.43754 210.0148,176.28519 207.42498,178.03125 C 204.83513,179.77738 202.84295,182.1641 201.42499,185.1875 C 200.00701,188.21097 199.29999,191.64065 199.3,195.4375 C 199.29999,198.27346 199.69843,200.89454 200.51874,203.34375 C 201.33904,205.79297 202.52654,207.95313 204.04999,209.78125 C 205.57341,211.60938 207.38981,213.00391 209.48748,214 C 211.58511,214.99609 213.8312,215.5 216.26872,215.5 C 219.01087,215.5 221.55383,214.98829 223.86245,213.96875 C 226.17101,212.94922 228.27647,211.46094 230.17494,209.46875 L 223.61246,204.375 C 222.69836,205.45313 221.70227,206.21876 220.61246,206.6875 C 219.52259,207.15626 218.07337,207.375 216.26872,207.375 C 214.13588,207.375 212.40542,206.50001 211.08123,204.71875 C 209.75699,202.93751 208.9484,200.62501 208.64373,197.8125 L 233.17494,197.8125 C 233.22177,197.27345 233.26865,196.49221 233.26869,195.4375 C 233.26865,191.66409 232.5499,188.25393 231.14369,185.21875 C 229.7374,182.18363 227.74522,179.77738 225.1437,178.03125 C 222.54211,176.28519 219.57337,175.43754 216.26872,175.4375 z M 216.26872,183.6875 C 218.23743,183.68754 219.85071,184.31644 221.08121,185.59375 C 222.31165,186.87112 223.14368,188.65627 223.61246,190.90625 L 208.98748,190.90625 C 210.06558,186.10159 212.49526,183.68754 216.26872,183.6875"/>

<path id="zwarte_strepen_met_witte_randen" fill="#2a2d2f" stroke="#f7fbf5" stroke-width="1.4" d="M 242.29035,35.712735 L 231.72359,29.602381 L 87.275682,279.77478 L 97.875042,285.88505 L 242.29035,35.712735 z M 227.26713,27.027902 L 216.7085,20.91763 L 72.252452,271.08995 L 82.851832,277.20029 L 227.26713,27.027902 z M 212.25204,18.375732 L 201.68526,12.265377 L 57.229212,262.4052 L 67.796012,268.51547 L 212.25204,18.375732"/>

<circle id="witte_bies" cx="150" cy="150" r="143.69" stroke="#f7fbf5" fill="none" stroke-width="9.32"/>

</svg>