<?xml version="1.0" encoding="UTF-8" standalone="no"?>
<svg
   width="500"
   height="500"
   viewBox="0 0 500 500"
   version="1.1"
   id="svg23"
   sodipodi:docname="logo.svg"
   inkscape:version="1.1.1 (1:1.1+202109281949+c3084ef5ed)"
   xmlns:inkscape="http://www.inkscape.org/namespaces/inkscape"
   xmlns:sodipodi="http://sodipodi.sourceforge.net/DTD/sodipodi-0.dtd"
   xmlns="http://www.w3.org/2000/svg"
   xmlns:svg="http://www.w3.org/2000/svg">
  <defs
     id="defs27" />
  <sodipodi:namedview
     id="namedview25"
     pagecolor="#505050"
     bordercolor="#eeeeee"
     borderopacity="1"
     inkscape:pageshadow="0"
     inkscape:pageopacity="0"
     inkscape:pagecheckerboard="0"
     showgrid="false"
     width="500px"
     showguides="true"
     inkscape:guide-bbox="true"
     inkscape:snap-global="false"
     inkscape:zoom="0.8765339"
     inkscape:cx="95.832004"
     inkscape:cy="148.31143"
     inkscape:current-layer="svg23">
    <sodipodi:guide
       position="248.77835,429.24652"
       orientation="1,0"
       id="guide844" />
    <sodipodi:guide
       position="-168.89539,252.36283"
       orientation="0,-1"
       id="guide846" />
  </sodipodi:namedview>
  <g
     id="surface1"
     transform="matrix(1.6098689,0,0,1.6098689,-47.96469,64.699761)">
    <path
       style="fill:#000000;fill-opacity:1;fill-rule:nonzero;stroke:none"
       d="m 77.988281,48.621094 v 10.4375 h -8.292969 c -5.191406,0 -8.898437,0.574218 -11.125,1.722656 -2.222656,1.152344 -3.339843,2.839844 -3.339843,5.070312 0,1.824219 1.015625,3.308594 3.035156,4.457032 2.023437,1.148437 5.429687,1.726562 10.214844,1.726562 4.117187,0 7.957031,-0.441406 11.527343,-1.320312 3.578126,-0.878906 6.507813,-1.859375 8.796876,-2.941406 v 12.0625 c -2.488282,1.144531 -5.558594,2.09375 -9.199219,2.835937 -3.640625,0.675781 -7.71875,1.011719 -12.234375,1.011719 -9.507813,0 -16.386719,-1.480469 -20.632813,-4.457032 -4.246093,-2.972656 -6.371093,-6.925781 -6.371093,-11.855468 0,-4.054688 1.214843,-7.09375 3.640624,-9.121094 2.496094,-2.027344 5.765626,-3.414062 9.8125,-4.152344 v -0.507812 c -3.503906,-0.8125 -6.136718,-2.300782 -7.886718,-4.460938 -1.753906,-2.230468 -2.632813,-5 -2.632813,-8.3125 0,-3.511718 1.078125,-6.316406 3.238281,-8.410156 2.15625,-2.160156 5.054688,-3.71875 8.691407,-4.660156 3.640625,-0.949219 7.691406,-1.417969 12.140625,-1.417969 3.839844,0 7.683594,0.371094 11.527344,1.113281 3.839843,0.746094 7.175781,1.753906 10.011718,3.039063 l -4.65625,10.945312 C 81.828125,40.414062 79.300781,39.5 76.671875,38.691406 c -2.558594,-0.8125 -5.527344,-1.21875 -8.898437,-1.21875 -7.347657,0 -11.023438,1.726563 -11.023438,5.171875 0,2.160157 1.082031,3.714844 3.234375,4.65625 2.230469,0.882813 5.699219,1.320313 10.421875,1.320313 z m 0,0"
       id="path2" />
    <path
       style="fill:#000000;fill-opacity:1;fill-rule:nonzero;stroke:none"
       d="M 143.21094,27.339844 V 38.691406 H 123.59375 V 65.34375 c 0,2.09375 0.60547,3.683594 1.82031,4.761719 1.21094,1.015625 2.79688,1.519531 4.75391,1.519531 1.68359,0 3.30469,-0.167969 4.85156,-0.503906 1.55469,-0.339844 3.10156,-0.742188 4.65625,-1.21875 v 11.25 c -1.48437,0.675781 -3.375,1.25 -5.66406,1.726562 -2.22656,0.539063 -4.65625,0.804688 -7.28125,0.804688 -3.44141,0 -6.54297,-0.539063 -9.30469,-1.617188 -2.69922,-1.085937 -4.85547,-2.941406 -6.46875,-5.574218 -1.62109,-2.703126 -2.42969,-6.417969 -2.42969,-11.148438 V 38.691406 H 94.671875 V 32.40625 l 8.699215,-5.066406 z m 0,0"
       id="path4" />
    <path
       style="fill:#000000;fill-opacity:1;fill-rule:nonzero;stroke:none"
       d="m 179.51562,83.585938 c -6.60546,0 -11.76171,-1.148438 -15.47265,-3.449219 -3.64063,-2.363281 -6.20313,-5.503907 -7.6836,-9.421875 C 154.875,66.726562 154.13281,62.300781 154.13281,57.4375 V 27.339844 h 15.07031 v 30.605468 c 0,4.796876 0.875,8.273438 2.62891,10.4375 1.75391,2.09375 4.48047,3.144532 8.19141,3.144532 3.97656,0 6.94531,-1.453125 8.89843,-4.359375 1.95313,-2.90625 2.9336,-7.871094 2.9336,-14.898438 0,-4.390625 -0.33594,-8.515625 -1.01172,-12.363281 -0.60547,-3.917969 -1.44922,-8.105469 -2.53125,-12.566406 h 15.16797 c 1.15234,4.390625 1.99219,8.546875 2.53125,12.464844 0.60547,3.851562 0.91015,8.140624 0.91015,12.871093 0,10.605469 -2.32812,18.410157 -6.97656,23.40625 -4.58594,5.003907 -11.39844,7.503907 -20.42969,7.503907 z m 0,0"
       id="path6" />
    <path
       style="fill:#000000;fill-opacity:1;fill-rule:nonzero;stroke:none"
       d="m 271.13672,27.339844 v 55.332031 h -11.42969 l -2.12109,-7.394531 h -0.70703 c -1.35157,2.765625 -3.03516,4.859375 -5.0586,6.28125 -1.95703,1.417968 -4.38281,2.125 -7.28125,2.125 -4.10937,0 -7.28125,-1.480469 -9.5039,-4.457032 h -0.30469 c 0.13672,0.675782 0.23828,1.753907 0.30469,3.242188 0.0664,1.421875 0.10156,2.90625 0.10156,4.460938 0.0664,1.621093 0.0977,3.042968 0.0977,4.257812 v 15.80859 h -15.0625 V 27.339844 h 15.0625 v 32.332031 c 0,7.96875 3.00391,11.953125 9,11.953125 4.51954,0 7.6211,-1.550781 9.30469,-4.660156 1.6875,-3.175782 2.52735,-7.703125 2.52735,-13.582032 V 27.339844 Z m 0,0"
       id="path8" />
    <path
       style="fill:#000000;fill-opacity:1;fill-rule:nonzero;stroke:none"
       d="m 337.07031,54.902344 c 0,9.191406 -2.42969,16.285156 -7.28125,21.285156 -4.78515,5 -11.32422,7.496094 -19.62109,7.496094 -5.1211,0 -9.70703,-1.109375 -13.75,-3.339844 -3.98047,-2.234375 -7.11328,-5.476562 -9.40235,-9.730469 -2.29687,-4.324219 -3.4414,-9.558593 -3.4414,-15.710937 0,-9.1875 2.39453,-16.246094 7.17969,-21.179688 4.78515,-4.929687 11.35937,-7.394531 19.71875,-7.394531 5.19531,0 9.77734,1.113281 13.7539,3.339844 3.97656,2.230469 7.10938,5.476562 9.40625,9.730469 2.28906,4.191406 3.4375,9.359374 3.4375,15.503906 z m -38.125,0 c 0,5.476562 0.87891,9.628906 2.62891,12.46875 1.82031,2.769531 4.75,4.15625 8.80078,4.15625 3.97266,0 6.83984,-1.386719 8.59375,-4.15625 1.82031,-2.839844 2.73047,-6.992188 2.73047,-12.46875 0,-5.46875 -0.91016,-9.558594 -2.73047,-12.257813 -1.75391,-2.769531 -4.65234,-4.160156 -8.69922,-4.160156 -3.97656,0 -6.875,1.390625 -8.69531,4.160156 -1.75,2.699219 -2.62891,6.789063 -2.62891,12.257813 z m 0,0"
       id="path10" />
    <path
       style="fill:#000000;fill-opacity:1;fill-rule:nonzero;stroke:none"
       d="M 36.929688,209.35156 60.289062,157.05859 58.570312,152.5 c -1.414062,-3.51563 -2.929687,-5.74609 -4.550781,-6.69141 -1.617187,-0.94531 -3.773437,-1.41797 -6.472656,-1.41797 -0.875,0 -1.785156,0.0664 -2.730469,0.20313 -0.875,0.13672 -1.652344,0.26953 -2.324218,0.40625 v -12.46484 c 0.945312,-0.20313 2.226562,-0.3711 3.84375,-0.50782 1.683593,-0.20312 3.132812,-0.30468 4.347656,-0.30468 4.3125,0 7.820312,0.70703 10.515625,2.1289 2.765625,1.35156 5.023437,3.34766 6.777343,5.97656 1.753907,2.63672 3.300782,5.84766 4.652344,9.62891 l 13.855469,38.20703 c 1.546875,4.1875 2.964844,6.92578 4.246094,8.20703 1.28125,1.21485 2.625,1.82813 4.042969,1.82813 0.945312,0 2.089843,-0.17188 3.441406,-0.50781 v 11.65625 c -0.8125,0.40234 -2.160156,0.73828 -4.046875,1.01171 -1.820313,0.33594 -3.371094,0.50782 -4.652344,0.50782 -4.109375,0 -7.25,-1.01563 -9.402344,-3.04297 -2.09375,-2.09375 -3.746093,-4.83203 -4.957031,-8.21094 l -4.75,-13.47656 c -0.746094,-2.16016 -1.453125,-4.25391 -2.125,-6.28125 -0.675781,-2.09766 -1.183594,-3.88281 -1.515625,-5.3711 h -0.304687 c -0.476563,1.75391 -1.046876,3.6836 -1.71875,5.77344 -0.675782,2.09375 -1.351563,3.95313 -2.027344,5.57422 L 52.5,209.35156 Z m 0,0"
       id="path12" />
    <path
       style="fill:#000000;fill-opacity:1;fill-rule:nonzero;stroke:none"
       d="m 155.75391,181.58594 c 0,9.1875 -2.42579,16.28125 -7.28125,21.27734 -4.78516,5.00391 -11.32813,7.50391 -19.61719,7.50391 -5.125,0 -9.71094,-1.11719 -13.75781,-3.34766 -3.97266,-2.22656 -7.10938,-5.46875 -9.40235,-9.72656 -2.29297,-4.32422 -3.4375,-9.5625 -3.4375,-15.70703 0,-9.19141 2.39063,-16.25 7.17969,-21.17969 4.78516,-4.9375 11.35938,-7.40234 19.71875,-7.40234 5.19141,0 9.77734,1.11328 13.75391,3.34765 3.97656,2.22656 7.11328,5.46875 9.40234,9.72656 2.29687,4.1875 3.44141,9.35547 3.44141,15.50782 z m -38.125,0 c 0,5.46875 0.875,9.625 2.6289,12.46093 1.81641,2.77344 4.75391,4.15625 8.79688,4.15625 3.97656,0 6.84375,-1.38281 8.59765,-4.15625 1.82032,-2.83593 2.73047,-6.99218 2.73047,-12.46093 0,-5.47657 -0.91015,-9.5625 -2.73047,-12.26563 -1.7539,-2.76953 -4.65234,-4.15234 -8.69922,-4.15234 -3.97656,0 -6.8789,1.38281 -8.69531,4.15234 -1.7539,2.70313 -2.6289,6.78906 -2.6289,12.26563 z m 0,0"
       id="path14" />
    <path
       style="fill:#000000;fill-opacity:1;fill-rule:nonzero;stroke:none"
       d="m 215.71875,154.01953 -20.42969,54.41797 c -1.00781,2.70312 -1.88281,5.57422 -2.625,8.61328 -0.74219,3.04297 -1.3164,5.98438 -1.71875,8.81641 -0.33594,2.91015 -0.50781,5.51172 -0.50781,7.80468 h -15.97656 c 0,-1.89062 0.19922,-4.2539 0.60937,-7.08984 0.46875,-2.83984 1.07813,-5.84766 1.82031,-9.02344 0.73829,-3.10547 1.57813,-6.04297 2.52344,-8.8164 l -21.03515,-54.72266 h 15.67578 l 8.08984,24.42188 c 0.60938,1.75781 1.24609,3.88671 1.92188,6.38671 0.74218,2.42969 1.38671,4.79297 1.92187,7.09375 0.53906,2.22657 0.91016,3.94922 1.11328,5.16407 h 0.30078 c 0.13672,-1.01172 0.40625,-2.4961 0.8125,-4.45703 0.46875,-2.02735 1.00782,-4.22266 1.61328,-6.58594 0.67579,-2.42969 1.38672,-4.73047 2.125,-6.89453 l 8.08985,-25.12891 z m 0,0"
       id="path16" />
    <path
       style="fill:#000000;fill-opacity:1;fill-rule:nonzero;stroke:none"
       d="m 238.67578,154.01953 v 38 c 0,2.09766 0.60547,3.68359 1.82031,4.76563 1.21485,1.01562 2.79688,1.52343 4.75391,1.52343 1.68359,0 3.30078,-0.17187 4.85547,-0.50781 1.54687,-0.33984 3.10156,-0.74609 4.64844,-1.21875 v 11.25 c -1.48438,0.67578 -3.36719,1.25 -5.66407,1.72266 -2.22265,0.53906 -4.64843,0.8125 -7.28125,0.8125 -3.4375,0 -6.53906,-0.53907 -9.30468,-1.625 -2.69532,-1.07813 -4.85157,-2.9375 -6.46875,-5.57422 -1.61719,-2.70313 -2.42969,-6.41797 -2.42969,-11.14844 v -38 z M 226.4375,147.9375 v -1.51953 c 0.54297,-1.625 1.04687,-3.48047 1.51562,-5.57422 0.54297,-2.09375 1.04688,-4.22266 1.51954,-6.38672 0.47265,-2.15625 0.80859,-4.08594 1.01171,-5.77344 h 13.95704 v 1.21485 c -1.07813,2.63672 -2.39844,5.50781 -3.94532,8.61328 -1.55468,3.10937 -3.30468,6.25 -5.26172,9.42578 z m 0,0"
       id="path18" />
    <path
       style="fill:#000000;fill-opacity:1;fill-rule:nonzero;stroke:none"
       d="m 283.07031,210.36719 c -6.47265,0 -11.69922,-2.39844 -15.67578,-7.19922 -3.98047,-4.85938 -5.96484,-11.95703 -5.96484,-21.27735 0,-9.46093 2.05468,-16.625 6.16406,-21.48437 4.11719,-4.86719 9.64453,-7.29688 16.58594,-7.29688 3.91406,0 7.11328,0.70704 9.60937,2.125 2.49219,1.35157 4.58594,3.41016 6.26953,6.1836 h 0.70703 c 0.33985,-1.14844 0.77344,-2.40235 1.3125,-3.75391 0.54297,-1.41797 1.21485,-2.63281 2.02344,-3.64453 h 12.4375 c -0.74219,2.16016 -1.51562,5.30078 -2.32031,9.42578 -0.8125,4.1211 -1.21484,8.44141 -1.21484,12.96875 v 15.40625 c 0,2.29688 0.40234,3.85156 1.21484,4.66016 0.87109,0.8125 1.85156,1.21875 2.92969,1.21875 0.46875,0 1.01172,-0.0664 1.62109,-0.20313 0.60547,-0.13672 1.03906,-0.23828 1.3125,-0.30468 v 11.85546 c -0.47266,0.27344 -1.44922,0.53907 -2.93359,0.8125 -1.41407,0.33594 -2.69532,0.50782 -3.83985,0.50782 -3.375,0 -6.10547,-0.60938 -8.19531,-1.82813 -2.08984,-1.21484 -3.70703,-3.375 -4.85547,-6.48437 H 299.25 c -1.48047,2.29687 -3.50781,4.25781 -6.07031,5.875 -2.5625,1.625 -5.92969,2.4375 -10.10938,2.4375 z m 4.55078,-12.0586 c 4.17969,0 7.07813,-1.2539 8.69532,-3.7539 1.6875,-2.56641 2.5625,-6.6211 2.6289,-12.16016 v -0.60937 c 0,-5.40235 -0.84375,-9.52344 -2.52734,-12.36329 -1.6211,-2.83593 -4.61719,-4.2539 -9,-4.2539 -3.57422,0 -6.23438,1.44922 -7.98828,4.35937 -1.75391,2.83203 -2.62891,6.98828 -2.62891,12.46094 0,10.875 3.60156,16.32031 10.82031,16.32031 z m 0,0"
       id="path20" />
  </g>
</svg>
