<?xml version="1.0" encoding="UTF-8" standalone="no"?>
<svg
   version="1.1"
   id="svg2"
   x="0px"
   y="0px"
   width="500"
   height="500"
   viewBox="0 0 500 500"
   xml:space="preserve"
   sodipodi:docname="dog-park.svg"
   inkscape:version="1.1.2 (1:1.1+202202050950+0a00cf5339)"
   xmlns:inkscape="http://www.inkscape.org/namespaces/inkscape"
   xmlns:sodipodi="http://sodipodi.sourceforge.net/DTD/sodipodi-0.dtd"
   xmlns="http://www.w3.org/2000/svg"
   xmlns:svg="http://www.w3.org/2000/svg"
   xmlns:rdf="http://www.w3.org/1999/02/22-rdf-syntax-ns#"
   xmlns:cc="http://creativecommons.org/ns#"
   xmlns:dc="http://purl.org/dc/elements/1.1/"><sodipodi:namedview
     pagecolor="#ffffff"
     bordercolor="#666666"
     borderopacity="1"
     objecttolerance="10"
     gridtolerance="10"
     guidetolerance="10"
     inkscape:pageopacity="0"
     inkscape:pageshadow="2"
     inkscape:window-width="1440"
     inkscape:window-height="879"
     id="namedview8"
     showgrid="false"
     inkscape:zoom="0.85127283"
     inkscape:cx="81.055095"
     inkscape:cy="227.89404"
     inkscape:window-x="0"
     inkscape:window-y="0"
     inkscape:window-maximized="1"
     inkscape:current-layer="layer2"
     inkscape:pagecheckerboard="0"
     width="500px" /><metadata
     id="metadata13"><rdf:RDF><cc:Work
         rdf:about=""><dc:format>image/svg+xml</dc:format><dc:type
           rdf:resource="http://purl.org/dc/dcmitype/StillImage" /></cc:Work></rdf:RDF></metadata><defs
     id="defs11" /><g
     inkscape:groupmode="layer"
     id="layer2"
     inkscape:label="dog"
     style="display:inline"><g
       id="g1126"
       transform="matrix(29.431862,0,0,29.431862,-10.373088,79.85804)"><g
         id="g3"
         transform="matrix(0.62012966,0,0,0.6688026,4.1128606,1.4673435)"><path
           style="fill:#010101"
           d="M 10.300781,1.2207031 C 9.9144812,1.2207031 9.6,1.2 9.5,2 L 9.0996094,4.5214844 11.5,6.5 h 2 C 14.9,6.5 15,5.5410156 15,5.5410156 l -1.900391,-2.21875 C 12.399609,2.6222656 11.7,2.5 11,2.5 V 2 C 11,2 11.06748,1.2206031 10.300781,1.2207031 Z M 4.75,1.5 c 0,0 -0.9507813,0.020603 -1.5507812,0.2207031 C 2.5992187,1.9207031 2,2.6210938 2,3.6210938 V 7.5214844 C 2,9.2214844 1.3,9.5 1,9.5 1,9.5 0,9.521484 0,10.521484 v 2.199219 c 0,0 7.8125e-4,0.800781 0.80078125,0.800781 H 1 1.5 2 v -0.5 -0.199218 c 0,-0.4 -0.2,-0.601172 -0.5,-0.701172 v -1.09961 c 1,0 1.1,-0.200781 1.5,-0.300781 l 0.5507812,2.197266 c 0.1000001,0.3 0.2000001,0.499609 0.5,0.599609 h 1 L 6,13.5 V 12.699219 C 6,12.022819 5,12 5,12 V 9.5 h 3.5 l 0.6992188,2.621094 C 9.5992188,13.521094 10.5,13.5 10.5,13.5 H 11 12 V 12.699219 C 12,11.987419 11,12 11,12 L 11.099609,7.921875 8,5.5 H 3.5 v -2 C 3.5,3.1 3.7765,3.0053 4,3 4.4941,2.9882 4.75,3 4.75,3 5.1642,3 5.5,2.6642 5.5,2.25 5.5,1.8358 5.1642,1.5 4.75,1.5 Z m 7,2.5 C 11.8881,4 12,4.1119 12,4.25 12,4.3881 11.8881,4.5 11.75,4.5 11.6119,4.5 11.5,4.3881 11.5,4.25 11.5,4.1119 11.6119,4 11.75,4 Z"
           id="path5" /></g><path
         style="display:inline;opacity:0.273562;fill:#00ff00;fill-rule:evenodd;stroke:#b00000;stroke-width:1.35865;stroke-linecap:butt;stroke-linejoin:round;stroke-miterlimit:4;stroke-dasharray:2.71729, 2.71729;stroke-dashoffset:9.2388;stroke-opacity:1;paint-order:markers fill stroke"
         d="M 3.6613422,-1.7211125 1.8737912,-0.02476002 1.6476892,11.770338 c 0,0 2.142468,1.659493 2.771259,1.672581 0.628792,0.01309 9.2899048,0.27623 9.7557618,0.06532 0.465856,-0.210914 1.554624,-0.936744 1.554624,-0.936744 0,0 0.876802,-9.0901277 0.724363,-9.2930207 C 16.37742,3.1769463 14.722539,1.8413273 13.087971,0.53207708 11.455909,-0.77516682 9.8440962,-2.0561221 9.8440962,-2.0561221 Z"
         id="path26"
         sodipodi:nodetypes="cccsscsscc" /></g></g></svg>
