<?xml version="1.0" encoding="UTF-8" standalone="no"?>
<svg
   width="375px"
   height="375px"
   viewBox="0 0 375 375"
   version="1.1"
   id="svg17"
   sodipodi:docname="botlogo.svg"
   inkscape:version="1.1.2 (0a00cf5339, 2022-02-04)"
   inkscape:export-filename="/home/pietervdvn/git/MapComplete/assets/themes/ghostbikes/botlogo.png"
   inkscape:export-xdpi="256"
   inkscape:export-ydpi="256"
   xmlns:inkscape="http://www.inkscape.org/namespaces/inkscape"
   xmlns:sodipodi="http://sodipodi.sourceforge.net/DTD/sodipodi-0.dtd"
   xmlns="http://www.w3.org/2000/svg"
   xmlns:svg="http://www.w3.org/2000/svg">
  <defs
     id="defs21" />
  <sodipodi:namedview
     id="namedview19"
     pagecolor="#505050"
     bordercolor="#eeeeee"
     borderopacity="1"
     inkscape:pageshadow="0"
     inkscape:pageopacity="0"
     inkscape:pagecheckerboard="0"
     showgrid="false"
     inkscape:zoom="1.852801"
     inkscape:cx="233.16049"
     inkscape:cy="265.27403"
     inkscape:window-width="1920"
     inkscape:window-height="995"
     inkscape:window-x="0"
     inkscape:window-y="0"
     inkscape:window-maximized="1"
     inkscape:current-layer="g3691" />
  <g
     id="g3691"
     transform="translate(12,-6)">
    <rect
       style="fill:none;stroke:#ff0000;stroke-width:1.13764;stroke-linejoin:round;stroke-miterlimit:10.6207;stroke-opacity:1"
       id="rect855"
       width="251.88741"
       height="224.90445"
       x="173.53928"
       y="200.92909" />
    <text
       xml:space="preserve"
       style="font-weight:bold;font-size:16px;font-family:sans-serif;-inkscape-font-specification:'sans-serif, Bold';text-align:center;text-anchor:middle;white-space:pre;inline-size:207.019;fill:none;stroke:#ff0000;stroke-width:1.13764;stroke-linejoin:round;stroke-miterlimit:10.6207;stroke-opacity:1"
       x="349.92654"
       y="408.2645"
       id="text2286"
       transform="translate(-28,-6)"><tspan
         x="349.92654"
         y="408.2645"
         id="tspan6169"><tspan
           style="fill:#ff0000;stroke:none"
           id="tspan6167">Keep this area free for</tspan><tspan
           y="408.2645"
           id="tspan6171"> </tspan></tspan><tspan
         x="349.92654"
         y="428.2645"
         id="tspan6175"><tspan
           style="fill:#ff0000;stroke:none"
           id="tspan6173">the 'bot' icon in Tusky</tspan></tspan></text>
  </g>
  <rect
     style="fill:#171414;stroke:none;stroke-width:1.13764;stroke-linejoin:round;stroke-miterlimit:10.6207;fill-opacity:1"
     id="rect1287"
     width="375.66898"
     height="375.02924"
     x="-0.16349041"
     y="0.25589794" />
  <g
     id="g831"
     transform="translate(36,-162)">
    <path
       style="fill:none;stroke:#ffffff;stroke-width:9.41179;stroke-linecap:butt;stroke-linejoin:miter;stroke-miterlimit:4;stroke-opacity:1"
       d="M 170.66484,296.57539 H 98.361671 l 39.440809,-87.51733 h 98.59902 m 0,0 -10.95611,-24.68712 h 30.67351 m -19.7174,24.68712 4.38364,11.21926 8.76131,17.95319 24.10104,58.34488 m -37.24599,-87.51733 -20.8178,33.65776 -12.4871,20.19584 m -8.32473,13.46788 8.32473,-13.46788 m -49.95436,-29.17245 21.90624,49.37427 -43.81847,-98.74254 13.14493,26.92978 m 43.81847,76.29808 14.90319,-24.68714"
       id="path6" />
    <path
       style="fill:none;stroke:#ffffff;stroke-width:4.7059;stroke-linecap:butt;stroke-linejoin:miter;stroke-miterlimit:4;stroke-opacity:1"
       d="m 194.26951,292.75989 c 0,7.42766 -5.8608,13.35424 -12.98346,13.35424 -7.1167,0 -12.98348,-5.92658 -12.98348,-13.35424 0,-7.43366 5.86678,-13.36024 12.98348,-13.36024 7.12266,0 12.98346,5.92658 12.98346,13.36024 z m 0,0"
       id="path8" />
    <path
       style="fill:none;stroke:#ffffff;stroke-width:9.41179;stroke-linecap:butt;stroke-linejoin:miter;stroke-miterlimit:4;stroke-opacity:1"
       d="m 148.09476,288.2686 c 0,28.49067 -22.52222,51.39564 -50.067992,51.39564 -27.545762,0 -50.073966,-22.90497 -50.073966,-51.39564 0,-28.49068 22.528204,-51.39565 50.073966,-51.39565 27.545772,0 50.067992,22.90497 50.067992,51.39565 z m 0,0"
       id="path10" />
    <path
       style="fill:none;stroke:#ffffff;stroke-width:9.41179;stroke-linecap:butt;stroke-linejoin:miter;stroke-miterlimit:4;stroke-opacity:1"
       d="m 320.89872,292.6044 c 0,28.59233 -23.18007,51.76642 -51.76643,51.76642 -28.58637,0 -51.76643,-23.17409 -51.76643,-51.76642 0,-28.58637 23.18006,-51.76045 51.76643,-51.76045 28.58636,0 51.76643,23.17408 51.76643,51.76045 z m 0,0"
       id="path12" />
  </g>
  <path
     style="fill:#fffafa;fill-opacity:1;fill-rule:nonzero;stroke:none;stroke-width:1.72229"
     d="M 132.4368,241.85044 H 97.66815 v -29.17121 c 0,-2.31432 -1.951,-4.18462 -4.36623,-4.18462 h -9.73497 c -2.40849,0 -4.36626,1.8703 -4.36626,4.18462 v 29.17121 H 44.43878 c -2.40849,0 -4.36626,1.8703 -4.36626,4.1779 v 9.338 c 0,2.3076 1.95777,4.1779 4.36626,4.1779 h 34.76191 v 87.702 c 0,2.31432 1.95777,4.18462 4.36626,4.18462 h 9.73497 c 2.41523,0 4.36623,-1.8703 4.36623,-4.18462 v -87.702 h 34.76865 c 2.40852,0 4.35954,-1.8703 4.35954,-4.1779 v -9.338 c 0,-2.3076 -1.95102,-4.1779 -4.35954,-4.1779 z m 0,0"
     id="path14" />
  <g
     inkscape:groupmode="layer"
     id="layer1"
     inkscape:label="Layer 1" />
</svg>
