<?xml version="1.0" encoding="UTF-8" standalone="no"?>
<svg
   xmlns:dc="http://purl.org/dc/elements/1.1/"
   xmlns:cc="http://creativecommons.org/ns#"
   xmlns:rdf="http://www.w3.org/1999/02/22-rdf-syntax-ns#"
   xmlns:svg="http://www.w3.org/2000/svg"
   xmlns="http://www.w3.org/2000/svg"
   xmlns:sodipodi="http://sodipodi.sourceforge.net/DTD/sodipodi-0.dtd"
   xmlns:inkscape="http://www.inkscape.org/namespaces/inkscape"
   id="svg69"
   version="1.1"
   fill="none"
   viewBox="0 0 98 122"
   height="122"
   width="122"
   sodipodi:docname="logo.svg"
   inkscape:version="0.92.4 (5da689c313, 2019-01-14)">
  <sodipodi:namedview
     pagecolor="#ffffff"
     bordercolor="#666666"
     borderopacity="1"
     objecttolerance="10"
     gridtolerance="10"
     guidetolerance="10"
     inkscape:pageopacity="0"
     inkscape:pageshadow="2"
     inkscape:window-width="1680"
     inkscape:window-height="1013"
     id="namedview16"
     showgrid="false"
     inkscape:zoom="1.9344262"
     inkscape:cx="61"
     inkscape:cy="61"
     inkscape:window-x="0"
     inkscape:window-y="0"
     inkscape:window-maximized="1"
     inkscape:current-layer="svg69" />
  <defs
     id="defs17" />
  <metadata
     id="metadata73">
    <rdf:RDF>
      <cc:Work
         rdf:about="">
        <dc:format>image/svg+xml</dc:format>
        <dc:type
           rdf:resource="http://purl.org/dc/dcmitype/StillImage" />
        <dc:title />
      </cc:Work>
    </rdf:RDF>
  </metadata>
  <g
     id="layer3"
     transform="translate(0,3.1016949)">
    <g
       id="g875">
      <path
         style="fill:#171615"
         d="m 53.0445,112.094 c -1.7831,3.887 -7.3059,3.887 -9.089,0 L 13.2124,45.085 C 11.6928,41.7729 14.1129,38 17.7569,38 h 61.4862 c 3.644,0 6.0641,3.7729 4.5445,7.085 z"
         id="path2"
         inkscape:connector-curvature="0" />
      <circle
         style="fill:#171615"
         cx="49"
         cy="49"
         r="49"
         id="circle4" />
      <path
         style="stroke:#ffffff;stroke-width:2"
         id="path10"
         d="M 45.0763,63.8434 H 29.7114 l 8.3809,-18.5979 h 8.3808 6.0529 6.5184 m 0,0 L 56.7164,40 h 3.2592 3.2592 m -4.1904,5.2455 0.9312,2.3844 1.8624,3.8149 5.1216,12.3986 m -7.9152,-18.5979 -4.4232,7.153 -2.654,4.2918 m -1.7693,2.8613 1.7693,-2.8613 M 41.3515,50.4911 46.0075,60.9822 36.6955,40 l 2.7936,5.7224 m 9.312,16.2135 3.1661,-5.2456"
         inkscape:connector-curvature="0" />
      <path
         style="stroke:#ffffff"
         id="path12"
         d="m 50.0922,63.032 c 0,1.5788 -1.2466,2.8381 -2.7593,2.8381 -1.5126,0 -2.7592,-1.2593 -2.7592,-2.8381 0,-1.5787 1.2466,-2.838 2.7592,-2.838 1.5127,0 2.7593,1.2593 2.7593,2.838 z"
         inkscape:connector-curvature="0" />
      <path
         style="stroke:#ffffff;stroke-width:2"
         id="path14"
         d="M 40.2801,62.0784 C 40.2801,68.1329 35.494,73 29.6401,73 23.7861,73 19,68.1329 19,62.0784 c 0,-6.0546 4.7861,-10.9217 10.6401,-10.9217 5.8539,0 10.64,4.8671 10.64,10.9217 z"
         inkscape:connector-curvature="0" />
      <g
         id="g20">
        <circle
           cx="66"
           cy="63"
           r="11"
           id="circle18"
           style="stroke:#ffffff;stroke-width:2" />
      </g>
      <g
         id="g8">
        <path
           d="M 56.4468,12.3002 H 49.8793 V 6.79007 C 49.8793,6.35374 49.5103,6 49.0552,6 H 47.2158 C 46.7606,6 46.3916,6.35374 46.3916,6.79007 V 12.3002 H 39.8242 C 39.369,12.3002 39,12.654 39,13.0903 v 1.7633 c 0,0.4364 0.369,0.7901 0.8242,0.7901 h 6.5674 v 16.5662 c 0,0.4364 0.369,0.7901 0.8242,0.7901 h 1.8394 c 0.4551,0 0.8241,-0.3537 0.8241,-0.7901 V 15.6437 h 6.5675 c 0.4552,0 0.8242,-0.3537 0.8242,-0.7901 v -1.7633 c 0,-0.4363 -0.369,-0.7901 -0.8242,-0.7901 z"
           id="path6"
           inkscape:connector-curvature="0"
           style="fill:#fffcfc" />
      </g>
    </g>
  </g>
</svg>
