<?xml version="1.0" standalone="no"?>
<svg id="Nederlands_verkeersbord_G13" width="300" height="100" viewBox="0 0 300 100"
xmlns="http://www.w3.org/2000/svg" version="1.1">

<rect id="blauw_vlak"
width="300" height="100" fill="#0e518d" />

  <path id="letter_f" fill="#f7fbf5"
     d="M 26.149505,71.540996 L 26.149505,47.622659 L 22.596029,47.622659 L 22.596029,40.697107 L 26.149505,40.697107 L 26.149505,39.05364 C 26.367214,32.303918 28.855425,30.515191 33.894043,30.515191 C 35.50361,30.515191 37.058739,30.90504 38.691626,31.14201 L 38.691626,36.546372 C 37.571933,36.485222 36.421132,36.607532 35.293662,36.607532 C 32.984291,36.607532 32.890995,38.159281 32.859888,40.039727 L 32.859888,40.697107 L 38.753833,40.697107 L 38.753833,47.622659 L 32.859888,47.622659 L 32.859888,71.540996 L 26.149505,71.540996" />
  <path id="letter_i" fill="#f7fbf5"
     d="M 51.420366,71.540996 L 58.954965,71.540996 L 58.954965,40.727687 L 51.420366,40.727687 L 51.420366,71.540996 z M 55.245978,38.39624 C 57.345408,38.39624 59.017173,36.752773 59.017173,34.727095 C 59.017173,32.663178 57.345408,31.0197 55.245978,31.0197 C 53.185434,31.0197 51.513671,32.663178 51.513671,34.727095 C 51.513671,36.752773 53.185434,38.39624 55.245978,38.39624" />
  <path id="letter_e" fill="#f7fbf5"
     d="M 95.461654,66.702293 C 93.370004,70.554907 89.295563,72.465925 84.225826,72.465925 C 75.050572,72.465925 71.411559,65.479224 71.411559,56.375126 C 71.411559,47.355108 75.625971,39.802758 84.684603,39.802758 C 93.214481,39.978577 97.28893,45.80336 97.28893,54.341799 L 97.28893,57.238916 L 77.904234,57.238916 C 77.297725,61.152679 78.635136,66.404164 84.163628,66.404164 C 89.544381,66.404164 90.788486,63.507068 90.788486,63.270088 L 95.461654,66.702293 z M 90.819575,52.759492 C 90.905119,48.165387 88.99231,44.610893 84.319142,44.610893 C 80.3069,44.610893 77.904234,48.280048 77.904234,52.759492 L 90.819575,52.759492" />
  <path id="letter_t" fill="#f7fbf5"
     d="M 113.08126,40.819418 L 113.08126,32.877216 L 119.79165,31.0197 L 119.79165,40.819418 L 128.02606,40.880577 L 128.02606,46.61364 L 119.79165,46.667149 L 119.79165,63.002548 C 119.79165,65.211685 121.4323,65.930244 123.83499,65.930244 C 126.29208,65.930244 127.96386,63.063698 127.96386,62.910819 L 126.81306,70.379099 C 125.95773,73.390865 113.3223,75.661153 113.08126,64.676606 L 113.08126,46.789449 L 107.00848,46.728299 L 107.00848,40.880577 L 113.08126,40.819418" />
  <path id="letter_s" fill="#f7fbf5"
     d="M 159.2453,47.653228 C 157.18474,46.728299 152.16945,45.298851 149.9534,45.298851 C 147.94728,45.298851 146.2522,46.25437 146.2522,47.981928 C 146.2522,50.703223 150.59101,51.865123 155.02312,53.539169 C 159.49412,55.182647 163.7474,57.422365 163.7474,62.314579 C 163.7474,68.200531 157.79125,72.557655 150.77761,72.557655 C 145.28023,72.557655 139.50292,69.39301 137.47349,65.035886 L 142.87755,62.857318 C 144.39382,65.150535 147.30969,66.794024 150.77761,66.794024 C 153.84122,66.794024 156.48494,65.540384 156.48494,62.910819 C 156.48494,61.244409 155.54409,60.464722 153.84122,59.539782 L 146.73428,56.436276 C 142.54321,54.57877 139.47181,52.881782 139.47181,48.639316 C 139.47181,43.624803 144.48712,39.649868 150.59101,39.649868 C 156.15059,39.649868 162.13006,42.875674 161.98233,42.875674 L 159.2453,47.653228" />
  <path id="letter_p" fill="#f7fbf5"
     d="M 177.44032,46.25437 C 177.37812,44.396852 177.23038,42.546985 177.44032,40.605377 L 184.18181,40.605377 L 184.15849,42.875674 L 184.18181,42.875674 C 185.18486,41.652616 187.2843,39.833338 191.6231,39.802758 C 201.25712,39.711018 203.53537,47.775538 203.53537,56.138176 C 203.53537,64.049787 198.5823,71.456907 191.50647,71.540996 C 188.59061,71.602145 186.70891,71.242876 184.36843,68.047651 L 184.15849,68.047651 L 184.15849,78.649987 L 177.44032,82.082184 L 177.44032,46.25437 z M 184.15849,62.253429 C 185.09934,63.690527 187.8908,65.723855 191.47537,65.150535 C 193.62922,64.791275 197.15159,61.810069 197.15159,56.015867 C 197.15159,50.252225 195.26989,45.97918 191.53758,45.86452 C 187.85969,45.74221 185.06823,46.8506 184.15849,48.608746 L 184.15849,62.253429" />
  <path id="letter_a" fill="#f7fbf5"
     d="M 214.70901,46.61364 C 216.13973,41.622046 220.81288,39.802758 226.25584,39.802758 C 232.69409,39.802758 239.07012,41.713776 239.07012,50.313375 L 239.07012,65.035886 C 239.07012,66.404164 239.13232,68.97258 239.31116,71.540996 C 239.31116,71.540996 232.56969,71.724457 232.56969,71.571576 C 232.66299,70.738357 232.53858,68.643881 232.63188,66.946902 L 233.17616,66.946902 C 231.23226,70.822438 227.74098,72.465925 223.4255,72.465925 C 216.34968,72.465925 212.70287,67.061563 212.70287,61.06095 C 212.70287,53.89846 219.93425,50.642064 224.12531,50.787305 C 228.68184,50.970764 232.53858,52.400201 232.53858,52.400201 C 232.53858,47.056989 232.81072,44.373923 226.4969,44.373923 C 223.48772,44.373923 220.33081,45.62755 220.02755,48.731047 L 214.70901,46.61364 z M 224.28082,55.595428 C 219.05559,55.595428 218.50352,60.671101 218.50352,60.671101 C 218.50352,64.493146 220.72735,66.977483 224.24972,66.977483 C 228.13755,66.977483 231.80765,64.676606 232.53858,62.016459 L 232.53858,57.238916 C 232.53858,57.238916 229.41276,55.595428 224.28082,55.595428" />
  <path id="letter_d" fill="#f7fbf5"
     d="M 278.25162,65.899664 C 278.31382,67.718951 278.46156,69.56882 278.25162,71.540996 L 271.51013,71.540996 L 271.54124,69.2707 L 271.51013,69.2707 C 270.47597,70.470828 268.40765,72.320695 264.06884,72.351267 C 254.44258,72.435355 252.1643,64.347906 252.1643,55.985287 C 252.1643,48.073657 257.10963,40.697107 264.18548,40.574807 C 267.10134,40.521298 268.99082,40.880577 271.32352,44.068153 L 271.54124,44.068153 L 271.54124,33.504036 L 278.25162,30.04126 L 278.25162,65.899664 z M 271.54124,49.862376 C 270.60038,48.432927 267.80115,46.43018 264.21657,46.995839 C 262.06271,47.324539 258.54036,50.343944 258.54036,56.107597 C 258.54036,61.9018 260.39096,66.289503 264.16214,66.289503 C 267.83226,66.289503 270.63148,65.303415 271.54124,63.537648 L 271.54124,49.862376" />

<path id="witte_bies" style="fill:none;stroke:#f7fbf5;stroke-width:6.70733976"
     d="M 276.30771,92.233521 C 285.02421,92.233521 292.10005,85.277409 292.10005,76.70839 L 292.10005,23.26096 C 292.10005,14.691942 285.02421,7.7358299 276.30771,7.7358299 L 23.661293,7.7358299 C 14.944785,7.7358299 7.868942,14.691942 7.868942,23.26096 L 7.868942,76.70839 C 7.868942,85.277409 14.944785,92.233521 23.661293,92.233521 L 276.30771,92.233521 z" />

</svg>