<?xml version="1.0" encoding="UTF-8" standalone="no"?>
<svg
   xmlns:dc="http://purl.org/dc/elements/1.1/"
   xmlns:cc="http://creativecommons.org/ns#"
   xmlns:rdf="http://www.w3.org/1999/02/22-rdf-syntax-ns#"
   xmlns:svg="http://www.w3.org/2000/svg"
   xmlns="http://www.w3.org/2000/svg"
   xmlns:sodipodi="http://sodipodi.sourceforge.net/DTD/sodipodi-0.dtd"
   xmlns:inkscape="http://www.inkscape.org/namespaces/inkscape"
   version="1.1"
   width="16"
   height="16"
   viewBox="0 0 16 16"
   id="svg2"
   sodipodi:docname="motel.svg"
   inkscape:version="0.92.2 5c3e80d, 2017-08-06">
  <sodipodi:namedview
     pagecolor="#ffffff"
     bordercolor="#666666"
     borderopacity="1"
     objecttolerance="10"
     gridtolerance="10"
     guidetolerance="10"
     inkscape:pageopacity="0"
     inkscape:pageshadow="2"
     inkscape:window-width="935"
     inkscape:window-height="540"
     id="namedview7"
     showgrid="false"
     inkscape:zoom="16.857143"
     inkscape:cx="7"
     inkscape:cy="7"
     inkscape:window-x="0"
     inkscape:window-y="0"
     inkscape:window-maximized="0"
     inkscape:current-layer="svg2" />
  <metadata
     id="metadata8">
    <rdf:RDF>
      <cc:Work
         rdf:about="">
        <dc:format>image/svg+xml</dc:format>
        <dc:type
           rdf:resource="http://purl.org/dc/dcmitype/StillImage" />
        <dc:title></dc:title>
      </cc:Work>
    </rdf:RDF>
  </metadata>
  <defs
     id="defs6" />
  <rect
     width="14"
     height="14"
     x="0"
     y="2"
     id="canvas"
     style="visibility:hidden;fill:none;stroke:none" />
  <path
     d="M 0.57142857,0 C 0.25485714,0 0,0.25485714 0,0.57142857 V 1.1428571 6.8571429 H 1.1428571 V 5.7142857 H 14.857143 V 6.8571429 H 16 V 2.2857143 1.7142857 c 0,-0.3165714 -0.254857,-0.5714286 -0.571429,-0.5714286 -0.316571,0 -0.571428,0.2548572 -0.571428,0.5714286 V 2.2857143 4.5714286 H 1.1428571 V 1.1428571 0.57142857 C 1.1428571,0.25485714 0.888,0 0.57142857,0 Z M 4,0 C 3.0532263,0 2.2857143,0.767512 2.2857143,1.7142857 c 0,0.9467737 0.767512,1.7142857 1.7142857,1.7142857 0.9467737,0 1.7142857,-0.767512 1.7142857,-1.7142857 C 5.7142857,0.767512 4.9467737,0 4,0 Z m 2.8571429,1.1428571 v 2.2857143 h 6.8571431 c 0,-1.1428571 -1.1842,-2.2857143 -2.285715,-2.2857143 z M 4.5714286,6.8571429 3.4285714,10.285714 c -0.5401897,0 -1.1428571,0.439195 -1.1428571,1.142857 v 3.428572 h 1.1428571 c 0,0 0,1.142857 1.1428572,1.142857 1.1428571,0 1.1428571,-1.142857 1.1428571,-1.142857 h 4.5714283 c 0,0 0,1.142857 1.142857,1.142857 1.142858,0 1.142858,-1.142857 1.142858,-1.142857 h 1.142857 v -3.428572 c 0,-0.594978 -0.520486,-1.142857 -1.142857,-1.142857 L 11.428571,6.8571429 Z M 5.7142857,8 H 10.285714 L 11,10.285714 H 5 Z m -1.1428571,3.714286 c 0.4733874,0 0.8571428,0.383755 0.8571428,0.857143 0,0.473387 -0.3837554,0.857142 -0.8571428,0.857142 -0.4733875,0 -0.8571429,-0.383755 -0.8571429,-0.857142 0,-0.473388 0.3837554,-0.857143 0.8571429,-0.857143 z m 6.8571424,0 c 0.473388,0 0.857143,0.383755 0.857143,0.857143 0,0.473387 -0.383755,0.857142 -0.857143,0.857142 -0.473387,0 -0.857142,-0.383755 -0.857142,-0.857142 0,-0.473388 0.383755,-0.857143 0.857142,-0.857143 z"
     id="motel"
     style="fill:#0092da;stroke-width:1.14285719"
     inkscape:connector-curvature="0" />
</svg>
