<?xml version="1.0" encoding="utf-8"?>
<!-- Generator: Adobe Illustrator 14.0.0, SVG Export Plug-In . SVG Version: 6.00 Build 43363)  -->
<!DOCTYPE svg PUBLIC "-//W3C//DTD SVG 1.1//EN" "http://www.w3.org/Graphics/SVG/1.1/DTD/svg11.dtd">
<svg version="1.1" id="Calque_1" xmlns="http://www.w3.org/2000/svg" xmlns:xlink="http://www.w3.org/1999/xlink" x="0px" y="0px"
	 width="95.816px" height="83.722px" viewBox="0 0 95.816 83.722" enable-background="new 0 0 95.816 83.722" xml:space="preserve">
<path fill="#ED1C24" d="M52.208,2.271C51.329,0.876,49.77,0,47.97,0c-1.719,0-2.479,0.836-3.399,2.113L0.95,75.31
	c-1.519,1.992-1.16,5.143,0.68,6.977c1.04,1.037,2.239,1.436,3.598,1.436h86.324c1,0,2.039-0.679,2.798-1.436
	c1.48-1.516,1.84-3.707,1.079-5.582L52.208,2.271z"/>
<path fill="none" stroke="#ED1C24" stroke-width="0" stroke-miterlimit="3.863" d="M52.208,2.271C51.329,0.876,49.77,0,47.97,0
	c-1.719,0-2.479,0.836-3.399,2.113L0.95,75.31c-1.519,1.992-1.16,5.143,0.68,6.977c1.04,1.037,2.239,1.436,3.598,1.436h86.324
	c1,0,2.039-0.679,2.799-1.436c1.479-1.516,1.839-3.707,1.078-5.582L52.208,2.271z"/>
<polygon fill-rule="evenodd" clip-rule="evenodd" fill="#FFFFFF" points="81.155,72.917 47.93,15.468 14.704,72.917 "/>
<polygon fill="none" stroke="#ED1C24" stroke-width="0" stroke-miterlimit="3.863" points="81.155,72.917 47.93,15.468 
	14.704,72.917 "/>
<path fill="#120C0E" d="M37.094,48.877l-1.6-1.116l5.199-3.31l2.759-5.342l2.639-1.037l0.04-1.195c-0.281,0-0.401-0.08-0.68-0.08
	c-0.959-0.558-0.68-4.784-0.68-4.784c0.201-0.2,0.6-0.718,0.8-0.718c0.719-0.2,2.438-0.16,2.798,0.2
	c0.041,0.159,0.521,0.318,0.401,1.116v4.864l3.678,1.315l3.479,4.583l1.079,7.137l-1.599,0.799l-0.96-5.861l-2.999-3.269
	l-0.279,8.013l6.678,15.389l-3.84,1.914l-0.199-0.838l0.92-1.514L48.53,54.179l-7.517,13.556l-4.078-1.993l0.64-0.957l1.399,0.199
	l6.237-14.313l-0.719-7.097l-1.799,2.871L37.094,48.877z"/>
<path fill="none" stroke="#120C0E" stroke-width="0" stroke-miterlimit="3.863" d="M37.094,48.876l-1.6-1.115l5.199-3.31
	l2.759-5.342l2.639-1.037l0.04-1.195c-0.281,0-0.401-0.08-0.68-0.08c-0.959-0.558-0.68-4.784-0.68-4.784
	c0.201-0.2,0.6-0.718,0.8-0.718c0.719-0.2,2.438-0.16,2.798,0.2c0.041,0.159,0.521,0.318,0.401,1.116v4.864l3.678,1.315l3.479,4.583
	l1.079,7.137l-1.599,0.799l-0.96-5.861l-2.999-3.269l-0.279,8.013l6.678,15.389l-3.84,1.914l-0.199-0.838l0.92-1.514L48.53,54.179
	l-7.517,13.556l-4.078-1.993l0.64-0.957l1.399,0.199l6.237-14.313l-0.719-7.097l-1.799,2.871L37.094,48.876z"/>
<polygon fill-rule="evenodd" clip-rule="evenodd" fill="#120C0E" points="65.603,70.844 66.122,69.847 68.401,69.847 67.841,70.844 
	"/>
<polygon fill="none" stroke="#120C0E" stroke-width="0" stroke-miterlimit="3.863" points="65.603,70.844 66.122,69.847 
	68.401,69.847 67.841,70.844 "/>
<polygon fill-rule="evenodd" clip-rule="evenodd" fill="#120C0E" points="66.923,60.598 67.442,59.601 69.722,59.601 69.161,60.598 
	"/>
<polygon fill="none" stroke="#120C0E" stroke-width="0" stroke-miterlimit="3.863" points="66.923,60.598 67.442,59.601 
	69.722,59.601 69.161,60.598 "/>
<polygon fill-rule="evenodd" clip-rule="evenodd" fill="#120C0E" points="62.165,60.598 62.685,59.601 64.962,59.601 64.402,60.598 
	"/>
<polygon fill="none" stroke="#120C0E" stroke-width="0" stroke-miterlimit="3.863" points="62.165,60.598 62.685,59.601 
	64.962,59.601 64.402,60.598 "/>
<polygon fill-rule="evenodd" clip-rule="evenodd" fill="#120C0E" points="57.525,60.598 58.046,59.601 60.325,59.601 59.765,60.598 
	"/>
<polygon fill="none" stroke="#120C0E" stroke-width="0" stroke-miterlimit="3.863" points="57.525,60.598 58.046,59.601 
	60.325,59.601 59.765,60.598 "/>
<polygon fill-rule="evenodd" clip-rule="evenodd" fill="#120C0E" points="56.126,70.844 56.646,69.847 58.926,69.847 58.366,70.844 
	"/>
<polygon fill="none" stroke="#120C0E" stroke-width="0" stroke-miterlimit="3.863" points="56.126,70.844 56.646,69.847 
	58.926,69.847 58.366,70.844 "/>
<polygon fill-rule="evenodd" clip-rule="evenodd" fill="#120C0E" points="60.964,70.844 61.484,69.847 63.764,69.847 63.204,70.844 
	"/>
<polygon fill="none" stroke="#120C0E" stroke-width="0" stroke-miterlimit="3.863" points="60.965,70.844 61.484,69.847 
	63.764,69.847 63.204,70.844 "/>
<polygon fill-rule="evenodd" clip-rule="evenodd" fill="#120C0E" points="52.768,60.598 53.288,59.601 55.567,59.601 55.007,60.598 
	"/>
<polygon fill="none" stroke="#120C0E" stroke-width="0" stroke-miterlimit="3.863" points="52.768,60.598 53.288,59.601 
	55.567,59.601 55.007,60.598 "/>
<polygon fill-rule="evenodd" clip-rule="evenodd" fill="#120C0E" points="48.05,60.598 48.57,59.601 50.849,59.601 50.289,60.598 
	"/>
<polygon fill="none" stroke="#120C0E" stroke-width="0" stroke-miterlimit="3.863" points="48.05,60.598 48.57,59.601 
	50.849,59.601 50.289,60.598 "/>
<polygon fill-rule="evenodd" clip-rule="evenodd" fill="#120C0E" points="43.332,60.598 43.852,59.601 46.131,59.601 45.571,60.598 
	"/>
<polygon fill="none" stroke="#120C0E" stroke-width="0" stroke-miterlimit="3.863" points="43.332,60.598 43.852,59.601 
	46.131,59.601 45.571,60.598 "/>
<polygon fill-rule="evenodd" clip-rule="evenodd" fill="#120C0E" points="42.052,70.844 42.572,69.847 44.851,69.847 44.292,70.844 
	"/>
<polygon fill="none" stroke="#120C0E" stroke-width="0" stroke-miterlimit="3.863" points="42.052,70.844 42.572,69.847 
	44.851,69.847 44.292,70.844 "/>
<polygon fill-rule="evenodd" clip-rule="evenodd" fill="#120C0E" points="46.77,70.844 47.29,69.847 49.569,69.847 49.009,70.844 
	"/>
<polygon fill="none" stroke="#120C0E" stroke-width="0" stroke-miterlimit="3.863" points="46.77,70.844 47.29,69.847 
	49.569,69.847 49.009,70.844 "/>
<polygon fill-rule="evenodd" clip-rule="evenodd" fill="#120C0E" points="51.448,70.844 51.969,69.847 54.247,69.847 53.687,70.844 
	"/>
<polygon fill="none" stroke="#120C0E" stroke-width="0" stroke-miterlimit="3.863" points="51.448,70.844 51.969,69.847 
	54.247,69.847 53.687,70.844 "/>
<polygon fill-rule="evenodd" clip-rule="evenodd" fill="#120C0E" points="38.693,60.598 39.214,59.601 41.492,59.601 40.933,60.598 
	"/>
<polygon fill="none" stroke="#120C0E" stroke-width="0" stroke-miterlimit="3.863" points="38.693,60.598 39.214,59.601 
	41.493,59.601 40.933,60.598 "/>
<polygon fill-rule="evenodd" clip-rule="evenodd" fill="#120C0E" points="37.334,70.844 37.854,69.847 40.133,69.847 39.574,70.844 
	"/>
<polygon fill="none" stroke="#120C0E" stroke-width="0" stroke-miterlimit="3.863" points="37.334,70.844 37.854,69.847 
	40.133,69.847 39.574,70.844 "/>
<polygon fill-rule="evenodd" clip-rule="evenodd" fill="#120C0E" points="33.696,60.598 34.216,59.601 36.495,59.601 35.936,60.598 
	"/>
<polygon fill="none" stroke="#120C0E" stroke-width="0" stroke-miterlimit="3.863" points="33.696,60.598 34.216,59.601 
	36.495,59.601 35.936,60.598 "/>
<polygon fill-rule="evenodd" clip-rule="evenodd" fill="#120C0E" points="28.979,60.598 29.498,59.601 31.776,59.601 31.217,60.598 
	"/>
<polygon fill="none" stroke="#120C0E" stroke-width="0" stroke-miterlimit="3.863" points="28.979,60.598 29.498,59.601 
	31.776,59.601 31.217,60.598 "/>
<polygon fill-rule="evenodd" clip-rule="evenodd" fill="#120C0E" points="32.457,70.844 32.976,69.847 35.255,69.847 34.696,70.844 
	"/>
<polygon fill="none" stroke="#120C0E" stroke-width="0" stroke-miterlimit="3.863" points="32.457,70.844 32.976,69.847 
	35.255,69.847 34.696,70.844 "/>
<polygon fill-rule="evenodd" clip-rule="evenodd" fill="#120C0E" points="27.779,70.844 28.298,69.847 30.578,69.847 30.018,70.844 
	"/>
<polygon fill="none" stroke="#120C0E" stroke-width="0" stroke-miterlimit="3.863" points="27.779,70.844 28.298,69.847 
	30.578,69.847 30.018,70.844 "/>
<polygon fill-rule="evenodd" clip-rule="evenodd" fill="#120C0E" points="24.1,60.598 24.62,59.601 26.899,59.601 26.339,60.598 "/>
<polygon fill="none" stroke="#120C0E" stroke-width="0" stroke-miterlimit="3.863" points="24.1,60.598 24.62,59.601 26.899,59.601 
	26.339,60.598 "/>
<polygon fill-rule="evenodd" clip-rule="evenodd" fill="#120C0E" points="22.9,70.844 23.42,69.847 25.7,69.847 25.14,70.844 "/>
<polygon fill="none" stroke="#120C0E" stroke-width="0" stroke-miterlimit="3.863" points="22.9,70.844 23.42,69.847 25.7,69.847 
	25.14,70.844 "/>
</svg>
