<?xml version="1.0" encoding="utf-8"?>
<!-- Generator: Adobe Illustrator 14.0.0, SVG Export Plug-In . SVG Version: 6.00 Build 43363)  -->
<!DOCTYPE svg PUBLIC "-//W3C//DTD SVG 1.1//EN" "http://www.w3.org/Graphics/SVG/1.1/DTD/svg11.dtd">
<svg version="1.1" id="Calque_1" xmlns="http://www.w3.org/2000/svg" xmlns:xlink="http://www.w3.org/1999/xlink" x="0px" y="0px"
	 width="51.965px" height="141.188px" viewBox="0 0 51.965 141.188" enable-background="new 0 0 51.965 141.188"
	 xml:space="preserve">
<path fill="none" stroke="#000000" stroke-width="0.2" stroke-miterlimit="3.863" d="M22.908,141.068 M29.716,141.068h-6.81V40.996
	h6.81V141.068z"/>
<path fill-rule="evenodd" clip-rule="evenodd" fill="#ED1C24" d="M22.908,141.088 M29.716,141.088h-6.81V86.815h6.81V141.088z"/>
<path fill="none" stroke="#ED1C24" stroke-width="0.2" stroke-miterlimit="3.863" d="M22.908,141.088 M29.716,141.088h-6.81V86.815
	h6.81V141.088z"/>
<path fill-rule="evenodd" clip-rule="evenodd" fill="#ED1C24" d="M22.908,59.08 M29.716,59.08h-6.81v-9.072h6.81V59.08z"/>
<path fill="none" stroke="#ED1C24" stroke-width="0.2" stroke-miterlimit="3.863" d="M22.908,59.08 M29.716,59.08h-6.81v-9.072h6.81
	V59.08z"/>
<path fill-rule="evenodd" clip-rule="evenodd" fill="#ED1C24" d="M22.908,77.404 M29.716,77.404h-6.81v-9.072h6.81V77.404z"/>
<path fill="none" stroke="#ED1C24" stroke-width="0.2" stroke-miterlimit="3.863" d="M22.908,77.404 M29.716,77.404h-6.81v-9.072
	h6.81V77.404z"/>
<path fill-rule="evenodd" clip-rule="evenodd" fill="#ED1C24" d="M22.908,41.057 M29.716,41.057h-6.81v-9.072h6.81V41.057z"/>
<path fill="none" stroke="#ED1C24" stroke-width="0.2" stroke-miterlimit="3.863" d="M22.908,41.057 M29.716,41.057h-6.81v-9.072
	h6.81V41.057z"/>
<polygon fill-rule="evenodd" clip-rule="evenodd" fill="#FFFFFF" points="19.333,25.902 25.863,19.362 32.394,25.902 25.863,32.422 
	"/>
<polygon fill="none" stroke="#FFFFFF" stroke-width="0.2" stroke-miterlimit="3.863" points="19.333,25.902 25.863,19.362 
	32.394,25.902 25.863,32.422 "/>
<polygon fill-rule="evenodd" clip-rule="evenodd" fill="#FFFFFF" points="6.552,12.982 12.983,6.563 19.413,12.982 12.983,19.382 
	"/>
<polygon fill="none" stroke="#000000" stroke-width="0.2" stroke-miterlimit="3.863" points="6.552,12.982 12.983,6.563 
	19.413,12.982 12.983,19.382 "/>
<polygon fill-rule="evenodd" clip-rule="evenodd" fill="#FFFFFF" points="32.394,38.803 38.824,32.382 45.253,38.803 38.824,45.203 
	"/>
<polygon fill="none" stroke="#000000" stroke-width="0.2" stroke-miterlimit="3.863" points="32.394,38.803 38.824,32.382 
	45.253,38.803 38.824,45.203 "/>
<polygon fill-rule="evenodd" clip-rule="evenodd" fill="#ED1C24" points="38.843,45.243 45.274,38.822 51.705,45.243 45.274,51.644 
	"/>
<polygon fill="none" stroke="#ED1C24" stroke-width="0.2" stroke-miterlimit="3.863" points="38.843,45.243 45.274,38.822 
	51.705,45.243 45.274,51.644 "/>
<polygon fill-rule="evenodd" clip-rule="evenodd" fill="#FFFFFF" points="45.414,12.962 38.984,6.542 32.593,12.922 39.003,19.343 
	"/>
<polygon fill="none" stroke="#000000" stroke-width="0.2" stroke-miterlimit="3.863" points="45.414,12.962 38.984,6.542 
	32.593,12.922 39.003,19.343 "/>
<polygon fill-rule="evenodd" clip-rule="evenodd" fill="#FFFFFF" points="19.453,38.882 13.022,32.462 6.632,38.843 13.042,45.264 
	"/>
<polygon fill="none" stroke="#000000" stroke-width="0.2" stroke-miterlimit="3.863" points="19.453,38.882 13.022,32.462 
	6.632,38.843 13.042,45.264 "/>
<polygon fill-rule="evenodd" clip-rule="evenodd" fill="#ED1C24" points="39.222,19.123 32.792,12.724 26.142,19.362 32.573,25.764 
	"/>
<polygon fill="none" stroke="#ED1C24" stroke-width="0.2" stroke-miterlimit="3.863" points="39.222,19.123 32.792,12.724 
	26.142,19.362 32.573,25.764 "/>
<polygon fill-rule="evenodd" clip-rule="evenodd" fill="#ED1C24" points="51.824,6.563 45.394,0.142 39.003,6.522 45.414,12.942 "/>
<polygon fill="none" stroke="#ED1C24" stroke-width="0.2" stroke-miterlimit="3.863" points="51.824,6.563 45.394,0.142 
	39.003,6.522 45.414,12.942 "/>
<polygon fill-rule="evenodd" clip-rule="evenodd" fill="#ED1C24" points="12.843,19.243 19.273,12.843 25.863,19.422 19.433,25.843 
	"/>
<polygon fill="none" stroke="#ED1C24" stroke-width="0.2" stroke-miterlimit="3.863" points="12.843,19.243 19.273,12.843 
	25.863,19.422 19.433,25.843 "/>
<polygon fill-rule="evenodd" clip-rule="evenodd" fill="#ED1C24" points="0.142,6.582 6.572,0.161 13.002,6.582 6.572,12.982 "/>
<polygon fill="none" stroke="#ED1C24" stroke-width="0.2" stroke-miterlimit="3.863" points="0.142,6.582 6.572,0.161 13.002,6.582 
	6.572,12.982 "/>
<polygon fill-rule="evenodd" clip-rule="evenodd" fill="#ED1C24" points="25.863,32.482 19.433,26.063 13.042,32.442 19.453,38.862 
	"/>
<polygon fill="none" stroke="#ED1C24" stroke-width="0.2" stroke-miterlimit="3.863" points="25.863,32.482 19.433,26.063 
	13.042,32.442 19.453,38.862 "/>
<polygon fill-rule="evenodd" clip-rule="evenodd" fill="#ED1C24" points="13.082,45.243 6.652,38.822 0.182,45.283 6.592,51.703 "/>
<polygon fill="none" stroke="#ED1C24" stroke-width="0.2" stroke-miterlimit="3.863" points="13.082,45.243 6.652,38.822 
	0.182,45.283 6.592,51.703 "/>
<polygon fill-rule="evenodd" clip-rule="evenodd" fill="#ED1C24" points="25.983,32.402 32.413,25.982 38.843,32.402 32.413,38.803 
	"/>
<polygon fill="none" stroke="#ED1C24" stroke-width="0.2" stroke-miterlimit="3.863" points="25.983,32.402 32.413,25.982 
	38.843,32.402 32.413,38.803 "/>
</svg>
