<?xml version="1.0" encoding="utf-8"?>
<!-- Generator: Adobe Illustrator 14.0.0, SVG Export Plug-In . SVG Version: 6.00 Build 43363)  -->
<!DOCTYPE svg PUBLIC "-//W3C//DTD SVG 1.1//EN" "http://www.w3.org/Graphics/SVG/1.1/DTD/svg11.dtd">
<svg version="1.1" id="Calque_1" xmlns="http://www.w3.org/2000/svg" xmlns:xlink="http://www.w3.org/1999/xlink" x="0px" y="0px"
	 width="95.797px" height="83.713px" viewBox="0 0 95.797 83.713" enable-background="new 0 0 95.797 83.713" xml:space="preserve">
<path fill="#ED1C24" d="M52.198,2.272C51.318,0.877,49.759,0,47.96,0c-1.719,0-2.479,0.837-3.398,2.112L0.95,75.294
	c-1.519,1.993-1.16,5.143,0.68,6.976c1.04,1.036,2.238,1.515,3.597,1.435l86.385-0.04c1-0.159,1.959-0.638,2.719-1.395
	c1.479-1.515,1.84-3.707,1.079-5.581L52.198,2.272z"/>
<path fill="none" stroke="#ED1C24" stroke-width="0" stroke-miterlimit="3.863" d="M52.198,2.272C51.318,0.877,49.759,0,47.96,0
	c-1.719,0-2.479,0.837-3.398,2.112L0.95,75.294c-1.519,1.992-1.16,5.143,0.68,6.976c1.04,1.036,2.238,1.515,3.597,1.435l86.385-0.04
	c1-0.159,1.959-0.638,2.719-1.395c1.479-1.515,1.84-3.707,1.079-5.581L52.198,2.272z"/>
<polygon fill-rule="evenodd" clip-rule="evenodd" fill="#FFFFFF" points="81.14,72.902 47.92,15.466 14.702,72.902 "/>
<polygon fill="none" stroke="#ED1C24" stroke-width="0" stroke-miterlimit="3.863" points="81.14,72.902 47.92,15.466 
	14.702,72.902 "/>
<path fill-rule="evenodd" clip-rule="evenodd" fill="#120C0E" d="M46.881,53.172c-1.479,0-2.398-1.594-1.679-2.87
	c0.76-1.275,2.599-1.275,3.358,0C49.279,51.578,48.36,53.172,46.881,53.172z"/>
<path fill="none" stroke="#120C0E" stroke-width="0" stroke-miterlimit="3.863" d="M46.881,53.172c-1.479,0-2.398-1.594-1.679-2.87
	c0.76-1.275,2.599-1.275,3.358,0C49.279,51.578,48.36,53.172,46.881,53.172z"/>
<path fill-rule="evenodd" clip-rule="evenodd" fill="#120C0E" d="M58.273,62.379c-1.479,0-2.398-1.595-1.679-2.869
	c0.76-1.275,2.598-1.275,3.358,0C60.672,60.784,59.753,62.379,58.273,62.379z"/>
<path fill="none" stroke="#120C0E" stroke-width="0" stroke-miterlimit="3.863" d="M58.273,62.379c-1.479,0-2.398-1.595-1.679-2.869
	c0.76-1.275,2.598-1.275,3.358,0C60.672,60.784,59.753,62.379,58.273,62.379z"/>
<path fill="#120C0E" d="M60.113,61.741c0.239-0.358,0.399-0.797,0.399-1.275c0-1.274-1-2.271-2.239-2.271
	c-0.599,0-1.159,0.238-1.558,0.599l-7.996-6.18c0.28-0.358,0.439-0.837,0.439-1.314c0-1.275-1-2.272-2.238-2.272
	c-0.64,0-1.2,0.239-1.599,0.639l-1.479-1.156c0-0.16-0.12-0.2,0-0.438l0.359-0.479l-0.239-0.279l0.279-0.638l0.24,0.12l0.839-1.555
	l2.599,1.674c0.48,0.319,1.999-0.119,2.518-0.159c0.72-0.04,1.48-0.279,1.998,0.239l5.837,4.663c0.16,0.159,0.2,0.119,0.28,0.279
	c0.159,0.238,0.159,0.559,0.159,0.757l0.2,2.671c0,0.239,0.16,0.479,0.24,0.678c0.08,0.039,0.719,0.478,0.719,0.598l2.879,2.591
	c0.64,0.598,0.04,1.195-0.68,1.674l0.2,0.24l-0.44,0.558l-0.398-0.12l-0.4,0.479c-0.2,0.318-0.28-0.04-0.4-0.04L60.113,61.741z"/>
<path fill="none" stroke="#120C0E" stroke-width="0" stroke-miterlimit="3.863" d="M60.113,61.741
	c0.239-0.358,0.399-0.797,0.399-1.275c0-1.274-1-2.271-2.239-2.271c-0.599,0-1.159,0.238-1.558,0.599l-7.996-6.18
	c0.28-0.358,0.439-0.837,0.439-1.314c0-1.275-1-2.272-2.238-2.272c-0.64,0-1.2,0.239-1.599,0.639l-1.479-1.156
	c0-0.16-0.12-0.2,0-0.438l0.359-0.479l-0.239-0.279l0.279-0.638l0.24,0.12l0.839-1.555l2.599,1.674
	c0.48,0.319,1.999-0.119,2.518-0.159c0.72-0.04,1.48-0.279,1.998,0.239l5.837,4.663c0.16,0.159,0.2,0.119,0.28,0.279
	c0.159,0.238,0.159,0.559,0.159,0.757l0.2,2.671c0,0.239,0.16,0.479,0.24,0.678c0.08,0.039,0.72,0.478,0.72,0.598l2.878,2.591
	c0.641,0.598,0.04,1.195-0.68,1.674l0.2,0.24l-0.44,0.558l-0.398-0.12l-0.4,0.479c-0.2,0.318-0.28-0.04-0.4-0.04L60.113,61.741z"/>
<path fill="#FFFFFF" d="M58.154,52.335l-0.08,2.87l-4.397-3.588l1.639-1.952l2.639,2.072C58.194,51.977,58.074,52.215,58.154,52.335
	z"/>
<path fill="none" stroke="#000000" stroke-width="0" stroke-miterlimit="3.863" d="M58.154,52.335l-0.08,2.87l-4.397-3.588
	l1.639-1.952l2.639,2.072C58.194,51.977,58.074,52.215,58.154,52.335z"/>
<path fill="#FFFFFF" d="M52.677,47.552l2.199,1.754l-1.679,1.913l-3.878-3.108l2.719-0.758c0.119-0.04,0.199,0.079,0.32,0
	C52.437,47.432,52.597,47.472,52.677,47.552z"/>
<path fill="none" stroke="#000000" stroke-width="0" stroke-miterlimit="3.863" d="M52.677,47.552l2.199,1.754l-1.679,1.913
	l-3.878-3.108l2.719-0.758c0.119-0.04,0.199,0.079,0.32,0C52.437,47.432,52.597,47.472,52.677,47.552z"/>
<path fill-rule="evenodd" clip-rule="evenodd" fill="#FFFFFF" d="M58.273,61.343c-0.679,0-1.079-0.717-0.759-1.315
	c0.319-0.598,1.198-0.598,1.52,0C59.394,60.626,58.954,61.343,58.273,61.343z"/>
<path fill="none" stroke="#120C0E" stroke-width="0.2" stroke-miterlimit="3.863" d="M58.273,61.343
	c-0.679,0-1.079-0.717-0.759-1.315c0.319-0.598,1.198-0.598,1.52,0C59.394,60.626,58.954,61.343,58.273,61.343z"/>
<path fill-rule="evenodd" clip-rule="evenodd" fill="#FFFFFF" d="M46.881,52.136c-0.68,0-1.08-0.718-0.759-1.315
	c0.319-0.599,1.199-0.599,1.518,0C48,51.418,47.561,52.136,46.881,52.136z"/>
<path fill="none" stroke="#120C0E" stroke-width="0.2" stroke-miterlimit="3.863" d="M46.881,52.135c-0.68,0-1.08-0.717-0.759-1.314
	c0.319-0.599,1.199-0.599,1.518,0C48,51.418,47.561,52.135,46.881,52.135z"/>
<path fill="#120C0E" d="M66.749,62.738c-0.68-0.04-0.48-0.279-1.68,0c-1,0.239-1.919,0.837-3.037,0.877
	c-1.56,0.039-1.56-0.877-3.438-0.996c-1.438-0.08-2.599,1.155-3.837,1.035c-2-0.238-1.76-1.115-3.559-1.075
	c-2.159,0.04-2.758,1.714-4.877,0.797c-0.6-0.278-1.679-1.355-3.438-0.599c-0.639,0.28-1.479,0.798-2.438,0.798V50.581h-4.877
	l-6.236,17.777h37.417V62.738z"/>
<path fill="none" stroke="#120C0E" stroke-width="0.2" stroke-miterlimit="3.863" d="M66.749,62.737c-0.68-0.039-0.48-0.278-1.68,0
	c-1,0.24-1.919,0.838-3.037,0.878c-1.56,0.039-1.56-0.878-3.438-0.996c-1.438-0.08-2.599,1.155-3.837,1.035
	c-2-0.238-1.76-1.115-3.559-1.075c-2.159,0.04-2.758,1.714-4.877,0.797c-0.6-0.278-1.679-1.355-3.438-0.599
	c-0.639,0.28-1.479,0.798-2.438,0.798V50.581h-4.877l-6.236,17.777h37.417V62.737z"/>
</svg>
