<?xml version="1.0" encoding="utf-8"?>
<!-- Generator: Adobe Illustrator 14.0.0, SVG Export Plug-In . SVG Version: 6.00 Build 43363)  -->
<!DOCTYPE svg PUBLIC "-//W3C//DTD SVG 1.1//EN" "http://www.w3.org/Graphics/SVG/1.1/DTD/svg11.dtd">
<svg version="1.1" id="Calque_1" xmlns="http://www.w3.org/2000/svg" xmlns:xlink="http://www.w3.org/1999/xlink" x="0px" y="0px"
	 width="95.816px" height="83.729px" viewBox="0 0 95.816 83.729" enable-background="new 0 0 95.816 83.729" xml:space="preserve">
<path fill="#ED1C24" d="M43.608,2.271C44.488,0.876,46.047,0,47.846,0c1.72,0,2.479,0.836,3.399,2.113L94.867,75.31
	c1.52,1.992,1.159,5.143-0.68,6.977c-1.039,1.037-2.239,1.515-3.598,1.436L4.185,83.681c-1-0.159-1.959-0.638-2.719-1.395
	c-1.479-1.516-1.84-3.707-1.08-5.582L43.608,2.271z"/>
<path fill="none" stroke="#ED1C24" stroke-width="0" stroke-miterlimit="3.863" d="M43.608,2.271C44.488,0.876,46.048,0,47.846,0
	c1.72,0,2.479,0.836,3.399,2.113L94.867,75.31c1.52,1.992,1.159,5.143-0.68,6.977c-1.039,1.037-2.239,1.515-3.598,1.436
	L4.185,83.681c-1-0.159-1.959-0.638-2.719-1.395c-1.479-1.516-1.84-3.707-1.08-5.582L43.608,2.271z"/>
<polygon fill-rule="evenodd" clip-rule="evenodd" fill="#FFFFFF" points="14.66,72.917 47.926,15.468 81.193,72.917 "/>
<polygon fill="none" stroke="#ED1C24" stroke-width="0" stroke-miterlimit="3.863" points="14.66,72.917 47.926,15.468 
	81.193,72.917 "/>
<path fill="#120C0E" d="M54.524,40.066l2.918,3.069l-1.319,3.748l-4.518,1.275c-6.637,1.914-11.635,8.053-11.635,15.27v4.704
	l-3.518-2.233l-3.399,2.233v-4.704c0-10.564,7.197-19.496,16.953-22.087L54.524,40.066z"/>
<path fill="none" stroke="#120C0E" stroke-width="0.2" stroke-miterlimit="3.863" d="M54.524,40.066l2.918,3.069l-1.319,3.748
	l-4.518,1.275c-6.637,1.914-11.635,8.053-11.635,15.27v4.704l-3.518-2.233l-3.399,2.233v-4.704c0-10.564,7.198-19.496,16.953-22.087
	L54.524,40.066z"/>
</svg>
