<?xml version="1.0" encoding="utf-8"?>
<!-- Generator: Adobe Illustrator 14.0.0, SVG Export Plug-In . SVG Version: 6.00 Build 43363)  -->
<!DOCTYPE svg PUBLIC "-//W3C//DTD SVG 1.1//EN" "http://www.w3.org/Graphics/SVG/1.1/DTD/svg11.dtd">
<svg version="1.1" id="Calque_1" xmlns="http://www.w3.org/2000/svg" xmlns:xlink="http://www.w3.org/1999/xlink" x="0px" y="0px"
	 width="94.29px" height="84.921px" viewBox="0 0 94.29 84.921" enable-background="new 0 0 94.29 84.921" xml:space="preserve">
<path fill="#ED1C24" d="M6.592,84.885c-1.994,0.2-3.15-0.44-4.506-1.924c-2.432-2.403-2.791-6.011-0.797-8.655L41.523,3.294
	c0.12-0.321-0.279,0.361-0.12,0.08c0.837-1.402,2.154-2.525,3.749-3.045c3.03-0.962,6.02,0.241,7.576,2.885L93.52,75.227
	c0.996,1.684,0.957,3.326,0.279,5.25c-1.037,2.806-3.668,4.448-6.5,4.408H6.592z"/>
<path fill="none" stroke="#ED1C24" stroke-width="0" stroke-miterlimit="3.863" d="M6.592,84.885c-1.994,0.2-3.15-0.441-4.506-1.924
	c-2.432-2.403-2.791-6.011-0.797-8.655L41.523,3.294c0.12-0.321-0.279,0.361-0.12,0.08c0.837-1.402,2.154-2.525,3.749-3.045
	c3.03-0.962,6.02,0.24,7.576,2.885L93.52,75.227c0.996,1.684,0.957,3.326,0.279,5.25c-1.037,2.806-3.668,4.448-6.5,4.408H6.592z"/>
<polygon fill-rule="evenodd" clip-rule="evenodd" fill="#FFFFFF" points="12.613,74.106 46.188,14.876 79.764,74.106 "/>
<polygon fill="none" stroke="#ED1C24" stroke-width="0.28" stroke-miterlimit="3.863" points="12.613,74.106 46.188,14.876 
	79.764,74.106 "/>
<path fill-rule="evenodd" clip-rule="evenodd" fill="#120C0E" d="M31.793,70.458c-0.917,0-1.515-1.002-1.036-1.804
	c0.479-0.801,1.595-0.801,2.074,0C33.308,69.457,32.711,70.458,31.793,70.458z"/>
<path fill="none" stroke="#120C0E" stroke-width="0" stroke-miterlimit="3.863" d="M31.793,70.458c-0.917,0-1.515-1.002-1.036-1.804
	c0.479-0.801,1.595-0.801,2.074,0C33.308,69.457,32.711,70.458,31.793,70.458z"/>
<path fill-rule="evenodd" clip-rule="evenodd" fill="#120C0E" d="M35.063,70.458c-0.917,0-1.476-1.002-1.037-1.804
	c0.438-0.801,1.595-0.801,2.033,0C36.498,69.457,35.941,70.458,35.063,70.458z"/>
<path fill="none" stroke="#120C0E" stroke-width="0" stroke-miterlimit="3.863" d="M35.063,70.458c-0.917,0-1.476-1.002-1.037-1.804
	c0.438-0.801,1.595-0.801,2.033,0C36.499,69.457,35.941,70.458,35.063,70.458z"/>
<path fill-rule="evenodd" clip-rule="evenodd" fill="#120C0E" d="M58.549,70.458c-0.956,0-1.555-1.002-1.076-1.804
	c0.479-0.801,1.635-0.801,2.113,0C60.064,69.457,59.467,70.458,58.549,70.458z"/>
<path fill="none" stroke="#120C0E" stroke-width="0" stroke-miterlimit="3.863" d="M58.549,70.458c-0.956,0-1.555-1.002-1.076-1.804
	c0.479-0.801,1.635-0.801,2.113,0C60.064,69.457,59.467,70.458,58.549,70.458z"/>
<path fill-rule="evenodd" clip-rule="evenodd" fill="#120C0E" d="M61.739,70.458c-0.917,0-1.515-1.002-1.036-1.804
	c0.478-0.801,1.595-0.801,2.072,0C63.254,69.457,62.656,70.458,61.739,70.458z"/>
<path fill="none" stroke="#120C0E" stroke-width="0" stroke-miterlimit="3.863" d="M61.739,70.458c-0.917,0-1.515-1.002-1.036-1.804
	c0.478-0.801,1.595-0.801,2.072,0C63.254,69.457,62.656,70.458,61.739,70.458z"/>
<path fill-rule="evenodd" clip-rule="evenodd" fill="#120C0E" d="M21.067,71.501 M72.426,71.501H21.067v-1.122h51.359V71.501z"/>
<path fill="none" stroke="#120C0E" stroke-width="0" stroke-miterlimit="3.863" d="M21.067,71.501 M72.426,71.501H21.067v-1.122
	h51.359V71.501z"/>
<polygon fill="#120C0E" points="22.742,69.256 29.241,69.256 30.278,67.574 36.498,67.574 37.456,69.256 56.117,69.256 
	56.994,67.614 63.215,67.614 64.211,69.457 70.711,69.457 70.711,69.016 71.229,69.016 71.229,67.934 70.75,67.934 70.75,63.085 
	68.398,57.395 62.656,57.395 62.656,56.753 30.876,56.753 30.876,57.115 28.803,57.115 27.487,56.513 25.213,56.513 24.815,57.115 
	22.542,63.045 22.542,67.574 22.063,67.574 22.063,68.735 22.742,68.735 "/>
<polygon fill="none" stroke="#120C0E" stroke-width="0" stroke-miterlimit="3.863" points="22.742,69.256 29.241,69.256 
	30.278,67.574 36.499,67.574 37.456,69.256 56.117,69.256 56.994,67.614 63.215,67.614 64.211,69.457 70.711,69.457 70.711,69.016 
	71.229,69.016 71.229,67.934 70.75,67.934 70.75,63.085 68.398,57.395 62.656,57.395 62.656,56.753 30.876,56.753 30.876,57.115 
	28.803,57.115 27.487,56.513 25.213,56.513 24.815,57.115 22.542,63.045 22.542,67.574 22.063,67.574 22.063,68.735 22.742,68.735 
	"/>
<path fill-rule="evenodd" clip-rule="evenodd" fill="#FFFFFF" d="M30.238,63.166 M37.894,63.166h-7.656v-4.77h7.656V63.166z"/>
<path fill="none" stroke="#FFFFFF" stroke-width="0" stroke-miterlimit="3.863" d="M30.238,63.166 M37.894,63.166h-7.656v-4.77
	h7.656V63.166z"/>
<path fill-rule="evenodd" clip-rule="evenodd" fill="#FFFFFF" d="M38.612,63.166 M46.308,63.166h-7.696v-4.77h7.696V63.166z"/>
<path fill="none" stroke="#FFFFFF" stroke-width="0" stroke-miterlimit="3.863" d="M38.612,63.166 M46.308,63.166h-7.696v-4.77
	h7.696V63.166z"/>
<path fill-rule="evenodd" clip-rule="evenodd" fill="#FFFFFF" d="M46.945,63.166 M54.682,63.166h-7.735v-4.77h7.735V63.166z"/>
<path fill="none" stroke="#FFFFFF" stroke-width="0" stroke-miterlimit="3.863" d="M46.945,63.166 M54.682,63.166h-7.735v-4.77
	h7.735V63.166z"/>
<path fill-rule="evenodd" clip-rule="evenodd" fill="#FFFFFF" d="M55.319,63.166 M63.055,63.166h-7.735v-4.77h7.735V63.166z"/>
<path fill="none" stroke="#FFFFFF" stroke-width="0" stroke-miterlimit="3.863" d="M55.319,63.166 M63.055,63.166h-7.735v-4.77
	h7.735V63.166z"/>
<path fill-rule="evenodd" clip-rule="evenodd" fill="#FFFFFF" d="M64.211,63.166 M65.368,63.166h-1.156v-4.77h1.156V63.166z"/>
<path fill="none" stroke="#FFFFFF" stroke-width="0" stroke-miterlimit="3.863" d="M64.211,63.166 M65.368,63.166h-1.156v-4.77
	h1.156V63.166z"/>
<path fill-rule="evenodd" clip-rule="evenodd" fill="#FFFFFF" d="M65.768,63.166 M66.883,63.166h-1.116v-4.77h1.116V63.166z"/>
<path fill="none" stroke="#FFFFFF" stroke-width="0" stroke-miterlimit="3.863" d="M65.768,63.166 M66.883,63.166h-1.116v-4.77
	h1.116V63.166z"/>
<path fill-rule="evenodd" clip-rule="evenodd" fill="#FFFFFF" d="M28.045,63.166 M29.202,63.166h-1.157v-4.77h1.157V63.166z"/>
<path fill="none" stroke="#FFFFFF" stroke-width="0" stroke-miterlimit="3.863" d="M28.045,63.166 M29.202,63.166h-1.157v-4.77
	h1.157V63.166z"/>
<path fill-rule="evenodd" clip-rule="evenodd" fill="#FFFFFF" d="M26.49,63.166 M27.646,63.166H26.49v-4.77h1.156V63.166z"/>
<path fill="none" stroke="#FFFFFF" stroke-width="0" stroke-miterlimit="3.863" d="M26.49,63.166 M27.646,63.166H26.49v-4.77h1.156
	V63.166z"/>
<polygon fill-rule="evenodd" clip-rule="evenodd" fill="#FFFFFF" points="23.26,63.206 25.134,58.437 26.012,58.437 26.012,63.206 
	"/>
<polygon fill="none" stroke="#FFFFFF" stroke-width="0" stroke-miterlimit="3.863" points="23.26,63.206 25.134,58.437 
	26.012,58.437 26.012,63.206 "/>
<polygon fill-rule="evenodd" clip-rule="evenodd" fill="#FFFFFF" points="70.232,63.125 68.238,58.396 67.4,58.396 67.4,63.125 "/>
<polygon fill="none" stroke="#FFFFFF" stroke-width="0" stroke-miterlimit="3.863" points="70.232,63.125 68.238,58.396 
	67.4,58.396 67.4,63.125 "/>
<path fill="none" stroke="#120C0E" stroke-width="0" stroke-miterlimit="3.863" d="M39.888,53.066l-4.506-2.845 M39.888,53.427
	l-4.705-2.926 M35.143,56.392l-4.785-3.005 M35.143,56.753l-4.984-3.086 M35.063,56.392l4.506-2.805 M35.063,56.753l4.705-2.885"/>
<path fill-rule="evenodd" clip-rule="evenodd" fill="#120C0E" d="M29.999,53.748c-0.358,0-0.558-0.36-0.398-0.642
	c0.159-0.28,0.598-0.28,0.757,0C30.517,53.387,30.318,53.748,29.999,53.748z"/>
<path fill="none" stroke="#120C0E" stroke-width="0" stroke-miterlimit="3.863" d="M29.999,53.748c-0.358,0-0.558-0.36-0.398-0.642
	c0.159-0.28,0.598-0.28,0.757,0C30.517,53.387,30.318,53.748,29.999,53.748z"/>
<path fill-rule="evenodd" clip-rule="evenodd" fill="#120C0E" d="M35.223,50.743c-0.359,0-0.599-0.361-0.399-0.642
	c0.16-0.281,0.599-0.281,0.758,0C35.781,50.381,35.542,50.743,35.223,50.743z"/>
<path fill="none" stroke="#120C0E" stroke-width="0" stroke-miterlimit="3.863" d="M35.223,50.743c-0.359,0-0.599-0.361-0.399-0.642
	c0.16-0.281,0.599-0.281,0.758,0C35.781,50.381,35.542,50.743,35.223,50.743z"/>
<path fill-rule="evenodd" clip-rule="evenodd" fill="#120C0E" d="M39.928,53.909c-0.319,0-0.479-0.361-0.359-0.642
	c0.159-0.281,0.559-0.281,0.718,0C40.446,53.547,40.247,53.909,39.928,53.909z"/>
<path fill="none" stroke="#120C0E" stroke-width="0" stroke-miterlimit="3.863" d="M39.928,53.909c-0.319,0-0.479-0.361-0.359-0.642
	c0.159-0.281,0.559-0.281,0.718,0C40.446,53.547,40.247,53.909,39.928,53.909z"/>
<path fill="none" stroke="#000000" stroke-width="0.48" stroke-miterlimit="3.863" d="M30.118,53.467l4.985-3.086l4.745,2.926
	 M30.118,53.467l4.985,3.086l4.745-2.926"/>
</svg>
