<?xml version="1.0" encoding="utf-8"?>
<!-- Generator: Adobe Illustrator 14.0.0, SVG Export Plug-In . SVG Version: 6.00 Build 43363)  -->
<!DOCTYPE svg PUBLIC "-//W3C//DTD SVG 1.1//EN" "http://www.w3.org/Graphics/SVG/1.1/DTD/svg11.dtd">
<svg version="1.1" id="Calque_1" xmlns="http://www.w3.org/2000/svg" xmlns:xlink="http://www.w3.org/1999/xlink" x="0px" y="0px"
	 width="95.797px" height="83.704px" viewBox="0 0 95.797 83.704" enable-background="new 0 0 95.797 83.704" xml:space="preserve">
<path fill="#ED1C24" d="M52.197,2.272C51.318,0.877,49.759,0,47.96,0c-1.72,0-2.479,0.837-3.398,2.113L0.95,75.295
	c-1.52,1.992-1.16,5.141,0.68,6.975c1.04,1.036,2.238,1.435,3.597,1.435h86.306c1,0,2.039-0.677,2.799-1.435
	c1.479-1.515,1.839-3.707,1.078-5.58L52.197,2.272z"/>
<path fill="none" stroke="#ED1C24" stroke-width="0" stroke-miterlimit="3.863" d="M52.197,2.272C51.318,0.877,49.759,0,47.96,0
	c-1.72,0-2.479,0.837-3.398,2.113L0.95,75.295c-1.52,1.992-1.16,5.141,0.68,6.975c1.04,1.036,2.238,1.435,3.597,1.435h86.306
	c1,0,2.039-0.677,2.799-1.435c1.479-1.515,1.839-3.707,1.078-5.58L52.197,2.272z"/>
<polygon fill-rule="evenodd" clip-rule="evenodd" fill="#FFFFFF" points="81.14,72.903 47.92,15.466 14.701,72.903 "/>
<polygon fill="none" stroke="#ED1C24" stroke-width="0" stroke-miterlimit="3.863" points="81.14,72.903 47.92,15.466 
	14.701,72.903 "/>
<path fill-rule="evenodd" clip-rule="evenodd" fill="#120C0E" d="M58.034,68.16c-4.598,0-7.436-4.943-5.156-8.89
	c2.277-3.985,8.034-3.985,10.313,0C65.469,63.217,62.63,68.16,58.034,68.16z"/>
<path fill="none" stroke="#120C0E" stroke-width="0" stroke-miterlimit="3.863" d="M58.034,68.16c-4.598,0-7.436-4.943-5.156-8.89
	c2.277-3.985,8.034-3.985,10.313,0C65.469,63.217,62.63,68.16,58.034,68.16z"/>
<path fill-rule="evenodd" clip-rule="evenodd" fill="#FFFFFF" d="M58.034,67.642c-4.158,0-6.756-4.504-4.678-8.091
	c2.078-3.628,7.315-3.628,9.395,0C64.829,63.138,62.231,67.642,58.034,67.642z"/>
<path fill="none" stroke="#120C0E" stroke-width="0" stroke-miterlimit="3.863" d="M58.034,67.642c-4.158,0-6.756-4.504-4.678-8.091
	c2.078-3.628,7.315-3.628,9.395,0C64.829,63.138,62.231,67.642,58.034,67.642z"/>
<path fill-rule="evenodd" clip-rule="evenodd" fill="#120C0E" d="M58.073,63.456c-0.959,0-1.559-0.997-1.079-1.834
	c0.479-0.797,1.64-0.797,2.119,0C59.593,62.459,58.993,63.456,58.073,63.456z"/>
<path fill="none" stroke="#120C0E" stroke-width="0" stroke-miterlimit="3.863" d="M58.073,63.456c-0.959,0-1.559-0.997-1.079-1.834
	c0.479-0.797,1.64-0.797,2.119,0C59.593,62.459,58.993,63.456,58.073,63.456z"/>
<path fill-rule="evenodd" clip-rule="evenodd" fill="#120C0E" d="M37.887,68.08c-4.598,0-7.436-4.942-5.157-8.889
	c2.279-3.985,8.036-3.985,10.313,0C45.321,63.138,42.483,68.08,37.887,68.08z"/>
<path fill="none" stroke="#120C0E" stroke-width="0" stroke-miterlimit="3.863" d="M37.887,68.08c-4.598,0-7.436-4.942-5.157-8.889
	c2.279-3.985,8.036-3.985,10.314,0C45.321,63.138,42.483,68.08,37.887,68.08z"/>
<path fill-rule="evenodd" clip-rule="evenodd" fill="#FFFFFF" d="M37.887,67.562c-4.158,0-6.756-4.504-4.678-8.091
	c2.079-3.628,7.315-3.628,9.395,0C44.682,63.058,42.084,67.562,37.887,67.562z"/>
<path fill="none" stroke="#120C0E" stroke-width="0" stroke-miterlimit="3.863" d="M37.887,67.562c-4.158,0-6.756-4.504-4.678-8.091
	c2.079-3.628,7.315-3.628,9.395,0C44.682,63.058,42.084,67.562,37.887,67.562z"/>
<path fill-rule="evenodd" clip-rule="evenodd" fill="#120C0E" d="M37.887,63.058c-0.72,0-1.16-0.757-0.8-1.355
	c0.36-0.638,1.24-0.638,1.6,0C39.045,62.301,38.606,63.058,37.887,63.058z"/>
<path fill="none" stroke="#120C0E" stroke-width="0" stroke-miterlimit="3.863" d="M37.887,63.058c-0.72,0-1.16-0.757-0.8-1.355
	c0.36-0.638,1.24-0.638,1.6,0C39.045,62.301,38.606,63.058,37.887,63.058z"/>
<path fill="none" stroke="#120C0E" stroke-width="0.2" stroke-miterlimit="3.863" d="M51.638,63.138
	c-0.04-0.239-0.04-0.519-0.04-0.758c0-3.547,2.878-6.417,6.437-6.417c2.678,0,4.957,1.635,5.956,3.946 M35.607,56.201
	c0.72-0.238,1.439-0.398,2.239-0.398c3.557,0,6.436,2.87,6.436,6.418c0,0.159,0,0.358-0.04,0.519"/>
<path fill="#120C0E" d="M49.399,40.417c0.359,0.358,0.639,0.639,1.039,0.957c1.119,0.838,1.839,1.993,2.518,2.91
	c0.721,0.956,2.398,5.103,2.559,6.616c-0.08,0.04-0.16,0.439-0.199,0.518c0.16-0.04,0.279,0.04,0.32,0.2
	c0,0.04-0.08,0.08-0.041,0.159c-0.039,0.04-0.119,0.04-0.16,0.119c-0.199,0-0.479-0.079-0.559,0.08l-0.521,1.036l3.478,8.132
	l-0.359,0.199l-3.357-8.013l-4.038,7.415c0.241,0.239,0.8,0.718,0.72,1.274l6.196,0.04v0.2h-6.196
	c0.16,0.717-0.68,1.435-1.279,1.673c0,0.12,0,0.28,0,0.399c0.12,0.199,0.32,0.398,0.28,0.678h-0.76L49,65.17h-0.521l-0.12-0.279
	L48.2,65.13l-1.519-0.079c0-0.12,0-0.319,0.16-0.358c0.52-0.04,0.919-0.08,1.359-0.398c-0.04-0.08,0.04-0.12,0.04-0.2l0.04-0.238
	l-0.959-0.04l-0.2-3.708l-5.317-5.42l-0.919,2.83c-0.36,1.315-0.919,2.83-1.359,3.188c-0.719,1.036-1.359,0.996-1.08,1.196
	c-0.12-0.08-0.28-0.12-0.28-0.24c0-0.159,0.201-0.119,0.6-0.677c0.239-0.319,1.279-1.635,1.439-2.591
	c0.199-0.479,0.239-0.758,0.319-1.077l2.079-6.576c0.439-0.159,0.719,0.199,1.399,0.04c-0.04-0.04,0.04,0.04,0,0
	c0-0.08-0.04-0.199-0.04-0.279c0.48,0,0.48-1.115,1.959-0.559c0.12-0.039,0.279-0.398,0.399-0.438c0.12-0.318,0.52-0.238,0.68-0.677
	c0.799-0.438,1.359-1.355,1.52-1.793c-0.201-0.759-0.241-1.316-0.52-2.073c-0.44-1.276-0.241-1.834-0.241-2.671
	c0.241-0.199,0.56-0.598,0.52-0.877c-0.04-0.08-0.12-0.08-0.16-0.12c-0.079,0-0.239,0.08-0.319,0.08
	c-0.121,0.239-0.041,0.438-0.4,0.438c-0.16,0-0.16-0.318-0.16-0.438c-0.04,0-0.08-0.08-0.159-0.04c-0.04-0.04-0.08-0.119-0.08-0.159
	c-0.04,0-0.08-0.079-0.16-0.039c-0.04-0.04-0.08-0.08-0.12-0.12c0-0.16,0.16,0,0,0c-0.08-0.08,0.12,0,0,0
	c-0.52,0.04-0.32-0.757-0.44-0.877c-0.08-0.12-0.399-0.519-0.52-0.598c-0.119,0.04-0.239-0.04-0.36-0.04
	c-0.08-0.239-0.08-0.717,0.28-0.757c-0.039-0.08,0.04-0.12,0.04-0.16c0.04-0.04,0.12-0.08,0.16-0.08
	c0.759-1.515,2.039-1.753,3.119-0.238c0.399,2.151,0.399,1.515,0.679,2.032c-0.08-0.039-0.12,0.04-0.16,0.04
	C49.399,40.298,49.319,40.338,49.399,40.417z"/>
<path fill="none" stroke="#120C0E" stroke-width="0" stroke-miterlimit="3.863" d="M49.399,40.417
	c0.359,0.358,0.639,0.639,1.039,0.957c1.119,0.838,1.839,1.993,2.518,2.91c0.721,0.956,2.398,5.103,2.559,6.616
	c-0.08,0.04-0.16,0.439-0.199,0.518c0.16-0.04,0.279,0.04,0.32,0.2c0,0.04-0.08,0.08-0.041,0.159c-0.039,0.04-0.119,0.04-0.16,0.119
	c-0.199,0-0.479-0.079-0.559,0.08l-0.521,1.036l3.478,8.132l-0.359,0.199l-3.357-8.013l-4.038,7.415
	c0.241,0.239,0.8,0.718,0.72,1.274l6.196,0.04v0.2h-6.196c0.16,0.717-0.68,1.435-1.279,1.673c0,0.12,0,0.28,0,0.399
	c0.12,0.199,0.32,0.398,0.28,0.678h-0.76L49,65.17h-0.521l-0.12-0.279L48.2,65.13l-1.519-0.079c0-0.12,0-0.319,0.16-0.358
	c0.52-0.04,0.919-0.08,1.359-0.398c-0.04-0.08,0.04-0.12,0.04-0.2l0.04-0.238l-0.959-0.04l-0.2-3.708l-5.317-5.42l-0.919,2.83
	c-0.36,1.315-0.919,2.83-1.359,3.188c-0.719,1.036-1.359,0.996-1.08,1.196c-0.12-0.08-0.28-0.12-0.28-0.24
	c0-0.159,0.201-0.119,0.6-0.677c0.239-0.319,1.279-1.635,1.439-2.591c0.199-0.479,0.239-0.758,0.319-1.077l2.079-6.576
	c0.44-0.16,0.719,0.199,1.399,0.04c-0.04-0.04,0.04,0.04,0,0c0-0.08-0.04-0.2-0.04-0.279c0.48,0,0.48-1.115,1.959-0.559
	c0.12-0.039,0.279-0.398,0.399-0.438c0.12-0.318,0.52-0.238,0.68-0.677c0.799-0.438,1.359-1.355,1.52-1.793
	c-0.201-0.759-0.241-1.316-0.52-2.073c-0.44-1.276-0.241-1.834-0.241-2.671c0.241-0.199,0.56-0.598,0.52-0.877
	c-0.04-0.08-0.12-0.08-0.16-0.12c-0.079,0-0.239,0.08-0.319,0.08c-0.121,0.239-0.041,0.438-0.4,0.438c-0.16,0-0.16-0.318-0.16-0.438
	c-0.04,0-0.08-0.08-0.159-0.04c-0.04-0.04-0.08-0.119-0.08-0.159c-0.04,0-0.08-0.079-0.16-0.039c-0.04-0.04-0.08-0.08-0.12-0.12
	c0-0.16,0.16,0,0,0c-0.08-0.08,0.12,0,0,0c-0.52,0.04-0.32-0.757-0.44-0.877c-0.08-0.12-0.399-0.519-0.52-0.598
	c-0.119,0.04-0.239-0.04-0.359-0.04c-0.081-0.239-0.081-0.717,0.279-0.757c-0.039-0.08,0.04-0.12,0.04-0.16
	c0.04-0.04,0.12-0.08,0.16-0.08c0.759-1.515,2.039-1.753,3.119-0.238c0.399,2.151,0.399,1.515,0.679,2.032
	c-0.08-0.039-0.12,0.04-0.16,0.04C49.399,40.298,49.319,40.338,49.399,40.417z"/>
<path fill="#FFFFFF" d="M49.759,60.546l4.078-7.333h-0.6l-3.039,3.108c-0.399,0.438-0.56,1.076-0.6,1.675L49.759,60.546z"/>
<path fill="none" stroke="#120C0E" stroke-width="0" stroke-miterlimit="3.863" d="M49.759,60.546l4.078-7.333h-0.6l-3.039,3.108
	c-0.399,0.438-0.56,1.076-0.6,1.675L49.759,60.546z"/>
<path fill="#FFFFFF" d="M41.924,54.288l0.399-1.195h1.479c-0.319,0.238-0.359,0.678-0.239,1.036c0.159,0.08,0.159,0.359,0.359,0.398
	l3.159,4.026v1.075L41.924,54.288z"/>
<path fill="none" stroke="#000000" stroke-width="0" stroke-miterlimit="3.863" d="M41.924,54.288l0.399-1.195h1.479
	c-0.319,0.238-0.359,0.678-0.239,1.036c0.159,0.08,0.159,0.359,0.359,0.398l3.159,4.026v1.075L41.924,54.288z"/>
<polygon fill="#FFFFFF" points="46.921,54.607 47.4,55.245 48.4,53.81 "/>
<polygon fill="none" stroke="#000000" stroke-width="0" stroke-miterlimit="3.863" points="46.921,54.607 47.4,55.245 48.4,53.81 
	"/>
<polygon fill="#FFFFFF" points="53.556,52.854 53.956,52.854 54.436,51.977 "/>
<polygon fill="none" stroke="#000000" stroke-width="0" stroke-miterlimit="3.863" points="53.556,52.854 53.956,52.854 
	54.436,51.977 "/>
<path fill="#FFFFFF" d="M42.403,52.814h1.719l5.357-2.512l0.319-0.518l0.16-0.16l0.079-0.238l0.32-0.36l0.041-0.318l-0.16-0.358
	l0.039-0.598l-0.24,0.518L49,49.347l-1,0.797l-0.68,0.558l-1,0.398c-0.279-0.558-0.08-0.159-0.6-0.199
	c-0.04,0.956-0.52-0.239-0.52,0.159c0,0.2,0.2-0.04,0,0c-0.239,0.04,0.16,0.318-0.359,0.24c0.28,0.557-0.919-0.24-1.919-0.24
	L42.403,52.814z"/>
<path fill="none" stroke="#120C0E" stroke-width="0" stroke-miterlimit="3.863" d="M42.403,52.814h1.719l5.357-2.512l0.319-0.518
	l0.16-0.16l0.079-0.238l0.32-0.36l0.041-0.318l-0.16-0.358l0.039-0.598l-0.24,0.518L49,49.347l-1,0.797l-0.68,0.558l-1,0.398
	c-0.279-0.558-0.08-0.159-0.6-0.199c-0.04,0.956-0.52-0.239-0.52,0.159c0,0.2,0.201-0.04,0,0c-0.239,0.04,0.16,0.318-0.359,0.24
	c0.28,0.557-0.919-0.24-1.919-0.24L42.403,52.814z"/>
<polygon fill="#120C0E" points="58.793,61.582 62.751,59.311 62.991,59.511 58.913,61.902 "/>
<polygon fill="none" stroke="#120C0E" stroke-width="0" stroke-miterlimit="3.863" points="58.793,61.582 62.751,59.311 
	62.991,59.511 58.913,61.902 "/>
</svg>
