<?xml version="1.0" encoding="UTF-8"?>
<svg width="256" height="256" style="enable-background:new" version="1.1" viewBox="0 0 67.73 67.73" xmlns="http://www.w3.org/2000/svg" xmlns:xlink="http://www.w3.org/1999/xlink">
	<defs>
		<linearGradient id="a">
			<stop offset="0"/>
			<stop stop-opacity="0" offset="1"/>
		</linearGradient>
		<linearGradient id="b">
			<stop stop-color="#fff" offset="0"/>
			<stop stop-color="#fff" stop-opacity="0" offset="1"/>
		</linearGradient>
		<linearGradient id="d">
			<stop stop-color="#f9e295" offset="0"/>
			<stop stop-color="#f7dd84" offset=".125"/>
			<stop stop-color="#fff" offset=".206"/>
			<stop stop-color="#f4ce51" offset=".301"/>
			<stop stop-color="#f9e7aa" offset=".341"/>
			<stop stop-color="#efbb0e" offset="1"/>
		</linearGradient>
		<linearGradient id="c">
			<stop stop-color="#2d3335" offset="0"/>
			<stop stop-color="#4c464a" offset=".5"/>
			<stop stop-color="#384042" offset="1"/>
		</linearGradient>
		<linearGradient id="e">
			<stop stop-color="#d0e9f2" stop-opacity="0" offset="0"/>
			<stop stop-color="#d0e9f2" stop-opacity="0" offset=".839"/>
			<stop stop-color="#d0e9f2" stop-opacity=".282" offset=".943"/>
			<stop stop-color="#d0e9f2" offset="1"/>
		</linearGradient>
		<linearGradient id="u" x1="94.25" x2="9" y1="-94.67" y2="-180" gradientUnits="userSpaceOnUse" xlink:href="#a"/>
		<linearGradient id="n" x1="50.75" x2="35.75" y1="-114.4" y2="-30.44" gradientUnits="userSpaceOnUse" xlink:href="#a"/>
		<linearGradient id="o" x1="77.62" x2="115.2" y1="-163.1" y2="-74.62" gradientUnits="userSpaceOnUse" xlink:href="#a"/>
		<linearGradient id="p" x1="56.5" x2="125.7" y1="-50.44" y2="7.063" gradientUnits="userSpaceOnUse" xlink:href="#a"/>
		<linearGradient id="r" x1="35" x2="180.8" y1="-163.3" y2="-146.8" gradientUnits="userSpaceOnUse" xlink:href="#a"/>
		<linearGradient id="q" x1="57" x2="179" y1="-141.1" y2="-41.61" gradientUnits="userSpaceOnUse" xlink:href="#a"/>
		<linearGradient id="t" x1="156" x2="208.2" y1="-26.5" y2="39.75" gradientUnits="userSpaceOnUse" xlink:href="#a"/>
		<linearGradient id="s" x1="142.8" x2="235" y1="-169.3" y2="-77.3" gradientUnits="userSpaceOnUse" xlink:href="#a"/>
		<linearGradient id="f" x1="214.2" x2="166.5" y1="-161.4" y2="-113.7" gradientUnits="userSpaceOnUse" xlink:href="#b"/>
		<linearGradient id="h" x1="53.25" x2="57.66" y1="-126.5" y2="-62.47" gradientUnits="userSpaceOnUse" xlink:href="#b"/>
		<linearGradient id="l" x1="39.5" x2="75.72" y1="6.625" y2="-17.12" gradientUnits="userSpaceOnUse" xlink:href="#b"/>
		<linearGradient id="m" x1="102" x2="85.31" y1="-162.3" y2="-121.4" gradientUnits="userSpaceOnUse" xlink:href="#b"/>
		<linearGradient id="i" x1="117.8" x2="63.5" y1="-78.09" y2="-14.75" gradientUnits="userSpaceOnUse" xlink:href="#b"/>
		<linearGradient id="g" x1="180.7" x2="133.9" y1="-125.1" y2="-60.75" gradientUnits="userSpaceOnUse" xlink:href="#b"/>
		<linearGradient id="k" x1="170.8" x2="130.2" y1="-23.5" y2="33.38" gradientUnits="userSpaceOnUse" xlink:href="#b"/>
		<linearGradient id="j" x1="213.5" x2="181.8" y1="-76" y2="-5.656" gradientUnits="userSpaceOnUse" xlink:href="#b"/>
		<clipPath id="au">
			<path d="m9 12.25s7.5 13 11.75 27.75 6.25 25.5 6.25 25.5-5.5 12.75-8.25 24.75-5.75 23-5.75 23 5.75 16 9.25 30 3.75 24.25 3.75 24.25-4 10.25-7.5 24.25-5 30.75-5 30.75 9.25-2 28.5 1.25 32.25 6 32.25 6 12.75-2.75 24-6.25 16.25-6.5 16.25-6.5 5.5 0.5 22.5 6.25 29.25 8.5 29.25 8.5 13-2.75 26-5.75 26.5-8 26.5-8-0.75-5 4.25-24.5 8.75-28 8.75-28-0.5-4.5-3.75-19.75-10-29.75-10-29.75 1.75-10.5 6.75-23.75 10.25-26.75 10.25-26.75-4.75-15.25-7.5-29.75-8.25-25.75-8.25-25.75-24.25 9-31.75 10.5-21 5.25-21 5.25-9.75-4.25-22-8.5-29.75-5.5-29.75-5.5-3.25 3.5-22 8-27.5 5.75-27.5 5.75-18.5-9-31.5-11.5-24-2-24.75-1.75z" style="fill:#ceeeab"/>
		</clipPath>
		<clipPath id="as">
			<path d="m9 12.25s7.5 13 11.75 27.75 6.25 25.5 6.25 25.5-5.5 12.75-8.25 24.75-5.75 23-5.75 23 5.75 16 9.25 30 3.75 24.25 3.75 24.25-4 10.25-7.5 24.25-5 30.75-5 30.75 9.25-2 28.5 1.25 32.25 6 32.25 6 12.75-2.75 24-6.25 16.25-6.5 16.25-6.5 5.5 0.5 22.5 6.25 29.25 8.5 29.25 8.5 13-2.75 26-5.75 26.5-8 26.5-8-0.75-5 4.25-24.5 8.75-28 8.75-28-0.5-4.5-3.75-19.75-10-29.75-10-29.75 1.75-10.5 6.75-23.75 10.25-26.75 10.25-26.75-4.75-15.25-7.5-29.75-8.25-25.75-8.25-25.75-24.25 9-31.75 10.5-21 5.25-21 5.25-9.75-4.25-22-8.5-29.75-5.5-29.75-5.5-3.25 3.5-22 8-27.5 5.75-27.5 5.75-18.5-9-31.5-11.5-24-2-24.75-1.75z" style="fill:#ceeeab"/>
		</clipPath>
		<clipPath id="aq">
			<path d="m9 12.25s7.5 13 11.75 27.75 6.25 25.5 6.25 25.5-5.5 12.75-8.25 24.75-5.75 23-5.75 23 5.75 16 9.25 30 3.75 24.25 3.75 24.25-4 10.25-7.5 24.25-5 30.75-5 30.75 9.25-2 28.5 1.25 32.25 6 32.25 6 12.75-2.75 24-6.25 16.25-6.5 16.25-6.5 5.5 0.5 22.5 6.25 29.25 8.5 29.25 8.5 13-2.75 26-5.75 26.5-8 26.5-8-0.75-5 4.25-24.5 8.75-28 8.75-28-0.5-4.5-3.75-19.75-10-29.75-10-29.75 1.75-10.5 6.75-23.75 10.25-26.75 10.25-26.75-4.75-15.25-7.5-29.75-8.25-25.75-8.25-25.75-24.25 9-31.75 10.5-21 5.25-21 5.25-9.75-4.25-22-8.5-29.75-5.5-29.75-5.5-3.25 3.5-22 8-27.5 5.75-27.5 5.75-18.5-9-31.5-11.5-24-2-24.75-1.75z" style="fill:#ceeeab"/>
		</clipPath>
		<linearGradient id="ah" x1="120" x2="136" y1="186.5" y2="186.5" gradientTransform="matrix(.2604 .2604 -.2604 .2604 52.67 18.74)" gradientUnits="userSpaceOnUse" xlink:href="#d"/>
		<linearGradient id="ag" x1="123" x2="133" y1="150.4" y2="150.4" gradientTransform="matrix(-.5208 -.5208 -.4609 .4609 192.7 78.73)" gradientUnits="userSpaceOnUse" xlink:href="#c"/>
		<linearGradient id="af" x1="120" x2="136" y1="186.5" y2="186.5" gradientTransform="matrix(.2604 .2604 -.2604 .2604 70.12 1.289)" gradientUnits="userSpaceOnUse" xlink:href="#d"/>
		<linearGradient id="ae" x1="123" x2="133" y1="150.4" y2="150.4" gradientTransform="matrix(-.2604 -.2604 .2604 -.2604 136.8 67.96)" gradientUnits="userSpaceOnUse" xlink:href="#c"/>
		<linearGradient id="ad" x1="128" x2="130.9" y1="134.4" y2="143.4" gradientTransform="matrix(.2604 .2604 -.2604 .2604 70.12 1.289)" gradientUnits="userSpaceOnUse" xlink:href="#c"/>
		<radialGradient id="x" cx="128" cy="86" r="47" gradientTransform="matrix(.266 .266 -.266 .266 24.14 45.85)" gradientUnits="userSpaceOnUse" xlink:href="#e"/>
		<linearGradient id="ac" x1="108" x2="133" y1="167.7" y2="150.4" gradientTransform="matrix(-.5208 -.5208 -.4609 .4609 192.7 78.73)" gradientUnits="userSpaceOnUse" xlink:href="#a"/>
		<linearGradient id="ab" x1="126.6" x2="180" y1="29.82" y2="137.2" gradientTransform="matrix(.2646 0 0 .2646 34.95 31.76)" gradientUnits="userSpaceOnUse" xlink:href="#b"/>
		<linearGradient id="aa" x1="126.6" x2="180" y1="29.82" y2="137.2" gradientTransform="matrix(-.1331 .05249 .05218 -.1144 108 67.06)" gradientUnits="userSpaceOnUse">
			<stop stop-color="#fff" style="stop-color:#fff;stop-opacity:.686" offset="0"/>
			<stop stop-color="#fff" stop-opacity="0" offset="1"/>
		</linearGradient>
		<filter id="am">
			<feGaussianBlur stdDeviation="4.287"/>
		</filter>
		<linearGradient id="z" x1="210.2" x2="9" y1="72.06" y2="-213.3" gradientTransform="matrix(1 -.08088 0 1 0 203.1)" gradientUnits="userSpaceOnUse" xlink:href="#a"/>
		<clipPath id="ap">
			<path d="m9 12.25s7.5 13 11.75 27.75 6.25 25.5 6.25 25.5-5.5 12.75-8.25 24.75-5.75 23-5.75 23 5.75 16 9.25 30 3.75 24.25 3.75 24.25-4 10.25-7.5 24.25-5 30.75-5 30.75 9.25-2 28.5 1.25 32.25 6 32.25 6 12.75-2.75 24-6.25 16.25-6.5 16.25-6.5 5.5 0.5 22.5 6.25 29.25 8.5 29.25 8.5 13-2.75 26-5.75 26.5-8 26.5-8-0.75-5 4.25-24.5 8.75-28 8.75-28-0.5-4.5-3.75-19.75-10-29.75-10-29.75 1.75-10.5 6.75-23.75 10.25-26.75 10.25-26.75-4.75-15.25-7.5-29.75-8.25-25.75-8.25-25.75-24.25 9-31.75 10.5-21 5.25-21 5.25-9.75-4.25-22-8.5-29.75-5.5-29.75-5.5-3.25 3.5-22 8-27.5 5.75-27.5 5.75-18.5-9-31.5-11.5-24-2-24.75-1.75z" style="fill:#ceeeab"/>
		</clipPath>
		<clipPath id="at">
			<path d="m9 12.25s7.5 13 11.75 27.75 6.25 25.5 6.25 25.5-5.5 12.75-8.25 24.75-5.75 23-5.75 23 5.75 16 9.25 30 3.75 24.25 3.75 24.25-4 10.25-7.5 24.25-5 30.75-5 30.75 9.25-2 28.5 1.25 32.25 6 32.25 6 12.75-2.75 24-6.25 16.25-6.5 16.25-6.5 5.5 0.5 22.5 6.25 29.25 8.5 29.25 8.5 13-2.75 26-5.75 26.5-8 26.5-8-0.75-5 4.25-24.5 8.75-28 8.75-28-0.5-4.5-3.75-19.75-10-29.75-10-29.75 1.75-10.5 6.75-23.75 10.25-26.75 10.25-26.75-4.75-15.25-7.5-29.75-8.25-25.75-8.25-25.75-24.25 9-31.75 10.5-21 5.25-21 5.25-9.75-4.25-22-8.5-29.75-5.5-29.75-5.5-3.25 3.5-22 8-27.5 5.75-27.5 5.75-18.5-9-31.5-11.5-24-2-24.75-1.75z" style="fill:#ceeeab"/>
		</clipPath>
		<clipPath id="ar">
			<path d="m9 12.25s7.5 13 11.75 27.75 6.25 25.5 6.25 25.5-5.5 12.75-8.25 24.75-5.75 23-5.75 23 5.75 16 9.25 30 3.75 24.25 3.75 24.25-4 10.25-7.5 24.25-5 30.75-5 30.75 9.25-2 28.5 1.25 32.25 6 32.25 6 12.75-2.75 24-6.25 16.25-6.5 16.25-6.5 5.5 0.5 22.5 6.25 29.25 8.5 29.25 8.5 13-2.75 26-5.75 26.5-8 26.5-8-0.75-5 4.25-24.5 8.75-28 8.75-28-0.5-4.5-3.75-19.75-10-29.75-10-29.75 1.75-10.5 6.75-23.75 10.25-26.75 10.25-26.75-4.75-15.25-7.5-29.75-8.25-25.75-8.25-25.75-24.25 9-31.75 10.5-21 5.25-21 5.25-9.75-4.25-22-8.5-29.75-5.5-29.75-5.5-3.25 3.5-22 8-27.5 5.75-27.5 5.75-18.5-9-31.5-11.5-24-2-24.75-1.75z" style="fill:#ceeeab"/>
		</clipPath>
		<linearGradient id="ai" x1="210.2" x2="9" y1="72.06" y2="-213.3" gradientTransform="translate(0,192)" gradientUnits="userSpaceOnUse" xlink:href="#a"/>
		<clipPath id="ao">
			<path d="m123.6 141.1c20.83 20.24 54.61 19.29 75.44-2.132 20.83-21.42 20.83-55.2 0-75.44-20.83-20.24-54.61-19.29-75.44 2.133-20.83 21.42-20.83 55.2 0 75.44z" style="fill:url(#v)"/>
		</clipPath>
		<radialGradient id="v" cx="128" cy="86" r="47" gradientTransform="matrix(.8025 .7799 .8025 -.8252 -10.4 73.42)" gradientUnits="userSpaceOnUse" xlink:href="#e"/>
		<filter id="al">
			<feGaussianBlur stdDeviation="6.311"/>
		</filter>
		<filter id="ak">
			<feGaussianBlur stdDeviation="4.457"/>
		</filter>
		<linearGradient id="y" x1="122" x2="122" y1="245.4" y2="4.302" gradientUnits="userSpaceOnUse" xlink:href="#a"/>
		<clipPath id="an">
			<path d="m9 22.58s7.5 12.39 11.75 26.8 6.25 25 6.25 25-5.5 13.19-8.25 25.42c-2.75 12.22-5.75 23.46-5.75 23.46s5.75 15.54 9.25 29.25 3.75 23.95 3.75 23.95-4 10.57-7.5 24.86-5 31.15-5 31.15 9.25-2.748 28.5-1.055 32.25 3.39 32.25 3.39 12.75-3.78 24-8.19 16.25-7.814 16.25-7.814 5.5 0.055 22.5 4.43 29.25 6.134 29.25 6.134 13-3.8 26-7.852 26.5-10.14 26.5-10.14-0.75-4.94 4.25-24.84c5-19.9 8.75-28.71 8.75-28.71s-0.514-4.455-3.75-19.45c-1.75-8.108-2.25-4.068-2.25-4.068s16.26-26.16 16.5-40.33c0.25-15.02-7.25-36.41-7.25-36.41s-4.75-14.87-7.5-29.14c-2.75-14.28-8.25-25.08-8.25-25.08s-24.25 10.96-31.75 13.07c-7.5 2.106-21 6.948-21 6.948s-9.75-3.46-22-6.72-29.75-3.094-29.75-3.094-3.25 3.762-22 9.78c-18.75 6.015-27.5 7.973-27.5 7.973s-18.5-7.505-31.5-8.953c-13-1.45-24-0.06-24.75 0.25z" style="fill:url(#z);opacity:.039"/>
		</clipPath>
		<linearGradient id="aj" x1="210.2" x2="9" y1="72.06" y2="-213.3" gradientTransform="matrix(.2646 0 0 .2646 34.95 82.56)" gradientUnits="userSpaceOnUse" xlink:href="#a"/>
		<radialGradient id="w" cx="82.13" cy="58.11" r="17.68" gradientTransform="matrix(2.004 9.171e-8 -9.269e-8 2.026 -83.55 -60.7)" gradientUnits="userSpaceOnUse">
			<stop style="stop-color:#00885f;stop-opacity:.9412" offset="0"/>
			<stop style="stop-color:#068b06;stop-opacity:.5523" offset="1"/>
		</radialGradient>
	</defs>
	<g transform="translate(-34.93 -34.4)">
		<g transform="matrix(.2646 0 0 .2646 34.95 34.41)">
			<g>
				<path transform="matrix(1 .06864 0 .8487 0 26.91)" d="m174.3 35.88c-17.6 0-35.19 6.64-48.72 19.91-0.167 0.165-0.334 0.304-0.5 0.47-22.06 22.06-26.21 55.25-12.47 81.5l-2.28 1.625c2.247 4.24 4.94 8.307 8.092 12.12l-13.31 13.34c-1.342-0.586-2.79-1.034-4.563-1.375l-2.843 2.843c-1.11-0.484-2.138-0.816-3.062-0.875l-64.13 64.12c-0.037 1.1 0.226 2.187 0.656 3.28l-0.53 0.532-1.095 1.094c0.717 3.737 2.012 6.822 5.47 10.28s6.42 4.63 10.28 5.47l1.815-1.815c1.087 0.464 2.13 0.787 3.093 0.845l64.12-64.12c-0.242-0.975-0.62-1.935-1.03-2.906l3-3c-0.25-1.733-0.677-3.2-1.313-4.595l13.28-13.28c3.818 3.15 7.885 5.844 12.12 8.093l1.625-2.282c26.25 13.74 59.44 9.587 81.5-12.47 0.166-0.164 0.305-0.33 0.47-0.5 26.69-27.22 26.55-70.92-0.47-97.94-13.59-13.59-31.41-20.38-49.22-20.38zm-0.5 3.28c0.106 3e-3 0.21 0 0.314 0 0.95 0.02 1.895 0.067 2.844 0.126 0.958 0.062 1.918 0.15 2.875 0.25l0.28 0.032c0.095 0.01 0.188 0.02 0.282 0.032 0.146 0.017 0.292 0.044 0.438 0.062 0.896 0.11 1.794 0.228 2.687 0.375 0.62 0.103 1.227 0.225 1.844 0.345 0.343 0.066 0.69 0.116 1.03 0.188 0.725 0.152 1.437 0.323 2.157 0.5 0.314 0.076 0.627 0.137 0.94 0.218 0.072 0.02 0.144 0.044 0.218 0.064 0.955 0.253 1.896 0.516 2.843 0.812 0.074 0.023 0.148 0.04 0.22 0.063 0.947 0.3 1.907 0.624 2.844 0.968l0.156 0.062c0.955 0.352 1.902 0.728 2.844 1.125 0.05 0.022 0.105 0.04 0.156 0.063 0.942 0.4 1.885 0.836 2.813 1.28 0.042 0.02 0.083 0.043 0.125 0.063 0.935 0.452 1.862 0.91 2.78 1.407 0.034 0.018 0.06 0.045 0.094 0.063 0.927 0.503 1.842 1.013 2.75 1.563 0.033 0.02 0.062 0.043 0.094 0.062 0.908 0.55 1.8 1.122 2.688 1.72 0.55 0.368 1.084 0.768 1.625 1.155 0.363 0.26 0.732 0.512 1.092 0.78 0.02 0.015 0.044 0.02 0.063 0.032 0.878 0.656 1.74 1.36 2.594 2.063 1.74 1.434 3.43 2.963 5.06 4.594 1.622 1.62 3.137 3.3 4.564 5.03 0.01 0.01 0.022 0.02 0.03 0.03 0.704 0.856 1.408 1.716 2.063 2.595 0.283 0.38 0.54 0.773 0.813 1.156 0.37 0.518 0.74 1.04 1.094 1.564 0.016 0.024 0.046 0.038 0.062 0.062 0.598 0.89 1.167 1.778 1.72 2.688 0.018 0.032 0.042 0.06 0.06 0.094 0.547 0.902 1.064 1.83 1.564 2.75 0.018 0.032 0.045 0.06 0.062 0.093 0.498 0.922 0.954 1.845 1.407 2.782l0.06 0.126c0.447 0.93 0.88 1.868 1.282 2.812 0.022 0.05 0.04 0.105 0.063 0.156 0.395 0.936 0.774 1.895 1.125 2.844 0.02 0.053 0.043 0.104 0.062 0.156 0.348 0.95 0.666 1.885 0.97 2.844 0.022 0.072 0.04 0.147 0.062 0.22 0.294 0.94 0.56 1.893 0.812 2.843 0.02 0.073 0.043 0.145 0.063 0.218 0.08 0.31 0.14 0.628 0.217 0.94 0.177 0.72 0.348 1.43 0.5 2.155 0.072 0.342 0.12 0.688 0.188 1.03 0.12 0.618 0.242 1.226 0.344 1.845 0.145 0.893 0.264 1.79 0.374 2.688 0.018 0.145 0.045 0.29 0.062 0.437l0.03 0.28c0.012 0.095 0.022 0.188 0.032 0.282 0.103 0.957 0.19 1.917 0.25 2.876 0.06 0.942 0.107 1.9 0.126 2.843 0 0.104-2e-3 0.21 0 0.313 0.015 1.052 4e-3 2.103-0.032 3.155-0.03 0.93-0.084 1.853-0.156 2.78l-0.03 0.376c-0.077 0.92-0.167 1.837-0.282 2.75-0.12 0.958-0.274 1.925-0.438 2.876-0.014 0.083-0.017 0.168-0.03 0.25-0.023 0.125-0.04 0.25-0.064 0.375-0.165 0.91-0.358 1.82-0.562 2.72-0.03 0.135-0.062 0.272-0.094 0.406-0.208 0.89-0.44 1.775-0.687 2.656-0.165 0.587-0.352 1.168-0.533 1.75-0.175 0.565-0.34 1.128-0.53 1.688-0.295 0.864-0.606 1.71-0.938 2.563l-0.19 0.468c-0.044 0.114-0.078 0.233-0.124 0.345-0.356 0.88-0.728 1.728-1.125 2.594-0.376 0.822-0.772 1.625-1.186 2.436-0.08 0.158-0.168 0.312-0.25 0.47-0.416 0.796-0.83 1.59-1.282 2.374-0.095 0.166-0.184 0.335-0.28 0.5-0.2 0.34-0.42 0.664-0.626 1-0.36 0.59-0.742 1.168-1.125 1.75-4e-3 7e-3 6e-3 0.024 0 0.03-0.49 0.747-1.005 1.49-1.53 2.22-0.457 0.636-0.954 1.25-1.438 1.875-0.197 0.254-0.36 0.53-0.562 0.78-0.134 0.17-0.27 0.334-0.406 0.5-0.164 0.202-0.334 0.396-0.5 0.595-0.557 0.667-1.13 1.318-1.72 1.97-0.605 0.67-1.234 1.346-1.874 2-0.16 0.163-0.306 0.336-0.47 0.5-21.13 21.13-52.26 24.49-77.19 11.16l0.125-0.188c-3.705-1.896-7.263-4.14-10.63-6.78-0.54-0.424-1.066-0.87-1.594-1.313-0.514-0.43-1.027-0.863-1.53-1.313-0.094-0.082-0.19-0.165-0.283-0.25-0.82-0.747-1.61-1.517-2.406-2.31-0.793-0.796-1.564-1.586-2.31-2.408-0.085-0.092-0.168-0.188-0.25-0.28-0.45-0.505-0.883-1.018-1.314-1.532-0.442-0.528-0.89-1.055-1.312-1.594-2.64-3.363-4.885-6.92-6.782-10.62l-0.187 0.126c-13.34-24.93-9.974-56.06 11.16-77.19 0.164-0.164 0.337-0.31 0.5-0.47 0.654-0.64 1.33-1.27 2-1.875 0.652-0.588 1.303-1.162 1.97-1.72 0.272-0.226 0.538-0.464 0.812-0.686 0.344-0.28 0.716-0.513 1.063-0.783 0.624-0.483 1.24-0.98 1.875-1.437 0.737-0.53 1.497-1.036 2.25-1.53 0.582-0.384 1.16-0.765 1.75-1.126 0.447-0.274 0.892-0.55 1.344-0.813 0.68-0.394 1.37-0.756 2.062-1.124 0.176-0.093 0.355-0.19 0.53-0.28 0.947-0.492 1.883-0.967 2.845-1.407 0.867-0.398 1.716-0.77 2.595-1.126 0.153-0.062 0.316-0.096 0.47-0.157 0.967-0.384 1.923-0.758 2.905-1.093 0.56-0.192 1.123-0.356 1.687-0.532 0.583-0.18 1.164-0.367 1.75-0.53 0.882-0.247 1.768-0.48 2.657-0.688 0.07-0.017 0.147-0.015 0.218-0.032 0.416-0.095 0.833-0.193 1.25-0.28 0.673-0.142 1.356-0.288 2.032-0.407 0.082-0.015 0.167-0.017 0.25-0.03 0.95-0.165 1.918-0.318 2.875-0.44 1.962-0.246 3.93-0.4 5.905-0.468 1.052-0.035 2.103-0.046 3.156-0.03z" style="fill:#2d3335;filter:url(#al);opacity:.7"/>
				<path transform="matrix(1 0 0 .8466 0 27.66)" d="m9 17.25s7.5 11 11.75 25.75 6.25 25.5 6.25 25.5-5.5 12.75-8.25 24.75-5.75 25-5.75 25 5.75 16 9.25 30 3.75 22.25 3.75 22.25-4 10.25-7.5 24.25-5 30.75-5 30.75 9.25-2 28.5 1.25 32.25 6 32.25 6 12.75-2.75 24-6.25 16.25-6.5 16.25-6.5 5.5 0.5 22.5 6.25 29.25 8.5 29.25 8.5 13-2.75 26-5.75 26.5-8 26.5-8-0.75-5 4.25-24.5 8.75-28 8.75-28-0.5-2.5-3.75-17.75-10-29.75-10-29.75 1.75-12.5 6.75-25.75 10.25-26.75 10.25-26.75-4.75-15.25-7.5-29.75-8.25-23.75-8.25-23.75-24.25 9-31.75 10.5-21 5.25-21 5.25-9.75-4.25-22-8.5-29.75-5.5-29.75-5.5-3.25 3.5-22 8-27.5 5.75-27.5 5.75-18.5-9-31.5-11.5-24-2-24.75-1.75z" style="fill:url(#y);filter:url(#ak);opacity:.5"/>
			</g>
		</g>
	</g>
	<g transform="translate(-34.93 -34.4)">
		<path d="m37.33 35s1.984 3.44 3.109 7.342 1.654 6.747 1.654 6.747-1.455 3.373-2.183 6.548c-0.7276 3.175-1.521 6.085-1.521 6.085s1.521 4.233 2.447 7.938 0.9922 6.416 0.9922 6.416-1.058 2.712-1.984 6.416c-0.926 3.704-1.323 8.136-1.323 8.136s2.447-0.5292 7.541 0.3307c5.093 0.8599 8.533 1.588 8.533 1.588s3.373-0.7276 6.35-1.654c2.977-0.926 4.299-1.72 4.299-1.72s1.455 0.1323 5.953 1.654c4.498 1.521 7.739 2.249 7.739 2.249s3.44-0.7276 6.879-1.521 7.011-2.117 7.011-2.117-0.1984-1.323 1.124-6.482c1.323-5.159 2.315-7.408 2.315-7.408s-0.1323-1.191-0.9922-5.226c-0.8599-4.035-2.646-7.871-2.646-7.871s0.463-2.778 1.786-6.284c1.323-3.506 2.712-7.078 2.712-7.078s-1.257-4.035-1.984-7.871c-0.7276-3.836-2.183-6.813-2.183-6.813s-6.416 2.381-8.401 2.778c-1.984 0.3969-5.556 1.389-5.556 1.389s-2.58-1.124-5.821-2.249-7.871-1.455-7.871-1.455-0.8599 0.926-5.821 2.117c-4.961 1.191-7.276 1.521-7.276 1.521s-4.895-2.381-8.334-3.043c-3.44-0.6615-6.35-0.5292-6.548-0.463z" style="fill:#ceeeab"/>
	</g>
	<g transform="translate(-34.93 -195.9)">
		<g transform="matrix(.2646 0 0 .2646 34.95 193.3)" clip-path="url(#aq)">
			<path d="m110.8 5.5-4.25 7c-0.75 9-2.25 13.75-8.5 16.5s-12.25 3.5-11 7.5 13 9.25 14.25 13 8.25 1.75 11 7 2 15.25-3.75 17.25-17.5 0.5-20.25 9.5-4.75 10.5-9 12.75-7.25 10.5-3.5 16.5 12.25-1.25 15-6.5 7.25-8.75 7.25-8.75h23.75l59-1.75 3.25-3.75s3.25 4 2.75 8.75-3.75 14.75 0.25 17.25 19.5-2 24-7-4.75-28.25-10.5-29.5-18.5-1.75-17-7 11.75 4.5 17.25 3.25 16.75-21 12-25.25-24.25-5.25-25.75-8 21-8 22.25-11-2.5-7.25-6.25-8.5-14 16.25-21 15.75-20 5.75-17.25 11.5-6 11-14.5 6.5-24.75-13-21.75-24 21.5-18.75 21.5-18.75zm-13.56 107.2c-1.594 0.145-4.468 4.686-4.937 7.03-0.5 2.5-3.25 6.75-3.5 12.25s4.75 6.75 8.75 6.5 2.75-6.75 2-15c-0.25 0-0.5-10.25-2-10.75-0.094-0.03-0.206-0.04-0.313-0.03zm92.72 51.66c-6.336 0.295-6.626 7.47-7.407 8.875-1.25 2.25 2.25 13.75 2 18s-4.75 5.25-9.5 9.75 0.5 16 11.25 31l44.75 1.25-1-35s4.75-4.25-20.75-24.25c-9.563-7.5-15.54-9.802-19.34-9.625zm-150 16.53c-4.03-0.1-8.28 5.72-9.687 7.595-1.5 2-6.25 5-17 9.5l-14.5 34.25 53 4.25s1.75-11-4.25-15.75-17.25-5.75-18.25-13.25 9.25-10 13.75-14.25 2-11.25-2.25-12.25c-0.266-0.063-0.544-0.087-0.813-0.094z" style="fill:#a6dd8b"/>
		</g>
		<path d="m76.89 215.9c-1.259-4e-3 -2.389 0.2566-3.051 0.835-2.117 1.852-9.26 0.1984-12.83 1.852-3.572 1.654-3.506 10.05-3.903 11.77s-4.63 5.49-5.292 6.218c-0.6615 0.7276-3.506 1.918-5.159 2.249-1.654 0.3307-3.373 1.918-4.101 2.91-0.5345 0.7292-1.96 1.707-2.679 2.175-0.01217 0.0476-0.02117 0.0918-0.03307 0.1402-0.03545 0.1416-0.06535 0.2865-0.09922 0.43 1.318-0.4247 2.958-2.164 4.399-3.605 1.654-1.654 5.292-2.051 7.342-3.043s3.77-5.226 7.011-6.284c3.241-1.058 5.622 3.109 6.416 4.895s0.463 3.373 0.9922 4.498c0.5292 1.124 2.91 3.109 3.043 3.572s-1.323 1.72-1.654 2.249-2.778 1.852-3.109 2.315c-0.2556 0.3577-0.5088 1.792-0.612 2.439 0.1095-0.045 0.1998-0.0825 0.2979-0.1244 0.1278-0.6694 0.4008-1.873 0.7771-2.249 0.5292-0.5292 2.977-1.191 3.307-2.249 0.3307-1.058 1.852-1.72 1.852-1.72s0.7276 1.058 4.233 3.704c2.337 1.764 3.376 4.11 3.812 5.482 0.1783 0.045 0.4056 0.108 0.5371 0.1402-0.3228-1.143-1.279-4.297-2.364-5.49-1.323-1.455-4.895-2.844-6.019-5.821-1.124-2.977-6.482-9.062-4.63-10.65s4.366-1.058 7.541 1.984 12.24 1.521 15.28 0.9922c2.634-0.4577 5.512 3.938 6.325 6.887 0.1561-0.554 0.2982-1.058 0.4382-1.521-0.4598-0.5093-0.9782-1.222-1.405-2.191-0.9922-2.249-3.175-3.506-3.175-3.506s2.315-1.323 3.903-2.051c0.4278-0.1958 0.7953-0.4437 1.108-0.7027-0.04313-0.2048-0.06879-0.3323-0.1159-0.554-0.0079-0.0386-0.0164-0.0773-0.02487-0.1159-1.261 1.472-5.088 2.544-5.73 2.894-0.7276 0.3969-4.829 0.7938-9.459 1.191-4.63 0.3969-7.078-1.984-9.062-3.903s-3.44-9.525-0.7938-10.05c2.646-0.5292 5.292 3.638 7.938 4.498 2.646 0.8599 5.689-4.167 5.226-7.144-0.3183-2.046-3.703-3.34-6.474-3.349zm-14.11 3.514c0.3376 5.3e-4 1.55 0.422 1.736 0.6286 0.5953 0.6615 0.5292 1.918 0 2.117s-3.373 2.117-2.778 3.77c0.5953 1.654 0.463 4.762-0.926 4.762-1.389 0-2.117 0-2.646-0.6615-0.5292-0.6614-0.5292-3.175 0-5.226 0.5292-2.051 0.926-3.969 2.117-4.829 0.8186-0.5911 1.755-0.563 2.497-0.5622zm3.597 19.34c0.05397 3e-3 0.5046 0.9298 1.249 1.86 0.7938 0.9922 0.8599 2.183 0.8599 2.183s-1.124-1.257-1.588-2.117c-0.463-0.8599-0.5292-1.918-0.5292-1.918 0-8e-3 0.0048-8e-3 0.0079-8e-3z" style="fill:#aac3e7"/>
		<path d="m67.42 212.4c1.654 0.1323 3.241-0.5953 2.844-1.72s-3.307-1.918-3.506-0.7938c-0.1984 1.124 0.5292 2.778 0.6615 2.514z" style="fill:none;opacity:.387;stroke-linecap:round;stroke-linejoin:round;stroke-width:.2646;stroke:#6d7f42"/>
		<path d="m63.72 208.3c-2.249-1.455-2.249-1.918-1.852-2.117 0.3969-0.1984 2.712 1.323 3.373 2.117 0.6615 0.7938-0.5953 0.5292-1.521 0z" style="fill:none;opacity:.387;stroke-linecap:round;stroke-linejoin:round;stroke-width:.2646;stroke:#6d7f42"/>
		<g transform="matrix(.2646 0 0 .2646 34.95 193.3)" clip-path="url(#au)" style="fill:none;stroke:#6d7f42">
			<path d="m15.75 151.2c33-2.5 38.25-3.5 36.25-10.25s-8.75-23.5-23-22.5-22.75-6.75-22.75-6.75" style="opacity:.387;stroke-linecap:round;stroke-linejoin:round"/>
			<path d="m17.5 177.2c18.25-10 28.75-8.5 35-11.5s13.25-5.75 15.75-9.5 5.75-11.5 5.75-18-3.5-36 3.25-43.5 17.25-26 26-23.25 12.25 9.75 22 9.5 21.75-4 24.25-12.25-15.75-16-16-23 5.5-14.25 20.25-17 23.5-11.5 23.5-11.5" style="opacity:.387"/>
			<g>
				<path d="m14.5 161c15.25-1.5 22.25 3.5 31.5 1.75s13.25-3 17.75-5.75 6-3.75 6.25-6.5 1-12.5-3-22-12.5-31.5-8.25-38.75 5.25-21.5 15.75-24.5 21-6.25 27.75-1.25 12.75 14.25 20 14.5 11.75-1.5 14.5-4.5 4.5-10.25 1.75-13.75-15.5-5.5-17.25-9.5-10.75-17-0.25-26.75 36.25-8.25 36.25-8.25" style="opacity:.387;stroke-linecap:round;stroke-linejoin:round"/>
				<path d="m21.25 159c13.75 1 21.5 4.25 33.5-0.5s13.5-5.25 13.75-8.75-0.25-15.75-3-20-13-13.75-15.75-24.25 0.25-41 8.5-48.25 32-7.25 37.5-10.5 5.25-16.75 13-24.5 27-12.25 27-12.25" style="opacity:.387;stroke-linecap:round;stroke-linejoin:round"/>
				<path d="m190 18.5c11.75 5 39 9.75 47.25 40.25" style="opacity:.387;stroke-linecap:round;stroke-linejoin:round"/>
				<path d="m9.75 214c19-12.5 36-1.25 49-4s38.25-37.25 46-37 5.5-11.75 8.5-13.25 5.5 6 11.75 8 24.5-2.75 23.5-5.75-7-7.75-5.5-8.5 8.5 5 12.75 3.5 43.75-1 48.5-13.5 21.5-13.5 21.5-13.5" style="opacity:.387;stroke-linecap:round;stroke-linejoin:round"/>
				<path d="m77.5 233.5c13.5-11.5 23.25-25 28.5-27s12.75-3.75 15.75-8 2.5-10.75 5.25-12 3.75 5.75 8.75 6 36.75-5 42.75-11.75 32.25-12.5 32.5-14.5-1-4.75 0.25-5.5 24.75-6 24.75-6" style="opacity:.387;stroke-linecap:round;stroke-linejoin:round"/>
				<path d="m168.8 236c9-13.75 20.5-41 29.5-42s10.25-2.5 12.5-4.25 17 2.25 17 2.25" style="opacity:.387;stroke-linecap:round;stroke-linejoin:round"/>
			</g>
		</g>
		<g transform="matrix(.2646 0 0 .2646 34.95 193.3)" clip-path="url(#as)" style="fill:none;stroke-linecap:round;stroke-width:2;stroke:#d38484">
			<path d="m57.75 20-8.5 28.25 18 6.25 7.75 36.25-21 22.25 9 10.5-12 11.5 0.5 4.5 20.25 24.5 14-6.75 20.5 18.5-10.5 28.25 10.25 8.5-2.75 13"/>
			<path d="m105.8 212.2 12.5-27.75 11-7 27.5 15.75 20.5-3.75-0.25-15.75-10.25-6 12.75-26.25 5.75-3.75 38.75-10"/>
		</g>
	</g>
	<g transform="translate(-34.93 -34.4)" style="display:none">
		<path transform="scale(.2646)" d="m355.4 138.2s-24.25 9-31.75 10.5c-7.5 1.5-21 5.25-21 5.25s-9.75-4.25-22-8.5-29.75-5.5-29.75-5.5-3.25 3.5-22 8c-18.75 4.5-27.5 5.75-27.5 5.75s-18.5-9-31.5-11.5-24-2-24.75-1.75c0 0 7.5 13 11.75 27.75s6.25 25.5 6.25 25.5-5.5 12.75-8.25 24.75-5.75 23-5.75 23 5.75 16 9.25 30c3.5 14 3.75 24.25 3.75 24.25s-4 10.25-7.5 24.25-5 30.75-5 30.75 9.25-2 28.5 1.25c19.25 3.25 32.25 6 32.25 6s12.75-2.75 24-6.25c11.25-3.5 16.25-6.5 16.25-6.5s5.5 0.5 22.5 6.25c17 5.75 29.25 8.5 29.25 8.5s13-2.75 26-5.75 26.5-8 26.5-8-0.75-5 4.25-24.5c5-19.5 8.75-28 8.75-28s-0.5-4.5-3.75-19.75c-3.25-15.25-10-29.75-10-29.75s1.75-10.5 6.75-23.75 10.25-26.75 10.25-26.75-4.75-15.25-7.5-29.75-8.25-25.75-8.25-25.75zm-27.16 19.02h17.9v13.85h13.85v17.9h-13.85v13.85h-17.9v-13.85h-13.85v-17.9h13.85zm-111.6 40.39c11 4e-3 21.6 4.185 29.67 11.67 8.076-7.486 18.68-11.66 29.69-11.67 24.17-8e-3 43.9 19.59 43.76 43.76-0.2303 39.91-73.22 101.4-73.22 101.4s-73.65-61.7-73.65-101.4c-4e-3 -24.17 19.59-43.77 43.76-43.76zm28.35 19.66-15.93 53.9 15.63 8.885v51.49l15.32-63.44-15.32-4.6z" style="display:inline;fill:#068b06;paint-order:stroke fill markers"/>
	</g>
	<g transform="translate(-34.93 -34.4)">
		<g transform="matrix(.2646 0 0 .2646 34.95 34.41)">
			<g style="opacity:.27">
				<path transform="translate(0,182)" d="m219.2-182s-24.25 9-31.75 10.5-21 5.25-21 5.25c4.924-1.358 11.44 45.39 14.25 52.25l-0.063 0.28c11.81-4.073 51.21-4.766 54.31-12.78 0 0-4.75-15.25-7.5-29.75s-8.25-25.75-8.25-25.75z" style="fill:url(#f)"/>
				<path transform="translate(0,182)" d="m27-126.5s-5.5 12.75-8.25 24.75-5.75 23-5.75 23l50.62 16.28 15.78-58.9z" style="fill:url(#h)"/>
				<path transform="translate(0,182)" d="m26-24.5s-4 10.25-7.5 24.25-5 30.75-5 30.75 0.147-0.045 0.438-0.094c2.033-0.338 11.22-1.5 28.06 1.344 19.25 3.25 32.25 6 32.25 6l1.47-52.5-0.75 0.125z" style="fill:url(#l)"/>
				<path transform="translate(0,182)" d="m114.8-180.2s-3.25 3.5-22 8-27.5 5.75-27.5 5.75c5.182 14.7 12.03 29.27 14.25 44.75l-0.094 0.313 48.03-3.938 1.126 0.25c-3.362-13.32-7.796-54.59-13.81-55.12z" style="fill:url(#m)"/>
				<path transform="translate(0,182)" d="m117.6-78.09-53.62 15.72-0.345-0.095-0.125 0.47 12.25 46.5-0.03 0.75 49.47-8.875 0.53 0.188 0.032-0.063-8.25-54.25 0.094-0.344z" style="fill:url(#i)"/>
				<path transform="translate(0,182)" d="m128.6-125.1c0.234 0.928 0.463 1.742 0.687 2.375l-11.66 44.66 0.093-0.03 51.81 17.37 11.19-52.97c-0.356 0.124-0.695 0.247-1 0.376l-51.12-11.78z" style="fill:url(#g)"/>
				<path transform="translate(0,182)" d="m125.5-23.5-11.03 48.5s5.5 0.5 22.5 6.25c2.125 0.72 4.163 1.406 6.125 2.03 1.962 0.627 3.855 1.187 5.625 1.72 10.62 3.2 17.5 4.75 17.5 4.75l12.72-45.41c-0.514 0.182-1.02 0.38-1.532 0.562z" style="fill:url(#k)"/>
				<path transform="translate(0,182)" d="m218-76c-15.67 6.288-31.7 11.15-48.06 15.41l-0.437-0.156 9.5 55-0.03 0.094c17.84-6.36 35.38-13.39 52.78-20.84 0 0-0.5-4.5-3.75-19.75s-10-29.75-10-29.75z" style="fill:url(#j)"/>
			</g>
			<g style="opacity:.043">
				<path transform="translate(0,182)" d="m13.72-180c-1.107-2e-3 -1.973 0.033-2.72 0.064-0.445 0.018-0.855 0.04-1.156 0.062-0.03 2e-3 -0.066-2e-3 -0.094 0-0.398 0.033-0.656 0.063-0.75 0.094 0 0 7.5 13 11.75 27.75s6.25 25.5 6.25 25.5l51.47 5.125 0.936-0.063 0.094-0.312c-2.22-15.48-9.068-30.05-14.25-44.75 0 0-18.5-9-31.5-11.5-1.018-0.196-2.01-0.37-3-0.53-0.596-0.098-1.167-0.198-1.75-0.282-0.237-0.035-0.453-0.062-0.688-0.094-1.306-0.182-2.588-0.34-3.812-0.47-0.735-0.076-1.395-0.127-2.094-0.186-0.685-0.06-1.353-0.112-2-0.157-0.992-0.066-1.89-0.117-2.78-0.155-1.457-0.063-2.77-0.09-3.907-0.094z" style="fill:url(#u)"/>
				<path transform="translate(0,182)" d="m13-78.75s5.75 16 9.25 30 3.75 24.25 3.75 24.25l48.97 9.875 0.75-0.125 0.03-0.75-12.25-46.5 0.125-0.47z" style="fill:url(#n)"/>
				<path transform="translate(0,182)" d="m127.4-125.4-47.97 4h-0.062l-15.78 58.9 0.343 0.095 53.62-15.72 11.66-44.66c-0.224-0.633-0.453-1.447-0.688-2.375l-1.125-0.25z" style="fill:url(#o)"/>
				<path transform="translate(0,182)" d="m125.2-23.62-49.47 8.875-1.468 52.5s12.75-2.75 24-6.25 16.25-6.5 16.25-6.5l11.22-48.44z" style="fill:url(#p)"/>
				<path transform="translate(0,182)" d="m114.8-180.2c6.016 0.533 10.45 41.8 13.81 55.12l51.12 11.78c0.304-0.128 0.643-0.25 1-0.374l0.062-0.28c-2.813-6.858-9.326-53.61-14.25-52.25 0 0-0.613-0.254-1.72-0.72-3.315-1.393-11.09-4.593-20.28-7.78-12.25-4.25-29.75-5.5-29.75-5.5z" style="fill:url(#r)"/>
				<path transform="translate(0,182)" d="m117.7-78.12-0.094 0.03-0.094 0.345 8.25 53.25-0.22 1 51.91 18.41c0.512-0.18 1.02-0.38 1.53-0.562l0.03-0.094-9.5-55-51.81-17.38z" style="fill:url(#q)"/>
				<path transform="translate(0,182)" d="m231.8-26.5c-17.4 7.457-34.94 14.48-52.78 20.84l-12.72 45.41s13-2.75 26-5.75 26.5-8 26.5-8-0.75-5 4.25-24.5 8.75-28 8.75-28z" style="fill:url(#t)"/>
				<path transform="translate(0,182)" d="m235-126.5c-3.102 8.014-42.5 8.707-54.31 12.78l-11.19 52.97 0.438 0.156c16.36-4.256 32.4-9.118 48.06-15.41 0 0 1.75-10.5 6.75-23.75s10.25-26.75 10.25-26.75z" style="fill:url(#s)"/>
			</g>
		</g>
		<path d="m37.33 35s1.984 3.44 3.109 7.342 1.654 6.747 1.654 6.747-1.455 3.373-2.183 6.548c-0.7276 3.175-1.521 6.085-1.521 6.085s1.521 4.233 2.447 7.938 0.9922 6.416 0.9922 6.416-1.058 2.712-1.984 6.416c-0.926 3.704-1.323 8.136-1.323 8.136s2.447-0.5292 7.541 0.3307c5.093 0.8599 8.533 1.588 8.533 1.588s3.373-0.7276 6.35-1.654c2.977-0.926 4.299-1.72 4.299-1.72s1.455 0.1323 5.953 1.654c4.498 1.521 7.739 2.249 7.739 2.249s3.44-0.7276 6.879-1.521 7.011-2.117 7.011-2.117-0.1984-1.323 1.124-6.482c1.323-5.159 2.315-7.408 2.315-7.408s-0.1323-1.191-0.9922-5.226c-0.8599-4.035-2.646-7.871-2.646-7.871s0.463-2.778 1.786-6.284c1.323-3.506 2.712-7.078 2.712-7.078s-1.257-4.035-1.984-7.871c-0.7276-3.836-2.183-6.813-2.183-6.813s-6.416 2.381-8.401 2.778c-1.984 0.3969-5.556 1.389-5.556 1.389s-2.58-1.124-5.821-2.249-7.871-1.455-7.871-1.455-0.8599 0.926-5.821 2.117c-4.961 1.191-7.276 1.521-7.276 1.521s-4.895-2.381-8.334-3.043c-3.44-0.6614-6.35-0.5292-6.548-0.463z" style="fill:url(#aj);opacity:.039"/>
	</g>
	<g transform="translate(-34.93 -34.4)">
		<path d="m68.56 69.52c6.904 6.904 18.1 6.904 25 0 6.904-6.904 6.904-18.1 0-25-6.904-6.904-18.1-6.904-25 0-6.904 6.904-6.904 18.1 0 25z" style="fill:url(#x)"/>
		<g transform="matrix(.2646 0 0 .2646 34.95 34.41)">
			<g transform="matrix(1.253 .0354 0 1.253 -27.81 -48.34)" clip-path="url(#ao)">
				<path d="m9 12.25s7.5 13 11.75 27.75 6.25 25.5 6.25 25.5-5.5 12.75-8.25 24.75-5.75 23-5.75 23 5.75 16 9.25 30 3.75 24.25 3.75 24.25-4 10.25-7.5 24.25-5 30.75-5 30.75 9.25-2 28.5 1.25 32.25 6 32.25 6 12.75-2.75 24-6.25 16.25-6.5 16.25-6.5 5.5 0.5 22.5 6.25 29.25 8.5 29.25 8.5 13-2.75 26-5.75 26.5-8 26.5-8-0.75-5 4.25-24.5 8.75-28 8.75-28-0.5-4.5-3.75-19.75-10-29.75-10-29.75 1.75-10.5 6.75-23.75 10.25-26.75 10.25-26.75-4.75-15.25-7.5-29.75-8.25-25.75-8.25-25.75-24.25 9-31.75 10.5-21 5.25-21 5.25-9.75-4.25-22-8.5-29.75-5.5-29.75-5.5-3.25 3.5-22 8-27.5 5.75-27.5 5.75-18.5-9-31.5-11.5-24-2-24.75-1.75z" style="fill:#ceeeab"/>
				<g clip-path="url(#ap)">
					<path d="m110.8 5.5-4.25 7c-0.75 9-2.25 13.75-8.5 16.5s-12.25 3.5-11 7.5 13 9.25 14.25 13 8.25 1.75 11 7 2 15.25-3.75 17.25-17.5 0.5-20.25 9.5-4.75 10.5-9 12.75-7.25 10.5-3.5 16.5 12.25-1.25 15-6.5 7.25-8.75 7.25-8.75h23.75l59-1.75 3.25-3.75s3.25 4 2.75 8.75-3.75 14.75 0.25 17.25 19.5-2 24-7-4.75-28.25-10.5-29.5-18.5-1.75-17-7 11.75 4.5 17.25 3.25 16.75-21 12-25.25-24.25-5.25-25.75-8 21-8 22.25-11-2.5-7.25-6.25-8.5-14 16.25-21 15.75-20 5.75-17.25 11.5-6 11-14.5 6.5-24.75-13-21.75-24 21.5-18.75 21.5-18.75zm-13.56 107.2c-1.594 0.145-4.468 4.686-4.937 7.03-0.5 2.5-3.25 6.75-3.5 12.25s4.75 6.75 8.75 6.5 2.75-6.75 2-15c-0.25 0-0.5-10.25-2-10.75-0.094-0.03-0.206-0.04-0.313-0.03zm92.72 51.66c-6.336 0.295-6.626 7.47-7.407 8.875-1.25 2.25 2.25 13.75 2 18s-4.75 5.25-9.5 9.75 0.5 16 11.25 31l44.75 1.25-1-35s4.75-4.25-20.75-24.25c-9.563-7.5-15.54-9.802-19.34-9.625zm-150 16.53c-4.03-0.1-8.28 5.72-9.687 7.595-1.5 2-6.25 5-17 9.5l-14.5 34.25 53 4.25s1.75-11-4.25-15.75-17.25-5.75-18.25-13.25 9.25-10 13.75-14.25 2-11.25-2.25-12.25c-0.266-0.063-0.544-0.087-0.813-0.094z" style="fill:#a6dd8b"/>
				</g>
				<path d="m158.5 85.34c-4.76-0.015-9.03 0.97-11.53 3.156-8 7-35 0.75-48.5 7s-13.25 38-14.75 44.5-17.5 20.75-20 23.5-13.25 7.25-19.5 8.5-12.75 7.25-15.5 11c-2.02 2.756-7.406 6.45-10.12 8.22-0.046 0.18-0.08 0.347-0.125 0.53-0.134 0.535-0.247 1.083-0.375 1.625 4.98-1.605 11.18-8.18 16.62-13.62 6.25-6.25 20-7.75 27.75-11.5s14.25-19.75 26.5-23.75 21.25 11.75 24.25 18.5 1.75 12.75 3.75 17 11 11.75 11.5 13.5-5 6.5-6.25 8.5-10.5 7-11.75 8.75c-0.966 1.352-1.923 6.773-2.313 9.22 0.414-0.17 0.755-0.312 1.126-0.47 0.483-2.53 1.515-7.078 2.937-8.5 2-2 11.25-4.5 12.5-8.5s7-6.5 7-6.5 2.75 4 16 14c8.833 6.667 12.76 15.53 14.41 20.72 0.674 0.17 1.533 0.408 2.03 0.53-1.22-4.32-4.835-16.24-8.936-20.75-5-5.5-18.5-10.75-22.75-22s-24.5-34.25-17.5-40.25 16.5-4 28.5 7.5 46.25 5.75 57.75 3.75c9.955-1.73 20.83 14.88 23.91 26.03 0.59-2.094 1.127-4 1.656-5.75-1.738-1.925-3.697-4.62-5.312-8.28-3.75-8.5-12-13.25-12-13.25s8.75-5 14.75-7.75c1.617-0.74 3.006-1.677 4.188-2.656-0.163-0.774-0.26-1.256-0.438-2.094-0.03-0.146-0.062-0.292-0.094-0.438-4.765 5.563-19.23 9.616-21.66 10.94-2.75 1.5-18.25 3-35.75 4.5s-26.75-7.5-34.25-14.75-13-36-3-38 20 13.75 30 17 21.5-15.75 19.75-27c-1.203-7.734-14-12.62-24.47-12.66zm-53.34 13.28c1.276 2e-3 5.86 1.595 6.563 2.376 2.25 2.5 2 7.25 0 8s-12.75 8-10.5 14.25 1.75 18-3.5 18-8 0-10-2.5-2-12 0-19.75 3.5-15 8-18.25c3.094-2.234 6.632-2.128 9.438-2.125zm13.59 73.1c0.204 0.012 1.907 3.514 4.72 7.03 3 3.75 3.25 8.25 3.25 8.25s-4.25-4.75-6-8-2-7.25-2-7.25c0-0.03 0.018-0.032 0.03-0.03z" style="fill:#aac3e7"/>
				<path d="m122.8 72.25c6.25 0.5 12.25-2.25 10.75-6.5s-12.5-7.25-13.25-3 2 10.5 2.5 9.5z" style="fill:none;opacity:.387;stroke-linecap:round;stroke-linejoin:round;stroke:#6d7f42"/>
				<path d="m108.8 56.75c-8.5-5.5-8.5-7.25-7-8s10.25 5 12.75 8-2.25 2-5.75 0z" style="fill:none;opacity:.387;stroke-linecap:round;stroke-linejoin:round;stroke:#6d7f42"/>
				<g clip-path="url(#at)" style="fill:none;stroke:#6d7f42">
					<path d="m15.75 151.2c33-2.5 38.25-3.5 36.25-10.25s-8.75-23.5-23-22.5-22.75-6.75-22.75-6.75" style="opacity:.387;stroke-linecap:round;stroke-linejoin:round"/>
					<path d="m17.5 177.2c18.25-10 28.75-8.5 35-11.5s13.25-5.75 15.75-9.5 5.75-11.5 5.75-18-3.5-36 3.25-43.5 17.25-26 26-23.25 12.25 9.75 22 9.5 21.75-4 24.25-12.25-15.75-16-16-23 5.5-14.25 20.25-17 23.5-11.5 23.5-11.5" style="opacity:.387"/>
					<g>
						<path d="m14.5 161c15.25-1.5 22.25 3.5 31.5 1.75s13.25-3 17.75-5.75 6-3.75 6.25-6.5 1-12.5-3-22-12.5-31.5-8.25-38.75 5.25-21.5 15.75-24.5 21-6.25 27.75-1.25 12.75 14.25 20 14.5 11.75-1.5 14.5-4.5 4.5-10.25 1.75-13.75-15.5-5.5-17.25-9.5-10.75-17-0.25-26.75 36.25-8.25 36.25-8.25" style="opacity:.387;stroke-linecap:round;stroke-linejoin:round"/>
						<path d="m21.25 159c13.75 1 21.5 4.25 33.5-0.5s13.5-5.25 13.75-8.75-0.25-15.75-3-20-13-13.75-15.75-24.25 0.25-41 8.5-48.25 32-7.25 37.5-10.5 5.25-16.75 13-24.5 27-12.25 27-12.25" style="opacity:.387;stroke-linecap:round;stroke-linejoin:round"/>
						<path d="m190 18.5c11.75 5 39 9.75 47.25 40.25" style="opacity:.387;stroke-linecap:round;stroke-linejoin:round"/>
						<path d="m9.75 214c19-12.5 36-1.25 49-4s38.25-37.25 46-37 5.5-11.75 8.5-13.25 5.5 6 11.75 8 24.5-2.75 23.5-5.75-7-7.75-5.5-8.5 8.5 5 12.75 3.5 43.75-1 48.5-13.5 21.5-13.5 21.5-13.5" style="opacity:.387;stroke-linecap:round;stroke-linejoin:round"/>
						<path d="m77.5 233.5c13.5-11.5 23.25-25 28.5-27s12.75-3.75 15.75-8 2.5-10.75 5.25-12 3.75 5.75 8.75 6 36.75-5 42.75-11.75 32.25-12.5 32.5-14.5-1-4.75 0.25-5.5 24.75-6 24.75-6" style="opacity:.387;stroke-linecap:round;stroke-linejoin:round"/>
						<path d="m168.8 236c9-13.75 20.5-41 29.5-42s10.25-2.5 12.5-4.25 17 2.25 17 2.25" style="opacity:.387;stroke-linecap:round;stroke-linejoin:round"/>
					</g>
				</g>
				<g clip-path="url(#ar)" style="fill:none;stroke-linecap:round;stroke-width:2;stroke:#d38484">
					<path d="m57.75 20-8.5 28.25 18 6.25 7.75 36.25-21 22.25 9 10.5-12 11.5 0.5 4.5 20.25 24.5 14-6.75 20.5 18.5-10.5 28.25 10.25 8.5-2.75 13"/>
					<path d="m105.8 212.2 12.5-27.75 11-7 27.5 15.75 20.5-3.75-0.25-15.75-10.25-6 12.75-26.25 5.75-3.75 38.75-10"/>
				</g>
				<path d="m9 12.25s7.5 13 11.75 27.75 6.25 25.5 6.25 25.5-5.5 12.75-8.25 24.75-5.75 23-5.75 23 5.75 16 9.25 30 3.75 24.25 3.75 24.25-4 10.25-7.5 24.25-5 30.75-5 30.75 9.25-2 28.5 1.25 32.25 6 32.25 6 12.75-2.75 24-6.25 16.25-6.5 16.25-6.5 5.5 0.5 22.5 6.25 29.25 8.5 29.25 8.5 13-2.75 26-5.75 26.5-8 26.5-8-0.75-5 4.25-24.5 8.75-28 8.75-28-0.5-4.5-3.75-19.75-10-29.75-10-29.75 1.75-10.5 6.75-23.75 10.25-26.75 10.25-26.75-4.75-15.25-7.5-29.75-8.25-25.75-8.25-25.75-24.25 9-31.75 10.5-21 5.25-21 5.25-9.75-4.25-22-8.5-29.75-5.5-29.75-5.5-3.25 3.5-22 8-27.5 5.75-27.5 5.75-18.5-9-31.5-11.5-24-2-24.75-1.75z" style="fill:url(#ai);opacity:.039"/>
				<g style="opacity:.27">
					<path transform="translate(0,192)" d="m219.2-182s-24.25 9-31.75 10.5-21 5.25-21 5.25c4.924-1.358 11.44 45.39 14.25 52.25l-0.063 0.28c11.81-4.073 51.21-4.766 54.31-12.78 0 0-4.75-15.25-7.5-29.75s-8.25-25.75-8.25-25.75z" style="fill:url(#f)"/>
					<path transform="translate(0,192)" d="m27-126.5s-5.5 12.75-8.25 24.75-5.75 23-5.75 23l50.62 16.28 15.78-58.9z" style="fill:url(#h)"/>
					<path transform="translate(0,192)" d="m26-24.5s-4 10.25-7.5 24.25-5 30.75-5 30.75 0.147-0.045 0.438-0.094c2.033-0.338 11.22-1.5 28.06 1.344 19.25 3.25 32.25 6 32.25 6l1.47-52.5-0.75 0.125z" style="fill:url(#l)"/>
					<path transform="translate(0,192)" d="m114.8-180.2s-3.25 3.5-22 8-27.5 5.75-27.5 5.75c5.182 14.7 12.03 29.27 14.25 44.75l-0.094 0.313 48.03-3.938 1.126 0.25c-3.362-13.32-7.796-54.59-13.81-55.12z" style="fill:url(#m)"/>
					<path transform="translate(0,192)" d="m117.6-78.09-53.62 15.72-0.345-0.095-0.125 0.47 12.25 46.5-0.03 0.75 49.47-8.875 0.53 0.188 0.032-0.063-8.25-54.25 0.094-0.344z" style="fill:url(#i)"/>
					<path transform="translate(0,192)" d="m128.6-125.1c0.234 0.928 0.463 1.742 0.687 2.375l-11.66 44.66 0.093-0.03 51.81 17.37 11.19-52.97c-0.356 0.124-0.695 0.247-1 0.376l-51.12-11.78z" style="fill:url(#g)"/>
					<path transform="translate(0,192)" d="m125.5-23.5-11.03 48.5s5.5 0.5 22.5 6.25c2.125 0.72 4.163 1.406 6.125 2.03 1.962 0.627 3.855 1.187 5.625 1.72 10.62 3.2 17.5 4.75 17.5 4.75l12.72-45.41c-0.514 0.182-1.02 0.38-1.532 0.562z" style="fill:url(#k)"/>
					<path transform="translate(0,192)" d="m218-76c-15.67 6.288-31.7 11.15-48.06 15.41l-0.437-0.156 9.5 55-0.03 0.094c17.84-6.36 35.38-13.39 52.78-20.84 0 0-0.5-4.5-3.75-19.75s-10-29.75-10-29.75z" style="fill:url(#j)"/>
				</g>
				<g style="opacity:.043">
					<path transform="translate(0,192)" d="m13.72-180c-1.107-2e-3 -1.973 0.033-2.72 0.064-0.445 0.018-0.855 0.04-1.156 0.062-0.03 2e-3 -0.066-2e-3 -0.094 0-0.398 0.033-0.656 0.063-0.75 0.094 0 0 7.5 13 11.75 27.75s6.25 25.5 6.25 25.5l51.47 5.125 0.936-0.063 0.094-0.312c-2.22-15.48-9.068-30.05-14.25-44.75 0 0-18.5-9-31.5-11.5-1.018-0.196-2.01-0.37-3-0.53-0.596-0.098-1.167-0.198-1.75-0.282-0.237-0.035-0.453-0.062-0.688-0.094-1.306-0.182-2.588-0.34-3.812-0.47-0.735-0.076-1.395-0.127-2.094-0.186-0.685-0.06-1.353-0.112-2-0.157-0.992-0.066-1.89-0.117-2.78-0.155-1.457-0.063-2.77-0.09-3.907-0.094z" style="fill:url(#u)"/>
					<path transform="translate(0,192)" d="m13-78.75s5.75 16 9.25 30 3.75 24.25 3.75 24.25l48.97 9.875 0.75-0.125 0.03-0.75-12.25-46.5 0.125-0.47z" style="fill:url(#n)"/>
					<path transform="translate(0,192)" d="m127.4-125.4-47.97 4h-0.062l-15.78 58.9 0.343 0.095 53.62-15.72 11.66-44.66c-0.224-0.633-0.453-1.447-0.688-2.375l-1.125-0.25z" style="fill:url(#o)"/>
					<path transform="translate(0,192)" d="m125.2-23.62-49.47 8.875-1.468 52.5s12.75-2.75 24-6.25 16.25-6.5 16.25-6.5l11.22-48.44z" style="fill:url(#p)"/>
					<path transform="translate(0,192)" d="m114.8-180.2c6.016 0.533 10.45 41.8 13.81 55.12l51.12 11.78c0.304-0.128 0.643-0.25 1-0.374l0.062-0.28c-2.813-6.858-9.326-53.61-14.25-52.25 0 0-0.613-0.254-1.72-0.72-3.315-1.393-11.09-4.593-20.28-7.78-12.25-4.25-29.75-5.5-29.75-5.5z" style="fill:url(#r)"/>
					<path transform="translate(0,192)" d="m117.7-78.12-0.094 0.03-0.094 0.345 8.25 53.25-0.22 1 51.91 18.41c0.512-0.18 1.02-0.38 1.53-0.562l0.03-0.094-9.5-55-51.81-17.38z" style="fill:url(#q)"/>
					<path transform="translate(0,192)" d="m231.8-26.5c-17.4 7.457-34.94 14.48-52.78 20.84l-12.72 45.41s13-2.75 26-5.75 26.5-8 26.5-8-0.75-5 4.25-24.5 8.75-28 8.75-28z" style="fill:url(#t)"/>
					<path transform="translate(0,192)" d="m235-126.5c-3.102 8.014-42.5 8.707-54.31 12.78l-11.19 52.97 0.438 0.156c16.36-4.256 32.4-9.118 48.06-15.41 0 0 1.75-10.5 6.75-23.75s10.25-26.75 10.25-26.75z" style="fill:url(#s)"/>
				</g>
			</g>
		</g>
		<path d="m47.65 94.59-1.272 1.206c-1.325-1.406-2.709-2.833-3.99-4.269l1.188-1.078c1.807 1.729 2.348 2.257 4.074 4.14z" style="fill:url(#ah)"/>
		<path d="m68.04 70.04c-7.191-7.191-7.191-18.85 0-26.04 7.191-7.191 18.85-7.191 26.04 0 7.191 7.191 7.191 18.85 0 26.04-7.191 7.191-18.85 7.191-26.04 0zm0.7813-0.7813c6.904 6.904 17.84 7.164 24.74 0.2604 6.904-6.904 6.643-17.84-0.2604-24.74-6.904-6.903-17.84-7.164-24.74-0.2601-6.904 6.904-6.644 17.84 0.2604 24.74z" style="fill:#2d3335"/>
		<path d="m68.04 70.04c-7.191-7.191-7.191-18.85 0-26.04 0.04392-0.0442 0.08599-0.0873 0.1302-0.1307-7.06 7.201-7.017 18.76 0.1302 25.91 7.148 7.147 18.71 7.191 25.91 0.1302-0.04313 0.0442-0.08625 0.0863-0.1302 0.1302-7.191 7.191-18.85 7.191-26.04 0zm0.6509-25.65c0.04313-0.0444 0.08678-0.0868 0.1304-0.1304 6.904-6.904 17.84-6.644 24.74 0.2604 6.904 6.904 7.164 17.84 0.2604 24.74-0.04366 0.0437-0.08625 0.0873-0.1302 0.1302 6.77-6.91 6.469-17.75-0.3908-24.61-6.86-6.86-17.7-7.16-24.61-0.3903z" style="fill:#9eaaac"/>
		<path d="m68.56 69.52c6.904 6.904 18.1 6.904 25 0 6.904-6.904 6.904-18.1 0-25-6.904-6.904-18.1-6.904-25 0-6.904 6.904-6.904 18.1 0 25z" style="fill:url(#w)"/>
		<path d="m88.38 46.13v2.288h-2.288v2.273h2.288v2.288h2.273v-2.288h2.288v-2.273h-2.288v-2.288zm-13.74 6.173c-2.948 0.03071-5.589 2.964-4.791 6.834 0.5989 2.964 3.747 6.803 9.229 10.52 5.482-3.731 8.63-7.57 9.229-10.52 0.7985-3.885-1.827-6.803-4.791-6.834-1.52-0.03071-3.424 0.7833-4.438 2.718-1.013-1.935-2.918-2.749-4.438-2.718zm6.803 2.35-2.58 5.297h3.271l-5.728 6.665 2.211-5.221h-3.179z" style="fill:#f5f5f5;stroke-width:.1536"/>
		<path d="m65.65 64.91-1.522 1.082c0.8718 1.644 2.001 3.19 3.386 4.574 1.384 1.385 2.93 2.514 4.574 3.386l1.082-1.522c-1.568-0.8028-3.041-1.853-4.354-3.166-1.313-1.313-2.363-2.786-3.166-4.354z" style="fill:url(#ad)"/>
		<path d="m67.97 70.11c0.4577 0.4577 0.816 0.971 1.091 1.513l-6.934 6.934c-0.5424-0.2746-1.056-0.6332-1.514-1.091-0.4577-0.4577-0.816-0.971-1.09-1.513l6.933-6.934c0.5424 0.2746 1.056 0.6332 1.513 1.091z" style="fill:url(#ae)"/>
		<path d="m65.71 76.54-17.48 17.48c-1.054-0.58-1.543-0.7938-2.458-1.709-0.9155-0.9147-1.129-1.404-1.709-2.458l17.48-17.48c1.34 0.9917 3.206 2.751 4.167 4.167z" style="fill:url(#af)"/>
		<path d="m62.93 75.18c0.9147 0.9149 1.967 1.764 2.254 2.916l-16.96 16.96c-1.724-1.364-3.851-3.385-5.208-5.209l16.96-16.96c0.9234 0.059 2.027 1.365 2.941 2.28z" style="fill:url(#ag)"/>
		<path d="m62.87 75.25c0.9155 0.9149 2.032 1.699 2.319 2.851l-16.96 16.96c-2.084-1.828-3.121-2.811-5.208-5.209l16.96-16.96c0.9234 0.059 1.962 1.443 2.877 2.357h0.01323z" style="fill:url(#ac);opacity:.596"/>
		<path d="m69.65 44.21c10.76-8.512 20.67-3.368 20.58 1.403-0.0934 4.77-14.97 18.62-20.21 17.49-5.239-1.123-6.735-14.13-0.3744-18.9z" style="fill:url(#ab);opacity:.604"/>
		<path d="m93.01 68.56c-7.089 5.816-11.06 5.558-10.07 3.476 0.988-2.082 11.2-11.02 13.61-11.57 2.413-0.5538 0.6019 4.773-3.538 8.099z" style="fill:url(#aa);opacity:.765"/>
		<g transform="matrix(.2646 0 0 .2646 34.95 34.41)">
			<path transform="matrix(1 .08088 0 1 0 -21.06)" d="m174.3 35.88c-17.6 0-35.19 6.64-48.72 19.91-0.167 0.165-0.334 0.304-0.5 0.47-22.06 22.06-26.21 55.25-12.47 81.5l-2.28 1.625c2.247 4.24 4.94 8.307 8.092 12.12l-13.31 13.34c-1.342-0.586-2.79-1.034-4.563-1.375l-2.843 2.843c-1.11-0.484-2.138-0.816-3.062-0.875l-64.13 64.12c-0.037 1.1 0.226 2.187 0.656 3.28l-0.53 0.532-1.095 1.094c0.717 3.737 2.012 6.822 5.47 10.28s6.42 4.63 10.28 5.47l1.815-1.815c1.087 0.464 2.13 0.787 3.093 0.845l64.12-64.12c-0.242-0.975-0.62-1.935-1.03-2.906l3-3c-0.25-1.733-0.677-3.2-1.313-4.595l13.28-13.28c3.818 3.15 7.885 5.844 12.12 8.093l1.625-2.282c26.25 13.74 59.44 9.587 81.5-12.47 0.166-0.164 0.305-0.33 0.47-0.5 26.69-27.22 26.55-70.92-0.47-97.94-13.59-13.59-31.41-20.38-49.22-20.38zm-0.5 3.28c0.106 3e-3 0.21 0 0.314 0 0.95 0.02 1.895 0.067 2.844 0.126 0.958 0.062 1.918 0.15 2.875 0.25l0.28 0.032c0.095 0.01 0.188 0.02 0.282 0.032 0.146 0.017 0.292 0.044 0.438 0.062 0.896 0.11 1.794 0.228 2.687 0.375 0.62 0.103 1.227 0.225 1.844 0.345 0.343 0.066 0.69 0.116 1.03 0.188 0.725 0.152 1.437 0.323 2.157 0.5 0.314 0.076 0.627 0.137 0.94 0.218 0.072 0.02 0.144 0.044 0.218 0.064 0.955 0.253 1.896 0.516 2.843 0.812 0.074 0.023 0.148 0.04 0.22 0.063 0.947 0.3 1.907 0.624 2.844 0.968l0.156 0.062c0.955 0.352 1.902 0.728 2.844 1.125 0.05 0.022 0.105 0.04 0.156 0.063 0.942 0.4 1.885 0.836 2.813 1.28 0.042 0.02 0.083 0.043 0.125 0.063 0.935 0.452 1.862 0.91 2.78 1.407 0.034 0.018 0.06 0.045 0.094 0.063 0.927 0.503 1.842 1.013 2.75 1.563 0.033 0.02 0.062 0.043 0.094 0.062 0.908 0.55 1.8 1.122 2.688 1.72 0.55 0.368 1.084 0.768 1.625 1.155 0.363 0.26 0.732 0.512 1.092 0.78 0.02 0.015 0.044 0.02 0.063 0.032 0.878 0.656 1.74 1.36 2.594 2.063 1.74 1.434 3.43 2.963 5.06 4.594 1.622 1.62 3.137 3.3 4.564 5.03 0.01 0.01 0.022 0.02 0.03 0.03 0.704 0.856 1.408 1.716 2.063 2.595 0.283 0.38 0.54 0.773 0.813 1.156 0.37 0.518 0.74 1.04 1.094 1.564 0.016 0.024 0.046 0.038 0.062 0.062 0.598 0.89 1.167 1.778 1.72 2.688 0.018 0.032 0.042 0.06 0.06 0.094 0.547 0.902 1.064 1.83 1.564 2.75 0.018 0.032 0.045 0.06 0.062 0.093 0.498 0.922 0.954 1.845 1.407 2.782l0.06 0.126c0.447 0.93 0.88 1.868 1.282 2.812 0.022 0.05 0.04 0.105 0.063 0.156 0.395 0.936 0.774 1.895 1.125 2.844 0.02 0.053 0.043 0.104 0.062 0.156 0.348 0.95 0.666 1.885 0.97 2.844 0.022 0.072 0.04 0.147 0.062 0.22 0.294 0.94 0.56 1.893 0.812 2.843 0.02 0.073 0.043 0.145 0.063 0.218 0.08 0.31 0.14 0.628 0.217 0.94 0.177 0.72 0.348 1.43 0.5 2.155 0.072 0.342 0.12 0.688 0.188 1.03 0.12 0.618 0.242 1.226 0.344 1.845 0.145 0.893 0.264 1.79 0.374 2.688 0.018 0.145 0.045 0.29 0.062 0.437l0.03 0.28c0.012 0.095 0.022 0.188 0.032 0.282 0.103 0.957 0.19 1.917 0.25 2.876 0.06 0.942 0.107 1.9 0.126 2.843 0 0.104-2e-3 0.21 0 0.313 0.015 1.052 4e-3 2.103-0.032 3.155-0.03 0.93-0.084 1.853-0.156 2.78l-0.03 0.376c-0.077 0.92-0.167 1.837-0.282 2.75-0.12 0.958-0.274 1.925-0.438 2.876-0.014 0.083-0.017 0.168-0.03 0.25-0.023 0.125-0.04 0.25-0.064 0.375-0.165 0.91-0.358 1.82-0.562 2.72-0.03 0.135-0.062 0.272-0.094 0.406-0.208 0.89-0.44 1.775-0.687 2.656-0.165 0.587-0.352 1.168-0.533 1.75-0.175 0.565-0.34 1.128-0.53 1.688-0.295 0.864-0.606 1.71-0.938 2.563l-0.19 0.468c-0.044 0.114-0.078 0.233-0.124 0.345-0.356 0.88-0.728 1.728-1.125 2.594-0.376 0.822-0.772 1.625-1.186 2.436-0.08 0.158-0.168 0.312-0.25 0.47-0.416 0.796-0.83 1.59-1.282 2.374-0.095 0.166-0.184 0.335-0.28 0.5-0.2 0.34-0.42 0.664-0.626 1-0.36 0.59-0.742 1.168-1.125 1.75-4e-3 7e-3 6e-3 0.024 0 0.03-0.49 0.747-1.005 1.49-1.53 2.22-0.457 0.636-0.954 1.25-1.438 1.875-0.197 0.254-0.36 0.53-0.562 0.78-0.134 0.17-0.27 0.334-0.406 0.5-0.164 0.202-0.334 0.396-0.5 0.595-0.557 0.667-1.13 1.318-1.72 1.97-0.605 0.67-1.234 1.346-1.874 2-0.16 0.163-0.306 0.336-0.47 0.5-21.13 21.13-52.26 24.49-77.19 11.16l0.125-0.188c-3.705-1.896-7.263-4.14-10.63-6.78-0.54-0.424-1.066-0.87-1.594-1.313-0.514-0.43-1.027-0.863-1.53-1.313-0.094-0.082-0.19-0.165-0.283-0.25-0.82-0.747-1.61-1.517-2.406-2.31-0.793-0.796-1.564-1.586-2.31-2.408-0.085-0.092-0.168-0.188-0.25-0.28-0.45-0.505-0.883-1.018-1.314-1.532-0.442-0.528-0.89-1.055-1.312-1.594-2.64-3.363-4.885-6.92-6.782-10.62l-0.187 0.126c-13.34-24.93-9.974-56.06 11.16-77.19 0.164-0.164 0.337-0.31 0.5-0.47 0.654-0.64 1.33-1.27 2-1.875 0.652-0.588 1.303-1.162 1.97-1.72 0.272-0.226 0.538-0.464 0.812-0.686 0.344-0.28 0.716-0.513 1.063-0.783 0.624-0.483 1.24-0.98 1.875-1.437 0.737-0.53 1.497-1.036 2.25-1.53 0.582-0.384 1.16-0.765 1.75-1.126 0.447-0.274 0.892-0.55 1.344-0.813 0.68-0.394 1.37-0.756 2.062-1.124 0.176-0.093 0.355-0.19 0.53-0.28 0.947-0.492 1.883-0.967 2.845-1.407 0.867-0.398 1.716-0.77 2.595-1.126 0.153-0.062 0.316-0.096 0.47-0.157 0.967-0.384 1.923-0.758 2.905-1.093 0.56-0.192 1.123-0.356 1.687-0.532 0.583-0.18 1.164-0.367 1.75-0.53 0.882-0.247 1.768-0.48 2.657-0.688 0.07-0.017 0.147-0.015 0.218-0.032 0.416-0.095 0.833-0.193 1.25-0.28 0.673-0.142 1.356-0.288 2.032-0.407 0.082-0.015 0.167-0.017 0.25-0.03 0.95-0.165 1.918-0.318 2.875-0.44 1.962-0.246 3.93-0.4 5.905-0.468 1.052-0.035 2.103-0.046 3.156-0.03z" clip-path="url(#an)" style="fill:#2d3335;filter:url(#am)"/>
		</g>
	</g>
</svg>
