<?xml version="1.0" encoding="UTF-8" standalone="yes"?>
<svg xmlns="http://www.w3.org/2000/svg" width="373px" height="264px" viewBox="0 0 373 264" version="1.1">
  <g id="surface1">
    <path style="fill:none;stroke-width:1.685897;stroke-linecap:round;stroke-linejoin:round;stroke:rgb(0%,0%,0%);stroke-opacity:1;stroke-miterlimit:4;" d="M 52.819462 187.17936 C 52.819462 188.594501 51.200611 189.745829 49.184795 189.779484 C 49.154887 189.780027 20.66321 189.780027 20.632758 189.780027 C 18.575615 189.780027 16.907279 188.615671 16.907279 187.17936 C 16.907279 185.742506 18.575615 184.57815 20.632758 184.57815 C 20.673542 184.57815 49.175007 184.578693 49.215247 184.579236 C 51.216924 184.623747 52.819462 185.770733 52.819462 187.178817 Z M 52.819462 187.17936 " transform="matrix(7.18343,0,0,7.19617,-61.01085,-1171.138615)"/>
    <path style="fill:none;stroke-width:1.925465;stroke-linecap:round;stroke-linejoin:round;stroke:rgb(0%,0%,0%);stroke-opacity:1;stroke-miterlimit:4;" d="M 56.121332 187.102279 C 56.121332 190.688714 53.007612 193.603676 49.141293 193.666643 C 49.098877 193.667186 20.14607 193.667729 20.103654 193.667729 C 16.178062 193.667729 12.995281 190.72834 12.995281 187.102279 C 12.995281 183.476218 16.178062 180.536829 20.103654 180.536829 C 20.155858 180.536829 49.11791 180.537372 49.169569 180.539001 C 53.023382 180.615539 56.121332 183.525073 56.121332 187.102822 Z M 56.121332 187.102279 " transform="matrix(7.18343,0,0,7.19617,-61.01085,-1171.138615)"/>
    <path style="fill:none;stroke-width:2;stroke-linecap:round;stroke-linejoin:round;stroke:rgb(0%,0%,0%);stroke-opacity:1;stroke-miterlimit:4;" d="M 59.376436 187.102279 C 59.376436 192.801925 54.786881 197.428952 49.101596 197.489749 C 49.064075 197.490291 19.960638 197.490291 19.923117 197.490291 C 14.186173 197.490291 9.53517 192.83938 9.53517 187.102279 C 9.53517 181.365178 14.186173 176.714267 19.923117 176.714267 C 19.984565 176.714267 49.111384 176.71481 49.172832 176.716438 C 54.824946 176.814689 59.376436 181.42706 59.376436 187.102822 Z M 59.376436 187.102279 " transform="matrix(7.18343,0,0,7.19617,-61.01085,-1171.138615)"/>
    <path style="fill-rule:nonzero;fill:rgb(0%,0%,0%);fill-opacity:1;stroke-width:0.5;stroke-linecap:round;stroke-linejoin:round;stroke:rgb(100%,100%,100%);stroke-opacity:1;stroke-miterlimit:4;" d="M 41.744713 175.137365 L 46.521331 175.137365 L 46.521331 199.180644 L 41.744713 199.180644 Z M 41.744713 175.137365 " transform="matrix(7.18343,0,0,7.19617,-61.01085,-1171.138615)"/>
    <path style=" stroke:none;fill-rule:nonzero;fill:rgb(0%,0%,0%);fill-opacity:1;" d="M 165.183594 45.855469 L 175.863281 45.855469 L 175.863281 88.890625 L 165.183594 88.890625 Z M 165.183594 45.855469 "/>
    <path style=" stroke:none;fill-rule:nonzero;fill:rgb(0%,0%,0%);fill-opacity:1;" d="M 163.027344 6.570312 C 164.667969 -0.507812 174.207031 -3.726562 177.15625 6.570312 L 184.074219 42.386719 L 158.125 42.386719 Z M 163.027344 6.570312 "/>
  </g>
</svg>