<?xml version="1.0" encoding="utf-8"?>
<!-- Generator: Adobe Illustrator 23.1.1, SVG Export Plug-In . SVG Version: 6.00 Build 0)  -->
<svg version="1.1"
	 id="svg8" inkscape:version="1.1.2 (0a00cf5339, 2022-02-04)" sodipodi:docname="two_sided.svg" xmlns:inkscape="http://www.inkscape.org/namespaces/inkscape" xmlns:sodipodi="http://sodipodi.sourceforge.net/DTD/sodipodi-0.dtd" xmlns:svg="http://www.w3.org/2000/svg"
	 xmlns="http://www.w3.org/2000/svg" xmlns:xlink="http://www.w3.org/1999/xlink" x="0px" y="0px" viewBox="0 0 126.9 163.9"
	 style="enable-background:new 0 0 126.9 163.9;" xml:space="preserve">
<style type="text/css">
	.st0{fill-rule:evenodd;clip-rule:evenodd;fill:#7A7A7A;}
	.st1{fill-rule:evenodd;clip-rule:evenodd;fill-opacity:0.936;}
</style>
<sodipodi:namedview  bordercolor="#eeeeee" borderopacity="1" id="namedview10" inkscape:current-layer="layer1" inkscape:cx="102.39314" inkscape:cy="60.906263" inkscape:pagecheckerboard="0" inkscape:pageopacity="0" inkscape:pageshadow="0" inkscape:window-height="995" inkscape:window-maximized="1" inkscape:window-width="1920" inkscape:window-x="0" inkscape:window-y="0" inkscape:zoom="1.6993326" pagecolor="#ffffff" showgrid="false">
	</sodipodi:namedview>
<g>
	<g id="layer1" transform="translate(-52.206125,-38.533)" inkscape:groupmode="layer" inkscape:label="Layer 1">
		<path id="path4" sodipodi:nodetypes="ccsccccsccsccsssccscccccsc" class="st0" d="M100.8,82.2c-7.4-12.5-27.4-7.4-27.4,7.7v63.9
			h54v39.7c0,4.9,4,8.9,8.9,8.9s8.9-4,8.9-8.9v-26.4l18.7,18.7c3.5,3.5,9.1,3.5,12.6,0s3.5-9.1,0-12.6l-35.4-35.4
			c-1.1-1.1-2.7-1.8-4.2-1.8H103v-19.7l3.4,5.7l33.2,14.6c3.7,1.6,8.4-1.5,9.5-5.6c1-4.2-1.6-7.5-5.6-9.5l-27-13L100.8,82.2z
			 M71.9,54.2c0,8.7,7,15.7,15.7,15.7s15.7-7,15.7-15.7s-7-15.7-15.7-15.7S71.9,45.5,71.9,54.2"/>
	</g>
	<g id="layer2" transform="translate(-52.206125,-38.533)" inkscape:groupmode="layer" inkscape:label="Layer 2">
		<rect id="rect1529" x="52.2" y="158.6" class="st1" width="69.1" height="16.9"/>
	</g>
</g>
</svg>
