<?xml version="1.0" encoding="UTF-8" standalone="no"?>
<svg
   version="1.1"
   x="0"
   y="0"
   viewBox="0 0 15 15"
   id="svg6"
   sodipodi:docname="school.svg"
   inkscape:version="1.1.2 (1:1.1+202202050950+0a00cf5339)"
   xmlns:inkscape="http://www.inkscape.org/namespaces/inkscape"
   xmlns:sodipodi="http://sodipodi.sourceforge.net/DTD/sodipodi-0.dtd"
   xmlns="http://www.w3.org/2000/svg"
   xmlns:svg="http://www.w3.org/2000/svg">
  <defs
     id="defs10" />
  <sodipodi:namedview
     id="namedview8"
     pagecolor="#505050"
     bordercolor="#eeeeee"
     borderopacity="1"
     inkscape:pageshadow="0"
     inkscape:pageopacity="0"
     inkscape:pagecheckerboard="0"
     showgrid="false"
     inkscape:zoom="19.217129"
     inkscape:cx="3.5385098"
     inkscape:cy="1.4570334"
     inkscape:current-layer="svg6" />
  <path
     d="M 9.1416908,2.1457729 V 12.854227 c 0,0 -7.1389694,0 -7.1389694,0 0,0 0,-10.7084541 0,-10.7084541 z M 8.4277939,2.8596699 H 2.7166183 V 12.14033 c 0,0 5.7111756,0 5.7111756,0 z M 3.7874637,5.0013607 c 0,0 3.5694848,0 3.5694848,0 0.3569484,0 0.3569484,0.7138969 0,0.7138969 0,0 -3.5694848,0 -3.5694848,0 -0.3569484,0 -0.3569484,-0.7138969 0,-0.7138969 z m 0,1.4277939 c 0,0 3.5694848,0 3.5694848,0 0.3569484,0 0.3569484,0.7138969 0,0.7138969 0,0 -3.5694848,0 -3.5694848,0 -0.3569484,0 -0.3569484,-0.7138969 0,-0.7138969 z m 0,1.4277939 c 0,0 3.5694848,0 3.5694848,0 0.3569484,0 0.3569484,0.7138969 0,0.7138969 0,0 -3.5694848,0 -3.5694848,0 -0.3569484,0 -0.3569484,-0.7138969 0,-0.7138969 z m 0,1.4277939 c 0,0 3.5694848,0 3.5694848,0 0.3569484,0 0.3569484,0.7138969 0,0.7138969 0,0 -3.5694848,0 -3.5694848,0 -0.3569484,0 -0.3569484,-0.7138969 0,-0.7138969 z"
     id="path2"
     style="stroke-width:0.713897" />
  <path
     d="m 9.8555878,11.426433 c 0.3569482,0.356949 1.7847422,0.356949 2.1416912,0 0,0 -0.713897,1.427794 -1.070846,1.427794 -0.356948,0 -1.0708452,-1.427794 -1.0708452,-1.427794 z m 0,-7.1389693 c 0,0.3569485 2.1416912,0.3569485 2.1416912,0 0,0 0,6.4250723 0,6.4250723 0,0.356949 -2.1416912,0.356949 -2.1416912,0 0,0 0,-6.4250723 0,-6.4250723 z M 10.926433,2.1457729 c -1.0708452,0 -1.0708452,0.3569485 -1.0708452,0.713897 0,0 0,0.7138969 0,0.7138969 0,0.3569485 2.1416912,0.3569485 2.1416912,0 0,0 0,-0.7138969 0,-0.7138969 0,-0.3569485 0,-0.713897 -1.070846,-0.713897 z"
     id="path4"
     style="stroke-width:0.713897" />
</svg>
