<?xml version="1.0" encoding="utf-8"?>
<!-- Generator: Adobe Illustrator 14.0.0, SVG Export Plug-In . SVG Version: 6.00 Build 43363)  -->
<!DOCTYPE svg PUBLIC "-//W3C//DTD SVG 1.1//EN" "http://www.w3.org/Graphics/SVG/1.1/DTD/svg11.dtd">
<svg version="1.1" id="Calque_1" xmlns="http://www.w3.org/2000/svg" xmlns:xlink="http://www.w3.org/1999/xlink" x="0px" y="0px"
	 width="100.274px" height="100.274px" viewBox="0 0 100.274 100.274" enable-background="new 0 0 100.274 100.274"
	 xml:space="preserve">
<path fill="#FFFFFF" d="M44.881,2.773c2.898-2.898,7.614-2.898,10.512,0l42.108,42.108c2.897,2.898,2.897,7.614,0,10.512
	L55.393,97.501c-2.897,2.897-7.614,2.897-10.512,0L2.773,55.393c-2.898-2.898-2.898-7.614,0-10.512L44.881,2.773z"/>
<path fill="none" stroke="#000000" stroke-width="1.199" stroke-miterlimit="3.863" d="M44.881,2.773
	c2.898-2.898,7.614-2.898,10.512,0l42.108,42.108c2.897,2.898,2.897,7.614,0,10.512L55.393,97.501
	c-2.897,2.897-7.614,2.897-10.512,0L2.773,55.393c-2.898-2.898-2.898-7.614,0-10.512L44.881,2.773z"/>
<polygon fill-rule="evenodd" clip-rule="evenodd" fill="#FFCB04" points="13.885,50.157 50.137,13.905 86.39,50.157 50.137,86.39 
	"/>
<polygon fill="none" stroke="#120C0E" stroke-width="1.998" stroke-miterlimit="3.863" points="13.885,50.157 50.137,13.905 
	86.39,50.157 50.137,86.39 "/>
<rect x="12.744" y="41.631" transform="matrix(-0.7071 0.7071 -0.7071 -0.7071 121.0413 50.1383)" fill="#120C0E" width="74.784" height="17.013"/>
<rect x="12.744" y="41.631" transform="matrix(-0.7071 0.7071 -0.7071 -0.7071 121.0413 50.1383)" fill="none" stroke="#120C0E" stroke-width="0.4" stroke-miterlimit="3.863" width="74.784" height="17.013"/>
</svg>
