<?xml version="1.0" encoding="utf-8"?>
<!-- Generator: Adobe Illustrator 14.0.0, SVG Export Plug-In . SVG Version: 6.00 Build 43363)  -->
<!DOCTYPE svg PUBLIC "-//W3C//DTD SVG 1.1//EN" "http://www.w3.org/Graphics/SVG/1.1/DTD/svg11.dtd">
<svg version="1.1" id="Calque_1" xmlns="http://www.w3.org/2000/svg" xmlns:xlink="http://www.w3.org/1999/xlink" x="0px" y="0px"
	 width="95.797px" height="83.713px" viewBox="0 0 95.797 83.713" enable-background="new 0 0 95.797 83.713" xml:space="preserve">
<path fill="#ED1C24" d="M43.6,2.272C44.479,0.877,46.039,0,47.837,0c1.719,0,2.479,0.838,3.398,2.113l43.613,73.182
	c1.518,1.993,1.158,5.142-0.681,6.977c-1.039,1.035-2.237,1.514-3.599,1.434L4.184,83.666c-1-0.16-1.959-0.639-2.718-1.395
	c-1.479-1.516-1.838-3.708-1.08-5.582L43.6,2.272z"/>
<path fill="none" stroke="#ED1C24" stroke-width="0" stroke-miterlimit="3.863" d="M43.6,2.272C44.479,0.877,46.039,0,47.837,0
	c1.719,0,2.479,0.837,3.398,2.113l43.613,73.182c1.518,1.993,1.158,5.142-0.681,6.977c-1.039,1.035-2.237,1.514-3.599,1.434
	L4.184,83.666c-1-0.16-1.959-0.639-2.718-1.395c-1.479-1.516-1.838-3.708-1.08-5.582L43.6,2.272z"/>
<polygon fill-rule="evenodd" clip-rule="evenodd" fill="#FFFFFF" points="14.658,72.903 47.917,15.465 81.177,72.903 "/>
<polygon fill="none" stroke="#ED1C24" stroke-width="0" stroke-miterlimit="3.863" points="14.658,72.903 47.917,15.465 
	81.177,72.903 "/>
<path fill-rule="evenodd" clip-rule="evenodd" fill="#120C0E" d="M30.928,55.005 M64.946,55.005H30.928v-5.141h34.019V55.005z"/>
<path fill="none" stroke="#120C0E" stroke-width="0.2" stroke-miterlimit="3.863" d="M30.928,55.005 M64.946,55.005H30.928v-5.142
	h34.019V55.005z"/>
<polygon fill-rule="evenodd" clip-rule="evenodd" fill="#120C0E" points="39.402,70.711 39.283,40.697 47.917,30.652 56.432,40.856 
	56.392,70.711 47.917,63.855 "/>
<polygon fill="none" stroke="#120C0E" stroke-width="0" stroke-miterlimit="3.863" points="39.402,70.71 39.283,40.697 
	47.917,30.652 56.432,40.856 56.392,70.71 47.917,63.855 "/>
</svg>
