<svg xmlns="http://www.w3.org/2000/svg" viewBox="0 0 141.73 141.73"><defs><style>.cls-1{fill:#3c3d3c;}.cls-2{fill:#fff;}</style></defs><g id="Laag_1" data-name="Laag 1"><circle class="cls-1" cx="70.87" cy="70.87" r="70.87"/></g><g id="Laag_2" data-name="Laag 2"><path class="cls-2" d="M121.59,51.22H96.83v-.36c0-3.27-3.47-7.07-8-7.07s-7.95,3.8-7.95,7.07v.36H23.45A1.48,1.48,0,0,0,22,52.7l2,16.48a1.48,1.48,0,0,0,1.48,1.48H43.73L31,105.86a1.48,1.48,0,1,0,2.78,1l1.72-4.74h74l1.72,4.74a1.51,1.51,0,0,0,1.9.89,1.49,1.49,0,0,0,.83-.77,1.43,1.43,0,0,0,0-1.13l-12.74-35.2h18.36a1.48,1.48,0,0,0,1.48-1.48l2-16.48A1.48,1.48,0,0,0,121.59,51.22Zm-38.17-.36c0-2.07,2.52-4.59,5.46-4.59s5.32,2.41,5.46,4.39v.56H83.42Zm-9.67,3.32h13.9V67.7H73.75ZM93.58,70.66l-21,10.07-.11-.06-20.29-10ZM57.4,54.18H71.29V67.7H57.4ZM38.57,67.7H26.93l-2-13.52H38.57Zm2.47,0V54.18H54.93V67.7Zm5.63,3.54L69.19,82.35l-.46.23L37.08,97.75ZM41,99.17,72.57,84l.11,0,30.59,15.1Zm67.1-.94L76,82.39l.46-.22,22-10.55.09.26Zm-18-30.53V54.18h13.64V67.7Zm28,0H106.72V54.18h13.39Z"/><path class="cls-2" d="M82.4,34.53a6.48,6.48,0,1,0,6.48-6.47A6.49,6.49,0,0,0,82.4,34.53Zm10.47,0a4,4,0,1,1-4-4A4,4,0,0,1,92.87,34.53Z"/></g></svg>