<svg xmlns="http://www.w3.org/2000/svg" viewBox="0 0 141.73 141.73"><defs><style>.cls-1{fill:#3c3d3c;}.cls-2{fill:#fff;}</style></defs><g id="Laag_1" data-name="Laag 1"><circle class="cls-1" cx="70.87" cy="70.87" r="70.87"/></g><g id="Laag_2" data-name="Laag 2"><polygon class="cls-2" points="56.47 39.19 60.24 25.98 64 39.19 67.79 39.19 73.52 19.59 69.89 19.59 65.92 33.17 62.05 19.59 58.42 19.59 54.55 33.17 50.58 19.59 46.95 19.59 52.68 39.19 56.47 39.19"/><path class="cls-2" d="M86.32,39.19a19.54,19.54,0,0,0,4.83-.6V35.34L91,35.28a15.92,15.92,0,0,1-4.23.6,7.15,7.15,0,0,1-5.48-2.07,6.54,6.54,0,0,1-1.68-4.55,6.7,6.7,0,0,1,1.68-4.59,7.26,7.26,0,0,1,5.5-2.06,15.77,15.77,0,0,1,4.21.6l.12-.06V19.9a19,19,0,0,0-4.82-.6c-3.44,0-6,1.06-7.66,2.81a9.84,9.84,0,0,0-2.59,6.82,10.48,10.48,0,0,0,2.58,7.39C80.36,38.13,82.92,39.19,86.32,39.19Z"/><path class="cls-2" d="M66.42,119.31A22.05,22.05,0,0,0,86.1,107.25l.07-.13-1.76-2.76-.18.43A19.36,19.36,0,1,1,59.89,79l.16-.06V76l-.33.11a22.11,22.11,0,0,0,6.7,43.19Z"/><path class="cls-2" d="M90.26,86.8l0,0H79.5V73.35c0-5.17-3.66-9.37-8.15-9.37s-8.14,4.2-8.14,9.37V98.1H85.15l8.21,13.74.06.09,8.61-6.26Zm-3.47,8.66-.07-.12H66v-22c0-3.65,2.42-6.61,5.39-6.61s5.39,3,5.39,6.61V89.51h12L98.33,105l-4.1,3Z"/><path class="cls-2" d="M80.78,54.24a9,9,0,1,0-9,9A9,9,0,0,0,80.78,54.24Zm-15.21,0a6.23,6.23,0,1,1,6.23,6.23A6.24,6.24,0,0,1,65.57,54.24Z"/></g></svg>