<?xml version="1.0" encoding="UTF-8" standalone="no"?>
<svg
   width="211.75177"
   height="142.0576"
   viewBox="0 0 211.75177 142.0576"
   version="1.1"
   id="svg5"
   sodipodi:docname="birdhide.svg"
   inkscape:version="1.1.1 (1:1.1+202109281949+c3084ef5ed)"
   xmlns:inkscape="http://www.inkscape.org/namespaces/inkscape"
   xmlns:sodipodi="http://sodipodi.sourceforge.net/DTD/sodipodi-0.dtd"
   xmlns="http://www.w3.org/2000/svg"
   xmlns:svg="http://www.w3.org/2000/svg">
  <defs
     id="defs9" />
  <sodipodi:namedview
     id="namedview7"
     pagecolor="#505050"
     bordercolor="#eeeeee"
     borderopacity="1"
     inkscape:pageshadow="0"
     inkscape:pageopacity="0"
     inkscape:pagecheckerboard="0"
     showgrid="false"
     inkscape:zoom="4.4833333"
     inkscape:cx="103.27138"
     inkscape:cy="68.141264"
     inkscape:current-layer="svg5" />
  <g
     id="surface1"
     transform="translate(-76.823531,63.500601)">
    <path
       style="fill:#ffffff;fill-opacity:1;fill-rule:nonzero;stroke:none"
       d="m 281.33984,5.308594 -1.26172,-1.886719 -33.65625,-50.402344 c -5.6914,-11.542969 -18.53515,-17.695312 -31.09375,-14.898437 -12.55859,2.800781 -21.57812,13.824218 -21.82812,26.6875 0.0234,1.996094 0.23437,3.984375 0.62891,5.941406 v 3.421875 -4.863281 l -6.30079,4.050781 v 5.402344 h -9.98828 V -27 l -6.30078,-4.050781 V -26.191406 -29.25 c 0.39844,-1.957031 0.60938,-3.945312 0.63281,-5.941406 0.19141,-13.238282 -8.94921,-24.792969 -21.8789,-27.648438 -12.9336,-2.859375 -26.08984,3.769532 -31.49219,15.859375 L 85.5,3.421875 84.238281,5.308594 c -10.625,16.757812 -9.765625,38.34375 2.15625,54.203125 11.921875,15.863281 32.417969,22.6875 51.464839,17.140625 19.05079,-5.550782 32.67969,-22.308594 34.21875,-42.09375 v -2.96875 c 0,0 0,-0.71875 0,-1.078125 0,-0.363281 0,-1.710938 0,-2.523438 v -14.9375 L 180,6.03125 v -9.542969 h 5.39844 V 6.03125 l 7.92187,7.019531 v 14.9375 c 0,0.8125 0,1.621094 0,2.523438 0,0.898437 0,0.71875 0,1.078125 v 2.96875 c 1.54297,19.785156 15.16797,36.542968 34.21875,42.09375 19.05078,5.546875 39.54688,-1.277344 51.46875,-17.140625 11.91797,-15.859375 12.77735,-37.445313 2.15235,-54.203125 z m -157.14062,54 C 112.67969,59.347656 102.27734,52.429688 97.851562,41.796875 93.425781,31.160156 95.855469,18.90625 104,10.761719 112.14453,2.613281 124.39844,0.1875 135.03516,4.613281 c 10.63671,4.425781 17.55078,14.828125 17.51562,26.347657 -0.14844,15.566406 -12.78516,28.121093 -28.35156,28.167968 z m 117,0 c -11.51172,0 -21.88672,-6.9375 -26.28125,-17.574219 -4.39844,-10.640625 -1.94922,-22.878906 6.20312,-31.007813 8.15235,-8.125 20.40235,-10.535156 31.02344,-6.105468 10.625,4.429687 17.53125,14.828125 17.49609,26.339844 -0.14843,15.671874 -12.94921,28.269531 -28.62109,28.167968 z m 0,0"
       id="path2" />
  </g>
</svg>
