<svg xmlns="http://www.w3.org/2000/svg" viewBox="0 0 23 20.28"><defs><style>.cls-1,.cls-3{fill:#fff;}.cls-2{fill:none;stroke-width:1.2px;}.cls-2,.cls-3{stroke:#fff;stroke-miterlimit:10;}.cls-3{stroke-width:0.5px;}</style></defs><g id="Layer_2" data-name="Layer 2"><g id="Layer_1-2" data-name="Layer 1"><path class="cls-1" d="M18.77,10.71h0l-.1-.15-2.54-3.8h0a2.1,2.1,0,0,0-4,.89,2.22,2.22,0,0,0,0,.45h0v.26l0-.37-.48.3V8.7H11V8.29L10.49,8l0,.37V8.1h0a2.22,2.22,0,0,0,0-.45,2.09,2.09,0,0,0-4-.89h0L4,10.56a1.3,1.3,0,0,0-.1.15h0a3.56,3.56,0,0,0-.56,1.91,3.6,3.6,0,0,0,7.18.29v-1.6l.59-.53,0-.72h.41l0,.72.6.53v1.13c0,.06,0,.12,0,.18s0,.06,0,.09v.22l0,0a3.59,3.59,0,1,0,6.62-2.2Zm-11.85,4a2.14,2.14,0,1,1,2.14-2.14A2.14,2.14,0,0,1,6.92,14.76Zm8.81,0a2.14,2.14,0,1,1,2.14-2.14A2.14,2.14,0,0,1,15.73,14.76Z"/><path class="cls-2" d="M21.61,17.74V6.56a.35.35,0,0,0-.19-.3L11.58.67a.53.53,0,0,0-.52,0L1.23,6.26a.35.35,0,0,0-.19.3V17.74"/><path class="cls-3" d="M22.35,20H.65a.4.4,0,0,1,0-.8h21.7a.4.4,0,0,1,0,.8Z"/></g></g></svg>