<?xml version="1.0" encoding="UTF-8" standalone="yes"?>
<svg xmlns="http://www.w3.org/2000/svg" xmlns:xlink="http://www.w3.org/1999/xlink" width="385px" height="11px" viewBox="0 0 385 11" version="1.1">
  <g id="surface1">
    <path style=" stroke:none;fill-rule:nonzero;fill:rgb(100%,100%,100%);fill-opacity:1;" d="M 212.191406 40.371094 L 176.109375 40.371094 L 176.109375 35.96875 L 178.96875 35.96875 C 179.863281 35.839844 180.722656 35.542969 181.5 35.089844 C 182.53125 34.703125 183.386719 33.960938 183.921875 33 C 184.496094 31.960938 184.761719 30.777344 184.691406 29.589844 L 184.691406 -3.410156 C 184.699219 -4.640625 184.398438 -5.851562 183.808594 -6.929688 C 183.175781 -7.824219 182.394531 -8.605469 181.5 -9.238281 C 180.507812 -9.949219 179.4375 -10.539062 178.308594 -11 L 174.460938 -11 L 174.460938 -15.398438 L 202.730469 -16.828125 L 203.5 -16.058594 L 203.5 29.039062 C 203.488281 30.234375 203.792969 31.410156 204.378906 32.449219 C 204.96875 33.367188 205.808594 34.09375 206.800781 34.539062 L 209.328125 35.421875 L 212.191406 35.421875 Z M 203.5 -37.839844 C 203.488281 -34.972656 202.246094 -32.25 200.089844 -30.359375 C 195.601562 -26.277344 188.738281 -26.277344 184.25 -30.359375 C 182.335938 -32.363281 181.34375 -35.074219 181.5 -37.839844 C 181.5 -40.679688 182.746094 -43.371094 184.910156 -45.210938 C 186.984375 -47.359375 189.84375 -48.578125 192.828125 -48.578125 C 195.816406 -48.578125 198.675781 -47.359375 200.75 -45.210938 C 202.667969 -43.253906 203.667969 -40.574219 203.5 -37.839844 Z M 203.5 -37.839844 "/>
    <path style="fill:none;stroke-width:1;stroke-linecap:butt;stroke-linejoin:miter;stroke:rgb(100%,100%,100%);stroke-opacity:1;stroke-miterlimit:10;" d="M 0.5 0.5 L 17.639915 0.5 L 17.639915 13.069957 L 0.5 13.069957 Z M 0.5 0.5 " transform="matrix(11,0,0,11,93.5,-77)"/>
  </g>
</svg>