<svg xmlns="http://www.w3.org/2000/svg" viewBox="-8.5 7 35 1"><defs><style>.cls-1{fill:#fff;}.cls-2{fill:none;stroke:#fff;stroke-miterlimit:10;}</style></defs><g id="Layer_2" data-name="Layer 2"><g id="Layer_8" data-name="Layer 8"><path class="cls-1" d="M10.79,10.67H7.51v-.4l.26,0A.64.64,0,0,0,8,10.19.42.42,0,0,0,8.22,10a.57.57,0,0,0,.07-.31v-3a.66.66,0,0,0-.08-.32A.88.88,0,0,0,8,6.16,1.41,1.41,0,0,0,7.71,6L7.36,6v-.4l2.57-.13.07.07V9.64a.62.62,0,0,0,.08.31.51.51,0,0,0,.22.19l.23.08.26,0ZM10,3.56a.91.91,0,0,1-.31.68,1.07,1.07,0,0,1-1.44,0A.91.91,0,0,1,8,3.56a.88.88,0,0,1,.31-.67,1,1,0,0,1,1.44,0A.88.88,0,0,1,10,3.56Z"/><rect class="cls-2" x="0.5" y="0.5" width="17.14" height="12.57"/><line class="cls-2" x1="0.5" y1="13.07" x2="0.5" y2="18.79"/><line class="cls-2" x1="17.64" y1="13.07" x2="17.64" y2="18.79"/></g></g></svg>