<svg xmlns="http://www.w3.org/2000/svg" viewBox="-6 3 30 1"><defs><style>.cls-1{fill:#fff;}</style></defs><g id="Layer_2" data-name="Layer 2"><g id="Layer_1-2" data-name="Layer 1"><path class="cls-1" d="M2,8.6,0,.14H1.75L3,6,4.57.14h2L8.08,6.05,9.38.14H11.1l-2,8.46H7.23L5.55,2.28,3.87,8.6Z"/><path class="cls-1" d="M17.38,5.49,19,6a3.72,3.72,0,0,1-1.27,2.05,3.61,3.61,0,0,1-2.25.68A3.64,3.64,0,0,1,12.76,7.6a4.39,4.39,0,0,1-1.09-3.15,4.61,4.61,0,0,1,1.09-3.28A3.74,3.74,0,0,1,15.63,0a3.54,3.54,0,0,1,2.52.92A3.45,3.45,0,0,1,19,2.47l-1.7.41a1.76,1.76,0,0,0-.62-1,1.82,1.82,0,0,0-1.16-.38A1.92,1.92,0,0,0,14,2.13a3.32,3.32,0,0,0-.59,2.19A3.54,3.54,0,0,0,14,6.61a1.87,1.87,0,0,0,1.5.68,1.72,1.72,0,0,0,1.17-.44A2.44,2.44,0,0,0,17.38,5.49Z"/></g></g></svg>