<?xml version="1.0" encoding="UTF-8" standalone="no"?>
<svg
   viewBox="-10 8 11.976725 17.589441"
   version="1.1"
   id="svg14"
   sodipodi:docname="trail.svg"
   width="11.976725"
   height="17.589441"
   inkscape:version="1.1.1 (1:1.1+202109281949+c3084ef5ed)"
   xmlns:inkscape="http://www.inkscape.org/namespaces/inkscape"
   xmlns:sodipodi="http://sodipodi.sourceforge.net/DTD/sodipodi-0.dtd"
   xmlns="http://www.w3.org/2000/svg"
   xmlns:svg="http://www.w3.org/2000/svg">
  <sodipodi:namedview
     id="namedview16"
     pagecolor="#505050"
     bordercolor="#eeeeee"
     borderopacity="1"
     inkscape:pageshadow="0"
     inkscape:pageopacity="0"
     inkscape:pagecheckerboard="0"
     showgrid="false"
     inkscape:zoom="53.8"
     inkscape:cx="5"
     inkscape:cy="8.5037175"
     inkscape:current-layer="svg14" />
  <defs
     id="defs4">
    <style
       id="style2">.cls-1{fill:#fff;}</style>
  </defs>
  <g
     id="Layer_2"
     data-name="Layer 2"
     transform="translate(-10.00033,8.0094408)">
    <g
       id="Layer_1-2"
       data-name="Layer 1">
      <path
         class="cls-1"
         d="M 11.49,8 V 8 7.24 H 10.9 V 7.9 L 8.63,7.42 6.92,4.5 A 0.65,0.65 0 0 0 6.65,4.25 2.46,2.46 0 0 0 5.76,3.72 C 4.43,3.27 3.84,5.29 3.84,5.29 A 26.9,26.9 0 0 0 3.06,9.6 L 3,9.94 A 0.36,0.36 0 0 0 3,10 L 2.51,12.84 0.24,16 c -0.2,0.29 -0.48,0.86 0.14,1.16 a 1,1 0 0 0 0.68,0.09 2.5,2.5 0 0 0 0.81,-0.7 L 3.92,14 4,13.92 4.14,13.67 a 1.56,1.56 0 0 0 0.22,-0.59 l 0.23,-1.39 2.2,1.52 1.21,3.7 a 0.92,0.92 0 0 0 1.14,0.62 0.72,0.72 0 0 0 0.2,-0.09 0.9,0.9 0 0 0 0.41,-1.05 L 8.39,12.25 A 0.91,0.91 0 0 0 7.83,11.66 L 6.09,10.52 6.28,9.82 6.81,6.72 7.72,8.26 a 0.57,0.57 0 0 0 0.4,0.29 l 2.78,0.59 v 8.44 h 0.17 L 11.41,9.23 A 0.79,0.79 0 0 0 11.67,9.15 0.66,0.66 0 0 0 11.96,8.75 0.62,0.62 0 0 0 11.49,8 Z"
         id="path6" />
      <path
         class="cls-1"
         d="M 7,3.18 A 1.71,1.71 0 1 0 4.67,2.57 1.7,1.7 0 0 0 7,3.18 Z"
         id="path8" />
      <path
         class="cls-1"
         d="M 2.17,10 A 27.71,27.71 0 0 1 3.56,4 C 3.56,4 3.41,3.37 2.31,3.79 1.21,4.21 0.1,7.77 0.45,9 c 0.35,1.23 1.72,1 1.72,1 z"
         id="path10" />
    </g>
  </g>
</svg>
