<?xml version="1.0" encoding="UTF-8" standalone="yes"?>
<svg xmlns="http://www.w3.org/2000/svg" xmlns:xlink="http://www.w3.org/1999/xlink" width="390px" height="13px" viewBox="0 0 390 13" version="1.1">
  <g id="surface1">
    <path style=" stroke:none;fill-rule:nonzero;fill:rgb(100%,100%,100%);fill-opacity:1;" d="M 279.371094 0 L 279.371094 -9.878906 L 271.699219 -9.878906 L 271.699219 -1.300781 L 242.191406 -7.539062 L 219.960938 -45.5 C 219.128906 -46.898438 217.910156 -48.027344 216.449219 -48.75 C 213.125 -51.84375 209.183594 -54.191406 204.878906 -55.640625 C 187.589844 -61.488281 179.921875 -35.230469 179.921875 -35.230469 C 175.023438 -16.859375 171.632812 1.878906 169.78125 20.800781 L 169 25.21875 C 168.976562 25.480469 168.976562 25.742188 169 26 L 162.628906 62.921875 L 133.121094 104 C 130.519531 107.769531 126.878906 115.179688 134.941406 119.078125 C 137.65625 120.5 140.789062 120.914062 143.78125 120.25 C 147.90625 118.011719 151.5 114.90625 154.308594 111.148438 L 180.960938 78 L 182 76.960938 L 183.820312 73.710938 C 185.285156 71.375 186.257812 68.765625 186.679688 66.039062 L 189.671875 47.96875 L 218.269531 67.730469 L 234 115.828125 C 235.882812 122.136719 242.503906 125.738281 248.820312 123.890625 C 249.742188 123.636719 250.617188 123.242188 251.421875 122.71875 C 256.179688 119.984375 258.394531 114.308594 256.75 109.070312 L 239.070312 55.25 C 237.984375 51.691406 235.289062 48.847656 231.789062 47.578125 L 209.171875 32.761719 L 211.640625 23.660156 L 218.53125 -16.640625 L 230.359375 3.378906 C 231.429688 5.363281 233.34375 6.75 235.558594 7.148438 L 271.699219 14.820312 L 271.699219 124.539062 L 273.910156 124.539062 L 278.328125 15.988281 C 279.507812 15.839844 280.652344 15.488281 281.710938 14.949219 C 283.59375 13.769531 284.945312 11.90625 285.480469 9.75 C 285.984375 7.644531 285.621094 5.425781 284.472656 3.59375 C 283.320312 1.757812 281.484375 0.464844 279.371094 0 Z M 279.371094 0 "/>
    <path style=" stroke:none;fill-rule:nonzero;fill:rgb(100%,100%,100%);fill-opacity:1;" d="M 158.210938 26 C 161.316406 -0.589844 167.378906 -26.753906 176.28125 -52 C 176.28125 -52 174.328125 -60.191406 160.03125 -54.730469 C 145.730469 -49.269531 131.300781 -2.988281 135.851562 13 C 140.398438 28.988281 158.210938 26 158.210938 26 Z M 158.210938 26 "/>
  </g>
</svg>