<?xml version="1.0" encoding="UTF-8" standalone="yes"?>
<svg xmlns="http://www.w3.org/2000/svg" xmlns:xlink="http://www.w3.org/1999/xlink" width="385px" height="11px" viewBox="0 0 385 11" version="1.1">
  <g id="surface1">
    <path style=" stroke:none;fill-rule:nonzero;fill:rgb(100%,100%,100%);fill-opacity:1;" d="M 258.5 -31.128906 C 255.308594 -53.789062 243.539062 -72.050781 218.460938 -71.941406 L 169.730469 -71.941406 C 144.761719 -71.941406 132.878906 -53.789062 129.800781 -31.128906 L 115.5 88 C 115.921875 112.425781 135.84375 132.003906 160.269531 132 L 228.03125 132 C 252.457031 132.003906 272.378906 112.425781 272.800781 88 Z M 218.460938 103.730469 L 169.730469 103.730469 C 151.929688 103.730469 137.5 89.300781 137.5 71.5 L 147.839844 -13.96875 C 150.039062 -30.25 158.839844 -43.449219 176.550781 -43.339844 L 211.640625 -43.339844 C 229.679688 -43.339844 238.148438 -30.25 240.460938 -13.96875 L 250.691406 71.5 C 250.691406 89.300781 236.261719 103.730469 218.460938 103.730469 Z M 218.460938 103.730469 "/>
  </g>
</svg>