<?xml version="1.0" encoding="UTF-8" standalone="yes"?>
<svg xmlns="http://www.w3.org/2000/svg" xmlns:xlink="http://www.w3.org/1999/xlink" width="385px" height="11px" viewBox="0 0 385 11" version="1.1">
  <g id="surface1">
    <path style=" stroke:none;fill-rule:nonzero;fill:rgb(100%,100%,100%);fill-opacity:1;" d="M 212.851562 -3.410156 L 276.980469 -67.429688 L 270.378906 -74.03125 L 263.121094 -81.398438 L 205.039062 -23.210938 C 201.921875 -26.179688 197.796875 -27.867188 193.488281 -27.941406 L 190.851562 -27.941406 L 130.570312 -88 L 123.96875 -81.398438 L 116.601562 -74.140625 L 176 -14.628906 C 175.417969 -13.257812 175.011719 -11.816406 174.789062 -10.339844 L 173.691406 -5.058594 L 110 58.410156 L 116.601562 65.011719 L 123.859375 72.378906 L 166.429688 29.808594 L 149.269531 112.96875 L 136.839844 112.96875 L 136.839844 129.140625 L 253 129.140625 L 253 112.96875 L 240.128906 112.96875 L 224.730469 46.96875 L 256.410156 78.648438 L 263.011719 72.050781 L 270.378906 64.789062 L 216.261719 11 Z M 206.800781 111.761719 L 182.601562 111.761719 L 182.601562 80.191406 C 182.601562 73.566406 187.96875 68.199219 194.589844 68.199219 C 197.808594 68.140625 200.914062 69.378906 203.210938 71.632812 C 205.507812 73.886719 206.800781 76.972656 206.800781 80.191406 Z M 206.800781 111.761719 "/>
  </g>
</svg>