<svg xmlns="http://www.w3.org/2000/svg" viewBox="-10 8 35 1"><defs><style>.cls-1{fill:#fff;}</style></defs><g id="Layer_2" data-name="Layer 2"><g id="Layer_1-2" data-name="Layer 1"><path class="cls-1" d="M9.35,7.69l5.83-5.82-.6-.6L13.92.6,8.64,5.89a1.56,1.56,0,0,0-1.05-.43l-.24,0L1.87,0l-.6.6L.6,1.26,6,6.67a1.6,1.6,0,0,0-.11.39h0l-.1.48L0,13.31l.6.6.66.67,3.87-3.87L3.57,18.27H2.44v1.47H13V18.27H11.83l-1.4-6,2.88,2.88.6-.6.67-.66L9.66,9ZM8.8,18.16H6.6V15.29A1.09,1.09,0,0,1,7.69,14.2h0A1.09,1.09,0,0,1,8.8,15.29Z"/></g></g></svg>