<?xml version="1.0" encoding="UTF-8" standalone="yes"?>
<svg xmlns="http://www.w3.org/2000/svg" xmlns:xlink="http://www.w3.org/1999/xlink" width="385px" height="11px" viewBox="0 0 385 11" version="1.1">
  <g id="surface1">
    <path style=" stroke:none;fill-rule:nonzero;fill:rgb(100%,100%,100%);fill-opacity:1;" d="M 179.300781 -87.121094 C 169.945312 -87.121094 162.359375 -94.703125 162.359375 -104.058594 C 162.359375 -113.414062 169.945312 -121 179.300781 -121 C 188.65625 -121 196.238281 -113.414062 196.238281 -104.058594 C 196.238281 -94.703125 188.65625 -87.121094 179.300781 -87.121094 Z M 239.25 0 L 184.25 0 C 175.339844 0.210938 167.789062 -6.523438 166.980469 -15.398438 L 164.121094 -66.660156 C 163.605469 -75.773438 170.574219 -83.578125 179.683594 -84.09375 C 188.796875 -84.613281 196.605469 -77.644531 197.121094 -68.53125 L 198.21875 -50.820312 L 229.570312 -50.820312 C 233.824219 -50.820312 237.269531 -47.371094 237.269531 -43.121094 C 237.152344 -38.933594 233.757812 -35.585938 229.570312 -35.53125 L 198.769531 -35.53125 L 198.769531 -25.851562 L 241.121094 -25.851562 C 244.507812 -25.71875 247.605469 -23.902344 249.371094 -21.011719 L 280.5 30.800781 C 283.054688 35.40625 281.558594 41.207031 277.089844 44 C 272.398438 46.710938 266.402344 45.199219 263.558594 40.589844 Z M 239.910156 15.289062 L 249.371094 31.128906 C 239.144531 57.003906 213.28125 73.226562 185.535156 71.164062 C 157.789062 69.105469 134.605469 49.246094 128.308594 22.144531 C 122.015625 -4.957031 134.070312 -33.003906 158.070312 -47.078125 L 158.839844 -31.570312 C 141.085938 -17.550781 134.855469 6.585938 143.605469 27.445312 C 152.351562 48.308594 173.929688 60.78125 196.375 57.949219 C 218.816406 55.117188 236.621094 37.671875 239.910156 15.289062 Z M 239.910156 15.289062 "/>
  </g>
</svg>