<?xml version="1.0" encoding="UTF-8" standalone="no"?>
<svg
   version="1.1"
   id="svg4"
   sodipodi:docname="rental.svg"
   width="666.47998"
   height="404.8992"
   inkscape:version="1.1.1 (1:1.1+202109281949+c3084ef5ed)"
   xmlns:inkscape="http://www.inkscape.org/namespaces/inkscape"
   xmlns:sodipodi="http://sodipodi.sourceforge.net/DTD/sodipodi-0.dtd"
   xmlns="http://www.w3.org/2000/svg"
   xmlns:svg="http://www.w3.org/2000/svg">
  <defs
     id="defs8" />
  <sodipodi:namedview
     id="namedview6"
     pagecolor="#505050"
     bordercolor="#eeeeee"
     borderopacity="1"
     inkscape:pageshadow="0"
     inkscape:pageopacity="0"
     inkscape:pagecheckerboard="0"
     showgrid="false"
     inkscape:zoom="0.54825395"
     inkscape:cx="-32.831501"
     inkscape:cy="300.95542"
     inkscape:current-layer="svg4" />
  <path
     path-name="two"
     unicode="2"
     d="M 587.4605,381.989 H 666.48 v 22.9102 H 0 V 381.989 H 79.0098 C 64.7901,348.2693 57.5703,312.5994 57.5703,275.63 57.5703,123.64 181.2303,0 333.2403,0 c 152.01,0 275.66,123.64 275.66,275.63 0,36.9697 -7.21973,72.6396 -21.4395,106.359 z m -400.091,-46.3496 c 0,22.1299 14.9492,40.752 35.2988,46.3516 h 25.5703 c 18.7803,-5.16016 32.9707,-21.4297 35.041,-41.3096 h -48.7803 c -2.2998,0 -4.41992,-1.16992 -5.65039,-3.11035 -1.20996,-1.94043 -1.34961,-4.38086 -0.34961,-6.44043 l 20.1504,-41.7305 c -4.19043,-1.2002 -8.62012,-1.85059 -13.1904,-1.85059 -26.5596,0 -48.0898,21.5303 -48.0898,48.0898 z m 111.909,-22.8984 c -3.49023,-0.01 -6.30957,-2.71973 -6.2998,-6.04004 0.01,-2.94043 2.22949,-5.38086 5.14941,-5.90039 l -18.29,-45.3701 -13.21,27.3701 c 15.7998,9.33984 27.04,25.5703 29.6104,44.5605 h 12.5996 l -5.88965,-14.6104 z m 20.041,-11.7598 c 2.66016,0.70996 4.60938,3.04883 4.59961,5.80859 -0.01,3.33008 -2.84961,6.02051 -6.33008,6.01074 h -0.25977 l 3.79004,9.40039 74.8496,-74.8398 -0.62988,-1.99023 c 0,0 -76.0596,55.7402 -76.0195,55.6104 z m 1.269,54.6289 -6.21094,-14.9209 h -17.79 c -1.34961,16.4697 -9.18945,31.0898 -20.9697,41.3096 h 115.23 c -12.9697,-11.25 -21.1895,-27.8398 -21.1895,-46.3594 0,-25.0303 15.0098,-46.5498 36.5098,-56.0898 l -5.66992,-17.8896 -74.5,74.4902 6.82031,19.46 h 4.59961 c 3.49023,0 6.32031,2.83008 6.32031,6.32031 0,3.49023 -2.83008,6.32031 -6.32031,6.32031 h -18.2998 c -3.49023,0 -6.32031,-2.83008 -6.32031,-6.32031 0,-3.49023 2.83008,-6.32031 6.32031,-6.32031 h 1.46973 z m 89.609,-63.3209 c -16.1396,7.75977 -27.2705,24.249 -27.2705,43.3486 0,22.1299 14.96,40.75 35.3096,46.3496 h 25.5703 c 20.3496,-5.59961 35.2998,-24.2197 35.2998,-46.3496 0,-26.5596 -21.5303,-48.0898 -48.0898,-48.0898 -2.76953,0 -5.48926,0.25 -8.12891,0.70019 v 0 c 7.95996,25.1504 13.4795,44.1006 13.4795,44.1006 1.11035,3.5 -0.83008,7.24023 -4.33984,8.35059 -3.5,1.11035 -7.25,-0.83007 -8.36035,-4.33008 z m -127.381,35.069 c -2.37988,-13.7305 -10.5801,-25.4697 -21.9805,-32.5693 l -0.01,0.0195 -15.7197,32.5498 h 37.71 z m 281.13,54.6308 c 15.4102,-33.3301 23.5127,-69.6934 23.5127,-106.363 0,-140.17 -114.03,-254.229 -254.221,-254.229 -140.191,0 -254.221,114.06 -254.221,254.229 0,36.6699 8.08984,73.0303 23.5,106.36 h 92.7695 c -12.9805,-11.2402 -21.1904,-27.8301 -21.1904,-46.3496 0,-33.8896 27.4697,-61.3594 61.3496,-61.3594 6.65039,0 13.04,1.07031 19.04,3.03027 l 18.6201,-38.5596 -7.86035,-19.5 h -13.1201 c -3.69043,0 -3.73047,-2.98047 -3.73047,-6.65039 0,-3.67969 0.04,-6.66992 3.73047,-6.66992 h 42.7598 c 3.66992,0 6.66016,2.99023 6.66016,6.66992 0,3.66992 -2.98047,6.65039 -6.66016,6.65039 h -15.2803 l 29.2305,72.1504 82.29,-59.3496 -5.2002,-16.4102 c -0.41992,-0.88965 -3.12012,-6.17969 -8.79004,-6.17969 h -15.9902 c -3.67969,0 -3.71973,-2.98047 -3.71973,-6.66016 0,-3.66992 0.04,-6.66016 3.71973,-6.66016 h 15.9902 c 12.04,0 18.9902,9.17969 21.1904,14.5996 0.0596,0.17969 5,15.75 11.3496,35.79 0.0596,0.15039 0.0898,0.31055 0.13965,0.4707 2.83008,8.94043 5.94043,18.7607 9.02051,28.4912 v 0.01 c 3.94043,-0.79004 8.01074,-1.20996 12.1807,-1.20996 33.8896,0 61.3496,27.4697 61.3496,61.3496 0,18.5195 -8.20996,35.1094 -21.1797,46.3496 h 92.7598 z M 399.5605,88.7952 c 0,0 12.0088,12.0117 14.0791,14.082 2.05957,2.07031 2,3.54004 0.19043,5.34961 -1.80957,1.80957 -15.7598,15.8398 -15.7598,15.8398 l -9.11035,-9.34961 -9.5,9.34961 -9.25,-9.74023 -9.69043,9.74023 -9.30957,-9.34961 -12.9297,11.8096 h -14.7998 c -6.40039,13.1797 -19.5703,20.8096 -33.8105,20.8096 -21.2002,0 -38.3906,-17.1904 -38.3906,-38.4004 0,-21.2002 17.1904,-38.3906 38.3906,-38.3906 13.8203,0 25.9404,7.2998 32.7002,18.25 h 77.1904 z m -127.471,30.752 c 5.86035,0 10.6104,-4.75 10.6104,-10.6104 0,-5.84961 -4.75,-10.5996 -10.6104,-10.5996 -5.84961,0 -10.5996,4.75 -10.5996,10.5996 0,5.86035 4.75,10.6104 10.5996,10.6104 z"
     id="path2" />
</svg>
