<svg xmlns="http://www.w3.org/2000/svg" width="159" height="24" fill="none"><path fill="#002834" d="M6.808 16.274a.892.892 0 0 1-.05-.273c0-.15.05-.266.149-.348a.467.467 0 0 1 .237-.086c.216 0 .535.17.958.508 2.104 1.69 4.518 2.932 7.244 3.727a30.092 30.092 0 0 0 8.473 1.193c2.36 0 4.626-.24 6.797-.72 2.179-.473 4.025-1.105 5.541-1.902a7.04 7.04 0 0 1 .497-.249c.132-.05.252-.074.361-.074a.42.42 0 0 1 .323.135.5.5 0 0 1 .138.323c0 .29-.277.679-.834 1.168-1.582 1.367-3.553 2.428-5.913 3.18-2.36.763-4.846 1.144-7.455 1.144a24.68 24.68 0 0 1-5.988-.732 20.167 20.167 0 0 1-5.48-2.236 16.368 16.368 0 0 1-4.412-3.802c-.306-.38-.5-.7-.583-.958l-.003.002Z"/><path fill="#002834" d="M34.378 16.796a.356.356 0 0 1-.038-.163c0-.149.082-.294.248-.436.174-.141.411-.294.71-.458a6.337 6.337 0 0 1 2.993-.746c.539 0 1.072.075 1.603.224.54.149.887.34 1.044.571.132.191.199.493.199.906 0 .281-.033.589-.1.92-.057.34-.141.657-.248.955-.33.977-.906 1.822-1.728 2.535-.455.422-.803.634-1.044.634a.337.337 0 0 1-.248-.112.414.414 0 0 1-.136-.299.79.79 0 0 1 .075-.31c.05-.116.128-.26.237-.435a9.966 9.966 0 0 0 .88-1.74c.25-.613.374-1.093.374-1.44 0-.15-.025-.26-.075-.335-.166-.224-.67-.336-1.516-.336-.713 0-1.44.078-2.186.237-.281.05-.469.074-.56.074-.249 0-.41-.082-.484-.248v.002ZM4.337 3.664c-1.06 0-1.942.237-2.647.709C.994 4.837.539 5.49.323 6.336a.472.472 0 0 0-.025.174c0 .19.1.298.298.323l1.69.298c.216.042.352-.057.411-.298.224-.803.713-1.205 1.466-1.205.472 0 .824.157 1.057.473.231.305.348.774.348 1.404v.26a5.018 5.018 0 0 0-1.032-.087c-.92 0-1.722.149-2.41.447-.68.298-1.207.724-1.58 1.28C.183 9.96 0 10.605 0 11.344c0 .613.124 1.154.373 1.626a2.75 2.75 0 0 0 1.043 1.093c.448.257.966.387 1.552.387.587 0 1.126-.15 1.566-.448.447-.298.784-.72 1.007-1.267h.1l.248 1.168c.042.216.166.323.373.323h1.615a.302.302 0 0 0 .224-.086.322.322 0 0 0 .099-.237v-6.25c0-1.3-.33-2.29-.994-2.969-.654-.678-1.611-1.019-2.869-1.019v-.001Zm1.229 6.15c0 .863-.138 1.524-.411 1.988-.273.455-.667.685-1.18.685-.39 0-.699-.129-.932-.386-.224-.266-.336-.618-.336-1.056 0-.596.195-1.068.583-1.416.397-.355.936-.533 1.615-.533.206 0 .426.02.66.063v.657l.001-.002ZM21.902 4.16c-.447-.33-.976-.496-1.59-.496a2.67 2.67 0 0 0-1.529.46c-.455.306-.866.774-1.229 1.403h-.1c-.24-.596-.582-1.055-1.03-1.378-.44-.323-.965-.485-1.579-.485-.571 0-1.068.152-1.49.46-.415.298-.734.732-.958 1.306h-.1l-.248-1.218a.392.392 0 0 0-.124-.237.302.302 0 0 0-.224-.086h-1.64a.315.315 0 0 0-.235.1.304.304 0 0 0-.088.223v9.69c0 .093.029.171.088.238a.35.35 0 0 0 .235.086h1.988a.302.302 0 0 0 .224-.086.322.322 0 0 0 .1-.237V8.299c0-.72.123-1.271.372-1.652.256-.38.625-.571 1.105-.571.44 0 .774.16 1.007.483.231.323.348.788.348 1.392v5.952c0 .092.028.17.086.237a.351.351 0 0 0 .237.086h1.988a.302.302 0 0 0 .223-.086.322.322 0 0 0 .1-.237V8.299c0-.72.124-1.271.373-1.652.256-.38.625-.571 1.106-.571.44 0 .774.16 1.008.483.23.323.347.788.347 1.392v5.952c0 .092.03.17.086.237a.351.351 0 0 0 .237.086h1.988a.302.302 0 0 0 .224-.086.322.322 0 0 0 .1-.237V7.754c0-.837-.121-1.562-.362-2.175-.24-.614-.589-1.086-1.044-1.417v-.001Zm7.034-.496c-1.06 0-1.942.237-2.645.709-.696.464-1.15 1.118-1.367 1.963a.473.473 0 0 0-.024.174c0 .19.099.298.298.323l1.69.298c.215.042.351-.057.409-.298.223-.803.712-1.205 1.466-1.205.472 0 .823.157 1.055.473.231.305.348.774.348 1.404v.26a5.019 5.019 0 0 0-1.033-.087c-.919 0-1.722.149-2.41.447-.678.298-1.204.724-1.579 1.28-.365.555-.546 1.2-.546 1.939 0 .613.124 1.154.372 1.626a2.76 2.76 0 0 0 1.044 1.093c.447.257.965.387 1.552.387.587 0 1.126-.15 1.566-.448.447-.298.783-.72 1.007-1.267h.1l.248 1.168c.042.216.166.323.372.323h1.615a.303.303 0 0 0 .224-.086.322.322 0 0 0 .1-.237v-6.25c0-1.3-.331-2.29-.994-2.969-.654-.678-1.612-1.019-2.871-1.019l.003-.001Zm1.23 6.15c0 .863-.136 1.524-.411 1.988-.274.455-.668.685-1.18.685-.39 0-.7-.129-.933-.386-.223-.266-.336-.618-.336-1.056 0-.596.195-1.068.583-1.416.398-.355.937-.533 1.615-.533.207 0 .426.02.66.063v.657l.002-.002Zm11.171 2.261a7.514 7.514 0 0 0-1.552-.497 7.966 7.966 0 0 0-1.653-.162c-.241 0-.476.02-.707.063l3.851-5.293a.76.76 0 0 0 .149-.472V4.212a.28.28 0 0 0-.1-.224.28.28 0 0 0-.223-.1h-6.535a.315.315 0 0 0-.235.1.304.304 0 0 0-.088.224v1.441c0 .092.029.17.088.235a.352.352 0 0 0 .235.088h3.976l-4.25 5.952a.765.765 0 0 0-.148.472v1.527c0 .2.087.299.26.299a.439.439 0 0 0 .173-.039 12.515 12.515 0 0 1 1.765-.483c.539-.1 1.085-.15 1.64-.15.554 0 1.08.05 1.552.15.48.092 1.032.252 1.653.483a.512.512 0 0 0 .174.039c.174 0 .26-.1.26-.299V12.5c0-.191-.096-.331-.285-.423v-.002Zm7.59-7.702a3.912 3.912 0 0 0-2.286-.71c-.845 0-1.598.238-2.286.71-.679.464-1.214 1.11-1.602 1.938-.39.82-.585 1.735-.585 2.745 0 1.009.195 1.93.585 2.758.39.82.923 1.466 1.602 1.938a3.993 3.993 0 0 0 2.286.696c.837 0 1.607-.232 2.286-.696.688-.472 1.225-1.118 1.615-1.938.397-.828.596-1.747.596-2.758s-.199-1.927-.596-2.745c-.39-.828-.927-1.474-1.615-1.938Zm-.98 7.118c-.307.564-.742.845-1.306.845-.564 0-.994-.281-1.292-.845-.299-.572-.448-1.384-.448-2.435 0-1.052.15-1.86.447-2.422.299-.572.729-.858 1.293-.858s.997.286 1.305.858c.306.564.459 1.37.459 2.422 0 1.05-.153 1.863-.459 2.435Zm12.406-5.914c-.248-.614-.604-1.086-1.068-1.416-.455-.331-.998-.497-1.627-.497-.588 0-1.1.152-1.54.46-.43.306-.759.742-.983 1.306h-.1l-.248-1.218a.392.392 0 0 0-.124-.237.302.302 0 0 0-.223-.086H52.8a.315.315 0 0 0-.235.1.304.304 0 0 0-.088.223v9.69a.34.34 0 0 0 .088.238.35.35 0 0 0 .235.086h1.987a.303.303 0 0 0 .224-.086.322.322 0 0 0 .1-.237V8.299c0-.72.131-1.271.397-1.652.266-.38.65-.571 1.154-.571.455 0 .807.16 1.056.483.248.323.372.788.372 1.392v5.952c0 .092.029.17.088.237a.35.35 0 0 0 .235.086h1.988a.303.303 0 0 0 .224-.086.322.322 0 0 0 .1-.237V7.754c0-.837-.125-1.562-.373-2.175l.001-.002Z"/><path fill="#009E87" d="M71.981 4.348a3.912 3.912 0 0 0-2.286-.71 3.88 3.88 0 0 0-2.274.71c-.679.472-1.218 1.122-1.615 1.952-.39.82-.583 1.739-.583 2.758 0 1.018.195 1.942.583 2.77.397.82.936 1.465 1.615 1.938a3.892 3.892 0 0 0 2.274.709 3.92 3.92 0 0 0 2.286-.71c.689-.472 1.226-1.118 1.616-1.938.397-.827.596-1.75.596-2.77 0-1.018-.199-1.937-.596-2.757-.39-.828-.927-1.478-1.616-1.952ZM71 11.518c-.298.564-.734.845-1.306.845-.571 0-.993-.281-1.292-.845-.298-.572-.447-1.392-.447-2.46 0-1.069.15-1.885.447-2.447.299-.571.729-.856 1.292-.856.564 0 1.008.285 1.306.856.306.564.459 1.378.459 2.447 0 1.068-.153 1.888-.46 2.46Zm11.273-7.379c-.455-.33-.994-.497-1.615-.497s-1.114.153-1.552.46c-.43.306-.759.75-.982 1.33h-.1l-.248-1.217a.437.437 0 0 0-.111-.237.323.323 0 0 0-.237-.086h-1.64a.351.351 0 0 0-.237.086.322.322 0 0 0-.086.237v9.691c0 .082.032.157.1.224.066.067.14.1.223.1h1.988c.1 0 .178-.03.235-.087a.353.353 0 0 0 .088-.237V8.29c0-.728.132-1.284.397-1.664.266-.38.654-.572 1.168-.572.455 0 .803.16 1.044.484.248.323.373.791.373 1.405v5.963c0 .082.032.157.099.224s.141.1.224.1h1.987c.1 0 .178-.03.235-.087a.353.353 0 0 0 .088-.237V7.744c0-.837-.124-1.562-.372-2.175-.249-.622-.604-1.097-1.069-1.428v-.002Zm9.301.184a3.75 3.75 0 0 0-2.211-.684c-.87 0-1.644.237-2.325.709-.678.472-1.213 1.126-1.603 1.963-.38.828-.572 1.768-.572 2.821 0 1.053.191 1.97.572 2.783.38.813.912 1.442 1.59 1.889.679.447 1.459.67 2.336.67.977 0 1.814-.244 2.51-.733.695-.497 1.2-1.204 1.515-2.124a.652.652 0 0 0 .025-.138c0-.131-.082-.22-.248-.26l-1.84-.41a.334.334 0 0 0-.099-.014c-.141 0-.23.088-.273.26-.206.887-.738 1.33-1.59 1.33-1.002 0-1.579-.802-1.728-2.41a64.635 64.635 0 0 0 5.566-.348c.29-.032.436-.202.436-.508v-.323c0-.962-.182-1.835-.547-2.623-.355-.787-.862-1.403-1.516-1.85h.002Zm-3.94 3.938c.075-.813.26-1.438.559-1.875.306-.44.696-.66 1.168-.66.894 0 1.424.75 1.59 2.248a36.04 36.04 0 0 1-3.316.285v.002Zm22.764-4.122c-.447-.33-.976-.497-1.59-.497-.572 0-1.09.15-1.552.447-.455.298-.87.746-1.242 1.342h-.1c-.231-.564-.568-1.002-1.007-1.317-.44-.315-.962-.472-1.566-.472-.571 0-1.068.153-1.491.46-.422.306-.745.75-.969 1.33h-.099l-.248-1.217c-.043-.216-.157-.323-.348-.323h-1.64a.343.343 0 0 0-.235.086.323.323 0 0 0-.088.237v9.691c0 .082.032.157.099.224s.141.1.224.1h1.988a.32.32 0 0 0 .235-.087.355.355 0 0 0 .088-.237V8.29c0-.728.124-1.284.372-1.664.256-.38.629-.572 1.118-.572.431 0 .763.16.994.484.232.323.348.791.348 1.405v5.963c0 .082.033.157.1.224s.141.1.223.1H106c.1 0 .178-.03.237-.087a.353.353 0 0 0 .086-.237V8.29c0-.728.124-1.284.373-1.664.256-.38.629-.572 1.118-.572.43 0 .763.16.994.484.231.323.348.791.348 1.405v5.963c0 .082.032.157.099.224a.31.31 0 0 0 .224.1h1.988a.32.32 0 0 0 .235-.087.355.355 0 0 0 .088-.237V7.744c0-.837-.121-1.562-.362-2.175-.231-.622-.575-1.097-1.032-1.428l.002-.002Zm9.25.184a3.747 3.747 0 0 0-2.211-.684c-.87 0-1.644.237-2.324.709-.679.472-1.214 1.126-1.604 1.963-.38.828-.571 1.768-.571 2.821 0 1.053.191 1.97.571 2.783.38.813.912 1.442 1.59 1.889.679.447 1.459.67 2.336.67.977 0 1.814-.244 2.51-.733.695-.497 1.2-1.204 1.515-2.124a.606.606 0 0 0 .025-.138c0-.131-.082-.22-.248-.26l-1.839-.41a.333.333 0 0 0-.099-.014c-.142 0-.232.088-.274.26-.206.887-.738 1.33-1.59 1.33-1.002 0-1.579-.802-1.728-2.41a64.92 64.92 0 0 0 5.566-.348c.291-.032.436-.202.436-.508v-.323c0-.962-.182-1.835-.547-2.623-.355-.787-.862-1.403-1.516-1.85h.002Zm-3.937 3.938c.074-.813.26-1.438.558-1.875.306-.44.696-.66 1.168-.66.894 0 1.424.75 1.59 2.248a36.034 36.034 0 0 1-3.316.285v.002ZM131.074.559h-1.988a.32.32 0 0 0-.235.086.325.325 0 0 0-.088.237v4.473h-.099c-.306-.58-.667-1.012-1.082-1.293-.415-.28-.898-.422-1.453-.422-.703 0-1.324.227-1.863.684-.539.448-.958 1.082-1.256 1.902-.291.812-.436 1.757-.436 2.833 0 1.076.145 2.024.436 2.846.298.812.717 1.445 1.256 1.902.539.447 1.16.67 1.863.67.564 0 1.08-.162 1.552-.485.48-.33.832-.766 1.057-1.305h.1l.248 1.217c.05.216.167.323.348.323h1.64a.281.281 0 0 0 .224-.1.308.308 0 0 0 .099-.223V.882a.28.28 0 0 0-.099-.224.281.281 0 0 0-.224-.1Zm-2.722 10.87c-.305.554-.741.833-1.305.833s-.994-.277-1.292-.833c-.298-.554-.447-1.346-.447-2.372 0-1.027.149-1.818.447-2.372.298-.554.728-.833 1.292-.833.564 0 .998.277 1.305.833.306.554.459 1.345.459 2.372 0 1.026-.153 1.818-.459 2.372Zm7.123-7.537h-1.988a.318.318 0 0 0-.235.086.325.325 0 0 0-.088.237v9.69c0 .1.029.178.088.238a.318.318 0 0 0 .235.086h1.988a.318.318 0 0 0 .235-.086.325.325 0 0 0 .088-.237V4.215c0-.216-.107-.323-.323-.323ZM134.482 0c-.44 0-.809.141-1.107.422-.29.274-.434.646-.434 1.119 0 .472.149.837.448 1.118.298.28.663.422 1.093.422.43 0 .795-.141 1.093-.422.298-.281.448-.654.448-1.118 0-.465-.15-.845-.448-1.119-.29-.28-.653-.422-1.093-.422Zm7.051 5.753c.778 0 1.3.608 1.566 1.825.049.207.174.295.372.26l1.801-.323c.099-.017.17-.057.212-.124.05-.067.067-.153.05-.26-.149-.728-.419-1.355-.807-1.877a3.736 3.736 0 0 0-1.403-1.204 3.943 3.943 0 0 0-1.789-.411 3.95 3.95 0 0 0-2.286.709c-.678.472-1.214 1.122-1.604 1.952-.389.827-.583 1.747-.583 2.758 0 1.01.195 1.93.583 2.758.39.827.924 1.477 1.604 1.951a3.95 3.95 0 0 0 2.286.71c.646 0 1.243-.138 1.789-.411a3.79 3.79 0 0 0 1.403-1.193c.39-.53.66-1.16.807-1.889.017-.107 0-.194-.05-.26-.042-.066-.113-.107-.212-.124l-1.801-.323c-.198-.042-.323.046-.372.26-.266 1.218-.788 1.825-1.566 1.825-.571 0-1.005-.28-1.305-.844-.291-.564-.434-1.384-.434-2.46s.145-1.896.434-2.46c.298-.564.734-.845 1.305-.845Zm9.136-2.114c-1.069 0-1.952.237-2.648.709-.695.472-1.154 1.147-1.378 2.026a.659.659 0 0 0-.025.136.31.31 0 0 0 .075.21c.05.05.117.082.199.1l1.739.298c.182.05.316-.05.398-.299.223-.812.713-1.217 1.466-1.217.472 0 .82.153 1.043.46.232.306.348.782.348 1.428v.26a4.934 4.934 0 0 0-1.018-.088c-.92 0-1.723.153-2.411.461-.678.298-1.204.724-1.579 1.28-.372.555-.558 1.201-.558 1.939 0 .613.125 1.16.373 1.64.249.472.596.84 1.044 1.107.455.256.976.386 1.565.386s1.126-.15 1.566-.448c.439-.305.77-.737.993-1.292h.1l.248 1.168c.058.216.174.323.348.323h1.64c.1 0 .178-.029.237-.086a.348.348 0 0 0 .086-.237V7.641c0-1.3-.327-2.29-.98-2.968-.654-.688-1.612-1.032-2.871-1.032v-.002Zm1.217 6.164c0 .887-.137 1.562-.411 2.024-.265.455-.659.685-1.179.685-.39 0-.7-.132-.933-.398-.223-.266-.336-.621-.336-1.068 0-.597.199-1.073.596-1.43.398-.356.937-.533 1.615-.533.232 0 .448.024.646.074v.646h.002Zm6.589-9.244h-1.988a.318.318 0 0 0-.235.086.325.325 0 0 0-.088.237v13.02c0 .1.029.178.088.237a.32.32 0 0 0 .235.086h1.988a.317.317 0 0 0 .235-.086.325.325 0 0 0 .088-.237V.882c0-.216-.107-.323-.323-.323Z"/></svg>