<?xml version="1.0" encoding="UTF-8" standalone="no"?>
<!-- Created with Inkscape (http://www.inkscape.org/) -->

<svg
   xmlns:dc="http://purl.org/dc/elements/1.1/"
   xmlns:cc="http://creativecommons.org/ns#"
   xmlns:rdf="http://www.w3.org/1999/02/22-rdf-syntax-ns#"
   xmlns:svg="http://www.w3.org/2000/svg"
   xmlns="http://www.w3.org/2000/svg"
   xmlns:sodipodi="http://sodipodi.sourceforge.net/DTD/sodipodi-0.dtd"
   xmlns:inkscape="http://www.inkscape.org/namespaces/inkscape"
   id="svg2"
   version="1.1"
   inkscape:version="0.91 r13725"
   xml:space="preserve"
   width="260.78687"
   height="63.436001"
   viewBox="0 0 260.78687 63.436001"
   sodipodi:docname="BancoNacionalUltramarino logo.svg"><metadata
     id="metadata8"><rdf:RDF><cc:Work
         rdf:about=""><dc:format>image/svg+xml</dc:format><dc:type
           rdf:resource="http://purl.org/dc/dcmitype/StillImage" /><dc:title></dc:title></cc:Work></rdf:RDF></metadata><defs
     id="defs6"><clipPath
       clipPathUnits="userSpaceOnUse"
       id="clipPath28"><path
         d="m 256.982,21.335 222.072,0 0,70.43 -222.072,0 0,-70.43 z"
         id="path30"
         inkscape:connector-curvature="0" /></clipPath><clipPath
       clipPathUnits="userSpaceOnUse"
       id="clipPath78"><path
         d="m 257.44,21.624 221.159,0 0,70.14 -221.159,0 0,-70.14 z"
         id="path80"
         inkscape:connector-curvature="0" /></clipPath><clipPath
       clipPathUnits="userSpaceOnUse"
       id="clipPath94"><path
         d="m 256.982,21.335 222.072,0 0,70.43 -222.072,0 0,-70.43 z"
         id="path96"
         inkscape:connector-curvature="0" /></clipPath><radialGradient
       fx="0"
       fy="0"
       cx="0"
       cy="0"
       r="1"
       gradientUnits="userSpaceOnUse"
       gradientTransform="matrix(63.438653,0,0,-63.438653,438.35307,81.091006)"
       spreadMethod="pad"
       id="radialGradient136"><stop
         style="stop-opacity:1;stop-color:#64caf1"
         offset="0"
         id="stop138" /><stop
         style="stop-opacity:1;stop-color:#55c1ea"
         offset="0.1"
         id="stop140" /><stop
         style="stop-opacity:1;stop-color:#064c79"
         offset="0.50532972"
         id="stop142" /><stop
         style="stop-opacity:1;stop-color:#064c79"
         offset="0.65"
         id="stop144" /><stop
         style="stop-opacity:1;stop-color:#064c79"
         offset="1"
         id="stop146" /></radialGradient><clipPath
       clipPathUnits="userSpaceOnUse"
       id="clipPath154"><path
         d="m 256.982,21.335 222.072,0 0,70.43 -222.072,0 0,-70.43 z"
         id="path156"
         inkscape:connector-curvature="0" /></clipPath><clipPath
       clipPathUnits="userSpaceOnUse"
       id="clipPath298"><path
         d="m 0,0 504.567,0 0,720 L 0,720 0,0 Z"
         id="path300"
         inkscape:connector-curvature="0" /></clipPath><clipPath
       clipPathUnits="userSpaceOnUse"
       id="clipPath306"><path
         d="m 25.0118,612.15 454.5432,0 0,-503.166 -454.5432,0 0,503.166 z"
         id="path308"
         inkscape:connector-curvature="0" /></clipPath><clipPath
       clipPathUnits="userSpaceOnUse"
       id="clipPath310"><path
         d="m 26.012,109.984 452.543,0 0,501.165 -452.543,0 0,-501.165 z"
         id="path312"
         inkscape:connector-curvature="0" /></clipPath><clipPath
       clipPathUnits="userSpaceOnUse"
       id="clipPath360"><path
         d="m 0,0 504.567,0 0,720 L 0,720 0,0 Z"
         id="path362"
         inkscape:connector-curvature="0" /></clipPath><clipPath
       clipPathUnits="userSpaceOnUse"
       id="clipPath380"><path
         d="m 0,0 504.567,0 0,720 L 0,720 0,0 Z"
         id="path382"
         inkscape:connector-curvature="0" /></clipPath><clipPath
       clipPathUnits="userSpaceOnUse"
       id="clipPath436"><path
         d="m 0,0 504.567,0 0,720 L 0,720 0,0 Z"
         id="path438"
         inkscape:connector-curvature="0" /></clipPath><clipPath
       clipPathUnits="userSpaceOnUse"
       id="clipPath456"><path
         d="m 0,0 504.567,0 0,720 L 0,720 0,0 Z"
         id="path458"
         inkscape:connector-curvature="0" /></clipPath><clipPath
       clipPathUnits="userSpaceOnUse"
       id="clipPath480"><path
         d="m 0,0 504.567,0 0,720 L 0,720 0,0 Z"
         id="path482"
         inkscape:connector-curvature="0" /></clipPath><clipPath
       clipPathUnits="userSpaceOnUse"
       id="clipPath496"><path
         d="m 0,0 504.567,0 0,720 L 0,720 0,0 Z"
         id="path498"
         inkscape:connector-curvature="0" /></clipPath><clipPath
       clipPathUnits="userSpaceOnUse"
       id="clipPath532"><path
         d="m 0,0 504.567,0 0,720 L 0,720 0,0 Z"
         id="path534"
         inkscape:connector-curvature="0" /></clipPath></defs><sodipodi:namedview
     pagecolor="#ffffff"
     bordercolor="#666666"
     borderopacity="1"
     objecttolerance="10"
     gridtolerance="10"
     guidetolerance="10"
     inkscape:pageopacity="0"
     inkscape:pageshadow="2"
     inkscape:window-width="1920"
     inkscape:window-height="1018"
     id="namedview4"
     showgrid="false"
     fit-margin-top="0"
     fit-margin-left="0"
     fit-margin-right="0"
     fit-margin-bottom="0"
     inkscape:zoom="1.0488889"
     inkscape:cx="65.941688"
     inkscape:cy="-2.6794948"
     inkscape:window-x="-8"
     inkscape:window-y="-8"
     inkscape:window-maximized="1"
     inkscape:current-layer="g10" /><g
     id="g10"
     inkscape:groupmode="layer"
     inkscape:label="AMEX_Selects_2015"
     transform="matrix(1.25,0,0,-1.25,0,114.1265)"><g
       id="g3882"><g
         id="g356"><g
           clip-path="url(#clipPath360)"
           id="g358"><g
             transform="translate(-12.7559,64.5136)"
             id="g364"><path
               inkscape:connector-curvature="0"
               id="path366"
               style="fill:#ed1c24;fill-opacity:1;fill-rule:nonzero;stroke:none"
               d="m 0,0 212.724,0 c -1.614,-1.068 -3.702,-1.636 -6.486,-1.636 L 0,-1.636 0,0 Z" /></g><g
             transform="translate(138.1411,83.4902)"
             id="g368"><path
               inkscape:connector-curvature="0"
               id="path370"
               style="fill:#0f1f47;fill-opacity:1;fill-rule:nonzero;stroke:none"
               d="m 0,0 c -0.014,-1.996 -1.771,-3.683 -5.023,-3.683 l -3.102,0 1.406,6.546 2.528,0 C -1.274,2.863 0.017,1.848 0,0 m -1.811,-11.638 c -0.02,-2.357 -2.121,-4.123 -5.809,-4.123 l -3.14,0 1.547,7.106 3.271,0 c 3.5,0 4.144,-1.273 4.131,-2.983 m 7.654,-0.358 c 0,2.968 -1.939,5.463 -5.297,5.895 l 0,0.084 c 4.482,0.935 7.171,3.425 7.171,7.234 0,3.647 -2.615,6.594 -7.162,6.594 l -13.526,0 -5.469,-25.147 22.109,0 c 1.285,1.378 2.174,3.147 2.174,5.34" /></g></g></g><g
         transform="translate(157.1369,83.7612)"
         id="g372"><path
           inkscape:connector-curvature="0"
           id="path374"
           style="fill:#0f1f47;fill-opacity:1;fill-rule:nonzero;stroke:none"
           d="m 0,0 0.084,0 4.831,-17.607 11.477,0 5.453,25.079 -7.227,0 -4.294,-21.469 -0.084,0 -5.915,21.469 -9.727,0 -5.451,-25.079 7.254,0 L 0,0 Z" /></g><g
         id="g376"><g
           clip-path="url(#clipPath380)"
           id="g378"><g
             transform="translate(191.4605,67.4838)"
             id="g384"><path
               inkscape:connector-curvature="0"
               id="path386"
               style="fill:#0f1f47;fill-opacity:1;fill-rule:nonzero;stroke:none"
               d="M 0,0 C 2.645,0 4.867,1.748 5.733,5.777 6.602,9.8 9.638,23.749 9.638,23.749 l 7.531,0 c 0,0 -3.527,-16.203 -3.884,-17.862 C 12.924,4.2 12.534,1.641 10.178,-1.329 l -20.018,0 c -2.396,3.532 -1.905,7.073 -1.261,10.033 0.545,2.492 3.272,15.045 3.272,15.045 l 7.67,0 c 0,0 -3.239,-14.925 -3.697,-17.044 C -4.218,5.036 -4.611,0 0,0" /></g><g
             transform="translate(119.8252,47.5589)"
             id="g388"><path
               inkscape:connector-curvature="0"
               id="path390"
               style="fill:#0f1f47;fill-opacity:1;fill-rule:nonzero;stroke:none"
               d="M 0,0 0.991,-0.066 C 1.15,-0.074 1.222,-0.115 1.214,-0.181 1.199,-0.25 1.117,-0.322 0.939,-0.389 L 0.629,-1.82 C 0.615,-1.892 0.588,-1.95 0.548,-2.007 l 3.856,0 -0.144,-0.659 -3.473,0 C 0.864,-3.51 1.104,-4.164 1.518,-4.622 1.956,-5.199 2.704,-5.687 3.783,-6.107 L 2.794,-6.861 c -0.905,0.43 -1.611,1.023 -2.145,1.772 -0.305,0.437 -0.536,0.951 -0.7,1.541 -0.114,-0.253 -0.256,-0.491 -0.436,-0.713 -0.415,-0.537 -1.095,-1.058 -2.036,-1.577 -0.667,-0.384 -1.436,-0.731 -2.321,-1.053 l -0.699,0.577 c 0.893,0.297 1.595,0.581 2.138,0.857 0.839,0.414 1.45,0.835 1.846,1.26 0.383,0.417 0.634,0.928 0.774,1.531 l -3.573,0 0.143,0.659 3.765,0 c 0.039,0.049 0.063,0.11 0.092,0.187 l 0.271,1.258 C -0.054,-0.412 -0.022,-0.227 0,0" /></g><g
             transform="translate(143.2598,47.0758)"
             id="g392"><path
               inkscape:connector-curvature="0"
               id="path394"
               style="fill:#0f1f47;fill-opacity:1;fill-rule:nonzero;stroke:none"
               d="m 0,0 -0.144,-0.657 -3.187,0 -0.208,-0.979 2.785,0 -0.989,-4.557 -0.905,0 0.123,0.57 -6.365,0 -0.12,-0.57 -0.905,0 0.989,4.557 2.6,0 0.213,0.979 -3.03,0 L -9.003,0 0,0 Z m -8.742,-4.967 6.36,0 0.25,1.151 c -0.06,-0.138 -0.138,-0.225 -0.239,-0.269 -0.234,-0.104 -0.518,-0.158 -0.868,-0.158 l -0.706,0 c -0.702,0 -1.018,0.181 -0.944,0.562 l 0.299,1.383 -1.177,0 c -0.074,-0.337 -0.221,-0.644 -0.455,-0.928 -0.25,-0.324 -0.723,-0.728 -1.436,-1.232 l -0.795,0.327 c 0.657,0.407 1.116,0.77 1.398,1.082 0.205,0.255 0.327,0.498 0.394,0.751 l -1.501,0 -0.58,-2.669 z m 5.059,2.669 -0.221,-1.02 c -0.044,-0.202 0.062,-0.301 0.328,-0.301 l 0.202,0 c 0.169,0 0.305,0.017 0.406,0.063 0.086,0.031 0.179,0.146 0.307,0.353 l 0.631,-0.146 0.229,1.051 -1.882,0 z m -0.762,0.662 0.215,0.979 -1.016,0 -0.219,-0.979 1.02,0 z" /></g><g
             transform="translate(157.344,47.5333)"
             id="g396"><path
               inkscape:connector-curvature="0"
               id="path398"
               style="fill:#0f1f47;fill-opacity:1;fill-rule:nonzero;stroke:none"
               d="m 0,0 c 0.34,-0.376 0.621,-0.746 0.863,-1.114 l -0.449,-0.179 1.378,0 L 2.988,0 3.737,-0.125 C 3.875,-0.138 3.936,-0.179 3.926,-0.24 3.911,-0.299 3.814,-0.371 3.635,-0.458 l -0.818,-0.835 1.314,0 -0.138,-0.627 -2.406,0 -0.23,-1.048 2.165,0 -0.134,-0.6 -2.164,0 -0.241,-1.133 2.634,0 -0.138,-0.631 -2.636,0 -0.334,-1.534 -0.895,0 0.335,1.534 -2.719,0 0.135,0.631 2.719,0 0.246,1.133 -2.124,0 0.131,0.6 2.124,0 0.229,1.048 -2.52,0 0.138,0.627 1.633,0 c -0.234,0.322 -0.492,0.654 -0.792,0.994 L 0,0 Z m -3.356,-0.24 c 0.53,-0.258 0.965,-0.537 1.321,-0.841 l -0.708,-0.511 c -0.404,0.316 -0.864,0.6 -1.381,0.871 l 0.768,0.481 z m -0.936,-1.769 c 0.605,-0.233 1.092,-0.478 1.485,-0.746 l -0.691,-0.512 c -0.461,0.281 -0.98,0.542 -1.562,0.78 l 0.768,0.478 z m 0.956,-1.95 0.443,-0.504 c -0.645,-0.746 -1.322,-1.444 -2.028,-2.096 -0.04,-0.184 -0.118,-0.276 -0.26,-0.276 l -0.683,0.486 c 0.891,0.703 1.731,1.5 2.528,2.39" /></g><g
             transform="translate(173.6291,47.5947)"
             id="g400"><path
               inkscape:connector-curvature="0"
               id="path402"
               style="fill:#0f1f47;fill-opacity:1;fill-rule:nonzero;stroke:none"
               d="M 0,0 0.644,-0.268 C 0.721,-0.294 0.755,-0.325 0.746,-0.36 0.734,-0.424 0.653,-0.47 0.503,-0.509 0.831,-0.956 1.296,-1.36 1.897,-1.743 L 1.181,-2.155 c -0.511,0.419 -0.902,0.836 -1.179,1.24 -0.332,-0.276 -0.656,-0.522 -0.996,-0.744 -0.188,-0.123 -0.362,-0.235 -0.55,-0.353 l 2.518,0 -0.128,-0.595 -0.976,0 -0.184,-0.839 1.325,0 -0.129,-0.605 -1.327,0 -0.432,-1.964 c 0.447,0.016 0.89,0.046 1.322,0.108 L 0.332,-6.444 c -0.721,-0.107 -1.845,-0.245 -3.405,-0.422 -0.078,-0.076 -0.145,-0.115 -0.217,-0.115 -0.059,0 -0.084,0.031 -0.088,0.102 l -0.063,0.645 c 0.581,0.028 1.156,0.076 1.727,0.14 l 0.438,2.043 -1.577,0 0.131,0.605 1.579,0 0.184,0.839 -0.947,0 0.099,0.442 c -0.187,-0.118 -0.409,-0.238 -0.68,-0.383 l -0.487,0.442 c 0.635,0.324 1.18,0.649 1.635,0.984 C -0.916,-0.831 -0.473,-0.46 0,0 m -2.331,-4.56 c 0.184,-0.373 0.335,-0.739 0.465,-1.102 l -0.731,-0.307 c -0.138,0.374 -0.297,0.749 -0.497,1.146 l 0.763,0.263 z m 2.645,0.036 0.553,-0.238 C 0.951,-4.795 0.987,-4.823 0.987,-4.859 0.976,-4.91 0.914,-4.954 0.794,-5.01 l -0.752,-0.772 -0.587,0.235 0.859,1.023 z m 1.997,4.128 0.828,0 3.111,0 -0.708,-3.234 -1.376,0 c -0.009,-0.352 0.017,-0.651 0.082,-0.912 0.408,0.207 0.775,0.422 1.115,0.641 l 0.478,-0.434 c 0.025,-0.028 0.025,-0.062 0.03,-0.1 C 5.859,-4.494 5.76,-4.524 5.579,-4.524 5.165,-4.724 4.785,-4.903 4.417,-5.064 4.414,-5.071 4.419,-5.092 4.45,-5.133 4.639,-5.56 5.018,-5.999 5.595,-6.444 L 4.619,-6.95 c -0.312,0.371 -0.561,0.705 -0.754,1.02 -0.192,0.37 -0.325,0.731 -0.396,1.086 -0.082,0.281 -0.115,0.68 -0.11,1.214 l -0.926,0 -0.506,-2.316 c 0.578,0.059 1.145,0.164 1.721,0.305 L 3.522,-6.206 C 2.965,-6.367 2.082,-6.579 0.863,-6.866 0.782,-6.942 0.716,-6.981 0.636,-6.981 c -0.058,0 -0.084,0.031 -0.076,0.108 l -0.065,0.667 c 0.18,0.015 0.369,0.048 0.573,0.107 l 0.541,2.469 0.127,0.601 0.447,2.035 0.128,0.598 z m 0.698,-0.598 -0.16,-0.716 2.284,0 0.161,0.716 -2.285,0 z m -0.283,-1.289 -0.16,-0.746 2.28,0 0.161,0.746 -2.281,0 z" /></g><g
             transform="translate(192.4215,47.4694)"
             id="g404"><path
               inkscape:connector-curvature="0"
               id="path406"
               style="fill:#0f1f47;fill-opacity:1;fill-rule:nonzero;stroke:none"
               d="M 0,0 0.777,-0.233 C 0.872,-0.253 0.915,-0.284 0.915,-0.33 0.913,-0.345 0.861,-0.373 0.772,-0.424 0.672,-0.435 0.442,-0.565 0.073,-0.818 -0.495,-1.206 -1.166,-1.562 -1.948,-1.917 l -0.778,0.388 C -1.651,-1.112 -0.746,-0.606 0,0 M 0,-1.431 0.772,-1.672 C 0.872,-1.687 0.915,-1.718 0.915,-1.764 0.91,-1.787 0.861,-1.817 0.772,-1.856 0.647,-1.879 0.36,-2.093 -0.112,-2.5 -0.243,-2.615 -0.368,-2.717 -0.492,-2.814 l -0.892,-4.103 -0.945,0 0.716,3.298 c -0.33,-0.218 -0.685,-0.43 -1.089,-0.66 l -0.782,0.383 c 1.355,0.673 2.51,1.498 3.484,2.465 m 1.866,0.986 4.285,0 -0.14,-0.659 -4.287,0 0.142,0.659 z m -1.27,-2.037 5.549,0 -0.136,-0.634 -1.571,0 C 4.435,-3.121 4.423,-3.129 4.389,-3.147 L 3.797,-5.869 C 3.724,-6.211 3.535,-6.464 3.228,-6.638 2.97,-6.802 2.38,-6.879 1.449,-6.886 l -0.222,0.777 0.987,0 c 0.34,0 0.552,0.128 0.626,0.388 l 0.573,2.605 -2.953,0 0.136,0.634 z" /></g><g
             transform="translate(91.1967,57.9623)"
             id="g408"><path
               inkscape:connector-curvature="0"
               id="path410"
               style="fill:#0f1f47;fill-opacity:1;fill-rule:nonzero;stroke:none"
               d="m 0,0 1.228,0 c 1.097,0 2.23,-0.184 2.23,-1.503 0,-0.976 -0.773,-1.662 -1.664,-1.751 l 0,-0.018 c 0.775,-0.107 1.184,-0.606 1.184,-1.395 0,-1.309 -1.163,-2.153 -2.729,-2.153 l -1.719,0 L 0,0 Z m -0.675,-6.232 0.859,0 c 1.173,0 2.119,0.491 2.119,1.565 0,0.759 -0.537,1.104 -1.229,1.104 l -1.163,0 -0.586,-2.669 z m 0.704,3.252 0.868,0 c 0.88,0.01 1.887,0.383 1.887,1.449 0,0.869 -0.676,0.943 -1.542,0.943 l -0.696,0 -0.517,-2.392 z" /></g><g
             transform="translate(98.6069,52.326)"
             id="g412"><path
               inkscape:connector-curvature="0"
               id="path414"
               style="fill:#0f1f47;fill-opacity:1;fill-rule:nonzero;stroke:none"
               d="m 0,0 c -0.096,-0.383 -0.164,-0.841 -0.181,-1.184 l -0.616,0 c 0.025,0.266 0.046,0.522 0.097,0.737 l -0.023,0 c -0.416,-0.629 -0.964,-0.852 -1.7,-0.852 -0.77,0 -1.425,0.578 -1.425,1.396 0,1.457 1.642,1.761 2.863,1.761 0.25,0 0.479,-0.02 0.674,-0.038 0.02,0.143 0.03,0.291 0.03,0.493 0,0.685 -0.381,1.079 -1.066,1.079 -0.573,0 -1.141,-0.263 -1.472,-0.432 l 0.065,0.624 c 0.351,0.148 0.92,0.335 1.507,0.335 1.073,0 1.638,-0.588 1.638,-1.624 0,-0.191 -0.038,-0.557 -0.126,-0.948 L 0,0 Z m -2.206,-0.772 c 1.152,0 1.682,1.035 1.818,2.081 -0.205,0 -0.399,0.02 -0.609,0.02 -0.828,0 -2.175,-0.125 -2.175,-1.224 0,-0.563 0.468,-0.877 0.966,-0.877" /></g><g
             transform="translate(100.4627,55.3346)"
             id="g416"><path
               inkscape:connector-curvature="0"
               id="path418"
               style="fill:#0f1f47;fill-opacity:1;fill-rule:nonzero;stroke:none"
               d="m 0,0 c 0.059,0.335 0.1,0.547 0.119,0.792 l 0.615,0 C 0.703,0.478 0.675,0.215 0.628,0.038 l 0.019,0 c 0.34,0.529 0.967,0.872 1.581,0.872 0.901,0 1.564,-0.511 1.564,-1.447 0,-0.34 -0.078,-0.713 -0.15,-1.027 l -0.554,-2.628 -0.644,0 0.567,2.748 c 0.067,0.322 0.109,0.539 0.109,0.869 0,0.588 -0.331,0.958 -0.961,0.958 -1.073,0 -1.65,-1.065 -1.883,-2.213 l -0.489,-2.362 -0.648,0 L 0,0 Z" /></g><g
             transform="translate(109.0487,55.4879)"
             id="g420"><path
               inkscape:connector-curvature="0"
               id="path422"
               style="fill:#0f1f47;fill-opacity:1;fill-rule:nonzero;stroke:none"
               d="m 0,0 c -0.187,0.1 -0.762,0.23 -1.153,0.23 -1.413,0 -2.175,-1.038 -2.175,-2.364 0,-1.028 0.68,-1.8 1.61,-1.8 0.37,0 0.742,0.128 1.056,0.233 L -0.744,-4.315 C -0.976,-4.394 -1.37,-4.46 -1.876,-4.46 c -1.437,0 -2.127,1.201 -2.127,2.275 0,1.756 0.994,2.942 2.919,2.942 0.412,0 1.007,-0.098 1.263,-0.195 L 0,0 Z" /></g><g
             transform="translate(111.9218,56.2446)"
             id="g424"><path
               inkscape:connector-curvature="0"
               id="path426"
               style="fill:#0f1f47;fill-opacity:1;fill-rule:nonzero;stroke:none"
               d="m 0,0 c 1.265,0 1.978,-0.849 1.978,-2.142 0,-1.664 -1.045,-3.075 -2.763,-3.075 -1.228,0 -1.994,0.923 -1.994,2.17 C -2.779,-1.378 -1.692,0 0,0 m -0.703,-4.69 c 1.286,0 2.012,1.364 2.012,2.538 0,0.938 -0.422,1.625 -1.388,1.625 -1.381,0 -2.025,-1.349 -2.025,-2.62 0,-0.861 0.529,-1.543 1.401,-1.543" /></g></g></g><g
         transform="translate(117.9158,57.9623)"
         id="g428"><path
           inkscape:connector-curvature="0"
           id="path430"
           style="fill:#0f1f47;fill-opacity:1;fill-rule:nonzero;stroke:none"
           d="m 0,0 0.8,0 2.275,-5.997 0.019,0 L 4.366,0 4.982,0 3.535,-6.82 l -0.8,0 -2.277,5.999 -0.02,0 -1.292,-5.999 -0.622,0 L 0,0 Z" /></g><g
         id="g432"><g
           clip-path="url(#clipPath436)"
           id="g434"><g
             transform="translate(126.5453,52.326)"
             id="g440"><path
               inkscape:connector-curvature="0"
               id="path442"
               style="fill:#0f1f47;fill-opacity:1;fill-rule:nonzero;stroke:none"
               d="m 0,0 c -0.1,-0.383 -0.169,-0.841 -0.185,-1.184 l -0.618,0 c 0.028,0.266 0.05,0.522 0.1,0.737 l -0.023,0 c -0.419,-0.629 -0.964,-0.852 -1.697,-0.852 -0.775,0 -1.427,0.578 -1.427,1.396 0,1.457 1.642,1.761 2.863,1.761 0.251,0 0.477,-0.02 0.675,-0.038 0.015,0.143 0.028,0.291 0.028,0.493 0,0.685 -0.381,1.079 -1.066,1.079 -0.572,0 -1.142,-0.263 -1.475,-0.432 l 0.069,0.624 c 0.351,0.148 0.918,0.335 1.505,0.335 1.072,0 1.642,-0.588 1.642,-1.624 0,-0.191 -0.041,-0.557 -0.13,-0.948 L 0,0 Z m -2.208,-0.772 c 1.152,0 1.681,1.035 1.816,2.081 -0.206,0 -0.402,0.02 -0.607,0.02 -0.831,0 -2.176,-0.125 -2.176,-1.224 0,-0.563 0.469,-0.877 0.967,-0.877" /></g><g
             transform="translate(131.6856,55.4879)"
             id="g444"><path
               inkscape:connector-curvature="0"
               id="path446"
               style="fill:#0f1f47;fill-opacity:1;fill-rule:nonzero;stroke:none"
               d="m 0,0 c -0.187,0.1 -0.76,0.23 -1.153,0.23 -1.416,0 -2.178,-1.038 -2.178,-2.364 0,-1.028 0.685,-1.8 1.613,-1.8 0.372,0 0.742,0.128 1.057,0.233 L -0.74,-4.315 c -0.236,-0.079 -0.625,-0.145 -1.136,-0.145 -1.434,0 -2.127,1.201 -2.127,2.275 0,1.756 0.995,2.942 2.921,2.942 0.411,0 1.005,-0.098 1.26,-0.195 L 0,0 Z" /></g></g></g><g
         transform="translate(132.7656,56.127)"
         id="g448"><path
           inkscape:connector-curvature="0"
           id="path450"
           style="fill:#0f1f47;fill-opacity:1;fill-rule:nonzero;stroke:none"
           d="m 0,0 0.645,0 -1.055,-4.984 -0.644,0 L 0,0 Z m 0.968,1.329 -0.732,0 0.172,0.818 0.735,0 -0.175,-0.818 z" /></g><g
         id="g452"><g
           clip-path="url(#clipPath456)"
           id="g454"><g
             transform="translate(136.4222,56.2446)"
             id="g460"><path
               inkscape:connector-curvature="0"
               id="path462"
               style="fill:#0f1f47;fill-opacity:1;fill-rule:nonzero;stroke:none"
               d="m 0,0 c 1.27,0 1.984,-0.849 1.984,-2.142 0,-1.664 -1.046,-3.075 -2.762,-3.075 -1.236,0 -1.993,0.923 -1.993,2.17 C -2.771,-1.378 -1.691,0 0,0 m -0.702,-4.69 c 1.289,0 2.013,1.364 2.013,2.538 0,0.938 -0.42,1.625 -1.39,1.625 -1.376,0 -2.02,-1.349 -2.02,-2.62 0,-0.861 0.527,-1.543 1.397,-1.543" /></g><g
             transform="translate(139.4256,55.3346)"
             id="g464"><path
               inkscape:connector-curvature="0"
               id="path466"
               style="fill:#0f1f47;fill-opacity:1;fill-rule:nonzero;stroke:none"
               d="m 0,0 c 0.06,0.335 0.096,0.547 0.119,0.792 l 0.615,0 C 0.702,0.478 0.673,0.215 0.624,0.038 l 0.021,0 c 0.34,0.529 0.968,0.872 1.581,0.872 0.9,0 1.563,-0.511 1.563,-1.447 0,-0.34 -0.079,-0.713 -0.144,-1.027 l -0.562,-2.628 -0.644,0 0.569,2.748 c 0.07,0.322 0.108,0.539 0.108,0.869 0,0.588 -0.331,0.958 -0.959,0.958 -1.076,0 -1.653,-1.065 -1.883,-2.213 l -0.487,-2.362 -0.647,0 L 0,0 Z" /></g><g
             transform="translate(147.5885,52.326)"
             id="g468"><path
               inkscape:connector-curvature="0"
               id="path470"
               style="fill:#0f1f47;fill-opacity:1;fill-rule:nonzero;stroke:none"
               d="m 0,0 c -0.101,-0.383 -0.173,-0.841 -0.188,-1.184 l -0.616,0 c 0.029,0.266 0.05,0.522 0.1,0.737 l -0.019,0 c -0.423,-0.629 -0.969,-0.852 -1.699,-0.852 -0.774,0 -1.426,0.578 -1.426,1.396 0,1.457 1.64,1.761 2.855,1.761 0.257,0 0.486,-0.02 0.676,-0.038 0.022,0.143 0.028,0.291 0.028,0.493 0,0.685 -0.379,1.079 -1.063,1.079 -0.574,0 -1.142,-0.263 -1.474,-0.432 l 0.07,0.624 c 0.349,0.148 0.914,0.335 1.5,0.335 1.076,0 1.641,-0.588 1.641,-1.624 0,-0.191 -0.036,-0.557 -0.126,-0.948 L 0,0 Z m -2.208,-0.772 c 1.15,0 1.678,1.035 1.813,2.081 -0.206,0 -0.401,0.02 -0.603,0.02 -0.831,0 -2.178,-0.125 -2.178,-1.224 0,-0.563 0.465,-0.877 0.968,-0.877" /></g></g></g><g
         transform="translate(150.0794,58.4709)"
         id="g472"><path
           inkscape:connector-curvature="0"
           id="path474"
           style="fill:#0f1f47;fill-opacity:1;fill-rule:nonzero;stroke:none"
           d="m 0,0 0.645,0 -1.568,-7.328 -0.643,0 L 0,0 Z" /></g><g
         id="g476"><g
           clip-path="url(#clipPath480)"
           id="g478"><g
             transform="translate(158.1147,53.7447)"
             id="g484"><path
               inkscape:connector-curvature="0"
               id="path486"
               style="fill:#0f1f47;fill-opacity:1;fill-rule:nonzero;stroke:none"
               d="m 0,0 c -0.254,-1.582 -1.175,-2.717 -2.756,-2.717 -1.302,0 -2.248,0.754 -2.248,2.144 0,0.616 0.243,1.708 0.394,2.337 l 0.537,2.454 0.643,0 -0.692,-3.323 c -0.082,-0.399 -0.207,-1.028 -0.207,-1.434 0,-0.997 0.598,-1.593 1.565,-1.593 1.161,0 1.827,0.839 2.061,1.907 l 0.985,4.443 0.625,0 L 0,0 Z" /></g></g></g><g
         transform="translate(160.4267,58.4709)"
         id="g488"><path
           inkscape:connector-curvature="0"
           id="path490"
           style="fill:#0f1f47;fill-opacity:1;fill-rule:nonzero;stroke:none"
           d="m 0,0 0.647,0 -1.563,-7.328 -0.643,0 L 0,0 Z" /></g><g
         id="g492"><g
           clip-path="url(#clipPath496)"
           id="g494"><g
             transform="translate(162.57,57.2389)"
             id="g500"><path
               inkscape:connector-curvature="0"
               id="path502"
               style="fill:#0f1f47;fill-opacity:1;fill-rule:nonzero;stroke:none"
               d="M 0,0 0.704,0.245 0.4,-1.112 l 1.301,0 -0.128,-0.524 -1.278,0 -0.526,-2.469 c -0.073,-0.327 -0.149,-0.652 -0.149,-0.971 0,-0.394 0.207,-0.609 0.568,-0.609 0.184,0 0.349,0.041 0.526,0.138 L 0.657,-6.076 C 0.47,-6.16 0.285,-6.211 0.029,-6.211 c -0.694,0 -1.081,0.388 -1.081,0.922 0,0.435 0.174,1.222 0.225,1.439 l 0.478,2.214 -0.998,0 0.139,0.524 0.977,0 L 0,0 Z" /></g><g
             transform="translate(164.9625,55.24)"
             id="g504"><path
               inkscape:connector-curvature="0"
               id="path506"
               style="fill:#0f1f47;fill-opacity:1;fill-rule:nonzero;stroke:none"
               d="m 0,0 c 0.057,0.281 0.109,0.573 0.134,0.887 l 0.616,0 C 0.721,0.573 0.694,0.309 0.643,0.133 l 0.02,0 c 0.312,0.491 0.744,0.872 1.388,0.872 0.206,0 0.372,-0.044 0.537,-0.069 L 2.442,0.281 C 2.275,0.348 2.092,0.363 1.913,0.363 0.909,0.363 0.507,-0.746 0.321,-1.646 l -0.504,-2.451 -0.654,0 L 0,0 Z" /></g><g
             transform="translate(171.0985,52.326)"
             id="g508"><path
               inkscape:connector-curvature="0"
               id="path510"
               style="fill:#0f1f47;fill-opacity:1;fill-rule:nonzero;stroke:none"
               d="m 0,0 c -0.097,-0.383 -0.166,-0.841 -0.184,-1.184 l -0.616,0 c 0.029,0.266 0.048,0.522 0.097,0.737 l -0.02,0 c -0.417,-0.629 -0.967,-0.852 -1.699,-0.852 -0.773,0 -1.426,0.578 -1.426,1.396 0,1.457 1.64,1.761 2.861,1.761 0.256,0 0.483,-0.02 0.675,-0.038 0.021,0.143 0.027,0.291 0.027,0.493 0,0.685 -0.38,1.079 -1.063,1.079 -0.577,0 -1.142,-0.263 -1.474,-0.432 l 0.066,0.624 c 0.353,0.148 0.918,0.335 1.509,0.335 1.073,0 1.641,-0.588 1.641,-1.624 0,-0.191 -0.043,-0.557 -0.131,-0.948 L 0,0 Z m -2.208,-0.772 c 1.155,0 1.681,1.035 1.816,2.081 -0.202,0 -0.398,0.02 -0.605,0.02 -0.831,0 -2.179,-0.125 -2.179,-1.224 0,-0.563 0.472,-0.877 0.968,-0.877" /></g><g
             transform="translate(173.0794,55.286)"
             id="g512"><path
               inkscape:connector-curvature="0"
               id="path514"
               style="fill:#0f1f47;fill-opacity:1;fill-rule:nonzero;stroke:none"
               d="m 0,0 c 0.059,0.245 0.107,0.578 0.128,0.841 l 0.617,0 C 0.713,0.527 0.675,0.263 0.637,0.087 l 0.021,0 c 0.467,0.624 0.859,0.872 1.543,0.872 0.7,0 1.219,-0.394 1.251,-1.117 l 0.019,0 c 0.322,0.697 0.895,1.117 1.69,1.117 0.859,0 1.406,-0.56 1.406,-1.468 0,-0.194 -0.072,-0.575 -0.146,-0.938 l -0.57,-2.696 -0.642,0 0.558,2.637 c 0.065,0.305 0.125,0.596 0.125,0.972 0,0.542 -0.233,0.966 -0.828,0.966 -1.016,0 -1.537,-1.145 -1.722,-2.045 l -0.518,-2.53 -0.646,0 0.562,2.637 c 0.064,0.305 0.123,0.596 0.123,0.972 0,0.542 -0.233,0.966 -0.831,0.966 -1.013,0 -1.534,-1.145 -1.72,-2.045 l -0.516,-2.53 -0.647,0 L 0,0 Z" /></g><g
             transform="translate(184.0234,52.326)"
             id="g516"><path
               inkscape:connector-curvature="0"
               id="path518"
               style="fill:#0f1f47;fill-opacity:1;fill-rule:nonzero;stroke:none"
               d="m 0,0 c -0.096,-0.383 -0.167,-0.841 -0.188,-1.184 l -0.616,0 c 0.031,0.266 0.054,0.522 0.1,0.737 l -0.018,0 c -0.419,-0.629 -0.968,-0.852 -1.7,-0.852 -0.773,0 -1.425,0.578 -1.425,1.396 0,1.457 1.64,1.761 2.862,1.761 0.25,0 0.48,-0.02 0.669,-0.038 0.023,0.143 0.035,0.291 0.035,0.493 0,0.685 -0.385,1.079 -1.067,1.079 -0.575,0 -1.143,-0.263 -1.478,-0.432 l 0.072,0.624 c 0.351,0.148 0.917,0.335 1.504,0.335 1.075,0 1.64,-0.588 1.64,-1.624 C 0.39,2.104 0.352,1.738 0.263,1.347 L 0,0 Z m -2.207,-0.772 c 1.153,0 1.679,1.035 1.815,2.081 -0.202,0 -0.402,0.02 -0.604,0.02 -0.83,0 -2.179,-0.125 -2.179,-1.224 0,-0.563 0.469,-0.877 0.968,-0.877" /></g><g
             transform="translate(185.9277,55.24)"
             id="g520"><path
               inkscape:connector-curvature="0"
               id="path522"
               style="fill:#0f1f47;fill-opacity:1;fill-rule:nonzero;stroke:none"
               d="m 0,0 c 0.059,0.281 0.109,0.573 0.135,0.887 l 0.616,0 C 0.725,0.573 0.694,0.309 0.642,0.133 l 0.024,0 c 0.309,0.491 0.739,0.872 1.385,0.872 0.205,0 0.371,-0.044 0.537,-0.069 L 2.445,0.281 C 2.279,0.348 2.092,0.363 1.916,0.363 0.91,0.363 0.509,-0.746 0.323,-1.646 l -0.511,-2.451 -0.654,0 L 0,0 Z" /></g></g></g><g
         transform="translate(189.4642,56.127)"
         id="g524"><path
           inkscape:connector-curvature="0"
           id="path526"
           style="fill:#0f1f47;fill-opacity:1;fill-rule:nonzero;stroke:none"
           d="m 0,0 0.647,0 -1.055,-4.984 -0.645,0 L 0,0 Z m 1.045,1.329 -0.731,0 0.172,0.818 0.736,0 -0.177,-0.818 z" /></g><g
         id="g528"><g
           clip-path="url(#clipPath532)"
           id="g530"><g
             transform="translate(191.2023,55.3346)"
             id="g536"><path
               inkscape:connector-curvature="0"
               id="path538"
               style="fill:#0f1f47;fill-opacity:1;fill-rule:nonzero;stroke:none"
               d="m 0,0 c 0.059,0.335 0.1,0.547 0.115,0.792 l 0.621,0 C 0.706,0.478 0.675,0.215 0.628,0.038 l 0.019,0 C 0.99,0.567 1.614,0.91 2.232,0.91 c 0.892,0 1.56,-0.511 1.56,-1.447 0,-0.34 -0.078,-0.713 -0.147,-1.027 l -0.557,-2.628 -0.642,0 0.565,2.748 c 0.067,0.322 0.106,0.539 0.106,0.869 0,0.588 -0.328,0.958 -0.957,0.958 -1.074,0 -1.649,-1.065 -1.884,-2.213 l -0.488,-2.362 -0.644,0 L 0,0 Z" /></g><g
             transform="translate(198.4899,56.2446)"
             id="g540"><path
               inkscape:connector-curvature="0"
               id="path542"
               style="fill:#0f1f47;fill-opacity:1;fill-rule:nonzero;stroke:none"
               d="m 0,0 c 1.269,0 1.982,-0.849 1.982,-2.142 0,-1.664 -1.047,-3.075 -2.762,-3.075 -1.232,0 -1.996,0.923 -1.996,2.17 C -2.776,-1.378 -1.691,0 0,0 m -0.703,-4.69 c 1.288,0 2.012,1.364 2.012,2.538 0,0.938 -0.42,1.625 -1.387,1.625 -1.379,0 -2.021,-1.349 -2.021,-2.62 0,-0.861 0.527,-1.543 1.396,-1.543" /></g></g></g></g></g></svg>