<?xml version="1.0" encoding="UTF-8" standalone="no"?>
<svg
   xmlns:dc="http://purl.org/dc/elements/1.1/"
   xmlns:cc="http://creativecommons.org/ns#"
   xmlns:rdf="http://www.w3.org/1999/02/22-rdf-syntax-ns#"
   xmlns:svg="http://www.w3.org/2000/svg"
   xmlns="http://www.w3.org/2000/svg"
   viewBox="0 0 600 199.87238"
   height="199.87238"
   width="600"
   xml:space="preserve"
   id="svg833"
   version="1.1"><metadata
     id="metadata839"><rdf:RDF><cc:Work
         rdf:about=""><dc:format>image/svg+xml</dc:format><dc:type
           rdf:resource="http://purl.org/dc/dcmitype/StillImage" /><dc:title></dc:title></cc:Work></rdf:RDF></metadata><defs
     id="defs837" /><g
     transform="matrix(1.3333333,0,0,-1.3333333,-26.574219,163.34536)"
     id="g841"><g
       transform="matrix(1.86708,0,0,1.86708,-17.281481,-106.22512)"
       id="g1035"><path
         id="rect986"
         style="fill:#b0fe12;fill-opacity:1;fill-rule:evenodd;stroke-width:1"
         d="m 41.822266,93.667969 c -8.447607,0 -15.248047,6.802401 -15.248047,15.250001 v 91.80078 H 332.68359 c 8.44762,0 15.24805,-6.80044 15.24805,-15.24805 0,-30.60091 0,-61.20182 0,-91.802731 -102.03646,0 -204.07292,0 -306.109374,0 z"
         transform="matrix(0.75000002,0,0,-0.75000002,0,192.76)" /><g
         id="g1019"><g
           style="fill:#003900;fill-opacity:1"
           id="g1006"><path
             id="path885"
             style="fill:#003900;fill-opacity:1;fill-rule:evenodd;stroke:none;stroke-width:0.112989"
             d="M 143.11106,101.32606 V 85.247672 h -14.61189 v 16.078388 h -9.85742 V 61.576059 h 9.85742 v 17.705774 h 14.61189 V 61.576059 h 9.88997 v 39.750001 h -9.88997 v 0 0 0" /><path
             id="path887"
             style="fill:#003900;fill-opacity:1;fill-rule:evenodd;stroke:none;stroke-width:0.11899"
             d="m 192.51555,61.576059 h 7.92948 V 89.32606 h -7.92948 v -27.750001 0 0 0" /><path
             id="path889"
             style="fill:#003900;fill-opacity:1;fill-rule:evenodd;stroke:none;stroke-width:0.150652"
             d="m 273.1543,130.07812 h 9.4375 v 44.83399 h 12.97265 v -44.83399 h 10.42188 v -8.16601 h -25.83985 c -10e-4,0.004 -4.6e-4,0.006 -0.002,0.01 -0.52999,1.25908 -1.36365,2.59165 -2.46484,3.92382 -1.1012,1.33217 -2.46999,2.66475 -4.07031,3.92383 -0.16405,0.12892 -0.29358,0.18547 -0.45508,0.30859 z"
             transform="matrix(0.75000002,0,0,-0.75000002,0,192.76)" /><path
             id="path891"
             style="fill:#003900;fill-opacity:1;fill-rule:evenodd;stroke:none;stroke-width:0.116136"
             d="m 179.04654,89.32606 h 5.37712 V 72.570709 c 0,-9.14888 -7.73817,-10.98488 -9.93547,-10.98488 -1.24614,0 -13.14897,-0.753958 -13.14897,10.98488 v 0 0 0 16.755351 h 7.4757 v -17.149053 0 0 0 c 0,-4.131554 3.73843,-5.279215 5.14833,-5.279215 1.37738,0 5.08329,0.295336 5.08329,5.279215 v 0 0 0 17.149053 0 0 0" /></g><g
           style="fill:#003900;fill-opacity:1"
           id="g975"><path
             id="path883"
             style="fill:#003900;fill-opacity:1;fill-rule:evenodd;stroke:none;stroke-width:0.0672748"
             d="m 102.04387,85.147843 4.2168,-5.14721 -1.59543,-0.968761 -4.92002,4.216797 2.29865,1.899174 v 0 0 0" /><path
             id="path893"
             style="fill:#003900;fill-opacity:1;fill-rule:evenodd;stroke:none;stroke-width:0.0672748"
             d="m 104.66524,77.531872 h -4.06489 L 94.882782,61.576059 h 2.241603 l 1.671649,4.67272 h 2.925186 2.92538 l 1.67138,-4.67272 h 4.08407 z m -2.94402,-9.193599 h -2.16545 l 2.16545,6.04042 2.18428,-6.04042 h -2.18428 v 0" /></g><g
           style="fill:#003900;fill-opacity:1"
           id="g979"><path
             id="path895"
             style="fill:#003900;fill-opacity:1;fill-rule:evenodd;stroke:none;stroke-width:0.118022"
             d="m 69.378997,107.11525 c -2.865696,0.10041 -5.731394,-0.13219 -8.597563,0 C 51.650799,100.98399 53.483838,92.753122 58.68235,87.188375 46.985699,75.958443 52.417484,61.896687 61.281612,58.264318 c 3.398686,0.06681 6.76456,-0.03317 10.163718,0 -9.897223,9.163834 -13.296394,18.660845 -2.36599,29.091649 -5.765031,6.464076 -8.364352,13.262163 0.299657,19.759283 v 0 0 0 0 0 0" /><path
             id="path897"
             style="fill:#003900;fill-opacity:1;fill-rule:evenodd;stroke:none;stroke-width:0.118022"
             d="m 71.112035,109.982 c 2.865699,0.0991 5.731867,-0.13336 8.597682,0 9.130554,-6.13243 7.464434,-15.496312 2.56604,-22.460803 9.597093,-8.596501 6.930972,-20.992611 -0.666707,-26.524429 -3.39904,0.03327 -6.798197,0.100081 -10.16372,0.133246 9.530293,7.730928 9.630376,18.594046 0.299659,26.058361 5.76515,6.498303 8.064693,16.295325 -0.632954,22.793625 v 0 0 0 0 0 0" /></g></g><path
         id="path903"
         style="fill:#f60565;fill-opacity:1;fill-rule:evenodd;stroke:none;stroke-width:0.0863174"
         d="m 198.82689,103.01152 c 1.90071,1.3405 5.38535,4.99606 8.99256,2.87609 2.48595,-2.02328 0.46353,-6.677528 -4.33745,-10.454784 -4.77682,-3.753947 -8.11645,-4.19244 -10.06635,-4.606766 -0.75529,0.121704 -6.72673,15.86604 1.70649,16.4996 4.19158,0.0484 3.70475,-4.31414 3.70475,-4.31414 v 0 0 0 0 0 0" /></g></g></svg>
