<svg xmlns="http://www.w3.org/2000/svg" width="446" height="308" viewBox="0 0 446 308">
    <g fill="none" fill-rule="evenodd">
        <path fill="#0071C6" d="M74.249 143.172V72.905c0-4.93-.747-8.444-2.222-10.516-1.454-2.083-3.87-3.148-7.181-3.148-3.43 0-5.928 1.065-7.473 3.148-1.527 2.072-2.308 5.586-2.308 10.516v70.267c0 4.935.78 8.45 2.308 10.545 1.545 2.09 4.044 3.126 7.473 3.126 3.312 0 5.727-1.036 7.18-3.126 1.476-2.095 2.223-5.61 2.223-10.545zm-19.184 109.11c0 4.774.78 8.203 2.308 10.334 1.545 2.145 4.044 3.202 7.473 3.202 3.436 0 5.876-1.057 7.272-3.123 1.403-2.066 2.13-5.528 2.13-10.413V193.81c-4.675 3.515-9.375 6.115-14.186 7.808-4.784 1.664-9.943 2.512-15.47 2.512-14.365 0-25.406-4.112-33.08-12.376C3.848 183.504 0 171.602 0 156.068V89.252c0-26.068 5.012-44.547 14.972-55.504C24.98 22.816 41.595 17.34 64.846 17.34c23.132 0 39.629 5.45 49.582 16.34 9.92 10.863 14.888 29.4 14.888 55.573v146.876c0 25.952-4.983 44.36-14.988 55.254-9.977 10.858-26.484 16.325-49.482 16.325-20.352 0-36.257-4.717-47.676-14.189C5.713 284.06 0 270.941 0 254.152V230.77h55.065v21.513zM333.341 59.79V38.95c0-6.979-2.41-12.484-7.222-16.439-3.674-3.034-8.41-4.888-14.213-5.59V0L299.59 4.252l-.272 12.731c-6.23.821-10.878 2.888-13.974 6.19-4.108 4.414-6.185 12.084-6.185 23.014v50.831c0 10.861 2.115 18.535 6.286 23 3.095 3.336 7.716 5.426 13.873 6.281l.272 16.392 12.316-4.609v-11.668c5.917-.742 10.702-2.703 14.345-5.895 4.741-4.164 7.09-10.03 7.09-17.59V83.571h-22.854v19.531c0 2.296-.335 3.967-1.003 4.918-.649.95-1.719 1.468-3.213 1.468-1.506 0-2.563-.518-3.228-1.468-.663-.95-1.004-2.622-1.004-4.918V39.126c0-2.308.341-3.946 1.004-4.899.665-.979 1.722-1.482 3.228-1.482 1.494 0 2.564.503 3.213 1.482.668.953 1.003 2.591 1.003 4.9v20.662h22.854zM266.456 263.66c-2.416 11.798-6.568 20.987-12.525 27.456-9.97 10.883-26.492 16.33-49.489 16.33-20.36 0-36.265-4.722-47.683-14.175-11.452-9.469-17.149-22.583-17.149-39.382v-23.37h55.066v21.497c0 4.778.768 8.213 2.308 10.326 1.532 2.152 4.013 3.183 7.458 3.183 3.436 0 5.864-1.008 7.288-3.086 1.404-2.063 2.107-5.516 2.107-10.423v-58.464c-4.656 3.517-9.395 6.13-14.188 7.786-4.775 1.698-9.939 2.562-15.463 2.562-14.366 0-25.39-4.144-33.066-12.427-7.695-8.236-11.51-20.128-11.51-35.664V88.99c0-26.046 4.981-44.516 14.965-55.49 9.994-10.94 26.613-16.418 49.867-16.418 23.134 0 39.653 5.431 49.571 16.342 9.931 10.875 14.916 29.393 14.916 55.565v64h-.019c-9.529 3.564-16.569 8.604-20.922 15.004-4.319 6.335-6.517 15.058-6.517 25.845v44.587c0 11.646 2.586 19.224 7.937 23.13 4.22 3.074 9.833 3.768 17.048 2.106m-52.619-120.742V72.65c0-4.93-.739-8.445-2.21-10.528-1.477-2.078-3.864-3.122-7.185-3.122-3.445 0-5.926 1.044-7.458 3.122-1.54 2.083-2.308 5.598-2.308 10.528v70.27c0 4.932.768 8.447 2.308 10.54 1.532 2.09 4.013 3.13 7.458 3.13 3.321 0 5.708-1.04 7.185-3.13 1.471-2.093 2.21-5.608 2.21-10.54"/>
        <path fill="#D9238E" d="M372.05 99.05l-19.914 7.446V222.6l19.914-7.453zM408.09 108.956l-4.537 46.465a982.295 982.295 0 0 0-1.326 14.522c-.348 3.912-.633 7.688-.904 11.23l-.519.232c-.213-5.43-.388-10.01-.55-13.794-.146-3.777-.29-6.738-.45-8.85l-3.465-45.402-20.479 7.643 13.112 84.22c.323 2.336.521 3.9.622 4.742.09.83.163 1.432.163 1.77 0 1.022-.302 1.92-.89 2.552-.599.689-1.533 1.288-2.886 1.769l-13.96 6.67v14.989l22.407-9.795c5.93-2.21 10.21-5.244 12.844-9.024 2.655-3.807 4.558-9.905 5.726-18.31l13.823-98.637-18.73 7.008zM267.523 179.758v56.238c0 2.105.28 3.46.805 4.136.549.642 1.439.759 2.68.318 1.237-.48 2.125-1.235 2.688-2.31.524-1.07.806-2.653.806-4.713v-56.283c0-1.992-.282-3.365-.856-4.06-.572-.681-1.516-.758-2.792-.286-1.17.452-2.04 1.185-2.555 2.227-.522 1.027-.776 2.6-.776 4.733zm-20.177 13.847c0-9.62 1.823-17.13 5.474-22.514 3.646-5.354 9.673-9.628 18.056-12.731 8.377-3.161 14.41-3.388 18.045-.743 3.666 2.642 5.498 8.766 5.498 18.418v44.554c0 9.518-1.832 16.99-5.498 22.385-3.634 5.389-9.668 9.668-18.045 12.807-8.383 3.124-14.41 3.372-18.056.692-3.651-2.684-5.474-8.766-5.474-18.278v-44.59zM299.154 242.075l19.909-7.422v-71.802c0-1.906.297-3.4.898-4.494.587-1.159 1.479-1.92 2.71-2.385 1.355-.517 2.287-.469 2.839.094.54.555.81 1.901.81 4.08v71.783l20.18-7.53v-78.612c0-5.287-1.097-8.86-3.3-10.734-2.174-1.873-5.447-1.999-9.793-.354-3.165 1.156-5.904 2.993-8.253 5.416-2.35 2.48-4.382 5.655-6.091 9.548l-.283.12v-7.916l-19.626 7.334v92.874zM275.075 290.367l7.514-.873c.161 2.22.478 3.97.981 5.11.819 1.88 1.966 2.84 3.48 2.84 1.138 0 2.012-.499 2.623-1.467.592-.958.897-2.08.897-3.35 0-1.213-.264-2.29-.865-3.268-.573-.939-1.922-1.857-4.03-2.695-3.46-1.434-5.935-3.344-7.406-5.695-1.493-2.346-2.228-5.35-2.228-9.024 0-2.424.363-4.666 1.139-6.803.757-2.136 1.916-3.804 3.423-5.03 1.541-1.233 3.623-1.832 6.28-1.832 3.266 0 5.755 1.108 7.454 3.327 1.72 2.206 2.742 5.745 3.048 10.61l-7.418.783c-.204-2.092-.616-3.646-1.245-4.578-.637-.978-1.507-1.45-2.62-1.45-.897 0-1.608.37-2.075 1.116-.457.671-.71 1.538-.71 2.56 0 .723.207 1.437.587 1.992.375.614 1.267 1.19 2.642 1.74 3.46 1.357 5.933 2.734 7.42 4.105a12.507 12.507 0 0 1 3.25 5.212c.671 2.057 1.022 4.351 1.022 6.91 0 2.987-.45 5.764-1.354 8.295-.909 2.526-2.183 4.458-3.8 5.77-1.627 1.272-3.673 1.945-6.161 1.945-4.325 0-7.325-1.53-9.012-4.598-1.676-3.062-2.61-6.947-2.836-11.652M299.124 259.066h23.99V270.6h-8.053v35.231h-7.9v-35.23h-8.037zM331.581 282.534c0 4.753.483 8.121 1.427 10.206.974 2.032 2.271 3.07 3.931 3.07 1.68 0 3.008-1.013 3.923-3.018.935-2.015 1.376-5.643 1.376-10.884 0-4.413-.469-7.612-1.443-9.643-.973-2.037-2.284-3.056-3.963-3.056-1.578 0-2.85 1.04-3.824 3.1-.944 2.064-1.427 5.477-1.427 10.225m-7.885-.058c0-7.649 1.151-13.587 3.464-17.81 2.32-4.275 5.58-6.386 9.702-6.386 4.264 0 7.53 2.077 9.834 6.236 2.29 4.197 3.427 10.046 3.427 17.56 0 5.473-.502 9.951-1.48 13.462-1.02 3.488-2.472 6.201-4.355 8.158-1.92 1.952-4.264 2.918-7.099 2.918-2.873 0-5.254-.836-7.154-2.514-1.892-1.685-3.4-4.334-4.578-7.984-1.175-3.63-1.76-8.16-1.76-13.64M360.769 278.01h3.34c.35 0 1.056-.191 2.08-.63.524-.207.956-.708 1.275-1.45.336-.802.52-1.707.52-2.75 0-1.493-.271-2.67-.807-3.468-.523-.79-1.483-1.196-2.917-1.196h-3.491v9.495zm-7.925 27.82v-46.765h13.164c2.42 0 4.29.386 5.582 1.16 1.295.74 2.332 2.164 3.108 4.27.81 2.043 1.212 4.584 1.212 7.546 0 2.588-.328 4.835-.925 6.713-.604 1.903-1.445 3.426-2.501 4.566-.676.77-1.581 1.374-2.77 1.877.96.579 1.632 1.127 2.06 1.715.303.402.71 1.212 1.263 2.447.548 1.279.925 2.22 1.104 2.929l3.818 13.542h-8.902l-4.226-14.29c-.521-1.875-1.012-3.05-1.41-3.583-.57-.745-1.241-1.112-1.95-1.112h-.702v18.985h-7.925zM380.11 259.066h21.139v9.991h-13.223v7.443h12.253v9.503h-12.253v9.238h13.594v10.59h-21.51zM403.857 290.367l7.508-.873c.164 2.22.496 3.97.989 5.11.823 1.88 1.98 2.84 3.494 2.84 1.132 0 1.983-.499 2.615-1.467.584-.958.906-2.08.906-3.35a6.417 6.417 0 0 0-.87-3.268c-.596-.939-1.936-1.857-4.055-2.695-3.471-1.434-5.92-3.344-7.4-5.695-1.477-2.346-2.232-5.35-2.232-9.024 0-2.424.389-4.666 1.159-6.803.753-2.136 1.885-3.804 3.419-5.03 1.524-1.233 3.635-1.832 6.283-1.832 3.252 0 5.74 1.108 7.455 3.327 1.704 2.206 2.73 5.745 3.05 10.61l-7.432.783c-.19-2.092-.61-3.646-1.243-4.578-.623-.978-1.491-1.45-2.615-1.45-.926 0-1.593.37-2.065 1.116-.47.671-.715 1.538-.715 2.56 0 .723.194 1.437.586 1.992.363.614 1.244 1.19 2.645 1.74 3.43 1.357 5.905 2.734 7.399 4.105 1.496 1.424 2.585 3.145 3.268 5.212.67 2.057 1.008 4.351 1.008 6.91 0 2.987-.447 5.764-1.34 8.295-.907 2.526-2.173 4.458-3.81 5.77-1.627 1.272-3.672 1.945-6.144 1.945-4.342 0-7.33-1.53-9.01-4.598-1.676-3.062-2.641-6.947-2.853-11.652M436.294 297.299h.891c.584 0 1.02-.126 1.265-.317.227-.202.37-.42.37-.713 0-.321-.143-.574-.37-.79-.198-.17-.61-.293-1.178-.293h-.978v2.113zm-2.08-3.556h3.718c1.062 0 1.844.233 2.293.655.465.416.724.986.724 1.708 0 .57-.197 1.042-.54 1.443-.382.422-.949.698-1.732.89.341.123.57.259.733.396.215.175.407.474.64.847.017 0 .466.832 1.356 2.394h-2.459c-.785-1.562-1.327-2.54-1.6-2.84-.27-.291-.55-.471-.806-.471-.05 0-.14.032-.247.032v3.279h-2.08v-8.333zm9.834 4.193c0-1.75-.634-3.218-1.845-4.438-1.23-1.248-2.72-1.868-4.469-1.868-1.722 0-3.21.62-4.428 1.868-1.229 1.22-1.833 2.689-1.833 4.438 0 1.71.604 3.21 1.833 4.417 1.218 1.228 2.706 1.844 4.428 1.844 1.748 0 3.24-.616 4.47-1.844 1.21-1.207 1.844-2.706 1.844-4.417zm1.481 0c0 1.373-.355 2.67-1.047 3.89-.693 1.21-1.653 2.136-2.846 2.84-1.198.704-2.499 1.033-3.902 1.033-1.362 0-2.67-.33-3.867-1.033-1.219-.704-2.165-1.63-2.866-2.84a7.677 7.677 0 0 1-1.045-3.89c0-1.42.344-2.703 1.045-3.9.701-1.216 1.647-2.181 2.866-2.848a7.387 7.387 0 0 1 3.867-1.06c1.403 0 2.704.339 3.902 1.06a7.424 7.424 0 0 1 2.846 2.848 7.621 7.621 0 0 1 1.047 3.9z"/>
    </g>
</svg>