<?xml version="1.0" encoding="utf-8"?>
<!-- Generator: Adobe Illustrator 24.0.2, SVG Export Plug-In . SVG Version: 6.00 Build 0)  -->
<svg version="1.1" id="Ebene_1" xmlns="http://www.w3.org/2000/svg" xmlns:xlink="http://www.w3.org/1999/xlink" x="0px" y="0px"
	 viewBox="0 0 375.815 275.081" enable-background="new 0 0 375.815 275.081" xml:space="preserve">
<rect fill="none" width="375.815" height="275.081"/>
<g>
	<path fill="#F07814" d="M194.477,138.733c-25.284,0-45.844-21.343-45.844-46.625c0-25.28,20.559-45.848,45.844-45.848
		c16.693,0,32.379,8.958,39.307,23.721c2.537,5.408,1.826,11.811-3.406,14.695c-5.225,2.885-11.809,0.987-14.695-4.245
		c-4.264-7.734-12.391-13.663-21.205-13.663c-13.352,0-24.214,11.988-24.214,25.34c0,13.357,10.862,24.99,24.214,24.99
		c8.525,0,16.268-4.362,20.701-11.668c3.105-5.104,9.762-6.728,14.863-3.628c5.105,3.103,5.488,9.53,2.787,14.863
		C225.943,130.243,210.619,138.733,194.477,138.733"/>
	<path fill="#F07814" d="M127.565,137.293C127.442,137.293,127.685,137.293,127.565,137.293c-6.012,0-10.866-5.203-10.671-11.172
		V92.574c0-13.611-10.79-25.807-24.398-25.807c-13.582,0-25.239,11.575-24.881,25.807c0.38,15.169,12.322,25.468,26.979,24.739
		c6.551-0.325,10.913,3.169,11.629,7.137c1.024,5.692-1.098,12.452-13.726,13.284c-25.488,1.678-46.32-19.623-46.32-45.16
		c0-25.541,20.778-46.315,46.32-46.315c25.539,0,46.029,20.774,46.029,46.315l-0.033,34.263
		C138.293,132.684,133.371,137.293,127.565,137.293z"/>
	<path fill="#F07814" d="M284.52,105.622c0,0-0.33-2.283-1.488-4.697c0,0-17.434-36.41-23.285-48.526
		c-2.676-5.54-9.141-7.735-14.398-4.905c-5.272,2.83-7.387,9.619-4.666,15.146c8.443,17.163,34.064,68.505,34.064,68.505
		c1.807,3.731,5.449,6.138,9.82,6.138c4.439,0,8.01-2.406,9.818-6.138c0,0,25.627-51.342,34.068-68.507
		c2.717-5.526,0.604-12.316-4.664-15.146c-4.848-2.605-11.596-0.861-14.379,4.905c-5.852,12.11-23.299,48.507-23.299,48.507
		c-1.195,2.434-1.496,4.717-1.496,4.717H284.52z"/>
</g>
<g>
	<path fill="#253746" d="M51.815,190.369l8.005-23.435c0.901-2.634,2.356-3.754,4.424-3.754c2.01,0,3.523,1.19,4.389,3.754
		l7.866,23.435H70.7l-2.056-6.664h-9.183l-2.01,6.664H51.815z M67.361,179.512l-3.35-10.88l-3.292,10.88H67.361z"/>
	<path fill="#253746" d="M79.304,169.799h5.117v12.635c0,2.9,0.519,4.112,4.031,4.112c1.097,0,2.368-0.196,3.141-0.554
		c0.093-0.832,0.127-1.836,0.127-2.761v-13.433h5.094v15.038c0,1.398-0.046,2.588-0.173,3.904c-2.403,1.282-5.556,1.906-9.171,1.906
		c-7.381,0-8.166-3.315-8.166-7.75V169.799z"/>
	<path fill="#253746" d="M108.921,163.988v5.81h4.135v3.892h-4.135v10.638c0,1.71,0.716,2.379,2.437,2.379
		c0.578,0,1.144-0.023,1.733-0.07l0.393,3.65c-1.097,0.196-2.425,0.358-3.523,0.358c-4.331,0-6.156-1.894-6.156-5.798v-11.157
		h-3.361v-3.892h3.361v-4.978L108.921,163.988z"/>
	<path fill="#253746" d="M116.126,180.078c0-7.669,2.449-10.558,9.217-10.558c6.78,0,9.229,2.98,9.229,10.558
		c0,7.6-2.449,10.568-9.229,10.568C118.575,190.646,116.126,187.77,116.126,180.078z M129.444,180.078
		c0-4.978-0.855-6.434-4.1-6.434c-3.234,0-4.066,1.294-4.066,6.434c0,5.162,0.832,6.433,4.066,6.433
		C128.589,186.512,129.444,185.079,129.444,180.078z"/>
	<path fill="#253746" d="M144.088,190.369h-5.106v-15.038c0-1.398,0.058-2.588,0.173-3.905c2.287-1.224,5.521-1.906,8.709-1.906
		c2.264,0,3.858,0.44,4.967,1.179c1.848-0.704,4.1-1.179,6.283-1.179c6.584,0,7.554,3.547,7.554,7.751v13.098h-5.117v-12.636
		c0-2.668-0.635-4.1-3.523-4.1c-0.797,0-1.998,0.208-2.934,0.682c0.208,0.923,0.278,1.917,0.278,2.957v13.098h-5.117v-12.636
		c0-2.622-0.612-4.1-3.419-4.1c-0.878,0-1.987,0.231-2.622,0.543c-0.093,0.831-0.127,1.836-0.127,2.761V190.369z"/>
	<path fill="#253746" d="M170.895,180.078c0-7.669,2.449-10.558,9.217-10.558c6.78,0,9.229,2.98,9.229,10.558
		c0,7.6-2.449,10.568-9.229,10.568C173.344,190.646,170.895,187.77,170.895,180.078z M184.213,180.078
		c0-4.978-0.855-6.434-4.1-6.434c-3.234,0-4.066,1.294-4.066,6.434c0,5.162,0.832,6.433,4.066,6.433
		C183.358,186.512,184.213,185.079,184.213,180.078z"/>
	<path fill="#253746" d="M193.739,161.851h5.129v8.109c1.225-0.266,2.68-0.44,3.927-0.44c6.33,0,9.137,2.588,9.137,10.558
		c0,8.085-2.876,10.568-9.737,10.568c-2.784,0-5.972-0.554-8.282-1.906c-0.116-1.316-0.174-2.506-0.174-3.904V161.851z
		 M198.867,183.324c0,0.924,0.035,1.929,0.127,2.761c0.763,0.358,2.068,0.543,3.2,0.543c4.388,0,4.585-3.188,4.585-6.549
		c0-3.742-0.127-6.515-5.036-6.515c-0.89,0-2.033,0.185-2.876,0.451V183.324z"/>
	<path fill="#253746" d="M215.622,164.474c0-2.137,0.728-2.9,3.026-2.9c2.286,0,3.025,0.763,3.025,2.9s-0.716,2.899-3.025,2.899
		C216.326,167.373,215.622,166.611,215.622,164.474z M216.072,169.799h5.163v20.571h-5.163V169.799z"/>
	<path fill="#253746" d="M226.075,161.851h5.141v22.905c0,1.836,0.404,3.084,1.431,4.505l-4.527,2.125
		c-1.328-1.536-2.045-3.384-2.045-6.248V161.851z"/>
	<path fill="#253746" d="M236.142,178.08h10.164v4.112h-10.164V178.08z"/>
	<path fill="#253746" d="M269.401,189.839c-1.756,0.473-4.228,0.808-7.034,0.808c-8.94,0-11.146-4.181-11.146-13.733
		c0-9.563,2.218-13.733,11.146-13.733c2.819,0,5.279,0.347,7.034,0.82l-0.486,4.216c-1.767-0.289-3.627-0.462-5.544-0.462
		c-6.468,0-6.584,3.869-6.584,9.159c0,5.314,0.092,9.16,6.584,9.16c1.895,0,3.8-0.174,5.532-0.462L269.401,189.839z"/>
	<path fill="#253746" d="M273.159,161.851h5.141v22.905c0,1.836,0.404,3.084,1.431,4.505l-4.527,2.125
		c-1.328-1.536-2.045-3.384-2.045-6.248V161.851z"/>
	<path fill="#253746" d="M283.249,169.799h5.116v12.635c0,2.9,0.52,4.112,4.031,4.112c1.097,0,2.368-0.196,3.142-0.554
		c0.092-0.832,0.127-1.836,0.127-2.761v-13.433h5.094v15.038c0,1.398-0.046,2.588-0.174,3.904c-2.402,1.282-5.555,1.906-9.17,1.906
		c-7.381,0-8.166-3.315-8.166-7.75V169.799z"/>
	<path fill="#253746" d="M305.832,161.851h5.129v8.109c1.224-0.266,2.679-0.44,3.927-0.44c6.329,0,9.136,2.588,9.136,10.558
		c0,8.085-2.876,10.568-9.737,10.568c-2.783,0-5.971-0.554-8.282-1.906c-0.116-1.316-0.173-2.506-0.173-3.904V161.851z
		 M310.96,183.324c0,0.924,0.035,1.929,0.127,2.761c0.762,0.358,2.067,0.543,3.199,0.543c4.389,0,4.586-3.188,4.586-6.549
		c0-3.742-0.127-6.515-5.036-6.515c-0.89,0-2.034,0.185-2.876,0.451V183.324z"/>
	<path fill="#253746" d="M67.812,225.482c-0.843,2.598-2.183,3.638-4.147,3.638c-2.01,0-3.28-0.959-4.158-3.638l-7.716-23.551h5.821
		l6.099,20.767l6.168-20.767h5.613L67.812,225.482z"/>
	<path fill="#253746" d="M75.902,218.551c0-7.461,2.345-10.557,9.229-10.557c7.508,0,9.055,3.938,9.055,10.164
		c0,0.543-0.023,1.098-0.069,1.652c-2.345,0.427-6.908,0.877-9.737,1.028l-3.384,0.174c0.185,3.211,1.894,3.996,4.863,3.996
		c2.772,0,5.302-0.277,7.415-0.543l0.427,3.87c-2.171,0.358-5.013,0.785-8.998,0.785C77.727,229.12,75.902,224.65,75.902,218.551z
		 M84.38,217.327c1.34-0.07,3.419-0.242,4.62-0.404c0.034-0.231,0.046-0.59,0.046-0.82c0-2.703-1.005-4.182-3.915-4.182
		c-3.777,0-4.286,2.357-4.286,5.578L84.38,217.327z"/>
	<path fill="#253746" d="M98.535,228.843v-15.039c0-1.397,0.047-2.587,0.173-3.904c2.31-1.352,5.486-1.906,8.27-1.906
		c0.751,0,1.432,0.035,2.091,0.104l-0.416,4.111c-0.427-0.057-0.959-0.081-1.478-0.081c-1.201,0-2.611,0.22-3.419,0.636
		c-0.093,0.831-0.127,1.836-0.127,2.761v13.317H98.535z"/>
	<path fill="#253746" d="M117.68,217.27l7.023-8.998h5.879l-7.727,9.472l8.131,11.1h-6.214l-7.092-10.234v10.234h-5.105v-28.518
		h5.105V217.27z"/>
	<path fill="#253746" d="M132.317,218.551c0-7.461,2.345-10.557,9.229-10.557c7.508,0,9.055,3.938,9.055,10.164
		c0,0.543-0.023,1.098-0.069,1.652c-2.345,0.427-6.908,0.877-9.737,1.028l-3.384,0.174c0.185,3.211,1.894,3.996,4.863,3.996
		c2.772,0,5.302-0.277,7.415-0.543l0.427,3.87c-2.171,0.358-5.013,0.785-8.998,0.785C134.142,229.12,132.317,224.65,132.317,218.551
		z M140.796,217.327c1.34-0.07,3.419-0.242,4.62-0.404c0.034-0.231,0.046-0.59,0.046-0.82c0-2.703-1.005-4.182-3.915-4.182
		c-3.777,0-4.286,2.357-4.286,5.578L140.796,217.327z"/>
	<path fill="#253746" d="M167.709,228.843v-12.521c0-2.922-0.531-4.158-4.273-4.158c-1.144,0-2.333,0.231-3.315,0.647v16.032h-5.128
		v-28.518h5.128v8.328c1.352-0.404,2.876-0.658,4.574-0.658c7.404,0,8.154,3.511,8.154,7.831v13.018H167.709z"/>
	<path fill="#253746" d="M177.725,228.843v-15.039c0-1.397,0.046-2.587,0.173-3.904c2.31-1.352,5.486-1.906,8.27-1.906
		c0.751,0,1.432,0.035,2.091,0.104l-0.416,4.111c-0.427-0.057-0.959-0.081-1.478-0.081c-1.201,0-2.611,0.22-3.419,0.636
		c-0.093,0.831-0.127,1.836-0.127,2.761v13.317H177.725z"/>
</g>
</svg>
