<?xml version="1.0" encoding="utf-8"?>
<!-- Generator: Adobe Illustrator 23.0.5, SVG Export Plug-In . SVG Version: 6.00 Build 0)  -->
<svg version="1.1" id="Layer_1" xmlns="http://www.w3.org/2000/svg" xmlns:xlink="http://www.w3.org/1999/xlink" x="0px" y="0px"
	 viewBox="0 0 284.3 276.4" style="enable-background:new 0 0 284.3 276.4;" xml:space="preserve">
<style type="text/css">
	.st0{fill-rule:evenodd;clip-rule:evenodd;}
</style>
<path class="st0" d="M262.9,128.7c-1.8,3.5-4.9,8.2-7.7,11.1c-225.2,0-225.2,0-225.2,0c-1.8-2.2-5.8-7.3-7.4-11.1H262.9z"/>
<path class="st0" d="M246.1,151.2c-206.8,0-206.8,0-206.8,0c3.3,4,6.8,7.5,10.6,10.1c184.6,0,184.6,0,184.6,0
	C239.2,158.7,243.4,155.2,246.1,151.2"/>
<path class="st0" d="M220.6,172c-56.8,0-56.8,0-56.8,0c-1.6,9-1.6,17.4-1.6,23.4C178.8,194.3,200.6,186.8,220.6,172"/>
<path class="st0" d="M284,55.3c-25.9,1.6-63.1,19-87.2,47.3c-4.4,5.1-8.4,10.1-11.5,15.5c83.1,0,83.1,0,83.1,0
	C279.8,95.7,285.6,73.4,284,55.3"/>
<path class="st0" d="M122.8,195.4c0.3-5.9,0.3-14.3-0.9-23.4c-57.2,0-57.2,0-57.2,0C85.1,186.8,106.9,194.3,122.8,195.4"/>
<path class="st0" d="M142.7,197.2c6-6.2,12.2-14.6,17.7-25.2c-35.6,0-35.6,0-35.6,0C130.8,182.6,136.3,191,142.7,197.2"/>
<path class="st0" d="M100.3,118c-3.1-5.3-7.3-10.4-11.5-15.5C64.7,74.3,27.3,56.8,2,55.3c-1.8,18.1,3.9,40.4,15,62.7H100.3z"/>
<path class="st0" d="M178.8,118c0.5-6.4,1.1-12.6,1.1-19.9c0-39.4-17.7-80-37.1-98.1c-19.6,18.1-36.9,58.7-36.9,98.1
	c0,7.3,0,13.5,1.1,19.9H178.8z"/>
<path class="st0" d="M262.4,276.4c11.7,0,21.6-4.7,21.6-16.6c0-6.6-4.9-11.3-12.4-13c-8-2-17.9-1.8-17.9-6.9
	c0.5-3.3,3.5-4.2,8.4-4.2c7.3,0,7.6,4,8,6.4c11.9,0,11.9,0,11.9,0c-0.9-9.3-8.4-15.7-20.5-15.7c-12.6,0-19.9,6.9-19.9,15.5
	c0,5.1,2.6,9.5,6.9,11.7c3,1.6,7.3,2.7,12.4,3.6c5.3,0.4,9.9,0.9,10.4,4.7c0,2.6-2.7,5.7-8.2,5.7c-8.2,0-10-4.7-10-7.8
	c-12.6,0-12.6,0-12.6,0C240.7,269.7,248.9,276.4,262.4,276.4"/>
<path class="st0" d="M210.4,265.1c-7.6,0-14-6.4-14-13.7c0-7.6,6.4-14,14-14c7.3,0,13.4,6.4,13.4,14
	C223.9,258.7,217.7,265.1,210.4,265.1z M223.9,227c0,3.6,0,3.6,0,3.6c-4-2.9-8.6-4.3-14.1-4.3c-13.7,0-25.2,11.1-25.2,25
	c0,13.7,11.5,25,25.2,25c5.5,0,10.1-1.6,14.1-4.3c0,3.1,0,3.1,0,3.1c12.2,0,12.2,0,12.2,0c0-48.2,0-48.2,0-48.2H223.9z"/>
<path class="st0" d="M154.9,265.1c-7.3,0-13.7-6.4-13.7-13.7c0-7.6,6.4-14,13.7-14c7.5,0,13.9,6.4,13.9,14
	C168.8,258.7,162.4,265.1,154.9,265.1z M168.8,210.5c0,20.1,0,20.1,0,20.1c-4.2-2.9-8.8-4.3-14.1-4.3c-14,0-25,11.1-25,25
	c0,13.7,11.1,25,25,25c5.3,0,10.1-1.6,14.1-4.3c0,3.1,0,3.1,0,3.1c11.9,0,11.9,0,11.9,0c0-64.7,0-64.7,0-64.7H168.8z"/>
<rect x="112.7" y="210.5" class="st0" width="12" height="11.9"/>
<rect x="112.7" y="227" class="st0" width="12" height="48.2"/>
<path class="st0" d="M81.1,265.1c-8,0-14.4-6.4-14.4-13.7c0-7.6,6.4-14,14.4-14c7.3,0,13.7,6.4,13.7,14
	C94.8,258.7,88.4,265.1,81.1,265.1z M94.8,210.5c0,20.1,0,20.1,0,20.1c-4.2-2.9-9-4.3-14.4-4.3c-13.7,0-25.2,11.1-25.2,25
	c0,13.7,11.5,25,25.2,25c5.3,0,10.2-1.6,14.4-4.3c0,3.1,0,3.1,0,3.1c12.2,0,12.2,0,12.2,0c0-64.7,0-64.7,0-64.7H94.8z"/>
<path class="st0" d="M25.2,265.1c-7.3,0-13.7-6.4-13.7-13.7c0-7.6,6.4-14,13.7-14c8,0,14.4,6.4,14.4,14
	C39.6,258.7,33.1,265.1,25.2,265.1z M39.6,227c0,3.6,0,3.6,0,3.6c-4.2-2.9-9.3-4.3-14.6-4.3c-13.7,0-25,11.1-25,25
	c0,13.7,11.3,25,25,25c5.5,0,10.4-1.6,14.6-4.3c0,3.1,0,3.1,0,3.1c11.7,0,11.7,0,11.7,0c0-48.2,0-48.2,0-48.2H39.6z"/>
<g>
</g>
<g>
</g>
<g>
</g>
<g>
</g>
<g>
</g>
<g>
</g>
<g>
</g>
<g>
</g>
<g>
</g>
<g>
</g>
<g>
</g>
<g>
</g>
<g>
</g>
<g>
</g>
<g>
</g>
</svg>
