<svg xmlns="http://www.w3.org/2000/svg" width="367.9" height="367.9"><style><![CDATA[.M{stroke-width:2}.N{stroke-width:1.5}]]></style><circle cx="184" cy="184" r="180.7" fill="#fff"/><path d="M184 40.4c-79.3 0-143.6 64.3-143.6 143.6S104.7 327.5 184 327.5 327.5 263.2 327.5 184c0-79.3-64.3-143.6-143.5-143.6zm0 282.2c-76.5 0-138.6-62.1-138.6-138.6S107.4 45.4 184 45.4s138.6 62 138.6 138.6S260.5 322.6 184 322.6zM184 .8C82.8.8.8 82.8.8 184s82 183.1 183.2 183.1 183.1-82 183.1-183.1C367.1 82.8 285.1.8 184 .8zm0 361.4C85.5 362.2 5.8 282.4 5.8 184 5.8 85.5 85.5 5.8 184 5.8c98.4 0 178.2 79.8 178.2 178.2S282.4 362.2 184 362.2z" stroke="#000" stroke-width="1.6" stroke-miterlimit="3.96"/><path d="M351 156.3l-2.2-10.4-.5.1.1.6c.1.6.1 1 0 1.4s-.3.6-.5.8-.8.4-1.9.6l-15.3 3.3-.3-1.5c-.2-.9-.3-1.6-.2-2 .2-.7.5-1.3 1-1.8s1.3-1 2.4-1.6l-.1-.5-5.4 1.1 3.9 17.8 5.4-1.2-.1-.5c-1.5.1-2.7-.2-3.7-.9-.7-.5-1.2-1.4-1.5-2.7l-.3-1.4 15.3-3.3c1-.2 1.6-.3 1.9-.2.4.1.6.2.8.4.3.3.5.8.6 1.3l.1.6h.5 0zm2.1 12.7h-.6c0 .6-.2 1.1-.5 1.4-.4.5-1.3 1.1-2.9 1.9l-16.3 8v.3l16.5 6.6c1.6.6 2.6 1.2 3.1 1.6s.8 1 1 1.8h.6l-.3-6.8h-.6c0 1.1-.1 1.7-.3 2-.2.5-.7.7-1.2.7a3.73 3.73 0 0 1-1.6-.4l-2-.8-.3-7.2 2.5-1.2 1.1-.5c.2-.1.3-.1.5-.1.3 0 .6.1.7.3.2.3.4.9.4 1.7v.4h.6l-.4-9.7h0zm-8.1-35.9l-3.7-10-.5.2.2.6c.2.5.3 1 .2 1.4s-.2.7-.4.9-.8.5-1.8.9l-12.5 4.6c-1 .4-1.6.5-1.8.5-.4 0-.6-.1-.9-.3-.3-.3-.6-.7-.8-1.2l-.2-.6-.5.2 3.7 9.9.5-.2-.2-.6c-.2-.5-.3-1-.2-1.4s.2-.7.4-.9.8-.5 1.8-.8l12.5-4.6c1-.4 1.5-.5 1.8-.5.4 0 .7.1.9.3.3.3.6.7.8 1.2l.2.6.5-.2h0zm8 70.4l-.6-.1-.1.7c-.1.6-.2 1-.4 1.3s-.5.5-.8.6-.9.1-2-.1l-15.5-2 .2-1.5c.1-.9.3-1.6.5-1.9.4-.6.9-1.1 1.5-1.4s1.6-.6 2.9-.7l.1-.5-5.4-.7-2.3 18.1 5.5.7.1-.6c-1.5-.4-2.5-1.1-3.2-2.1-.5-.7-.7-1.7-.5-3.1l.2-1.4 15.5 2c1 .1 1.6.3 1.9.4.3.2.5.4.6.7.2.4.2.9.2 1.4l-.1.7.6.1 1.1-10.6h0zm-18.7-95.4c-.2-1.2-.7-2.4-1.4-3.6-1.8-3.2-4.2-5-7.5-5.5-2.4-.4-4.8.1-7.1 1.3-2.6 1.5-4.3 3.5-5.1 6.3-.8 2.7-.3 5.5 1.3 8.3 1.3 2.7 3.4 4.4 6.1 5.3 2.8.8 5.5.5 8.1-.9 2.4-1.3 4-3.1 5-5.4.8-1.9 1-3.8.6-5.8h0zm-1.9-1.9c.3 1 .2 2-.2 3-.9 1.9-2.8 3.6-5.8 5.3-2.6 1.4-4.7 2.1-6.5 2.2-2.1.1-3.6-.7-4.5-2.3-.5-.9-.7-1.8-.6-2.7s.6-2 1.5-3c.9-1.1 2.6-2.3 4.9-3.6 2-1.1 3.7-1.7 5.2-2 1.5-.2 2.7-.2 3.7.3.8.4 1.4 1 1.9 1.9.2.2.3.5.4.9h0zm14.2 72.7l.3 6.1-7.1-2.8 6.8-3.3zm2.9 47.3l-.5-.2a2.73 2.73 0 0 1-.9 1.2c-.3.2-.9.5-2 .8l-8 2.6c.1-1.3-.1-2.3-.5-3.2-.6-1.3-1.7-2.2-3.1-2.6-1.2-.4-2.3-.3-3.4.1s-2 1.1-2.6 2.1c-.7 1-1.4 2.6-2.1 5l-2.8 9 .5.2c.3-.9.5-1.4.8-1.7a1.62 1.62 0 0 1 .9-.5c.3 0 1 .1 2.1.4l12.6 3.9c1 .3 1.7.6 1.9.8s.4.5.5.9 0 1-.3 1.9l.5.2 3.1-9.9-.5-.2c-.3.9-.5 1.5-.8 1.7s-.6.4-.9.5c-.3 0-1-.1-2.1-.4l-5.4-1.7.4-1.3 10.8-3.5 1.8-6.1h0zM322.2 87.8l-4.6-5.6-.4.3.3.4c.4.5.7 1.1.7 1.8s-.4 1.4-1.3 2.1l-10 8.2 4.4-21.3-.3-.4L297.9 84c-.7.6-1.3 1-1.7 1.1s-.8.1-1.1 0-.8-.5-1.4-1.1l-.4.3 4.2 5.2.4-.3c-.7-.9-1-1.7-.9-2.4.1-.5.6-1.2 1.6-2l6.8-5.5-3.5 15.7 4.6 5.6.4-.4c-.4-.5-.6-.9-.7-1.3s0-.9.1-1.6l.2-.7 11.1-9c.8-.7 1.6-1 2.2-.9s1.3.5 2 1.4l.4-.3h0zm14 144.5c0 .2.1.3.1.5 0 .7-.1 1.7-.5 3.1l-.2.8-8.5-2.6.5-1.5c.5-1.5 1.2-2.5 2.1-3s2.1-.5 3.6 0c1 .3 1.8.8 2.3 1.3.2.4.5.9.6 1.4h0zm0 26.1c-.2-.8-.4-1.5-.7-2.2-1-2.2-2.7-4-5-5.2-2.7-1.4-5.3-1.7-8.1-.8-2.7.9-4.8 2.7-6.2 5.7-1.5 2.6-1.8 5.3-1 8 .8 2.8 2.6 4.8 5.3 6.2 2.4 1.2 4.8 1.6 7.3 1.2 3.1-.6 5.5-2.5 7.2-5.8 1.3-2.5 1.6-4.8 1.2-7.1h0zm-1.7 3.9c.1.8-.1 1.7-.5 2.6-.7 1.4-1.8 2.2-3.2 2.4-2 .3-4.6-.4-7.6-2-2.6-1.4-4.4-2.7-5.4-4.2-1.2-1.7-1.4-3.4-.5-5.1.5-.9 1.1-1.6 2-2 .8-.4 2-.5 3.4-.4 1.4.2 3.3.9 5.7 2.1 2 1 3.5 2.1 4.5 3.2.8 1.3 1.4 2.3 1.6 3.4h0zm-14.6 26l-.4-.3c-.6.7-1 1.1-1.4 1.3-.3.2-.6.2-1 .2-.3-.1-.9-.4-1.8-1.1l-4.5-3.5c1.4-1.8 2.3-3.2 2.7-4.1.6-1.3.8-2.6.6-3.9-.2-1.2-.9-2.2-1.9-3-1.2-1-2.6-1.2-4.2-.9-1.6.4-3.3 1.7-5.1 4l-5.4 7 .5.4c.6-.7 1-1.2 1.4-1.3.3-.2.6-.2 1-.2.3.1.9.4 1.8 1.1l10.4 8.1c.9.7 1.4 1.1 1.5 1.4s.2.6.1 1-.4.9-.9 1.7l.4.3 6.2-8.2h0zm-8.5-7.6c.2 1-.1 1.9-.9 2.9-.1.1-.3.3-.5.6l-6.9-5.4.4-.5c.8-1 1.7-1.6 2.6-1.7 1-.1 2 .3 3.2 1.2 1.2 1 1.9 2 2.1 2.9h0zm-6.9 21.4a4.61 4.61 0 0 0-1.5-2.6c-.9-1-2-1.6-3.3-1.7-1.3-.2-3.2.1-5.8.9-1.8.6-3 .9-3.6 1-.8.1-1.4.1-2-.1-.4-.1-.7-.3-1-.6-.5-.5-.7-1.2-.7-2 .1-.8.4-1.6 1.2-2.3 1-.9 2.2-1.4 3.7-1.4s3 .5 4.4 1.5l.5-.4-4.8-4.8-.3.3c.3.5.5.9.5 1.1s-.1.4-.3.6-.7.4-1.4.6-1.3.5-1.7.7c-.6.3-1.1.7-1.6 1.1-1.3 1.2-2 2.7-2.1 4.4a5.21 5.21 0 0 0 1.6 4.2c.7.7 1.4 1.2 2.3 1.4.9.3 1.8.3 2.8.2s2.5-.5 4.5-1.1l3.1-.8c.7-.1 1.2 0 1.7.1s.9.4 1.3.7c.6.6.8 1.3.7 2.2s-.5 1.7-1.3 2.5c-1 1-2.4 1.5-4.1 1.6-1.7 0-3.4-.6-5.3-1.8l-.4.4 5.3 5.6.4-.4c-.2-.4-.2-.8-.1-1.2s.2-.6.4-.8.6-.4 1.1-.6c.9-.3 1.5-.6 2-.9a7.55 7.55 0 0 0 1.4-1.1c1.5-1.4 2.3-3 2.4-4.8.2-.5.2-1.1 0-1.7h0zm-17.3 19.7l-9.5-14c-.5-.8-.8-1.4-.9-1.8s-.1-.8.1-1.1c.1-.3.6-.8 1.2-1.3l-.3-.4-5.5 3.8.3.4c.9-.7 1.8-.9 2.5-.6.5.2 1.1.7 1.8 1.7l4.9 7.2-15.4-4.7-6 4.1.3.4c.5-.3 1-.5 1.4-.6.4 0 .9 0 1.5.2l.6.2 8.1 11.8c.6.9.9 1.7.8 2.3s-.6 1.3-1.5 1.9l.3.4 5.9-4.1-.3-.5-.4.3c-.6.4-1.2.6-1.8.5-.7 0-1.4-.6-2-1.5l-7.3-10.6 20.9 6.2.3-.2h0zM264.4 336l-.2-.5c-.6.2-1.1.2-1.5.1-.6-.2-1.5-.8-2.8-2l-13.5-12.2-.3.1v17.7c0 1.7-.1 2.9-.3 3.5s-.6 1.2-1.3 1.6l.2.5 6.1-2.8-.2-.5c-1 .4-1.6.5-1.9.5a1.53 1.53 0 0 1-1.2-.9c-.2-.4-.3-.9-.3-1.7v-2.2l6.5-2.9 2 1.9c.5.5.8.8.9.8.1.1.2.3.3.5a1.1 1.1 0 0 1 0 .8c-.2.3-.7.7-1.4 1l-.4.2.2.5 9.1-4h0zm-11.6-2.4l-5.6 2.5v-7.7l5.6 5.2h0zm-15.4 13.7l-.1-.5c-.5.1-1 0-1.5-.2-.3-.1-.9-.6-1.7-1.3l-6.4-5.5c1.1-.6 1.9-1.3 2.5-2 .8-1.2 1-2.5.7-4-.3-1.2-.9-2.1-1.8-2.9-.9-.7-2-1.1-3.2-1.2s-3 .2-5.3.8l-9.2 2.2.1.5c.9-.2 1.5-.3 1.9-.2s.7.3.9.5.4.9.7 2l3.2 12.8c.3 1.1.4 1.8.3 2.1s-.3.6-.5.8c-.3.2-.9.5-1.8.7l.1.5 10.1-2.5-.1-.5c-.9.2-1.6.3-1.9.2-.4-.1-.6-.2-.8-.5-.2-.2-.4-.9-.7-2l-1.4-5.5 1.3-.3 8.5 7.4 6.1-1.4h0zM226 335c.3 1 .3 1.9 0 2.7-.2.7-.6 1.3-1.2 1.7s-1.6.8-2.9 1.1l-.8.2-2.1-8.7 1.6-.4c1.6-.4 2.8-.3 3.7.2.8.7 1.4 1.7 1.7 3.2h0zm-20.5-1.3l-18.2 1.3.4 5.5h.6c.1-1.5.6-2.7 1.4-3.6.6-.6 1.5-1 2.9-1.1l1.4-.1 1.1 15.6c.1 1 .1 1.6 0 1.9s-.3.6-.6.8-.8.4-1.4.4l-.7.1v.5l10.6-.7v-.6h-.7c-.6 0-1 0-1.4-.2-.3-.2-.6-.4-.7-.6-.1-.3-.2-.9-.3-1.9l-1.1-15.6 1.5-.1c.9-.1 1.6 0 2 .2.7.3 1.3.7 1.7 1.2s.8 1.4 1.3 2.7h.5l-.3-5.7h0zm-38.2.1l-16.8-3.1-.1.5.7.1a3.2 3.2 0 0 1 1.3.5c.3.3.5.5.5.8.1.3 0 .9-.2 1.9l-2.4 13.1c-.2 1-.4 1.6-.5 1.8-.2.3-.4.5-.7.6-.4.1-.9.1-1.5 0l-.7-.1-.1.5 10.5 1.9.1-.6-.7-.1a3.2 3.2 0 0 1-1.3-.5c-.3-.3-.5-.5-.5-.8-.1-.3 0-.9.2-1.9l1.1-6.1.6.1c1.1.2 1.9.7 2.7 1.4.7.8 1 2.1.9 4l.5.1 1.8-10-.5-.1c-.3 1-.7 1.9-1.2 2.4-.5.6-1.1.9-1.7 1.1s-1.3.2-2.2 0l-.6-.1 1.5-8.2 1.8.3c1.6.3 2.7.5 3.2.8 1 .5 1.8 1.1 2.2 1.8.4.8.6 1.8.5 3.2l.6.1 1-5.4h0zm-25.8-1.2c-.2-.7-.4-1.3-.7-1.9-1.2-2.6-3.3-4.4-6.4-5.4-2.8-1.1-5.5-1.1-8.1.1s-4.4 3.2-5.5 6c-.9 2.5-1 5-.2 7.4 1 3 3.3 5.1 6.7 6.4 3.4 1.2 6.5 1 9.3-.8 2.1-1.3 3.6-3.2 4.5-5.6.8-2.2.9-4.2.4-6.2h0zm-4.4-3.2c.1.6.2 1.2.2 1.9 0 1.4-.4 3.4-1.4 5.9-.8 2.1-1.6 3.8-2.6 4.9-.9 1.2-1.9 1.9-3 2.2-.8.2-1.7.2-2.7-.2-1.4-.5-2.4-1.5-2.8-2.9-.6-2-.3-4.6.9-7.9 1-2.7 2.2-4.7 3.4-5.9 1.6-1.5 3.2-1.9 5-1.2.9.3 1.7.9 2.2 1.7.4.4.7.9.8 1.5h0zM72.5 85.6l-.4-.3-.4.5c-.3.5-.7.8-1.1.9s-.7.2-1 .1-.8-.4-1.6-1.1l-10.6-8.2c-.8-.6-1.3-1.1-1.4-1.3-.2-.3-.2-.7-.2-1 0-.4.3-.8.6-1.2l.4-.6-.4-.3-5.6 7.2c-.8 1-1.3 1.8-1.6 2.4-.6 1.2-1.1 2.4-1.3 3.4s-.2 2.1-.1 3.2c.2 1.1.6 2.1 1.3 3.2s1.6 2.1 2.7 3c1.6 1.3 3.4 2 5.3 2.3s3.7-.1 5.4-1c1.4-.8 2.9-2.1 4.4-4l5.6-7.2h0zM66.9 91c-1 1.3-1.9 2.2-2.6 2.6-1 .5-2.1.7-3.5.5-1.7-.3-3.6-1.2-5.7-2.8-2.6-2-4.1-3.9-4.6-5.8-.4-1.4 0-2.8 1-4.1.3-.4.6-.7.9-.8.2-.1.4-.1.6-.1.2.1.6.3 1.3.8L66.9 91h0zM101 308.7l-14.4-11.2-3.4 4.4.5.4c1.1-1 2.2-1.6 3.4-1.7.8-.1 1.8.3 2.9 1.1l1.2.9-9.6 12.4c-.6.8-1.1 1.3-1.3 1.4-.3.2-.6.2-.9.2-.4-.1-.9-.2-1.3-.6l-.5-.4-.3.4 8.4 6.5.3-.4-.5-.4c-.5-.4-.8-.7-.9-1.1s-.2-.7-.1-.9c.1-.3.4-.8 1.1-1.6l9.6-12.4 1.2.9c.7.6 1.2 1 1.4 1.4.3.7.5 1.4.5 2 0 .7-.3 1.6-.8 2.8l.4.3 3.1-4.4h0zM56.8 106.9l-.5-.3-.3.6c-.3.6-.7 1-1.1 1.2-.3.2-.6.2-1 .1l-1.5-.7-11.8-6.2c-.9-.5-1.4-.8-1.6-1-.2-.3-.4-.6-.4-.9 0-.4.1-.9.4-1.4l.3-.6-.5-.3-8.1 15.5 5.3 3.8.3-.5c-1.4-1.3-2.2-2.6-2.4-4.1-.2-1.4.1-3 .9-4.6l.6-1.1c.3-.5.6-.9.8-1 .3-.2.5-.2.8-.2s.9.3 1.9.8l5 2.6c-.5.9-.9 1.5-1.4 1.8s-1.1.5-1.9.5-1.8-.2-2.9-.7l-.2.5 9.4 4.9.3-.5c-1.3-.9-2.2-1.7-2.6-2.6s-.4-1.9.2-3l.2-.4 7.3 3.8-1 1.9c-.7 1.4-1.3 2.2-1.7 2.7-.7.7-1.5 1.1-2.3 1.3s-1.9 0-3.4-.4l-.3.5 5.3 2.8 7.9-14.8h0zM82 293.5l-4.6-4.9-.4.4c.8.8 1.1 1.6 1 2.3-.1.5-.6 1.2-1.5 2l-6.4 5.9 2.5-15.9-4.9-5.3-.4.4c.4.5.7.9.8 1.3s.1.9 0 1.6l-.1.7-10.6 9.7c-.8.7-1.5 1.1-2.1 1.1s-1.3-.4-2.1-1.3l-.4.4 4.9 5.3.4-.4-.3-.4c-.5-.5-.7-1.1-.8-1.8s.3-1.4 1.2-2.2l9.5-8.7-3.1 21.6.3.4 12.5-11.4c.7-.6 1.2-1.1 1.6-1.2s.8-.2 1.1-.1.8.4 1.5 1l.4-.5h0zM45.6 129.4l-.5-.2c-.3.9-.6 1.5-.8 1.7-.3.3-.6.4-.9.5-.3 0-1-.1-2-.5l-12.5-4.1c-1-.3-1.7-.7-1.9-.9s-.4-.5-.4-.9c-.1-.4 0-1 .3-1.9l-.5-.2-3.2 9.8.5.2c.3-.9.6-1.5.8-1.7a1.62 1.62 0 0 1 .9-.5c.3 0 1 .1 2 .5l5.4 1.8c-.7 2.2-1.2 3.8-1.2 4.8-.1 1.5.1 2.8.8 3.8.6 1.1 1.6 1.8 2.8 2.2 1.5.5 2.9.3 4.3-.6s2.5-2.7 3.5-5.5c-.2.1 2.6-8.3 2.6-8.3zm-3.4 6.7l-.2.6c-.4 1.2-1 2.1-1.9 2.5s-2 .4-3.5-.1c-1.4-.5-2.4-1.1-2.9-2s-.5-1.9-.1-3c.1-.2.1-.4.2-.7l8.4 2.7zm21.2 135.7l-9.2-14.3-.5.3.4.6c.4.6.5 1.1.5 1.5 0 .3-.1.6-.4.9-.1.2-.6.5-1.4 1L41.6 269c-.9.6-1.4.9-1.7.9-.4.1-.7 0-.9-.1-.4-.2-.7-.5-1-1l-.4-.6-.5.3 9.5 14.8 5.9-2.7-.3-.5c-1.8.6-3.3.6-4.7.1s-2.6-1.5-3.6-3.1l-.6-1c-.3-.5-.5-.9-.5-1.2s.1-.6.2-.8c.2-.2.7-.6 1.6-1.2l4.8-3.1c.5.8.8 1.5.9 2.1s-.1 1.2-.5 1.9-1.1 1.5-2 2.2l.3.4 8.9-5.8-.3-.5c-1.4.7-2.6 1.1-3.6 1-1 0-1.9-.6-2.6-1.7l-.2-.3 6.9-4.5 1.1 1.8c.8 1.3 1.3 2.2 1.5 2.8.3 1 .3 1.9 0 2.6-.3.8-.9 1.7-2 2.7l.3.5 5.3-3.2h0zM37.6 161.6l-14.9-9.7c-1.4-.9-2.4-1.6-2.8-2.2-.4-.5-.6-1.2-.6-1.9l-.5-.1-1.1 6.7.6.1c.2-1 .5-1.7.7-1.9a1.3 1.3 0 0 1 1.3-.5c.4.1.9.3 1.5.7l1.9 1.2-1.1 7.1-2.7.7-1.2.3h-.5c-.3 0-.5-.2-.6-.5-.2-.3-.2-.9-.1-1.7l.1-.4-.6-.1-1.5 9.7.6.1c.1-.6.4-1 .7-1.3.5-.4 1.6-.8 3.2-1.3l17.6-4.7v-.3h0zm13.9 91.7l-3.1-7.6-14.5-.1 10.3-10.3-3.1-7.7-.5.2.2.6c.2.5.3 1 .2 1.4s-.2.7-.4.9-.8.5-1.7.9L27 236.4l-1.5.5c-.5.1-.9.1-1.2 0s-.6-.3-.9-.6-.5-.7-.7-1.1l-.1-.2-.5.2 2.6 6.4.5-.2c-.3-.9-.5-1.5-.3-2.1.1-.5.4-.9.8-1.2.2-.1.8-.4 1.7-.7l13.3-5.4-14.1 14.2.1.3 20.1.3-14 5.6c-.9.4-1.5.6-1.8.5-.4 0-.7-.1-.9-.3-.3-.3-.6-.7-.8-1.2l-.2-.6-.5.2 4 9.8.5-.2-.2-.6c-.2-.5-.3-1-.2-1.4s.2-.7.4-.9.8-.5 1.7-.9l12.4-5c.9-.4 1.5-.6 1.8-.5.4 0 .7.1.9.3.3.3.6.7.8 1.2l.2.6.6-.1h0zm-16.3-76.1h-.6c0 .9 0 1.5-.2 1.9-.2.3-.4.6-.7.7s-1 .2-2.1.2l-13.2.3c-1.1 0-1.8 0-2.1-.2-.3-.1-.5-.3-.7-.7-.2-.3-.3-1-.3-1.9h-.6l.2 10.4h.5c0-.9.1-1.6.2-1.9.2-.3.4-.6.7-.7s1-.2 2.1-.2l5.7-.1v1.3L15 193l.1 6.4h.5c0-.5.2-1 .5-1.4.2-.3.8-.7 1.6-1.4l6.8-5c.3 1.2.8 2.2 1.5 2.9 1 1.1 2.2 1.6 3.7 1.5 1.2 0 2.3-.4 3.2-1.2.9-.7 1.5-1.7 1.8-2.8s.5-3 .4-5.4l.1-9.4h0zm-4.1-18.5l-7.4 1.9.9-6.1c0 .1 6.5 4.2 6.5 4.2zm3.2 26.1l.1 1.6c0 1.6-.3 2.8-1 3.5S31.5 191 30 191c-1.1 0-1.9-.1-2.6-.5s-1.2-.9-1.4-1.6c-.3-.7-.4-1.7-.4-3.1v-.9l8.7-.1h0zm2.2 19.3l-5.4 1.1.1.6c1.5-.1 2.7.2 3.7.9.7.5 1.2 1.4 1.4 2.8l.3 1.4-15.4 3c-1 .2-1.6.3-1.9.2-.4-.1-.6-.2-.8-.5-.3-.3-.5-.8-.6-1.3l-.1-.6-.5.1 2 10.4.6-.1-.1-.7c-.1-.6-.1-1 0-1.4s.3-.6.5-.8.9-.3 1.9-.5l15.4-3 .3 1.5c.2.9.2 1.6.1 2-.2.7-.5 1.3-1 1.8s-1.3 1-2.5 1.6l.1.5L40 222l-3.5-17.9h0z"/><path d="M118 25.7l-9.9 4.2.2.5.6-.3c.5-.2 1-.3 1.3-.3.4 0 .7.2.9.4s.5.8.9 1.7l5.3 12.4c.4.9.6 1.6.6 1.8 0 .4-.1.7-.3.9-.2.3-.6.6-1.2.8l-.6.3.2.5 16.5-7-2.1-6.9-.6.2c.2 1.7.2 2.9.1 3.9-.2 1-.5 1.8-1 2.4s-1.3 1.1-2.3 1.6l-1.5.7c-.9.4-1.5.6-1.7.6-.4 0-.7-.1-.9-.3s-.5-.8-.9-1.7l-5.1-12c-.4-.9-.6-1.6-.6-1.8 0-.4.1-.7.3-.9.2-.3.7-.6 1.2-.9l.8-.3-.2-.5h0zm30-9.8l-3.6 17.4c-.3 1.7-.7 2.8-1 3.4-.4.6-.9 1-1.6 1.3l.1.5 6.6-1.4-.1-.5c-1 .1-1.8.1-2 0-.5-.2-.8-.5-.9-1.1-.1-.4-.1-1 .1-1.7l.4-2.1 7-1.5 1.6 2.2.7 1c.1.2.2.3.2.5.1.3 0 .6-.2.8-.3.3-.8.5-1.5.7l-.4.1.1.6 9.5-2-.1-.5c-.6.1-1.1 0-1.5-.3-.5-.3-1.3-1.1-2.3-2.5L148.4 16l-.4-.1h0zM88.2 41.4l-.2.1 3.1 17.6c.3 1.7.4 2.9.3 3.5-.1.7-.4 1.3-1 1.8l.3.4 5.6-3.8-.3-.4c-.9.5-1.5.8-1.8.8-.5 0-1-.2-1.3-.6a9.12 9.12 0 0 1-.6-1.6l-.4-2.2 5.9-4 2.3 1.5 1 .7c.2.1.3.3.4.4.2.2.2.5.1.8-.1.4-.5.8-1.2 1.2l-.4.2.3.5 8.1-5.5-.3-.5c-.5.3-1 .4-1.5.3-.6-.1-1.6-.6-3.1-1.5l-15.3-9.7h0zM171 12.7v.6c.9 0 1.5.1 1.9.2.3.2.6.4.7.7s.2 1 .3 2.1l.3 13.2-.1 2.1c-.1.3-.4.5-.7.7s-.9.3-1.9.3v.6l10.3-.2c2.9-.1 5-.7 6.5-1.9 1.2-1 1.8-2.3 1.7-3.8 0-1.5-.6-2.6-1.8-3.5-.8-.6-2.2-1.2-4.1-1.6 1.8-.5 3-1.1 3.7-1.9a3.94 3.94 0 0 0 1-2.7c0-.9-.3-1.8-.9-2.6s-1.4-1.4-2.3-1.8c-1-.4-2.6-.6-4.9-.5H171h0zM147.7 23l4.4 6.2-6 1.3 1.6-7.5zM90.3 48.2l6.4 4.1-5.1 3.4-1.3-7.5zm88.3-34.5c1.5 0 2.5.1 3.2.4s1.2.7 1.5 1.3c.4.6.6 1.3.6 2.2s-.1 1.6-.5 2.2c-.3.6-.9 1.1-1.5 1.4-.7.3-1.7.5-3.1.6l-.2-8.1zm.2 9.2c1.5 0 2.7.1 3.4.4a3.14 3.14 0 0 1 1.8 1.6c.5.7.7 1.6.7 2.5 0 .8-.2 1.6-.5 2.3s-.8 1.2-1.5 1.6-1.4.6-2.2.6c-.5 0-1-.1-1.2-.4-.3-.3-.4-.7-.4-1.2v-.8l-.1-6.6h0zm34.5-8.2l-9.8 14.8c-.9 1.4-1.7 2.3-2.2 2.7s-1.2.6-1.9.6l-.1.6 6.7 1.2.1-.5c-1-.3-1.6-.5-1.9-.7-.4-.3-.6-.8-.5-1.4.1-.4.3-.9.7-1.5l1.2-1.8 7.1 1.2.6 2.7.3 1.2v.5c0 .3-.2.5-.4.6-.4.2-.9.2-1.7 0l-.4-.1-.1.5 9.7 1.7.1-.5c-.6-.2-1-.4-1.3-.8-.4-.5-.8-1.6-1.2-3.2l-4.4-17.7-.6-.1h0zm-3 6.4l1.8 7.4-6-1.1c0 .1 4.2-6.3 4.2-6.3zm26.2-.7l-.2.5.6.3c.5.2.9.5 1.1.8s.4.6.4.9-.2.9-.6 1.8L233 36.6l-.6 1.4c-.3.4-.6.7-.8.8-.3.2-.6.2-1.1.2-.4 0-.8-.1-1.2-.3l-.2-.1-.2.5 6.4 2.7.2-.5c-.9-.4-1.4-.8-1.7-1.2-.3-.5-.4-1-.3-1.5 0-.2.3-.8.6-1.7l5.4-13.2.4 20.1.3.1 14.2-14.1-5.7 13.9c-.4.9-.7 1.5-.9 1.7-.3.3-.5.4-.8.4-.4.1-.9 0-1.4-.3l-.6-.3-.2.5 9.8 4.1.2-.5-.6-.3c-.5-.2-.9-.5-1.2-.8-.2-.3-.4-.6-.4-.9s.2-.9.6-1.9l5.1-12.4c.4-.9.6-1.5.8-1.7.3-.2.6-.4.8-.4.4-.1.9 0 1.4.3l.6.3.2-.5-7.6-3.2-10.1 10.3-.2-14.6-7.7-3.1h0zm46 23.1l-15.2 9.1c-1.4.9-2.5 1.4-3.2 1.5s-1.3 0-2-.3l-.3.4 5.5 3.9.3-.5c-.8-.7-1.3-1.2-1.4-1.4-.2-.5-.2-1 .2-1.4.2-.4.7-.7 1.3-1.1l1.8-1.1 5.9 4.1-.6 2.7c-.1.7-.2 1.1-.3 1.2-.1.2-.1.4-.2.5-.2.2-.4.4-.7.4-.4 0-.9-.3-1.5-.7l-.3-.2-.3.5 8 5.6.3-.4c-.5-.4-.8-.8-.9-1.3-.1-.6 0-1.7.3-3.4l3.5-17.9-.2-.2h0zm-5.4 4.6l-1.5 7.5-5-3.5 6.5-4z"/><use href="#B"/><use href="#B" x="220.9"/><path d="M257.3 66.1h0l-26.4.3h-.3l-22.1-.5-62.4-.4-17.8-.1-7.1.1 5.8 3.8-18.6-1.6c21.8-14.2 47.8-22.5 75.7-22.5 26.8 0 51.9 7.6 73.2 20.9h0z" fill="#003380"/><path d="M128.7 282.4l2.8 1.1 1.3.5 5.5 14.2-.2 2.2-6.6 3.8 6 1.4 14.6-4.1v-.2l7.7-.5 13.8-3.4 13.4.3 13.1 2.2 13.2 3.1 19.6 7.9.4 1.9.2.6c-15.4 5.9-32 9.1-49.5 9.1-30.1 0-58-9.6-80.8-26v-.1h8.5v.1l7.1.6 1.4.5 3.5-5.9 4.2-9.5.8.2h0z" fill="#0055d4"/><path d="M264.2 276.9l22.8-.3c-14.6 16.1-32.9 28.8-53.6 36.7l-.2-.6-.4-1.9-19.6-7.9-13.2-3.1-13.1-2.2-13.4-.3-13.8 3.4-7.7.5 1.1-18.1-5.3-5-3.4-4.4 1.4-6.9 22.9-.6 57.4-.8 15.2.1 14 1.4h1.9l4 6.3 3 3.7h0zM126.5 72.4l-.7 6.7-3.5 37.7-4.9 38.7-4 31.4-3.6 31.8 1.8 43 .1 34.7h-8.5v.1c-35-25.1-57.8-66.2-57.8-112.6 0-48.6 25-91.3 62.9-116.1l18.6 1.6-.4 3z" fill="#b20000"/><path d="M322.6 183.8c0 35.7-13.5 68.2-35.6 92.8l-22.8.3-2.9-3.6-4-6.3h2.7l-1-8.2-3-2.2-1.2-2 2.3-5.3.5-12.1L255 227l.8-4.3 1.8-7.2 5.1-10.6.1-4.8-4.1-2.3-.3-7.8-5-8.3-3.2-14.7-1.6-16-2.5-11.3-.9-7-.9-7.2-2.7-19.5-.5-3.4-5.7-18.7-.7-7.8.1-4.8.3-4.7h-3.8-.7l26.4-.3c39.5 24.3 65.6 67.8 65.6 117.5h0z" fill="#076500"/><path d="M285.2 127.4l-3.2.4v-.2c.8-.4 1.5-.9 1.8-1.6.4-.7.5-1.3.5-2-.1-.7-.3-1.2-.8-1.6s-1-.7-1.7-.8-1.4-.1-2.1 0c-.9.1-1.6.3-2.3.6-.6.3-1.1.7-1.3 1.2-.3.5-.3 1.1-.3 1.7 0 .2.1.4.1.7.1.2.2.5.3.7l1.9-.2c.4 0 .6-.1.7-.2l.3-.3c.1-.2.1-.4.1-.6v-.2h.2l.5 4.4h-.2c-.1-.3-.1-.6-.2-.7a1.38 1.38 0 0 0-.4-.3h-.6l-1.9.2c-.3-.6-.6-1.1-.8-1.7s-.4-1.3-.4-1.9c-.1-.9-.1-1.6.1-2.2s.4-1.1.7-1.6.7-.9 1.2-1.2c.6-.4 1.3-.6 2-.7 1.4-.2 2.6.2 3.6 1a4.65 4.65 0 0 1 1.8 3.5c.1.5.1.9 0 1.2 0 .2-.1.5-.2 1l-.2.8c0 .1.1.2.2.3s.3.2.6.3h0 0zm.5 10.5l-3.7.4v.2c.1.6.3 1 .7 1.2s.9.3 1.7.3v.2l-4.8.6v-.2c.5-.1.9-.3 1.2-.5s.5-.4.6-.7c.1-.2.1-.6.1-1l-2.6.3c-.5.1-.8.1-.9.2s-.2.1-.2.3c-.1.1-.1.3 0 .6l.1.5c.1.9.4 1.5.8 2 .5.5 1.1.8 1.9.9v.2l-2.9-.1-.9-7.9h.2v.3c0 .3.1.5.2.6s.2.2.4.2h.9l6-.7c.4 0 .7-.1.8-.1.1-.1.3-.2.3-.3.1-.2.1-.4.1-.7v-.3h.2l.9 7.6-2.7.3v-.2c.6-.2 1.1-.4 1.4-.7s.4-.6.5-1.1c.1-.3 0-.7 0-1.4l-.3-1h0zm2.5 16.2c.2 1.4-.1 2.7-.9 3.7s-1.9 1.6-3.2 1.8c-1.2.1-2.2-.1-3.2-.7-1.3-.8-2-2-2.2-3.6s.2-3 1.2-4c.8-.8 1.8-1.3 3-1.4 1.4-.2 2.5.2 3.5 1 1.2.8 1.7 1.9 1.8 3.2h0zm-.4.2c-.1-.8-.6-1.4-1.5-1.8-.7-.3-1.8-.3-3.1-.2-1.6.2-2.7.6-3.3 1.2-.5.4-.7 1-.6 1.7.1.5.2.8.5 1.1.3.4.8.6 1.5.8.7.1 1.5.2 2.5 0 1.2-.1 2.1-.4 2.7-.7s1-.6 1.2-1c.1-.3.2-.7.1-1.1h0zm-2.9 15l-2.6.3c-.5.1-.8.1-.9.2s-.2.2-.3.4-.1.5 0 .9h-.2l-.6-4.7h.2c.1.4.1.7.2.8l.3.3h.9l5.9-.7c.5-.1.8-.1.9-.2s.2-.2.3-.4.1-.5 0-.9h.2l.5 4.2c.1 1.1.2 1.9.1 2.4s-.3 1-.7 1.4-.8.6-1.4.7a2.27 2.27 0 0 1-1.8-.5c-.3-.3-.6-.7-.8-1.2l-2.8 2.6c-.4.3-.6.6-.7.7-.1.2-.2.4-.2.7h-.2l-.3-2.9 3.8-3.4.2-.7h0zm4.4-.5l-4 .5v.4l.3 1.4c.1.3.4.5.7.7.3.1.7.2 1.2.1.7-.1 1.2-.3 1.5-.7s.4-.9.3-1.6v-.8h0zm3.3 21.1l-3.2.4v-.2c.8-.4 1.5-.9 1.8-1.6.4-.7.5-1.3.5-2.1-.1-.7-.3-1.2-.8-1.6-.4-.4-1-.7-1.7-.8s-1.4-.1-2.1 0c-.9.1-1.6.3-2.3.6-.6.3-1.1.7-1.3 1.2-.3.5-.3 1.1-.3 1.7 0 .2.1.4.1.7s.2.5.3.7l1.9-.2c.4 0 .6-.1.7-.2l.3-.3c.1-.2.1-.4.1-.6v-.2h.2l.5 4.4h-.2c-.1-.3-.1-.6-.2-.7a1.38 1.38 0 0 0-.4-.3h-.6l-1.9.2c-.3-.6-.6-1.1-.8-1.8-.2-.6-.4-1.3-.4-1.9-.1-.9-.1-1.6.1-2.2s.4-1.1.7-1.6.7-.9 1.2-1.2c.6-.4 1.3-.6 2-.7 1.4-.2 2.6.2 3.6 1a4.65 4.65 0 0 1 1.8 3.5c.1.5.1.9 0 1.2 0 .2-.1.5-.2 1l-.2.8c0 .1.1.2.2.3s.3.2.6.2v.3h0zm-7.7 12.9h-.2l-.6-4.8h.2v.3c0 .3.1.5.2.6s.2.2.4.2h.9l6-.7c.5-.1.8-.1.9-.2l.3-.3c.1-.2.1-.4.1-.6v-.3h.2l.6 4.8h-.2v-.3c0-.3-.1-.5-.2-.6s-.2-.2-.4-.2h-.9l-6 .7c-.5.1-.8.1-.9.2l-.3.3c-.1.2-.1.4-.1.6v.3zm3.7 11.2l-.4-3.2-.9-.3c-.3-.1-.6-.1-.8-.1-.3 0-.4.2-.5.4-.1.1-.1.4-.1.9h-.2l-.4-3h.2c.1.3.3.6.5.8s.7.4 1.5.6l7.7 2.4v.1l-7.1 4.2c-.7.4-1.1.7-1.2.9s-.2.4-.2.7h-.2l-.5-4.4h.2v.2c0 .4.1.6.2.7s.2.1.3.1.2 0 .2-.1c0 0 .2-.1.5-.3l1.2-.6h0zm.5-.2l3-1.7-3.3-1 .3 2.7zm-115.6 63.4v3.8h.3c.4 0 .7-.1 1-.2s.5-.3.7-.6.3-.7.4-1.2h.2l-.1 4.6h-.2c-.1-.9-.3-1.5-.7-1.7s-.8-.4-1.3-.4h-.3v2.8c0 .5 0 .8.1.9 0 .1.1.2.3.3.1.1.4.1.6.1h.3v.2l-4.8-.1v-.2h.3c.3 0 .5 0 .6-.1l.3-.3c.1-.1.1-.4.1-.9l.1-6c0-.5 0-.8-.1-.9 0-.1-.1-.2-.3-.3s-.4-.1-.6-.1h-.3v-.2l7.7.1v2.6h-.3c-.1-.6-.2-1.1-.5-1.4s-.6-.5-1.1-.6c-.3-.1-.8-.1-1.5-.1l-.9-.1h0zm13.5 5.6l-.4 3.2-8.1-.1v-.2h.3c.3 0 .5 0 .6-.1l.3-.3c.1-.1.1-.4.1-.9l.1-6c0-.5 0-.8-.1-.9 0-.1-.1-.2-.3-.3-.1-.1-.4-.1-.6-.1h-.3v-.2l4.9.1v.2h-.4c-.3 0-.5 0-.6.1l-.3.3c-.1.1-.1.4-.1.9l-.1 5.8c0 .5 0 .8.1.9l.3.3c.1 0 .4.1.8.1h.8a3.73 3.73 0 0 0 1.2-.2c.3-.2.6-.4.9-.8s.5-.9.7-1.6l.2-.2h0zm6-6c1.5 0 2.6.4 3.5 1.3s1.3 2.1 1.3 3.4c0 1.2-.4 2.2-1.1 3.1-.9 1.2-2.2 1.7-3.8 1.7-1.7 0-2.9-.6-3.8-1.7-.7-.9-1-1.9-1-3.2 0-1.4.5-2.5 1.4-3.4 1-.9 2.2-1.3 3.5-1.2h0zm.1.4c-.8 0-1.5.4-1.9 1.3-.4.7-.6 1.7-.6 3 0 1.6.2 2.7.8 3.5.4.5.9.8 1.6.8.5 0 .9-.1 1.2-.3.4-.3.7-.7.9-1.4a8.15 8.15 0 0 0 .4-2.5c0-1.2-.1-2.1-.3-2.7a3.22 3.22 0 0 0-.8-1.3c-.4-.3-.8-.4-1.3-.4h0zm9.1 4.8v2.6c0 .5 0 .8.1.9l.3.3c.2.1.4.1.9.1v.2l-4.7-.1v-.2c.4 0 .7 0 .9-.1s.3-.2.3-.3c.1-.1.1-.4.1-.9l.1-6c0-.5 0-.8-.1-.9l-.3-.3c-.2-.1-.4-.1-.9-.1v-.2l4.3.1c1.1 0 1.9.1 2.4.3s.9.4 1.2.9c.3.4.5.9.5 1.5 0 .7-.3 1.2-.8 1.7-.3.3-.8.5-1.3.6l2.2 3.1.6.8c.2.1.4.2.6.2v.2h-2.9l-2.9-4.2-.6-.2h0zm.1-4.5l-.1 4h.4c.6 0 1.1 0 1.4-.2.3-.1.6-.3.7-.6.2-.3.3-.7.3-1.2 0-.7-.1-1.2-.5-1.6-.3-.3-.8-.5-1.6-.5l-.6.1h0z"/><path d="M213.7 286.1v.2l-4.8-.1v-.2h.3c.3 0 .5 0 .6-.1l.3-.3c.1-.1.1-.4.1-.9l.1-6c0-.5 0-.8-.1-.9 0-.1-.1-.2-.3-.3-.1-.1-.4-.1-.6-.1h-.3v-.2l4.8.1v.2h-.3c-.3 0-.5 0-.6.1l-.3.3c-.1.1-.1.4-.1.9l-.1 6c0 .5 0 .8.1.9l.3.3c.1.1.4.1.6.1h.3zm.6.2v-.2h.3c.3 0 .5 0 .6-.1s.3-.2.3-.3.1-.4.1-.9l.1-6c0-.5 0-.8-.1-.9l-.3-.3c-.1-.1-.4-.1-.6-.1h-.3v-.2l4.1.1c1.1 0 2 .2 2.6.5.8.4 1.4.9 1.8 1.7.4.7.6 1.6.6 2.5 0 .6-.1 1.2-.3 1.8-.2.5-.5 1-.8 1.3-.3.4-.7.6-1.2.8-.4.2-1 .4-1.6.5-.3.1-.7.1-1.3.1l-4-.3h0zm3.6-8.6l-.1 7.2v.7c0 .1.1.2.2.2.1.1.3.1.5.1.8 0 1.3-.2 1.7-.8.6-.7.8-1.8.9-3.2 0-1.2-.2-2.1-.5-2.8-.3-.6-.7-.9-1.1-1.1-.3-.2-.8-.3-1.6-.3h0zm12.2 6.2h-3.2l-.4.9c-.1.3-.2.5-.2.7 0 .3.1.4.3.6.1.1.4.1.9.2v.2h-3.1v-.2c.3 0 .6-.2.8-.4s.5-.7.8-1.4l3.4-7.3h.1l3.2 7.6c.3.7.6 1.2.8 1.4l.6.3v.2l-4.4-.1v-.2h.2c.4 0 .6 0 .8-.1.1-.1.2-.2.2-.3v-.3s-.1-.2-.2-.5l-.6-1.3h0zm-.2-.5l-1.3-3.2-1.5 3.1 2.8.1zm-71.8 24.1h.2.3.3.2.2c.1 0 .1 0 .2.1.1 0 .1.1.1.1s.1.1.1.2v.2c0 .1-.1.2-.1.2-.1.1-.1.2-.2.2s-.1.2-.2.2c-.1-.2-.1-.3-.3-.4-.1-.1-.2-.2-.4-.3-.1-.1-.3-.1-.5-.1s-.4 0-.5.1c-.2 0-.4.1-.5.2-.2.1-.3.2-.5.3-.1.1-.3.2-.4.4-.1.1-.2.3-.3.5s-.2.4-.2.6c-.1.2-.1.5-.1.7v.9c0 .3.1.7.1 1 0 .1.1.3.1.4a.76.76 0 0 0 .2.4c.1.1.1.3.2.4l.3.3c.1.1.2.2.4.3s.3.1.4.2c.2 0 .3.1.5.1s.4 0 .5-.1c.2-.1.5-.2.7-.3s.4-.2.6-.4l-.2-2.1-.9.1v-.2c.2 0 .4-.1.6-.1s.4-.1.6-.1.4-.1.6-.2.4-.1.6-.2v.2l-.7.3c0 .3.1.6.1.9s.1.6.1.9c-.2.2-.4.4-.6.5-.2.2-.4.4-.7.5-.2.2-.5.3-.7.4l-.8.3c-.2 0-.4.1-.6.1s-.4 0-.5-.1c-.2 0-.3-.1-.5-.2-.1-.1-.3-.2-.4-.3s-.2-.2-.3-.4a.76.76 0 0 1-.2-.4c-.1-.1-.1-.3-.2-.4s-.1-.3-.1-.4c-.1-.3-.1-.5-.1-.8v-.9c0-.3.1-.6.2-.9s.2-.6.4-.8c.1-.3.3-.5.5-.8s.4-.5.6-.6.5-.4.8-.5c.4-.1.7-.2 1-.2h0zm4.8 1.4h.1l.1.1.1.1v.1 1c0 .3 0 .6-.1 1 0 .3 0 .6-.1 1v1 .1.1l.1.1h.1c.1 0 .2-.1.3-.2a1.38 1.38 0 0 0 .3-.4c.1-.2.2-.3.3-.5l.3-.6c.1-.2.2-.4.3-.7.1-.2.2-.5.2-.7s.1-.4.1-.6v-.6l.8-.6c0 .3-.1.7-.1 1v1.1 1.1 1.1.1.1l.1.1h.1c.1 0 .1 0 .1-.1l.1-.1.1-.1.1-.1.1.1c-.1.1-.2.3-.3.4s-.2.3-.3.4l-.3.3c-.1.1-.2.1-.3.2h-.1l-.1-.1-.1-.1v-.1-.6-.6-.6-.6c-.1.1-.2.3-.3.4-.1.2-.2.3-.3.5s-.2.3-.3.5-.2.3-.3.5a1.38 1.38 0 0 1-.3.4c-.1.1-.2.3-.3.4l-.3.3c-.1.1-.2.1-.3.1h-.1l-.1-.1-.1-.1v-.1-.9c0-.3 0-.6.1-.9 0-.3 0-.6.1-.9v-1-.1-.1-.1c-.1 0-.1 0-.1.1l-.1.1-.1.1-.1.1-.1-.1c.1-.1.2-.2.3-.4a1.38 1.38 0 0 1 .3-.4l.3-.3c-.1-.5 0-.6.1-.6h0zm7.8-4.8h.2.2l.1.1c0 .1.1.1.1.3v.1.1s0 .1-.1.1c0 0 0 .1-.1.1-.1-.1-.3-.1-.4-.1s-.3 0-.4-.1h-.2c-.1 0-.1.1-.2.2s-.1.2-.2.3-.1.2-.2.3-.1.3-.1.4c0 .2-.1.3-.1.5s-.1.4-.1.5c0 .2-.1.4-.1.6s0 .4-.1.6v.6.6.6.6.5.5.4.1.1l.1.1h.1.1l.1-.1.1-.1.1-.1.1.1-.2.2-.2.2c0 .1-.1.1-.2.2l-.2.2-.2.2-.2.2c-.1 0-.1.1-.2.1s-.1.1-.2.1h-.1l-.1-.1v-.2-.1-.8-.9c0-.3 0-.6.1-.9 0-.3.1-.6.1-.9s.1-.6.1-.9.1-.6.2-.9.1-.6.2-.8c.1-.3.1-.5.2-.8s.2-.6.4-.8c.1-.2.3-.5.4-.6.2-.2.3-.3.5-.4s.4-.1.6-.2h0zm3.2-.1h.2c.1 0 .1 0 .2.1.1 0 .1.1.2.1 0 0 .1.1.1.2v.2c0 .1 0 .2-.1.3-.1 0-.1 0-.2-.1-.1 0-.2 0-.2-.1-.1 0-.2 0-.3-.1h-.3c-.1 0-.3.1-.4.1l-.3.3c-.1.1-.1.3-.2.5s-.1.4-.1.5c0 .2-.1.4-.1.6s0 .4-.1.6c0 .2 0 .4-.1.5 0 .2 0 .3-.1.4h.2.2.2.2.2.2c.1 0 .1 0 .2-.1.1 0 .1-.1.2-.1l-.3.3c-.1.1-.3.1-.4.2-.1 0-.3.1-.5.1h-.5v.9c0 .3 0 .6-.1 1 0 .3-.1.7-.1 1s-.1.7-.1 1c-.1.3-.1.6-.2.9s-.1.6-.2.9-.2.5-.3.7-.2.4-.3.5c-.1.2-.3.3-.4.5-.1.1-.2.3-.3.4l-.3.3c-.1.1-.2.1-.3.2s-.2.1-.4.2c-.1 0-.3.1-.4.1s-.3.1-.5.1-.4.1-.6.1h-.5c-.1 0-.3-.1-.4-.1l-.2-.2c-.1-.1-.1-.2-.1-.2v-.1s0-.1.1-.1c0 0 0-.1.1-.1 0 0 0-.1.1-.1.1.1.2.1.3.2s.2.1.4.2a.9.9 0 0 0 .5.1h.7c.3 0 .6-.1.8-.2s.5-.2.6-.4c.2-.2.3-.4.5-.6.1-.2.2-.5.3-.8.1-.2.1-.5.2-.8s.1-.5.1-.8.1-.6.1-.9.1-.6.1-.9 0-.6.1-.8v-.8-.7c0-.2 0-.4.1-.6h-.2-.2-.2s-.1.1-.2.1h-.1c.1-.1.2-.1.3-.2s.2-.1.3-.2.2-.1.3-.2c.1 0 .2-.1.3 0 0-.3 0-.5.1-.8 0-.3.1-.5.2-.8.1-.2.2-.5.2-.7.1-.2.2-.4.3-.7.1-.2.2-.4.4-.6l.4-.4c.1-.1.3-.2.4-.3-.1.2 0 .2.2.2h0zm5.7 3.7h.3c.1 0 .2.1.2.1.1 0 .1.1.2.2s.1.1.1.2.1.1.1.2 0 .2.1.2v.2.2.5c0 .2 0 .3-.1.5 0 .2-.1.3-.1.5-.1.2-.1.3-.2.5a3.04 3.04 0 0 1-.5.7l-.6.6c-.2.2-.4.3-.6.4s-.4.1-.6.1h-.3c-.1 0-.2-.1-.2-.1-.1 0-.1-.1-.2-.1 0-.1-.1-.1-.1-.2s-.1-.1-.1-.2v-.2-.2-.2c0-.3 0-.6.1-.9s.1-.6.3-.9c.1-.3.3-.6.4-.8.2-.2.4-.5.6-.6.1-.1.2-.1.3-.2s.2-.1.3-.2.2-.1.3-.2c0-.1.2-.1.3-.1zm-.6.6c-.1 0-.3 0-.4.1-.1 0-.2.1-.3.2s-.2.2-.2.3a.76.76 0 0 1-.2.4c-.1.1-.1.3-.1.4 0 .2-.1.3-.1.5v.5.4.2.2.2c0 .1 0 .1.1.2 0 .1.1.1.1.2s.1.1.1.1c.1 0 .1.1.2.1h.3c.1 0 .2 0 .3-.1s.2-.1.3-.2.2-.2.2-.3c.1-.1.1-.2.2-.4.1-.1.1-.3.1-.4 0-.2.1-.3.1-.5s0-.3.1-.4 0-.3 0-.4v-.6c0-.2-.1-.3-.2-.4l-.3-.3h-.3 0zm6.4-4.4h.2c.1 0 .1 0 .2.1.1 0 .1.1.2.1 0 .1.1.1.1.2v.2c0 .1-.1.2-.1.3-.1 0-.1 0-.2-.1-.1 0-.2-.1-.2-.1-.1 0-.2-.1-.3-.1h-.3c-.1 0-.3 0-.4.1l-.3.3a.76.76 0 0 0-.2.4c-.1.2-.1.3-.2.5s-.1.4-.1.6-.1.4-.1.6-.1.4-.1.5c0 .2-.1.3-.1.4h.2.2.2.2.2.2.2c.1 0 .1 0 .2-.1-.1.1-.2.2-.3.2-.1.1-.3.1-.4.2-.1 0-.3.1-.5.1h-.5c0 .3-.1.6-.1.9s-.1.6-.1 1c-.1.3-.1.7-.2 1s-.1.7-.2 1l-.3.9-.3.8c-.1.3-.2.5-.3.7s-.2.4-.4.5c-.1.2-.3.3-.4.4s-.2.2-.4.3c-.1.1-.2.2-.3.2-.1.1-.2.1-.3.2s-.2.1-.4.1-.3.1-.4.1c-.2 0-.3 0-.5.1-.2 0-.4 0-.6.1h-.5c-.1 0-.3-.1-.4-.1l-.2-.2c-.1-.1-.1-.2-.1-.3v-.1s0-.1.1-.1c0 0 0-.1.1-.1 0 0 0-.1.1-.1l.2.2c.1.1.2.2.4.2.1.1.3.1.5.2s.4.1.7.1.6 0 .8-.1.5-.2.7-.4.4-.3.5-.6.3-.5.4-.7.2-.5.2-.7c.1-.3.1-.5.2-.8s.1-.6.2-.8c0-.3.1-.6.1-.9s.1-.6.1-.8c0-.3.1-.5.1-.8 0-.2.1-.5.1-.7s.1-.4.1-.6h-.2-.2-.2c-.1 0-.1 0-.2.1h-.1c.1-.1.2-.1.3-.2s.2-.1.3-.2.2-.1.3-.1h.3c0-.3.1-.5.1-.8.1-.3.1-.5.2-.7s.2-.5.3-.7.2-.4.4-.6c.1-.2.3-.4.4-.5.1-.2.3-.3.4-.4.2-.1.3-.2.5-.3-.1-.1.1-.1.2-.1h0zm4 2.1l.1-.2c.1 0 .3.1.4.1s.3 0 .5.1h.5.5l.3 2.9c.1 1 .3 1.9.5 2.9l.9-1.4.9-1.3.9-1.4c.3-.5.6-1 .8-1.5h.5.5.5.6l-.1.2-1 .1-.3 1.6c-.1.5-.2 1.1-.2 1.6-.1.5-.1 1.1-.2 1.6s-.1 1.1-.1 1.6l1 .2-.1.2c-.2 0-.5-.1-.7-.1s-.5-.1-.7-.1h-.8-.8l.1-.2 1-.1.4-3 .4-3c-.1.2-.3.4-.4.6-.2.2-.3.5-.5.7s-.4.5-.5.8c-.2.3-.4.5-.5.8-.2.3-.4.5-.5.8-.2.3-.3.5-.5.7-.1.2-.3.4-.4.6s-.2.4-.2.5l-.7.3-.8-6.2c-.2.5-.3 1-.5 1.5s-.3 1-.5 1.5c-.1.5-.3 1-.4 1.5l-.3 1.5 1 .3-.1.2c-.2 0-.5-.1-.7-.1s-.5-.1-.7-.1h-.7-.7v-.2l1-.1c.2-.5.5-1 .6-1.5l.6-1.6a9.83 9.83 0 0 0 .5-1.6c.2-.5.3-1.1.5-1.6l-.9-.1h0zm11.3 2.8c.1 0 .2 0 .3.1.1 0 .1.1.2.2 0 .1.1.1.1.2v.2c0 .1-.1.2-.1.3-.1.1-.1.2-.2.3l-.3.3c-.1.1-.2.2-.3.2-.1.1-.2.1-.4.2-.1.1-.3.1-.4.2-.1 0-.3.1-.4.1h-.4c0 .1 0 .2-.1.3 0 .1-.1.2-.1.3s0 .2-.1.3v.3.3.3c0 .1.1.2.2.2.1.1.2.1.3.2h.3c.1 0 .2-.1.3-.2s.2-.2.3-.2c.1-.1.2-.2.3-.2l.1.1c-.2.2-.3.3-.5.4s-.4.3-.5.4c-.2.1-.4.2-.6.2s-.4.1-.6.1h-.2c-.1 0-.1-.1-.2-.1l-.1-.1s-.1-.1-.1-.2v-.2-.2-.2-.2c0-.3.1-.7.2-1l.3-.8c.1-.2.2-.5.4-.7.1-.2.3-.4.4-.5.1-.2.3-.3.5-.4s.3-.2.5-.3.3-.1.5-.2h.4 0zm-1.9 2h.6c.2 0 .3-.1.5-.2.1-.1.3-.2.4-.4.1-.1.1-.3.2-.5v-.2c0-.1 0-.1-.1-.1l-.1-.1-.1-.1h-.2c-.1 0-.1 0-.2.1-.1 0-.1.1-.2.2l-.2.2c-.1.1-.1.2-.2.3s-.1.2-.1.3-.1.2-.1.3c-.1 0-.1.1-.2.2h0z"/><path d="M201.9 310.2c.1-.1.2-.2.3-.4.1-.1.2-.3.3-.4l.3-.3c.1-.1.2-.1.4-.1.1 0 .1 0 .1.1 0 0 .1.1.1.2s0 .2.1.3v.3.4.4.4.3c.1-.1.1-.2.2-.3s.2-.2.2-.3l.3-.3.3-.3.3-.3c.1-.1.2-.2.3-.2.1-.1.2-.1.2-.1h.2c.1 0 .1 0 .2.1.1 0 .1.1.1.1l.1.1v.2.2.2h-.1-.1-.3c-.1 0-.2.1-.3.1-.1.1-.2.1-.3.2s-.2.2-.3.2c-.1.1-.2.2-.2.3-.1.1-.1.2-.2.3s-.1.2-.2.2c-.1.1-.1.1-.1.2v.3.3.3c0 .1 0 .2.1.3 0 .1 0 .2.1.3 0 .1.1.2.1.2 0 .1.1.1.1.1h.1.1l.1-.1.1-.1.1-.1.1.1-.1.1c0 .1-.1.1-.1.2s-.1.1-.1.2-.1.1-.1.2-.1.1-.1.1c-.1 0-.1.1-.2.1s-.1.1-.2.1h-.2c-.1 0-.1 0-.1-.1 0 0-.1-.1-.1-.2s-.1-.2-.1-.3 0-.2-.1-.3c0-.1 0-.2-.1-.4v-.4-.4-.3c-.1.1-.1.3-.2.4a.76.76 0 0 0-.2.4 1.38 1.38 0 0 0-.3.4l-.3.3-.3.3c-.1.1-.2.2-.3.2-.1.1-.2.1-.3.1h-.2c-.1 0-.1 0-.2-.1-.1 0-.1-.1-.1-.1l-.1-.1c0-.1 0-.1-.1-.2v-.1-.1-.1-.1h.2.2.3c.1 0 .2-.1.3-.1s.2-.1.3-.2.2-.1.3-.2.2-.2.2-.3c.1-.1.2-.2.2-.3.1-.1.2-.2.2-.3.1-.1.1-.2.2-.3v-.2-.3-.3-.3c0-.1 0-.2-.1-.3 0-.1 0-.1-.1-.2 0-.1 0-.1-.1-.1h-.1c-.1 0-.1 0-.2.1l-.1.1-.1.1-.1.1-.2-.2h0z"/><path d="M207.8 309.5c.1.1.2.1.2.1v.1.1c-.1.3-.1.6-.2.9l-.3.9-.3.9c-.1.3-.2.6-.2.9v.1.1.1h.1.2l.1-.1.1-.1.1-.1v.1.1c-.1.1-.2.3-.4.4-.1.1-.3.2-.4.3a.76.76 0 0 1-.4.2c-.1.1-.3.1-.4.1l-.1-.1-.1-.1v-.2-.1c.1-.3.1-.6.2-.9l.3-.9.3-.9.3-.9v-.1-.1-.1h-.1-.1l-.1.1-.1.1-.1.1-.1-.1c.1 0 .1-.1.2-.1s.1-.1.2-.1l.2-.2c.1-.1.1-.1.2-.1s.1-.1.2-.1.1-.1.2-.1.1-.1.2-.1c0 0 0-.1.1-.1h0zm.3-2c.1 0 .1 0 .2.1.1 0 .1.1.1.1l.1.1v.1c0 .1-.1.1-.1.2s-.1.1-.2.2-.1.1-.2.1h-.2c-.1 0-.2-.1-.2-.1-.1-.1-.1-.2-.1-.3s0-.2.1-.2c0-.1.1-.1.1-.2.1-.1.1-.1.2-.1h.2 0zm3.6 3.5c0-.1-.1-.1-.1-.2-.1-.1-.1-.1-.2-.1s-.1-.1-.2-.1h-.2c-.1 0-.2 0-.4.1-.1 0-.2.1-.3.2s-.2.2-.2.3c-.1.1-.1.2-.2.4-.1.1-.1.3-.2.4 0 .2-.1.3-.1.5 0 .1-.1.3-.1.4s-.1.3-.1.4v.2.2.2.2c0 .1 0 .1.1.2 0 .1.1.1.1.1l.1.1h.2.4c.1 0 .2-.1.4-.2.1-.1.2-.1.3-.2s.2-.2.3-.2l.1.1c-.1 0-.1.1-.2.2s-.2.1-.2.2c-.1.1-.2.1-.3.2s-.2.1-.3.2-.2.1-.3.2c-.1 0-.2.1-.3.1s-.2.1-.3.1h-.3a.76.76 0 0 1-.4-.2c-.1-.1-.2-.2-.2-.3s-.1-.3-.1-.4v-.4c.1-.3.1-.6.2-.9l.3-.8c.1-.2.3-.5.4-.6.1-.2.3-.4.5-.5s.3-.3.5-.4.3-.2.5-.3.3-.1.5-.2c.2 0 .3-.1.4-.1h.2c.1 0 .1.1.2.1s.1.1.1.1v.2c0 .1 0 .1-.1.2 0 .1-.1.1-.2.1s-.1.1-.3.2h0 0zm3.9-.4c.1 0 .2 0 .3.1.1 0 .2.1.2.1l.2.2c0 .1.1.1.1.2s0 .2.1.2v.3.3.2c0 .1-.1.3-.1.5s-.1.3-.2.5-.1.3-.2.5-.2.3-.3.5l-.6.6c-.2.2-.4.3-.7.5-.2.1-.5.2-.7.3s-.4.1-.6 0c-.1 0-.2 0-.3-.1-.1 0-.2-.1-.2-.1-.1-.1-.1-.1-.1-.2s-.1-.1-.1-.2v-.2-.2-.2-.2c0-.3.1-.6.2-.9s.2-.6.4-.9.4-.5.6-.7a3.04 3.04 0 0 1 .7-.5c.1-.1.2-.1.3-.2s.2-.1.4-.2c.1 0 .2-.1.4-.1 0-.1.1-.1.2-.1h0zm-.7.5h-.4c-.1 0-.2.1-.3.2l-.3.3c-.1.1-.2.2-.2.4-.1.1-.1.3-.2.4s-.1.3-.1.4-.1.3-.1.4-.1.3-.1.4v.2.2.2.2c0 .1 0 .1.1.2 0 .1.1.1.1.2 0 0 .1.1.2.1s.2.1.3.1h.4c.1 0 .2-.1.3-.2l.3-.3c.1-.1.2-.2.2-.4.1-.1.1-.3.2-.4s.1-.3.2-.4c0-.1.1-.3.1-.4s.1-.3.1-.4c0-.2.1-.4.1-.6s0-.3-.1-.5c-.1-.1-.1-.2-.2-.3-.3.1-.4 0-.6 0h0zm-64-257.4v2.5h-.2c-.1-.6-.3-1-.5-1.2-.2-.3-.4-.5-.7-.6-.2-.1-.5-.1-.9-.1h-.7v7.1c0 .5 0 .8.1.9l.3.3c.1.1.4.1.6.1h.3v.2h-4.8v-.2h.3c.3 0 .5 0 .6-.1l.3-.3c0-.1.1-.4.1-.9v-7.1h-.7c-.6 0-1.1.1-1.4.4-.4.4-.6.9-.8 1.6h-.2v-2.5l8.3-.1h0zm4.4.6V58h.2c.6 0 1-.2 1.3-.5.3-.4.4-.9.5-1.6h.2v4.8h-.2l-.3-1.3c-.2-.3-.4-.6-.6-.7s-.6-.2-1-.2v2.6c0 .5 0 .8.1.9s.1.2.2.3.3.1.6.1h.5c.9 0 1.5-.2 2.1-.6.5-.4.9-1 1.1-1.8h.3l-.4 2.9H152v-.2h.3c.3 0 .5 0 .6-.1l.3-.3c0-.1.1-.4.1-.9v-6-.8c0-.2-.1-.3-.2-.4-.2-.1-.4-.2-.7-.2h-.3v-.3h7.7v2.7h-.2c-.1-.7-.3-1.1-.5-1.4s-.6-.5-1-.6c-.3-.1-.7-.1-1.4-.1h-1.4 0zm9-.5l4.5 5.7v-3.9c0-.6-.1-.9-.2-1.1-.2-.3-.6-.4-1.1-.4v-.2h3v.2c-.4 0-.6.1-.8.2s-.2.2-.3.4-.1.5-.1.9v7.6h-.2l-6.2-7.7v5.8c0 .5.1.9.4 1.1.2.2.5.3.8.3h.2v.2H161v-.2c.5 0 .9-.1 1.1-.3s.3-.5.3-1v-6.5l-.2-.2-.5-.5c-.1-.1-.4-.1-.6-.1v-.2l3.2-.1h0zm10.2 0l4.5 5.7v-3.9c0-.6-.1-.9-.2-1.1-.2-.3-.6-.4-1.1-.4v-.2h3v.2c-.4 0-.7.1-.8.2a1.38 1.38 0 0 0-.3.4c-.1.2-.1.5-.1.9v7.6h-.2l-6.2-7.7v5.8c0 .5.1.9.4 1.1.2.2.5.3.8.3h.2v.2h-3.3v-.2c.5 0 .9-.1 1.1-.3s.3-.5.3-1v-6.5l-.2-.2-.5-.5c-.1-.1-.4-.1-.6-.1v-.2l3.2-.1h0zm10.4.6v3.7h.2c.6 0 1-.2 1.3-.5.3-.4.4-.9.5-1.6h.2v4.8h-.2l-.3-1.3c-.2-.3-.4-.6-.6-.7s-.6-.2-1-.2v2.6c0 .5 0 .8.1.9 0 .1.1.2.2.3s.3.1.6.1h.5c.9 0 1.5-.2 2.1-.6.5-.4.9-1 1.1-1.8h.3l-.4 2.9h-7.9v-.2h.3c.3 0 .5 0 .6-.1l.3-.3c0-.1.1-.4.1-.9v-6-.8c0-.2-.1-.3-.2-.4-.2-.1-.4-.2-.7-.2h-.3v-.2h7.7v2.7h-.2c-.1-.7-.3-1.1-.5-1.4s-.6-.5-1-.6c-.3-.1-.7-.1-1.4-.1l-1.4-.1h0zm12.2-.7l.1 3.1h-.3c-.1-.8-.4-1.4-1-1.9a2.34 2.34 0 0 0-1.7-.7c-.5 0-.8.1-1.1.4-.3.2-.4.5-.4.8 0 .2 0 .4.1.5.1.2.3.4.6.6l1.5.8c1.1.5 1.8 1 2.2 1.5s.5 1 .5 1.6c0 .8-.3 1.4-.9 2s-1.4.8-2.3.8c-.3 0-.6 0-.8-.1l-1-.3c-.2-.1-.4-.1-.5-.1s-.2 0-.4.1a1.38 1.38 0 0 0-.3.4h-.2v-3.5h.2c.2 1 .6 1.7 1.1 2.2.6.5 1.2.8 1.8.8.5 0 .9-.1 1.2-.4s.5-.6.5-1c0-.2-.1-.4-.2-.6s-.3-.4-.5-.6-.6-.4-1.2-.7c-.8-.4-1.4-.8-1.8-1.1s-.6-.6-.8-1-.3-.8-.3-1.2c0-.7.3-1.4.8-1.9s1.2-.8 2-.8c.3 0 .6 0 .9.1.2.1.5.2.8.3s.5.2.6.2.2 0 .3-.1.1-.2.2-.5l.3.3h0zm7.8 0l.1 3.1h-.3c-.1-.8-.4-1.4-1-1.9a2.34 2.34 0 0 0-1.7-.7c-.5 0-.8.1-1.1.4-.3.2-.4.5-.4.8 0 .2 0 .4.1.5.1.2.3.4.6.6l1.5.8c1.1.5 1.8 1 2.2 1.5s.6 1 .5 1.6c0 .8-.3 1.4-.9 2s-1.4.8-2.3.8c-.3 0-.6 0-.8-.1l-1-.3c-.2-.1-.4-.1-.5-.1s-.2 0-.4.1c-.1.1-.2.2-.3.4h-.2v-3.5h.2c.2 1 .6 1.7 1.1 2.2.6.5 1.2.8 1.8.8.5 0 .9-.1 1.2-.4s.5-.6.5-1c0-.2-.1-.4-.2-.6s-.3-.4-.5-.6-.7-.4-1.3-.7c-.8-.4-1.4-.8-1.8-1.1s-.6-.6-.8-1-.3-.8-.3-1.2c0-.7.3-1.4.8-1.9s1.2-.8 2-.8c.3 0 .6 0 .9.1.2.1.5.2.8.3s.5.2.6.2.2 0 .3-.1.1-.2.2-.5l.4.3h0z"/><path d="M210 54.5v3.7h.2c.6 0 1-.2 1.3-.5.3-.4.4-.9.5-1.6h.2v4.8h-.2l-.3-1.3c-.2-.3-.4-.6-.6-.7s-.6-.2-1-.2v2.6c0 .5 0 .8.1.9 0 .1.1.2.2.3s.3.1.6.1h.5c.9 0 1.5-.2 2.1-.6.5-.4.9-1 1.1-1.8h.3l-.4 2.9h-7.9v-.2h.3c.3 0 .5 0 .6-.1l.3-.3c0-.1.1-.4.1-.9v-6-.8c0-.2-.1-.3-.2-.4-.2-.1-.4-.2-.7-.2h-.3V54h7.7v2.7h-.2c-.1-.7-.3-1.1-.5-1.4s-.6-.5-1-.6c-.3-.1-.7-.1-1.4-.1l-1.4-.1h0zm9.4 0v3.7h.2c.6 0 1-.2 1.3-.5s.4-.9.5-1.6h.2v4.8h-.2l-.3-1.3c-.2-.3-.4-.6-.6-.7s-.6-.2-1-.2v2.6c0 .5 0 .8.1.9 0 .1.1.2.2.3s.3.1.6.1h.5c.9 0 1.5-.2 2.1-.6.5-.4.9-1 1.1-1.8h.3l-.4 2.9h-7.9v-.2h.3c.3 0 .5 0 .6-.1l.3-.3c.1-.1.1-.4.1-.9v-6-.8c0-.2-.1-.3-.3-.4s-.4-.2-.7-.2h-.3V54h7.7v2.7h-.2c-.1-.7-.3-1.1-.5-1.4s-.6-.5-1-.6c-.3-.1-.7-.1-1.4-.1l-1.3-.1h0z"/><g stroke="#000"><path d="M111.4 296.3h-8.2m48.5 5l8.1-.5 13.8-3.4 13.4.3 13.1 2.1 13.2 3.1 19.5 8 .4 1.8m-125-245l18.8 1.6" fill="none" class="M"/><path d="M118.8 297l1.4.5 3.5-5.9 4.2-9.5 4.9 2 5.4 14.2-.2 2.2-6.6 3.8 6 1.4 14.6-4.1 1.1-18.4-5.3-5-3.4-4.5 1.4-6.9 22.9-.6 57.4-.8 15.2.1 14 1.4h4.6l-1-8.2-3-2.2-1.2-2 2.4-5.3.5-12.1-2.6-10.2.8-4.4 1.8-7.2 5.1-10.6.1-4.8-4.1-2.3-.3-7.8-5-8.3-3.2-14.7-1.6-16.1-2.5-11.3-1.8-14.2-3.1-22.9-5.7-18.7-.7-7.8.1-4.8.3-4.7h-3.7l-23.1-.5-62.4-.4-25.2.2 5.5 7.1-.4 6.3-3.5 37.7-8.9 70-3.6 31.8 1.8 43 .1 34.8 7 .7h0z" fill="#eac610" class="M"/><g fill="none"><path d="M257 266.5l4.3 6.8 2.9 3.6 23.5-.4M230.8 66.4l26.4-.3" class="M"/><g stroke-linecap="round"><path d="M230.5 67l-1.5 7.5c-7.6 8.3-16.7 16.6-23.7 24.2-4-2.6-10.1-3.4-11.7-8.7-18.8 4.1-33.8-23-52.7-10.2-.7-.3-1.4-.7-2-.8-3.7-1.8-9.9-6.5-9.9-6.5l-2.9-.1" class="M"/><path d="M117.8 155.5c.8 2.5 2.8 8.9 4.9 10.7m.1 0c5.6-2.6 14.5-5.8 16.9-10.8 5-10.1-6.1-23.3 4.7-34.9" class="N"/><path d="M122.8 166.2c.3 6.9 3.8 15.1 8.1 19.6 1.2-.7 2.6-1.3 3.8-.2.6.9.6 2.1 1.2 3.7" class="M"/><path d="M136 189.2c.3 0 .7-.1 1-.1 1.1-.2 2.3-1.2 3.2-2.2.4-3.7-1.8-7-2.7-10.4.7-6.6 11.2-11.1 8.4-16.4-1-5.1 8.2-3.5 10.1-7.8.2-10.5 14.9-13.9 13.2-24.7.8-.2 1.7-1 2.4-1.7" stroke-width="1.97"/><path d="M171.6 125.9c-2.6-3.6-1.7-9.1-7.2-9.3-.6-3.4-.1-7-.3-10.4" class="M"/><path d="M171.6,125.9c10-4.3,18.8-11.1,23.8-20.8" class="N"/><path d="M136 189.2c-1.4 3-6.4 3-6.4 6.8.7 1 1.9 2.8 1.7 4.1-3.7 9-6.2 17.4-8.4 27 5 1.7 2.6 11 9.1 12.2.7 7.6 0 14.9-1.7 22.4l-.7 8.3-.9 12.8m3.1 0c-.1-.2 2-18.6 1.8-18.8 0-2.8 1.5-17.7 13.4-20.7.8-4.9 1.5-11.5 6-15.1 2.3-3.7-5.1-5.3-1.8-8.4 1.2-.3 3-.1 3.8-.6-1.1-3.3.2-5.8 1.4-9.2.9-.5 2.1-.4 3.2 1.2l2.5-1c.6-1.8 2.5-2.7 4.3-2.5.3-2.7 1.9-5 2.8-7.7" class="M"/><path d="M169.3 199.8l-.8-.5c-1.8-2.3-1.8-5.3-2.7-7.3-5.7-12.8-.7-14.2 4.5-26.8 1.1-2.8 2.9-6.2 1.7-9.2" class="N"/><g class="M"><path d="M169.3 199.8c1.8.2 2.2-1.7 3-2.9a3.73 3.73 0 0 1 1.2-.2c10.2.5 22.2 4.7 31.8-3.5m0 0c-1.1-1.8.9-3.4 1.4-4.9-20.2-18.5-7.3-35.4 2.9-53 2.6-4.4 6.7-8.1 5.3-13.6 2.9-.6 4.2-2.1 4.1-5 5.3.5 10-3.5 12.1-8 1.7.6 8.2-1.4 9.8-2.7"/><path d="M205.3 193.2c3.1.4 5.6 1.9 8.4 3.2 2.3-1.1 4.9-1.5 7.2-2.5.4-.6.8-1.2 1.1-1.9-1.1-7.1.1-13.3-.4-20.5 1.6-3.3 6.2-4 9.3-2.6 1.3-.8 2.8-2.1 3.8-2.7 1.2-8.5-1.5-17.1-1-26 .3-1.7 2-2.6 3.4-3.3 1.2-.1 2.6-.1 3.5-.4 2-1 4-3.6 4.1-3.9m-78.9 133.1c.6-2 3.3-4.3 4.8-5.1"/></g><path d="M170.6 260.5c-.3-4.8.7-9.3 2.3-13.6 1.9-1.2 3.6-2.4 5.7-3.2"/><path d="M170.6,260.5c5.7,2.3,10-3,14.5-5.3" class="M"/><path d="M185.2 255.2l-.5-.8c-.4-11.2 10.7-20.6 9.7-30.6m-9.2 31.4c9.1-9.7 25.6-15.9 29.3-30.1 7.6-3.3 16.9-9.8 14.1-19.6" class="N"/><path d="M212.7 265c-.9-5-1.8-13.4.8-18 .3-.3.6-.7.9-1 16.3-3.1 14.5-22.5 23.5-31.9"/><path d="M222.4,265.2c3.4-1.9,6.9-9.1,9.1-12.1" class="N"/><path d="M231.5 253.1c.3-.7.4-1.5.8-2.2 8.5-.6 13-8.2 12.6-16.1"/><path d="M231.5 253.1c6.2 3 11.6-.6 17.3-2.5"/></g></g></g><path d="M217 250.8l.3 1.2c.1.2.1.4.1.4 0 .1.1.1.2.1h.4v.1l-2.3.5v-.1c.2 0 .3-.1.4-.1s.1-.1.1-.2 0-.2-.1-.5l-.6-2.9c-.1-.2-.1-.4-.1-.4 0-.1-.1-.1-.2-.1h-.4v-.1l2-.4c.6-.1 1.1-.1 1.5 0 .3.2.5.4.6.8.1.3 0 .6-.1.8s-.4.4-.7.6c-.2.1-.6.2-1.1.3h0zm-.4-2.2l.4 1.9h.2c.3-.1.5-.2.6-.4s.1-.5.1-.8c-.1-.3-.2-.6-.4-.7s-.4-.2-.7-.1l-.2.1h0z"/><path d="M219.6 247.7l.8 1.7h.1c.3-.1.4-.3.5-.5 0-.2 0-.5-.1-.8l.1-.1 1 2.2-.1.1c-.1-.2-.3-.4-.4-.5-.2-.1-.3-.2-.4-.2s-.3 0-.5.1l.6 1.2.2.4s.1.1.2.1.2 0 .3-.1l.2-.1c.4-.2.7-.4.8-.7s.2-.6.1-1.1l.1-.1.4 1.4-3.6 1.7-.1-.1.1-.1c.1-.1.2-.1.3-.2 0-.1.1-.1.1-.2s-.1-.2-.2-.4l-1.3-2.7c-.1-.2-.2-.3-.2-.3-.1-.1-.1-.1-.2-.1s-.2 0-.4.1l-.1.1-.1-.1 3.5-1.7.6 1.2-.1.1c-.2-.3-.4-.4-.6-.5s-.4-.1-.6-.1c-.1 0-.4.1-.7.3h-.3 0zm5.6-.2l-1.2 1.1.2.5c.1.2.1.3.2.3.1.1.2.1.3.1s.2-.1.4-.2l.1.1-1.1 1-.1-.1a.76.76 0 0 0 .2-.4c0-.2-.1-.4-.2-.8l-1.3-3.8 3.8 1.6c.4.2.6.2.7.2s.2 0 .3-.1l.1.1-1.6 1.5-.1-.1.1-.1c.1-.1.2-.2.2-.3s0-.1-.1-.2l-.1-.1s-.1-.1-.2-.1l-.6-.2h0zm-.2-.2l-1.6-.7.6 1.6 1-.9h0zm3.4-5.5l1.1.6.4.2c.1 0 .1 0 .2-.1.1 0 .2-.2.2-.4l.1.1-1.1 2.1-.1-.1c.1-.2.1-.3.1-.4s0-.2-.1-.2c0-.1-.2-.1-.4-.3l-2.7-1.3-.4-.2-.2.1c-.1.1-.2.2-.2.4l-.1-.1 1-1.9c.3-.5.5-.8.7-1s.4-.3.7-.4.5 0 .8.1c.3.2.5.4.6.7.1.2 0 .4 0 .7l1.9-.3c.2 0 .4-.1.5-.1.1-.1.2-.1.2-.2l.1.1-.7 1.3-2.5.4-.1.2h0zm-2-1l1.8.9.1-.2c.1-.3.2-.5.2-.7s0-.3-.1-.5c-.1-.1-.2-.3-.5-.4-.3-.2-.6-.2-.8-.1s-.4.3-.6.6l-.1.4h0zm4.6-2.1l.3-.3c.1-.1.3-.1.4 0l.3.3c.1.1.1.3 0 .4l-.3.3c-.1.1-.3.1-.4 0l-.3-.3c-.1-.1-.1-.3 0-.4zm-35.7 10l1 1.3-.1.1c-.3-.3-.7-.4-1-.4s-.7.1-.9.3-.4.4-.5.7-.1.6 0 .8c.1.4.3.7.5 1l.8.8c.3.2.6.3.9.3s.6-.1.8-.3.4-.4.5-.6.2-.6.2-1l.2.3a1.69 1.69 0 0 1-.3 1c-.1.3-.4.5-.7.7-.4.3-.8.5-1.2.6s-.8 0-1.2-.1c-.4-.2-.7-.4-1-.7s-.4-.7-.5-1.2 0-.9.2-1.3.4-.7.8-1c.3-.2.6-.3.9-.5.2-.1.3-.1.4-.1s.1-.1.1-.2 0-.2-.1-.3l.2-.2h0zm2.5-1.8a2.11 2.11 0 0 1 1.8-.5c.6.1 1.2.4 1.6 1 .3.5.5 1 .5 1.5 0 .7-.4 1.4-1 1.8-.7.5-1.3.6-2 .5-.5-.1-1-.5-1.4-1s-.6-1.1-.4-1.8c0-.6.4-1.1.9-1.5h0zm.2.1c-.3.2-.5.6-.4 1.1.1.4.3.8.7 1.4.5.6.9 1 1.4 1.2.3.1.6 0 .9-.2.2-.1.3-.3.4-.5s.1-.5 0-.8-.3-.7-.6-1.1c-.4-.5-.7-.8-.9-1-.3-.2-.5-.3-.7-.3-.4 0-.6.1-.8.2h0zm3.4-2.7l3.5.9-1.2-1.6-.4-.4c-.2 0-.3 0-.5.2l-.1-.1 1.2-.9.1.1-.3.3v.2c0 .1.1.2.2.4l2.3 3-.1.1-4.8-1.2 1.8 2.3c.2.2.3.3.5.3s.3 0 .4-.1l.1-.1.1.1-1.3 1-.1-.1c.2-.2.3-.3.3-.4s0-.3-.2-.5l-2-2.6h-.2-.4c-.1 0-.2.1-.3.1l-.1-.1 1.5-.9z"/><path d="M205.4 241.5l1.2 1.4.1-.1c.2-.2.3-.4.3-.6s-.1-.5-.3-.8l.1-.1 1.6 1.8-.1.1c-.2-.2-.4-.3-.5-.4-.2-.1-.3-.1-.4-.1s-.3.1-.4.3l.8 1 .3.3h.2c.1 0 .2-.1.3-.1l.2-.2c.3-.3.5-.6.6-.9s0-.7-.2-1.1l.1-.1.8 1.2-3 2.6-.1-.1.1-.1c.1-.1.2-.2.2-.3v-.2c0-.1-.1-.2-.3-.3l-2-2.3c-.1-.2-.2-.3-.3-.3s-.1-.1-.2-.1-.2.1-.3.2l-.1.1-.1-.1 2.9-2.5.9 1-.1.1c-.3-.2-.5-.3-.7-.4-.2 0-.4 0-.6.1-.1.1-.3.2-.6.4l-.4.6h0z"/><path d="M210.1 236.5l1.1 1.1-.1.1c-.4-.2-.7-.3-1.1-.3-.3 0-.6.2-.9.4-.2.2-.3.5-.4.7 0 .3 0 .6.1.8.1.3.4.7.7.9.3.3.6.5.9.7s.6.2.9.2.5-.2.8-.4c.2-.2.3-.4.4-.7s.1-.6.1-1l.3.3c0 .4 0 .7-.1 1s-.3.6-.5.8c-.3.4-.7.6-1.1.7s-.8.2-1.2 0c-.4-.1-.8-.3-1.1-.6s-.5-.7-.7-1.1c-.1-.4-.1-.9 0-1.3s.3-.8.6-1.1c.2-.2.5-.4.9-.6.2-.1.3-.2.4-.2 0-.1.1-.1.1-.2-.1 0-.1-.1-.1-.2h0z"/><path d="M210.2 236.6l1.4-1.9.1.1-.1.1c-.1.1-.2.3-.2.3v.2c0 .1.2.2.4.3l1.8 1.3c.3.2.6.4.7.4s.3 0 .4-.1a.78.78 0 0 0 .4-.4c.1-.2.2-.4.2-.6s0-.4-.2-.6c-.1-.2-.4-.4-.8-.7l-1.5-1.1c-.2-.1-.3-.2-.4-.2h-.2l-.3.3-.1-.1.9-1.3.1.1-.1.1c-.1.1-.1.2-.1.3s0 .2.1.3c0 .1.1.2.3.3l1.4 1c.4.3.7.6.9.8s.2.5.2.8-.1.7-.4 1.1c-.2.3-.4.5-.7.7s-.6.2-.8.2c-.3 0-.5-.2-.8-.4l-1.8-1.3c-.2-.2-.4-.2-.4-.2h-.2c-.1 0-.2.1-.3.3l.1-.1h0z"/><path d="M215.5 232.7l1.3.6c.2.1.4.1.4.1l.2-.1c.1-.1.1-.1.2-.3l.1-.1.1.1-1 2.2h-.1l.1-.1c.1-.1.1-.2.1-.3s0-.1-.1-.2l-.4-.2-2.8-1.2c-.2-.1-.4-.1-.4-.1-.1 0-.1 0-.2.1s-.1.1-.2.3l-.1.1h-.1l1-2.2h.1l-.1.1c-.1.1-.1.2-.1.3s0 .1.1.2l.4.2 1.2.5.6-1.5-1.2-.5c-.2-.1-.4-.1-.4-.1-.1 0-.1 0-.2.1s-.1.1-.2.3l-.1.1h-.1l1-2.2h.1l-.1.1c-.1.1-.1.2-.1.3s0 .1.1.2l.4.2 2.8 1.2c.2.1.4.1.4.1.1 0 .1 0 .2-.1s.1-.1.2-.3l.1-.1.1.1-1 2.2h-.1l.1-.1c.1-.1.1-.2.1-.3s0-.1-.1-.2l-.4-.2-1.3-.6-.6 1.3h0zm4.9-6.2l.6 1.1a1.38 1.38 0 0 0 .3.4c.1.1.1.1.2.1s.2-.1.4-.2l.1.1-2 1.2-.1-.1c.2-.1.3-.2.3-.3s.1-.1.1-.2-.1-.2-.2-.4l-1.5-2.6a1.38 1.38 0 0 0-.3-.4c-.1 0-.1-.1-.2-.1s-.2.1-.4.2l-.1-.1 1.8-1.1c.5-.3.9-.4 1.1-.5.3-.1.5 0 .8.1.2.1.4.3.6.5.2.3.2.6.1.9-.1.2-.2.4-.4.6l1.7.8c.2.1.4.2.5.2s.2 0 .3-.1l.1.1-1.3.7-2.3-1.1-.2.2h0zm-1.2-1.9l1 1.7.2-.1.6-.4c.1-.1.2-.3.2-.5s-.1-.4-.2-.6c-.2-.3-.4-.5-.6-.5s-.5 0-.8.2l-.4.2h0zm6.9.5l.1.1-1.9 1.4-.1-.1.1-.1.2-.2v-.2c0-.1-.1-.2-.2-.4l-1.8-2.4c-.1-.2-.2-.3-.3-.3h-.2c-.1 0-.2.1-.3.1l-.1.1-.1-.1 1.9-1.4.1.1h-.1l-.2.2v.2c0 .1.1.2.2.4l1.8 2.4c.1.2.2.3.3.3h.2c.1 0 .2-.1.3-.1h.1z"/><path d="M226.9 218.5h0c0 .2-.1.4-.1.6 0 .1.1.4.2.9l1.2 3.7-.1.1-3.6-1.6c-.4-.2-.7-.3-.8-.3s-.2 0-.4.1l-.1-.1 1.6-1.5.1.1h-.1l-.3.3v.2l.1.1c.1 0 .2.1.4.2l2.3 1-.7-2.1c-.1-.3-.1-.4-.2-.5 0-.1-.1-.1-.1-.2s-.1-.1-.2-.1h-.2c-.1 0-.2.1-.3.2l-.1-.1 1.4-1h0z"/><path d="M228 217.5l1.4 1.2.1-.1c.2-.2.3-.4.2-.7-.1-.2-.2-.5-.5-.7l.1-.1 1.8 1.5-.1.1-.6-.3h-.5c-.1.1-.2.2-.4.3l1 .8c.2.2.3.3.4.3h.2c.1 0 .1-.1.2-.2l.2-.2c.3-.3.4-.7.4-1a1.93 1.93 0 0 0-.3-1l.1-.1 1 1.1-2.5 3-.1-.1.1-.1c.1-.1.1-.2.2-.3v-.2c0-.1-.1-.2-.3-.3l-2.3-1.9c-.2-.1-.3-.2-.3-.2h-.2c-.1 0-.2.1-.3.2l-.1.1-.1-.1 2.5-2.9 1 .9-.1.1c-.3-.2-.5-.2-.7-.2s-.4.1-.6.2c-.1.1-.3.2-.5.5l-.4.4h0z"/><path d="M232.2 215.6l1.1.7.4.2.2-.1c.1 0 .2-.2.3-.3l.1.1-1.2 2-.1-.1c.1-.2.2-.3.2-.4v-.2c0-.1-.2-.2-.4-.3l-2.6-1.5-.4-.2-.2.1c-.1 0-.2.2-.3.3l-.1-.1 1.1-1.8c.3-.5.5-.8.7-1s.4-.3.7-.3.5 0 .7.2c.3.2.5.4.5.7 0 .2 0 .4-.1.7l1.9-.1c.2 0 .4 0 .5-.1.1 0 .2-.1.3-.2l.1.1-.7 1.2-2.6.2-.1.2h0zm-1.9-1.2l1.7 1 .1-.2c.2-.3.3-.5.3-.6 0-.2 0-.3-.1-.5a.78.78 0 0 0-.4-.4c-.3-.2-.6-.2-.8-.2s-.4.2-.6.5l-.2.4zm-41.2-49.9l1.6.1v.1c-.4.1-.8.2-1 .5-.2.2-.4.5-.4.9 0 .3 0 .6.2.8.1.3.3.4.6.6s.7.3 1.1.3.8 0 1.1-.1.6-.2.8-.4.3-.5.3-.8 0-.6-.1-.8c-.1-.3-.3-.5-.6-.8h.4c.2.3.4.6.5.9s.1.6.1 1c0 .5-.2.9-.4 1.3s-.5.6-.9.8-.8.2-1.2.2-.8-.2-1.2-.5-.6-.6-.8-1-.2-.8-.2-1.3a1.93 1.93 0 0 1 .3-1c.1-.2.2-.3.2-.4s0-.1-.1-.2c0-.1-.1-.1-.2-.1l-.1-.1h0zm.7-3.5c.1-.7.5-1.3 1-1.6s1.1-.5 1.8-.3c.6.1 1 .4 1.4.8.5.6.6 1.3.5 2.1-.2.8-.6 1.4-1.2 1.7-.5.3-1.1.3-1.7.2-.7-.1-1.2-.5-1.5-1-.3-.7-.4-1.3-.3-1.9zm.3 0c-.1.4.1.8.4 1.1s.8.4 1.4.6c.8.2 1.4.2 1.8 0 .3-.1.5-.4.6-.7v-.6c-.1-.2-.3-.4-.6-.6s-.7-.3-1.2-.4c-.6-.1-1-.2-1.4-.1-.3 0-.6.1-.7.3s-.3.2-.3.4zm1.4-5.8c.2-.7.6-1.2 1.2-1.5s1.2-.3 1.8-.1 1 .5 1.3 1c.4.6.5 1.3.2 2.1s-.7 1.3-1.4 1.5c-.5.2-1.1.2-1.7 0s-1.1-.6-1.4-1.2c-.3-.5-.3-1.1 0-1.8h0zm.2.1c-.1.4 0 .8.3 1.1s.7.5 1.3.7c.7.3 1.3.3 1.8.2a.9.9 0 0 0 .6-.6c.1-.2.1-.4 0-.6s-.2-.5-.5-.7-.6-.4-1.1-.6c-.6-.2-1-.3-1.3-.3s-.6.1-.7.2c-.2.2-.3.4-.4.6h0z"/><path d="M193.8 149.3l1.4.6-.1.1c-.4-.1-.7-.1-1 .1-.3.1-.5.3-.7.6-.1.2-.1.4-.1.6a1.38 1.38 0 0 0 .3.4c.1 0 .2.1.3 0a.76.76 0 0 0 .4-.2c.1-.1.3-.2.7-.5.5-.4.8-.6 1.1-.7s.6 0 .8.1c.4.2.6.4.7.8s.1.8-.1 1.2c-.1.1-.1.3-.2.4a1.38 1.38 0 0 0-.3.4c-.1.1-.1.2-.2.2v.2c0 .1.1.2.1.2l-.1.1-1.6-.7.1-.1c.5.1.9.1 1.3-.1.3-.2.6-.4.7-.7.1-.2.1-.4.1-.6a1.38 1.38 0 0 0-.3-.4c-.1 0-.2-.1-.3 0-.1 0-.2.1-.4.1s-.3.2-.6.4c-.4.3-.6.5-.8.6s-.4.2-.6.2-.4 0-.6-.1a1.21 1.21 0 0 1-.7-.7c-.1-.4-.1-.7.1-1.1.1-.1.1-.3.2-.4l.3-.3.2-.2v-.1s0-.2-.1-.4h0zm4.7-1.8l-.8 1.4.3.4.3.3c.1.1.2.1.3 0 .1 0 .2-.2.3-.4l.1.1-.7 1.3-.1-.1a.45.45 0 0 0 0-.5c0-.1-.2-.4-.4-.7l-2.4-3.2v-.1l4.1.3h.8c.1 0 .2-.1.3-.2l.1.1-1.1 2-.1-.1v-.1c.1-.2.1-.3.1-.4s0-.1-.1-.1h-.1-.3-.6 0zm-.2 0l-1.7-.1 1.1 1.4.6-1.3h0zm14.5-29.8l.9.9c.2.2.3.3.4.3h.2c.1 0 .2-.1.4-.2l.1.1-1.7 1.6-.1-.1c.2-.1.2-.3.3-.3v-.2c0-.1-.1-.2-.3-.4l-2-2.2c-.2-.2-.3-.3-.4-.3h-.2c-.1 0-.2.1-.4.3l-.1-.1 1.6-1.4c.4-.4.7-.6 1-.7.2-.1.5-.2.8-.1.3 0 .5.2.7.4s.3.5.3.9c0 .2-.1.4-.3.7l1.9.4c.2 0 .4.1.5.1s.2-.1.3-.1l.1.1-1.1 1-2.5-.5-.4-.2h0zm-1.5-1.7l1.4 1.5.1-.1.5-.5c.1-.1.1-.3.1-.5s-.1-.3-.3-.5c-.2-.3-.5-.4-.7-.4s-.5.1-.8.3l-.3.2z"/><path d="M218.4 115.3h0l-1.7 1.7-.1-.1.1-.1c.1-.1.2-.2.2-.3v-.2c0-.1-.1-.2-.3-.3l-2-2.3-.3-.3h-.2c-.1 0-.2.1-.3.2l-.1.1-.1-.1 1.8-1.6.1.1-.1.1c-.1.1-.2.2-.2.3v.2c0 .1.1.2.3.3l2 2.3.3.3h.2c.1 0 .2-.1.3-.2l.1-.1zm1-6.7h0c0 .2-.1.4-.1.6 0 .1.1.4.2.9l1.1 3.7-.1.1-3.6-1.8c-.4-.2-.7-.3-.8-.3s-.2 0-.4.1l-.1-.1 1.7-1.4.1.1h-.1c-.2.1-.2.2-.3.3v.2l.1.1c.1 0 .2.1.4.2l2.2 1.1-.6-2.1c-.1-.3-.1-.4-.2-.5 0-.1-.1-.1-.1-.2s-.1-.1-.2-.1h-.2c-.1 0-.2.1-.3.2l-.1-.1 1.4-1h0zm1.8-1.1l1.2 1.5.1-.1c.2-.2.3-.4.3-.6s-.1-.5-.3-.8l.1-.1 1.5 1.9-.1.1c-.2-.2-.4-.3-.5-.4-.2-.1-.3-.1-.4-.1a.76.76 0 0 0-.4.2l.8 1 .3.3h.2c.1 0 .2-.1.3-.1l.2-.2c.3-.3.5-.6.6-.9s0-.7-.1-1.1l.1-.1.8 1.3-3.1 2.5-.1-.1.1-.1c.1-.1.2-.2.2-.3v-.2c0-.1-.1-.2-.2-.4l-1.9-2.3c-.1-.2-.2-.3-.3-.3s-.1-.1-.2-.1-.2.1-.3.1l-.1.1-.1-.1 3-2.4.9 1.1-.1.1c-.3-.2-.5-.3-.7-.4-.2 0-.4 0-.6.1-.1 0-.3.2-.6.4l-.6.5h0zm5-1.2l.8 1 .3.3h.2c.1 0 .2-.1.4-.2l.1.1-1.8 1.5-.1-.1c.2-.1.3-.2.3-.3v-.2s-.1-.2-.3-.4l-1.8-2.3-.3-.3h-.2c-.1 0-.2.1-.4.2l-.1-.1 1.7-1.3 1-.7c.2-.1.5-.1.8-.1.3.1.5.2.6.4.2.3.3.6.2.9 0 .2-.1.4-.3.7l1.8.5c.2.1.4.1.5.1s.2 0 .3-.1l.1.1-1.1.9-2.5-.7-.2.1zm-1.4-1.7l1.2 1.6.1-.1.5-.5c.1-.1.1-.3.1-.5a.55.55 0 0 0-.3-.5c-.2-.3-.4-.4-.7-.5-.2 0-.5.1-.8.3l-.1.2zm-8.3 93.2l.3 1.2h-.1c-.1-.3-.3-.4-.4-.5a.76.76 0 0 0-.4-.2c-.1 0-.2 0-.5.1l-.3.1.9 3.4c.1.2.1.4.2.4 0 .1.1.1.2.1h.3.1v.1l-2.3.6v-.1h.1c.1 0 .2-.1.3-.2 0 0 .1-.1.1-.2s0-.2-.1-.4l-.9-3.4-.3.1c-.3.1-.5.2-.6.4s-.2.5-.2.9h-.1l-.3-1.2 4-1.2h0zm3.2 2.4l-1.5.5v.5.4c0 .1.1.2.2.2s.2 0 .5-.1v.1l-1.4.5v-.1c.1-.1.3-.2.3-.3.1-.1.1-.4.1-.8l.3-4h.1l2.8 3c.3.3.5.5.6.5h.3v.1l-2.1.7v-.1h.1c.2-.1.3-.1.3-.2v-.2l-.1-.1-.2-.2-.3-.4h0zm-.2-.2l-1.1-1.3-.1 1.7 1.2-.4h0zm5.9-2.7l.5 1.5-3.7 1.8-.1-.1.1-.1c.1-.1.2-.1.3-.2 0-.1.1-.1.1-.2s-.1-.2-.2-.4l-1.3-2.7c-.1-.2-.2-.3-.2-.4 0 0-.1-.1-.2-.1s-.2 0-.3.1l-.1.1-.1-.1 2.2-1.1.1.1-.2.1c-.1.1-.2.1-.3.2 0 .1-.1.1-.1.2s.1.2.2.4l1.3 2.6c.1.2.2.3.2.4.1 0 .1.1.2.1s.2-.1.4-.2l.3-.2c.2-.1.4-.2.5-.4.1-.1.2-.3.2-.5s0-.5-.1-.9h.3 0zm3.7-2.4l.7 1.4-3.4 2.2-.1-.1.1-.1.2-.2v-.2c0-.1-.1-.2-.2-.4l-1.6-2.5c-.1-.2-.2-.3-.3-.3s-.1-.1-.2 0c-.1 0-.2 0-.3.1l-.1.1-.1-.1 2-1.3.1.1-.2.1-.2.2v.2c0 .1.1.2.2.4l1.6 2.4a1.38 1.38 0 0 0 .3.4c.1 0 .1.1.2 0 .1 0 .2-.1.4-.2l.3-.2c.2-.1.4-.3.4-.4.1-.2.1-.3.1-.6 0-.2-.1-.5-.2-.9l.3-.1h0zm2.4-1.7l-1.2 1.1.2.5c.1.2.1.3.2.3.1.1.2.1.3.1s.2-.1.4-.2l.1.1-1.1 1-.1-.1a.76.76 0 0 0 .2-.4c0-.2-.1-.4-.2-.8l-1.2-3.8 3.7 1.7c.4.2.6.2.7.2s.2 0 .3-.1l.1.1-1.7 1.5-.1-.1.1-.1c.1-.1.2-.2.2-.3v-.2l-.1-.1s-.1-.1-.2-.1l-.6-.3h0zm-.3-.1l-1.6-.7.5 1.6 1.1-.9h0z"/><path d="M233.5 190l1 .8c.2.2.3.2.4.3h.2c.1 0 .2-.1.3-.3l.1.1-1.5 1.8-.1-.1c.1-.2.2-.3.2-.4v-.2c0-.1-.1-.2-.3-.3l-2.3-1.9c-.2-.2-.3-.2-.4-.3h-.2c-.1 0-.2.1-.3.3l-.1-.1 1.3-1.6c.4-.5.8-.8 1.2-.9s.7 0 1 .2c.2.2.4.4.4.7s0 .6-.1.9c-.3.3-.5.6-.8 1h0zm-1.8-1.4l1.5 1.2.1-.1c.2-.2.2-.4.2-.6s-.2-.4-.5-.6-.5-.3-.7-.3-.4.1-.6.4h0z"/><path d="M233.9 184.9c.3-.7.8-1.1 1.4-1.3s1.2-.1 1.8.2c.5.3.9.7 1.1 1.2.3.7.3 1.4-.1 2.1a2.5 2.5 0 0 1-1.7 1.3 2.22 2.22 0 0 1-1.6-.3c-.6-.3-1-.8-1.2-1.4s-.1-1.2.3-1.8zm.2.1c-.2.4-.2.8.1 1.1.2.3.6.6 1.2 1 .7.4 1.3.5 1.7.5.3 0 .6-.2.7-.5.1-.2.2-.4.1-.6 0-.2-.2-.5-.4-.7a4.31 4.31 0 0 0-1-.7c-.5-.3-1-.5-1.3-.5s-.6 0-.8.1c-.1-.1-.2.1-.3.3h0z"/><path d="M235.6 180.7c.2-.7.6-1.2 1.2-1.5s1.2-.3 1.8-.1 1 .5 1.3 1c.4.6.5 1.3.2 2.1s-.7 1.3-1.4 1.6c-.5.2-1.1.2-1.7 0s-1.1-.6-1.4-1.2c-.2-.6-.2-1.2 0-1.9h0zm.3.1c-.1.4 0 .8.3 1.1s.7.5 1.4.7 1.3.3 1.8.1a.9.9 0 0 0 .6-.6c.1-.2.1-.4 0-.6s-.2-.5-.5-.7-.6-.4-1.1-.5c-.6-.2-1-.3-1.3-.3s-.6.1-.7.2c-.4.2-.5.4-.5.6z"/><path d="M236.8 175.6l1.5.2v.1a1.69 1.69 0 0 0-1 .3c-.3.2-.4.5-.5.8 0 .2 0 .4.1.6s.2.2.4.3h.3c.1 0 .2-.1.4-.3.1-.1.3-.3.5-.7.4-.5.7-.8.9-.9.3-.1.5-.2.8-.1.4.1.7.3.9.6s.3.7.2 1.2c0 .1-.1.3-.1.4s-.1.3-.3.4c-.1.1-.1.2-.1.3v.2c0 .1.1.1.2.2v.1l-1.7-.3v-.1c.5 0 .9-.1 1.2-.4.3-.2.5-.5.5-.8 0-.2 0-.5-.1-.6-.1-.2-.3-.3-.4-.3h-.3c-.1 0-.2.1-.3.2l-.5.5c-.3.4-.5.6-.7.8s-.4.3-.6.3-.4.1-.6 0c-.4-.1-.6-.3-.8-.6a1.39 1.39 0 0 1-.2-1.1c0-.1.1-.3.1-.4s.1-.2.2-.4c.1-.1.2-.2.2-.3v-.1c0 .1-.1 0-.2-.1h0zm3.7-2.8l-.1 1.6.4.2c.1.1.3.1.4.1s.2 0 .3-.1c0-.1.1-.2.1-.4h.1l-.1 1.5h-.1c0-.2-.1-.3-.2-.4s-.3-.3-.7-.4l-3.5-1.9v-.1l3.9-1.4c.4-.1.6-.2.7-.3s.1-.2.1-.3h.1l-.2 2.2h-.1v-.1-.4c0-.1-.1-.1-.2-.1h-.1l-.3.1-.5.2h0zm-.3.1l-1.6.6 1.5.8.1-1.4h0zm-1-22.3h1.3.5c.1 0 .1-.1.2-.2 0-.1.1-.2.1-.4h.1v2.3h-.1c0-.2 0-.4-.1-.4 0-.1-.1-.1-.2-.2h-.5-3-.5c-.1 0-.1.1-.2.2 0 .1-.1.2-.1.4h-.1v-2.1c0-.6 0-1 .1-1.2.1-.3.2-.5.4-.6.2-.2.4-.2.7-.2s.6.1.8.4c.1.2.2.4.3.7l1.6-1.1a1.38 1.38 0 0 0 .4-.3c.1-.1.1-.2.1-.3h.1v1.4l-2.1 1.5v.1h.2 0zm-2.2 0h2v-.2c0-.3 0-.5-.1-.7s-.2-.3-.3-.4-.3-.1-.6-.1c-.4 0-.6.1-.8.2-.2.2-.3.4-.3.8l.1.4h0zm3.2-4c0-.2 0-.3.2-.4.1-.1.2-.2.4-.2s.3 0 .4.2c.1.1.2.2.2.4s0 .3-.2.4c-.1.1-.2.2-.4.2s-.3 0-.4-.2c-.1-.1-.2-.2-.2-.4zM178 192l-.2 1.3v.5c0 .1.1.1.1.2.1 0 .2.1.4.1v.1l-2.3-.3v-.1h.4c.1 0 .1-.1.2-.1 0-.1.1-.2.1-.5l.4-3v-.5c0-.1-.1-.1-.1-.2-.1 0-.2-.1-.4-.1v-.1l2.1.3c.6.1.9.2 1.2.3.2.1.4.3.6.5.1.2.2.5.2.8s-.2.6-.5.8c-.2.1-.4.2-.7.2l.9 1.7c.1.2.2.4.3.4.1.1.2.1.3.2v.1l-1.4-.2-1.2-2.3-.4-.1h0zm.3-2.2l-.2 2h.2.7c.2 0 .3-.1.4-.3.1-.1.2-.3.2-.6s0-.6-.2-.8-.4-.3-.8-.3h-.3 0z"/><path d="M183.4 194.7v.1l-2.4-.3v-.1h.2.3c.1 0 .1-.1.2-.1 0-.1.1-.2.1-.4l.4-3v-.4c0-.1-.1-.1-.1-.2-.1-.1-.2-.1-.3-.1h-.2v-.1l2.4.3v.1h-.2-.3c-.1 0-.1.1-.2.1 0 0-.1.2-.1.4l-.4 3v.4s.1.1.1.2c.1.1.2.1.3.1h.2z"/><path d="M188.9 190.7v.1c-.2 0-.3.1-.5.2-.1.1-.3.4-.5.8l-1.9 3.4h-.1l-1.3-3.8-.3-.8c-.1-.1-.2-.1-.3-.2v-.1l2.2.2v.1h-.1-.4c-.1 0-.1.1-.1.1v.1s.1.2.1.5l.8 2.4 1.1-1.9c.1-.2.2-.4.2-.5s0-.2.1-.2v-.2c0-.1-.1-.1-.1-.1-.1 0-.2-.1-.4-.1v-.1l1.5.1z"/><path d="M190.4 190.9v1.9h.1c.3 0 .5-.1.6-.3s.2-.5.2-.8h.1v2.4h-.1c0-.3-.1-.5-.2-.6-.1-.2-.2-.3-.3-.3-.1-.1-.3-.1-.5-.1v1.3.5c0 .1.1.1.1.1.1 0 .2.1.3.1h.3c.4 0 .8-.1 1-.3.3-.2.4-.5.5-.9h.1l-.2 1.5-4 .1v-.1h.2c.1 0 .2 0 .3-.1.1 0 .1-.1.1-.2v-.4-3-.4c0-.1-.1-.1-.1-.2-.1-.1-.2-.1-.4-.1h-.2v-.1l3.8-.1v1.4h-.1c-.1-.3-.2-.6-.3-.7s-.3-.2-.5-.3c-.1 0-.4-.1-.7-.1l-.1-.2h0zm4.2 2l.2 1.3c0 .2.1.4.1.5s.1.1.2.1h.4v.1l-2.3.4v-.1c.2 0 .3-.1.4-.1.1-.1.1-.1.1-.2v-.5l-.5-2.9c0-.2-.1-.4-.1-.5s-.1-.1-.2-.1h-.4v-.1l2.1-.4c.5-.1 1-.1 1.2-.1.3 0 .5.1.7.3s.3.4.4.7 0 .6-.2.9c-.1.2-.3.3-.6.4l1.4 1.3c.2.2.3.3.4.3.1.1.2.1.3.1v.1l-1.4.3-1.8-1.8h-.4 0zm-.4-2.2l.4 2h.2c.3-.1.5-.1.7-.2s.2-.2.3-.4.1-.4 0-.6c-.1-.3-.2-.6-.4-.7s-.5-.2-.8-.1h-.4zm-51.4 47.5l-.2 1.6.4.3c.1.1.3.1.4.1s.2 0 .3-.1c0-.1.1-.2.1-.4h.1l-.2 1.5h-.1c0-.2 0-.3-.1-.4s-.3-.3-.6-.5l-3.4-2.2v-.1l4-1.1c.4-.1.6-.2.7-.3s.1-.2.2-.3h.1l-.3 2.2h-.1v-.1-.4c0-.1-.1-.1-.1-.1h-.1l-.3.1-.8.2h0zm-.2.1l-1.7.4 1.5.9.2-1.3h0z"/><path d="M143.7 231.7l1.5.5-.8 4h-.1v-.2-.3c0-.1-.1-.1-.1-.2 0 0-.2-.1-.4-.1l-3-.6c-.2 0-.4-.1-.4 0-.1 0-.1.1-.2.1-.1.1-.1.2-.1.3v.1h-.1l.5-2.4h.1v.2.3c0 .1.1.1.1.2 0 0 .2.1.4.1l2.9.6c.2 0 .4.1.4 0 .1 0 .1-.1.2-.1 0-.1.1-.2.1-.4l.1-.4v-.6c-.1-.2-.2-.3-.3-.5-.2-.1-.4-.3-.7-.5l-.1-.1h0zm1-3l-.4 1.6.4.3c.1.1.2.2.3.2s.2 0 .3-.1c0-.1.1-.2.2-.4h.1l-.4 1.5h-.1c0-.2 0-.3-.1-.4s-.3-.3-.6-.5l-3.2-2.4v-.1l4-.7c.4-.1.6-.1.7-.2s.1-.2.2-.3h.1l-.5 2.2h-.1v-.1-.4c0-.1-.1-.1-.1-.1h-.1-.3l-.4-.1h0zm-.3 0l-1.7.3 1.4 1.1.3-1.4h0zm.6-5.4c.2-.4.4-.7.6-.8.3-.2.6-.2.9-.2.3.1.6.3.7.6.2.4.2.9 0 1.5l-.6 2.2h-.1c.1-.2.1-.3.1-.4s-.1-.1-.1-.2c-.1 0-.2-.1-.4-.2l-2.9-.8c-.2-.1-.4-.1-.5-.1s-.1.1-.2.1c-.1.1-.1.2-.2.4h-.1l.6-2.1c.1-.5.3-.9.4-1 .1-.2.3-.3.5-.4s.4-.1.6 0 .4.2.5.4c.1.3.2.6.2 1zm-.5 1.1c.1-.3.1-.5.1-.7s-.1-.3-.2-.4-.3-.2-.5-.3-.4-.1-.5 0c-.1 0-.3.1-.4.3-.1.1-.2.3-.3.7l1.8.4h0zm.3.1l1.4.4h.2.3c.1 0 .1-.1.2-.2 0-.2.1-.3 0-.5 0-.2-.1-.3-.2-.4s-.3-.2-.5-.3-.4-.1-.6 0-.3.2-.5.3c-.1.1-.2.4-.3.7h0zm2.5-5.2l-.5 1.6.4.3c.1.1.2.2.3.2s.2 0 .3-.1c.1 0 .1-.2.2-.4h.1l-.4 1.5h-.1c0-.2 0-.3-.1-.4s-.3-.3-.5-.6l-3-2.6v-.1l4.1-.5c.4 0 .6-.1.8-.2.1-.1.2-.1.2-.3h.1l-.6 2.1h-.1v-.1c.1-.2.1-.3 0-.4 0-.1-.1-.1-.1-.1h-.1-.3l-.7.1h0zm-.3 0l-1.7.2 1.3 1.1.4-1.3z"/><path d="M148.7 214l-2.5-2.1.6-1.8h.1v.1c0 .1-.1.2 0 .3 0 .1 0 .1.1.2l.4.2 2.9 1c.2.1.4.1.4.1.1 0 .1 0 .2-.1s.1-.1.2-.3v-.1h.1l-.8 2.3h-.1v-.1c0-.1.1-.2 0-.3 0-.1 0-.1-.1-.2l-.4-.2-3.2-1.1 3.4 3v.1l-4.5.4 3.1 1c.2.1.3.1.4.1s.2 0 .3-.1.2-.2.2-.4h.1l-.5 1.5h-.1v-.3c0-.1 0-.2-.1-.2 0-.1-.1-.1-.2-.2l-.3-.1-2.8-.9c-.2-.1-.4-.1-.4-.1l-.2.1c-.1.1-.1.1-.2.3v.1h-.1l.6-1.8 3.4-.4h0z"/><path d="M151 208.3l-.6 1.5.4.3c.1.1.2.2.3.2h.3c.1 0 .1-.2.2-.4h.1l-.5 1.4h-.1c0-.2 0-.3-.1-.5-.1-.1-.2-.3-.5-.6l-2.9-2.8v-.1l4.1-.3c.4 0 .6-.1.8-.1.1 0 .2-.1.2-.3h.1l-.8 2.1h-.1v-.1c.1-.2.1-.3.1-.4s-.1-.1-.1-.1h-.1-.3l-.5.2h0zm-.3 0l-1.7.1 1.2 1.2.5-1.3zm-29.8 60.2h1.2v.1c-.3.1-.5.1-.6.2s-.2.2-.3.4c0 .1-.1.2-.1.4v.3l3.5.1h.4c.1 0 .1-.1.2-.1 0-.1.1-.2.1-.3v-.2h.1l-.1 2.4h-.1v-.2c0-.1 0-.2-.1-.3 0-.1-.1-.1-.2-.1h-.4l-3.5-.1v.3c0 .3.1.5.2.7.2.2.4.3.8.4v.1h-1.2l.1-4.1h0z"/><path d="M121 265.6c0-.7.2-1.3.7-1.8.5-.4 1.1-.6 1.7-.6s1.1.2 1.5.6c.6.5.8 1.1.8 2 0 .8-.3 1.5-.9 1.9-.5.3-1 .5-1.6.5-.7 0-1.2-.3-1.7-.8-.4-.6-.6-1.2-.5-1.8h0zm.2-.1c0 .4.2.7.6 1 .3.2.8.3 1.5.3.8 0 1.4-.1 1.8-.3.3-.2.4-.4.4-.8 0-.2 0-.4-.1-.6s-.4-.4-.7-.5a3.73 3.73 0 0 0-1.2-.2c-.6 0-1.1 0-1.4.1s-.5.2-.7.4c-.1.2-.2.4-.2.6h0zm3.2-5.8l-2.9-1.4.1-1.9h.1v.1c0 .1 0 .2.1.3 0 .1.1.1.2.1s.2 0 .4.1l3 .2h.4c.1 0 .1-.1.2-.1s.1-.2.1-.3v-.1h.1l-.1 2.4h-.1v-.1c0-.1 0-.2-.1-.3 0-.1-.1-.1-.2-.1s-.2 0-.4-.1l-3.4-.2 4.1 2v.1l-4.3 1.5 3.2.2h.4c.1 0 .2-.1.3-.2s.1-.2.1-.5h.1l-.1 1.6h-.1v-.3c0-.1-.1-.2-.1-.2-.1 0-.1-.1-.2-.1h-.3l-2.9-.2h-.4c-.1 0-.1.1-.2.1 0 .1-.1.2-.1.3v.1h-.1l.1-1.9 3-1.1z"/><path d="M123.9 253.3c.1-.4.3-.7.4-.9.2-.2.5-.4.8-.3.3 0 .6.2.8.5.3.4.4.9.3 1.5l-.1 2.3h-.1v-.4s-.1-.1-.1-.2-.2-.1-.5-.1l-3-.2h-.5c-.1 0-.1.1-.2.2 0 .1-.1.2-.1.4h-.1l.1-2.2c0-.5.1-.9.2-1.1s.3-.4.4-.5c.2-.1.4-.2.6-.2s.4.1.6.3c.3.2.4.5.5.9h0zm-.2 1.2c0-.3 0-.6-.1-.7-.1-.2-.2-.3-.3-.4s-.3-.1-.5-.1-.4 0-.5.1l-.3.3c-.1.1-.1.4-.1.7l1.8.1h0zm.3 0l1.5.1h.2c.1 0 .2 0 .3-.1s.1-.1.1-.3 0-.3-.1-.5-.2-.3-.3-.4-.3-.1-.5-.1-.4 0-.6.1a.78.78 0 0 0-.4.4c-.1.2-.2.5-.2.8zm2.4-5.1h0v2.4h-.1v-.2c0-.1 0-.2-.1-.3 0-.1-.1-.1-.2-.1s-.2 0-.4-.1l-3-.1h-.4c-.1 0-.1.1-.2.1 0 .1-.1.2-.1.3v.2h-.1l.1-2.4h.1v.2c0 .1 0 .2.1.3 0 .1.1.1.2.1s.2 0 .4.1l3 .1h.4c.1 0 .1-.1.2-.1s.1-.2.1-.3v-.2zm-4.5-5h1.6v.1c-.4.1-.8.4-1 .7a1.69 1.69 0 0 0-.3 1c0 .3.1.6.3.9.2.2.5.4.8.5s.7.1 1.1.1.8 0 1.2-.2c.3-.1.6-.3.7-.5.2-.2.2-.5.2-.8v-.3c0-.1-.1-.2-.1-.4h-1-.4c-.1 0-.1.1-.1.2s-.1.2-.1.3v.1h-.1v-2.2h.1c0 .2 0 .3.1.4 0 .1.1.1.2.2h.3 1l.3.9c.1.3.1.6.1 1s-.1.8-.2 1.1-.3.5-.5.8c-.2.2-.4.4-.7.5-.3.2-.7.2-1 .2-.7 0-1.3-.2-1.7-.7-.5-.5-.7-1.1-.7-1.8 0-.2 0-.4.1-.6 0-.1.1-.3.2-.5s.1-.4.1-.4c0-.1 0-.1-.1-.2 0-.1-.1-.1-.3-.2l-.1-.2h0zm2-3.8c.1-.4.2-.8.3-.9.2-.3.4-.4.8-.4.3 0 .6.1.9.3.3.3.5.8.5 1.4l.2 2.3h-.1c0-.2-.1-.4-.1-.4 0-.1-.1-.1-.2-.1h-.5l-3 .3c-.2 0-.4 0-.5.1-.1 0-.1.1-.1.2v.4h-.1l-.2-2.2v-1.1c.1-.2.2-.4.4-.6.2-.1.4-.2.6-.2s.4 0 .6.2c.2.1.3.3.5.7h0zm0 1.3c0-.3-.1-.6-.2-.7l-.3-.3c-.1-.1-.3-.1-.5-.1s-.4.1-.5.2a1.38 1.38 0 0 0-.3.4c-.1.2-.1.4 0 .7l1.8-.2h0zm.2 0l1.5-.1h.2c.1 0 .2 0 .3-.1s.1-.2.1-.3c0-.2-.1-.3-.2-.5-.1-.1-.2-.3-.4-.3-.2-.1-.3-.1-.5-.1s-.4.1-.6.2-.3.3-.3.4c-.1.1-.1.4-.1.8h0z"/><path d="M121.5 237.8l1.8-.5v-.1c-.1-.3-.2-.5-.4-.5-.2-.1-.5-.1-.8 0v-.1l2.3-.6v.1l-.6.3a.76.76 0 0 0-.2.4v.5l1.2-.3c.2-.1.4-.1.4-.1s.1-.1.1-.2v-.3l-.1-.3c-.1-.4-.3-.7-.6-.9a1.69 1.69 0 0 0-1-.3v-.1l1.5-.2 1 3.8h-.1v-.1c0-.1-.1-.2-.2-.3 0 0-.1-.1-.2-.1s-.2 0-.4.1l-2.9.8c-.2.1-.3.1-.4.1s-.1.1-.1.2v.4.1h-.1l-1-3.7 1.3-.3v.1c-.3.1-.5.3-.6.5s-.2.3-.2.6c0 .1 0 .4.1.7l.2.3h0zm-1.6-3.9l1.5-1.2-.1-.1c-.2-.2-.4-.3-.6-.3s-.5.1-.8.3l-.1-.1 1.9-1.5.1.1c-.2.2-.3.4-.4.5-.1.2-.1.3-.1.4a.76.76 0 0 0 .2.4l1-.8.3-.3v-.2c0-.1-.1-.2-.1-.3l-.2-.2c-.3-.3-.6-.5-.9-.6s-.7 0-1.1.1l-.1-.1 1.3-.7 2.5 3.1-.1.1-.1-.1c-.1-.1-.2-.2-.3-.2h-.2c-.1 0-.2.1-.4.2l-2.4 1.9c-.2.1-.3.2-.3.3s-.1.1-.1.2.1.2.1.3l.1.1-.1.1-2.4-3 1.1-.8.1.1c-.2.3-.3.5-.4.7 0 .2 0 .4.1.6 0 .1.2.3.4.6l.6.4zM124 200l1.3-.1c.2 0 .4 0 .5-.1.1 0 .1-.1.1-.2v-.4h.1l.1 2.3h-.1c0-.2 0-.4-.1-.4 0-.1-.1-.1-.2-.2h-.5l-3 .1c-.2 0-.4 0-.5.1-.1 0-.1.1-.1.2v.4h-.1l-.1-2.1c0-.6 0-1 .1-1.2.1-.3.2-.5.4-.6.2-.2.4-.3.7-.3s.6.1.9.3c.1.1.3.4.3.6l1.5-1.2c.2-.2.3-.3.4-.3.1-.1.1-.2.1-.3h.1l.1 1.4-2 1.6v.4zm-2.3.1l2-.1v-.2c0-.3-.1-.5-.1-.7a1.38 1.38 0 0 0-.3-.4c-.2-.1-.4-.1-.6-.1-.3 0-.6.1-.8.3s-.2.4-.2.8v.4z"/><path d="M125.6 194.2h0l.3 2.4h-.1v-.2c0-.1 0-.2-.1-.3 0-.1-.1-.1-.2-.1h-.4l-3 .2c-.2 0-.4 0-.4.1-.1 0-.1.1-.1.2s-.1.2 0 .3v.2h-.1l-.2-2.4h.1v.2c0 .1 0 .2.1.3 0 .1.1.1.2.1h.4l3-.2c.2 0 .4 0 .4-.1.1 0 .1-.1.1-.2s.1-.2 0-.3v-.2z"/><path d="M120.7 189.6h0a.78.78 0 0 0 .4.4c.1.1.4.2.8.3l3.6 1.2v.1l-3.5 1.9c-.4.2-.7.4-.7.5s-.1.2-.1.4h-.1l-.2-2.2h.1v.1c0 .2.1.3.1.4 0 0 .1.1.2.1h.1c.1 0 .2-.1.4-.2l2.2-1.2-2.1-.7c-.3-.1-.4-.1-.5-.2h-.2c-.1 0-.1 0-.2.1 0 0-.1.1-.1.2v.4h-.1l-.1-1.6h0z"/><path d="M120.7 187.8l1.9-.2v-.1c0-.3-.2-.5-.4-.6s-.5-.2-.8-.1v-.1l2.4-.3v.1c-.3.1-.5.1-.6.3-.2.1-.3.2-.3.3v.5l1.3-.2c.3 0 .4-.1.5-.1s.1-.1.1-.1v-.3-.3c-.1-.4-.2-.8-.4-1a1.53 1.53 0 0 0-1-.4v-.1h1.5l.5 3.9h-.1v-.2c0-.1-.1-.2-.1-.3s-.1-.1-.2-.1h-.4l-3 .4c-.2 0-.3 0-.4.1-.1 0-.1.1-.2.1-.1.1-.1.2 0 .4v.2h-.1l-.5-3.8 1.3-.2v.1c-.3.1-.5.2-.7.4-.1.1-.2.3-.3.5v.7.5h0zm1.6-4.8l1.3-.2c.2 0 .4-.1.5-.1s.1-.1.1-.2v-.4h.1l.4 2.3h-.1c0-.2-.1-.3-.1-.4-.1-.1-.1-.1-.2-.1h-.5l-2.9.5c-.2 0-.4.1-.5.1s-.1.1-.1.2v.4h-.1l-.4-2.1c-.1-.5-.1-1-.1-1.2 0-.3.1-.5.3-.7s.4-.3.7-.4.6 0 .9.2c.2.1.3.3.4.6l1.3-1.4c.2-.2.3-.3.3-.4.1-.1.1-.2.1-.3h.1l.2 1.4-1.8 1.8.1.4h0zm-2.2.4l2-.3v-.2c-.1-.3-.1-.5-.2-.7-.1-.1-.2-.2-.4-.3s-.4-.1-.6 0c-.3.1-.6.2-.7.4s-.2.5-.1.8v.3zm39.6 11l1.5-.4v.1c-.4.2-.6.5-.8.8-.1.3-.2.6-.1 1 .1.3.2.5.5.7.2.2.5.3.8.3.4 0 .8 0 1.2-.1s.7-.3 1-.5.5-.4.6-.7.1-.6 0-.9-.2-.5-.4-.7-.5-.4-.8-.6l.4-.1c.3.2.6.4.8.6s.3.5.4.9c.1.5.2.9.1 1.3s-.3.8-.6 1.1-.6.5-1 .6-.9.1-1.3 0-.8-.3-1.1-.6-.5-.7-.6-1.1c-.1-.3-.1-.7-.1-1v-.4c0-.1-.1-.1-.1-.2h-.3l-.1-.1h0zm2.3-3.9l.6 1.5h.5c.2 0 .3 0 .4-.1s.2-.1.2-.3c0-.1 0-.2-.1-.4h.1l.6 1.4h-.1l-.3-.3c-.1-.1-.4-.1-.8-.1l-4-.1v-.1l2.8-3c.3-.3.4-.5.5-.6v-.3h.1l.9 2h-.1v-.1c-.1-.2-.1-.3-.2-.3h-.2l-.1.1-.2.2-.6.5h0zm-.2.2l-1.2 1.3h1.7l-.5-1.3z"/><path d="M159.7 186.8l1.4-.3c.2-.1.4-.1.4-.1s.1-.1.1-.2v-.3-.1h.1l.6 2.3h-.1v-.1c0-.1-.1-.2-.1-.3 0 0-.1-.1-.2-.1s-.2 0-.4.1l-2.9.7c-.2.1-.4.1-.4.1s-.1.1-.1.2v.3.1h-.1l-.6-2.3h.1v.1c0 .1.1.2.1.3 0 0 .1.1.2.1s.2 0 .4-.1l1.3-.3-.4-1.6-1.3.3c-.2.1-.4.1-.4.1s-.1.1-.1.2v.3.1h-.1l-.6-2.3h.1v.1c0 .1.1.2.1.3 0 0 .1.1.2.1s.2 0 .4-.1l2.9-.7c.2-.1.4-.1.4-.1.1 0 .1-.1.1-.2v-.3-.1h.1l.6 2.3h-.1v-.1c0-.1-.1-.2-.1-.3 0 0-.1-.1-.2-.1s-.2 0-.4.1l-1.4.3.4 1.6zm.2-7l-.2 1.6.4.2c.1.1.3.1.4.1s.2 0 .3-.1c0-.1.1-.2.1-.4h.1l-.2 1.5h-.1c0-.2-.1-.3-.2-.4s-.3-.3-.6-.5l-3.5-2v-.1l3.9-1.2c.4-.1.6-.2.7-.3s.1-.2.2-.3h.1l-.2 2.2h-.1v-.1-.4c0-.1-.1-.1-.1-.1h-.1l-.3.1-.6.2h0zm-.3.1l-1.6.5 1.5.9.1-1.4zm1-5.9c.3-.4.5-.6.7-.7.3-.1.6-.1.9 0s.5.4.6.7c.1.4 0 .9-.2 1.5l-1 2.1-.1-.1c.1-.2.1-.3.1-.4s0-.2-.1-.2c0-.1-.2-.1-.4-.2l-2.7-1.2-.4-.2-.2.1c-.1.1-.1.2-.2.4l-.1-.1.9-2c.2-.5.4-.8.6-1s.4-.3.6-.3.4 0 .6.1.3.2.4.5.1.6 0 1h0zm-.6 1.1c.1-.3.2-.5.2-.7s0-.3-.1-.4-.2-.2-.4-.3-.4-.1-.5-.1c-.2 0-.3.1-.4.2s-.3.3-.4.6l1.6.7h0zm.3.1l1.3.6.2.1c.1.1.2.1.3 0 .1 0 .1-.1.2-.2.1-.2.1-.3.1-.5s-.1-.3-.2-.5c-.1-.1-.2-.2-.4-.3s-.4-.1-.6-.1-.4.1-.5.2c-.1.2-.3.4-.4.7h0zm3.4-4.7l-.8 1.4.3.4.3.3c.1.1.2.1.3 0 .1 0 .2-.2.3-.4l.1.1-.7 1.3-.1-.1a.45.45 0 0 0 0-.5c-.1-.2-.2-.4-.4-.7l-2.5-3.2v-.1l4.1.3h.8c.1 0 .2-.1.3-.2l.1.1-1 2-.1-.1v-.1c.1-.2.1-.3.1-.4s0-.1-.1-.1h-.1-.3-.6 0zm-.2 0l-1.7-.1 1.1 1.4.6-1.3h0zm3.8-9.6l1.2.4c.2.1.4.1.5.1s.1 0 .2-.1.1-.2.2-.4h.1l-.8 2.2h-.1c.1-.2.1-.3.1-.4s0-.2-.1-.2c0-.1-.2-.1-.4-.2l-2.8-1c-.2-.1-.4-.1-.5-.1s-.1 0-.2.1-.1.2-.2.4h-.1l.7-2 .5-1.1c.2-.2.4-.4.6-.5s.5-.1.8 0 .5.3.7.6c.1.2.1.4.1.7l1.8-.5c.2-.1.4-.1.5-.2s.2-.2.2-.3h.1l-.5 1.4-2.5.7-.1.4h0zm-2.1-.8l1.9.7.1-.2c.1-.3.2-.5.2-.7s-.1-.3-.2-.5c-.1-.1-.3-.2-.5-.3-.3-.1-.6-.1-.8 0s-.4.3-.5.7l-.2.3zm4-2.5c0-.2.1-.3.2-.4s.3-.1.4-.1c.2 0 .3.1.4.2s.1.3.1.4c0 .2-.1.3-.2.4s-.3.2-.4.1c-.2 0-.3-.1-.4-.2 0-.1-.1-.2-.1-.4zm-36.6 21.5c0-.4.1-.8.2-1 .2-.3.4-.5.7-.5.3-.1.6 0 .9.2.3.3.6.7.7 1.4l.4 2.3h-.1c0-.2-.1-.3-.1-.4-.1-.1-.1-.1-.2-.1h-.5l-2.9.6c-.2 0-.4.1-.5.1s-.1.1-.1.2v.4h-.1l-.4-2.2c-.1-.5-.1-.9-.1-1.1l.3-.6c.2-.2.3-.3.5-.3s.4 0 .6.1c.3.2.5.5.7.9h0zm.1 1.2c-.1-.3-.1-.5-.2-.7s-.2-.2-.4-.3c-.1-.1-.3-.1-.5 0s-.4.1-.5.2-.2.2-.2.4v.7l1.8-.3h0zm.2-.1l1.4-.3h.2c.1 0 .2-.1.3-.1s.1-.2 0-.3c0-.2-.1-.3-.2-.5s-.2-.2-.4-.3a.45.45 0 0 0-.5 0 .55.55 0 0 0-.5.3c-.1.1-.2.3-.3.5v.7h0zm1.6-7.8l1.5.6-1.2 3.9h-.1v-.1-.3c0-.1-.1-.1-.1-.2l-.4-.2-2.9-.9c-.2-.1-.4-.1-.4-.1-.1 0-.1 0-.2.1s-.1.2-.2.3v.1h-.1l.7-2.3h.1l-.1.2v.3c0 .1.1.1.1.2l.4.2 2.8.8c.2.1.4.1.4.1l.2-.1s.1-.2.1-.4l.1-.4c.1-.2.1-.4 0-.6a.55.55 0 0 0-.3-.5c-.1-.2-.4-.4-.7-.6l.3-.1h0zm1.9-2.9l-.8 1.4.3.4.3.3c.1.1.2.1.3 0 .1 0 .2-.2.3-.4l.1.1-.7 1.3-.1-.1a.45.45 0 0 0 0-.5c-.1-.2-.2-.4-.4-.7l-2.4-3.2v-.1l4.1.4h.8c.1 0 .2-.1.3-.2l.1.1-1.1 1.9-.1-.1v-.1c.1-.2.1-.3.1-.4s0-.1-.1-.1h-.1-.3-.6 0zm-.2-.1l-1.7-.2 1 1.4.7-1.2z"/><path d="M137.5 161.7l1.3.9-.1.1c-.4-.2-.8-.2-1.1-.1s-.6.3-.8.6c-.2.2-.3.5-.3.8s.1.6.2.8c.2.3.5.6.8.8a4.67 4.67 0 0 0 1 .5c.3.1.6.1.9 0s.5-.3.7-.5.3-.5.3-.8 0-.6-.1-1l.3.2c.1.4.1.7 0 1s-.2.6-.4.9c-.3.4-.6.7-1 .9s-.8.3-1.2.2c-.4 0-.8-.2-1.1-.4-.4-.3-.6-.6-.8-1s-.3-.8-.2-1.3.2-.8.5-1.2a1.85 1.85 0 0 1 .8-.7c.2-.1.3-.2.3-.3s.1-.1 0-.2c0-.1-.1-.2-.1-.2h.1 0zm3.7-1.5h2.6c.4 0 .6 0 .8-.1.1 0 .2-.1.3-.2l.1.1-1.5 1.9-.1-.2c.1-.1.1-.2.1-.3s0-.1-.1-.1c-.1-.1-.3-.1-.6-.1h-1.7v.2l1 .8c.2.2.3.2.4.3h.2c.1 0 .2-.1.3-.2l.1.1-1.5 1.8-.1-.1.1-.1c.1-.1.1-.2.1-.3v-.2c0-.1-.1-.2-.3-.3l-2.3-1.9a1.38 1.38 0 0 1-.4-.3h-.2c-.1 0-.2.1-.2.2l-.1.1-.1-.1 1.4-1.8.1.1c-.1.1-.2.2-.2.3v.2c0 .1.1.2.3.3l1.1.9V159c0-.3 0-.5-.1-.6s-.2-.1-.3 0c-.1 0-.1.1-.3.3l-.1-.1 1.1-1.4.1.1c-.1.1-.1.2-.2.3v.8l.2 1.8h0zm7.6-14.2h0c.1.2 0 .2 0 .3v.2s.1.2.3.5l2.1 3.5-.1.1-3-.9 1.6 2.8-.1.1-3.9-1.1-.7-.2c-.1 0-.2.1-.3.2l-.1-.1 1.2-1.6.1.1c-.1.1-.1.2-.1.3s0 .1.1.2.2.1.5.2l2.3.7-.9-1.6-.5-.2c-.3-.1-.5-.1-.6-.1h-.3c-.1 0-.2.1-.2.2l-.1-.1 1.4-1.8.1.1c-.1.1-.2.2-.2.3v.1l.1.1s.2.1.5.2l2.2.7-1.1-1.8c-.1-.2-.2-.3-.2-.4s-.1-.1-.1-.1c-.1-.1-.1-.1-.2-.1s-.2.1-.3.2l-.1-.1.6-.9h0zm3.9.3l-1 1.3.2.4c.1.1.2.2.2.3.1.1.2.1.3.1s.2-.1.3-.3l.1.1-.9 1.2-.1-.1c.1-.1.1-.3.1-.4s-.1-.4-.3-.7l-1.9-3.5v-.1l4 1c.4.1.6.1.8.1.1 0 .2-.1.3-.2l.1.1-1.4 1.8-.1-.1.1-.1c.1-.1.2-.3.2-.3 0-.1 0-.1-.1-.2l-.1-.1-.3-.1-.5-.2h0zm-.3-.1l-1.7-.4.8 1.5.9-1.1zm2.1-3.5l1 .8c.2.1.3.2.4.2h.2c.1 0 .2-.1.3-.3l.1.1-1.4 1.9-.1-.1c.1-.2.2-.3.2-.4v-.2c0-.1-.1-.2-.3-.3l-2.4-1.8c-.2-.1-.3-.2-.4-.2h-.2c-.1 0-.2.1-.3.3l-.1-.1 1.3-1.7c.3-.4.6-.7.8-.9s.5-.2.7-.2c.3 0 .5.1.7.2.3.2.4.5.5.8 0 .2 0 .4-.1.7h1.9.5c.1 0 .2-.1.3-.2l.1.1-.9 1.2-2.6-.1-.2.2zm-1.8-1.4l1.6 1.2.1-.2.4-.6v-.5c-.1-.2-.2-.3-.4-.5-.3-.2-.5-.3-.8-.3-.2 0-.5.2-.7.5l-.2.4h0z"/><path d="M157.4 138.7l1.1.7c.2.1.3.2.4.2h.2c.1 0 .2-.1.3-.3l.1.1-1.4 1.9-.1-.1c.1-.2.2-.3.2-.4v-.2c0-.1-.2-.2-.4-.3l-2.4-1.7c-.2-.1-.3-.2-.4-.2h-.2c-.1 0-.2.1-.3.3h-.1l1.2-1.7c.3-.5.6-.8.8-.9.2-.2.4-.3.7-.3s.5.1.7.2c.3.2.4.5.5.8 0 .2 0 .4-.1.7h1.9.5c.1 0 .2-.1.3-.2l.1.1-.8 1.2h-2.6l-.2.1h0zm-1.8-1.3l1.6 1.2.1-.2c.2-.3.3-.5.3-.6v-.5a.78.78 0 0 0-.4-.4c-.3-.2-.5-.3-.8-.2-.2 0-.5.2-.7.5l-.1.2h0zm6.6-2.3l.1.1-1.3 2-.1-.1.1-.1c.1-.1.1-.2.1-.3s0-.1-.1-.2l-.3-.3-2.5-1.6c-.2-.1-.3-.2-.4-.2h-.2c-.1 0-.2.1-.2.2l-.1.1-.1-.1 1.3-2 .1.1-.1.1c-.1.1-.1.2-.1.3s0 .1.1.2c0 .1.1.1.3.3l2.5 1.6c.2.1.3.2.4.2h.2c.1 0 .2-.1.2-.2l.1-.1zm-2.5-4.6c.3-.6.8-1.1 1.4-1.2.6-.2 1.2-.1 1.8.2.5.3.9.7 1.1 1.2.3.7.2 1.4-.2 2.1s-1 1.1-1.7 1.3a2.22 2.22 0 0 1-1.6-.3c-.6-.3-1-.8-1.1-1.4-.2-.8-.1-1.4.3-1.9h0zm.2 0c-.2.4-.2.7.1 1.2.2.3.6.7 1.2 1 .7.4 1.3.6 1.7.5.3 0 .6-.2.7-.5.1-.2.2-.4.1-.6 0-.2-.2-.5-.4-.7-.2-.3-.6-.5-1-.8-.5-.3-1-.5-1.3-.5s-.6 0-.8.1c0 0-.2.1-.3.3zm4-2.6l1.2.5c.2.1.4.1.5.1s.1 0 .2-.1.1-.2.2-.4h.1l-.9 2.2h-.1c.1-.2.1-.3.1-.4s0-.2-.1-.2c0-.1-.2-.1-.4-.2l-2.8-1.1c-.2-.1-.4-.1-.5-.1s-.1 0-.2.1-.1.2-.2.4h-.1l.8-2c.2-.5.4-.9.6-1.1s.4-.4.6-.4a1.1 1.1 0 0 1 .8 0c.3.1.5.3.6.7.1.2.1.4 0 .7l1.9-.4c.2-.1.4-.1.5-.1.1-.1.2-.1.2-.3h.1l-.5 1.3-2.5.6-.1.2h0zm-2.1-.9l1.9.8.1-.2c.1-.3.2-.5.2-.7s0-.3-.2-.5c-.1-.1-.3-.3-.5-.3-.3-.1-.6-.2-.8-.1s-.4.3-.5.6l-.2.4zm12.2-8.6l.6 1.1c.1.2.2.4.3.4s.1.1.2.1.2-.1.4-.1l.1.1-2.1 1.1-.1-.1a1.38 1.38 0 0 0 .4-.3c0-.1.1-.1.1-.2s-.1-.2-.2-.4l-1.4-2.6c-.1-.2-.2-.4-.3-.4s-.1-.1-.2-.1-.2.1-.4.1l-.1-.1 1.9-1c.5-.3.9-.4 1.1-.5.3-.1.5 0 .8.1.2.1.4.3.6.5.2.3.2.6.1.9-.1.2-.2.4-.4.6l1.7.9.4.2h.3l.1.1-1.3.7-2.3-1.2-.3.1h0zm-1-2l.9 1.8.2-.1c.3-.1.5-.3.6-.4a.76.76 0 0 0 .2-.4c0-.2 0-.4-.2-.6-.2-.3-.4-.5-.6-.6s-.5 0-.8.1l-.3.2h0zm6.9.9l.1.1-2 1.3-.1-.1.1-.1c.1-.1.2-.1.2-.2v-.2c0-.1-.1-.2-.2-.4l-1.6-2.6a1.38 1.38 0 0 0-.3-.4c-.1 0-.1-.1-.2-.1s-.2 0-.3.1l-.1.1-.1-.1 2-1.3.1.1-.1.1c-.1.1-.2.1-.2.2v.2c0 .1.1.2.2.4l1.6 2.6c.1.2.2.3.3.4.1 0 .1.1.2.1s.2 0 .3-.1l.1-.1z"/><path d="M181.4 110.8l.1.1c-.1.1-.2.3-.2.5 0 .1 0 .4.1.9l.8 3.8-.1.1-3.4-2c-.4-.2-.7-.4-.8-.4s-.2 0-.4.1l-.1-.2 1.8-1.3.1.1h-.1c-.2.1-.3.2-.3.3v.2l.1.1s.2.1.4.3l2.1 1.3-.5-2.2c-.1-.3-.1-.4-.1-.5s-.1-.1-.1-.2-.1-.1-.1-.1h-.2c-.1 0-.2.1-.3.2l-.1-.1c0 0 1.3-1 1.3-1z"/><path d="M182.7 110l1.2 1.4.1-.1c.2-.2.3-.4.3-.6s-.1-.5-.3-.8l.1-.1 1.6 1.8-.1.1c-.2-.2-.4-.3-.6-.4s-.3-.1-.5-.1c-.1 0-.3.1-.4.3l.9 1 .3.3h.2c.1 0 .2-.1.2-.1l.2-.2c.3-.3.5-.6.6-.9s0-.7-.2-1l.1-.1.8 1.2-3 2.6-.1-.1.1-.1c.1-.1.2-.2.2-.3v-.2c0-.1-.1-.2-.3-.3l-2-2.3c-.1-.2-.2-.2-.3-.3-.1 0-.1-.1-.2-.1s-.2.1-.3.2l-.1.1-.1-.1 2.9-2.5.9 1-.1.1c-.3-.2-.5-.3-.7-.4-.2 0-.4 0-.6.1-.1.1-.3.2-.6.4l-.2.5h0zm4.6-1.3l1 .9c.2.2.3.3.4.3h.2c.1 0 .2-.1.3-.3l.1.1-1.6 1.7-.1-.1c.1-.2.2-.3.2-.4v-.2c0-.1-.1-.2-.3-.3l-2.2-2c-.2-.2-.3-.3-.4-.3h-.2c-.1 0-.2.1-.3.3l-.1-.1 1.4-1.6c.4-.4.7-.7.9-.8s.5-.2.7-.2c.3 0 .5.1.7.3.3.2.4.5.4.8 0 .2-.1.4-.2.7l1.9.2h.5c.1 0 .2-.1.3-.2l.1.1-1 1.1-2.5-.3-.2.3h0zm-1.7-1.5l1.5 1.3.1-.1c.2-.2.3-.4.4-.6a.45.45 0 0 0 0-.5c-.1-.2-.2-.3-.3-.5-.3-.2-.5-.3-.7-.3s-.5.1-.7.4l-.3.3zM82.8 239l-5.6-3.3.5-3.7h.2v.3.7c0 .1.1.2.3.3.1.1.4.1.8.2l6 .9c.5.1.8.1.9.1s.2-.1.3-.3c.1-.1.2-.3.2-.6v-.3h.2l-.7 4.7h-.2v-.3-.7c0-.1-.1-.2-.3-.3-.1-.1-.4-.1-.8-.2l-6.7-1 7.8 4.7v.2l-8.7 2.3 6.4.9c.4.1.7.1.8.1.2 0 .4-.1.6-.3s.3-.5.3-.9h.2l-.5 3.1h-.2v-.1-.6c0-.2-.1-.3-.2-.4s-.3-.2-.5-.3c0 0-.3-.1-.7-.1l-5.7-.8c-.5-.1-.8-.1-.9-.1s-.2.1-.3.3c-.1.1-.2.3-.2.6v.3h-.2l.5-3.7 6.4-1.7h0zm5.3-16.5h.2l-.7 4.7h-.2v-.3-.7c0-.1-.1-.2-.3-.3-.1-.1-.4-.1-.8-.2l-6-.9c-.5-.1-.8-.1-.9-.1s-.2.1-.3.3c-.1.1-.2.3-.2.6v.3h-.2l.7-4.7h.2v.3.7c0 .1.1.2.3.3.1.1.4.1.8.2l6 .9c.5.1.8.1.9.1s.2-.1.3-.3c.1-.1.2-.3.2-.6v-.3z"/><use href="#C"/><use href="#C" x="1.9" y="-13.1"/><use href="#D"/><path d="M86.2 171.8l3 .4v.3c-.8 0-1.4.3-2 .7-.5.4-.8 1-.9 1.5s0 .8.2 1.1.5.5.8.5c.2 0 .4 0 .6-.1a3.04 3.04 0 0 0 .7-.5c.2-.2.5-.6 1-1.3.7-1 1.3-1.6 1.8-1.9s1.1-.4 1.7-.3c.8.1 1.4.5 1.8 1.2s.6 1.5.5 2.4c0 .3-.1.6-.2.8l-.5.9c-.1.2-.2.4-.2.5s0 .2.1.4l.4.4v.2l-3.4-.5v-.2c1-.1 1.8-.3 2.4-.8s.9-1.1 1-1.7c.1-.5 0-.9-.2-1.3-.2-.3-.5-.5-.9-.6-.2 0-.4 0-.7.1-.2.1-.4.2-.6.4s-.5.6-.9 1.1c-.5.8-1 1.3-1.3 1.6s-.7.6-1.1.7-.8.2-1.2.1c-.7-.1-1.3-.5-1.7-1.1s-.6-1.3-.5-2.1c0-.3.1-.6.2-.8s.2-.4.4-.7.3-.5.3-.6 0-.2-.1-.3-.2-.2-.5-.3v-.2h0zm1.9-13.1l3 .4v.3c-.8 0-1.4.3-2 .7-.5.4-.8 1-.9 1.5s0 .8.2 1.1.5.5.8.5c.2 0 .4 0 .6-.1a3.04 3.04 0 0 0 .7-.5c.2-.2.5-.6 1-1.3.7-1 1.3-1.6 1.8-1.9s1.1-.4 1.7-.3c.8.1 1.4.5 1.8 1.2.5.7.6 1.5.5 2.4 0 .3-.1.6-.2.8l-.5.9c-.1.2-.2.4-.2.5s0 .2.1.4a.78.78 0 0 0 .4.4v.2l-3.4-.5v-.2c1-.1 1.8-.3 2.4-.8s.9-1.1 1-1.7c.1-.5 0-.9-.2-1.3-.2-.3-.5-.5-.9-.6-.2 0-.4 0-.6.1s-.4.2-.6.4-.5.6-.9 1.1c-.5.8-1 1.3-1.3 1.6s-.7.6-1.1.7-.8.2-1.2.1c-.7-.1-1.3-.5-1.7-1.1s-.6-1.3-.5-2.1c0-.3.1-.6.2-.8s.2-.4.4-.7.3-.5.3-.6 0-.2-.1-.3-.2-.2-.5-.3l-.1-.2h0z"/><use href="#D" x="5.3" y="-37"/><path d="M96.3 138.3l2.5.4c.5.1.8.1.9 0 .1 0 .3-.1.4-.3s.2-.4.2-.8h.2l-.7 4.6h-.2c.1-.4.1-.7 0-.9s-.1-.3-.3-.4c-.1-.1-.4-.2-.9-.2l-5.9-.9c-.5-.1-.8-.1-.9 0-.1 0-.3.1-.4.3-.1.1-.2.4-.2.8h-.2l.6-4c.2-1.3.6-2.2 1.1-2.7s1.2-.7 1.9-.6c.6.1 1.1.3 1.4.8.4.4.6 1 .6 1.6.1.5.1 1.2-.1 2.3h0zm-4.4-.7l3.9.6c0-.1 0-.3.1-.3.1-.5 0-1-.3-1.3a2.65 2.65 0 0 0-1.4-.7c-.7-.1-1.2 0-1.5.2-.4.3-.6.7-.7 1.3l-.1.2zm6.4-13.2l2.5.4c.5.1.8.1.9 0 .1 0 .3-.1.4-.3.1-.1.2-.4.2-.8h.2l-.7 4.6h-.2c.1-.4.1-.7 0-.9s-.1-.3-.3-.4c-.1-.1-.4-.2-.9-.2l-5.9-.9c-.5-.1-.8-.1-.9 0-.1 0-.3.1-.4.3s-.2.4-.2.8h-.2l.6-4c.2-1.3.6-2.2 1.1-2.7s1.2-.7 1.9-.6c.6.1 1.1.3 1.4.8.4.4.6 1 .6 1.6.1.5.1 1.3-.1 2.3h0zm-4.4-.6l3.9.6c0-.1 0-.3.1-.3.1-.5 0-1-.3-1.3a2.65 2.65 0 0 0-1.4-.7c-.7-.1-1.2 0-1.5.2-.4.2-.6.7-.7 1.3l-.1.2zm10.5-14h.2l-.7 4.7h-.2v-.3-.7c0-.1-.1-.2-.3-.3-.1-.1-.4-.1-.8-.2l-6-.9c-.5-.1-.8-.1-.9-.1s-.2.1-.3.3c-.1.1-.2.3-.2.6v.3H95l.7-4.7h.2v.3.7c0 .1.1.2.3.3.1.1.4.1.8.2l6 .9c.5.1.8.1.9 0 .1 0 .2-.1.3-.3.1-.1.2-.3.2-.6v-.2zm45.9-41.2l.2 1.4h-.1c-.1-.3-.3-.5-.4-.7-.1-.1-.3-.2-.5-.3h-.5l-.4.1.7 4c0 .3.1.4.1.5s.1.1.2.1h.4.2v.1l-2.7.4v-.1h.2c.2 0 .3-.1.4-.1s.1-.1.1-.2v-.5l-.7-4-.4.1c-.4.1-.6.2-.7.3-.2.2-.3.6-.3 1h-.1l-.2-1.4 4.5-.7zm4 .5l-.3 2.1h.1c.3 0 .6 0 .8-.2s.3-.5.4-.9h.1l-.4 2.8h-.1c0-.3 0-.6-.1-.8a1.38 1.38 0 0 0-.3-.4c-.1-.1-.3-.1-.6-.2l-.2 1.5v.5c0 .1.1.1.1.2.1.1.2.1.3.1h.3c.5.1.9 0 1.2-.2s.6-.5.8-1h.1l-.5 1.6-4.5-.6v-.1h.2.4c.1 0 .1-.1.2-.2 0-.1.1-.2.1-.5l.4-3.5v-.4c0-.1-.1-.2-.1-.2-.1-.1-.2-.1-.4-.2h-.2v-.1l4.4.6-.2 1.6h-.1c0-.4-.1-.7-.2-.9s-.3-.3-.5-.4c-.1-.1-.4-.1-.8-.2h-.4zm6.2 1.1l1.3 4 .8-2.1c.1-.3.1-.5.1-.7-.1-.2-.2-.3-.5-.4v-.1l1.6.6v.1c-.2 0-.4-.1-.5 0-.1 0-.2.1-.2.1-.1.1-.2.2-.2.5l-1.5 4.1h-.1l-1.9-5.4-1.1 3.2c-.1.3-.1.5 0 .7.1.1.2.3.4.3h.1v.1l-1.8-.6v-.1c.3.1.5.1.6 0s.3-.2.4-.5l1.3-3.5-.1-.2c-.1-.2-.1-.3-.2-.4s-.2-.1-.3-.2v-.1l1.8.6zm5.9 2.5l.8 4.1 1-2c.1-.3.2-.5.2-.6 0-.2-.2-.4-.5-.5l.1-.1 1.6.8-.1.1c-.2-.1-.4-.1-.5-.1s-.2 0-.3.1a1.38 1.38 0 0 0-.3.4l-2 3.9-.1-.1-1.2-5.6-1.5 3c-.1.3-.2.5-.1.6a.78.78 0 0 0 .4.4l.1.1-.1.1-1.7-.9.1-.1c.3.1.5.2.6.1.2-.1.3-.2.4-.5l1.7-3.3v-.2c0-.2-.1-.3-.1-.4-.1-.1-.2-.2-.3-.2l.1-.1 1.7 1zm5.3 3.2l-1.1 1.9.1.1c.3.2.6.2.8.1a1.54 1.54 0 0 0 .7-.7l.1.1-1.4 2.4-.1-.1c.1-.3.2-.5.2-.7s0-.4-.1-.5-.2-.2-.5-.4l-.7 1.3c-.1.3-.2.4-.2.5v.2c0 .1.1.1.3.2l.3.2c.4.2.8.3 1.2.3.4-.1.7-.3 1.1-.6l.1.1-1 1.4-4-2.2.1-.1.2.1c.1.1.3.1.4.1s.2 0 .2-.1c.1 0 .1-.2.3-.4l1.7-3c.1-.2.2-.3.2-.4v-.3l-.3-.3-.2-.1.1-.1 3.9 2.2-.8 1.4-.1-.1c.1-.4.2-.7.1-.9 0-.2-.1-.4-.3-.6-.1-.1-.3-.3-.7-.5l-.6-.5zm6.2 3l-.8 1.6-.1-.1c.1-.4.2-.8 0-1.2-.1-.4-.3-.6-.7-.8-.2-.1-.5-.2-.7-.1a1.38 1.38 0 0 0-.4.3c-.1.1-.1.2-.1.3s.1.3.1.5c.1.1.2.4.5.8.4.6.6 1 .7 1.4.1.3 0 .7-.2 1-.2.4-.5.6-1 .8-.5.1-.9 0-1.4-.2-.1-.1-.3-.2-.4-.3l-.4-.4-.2-.2h-.2c-.1 0-.2.1-.3.1l-.1-.1 1-1.8.1.1c-.2.5-.2 1 0 1.4.1.4.4.7.7.9.3.1.5.2.7.1s.4-.2.5-.4c.1-.1.1-.2.1-.4 0-.1 0-.3-.1-.4-.1-.2-.2-.4-.4-.7-.3-.4-.5-.8-.6-1s-.2-.5-.2-.7.1-.5.2-.7a1.27 1.27 0 0 1 .9-.7c.4-.1.8-.1 1.2.2a1.38 1.38 0 0 1 .7.7c.1.2.2.3.3.3h.2c.1 0 .1-.1.2-.2l.2-.1z"/><path d="M181.6 80.7l-.7 1.6-.1-.1c.1-.4.1-.8-.1-1.2a1.85 1.85 0 0 0-.7-.8c-.2-.1-.5-.1-.7-.1a1.38 1.38 0 0 0-.4.3c0 .1-.1.2-.1.3s.1.3.2.5c.1.1.3.4.6.8.4.5.7 1 .8 1.3s0 .7-.1 1c-.2.4-.5.7-1 .8s-.9.1-1.4-.1c-.2-.1-.3-.2-.4-.2-.1-.1-.3-.2-.4-.4l-.2-.2h-.2c-.1 0-.2.1-.3.1l-.1-.1.8-1.8.1.1c-.1.6-.1 1 .1 1.4s.4.7.8.8c.3.1.5.2.7.1s.4-.2.5-.4c.1-.1.1-.2.1-.4 0-.1-.1-.3-.1-.4-.1-.2-.2-.4-.5-.7-.3-.4-.6-.7-.7-1-.1-.2-.2-.5-.2-.7s0-.5.1-.7c.2-.4.5-.6.9-.8.4-.1.8-.1 1.3.1a1.38 1.38 0 0 1 .4.3l.3.3c.1.2.2.2.3.3h.2c.1 0 .1-.1.2-.2v.2z"/><path d="M183.5 81.9l-.7 2.1h.1c.3.1.6.1.8-.1a2.76 2.76 0 0 0 .6-.8h.1l-.9 2.6h-.1c.1-.3.1-.6 0-.8 0-.2-.1-.4-.2-.5s-.3-.2-.5-.3l-.5 1.4c-.1.3-.1.5-.1.5 0 .1 0 .1.1.2s.1.1.3.2l.3.1c.5.2.9.2 1.2 0 .4-.1.7-.4.9-.8h.1l-.7 1.5-4.4-1.4v-.1l.2.1c.1 0 .3.1.4 0 .1 0 .1-.1.2-.1 0-.1.1-.2.2-.5l1.1-3.3c.1-.2.1-.4.1-.4 0-.1 0-.2-.1-.2-.1-.1-.2-.2-.4-.2l-.2-.1v-.1l4.2 1.4-.5 1.5h-.1v-.9c-.1-.2-.2-.4-.4-.5-.1-.1-.4-.2-.8-.3l-.3-.2zm4.2 1l-.2 2.1h.1c.3 0 .6 0 .8-.2s.3-.5.4-.9h.1l-.3 2.8h-.1c0-.3 0-.6-.1-.8a1.38 1.38 0 0 0-.3-.4c-.1-.1-.3-.1-.6-.2l-.2 1.5v.5c0 .1.1.1.1.2.1 0 .2.1.3.1h.3c.5 0 .9 0 1.2-.2s.6-.5.7-1h.1l-.4 1.7-4.6-.5v-.1h.2.4c.1 0 .1-.1.2-.2 0-.1.1-.2.1-.5l.4-3.5v-.4c0-.1-.1-.2-.1-.2-.1-.1-.2-.1-.4-.1h-.2v-.1l4.4.4-.2 1.6h-.1c0-.4-.1-.7-.2-.9s-.3-.3-.5-.4c-.1-.1-.4-.1-.8-.2l-.5-.1zm18.7 7.1l1.1 1c.2.2.3.3.4.3h.3c.1 0 .2-.1.4-.3l.1.1-1.9 1.9-.1-.1c.2-.2.3-.3.3-.4v-.3c0-.1-.1-.2-.3-.4l-2.4-2.4c-.2-.2-.3-.3-.4-.3h-.3c-.1 0-.2.1-.4.3l-.1-.1 1.7-1.7c.4-.5.8-.8 1.1-.9s.6-.2.8-.2c.3 0 .6.2.8.4.3.3.4.6.4 1 0 .2-.1.5-.3.8l2.2.3c.3 0 .5.1.6 0 .1 0 .2-.1.4-.2l.1.1-1.2 1.2-2.9-.5-.4.4h0zm-1.8-1.7l1.6 1.6.2-.2c.3-.3.4-.5.5-.6s.1-.4 0-.5c-.1-.2-.2-.4-.4-.6-.3-.3-.6-.4-.8-.4-.3 0-.5.1-.8.4l-.3.3z"/><path d="M212.6 87l.1.1-1.9 1.9-.1-.1.1-.1c.1-.1.2-.2.2-.3v-.2c0-.1-.1-.2-.3-.4l-2.4-2.4c-.2-.2-.3-.3-.4-.3h-.2c-.1 0-.2.1-.3.2l-.1.1-.1-.1 1.9-1.9.1.1-.1.1c-.1.1-.2.2-.2.3v.2c0 .1.1.2.3.4l2.4 2.4c.2.2.3.3.4.3h.2c.1 0 .2-.1.3-.2l.1-.1z"/><path d="M213.1 79.3l.1.1c-.1.2-.2.3-.1.6 0 .2.1.5.3 1l1.5 4.1-.1.1-4.2-1.7c-.5-.2-.8-.3-.9-.3s-.3 0-.4.2l-.1-.1 1.8-1.8.1.1-.1.1c-.2.2-.3.3-.3.4s0 .1.1.2l.1.1c.1 0 .2.1.5.2l2.6 1.1-.9-2.4c-.1-.3-.2-.5-.2-.6s-.1-.2-.1-.2c-.1-.1-.1-.1-.2-.1h-.2c-.1 0-.2.1-.4.3l-.1-.1 1.2-1.3h0z"/><path d="M214.9 77.9l1.5 1.5.1-.1a1.08 1.08 0 0 0 .3-.7c0-.3-.2-.5-.5-.9l.1-.1 1.9 1.9-.1.1c-.2-.2-.5-.3-.7-.4s-.4-.1-.5 0-.3.2-.5.3l1 1c.2.2.3.3.4.3h.2c.1 0 .2-.1.3-.2l.2-.2c.3-.3.5-.7.6-1.1 0-.4 0-.8-.3-1.2l.1-.1 1 1.3-3.2 3.2-.1-.1.1-.1c.1-.1.2-.2.2-.3v-.2c0-.1-.1-.2-.3-.4l-2.4-2.4-.3-.3c-.1 0-.2-.1-.2 0-.1 0-.2.1-.4.2l-.1.1-.1-.1 3.1-3.1 1.1 1.1-.1.1c-.3-.2-.6-.3-.8-.4-.2 0-.4 0-.7.1-.1.1-.3.2-.6.5l-.3.7zm5.5-1.9l1.1 1c.2.2.3.3.4.3h.3c.1 0 .2-.1.4-.3l.1.1-1.9 1.9-.1-.1c.2-.2.3-.3.3-.4v-.3c0-.1-.1-.2-.3-.4l-2.4-2.4c-.2-.2-.3-.3-.4-.3h-.3c-.1 0-.2.1-.4.3l-.1-.1 1.7-1.7c.4-.5.8-.8 1.1-.9s.6-.2.8-.2c.3 0 .6.2.8.4.3.3.4.6.4 1 0 .2-.1.5-.3.8l2.2.3c.3 0 .5.1.6 0 .1 0 .2-.1.4-.2l.1.1-1.2 1.2-2.9-.5-.4.4h0zm-1.8-1.8l1.6 1.6.2-.2c.3-.3.4-.5.5-.6s.1-.4 0-.5c-.1-.2-.2-.4-.4-.6-.3-.3-.6-.4-.8-.4-.3 0-.5.1-.8.4l-.3.3z"/><defs ><path id="B" d="M74.2 55.2l.2.6 2.5 7.1h7.5.6l-.5.4-5.8 4.6 2.1 7.1.2.6-.5-.3-6.3-4.2-6.3 4.2-.5.3.2-.6 2.1-7.1-5.8-4.6-.5-.4h.6 7.5l2.5-7.1.2-.6h0z"/><path id="C" d="M80.8 208.9l3 .4v.3c-.8 0-1.4.3-2 .7-.5.4-.8 1-.9 1.5s0 .8.2 1.1.5.5.8.5c.2 0 .4 0 .6-.1a3.04 3.04 0 0 0 .7-.5c.2-.2.5-.6 1-1.3.7-1 1.3-1.6 1.8-1.9s1.1-.4 1.7-.3c.8.1 1.4.5 1.8 1.2.5.7.6 1.5.5 2.4 0 .3-.1.6-.2.8l-.5.9c-.1.2-.2.4-.2.5s0 .2.1.4l.4.4v.2l-3.4-.5v-.2c1-.1 1.8-.3 2.4-.8s.9-1.1 1-1.7c.1-.5 0-.9-.2-1.3-.2-.3-.5-.5-.9-.6-.2 0-.4 0-.6.1s-.4.2-.6.4-.5.6-.9 1.1c-.5.8-1 1.3-1.3 1.6s-.7.6-1.1.7-.8.2-1.2.1c-.7-.1-1.3-.5-1.7-1.1s-.6-1.3-.5-2.1c0-.3.1-.6.2-.8s.2-.4.4-.7.3-.5.3-.6 0-.2-.1-.3-.2-.2-.5-.3l-.1-.2h0z"/><path id="D" d="M93.5 185.4h.2l-.7 4.7h-.2v-.3-.7c0-.1-.1-.2-.3-.3-.1-.1-.4-.1-.8-.2l-6-.9c-.5-.1-.8-.1-.9-.1s-.2.1-.3.3c-.1.1-.2.3-.2.6v.3h-.2l.7-4.7h.2v.3.7c0 .1.1.2.3.3.1.1.4.1.8.2l6 .9c.5.1.8.1.9 0 .1 0 .2-.1.3-.3.1-.1.2-.3.2-.6v-.2z"/></defs></svg>