<?xml version="1.0" encoding="UTF-8" standalone="no"?>
<!-- Created with Inkscape (http://www.inkscape.org/) -->

<svg
   xmlns:dc="http://purl.org/dc/elements/1.1/"
   xmlns:cc="http://creativecommons.org/ns#"
   xmlns:rdf="http://www.w3.org/1999/02/22-rdf-syntax-ns#"
   xmlns:svg="http://www.w3.org/2000/svg"
   xmlns="http://www.w3.org/2000/svg"
   version="1.1"
   width="892.91339"
   height="152.71654"
   id="svg6109"
   xml:space="preserve"><metadata
     id="metadata6115"><rdf:RDF><cc:Work
         rdf:about=""><dc:format>image/svg+xml</dc:format><dc:type
           rdf:resource="http://purl.org/dc/dcmitype/StillImage" /><dc:title></dc:title></cc:Work></rdf:RDF></metadata><defs
     id="defs6113"><clipPath
       id="clipPath6127"><path
         d="m 0,0 595.276,0 0,841.89 L 0,841.89 0,0 z"
         id="path6129" /></clipPath><clipPath
       id="clipPath6223"><path
         d="m 70.866,786.339 45.456,0 0,19.834 -45.456,0 0,-19.834 z"
         id="path6225" /></clipPath><clipPath
       id="clipPath6275"><path
         d="m 426.57,781.741 148.683,0 0,24.432 -148.683,0 0,-24.432 z"
         id="path6277" /></clipPath><clipPath
       id="clipPath6371"><path
         d="m 133.37,784.179 57.496,0 0,15.332 -57.496,0 0,-15.332 z"
         id="path6373" /></clipPath></defs><g
     transform="matrix(1.25,0,0,-1.25,99.651589,677.84715)"
     id="g6117"><g
       transform="matrix(4.7662668,0,0,4.7662668,-2110.0331,-3303.0198)"
       id="g6271"><g
         clip-path="url(#clipPath6275)"
         id="g6273"><g
           transform="translate(518.5047,796.2659)"
           id="g6279"><path
             d="m 0,0 -7.251,0 0,-2.803 3.988,0 c 0.028,-2.629 -1.676,-4.477 -4.132,-4.477 -3.006,0 -4.565,2.455 -4.565,7.28 0,2.397 0.404,3.988 1.358,5.229 0.751,0.982 1.965,1.589 3.207,1.589 1.357,0 2.514,-0.519 3.266,-1.473 0.403,-0.52 0.606,-1.01 0.866,-2.052 l 3.034,0.521 c -0.377,1.589 -0.752,2.427 -1.648,3.439 -1.415,1.676 -3.178,2.456 -5.518,2.456 -2.601,0 -4.681,-0.983 -6.125,-2.948 -1.358,-1.85 -2.11,-4.277 -2.11,-6.992 0,-2.572 0.722,-5.085 1.966,-6.963 1.328,-1.965 3.294,-2.947 5.836,-2.947 2.398,0 3.987,0.866 5.229,2.888 l 1.068,-2.6 1.531,0 L 0,0 z m 6.966,-9.853 0,6.588 c 0,1.155 0.374,2.457 0.923,3.235 0.752,1.012 1.59,1.388 3.121,1.359 l 0,3.467 -0.434,0 C 9.479,4.796 8.294,4.074 7.542,2.919 7.166,2.37 6.966,1.936 6.675,0.982 l 0,3.409 -2.919,0 0,-14.244 3.21,0 z M 19.071,4.68 c -3.929,0 -6.703,-3.033 -6.703,-7.339 0,-1.849 0.462,-3.466 1.416,-4.854 1.156,-1.732 2.89,-2.628 5.085,-2.628 4.016,0 6.761,3.034 6.761,7.455 0,1.79 -0.346,3.119 -1.184,4.42 C 23.174,3.727 21.442,4.68 19.071,4.68 M 19.042,2.051 c 2.081,0 3.179,-1.646 3.179,-4.71 0,-3.178 -1.156,-4.854 -3.323,-4.854 -1.994,0 -3.121,1.791 -3.121,4.912 0,2.948 1.214,4.652 3.265,4.652 m 21.267,-11.904 0,14.244 -3.209,0 0,-6.847 c 0,-1.417 -0.115,-2.224 -0.433,-2.947 -0.463,-1.155 -1.646,-1.993 -2.774,-1.993 -0.694,0 -1.387,0.375 -1.734,0.953 -0.201,0.376 -0.288,0.81 -0.288,1.56 l 0,9.274 -3.294,0 0,-9.967 c 0,-1.3 0.204,-2.051 0.722,-2.832 0.81,-1.156 1.965,-1.733 3.496,-1.733 1.155,0 2.168,0.347 3.006,1.04 0.751,0.606 1.097,1.126 1.501,2.34 l 0,-3.092 3.007,0 z m 7.106,-4.824 0,6.818 c 0.953,-1.589 2.138,-2.282 3.987,-2.282 1.59,0 2.803,0.577 3.67,1.763 1.097,1.473 1.676,3.466 1.676,5.748 0,2.139 -0.521,3.988 -1.531,5.433 C 54.35,4.045 53.136,4.68 51.663,4.68 49.64,4.68 48.282,3.843 47.242,1.907 l 0,2.484 -3.091,0 0,-19.068 3.264,0 z m 0,12.683 c 0,2.311 1.301,4.045 3.005,4.045 1.879,0 2.919,-1.761 2.919,-4.883 0,-2.947 -1.069,-4.768 -2.775,-4.768 -1.848,0 -3.149,1.475 -3.149,3.584 l 0,2.022 z"
             id="path6281"
             style="fill:#c4c5c6;fill-opacity:1;fill-rule:nonzero;stroke:none" /></g><g
           transform="translate(437.8915,793.5587)"
           id="g6283"><path
             d="m 0,0 1.355,6.032 0.174,0 L 2.885,0 0,0 z m 18.462,12.615 -7.185,0 0,-16.615 -5.927,16.615 -7.947,0 -6.871,-19.775 7.605,0 0.578,2.466 5.428,0 0.657,-2.466 6.477,0 1.128,0 12.09,0 0,6.347 -6.033,0 0,13.428 z"
             id="path6285"
             style="fill:#00305d;fill-opacity:1;fill-rule:nonzero;stroke:none" /></g><g
           transform="translate(487.1441,793.5587)"
           id="g6287"><path
             d="m 0,0 1.356,6.032 0.172,0 L 2.885,0 0,0 z m -16.681,-2.439 -0.812,0 0,3.279 0.707,0 c 1.155,0 2.991,0.026 2.991,-1.627 0,-1.625 -1.705,-1.652 -2.886,-1.652 m -0.812,10.281 0.498,0 c 1.05,0 2.387,0.104 2.387,-1.363 0,-1.364 -1.18,-1.469 -2.229,-1.469 l -0.656,0 0,2.832 z m 22.842,4.773 -7.946,0 -4.629,-13.323 c -0.334,1.811 -1.591,3.05 -3.422,3.698 l 0,0.157 c 1.731,0.551 2.597,2.255 2.597,3.986 0,4.565 -3.909,5.482 -7.737,5.482 l -8.366,0 0,-19.775 9.781,0 c 1.968,0 4.037,0.452 5.456,1.587 l -0.551,-1.587 7.605,0 0.577,2.466 5.429,0 0.656,-2.466 7.605,0 -7.055,19.775 z"
             id="path6289"
             style="fill:#00305d;fill-opacity:1;fill-rule:nonzero;stroke:none" /></g><g
           transform="translate(311.3984,786.3388)"
           id="g6291"><path
             d="m 0,0 -0.912,-0.073 c -1.349,0 -1.751,0.79 -1.751,2.018 l 0,3.575 -1.094,0 0,0.754 1.094,0 0,1.532 0.949,0.097 0,-1.629 1.374,0 0,-0.754 -1.374,0 0,-3.733 c 0,-0.717 0.207,-1.094 0.985,-1.094 L 0,0.754 0,0 z"
             id="path6293"
             style="fill:#00305d;fill-opacity:1;fill-rule:nonzero;stroke:none" /></g><g
           transform="translate(316.2643,786.3874)"
           id="g6295"><path
             d="M 0,0 0,3.599 C 0,3.976 0,4.462 -0.134,4.827 -0.305,5.289 -0.742,5.557 -1.241,5.557 -1.727,5.557 -2.189,5.265 -2.493,4.9 -2.919,4.389 -2.967,3.818 -2.967,3.174 l 0,-3.174 -0.948,0 0,8.341 0.948,0 0,-3.307 0.036,0 c 0.39,0.826 0.961,1.301 1.922,1.301 0.656,0 1.276,-0.304 1.629,-0.864 C 0.997,4.863 0.948,4.28 0.948,3.599 L 0.948,0 0,0 z"
             id="path6297"
             style="fill:#00305d;fill-opacity:1;fill-rule:nonzero;stroke:none" /></g><g
           transform="translate(323.0282,790.1078)"
           id="g6299"><path
             d="M 0,0 C 0.012,1.021 -0.559,1.885 -1.654,1.885 -2.688,1.885 -3.356,0.973 -3.392,0 L 0,0 z m 0.948,-2.03 c -0.365,-1.131 -1.447,-1.812 -2.626,-1.812 -1.873,0 -2.833,1.483 -2.833,3.21 0,1.702 1.009,3.246 2.857,3.246 1.921,0 2.748,-1.605 2.7,-3.319 l -4.487,0 c 0,-0.486 0.024,-0.936 0.255,-1.398 0.292,-0.584 0.936,-0.936 1.581,-0.936 0.802,0 1.386,0.461 1.654,1.191 L 0.948,-2.03 z"
             id="path6301"
             style="fill:#00305d;fill-opacity:1;fill-rule:nonzero;stroke:none" /></g><g
           transform="translate(330.0128,792.5642)"
           id="g6303"><path
             d="m 0,0 0,-1.447 0.024,0 C 0.316,-0.608 0.839,0.17 1.836,0.17 l 0.353,-0.025 0,-0.911 -0.195,0 c -0.73,0 -1.24,-0.353 -1.593,-0.973 -0.255,-0.45 -0.304,-0.839 -0.304,-1.325 l 0,-3.113 -0.948,0 0,6.177 L 0,0 z"
             id="path6305"
             style="fill:#00305d;fill-opacity:1;fill-rule:nonzero;stroke:none" /></g><g
           transform="translate(337.3093,790.1078)"
           id="g6307"><path
             d="M 0,0 C 0.012,1.021 -0.559,1.885 -1.654,1.885 -2.688,1.885 -3.356,0.973 -3.392,0 L 0,0 z m 0.948,-2.03 c -0.365,-1.131 -1.447,-1.812 -2.626,-1.812 -1.873,0 -2.833,1.483 -2.833,3.21 0,1.702 1.009,3.246 2.857,3.246 1.921,0 2.748,-1.605 2.699,-3.319 l -4.487,0 c 0,-0.486 0.025,-0.936 0.256,-1.398 0.292,-0.584 0.936,-0.936 1.581,-0.936 0.802,0 1.386,0.461 1.654,1.191 L 0.948,-2.03 z"
             id="path6309"
             style="fill:#00305d;fill-opacity:1;fill-rule:nonzero;stroke:none" /></g><g
           transform="translate(344.3405,788.4297)"
           id="g6311"><path
             d="m 0,0 c -0.219,-1.252 -1.058,-2.164 -2.383,-2.164 -1.836,0 -2.627,1.593 -2.627,3.21 0,1.605 0.803,3.246 2.639,3.246 1.337,0 2.164,-0.863 2.371,-2.14 L -0.876,1.995 C -0.961,2.809 -1.459,3.49 -2.347,3.49 -3.635,3.49 -4,2.141 -4,1.107 c 0,-0.997 0.304,-2.456 1.592,-2.456 0.924,0 1.374,0.668 1.532,1.508 L 0,0 z"
             id="path6313"
             style="fill:#00305d;fill-opacity:1;fill-rule:nonzero;stroke:none" /></g><g
           transform="translate(347.5045,785.8039)"
           id="g6315"><path
             d="m 0,0 c -0.17,-0.45 -0.304,-0.791 -0.632,-1.143 -0.377,-0.401 -0.705,-0.474 -1.253,-0.474 -0.243,0 -0.474,0.048 -0.705,0.109 l 0,0.766 c 0.207,-0.049 0.426,-0.085 0.633,-0.085 0.96,0 1.13,0.79 1.386,1.52 l -2.14,6.067 0.984,0 1.654,-4.644 1.69,4.644 0.803,0 L 0,0 z"
             id="path6317"
             style="fill:#00305d;fill-opacity:1;fill-rule:nonzero;stroke:none" /></g><g
           transform="translate(355.2891,788.4297)"
           id="g6319"><path
             d="m 0,0 c -0.219,-1.252 -1.058,-2.164 -2.383,-2.164 -1.836,0 -2.627,1.593 -2.627,3.21 0,1.605 0.803,3.246 2.639,3.246 1.337,0 2.164,-0.863 2.371,-2.14 L -0.876,1.995 C -0.961,2.809 -1.459,3.49 -2.347,3.49 -3.635,3.49 -4,2.141 -4,1.107 c 0,-0.997 0.304,-2.456 1.592,-2.456 0.924,0 1.374,0.668 1.532,1.508 L 0,0 z"
             id="path6321"
             style="fill:#00305d;fill-opacity:1;fill-rule:nonzero;stroke:none" /></g><path
           d="m 356.69,794.728 0.948,0 0,-8.341 -0.948,0 0,8.341 z"
           id="path6323"
           style="fill:#00305d;fill-opacity:1;fill-rule:nonzero;stroke:none" /><path
           d="m 360.558,786.387 -0.948,0 0,6.177 0.948,0 0,-6.177 z m 0.049,7.271 -1.046,0 0,1.07 1.046,0 0,-1.07 z"
           id="path6325"
           style="fill:#00305d;fill-opacity:1;fill-rule:nonzero;stroke:none" /><g
           transform="translate(363.2827,791.4212)"
           id="g6327"><path
             d="m 0,0 0.025,0 c 0.353,0.766 1.046,1.301 1.921,1.301 0.742,0 1.361,-0.316 1.751,-0.961 0.316,-0.523 0.291,-1.349 0.291,-1.957 l 0,-3.417 -0.948,0 0,3.818 c 0,0.365 0.012,0.827 -0.17,1.143 C 2.663,0.28 2.213,0.486 1.812,0.486 1.314,0.486 0.863,0.255 0.536,-0.134 0.135,-0.62 0.049,-1.18 0.049,-1.799 l 0,-3.235 -0.948,0 0,6.177 L 0,1.143 0,0 z"
             id="path6329"
             style="fill:#00305d;fill-opacity:1;fill-rule:nonzero;stroke:none" /></g><g
           transform="translate(372.3934,790.6187)"
           id="g6331"><path
             d="m 0,0 c 0,0.778 -0.62,1.349 -1.374,1.349 -0.802,0 -1.386,-0.571 -1.386,-1.361 0,-0.839 0.548,-1.362 1.386,-1.362 C -0.546,-1.374 0,-0.827 0,0 m -1.045,-4.085 -1.484,0.097 c -0.364,-0.171 -0.669,-0.401 -0.669,-0.839 0,-0.851 1.314,-0.997 1.946,-0.997 0.462,0 1.179,0.073 1.593,0.268 0.34,0.145 0.534,0.352 0.534,0.729 0,0.632 -0.838,0.718 -1.312,0.729 l -0.608,0.013 z M 1.301,2.906 1.544,2.894 1.557,2.128 1.46,2.128 C 0.9,2.128 0.462,2.067 0.365,1.423 0.742,1.009 0.96,0.462 0.96,-0.098 c 0,-0.607 -0.328,-1.179 -0.79,-1.543 -0.45,-0.341 -1.009,-0.475 -1.568,-0.475 -0.146,0 -0.292,0 -0.438,0.037 -0.097,0.012 -0.291,0.06 -0.401,0.06 -0.292,0 -0.656,-0.254 -0.656,-0.571 0,-0.292 0.194,-0.45 0.462,-0.523 0.425,-0.097 1.021,-0.085 1.458,-0.097 0.536,-0.024 1.326,-0.036 1.812,-0.219 0.571,-0.219 0.949,-0.754 0.949,-1.362 0,-1.568 -1.861,-1.775 -3.052,-1.775 -0.572,0 -1.277,0.037 -1.812,0.243 -0.596,0.243 -1.057,0.681 -1.057,1.362 0,0.644 0.352,1.046 0.935,1.252 -0.352,0.232 -0.596,0.511 -0.596,0.973 0,0.608 0.354,0.876 0.852,1.106 -0.523,0.414 -0.802,0.961 -0.802,1.63 0,1.337 1.13,2.103 2.37,2.103 0.426,0 0.863,-0.085 1.252,-0.267 0.159,0.875 0.584,1.07 1.423,1.07"
             id="path6333"
             style="fill:#00305d;fill-opacity:1;fill-rule:nonzero;stroke:none" /></g><g
           transform="translate(383.2695,788.4297)"
           id="g6335"><path
             d="m 0,0 c -0.22,-1.252 -1.058,-2.164 -2.384,-2.164 -1.836,0 -2.626,1.593 -2.626,3.21 0,1.605 0.802,3.246 2.638,3.246 1.338,0 2.164,-0.863 2.372,-2.14 L -0.876,1.995 C -0.961,2.809 -1.46,3.49 -2.348,3.49 c -1.288,0 -1.653,-1.349 -1.653,-2.383 0,-0.997 0.304,-2.456 1.593,-2.456 0.923,0 1.374,0.668 1.532,1.508 L 0,0 z"
             id="path6337"
             style="fill:#00305d;fill-opacity:1;fill-rule:nonzero;stroke:none" /></g><g
           transform="translate(388.3539,787.9436)"
           id="g6339"><path
             d="m 0,0 c 0.256,0.486 0.305,1.046 0.305,1.581 0,0.583 -0.073,1.191 -0.39,1.69 C -0.376,3.721 -0.887,4 -1.422,4 -2.018,4 -2.553,3.66 -2.82,3.125 -3.051,2.675 -3.125,2.079 -3.125,1.581 c 0,-0.56 0.085,-1.204 0.353,-1.69 0.267,-0.474 0.79,-0.779 1.35,-0.779 0.632,0 1.13,0.329 1.422,0.888 m -4.182,1.581 c 0,1.714 0.972,3.197 2.833,3.197 1.812,0 2.711,-1.58 2.711,-3.209 0,-1.727 -0.997,-3.247 -2.869,-3.247 -1.848,0 -2.675,1.63 -2.675,3.259"
             id="path6341"
             style="fill:#00305d;fill-opacity:1;fill-rule:nonzero;stroke:none" /></g><g
           transform="translate(391.9446,792.5642)"
           id="g6343"><path
             d="m 0,0 0,-1.192 0.024,0 c 0.317,0.742 0.986,1.35 1.848,1.35 0.9,0 1.545,-0.608 1.739,-1.471 0.341,0.851 1.046,1.471 1.994,1.471 0.633,0 1.24,-0.353 1.557,-0.888 0.304,-0.511 0.291,-1.191 0.291,-1.763 l 0,-3.684 -0.948,0 0,3.684 c 0,0.414 0.024,0.852 -0.171,1.228 C 6.128,-0.863 5.727,-0.62 5.301,-0.62 4.827,-0.62 4.39,-0.912 4.11,-1.313 3.757,-1.812 3.769,-2.262 3.769,-2.845 l 0,-3.332 -0.949,0 0,3.915 c 0,0.341 -0.024,0.742 -0.206,1.046 C 2.396,-0.852 1.994,-0.62 1.58,-0.62 1.155,-0.62 0.717,-0.9 0.463,-1.228 0.146,-1.63 0.085,-2.128 0.085,-2.638 l 0,-3.539 -0.948,0 0,6.177 L 0,0 z"
             id="path6345"
             style="fill:#00305d;fill-opacity:1;fill-rule:nonzero;stroke:none" /></g><g
           transform="translate(402.127,788.807)"
           id="g6347"><path
             d="m 0,0 c 0,-0.851 0.754,-1.739 1.629,-1.739 0.523,0 1.01,0.316 1.264,0.754 0.281,0.474 0.328,1.119 0.328,1.666 0,1.009 -0.315,2.395 -1.592,2.395 C 0.79,3.076 0.17,2.334 0,1.568 L 0,0 z m 0,-4.438 -0.949,0 0,8.195 0.864,0 0,-1.191 0.024,0 C 0.255,3.38 0.924,3.915 1.848,3.915 3.575,3.915 4.291,2.201 4.291,0.717 4.291,0.012 4.158,-0.766 3.793,-1.386 3.368,-2.067 2.687,-2.541 1.848,-2.541 0.997,-2.541 0.425,-2.152 0,-1.447 l 0,-2.991 z"
             id="path6349"
             style="fill:#00305d;fill-opacity:1;fill-rule:nonzero;stroke:none" /></g><g
           transform="translate(411.7848,789.5)"
           id="g6351"><path
             d="m 0,0 -0.791,0 c -0.973,0 -2.504,-0.134 -2.504,-1.41 0,-0.767 0.656,-1.082 1.337,-1.082 1.167,0 1.958,0.997 1.958,2.091 L 0,0 z m 0,0.717 0,0.268 c 0,1.082 -0.474,1.495 -1.569,1.495 -0.778,0 -1.52,-0.243 -1.69,-1.094 l -0.888,0.146 c 0.171,1.289 1.533,1.69 2.662,1.69 0.669,0 1.435,-0.073 1.898,-0.608 0.511,-0.547 0.511,-1.325 0.511,-2.03 l 0,-2.396 c 0,-0.45 0.011,-0.899 0.133,-1.301 l -0.948,0 L 0,-1.958 c -0.438,-0.887 -1.18,-1.276 -2.165,-1.276 -1.155,0 -2.152,0.644 -2.152,1.872 0,0.742 0.462,1.411 1.143,1.714 0.693,0.329 1.605,0.365 2.372,0.365 l 0.802,0 z"
             id="path6353"
             style="fill:#00305d;fill-opacity:1;fill-rule:nonzero;stroke:none" /></g><g
           transform="translate(415.1071,791.4212)"
           id="g6355"><path
             d="m 0,0 0.024,0 c 0.353,0.766 1.046,1.301 1.922,1.301 0.741,0 1.361,-0.316 1.75,-0.961 0.316,-0.523 0.292,-1.349 0.292,-1.957 l 0,-3.417 -0.948,0 0,3.818 c 0,0.365 0.012,0.827 -0.171,1.143 C 2.662,0.28 2.213,0.486 1.812,0.486 1.313,0.486 0.863,0.255 0.535,-0.134 0.134,-0.62 0.048,-1.18 0.048,-1.799 l 0,-3.235 -0.948,0 0,6.177 0.9,0 L 0,0 z"
             id="path6357"
             style="fill:#00305d;fill-opacity:1;fill-rule:nonzero;stroke:none" /></g><g
           transform="translate(422.6856,785.8039)"
           id="g6359"><path
             d="m 0,0 c -0.17,-0.45 -0.304,-0.791 -0.632,-1.143 -0.378,-0.401 -0.705,-0.474 -1.253,-0.474 -0.243,0 -0.473,0.048 -0.705,0.109 l 0,0.766 c 0.207,-0.049 0.426,-0.085 0.632,-0.085 0.961,0 1.131,0.79 1.386,1.52 l -2.14,6.067 0.985,0 1.654,-4.644 1.691,4.644 0.801,0 L 0,0 z"
             id="path6361"
             style="fill:#00305d;fill-opacity:1;fill-rule:nonzero;stroke:none" /></g></g></g></g></svg>