<svg xmlns="http://www.w3.org/2000/svg" width="629.596" height="114.186"><g fill="#db2226"><path d="M426.086 8.607h-80.508v20.687h80.508V8.607m-86.1 49.946h67.837c-3.73 9.692-17.52 17.706-44.914 17.706h-16.215v20.314h13.045c62.62 0 71.007-31.87 71.007-47.15V38.426h-90.76v20.126m136.233-6.895l4.473-2.32v49.47h21.62V38.1l9.7-4.904c2.237-.93 3.915-1.118 6.15-1.118h17.144V10.284H516.1c-6.523 0-10.996 2.05-12.673 2.797s-32.987 17.145-35.4 18.45a18.67 18.67 0 0 1-8.946 2.235h-17.14V55.57h20.685c6.15 0 12.114-3.168 13.605-3.914M571.638 7.86h-21.622v90.947h21.622V55.943l49.385 6.525V41.035l-49.385-6.523V7.86"/><path d="M609.47 5.44h-17.52v15.468h17.52V5.44m2.608 0v15.468h17.518V5.44h-17.518M319.86 24.635c-4.63 0-8.385-3.796-8.385-8.48s3.754-8.478 8.385-8.478 8.385 3.796 8.385 8.478-3.754 8.48-8.385 8.48zm0-22.8c-7.823 0-14.164 6.4-14.164 14.32s6.34 14.322 14.164 14.322 14.163-6.4 14.163-14.322-6.342-14.32-14.163-14.32m-73.987 74.982V97.13c55.35-.932 77.528-29.073 80.508-65.973l-.01-.302a15.57 15.57 0 0 1-7.444 1.884c-8.645 0-15.654-7.028-15.654-15.7a15.79 15.79 0 0 1 .661-4.519h-67.007v20.314h68.955c-2.05 19.383-13.976 43.983-60 43.983m-69.76-3.79s.248.372 3.478.372c11.462 0 32.57-5.87 42.5-28.042 3.3-7.392 5.53-16.592 5.53-27.992V9.54h-91.7v20.312h70.258c-3.23 9.257-6.833 19.57-23.73 23.047.498-.87 1.5-9.938 1.5-12.547V36.5h-21.62v3.853c-1.116 16.027-6.832 35.78-25.22 35.78h-1.367V97.75h1.367c6.7 0 27.58-1.614 39.013-24.723M88.664 91.735l-6.32-11.73H56.77l-6.32 11.73H26.146l31.846-67.2h22.794l32.013 67.2zM16.93 45.98l5.53-15.085L6.536 21.5h19.6l5.7-16.1 5.866 16.1h19.6l-16.1 9.554 5.7 15.083L31.67 36.93zM103.75 1.9H20.782C9.305 1.9 0 11.285 0 24.358v64.697C0 101.3 9.305 111 20.782 111h82.966c9.553 0 20.112-8.132 20.112-19.6V21.5c0-11.478-10.56-19.6-20.112-19.6M62.014 64.75H76.93L69.4 47.32z"/></g><path d="M46.93 46.147l-5.7-15.083 16.1-9.554H37.71l-5.866-16.09-5.7 16.09H6.536l15.922 9.385-5.53 15.085 14.75-9.05 15.252 9.218" fill="#ece728"/></svg>