<svg width="206" height="72" viewBox="0 0 341 120" xmlns="http://www.w3.org/2000/svg"><g fill="#3D3D3D" fill-rule="evenodd"><path d="M188.049 25.458a3.26 3.26 0 0 0-3.26 3.26v46.576a3.26 3.26 0 1 0 6.52 0V28.718a3.26 3.26 0 0 0-3.26-3.26M53.1 73.836 29.812 27.26a3.259 3.259 0 0 0-5.832 0L7.578 60.064h-2.29a3.26 3.26 0 0 0-3.26 3.26c0 1.488 1.017 2.69 2.379 3.082l-3.715 7.43a3.26 3.26 0 1 0 5.832 2.916l5.084-10.168h11.23a3.26 3.26 0 1 0 0-6.52h-7.97l12.028-24.056 20.372 40.744a3.26 3.26 0 1 0 5.832-2.916M292.757 73.836 269.469 27.26a3.259 3.259 0 0 0-5.832 0l-16.402 32.804h-2.29a3.26 3.26 0 0 0-3.26 3.26c0 1.488 1.017 2.69 2.379 3.082l-3.715 7.43a3.26 3.26 0 1 0 5.832 2.916l5.084-10.168h11.23a3.26 3.26 0 1 0 0-6.52h-7.97l12.028-24.056 20.372 40.744a3.26 3.26 0 1 0 5.832-2.916M229.805 72.034h-18.934V28.718a3.26 3.26 0 0 0-6.52 0v46.576a3.26 3.26 0 0 0 3.26 3.26h22.194a3.26 3.26 0 0 0 0-6.52M168.487 25.458a3.26 3.26 0 0 0-3.26 3.26V54.8c0 9.503-7.731 17.233-17.233 17.233-9.503 0-17.234-7.73-17.234-17.233V28.718a3.26 3.26 0 1 0-6.52 0V54.8c0 13.098 10.656 23.754 23.754 23.754 13.097 0 23.753-10.656 23.753-23.754V28.718a3.26 3.26 0 0 0-3.26-3.26M111.199 52.007c0-14.662-11.886-26.55-26.55-26.55-14.661 0-26.547 11.888-26.547 26.55S69.988 78.556 84.65 78.556a26.4 26.4 0 0 0 12.16-2.966l.579 1.136a3.26 3.26 0 0 0 5.81-2.961l-.97-1.901c5.49-4.864 8.97-11.946 8.97-19.857m-6.521 0c0 5.353-2.113 10.204-5.535 13.798l-3.911-7.677a3.26 3.26 0 0 0-5.81 2.96l4.43 8.695a19.91 19.91 0 0 1-9.202 2.252c-11.061 0-20.027-8.967-20.027-20.028 0-11.061 8.966-20.028 20.027-20.028 11.06 0 20.028 8.967 20.028 20.028M77.06 101.903c-.84-1.1-1.879-1.892-3.119-2.377a10.54 10.54 0 0 0-3.873-.727c-1.473 0-2.825.27-4.055.81a9.864 9.864 0 0 0-3.188 2.21 9.9 9.9 0 0 0-2.084 3.3c-.494 1.268-.74 2.629-.74 4.083 0 1.51.255 2.899.768 4.167.513 1.268 1.221 2.363 2.125 3.286a9.78 9.78 0 0 0 3.203 2.167c1.23.522 2.554.783 3.971.783 1.584 0 3.006-.28 4.264-.84 1.26-.558 2.335-1.434 3.23-2.628l-1.76-1.482c-.71.895-1.54 1.58-2.49 2.056-.95.475-2.033.713-3.244.713-1.119 0-2.14-.214-3.063-.643a7.305 7.305 0 0 1-2.377-1.748 8.076 8.076 0 0 1-1.552-2.601c-.373-.997-.559-2.074-.559-3.23 0-1.081.186-2.121.56-3.118a8.287 8.287 0 0 1 1.565-2.63 7.632 7.632 0 0 1 2.391-1.803c.923-.447 1.934-.671 3.035-.671.95 0 1.864.2 2.74.6a5.678 5.678 0 0 1 2.21 1.805l2.041-1.482ZM89.9 119.102h2.656l2.042-4.866h9.9l2.013 4.866h2.741l-8.418-19.8h-2.209l-8.725 19.8Zm13.703-7.048h-8.082l4.111-9.732h.055l3.916 9.732Zm19.352 7.048h2.35v-8.893h3.97c.69 0 1.416-.084 2.181-.252a6.484 6.484 0 0 0 2.111-.867 4.798 4.798 0 0 0 1.581-1.678c.41-.708.615-1.603.615-2.684 0-1.026-.192-1.888-.574-2.587a4.588 4.588 0 0 0-1.538-1.678 6.469 6.469 0 0 0-2.209-.895 12.506 12.506 0 0 0-2.615-.266h-5.872v19.8Zm2.35-17.618h3.97c1.174 0 2.13.265 2.866.797.737.53 1.105 1.356 1.105 2.474 0 1.119-.368 1.944-1.105 2.475-.736.532-1.692.797-2.866.797h-3.97v-6.543Zm24.723 17.618h2.35v-19.8h-2.35v19.8Zm31.556-19.8h-15.437v2.182h6.544v17.618h2.35v-17.618h6.543v-2.182Zm9.331 19.8h2.657l2.042-4.866h9.9l2.013 4.866h2.74l-8.417-19.8h-2.209l-8.726 19.8Zm13.703-7.048h-8.082l4.111-9.732h.056l3.915 9.732Zm19.352 7.048h11.41v-2.182h-9.06V99.302h-2.35v19.8ZM340.425 3.278l-.005-.004c-10.43-8.62-19.273 8.025-29.343 10.735-10.18 2.739-18.093-4.244-19.68-5.691a.192.192 0 0 0-.136-.049.205.205 0 0 0-.21.173l-.002.01c-2.103 13.6 18.482 12.538 25.182 21.072 6.287 8.008 4.21 16.835 3.671 18.812a.236.236 0 0 0-.007.058.213.213 0 0 0 .29.2c13.711-5.368.74-22.034 6.302-33.821 3.89-8.245 12.003-10.62 13.86-11.123l.01-.003a.2.2 0 0 0 .147-.204.213.213 0 0 0-.079-.165"/></g></svg>