<?xml version="1.0" encoding="utf-8"?>
<!-- Generator: Adobe Illustrator 18.0.0, SVG Export Plug-In . SVG Version: 6.00 Build 0)  -->
<!DOCTYPE svg PUBLIC "-//W3C//DTD SVG 1.1//EN" "http://www.w3.org/Graphics/SVG/1.1/DTD/svg11.dtd">
<svg version="1.1" id="Layer_1" xmlns="http://www.w3.org/2000/svg" xmlns:xlink="http://www.w3.org/1999/xlink" x="0px" y="0px"
	 viewBox="0 0 341.2 233.4" enable-background="new 0 0 341.2 233.4" xml:space="preserve">
<path id="path2922" fill="#EE3224" d="M341.2,233.4V0H0v233.4H341.2z"/>
<g id="g2924" transform="translate(549.565,563.119)">
	<path id="path2926" fill="#FFFFFF" d="M-382.8-374.1c67.8,0,115.7-26.8,136.2-40.1c3.5-2.2,1.5-5.8-2.3-4.3
		c-52.3,21.5-86.2,29.4-133.9,29.4s-81.6-7.9-133.9-29.4c-3.8-1.5-5.8,2-2.3,4.3C-498.4-400.9-450.6-374.1-382.8-374.1"/>
</g>
<g id="g2928" transform="translate(573.241,539.982)">
	<path id="path2930" fill="#FFFFFF" d="M-310.4-449.3c0,9,11.1,11.6,16.8,13c2.8,0.7,8.5,2.1,8.6,5.7c0.2,3.9-4.3,6-8.8,6
		c-4.7,0-7.7-1.9-10.3-5.3c-1.2-1.5-2.6-1.9-4.4-1.3c-2.1,0.6-4.4,1.8-6.6,3.3c-1.3,0.9-1.8,2.3-1.1,4c3.6,8.6,13.2,11.3,21.5,11.3
		c13.1,0,24.5-5.7,27.3-17.3c2.8-11.4-6.5-15.6-14.9-18c-5.5-1.6-9.6-2.9-9.3-6.6c0.3-3.9,9.2-6.4,15.3,0.7c1.5,1.8,3.1,2,4.9,1.3
		c1.9-0.7,5-2.1,6-2.8c2.1-1.3,2.5-2.5,1.3-4.7c-3.1-5.6-10.7-9.3-19.3-9.3C-299.7-469.1-310.4-460.6-310.4-449.3"/>
</g>
<g id="g2932" transform="translate(578.935,583.565)">
	<path id="path2934" fill="#FFFFFF" d="M-497-516.5c0.3,9.1,1.2,30.2,1.2,30.2h-21.4c4.8-9,13.2-22,19.5-30.3
		C-497.2-517.5-497-516.5-497-516.5 M-496-533.8c-3.5,0.2-6.4,0.5-9.1,3.7c-8.7,10.3-28.7,41.2-44.5,69.3c-1.1,2-0.3,3.9,2.1,3.9
		c2.7,0,10.3,0,11.6,0c1.9,0,3.2-0.4,4.5-2.6c1.4-2.4,4.8-8.4,7.8-13.5h27.7c0,0,0.3,9.5,0.4,13c0.1,1.9,1.2,3.1,3.7,3.1
		c2.5,0,8.5,0,10.2,0s3.3-0.8,3.2-3.2c-0.3-9.9-2.8-58.5-3.7-69.9c-0.2-2.8-1.6-4-4.8-4C-490-534.1-493.5-534-496-533.8"/>
</g>
<g id="g2936" transform="translate(567.218,549.154)">
	<path id="path2938" fill="#FFFFFF" d="M-342.4-433.5c9.7,0,13.9-8,16.4-16.5c2.4-8.5,3.4-16.5-6.4-16.5c-9.8,0-13.9,8-16.3,16.5
		C-351.3-441.4-352.2-433.5-342.4-433.5z M-343.5-421.6c-17.4,0-25.4-11.5-21.9-28.3c3.6-16.8,16.5-28.3,33.9-28.3
		c17.5,0,25.5,11.5,21.9,28.3C-313.1-433.1-326-421.6-343.5-421.6"/>
</g>
<g id="g2940" transform="translate(566.102,557.161)">
	<path id="path2942" fill="#FFFFFF" d="M-374.6-436.8c4.2-16.6,8.1-32.3,10.7-43.5c0.6-2.7-1-4.5-3.1-4.5c-1.5,0-5.9,0-7.3,0.1
		c-2.4,0.1-3.8,1.3-4.4,3.3c-0.1,0.5-0.3,1-0.6,2.2c-0.1,0.5-0.3,0.5-0.5,0.1c-1-2-5.5-6.5-13.3-6.5c-14.2,0-24,13.7-28.1,26.4
		c-2.6,8-2.8,17.2,0.5,22.2c3,4.5,7.8,7.4,15.2,7.5c6.2,0.1,11.6-2,14.3-5.4c0.3-0.4,0.6-0.2,0.5,0.2c-3.6,12.4-11.2,15.8-17.1,15.8
		c-3.9,0-6.7-1.6-8.1-2.5c-2.2-1.3-2.9-1.4-4.9-0.9c-2.2,0.6-4.8,1.6-6.9,3c-2.5,1.7-2,3.4-1.1,4.9c4.7,7.6,15.6,9.5,22,9.5
		C-391-404.9-379.9-415.8-374.6-436.8z M-407.3-457.5c3.1-10.9,8.4-16.5,15.6-16.3c9.2,0.3,7.3,9.3,5.3,16.2
		c-3.1,10.5-7.9,16.1-15.4,15.5C-409.5-442.8-409-451.7-407.3-457.5"/>
</g>
<g id="g2944" transform="translate(577.067,566.351)">
	<path id="path2946" fill="#FFFFFF" d="M-423.7-491.5c1-0.9,0.4-2.4-1.2-2.4c-9,0-17.6,0-24,5.9c-0.1,0.1-0.4,0.1-0.3-0.2
		c0.1-0.5,0.4-1.6,0.7-2.9c0.4-1.5-0.5-2.8-2.2-2.8c-2.7,0-5.5,0-8.8,0.1c-2,0-3.1,0.8-3.6,3c-1,4.5-7.9,38.5-9.9,48.7
		c-0.3,1.4,0.9,2.5,2.1,2.5c1.1,0,9.7,0,10.7,0c1.9,0,2.9-0.9,3.2-2.5c1.7-8.1,3.9-19,4.6-22.8c1.1-5.6,3.4-10,5.6-11.7
		c2.1-1.6,5-2.7,10.8-3c2.6-0.1,3.6-0.9,5-2.9C-428.8-486-426.8-488.6-423.7-491.5"/>
</g>
</svg>
