<?xml version="1.0" encoding="UTF-8" standalone="no"?>
<svg
   xmlns:dc="http://purl.org/dc/elements/1.1/"
   xmlns:cc="http://creativecommons.org/ns#"
   xmlns:rdf="http://www.w3.org/1999/02/22-rdf-syntax-ns#"
   xmlns:svg="http://www.w3.org/2000/svg"
   xmlns="http://www.w3.org/2000/svg"
   xml:space="preserve"
   enable-background="new 30.5 31.5 412 533"
   viewBox="30.5 31.5 420 500"
   height="500"
   width="420"
   y="0"
   x="0"
   version="1.1"
   id="svg2"><metadata
     id="metadata4"><rdf:RDF><cc:Work
         rdf:about=""><dc:format>
          
          
          
          
          image/svg+xml
        
        
        
        
        </dc:format><dc:type
           rdf:resource="http://purl.org/dc/dcmitype/StillImage" /><dc:title></dc:title></cc:Work></rdf:RDF></metadata><defs
     id="defs6" /><path
     style="fill:#32ac60;fill-opacity:1;fill-rule:evenodd;stroke:#000000;stroke-opacity:1"
     d="m 440,32.7 c 2.09,102.46 -3.38,187.49 -43.93,296.59 C 368.02,404.77 321.86,474.06 240.5,530.88 159.14,474.06 112.98,404.77 84.93,329.29 44.38,220.19 38.91,135.16 41,32.7 c 133,0.29 266,0 399,0 z"
     id="path4218" /><path
     style="fill:#ffffff;fill-opacity:1;stroke:none;stroke-opacity:1"
     id="path2827"
     d="m 144.14891,357.9535 c -11.6109,7.23967 -26.8823,13.32117 -40.48349,14.95585 -2.40524,-4.96847 -6.360387,-12.62891 -8.193201,-17.659 11.958631,-1.55819 38.268171,-9.72886 49.637771,-21.88723 23.88902,19.1718 64.62628,19.24573 95.39001,-2.12137 30.76373,21.3671 71.50099,21.29317 95.39001,2.12137 11.3696,12.15837 37.67914,20.32904 49.63777,21.88723 -1.83281,5.03009 -5.78796,12.69053 -8.1932,17.659 -13.60119,-1.63468 -28.87259,-7.71618 -40.48349,-14.95585 -34.27727,16.51023 -66.07111,15.31962 -96.35109,-0.0691 -30.27998,15.38872 -62.07382,16.57933 -96.35109,0.0691 z" /><path
     style="fill:#ffffff;fill-opacity:1;stroke:none;stroke-opacity:1"
     id="path2829"
     d="m 138.63975,385.54463 c -7.05431,4.16116 -16.21007,8.60076 -23.62771,8.82986 2.50598,4.55901 5.33004,9.0588 7.89663,13.31213 5.55941,-0.30239 12.96043,-4.18247 16.12693,-6.50663 30.9491,9.59767 63.08425,12.13592 101.4644,0.64925 38.38015,11.48667 70.5153,8.94842 101.4644,-0.64925 3.1665,2.32416 10.56752,6.20424 16.12693,6.50663 2.56659,-4.25333 5.39065,-8.75312 7.89663,-13.31213 -7.41764,-0.2291 -16.5734,-4.6687 -23.62771,-8.82986 -39.48461,12.83318 -72.45553,9.93259 -101.86025,-1.58446 -29.40472,11.51705 -62.37564,14.41764 -101.86025,1.58446 z" /><path
     style="fill:#ffffff;fill-opacity:1;stroke:none;stroke-opacity:1"
     id="path2833"
     d="m 229.72608,274.23944 -1.05599,-33.77646 c -0.28387,-9.10883 -30.38739,-39.56218 -39.04995,-34.83706 -10.17199,5.54881 -7.69219,46.76881 -48.1979,38.19682 13.39186,-13.56675 0.64544,-28.32852 39.22694,-42.61818 -4.70858,-3.89987 -20.70105,-16.61733 -24.47214,-13.13736 -16.16413,14.91954 -16.84914,43.9298 -52.74974,36.30376 11.50487,-6.08286 12.86136,-36.71022 43.97591,-41.55757 -8.21347,-2.06999 -20.14686,-10.02816 -24.6394,-6.20998 -16.32207,13.87027 -18.38477,40.71537 -52.22818,36.44975 23.361828,-24.06096 15.578228,-31.57469 39.3998,-40.1421 -6.83278,-1.22821 -17.023131,-6.32296 -20.632225,-3.67144 -12.329398,9.05816 -9.38475,29.14308 -39.033598,31.39641 4.793115,29.70058 12.009575,58.67532 20.226394,85.91537 11.220349,12.68567 51.757509,28.90925 77.611209,29.95235 27.60898,1.11332 53.60349,-33.86929 81.61887,-42.26431 z" /><path
     style="fill:#ffffff;fill-opacity:1;stroke:none;stroke-opacity:1;stroke-linejoin:round;stroke-linecap:round"
     id="path2857"
     d="m 47.833716,182.62656 c 5.393578,-5.01566 16.760119,-12.43202 25.437235,-16.02822 -7.489594,-0.72918 -21.516579,-0.6894 -27.404985,0.0395 0.597004,4.95548 1.281384,10.99205 1.96775,15.98873 z" /><path
     style="fill:#ffffff;fill-opacity:1;stroke:none;stroke-opacity:1"
     id="path2859"
     d="m 410.51927,161.81259 c 4.21501,6.46175 16.07969,14.67565 23.12602,17.71861 0.97836,-7.17275 1.89162,-14.21389 2.68154,-21.40811 -8.18588,-1.58984 -21.65975,1.08419 -25.80756,3.6895 z" /><path
     style="fill:#ffffff;fill-opacity:1;stroke:none;stroke-opacity:1"
     id="path2861"
     d="m 377.98674,168.67073 c 0.53917,0.0226 18.10205,-5.20203 19.53384,-2.00589 5.20874,11.62542 6.24223,21.62249 33.59431,30.96339 -4.27786,31.26666 -11.82307,61.1609 -22.25267,94.47679 -18.19871,16.24344 -32.77324,24.66195 -67.03401,26.2512 -52.20213,2.42166 -50.63362,-38.93553 -82.81512,-44.83928 l 0.10589,-33.48855 c 0.089,-28.17237 23.63914,-32.99505 26.23492,-32.54534 11.77905,2.04423 23.83281,48.876 55.65639,34.74828 -21.53279,-13.76297 -5.88181,-44.09567 -50.63539,-41.55657 10.57913,-7.74957 19.85527,-12.35304 29.53692,-12.73228 15.53923,-0.60874 13.89002,39.78822 52.21806,29.17817 -18.79329,-12.12066 -2.41152,-29.49656 -35.1636,-37.84394 8.32188,-2.18021 23.7596,-9.11397 25.10742,-6.53849 7.88721,15.06733 13.25172,36.29125 43.25137,32.80332 -13.01434,-17.55701 -2.54528,-20.50922 -27.33952,-36.87081 l 0.001,0 z" /><path
     style="fill:#ffffff;fill-opacity:1;stroke:#000000;stroke-opacity:1;stroke-linejoin:round"
     id="path2863"
     d="m 272.60965,199.26028 c 0.79521,-1.50393 13.08515,-9.63792 13.08515,-9.63792 -0.87509,-16.59072 4.18975,-38.6174 20.51338,-60.92087 9.26103,11.86852 15.1812,31.69712 -11.14087,56.67646 l 25.2886,-13.17462 c -5.19953,-24.7097 11.25733,-29.72683 13.88136,-43.41338 l -27.76369,-4.95117 c -19.73003,19.71299 -29.24121,40.38696 -33.86393,75.4215 z" /><path
     style="fill:#ffffff;fill-opacity:1;stroke:none;stroke-opacity:1"
     id="path2865"
     d="m 334.00052,166.98674 21.91733,-5.81471 c -11.52955,-20.79393 14.02141,-38.46018 15.75288,-51.64304 7.34087,16.56287 13.56639,31.58628 -7.19233,49.79875 l 14.88148,-2.87544 c 8.14822,-1.57558 -0.4744,-12.69965 5.02688,-27.7632 2.58367,-7.07386 11.97048,-12.2999 14.74273,-21.59767 8.84804,17.99156 2.96148,35.87366 -10.39014,48.22029 26.57509,0.43057 6.50847,-31.46257 34.2296,-47.62498 1.98965,17.53203 -0.47919,31.6485 -10.55376,42.85871 l 24.70028,-3.51093 c 2.77107,-28.1371 2.5703,-53.651415 3.21427,-81.257834 -22.13312,2.559539 -38.69965,-11.207751 -54.55985,-10.884348 -7.0103,0.14384 -17.7374,6.986282 -25.35245,12.018906 47.40067,-9.848786 33.08614,13.821396 50.78496,20.973041 -21.57624,6.086586 -41.65343,-9.131517 -50.88321,-13.190768 -9.23076,-4.059262 -24.65168,11.699219 -23.75546,13.589292 4.8779,-2.028561 8.97738,-3.043323 12.54992,-3.320945 15.31859,-1.189161 20.9477,11.186691 36.68098,15.445186 -20.9698,20.69666 -40.6002,-5.749947 -57.67702,-3.182844 -5.07086,0.762525 -9.52897,4.485354 -13.38478,12.201484 16.89255,-2.29553 33.36516,-2.56599 48.60733,3.09529 -3.77839,6.25756 -13.00121,13.6237 -23.03804,15.3118 3.77855,4.41993 15.38496,17.04522 -6.3016,39.15396 z" /><path
     style="fill:#ffffff;fill-opacity:1;stroke:none;stroke-opacity:1"
     id="path2867"
     d="m 407.5726,45.256053 c 0.47356,-2.654243 24.98902,-8.965214 32.58146,-7.517881 -0.002,4.955546 -0.10559,10.295381 -0.14119,15.360744 -10.09811,-6.324997 -27.04947,-7.938376 -32.44024,-7.842863 z" /><path
     style="fill:#ffffff;fill-opacity:1;stroke:none;stroke-opacity:1"
     id="path2869"
     d="m 413.10931,32.866931 c -5.2615,1.920399 -10.60666,3.936458 -18.81707,8.271423 -0.0925,-2.578581 -0.11179,-5.080889 -0.95626,-8.275161 l 19.77333,0.0037 z" /><path
     style="fill:#ffffff;fill-opacity:1;stroke:none;stroke-opacity:1"
     id="path2871"
     d="m 362.80584,57.588501 c 0.75029,-0.06035 16.00546,-9.242377 16.00546,-9.242377 -1.78156,-4.880292 -1.21856,-10.340972 0.32142,-15.539966 l -9.54986,-0.0016 c 3.43528,15.149753 -1.76594,19.923977 -6.77702,24.783959 z" /><path
     style="fill:#ffffff;fill-opacity:1;stroke:none;stroke-opacity:1"
     id="path2873"
     d="m 340.93387,32.808825 12.54477,0.0034 c 2.479,5.752286 -10.36146,26.11671 -4.3089,33.490504 L 332.78915,78.28327 c 6.59711,-10.566206 12.13594,-29.367549 8.14472,-45.474417 z" /><path
     style="fill:#ffffff;fill-opacity:1;stroke:none;stroke-opacity:1"
     id="path2875"
     d="m 291.51814,124.29918 8.81489,-11.25127 c -10.09617,-33.706427 2.89099,-32.549285 4.62644,-60.583389 23.32275,29.457236 5.99521,38.672965 1.25113,53.288989 7.07609,-6.36843 13.12879,-14.003313 18.8809,-22.008219 -9.45986,-23.190382 6.04601,-37.419514 6.68488,-50.937476 l -33.68608,-0.0044 c -0.65219,31.092024 -5.33675,60.197097 -6.57216,91.495795 z" /><path
     style="fill:#ffffff;fill-opacity:1;stroke:none;stroke-opacity:1"
     id="path2877"
     d="m 281.26688,32.807338 4.376,0 c -0.60287,33.589444 -3.84641,66.130822 -8.44303,97.743582 L 264.19554,79.812376 C 284.51268,65.57836 281.45407,48.943635 281.26688,32.807338 Z" /><path
     style="fill:#ffffff;fill-opacity:1;stroke:none;stroke-opacity:1"
     id="path2879"
     d="m 275.45375,32.809406 c -5.98329,6.693521 -11.5914,16.745509 -14.24495,24.716794 l -1.37586,-24.707324 15.62081,-0.0094 z" /><path
     style="fill:#ffffff;fill-opacity:1;stroke:#000000;stroke-opacity:1;stroke-linejoin:round"
     id="path2881"
     d="m 219.12466,204.18681 c -10.95372,0.43783 -22.4667,-10.12788 -31.01119,-15.63031 10.89153,-17.04926 5.45156,-33.63386 -6.0013,-51.89252 -19.71193,27.50049 -3.23262,35.56396 -2.87643,47.01565 L 161.7297,173.9269 c 9.49446,-15.80718 7.03099,-38.17298 -2.72873,-52.83397 3.31953,-1.64795 6.82789,-4.05057 8.92057,-5.38083 36.3149,27.63304 32.73828,59.79818 51.20312,88.47471 z" /><path
     style="fill:#ffffff;fill-opacity:1;stroke:#000000;stroke-opacity:1;stroke-linejoin:round"
     id="path2883"
     d="m 135.59538,125.52573 c 4.92938,0.73073 12.93837,-1.09387 17.63174,-2.7198 -6.92055,11.37801 -9.11688,23.58042 0.24943,49.99553 l -15.63031,-6.127 c 5.42333,-11.64057 4.428,-28.92938 -2.25086,-41.14873 z" /><path
     style="fill:#ffffff;fill-opacity:1;stroke:#000000;stroke-opacity:1;stroke-linejoin:round"
     id="path2885"
     d="m 103.23998,104.65398 c 26.7494,-2.04341 27.80666,-7.876692 38.35769,-11.255221 4.42368,-1.416364 16.49191,3.639642 16.3806,11.254261 -13.95007,2.42174 -27.06009,10.23691 -40.51438,10.62876 2.47587,3.21927 4.78552,6.43261 7.16481,7.55834 -6.56908,14.51294 -1.58011,26.3641 2.08892,40.45804 -2.41095,-0.99667 -14.55573,-2.39604 -17.96041,-3.18484 1.5207,-25.23052 9.76682,-32.00533 -5.51723,-55.45934 z" /><path
     style="fill:#ffffff;fill-opacity:1;stroke:none;stroke-opacity:1;stroke-linejoin:round;stroke-linecap:round"
     id="path2887"
     d="m 102.63605,158.54602 -25.055538,-3.3753 c 2.849441,-10.10583 13.0357,-24.86695 -6.248395,-59.021164 -15.859678,22.545024 -11.197863,39.930754 -2.660395,57.895734 l -24.08082,0.97015 c -2.778784,-26.0268 -3.151247,-52.81947 -4.039555,-79.019945 26.052008,-5.341869 34.689078,-17.556556 47.731901,-21.48509 8.661708,2.583554 14.692692,8.268851 21.529202,13.00445 -30.731172,-2.691863 -48.212988,12.587093 -53.451929,21.757377 34.93019,12.552288 40.368347,-11.478285 60.380529,-15.004906 6.81998,-1.202363 11.86363,4.046634 14.35264,8.502753 -33.127957,0.836967 -23.52517,7.405898 -48.749602,15.255151 4.436483,5.20332 11.41914,4.23035 17.322374,5.8775 -20.333428,22.25875 5.041578,40.97907 2.969588,54.64329 z" /><path
     style="fill:#ffffff;fill-opacity:1;stroke:none;stroke-opacity:1"
     id="path2891"
     d="m 242.93807,223.04141 c 11.04732,-10.73814 18.81879,-32.17479 21.50789,-49.84053 2.28103,-14.99072 -26.01841,-13.19706 -17.25561,-52.08446 6.74709,3.27788 14.95209,11.95229 20.13105,30.15427 6.40612,-3.80735 -17.73168,-59.028073 -19.13133,-118.621955 l -11.00386,0 c -2.21159,25.662826 -2.25522,51.806051 -7.12773,76.880155 4.98011,-11.942786 9.1487,-17.840284 23.63404,-20.186198 -10.08698,14.371128 8.60968,23.553948 -26.25905,39.000608 -1.44946,4.77821 -11.47981,20.32805 -9.75373,32.3972 2.70366,18.90173 11.61069,44.51161 25.25833,62.30091 z" /><path
     style="fill:#ffffff;fill-opacity:1;stroke:none;stroke-opacity:1"
     id="path2893"
     d="m 209.87179,137.37355 c 5.19557,-3.01682 8.37576,-32.41636 12.25403,-48.282532 -17.19536,-15.276925 -26.47421,-32.554742 -12.50447,-55.709727 8.36576,8.976211 9.85293,16.83827 13.75461,42.834718 1.2855,-14.320549 2.78104,-28.490084 -0.47136,-43.452523 l -27.53869,0.0017 c 4.6993,35.166488 8.61292,72.397314 14.50588,104.608384 z" /><path
     style="fill:#ffffff;fill-opacity:1;stroke:none;stroke-opacity:1"
     id="path2895"
     d="m 196.2275,128.67617 -12.74167,-95.844393 -27.98308,0.0017 c 7.81887,31.013864 3.14109,42.817021 -4.91604,48.970785 l 14.00501,11.625225 c -0.29074,-8.734384 -3.06235,-27.692719 12.37974,-42.543106 13.81385,44.781952 -0.69474,42.379295 -2.1411,49.019561 -2.17759,9.995078 13.80338,20.561648 21.39714,28.770258 z" /><path
     style="fill:#ffffff;fill-opacity:1;stroke:none;stroke-opacity:1"
     id="path2897"
     d="m 126.0921,61.260497 c 5.78319,-5.357769 5.83538,-20.553111 4.37694,-28.477189 l 18.00594,0 c -6.65813,10.689181 -11.81082,26.826386 -7.62759,39.372867 L 126.0921,61.260497 Z" /><path
     style="fill:#ffffff;fill-opacity:1;stroke:none;stroke-opacity:1"
     id="path2899"
     d="m 113.5105,32.811224 c -0.95825,7.51117 -2.43597,15.318266 1.43945,22.214053 l -13.00502,-8.121855 c 1.56824,-4.658103 0.78362,-9.437194 -0.62486,-14.095289 l 12.19043,0.0031 z" /><path
     style="fill:#ffffff;fill-opacity:1;stroke:none;stroke-opacity:1"
     id="path2901"
     d="m 85.477523,32.788507 c -0.342784,1.347986 0.300548,5.726631 0.622782,7.074608 -6.614776,-3.872678 -13.082147,-5.98777 -16.034423,-7.076072 l 15.411641,0.0015 z" /><path
     style="fill:#ffffff;fill-opacity:1;stroke:none;stroke-opacity:1"
     id="path2903"
     d="m 41,32.7 c -0.01397,8.40133 -0.06325,16.485401 0.05811,24.871042 7.789454,-4.329157 26.116308,-7.434765 36.652531,-7.205361 C 69.397645,43.323588 55.995417,34.172043 41,32.7 Z" /><path
     d="m 327.79902,450.35529 c 5.08319,-6.45724 10.41828,-13.15607 15.05274,-19.85101 -41.08626,8.51064 -70.37644,5.93044 -102.35176,-6.86518 -31.97532,12.79562 -61.2655,15.37582 -102.35176,6.86518 4.63446,6.69494 9.96955,13.39377 15.05274,19.85101 26.20263,3.26978 63.66799,2.91007 87.29902,-7.92298 23.63103,10.83305 61.09639,11.19276 87.29902,7.92298 z"
     id="path4295"
     style="fill:#ffffff;fill-opacity:1;stroke:none;stroke-opacity:1" /><path
     d="m 95.472219,355.25035 c 11.958631,-1.55819 38.268171,-9.72886 49.637771,-21.88723 23.88902,19.1718 64.62628,19.24573 95.39001,-2.12137 30.76373,21.3671 71.50099,21.29317 95.39001,2.12137 11.3696,12.15837 37.67914,20.32904 49.63777,21.88723 m -8.1932,17.659 c -13.60119,-1.63468 -28.87259,-7.71618 -40.48349,-14.95585 -34.27727,16.51023 -66.07111,15.31962 -96.35109,-0.0691 -30.27998,15.38872 -62.07382,16.57933 -96.35109,0.0691 -11.6109,7.23967 -26.8823,13.32117 -40.48349,14.95585"
     id="path4297"
     style="fill:none;fill-opacity:1;stroke:#000000;stroke-opacity:1;stroke-linejoin:round;stroke-linecap:round" /><path
     d="m 365.98796,394.37449 c -7.41764,-0.2291 -16.5734,-4.6687 -23.62771,-8.82986 -39.48461,12.83318 -72.45553,9.93259 -101.86025,-1.58446 -29.40472,11.51705 -62.37564,14.41764 -101.86025,1.58446 -7.05431,4.16116 -16.21007,8.60076 -23.62771,8.82986 m 7.89663,13.31213 c 5.55941,-0.30239 12.96043,-4.18247 16.12693,-6.50663 30.9491,9.59767 63.08425,12.13592 101.4644,0.64925 38.38015,11.48667 70.5153,8.94842 101.4644,-0.64925 3.1665,2.32416 10.56752,6.20424 16.12693,6.50663"
     id="path4299"
     style="fill:none;fill-opacity:1;stroke:#000000;stroke-opacity:1;stroke-linejoin:round" /><path
     style="fill:none;fill-opacity:1;stroke:#000000;stroke-opacity:1;stroke-linejoin:round"
     id="path4301"
     d="m 342.85176,430.50428 c -41.08626,8.51064 -70.37644,5.93044 -102.35176,-6.86518 -31.97532,12.79562 -61.2655,15.37582 -102.35176,6.86518 m 15.05274,19.85101 c 26.20263,3.26978 63.66799,2.91007 87.29902,-7.92298 23.63103,10.83305 61.09639,11.19276 87.29902,7.92298" /><path
     d="m 70.496001,286.5514 c 11.220349,12.68567 51.757509,28.90925 77.611209,29.95235 27.60898,1.11332 53.60349,-33.86929 81.61887,-42.26431 l -1.05599,-33.77646 c -0.28387,-9.10883 -30.38739,-39.56218 -39.04995,-34.83706 -10.17199,5.54881 -7.69219,46.76881 -48.1979,38.19682 13.39186,-13.56675 0.64544,-28.32852 39.22694,-42.61818 -4.70858,-3.89987 -20.70105,-16.61733 -24.47214,-13.13736 -16.16413,14.91954 -16.84914,43.9298 -52.74974,36.30376 11.50487,-6.08286 12.86136,-36.71022 43.97591,-41.55757 -8.21347,-2.06999 -20.14686,-10.02816 -24.6394,-6.20998 -16.32207,13.87027 -18.38477,40.71537 -52.22818,36.44975 23.361828,-24.06096 15.578228,-31.57469 39.3998,-40.1421 -6.83278,-1.22821 -17.023131,-6.32296 -20.632225,-3.67144 -12.329398,9.05816 -9.38475,29.14308 -39.033598,31.39641"
     id="path4303"
     style="fill:none;fill-opacity:1;stroke:#000000;stroke-opacity:1;stroke-linejoin:round" /><path
     d="m 47.833716,182.62656 c 5.393578,-5.01566 16.760119,-12.43202 25.437235,-16.02822 -7.489594,-0.72918 -21.516579,-0.6894 -27.404985,0.0395"
     id="path4305"
     style="fill:none;fill-opacity:1;stroke:#000000;stroke-linecap:round;stroke-linejoin:round;stroke-opacity:1" /><path
     d="m 40.551347,75.995495 c 26.052008,-5.341869 34.689078,-17.556556 47.731901,-21.48509 8.661708,2.583554 14.692692,8.268851 21.529202,13.00445 -30.731172,-2.691863 -48.212988,12.587093 -53.451929,21.757377 34.93019,12.552288 40.368347,-11.478285 60.380529,-15.004906 6.81998,-1.202363 11.86363,4.046634 14.35264,8.502753 -33.127957,0.836967 -23.52517,7.405898 -48.749602,15.255151 4.436483,5.20332 11.41914,4.23035 17.322374,5.8775 -20.333428,22.25875 5.041578,40.97907 2.969588,54.64329 l -25.055538,-3.3753 c 2.849441,-10.10583 13.0357,-24.86695 -6.248395,-59.021164 -15.859678,22.545024 -11.197863,39.930754 -2.660395,57.895734 l -24.08082,0.97015"
     id="path4307"
     style="fill:none;fill-opacity:1;stroke:#000000;stroke-linecap:round;stroke-linejoin:round;stroke-opacity:1" /><path
     d="M 41.05811,57.571042 C 48.847564,53.241885 67.174418,50.136277 77.710641,50.365681 69.397645,43.323588 55.995417,34.172043 41,32.7"
     id="path4309"
     style="fill:none;fill-opacity:1;stroke:#000000;stroke-opacity:1;stroke-linejoin:round" /><path
     d="m 85.477523,32.788543 0,-3.6e-5 c -0.342784,1.347986 0.300548,5.726631 0.622782,7.074608 -6.614776,-3.872678 -13.082147,-5.98777 -16.034423,-7.076072"
     id="path4313"
     style="fill:none;fill-opacity:1;stroke:#000000;stroke-opacity:1;stroke-linejoin:round" /><path
     d="m 113.5105,32.811224 c -0.95825,7.51117 -2.43597,15.318266 1.43945,22.214053 l -13.00502,-8.121855 c 1.56824,-4.658103 0.78362,-9.437194 -0.62486,-14.095289"
     id="path4315"
     style="fill:none;fill-opacity:1;stroke:#000000;stroke-opacity:1;stroke-linejoin:round;stroke-linecap:round" /><path
     d="m 148.47498,32.783308 c -6.65813,10.689181 -11.81082,26.826386 -7.62759,39.372867 L 126.0921,61.260497 c 5.78319,-5.357769 5.83538,-20.553111 4.37694,-28.477189"
     id="path4317"
     style="fill:none;fill-opacity:1;stroke:#000000;stroke-linecap:round;stroke-linejoin:round;stroke-opacity:1" /><path
     d="m 155.50275,32.833477 c 7.81887,31.013864 3.14109,42.817021 -4.91604,48.970785 l 14.00501,11.625225 c -0.29074,-8.734384 -3.06235,-27.692719 12.37974,-42.543106 13.81385,44.781952 -0.69474,42.379295 -2.1411,49.019561 -2.17759,9.995078 13.80338,20.561648 21.39714,28.770258 l 0,-3e-5 -12.74167,-95.844393"
     id="path4319"
     style="fill:none;fill-opacity:1;stroke:#000000;stroke-opacity:1;stroke-linejoin:round;stroke-linecap:round" /><path
     d="m 195.36591,32.765186 c 4.6993,35.166488 8.61292,72.397314 14.50588,104.608384 l 0,-2e-5 c 5.19557,-3.01682 8.37576,-32.41636 12.25403,-48.282532 -17.19536,-15.276925 -26.47421,-32.554742 -12.50447,-55.709727 8.36576,8.976211 9.85293,16.83827 13.75461,42.834718 1.2855,-14.320549 2.78104,-28.490084 -0.47136,-43.452523"
     id="path4321"
     style="fill:none;fill-opacity:1;stroke:#000000;stroke-opacity:1;stroke-linejoin:round;stroke-linecap:round" /><path
     d="m 237.18621,32.648735 c -2.21159,25.662826 -2.25522,51.806051 -7.12773,76.880155 4.98011,-11.942786 9.1487,-17.840284 23.63404,-20.186198 -10.08698,14.371128 8.60968,23.553948 -26.25905,39.000608 -1.44946,4.77821 -11.47981,20.32805 -9.75373,32.3972 2.70366,18.90173 11.61069,44.51161 25.25833,62.30091 11.04732,-10.73814 18.81879,-32.17479 21.50789,-49.84053 2.28103,-14.99072 -26.01841,-13.19706 -17.25561,-52.08446 6.74709,3.27788 14.95209,11.95229 20.13105,30.15427 6.40612,-3.80735 -17.73168,-59.028073 -19.13133,-118.621955"
     id="path4323"
     style="fill:none;fill-opacity:1;stroke:#000000;stroke-opacity:1;stroke-linejoin:round" /><path
     d="m 275.45375,32.809476 0,-7e-5 c -5.98329,6.693521 -11.5914,16.745509 -14.24495,24.716794 l -1.37586,-24.707324"
     id="path4325"
     style="fill:none;fill-opacity:1;stroke:#000000;stroke-opacity:1" /><path
     d="m 285.64288,32.807338 c -0.60287,33.589444 -3.84641,66.130822 -8.44303,97.743582 L 264.19554,79.812376 C 284.51268,65.57836 281.45407,48.943635 281.26688,32.807338"
     id="path4327"
     style="fill:none;fill-opacity:1;stroke:#000000;stroke-opacity:1" /><path
     d="m 298.0903,32.803415 c -0.65219,31.092024 -5.33675,60.197097 -6.57216,91.495795 l 0,-3e-5 8.81489,-11.25127 c -10.09617,-33.706427 2.89099,-32.549285 4.62644,-60.583389 23.32275,29.457236 5.99521,38.672965 1.25113,53.288989 7.07609,-6.36843 13.12879,-14.003313 18.8809,-22.008219 -9.45986,-23.190382 6.04601,-37.419514 6.68488,-50.937476"
     id="path4329"
     style="fill:none;fill-opacity:1;stroke:#000000;stroke-opacity:1;stroke-linejoin:round" /><path
     d="m 353.47864,32.812225 c 2.479,5.752286 -10.36146,26.11671 -4.3089,33.490504 L 332.78915,78.28327 c 6.59711,-10.566206 12.13594,-29.367549 8.14472,-45.474417 l 0,-2.8e-5"
     id="path4331"
     style="fill:none;fill-opacity:1;stroke:#000000;stroke-opacity:1;stroke-linejoin:round;stroke-linecap:round" /><path
     d="m 369.58286,32.804558 c 3.43528,15.149753 -1.76594,19.923977 -6.77702,24.783959 l 0,-1.6e-5 c 0.75029,-0.06035 16.00546,-9.242377 16.00546,-9.242377 -1.78156,-4.880292 -1.21856,-10.340972 0.32142,-15.539966"
     id="path4333"
     style="fill:none;fill-opacity:1;stroke:#000000;stroke-opacity:1;stroke-linejoin:round;stroke-linecap:round" /><path
     d="m 413.10931,32.866893 0,3.8e-5 c -5.2615,1.920399 -10.60666,3.936458 -18.81707,8.271423 -0.0925,-2.578581 -0.11179,-5.080889 -0.95626,-8.275161"
     id="path4335"
     style="fill:none;fill-opacity:1;stroke:#000000;stroke-opacity:1;stroke-linejoin:round;stroke-linecap:round" /><path
     d="M 440.01287,53.098916 C 429.91476,46.773919 412.9634,45.16054 407.57263,45.256053 l -3e-5,0 c 0.47356,-2.654243 24.98902,-8.965214 32.58146,-7.517881"
     id="path4337"
     style="fill:none;fill-opacity:1;stroke:#000000;stroke-opacity:1;stroke-linejoin:round;stroke-linecap:round" /><path
     d="m 440.32974,65.776686 c -22.13312,2.559539 -38.69965,-11.207751 -54.55985,-10.884348 -7.0103,0.14384 -17.7374,6.986282 -25.35245,12.018906 47.40067,-9.848786 33.08614,13.821396 50.78496,20.973041 -21.57624,6.086586 -41.65343,-9.131517 -50.88321,-13.190768 -9.23076,-4.059262 -24.65168,11.699219 -23.75546,13.589292 4.8779,-2.028561 8.97738,-3.043323 12.54992,-3.320945 15.31859,-1.189161 20.9477,11.186691 36.68098,15.445186 -20.9698,20.69666 -40.6002,-5.749947 -57.67702,-3.182844 -5.07086,0.762525 -9.52897,4.485354 -13.38478,12.201484 16.89255,-2.29553 33.36516,-2.56599 48.60733,3.09529 -3.77839,6.25756 -13.00121,13.6237 -23.03804,15.3118 3.77855,4.41993 15.38496,17.04522 -6.3016,39.15396 l 21.91733,-5.81471 c -11.52955,-20.79393 14.02141,-38.46018 15.75288,-51.64304 7.34087,16.56287 13.56639,31.58628 -7.19233,49.79875 l 14.88148,-2.87544 c 8.14822,-1.57558 -0.4744,-12.69965 5.02688,-27.7632 2.58367,-7.07386 11.97048,-12.2999 14.74273,-21.59767 8.84804,17.99156 2.96148,35.87366 -10.39014,48.22029 26.57509,0.43057 6.50847,-31.46257 34.2296,-47.62498 1.98965,17.53203 -0.47919,31.6485 -10.55376,42.85871 l 24.70028,-3.51093"
     id="path4339"
     style="fill:none;fill-opacity:1;stroke:#000000;stroke-opacity:1;stroke-linejoin:round" /><path
     d="m 436.32683,158.12309 c -8.18588,-1.58984 -21.65975,1.08419 -25.80756,3.6895 4.21501,6.46175 16.07969,14.67565 23.12602,17.71861"
     id="path4341"
     style="fill:none;fill-opacity:1;stroke:#000000;stroke-opacity:1" /><path
     d="m 408.86222,292.10502 c -18.19871,16.24344 -32.77324,24.66195 -67.03401,26.2512 -52.20213,2.42166 -50.63362,-38.93553 -82.81512,-44.83928 l 0.10589,-33.48855 c 0.089,-28.17237 23.63914,-32.99505 26.23492,-32.54534 11.77905,2.04423 23.83281,48.876 55.65639,34.74828 -21.53279,-13.76297 -5.88181,-44.09567 -50.63539,-41.55657 10.57913,-7.74957 19.85527,-12.35304 29.53692,-12.73228 15.53923,-0.60874 13.89002,39.78822 52.21806,29.17817 -18.79329,-12.12066 -2.41152,-29.49656 -35.1636,-37.84394 8.32188,-2.18021 23.7596,-9.11397 25.10742,-6.53849 7.88721,15.06733 13.25172,36.29125 43.25137,32.80332 -13.01434,-17.55701 -2.54528,-20.50922 -27.33952,-36.87081 l 0.001,0 1.9e-4,0 c 0.53917,0.0226 18.10205,-5.20203 19.53384,-2.00589 5.20874,11.62542 6.24223,21.62249 33.59431,30.96339"
     id="path4345"
     style="fill:none;fill-opacity:1;stroke:#000000;stroke-opacity:1;stroke-linejoin:round" /><path
     style="fill:none;stroke:#000"
     id="path4224"
     d="m440 32.7c2.09 102.46-3.38 187.49-43.93 296.59C368.02 404.77 321.86 474.06 240.5 530.88 159.14 474.06 112.98 404.77 84.93 329.29 44.38 220.19 38.91 135.16 41 32.7c133 0.29 266 0 399 0z" /></svg>