<svg xmlns="http://www.w3.org/2000/svg" id="Layer_5" data-name="Layer 5" viewBox="0 0 254.71 184.25">
  <path fill="#dbd9d6" d="M147.13 80.73a.5.5 0 0 0-.65-.47l-5.42 1.69-5.5 1.55a.5.5 0 0 0-.36.53l4.67 46.49a.5.5 0 0 0 .5.45h.16l5.08-1.75 4.77-2.17a.5.5 0 0 0 .29-.54c-1-6.32-1.88-13.35-2.51-20.88s-.92-16.01-1.03-24.9Zm35.08 30.41-14.53 2.38a57.27 57.27 0 0 1 3-5.54c1.25-2.28 2.52-4.41 3.79-6.37 3.8-6.44 6.42-10.79 7.79-12.92a.5.5 0 0 0 .07-.34l-1.66-12.23a.49.49 0 0 0-.2-.34.51.51 0 0 0-.38-.09l-26.41 4.62a.5.5 0 0 0-.4.61l3 12.56a.5.5 0 0 0 .24.32.49.49 0 0 0 .39 0c3.74-1.1 7.33-2 10.68-2.71l-7.46 12.29c-3.86 6.42-6.46 10.8-7.74 13a.5.5 0 0 0 0 .38l3.36 12.06a.5.5 0 0 0 .48.37h.12a269.23 269.23 0 0 1 28.06-4.78.5.5 0 0 0 .43-.58l-2.06-12.34a.5.5 0 0 0-.57-.35Zm34.79-2.71-14.53 2.38a57.75 57.75 0 0 1 3-5.54c1.25-2.27 2.52-4.41 3.79-6.37 3.8-6.45 6.43-10.8 7.79-12.92a.5.5 0 0 0 .07-.34q-1.24-9.11-1.66-12.23a.49.49 0 0 0-.2-.34.5.5 0 0 0-.38-.09l-26.41 4.62a.5.5 0 0 0-.4.61l3 12.56a.5.5 0 0 0 .24.32.49.49 0 0 0 .39 0c3.74-1.1 7.33-2 10.68-2.71L195 100.73c-3.84 6.39-6.44 10.77-7.74 13a.5.5 0 0 0 0 .38l3.36 12.06a.5.5 0 0 0 .48.37h.12a268.72 268.72 0 0 1 28.05-4.78.5.5 0 0 0 .43-.58l-2.06-12.34a.5.5 0 0 0-.64-.41Zm37.68 7.75A428.49 428.49 0 0 1 241 70.33a.5.5 0 0 0-.23-.32.49.49 0 0 0-.39 0l-14 4a.5.5 0 0 0-.36.47 402.09 402.09 0 0 1-4.07 46 .5.5 0 0 0 .41.56l11.56 2h.08a.5.5 0 0 0 .5-.48l.36-8.13L241 113l2.23 7.7a.5.5 0 0 0 .67.33l10.5-4.2a.5.5 0 0 0 .28-.65Zm-16.2-12.93-3.73.43.33-13.68Z"/>
  <path fill="#ffdb00" d="M145.1 60.3c-.51-4.88-2.07-8.59-4.64-11s-6-3.51-10.19-3.43-9.46 1.29-15.89 3.73l-.74.28a.59.59 0 0 0-.3.63c0 .11 1.91 11.15 3 24.18.28 3.19.54 6.11.84 9.54.62 7.13 3.4 36.06 4.32 45.57l.28 2.94v.11a.5.5 0 0 0 .5.45h.1l12.22-2.52a.5.5 0 0 0 .4-.55l-.09-.76c-3.11-25.29-4.76-41.27-5.15-46.3a22.65 22.65 0 0 0 9-4.92 18.7 18.7 0 0 0 5.07-7.25 22.54 22.54 0 0 0 1.27-10.7Zm-12.87 7.12a6.9 6.9 0 0 1-3.81 2.58l-1.07-10.52c.83-.33 2.93-1.06 4.39-.69 1.33.54 1.92 1.82 1.88 4a8.3 8.3 0 0 1-1.39 4.63ZM19.06 55.7a.5.5 0 0 0-.23-.32.49.49 0 0 0-.39 0l-14 4a.5.5 0 0 0-.36.47A402.75 402.75 0 0 1 0 105.8a.5.5 0 0 0 .41.56l11.56 2h.09a.5.5 0 0 0 .5-.48l.36-8.13 6.15-1.43 2.23 7.7a.5.5 0 0 0 .26.31.49.49 0 0 0 .4 0l10.5-4.2a.5.5 0 0 0 .29-.63 428.06 428.06 0 0 1-13.69-45.8Zm-2.52 32.92-3.73.43.34-13.65Zm46.12-1.01L48.13 90a57.79 57.79 0 0 1 3-5.54c1.24-2.26 2.51-4.4 3.79-6.37 3.8-6.45 6.42-10.79 7.79-12.92a.5.5 0 0 0 .08-.34q-1.24-9.11-1.66-12.23a.5.5 0 0 0-.58-.43l-26.38 4.62a.5.5 0 0 0-.4.61l3 12.56a.5.5 0 0 0 .63.36c3.75-1.1 7.33-2 10.68-2.71l-7.45 12.3c-3.83 6.38-6.44 10.76-7.74 13a.5.5 0 0 0 0 .38l3.36 12.06a.5.5 0 0 0 .48.37h.12a269.27 269.27 0 0 1 28.05-4.78.5.5 0 0 0 .43-.58L63.23 88a.5.5 0 0 0-.57-.39Zm33.4-3.06-14.53 2.38a57.64 57.64 0 0 1 3-5.54C85.8 79.13 87.07 77 88.35 75c3.8-6.45 6.42-10.79 7.79-12.92a.5.5 0 0 0 .08-.34q-1.22-9.09-1.66-12.2a.5.5 0 0 0-.2-.34.5.5 0 0 0-.36-.09l-26.43 4.62a.5.5 0 0 0-.4.61l3 12.56a.5.5 0 0 0 .24.32.5.5 0 0 0 .39 0c3.74-1.1 7.33-2 10.68-2.71L74 76.85c-3.83 6.38-6.44 10.76-7.74 13a.5.5 0 0 0 0 .38l3.36 12.06a.5.5 0 0 0 .48.37h.1a269.19 269.19 0 0 1 28.05-4.78.5.5 0 0 0 .43-.58L96.63 85a.5.5 0 0 0-.57-.45Zm13.87-35.99a.5.5 0 0 0-.65-.47l-5.42 1.69-5.49 1.54a.5.5 0 0 0-.36.53l4.67 46.49a.5.5 0 0 0 .5.45h.16l5.08-1.79 4.77-2.17a.5.5 0 0 0 .29-.54C112.45 88 111.6 81 111 73.44s-1-16.02-1.07-24.88Z"/>
  <path fill="#ffdb00" d="M208.51 67.24a6 6 0 0 1-5.6-3.85A80.13 80.13 0 0 0 64.79 43a6 6 0 1 1-9.48-7.36 92.13 92.13 0 0 1 158.8 23.42 6 6 0 0 1-5.6 8.18Zm-80.4 117.01a91.77 91.77 0 0 1-87.84-64.34 6 6 0 1 1 11.44-3.62A80.12 80.12 0 0 0 195 136.2a6 6 0 0 1 10 6.61 92 92 0 0 1-76.89 41.44Z"/>
</svg>
