<?xml version="1.0" encoding="UTF-8" standalone="no"?>
<!-- Created with sK1/UniConvertor (http://sk1project.org/) -->

<svg
   xmlns:dc="http://purl.org/dc/elements/1.1/"
   xmlns:cc="http://creativecommons.org/ns#"
   xmlns:rdf="http://www.w3.org/1999/02/22-rdf-syntax-ns#"
   xmlns:svg="http://www.w3.org/2000/svg"
   xmlns="http://www.w3.org/2000/svg"
   xmlns:sodipodi="http://sodipodi.sourceforge.net/DTD/sodipodi-0.dtd"
   xmlns:inkscape="http://www.inkscape.org/namespaces/inkscape"
   width="1024.083"
   height="1023.9064"
   viewBox="0 0 819.26644 819.12511"
   id="svg2"
   version="1.1"
   inkscape:version="0.48.4 r9939"
   sodipodi:docname="baltimore_county_maryland.svg"
   style="fill-rule:evenodd">
  <metadata
     id="metadata194">
    <rdf:RDF>
      <cc:Work
         rdf:about="">
        <dc:format>image/svg+xml</dc:format>
        <dc:type
           rdf:resource="http://purl.org/dc/dcmitype/StillImage" />
      </cc:Work>
    </rdf:RDF>
  </metadata>
  <defs
     id="defs192" />
  <sodipodi:namedview
     pagecolor="#ffffff"
     bordercolor="#666666"
     borderopacity="1"
     objecttolerance="10"
     gridtolerance="10"
     guidetolerance="10"
     inkscape:pageopacity="0"
     inkscape:pageshadow="2"
     inkscape:window-width="1920"
     inkscape:window-height="1096"
     id="namedview190"
     showgrid="false"
     fit-margin-top="0"
     fit-margin-left="0"
     fit-margin-right="0"
     fit-margin-bottom="0"
     inkscape:zoom="0.78752862"
     inkscape:cx="678.62284"
     inkscape:cy="642.16879"
     inkscape:window-x="-8"
     inkscape:window-y="-8"
     inkscape:window-maximized="1"
     inkscape:current-layer="svg2" />
  <path
     sodipodi:type="arc"
     style="fill:#ffffff;fill-rule:evenodd;stroke:none"
     id="path3171"
     sodipodi:cx="-621.3335"
     sodipodi:cy="321.76364"
     sodipodi:rx="736.26221"
     sodipodi:ry="594.39703"
     d="m 114.92871,321.76364 a 736.26221,594.39703 0 1 1 -1472.52441,0 736.26221,594.39703 0 1 1 1472.52441,0 z"
     transform="matrix(0.55632357,0,0,0.68910172,755.29569,187.83468)" />
  <g
     id="g4"
     transform="matrix(3.3610932,0,0,3.3609444,-920.62443,-3447.9089)">
    <g
       id="g6">
      <path
         style="fill:none;stroke:#f9b330;stroke-width:6.03087997"
         d="m 514.633,1147.74 c 0,65.63 -53.206,118.85 -118.851,118.85 -65.644,0 -118.85,-53.22 -118.85,-118.85 0,-65.65 53.206,-118.86 118.85,-118.86 65.645,0 118.851,53.21 118.851,118.86 z"
         id="path8"
         inkscape:connector-curvature="0" />
      <g
         id="g10">
        <path
           style="fill:#2c2c2b;stroke:none"
           d="m 305.154,1130.62 c -0.129,0.48 -0.294,0.82 -0.518,1 -0.212,0.19 -0.495,0.23 -0.825,0.14 -0.376,-0.09 -0.6,-0.43 -0.659,-1.02 -0.024,-0.17 -0.035,-0.29 -0.048,-0.37 -0.046,-0.2 -0.141,-0.36 -0.27,-0.49 -0.142,-0.11 -0.354,-0.21 -0.648,-0.29 l -10.531,-2.76 c -0.294,-0.07 -0.53,-0.09 -0.706,-0.05 -0.177,0.04 -0.342,0.14 -0.471,0.3 -0.047,0.05 -0.13,0.15 -0.224,0.29 -0.354,0.48 -0.707,0.67 -1.084,0.57 -0.341,-0.09 -0.554,-0.26 -0.648,-0.53 -0.106,-0.26 -0.082,-0.64 0.036,-1.12 l 1.402,-5.37 c 0.529,-2.02 1.307,-3.5 2.32,-4.42 1.013,-0.93 2.155,-1.22 3.427,-0.89 0.637,0.17 1.131,0.48 1.484,0.95 0.354,0.46 0.578,1.1 0.672,1.91 0.754,-1.54 1.696,-2.62 2.815,-3.24 1.119,-0.63 2.344,-0.78 3.663,-0.43 0.66,0.17 1.237,0.48 1.756,0.93 0.506,0.45 0.895,1 1.166,1.65 0.306,0.7 0.459,1.46 0.447,2.26 0,0.81 -0.188,1.9 -0.542,3.28 l -2.014,7.7 z m -10.377,-7.43 c 0.365,0.1 0.624,0.11 0.777,0.03 0.142,-0.08 0.271,-0.31 0.365,-0.67 0.177,-0.7 0.154,-1.3 -0.094,-1.79 -0.247,-0.49 -0.671,-0.81 -1.283,-0.97 -0.684,-0.18 -1.273,-0.15 -1.768,0.09 -0.482,0.24 -0.812,0.65 -0.954,1.22 -0.117,0.42 -0.117,0.74 -0.023,0.98 0.082,0.23 0.283,0.4 0.6,0.5 l 2.38,0.61 z m 8.387,2.2 c 0.471,0.13 0.813,0.12 1.001,0 0.2,-0.13 0.365,-0.47 0.506,-1.01 0.318,-1.22 0.26,-2.25 -0.165,-3.08 -0.424,-0.83 -1.177,-1.39 -2.261,-1.67 -1.119,-0.29 -2.097,-0.19 -2.921,0.29 -0.825,0.48 -1.379,1.27 -1.673,2.37 -0.153,0.61 -0.189,1.04 -0.07,1.3 0.105,0.25 0.376,0.44 0.812,0.55 l 4.771,1.25 z"
           id="path12"
           inkscape:connector-curvature="0" />
        <path
           style="fill:#2c2c2b;stroke:none"
           d="m 308.971,1115.99 c -0.142,0.3 -0.318,0.49 -0.542,0.59 -0.224,0.09 -0.459,0.08 -0.73,-0.05 -0.436,-0.21 -0.613,-0.62 -0.531,-1.25 0.024,-0.15 0.036,-0.27 0.048,-0.35 0.012,-0.27 -0.059,-0.55 -0.213,-0.85 -0.152,-0.3 -0.482,-0.76 -1.001,-1.39 l -8.646,-10.39 c -0.046,-0.05 -0.094,-0.12 -0.165,-0.2 -0.247,-0.29 -0.27,-0.66 -0.07,-1.09 l 0.895,-1.87 c 0.153,-0.3 0.283,-0.48 0.389,-0.53 0.117,-0.05 0.4,-0.05 0.836,0 l 12.898,1.19 c 0.047,0 0.118,0.01 0.212,0.02 1.178,0.12 2.015,-0.01 2.486,-0.41 0.047,-0.04 0.094,-0.08 0.141,-0.13 0.448,-0.39 0.86,-0.5 1.249,-0.31 0.247,0.12 0.4,0.28 0.447,0.49 0.036,0.2 -0.023,0.48 -0.2,0.84 l -2.297,4.81 c -0.212,0.45 -0.424,0.73 -0.636,0.85 -0.2,0.11 -0.459,0.09 -0.766,-0.06 -0.165,-0.07 -0.282,-0.19 -0.365,-0.34 -0.094,-0.15 -0.129,-0.32 -0.117,-0.52 0,-0.07 0,-0.16 0.011,-0.25 0.035,-0.33 -0.071,-0.56 -0.329,-0.68 -0.142,-0.07 -0.401,-0.13 -0.766,-0.16 -0.365,-0.04 -0.672,-0.03 -0.919,0.02 -0.354,0.07 -0.636,0.19 -0.848,0.37 -0.224,0.19 -0.436,0.49 -0.636,0.93 l -1.225,2.54 c -0.189,0.4 -0.318,0.76 -0.377,1.08 -0.071,0.33 -0.059,0.6 0,0.82 0.106,0.29 0.295,0.62 0.601,0.96 0.294,0.36 0.565,0.59 0.824,0.72 0.188,0.08 0.413,0.01 0.695,-0.22 0.024,-0.03 0.047,-0.04 0.059,-0.04 0.224,-0.2 0.424,-0.32 0.589,-0.36 0.176,-0.04 0.353,-0.03 0.53,0.06 0.235,0.11 0.389,0.29 0.448,0.51 0.047,0.23 0.011,0.49 -0.118,0.77 l -1.861,3.88 z m -4.465,-9.02 c 0.083,0.08 0.142,0.15 0.201,0.19 0.059,0.04 0.105,0.08 0.153,0.1 0.2,0.09 0.377,0.06 0.554,-0.1 0.164,-0.17 0.388,-0.53 0.659,-1.1 0.342,-0.72 0.566,-1.31 0.659,-1.78 0.095,-0.46 0.06,-0.73 -0.117,-0.82 -0.071,-0.03 -0.153,-0.06 -0.236,-0.08 -0.082,-0.02 -0.188,-0.03 -0.33,-0.04 l -4.346,-0.43 c -0.13,-0.02 -0.247,-0.02 -0.342,0.01 -0.094,0.02 -0.141,0.05 -0.165,0.09 -0.035,0.07 -0.023,0.15 0.012,0.24 0.036,0.1 0.095,0.19 0.189,0.29 l 3.109,3.43 z"
           id="path14"
           inkscape:connector-curvature="0" />
        <path
           style="fill:#2c2c2b;stroke:none"
           d="m 317.734,1098.66 c -0.294,0.41 -0.577,0.65 -0.848,0.74 -0.271,0.09 -0.542,0.04 -0.825,-0.17 -0.306,-0.22 -0.388,-0.62 -0.235,-1.19 0.035,-0.16 0.071,-0.28 0.083,-0.36 0.035,-0.22 0.023,-0.4 -0.059,-0.55 -0.083,-0.16 -0.247,-0.33 -0.483,-0.5 l -8.823,-6.42 c -0.247,-0.17 -0.459,-0.28 -0.647,-0.31 -0.177,-0.02 -0.354,0.01 -0.543,0.11 -0.07,0.04 -0.176,0.1 -0.317,0.19 -0.495,0.32 -0.896,0.37 -1.214,0.14 -0.283,-0.2 -0.424,-0.45 -0.412,-0.73 0,-0.29 0.153,-0.63 0.447,-1.03 l 2.816,-3.87 c 0.294,-0.41 0.577,-0.66 0.836,-0.75 0.271,-0.1 0.542,-0.04 0.836,0.17 0.307,0.22 0.389,0.62 0.248,1.18 -0.047,0.16 -0.071,0.27 -0.083,0.35 -0.035,0.22 -0.023,0.41 0.059,0.57 0.083,0.17 0.247,0.34 0.495,0.52 l 8.528,6.2 c 0.271,0.2 0.53,0.27 0.778,0.23 0.247,-0.03 0.459,-0.19 0.647,-0.45 l 1.496,-2.05 c 0.377,-0.52 0.66,-1.05 0.848,-1.59 0.177,-0.53 0.283,-1.11 0.318,-1.77 0.012,-0.24 0.012,-0.57 0.012,-0.98 -0.012,-0.77 0.071,-1.26 0.224,-1.47 0.106,-0.16 0.259,-0.25 0.447,-0.28 0.177,-0.02 0.354,0.03 0.531,0.15 0.106,0.08 0.2,0.18 0.282,0.29 0.071,0.12 0.154,0.3 0.248,0.55 l 1.425,3.45 c 0.153,0.38 0.247,0.66 0.247,0.84 0.012,0.18 -0.035,0.34 -0.141,0.49 -0.082,0.12 -0.365,0.22 -0.836,0.33 -0.472,0.1 -0.825,0.32 -1.072,0.65 l -5.313,7.32 z"
           id="path16"
           inkscape:connector-curvature="0" />
        <path
           style="fill:#2c2c2b;stroke:none"
           d="m 328.053,1085.44 c -0.354,0.37 -0.672,0.57 -0.954,0.62 -0.271,0.05 -0.542,-0.04 -0.789,-0.28 -0.271,-0.27 -0.295,-0.67 -0.071,-1.21 0.059,-0.15 0.106,-0.27 0.129,-0.34 0.071,-0.21 0.071,-0.39 0.012,-0.57 -0.059,-0.16 -0.2,-0.36 -0.412,-0.57 l -7.633,-7.41 c -0.318,-0.3 -0.565,-0.44 -0.754,-0.42 -0.188,0.02 -0.459,0.22 -0.836,0.6 -0.459,0.48 -0.801,0.96 -1.001,1.43 -0.201,0.46 -0.33,1.13 -0.389,2 -0.012,0.25 -0.012,0.58 -0.012,1 -0.011,0.76 -0.094,1.22 -0.259,1.4 -0.118,0.12 -0.259,0.18 -0.412,0.17 -0.165,0 -0.306,-0.08 -0.448,-0.22 -0.235,-0.23 -0.73,-1.6 -1.484,-4.13 l -0.071,-0.19 c -0.141,-0.48 -0.212,-0.86 -0.224,-1.15 0,-0.28 0.059,-0.49 0.189,-0.62 0.141,-0.14 0.401,-0.22 0.789,-0.24 0.389,-0.01 0.73,-0.17 1.025,-0.47 l 6.314,-6.51 c 0.306,-0.33 0.518,-0.69 0.6,-1.09 0.095,-0.4 0.177,-0.64 0.248,-0.71 0.235,-0.25 0.765,-0.23 1.601,0.03 0.165,0.05 0.283,0.09 0.377,0.12 1.202,0.36 2.097,0.66 2.686,0.89 0.589,0.23 0.954,0.42 1.119,0.58 0.118,0.12 0.177,0.27 0.177,0.44 0,0.18 -0.071,0.34 -0.2,0.47 -0.165,0.17 -0.531,0.26 -1.096,0.27 -0.2,-0.01 -0.353,-0.01 -0.471,0 -1.155,0.03 -2.026,0.16 -2.615,0.38 -0.577,0.22 -1.107,0.57 -1.59,1.07 -0.413,0.43 -0.648,0.76 -0.683,1 -0.036,0.25 0.094,0.52 0.388,0.81 l 7.657,7.42 c 0.212,0.21 0.412,0.34 0.577,0.4 0.177,0.05 0.377,0.04 0.589,-0.04 0.082,-0.03 0.189,-0.08 0.33,-0.14 0.518,-0.24 0.919,-0.22 1.201,0.05 0.247,0.24 0.342,0.5 0.306,0.78 -0.046,0.28 -0.247,0.6 -0.588,0.96 l -3.322,3.42 z"
           id="path18"
           inkscape:connector-curvature="0" />
        <path
           style="fill:#2c2c2b;stroke:none"
           d="m 337.311,1076.67 c -0.389,0.3 -0.73,0.46 -1.013,0.47 -0.282,0.02 -0.53,-0.11 -0.742,-0.38 -0.236,-0.3 -0.2,-0.71 0.094,-1.21 0.083,-0.14 0.142,-0.25 0.177,-0.32 0.094,-0.19 0.118,-0.38 0.082,-0.55 -0.023,-0.18 -0.141,-0.39 -0.329,-0.63 l -6.691,-8.58 c -0.188,-0.25 -0.365,-0.4 -0.53,-0.48 -0.165,-0.07 -0.353,-0.09 -0.553,-0.05 -0.095,0.02 -0.213,0.05 -0.366,0.1 -0.553,0.17 -0.954,0.1 -1.19,-0.2 -0.211,-0.29 -0.282,-0.56 -0.2,-0.83 0.083,-0.27 0.318,-0.55 0.719,-0.86 l 3.781,-2.96 c 0.389,-0.3 0.73,-0.46 1.001,-0.47 0.283,-0.01 0.53,0.12 0.742,0.4 0.247,0.3 0.212,0.7 -0.07,1.19 -0.095,0.15 -0.142,0.26 -0.177,0.32 -0.094,0.2 -0.129,0.38 -0.094,0.55 0.035,0.19 0.141,0.39 0.329,0.64 l 6.703,8.58 c 0.188,0.24 0.365,0.4 0.53,0.47 0.165,0.08 0.341,0.09 0.565,0.05 0.059,-0.02 0.177,-0.05 0.342,-0.09 0.554,-0.16 0.942,-0.09 1.178,0.21 0.224,0.28 0.294,0.55 0.211,0.82 -0.082,0.27 -0.317,0.55 -0.706,0.86 l -3.793,2.95 z"
           id="path20"
           inkscape:connector-curvature="0" />
        <path
           style="fill:#2c2c2b;stroke:none"
           d="m 341.693,1069.15 -2.827,-11.33 c 0,-0.01 -0.012,-0.03 -0.012,-0.06 -0.07,-0.31 -0.141,-0.54 -0.212,-0.67 -0.082,-0.13 -0.365,-0.22 -0.871,-0.23 -0.507,-0.02 -0.849,-0.18 -1.001,-0.48 -0.119,-0.2 -0.119,-0.41 0,-0.61 0.105,-0.2 0.317,-0.39 0.635,-0.56 l 3.993,-2.15 c 0.271,-0.15 0.507,-0.2 0.707,-0.15 0.212,0.05 0.377,0.2 0.519,0.45 0.129,0.24 0.094,0.58 -0.106,1.01 -0.189,0.43 -0.236,0.75 -0.118,0.97 0.058,0.1 0.118,0.19 0.2,0.27 0.07,0.09 0.177,0.18 0.295,0.27 l 4.605,3.61 c 0.177,0.14 0.377,0.32 0.601,0.53 0.224,0.22 0.506,0.5 0.824,0.85 -0.106,-0.44 -0.188,-0.82 -0.247,-1.16 -0.059,-0.35 -0.082,-0.66 -0.082,-0.94 l -0.319,-5.76 c -0.011,-0.25 -0.035,-0.45 -0.07,-0.59 -0.024,-0.15 -0.071,-0.27 -0.13,-0.38 -0.071,-0.14 -0.353,-0.23 -0.824,-0.25 -0.483,-0.02 -0.79,-0.16 -0.931,-0.43 -0.141,-0.25 -0.153,-0.48 -0.059,-0.69 0.106,-0.22 0.318,-0.41 0.648,-0.59 l 3.711,-2.01 c 0.341,-0.18 0.624,-0.26 0.859,-0.22 0.224,0.03 0.413,0.16 0.542,0.41 0.059,0.12 0.094,0.27 0.094,0.44 0,0.17 -0.035,0.32 -0.094,0.43 -0.023,0.04 -0.07,0.1 -0.118,0.18 -0.306,0.47 -0.377,0.85 -0.212,1.14 0.035,0.07 0.106,0.17 0.236,0.31 0.047,0.05 0.082,0.1 0.106,0.14 l 7.339,8.4 c 0.2,0.23 0.4,0.39 0.624,0.49 0.212,0.1 0.471,0.15 0.753,0.13 0.048,0.01 0.13,0 0.236,0 0.495,-0.03 0.824,0.13 1.001,0.46 0.13,0.23 0.142,0.47 0.035,0.73 -0.105,0.26 -0.294,0.46 -0.565,0.6 l -4.488,2.43 c -0.27,0.14 -0.506,0.18 -0.742,0.13 -0.224,-0.06 -0.4,-0.2 -0.53,-0.44 -0.165,-0.31 -0.141,-0.68 0.071,-1.1 0.212,-0.43 0.283,-0.7 0.224,-0.81 -0.036,-0.07 -0.083,-0.15 -0.153,-0.25 -0.071,-0.09 -0.154,-0.2 -0.259,-0.32 l -3.711,-4.32 c -0.129,-0.16 -0.283,-0.36 -0.448,-0.61 -0.164,-0.24 -0.341,-0.51 -0.494,-0.8 0.047,0.22 0.094,0.46 0.129,0.7 0.047,0.24 0.071,0.53 0.106,0.86 l 0.53,8.6 0,0.03 c 0.035,0.7 -0.07,1.11 -0.306,1.23 -0.165,0.1 -0.342,0.11 -0.53,0.05 -0.189,-0.07 -0.46,-0.25 -0.836,-0.54 l -6.62,-5.2 c -0.224,-0.18 -0.424,-0.36 -0.624,-0.55 -0.189,-0.19 -0.365,-0.39 -0.507,-0.58 0.118,0.24 0.212,0.5 0.306,0.76 0.083,0.25 0.165,0.49 0.224,0.72 l 1.461,5.85 c 0.035,0.18 0.071,0.32 0.117,0.44 0.036,0.12 0.06,0.2 0.083,0.24 0.082,0.16 0.354,0.26 0.789,0.3 0.436,0.05 0.719,0.21 0.872,0.48 0.118,0.24 0.141,0.47 0.059,0.69 -0.095,0.22 -0.283,0.42 -0.566,0.57 l -3.251,1.76 c -0.247,0.13 -0.483,0.17 -0.73,0.11 -0.247,-0.04 -0.424,-0.18 -0.542,-0.39 -0.129,-0.24 -0.177,-0.45 -0.141,-0.65 0.047,-0.21 0.188,-0.45 0.436,-0.74 0.011,-0.02 0.035,-0.04 0.059,-0.08 0.27,-0.34 0.353,-0.72 0.247,-1.13 z"
           id="path22"
           inkscape:connector-curvature="0" />
        <path
           style="fill:#2c2c2b;stroke:none"
           d="m 360.304,1054.06 c -0.271,-0.96 -0.389,-1.92 -0.377,-2.88 0.024,-0.96 0.176,-1.9 0.471,-2.83 0.483,-1.49 1.296,-2.79 2.438,-3.89 1.143,-1.1 2.462,-1.86 3.958,-2.28 1.202,-0.33 2.427,-0.41 3.675,-0.26 1.249,0.16 2.415,0.55 3.475,1.16 1.131,0.64 2.061,1.45 2.815,2.43 0.754,0.97 1.296,2.1 1.649,3.39 0.672,2.42 0.389,4.56 -0.824,6.43 -1.225,1.86 -3.228,3.17 -5.996,3.93 -2.898,0.8 -5.336,0.74 -7.315,-0.18 -1.979,-0.92 -3.31,-2.59 -3.969,-5.02 z m 4.829,-1.7 c 0.483,1.74 1.249,3.04 2.321,3.89 1.06,0.86 2.214,1.11 3.463,0.76 1.295,-0.35 2.167,-1.13 2.626,-2.35 0.472,-1.21 0.46,-2.71 -0.035,-4.49 -0.553,-2.04 -1.413,-3.61 -2.579,-4.73 -1.166,-1.12 -2.333,-1.51 -3.522,-1.19 -0.577,0.16 -1.072,0.48 -1.473,0.97 -0.4,0.48 -0.706,1.13 -0.918,1.96 -0.201,0.78 -0.295,1.61 -0.271,2.51 0.011,0.9 0.141,1.79 0.388,2.67 z"
           id="path24"
           inkscape:connector-curvature="0" />
        <path
           style="fill:#2c2c2b;stroke:none"
           d="m 386.383,1053.02 c 0.023,0.3 0.082,0.53 0.177,0.68 0.094,0.16 0.247,0.29 0.447,0.36 0.071,0.03 0.188,0.07 0.353,0.12 0.542,0.18 0.837,0.46 0.86,0.84 0.024,0.35 -0.082,0.61 -0.294,0.79 -0.224,0.18 -0.589,0.29 -1.084,0.32 l -4.77,0.32 c -0.507,0.03 -0.884,-0.03 -1.119,-0.18 -0.248,-0.15 -0.377,-0.39 -0.401,-0.73 -0.024,-0.39 0.236,-0.71 0.766,-0.95 0.153,-0.08 0.259,-0.13 0.329,-0.17 0.189,-0.1 0.307,-0.24 0.377,-0.41 0.071,-0.16 0.106,-0.4 0.083,-0.71 l -0.718,-10.86 c -0.024,-0.3 -0.083,-0.53 -0.177,-0.69 -0.094,-0.15 -0.236,-0.27 -0.424,-0.35 -0.071,-0.03 -0.189,-0.07 -0.353,-0.12 -0.566,-0.17 -0.861,-0.46 -0.884,-0.84 -0.024,-0.35 0.071,-0.62 0.294,-0.79 0.224,-0.18 0.59,-0.28 1.084,-0.32 l 5.948,-0.39 c 1.649,-0.11 3.016,-0.08 4.111,0.09 1.096,0.16 2.085,0.49 2.969,0.96 1.095,0.57 1.967,1.3 2.615,2.19 0.636,0.89 1.001,1.85 1.06,2.85 0.082,1.15 -0.2,2.14 -0.848,2.96 -0.648,0.83 -1.649,1.48 -2.992,1.95 l 2.426,2.47 c 0,0.01 0.024,0.03 0.048,0.06 0.635,0.63 1.201,1.02 1.696,1.15 0.329,0.1 0.565,0.2 0.694,0.32 0.118,0.12 0.189,0.28 0.2,0.49 0.024,0.29 -0.07,0.52 -0.282,0.69 -0.212,0.17 -0.507,0.26 -0.907,0.29 l -5.701,0.38 c -0.33,0.02 -0.577,-0.04 -0.766,-0.17 -0.188,-0.14 -0.282,-0.34 -0.306,-0.61 -0.023,-0.44 0.153,-0.76 0.554,-0.98 0.388,-0.21 0.589,-0.33 0.589,-0.34 -0.012,-0.14 -0.201,-0.39 -0.566,-0.76 -0.365,-0.38 -1.001,-0.96 -1.92,-1.76 -0.117,0.01 -0.235,0.03 -0.353,0.04 -0.106,0.01 -0.283,0.03 -0.507,0.04 -0.353,0.02 -0.73,0.03 -1.107,0.02 -0.377,-0.01 -0.589,-0.02 -0.612,-0.01 -0.224,0.01 -0.389,0.09 -0.507,0.23 -0.117,0.14 -0.165,0.32 -0.141,0.56 l 0.059,0.97 z m -0.377,-5.76 c 0.047,0.85 0.235,1.4 0.542,1.66 0.294,0.25 0.871,0.35 1.72,0.29 1.401,-0.09 2.449,-0.51 3.156,-1.24 0.707,-0.73 1.013,-1.75 0.93,-3.04 -0.093,-1.32 -0.541,-2.32 -1.342,-3.01 -0.801,-0.68 -1.897,-0.98 -3.263,-0.89 -0.824,0.05 -1.378,0.19 -1.672,0.42 -0.295,0.23 -0.425,0.62 -0.389,1.17 l 0.318,4.64 z"
           id="path26"
           inkscape:connector-curvature="0" />
        <path
           style="fill:#2c2c2b;stroke:none"
           d="m 400.164,1055.58 c -0.506,-0.07 -0.859,-0.19 -1.071,-0.39 -0.2,-0.19 -0.295,-0.46 -0.248,-0.8 0.048,-0.38 0.353,-0.64 0.93,-0.79 0.165,-0.04 0.284,-0.07 0.354,-0.1 0.212,-0.07 0.365,-0.17 0.459,-0.32 0.095,-0.14 0.165,-0.37 0.2,-0.66 l 1.331,-10.82 c 0.036,-0.31 0.025,-0.55 -0.035,-0.72 -0.059,-0.17 -0.177,-0.31 -0.354,-0.43 -0.07,-0.04 -0.175,-0.1 -0.329,-0.18 -0.518,-0.28 -0.754,-0.61 -0.707,-0.99 0.047,-0.35 0.189,-0.59 0.448,-0.72 0.248,-0.13 0.613,-0.17 1.119,-0.11 l 8.835,1.09 c 0.364,0.05 0.706,-0.02 1.048,-0.19 0.341,-0.18 0.577,-0.26 0.707,-0.25 0.153,0.03 0.294,0.09 0.435,0.2 0.13,0.11 0.247,0.27 0.354,0.49 l 1.684,3.29 c 0.082,0.16 0.141,0.33 0.177,0.48 0.035,0.15 0.047,0.28 0.035,0.4 -0.023,0.18 -0.095,0.32 -0.212,0.41 -0.13,0.1 -0.283,0.13 -0.46,0.11 -0.247,-0.03 -0.636,-0.3 -1.154,-0.81 -0.354,-0.34 -0.648,-0.6 -0.871,-0.78 -0.484,-0.4 -1.014,-0.71 -1.567,-0.92 -0.565,-0.22 -1.472,-0.4 -2.721,-0.56 -0.824,-0.1 -1.378,-0.06 -1.661,0.11 -0.283,0.17 -0.459,0.53 -0.53,1.11 l -0.153,1.29 c -0.07,0.52 -0.023,0.87 0.117,1.05 0.142,0.18 0.437,0.31 0.884,0.36 0.436,0.05 0.754,0.05 0.954,-0.01 0.212,-0.06 0.412,-0.21 0.636,-0.47 0.024,-0.04 0.059,-0.09 0.106,-0.14 0.259,-0.32 0.519,-0.46 0.754,-0.43 0.142,0.02 0.271,0.07 0.401,0.17 0.118,0.09 0.212,0.21 0.294,0.37 l 1.732,3.5 c 0.059,0.11 0.094,0.22 0.105,0.35 0.024,0.13 0.024,0.25 0.012,0.36 -0.023,0.23 -0.117,0.42 -0.282,0.53 -0.165,0.13 -0.354,0.17 -0.589,0.15 -0.307,-0.04 -0.73,-0.33 -1.272,-0.88 -0.236,-0.24 -0.424,-0.42 -0.566,-0.55 -0.235,-0.21 -0.507,-0.38 -0.824,-0.5 -0.318,-0.13 -0.742,-0.22 -1.296,-0.3 -0.695,-0.08 -1.154,-0.03 -1.401,0.15 -0.237,0.19 -0.425,0.79 -0.542,1.79 l -0.307,2.49 c -0.082,0.66 -0.023,1.12 0.188,1.39 0.201,0.26 0.672,0.43 1.403,0.53 l 3.356,0.41 c 0.624,0.08 1.226,0.06 1.779,-0.03 0.565,-0.1 1.142,-0.3 1.767,-0.6 0.189,-0.09 0.448,-0.24 0.766,-0.42 0.706,-0.39 1.201,-0.58 1.471,-0.54 0.189,0.02 0.331,0.11 0.437,0.25 0.106,0.16 0.142,0.33 0.117,0.55 -0.011,0.12 -0.058,0.25 -0.117,0.38 -0.06,0.12 -0.177,0.28 -0.354,0.48 l -2.332,2.92 c -0.259,0.34 -0.471,0.55 -0.613,0.64 -0.14,0.09 -0.306,0.12 -0.47,0.1 -0.142,-0.01 -0.377,-0.21 -0.696,-0.57 -0.317,-0.36 -0.682,-0.57 -1.083,-0.62 l -10.578,-1.3 z"
           id="path28"
           inkscape:connector-curvature="0" />
        <path
           style="fill:#2c2c2b;stroke:none"
           d="m 425.513,1051.65 c 0.377,-0.95 0.884,-1.79 1.496,-2.54 0.612,-0.74 1.331,-1.38 2.155,-1.91 1.237,-0.8 2.592,-1.25 4.053,-1.35 1.46,-0.11 2.921,0.14 4.393,0.73 0.93,0.38 1.872,0.92 2.826,1.62 0.284,0.2 0.449,0.31 0.531,0.34 0.118,0.05 0.365,-0.03 0.73,-0.25 0.354,-0.22 0.648,-0.28 0.884,-0.19 0.317,0.14 0.494,0.77 0.494,1.92 0,0.15 0,0.26 0,0.35 0.024,1.41 0.024,2.36 0,2.82 -0.035,0.47 -0.082,0.81 -0.165,1.01 -0.07,0.18 -0.2,0.31 -0.377,0.38 -0.188,0.08 -0.352,0.09 -0.517,0.03 -0.248,-0.11 -0.507,-0.53 -0.766,-1.27 -0.118,-0.35 -0.225,-0.64 -0.307,-0.84 -0.388,-0.96 -0.836,-1.73 -1.331,-2.32 -0.507,-0.59 -1.095,-1.02 -1.778,-1.29 -1.366,-0.56 -2.722,-0.46 -4.04,0.31 -1.331,0.76 -2.356,2.03 -3.075,3.8 -0.73,1.81 -0.848,3.44 -0.353,4.9 0.494,1.46 1.52,2.51 3.074,3.14 0.743,0.3 1.508,0.46 2.297,0.49 0.801,0.03 1.578,-0.07 2.332,-0.31 0.142,-0.04 0.342,-0.11 0.589,-0.21 0.542,-0.22 0.931,-0.29 1.166,-0.19 0.236,0.09 0.389,0.25 0.448,0.45 0.071,0.21 0.047,0.45 -0.059,0.73 -0.07,0.16 -0.212,0.34 -0.436,0.55 -0.223,0.2 -0.483,0.38 -0.777,0.54 -1.107,0.58 -2.332,0.88 -3.675,0.89 -1.343,0 -2.722,-0.28 -4.135,-0.86 -2.662,-1.08 -4.511,-2.68 -5.547,-4.79 -1.038,-2.11 -1.084,-4.34 -0.13,-6.68 z"
           id="path30"
           inkscape:connector-curvature="0" />
        <path
           style="fill:#2c2c2b;stroke:none"
           d="m 442.934,1059.36 c 0.553,-0.83 1.202,-1.56 1.932,-2.18 0.73,-0.61 1.543,-1.11 2.438,-1.5 1.437,-0.62 2.957,-0.86 4.535,-0.73 1.578,0.14 3.027,0.63 4.323,1.49 1.036,0.69 1.908,1.56 2.615,2.61 0.695,1.04 1.166,2.16 1.402,3.36 0.259,1.28 0.27,2.52 0.035,3.73 -0.247,1.2 -0.742,2.36 -1.473,3.47 -1.389,2.1 -3.191,3.29 -5.394,3.6 -2.202,0.31 -4.512,-0.34 -6.903,-1.93 -2.509,-1.65 -4.063,-3.53 -4.676,-5.63 -0.613,-2.09 -0.224,-4.19 1.166,-6.29 z m 4.464,2.52 c -1.001,1.51 -1.472,2.95 -1.414,4.31 0.06,1.36 0.637,2.4 1.708,3.12 1.119,0.73 2.286,0.88 3.499,0.43 1.225,-0.45 2.344,-1.45 3.369,-2.98 1.167,-1.77 1.779,-3.45 1.861,-5.06 0.083,-1.61 -0.389,-2.75 -1.413,-3.43 -0.507,-0.34 -1.073,-0.5 -1.697,-0.48 -0.635,0.02 -1.331,0.22 -2.084,0.6 -0.719,0.36 -1.413,0.84 -2.074,1.45 -0.671,0.6 -1.248,1.28 -1.755,2.04 z"
           id="path32"
           inkscape:connector-curvature="0" />
        <path
           style="fill:#2c2c2b;stroke:none"
           d="m 471.169,1068.8 c 0.259,0.26 0.4,0.51 0.435,0.75 0.024,0.24 -0.059,0.46 -0.271,0.67 -0.294,0.3 -0.73,0.3 -1.283,-0.01 -0.2,-0.1 -0.342,-0.16 -0.413,-0.17 -0.389,-0.08 -1.166,0.44 -2.356,1.52 -0.223,0.21 -0.412,0.38 -0.553,0.5 l -3.652,3.29 c -0.082,0.08 -0.177,0.16 -0.27,0.26 -0.095,0.09 -0.224,0.22 -0.401,0.4 -0.965,0.98 -1.461,1.87 -1.484,2.68 -0.035,0.8 0.4,1.63 1.271,2.49 0.931,0.91 1.827,1.38 2.71,1.41 0.871,0.02 1.72,-0.39 2.556,-1.25 0.212,-0.21 0.389,-0.4 0.554,-0.57 0.153,-0.16 0.295,-0.33 0.447,-0.51 l 3.263,-3.76 c 0.012,-0.02 0.024,-0.04 0.036,-0.06 1.224,-1.38 1.802,-2.26 1.731,-2.63 -0.023,-0.14 -0.071,-0.33 -0.153,-0.58 -0.165,-0.5 -0.142,-0.87 0.094,-1.11 0.188,-0.19 0.377,-0.28 0.577,-0.27 0.2,0.01 0.401,0.12 0.613,0.34 l 2.768,2.7 c 0.235,0.23 0.365,0.46 0.388,0.69 0.024,0.23 -0.058,0.44 -0.247,0.64 -0.235,0.24 -0.589,0.26 -1.072,0.08 -0.141,-0.04 -0.247,-0.08 -0.317,-0.11 -0.272,-0.09 -0.484,-0.11 -0.661,-0.07 -0.176,0.04 -0.341,0.15 -0.518,0.34 -0.07,0.06 -0.117,0.11 -0.152,0.15 -0.037,0.05 -0.072,0.09 -0.107,0.14 l -3.428,4.08 c -0.082,0.11 -0.223,0.27 -0.4,0.48 -1.096,1.28 -1.814,2.09 -2.167,2.45 -1.166,1.19 -2.45,1.69 -3.853,1.5 -1.413,-0.19 -2.92,-1.09 -4.545,-2.67 -1.85,-1.82 -2.911,-3.48 -3.158,-4.99 -0.258,-1.5 0.284,-2.93 1.602,-4.28 0.271,-0.28 0.86,-0.8 1.768,-1.56 0.4,-0.33 0.706,-0.6 0.93,-0.79 l 3.557,-2.98 c 0.106,-0.09 0.212,-0.18 0.318,-0.28 0.106,-0.09 0.224,-0.2 0.33,-0.31 0.212,-0.22 0.341,-0.4 0.377,-0.57 0.047,-0.16 0.012,-0.37 -0.083,-0.63 -0.023,-0.07 -0.058,-0.15 -0.094,-0.25 -0.211,-0.5 -0.188,-0.87 0.047,-1.11 0.177,-0.18 0.389,-0.27 0.624,-0.26 0.224,0.01 0.449,0.11 0.649,0.31 l 3.993,3.91 z"
           id="path34"
           inkscape:connector-curvature="0" />
        <path
           style="fill:#2c2c2b;stroke:none"
           d="m 478.942,1080.63 c 0.095,-0.07 0.142,-0.18 0.154,-0.35 0.011,-0.17 -0.012,-0.37 -0.071,-0.63 -0.083,-0.3 -0.094,-0.53 -0.047,-0.69 0.047,-0.15 0.153,-0.3 0.33,-0.42 0.283,-0.2 0.565,-0.25 0.825,-0.16 0.27,0.1 0.541,0.35 0.824,0.75 l 2.144,3.05 c 0.129,0.19 0.223,0.37 0.271,0.54 0.047,0.17 0.059,0.34 0.024,0.52 l -2.262,10.64 4.263,-2.99 c 0.248,-0.18 0.413,-0.34 0.507,-0.51 0.082,-0.15 0.106,-0.34 0.071,-0.54 -0.012,-0.1 -0.047,-0.22 -0.082,-0.37 -0.142,-0.57 -0.047,-0.96 0.258,-1.19 0.295,-0.2 0.566,-0.25 0.837,-0.16 0.259,0.1 0.541,0.36 0.824,0.77 l 1.709,2.42 c 0.294,0.42 0.435,0.76 0.435,1.05 0,0.27 -0.141,0.52 -0.424,0.72 -0.318,0.23 -0.718,0.17 -1.214,-0.16 -0.117,-0.08 -0.223,-0.14 -0.305,-0.19 -0.189,-0.1 -0.366,-0.14 -0.542,-0.11 -0.177,0.03 -0.389,0.13 -0.648,0.3 l -11.19,7.87 c -0.095,0.07 -0.189,0.1 -0.247,0.09 -0.071,-0.01 -0.142,-0.06 -0.212,-0.15 l -1.119,-1.61 c -0.072,-0.09 -0.095,-0.17 -0.083,-0.24 0.011,-0.07 0.071,-0.14 0.176,-0.21 l 1.32,-0.93 c 0.483,-0.34 0.836,-1 1.024,-1.97 0.025,-0.11 0.048,-0.18 0.048,-0.23 l 2.497,-11.59 -7.881,5.53 c -0.259,0.19 -0.424,0.35 -0.517,0.51 -0.095,0.16 -0.118,0.35 -0.083,0.56 0.011,0.08 0.047,0.2 0.083,0.36 0.14,0.57 0.046,0.96 -0.26,1.18 -0.306,0.21 -0.577,0.27 -0.848,0.18 -0.27,-0.1 -0.542,-0.34 -0.836,-0.76 l -1.873,-2.66 c -0.283,-0.42 -0.436,-0.76 -0.436,-1.05 0.012,-0.28 0.153,-0.53 0.448,-0.74 0.317,-0.22 0.719,-0.17 1.201,0.14 0.142,0.1 0.236,0.16 0.307,0.19 0.188,0.11 0.377,0.16 0.565,0.13 0.189,-0.02 0.412,-0.13 0.659,-0.3 l 9.376,-6.59 z"
           id="path36"
           inkscape:connector-curvature="0" />
        <path
           style="fill:#2c2c2b;stroke:none"
           d="m 478.613,1107.62 c -0.2,-0.46 -0.283,-0.82 -0.224,-1.1 0.059,-0.28 0.236,-0.49 0.553,-0.63 0.354,-0.16 0.731,-0.04 1.155,0.37 0.118,0.11 0.212,0.2 0.271,0.25 0.165,0.14 0.329,0.21 0.519,0.22 0.175,0 0.4,-0.06 0.682,-0.18 l 9.695,-4.39 c 0.4,-0.19 0.624,-0.37 0.671,-0.54 0.047,-0.19 -0.047,-0.52 -0.259,-1 -0.282,-0.61 -0.601,-1.1 -0.954,-1.45 -0.366,-0.36 -0.943,-0.73 -1.732,-1.09 -0.223,-0.11 -0.53,-0.24 -0.919,-0.39 -0.707,-0.29 -1.107,-0.53 -1.201,-0.75 -0.071,-0.15 -0.083,-0.31 -0.012,-0.45 0.059,-0.15 0.177,-0.26 0.366,-0.34 0.294,-0.14 1.754,-0.09 4.381,0.13 l 0.201,0.02 c 0.505,0.03 0.883,0.1 1.154,0.2 0.259,0.1 0.436,0.24 0.518,0.41 0.082,0.18 0.059,0.45 -0.071,0.82 -0.13,0.36 -0.105,0.73 0.071,1.12 l 3.734,8.27 c 0.188,0.4 0.447,0.72 0.789,0.96 0.342,0.23 0.542,0.39 0.577,0.49 0.142,0.3 -0.058,0.8 -0.612,1.48 -0.107,0.12 -0.189,0.22 -0.247,0.31 -0.789,0.98 -1.391,1.7 -1.815,2.16 -0.435,0.46 -0.742,0.74 -0.942,0.83 -0.165,0.07 -0.317,0.07 -0.483,0 -0.164,-0.07 -0.294,-0.19 -0.365,-0.36 -0.106,-0.22 -0.047,-0.59 0.154,-1.11 0.082,-0.19 0.14,-0.33 0.176,-0.45 0.377,-1.08 0.578,-1.94 0.589,-2.56 0.012,-0.62 -0.118,-1.25 -0.412,-1.88 -0.236,-0.54 -0.472,-0.88 -0.683,-1 -0.212,-0.12 -0.507,-0.1 -0.884,0.07 l -9.706,4.4 c -0.271,0.13 -0.471,0.25 -0.589,0.4 -0.117,0.14 -0.177,0.33 -0.177,0.56 0,0.08 0,0.2 0.012,0.35 0.024,0.58 -0.141,0.94 -0.483,1.1 -0.318,0.14 -0.6,0.14 -0.848,0 -0.247,-0.14 -0.471,-0.44 -0.671,-0.9 l -1.979,-4.35 z"
           id="path38"
           inkscape:connector-curvature="0" />
        <path
           style="fill:#2c2c2b;stroke:none"
           d="m 491.369,1122.98 c 1.861,-2.24 3.758,-4.45 5.701,-6.62 0.377,-0.43 0.602,-0.69 0.672,-0.77 0.212,-0.26 0.365,-0.49 0.448,-0.68 0.082,-0.18 0.141,-0.41 0.176,-0.67 0.035,-0.32 0.095,-0.54 0.189,-0.65 0.083,-0.11 0.223,-0.18 0.412,-0.23 0.26,-0.06 0.483,-0.01 0.66,0.15 0.188,0.15 0.317,0.41 0.4,0.76 l 1.39,5.77 c 0.083,0.36 0.083,0.65 -0.012,0.86 -0.082,0.21 -0.247,0.35 -0.507,0.4 -0.329,0.08 -0.635,-0.05 -0.941,-0.41 -0.307,-0.36 -0.53,-0.52 -0.66,-0.49 -0.189,0.04 -0.519,0.34 -1.013,0.88 -0.483,0.54 -1.496,1.77 -3.015,3.68 1.637,0.77 2.944,1.34 3.898,1.72 0.966,0.37 1.556,0.53 1.768,0.48 0.105,-0.03 0.247,-0.25 0.435,-0.66 0.177,-0.41 0.424,-0.65 0.719,-0.72 0.212,-0.05 0.4,-0.01 0.554,0.15 0.152,0.14 0.27,0.39 0.34,0.71 l 0.943,3.95 c 0.083,0.34 0.083,0.62 0,0.84 -0.082,0.22 -0.247,0.35 -0.483,0.41 -0.165,0.04 -0.318,0.03 -0.448,-0.02 -0.117,-0.06 -0.259,-0.17 -0.389,-0.35 -0.023,-0.03 -0.082,-0.11 -0.164,-0.24 -0.083,-0.13 -0.165,-0.24 -0.248,-0.33 -0.105,-0.1 -0.329,-0.23 -0.682,-0.37 -0.165,-0.06 -0.284,-0.1 -0.354,-0.13 -0.058,-0.03 -0.2,-0.09 -0.435,-0.18 -2.38,-0.92 -4.877,-1.97 -7.504,-3.14 l -4.311,1.04 c -0.295,0.06 -0.507,0.16 -0.636,0.27 -0.142,0.11 -0.224,0.28 -0.271,0.49 -0.023,0.07 -0.035,0.19 -0.06,0.36 -0.082,0.58 -0.305,0.91 -0.682,1 -0.342,0.08 -0.612,0.03 -0.824,-0.16 -0.213,-0.19 -0.389,-0.52 -0.495,-1.01 l -1.143,-4.76 c -0.118,-0.49 -0.118,-0.86 -0.012,-1.13 0.106,-0.26 0.33,-0.43 0.659,-0.51 0.377,-0.09 0.731,0.1 1.061,0.58 0.094,0.14 0.177,0.24 0.223,0.3 0.13,0.17 0.284,0.27 0.461,0.32 0.164,0.03 0.4,0.02 0.694,-0.05 l 3.486,-0.84 z"
           id="path40"
           inkscape:connector-curvature="0" />
      </g>
      <g
         id="g42">
        <path
           style="fill:#2c2c2b;stroke:none"
           d="m 317.981,1222.19 9.601,-6.65 c 0,0 0.023,-0.03 0.047,-0.03 0.27,-0.19 0.447,-0.33 0.541,-0.44 0.106,-0.12 0.083,-0.43 -0.082,-0.9 -0.165,-0.48 -0.13,-0.85 0.095,-1.11 0.152,-0.17 0.341,-0.24 0.565,-0.21 0.224,0.02 0.482,0.17 0.753,0.4 l 3.428,2.97 c 0.224,0.2 0.354,0.4 0.389,0.61 0.024,0.21 -0.059,0.43 -0.247,0.64 -0.177,0.21 -0.507,0.29 -0.978,0.26 -0.471,-0.03 -0.789,0.04 -0.942,0.23 -0.071,0.1 -0.142,0.18 -0.189,0.29 -0.059,0.1 -0.106,0.23 -0.141,0.37 l -1.755,5.59 c -0.059,0.21 -0.153,0.47 -0.283,0.75 -0.118,0.28 -0.294,0.64 -0.494,1.06 0.364,-0.25 0.706,-0.46 1.001,-0.64 0.294,-0.16 0.577,-0.3 0.836,-0.41 l 5.277,-2.33 c 0.236,-0.11 0.4,-0.2 0.53,-0.27 0.129,-0.08 0.224,-0.17 0.306,-0.26 0.106,-0.12 0.083,-0.41 -0.059,-0.87 -0.153,-0.45 -0.118,-0.79 0.071,-1.02 0.189,-0.21 0.4,-0.3 0.636,-0.3 0.236,0.02 0.495,0.16 0.778,0.4 l 3.18,2.76 c 0.294,0.25 0.471,0.49 0.518,0.73 0.059,0.22 -0.011,0.44 -0.188,0.64 -0.094,0.11 -0.224,0.2 -0.377,0.25 -0.165,0.06 -0.306,0.08 -0.436,0.07 -0.047,-0.02 -0.118,-0.02 -0.212,-0.05 -0.542,-0.11 -0.931,-0.04 -1.143,0.22 -0.047,0.04 -0.117,0.15 -0.212,0.3 -0.035,0.07 -0.059,0.12 -0.082,0.17 l -5.265,9.83 c -0.142,0.27 -0.224,0.51 -0.248,0.76 -0.011,0.24 0.035,0.49 0.153,0.76 0.012,0.04 0.047,0.12 0.095,0.21 0.188,0.45 0.164,0.82 -0.083,1.11 -0.176,0.19 -0.4,0.28 -0.671,0.28 -0.283,-0.02 -0.542,-0.11 -0.766,-0.33 l -3.863,-3.33 c -0.224,-0.2 -0.342,-0.41 -0.377,-0.63 -0.024,-0.24 0.047,-0.46 0.224,-0.65 0.235,-0.27 0.577,-0.38 1.06,-0.33 0.471,0.04 0.754,0.02 0.836,-0.07 0.047,-0.07 0.106,-0.14 0.165,-0.25 0.07,-0.11 0.141,-0.21 0.212,-0.34 l 2.733,-5.02 c 0.105,-0.16 0.235,-0.38 0.412,-0.64 0.165,-0.23 0.353,-0.48 0.565,-0.73 -0.188,0.12 -0.389,0.25 -0.601,0.38 -0.212,0.12 -0.471,0.25 -0.765,0.39 l -7.857,3.54 -0.024,0.02 c -0.647,0.27 -1.071,0.31 -1.272,0.15 -0.141,-0.13 -0.211,-0.28 -0.223,-0.5 0,-0.18 0.058,-0.51 0.2,-0.96 l 2.532,-8.03 c 0.083,-0.27 0.177,-0.53 0.295,-0.78 0.106,-0.25 0.224,-0.47 0.353,-0.68 -0.188,0.2 -0.388,0.37 -0.6,0.55 -0.201,0.18 -0.401,0.33 -0.589,0.46 l -4.959,3.44 c -0.154,0.1 -0.271,0.19 -0.365,0.27 -0.106,0.08 -0.166,0.13 -0.201,0.16 -0.117,0.13 -0.117,0.42 -0.011,0.84 0.117,0.42 0.07,0.75 -0.13,0.99 -0.177,0.2 -0.389,0.31 -0.624,0.29 -0.248,0 -0.483,-0.1 -0.731,-0.31 l -2.791,-2.43 c -0.212,-0.18 -0.342,-0.39 -0.377,-0.64 -0.036,-0.24 0.023,-0.47 0.177,-0.64 0.176,-0.21 0.365,-0.32 0.565,-0.37 0.212,-0.02 0.483,0.02 0.836,0.14 0.024,0.02 0.059,0.02 0.094,0.05 0.424,0.13 0.801,0.07 1.154,-0.18 z"
           id="path44"
           inkscape:connector-curvature="0" />
        <path
           style="fill:#2c2c2b;stroke:none"
           d="m 338.183,1241.99 c -0.295,-0.15 -0.483,-0.33 -0.578,-0.56 -0.082,-0.22 -0.07,-0.46 0.071,-0.73 0.212,-0.43 0.636,-0.59 1.26,-0.5 0.154,0.03 0.271,0.05 0.354,0.05 0.259,0.02 0.542,-0.05 0.848,-0.19 0.306,-0.14 0.777,-0.47 1.414,-0.97 l 10.577,-8.41 c 0.059,-0.04 0.13,-0.09 0.201,-0.16 0.306,-0.24 0.671,-0.26 1.095,-0.05 l 1.849,0.95 c 0.295,0.15 0.472,0.28 0.519,0.4 0.047,0.11 0.047,0.4 -0.012,0.83 l -1.485,12.88 c 0,0.04 -0.011,0.1 -0.023,0.18 -0.141,1.19 -0.023,2.03 0.365,2.53 0.024,0.03 0.071,0.08 0.118,0.14 0.389,0.44 0.471,0.86 0.283,1.25 -0.13,0.24 -0.295,0.38 -0.495,0.42 -0.212,0.05 -0.483,-0.02 -0.837,-0.21 l -4.758,-2.41 c -0.448,-0.22 -0.73,-0.44 -0.837,-0.66 -0.106,-0.2 -0.082,-0.44 0.071,-0.75 0.083,-0.16 0.2,-0.28 0.354,-0.36 0.153,-0.09 0.317,-0.12 0.518,-0.11 0.07,0 0.153,0 0.259,0.02 0.33,0.05 0.554,-0.06 0.683,-0.3 0.071,-0.16 0.13,-0.42 0.177,-0.78 0.047,-0.37 0.047,-0.67 0,-0.92 -0.059,-0.35 -0.177,-0.64 -0.354,-0.85 -0.176,-0.23 -0.483,-0.44 -0.906,-0.66 l -2.521,-1.27 c -0.389,-0.21 -0.754,-0.34 -1.072,-0.41 -0.318,-0.07 -0.601,-0.08 -0.824,-0.01 -0.295,0.09 -0.613,0.28 -0.978,0.56 -0.354,0.3 -0.601,0.57 -0.719,0.82 -0.094,0.17 -0.023,0.41 0.2,0.69 0.024,0.02 0.036,0.05 0.036,0.07 0.188,0.21 0.306,0.42 0.341,0.59 0.047,0.19 0.024,0.35 -0.07,0.53 -0.118,0.25 -0.295,0.39 -0.518,0.44 -0.236,0.04 -0.483,0 -0.766,-0.15 l -3.84,-1.93 z m 9.117,-4.26 c -0.083,0.07 -0.142,0.14 -0.189,0.19 -0.046,0.07 -0.082,0.11 -0.106,0.15 -0.094,0.2 -0.07,0.39 0.095,0.55 0.153,0.17 0.518,0.4 1.071,0.69 0.719,0.36 1.308,0.59 1.768,0.7 0.458,0.1 0.729,0.07 0.824,-0.09 0.035,-0.08 0.059,-0.17 0.082,-0.24 0.024,-0.09 0.036,-0.18 0.059,-0.33 l 0.53,-4.33 c 0.012,-0.14 0.012,-0.26 -0.012,-0.34 -0.011,-0.1 -0.047,-0.16 -0.094,-0.18 -0.058,-0.02 -0.141,-0.02 -0.235,0 -0.094,0.05 -0.189,0.11 -0.295,0.19 l -3.498,3.04 z"
           id="path46"
           inkscape:connector-curvature="0" />
        <path
           style="fill:#2c2c2b;stroke:none"
           d="m 365.852,1250.47 c -0.082,0.3 -0.094,0.53 -0.047,0.71 0.035,0.19 0.141,0.35 0.306,0.49 0.059,0.05 0.165,0.12 0.294,0.22 0.46,0.34 0.648,0.7 0.554,1.07 -0.094,0.34 -0.271,0.55 -0.53,0.65 -0.271,0.1 -0.648,0.09 -1.131,-0.04 l -4.629,-1.2 c -0.483,-0.13 -0.824,-0.29 -1.001,-0.52 -0.189,-0.22 -0.236,-0.49 -0.142,-0.84 0.095,-0.36 0.436,-0.58 1.025,-0.65 0.165,-0.02 0.283,-0.03 0.366,-0.05 0.2,-0.05 0.365,-0.13 0.482,-0.26 0.13,-0.14 0.224,-0.35 0.295,-0.66 l 2.745,-10.53 c 0.082,-0.28 0.105,-0.52 0.058,-0.71 -0.035,-0.16 -0.141,-0.33 -0.294,-0.47 -0.059,-0.05 -0.153,-0.12 -0.295,-0.21 -0.483,-0.35 -0.671,-0.71 -0.577,-1.08 0.094,-0.35 0.271,-0.57 0.53,-0.66 0.271,-0.1 0.648,-0.09 1.131,0.04 l 5.772,1.51 c 1.59,0.4 2.885,0.87 3.863,1.37 0.99,0.52 1.826,1.13 2.521,1.86 0.86,0.89 1.449,1.86 1.779,2.9 0.329,1.06 0.377,2.07 0.117,3.05 -0.294,1.1 -0.871,1.94 -1.743,2.53 -0.871,0.58 -2.026,0.88 -3.451,0.91 l 1.519,3.11 c 0,0.01 0.012,0.03 0.024,0.07 0.412,0.8 0.824,1.34 1.249,1.62 0.294,0.2 0.471,0.37 0.553,0.53 0.082,0.14 0.106,0.33 0.047,0.52 -0.071,0.28 -0.235,0.47 -0.483,0.57 -0.259,0.09 -0.577,0.09 -0.966,0 l -5.524,-1.45 c -0.318,-0.09 -0.53,-0.23 -0.671,-0.42 -0.13,-0.18 -0.165,-0.4 -0.095,-0.65 0.106,-0.43 0.389,-0.69 0.825,-0.76 0.447,-0.09 0.672,-0.14 0.672,-0.14 0.035,-0.14 -0.06,-0.44 -0.295,-0.91 -0.224,-0.47 -0.648,-1.22 -1.261,-2.27 -0.117,-0.02 -0.235,-0.05 -0.353,-0.07 -0.106,-0.02 -0.282,-0.07 -0.495,-0.12 -0.341,-0.09 -0.695,-0.21 -1.06,-0.33 -0.353,-0.14 -0.541,-0.2 -0.565,-0.21 -0.224,-0.05 -0.412,-0.04 -0.566,0.06 -0.141,0.09 -0.247,0.26 -0.318,0.49 l -0.235,0.93 z m 1.449,-5.58 c -0.212,0.82 -0.212,1.4 0,1.74 0.2,0.33 0.718,0.62 1.543,0.83 1.354,0.35 2.485,0.29 3.38,-0.19 0.907,-0.47 1.52,-1.33 1.838,-2.59 0.341,-1.27 0.224,-2.36 -0.318,-3.28 -0.554,-0.89 -1.484,-1.53 -2.815,-1.87 -0.802,-0.2 -1.379,-0.25 -1.72,-0.13 -0.354,0.13 -0.589,0.46 -0.731,0.99 l -1.177,4.5 z"
           id="path48"
           inkscape:connector-curvature="0" />
        <path
           style="fill:#2c2c2b;stroke:none"
           d="m 388.55,1250.87 c -1.625,-2.4 -3.215,-4.85 -4.747,-7.32 -0.306,-0.5 -0.494,-0.78 -0.553,-0.87 -0.189,-0.28 -0.366,-0.48 -0.519,-0.62 -0.153,-0.14 -0.353,-0.26 -0.589,-0.35 -0.306,-0.14 -0.495,-0.26 -0.577,-0.37 -0.083,-0.11 -0.118,-0.27 -0.106,-0.46 0.012,-0.28 0.118,-0.47 0.33,-0.61 0.2,-0.11 0.483,-0.17 0.848,-0.16 l 5.925,0.3 c 0.365,0.03 0.636,0.1 0.813,0.25 0.176,0.14 0.259,0.34 0.247,0.6 -0.012,0.33 -0.236,0.6 -0.66,0.79 -0.424,0.2 -0.647,0.37 -0.647,0.51 -0.012,0.19 0.164,0.59 0.553,1.2 0.377,0.62 1.272,1.93 2.686,3.93 1.201,-1.35 2.108,-2.43 2.733,-3.25 0.635,-0.82 0.954,-1.34 0.965,-1.55 0,-0.12 -0.165,-0.32 -0.506,-0.61 -0.342,-0.29 -0.507,-0.59 -0.495,-0.9 0.012,-0.21 0.118,-0.38 0.295,-0.48 0.188,-0.11 0.447,-0.16 0.789,-0.13 l 4.052,0.21 c 0.353,0.01 0.612,0.09 0.801,0.23 0.188,0.15 0.271,0.34 0.259,0.58 -0.012,0.18 -0.059,0.32 -0.141,0.41 -0.095,0.12 -0.236,0.22 -0.448,0.29 -0.036,0.02 -0.118,0.04 -0.271,0.09 -0.153,0.05 -0.282,0.1 -0.389,0.14 -0.13,0.07 -0.305,0.26 -0.542,0.57 -0.105,0.13 -0.188,0.23 -0.235,0.28 -0.035,0.05 -0.142,0.18 -0.282,0.38 -1.567,2.02 -3.275,4.12 -5.125,6.31 l -0.235,4.43 c -0.012,0.31 0.011,0.53 0.082,0.68 0.071,0.17 0.2,0.31 0.401,0.4 0.059,0.05 0.177,0.1 0.33,0.17 0.53,0.23 0.789,0.54 0.765,0.93 -0.024,0.34 -0.153,0.6 -0.389,0.74 -0.235,0.17 -0.612,0.23 -1.107,0.2 l -4.888,-0.25 c -0.495,-0.02 -0.86,-0.13 -1.084,-0.3 -0.224,-0.18 -0.329,-0.45 -0.306,-0.78 0.012,-0.4 0.306,-0.68 0.86,-0.86 0.153,-0.06 0.271,-0.09 0.342,-0.13 0.2,-0.07 0.341,-0.19 0.435,-0.35 0.083,-0.14 0.13,-0.38 0.154,-0.67 l 0.176,-3.6 z"
           id="path50"
           inkscape:connector-curvature="0" />
        <path
           style="fill:#2c2c2b;stroke:none"
           d="m 404.864,1257.61 c -0.495,0.07 -0.872,0.04 -1.119,-0.09 -0.259,-0.14 -0.4,-0.38 -0.447,-0.71 -0.06,-0.39 0.177,-0.73 0.694,-1.01 0.142,-0.07 0.26,-0.14 0.318,-0.18 0.189,-0.13 0.307,-0.27 0.354,-0.44 0.059,-0.16 0.07,-0.4 0.035,-0.68 l -1.472,-10.81 c -0.047,-0.31 -0.118,-0.53 -0.224,-0.68 -0.106,-0.15 -0.247,-0.26 -0.447,-0.32 -0.083,-0.03 -0.201,-0.06 -0.366,-0.1 -0.565,-0.13 -0.883,-0.39 -0.93,-0.77 -0.047,-0.35 0.023,-0.63 0.235,-0.82 0.212,-0.19 0.565,-0.32 1.061,-0.37 l 4.735,-0.66 c 0.506,-0.07 0.871,-0.03 1.131,0.09 0.247,0.13 0.4,0.38 0.447,0.72 0.047,0.39 -0.177,0.72 -0.684,1 -0.14,0.07 -0.246,0.14 -0.317,0.19 -0.177,0.12 -0.295,0.26 -0.365,0.43 -0.06,0.18 -0.071,0.42 -0.036,0.71 l 1.426,10.45 c 0.047,0.33 0.165,0.58 0.365,0.73 0.2,0.14 0.459,0.2 0.777,0.16 l 2.509,-0.35 c 0.648,-0.08 1.226,-0.25 1.731,-0.48 0.519,-0.24 1.014,-0.58 1.508,-1 0.177,-0.17 0.424,-0.38 0.719,-0.66 0.554,-0.54 0.954,-0.83 1.213,-0.86 0.188,-0.04 0.365,0.01 0.507,0.13 0.153,0.11 0.235,0.28 0.258,0.49 0.024,0.12 0.012,0.26 -0.011,0.4 -0.035,0.13 -0.106,0.31 -0.224,0.56 l -1.508,3.41 c -0.165,0.38 -0.305,0.63 -0.423,0.77 -0.13,0.13 -0.284,0.21 -0.461,0.23 -0.14,0.03 -0.412,-0.11 -0.812,-0.37 -0.4,-0.27 -0.801,-0.38 -1.213,-0.33 l -8.964,1.22 z"
           id="path52"
           inkscape:connector-curvature="0" />
        <path
           style="fill:#2c2c2b;stroke:none"
           d="m 422.78,1254.83 c -0.318,0.11 -0.577,0.12 -0.801,0.03 -0.224,-0.1 -0.376,-0.29 -0.483,-0.57 -0.153,-0.45 0.024,-0.87 0.53,-1.25 0.13,-0.09 0.224,-0.16 0.283,-0.21 0.2,-0.18 0.353,-0.42 0.46,-0.74 0.117,-0.32 0.211,-0.89 0.305,-1.69 l 1.426,-13.44 c 0.012,-0.07 0.012,-0.15 0.023,-0.26 0.036,-0.39 0.283,-0.64 0.731,-0.81 l 1.967,-0.66 c 0.318,-0.09 0.542,-0.14 0.66,-0.08 0.117,0.05 0.305,0.25 0.577,0.59 l 8.139,10.09 c 0.023,0.03 0.071,0.07 0.13,0.14 0.73,0.95 1.413,1.44 2.038,1.51 0.046,0.01 0.105,0.01 0.188,0.01 0.577,0.04 0.943,0.27 1.083,0.68 0.095,0.28 0.071,0.49 -0.035,0.65 -0.118,0.18 -0.365,0.33 -0.742,0.45 l -5.053,1.71 c -0.472,0.15 -0.825,0.2 -1.049,0.13 -0.223,-0.07 -0.388,-0.26 -0.494,-0.58 -0.06,-0.17 -0.06,-0.34 -0.012,-0.5 0.047,-0.17 0.141,-0.31 0.294,-0.45 0.047,-0.05 0.107,-0.1 0.189,-0.17 0.259,-0.2 0.353,-0.43 0.259,-0.7 -0.059,-0.16 -0.201,-0.38 -0.424,-0.66 -0.224,-0.3 -0.447,-0.51 -0.659,-0.66 -0.284,-0.19 -0.578,-0.31 -0.861,-0.33 -0.282,-0.04 -0.647,0.02 -1.107,0.17 l -2.662,0.91 c -0.424,0.14 -0.778,0.3 -1.048,0.47 -0.271,0.19 -0.471,0.38 -0.589,0.59 -0.142,0.26 -0.224,0.64 -0.271,1.09 -0.047,0.45 -0.024,0.82 0.071,1.08 0.058,0.2 0.27,0.32 0.635,0.35 0.036,0 0.059,0.01 0.072,0.01 0.294,0.03 0.517,0.09 0.671,0.18 0.153,0.1 0.258,0.24 0.318,0.42 0.082,0.26 0.07,0.48 -0.06,0.69 -0.117,0.19 -0.329,0.34 -0.624,0.44 l -4.075,1.37 z m 3.357,-9.48 c -0.012,0.11 -0.012,0.2 0,0.27 0.011,0.07 0.024,0.13 0.036,0.18 0.07,0.2 0.224,0.32 0.459,0.32 0.235,0.01 0.647,-0.09 1.236,-0.29 0.767,-0.26 1.344,-0.52 1.744,-0.76 0.401,-0.25 0.566,-0.47 0.506,-0.65 -0.023,-0.08 -0.058,-0.17 -0.105,-0.24 -0.048,-0.07 -0.118,-0.16 -0.201,-0.26 l -2.721,-3.41 c -0.082,-0.12 -0.164,-0.19 -0.247,-0.24 -0.071,-0.06 -0.142,-0.07 -0.177,-0.07 -0.07,0.03 -0.13,0.1 -0.165,0.19 -0.047,0.09 -0.07,0.2 -0.07,0.33 l -0.295,4.63 z"
           id="path54"
           inkscape:connector-curvature="0" />
        <path
           style="fill:#2c2c2b;stroke:none"
           d="m 438.34,1233.49 c -0.059,-0.1 -0.164,-0.15 -0.329,-0.18 -0.165,-0.03 -0.377,-0.01 -0.637,0.03 -0.306,0.05 -0.542,0.05 -0.694,-0.02 -0.154,-0.04 -0.283,-0.16 -0.389,-0.35 -0.177,-0.31 -0.212,-0.59 -0.095,-0.85 0.119,-0.25 0.389,-0.5 0.813,-0.75 l 3.192,-1.91 c 0.2,-0.12 0.377,-0.19 0.554,-0.24 0.177,-0.02 0.353,-0.02 0.53,0.03 l 10.437,3.05 -2.662,-4.48 c -0.154,-0.26 -0.307,-0.43 -0.46,-0.53 -0.154,-0.1 -0.342,-0.14 -0.554,-0.13 -0.094,0.01 -0.212,0.04 -0.365,0.06 -0.578,0.1 -0.966,-0.02 -1.166,-0.35 -0.177,-0.31 -0.212,-0.59 -0.094,-0.84 0.117,-0.26 0.389,-0.52 0.824,-0.76 l 2.544,-1.54 c 0.437,-0.25 0.79,-0.37 1.072,-0.35 0.284,0.03 0.519,0.19 0.696,0.48 0.2,0.35 0.117,0.73 -0.248,1.19 -0.094,0.12 -0.164,0.22 -0.212,0.3 -0.118,0.18 -0.177,0.36 -0.154,0.54 0.013,0.18 0.095,0.39 0.248,0.66 l 7.009,11.74 c 0.059,0.12 0.082,0.2 0.071,0.26 -0.012,0.07 -0.071,0.14 -0.166,0.2 l -1.684,1 c -0.106,0.06 -0.189,0.09 -0.247,0.06 -0.071,-0.01 -0.142,-0.08 -0.2,-0.18 l -0.825,-1.38 c -0.306,-0.52 -0.942,-0.92 -1.896,-1.18 -0.106,-0.04 -0.177,-0.06 -0.213,-0.07 l -11.378,-3.35 4.924,8.27 c 0.164,0.26 0.317,0.45 0.471,0.54 0.153,0.12 0.33,0.16 0.553,0.13 0.071,-0.01 0.2,-0.02 0.366,-0.06 0.577,-0.09 0.954,0.03 1.154,0.36 0.188,0.32 0.223,0.6 0.118,0.86 -0.118,0.26 -0.389,0.5 -0.825,0.76 l -2.803,1.68 c -0.425,0.25 -0.79,0.37 -1.072,0.35 -0.283,-0.02 -0.519,-0.19 -0.695,-0.5 -0.201,-0.33 -0.118,-0.73 0.223,-1.17 0.107,-0.15 0.177,-0.24 0.213,-0.3 0.129,-0.17 0.189,-0.36 0.176,-0.55 -0.012,-0.19 -0.094,-0.43 -0.259,-0.68 l -5.866,-9.85 z"
           id="path56"
           inkscape:connector-curvature="0" />
        <path
           style="fill:#2c2c2b;stroke:none"
           d="m 463.018,1231.23 -7.374,-8.01 c -0.212,-0.21 -0.401,-0.37 -0.566,-0.43 -0.165,-0.07 -0.353,-0.07 -0.565,-0.01 -0.082,0.04 -0.189,0.06 -0.33,0.13 -0.553,0.21 -0.955,0.18 -1.213,-0.11 -0.247,-0.25 -0.33,-0.53 -0.271,-0.81 0.059,-0.26 0.282,-0.58 0.648,-0.92 l 2.485,-2.28 c 1.226,-1.13 2.403,-2 3.558,-2.64 1.142,-0.64 2.308,-1.06 3.498,-1.27 1.802,-0.31 3.474,-0.26 5.017,0.19 1.544,0.44 2.851,1.27 3.923,2.43 1.567,1.69 2.155,3.57 1.802,5.62 -0.364,2.06 -1.672,4.13 -3.91,6.2 l -4.759,4.38 c -0.365,0.33 -0.695,0.52 -0.978,0.55 -0.283,0.04 -0.542,-0.07 -0.765,-0.31 -0.272,-0.29 -0.272,-0.7 -0.012,-1.23 0.07,-0.14 0.117,-0.25 0.153,-0.33 0.082,-0.2 0.094,-0.39 0.047,-0.56 -0.058,-0.17 -0.188,-0.37 -0.388,-0.59 z m 2.72,-3.36 c 0.365,0.4 0.672,0.6 0.931,0.62 0.259,0.03 0.565,-0.14 0.907,-0.47 1.236,-1.13 1.86,-2.38 1.885,-3.74 0.012,-1.35 -0.59,-2.69 -1.791,-4 -1.284,-1.4 -2.709,-2.22 -4.275,-2.47 -1.567,-0.26 -2.874,0.09 -3.912,1.06 -0.4,0.37 -0.612,0.7 -0.635,1 -0.036,0.32 0.118,0.65 0.447,1.01 l 6.443,6.99 z"
           id="path58"
           inkscape:connector-curvature="0" />
      </g>
      <g
         id="g60">
        <g
           id="g62">
          <g
             id="g64">
            <path
               style="fill:#e4312a;stroke:#e4312a;stroke-width:2.18943"
               d="m 470.897,1105.9 c -7.562,-13.54 -18.563,-24.79 -31.968,-32.57 l 0,32.57 31.968,0 z"
               id="path66"
               inkscape:connector-curvature="0" />
            <path
               style="fill:#e4312a;stroke:#e4312a;stroke-width:2.18943"
               d="m 409.435,1105.9 0,31.84 29.494,0 0,-31.84 -29.494,0 z"
               id="path68"
               inkscape:connector-curvature="0" />
          </g>
          <path
             style="fill:none;stroke:#e4312a;stroke-width:3.01543999"
             d="m 481.451,1137.74 c -4.44,-38.43 -34.099,-69.08 -72.016,-75.12 l 0,75.12 72.016,0 z"
             id="path70"
             inkscape:connector-curvature="0" />
          <g
             id="g72">
            <g
               id="g74">
              <path
                 style="fill:#ffffff;stroke:none"
                 d="m 439.73,1136.8 c -2.296,0 -4.146,-2.03 -4.146,-4.53 l 0,-2.27 -4.052,0 c -2.32,0 -4.181,-2.02 -4.181,-4.52 0,-2.5 1.861,-4.52 4.181,-4.52 l 4.052,0 0,-10.05 -9.977,0 0,4.38 c 0,2.5 -1.861,4.52 -4.169,4.52 -2.297,0 -4.182,-2.02 -4.182,-4.52 l 0,-4.38 -3.652,0 c -2.296,0 -4.169,-2.03 -4.169,-4.53 l 30.295,0 0,30.42 z"
                 id="path76"
                 inkscape:connector-curvature="0" />
              <path
                 style="fill:#e4312a;stroke:none"
                 d="m 439.73,1075.95 c -2.296,0 -4.146,2.04 -4.146,4.55 l 0,2.26 -4.052,0 c -2.32,0 -4.181,2.02 -4.181,4.51 0,2.51 1.861,4.53 4.181,4.53 l 4.052,0 0,10.05 -9.977,0 0,-4.38 c 0,-2.5 -1.861,-4.52 -4.169,-4.52 -2.297,0 -4.182,2.02 -4.182,4.52 l 0,4.38 -3.652,0 c -2.296,0 -4.169,2.03 -4.169,4.53 l 30.295,0 0,-30.43 z"
                 id="path78"
                 inkscape:connector-curvature="0" />
            </g>
            <g
               id="g80">
              <path
                 style="fill:#ffffff;stroke:none"
                 d="m 439.73,1075.96 c 2.297,0 4.146,2.03 4.146,4.53 l 0,2.27 4.053,0 c 2.32,0 4.181,2.02 4.181,4.52 0,2.5 -1.861,4.52 -4.181,4.52 l -4.053,0 0,10.05 9.989,0 0,-4.38 c 0,-2.5 1.85,-4.52 4.158,-4.52 2.297,0 4.182,2.02 4.182,4.52 l 0,4.38 3.651,0 c 2.297,0 4.17,2.03 4.17,4.53 l -30.296,0 0,-30.42 z"
                 id="path82"
                 inkscape:connector-curvature="0" />
              <path
                 style="fill:#e4312a;stroke:none"
                 d="m 439.73,1136.81 c 2.297,0 4.146,-2.04 4.146,-4.55 l 0,-2.26 4.053,0 c 2.32,0 4.181,-2.02 4.181,-4.51 0,-2.51 -1.861,-4.53 -4.181,-4.53 l -4.053,0 0,-10.05 9.989,0 0,4.38 c 0,2.5 1.85,4.52 4.158,4.52 2.297,0 4.182,-2.02 4.182,-4.52 l 0,-4.38 3.651,0 c 2.297,0 4.17,-2.03 4.17,-4.53 l -30.296,0 0,30.43 z"
                 id="path84"
                 inkscape:connector-curvature="0" />
            </g>
          </g>
          <path
             style="fill:#2c2c2b;stroke:#2c2c2b;stroke-width:3.01543999"
             d="m 374.663,1064.45 c -2.333,0.59 -4.7,1.05 -6.95,1.82 -3.687,1.27 -7.233,2.84 -10.672,4.57 -2.332,1.18 -4.511,2.58 -6.714,3.95 -3.333,2.08 -6.514,4.32 -9.517,6.82 -0.813,0.68 -1.579,1.39 -2.356,2.09 -2.898,2.6 -5.619,5.35 -8.139,8.32 -10.802,12.65 -18.188,28.3 -20.202,45.72 l 28.341,0 11.873,0 6.714,0 10.672,0 6.95,0 4.334,0 3.133,0 0,-16.47 0,-58.65 c -2.568,0.41 -4.982,1.2 -7.467,1.83 z"
             id="path86"
             inkscape:connector-curvature="0" />
          <g
             id="g88">
            <path
               style="fill:#f9b330;stroke:none"
               d="m 357.041,1070.84 c -2.332,1.18 -4.511,2.58 -6.714,3.95 l 0,15.96 6.714,6.44 0,-26.35 z"
               id="path90"
               inkscape:connector-curvature="0" />
            <path
               style="fill:#f9b330;stroke:none"
               d="m 357.041,1097.19 0,19.93 10.672,10.02 0,-19.71 -10.672,-10.24 z"
               id="path92"
               inkscape:connector-curvature="0" />
            <path
               style="fill:#f9b330;stroke:none"
               d="m 374.663,1064.45 c -2.333,0.59 -4.7,1.05 -6.95,1.82 l 0,41.16 6.95,6.68 0,-49.66 z"
               id="path94"
               inkscape:connector-curvature="0" />
            <path
               style="fill:#f9b330;stroke:none"
               d="m 367.713,1137.74 6.95,0 0,-4.07 -6.95,-6.53 0,10.6 z"
               id="path96"
               inkscape:connector-curvature="0" />
            <path
               style="fill:#f9b330;stroke:none"
               d="m 340.81,1081.61 c -0.813,0.68 -1.579,1.39 -2.356,2.09 l 0,15.96 11.873,11.15 0,-20.06 -9.517,-9.14 z"
               id="path98"
               inkscape:connector-curvature="0" />
            <path
               style="fill:#f9b330;stroke:none"
               d="m 374.663,1114.11 0,19.56 4.334,4.07 3.133,0 0,-16.47 -7.467,-7.16 z"
               id="path100"
               inkscape:connector-curvature="0" />
            <path
               style="fill:#f9b330;stroke:none"
               d="m 350.327,1137.74 6.714,0 0,-20.62 -6.714,-6.31 0,26.93 z"
               id="path102"
               inkscape:connector-curvature="0" />
            <path
               style="fill:#f9b330;stroke:none"
               d="m 310.113,1137.74 28.341,0 0,-38.08 -8.139,-7.64 c -10.802,12.65 -18.188,28.3 -20.202,45.72 z"
               id="path104"
               inkscape:connector-curvature="0" />
          </g>
          <g
             id="g106">
            <path
               style="fill:#2c2c2b;stroke:none"
               d="m 367.713,1107.43 0,-41.16 c -3.687,1.27 -7.233,2.84 -10.672,4.57 l 0,26.35 10.672,10.24 z"
               id="path108"
               inkscape:connector-curvature="0" />
            <path
               style="fill:#2c2c2b;stroke:none"
               d="m 367.713,1127.14 6.95,6.53 0,-19.56 -6.95,-6.68 0,19.71 z"
               id="path110"
               inkscape:connector-curvature="0" />
            <path
               style="fill:#2c2c2b;stroke:none"
               d="m 350.327,1074.79 c -3.333,2.08 -6.514,4.32 -9.517,6.82 l 9.517,9.14 0,-15.96 z"
               id="path112"
               inkscape:connector-curvature="0" />
            <path
               style="fill:#2c2c2b;stroke:none"
               d="m 382.13,1121.27 0,-58.65 c -2.568,0.41 -4.982,1.2 -7.467,1.83 l 0,49.66 7.467,7.16 z"
               id="path114"
               inkscape:connector-curvature="0" />
            <path
               style="fill:#2c2c2b;stroke:none"
               d="m 350.327,1090.75 0,20.06 6.714,6.31 0,-19.93 -6.714,-6.44 z"
               id="path116"
               inkscape:connector-curvature="0" />
            <path
               style="fill:#2c2c2b;stroke:none"
               d="m 357.041,1117.12 0,20.62 10.672,0 0,-10.6 -10.672,-10.02 z"
               id="path118"
               inkscape:connector-curvature="0" />
            <path
               style="fill:#2c2c2b;stroke:none"
               d="m 374.663,1137.74 4.334,0 -4.334,-4.07 0,4.07 z"
               id="path120"
               inkscape:connector-curvature="0" />
            <path
               style="fill:#2c2c2b;stroke:none"
               d="m 338.454,1083.7 c -2.898,2.6 -5.619,5.35 -8.139,8.32 l 8.139,7.64 0,-15.96 z"
               id="path122"
               inkscape:connector-curvature="0" />
            <path
               style="fill:#2c2c2b;stroke:none"
               d="m 338.454,1099.66 0,38.08 11.873,0 0,-26.93 -11.873,-11.15 z"
               id="path124"
               inkscape:connector-curvature="0" />
          </g>
        </g>
        <g
           id="g126">
          <path
             style="fill:#e4312a;stroke:#e4312a;stroke-width:2.18943"
             d="m 320.668,1189.58 c 7.561,13.53 18.563,24.78 31.968,32.56 l 0,-32.56 -31.968,0 z"
             id="path128"
             inkscape:connector-curvature="0" />
          <path
             style="fill:#e4312a;stroke:#e4312a;stroke-width:2.18943"
             d="m 382.13,1189.58 0,-31.84 -29.494,0 0,31.84 29.494,0 z"
             id="path130"
             inkscape:connector-curvature="0" />
        </g>
        <path
           style="fill:none;stroke:#e4312a;stroke-width:3.01543999"
           d="m 310.113,1157.74 c 4.441,38.42 34.101,69.07 72.017,75.11 l 0,-75.11 -72.017,0 z"
           id="path132"
           inkscape:connector-curvature="0" />
        <g
           id="g134">
          <g
             id="g136">
            <path
               style="fill:#ffffff;stroke:none"
               d="m 351.835,1158.67 c 2.297,0 4.146,2.03 4.146,4.53 l 0,2.28 4.052,0 c 2.32,0 4.181,2.02 4.181,4.52 0,2.5 -1.861,4.52 -4.181,4.52 l -4.052,0 0,10.04 9.977,0 0,-4.38 c 0,-2.5 1.861,-4.53 4.169,-4.53 2.298,0 4.182,2.03 4.182,4.53 l 0,4.38 3.652,0 c 2.297,0 4.169,2.02 4.169,4.53 l -30.295,0 0,-30.42 z"
               id="path138"
               inkscape:connector-curvature="0" />
            <path
               style="fill:#e4312a;stroke:none"
               d="m 351.835,1219.52 c 2.297,0 4.146,-2.03 4.146,-4.55 l 0,-2.26 4.052,0 c 2.32,0 4.181,-2.03 4.181,-4.51 0,-2.51 -1.861,-4.54 -4.181,-4.54 l -4.052,0 0,-10.03 9.977,0 0,4.38 c 0,2.5 1.861,4.52 4.169,4.52 2.298,0 4.182,-2.02 4.182,-4.52 l 0,-4.38 3.652,0 c 2.297,0 4.169,-2.03 4.169,-4.54 l -30.295,0 0,30.43 z"
               id="path140"
               inkscape:connector-curvature="0" />
          </g>
          <g
             id="g142">
            <path
               style="fill:#ffffff;stroke:none"
               d="m 351.835,1219.52 c -2.297,0 -4.146,-2.03 -4.146,-4.54 l 0,-2.27 -4.052,0 c -2.321,0 -4.182,-2.03 -4.182,-4.52 0,-2.5 1.861,-4.53 4.182,-4.53 l 4.052,0 0,-10.03 -9.989,0 0,4.38 c 0,2.5 -1.849,4.52 -4.158,4.52 -2.297,0 -4.182,-2.02 -4.182,-4.52 l 0,-4.38 -3.651,0 c -2.297,0 -4.17,-2.03 -4.17,-4.54 l 30.296,0 0,30.43 z"
               id="path144"
               inkscape:connector-curvature="0" />
            <path
               style="fill:#e4312a;stroke:none"
               d="m 351.835,1158.67 c -2.297,0 -4.146,2.03 -4.146,4.54 l 0,2.27 -4.052,0 c -2.321,0 -4.182,2.02 -4.182,4.51 0,2.51 1.861,4.53 4.182,4.53 l 4.052,0 0,10.04 -9.989,0 0,-4.38 c 0,-2.5 -1.849,-4.53 -4.158,-4.53 -2.297,0 -4.182,2.03 -4.182,4.53 l 0,4.38 -3.651,0 c -2.297,0 -4.17,2.02 -4.17,4.53 l 30.296,0 0,-30.42 z"
               id="path146"
               inkscape:connector-curvature="0" />
          </g>
        </g>
        <g
           id="g148">
          <path
             style="fill:#2c2c2b;stroke:#2c2c2b;stroke-width:3.01543999"
             d="m 416.902,1231.01 c 2.332,-0.59 4.701,-1.03 6.95,-1.81 3.687,-1.27 7.232,-2.84 10.671,-4.57 2.333,-1.18 4.512,-2.58 6.715,-3.96 3.333,-2.07 6.514,-4.31 9.518,-6.81 0.812,-0.68 1.578,-1.39 2.355,-2.09 2.898,-2.59 5.618,-5.35 8.14,-8.32 10.801,-12.65 18.187,-28.29 20.2,-45.71 l -28.34,0 -11.873,0 -6.715,0 -10.671,0 -6.95,0 -4.335,0 -3.132,0 0,16.46 0,58.65 c 2.567,-0.4 4.982,-1.2 7.467,-1.84 z"
             id="path150"
             inkscape:connector-curvature="0" />
          <g
             id="g152">
            <path
               style="fill:#2c2c2b;stroke:none"
               d="m 434.523,1224.63 c 2.333,-1.18 4.512,-2.58 6.715,-3.96 l 0,-15.95 -6.715,-6.44 0,26.35 z"
               id="path154"
               inkscape:connector-curvature="0" />
            <path
               style="fill:#2c2c2b;stroke:none"
               d="m 434.523,1198.28 0,-19.92 -10.671,-10.03 0,19.71 10.671,10.24 z"
               id="path156"
               inkscape:connector-curvature="0" />
            <path
               style="fill:#2c2c2b;stroke:none"
               d="m 416.902,1231.01 c 2.332,-0.59 4.701,-1.03 6.95,-1.81 l 0,-41.16 -6.95,-6.67 0,49.64 z"
               id="path158"
               inkscape:connector-curvature="0" />
            <path
               style="fill:#2c2c2b;stroke:none"
               d="m 423.852,1157.74 -6.95,0 0,4.06 6.95,6.53 0,-10.59 z"
               id="path160"
               inkscape:connector-curvature="0" />
            <path
               style="fill:#2c2c2b;stroke:none"
               d="m 450.756,1213.86 c 0.812,-0.68 1.578,-1.39 2.355,-2.09 l 0,-15.95 -11.873,-11.16 0,20.06 9.518,9.14 z"
               id="path162"
               inkscape:connector-curvature="0" />
            <path
               style="fill:#2c2c2b;stroke:none"
               d="m 416.902,1181.37 0,-19.57 -4.335,-4.06 -3.132,0 0,16.46 7.467,7.17 z"
               id="path164"
               inkscape:connector-curvature="0" />
            <path
               style="fill:#2c2c2b;stroke:none"
               d="m 441.238,1157.74 -6.715,0 0,20.62 6.715,6.3 0,-26.92 z"
               id="path166"
               inkscape:connector-curvature="0" />
            <path
               style="fill:#2c2c2b;stroke:none"
               d="m 481.451,1157.74 -28.34,0 0,38.08 8.14,7.63 c 10.801,-12.65 18.187,-28.29 20.2,-45.71 z"
               id="path168"
               inkscape:connector-curvature="0" />
          </g>
          <g
             id="g170">
            <path
               style="fill:#f9b330;stroke:none"
               d="m 423.852,1188.04 0,41.16 c 3.687,-1.27 7.232,-2.84 10.671,-4.57 l 0,-26.35 -10.671,-10.24 z"
               id="path172"
               inkscape:connector-curvature="0" />
            <path
               style="fill:#f9b330;stroke:none"
               d="m 423.852,1168.33 -6.95,-6.53 0,19.57 6.95,6.67 0,-19.71 z"
               id="path174"
               inkscape:connector-curvature="0" />
            <path
               style="fill:#f9b330;stroke:none"
               d="m 441.238,1220.67 c 3.333,-2.07 6.514,-4.31 9.518,-6.81 l -9.518,-9.14 0,15.95 z"
               id="path176"
               inkscape:connector-curvature="0" />
            <path
               style="fill:#f9b330;stroke:none"
               d="m 409.435,1174.2 0,58.65 c 2.567,-0.4 4.982,-1.2 7.467,-1.84 l 0,-49.64 -7.467,-7.17 z"
               id="path178"
               inkscape:connector-curvature="0" />
            <path
               style="fill:#f9b330;stroke:none"
               d="m 441.238,1204.72 0,-20.06 -6.715,-6.3 0,19.92 6.715,6.44 z"
               id="path180"
               inkscape:connector-curvature="0" />
            <path
               style="fill:#f9b330;stroke:none"
               d="m 434.523,1178.36 0,-20.62 -10.671,0 0,10.59 10.671,10.03 z"
               id="path182"
               inkscape:connector-curvature="0" />
            <path
               style="fill:#f9b330;stroke:none"
               d="m 416.902,1157.74 -4.335,0 4.335,4.06 0,-4.06 z"
               id="path184"
               inkscape:connector-curvature="0" />
            <path
               style="fill:#f9b330;stroke:none"
               d="m 453.111,1211.77 c 2.898,-2.59 5.618,-5.35 8.14,-8.32 l -8.14,-7.63 0,15.95 z"
               id="path186"
               inkscape:connector-curvature="0" />
            <path
               style="fill:#f9b330;stroke:none"
               d="m 453.111,1195.82 0,-38.08 -11.873,0 0,26.92 11.873,11.16 z"
               id="path188"
               inkscape:connector-curvature="0" />
          </g>
        </g>
      </g>
    </g>
  </g>
</svg>
