<svg xmlns="http://www.w3.org/2000/svg" viewBox="0 0 750 185.07"><defs><style>.cls-1{fill:#1f4396;}</style></defs><g id="Layer_2" data-name="Layer 2"><g id="Layer_1-2" data-name="Layer 1"><path class="cls-1" d="M125.63,73.81,69.4,0,13.18,73.81C3.7,86.28,0,97.16,0,109c0,18,9,34.24,25.21,45.56L69.4,185.07l44.2-30.54C129.77,143.21,138.8,127,138.8,109,138.8,97.16,135.1,86.28,125.63,73.81ZM60.37,151.54v10.88L33.31,143.89c-12.73-8.55-19.89-21.28-19.89-34.24a40.5,40.5,0,0,1,5.09-19.21c1.39,3.93,3.7,7.87,8.79,13.66L56,136C60.61,141.36,60.37,144.58,60.37,151.54ZM39.09,97.16c-7.18-7.86-8.55-12.25-8.55-16.88,0-4.4.92-8.32,6.47-15.51L69.4,22.67l32.39,42.1c5.33,7.19,6.48,11.11,6.48,15.51,0,4.63-1.39,9-8.55,16.88L69.4,130.94Zm66.4,46.73L78.43,162.4V151.52c0-6.94-.22-10.18,4.41-15.51l28.68-31.93c5.09-5.77,7.41-9.71,8.79-13.65a40.35,40.35,0,0,1,5.09,19.21C125.39,122.61,118.22,135.32,105.49,143.89Z"/><path class="cls-1" d="M668,75.38a18.3,18.3,0,0,0-16.54,9.9V76.34h-12v53.38h12.38v-28c0-9.6,4.06-15.47,11.64-15.47,7.05,0,10.26,4.59,10.26,12.07v31.38h12.6V96C686.39,82.63,679.77,75.38,668,75.38Z"/><path class="cls-1" d="M538,97.9l-7.26-1.39c-5.44-1.07-8.1-3.31-8.1-6.51,0-3.85,3.52-6,8.53-6s8.53,2.24,9.29,6.72h11.73c-.85-9.49-10.14-15.36-20.82-15.36C519.75,75.38,511,81.47,511,91c0,8.65,6.29,13,15.9,15.27l7.47,1.7c5.24,1.17,7.57,2.78,7.57,6.83,0,4.59-3.85,6.94-9,6.94-6.41,0-10.26-2.46-11.42-7.57H509.41c2.13,11.64,10.88,16.55,23.48,16.55,11.22,0,20.82-5.33,20.82-16.86C553.71,105,547.85,99.83,538,97.9Z"/><path class="cls-1" d="M383.58,75.38a39.73,39.73,0,0,0-13.35,1.92v9.61a29.52,29.52,0,0,1,10.26-2c5.55,0,9.49,2.78,9.49,11.42V129.7h12.38V93.53C402.36,81.36,395.42,75.38,383.58,75.38Z"/><path class="cls-1" d="M199.67,95.35l-14.08-3c0-4.59,4.59-7.68,10.46-7.68,4.47,0,10,1.17,11.1,6.09h12c-1.08-11-11.42-15.36-22.53-15.36-12.6,0-22.52,6.18-22.52,18v6.41l21.67,4.47c9.18,1.93,11.85,4.71,11.73,9.5-.11,4.59-4.9,7.68-11.21,7.68a30.34,30.34,0,0,1-10.68-2V108H174V124.7a45.81,45.81,0,0,0,23,6c13.55,0,23.15-5.87,23.15-17.51C220.16,103.34,213.33,98.22,199.67,95.35Z"/><path class="cls-1" d="M435.88,97.9l-7.26-1.39c-5.44-1.07-8.1-3.31-8.1-6.51,0-3.85,3.51-6,8.53-6s8.53,2.24,9.29,6.72h11.73c-.85-9.49-10.14-15.36-20.82-15.36-11.64,0-20.39,6.09-20.39,15.58,0,8.65,6.29,13,15.9,15.27l7.47,1.7c5.24,1.17,7.57,2.78,7.57,6.83,0,4.59-3.85,6.94-8.95,6.94-6.41,0-10.26-2.46-11.42-7.57H407.27c2.13,11.64,10.88,16.55,23.48,16.55,11.22,0,20.82-5.33,20.82-16.86C451.57,105,445.71,99.83,435.88,97.9Z"/><path class="cls-1" d="M343.12,75.38c-16.23,0-24,7.05-24,22.3v32h12.16V124c0-12,3.51-13.88,16.32-13.76V99.94c-8-.78-13.51,2.24-16.32,7.31V98.12c0-9.92,4.81-13.12,11.84-13.12C350.47,85,355,89.28,355,98.12v31.6h12.16v-32C367.14,82,359.35,75.38,343.12,75.38Z"/><path class="cls-1" d="M626,115.1V76.34H613.36v39.92c0,8.87,3.74,14.42,12.92,14.42a14,14,0,0,0,6.51-1.5v-8.44C629.07,121.28,626,120.63,626,115.1Z"/><path class="cls-1" d="M582.84,75.38a22,22,0,0,0-6.71,1v9.4c10.14-2.55,17.19,3.32,17.71,14.31.53,12.49-5.87,20.71-14.2,19.75l-12.8-43.44h-12.7l15.8,53.37h8.11c17.62,0,28.28-10.45,28-30.31C605.7,85,597,75.38,582.84,75.38Z"/><path class="cls-1" d="M541.55,133.23a22.13,22.13,0,0,0-7.25,1.17v7.68c3.31-.85,7.14,0,7.14,4.7v2.46H551.7v-5.87C551.68,136,548,133.23,541.55,133.23Z"/><path class="cls-1" d="M482.41,75.38c-10.89,0-20.92,5-25.3,10.34v44h12.6V89A22.28,22.28,0,0,1,482.2,85.1c6.52,0,10,4.05,10,10.88V129.7h12.38V95.55C504.61,80,495.66,75.38,482.41,75.38Z"/><path class="cls-1" d="M292.32,75.38A39.52,39.52,0,0,0,279,77.3v9.61a29.43,29.43,0,0,1,10.25-2c5.55,0,9.49,2.78,9.49,11.42V129.7H311.1V93.53C311.1,81.36,304.16,75.38,292.32,75.38Z"/><path class="cls-1" d="M260.62,104.31c0,9.6-4.06,15.47-11.64,15.47-7.06,0-10.26-4.59-10.26-12.07V76.34h-12.6v33.72c0,13.35,6.63,20.6,18.36,20.6a18.29,18.29,0,0,0,16.54-9.9v8.94h12V76.34H260.6v28Z"/><path class="cls-1" d="M737.62,76.34v35.54L727.27,90.65h-6.62l-10.46,21.26V89.69c0-12.81-7.79-16.44-19.32-13.46v8.64c3.52-1,6.94-.53,6.94,5.67v39.18h13.66l12.47-25.23,12.29,25.23H750V76.34Z"/></g></g></svg>