<?xml version="1.0" encoding="UTF-8" standalone="no"?>
<!-- Created with Inkscape (http://www.inkscape.org/) -->

<svg
   xmlns:dc="http://purl.org/dc/elements/1.1/"
   xmlns:cc="http://creativecommons.org/ns#"
   xmlns:rdf="http://www.w3.org/1999/02/22-rdf-syntax-ns#"
   xmlns:svg="http://www.w3.org/2000/svg"
   xmlns="http://www.w3.org/2000/svg"
   xmlns:sodipodi="http://sodipodi.sourceforge.net/DTD/sodipodi-0.dtd"
   xmlns:inkscape="http://www.inkscape.org/namespaces/inkscape"
   width="230"
   height="30"
   viewBox="0 0 60.854165 7.9375002"
   version="1.1"
   id="svg599"
   inkscape:version="0.92.3 (2405546, 2018-03-11)"
   sodipodi:docname="בנק הפועלים 2018 אנגלית.svg">
  <defs
     id="defs593">
    <clipPath
       clipPathUnits="userSpaceOnUse"
       id="clipPath486">
      <path
         d="M 0,0 H 609.449 V 793.701 H 0 Z"
         id="path484"
         inkscape:connector-curvature="0" />
    </clipPath>
    <clipPath
       clipPathUnits="userSpaceOnUse"
       id="clipPath472">
      <path
         d="M 0,0 H 609.449 V 793.701 H 0 Z"
         id="path470"
         inkscape:connector-curvature="0" />
    </clipPath>
    <clipPath
       clipPathUnits="userSpaceOnUse"
       id="clipPath458">
      <path
         d="M 0,0 H 609.449 V 793.701 H 0 Z"
         id="path456"
         inkscape:connector-curvature="0" />
    </clipPath>
  </defs>
  <sodipodi:namedview
     id="base"
     pagecolor="#ffffff"
     bordercolor="#666666"
     borderopacity="1.0"
     inkscape:pageopacity="0.0"
     inkscape:pageshadow="2"
     inkscape:zoom="2.8"
     inkscape:cx="169.27556"
     inkscape:cy="34.766247"
     inkscape:document-units="mm"
     inkscape:current-layer="layer1"
     showgrid="false"
     units="px"
     fit-margin-top="0"
     fit-margin-left="0"
     fit-margin-right="0"
     fit-margin-bottom="0"
     inkscape:window-width="1366"
     inkscape:window-height="705"
     inkscape:window-x="-8"
     inkscape:window-y="-8"
     inkscape:window-maximized="1" />
  <metadata
     id="metadata596">
    <rdf:RDF>
      <cc:Work
         rdf:about="">
        <dc:format>image/svg+xml</dc:format>
        <dc:type
           rdf:resource="http://purl.org/dc/dcmitype/StillImage" />
        <dc:title />
      </cc:Work>
    </rdf:RDF>
  </metadata>
  <g
     inkscape:label="Layer 1"
     inkscape:groupmode="layer"
     id="layer1"
     transform="translate(-141.97236,-273.31211)">
    <path
       inkscape:connector-curvature="0"
       id="path418"
       style="fill:#ed1d24;fill-opacity:1;fill-rule:nonzero;stroke:none;stroke-width:0.35277778"
       d="m 145.23317,280.90871 c 0.35454,0.36195 0.93027,0.36195 1.29222,0 l 2.9905,-2.98309 c 0.36195,-0.35454 0.36195,-0.93063 0,-1.29222 l -2.9905,-2.9905 c -0.36195,-0.36195 -0.93768,-0.36195 -1.29222,0 l -2.98309,2.9905 c -0.36195,0.36159 -0.36195,0.93768 0,1.29222 z" />
    <g
       id="g110">
      <g
         transform="matrix(0.35277777,0,0,-0.35277777,176.61695,275.59133)"
         id="g420">
        <path
           inkscape:connector-curvature="0"
           id="path422"
           style="fill:#515254;fill-opacity:1;fill-rule:nonzero;stroke:none"
           d="m 0,0 c -1.735,0 -3.132,-0.571 -4.296,-1.397 l 1.079,-1.693 c 0.825,0.487 1.863,0.952 3.005,0.952 1.588,0 2.498,-0.74 2.498,-2.412 v -0.297 c -0.466,0.043 -1.228,0.085 -1.947,0.085 -3.09,0 -4.995,-1.502 -4.995,-3.873 0,-2.116 1.503,-3.428 3.619,-3.428 1.418,0 2.709,0.592 3.407,1.545 l 0.212,-1.439 h 2.286 v 6.92 c 0,1.693 -0.403,2.878 -1.186,3.704 C 2.857,-0.465 1.63,0 0,0 m 2.286,-7.301 c 0,-1.588 -1.186,-2.646 -2.646,-2.646 -1.143,0 -1.693,0.635 -1.693,1.566 0,1.059 0.72,1.651 2.582,1.651 0.529,0 1.164,0 1.757,-0.085 z" />
      </g>
      <g
         transform="matrix(0.35277777,0,0,-0.35277777,181.26826,275.56886)"
         id="g424">
        <path
           inkscape:connector-curvature="0"
           id="path426"
           style="fill:#515254;fill-opacity:1;fill-rule:nonzero;stroke:none"
           d="m 0,0 c -1.502,0 -2.751,-0.656 -3.45,-1.693 l -0.275,1.418 h -2.179 v -14.921 h 2.539 v 4.381 c 0.741,-0.867 1.947,-1.376 3.344,-1.376 2.942,0 5.376,2.096 5.376,6.096 C 5.355,-2.074 2.942,0 0,0 m -0.338,-10.053 c -1.842,0 -2.985,1.376 -2.985,3.958 0,2.518 1.143,3.873 2.985,3.873 1.862,0 3.026,-1.355 3.026,-3.873 0,-2.582 -1.164,-3.958 -3.026,-3.958" />
      </g>
      <g
         transform="matrix(0.35277777,0,0,-0.35277777,172.83165,275.59133)"
         id="g428">
        <path
           inkscape:connector-curvature="0"
           id="path430"
           style="fill:#515254;fill-opacity:1;fill-rule:nonzero;stroke:none"
           d="m 0,0 c -1.397,0 -2.624,-0.635 -3.196,-1.46 v 5.375 h -2.666 v -15.872 h 2.666 v 6.349 c 0,1.227 0.275,2.031 0.741,2.582 0.487,0.571 1.185,0.867 2.032,0.867 0.698,0 1.248,-0.232 1.608,-0.719 0.339,-0.466 0.529,-1.164 0.529,-2.222 v -6.857 h 2.667 v 6.984 c 0,1.735 -0.466,2.963 -1.27,3.767 C 2.328,-0.423 1.291,0 0,0" />
      </g>
      <g
         transform="matrix(0.35277777,0,0,-0.35277777,185.76289,275.56886)"
         id="g432">
        <path
           inkscape:connector-curvature="0"
           id="path434"
           style="fill:#515254;fill-opacity:1;fill-rule:nonzero;stroke:none"
           d="m 0,0 c -3.28,0 -5.693,-2.201 -5.693,-6.116 0,-3.937 2.37,-6.159 5.63,-6.159 3.301,0 5.714,2.286 5.714,6.222 C 5.651,-2.18 3.28,0 0,0 m -0.042,-10.053 c -1.842,0 -2.984,1.418 -2.984,3.958 0,2.476 1.142,3.873 2.984,3.873 1.862,0 3.026,-1.397 3.026,-3.873 0,-2.54 -1.164,-3.958 -3.026,-3.958" />
      </g>
      <g
         transform="matrix(0.35277777,0,0,-0.35277777,154.10687,275.59133)"
         id="g436">
        <path
           inkscape:connector-curvature="0"
           id="path438"
           style="fill:#515254;fill-opacity:1;fill-rule:nonzero;stroke:none"
           d="m 0,0 c -1.418,0 -2.709,-0.593 -3.45,-1.354 v 5.269 h -2.666 v -9.671 c 0,-2.244 0.592,-3.725 1.566,-4.72 1.058,-1.079 2.497,-1.629 4.084,-1.629 3.133,0 5.693,1.989 5.693,6.073 C 5.227,-1.947 2.815,0 0,0 m -0.466,-9.841 c -1.82,0 -2.941,1.376 -2.941,3.873 0,2.391 1.121,3.767 2.92,3.809 1.863,0.043 3.005,-1.333 3.005,-3.809 0,-2.497 -1.142,-3.873 -2.984,-3.873" />
      </g>
      <path
         d="m 162.76746,275.59133 c -0.49283,0 -0.94086,0.21661 -1.17969,0.55986 l -0.067,-0.50024 h -0.79163 v 4.15854 H 161.67 v -2.23237 c 0,-0.44768 0.0896,-0.73167 0.25365,-0.91828 0.1718,-0.20144 0.41839,-0.30586 0.71684,-0.30586 0.23142,0 0.40322,0.0744 0.53022,0.22401 0.13441,0.16404 0.20885,0.41804 0.20885,0.84349 v 2.38901 h 0.94086 v -2.43381 c 0,-0.62724 -0.15664,-1.04528 -0.41804,-1.32891 -0.27623,-0.29881 -0.67205,-0.45544 -1.13489,-0.45544"
         style="fill:#515254;fill-opacity:1;fill-rule:nonzero;stroke:none;stroke-width:0.35277778"
         id="path442"
         inkscape:connector-curvature="0" />
      <g
         transform="matrix(0.35277777,0,0,-0.35277777,159.3555,276.05424)"
         id="g444">
        <path
           inkscape:connector-curvature="0"
           id="path446"
           style="fill:#515254;fill-opacity:1;fill-rule:nonzero;stroke:none"
           d="m 0,0 c -0.825,0.825 -2.032,1.312 -3.619,1.312 -1.735,0 -3.132,-0.614 -4.296,-1.439 l 1.079,-1.693 c 0.825,0.487 1.862,0.974 3.005,0.974 1.588,0 2.498,-0.762 2.498,-2.392 v -0.296 c -0.466,0.042 -1.228,0.084 -1.947,0.084 -3.09,0 -4.995,-1.502 -4.995,-3.873 0,-2.116 1.503,-3.428 3.619,-3.428 1.418,0 2.709,0.593 3.407,1.545 l 0.212,-1.439 h 2.286 v 6.857 C 1.249,-2.032 0.825,-0.825 0,0 m -1.333,-5.989 c 0,-1.588 -1.186,-2.646 -2.646,-2.646 -1.143,0 -1.693,0.635 -1.693,1.567 0,1.058 0.72,1.65 2.582,1.65 0.529,0 1.164,0 1.757,-0.084 z" />
      </g>
      <path
         d="m 168.78507,275.65105 h -1.09749 l -1.51553,1.81328 v -3.25437 h -0.94086 v 5.59964 h 0.94086 v -2.04646 l 1.56774,2.04646 h 1.1423 l -1.73955,-2.2098 z"
         style="fill:#515254;fill-opacity:1;fill-rule:nonzero;stroke:none;stroke-width:0.35277775"
         id="path450"
         inkscape:connector-curvature="0" />
      <g
         id="g452"
         transform="matrix(0.35277777,0,0,-0.35277777,121.42032,535.16715)">
        <g
           clip-path="url(#clipPath458)"
           id="g454">
          <g
             transform="translate(194.2188,735.8055)"
             id="g460">
            <path
               inkscape:connector-curvature="0"
               id="path462"
               style="fill:#515254;fill-opacity:1;fill-rule:nonzero;stroke:none"
               d="m 0,0 c -1.735,0 -3.132,-0.571 -4.296,-1.397 l 1.079,-1.693 c 0.825,0.487 1.863,0.931 3.005,0.931 1.588,0 2.498,-0.719 2.498,-2.391 v -0.297 c -0.466,0.043 -1.228,0.085 -1.947,0.085 -3.09,0 -4.995,-1.502 -4.995,-3.873 0,-2.116 1.503,-3.428 3.619,-3.428 1.418,0 2.709,0.592 3.407,1.545 l 0.212,-1.439 h 2.286 v 6.984 c 0,1.671 -0.424,2.878 -1.249,3.703 C 2.794,-0.444 1.587,0 0,0 m 2.286,-7.301 c 0,-1.588 -1.186,-2.646 -2.646,-2.646 -1.143,0 -1.693,0.635 -1.693,1.566 0,1.059 0.72,1.651 2.582,1.651 0.529,0 1.164,0 1.757,-0.085 z" />
          </g>
        </g>
      </g>
      <path
         inkscape:connector-curvature="0"
         id="path464"
         style="fill:#515254;fill-opacity:1;fill-rule:nonzero;stroke:none;stroke-width:0.35277775"
         d="m 192.63909,279.80967 h 0.94086 v -5.59964 h -0.94086 z" />
      <g
         id="g466"
         transform="matrix(0.35277777,0,0,-0.35277777,121.42032,535.16715)">
        <g
           clip-path="url(#clipPath472)"
           id="g468">
          <g
             transform="translate(226.1757,735.8055)"
             id="g474">
            <path
               inkscape:connector-curvature="0"
               id="path476"
               style="fill:#515254;fill-opacity:1;fill-rule:nonzero;stroke:none"
               d="M 0,0 C -1.651,0 -3.047,-0.698 -3.873,-1.862 -4.592,-0.635 -5.883,0 -7.471,0 c -1.46,0 -2.666,-0.614 -3.343,-1.587 l -0.191,1.418 h -2.159 v -11.788 h 2.667 v 6.37 c 0,1.249 0.233,2.053 0.677,2.582 0.466,0.55 1.143,0.846 1.99,0.846 0.656,0 1.142,-0.211 1.502,-0.635 0.381,-0.465 0.593,-1.164 0.593,-2.349 v -6.814 h 2.666 v 6.37 c 0,1.291 0.275,2.095 0.741,2.645 0.445,0.529 1.143,0.783 1.968,0.783 0.656,0 1.164,-0.232 1.524,-0.656 0.381,-0.444 0.529,-1.164 0.529,-2.222 v -6.92 H 4.36 v 7.005 c 0,1.82 -0.445,2.92 -1.228,3.746 C 2.371,-0.423 1.291,0 0,0" />
          </g>
        </g>
      </g>
      <path
         inkscape:connector-curvature="0"
         id="path478"
         style="fill:#515254;fill-opacity:1;fill-rule:nonzero;stroke:none;stroke-width:0.35277775"
         d="m 194.59525,279.80967 h 0.94086 v -4.15854 h -0.94086 z" />
      <g
         id="g480"
         transform="matrix(0.35277777,0,0,-0.35277777,121.42032,535.16715)">
        <g
           clip-path="url(#clipPath486)"
           id="g482">
          <g
             transform="translate(208.7794,740.1442)"
             id="g488">
            <path
               inkscape:connector-curvature="0"
               id="path490"
               style="fill:#515254;fill-opacity:1;fill-rule:nonzero;stroke:none"
               d="m 0,0 c -0.974,0 -1.609,-0.614 -1.609,-1.524 0,-0.91 0.635,-1.524 1.609,-1.524 0.91,0 1.545,0.614 1.545,1.524 C 1.545,-0.614 0.91,0 0,0" />
          </g>
        </g>
      </g>
    </g>
  </g>
</svg>
