<?xml version="1.0" encoding="UTF-8" standalone="no"?>
<!-- Created with Inkscape (http://www.inkscape.org/) -->

<svg
   width="30.05065mm"
   height="30.024202mm"
   viewBox="0 0 30.05065 30.024202"
   version="1.1"
   id="svg1659"
   xmlns="http://www.w3.org/2000/svg"
   xmlns:svg="http://www.w3.org/2000/svg">
  <defs
     id="defs1656" />
  <g
     id="layer1"
     transform="translate(-129.32665,-90.763038)">
    <rect
       style="fill:#ffffff;stroke-width:0.198643;stroke-opacity:0.992908"
       id="rect1755"
       width="28.997543"
       height="28.642199"
       x="129.82736"
       y="91.560402" />
    <path
       id="arrow"
       d="m 130.22605,90.763038 c -0.5079,0 -0.8994,0.412668 -0.8994,0.925857 v 28.172485 c 0,0.50896 0.3915,0.92586 0.8994,0.92586 h 28.23069 c 0.5079,0 0.92056,-0.4169 0.92056,-0.92586 V 91.688895 c 0,-0.513189 -0.41266,-0.925857 -0.92056,-0.925857 z m 0.82534,1.137481 h 26.55885 c 0.32802,0 0.60313,0.268763 0.60313,0.60842 v 26.532401 c 0,0.34283 -0.26453,0.63487 -0.60313,0.63487 h -26.55885 c -0.34918,0 -0.61371,-0.29204 -0.61371,-0.63487 V 92.508939 c 0,-0.339657 0.26453,-0.60842 0.61371,-0.60842 z m 18.42189,14.733291 c -0.50789,-0.83909 -0.49731,-0.87613 0.0318,-1.71945 0.52906,-0.83909 6.49687,-10.497628 6.71907,-10.882784 0.26453,-0.43383 -0.0317,-0.631699 -0.3386,-0.631699 h -11.67108 c -1.46021,0 -1.47079,-0.0042 -2.02101,0.917392 -0.56081,0.921624 -6.14769,9.969621 -6.57094,10.655281 -0.5079,0.83486 -0.5079,0.8391 0,1.66126 0.5079,0.83168 6.01013,9.77598 6.57094,10.69761 0.55022,0.91739 0.5608,0.91739 2.02101,0.91739 h 11.67108 c 0.30686,0 0.60313,-0.2021 0.3386,-0.63699 -0.15872,-0.26453 -6.24292,-10.13469 -6.75082,-10.97801"
       fill="#009e4d"
       style="stroke-width:1.05812" />
  </g>
</svg>
