<?xml version="1.0" encoding="UTF-8" standalone="no"?>
<!-- Generator: Adobe Illustrator 21.0.2, SVG Export Plug-In . SVG Version: 6.00 Build 0)  -->

<svg
   xmlns:dc="http://purl.org/dc/elements/1.1/"
   xmlns:cc="http://creativecommons.org/ns#"
   xmlns:rdf="http://www.w3.org/1999/02/22-rdf-syntax-ns#"
   xmlns:svg="http://www.w3.org/2000/svg"
   xmlns="http://www.w3.org/2000/svg"
   xmlns:sodipodi="http://sodipodi.sourceforge.net/DTD/sodipodi-0.dtd"
   xmlns:inkscape="http://www.inkscape.org/namespaces/inkscape"
   version="1.1"
   id="Layer_1"
   x="0px"
   y="0px"
   viewBox="0 0 248.8 25.876394"
   xml:space="preserve"
   sodipodi:docname="BCLIQUORSTORESpink.svg"
   width="248.8"
   height="25.876394"
   inkscape:version="0.92.1 r15371"><metadata
     id="metadata3727"><rdf:RDF><cc:Work
         rdf:about=""><dc:format>image/svg+xml</dc:format><dc:type
           rdf:resource="http://purl.org/dc/dcmitype/StillImage" /></cc:Work></rdf:RDF></metadata><defs
     id="defs3725" /><sodipodi:namedview
     pagecolor="#ffffff"
     bordercolor="#666666"
     borderopacity="1"
     objecttolerance="10"
     gridtolerance="10"
     guidetolerance="10"
     inkscape:pageopacity="0"
     inkscape:pageshadow="2"
     inkscape:window-width="1366"
     inkscape:window-height="705"
     id="namedview3723"
     showgrid="false"
     inkscape:zoom="1.6856283"
     inkscape:cx="101.06636"
     inkscape:cy="17.4"
     inkscape:window-x="-8"
     inkscape:window-y="-8"
     inkscape:window-maximized="1"
     inkscape:current-layer="Layer_1" /><style
     type="text/css"
     id="style3690">
	.st0{fill:#C70752;}
</style><g
     id="g3720"
     transform="translate(-183.5,-387.52361)"><g
       id="g3718"><path
         class="st0"
         d="m 277.1,406.4 c 2.2,1 4.1,1.8 6.3,2.7 -1.4,1.4 -2.8,2.7 -4.6,4.3 -3.2,-1.3 -6.5,-2.6 -9.8,-4.1 -2.6,-1.1 -5,-2.7 -6.7,-5 -2.7,-3.5 -3.1,-7.4 -1.3,-11.3 1.8,-3.9 5.2,-5.3 9.4,-5.4 3.2,-0.1 6.1,0.5 8.5,2.7 4.5,4.3 4.2,11.4 -0.8,15.2 -0.2,0.2 -0.4,0.4 -1,0.9 z m -2.1,-8.6 c 0,-2.6 -1.7,-4.5 -4.1,-4.5 -2.3,0 -3.9,1.9 -3.9,4.5 0,2.7 1.5,4.3 4,4.3 2.4,0 4,-1.7 4,-4.3 z"
         id="path3692"
         inkscape:connector-curvature="0"
         style="fill:#c70752" /><path
         class="st0"
         d="m 183.5,407.6 c 0,-6 0,-11.8 0,-17.6 0,-0.6 0,-1.2 0,-1.7 0.2,-0.2 0.3,-0.3 0.4,-0.3 4.4,0 8.7,-0.2 13.1,0.1 3.4,0.2 5.2,2.7 4.4,5.6 -0.3,1.2 -1.4,2.1 -2.2,3.2 0.2,0.1 0.6,0.4 1,0.6 2,1.2 2.7,3 2.5,5.2 -0.3,2.4 -1.7,3.9 -3.9,4.6 -0.4,0.1 -0.8,0.2 -1.2,0.2 -4.6,0.1 -9.2,0.1 -14.1,0.1 z m 7.2,-3 c 1.9,-0.1 3.8,0.4 5,-1.5 0.6,-1 0.7,-2.1 -0.2,-3 -1.3,-1.5 -3.1,-1.1 -4.9,-1 0.1,1.9 0.1,3.6 0.1,5.5 z m 0,-8.7 c 1.7,0.1 3.5,0.4 4.4,-1.2 0.4,-0.7 0.4,-2 0,-2.7 -1,-1.6 -2.7,-1.4 -4.4,-1.1 0,1.7 0,3.3 0,5 z"
         id="path3694"
         inkscape:connector-curvature="0"
         style="fill:#c70752" /><path
         class="st0"
         d="m 318.5,407.8 c -8.5,0 -13.3,-7.4 -9.6,-15 1.4,-2.9 3.8,-4.6 7,-5 3.7,-0.6 7.3,-0.4 10.3,2.4 3.4,3.3 3.9,7.3 2.4,11.6 -1.5,4.1 -4.7,5.8 -8.9,6.1 -0.5,-0.1 -0.8,-0.1 -1.2,-0.1 z m 3.7,-10.2 c 0,-2.6 -1.5,-4.3 -3.7,-4.3 -2.2,0 -3.8,1.9 -3.8,4.3 0,2.5 1.6,4.4 3.8,4.4 2.3,0.1 3.7,-1.6 3.7,-4.4 z"
         id="path3696"
         inkscape:connector-curvature="0"
         style="fill:#c70752" /><path
         class="st0"
         d="m 331.3,407.5 c 0,-6.5 0,-13 0,-19.4 0.2,-0.1 0.3,-0.2 0.3,-0.2 4.4,0 8.7,-0.1 13.1,0.1 3,0.2 4.8,2 5.3,4.7 0.3,1.7 -0.2,3.2 -1.5,4.4 -0.3,0.3 -0.7,0.6 -0.8,0.7 1.7,3.3 3.2,6.4 5,9.7 -2.5,0 -4.7,0 -6.9,0 -0.9,-1.9 -1.8,-4 -2.8,-5.9 -1.2,-2.2 -2,-2.5 -4.8,-2 0,2.6 0,5.2 0,7.9 -2.4,0 -4.6,0 -6.9,0 z m 6.8,-11.3 c 2,0 3.9,0.5 5,-1.4 0.4,-0.7 0.3,-2 -0.2,-2.6 -1.2,-1.6 -3,-1.1 -4.8,-1 0,1.7 0,3.2 0,5 z"
         id="path3698"
         inkscape:connector-curvature="0"
         style="fill:#c70752" /><path
         class="st0"
         d="m 284.4,387.9 c 2.4,0 4.6,0 7.1,0 0,2.3 0,4.5 0,6.7 0,1.4 0,2.8 0,4.1 0.1,2.1 1.2,3.5 3,3.7 2.1,0.3 3.6,-0.7 4.1,-2.9 0.3,-1.2 0.2,-2.4 0.2,-3.6 0,-2.6 0,-5.2 0,-8 2.3,0 4.5,0 6.8,0 0,2.1 0,4.1 0,6.1 0,1.6 0,3.2 0,4.9 0,4.6 -2.4,7.8 -6.9,8.5 -2.7,0.4 -5.5,0.3 -8.2,-0.3 -3.8,-0.8 -5.7,-3.4 -6,-8.1 -0.2,-3 -0.1,-6 -0.1,-9 0,-0.5 0,-1.2 0,-2.1 z"
         id="path3700"
         inkscape:connector-curvature="0"
         style="fill:#c70752" /><path
         class="st0"
         d="m 222.4,401 c 0,1.9 0,3.5 0,5.1 -4.4,3.1 -12.9,2.2 -16,-1.6 -2.7,-3.4 -3,-7.2 -1.4,-11 1.6,-3.8 4.9,-5.5 8.8,-5.8 2.9,-0.2 5.7,-0.2 8.4,1.3 0,1.8 0,3.6 0,5.4 -1.3,-0.5 -2.5,-1.1 -3.8,-1.3 -1.4,-0.2 -2.9,-0.2 -4.2,0.2 -2.1,0.5 -3.3,2.3 -3.2,4.4 0,2.2 1.2,3.8 3.2,4.5 2.2,0.8 4.2,0.4 6.3,-0.4 0.6,-0.3 1.1,-0.5 1.9,-0.8 z"
         id="path3702"
         inkscape:connector-curvature="0"
         style="fill:#c70752" /><path
         class="st0"
         d="m 233.5,387.9 c 2.4,0 4.6,0 7,0 0,2.5 0,4.9 0,7.3 0,2.4 0,4.8 0,7.4 2.6,0 5,0 7.6,0 0,1.8 0,3.3 0,5 -4.9,0 -9.7,0 -14.6,0 0,-6.6 0,-13 0,-19.7 z"
         id="path3704"
         inkscape:connector-curvature="0"
         style="fill:#c70752" /><path
         class="st0"
         d="m 391.7,387.6 c 6.2,0 10.5,4.1 10.5,10.1 0,6 -4.3,10.2 -10.5,10.1 -6.3,0 -10.8,-4.2 -10.7,-10.1 0,-6.5 5.4,-10.4 10.7,-10.1 z m 7.6,10.2 c 0,-4.3 -3.5,-7.7 -7.8,-7.7 -4.1,0 -7.6,3.5 -7.5,7.6 0,4.2 3.5,7.6 7.7,7.6 4.2,-0.1 7.6,-3.4 7.6,-7.5 z"
         id="path3706"
         inkscape:connector-curvature="0"
         style="fill:#c70752" /><path
         class="st0"
         d="m 250.5,407.6 c 0,-6.6 0,-13.1 0,-19.7 2.3,0 4.4,0 6.7,0 0,6.6 0,13.1 0,19.7 -2.2,0 -4.4,0 -6.7,0 z"
         id="path3708"
         inkscape:connector-curvature="0"
         style="fill:#c70752" /><path
         class="st0"
         d="m 404.5,387.7 c 2.5,0.2 5,0.2 7.5,0.6 1.9,0.3 3.2,1.7 3.6,3.6 0.5,2.1 0.1,4.1 -1.7,5.5 -0.3,0.3 -0.7,0.5 -0.9,0.7 2.1,3.1 4.3,6.2 6.5,9.5 -1.3,0 -2.3,0 -3.4,0 -1.3,-1.9 -2.5,-4 -4,-5.9 -1.2,-1.6 -2.5,-3.1 -5.1,-2.4 0,2.7 0,5.4 0,8.3 -1,0 -1.7,0 -2.6,0 0.1,-6.5 0.1,-13 0.1,-19.9 z m 2.7,8.6 c 2,0 4,0.6 5.2,-1.3 0.7,-1.1 0.8,-2.5 -0.2,-3.5 -1.4,-1.6 -3.2,-1.1 -5,-1 0,2 0,3.7 0,5.8 z"
         id="path3710"
         inkscape:connector-curvature="0"
         style="fill:#c70752" /><path
         class="st0"
         d="m 424,390.4 c 0,2.1 0,3.8 0,5.9 1.4,0 2.6,0 3.9,0 1.2,0 2.5,0 3.9,0 0,0.9 0,1.6 0,2.6 -2.6,0 -5.1,0 -7.8,0 0,2 0,3.9 0,6 2.7,0 5.4,0 8.3,0 0,1 0,1.8 0,2.6 -3.7,0 -7.3,0 -11.1,0 0,-6.5 0,-12.9 0,-19.6 3.6,0 7.2,0 10.9,0 0,0.7 0,1.4 0,2.4 -2.7,0.1 -5.4,0.1 -8.1,0.1 z"
         id="path3712"
         inkscape:connector-curvature="0"
         style="fill:#c70752" /><path
         class="st0"
         d="m 364,388.7 c 0,1.2 0,2.1 0,3.2 -2,-1.2 -3.8,-2.4 -6,-1.4 -0.8,0.4 -1.3,1.2 -2.2,2.2 1.1,1 1.9,1.9 2.8,2.6 1.5,1.2 3.2,2 4.7,3.3 1.8,1.6 2.2,4 1.2,6.1 -0.9,2.1 -2.6,3.1 -5,3.2 -2.1,0.1 -3.9,-0.5 -5.6,-1.7 0,-1 0,-2.1 0,-3.1 1.3,0.7 2.6,1.6 4,2.1 1.6,0.6 3.1,0.1 4.1,-1.3 0.5,-1.6 -0.1,-2.8 -1.5,-3.7 -1.3,-0.9 -2.7,-1.7 -4,-2.7 -1.4,-1 -2.6,-2.1 -2.7,-4 -0.4,-4.4 3.1,-6.3 7.5,-5.7 1,0.1 1.8,0.6 2.7,0.9 z"
         id="path3714"
         inkscape:connector-curvature="0"
         style="fill:#c70752" /><path
         class="st0"
         d="m 375.4,390.3 c 0,5.9 0,11.5 0,17.2 -1,0 -1.8,0 -2.9,0 0,-5.6 0,-11.3 0,-17.2 -2.4,0 -4.5,0 -6.8,0 0,-0.9 0,-1.6 0,-2.4 5.3,0 10.6,0 16.1,0 0,0.8 0,1.5 0,2.3 -2.1,0.1 -4.1,0.1 -6.4,0.1 z"
         id="path3716"
         inkscape:connector-curvature="0"
         style="fill:#c70752" /></g></g></svg>