<?xml version="1.0" encoding="utf-8"?>
<!-- Generator: Adobe Illustrator 13.0.0, SVG Export Plug-In . SVG Version: 6.00 Build 14948)  -->
<!DOCTYPE svg PUBLIC "-//W3C//DTD SVG 1.1//EN" "http://www.w3.org/Graphics/SVG/1.1/DTD/svg11.dtd">
<svg version="1.1" xmlns="http://www.w3.org/2000/svg" xmlns:xlink="http://www.w3.org/1999/xlink" x="0px" y="0px" width="300px"
	 height="70px" viewBox="0 0 300 70" enable-background="new 0 0 300 70" xml:space="preserve">
<g id="Layer_4">
</g>
<g id="Layer_3">
	<path fill="#C2140D" d="M246.461,34.181c-2.032,0.011-4.123-0.261-5.698-1.837l0,0c-0.017-0.015-0.027-0.03-0.037-0.04l0,0
		c-2.996-3.034-2.982-7.916,0.035-10.934l0,0c0.024-0.024,0.04-0.037,0.011-0.01l0,0c3.028-3.021,7.949-3.032,10.978-0.005l0,0
		l0.01,0.007h0.001l12.818,12.818H246.461L246.461,34.181z"/>
	<path fill="#C2140D" d="M251.768,48.204c-1.431,1.443-3.102,2.729-5.324,2.729l0,0c-0.025,0.001-0.045,0-0.059-0.002l0,0
		c-4.265-0.028-7.707-3.488-7.707-7.756l0,0c0-0.033,0.003-0.055,0-0.014l0,0c0.007-4.278,3.477-7.766,7.76-7.767l0,0h0.012
		l0.002-0.001h18.127L251.768,48.204L251.768,48.204z"/>
	<path fill="#C2140D" d="M265.788,54.527c0.01,2.032-0.261,4.123-1.836,5.698l0,0c-0.015,0.016-0.031,0.027-0.042,0.037l0,0
		c-3.033,2.996-7.916,2.982-10.934-0.035l0,0c-0.024-0.024-0.036-0.04-0.008-0.011l0,0c-3.022-3.031-3.032-7.949-0.008-10.978l0,0
		l0.012-0.008l-0.003-0.004l12.818-12.818V54.527L265.788,54.527z"/>
	<path fill="#C2140D" d="M279.812,49.222c1.443,1.43,2.729,3.1,2.729,5.324l0,0c0,0.023,0,0.045-0.002,0.059l0,0
		c-0.029,4.264-3.491,7.705-7.757,7.705l0,0c-0.035,0-0.055-0.001-0.013,0l0,0c-4.28-0.006-7.768-3.476-7.768-7.759l0,0v-0.013
		h-0.001V36.409L279.812,49.222L279.812,49.222z"/>
	<path fill="#C2140D" d="M286.328,35.394c2.033-0.009,4.122,0.261,5.697,1.836l0,0c0.015,0.015,0.028,0.03,0.037,0.043l0,0
		c2.997,3.034,2.982,7.915-0.034,10.933l0,0c-0.024,0.024-0.041,0.037-0.01,0.007l0,0c-3.03,3.023-7.95,3.036-10.979,0.006l0,0
		l-0.008-0.007l-0.001,0.001l-12.819-12.818H286.328L286.328,35.394z"/>
	<path fill="#C2140D" d="M281.021,21.37c1.434-1.442,3.102-2.729,5.326-2.729l0,0c0.025,0,0.044,0.003,0.059,0.003l0,0
		c4.264,0.027,7.706,3.489,7.706,7.756l0,0c0,0.035-0.002,0.056,0,0.013l0,0c-0.008,4.279-3.479,7.767-7.76,7.767l0,0l-0.014,0.001
		v0.001h-18.127L281.021,21.37L281.021,21.37z"/>
	<path fill="#C2140D" d="M252.977,20.355c-1.442-1.433-2.729-3.103-2.728-5.327l0,0c0-0.024,0-0.042,0.003-0.059l0,0
		c0.028-4.265,3.488-7.705,7.756-7.705l0,0c0.035,0,0.056,0.003,0.012,0l0,0c4.28,0.008,7.767,3.477,7.767,7.759l0,0l0.001,0.013
		h0.001v18.129L252.977,20.355L252.977,20.355z"/>
	<path fill="#C2140D" d="M266.999,15.046c-0.01-2.031,0.263-4.122,1.836-5.694l0,0c0.018-0.018,0.033-0.029,0.043-0.04l0,0
		c3.036-2.994,7.916-2.981,10.934,0.035l0,0c0.023,0.025,0.036,0.043,0.009,0.01l0,0c3.019,3.032,3.032,7.949,0.004,10.979l0,0
		l-0.008,0.011h0.003l-12.818,12.819L266.999,15.046L266.999,15.046z"/>
</g>
<g id="Layer_5">
	<path fill="#005924" d="M204.322,20.741c0-0.011,0-0.019-0.002-0.024c-0.012-1.886-1.543-3.41-3.43-3.41
		c-0.017,0-0.025,0.002-0.007,0c-1.893,0.004-3.436,1.539-3.436,3.434v0.005h-0.001v8.021l5.668-5.667
		C203.754,22.465,204.322,21.727,204.322,20.741z M60.897,23.305c-8.433,0-15.27,6.837-15.27,15.27s6.837,15.27,15.27,15.27
		c6.592,0,12.19-4.185,14.329-10.035h-11.2c0,2.018-1.898,3.653-4.24,3.653c-2.341,0-4.239-1.636-4.239-3.653v-2.066h20.286
		c0.216-1.021,0.333-2.08,0.333-3.168C76.167,30.142,69.331,23.305,60.897,23.305z M59.866,37.863c-2.209,0-4-1.791-4-4
		s1.791-3.999,4-3.999s4,1.79,4,3.999S62.075,37.863,59.866,37.863z M157.098,23.305c-8.433,0-15.27,6.837-15.27,15.27
		s6.837,15.27,15.27,15.27c6.591,0,12.19-4.185,14.329-10.035h-11.2c0,2.018-1.898,3.653-4.24,3.653
		c-2.341,0-4.239-1.636-4.239-3.653v-2.066h20.286c0.217-1.021,0.334-2.08,0.334-3.168
		C172.367,30.142,165.531,23.305,157.098,23.305z M156.067,37.863c-2.209,0-4-1.791-4-4s1.791-3.999,4-3.999s4,1.79,4,3.999
		S158.276,37.863,156.067,37.863z M35.658,33.602c4.549,0,6.771-4.06,6.771-8.891c0-4.83-2.881-8.606-7.43-8.606H6.167v37.739
		h29.491c4.549,0,8.237-4.531,8.237-10.12C43.895,38.136,40.207,33.602,35.658,33.602z M23.391,22.436c2.209,0,4,1.863,4,4.164
		c0,2.3-1.791,4.163-4,4.163s-4-1.863-4-4.163C19.392,24.299,21.182,22.436,23.391,22.436z M23.791,47.587
		c-2.872,0-5.199-2.424-5.199-5.414s2.328-5.413,5.199-5.413s5.199,2.423,5.199,5.413S26.663,47.587,23.791,47.587z M131.57,38.803
		c-0.27-0.285-0.14-0.568-0.14-0.568l12.151-13.982h-12.798l-9.324,10.729V15.662h-11.092v38.182h11.092v-11.09l9.438,11.09h12.798
		L132.07,39.329C132.07,39.329,131.832,39.078,131.57,38.803z M187.396,24.984c0,0,0.054,3.18-0.133,4.143
		c-0.138,0.708-0.831,0.492-1.174,0.328v-3.688h-11.038v28.076h11.038V36.927c0.019-0.161,0.093-0.399,0.374-0.681
		c0.399-0.4,0.826-0.32,0.826-0.32l5.199,0.16c0,0,1.199,0,1.84-0.64c0.64-0.641,0.64-1.84,0.64-5.172
		c0-3.334-0.134-5.29-0.134-5.29H187.396z M93.542,45.382c-2.606,0-4.719-3.365-4.719-7.519c0-4.152,2.113-7.52,4.719-7.52
		c2.117,0,3.908,2.222,4.506,5.279h10.161c-1.375-7.019-7.556-12.318-14.979-12.318c-8.433,0-15.269,6.837-15.269,15.27
		s6.836,15.27,15.269,15.27c7.75,0,14.137-5.779,15.123-13.261H97.938C97.253,43.39,95.545,45.382,93.542,45.382z M221.927,36.993
		c-1.804-0.627-4.184-1.175-6.987-1.6c-1.842-0.28-5.679-0.388-5.625-3.52c0.031-1.835,1.479-2.96,3.6-2.96
		c3.319,0,3.852,3.332,3.852,3.332h10.438c0-1.635-3.599-8.398-15.117-8.398s-12.451,7.146-12.318,8.879
		c0.354,4.631,2.7,6.416,6.111,7.634c1.764,0.63,3.895,1.511,6.703,1.938c1.842,0.279,4.063,0.604,3.983,3.244
		c-0.056,1.835-1.639,2.64-3.76,2.64c-3.319,0-3.72-3.52-3.72-3.52h-10.438c0,1.92,3.6,9.182,15.118,9.182
		s13.276-7.222,13.238-8.959c-0.036-1.627,0.033-3.359-0.54-4.399C225.891,39.445,224.169,37.773,221.927,36.993z"/>
</g>
</svg>
