<?xml version="1.0" encoding="UTF-8"?>
<!-- Generator: Adobe Illustrator 17.0.0, SVG Export Plug-In . SVG Version: 6.00 Build 0)  -->
<!DOCTYPE svg PUBLIC "-//W3C//DTD SVG 1.1//EN" "http://www.w3.org/Graphics/SVG/1.1/DTD/svg11.dtd">
<svg version="1.1" id="Logo_Agentschap" xmlns="http://www.w3.org/2000/svg" xmlns:xlink="http://www.w3.org/1999/xlink" x="0px" y="0px" width="63.46px" height="35.296px" viewBox="0 0 63.46 35.296" enable-background="new 0 0 63.46 35.296" xml:space="preserve">
<rect x="0" y="0" fill="#00588E" width="17.647" height="35.296"/>
<path fill="#FFFFFF" d="M9.131,27.279H8.824v-0.851h0.307V27.279z M10.514,23.528h-0.307v-0.851h0.307V23.528z M4.833,22.061  c-0.023,0-0.182,0.001-0.182,0.033l0.182,0.035c0.246,0.042,0.342,0.166,0.514,0.166c0.156,0,0.317-0.106,0.254-0.332l-0.038-0.004  c-0.024,0.101-0.147,0.159-0.279,0.159C5.122,22.117,5.088,22.061,4.833,22.061z M3.142,22.911c0.027,0.038,0.316,0.413-0.128,0.557  l0.004,0.038c0.328,0.137,0.487-0.115,0.487-0.115c0.166,0.378-0.089,0.587-0.089,0.587c0.036,0.068,0.193,0.182,0.431,0.235  c0.091-0.048,0.218-0.141,0.27-0.283c0,0,0.064,0.165,0.005,0.323c0.671,0.061,0.908-0.475,1.424-0.378l0.022-0.023  c0-0.33-0.203-0.935-0.842-1.057c-0.638-0.123-0.466-0.385-0.466-0.385c0.27-0.013,0.425,0.104,0.425,0.104  c0.049-0.08-0.021-0.168-0.021-0.168c0.027-0.031,0.04-0.14,0.04-0.14c-0.303-0.001-0.382-0.065-0.382-0.065  C4.276,21.963,4.4,21.71,4.85,21.981c0.113-0.099,0.104-0.252,0.104-0.252c0.034-0.016,0.055-0.069,0.055-0.092  c0-0.075-0.359-0.275-0.452-0.3c-0.022-0.109-0.162-0.266-0.585-0.209c-0.2,0.024-0.344-0.028-0.277-0.144l-0.042-0.006  c-0.046,0.046-0.11,0.176,0.065,0.265c0.195,0.098,0.206,0.293,0.207,0.321c0.003,0.041-0.046,0.045-0.057,0.004  c-0.089-0.328-0.537-0.4-0.803-0.225c0.015,0.176,0.205,0.292,0.308,0.292c0.059,0,0.142-0.06,0.142-0.142l0.032-0.004  c0.044,0.118-0.128,0.358-0.385,0.211c-0.261,0.261-0.157,0.584-0.131,0.703c0.047,0.214-0.058,0.42-0.25,0.324l-0.019,0.014  C2.761,22.875,2.936,23.027,3.142,22.911z M4.582,21.593c-0.122,0.137-0.321,0.105-0.368-0.119  C4.464,21.461,4.572,21.486,4.582,21.593z M12.363,22.117c-0.131,0-0.255-0.059-0.278-0.159l-0.038,0.003  c-0.061,0.226,0.098,0.333,0.254,0.333c0.172,0,0.269-0.124,0.514-0.166c0.109-0.018,0.182-0.001,0.182-0.034l-0.182-0.033  C12.559,22.061,12.525,22.117,12.363,22.117z M14.886,22.741l-0.019-0.014c-0.192,0.096-0.297-0.111-0.249-0.323  c0.026-0.119,0.129-0.441-0.131-0.703c-0.257,0.146-0.43-0.094-0.385-0.211l0.032,0.004c0,0.082,0.083,0.141,0.142,0.141  c0.104,0,0.293-0.117,0.308-0.292c-0.266-0.175-0.714-0.104-0.804,0.224c-0.012,0.041-0.061,0.038-0.058-0.004  c0.002-0.028,0.013-0.222,0.207-0.321c0.175-0.089,0.111-0.218,0.065-0.265l-0.043,0.004c0.067,0.117-0.077,0.17-0.277,0.143  c-0.423-0.057-0.561,0.101-0.585,0.209c-0.093,0.024-0.452,0.225-0.452,0.3c0,0.023,0.021,0.076,0.055,0.091  c0,0-0.009,0.153,0.104,0.253c0.45-0.272,0.574-0.017,0.528,0.163c0,0-0.079,0.065-0.383,0.065c0,0,0.014,0.109,0.039,0.141  c0,0-0.069,0.087-0.019,0.168c0,0,0.155-0.118,0.424-0.104c0,0,0.171,0.262-0.467,0.384c-0.639,0.123-0.841,0.727-0.841,1.057  l0.021,0.023c0.517-0.096,0.754,0.44,1.424,0.378c-0.058-0.158,0.006-0.323,0.006-0.323c0.053,0.143,0.18,0.235,0.27,0.283  c0.238-0.053,0.395-0.167,0.43-0.235c0,0-0.253-0.21-0.088-0.587c0,0,0.159,0.252,0.487,0.116l0.003-0.039  c-0.445-0.143-0.155-0.519-0.128-0.557C14.711,23.027,14.886,22.875,14.886,22.741z M13.434,21.474  c-0.048,0.224-0.247,0.256-0.368,0.119C13.075,21.486,13.184,21.461,13.434,21.474z M8.706,17.707c0,0.056,0.024,0.106,0.044,0.135  c0.039,0.056,0.033,0.087,0.014,0.105c-0.019,0.019-0.05,0.025-0.106-0.014c-0.027-0.019-0.077-0.043-0.133-0.043  c-0.096,0-0.144,0.064-0.144,0.118c0,0.054,0.048,0.118,0.144,0.118c0.056,0,0.106-0.024,0.133-0.044  c0.057-0.039,0.088-0.033,0.106-0.014c0.018,0.019-0.009,0.213-0.031,0.365c-0.16,0.034-0.237,0.163-0.237,0.236  c0,0.193,0.206,0.304,0.327,0.368c0.12-0.064,0.327-0.176,0.327-0.368c0-0.075-0.077-0.203-0.237-0.236  c-0.022-0.153-0.05-0.347-0.031-0.365c0.018-0.018,0.049-0.025,0.105,0.014c0.028,0.019,0.077,0.044,0.133,0.044  c0.097,0,0.145-0.064,0.145-0.118c0-0.053-0.048-0.118-0.145-0.118c-0.056,0-0.105,0.024-0.133,0.043  c-0.056,0.039-0.088,0.033-0.105,0.014c-0.019-0.018-0.026-0.049,0.014-0.105c0.019-0.028,0.043-0.078,0.043-0.135  c0-0.096-0.064-0.145-0.118-0.145S8.706,17.61,8.706,17.707z M8.823,19.139c-0.13,0-0.235,0.104-0.235,0.235  c0,0.129,0.105,0.235,0.235,0.235c0.129,0,0.235-0.105,0.235-0.235C9.058,19.244,8.953,19.139,8.823,19.139z M8.823,21.399  c0.941,0,1.472,0.18,1.472,0.18c0.005-0.475,0.003-0.741,0.274-0.701c-0.148-0.4,0.493-0.557,0.493-1.077  c0-0.342-0.243-0.381-0.314-0.381c-0.213,0-0.18,0.138-0.361,0.138l-0.046,0.011c0,0.06,0.051,0.162,0.135,0.162  c0.111,0,0.114-0.112,0.195-0.112c0.037,0,0.088,0.029,0.088,0.143c0,0.221-0.145,0.467-0.317,0.657  c-0.039-0.054-0.093-0.089-0.157-0.089c-0.101,0-0.19,0.106-0.19,0.236l0.026,0.124c-0.058,0.032-0.108,0.049-0.146,0.049  c-0.078,0-0.194-0.031-0.194-0.2c0-0.378,0.505-0.709,0.505-1.186c0-0.228-0.152-0.456-0.471-0.456  c-0.342,0-0.277,0.312-0.574,0.312l-0.024,0.016c0,0.019,0.051,0.192,0.204,0.192c0.165,0,0.21-0.283,0.355-0.283  c0.054,0,0.135,0.033,0.135,0.223c0,0.149-0.074,0.391-0.18,0.622c-0.039-0.039-0.091-0.066-0.149-0.066  c-0.127,0-0.218,0.123-0.218,0.27c0,0.092,0.037,0.181,0.099,0.241c-0.074,0.095-0.15,0.173-0.253,0.173  c-0.205,0-0.295-0.116-0.295-0.242c0-0.136,0.249-0.186,0.249-0.4c0-0.144-0.094-0.226-0.185-0.226  c-0.097,0-0.147,0.065-0.157,0.065c-0.01,0-0.06-0.065-0.158-0.065c-0.091,0-0.185,0.082-0.185,0.226c0,0.214,0.249,0.263,0.249,0.4  c0,0.126-0.091,0.242-0.295,0.242c-0.104,0-0.18-0.078-0.254-0.173c0.063-0.059,0.099-0.148,0.099-0.241  c0-0.146-0.091-0.27-0.218-0.27c-0.059,0-0.111,0.028-0.149,0.066c-0.106-0.231-0.18-0.472-0.18-0.622  c0-0.192,0.081-0.223,0.135-0.223c0.145,0,0.191,0.283,0.354,0.283c0.153,0,0.204-0.172,0.204-0.192L8.401,19.21  c-0.296,0-0.232-0.312-0.574-0.312c-0.318,0-0.471,0.227-0.471,0.456c0,0.478,0.505,0.81,0.505,1.186c0,0.17-0.117,0.2-0.194,0.2  c-0.038,0-0.089-0.018-0.146-0.049l0.026-0.124c0-0.131-0.089-0.236-0.19-0.236c-0.064,0-0.118,0.034-0.156,0.089  c-0.171-0.19-0.317-0.436-0.317-0.657c0-0.114,0.053-0.143,0.088-0.143c0.083,0,0.085,0.112,0.196,0.112  c0.084,0,0.135-0.103,0.135-0.162l-0.046-0.011c-0.181,0-0.147-0.138-0.361-0.138c-0.072,0-0.314,0.039-0.314,0.381  c0,0.52,0.641,0.678,0.493,1.077c0.273-0.039,0.27,0.225,0.274,0.701C7.352,21.578,7.883,21.399,8.823,21.399z M7.099,22.101  c-0.256,0.056-0.44,0.109-0.522,0.135c0.004-0.113,0.047-0.218,0.148-0.241l0.004-0.029c-0.228-0.151-0.351,0.14-0.353,0.149  c-0.081-0.007-0.203,0.018-0.203,0.128c0,0.327-0.749,0.508-0.922,0.535c0.305,0.118,0.432,0.503,0.432,0.503  c0.221-0.221,0.482-0.417,0.538-0.417c0.059,0,0.081,0.074,0.086,0.118l0.024,0.008c0.116-0.173,0.06-0.212,0.051-0.263  c-0.008-0.04,0.004-0.193,0.173-0.174v2.182l-0.088,0.017c-0.039,0.007-0.358-0.264-0.724-0.517  c-0.365-0.252-0.561-0.101-0.978,0.123c-0.545,0.296-1.096,0.028-1.096,0.028c-0.47,0.336-0.631,1.306-0.631,1.306  c-0.093,0.04-0.248,0.083-0.396,0.083c-0.358,0-0.425-0.218-0.425-0.347c0-0.554,0.693-0.792,0.693-1.338  c0-0.132-0.061-0.671-0.728-0.671l-0.596-0.001c-0.249,0-0.312-0.18-0.347-0.248l-0.028,0.01l-0.029,0.254  c0,0.221,0.13,0.354,0.373,0.354c0.111,0,0.215-0.031,0.248-0.051l0.024,0.021c-0.106,0.123-0.114,0.353-0.071,0.41l0.026-0.001  c0.059-0.235,0.277-0.456,0.574-0.456c0.362,0,0.36,0.308,0.36,0.382c0,0.444-0.78,0.77-0.78,1.381c0,0.62,0.654,0.753,1.033,0.655  c-0.022,0.619-0.732,0.831-0.754,0.387l-0.028,0.003c-0.091,0.22-0.054,0.411,0.221,0.473l-0.008,0.026  c-0.274,0.175-0.124,0.859-0.111,1.06c0.02,0.29-0.268,0.255-0.292,0.247l-0.005,0.024c0.205,0.25,0.457,0.022,0.457,0.022  c0.191,0.06,0.072,0.222-0.055,0.307l0.004,0.028c0.028,0.002,0.324,0.027,0.377-0.208c0.131,0.156,0.324,0.099,0.363,0.079  c0.057-0.029,0.333-0.129,0.361,0.181l0.023-0.004c0.209-0.263-0.014-0.425-0.14-0.444c0.01-0.014,0.178-0.153,0.328,0.039  l0.021-0.011c0.018-0.333-0.253-0.364-0.43-0.219c-0.008-0.034-0.066-0.221,0.198-0.215l0.006-0.023  C3.3,27.661,3.13,27.859,3.092,27.907C3,28.015,2.771,27.972,2.751,27.969c0.072-1.16,1.093-0.748,1.234-1.312l0.023-0.008  c0.039,0.137,0.384,0.156,0.449-0.114l-0.011-0.016c-0.295,0.296-0.961-0.627-0.053-1.377c0.776-0.639,1.471-0.283,1.734-0.073  c0.014,0.092-0.041,0.123-0.076,0.134l0.003,0.023c0.074,0.028,0.178,0.019,0.226-0.05c0.167,0.116,0.024,0.263-0.043,0.303  l0.005,0.026c0.153,0.027,0.278-0.129,0.285-0.219L6.553,25.3v0.659c0,0.938,1.082,1.068,2.269,1.864  c1.187-0.795,2.268-0.925,2.268-1.864V25.3l0.026-0.014c0.006,0.091,0.132,0.247,0.285,0.219l0.004-0.026  c-0.066-0.04-0.21-0.187-0.043-0.303c0.049,0.068,0.153,0.078,0.226,0.05l0.003-0.023c-0.035-0.011-0.091-0.041-0.076-0.134  c0.264-0.211,0.959-0.567,1.734,0.073c0.908,0.75,0.243,1.672-0.053,1.377l-0.011,0.018c0.064,0.271,0.41,0.251,0.449,0.114  l0.023,0.008c0.14,0.562,1.16,0.152,1.233,1.312c-0.021,0.003-0.249,0.046-0.341-0.063c-0.039-0.048-0.208-0.246-0.415-0.028  l0.006,0.023c0.265-0.007,0.206,0.181,0.198,0.215c-0.175-0.145-0.446-0.115-0.43,0.219l0.022,0.011  c0.151-0.193,0.318-0.054,0.328-0.039c-0.124,0.019-0.348,0.181-0.14,0.444l0.024,0.004c0.028-0.311,0.304-0.21,0.361-0.181  c0.04,0.021,0.233,0.078,0.363-0.079c0.053,0.235,0.348,0.21,0.377,0.208l0.003-0.028c-0.127-0.085-0.246-0.248-0.054-0.307  c0,0,0.252,0.228,0.456-0.022l-0.005-0.024c-0.024,0.009-0.312,0.043-0.292-0.247c0.013-0.201,0.162-0.885-0.113-1.059l-0.008-0.026  c0.276-0.062,0.312-0.254,0.222-0.473l-0.028-0.003c-0.022,0.444-0.732,0.233-0.754-0.387c0.378,0.098,1.033-0.035,1.033-0.655  c0-0.611-0.78-0.936-0.78-1.381c0-0.074-0.003-0.382,0.359-0.382c0.296,0,0.515,0.221,0.574,0.456l0.026,0.001  c0.043-0.056,0.035-0.287-0.07-0.41l0.023-0.021c0.034,0.019,0.138,0.051,0.248,0.051c0.243,0,0.373-0.133,0.373-0.354l-0.025-0.256  l-0.029-0.01c-0.036,0.068-0.098,0.248-0.347,0.248l-0.596,0.001c-0.666,0-0.727,0.538-0.727,0.671c0,0.546,0.693,0.783,0.693,1.338  c0,0.129-0.065,0.347-0.425,0.347c-0.147,0-0.302-0.042-0.395-0.083c0,0-0.16-0.97-0.631-1.306c0,0-0.551,0.268-1.096-0.028  c-0.417-0.225-0.612-0.377-0.978-0.123c-0.365,0.253-0.684,0.524-0.724,0.517l-0.088-0.017V22.55  c0.17-0.017,0.181,0.134,0.174,0.174c-0.01,0.051-0.065,0.09,0.051,0.263l0.023-0.008c0.005-0.043,0.027-0.118,0.087-0.118  c0.057,0,0.317,0.195,0.537,0.417c0,0,0.128-0.384,0.432-0.503c-0.173-0.026-0.921-0.208-0.921-0.535  c0-0.109-0.123-0.135-0.204-0.128c-0.004-0.01-0.126-0.3-0.354-0.149l0.004,0.029c0.101,0.023,0.144,0.128,0.148,0.241  c-0.218-0.066-1.147-0.327-2.247-0.327c-0.534,0-1.027,0.062-1.418,0.132v0.756H7.097v-0.696L7.099,22.101 M5.068,29.848  c-0.081-0.033-0.135-0.085-0.135-0.192v-0.469c-0.135-0.048-0.502-0.188-1.237-0.188c-0.61,0-0.8,0.138-0.809,0.186l-0.163,0.895  c0,0,0.247-0.225,1.132-0.168c1.065,0.067,2.169,0.696,2.169,0.026v-0.393C5.189,29.544,5.068,29.809,5.068,29.848z M11.622,29.544  v0.393c0,0.67,1.104,0.041,2.169-0.026c0.885-0.059,1.132,0.168,1.132,0.168l-0.162-0.895c-0.009-0.048-0.2-0.186-0.81-0.186  c-0.733,0-1.102,0.141-1.237,0.188v0.469c0,0.107-0.054,0.16-0.135,0.192C12.579,29.809,12.458,29.544,11.622,29.544z M8.823,29.137  c1.715,0,3.457,0.09,3.686,0.348l0.026-0.015v-0.91c0-0.265-1.797-0.419-3.712-0.419s-3.712,0.155-3.712,0.419v0.91l0.026,0.015  C5.366,29.227,7.108,29.137,8.823,29.137z M7.293,24.851L7.12,24.806l-0.014,0.022l-0.201-0.089l0.18-0.001l0.01-0.019l-0.154-0.15  l0.199,0.073l0.012-0.013l-0.133-0.195l0.195,0.131l0.014-0.011l-0.092-0.228l0.178,0.169l0.015-0.009L7.28,24.256l0.131,0.191  l0.018-0.006l0.004-0.208l0.083,0.191l0.023-0.003l0.066-0.161l0.008,0.217l-0.029,0.006l-0.036,0.261  c0.259-0.061,0.582-0.504,0.829-0.504c0.295,0,0.402,0.345,0.947,0.17c0.138,0.203,0.185,0.379,0.238,0.624  c0.211,0.198,0.505,0.132,0.505-0.077c0-0.282-0.307-0.336-0.307-0.631c0-0.131,0.091-0.32,0.343-0.32l0.44,0.057  c0.133,0,0.161-0.096,0.176-0.136c0.013-0.03,0.049-0.02,0.045,0.003l0.015,0.129c0,0.186-0.271,0.21-0.303,0.187l-0.014,0.013  c0.041,0.033,0.031,0.143-0.017,0.215l-0.015-0.001c-0.028-0.133-0.185-0.299-0.323-0.299c-0.051,0-0.151,0.029-0.151,0.146  c0,0.168,0.335,0.32,0.335,0.667c0,0.36-0.357,0.447-0.716,0.357c0.013,0.342,0.522,0.545,0.534,0.3l0.015,0.001  c0.075,0.104,0.041,0.184-0.056,0.224c0.089,0.039,0.105,0.22,0.131,0.326c0.039,0.16,0.209,0.071,0.218,0.067l0.009,0.01  c-0.065,0.168-0.236,0.104-0.236,0.104c-0.09,0.064,0.019,0.119,0.1,0.144l0.003,0.015c-0.061,0.022-0.189,0.062-0.25-0.046  c-0.046,0.111-0.142,0.109-0.178,0.109c-0.065,0-0.109,0.066-0.093,0.156L9.76,26.762c-0.156-0.104-0.066-0.226-0.003-0.256  c-0.011-0.008-0.119-0.052-0.165,0.074l-0.013,0.001c-0.068-0.182,0.081-0.235,0.188-0.19c-0.008-0.026-0.064-0.114-0.205-0.086  l-0.007-0.01c0.023-0.056,0.093-0.139,0.221-0.054c0.065,0.04,0.178-0.019,0.189-0.024c-0.228-0.454-0.672-0.074-0.771-0.43  l-0.016,0.005c-0.024,0.076-0.218,0.081-0.252-0.068l0.009-0.006c0.028,0.029,0.089,0.054,0.169-0.061  c0.053-0.077,0.061-0.178,0.061-0.248c0-0.276-0.276-0.741-0.706-0.741c-0.273,0-0.564,0.106-0.781,0.264L7.88,24.98  c-0.019,0.205-0.215,0.324-0.396,0.274l0.031-0.234c-0.031,0.011-0.111,0.039-0.153,0.098l-0.012-0.003  c-0.037-0.132,0.073-0.198,0.106-0.216l-0.003-0.005c-0.099-0.004-0.154,0.068-0.17,0.093H7.277  C7.265,24.967,7.248,24.899,7.293,24.851z M7.894,26.429c-0.078,0.094-0.145,0.004-0.248,0.004c-0.096,0-0.112,0.08-0.114,0.112  l-0.008,0.003c-0.108-0.148,0.013-0.228,0.083-0.24c-0.011-0.011-0.117-0.082-0.185,0.016L7.411,26.32  c-0.003-0.183,0.143-0.196,0.238-0.116c0.016-0.069-0.028-0.116-0.105-0.119l-0.007-0.01c0.033-0.036,0.064-0.051,0.095-0.051  c0.103,0,0.116,0.128,0.182,0.128c0.1,0,0.242-0.135,0.255-0.149c-0.003-0.008-0.098-0.266-0.079-0.422l-0.007-0.004  c-0.048,0.027-0.17,0.026-0.17-0.125l0.01-0.003c0.054,0.074,0.141-0.01,0.185-0.059c0.047-0.053,0.299-0.419,0.635-0.419  c0.074,0,0.17,0.04,0.247,0.094c-0.117,0.141-0.001,0.275,0.085,0.259l0.003,0.011c-0.444,0.167-0.642,0.234-0.642,0.606  c0,0.195,0.066,0.302,0.18,0.277l0.005,0.008c-0.04,0.049-0.089,0.065-0.128,0.065c-0.091,0-0.109-0.05-0.158-0.05  c-0.051,0-0.217,0.096-0.217,0.178c0,0.031,0.019,0.073,0.078,0.111l-0.002,0.006C8.056,26.542,7.924,26.552,7.894,26.429z   M9.063,22.814c-0.139-0.008-0.228,0.023-0.223,0.067C8.906,22.951,8.997,22.944,9.063,22.814z M8.551,23.157  c0.099-0.024,0.206-0.013,0.218-0.009l-0.003,0.031c-0.205,0.026-0.215,0.12-0.344,0.12c-0.087,0-0.18-0.087-0.144-0.214L8.3,23.083  C8.311,23.139,8.39,23.199,8.551,23.157z M5.896,27.692c0.136,0.173,0.266,0.01,0.444,0.01c0.087,0,0.193,0.029,0.213,0.203h0.017  c0.194-0.264-0.027-0.414-0.154-0.432c0.027-0.025,0.217-0.142,0.336,0.031l0.021-0.006c0-0.335-0.251-0.358-0.434-0.214  c-0.033-0.129,0.065-0.216,0.191-0.216l0.013-0.019c-0.224-0.24-0.392,0.063-0.43,0.111c-0.09,0.119-0.41-0.104-0.538-0.238  c0,0,0.283-0.297,0.283-0.568l-0.002-0.048l0.012-0.007l0.105,0.027c0.065,0,0.187-0.021,0.187-0.25l-0.015-0.006  c-0.034,0.049-0.07,0.06-0.099,0.06c-0.228,0-0.705-0.763-1.268-0.763c-0.146,0-0.425,0.106-0.566,0.258  c0.068,0.04,0.081,0.122,0.074,0.183c-0.011,0.097-0.088,0.145-0.166,0.167v0.019c0.285,0.108,0.801,0.304,0.918,0.405  c0.14,0.119,0.113,0.347,0.032,0.66c-0.078,0.3-0.245,0.26-0.305,0.249l-0.006,0.012c0.073,0.092,0.163,0.123,0.239,0.123  c0.148,0,0.203-0.091,0.279-0.091c0.129,0,0.398,0.184,0.398,0.325c0,0.079-0.062,0.15-0.141,0.201l0.004,0.012  C5.595,27.896,5.848,27.917,5.896,27.692L5.896,27.692z M12.113,27.885l0.004-0.011c-0.079-0.051-0.141-0.123-0.141-0.201  c0-0.141,0.27-0.325,0.398-0.325c0.076,0,0.132,0.091,0.279,0.091c0.076,0,0.166-0.031,0.239-0.123l-0.006-0.011  c-0.061,0.01-0.228,0.051-0.305-0.25c-0.08-0.313-0.108-0.54,0.032-0.661c0.118-0.101,0.634-0.297,0.918-0.405v-0.02  c-0.078-0.022-0.155-0.069-0.166-0.166c-0.007-0.06,0.006-0.143,0.074-0.183c-0.141-0.152-0.419-0.258-0.566-0.258  c-0.563,0-1.04,0.763-1.268,0.763c-0.028,0-0.066-0.011-0.099-0.059l-0.015,0.006c0,0.23,0.122,0.25,0.187,0.25l0.105-0.027  l0.011,0.007l-0.002,0.048c0,0.272,0.283,0.567,0.283,0.567c-0.128,0.134-0.449,0.358-0.537,0.238  c-0.038-0.048-0.206-0.351-0.43-0.11l0.013,0.019c0.126,0,0.225,0.086,0.191,0.216c-0.182-0.145-0.432-0.121-0.432,0.213  l0.019,0.006c0.119-0.171,0.309-0.056,0.337-0.031c-0.127,0.019-0.348,0.17-0.154,0.433h0.016c0.02-0.174,0.126-0.204,0.212-0.204  c0.178,0,0.308,0.164,0.444-0.01C11.8,27.917,12.052,27.896,12.113,27.885z M7.56,23.488c-0.018,0.025-0.077-0.001-0.1-0.012  L7.456,23.48c0.014,0.032,0.072,0.128,0.156,0.128c0.039,0,0.094-0.023,0.11-0.048c0,0,0.331,0.108,0.495,0.153  c-0.064,0.084-0.103,0.186-0.112,0.298c-0.132-0.081-0.661-0.365-0.661-0.365L7.281,23.87c-0.027,0.037-0.158-0.059-0.131-0.096  l0.124-0.171c-0.041-0.044-0.141-0.016-0.169-0.009l-0.004-0.008c0.016-0.034,0.078-0.138,0.234-0.091  c0-0.094-0.141-0.065-0.178-0.054l-0.002-0.006c0.039-0.041,0.153-0.134,0.282-0.058l0.056-0.078L7.38,23.182l0.071-0.098  l0.079,0.108l0.611-0.836c0.014-0.021,0.136-0.056,0.181-0.066c0.005,0.047,0.01,0.172-0.004,0.193l-0.6,0.843l0.126,0.041  l-0.069,0.098l-0.15-0.069L7.56,23.488L7.56,23.488z M9.7,23.351c0,0.077,0.048,0.189,0.149,0.156l0.009,0.004  c-0.015,0.086-0.168,0.163-0.237,0.063c-0.063,0.129-0.048,0.251,0.086,0.325v0.02c-0.079,0.058-0.203,0.045-0.261-0.066  c-0.109,0.083-0.093,0.258-0.027,0.318c0,0-0.303,0.18-0.579,0.051c-0.182-0.088-0.33-0.199-0.566-0.181  c0.033-0.33,0.198-0.417,0.5-0.464c0.243-0.039,0.273-0.15,0.239-0.235c-0.083-0.022-0.233,0.054-0.233,0.054  c-0.027-0.044,0.013-0.092,0.013-0.092l-0.023-0.079c0.17,0,0.198-0.038,0.198-0.038C9,23.013,8.82,22.993,8.683,23.089  c-0.064-0.056-0.054-0.131-0.054-0.131l-0.031-0.052c0-0.041,0.201-0.155,0.253-0.168c0.013-0.059,0.087-0.14,0.3-0.121  c0.026-0.056-0.015-0.263-0.041-0.318l0.023-0.014l0.198,0.225c0,0,0.24-0.126,0.251-0.119c0.011,0.006,0.045,0.274,0.045,0.274  l0.298,0.036l0.001,0.026c-0.061,0.011-0.254,0.094-0.286,0.146C9.752,23.039,9.7,23.284,9.7,23.351z"/>
<g>
	<path d="M21.779,22.691c0.213-0.05,0.363-0.181,0.363-0.463v-3.076l-0.394-0.131v-0.138c0.394-0.075,0.656-0.088,1.251-0.088   c0.906,0,1.344,0.331,1.344,0.925c0,0.475-0.425,0.913-0.913,1.007v0.006c0.656,0,1.088,0.363,1.088,0.945   c0,0.681-0.638,1.212-1.607,1.212c-0.444,0-0.794-0.013-1.132-0.081C21.779,22.809,21.779,22.691,21.779,22.691z M23.774,19.776   c0-0.4-0.275-0.644-0.819-0.644c-0.088,0-0.175,0.006-0.282,0.019v1.488C23.356,20.639,23.774,20.32,23.774,19.776z M23.005,22.546   c0.507,0,0.919-0.337,0.919-0.813c0-0.525-0.363-0.794-1.05-0.794h-0.2v1.582C22.799,22.54,22.886,22.546,23.005,22.546z"/>
	<path d="M26.365,19.789c0.675,0,1.082,0.45,1.082,1.169c0,0.119,0,0.245-0.006,0.401h-1.844c0,0.7,0.407,1.107,0.925,1.107   c0.306,0,0.644-0.106,0.881-0.269c0.013,0.031,0.025,0.1,0.025,0.163c0,0.282-0.412,0.544-1.075,0.544   c-0.713,0-1.294-0.557-1.294-1.432C25.058,20.383,25.714,19.789,26.365,19.789z M26.946,21.033c0-0.613-0.262-0.906-0.631-0.906   c-0.344,0-0.706,0.412-0.706,0.906H26.946z"/>
	<path d="M27.947,22.702c0.163-0.063,0.332-0.188,0.332-0.337v-3.627l-0.407-0.17v-0.138c0.282-0.081,0.576-0.113,0.751-0.113h0.2   l-0.031,0.35v3.876l0.35,0.094v0.118c-0.213,0.075-0.413,0.106-0.726,0.106c-0.15,0-0.325-0.013-0.469-0.056V22.702z"/>
	<path d="M31.162,21.19v-0.17c0-0.675-0.163-0.82-0.556-0.82c-0.344,0-0.676,0.144-0.938,0.407   c-0.013-0.063-0.019-0.119-0.019-0.188c0-0.4,0.294-0.631,1.025-0.631c0.632,0,1.007,0.319,1.007,0.838   c0,0.138-0.019,0.45-0.025,0.632l-0.019,1.013c0.044,0.113,0.138,0.231,0.25,0.319c-0.093,0.113-0.262,0.237-0.425,0.319   c-0.118-0.075-0.213-0.175-0.287-0.307c-0.175,0.169-0.513,0.3-0.845,0.3c-0.469,0-0.794-0.295-0.794-0.694   C29.536,21.658,30.136,21.19,31.162,21.19z M30.562,22.528c0.194,0,0.444-0.076,0.6-0.17v-0.875c-0.706,0-1.088,0.295-1.088,0.632   C30.074,22.365,30.243,22.528,30.562,22.528z"/>
	<path d="M32.389,22.133c0.281,0.263,0.55,0.395,0.881,0.395c0.35,0,0.532-0.17,0.532-0.388c0-0.22-0.125-0.356-0.538-0.532   l-0.312-0.131c-0.363-0.156-0.562-0.419-0.562-0.775c0-0.494,0.437-0.92,1.087-0.92c0.5,0,0.701,0.15,0.701,0.388   c0,0.093-0.013,0.175-0.032,0.263c-0.2-0.138-0.475-0.238-0.713-0.238c-0.4,0-0.587,0.175-0.587,0.387   c0,0.225,0.113,0.351,0.487,0.494l0.338,0.131c0.45,0.175,0.619,0.406,0.619,0.775c0,0.482-0.462,0.92-1.163,0.92   c-0.55,0-0.794-0.175-0.794-0.513C32.333,22.302,32.352,22.203,32.389,22.133z"/>
	<path d="M35.01,21.102l0.019-0.831h-0.344v-0.206l0.675-0.669l0.206-0.025l-0.025,0.562h0.825l-0.044,0.338h-0.8l-0.013,0.788   c-0.006,0.263-0.006,0.5-0.006,0.732c0,0.507,0.15,0.682,0.381,0.682c0.181,0,0.338-0.063,0.462-0.163l0.063,0.025   c-0.025,0.369-0.245,0.557-0.676,0.557c-0.5,0-0.744-0.263-0.744-0.87C34.991,21.721,35.004,21.389,35.01,21.102z"/>
	<path d="M36.681,22.702c0.169-0.063,0.331-0.188,0.331-0.337v-2.114l-0.4-0.169v-0.131c0.282-0.081,0.569-0.119,0.744-0.119h0.2   l-0.031,0.338v2.376l0.35,0.094v0.118c-0.213,0.075-0.406,0.106-0.725,0.106c-0.144,0-0.326-0.013-0.469-0.056L36.681,22.702   L36.681,22.702z M36.943,18.901c0-0.195,0.138-0.369,0.356-0.369c0.175,0,0.325,0.131,0.325,0.337c0,0.219-0.15,0.388-0.35,0.388   C37.087,19.257,36.943,19.107,36.943,18.901z"/>
	<path d="M38.382,22.702c0.163-0.063,0.331-0.188,0.331-0.337v-2.114l-0.406-0.169v-0.138c0.288-0.081,0.569-0.113,0.75-0.113h0.15   v0.338c0.213-0.213,0.562-0.35,0.925-0.35c0.519,0,0.875,0.331,0.875,0.975v1.751l0.326,0.094v0.118   c-0.17,0.068-0.388,0.106-0.657,0.106c-0.131,0-0.282-0.013-0.406-0.056v-0.106c0.156-0.068,0.225-0.188,0.225-0.413v-1.194   c0-0.612-0.256-0.845-0.625-0.845c-0.256,0-0.507,0.088-0.644,0.195v2.1l0.35,0.094v0.118c-0.213,0.075-0.413,0.106-0.725,0.106   c-0.15,0-0.326-0.013-0.469-0.056C38.382,22.807,38.382,22.702,38.382,22.702z"/>
	<path d="M42.354,21.896V21.89c-0.282-0.113-0.562-0.438-0.562-0.87c0-0.701,0.562-1.238,1.244-1.238   c0.256,0,0.569,0.106,0.676,0.206c0.113-0.106,0.35-0.2,0.55-0.2c0.106,0,0.206,0.019,0.269,0.038l-0.043,0.413   c-0.2-0.044-0.425-0.069-0.669-0.069v0.007c0.206,0.156,0.356,0.425,0.356,0.681c0,0.725-0.594,1.219-1.269,1.219   c-0.138,0-0.282-0.031-0.388-0.074c-0.093,0.056-0.2,0.188-0.2,0.3c0,0.188,0.156,0.288,0.4,0.288l0.875-0.006   c0.525-0.006,0.82,0.237,0.82,0.7c0,0.594-0.657,1.094-1.525,1.094c-0.788,0-1.194-0.319-1.194-0.731   c0-0.332,0.256-0.601,0.594-0.694v-0.007c-0.231-0.081-0.368-0.25-0.368-0.487C41.918,22.221,42.116,21.977,42.354,21.896z    M42.967,24.016c0.594,0,0.988-0.294,0.988-0.594c0-0.244-0.163-0.382-0.462-0.382h-1.007c-0.181,0.082-0.319,0.288-0.319,0.501   C42.166,23.797,42.442,24.016,42.967,24.016z M43.623,20.877c0-0.525-0.294-0.776-0.626-0.776c-0.356,0-0.657,0.338-0.657,0.882   c0,0.525,0.294,0.781,0.601,0.781C43.323,21.765,43.623,21.489,43.623,20.877z"/>
	<path d="M46.226,19.795c0.15,0,0.331,0.019,0.431,0.043v-1.1l-0.425-0.17v-0.138c0.288-0.081,0.594-0.113,0.775-0.113h0.2   l-0.038,0.35v3.583c0.044,0.125,0.119,0.256,0.238,0.362c-0.124,0.113-0.263,0.2-0.437,0.295c-0.125-0.1-0.238-0.245-0.3-0.375   c-0.2,0.206-0.544,0.356-0.8,0.356c-0.632,0-1.138-0.525-1.138-1.357C44.732,20.408,45.413,19.795,46.226,19.795z M46.664,22.283   v-2.07c-0.106-0.037-0.287-0.068-0.456-0.068c-0.532,0-0.931,0.419-0.931,1.288c0,0.682,0.357,1.051,0.75,1.051   C46.263,22.484,46.52,22.403,46.664,22.283z"/>
	<path d="M47.978,22.702c0.169-0.063,0.331-0.188,0.331-0.337v-2.114l-0.4-0.169v-0.131c0.282-0.081,0.569-0.119,0.744-0.119h0.2   l-0.031,0.338v2.376l0.35,0.094v0.118c-0.213,0.075-0.406,0.106-0.725,0.106c-0.144,0-0.326-0.013-0.469-0.056L47.978,22.702   L47.978,22.702z M48.241,18.901c0-0.195,0.138-0.369,0.356-0.369c0.175,0,0.325,0.131,0.325,0.337c0,0.219-0.15,0.388-0.35,0.388   C48.385,19.257,48.241,19.107,48.241,18.901z"/>
	<path d="M50.93,19.789c0.675,0,1.082,0.45,1.082,1.169c0,0.119,0,0.245-0.006,0.401h-1.844c0,0.7,0.406,1.107,0.925,1.107   c0.306,0,0.644-0.106,0.881-0.269c0.013,0.031,0.025,0.1,0.025,0.163c0,0.282-0.413,0.544-1.076,0.544   c-0.713,0-1.294-0.557-1.294-1.432C49.623,20.383,50.28,19.789,50.93,19.789z M51.512,21.033c0-0.613-0.263-0.906-0.632-0.906   c-0.344,0-0.706,0.412-0.706,0.906H51.512z"/>
	<path d="M52.514,22.702c0.163-0.063,0.331-0.188,0.331-0.337v-2.114l-0.406-0.169v-0.138c0.288-0.081,0.569-0.113,0.75-0.113h0.15   v0.338c0.213-0.213,0.562-0.35,0.925-0.35c0.519,0,0.875,0.331,0.875,0.975v1.751l0.326,0.094v0.118   c-0.17,0.068-0.388,0.106-0.657,0.106c-0.131,0-0.282-0.013-0.406-0.056v-0.106c0.156-0.068,0.225-0.188,0.225-0.413v-1.194   c0-0.612-0.256-0.845-0.625-0.845c-0.256,0-0.507,0.088-0.644,0.195v2.1l0.35,0.094v0.118c-0.213,0.075-0.413,0.106-0.725,0.106   c-0.15,0-0.326-0.013-0.469-0.056C52.514,22.807,52.514,22.702,52.514,22.702z"/>
	<path d="M55.917,22.133c0.281,0.263,0.55,0.395,0.881,0.395c0.35,0,0.532-0.17,0.532-0.388c0-0.22-0.125-0.356-0.538-0.532   l-0.312-0.131c-0.363-0.156-0.562-0.419-0.562-0.775c0-0.494,0.437-0.92,1.087-0.92c0.5,0,0.701,0.15,0.701,0.388   c0,0.093-0.013,0.175-0.032,0.263c-0.2-0.138-0.475-0.238-0.713-0.238c-0.4,0-0.587,0.175-0.587,0.387   c0,0.225,0.113,0.351,0.487,0.494l0.338,0.131c0.45,0.175,0.619,0.406,0.619,0.775c0,0.482-0.462,0.92-1.163,0.92   c-0.55,0-0.794-0.175-0.794-0.513C55.861,22.302,55.879,22.203,55.917,22.133z"/>
	<path d="M58.538,21.102l0.019-0.831h-0.344v-0.206l0.675-0.669l0.206-0.025l-0.025,0.562h0.825L59.85,20.27h-0.8l-0.013,0.788   c-0.006,0.263-0.006,0.5-0.006,0.732c0,0.507,0.15,0.682,0.381,0.682c0.181,0,0.338-0.063,0.462-0.163l0.063,0.025   c-0.025,0.369-0.245,0.557-0.676,0.557c-0.5,0-0.744-0.263-0.744-0.87C58.519,21.721,58.532,21.389,58.538,21.102z"/>
</g>
</svg>