<?xml version="1.0" encoding="UTF-8" standalone="no"?>
<!-- Created with Inkscape (http://www.inkscape.org/) -->
<!DOCTYPE svg PUBLIC "-//W3C//DTD SVG 1.1//EN" "http://www.w3.org/Graphics/SVG/1.1/DTD/svg11.dtd">
<svg
   xmlns:dc="http://purl.org/dc/elements/1.1/"
   xmlns:cc="http://creativecommons.org/ns#"
   xmlns:rdf="http://www.w3.org/1999/02/22-rdf-syntax-ns#"
   xmlns:svg="http://www.w3.org/2000/svg"
   xmlns="http://www.w3.org/2000/svg"
   xmlns:xlink="http://www.w3.org/1999/xlink"
   version="1.1"
   width="400"
   height="61.3424"
   id="svg2985"
   xml:space="preserve"><metadata
     id="metadata2991"><rdf:RDF><cc:Work
         rdf:about=""><dc:format>image/svg+xml</dc:format><dc:type
           rdf:resource="http://purl.org/dc/dcmitype/StillImage" /><dc:title></dc:title></cc:Work></rdf:RDF></metadata><defs
     id="defs2989"><linearGradient
       id="linearGradient9024"><stop
         id="stop9026"
         style="stop-color:#d20037;stop-opacity:1"
         offset="0" /><stop
         id="stop9028"
         style="stop-color:#ca0030;stop-opacity:1"
         offset="1" /></linearGradient><linearGradient
       x1="365.81805"
       y1="76.169716"
       x2="533.07507"
       y2="76.169716"
       id="linearGradient9032"
       xlink:href="#linearGradient9024"
       gradientUnits="userSpaceOnUse"
       gradientTransform="matrix(0.82720918,0,0,1.0547706,-12.123432,-843.24501)" /><linearGradient
       x1="365.81805"
       y1="76.169716"
       x2="533.07507"
       y2="76.169716"
       id="linearGradient9055"
       xlink:href="#linearGradient9024"
       gradientUnits="userSpaceOnUse"
       gradientTransform="matrix(0.82720918,0,0,1.0547706,-12.123432,-843.24501)" /></defs><g
     transform="matrix(1.25,0,0,-1.25,-363.10583,1001.7106)"
     id="g2993"><g
       transform="matrix(2.3128646,0,0,2.3128646,-381.367,-987.66081)"
       id="g9043"><rect
         width="138.35657"
         height="21.21781"
         x="290.48465"
         y="-773.51233"
         transform="scale(1,-1)"
         id="rect8254"
         style="fill:url(#linearGradient9055);fill-opacity:1;stroke:none" /><path
         d="m 313.94382,758.35503 0,3.63445 6.24479,0 0,3.10036 -6.24479,0 0,2.53957 7.89511,0 0,3.16712 -11.86336,0 0,-15.76618 12.5323,0 0,3.32468 -8.56405,0 z"
         id="path7575"
         style="fill:white;fill-opacity:1;fill-rule:nonzero;stroke:none" /><path
         d="m 349.57795,770.77517 0,-9.41057 -5.7334,9.41057 -3.85742,0 0,-15.74482 3.77063,0 0,9.43327 4.82279,-8.00192 5.64661,14.31347 -4.64921,0 z"
         id="path7579"
         style="fill:white;fill-opacity:1;fill-rule:nonzero;stroke:none" /><path
         d="m 367.09593,770.77517 -2.40605,-9.49736 -2.54358,9.49736 -5.35153,0 0,-15.74482 3.63712,0 0,10.36926 2.9428,-10.36926 2.60767,0 2.90008,10.36926 0,-10.36926 3.61308,0 0,15.74482 -5.39959,0 z"
         id="path7583"
         style="fill:white;fill-opacity:1;fill-rule:nonzero;stroke:none" /><path
         d="m 412.06986,770.77517 -4.10578,0 0,-15.74482 4.10578,0.003 0,15.74215 z"
         id="path7587"
         style="fill:white;fill-opacity:1;fill-rule:nonzero;stroke:none" /><path
         d="m 419.33087,758.55398 0,12.24255 -4.07773,0 0,-15.76618 10.63629,0 0,3.52363 -6.55856,0 z"
         id="path7591"
         style="fill:white;fill-opacity:1;fill-rule:nonzero;stroke:none" /><path
         d="m 324.42523,770.77517 0,-15.74482 4.01365,0 0,5.3088 2.05089,0 2.85468,-5.3088 4.37148,0 -3.21118,5.95772 c 2.13901,0.68897 3.18848,2.56227 3.18848,4.54639 0,1.71842 -0.71167,3.0563 -1.65165,3.87879 -1.5809,1.36192 -3.69988,1.36192 -5.43966,1.36192 l -6.17669,0 z m 5.57451,-3.27928 c 1.00408,0 2.16305,-0.02 2.78659,-0.42326 0.26838,-0.17759 0.7584,-0.62221 0.7584,-1.56087 0,-0.6222 -0.24434,-1.3806 -1.04814,-1.73844 -0.55678,-0.26838 -1.22573,-0.26838 -2.69579,-0.26838 l -1.36192,0.0227 0,3.96825 1.56086,0 z"
         id="path7595"
         style="fill:white;fill-opacity:1;fill-rule:evenodd;stroke:none" /><path
         d="m 382.19049,771.04221 c -1.426,0 -3.34604,-0.2884 -5.12854,-1.78518 -2.47415,-2.09361 -2.74253,-4.83747 -2.74253,-6.30887 0,-2.14168 0.69164,-4.26066 2.16438,-5.84289 2.00549,-2.14168 4.43424,-2.34062 5.70669,-2.34062 1.44871,0 3.36607,0.28974 5.12855,1.78117 2.47682,2.12031 2.72116,4.88554 2.72116,6.31154 0,4.41822 -2.87604,8.18485 -7.84971,8.18485 m 0,-3.43283 c 2.52088,0.0441 3.61309,-2.09762 3.61309,-4.72798 0,-1.31652 -0.24702,-2.67577 -1.13627,-3.63578 -0.4019,-0.44463 -1.20436,-1.04814 -2.47682,-1.04814 -2.45278,0 -3.63444,2.09494 -3.63444,4.83747 0,2.58897 1.22572,4.52903 3.63444,4.57443"
         id="path7599"
         style="fill:white;fill-opacity:1;fill-rule:evenodd;stroke:none" /><path
         d="m 391.89214,770.77517 0,-15.74482 8.18351,0 c 1.55953,0.024 4.05771,0.0441 5.10719,2.38603 0.26704,0.60351 0.38053,1.24975 0.38053,1.87597 0,0.89058 -0.22431,2.56227 -1.80787,3.54365 -0.66894,0.4246 -1.13894,0.46732 -1.5849,0.49269 0.55812,0.0641 1.5168,0.17625 2.2979,1.22306 0.42326,0.60485 0.62354,1.33921 0.62354,2.05222 0,1.18299 -0.42192,2.24983 -1.15896,2.94547 -1.27112,1.20437 -3.12173,1.22573 -5.17395,1.22573 l -6.86699,0 z m 7.15807,-3.29931 c 0.713,0 2.09628,-0.0227 2.09628,-1.4487 0,-1.29516 -1.31652,-1.31786 -2.00816,-1.33789 l -3.2766,0 0,2.78659 3.18848,0 z m 0.17892,-5.91098 c 0.53408,0 1.20169,-0.0214 1.71575,-0.3792 0.3338,-0.22298 0.62487,-0.64758 0.62487,-1.27112 0,-0.48869 -0.20161,-0.95868 -0.51272,-1.22706 -0.46866,-0.42193 -1.18299,-0.44596 -1.74111,-0.44596 l -3.45419,0 0,3.32334 3.3674,0 z"
         id="path7603"
         style="fill:white;fill-opacity:1;fill-rule:evenodd;stroke:none" /><path
         d="m 298.33533,767.47586 2.73051,0 c 0.713,0 2.09495,-0.0227 2.09495,-1.4487 0,-1.29516 -1.31519,-1.31786 -2.00683,-1.33789 l -3.91751,-0.003 -3.80001,-9.65625 8.65351,0 c 1.5622,0.024 4.06038,0.0454 5.10585,2.38603 0.26971,0.60351 0.38053,1.24975 0.38053,1.87597 0,0.89058 -0.22298,2.56227 -1.8052,3.54365 -0.67162,0.4246 -1.13894,0.46732 -1.58356,0.49269 0.55678,0.0668 1.51546,0.17759 2.29656,1.22306 0.4246,0.60485 0.62621,1.33921 0.62621,2.05222 0,1.18299 -0.42593,2.25116 -1.16163,2.94681 -1.27112,1.20303 -3.12173,1.22439 -5.17395,1.22439 l -1.14027,0 -1.29916,-3.29931 z m 2.90542,-5.91098 c 0.53809,0 1.20837,-0.0214 1.71842,-0.37653 0.33514,-0.22565 0.62488,-0.64891 0.62488,-1.27379 0,-0.48869 -0.20028,-0.95868 -0.51139,-1.22573 -0.46999,-0.42326 -1.18299,-0.44729 -1.73978,-0.44729 l -3.45819,0 0,3.32334 3.36606,0 z"
         id="path7607"
         style="fill:white;fill-opacity:1;fill-rule:evenodd;stroke:none" /></g></g></svg>