<?xml version="1.0" encoding="UTF-8" standalone="no"?>
<!-- Created with Inkscape (http://www.inkscape.org/) -->

<svg
   xmlns:dc="http://purl.org/dc/elements/1.1/"
   xmlns:cc="http://creativecommons.org/ns#"
   xmlns:rdf="http://www.w3.org/1999/02/22-rdf-syntax-ns#"
   xmlns:svg="http://www.w3.org/2000/svg"
   xmlns="http://www.w3.org/2000/svg"
   xmlns:sodipodi="http://sodipodi.sourceforge.net/DTD/sodipodi-0.dtd"
   xmlns:inkscape="http://www.inkscape.org/namespaces/inkscape"
   width="153.54454"
   height="159.13974"
   viewBox="0 0 40.625325 42.105724"
   version="1.1"
   id="svg8"
   inkscape:version="0.92.3 (2405546, 2018-03-11)"
   sodipodi:docname="bjp.svg">
  <defs
     id="defs2" />
  <sodipodi:namedview
     id="base"
     pagecolor="#00ffff"
     bordercolor="#666666"
     borderopacity="1.0"
     inkscape:pageopacity="0"
     inkscape:pageshadow="2"
     inkscape:zoom="0.49497475"
     inkscape:cx="-570.2905"
     inkscape:cy="-358.42442"
     inkscape:document-units="mm"
     inkscape:current-layer="layer1"
     showgrid="false"
     fit-margin-left="0.2"
     fit-margin-top="0.2"
     fit-margin-right="0.2"
     fit-margin-bottom="0.2"
     units="px"
     inkscape:window-width="1920"
     inkscape:window-height="1017"
     inkscape:window-x="-8"
     inkscape:window-y="-8"
     inkscape:window-maximized="1" />
  <metadata
     id="metadata5">
    <rdf:RDF>
      <cc:Work
         rdf:about="">
        <dc:format>image/svg+xml</dc:format>
        <dc:type
           rdf:resource="http://purl.org/dc/dcmitype/StillImage" />
        <dc:title></dc:title>
      </cc:Work>
    </rdf:RDF>
  </metadata>
  <g
     inkscape:label="Layer 1"
     inkscape:groupmode="layer"
     id="layer1"
     transform="translate(-151.28853,-124.75666)">
    <g
       id="g10"
       transform="matrix(0.35277777,0,0,-0.35277777,151.26786,166.95664)">
      <g
         id="g12"
         transform="scale(0.1)">
        <path
           d="m 243.938,1094.46 -2.407,3.14 -24.015,30.41 32.097,16.13 1.758,0.83 1.867,0.83 1.867,0.77 1.872,0.74 1.925,0.7 1.903,0.65 2.039,0.65 2.383,0.69 2.55,0.62 2.586,0.52 2.578,0.42 2.625,0.32 2.649,0.23 2.594,0.12 2.496,0.04 4.3,-0.04 4.215,-0.13 4.246,-0.21 4.215,-0.3 4.196,-0.39 4.191,-0.47 4.223,-0.56 4.164,-0.65 4.156,-0.72 4.184,-0.82 4.156,-0.9 4.125,-0.98 4.133,-1.06 4.144,-1.16 4.113,-1.25 4.075,-1.32 4.07,-1.39 4.07,-1.49 4.063,-1.57 4.039,-1.65 4.019,-1.73 4.012,-1.81 4.008,-1.9 3.976,-1.97 3.95,-2.04 3.953,-2.13 3.945,-2.22 3.91,-2.28 3.907,-2.36 3.898,-2.45 3.879,-2.52 3.84,-2.59 3.828,-2.66 3.812,-2.74 3.766,-2.79 3.715,-2.86 3.679,-2.91 3.633,-2.99 3.594,-3.03 3.539,-3.1 3.504,-3.15 3.48,-3.23 3.426,-3.29 3.364,-3.33 3.332,-3.39 3.293,-3.46 3.253,-3.52 3.188,-3.57 3.16,-3.62 3.121,-3.7 3.071,-3.74 3.023,-3.8 2.988,-3.87 2.942,-3.92 0.109,-0.15 1.57,2.93 2.746,5.03 2.821,5.1 2.886,5.15 2.965,5.21 3.032,5.26 3.101,5.33 3.188,5.41 3.254,5.46 3.328,5.51 3.39,5.58 3.481,5.65 3.543,5.7 3.625,5.77 3.683,5.82 3.774,5.9 3.832,5.95 3.914,6.02 3.976,6.07 4.063,6.15 4.133,6.2 4.207,6.27 24.886,36.86 25.532,-31.77 2.586,-3.32 2.566,-3.4 2.563,-3.48 2.574,-3.58 2.578,-3.69 2.582,-3.77 2.566,-3.86 2.575,-3.94 2.593,-4.06 2.602,-4.15 2.594,-4.25 2.601,-4.32 2.617,-4.44 2.625,-4.55 2.618,-4.61 2.632,-4.71 2.653,-4.83 2.656,-4.92 2.664,-5.02 2.672,-5.11 2.683,-5.21 2.7,-5.32 2.695,-5.41 2.711,-5.49 0.016,-0.03 1.355,1.6 5.258,5.94 5.351,5.79 5.454,5.65 5.543,5.49 5.636,5.34 5.739,5.19 5.839,5.06 5.926,4.87 6.016,4.73 6.117,4.58 6.203,4.42 6.25,4.22 6.305,4.02 6.355,3.82 6.406,3.62 6.458,3.41 6.503,3.22 6.547,3 6.59,2.79 6.649,2.59 6.703,2.38 6.73,2.17 6.774,1.94 6.812,1.74 6.859,1.52 9.106,1.71 5.289,-0.06 2.945,-0.11 2.977,-0.18 2.91,-0.26 2.906,-0.32 2.938,-0.41 2.883,-0.48 2.754,-0.54 2.511,-0.53 2.403,-0.53 2.453,-0.57 2.367,-0.59 2.359,-0.6 2.356,-0.63 2.324,-0.64 35.285,-10.34 -18.32,-33.64 -1.508,-2.86 -1.457,-2.83 -1.406,-2.82 -1.364,-2.82 -1.312,-2.8 -1.262,-2.79 -1.219,-2.78 -1.156,-2.74 -1.129,-2.78 -1.082,-2.75 -1.023,-2.72 -0.981,-2.71 -0.933,-2.72 -0.899,-2.72 -0.843,-2.66 -0.778,-2.63 -0.726,-2.59 -0.676,-2.57 -0.625,-2.55 -0.399,-1.75 3.11,3.21 3.308,3.32 3.375,3.27 3.418,3.21 3.446,3.15 3.508,3.09 3.546,3.04 3.598,2.98 3.641,2.92 3.683,2.87 3.723,2.8 3.773,2.76 3.821,2.69 3.879,2.65 3.898,2.56 3.938,2.52 3.992,2.46 4,2.37 3.996,2.27 4.031,2.22 4.07,2.15 4.078,2.06 4.079,1.97 4.105,1.9 4.133,1.83 4.172,1.76 4.179,1.66 4.168,1.58 4.207,1.51 4.247,1.43 4.226,1.34 4.254,1.27 4.3,1.19 4.3,1.1 4.28,1.02 4.32,0.94 4.37,0.87 4.36,0.77 4.34,0.7 4.37,0.61 4.4,0.53 4.43,0.46 4.42,0.36 4.41,0.29 4.43,0.2 4.48,0.13 4.54,0.03 3.84,-0.06 3.92,-0.17 3.91,-0.31 3.83,-0.43 3.8,-0.55 3.78,-0.7 3.73,-0.84 3.68,-0.98 3.69,-1.15 3.66,-1.33 3.63,-1.53 3.52,-1.71 3.44,-1.89 3.35,-2.12 3.24,-2.33 25.9,-21.12 -24.35,-25.72 -3.2,-3.54 -3.12,-3.59 -3.02,-3.62 -2.93,-3.66 -2.82,-3.7 -2.72,-3.72 -2.63,-3.78 -2.52,-3.81 -2.44,-3.86 -2.35,-3.9 -2.26,-3.96 -2.15,-3.96 -2.07,-4.03 -1.98,-4.08 -1.88,-4.1 -1.77,-4.12 -1.65,-4.09 -1.53,-4.08 -1.41,-4.04 -1.29,-4.015 -1.17,-3.996 -1.06,-3.984 -0.94,-3.965 -0.82,-3.93 -0.72,-3.929 -0.6,-3.907 -0.5,-3.879 -0.38,-3.867 -0.27,-3.875 -0.17,-3.843 -0.06,-3.969 0.02,-2.395 0.03,-2.73 0.06,-2.934 0.07,-3.062 0.1,-3.215 0.12,-3.426 0.14,-3.586 0.16,-3.719 0.19,-3.882 0.21,-4.079 0.24,-4.238 0.24,-4.375 0.28,-4.531 0.3,-4.731 0.33,-4.871 0.34,-5.047 0.35,-5.105 0.34,-5.008 0.31,-4.859 0.28,-4.711 0.27,-4.555 0.24,-4.414 0.22,-4.254 0.2,-4.113 0.17,-3.965 0.15,-3.82 0.14,-3.703 0.1,-3.547 0.08,-3.403 0.06,-3.257 0.04,-3.129 0.01,-3.032 -0.03,-4.582 -0.1,-4.636 -0.15,-4.625 -0.21,-4.606 -0.28,-4.59 -0.34,-4.605 -0.4,-4.598 -0.46,-4.566 -0.52,-4.551 -0.59,-4.562 -0.64,-4.539 -0.72,-4.532 -0.76,-4.504 -0.84,-4.523 -0.9,-4.504 -0.95,-4.469 -1.01,-4.461 -1.08,-4.476 -1.15,-4.449 -1.2,-4.43 -1.26,-4.402 -1.32,-4.411 -1.39,-4.421 -1.45,-4.383 -1.5,-4.344 -1.57,-4.356 -1.63,-4.351 -1.69,-4.316 -1.74,-4.301 -1.81,-4.313 -1.87,-4.285 -1.93,-4.262 -1.98,-4.246 -2.03,-4.195 -2.08,-4.172 -2.14,-4.144 -2.18,-4.102 -2.23,-4.051 -2.28,-4.031 -2.34,-4.004 -2.37,-3.953 -2.43,-3.926 -2.49,-3.887 -2.53,-3.847 -2.57,-3.824 -2.65,-3.786 -2.67,-3.738 -2.73,-3.695 -2.78,-3.672 -2.82,-3.621 -2.86,-3.586 -2.928,-3.559 -2.973,-3.527 -3.024,-3.477 -3.058,-3.437 -3.125,-3.41 -3.164,-3.367 -0.418,-0.434 0.461,-0.481 2.789,-2.992 2.707,-3.066 2.629,-3.113 2.527,-3.164 2.453,-3.215 2.36,-3.285 2.274,-3.329 2.16,-3.363 2.08,-3.406 1.97,-3.484 1.87,-3.5 1.73,-3.536 1.62,-3.558 1.5,-3.617 1.37,-3.657 1.23,-3.668 1.11,-3.679 0.96,-3.75 0.83,-3.782 0.68,-3.793 0.53,-3.793 0.39,-3.832 0.22,-3.835 0.09,-4.204 -0.18,-3.914 -0.49,-4.082 -0.7,-3.937 -0.87,-3.926 -1.03,-3.98 -1.19,-4.133 -1.36,-4.324 -13.37,-39.879 -32.749,23.98 -2.543,1.805 -2.375,1.629 -2.257,1.484 -2.082,1.332 -1.903,1.145 -1.718,0.984 -1.547,0.828 -1.34,0.668 -1.063,0.484 -0.672,0.274 -0.703,-0.035 -1.234,-0.106 -1.305,-0.148 -1.32,-0.195 -1.399,-0.25 -1.453,-0.297 -1.507,-0.36 -1.594,-0.422 -1.629,-0.472 -1.656,-0.532 -1.758,-0.609 -1.805,-0.668 -1.848,-0.734 -1.902,-0.797 -1.93,-0.863 -1.918,-0.899 -1.875,-0.941 -1.921,-1.016 -1.954,-1.086 -1.941,-1.133 -1.973,-1.218 -1.992,-1.282 -2.019,-1.355 -2.035,-1.426 -2.036,-1.48 -2.05,-1.551 -2.079,-1.637 -2.085,-1.695 -2.125,-1.789 -2.114,-1.844 -2.504,-2.254 -3.339,-2.883 -3.368,-2.785 -3.41,-2.711 -3.469,-2.636 -3.488,-2.536 -3.547,-2.472 -3.574,-2.371 -3.633,-2.317 -3.679,-2.215 -3.7,-2.125 -3.73,-2.035 -3.793,-1.972 -3.832,-1.875 -3.871,-1.793 -3.903,-1.7 -3.933,-1.613 -3.938,-1.516 -3.941,-1.418 -3.941,-1.324 -3.969,-1.234 -3.961,-1.137 -3.961,-1.035 -3.961,-0.945 -4.02,-0.86 -3.992,-0.742 -3.984,-0.652 -3.988,-0.551 -4.02,-0.457 -4.004,-0.352 -4.004,-0.253 -4,-0.153 -3.91,-0.055 -3.09,0.02 -2.91,0.043 -2.824,0.062 -2.848,0.083 -2.824,0.121 -2.727,0.144 -2.691,0.168 -2.715,0.195 -2.656,0.235 -2.586,0.25 -2.539,0.285 -2.543,0.309 -2.516,0.347 -2.441,0.371 -2.395,0.403 -2.531,0.453 -4.605,0.969 -4.551,1.101 -4.438,1.254 -4.371,1.402 -4.25,1.582 -1.828,0.762 -2.754,-0.785 -3.398,-1.113 -3.262,-1.215 -3.156,-1.321 -3.047,-1.425 -2.953,-1.539 -2.852,-1.637 -2.754,-1.742 -2.66,-1.844 -2.601,-1.98 -2.524,-2.086 -2.437,-2.204 -2.387,-2.339 -2.324,-2.473 -2.184,-2.527 -2.023,-2.547 -1.844,-2.532 -1.687,-2.55 -1.524,-2.543 -1.383,-2.574 -1.23,-2.559 -1.078,-2.566 -0.957,-2.614 -0.828,-2.644 -0.7,-2.688 -0.578,-2.75 -0.449,-2.808 -0.332,-2.907 -0.199,-2.961 -0.078,-3.378 -0.008,-4.61 -0.028,-4.914 -0.05,-4.879 -0.075,-4.824 -0.089,-4.785 -0.118,-4.758 -0.136,-4.703 -0.16,-4.649 -0.172,-4.597 -0.203,-4.567 -0.219,-4.523 -0.246,-4.477 -0.258,-4.425 -0.281,-4.411 -0.313,-4.355 -0.328,-4.281 -0.344,-4.25 -0.371,-4.231 -0.394,-4.172 -0.414,-4.129 -0.434,-4.078 -0.457,-4.058 -0.484,-4.008 -0.5,-3.945 -0.52,-3.914 -0.547,-3.895 -0.574,-3.836 -0.594,-3.793 -0.613,-3.734 -0.637,-3.715 -0.664,-3.68 -0.699,-3.676 -1.414,-7.031 -1.528,-6.91 -1.609,-6.695 -1.711,-6.5 -1.797,-6.297 -1.894,-6.07 10.125,1.05 4.547,-0.222 3.879,-0.59 3.898,-1.024 3.68,-1.418 3.519,-1.773 3.285,-2.129 2.942,-2.336 2.578,-2.465 2.414,-2.691 2.258,-3.067 2.011,-3.339 1.688,-3.586 1.324,-3.723 0.949,-3.879 0.551,-3.887 0.18,-3.98 -0.309,-5.488 -1.004,-5.661 -1.683,-5.488 -2.309,-5.187 -2.836,-4.7894 -3.258,-4.3359 -3.558,-3.8555 -3.828,-3.4609 -4.051,-3.0781 -4.313,-2.7383 -4.55,-2.3438 -4.774,-1.9492 -4.883,-1.4726 -4.925,-1.0469 -4.996,-0.6133 -4.485,-0.1797 h -42.051 l -4.64,0.3555 -5.336,1.1679 -4.883,1.7618 -4.457,2.1836 -4.016,2.5117 -3.648,2.7109 -3.352,2.9102 -3.16,3.082 -2.992,3.2773 -2.801,3.3907 -1.668,2.2383 -3.336,-2.6797 -3.515,-2.625 -3.594,-2.5 -3.684,-2.3789 -3.781,-2.2618 -3.844,-2.1171 -3.925,-2.004 -3.981,-1.8593 -4.062,-1.7461 -4.137,-1.6094 -4.199,-1.4883 -4.246,-1.3515 -4.321,-1.2383 -4.383,-1.1055 -4.425,-0.9883 -4.477,-0.8593 -4.539,-0.7461 -4.594,-0.6211 -4.64,-0.5118 -4.692,-0.3867 -4.746,-0.2812 -4.793,-0.1602 -4.777,-0.0625 -3.813,0.0274 -3.656,0.0586 -3.586,0.1093 -3.558,0.1368 -3.473,0.1953 -3.406,0.2265 -3.352,0.2735 -3.308,0.3164 -3.278,0.3711 -3.183,0.414 -3.129,0.461 -3.114,0.5195 -3.031,0.5703 -2.965,0.6094 -2.925,0.6758 -3.137,0.7929 -5.633,1.6914 -5.625,2.1055 -5.578,2.6836 -5.633,3.5508 -5.598,4.8828 -5.195,6.7109 -3.777,8.695 -1.231,8.84 0.574,7.973 1.497,6.848 2.449,6.507 3.254,5.993 3.898,5.355 4.348,4.715 4.672,4.125 4.754,3.496 2.914,1.887 2.734,1.593 2.785,1.489 2.852,1.355 2.91,1.254 2.976,1.129 2.981,1.004 3.016,0.879 3.066,0.777 3.082,0.656 3.129,0.559 3.152,0.437 3.137,0.34 3.172,0.235 3.207,0.148 3.281,0.039 3.324,-0.062 3.539,-0.18 3.731,-0.273 3.941,-0.379 4.18,-0.461 4.445,-0.559 4.719,-0.652 4.863,-0.719 4.617,-0.676 4.149,-0.57 3.777,-0.473 3.356,-0.379 2.976,-0.277 2.52,-0.195 2.062,-0.098 1.825,-0.039 h 9.074 l 1.238,1.871 2.031,3.254 1.977,3.352 1.922,3.437 1.855,3.516 1.813,3.632 1.75,3.715 1.683,3.801 1.621,3.891 1.571,4.004 1.508,4.089 1.441,4.18 1.379,4.293 1.32,4.363 1.219,4.372 1.141,4.414 1.046,4.468 0.977,4.516 0.891,4.555 0.804,4.601 0.727,4.641 0.64,4.699 0.551,4.738 0.469,4.782 0.383,4.836 0.304,4.89 0.215,4.922 0.133,4.98 0.039,5.012 -0.039,4.539 -0.129,4.422 -0.207,4.348 -0.297,4.269 -0.371,4.188 -0.453,4.094 -0.531,4.003 -0.617,3.934 -0.692,3.856 -0.765,3.757 -0.84,3.684 -0.922,3.609 -0.988,3.532 -1.063,3.429 -1.137,3.36 -1.218,3.308 -1.27,3.199 -1.305,3.008 -1.335,2.867 -1.387,2.735 -1.414,2.582 -1.453,2.441 -1.473,2.313 -1.516,2.179 -1.543,2.059 -1.562,1.922 -1.586,1.809 -1.621,1.691 -1.641,1.582 -1.668,1.48 -1.699,1.379 -1.117,0.825 -5.457,3.25 -6.235,3.73 -5.836,3.512 -5.453,3.285 -5.05,3.062 -4.676,2.848 -4.278,2.629 -3.918,2.414 -3.539,2.215 -0.804,0.512 -1.711,-0.668 -3.676,-1.289 -3.684,-1.149 -3.742,-1.043 -3.781,-0.91 -3.813,-0.789 -3.832,-0.66 -3.878,-0.547 -3.907,-0.414 -3.914,-0.297 -3.937,-0.176 -3.899,-0.062 -3.968,0.043 -3.887,0.121 -3.875,0.207 -3.903,0.289 -3.886,0.375 -3.864,0.445 -3.875,0.531 -3.886,0.614 -3.871,0.699 -3.86,0.773 -3.84,0.856 -3.832,0.926 -3.855,1.011 -3.816,1.094 -3.809,1.16 -3.859,1.258 -3.84,1.348 -3.797,1.414 -3.781,1.5 -3.789,1.59 -3.735,1.664 -3.707,1.73 -3.676,1.813 -3.679,1.89 -3.657,1.992 -3.593,2.039 -3.559,2.114 -3.57,2.203 -3.539,2.285 -3.489,2.348 -3.445,2.406 -3.238,2.344 -2.266,1.64 -2.148,1.5 -2.125,1.45 -2.133,1.402 -2.106,1.348 -2.07,1.273 -2.097,1.246 -2.114,1.207 -2.086,1.16 -2.058,1.094 -2.032,1.043 -2.058,1.004 -2.043,0.961 -1.996,0.898 -2.012,0.856 -2.027,0.82 -2.024,0.781 -1.941,0.711 -1.863,0.645 -1.864,0.597 -1.804,0.539 -1.731,0.481 -1.695,0.43 -1.676,0.382 -1.605,0.332 -1.528,0.274 -1.488,0.23 -1.438,0.18 -1.402,0.145 -1.34,0.097 -1.273,0.055 -1.188,0.016 -1.297,-0.028 -1.164,-0.07 -1.148,-0.117 -1.148,-0.168 -1.125,-0.215 -1.106,-0.254 -1.113,-0.309 -1.129,-0.363 -1.125,-0.414 -1.129,-0.469 -1.133,-0.523 -1.16,-0.594 -1.199,-0.676 -1.207,-0.738 -1.219,-0.805 -28.141,-20.109 -14.527,31.031 -0.676,1.473 -0.652,1.473 -0.672,1.539 -0.652,1.586 -0.606,1.519 -0.562,1.473 -0.637,1.683 -0.676,1.989 -0.629,2.031 -0.562,2.094 -0.516,2.238 -0.402,2.234 -0.332,2.321 -0.203,2.449 -0.094,2.476 0.125,4.43 0.32,4.285 0.543,4.254 0.739,4.199 0.945,4.196 1.133,4.136 1.32,4.086 1.504,4.051 1.683,3.988 1.836,3.93 2.008,3.891 2.145,3.808 2.304,3.785 2.457,3.735 2.594,3.687 2.723,3.641 2.863,3.594 2.961,3.523 3.106,3.485 3.203,3.406 3.3,3.328 3.411,3.266 1.734,1.582 -2.199,1.566 -4.106,3.098 -4.054,3.207 -4.004,3.367 -3.918,3.465 -3.832,3.566 -3.789,3.695 -3.727,3.825 -3.633,3.918 -3.57,4.027 -3.516,4.156 -3.437,4.258 -3.363,4.348 -3.297,4.464 -3.246,4.579 -3.18,4.711 -3.102,4.781 -3.031,4.879 -2.992,5.011 -2.914,5.118 -2.848,5.191 -2.781,5.305 -2.738,5.414 -2.664,5.519 -2.571,5.551 -2.48,5.606 -2.399,5.652 -2.312,5.715 -2.227,5.758 -2.144,5.816 -2.063,5.871 -1.968,5.938 -1.883,5.964 -1.793,6.008 -1.7229,6.074 -1.6211,6.125 -1.5508,6.172 -1.4531,6.219 -1.3789,6.27 -1.2852,6.336 -1.207,6.359 -1.1172,6.422 -1.0391,6.472 -0.9531,6.524 -0.8672,6.562 -0.7851,6.606 -0.7032,6.652 -0.6172,6.723 -0.539,6.762 -0.4453,6.8 -0.3711,6.848 -0.2891,6.906 -0.207,6.942 -0.125,6.996 -0.0391,6.914 -0.0117,3.863 -0.0508,3.664 -0.082,3.664 -0.1133,3.672 -0.1445,3.641 -0.1758,3.586 -0.2188,3.597 -0.2461,3.606 -0.2695,3.57 -0.3125,3.524 -0.3398,3.523 -0.375,3.519 -0.3985,3.489 -0.4414,3.445 -0.4687,3.449 -0.5117,3.457 -0.5313,3.446 -0.5664,3.398 -0.5898,3.367 -0.6329,3.36 -0.6601,3.359 -0.6953,3.324 -0.7227,3.309 -0.7617,3.297 -0.7969,3.316 -0.8164,3.254 -0.8476,3.238 -0.8868,3.235 -0.9179,3.226 -0.9453,3.196 -0.9688,3.144 -1.0039,3.098 -2.1406,6.398 -2.2227,6.17 -2.3242,6.06 -2.4414,5.96 -2.5508,5.88 -2.6445,5.75 -2.7539,5.64 -2.875,5.56 -2.9688,5.47 -3.0742,5.34 -3.1719,5.24 -3.2968,5.15 -3.3985,5.07 -3.5078,4.95 -3.6094,4.86 -20.99996,26.84 23.86716,19.37 3.2266,2.31 3.3398,2.1 3.4258,1.9 3.5391,1.72 3.6133,1.52 3.6679,1.33 3.6836,1.15 3.6953,0.98 3.7188,0.84 3.7812,0.7 3.793,0.55 3.8398,0.43 3.9063,0.31 3.918,0.17 3.8398,0.06 4.3867,-0.03 4.2969,-0.12 4.3164,-0.18 4.2813,-0.28 4.2773,-0.34 4.289,-0.42 4.277,-0.49 4.231,-0.58 4.254,-0.64 4.269,-0.73 4.239,-0.8 4.211,-0.88 4.226,-0.94 4.215,-1.04 4.203,-1.09 4.176,-1.18 4.172,-1.25 4.183,-1.33 4.153,-1.4 4.132,-1.47 4.125,-1.54 4.137,-1.63 4.125,-1.7 4.078,-1.76 4.078,-1.83 4.09,-1.92 4.063,-1.99 4.035,-2.05 4.027,-2.11 4.02,-2.2 4.027,-2.28 3.977,-2.34 3.961,-2.38 3.949,-2.48 3.933,-2.53 3.872,-2.59 3.824,-2.63 3.801,-2.71 3.773,-2.76 3.703,-2.81 3.688,-2.87 3.656,-2.94 3.625,-3 3.57,-3.05 2.371,-2.08 -0.082,0.15 -1.711,2.95 -1.793,2.97 -1.879,3.02 -1.949,3.04 -2.019,3.04 -2.098,3.06 -2.184,3.09 -2.25,3.1 -2.335,3.12"
           style="fill:#ffffff;fill-opacity:1;fill-rule:evenodd;stroke:none"
           id="path14"
           inkscape:connector-curvature="0" />
        <path
           d="m 445.266,94.2227 c -18.504,0 -33.727,1.5976 -45.676,4.7851 -11.949,3.1992 -17.922,7.5942 -17.922,13.1832 0,7.981 4.434,14.969 13.297,20.961 8.863,5.989 19.848,8.981 32.953,8.981 6.168,0 15.805,-0.996 28.906,-2.992 13.106,-1.996 22.739,-2.996 28.906,-2.996 h 23.125 c 14.653,18.367 26.02,40.527 34.11,66.48 8.098,25.957 12.144,53.707 12.144,83.254 0,27.148 -4.046,51.305 -12.144,72.469 -8.09,21.16 -19.457,36.937 -34.11,47.312 -36.23,21.563 -55.5,33.543 -57.812,35.938 -6.938,-3.993 -14.258,-6.985 -21.969,-8.981 -7.707,-1.996 -15.804,-2.996 -24.281,-2.996 -17.73,0 -35.461,2.996 -53.188,8.981 -17.726,5.988 -34.691,14.976 -50.875,26.949 -13.109,9.586 -26.21,16.972 -39.316,22.164 -13.101,5.191 -25.051,7.785 -35.844,7.785 -6.168,0 -12.144,-1 -17.922,-2.992 -5.785,-1.996 -11.371,-4.992 -16.765,-8.988 -1.543,3.195 -2.895,6.39 -4.047,9.585 -1.16,3.196 -1.738,5.989 -1.738,8.383 0,15.176 6.172,30.742 18.504,46.715 12.332,15.973 29.293,30.348 50.875,43.125 -43.168,15.973 -78.047,50.91 -104.641,104.813 -26.598,53.906 -39.895,116.793 -39.895,188.664 0,42.32 -5.972,81.851 -17.9254,118.585 -11.9453,36.73 -29.0976,69.07 -51.4531,97.02 4.6289,4 10.4102,6.99 17.3438,8.99 6.9414,2 14.6484,2.99 23.1328,2.99 40.8519,0 80.7419,-11.57 119.6719,-34.73 38.926,-23.16 72.266,-55.5 100.019,-97.031 3.852,15.172 5.778,27.151 5.778,35.941 0,14.37 -4.047,30.34 -12.137,47.91 -8.098,17.57 -19.465,35.54 -34.117,53.9 3.086,1.6 6.555,3 10.406,4.19 3.86,1.21 8.098,1.81 12.727,1.81 39.308,0 77.66,-12.78 115.043,-38.34 37.394,-25.55 68.418,-60.69 93.082,-105.411 20.047,44.721 52.808,100.621 98.289,167.701 24.664,-30.35 51.64,-78.26 80.933,-143.74 23.125,34.34 49.723,62.48 79.789,84.45 30.059,21.96 61.278,35.73 93.657,41.32 6.164,0 12.14,-0.6 17.925,-1.79 5.778,-1.2 11.368,-2.6 16.762,-4.19 -9.25,-16.78 -16.379,-33.34 -21.39,-49.72 -5.008,-16.37 -7.516,-31.74 -7.516,-46.11 0,-20.77 1.926,-38.737 5.781,-53.905 23.895,42.315 54.918,75.865 93.078,100.615 38.16,24.76 78.44,37.13 120.83,37.13 8.48,0 16.19,-0.99 23.13,-2.99 6.94,-2 12.72,-4.99 17.34,-8.99 -20.04,-20.75 -35.65,-43.71 -46.83,-68.87 -11.17,-25.15 -16.76,-50.114 -16.76,-74.864 0,-14.375 0.96,-35.336 2.89,-62.891 1.92,-27.551 2.89,-48.512 2.89,-62.883 0,-45.519 -9.63,-89.242 -28.9,-131.168 -19.28,-41.921 -46.258,-78.058 -80.949,-108.406 16.191,-11.973 28.91,-25.351 38.156,-40.129 9.25,-14.773 13.879,-29.344 13.879,-43.719 0,-4.792 -1.926,-12.777 -5.781,-23.96 -16.192,11.98 -27.75,17.968 -34.688,17.968 -10.793,0 -22.742,-2.996 -35.847,-8.98 -13.102,-5.988 -26.211,-14.973 -39.313,-26.957 -15.418,-13.571 -32.179,-23.953 -50.301,-31.141 -18.113,-7.187 -36.035,-10.781 -53.761,-10.781 -14.645,0 -27.176,0.996 -37.582,2.996 -10.403,2 -19.082,4.992 -26.016,8.984 -25.437,-4.793 -46.25,-16.175 -62.437,-34.144 -16.192,-17.965 -24.282,-38.524 -24.282,-61.684 0,-51.906 -3.468,-95.828 -10.406,-131.761 -6.941,-35.938 -16.961,-61.895 -30.066,-77.86 l 57.816,5.985 c 3.078,0 5.781,-1.2 8.09,-3.594 2.316,-2.391 3.469,-5.188 3.469,-8.383 0,-6.387 -2.891,-11.977 -8.668,-16.77 -5.785,-4.793 -12.528,-7.187 -20.235,-7.187 h -40.472 c -4.625,0 -9.633,2.797 -15.032,8.387 -5.394,5.59 -10.019,12.777 -13.875,21.562 13.102,13.57 23.125,37.528 30.063,71.867 6.937,34.336 10.406,76.266 10.406,125.774 0,3.195 -1.73,5.988 -5.199,8.387 -3.469,2.394 -7.52,3.593 -12.145,3.593 v -41.926 c 0,-70.273 -10.789,-121.781 -32.379,-154.523 C 524.273,110.59 490.742,94.2227 445.266,94.2227"
           style="fill:#0d0d0d;fill-opacity:1;fill-rule:evenodd;stroke:none"
           id="path16"
           inkscape:connector-curvature="0" />
        <path
           d="m 849.961,585.34 c 41.629,0 79.977,25.156 115.051,75.465 35.078,50.312 52.608,105.011 52.608,164.105 0,14.375 -0.96,35.336 -2.89,62.887 -1.93,27.547 -2.89,48.512 -2.89,62.883 0,24.758 4.43,48.519 13.3,71.27 8.86,22.76 21.77,42.93 38.73,60.5 -39.32,0 -76.698,-13.58 -112.155,-40.73 -35.461,-27.15 -63.598,-63.482 -84.41,-109.005 15.418,-59.895 23.125,-111.801 23.125,-155.719 0,-38.332 -6.551,-73.664 -19.657,-106.008 -13.101,-32.343 -31.605,-58.894 -55.503,-79.66 5.398,-1.598 10.988,-2.992 16.769,-4.191 5.781,-1.199 11.758,-1.797 17.922,-1.797"
           style="fill:#f47216;fill-opacity:1;fill-rule:evenodd;stroke:none"
           id="path18"
           inkscape:connector-curvature="0" />
        <path
           d="m 699.645,567.371 c 45.48,3.992 83.828,24.356 115.046,61.094 31.223,36.73 46.832,80.25 46.832,130.562 0,59.094 -5.781,105.012 -17.343,137.758 -15.418,59.891 -23.129,99.817 -23.129,119.785 0,13.57 1.543,26.35 4.625,38.33 3.086,11.98 7.324,23.15 12.719,33.54 -28.52,-2.4 -56.075,-13.78 -82.676,-34.14 -26.59,-20.37 -49.137,-46.92 -67.637,-79.655 22.356,-40.731 39.504,-82.856 51.453,-126.375 11.949,-43.524 17.922,-87.247 17.922,-131.165 0,-20.769 -5.012,-43.921 -15.031,-69.48 -10.016,-25.551 -24.285,-52.305 -42.781,-80.254"
           style="fill:#f47216;fill-opacity:1;fill-rule:evenodd;stroke:none"
           id="path20"
           inkscape:connector-curvature="0" />
        <path
           d="m 318.074,609.297 c 12.332,0 23.895,1.996 34.688,5.988 -23.899,24.758 -42.403,57.496 -55.5,98.223 -13.106,40.734 -19.66,85.851 -19.66,135.359 0,22.36 3.855,56.297 11.562,101.813 -26.976,39.133 -58.195,69.88 -93.66,92.24 -35.457,22.36 -71.688,33.54 -108.6876,33.54 18.4966,-23.16 32.7616,-54.7 42.7776,-94.628 10.023,-39.93 15.035,-86.246 15.035,-138.953 0,-57.496 18.113,-110.801 54.344,-159.918 36.234,-49.109 75.933,-73.664 119.101,-73.664"
           style="fill:#f47216;fill-opacity:1;fill-rule:evenodd;stroke:none"
           id="path22"
           inkscape:connector-curvature="0" />
        <path
           d="m 468.391,579.355 c -16.965,20.758 -29.875,45.516 -38.739,74.262 -8.863,28.75 -13.297,59.891 -13.297,93.434 0,27.152 4.434,57.297 13.297,90.433 8.864,33.149 21.774,68.879 38.739,107.211 -23.899,42.328 -49.914,76.665 -78.051,103.015 -28.141,26.36 -56.078,41.92 -83.832,46.72 9.25,-9.59 16.383,-22.16 21.394,-37.73 5.012,-15.58 7.516,-32.95 7.516,-52.11 0,-18.371 -3.855,-42.324 -11.563,-71.875 -7.71,-21.563 -11.566,-55.496 -11.566,-101.813 0,-61.492 14.453,-115.597 43.363,-162.308 28.903,-46.719 66.481,-76.465 112.739,-89.239"
           style="fill:#f47216;fill-opacity:1;fill-rule:evenodd;stroke:none"
           id="path24"
           inkscape:connector-curvature="0" />
        <path
           d="m 589.801,555.395 c 36.996,0 68.406,16.367 94.23,49.113 25.824,32.742 38.739,72.269 38.739,118.582 0,55.105 -11.368,113.797 -34.11,176.09 -22.742,62.281 -55.695,125.37 -98.859,189.26 -47.024,-69.48 -82.871,-134.96 -107.535,-196.448 -24.668,-61.492 -37,-115.793 -37,-162.91 0,-47.914 14.062,-88.84 42.199,-122.777 28.14,-33.946 62.25,-50.91 102.336,-50.91"
           style="fill:#f47216;fill-opacity:1;fill-rule:evenodd;stroke:none"
           id="path26"
           inkscape:connector-curvature="0" />
        <path
           d="m 780.582,453.578 c 13.109,0 26.598,2.992 40.469,8.981 13.875,5.992 27.367,14.976 40.472,26.953 16.188,13.574 32.375,23.558 48.567,29.945 16.187,6.391 30.828,8.387 43.937,5.992 -4.625,12.778 -11.179,22.957 -19.656,30.543 -8.48,7.586 -17.344,11.379 -26.598,11.379 -43.168,-11.976 -70.144,-17.969 -80.937,-17.969 -23.898,0 -41.242,1.996 -52.031,5.993 -8.485,0 -16.578,-1 -24.282,-2.997 -7.707,-1.996 -15.035,-4.992 -21.972,-8.98 3.859,-4.793 6.746,-10.188 8.672,-16.176 1.929,-5.988 2.89,-12.574 2.89,-19.762 0,-10.382 -0.961,-19.566 -2.89,-27.554 -1.926,-7.981 -4.813,-14.77 -8.672,-20.36 5.394,-1.601 12.332,-2.996 20.812,-4.195 8.481,-1.195 18.887,-1.793 31.219,-1.793"
           style="fill:#00a650;fill-opacity:1;fill-rule:evenodd;stroke:none"
           id="path28"
           inkscape:connector-curvature="0" />
        <path
           d="m 404.793,459.566 c 12.336,0 23.895,1.993 34.687,5.985 -3.855,11.187 -5.781,27.156 -5.781,47.918 0,3.992 1.926,9.582 5.781,16.765 3.856,7.192 9.637,15.579 17.344,25.161 -23.894,4.793 -48.949,14.769 -75.156,29.945 -10.793,-3.988 -21.395,-6.985 -31.801,-8.988 -10.406,-1.997 -21.004,-2.993 -31.793,-2.993 2.309,0 -7.328,1.996 -28.91,5.996 -17.73,-8.789 -31.988,-18.375 -42.785,-28.75 -10.789,-10.382 -17.727,-20.765 -20.809,-31.148 12.336,4.793 26.785,4.59 43.36,-0.594 16.57,-5.191 32.953,-14.976 49.144,-29.351 13.102,-9.586 27.172,-16.969 42.199,-22.16 15.036,-5.192 29.875,-7.786 44.52,-7.786"
           style="fill:#00a650;fill-opacity:1;fill-rule:evenodd;stroke:none"
           id="path30"
           inkscape:connector-curvature="0" />
        <path
           d="m 589.801,375.715 c 4.621,0 9.633,2.793 15.027,8.383 5.395,5.59 10.024,12.777 13.875,21.562 2.317,7.188 7.516,14.578 15.613,22.164 8.09,7.582 18.309,14.172 30.641,19.766 13.875,3.988 25.051,10.976 33.527,20.961 8.485,9.98 12.723,20.961 12.723,32.937 0,9.586 -2.121,18.168 -6.359,25.754 -4.239,7.586 -9.828,12.981 -16.766,16.176 -31.605,-11.98 -62.441,-17.969 -92.504,-17.969 -37.773,0 -72.461,5.989 -104.066,17.969 -6.938,-3.195 -12.52,-9.184 -16.766,-17.969 -4.234,-8.785 -6.355,-18.769 -6.355,-29.949 0,-8.785 2.504,-17.367 7.511,-25.758 5.012,-8.379 12.141,-15.765 21.395,-22.152 30.828,-18.371 50.101,-34.344 57.812,-47.918 3.856,-7.188 8.864,-12.977 15.032,-17.367 6.168,-4.395 12.718,-6.59 19.66,-6.59"
           style="fill:#00a650;fill-opacity:1;fill-rule:evenodd;stroke:none"
           id="path32"
           inkscape:connector-curvature="0" />
        <path
           d="m 456.824,112.191 c 4.625,0 8.676,1.395 12.145,4.188 3.469,2.797 5.199,6.187 5.199,10.187 -2.313,-1.601 -5.586,-2.8 -9.828,-3.597 -4.235,-0.801 -8.668,-1.199 -13.297,-1.199 h -34.688 c -3.085,0 -4.628,-1.598 -4.628,-4.793 0,-3.192 1.543,-4.786 4.628,-4.786 h 40.469"
           style="fill:#ffffff;fill-opacity:1;fill-rule:evenodd;stroke:none"
           id="path34"
           inkscape:connector-curvature="0" />
        <path
           d="m 543.523,79.4063 0.012,0.207 0.629,3.2812 1.031,3.1485 1.41,2.9883 1.747,2.7539 1.992,2.4882 2.222,2.2696 2.418,2.0429 2.563,1.8281 2.695,1.602 2.809,1.355 2.898,1.109 3.004,0.864 3.067,0.605 3.101,0.352 2.91,0.105 h 52.418 l 2.285,-0.07 2.454,-0.25 2.437,-0.43 2.387,-0.613 2.336,-0.785 2.293,-0.988 2.207,-1.168 2.082,-1.329 2.023,-1.5074 1.914,-1.7343 1.781,-1.9688 1.582,-2.2383 1.344,-2.4961 1.016,-2.7773 0.613,-2.8945 0.215,-3.1836 -0.504,-4.5704 -1.601,-4.5664 -2.458,-3.957 -1.484,-1.6016 0.063,0.0157 3.761,0.4375 3.848,0.2578 3.531,0.0781 9.004,0.4141 -1.617,0.7343 -5.113,4.6016 -2.219,6.8086 0.312,4.9727 0.625,3.2851 1.039,3.1563 1.411,2.9882 1.746,2.7579 1.992,2.4808 2.219,2.261 1.246,1.051 -0.317,0.125 -2.507,1.184 -2.395,1.367 -2.281,1.535 -2.164,1.809 -2.063,2.16 -1.824,2.586 -1.457,2.969 -0.953,3.332 -0.34,3.543 0.449,4.531 1.34,4.328 2.129,3.898 2.707,3.321 3.09,2.746 3.351,2.269 3.598,1.903 3.727,1.566 2.105,0.762 2.027,0.644 2.063,0.598 2.133,0.555 2.168,0.492 2.207,0.449 2.277,0.402 2.309,0.356 2.359,0.312 2.41,0.266 2.481,0.234 2.531,0.18 2.574,0.141 2.625,0.097 2.68,0.063 2.797,0.015 4.32,-0.078 4.223,-0.254 4.062,-0.437 3.895,-0.621 3.754,-0.817 3.617,-1.043 3.472,-1.285 3.305,-1.535 3.145,-1.808 2.961,-2.153 2.718,-2.531 2.383,-2.922 1.985,-3.32 1.449,-3.657 0.855,-3.812 0.262,-3.75 -0.137,-2.871 -0.445,-2.789 -0.797,-2.781 -1.164,-2.684 -1.055,-1.738 1.555,-0.399 2.332,-0.785 2.289,-0.984 2.215,-1.168 2.094,-1.336 2.011,-1.504 1.918,-1.731 1.778,-1.972 1.582,-2.2307 1.351,-2.5039 1.016,-2.7773 0.609,-2.8946 0.192,-2.7773 -0.117,-2.4805 -0.333,-2.3594 -0.57,-2.3359 -0.808,-2.2617 -1.008,-2.1211 -1.211,-2.0195 -1.367,-1.8477 -1.508,-1.707 -1.653,-1.5703 -1.785,-1.418 -1.922,-1.2383 -2.093,-1.0664 -2.172,-0.8242 -2.235,-0.5938 -2.261,-0.3437 -1.996,-0.1094 h -16.668 l 2.027,-1.3828 2.191,-1.8047 2.039,-2.168 1.833,-2.5703 1.468,-3.0078 0.953,-3.3359 0.336,-3.7578 -0.668,-5.0938 -2.047,-4.8633 -2.964,-3.9726 -3.465,-3.1094 -3.766,-2.4492 -4.062,-2.0156 -4.383,-1.7032 -4.703,-1.4531 -2.594,-0.6758 -2.563,-0.6015 -2.632,-0.5547 -2.719,-0.5195 -2.813,-0.4688 -2.871,-0.4219 -2.953,-0.3828 -3.047,-0.3437 -3.101,-0.2891 -3.188,-0.2617 -3.269,-0.211 -3.36,-0.1835 -3.445,-0.1329 -3.519,-0.0976 -3.594,-0.0586 -3.696,-0.0234 -2.687,0.0117 -2.613,0.0429 -2.539,0.0625 -2.512,0.0821 -2.457,0.1133 -2.375,0.1328 -2.324,0.164 -2.297,0.1875 -2.239,0.2188 -2.152,0.2383 -2.105,0.2695 -2.078,0.2891 -2.016,0.3359 -1.953,0.3437 -1.91,0.3829 -1.985,0.4414 -3.609,0.9726 -3.457,1.1875 -3.281,1.4805 -3.192,1.9101 -3.047,2.5743 -0.238,0.3086 -1.746,-1.4883 -3.5,-2.1367 -3.703,-1.6954 -3.934,-1.3711 -4.144,-1.1289 -2.25,-0.5078 -2.168,-0.4531 -2.207,-0.4141 -2.274,-0.3867 -2.312,-0.3476 -2.348,-0.3203 -2.402,-0.2891 -2.461,-0.2578 -2.504,-0.2188 -2.539,-0.1953 -2.586,-0.164 -2.641,-0.1368 -2.699,-0.1015 -2.738,-0.0742 -2.778,-0.043 -2.886,-0.0195 -4.184,0.0546 -4.031,0.1485 -3.852,0.2578 -3.691,0.3633 -3.512,0.4922 -3.355,0.5976 -3.207,0.7422 -3.129,0.8984 -3.024,1.1211 -2.933,1.3828 -2.828,1.754 -2.707,2.2265 -2.426,2.8281 -1.957,3.3907 -1.238,3.8711 -0.391,3.8437 0.226,3.1328 0.61,2.8946 1.023,2.746 0.446,0.836 -2.348,-0.9063 -3.281,-1.0039 -3.352,-0.7617 -3.41,-0.5391 -3.473,-0.3203 -3.277,-0.0976 -1.777,-0.0274 -1.77,-0.0703 -1.988,-0.125 -2.238,-0.1836 -2.403,-0.2304 0.867,-0.9454 1.786,-2.8359 1.304,-3.4726 0.446,-3.7618 -0.45,-4.664 -1.347,-4.3477 -2.129,-3.8945 -2.715,-3.3203 -3.074,-2.7383 -3.36,-2.2734 -3.586,-1.8946 -3.754,-1.58201 -2.093,-0.75 -2.028,-0.64844 -2.054,-0.58984 -2.118,-0.55469 -2.175,-0.49609 -2.215,-0.44922 -2.258,-0.40625 -2.34,-0.35938 -2.359,-0.30469 -2.399,-0.26953 -2.464,-0.22656 -2.532,-0.19141 -2.586,-0.13671 -2.625,-0.10157 -2.675,-0.05859 -2.735,-0.02734 -2.738,0.01953 -2.656,0.05468 -2.59,0.08985 -2.559,0.12109 -2.504,0.16016 -2.441,0.19922 -2.379,0.23437 -2.348,0.26563 -2.289,0.3125 -2.218,0.34375 -2.176,0.39062 -2.149,0.42578 -2.086,0.47657 -2.031,0.51171 -1.98,0.5586 -2.055,0.63672 -3.691,1.35934 -3.516,1.6172 -3.301,1.9453 -3.121,2.3828 -2.836,3.0118 -2.351,3.6875 -1.551,4.3164 -0.539,4.6445 0.472,4.0508 1.317,3.7031 1.918,3.1211 2.226,2.5039 2.399,2.0274 2.488,1.6484 2.586,1.4062 2.73,1.2305 2.821,1.0742 -0.688,0.1914 -1.644,0.6055 -1.614,0.8398 -1.441,0.9219 -1.262,1.0039 -1.246,1.1485 -1.148,1.3164 -0.981,1.3281 -0.898,1.4844 -0.813,1.6875 -0.586,1.707 -0.445,1.7266 -0.25,1.8007 -0.117,2.1875 0.43,3.668 1.316,3.7031 1.918,3.1211 2.223,2.5039 2.402,2.0313 2.492,1.6484 2.586,1.4063 2.735,1.2304 2.835,1.0782 2.911,0.9258 2.988,0.7695 3.039,0.6133 3.113,0.4804 3.184,0.3321 3.242,0.1992 3.395,0.0664 1.902,-0.0703 2.031,-0.1992 2.078,-0.3086 2.114,-0.4063 2.207,-0.4922 2.332,-0.5859 2.445,-0.6719 2.457,-0.7265 2.277,-0.6641 2,-0.5547 1.782,-0.4453 1.554,-0.3516 1.332,-0.2461 1.067,-0.164 0.785,-0.0782 0.476,-0.0156 1.965,0.0664 2.364,0.2227 2.718,0.3906 3.051,0.5703 3.371,0.7656 3.676,0.9454 3.976,1.1406 4.36,1.3555 4.629,1.4453 4.527,1.2968 4.313,1.1094 4.109,0.9258 3.926,0.7383 3.75,0.5429 3.605,0.3362 3.434,0.117 2.476,-0.078 2.45,-0.25 2.429,-0.422 2.387,-0.6094 2.344,-0.7891 2.293,-0.9882 2.218,-1.1758 2.086,-1.3321 2.004,-1.5 1.91,-1.7265 1.79,-1.9727 1.589,-2.2539 1.336,-2.4961 1.016,-2.7656 z m -3.66,-16.2149 2.125,0.5391 2.434,0.4258 2.453,0.246 1.313,0.043 -2.266,2.7656 -1.965,4.1368 -0.371,2.414 -0.09,-1.207 -0.855,-3.625 -1.391,-3.3945 -1.387,-2.3438"
           style="fill:#ffffff;fill-opacity:1;fill-rule:evenodd;stroke:none"
           id="path36"
           inkscape:connector-curvature="0" />
        <path
           d="m 462.609,54.6914 c -6.171,0 -15.804,1.6016 -28.91,4.7891 -13.101,3.1953 -22.738,4.7968 -28.906,4.7968 -1.539,0 -2.891,0.6016 -4.047,1.7969 -1.156,1.1914 -1.734,2.586 -1.734,4.1875 0,3.1953 2.89,5.9922 8.676,8.3867 5.777,2.3946 12.519,3.5938 20.23,3.5938 3.078,0 7.906,-0.9961 14.457,-2.9922 6.551,-1.9961 11.371,-2.9961 14.449,-2.9961 6.934,0 16.574,1.9961 28.906,5.9883 12.336,3.9883 21.977,5.9883 28.911,5.9883 4.621,0 8.672,-1.1953 12.136,-3.5938 3.473,-2.3945 5.203,-5.1875 5.203,-8.3828 0,-4.7891 -2.886,-8.9883 -8.667,-12.5781 -5.778,-3.5977 -12.532,-5.3867 -20.235,-5.3867 -4.629,0 -11.371,-0.6016 -20.238,-1.8008 -8.863,-1.1992 -15.61,-1.7969 -20.231,-1.7969 z M 439.48,16.3555 c -13.878,0 -25.05,1.4062 -33.531,4.1992 -8.48,2.793 -12.719,6.582 -12.719,11.3789 0,3.1953 2.891,5.9844 8.672,8.3828 5.786,2.3984 12.528,3.5977 20.235,3.5977 h 40.472 c 6.164,0 11.559,-1 16.188,-3 4.625,-1.9961 6.933,-4.1875 6.933,-6.5899 0,-5.5898 -4.242,-9.9765 -12.714,-13.1758 -8.481,-3.1914 -19.661,-4.7929 -33.536,-4.7929 z m 127.188,11.9843 c -10.789,0 -19.27,0.9922 -25.434,2.9922 -6.171,1.9961 -9.254,4.9961 -9.254,8.9844 0,3.1992 1.735,5.9883 5.208,8.3828 3.468,2.4024 7.515,3.5938 12.136,3.5938 3.086,0 7.899,1 14.457,2.9961 6.551,1.9961 11.371,3 14.453,3 3.086,0 7.903,-1.0039 14.454,-3 6.554,-1.9961 11.371,-2.9961 14.453,-2.9961 3.082,0 5.781,-0.9961 8.093,-2.9922 2.313,-1.9961 3.469,-4.1914 3.469,-6.586 0,-4.7968 -5.008,-8.3906 -15.027,-10.7812 -10.024,-2.3945 -22.356,-3.5938 -37.008,-3.5938 z m 28.91,35.9375 c -11.562,0 -21.195,1.1993 -28.91,3.5899 -7.707,2.3945 -11.559,5.1953 -11.559,8.3867 0,4.7891 2.309,8.9805 6.938,12.5781 4.621,3.5938 10.023,5.3907 16.187,5.3907 h 52.032 c 4.632,0 8.672,-1.1993 12.14,-3.5938 3.473,-2.3984 5.203,-5.1914 5.203,-8.3867 0,-5.5899 -4.812,-9.9844 -14.449,-13.1758 -9.637,-3.1953 -22.164,-4.7891 -37.582,-4.7891 z M 676.52,28.3398 c -13.875,0 -25.055,0.9922 -33.536,2.9922 -8.48,1.9961 -12.718,4.9961 -12.718,8.9844 0,3.9922 3.472,7.5899 10.41,10.7852 6.933,3.1953 15.031,4.7851 24.281,4.7851 l 52.035,2.4024 c 6.16,0 11.559,-1.2032 16.18,-3.5977 4.633,-2.3984 6.941,-5.1875 6.941,-8.3867 0,-5.5859 -5.781,-9.9766 -17.343,-13.1719 -11.563,-3.1992 -26.981,-4.793 -46.25,-4.793 z m 28.906,47.9141 c -19.274,0 -28.906,1.9961 -28.906,5.9883 0,4.793 2.312,8.9805 6.929,12.5742 4.633,3.5938 10.028,5.3946 16.196,5.3946 h 52.035 c 4.621,0 8.668,-1.1993 12.136,-3.5938 3.469,-2.3945 5.207,-5.1953 5.207,-8.3867 0,-3.1914 -1.16,-5.9883 -3.468,-8.3828 -2.313,-2.3946 -5.008,-3.5938 -8.094,-3.5938 z m -11.563,35.9371 c -6.164,0 -11.558,1.196 -16.191,3.598 -4.625,2.387 -6.934,5.18 -6.934,8.375 0,5.594 4.239,9.984 12.711,13.18 8.485,3.191 19.664,4.789 33.543,4.789 10.789,0 19.27,-1.598 25.434,-4.789 6.168,-3.196 9.254,-7.586 9.254,-13.18 0,-3.992 -1.547,-6.98 -4.629,-8.976 -3.082,-2 -7.321,-2.997 -12.719,-2.997 h -40.469"
           style="fill:#231f20;fill-opacity:1;fill-rule:evenodd;stroke:none"
           id="path38"
           inkscape:connector-curvature="0" />
      </g>
    </g>
  </g>
</svg>
