<?xml version="1.0" encoding="UTF-8" standalone="no"?>
<!-- Created with Inkscape (http://www.inkscape.org/) -->

<svg
   width="500"
   height="294"
   viewBox="0 0 132.29166 77.787502"
   version="1.1"
   id="svg8"
   xmlns="http://www.w3.org/2000/svg"
   xmlns:svg="http://www.w3.org/2000/svg"
   xmlns:rdf="http://www.w3.org/1999/02/22-rdf-syntax-ns#"
   xmlns:cc="http://creativecommons.org/ns#"
   xmlns:dc="http://purl.org/dc/elements/1.1/">
  <defs
     id="defs2">
    <clipPath
       clipPathUnits="userSpaceOnUse"
       id="clipPath324">
      <rect
         style="fill:#ffffff;stroke-width:1"
         y="-1.1674684e-06"
         x="3.2383477e-07"
         width="113.99999"
         height="67"
         id="rect326" />
    </clipPath>
    <clipPath
       clipPathUnits="userSpaceOnUse"
       id="clipPath328">
      <rect
         style="fill:#ffffff;stroke-width:1"
         y="-1.1674684e-06"
         x="3.2383477e-07"
         width="113.99999"
         height="67"
         id="rect330" />
    </clipPath>
    <clipPath
       clipPathUnits="userSpaceOnUse"
       id="clipPath332">
      <rect
         style="fill:#ffffff;stroke-width:1"
         y="-1.1674684e-06"
         x="3.2383477e-07"
         width="113.99999"
         height="67"
         id="rect334" />
    </clipPath>
    <clipPath
       clipPathUnits="userSpaceOnUse"
       id="clipPath336">
      <rect
         style="fill:#ffffff;stroke-width:1"
         y="-1.1674684e-06"
         x="3.2383477e-07"
         width="113.99999"
         height="67"
         id="rect338" />
    </clipPath>
    <clipPath
       clipPathUnits="userSpaceOnUse"
       id="clipPath340">
      <rect
         style="fill:#ffffff;stroke-width:1"
         y="-1.1674684e-06"
         x="3.2383477e-07"
         width="113.99999"
         height="67"
         id="rect342" />
    </clipPath>
    <clipPath
       clipPathUnits="userSpaceOnUse"
       id="clipPath344">
      <rect
         style="fill:#ffffff;stroke-width:1"
         y="-1.1674684e-06"
         x="3.2383477e-07"
         width="113.99999"
         height="67"
         id="rect346" />
    </clipPath>
    <clipPath
       clipPathUnits="userSpaceOnUse"
       id="clipPath348">
      <rect
         style="fill:#ffffff;stroke-width:1"
         y="-1.1674684e-06"
         x="3.2383477e-07"
         width="113.99999"
         height="67"
         id="rect350" />
    </clipPath>
    <clipPath
       clipPathUnits="userSpaceOnUse"
       id="clipPath352">
      <rect
         style="fill:#ffffff;stroke-width:1"
         y="-1.1674684e-06"
         x="3.2383477e-07"
         width="113.99999"
         height="67"
         id="rect354" />
    </clipPath>
    <clipPath
       clipPathUnits="userSpaceOnUse"
       id="clipPath356">
      <rect
         style="fill:#ffffff;stroke-width:1"
         y="-1.1674684e-06"
         x="3.2383477e-07"
         width="113.99999"
         height="67"
         id="rect358" />
    </clipPath>
    <clipPath
       clipPathUnits="userSpaceOnUse"
       id="clipPath360">
      <rect
         style="fill:#ffffff;stroke-width:1"
         y="-1.1674684e-06"
         x="3.2383477e-07"
         width="113.99999"
         height="67"
         id="rect362" />
    </clipPath>
    <clipPath
       clipPathUnits="userSpaceOnUse"
       id="clipPath364">
      <rect
         style="fill:#ffffff;stroke-width:1"
         y="-1.1674684e-06"
         x="3.2383477e-07"
         width="113.99999"
         height="67"
         id="rect366" />
    </clipPath>
    <clipPath
       clipPathUnits="userSpaceOnUse"
       id="clipPath368">
      <rect
         style="fill:#ffffff;stroke-width:1"
         y="-1.1674684e-06"
         x="3.2383477e-07"
         width="113.99999"
         height="67"
         id="rect370" />
    </clipPath>
  </defs>
  <metadata
     id="metadata5">
    <rdf:RDF>
      <cc:Work
         rdf:about="">
        <dc:format>image/svg+xml</dc:format>
        <dc:type
           rdf:resource="http://purl.org/dc/dcmitype/StillImage" />
      </cc:Work>
    </rdf:RDF>
  </metadata>
  <g
     id="g396"
     transform="matrix(4.9993607,0,0,4.9993607,0.00846049,0.01885747)">
    <path
       id="path3928"
       d="m 0,45.9409 h 3.78276 v 5.2133 c 1.34584,-1.4344 3.14458,-1.4344 3.66953,-1.4344 2.64281,0 6.22221,1.8894 6.22221,6.6709 0,4.5527 -3.1677,6.8303 -6.38175,6.8303 -1.77816,0 -3.14458,-0.8637 -3.62322,-1.7763 H 3.62579 v 1.3445 H 0 Z m 6.72147,13.7506 c 1.9377,0 3.16774,-1.5707 3.16774,-3.2339 0,-1.6401 -1.23004,-3.2108 -3.10083,-3.2108 -2.00461,0 -3.14458,1.6169 -3.14458,3.1876 0.00257,1.7532 1.18887,3.2571 3.07767,3.2571 z"
       style="fill:#2263e8"
       transform="matrix(0.23212034,0,0,0.23212034,-0.00169252,-5.851219e-5)"
       clip-path="url(#clipPath368)" />
    <path
       id="path3930"
       d="m 21.1935,49.7429 c 4.6036,0 6.8141,3.6196 6.8141,6.7172 0,3.0952 -2.2105,6.7173 -6.8141,6.7173 -4.6036,0 -6.8141,-3.6196 -6.8141,-6.7173 0,-3.0976 2.2105,-6.7172 6.8141,-6.7172 z m 0,9.9023 c 1.6418,0 3.0314,-1.3444 3.0314,-3.1876 0,-1.8432 -1.3896,-3.1877 -3.0314,-3.1877 -1.6418,0 -3.0313,1.3419 -3.0313,3.1877 0.0025,1.8457 1.3921,3.1876 3.0313,3.1876 z"
       style="fill:#2263e8"
       transform="matrix(0.23212034,0,0,0.23212034,-0.00169252,-5.851219e-5)"
       clip-path="url(#clipPath364)" />
    <path
       id="path3932"
       d="m 29.3307,50.1517 h 3.5331 v 1.3419 h 0.0438 c 0.2959,-0.5244 1.1168,-1.7764 3.4868,-1.7764 1.1168,0 2.6428,0.3882 3.6464,2.2545 0.7746,-1.2288 2.0741,-2.2545 4.0118,-2.2545 0.8878,0 2.3031,0.2057 3.3273,1.2751 1.1837,1.2519 1.3664,2.0951 1.3664,4.8946 v 6.8972 h -3.7828 v -6.7147 c 0,-1.0257 0,-2.802 -1.9377,-2.802 -2.0972,0 -2.0972,1.9126 -2.0972,2.6195 v 6.8972 h -3.7828 v -6.8715 c 0,-0.6838 0,-2.6427 -1.8914,-2.6427 -2.1435,0 -2.1435,2.0489 -2.1435,2.8021 v 6.7146 H 29.3281 V 50.1517 Z"
       style="fill:#2263e8"
       transform="matrix(0.23212034,0,0,0.23212034,-0.00169252,-5.851219e-5)"
       clip-path="url(#clipPath360)" />
    <path
       id="path3934"
       d="m 50.5938,50.1517 h 3.5563 v 1.3881 h 0.0231 0.0463 c 0.7514,-0.9563 2.0046,-1.82 3.9423,-1.82 4.4905,0 6.176,3.9383 6.176,6.8766 0,3.6427 -2.5527,6.6247 -6.1554,6.6247 -2.2773,0 -3.3478,-1.0926 -3.8059,-1.5707 V 67 h -3.7827 z m 9.9586,6.329 c 0,-1.5038 -1.0936,-3.2339 -3.1677,-3.2339 -2.0741,0 -3.1677,1.7301 -3.1677,3.2339 0,1.5938 1.1837,3.2108 3.1677,3.2108 1.984,0 3.1677,-1.617 3.1677,-3.2108 z"
       style="fill:#2263e8"
       transform="matrix(0.23212034,0,0,0.23212034,-0.00169252,-5.851219e-5)"
       clip-path="url(#clipPath356)" />
    <path
       id="path3936"
       d="m 65.6372,50.1517 h 3.5537 v 1.3419 h 0.0464 c 0.319,-0.6144 0.9804,-1.7764 3.1677,-1.7764 v 3.8021 C 70.65,53.563 69.42,53.928 69.42,55.8406 v 6.9435 h -3.7828 z"
       style="fill:#2263e8"
       transform="matrix(0.23212034,0,0,0.23212034,-0.00169252,-5.851219e-5)"
       clip-path="url(#clipPath352)" />
    <path
       id="path3938"
       d="m 85.2147,58.8278 c -0.615,1.4113 -1.5054,2.5039 -2.5759,3.2339 -1.0473,0.7507 -2.3031,1.1389 -3.6,1.1389 -3.6232,0 -6.7009,-2.9358 -6.7009,-6.6941 0,-3.5296 2.7792,-6.7841 6.6314,-6.7841 3.8522,0 6.6777,3.0514 6.6777,6.8972 0,0.5013 -0.0463,0.7069 -0.09,1.0026 h -9.4801 c 0.229,1.5038 1.4822,2.3907 2.9619,2.3907 1.1631,0 1.7781,-0.5244 2.3031,-1.1825 h 3.8728 z m -3.3504,-3.7583 c -0.1596,-0.7507 -0.911,-2.162 -2.8718,-2.162 -1.9609,0 -2.7123,1.4113 -2.8718,2.162 z"
       style="fill:#2263e8"
       transform="matrix(0.23212034,0,0,0.23212034,-0.00169252,-5.851219e-5)"
       clip-path="url(#clipPath348)" />
    <path
       id="path3940"
       d="m 99.7104,57.9846 c -0.6845,2.8689 -3.2141,5.2133 -6.6314,5.2133 -3.8291,0 -6.7704,-3.0051 -6.7704,-6.7609 0,-3.7121 2.895,-6.7172 6.6777,-6.7172 3.3505,0 6.0627,2.2082 6.7009,5.3059 h -3.8291 c -0.4117,-0.8663 -1.1631,-1.7764 -2.7354,-1.7764 -1.8013,-0.0899 -3.0082,1.3882 -3.0082,3.2108 0,1.8432 1.2069,3.2108 3.0082,3.2108 1.5723,0 2.3237,-0.91 2.7354,-1.6838 h 3.8523 z"
       style="fill:#2263e8"
       transform="matrix(0.23212034,0,0,0.23212034,-0.00169252,-5.851219e-5)"
       clip-path="url(#clipPath344)" />
    <path
       id="path3942"
       d="m 97.1808,64.1337 h -8.528 v 1.8946 h 8.528 z"
       style="fill:#2263e8"
       transform="matrix(0.23212034,0,0,0.23212034,-0.00169252,-5.851219e-5)"
       clip-path="url(#clipPath340)" />
    <path
       id="path3944"
       d="m 107.186,49.7429 c 4.604,0 6.814,3.6196 6.814,6.7172 0,3.0952 -2.21,6.7173 -6.814,6.7173 -4.603,0 -6.814,-3.6196 -6.814,-6.7173 -0.003,-3.0976 2.208,-6.7172 6.814,-6.7172 z m 0,9.9023 c 1.642,0 3.032,-1.3444 3.032,-3.1876 0,-1.8432 -1.39,-3.1877 -3.032,-3.1877 -1.642,0 -3.031,1.3419 -3.031,3.1877 0,1.8457 1.389,3.1876 3.031,3.1876 z"
       style="fill:#2263e8"
       transform="matrix(0.23212034,0,0,0.23212034,-0.00169252,-5.851219e-5)"
       clip-path="url(#clipPath336)" />
    <path
       id="path3946"
       d="M 61.8957,0.868896 H 47.6602 V 41.3882 h 14.2355 z"
       style="fill:#e1251b"
       transform="matrix(0.23212034,0,0,0.23212034,-0.00169252,-5.851219e-5)"
       clip-path="url(#clipPath332)" />
    <path
       id="path3948"
       d="m 92.2633,26.1054 h 9.3157 c -1.6936,3.1594 -5.0827,4.9769 -9.0713,4.9769 -5.9623,0 -10.162,-3.9358 -10.162,-9.6658 v -0.1157 c 0,-5.4987 4.017,-9.5502 9.5521,-9.5502 2.5965,0 4.9614,0.6916 7.1461,1.9563 L 110.032,6.8946 C 105.505,2.32134 98.362,0 91.4733,0 78.0277,0 67.9893,9.02828 67.9893,21.126 v 0.1156 c 0,12.5605 10.6483,21.0103 23.9111,21.0103 7.7251,0 16.1316,-2.563 21.5436,-11.1362 V 16.9306 H 92.2633 Z"
       style="fill:#e1251b"
       transform="matrix(0.23212034,0,0,0.23212034,-0.00169252,-5.851219e-5)"
       clip-path="url(#clipPath328)" />
    <path
       id="path3950"
       d="m 33.3224,16.935 c 1.2146,-1.7147 1.8759,-3.7738 1.8759,-5.8766 0,-5.60412 -4.5779,-10.190236 -10.1723,-10.190236 H 0.0263672 V 41.3874 H 29.0404 c 6.8887,0 12.5834,-5.7043 12.5834,-12.6041 C 41.6213,23.354 38.1499,18.6985 33.3224,16.935 Z"
       style="clip-rule:evenodd;fill:#e1251b;fill-rule:evenodd"
       transform="matrix(0.23212034,0,0,0.23212034,-0.00169252,-5.851219e-5)"
       clip-path="url(#clipPath324)" />
  </g>
</svg>
