<?xml version="1.0" encoding="UTF-8" standalone="no"?>
<!-- Created with Inkscape (http://www.inkscape.org/) -->

<svg
   xmlns:dc="http://purl.org/dc/elements/1.1/"
   xmlns:cc="http://creativecommons.org/ns#"
   xmlns:rdf="http://www.w3.org/1999/02/22-rdf-syntax-ns#"
   xmlns:svg="http://www.w3.org/2000/svg"
   xmlns="http://www.w3.org/2000/svg"
   xmlns:sodipodi="http://sodipodi.sourceforge.net/DTD/sodipodi-0.dtd"
   xmlns:inkscape="http://www.inkscape.org/namespaces/inkscape"
   width="2717.9675"
   height="886.97119"
   id="svg2"
   version="1.1"
   inkscape:version="0.48.0 r9654"
   sodipodi:docname="Nowy dokument 1">
  <defs
     id="defs4" />
  <sodipodi:namedview
     id="base"
     pagecolor="#ffffff"
     bordercolor="#666666"
     borderopacity="1.0"
     inkscape:pageopacity="0.0"
     inkscape:pageshadow="2"
     inkscape:zoom="0.24748737"
     inkscape:cx="1805.4844"
     inkscape:cy="915.77549"
     inkscape:document-units="px"
     inkscape:current-layer="layer1"
     showgrid="false"
     fit-margin-top="0"
     fit-margin-left="0"
     fit-margin-right="0"
     fit-margin-bottom="0"
     inkscape:window-width="1366"
     inkscape:window-height="706"
     inkscape:window-x="-8"
     inkscape:window-y="-8"
     inkscape:window-maximized="1" />
  <metadata
     id="metadata7">
    <rdf:RDF>
      <cc:Work
         rdf:about="">
        <dc:format>image/svg+xml</dc:format>
        <dc:type
           rdf:resource="http://purl.org/dc/dcmitype/StillImage" />
        <dc:title></dc:title>
      </cc:Work>
    </rdf:RDF>
  </metadata>
  <g
     inkscape:label="Layer 1"
     inkscape:groupmode="layer"
     id="layer1"
     transform="translate(1012.3102,-166.86219)">
    <path
       style="fill:#ffffff;fill-opacity:1;stroke:none"
       d="m -674.7819,182.62084 -284.86302,152.53304 53.53809,75.76144 28.28427,106.06601 -34.34519,107.07617 -65.65991,108.08633 33.33503,138.39089 111.11678,49.49748 214.15234,35.35534 245.46707,-11.11168 269.71073,-19.1929 202.030507,31.31473 259.609203,71.72081 232.33509,-77.78172 403.05086,-17.1726 490.93415,4.04061 107.0762,-36.36549 41.4162,-50.50763 32.3249,-51.51778 16.1624,-56.56854 -24.2436,-62.62946 -53.5381,-81.82235 -28.2843,-58.58885 -8.0812,-52.52793 9.0914,-49.49748 33.335,-41.41625 33.335,-40.4061 12.1219,-28.28427 -277.792,-137.38075 -177.7868,61.6193 -236.37572,42.42641 -276.7818,-11.11168 -334.36049,-91.92388 -218.19295,69.70053 -300.01531,35.35534 -314.15744,-26.26397 -188.89853,-70.71068 z"
       id="path3002"
       inkscape:connector-curvature="0" />
    <path
       style="fill:#fc0015"
       d="m 335.7858,1047.2808 c -86.151,-53.52607 -227.9264,-85.28739 -407,-91.17842 -42.19073,-1.38796 -180.86053,-0.57759 -214,1.25059 -3.575,0.19722 -16.625,0.63706 -29,0.97741 -12.375,0.34035 -24.975,0.80528 -28,1.03318 -3.025,0.2279 -13.15,0.68117 -22.5,1.00727 -9.35,0.32611 -19.25,0.77272 -22,0.99247 -2.75,0.21976 -11.75,0.6585 -20,0.97498 -8.25,0.31648 -18.825,0.78026 -23.5,1.03061 -12.28061,0.65765 -27.42197,1.37171 -53,2.49945 -12.375,0.54562 -26.1,1.20453 -30.5,1.46423 -4.4,0.25971 -15.875,0.74145 -25.5,1.07054 -9.625,0.32909 -19.975,0.75952 -23,0.95651 -37.31997,2.4303 -125.69583,2.43934 -143.5,0.0147 -1.65,-0.2247 -8.625,-0.90955 -15.5,-1.52187 -6.875,-0.61232 -20.31056,-2.22172 -29.85679,-3.57644 -147.88985,-20.98727 -237.22406,-86.86159 -257.54801,-189.91382 -2.8057,-14.22625 -3.7195,-22.76875 -3.6905,-34.5 0.034,-13.84706 1.9835,-25.68927 6.1929,-37.62118 8.31946,-23.58192 19.72379,-40.48076 54.91924,-81.37882 30.81122,-35.80346 41.90986,-51.57887 49.6574,-70.58209 6.57944,-16.13812 7.67613,-22.03494 7.70285,-41.41791 0.0211,-15.32457 -0.31743,-19.11603 -2.72353,-30.5 -11.64715,-55.1059 -39.73042,-94.69454 -91.65356,-129.20288 -5.775,-3.83809 -12.6375,-8.21783 -15.25,-9.73276 -2.6125,-1.51492 -4.7465,-3.04914 -4.7422,-3.40938 0,-0.36024 1.0168,-1.12322 2.25,-1.69551 2.486,-1.15369 52.88302,-26.92695 73.2422,-37.45641 12.32226,-6.37288 27.45364,-14.15152 71,-36.49919 10.45,-5.36287 25.3,-13.01159 33,-16.99717 7.7,-3.98559 27.95,-14.33982 45,-23.00942 17.05,-8.6696 33.25,-16.99468 36,-18.50017 2.75,-1.5055 18.275,-9.49972 34.5,-17.76495 l 29.5,-15.02769 9,3.93416 c 4.95,2.16379 21.31923,8.90142 36.37607,14.97252 93.60013,37.74069 169.22386,60.16093 245.91775,72.90748 19.90454,3.30815 59.63877,8.4496 73.20618,9.4726 4.675,0.3525 13.45,1.05792 19.5,1.5676 20.29883,1.71009 47.70136,2.44117 91.5,2.44117 38.53392,0 90.26421,-1.00767 101.5,-1.97714 2.2,-0.18983 10.075,-0.63 17.5,-0.97817 77.635,-3.64037 159.2012,-15.08397 225.3974,-31.6229 61.0979,-15.26512 124.3378,-36.87277 193.3314,-66.05702 8.9259,-3.77562 16.8261,-6.86477 17.5561,-6.86477 0.7299,0 7.1396,2.50667 14.2437,5.57037 87.9433,37.92626 174.5565,65.18668 253.9714,79.93422 41.7357,7.75041 94.5925,14.43713 134,16.95183 22.146,1.4132 26.2688,1.69077 30.5,2.05349 2.475,0.21217 13.05,0.69268 23.5,1.06781 10.45,0.37513 20.35,0.81787 22,0.98387 1.65,0.16601 25.05,0.61634 52,1.00075 43.4972,0.62043 94.7734,-0.35718 109.3763,-2.08532 1.993,-0.23586 10.3737,-0.91933 18.6237,-1.51882 8.25,-0.59949 16.575,-1.27101 18.5,-1.49226 1.925,-0.22126 7.775,-0.89199 13,-1.49052 84.7992,-9.71386 166.4978,-30.52349 260.6126,-66.38126 23.7885,-9.06342 70.6947,-28.17968 76.6396,-31.23387 2.6405,-1.35656 3.4929,-1.03212 21,7.99331 10.0363,5.17399 36.0228,18.51577 57.7478,29.64839 21.725,11.13262 46.7,23.95432 55.5,28.49266 15.9265,8.21362 35.0959,18.04704 77,39.499 12.1,6.19436 28.3,14.52206 36,18.50601 24.6433,12.75033 73.8898,37.88411 77.25,39.42586 1.7875,0.82014 3.25,1.77783 3.25,2.12819 0,0.35036 -3.9375,3.02949 -8.75,5.95362 -55.2623,33.57804 -87.849,74.3799 -100.6249,125.99267 -12.3266,49.79755 -5.162,81.20686 28.3988,124.5 4.2636,5.5 14.6045,17.875 22.9798,27.5 41.7735,48.00655 55.6155,71.20913 60.5196,101.44518 4.6113,28.43055 -2.8258,68.51217 -18.936,102.05482 -22.162,46.14278 -58.1229,79.42764 -114.0873,105.59745 -44.8651,20.97962 -99.9477,33.95973 -171,40.29588 -29.7964,2.65711 -91.9293,2.68687 -146,0.0699 -10.9904,-0.53192 -48.3151,-2.13556 -69.5,-2.98604 -7.425,-0.29808 -16.65,-0.74148 -20.5,-0.98533 -3.85,-0.24386 -13.525,-0.69332 -21.5,-0.99882 -7.975,-0.30549 -16.75,-0.74502 -19.5,-0.97672 -2.75,-0.23171 -13.1,-0.68628 -23,-1.01015 -9.9,-0.32387 -19.575,-0.77946 -21.5,-1.01242 -1.925,-0.23295 -11.6,-0.68943 -21.5,-1.01438 -9.9,-0.32496 -20.025,-0.76725 -22.5,-0.98287 -2.475,-0.21563 -15.3,-0.67135 -28.5,-1.01271 -13.2,-0.34136 -26.3996,-0.78529 -29.3324,-0.98651 -13.9365,-0.95616 -84.1983,-1.99523 -133.6676,-1.97675 -59.9171,0.0224 -76.4587,0.27931 -98.5,1.52987 -7.975,0.45248 -19.675,1.09432 -26,1.4263 -6.325,0.33199 -13.75,0.79609 -16.5,1.03133 -2.75,0.23524 -8.6,0.68691 -13,1.0037 -136.8558,9.8534 -258.868,41.56038 -329.0218,85.50188 -7.0127,4.3925 -13.0267,7.9734 -13.3643,7.9575 -0.3376,-0.016 -5.3389,-2.9645 -11.1139,-6.5525 z m 20.8209,-52.45154 c 53.8935,-26.48753 135.4815,-47.82784 234.8959,-61.43973 36.9149,-5.05442 97.602,-11.1025 131.2832,-13.08368 5.775,-0.3397 11.4142,-0.75587 12.5316,-0.92483 1.1174,-0.16896 8.9924,-0.62249 17.5,-1.00786 8.5076,-0.38536 17.2684,-0.85699 19.4684,-1.04807 29.1258,-2.5297 214.3155,-2.52986 236.5,-2e-4 1.375,0.15679 9.925,0.59196 19,0.96705 9.075,0.37509 18.3,0.86444 20.5,1.08743 2.2,0.223 8.95,0.65821 15,0.96712 6.05,0.30892 14.375,0.78649 18.5,1.06128 4.125,0.27478 10.875,0.72185 15,0.99348 4.125,0.27163 10.65,0.70646 14.5,0.96629 14.2038,0.95858 22.2511,1.4539 32.5,2.0004 5.775,0.30794 12.75,0.7505 15.5,0.98348 2.75,0.23297 11.525,0.70989 19.5,1.05982 7.975,0.34993 16.75,0.7884 19.5,0.97436 36.4961,2.46803 166.8913,2.45981 174.8283,-0.011 0.6444,-0.20062 5.2217,-0.64068 10.1717,-0.9779 9.5628,-0.65147 25.3431,-2.25358 29.5,-2.99501 1.375,-0.24524 4.75,-0.70892 7.5,-1.0304 16.5877,-1.93912 38.6467,-6.10227 59,-11.13495 78.5283,-19.41741 130.2339,-53.18095 154.1405,-100.65313 9.3923,-18.65069 14.9213,-44.08496 14.0692,-64.721 -0.6405,-15.51129 -2.9894,-24.66726 -10.1862,-39.70575 -6.8088,-14.22748 -15.6806,-27.23996 -34.7302,-50.9394 -36.4339,-45.32715 -49.4832,-66.20039 -58.7075,-93.90701 -7.6241,-22.90023 -10.1831,-42.19529 -8.9317,-67.34785 1.9219,-38.63201 14.8896,-71.16973 41.5132,-104.16246 7.6386,-9.46604 26.7341,-28.99857 38.8225,-39.71099 4.3943,-3.89419 7.7693,-7.2696 7.5,-7.50091 -0.2694,-0.23131 -14.8898,-7.74812 -32.4898,-16.70402 -17.6,-8.9559 -41.225,-21.00673 -52.5,-26.77963 -43.3268,-22.18373 -63.3087,-32.40456 -86,-43.98947 -12.925,-6.59878 -36.3508,-18.56396 -52.0573,-26.58928 l -28.5573,-14.59151 -16.4427,6.49529 c -142.9805,56.48097 -229.4671,78.93246 -334.9427,86.94954 -4.125,0.31354 -9.525,0.73631 -12,0.93949 -32.5822,2.67482 -153.7494,2.67191 -212.5,-0.005 -11.2119,-0.51088 -38.1672,-2.03258 -53.5,-3.02023 -9.9304,-0.63966 -40.6928,-3.2411 -46.5,-3.93231 -2.2,-0.26186 -10.3,-1.1639 -18,-2.00453 -99.6924,-10.88376 -197.715,-36.01554 -308.866,-79.18939 l -21.8659,-8.4933 -5.6341,2.19784 c -131.4782,51.28983 -227.8174,75.68675 -345.634,87.52831 -9.7981,0.98479 -14.0735,1.40568 -19.5,1.91966 -10.1542,0.96176 -48.3644,3.45963 -62.5,4.08574 -7.7,0.34106 -16.025,0.78988 -18.5,0.99739 -25.0725,2.10209 -172.17682,2.59084 -201,0.66781 -122.66235,-8.18392 -201.30921,-27.51247 -352.38982,-86.60475 l -21.88981,-8.56179 -20.11019,10.35092 c -19.16803,9.86598 -36.53644,18.74364 -95.11018,48.61449 -14.3,7.29257 -34.1,17.41641 -44,22.49741 -9.9,5.08101 -34.2,17.45777 -54,27.50392 -19.8,10.04615 -36.57141,18.79156 -37.26981,19.43426 -1.00108,0.92124 0.48881,2.67822 7.04023,8.30232 4.57051,3.92359 14.38326,13.34861 21.80612,20.94448 34.24217,35.04036 50.47808,65.14467 57.066,105.81069 2.0754,12.81105 1.54351,43.5452 -0.99907,57.7297 -4.51946,25.21309 -15.38298,50.96668 -31.96186,75.7703 -4.96291,7.425 -17.86831,24.525 -28.67866,38 -30.65355,38.20936 -41.94066,56.59652 -47.67182,77.65926 -3.07312,11.29413 -3.0719,34.65444 0.003,49.02915 13.44397,62.85777 62.39452,105.75595 149.86243,131.33303 31.05241,9.08025 74.96472,16.6453 113.30389,19.51958 4.675,0.35048 9.60027,0.80825 10.94504,1.01726 15.83612,2.4613 142.92901,2.42766 172.55496,-0.0457 2.2,-0.18367 10.975,-0.62979 19.5,-0.99139 8.525,-0.36159 17.3,-0.82486 19.5,-1.02948 2.2,-0.20462 9.175,-0.63677 15.5,-0.96032 6.325,-0.32355 14.2,-0.79412 17.5,-1.0457 3.3,-0.25158 13.65,-0.92512 23,-1.49677 9.35,-0.57164 19.7,-1.23883 23,-1.48264 3.3,-0.2438 10.725,-0.69957 16.5,-1.01282 5.775,-0.31324 12.75,-0.76046 15.5,-0.99382 2.75,-0.23337 12.2,-0.7095 21,-1.05808 8.8,-0.34857 17.35,-0.78867 19,-0.978 22.12419,-2.53855 208.09777,-2.53115 236.5,0.009 1.925,0.17219 10.025,0.6001 18,0.95092 7.975,0.35082 16.75,0.83883 19.5,1.08445 2.75,0.24563 8.375,0.67335 12.5,0.9505 131.4663,8.83299 243.2748,28.59689 320.7095,56.69047 16.6768,6.05042 44.0914,17.87364 50.2905,21.68901 1.925,1.18479 3.7353,2.1558 4.023,2.1579 0.2876,0 6.0467,-2.71108 12.7979,-6.02919 z m -21.61,-38.50433 c -69.8104,-28.15046 -173.2196,-52.85391 -269.7109,-64.4313 -4.95,-0.59392 -10.575,-1.27827 -12.5,-1.52078 -17.0332,-2.1458 -59.7886,-5.84265 -81.5,-7.04692 -6.05,-0.33557 -12.6766,-0.77585 -14.7257,-0.97839 -2.0491,-0.20254 -13.0741,-0.66041 -24.5,-1.01748 -11.4259,-0.35707 -21.8993,-0.8532 -23.2743,-1.1025 -6.81069,-1.23486 -145.23347,-1.5644 -180,-0.42853 -20.625,0.67385 -38.85,1.37658 -40.5,1.56162 -1.65,0.18504 -11.55,0.64654 -22,1.02556 -10.45,0.37901 -19.225,0.81488 -19.5,0.96859 -0.275,0.15371 -7.25,0.59015 -15.5,0.96987 -8.25,0.37972 -16.35,0.85508 -18,1.05635 -1.65,0.20127 -8.4,0.63507 -15,0.96399 -6.6,0.32892 -18.075,1.01333 -25.5,1.5209 -7.425,0.50757 -18.225,1.18334 -24,1.5017 -5.775,0.31836 -16.8,0.99235 -24.5,1.49776 -19.47151,1.27806 -29.77822,1.85182 -46,2.56076 -7.7,0.33651 -15.0731,0.77848 -16.38466,0.98215 -4.4436,0.69003 -60.47019,1.95391 -86.61534,1.95391 -41.88236,0 -74.08268,-1.85576 -104.63346,-6.0302 -85.1671,-11.63718 -140.94233,-42.65125 -170.79227,-94.9698 -17.36109,-30.42912 -14.17891,-58.09574 11.4383,-99.44721 3.21889,-5.19597 13.82871,-20.56375 23.57737,-34.15062 28.61339,-39.87899 37.0414,-53.00164 47.46361,-73.90217 23.04846,-46.22102 27.12561,-91.30196 12.33851,-136.42672 -9.04367,-27.59793 -25.09894,-53.93625 -54.15193,-88.83505 l -9.79158,-11.76178 12.27572,-5.88079 c 6.75165,-3.23444 30.27573,-14.75634 52.27573,-25.60423 22,-10.84789 47.65,-23.44898 57,-28.00243 9.35,-4.55345 29.3209,-14.31888 44.37977,-21.70096 l 27.37978,-13.42197 15.12022,5.3439 c 116.08675,41.02815 208.90771,65.31328 282.12023,73.81227 2.75,0.31924 8.375,1.0055 12.5,1.52503 12.81086,1.61348 39.87447,3.87171 54,4.50584 7.425,0.33332 14.12219,0.80401 14.88264,1.04598 2.62658,0.83574 97.11307,0.39898 118.83104,-0.5493 11.98247,-0.52319 28.76132,-1.20754 37.28632,-1.52077 8.525,-0.31323 18.875,-0.772 23,-1.01948 4.125,-0.24748 13.35,-0.7009 20.5,-1.00759 7.15,-0.3067 15.475,-0.75236 18.5,-0.99036 3.025,-0.23801 10.45,-0.68395 16.5,-0.99098 6.05,-0.30704 13.475,-0.76138 16.5,-1.00964 3.025,-0.24826 8.875,-0.69654 13,-0.99617 62.6017,-4.54726 122.2858,-12.41605 172,-22.67656 26.511,-5.47163 68.6909,-16.13112 96.5,-24.38706 21.029,-6.24306 73.3562,-23.57353 99.7674,-33.04241 l 10.7673,-3.86029 9.2327,3.34199 c 105.8074,38.29977 190.077,60.08122 276.7326,71.52804 25.2724,3.33837 65.4176,7.3781 90.5,9.10682 4.4,0.30326 10.475,0.75709 13.5,1.00852 3.025,0.25142 14.05,0.9109 24.5,1.4655 10.45,0.55459 21.925,1.21581 25.5,1.46936 3.575,0.25355 13.25,0.71766 21.5,1.03136 8.25,0.31369 18.15,0.76229 22,0.99689 3.85,0.2346 16.675,0.72608 28.5,1.09219 11.825,0.36611 22.85,0.80188 24.5,0.96839 5.1018,0.51483 97.9016,0.52009 103.0979,0.006 2.6962,-0.26682 10.3021,-0.73738 16.9021,-1.04568 58.3512,-2.72576 128.9347,-14.26411 195.6879,-31.98928 38.914,-10.33297 101.6192,-30.17662 152.8121,-48.35886 l 13.5,-4.79481 23,11.19416 c 12.65,6.15679 36.725,17.94039 53.5,26.18577 78.1541,38.41495 93.17,45.78019 102.5,50.27607 15.7009,7.56584 15.2917,5.76468 4.3364,19.086 -40.2474,48.93956 -56.8477,82.53457 -61.5758,124.61409 -1.1278,10.03696 -0.7885,31.64645 0.6401,40.76917 6.2807,40.10773 21.7178,70.8793 66.4157,132.3895 31.944,43.95932 43.2626,65.84067 45.9634,88.85748 3.0074,25.62964 -7.8978,50.36218 -34.2213,77.61295 -39.8589,41.2628 -101.5218,62.27294 -200.0585,68.16508 -16.267,0.9727 -81.3909,1.23764 -102,0.41496 -10.175,-0.40617 -25.925,-1.03123 -35,-1.38903 -9.075,-0.35779 -17.85,-0.83562 -19.5,-1.06183 -1.65,-0.22622 -9.75,-0.66976 -18,-0.98565 -8.25,-0.31589 -17.25,-0.7774 -20,-1.02557 -2.75,-0.24817 -16.25,-1.12962 -30,-1.95878 -13.75,-0.82916 -27.925,-1.7217 -31.5,-1.98342 -3.575,-0.26172 -11.9,-0.73059 -18.5,-1.04192 -6.6,-0.31133 -13.8,-0.76136 -16,-1.00006 -2.2,-0.2387 -9.85,-0.70218 -17,-1.02995 -7.15,-0.32777 -14.575,-0.75216 -16.5,-0.94309 -1.925,-0.19093 -11.375,-0.63528 -21,-0.98744 -9.625,-0.35217 -18.4,-0.81333 -19.5,-1.02481 -13.1911,-2.53597 -231.4323,-2.5962 -247.5277,-0.0683 -1.3598,0.21355 -9.8055,0.68545 -18.7684,1.04866 -8.9628,0.3632 -17.2878,0.81304 -18.5,0.99964 -1.2121,0.1866 -7.3789,0.63594 -13.7039,0.99854 -6.325,0.3626 -12.85,0.8214 -14.5,1.01954 -1.65,0.19815 -6.375,0.63007 -10.5,0.95982 -113.4532,9.0696 -228.356,33.76952 -320.6102,68.91953 -6.6607,2.53778 -12.2857,4.57033 -12.5,4.51677 -0.2144,-0.0535 -4.1199,-1.6015 -8.6789,-3.43988 z M 1349.9718,737.24824 c 13.9227,-6.93768 30.3001,-14.99344 36.3943,-17.9017 l 11.0803,-5.28774 -0.5803,-4.24235 c -0.3192,-2.3333 -1.2553,-4.60128 -2.0803,-5.03997 -0.825,-0.43869 -6.8553,-3.11725 -13.4007,-5.95236 -12.8316,-5.55801 -29.3606,-14.93534 -36.5993,-20.76376 -19.5331,-15.72766 -46.1816,-44.49511 -53.8281,-58.10819 l -2.0165,-3.58998 13.1723,-0.104 c 10.8747,-0.0859 14.5699,-0.52736 21.1849,-2.53119 27.4245,-8.30745 44.6174,-29.64358 46.2163,-57.35371 1.8184,-31.51467 -18.6282,-60.04531 -53.1051,-74.1014 -15.2404,-6.21345 -23.2466,-7.51118 -50.1238,-8.12457 -20.8612,-0.47609 -49.7954,0.64898 -59.5,2.31358 -7.0037,1.20132 -88.0045,0.20207 -94.7195,-1.16849 -1.5708,-0.32061 -2.6986,0.27822 -3.8589,2.04904 -1.6076,2.45361 -1.5453,2.60563 3.2195,7.85305 2.6724,2.94305 6.2089,8.00976 7.8589,11.25935 l 3,5.90834 0.2644,99.41967 c 0.2901,109.11246 0.52,104.39043 -5.736,117.80989 -1.5973,3.42625 -4.2821,8.23233 -5.9663,10.68017 -1.6842,2.44784 -3.0621,5.60704 -3.0621,7.02045 l 0,2.56982 56.5,0 56.5,0 0,-2.12393 c 0,-1.24599 -1.7607,-3.67373 -4.2594,-5.87323 -2.3427,-2.06212 -5.3802,-5.94385 -6.75,-8.62607 l -2.4906,-4.87677 -0.2585,-40 c -0.2806,-43.42536 -0.1393,-44.71514 4.9626,-45.30976 3.9061,-0.45524 9.4622,5.02107 21.1132,20.80976 24.3902,33.05203 32.5089,42.76237 50.8345,60.8006 9.152,9.0084 38.7579,34.68205 40.5342,35.15037 0.1023,0.027 11.5773,-5.62725 25.5,-12.56492 z m -93.686,-147.11428 c -1.1,-0.27293 -7.8093,-2.47073 -14.9096,-4.884 -15.5283,-5.27784 -21.0558,-5.66003 -26.1096,-1.80531 -3.8718,2.95316 -7.1604,2.58387 -8.0066,-0.89911 -0.2918,-1.20084 -0.4053,-20.18335 -0.2524,-42.18335 l 0.2782,-40 6.5,-1.35381 c 8.7382,-1.81997 20.1316,-0.42172 34.5168,4.23608 23.2101,7.51521 33.2159,17.27392 36.5195,35.61773 1.3047,7.24446 0.6583,19.52903 -1.5917,30.2484 -2.4566,11.70409 -5.6041,17.20358 -11.6449,20.34661 -2.5855,1.34524 -11.0894,1.7214 -15.2997,0.67676 z M 373.7627,743.41354 c 23.9643,-3.5832 46.3475,-13.95963 61.3675,-28.44885 8.3289,-8.03458 12.3579,-13.40676 17.0165,-22.68934 5.8055,-11.56779 7.9913,-21.03614 8.0598,-34.91316 0.053,-10.80762 -0.1979,-12.58138 -2.5284,-17.85095 -9.3819,-21.21313 -29.7468,-36.09859 -78.8923,-57.6654 -42.9894,-18.86528 -54.2078,-24.75049 -63.8177,-33.47912 -11.5912,-10.52811 -12.0969,-21.3515 -1.5854,-33.92667 3.748,-4.48383 10.4553,-8.72526 15.9031,-10.0565 1.65,-0.40321 6.8773,-0.68939 11.6163,-0.63598 29.0283,0.32718 65.2199,16.78023 81.2899,36.95516 l 4.9062,6.15946 5.8438,0 c 3.2141,0 5.8209,-0.3375 5.793,-0.75 -0.028,-0.4125 -3.5187,-15.3441 -7.7573,-33.18132 l -7.7064,-32.43133 -26.9928,0.11413 c -14.846,0.0628 -29.9177,-0.29186 -33.4927,-0.78805 -3.575,-0.4962 -13.025,-1.18712 -21,-1.53537 -23.7701,-1.03799 -43.0021,2.95454 -64,13.28633 -10.207,5.02225 -12.5225,6.67799 -20.5944,14.72671 -14.8187,14.77607 -20.0115,28.23595 -19.1197,49.5589 0.5816,13.90502 2.7875,20.95196 9.8762,31.55041 11.7276,17.53418 33.6815,32.24648 75.3379,50.48734 39.5082,17.30016 50.3961,23.12713 59.9989,32.11008 7.8172,7.31263 10.6687,12.79515 10.7336,20.63732 0.057,6.82593 -1.6661,10.63231 -6.8858,15.21529 -8.142,7.14877 -21.3105,10.95366 -38.0087,10.9822 -30.7428,0.0525 -52.3686,-11.13565 -90.8317,-46.99204 -10.5533,-9.83808 -14.8611,-12.98074 -17.8018,-12.98686 -2.7732,-0.006 -6.707,4.5248 -6.6863,7.70081 0.01,1.5375 4.2027,19.67045 9.3171,40.29545 9.0926,36.66772 9.3529,37.49785 11.7318,37.40299 1.3381,-0.0534 6.7079,-0.90999 11.9329,-1.90362 14.1581,-2.69243 28.6135,-2.40058 45,0.90854 7.425,1.49941 17.1,3.08755 21.5,3.52919 10.4151,1.0454 28.3163,0.43254 40.4769,-1.38575 z m -425.2082,-1.58157 c 11.5939,-1.45377 22.6104,-4.85237 46.7313,-14.41679 11.55,-4.5798 25.5,-9.75385 31,-11.49788 11.6745,-3.70197 44.6579,-15.91734 45.7436,-16.94111 0.409,-0.38565 -1.1999,-2.3257 -3.5752,-4.31122 -2.9174,-2.43866 -5.6945,-6.32329 -8.5586,-11.9719 l -4.2398,-8.36186 -0.2489,-12.98451 c -0.2916,-15.22037 1.2734,-26.0872 5.7946,-40.23451 l 0.7191,-2.25 -56.9326,0 c -55.6626,0 -56.9899,0.0452 -59.5082,2.02609 -3.1854,2.50559 -4.1391,5.27369 -2.7265,7.91322 1.6357,3.05638 4.4375,4.13629 12.9607,4.99552 14.7998,1.49197 26.8271,9.85587 33.5782,23.35068 3.0192,6.03501 3.4936,7.95868 3.4936,14.16735 0,12.12775 -3.6245,21.07063 -11.6441,28.72969 -10.6663,10.18677 -29.4405,13.49919 -44.5244,7.85561 -16.2322,-6.07328 -31.19701,-23.24609 -40.48361,-46.457 -9.01942,-22.54311 -11.8368,-40.56282 -11.08266,-70.88349 0.98578,-39.63327 7.6776,-63.11916 22.4448,-78.77316 10.75287,-11.39865 23.03247,-16.40068 39.78997,-16.20831 31.8327,0.36544 77.8839,24.41068 89.121,46.5338 2.3916,4.70841 2.4563,4.75 7.3958,4.75 3.34,0 4.9708,-0.41219 4.9455,-1.25 -0.021,-0.6875 -3.096,-16.25886 -6.8339,-34.60303 L 35.1179,477.65614 8.7018,477.39668 c -14.5288,-0.1427 -27.541,-0.52446 -28.916,-0.84836 -6.9133,-1.62852 -26.4878,-3.97362 -34,-4.07332 -27.3435,-0.3629 -59.65825,8.49167 -85.68228,23.47782 -38.51895,22.18147 -63.02479,56.461 -68.33674,95.59155 -1.53447,11.30367 -0.77679,32.85561 1.52288,43.31782 3.46618,15.76916 10.04009,31.23386 19.32368,45.45776 6.69216,10.25342 25.784,29.08778 36.72549,36.23018 29.8461,19.483 67.97547,29.19902 99.21567,25.28184 z m -206.95728,-4.1679 c 0.2517,-2.18078 -0.90592,-3.90646 -6.03738,-9 -6.85358,-6.80294 -11.94534,-15.81457 -13.76636,-24.36434 -0.70481,-3.30911 -0.96194,-36.29411 -0.77966,-100.01346 l 0.27198,-95.07592 4.20121,-8.47786 c 2.31066,-4.66282 6.02316,-10.54771 8.25,-13.07753 2.86976,-3.26023 4.04879,-5.5014 4.04879,-7.69622 l 0,-3.09655 -57,0 -57,0 0,3.09655 c 0,2.2133 1.18014,4.42388 4.13742,7.75 2.27558,2.5594 5.98808,8.47845 8.25,13.15345 l 4.11258,8.5 0.26999,94.49521 c 0.18716,65.50264 -0.0655,96.11132 -0.82351,99.76258 -1.68704,8.12646 -7.34445,18.41042 -13.65589,24.82351 -5.18269,5.26615 -6.97688,9.03912 -5.55896,11.6898 0.22687,0.4241 27.49256,0.6491 60.59043,0.5 l 60.17794,-0.2711 0.31142,-2.69812 z m -260.31142,-0.67221 c 26.49833,-5.99095 45.29884,-15.37181 61.37476,-30.62405 12.15285,-11.53018 20.56435,-25.2269 24.56846,-40.00562 2.51568,-9.28513 3.10378,-26.60511 1.17993,-34.75002 -5.54524,-23.47659 -23.95738,-40.05847 -52.62315,-47.39214 -5.225,-1.33673 -13.325,-2.78551 -18,-3.21952 -5.72694,-0.53166 -7.84751,-1.04128 -6.5,-1.5621 1.1,-0.42516 6.58603,-3.02912 12.19119,-5.78659 23.78269,-11.69997 34.32034,-26.44297 33.04876,-46.23787 -1.562,-24.31604 -15.78043,-40.47601 -42.23995,-48.00789 -16.94974,-4.82486 -25.93489,-5.5623 -60.5,-4.96541 -17.325,0.29918 -33.075,0.69309 -35,0.87537 -1.925,0.18227 -19.51405,0.66817 -39.08678,1.07976 -27.54727,0.5793 -37.05439,0.45665 -42.08313,-0.5429 -3.57299,-0.7102 -7.62596,-1.00776 -9.0066,-0.66124 -2.91543,0.73173 -7.82349,5.31676 -7.82349,7.30858 0,0.75091 2.26956,2.99581 5.04346,4.98866 9.75641,7.00928 8.95654,-3.40742 8.95654,116.64081 l 0,105.34717 -3.4274,6.81217 c -1.88507,3.74669 -4.53009,7.99589 -5.87782,9.44267 -4.00207,4.29618 -4.9487,6.7859 -3.56662,9.38049 2.62871,4.93489 -0.85005,4.75712 86.87184,4.43938 81.5133,-0.29526 82.6196,-0.32587 92.5,-2.55971 z m -59.5,-23.57805 c -12.87499,-3.27619 -22.07794,-9.57156 -23.9746,-16.40008 -0.61944,-2.23013 -1.01642,-22.04425 -1.01982,-50.90154 l -0.006,-47.25 10.25,-0.22113 c 29.78369,-0.64255 31.8854,-0.47907 39.02455,3.03553 11.89382,5.85531 20.7116,18.60919 24.86122,35.95883 1.74208,7.28366 1.99767,10.71116 1.54557,20.72677 -0.62711,13.8928 -2.30423,20.87272 -7.68888,32 -7.5924,15.68958 -17.51896,23.56469 -30.42529,24.1375 -3.88694,0.17251 -9.54217,-0.31614 -12.56717,-1.08588 z m -24,-178.10881 0,-39.55719 20.32674,0.30719 20.32673,0.30719 4.22672,2.79956 c 9.68257,6.41324 15.98254,24.68101 13.98618,40.55513 -1.468,11.6728 -12.64157,26.86447 -23.877,32.46332 -5.10949,2.54617 -6.13176,2.68199 -20.18571,2.68199 l -14.80366,0 0,-39.55719 z M 691.3894,738.11219 c 0.018,-0.9625 0.3513,-2.70535 0.7414,-3.87301 0.5864,-1.75541 -0.4908,-3.18684 -6.2212,-8.26723 -5.6703,-5.02711 -7.651,-7.64108 -10.8938,-14.377 -2.1799,-4.52802 -4.4735,-10.61741 -5.0968,-13.53198 -0.7996,-3.73908 -1.1332,-33.52977 -1.1332,-101.18762 l 0,-95.88839 11.25,-0.3189 c 22.148,-0.62783 31.9465,1.86261 46.8146,11.89867 10.3556,6.99016 18.9999,15.98671 23.3925,24.34568 l 3.652,6.94978 5.0128,0 c 4.3736,0 4.94,-0.22973 4.4411,-1.80141 -1.0289,-3.24184 -14.6178,-54.58643 -15.6406,-59.09682 -1.2433,-5.48287 -4.3205,-9.91259 -7.4277,-10.69245 -1.451,-0.36418 -4.9087,0.41916 -8.9021,2.0168 l -6.5296,2.61226 -97.7815,-0.26919 -97.7815,-0.26919 -5.2922,-2.39129 c -5.9775,-2.70098 -8.823,-2.15181 -11.7143,2.2608 -0.8867,1.35333 -5.3638,17.12382 -9.9491,35.04554 l -8.3368,32.58495 4.6462,-0.004 4.6462,-0.004 3.2318,-6.2463 c 7.9563,-15.37766 27.6123,-30.73035 45.2845,-35.37028 8.3144,-2.18298 34.7686,-2.33823 36.0892,-0.2118 1.1939,1.92244 1.1197,185.96762 -0.078,193.33578 -1.6371,10.07218 -7.6119,22.56714 -14.3732,30.05857 -4.2727,4.73414 -6.1531,7.69992 -6.6683,10.51741 l -0.7176,3.92402 62.6515,0 c 58.9891,0 62.6533,-0.1023 62.6836,-1.75 z m 362.3964,0.83179 c 0,-0.50502 0.239,-1.54116 0.5312,-2.30253 0.3328,-0.86729 -1.527,-2.85865 -4.9795,-5.33179 -6.9702,-4.99297 -8.0988,-7.11974 -27.5661,-51.94747 -28.0492,-64.58948 -50.065,-115.22463 -63.9144,-147 -4.7943,-11 -13.1437,-30.19187 -18.5541,-42.6486 l -9.837,-22.64859 -4.5901,1.36121 c -2.5245,0.74867 -24.39,7.22374 -48.59,14.38904 -29.4582,8.7222 -44.4256,13.60695 -45.2877,14.78013 -0.7083,0.96376 -1.1583,2.65556 -1,3.75955 0.2531,1.76579 1.7284,2.21714 12.2634,3.75186 19.1376,2.78794 23.0006,4.56163 25.3827,11.65462 1.9059,5.67504 1.3738,8.02267 -4.7729,21.05796 -3.2529,6.89855 -10.0567,21.31782 -15.1195,32.04282 -5.0628,10.725 -10.4488,22.2 -11.969,25.5 -8.0714,17.5213 -51.8716,110.28925 -55.7134,118 -3.4454,6.91497 -5.9624,10.39002 -10.8647,15 -5.18,4.87116 -6.268,6.42331 -5.783,8.25 l 0.5974,2.25 35.7228,0 35.7229,0 1.1518,-2.52804 c 1.0256,-2.25084 0.8964,-2.62519 -1.1781,-3.41391 -1.2815,-0.48723 -3.5815,-2.37318 -5.1111,-4.191 -2.6994,-3.20807 -2.7615,-3.5466 -2.1138,-11.52891 0.4826,-5.94771 2.3147,-13.37106 6.6197,-26.82166 3.2739,-10.22883 5.9525,-18.80456 5.9525,-19.05718 0,-0.25261 21.3376,-0.4593 47.4169,-0.4593 l 47.417,0 5.6929,17.25 c 3.1311,9.4875 7.2185,21.39285 9.083,26.45633 1.8646,5.06348 3.3902,9.67469 3.3902,10.24712 0,0.57243 -1.575,2.78413 -3.5,4.91487 -2.4288,2.68836 -3.5,4.8317 -3.5,7.00288 l 0,3.1288 53.5,0 c 31.8231,0 53.5,-0.37204 53.5,-0.91821 z M 853.3337,644.93964 c -0.4354,-0.70444 21.3563,-55.55642 33.899,-85.32745 0.869,-2.0625 2.1749,-3.75 2.9021,-3.75 1.6409,0 35.0976,86.39369 34.2809,88.52202 -0.4854,1.26499 -5.607,1.47798 -35.5395,1.47798 -20.2789,0 -35.2119,-0.3876 -35.5425,-0.92255 z m 558.4521,-206.71239 c 22.6666,-6.35682 39.0418,-27.70523 38.9852,-50.82516 -0.075,-30.63048 -26.226,-55.25355 -56.5123,-53.21027 -28.408,1.91656 -49.5363,24.20387 -49.7489,52.478 -0.071,9.37454 1.7409,17.22947 5.8376,25.31393 2.9665,5.85406 12.0467,15.76811 18.136,19.80155 12.3161,8.15781 28.5648,10.57508 43.3024,6.44195 z m -24,-5.46301 c -7.28,-1.42175 -16.723,-6.67918 -22.9057,-12.75292 -17.8477,-17.53308 -18.6454,-45.28387 -1.832,-63.73128 25.0138,-27.44484 69.8276,-16.67182 79.3783,19.08215 0.7346,2.75 1.341,8.22241 1.3475,12.16091 0.048,28.96233 -27.0836,50.88601 -55.9881,45.24114 z m -1,-29.50794 0,-10.60588 7.9787,0.36233 c 10.609,0.48178 11.9663,1.77786 13.0905,12.50035 0.4526,4.317 0.8472,7.96159 0.8769,8.09909 0.03,0.1375 2.802,0.25 6.1609,0.25 5.4076,0 6.0294,-0.20041 5.4294,-1.75 -0.3726,-0.9625 -0.8959,-4.85851 -1.1629,-8.65781 -0.5129,-7.30044 -2.2422,-11.85968 -5.106,-13.46235 -1.5746,-0.8812 -1.4903,-1.19398 0.9246,-3.4321 5.8984,-5.46643 6.0978,-15.6078 0.4186,-21.28701 -4.5569,-4.55693 -9.2975,-5.50952 -25.8204,-5.18843 l -14.2903,0.2777 -0.2663,26.75 -0.2664,26.75 6.0164,0 6.0163,0 0,-10.60589 z m 0,-25.89411 0,-7.5 8.3089,0 c 9.6006,0 11.4831,0.94329 12.3329,6.17981 0.4973,3.06465 0.1697,4.09965 -1.9774,6.24672 -2.3382,2.33814 -3.3092,2.57347 -10.6189,2.57347 l -8.0455,0 0,-7.5 z"
       id="path2996"
       inkscape:connector-curvature="0" />
  </g>
</svg>
