<?xml version="1.0" encoding="UTF-8" standalone="no"?>
<!-- Created with Inkscape (http://www.inkscape.org/) -->

<svg
   xmlns:dc="http://purl.org/dc/elements/1.1/"
   xmlns:cc="http://creativecommons.org/ns#"
   xmlns:rdf="http://www.w3.org/1999/02/22-rdf-syntax-ns#"
   xmlns:svg="http://www.w3.org/2000/svg"
   xmlns="http://www.w3.org/2000/svg"
   xmlns:sodipodi="http://sodipodi.sourceforge.net/DTD/sodipodi-0.dtd"
   xmlns:inkscape="http://www.inkscape.org/namespaces/inkscape"
   width="145.39999"
   height="60.52599"
   viewBox="0 0 38.470417 16.014168"
   version="1.1"
   id="svg726"
   inkscape:version="0.92.0 r15299"
   sodipodi:docname="blains farm n fleet.svg">
  <defs
     id="defs720" />
  <sodipodi:namedview
     id="base"
     pagecolor="#ffffff"
     bordercolor="#666666"
     borderopacity="1.0"
     inkscape:pageopacity="0.0"
     inkscape:pageshadow="2"
     inkscape:zoom="6.2119117"
     inkscape:cx="72.199996"
     inkscape:cy="29.762996"
     inkscape:document-units="mm"
     inkscape:current-layer="layer1"
     showgrid="false"
     fit-margin-top="0"
     fit-margin-left="0"
     fit-margin-right="0"
     fit-margin-bottom="0"
     units="px"
     inkscape:window-width="1280"
     inkscape:window-height="744"
     inkscape:window-x="-4"
     inkscape:window-y="-4"
     inkscape:window-maximized="1" />
  <metadata
     id="metadata723">
    <rdf:RDF>
      <cc:Work
         rdf:about="">
        <dc:format>image/svg+xml</dc:format>
        <dc:type
           rdf:resource="http://purl.org/dc/dcmitype/StillImage" />
        <dc:title></dc:title>
      </cc:Work>
    </rdf:RDF>
  </metadata>
  <g
     inkscape:label="Layer 1"
     inkscape:groupmode="layer"
     id="layer1"
     transform="translate(65.216011,-91.557051)">
    <g
       id="g741"
       transform="translate(0.13229203,-0.13229265)">
      <path
         id="path688"
         d="m -36.826222,92.357682 c 0.105831,0.89958 -0.608539,1.79916 -1.190628,2.24895 -0.211661,0.15875 -0.211661,0 -0.211661,0 -0.0265,-0.37041 0.370411,-0.92604 0.0794,-1.19062 -0.0794,-0.0529 -0.238122,-0.0265 -0.42333,-0.18521 -0.185211,-0.15875 -0.0265,-0.44979 0.0529,-0.635 0.0794,-0.21167 0.15875,-0.3175 0.291049,-0.47625 0.449789,-0.47625 1.27,-0.37041 1.402289,0.23813 z m 1.799161,1.27 c 0.238131,0.0794 0.47625,0.15875 0.502711,0.34395 0.0265,0.1323 -0.0794,0.39688 -0.185211,0.60855 -0.555619,1.11125 -0.47625,2.27541 -0.8202,3.38666 -0.211669,0.68792 -0.4498,1.34938 -1.11125,1.71979 -0.47625,0.26459 -1.137711,0.26459 -1.534589,-0.15875 -0.238122,-0.23812 -0.47625,-0.52916 -0.3175,-0.89958 0.0794,-0.15875 0.264589,-0.52917 0.449789,-0.34396 0.185211,0.18521 0.37042,0.58209 0.60855,0.44979 0.105831,-0.0529 0.34395,-0.37041 0.529161,-0.84666 0.21167,-0.55563 0.3175,-1.29646 0.37042,-1.77271 -0.47625,0.23812 -0.608542,1.40229 -1.296461,0.84667 0,0 -0.105831,-0.0794 0,-0.26459 0.132291,-0.18521 1.27,-1.64041 1.82563,-2.83104 0.0794,-0.15875 0.105831,-0.3175 0.23812,-0.39687 0.211669,-0.0794 0.502711,0.0794 0.74083,0.15875 z m -5.34458,5.45041 h 0.0265 c 0.39687,-0.0794 0.39687,-0.87312 0.87312,-0.55562 0.26459,0.15875 0.18521,0.50271 0,0.68791 -0.55562,0.635 -1.1377,1.508128 -2.11666,1.217088 -0.23813,-0.0529 -0.39688,-0.10584 -0.55563,-0.476248 -0.21166,-0.52917 0.55563,-1.5875 0.84667,-2.38125 -0.21167,-0.10584 -0.635,0.15875 -0.79375,0.44979 -0.47625,0.68792 -0.68792,1.16417 -0.92604,1.71979 -0.26459,0.555628 -0.84667,1.746248 -1.77271,1.481668 -0.37042,-0.10584 -0.76729,-0.52917 -0.76729,-0.52917 0,0 -0.3175,0.37042 -0.47625,0.47625 -0.74084,0.52917 -1.48167,0.66146 -1.93146,0.44979 -0.29104,-0.13229 -0.34396,-0.42333 -0.39688,-0.60854 -2.03729,2.01083 -2.88395,0 -2.88395,0 0,0 -0.50271,0.74083 -0.87313,0.89958 -0.3175,0.15875 -0.97896,0.18521 -1.16417,-0.29104 -0.1852,-0.47625 0.3175,-2.010828 0.58209,-2.857498 0.39687,-1.32291 0.87312,-2.35479 1.50812,-3.59833 0,0 0.18521,-0.47625 0.52917,-0.50271 0.3175,-0.0265 1.11125,0.0265 0.74083,1.05833 -0.60854,1.64042 -0.60854,1.61396 -1.87854,4.947708 0.84667,-0.978958 1.27,-2.301868 2.2225,-3.227908 0.26458,-0.26459 0.635,-0.60855 1.00542,-0.66146 0.34396,-0.0529 0.68791,0.18521 0.79375,0.50271 0.0265,-0.58209 0.89958,-0.66146 1.21708,-0.50271 0.10583,0.0529 0.0529,0.26458 0.0529,0.26458 0,0 -0.15875,0.71438 -0.60854,2.06375 l -0.3175,1.031878 c 0,0 0.52916,0.0265 0.84666,-0.555628 0.26459,-0.47625 0.97896,-2.27542 1.61396,-3.25437 0.18521,-0.26459 0.89958,-0.0265 0.89958,0.23812 -0.0264,0.42333 -0.21166,0.9525 -0.37041,1.37583 -0.26459,0.74084 -0.68792,1.85209 -0.68792,1.85209 -0.0529,-0.0265 0.52917,0.211658 1.00542,-0.68792 0.42333,-0.79375 0.97896,-2.06375 1.40229,-2.96333 0.0794,-0.15875 0.10583,-0.26459 0.23812,-0.47625 0.18521,-0.3175 1.00542,-0.15875 1.05834,0.15875 0.0529,0.34396 -0.34396,1.00541 -0.26459,1.08479 0,0 0.0794,0.0265 0.3175,-0.10583 0.29105,-0.18521 0.82021,-1.56105 1.7198,-1.32292 0,0 1.058329,0.15875 0.3175,1.53458 -0.82021,1.40229 -1.0848,2.01084 -1.03188,2.06375 z m -8.44021,-0.55562 c -0.55562,0.50271 -1.16416,1.640408 -1.05833,1.904998 0.0529,0.15875 0.23812,0.23812 0.39687,0.21166 0.42334,-0.0529 1.03188,-1.296448 1.16417,-2.063748 0.0265,-0.15875 0.0529,-0.34395 0.0794,-0.5027 -0.18521,0.13229 -0.37042,0.29104 -0.58209,0.44979 z m -8.94291,-2.56646 c 1.05833,-0.74083 2.14312,-1.53458 3.38666,-1.79917 0,0 2.14313,-0.635 2.03729,1.48167 -0.0794,0.87312 -0.71437,1.45521 -1.40229,2.01083 0.34396,0.18521 0.71438,0.60854 0.74084,1.00542 0.0265,0.34396 -0.29105,1.00542 -0.82021,1.904998 -0.47625,0.79375 -1.16417,1.64042 -1.79917,2.11667 -1.87854,1.19062 -2.54,-0.66146 -2.54,-0.66146 -0.44979,-1.05834 0.82021,-3.360208 1.29646,-5.027088 0,0 -0.0529,-0.0794 -0.18521,0.0265 -0.13229,0.10584 -0.26458,0.23813 -0.42333,0.23813 -0.18521,0 -0.26459,-0.15875 -0.37042,-0.29104 -0.0794,-0.15875 -0.3175,-0.60855 0.0794,-1.00542 z m 2.46062,0.0794 c 0.74083,0.1323 0.10583,0.84667 0.15875,1.24355 0.635,-0.34396 1.905,-0.9525 1.64042,-1.61396 -0.29104,-0.635 -1.40229,-0.13229 -1.79917,0.37041 z m -0.18521,2.8575 c -0.23812,0.23813 -0.9525,1.481668 -1.05833,1.693338 -0.10583,0.21166 -0.42333,0.87312 0,1.00541 0.42333,0.1323 1.74625,-1.613948 1.85208,-2.354788 0.0265,-0.29104 -0.58208,-0.58208 -0.79375,-0.34396 z"
         style="fill:#e31b23;stroke-width:0.26458332"
         inkscape:connector-curvature="0" />
      <path
         id="path690"
         d="m -42.938101,94.183302 c 0.0265,0.18521 -0.37041,1.05833 -0.60854,1.13771 -0.21167,0.0794 -1.00542,-0.0529 -0.84667,-0.50271 0.15875,-0.44979 0.34396,-0.87312 0.50271,-0.97896 0.18521,-0.10583 0.92604,0.15875 0.9525,0.34396 z"
         style="fill:#e31b23;stroke-width:0.26458332"
         inkscape:connector-curvature="0" />
      <path
         id="path692"
         d="m -27.01018,104.10518 c 0,0.10583 -0.0265,0.1852 -0.0794,0.26458 -0.0529,0.0794 -0.105828,0.13229 -0.185198,0.18521 -0.0794,0.0529 -0.15875,0.0794 -0.264591,0.0794 -0.10583,0 -0.185211,-0.0265 -0.26458,-0.0794 -0.0794,-0.0529 -0.13229,-0.10584 -0.185209,-0.18521 -0.0529,-0.0794 -0.0794,-0.15875 -0.0794,-0.26458 0,-0.0794 0.0265,-0.18521 0.0794,-0.26459 0.0529,-0.0794 0.105828,-0.13229 0.185209,-0.18521 0.0794,-0.0529 0.15875,-0.0794 0.26458,-0.0794 0.105841,0 0.185211,0.0265 0.264591,0.0794 0.0794,0.0529 0.132289,0.10584 0.185198,0.18521 0.0529,0.0794 0.0794,0.18521 0.0794,0.26459 z m -0.105831,0 c 0,-0.10584 -0.0529,-0.21167 -0.1323,-0.29105 -0.0794,-0.0794 -0.1852,-0.13229 -0.291039,-0.13229 -0.10583,0 -0.211661,0.0529 -0.291041,0.13229 -0.0794,0.0794 -0.132289,0.18521 -0.132289,0.29105 0,0.10583 0.0529,0.21166 0.132289,0.29104 0.0794,0.0794 0.185211,0.13229 0.291041,0.13229 0.105839,0 0.21167,-0.0529 0.291039,-0.13229 0.105842,-0.0794 0.1323,-0.18521 0.1323,-0.29104 z m -0.635,-0.26459 h 0.23812 c 0.0794,0 0.132291,0.0265 0.15875,0.0529 0.0265,0.0265 0.0529,0.0794 0.0529,0.10583 0,0.0265 0,0.0794 -0.0265,0.10584 -0.0265,0.0265 -0.0529,0.0529 -0.105831,0.0529 0.0265,0 0.0265,0.0265 0.0529,0.0265 0.0265,0 0.0265,0.0265 0.0529,0.0529 l 0.0794,0.15875 h -0.185201 c -0.0529,-0.10584 -0.0794,-0.15875 -0.105838,-0.18521 -0.0265,-0.0265 -0.0265,-0.0265 -0.0529,-0.0265 h -0.0265 v 0.21167 h -0.13229 z m 0.132292,0.21167 h 0.0529 c 0.0265,0 0.0794,0 0.0794,-0.0265 0.0265,0 0.0265,-0.0265 0.0265,-0.0529 0,-0.0265 0,-0.0265 -0.0265,-0.0529 -0.0265,0 -0.0529,-0.0265 -0.0794,-0.0265 h -0.0529 z m -37.597292,3.4925 0.76729,-4.36563 h 3.41312 l -0.18521,1.03188 h -1.98437 l -0.13229,0.79375 h 1.56104 l -0.18521,1.03187 h -1.56104 l -0.26458,1.53459 h -1.42875 z m 2.98979,-0.34396 1.905,-3.54542 h 1.19062 l 0.635,3.54542 h -1.16416 l -0.0529,-0.47625 h -1.16417 l -0.21166,0.47625 z m 2.27541,-2.46062 -0.58208,1.27 h 0.74083 z m 2.91042,1.24354 -0.21167,1.24354 h -1.16416 l 0.635,-3.54542 h 1.66687 c 1.19063,0 1.50813,0.3175 1.40229,1.00542 -0.0794,0.39687 -0.3175,0.74083 -0.74083,0.87312 0.34396,0.1323 0.55563,0.23813 0.42333,0.9525 -0.0794,0.4498 -0.13229,0.60855 0.0265,0.60855 l -0.0265,0.10583 h -1.16416 c -0.0265,-0.0794 0,-0.3175 0.0529,-0.60854 0.0794,-0.44979 0.0265,-0.60854 -0.5027,-0.60854 h -0.39688 z m 0.13229,-0.79375 h 0.44979 c 0.37042,0 0.55563,-0.0794 0.60855,-0.34396 0.0529,-0.23813 -0.1323,-0.37042 -0.39688,-0.37042 h -0.52917 z m 2.06375,2.01083 0.635,-3.54542 h 1.40229 l 0.23813,2.2225 1.00542,-2.2225 h 1.40229 l -0.635,3.54542 h -1.03188 l 0.18521,-1.08479 0.10583,-0.55563 0.15875,-0.635 -1.05833,2.27542 h -0.79375 l -0.23812,-2.27542 -0.0529,0.52917 -0.0794,0.55563 -0.21166,1.19062 z m 7.48771,-0.26458 c -0.23812,0.18521 -0.71437,0.34396 -1.11125,0.34396 -0.58208,0 -1.08479,-0.26459 -0.97896,-0.89959 0.0794,-0.47625 0.39688,-0.79375 0.84667,-1.00541 -0.13229,-0.18521 -0.21167,-0.34396 -0.15875,-0.60855 0.10583,-0.60854 0.71437,-0.79375 1.21708,-0.79375 0.58209,0 1.00542,0.3175 0.92604,0.84667 -0.0794,0.37042 -0.3175,0.635 -0.66145,0.82021 l 0.23812,0.29104 c 0.10583,-0.0794 0.18521,-0.15875 0.26458,-0.26458 h 0.82021 c -0.18521,0.29104 -0.42333,0.55562 -0.66146,0.76729 l 0.60855,0.74083 h -1.11125 z m -0.76729,-1.00542 c -0.18521,0.0794 -0.37042,0.21167 -0.42333,0.37042 -0.0265,0.18521 0.0794,0.29104 0.26458,0.29104 0.10583,0 0.26458,-0.0529 0.37042,-0.10583 0.13229,-0.0794 0.15875,-0.0529 0.10583,-0.1323 z m 0.15875,-1.11125 c -0.0265,0.15875 0.0794,0.26458 0.21167,0.37042 0.23812,-0.10584 0.42333,-0.21167 0.39687,-0.47625 -0.0265,-0.10584 -0.15875,-0.13229 -0.23812,-0.13229 -0.18521,0 -0.34396,0.0529 -0.37042,0.23812 z m 2.91042,2.72521 0.76729,-4.36563 h 3.41312 l -0.18521,1.03188 h -1.98437 l -0.13229,0.79375 h 1.56104 l -0.18521,1.03187 h -1.56104 l -0.26458,1.53459 h -1.42875 z m 3.6777,-0.34396 0.635,-3.54542 h 1.13771 l -0.47625,2.72521 h 1.587501 l -0.15875,0.82021 z m 3.042711,0 0.635,-3.54542 h 2.883959 l -0.15875,0.82021 h -1.719789 l -0.0794,0.50271 h 1.455211 l -0.15875,0.82021 h -1.455211 l -0.105828,0.55562 h 1.79917 l -0.15875,0.82021 h -2.936883 z m 3.22792,0 0.635,-3.54542 h 2.883961 l -0.15875,0.82021 h -1.719792 l -0.0794,0.50271 h 1.455209 l -0.15875,0.82021 h -1.455209 l -0.105831,0.55562 h 1.799159 l -0.15875,0.82021 h -2.936868 z m 3.730619,-3.54542 h 3.254381 l -0.15875,0.92605 h -1.031881 l -0.449789,2.61937 h -1.164161 l 0.449792,-2.61937 H -31.5081 Z"
         style="fill:#0054a4;stroke-width:0.26458332"
         inkscape:connector-curvature="0" />
    </g>
  </g>
</svg>
