<?xml version="1.0" encoding="UTF-8" standalone="no"?>
<!-- Created with Inkscape (http://www.inkscape.org/) -->

<svg
   xmlns:svg="http://www.w3.org/2000/svg"
   xmlns="http://www.w3.org/2000/svg"
   version="1.1"
   width="593.90997"
   height="356.34518"
   id="svg3705"
   style="display:inline">
  <defs
     id="defs3707" />
  <g
     transform="translate(-83.889561,-537.94274)"
     id="layer1">
    <g
       id="g4700">
      <g
         transform="translate(-15,17)"
         id="g4521"
         style="fill:#0e3fa9;fill-opacity:1">
        <path
           d="m 145.85135,876.54077 c -0.003,-0.4125 -0.42858,-3.225 -0.94533,-6.25 -0.51674,-3.025 -3.25028,-19 -6.07452,-35.5 -2.82425,-16.5 -5.53769,-32.74661 -6.02987,-36.10357 -0.49219,-3.35697 -1.15806,-6.78941 -1.47972,-7.62765 -0.42945,-1.11912 1.1079,-2.31621 5.78596,-4.50534 17.31714,-8.10367 28.14804,-28.12107 24.86278,-45.95081 -3.52374,-19.12401 -17.0663,-32.13048 -35.99418,-34.56934 -4.19063,-0.53997 -8.09001,-1.10374 -8.66528,-1.25284 -0.57527,-0.14909 -1.86263,-4.70794 -2.8608,-10.13076 -0.99816,-5.42283 -3.11288,-16.60969 -4.69937,-24.85969 -1.58649,-8.25 -3.82515,-19.95 -4.97481,-26 -1.14966,-6.05 -2.95177,-15.25464 -4.00468,-20.45475 -1.964309,-9.70129 -2.370679,-14.04525 -1.313909,-14.04525 0.330264,0 6.742759,-1.10876 14.249999,-2.46391 13.4437,-2.42675 44.40117,-7.79973 55.14952,-9.57176 3.025,-0.49871 11.8,-2.04361 19.5,-3.43311 16.72142,-3.01745 52.78102,-9.30301 60.5,-10.54577 3.025,-0.48703 7.975,-1.33834 11,-1.8918 3.025,-0.55347 10.675,-1.91493 17,-3.02547 24.91938,-4.37535 46.02794,-8.07135 57,-9.98043 26.53886,-4.6176 38.33353,-6.69302 57.5,-10.11785 6.6,-1.17935 14.475,-2.52522 17.5,-2.99083 3.025,-0.46561 9.4375,-1.55138 14.25,-2.41282 4.8125,-0.86144 12.6875,-2.26087 17.5,-3.10985 4.8125,-0.84897 12.575,-2.21859 17.25,-3.04359 4.675,-0.825 12.325,-2.1852 17,-3.02266 4.675,-0.83746 10.975,-1.91303 14,-2.39015 3.025,-0.47712 9.55,-1.59103 14.5,-2.47535 4.95,-0.88431 15.525,-2.75412 23.5,-4.15513 7.975,-1.40101 19.45,-3.43749 25.5,-4.52551 6.05,-1.08801 13.475,-2.36817 16.5,-2.84478 5.57107,-0.87777 24.89732,-4.35789 32.82626,-5.9111 3.95284,-0.77432 4.41683,-0.64871 5.37547,1.45528 0.57707,1.26652 2.09804,2.56599 3.37994,2.88773 1.76175,0.44217 2.47601,1.49846 2.92587,4.32692 1.15452,7.25901 2.73216,12.11994 4.1045,12.64656 0.76338,0.29294 1.38796,1.68966 1.38796,3.10383 0,3.72263 3.32034,9.63878 6.87804,12.25525 3.57391,2.62838 9.46555,11.3489 12.99618,19.2363 2.00052,4.46915 2.47731,7.20462 2.54387,14.59482 0.0542,6.01709 0.5347,9.6409 1.41993,10.70852 0.73591,0.88754 1.50995,4.34773 1.72009,7.68932 0.4761,7.57107 2.34394,14.00734 4.06499,14.00734 2.00311,0 3.42712,3.49888 2.76711,6.79893 -0.38998,1.94991 -0.01,3.85217 1.11246,5.56481 1.49178,2.27674 1.55258,3.26081 0.48617,7.8692 -0.67035,2.89688 -2.43543,7.55873 -3.9224,10.35967 -2.50355,4.71581 -2.60735,5.37055 -1.40298,8.84931 0.93833,2.71029 1.00774,4.30394 0.24918,5.72131 -0.75076,1.40281 -0.72376,2.35943 0.0944,3.34525 0.80357,0.96824 1.14996,10.23678 1.15968,31.03001 0.015,32.15432 -0.38241,29.38198 6.37807,44.49225 2.27092,5.07572 3.48593,9.47672 3.72702,13.5 0.19674,3.28309 1.05442,7.31926 1.90598,8.96926 1.42701,2.76504 1.40277,3.23496 -0.30949,6 -1.02177,1.65 -1.86013,4.65718 -1.86303,6.68261 -0.006,3.96211 -0.23825,4.12562 -7.50526,5.27592 -3.86196,0.61131 -15.65779,2.79803 -43,7.97138 -7.15,1.35283 -22.45,4.09906 -34,6.10273 -39.22817,6.80522 -47.98596,8.33314 -60,10.46783 -6.6,1.1727 -14.475,2.52253 -17.5,2.99961 -3.025,0.47708 -9.325,1.55261 -14,2.39007 -33.58858,6.01692 -59.58914,10.5888 -66,11.60528 -3.025,0.47964 -9.325,1.55936 -14,2.39939 -4.675,0.84003 -17.5,3.08338 -28.5,4.98523 -11,1.90185 -28.1,4.88441 -38,6.62792 -9.9,1.74351 -20.475,3.56042 -23.5,4.03758 -3.025,0.47716 -13.375,2.26741 -23,3.97832 -32.23517,5.73004 -51.45605,9.09254 -57,9.97156 -3.025,0.47964 -9.55,1.59466 -14.5,2.47784 -4.95,0.88318 -13.95,2.4702 -20,3.52673 -6.05,1.05653 -15.05,2.63838 -20,3.51523 -9.46318,1.67633 -31.82253,5.477 -32.25,5.4819 -0.1375,0.002 -0.25261,-0.33463 -0.25579,-0.74713 z"
           id="path4523"
           style="fill:#0e3fa9;fill-opacity:1" />
        <path
           d="m 145.85135,876.54077 c -0.003,-0.4125 -0.42858,-3.225 -0.94533,-6.25 -0.51674,-3.025 -3.25028,-19 -6.07452,-35.5 -2.82425,-16.5 -5.53769,-32.74661 -6.02987,-36.10357 -0.49219,-3.35697 -1.15806,-6.78941 -1.47972,-7.62765 -0.42945,-1.11912 1.1079,-2.31621 5.78596,-4.50534 17.31714,-8.10367 28.14804,-28.12107 24.86278,-45.95081 -3.52374,-19.12401 -17.0663,-32.13048 -35.99418,-34.56934 -4.19063,-0.53997 -8.09001,-1.10374 -8.66528,-1.25284 -0.57527,-0.14909 -1.86263,-4.70794 -2.8608,-10.13076 -0.99816,-5.42283 -3.11288,-16.60969 -4.69937,-24.85969 -1.58649,-8.25 -3.82515,-19.95 -4.97481,-26 -1.14966,-6.05 -2.95177,-15.25464 -4.00468,-20.45475 -1.964309,-9.70129 -2.370679,-14.04525 -1.313909,-14.04525 0.330264,0 6.742759,-1.10876 14.249999,-2.46391 13.4437,-2.42675 44.40117,-7.79973 55.14952,-9.57176 3.025,-0.49871 11.8,-2.04361 19.5,-3.43311 16.72142,-3.01745 52.78102,-9.30301 60.5,-10.54577 3.025,-0.48703 7.975,-1.33834 11,-1.8918 3.025,-0.55347 10.675,-1.91493 17,-3.02547 24.91938,-4.37535 46.02794,-8.07135 57,-9.98043 26.53886,-4.6176 38.33353,-6.69302 57.5,-10.11785 6.6,-1.17935 14.475,-2.52522 17.5,-2.99083 3.025,-0.46561 9.4375,-1.55138 14.25,-2.41282 4.8125,-0.86144 12.6875,-2.26087 17.5,-3.10985 4.8125,-0.84897 12.575,-2.21859 17.25,-3.04359 4.675,-0.825 12.325,-2.1852 17,-3.02266 4.675,-0.83746 10.975,-1.91303 14,-2.39015 3.025,-0.47712 9.55,-1.59103 14.5,-2.47535 4.95,-0.88431 15.525,-2.75412 23.5,-4.15513 7.975,-1.40101 19.45,-3.43749 25.5,-4.52551 6.05,-1.08801 13.475,-2.36817 16.5,-2.84478 5.57107,-0.87777 24.89732,-4.35789 32.82626,-5.9111 3.95284,-0.77432 4.41683,-0.64871 5.37547,1.45528 0.57707,1.26652 2.09804,2.56599 3.37994,2.88773 1.76478,0.44293 2.47261,1.4936 2.91503,4.32692 0.32137,2.05807 1.04727,5.47325 1.61311,7.5893 0.56585,2.11604 0.82016,4.056 0.56515,4.31102 -0.25502,0.25501 -3.09871,0.85601 -6.31931,1.33554 -3.22061,0.47953 -11.03065,1.81733 -17.35565,2.97288 -16.16604,2.95345 -33.61258,6.07922 -39.5,7.07692 -2.75,0.46602 -7.7,1.34247 -11,1.94765 -3.3,0.60519 -7.575,1.34084 -9.5,1.63479 -1.925,0.29394 -8.225,1.40508 -14,2.4692 -12.33831,2.27349 -17.51327,3.20519 -33,5.94131 -20.54667,3.6301 -33.39855,5.95328 -38.5,6.95949 -2.75,0.54242 -9.5,1.72948 -15,2.63792 -5.5,0.90844 -12.025,2.03539 -14.5,2.50434 -2.475,0.46894 -6.975,1.28215 -10,1.80713 -3.025,0.52498 -7.975,1.40868 -11,1.96379 -3.025,0.5551 -7.975,1.45156 -11,1.99212 -3.025,0.54056 -10.675,1.92412 -17,3.07458 -6.325,1.15046 -16.675,2.99615 -23,4.10153 -6.325,1.10538 -13.975,2.46261 -17,3.01608 -3.025,0.55346 -7.975,1.41336 -11,1.91089 -3.025,0.49752 -7.75,1.33379 -10.5,1.85838 -2.75,0.52459 -10.175,1.87039 -16.5,2.99068 -33.97115,6.017 -44.98618,7.99457 -57,10.23346 -5.775,1.07622 -13.2,2.38315 -16.5,2.90429 -3.3,0.52113 -8.475,1.44131 -11.5,2.04484 -3.025,0.60353 -7.975,1.50159 -11,1.99568 -3.025,0.4941 -10.9,1.83642 -17.5,2.98294 -6.6,1.14651 -14.16457,2.44929 -16.81017,2.89505 -2.64559,0.44576 -5.31688,1.31719 -5.9362,1.93651 -1.09621,1.09621 -0.52146,5.95126 2.20822,18.65363 0.47277,2.2 1.38201,7.15 2.02054,11 0.63852,3.85 1.55907,9.25 2.04567,12 0.4866,2.75 1.39359,7.925 2.01554,11.5 1.50281,8.63818 2.65939,14.91451 4.45554,24.17854 0.81882,4.2232 1.97781,10.7482 2.57555,14.5 1.28548,8.06852 2.41007,14.61433 3.9208,22.82146 0.60745,3.3 1.51151,8.475 2.00901,11.5 0.49751,3.025 1.85005,10.675 3.00564,17 2.48394,13.59558 5.8448,32.47789 7.0306,39.5 0.46438,2.75 1.81319,10.4 2.99735,17 1.18416,6.6 2.48933,13.91681 2.90038,16.25959 0.41105,2.34277 1.04797,4.56018 1.41537,4.92759 0.67381,0.67381 9.01642,-0.41843 24.64616,-3.22673 18.01164,-3.23628 37.98664,-6.66305 49.5,-8.49186 6.6,-1.04837 14.025,-2.35321 16.5,-2.89965 2.475,-0.54645 11.925,-2.16473 21,-3.59619 9.075,-1.43146 19.875,-3.24204 24,-4.0235 4.125,-0.78146 21,-3.68658 37.5,-6.45582 16.5,-2.76924 33.6,-5.69829 38,-6.509 4.4,-0.81072 17.45,-3.06391 29,-5.0071 11.55,-1.9432 25.95,-4.42172 32,-5.50783 6.05,-1.08611 16.4,-2.84343 23,-3.90516 6.6,-1.06173 18.525,-3.06065 26.5,-4.44205 30.48649,-5.28074 51.50457,-8.88331 80,-13.71227 16.225,-2.74956 37.02782,-6.32913 46.22849,-7.95461 9.20067,-1.62548 17.19479,-2.95541 17.7647,-2.95541 0.56991,0 1.89008,1.40409 2.93371,3.1202 1.8641,3.06525 1.8639,3.17531 -0.011,6.25 -1.04965,1.72139 -1.91015,4.78698 -1.9122,6.81241 -0.004,3.96233 -0.23612,4.12552 -7.50374,5.27592 -3.86196,0.61131 -15.65779,2.79803 -43,7.97138 -7.15,1.35283 -22.45,4.09906 -34,6.10273 -39.22817,6.80522 -47.98596,8.33314 -60,10.46783 -6.6,1.1727 -14.475,2.52253 -17.5,2.99961 -3.025,0.47708 -9.325,1.55261 -14,2.39007 -33.58858,6.01692 -59.58914,10.5888 -66,11.60528 -3.025,0.47964 -9.325,1.55936 -14,2.39939 -4.675,0.84003 -17.5,3.08338 -28.5,4.98523 -11,1.90185 -28.1,4.88441 -38,6.62792 -9.9,1.74351 -20.475,3.56042 -23.5,4.03758 -3.025,0.47716 -13.375,2.26741 -23,3.97832 -32.23517,5.73004 -51.45605,9.09254 -57,9.97156 -3.025,0.47964 -9.55,1.59466 -14.5,2.47784 -4.95,0.88318 -13.95,2.4702 -20,3.52673 -6.05,1.05653 -15.05,2.63838 -20,3.51523 -9.46318,1.67633 -31.82253,5.477 -32.25,5.4819 -0.1375,0.002 -0.25261,-0.33463 -0.25579,-0.74713 z m 49.56552,-36.5 c -0.20763,-0.6875 -1.34165,-6.65 -2.52004,-13.25 -1.17839,-6.6 -2.53916,-14.025 -3.02393,-16.5 -0.48478,-2.475 -1.15168,-6.525 -1.48201,-9 -0.33032,-2.475 -0.99255,-6.525 -1.47162,-9 -0.47906,-2.475 -1.83368,-9.9 -3.01025,-16.5 -1.17658,-6.6 -2.54992,-14.25 -3.05188,-17 -1.3788,-7.55385 -4.98804,-28.281 -6.00752,-34.5 -0.49588,-3.025 -1.37251,-7.975 -1.94805,-11 -0.57554,-3.025 -1.4735,-7.975 -1.99546,-11 -0.52197,-3.025 -1.4032,-7.975 -1.95831,-11 -2.11383,-11.51915 -3.06438,-16.85365 -4.98929,-28 -1.09229,-6.325 -2.71176,-15.25191 -3.59882,-19.83758 -0.88706,-4.58568 -1.47552,-9.98568 -1.30769,-12 0.29838,-3.58126 0.41594,-3.67761 5.30514,-4.34802 2.75,-0.37708 7.475,-1.14627 10.5,-1.70931 3.025,-0.56304 7.975,-1.47371 11,-2.02371 3.025,-0.55 7.975,-1.45 11,-2 3.025,-0.55 8.2,-1.4908 11.5,-2.09066 3.3,-0.59987 8.475,-1.50378 11.5,-2.0087 3.025,-0.50492 13.15,-2.29683 22.5,-3.98202 9.35,-1.68519 19.475,-3.47913 22.5,-3.98652 3.025,-0.5074 10.675,-1.86904 17,-3.02587 6.325,-1.15682 13.975,-2.54559 17,-3.08615 3.025,-0.54056 7.975,-1.43904 11,-1.99663 6.05317,-1.11576 10.55622,-1.88544 25.5,-4.35857 5.5,-0.91022 11.575,-2.04323 13.5,-2.51779 1.925,-0.47456 6.65,-1.36376 10.5,-1.97601 3.85,-0.61224 9.25,-1.52331 12,-2.02459 5.9701,-1.08825 13.80478,-2.47388 22,-3.89088 3.3,-0.57059 10.725,-1.93112 16.5,-3.02341 5.775,-1.09228 13.65,-2.50486 17.5,-3.13906 3.85,-0.6342 8.8,-1.54495 11,-2.02389 2.2,-0.47894 7.375,-1.36968 11.5,-1.97943 4.125,-0.60975 9.075,-1.50724 11,-1.99442 1.925,-0.48719 6.65,-1.37559 10.5,-1.97424 9.54929,-1.48484 14.73252,-2.38305 34.5,-5.97858 6.325,-1.15046 16.45,-2.97682 22.5,-4.05857 6.05,-1.08175 12.35,-2.2099 14,-2.507 1.65,-0.2971 5.7,-1.00582 9,-1.57493 7.17326,-1.2371 13.07568,-2.32611 20.5,-3.7823 3.025,-0.59332 9.775,-1.78263 15,-2.64291 5.225,-0.86029 11.975,-2.03865 15,-2.61858 3.025,-0.57993 7.89793,-1.37122 10.82874,-1.75841 l 5.32875,-0.70398 2.31943,4.56136 c 1.27569,2.50875 3.70537,5.58002 5.39929,6.82506 3.57506,2.62767 9.46613,11.34611 12.99801,19.2363 2.00052,4.46915 2.47731,7.20462 2.54387,14.59482 0.0542,6.01709 0.5347,9.6409 1.41993,10.70852 0.73591,0.88754 1.50995,4.34773 1.72009,7.68932 0.4761,7.57107 2.34394,14.00734 4.06499,14.00734 2.00311,0 3.42712,3.49888 2.76711,6.79893 -0.38998,1.94991 -0.01,3.85217 1.11246,5.56481 1.49178,2.27674 1.55258,3.26081 0.48617,7.8692 -0.67035,2.89688 -2.43543,7.55873 -3.9224,10.35967 -2.50355,4.71581 -2.60735,5.37055 -1.40298,8.84931 0.93833,2.71029 1.00774,4.30394 0.24918,5.72131 -0.75076,1.40281 -0.72376,2.35943 0.0944,3.34525 0.80349,0.96814 1.14996,10.22576 1.15966,30.98579 0.0152,32.63798 -0.35462,30.2627 7.24163,46.50573 2.44077,5.21909 3.4619,11.91378 1.84168,12.07431 -0.4125,0.0409 -1.65,0.25281 -2.75,0.47098 -3.15892,0.62653 -112.3797,19.45444 -118.5,20.4275 -3.025,0.48095 -14.95,2.50529 -26.5,4.49855 -11.55,1.99325 -34.05,5.84227 -50,8.55337 -15.95,2.7111 -38.225,6.52773 -49.5,8.48139 -35.85412,6.21259 -61.24194,10.5589 -70,11.98376 -4.675,0.76058 -19.3,3.24779 -32.5,5.52714 -77.44295,13.37266 -110.44326,18.983 -111.65901,18.983 -0.49707,0 -1.07365,-0.5625 -1.28127,-1.25 z m 15.82536,-75.42308 10.8851,-1.77806 3.97752,-5.38418 c 4.39381,-5.94767 4.51084,-6.61167 2.93427,-16.64701 -1.10839,-7.05519 -1.46739,-7.59674 -7.10711,-10.72116 -3.65974,-2.02751 -3.75996,-2.68403 -0.88138,-5.77382 2.50462,-2.6884 2.65311,-5.85556 0.72847,-15.53835 -1.21778,-6.12667 -1.48711,-6.53671 -6.23033,-9.48525 -4.32469,-2.68838 -5.54688,-3.00054 -9.57457,-2.44545 -8.03475,1.10732 -21.4519,3.44787 -21.80837,3.80434 -0.36683,0.36683 0.89453,9.33752 2.69155,19.14202 0.60484,3.3 1.50473,8.475 1.99976,11.5 0.87827,5.36684 1.24376,7.4321 4.42429,25 0.84637,4.675 1.54715,9.09825 1.55728,9.82946 0.0126,0.90922 0.88769,1.16288 2.76843,0.80248 1.5125,-0.28983 7.64829,-1.32709 13.63509,-2.30502 z m -2.8034,-15.07692 c -0.3042,-0.9625 -0.95402,-3.90137 -1.44404,-6.53083 -0.79405,-4.26082 -0.67414,-4.89686 1.10236,-5.84762 3.00317,-1.60725 4.52305,0.64128 5.32541,7.87845 0.68964,6.22051 0.68083,6.25 -1.86887,6.25 -1.56242,0 -2.77754,-0.68268 -3.11486,-1.75 z m -5.12346,-26.5 c -0.26345,-0.6875 -0.58683,-3.70858 -0.71862,-6.71352 -0.2063,-4.70409 0.0292,-5.51845 1.69429,-5.85874 2.79476,-0.57115 4.5661,2.49601 4.5661,7.9064 0,3.36501 -0.44974,4.87447 -1.58179,5.30887 -2.37629,0.91187 -3.42969,0.74082 -3.95998,-0.64301 z m 49.22545,34.25533 c 6.49898,-1.09707 11.98067,-1.99707 12.18154,-2 0.79456,-0.0116 -1.12913,-11.54321 -2.01783,-12.09593 -0.52227,-0.32483 -3.474,-0.19473 -6.55939,0.2891 -3.08539,0.48384 -5.96559,0.52391 -6.40045,0.0891 -0.84473,-0.84473 -3.20772,-13.13764 -6.72038,-34.96125 -0.54653,-3.39553 -1.52363,-8.7264 -2.17134,-11.84637 l -1.17764,-5.67266 -3.65909,0.55799 c -10.06836,1.53538 -11.15885,1.87737 -11.14164,3.49415 0.0162,1.5229 1.5424,11.00131 3.88707,24.14059 0.53981,3.025 1.68439,9.55 2.54352,14.5 0.85913,4.95 1.98266,11.025 2.49673,13.5 0.51407,2.475 1.20719,6.1875 1.54026,8.25 0.7322,4.53406 0.73557,4.5344 17.19864,1.75533 z m 35.60061,-6.17699 7.78429,-1.18488 4.47117,-6.01683 c 2.45915,-3.30925 4.26009,-6.71653 4.00209,-7.57173 -0.25799,-0.85519 -0.993,-4.7049 -1.63335,-8.5549 -0.64034,-3.85 -1.49921,-8.8 -1.90859,-11 -0.40939,-2.2 -1.56562,-8.88263 -2.56942,-14.85028 l -1.82509,-10.85029 -6.05269,-3.97078 c -5.31169,-3.48465 -6.54241,-3.89536 -10.0527,-3.35474 -2.2,0.33882 -5.9605,0.88473 -8.35666,1.21314 -3.9144,0.53649 -4.80874,1.21122 -8.81025,6.64688 -3.54683,4.81803 -4.31888,6.57063 -3.79194,8.60793 0.64798,2.50527 1.15797,5.41454 3.42849,19.55814 0.61806,3.85 1.89416,11.05 2.83577,16 l 1.71203,9 5.49128,3.71949 c 6.36485,4.3112 5.29358,4.12825 15.27557,2.60885 z m -4.45624,-12.57119 c -1.10035,-0.24597 -1.88543,-1.80679 -2.29637,-4.56544 -0.34342,-2.30544 -1.01521,-6.21671 -1.49284,-8.69171 -0.47764,-2.475 -1.38177,-7.875 -2.00917,-12 -0.6274,-4.125 -1.61103,-9.00721 -2.18585,-10.84935 -1.2264,-3.93029 -0.20583,-5.48067 3.2817,-4.98531 2.44951,0.34792 3.13434,3.00142 7.82886,30.33466 1.73366,10.09399 1.25622,11.73678 -3.12633,10.75715 z m 48.97532,4.6916 c 4.68687,-1.00515 5.71912,-1.72659 9.3485,-6.53367 l 4.07987,-5.40375 -1.18495,-8.10389 c -1.7898,-12.24056 -1.38874,-11.8853 -11.07285,-9.80843 l -5.12451,1.09901 0.32529,8.15099 c 0.32382,8.11446 0.31408,8.15099 -2.17472,8.15099 -2.78917,0 -2.79484,-0.0195 -6.90724,-23.70552 -1.11778,-6.43804 -2.30434,-12.78931 -2.63681,-14.11395 -0.48571,-1.93523 -0.14898,-2.52754 1.71387,-3.01469 3.21625,-0.84107 4.95469,1.25921 5.57145,6.73109 0.49464,4.38838 0.66435,4.60104 3.63878,4.55952 3.55795,-0.0497 11.46126,-1.46443 12.17654,-2.17971 0.26252,-0.26252 -0.022,-2.90718 -0.63217,-5.87702 -0.61021,-2.96985 -1.30644,-6.43226 -1.54718,-7.69425 -0.28124,-1.47434 -2.56783,-3.64138 -6.39694,-6.06247 l -5.95925,-3.76795 -8.26052,1.37733 c -8.68719,1.44847 -8.72792,1.4751 -14.27232,9.33074 l -2.52892,3.58313 4.02035,22.59674 c 2.2112,12.4282 4.02036,23.07265 4.02036,23.65433 0,1.22294 7.10137,6.02564 11.5,7.77751 1.65,0.65716 3.90782,1.01236 5.01738,0.78933 1.10955,-0.22302 4.38825,-0.91396 7.28599,-1.53541 z m 32.52931,-5.52292 c 1.86048,-0.71393 2.33038,-7.52321 0.80125,-11.61073 -1.40336,-3.75129 -2.43583,-14.11972 -1.3385,-13.44153 0.53206,0.32883 3.82026,5.37763 7.30713,11.21957 l 6.33975,10.6217 6.88111,-0.67805 c 7.424,-0.73154 9.67658,-1.31741 9.67658,-2.51678 0,-0.4213 -4.54209,-7.62743 -10.09353,-16.01362 -11.39602,-17.21518 -10.86893,-14.7725 -6.90647,-32.00639 1.20134,-5.225 2.41968,-11.23582 2.70741,-13.35737 l 0.52314,-3.85738 -4.36527,0.67344 c -12.26195,1.89169 -11.11276,0.90716 -12.30435,10.54131 -1.11463,9.01204 -2.2138,14.98621 -2.87979,15.6522 -1.56727,1.56726 -2.18134,-0.69442 -4.52129,-16.6522 -0.63398,-4.3236 -0.80425,-4.51201 -4.3435,-4.80641 -2.02601,-0.16853 -5.51351,0.18632 -7.75,0.78854 -4.5143,1.21558 -4.69262,1.77521 -3.08819,9.69158 1.68979,8.33755 4.6132,24.64149 7.41009,41.32629 0.87587,5.225 1.85362,11.02328 2.17278,12.88507 l 0.58028,3.38507 5.76203,-0.60225 c 3.16911,-0.33124 6.51232,-0.89016 7.42934,-1.24206 z m 49.16732,-8.92189 c 10.50831,-1.66792 10.9799,-1.93792 16.75,-9.58996 3.94968,-5.23787 0.34113,-23.80068 -4.65499,-23.94578 -0.60225,-0.0175 -1.93824,-0.67036 -2.96886,-1.45081 -1.81233,-1.37241 -1.78639,-1.56825 0.78997,-5.96447 2.55692,-4.36305 2.61708,-4.79645 1.49903,-10.7992 -1.80992,-9.71743 -2.55137,-11.05171 -7.68672,-13.83265 -5.12899,-2.77751 -6.29245,-2.76105 -23.72843,0.33569 -6.87374,1.22082 -6.99809,1.29735 -6.89422,4.24324 0.13226,3.7511 2.23417,16.22583 7.49796,44.5 0.56316,3.025 1.34941,7.97546 1.74721,11.00103 0.93044,7.07676 1.69493,8.24059 4.99425,7.60311 1.46014,-0.28213 7.1548,-1.22721 12.6548,-2.1002 z m -2.8926,-14.08467 c -0.27105,-0.70632 -0.79428,-3.94887 -1.16274,-7.20566 -0.61551,-5.44035 -0.50128,-5.96554 1.40593,-6.46429 2.92,-0.7636 3.89423,0.87304 4.68611,7.8723 0.67666,5.9809 0.63954,6.11153 -1.87308,6.59185 -1.55567,0.29739 -2.75715,-0.0148 -3.05622,-0.7942 z m -4.96435,-27.90709 c -0.31401,-0.8183 -0.86393,-3.69655 -1.22204,-6.3961 -0.59329,-4.47244 -0.45436,-4.97072 1.56461,-5.61151 2.81697,-0.89408 3.35925,-0.19777 4.9539,6.36099 1.09423,4.50056 1.08335,5.50568 -0.0675,6.23469 -2.11396,1.3391 -4.5966,1.05989 -5.22898,-0.58807 z m 50.92329,34.46122 c 3.26351,-0.56463 6.86287,-1.22729 7.99857,-1.47259 2.85715,-0.61712 9.43529,-10.43035 9.43427,-14.07399 -4.5e-4,-1.60975 -0.66844,-6.12694 -1.48443,-10.03819 -0.81599,-3.91125 -1.93142,-9.98625 -2.47874,-13.5 -0.54732,-3.51375 -1.67047,-9.98863 -2.49589,-14.38863 -0.82542,-4.4 -1.50962,-9.15149 -1.52045,-10.55887 -0.0108,-1.40738 -0.5974,-3.34897 -1.30352,-4.31465 -1.16694,-1.59588 -1.89549,-1.64307 -8,-0.51827 l -6.71615,1.23749 0,3.77793 c 0,2.07786 0.41699,5.93758 0.92665,8.57715 0.50966,2.63957 1.88044,9.97422 3.04617,16.29922 1.16574,6.325 2.60549,14.06511 3.19944,17.20024 1.28325,6.77355 0.71241,8.79976 -2.47912,8.79976 -2.22179,0 -2.50718,-0.70192 -4.57414,-11.25 -1.21247,-6.1875 -2.65489,-13.95 -3.20536,-17.25 -0.55047,-3.3 -1.40516,-8.25 -1.89931,-11 -0.49415,-2.75 -1.18908,-6.9125 -1.54429,-9.25 -0.73748,-4.85307 -1.43177,-5.059 -10.19076,-3.02261 -5.23973,1.21819 -5.27928,1.25607 -5.27928,5.05718 0,2.10638 0.42767,5.71656 0.95038,8.02261 0.52271,2.30605 1.90117,9.81782 3.06324,16.69282 1.16207,6.875 2.526,14.525 3.03095,17 0.50496,2.475 1.15678,6.075 1.4485,8 0.44025,2.90518 1.49094,4.1373 6.18242,7.25 6.35868,4.21885 5.83769,4.1167 13.89085,2.7234 z m 45.93366,-8.15069 c 5.14633,-1.08768 6.62617,-2.3123 11.17065,-9.24414 2.38222,-3.63366 2.49289,-4.29412 1.50805,-9 -0.58455,-2.79321 -1.35218,-6.98358 -1.70585,-9.31193 -0.50446,-3.3211 -1.43279,-4.82956 -4.30794,-7 -6.09064,-4.59782 -7.88532,-5.26664 -14.13229,-5.26664 -6.69789,0 -6.70317,-0.007 -7.256,-9 -0.26045,-4.23687 -0.11711,-4.51838 2.45128,-4.81429 2.50129,-0.28818 2.78363,0.0342 3.39871,3.88072 l 0.67081,4.19501 6.53039,-0.60982 c 3.59171,-0.3354 6.93857,-1.018 7.43747,-1.5169 0.49889,-0.49889 0.59577,-3.39867 0.21529,-6.44395 -0.68348,-5.4704 -0.7644,-5.58169 -6.7407,-9.27047 l -6.04892,-3.73361 -8.08164,1.06699 c -7.60558,1.00413 -8.27231,1.29317 -11.31856,4.90665 -5.5094,6.53533 -5.8291,8.19023 -3.6856,19.07822 l 1.89485,9.62495 5,3.0289 c 3.70422,2.24394 6.67957,3.16867 11.48094,3.56825 l 6.48093,0.53935 1.21007,5.46862 c 0.85813,3.87814 0.90077,5.8413 0.14662,6.75 -1.94579,2.34453 -3.96179,1.32634 -5.59224,-2.82437 -1.77097,-4.50847 -0.71156,-4.28463 -11.72632,-2.47761 -1.1,0.18046 -2.578,0.38554 -3.28444,0.45574 -0.96088,0.0955 -1.11629,1.45017 -0.61694,5.37762 0.79127,6.2235 1.19212,6.80216 7.80611,11.26881 5.44298,3.67582 5.75866,3.6999 17.09527,1.3039 z m 38.3707,-6.44468 3.3707,-0.51394 -0.60133,-4.68205 c -0.33073,-2.57512 -1.03014,-7.15704 -1.55425,-10.18204 -7.48869,-43.22286 -7.24443,-39.76157 -2.83582,-40.18664 3.23279,-0.3117 3.24928,-0.34107 3.11372,-5.54582 -0.20828,-7.99672 -0.36053,-8.16308 -6.53541,-7.14118 -8.9829,1.48659 -17.09881,2.97543 -22.09887,4.05396 l -4.77055,1.02902 0.64478,5.14533 c 0.35463,2.82993 0.92638,5.45276 1.27056,5.8285 0.34417,0.37575 2.39599,0.82575 4.5596,1 4.78271,0.3852 4.74525,0.28087 8.55214,23.81683 2.77105,17.13199 4.19866,24.73826 5.01029,26.6947 0.95242,2.29583 1.20387,2.3103 11.87444,0.68333 z m 28.92624,-5.40792 c 16.61781,-2.88236 16.21849,-2.63482 14.74706,-9.1415 l -1.20503,-5.32861 -6.57848,0.34683 -6.57849,0.34682 -1.16107,-5.59285 c -1.73455,-8.35527 -1.24297,-9.95717 3.27992,-10.68818 2.09046,-0.33787 4.18321,-1.01893 4.65055,-1.51347 1.14469,-1.2113 -0.99848,-12.39915 -2.37521,-12.39915 -0.59917,0 -2.64328,0.44565 -4.54246,0.99033 -2.15887,0.61915 -3.80593,0.63747 -4.39452,0.0489 -1.17654,-1.17654 -2.51518,-9.6275 -1.72428,-10.88553 0.32179,-0.51185 3.06007,-1.33036 6.08507,-1.81892 6.02306,-0.97277 5.83588,-0.58948 4.43666,-9.08476 -0.48884,-2.96797 -1.18817,-4.24688 -2.31833,-4.23965 -3.76947,0.0241 -24.63356,4.10488 -25.5201,4.99142 -0.62461,0.62461 -0.355,4.61301 0.75936,11.23334 0.9503,5.64569 2.59089,15.43989 3.64576,21.76489 1.05487,6.325 2.12458,12.4 2.37712,13.5 0.25255,1.1 0.99199,5.375 1.6432,9.5 1.36898,8.67151 1.70002,10 2.49189,10 0.31807,0 5.8447,-0.91345 12.28138,-2.02989 z m 30.18841,-5.30059 4.48536,-1.16952 -0.3246,-4.4269 c -0.17853,-2.4348 -0.95162,-7.3848 -1.71799,-11 -0.76637,-3.61521 -1.40121,-7.34477 -1.41076,-8.28792 -0.0211,-2.08041 3.80147,-4.36635 5.11122,-3.0566 0.50263,0.50263 1.72994,5.86694 2.72736,11.92069 0.99741,6.05375 2.13942,11.5342 2.53779,12.17878 1.62728,2.633 14.60758,0.20102 14.60472,-2.73634 -8.5e-4,-0.87544 -0.92139,-6.54171 -2.04565,-12.59171 -1.97344,-10.61977 -2.18447,-11.12259 -6.10517,-14.54644 l -4.06107,-3.54644 2.70349,-3.21292 c 2.69075,-3.19778 2.69831,-3.2514 1.60478,-11.37696 -1.19077,-8.84815 -2.18259,-10.54431 -8.51961,-14.56983 -3.45188,-2.19276 -4.65681,-2.42156 -10,-1.89882 -7.68869,0.75219 -20.33066,3.07351 -21.13862,3.88147 -0.33812,0.33812 -0.1443,3.01218 0.43071,5.94235 0.57501,2.93018 1.55434,8.25259 2.17629,11.82759 2.65524,15.26243 3.74536,21.25748 6.00057,33 0.47534,2.475 1.15208,6.8625 1.50388,9.75 0.62283,5.11215 0.7225,5.24789 3.79579,5.16952 1.73589,-0.0443 5.17457,-0.60676 7.64151,-1.25 z m -2.78527,-46.47972 c -1.52665,-7.3913 -1.51033,-7.85677 0.29992,-8.55143 2.83817,-1.0891 4.39822,0.54775 5.58766,5.86274 1.4133,6.31526 0.80792,8.49889 -2.3562,8.49889 -2.03655,0 -2.48304,-0.73461 -3.53138,-5.8102 z"
           id="path4525"
           style="fill:#0e3fa9;fill-opacity:1" />
      </g>
      <path
         d="m 600.26474,708.60248 -1.46755,0.13707 -2.4461,-12.57726 -2.44606,-12.57728 -1.10642,-0.0503 c -0.60854,-0.0277 -2.03632,0.15104 -3.17287,0.39707 l -2.06647,0.44736 1.58715,7.51272 c 0.87292,4.132 1.98225,9.88688 2.46513,12.7886 l 0.87799,5.27586 -6.98734,1.38553 c -3.84302,0.76205 -7.29848,1.36937 -7.67878,1.3496 -0.75607,-0.0393 -0.17284,2.7519 -9.09922,-43.54615 -2.22541,-11.54242 -3.99701,-21.07203 -3.93692,-21.17692 0.0601,-0.10481 5.97099,-1.32781 13.13533,-2.71768 l 13.02604,-2.52699 6.21674,3.93876 6.21676,3.93876 1.5998,8.64339 1.59983,8.6434 -3.02049,3.51698 c -1.66126,1.93436 -2.98656,3.6121 -2.94511,3.72833 0.0416,0.11622 1.95168,1.22233 4.24495,2.45801 l 4.16959,2.2467 1.48924,8.13199 c 0.81907,4.47261 1.97175,10.33315 2.56153,13.02346 l 1.07223,4.89143 -6.21075,1.29025 c -3.4159,0.70963 -6.87113,1.35192 -7.6783,1.4273 z m -10.23374,-45.95655 -1.29656,-6.09542 -2.99916,0.54232 -2.99914,0.54234 1.12905,6.59596 c 0.62098,3.6278 1.30889,6.78162 1.52875,7.00847 0.24708,0.25502 1.35898,0.12804 2.91229,-0.33254 1.58941,-0.4713 2.56583,-0.57864 2.65745,-0.29205 0.0797,0.24915 0.19414,-0.0704 0.25438,-0.71032 0.0602,-0.63984 -0.47394,-3.90629 -1.18706,-7.25876 z m -31.04412,53.50455 c -3.98121,0.70348 -8.90743,1.61727 -10.94716,2.03065 l -3.70864,0.75156 -1.8495,-9.73433 c -3.1106,-16.3717 -8.56211,-43.93096 -9.85693,-49.83024 l -1.22539,-5.58305 4.61973,-0.7531 c 2.54082,-0.4142 9.04838,-1.5979 14.46123,-2.63042 l 9.84155,-1.87729 1.2527,6.3357 1.2527,6.3357 -6.47454,1.25641 -6.47454,1.25645 0.95832,5.48727 c 0.52708,3.01801 1.08139,5.61429 1.23179,5.76949 0.15036,0.15523 2.60965,-0.23055 5.46502,-0.85727 l 5.19156,-1.13946 1.06876,4.8922 c 0.58785,2.69071 1.10602,5.60178 1.15153,6.46904 l 0.0829,1.57683 -5.42766,1.04019 -5.42767,1.0402 1.66551,7.58828 1.66553,7.58826 6.59059,-1.1169 6.59057,-1.11691 0.78803,3.59033 c 0.43341,1.97469 0.92625,4.82052 1.09523,6.32407 l 0.30724,2.7337 -3.3249,0.64677 c -1.82871,0.35572 -6.58227,1.22236 -10.56347,1.92587 z m -34.72588,6.25683 c -4.02598,0.7442 -7.40769,1.2796 -7.51486,1.18975 -0.10728,-0.0899 -2.43336,-11.82271 -5.16925,-26.07305 -2.73591,-14.25035 -5.12645,-25.90179 -5.31232,-25.89208 -1.25139,0.0651 -2.49745,0.25683 -5.19396,0.79862 l -3.06929,0.6167 -1.33583,-6.33826 -1.33587,-6.33824 2.94614,-0.4067 c 1.62036,-0.22367 6.98007,-1.18128 11.91047,-2.12801 4.9304,-0.94675 10.99641,-2.03992 13.48002,-2.42929 l 4.5157,-0.70792 0.44946,2.04773 c 0.24719,1.12626 0.71538,3.8665 1.04045,6.08944 l 0.591,4.04174 -4.07884,0.89526 c -2.88319,0.63278 -4.09341,1.06543 -4.12846,1.47576 -0.0273,0.31928 2.21916,11.97672 4.99199,25.90543 2.77285,13.92869 4.92722,25.45429 4.78749,25.61244 -0.13972,0.15816 -3.54802,0.89644 -7.57403,1.64067 z m -38.01332,6.88774 -8.52776,1.52307 -5.84563,-3.68308 -5.84565,-3.68303 -0.87747,-5.79328 -0.8775,-5.79329 7.62812,-1.56289 7.62812,-1.56292 0.75522,4.18054 0.75523,4.18052 3.18012,-0.5641 3.18011,-0.56409 -1.09547,-5.13418 c -0.6025,-2.8238 -1.14086,-5.67224 -1.19631,-6.32989 -0.12858,-1.52501 -0.35452,-1.55141 -6.75387,-0.78941 l -5.22665,0.62234 -3.35594,-2.01908 c -1.84578,-1.1105 -4.70673,-2.80917 -6.35772,-3.77483 -1.65096,-0.96569 -2.83895,-1.79151 -2.63997,-1.83519 0.199,-0.0437 -0.45276,-4.4083 -1.44839,-9.6992 l -1.81019,-9.61978 1.47665,-2.09264 c 0.81218,-1.15093 2.68504,-3.72226 4.16195,-5.71403 l 2.6853,-3.6214 8.08306,-1.47046 8.08309,-1.47047 6.25089,3.73463 6.25092,3.73463 1.15322,5.88085 1.15323,5.88085 -6.20679,1.20073 c -3.41372,0.66041 -6.86444,1.24096 -7.66825,1.29011 l -1.46145,0.0894 -0.89201,-4.06409 c -1.01568,-4.62754 -0.97935,-4.59816 -4.68323,-3.78523 l -2.29994,0.50482 1.02975,6.20031 c 0.56641,3.41017 1.22841,6.31247 1.47114,6.44961 0.24272,0.1371 2.83674,-0.0233 5.76449,-0.35656 l 5.3232,-0.60586 5.57281,3.28573 c 3.06506,1.80715 5.85253,3.50371 6.19438,3.77013 0.44594,0.34753 1.15065,3.28134 2.49429,10.38396 l 1.87275,9.89958 -3.52829,4.77233 c -1.94058,2.62479 -3.86433,5.15697 -4.27506,5.62707 -0.63894,0.73134 -1.97787,1.07462 -9.2745,2.37779 z m -47.11966,8.74465 -3.10003,0.52494 -6.34714,-4.11784 c -3.49091,-2.26477 -6.07284,-4.03613 -5.73766,-3.93632 0.46786,0.13935 0.4048,-0.7594 -0.27131,-3.8674 -0.4847,-2.22687 -2.74168,-13.8941 -5.01606,-25.92705 -2.27436,-12.03296 -4.29239,-22.61263 -4.48449,-23.51039 l -0.34925,-1.63227 2.54034,-0.55758 c 1.3972,-0.30666 4.8974,-0.94381 7.77816,-1.41588 l 5.2378,-0.85831 3.58253,18.63203 c 1.97041,10.24763 4.23671,21.97468 5.03626,26.06013 l 1.45372,7.42809 3.13443,-0.55503 3.1344,-0.55504 -0.99521,-5.83879 c -1.22338,-7.17746 -6.88192,-36.69453 -8.10411,-42.27413 l -0.89298,-4.07677 7.63823,-1.47927 c 4.20104,-0.8136 7.73009,-1.40853 7.84239,-1.3221 0.11224,0.0865 2.0781,9.8969 4.36857,21.80102 2.29044,11.90412 4.72282,24.28974 5.4053,27.52363 l 1.24084,5.87981 -4.10192,5.57138 -4.10194,5.5714 -5.89542,1.2034 c -3.24248,0.66187 -7.29044,1.43964 -8.99547,1.72835 z m -37.89893,6.81205 c -3.9812,0.70349 -9.32938,1.70961 -11.88483,2.23583 -4.17757,0.86022 -4.64709,0.87647 -4.65432,0.16105 -0.004,-0.43767 -1.03284,-5.90268 -2.28532,-12.1445 -4.77059,-23.77406 -9.89855,-51.16159 -9.6588,-51.58564 0.13738,-0.24303 6.21899,-1.53933 13.51468,-2.88067 l 13.26489,-2.43887 5.12203,3.34735 5.12203,3.34733 1.66792,8.43775 1.66791,8.43776 -2.79825,3.6589 c -1.53901,2.01243 -2.76745,3.80162 -2.72984,3.976 0.0378,0.17434 2.16601,1.3478 4.7298,2.6076 l 4.66142,2.29052 1.00747,5.88916 c 0.5541,3.23903 1.27935,7.18127 1.61164,8.76055 l 0.60419,2.87139 -1.6951,2.19493 c -0.9323,1.2072 -2.83373,3.72653 -4.22541,5.59849 -2.20853,2.97072 -2.7385,3.43873 -4.16695,3.67981 -0.90013,0.15193 -4.89394,0.8518 -8.87516,1.5553 z m 1.41237,-20.27995 c -1.5882,-7.88541 -1.27042,-7.51054 -5.57671,-6.57846 l -2.0457,0.44278 1.40557,7.02217 c 0.77307,3.86219 1.50488,7.08525 1.62623,7.16236 0.12135,0.077 1.51767,-0.14446 3.1029,-0.49242 l 2.88224,-0.63262 -1.39452,-6.92378 z m -5.02936,-25.91312 c -0.64642,-3.6553 -1.31463,-6.7898 -1.48486,-6.96553 -0.17031,-0.17569 -1.54695,-0.0479 -3.05924,0.28404 -3.3636,0.73824 -3.319,0.50263 -1.59184,8.41079 l 1.25271,5.73577 1.66783,-0.1873 c 0.9173,-0.10303 2.28047,-0.28731 3.02927,-0.40952 l 1.36144,-0.22221 -1.17529,-6.64604 z m -23.8976,51.27492 c -4.65613,0.85373 -8.53181,1.49655 -8.6126,1.42849 -0.0808,-0.0681 -3.52446,-5.43204 -7.65261,-11.91994 -4.12812,-6.4879 -7.73516,-12.05345 -8.01562,-12.36786 -0.30543,-0.34234 -0.14826,1.10171 0.3918,3.60017 0.49601,2.2945 1.68715,8.3701 2.64702,13.50133 l 1.74521,9.3295 -7.66173,1.39347 c -4.21396,0.76642 -7.75234,1.33549 -7.86308,1.26463 -0.11073,-0.0709 -1.33376,-6.21488 -2.71783,-13.65332 -1.38407,-7.43845 -4.11788,-21.96941 -6.07517,-32.29102 l -3.55867,-18.76659 5.52007,-0.91972 c 3.03603,-0.50582 6.56154,-1.14747 7.83439,-1.42583 l 2.31431,-0.50611 0.45351,3.20438 c 0.80566,5.69305 4.47716,24.20528 4.72627,23.83067 0.13285,-0.19977 1.27054,-6.70415 2.5282,-14.45421 l 2.28662,-14.09099 7.68706,-1.62523 c 4.22793,-0.89387 7.82068,-1.53975 7.98393,-1.43526 0.16324,0.10449 -1.41847,7.47636 -3.51498,16.3819 l -3.81176,16.19191 2.65508,3.79632 c 1.4603,2.08798 4.58286,6.55181 6.939,9.91964 6.99539,9.99899 12.43441,17.93837 12.33257,18.00192 -0.0525,0.0326 -3.90486,0.75798 -8.56099,1.6117 z m -59.33133,10.8292 -6.02297,1.07442 -6.47323,-3.70052 -6.4732,-3.70053 -0.74783,-4.28457 c -1.1498,-6.58766 -6.40502,-34.14419 -7.21716,-37.84445 l -0.72211,-3.28996 4.29178,-5.88074 4.29176,-5.88073 8.49454,-1.56373 8.49454,-1.56377 5.79843,3.66737 5.79841,3.66737 1.47972,7.7983 c 0.81384,4.28907 1.42476,7.86738 1.35761,7.95177 -0.0672,0.0844 -3.46835,0.79097 -7.55827,1.57011 l -7.4362,1.41668 -1.21811,-6.21691 -1.2181,-6.21689 -2.99846,0.37052 c -1.64917,0.20378 -3.06894,0.48066 -3.15509,0.61525 -0.15392,0.24048 3.65193,20.40776 6.27586,33.25598 l 1.33615,6.54245 3.06946,-0.54122 3.06945,-0.54123 -1.38293,-7.50432 c -0.76063,-4.12737 -1.33132,-7.58498 -1.2682,-7.68361 0.0631,-0.0986 3.46266,-0.79646 7.5545,-1.55078 l 7.43978,-1.3715 1.86312,9.08776 1.86315,9.08776 -4.25237,5.72649 c -4.1712,5.61712 -4.29116,5.7332 -6.28172,6.07765 -1.11614,0.19313 -4.73968,0.83465 -8.05231,1.42558 z m -40.76092,7.56342 -7.81102,1.41336 -6.15089,-3.9368 -6.15091,-3.9368 -3.71362,-19.38343 c -2.04249,-10.66085 -4.02683,-20.79679 -4.40968,-22.52424 l -0.69599,-3.14086 4.47914,-6.06512 4.47916,-6.06511 3.93106,-0.57614 c 2.16208,-0.31686 5.81321,-0.9892 8.11363,-1.49412 l 4.18256,-0.91802 6.23658,3.74784 6.23658,3.74779 2.09895,10.94234 c 1.15444,6.01826 3.08964,16.0565 4.30047,22.30721 1.21084,6.25068 2.17436,11.79893 2.14118,12.32942 -0.0809,1.29125 -7.78962,11.94474 -8.72192,12.05361 -0.40387,0.0472 -4.24924,0.72173 -8.54527,1.49906 z m -2.58093,-32.75898 c -2.08665,-10.85092 -3.93819,-19.8778 -4.11453,-20.0598 -0.17632,-0.18196 -1.55396,-0.0601 -3.06143,0.27071 l -2.7408,0.60155 2.65325,13.43089 c 1.45929,7.38698 3.16364,16.33138 3.78745,19.87642 l 1.13419,6.44558 2.1558,-0.30017 c 1.18568,-0.16508 2.56623,-0.35328 3.0679,-0.4182 0.90147,-0.11661 0.86779,-0.34868 -2.88183,-19.84698 z m -36.72316,39.86926 c -6.37864,1.1914 -11.6663,2.12219 -11.75035,2.06838 -0.2004,-0.12825 -10.07364,-51.16673 -11.36896,-58.77054 l -1.00119,-5.87718 7.73873,-1.36849 c 4.25631,-0.75268 7.77638,-1.34506 7.82236,-1.31641 0.046,0.0286 1.5098,7.42925 3.25292,16.44578 1.74312,9.01654 4.0715,20.70725 5.17419,25.97936 l 2.00492,9.58568 5.92966,-1.01354 c 3.26136,-0.55746 6.27718,-1.06557 6.70183,-1.12919 0.69446,-0.10408 0.90107,0.47191 2.05395,5.72448 1.4609,6.65611 1.57157,6.34868 -2.54788,7.07821 -1.32696,0.23499 -7.63153,1.40205 -14.01018,2.59346 z m -34.61056,6.35288 c -4.22183,0.74921 -10.01571,1.8278 -12.87533,2.39689 l -5.1993,1.03471 -2.16955,-11.20761 c -1.19328,-6.16416 -3.94662,-20.35334 -6.11858,-31.53154 -2.17196,-11.1782 -3.90827,-20.74308 -3.85846,-21.25531 0.0894,-0.91829 0.28173,-0.96688 13.77215,-3.47849 l 13.68162,-2.54721 5.00437,3.23091 5.0044,3.23091 1.63568,8.63624 1.63569,8.63622 -2.90742,3.71691 -2.90741,3.71692 4.8168,2.38065 4.81678,2.38062 1.28426,6.08056 c 0.70634,3.3443 1.34741,7.44233 1.4246,9.10676 l 0.14044,3.02616 -3.54207,4.82686 c -3.44676,4.69696 -4.83096,6.2448 -5.59163,6.25281 -0.20401,0.002 -3.82514,0.61686 -8.04694,1.36603 z m 0.006,-20.37256 -1.38337,-7.10172 -3.06818,0.67343 -3.06819,0.6734 1.39752,6.9854 c 0.87654,4.38145 1.57227,7.00767 1.86632,7.04513 0.25788,0.0328 1.63219,-0.21782 3.05405,-0.55707 l 2.58521,-0.61683 -1.38336,-7.10174 z m -5.01372,-25.78672 c -0.65023,-3.55427 -1.30038,-6.59016 -1.44482,-6.74647 -0.14443,-0.15626 -1.49324,-0.0139 -2.99737,0.31611 l -2.73478,0.60022 0.64969,4.30065 c 0.35735,2.36535 0.89561,5.42579 1.19614,6.80102 l 0.54645,2.50042 2.98344,-0.65482 2.98345,-0.65481 -1.18221,-6.46232 z"
         id="path4556"
         style="fill:#ffa903;fill-opacity:1" />
      <g
         transform="translate(-2,0)"
         id="text4598"
         style="font-size:25.80131721px;font-style:normal;font-weight:normal;line-height:125%;fill:#000000;fill-opacity:1;stroke:none;font-family:Bitstream Vera Sans">
        <path
           d="m 668.30366,783.84155 c 1.59577,10e-6 3.15376,0.40946 4.67397,1.22833 1.52018,0.81891 2.70442,1.99055 3.55272,3.51493 0.84827,1.5244 1.27241,3.11389 1.27243,4.76845 -2e-5,1.63779 -0.41786,3.21257 -1.25353,4.72436 -0.83571,1.5118 -2.00735,2.68554 -3.51493,3.52123 -1.50761,0.83569 -3.08449,1.25353 -4.73066,1.25353 -1.64618,0 -3.22307,-0.41784 -4.73066,-1.25353 -1.5076,-0.83569 -2.68134,-2.00943 -3.52122,-3.52123 -0.83989,-1.51179 -1.25983,-3.08657 -1.25983,-4.72436 0,-1.65456 0.42624,-3.24405 1.27872,-4.76845 0.85249,-1.52438 2.03882,-2.69602 3.55902,-3.51493 1.52019,-0.81887 3.07818,-1.22832 4.67397,-1.22833 z m 0,1.57478 c -1.33543,2e-5 -2.63515,0.34227 -3.89917,1.02676 -1.26404,0.68453 -2.253,1.66299 -2.9669,2.93541 -0.71391,1.27244 -1.07086,2.59736 -1.07086,3.97476 0,1.36903 0.35065,2.68135 1.05196,3.93697 0.7013,1.25564 1.68187,2.2341 2.9417,2.9354 1.25983,0.70131 2.57425,1.05196 3.94327,1.05196 1.36901,0 2.68343,-0.35065 3.94327,-1.05196 1.25981,-0.7013 2.23828,-1.67976 2.9354,-2.9354 0.69709,-1.25562 1.04564,-2.56794 1.04566,-3.93697 -2e-5,-1.3774 -0.35487,-2.70232 -1.06455,-3.97476 -0.70972,-1.27242 -1.69869,-2.25088 -2.9669,-2.93541 -1.26825,-0.68449 -2.56587,-1.02674 -3.89288,-1.02676 z m -4.17004,13.19042 0,-10.22982 3.51493,0 c 1.20103,2e-5 2.07031,0.0945 2.60785,0.28347 0.53751,0.18898 0.96585,0.51864 1.28502,0.98896 0.31915,0.47035 0.47873,0.97008 0.47874,1.4992 -1e-5,0.74751 -0.26668,1.39842 -0.79999,1.95274 -0.53334,0.55433 -1.24095,0.86509 -2.12282,0.93227 0.36114,0.15119 0.65091,0.33176 0.86929,0.54173 0.41153,0.40315 0.91546,1.07926 1.51179,2.02832 l 1.24723,2.00313 -2.01572,0 -0.90708,-1.61258 c -0.71391,-1.26822 -1.28924,-2.06191 -1.72597,-2.38108 -0.30237,-0.23516 -0.74331,-0.35274 -1.32282,-0.35275 l -0.97007,0 0,4.34641 z m 1.65038,-5.75742 2.00313,0 c 0.95746,10e-6 1.61047,-0.14277 1.95904,-0.42834 0.34854,-0.28555 0.52281,-0.6635 0.52283,-1.13385 -2e-5,-0.30235 -0.084,-0.57321 -0.25197,-0.81259 -0.16799,-0.23935 -0.40106,-0.41783 -0.69921,-0.53543 -0.29817,-0.11757 -0.85039,-0.17636 -1.65667,-0.17637 l -1.87715,0 z"
           id="path4713" />
      </g>
      <g
         id="g4695">
        <rect
           width="469.37524"
           height="4.9980078"
           x="29.369843"
           y="653.59052"
           transform="matrix(0.98497261,-0.17271061,0.16810652,0.98576884,0,0)"
           id="rect4604"
           style="fill:#ffa903;fill-opacity:1;stroke:none" />
        <rect
           width="226.13228"
           height="4.9470053"
           x="646.4306"
           y="-32.174416"
           transform="matrix(0.17098022,0.98527446,-0.99679277,-0.08002604,0,0)"
           id="rect4606"
           style="fill:#ffa903;fill-opacity:1;stroke:none" />
        <rect
           width="469.37524"
           height="4.9980078"
           x="33.70599"
           y="875.6543"
           transform="matrix(0.98497261,-0.17271061,0.16810652,0.98576884,0,0)"
           id="rect4657"
           style="fill:#ffa903;fill-opacity:1;stroke:none" />
      </g>
    </g>
  </g>
</svg>
