<svg width="128" height="128" xmlns="http://www.w3.org/2000/svg"><path fill="#00adee" d="M0 0h128v128H0z"/><path d="M43.792 51.563a4.33 4.33 0 0 0 0-6.058 4.173 4.173 0 0 0-5.965 0L23.236 60.322a4.33 4.33 0 0 0 0 6.057 4.173 4.173 0 0 0 5.965 0 4.173 4.173 0 0 1 5.965 0 4.33 4.33 0 0 1 0 6.058l-9.109 9.25a4.33 4.33 0 0 0 0 6.059 4.174 4.174 0 0 0 5.966 0l44.741-45.434a4.33 4.33 0 0 0 0-6.057 4.173 4.173 0 0 0-5.965 0L49.759 57.62s0-.002.002-.003a4.173 4.173 0 0 1-5.963-.002 4.33 4.33 0 0 1-.002-6.055l-.004.003M14.28 69.537c-1.707 1.6-1.707 4.193 0 5.793 1.706 1.6 4.473 1.6 6.18 0 1.705-1.6 1.705-4.193 0-5.793-1.707-1.6-4.474-1.6-6.18 0m99.007 2.144a4.248 4.248 0 0 0-6.008 0L95.264 83.696a4.247 4.247 0 1 0 6.008 6.008l12.015-12.015a4.248 4.248 0 0 0 0-6.008m-53.538.563l-4.505 4.505a4.248 4.248 0 0 0 6.007 6.007l4.505-4.505a4.247 4.247 0 1 0-6.007-6.007m14.344-2.461l14.69-14.69a4.155 4.155 0 1 0-5.876-5.876l-14.69 14.69a4.155 4.155 0 1 0 5.876 5.876m27.673-9.55a4.213 4.213 0 0 0-5.958 0L70.234 85.809a4.213 4.213 0 0 0 5.957 5.958l25.575-25.574a4.212 4.212 0 0 0 0-5.958" fill="#fff"/></svg>