<svg xmlns="http://www.w3.org/2000/svg" xmlns:svg="http://www.w3.org/2000/svg" enable-background="new 0 0 5001.2 1082" version="1.1" xml:space="preserve" viewBox="0.8 0 1082 1082">
 <style type="text/css">.st0{fill:#E20613;}
	.st1{fill:#1D1D1B;}
	.st2{opacity:0.25;filter:url(#filter4965);enable-background:new    ;}
	.st3{fill:#FFFFFF;}
	.st4{fill:url(#rect4686_1_);}
	.st5{fill:#007744;}
	.st6{fill:url(#rect4686-6-6-0_1_);}</style>
 <filter color-interpolation-filters="sRGB" height="1.28" id="filter4965" width="1.14" x="-0.07" y="-0.14">
  <feGaussianBlur id="feGaussianBlur4967" stdDeviation="36.07"/>
 </filter>
 <g class="layer">
  <title>Layer 1</title>
  <g class="st2" id="rect4686-4">
   <rect class="st3" height="613.6" id="svg_2" width="1082" x="0.8" y="240.8"/>
  </g>
  <linearGradient gradientTransform="matrix(6.123234e-17 1 1 -6.123234e-17 1618.7654 -1616.7651)" gradientUnits="userSpaceOnUse" id="rect4686_1_" x1="1616.77" x2="2698.77" y1="-1077" y2="-1077">
   <stop offset="0" stop-color="#057B5B"/>
   <stop offset="1" stop-color="#04A47B"/>
  </linearGradient>
  <path class="st4" d="m1082.8,1082l-1082,0l0,-1082l1082,0l0,1082z" id="rect4686"/>
  <g id="g5081">
   <path class="st5" d="m57.6,1013.9c-51.3,-362.7 -37.9,-665.6 0,-945.8c3.2,-23.6 19.2,-43 43,-43l916.1,0c23.8,0 43,19.2 43,43l0,945.8c0,23.8 -19.2,43 -43,43l-916.1,0c-23.9,-0.1 -39.7,-19.5 -43,-43z" id="rect4686-6-8"/>
   <linearGradient gradientTransform="matrix(6.123234e-17 1 1 -6.123234e-17 838.5811 -157.1206)" gradientUnits="userSpaceOnUse" id="rect4686-6-6-0_1_" x1="182.21" x2="1077.91" y1="-293.46" y2="-297.46">
    <stop offset="0" stop-color="#FFFFFF"/>
    <stop offset="1" stop-color="#007744" stop-opacity="0"/>
   </linearGradient>
   <path class="st6" d="m1059.6,68.1l0,945.8c0,23.8 -19.2,43 -43,43l-916,0c-23.8,0 -39.6,-19.4 -43,-43c-51.3,-362.7 -37.9,-665.6 0,-945.8c3.2,-23.6 19.2,-43 43,-43l916.1,0c23.7,0.1 42.9,19.2 42.9,43l0,0z" id="rect4686-6-6-0"/>
  </g>
  <path class="st3" d="m425.9,950c0.5,-0.4 6.2,-4.5 12.6,-9.1c19.9,-14.1 42.9,-33.4 41.1,-34.4c-0.4,-0.2 -2.8,-0.8 -5.2,-1.1c-7.2,-1.1 -24.7,-6.3 -35.5,-10.6c-11.6,-4.6 -15.9,-6.8 -13.3,-6.9c11,-0.2 53.5,-5.8 73.6,-9.7l13.3,-2.6l5.4,-6.1c7.9,-9 22.3,-27.1 34.3,-43.3c5.8,-7.8 10.9,-14 11.2,-13.8c0.4,0.2 1,4.1 1.3,8.7c1.2,14.8 3.9,32.8 4.9,32.8c3.2,0 44.9,-24.1 63.8,-36.8c5.8,-3.9 10.6,-6.6 10.8,-6.1c0.4,1.2 -14.7,17.7 -27.6,30c-10.9,10.4 -27.4,24.8 -37.2,32.2l-6.3,4.8l0.6,6.3c0.5,5.2 2.4,13.4 5.3,23.6c0.6,2.2 -3.3,2.8 -26.6,3.6l-19.4,0.7l-8.1,4.3c-22.4,11.9 -56,24.3 -85,31.4c-12.4,3 -15.6,3.5 -14,2.1l0,0zm-173.7,-27.2c-16.1,-14.8 -33,-38.7 -46.3,-65.3l-8.5,-17l-7.2,-3.1c-16.4,-7.1 -44.7,-22.9 -66.7,-37.1l-7.5,-4.8l8,-3.8c12,-5.7 27.8,-11.8 39,-15c5.5,-1.6 10.5,-3 11.1,-3.3c0.7,-0.3 0.7,-2.9 -0.2,-8.7c-3.5,-22.2 -2.7,-70.1 1.7,-105.9c1.1,-8.5 1.9,-15.9 1.9,-16.3c0,-0.4 0.4,-0.6 0.9,-0.3c0.5,0.3 1.2,2.7 1.6,5.3c1.4,9.3 9.6,40.2 14.6,54.9c5.8,17 14,36 21,48.4c7.4,13.1 5.4,12.2 19.9,9.4c11.8,-2.2 46.7,-7.5 59.4,-9l5.9,-0.7l-4,5.9c-9.9,14.6 -21.8,37.3 -28.3,54.1l-2.8,7.3l7.2,6.5c15.8,14.3 44.4,33.2 71,47.1l12.2,6.3l-4.5,0c-13.7,0.1 -66.3,-7.7 -83.5,-12.4c-5,-1.3 -9.7,-2.6 -10.5,-2.8c-1.1,-0.3 -1.6,0.8 -1.8,4.2c-0.5,7.4 1.7,42.8 3.4,52.9c0.8,5.2 1.4,9.5 1.2,9.7c-0.5,0.3 -4.1,-2.6 -8.2,-6.5l0,0zm-61.1,-328.6c-0.7,-0.7 3.2,-8.5 12.6,-25.3c24.2,-43.3 57,-90.5 85,-122.3c4.3,-4.8 7.8,-9.2 7.8,-9.6c0,-2.9 -15.4,-11 -30.5,-16c-15.9,-5.3 -30.5,-8.6 -50,-11.2c-21,-2.8 -21.6,-3.1 -13.5,-5.7c11,-3.6 33.9,-9 47,-11.2c28.6,-4.6 38.4,-5.3 75.1,-5.5l35.6,-0.2l4.9,-3.6c16.1,-11.8 41.2,-25.6 62.5,-34.4c13.2,-5.4 31,-11.4 32.1,-10.8c0.4,0.2 -1.5,4 -4.1,8.3c-10.5,16.9 -24,47 -21.7,48.3c0.7,0.4 4.1,1 7.7,1.4c25.9,2.8 66.3,14.5 102.4,29.6c21.9,9.2 61.4,29.6 59.8,30.9c-0.4,0.4 -6.8,-0.1 -14.3,-1.1c-16.8,-2.3 -49.5,-5.5 -70,-7c-20.1,-1.4 -63.3,-1.4 -78,0.1c-15.7,1.5 -31.1,4.7 -33.1,6.8c-6.3,6.6 -26.7,73.9 -34.4,113.2c-1.4,7.4 -3.1,15.9 -3.7,18.9l-1,5.4l-3.9,-8.9c-9.9,-22.2 -24.5,-65.1 -31.5,-92.1c-1.6,-6.2 -3.3,-11.2 -3.8,-11.2c-1.3,0 -18.3,11.9 -32.6,22.8c-26,19.8 -55.8,45 -81.9,69.3c-20.2,18.6 -23.9,21.7 -24.5,21.1zm691,-113.4c-0.3,-0.8 -0.8,-10.5 -1.1,-21.5c-1.5,-52.4 -9.5,-102.2 -22.1,-138.4c-4.5,-12.9 -9.5,-24.1 -10.7,-24.1c-0.5,0 -2.8,1.3 -5.1,2.8c-16.6,11.3 -145.9,78.3 -147.1,76.3c-0.3,-0.5 1.8,-3.6 4.7,-6.8c21.1,-23 62,-75.6 68.7,-88.2l1.3,-2.4l-20.9,0.7c-63.8,2.1 -138.3,10.3 -190.6,21c-6.6,1.3 -12,2 -12.3,1.5c-0.7,-1.1 18.5,-10.4 40.1,-19.3c51.6,-21.5 123.6,-43.1 179.3,-53.9c7.3,-1.4 13.5,-2.6 13.9,-2.6c1,0 -13.3,-11.2 -22.7,-17.7c-28.7,-20 -79.1,-49.3 -121.8,-70.7c-12.6,-6.3 -11.4,-7.2 6.5,-5.1c26.1,3.1 58.6,9.1 92.8,17.1c63.8,14.9 114,33 141.2,51l8.2,5.4l9.8,-2c20.1,-4.2 71.5,-9.2 73.5,-7.2c1,1 -6.6,14.1 -13.3,22.8c-6.8,8.8 -18.8,20.4 -26.8,26l-7.1,4.9l0.6,12.5c1.5,31.6 -3.4,82.4 -12.1,126c-7.4,36.1 -25.1,97.1 -26.9,91.9l0,0z" id="path4846"/>
 </g>
</svg>