<svg width="655" height="372" viewBox="0 0 655 372" xmlns="http://www.w3.org/2000/svg"><g fill="none" fill-rule="evenodd"><path fill="#151922" d="M.003 0L0 249h655l-.003-249H.003"/><path fill="#007AC0" d="M0 258h655.002v114H0z"/><g fill="#FFF"><path d="M480.19 28.599h18.65L477.003 74.41 459.9 74.6l20.29-46M495.845 169.752c1.278 31.16 22.43 49.847 58.342 49.847 31.394 0 55.225-22.442 54.469-52.967-.736-30.216-23.292-47.274-51.27-54.821-23.075-6.237-37.179-13.092-35.902-36.147 1.155-20.542 19.224-31.153 33.336-31.153 16.125 0 30.704 10.589 33.28 28.032l20.556.141c-5.695-26.304-22.421-44.44-49.992-45.067-32.048-.724-53.801 20.464-56.467 49.792-1.212 13.358 2.496 25.452 12.237 34.402 9.085 8.928 23.12 14.148 37.81 18.057 24.568 6.548 36.769 18.992 36.546 38.631-.227 20.683-17.947 33.657-35.893 33.657-18.813 0-37.842-13.149-37.174-32.404h-19.878M249.68 44.601c43.722 0 78.753 32.837 78.957 78.636.193 43.967-40.123 74.413-78.958 75.185-43.3.88-79.795-30.677-78.944-75.185.897-46.328 35.01-78.636 78.944-78.636zm0-18.001c-56.064-.274-99.308 44.917-99.308 97.881 0 52.974 44.81 93.118 99.307 93.118 54.523 0 97.676-43.174 99.33-93.118 1.954-58.905-44.807-97.594-99.33-97.881zM402.596 217.599c17.281 0 60.21-4.229 60.3-51.128.023-11.793-4.278-25.817-10.523-34.036-4.3-5.352-14.733-14.3-26.556-14.872 8.135-.61 27.054-10.925 27.782-38.132.445-16.284-5.938-27.505-17.805-37.513-11.605-9.995-29.317-9.31-44.018-9.31H354.06v184.99h48.535zm-28.59-89.181h21.957c10.321 0 24.255.74 33.757 5.352 10.524 4.995 17.68 18.997 17.68 29.996 0 11.21-2.753 22.862-14.06 30-9.593 6.047-19.343 7.88-35.522 7.88h-23.813v-73.228zm-.011-80.333H391.9c9.091 0 28.763 0 36.627 8.575 6.961 7.589 8.93 12.488 8.93 22.298 0 10.403-3.414 16.932-12.29 23.135-8.873 6.2-22.731 6.675-33.267 6.675h-17.905V48.085z"/><path d="M99.069 217.599c17.282 0 60.198-4.229 60.289-51.128.024-11.793-4.277-25.817-10.51-34.036-4.303-5.352-14.747-14.3-26.569-14.872 8.136-.61 27.056-10.925 27.784-38.132.443-16.284-5.939-27.505-17.794-37.513-11.615-9.995-29.342-9.31-44.03-9.31H50.525v184.99h48.545zm-28.602-89.181h21.97c10.306 0 24.246.74 33.745 5.352 10.523 4.995 17.69 18.997 17.69 29.996 0 11.21-2.752 22.862-14.06 30-9.602 6.047-19.352 7.88-35.52 7.88H70.467v-73.228zm-.01-80.333h17.919c9.078 0 28.75 0 36.61 8.575 6.964 7.589 8.932 12.488 8.932 22.298 0 10.403-3.4 16.932-12.276 23.135-8.874 6.2-22.744 6.675-33.266 6.675h-17.92V48.085zM269.635 345.819c-31.895 0-67.908-11.627-67.591-31.606.303-19.384 30.449-33.097 66.665-33.097 33.566 0 66.677 11.936 67.289 32.2.575 19.098-33.362 32.503-66.363 32.503zm.293-69.18c-42.309-.928-72.262 14.046-73.594 36.877-1.299 22.466 36.77 37.383 72.783 37.078 40.604-.342 73.277-16.633 72.96-37.662-.293-20.789-31.353-35.397-72.15-36.292zM204.29 277.599h-81.876v4.798h36.797V347.6h6.75v-64.913h38.329v-5.087M350.067 349.599h7.597V282.85h28.629c10.527 0 25.33.21 34.468 2.96 4.927 1.5 15.398 6.518 15.398 16.049 0 6.53-9.855 11.823-20.93 14.55-8.918 2.136-14.783 2.975-27.704 2.38h-6.469l44.015 30.81h10.778l-37.866-26.066c21.808-.3 44.63-8.906 44.938-21.968.276-11.603-11.38-18.715-21.852-21.093-11.497-2.62-26.302-2.873-39.02-2.873h-31.982v72M525.483 278.599h-75.568v70H525.8v-3.872h-69.106v-29.19h68.181v-3.576h-67.562v-29.488h68.17v-3.874"/><path d="M46.644 329.41c-.07.399-.09 1.97-.114 2.355.675 9.796 17.097 18.177 42.408 17.823 21.308-.295 41.07-7.718 40.452-20.77-.264-5.743-4.018-10.689-15.127-14.834-7.829-2.925-16.079-4.08-26.87-5.045-13.273-1.189-29.649-4.455-30.565-13.352-.984-9.456 14.397-15.436 32.42-15.131 17.598.3 29.555 6.128 30.563 13.436h6.798c-.619-9.288-14.683-17.293-37.361-17.293-23.506 0-38.29 7.41-38.29 18.397 0 5.155 3.731 9.938 12.038 13.348 7.496 3.11 10.277 3.154 19.602 4.333 8.515 1.065 20.757 2.145 27.648 4.86 6.27 2.439 13.01 5.355 13.273 11.874.31 7.41-10.184 15.735-38.277 15.442-19.774-.21-33.047-6.535-33.356-15.442h-5.242M529.883 330.413c-.059.395-.09 1.965-.09 2.353.675 9.804 17.087 18.174 42.403 17.822 21.309-.286 41.074-7.72 40.457-20.773-.276-5.737-4.03-10.675-15.13-14.83-7.841-2.926-16.08-4.08-26.874-5.035-13.274-1.189-29.651-4.464-30.579-13.361-.973-9.457 14.397-15.437 32.434-15.13 17.601.296 29.561 6.136 30.581 13.436h6.786c-.617-9.278-14.684-17.296-37.367-17.296-23.507 0-38.294 7.412-38.294 18.4 0 5.154 3.731 9.935 12.038 13.356 7.498 3.102 10.29 3.146 19.605 4.322 8.503 1.065 20.75 2.14 27.652 4.87 6.271 2.429 13.001 5.334 13.286 11.866.299 7.419-10.207 15.733-38.304 15.426-19.764-.208-33.04-6.521-33.348-15.426h-5.256"/></g></g></svg>
