<?xml version="1.0" encoding="utf-8"?>
<!-- Generator: Adobe Illustrator 23.1.1, SVG Export Plug-In . SVG Version: 6.00 Build 0)  -->
<svg version="1.1" id="Calque_2" xmlns="http://www.w3.org/2000/svg" xmlns:xlink="http://www.w3.org/1999/xlink" x="0px" y="0px"
	 viewBox="0 0 247.5 109.5" style="enable-background:new 0 0 247.5 109.5;" xml:space="preserve">
<style type="text/css">
	.st0{fill:#3A75C4;}
</style>
<path class="st0" d="M223.1,16.6l-6.9,11.8l11.8-6.9L223.1,16.6z M210,34.8c-14.8-14.8-33-23.2-50-24.5c15.7,4,32.4,13.5,46.7,27.8
	C221,52.4,230.5,69,234.5,84.7C233.2,67.7,224.8,49.6,210,34.8z M81.9,55.7h-6.2v28.5h18.6v-5.7H81.9V55.7z M104.5,55.7h-6.2v28.5
	h18.6v-5.7h-12.5V55.7z M32.7,69.3c1.5-1.2,2.3-2.8,2.3-5.1c0-5-3.4-8.4-9.1-8.4H12.3v28.5h13.5c6.5,0,10.5-3.1,10.5-8.7
	C36.4,72.8,35.1,70.7,32.7,69.3z M18.5,61.4h7.1c2,0,3.3,0.9,3.3,2.8c0,1.8-1.3,2.8-3.3,2.8h-7.1V61.4z M26.5,78.5H25
	c-1,0-5.1,0-6.1,0h-0.4v-5.9h8c2.2,0,3.5,1,3.5,2.9C29.9,77.5,28.6,78.5,26.5,78.5z M55.6,55.2c-8.2,0-14.8,6.6-14.8,14.7
	c0,8.1,6.6,14.7,14.8,14.7c8.2,0,14.8-6.6,14.8-14.7C70.4,61.8,63.7,55.2,55.6,55.2z M55.6,78.7c-4.8,0-8.7-3.9-8.7-8.7
	c0-4.8,3.9-8.7,8.7-8.7c4.8,0,8.7,3.9,8.7,8.7C64.3,74.8,60.4,78.7,55.6,78.7z M134,55.2c-8.2,0-14.8,6.6-14.8,14.7
	c0,8.1,6.6,14.7,14.8,14.7c8.2,0,14.8-6.6,14.8-14.7C148.8,61.8,142.2,55.2,134,55.2z M134,78.7c-4.8,0-8.7-3.9-8.7-8.7
	c0-4.8,3.9-8.7,8.7-8.7c4.8,0,8.7,3.9,8.7,8.7C142.8,74.8,138.9,78.7,134,78.7z M199.9,47.7c0.5-0.8,0.5-1.7-0.1-2.3
	c-0.6-0.7-1.6-0.8-2.4-0.4c-0.5,0.3-0.9,0.7-1.3,1.2c-1.4,1.7-2.7,3.4-4.1,5.2c-0.5,0.6-1,1.3-1.5,1.9h3.1c1.6-1.4,3.3-2.8,4.9-4.3
	C199.1,48.7,199.6,48.3,199.9,47.7z M176.7,65.4c0-6.1-4.2-9.7-11.2-9.7h-11.2v28.5h6.2v-9.1h4.9l5.8,9.1h7.6l-7.1-10.7
	C175.1,71.6,176.7,68.8,176.7,65.4z M170.4,65.5c0,2.3-1.9,3.9-4.9,3.9h-5.1v-7.9h4.9C168.4,61.4,170.4,62.8,170.4,65.5L170.4,65.5z
	 M183.7,84.2h20.9v-5.7h-14.7v-5.7h13.2v-5.7h-13.2v-5.7h14.7v-5.7h-20.9V84.2z"/>
</svg>
