<svg viewBox="0 0 79 87" xmlns="http://www.w3.org/2000/svg" xml:space="preserve" style="fill-rule:evenodd;clip-rule:evenodd;stroke-linejoin:round;stroke-miterlimit:2">
    <path d="m12.15 19.3.04-.04-.07-.1h-.07l-.11.14h.21Zm-.3 2.61-.15-.04-.08.13.08.04.16-.04v-.09h-.01Zm-.28.1h-.09l-.04.09.04.16h.09V22v.01Zm.05-7.9-.08-.04-.14.1.04.16.14-.04.07-.11-.03-.07Zm-.5 1.82.35-.04-.36-.05v.09h.01Zm.06 1.24-.04-.03.04-.15-.13.04-.04.14.13.08.04-.08Zm.11 6.03.08-.37-.04-.11-.14.1-.15-.14h-.07l.1.44.08.08.14.03v-.03Zm-.19-9.28.09-.26-.18.08-.04.07.04.15.1-.04h-.01Zm.05 2.81.07-.07v-.15l-.1-.11-.18-.04.17.3-.07.07h.11Zm-.25 2.77.14-.15.04-.18-.25.15-.04.14.04.08.07-.04Zm-.1-6.38.24.13-.03-.13-.22-.09v.1l.01-.01Zm-.04 4.76.21.22.14-.04-.03-.15.03-.18h-.21l-.14.07v.08Zm.14 4.95-.04-.11-.18-.08.05.26.17-.07Zm-.07-7.84-.18.3.07.03.14-.03.08-.15v-.15l-.11-.07v.07Zm-.18 4.78.1.12h.11l-.03-.2-.18-.04-.07.12h.07Zm-.07-1.37.17.16.04-.08-.17-.16-.04.08Zm0 .53.17.04v-.24l-.16.04-.08.16h.08-.01Zm.43-3.4-.47-.1-.03.14.1.08.47-.04-.07-.09v.01Zm-.22.39-.07-.04-.14.04-.07.07-.04.15h.07l.1.1.15.05v-.15l.11-.22h-.11Zm-.34-1.55-.09.08v.08l.09.04.09-.24-.1.04h.01Zm0-5.09.09-.04.04-.16-.09-.04-.13.2.09.04Zm.2-.7-.07-.13-.11.04-.14.2.32-.04v-.08.01Zm-.14 11.55.14-.04-.07-.1-.25-.16-.04.19.22.11Zm.07 1.44.14.04-.04-.22.11-.23-.32.04-.14-.04-.08.19.04.07.22-.03v.18h.07Zm-.29-3.93.17.04.04-.17-.25.04.04.09Zm0-4.13.14-.03.11-.11-.03-.15-.18.04-.08.22.04.03Zm-.14 5.18.18.15.1-.15-.28-.11v.11Zm.1-3.85-.03.08.03.15.15-.08.07-.18-.07-.04-.18-.4-.1-.08-.04.22.17.19v.14Zm-.07-2.25-.1.18.03.08.29-.15-.07-.15-.15-.03v.07Zm-.14-4.27.22.08-.05-.16-.08-.09h-.09v.17Zm.25-1.55-.14-.13-.11.04h.07l-.03.09.14.09.07-.05v-.04Zm-.04 4.38-.14.15-.14-.04.25.3.1-.23v-.22l-.07.04Zm-.17-4.88-.15.17.07.05.18-.22h-.1Zm-.18 6.87v.08l.21.26-.04-.3-.13-.1-.04.06Zm.35 4.1.26-.1.07.03.1.3.15-.04-.11-.37-.1-.1-.3.1.08-.18.1.03.04-.07-.1-.07-.11-.19-.08-.3h.15l.07-.1-.54-.04-.14.04.03.14.11.11.07-.18.11.33v.67h.14v-.01Zm-.39-5.32.1.04.12.19-.08.03-.03.15.14.04.1-.15-.03-.07v-.3l-.07-.11-.03.07-.3.08.08.03Zm.32-1.29-.14-.11v-.07l.18-.04-.04-.3-.14.08-.25.48.03.1.36-.06v-.08Zm-.22-3-.08-.14-.1-.04.05.15.13.11v-.08Zm-.05 2.34-.16.14.04.15.08-.04.12-.25h-.08Zm-.13-3.1v-.12l-.17-.04.09.08V7l.08-.15v.02Zm-.2 11.63.04.08-.05.33.1.07.12-.51-.13-.08-.09.04v.07h.01Zm.12-1.25.1-.15v-.15l-.18.04-.05.18.1.11.03-.03Zm-.05-6.62-.08.04.11.3.14.03.08-.11-.11-.07-.07-.19h-.07Zm.17-1.33-.21-.04-.04.08.04.18.18.22.21.11h.11l.04-.1-.04-.26-.1-.23-.15-.03-.04.07Zm-.32 3.51.5-.15-.32-.3-.1.27-.11.07-.04.15.07-.04Zm.06-7.32-.17.13v.05l.25-.13-.08-.05Zm.05 3.1-.22-.25-.1.04v.18l.32.11v-.08Zm-.14-1.03v.08l-.18.22.03.15.15.07.03-.07-.03-.11.1-.11-.03-.26-.07.03Zm-.15 8.49h.11l.14-.24-.25.08-.07.12.07.04Zm.15-4.24h.07l.03-.1-.07-.2.15-.25v-.19l-.08-.14-.07.07.04.33-.07.04-.18-.11-.04.15.1.18v.19l.12.03Zm-.25.56.03.04.25-.23h.07l-.07-.14-.28.22v.11Zm0-1.89-.04.11.1.04.3-.04.1-.18-.25-.19.1.15-.03.11-.21.04-.07-.11v.07Zm-.08 2.74L9.3 13l-.07.03-.18-.07.03.26h.07-.01Zm-.07-9.16.11.09.14-.04.07-.17-.07-.04-.28.04.03.12Zm.05 3.47L9 7.67l.08.15.16-.07-.04-.19-.08-.03ZM9.1 20.6l.12-.13-.04-.1-.2.14v.09h.12Zm0-.4.05-.12-.13-.15-.05.12.05.14h.09l-.01.01Zm.05-8.29.08-.22-.18.11-.08.37.18.08.04-.04-.04-.15v-.15ZM9.3 4.6l-.04-.08.04-.15-.15.04-.18.3.15.07.18-.04V4.6Zm-.22 1.77-.1.04-.04.16.14.04.11-.12-.04-.08-.07-.04Zm-.21 5.22.18.12.07-.04-.04-.16-.21-.04-.04.08.04.04ZM9 4.38l.04-.07h-.22l-.14.07.07.19.14.04.04-.19.07-.04Zm-.14.97h.07V5.2l-.1-.2-.19-.03.04.14-.04.11.22.12v.01ZM8.6 12.7v.19l.08.07v-.3l-.04-.03-.04.07Zm.03-2.46.18-.04.07-.16-.07-.04-.14.04-.07.16.03.04Zm-.03 6.12-.04.04v.18l.04.04.13-.19-.08-.07H8.6Zm.09 2.22-.17.12v.12h.09l.16-.24h-.08Zm.12-8.73.14-.07.22.07.1.19.15.04.04-.48-.11-.11-.1-.04-.08.07v.15l-.07.04-.25-.11-.15-.19.15-.04V9.2L9 9.12l.29.22.07-.08-.04-.33.15-.04.03.26.11.08v-.08l.25-.1.04-.08-.5-.26h-.22l-.07.11-.15.04v-.3l-.1-.18-.22-.04.25.52-.32-.04-.1.07.17.11.07.37-.07.23.11.25h.07-.01Zm.07-2.99-.07-.15-.29-.03-.07.25.07.04.15-.15.1.34-.2.14-.05.19h.08l.14-.15.1-.04.15.15.04-.07L9 7.34l.04-.1.21.1.07-.33-.25-.19-.18.11v-.07h-.01Zm-.57 2.77v.15l.07.04.22-.22-.25-.04-.04.07Zm.18-4.8-.07-.04-.11.09.36.13-.15-.09-.03-.09ZM8.37 7.6l-.09.11.05.19.08-.11.05-.23-.09.04Zm.1-.48-.15.09-.04.08.04.05.14-.05.07-.17h-.07.01Zm-.22 1.35.07.09h.14l.11-.09-.29-.13-.07.04.04.09Zm-.14-.46.04.07.2.11v-.18l-.08-.11-.16-.04v.15Zm-.15 10.86v.15l.09.11h.09v-.26L8 18.8l-.05.07h.01Zm.15-12.34-.15.04-.07.22.22-.08.07-.14-.07-.04Zm.42 13.2-.1-.12-.54-.07-.04.1.08.12.32-.07.07.1-.07.23.1.04.04-.04-.03-.08.14-.14.03-.08v.01Zm-.5-7.45-.07-.13h-.18l-.1.13h.28l.07.08v-.08Zm-.35-7.12-.22.09.04.08.1.05.15-.22h-.07Zm-.15 1.4.1-.1-.06-.2-.11-.06-.1.03v.08l.1.14-.04.12h.11v-.01Zm-.36-1.21.22.22v-.22l-.09-.12h-.13v.12ZM6.94.58 6.78.7l.04.04.16-.04.04-.13h-.08v.01Zm.09 8.2h-.1l-.15.08-.04.08.08.08.21-.08.07-.12-.07-.04Zm-.32-3.03.08.11.14-.14-.14-.12-.08.15Zm.18-1.3h-.11l-.1.08-.15.26.6-.3-.03-.03-.14.04-.07-.04v-.01Zm-.33.97-.07.18.29-.03.29-.15-.04-.11-.36.07-.1-.03v.07h-.01Zm-.02-.2.1-.12-.1-.12-.08.24h.08Zm.06-2.46-.04-.15-.21-.04v.08l.18.18.07-.07Zm-.31.5.08.04.05-.25h-.1l-.08.08.05.13Zm.2-1.1h-.14l-.1.1v.08h.17l.14-.13-.07-.04v-.01Zm-.4 3.2h.12l.1-.12v-.08l-.07-.04-.14.08-.07.13.07.04-.01-.01Zm1.84 12.15.21-.08.14-.22v-.4l-.07-.3-.03-.82-.07-.18-.33-1.74-.03-.63-.11-.22.07-.22-.21-.55v-.96l-.15-.37.04-.11-.1-.67-.08-.15-.14-.04-.25.9v.44l-.11.22-.07.03.07.19-.04.52-.14.55-.04.85-.14.56-.04.66-.18.78-.03.74-.14.74.03.33.18.15.5.07.07-.04h1.11l.08-.03ZM6 8.58l.1-.08-.18-.16-.05.24H6Zm.09-.97-.04-.08h-.18l-.03.08.25.09v-.09Zm-.11-1 .04-.12-.22-.04v.23l.09.07.09-.15v.01Zm0 12.93-.03-.04h-.22l.04.09.14.09.07-.05v-.09ZM5.87 9.2l-.17.04.05.13h.2l-.08-.17ZM5.7 20.3v.08l.22.15-.1-.26-.15-.04.03.07Zm.17-1.29-.08-.04-.12.08-.04.22.24-.04v-.22Zm-.3-15.74.03.18.1.19.33.03-.25-.4h-.22.01Zm.06 8.31.18-.18-.14-.11-.14.03.03.26h.07ZM5.5 8.71l.1.11.22.04.04-.11h-.07l-.15-.15-.07-.15-.1.18.03.08Zm.17-2.18-.04-.04h-.2l.08.18.16.04v-.18Zm-.2 2.98.07.04.1-.04.04-.09-.25-.08-.04.08.07.1.01-.01Zm.2-1.76-.28-.04-.07.13.04.09.14-.04.18.04.07-.13-.07-.05h-.01Zm.12-3.62L5.7 4l-.25.04-.18.26v.15l.22-.19.29-.03v-.11l.01.01Zm-.47 6.43-.18.15v.18l.07.04.18-.34-.07-.03Zm-.13 3.84.13-.11-.04-.22-.17.33h.08Zm-.01-.55.14-.08v-.07l-.21-.37-.15.04.11.03.07.11.04.26v.08Zm-.15-7.62.04.04.07-.04.1-.26-.28.23.07.03Zm.13-1.92-.2.08.04.16.16-.04.04-.16-.04-.04Zm.02 4.95-.22.23-.07.14.07.04.4-.04-.08-.37-.07-.07-.03.07ZM4.9 5.31l-.04.04.13.18.04-.22-.04-.08h-.1v.08h.01Zm-.04-3.8.07.05.21-.09-.28-.04v.08Zm.39-.28v-.08l-.22-.1-.17.23.21-.05.14.05.04-.05ZM5 1.8l-.1-.08-.08.04-.04.17.08.04.17-.09L5 1.8Zm-.36 5.25.13.1.04-.14-.04-.08-.13-.03v.15Zm.2 5.13-.03-.22-.2-.04.07.26.13.08.04-.08h-.01Zm.23-3.78-.21-.05-.11-.08v.08l-.18.09.54.04-.04-.08Zm-.14-1.54L5 6.75l-.1-.26-.19-.04-.1.12-.04.1.21.12.11-.15-.03.26.07-.04Zm-.04 9.46h-.14l-.22.22.36.04v-.26Zm-.32-3.84.03.16.08.04.07-.04.07-.16-.1-.04-.22.04h.07Zm.21-2 .22.04.14-.4v-.15l-.57.14-.07.15.21.04.1-.08-.1.23.07.03Zm-.32 4.18.07.04.15-.04.07.15.07-.04.04-.18-.22-.04-.1.07-.08-.03v.07Zm.5-1.3-.18.04v.19l-.21.1-.1.12.2-.04.08-.07.21-.04-.03-.1.03-.2Zm-.6-.59-.08.23h.1l.15-.11.04-.23-.22.11h.01Zm.14 3.1.32-.14.1-.15h-.06l-.15-.1-.14-.04v.14l-.07.15-.22.15-.03.11.07.11.14.04.14.15.04-.19-.18-.15v-.07h.04v-.01Zm-.05-2.04-.12-.13-.12.04.24.13v-.04Zm-.31-9.5.1.12.15-.13-.25-.08v.09ZM4.1 20.3l.13-.1v-.08l-.18-.07-.04.03v.22h.09Zm-.09-4.47.04-.07-.04-.19.32-.18.18-.19-.28.04-.29.22-.04.15.04.22h.07ZM4 6.57l-.09.1.18.15.04-.3-.13.05Zm.16 10.02.26.09-.08-.17-.1-.08h-.36v.16h.28Zm0-5.81-.07-.15-.14-.04-.14.15.35.11v-.07Zm-.43-.25-.13-.08-.12.13.2.04.05-.09Zm-.09-3.19-.16.16.04.08h.08l.13-.2-.09-.04Zm-.13 6.25h.08l.04-.15-.25-.22-.04.07.1.26-.03.07.1-.03Zm-.11 4.84h-.24l.16.17.08-.04v-.13Zm-.2-1.48.18.15.14-.04.07-.1h-.14v-.16l-.18-.07-.1.07v.08l.03.07Zm.17 6.8-.12-.3-.08-.03-.04.04.2.37.04-.08Zm-.2-7.69-.08.15.09.08.13-.19-.09-.07-.04.03h-.01Zm-.15 4.5.24.04-.16-.17-.08.04v.09Zm.13-2.8.09-.07v-.11l-.18-.07-.04.14.04.11h.09Zm-.13-1.73.21-.08.07-.22-.21.08-.14.22h.07Zm.21-2.55-.03-.08-.29-.03.18.25.07.04.04-.07.03-.11Zm-.4 3.62.05.11.16-.07.04-.15-.08-.04-.16.15h-.01Zm.19 8.8-.17-.15-.05.04.05.16.17.04v-.09Zm.1-6.4-.21-.07-.1.08-.04.16h.28l.11-.08-.03-.08-.01-.01Zm-.3 7.1.05-.11-.09-.11-.08.1.04.15.09-.03h-.01Zm-.04-3.66-.16.15v.1l.25-.18v-.1l-.09.03Zm-.34-2.92.08.07.18-.1.07-.2-.18-.33-.1.12v.3l-.05.03v.11Zm.1-5.73-.08.04-.12.2.16-.04.08-.16-.04-.04Zm-.2 3.55.04-.15-.13-.07-.1.14.1.12.08-.04h.01Zm-.15 7.58-.14-.15-.18-.04.1.19.22.14v-.14Zm-.25-.35.04-.04-.07-.13-.15.04-.07.13h.25Zm.18-6.42.15-.1.07-.16h-.07l-.15.15-.07-.22.04-.15-.15.04-.03.18.07.15-.07.3-.04.48-.25-.15-.1.07.17.11.04.19.14-.08.1-.14.12-.67h.03ZM14.3 26.3v.7l-.25.19-.57.07h-.57l-.08-.03h-.57l-.07.03-.14-.03-.11-.26-.07-.04-.07.22-.15.08h-1.07l-.22.03-.21-.03-.29-.15-.18-.19-.1-.3-.11-.99.03-.04-.07-.22.04-.4-.18-.38.14-.48H9.3l-.07-.55.07-.15-.15-.33-.1-.78-.11-.37-.18-.14-.82.07-.3-.07H6l-.43.07-.21.11-.22.26-.03.22.03.08v.4l-.1.37-.04.44-.14.63-.11 1.26-.29 1.3-.29.25-.28.08H.9l-.28.03-.25-.07-.36-.37.07-.19-.04-.44.15-.3.03-.66.22-1.15.32-1.47-.03-.15.25-1.26.03-.52.22-1.4.21-.55-.03-.6.03-.14.1-.11v-.37l.22-1.04.11-.89.14-.37-.03-.14.1-.82.11-.4.22-.04.1-.15-.07-.04-.25.12.15-.82.1-.3-.03-.07.18-.22-.1-.33.2-1.22L3 9l.17-.59-.03-.48.07-.1.21-.04-.03-.08-.15.04.04-.3.1-.3v-.22l.19-.18-.11-.04-.04-.07.29-1.4.03-.6.11-.3v-.29l.04-.07.28-1.81.22-.63-.1-.15.14-.52.14-.1.18.03V.61L4.7.58 4.77.5l.47-.03.07.03h.57l.08-.03h1.1l.08-.04.21.04.11.14.22-.25.32.1h.64l.5-.07.36.08.29.22.21.37.22 1.07.07.85.07.3.04.55.03.04v.18l-.07.15.22.15v.18l.28 1.74-.07.26.18.26-.1.3.2.07.04.07-.03.15.14 1.18.1.3.05.59h-.08l-.07-.11h-.07v.1l.07.12.15.07.07.11-.11.11.18.08.1.78-.17.07.1.11.11.04.07.1.04.67.18.63.1.7-.35.26.14.04.25-.04.07.19-.03.22.1.3.04.59.1.33.22 1.18-.03.22.1.19.04.52.07.22-.03.03v.34l.14.33.04.33.1.37-.03.15.18.92.1.22-.03.3.21.92.04.7.07.15.04.45.14.3v.44l.1.26v.44l.15 1.03.18.6-.04.18.15.3v.22l.03.07Zm30.12-11.28.16.04.04-.09-.16-.09-.08.05.04.09Zm-7.49-2.97-.03-.08-.18-.04-.18.12.4.13v-.13h-.01Zm-.29.47.08-.03.03-.15-.07-.11-.18.15-.03.14h.17Zm-.27 1.1.16-.16-.04-.08-.08.04-.12.2h.08Zm-.8-.87.13-.11.04-.15-.2-.08-.04.34h.08-.01Zm.07 1v-.15l-.18-.15-.21.04-.22-.04.1.18.15.04.15-.18.18.33.03-.08v.01Zm8.42 2.96-.04-.08-.18-.04-.18.12.4.12v-.12Zm-.29.47.07-.04.04-.15-.07-.1-.18.14-.04.15h.18Zm-.28 1.09.16-.16-.04-.08-.08.04-.12.2h.08Zm-.3-2.02.08-.15-.17-.07-.05.15.1.1.03-.03h.01Zm-.49 1.15.13-.11.04-.15-.2-.07-.05.33h.08Zm.07 1v-.15l-.18-.15-.22.04-.21-.04.1.19.15.03.14-.18.18.33.04-.07Zm-.52.8.09-.25-.17.04-.05.2h.13v.01Zm.02-1.7.07.08v.11l-.11.08-.14-.04v.07l-.15.19.22.04.21-.19.08-.37-.11-.18-.07-.04-.08.22.08.04v-.01Zm-.58 1.75.22-.37h.1l-.07-.19-.28.19-.07.33.03.07.07-.03Zm.29-1 .04-.08-.04-.07-.14.07-.04-.18h-.21l-.11.11.28.11.08.11.14-.07Zm-1.08.92.33.11v-.07l-.11-.15-.18-.04-.1.15h.06Zm-.03.45v-.12l-.29-.03v.07l.15.08.03.07-.29.11-.07.07.15.04.28-.18.04-.11Zm-1.11.7.21.1-.07-.14-.25-.07-.21-.15.1.26h.22Zm-.83-1.48.11-.04.18-.26-.25.11-.07.15.03.04Zm.3.63-.12-.26-.1-.04-.15.11.36.41v-.22h.01Zm-.3.4-.1.13v.08l.07.04.18-.25h-.15Zm-.28-.96.1-.3-.17-.1-.11.18.03.3.15.07v-.15Zm.1-14.53-.1-.1-.25-.08.07.15.29.1v-.07h-.01Zm0 15.09-.07-.15-.28-.26-.15.4.22.04v-.25l.32.25-.03-.03h-.01Zm3.78-15.53-.1-.04-.11-.22-.18-.04-.43.3.04.07.14-.04.29-.22.07.04-.22.22v.11l.07-.07h.33L42.5 4l.03-.07v.01Zm1.9 1.1.03.08.22.04.07-.17-.29-.04-.03.08v.01Zm-.38 1.6.14-.17-.14.04-.6-.09.24.22h.36Zm-.73-2.25v.11l.08.11.1-.18-.14-.11-.04.07Zm-.1-1.18-.05.17.25-.12-.12-.13-.09.08h.01Zm-.37 1.34.07.13.33-.13-.36-.09-.04.1v-.01Zm.08-.86-.05-.04-.17.04.04.15.18.07v-.22Zm-1.44-1.62-.22.08-.14.18h.14l.22-.1.07-.12-.07-.04Zm-.57 2.44.04.08.17.08-.04-.16-.13-.08-.04.08Zm-5.46 17.76-.1-.03-.11-.23-.18-.03-.43.3.04.07.14-.04.29-.22.07.03-.22.23v.1l.07-.07h.33l.07-.03.03-.08ZM38.05 4.4l-.08.12.04.08h.08l.12-.12-.12-.12-.04.04Zm2.07 12.93.35-.03.33-.19.28-.07.3-.26.38-.96v-.89l.04-.07.05-2.28.11-.76-.05-3.4-.1-.62v-.67l-.12-.19V6.6l-.1-.22-.22-.78-.18-.3-.32-.29-.29-.18-.28-.08-.43-.03-.3-.08-.46-.03-.5.07-.18-.15-.1.15-.3.07-.06.08v1.74l-.04.07v.92l.04.08v.51l-.05 2 .09 1.27-.08 2.36.04.14v.96l-.04.08v.37l.04.04v.51l-.04.08.07.3-.03.73.28.33.5.04.08-.04h.36l.07.04H40l.1-.04.02.01Zm-2.22 1.52.03.15H38l.15-.11h.14v-.08l-.07-.07h-.18l-.07-.15-.15.26h.08Zm-.33-1.88.07.12.18.04-.03-.16-.22-.08v.08ZM37.21 3.5v.1l-.14.27.07.03.18-.1-.07-.3-.07-.08.03.08Zm.04 15.78.14-.14-.07-.04-.43.15.15.14.21-.1v-.01Zm-.46 3.86.03.08.22.05.07-.18-.29-.04-.03.09Zm-.08-4.22.04.09.21-.09-.25-.08v.08Zm.18 7.28-.25-.12.04.16.14.08.07-.04v-.08Zm-.28-6.92.07.22.18.04-.07-.22-.15-.07-.03.03Zm.42-11.62-.36.08h.4l-.04-.08Zm-.43 1.16-.18-.1-.18.14-.04.09.07-.05.22.05.14-.05-.03-.08Zm-.54-.2-.22-.08-.1.3v.15l.14-.08.25-.25-.07-.04Zm-.26-.4-.04-.15-.09-.04-.04.16.13.08.04-.04v-.01Zm-.28.5-.03-.03-.08.08-.14.37.25-.04.04-.26-.04-.11v-.01Zm9.8 3.13-.36.08h.4l-.04-.08Zm-8.66 5.62.12-.1-.08-.08-.13.03-.04.23.13-.08Zm-.12 6.32-.04.22.09.04.04-.26-.04-.04-.05.04Zm.53-1.34.14-.17-.14.04-.6-.08.24.21h.36Zm-.64-3.42.03.1h.15l.03-.14-.07-.04-.18.04.04.04Zm-.11-.9.21.04.11-.3-.14-.03.03-.1-.21-.2v.6-.01Zm.1-4.03.22-.03.17-.26-.39-.07-.07.33.07.03Zm-.16-8.45h.12l.04-.08h-.16l-.08.13.08-.05ZM44.89 13l-.18-.08-.18.13-.04.08.08-.04.21.04.14-.04-.03-.09Zm-8.43-7.06-.36-.11.04.14.25.11.14-.03.08-.11h-.15Zm-.25-2.37-.14.08-.04.08.15.08.1-.24h-.07Zm8.04 5.65.04-.03v-.45h-.08l-.12.11-.04.3.12.07h.08Zm-8.05 15.5.04-.04v-.45h-.08l-.12.11-.04.3.12.07h.08v.01Zm-.2-3.74.1.11.26-.11.17.04-.07-.15-.07-.04-.4.08v.07H36Zm.14-16-.21.04.04.16.13.04.04-.08v-.16Zm-.17 11.05-.12.19.04.14.08-.03.13-.23-.13-.14v.07ZM35.82 4.5l.07.1h.32l.29.04.18-.03.1-.08v-.07l-.03-.04-.36-.1-.14.03-.04.18-.36-.07-.03.04Zm.04 21.58.12-.11.04-.15h-.08l-.12.11-.04.11v.04h.08Zm-.08-9.38v.18l.16.11.08-.04-.2-.33-.04.08Zm-.1 5.8v.1l.08.12.09-.19-.13-.1-.05.07h.01ZM44.6 5.82l-.22-.07-.1.3v.14l.14-.07.25-.26-.07-.04ZM35.69 19.4l.04-.03v-.26l.05-.04h-.09l-.09.08v.25h.09Zm8.4-6.97-.04-.16-.09-.05-.04.17.13.08.04-.04ZM35.8 24.6l-.15.08-.14.14.03.08.14.03.26-.07-.08-.22-.07-.04h.01Zm-.21-.3.16-.03v-.15l-.16-.07-.08.1.08.16v-.01Zm-.26 1.56.21-.11-.07-.15-.18.07-.04.15.08.04Zm-.11-3.2.07.13.32-.13-.36-.1-.03.1Zm8.6-9.74-.03-.04-.07.07-.15.37.25-.03.04-.26-.04-.11Zm-8.64 13.17.22.13v-.13l.4-.04-.65-.04.03.08Zm.11-4.3-.04-.03-.17.03.04.15.17.07v-.22Zm1.81-.49-.07-.19-.14-.03-.15.03-.03.15.14-.03.1.03.12.11.03-.07Zm-1.99 2.53.07-.04v-.15l-.14-.07-.1.1.1.16h.07Zm.04-5.35-.13-.16-.09.12.05.12.17-.08Zm-.29 7.78.22-.22-.33.05-.03.17h.14Zm-.13-8.8h.09v-.09l-.13-.16-.04.2.08.05Zm.2 8-.28-.08-.08.13.4.04-.04-.08v-.01Zm-.07-4.6-.04-.03-.28.11.07.19.14.03.04-.18.07-.11v-.01Zm.14-2.72.08-.04.03-.11-.1-.07-.19.1-.1-.1-.18-.04-.07.11.21.18.25.04.07-.07Zm-.18 6.1-.03-.08-.14-.08-.11.04-.1.13.38.08v-.09Zm-.57-7.95-.07.3h.07l.29-.23v-.1l-.07-.12-.22.04v.11Zm.25 6.54-.21.07-.15.19h.15l.21-.11.07-.12-.07-.03Zm-.36-4.29-.07.07.07.15.11.08.07-.04.04-.15-.1-.07-.12-.04Zm-.02.45h.08l.05-.08-.1-.44-.08.48.05.04Zm12.42-3.92-.04.15v.92l-.1.37-.04.52-.07.3-.43 1.1-.07.04-.65 1.15-.43.33-.36.37h-.25l-.14.22-.25.18-1.54.56h-.4l-.25.07-.82.04-.14.07-.15-.03h-.57l-.07.03h-.29l-.07.04h-.57l-.07-.04h-.4l-.29.11-.14.23v.3l.07.28v.45l-.1.33v1.04l.03.07v.4l.04.08v1.37l-.04.3.04.33-.18.33-.18.1h-.22l-.14.12-.75-.07-.07.03H36l-.07-.03-.65-.04-.07.04h-.43l-.07.03h-.65l-.57-.18-.18-.19-.14-.44-.04-.7.07-.19v-.88l.04-.08-.07-.22v-.92l.03-.08v-.55l-.03-.08v-.3l.07-.1-.04-.15v-2.51l.04-.77-.1-.69.06-.46.07-.4-.1-.12v-.3l.03-.07v-.96l-.03-.07v-.6l.03-.07v-.37l.07-.33-.07-.52.05-2.8-.03-.51v-.45l-.07-.37.05-2.86V5.35l-.03-.08.07-1-.04-.07V3.17l-.03-.08v-.81l.03-.08v-.55l.04-.07V.95l.1-.26.11-.11.33-.15.03.04h.36l.07-.04h.86l.07.04h.58l.07.03h1.5l.58-.07.35.07h2.87l.64.08.61.15.61.22.9.44.32.3.43.26.29.3.43.62.07.04v.07l.18.33.07.04.18.26.21.59.04.3.1.25.04.56.15.3.07.66-.07.33.1.33-.04 2.75.07 1.45.07.4.03.75v.3l-.04.07-.05 1.94.04.07v.37l-.04.04h.01Zm-18.11-.05.16.04.04-.09-.16-.09-.08.05.04.09Zm-7.5-2.97-.03-.08-.18-.04-.18.12.4.13v-.13h-.01Zm-.28.47.07-.03.04-.15-.07-.11-.18.15-.04.14h.18Zm-.28 1.1.17-.16-.04-.08-.09.04-.12.2h.08Zm-.78-.87.12-.11.04-.15-.2-.08-.04.34h.08Zm.06 1v-.15l-.18-.15-.22.04-.21-.04.1.18.15.04.14-.18.18.33.04-.08v.01Zm8.42 2.96-.04-.08-.18-.04-.18.12.4.12v-.12Zm-.3.47.08-.04.04-.15-.08-.1-.17.14-.04.15h.18-.01Zm-.58-.93.09-.15-.17-.07-.05.15.09.1.04-.03Zm-.48 1.15.12-.11.04-.15-.2-.07-.04.33h.08Zm.07 1v-.15l-.18-.15-.22.04-.21-.04.1.19.15.03.14-.18.18.33.04-.07Zm-.52.8.09-.25-.18.04-.04.2h.13v.01Zm.01-1.7.08.08v.11l-.11.08-.14-.04v.07l-.15.19.22.04.21-.19.07-.37-.1-.18-.08-.04-.07.22.07.04v-.01Zm-.57 1.75.22-.37h.1l-.07-.19-.28.19-.08.33.04.07.07-.03Zm.29-1 .03-.08-.03-.07-.15.07-.03-.18h-.22l-.1.11.28.11.07.11.15-.07Zm-1.08.92.33.11v-.07l-.11-.15-.18-.04-.1.15h.06Zm-.03.45v-.12l-.29-.03v.07l.14.08.04.07-.29.11-.07.07.14.04.3-.18.03-.11Zm-1.11.7.21.1-.07-.14-.25-.07-.22-.15.11.26h.22Zm-.83-1.48.11-.04.18-.26-.25.11-.07.15.03.04Zm.29.63-.1-.26-.12-.04-.14.11.36.41v-.22Zm-.29.4-.1.13v.08l.07.04.18-.25h-.15Zm-.28-.96.1-.3-.18-.1-.1.18.03.3.15.07v-.15Zm.1-14.53-.1-.1-.25-.08.07.15.28.1v-.07Zm0 15.09-.07-.15-.28-.26-.15.4.22.04v-.25l.32.25-.04-.03Zm3.78-15.53-.1-.04-.11-.22-.18-.04-.43.3.03.07.15-.04.28-.22.07.04-.21.22v.11l.07-.07h.32l.08-.04.03-.07Zm1.9 1.1.03.08.22.04.07-.17-.29-.04-.03.08v.01Zm-.38 1.6.14-.17-.14.04-.61-.09.25.22h.36Zm-.73-2.25v.11l.08.11.09-.18-.13-.11-.04.07Zm-.1-1.18-.05.17.24-.12-.12-.13-.08.08h.01Zm-.37 1.34.07.13.32-.13-.35-.09-.04.1v-.01Zm.07-.86-.04-.04-.17.04.04.15.17.07v-.22ZM25.5 2.07l-.22.08-.14.18h.14l.22-.1.07-.12-.07-.04Zm-.57 2.44.04.08.17.08-.04-.16-.13-.08-.04.08Zm-5.46 17.76-.1-.03-.11-.23-.18-.03-.43.3.03.07.15-.04.28-.22.08.03-.22.23v.1l.07-.07h.32l.08-.03.03-.08ZM22.06 4.4l-.08.12.04.08h.08l.12-.12-.12-.12-.04.04Zm2.06 12.93.36-.03.33-.19.28-.07.29-.26.4-.96v-.89l.03-.07.05-2.28.11-.76-.05-3.4-.11-.62v-.67l-.1-.19V6.6l-.12-.22-.21-.78-.18-.3-.32-.29-.29-.18-.29-.08-.43-.03-.28-.08-.47-.03-.5.07-.18-.15-.1.15-.3.07-.06.08v1.74l-.04.07v.92l.04.08v.51l-.05 2 .09 1.27-.08 2.36.04.14v.96l-.04.08v.37l.04.04v.51l-.04.08.07.3-.03.73.28.33.5.04.08-.04h.35l.08.04h.75l.1-.04v.01Zm-2.22 1.52.04.15h.07l.14-.11h.15v-.08l-.07-.07h-.18l-.07-.15-.15.26h.07Zm-.32-1.88.07.12.18.04-.03-.16-.22-.08v.08ZM21.22 3.5v.1l-.14.27.07.03.18-.1-.07-.3-.07-.08.03.08Zm.04 15.78.14-.14-.07-.04-.43.15.14.14.22-.1v-.01Zm-.47 3.86.04.08.21.05.08-.18-.3-.04-.03.09Zm-.07-4.22.04.09.21-.09-.25-.08v.08Zm.18 7.28-.25-.12.04.16.14.08.07-.04v-.08Zm-.29-6.92.08.22.17.04-.07-.22-.14-.07-.04.03Zm.42-11.62-.35.08h.39l-.04-.08Zm-.43 1.16-.17-.1-.18.14-.04.09.07-.05.22.05.14-.05-.04-.08Zm-.53-.2-.22-.08-.1.3v.15l.14-.08.25-.25-.07-.04Zm-.26-.4-.04-.15-.09-.04-.04.16.13.08.04-.04v-.01Zm-.28.5-.04-.03-.07.08-.14.37.25-.04.04-.26-.04-.11v-.01Zm9.8 3.13-.36.08h.4l-.04-.08Zm-8.67 5.62.12-.1-.08-.08-.12.03-.04.23.12-.08Zm-.11 6.32-.04.22.08.04.05-.26-.05-.04-.04.04Zm.53-1.34.14-.17-.14.04-.6-.08.24.21h.36Zm-.65-3.42.04.1h.14l.04-.14-.07-.04-.18.04.03.04Zm-.1-.9.21.04.11-.3-.14-.03.03-.1-.21-.2v.6-.01Zm.1-4.03.21-.03.18-.26-.4-.07-.06.33.07.03Zm-.17-8.45h.13l.04-.08h-.17l-.08.13.08-.05ZM28.9 13l-.18-.08-.18.13-.04.08.07-.04.22.04.14-.04-.03-.09Zm-8.43-7.06-.36-.11.04.14.25.11.14-.03.07-.11h-.14Zm-.25-2.37-.14.08-.04.08.14.08.11-.24h-.07Zm8.04 5.65.04-.03v-.45h-.08l-.12.11-.04.3.12.07h.08Zm-8.05 15.5.04-.04v-.45h-.08l-.12.11-.04.3.12.07h.08v.01Zm-.2-3.74.1.11.25-.11.18.04-.07-.15-.07-.04-.4.08v.07h.01Zm.14-16-.22.04.05.16.13.04.04-.08v-.16Zm-.17 11.05-.12.19.04.14.08-.03.12-.23-.12-.14v.07ZM19.83 4.5l.07.1h.32l.29.04.18-.03.1-.08v-.07l-.03-.04-.36-.1-.14.03-.04.18-.36-.07-.03.04Zm.04 21.58.12-.11.04-.15h-.08l-.12.11-.04.11v.04h.08Zm-.08-9.38v.18l.16.11.08-.04-.2-.33-.04.08Zm-.1 5.8v.1l.08.12.09-.19-.13-.1-.05.07h.01ZM28.6 5.82l-.21-.07-.1.3v.14l.13-.07.25-.26-.07-.04ZM19.7 19.4l.04-.03v-.26l.04-.04h-.08l-.09.08v.25h.09Zm8.4-6.97-.04-.16-.09-.05-.04.17.13.08.04-.04ZM19.8 24.6l-.14.08-.15.14.04.08.14.03.25-.07-.07-.22-.07-.04Zm-.2-.3.15-.03v-.15l-.16-.07-.08.1.08.16.01-.01Zm-.27 1.56.22-.11-.07-.15-.18.07-.04.15.07.04Zm-.1-3.2.07.13.32-.13-.36-.1-.03.1Zm8.6-9.74-.03-.04-.08.07-.14.37.25-.03.04-.26-.04-.11Zm-8.64 13.17.22.13v-.13l.39-.04-.64-.04.03.08Zm.11-4.3-.04-.03-.18.03.05.15.17.07v-.22Zm1.81-.49-.07-.19-.14-.03-.15.03-.03.15.14-.03.1.03.11.11.04-.07Zm-2 2.53.08-.04v-.15l-.14-.07-.11.1.1.16h.08-.01Zm.05-5.35-.13-.16-.09.12.04.12.18-.08Zm-.3 7.78.22-.22-.32.05-.03.17h.14-.01Zm-.12-8.8h.09v-.09l-.13-.16-.05.2.1.05h-.01Zm.2 8-.29-.08-.07.13.4.04-.04-.08v-.01Zm-.07-4.6-.04-.03-.28.11.07.19.14.03.04-.18.07-.11v-.01Zm-.19 4.22h-.17l-.04.18h.17l.08-.13-.04-.05Zm.33-6.94.07-.04.04-.11-.1-.07-.19.1-.1-.1-.18-.04-.08.11.22.18.25.04.07-.07Zm-.18 6.1-.03-.08-.15-.08-.1.04-.11.13.4.08v-.08l-.01-.01Zm-.56-6.34.16-.17-.16.04-.08.13h.08Zm-.01-1.61-.07.3h.07l.29-.23v-.1l-.08-.12-.21.04v.11Zm.25 6.54-.21.07-.15.19h.15l.21-.11.07-.12-.07-.03Zm-.36-4.29-.07.07.07.15.11.08.07-.04.04-.15-.11-.07-.1-.04h-.01Zm-.03.45h.1l.03-.08-.08-.44-.09.48.04.04Zm12.43-3.92-.04.15v.92l-.1.37-.04.52-.07.3-.43 1.1-.07.04-.65 1.15-.43.33-.36.37h-.25l-.14.22-.25.18-1.54.56h-.4l-.25.07-.82.04-.15.07-.14-.03h-.57l-.07.03h-.29l-.07.04h-.57l-.08-.04h-.4l-.28.11-.14.23v.3l.07.28v.45l-.1.33v1.04l.03.07v.4l.04.08v1.37l-.04.3.04.33-.18.33-.18.1h-.22l-.14.12-.75-.07-.08.03h-.42l-.08-.03-.64-.04-.07.04h-.43l-.07.03h-.65l-.57-.18-.18-.19-.15-.44-.03-.7.07-.19v-.88l.04-.08-.08-.22v-.92l.04-.08v-.55l-.04-.08v-.3l.08-.1-.04-.15v-2.51l.04-.77-.1-.69.06-.46.07-.4-.1-.12v-.3l.03-.07v-.96l-.04-.07v-.6l.04-.07v-.37l.07-.33-.07-.52.05-2.8-.03-.51v-.45l-.07-.37.05-2.86V5.35l-.04-.08.08-1-.04-.07V3.17l-.04-.08v-.81l.04-.08v-.55l.04-.07V.95l.1-.26.11-.11.32-.15.04.04h.36l.07-.04h.86l.07.04h.57l.08.03h1.5l.57-.07.36.07h2.87l.64.08.61.15.61.22.9.44.32.3.43.26.29.3.43.62.07.04v.07l.18.33.07.04.18.26.21.59.04.3.1.25.04.56.14.3.08.66-.08.33.11.33-.04 2.75.07 1.45.06.4.03.75v.3l-.03.07-.05 1.94.03.07v.37l-.03.04Z" style="fill:#232a29;fill-rule:nonzero" transform="translate(20.663 59.1)"/>
    <path d="m56.08 8.6.06-.16-.12-.02-.12.16.03.09.15-.07Zm-.7 3.36-.05.07.01.23.14-.06-.01-.23h-.09v-.01Zm-.55 1 .03-.23-.19.06-.02.18.08.05.1-.07v.01Zm.57-7.98.07-.22-.14.06-.02.19.09-.03Zm-2.32 22.2.15-.02.08-.13-.07-.05-.15.03-.08.12.07.05Zm1.77-17.95.1.01.1-.2-.15.02-.12.12.07.05Zm-.6 4.9-.05.07.02.15.1.01.1-.14-.06-.23h-.09l-.02.14Zm-.07.62.15.02.05-.17-.15-.02-.12.12.07.05Zm.69-7.54L55 7.2l.09-.1.03-.3-.23.05-.03.37.01-.01Zm-.28 4.52.23.25.05-.07-.13-.17.05-.14h-.07l-.06-.13-.1-.05-.13.1h-.07l-.02.18.03.04.19-.02h.03v.01Zm-.03-1.85.03.08.14.05.15-.05.01-.12-.35-.07-.01.07.03.04Zm-.23 2.65.08-.1-.07-.32-.1-.08-.1.29.01.19.18.02Zm.5-4.3-.22-.26-.06.22.27.18.02-.15-.01.01Zm-.06-.5.06-.22-.11-.09-.1.07-.03.3.07.11.17-.02-.06-.16v.01ZM53.9 16l-.07-.08-.1-.01-.08.06v.27l.11.05-.02-.16.15-.02v-.1l.01-.01Zm-.86 8.17-.03-.12-.2-.17.02.2.12.15.1-.06h-.01Zm-.1 1.83-.37.04.28.13.09-.17Zm1.53-18.73.14-.06-.02-.2-.12-.08-.08.33.08.01Zm-1.84 17.94.1-.04.06-.2-.18.02-.06.2.08.02Zm.7-10.03.15.06.08-.08-.28-.17.06.19h-.01Zm.31-.9h-.32l.13.13.15.28-.12.1.1.12.12-.06.26-.46-.24-.14-.08.03Zm.2-1.55.06-.22-.17-.13-.11-.02-.16.1-.02.19.15-.03.16.21.09-.1Zm-.15-2.13.2-.16-.26-.03-.01.18h.07v.01Zm.9-5.68-.13-.17-.21-.06-.05.11.24.18.14.01v-.07h.01Zm.14-1.38-.2-.13-.04-.08-.2-.13-.01.07.22.32v.3l.29.11.15-.02.06-.3-.1-.15-.14.05-.03-.04ZM53.18 13.8l.1.13h.11l.01-.1-.06-.16-.1-.05-.08.1.02.08Zm.46-2.32-.25-.1v.08l.1.12.1.05.12-.1-.07-.05ZM54.35 4l-.11.06-.14.3.45-.11-.1-.16.01-.08h-.1L54.35 4Zm-.3 3.05.07-.03.05-.15-.06-.11-.2-.14-.15.02v.08l.13.09-.02.18.1.05h.08v.01ZM53 14.9l.15-.03-.05-.18-.11-.02-.12.12.13.1v.01Zm.6-6.4-.1.03-.1.18.09.27.2-.24-.05-.2-.03-.04h-.01Zm.25-2.37v-.11l-.13-.06-.24.17.29.07.08-.07Zm-.28-.85.03.08-.01-.24-.02.16Zm-.01.96-.09.07-.07.33h.07l.1-.1.07-.29h-.08v-.01Zm-.81 7.37.1-.07v-.08l-.08-.09-.11.23.09.01Zm-.3.25.07.16.13.01-.03-.15-.15-.2-.02.18Zm.73-4.69-.13-.16-.07-.01-.05.07.28.18-.03-.08Zm-.27-.53.14.06.07-.08-.13-.1-.11.02.03.1Zm1.84 15.65-.1.9.04.03-.09.9-.1.25-.04.74-.1.26-.2.16-.24-.03-.04-.04.05-.14-.02-.08-.08.07-.06.22-.29-.03-.08.03-1.18-.13-.57-.14-.55.02-.64-.18-.2-.25.04-.3.04-.07.05-.44-.03-.08.03-.67.09-.14.07-.71-.06-.2.13-.88-.03-.08.06-.6.18-.31.2-.17.3-.04.9.1.2.09.3-.04 1.08.11.07.05.68.07.2.17.06.12.02.9.13.13-.17.28-.05.15Zm2.38-21.8v.3l-.13.6-.1.92-.04.07-.05.52-.04.07-.15 1.42-.04.07-.04.37-.1.21-.1 1.08.03.08-.13.21-.05.52-.05.07-.05.48-.04.08-.1 1.04-.09.1.06.16-.05.52-.1.29.02.15-.1.32-.07.6-.04.07-.07.67.03.08-.11.36-.06.63-.05.07-.07.67.03.08-.05.52-.23.88-.03.67-.16.43-.12 1.27-.2.43-.41.18-.22.01-1.44-.15-.6-.25-.18-.4v-.23l.1-1.15-.06-.38.12-1.26-.02-.08.15-1.53-.03-.07.07-.67-.03-.08.07-.74-.02-.08.04-.45-.07-.38.1-1 .14-.3-.14-.46.13-.17-.07-.35.13-1.3-.05-.23V7.6l.05-.07.06-.63-.03-.08.1-.85-.1-.24v-.22l.16-.59-.05-.6.1-.18-.13-.2.13-.29-.01-.53.04-.07.03-.3-.09-.23.14-1.34-.03-.07.03-.3.1-.29.16-.13.26-.09.37-.03 1.01.1.2.1.62.03.07.05.19-.06.46.13.33-.04.2.13.2-.05.28.1.13.13.02.15.06.08h.08l-.1.9-.14.4.03.08v-.01Z" style="fill:#b12447;fill-rule:nonzero" transform="translate(20.663 59.1)"/>
    <path d="m14.76 11.25-.1-.1v-.08l-.05.02.03.22.15-.02-.03-.04Zm-1.2 3.96-.06.02v.32l.05-.27v-.07h.01Zm-.33-2.93v.04l.05.02.03-.24-.03.15-.05.03Zm-2.67-1.44-.15-.04-.05.1.03.07.1.07.11-.2h-.04Zm-.18-.59.15-.13.04-.08v-.13l-.04-.06v.04l-.2.17.01.21.04-.02Zm-.07 1.62-.07-.23.07.27v-.04Zm-.3-1.64.08.13.04.02.02-.05-.19-.29-.12.02-.06.04.1.07v.04l-.04.02v.06l.12-.06h.05ZM9.5 10l-.07.06-.02.13.25-.1.06-.07v-.06l-.06-.05-.04.02v.11L9.55 10H9.5Zm-.15 1.12-.15-.07v.15l.06.08.17-.08.04-.08h-.12ZM8.8 9.61l.13.15.1.02.13-.02-.02-.1-.06-.05-.28-.05v.05Zm.02 1.84.1.12.03-.1-.15-.19-.08.08.1.09Zm.03-.69.03-.04-.03-.15-.02.08H8.7l.05.16.1-.05Zm-.09.98.04.04.05-.02-.09-.14-.02-.1-.15-.05-.04.06-.04-.08-.04.04v.04l.12.09.05.08-.07.1.07.05.08-.09.04-.02ZM8.6 9.88l-.06-.07-.02.05-.12.1V10l.04-.03h.2l.05-.1H8.6v.01Zm-.48.75.08-.13.02-.17-.18-.02-.02.07.07.12-.05.13h.08Zm-.4 5.13-.08-.06v-.07l-.04.02v.07l.08.17-.02.02h-.12l-.02.02.18.17.21-.11.03-.13-.07-.04-.04.1-.06.03.04-.2h-.08l-.01.01Zm-.16-3.8-.08.14.03.04.12-.06V12l-.1-.26h-.07l-.03.07.15.12-.02.02v.01Zm-.06-1.5-.1-.08-.07.02-.02.17.07.06.17-.15v-.04l-.05.02Zm-.18-.75.02-.2-.2.2.05.05h.1l.03-.05Zm-.12 6.7-.16.15-.07.15.17-.13.08-.17H7.2Zm-.23-.57.15-.06.06.19.13-.04.08-.07-.15-.2-.06.04-.2.04-.07.08.02.04.04-.02Zm.1-5.43-.24-.18v.18l.24.05v-.05Zm-.2-.43.06-.02.07-.28-.05.02-.07.1v.1l-.05.08h.05-.01Zm-.23 1.79.05.06-.05.13.12-.02-.02-.17-.1-.05v.05Zm-.38-1.44-.19-.08-.02.05h.04l.15.15.08-.05.02-.07h-.08Zm-.2 1.58-.05.06v.15l.05.06h.05l.05-.18-.05-.09h-.05ZM5.69 9.8l-.08.15.03.05.12-.05.03-.15-.05-.04h-.05v.04Zm.08.8H5.7l-.17.22.24-.15v-.07Zm-.16-.21.09.08.1.02.02-.08.06-.02.09.06H6l-.1-.13-.17-.12-.02.04-.2.08-.01.07h.11Zm-.23 6.07.1.07.05-.05h.04l-.02-.1-.17-.02-.06.07v.05l.06-.02Zm.1-4.62h-.1l-.1.12.2-.05.04-.05-.05-.02h.01Zm-.2-1.23-.13-.12-.02.1.08.14h.09l.02-.07.08.02.09-.02-.09-.1h-.08l-.04.05Zm-.46-.35.03.04-.05.13.1-.02v.06l.1-.02.02-.06-.1-.02v-.13l-.1-.02v.04Zm.4 1.5-.17-.07-.07-.1-.35.14.08.04.2-.08.03.13.13.02.12-.07h.07l-.05-.02.01.01Zm-.54 4.33-.03-.03-.19.03.03.1.07.02.05-.05.1-.02-.03-.05Zm-.43.53.1-.1.09.08v-.08l.04-.1-.02-.04-.12.02-.17.12v.1h.08Zm-.27-5.6-.06.15.02.05.04-.07.08-.04.1-.11-.03-.03-.09.03-.06-.03v.05Zm.06-.69L4 10.27l-.06.03-.15.15.02.05.15-.13.08.03v-.08.01Zm-.16.43.02-.04.06.07.06.02.02-.07-.02-.04-.12-.06.02-.09-.09.03-.06.14.06.07.05-.03Zm-.09.78-.02.02.06.09.07.02.04-.06.02-.11-.08-.02v-.06l.08-.02.02.04h.04l.09-.21-.07.06-.27.04-.06.04.02.09.06.06v.02Zm-.37 4.78.02.05.12.08.13-.05.02-.05h-.19l-.1-.08v.05Zm.18-4.59-.05.03-.13-.03-.03.05.03.2.1-.05.08-.2Zm-.33-.81-.1-.05v.1l.12.13.15-.18v-.05h-.07l-.08.05h-.02Zm-.29 1.13.03-.02-.05-.14-.15-.05v.07l.12.1v.07l.05-.03Zm-.17-1.82.02.1.08.05.1-.03.05-.07-.23-.1-.02.05Zm.04 2.11.07-.04.03-.19-.08-.02-.14-.1-.03.04.1.1v.21h.05Zm2.85-.31-.02.08.06.15-.32.02-.04-.02-.46-.02-.04.02h-.17l-.04.02h-.23l-.04-.02h-.34l.05-.1h.14l-.02-.1-.15-.08-.12.03.06.2-.06.07H3.6l-.31.1-.17.13-.25.34-.06.2-.02.34.02.05-.15.08.15.06v.1l.19.4.31.24.15.06.2.04.32.02.15.07.16-.04h.78l.04.12.06.02-.02-.1.04-.07.3.03.06.04.08-.04.23-.05.15.07.38-.02.04-.03.27.05.63-.05.04.03h.84l.04.02h.38l.02-.02H9l.02.08h.04l.07-.06.08-.02.38.02.04-.02h2.49l.08.02.44-.09.38-.17.02-.04.1-.06.11-.15.13-.27.04-.3-.02-.3-.2-.5-.1-.06-.06-.19-.08.07-.21-.11-.46-.04-.04-.04h-.7l-.06.04-.12.02-.04-.02-.5-.02-.05.04h-.73l-.25-.1-.09.02v-.05l.1-.1.03-.09-.21.21-.15.07-.5-.02-.08.02.04-.09-.23.07-.08-.05-.26.03-.29.06-.12-.06-.2.06-.08-.04-.46.02-.04-.02-.25.04H6.6l-.05-.02H6.4l-.17.04-.25-.06-.21.02.04-.23H5.7Zm-3.08 4.21v.05l.05.05.14-.05.05-.08-.02-.02h-.17l-.05.05Zm-.08-.66.1.13-.02.05.17-.07.02-.04-.15-.02-.04-.11-.08.04v.02Zm-.05-4.2.05-.03.06-.14-.1.04-.03-.02v-.1l.15-.03.04-.08.09.02.04.12-.07.26-.12.02-.13-.02.02-.05v.01Zm-.22 4.31-.03.1.05.07.13.02.05-.04-.1-.08.05-.07-.05-.05-.08.03-.02.02Zm0-.68-.05.09v.12l.03.02.1-.02.02-.15-.07-.08-.03.02Zm-.07-4.3.02.01.15-.06.17.1.08-.02-.04-.08.08-.17-.04-.02-.17.15-.19-.02-.06.06v.05Zm.18 4.88.04.02-.02-.2-.22.18h.2Zm.1-2.13v-.07l-.2-.19-.1.02v.03l.13.04.04.17.08.02.04-.02h.01Zm-.22 1.28.1-.06v-.07l-.17.02-.05.07-.02.13.1.02-.05-.06.04-.05h.05Zm-.02-2.02.17-.17-.12-.06-.13.02-.04.06.08.17.04-.02Zm-.2.95.18-.07v-.05l-.04-.05H2.1l-.15.12v.1l.08-.05h.01Zm.02-3.16.09-.19.02-.12-.06-.02.02.08-.05.06-.08.02-.07.13.04.04h.1-.01Zm-.74 4.48.13-.04.04-.09-.04-.16-.02.25-.04-.25-.3-.05.09.1.2.14-.06.02-.04.06.04.02Zm-.31-2.04.06.13.19.06.08-.04.02-.04-.06-.07-.12-.06-.02-.08H.88l.07.08.06-.02v.04Zm-.19.97.02.04.06.02v-.12l-.06-.13-.04-.02-.02.08-.15.07-.02.04h.15l.02-.02.04.04Zm-.22-.5.15.02.02-.09-.02-.1-.05-.07H.65v.07l-.1.14.05.02v.01Zm5.9-4h.55l.25.06.37-.06.42.02.09.04-.09.05.04.08.07-.04.04-.09.04-.02.1.02.11.1.13.03v-.04l-.07-.09.07-.04h.48l.2.04.07-.04.08.02h.36l.04-.02h.34l.16.06h.1l.11-.06h.55l.1.06.57-.06.04.02h.25l.31-.04.2.06.16-.02.58.13.17.08.21.04.52.3.02.04.34.19.59.59.14.31.09.03.08.25.04.02.17.3.02.25.1.2.03.26-.05.06.1.17.03.13-.04.18.04.09v.52l-.02.05v.2l-.1.6-.26.84-.44.65-.04.02-.04.08-.31.3-.21.12-.09.15-.44.25-.67.26-.4.08-.37.02-.04.02h-1.74l-.17-.02-.02.02-.48-.04-.2.04H8.8l-.04-.02H7.9l-.04.02h-.67l-.02-.02-.4.02-.04-.02h-.46l-.06.04-.13-.04-.2.04-.15-.06-.59.04-.15-.04.1-.15-.16.13-.44.08-.1-.02-.07-.04-.54.04-.17-.04-.42-.02-.23-.09-.06-.08-.19.04-.27-.1-.5-.25-.3-.26-.14-.08-.17-.2-.02-.1-.08.03-.46-.61-.07-.26-.16-.3-.07-.18-.08-.55L.3 14l.02-.07.08-.04-.1-.13v-.63l.04-.38.1-.04.05-.06H.36l-.02-.02.15-.45-.05-.04v-.12l.09-.15v-.13l.12-.23v-.08l.09-.02-.02-.07.06-.08.12.04.07-.02.02-.08-.04-.05.02-.23.04-.04.1.02-.02-.15.2-.06v-.1l.03-.09.42-.38.17-.06.08-.08.6-.3.11.07.13-.13.1.02.07.08.04-.02L3 9.62l.1-.04.06.02.07.06.06-.15.36-.04.12.07.17-.07.25.09.25-.1.3.01-.05.13-.06.06-.02.09.1-.05.13-.12-.02-.07.04-.04.19-.02.08.04.13-.04h.33l.04.02h.84l.04-.04-.01-.01Zm7.56 15.33.05-.18-.1-.02-.05.09v.13l.1.02v-.04Zm-.55.14-.06-.13h-.13l-.05.1.07-.03.1.03.05.08.02-.05Zm-.96-4.4v-.17l-.15.07v.04l.06.06h-.13l.02.1.22-.06-.02-.04Zm-.28 4.21-.07-.03-.1.03-.13.1.13.03.17-.08v-.05Zm-.38-.07.08-.06-.02-.06-.08-.02-.13.12-.06.1.04.03.04-.02v-.09h.13Zm-.25-4.55-.13-.07-.1.02.15.18.12-.05-.02-.05-.02-.03Zm-.04 5.37.02-.08-.1-.23-.11-.09-.06.05.12.1.09.13-.03.02-.16-.04-.1.02-.05.08h.25l.04.08.09-.04Zm-.5-.54-.07-.1.02-.1-.02-.12-.08-.04-.1.02v.04h.08l.06.04-.04.02v.11l.14.3-.06.16.06.04.07-.02-.02-.02.06-.06.13.04-.07-.2-.1.01-.07-.12h.01Zm-.42.9.14-.02-.02-.17.04-.17-.1-.1-.15.46.04.02.05-.02Zm-.69-1.68-.08-.04-.05.1.03.15-.05.08h.02l.13-.2v-.1.01Zm-.05-3.43.02-.05-.02-.1-.1-.08h-.08l-.07.08.25.15Zm1.39.63-.07-.1-.08-.02.06.1.02.13h-.56l-.21.04-.06-.04-.23.1-.26.04-.12-.02-.09.02-.02.07-.14-.07-.07.1-.02.11-.06.03-.06.14-.15.2-.06.12-.04.2-.02.45-.03.04v.3l.07.19.19.12.08.02h.56l.05-.02h1l.04.02h.67l.04-.02h.9l.05.02h.35l.09-.02.18-.15.05-.16-.05-.38v-.3l.09-.2-.09-.07-.1-.25-.02-.13-.23-.25-.23-.1-.86-.2-.04.05h-.1l-.03-.13-.27.1-.15-.04.03-.04ZM8.96 24.9l.06-.07.09-.03.06.05.04-.02-.04-.08-.08-.02-.09.02-.1.1v.05h.06Zm-.56.76-.03.04.03.12.05.05.05-.12-.08-.12-.02.03Zm.1-.53-.12-.09-.04.09-.1-.05.07.17.1.1h.04v-.1l-.03-.02.05-.06.02-.04h.01Zm-.23-3.14-.04.13.13.04.11-.02-.02-.08-.18-.2v.13Zm.02-.35.1.06h.17l-.04-.02-.06-.15h-.04l-.1-.08-.1-.02.03.19.04.02Zm0 3.26.02-.07.15-.17-.1-.04-.13.1-.09.13.15.05Zm.13-2.2-.07-.08-.2.05v.08l.04.03.12-.08.1.05v-.05h.01Zm-.16-1.12-.07-.03-.17.13.14.02.1-.05v-.07Zm-.24.21h-.06l-.02.05-.03-.07-.08-.03-.06.05.08.13.21.05.04-.08-.04-.07-.04-.03Zm-.42 3.57-.1-.04v.06l.04.12.06.05-.04-.07.1.02.1-.02-.03-.2-.05-.03-.04.07.02.1-.06-.06Zm-.04-2.57.14.08-.06-.2-.06-.05-.08.1-.07-.02v.05l.04.04h.09Zm-.32 2.4.05.12.12.02.08-.07-.15-.08-.07-.07-.03.07v.01Zm.21-5.26-.2-.06v.04l.04.02.02.09-.07.1.03.09.1.06.04-.06-.08-.21.04-.03.08.03.02.06-.04.06h.09l.06-.19h-.13Zm-.06 4.46h-.04l-.06-.06v-.04l-.05.02-.02.1.13.13h.12v.1h.07l.02-.1-.13-.13-.04-.02Zm-.15 1-.07-.14-.05.03.02.1-.02.07.2.04.04-.04v-.05h-.12v-.01Zm.03-.32.1-.07-.03-.05-.09-.05h-.07l-.06.1.06.07h.1-.01Zm-.17-4.44H7l-.08.05-.06.12.02.05.1-.02.15-.18-.04-.02h.01Zm-.06.56-.15-.14-.04.02.12.22.13-.05.02-.05h-.08Zm.05-1.17-.03-.05-.19-.12-.02.05.02.12.12.07.1-.02V20v.02Zm.07.4.02-.05-.02-.06-.12-.08-.03-.09-.16.1-.04.13.08.07.1-.13.02.15h.07l.08-.04Zm-.46 4.12.02.04.1.07.03.04.12.07.04-.02.07-.14-.02-.04-.09.04-.27-.08v.02Zm-.04.42.02.04-.02.1.04.03.11-.07.09-.2-.15-.03-.07.09-.02.04Zm-.1-4.04.13-.06.04.02.02-.17-.13-.1-.1.31h.04Zm-.27-.19-.05.21h.08l.05-.08.02-.17-.1.04Zm.03-.8-.14.13.2.05.09-.03.02-.05-.15-.1h-.02Zm-.04.3-.08.12-.04.23.14-.02.1-.12-.1-.21h-.02Zm.01 4.31-.15-.1-.03.1.08.11.1.02.05-.13h-.05Zm-.38-3.96.02-.05-.02-.07-.11-.02-.08.02-.04.07.04.13.04-.03.15.05v-.1Zm-.32-.44L5.5 20l-.02.05.05.19.07-.07-.02-.05.01.02Zm-.1-.5-.05-.04-.16.06.04.13-.02.08-.06.04v.04l.14-.04.13-.1-.13-.05.1-.1v-.02h.01Zm-.76 6 .07.12.14.08.07-.1-.13-.05-.06-.1-.07-.04-.02.04v.05Zm.02-1 .21-.08.07-.06v-.05l-.07-.06-.2.15-.05.1h.04Zm.08-3.86-.05-.03-.2.23.25-.13v-.07Zm-.45.01h.05v-.29l-.2.23.15.06Zm-.44 4.78-.02.04.05.04.15-.06-.03-.17h-.05l.05-.02.03-.06-.05-.02v.02h-.03v.02l-.05.2h-.05v.01Zm.12-.72v.05l-.12.08-.13-.02v.08l.04.04.17.03.06-.09.07-.17-.07-.04-.02.04Zm-1-5.14v.03l.17.1.19.02-.21-.2-.13.02-.02.03Zm0 4.98.08-.03.1-.12-.24.07.02.08h.05-.01Zm-.2.06-.05.1.1.2v-.32l-.05.02Zm-.1-.55v.09l.05.08v.08h.04l.15-.1.06-.13-.13.04-.14-.08-.02.02h-.01Zm3.44-.48-.13-.07.02-.04.32-.02.04.02h.2l.16-.08.04-.38v-.27l-.04-.13-.03-.34-.16-.35-.15-.15-.36-.17-.18-.12h-.49l-.04-.03h-.2l-.05-.02h-.5l-.04.02h-.17l-.17.05-.75.16-.17.09-.27.25-.04.08-.04.51-.05.13-.25.2.02.05.1-.02.07-.13.04.06.02.26-.02.04v.23l.07.06.14-.02.07.06.16-.06h.42l.09-.02.12.02.15.1.06-.1.42.02.04-.02h.19l.04-.02h.38l.46.06.25-.04v.06l-.06.13.1-.06.17.08.02-.06-.02-.02Zm-3.8-.36.02.17.08.06.02-.19.05-.06-.07-.04-.15.04.05.02Zm.03.36-.02.04.02.13-.02-.05-.04-.02-.17.13.04.04.09.02.1-.12.02.08.02-.25h-.04Zm-.27.75.02.07-.02.08.02.06.08.03.03.06.1-.04.06-.07-.04-.08-.1-.1h-.15v-.01Zm.17.57.06.07h.06l-.02-.15-.3-.17-.01.04.2.15v.06h.01Zm-.34.61.03.02.02-.27-.02.21-.03.04Zm-.08-.78-.02.05.02.08.06.02-.02-.2.02-.11.04-.07h.07v-.25L2 24.34v.04l-.06.08-.02-.04-.04.02-.15-.06-.1.02-.05.06h.23l.15.15v.04l-.1-.02.02.28.02-.13v.08l.01.01Zm-.38-1.02.04.1.17-.06.04.03-.04-.2-.08.02-.09.07-.04.04Zm-.12.34.02.1.09-.02.08-.1.05-.12-.2.1-.04.04Zm9.83-5.52h.38l.04.02h.42l.04-.02h.3l.01.02.38.02.42.1.3.05.56.23.33.21.02.04.3.24.29.29.23.32.2.46.05.2.13.28v.2l.02.03.02.49.02.04v.73l.02.05v1.17l.02.05-.02.04v.2l.02.05v.27l-.04.05v.56l.02.05v1.03l-.06.12-.15.09-.17.04-.52.04-.15-.06v-.07l-.08.09-.08.02h-.55l-.04-.02h-.73l-.17-.09-.13.1-.02-.05.02-.09-.06.02-.12-.06-.02.08.02.09-.21.06-.07-.1-.23.06h-.41l-.05-.02h-.35l-.38.04-.06-.02-.04-.09-.07-.02-.04.07-.19.04H9.34l-.04.02h-.72l-.18-.06-.03.02h-.2l-.05-.02h-.29l-.04-.02-.21.08-.44-.04h-.92l-.04.02H5.5l-.04-.02H5.2l.07-.1-.02-.05-.07.02-.02.1-.14.05-.4-.02-.27.04-.07-.06-.12.04h-.48l-.04.02-.09-.02H2.8l-.04-.02h-.4l-.04-.02h-.17l-.04.02h-.25l-.05.02-.18-.02-.13.02-.04-.02h-.6l-.08-.02-.15-.1-.06-.11v-.28l-.02-.04v-.17l.02-.04.02-.42-.02-.04-.02-.46.04-.13-.04-.06.02-.38.04-.09-.04-.23.04-.1-.06-.17.04-.17-.06-.15v-.48l.02-.04v-.17l.02-.04v-.82l.12-.57.13-.36.1-.1.03-.13.1-.23.06-.04.05.02-.03-.1.15-.11.15-.27.25-.15.04-.09.19-.1.02-.04.42-.23.46-.2.31-.01.09.08.14-.15.13-.02h.5l.23-.04h.75l.05-.02.48.04.04-.02.38.04.58.13.46.25.4.27.42.44.14.07.15-.15.15-.25.06-.04.17-.05-.02-.1.44-.32.67-.29.18.06v-.1l.02.02h.17l.25-.1.28-.05.1.04.1-.06.57.04.04-.02Zm4.19-11.03-.02-.05h-.21l-.05-.03.05.13h.1l.08.1.05-.1v-.05ZM13.59 1.4l-.07-.12-.1-.07h-.1l-.05.05.02.1.1.1.11-.03.09.02V1.4Zm-.07.25-.06-.17-.17.07-.06-.04.19.18.02.09-.02.04-.2-.02v-.04l-.05-.07-.02.07.06.1.17.07.08.06.02-.04-.04-.13h.04l.06-.06.02-.09-.04-.02Zm-.42.32-.14-.02-.07.02.07.1h.08l.08-.05.03-.07-.05.02Zm-.16-.2.04.1.08.01-.04-.31-.19.08-.08.09.04.1.06-.02.07-.06.02.02v-.01Zm-.2-.83-.05-.36.02.4.03-.04Zm-.01.63-.15.08-.06.17.08.08.17-.31-.04-.02Zm-.24-.5.05-.03-.03-.1-.08-.09-.1-.04-.02.04.12.21h.06v.01Zm-.01 1.1-.13-.04-.02-.05-.08-.05-.09.12.1.12h.17l.05-.02.04-.1-.04.03v-.01Zm-.42-1.12.07.08.07.02.1-.02-.02-.1-.22-.03v.05Zm-.21 1.76-.06.02.02.06-.02.07-.15.02-.06-.02.02.08.14.08.09-.1.1-.02.02-.09h-.04l-.02-.1h-.04Zm-.25-.09.08-.18.08-.03-.02-.08-.08-.1h-.04l-.1.14v.2l.04.08.04.02v-.05Zm-.27-1.49v-.12l-.1.08v.21l-.03.04h.05l.05-.06.1-.02-.07-.13Zm.69.86-.07-.14-.06-.05-.31-.02-.2-.23-.14-.06.06.17.09.08.06.15.06-.02.17.02v.04l-.19.04-.04-.04-.19-.08-.02-.09.02-.06-.14-.02-.03.06.2.34.29-.07.18.2.03-.13.04-.07-.04-.02-.05-.08.05-.06.08.02.04.04v.13H12l.03-.05h-.01Zm-1.03.32.13.13.08-.03v-.04l-.1-.06.04-.1-.02-.05-.13.07-.04.08h.04ZM11.01.9l-.05-.03-.05.03v.08l.07.21-.05.06.1-.02V.98l.05-.06-.07-.02ZM10.63 3l.03.1.18-.13h.07l-.07-.07h-.16l-.05-.03V3Zm.15-1.12.08-.08.09-.04.08.02v-.06L11 1.65l-.2-.08-.1.19-.1.08.02.06h.13l.04-.02h-.01ZM10.28 3l.04.02.13-.04-.07-.07-.23-.12-.06-.1-.04.03v.17l.06.07.02-.07.04-.02.03.04-.03.07.07.02h.04Zm-.02-1.87h-.15l-.08.04.23.2.02.1h.12l.13-.13.04.19.23-.07.02-.04-.1-.04.02-.04.08-.05.02-.04-.02-.06-.12-.04.12-.15-.1.02-.1.15.04.02v.04l-.05.04-.14-.02-.15.1-.04-.01-.04-.1.06-.03-.04-.08ZM10 3.53l.05-.02.02-.1-.05-.1-.07.03-.03.14.05.08.03-.03Zm-.05-1.09.15-.15.02.02V2.2h-.21l-.03.09.03.15h.04ZM9.85 2l.08.04h.09L10 2l-.14-.09.03-.1-.03-.06-.06.02-.02.08.02.15h.05ZM9.8 4.34l-.25.08.06.08h.15l.1-.08-.06-.08Zm-.46-2.73-.13.05-.02.05.07.14.17-.07-.05-.15-.04-.02Zm-.6.06-.03.05.02.14.08.04.14-.2-.05-.05-.12-.02-.05.04h.01Zm-.1 2.27v.03l-.07.02.08.02.1-.04-.1-.17v-.1h-.1l-.03.04.05.07-.07.1v.05l.07.02.02-.07.04.02.01.01ZM8.5 1.93 8.48 2l.1.06.03-.04-.03-.08.08-.1-.08-.05-.08.13v.01Zm0 4.45-.17.09-.02.08.06.04v-.04l.07-.08.14-.04.21.06v-.15h.09l.04-.04v-.06l-.23.12-.17-.12-.02.08.04.06H8.5Zm-.42-4.56.04.04.07-.14h.04l.06-.07.02-.06.06-.02v-.04l-.16-.13.02-.08-.09.04-.04.12.1.05-.01.14-.07.07-.04.08Zm.08 4.46-.1.05-.04.1.1-.03.14-.12h-.1Zm-.2-2.24V4l-.13-.06v-.09l-.04.02-.1.16.16.02.09.04.02-.06v.01ZM7.75.98l.08-.05-.04-.07-.17-.03-.04.05v.05l.04.05h.13Zm-.26 5.66-.05-.09.1-.17-.05-.02-.1.2.03.08.07.04v-.04Zm-.66.63h.05l.02-.05-.11-.2h-.11l-.02.04.06.1-.06.15h.04l.07-.06.06.02Zm-.09-1.05h.07l.06.05.02-.05-.08-.1-.2-.05-.01.02.04.13.06.05.04-.05ZM6.66.85h.04l.04-.07-.02-.05-.23.1.13.05.04-.03Zm-.19 4 .04-.21-.02-.1.1-.05-.1-.02v.04l-.02-.1-.13.04-.06.08.09.02.04.09v.2h.06v.01Zm-.22-3.1-.05.13.1.13.02-.1-.02-.15h-.05v-.01Zm-.12.15-.08-.08-.1-.02-.07.02.05.03.05.15.15-.05V1.9Zm0 3.03.07-.14-.06-.03V4.7l.04-.08-.04-.04-.13.04-.15-.02v.04l.13.08.1.13.02.08h.03-.01Zm-.3 1.8.08.02.07-.15-.02-.09-.22.13.09.09Zm-.09-5.41-.02.22.24-.15v-.05l-.17-.05-.05.03Zm.04 3.65-.25.09.1.17-.02.08.07.04h.23l-.21-.17-.02-.1.06-.02L5.8 5l-.02-.03Zm-.19 1.64.06.05v-.09L5.6 6.5l.06-.06-.02-.05.02-.08-.18.08-.07.17.07.06h.12l-.01-.01Zm-.12-.58-.03-.07.05-.1h-.07l-.06.04.06.13.02.23.09.02-.06-.1.08-.03.13.07-.05-.24-.04-.04-.06.1-.06-.01Zm.12-4.22-.04-.09-.08-.09-.15-.04.04.02.04.09.17.13.02-.02Zm-.2 3.55-.1-.03-.07.05-.03.15.08.04.02-.04.1-.05.05-.1-.05-.02ZM5.32 1.8l-.1-.19-.07-.04-.04.27.04-.02.25.02.02-.04h-.1Zm-.27 4.17.02.1.22.11-.11-.21-.09-.03-.04.03ZM5 5.19l-.03.02.03.15.15.05-.1-.13v-.12L5 5.19ZM5.06.56l.15.05V.56L5.13.48l-.1-.03-.07.05v.06h.1Zm-.2 5.57-.04.15.1-.02.05-.09v-.1l-.1-.04v.1h-.01ZM4.1 7.31h.04l.1-.2-.03-.03L4.09 7H4l-.02.05.04.08.1.04.01.04-.04.09.01.01Zm-.06-2.05-.1.13h.1l.15-.18-.15-.05v.1Zm.24 1.2-.04-.08-.25-.08-.08.08-.02.12.25-.1.1.1h.04v-.05.01Zm-.47.62.02.06.07.06h.08L4 7.16l-.05-.08.05-.3-.14-.12h-.08l-.02.04.14.12-.1.22v.04h.01Zm0-1.7-.04.2-.11-.08-.03.04.05.2.09.01.1-.3-.02-.08H3.8l.01.01Zm-.36 1.05.14-.17-.06-.04-.08.02-.02-.09-.09-.04.09-.02-.05-.13-.08-.04v.02l-.23-.12.08.14.17.2-.04.14.1.13h.07Zm-.59-.89-.02.15.02.08.08.05.08-.15-.06-.17-.1-.08v.12Zm-.32.32.05.06.07-.06-.02-.09-.07-.06-.15-.06.12.2v.01ZM13.96.06h.5l.05.02h.16l.05-.03h.16l.04.03.42-.03.21.07.17.33.02.36-.04.13v.73l.04.4-.02.13-.06.13-.21.14-.76.3h-.1l-.36.16-.2.07-.78.3-.88.3-1 .39-.32.08-.58.25-.21.07-.27.02-.07.1-.12.02-.27.15-.28.06-.23.13-.1.02-.1-.02-.38.19-.44.17-.15.08-.02.13.04.02.15-.06.08.04h.23l.04-.02h.38l.04.02h.61l.04-.02h.38l.06.06.08-.04.2.02.01.08.2-.14.12.04.08-.02.15.02h1.67l.04-.02h.26l.04-.02.42.02.04.02h.56l.04-.02h.8l.04.02h.32l.04.02h.48l.1.04.15.27v.36l.02.04v.28l-.04.06.04.25-.04.09.02.1v.63l-.1.32-.2.1h-.41l-.38-.04-.04.02-.4.02-.12-.04-.2.04h-.41l-.04-.02h-1.36l-.04-.02h-.55l-.04.02-.46.02-.02-.02h-.52l-.05.02h-.16l-.05-.02h-.62l-.09-.06-.27.06H7.98l-.04-.02H7.6l-.04.02-.42.02-.13-.04h-.58l-.04.02h-.97l-.04-.02h-.54l-.04.02h-.57L4.2 8l-.52-.04-.05.02h-.25l-.04-.02h-.38l-.04.02-.37.02-.05-.04h-.7l-.03.02-.25.02-.12-.06-.1.06-.16-.04h-.3l-.19-.08-.1-.32.02-.25-.04-.09.04-.12.02-.38-.02-.04V6.5l-.02-.04v-.34l.04-.17-.02-.04v-.25l.04-.13.13-.1.25-.15.37-.15.86-.27.73-.25.97-.36.42-.19h.16l.36-.17.12.02.42-.2.17.1.06-.02-.04-.1.13-.1.16-.06.09.03.42-.21h.14l.3-.17h.16l.09-.09.48-.12.52-.26-.04-.1-.08-.02-.3.04-.35-.06-.2.06H6.7l-.2-.04h-.93l-.04-.02h-.34l-.04.02H4.8l-.05-.02-.37.04h-.34L4 2.6H.8l-.1-.06-.13-.2-.04-.2v-.49l.02-.04v-.4l.04-.13-.04-.06V.58L.59.33.65.18.8.1l.25-.05h.71l.04.03.4-.03.06.03.07.06h.04l.1-.09.36.03.02-.03h.2l.05.03h.19l.04.02h.6l.05-.02h1.36l.04-.03h.34l.04.03h.42l.19.04.14-.04.09.04.08-.04.25.02.06.04v.12l.05.03.06-.07V.1l.06-.02h1.09l.1-.03.15.05.08.06.25-.08.2.02.33-.02.08.04.38-.04.04.02h.34l.04-.02h.2l.05-.03h.3l.03.03h.76l.04-.03h.2l.05-.02h.38l.16.05.34-.05.46.07.04-.02h.67l.04-.03v.01Z" style="fill:#232a29;fill-rule:nonzero" transform="translate(-.017 59.1)"/>
    <path d="M22.35 1.96c.14-.14.26-.2.37-.2.2 0 .33.18.33.4-.01.12-.06.26-.19.38-4.84 6.04-8.37 13.1-8.37 22.9 0 9.8 3.53 16.72 8.37 22.76.11.102.178.241.19.39 0 .21-.13.39-.33.39-.1 0-.23-.06-.37-.2L1.71 28.77a4.233 4.233 0 0 1 0-6.77L22.35 1.96M38.22.26c-8.08 0-11.24 11.49-11.24 25.19 0 13.7 3.16 25.03 11.24 25.03 4.85 0 8.99-2.85 9-5.19 0-.51-.2-1-.62-1.43-2.3-2.23-3.2-4.46-3.2-6.42-.02-3.75 3.22-6.55 6.21-6.55 4.12 0 6.54 3.25 6.54 7.44 0 3.98-1.7 7.3-3.53 9.95a.635.635 0 0 0-.1.33c0 .21.12.38.3.38.12 0 .25-.06.39-.2l20.65-20.03a4.233 4.233 0 0 0 0-6.77L53.2 1.96c-.14-.15-.27-.2-.38-.2-.19 0-.3.17-.31.37 0 .11.03.23.1.34 1.84 2.65 3.53 5.97 3.53 9.94 0 4.2-2.42 7.44-6.54 7.44-2.99 0-6.23-2.79-6.22-6.54.01-1.97.91-4.2 3.2-6.42.44-.43.63-.92.63-1.43-.01-2.35-4.15-5.2-9-5.2" style="fill:#b12447" transform="translate(-.017 -.26)"/>
</svg>
