<?xml version="1.0" encoding="UTF-8" standalone="no"?>
<!-- Created with Inkscape (http://www.inkscape.org/) -->
<svg
   xmlns:svg="http://www.w3.org/2000/svg"
   xmlns="http://www.w3.org/2000/svg"
   version="1.0"
   width="708.66144"
   height="238.85031"
   id="svg2649">
  <defs
     id="defs2651">
    <clipPath
       id="clp6">
<path
   d="M 0.059998,841.98 L 595.38,841.98 L 595.38,0.06 L 0.059998,0.06 L 0.059998,841.98 z "
   id="path2536" />

</clipPath>
    <clipPath
       id="clp5">
<path
   d="M -609.45,841 L 595.28,841 L 595.28,-0.89 L -609.45,-0.89 L -609.45,841 z "
   id="path2531" />

</clipPath>
    <clipPath
       id="clp4">
<path
   d="M 51.024,835.6 L 147.1,835.6 L 147.1,789.21 L 51.024,789.21 L 51.024,835.6 z "
   id="path2526" />

</clipPath>
  </defs>
  <g
     transform="translate(-191.28347,84.322414)"
     id="layer1">
    <g
       transform="matrix(7.7310346,0,0,-7.7310346,-213.32409,6316.5297)"
       id="q2">
<clipPath
   id="clipPath2664">
<path
   d="M 51.024,835.6 L 147.1,835.6 L 147.1,789.21 L 51.024,789.21 L 51.024,835.6 z "
   id="path2666" />

</clipPath>

<g
   clip-path="url(#clp4)"
   id="g2528">
<clipPath
   id="clipPath2669">
<path
   d="M -609.45,841 L 595.28,841 L 595.28,-0.89 L -609.45,-0.89 L -609.45,841 z "
   id="path2671" />

</clipPath>

<g
   clip-path="url(#clp5)"
   id="g2533">
<clipPath
   id="clipPath2674">
<path
   d="M 0.059998,841.98 L 595.38,841.98 L 595.38,0.06 L 0.059998,0.06 L 0.059998,841.98 z "
   id="path2676" />

</clipPath>

<g
   clip-path="url(#clp6)"
   id="g2538">
<path
   d="M 88.299,819.82 C 85.916,819.82 83.654,819.82 82.395,819.82 C 82.219,819.82 82.04,819.81 81.859,819.79 L 81.859,819.79 C 79.281,819.59 76.279,817.93 73.337,815.8 C 70.681,813.87 68.149,811.82 65.721,811.82 L 64.586,811.82 C 64.76,809.14 65.972,806.74 67.824,805.02 C 70.708,805.52 72.84,806.93 75.226,808.51 C 78.339,810.57 80.49,812.79 82.845,812.79 C 84.376,812.79 87.312,812.79 90.132,812.79 C 90.136,812.79 90.14,812.79 90.144,812.79 C 93.774,812.79 97.21,812.79 97.21,812.79 L 97.21,819.82 C 97.21,819.82 92.56,819.82 88.299,819.82 z "
   style="fill:#000000;fill-rule:nonzero;stroke:#000000;stroke-width:0.105;stroke-linecap:butt;stroke-linejoin:miter;stroke-miterlimit:4;stroke-dasharray:none"
   id="path2540" />

<path
   d="M 59.371,811.82 L 52.388,811.82 L 52.395,804.83 L 61.393,804.84 C 60.201,806.91 59.479,809.29 59.371,811.82 z "
   style="fill:#000000;fill-rule:nonzero;stroke:#000000;stroke-width:0.105;stroke-linecap:butt;stroke-linejoin:miter;stroke-miterlimit:4;stroke-dasharray:none"
   id="path2542" />

<path
   d="M 105.11,819.82 C 107.23,819.82 110.2,819.52 110.2,816 C 110.2,813.81 108.8,813.11 107.97,812.69 C 109,812.41 110.71,811.6 110.71,809.08 C 110.71,805.43 108.1,804.84 105.28,804.84 L 101.69,804.84 C 101.32,804.84 101.24,804.93 101.24,805.3 L 101.24,819.36 C 101.24,819.76 101.32,819.82 101.69,819.82 L 105.11,819.82 z M 104.87,813.63 C 106.16,813.63 107.25,813.96 107.25,815.69 C 107.25,817.07 106.31,817.53 105.11,817.53 L 104.19,817.53 L 104.19,813.63 L 104.87,813.63 z M 104.97,807.14 C 106.49,807.14 107.75,807.4 107.75,809.26 C 107.75,811.1 106.49,811.34 105.02,811.34 L 104.19,811.34 L 104.19,807.14 L 104.97,807.14"
   style="fill:#000000;fill-rule:nonzero;stroke:none;stroke-width:0.105;stroke-linecap:butt;stroke-linejoin:miter;stroke-miterlimit:4;stroke-dasharray:none"
   id="path2544" />

<path
   d="M 120.7,817.09 C 120.64,816.96 120.55,816.87 120.46,816.87 C 120.33,816.87 118.97,817.83 117.4,817.83 C 116.39,817.83 115.34,817.44 115.34,816.13 C 115.34,814.46 117.9,814.16 119.83,812.74 C 120.94,811.9 121.71,810.75 121.71,809.08 C 121.71,806.3 119.74,804.47 116.98,804.47 C 114.75,804.47 112.41,805.43 112.41,805.8 C 112.41,805.87 112.43,805.95 112.52,806.13 L 113.02,807.57 C 113.09,807.71 113.18,807.79 113.27,807.79 C 113.4,807.79 115.02,806.83 116.9,806.83 C 118.12,806.83 118.87,807.49 118.87,808.84 C 118.87,810.79 116.63,810.99 114.4,812.34 C 113.24,813.04 112.5,813.92 112.5,815.73 C 112.5,818.88 114.77,820.2 117.31,820.2 C 119.39,820.2 121.53,819.23 121.53,818.86 C 121.53,818.8 121.51,818.71 121.43,818.53 L 120.7,817.09"
   style="fill:#000000;fill-rule:nonzero;stroke:none;stroke-width:0.105;stroke-linecap:butt;stroke-linejoin:miter;stroke-miterlimit:4;stroke-dasharray:none"
   id="path2546" />

<path
   d="M 133.59,805.34 C 133.63,805.19 133.67,805.08 133.7,804.97 C 133.7,804.86 133.61,804.84 133.39,804.84 L 132.03,804.84 C 131.77,804.84 131.68,804.93 131.64,805.08 L 130.41,809.3 L 125.93,809.3 L 124.82,805.08 C 124.77,804.93 124.68,804.84 124.42,804.84 L 123.07,804.84 C 122.85,804.84 122.76,804.86 122.76,804.97 C 122.78,805.08 122.8,805.19 122.87,805.34 L 127.24,819.58 C 127.31,819.8 127.33,819.82 127.57,819.82 L 128.86,819.82 C 129.04,819.82 129.1,819.82 129.19,819.58 L 133.59,805.34 z M 128.69,815.67 C 128.49,816.35 128.29,817.13 128.18,817.75 L 128.14,817.75 C 128.05,817.22 127.83,816.26 127.68,815.67 L 126.35,810.83 L 130,810.83 L 128.69,815.67"
   style="fill:#7f7f7f;fill-rule:nonzero;stroke:none;stroke-width:0.105;stroke-linecap:butt;stroke-linejoin:miter;stroke-miterlimit:4;stroke-dasharray:none"
   id="path2548" />

<path
   d="M 144,806.26 C 144,805.69 144,805.52 143.69,805.34 C 142.9,804.86 141.48,804.53 140.15,804.53 C 136.28,804.53 134.9,807.95 134.9,812.47 C 134.9,816.63 136.34,820.13 140.19,820.13 C 142.2,820.13 143.82,819.1 143.82,818.8 C 143.82,818.66 143.78,818.64 143.71,818.51 L 143.39,817.9 C 143.3,817.77 143.3,817.59 143.12,817.59 C 142.88,817.59 141.99,818.66 140.23,818.66 C 137.83,818.66 136.87,816.39 136.87,812.69 C 136.87,808.65 137.81,806 140.19,806 C 141.2,806 141.79,806.22 142.2,806.41 L 142.2,811.01 L 140.45,811.01 C 140.28,811.01 140.19,811.1 140.19,811.27 L 140.19,812.17 C 140.19,812.34 140.28,812.43 140.45,812.43 L 143.73,812.43 C 143.91,812.43 144,812.34 144,812.17 L 144,806.26"
   style="fill:#7f7f7f;fill-rule:nonzero;stroke:none;stroke-width:0.105;stroke-linecap:butt;stroke-linejoin:miter;stroke-miterlimit:4;stroke-dasharray:none"
   id="path2550" />

<path
   d=""
   style="fill:none;stroke:#000000;stroke-width:0.34999999;stroke-linecap:butt;stroke-linejoin:miter;stroke-miterlimit:4;stroke-dasharray:none"
   id="path2552" />

<path
   d="M 84.934,812.79 C 84.937,812.69 84.942,812.6 84.942,812.5 C 84.942,806.87 80.379,802.31 74.752,802.31 C 69.124,802.31 64.562,806.87 64.562,812.5 C 64.562,818.12 69.124,822.69 74.752,822.69 C 77.517,822.69 80.023,821.58 81.859,819.79 C 82.04,819.81 82.219,819.82 82.395,819.82 C 83.652,819.82 85.914,819.82 88.299,819.82 C 85.695,824.63 80.605,827.89 74.752,827.89 C 66.249,827.89 59.355,821 59.355,812.5 C 59.355,803.99 66.249,797.1 74.752,797.1 C 83.255,797.1 90.148,803.99 90.148,812.5 C 90.148,812.6 90.146,812.69 90.144,812.79 C 88.319,812.79 86.445,812.79 84.934,812.79 z "
   style="fill:#ec1b24;fill-rule:nonzero;stroke:#ec1b24;stroke-width:0.105;stroke-linecap:butt;stroke-linejoin:miter;stroke-miterlimit:4;stroke-dasharray:none"
   id="path2554" />

<path
   d="M 88.299,819.82 C 85.916,819.82 83.654,819.82 82.395,819.82 C 82.219,819.82 82.04,819.81 81.859,819.79 L 81.859,819.79 C 79.281,819.59 76.279,817.93 73.337,815.8 C 70.681,813.87 68.149,811.82 65.721,811.82 C 65.721,811.82 72.84,806.93 75.226,808.51 C 78.339,810.57 80.49,812.79 82.845,812.79 C 84.376,812.79 87.312,812.79 90.132,812.79 C 90.136,812.79 90.14,812.79 90.144,812.79 C 93.774,812.79 97.21,812.79 97.21,812.79 L 97.21,819.82 C 97.21,819.82 92.56,819.82 88.299,819.82 z "
   style="fill:#000000;fill-rule:nonzero;stroke:#000000;stroke-width:0.105;stroke-linecap:butt;stroke-linejoin:miter;stroke-miterlimit:4;stroke-dasharray:none"
   id="path2556" />

</g>

</g>

</g>

</g>
  </g>
</svg>
