<?xml version="1.0" encoding="UTF-8"?>
<svg width="1e3" height="319.03" version="1.1" viewBox="0 0 264.58 84.411" xmlns="http://www.w3.org/2000/svg">
 <g transform="translate(-68.792 -90.881)">
  <rect x="68.792" y="153.58" width="37.68" height="7.3722" fill="#ff80ff"/>
  <rect x="106.47" y="160.96" width="35.632" height="7.1674" fill="#5514b4"/>
  <rect x="156.44" y="160.96" width="53.244" height="7.1674" fill="#009ba5"/>
  <rect x="236.31" y="160.96" width="26.622" height="7.1674" fill="#c81e6e"/>
  <rect x="296.31" y="160.96" width="36.247" height="7.1674" fill="#142032"/>
  <rect x="142.1" y="153.58" width="14.335" height="7.3722" fill="#edf23b"/>
  <rect x="209.68" y="153.58" width="26.622" height="7.3722" fill="#87005f"/>
  <rect x="262.93" y="168.12" width="33.38" height="7.1674" fill="#43b072"/>
  <g fill="#1d1d1b" shape-rendering="auto">
   <path d="m68.848 91.606v43.141h20.009c3.0326 0 5.6402-.55323 7.8064-1.678l.0031-.003c2.1512-1.1583 3.8238-2.7012 4.9916-4.6197 1.1675-1.918 1.7536-4.0755 1.7536-6.4398 0-2.9465-1.2288-5.3143-3.1746-7.0445-1.6783-1.4924-3.9289-2.4388-6.3521-3.0476 1.9665-.72665 3.7875-1.6024 5.1518-2.8904 1.6201-1.5294 2.6427-3.5863 2.6817-6.3038v-.006c0-1.9243-.52512-3.7366-1.5661-5.4058l-.003-.0062c-1.0089-1.721-2.525-3.1031-4.5139-4.139-2.0088-1.0462-4.494-1.557-7.4436-1.557zm8.1299 7.0384h10.322c2.1094 0 3.5716.52089 4.4807 1.5026l.0062.006c.93588.97331 1.3968 2.1816 1.3968 3.7097 0 1.4822-.48147 2.7408-1.4694 3.8427-.91308 1.0226-2.3488 1.557-4.4141 1.557h-10.322zm0 17.599h11.005c2.3122 0 3.9865.56185 5.1005 1.6387 1.1408 1.1028 1.6901 2.3885 1.6901 3.9425 0 1.7241-.55834 3.1101-1.6961 4.2479-1.114 1.0739-2.7855 1.6356-5.0944 1.6356h-11.005z" color="#000000" color-rendering="auto" dominant-baseline="auto" image-rendering="auto" solid-color="#000000" style="font-feature-settings:normal;font-variant-alternates:normal;font-variant-caps:normal;font-variant-ligatures:normal;font-variant-numeric:normal;font-variant-position:normal;isolation:auto;mix-blend-mode:normal;shape-padding:0;text-decoration-color:#000000;text-decoration-line:none;text-decoration-style:solid;text-indent:0;text-orientation:mixed;text-transform:none;white-space:normal"/>
   <path d="m106.53 91.606v7.3226h13.457v35.818h8.6106v-35.818h13.484v-7.3226z" color="#000000" color-rendering="auto" dominant-baseline="auto" image-rendering="auto" solid-color="#000000" style="font-feature-settings:normal;font-variant-alternates:normal;font-variant-caps:normal;font-variant-ligatures:normal;font-variant-numeric:normal;font-variant-position:normal;isolation:auto;mix-blend-mode:normal;shape-padding:0;text-decoration-color:#000000;text-decoration-line:none;text-decoration-style:solid;text-indent:0;text-orientation:mixed;text-transform:none;white-space:normal"/>
   <path d="m174.42 90.881c-12.72 0-19.263 9.543-19.263 22.842 0 11.432 5.4071 21.828 16.493 21.828 6.2066 0 9.4684-2.9312 11.639-8.0352v7.232h7.923v-22.703h-14.486v7.1019h5.9207c-.18092 4.8949-4.0901 8.9857-9.3151 8.9857-6.6752 0-9.3982-7.5709-9.4161-14.651 0-5.169 2.2092-15.12 10.779-15.204 4.3623 0 7.0709 2.6971 8.9947 5.8027l6.6638-4.2951c-4.134-5.6786-7.973-8.8387-15.933-8.9033z" color="#000000" color-rendering="auto" dominant-baseline="auto" image-rendering="auto" solid-color="#000000" style="font-feature-settings:normal;font-variant-alternates:normal;font-variant-caps:normal;font-variant-ligatures:normal;font-variant-numeric:normal;font-variant-position:normal;isolation:auto;mix-blend-mode:normal;shape-padding:0;text-decoration-color:#000000;text-decoration-line:none;text-decoration-style:solid;text-indent:0;text-orientation:mixed;text-transform:none;white-space:normal"/>
   <path d="m218.37 103.62c-4.6787.17876-7.3568 2.6087-9.0923 6.7851v-6.7851h-12.498v6.5688h4.6195v24.561h8.2816v-17.155c0-4.8782 3.7032-6.603 7.2378-6.603h5.4653v-7.3722z" color="#000000" color-rendering="auto" dominant-baseline="auto" image-rendering="auto" solid-color="#000000" style="font-feature-settings:normal;font-variant-alternates:normal;font-variant-caps:normal;font-variant-ligatures:normal;font-variant-numeric:normal;font-variant-position:normal;isolation:auto;mix-blend-mode:normal;shape-padding:0;text-decoration-color:#000000;text-decoration-line:none;text-decoration-style:solid;text-indent:0;text-orientation:mixed;text-transform:none;white-space:normal"/>
   <path d="m241.17 102.73c-10.445 0-16.099 7.344-16.099 16.372 0 10.25 6.2314 16.369 16.099 16.369 10.207 0 16.006-6.6993 16.006-16.369 0-12.27-9.2803-16.372-16.006-16.372zm0 6.9276c5.2655 0 7.5973 4.5736 7.6469 9.4441 0 4.9399-2.3924 9.5628-7.6469 9.6368-5.706 0-7.723-4.8294-7.723-9.6367 0-5.5857 2.7835-9.4443 7.723-9.4443z" color="#000000" color-rendering="auto" dominant-baseline="auto" image-rendering="auto" solid-color="#000000" style="font-feature-settings:normal;font-variant-alternates:normal;font-variant-caps:normal;font-variant-ligatures:normal;font-variant-numeric:normal;font-variant-position:normal;isolation:auto;mix-blend-mode:normal;shape-padding:0;text-decoration-color:#000000;text-decoration-line:none;text-decoration-style:solid;text-indent:0;text-orientation:mixed;text-transform:none;white-space:normal"/>
   <path d="m262.96 103.62v19.999c0 5.9408 3.2958 11.81 10.686 11.81 5.2502 0 8.4924-3.4604 9.9342-6.546v5.865h12.595v-6.5531h-4.5751v-24.574h-8.201v18.428c0 3.575-3.0182 6.5233-6.5381 6.5233-4.3685 0-5.6701-3.3328-5.6701-6.5233v-18.428z" color="#000000" color-rendering="auto" dominant-baseline="auto" image-rendering="auto" solid-color="#000000" style="font-feature-settings:normal;font-variant-alternates:normal;font-variant-caps:normal;font-variant-ligatures:normal;font-variant-numeric:normal;font-variant-position:normal;isolation:auto;mix-blend-mode:normal;shape-padding:0;text-decoration-color:#000000;text-decoration-line:none;text-decoration-style:solid;text-indent:0;text-orientation:mixed;text-transform:none;white-space:normal"/>
   <path d="m310.58 109.43v-5.8082h-12.65v6.5528h4.7215v36.274h8.1914v-17.071c2.0062 3.6489 4.4751 5.9851 9.7603 5.9851 8.4008 0 12.768-7.6405 12.768-16.159 0-10.165-5.497-16.271-12.896-16.271-5.1067 0-8.0646 2.7563-9.8955 6.4975zm6.9973.32063c5.5131 0 7.429 4.7742 7.429 9.3711 0 5.2352-2.3391 9.4504-7.374 9.5172-4.4074 0-7.0522-2.9918-7.0522-7.0732v-4.5956c0-5.0733 3.8902-7.2196 6.9972-7.2196z" color="#000000" color-rendering="auto" dominant-baseline="auto" image-rendering="auto" solid-color="#000000" style="font-feature-settings:normal;font-variant-alternates:normal;font-variant-caps:normal;font-variant-ligatures:normal;font-variant-numeric:normal;font-variant-position:normal;isolation:auto;mix-blend-mode:normal;shape-padding:0;text-decoration-color:#000000;text-decoration-line:none;text-decoration-style:solid;text-indent:0;text-orientation:mixed;text-transform:none;white-space:normal"/>
  </g>
 </g>
</svg>
