<?xml version="1.0" encoding="UTF-8" standalone="no"?>
<!-- Created with Inkscape (http://www.inkscape.org/) -->
<svg xmlns:svg="http://www.w3.org/2000/svg" xmlns="http://www.w3.org/2000/svg" version="1.0" width="716.45667" height="289.48819" id="svg2403" xml:space="preserve"><defs id="defs2406"><clipPath id="clipPath2446"><path d="M 0,0 L 651.969,0 L 651.969,651.969 L 0,651.969 L 0,0 z" id="path2448"/></clipPath><clipPath id="clipPath2472"><path d="M 0,0 L 651.969,0 L 651.969,651.969 L 0,651.969 L 0,0 z" id="path2474"/></clipPath></defs><g transform="matrix(1.25,0,0,-1.25,-58.119056,687.55701)" id="g2412"><g transform="matrix(4.3476393,0,0,4.3476393,-1098.1708,-1048.8392)" id="g2593"><g transform="translate(343.599,346.0547)" id="g2430"><path d="M 0,0 L 0,-3.994 L 2.731,-3.994 C 5.682,-3.994 7.993,-5.158 7.993,-8.253 C 7.993,-11.507 5.383,-12.352 2.436,-12.352 L -2.045,-12.352 L -2.045,1.747 L 6.937,1.747 L 6.937,0 L 0,0 z M 0,-5.769 L 0,-10.598 L 2.544,-10.598 C 4.131,-10.598 5.91,-10.071 5.91,-8.253 C 5.91,-6.403 4.485,-5.769 2.785,-5.769 L 0,-5.769 z" id="path2432" style="fill:#535353;fill-opacity:1;fill-rule:nonzero;stroke:none"/></g><g id="g2568"><g transform="translate(377.5187,341.9067)" id="g2434"><path d="M 0,0 L 0,5.896 L 2.032,5.896 L 2.032,-8.204 L 0,-8.204 L 0,-1.752 L -7.968,-1.752 L -7.968,-8.204 L -10.017,-8.204 L -10.017,5.896 L -7.968,5.896 L -7.968,0 L 0,0 z" id="path2436" style="fill:#535353;fill-opacity:1;fill-rule:nonzero;stroke:none"/></g><g transform="translate(387.5604,342.3205)" id="g2438"><path d="M 0,0 L 6.891,-8.618 L 4.381,-8.618 L -1.459,-1.386 L -3.579,-3.361 L -3.579,-8.618 L -5.615,-8.618 L -5.615,5.482 L -3.579,5.482 L -3.579,-0.842 L 3.026,5.482 L 5.748,5.482 L 0,0 z" id="path2440" style="fill:#535353;fill-opacity:1;fill-rule:nonzero;stroke:none"/></g><g id="g2442"><g clip-path="url(#clipPath2446)" id="g2444"><g transform="translate(360.0248,347.8006)" id="g2450"><path d="M 0,0 L -2.074,0 L -8.088,-14.098 L -5.977,-14.098 C -5.977,-14.098 -4.572,-10.647 -4.526,-10.545 L 2.282,-10.545 C 2.323,-10.647 3.724,-14.098 3.724,-14.098 L 5.927,-14.098 L 0,0 z M 1.617,-8.841 L -3.849,-8.841 C -3.761,-8.608 -1.251,-2.396 -1.101,-2.01 C -0.948,-2.396 1.525,-8.608 1.617,-8.841" id="path2452" style="fill:#535353;fill-opacity:1;fill-rule:nonzero;stroke:none"/></g></g></g><g transform="translate(286.2213,359.6851)" id="g2454"><path d="M 0,0 L -22.27,0 L -22.27,-44.541 L 22.265,-44.541 L 22.265,-37.12 L 0,-37.12 L 0,0 z" id="path2456" style="fill:#d93718;fill-opacity:1;fill-rule:nonzero;stroke:none"/></g><g transform="translate(330.7602,367.1064)" id="g2458"><path d="M 0,0 L -44.539,0 L -44.539,-7.421 L -22.274,-7.421 L -22.274,-44.541 L 0,-44.541 L 0,0 z" id="path2460" style="fill:#8ac100;fill-opacity:1;fill-rule:nonzero;stroke:none"/></g><path d="M 308.486,322.566 L 286.221,322.566 L 286.221,359.686 L 308.486,359.686 L 308.486,322.566 z" id="path2462" style="fill:#ac3110;fill-opacity:1;fill-rule:nonzero;stroke:none"/><g transform="translate(291.3043,347.8006)" id="g2464"><path d="M 0,0 L 0,-1.779 L 5.046,-1.779 L 5.046,-14.098 L 7.057,-14.098 L 7.057,-1.779 L 12.103,-1.779 L 12.103,0 L 0,0 z" id="path2466" style="fill:#ffffff;fill-opacity:1;fill-rule:nonzero;stroke:none"/></g><g id="g2468"><g clip-path="url(#clipPath2472)" id="g2470"><g transform="translate(320.9055,347.8006)" id="g2476"><path d="M 0,0 L -2.074,0 L -8.08,-14.098 L -5.981,-14.098 C -5.981,-14.098 -4.58,-10.647 -4.535,-10.545 L 2.282,-10.545 C 2.328,-10.647 3.728,-14.098 3.728,-14.098 L 5.923,-14.098 L 0,0 z M 1.617,-8.841 L -3.849,-8.841 C -3.77,-8.608 -1.268,-2.396 -1.106,-2.01 C -0.956,-2.396 1.53,-8.608 1.617,-8.841" id="path2478" style="fill:#ffffff;fill-opacity:1;fill-rule:nonzero;stroke:none"/></g><g transform="translate(272.1145,346.0547)" id="g2480"><path d="M 0,0 L 0,-3.994 L 2.714,-3.994 C 5.678,-3.994 7.992,-5.158 7.992,-8.253 C 7.992,-11.507 5.382,-12.352 2.436,-12.352 L -2.049,-12.352 L -2.049,1.747 L 6.916,1.747 L 6.916,0 L 0,0 z M 0,-5.769 L 0,-10.598 L 2.544,-10.598 C 4.123,-10.598 5.902,-10.071 5.902,-8.253 C 5.902,-6.403 4.481,-5.769 2.781,-5.769 L 0,-5.769 z" id="path2482" style="fill:#ffffff;fill-opacity:1;fill-rule:nonzero;stroke:none"/></g></g></g></g></g></g></svg>