<svg xmlns="http://www.w3.org/2000/svg" xmlns:xlink="http://www.w3.org/1999/xlink" width="466.153" height="312.591" xmlns:v="https://vecta.io/nano"><path d="M91.93 86.57c-18.24 0-35.1 6.16-48.81 16.62V28.41H0v229.37h43.12v-13.26c13.7 10.46 30.57 16.62 48.81 16.62 45.92 0 83.16-39.07 83.16-87.29s-37.24-87.28-83.16-87.28zM87.8 218.53c-24.67 0-44.68-20.01-44.68-44.68s20.01-44.67 44.68-44.67 44.67 20 44.67 44.67-20 44.68-44.67 44.68zm377.92-68.84v108.08h-43.13V154.35c0-4.92-1.48-9.79-4.24-13.87-4.85-7.17-13.26-10.8-21.68-11.49-7.42-.61-15.79.76-22.31 4.5a30.72 30.72 0 0 0-6.01 4.5c-5.82 5.6-9.29 13.44-9.29 21.54v98.25h-43.13V90.86h43.13v8.99c0-2.59 11.78-7.57 13.9-8.47 5.49-2.32 11.33-3.75 17.25-4.4 38.68-4.26 75.49 21.87 75.49 62.72zm-169.61-16.91V90.85h-48.72V45.5h-14.25l-28.88 20.14v29.49l-29.18 22.75v14.9h29.18v65c0 6.07.66 12.14 2.17 18.01 9.36 36.48 42.09 45.33 60.44 45.33 20.32 0 29.25-6.55 29.25-6.55v-40.99s-7.53 5.96-26.8 5.96c-7.71 0-12.76-2.64-16.04-5.82-3.85-3.72-5.89-8.94-5.89-14.29v-66.66h48.72z" fill="#015bfd"/><path d="M456.61.45L321.89 51.79c-3.58 1.36-5.94 4.8-5.94 8.63v9c0 1.57 1.42 2.76 2.96 2.48L445 49.25c12-2.16 20.72-12.59 20.72-24.78V6.72c0-4.7-4.71-7.95-9.1-6.27z" fill="red"/><g fill="#015bfd"><path d="M15.487 288.654q2.297.418 3.776 2.241 1.479 1.823 1.479 4.178 0 2.127-1.09 3.76-1.051 1.595-3.075 2.507-2.024.912-4.788.912H.072v-26.51h11.211q2.764 0 4.749.874 2.024.874 3.036 2.431 1.051 1.557 1.051 3.532 0 2.317-1.285 3.874-1.246 1.557-3.348 2.203zm-9.965-1.975h4.983q1.946 0 2.997-.836 1.051-.874 1.051-2.469 0-1.595-1.051-2.469-1.051-.874-2.997-.874H5.522zm5.489 11.242q1.985 0 3.075-.912 1.129-.912 1.129-2.583 0-1.709-1.168-2.659-1.168-.987-3.153-.987H5.522v7.14z"/><use xlink:href="#B"/><use xlink:href="#C"/><path d="M89.994 302.251l-7.318-8.963v8.963h-5.45v-28.105h5.45v15.99l7.24-8.925h7.085l-9.498 10.558 9.576 10.483zm37.72-26.511v4.292h-7.24v22.218h-5.45v-22.218h-7.24v-4.292z"/><use xlink:href="#B" x="106.583"/><path d="M163.527 284.286q1.051-1.519 2.881-2.469 1.869-.95 4.243-.95 2.764 0 4.983 1.329 2.258 1.329 3.542 3.798 1.324 2.431 1.324 5.659 0 3.228-1.324 5.735-1.285 2.469-3.542 3.836-2.219 1.367-4.983 1.367-2.413 0-4.243-.912-1.791-.95-2.881-2.431v3h-5.45v-28.105h5.45zm11.406 7.368q0-1.899-.817-3.266-.779-1.405-2.102-2.127-1.285-.722-2.803-.722-1.479 0-2.803.76-1.285.722-2.102 2.127-.779 1.405-.779 3.304 0 1.899.779 3.304.817 1.405 2.102 2.165 1.324.722 2.803.722 1.518 0 2.803-.76 1.324-.76 2.102-2.165.817-1.405.817-3.342zm29.896-10.444v21.041h-5.489v-2.659q-1.051 1.367-2.764 2.165-1.674.76-3.659.76-2.53 0-4.477-1.025-1.946-1.063-3.075-3.076-1.09-2.051-1.09-4.861V281.21h5.45v11.584q0 2.507 1.285 3.874 1.285 1.329 3.503 1.329 2.258 0 3.542-1.329 1.285-1.367 1.285-3.874V281.21z"/><use xlink:href="#C" x="158.707"/><use xlink:href="#D"/><use xlink:href="#B" x="237.222"/><use xlink:href="#C" x="237.223"/><path d="M346.953 302.251h-5.45l-12.34-18.193v18.193h-5.45v-26.548h5.45l12.34 18.23v-18.23h5.45zm25.419-10.977q0 1.139-.156 2.051H356.45q.195 2.279 1.635 3.57 1.44 1.291 3.542 1.291 3.036 0 4.321-2.545h5.878q-.934 3.038-3.581 5.013-2.647 1.937-6.501 1.937-3.114 0-5.606-1.329-2.452-1.367-3.854-3.836-1.362-2.469-1.362-5.697 0-3.266 1.362-5.735 1.362-2.469 3.815-3.798 2.452-1.329 5.644-1.329 3.075 0 5.489 1.291 2.452 1.291 3.776 3.684 1.362 2.355 1.362 5.431zm-5.644-1.519q-.039-2.051-1.518-3.266-1.479-1.253-3.62-1.253-2.024 0-3.426 1.215-1.362 1.177-1.674 3.304z"/><use xlink:href="#D" x="140.411"/><use xlink:href="#B" x="377.633"/><path d="M434.578 284.476q1.051-1.671 2.725-2.621 1.713-.95 3.893-.95v5.583h-1.44q-2.569 0-3.893 1.177-1.285 1.177-1.285 4.102v10.483h-5.45V281.21h5.45z"/><use xlink:href="#B" x="419.752"/></g><defs ><path id="B" d="M23.701 291.654q0-3.19 1.285-5.659 1.324-2.469 3.542-3.798 2.258-1.329 5.022-1.329 2.413 0 4.204.95 1.83.95 2.92 2.393v-3h5.489v21.041h-5.489v-3.076q-1.051 1.481-2.92 2.469-1.83.95-4.243.95-2.725 0-4.983-1.367-2.219-1.367-3.542-3.836-1.285-2.507-1.285-5.735zm16.972.076q0-1.937-.779-3.304-.779-1.405-2.102-2.127-1.324-.76-2.842-.76-1.518 0-2.803.722-1.285.722-2.102 2.127-.779 1.367-.779 3.266 0 1.899.779 3.342.817 1.405 2.102 2.165 1.324.76 2.803.76 1.518 0 2.842-.722 1.324-.76 2.102-2.127.779-1.405.779-3.342z"/><path id="C" d="M63.445 280.906q3.854 0 6.228 2.393 2.375 2.355 2.375 6.609v12.344h-5.45v-11.622q0-2.507-1.285-3.836-1.285-1.367-3.503-1.367-2.258 0-3.581 1.367-1.285 1.329-1.285 3.836v11.622h-5.45V281.21h5.45v2.621q1.09-1.367 2.764-2.127 1.713-.798 3.737-.798z"/><path id="D" d="M244.379 280.868q2.413 0 4.243.95 1.83.912 2.881 2.393v-3h5.489v21.193q0 2.924-1.207 5.203-1.207 2.317-3.62 3.646-2.413 1.367-5.839 1.367-4.593 0-7.552-2.089-2.92-2.089-3.309-5.697h5.411q.428 1.443 1.83 2.279 1.44.874 3.465.874 2.375 0 3.854-1.405 1.479-1.367 1.479-4.178v-3.266q-1.051 1.481-2.92 2.469-1.83.987-4.204.987-2.725 0-4.983-1.367-2.258-1.367-3.581-3.836-1.285-2.507-1.285-5.735 0-3.19 1.285-5.659 1.324-2.469 3.542-3.798 2.258-1.329 5.022-1.329zm7.124 10.862q0-1.937-.779-3.304-.779-1.405-2.102-2.127-1.324-.76-2.842-.76-1.518 0-2.803.722-1.285.722-2.102 2.127-.779 1.367-.779 3.266 0 1.899.779 3.342.817 1.405 2.102 2.165 1.324.76 2.803.76 1.518 0 2.842-.722 1.324-.76 2.102-2.127.779-1.405.779-3.342z"/></defs></svg>