<?xml version="1.0" encoding="utf-8"?>
<!-- Generator: Adobe Illustrator 14.0.0, SVG Export Plug-In . SVG Version: 6.00 Build 43363)  -->
<!DOCTYPE svg PUBLIC "-//W3C//DTD SVG 1.1//EN" "http://www.w3.org/Graphics/SVG/1.1/DTD/svg11.dtd">
<svg version="1.1"
	 id="svg2474" xmlns:svg="http://www.w3.org/2000/svg" xmlns:dc="http://purl.org/dc/elements/1.1/" xmlns:inkscape="http://www.inkscape.org/namespaces/inkscape" xmlns:cc="http://web.resource.org/cc/" xmlns:sodipodi="http://sodipodi.sourceforge.net/DTD/sodipodi-0.dtd" xmlns:rdf="http://www.w3.org/1999/02/22-rdf-syntax-ns#" sodipodi:version="0.32" inkscape:version="0.45.1" sodipodi:docname="Roundel_of_Carabineros_de_Chile.svg" sodipodi:docbase="C:\Documents and Settings\B1mbo\Escritorio" inkscape:output_extension="org.inkscape.output.svg.inkscape"
	 xmlns="http://www.w3.org/2000/svg" xmlns:xlink="http://www.w3.org/1999/xlink" x="0px" y="0px" width="89.132px" height="100px"
	 viewBox="-27.888 -59.992 89.132 100" enable-background="new -27.888 -59.992 89.132 100" xml:space="preserve">
<sodipodi:namedview  id="base" gridtolerance="10.0" inkscape:cx="305.19971" objecttolerance="10.0" guidetolerance="10.0" inkscape:zoom="0.9667954" bordercolor="#666666" inkscape:cy="346.38011" borderopacity="1.0" pagecolor="#ffffff" inkscape:current-layer="svg2474" inkscape:window-y="-4" inkscape:window-x="-4" inkscape:window-width="1440" inkscape:pageshadow="2" inkscape:pageopacity="0.0" inkscape:window-height="851">
	</sodipodi:namedview>
<g>
	<rect x="-3.335" y="-0.4" fill="#0F5A2D" width="0.148" height="1.061"/>
	<g id="g2485_1_" transform="translate(-0.2597446,0.5324678)">
		<path id="path2487_1_" fill="#FFFFFF" d="M15.783,38.304c-2.006-2.465-5.523-5.282-8.401-6.729
			c-2.789-1.402-4.558-1.839-8.279-2.046c-7.498-0.418-13.829-2.773-18.41-6.853c-3.682-3.277-6.153-7.617-7.567-13.291
			c-0.808-3.238-1.002-4.863-1-8.365c0.002-4.698,0.641-7.862,2.446-12.116c2.931-6.909,4.501-12.394,4.666-16.308
			c0.098-2.31,0.023-2.569-2.527-8.812c-3.023-7.396-2.895-6.912-2.14-8.051c0.501-0.757,1.15-1.35,3.505-3.202
			c2.05-1.611,4.815-4.06,5.861-5.189c0.469-0.506,1.225-1.452,1.68-2.102c1.658-2.367,3.174-2.85,5.405-1.723
			c1.102,0.557,2.798,1.153,4.629,1.629c1.086,0.282,1.717,0.347,3.413,0.35L1.144-54.5l2.953-1.504
			c6.141-3.129,10.048-4.517,12.724-4.52c2.669-0.002,6.802,1.481,13.003,4.668l2.639,1.356l2.099-0.009
			c1.787-0.008,2.324-0.069,3.611-0.409c1.834-0.484,3.392-1.034,4.493-1.587c1.084-0.545,1.749-0.655,2.649-0.439
			c0.997,0.239,1.887,0.952,2.639,2.115c1.134,1.753,4.369,4.886,7.731,7.487c1.695,1.311,3.336,2.909,3.636,3.541
			c0.345,0.727,0.215,1.312-0.837,3.78c-0.493,1.157-1.608,3.87-2.477,6.027l-1.581,3.924l0.008,2.294
			c0.007,2.434,0.145,3.336,0.974,6.441c0.815,3.052,1.743,5.67,3.545,10.008c1.929,4.642,2.554,7.687,2.551,12.422
			c-0.003,3.435-0.206,5.086-1.018,8.34c-1.321,5.285-3.332,9.015-6.643,12.321c-3.564,3.56-8.21,5.949-13.808,7.103
			c-1.8,0.37-2.651,0.467-7.078,0.801c-2.321,0.175-3.965,0.618-6.144,1.654c-3.859,1.837-6.615,4.104-9.912,8.158
			C16.856,39.529,16.352,39.003,15.783,38.304z"/>
	</g>
	<g id="g2485" transform="translate(-0.2597446,0.5324678)">
		<path id="path2487" fill="#007328" d="M15.783,38.304c-2.006-2.465-5.523-5.282-8.401-6.729c-2.789-1.402-4.557-1.839-8.279-2.046
			c-7.498-0.418-13.829-2.773-18.41-6.853c-3.682-3.277-6.153-7.617-7.567-13.291c-0.808-3.238-1.002-4.863-1-8.365
			c0.002-4.698,0.641-7.862,2.446-12.116c2.931-6.909,4.501-12.394,4.666-16.308c0.098-2.31,0.023-2.569-2.527-8.812
			c-3.023-7.396-2.895-6.912-2.14-8.051c0.501-0.757,1.15-1.35,3.506-3.202c2.048-1.611,4.813-4.06,5.859-5.189
			c0.469-0.506,1.225-1.452,1.68-2.102c1.658-2.367,3.174-2.85,5.405-1.723c1.102,0.557,2.798,1.153,4.629,1.629
			c1.086,0.282,1.717,0.347,3.413,0.35L1.144-54.5l2.953-1.504c6.142-3.129,10.048-4.517,12.724-4.52
			c2.668-0.002,6.801,1.481,13.002,4.668l2.639,1.356l2.099-0.009c1.787-0.008,2.324-0.069,3.611-0.409
			c1.834-0.484,3.392-1.034,4.493-1.587c1.084-0.545,1.749-0.655,2.649-0.439c0.997,0.239,1.887,0.952,2.639,2.115
			c1.134,1.753,4.369,4.886,7.731,7.487c1.695,1.311,3.336,2.909,3.636,3.541c0.345,0.727,0.215,1.312-0.837,3.78
			c-0.493,1.157-1.608,3.87-2.477,6.027l-1.581,3.924l0.008,2.294c0.007,2.434,0.145,3.336,0.974,6.441
			c0.815,3.052,1.743,5.67,3.545,10.008c1.929,4.642,2.554,7.687,2.551,12.422c-0.003,3.435-0.206,5.086-1.018,8.34
			c-1.321,5.285-3.332,9.015-6.643,12.321c-3.564,3.56-8.21,5.949-13.808,7.103c-1.8,0.37-2.651,0.467-7.078,0.801
			c-2.321,0.175-3.965,0.618-6.144,1.654c-3.859,1.837-6.615,4.104-9.912,8.158C16.856,39.529,16.352,39.003,15.783,38.304z
			 M18.244,35.945c3.604-3.689,7.763-6.234,11.833-7.24c1.1-0.272,2.246-0.423,3.959-0.52c3.867-0.22,5.268-0.438,8.25-1.282
			c6.763-1.915,12.108-6.25,14.866-12.053c2.207-4.642,3.376-10.848,2.978-15.789c-0.331-4.097-0.922-6.362-2.836-10.883
			c-3.327-7.854-4.872-14.757-4.107-18.353c0.147-0.694,3.012-8.09,3.382-8.733c0.184-0.32,1.326-3.17,1.495-3.729
			c0.172-0.571-0.119-1.105-1.009-1.85c-0.387-0.324-1.936-1.608-3.441-2.853c-3.296-2.726-5.293-4.682-6.404-6.273
			c-0.988-1.416-1.344-1.758-2.064-1.989c-0.622-0.199-1.553-0.018-2.193,0.427c-0.411,0.286-1.923,0.876-3.419,1.334
			c-1.616,0.495-3.382,0.776-4.946,0.789c-1.705,0.013-2.829-0.211-3.776-0.754c-2.821-1.619-7.561-3.771-10.363-4.707
			c-1.626-0.542-1.79-0.568-3.627-0.568s-2.001,0.025-3.618,0.566c-2.85,0.953-8.38,3.44-10.187,4.581
			c-2.188,1.381-6.233,1.161-10.921-0.595c-0.57-0.213-1.203-0.502-1.407-0.642c-0.601-0.41-1.416-0.616-2.006-0.505
			c-0.71,0.133-1.382,0.737-2.215,1.991c-1.163,1.749-4.849,5.19-8.9,8.311c-1.394,1.074-2.028,1.806-2.013,2.328
			c0.011,0.368,0.811,2.423,3.81,9.789c0.514,1.262,1.007,2.69,1.096,3.173c0.682,3.707-0.756,10.124-4.037,18.022
			c-1.66,3.999-2.101,5.372-2.53,7.872c-0.947,5.524-0.466,10.795,1.5,16.444c2.526,7.262,8.027,12.342,15.8,14.592
			c3.083,0.893,4.363,1.095,8.453,1.334c1.839,0.107,2.917,0.25,3.998,0.528c4.08,1.05,8.312,3.662,11.696,7.217
			c0.733,0.771,1.374,1.409,1.425,1.42C16.814,37.359,17.48,36.727,18.244,35.945z M15.234,34.323
			c-2.42-2.343-4.772-3.977-7.593-5.275c-2.942-1.354-4.516-1.718-8.573-1.978c-4.177-0.268-6.652-0.773-9.786-1.998
			c-7.504-2.934-11.895-8.185-13.921-16.65c-1.057-4.415-1.084-10.284-0.066-14.287c0.406-1.598,0.872-2.895,1.915-5.33
			c1.828-4.272,3.126-8.2,3.888-11.77c0.434-2.026,0.476-2.455,0.479-4.886l0.002-2.665l-0.607-1.555
			c-0.334-0.855-1.382-3.475-2.331-5.822c-1.774-4.396-1.945-5.046-1.492-5.693c0.126-0.181,0.776-0.744,1.444-1.252
			c3.887-2.958,7.542-6.443,9.007-8.589c0.319-0.467,0.786-0.956,1.037-1.086c0.436-0.226,0.489-0.218,1.216,0.163
			c1.176,0.616,4.234,1.661,5.911,2.019c1.113,0.238,2.021,0.323,3.437,0.324c1.746,0,2.029-0.038,3.036-0.414
			c0.611-0.228,1.295-0.545,1.521-0.705c0.596-0.421,5.396-2.713,7.214-3.446c2.822-1.136,4.183-1.481,5.848-1.481
			c1.688,0,2.658,0.245,5.672,1.433c1.898,0.748,6.274,2.832,7.43,3.537c1.799,1.098,4.164,1.395,7.107,0.892
			c1.945-0.333,5.401-1.417,6.466-2.029c0.657-0.377,1.226-0.448,1.673-0.209c0.149,0.08,0.654,0.691,1.122,1.358
			c0.974,1.39,2.998,3.468,5.248,5.387c0.855,0.729,1.587,1.364,1.628,1.412s0.774,0.637,1.629,1.31
			c0.854,0.673,1.638,1.331,1.739,1.46c0.438,0.561,0.248,1.34-1.148,4.696c-1.778,4.274-3.106,7.713-3.272,8.473
			c-0.256,1.168-0.213,3.964,0.085,5.666c0.755,4.304,1.99,8.234,4.319,13.736c1.822,4.306,2.392,6.777,2.528,10.945
			c0.278,8.598-2.625,16.48-7.693,20.879c-2.936,2.551-6.607,4.371-10.819,5.365c-2.417,0.57-3.482,0.717-6.023,0.825
			c-3.497,0.149-5.68,0.651-8.513,1.961c-2.873,1.327-5.128,2.899-7.626,5.311l-1.555,1.502L15.234,34.323z"/>
	</g>
	<g>
		<path fill="#FFFFFF" d="M-11.346-40.736l0.972,0.453c-0.15,0.797-0.397,1.388-0.743,1.774c-0.347,0.387-0.786,0.58-1.318,0.58
			c-0.659,0-1.201-0.331-1.625-0.993c-0.425-0.662-0.637-1.567-0.637-2.715c0-1.214,0.212-2.157,0.639-2.83
			c0.427-0.671,0.988-1.007,1.683-1.007c0.607,0,1.101,0.264,1.479,0.791c0.226,0.312,0.396,0.76,0.508,1.344l-0.992,0.349
			c-0.059-0.378-0.181-0.677-0.367-0.896c-0.186-0.219-0.413-0.329-0.679-0.329c-0.368,0-0.667,0.194-0.896,0.582
			c-0.229,0.389-0.344,1.018-0.344,1.887c0,0.922,0.113,1.579,0.338,1.971c0.226,0.392,0.519,0.587,0.88,0.587
			c0.267,0,0.497-0.125,0.688-0.374C-11.566-39.811-11.429-40.202-11.346-40.736z"/>
		<path fill="#FFFFFF" d="M-5.038-38.054h-1.091l-0.433-1.657h-1.984l-0.409,1.657h-1.064l1.934-7.296h1.06L-5.038-38.054z
			 M-6.884-40.94l-0.683-2.708l-0.67,2.708H-6.884z"/>
		<path fill="#FFFFFF" d="M-4.503-38.054v-7.296h2.108c0.531,0,0.916,0.065,1.156,0.197c0.241,0.13,0.433,0.363,0.578,0.699
			c0.145,0.334,0.217,0.718,0.217,1.149c0,0.547-0.109,0.999-0.328,1.356c-0.219,0.356-0.546,0.581-0.981,0.674
			c0.215,0.186,0.396,0.39,0.536,0.612c0.142,0.222,0.332,0.617,0.571,1.185l0.606,1.423h-1.198l-0.725-1.587
			c-0.258-0.567-0.434-0.925-0.528-1.073c-0.095-0.148-0.195-0.249-0.302-0.304C-2.899-41.072-3.068-41.1-3.298-41.1h-0.203v3.046
			H-4.503z M-3.501-42.264h0.741c0.48,0,0.781-0.03,0.9-0.09c0.12-0.06,0.214-0.163,0.281-0.309s0.101-0.328,0.101-0.547
			c0-0.246-0.045-0.444-0.133-0.595c-0.089-0.151-0.215-0.247-0.378-0.286c-0.081-0.017-0.324-0.025-0.73-0.025h-0.782V-42.264z"/>
		<path fill="#FFFFFF" d="M4.977-38.054H3.885l-0.432-1.657H1.469L1.06-38.054h-1.063l1.933-7.296h1.061L4.977-38.054z M3.131-40.94
			l-0.684-2.708L1.777-40.94H3.131z"/>
		<path fill="#FFFFFF" d="M5.511-45.35h1.984c0.392,0,0.686,0.024,0.879,0.072c0.192,0.048,0.365,0.148,0.518,0.301
			c0.152,0.153,0.279,0.356,0.38,0.61c0.102,0.253,0.153,0.539,0.153,0.853c0,0.342-0.063,0.656-0.188,0.941
			c-0.126,0.285-0.295,0.499-0.51,0.642c0.303,0.129,0.535,0.35,0.697,0.662c0.163,0.312,0.244,0.679,0.244,1.1
			c0,0.332-0.053,0.655-0.157,0.969c-0.105,0.313-0.249,0.564-0.431,0.751c-0.182,0.188-0.405,0.303-0.672,0.346
			c-0.167,0.027-0.57,0.043-1.208,0.05H5.511V-45.35z M6.514-44.136v1.688H7.17c0.391,0,0.634-0.008,0.729-0.025
			c0.171-0.03,0.305-0.117,0.404-0.261c0.098-0.145,0.147-0.334,0.147-0.57c0-0.226-0.042-0.409-0.127-0.55
			c-0.084-0.142-0.21-0.227-0.377-0.257c-0.1-0.017-0.385-0.025-0.856-0.025H6.514z M6.514-41.234v1.951h0.928
			c0.36,0,0.589-0.016,0.687-0.045c0.149-0.04,0.271-0.137,0.364-0.291c0.094-0.154,0.141-0.361,0.141-0.62
			c0-0.219-0.036-0.405-0.109-0.557c-0.072-0.153-0.177-0.264-0.313-0.333c-0.137-0.07-0.433-0.104-0.889-0.104H6.514z"/>
		<path fill="#FFFFFF" d="M10.484-38.054v-7.296h1.002v7.296H10.484z"/>
		<path fill="#FFFFFF" d="M12.452-38.054v-7.296h0.975l2.031,4.873v-4.873h0.93v7.296h-1.004l-2.001-4.757v4.757H12.452z"/>
		<path fill="#FFFFFF" d="M17.449-38.054v-7.296h3.68v1.234h-2.678v1.618h2.492v1.229h-2.492v1.986h2.773v1.229H17.449z"/>
		<path fill="#FFFFFF" d="M22.077-38.054v-7.296h2.108c0.531,0,0.916,0.065,1.156,0.197c0.241,0.13,0.433,0.363,0.578,0.699
			c0.145,0.334,0.217,0.718,0.217,1.149c0,0.547-0.109,0.999-0.328,1.356c-0.219,0.356-0.546,0.581-0.981,0.674
			c0.217,0.186,0.396,0.39,0.536,0.612c0.142,0.222,0.332,0.617,0.571,1.185l0.606,1.423H25.34l-0.724-1.587
			c-0.258-0.567-0.434-0.925-0.528-1.073c-0.095-0.148-0.195-0.249-0.302-0.304c-0.105-0.055-0.274-0.082-0.504-0.082h-0.203v3.046
			H22.077z M23.079-42.264h0.741c0.48,0,0.781-0.03,0.9-0.09c0.12-0.06,0.213-0.163,0.281-0.309
			c0.067-0.146,0.101-0.328,0.101-0.547c0-0.246-0.045-0.444-0.133-0.595c-0.089-0.151-0.215-0.247-0.378-0.286
			c-0.081-0.017-0.324-0.025-0.73-0.025h-0.782V-42.264z"/>
		<path fill="#FFFFFF" d="M26.878-41.657c0-0.743,0.075-1.367,0.226-1.872c0.114-0.372,0.267-0.705,0.462-1
			c0.195-0.295,0.409-0.514,0.642-0.657c0.309-0.192,0.666-0.288,1.07-0.288c0.73,0,1.315,0.333,1.755,1s0.658,1.594,0.658,2.782
			c0,1.178-0.218,2.1-0.653,2.765c-0.436,0.666-1.018,0.998-1.747,0.998c-0.737,0-1.324-0.331-1.76-0.993
			C27.096-39.584,26.878-40.496,26.878-41.657z M27.91-41.707c0,0.826,0.13,1.452,0.39,1.879c0.259,0.426,0.589,0.639,0.989,0.639
			s0.728-0.211,0.983-0.634c0.256-0.423,0.385-1.058,0.385-1.903c0-0.837-0.125-1.46-0.375-1.872
			c-0.249-0.411-0.581-0.617-0.993-0.617c-0.413,0-0.746,0.208-0.999,0.625S27.91-42.546,27.91-41.707z"/>
		<path fill="#FFFFFF" d="M32.219-40.427l0.976-0.14c0.059,0.481,0.178,0.834,0.357,1.06c0.179,0.225,0.421,0.338,0.725,0.338
			c0.324,0,0.567-0.101,0.73-0.301c0.164-0.201,0.246-0.436,0.246-0.704c0-0.172-0.035-0.319-0.104-0.44
			c-0.069-0.121-0.19-0.227-0.36-0.316c-0.118-0.06-0.385-0.166-0.803-0.319c-0.537-0.196-0.914-0.436-1.131-0.722
			c-0.305-0.401-0.457-0.891-0.457-1.468c0-0.372,0.071-0.719,0.214-1.042c0.144-0.324,0.35-0.57,0.621-0.739
			c0.27-0.169,0.595-0.253,0.977-0.253c0.623,0,1.092,0.2,1.406,0.602c0.315,0.402,0.48,0.937,0.496,1.607L35.111-43.2
			c-0.043-0.375-0.135-0.645-0.276-0.809c-0.141-0.164-0.353-0.247-0.635-0.247c-0.291,0-0.518,0.089-0.683,0.264
			c-0.106,0.113-0.159,0.264-0.159,0.453c0,0.173,0.049,0.32,0.149,0.443c0.126,0.156,0.433,0.318,0.921,0.487
			c0.487,0.169,0.848,0.345,1.081,0.525c0.234,0.181,0.417,0.428,0.548,0.741c0.132,0.314,0.199,0.701,0.199,1.163
			c0,0.418-0.08,0.81-0.237,1.174c-0.159,0.365-0.382,0.637-0.67,0.814c-0.29,0.177-0.649,0.266-1.08,0.266
			c-0.628,0-1.109-0.213-1.446-0.64C32.486-38.99,32.285-39.611,32.219-40.427z"/>
		<path fill="#FFFFFF" d="M39.021-45.35h1.832c0.413,0,0.728,0.046,0.944,0.14c0.292,0.126,0.541,0.35,0.748,0.672
			c0.208,0.322,0.367,0.716,0.475,1.182c0.107,0.466,0.162,1.041,0.162,1.725c0,0.601-0.051,1.118-0.153,1.553
			c-0.124,0.531-0.301,0.961-0.531,1.289c-0.174,0.249-0.409,0.443-0.704,0.583c-0.222,0.103-0.518,0.154-0.888,0.154h-1.886V-45.35
			z M40.023-44.116v4.833h0.748c0.28,0,0.482-0.023,0.606-0.07c0.163-0.06,0.298-0.161,0.404-0.304
			c0.107-0.143,0.195-0.377,0.263-0.704s0.101-0.772,0.101-1.336c0-0.564-0.034-0.997-0.101-1.299
			c-0.067-0.302-0.162-0.538-0.284-0.707c-0.122-0.169-0.276-0.283-0.464-0.343c-0.141-0.046-0.414-0.07-0.823-0.07H40.023z"/>
		<path fill="#FFFFFF" d="M44.032-38.054v-7.296h3.681v1.234h-2.679v1.618h2.492v1.229h-2.492v1.986h2.773v1.229H44.032z"/>
		<path fill="#FFFFFF" d="M10.44-31.169l0.972,0.453c-0.148,0.796-0.396,1.388-0.744,1.774c-0.346,0.387-0.786,0.58-1.318,0.58
			c-0.659,0-1.201-0.33-1.625-0.993c-0.425-0.662-0.637-1.567-0.637-2.714c0-1.215,0.213-2.158,0.64-2.83
			c0.426-0.672,0.987-1.008,1.683-1.008c0.607,0,1.101,0.264,1.479,0.791c0.226,0.312,0.395,0.76,0.508,1.344l-0.991,0.349
			c-0.06-0.378-0.182-0.677-0.368-0.896c-0.186-0.219-0.412-0.328-0.679-0.328c-0.368,0-0.666,0.194-0.896,0.582
			c-0.229,0.388-0.344,1.017-0.344,1.886c0,0.922,0.113,1.58,0.339,1.971c0.226,0.392,0.52,0.588,0.88,0.588
			c0.267,0,0.496-0.125,0.688-0.373C10.22-30.244,10.357-30.635,10.44-31.169z"/>
		<path fill="#FFFFFF" d="M12.275-28.487v-7.297h1.002v2.872h1.964v-2.872h1.002v7.297h-1.002v-3.19h-1.964v3.19H12.275z"/>
		<path fill="#FFFFFF" d="M17.249-28.487v-7.297h1.002v7.297H17.249z"/>
		<path fill="#FFFFFF" d="M19.233-28.487v-7.237h1.002v6.007h2.491v1.229H19.233z"/>
		<path fill="#FFFFFF" d="M23.441-28.487v-7.297h3.679v1.234h-2.677v1.618h2.492v1.229h-2.492v1.986h2.772v1.229H23.441z"/>
	</g>
	<rect x="-6.118" y="16.047" fill="#FFFFFF" width="45.305" height="7.254"/>
	<g>
		<path fill="#007328" d="M-4.773,19.698c0-0.396,0.057-0.729,0.168-0.999c0.083-0.198,0.197-0.377,0.341-0.534
			c0.145-0.158,0.303-0.275,0.474-0.352C-3.563,17.71-3.299,17.659-3,17.659c0.54,0,0.972,0.179,1.296,0.535
			c0.324,0.355,0.486,0.852,0.486,1.486c0,0.629-0.161,1.122-0.482,1.476c-0.321,0.355-0.752,0.533-1.29,0.533
			c-0.545,0-0.979-0.177-1.301-0.53C-4.612,20.806-4.773,20.319-4.773,19.698z M-4.011,19.671c0,0.441,0.096,0.776,0.288,1.004
			c0.191,0.228,0.435,0.342,0.729,0.342s0.537-0.113,0.727-0.339c0.189-0.226,0.284-0.565,0.284-1.018
			c0-0.446-0.093-0.779-0.276-0.999c-0.185-0.22-0.429-0.33-0.734-0.33c-0.305,0-0.551,0.111-0.737,0.333
			C-3.917,18.887-4.011,19.223-4.011,19.671z"/>
		<path fill="#007328" d="M-0.638,21.623v-3.897H0.92c0.392,0,0.676,0.035,0.854,0.105c0.177,0.07,0.319,0.194,0.426,0.373
			c0.106,0.18,0.16,0.384,0.16,0.614c0,0.293-0.082,0.534-0.242,0.725c-0.162,0.19-0.403,0.311-0.726,0.36
			c0.16,0.1,0.292,0.208,0.396,0.327c0.104,0.118,0.244,0.329,0.421,0.633l0.448,0.76H1.772l-0.535-0.848
			c-0.189-0.304-0.319-0.494-0.39-0.573s-0.145-0.133-0.223-0.162s-0.202-0.044-0.372-0.044h-0.15v1.627H-0.638z M0.103,19.374H0.65
			c0.354,0,0.576-0.016,0.665-0.047c0.088-0.033,0.157-0.087,0.207-0.166c0.049-0.077,0.075-0.175,0.075-0.292
			c0-0.131-0.033-0.237-0.099-0.317C1.434,18.47,1.34,18.419,1.22,18.398c-0.06-0.008-0.24-0.013-0.54-0.013H0.103V19.374z"/>
		<path fill="#007328" d="M3.055,17.725h1.353c0.305,0,0.537,0.025,0.697,0.075c0.215,0.067,0.399,0.187,0.553,0.358
			s0.271,0.383,0.35,0.632c0.08,0.249,0.12,0.556,0.12,0.921c0,0.32-0.037,0.598-0.112,0.83c-0.092,0.283-0.223,0.513-0.393,0.688
			c-0.128,0.133-0.302,0.237-0.52,0.312c-0.164,0.055-0.382,0.082-0.656,0.082H3.055V17.725z M3.796,18.385v2.581h0.552
			c0.207,0,0.356-0.013,0.448-0.037c0.12-0.032,0.219-0.086,0.299-0.162c0.079-0.076,0.144-0.202,0.193-0.376
			c0.05-0.175,0.075-0.413,0.075-0.714c0-0.302-0.025-0.533-0.075-0.694s-0.12-0.287-0.21-0.377
			c-0.09-0.091-0.204-0.152-0.343-0.184c-0.103-0.025-0.306-0.037-0.608-0.037H3.796z"/>
		<path fill="#007328" d="M6.756,21.623v-3.897h2.717v0.66H7.496v0.863h1.84v0.657h-1.84v1.061h2.047v0.656H6.756z"/>
		<path fill="#007328" d="M10.179,21.623v-3.897h0.72l1.501,2.604v-2.604h0.688v3.897h-0.743l-1.478-2.541v2.541H10.179z"/>
		<path fill="#007328" d="M16.162,21.623v-1.64l-1.343-2.258h0.869l0.862,1.542l0.845-1.542h0.853l-1.348,2.263v1.635H16.162z"/>
		<path fill="#007328" d="M19.945,21.623v-3.897h1.188c0.45,0,0.743,0.02,0.88,0.059c0.21,0.059,0.386,0.186,0.527,0.382
			c0.142,0.195,0.212,0.448,0.212,0.759c0,0.239-0.041,0.44-0.123,0.604c-0.081,0.163-0.185,0.292-0.31,0.384
			c-0.126,0.094-0.254,0.155-0.384,0.186c-0.177,0.037-0.432,0.056-0.767,0.056h-0.483v1.47H19.945z M20.685,18.385v1.105h0.405
			c0.292,0,0.487-0.021,0.585-0.062c0.099-0.04,0.176-0.104,0.231-0.19c0.056-0.088,0.084-0.188,0.084-0.304
			c0-0.142-0.039-0.259-0.117-0.351c-0.079-0.093-0.178-0.15-0.298-0.173c-0.089-0.018-0.266-0.026-0.532-0.026H20.685z"/>
		<path fill="#007328" d="M26.285,21.623H25.48l-0.32-0.885h-1.465l-0.303,0.885h-0.785l1.427-3.897h0.784L26.285,21.623z
			 M24.923,20.081l-0.505-1.445l-0.495,1.445H24.923z"/>
		<path fill="#007328" d="M27.123,21.623v-3.237h-1.087v-0.66h2.913v0.66h-1.085v3.237H27.123z"/>
		<path fill="#007328" d="M29.429,21.623v-3.897h1.558c0.391,0,0.677,0.035,0.854,0.105c0.178,0.07,0.32,0.194,0.427,0.373
			c0.106,0.18,0.16,0.384,0.16,0.614c0,0.293-0.081,0.534-0.243,0.725c-0.162,0.19-0.404,0.311-0.725,0.36
			c0.16,0.1,0.292,0.208,0.396,0.327c0.104,0.118,0.244,0.329,0.421,0.633l0.448,0.76h-0.886l-0.536-0.848
			c-0.189-0.304-0.32-0.494-0.389-0.573c-0.071-0.079-0.145-0.133-0.223-0.162s-0.203-0.044-0.373-0.044h-0.149v1.627H29.429z
			 M30.169,19.374h0.546c0.356,0,0.578-0.016,0.666-0.047c0.089-0.033,0.158-0.087,0.208-0.166c0.05-0.077,0.075-0.175,0.075-0.292
			c0-0.131-0.033-0.237-0.099-0.317c-0.066-0.081-0.16-0.132-0.279-0.153c-0.06-0.008-0.24-0.013-0.54-0.013h-0.577V19.374z"/>
		<path fill="#007328" d="M33.102,21.623v-3.897h0.74v3.897H33.102z"/>
		<path fill="#007328" d="M37.853,21.623h-0.806l-0.32-0.885h-1.465l-0.303,0.885h-0.785l1.427-3.897h0.784L37.853,21.623z
			 M36.489,20.081l-0.504-1.445l-0.495,1.445H36.489z"/>
	</g>
	<path fill="#FFFFFF" d="M-15.882,14.553"/>
	<polygon fill="#FFFFFF" points="-15.716,13.64 -4.334,13.64 -4.334,15.256 -7.007,15.256 -7.007,21.051 -15.716,21.051 
		-9.831,17.144 	"/>
	<polygon fill="#FFFFFF" points="48.816,13.657 37.436,13.657 37.436,15.274 40.107,15.274 40.107,21.069 48.816,21.069 
		42.931,17.162 	"/>
	<g>
		<path fill="#FFFFFF" d="M45.979-33.354c0.177-0.562,0.395-1.192,0.946-1.486c0.709-0.27,1.293,0.351,1.754,0.796
			c0.337-0.156,0.678-0.302,1.025-0.441c0.071,0.373,0.136,0.748,0.185,1.125c-2.602,1.237-5.211,2.455-7.814,3.689
			c0.037,0.112,0.111,0.339,0.148,0.452c2.301-0.912,4.575-1.885,6.875-2.793c0.203,0.339,0.415,0.675,0.631,1.007
			c-3.246,1.513-6.503,3.001-9.754,4.5c-0.643,0.312-0.889,1.094-1.542,1.393c-1.932,0.979-3.883,1.922-5.788,2.947
			c-0.187,1.251-0.665,2.435-1.132,3.601c-0.577,1.356-1.206,2.693-1.918,3.986c0.431,0.114,0.862,0.225,1.295,0.336
			c-0.049,0.592-0.118,1.182-0.155,1.775c1.257,1.478,2.513,2.961,3.801,4.411c1.005,0.195,2.049,0.106,3.067,0.218
			c0.142,0.005,0.272,0.049,0.389,0.133c4.011,2.809,8.022,5.619,12.036,8.425c0.417,0.319,1.073,0.552,1.093,1.17
			c-0.036,0.575-0.477,1.062-0.957,1.341c-1.429,0.638-2.246,2.057-3.023,3.339c-0.541,0.89-0.839,1.947-1.599,2.689
			c-0.271,0.263-0.731,0.316-1.002,0.025c-0.513-0.431-1.027-0.856-1.535-1.291c-2.219,1.617-4.896,2.612-7.637,2.778
			c-0.893,0.001-1.787,0.018-2.679-0.013c-2.801-0.241-5.515-1.107-8.063-2.272c-3.045-1.412-5.88-3.259-8.454-5.407
			C11.86,6.256,6.752,8.621,1.33,8.822c-3.498,0.104-7.063-0.704-10.055-2.56c-0.662,0.847-1.394,1.638-2.068,2.476
			c-0.325,0.428-0.832,0.688-1.344,0.818c-0.441,0.135-0.86-0.271-0.883-0.695c-0.052-0.718-0.333-1.394-0.714-1.997
			c-0.755-1.187-1.741-2.203-2.781-3.141c-0.443-0.456-1.249-0.484-1.479-1.152c-0.191-0.66,0.235-1.361,0.715-1.794
			c3.688-2.587,7.387-5.158,11.081-7.734c0.563-0.361,1.067-0.817,1.659-1.128c1.115-0.138,2.252-0.033,3.362-0.212
			c1.231-1.441,2.329-3.013,3.518-4.497c-0.078-0.595-0.169-1.189-0.259-1.783c0.605-0.188,1.222-0.339,1.819-0.549
			c-1.301-2.101-1.925-4.524-2.457-6.911c-2.417-1.134-4.808-2.323-7.217-3.474c-0.545-0.251-0.566-1.005-1.056-1.311
			c-3.308-1.479-6.617-2.955-9.916-4.45c0.038-0.329,0.079-0.657,0.125-0.986c2.435,0.993,4.81,2.132,7.242,3.13
			c0.119-0.126,0.237-0.252,0.357-0.376c-2.703-1.408-5.456-2.72-8.145-4.152c0.092-0.334,0.181-0.669,0.271-1.004
			c0.59,0.105,1.181,0.193,1.772,0.281c0.456-0.295,1.059-0.519,1.577-0.25c0.527,0.316,0.709,0.945,0.852,1.501
			c9.754,4.218,19.483,8.492,29.235,12.713c6.881-3.022,13.765-6.042,20.647-9.061C40.114-30.777,43.068-32.021,45.979-33.354
			 M3.656-20.552c0.323,1.701,1.018,3.316,1.839,4.833c0.232-0.093,0.496-0.162,0.637-0.388c0.401-0.539,0.915-0.973,1.421-1.408
			c0.295,0.163,0.588,0.324,0.883,0.487c0.264-0.105,0.524-0.213,0.784-0.326C7.394-18.465,5.52-19.504,3.656-20.552 M24.318-17.355
			c0.267,0.114,0.537,0.224,0.81,0.327c0.297-0.161,0.593-0.323,0.888-0.487c0.57,0.487,1.146,0.983,1.561,1.618
			c0.167,0.055,0.336,0.111,0.505,0.167c0.781-1.532,1.522-3.115,1.825-4.819C28.022-19.524,26.177-18.429,24.318-17.355
			 M10.737-10.86c0.409,1.221,0.159,2.624-0.643,3.63c-0.106,0.169-0.287,0.311-0.33,0.512c0.289,0.575,0.699,1.077,1.085,1.588
			c1.617,1.98,3.512,3.716,5.465,5.356c2.548-2.011,4.698-4.532,6.246-7.388c-1.243-0.814-1.27-2.455-1.101-3.774
			c-1.702-0.933-3.374-1.921-5.069-2.866C14.495-12.846,12.604-11.879,10.737-10.86 M7.71-9.867c0.14,0.614,0.229,1.269,0.592,1.802
			c0.252,0.038,0.455-0.203,0.645-0.337c0.593-0.539,0.539-1.424,0.374-2.138C8.783-10.318,8.246-10.092,7.71-9.867 M23.199-10.542
			c-0.342,0.939-0.049,2.236,1.021,2.526c0.302-0.579,0.484-1.211,0.551-1.86C24.254-10.113,23.718-10.31,23.199-10.542
			 M5.177-8.146c0.475,0.392,1.121,0.313,1.69,0.284C6.677-8.277,6.482-8.69,6.296-9.104C5.909-8.801,5.536-8.482,5.177-8.146
			 M26.215-9.091c-0.198,0.409-0.397,0.817-0.592,1.226c0.567,0.018,1.242,0.141,1.695-0.293
			C26.972-8.493,26.594-8.793,26.215-9.091 M3.272-6.372c0.049,0.653-0.044,1.356-0.502,1.86c-0.75,0.951-2.062,1.134-3.2,1.114
			c-2.34,2.65-4.656,5.325-6.977,7.993c1.243,0.882,2.651,1.543,4.14,1.885c2.938,0.714,6.027,0.317,8.888-0.554
			c2.999-0.938,5.827-2.384,8.433-4.132c-0.669-0.585-1.369-1.145-1.939-1.831c-1.692-1.818-3.257-3.753-4.773-5.72
			C6.057-5.647,4.872-6.352,3.951-7.184C3.705-6.929,3.478-6.66,3.272-6.372 M25.033-5.761c-2.095,2.642-4.154,5.358-6.721,7.564
			c2.101,1.624,4.402,2.977,6.78,4.149c2.896,1.388,6.013,2.456,9.245,2.581c2.453,0.098,4.952-0.536,6.98-1.942
			c-2.817-3.342-5.677-6.649-8.508-9.979c-1.162,0.008-2.518-0.178-3.263-1.176c-0.419-0.504-0.473-1.173-0.434-1.801
			c-0.221-0.279-0.447-0.55-0.688-0.808C27.491-6.363,26.323-5.638,25.033-5.761L25.033-5.761z"/>
	</g>
</g>
</svg>
