<svg id="Layer_1" data-name="Layer 1" xmlns="http://www.w3.org/2000/svg" viewBox="0 0 563.54 268.74"><defs><style>.cls-1{fill:#dc0028;}</style></defs><title>GCO_C_Pos_RGB_ESP</title><path class="cls-1" d="M105.24,120.88c14.09,13.67,19.58,36.68,22,45.75a10,10,0,1,0,19.23-5.15c-2.44-9.08-9.19-31.74-3.82-50.62,4.79-19,22-35.29,28.61-41.93A10,10,0,1,0,157.2,54.85c-6.64,6.64-22.89,23.82-41.93,28.61h0c-18.88,5.37-41.55-1.38-50.62-3.81A10,10,0,1,0,59.5,98.88c9.07,2.43,32.07,7.91,45.74,22Z"/><path class="cls-1" d="M232.74,105.57A31.58,31.58,0,0,1,219,108.48c-14.58,0-23.8-8.2-23.8-26.13s9.94-26.12,25.25-26.12a43.9,43.9,0,0,1,11.39,1.53V71.54h-6.74V65l-1.24-1.23a24.08,24.08,0,0,0-3.41-.29c-10,0-13.06,6.67-13.06,17.85,0,12.84,3.05,19.59,13.64,19.59a28.2,28.2,0,0,0,3.63-.15l1.31-1.3v-7h6.75Z"/><path class="cls-1" d="M272.86,107.75H261.32c-2.9,0-3.34-1.67-3.34-3.19V103.4h-.36c-1.16,1.3-4.72,5.08-10.3,5.08-8.35,0-11-5.3-11-11.54,0-6.82,5-10.81,12.84-10.81h8.2V82.65c0-4.21-.22-7.26-6.46-7.26a26.34,26.34,0,0,0-3.26.22l-1.09,1.09v5.07h-6.75V70.67a54,54,0,0,1,15-2.1c10.38,0,13.57,5.59,13.57,12.33v20.25l1.31,1.3h3.19Zm-15.53-9.43V92h-5.15c-3.34,0-4.86,1.46-4.86,3.85,0,3.05,1,4.43,4.42,4.43A10.13,10.13,0,0,0,257.33,98.32Z"/><path class="cls-1" d="M290.13,74.74v26.41l1.3,1.3h7v5.3a71.07,71.07,0,0,1-9.79.73c-6.32,0-9.58-2.33-9.58-9V74.74h-4.5v-5.3h3.19l1.31-1.31,4.13-9h6.9v10.3h8.12v5.3Z"/><path class="cls-1" d="M336.78,107.75H325.24c-2.9,0-3.33-1.67-3.33-3.19V103.4h-.37c-1.16,1.3-4.71,5.08-10.3,5.08-8.34,0-11-5.3-11-11.54,0-6.82,5-10.81,12.84-10.81h8.2V82.65c0-4.21-.22-7.26-6.46-7.26a26.34,26.34,0,0,0-3.26.22l-1.09,1.09v5.07h-6.75V70.67a54,54,0,0,1,15-2.1c10.38,0,13.57,5.59,13.57,12.33v20.25l1.31,1.3h3.19Zm-15.53-9.43V92H316.1c-3.34,0-4.86,1.46-4.86,3.85,0,3.05,1,4.43,4.43,4.43A10.12,10.12,0,0,0,321.25,98.32Z"/><path class="cls-1" d="M350.85,54.78c2.91,0,3.34,1.67,3.34,3.2v43.17l1.24,1.3h3.26v5.3h-20v-5.3h3.19l1.3-1.3V61.38l-1.3-1.3h-3.19v-5.3Z"/><path class="cls-1" d="M397.8,107.75H386.26c-2.9,0-3.33-1.67-3.33-3.19V103.4h-.37c-1.16,1.3-4.71,5.08-10.3,5.08-8.35,0-11-5.3-11-11.54,0-6.82,5-10.81,12.84-10.81h8.2V82.65c0-4.21-.22-7.26-6.46-7.26a26.34,26.34,0,0,0-3.26.22l-1.09,1.09v5.07h-6.75V70.67a54,54,0,0,1,15-2.1c10.38,0,13.57,5.59,13.57,12.33v20.25l1.31,1.3h3.19Zm-15.53-9.43V92h-5.15c-3.34,0-4.86,1.46-4.86,3.85,0,3.05,1,4.43,4.43,4.43A10.12,10.12,0,0,0,382.27,98.32Z"/><path class="cls-1" d="M400.26,107.75v-5.3h3.2l1.3-1.3V75.9l-1.3-1.31h-3.2v-5.3H411.8c2.9,0,3.34,1.67,3.34,3.2v1.16h.36a14.69,14.69,0,0,1,10.67-5.08c8.63,0,11.17,5.22,11.17,11.61v21l1.31,1.3h3.19v5.3H422.69v-5.3h2.39l1.23-1.3V81.92c0-2.18-.21-5.15-4.79-5.15a10,10,0,0,0-5.73,2v22.42l1.23,1.3h2.4v5.3Z"/><path class="cls-1" d="M480.59,107.75H469.05c-2.9,0-3.34-1.67-3.34-3.19V103.4h-.36c-1.16,1.3-4.72,5.08-10.31,5.08-8.34,0-11-5.3-11-11.54,0-6.82,5-10.81,12.84-10.81h8.2V82.65c0-4.21-.22-7.26-6.46-7.26a26.62,26.62,0,0,0-3.27.22l-1.08,1.09v5.07H447.5V70.67a53.87,53.87,0,0,1,15-2.1c10.37,0,13.57,5.59,13.57,12.33v20.25l1.3,1.3h3.2Zm-15.53-9.43V92h-5.15c-3.34,0-4.87,1.46-4.87,3.85,0,3.05,1,4.43,4.43,4.43A10.16,10.16,0,0,0,465.06,98.32Z"/><path class="cls-1" d="M217.2,173c-13.14,0-21.62-8.12-21.62-26.12s8.48-26.12,21.62-26.12,21.62,8.13,21.62,26.12S230.33,173,217.2,173Zm0-44.69c-7.33,0-9.43,6-9.43,18.57s2.1,18.58,9.43,18.58,9.43-6,9.43-18.58S224.53,128.34,217.2,128.34Z"/><path class="cls-1" d="M272.34,170.13C270.45,172,266,173,261.67,173c-9.79,0-18.43-5.66-18.43-19.44s8.93-20.46,19.52-20.46a29.05,29.05,0,0,1,9.65,1.59v12.34h-6.74v-5.73l-1.31-1.24a3.1,3.1,0,0,0-.8-.07c-6.38,0-9.07,4.64-9.07,13.13,0,9.51,3.56,12.77,10.23,12.77a25.71,25.71,0,0,0,7.62-1.38Z"/><path class="cls-1" d="M305.57,170.13c-1.88,1.89-6.38,2.9-10.66,2.9-9.8,0-18.44-5.66-18.44-19.44s8.93-20.46,19.52-20.46a29.05,29.05,0,0,1,9.65,1.59v12.34H298.9v-5.73l-1.31-1.24a3.1,3.1,0,0,0-.8-.07c-6.38,0-9.07,4.64-9.07,13.13,0,9.51,3.56,12.77,10.23,12.77a25.64,25.64,0,0,0,7.62-1.38Z"/><path class="cls-1" d="M321.82,133.85c2.91,0,3.34,1.67,3.34,3.19v28.67l1.23,1.3h3.27v5.3h-20V167h3.2l1.3-1.3V140.46l-1.3-1.31h-3.2v-5.3ZM319,118.25c4.14,0,6.17,2.25,6.17,5.81s-2,5.8-6.17,5.8-6.16-2.25-6.16-5.8S314.86,118.25,319,118.25Z"/><path class="cls-1" d="M360.2,172.31c-2.9,0-3.33-1.67-3.33-3.19V168h-.29a13,13,0,0,1-9.8,5.07c-7.54,0-13.86-5.8-13.86-19.59s6.32-20.31,13.86-20.31a13.39,13.39,0,0,1,9.43,4.5V125.94l-1.3-1.3h-3.19v-5.3h12.19c2.9,0,3.33,1.67,3.33,3.19v43.18l1.31,1.3h3.19v5.3Zm-4-10V143.21a9.28,9.28,0,0,0-5.51-1.88c-4.86,0-6.53,3.41-6.53,11.75s1.67,11.68,6.53,11.68A9.12,9.12,0,0,0,356.21,162.29Z"/><path class="cls-1" d="M405.19,155H386c.36,8.12,3.34,11.1,10.38,11.1a24.66,24.66,0,0,0,8.05-1.53v5.81c-1.88,1.3-5.59,2.68-11.83,2.68-9.36,0-17.7-5.51-17.7-19.15,0-14.08,7.55-20.75,16.62-20.75,8.78,0,15,6,15,15.6v4.93ZM386,149.89h10V148c0-5.59-1.16-8.27-4.5-8.27S386.47,143.36,386,149.89Z"/><path class="cls-1" d="M410,172.31V167h3.19l1.31-1.3V140.46l-1.31-1.31H410v-5.3h11.53c2.91,0,3.34,1.67,3.34,3.19v1.17h.36a14.69,14.69,0,0,1,10.67-5.08c8.64,0,11.17,5.22,11.17,11.61v21l1.31,1.3h3.19v5.3H432.4V167h2.39l1.24-1.3V146.48c0-2.18-.22-5.15-4.79-5.15a10.07,10.07,0,0,0-5.73,1.95v22.43l1.23,1.3h2.39v5.3Z"/><path class="cls-1" d="M469,139.29v26.42l1.3,1.3h7v5.3a72,72,0,0,1-9.79.72c-6.32,0-9.58-2.32-9.58-9V139.29h-4.5V134h3.19l1.31-1.31,4.13-9H469V134h8.12v5.29Z"/><path class="cls-1" d="M510.1,155H490.88c.36,8.12,3.33,11.1,10.37,11.1a24.68,24.68,0,0,0,8.06-1.53v5.81c-1.89,1.3-5.59,2.68-11.83,2.68-9.36,0-17.71-5.51-17.71-19.15,0-14.08,7.55-20.75,16.62-20.75,8.78,0,15,6,15,15.6v4.93ZM491,149.89h10V148c0-5.59-1.16-8.27-4.5-8.27S491.38,143.36,491,149.89Z"/><path class="cls-1" d="M215.43,202.54V210a16.21,16.21,0,0,1-6.66,1.33c-6.63,0-10.81-3.78-10.81-12.05s4.45-12,11.41-12a25.07,25.07,0,0,1,5.93.71v6.36h-3.11v-3l-.54-.51a11.7,11.7,0,0,0-2.28-.23c-4.48,0-5.79,3.08-5.79,8.23,0,6,1.37,9.24,6.13,9.24h.94v-5.49l-.61-.6h-1.27V199.5H217v2.44h-1Z"/><path class="cls-1" d="M226.82,208.54h1.87V211h-9.61v-2.44h1.48l.6-.61V196.28l-.6-.6h-1.48v-2.44h5.33c1.33,0,1.53.77,1.53,1.47v.87h.17a6.43,6.43,0,0,1,4.82-2.68,9.26,9.26,0,0,1,1.27.1v7h-3v-2.34l-.57-.54a8,8,0,0,0-2.37.87v9.94Z"/><path class="cls-1" d="M249,193.24c1.34,0,1.54.77,1.54,1.47v13.22l.6.61h1.47V211h-5.32c-1.34,0-1.54-.77-1.54-1.47V209h-.17a6.45,6.45,0,0,1-4.75,2.34c-4,0-5.16-2.41-5.16-5.35v-9.68l-.6-.6h-1.47v-2.44h5.62c1.34,0,1.54.77,1.54,1.47v10.44c0,1,.1,2.38,2,2.38a4.75,4.75,0,0,0,2.65-.9V196.28l-.6-.6h-1.48v-2.44Z"/><path class="cls-1" d="M254.1,193.24h5.32c1.34,0,1.54.77,1.54,1.47v.54h.1a6,6,0,0,1,4.55-2.35c3.49,0,6.4,2.68,6.4,9s-2.91,9.37-6.4,9.37a6.06,6.06,0,0,1-4.35-2v4.35l.57.61h1.71v2.44H254.1v-2.44h1.47l.61-.61V196.28l-.61-.6H254.1Zm9.71,3.48a4.13,4.13,0,0,0-2.55,1.17v8.77a4,4,0,0,0,2.55.87c2.24,0,3-1.57,3-5.42S266.05,196.72,263.81,196.72Z"/><path class="cls-1" d="M282.39,211.31c-4.52,0-8-2.84-8-9.2s3.48-9.21,8-9.21,8,2.85,8,9.21S286.91,211.31,282.39,211.31Zm0-15.23c-2.24,0-2.81,1.94-2.81,6s.57,6,2.81,6,2.81-1.94,2.81-6S284.63,196.08,282.39,196.08Z"/><path class="cls-1" d="M316.53,211h-5.32c-1.34,0-1.54-.77-1.54-1.47V209h-.16a6.5,6.5,0,0,1-4.76,2.34c-3.85,0-5.09-2.44-5.09-5.32,0-3.14,2.31-5,5.93-5h3.78v-1.6c0-1.94-.1-3.35-3-3.35a12.17,12.17,0,0,0-1.51.1l-.5.5V199h-3.11v-5.13a25,25,0,0,1,6.93-1c4.79,0,6.26,2.58,6.26,5.69v9.34l.6.61h1.47Zm-7.16-4.35v-2.91H307c-1.54,0-2.24.66-2.24,1.77,0,1.41.47,2,2,2A4.65,4.65,0,0,0,309.37,206.63Z"/><path class="cls-1" d="M324.27,211.31a18.79,18.79,0,0,1-5.73-.77v-4.95h2.78v2.24l.57.61a17.06,17.06,0,0,0,2.38.13c1.94,0,2.58-.87,2.58-2.14s-.37-1.94-3.15-2.51c-4.15-.84-5.05-3-5.05-5.36,0-3.55,2.61-5.66,7.12-5.66a22.58,22.58,0,0,1,5.09.57v4.86h-2.78v-2.05l-.56-.53a13.21,13.21,0,0,0-1.75-.14c-1.67,0-2.67.74-2.67,1.81s.1,1.88,2.61,2.38c4.38.9,6,2.51,6,5.19C331.67,209.27,328.59,211.31,324.27,211.31Z"/><path class="cls-1" d="M348,203h-8.87c.17,3.75,1.54,5.12,4.79,5.12a11.67,11.67,0,0,0,3.71-.7v2.68c-.86.6-2.57,1.23-5.45,1.23-4.32,0-8.17-2.54-8.17-8.83,0-6.5,3.48-9.58,7.67-9.58s6.92,2.75,6.92,7.2v2.28Zm-8.83-2.34h4.62v-.87c0-2.58-.54-3.82-2.08-3.82S339.37,197.62,339.17,200.64Z"/><path class="cls-1" d="M358.38,204.25a10.91,10.91,0,0,1-2.31-.23,1.56,1.56,0,0,0-.67,1.2c0,.64.4.94,1.37.94h5.06c3.08,0,5.69.9,5.69,4.62,0,4.25-4.28,6.22-9.47,6.22-4.49,0-7.33-.9-7.33-3.78,0-1.44,1.13-2.31,2.31-2.88a3.36,3.36,0,0,1-2.08-3.21c0-1.37.84-2.88,2.78-4a5,5,0,0,1-2.44-4.52c0-3.88,3.28-5.66,7.09-5.66a9.92,9.92,0,0,1,2.71.34h6.33v2.44h-2.24l-.3.3a5.3,5.3,0,0,1,.63,2.58C365.51,202.41,362.2,204.25,358.38,204.25Zm-3,6.43a3,3,0,0,0-.57,1.91c0,1.37.84,2.17,3.32,2.17s4.35-.8,4.35-2.58c0-1.27-.77-1.5-2.14-1.5Zm3-15c-1.57,0-2.47,1-2.47,2.91s.9,2.91,2.47,2.91,2.51-1,2.51-2.91S360,195.65,358.38,195.65Z"/><path class="cls-1" d="M384.16,193.24c1.34,0,1.54.77,1.54,1.47v13.22l.6.61h1.47V211h-5.32c-1.34,0-1.54-.77-1.54-1.47V209h-.17a6.45,6.45,0,0,1-4.75,2.34c-4,0-5.15-2.41-5.15-5.35v-9.68l-.61-.6h-1.47v-2.44h5.62c1.34,0,1.54.77,1.54,1.47v10.44c0,1,.1,2.38,2.05,2.38a4.69,4.69,0,0,0,2.64-.9V196.28l-.6-.6h-1.48v-2.44Z"/><path class="cls-1" d="M397.35,208.54h1.87V211h-9.6v-2.44h1.47l.6-.61V196.28l-.6-.6h-1.47v-2.44h5.32c1.34,0,1.54.77,1.54,1.47v.87h.17a6.41,6.41,0,0,1,4.82-2.68,9.46,9.46,0,0,1,1.27.1v7h-3v-2.34l-.57-.54a8.05,8.05,0,0,0-2.38.87v9.94Z"/><path class="cls-1" d="M421,211h-5.32c-1.34,0-1.54-.77-1.54-1.47V209H414a6.45,6.45,0,0,1-4.75,2.34c-3.85,0-5.09-2.44-5.09-5.32,0-3.14,2.31-5,5.93-5h3.78v-1.6c0-1.94-.1-3.35-3-3.35a11.9,11.9,0,0,0-1.5.1l-.51.5V199h-3.11v-5.13a25,25,0,0,1,6.93-1c4.79,0,6.26,2.58,6.26,5.69v9.34l.6.61H421Zm-7.16-4.35v-2.91h-2.38c-1.54,0-2.24.66-2.24,1.77,0,1.41.47,2,2,2A4.68,4.68,0,0,0,413.82,206.63Z"/><path class="cls-1" d="M435.35,211c-1.34,0-1.54-.77-1.54-1.47V209h-.14a6,6,0,0,1-4.52,2.34c-3.48,0-6.39-2.67-6.39-9s2.91-9.38,6.39-9.38a6.23,6.23,0,0,1,4.36,2.08v-5.39l-.61-.6h-1.47v-2.45h5.62c1.34,0,1.54.77,1.54,1.48v19.91l.6.61h1.48V211Zm-1.84-4.62v-8.8a4.32,4.32,0,0,0-2.55-.87c-2.24,0-3,1.57-3,5.42s.77,5.39,3,5.39A4.26,4.26,0,0,0,433.51,206.36Z"/><path class="cls-1" d="M450.61,211.31c-4.52,0-8-2.84-8-9.2s3.48-9.21,8-9.21,8,2.85,8,9.21S455.13,211.31,450.61,211.31Zm0-15.23c-2.24,0-2.81,1.94-2.81,6s.57,6,2.81,6,2.81-1.94,2.81-6S452.85,196.08,450.61,196.08Z"/><path class="cls-1" d="M468.59,208.54h1.87V211h-9.6v-2.44h1.47l.6-.61V196.28l-.6-.6h-1.47v-2.44h5.32c1.34,0,1.54.77,1.54,1.47v.87h.17a6.41,6.41,0,0,1,4.82-2.68,9.46,9.46,0,0,1,1.27.1v7h-3v-2.34l-.57-.54A8.05,8.05,0,0,0,468,198v9.94Z"/></svg>