<?xml version="1.0" encoding="UTF-8" standalone="no"?>
<!-- Created with Inkscape (http://www.inkscape.org/) -->

<svg
   xmlns:dc="http://purl.org/dc/elements/1.1/"
   xmlns:cc="http://creativecommons.org/ns#"
   xmlns:rdf="http://www.w3.org/1999/02/22-rdf-syntax-ns#"
   xmlns:svg="http://www.w3.org/2000/svg"
   xmlns="http://www.w3.org/2000/svg"
   xmlns:sodipodi="http://sodipodi.sourceforge.net/DTD/sodipodi-0.dtd"
   xmlns:inkscape="http://www.inkscape.org/namespaces/inkscape"
   id="svg2"
   version="1.1"
   inkscape:version="0.91 r13725"
   width="500"
   height="205.48566"
   viewBox="0 0 500 205.48565"
   sodipodi:docname="Grupo CEEE.svg">
  <metadata
     id="metadata8">
    <rdf:RDF>
      <cc:Work
         rdf:about="">
        <dc:format>image/svg+xml</dc:format>
        <dc:type
           rdf:resource="http://purl.org/dc/dcmitype/StillImage" />
        <dc:title></dc:title>
      </cc:Work>
    </rdf:RDF>
  </metadata>
  <defs
     id="defs6" />
  <sodipodi:namedview
     pagecolor="#ffffff"
     bordercolor="#666666"
     borderopacity="1"
     objecttolerance="10"
     gridtolerance="10"
     guidetolerance="10"
     inkscape:pageopacity="0"
     inkscape:pageshadow="2"
     inkscape:window-width="1280"
     inkscape:window-height="962"
     id="namedview4"
     showgrid="false"
     fit-margin-top="0"
     fit-margin-left="0"
     fit-margin-right="0"
     fit-margin-bottom="0"
     inkscape:zoom="0.87153703"
     inkscape:cx="169.93778"
     inkscape:cy="66.705426"
     inkscape:window-x="-8"
     inkscape:window-y="-8"
     inkscape:window-maximized="1"
     inkscape:current-layer="svg2" />
  <g
     id="g4141"
     transform="scale(1.6628989,1.6628989)">
    <ellipse
       ry="61.73241"
       rx="61.074512"
       cy="61.73447"
       cx="61.074512"
       id="path4138"
       style="opacity:1;fill:#ffffff;fill-opacity:1;fill-rule:evenodd;stroke:none;stroke-width:0.10009461;stroke-linecap:round;stroke-linejoin:round;stroke-miterlimit:4;stroke-dasharray:none;stroke-opacity:1" />
    <path
       sodipodi:nodetypes="cccc"
       inkscape:connector-curvature="0"
       id="path4140"
       d="M 57.894688,0.05257216 58.113987,123.44361 C 33.539094,123.05785 -2.5125396,100.62476 0.21925038,57.896752 4.7166954,11.651975 41.455036,0.87906216 57.894688,0.05257216 Z"
       style="fill:#ff0000;fill-rule:evenodd;stroke:#ff0000;stroke-width:0.1;stroke-linecap:butt;stroke-linejoin:miter;stroke-miterlimit:4;stroke-dasharray:none;stroke-opacity:1" />
    <path
       sodipodi:nodetypes="cccccccccc"
       inkscape:connector-curvature="0"
       id="path4142"
       d="m 63.483684,0.05948716 c 2.820251,0.09087 5.640502,0.414288 8.460753,0.95513004 L 71.826926,32.208555 87.204539,5.9699772 c 2.66617,1.054032 4.93068,2.610146 7.25189,4.0953818 L 79.260156,37.148899 106.86252,20.960082 c 2.08172,2.232805 3.67285,4.563729 5.32172,6.883103 L 63.483684,56.533219 Z"
       style="fill:#ff0000;fill-opacity:1;fill-rule:evenodd;stroke:#ff0000;stroke-width:0.1;stroke-linecap:butt;stroke-linejoin:miter;stroke-miterlimit:4;stroke-dasharray:none;stroke-opacity:1" />
    <path
       sodipodi:nodetypes="cccccccccc"
       inkscape:connector-curvature="0"
       id="path4142-0"
       d="m 63.434798,123.51911 c 2.82025,-0.0909 5.6405,-0.41429 8.46075,-0.95513 l -0.11751,-31.193936 15.377611,26.238576 c 2.66617,-1.05403 4.93068,-2.61014 7.25189,-4.09538 L 79.211268,86.429704 106.81363,102.61852 c 2.08172,-2.23281 3.67285,-4.563726 5.32172,-6.883106 L 63.434798,67.045384 Z"
       style="fill:#ff0000;fill-opacity:1;fill-rule:evenodd;stroke:#ff0000;stroke-width:0.1;stroke-linecap:butt;stroke-linejoin:miter;stroke-miterlimit:4;stroke-dasharray:none;stroke-opacity:1" />
    <path
       sodipodi:nodetypes="cccccccccc"
       inkscape:connector-curvature="0"
       id="path4161"
       d="M 65.906593,61.607443 114.91001,32.548692 c 1.28649,2.457872 2.48601,4.967922 3.38379,7.659011 l -27.186851,16.145955 30.809371,0.415871 c 0.25067,2.943623 0.22851,5.941813 0.0891,8.963445 l -32.145081,0.23778 28.368861,17.58338 c -0.98564,2.83648 -2.12362,5.33088 -3.50022,7.69821 z"
       style="fill:#ff0000;fill-opacity:1;fill-rule:evenodd;stroke:#ff0000;stroke-width:0.1;stroke-linecap:butt;stroke-linejoin:miter;stroke-miterlimit:4;stroke-dasharray:none;stroke-opacity:1" />
    <path
       sodipodi:nodetypes="cccccc"
       inkscape:connector-curvature="0"
       id="path4163"
       d="m 170.24184,43.46519 3.07751,-6.001144 C 121.24061,16.345769 117.87644,98.185364 173.0116,80.549184 l -3.07751,-6.00115 c -8.89804,4.36295 -26.92453,3.73385 -26.92821,-16.926298 1.85136,-22.60636 22.22778,-17.663121 27.23596,-14.156546 z"
       style="fill:#0000ff;fill-rule:evenodd;stroke:#0000ff;stroke-width:0.30000001;stroke-linecap:butt;stroke-linejoin:miter;stroke-miterlimit:4;stroke-dasharray:none;stroke-opacity:1" />
    <path
       sodipodi:nodetypes="ccccccccccccc"
       inkscape:connector-curvature="0"
       id="path4165"
       d="m 185.3774,34.343954 26.13507,-0.116526 0.0582,6.731704 -16.20079,-0.02169 -0.009,12.951474 15.39449,0.0151 -0.022,7.32394 -15.46109,0.008 0.003,14.847918 18.86079,-10e-4 -0.004,6.68989 -28.7954,-0.15477 z"
       style="fill:#0000ff;fill-rule:evenodd;stroke:#0000ff;stroke-width:0.30000001;stroke-linecap:butt;stroke-linejoin:miter;stroke-miterlimit:4;stroke-dasharray:none;stroke-opacity:1" />
    <path
       sodipodi:nodetypes="ccccccccccccc"
       inkscape:connector-curvature="0"
       id="path4165-5"
       d="m 228.51726,34.30189 26.19325,-1.67e-4 0,6.615345 -16.20079,-0.02169 -0.009,12.951468 15.39449,0.0151 -0.022,7.32394 -15.46109,0.008 0.003,14.847918 18.86079,-0.001 -0.004,6.68989 -28.7954,-0.15477 z"
       style="fill:#0000ff;fill-rule:evenodd;stroke:#0000ff;stroke-width:0.30000001;stroke-linecap:butt;stroke-linejoin:miter;stroke-miterlimit:4;stroke-dasharray:none;stroke-opacity:1" />
    <path
       sodipodi:nodetypes="ccccccccccccc"
       inkscape:connector-curvature="0"
       id="path4165-5-8"
       d="m 271.771,34.312362 26.19325,-1.67e-4 0,6.615345 -16.20079,-0.02169 -0.009,12.951466 15.39449,0.0151 -0.022,7.32394 -15.46109,0.008 0.003,14.847918 18.86079,-10e-4 -0.004,6.68989 -28.7954,-0.15477 z"
       style="fill:#0000ff;fill-rule:evenodd;stroke:#0000ff;stroke-width:0.30000001;stroke-linecap:butt;stroke-linejoin:miter;stroke-miterlimit:4;stroke-dasharray:none;stroke-opacity:1" />
  </g>
</svg>
