<svg fill="none" height="224" viewBox="0 0 76 56" width="304" xmlns="http://www.w3.org/2000/svg">
  <path d="m75.7148 27.8237c0 12.6642-15.64 22.93-34.9297 22.93-19.293 0-34.9311-10.2657-34.9311-22.93 0-12.6648 15.6381-22.93308 34.9311-22.93308 19.2898.00001 34.9297 10.26828 34.9297 22.93308z" fill="#000"/>
  <path d="m74.2583 27.8235c0 11.8689-14.9866 21.4933-33.4734 21.4933-18.4894 0-33.47484-9.6244-33.47484-21.4933 0-11.8725 14.98534-21.4944 33.47484-21.4944 18.4868 0 33.4734 9.6219 33.4734 21.4944z" fill="#f00"/>
  <path d="m56.6594 27.669c-5.1498-10.1166-9.6313-19.99858-16.7624-19.99858-19.3298 0-32.23929 10.18878-32.23929 19.99868 0 9.8106 12.90949 19.9968 32.23929 19.9968 7.1311-.0001 11.6126-9.8814 16.7624-19.9969zm4.9517-17.3235h6.7834l5.1537-.0012.6916.0012v11.9941c-.6554-1.6355-1.6064-3.1982-2.813-4.6606-2.2398 2.5563-4.2615 6.098-6.2848 9.9901 2.0233 3.8908 4.045 7.4332 6.2848 9.9888 1.2067-1.4641 2.1576-3.0259 2.813-4.6631v11.8174h-12.2631c1.4095-.6896 2.7295-1.4493 3.9487-2.2678-1.7771-1.9959-3.387-4.3319-4.8871-6.8275-5.1486 9.8872-11.157 19.3545-21.1413 19.3545-20.4235 0-39.738309-11.0356-39.738309-27.4023 0-16.3687 19.314909-27.405428 39.738309-27.405428 6.4241 0 11.2026 3.921348 15.1655 9.353068-2.6242 0-2.2804.0025.0039.00514 2.1937 3.00572 4.1366 6.47552 5.9719 9.99772 1.4999-2.496 3.1099-4.8269 4.8871-6.8289-1.3223-.8863-2.7688-1.7045-4.3143-2.4452z" fill="#000"/>
  <path d="m53.9629 27.4484c-4.5526-8.9415-8.5109-17.67778-14.8141-17.67778-17.0865 0-28.4976 9.00578-28.4976 17.67778 0 8.668 11.4111 17.6757 28.4976 17.6757 6.3032 0 10.2615-8.7351 14.8141-17.6757zm4.3776-15.3122 5.9969-.0014h4.5553l.6082.0014v10.6012c-.5772-1.4482-1.418-2.8261-2.484-4.1201-1.978 2.2602-3.7648 5.3901-5.5563 8.831 1.7915 3.4389 3.5784 6.5688 5.5563 8.8302 1.066-1.2965 1.9069-2.677 2.484-4.1206v10.4432h-10.8347c1.2425-.6102 2.4123-1.2815 3.4884-2.0026-1.5681-1.7677-2.9946-3.8331-4.3207-6.0384-4.5525 8.7408-9.8611 17.1064-18.6851 17.1064-18.0523 0-35.12243-9.7507-35.12243-24.2182 0-14.4689 17.07013-24.22467 35.12243-24.22467 5.6777 0 9.9027 3.46578 13.4048 8.26457-2.3193.001-2.0173.003.0036.0067 1.9371 2.6587 3.6541 5.7242 5.2765 8.8361 1.3262-2.2033 2.7526-4.268 4.3208-6.0337-1.1717-.7845-2.4478-1.5095-3.814-2.1611z" fill="#fff"/>
  <path d="m50.9681 22.5735c-1.1905-2.9552-2.7005-6.0619-5.0084-8.6824-1.3149-1.2243-3.0183-1.7189-4.5639-1.8428-.7428-.0602-1.5115-.0528-2.2698-.0082-.3802.0224-.761.0544-1.1361.0906-.2684.0058-.535.014-.8055.0308-.7027.0434-1.4043.1142-2.0683.1817-1.67.1762-3.4335.5332-5.0834 1.1687-.159.0778-.3091.1604-.4539.2439l-.5366.1247.1326-.3628-2.7956.6509c-6.0764 1.4349-12.7176 4.9753-13.9912 12.0846l-.0137.0851-.0076.089c-.2494 3.7946 1.3125 7.2675 4.2727 9.5953 1.4773 1.0161 3.1037 1.7658 4.6888 2.3531 1.542.5646 3.1365 1.0189 4.7084 1.4981l2.7487.8312-.2025-.7689 2.1453.6499-.0795-.2894c3.7772 1.2911 7.811 1.8884 11.9703 1.475.7159-.017 1.435-.0616 2.1553-.1398l1.0936-.1155.324-1.0477c.2907-.9356.6057-1.8868.8007-2.8403.2109-1.0212.3166-2.1376.0958-3.2923l-.2063-1.0896-1.1542-.0481c-.8323-.0383-1.8414-.0111-2.8932-.0134-.8086-.0013-1.6441-.0232-2.4361-.1179.1814-.0134.3649-.0306.5489-.0489 1.7952-.0463 3.6636-.2574 5.5327-.8234.3944-.1279.8082-.2618 1.2005-.4092.4408-.1697.8704-.3527 1.2736-.5743.8627-.4694 1.7683-1.2304 2.3429-2.2942.9847-2.3639.3088-4.6673-.329-6.3435zm-12.9418.8353c-.2371-.0081-.5078-.0158-.7799-.0376-.1952-.0195-.4234-.069-.5772-.1118-.0026-.9328-.0176-1.861-.0301-2.807.097-.0515.2621-.1103.5167-.1579.4701-.0045.9068-.007 1.2523-.0408.0322-.0036.0564-.0106.0774-.0182.2739.6223.4059 1.2908.4952 2.0804.0394.3585.0645.7199.0896 1.0809-.3501.012-.6964.0171-1.044.012zm-15.3014 5.4823c-1.2142-.4224-1.9183-1.0759-2.0734-2.2892.077-.4711.4596-.953 1.4095-1.4186.9473-.413 1.9491-.6453 3.017-.7705.1251 0 .2521-.0028.3775-.0028-.1418 1.6837-.1318 3.3508-.0763 4.9636-.9629-.0756-1.8744-.2118-2.6543-.4825z" fill="#000"/>
  <g fill="#fff">
    <path d="m26.553 38.3935c-.6346-2.3629-.9042-4.8044-.9512-7.2677-3.4183-.0411-8.0792-.2253-8.4649-4.3599.0881-1.375 1.1262-2.284 2.3517-2.8719 2.0283-.8865 4.2102-1.0439 6.3914-1.0277.2622-1.0394.0108-2.0527-.0648-3.0849-.0444-1.4199.432-2.7753.909-4.1125-5.8988 1.4061-11.6845 4.6999-12.7955 10.8361-.222 3.2666 1.0779 6.2192 3.6528 8.2439 2.6805 1.8499 5.87 2.6965 8.9715 3.6446z"/>
    <path d="m33.1357 20.2108c-.0112.0847-.0212.1673-.031.2533-.0062-.0835-.0077-.1661-.0077-.2505-.0237.2255-.0542.6922.0077.2505.031 1.0883.052 2.1743.0532 3.2628.1343 1.2728 1.7495 1.2946 2.8136 1.3252 1.5889.0226 3.1795-.1352 4.7722-.1722-.1587-1.8538-.0731-3.7574-.891-5.4767-.3477-.664-.8083-.765-1.5806-.6606-1.4901.1523-4.5679-.3383-5.1364 1.4682zm9.6445 20.0388c-4.0079.4198-7.8879-.1418-11.5788-1.4177-1.4976-.604-2.303-1.8711-2.8709-3.2842-.7258-1.8158-1.2725-3.7036-1.3717-5.683-.1183-3.0581-.1082-6.1393.704-9.1477.5672-2.1714.5697-4.6401 2.9881-5.805 1.4728-.5683 3.0232-.8792 4.594-1.0491 2.5723-.2638 5.642-.6158 7.5907 1.1956 2.1505 2.4424 3.5385 5.3107 4.7166 8.2301.6362 1.6687 1.1285 3.4119.3903 5.1967-.7547 1.4043-2.3218 1.9198-3.7956 2.3926-3.4377 1.0367-6.9316.7555-10.4019.5619.6585 4.1357 6.6179 3.2504 9.8766 3.3851.3492 1.816-.2957 3.6449-.8414 5.4247z"/>
  </g>
</svg>
