<?xml version="1.0" encoding="UTF-8" standalone="no"?>
<svg
   width="586.34802"
   height="103.44"
   version="1.1"
   id="svg18"
   sodipodi:docname="Charlotte Tilbury logo.svg"
   inkscape:version="1.1.1 (3bf5ae0d25, 2021-09-20)"
   xmlns:inkscape="http://www.inkscape.org/namespaces/inkscape"
   xmlns:sodipodi="http://sodipodi.sourceforge.net/DTD/sodipodi-0.dtd"
   xmlns:xlink="http://www.w3.org/1999/xlink"
   xmlns="http://www.w3.org/2000/svg"
   xmlns:svg="http://www.w3.org/2000/svg">
  <sodipodi:namedview
     id="namedview20"
     pagecolor="#ffffff"
     bordercolor="#999999"
     borderopacity="1"
     inkscape:pageshadow="0"
     inkscape:pageopacity="0"
     inkscape:pagecheckerboard="0"
     showgrid="false"
     fit-margin-top="10"
     fit-margin-right="10"
     fit-margin-bottom="10"
     fit-margin-left="10"
     inkscape:zoom="2.2857143"
     inkscape:cx="293.78125"
     inkscape:cy="51.84375"
     inkscape:window-width="1920"
     inkscape:window-height="1001"
     inkscape:window-x="-9"
     inkscape:window-y="-9"
     inkscape:window-maximized="1"
     inkscape:current-layer="svg18" />
  <defs
     id="defs3">
    <path
       id="a"
       d="M 0,83.44 H 566.348 V 0 H 0 Z" />
  </defs>
  <g
     fill="none"
     fill-rule="evenodd"
     id="g16"
     transform="translate(10,10)">
    <path
       d="m 136.708,40.15 a 33.018,33.018 0 0 1 -4.74,2.16 c -0.62,0.24 -1.23,0.49 -1.8,0.74 a 19.782,19.782 0 0 0 -7.92,6.23 8.168,8.168 0 0 0 -0.69,7.48 6.3,6.3 0 0 0 6.05,3.61 c 4.58,0 8.1,-2.35 9.32,-5.77 -0.14,-1.21 -0.21,-3.56 -0.21,-5 -0.01,-2.57 -0.01,-6.89 -0.01,-9.44 z m -10.7,25.21 a 21.036,21.036 0 0 1 -2.34,-0.14 c -4.11,-0.45 -7.56,-1.17 -9.7,-3.82 a 12.608,12.608 0 0 1 -2.37,-10.31 c 1.09,-5.49 5.85,-7.26 9.87,-9.06 2.12,-0.94 4.39,-1.76 6.21,-2.42 l 2.28,-0.84 a 19.144,19.144 0 0 0 5.31,-2.58 c 0.93,-0.74 1.35,-2.88 1.17,-4.2 -0.23,-1.67 -1.72,-5.4 -5.64,-5.39 -6.75,0 -8.35,5.69 -9.29,9 l -7.5,-3 c 2.55,-6.1 9.11,-10.29 16.45,-10.29 a 18.508,18.508 0 0 1 7.22,1.4 c 6.07,2.6 8.75,6.64 8.43,13.66 v 15.34 c 0,2.2 0,7.22 1.71,8.37 0.931,0.65 2.168,0.65 3.1,0 v 1.4 a 4,4 0 0 1 -3.76,2.18 9.267,9.267 0 0 1 -3.97,-0.95 10.697,10.697 0 0 1 -4.58,-4 15.998,15.998 0 0 1 -12.6,5.65 z m 343.88,0.02 c -9.76,0 -15.14,-4.61 -15.14,-14.81 V 23.08 h 9.12 V 50.5 c 0,7.32 4.41,9.16 7.72,9.16 4,0 7.7,-1.49 9.43,-5.37 V 23.08 h 9.17 v 41.51 h -9.12 V 59.9 c -2.88,2.93 -6.71,5.48 -11.18,5.48 M 154.848,64.6 V 23.08 h 9.11 v 5.88 c 3.4,-3.67 7.42,-6.15 13.07,-6.06 v 8.69 a 13.385,13.385 0 0 0 -4.11,-0.69 c -3.85,0 -7.12,0.4 -8.95,3.48 v 30.23 h -9.11 z m -57.16,0 V 40.82 c 0,-6 -0.86,-8.19 -2.16,-9.61 -1.3,-1.42 -3.26,-3.09 -5.72,-3.09 -5,0 -8.73,1.43 -10.5,5.86 V 64.6 h -9.12 V 0.85 h 9.11 v 27.33 c 3,-3.1 7.1,-5.79 11.87,-5.79 4.77,0 8.81,0.46 11.45,3.12 3,3 4.19,7.19 4.19,14.46 V 64.6 Z"
       fill="#311212"
       id="path5" />
    <mask
       id="b"
       fill="#ffffff">
      <use
         xlink:href="#a"
         id="use7"
         x="0"
         y="0"
         width="100%"
         height="100%" />
    </mask>
    <path
       fill="#311212"
       mask="url(#b)"
       d="m 181.778,64.59 h 9.12 V 0.85 h -9.12 z m 35.22,-37.95 c -8.35,0 -12.72,9.14 -12.72,17.18 0,8.04 4.37,17.25 12.72,17.25 4.82,0 7.75,-3.7 9.36,-6 a 19.781,19.781 0 0 0 3.36,-11.28 c 0,-8.01 -4.37,-17.14 -12.72,-17.14 z m 0,38.74 c -13.18,0 -22,-8.07 -22,-21.56 0,-13.49 8.85,-21.49 22,-21.49 13.15,0 22,8 22,21.49 0.04,13.29 -9.02,21.56 -22,21.56 z m 63.76,0 c -6.75,0 -10.78,-3 -10.78,-9.77 V 27.44 h -7.93 c -1.66,0 -3.4,0 -5.53,0.11 v 27.18 c 0,3.92 1.17,5.34 3.66,5.35 a 12.535,12.535 0 0 0 6.86,-1.84 l 1.36,1.73 c -2.91,3.66 -6.06,5.37 -10.24,5.37 -6.74,0 -10.76,-3 -10.76,-9.76 V 27.89 c -4.2,0.18 -7.25,0.37 -7.9,0.42 l -3,0.29 3.95,-5.54 h 6.93 v -7.42 l 9.13,-8.24 v 15.67 h 13.46 v -7.43 l 9.12,-8.25 v 15.68 h 12.85 l 3,5.08 -2.37,-0.19 c -2,-0.12 -6.36,-0.31 -13.48,-0.38 v 27.19 c 0,3.93 1.18,5.28 3.68,5.36 a 12.51,12.51 0 0 0 6.9,-1.84 l 1.34,1.75 c -2.9,3.6 -6.06,5.34 -10.25,5.34"
       id="path10" />
    <path
       d="m 324.088,35.71 c -1.25,-7.4 -6.19,-9.22 -9,-9.22 -6,0 -9.33,3.77 -11,9.22 z m -9.11,29.67 c -12.86,0 -21.5,-8.31 -21.5,-22.18 0,-12.68 9,-20.88 21.42,-20.88 10.25,0 17.66,5.91 18.46,16.18 l 0.24,1.58 h -30.74 c 0,1.6 -0.06,2.25 -0.06,3 0,9.72 5.34,16.75 13.93,16.75 7.37,0 11.12,-2.82 13.47,-5.15 l 1.78,1.65 c -3.92,5.89 -9.21,9.05 -17,9.05 z m 77.59,-0.741 h 9.12 V 0.91 h -9.12 z m 26.42,-6.819 a 19.073,19.073 0 0 0 8.83,2.23 c 8.32,0 13.28,-6.68 13.28,-16.18 0,-9.5 -4.94,-16 -13.21,-16 a 16.88,16.88 0 0 0 -8.91,2.5 v 27.49 z m 10.82,7.56 a 19.582,19.582 0 0 1 -10.82,-3.67 v 2.85 h -9.12 V 0.86 h 9.12 v 25.38 c 3.1,-2.1 6.88,-3.75 10.58,-3.75 12.28,0 20.85,8.2 20.85,21.37 0.01,13.47 -8.23,21.52 -20.61,21.52 z m 65.87,-42.13 9.11,-0.22 v 5.93 c 3,-3.22 7.08,-6 12.15,-6 l 4.62,10.22 c 0,0 -4.23,-2.25 -7.86,-2.25 -3.88,0 -7.32,0.38 -8.9,3.56 v 30.1 l -9.11,0.21 V 23.25 Z m -120.24,41.34 h 8.55 V 26.77 h -8.55 z m -0.429,-48.18 4.698,-7.23 4.721,7.25 -4.73,7.2 z"
       fill="#311212"
       mask="url(#b)"
       id="path12" />
    <path
       d="M 350.558,64.6 V 5.91 c -4.82,0 -12.4,0.16 -23.31,0.59 l -4.45,0.17 4.92,-5.72 h 52.91 l 0.56,0.33 3.87,5.48 -4,-0.25 c -2.39,-0.15 -11,-0.62 -21.16,-0.62 h -0.23 V 64.6 Z m 178.54,18.82 1.33,-2.22 c 0.92,-1.54 6.47,-11.18 10.81,-20.18 -1.08,-2.42 -17.53,-38 -17.53,-38 h 10 l 12.1,29.69 12.92,-29.67 h 7.62 l -1.29,2.75 -26.08,57.65 h -9.88 z M 35.078,66.41 C 24.898,66.41 15.318,63.27 8.798,56.06 -3.735,42.323 -2.762,21.027 10.976,8.493 11.445,8.065 11.926,7.651 12.418,7.25 18.818,1.93 26.988,0 35.418,0 c 10.61,0 20.48,3.59 27.65,12.24 l -7.33,5.54 C 51.848,12.18 46.858,7.34 41.828,5.84 a 22.983,22.983 0 0 0 -6.5,-1 23.992,23.992 0 0 0 -11.38,3.07 c -6.76,3.8 -11.15,11.87 -12.65,20.34 a 30.581,30.581 0 0 0 6.89,24.46 c 4.37,5.06 10.53,8.51 17.44,8.51 a 23.096,23.096 0 0 0 4.24,-0.38 c 7.15,-1.31 13.39,-7.26 17.51,-14.62 l 8.92,3.42 c -6.19,10.38 -18.51,16.77 -31.22,16.77"
       fill="#311212"
       mask="url(#b)"
       id="path14" />
  </g>
</svg>
