<?xml version="1.0" encoding="UTF-8" standalone="no"?>
<!-- Created with Inkscape (http://www.inkscape.org/) -->

<svg
   xmlns:dc="http://purl.org/dc/elements/1.1/"
   xmlns:cc="http://creativecommons.org/ns#"
   xmlns:rdf="http://www.w3.org/1999/02/22-rdf-syntax-ns#"
   xmlns:svg="http://www.w3.org/2000/svg"
   xmlns="http://www.w3.org/2000/svg"
   xmlns:sodipodi="http://sodipodi.sourceforge.net/DTD/sodipodi-0.dtd"
   xmlns:inkscape="http://www.inkscape.org/namespaces/inkscape"
   width="450.32199"
   height="61.577999"
   id="svg5588"
   version="1.1"
   inkscape:version="0.48.2 r9819"
   sodipodi:docname="New document 5">
  <defs
     id="defs5590" />
  <sodipodi:namedview
     id="base"
     pagecolor="#ffffff"
     bordercolor="#666666"
     borderopacity="1.0"
     inkscape:pageopacity="0.0"
     inkscape:pageshadow="2"
     inkscape:zoom="1"
     inkscape:cx="223.70351"
     inkscape:cy="-56.944146"
     inkscape:document-units="px"
     inkscape:current-layer="layer1"
     showgrid="false"
     showborder="false"
     inkscape:showpageshadow="false"
     fit-margin-top="0"
     fit-margin-left="0"
     fit-margin-right="0"
     fit-margin-bottom="0"
     inkscape:window-width="1304"
     inkscape:window-height="746"
     inkscape:window-x="-8"
     inkscape:window-y="-8"
     inkscape:window-maximized="1" />
  <metadata
     id="metadata5593">
    <rdf:RDF>
      <cc:Work
         rdf:about="">
        <dc:format>image/svg+xml</dc:format>
        <dc:type
           rdf:resource="http://purl.org/dc/dcmitype/StillImage" />
        <dc:title></dc:title>
      </cc:Work>
    </rdf:RDF>
  </metadata>
  <g
     inkscape:label="Layer 1"
     inkscape:groupmode="layer"
     id="layer1"
     transform="translate(-32.731,-371.32318)">
    <path
       inkscape:connector-curvature="0"
       d="m 144.53383,431.90611 8.44998,0 0,-45.78782 -8.44998,0 0,45.78782 z M 129.73386,388.4058 c -4.05499,-4.96003 -8.97748,-4.22503 -8.97748,-4.22503 0,0 -15.32496,-0.17 -18.48995,0 -3.172497,0.175 -4.402495,1.06251 -5.644992,2.64252 -0.227499,0.3075 -0.547499,0.74501 -0.874998,1.23501 l 0,-16.73512 -8.452481,0 0,60.58293 8.452481,0 0,-38.26777 c 1.654996,-1.68501 3.924991,-1.70751 5.98999,-1.70751 2.64249,0 16.72746,0.175 19.19495,0.175 2.465,0 2.995,1.93751 2.995,2.99252 l 0,36.80776 8.44998,0 0,-29.78271 -0.0824,-4.73753 c -0.2175,-3.08253 -0.855,-6.89505 -2.56,-8.98007 m -82.829811,3.51503 c 6.302486,0 19.879955,0.1626 19.879955,0.1626 0,0 2.579995,-0.165 2.579995,4.52753 l 8.88998,0 c 0,0 0,-2.75002 -0.644999,-4.52753 -0.647498,-1.78001 -1.777496,-7.59506 -10.507476,-8.07256 -8.727481,-0.495 -20.689954,0 -23.269949,0 -2.587494,0 -10.667476,2.42002 -10.989975,8.72006 -0.3225,6.30255 0.162399,28.93271 0.162399,30.38522 0,1.45501 1.617497,9.05506 10.339977,9.05506 8.727481,0 21.982452,-0.06 24.889945,-0.1624 4.36249,-0.165 6.787485,-2.26001 8.244982,-5.17503 1.454997,-2.91002 1.612496,-4.36003 1.284997,-6.78755 l -8.234982,0 c 0,0 0.16,3.87753 -1.617496,3.87753 l -22.45995,0 c 0,0 -4.207491,0.97 -4.207491,-5.81505 l 0,-23.28016 c 0,0 -0.647498,-2.90752 5.659988,-2.90752 m 131.554711,0 c 6.30748,0 19.87745,0.1626 19.87745,0.1626 0,0 2.5875,-0.165 2.5875,4.52753 l 8.89748,0 c 0,0 0,-2.75002 -0.6525,-4.52753 -0.64,-1.78001 -1.7775,-7.59506 -10.50248,-8.07256 -8.72748,-0.495 -20.69495,0 -23.27745,0 -2.58249,0 -10.66747,2.42002 -10.98497,8.72006 -0.33,6.30255 0.16,28.93271 0.16,30.38522 0,1.45501 1.61249,9.05506 10.33497,9.05506 8.73748,0 21.98996,-0.06 24.89495,-0.1624 4.36499,-0.165 6.78748,-2.26001 8.24748,-5.17503 1.4525,-2.91002 1.615,-4.36003 1.29,-6.78755 l -8.24248,0 c 0,0 0.1626,3.87753 -1.6175,3.87753 l -22.46495,0 c 0,0 -4.19999,0.97 -4.19999,-5.81505 l 0,-23.28016 c 0,0 -0.65,-2.90752 5.65249,-2.90752 m 76.17733,-7.91006 -24.28745,0 c -2.58999,0 -10.66498,2.42002 -10.99747,8.72006 -0.32,6.30255 0.1626,28.93271 0.1626,30.38522 0,1.45501 1.61749,9.05506 10.34747,9.05506 l 25.25495,0 c 8.72998,0 10.34747,-7.60005 10.34747,-9.05506 0,-1.45251 0.4825,-24.08267 0.16,-30.38522 -0.32,-6.30004 -8.40248,-8.72006 -10.98747,-8.72006 m 2.58499,10.81758 0,23.28016 c 0,6.78505 -4.19999,5.81505 -4.19999,5.81505 l -21.05995,0 c 0,0 -4.20249,0.97 -4.20249,-5.81505 l 0,-23.28016 c 0,0 -0.6425,-2.90752 5.65998,-2.90752 l 18.14496,0 c 6.30499,0 5.65749,2.90752 5.65749,2.90752 m 13.76747,-2.31252 5.32499,0 c 0.4925,0 1.705,-3.10502 1.87749,-3.56252 0.4,-1.07251 0.71,-2.17002 0.95,-3.27253 0.33,-1.47001 0.53,-2.97252 0.6775,-4.48003 0.035,-0.3925 0.055,-4.52003 0.08,-4.52003 l -8.90998,0 0,15.83511 z m 46.9674,11.56508 -4.18999,0.05 -16.42997,-0.0274 c -2.56749,0 -4.79249,0.24751 -5.62749,-1.05 -0.53499,-0.83501 -0.55499,-2.12252 -0.63249,-3.08753 -0.0976,-1.1925 -0.115,-2.38751 -0.1126,-3.59002 0,-1.11751 -0.175,-2.60752 0.52,-3.58003 0.94249,-1.32001 3.37999,-1.30001 4.81748,-1.30001 6.30749,0 18.31746,0.16501 19.88246,0.16501 1.56,0 3.00999,0.2575 3.00999,4.95003 l 8.65498,0 c -0.16499,-2.72002 -0.29999,-2.67502 -0.44499,-4.50503 -0.195,-2.39752 -1.13,-7.91256 -9.57248,-8.09506 -8.73498,-0.2075 -21.58996,0 -24.17495,0 -5.00999,0 -10.78998,3.76753 -10.78998,9.49507 0,2.47252 -1.11249,12.47509 2.5775,15.65511 2.07249,1.79251 4.62749,2.90002 10.86497,2.90002 l 18.86246,-0.145 c 3.05,0 4.24999,0.515 4.24999,3.34252 l 0,6.71755 c 0,2.14752 -0.83249,2.36752 -5.51498,2.36752 -6.30249,0 -18.13996,-0.1776 -20.39996,-0.16 -2.25999,0.02 -2.90499,-0.2775 -2.90499,-5.19754 l -8.04498,0 c 0,0 0.075,3.00752 0.075,4.92004 0,2.71752 2.34749,7.87755 11.07247,8.36506 8.73498,0.485 20.69245,0 23.27495,0 2.58999,0 10.15998,-2.43252 10.48248,-8.73007 0.105,-2.06751 -0.014,-8.97506 -0.014,-8.97506 0.2,-6.86255 -4.66249,-10.48508 -9.48998,-10.48508"
       style="fill:#231f20;fill-opacity:1;fill-rule:nonzero;stroke:none"
       id="path5179" />
    <path
       inkscape:connector-curvature="0"
       d="m 343.96031,405.43898 24.36244,0 0,4.53254 -24.36244,0 0,22.21765 -5.66999,0 0,-48.58034 30.70243,0 0,4.85753 -25.03244,0 0,16.97262 z"
       style="fill:#706d6e;fill-opacity:1;fill-rule:nonzero;stroke:none"
       id="path5183" />
    <path
       inkscape:connector-curvature="0"
       d="m 380.14823,421.8931 -3.86999,10.30007 -5.93999,0 18.21996,-48.58034 8.00998,0 18.68996,48.58034 -5.87249,0 -3.93749,-10.30007 -25.29994,0 z m 12.55247,-33.74774 -11.01497,29.21521 22.15995,0 -11.14498,-29.21521 z"
       style="fill:#706d6e;fill-opacity:1;fill-rule:nonzero;stroke:none"
       id="path5187" />
    <path
       inkscape:connector-curvature="0"
       d="m 419.09052,397.66093 c 0,-12.95509 6.13999,-14.1176 18.48996,-14.1176 10.81498,0 18.62246,0.45 18.02246,13.66759 l -5.67249,0 c -0.2675,-8.49006 -1.93749,-8.81256 -12.54997,-8.81256 -11.07747,0 -12.61247,1.36251 -12.61247,8.10006 0,9.26007 4.53499,8.48256 13.87997,8.74256 11.87997,0.64751 17.88746,0.3225 17.88746,13.4726 0,13.7326 -6.67249,14.1876 -19.28496,14.1876 -12.75247,0 -19.35996,-1.49001 -18.29246,-15.54761 l 5.67249,0 c -0.1324,10.68758 2.0025,10.68758 12.61997,10.68758 10.67748,0 13.61247,0 13.61247,-9.52257 0,-9.26257 -4.26999,-7.71006 -13.41497,-8.42006 -9.87748,-0.77501 -18.35746,0.3875 -18.35746,-12.43759"
       style="fill:#706d6e;fill-opacity:1;fill-rule:nonzero;stroke:none"
       id="path5191" />
    <path
       inkscape:connector-curvature="0"
       d="m 481.4805,431.87917 -1.58499,0 c 1.20999,-2.27251 1.80999,-4.50253 1.80999,-6.68255 0,-2.33001 -0.7925,-4.27253 -2.37249,-5.84004 -1.5825,-1.56501 -3.55999,-2.34751 -5.93499,-2.34751 -2.39499,0 -4.36749,0.7875 -5.91999,2.36251 -1.54499,1.57251 -2.31749,3.58253 -2.31749,6.02755 0,2.04001 0.64,4.26003 1.9175,6.67004 l -1.5025,0 c -1.175,-2.22251 -1.7575,-4.43503 -1.7575,-6.64504 0,-2.85502 0.915,-5.23254 2.7425,-7.13505 1.83249,-1.90252 4.11249,-2.85252 6.83748,-2.85252 2.75,0 5.04499,0.9725 6.88499,2.91002 1.84499,1.94501 2.76999,4.26003 2.76999,6.94505 0,2.11001 -0.5275,4.30753 -1.5725,6.58754"
       style="fill:#706d6e;fill-opacity:1;fill-rule:nonzero;stroke:none"
       id="path5201" />
    <path
       inkscape:connector-curvature="0"
       d="m 482.808,410.65702 -18.74996,0 0,-1.19501 16.38997,-14.2551 -16.38997,0 0,-1.44751 18.74996,0 0,1.22501 -16.38746,14.2226 16.38746,0 0,1.45001 z"
       style="fill:#706d6e;fill-opacity:1;fill-rule:nonzero;stroke:none"
       id="path5197" />
    <path
       inkscape:connector-curvature="0"
       d="m 482.808,385.30084 -18.74996,0 0,-1.44751 18.74996,0 0,1.44751 z"
       style="fill:#706d6e;fill-opacity:1;fill-rule:nonzero;stroke:none"
       id="path5193" />
  </g>
</svg>
