<?xml version="1.0" encoding="utf-8"?>
<!-- Generator: Adobe Illustrator 17.1.0, SVG Export Plug-In . SVG Version: 6.00 Build 0)  -->
<!DOCTYPE svg PUBLIC "-//W3C//DTD SVG 1.1//EN" "http://www.w3.org/Graphics/SVG/1.1/DTD/svg11.dtd">
<svg version="1.1" id="Ebene_1" xmlns="http://www.w3.org/2000/svg" xmlns:xlink="http://www.w3.org/1999/xlink" x="0px" y="0px"
	 viewBox="0 0 1000 545.5" enable-background="new 0 0 1000 545.5" xml:space="preserve">
<g>
	<polyline points="1000,545.5 0,545.5 0,0 1000,0 1000,545.5 	"/>
	<path fill="#98ED35" d="M500,62C263.1,62,71,156.4,71,272.7c0,116.4,192.1,210.7,429,210.7c236.9,0,429-94.3,429-210.7
		C929,156.4,736.9,62,500,62z M500,468.3c-203.6,0-368.6-87.6-368.6-195.6c0-108,165-195.6,368.6-195.6
		c203.6,0,368.6,87.6,368.6,195.6C868.6,380.8,703.6,468.3,500,468.3z"/>
	<path fill-rule="evenodd" clip-rule="evenodd" fill="#98ED35" d="M689.5,184.7c0.5-7.6,1.8-17.5-2.5-23.6c-1.9-2.7-4.7-4.7-8-5.2
		c-8.2-1.1-13.6,6.9-17.2,13.1c-3.6,6.1-6.6,12.5-9.8,18.8c-4.6,9-9.3,18.1-14.8,26.6c-3.4,5.2-7.6,10.8-11.8,14.3
		c-2.5,2-4.8,3.3-7.2,3.8c-3,0.5-6,0-8.1-2.2l2.5-9.3l29.1-21.7c0.3-4.3,0.5-8.4,0-12.7c-0.7-6.4-3.1-15.1-9.2-18.5
		c-5.4-2.9-11.2,1.3-14.7,5.3c-4.7,5.3-8.3,11.6-12.3,17.4c-1.4,2-5,6.1-7.8,4.8c-3.2-1.4-2.3-8.1-1.8-10.8c0.6-3.3,1.7-6.7,3-9.6
		l-8.4,2.9c-0.6,2.1-1.3,4.2-2,6.3c-2.9,8.6-5.7,17.1-9.1,25.5c-0.3,0.9-0.9,2.2-1.3,3.1c0.6-6.8,0.8-13.7-0.2-20.5
		c-0.4-2.8-1-6.3-4.3-7.2c-3.2-0.9-6.7,1.4-8.8,3.7c-3.5,3.9-6.4,8.5-8.8,13.1c-0.3,0.6-0.8,1.5-1.1,2.1l-0.3-0.7
		c-2.5-5.3-7-11.7-13.7-10c-4.6,1.1-8.4,5.5-10.6,9.6c-5.8,11-8.1,23.7-11.7,35.5c-1.6,5.3-3.7,10.6-6.1,15.5
		c-1.9,3.9-5.8,10.5-10.5,15.2c-2.5,2.6-5.2,4.5-8.1,5.2c-2.5,0.6-5.2,0.3-7.9-1.5c-1.8-1.2-3.8-3.5-4.5-5.6c1-2.6,2.2-5.1,3.2-7.7
		c1.1-2.8,2.5-6.3,3.5-9.1c2.9-8,5.4-15.9,8.9-24c0.3-0.6,0.7-1.6,1.1-2.1c0.2-0.2,0.5-0.5,0.8-0.6c1.4-0.4,1.8,1,2,2
		c0.9,5.7,0.9,11.4,0.7,17.2l7.5-6.9c-0.6-8.2-1.5-23.6-10-27.9c-4.5-2.3-9.2,0.5-12,4.1c-5.9,7.5-8,17.8-9.1,27.2
		c-1.6,13.2-4,26.8-11.1,38.5c-0.9,1.4-1.9,2.9-3,4.2c-1.3,1.4-3.1,2.5-5.1,2.2c-3.5-0.5-4.9-3.6-5.4-6.7c-0.4-2.3-0.4-7.5,0.2-12.1
		c1.1-9.1,2.3-18,4-27.1c1.3-6.9,2.7-13.6,4.2-20.7l-10.1,5.1c-1.4,17.3-3.8,34.6-8.2,51.4c-1.4,5.6-3.1,11.3-6,16.3
		c-1.2,2.1-3.9,5.3-6.7,4.2c-2.7-1.1-3.1-5.3-3.1-7.8c0.1-5.8,0.6-11.6,1.2-17.4c1-8.7,2.6-17.2,2.3-26c-0.2-6.4-2.6-17-11.4-15
		c-5.4,1.2-9.6,6.2-12.5,10.6c-1.5,2.2-2.7,4.6-3.8,7.1c0.5-2.7,1.2-6.7,1.6-9.5c2.1-12.2,4.5-24.3,7.3-36.3c0.9-3.8,2-8,2.9-11.8
		c1-4.3,2-8.6,3.3-12.9l-10.4,6.3c-0.3,1.5-0.6,3.6-0.8,5.1c-1,6.3-2.2,12.7-3.5,18.9c-2.3,11.6-5.1,23.2-8.5,34.5
		c-3,10-6.7,19.7-11.3,29.1c-5.2,10.6-11.8,21.4-17.7,30.1c-5.9,8.7-11.7,16.1-17,21.3c-5.3,5.2-9.1,7.7-14.7,7.6
		c-5.6-0.1-8.9-6.4-10.2-11.1c-1.2-4.3-1.6-8.7-1.4-13.1c1.9-6.1,4.4-12.3,6.8-18.4c6.3-16,13.5-31.7,21.8-46.7
		c1.4-2.5,4.4-7.7,7.5-12.8c3.2-5.2,6.7-9.9,10.1-10.2c1.3-0.2,2.8,0,3.7,1.6c0.8,1.3,1.3,3.1,1.4,4.5c0.6,6.3-0.6,12.2-1.9,18.3
		l8.8-3.1c0.7-8.1,1.1-16.7,0-24.2c-1.1-7.4-3.8-19-10.2-23.1c-2-1.3-4.4-1.9-6.8-1.5c-7.5,1-14.1,8.7-18.4,14.4
		c-6,7.9-11,16.3-15.4,25.1c-10.3,20.9-15.3,43.7-16.4,66.9c-0.9,19,0.3,38.2,4,56.8c2.4,12.3,5.8,24.1,9.7,36
		c16.9-24.5,31.8-51.7,45.5-77.9c6.1-11.6,11.5-23.6,16.6-35.6c0.8-1.9,1.9-4.7,2.7-6.6c-1,3.8-1.6,7.6-2.4,11.4
		c-1.6,7.9-2.8,15.9-4,23.8c-2.2,14.3-3.9,28.8-4.3,43.3c0,2.2-0.1,5.3-0.1,7.5l8.5-9c0.1-1.7,0.2-4.1,0.3-5.8
		c0.7-9.2,2.1-18.3,3.9-27.4c2.9-14.5,7.5-28.8,13.6-42.3c2.4-5.3,5-10.6,8.3-15.5c0.8-1.2,2.3-3.3,3.8-3.8c1.6-0.5,2.8,0.8,2.8,2.4
		c0,2.4-0.3,4.1-0.7,7c-0.4,2.9-1,6.9-1.5,10.3c-1.8,11.9-2.8,25.8-2.2,36.2c0.6,10.4,1.8,17.3,7.1,24.5c5.1-8.1,9.5-16.6,13.4-25.3
		c1.8-4,3.2-8.2,4.7-12.3c0.7,3.6,1.5,7.2,2.6,10.7c1.3,4.5,2.9,9.1,5.4,13.1c0.5,0.8,1.3,2,1.9,2.8c3.4-5.9,6.5-11.1,10.3-17.7
		c3.8-6.6,7.9-14.6,11.5-22.1c0.4-0.9,1-2.2,1.4-3c1,4,2.3,7.9,3.6,11.8c2.2,6.3,4.9,12.3,9,17.6c11.9-16.6,22.6-34.2,30.3-53.2
		c0.3,2.5,0.5,5.1,0.9,7.6c1.1,8.2,2.8,16.5,5.7,24.3c0.7,2.1,1.6,4.3,2.6,6.3c0.4,0.7,0.9,1.7,1.3,2.3c2.3-3.7,4.6-7.5,6.8-11.3
		c1.8-3.2,3.5-6.4,5.1-9.7c5.3-10.8,9.5-22.3,11.9-34.1c1.5-7.1,2.3-14.4,2.4-21.7c1.5-3.7,3.2-7.4,5.1-10.9
		c1.1-2.1,4.5-7.6,7.5-6.3c1.8,0.8,1.8,3.1,1.7,4.7c-1.3,24.2-4.5,48.1-8.3,72.1c-0.4,2.8-0.9,5.6-1.3,8.4l8.7-5.7
		c2.4-21.9,7.7-43.4,15.7-63.9c1.4-3.7,2.9-7.3,4.5-10.9c0.1,0.7,0.2,1.4,0.5,2.1c0.5,1.2,1.1,2.3,1.9,2.8c0.8,0.5,1.7,0.7,3,0.3
		c3.5-1.1,6.7-4.2,9-6.8c0.3-0.3,0.5-0.5,0.9-0.9c-0.1,0.3-0.2,0.8-0.2,1c-1.4,6.9-2.3,14.1-2.8,21.1c-0.4,5.8-0.2,11.4,0.4,17.2
		c1,9.3,2.7,18.5,6.3,27.2c4.9-6,9.5-12.2,13.9-18.6c4.9-6.9,9.5-14,14-21.2c4.5-7.2,8.6-14.7,12.7-22.1l0,0.8
		c-0.2,3.5-0.3,7-0.3,10.5c0,7.1,0.4,14.5,1.6,21.6c1.1,6.4,2.6,11.8,6.3,17c1.4-1.6,2.8-3.2,4.1-4.8c3.9-4.9,7.6-10,10.9-15.3
		c3.6-5.6,6.7-11.3,9.6-17.2c2.4-4.9,4.6-9.8,6.8-14.8l-4.6-8.8c-0.4,1-0.9,2.5-1.2,3.5c-0.9,2.6-2,5.1-3.1,7.5
		c-2.3,4.9-5.2,9.9-10,12.5c-3.4,1.8-7.4,1.4-10.2-1.3c-1.2-1.2-2-2.4-2.8-3.9l3.9-10.9L689.5,184.7z M669,182.4
		c1-2.1,4.9-10.5,8.3-13.9c1-0.9,1.9-1.4,2.7-1.4c1.3,0,2.2,1.6,2.4,3c0.4,3.3,0,7.4-0.4,10.8l-16.3,9.2
		C666.8,187.4,667.8,185,669,182.4z M626.1,185.4c1-1.6,3.4-4.9,5.8-3.8c2.4,1.1,2.6,6.2,2.8,8.3c0.1,2.1,0.2,4.1,0,6.2l-18.5,12
		C618.8,200.1,621.5,192.5,626.1,185.4z M548.3,232.8c-1.2,5.7-2.9,11.3-5.2,16.6c-0.7,1.6-1.6,3.3-2.7,4.8
		c-1.3,1.7-3.1,3.2-5.3,3.4c-2.1,0.2-4-0.8-5.3-2.5c-1.2-1.6-2-3.5-2.5-5.5l-0.2-0.8c5-11.4,10.1-22.9,15-34.3
		c0.7-1.6,1.3-3.2,2-4.7c0.5-1,1.2-2.4,2.4-2.7c0.8-0.2,1.5,0.1,2,0.9c1.2,2.2,1.3,5,1.5,7.4C550.3,221.3,549.6,227.1,548.3,232.8z"
		/>
	<path fill="#98ED35" d="M653.7,148.2l3.6-15.5c-1.6,0.7-3.9,1.8-5.5,2.6c-8,3.9-15.7,8.8-23,13.9c-3.7,2.5-7.3,5.2-10.9,8l-1.9,9.9
		c3.1-2.2,6.3-4.1,9.5-5.9C634.3,156,643.7,151,653.7,148.2z"/>
	<path fill="#98ED35" d="M667.3,252.8c-2.3,2.8-5.1,6.3-7.5,9c-0.8,0.9-1.9,2-2.7,2.9c-0.4-0.4-0.9-1-1.2-1.5c-1.1-1.4-2.1-3-3-4.6
		c-0.7-1.3-1.3-2.6-1.9-3.9c-8.6,2-17.3,4.1-25.9,6.2c-1.2,0.3-2.9,0.7-4.1,1c-2.5,3.2-4.9,6.4-7.5,9.5c-1.4,1.7-3.7,4.3-5.2,6
		c-0.4-0.6-0.9-1.6-1.3-2.3c-1.5-2.8-2.5-5.8-3.5-8.8c-0.4,0.1-2.1,0.5-2.5,0.7c-5.4,1.4-10.8,2.8-16.2,4.3
		c-2.7,0.8-5.5,1.6-8.3,2.2c-0.1,1.1-0.3,2.7-0.5,3.7c-0.2,1.3-0.4,3.4-0.6,4.7L555.1,295c0.4-2.4,1-5.8,1.3-8.2
		c0.3-2.3,0.7-5.7,1-7.9c-2,0.6-4.9,1.5-6.9,2.1c-2.2,0.7-5.4,1.6-7.5,2.3c-2.7,4.6-5.2,9.2-8.2,13.6c-1.1,1.6-2.7,3.8-3.8,5.4
		c-0.6-0.6-1.4-1.5-1.9-2.2c-2.6-3.2-4.4-6.9-6.1-10.7c-3.3,1.1-8.1,2.6-11.3,3.7c-2.4,0.8-5.9,1.9-8.2,2.7c-2,2.9-3.9,6-5.9,8.9
		c-2.4,3.5-4.9,6.8-7.5,10.1c-0.6-0.6-1.4-1.4-1.9-2c-2.5-2.9-4.5-6.2-6.3-9.5c-1.3,0.5-3.2,1.2-4.6,1.7c-3.6,1.3-7.3,2.6-10.9,4
		c-0.5,0.9-1.2,2.3-1.7,3.2c-1.8,3.3-3.9,6.7-5.9,9.8c-1.1,1.8-2.8,4.4-3.9,6.1c-1-0.9-2.4-2.3-3.3-3.4c-1.3-1.6-2.5-3.3-3.5-5.2
		c-0.5-1-1.1-1.9-1.6-2.9c-1.2,0.5-3,1.2-4.2,1.7c-1.1,0.5-2.9,1.2-4,1.6c-3.4,6-6.4,12.3-10.3,18c-0.2,0.3-0.6,0.8-0.9,1.1
		c-3.7-3.2-6-6.3-8.3-10.8c-6.7,2.8-13.2,5.8-19.8,8.7c-0.3,0.1-2,0.9-2.3,1c-0.1,0.8-0.2,2-0.2,2.9c-0.1,1.8-0.2,4.4-0.3,6.2
		l-17.7,19c-0.3-1.9-0.7-4.8-0.8-6.7c-0.2-3.4-0.4-6.2-0.4-9.2c0-0.9,0-2.4,0-3.3c-3.5,1.6-8.7,4-12.2,5.7c-3.3,1.5-8,3.8-11.3,5.4
		c-4.6,8.5-9.5,16.7-14.9,24.7c-3.6,5.3-7.5,10.4-11.7,15.2c-1.6-3.2-3-6.5-4.1-9.9c-1.4-4.2-2.9-8.5-4.2-12.8
		c-12.2,6.3-24.3,12.8-36.4,19.3c0.2,1.8,1.2,6.8,4.2,8.9c2.7,1.9,6.3,1.4,8.7-0.2c-0.1,3.4,1.2,7,4.6,8.6
		c7.5,3.7,16.7-1.9,23.2-5.4c25.6-13.9,51.6-27.6,77.6-40.9c45-23.1,91.6-43.4,139.5-59.6c18.2-6.2,36.6-11.8,55-17.5
		c21.8-6.7,43.7-12.7,65.9-18.2c5.2-1.3,10.4-2.9,15.2-5.3c3.8-1.8,7.5-4.3,10.2-7.7c0.6-0.8,1.4-2,1.9-2.8c1.5-0.6,3.1-1.3,4.5-1.9
		c2.6-1.1,5.1-2.5,7.3-4.3c2.1-1.7,3.8-3.7,4.7-6.3c-12,2.8-23.9,5.9-35.9,8.7C668.7,251,667.9,252.1,667.3,252.8z"/>
	<path fill="#98ED35" d="M455.7,206c2.8-2.1,4.9-3.2,7.2-4.1v0h0l0,0c1.3,1.3,2.5,2.7,3.6,4.1c2.1,2.6,4,5.4,5.7,8.2
		c0.6,0.9,1.4,2.3,1.9,3.3c0.4-3.4,0.5-6.7,0.5-10.1c0.1-12.7-1.9-25.8-9.2-36.5c-4.4,3.4-8.7,7.5-12.3,12.3
		c-5.2,6.9-9.2,14.5-11.8,22.7c-2.2,6.8-3,13.9-3.9,21C442.8,217.9,450.5,209.9,455.7,206z"/>
	<path fill="#98ED35" d="M708.1,136.6c-5.2,0-9.4,4.2-9.5,9.4c0,5.2,4.2,9.4,9.4,9.5c5.2,0,9.4-4.2,9.5-9.4
		C717.5,140.8,713.3,136.6,708.1,136.6z M708,154c-4.4,0-8-3.6-8-8c0-4.4,3.6-8,8-8c4.4,0,8,3.6,8,8C716,150.4,712.5,154,708,154z"
		/>
	<path fill="#98ED35" d="M712.8,143.4c0-1.5-0.6-2.5-1.8-3c-0.7-0.3-1.8-0.4-3.2-0.4l-4.1,0l0,11.9l2.1,0l0-4.7h1.6
		c1.1,0,1.9,0.1,2.3,0.4c0.7,0.4,1.1,1.4,1.1,2.7v0.9l0,0.4l0,0.1l0,0.1l1.9,0l-0.1-0.2c-0.1-0.1-0.1-0.3-0.1-0.6c0-0.3,0-0.6,0-0.9
		v-0.9c0-1.7-1-2.8-2.7-3c0.7-0.1,1.3-0.3,1.7-0.6C712.4,145.3,712.8,144.5,712.8,143.4z M709.6,145.5c-0.4,0.2-1.1,0.3-2,0.3
		l-1.9,0l0-4.3l1.8,0c1.1,0,2,0.2,2.5,0.5c0.5,0.3,0.8,0.9,0.8,1.7C710.8,144.5,710.4,145.2,709.6,145.5z"/>
</g>
</svg>
