<svg xmlns="http://www.w3.org/2000/svg" viewBox="0 0 682.22 130.74"><defs><style>.cls-1{fill:#7b7c7f;}.cls-2{fill:#82c341;}.cls-3{fill:#fff;}.cls-4{fill:#66b76e;}.cls-5{fill:#bfd730;}.cls-6{fill:#0090a1;}.cls-7{fill:#3670b8;}</style></defs><title>Asset 1</title><g id="Layer_2" data-name="Layer 2"><g id="ChristianaCare_logo" data-name="ChristianaCare logo"><g id="logotype"><path id="CareTM" class="cls-1" d="M680.87,80.93V74.81l-2.53,4.64h-.75l-2.54-4.64v6.12h-1.34V72.42h1.44l2.82,5.2,2.81-5.2h1.44v8.51Zm-8.3-7.32h-2.83v7.32h-1.35V73.61h-2.85V72.42h7Zm-28.16,41a22.63,22.63,0,0,1-8.85-1.67,20.41,20.41,0,0,1-6.76-4.54,20.07,20.07,0,0,1-4.3-6.68,21.38,21.38,0,0,1-1.52-8,22.5,22.5,0,0,1,1.48-8.19,19.77,19.77,0,0,1,4.27-6.76,20.33,20.33,0,0,1,6.79-4.62,22.56,22.56,0,0,1,9-1.71,22,22,0,0,1,8.88,1.71,20.51,20.51,0,0,1,6.68,4.58,19.48,19.48,0,0,1,4.19,6.68,22.18,22.18,0,0,1,1.44,7.92c0,.67,0,1.32,0,1.94a8.49,8.49,0,0,1-.19,1.55H634a11.94,11.94,0,0,0,1.16,4.27,10.45,10.45,0,0,0,2.41,3.18,10.33,10.33,0,0,0,3.33,2,10.93,10.93,0,0,0,3.89.7,12,12,0,0,0,5.86-1.51,8,8,0,0,0,3.76-4l8.93,2.48a18.09,18.09,0,0,1-7.18,7.65A22.3,22.3,0,0,1,644.41,114.61ZM655,90.08a10.83,10.83,0,0,0-3.38-7.34,10.59,10.59,0,0,0-14.4,0A10.61,10.61,0,0,0,634.9,86a11.08,11.08,0,0,0-1,4.12Zm-31.68-7.92A20.53,20.53,0,0,0,614.83,84a10.73,10.73,0,0,0-5.36,5.24v24.61h-10.4V73.15h9.55v8.7a18.65,18.65,0,0,1,2.56-3.77,20.17,20.17,0,0,1,3.18-2.91,14.63,14.63,0,0,1,3.46-1.9,9.52,9.52,0,0,1,3.38-.66h1.28a4.28,4.28,0,0,1,.81.08Zm-56.12,32.45a15.62,15.62,0,0,1-5.52-1,13.25,13.25,0,0,1-4.42-2.72,12.65,12.65,0,0,1-2.91-4.07,12.35,12.35,0,0,1-1.05-5.13,11.36,11.36,0,0,1,1.28-5.32,12.12,12.12,0,0,1,3.57-4.15,17.78,17.78,0,0,1,5.47-2.68,24.15,24.15,0,0,1,7-1,30.25,30.25,0,0,1,5.32.47,21.74,21.74,0,0,1,4.62,1.32V88.06a8.18,8.18,0,0,0-2.29-6.21q-2.29-2.17-6.79-2.18a17.91,17.91,0,0,0-6.37,1.17,29.53,29.53,0,0,0-6.37,3.42l-3.18-6.6a30,30,0,0,1,16.92-5.21q8.77,0,13.63,4.31t4.85,12.46v12.66a3.67,3.67,0,0,0,.58,2.33,2.56,2.56,0,0,0,1.9.77v8.85a23.26,23.26,0,0,1-4.58.55,6.94,6.94,0,0,1-4.54-1.32,5.7,5.7,0,0,1-2-3.5l-.23-2.25a18.08,18.08,0,0,1-6.6,5.44A19,19,0,0,1,567.17,114.61Zm3-7.61a13.58,13.58,0,0,0,5-.93,9.12,9.12,0,0,0,3.69-2.48,3.75,3.75,0,0,0,1.71-3V96a25.54,25.54,0,0,0-4-1.13,22.16,22.16,0,0,0-4.19-.43,11.1,11.1,0,0,0-6.6,1.83,5.59,5.59,0,0,0-.54,9A7.29,7.29,0,0,0,570.12,107ZM502,85.88a28.47,28.47,0,0,1,1.83-10,26.78,26.78,0,0,1,13.86-15.1A26.4,26.4,0,0,1,529.2,58.4a25.09,25.09,0,0,1,13.16,3.34,21.37,21.37,0,0,1,8.27,8.7L542.4,76.1a13.89,13.89,0,0,0-2.64-3.92,13.11,13.11,0,0,0-3.34-2.52,15.25,15.25,0,0,0-3.72-1.36,18,18,0,0,0-3.81-.43,14.39,14.39,0,0,0-7,1.64,15.33,15.33,0,0,0-5,4.23,18.55,18.55,0,0,0-3,5.9,22.4,22.4,0,0,0-1,6.56,21.28,21.28,0,0,0,1.17,7,18.49,18.49,0,0,0,3.3,5.94,16.36,16.36,0,0,0,5.12,4.11,14,14,0,0,0,6.56,1.56,17.33,17.33,0,0,0,3.88-.47,14.66,14.66,0,0,0,3.84-1.47,14.82,14.82,0,0,0,3.38-2.6,12.12,12.12,0,0,0,2.49-3.85l8.77,5a16.59,16.59,0,0,1-3.77,5.47,24.36,24.36,0,0,1-5.51,4,27.51,27.51,0,0,1-6.56,2.48,28.72,28.72,0,0,1-6.83.86A23.44,23.44,0,0,1,518,111.81a27.85,27.85,0,0,1-8.42-6.48A29.92,29.92,0,0,1,504,96.25,28.33,28.33,0,0,1,502,85.88Z"/><path id="Christiana" class="cls-2" d="M472.46,114.61a15.53,15.53,0,0,1-5.51-1,13.2,13.2,0,0,1-4.43-2.72,12.65,12.65,0,0,1-2.91-4.07,12.35,12.35,0,0,1-1.05-5.13,11.36,11.36,0,0,1,1.28-5.32,12.34,12.34,0,0,1,3.57-4.15,17.73,17.73,0,0,1,5.48-2.68,24.08,24.08,0,0,1,7-1,30.16,30.16,0,0,1,5.32.47,21.74,21.74,0,0,1,4.62,1.32V88.06a8.14,8.14,0,0,0-2.29-6.21q-2.29-2.17-6.79-2.18a17.91,17.91,0,0,0-6.37,1.17A29.24,29.24,0,0,0,464,84.26l-3.19-6.6a30,30,0,0,1,16.93-5.21c5.84,0,10.39,1.44,13.62,4.31s4.85,7,4.85,12.46v12.66a3.73,3.73,0,0,0,.58,2.33,2.59,2.59,0,0,0,1.91.77v8.85a23.43,23.43,0,0,1-4.58.55,7,7,0,0,1-4.55-1.32,5.64,5.64,0,0,1-2-3.5l-.24-2.25a18.08,18.08,0,0,1-6.6,5.44A18.92,18.92,0,0,1,472.46,114.61Zm3-7.61a13.5,13.5,0,0,0,5-.93,9.12,9.12,0,0,0,3.69-2.48,3.75,3.75,0,0,0,1.71-3V96a25.54,25.54,0,0,0-4-1.13,22.08,22.08,0,0,0-4.19-.43,11.1,11.1,0,0,0-6.6,1.83,5.59,5.59,0,0,0-.54,9A7.29,7.29,0,0,0,475.41,107Zm-21.58,6.83H443.42V91q0-4.89-1.7-7.14A5.62,5.62,0,0,0,437,81.62a8.72,8.72,0,0,0-3.18.62A11.6,11.6,0,0,0,430.73,84a14.39,14.39,0,0,0-2.6,2.68,10.57,10.57,0,0,0-1.71,3.42v23.75H416V73.15h9.39v7.53a15.45,15.45,0,0,1,6.53-6.05,20.86,20.86,0,0,1,9.62-2.18,12.25,12.25,0,0,1,6.21,1.4,10.13,10.13,0,0,1,3.73,3.65,15.34,15.34,0,0,1,1.82,5.12,33.34,33.34,0,0,1,.51,5.83Zm-69.72.78a15.61,15.61,0,0,1-5.51-1,13.25,13.25,0,0,1-4.42-2.72,12.65,12.65,0,0,1-2.91-4.07,12.35,12.35,0,0,1-1-5.13,11.36,11.36,0,0,1,1.28-5.32,12.12,12.12,0,0,1,3.57-4.15,17.78,17.78,0,0,1,5.47-2.68,24.15,24.15,0,0,1,7-1,30.25,30.25,0,0,1,5.32.47,21.74,21.74,0,0,1,4.62,1.32V88.06a8.18,8.18,0,0,0-2.29-6.21c-1.53-1.45-3.79-2.18-6.8-2.18A17.9,17.9,0,0,0,382,80.84a29.53,29.53,0,0,0-6.37,3.42l-3.18-6.6a30,30,0,0,1,16.92-5.21q8.78,0,13.63,4.31t4.85,12.46v12.66a3.67,3.67,0,0,0,.58,2.33,2.56,2.56,0,0,0,1.9.77v8.85a23.34,23.34,0,0,1-4.58.55,6.94,6.94,0,0,1-4.54-1.32,5.7,5.7,0,0,1-2-3.5l-.23-2.25a18.08,18.08,0,0,1-6.6,5.44A19,19,0,0,1,384.11,114.61Zm3-7.61a13.58,13.58,0,0,0,5-.93,9.12,9.12,0,0,0,3.69-2.48,3.75,3.75,0,0,0,1.71-3V96a25.54,25.54,0,0,0-4-1.13,22.16,22.16,0,0,0-4.19-.43,11.1,11.1,0,0,0-6.6,1.83,5.59,5.59,0,0,0-.54,9A7.29,7.29,0,0,0,387.07,107Zm-32.3-39.51V57.16h10.4V67.49Zm0,46.34V73.15h10.4v40.68Zm-3.88-2.09a47.23,47.23,0,0,1-5.12,1.86,21.62,21.62,0,0,1-6.37.93,14.9,14.9,0,0,1-4.08-.54,8.94,8.94,0,0,1-3.33-1.75,8.54,8.54,0,0,1-2.29-3.1,11.24,11.24,0,0,1-.86-4.62V81.15h-5.35v-8h5.35V60h10.4V73.15h8.54v8h-8.54V101a3.7,3.7,0,0,0,1.13,3.07,4.33,4.33,0,0,0,2.76.89,9.66,9.66,0,0,0,3.18-.54c1-.36,1.86-.67,2.48-.93Zm-46,2.87a31.66,31.66,0,0,1-10-1.63,24.36,24.36,0,0,1-8.38-4.66l3.88-6.52a33.41,33.41,0,0,0,7.26,4,19.53,19.53,0,0,0,7,1.36,8.84,8.84,0,0,0,4.89-1.17,3.75,3.75,0,0,0,1.79-3.34,3.34,3.34,0,0,0-2.1-3.18,45.53,45.53,0,0,0-6.83-2.33q-4-1.08-6.75-2.09a17.65,17.65,0,0,1-4.51-2.29,7.85,7.85,0,0,1-2.48-3,9.34,9.34,0,0,1-.78-4,12.57,12.57,0,0,1,1.21-5.59A12,12,0,0,1,292.43,76a15.55,15.55,0,0,1,5.09-2.68,20.69,20.69,0,0,1,6.33-.93,27.14,27.14,0,0,1,8.57,1.32A20.87,20.87,0,0,1,319.76,78l-4.19,6.29a24,24,0,0,0-6-3.42,16.33,16.33,0,0,0-5.78-1.09,8.34,8.34,0,0,0-4.43,1.09,3.77,3.77,0,0,0-1.78,3.49,3.44,3.44,0,0,0,.42,1.79,3.85,3.85,0,0,0,1.36,1.24,13.67,13.67,0,0,0,2.45,1c1,.34,2.26.68,3.76,1,2.8.72,5.19,1.45,7.18,2.17a19.43,19.43,0,0,1,4.9,2.48,9,9,0,0,1,2.79,3.23,9.91,9.91,0,0,1,.89,4.38,11.3,11.3,0,0,1-4.42,9.43Q312.47,114.61,304.85,114.61ZM271.24,67.49V57.16h10.4V67.49Zm0,46.34V73.15h10.4v40.68ZM267,82.16A20.53,20.53,0,0,0,258.51,84a10.73,10.73,0,0,0-5.36,5.24v24.61h-10.4V73.15h9.55v8.7a18.65,18.65,0,0,1,2.56-3.77A20.17,20.17,0,0,1,258,75.17a14.63,14.63,0,0,1,3.46-1.9,9.52,9.52,0,0,1,3.38-.66h1.28a4.28,4.28,0,0,1,.81.08Zm-31.75,31.67h-10.4V91q0-4.82-1.79-7.1a6,6,0,0,0-5-2.29,7.81,7.81,0,0,0-3,.62A11.27,11.27,0,0,0,212.09,84a14.87,14.87,0,0,0-2.56,2.68,10.57,10.57,0,0,0-1.71,3.42v23.75h-10.4V57.16h10.4V80.68a15.64,15.64,0,0,1,6.09-6.09,17.25,17.25,0,0,1,8.5-2.14,13.48,13.48,0,0,1,6.45,1.36,10.32,10.32,0,0,1,3.88,3.61,14.9,14.9,0,0,1,1.94,5.13,31.82,31.82,0,0,1,.54,5.9ZM143.38,85.88a28.47,28.47,0,0,1,1.83-10,26.78,26.78,0,0,1,13.86-15.1,26.41,26.41,0,0,1,11.49-2.41,25.08,25.08,0,0,1,13.15,3.34,21.37,21.37,0,0,1,8.27,8.7l-8.23,5.66a13.89,13.89,0,0,0-2.64-3.92,13.07,13.07,0,0,0-3.33-2.52,15.48,15.48,0,0,0-3.73-1.36,18,18,0,0,0-3.8-.43,14.41,14.41,0,0,0-7,1.64,15.33,15.33,0,0,0-5,4.23,18.55,18.55,0,0,0-3,5.9,22.4,22.4,0,0,0-1,6.56,21.28,21.28,0,0,0,1.17,7,18.49,18.49,0,0,0,3.3,5.94,16.36,16.36,0,0,0,5.12,4.11,14,14,0,0,0,6.56,1.56,17.26,17.26,0,0,0,3.88-.47,14.49,14.49,0,0,0,7.22-4.07A12.12,12.12,0,0,0,184,96.44l8.77,5A16.59,16.59,0,0,1,189,107a24.14,24.14,0,0,1-5.51,4,27.51,27.51,0,0,1-6.56,2.48,28.72,28.72,0,0,1-6.83.86,23.44,23.44,0,0,1-10.79-2.49,27.85,27.85,0,0,1-8.42-6.48,29.92,29.92,0,0,1-5.52-9.08A28.33,28.33,0,0,1,143.38,85.88Z"/></g><g id="logomark"><path class="cls-3" d="M95.68,54.73C84.51,52.21,74,53.79,67.89,58.56c2.63-7.32.89-17.78-5-27.62-5.85,9.84-7.58,20.3-4.95,27.62-6.15-4.77-16.63-6.35-27.8-3.83,7.56,8.6,17,13.48,24.74,13.24C48.5,72.34,43.76,81.82,42.7,93.22c10.52-4.52,18.07-12,20.24-19.43,2.17,7.47,9.72,14.91,20.23,19.43-1-11.4-5.8-20.88-12.23-25.25C78.72,68.21,88.13,63.33,95.68,54.73Z"/><path class="cls-4" d="M62.94,30.94c-5.85,9.84-7.58,20.3-4.95,27.62-6.15-4.77-16.63-6.35-27.8-3.83q-1.56-1.78-3-3.78a47.19,47.19,0,0,1-8-17.09A47.12,47.12,0,0,1,37.94,36q2.36.75,4.54,1.67c-.16-1.57-.25-3.18-.26-4.82a46.63,46.63,0,0,1,3.71-19.13A46.79,46.79,0,0,1,60.28,26.9Q61.72,28.9,62.94,30.94Z"/><path class="cls-4" d="M30.19,54.73c-1.54.35-3.1.77-4.66,1.28a46.75,46.75,0,0,0-17,9.57A46.68,46.68,0,0,0,25.6,75c1.57.5,3.13.91,4.68,1.25a47.7,47.7,0,0,0-3,3.8,47.15,47.15,0,0,0-7.84,17.16,47.13,47.13,0,0,0,18.73-2.3q2.34-.77,4.52-1.71C43.76,81.83,48.5,72.35,54.93,68,47.15,68.21,37.75,63.33,30.19,54.73Z"/><path class="cls-4" d="M83.4,98.05c0-1.64-.08-3.25-.22-4.83-10.52-4.52-18.07-12-20.24-19.43C60.76,81.26,53.21,88.7,42.7,93.22c-.15,1.58-.22,3.19-.22,4.83a46.73,46.73,0,0,0,3.86,19.1,46.71,46.71,0,0,0,14.24-13.29c1-1.34,1.83-2.69,2.63-4.06.82,1.35,1.71,2.7,2.69,4a46.93,46.93,0,0,0,13.9,12.75A47.14,47.14,0,0,0,83.4,98.05Z"/><path class="cls-4" d="M107.06,97.16A47,47,0,0,0,98.82,79.5q-1.47-2-3-3.75,2.31-.54,4.65-1.32a47,47,0,0,0,16.42-9.27A47,47,0,0,0,100.35,56c-1.57-.51-3.12-.93-4.67-1.28C88.13,63.33,78.72,68.21,71,68c6.43,4.38,11.17,13.86,12.23,25.25q2.17.94,4.52,1.71A46.85,46.85,0,0,0,107.06,97.16Z"/><path class="cls-4" d="M87.47,35.61c-1.56.52-3.07,1.11-4.52,1.75.14-1.58.2-3.2.19-4.84A47.06,47.06,0,0,0,79.39,14,47.08,47.08,0,0,0,65.6,26.9c-1,1.33-1.85,2.68-2.66,4,5.84,9.84,7.58,20.3,5,27.62,6.14-4.77,16.63-6.35,27.79-3.83q1.57-1.78,3-3.78a46.72,46.72,0,0,0,8.1-17.72A46.91,46.91,0,0,0,87.47,35.61Z"/><path class="cls-5" d="M8.57,65.59c-6.68,6.07-9.91,13.48-7.8,20,2.16,6.65,9.41,10.78,18.69,11.64a47,47,0,0,1,7.83-17.14,47.7,47.7,0,0,1,3-3.8c-1.55-.34-3.11-.75-4.68-1.25A46.7,46.7,0,0,1,8.57,65.59Z"/><path class="cls-5" d="M24.51,12.48c-5.66,4.12-7.35,12.29-5.31,21.38A47.12,47.12,0,0,1,37.94,36q2.36.75,4.54,1.67c-.16-1.57-.25-3.18-.26-4.82a46.63,46.63,0,0,1,3.71-19.13C38.09,9.25,30,8.47,24.51,12.48Z"/><path class="cls-5" d="M106.8,33.23c1.83-8.84.09-16.73-5.44-20.75s-14-3.2-22,1.56a47.06,47.06,0,0,1,3.75,18.48c0,1.64,0,3.26-.19,4.84,1.45-.64,3-1.23,4.52-1.75A46.89,46.89,0,0,1,106.8,33.23Z"/><path class="cls-5" d="M116.83,65.17a47.17,47.17,0,0,1-16.41,9.26q-2.34.78-4.65,1.32,1.58,1.77,3,3.75a47,47,0,0,1,8.24,17.66c9-1,15.93-5.09,18-11.59S123.83,71.32,116.83,65.17Z"/><path class="cls-5" d="M65.9,103.82c-1-1.32-1.87-2.67-2.69-4-.8,1.37-1.67,2.72-2.63,4.06a46.71,46.71,0,0,1-14.24,13.29c3.71,8.23,9.76,13.59,16.6,13.59,7,0,13.16-5.62,16.85-14.18A47.12,47.12,0,0,1,65.9,103.82Z"/><path class="cls-6" d="M125,44.68c-2.17-6.49-9.17-10.53-18.15-11.45A46.72,46.72,0,0,1,98.7,51q-1.44,2-3,3.78c1.55.35,3.1.77,4.67,1.28a47,47,0,0,1,16.49,9.15C123.79,59,127.16,51.32,125,44.68Z"/><path class="cls-7" d="M79.8,116.57c8,4.69,16.35,5.54,22,1.38s7.18-12,5.28-20.79A46.85,46.85,0,0,1,87.7,94.93q-2.34-.77-4.52-1.71c.14,1.58.22,3.19.22,4.83A47.14,47.14,0,0,1,79.8,116.57Z"/><path class="cls-6" d="M62.42,0C55.59.05,49.59,5.47,45.94,13.72A46.77,46.77,0,0,1,60.28,26.9q1.44,2,2.66,4c.81-1.36,1.69-2.71,2.66-4A47.06,47.06,0,0,1,79.38,14C75.62,5.52,69.42,0,62.42,0Z"/><path class="cls-7" d="M42.48,98.05c0-1.64.07-3.25.22-4.83q-2.18.94-4.52,1.71a47.24,47.24,0,0,1-18.71,2.3c-2,9.1-.23,17.26,5.46,21.33s13.6,3.13,21.41-1.41A46.73,46.73,0,0,1,42.48,98.05Z"/><path class="cls-6" d="M27.17,51a46.88,46.88,0,0,1-8-17.08C9.94,34.81,2.72,39,.61,45.66s1.23,13.9,8,19.92a46.75,46.75,0,0,1,17-9.57c1.56-.51,3.12-.93,4.66-1.28Q28.63,52.95,27.17,51Z"/></g></g></g></svg>