<?xml version="1.0" encoding="UTF-8" standalone="no"?>
<svg
   xmlns:dc="http://purl.org/dc/elements/1.1/"
   xmlns:cc="http://creativecommons.org/ns#"
   xmlns:rdf="http://www.w3.org/1999/02/22-rdf-syntax-ns#"
   xmlns:svg="http://www.w3.org/2000/svg"
   xmlns="http://www.w3.org/2000/svg"
   xmlns:sodipodi="http://sodipodi.sourceforge.net/DTD/sodipodi-0.dtd"
   xmlns:inkscape="http://www.inkscape.org/namespaces/inkscape"
   id="svgRoot"
   viewBox="0 0 200 100"
   xml:space="preserve"
   sodipodi:version="0.32"
   inkscape:version="0.46"
   width="256.00003"
   height="83.518646"
   sodipodi:docname="Chunghwa Telecom.svg"
   inkscape:output_extension="org.inkscape.output.svg.inkscape"
   version="1.0"><metadata
   id="metadata24"><rdf:RDF><cc:Work
       rdf:about=""><dc:format>image/svg+xml</dc:format><dc:type
         rdf:resource="http://purl.org/dc/dcmitype/StillImage" /></cc:Work></rdf:RDF></metadata><sodipodi:namedview
   inkscape:window-height="667"
   inkscape:window-width="869"
   inkscape:pageshadow="2"
   inkscape:pageopacity="0.0"
   guidetolerance="10.0"
   gridtolerance="10.0"
   objecttolerance="10.0"
   borderopacity="1.0"
   bordercolor="#666666"
   pagecolor="#ffffff"
   id="base"
   showgrid="false"
   inkscape:zoom="3.0195309"
   inkscape:cx="128.00002"
   inkscape:cy="41.759323"
   inkscape:window-x="88"
   inkscape:window-y="0"
   inkscape:current-layer="svgRoot" />
<defs
   id="defs3"><inkscape:perspective
   sodipodi:type="inkscape:persp3d"
   inkscape:vp_x="0 : 526.18109 : 1"
   inkscape:vp_y="0 : 1000 : 0"
   inkscape:vp_z="744.09448 : 526.18109 : 1"
   inkscape:persp3d-origin="372.04724 : 350.78739 : 1"
   id="perspective26" />
</defs>
<g
   transform="matrix(2.556237,0,0,-2.556237,-141.67945,165.28629)"
   id="g7">
<path
   d="M 54.15,64.66 C 51.16,64.66 48.34,64 45.81,62.8 L 62.49,62.8 C 59.96,64 57.13,64.66 54.15,64.66 M 47.89,60.94 L 42.66,60.94 C 41.88,60.37 41.15,59.75 40.46,59.08 L 45.26,59.08 C 46.06,59.79 46.94,60.41 47.89,60.94 M 57.9,55.35 L 70.81,55.35 C 70.41,55.99 69.98,56.62 69.51,57.21 L 57.9,57.21 L 57.9,55.35 M 43.47,57.21 L 38.79,57.21 C 38.32,56.62 37.88,55.99 37.48,55.35 L 42.2,55.35 C 42.58,56 43.01,56.63 43.47,57.21 M 57.9,59.08 L 67.84,59.08 C 67.15,59.75 66.41,60.37 65.63,60.94 L 57.9,60.94 L 57.9,59.08 M 73.71,45.1 C 73.71,45.41 73.7,45.72 73.68,46.03 L 66.94,46.03 C 66.67,46.68 66.37,47.3 66.02,47.9 L 73.51,47.9 C 73.42,48.53 73.3,49.15 73.15,49.76 L 64.74,49.76 C 64.2,50.43 63.6,51.05 62.96,51.62 L 72.6,51.62 C 72.37,52.26 72.11,52.88 71.83,53.48 L 50.37,53.48 L 50.37,44.17 L 57.9,44.17 L 57.9,34.85 L 37.48,34.85 C 37.88,34.21 38.32,33.58 38.79,32.99 L 50.36,32.99 L 50.36,31.13 L 40.46,31.13 C 41.15,30.45 41.88,29.83 42.66,29.27 L 50.36,29.27 L 50.36,27.4 L 45.81,27.4 C 48.34,26.2 51.16,25.54 54.15,25.54 C 57.13,25.54 59.96,26.2 62.49,27.4 L 60.38,27.4 C 61.32,27.93 62.2,28.55 63,29.27 L 65.63,29.27 C 66.41,29.83 67.15,30.45 67.84,31.13 L 64.77,31.13 C 65.24,31.71 65.66,32.34 66.05,32.99 L 69.51,32.99 C 69.98,33.58 70.41,34.21 70.81,34.85 L 66.95,34.85 C 67.19,35.46 67.4,36.08 67.56,36.72 L 71.83,36.72 C 72.11,37.33 72.37,37.94 72.6,38.58 L 67.91,38.58 C 67.99,39.19 68.03,39.8 68.03,40.42 L 68.03,40.44 L 73.15,40.44 C 73.3,41.05 73.42,41.67 73.51,42.3 L 67.91,42.3 C 67.83,42.94 67.71,43.56 67.55,44.17 L 73.68,44.17 C 73.7,44.48 73.71,44.79 73.71,45.1 M 43.47,38.58 L 35.7,38.58 C 35.93,37.94 36.18,37.33 36.47,36.72 L 45.26,36.72 C 44.61,37.29 44.01,37.91 43.47,38.58 M 41.29,42.3 L 34.79,42.3 C 34.88,41.67 34.99,41.05 35.14,40.44 L 42.2,40.44 C 41.86,41.04 41.55,41.66 41.29,42.3 M 40.21,47.9 C 40.21,48.53 40.25,49.15 40.32,49.76 L 35.14,49.76 C 34.99,49.15 34.88,48.53 34.79,47.9 L 40.21,47.9 M 41.29,53.48 L 36.47,53.48 C 36.18,52.88 35.93,52.26 35.7,51.62 L 40.68,51.62 C 40.84,52.26 41.05,52.88 41.29,53.48 M 40.32,46.03 L 34.61,46.03 C 34.59,45.72 34.59,45.41 34.59,45.1 C 34.59,44.79 34.59,44.48 34.61,44.17 L 40.68,44.17 C 40.52,44.77 40.4,45.4 40.32,46.03"
   class="ps00 ps10"
   id="path9"
   style="fill:#0069aa;fill-rule:nonzero;stroke:none;stroke-miterlimit:4" />
<path
   d="M 88.83,32.92 C 88.41,32.67 87.81,32.41 86.65,32.41 C 84.77,32.41 83.48,33.87 83.48,35.61 C 83.48,37.36 84.77,38.83 86.65,38.83 C 87.89,38.83 88.46,38.53 88.73,38.36 L 88.43,37.62 C 88.22,37.72 87.71,38 86.73,38 C 85.63,38 84.62,37 84.62,35.61 C 84.62,34.25 85.65,33.23 86.79,33.23 C 87.75,33.23 88.19,33.47 88.49,33.62 L 88.83,32.92 M 92.27,32.52 L 92.27,35.22 C 92.27,35.63 92.11,35.93 91.61,35.93 C 91.17,35.93 90.76,35.65 90.59,35.53 L 90.59,32.52 L 89.59,32.52 L 89.59,38.44 L 90.59,38.71 L 90.59,36.18 C 90.77,36.33 91.18,36.7 92.05,36.7 C 92.86,36.7 93.27,36.19 93.27,35.45 L 93.27,32.52 L 92.27,32.52 M 111.1,32.52 L 111.1,35.22 C 111.1,35.63 110.9,35.93 110.4,35.93 C 110,35.93 109.6,35.65 109.4,35.53 L 109.4,32.52 L 108.4,32.52 L 108.4,38.44 L 109.4,38.71 L 109.4,36.18 C 109.6,36.33 110,36.7 110.9,36.7 C 111.7,36.7 112.1,36.19 112.1,35.45 L 112.1,32.52 L 111.1,32.52 M 101.7,32.52 L 101.7,35.22 C 101.7,35.63 101.5,35.93 101,35.93 C 100.5,35.93 100.2,35.65 100,35.53 L 100,32.52 L 98.98,32.52 L 98.98,36.35 L 99.93,36.6 L 100,36.18 C 100.1,36.33 100.6,36.7 101.4,36.7 C 102.2,36.7 102.7,36.19 102.7,35.45 L 102.7,32.52 L 101.7,32.52 M 105,34.07 C 104.8,34.07 104.3,34 104.3,33.67 C 104.3,33.3 104.7,33.27 105,33.27 L 106.2,33.27 C 107.1,33.27 107.7,32.75 107.6,31.85 C 107.5,30.93 106.5,30.3 105.5,30.3 C 104.4,30.3 103.3,30.56 103.3,31.46 C 103.3,32.08 103.7,32.43 104,32.55 C 103.8,32.66 103.5,32.89 103.5,33.44 C 103.5,33.94 103.9,34.35 104.2,34.47 C 104,34.6 103.7,34.87 103.7,35.39 C 103.7,36 104.2,36.7 105.2,36.7 C 105.7,36.7 105.9,36.64 106.1,36.6 L 107.6,36.6 L 107.6,36.08 L 106.8,36.08 C 106.8,35.99 107,35.75 107,35.39 C 107,34.52 106.2,34.07 105.4,34.07 L 105,34.07 M 104.1,31.57 C 104.1,31.11 104.8,30.94 105.4,30.94 C 106,30.94 106.7,31.33 106.7,31.76 C 106.8,32.23 106.5,32.43 106,32.43 L 104.7,32.43 C 104.5,32.31 104.1,31.98 104.1,31.57 M 104.6,35.38 C 104.6,34.99 104.9,34.68 105.4,34.68 C 105.9,34.68 106.1,34.99 106.1,35.38 C 106.1,35.73 105.9,36.11 105.4,36.11 C 104.9,36.11 104.6,35.73 104.6,35.38 M 114.8,36.6 L 115.7,36.6 L 116.6,33.93 L 117.5,36.6 L 118.4,36.6 L 116.8,32.46 L 116.2,32.46 L 115.5,34.55 L 114.7,32.46 L 114.2,32.46 L 112.7,36.6 L 113.7,36.6 L 114.6,33.84 L 115.2,35.45 L 114.8,36.6 M 119.9,32.43 C 119.1,32.43 118.6,32.89 118.6,33.57 C 118.6,34.27 119.2,34.88 120.2,34.94 L 121.1,34.98 L 121.1,35.32 C 121.1,35.68 121,36.04 120.3,36.04 C 119.8,36.04 119.4,35.86 119.2,35.77 L 119,36.3 C 119.2,36.42 119.8,36.7 120.6,36.7 C 121.6,36.7 122.1,36.21 122.1,35.5 L 122.1,33.17 C 122.1,32.95 122.1,32.65 122.2,32.52 L 121.2,32.52 C 121.1,32.64 121.1,32.8 121.1,32.89 C 120.9,32.73 120.5,32.43 119.9,32.43 M 121.1,34.4 L 120.5,34.35 C 120,34.31 119.5,34.12 119.5,33.67 C 119.5,33.26 119.9,33.12 120.2,33.12 C 120.6,33.12 120.9,33.34 121.1,33.47 L 121.1,34.4 M 95.3,36.6 L 95.3,33.91 C 95.3,33.5 95.44,33.2 95.92,33.2 C 96.37,33.2 96.73,33.47 96.91,33.6 L 96.91,36.6 L 97.9,36.6 L 97.9,32.78 L 96.95,32.52 L 96.93,32.95 C 96.74,32.81 96.26,32.43 95.49,32.43 C 94.7,32.43 94.31,32.92 94.31,33.69 L 94.31,36.6 L 95.3,36.6 M 123.5,38.71 L 128.5,38.71 L 128.5,37.91 L 126.5,37.91 L 126.5,32.52 L 125.4,32.52 L 125.4,37.91 L 123.5,37.91 L 123.5,38.71 M 129.9,33.11 C 130.5,33.11 130.8,33.24 131,33.33 L 131.2,32.78 C 131,32.67 130.6,32.43 129.6,32.43 C 128.3,32.43 127.5,33.22 127.5,34.53 C 127.5,35.77 128.4,36.7 129.5,36.7 C 130.5,36.7 131.4,36.03 131.4,34.47 L 128.6,34.47 C 128.6,33.63 129,33.11 129.9,33.11 M 129.5,36.03 C 128.9,36.03 128.7,35.6 128.6,35.08 L 130.3,35.08 C 130.3,35.69 130,36.03 129.5,36.03 M 132.2,38.44 L 133.2,38.71 L 133.2,32.52 L 132.2,32.52 L 132.2,38.44 M 136.4,33.11 C 137,33.11 137.3,33.24 137.5,33.33 L 137.7,32.78 C 137.5,32.67 137.1,32.43 136.1,32.43 C 134.9,32.43 134.1,33.22 134.1,34.53 C 134.1,35.77 134.9,36.7 136,36.7 C 137,36.7 137.9,36.03 137.9,34.47 L 135.1,34.47 C 135.1,33.63 135.5,33.11 136.4,33.11 M 136,36.03 C 135.5,36.03 135.2,35.6 135.1,35.08 L 136.9,35.08 C 136.8,35.69 136.5,36.03 136,36.03 M 140.7,36.7 C 141.5,36.7 141.8,36.54 142.1,36.44 L 141.9,35.83 C 141.6,35.91 141.4,36.02 140.8,36.02 C 140.3,36.02 139.6,35.54 139.6,34.56 C 139.6,33.65 140.3,33.11 140.8,33.11 C 141.4,33.11 141.6,33.22 141.9,33.3 L 142.1,32.7 C 141.9,32.58 141.5,32.43 140.7,32.43 C 139.3,32.43 138.5,33.3 138.5,34.56 C 138.5,35.86 139.6,36.7 140.7,36.7 M 146.9,34.56 C 146.9,33.26 145.9,32.43 144.6,32.43 C 143.4,32.43 142.4,33.26 142.4,34.56 C 142.4,35.87 143.4,36.7 144.6,36.7 C 145.9,36.7 146.9,35.87 146.9,34.56 M 143.5,34.56 C 143.5,33.72 143.9,33.09 144.6,33.09 C 145.3,33.09 145.8,33.72 145.8,34.56 C 145.8,35.41 145.3,36.04 144.6,36.04 C 143.9,36.04 143.5,35.42 143.5,34.56 M 153.6,32.52 L 152.6,32.52 L 152.6,35.22 C 152.6,35.63 152.5,35.94 152,35.94 C 151.7,35.94 151.3,35.69 151.2,35.55 L 151.2,32.52 L 150.2,32.52 L 150.2,35.22 C 150.2,35.63 150,35.94 149.6,35.94 C 149.2,35.94 148.9,35.68 148.7,35.55 L 148.7,32.52 L 147.7,32.52 L 147.7,36.35 L 148.7,36.6 L 148.7,36.17 C 148.9,36.35 149.4,36.7 150,36.7 C 150.5,36.7 150.8,36.5 151,36.15 C 151.2,36.35 151.7,36.7 152.4,36.7 C 153.2,36.7 153.6,36.17 153.6,35.46 L 153.6,32.52"
   class="ps01 ps10"
   id="path11"
   style="fill:#000000;fill-rule:nonzero;stroke:none;stroke-miterlimit:4" />
<path
   d="M 142.3,57.31 C 142.5,57.26 142.6,57.13 142.7,57.02 C 142.8,56.88 142.8,56.65 142.8,56.42 C 142.5,55.19 142.3,54.13 141.9,53.29 L 141.9,43.48 C 141.9,43.25 141.9,43.06 141.7,42.92 C 141.6,42.79 141.4,42.72 141.2,42.71 C 141,42.71 140.8,42.77 140.7,42.91 C 140.6,43.05 140.5,43.24 140.5,43.48 L 140.5,50.54 C 140.1,50.02 139.9,49.95 139.7,49.93 C 139.6,49.91 139.4,49.95 139.2,50.08 C 139.1,50.2 139,50.4 139,50.56 C 139,50.72 139,50.95 139.2,51.14 C 140.3,52.84 141.1,54.7 141.4,56.66 C 141.4,56.9 141.6,57.1 141.7,57.19 C 141.8,57.27 142.1,57.35 142.3,57.31 M 144.6,48.05 L 152.6,48.05 C 152.9,48.05 153.2,47.96 153.4,47.76 C 153.6,47.56 153.7,47.39 153.7,47.12 L 153.7,44.04 C 153.7,43.75 153.6,43.5 153.3,43.27 C 153.1,43.06 152.9,42.93 152.6,42.93 L 144.6,42.93 C 144.3,42.93 144.1,43.05 143.9,43.26 C 143.7,43.49 143.7,43.75 143.7,44.04 L 143.7,47.12 C 143.7,47.36 143.8,47.6 143.9,47.78 C 144.1,47.94 144.3,48.05 144.6,48.05 M 145.5,46.67 C 145.3,46.67 145.2,46.62 145.2,46.57 C 145.1,46.52 145.1,46.42 145.1,46.27 L 145.1,44.75 C 145.1,44.59 145.1,44.49 145.2,44.44 C 145.3,44.36 145.4,44.32 145.5,44.32 L 151.8,44.32 C 152,44.32 152.1,44.36 152.2,44.43 C 152.2,44.49 152.2,44.6 152.2,44.75 L 152.2,46.22 C 152.2,46.38 152.2,46.48 152.2,46.54 C 152.1,46.63 152,46.67 151.8,46.67 L 145.5,46.67 M 144.5,50.36 C 144.3,50.36 144.1,50.28 144,50.16 C 143.9,50.04 143.8,49.83 143.8,49.68 C 143.8,49.52 143.9,49.31 144,49.18 C 144.1,49.05 144.3,48.98 144.5,48.98 L 152.8,48.98 C 153.1,48.98 153.2,49.07 153.3,49.18 C 153.4,49.3 153.5,49.5 153.5,49.68 C 153.5,49.85 153.5,50.05 153.3,50.18 C 153.2,50.29 153.1,50.36 152.8,50.36 L 144.5,50.36 M 144.5,52.53 C 144.3,52.53 144.1,52.47 144,52.34 C 143.9,52.21 143.8,52.02 143.8,51.85 C 143.8,51.67 143.9,51.48 144,51.36 C 144.1,51.23 144.3,51.15 144.5,51.15 L 152.8,51.15 C 153,51.15 153.2,51.25 153.3,51.37 C 153.4,51.49 153.5,51.67 153.5,51.85 C 153.5,52.02 153.5,52.2 153.3,52.32 C 153.2,52.44 153,52.53 152.8,52.53 L 144.5,52.53 M 143.5,54.74 C 143.3,54.74 143.1,54.67 143,54.54 C 142.9,54.43 142.8,54.23 142.8,54.05 C 142.8,53.88 142.9,53.68 143,53.56 C 143.1,53.44 143.3,53.37 143.5,53.37 L 153.8,53.37 C 154.1,53.37 154.2,53.45 154.3,53.56 C 154.5,53.69 154.5,53.89 154.5,54.06 C 154.5,54.23 154.5,54.42 154.3,54.54 C 154.2,54.66 154.1,54.74 153.8,54.74 L 143.5,54.74 M 144.5,56.92 C 144.3,56.92 144.1,56.85 144,56.73 C 143.9,56.61 143.8,56.46 143.8,56.23 C 143.8,56 143.9,55.86 144,55.74 C 144.1,55.63 144.3,55.54 144.5,55.54 L 152.8,55.54 C 153.1,55.54 153.2,55.62 153.3,55.74 C 153.5,55.86 153.5,56.01 153.5,56.23 C 153.5,56.46 153.4,56.61 153.3,56.73 C 153.2,56.84 153.1,56.92 152.8,56.92 L 144.5,56.92"
   class="ps01 ps10"
   id="path13"
   style="fill:#000000;fill-rule:nonzero;stroke:none;stroke-miterlimit:4" />
<path
   d="M 117.4,55.81 C 117.4,55.65 117.3,55.46 117.2,55.35 C 117.1,55.23 116.9,55.15 116.7,55.15 L 113.4,55.15 L 113.4,55.1 C 113.4,54.87 113.4,54.68 113.2,54.54 C 113.1,54.4 112.9,54.33 112.7,54.33 C 112.5,54.33 112.3,54.4 112.2,54.54 C 112.1,54.68 112,54.87 112,55.1 L 112,55.15 L 107.9,55.15 L 107.9,55.1 C 107.9,54.87 107.8,54.68 107.7,54.54 C 107.6,54.4 107.4,54.32 107.2,54.32 C 107,54.32 106.8,54.4 106.7,54.54 C 106.5,54.68 106.5,54.87 106.5,55.1 L 106.5,55.15 L 103.2,55.15 C 103,55.15 102.8,55.22 102.7,55.33 C 102.6,55.45 102.5,55.65 102.5,55.81 C 102.5,55.97 102.6,56.17 102.7,56.27 C 102.8,56.39 103,56.46 103.2,56.46 L 106.5,56.46 L 106.5,56.79 C 106.5,57.02 106.5,57.21 106.7,57.35 C 106.8,57.48 107,57.56 107.2,57.56 C 107.4,57.56 107.6,57.47 107.7,57.35 C 107.8,57.21 107.9,57.02 107.9,56.79 L 107.9,56.46 L 112,56.46 L 112,56.79 C 112,57.02 112.1,57.21 112.2,57.35 C 112.3,57.48 112.5,57.56 112.7,57.56 C 112.9,57.56 113.1,57.47 113.2,57.35 C 113.4,57.21 113.4,57.01 113.4,56.79 L 113.4,56.46 L 116.7,56.46 C 116.9,56.46 117.1,56.38 117.2,56.27 C 117.3,56.16 117.4,55.97 117.4,55.81 M 107,48.64 L 109.2,48.64 L 109.2,49.97 L 107,49.97 L 107,48.64 M 110.7,51.29 L 112.9,51.29 L 112.9,52.68 L 110.7,52.68 L 110.7,51.29 M 112.9,49.78 L 112.9,49.97 L 110.7,49.97 L 110.7,48.64 L 116.3,48.64 C 116.5,48.64 116.7,48.59 116.8,48.47 C 116.9,48.35 117,48.12 117,47.99 C 117,47.85 116.9,47.65 116.8,47.53 C 116.6,47.4 116.5,47.32 116.3,47.32 L 110.7,47.32 L 110.7,46.24 L 116.7,46.24 C 116.9,46.24 117.1,46.17 117.2,46.06 C 117.3,45.94 117.4,45.74 117.4,45.58 C 117.4,45.41 117.3,45.22 117.2,45.09 C 117.1,44.96 116.9,44.92 116.7,44.92 L 110.7,44.92 L 110.7,43.47 C 110.7,43.25 110.6,43.06 110.5,42.91 C 110.3,42.79 110.2,42.71 109.9,42.71 C 109.7,42.71 109.6,42.78 109.4,42.92 C 109.3,43.06 109.2,43.24 109.2,43.47 L 109.2,44.92 L 103.2,44.92 C 103,44.92 102.8,44.98 102.7,45.1 C 102.6,45.22 102.5,45.46 102.5,45.58 C 102.5,45.7 102.6,45.92 102.7,46.05 C 102.8,46.16 103,46.24 103.2,46.24 L 109.2,46.24 L 109.2,47.32 L 103.6,47.32 C 103.4,47.32 103.2,47.39 103.1,47.51 C 103,47.63 102.9,47.85 102.9,47.98 C 102.9,48.11 103,48.32 103.1,48.45 C 103.2,48.56 103.4,48.64 103.6,48.64 L 105.6,48.64 L 105.6,49.97 L 102.8,49.97 C 102.6,49.97 102.4,50.04 102.3,50.15 C 102.2,50.28 102.1,50.47 102.1,50.64 C 102.1,50.8 102.2,50.97 102.3,51.1 C 102.4,51.22 102.6,51.29 102.8,51.29 L 105.6,51.29 L 105.6,51.44 C 105.6,51.67 105.6,51.86 105.8,52 C 105.9,52.14 106.1,52.21 106.3,52.21 C 106.5,52.21 106.7,52.13 106.8,52 C 106.9,51.86 107,51.67 107,51.44 L 107,51.29 L 109.2,51.29 L 109.2,52.68 L 103.6,52.68 C 103.4,52.68 103.2,52.76 103.1,52.87 C 103,52.99 102.9,53.23 102.9,53.35 C 102.9,53.46 103,53.7 103.1,53.81 C 103.2,53.92 103.4,54 103.6,54 L 116.3,54 C 116.5,54 116.7,53.94 116.8,53.83 C 116.9,53.71 117,53.5 117,53.35 C 117,53.19 116.9,53.02 116.8,52.89 C 116.7,52.75 116.5,52.68 116.3,52.68 L 114.3,52.68 L 114.3,51.29 L 117.1,51.29 C 117.3,51.29 117.5,51.24 117.6,51.12 C 117.7,50.99 117.8,50.8 117.8,50.64 C 117.8,50.46 117.7,50.31 117.6,50.18 C 117.5,50.05 117.3,49.97 117.1,49.97 L 114.3,49.97 L 114.3,49.78 C 114.3,49.57 114.3,49.4 114.1,49.26 C 114,49.13 113.8,49.05 113.6,49.05 C 113.4,49.05 113.2,49.13 113.1,49.27 C 113,49.4 112.9,49.57 112.9,49.78 L 112.9,49.78"
   class="ps01 ps10"
   id="path15"
   style="fill:#000000;fill-rule:nonzero;stroke:none;stroke-miterlimit:4" />
<path
   d="M 90.35,57.35 C 90.22,57.22 90.15,57.01 90.15,56.77 L 90.15,55.67 L 84.89,55.67 C 84.5,55.67 84.17,55.53 83.9,55.27 C 83.63,55 83.48,54.67 83.48,54.3 L 83.48,46.73 C 83.48,46.38 83.63,46.06 83.91,45.78 C 84.19,45.52 84.52,45.38 84.89,45.38 L 90.15,45.38 L 90.15,43.55 C 90.15,43.26 90.24,43.04 90.36,42.92 C 90.47,42.82 90.66,42.71 90.93,42.71 C 91.2,42.71 91.38,42.82 91.48,42.92 C 91.6,43.04 91.71,43.27 91.71,43.55 L 91.71,45.38 L 96.99,45.38 C 97.38,45.38 97.77,45.58 97.98,45.8 C 98.19,46.01 98.38,46.41 98.38,46.77 L 98.38,54.26 C 98.38,54.64 98.24,54.97 98.01,55.24 C 97.75,55.53 97.4,55.67 96.98,55.67 L 91.71,55.67 L 91.71,56.77 C 91.71,57.01 91.63,57.22 91.5,57.35 C 91.37,57.47 91.13,57.56 90.93,57.56 C 90.73,57.56 90.49,57.48 90.35,57.35 M 85.12,47.01 C 85.03,47.09 84.98,47.19 84.98,47.32 L 84.98,53.69 C 84.98,53.82 85.03,53.91 85.12,54.02 C 85.23,54.13 85.34,54.16 85.45,54.16 L 90.15,54.16 L 90.15,46.87 L 85.46,46.87 C 85.33,46.87 85.22,46.91 85.12,47.01 M 96.39,54.16 C 96.52,54.16 96.64,54.11 96.74,54.02 C 96.83,53.93 96.88,53.82 96.88,53.69 L 96.88,47.32 C 96.88,47.2 96.8,47.06 96.74,47 C 96.68,46.94 96.58,46.87 96.43,46.87 L 91.71,46.87 L 91.71,54.16 L 96.39,54.16"
   class="ps01 ps10"
   id="path17"
   style="fill:#000000;fill-rule:nonzero;stroke:none;stroke-miterlimit:4" />
<path
   d="M 125.9,53.23 C 126.1,53.23 126.2,53.19 126.3,53.1 C 126.4,53.01 126.4,52.88 126.4,52.73 C 126.4,52.59 126.4,52.47 126.3,52.37 C 126.2,52.27 126.1,52.22 125.9,52.22 L 123.4,52.22 C 123.2,52.22 123.1,52.27 123,52.37 C 122.9,52.46 122.9,52.58 122.9,52.73 C 122.9,52.87 122.9,53 123,53.1 C 123.1,53.19 123.2,53.23 123.4,53.23 L 125.9,53.23 M 126.8,51.69 C 127,51.69 127.1,51.64 127.2,51.55 C 127.3,51.46 127.3,51.34 127.3,51.19 C 127.3,51.04 127.3,50.93 127.2,50.83 C 127.1,50.73 127,50.68 126.8,50.68 L 124.3,50.68 C 124.1,50.68 124,50.73 123.9,50.83 C 123.8,50.92 123.8,51.04 123.8,51.19 C 123.8,51.33 123.8,51.45 123.9,51.55 C 124,51.64 124.1,51.69 124.3,51.69 L 126.8,51.69 M 132.8,53.23 C 133,53.23 133.1,53.19 133.2,53.1 C 133.3,53.01 133.3,52.88 133.3,52.73 C 133.3,52.59 133.3,52.47 133.2,52.37 C 133.1,52.27 133,52.22 132.8,52.22 L 130.3,52.22 C 130.1,52.22 130,52.27 129.9,52.37 C 129.8,52.46 129.7,52.58 129.7,52.73 C 129.7,52.87 129.8,53 129.9,53.1 C 130,53.19 130.1,53.23 130.3,53.23 L 132.8,53.23 M 133.7,51.69 C 133.8,51.69 133.9,51.64 134,51.55 C 134.1,51.46 134.2,51.34 134.2,51.19 C 134.2,51.04 134.1,50.93 134,50.83 C 133.9,50.73 133.8,50.68 133.7,50.68 L 131.1,50.68 C 131,50.68 130.8,50.73 130.8,50.83 C 130.7,50.92 130.6,51.04 130.6,51.19 C 130.6,51.33 130.7,51.45 130.8,51.55 C 130.8,51.64 131,51.69 131.1,51.69 L 133.7,51.69 M 123.5,48.63 C 123.5,48.73 123.5,48.82 123.6,48.89 C 123.6,48.95 123.7,48.98 123.8,48.98 L 127.8,48.98 L 127.8,48.13 L 123.5,48.13 C 123.5,48.13 123.5,48.61 123.5,48.63 M 127.8,46.99 L 127.8,46.15 L 123.8,46.15 C 123.7,46.15 123.6,46.18 123.6,46.24 C 123.5,46.3 123.5,46.39 123.5,46.51 L 123.5,46.99 L 127.8,46.99 M 133.2,48.98 C 133.3,48.98 133.4,48.94 133.5,48.86 C 133.6,48.81 133.6,48.71 133.6,48.59 L 133.6,48.13 L 129.2,48.13 L 129.2,48.98 L 133.2,48.98 M 133.6,46.99 L 133.6,46.52 C 133.6,46.4 133.5,46.3 133.5,46.24 C 133.4,46.18 133.3,46.15 133.2,46.15 L 129.2,46.15 L 129.2,46.99 L 133.6,46.99 M 134.9,44.13 L 129.9,44.13 C 129.7,44.13 129.5,44.16 129.4,44.29 C 129.2,44.42 129.2,44.68 129.2,45.01 L 134,45.01 C 134.2,45.01 134.4,45.1 134.6,45.3 C 134.8,45.5 135,45.73 135,45.99 L 135,49.27 C 135,49.51 134.9,49.71 134.7,49.86 C 134.5,50.03 134.3,50.12 134,50.12 L 122.9,50.12 C 122.7,50.12 122.5,50.03 122.3,49.87 C 122.2,49.7 122.1,49.49 122.1,49.27 L 122.1,45.99 C 122.1,45.73 122.2,45.5 122.3,45.3 C 122.5,45.12 122.7,45.03 122.9,45.01 L 127.8,45.01 L 127.8,44.49 C 127.8,43.92 128.1,43.49 128.4,43.26 C 128.7,43.02 129.1,42.93 129.4,42.93 L 134.9,42.93 C 135.3,42.93 135.5,43.2 135.5,43.53 C 135.5,43.87 135.3,44.13 134.9,44.13 M 134.5,53.8 C 134.6,53.8 134.7,53.75 134.7,53.7 C 134.8,53.64 134.8,53.55 134.8,53.45 L 134.8,51.34 C 134.8,51.1 134.9,50.89 135,50.77 C 135.2,50.65 135.4,50.59 135.5,50.59 C 135.7,50.59 135.9,50.7 136,50.8 C 136.1,50.9 136.2,51.13 136.2,51.34 L 136.2,53.85 C 136.2,54.15 136.1,54.44 135.9,54.66 C 135.7,54.87 135.4,55 135.1,54.99 L 129.2,54.99 L 129.2,55.73 L 134.2,55.73 C 134.4,55.73 134.6,55.82 134.7,55.91 C 134.8,56.01 134.8,56.2 134.8,56.33 C 134.8,56.46 134.8,56.67 134.7,56.77 C 134.6,56.87 134.4,56.92 134.2,56.92 L 122.8,56.92 C 122.7,56.92 122.5,56.86 122.4,56.75 C 122.3,56.64 122.2,56.5 122.2,56.33 C 122.2,56.16 122.3,56 122.4,55.89 C 122.5,55.8 122.7,55.73 122.8,55.73 L 127.8,55.73 L 127.8,54.99 L 122,54.99 C 121.7,55 121.4,54.87 121.2,54.66 C 121,54.44 120.8,54.15 120.9,53.85 L 120.9,51.34 C 120.9,51.13 120.9,50.9 121.1,50.8 C 121.1,50.7 121.4,50.59 121.5,50.59 C 121.7,50.59 121.9,50.65 122,50.77 C 122.1,50.89 122.2,51.1 122.2,51.34 L 122.2,53.45 C 122.2,53.55 122.3,53.64 122.3,53.7 C 122.4,53.75 122.5,53.8 122.6,53.8 L 127.8,53.8 L 127.8,51.21 C 127.8,50.97 127.9,50.78 128,50.66 C 128.2,50.54 128.4,50.47 128.5,50.47 C 128.7,50.47 128.9,50.55 129,50.67 C 129.1,50.79 129.2,50.97 129.2,51.21 L 129.2,53.8 L 134.5,53.8"
   class="ps01 ps10"
   id="path19"
   style="fill:#000000;fill-rule:nonzero;stroke:none;stroke-miterlimit:4" />
<g
   id="xfrm1"
   transform="scale(200,100)">
<g
   id="frm2"
   transform="scale(1e-2,1e-2)">
</g>
</g>
</g>
</svg>