<?xml version="1.0" encoding="UTF-8"?>
<svg width="1029px" height="1029px" viewBox="0 0 1029 1029" version="1.1" xmlns="http://www.w3.org/2000/svg" xmlns:xlink="http://www.w3.org/1999/xlink">
    <!-- Generator: Sketch 54.1 (76490) - https://sketchapp.com -->
    <title>logo--cigo</title>
    <desc>Created with Sketch.</desc>
    <g id="Page-1" stroke="none" stroke-width="1" fill="none" fill-rule="evenodd">
        <g id="logo--cigo" transform="translate(-470.000000, -109.000000)">
            <g id="Group-2">
                <g id="logo--cigo" transform="translate(470.000000, 109.000000)">
                    <path d="M0,514.5 C0,230.333784 230.38172,0 514.547936,0 C798.714153,0 1029,230.333784 1029,514.5 C1029,654.665657 1029,911.412326 1029,1029 C941.228687,1029 658.452623,1029 514.547936,1029 C230.38172,1029 0,798.61828 0,514.5 Z" id="Path" fill="#DA0629"></path>
                    <g id="Group" transform="translate(101.000000, 319.000000)" fill="#FFFFFF" fill-rule="nonzero">
                        <path d="M166.088691,98.6883752 L204.173638,98.6883752 L204.173638,179.439338 L166.088691,179.439338 C162.016716,147.714034 138.447164,131.372148 109.847525,131.372148 C72.1937289,131.372148 45.8935582,160.413741 45.8935582,203.928206 C45.8935582,246.58005 70.8523723,281.036989 111.620032,281.036989 C140.219671,281.036989 163.310167,265.174337 176.005149,238.385145 L210.449271,254.679108 C191.382845,296.899642 156.459667,318.656874 109.751714,318.656874 C40.384415,318.656874 0.91020627,263.305324 0.91020627,203.880283 C0.91020627,139.902517 49.4385721,92.2666368 105.679738,92.2666368 C127.860028,92.2666368 149.657073,99.0717625 165.99288,113.113325 L165.99288,98.6883752 L166.088691,98.6883752 Z" id="Path"></path>
                        <path d="M235.408085,274.279787 L268.989906,274.279787 L268.989906,135.445639 L235.408085,135.445639 L235.408085,98.6883752 L311.146827,98.6883752 L311.146827,274.279787 L343.818442,274.279787 L343.818442,312.810217 L235.408085,312.810217 L235.408085,274.279787 Z M289.876744,0.253669834 C303.913083,0.253669834 315.266708,11.563597 315.266708,25.6530826 C315.266708,39.6946448 303.913083,51.0524954 289.876744,51.0524954 C275.840405,51.0524954 264.48678,39.6946448 264.48678,25.6530826 C264.48678,11.563597 275.7925,0.253669834 289.876744,0.253669834 Z" id="Shape"></path>
                        <path d="M570.555614,135.445639 L570.555614,295.557786 C570.555614,324.599379 571.465821,349.998791 551.489188,374.966893 C533.380874,398.113905 497.11634,413.976557 455.821719,413.976557 C417.257716,413.976557 394.119315,402.187396 371.459969,385.414199 L398.670346,354.551516 C417.257716,369.072313 437.665499,376.308749 459.462544,376.308749 C483.032096,376.308749 505.260291,366.819912 516.613916,352.251192 C529.740049,335.477995 528.398692,320.477964 528.398692,303.273457 L528.398692,283.768624 C512.541941,302.842146 483.080001,319.136109 450.408387,319.136109 C388.705983,319.136109 346.549061,270.589684 346.549061,208.433008 C346.549061,142.202841 395.077427,95.0461952 452.65995,95.0461952 C480.780533,95.0461952 506.170497,105.924812 528.398692,128.592589 L528.398692,98.6404517 L598.580386,98.6404517 L598.580386,135.397715 L570.555614,135.397715 L570.555614,135.445639 Z M458.552338,281.516224 C497.068434,281.516224 528.829843,251.564086 528.829843,207.570386 C528.829843,163.097452 496.637284,134.103783 459.893694,134.103783 C424.060311,134.103783 391.436602,162.186907 391.436602,207.570386 C391.436602,251.564086 419.557185,281.516224 458.552338,281.516224 Z" id="Shape"></path>
                        <path d="M712.595698,92.3145603 C775.160403,92.3145603 824.598975,139.039895 824.598975,205.749296 C824.598975,272.458697 775.160403,318.704798 712.595698,318.704798 C650.030993,318.704798 600.113365,272.410774 600.113365,205.749296 C600.113365,139.039895 649.983088,92.3145603 712.595698,92.3145603 Z M712.595698,277.874044 C750.201589,277.874044 781.052791,248.353217 781.052791,205.749296 C781.052791,163.097452 750.249494,133.193238 712.595698,133.193238 C674.941902,133.193238 643.659549,163.576686 643.659549,205.749296 C643.659549,247.921906 674.941902,277.874044 712.595698,277.874044 Z" id="Shape"></path>
                    </g>
                </g>
                <polygon id="Path" points="0 0 1969 0 1969 1247 0 1247"></polygon>
            </g>
        </g>
    </g>
</svg>