<svg id="Layer_1" data-name="Layer 1" xmlns="http://www.w3.org/2000/svg" xmlns:xlink="http://www.w3.org/1999/xlink" viewBox="0 0 322.5 286.4"><defs><style>.cls-1{fill:none;}.cls-2{fill:#231f1f;}.cls-3{fill:#231f20;}.cls-4{fill:#ab2523;}.cls-5{clip-path:url(#clip-path);}.cls-6{fill:url(#linear-gradient);}</style><clipPath id="clip-path" transform="translate(-117.2 -81.5)"><path class="cls-1" d="M287.9,81.6c-53.7.8-65.4,81.1-67.9,113.4h4.5C237.4,83.3,286.3,91.5,286.3,91.5c76.6,5,73.2,182.5,73.2,182.5l14.7-.3c1.1-5.4-2.5-63.8-2.5-63.8C364.7,87,301,81.5,289.6,81.5a11.48,11.48,0,0,0-1.7.1"/></clipPath><linearGradient id="linear-gradient" x1="-684.56" y1="272.79" x2="-683.56" y2="272.79" gradientTransform="translate(106298.8 -42221.35) scale(155.13)" gradientUnits="userSpaceOnUse"><stop offset="0" stop-color="#fff"/><stop offset="0.8" stop-color="#231f20"/><stop offset="1" stop-color="#231f20"/></linearGradient></defs><path class="cls-2" d="M432.6,353.6a7.15,7.15,0,0,1,0,14.3,7.15,7.15,0,1,1,0-14.3m0,13.3a5.82,5.82,0,0,0,5.8-6.1,5.86,5.86,0,1,0-11.7,0,6,6,0,0,0,5.9,6.1m-2.7-10.3h3.2c2,0,2.9.8,2.9,2.4s-.9,2.1-2.2,2.3l2.4,3.7h-1.4l-2.3-3.6h-1.4V365h-1.3v-8.4Zm1.2,3.7h1.4c1.1,0,2.2-.1,2.2-1.4,0-1.1-1-1.3-1.8-1.3h-1.7v2.7Z" transform="translate(-117.2 -81.5)"/><path class="cls-3" d="M161.3,271.1c-4,4.1-10.6,6.5-18.3,6.5-14,0-23.9-6.1-25.8-17.4h4c1.9,8.9,9.9,13.7,21.6,13.7,6.7,0,12.3-2.2,15.5-5.5a10,10,0,0,0,2.7-7.7c-.2-6.8-5.7-10.2-19.3-12.2-9.6-1.4-21.5-3-21.7-14,0-7.6,7.1-15.1,21-15.1,12.3,0,20.4,5.5,22.7,15.5h-4.1c-2.3-7.4-8.6-11.7-18.5-11.7s-17.1,4.8-17,11.3,5.9,8.4,18.2,10.1c11.5,1.7,22.2,4.7,22.7,15.9a13.75,13.75,0,0,1-3.7,10.6" transform="translate(-117.2 -81.5)"/><path class="cls-3" d="M179.8,257.1c0,9.5,4.4,15.9,15,15.5v3.6c-11.9,1.1-19-6.8-19-19.2V224.7h-7.5v-4h7.5V208.9h4v11.8h15v4h-15v32.4" transform="translate(-117.2 -81.5)"/><rect class="cls-3" x="85" y="184.7" width="4" height="10"/><path class="cls-3" d="M288.6,248.7c0,15.9-12.5,28.9-27.8,28.9s-27.7-12.9-27.7-28.9c0-16.2,12.5-29.3,27.7-29.3s27.8,13.1,27.8,29.3m-4.1,0c0-14.1-10.6-25.5-23.7-25.5s-23.7,11.4-23.7,25.5c0,13.8,10.6,25.1,23.7,25.1s23.7-11.3,23.7-25.1" transform="translate(-117.2 -81.5)"/><path class="cls-3" d="M344,276.2h-4V267c-3.8,6.5-10.7,10.5-19.4,10.5-13.5,0-23.3-9.8-23.3-23.3V220.7h4v33.5c0,11.2,8.2,19.3,19.3,19.3,11.3,0,19.4-8.1,19.4-19.3V220.7h4v55.5" transform="translate(-117.2 -81.5)"/><path class="cls-4" d="M374.4,292H360.2V278.7h14.2Zm0,61.5H360.2V298h14.2Z" transform="translate(-117.2 -81.5)"/><path class="cls-4" d="M408.7,354.8c-14.1,0-24.6-7.4-26.3-19.4h14.4c1.9,4.8,7.6,6.5,11.8,6.5,5.7,0,10-1.7,10-5,0-3.1-1.9-4.4-11.6-5.9-9.9-1.5-23.2-4.2-23.2-16.6,0-8.7,7.7-17.8,23.7-17.8,12.7,0,22.2,6.9,24,17.3H416.7c-.8-2.6-4-4.6-9.2-4.6-6.6,0-9.3,2.4-9.3,4.4,0,2.9,4.1,3.9,11,4.9C423.1,321,433,324,433,336c0,11-10.1,18.8-24.3,18.8" transform="translate(-117.2 -81.5)"/><rect class="cls-3" x="102.2" y="127" width="4" height="67.7"/><g class="cls-5"><rect class="cls-6" x="102.8" width="155.3" height="192.5"/></g></svg>