<?xml version="1.0" encoding="utf-8"?>
<!-- Generator: Adobe Illustrator 26.5.0, SVG Export Plug-In . SVG Version: 6.00 Build 0)  -->
<svg version="1.1" id="Layer_1" xmlns="http://www.w3.org/2000/svg" xmlns:xlink="http://www.w3.org/1999/xlink" x="0px" y="0px"
	 viewBox="0 0 565.98 564.8" style="enable-background:new 0 0 565.98 564.8;" xml:space="preserve">
<style type="text/css">
	.st0{fill:#6F7271;}
	.st1{fill:#E64C39;}
	.st2{fill:#F7A21F;}
</style>
<g>
	<path class="st0" d="M136.99,320.32c0.88,17.21,5.95,74.88,51.4,123.97c6.24,6.74,41.75,44.09,99.78,57.07
		c93.55,20.93,200.1-31.66,248.66-117.94C569,326.26,567.56,268.8,564.46,239.6H246.98v106.8h175.37
		c-27.74,61.39-92.17,97.59-157.61,89.2C203.15,427.69,152.07,381.75,136.99,320.32z"/>
	<path class="st1" d="M495.67,468.85c-75.31,67.2-181.68,82.02-265.13,37.98C153.83,466.36,99.1,377.53,112.61,288.57
		c2.47-16.27,17.18-98.11,93.17-136.06c63.57-31.76,125.71-10.67,137.95-6.24c-11.52-10.49-70.69-62.2-155.72-56.13
		c-80.13,5.73-142.09,59.85-168.94,115.09c-54.92,112.97,13.77,278.43,142.09,338.9C268.93,594.92,405.58,565.46,495.67,468.85z"/>
	<path class="st2" d="M31.54,141.92c11.62-13.3,59.88-65.44,141.73-75.87c85.87-10.95,147.93,31.74,162.99,42.8
		c42.24,31.02,63.3,69.12,72.57,89.01H556.9C521.06,95.63,433.22,20.77,328.33,3.69C212.5-15.18,94.72,39.48,31.54,141.92z"/>
</g>
</svg>
