<svg xmlns="http://www.w3.org/2000/svg" width="288.43" height="90.37" viewBox="0 0 288.43 90.37"><defs><style>.a{fill:#0078ae;}.b{fill:#ceb47c;}.c{fill:#52a5d1;}.d{fill:#0085c0;}.e{fill:#0083bd;}.f{fill:#dcc283;}.g{fill:#bf9615;}.h{fill:#008dc3;}.i{fill:#1e9bca;}</style></defs><title>logo</title><path class="a" d="M114.41,39.39a12.23,12.23,0,0,1-3.86-9.45,12.77,12.77,0,0,1,3.57-8.71c1.92-1.92,4.82-3.42,9.74-3.42a27.16,27.16,0,0,1,4.63.38,28,28,0,0,0,3.26.48c.35,0,.42.16.42.35s-.09.64-.16,1.79-.06,2.81-.09,3.29-.1.67-.29.67-.25-.22-.25-.67A4.43,4.43,0,0,0,130,20.84,10.63,10.63,0,0,0,123.63,19c-4.25,0-6.22,1.25-7.34,2.33-2.33,2.23-2.87,5.07-2.87,8.33a11.53,11.53,0,0,0,11.52,11.69c2.39,0,4.28-.29,5.56-1.6a6.18,6.18,0,0,0,1.18-2.68c.06-.35.13-.48.32-.48s.22.22.22.48a33.23,33.23,0,0,1-.7,4.08c-.2.61-.26.67-.83.93a18.5,18.5,0,0,1-5.75.73c-4.79,0-8-1.18-10.53-3.45"/><path class="a" d="M142.85,22.41c.35-.89.47-1,.67-1s.38.38.67,1c.51,1.15,5,12.35,6.73,16.47,1,2.43,1.79,2.77,2.39,3a4,4,0,0,0,1.12.16c.16,0,.35.06.35.22s-.32.22-.64.22-2.48,0-4.44-.06c-.55,0-1,0-1-.19s.06-.13.18-.19a.5.5,0,0,0,.25-.74L146.65,35c-.07-.13-.1-.16-.26-.16h-6.47a.3.3,0,0,0-.29.22L138,39.39a5.62,5.62,0,0,0-.41,1.82c0,.54.47.74,1,.74h.26c.23,0,.29.1.29.22s-.16.22-.42.22c-.67,0-2.2-.09-2.52-.09s-1.69.09-2.84.09c-.35,0-.54-.06-.54-.22a.25.25,0,0,1,.26-.22,8.15,8.15,0,0,0,.83-.06c1.28-.16,1.82-1.12,2.36-2.49ZM146,33.71c.13,0,.13-.06.09-.19l-2.77-7.43c-.16-.42-.32-.42-.48,0l-2.61,7.43c0,.13,0,.19.09.19Z"/><path class="a" d="M178.56,38.88c.1,1,.29,2.43,1.44,2.81a5.91,5.91,0,0,0,1.82.25c.13,0,.22.06.22.19s-.25.26-.57.26c-.63,0-3.77-.06-4.78-.16-.67-.06-.8-.16-.8-.29a.23.23,0,0,1,.19-.22c.16,0,.2-.45.13-1L174.86,27h-.06L168,40.89c-.57,1.18-.74,1.44-1,1.44s-.42-.26-1-1.25c-.73-1.34-2.59-4.82-3.28-6.29-.83-1.73-3.1-6.29-3.58-7.41h-.13L158,39.64c0,.42,0,.93,0,1.37a.76.76,0,0,0,.67.77,4.63,4.63,0,0,0,1.08.16c.1,0,.22.1.22.19s-.19.26-.51.26c-1.05,0-2.39-.09-2.62-.09s-1.59.09-2.36.09c-.29,0-.48-.06-.48-.26s.13-.19.29-.19a5.49,5.49,0,0,0,.83-.09c.93-.16,1-1.15,1.09-2.17l2-17.71c0-.29.16-.48.32-.48a.63.63,0,0,1,.57.41l8.49,16.85,8.17-16.82c.13-.26.26-.45.45-.45s.35.22.41.73Z"/><path class="a" d="M184.76,29.72c0-4.21,0-5-.06-5.84s-.23-1.44-1.15-1.56a9.3,9.3,0,0,0-1-.07c-.09,0-.22-.06-.22-.16s.13-.22.45-.22c1.27,0,3.09.06,3.25.06.67,0,2-.06,3.29-.06,4.69,0,5.9,2.71,5.9,4.15,0,2.13-1.4,3.47-2.84,4.75,2.14.64,4.95,2.59,4.95,5.65s-2.26,6-7.05,6c-.51,0-1.53,0-2.43-.09l-1.82-.06c-.06,0-.57,0-1.14,0s-1.25.06-1.7.06c-.28,0-.44-.06-.44-.22s.06-.16.22-.16a8.3,8.3,0,0,0,.86-.13c.54-.09.6-.7.73-1.5a55.79,55.79,0,0,0,.16-5.87Zm2.43.57c0,.19.06.26.2.29a8.71,8.71,0,0,0,1.72.13c1.56,0,2.17-.06,2.75-.7a4.17,4.17,0,0,0,1.08-2.91c0-2.08-1.15-4.37-4-4.37a8,8,0,0,0-1.43.13c-.26.06-.35.13-.35.29Zm0,3c0,2.11,0,5.37,0,5.78.1,1.31.1,1.63,1,2a6.8,6.8,0,0,0,2.46.38c1.85,0,4.12-.7,4.12-4.18a5.35,5.35,0,0,0-5.2-5.65c-.35-.06-1.75-.06-2.2-.06-.1,0-.16.06-.16.19Z"/><path class="a" d="M201.7,29.72c0-4.21,0-5-.06-5.84s-.22-1.37-1.15-1.5a8.88,8.88,0,0,0-1-.06.27.27,0,0,1-.22-.23c0-.16.13-.22.44-.22,1.28,0,3.16.06,3.32.06s2.65-.06,3.51-.06A9.2,9.2,0,0,1,211.82,23a4.76,4.76,0,0,1,2,3.71c0,2-.83,4-3.45,6.19,1.07,1.33,3.06,4.59,5.63,7.65,3,3.55,6.79,6.87,11.89,6.87a9.38,9.38,0,0,1-8.79-1,22.33,22.33,0,0,1-4.5-4.4c-1.17-1.47-5.67-7.39-6.27-8.12a.44.44,0,0,0-.38-.16l-3.57-.06c-.13,0-.19.06-.19.22v.64c0,2.62,0,4.72.13,5.84.09.8.25,1.31,1.12,1.44a10.36,10.36,0,0,0,1.24.13.2.2,0,0,1,.22.22c0,.13-.12.22-.45.22-1.53,0-3.32-.09-3.45-.09s-1.91.09-2.78.09c-.29,0-.44-.06-.44-.22a.21.21,0,0,1,.22-.22,4.13,4.13,0,0,0,.87-.13c.54-.13.61-.64.73-1.44a56.56,56.56,0,0,0,.16-5.87ZM204.13,32a.4.4,0,0,0,.19.35,9.4,9.4,0,0,0,3.1.42,3.66,3.66,0,0,0,2.11-.48c1-.64,1.69-2.08,1.69-4.15,0-3.38-1.85-5.33-4.85-5.33a12.44,12.44,0,0,0-2,.16.34.34,0,0,0-.22.32Z"/><path class="a" d="M224.29,34.51c0,2.62,0,4.75.13,5.87.1.8.2,1.31,1,1.44a11.53,11.53,0,0,0,1.27.13.22.22,0,0,1,.22.23c0,.13-.13.22-.45.22-1.57,0-3.39-.09-3.52-.09s-1.92.09-2.78.09c-.29,0-.45-.06-.45-.22a.22.22,0,0,1,.22-.23,4.06,4.06,0,0,0,.86-.12c.54-.13.64-.64.74-1.44.12-1.12.16-3.25.16-5.87V29.72c0-4.21,0-5-.07-5.84s-.29-1.34-.89-1.47a5.19,5.19,0,0,0-.86-.09.24.24,0,0,1-.22-.23c0-.16.13-.22.44-.22.93,0,2.68.06,2.84.06s1.95-.06,2.81-.06c.31,0,.45.06.45.22a.28.28,0,0,1-.22.23,3.15,3.15,0,0,0-.7.06c-.77.16-.93.54-1,1.5s0,1.63,0,5.84Z"/><path class="a" d="M231.82,29.72c0-4.21,0-5-.06-5.84s-.23-1.37-1.15-1.5a8.44,8.44,0,0,0-1-.06.28.28,0,0,1-.22-.22c0-.16.13-.22.45-.22,1.28,0,3.1.06,3.26.06.32,0,2.11-.06,3.76-.06,2.81,0,7.95-.26,11.27,3.09a9.56,9.56,0,0,1,2.74,6.9,10.88,10.88,0,0,1-3,7.63c-1.21,1.25-3.74,3.13-8.52,3.13-1.21,0-2.71-.1-3.93-.16s-2.17-.15-2.29-.15-.58,0-1.15,0-1.24.06-1.69.06c-.29,0-.45-.06-.45-.22a.22.22,0,0,1,.22-.23,3.89,3.89,0,0,0,.87-.13c.54-.13.6-.64.73-1.44a54.41,54.41,0,0,0,.16-5.87Zm2.56,2.94c0,2.87,0,5.39,0,5.9a5.11,5.11,0,0,0,.32,1.95c.35.51,1.34,1.08,4.65,1.08A9.41,9.41,0,0,0,246,39.13c1.47-1.37,2.21-4,2.21-6.45a9.4,9.4,0,0,0-2.65-6.8c-2.65-2.68-5.74-3-9.1-3a7.64,7.64,0,0,0-1.69.19.48.48,0,0,0-.35.54Z"/><path class="a" d="M269.16,34.34c0-2.21-.06-2.52-1.21-2.75a9.25,9.25,0,0,0-1-.07.27.27,0,0,1-.23-.22c0-.19.13-.22.45-.22,1.28,0,3.16.06,3.32.06s1.89-.06,2.75-.06c.31,0,.45,0,.45.22a.28.28,0,0,1-.22.22,3,3,0,0,0-.7.07c-.77.13-1,.54-1.05,1.5s0,1.66,0,2.81v4.16c0,1.25,0,1.28-.38,1.47a14.28,14.28,0,0,1-6,1.21c-2.14,0-6.13-.26-9.25-2.9a10.38,10.38,0,0,1-3.35-7.73,10.14,10.14,0,0,1,4.69-8.9,14.06,14.06,0,0,1,7.46-1.72,23.23,23.23,0,0,1,4.31.45,12.24,12.24,0,0,0,2.27.29c.29,0,.36.13.36.26,0,.38-.17,1.12-.17,3.83,0,.45-.12.57-.32.57s-.19-.16-.19-.41a4,4,0,0,0-.64-1.79c-.7-1-2.84-2.11-6.48-2.11a8.94,8.94,0,0,0-5.87,1.76c-1.63,1.24-2.78,3.67-2.78,6.83a10.8,10.8,0,0,0,3,7.5,10,10,0,0,0,7.18,2.84,7,7,0,0,0,3-.51c.35-.19.57-.32.57-.83Z"/><path class="a" d="M277.34,29.72c0-4.21,0-5-.06-5.84s-.23-1.37-1.15-1.5a8.74,8.74,0,0,0-1-.06.27.27,0,0,1-.22-.22c0-.16.13-.22.45-.22,1.28,0,3.09.06,3.25.06s6.07,0,6.71,0,1.05-.13,1.27-.16.25-.13.39-.13.12.13.12.26-.16.51-.22,1.28c0,.25-.1,1.47-.16,1.79,0,.13-.13.29-.26.29s-.22-.12-.22-.35a3,3,0,0,0-.16-1c-.19-.45-.48-.64-2-.83-.47-.06-3.73-.1-4-.1-.13,0-.16.1-.16.29v7.37c0,.19,0,.29.16.29.35,0,4,0,4.69-.06s1.09-.1,1.38-.38.32-.35.42-.35.16.06.16.22-.16.61-.23,1.5c-.06.54-.12,1.56-.12,1.76s-.06.51-.26.51-.19-.09-.19-.26a2.46,2.46,0,0,0-.12-.89c-.1-.38-.36-.7-1.44-.83-.77-.1-3.77-.13-4.25-.13a.17.17,0,0,0-.19.19v2.27c0,.92,0,4.08,0,4.62.06,1.82.58,2.17,3.35,2.17a9.33,9.33,0,0,0,2.8-.29,2.05,2.05,0,0,0,1.28-1.88c.06-.32.13-.41.29-.41s.19.22.19.41a22.66,22.66,0,0,1-.38,2.62c-.2.7-.48.7-1.57.7-2.11,0-3.73-.06-4.89-.09s-1.91-.06-2.33-.06c-.06,0-.6,0-1.21,0s-1.18.06-1.63.06c-.29,0-.45-.06-.45-.22a.21.21,0,0,1,.22-.23,7.8,7.8,0,0,0,.86-.13c.54-.1.6-.64.73-1.44a55.14,55.14,0,0,0,.16-5.87Z"/><path class="b" d="M79.33,33c0,.08,0,.15,0,.23l.93.94c1.77,1.79,3.43,3.49,5.13,5l.08.07c.67.66,1.33,1.3,2,1.93l4.38,3.74c.19.17,1.49.71,1.36-1.12,0-.61-.25-1-.4-1.8-.23-1.26-.14-5.78-.78-7.4-.28-.72-1-1.45-1.38-2.17s-.3-1.83-1.11-3c-.24-.35-1-1.42-1.24-1.75a13.5,13.5,0,0,0-3.05-3c-1.59-1.16-1.89-.93-4.1-1.48a10.32,10.32,0,0,0-4.81.54,19.34,19.34,0,0,1,1.86,4.7A21.22,21.22,0,0,1,79.33,33Z"/><path class="c" d="M144.46,62.24a21.94,21.94,0,0,1-3.76,7,32.67,32.67,0,0,1-21.5,12.14c-13.83,2.35-28.62-3.64-37.5-12.06A62.76,62.76,0,0,1,69.29,53.11a72.1,72.1,0,0,0,14.09,12c9.68,6.3,23.22,9.76,34.5,7.79C136.13,70,144,61.67,144.46,62.24Z"/><path class="d" d="M31,16.06a49.41,49.41,0,0,0-14.49,3.49C4.9,24.19.14,30.49,0,30.18c.09.29,6.35-4.36,17.73-6.71a59.91,59.91,0,0,1,8.84-1.27A56.73,56.73,0,0,1,31,16.06Z"/><path class="a" d="M99.62,53.82A121,121,0,0,1,84.05,40.58c-4.2-3.75-8.14-8.48-13.37-12.79-1.46,1.44-3.21,3.18-5,5.26C72.06,39.11,81.83,50,97.21,57.37A68.68,68.68,0,0,0,116.37,63,100,100,0,0,1,99.62,53.82Z"/><path class="e" d="M78.64,22.1"/><path class="f" d="M78,4.4S66.86,1.84,56.64,6.65C23.09,22.44,24.78,60.58,25,64.36l8.73,4.51S30.82,26.14,66,9.37c7.63-3.64,13.57-3.45,17.27-2.6Z"/><path class="g" d="M54.43,5.18C63,1.13,72.33,2.31,75,2.78l-4.42-2S59.94-1.95,49.72,2.86C14.47,19.45,18.19,62.33,18.19,62.33l4.71,2.31S19.18,21.77,54.43,5.18Z"/><path class="g" d="M104.65,36.5a15.41,15.41,0,0,0-.1-2.12C102.65,12.87,88,3,70.42,9.73,43.47,20.08,35,48.65,36.19,71.13c0,1,2.85.7,4,.19.6-.27,2.24-1.37,4.15-2.58L45.56,68l1.47-.9c.91-.54,2.86-1.86,3.66-2.26,3.38-1.65,2.42-4,2.49-5,.11-1.42.27-2.83.48-4.24.1-.64-1.58-1.1-1.58-1.1a4.67,4.67,0,0,0,2.31-2.85C55.18,48,55.55,44.14,57,40.87c.49-1.27-1.59-1.93-1.59-1.93s2.55.23,2.78-.11c.46-.68.93-1.35,1.26-2a35,35,0,0,1,7.45-9.27c.4-.37-1.07-3.39-1.07-3.39s2.15,2.31,3.64,1.27a20.64,20.64,0,0,1,3.24-1.91,17.16,17.16,0,0,1,8.23-1.93,10.66,10.66,0,0,1,2.89.45c.32.11,1.43-1.37,1.74-1.21s-.25,1.91,0,2.11c.51.36,2.19,1.64,2.66,2.08.28.26,1,1.37,1.24,1.66.59.64,3.31,1.33,3.31,1.33s-1.06,1.27-.7,2a33.72,33.72,0,0,1,2.18,5.83c.08.26.15.52.22.79s.13.54.18.82c.13.64,0,4.11.13,5.81.09.94,1.3,2,3.58.26a45.34,45.34,0,0,1,5.33-3.79,2.26,2.26,0,0,0,1-1.88C104.7,37.38,104.67,36.94,104.65,36.5Z"/><path class="h" d="M84,52.53C72.8,44.31,68.73,39,64.45,34.62a40.92,40.92,0,0,0-2.92,4.32c4.12,5.68,8.87,12.7,17.68,19.67C92,68.44,103.46,71.8,116.86,70.32a58.32,58.32,0,0,0,17.46-4.78C134.83,64.84,108.69,70.55,84,52.53Z"/><path class="i" d="M25,24.82c-11.89.36-19.13,5.46-19.14,5-.08.36,6.74-2.56,17.19-1.18C23.67,27.31,24.33,26,25,24.82Z"/><path class="i" d="M87.16,77.17A56.75,56.75,0,0,1,69.92,59.29c-3.15-5-6.15-11.87-9.77-17.77A33,33,0,0,0,57.09,51.9,26.65,26.65,0,0,0,57,55.26q1.4,2.49,2.82,5.26c8.38,16.34,17.63,23.1,29.78,27.62s30.06,2.48,42.58-8.57C115.82,89.38,95,82.25,87.16,77.17Z"/><path class="g" d="M239.92,54.82v1.33a6.32,6.32,0,0,1-3.06.72,4.74,4.74,0,0,1-2.39-.57,4.18,4.18,0,0,1-1.55-1.56,4.25,4.25,0,0,1-.57-2.15,4.11,4.11,0,0,1,1.31-3.1,4.5,4.5,0,0,1,3.24-1.25,7.61,7.61,0,0,1,2.95.69v1.3a5.81,5.81,0,0,0-2.89-.85,3.34,3.34,0,0,0-2.4.92,3,3,0,0,0-1,2.29,3,3,0,0,0,.94,2.28,3.35,3.35,0,0,0,2.41.89A5.46,5.46,0,0,0,239.92,54.82Z"/><path class="g" d="M244.58,48.29h.85l3.78,8.48H248l-1.12-2.5h-3.59l-1.05,2.5H241Zm1.77,4.91L245,50.15l-1.26,3.05Z"/><path class="g" d="M257.32,48.34h1.15v8.43h-1l-5.63-6.49v6.49h-1.13V48.34h1l5.68,6.55Z"/><path class="g" d="M263.45,48.29h.85l3.78,8.48h-1.23l-1.12-2.5h-3.59l-1.05,2.5h-1.24Zm1.77,4.91-1.36-3.05-1.26,3.05Z"/><path class="g" d="M269.51,56.76V48.34h2.84a6,6,0,0,1,2.72.52,3.91,3.91,0,0,1,1.59,1.52,4.24,4.24,0,0,1,.59,2.18,4.16,4.16,0,0,1-2.68,3.89,4.36,4.36,0,0,1-.87.25,12,12,0,0,1-1.52.06Zm2.71-7.34h-1.51v6.27h1.54a6.19,6.19,0,0,0,1.4-.12,3.38,3.38,0,0,0,.84-.31,2.89,2.89,0,0,0,.61-.47,3.12,3.12,0,0,0,.89-2.29,2.9,2.9,0,0,0-.92-2.22,3,3,0,0,0-.78-.52,3.27,3.27,0,0,0-.83-.27A8.34,8.34,0,0,0,272.22,49.42Z"/><path class="g" d="M281.94,48.29h.85l3.78,8.48h-1.23l-1.12-2.5h-3.59l-1.05,2.5h-1.24Zm1.77,4.91-1.36-3.05-1.26,3.05Z"/><path class="a" d="M154.25,66.42a11.09,11.09,0,0,1,1.84-.14,3,3,0,0,1,2.08.62,2,2,0,0,1,.65,1.55,2.18,2.18,0,0,1-.57,1.58,3.09,3.09,0,0,1-2.27.81,3.26,3.26,0,0,1-.77-.07v3h-1Zm1,3.58a3.17,3.17,0,0,0,.79.08c1.16,0,1.86-.57,1.86-1.57s-.7-1.46-1.75-1.46a4,4,0,0,0-.9.08Z"/><path class="a" d="M163.93,70.27h-2.87v2.67h3.21v.8h-4.18V66.33h4v.8h-3v2.34h2.87Z"/><path class="a" d="M171.85,70c0,2.54-1.55,3.91-3.44,3.91s-3.33-1.53-3.33-3.77,1.45-3.89,3.43-3.89S171.85,67.75,171.85,70Zm-5.76.11c0,1.6.86,3,2.38,3s2.38-1.4,2.38-3.08c0-1.49-.77-3-2.37-3S166.09,68.45,166.09,70.07Z"/><path class="a" d="M173.1,66.42a11.09,11.09,0,0,1,1.84-.14,3,3,0,0,1,2.08.62,2,2,0,0,1,.65,1.55,2.18,2.18,0,0,1-.57,1.58,3.09,3.09,0,0,1-2.27.81,3.25,3.25,0,0,1-.77-.07v3h-1Zm1,3.58a3.17,3.17,0,0,0,.79.08c1.16,0,1.86-.57,1.86-1.57S176,67,175,67a4,4,0,0,0-.9.08Z"/><path class="a" d="M178.94,66.33h1v6.61h3.17v.8h-4.14Z"/><path class="a" d="M188,70.27H185.1v2.67h3.21v.8h-4.18V66.33h4v.8h-3v2.34H188Z"/><path class="a" d="M196.55,66.42a11.09,11.09,0,0,1,1.84-.14,3,3,0,0,1,2.08.62,2,2,0,0,1,.65,1.55,2.18,2.18,0,0,1-.57,1.58,3.09,3.09,0,0,1-2.27.81,3.26,3.26,0,0,1-.77-.07v3h-1Zm1,3.58a3.18,3.18,0,0,0,.79.08c1.16,0,1.86-.57,1.86-1.57s-.7-1.46-1.75-1.46a4,4,0,0,0-.9.08Z"/><path class="a" d="M202.39,66.33h1v6.61h3.17v.8h-4.14Z"/><path class="a" d="M208.79,71.41,208,73.74h-1l2.53-7.42h1.14l2.53,7.42h-1l-.79-2.33Zm2.44-.75-.74-2.13c-.17-.48-.27-.92-.38-1.35h0c-.11.43-.22.89-.37,1.34L209,70.66Z"/><path class="a" d="M219.33,73.51a4.69,4.69,0,0,1-2,.35,3.46,3.46,0,0,1-3.65-3.76,3.68,3.68,0,0,1,3.87-3.89,4,4,0,0,1,1.76.33l-.24.78a3.4,3.4,0,0,0-1.49-.31,2.76,2.76,0,0,0-2.89,3.06,2.69,2.69,0,0,0,2.84,3,3.86,3.86,0,0,0,1.57-.31Z"/><path class="a" d="M224.37,70.27h-2.87v2.67h3.21v.8h-4.18V66.33h4v.8h-3v2.34h2.87Z"/><path class="a" d="M232.95,66.42a11.09,11.09,0,0,1,1.84-.14,3,3,0,0,1,2.08.62,2,2,0,0,1,.65,1.55,2.18,2.18,0,0,1-.57,1.58,3.09,3.09,0,0,1-2.27.81,3.26,3.26,0,0,1-.77-.07v3h-1Zm1,3.58a3.18,3.18,0,0,0,.79.08c1.16,0,1.86-.57,1.86-1.57S235.85,67,234.8,67a4,4,0,0,0-.9.08Z"/><path class="a" d="M238.8,66.43a11.17,11.17,0,0,1,1.84-.15,3.07,3.07,0,0,1,2.14.6,1.89,1.89,0,0,1,.58,1.42A2,2,0,0,1,242,70.18v0a1.86,1.86,0,0,1,1.08,1.5,11.78,11.78,0,0,0,.57,2h-1a9.28,9.28,0,0,1-.48-1.77c-.22-1-.63-1.41-1.5-1.44h-.9v3.21h-1Zm1,3.38h1c1,0,1.67-.56,1.67-1.41S241.71,67,240.7,67a4.2,4.2,0,0,0-.95.08Z"/><path class="a" d="M251.09,70c0,2.54-1.55,3.91-3.44,3.91s-3.33-1.53-3.33-3.77,1.45-3.89,3.43-3.89S251.09,67.75,251.09,70Zm-5.76.11c0,1.6.86,3,2.38,3s2.38-1.4,2.38-3.08c0-1.49-.77-3-2.37-3S245.32,68.45,245.32,70.07Z"/><path class="a" d="M252.21,72.58a3.26,3.26,0,0,0,1.71.48c1,0,1.55-.52,1.55-1.27s-.4-1.09-1.4-1.46c-1.21-.44-2-1.08-2-2.11a2.14,2.14,0,0,1,2.4-2,3.31,3.31,0,0,1,1.63.36l-.26.78a2.74,2.74,0,0,0-1.4-.35c-1,0-1.4.61-1.4,1.11,0,.69.45,1,1.47,1.43,1.25.48,1.88,1.09,1.88,2.18s-.84,2.15-2.58,2.15a3.82,3.82,0,0,1-1.89-.48Z"/><path class="a" d="M257.75,66.42a11.09,11.09,0,0,1,1.84-.14,3,3,0,0,1,2.08.62,2,2,0,0,1,.65,1.55,2.18,2.18,0,0,1-.57,1.58,3.09,3.09,0,0,1-2.27.81,3.26,3.26,0,0,1-.77-.07v3h-1Zm1,3.58a3.18,3.18,0,0,0,.79.08c1.16,0,1.86-.57,1.86-1.57s-.7-1.46-1.75-1.46a4,4,0,0,0-.9.08Z"/><path class="a" d="M267.43,70.27h-2.87v2.67h3.21v.8h-4.18V66.33h4v.8h-3v2.34h2.87Z"/><path class="a" d="M269,66.43a11.17,11.17,0,0,1,1.84-.15,3.06,3.06,0,0,1,2.14.6,1.89,1.89,0,0,1,.58,1.42,2,2,0,0,1-1.39,1.88v0a1.86,1.86,0,0,1,1.08,1.5,11.78,11.78,0,0,0,.57,2h-1a9.28,9.28,0,0,1-.48-1.77c-.22-1-.63-1.41-1.5-1.44H270v3.21h-1Zm1,3.38h1c1,0,1.67-.56,1.67-1.41s-.69-1.37-1.7-1.37a4.2,4.2,0,0,0-.95.08Z"/><path class="a" d="M275.89,66.33v7.42h-1V66.33Z"/><path class="a" d="M279,67.14h-2.25v-.81h5.49v.81h-2.27v6.6h-1Z"/><path class="a" d="M285,73.74V70.6l-2.35-4.27h1.1l1,2c.28.56.51,1,.74,1.53h0c.2-.48.46-1,.75-1.53l1.07-2h1.08L286,70.59v3.16Z"/><circle class="a" cx="192.19" cy="70.65" r="1.47"/><circle class="a" cx="228.68" cy="70.65" r="1.47"/></svg>