<svg id="Layer_1" data-name="Layer 1" xmlns="http://www.w3.org/2000/svg" viewBox="0 0 5236.07 5739.32"><defs><style>.cls-1{fill:#ddbc40;}.cls-2{fill:#4cafee;}.cls-3{fill:#1f5274;}</style></defs><path class="cls-1" d="M2084.11-1321.59c0-514.78-417.32-932.1-932.1-932.1s-932.1,417.32-932.1,932.1h518.2l-198.67-356,453.08,235.1,156.18-533.11,3.31,10.83,3.31-10.83,156.18,533.11,453.08-235.1-198.67,356Z" transform="translate(1486.48 2253.69)"/><path class="cls-2" d="M567,1206.91c-115.81,3.08-229.81,35.38-333.15,94.3a25.42,25.42,0,0,0-12.91,22.07V1693c0,18.94,20.09,31.25,36.88,22.47,96.88-50.61,202.25-78.36,309.18-81.21,743.78,0,999.09,550.06,1487.79,145.72a25.22,25.22,0,0,0,9.07-19.43v-362.8c0-21-24-32.69-40.67-20C1554.73,1733.27,1294.57,1206.91,567,1206.91Z" transform="translate(1486.48 2253.69)"/><path class="cls-3" d="M1675.18-1113.53V616.94c0,90.84-70.22,167.74-160.93,172.44a170,170,0,0,1-179-169.74V-1113.53h-387V360c0,90.83-70.22,167.73-160.93,172.43a170,170,0,0,1-179-169.74V-1113.53H219.91V1005a24,24,0,0,0,34.76,21.49C337.81,985,426.08,943,515.48,943c626.91,0,774.86,295.69,1135.41,295.69h3c237.61,0,430.23-192.62,430.23-430.23v-1922Z" transform="translate(1486.48 2253.69)"/><rect class="cls-3" x="1242.57" y="4959.76" width="208" height="779.56"/><rect class="cls-3" x="3427.77" y="4959.76" width="208" height="779.56"/><polygon class="cls-3" points="2960.97 5260.2 2706.38 5260.2 2706.38 4959.76 2498.38 4959.76 2498.38 5739.32 2706.38 5739.32 2706.38 5438.88 2960.97 5438.88 2960.97 5739.32 3168.98 5739.32 3168.98 4959.76 2960.97 4959.76 2960.97 5260.2"/><polygon class="cls-3" points="4420.95 4959.76 4219.14 4959.76 4011.14 4959.76 3809.33 4959.76 3809.33 5138.44 4011.14 5138.44 4011.14 5739.32 4219.14 5739.32 4219.14 5138.44 4420.95 5138.44 4420.95 4959.76"/><polygon class="cls-3" points="726.2 5324.39 552.86 4979.66 379.52 5324.39 212.51 4959.76 0 4959.76 364.81 5739.32 552.86 5359.34 740.91 5739.32 1105.72 4959.76 893.22 4959.76 726.2 5324.39"/><path class="cls-3" d="M138.25,3095.85c0,215.27,174.51,389.78,389.78,389.78,91.82,0,177.92-17.41,242.83-52.27V3251.61c-58.14,63.28-112.72,66.33-206.64,66.33-122.65,0-222.08-99.43-222.08-222.09s99.43-222.08,222.08-222.08c93.92,0,148.5,3,206.64,66.32V2758.35c-64.91-34.87-151-52.28-242.83-52.28C312.76,2706.07,138.25,2880.58,138.25,3095.85Z" transform="translate(1486.48 2253.69)"/><path class="cls-3" d="M3338.81,2706.07,2928,3485.63h183.53l61.93-117.54h330.65l61.93,117.54h183.53Zm-107.28,519.82,107.28-203.57,107.27,203.57Z" transform="translate(1486.48 2253.69)"/><path class="cls-3" d="M370.14,2475.39c37.05,0,71.78-7,98-21.09V2381c-23.45,25.53-45.48,26.76-83.37,26.76a89.61,89.61,0,0,1,0-179.21c37.89,0,59.92,1.23,83.37,26.76V2182c-26.19-14.06-60.92-21.09-98-21.09a157.27,157.27,0,0,0,0,314.53Z" transform="translate(1486.48 2253.69)"/><rect class="cls-3" x="2045.21" y="4414.55" width="83.92" height="314.53"/><polygon class="cls-3" points="2288.28 4414.55 2206.85 4414.55 2206.85 4486.64 2288.28 4486.64 2288.28 4729.07 2372.2 4729.07 2372.2 4486.64 2453.62 4486.64 2453.62 4414.55 2372.2 4414.55 2288.28 4414.55"/><polygon class="cls-3" points="2596.53 4729.07 2680.45 4729.07 2680.45 4625.27 2791.49 4414.55 2706.19 4414.55 2638.49 4543.02 2570.79 4414.55 2485.49 4414.55 2596.53 4625.27 2596.53 4729.07"/><path class="cls-3" d="M1668.57,2160.86a157.27,157.27,0,1,0,157.26,157.26A157.26,157.26,0,0,0,1668.57,2160.86Zm0,245.11a87.85,87.85,0,1,1,87.84-87.85A87.85,87.85,0,0,1,1668.57,2406Z" transform="translate(1486.48 2253.69)"/><polygon class="cls-3" points="3464.64 4610.96 3553.51 4610.96 3553.51 4532.66 3464.64 4532.66 3464.64 4492.85 3576.82 4492.85 3576.82 4414.55 3464.64 4414.55 3459.51 4414.55 3380.71 4414.55 3380.71 4729.07 3464.64 4729.07 3464.64 4610.96"/></svg>