<?xml version="1.0" encoding="UTF-8" standalone="no"?>
<svg
   xmlns:dc="http://purl.org/dc/elements/1.1/"
   xmlns:cc="http://creativecommons.org/ns#"
   xmlns:rdf="http://www.w3.org/1999/02/22-rdf-syntax-ns#"
   xmlns:svg="http://www.w3.org/2000/svg"
   xmlns="http://www.w3.org/2000/svg"
   viewBox="0 0 799.99999 526.29375"
   height="526.29376"
   width="800"
   xml:space="preserve"
   id="svg10"
   version="1.1"><metadata
     id="metadata16"><rdf:RDF><cc:Work
         rdf:about=""><dc:format>image/svg+xml</dc:format><dc:type
           rdf:resource="http://purl.org/dc/dcmitype/StillImage" /><dc:title></dc:title></cc:Work></rdf:RDF></metadata><defs
     id="defs14" /><g
     transform="matrix(1.3333333,0,0,-1.3333333,-654.11613,1113.2807)"
     id="g18"><g
       id="g1228"><path
         id="path730"
         style="fill:#d0103a;fill-opacity:1;fill-rule:nonzero;stroke:none;stroke-width:0.999998"
         d="m 728.89966,622.72875 c -1.20633,-4.28182 -2.97607,-7.755 -5.97202,-10.43943 -3.27433,-3.18817 -7.92734,-5.84608 -13.61434,-6.83368 -2.71756,-0.517 -4.67289,-0.7755 -7.78152,-0.7755 -20.58722,0 -31.10618,14.3567 -31.10618,33.51222 0,19.16216 10.04173,34.44018 30.6157,34.44018 7.03915,0 12.38149,-1.45821 16.93507,-4.16915 5.08384,-3.00257 8.8354,-7.64895 10.47257,-10.04836 l 13.55469,6.54867 c -8.4112,12.65325 -21.64773,17.90279 -38.72863,17.90279 -29.72089,0 -48.44558,-16.74948 -48.44558,-44.50842 0,-26.60563 16.259,-44.17039 46.96749,-44.17039 20.61373,0 41.07502,8.53713 43.40152,28.54107 z" /><path
         id="path734"
         style="fill:#d0103a;fill-opacity:1;fill-rule:nonzero;stroke:none;stroke-width:0.999998"
         d="m 790.6812,651.41829 c -15.46361,0 -25.45895,-9.6109 -25.45895,-24.47798 0,-14.86707 9.99534,-24.47797 25.45895,-24.47797 15.47024,0 25.46558,9.6109 25.46558,24.47797 0,14.86708 -9.99534,24.47798 -25.46558,24.47798 m 0,-58.16917 c -25.22034,0 -39.11306,11.96392 -39.11306,33.69119 0,21.41575 14.25727,33.69119 39.11306,33.69119 25.22034,0 39.11969,-11.96392 39.11969,-33.69119 0,-21.72727 -13.89935,-33.69119 -39.11969,-33.69119" /><path
         id="path738"
         style="fill:#d0103a;fill-opacity:1;fill-rule:nonzero;stroke:none;stroke-width:0.999998"
         d="m 858.58786,595.58888 h -12.91175 v 53.48302 h -16.14632 v 9.21984 h 16.14632 v 3.27434 c 0,17.00135 7.00602,24.58403 22.7215,24.58403 3.65877,0 7.87431,-0.27839 11.26796,-0.74236 l 0.36455,-0.0597 v -9.24635 l -0.49049,0.0862 c -1.54437,0.27838 -4.61323,0.73573 -7.93397,0.73573 -9.36566,0 -13.0178,-3.78471 -13.0178,-13.50167 v -5.13023 h 19.84486 v -9.21984 h -19.84486 z" /><path
         d="m 1013.0616,672.24081 h -12.9118 v 13.17025 h 12.9118 z"
         style="fill:#d0103a;fill-opacity:1;fill-rule:nonzero;stroke:none;stroke-width:0.999998"
         id="path740" /><path
         id="path744"
         style="fill:#d0103a;fill-opacity:1;fill-rule:nonzero;stroke:none;stroke-width:0.999998"
         d="m 1013.0636,595.58888 h -12.9118 v 56.88992 l 12.3285,5.81294 h 0.5833 z" /><path
         d="m 902.09212,672.24081 h -12.91838 v 13.17025 h 12.91838 z"
         style="fill:#d0103a;fill-opacity:1;fill-rule:nonzero;stroke:none;stroke-width:0.999998"
         id="path746" /><path
         id="path750"
         style="fill:#d0103a;fill-opacity:1;fill-rule:nonzero;stroke:none;stroke-width:0.999998"
         d="m 902.09344,595.58888 h -12.91838 v 56.77061 l 12.91838,6.1311 z" /><path
         id="path754"
         style="fill:#d0103a;fill-opacity:1;fill-rule:nonzero;stroke:none;stroke-width:0.999998"
         d="m 1055.7824,593.2478 c -16.0005,0 -26.831,5.01093 -30.4964,14.11809 l -0.1458,0.36455 12.461,5.91236 0.093,-0.54351 c 1.2329,-7.15847 7.5893,-10.63828 19.4406,-10.63828 12.7659,0 19.7984,3.65877 19.7984,10.30024 0,5.89248 -9.1337,7.33743 -19.699,9.00111 -14.2175,2.24033 -30.344,4.77894 -30.344,19.1025 0,12.56045 11.1155,19.77194 30.4898,19.77194 10.4063,0 23.835,-2.02823 28.7134,-11.69216 l 0.1922,-0.38443 -11.3475,-5.38211 -0.1657,0.41758 c -2.0415,5.33571 -7.4103,7.82129 -16.8953,7.82129 -10.804,0 -18.0619,-3.59912 -18.0619,-8.94809 0,-4.10949 3.9571,-6.68123 12.8389,-8.34491 l 20.4613,-3.81122 c 12.0766,-2.31325 17.4719,-7.45674 17.4719,-16.68321 0,-13.71376 -11.3872,-20.38174 -34.8047,-20.38174" /><path
         id="path758"
         style="fill:#d0103a;fill-opacity:1;fill-rule:nonzero;stroke:none;stroke-width:0.999998"
         d="m 949.92194,651.41829 c -14.5688,0 -23.98086,-9.6109 -23.98086,-24.47798 0,-14.86707 9.41206,-24.47797 23.98086,-24.47797 14.5688,0 23.98086,9.6109 23.98086,24.47797 0,14.86708 -9.41206,24.47798 -23.98086,24.47798 M 947.211,593.24912 c -19.91114,0 -34.92403,14.48264 -34.92403,33.69119 0,19.20855 15.01289,33.69119 34.92403,33.69119 11.32761,0 20.07022,-3.22131 26.6918,-9.85615 v 28.82609 l 12.32847,5.80631 h 0.58328 v -74.86563 c 0,-4.01669 0.22536,-8.94808 0.49712,-14.51578 l 0.0265,-0.43746 h -12.89849 l -0.0398,0.37781 c -0.21873,2.35301 -0.44409,4.87173 -0.49049,7.71524 C 967.606,597.04046 957.9487,593.24912 947.211,593.24912" /></g><g
       id="g1248"><path
         id="path770"
         style="fill:#d0103a;fill-opacity:1;fill-rule:nonzero;stroke:none;stroke-width:0.999998"
         d="m 742.89578,703.60616 c -0.78876,0.72247 0.49049,5.70689 1.98183,10.57199 8.53714,26.40679 51.67353,72.55901 58.50721,75.97917 3.06886,1.53774 -10.93655,-22.13159 -24.85579,-47.07354 -7.98036,-14.31694 -33.96294,-40.59779 -35.56697,-39.44448 -0.0265,0.0133 -0.0464,-0.0265 -0.0663,-0.0331" /><g
         id="g1217"><path
           d="m 701.54172,440.30186 c -0.90806,-0.72247 -2.45244,4.653 -3.08212,8.6233 -6.70775,42.20844 -9.4452,102.52514 2.24034,119.02276 0.18559,0.25187 0.36455,0.44409 0.55677,0.59654 0.64293,0.517 1.43832,0.60979 2.13428,0.25187 0.87492,-0.45072 4.75243,-2.39279 6.84694,-27.71917 1.19971,-14.58206 0.64957,-27.95116 -0.2585,-38.70875 -1.92881,-22.98 -5.36222,-59.60086 -8.43771,-62.06655"
           style="fill:#fecb00;fill-opacity:1;fill-rule:nonzero;stroke:none;stroke-width:0.999998"
           id="path774" /><path
           d="m 562.66151,560.73643 c -1.54437,0.11268 1.19971,2.85013 1.19971,2.85013 27.87824,25.36616 52.44902,35.14277 65.46019,35.14277 1.0804,0 2.03486,-0.0862 2.82362,-0.25188 1.20633,-0.2585 2.04812,-0.70259 2.48558,-1.29912 1.40518,-0.58329 1.66368,-1.65706 1.71008,-2.12766 0.13919,-1.52449 4.24205,-4.4409 -26.7846,-19.35437 -10.3864,-4.99104 -43.40814,-15.21174 -46.89458,-14.95987"
           style="fill:#fecb00;fill-opacity:1;fill-rule:nonzero;stroke:none;stroke-width:0.999998"
           id="path786" /><path
           d="m 647.56755,673.23835 h -0.007 c -28.77968,2.37953 -59.71354,39.4975 -78.19298,61.67549 -4.78557,5.74003 -12.42127,14.42298 -11.87113,15.4371 0.18559,0.35129 0.7755,0.49049 1.93544,0.23199 5.07721,-1.1268 35.91827,-17.13393 54.33143,-31.76901 0.43746,-0.34467 43.12976,-35.32173 40.20009,-43.71304 -0.31815,-0.90807 -1.19308,-1.98847 -3.55935,-1.98184 -0.92795,0 -1.88904,0.0398 -2.83687,0.11931"
           style="fill:#fecb00;fill-opacity:1;fill-rule:nonzero;stroke:none;stroke-width:0.999998"
           id="path798" /><path
           d="m 584.42325,626.85812 c -9.28612,0 -27.04309,1.00749 -35.67965,1.29913 -16.2126,0.55677 -60.4559,4.11612 -58.06312,7.03253 2.00172,2.43255 45.64185,12.03683 84.46328,12.03683 14.9201,0 28.83934,-0.63631 41.37328,-1.88904 18.01547,-1.8095 21.87972,-5.78643 22.64196,-6.95962 0.38444,-0.60317 0.47723,-1.31902 0.24525,-2.01498 -0.66945,-2.068 -3.93716,-3.40027 -4.30834,-3.54609 -10.34663,-4.06309 -26.45318,-5.95876 -50.67266,-5.95876"
           style="fill:#fecb00;fill-opacity:1;fill-rule:nonzero;stroke:none;stroke-width:0.999998"
           id="path802" /><path
           d="m 778.0591,505.41077 c -12.88524,10.31349 -42.67904,53.70175 -47.16634,73.67918 -0.66945,2.99595 0.39107,3.94378 0.64294,4.24205 0.38443,0.45735 0.92132,0.72247 1.51123,0.75562 h 0.0464 c 0.93457,0 2.43255,-0.1392 11.70542,-10.24722 12.6665,-13.80656 23.55002,-33.24709 28.91224,-43.60036 4.54696,-8.79563 12.3351,-26.06875 11.42041,-29.34308 -0.33804,-1.21959 -7.0723,4.51381 -7.0723,4.51381"
           style="fill:#fecb00;fill-opacity:1;fill-rule:nonzero;stroke:none;stroke-width:0.999998"
           id="path814" /><path
           d="m 712.06864,699.48407 v 0 c -0.36455,0.0729 -0.69596,0.23862 -0.98097,0.49712 -0.63631,0.57002 -1.80951,1.62391 -1.68357,17.48521 0.26513,36.00444 18.28723,85.23215 22.463,90.11714 0.51037,0.59654 0.80864,1.18645 1.16657,1.12016 0.85504,-0.17233 0.88818,-0.81527 1.00748,-2.08125 3.60575,-49.85077 -8.27863,-91.78745 -17.75034,-104.38104 -1.57089,-2.10778 -2.95618,-3.00921 -4.22217,-2.75734"
           style="fill:#fecb00;fill-opacity:1;fill-rule:nonzero;stroke:none;stroke-width:0.999998"
           id="path826" /><path
           d="m 669.33326,702.69743 -0.57665,0.29827 c -0.67608,0.34467 -16.76275,8.95471 -34.61251,51.42165 -12.58697,29.93299 -18.29386,48.65768 -21.34947,59.34236 -3.5726,12.50743 -5.13023,19.8316 -3.49306,21.16387 0.35792,0.29164 1.75647,-1.22622 2.06137,-1.58414 1.63717,-1.91556 7.13858,-7.48325 34.94392,-57.76485 23.20536,-41.97645 28.09698,-62.27865 28.01744,-66.56048 -0.0597,-3.69854 -4.23542,-5.91899 -4.41439,-6.01841 z"
           style="fill:#fecb00;fill-opacity:1;fill-rule:nonzero;stroke:none;stroke-width:0.999998"
           id="path830" /><path
           d="m 600.64911,502.4685 c 12.50743,20.24255 19.54659,40.16032 43.6335,67.54808 11.87775,13.50166 22.53591,16.52413 24.33879,16.32528 0.45072,-0.053 0.85504,-0.2121 1.21959,-0.46397 2.21382,-1.57752 1.28587,-5.93225 1.12679,-6.41611 -7.96048,-23.72899 -29.7938,-53.26429 -43.18278,-69.25153 -18.73132,-22.37021 -43.2093,-45.34358 -44.07097,-42.58625 -0.85503,2.75734 9.9622,23.56329 16.93508,34.8445"
           style="fill:#fecb00;fill-opacity:1;fill-rule:nonzero;stroke:none;stroke-width:0.999998"
           id="path842" /></g></g></g></svg>
