<?xml version="1.0" encoding="UTF-8"?>
<!-- Generator: Adobe Illustrator 19.2.1, SVG Export Plug-In . SVG Version: 6.00 Build 0)  -->
<svg version="1.1" id="Layer_1" xmlns="http://www.w3.org/2000/svg" xmlns:xlink="http://www.w3.org/1999/xlink" x="0px" y="0px" viewBox="0 0 200 50" style="enable-background:new 0 0 200 50;" xml:space="preserve">
<style type="text/css">
	.st0{fill:#F7B418;}
	.st1{fill:#D82328;}
</style>
<g>
	<path class="st0" d="M180.7,49.3h-167c-6.8,0-12.4-5.4-12.4-12.1V13.3c0-6.7,5.6-12.1,12.4-12.1h167c6.8,0,12.4,5.4,12.4,12.1v23.9   C193.1,43.9,187.5,49.3,180.7,49.3z"/>
	<g>
		<g>
			<path class="st1" d="M180.4,49.9h-167C6.6,49.9,1,44.4,1,37.5V13C1,6.2,6.6,0.6,13.4,0.6h167c6.8,0,12.4,5.6,12.4,12.4v24.5     C192.8,44.4,187.2,49.9,180.4,49.9z M13.4,2.3C7.5,2.3,2.7,7.1,2.7,13v24.5c0,5.9,4.8,10.7,10.7,10.7h167     c5.9,0,10.7-4.8,10.7-10.7V13c0-5.9-4.8-10.7-10.7-10.7H13.4z"/>
		</g>
		<g>
			<g>
				<path class="st1" d="M18.2,38.1v1c0,0,0,0,0,0c-0.3-0.4-0.7-0.5-1.2-0.5c-0.2,0-0.4,0-0.6,0.1c-0.2,0.1-0.4,0.2-0.6,0.4      c-0.1,0.2-0.2,0.4-0.2,0.7c0,0.3,0,0.5,0.2,0.7c0.1,0.2,0.3,0.4,0.6,0.5c0.2,0.1,0.4,0.1,0.6,0.1c0.5,0,0.9-0.2,1.3-0.6      c0,0,0,0,0,0c0,0,0,0,0,0v1c-0.4,0.2-0.8,0.4-1.3,0.4c-0.4,0-0.8-0.1-1.1-0.3c-0.3-0.2-0.6-0.4-0.8-0.8c-0.2-0.3-0.3-0.7-0.3-1      c0-0.4,0.1-0.7,0.3-1c0.2-0.3,0.4-0.6,0.7-0.8c0.3-0.2,0.8-0.3,1.3-0.3c0.2,0,0.4,0,0.6,0.1C17.8,37.9,18,38,18.2,38.1z"/>
			</g>
			<g>
				<path class="st1" d="M29.3,40.7c-0.2,0.2-0.5,0.4-0.9,0.4c-0.4,0-0.7-0.1-0.9-0.4c-0.2-0.2-0.4-0.6-0.4-0.9      c0-0.4,0.1-0.7,0.4-0.9c0.2-0.2,0.5-0.4,0.9-0.4c0.4,0,0.7,0.1,0.9,0.4c0.2,0.2,0.4,0.5,0.4,0.9C29.7,40.2,29.5,40.5,29.3,40.7z       M29.9,38.3c-0.4-0.4-0.9-0.6-1.5-0.6c-0.6,0-1.1,0.2-1.5,0.6c-0.4,0.4-0.6,0.9-0.6,1.5c0,0.6,0.2,1.1,0.6,1.5      c0.4,0.4,0.9,0.6,1.5,0.6c0.6,0,1.1-0.2,1.5-0.6c0.4-0.4,0.6-0.9,0.6-1.5C30.5,39.3,30.3,38.8,29.9,38.3z"/>
			</g>
			<g>
				<path class="st1" d="M42.7,37.8v4c0,0,0,0,0,0H42c0,0,0,0,0,0V39l-1.2,1.5L39.5,39v2.8c0,0,0,0,0,0h-0.7c0,0,0,0,0,0v-4      c0,0,0,0,0,0h0.7c0,0,0,0,0,0l1.2,1.5l1.3-1.5L42.7,37.8C42.7,37.8,42.7,37.8,42.7,37.8z"/>
			</g>
			<g>
				<path class="st1" d="M52.4,37.8v4c0,0,0,0,0,0h-0.7c0,0,0,0,0,0v-4c0,0,0,0,0,0L52.4,37.8C52.3,37.8,52.4,37.8,52.4,37.8z"/>
			</g>
			<g>
				<path class="st1" d="M64.6,38.1v1c0,0,0,0,0,0c-0.3-0.4-0.7-0.5-1.2-0.5c-0.2,0-0.4,0-0.6,0.1c-0.2,0.1-0.4,0.2-0.6,0.4      c-0.1,0.2-0.2,0.4-0.2,0.7c0,0.3,0,0.5,0.2,0.7c0.1,0.2,0.3,0.4,0.6,0.5c0.2,0.1,0.4,0.1,0.6,0.1c0.5,0,0.9-0.2,1.3-0.6      c0,0,0,0,0,0c0,0,0,0,0,0v1c-0.4,0.2-0.8,0.4-1.3,0.4c-0.4,0-0.8-0.1-1.1-0.3c-0.3-0.2-0.6-0.4-0.8-0.8c-0.2-0.3-0.3-0.7-0.3-1      c0-0.4,0.1-0.7,0.3-1c0.2-0.3,0.4-0.6,0.7-0.8c0.3-0.2,0.8-0.3,1.3-0.3c0.2,0,0.4,0,0.6,0.1C64.2,37.9,64.4,38,64.6,38.1z"/>
			</g>
			<g>
				<path class="st1" d="M80.6,37.8v0.8c0,0,0,0,0,0h-1.2l0,3.2c0,0,0,0,0,0h-0.7c0,0,0,0,0,0l0-3.2c0,0-0.4,0-1.2,0c0,0,0,0,0,0      v-0.8c0,0,0,0,0,0L80.6,37.8C80.6,37.8,80.6,37.8,80.6,37.8z"/>
			</g>
			<g>
				<path class="st1" d="M91.8,40.7c-0.2,0.2-0.5,0.4-0.9,0.4c-0.4,0-0.7-0.1-0.9-0.4c-0.2-0.2-0.4-0.6-0.4-0.9      c0-0.4,0.1-0.7,0.4-0.9c0.2-0.2,0.5-0.4,0.9-0.4c0.4,0,0.7,0.1,0.9,0.4c0.2,0.2,0.4,0.5,0.4,0.9C92.2,40.2,92.1,40.5,91.8,40.7z       M92.4,38.3c-0.4-0.4-0.9-0.6-1.5-0.6c-0.6,0-1.1,0.2-1.5,0.6c-0.4,0.4-0.6,0.9-0.6,1.5c0,0.6,0.2,1.1,0.6,1.5      c0.4,0.4,0.9,0.6,1.5,0.6c0.6,0,1.1-0.2,1.5-0.6c0.4-0.4,0.6-0.9,0.6-1.5C93,39.3,92.8,38.8,92.4,38.3z"/>
			</g>
			<g>
				<path class="st1" d="M102.6,38.6c0.1,0,0.2,0.1,0.3,0.2c0,0,0,0.1,0,0.2c0,0.1,0,0.2-0.1,0.3c-0.1,0.1-0.2,0.1-0.3,0.1      c0,0-0.2,0-0.4,0v-0.8h0C102.4,38.6,102.5,38.6,102.6,38.6z M102.2,40.2h0.2l1.2,1.6h0.9c0,0,0.1,0,0-0.1      c-0.2-0.2-0.4-0.5-0.7-0.9c-0.4-0.5-0.6-0.8-0.7-0.9c0.3-0.1,0.5-0.4,0.6-0.8c0-0.3,0-0.6-0.2-0.8c-0.1-0.2-0.3-0.3-0.5-0.4      c-0.2-0.1-0.4-0.1-0.7-0.1l-1,0c0,0,0,0,0,0v4c0,0,0,0,0,0h0.7c0,0,0,0,0,0L102.2,40.2C102.1,40.2,102.1,40.2,102.2,40.2z"/>
			</g>
			<g>
				<path class="st1" d="M114.5,38.9l0.5,1.3h-1L114.5,38.9z M114.9,37.8h-0.8c0,0,0,0,0,0l-1.5,4c0,0,0,0,0,0h0.9l0.3-0.8h1.5      l0.3,0.8h0.8c0,0,0.1,0,0,0L114.9,37.8C114.9,37.8,114.9,37.8,114.9,37.8z"/>
			</g>
			<g>
				<path class="st1" d="M128.2,41.8h-0.8l-2-2.8v2.7c0,0,0,0,0,0c0,0,0,0,0,0h-0.7c0,0,0,0,0,0v-4c0,0,0,0,0,0h0.8l2,2.7v-2.7      c0,0,0,0,0,0h0.7c0,0,0.1,0,0.1,0L128.2,41.8C128.2,41.8,128.2,41.9,128.2,41.8z"/>
			</g>
			<g>
				<path class="st1" d="M139.4,40.7c-0.2,0.2-0.5,0.4-0.9,0.4c-0.4,0-0.7-0.1-0.9-0.4c-0.2-0.2-0.4-0.6-0.4-0.9      c0-0.4,0.1-0.7,0.4-0.9c0.2-0.2,0.5-0.4,0.9-0.4c0.4,0,0.7,0.1,0.9,0.4c0.2,0.2,0.4,0.5,0.4,0.9      C139.8,40.2,139.7,40.5,139.4,40.7z M140,38.3c-0.4-0.4-0.9-0.6-1.5-0.6c-0.6,0-1.1,0.2-1.5,0.6c-0.4,0.4-0.6,0.9-0.6,1.5      c0,0.6,0.2,1.1,0.6,1.5c0.4,0.4,0.9,0.6,1.5,0.6c0.6,0,1.1-0.2,1.5-0.6c0.4-0.4,0.6-0.9,0.6-1.5C140.6,39.3,140.4,38.8,140,38.3      z"/>
			</g>
			<g>
				<path class="st1" d="M150.6,38.9l0.5,1.3h-1L150.6,38.9z M151,37.8h-0.8c0,0,0,0,0,0l-1.5,4c0,0,0,0,0,0h0.9l0.3-0.8h1.5      l0.3,0.8h0.8c0,0,0.1,0,0,0L151,37.8C151,37.8,151,37.8,151,37.8z"/>
			</g>
			<g>
				<path class="st1" d="M164.3,41.8h-0.8l-2-2.8v2.7c0,0,0,0,0,0c0,0,0,0,0,0h-0.7c0,0,0,0,0,0v-4c0,0,0,0,0,0h0.8l2,2.7v-2.7      c0,0,0,0,0,0h0.7c0,0,0.1,0,0.1,0L164.3,41.8C164.3,41.8,164.3,41.9,164.3,41.8z"/>
			</g>
			<g>
				<path class="st1" d="M174.4,38.9l0.5,1.3h-1L174.4,38.9z M174.8,37.8H174c0,0,0,0,0,0l-1.5,4c0,0,0,0,0,0h0.9l0.3-0.8h1.5      l0.3,0.8h0.8c0,0,0.1,0,0,0L174.8,37.8C174.8,37.8,174.8,37.8,174.8,37.8z"/>
			</g>
		</g>
		<g>
			<g>
				<g>
					<path class="st1" d="M122.2,11.7l15.6,0c0.5,0,0.9,0.4,0.9,0.9c0,0.5-0.4,1-0.9,1h-15.6c-0.5,0-0.9-0.4-0.9-0.9       C121.3,12.1,121.7,11.7,122.2,11.7z"/>
					<path class="st1" d="M137.9,14.2h-15.6c-0.9,0-1.6-0.7-1.6-1.6c0-0.9,0.7-1.6,1.6-1.6l15.6,0c0.9,0,1.6,0.7,1.6,1.6       C139.4,13.5,138.7,14.2,137.9,14.2z M122.2,12.3c-0.2,0-0.3,0.1-0.3,0.3c0,0.2,0.1,0.3,0.3,0.3h15.6c0.2,0,0.3-0.2,0.3-0.3       c0-0.2-0.1-0.3-0.3-0.3L122.2,12.3L122.2,12.3z"/>
				</g>
				<g>
					<path class="st1" d="M127.7,10c-0.5,0-1.1,0.4-1.4,0.9l-11,22.7c-0.3,0.5,0,0.9,0.5,0.9l3.7,0c0.5,0,1.1-0.4,1.4-0.9l11-22.7       c0.3-0.5,0-0.9-0.5-0.9H127.7z"/>
					<path class="st1" d="M115.7,35.2c-0.4,0-0.8-0.2-1-0.5c-0.2-0.4-0.2-0.8,0-1.3l11-22.7c0.4-0.7,1.2-1.3,1.9-1.3h3.7       c0.4,0,0.8,0.2,1,0.5c0.2,0.4,0.2,0.8,0,1.3l-11,22.7c-0.4,0.7-1.2,1.3-1.9,1.3L115.7,35.2L115.7,35.2z M127.7,10.6       c-0.2,0-0.7,0.3-0.8,0.6l-11,22.7c0,0,0,0,0,0.1l3.7,0c0.2,0,0.7-0.3,0.8-0.6l11-22.7c0,0,0,0,0-0.1H127.7z"/>
				</g>
				<g>
					<path class="st1" d="M131.1,17.6L131.1,17.6l0.5-1c0.3-0.5,0.9-0.9,1.4-0.9h3.7c0.5,0,0.7,0.4,0.5,0.9l-0.5,1l0,0"/>
					<path class="st1" d="M131.6,17.8l-1.1-0.5l0.5-1c0.4-0.7,1.2-1.3,1.9-1.3h3.7c0.4,0,0.8,0.2,1,0.5c0.2,0.4,0.2,0.8,0,1.3       l-0.5,1l-1.1-0.5l0.5-1c0,0,0,0,0-0.1l-3.7,0c-0.2,0-0.7,0.3-0.8,0.6L131.6,17.8z"/>
				</g>
				<g>
					<path class="st1" d="M135.7,19.5l-4.1,8.4c-0.3,0.5-0.9,1.2-1.4,1.6l-3.6,2.4c-0.5,0.4-1.4,0.7-1.9,0.7l-12.3,0       c-0.5,0-1.1-0.3-1.3-0.7l-1.2-2.4c-0.2-0.4-0.1-1.1,0.1-1.6l2.8-5.7c0.3-0.5,0.9-1.2,1.4-1.6l3.6-2.4c0.5-0.4,1.4-0.7,1.9-0.7       l20.2,0c0.5,0,1.1,0.3,1.3,0.7l1.3,2.5c0.2,0.4,0.1,1.1-0.1,1.6l-5.5,11.4c-0.3,0.5-0.9,0.9-1.4,0.9l-3.7,0       c-0.5,0-0.7-0.4-0.5-0.9l6.4-13.3c0.3-0.5,0-0.9-0.5-0.9l0,0c0.5,0-1.4,0-2.9,0l-13.6,0c-0.5,0-1.1,0.4-1.4,0.9l-4.6,9.5       c-0.3,0.5,0,0.9,0.5,0.9l8.6,0c0.5,0,1.1-0.4,1.4-0.9l5-10.3"/>
					<path class="st1" d="M131.8,35.2c-0.4,0-0.8-0.2-1-0.5c-0.2-0.4-0.2-0.8,0-1.3l6.4-13.3c0,0,0,0,0-0.1h-1l-4,8.2       c-0.3,0.6-1,1.4-1.6,1.9l-3.6,2.4c-0.6,0.4-1.6,0.8-2.3,0.8l-12.3,0c-0.8,0-1.5-0.4-1.8-1l-1.2-2.4c-0.3-0.6-0.2-1.6,0.1-2.2       l2.8-5.7c0.3-0.6,1-1.4,1.6-1.9l3.6-2.4c0.7-0.4,1.6-0.8,2.3-0.8l20.2,0c0.7,0,1.5,0.4,1.8,1l1.3,2.5c0.3,0.6,0.2,1.6-0.1,2.2       l-5.5,11.4c-0.4,0.7-1.2,1.3-1.9,1.3L131.8,35.2L131.8,35.2z M137.3,18.8c0.4,0,0.7,0.2,0.9,0.5c0.2,0.4,0.2,0.8,0,1.3       l-6.4,13.3c0,0,0,0,0,0.1l3.6,0c0.2,0,0.7-0.3,0.8-0.6l5.5-11.4c0.2-0.4,0.2-0.9,0.1-1.1l-1.3-2.4c-0.1-0.1-0.4-0.3-0.7-0.3       l-20.2,0c-0.4,0-1.1,0.2-1.6,0.6l-3.6,2.4c-0.5,0.3-1,0.9-1.2,1.4l-2.8,5.7c-0.2,0.4-0.2,0.9-0.1,1.1l1.2,2.4       c0.1,0.1,0.4,0.3,0.7,0.3l12.3,0c0.4,0,1.1-0.2,1.6-0.6l3.6-2.4c0.5-0.3,1-0.9,1.2-1.4l3.7-7.6l-4.2,0l-4.9,10.1       c-0.4,0.7-1.2,1.3-1.9,1.3l-8.6,0c-0.4,0-0.8-0.2-1-0.5c-0.2-0.4-0.2-0.8,0-1.3l4.6-9.5c0.4-0.7,1.2-1.3,1.9-1.3L137.3,18.8       L137.3,18.8z M115.2,30.2l8.5,0c0.2,0,0.7-0.3,0.8-0.6l4.6-9.5l-8.5,0c-0.2,0-0.7,0.3-0.8,0.6L115.2,30.2       C115.2,30.1,115.2,30.2,115.2,30.2z"/>
				</g>
			</g>
			<g>
				<g>
					<path class="st1" d="M47.1,21.3c-0.5,0-0.7-0.4-0.5-0.9l2.7-5.7c0.3-0.5,0.9-0.9,1.4-0.9h3.7c0.5,0,0.7,0.4,0.5,0.9l-1.8,3.8       c-0.3,0.5,0,0.9,0.5,0.9h17.7c0.5,0,1.1,0.3,1.3,0.7l1.3,2.5c0.2,0.4,0.1,1.1-0.1,1.6l-2.7,5.7c-0.3,0.5-0.9,1.2-1.4,1.6       l-3.6,2.5c-0.5,0.4-1.4,0.7-1.9,0.7H49.1c-0.5,0-0.9-0.4-0.9-0.9c0-0.5,0.4-1,0.9-1H63c0.5,0,1.1-0.4,1.4-0.9l4.6-9.5       c0.3-0.5,0-0.9-0.5-0.9H47.1z"/>
					<path class="st1" d="M63.9,35.1H49.1c-0.9,0-1.6-0.7-1.6-1.6c0-0.9,0.7-1.6,1.6-1.6H63c0.2,0,0.7-0.3,0.8-0.6l4.6-9.5       c0,0,0,0,0-0.1l-21.4,0c-0.4,0-0.8-0.2-1-0.5c-0.2-0.4-0.2-0.8,0-1.3l2.7-5.7c0.4-0.7,1.2-1.3,1.9-1.3h3.7c0.4,0,0.8,0.2,1,0.5       c0.2,0.4,0.2,0.8,0,1.3l-1.8,3.8c0,0,0,0,0,0.1l17.6,0c0.7,0,1.5,0.4,1.8,1l1.3,2.4c0.3,0.6,0.2,1.6-0.1,2.2l-2.7,5.7       c-0.3,0.6-1,1.4-1.7,1.9l-3.6,2.5C65.6,34.8,64.6,35.1,63.9,35.1z M49.1,33.3c-0.2,0-0.3,0.1-0.3,0.3c0,0.2,0.1,0.3,0.3,0.3       h14.8c0.4,0,1.1-0.2,1.6-0.6l3.6-2.5c0.5-0.3,1-0.9,1.2-1.4l2.7-5.7c0.2-0.4,0.2-0.9,0.1-1.1L72,20.3c-0.1-0.1-0.4-0.3-0.7-0.3       H53.6c-0.4,0-0.8-0.2-1-0.5c-0.2-0.4-0.2-0.8,0-1.3l1.8-3.8c0,0,0,0,0-0.1h-3.6c-0.2,0-0.7,0.3-0.8,0.6l-2.7,5.7c0,0,0,0,0,0.1       h21.4c0.4,0,0.8,0.2,1,0.5c0.2,0.4,0.2,0.8,0,1.3L65,32c-0.4,0.7-1.2,1.3-1.9,1.3H49.1z"/>
				</g>
				<g>
					<path class="st1" d="M61.5,9.9c-0.5,0-1.1,0.4-1.4,0.9l-1.8,3.8c-0.3,0.5,0,0.9,0.5,0.9h3.7c0.5,0,1.1-0.4,1.4-0.9l1.8-3.8       c0.3-0.5,0-0.9-0.5-0.9H61.5z"/>
					<path class="st1" d="M62.5,16.2h-3.7c-0.4,0-0.8-0.2-1-0.5c-0.2-0.4-0.2-0.8,0-1.3l1.8-3.8c0.4-0.7,1.2-1.3,1.9-1.3h3.7       c0.4,0,0.8,0.2,1,0.5c0.2,0.4,0.2,0.8,0,1.3l-1.8,3.8C64.1,15.7,63.3,16.2,62.5,16.2z M58.8,15l3.7,0c0.2,0,0.7-0.3,0.8-0.6       l1.8-3.8c0,0,0,0,0-0.1h-3.7c-0.2,0-0.7,0.3-0.8,0.6L58.8,15C58.8,15,58.8,15,58.8,15z"/>
				</g>
			</g>
			<g>
				<g>
					<path class="st1" d="M24.9,17.7l3.3-6.8c0.3-0.5,0.9-0.9,1.4-0.9h3.7c0.5,0,0.7,0.4,0.5,0.9l-3.3,6.7"/>
					<path class="st1" d="M25.5,18l-1.1-0.5l3.3-6.8c0.4-0.7,1.2-1.3,1.9-1.3h3.7c0.4,0,0.8,0.2,1,0.5c0.2,0.4,0.2,0.8,0,1.3       l-3.3,6.7L30,17.3l3.3-6.7c0,0,0,0,0-0.1h-3.7c-0.2,0-0.7,0.3-0.8,0.6L25.5,18z"/>
				</g>
				<g>
					<path class="st1" d="M17.7,34.5c-0.5,0-1.1-0.3-1.3-0.7l-1.2-2.4c-0.2-0.4-0.1-1.1,0.1-1.6l3.6-7.5c0.3-0.5,0.9-1.2,1.4-1.6       l3.6-2.4c0.5-0.4,1.4-0.7,1.9-0.7h15.7c0.5,0,0.9,0.4,0.9,1c0,0.5-0.4,0.9-0.9,0.9H26.9c-0.5,0-1.1,0.4-1.4,0.9L20,31.7       c-0.3,0.5,0,0.9,0.5,0.9h22.7c0.5,0,0.9,0.4,0.9,1c0,0.5-0.4,0.9-0.9,0.9H17.7z"/>
					<path class="st1" d="M43.2,35.1H17.7c-0.8,0-1.5-0.4-1.8-1l-1.2-2.4c-0.3-0.6-0.2-1.6,0.1-2.2l3.6-7.5c0.3-0.6,1-1.4,1.6-1.9       l3.6-2.4c0.6-0.4,1.6-0.8,2.3-0.8h15.7c0.9,0,1.6,0.7,1.6,1.6c0,0.8-0.7,1.6-1.6,1.6H26.9c-0.2,0-0.7,0.3-0.8,0.6L20.6,32       c0,0,0,0,0,0.1l22.6,0c0.9,0,1.6,0.7,1.6,1.6C44.7,34.4,44,35.1,43.2,35.1z M25.9,18.2c-0.4,0-1.1,0.2-1.6,0.6l-3.6,2.4       c-0.5,0.3-1,0.9-1.2,1.4l-3.6,7.5c-0.2,0.4-0.2,0.9-0.1,1.1l1.2,2.4c0.1,0.1,0.4,0.3,0.7,0.3h25.4c0.2,0,0.3-0.1,0.3-0.3       c0-0.2-0.2-0.3-0.3-0.3H20.5c-0.4,0-0.8-0.2-1-0.5c-0.2-0.4-0.2-0.8,0-1.3l5.5-11.3c0.4-0.7,1.2-1.3,1.9-1.3h14.8       c0.2,0,0.3-0.2,0.3-0.3c0-0.2-0.2-0.3-0.3-0.3H25.9z"/>
				</g>
			</g>
			<g>
				<path class="st1" d="M92.9,29.7c-0.3,0.5-0.9,1.3-1.5,1.6l-3.7,2.5c-0.6,0.4-1.4,0.7-2,0.7h-7.6c-0.5,0-1.1-0.3-1.3-0.7      l-1.2-2.5c-0.2-0.4-0.1-1.1,0.1-1.6l4.9-10.1c0.3-0.5,0.9-1.3,1.5-1.6l3.7-2.5c0.6-0.4,1.4-0.7,2-0.7h19c0.5,0,1.1,0.3,1.3,0.7      l1.3,2.5c0.2,0.4,0.1,1.1-0.1,1.6l-6.8,14c-0.3,0.5-0.9,1-1.4,1h-3.8c-0.5,0-0.7-0.4-0.5-1l7.7-15.9c0.3-0.5,0-1-0.5-1H88.7      c-0.5,0-1.2,0.4-1.4,1l-6.8,14c-0.3,0.5,0,1,0.5,1h3.8c0.5,0,1.2-0.4,1.4-1L91.9,20c0.3-0.5,0.9-1,1.4-1h3.8      c0.5,0,0.7,0.4,0.5,1L92.9,29.7z"/>
				<path class="st1" d="M101,35.2h-3.8c-0.4,0-0.8-0.2-1-0.5c-0.2-0.4-0.2-0.8,0-1.3l7.7-15.9c0,0,0-0.1,0-0.1H88.7      c-0.3,0-0.7,0.3-0.9,0.6l-6.8,14c0,0,0,0.1,0,0.1h3.8c0.3,0,0.7-0.3,0.9-0.6l5.7-11.7c0.4-0.7,1.2-1.3,2-1.3h3.8      c0.4,0,0.8,0.2,1,0.5c0.2,0.4,0.2,0.8,0,1.3L93.4,30c-0.3,0.6-1,1.5-1.7,1.9l-3.7,2.5c-0.7,0.4-1.7,0.8-2.3,0.8h-7.6      c-0.8,0-1.6-0.4-1.8-1l-1.2-2.5c-0.3-0.6-0.2-1.6,0.1-2.2l4.9-10.1c0.3-0.6,1-1.5,1.7-1.9l3.7-2.5c0.7-0.5,1.7-0.8,2.3-0.8h19      c0.8,0,1.6,0.4,1.8,1l1.3,2.5c0.3,0.6,0.2,1.6-0.1,2.2l-6.8,14C102.6,34.6,101.7,35.2,101,35.2z M97.2,34h3.7      c0.3,0,0.7-0.3,0.9-0.6l6.8-14c0.2-0.4,0.2-1,0.1-1.1l-1.3-2.5c-0.1-0.1-0.4-0.3-0.7-0.3h-19c-0.4,0-1.1,0.2-1.6,0.6l-3.7,2.5      c-0.5,0.3-1.1,1-1.3,1.4L76.3,30c-0.2,0.4-0.2,1-0.1,1.1l1.2,2.5c0.1,0.1,0.4,0.3,0.7,0.3h7.6c0.4,0,1.1-0.2,1.6-0.6l3.7-2.5      c0.5-0.3,1.1-1,1.3-1.4l4.8-9.8c0,0,0-0.1,0-0.1h-3.8c-0.3,0-0.7,0.3-0.9,0.6l-5.7,11.7c-0.4,0.7-1.2,1.3-2,1.3H81      c-0.4,0-0.8-0.2-1-0.5c-0.2-0.4-0.2-0.8,0-1.3l6.8-14c0.4-0.7,1.2-1.3,2-1.3H104c0.4,0,0.8,0.2,1,0.5c0.2,0.4,0.2,0.8,0,1.3      L97.2,34C97.3,33.9,97.3,33.9,97.2,34z M97.2,19.6L97.2,19.6L97.2,19.6z"/>
			</g>
			<g>
				<g>
					<path class="st1" d="M160.5,14.9c0.5,0,0.9-0.4,0.9-1c0-0.5-0.4-0.9-0.9-0.9h-12.2c-0.5,0-0.9,0.4-0.9,0.9c0,0.5,0.4,1,0.9,1       H160.5z"/>
					<path class="st1" d="M160.5,15.5h-12.2c-0.9,0-1.6-0.7-1.6-1.6c0-0.9,0.7-1.6,1.6-1.6h12.2c0.9,0,1.6,0.7,1.6,1.6       C162.1,14.8,161.4,15.5,160.5,15.5z M148.3,13.6c-0.2,0-0.3,0.1-0.3,0.3c0,0.2,0.1,0.3,0.3,0.3h12.2c0.2,0,0.3-0.1,0.3-0.3       c0-0.2-0.1-0.3-0.3-0.3H148.3z"/>
				</g>
				<g>
					<path class="st1" d="M174.9,15.2c0.5,0,1.1-0.4,1.4-0.9l1.5-3.1c0.3-0.5,0-0.9-0.5-0.9h-3.7c-0.5,0-1.1,0.4-1.4,0.9l-1.5,3.1       c-0.3,0.5,0,0.9,0.5,0.9H174.9z"/>
					<path class="st1" d="M174.9,15.8h-3.7c-0.4,0-0.8-0.2-1-0.5c-0.2-0.4-0.2-0.8,0-1.3l1.5-3.1c0.4-0.7,1.2-1.3,1.9-1.3h3.7       c0.4,0,0.8,0.2,1,0.5c0.2,0.4,0.2,0.8,0,1.3l-1.5,3.1C176.5,15.3,175.7,15.8,174.9,15.8z M171.3,14.6h3.7       c0.2,0,0.7-0.3,0.8-0.6l1.5-3.1c0,0,0,0,0-0.1l-3.7,0c-0.2,0-0.7,0.3-0.8,0.6L171.3,14.6C171.3,14.6,171.3,14.6,171.3,14.6z"/>
				</g>
				<g>
					<path class="st1" d="M166.4,23.3l0.9-2l0,0l1.4-2.9c0.3-0.5,0.9-0.9,1.4-0.9h3.7c0.5,0,0.7,0.4,0.5,0.9l-1.4,2.9l0,0l-0.9,1.9"/>
					<path class="st1" d="M167,23.5l-1.1-0.5l2.3-4.8c0.4-0.7,1.2-1.3,1.9-1.3h3.7c0.4,0,0.8,0.2,1,0.5c0.2,0.4,0.2,0.8,0,1.3       l-1.4,2.9l-0.9,1.9l-1.1-0.5l0.9-1.9l1.4-2.9c0,0,0,0,0,0l-3.7,0c-0.2,0-0.7,0.3-0.8,0.6L167,23.5z"/>
				</g>
				<g>
					<path class="st1" d="M172,23.2l-3.2,6.6c-0.3,0.5-0.9,1.2-1.4,1.6l-3.6,2.4c-0.5,0.4-1.4,0.7-1.9,0.7h-5.6       c-0.5,0-1.1-0.3-1.3-0.7l-1.2-2.5c-0.2-0.4-0.1-1.1,0.1-1.6l1.8-3.8c0.3-0.5,0.9-1.2,1.4-1.6l3.6-2.4c0.5-0.4,1.4-0.7,1.9-0.7       h12.1c0.5,0,1,0.4,0.9,0.9c0,0.5-0.4,0.9-0.9,0.9h-10.9c-0.7,0-1.4,0.4-1.6,0.9l-3.6,7.6c-0.3,0.5,0,0.9,0.5,0.9h1.9       c0.5,0,1.1-0.4,1.4-0.9l4.1-8.4"/>
					<path class="st1" d="M161.9,35.2h-5.6c-0.7,0-1.5-0.4-1.8-1l-1.2-2.5c-0.3-0.6-0.2-1.6,0.1-2.2l1.8-3.8c0.3-0.6,1-1.4,1.7-1.9       l3.6-2.4c0.7-0.4,1.6-0.8,2.3-0.8h12.1c0.4,0,0.8,0.2,1.1,0.5c0.3,0.3,0.5,0.7,0.5,1.1c0,0.9-0.7,1.6-1.6,1.6h-2.3l-3,6.3       c-0.3,0.6-1,1.4-1.6,1.9l-3.6,2.4C163.5,34.8,162.5,35.2,161.9,35.2z M162.7,21.9c-0.4,0-1.1,0.2-1.6,0.6l-3.6,2.4       c-0.5,0.3-1,0.9-1.2,1.4l-1.8,3.8c-0.2,0.4-0.2,0.9-0.1,1.1l1.2,2.5c0.1,0.1,0.4,0.3,0.7,0.3h5.6c0.4,0,1.1-0.2,1.6-0.6       l3.6-2.4c0.5-0.3,1-1,1.2-1.4l2.8-5.7h-4.2l-4,8.2c-0.4,0.7-1.2,1.3-1.9,1.3h-1.9c-0.4,0-0.8-0.2-1-0.5c-0.2-0.4-0.2-0.8,0-1.3       l3.6-7.6c0.4-0.8,1.2-1.3,2.2-1.3h10.9c0.2,0,0.3-0.1,0.3-0.3c0-0.1-0.1-0.2-0.1-0.2c-0.1-0.1-0.1-0.1-0.2-0.1H162.7z        M159.1,32l1.8,0c0.2,0,0.7-0.3,0.8-0.6l3.7-7.6h-1.6c-0.5,0-0.9,0.3-1.1,0.6L159.1,32C159.1,32,159.1,32,159.1,32z"/>
				</g>
				<g>
					<path class="st1" d="M151.2,21.3c0.5,0,1.1-0.4,1.4-0.9l4.6-9.5c0.3-0.5,0-0.9-0.5-0.9H153c-0.5,0-1.1,0.4-1.4,0.9l-4.6,9.5       c-0.3,0.5,0,0.9,0.5,0.9H151.2z"/>
					<path class="st1" d="M151.2,21.9h-3.7c-0.4,0-0.8-0.2-1-0.5c-0.2-0.4-0.2-0.8,0-1.3l4.6-9.5c0.4-0.7,1.2-1.3,1.9-1.3h3.7       c0.4,0,0.8,0.2,1,0.5c0.2,0.4,0.2,0.8,0,1.3l-4.6,9.5C152.8,21.3,152,21.9,151.2,21.9z M147.5,20.7l3.7,0       c0.2,0,0.7-0.3,0.8-0.6l4.6-9.5c0,0,0,0,0-0.1l-3.7,0c-0.2,0-0.7,0.3-0.8,0.6L147.5,20.7C147.5,20.6,147.5,20.6,147.5,20.7z"/>
				</g>
			</g>
		</g>
	</g>
</g>
</svg>