<svg xmlns="http://www.w3.org/2000/svg" width="494.313" height="95.813"><path d="M288.928 37.962c-6.328 3.87-10.928 4.325-20.26 4.325v10.23c8 0 13.333-.486 17.333-1.167v19.236h10.667v-23.71c5.333-3.36 10.34-2.955 10.34-2.955H310V33.253h-5.877s-8.273.468-15.195 4.708zm-73.595-3.375H266V23.92h-50.667zM396.667 23.92h-12v46.667h12V49.253l36 .008V38.587h-36zM321.28 39.795c-3.872 0-7.02 3.146-7.02 7.023a7.03 7.03 0 0 0 7.019 7.026c3.885 0 7.023-3.147 7.023-7.026a7.02 7.02 0 0 0-7.023-7.023zm-105.947 9.258v.2h22.77C237.588 58.587 218 59.8 218 59.8v11.174c28 0 34.023-19.063 34.73-21.73H266v-12h-50.667zm154.2.927c3.635-6.526 6.157-15.393 6.157-26.06H330v10.667h31.56C356.012 58.587 330 59.4 330 59.4v11.164s18.755.842 32.095-11.607c1.376 1.903 9.24 11.607 18.572 11.607V59.4s-7.624-2.534-11.132-9.42zm114.77-26.06H434v10.667h37.064c-.07 2.667-1.017 11.58-10.988 11.7.38-2.355.595-5.023.595-7.7h-11.547c0 20-15.124 21.1-15.124 21.1v11.037s13.764-.272 21.385-12.21c3.77-.484 20.265-2.85 24.467-12.07 4.865-10.694 4.452-22.526 4.452-22.526zm-424.97 0H10v10.667h38.667V55.5s.684 4.43-3.868 4.43H10v10.667h37.696c13.655 0 11.637-13.647 11.637-13.647zm152 10.667V23.92h-46.667v10.667H165zM162 59.92v10.667h52V59.92h-51.352zM64.667 33.253H114V23.92H64.667zm0 17.87V61.47s14.532.238 20.108 3.143c5.6 2.892 15.892 5.95 29.225 5.95V60.227c-12 0-27.77-6.786-27.77-6.786-8.28-2.898-21.564-2.318-21.564-2.318zm0-13.858v10.336s14.21-.885 24.155 1.594c9.923 2.48 25.18 1.927 25.18 1.927v-10.35c-6.667-.164-17.535-1.303-23.43-2.438-5.42-1.042-25.904-1.07-25.904-1.07zm86.667 17.378v-21.4h-30.667v9.333h20v10.396s.173 6.937-7.065 6.937H118v10.667h41.333V59.92H147.77c2.457 0 3.564-5.277 3.564-5.277" fill="#d72382"/></svg>