<?xml version="1.0" encoding="UTF-8" standalone="no"?>
<!-- Created with Inkscape (http://www.inkscape.org/) -->

<svg
   xmlns:dc="http://purl.org/dc/elements/1.1/"
   xmlns:cc="http://creativecommons.org/ns#"
   xmlns:rdf="http://www.w3.org/1999/02/22-rdf-syntax-ns#"
   xmlns:svg="http://www.w3.org/2000/svg"
   xmlns="http://www.w3.org/2000/svg"
   xmlns:sodipodi="http://sodipodi.sourceforge.net/DTD/sodipodi-0.dtd"
   xmlns:inkscape="http://www.inkscape.org/namespaces/inkscape"
   width="703.13647mm"
   height="467.68234mm"
   viewBox="0 0 2491.4285 1657.1422"
   id="svg2"
   version="1.1"
   inkscape:version="0.91 r13725"
   sodipodi:docname="CNE logo.svg">
  <defs
     id="defs4" />
  <sodipodi:namedview
     id="base"
     pagecolor="#ffffff"
     bordercolor="#666666"
     borderopacity="1.0"
     inkscape:pageopacity="0.0"
     inkscape:pageshadow="2"
     inkscape:zoom="0.0875"
     inkscape:cx="-102.68451"
     inkscape:cy="-719.80555"
     inkscape:document-units="px"
     inkscape:current-layer="layer1"
     showgrid="false"
     fit-margin-top="0"
     fit-margin-left="0"
     fit-margin-right="0"
     fit-margin-bottom="0"
     inkscape:window-width="1280"
     inkscape:window-height="1005"
     inkscape:window-x="1916"
     inkscape:window-y="-4"
     inkscape:window-maximized="1" />
  <metadata
     id="metadata7">
    <rdf:RDF>
      <cc:Work
         rdf:about="">
        <dc:format>image/svg+xml</dc:format>
        <dc:type
           rdf:resource="http://purl.org/dc/dcmitype/StillImage" />
        <dc:title></dc:title>
      </cc:Work>
    </rdf:RDF>
  </metadata>
  <g
     inkscape:label="Camada 1"
     inkscape:groupmode="layer"
     id="layer1"
     transform="translate(1451.4285,3633.3521)">
    <g
       id="g4147"
       transform="translate(-791.95959,-3749.6862)">
      <path
         style="fill:#fdf000"
         d="m 758.20996,1493.7813 c -2.998,-0.5874 -8.0605,-2.7459 -11.25,-4.7966 -7.062,-4.5404 -45.88825,-43.6327 -150.69466,-151.727 -43.86009,-45.236 -80.23063,-82.0797 -80.82341,-81.875 -0.59279,0.2048 -26.8298,24.8864 -58.30449,54.848 -99.34844,94.5725 -150.37574,142.4713 -159.4959,149.717 -5.58667,4.4385 -16.03947,7.0057 -23.72473,5.8268 -2.89084,-0.4435 -8.91231,-2.5356 -13.38106,-4.6492 -7.10391,-3.36 -12.21614,-7.9447 -40.67906,-36.4816 C 193.28352,1398.0015 75.970648,1276.9483 44.418035,1243.6114 l -7.944425,-8.3937 -12.1925,11.5187 c -6.705875,6.3353 -39.682525,38.2639 -73.28145,70.9526 -120.68216,117.4126 -135.44057,131.1285 -145.05416,134.8074 -14.30496,5.4742 -24.84915,2.7496 -41.65979,-10.7647 -14.79345,-11.8927 -93.35114,-92.0379 -201.94171,-206.0227 -43.39479,-45.5504 -55.27581,-58.7482 -57.52172,-63.897 -1.32458,-3.0367 -2.12443,-8.3116 -2.17192,-14.3236 -0.11132,-14.092 3.29934,-20.1905 20.78974,-37.1734 45.61796,-44.2944 354.78227,-339.56411 355.9974,-339.99803 0.79897,-0.28531 0.87745,11.92037 0.22501,35 -1.50808,53.34715 -1.04808,213.29383 0.6771,235.43813 3.4406,44.1635 12.32142,69.4182 30.76935,87.5 16.2747,15.9516 36.381262,24.8887 66.361075,29.4965 5.43275,0.835 60.207387,1.7179 146.113895,2.3553 l 137.42324,1.0195 53.5584,-52.6857 c 29.45713,-28.9771 54.2986,-52.8514 55.2033,-53.054 2.58741,-0.5794 3.24815,11.9808 3.25795,61.9309 l 0.009,45.3125 63.2285,0 63.22851,0 -0.91685,-196.80394 -0.91686,-196.80392 3.51434,-0.88203 c 6.16174,-1.5465 144.81724,0.73385 146.00249,2.40117 0.57225,0.80503 0.71325,97.93244 0.31337,215.83869 l -0.72712,214.37503 68.71712,-69.375 68.71713,-69.375 0.045,49.8895 0.045,49.8896 165.12287,-0.8833 c 113.62378,-0.6079 164.98708,-0.4799 164.68748,0.4103 -0.4444,1.3206 -11.0907,11.5249 -144.2201,138.2328 -146.85625,139.7725 -190.054,180.2624 -194.96525,182.7439 -4.02313,2.0327 -10.83838,2.6421 -16.70075,1.4934 z M 20.53571,1143.7955 c -39.545763,-0.9946 -49.991325,-2.7264 -66.875,-11.0873 -11.985725,-5.9354 -20.651,-13.3101 -29.218375,-24.8669 -8.706362,-11.7442 -13.452362,-22.5186 -15.785475,-35.8362 -2.470037,-14.0993 -4.259425,-109.09053 -4.379675,-232.50003 l -0.08288,-85 42.858175,-42.25258 42.858175,-42.25257 134.602515,0.39678 c 74.03139,0.21821 135.01503,0.80925 135.51918,1.31341 1.1269,1.1269 -6.97087,9.73717 -49.35858,52.48246 l -33.15777,33.4375 -91.796982,0 -91.796988,0 0.7995625,44.0625 c 0.4397625,24.23437 1.096175,83.4375 1.4587125,131.5625 0.3625375,48.125 0.985925,94.95313 1.3853125,104.06253 l 0.72615,16.5625 110.9165325,0 c 130.26651,0 231.55004,1.2069 231.03464,2.7531 -0.20056,0.6017 -20.59044,20.7597 -45.31081,44.7954 l -44.9461,43.7015 -97.53767,-0.235 c -53.645705,-0.1292 -113.006405,-0.624 -131.912655,-1.0996 z m 654.8475,-83.9779 c -0.0838,-46.9219 -0.50563,-130.03128 -0.9375,-184.68753 -0.77888,-98.60194 -0.80587,-99.4139 -3.47588,-104.375 -3.3775,-6.27589 -7.2985,-9.96473 -13.2235,-12.44034 -5.36937,-2.24344 -33.96796,-2.49005 -128.25147,-1.10594 l -56.45126,0.82873 -0.31645,192.60877 -0.31644,192.60881 -37.1875,0.3311 -37.1875,0.3311 0,-236.94631 0,-236.94628 147.8125,0.43942 c 136.21162,0.40494 148.54263,0.61326 157.11575,2.65434 34.38925,8.18734 53.637,27.84165 60.80225,62.08664 1.6775,8.01768 2.04163,30.73485 2.6405,164.76061 l 0.69475,155.46068 -44.83887,44.8518 c -24.66138,24.6685 -45.26363,44.8519 -45.78288,44.8519 -0.51925,0 -1.01262,-38.3907 -1.0965,-85.3125 z m 133.677,81.25 c -0.21975,-1.5469 -0.11875,-87.3371 0.2255,-190.64483 l 0.625,-187.8323 52.26937,-46.2302 52.2695,-46.2302 124.91802,0 c 74.8525,0 124.9181,0.45913 124.9181,1.14555 0,0.63006 -19.5469,20.31456 -43.4375,43.74335 l -43.4375,42.59779 -94.68749,0.006 -94.6875,0.006 0,45.43055 c 0,24.9868 -0.37225,51.51432 -0.82725,58.95005 l -0.82713,13.51951 125.40877,-0.51256 c 90.0046,-0.36785 125.5377,-0.12695 125.8659,0.85332 0.2513,0.75123 -15.5479,17.96051 -35.1093,38.24286 l -35.5662,36.87699 -88.51704,0.90591 c -48.68438,0.49825 -88.5875,1.00772 -88.67388,1.13214 -0.0862,0.12438 -0.51925,22.5856 -0.96212,49.91377 l -0.80525,49.6875 174.48589,0 c 139.025,0 174.3832,0.3175 173.9806,1.5625 -0.2779,0.8593 -21.5591,21.3555 -47.2916,45.547 l -46.7864,43.9845 -166.47549,0.078 -166.47563,0.078 -0.39937,-2.8125 z m -546.0245,-114.3829 c -18.21875,-0.2093 -79.53125,-0.7854 -136.25,-1.2801 l -103.125,-0.8995 -0.914475,-8.75 c -0.50295,-4.8125 -1.06545,-59.37503 -1.25,-121.25003 l -0.335525,-112.5 83.56964,-0.0216 83.56964,-0.0216 63.54365,-67.47839 63.54365,-67.47838 -46.48829,-0.76282 c -25.56856,-0.41955 -70.16185,-0.84142 -99.09621,-0.9375 -73.049068,-0.24254 -146.76708,-1.64311 -146.76708,-2.78842 0,-1.21209 299.48672,-289.41697 319.28675,-307.25902 13.0401,-11.75061 16.50601,-13.24531 30.71325,-13.24531 10.08589,0 12.71087,0.44514 17.42298,2.95458 6.71521,3.57619 7.00928,3.87198 125.70425,126.43796 52.25123,53.9553 95.56373,98.22394 96.25,98.37475 1.20367,0.26453 133.03089,-122.3468 188.16527,-175.01081 26.99413,-25.7846 39.84075,-36.92795 46.8325,-40.62312 2.33037,-1.23159 7.06263,-2.01187 12.5,-2.06108 7.41425,-0.0671 9.70413,0.46525 15,3.48704 4.04587,2.30855 21.45862,18.84226 49.375,46.88218 45.92287,46.12616 133.63059,135.7111 163.98159,167.49129 l 18.3268,19.1897 97.9082,-93.01516 c 53.8497,-51.15835 102.5974,-97.31381 108.3283,-102.56769 14.1009,-12.92704 19.167,-15.29655 32.7051,-15.29655 18.3038,0 21.3593,2.38842 70.8465,55.37792 19.0676,20.41714 41.1674,43.87208 49.1106,52.12208 56.9389,59.13819 130.9852,135.3672 145.7049,150 21.4216,21.29501 24.763,26.90623 24.6135,41.33467 -0.1417,13.67991 -3.8464,20.90092 -17.5271,34.1634 -11.7836,11.42342 -149.595,143.98231 -272.7484,262.35287 l -76.875,73.88944 -178.125,-0.2452 -178.12499,-0.2452 0,-25 0,-24.99998 85.0325,-0.32109 85.03249,-0.32109 54.655,-62.37685 c 30.0603,-34.30726 54.655,-62.56902 54.6551,-62.80391 0,-0.23489 -62.4375,-0.2301 -138.75,0.01 l -138.75009,0.4383 0,-33.67457 0,-33.67458 32.8125,-0.82305 c 18.04687,-0.45267 57.08659,-0.8242 86.75499,-0.8256 l 53.9425,-0.002 68.1759,-68.4375 c 64.1215,-64.36759 67.9756,-68.48446 64.8075,-69.22711 -1.8526,-0.43428 -73.4753,-0.85615 -159.1615,-0.9375 l -155.79314,-0.14795 -56.28663,50.121 c -30.95762,27.56654 -56.757,50.0843 -57.33187,50.03945 -0.57487,-0.0449 -1.67162,-4.8084 -2.43725,-10.58569 -3.288,-24.81016 -11.0735,-41.43795 -26.72387,-57.07476 -13.91563,-13.90372 -25.24163,-19.94568 -49.38413,-26.34449 -9.044,-2.39705 -14.95925,-2.74754 -61.875,-3.66618 -28.53125,-0.55867 -102.57341,-1.37188 -164.53814,-1.80714 l -112.66312,-0.7914 -0.98551,63.49211 c -0.54203,34.92065 -1.03112,121.14835 -1.08687,191.6171 l -0.10136,128.12498 -38.125,0.03 c -20.96875,0.016 -53.03125,-0.1412 -71.25,-0.3505 z"
         id="path4155"
         inkscape:connector-curvature="0" />
      <path
         style="fill:#ea1923"
         d="m 758.20996,1493.7813 c -2.998,-0.5874 -8.0605,-2.7459 -11.25,-4.7966 -7.062,-4.5404 -45.88825,-43.6327 -150.69466,-151.727 -43.86009,-45.236 -80.23063,-82.0797 -80.82341,-81.875 -0.59279,0.2048 -26.8298,24.8864 -58.30449,54.848 -99.34844,94.5725 -150.37574,142.4713 -159.4959,149.717 -5.58667,4.4385 -16.03947,7.0057 -23.72473,5.8268 -2.89084,-0.4435 -8.91231,-2.5356 -13.38106,-4.6492 -7.10391,-3.36 -12.21614,-7.9447 -40.67906,-36.4816 -29.64315,-29.7202 -124.797877,-127.9612 -195.757065,-202.1065 -35.848675,-37.4582 -40.966037,-44.8264 -35.163175,-50.6293 2.0160375,-2.016 10.602675,-2.109 137.12939,-1.4844 l 134.97867,0.6662 53.53975,-52.6673 c 29.44687,-28.967 54.27995,-52.8331 55.18465,-53.0357 2.58742,-0.5794 3.24815,11.9808 3.25795,61.9309 l 0.009,45.3125 63.2285,0 63.22851,0 -0.91685,-196.80394 -0.91686,-196.80392 3.51434,-0.88203 c 6.16174,-1.5465 144.81724,0.73385 146.00249,2.40117 0.57225,0.80503 0.71325,97.93244 0.31337,215.83869 l -0.72712,214.37503 68.71712,-69.375 68.71713,-69.375 0.045,49.8895 0.045,49.8896 165.12287,-0.8833 c 113.62378,-0.6079 164.98708,-0.4799 164.68748,0.4103 -0.4444,1.3206 -11.0907,11.5249 -144.2201,138.2328 -146.85625,139.7725 -190.054,180.2624 -194.96525,182.7439 -4.02313,2.0327 -10.83838,2.6421 -16.70075,1.4934 z M 20.53571,1143.7955 c -39.545763,-0.9946 -49.991325,-2.7264 -66.875,-11.0873 -11.985725,-5.9354 -20.651,-13.3101 -29.218375,-24.8669 -8.706362,-11.7442 -13.452362,-22.5186 -15.785475,-35.8362 -2.470037,-14.0993 -4.259425,-109.09053 -4.379675,-232.50003 l -0.08288,-85 42.858175,-42.25258 42.858175,-42.25257 134.602515,0.39678 c 74.03139,0.21821 135.01503,0.80925 135.51918,1.31341 1.1269,1.1269 -6.97087,9.73717 -49.35858,52.48246 l -33.15777,33.4375 -91.796982,0 -91.796988,0 0.7995625,44.0625 c 0.4397625,24.23437 1.096175,83.4375 1.4587125,131.5625 0.3625375,48.125 0.985925,94.95313 1.3853125,104.06253 l 0.72615,16.5625 110.9165325,0 c 130.26651,0 231.55004,1.2069 231.03464,2.7531 -0.20056,0.6017 -20.59044,20.7597 -45.31081,44.7954 l -44.9461,43.7015 -97.53767,-0.235 c -53.645705,-0.1292 -113.006405,-0.624 -131.912655,-1.0996 z m 654.8475,-83.9779 c -0.0838,-46.9219 -0.50563,-130.03128 -0.9375,-184.68753 -0.77888,-98.60194 -0.80587,-99.4139 -3.47588,-104.375 -3.3775,-6.27589 -7.2985,-9.96473 -13.2235,-12.44034 -5.36937,-2.24344 -33.96796,-2.49005 -128.25147,-1.10594 l -56.45126,0.82873 -0.31645,192.60877 -0.31644,192.60881 -37.1875,0.3311 -37.1875,0.3311 0,-236.94631 0,-236.94628 147.8125,0.43942 c 136.21162,0.40494 148.54263,0.61326 157.11575,2.65434 34.38925,8.18734 53.637,27.84165 60.80225,62.08664 1.6775,8.01768 2.04163,30.73485 2.6405,164.76061 l 0.69475,155.46068 -44.83887,44.8518 c -24.66138,24.6685 -45.26363,44.8519 -45.78288,44.8519 -0.51925,0 -1.01262,-38.3907 -1.0965,-85.3125 z m 133.677,81.25 c -0.21975,-1.5469 -0.11875,-87.3371 0.2255,-190.64483 l 0.625,-187.8323 52.26937,-46.2302 52.2695,-46.2302 124.91802,0 c 74.8525,0 124.9181,0.45913 124.9181,1.14555 0,0.63006 -19.5469,20.31456 -43.4375,43.74335 l -43.4375,42.59779 -94.68749,0.006 -94.6875,0.006 0,45.43055 c 0,24.9868 -0.37225,51.51432 -0.82725,58.95005 l -0.82713,13.51951 125.40877,-0.51256 c 90.0046,-0.36785 125.5377,-0.12695 125.8659,0.85332 0.2513,0.75123 -15.5479,17.96051 -35.1093,38.24286 l -35.5662,36.87699 -88.51704,0.90591 c -48.68438,0.49825 -88.5875,1.00772 -88.67388,1.13214 -0.0862,0.12438 -0.51925,22.5856 -0.96212,49.91377 l -0.80525,49.6875 174.48589,0 c 139.025,0 174.3832,0.3175 173.9806,1.5625 -0.2779,0.8593 -21.5591,21.3555 -47.2916,45.547 l -46.7864,43.9845 -166.47549,0.078 -166.47563,0.078 -0.39937,-2.8125 z M 210.05308,1026.2628 c -47.4957,-0.5367 -86.60912,-1.4745 -87.22598,-2.0913 -1.23981,-1.2399 245.50331,-237.16643 248.03979,-237.16643 1.21437,0 1.54382,25.60759 1.54382,120 l 0,120.00003 -38.125,0.1153 c -20.96875,0.063 -76.87344,-0.3224 -124.23262,-0.8576 z m 702.28976,-0.2337 c -0.33788,-0.8806 -0.46088,-12.2712 -0.27325,-25.3125 l 0.34112,-23.71153 85.0325,-0.32109 85.03249,-0.32109 54.655,-62.37685 c 30.0603,-34.30726 54.655,-62.56902 54.6551,-62.80391 0,-0.23489 -62.4375,-0.2301 -138.75,0.01 l -138.75009,0.4383 0,-33.67457 0,-33.67458 32.8125,-0.82305 c 18.04687,-0.45267 57.08659,-0.8242 86.75499,-0.8256 l 53.9425,-0.002 68.1759,-68.4375 c 64.1215,-64.36759 67.9756,-68.48446 64.8075,-69.22711 -1.8526,-0.43428 -73.4753,-0.85615 -159.1615,-0.9375 l -155.79314,-0.14795 -56.50175,50.3125 c -31.07587,27.67187 -56.87525,50.18962 -57.33188,50.03946 -0.4565,-0.15017 -1.45649,-4.99991 -2.22212,-10.7772 -3.288,-24.81016 -11.0735,-41.43795 -26.72388,-57.07476 -13.90925,-13.89728 -25.19187,-19.91839 -49.38412,-26.35441 -8.90125,-2.36808 -15.08163,-2.77391 -56.25,-3.69372 -25.4375,-0.56833 -68.04688,-1.07126 -94.6875,-1.11759 -28.13543,-0.049 -48.4375,-0.56014 -48.4375,-1.21963 0,-0.62444 15.89062,-15.97763 35.3125,-34.11819 19.42187,-18.14056 74.6875,-69.75582 122.8125,-114.70057 48.125,-44.94477 102.6875,-96.19383 121.25,-113.8868 33.383,-31.8193 46.46575,-43.29409 53.75,-47.14382 2.33037,-1.23159 7.06262,-2.01187 12.5,-2.06108 7.41425,-0.0671 9.70412,0.46525 15,3.48704 4.04587,2.30855 21.45862,18.84226 49.375,46.88218 45.92287,46.12616 133.63059,135.7111 163.98159,167.49129 l 18.3268,19.1897 97.9082,-93.01516 c 53.8497,-51.15835 102.5974,-97.31381 108.3283,-102.56769 14.1009,-12.92704 19.167,-15.29655 32.7051,-15.29655 18.3038,0 21.3593,2.38842 70.8465,55.37792 19.0676,20.41714 41.1674,43.87208 49.1106,52.12208 56.9389,59.13819 130.9852,135.3672 145.7049,150 21.4216,21.29501 24.763,26.90623 24.6135,41.33467 -0.1417,13.67991 -3.8464,20.90092 -17.5271,34.1634 -11.9384,11.57352 -152.1615,146.45074 -272.7484,262.35007 l -76.875,73.88669 -177.8517,0.07 c -143.45941,0.057 -177.97054,-0.2395 -178.46616,-1.5309 z"
         id="path4153"
         inkscape:connector-curvature="0" />
      <path
         style="fill:#005894"
         d="m 269.1974,1464.6709 c -11.14195,-3.0042 -17.73517,-8.3331 -48.74885,-39.4005 -61.3791,-61.4854 -222.5712525,-229.4115 -228.5416775,-238.0892 -5.0907755,-7.3992 -6.0639755,-12.1797 -3.0857875,-15.1579 2.1683875,-2.1684 8.0823875,-2.2374 137.244715,-1.5998 l 134.97867,0.6662 53.53975,-52.6673 c 29.44686,-28.967 54.27995,-52.8331 55.18465,-53.0357 2.58741,-0.5794 3.24815,11.9808 3.25795,61.9309 l 0.009,45.3125 63.2285,0 63.22851,0 -0.91685,-196.80394 -0.91686,-196.80392 3.51434,-0.88203 c 6.16897,-1.54833 144.83249,0.73387 145.89299,2.40117 1.078,1.6946 0.97662,205.19426 -0.14476,290.79692 l -0.76087,58.0833 -63.75,60.9837 c -35.0625,33.541 -67.6875,64.8375 -72.5,69.5478 -20.65721,20.2182 -146.40565,139.3767 -183.76479,174.1345 -29.76291,27.6905 -31.82948,29.3106 -39.47864,30.9511 -7.68298,1.6477 -10.19046,1.5949 -17.46988,-0.3678 z M 20.53571,1143.7955 c -39.545763,-0.9946 -49.991325,-2.7264 -66.875,-11.0873 -11.985725,-5.9354 -20.651,-13.3101 -29.218375,-24.8669 -8.706362,-11.7442 -13.452362,-22.5186 -15.785475,-35.8362 -2.470037,-14.0993 -4.259425,-109.09053 -4.379675,-232.50003 l -0.08288,-85 42.858175,-42.25258 42.858175,-42.25257 134.602515,0.39678 c 74.03139,0.21821 135.01503,0.80925 135.51918,1.31341 1.1269,1.1269 -6.97087,9.73717 -49.35858,52.48246 l -33.15777,33.4375 -91.796982,0 -91.796988,0 0.7995625,44.0625 c 0.4397625,24.23437 1.096175,83.4375 1.4587125,131.5625 0.3625375,48.125 0.985925,94.95313 1.3853125,104.06253 l 0.72615,16.5625 110.9165325,0 c 130.26651,0 231.55004,1.2069 231.03464,2.7531 -0.20056,0.6017 -20.59044,20.7597 -45.31081,44.7954 l -44.9461,43.7015 -97.53767,-0.235 c -53.645705,-0.1292 -113.006405,-0.624 -131.912655,-1.0996 z m 654.8475,-83.9779 c -0.0838,-46.9219 -0.50563,-130.03128 -0.9375,-184.68753 -0.77888,-98.60194 -0.80587,-99.4139 -3.47588,-104.375 -3.3775,-6.27589 -7.2985,-9.96473 -13.2235,-12.44034 -5.36937,-2.24344 -33.96796,-2.49005 -128.25147,-1.10594 l -56.45126,0.82873 -0.31645,192.60877 -0.31644,192.60881 -37.1875,0.3311 -37.1875,0.3311 0,-236.94631 0,-236.94628 147.8125,0.43942 c 136.21162,0.40494 148.54263,0.61326 157.11575,2.65434 34.38925,8.18734 53.637,27.84165 60.80225,62.08664 1.6775,8.01768 2.04163,30.73485 2.6405,164.76061 l 0.69475,155.46068 -44.83887,44.8518 c -24.66138,24.6685 -45.26363,44.8519 -45.78288,44.8519 -0.51925,0 -1.01262,-38.3907 -1.0965,-85.3125 z m 133.677,81.25 c -0.21975,-1.5469 -0.11875,-87.3371 0.2255,-190.64483 l 0.625,-187.8323 52.26937,-46.2302 52.2695,-46.2302 124.91802,0 c 74.8525,0 124.9181,0.45913 124.9181,1.14555 0,0.63006 -19.5469,20.31456 -43.4375,43.74335 l -43.4375,42.59779 -94.68749,0.006 -94.6875,0.006 0,45.43055 c 0,24.9868 -0.37225,51.51432 -0.82725,58.95005 l -0.82713,13.51951 125.40877,-0.51256 c 90.0046,-0.36785 125.5377,-0.12695 125.8659,0.85332 0.2513,0.75123 -15.5479,17.96051 -35.1093,38.24286 l -35.5662,36.87699 -88.51704,0.90591 c -48.68438,0.49825 -88.5875,1.00772 -88.67388,1.13214 -0.0862,0.12438 -0.51925,22.5856 -0.96212,49.91377 l -0.80525,49.6875 174.48589,0 c 139.025,0 174.3832,0.3175 173.9806,1.5625 -0.2779,0.8593 -21.5591,21.3555 -47.2916,45.547 l -46.7864,43.9845 -166.47549,0.078 -166.47563,0.078 -0.39937,-2.8125 z M 210.05308,1026.2628 c -47.3592,-0.5351 -86.60042,-1.4658 -87.20273,-2.0681 -1.2059,-1.2059 245.58791,-237.18963 248.05493,-237.18963 1.16345,0 1.50543,27.25979 1.50543,120 l 0,120.00003 -38.125,0.1153 c -20.96875,0.063 -76.87344,-0.3224 -124.23262,-0.8576 z m 704.23263,-208.43212 0,-33.5494 32.8125,-0.82305 c 44.29075,-1.11096 58.15929,-1.03972 58.98899,0.30299 0.5804,0.93896 -16.65049,17.23307 -65.81049,62.23284 l -5.88388,5.38601 -10.05362,0 -10.0535,0 0,-33.54939 z m -122.834,-73.53561 c -0.33463,-0.572 -1.01825,-4.9775 -1.51925,-9.79 -2.43925,-23.4311 -11.26963,-42.5205 -26.88762,-58.125 -13.90926,-13.89728 -25.19188,-19.91839 -49.38413,-26.35441 -8.90125,-2.36808 -15.08163,-2.77391 -56.25,-3.69372 -25.4375,-0.56833 -68.04688,-1.07126 -94.6875,-1.11759 -27.69739,-0.0482 -48.4375,-0.5645 -48.4375,-1.20583 0,-0.61685 24.04687,-23.57053 53.4375,-51.00816 143.95962,-134.39366 194.95387,-182.17671 225.9375,-211.71005 33.38225,-31.81963 46.46525,-43.29493 53.75,-47.14497 2.33037,-1.23159 7.06263,-2.01187 12.5,-2.06108 7.41425,-0.0671 9.70413,0.46525 15,3.48705 14.657,8.36322 264.08589,264.28276 271.52729,278.59289 4.2017,8.08015 3.8403,16.53865 -1.02,23.87657 l -3.8679,5.8393 -117.8746,0 -117.87467,0 -53.57,47.6522 c -29.46362,26.20871 -55.05525,49.03609 -56.8705,50.7275 -1.81524,1.69141 -3.57412,2.6073 -3.90862,2.0353 z"
         id="path4151"
         inkscape:connector-curvature="0" />
      <path
         style="fill:#101213"
         d="m 514.28571,1252.5908 c 0,-0.6659 0.84375,-1.2107 1.875,-1.2107 1.03125,0 1.875,0.221 1.875,0.4912 0,0.2702 -0.84375,0.8151 -1.875,1.2108 -1.03125,0.3957 -1.875,0.1747 -1.875,-0.4913 z m 17.5,-14.3357 c 1.61469,-1.7188 3.21704,-3.125 3.56079,-3.125 0.34375,0 -0.6961,1.4062 -2.31079,3.125 -1.61469,1.7187 -3.21704,3.125 -3.56079,3.125 -0.34375,0 0.6961,-1.4063 2.31079,-3.125 z m -501.921988,-9.6875 -6.203012,-6.5625 6.5625,6.203 c 6.097987,5.7639 7.13575,6.922 6.203012,6.922 -0.197725,0 -3.15085,-2.9532 -6.5625,-6.5625 z m 530.046988,-17.1875 c 1.24436,-1.375 2.54372,-2.5 2.88747,-2.5 0.34375,0 -0.39311,1.125 -1.63747,2.5 -1.24436,1.375 -2.54373,2.5 -2.88748,2.5 -0.34375,0 0.39312,-1.125 1.63748,-2.5 z m -556.3088125,-10.3125 -4.9411875,-5.3125 5.3125,4.9412 c 4.940575,4.5952 5.8869125,5.6838 4.9411875,5.6838 -0.204225,0 -2.59485,-2.3907 -5.3125,-5.3125 z m -16.6188245,-24.6875 c 0,-1.7188 0.283725,-2.4219 0.630487,-1.5625 0.346762,0.8593 0.346762,2.2656 0,3.125 -0.346762,0.8593 -0.630487,0.1562 -0.630487,-1.5625 z m 86.677637,-32.5777 c -91.446438,-0.858 -91.747225,-0.8791 -111.769212,-7.8421 -12.220213,-4.2497 -19.734401,-9.3828 -30.521525,-20.8495 -10.724238,-11.4 -18.789651,-25.7683 -21.569,-38.4247 -3.085675,-14.0513 -4.155726,-63.9877 -4.211963,-196.56293 l -0.0533,-125.63189 42.371075,-42.35732 42.371075,-42.35734 134.81643,0.92224 c 74.14903,0.50723 135.03477,1.13323 135.30163,1.39111 0.26688,0.25787 -17.87662,19.25525 -40.31886,42.21639 l -40.80409,41.74752 -92.181135,0.91958 c -50.699612,0.50576 -92.390725,1.11687 -92.6469,1.35804 -0.4154,0.39103 2.3953625,294.6016 2.8196875,295.1454 0.09525,0.122 77.3701375,0.6311 171.7220875,1.1313 94.35195,0.5002 171.549,1.0189 171.549,1.1527 0,0.2807 -42.75986,42.4202 -71.37704,70.3414 l -19.50204,19.0278 -45.49796,-0.2651 c -25.02387,-0.1458 -83.74796,-0.624 -130.49796,-1.0626 z m 602.75713,0.5432 c -0.48513,-0.4852 -0.93938,-63.9291 -1.00925,-140.9864 -0.07,-77.05726 -0.49175,-160.11782 -0.9375,-184.57901 l -0.81038,-44.47487 -3.75663,-6.15013 c -2.74524,-4.49447 -5.43737,-6.99138 -10,-9.27512 l -6.24337,-3.125 -60.625,0.46884 c -33.34375,0.25785 -74.125,0.82035 -90.625,1.25 l -30,0.78116 -0.31645,192.8125 -0.31646,192.81253 -36.87428,0 -36.87428,0 0.31573,-236.56253 0.31574,-236.5625 124.375,-0.34441 c 167.05287,-0.4626 182.22788,0.37607 202.8925,11.21322 11.52825,6.04582 24.43025,19.4385 30.0935,31.23798 9.28813,19.35212 8.74788,8.4375 9.1765,185.39321 l 0.3845,158.75003 -44.14137,44.1113 c -24.27775,24.2612 -44.53825,43.7143 -45.0235,43.2292 z m 132.93687,-190.77803 0.0688,-190.3125 51.7435,-45.625 51.7435,-45.625 18.49988,-0.68357 c 34.20175,-1.26378 233.12391,-1.3085 232.67551,-0.0524 -0.234,0.65572 -19.8688,20.29002 -43.633,43.6318 l -43.2076,42.43958 -94.39891,-0.6657 -94.399,-0.66569 -0.82913,44.24795 c -0.456,24.33638 -0.82987,51.13859 -0.831,59.56046 l 0,15.3125 125.72914,0 c 73.262,0 125.5554,0.46585 125.3125,1.11635 -1.0605,2.8414 -70.7117,74.04085 -72.9166,74.53741 -1.375,0.30966 -41.1254,0.71113 -88.33417,0.89214 -47.20875,0.181 -86.15262,0.64797 -86.54199,1.03773 -0.38926,0.38973 -0.85763,23.09082 -1.04088,50.44687 l -0.333,49.7383 173.32234,-0.2015 c 105.095,-0.1222 173.6036,0.2537 174.037,0.955 0.3931,0.636 -20.7804,21.1975 -47.0522,45.6921 l -47.7683,44.5357 -165.95772,0 -165.95762,0 0.0688,-190.31255 z m -678.819,60.93753 c 3.73428,-3.7813 7.07085,-6.875 7.4146,-6.875 0.34375,0 -2.43032,3.0937 -6.1646,6.875 -3.73428,3.7812 -7.07085,6.875 -7.4146,6.875 -0.34375,0 2.43032,-3.0938 6.1646,-6.875 z m 28.125,-26.87503 c 3.38581,-3.4375 6.43727,-6.25 6.78102,-6.25 0.34375,0 -2.14521,2.8125 -5.53102,6.25 -3.38581,3.4375 -6.43728,6.25 -6.78103,6.25 -0.34374,0 2.14522,-2.8125 5.53103,-6.25 z m 26.875,-25.625 c 3.73428,-3.78125 7.07085,-6.875 7.4146,-6.875 0.34375,0 -2.43032,3.09375 -6.1646,6.875 -3.73428,3.78125 -7.07085,6.875 -7.4146,6.875 -0.34375,0 2.43032,-3.09375 6.1646,-6.875 z m 26.25,-25 c 3.73428,-3.78125 7.07085,-6.875 7.4146,-6.875 0.34375,0 -2.43032,3.09375 -6.1646,6.875 -3.73428,3.78125 -7.07085,6.875 -7.4146,6.875 -0.34375,0 2.43032,-3.09375 6.1646,-6.875 z m 26.25,-25 c 4.42903,-4.46875 8.33403,-8.125 8.67777,-8.125 0.34375,0 -2.99874,3.65625 -7.42777,8.125 -4.42903,4.46875 -8.33403,8.125 -8.67778,8.125 -0.34375,0 2.99875,-3.65625 7.42778,-8.125 z m 27.5,-26.25 c 3.73428,-3.78125 7.07085,-6.875 7.4146,-6.875 0.34375,0 -2.43032,3.09375 -6.1646,6.875 -3.73428,3.78125 -7.07085,6.875 -7.4146,6.875 -0.34375,0 2.43032,-3.09375 6.1646,-6.875 z m 27.5,-26.25 c 3.73428,-3.78125 7.07085,-6.875 7.4146,-6.875 0.34375,0 -2.43032,3.09375 -6.1646,6.875 -3.73428,3.78125 -7.07085,6.875 -7.4146,6.875 -0.34375,0 2.43032,-3.09375 6.1646,-6.875 z m 641.35413,-9.70082 c 0.28649,-0.17921 1.92712,-1.44483 3.64587,-2.8125 l 3.125,-2.48668 -2.38125,2.8125 c -1.30963,1.54687 -2.95025,2.8125 -3.64588,2.8125 -0.69549,0 -1.03012,-0.14662 -0.74374,-0.32582 z m 16.77087,-14.67418 c 2.68525,-2.75 5.16363,-5 5.50737,-5 0.34376,0 -1.57212,2.25 -4.25737,5 -2.68525,2.75 -5.16363,5 -5.50737,5 -0.34376,0 1.57212,-2.25 4.25737,-5 z m -630.67724,-1.5625 c 3.06501,-3.26563 5.73689,-5.9375 5.9375,-5.9375 0.9386,0 -0.0538,1.12229 -5.57276,6.30224 l -5.9375,5.57276 5.57276,-5.9375 z m 645.05224,-11.5625 c 2.33225,-2.40625 4.52162,-4.375 4.86537,-4.375 0.34376,0 -1.28312,1.96875 -3.61537,4.375 -2.33225,2.40625 -4.52162,4.375 -4.86537,4.375 -0.34376,0 1.28312,-1.96875 3.61537,-4.375 z m -618.75,-13.75 c 3.73428,-3.78125 7.07085,-6.875 7.4146,-6.875 0.34375,0 -2.43032,3.09375 -6.1646,6.875 -3.73428,3.78125 -7.07085,6.875 -7.4146,6.875 -0.34375,0 2.43032,-3.09375 6.1646,-6.875 z m 635,-1.25 c 2.33225,-2.40625 4.52162,-4.375 4.86537,-4.375 0.34376,0 -1.28312,1.96875 -3.61537,4.375 -2.33225,2.40625 -4.52162,4.375 -4.86537,4.375 -0.34376,0 1.28312,-1.96875 3.61537,-4.375 z m 15,-13.75 c 2.33225,-2.40625 4.52159,-4.375 4.86539,-4.375 0.3437,0 -1.2831,1.96875 -3.61539,4.375 -2.33225,2.40625 -4.52162,4.375 -4.86537,4.375 -0.34376,0 1.28312,-1.96875 3.61537,-4.375 z M 1143.0357,639.65812 c 0,-0.25956 0.9844,-1.24394 2.1875,-2.1875 1.9826,-1.55484 2.0268,-1.51063 0.472,0.47195 -1.633,2.08219 -2.6595,2.74435 -2.6595,1.71555 z m -619.37499,-5.77805 c 2.6853,-2.75 5.16362,-5 5.50737,-5 0.34375,0 -1.57207,2.25 -4.25737,5 -2.6853,2.75 -5.16362,5 -5.50737,5 -0.34375,0 1.57207,-2.25 4.25737,-5 z m 18.75,-17.5 c 2.6853,-2.75 5.16362,-5 5.50737,-5 0.34375,0 -1.57207,2.25 -4.25737,5 -2.6853,2.75 -5.16362,5 -5.50737,5 -0.34375,0 1.57207,-2.25 4.25737,-5 z m 597.42139,-10.3125 -3.6714,-4.0625 4.0625,3.67136 c 3.7869,3.42223 4.6371,4.45364 3.6714,4.45364 -0.2151,0 -2.0433,-1.82813 -4.0625,-4.0625 z m -578.67139,-7.1875 c 2.6853,-2.75 5.16362,-5 5.50737,-5 0.34375,0 -1.57207,2.25 -4.25737,5 -2.6853,2.75 -5.16362,5 -5.50737,5 -0.34375,0 1.57207,-2.25 4.25737,-5 z m 566.87499,-5.625 c -3.0362,-3.09375 -5.2392,-5.625 -4.8955,-5.625 0.3438,0 3.1093,2.53125 6.1455,5.625 3.0363,3.09375 5.2393,5.625 4.8955,5.625 -0.3437,0 -3.1092,-2.53125 -6.1455,-5.625 z m -548.12499,-11.875 c 2.6853,-2.75 5.16362,-5 5.50737,-5 0.34375,0 -1.57207,2.25 -4.25737,5 -2.6853,2.75 -5.16362,5 -5.50737,5 -0.34375,0 1.57207,-2.25 4.25737,-5 z m 531.19109,-6.5625 -4.9411,-5.3125 5.3125,4.94119 c 2.9219,2.71765 5.3125,5.10827 5.3125,5.3125 0,0.94572 -1.0886,-6.1e-4 -5.6839,-4.94119 z m -513.06609,-10.3125 c 2.33222,-2.40625 4.52166,-4.375 4.86541,-4.375 0.34375,0 -1.28319,1.96875 -3.61541,4.375 -2.33222,2.40625 -4.52166,4.375 -4.86541,4.375 -0.34375,0 1.28319,-1.96875 3.61541,-4.375 z"
         id="path4149"
         inkscape:connector-curvature="0" />
    </g>
  </g>
</svg>
