<svg width="1000" height="249.033" viewBox="0 0 264.583 65.89" version="1.1" id="svg5" xml:space="preserve" xmlns="http://www.w3.org/2000/svg"><g id="layer1" transform="translate(-422.818 -413.852)"><g id="g1216"><path id="path368" style="stroke:none;stroke-width:.264584;fill:#d60812;fill-opacity:1" d="M627.497 421.773h-34.471a2.778 2.778 0 0 0-2.814 2.814v4.22a2.778 2.778 0 0 0 2.814 2.815h34.47a2.778 2.778 0 0 0 2.815-2.814v-4.397c0-1.407-1.231-2.638-2.814-2.638z"/><path id="path364" style="stroke:none;stroke-width:.264584;fill:#d60812;fill-opacity:1" d="M505.09 420.542c-14.423 0-26.206 11.783-26.206 26.205 0 14.421 11.783 26.205 26.205 26.205 14.422 0 26.205-11.784 26.205-26.205 0-14.422-11.783-26.205-26.205-26.205zm0 42.737c-9.146 0-16.533-7.387-16.533-16.532 0-9.146 7.387-16.356 16.532-16.356s16.532 7.386 16.532 16.532c0 9.145-7.562 16.356-16.532 16.356z"/><path id="path360" style="stroke:none;stroke-width:.264584;fill:#d60812;fill-opacity:1" d="M578.604 427.225c-3.517-3.518-8.09-5.452-13.015-5.452H542.55a2.778 2.778 0 0 0-2.814 2.814v44.848a2.778 2.778 0 0 0 2.814 2.813h4.221a2.778 2.778 0 0 0 2.814-2.813v-10.553c0-.352.352-.703.704-.703h14.949c10.025 0 18.29-8.09 18.466-17.94.352-4.924-1.582-9.497-5.1-13.014m-6.859 18.467c-1.583 1.582-3.693 2.638-5.98 2.638H550.29c-.352 0-.704-.352-.704-.704v-15.3c0-.352.352-.704.704-.704h15.125c4.572 0 8.442 3.693 8.617 8.09.176 2.11-.703 4.397-2.286 5.98"/><path id="path358" style="stroke:none;stroke-width:.264584;fill:#d60812;fill-opacity:1" d="M627.145 462.224h-34.471a2.778 2.778 0 0 0-2.814 2.814v4.22a2.778 2.778 0 0 0 2.814 2.815h34.471a2.778 2.778 0 0 0 2.814-2.814v-4.221c0-1.583-1.407-2.814-2.814-2.814z"/><path id="path356" style="stroke:none;stroke-width:.264584;fill:#d60812;fill-opacity:1" d="M469.739 459.937a2.72 2.72 0 0 0-3.694-.176c-3.166 2.463-7.035 3.694-11.08 3.518-8.266-.528-14.95-7.035-15.477-15.301-.527-4.573 1.056-8.97 4.221-12.311 3.166-3.342 7.563-5.276 12.136-5.276 3.517 0 7.034 1.055 9.848 3.341 1.407 1.055 3.518 1.055 4.749-.352l2.462-2.462c.528-.527.88-1.23.88-2.11 0-.704-.352-1.407-.88-1.935-5.276-4.397-11.783-6.683-18.642-6.155-6.508.351-12.487 3.165-17.06 7.738-4.573 4.573-7.387 10.728-7.738 17.236-.352 7.21 2.286 14.07 7.21 19.346 5.1 5.276 11.784 8.09 18.995 8.09 6.155 0 12.135-2.11 16.883-6.156.528-.527.88-1.23 1.056-1.934 0-.704-.176-1.583-.88-2.11z"/><path id="path354" style="stroke:none;stroke-width:.264584;fill:#d60812;fill-opacity:1" d="M676.566 459.937a2.72 2.72 0 0 0-3.694-.176c-3.166 2.463-7.035 3.694-11.08 3.518-8.266-.528-14.949-7.035-15.477-15.301-.351-4.573 1.231-8.97 4.397-12.487 3.166-3.342 7.563-5.276 12.135-5.276 3.518 0 7.035 1.055 9.85 3.341 1.406 1.056 3.517 1.056 4.748-.351l2.462-2.463c.528-.527.88-1.23.88-2.11 0-.704-.352-1.407-.88-1.935-5.276-4.397-11.783-6.683-18.642-6.155-6.508.351-12.487 3.165-17.06 7.738-4.573 4.573-7.21 10.728-7.563 17.236-.351 7.21 2.287 14.07 7.211 19.346 5.1 5.276 11.784 8.09 18.994 8.09 6.156 0 12.136-2.11 16.884-6.156.528-.527.88-1.23 1.056-1.934 0-.704-.176-1.583-.88-2.11z"/><path id="path16" style="stroke:none;stroke-width:.264584;fill:#d60812;fill-opacity:1" d="M604.633 441.998h20.93a2.778 2.778 0 0 1 2.813 2.814v4.221a2.778 2.778 0 0 1-2.814 2.814h-20.929a2.778 2.778 0 0 1-2.814-2.814v-4.22a2.778 2.778 0 0 1 2.814-2.815z"/></g></g><style type="text/css" id="style2"></style></svg>