<?xml version="1.0" encoding="UTF-8" standalone="no"?>
<svg
   id="svg24"
   version="1.1"
   viewBox="0 0 100 84"
   height="84"
   width="100"
   sodipodi:docname="UEFA_Women's_Champions_League_logo.svg"
   inkscape:version="1.1 (c68e22c387, 2021-05-23)"
   xmlns:inkscape="http://www.inkscape.org/namespaces/inkscape"
   xmlns:sodipodi="http://sodipodi.sourceforge.net/DTD/sodipodi-0.dtd"
   xmlns="http://www.w3.org/2000/svg"
   xmlns:svg="http://www.w3.org/2000/svg"
   xmlns:rdf="http://www.w3.org/1999/02/22-rdf-syntax-ns#"
   xmlns:cc="http://creativecommons.org/ns#"
   xmlns:dc="http://purl.org/dc/elements/1.1/">
  <defs
     id="defs8" />
  <sodipodi:namedview
     id="namedview6"
     pagecolor="#ffffff"
     bordercolor="#111111"
     borderopacity="1"
     inkscape:pageshadow="0"
     inkscape:pageopacity="0"
     inkscape:pagecheckerboard="1"
     showgrid="false"
     height="84px"
     inkscape:zoom="2.0000001"
     inkscape:cx="186.24999"
     inkscape:cy="46.499998"
     inkscape:window-width="1600"
     inkscape:window-height="878"
     inkscape:window-x="-8"
     inkscape:window-y="-8"
     inkscape:window-maximized="1"
     inkscape:current-layer="svg24" />
  <title
     id="title32">Corponor logo</title>
  <g
     id="#231815ff"
     transform="matrix(0.41727684,0,0,0.41727684,-32.201042,10.17658)" />
  <metadata
     id="metadata2349">
    <rdf:RDF>
      <cc:Work
         rdf:about="">
        <dc:title>Corponor logo</dc:title>
        <dc:date>14 nov 2021</dc:date>
        <cc:license
           rdf:resource="http://scripts.sil.org/OFL" />
      </cc:Work>
      <cc:License
         rdf:about="http://scripts.sil.org/OFL">
        <cc:permits
           rdf:resource="http://scripts.sil.org/pub/OFL/Reproduction" />
        <cc:permits
           rdf:resource="http://scripts.sil.org/pub/OFL/Distribution" />
        <cc:permits
           rdf:resource="http://scripts.sil.org/pub/OFL/Embedding" />
        <cc:permits
           rdf:resource="http://scripts.sil.org/pub/OFL/DerivativeWorks" />
        <cc:requires
           rdf:resource="http://scripts.sil.org/pub/OFL/Notice" />
        <cc:requires
           rdf:resource="http://scripts.sil.org/pub/OFL/Attribution" />
        <cc:requires
           rdf:resource="http://scripts.sil.org/pub/OFL/ShareAlike" />
        <cc:requires
           rdf:resource="http://scripts.sil.org/pub/OFL/DerivativeRenaming" />
        <cc:requires
           rdf:resource="http://scripts.sil.org/pub/OFL/BundlingWhenSelling" />
      </cc:License>
    </rdf:RDF>
  </metadata>
  <g
     id="#6fd1f1ff"
     style="fill:#54beeb;fill-opacity:1"
     transform="matrix(0.33791892,0,0,0.33791892,15.872901,-40.06878)">
    <path
       fill="#6fd1f1"
       opacity="1"
       d="m 90.48,122.71 c 15.58,-4.65 32.45,-3.93 48.14,-0.14 15.88,4.2 30.94,12.47 42.32,24.41 -11.98,12.28 -23.65,24.88 -36.07,36.74 -6.47,-5.61 -14.15,-10.13 -22.7,-11.52 -14.16,-2.59 -29.43,2.67 -38.89,13.56 -4.36,-11.33 -8.81,-23.31 -7.53,-35.66 1.09,-10.55 6.36,-20.83 14.73,-27.39 z"
       id="path13"
       style="fill:#54beeb;fill-opacity:1" />
  </g>
  <g
     id="#8fc452ff"
     style="fill:#9ac33b;fill-opacity:1"
     transform="matrix(0.33791892,0,0,0.33791892,15.872901,-40.06878)">
    <path
       fill="#8fc452"
       opacity="1"
       d="m 26.13,181.17 c 8.41,-23.19 26.43,-42.39 48.54,-53.14 -6.91,10.19 -9.56,22.89 -7.61,35.03 3.51,22.16 16.6,41.29 21.51,63.05 1.57,6.84 1.69,14.09 -0.61,20.79 -14.39,-2.02 -28.95,-8.21 -37.75,-20.23 -4.75,-6.15 -7.3,-13.62 -8.87,-21.15 0.26,13.83 4.62,28.44 15.42,37.7 10.39,9.17 24.73,11.75 38.17,11.91 5.41,-0.23 10.81,-0.81 16.23,-0.96 -18.07,16.98 -47.76,18.4 -68.13,4.78 C 32.8,252.29 25.29,241.72 22.27,229.9 18.06,213.8 20.69,196.65 26.13,181.17 Z"
       id="path18"
       style="fill:#9ac33b;fill-opacity:1" />
  </g>
  <path
     fill="#0467a8"
     opacity="1"
     d="m 57.380797,46.384679 c 2.807236,-0.516122 5.427567,-1.915525 7.459952,-3.93043 4.125903,4.115132 8.197436,8.291875 12.350541,12.382929 -4.781841,4.97362 -11.313969,8.192491 -18.128192,9.078441 -6.817606,0.930419 -13.927506,-0.437126 -19.892076,-3.902967 -4.486157,-2.565541 -8.279009,-6.290589 -11.05907,-10.658804 6.182067,4.542682 14.6786,5.524408 21.764696,2.671549 2.943203,-1.193806 5.322226,-3.383106 7.504149,-5.640718 z"
     id="path19"
     style="fill:#0067a9;fill-opacity:1;stroke-width:0.340964" />
  <g
     id="#010f23ff"
     transform="matrix(0.18698718,0,0,0.18698718,-37.389415,32.757304)"
     style="fill:#000000">
    <path
       id="path21"
       style="fill:#000000;fill-opacity:1;stroke-width:1.33333"
       d="m 321.96875,237.60547 c -3.015,0.0303 -6.01549,0.3069 -8.95508,0.83398 -13.37333,2.18667 -25.95945,9.80117 -33.43945,21.20117 -14.84,21.48001 -8.74659,54.85204 14.08008,68.33204 22.01333,14.56 54.42536,9.13401 70.33203,-11.97266 l -15.42578,-14.88086 c -3.72,4.54667 -7.9868,8.86656 -13.4668,11.22656 -12.58667,5.84 -29.88086,2.14815 -36.88086,-10.47851 -6.66667,-11.29334 -4.87906,-27.25383 4.96094,-36.17383 6.77333,-6.22667 16.70653,-8.05255 25.5332,-6.19922 8.01333,1.82667 14.78698,6.89182 20.32031,12.78516 l 15.24024,-14.22657 c -9.34875,-13.59 -26.01782,-20.61114 -42.29883,-20.44726 z m 93.43945,21.81641 c -3.64875,0.0396 -7.28859,0.49156 -10.80859,1.35156 -12.68,2.96 -24.17263,12.19976 -28.2793,24.75976 -3.65333,11.86667 -1.74791,25.87998 6.71875,35.30664 15.98667,18.90667 48.89451,19.22756 65.20117,0.57422 13.01334,-14.05333 11.71998,-38.49442 -2.69335,-51.12109 -8.16,-7.4 -19.19243,-10.98985 -30.13868,-10.87109 z m 258.65235,0.0801 c -3.64875,0.0396 -7.28664,0.49157 -10.80664,1.35157 -12.68,2.96 -24.17459,12.19976 -28.28125,24.75976 -3.65334,11.86667 -1.74597,25.87998 6.7207,35.30664 15.98667,18.90667 48.89255,19.22755 65.19922,0.57422 13.01333,-14.05333 11.71997,-38.49443 -2.69336,-51.12109 -8.16,-7.4 -19.19242,-10.98985 -30.13867,-10.8711 z m 189.34765,0.0273 c -3.64875,0.0396 -7.28859,0.49156 -10.80859,1.35156 -12.68,2.96 -24.17263,12.19976 -28.2793,24.75976 -3.65333,11.86667 -1.74791,25.87998 6.71875,35.30665 15.98667,18.90666 48.89451,19.22559 65.20117,0.57226 13.01334,-14.05333 11.71998,-38.49247 -2.69335,-51.11914 -8.16001,-7.4 -19.19243,-10.98984 -30.13868,-10.87109 z m -274.79297,0.37109 c -3.36125,-0.10562 -6.73494,0.3001 -9.98828,1.27344 -6.32,1.49333 -11.50747,5.86617 -15.49414,10.82617 -1.22666,-2.37333 -2.3589,-5.03997 -4.8789,-6.30664 -6.97334,-4.26667 -15.508,-3.71917 -23.36133,-3.8125 -0.0667,5.22667 -0.0394,10.43935 -0.0527,15.66602 2.6,0 6.47948,0.1995 6.13282,3.82617 0.36,27.65333 0.0272,55.33333 0.17382,83 7.21334,0.10666 14.42763,0.17442 21.6543,0.12109 -0.0533,-13.90667 0.10625,-27.82771 -0.0937,-41.73437 4.16,5.08 9.42633,9.65416 15.98633,11.1875 12.21333,3.58666 25.99995,-0.82735 34.61328,-10.02735 12.62667,-13.57333 13.27961,-36.47984 1.59961,-50.83984 -6.24,-7.95 -16.20727,-12.86281 -26.29102,-13.17969 z m 188.59571,0.48633 c -2.26095,-0.0457 -4.50039,0.0765 -6.65039,0.33398 -7.8,0.77334 -14.29417,5.74526 -19.1875,11.5586 -1.09334,-2.22667 -1.86547,-4.86657 -4.10547,-6.22657 -7,-4.77333 -15.94701,-4.07921 -24.01367,-4.19921 l -0.10743,15.66601 c 1.08,0.13333 3.24032,0.3862 4.32032,0.51953 2.16,1.04 1.67932,3.97427 1.97265,5.96094 0.04,16.4 0.0137,49.22656 0.0137,49.22656 h 21.67969 c 0,0 -0.20018,-24.71974 0.14649,-37.0664 0.14666,-7.56 4.17414,-15.46664 11.49414,-18.30664 7.17333,-2.74667 17.73229,-0.93269 20.26562,7.33398 3.49334,11.24 0.80136,23.21276 2.05469,34.74609 0.48,4.10667 3.10703,7.66662 6.70703,9.61329 7.04,4.05333 15.47998,3.49302 23.30664,3.67968 l -0.14648,-15.77344 c -2.86667,-0.51999 -7.21352,-0.48015 -7.85352,-4.16015 -2.14666,-13.4 2.14682,-28.10688 -4.83984,-40.54688 -5.05917,-8.84 -15.2592,-12.16137 -25.05664,-12.35937 z m 186.11914,0.28906 c -2.36315,-0.0381 -4.72995,0.21302 -7.05078,0.80469 -6.48,1.6 -11.5587,6.50549 -15.33203,11.79883 -0.90667,-2.61334 -1.53477,-5.70589 -4.13477,-7.19922 -7.04,-4.82667 -15.9718,-4.30732 -24.0918,-4.33399 l 0.0117,15.61329 c 2.16,0.38666 5.74847,-0.133 5.8418,3.01367 1.42667,17.46666 0.20005,35.04021 0.38672,52.54687 l 21.59961,-0.0664 c 0.0533,-12.36 -0.0809,-24.73375 0.0391,-37.09375 -0.14667,-5.48 3.50648,-10.33326 8.14648,-12.91993 7.45334,-4.17333 16.52097,-4.43997 24.6543,-2.30664 l 4.95899,-15.97265 c -4.6475,-2.31917 -9.83037,-3.80087 -15.0293,-3.88477 z m -448.38672,0.1211 c -2.36315,-0.0381 -4.72995,0.21106 -7.05078,0.80273 -6.48,1.6 -11.5587,6.50745 -15.33203,11.80078 -0.90667,-2.61333 -1.53477,-5.70784 -4.13477,-7.20117 -7.04,-4.82667 -15.9718,-4.30537 -24.0918,-4.33203 l 0.0117,15.61328 c 2.16,0.38667 5.74847,-0.133 5.8418,3.01367 1.42667,17.46667 0.20005,35.03826 0.38672,52.54492 l 21.59961,-0.0664 c 0.0533,-12.36 -0.0809,-24.7318 0.0391,-37.0918 -0.14667,-5.48 3.50649,-10.33326 8.14649,-12.91992 7.45333,-4.17334 16.52096,-4.43998 24.65429,-2.30664 l 4.95899,-15.97461 c -4.6475,-2.31917 -9.83037,-3.79892 -15.0293,-3.88281 z m 66.57031,16.2871 c 6.49688,0.004 13.00633,3.23227 16.48633,8.82227 5.92,9.12 3.75956,23.17367 -5.78711,29.01367 -7.90667,5.21334 -19.89245,3.69438 -25.42578,-4.26562 -7.22667,-10.28 -4.52096,-28.08013 8.3457,-32.4668 2.05,-0.74667 4.21524,-1.10497 6.38086,-1.10352 z m -166.25781,2.33985 c 6.93,-0.16625 14.01687,2.8964 17.79687,8.8164 4.78667,7.58667 2.41329,18.73339 -5.38671,23.38672 -9.98667,6.93334 -26.33321,3.19896 -30.53321,-8.73437 -3.32,-9.01334 2.23972,-19.53289 11.37305,-22.21289 2.14667,-0.78667 4.44,-1.20045 6.75,-1.25586 z m 258.65234,0.0801 c 6.93,-0.16625 14.01883,2.8964 17.79883,8.8164 4.78667,7.58667 2.41328,18.73339 -5.38672,23.38672 -9.98666,6.93333 -26.3332,3.19896 -30.5332,-8.73437 -3.32,-9.01334 2.23971,-19.53289 11.37305,-22.21289 2.14666,-0.78667 4.43804,-1.20045 6.74804,-1.25586 z m 189.34766,0.0273 c 6.93,-0.16625 14.01687,2.89445 17.79687,8.81445 4.78667,7.58667 2.41329,18.73339 -5.38671,23.38672 -9.98667,6.93334 -26.33321,3.20091 -30.53321,-8.73242 -3.32,-9.01333 2.23972,-19.53289 11.37305,-22.21289 2.14667,-0.78667 4.44,-1.20044 6.75,-1.25586 z"
       transform="scale(0.75)" />
  </g>
</svg>
