<?xml version="1.0" encoding="utf-8"?>
<!-- Generator: Adobe Illustrator 24.3.0, SVG Export Plug-In . SVG Version: 6.00 Build 0)  -->
<svg version="1.1" id="Layer_1" xmlns="http://www.w3.org/2000/svg" xmlns:xlink="http://www.w3.org/1999/xlink" x="0px" y="0px"
	 viewBox="0 0 512 512" style="enable-background:new 0 0 512 512;" xml:space="preserve">
<style type="text/css">
	.st0{fill:#00499A;}
</style>
<g id="XMLID_1_">
	<path id="XMLID_2_" class="st0" d="M34.26,194.02c17.81-9.54,39.69-10.38,58.07-2.1c15.99,7.15,28.89,21.04,34.78,37.59
		c5.75,16.41,4.91,34.92-2.52,50.49c-8.98,19.22-28.33,33.66-49.51,36.33c-10.52,1.68-21.46,0.28-31.56-3.09c0,4.07,0,8.42,0,12.48
		c-3.09,0-6.03,0-8.98,0c0-16.55,0-33.1,0-49.65c5.75,6.59,13.46,12.06,22.3,14.03c15.99,4.07,33.8-3.65,42.36-17.81
		c8.56-13.18,7.71-31.28-1.68-43.9c-8.84-12.48-25.53-18.93-40.39-15.15c-8.84,2.1-16.55,7.15-22.3,14.17
		C34.26,216.46,34.26,205.24,34.26,194.02z"/>
	<path id="XMLID_3_" class="st0" d="M181.53,198.92c2.95,0,6.03,0,8.84-0.14c0.14,5.05-0.28,10.1-0.98,15.15c9.96,0,19.78,0,29.73,0
		c0,2.52,0,5.05,0,7.71c-7.15,0-14.31,0-21.46,0c2.95,12.34,10.1,24.12,21.46,30.16c0,3.23,0,6.59,0,9.96
		c-16.69-6.87-27.49-23.56-30.86-40.96c-1.4,4.77-2.52,9.4-4.21,14.03c4.07,5.75,7.29,12.48,9.54,19.07c-3.23,0-6.45,0-9.68,0
		c-1.4-3.65-2.95-7.01-4.63-10.38c-5.47,8.56-13.89,14.73-23.14,18.09c0-3.09,0-6.03-0.14-8.98c12.62-5.47,20.34-17.95,22.86-30.86
		c-7.71-0.14-15.15,0-22.86,0c0-2.52,0-5.05,0-7.71c8.13,0,16.27,0,24.4,0C180.97,209.02,181.25,203.97,181.53,198.92z"/>
	<path id="XMLID_4_" class="st0" d="M0.04,252.78c-0.98-20.76,9.68-41.1,25.81-54.14c0.14,42.36,0,84.57,0,126.93
		c-8.56,0-17.25,0-25.81,0C0.04,301.31,0.04,276.91,0.04,252.78z"/>
	<path id="XMLID_5_" class="st0" d="M230.62,200.05c19.22,0,38.43,0,57.51,0c0,2.52,0,5.05,0,7.71c-7.99,0-15.99,0-24.12,0
		c0,9.26,0,18.23,0,27.49c8.84,0,17.95,0,26.79,0c0,2.66,0,5.61,0,8.42c-8.84,0-17.95,0-26.79,0c0,6.31,0,12.62,0,18.79
		c-3.09,0-6.31,0-9.4,0c0-6.31,0-12.62,0-18.93c-8.84,0-17.95,0-26.79,0c0-2.66,0-5.61,0-8.42c8.98,0,17.95,0,26.79,0
		c0-9.26,0-18.37,0-27.49c-7.99,0-15.99,0-24.12,0C230.62,205.1,230.62,202.57,230.62,200.05z"/>
	<path id="XMLID_6_" class="st0" d="M300.19,200.05c3.09,0.28,6.59-0.7,9.4,0.56c3.23,4.49,5.33,9.54,7.57,14.45
		c-3.09,0-6.17,0-9.26,0C305.66,209.86,303,204.82,300.19,200.05z"/>
	<path id="XMLID_7_" class="st0" d="M322.63,198.92c2.95,0,6.03,0,8.98,0c0.98,2.66,2.1,5.61,3.09,8.42c4.07,0,8.13,0,12.34,0
		c0.98-2.66,2.24-5.47,3.23-8.42c2.95,0,6.03,0,8.84,0c-0.98,2.66-2.1,5.61-2.95,8.42c2.24,0,4.63,0,6.87,0c0,2.52,0,5.05,0,7.71
		c-5.75,0-11.64,0-17.39,0c0,2.95,0,5.75,0,8.7c5.33,0,10.8,0,15.99,0c0,2.52,0,5.05,0,7.71c-5.33,0-10.8,0-15.99,0
		c0,3.23,0,6.45,0,9.68c6.45,0,12.9,0,19.5,0c0,2.52,0,5.05,0,7.71c-6.45,0-12.9,0-19.5,0c0,4.63,0,8.98,0,13.6
		c-3.09,0-6.17,0-8.98,0c0-4.63,0-8.98,0-13.6c-6.31,0-12.62,0-18.79,0c0-2.52,0-5.05,0-7.71c6.31,0,12.62,0,18.79,0
		c0-3.23,0-6.45,0-9.68c-5.47,0-10.94,0-16.41,0c0-2.52,0-5.05,0-7.71c5.47,0,10.94,0,16.41,0c0-2.95,0-5.75,0-8.7
		c-6.03,0-11.92,0-17.81,0c0-2.52,0-5.05,0-7.71c2.38,0,4.77,0,7.15,0C324.59,204.39,323.61,201.73,322.63,198.92z"/>
	<path id="XMLID_8_" class="st0" d="M450.69,200.05c7.29,0,14.73,0,21.88,0c0.98,7.71-0.14,15.71-4.49,22.3
		c4.63,8.7,4.63,19.22,0.98,28.33c-2.95,0-6.03,0-8.84,0c3.79-8.98,4.77-19.78-0.7-28.33c3.09-4.21,4.63-9.54,5.05-14.87
		c-2.24,0-4.21,0-6.45,0c0,18.09,0,36.05,0,54.14c-2.52,0-5.05,0-7.71,0C450.69,241,450.69,220.52,450.69,200.05z"/>
	<path id="XMLID_9_" class="st0" d="M471.02,222.07c5.47-6.17,8.56-14.03,9.68-22.02c5.75,0,11.78,0,17.81,0
		c1.82,7.99,6.45,15.57,13.46,20.2c0,2.95,0,5.75,0,8.7c-9.26-4.07-16.27-12.48-19.64-21.88c-1.68,0-3.23,0-4.91,0
		c-2.38,7.99-6.31,16.55-14.03,21.04C472.57,225.99,471.72,224.03,471.02,222.07z"/>
	<path id="XMLID_10_" class="st0" d="M396.13,200.05c-2.95,0-5.75,0-8.84,0c-2.1,8.42-7.01,15.71-14.31,20.48c0,3.09,0,6.31,0,9.54
		c2.95-1.68,6.03-3.37,8.7-5.47c0,12.34,0,24.54,0,36.89c2.66,0,5.61,0,8.42,0c0.14-15.01-0.14-30.01,0.14-45.02
		C392.48,211.13,395.42,205.8,396.13,200.05z"/>
	<path id="XMLID_11_" class="st0" d="M429.09,236.23c3.09,0,6.17,0,9.26,0c0-2.52,0-5.05,0-7.71c-6.17,0-12.06,0-18.09,0
		c0-1.4,0-2.66,0-4.07c5.05,0.28,11.5-0.84,13.6-6.17c2.1-5.75,1.68-12.34,1.54-18.37c-12.48,0.14-24.97,0-37.59,0
		c0,8.13,0,16.41,0,24.4c4.63,0,8.98,0,13.6,0c0,1.4,0,2.66,0,4.21c-6.17,0-12.06,0-18.09,0c0,2.52,0,5.05,0,7.71
		c3.09,0,6.31,0,9.4,0.14c-0.98,6.59-3.93,13.18-9.4,17.25c0,2.66,0,5.47,0,7.99c11.78-2.95,15.99-15.85,17.81-26.51
		c0.84,8.7,0.14,17.39,0.28,26.09c2.95,0,5.75,0,8.7,0c0.28-8.7-0.84-17.53,0.7-26.09c1.54,10.52,6.17,22.86,17.39,26.51
		c0-2.66,0-5.33,0-7.99C432.87,249.56,430.07,242.82,429.09,236.23z M406.22,217.02c0-3.37,0-6.87,0-10.1c6.87,0,13.89,0,20.76,0
		c-0.14,3.65,0,9.26-4.63,9.96C416.88,217.44,411.41,216.88,406.22,217.02z"/>
	<path id="XMLID_14_" class="st0" d="M233.85,211.27c3.09,0,6.31,0,9.4-0.14c1.54,7.15,3.79,14.03,6.59,20.62c-3.09,0-6.31,0-9.4,0
		C237.07,225.29,235.39,218.28,233.85,211.27z"/>
	<path id="XMLID_15_" class="st0" d="M275.5,211.13c3.09,0,6.31,0,9.4,0c-1.4,7.01-3.23,14.17-6.59,20.48c-3.09,0-6.31,0-9.4,0
		C271.86,225.15,274.1,218.28,275.5,211.13z"/>
	<path id="XMLID_16_" class="st0" d="M300.19,217.02c3.09,0,6.17,0,9.4,0c2.95,4.63,5.33,9.54,7.57,14.73c-3.09,0-6.17,0-9.26,0
		C305.66,226.7,303,221.79,300.19,217.02z"/>
	<path id="XMLID_17_" class="st0" d="M482.1,219.82c5.61,0,11.22,0,17.11,0c0,2.38,0,4.63,0.14,7.01c-5.75,0-11.5,0-17.11,0
		C482.1,224.59,482.1,222.21,482.1,219.82z"/>
	<path id="XMLID_18_" class="st0" d="M36.79,241.14c4.49-12.48,17.81-20.76,30.86-19.5c13.89,0.7,25.81,12.06,27.77,25.81
		c-4.63,0-8.98,0-13.6,0c-2.38-7.15-9.26-12.9-17.11-12.62c-10.24-0.14-18.93,10.52-16.41,20.48c1.68,8.56,10.38,14.73,18.93,13.32
		c6.87-0.7,12.06-6.17,14.31-12.48c4.63,0,8.98,0,13.6,0.14c-1.68,8.7-6.31,16.83-14.03,21.46c-10.38,6.59-24.97,6.17-34.78-1.54
		C36.23,268.49,32.02,253.48,36.79,241.14z"/>
	<path id="XMLID_19_" class="st0" d="M474.81,230.76c2.38,0,4.91,0,7.29,0c1.68,6.45,2.38,12.9,2.95,19.5c-2.38,0-4.91,0-7.29,0.14
		C477.19,243.67,476.21,237.21,474.81,230.76z"/>
	<path id="XMLID_20_" class="st0" d="M485.05,230.76c2.52,0,5.05,0,7.57,0c1.4,6.17,2.24,12.06,2.66,18.23
		c2.38-6.03,4.07-12.06,5.61-18.37c2.52,0,4.91,0,7.57,0c-1.54,7.99-4.07,15.71-7.15,23c3.65,0,7.15,0,10.52,0c0,2.52,0,5.05,0,7.71
		c-14.17,0-28.19,0-42.08,0c0-2.52,0-5.05,0-7.71c7.99,0,15.85,0,23.84,0c0.56-1.26,0.84-2.38,1.4-3.37c-2.24,0-4.63,0-6.87,0
		C487.43,243.67,486.59,237.21,485.05,230.76z"/>
	<path id="XMLID_21_" class="st0" d="M307.9,235.11c3.09,0,6.03,0,8.98,0c-1.82,8.84-3.79,17.81-7.29,26.09c-3.09,0-6.17,0-9.26,0
		C303.42,252.92,306.22,244.23,307.9,235.11z"/>
	<path id="XMLID_22_" class="st0" d="M164.56,281.26c6.45-4.91,15.29-4.63,22.86-2.95c-0.14,2.24-0.28,4.63-0.56,6.87
		c-4.63-1.4-9.68-2.52-14.17,0c-8.7,4.49-9.4,18.93-0.56,23.56c5.05,2.95,11.08,1.4,16.41-0.14c0.14,2.24,0.14,4.49,0.14,6.59
		c-8.7,2.95-19.5,3.09-26.79-3.37C153.34,303.7,154.88,287.85,164.56,281.26z"/>
	<path id="XMLID_23_" class="st0" d="M240.02,277.47c2.95,0,5.75,0,8.7,0c0,13.18,0,26.23,0,39.41c-2.95,0-5.75,0-8.7,0
		C240.02,303.7,240.02,290.65,240.02,277.47z"/>
	<path id="XMLID_24_" class="st0" d="M267.37,280.55c6.45-4.21,14.73-4.07,22.02-2.52c0,2.38,0,4.77,0,7.01
		c-4.91-1.68-10.94-2.66-15.57,0.56c-7.57,4.77-7.99,17.39-0.56,22.3c5.05,3.65,11.92,2.24,17.39,0.14c0,2.38,0,4.77,0.14,7.15
		c-7.99,2.24-17.11,2.95-24.4-1.68C255.17,306.5,256.01,287.57,267.37,280.55z"/>
	<path id="XMLID_25_" class="st0" d="M224.17,278.87c-7.85-3.93-17.11-2.24-25.25-0.84c0,12.9,0,25.81,0,38.71c2.66,0,5.61,0,8.42,0
		c-0.14-5.33,0.56-10.52-0.56-15.71c0.7,0.14,2.24,0.56,2.95,0.56l-1.26,0.56c0.56,1.26,1.68,3.65,2.24,4.77
		c5.05-0.14,10.8-0.28,14.87-3.79C233.01,297.24,233.01,283.5,224.17,278.87z M219.68,297.1c-2.95,3.23-7.71,2.52-11.64,3.79
		c-2.1-5.33-0.56-11.5-0.7-17.11c4.21-0.14,9.4-1.26,12.76,2.1C223.47,288.97,222.49,294.16,219.68,297.1z"/>
</g>
</svg>
