<?xml version="1.0" encoding="UTF-8" standalone="no"?>
<!-- Generator: Adobe Illustrator 26.2.1, SVG Export Plug-In . SVG Version: 6.00 Build 0)  -->

<svg
   version="1.1"
   id="Capa_1"
   x="0px"
   y="0px"
   viewBox="0 0 1000 817.07097"
   xml:space="preserve"
   sodipodi:docname="Logo_Cruz_FondoBlanco__3_.svg"
   inkscape:version="1.2.2 (732a01da63, 2022-12-09)"
   width="1000"
   height="817.07098"
   xmlns:inkscape="http://www.inkscape.org/namespaces/inkscape"
   xmlns:sodipodi="http://sodipodi.sourceforge.net/DTD/sodipodi-0.dtd"
   xmlns="http://www.w3.org/2000/svg"
   xmlns:svg="http://www.w3.org/2000/svg"
   xmlns:rdf="http://www.w3.org/1999/02/22-rdf-syntax-ns#"
   xmlns:cc="http://creativecommons.org/ns#"
   xmlns:dc="http://purl.org/dc/elements/1.1/"><title
   id="title475">Farmacias Cruz Verde</title><defs
   id="defs200" /><sodipodi:namedview
   id="namedview198"
   pagecolor="#ffffff"
   bordercolor="#666666"
   borderopacity="1.0"
   inkscape:showpageshadow="2"
   inkscape:pageopacity="0.0"
   inkscape:pagecheckerboard="0"
   inkscape:deskcolor="#d1d1d1"
   showgrid="false"
   inkscape:zoom="0.34780701"
   inkscape:cx="379.52081"
   inkscape:cy="324.89281"
   inkscape:window-width="1366"
   inkscape:window-height="705"
   inkscape:window-x="-8"
   inkscape:window-y="-8"
   inkscape:window-maximized="1"
   inkscape:current-layer="Capa_1" />
<style
   type="text/css"
   id="style167">
	.st0{fill:#FFFFFF;}
	.st1{fill:#00953B;}
	.st2{fill:#FFD600;}
</style>













<g
   id="g373"
   transform="matrix(7.6860839,0,0,7.6860839,70.34792,-41.100416)"
   style="stroke-width:0.130105"><polygon
     class="st1"
     points="20.2,32.4 44,32.4 44,8.6 67.8,8.6 67.8,32.4 91.6,32.4 91.6,56.1 67.8,56.1 67.8,79.8 44,79.8 44,56.1 20.2,56.1 "
     id="polygon171"
     style="stroke-width:0.130105" /><polygon
     class="st1"
     points="88.4,108.4 8.6,108.4 8.6,88.6 108.2,88.6 "
     id="polygon173"
     style="stroke-width:0.130105" /><path
     class="st0"
     d="m 27.3,103.5 h 2.8 v -4.2 c 0,-0.3 0,-0.6 0.1,-0.8 0.3,-0.7 0.9,-1.2 1.7,-1.2 0.2,0 0.4,0 0.6,0 v -2.2 c -0.2,0 -0.4,-0.1 -0.6,-0.1 -0.9,0.1 -1.6,0.6 -2,1.3 h -0.1 l -0.1,-1.2 h -2.5 c 0,0.8 0.1,1.7 0.1,2.5 z"
     id="path175"
     style="stroke-width:0.130105" /><path
     class="st0"
     d="m 61.5,98.6 c 0,-0.8 0.4,-1.9 1.3,-1.9 0.9,0 1.2,0.8 1.2,1.9 z m 4.9,1.5 c 0.1,-0.4 0.1,-0.8 0.1,-1.2 0,-2.5 -1.3,-3.9 -3.5,-3.9 -2.3,-0.1 -4.1,1.7 -4.2,4 0,0.1 0,0.3 0,0.4 0,2.6 1.6,4.1 4.4,4.1 1,0 2,-0.3 2.8,-0.7 l 0.1,-1.7 c -0.7,0.5 -1.6,0.7 -2.5,0.7 -1.2,0 -2.2,-0.5 -2.2,-1.8 h 5 z"
     id="path177"
     style="stroke-width:0.130105" /><path
     class="st0"
     d="m 78.1,100.6 c 0,0.2 0,0.4 -0.1,0.5 -0.1,0.4 -0.5,0.7 -1,0.7 -0.8,0 -1.3,-0.8 -1.3,-2.4 0,-1.3 0.4,-2.5 1.3,-2.5 0.6,0 1,0.4 1,1 0,0.2 0,0.3 0,0.5 z m 0,-8.8 v 4.1 0 C 77.7,95.3 77,95 76.3,95.1 c -1.7,0 -3.3,1.4 -3.3,4.3 0,2.3 1,4.2 3.2,4.2 0.8,0 1.6,-0.4 2.2,-1.1 h 0.1 l 0.2,0.9 H 81 c 0,-0.8 -0.1,-1.7 -0.1,-2.4 v -9.2 z"
     id="path179"
     style="stroke-width:0.130105" /><path
     class="st0"
     d="m 33.1,95.2 h 2.7 v 5.7 c 0,0.6 0.4,1 1,1 0.6,0 1,-0.4 1,-1 v -4.5 -1.1 h 2.7 v 5.3 c 0,2.1 -1.7,3.2 -3.7,3.2 -2,0 -3.7,-1.2 -3.7,-3.2 v -5.4 m 4.6,5.1 z m -2,-0.1 z"
     id="path181"
     style="stroke-width:0.130105" /><path
     class="st0"
     d="m 84.5,98.6 c 0,-0.8 0.4,-1.9 1.3,-1.9 0.9,0 1.2,0.8 1.2,1.9 z m 4.9,1.5 c 0.1,-0.4 0.1,-0.8 0.1,-1.1 0,-2.5 -1.3,-3.9 -3.5,-3.9 -2.3,-0.1 -4.1,1.7 -4.2,4 0,0.1 0,0.3 0,0.4 0,2.6 1.6,4.1 4.4,4.1 1,0 2,-0.3 2.8,-0.8 l 0.1,-1.7 c -0.7,0.4 -1.6,0.7 -2.5,0.7 -1.2,0 -2.2,-0.5 -2.2,-1.8 z"
     id="path183"
     style="stroke-width:0.130105" /><polygon
     class="st0"
     points="47.7,103.4 40.7,103.4 44.1,97 41.3,97 41.3,95.2 48.1,95.2 44.4,101.6 47.7,101.6 "
     id="polygon185"
     style="stroke-width:0.130105" /><polygon
     class="st0"
     points="53,103.5 56.1,103.5 59.4,92.1 56.3,92.1 54.6,100 52.9,92.1 49.8,92.1 "
     id="polygon187"
     style="stroke-width:0.130105" /><path
     class="st0"
     d="m 67.5,103.5 h 2.8 v -4.2 c 0,-0.3 0,-0.6 0.1,-0.8 0.3,-0.7 0.9,-1.2 1.7,-1.2 0.2,0 0.4,0 0.6,0 v -2.2 c -0.2,0 -0.4,-0.1 -0.6,-0.1 -0.9,0.1 -1.6,0.6 -2,1.3 H 70 l -0.2,-1.2 h -2.4 c 0,0.8 0.1,1.7 0.1,2.5 z"
     id="path189"
     style="stroke-width:0.130105" /><path
     class="st0"
     d="m 26.3,103.5 c -0.5,0.1 -1,0.2 -1.5,0.2 -3.7,0 -5.5,-2.5 -5.5,-5.9 0,-4.5 3,-6.2 5.8,-6.2 0.4,0 0.8,0 1.2,0.1 l -0.1,2.6 C 25.8,94.1 25.5,94 25.1,94 c -1.4,0 -2.7,1 -2.7,3.7 0,2.7 1.2,3.4 2.7,3.5 0.4,0 0.8,-0.1 1.1,-0.3 z"
     id="path191"
     style="stroke-width:0.130105" /><polygon
     class="st2"
     points="97.8,108.4 88.4,108.4 108.2,88.6 117.7,88.6 "
     id="polygon193"
     style="stroke-width:0.130105" /><path
     class="st0"
     d="m 91,97.1 c 0,-0.2 0.1,-0.4 0.2,-0.6 0.2,-0.4 0.6,-0.6 1.1,-0.6 0.2,0 0.4,0.1 0.6,0.2 0.2,0.1 0.3,0.3 0.4,0.4 0.1,0.2 0.2,0.4 0.2,0.6 0,0.2 -0.1,0.4 -0.2,0.6 -0.3,0.6 -1.1,0.8 -1.7,0.5 0,0 0,0 0,0 C 91.4,98.1 91.3,97.9 91.2,97.8 91,97.6 91,97.4 91,97.1 m 0.2,0 c 0,0.2 0,0.4 0.1,0.5 0.1,0.2 0.2,0.3 0.4,0.4 0.2,0.1 0.3,0.1 0.5,0.1 0.2,0 0.4,0 0.5,-0.1 0.3,-0.2 0.5,-0.5 0.5,-0.9 0,-0.2 0,-0.4 -0.1,-0.5 C 93,96.4 92.9,96.3 92.7,96.2 92.4,96 92,96 91.6,96.2 c -0.2,0.1 -0.3,0.2 -0.4,0.4 0,0.2 0,0.4 0,0.5 m 1.5,-0.3 c 0,0.1 0,0.2 -0.1,0.2 0,0.1 -0.1,0.1 -0.2,0.2 l 0.4,0.7 H 92.5 L 92.2,97.3 H 92 v 0.6 h -0.2 v -1.5 h 0.4 c 0.1,0 0.3,0 0.4,0.1 0.1,0.1 0.1,0.2 0.1,0.3 M 92,97.1 h 0.2 c 0.1,0 0.2,0 0.2,-0.1 0.1,0 0.1,-0.1 0.1,-0.2 0,-0.1 0,-0.1 -0.1,-0.2 -0.1,0 -0.1,-0.1 -0.2,-0.1 H 92 Z"
     id="path195"
     style="stroke-width:0.130105" /></g>
<metadata
   id="metadata471"><rdf:RDF><cc:Work
       rdf:about=""><dc:title>Farmacias Cruz Verde</dc:title><dc:subject><rdf:Bag><rdf:li>Farmacia</rdf:li><rdf:li>Cruz Verde</rdf:li><rdf:li>Logo</rdf:li><rdf:li>Logotipo</rdf:li><rdf:li>Chile</rdf:li><rdf:li>SVG</rdf:li><rdf:li>Vector</rdf:li><rdf:li>Escalable</rdf:li><rdf:li>Transparente</rdf:li></rdf:Bag></dc:subject></cc:Work></rdf:RDF></metadata></svg>
