<?xml version="1.0" encoding="UTF-8" standalone="no"?>
<!-- Created with Inkscape (http://www.inkscape.org/) -->

<svg
   version="1.1"
   id="svg2"
   width="1200"
   height="800"
   viewBox="0 0 1200 800"
   xmlns:xlink="http://www.w3.org/1999/xlink"
   xmlns="http://www.w3.org/2000/svg"
   xmlns:svg="http://www.w3.org/2000/svg">
  <defs
     id="defs6" />
  <rect
     style="fill:#ffffff;fill-opacity:1;stroke-width:14.3781;paint-order:markers fill stroke"
     id="rect2436"
     width="1200"
     height="800"
     x="0"
     y="-6.6465378e-10" />
  <path
     style="fill:#d67900;fill-opacity:1;stroke-width:0.301176"
     d="M 495.54019,514.47094 C 495.28716,514.16606 495.23325,512.88886 495.35267,510.02859 495.44483,507.82064 495.52931,505.20094 495.5404,504.20705 495.57437,501.15909 494.98789,494.2086 494.64226,493.56276 494.46264,493.22713 494.31566,492.6176 494.31566,492.20825 494.31566,491.79892 494.05768,490.94294 493.74235,490.3061 493.42704,489.66927 492.80556,488.40282 492.36136,487.49176 491.91712,486.5807 491.36712,485.49647 491.13913,485.08235 490.60339,484.10922 487.36186,480.86588 486.92504,480.86588 486.7408,480.86588 486.27175,480.52705 485.88272,480.11294 485.4937,479.69882 485.01672,479.36 484.82279,479.36 484.62887,479.36 484.2249,479.08894 483.92508,478.75764 483.62525,478.42635 483.19921,478.15529 482.9783,478.15529 482.75741,478.15529 482.33793,477.95658 482.04616,477.71368 480.78943,476.66752 479.2482,475.71184 476.93543,474.5447 L 474.46341,473.29723 471.36366,473.43231 C 469.6588,473.50663 467.04413,473.79618 465.55331,474.07577 464.06249,474.35535 462.02955,474.64783 461.03566,474.72574 460.04178,474.80365 458.95755,474.99203 458.62625,475.14437 458.29496,475.29671 457.14296,475.48133 456.06625,475.55463 452.51021,475.79672 448.41914,476.99264 447.18691,478.15026 446.83131,478.48432 446.40069,478.75764 446.22998,478.75764 446.05927,478.75764 445.68159,479.02066 445.39066,479.34211 444.67468,480.13327 442.60617,480.62543 439.35096,480.77905 437.86013,480.84944 436.51162,481.03328 436.35425,481.18763 436.19689,481.34195 435.72253,481.47019 435.30013,481.47264 434.87773,481.47504 433.9277,481.68746 433.18898,481.94466 431.57518,482.50654 428.84045,483.25849 427.63224,483.47253 426.4647,483.67938 424.26425,483.04869 422.81848,482.09284 422.17363,481.66647 421.38151,481.16323 421.05825,480.97452 420.735,480.78576 419.95402,480.12701 419.32272,479.51058 418.17394,478.38885 417.41643,477.87017 416.0143,477.24523 415.60269,477.06178 414.82546,476.70269 414.2872,476.44726 413.512,476.0794 412.72834,476.02516 410.51798,476.18629 406.77875,476.45891 405.55152,476.45214 404.06251,476.15066 402.35634,475.80521 400.04743,473.66584 400.04743,472.43035 400.04743,471.10502 396.15271,467.91529 394.53439,467.91529 394.19434,467.91529 393.49985,467.78515 392.99117,467.6261 392.48245,467.46705 390.29166,466.78193 388.1227,466.10363 385.95375,465.42531 383.37869,464.47173 382.40035,463.98455 381.42202,463.49733 380.45626,463.09822 380.25423,463.09761 380.0522,463.09698 379.40434,462.82541 378.81449,462.49411 378.22463,462.16282 377.54102,461.89176 377.29535,461.89176 377.04969,461.89176 376.61334,461.76674 376.32569,461.61396 376.03806,461.46117 374.44743,461.19987 372.79096,461.03332 371.13449,460.86674 369.30484,460.65046 368.72508,460.55273 368.14531,460.455 366.72225,460.22945 365.56272,460.05154 363.03194,459.6632 361.37402,459.1432 359.80432,458.24533 359.16155,457.87768 358.28489,457.39674 357.85613,457.17658 357.4274,456.95638 356.83038,456.50416 356.52944,456.17164 356.22851,455.83911 355.83159,455.56705 355.64739,455.56705 355.46317,455.56705 353.82623,454.07623 352.00978,452.25411 350.19333,450.432 348.56926,448.94 348.40081,448.93856 348.23233,448.93714 347.59529,448.46279 346.9852,447.88444 346.37507,447.30612 345.75919,446.83294 345.61656,446.83294 345.17437,446.83294 343.01936,444.64905 341.90167,443.06823 341.31606,442.24 339.8999,439.66494 338.75461,437.34588 337.60936,435.02682 336.33565,432.58729 335.92413,431.9247 335.51263,431.26211 334.45722,429.32456 333.57874,427.61903 332.15075,424.8466 331.98155,424.31853 331.98155,422.63456 331.98155,421.52951 331.82596,420.59532 331.60508,420.37425 331.08326,419.85196 331.09061,411.76341 331.61339,411.24063 332.12569,410.72832 332.0738,408.84926 331.52574,408.0668 331.09419,407.45069 329.1557,406.01483 327.71325,405.24285 326.74231,404.72323 323.88297,404.08892 322.45597,404.07661 318.92835,404.04615 317.15294,401.99996 316.30571,396.98823 315.93544,394.79787 315.5783,393.211 314.54333,389.15765 314.03582,387.16989 313.61812,385.17884 313.61517,384.73307 313.61222,384.28733 313.47425,383.83884 313.30861,383.73648 313.14296,383.6341 313.00743,383.292 313.00743,382.97627 313.00743,382.12424 312.0074,379.14666 311.16523,377.49116 311.01891,377.20351 310.89919,376.70328 310.89919,376.37952 310.89919,376.05575 310.76366,375.70707 310.59802,375.60471 310.43237,375.50234 310.29684,374.6214 310.29684,373.64706 310.29684,372.67272 310.43237,371.79178 310.59802,371.68942 310.76713,371.58491 310.89919,370.14908 310.89919,368.41526 310.89919,365.23104 310.41066,363.47283 309.26074,362.51847 309.00236,362.30403 308.79096,361.98319 308.79096,361.80549 308.79096,361.37488 307.26023,359.79295 306.84355,359.79295 306.42085,359.79295 302.76743,356.11579 302.76743,355.69035 302.76743,355.51341 302.50405,355.13031 302.18215,354.83898 301.86024,354.54766 301.51099,353.91831 301.40604,353.44047 301.30108,352.96259 301.0901,352.49429 300.9372,352.39982 300.78429,352.3053 300.65919,351.8374 300.65919,351.36 300.65919,350.8826 300.52366,350.40825 300.35802,350.30589 300.19237,350.20352 300.05513,349.89056 300.05303,349.61047 300.04895,349.06681 298.48173,345.82088 297.84991,345.0475 297.64143,344.79231 297.29159,344.17695 297.07247,343.68 296.85337,343.18306 296.55802,342.57318 296.41614,342.32471 296.27427,342.07624 295.92205,341.39859 295.63342,340.81883 295.34479,340.23906 294.6634,338.9724 294.11921,338.004 293.57502,337.03563 293.12978,336.05304 293.12978,335.82047 293.12978,335.58793 292.99425,335.39765 292.82861,335.39765 292.66296,335.39765 292.52743,334.99907 292.52743,334.51189 292.52743,334.02474 292.40621,333.55122 292.25806,333.45967 292.10991,333.36811 291.91754,332.7841 291.83055,332.1619 291.48121,329.6628 290.2121,325.24026 289.64774,324.5553 289.38653,324.23827 289.24255,322.1978 289.165,317.71386 289.0865,313.1755 288.94676,311.21652 288.68271,310.95245 288.23243,310.50219 288.16516,305.40565 288.60591,305.13327 289.11891,304.81622 290.09546,305.56096 290.68733,306.72064 291.00155,307.33629 291.54411,308.09817 291.89303,308.41375 292.24195,308.72928 292.52743,309.14614 292.52743,309.34007 292.52743,309.534 292.86625,310.01097 293.28037,310.4 293.69449,310.78903 294.03331,311.26167 294.03331,311.45026 294.03331,311.84113 295.59077,313.41177 295.97834,313.41177 296.11892,313.41177 296.94684,314.05553 297.81816,314.84236 299.83097,316.65999 302.65181,318.83295 302.99853,318.83295 303.14497,318.83295 303.58309,319.17177 303.97213,319.58589 304.36118,320 304.8338,320.33883 305.0224,320.33883 305.211,320.33883 305.75485,320.74542 306.23096,321.24236 306.70706,321.7393 307.21581,322.14589 307.36152,322.14589 307.50722,322.14589 308.07067,322.48471 308.61359,322.89883 309.15653,323.31295 309.70382,323.65177 309.82984,323.65177 309.95581,323.65177 310.6457,324.04778 311.36291,324.53184 313.14223,325.73268 314.12693,326.15629 317.97684,327.37717 325.37933,329.72463 328.01767,330.25891 333.33684,330.48766 337.45982,330.66496 342.80788,330.06944 344.54251,329.23985 345.00526,329.01855 345.92602,328.59874 346.58861,328.30699 347.78726,327.77918 352.45381,323.49376 352.47007,322.90591 352.47477,322.73637 353.08465,321.94536 353.82537,321.14815 354.56607,320.3509 355.17213,319.60401 355.17213,319.48839 355.17213,319.37274 355.6439,318.7375 356.22047,318.07672 356.79708,317.41594 357.27143,316.7663 357.27459,316.63309 357.27778,316.49984 357.68633,315.95773 358.18252,315.42838 358.67868,314.89901 359.08526,314.32008 359.08605,314.14191 359.0868,313.96373 359.42625,313.49962 359.84037,313.11059 360.25449,312.72156 360.59331,312.24459 360.59331,312.05066 360.59331,311.85673 360.86437,311.45277 361.19566,311.15295 361.52696,310.85312 361.79802,310.44213 361.79802,310.23963 361.79802,310.03709 361.98821,309.71356 362.22066,309.52065 362.4531,309.32772 363.00297,308.46407 363.44253,307.60141 363.88213,306.73875 364.50141,305.62636 364.81872,305.12942 365.13605,304.63248 365.87935,303.27718 366.4705,302.11765 367.06165,300.95812 367.79402,299.60283 368.09797,299.10589 369.31171,297.12152 370.83331,294.36706 370.83331,294.15422 370.83331,294.03016 371.10437,293.68335 371.43566,293.38353 371.76696,293.08371 372.03802,292.7028 372.03802,292.53704 372.03802,292.3713 372.37684,291.79146 372.79096,291.24852 373.20508,290.70559 373.5439,290.1378 373.5439,289.98677 373.5439,289.83575 373.81496,289.46688 374.14625,289.16706 374.47755,288.86724 374.74861,288.46662 374.74861,288.27679 374.74861,288.08695 375.71141,286.98984 376.88816,285.83876 378.06492,284.68768 379.37485,283.37318 379.79913,282.91765 380.50143,282.16359 380.76298,282.08942 382.71933,282.08942 383.90118,282.08942 384.99689,282.21231 385.15425,282.36251 385.31162,282.5127 385.95104,282.70144 386.5752,282.7819 387.19936,282.86237 387.9046,283.08966 388.1424,283.28701 388.68618,283.73831 392.25145,283.55539 393.72272,283.00072 394.30249,282.78215 395.57517,282.21663 396.55092,281.74401 397.52664,281.27139 398.49793,280.88471 398.70933,280.88471 398.92073,280.88471 399.13887,280.77451 399.1941,280.63984 399.37466,280.1994 403.77614,278.20296 405.31802,277.86213 406.41231,277.62023 407.93518,277.61865 410.88978,277.85634 413.12602,278.03624 416.0399,278.23853 417.36508,278.30586 420.79337,278.48005 423.94042,278.94241 426.55096,279.65542 427.79331,279.99475 429.41966,280.42843 430.16508,280.61915 430.91049,280.80988 432.13025,281.23588 432.87566,281.56582 433.62108,281.89577 434.50202,282.27149 434.83331,282.40076 435.80777,282.78098 440.18519,284.80067 441.0539,285.27085 441.49358,285.50882 442.04248,285.70353 442.27367,285.70353 442.50485,285.70353 442.86343,285.87295 443.07049,286.08 443.27755,286.28706 443.54183,286.46817 443.65778,286.48248 443.90243,286.51267 444.69832,286.813 445.97684,287.35759 446.47378,287.56926 447.42249,287.91021 448.08508,288.11525 448.74766,288.3203 449.52512,288.60695 449.81275,288.75227 450.1004,288.89758 450.66839,289.01648 451.07498,289.01648 451.48157,289.01648 451.898,289.152 452.00037,289.31765 452.11181,289.49798 454.1058,289.61883 456.96978,289.61883 459.83376,289.61883 461.82776,289.73968 461.93919,289.92 462.05063,290.10033 464.04462,290.22118 466.90861,290.22118 469.77259,290.22118 471.76658,290.10033 471.87802,289.92 471.98039,289.75436 472.66788,289.61883 473.40576,289.61883 474.14365,289.61883 474.98269,289.49911 475.27035,289.35279 475.55797,289.20647 476.1999,288.9056 476.69684,288.68419 477.19378,288.46279 478.31452,287.8371 479.18739,287.29376 480.06026,286.75043 480.88073,286.30589 481.01068,286.30589 481.1406,286.30589 481.70667,285.83153 482.2686,285.25177 482.83054,284.672 483.43774,284.19765 483.61797,284.19765 484.0326,284.19765 487.08743,281.12302 487.08743,280.7057 487.08743,280.53485 487.46013,280.03755 487.91566,279.6006 488.37119,279.16366 488.96303,278.359 489.2309,277.81248 490.97128,274.26144 492.5086,270.29065 492.5086,269.34648 492.5086,268.96723 492.63904,268.5265 492.79846,268.36707 492.9579,268.20765 493.23929,267.06242 493.42382,265.82213 493.60832,264.58184 493.89369,263.12538 494.05795,262.58556 494.22796,262.02681 494.26908,260.59984 494.15342,259.27262 493.92534,256.65492 494.27663,254.85992 495.21402,253.85377 495.54817,253.49511 495.82155,253.11425 495.82155,253.00743 495.82155,252.90062 496.44215,252.12295 497.20066,251.27931 498.17431,250.19637 498.5358,249.56353 498.43024,249.12682 498.34799,248.7866 498.06784,247.76283 497.80765,246.85177 497.54747,245.94071 497.33297,244.78865 497.33101,244.29166 497.32707,243.29406 498.06224,239.53784 498.35374,239.06617 498.45524,238.90194 498.54559,237.23052 498.55452,235.3519 498.57219,231.63179 498.39344,231.02119 496.76155,229.22788 496.24455,228.65973 495.82155,228.08129 495.82155,227.94246 495.82155,227.80364 495.58437,227.42688 495.29449,227.10521 495.0046,226.78354 494.25714,225.50434 493.6335,224.26254 L 492.49954,222.00471 492.50409,215.61888 C 492.50655,212.10667 492.63088,208.92173 492.78036,208.54123 493.21496,207.43485 493.74722,201.82969 493.78268,197.98589 493.8126,194.73854 493.86179,194.44706 494.37981,194.44706 494.69027,194.44706 495.3097,194.78589 495.75631,195.2 496.20293,195.61412 496.73914,195.95295 496.94789,195.95295 497.15663,195.95295 497.32743,196.07303 497.32743,196.21981 497.32743,196.36657 497.7679,196.71017 498.30625,196.98334 498.8446,197.25651 499.89496,197.94962 500.64037,198.52358 501.38578,199.09754 502.19896,199.65493 502.44743,199.76223 502.6959,199.86953 503.30578,200.25007 503.80272,200.60787 504.29966,200.96567 505.20816,201.49111 505.82163,201.7755 506.43506,202.05989 507.11271,202.46003 507.32751,202.6647 507.97308,203.27987 516.24739,207.39765 516.83794,207.39765 517.13924,207.39765 517.51453,207.51655 517.6719,207.66188 518.04075,208.00253 521.32252,209.22339 522.40404,209.42232 522.86162,209.50648 523.31007,209.69523 523.40067,209.84178 523.49123,209.98833 523.88978,210.10824 524.28634,210.10824 524.68286,210.10824 525.31865,210.23064 525.69913,210.38024 526.97409,210.88152 531.49942,212.22993 532.56508,212.42609 533.14484,212.53281 537.07519,212.70773 541.29919,212.81481 548.62624,213.00055 551.48031,213.30901 555.59059,214.35938 557.04096,214.73003 559.17043,215.19415 560.4239,215.41283 560.92084,215.49952 561.59849,215.68636 561.92978,215.82801 562.26108,215.96968 563.07425,216.15997 563.73684,216.25088 564.39943,216.34181 565.89025,216.6329 567.04978,216.89776 568.20931,217.16261 569.70013,217.44513 570.36272,217.52558 571.02531,217.60602 571.83849,217.78897 572.16978,217.93215 572.50108,218.07531 573.44978,218.27383 574.27802,218.37329 575.10625,218.47275 576.46155,218.6839 577.28978,218.84252 578.11802,219.00113 579.94766,219.28348 581.35566,219.46994 582.76366,219.65641 584.18672,219.92425 584.51802,220.06514 584.84931,220.20603 585.89966,220.39512 586.85213,220.48536 587.8046,220.57559 589.36319,220.72324 590.31566,220.81347 591.26813,220.9037 592.31849,221.1024 592.64978,221.25502 592.98108,221.40763 594.2686,221.59303 595.51096,221.66702 596.75331,221.741 599.12508,222.02783 600.78155,222.3044 602.43802,222.58097 604.94531,222.86792 606.35331,222.94206 607.76131,223.01618 609.18437,223.20078 609.51566,223.35226 609.84696,223.50373 611.47331,223.6959 613.12978,223.77929 621.52435,224.20192 625.15157,224.7354 627.45981,225.8869 627.99437,226.15358 628.74174,226.37177 629.12062,226.37177 629.49953,226.37177 629.89329,226.5073 629.99566,226.67295 630.237,227.06344 631.56139,227.06344 631.80272,226.67295 631.90509,226.5073 632.76694,226.37177 633.7179,226.37177 634.6689,226.37177 635.57571,226.24523 635.73308,226.09056 635.89044,225.9359 637.30672,225.74315 638.88037,225.66222 642.49596,225.47627 646.36177,225.04247 650.0239,224.41177 651.59755,224.14076 653.49496,223.8511 654.24037,223.7681 654.98578,223.6851 655.86672,223.49809 656.19802,223.35253 656.52931,223.20698 657.47802,223.02491 658.30625,222.94794 661.512,222.65003 665.25677,222.08584 665.75628,221.8255 666.04393,221.67559 668.10274,221.55295 670.33145,221.55295 672.70803,221.55295 674.4606,221.4284 674.56978,221.25177 674.67248,221.08561 676.02266,220.95059 677.58155,220.95059 679.14044,220.95059 680.49061,220.81557 680.59331,220.64942 680.69568,220.48377 681.47335,220.34824 682.32146,220.34824 683.16957,220.34824 684.27971,220.21839 684.7884,220.05968 685.29711,219.90098 686.86531,219.50509 688.27331,219.17993 689.68131,218.85476 692.34682,218.17209 694.19664,217.66288 697.42501,216.77419 697.7695,216.73991 702.78017,216.80865 706.50262,216.85972 708.18911,216.7729 708.65823,216.50602 709.0213,216.29946 710.32909,216.13177 711.5769,216.13177 712.82037,216.13177 713.92153,215.99624 714.0239,215.83059 714.12627,215.66495 714.4731,215.52942 714.79461,215.52942 715.11614,215.52942 715.37919,215.39389 715.37919,215.22824 715.37919,215.06259 715.61637,214.91715 715.90625,214.90505 716.19613,214.89294 716.8399,214.62389 717.33684,214.30717 717.83378,213.99044 718.56398,213.59001 718.95952,213.41733 719.35502,213.24465 719.96491,212.84689 720.31482,212.53343 723.56312,209.62322 726.21968,207.39765 726.44511,207.39765 726.5957,207.39765 727.03723,207.05883 727.42625,206.64471 727.81528,206.23059 728.29668,205.89177 728.496,205.89177 728.69532,205.89177 729.01965,205.69744 729.21675,205.45995 729.51855,205.0963 730.56547,204.49573 733.75096,202.85891 735.04493,202.19402 738.26283,200.7716 738.47551,200.77051 738.61017,200.76981 739.38712,200.43099 740.20201,200.01757 741.0169,199.60415 741.84758,199.26589 742.04795,199.26589 742.39409,199.26589 745.35598,198.04363 746.47157,197.44042 746.75922,197.2849 747.30812,197.15765 747.69133,197.15765 748.07458,197.15765 748.51689,197.04176 748.67425,196.90013 749.28769,196.348 756.38392,194.44706 757.83162,194.44706 758.31642,194.44706 758.78796,194.32585 758.87952,194.1777 758.97108,194.02955 759.5551,193.84071 760.17729,193.75805 761.39851,193.59583 766.14851,192.49491 767.65469,192.02502 768.16338,191.86632 769.07022,191.73648 769.66987,191.73648 770.26951,191.73648 770.84388,191.60095 770.94625,191.4353 771.04862,191.26965 771.51442,191.13412 771.98137,191.13412 772.44831,191.13412 773.31691,190.93083 773.91158,190.68236 774.50625,190.43389 775.59903,190.23059 776.33999,190.23059 777.08094,190.23059 777.77094,190.09506 777.87331,189.92942 777.97568,189.76377 778.52764,189.62824 779.09988,189.62824 779.67212,189.62824 780.37564,189.50656 780.66329,189.35785 780.95091,189.20913 782.8126,188.57568 784.80037,187.95019 786.78813,187.32468 788.9566,186.58397 789.61919,186.30416 790.74276,185.82968 792.73878,185.03713 794.13684,184.51034 794.46813,184.3855 795.41684,183.97797 796.24508,183.60471 797.07331,183.23145 798.02202,182.81717 798.35331,182.68411 800.25762,181.91922 803.33452,180.39472 804.37684,179.69965 805.03943,179.25779 806.08403,178.66451 806.69816,178.38126 807.31231,178.09799 807.90485,177.7205 808.01493,177.54239 808.12501,177.36428 808.639,177.02611 809.15714,176.79091 809.67526,176.55572 810.70908,175.89244 811.45449,175.31696 812.1999,174.74147 813.10156,174.14291 813.45819,173.98683 813.81478,173.83074 814.19324,173.56278 814.29919,173.39135 814.40514,173.21991 814.96043,172.85728 815.53317,172.58551 816.10588,172.31374 816.57449,171.97128 816.57449,171.82451 816.57449,171.67774 816.83754,171.55765 817.15907,171.55765 817.48058,171.55765 817.82916,171.41929 817.93367,171.25019 818.03818,171.08108 819.66745,170.18625 821.55429,169.26168 823.44113,168.33711 825.14208,167.39123 825.3342,167.15973 825.52636,166.92823 825.83636,166.73765 826.02312,166.73621 826.2099,166.73478 826.86192,166.26043 827.47201,165.68209 828.08214,165.10377 828.69769,164.63059 828.83987,164.63059 828.98205,164.63059 829.6013,164.15624 830.21597,163.57648 830.83062,162.99671 831.44435,162.52236 831.5798,162.52236 831.71523,162.52236 832.35869,162.07707 833.00969,161.53283 834.39591,160.37392 837.29847,158.81566 839.01213,158.31034 840.13414,157.9795 841.45049,157.79723 846.84272,157.22606 848.92102,157.00592 850.82937,156.22896 851.30004,155.41133 851.4325,155.18122 851.66706,154.99295 851.82126,154.99295 851.97547,154.99295 852.81578,154.54304 853.68864,153.99314 854.56152,153.44325 856.1566,152.55984 857.23331,152.03003 858.31002,151.5002 859.39425,150.9443 859.64272,150.79467 860.78963,150.104 867.69073,146.86118 868.01362,146.86118 868.2134,146.86118 868.37684,146.72565 868.37684,146.56 868.37684,146.39436 868.58197,146.25883 868.8327,146.25883 869.0834,146.25883 869.52387,146.13954 869.81152,145.99375 870.09915,145.84795 872.43519,144.68796 875.00272,143.41598 877.57025,142.144 880.48413,140.64751 881.47802,140.09042 882.4719,139.53334 884.26365,138.58619 885.45966,137.98564 886.65569,137.3851 887.71182,136.76828 887.80658,136.61493 887.90136,136.46159 888.48137,136.1042 889.09552,135.82073 889.70965,135.53727 890.92628,134.856 891.79916,134.30679 892.67202,133.75759 893.49809,133.30824 893.63483,133.30824 893.77159,133.30824 894.12878,133.03718 894.4286,132.70589 894.72843,132.37459 895.22377,132.10353 895.5294,132.10353 895.835,132.10353 896.08508,131.97436 896.08508,131.81648 896.08508,131.65861 896.59331,131.29776 897.21449,131.01461 897.83566,130.73145 898.75049,130.209 899.24743,129.85362 899.74437,129.49824 900.64052,128.98064 901.23886,128.70341 901.83724,128.42618 902.4976,127.99356 902.70635,127.74203 902.9151,127.4905 903.25711,127.28471 903.46634,127.28471 903.6756,127.28471 904.235,127.08224 904.70947,126.8348 905.87773,126.2255 908.99435,126.22422 909.22794,126.83295 909.42544,127.34765 910.3007,127.42359 911.0727,126.99302 911.74733,126.61675 914.36287,125.77883 914.86277,125.77883 916.3022,125.77883 921.3839,122.14005 921.3839,121.10932 921.3839,120.69886 923.86042,118.24942 924.27544,118.24942 924.44521,118.24942 924.97368,117.84283 925.44978,117.34589 925.92588,116.84895 926.47676,116.44236 926.67394,116.44236 926.87116,116.44236 927.2185,116.21797 927.44586,115.94373 927.67319,115.66948 928.8079,114.69649 929.96743,113.78153 931.12696,112.86656 932.48225,111.74529 932.97919,111.2898 934.56287,109.83824 937.69296,107.26845 938.30751,106.91528 938.63408,106.72763 939.33712,106.15163 939.86984,105.63528 940.40259,105.11894 940.98482,104.69648 941.16372,104.69648 941.34259,104.69648 941.65536,104.496 941.85872,104.25096 942.06207,104.00592 942.5869,103.61782 943.02499,103.38851 944.39022,102.67392 945.29599,102.14718 946.17929,101.5541 947.67388,100.55058 950.02079,99.93314 951.15265,100.24566 952.1759,100.5282 955.90333,100.40944 957.82625,100.03305 958.40602,99.91956 959.55802,99.51215 960.38625,99.12768 961.21449,98.7432 962.52771,98.14514 963.30446,97.79864 964.08122,97.45215 964.79708,97.03868 964.89524,96.87984 964.9934,96.72098 965.259,96.6621 965.48545,96.74898 965.7118,96.83586 965.9838,96.76658 966.08988,96.59504 966.19585,96.42348 967.12442,95.86083 968.15322,95.34472 971.03868,93.89728 972.35679,93.16162 973.38729,92.42353 973.90757,92.05083 974.46522,91.74589 974.62644,91.74589 974.78766,91.74589 975.08188,91.55028 975.28028,91.31121 975.47868,91.07215 976.61345,90.37746 977.80188,89.76749 978.9903,89.15751 980.14663,88.51134 980.37129,88.33157 980.93232,87.88273 981.76696,87.42302 987.49213,84.40933 988.32037,83.97335 989.39209,83.61608 989.87369,83.61538 L 990.74926,83.61412 990.54202,88.65883 C 990.42804,91.43342 990.1903,94.31342 990.01383,95.05883 989.83726,95.80424 989.62569,97.09177 989.54352,97.92 989.46145,98.74824 989.27124,99.55464 989.12084,99.712 988.97044,99.86937 988.84743,100.25973 988.84743,100.57948 988.84743,100.90123 987.90597,102.08559 986.73919,103.23177 985.57966,104.37078 984.63096,105.50512 984.63096,105.75253 984.63096,105.99993 984.5183,106.20236 984.3807,106.20236 984.243,106.20236 983.9439,106.57506 983.71604,107.03059 983.48809,107.48612 983.14286,108.06212 982.94879,108.31059 982.64762,108.6963 980.66446,112.32538 979.30428,114.98008 979.0798,115.41818 978.69562,115.94301 978.45063,116.14637 978.20555,116.34973 978.00112,116.66893 977.99623,116.8557 977.9854,117.27294 976.50578,118.88247 975.71999,119.33181 973.3182,120.70525 972.18324,121.15057 970.0239,121.56675 969.03002,121.75831 967.91246,121.97364 967.54051,122.04528 967.16856,122.1169 966.76197,122.19521 966.63698,122.2193 964.95915,122.54271 961.16743,123.81102 959.63331,124.56196 956.85129,125.92382 956.38456,126.20697 955.45646,127.09617 955.00244,127.53116 954.50286,127.88824 954.34625,127.88967 954.18964,127.89111 953.56235,128.36546 952.95228,128.94379 952.34211,129.52212 951.70879,129.9953 951.54475,129.9953 951.38079,129.9953 950.86343,130.30837 950.39519,130.69103 949.92696,131.07368 948.78606,131.75077 947.85995,132.19568 945.45486,133.35101 944.57449,134.57132 944.57449,136.74991 944.57449,137.48779 944.43896,138.17527 944.27331,138.27765 944.10766,138.38002 943.97213,139.39649 943.97213,140.53648 943.97213,141.67645 943.8541,142.6821 943.70987,142.77125 943.5656,142.86041 943.36373,143.35267 943.26121,143.86518 943.04159,144.96332 940.2623,148.00284 939.24414,148.25838 938.86288,148.35407 938.55096,148.5532 938.55096,148.70089 938.55096,148.84858 938.31378,148.97024 938.0239,148.97127 937.73402,148.97229 937.10865,149.17558 936.63418,149.42304 936.15971,149.67048 935.52396,149.87295 935.22136,149.87295 934.91877,149.87295 934.58745,150.00848 934.48508,150.17412 934.3827,150.33977 934.03439,150.4753 933.71108,150.4753 933.38774,150.4753 932.54869,150.73451 931.8465,151.05133 931.1443,151.36815 930.02766,151.79187 929.36508,151.99294 928.70249,152.194 927.94608,152.54496 927.68415,152.77285 927.42224,153.00074 927.13661,153.11586 927.04942,153.02867 926.96226,152.94148 926.71948,153.07672 926.50995,153.32919 926.3004,153.58167 925.8745,153.78824 925.5635,153.78824 925.25248,153.78824 924.99802,153.92377 924.99802,154.08942 924.99802,154.25506 924.74355,154.39059 924.43253,154.39059 924.12154,154.39059 923.69835,154.59389 923.49213,154.84236 923.28592,155.09083 922.95152,155.29412 922.74898,155.29412 922.54647,155.29412 922.13548,155.56518 921.83566,155.89648 921.53584,156.22777 921.14215,156.49994 920.96075,156.50129 920.77938,156.50265 920.02108,157.10637 919.27566,157.8429 918.53025,158.57944 917.75954,159.18821 917.56297,159.19573 917.36641,159.20326 915.83312,160.56471 914.15566,162.22118 912.4782,163.87765 910.93762,165.23295 910.73213,165.23295 910.52667,165.23295 909.89878,165.7073 909.33684,166.28706 908.7749,166.86683 908.16207,167.34118 907.97495,167.34118 907.78786,167.34118 907.31645,167.68 906.92743,168.09412 906.5384,168.50824 906.06597,168.84706 905.87758,168.84706 905.68924,168.84706 905.27241,169.09108 904.95129,169.38932 904.63018,169.68757 904.16413,170.02352 903.91566,170.13589 903.66719,170.24826 902.92178,170.67317 902.25919,171.08016 899.13594,172.99859 891.80425,176.67765 891.10443,176.67765 890.9027,176.67765 890.57018,176.87945 890.36546,177.12609 890.16078,177.37275 889.88704,177.50889 889.75721,177.42864 889.52081,177.28255 883.38286,180.32298 882.53213,181.00757 882.28366,181.20752 881.47049,181.67955 880.72508,182.05654 879.07436,182.89137 877.63064,183.90813 876.14749,185.2804 875.53231,185.8496 874.9214,186.31637 874.78997,186.31769 874.65851,186.31902 873.42089,187.40325 872.03965,188.7271 870.65843,190.05096 869.41852,191.13412 869.28428,191.13412 869.15005,191.13412 868.02434,192.08283 866.78274,193.24236 865.54111,194.40189 864.40076,195.35059 864.24861,195.35059 863.90729,195.35059 858.51376,200.93665 857.68508,202.14843 856.98414,203.17341 856.0286,205.20999 856.0286,205.67898 856.0286,206.27647 854.75249,208.6464 854.05542,209.34347 853.67591,209.72299 852.91426,210.35004 852.36286,210.73692 849.71484,212.59497 847.85458,214.7536 846.51851,217.5188 845.78577,219.0353 845.18625,220.43375 845.18625,220.62645 845.18625,221.63546 841.46913,224.56471 840.18874,224.56471 839.66072,224.56471 837.35566,225.83538 837.35566,226.12646 837.35566,226.26138 837.13638,226.37177 836.86836,226.37177 836.60034,226.37177 835.92769,226.74448 835.37356,227.2 833.53702,228.70974 832.48715,229.52895 831.80323,229.98589 829.16788,231.74657 828.29516,232.29144 826.96508,233.00648 826.13684,233.45173 824.71378,234.05484 823.80272,234.34673 822.89166,234.63862 821.91091,234.99661 821.62329,235.14225 821.33564,235.2879 820.44792,235.40706 819.65058,235.40706 818.85322,235.40706 818.07209,235.52871 817.91472,235.67739 817.75736,235.82607 817.08649,236.01373 816.4239,236.0944 815.11851,236.25335 812.74629,236.9171 811.3039,237.52699 810.80696,237.73711 810.19954,237.94859 809.95408,237.99694 809.7086,238.04528 809.46012,238.22776 809.40191,238.40242 809.34369,238.57709 809.10877,238.72 808.87988,238.72 808.27524,238.72 806.46616,240.39172 805.67937,241.67753 805.30636,242.28713 804.62413,243.19248 804.16333,243.68942 803.70253,244.18636 803.32489,244.73873 803.32411,244.91692 803.32335,245.0951 802.9839,245.5592 802.56978,245.94824 802.15566,246.33728 801.81684,246.81867 801.81684,247.01798 801.81684,247.21728 801.60996,247.55206 801.35709,247.76191 800.83244,248.19733 796.39566,257.14448 796.39566,257.76705 796.39566,257.99198 796.27996,258.30476 796.13852,258.46212 795.99708,258.61949 795.50963,259.968 795.05525,261.45883 794.60086,262.94965 794.10669,264.48073 793.95707,264.86123 793.58202,265.81521 793.60728,273.57285 793.98625,273.80706 794.1519,273.90944 794.28851,274.62896 794.28981,275.40601 794.29279,277.16685 795.5627,283.35013 796.42764,285.81532 797.34823,288.43903 799.24007,292.013 800.30556,293.14131 800.80546,293.67069 801.21449,294.24719 801.21449,294.42244 801.21449,294.59769 801.82362,295.38434 802.5681,296.17055 803.31258,296.95675 803.92246,297.74282 803.92339,297.91738 803.92432,298.09194 804.39943,298.69454 804.97919,299.25648 805.55896,299.8184 806.03331,300.42666 806.03331,300.60816 806.03331,300.78964 806.64319,301.53668 807.3886,302.26824 808.13402,302.9998 808.7439,303.74005 808.7439,303.91327 808.7439,304.08644 809.48931,305.01011 810.40037,305.96587 811.31143,306.9216 812.05684,307.87548 812.05684,308.08555 812.05684,308.29565 812.66672,309.06609 813.41213,309.79765 814.15755,310.52921 814.76743,311.2736 814.76743,311.45183 814.76743,311.63004 815.51284,312.51203 816.4239,313.41177 817.33496,314.3115 818.08155,315.18784 818.08299,315.35911 818.08441,315.53042 819.02872,316.6193 820.1814,317.77883 821.33413,318.93836 822.28263,320.02259 822.28919,320.18824 822.29579,320.35389 823.19681,321.43812 824.2915,322.59765 825.38616,323.75718 826.63884,325.17015 827.07521,325.7376 827.51159,326.30504 828.68178,327.64036 829.67566,328.70502 830.66955,329.76968 831.60979,330.8635 831.76505,331.1357 831.92033,331.4079 832.51822,332.13949 833.09366,332.76145 833.66911,333.38338 834.36971,334.26486 834.65055,334.72024 834.9314,335.17565 835.45165,335.8064 835.80666,336.12198 836.16168,336.43752 836.45554,336.84411 836.45972,337.02551 836.46388,337.20688 837.31094,338.25506 838.34207,339.35477 840.04969,341.17599 841.83401,343.41804 842.638,344.75273 842.81012,345.03846 843.13639,345.49565 843.36302,345.76875 843.8824,346.39456 845.18625,348.95426 845.18625,349.34808 845.18625,349.51056 845.50424,350.33465 845.89287,351.17938 847.02587,353.64202 847.98412,356.52958 848.12661,357.91059 L 848.25868,359.19059 H 840.41552 C 835.51165,359.19059 832.50263,359.07771 832.38625,358.88942 832.28388,358.72377 831.33178,358.58824 830.27046,358.58824 828.40942,358.58824 827.40401,358.29646 825.00743,357.06079 821.979,355.49934 819.33095,354.37177 818.69245,354.37177 818.37534,354.37177 818.04101,354.25055 817.94945,354.1024 817.56771,353.48474 810.95622,352.96048 809.35162,353.42065 808.7689,353.58774 807.50652,353.89328 806.54634,354.09959 805.58616,354.3059 804.73108,354.58707 804.64621,354.72441 804.56134,354.86175 804.27803,354.97412 804.01666,354.97412 803.10937,354.97412 798.64716,357.38022 797.32338,358.58327 796.59128,359.2486 795.8862,359.79295 795.75651,359.79295 795.62685,359.79295 794.41684,360.8433 793.06757,362.12706 791.71834,363.41083 790.45963,364.5172 790.27046,364.58565 790.08129,364.65411 789.45078,365.16117 788.86932,365.71245 788.28787,366.26372 787.66371,366.71597 787.48235,366.71738 787.30094,366.71883 786.91014,366.98786 786.61385,367.31524 786.31757,367.64262 785.96472,367.84224 785.82973,367.75882 785.69477,367.67539 784.86582,367.95528 783.98764,368.3808 782.56591,369.06966 781.73075,369.3474 779.3051,369.93801 778.93303,370.02861 778.16714,369.88371 777.6031,369.61605 777.03905,369.3484 776.44965,369.12942 776.29331,369.12942 776.13693,369.12942 775.76372,368.85836 775.4639,368.52706 775.16408,368.19577 774.77038,367.92407 774.58898,367.92332 774.40762,367.92254 773.82607,367.51595 773.29669,367.01979 772.76734,366.5236 772.20173,366.11765 772.03982,366.11765 771.87788,366.11765 771.3623,365.80406 770.89405,365.42079 770.42582,365.03751 769.56837,364.48934 768.9886,364.20265 768.40884,363.91596 767.5279,363.42374 767.03096,363.10883 766.12918,362.53735 759.85052,359.40563 756.55839,357.88523 755.60227,357.44365 754.5599,357.08236 754.24207,357.08236 753.92421,357.08236 753.59454,356.96972 753.50946,356.83208 753.42438,356.6944 752.42079,356.40555 751.27928,356.19015 749.17764,355.79362 746.87105,355.884 744.21684,356.46696 743.43002,356.63978 742.21025,356.90929 741.50625,357.06588 740.80225,357.22246 739.68413,357.46982 739.02155,357.6155 738.35896,357.76121 737.52081,358.03968 737.15898,358.23432 736.79718,358.42897 735.8226,358.58824 734.99325,358.58824 734.1639,358.58824 733.40156,358.72377 733.29919,358.88942 733.19444,359.05891 731.7459,359.19059 729.98625,359.19059 728.2266,359.19059 726.77806,359.32226 726.67331,359.49177 726.57094,359.65742 725.9282,359.79295 725.24501,359.79295 723.97404,359.79295 721.06131,360.65344 719.44508,361.50637 718.32172,362.0992 716.02037,364.25599 715.64944,365.06353 715.49728,365.39483 715.03305,366.208 714.61785,366.87059 714.20262,367.53318 713.72827,368.34636 713.56373,368.67765 713.39916,369.00895 712.9243,369.82212 712.50844,370.48471 712.09258,371.1473 711.67292,371.89271 711.57588,372.14118 711.47881,372.38965 711.2217,372.99953 711.00448,373.49648 709.48587,376.97075 709.38187,377.53164 709.33995,382.4736 709.31741,385.12754 709.18766,387.51386 709.0516,387.77654 708.66868,388.51581 707.5486,392.42346 707.5486,393.02015 707.5486,393.31307 707.93243,393.77299 708.40151,394.04222 709.62238,394.7429 710.03617,395.89972 709.85965,398.11858 709.68681,400.29138 709.41828,401.85298 709.07003,402.71058 708.93549,403.04188 708.58046,403.92282 708.28109,404.66823 707.9817,405.41364 707.53704,406.26164 707.29296,406.55266 707.04886,406.84369 706.70157,407.33997 706.52124,407.65554 706.34089,407.97112 705.74669,408.86703 705.20084,409.64644 703.92362,411.47015 703.34202,413.16762 703.33653,415.08743 703.32967,417.48208 702.86925,417.74234 699.04796,417.51154 697.34589,417.40872 695.09968,417.20151 694.05635,417.05104 690.66221,416.5616 687.84058,417.68755 684.83307,420.73154 683.66046,421.91839 681.23018,423.97364 679.43243,425.29882 677.6347,426.624 675.65321,428.1487 675.0291,428.68705 674.40504,429.22541 673.72308,429.66588 673.51371,429.66588 673.30429,429.66588 672.81895,430.0047 672.43516,430.41882 672.05137,430.83294 671.53561,431.17176 671.28901,431.17176 671.0424,431.17176 670.75686,431.30729 670.65449,431.47294 670.55212,431.63858 670.1714,431.77496 669.80848,431.77599 669.44554,431.77697 668.76042,431.98027 668.28594,432.22775 667.81148,432.4752 666.97243,432.67764 666.42136,432.67764 665.8703,432.67764 665.33568,432.81317 665.23331,432.97882 665.13094,433.14447 664.38553,433.28 663.57684,433.28 662.76815,433.28 662.02274,433.41552 661.92037,433.58117 661.818,433.74682 661.11036,433.88235 660.34787,433.88235 659.01043,433.88235 653.00597,435.71001 652.20743,436.36019 652.00037,436.52876 651.83096,436.58996 651.83096,436.49617 651.83096,436.40239 651.18719,436.59782 650.40037,436.9305 649.61355,437.2632 648.69872,437.64501 648.36743,437.77894 644.62649,439.2916 639.72758,441.82471 639.53292,442.34706 639.4777,442.49524 639.18935,442.61647 638.89214,442.61647 638.59495,442.61647 638.18305,442.81976 637.97684,443.06823 637.77063,443.3167 637.4318,443.52 637.2239,443.52 637.01599,443.52 636.66546,443.73742 636.44491,444.00315 636.22439,444.26887 635.76732,444.60939 635.42922,444.75983 634.86159,445.01242 634.33405,445.31992 632.00189,446.75764 630.06057,447.9544 628.75825,448.89961 628.21722,449.50447 627.90168,449.85724 627.4778,450.14588 627.27529,450.14588 627.07275,450.14588 626.73835,450.34917 626.53213,450.59764 626.32592,450.84611 625.84299,451.04941 625.45892,451.04941 625.07486,451.04941 624.67686,451.18494 624.57449,451.35058 624.47212,451.51623 623.86223,451.65176 623.21919,451.65176 622.57615,451.65176 621.97513,451.77298 621.88357,451.92113 621.79201,452.06928 621.20799,452.26111 620.5858,452.34742 619.96357,452.43374 618.8446,452.65119 618.09919,452.83066 615.20386,453.52783 612.47869,454.11096 611.39612,454.26501 610.77392,454.35353 610.1899,454.54719 610.09835,454.69534 610.00679,454.84348 609.74604,454.9647 609.51892,454.9647 608.87898,454.9647 605.2813,456.70072 604.85385,457.21579 604.64411,457.4685 604.31239,457.67529 604.11668,457.67529 603.92101,457.67529 603.30113,458.14964 602.73919,458.72941 602.17725,459.30917 601.54777,459.78352 601.34035,459.78352 601.1329,459.78352 600.59756,460.12235 600.15073,460.53647 599.42553,461.20858 599.0924,461.28667 597.04816,461.264 595.78859,461.25002 593.94484,461.11334 592.95096,460.96029 591.95708,460.80722 590.26296,460.6167 589.18625,460.53689 588.10955,460.45711 586.34766,460.25848 585.27096,460.09552 582.35388,459.65402 576.7251,459.36835 570.96508,459.36947 566.23937,459.3704 564.54379,459.53698 560.87566,460.3608 556.60104,461.32082 555.8649,461.49596 555.45449,461.65056 555.20602,461.74416 554.39284,461.98143 553.64743,462.17785 552.90202,462.37424 551.88555,462.65223 551.3886,462.79556 550.33439,463.09969 547.84291,463.792 547.6239,463.84167 545.16519,464.39945 543.96506,464.74683 543.10625,465.14932 542.52649,465.42104 541.84884,465.6618 541.60037,465.68436 540.92809,465.74535 534.91817,468.77416 534.22155,469.40307 533.89025,469.70214 533.45324,469.99799 533.25043,470.06048 532.76879,470.2089 528.04743,474.8616 528.04743,475.18784 528.04743,475.32559 527.40366,476.17858 526.61684,477.08332 524.12259,479.95136 523.66248,480.71511 522.88647,483.27529 522.36884,484.98305 522.36034,491.5628 522.87512,492.07757 523.06953,492.27198 523.2286,493.07359 523.2286,493.85893 523.2286,494.64425 523.36413,495.37057 523.52978,495.47294 523.69543,495.57531 523.83096,496.22898 523.83096,496.92555 523.83096,498.31662 524.64868,500.81831 525.59838,502.33275 526.19501,503.28414 526.40818,503.71247 527.95521,507.06823 528.37523,507.97929 528.83886,508.96004 528.9855,509.24767 529.4682,510.19444 529.26725,510.66525 528.05342,511.43152 527.08926,512.04015 526.46966,512.18823 524.88698,512.18823 523.80473,512.18823 522.68393,512.06472 522.39628,511.91377 520.32559,510.82698 519.00575,510.63428 514.87267,510.81529 510.48743,511.00736 508.85917,511.29531 506.6639,512.26699 504.6262,513.16896 504.18609,513.33033 503.20037,513.53702 502.70343,513.64123 501.75472,513.84091 501.09213,513.98078 500.42955,514.12064 499.41398,514.38441 498.8353,514.56696 497.38643,515.02396 495.96478,514.98255 495.54019,514.47094 Z"
     id="path375" />
  <g
     id="g1840"
     transform="matrix(0.9409626,0,0,0.9409626,-482.27825,-522.98721)">
    <g
       id="g1112"
       transform="translate(517.96216,551.51297)"
       style="fill:#4d5b2d;fill-opacity:1">
      <path
         style="opacity:1;fill:#4d5b2d;fill-opacity:1;stroke-width:6;paint-order:markers fill stroke"
         d="M 350.52958,559.95405 C 350.52958,559.95405 353.2826,566.30408 357.04327,574.04389 360.80394,581.78369 365.57225,590.91328 369.60285,596.47239 372.27411,600.15666 375.39333,603.65787 379.13949,606.24163 383.94166,609.55374 395.18895,613.21966 395.18895,613.21966 395.18895,613.21966 394.7683,602.5847 392.45815,597.24417 390.29412,592.24145 385.55669,586.10565 381.51235,582.45141 372.14213,573.98499 364.17555,568.22812 358.55152,564.58785 352.9275,560.94758 350.52958,559.95405 350.52958,559.95405 Z"
         id="path811" />
      <path
         style="opacity:1;fill:#4d5b2d;fill-opacity:1;stroke-width:6;paint-order:markers fill stroke"
         d="M 396.1856,571.56707 C 396.1856,571.56707 396.41554,576.08121 396.9502,581.6737 397.48486,587.26618 398.32424,593.93701 399.5431,598.2504 400.86209,602.91815 402.91893,607.4296 405.55127,611.50371 407.68035,614.79891 413.32655,620.33925 413.32655,620.33925 413.32655,620.33925 415.48324,613.45959 415.44708,609.91331 415.39229,604.54043 414.07587,599.10461 411.91286,594.18605 410.06449,589.98297 407.19294,583.62138 403.72321,579.01741 400.25349,574.41343 396.1856,571.56707 396.1856,571.56707 Z"
         id="path813" />
      <path
         style="opacity:1;fill:#4d5b2d;fill-opacity:1;stroke-width:6;paint-order:markers fill stroke"
         d="M 356.99138,614.13565 C 356.99138,614.13565 369.46587,626.84949 377.03798,631.34737 380.63778,633.48567 384.66407,635.04734 388.78245,635.80217 392.63313,636.50794 400.52692,635.80217 400.52692,635.80217 400.52692,635.80217 399.82631,630.88026 394.85717,625.07016 391.267,620.87241 384.24095,618.28609 379.06288,616.36305 368.85249,612.5711 356.99138,614.13565 356.99138,614.13565 Z"
         id="path822" />
      <path
         style="opacity:1;fill:#4d5b2d;fill-opacity:1;stroke-width:6;paint-order:markers fill stroke"
         d="M 397.87949,618.40747 C 397.87949,618.40747 405.17189,633.3415 410.01639,640.04283 413.27443,644.54963 416.87372,648.95487 421.27382,652.35563 435.29668,663.19364 443.08507,662.20587 443.08507,662.20587 443.08507,662.20587 442.51799,654.66578 440.9743,651.30025 437.70256,644.16725 432.45098,637.79738 426.37484,632.83104 418.13198,626.09373 397.87949,618.40747 397.87949,618.40747 Z"
         id="path880" />
      <path
         style="opacity:1;fill:#4d5b2d;fill-opacity:1;stroke-width:6;paint-order:markers fill stroke"
         d="M 395.24103,659.21562 C 395.24103,659.21562 404.31504,667.86605 409.4887,671.35253 413.38153,673.97587 417.52376,676.3771 421.9774,677.86073 425.75431,679.11893 429.78478,679.63552 433.76252,679.79559 443.5035,680.18759 448.18609,678.74021 448.18609,678.74021 448.18609,678.74021 448.17477,673.906 439.74302,667.48279 434.81298,663.72715 428.72875,661.4496 422.68099,660.09511 413.75087,658.09507 395.24103,659.21562 395.24103,659.21562 Z"
         id="path882" />
      <path
         style="opacity:1;fill:#4d5b2d;fill-opacity:1;stroke-width:6;paint-order:markers fill stroke"
         d="M 430.24457,612.07517 C 430.24457,612.07517 433.58533,624.43606 435.87328,630.19258 437.87806,635.23663 440.06504,640.28195 443.08507,644.79205 445.60464,648.55476 448.74976,652.86628 452.28843,655.69189 455.2613,658.06571 462.08197,660.4469 462.08197,660.4469 462.08197,660.4469 461.68655,651.63683 460.49889,647.43051 459.04453,642.27962 456.85591,637.23541 453.8148,632.83104 449.97497,627.2699 444.52812,622.9965 439.56713,618.40747 432.70117,612.05629 430.24457,612.07517 430.24457,612.07517 Z"
         id="path894" />
      <path
         style="opacity:1;fill:#4d5b2d;fill-opacity:1;stroke-width:6;paint-order:markers fill stroke"
         d="M 447.05896,665.08966 C 447.05896,665.08966 454.4618,673.52233 458.689,677.18491 463.81157,681.62326 469.3406,685.64696 475.20367,689.04756 478.59513,691.01462 482.13791,692.8399 485.90331,693.93218 489.73658,695.04414 493.77547,695.4807 497.76596,695.56038 500.18025,695.60859 504.97659,694.86258 504.97659,694.86258 504.97659,694.86258 500.60592,686.21369 497.30076,682.76733 493.445,678.74685 488.54905,675.74323 483.5773,673.23069 477.14364,669.97936 470.17263,667.68793 463.10842,666.25267 457.85197,665.1847 447.05896,665.08966 447.05896,665.08966 Z"
         id="path907" />
      <path
         style="opacity:1;fill:#4d5b2d;fill-opacity:1;stroke-width:6;paint-order:markers fill stroke"
         d="M 483.5773,659.50724 C 483.5773,659.50724 489.98842,669.29627 494.04434,673.46329 498.04764,677.57625 502.72531,681.0312 507.5352,684.16294 511.86566,686.98252 516.27719,689.99955 521.25865,691.37357 525.3756,692.50914 534.0517,692.07137 534.0517,692.07137 534.0517,692.07137 532.4086,685.07958 530.56269,682.06953 527.81064,677.58187 523.91466,673.73121 519.63044,670.67208 513.92776,666.6001 507.28167,663.8037 500.55717,661.83325 495.07487,660.2268 483.5773,659.50724 483.5773,659.50724 Z"
         id="path909" />
      <path
         style="opacity:1;fill:#4d5b2d;fill-opacity:1;stroke-width:6;paint-order:markers fill stroke"
         d="M 454.965,705.09702 C 454.965,705.09702 461.13278,709.91573 471.01685,712.77285 475.90451,714.18569 480.83875,715.07865 485.90331,715.56406 490.23158,715.9789 498.80407,715.42771 503.11578,714.86626 508.36762,714.1824 514.28062,710.67944 514.28062,710.67944 514.28062,710.67944 510.35932,704.89957 506.13959,703.00361 498.76776,699.6914 488.05288,698.55616 479.97558,698.82397 463.76672,699.3614 454.965,705.09702 454.965,705.09702 Z"
         id="path924" />
      <path
         style="opacity:1;fill:#4d5b2d;fill-opacity:1;stroke-width:6;paint-order:markers fill stroke"
         d="M 508.29379,697.61086 C 508.29379,697.61086 522.23732,708.80303 529.44332,712.76802 535.8291,716.28169 542.75472,719.02545 549.88787,720.52285 562.54162,723.17914 574.56233,721.22784 574.56233,721.22784 574.56233,721.22784 572.62049,715.61915 570.68491,713.47301 565.55478,707.7848 558.49428,703.75975 551.29784,701.13578 542.94545,698.09032 533.73794,698.09647 524.86092,697.61086 519.81471,697.33481 508.29379,697.61086 508.29379,697.61086 Z"
         id="path926" />
      <path
         style="opacity:1;fill:#4d5b2d;fill-opacity:1;stroke-width:6;paint-order:markers fill stroke"
         d="M 554.47027,687.74107 C 554.47027,687.74107 565.8766,704.93528 573.50485,711.71055 578.3565,716.01969 584.00059,719.64254 590.07198,721.93282 595.31327,723.90996 607.10374,724.75276 607.10374,724.75276 607.10374,724.75276 607.3353,720.88843 606.27453,718.27561 604.05533,712.80943 599.0332,707.12724 594.30189,703.60322 586.96818,698.14085 578.59684,693.97447 569.97993,690.9135 565.00742,689.14712 554.47027,687.74107 554.47027,687.74107 Z"
         id="path943" />
      <path
         style="opacity:1;fill:#4d5b2d;fill-opacity:1;stroke-width:6;paint-order:markers fill stroke"
         d="M 536.05009,734.78305 C 536.05009,734.78305 551.10815,738.75691 558.81625,739.66151 563.93194,740.26187 569.13013,740.41843 574.26471,740.00997 578.97342,739.63539 583.91546,739.43646 588.20317,737.45459 594.64795,734.47568 598.07625,730.94997 598.07625,730.94997 594.40195,726.53857 587.92818,725.55781 583.0924,724.90997 577.37302,724.1542 571.51633,724.36285 565.78548,725.02612 559.19827,725.7885 552.61605,727.16374 546.38778,729.43997 542.74452,730.77147 536.05009,734.78305 536.05009,734.78305 Z"
         id="path961" />
      <path
         style="opacity:1;fill:#4d5b2d;fill-opacity:1;stroke-width:6;paint-order:markers fill stroke"
         d="M 604.43019,730.48302 C 605.53185,731.12415 606.16363,731.64782 606.55549,732.11151 606.55549,732.11151 617.19606,734.87681 622.35241,736.75766 626.24508,738.17756 630.26558,739.48762 633.73549,741.75228 637.52182,744.22345 640.62307,747.63865 643.72472,750.92844 647.25484,754.6727 653.48165,762.89228 653.48165,762.89228 L 655.11014,765.36207 656.33838,765.29699 C 656.33838,765.29699 657.03357,758.13713 658.17725,755.0526 659.31583,751.98183 662.64288,749.90031 662.64288,749.90031 L 662.70958,748.20979 C 652.56544,742.07833 641.42648,735.7997 630.59934,733.15689 625.45143,731.91377 620.20369,730.9388 614.91856,730.60151 611.51632,730.38438 604.43019,730.48302 604.43019,730.48302 Z"
         id="path1031" />
      <path
         style="opacity:1;fill:#4d5b2d;fill-opacity:1;stroke-width:6;paint-order:markers fill stroke"
         d="M 396.59801,645.50431 C 395.86337,647.81896 396.5025,650.65402 397.83583,652.68368 399.24331,654.82621 401.79119,656.24841 404.2725,656.89227 405.39361,657.18318 406.6955,657.14859 407.7384,656.64471 408.94797,656.0603 410.07954,654.96181 410.46161,653.67394 411.03268,651.74903 410.43671,649.49292 409.47135,647.73239 408.40377,645.78545 406.5745,644.1186 404.52007,643.27623 402.83858,642.58678 400.76802,642.37151 399.07365,643.02867 397.98559,643.45067 396.95106,644.39196 396.59801,645.50431 Z"
         id="path1051" />
      <path
         style="opacity:1;fill:#4d5b2d;fill-opacity:1;stroke-width:6.40115;paint-order:markers fill stroke"
         d="M 420.0661,611.08141 C 418.37164,613.05088 417.67198,616.25691 417.95398,619.00377 418.25164,621.9034 419.8917,624.66034 421.82121,626.5933 422.69299,627.46665 423.87231,628.103 425.03053,628.12963 426.3738,628.16054 427.87783,627.62963 428.79675,626.52003 430.17024,624.8616 430.64894,622.26521 430.57521,619.9812 430.49371,617.45529 429.60578,614.82072 428.14687,612.90656 426.9528,611.33985 425.19838,610.0536 423.38907,609.84647 422.22721,609.71349 420.88044,610.13491 420.0661,611.08141 Z"
         id="path1053" />
      <path
         style="opacity:1;fill:#4d5b2d;fill-opacity:1;stroke-width:6.26508;paint-order:markers fill stroke"
         d="M 448.19312,691.51854 C 449.20174,693.76391 451.72249,695.52485 454.25857,696.22263 456.93572,696.95922 460.0605,696.41092 462.58418,695.30918 463.72446,694.8114 464.7876,693.94807 465.30552,692.89168 465.90621,691.66651 466.08144,690.09767 465.498,688.86551 464.62591,687.02388 462.54696,685.67865 460.50682,684.95055 458.25066,684.14534 455.55459,684.04428 453.24833,684.71955 451.36071,685.27225 449.48048,686.43826 448.52585,688.03079 447.91279,689.05346 447.70842,690.43953 448.19312,691.51854 Z"
         id="path1055" />
      <path
         style="opacity:1;fill:#4d5b2d;fill-opacity:1;stroke-width:6.22151;paint-order:markers fill stroke"
         d="M 515.10173,725.44275 C 516.46575,727.47887 519.21535,728.77533 521.79777,729.02212 524.52384,729.28265 527.46461,728.20006 529.72683,726.67683 530.74898,725.9886 531.63363,724.95378 531.95569,723.8235 532.32927,722.51263 532.2308,720.93719 531.45319,719.82507 530.29089,718.16287 528.04155,717.19906 525.93557,716.83629 523.60659,716.43509 520.97098,716.80374 518.84687,717.86923 517.10833,718.74131 515.482,720.21609 514.82763,721.95021 514.40736,723.0638 514.44623,724.46431 515.10173,725.44275 Z"
         id="path1057" />
      <path
         style="opacity:1;fill:#4d5b2d;fill-opacity:1;stroke-width:6.51507;paint-order:markers fill stroke"
         d="M 465.19991,652.92977 C 464.4021,655.44279 465.09619,658.52083 466.54417,660.72443 468.07266,663.05058 470.83963,664.59467 473.5343,665.29371 474.75181,665.60955 477.65103,665.572 478.7836,665.02493 480.09717,664.39044 479.84065,663.1978 480.25557,661.79955 480.87575,659.70968 480.22853,657.26022 479.18017,655.3488 478.02079,653.23501 476.03423,651.4253 473.80315,650.51074 471.97707,649.7622 469.72848,649.52848 467.88842,650.24196 466.7068,650.70013 465.58331,651.72209 465.19991,652.92977 Z"
         id="path1065" />
      <path
         style="opacity:1;fill:#4d5b2d;fill-opacity:1;stroke-width:6.26508;paint-order:markers fill stroke"
         d="M 537.86266,683.18666 C 536.79089,685.40259 537.06225,688.46555 538.15788,690.85679 539.31447,693.38106 541.74304,695.42236 544.20921,696.64744 545.32352,697.20095 546.66822,697.46047 547.81038,697.17812 549.13503,696.85078 550.44948,695.9766 551.01833,694.73763 551.86853,692.8858 551.56273,690.42853 550.8091,688.39769 549.9757,686.15178 548.32013,684.02154 546.32039,682.68887 544.68367,681.59814 542.58187,680.90728 540.74829,681.19963 539.57079,681.38739 538.37764,682.12175 537.86266,683.18666 Z"
         id="path1067" />
    </g>
    <use
       x="0"
       y="0"
       xlink:href="#g1112"
       id="use1114"
       transform="matrix(-1,0,0,1,2300.364,0)" />
  </g>
</svg>
