<?xml version="1.0" encoding="UTF-8" standalone="no"?>
<svg
   xmlns:dc="http://purl.org/dc/elements/1.1/"
   xmlns:cc="http://creativecommons.org/ns#"
   xmlns:rdf="http://www.w3.org/1999/02/22-rdf-syntax-ns#"
   xmlns:svg="http://www.w3.org/2000/svg"
   xmlns="http://www.w3.org/2000/svg"
   xmlns:sodipodi="http://sodipodi.sourceforge.net/DTD/sodipodi-0.dtd"
   xmlns:inkscape="http://www.inkscape.org/namespaces/inkscape"
   width="22.334431mm"
   height="8.5091372mm"
   viewBox="0 0 22.334431 8.5091372"
   version="1.1"
   id="svg12783"
   inkscape:version="1.0.1 (3bc2e813f5, 2020-09-07)"
   sodipodi:docname="Logo Dalkia.svg">
  <defs
     id="defs12777" />
  <sodipodi:namedview
     id="base"
     pagecolor="#ffffff"
     bordercolor="#666666"
     borderopacity="1.0"
     inkscape:pageopacity="0.0"
     inkscape:pageshadow="2"
     inkscape:zoom="5.6"
     inkscape:cx="5.4247645"
     inkscape:cy="37.738538"
     inkscape:document-units="mm"
     inkscape:current-layer="layer1"
     inkscape:document-rotation="0"
     showgrid="false"
     fit-margin-top="0"
     fit-margin-left="0"
     fit-margin-right="0"
     fit-margin-bottom="0"
     inkscape:window-width="1600"
     inkscape:window-height="837"
     inkscape:window-x="-8"
     inkscape:window-y="-8"
     inkscape:window-maximized="1" />
  <metadata
     id="metadata12780">
    <rdf:RDF>
      <cc:Work
         rdf:about="">
        <dc:format>image/svg+xml</dc:format>
        <dc:type
           rdf:resource="http://purl.org/dc/dcmitype/StillImage" />
        <dc:title></dc:title>
      </cc:Work>
    </rdf:RDF>
  </metadata>
  <g
     inkscape:label="Calque 1"
     inkscape:groupmode="layer"
     id="layer1"
     transform="translate(-303.30901,-78.900193)">
    <g
       id="g13443">
      <path
         d="m 307.85458,80.055203 c 0.0275,-0.235303 -0.007,-0.579261 0.1785,-0.740833 0.0543,-0.251178 0.44944,-0.19297 0.38771,-0.352778 -0.0381,-0.09984 -0.22367,-0.05221 -0.29881,-0.03387 -0.0572,0.01376 -0.59866,0.185209 -0.80715,0.208139 -0.0882,-0.02469 -0.17639,-0.04904 -0.26458,-0.07373 -0.33973,0.04586 -0.53623,0.316441 -0.72532,0.531636 -0.15875,0.180269 -0.37324,0.621241 -0.20249,0.885119 -0.01,0.0575 -0.019,0.115358 -0.0289,0.172861 l 0.387,0.56515 c 0.13299,0.0956 0.15063,0.166864 0.29421,0.261056 0.0296,0.04445 0.0589,0.0889 0.0885,0.132997 0.11748,0.07726 0.46355,0.07832 0.52176,0.02787 0.55704,0.05221 0.49671,-1.075619 0.67346,-1.312333 -0.0226,-0.106539 -0.11572,-0.216958 -0.20391,-0.271286 m -2.40136,3.385961 c 0.11783,-0.03034 0.31926,-0.04621 0.4251,-0.09878 0.16792,-0.08396 0.74612,-0.487891 0.56233,-0.817386 -0.0571,-0.693561 -0.89359,-0.107244 -1.24954,-0.350308 -0.36054,-0.04692 -0.76588,-0.728486 -0.87383,-1.020586 -0.0427,-0.115359 -0.025,-0.07585 -0.0829,-0.16757 7e-4,-0.0095 -0.037,0.03175 -0.0363,0.02223 -0.10584,0.122767 -0.0871,0.230011 -0.10372,0.529167 -0.0473,-0.0028 -0.0945,-0.006 -0.14146,-0.0088 -0.01,0.108655 -0.0201,0.167569 -0.0709,0.222955 -0.0106,0.01834 -0.0215,0.03634 -0.0318,0.05468 -0.0896,-0.02999 -0.0448,0.0127 -0.0815,-0.06174 -0.33162,0.01588 -0.30692,0.349602 -0.45967,0.53975 0.007,0.622299 1.23966,1.391002 2.14418,1.156405 m 4.09434,-1.891242 c -0.53799,0.08149 -0.86678,0.252589 -1.06998,0.3937 -0.14181,0.09842 -0.18309,0.1651 -0.21378,0.206728 -0.0307,0.04198 -0.0515,0.134056 -0.0363,0.23107 0.0155,0.09666 0.055,0.198966 0.13864,0.255763 0.6604,-0.04868 1.80728,-0.09031 2.03024,0.464962 0.012,0.07691 0.0293,0.123119 0.031,0.142169 0.21837,-0.05433 0.0586,-0.03528 0.38029,0.01552 0.0741,0.01164 0.25577,-0.02963 0.37677,-0.05856 0.0547,-0.01305 0.0857,-0.06315 0.0857,-0.06315 0,0 -0.0106,-0.05292 -0.007,-0.08114 0,0 0.11218,0.0081 0.15875,-0.02752 0.3055,-0.04974 0.14499,-0.193322 0.28928,-0.354895 -0.0871,-1.036814 -1.15076,-1.278114 -2.16359,-1.124656 m -1.17898,2.256014 c -0.15311,0.11677 -0.21731,0.08784 -0.30727,0.268817 -0.009,0 0.0134,0.02752 0.004,0.02752 0.091,0.182386 0.30057,0.255763 0.45473,0.384175 0.048,0.04022 0.1778,0.265288 0.23954,0.281869 0.0691,0.08255 0.11465,0.311503 0.15945,0.311503 0.0476,0.06385 -0.003,0.215547 0.0427,0.274108 0.003,0.271286 -0.0346,0.290336 -0.0818,0.342547 0,0.0187 0.0258,0.06809 0.0258,0.08678 0.0131,0.01305 0.12171,0.09102 0.16933,0.08149 0.14711,0.0042 0.75248,0.47625 0.8001,0.567267 0.43427,0.03281 0.40288,-0.09984 0.70238,-0.226836 0.0808,-0.03457 0.14535,-0.0018 0.19827,-0.05715 0.0554,-0.0568 0.0603,-0.168981 0.11359,-0.226483 0.007,-1.067859 -1.44533,-2.07892 -2.52095,-2.115609 m -1.70956,0.243417 c -0.0607,0.06491 -0.22649,0.08855 -0.27305,0.161572 -0.0709,0.111125 -0.23389,0.364772 -0.3616,0.485775 -0.41099,0.38982 -1.29081,0.585964 -1.72473,0.213078 -0.0282,0.0021 -0.012,0.01834 0.0219,0.12453 0.0317,0.202142 0.19438,0.676628 0.13441,0.797278 0.0388,0.134761 0.0801,0.08573 0.15346,0.159809 0.0504,0.05045 0.0716,0.182386 0.12911,0.218369 0.0663,-0.0049 0.13229,-0.0095 0.19826,-0.01411 0.012,0.03704 0.0243,0.07408 0.0363,0.111125 0.0847,-0.006 0.16969,-0.01199 0.25436,-0.01799 0.0476,0.01058 0.19226,0.08467 0.23459,0.09666 0.0942,-0.0064 0.18839,-0.01305 0.28258,-0.02011 0.21625,0.0575 0.40463,-0.03246 0.58632,-0.154869 0.10195,-0.06879 0.21343,-0.05821 0.30338,-0.135114 0.13053,-0.112536 0.30833,-0.331611 0.39194,-0.482953 0.20461,-0.371122 0.13547,-1.260475 -0.0505,-1.480256 -0.0723,-0.07937 -0.15769,-0.08043 -0.31679,-0.06279"
         style="fill:#fe5815;fill-opacity:1;fill-rule:nonzero;stroke:none;stroke-width:0.352777"
         id="path1569" />
      <g
         id="g13388"
         style="fill:#212a72;fill-opacity:1">
        <path
           d="m 314.40573,84.615985 h -0.0109 c -0.21943,0.274108 -0.5207,0.383469 -0.86607,0.383469 -0.86571,0 -1.18357,-0.712258 -1.18357,-1.484841 0,-0.778228 0.31786,-1.468967 1.18357,-1.468967 0.36724,0 0.62477,0.126295 0.8442,0.394758 h 0.0109 v -1.61678 h 0.73413 v 4.110214 h -0.71226 z m -0.67416,-0.186267 c 0.48789,0 0.64664,-0.515055 0.64664,-0.915105 0,-0.394759 -0.18626,-0.898878 -0.65757,-0.898878 -0.4766,0 -0.60819,0.5207 -0.60819,0.898878 0,0.389114 0.13688,0.915105 0.61912,0.915105"
           style="fill:#212a72;fill-opacity:1;fill-rule:nonzero;stroke:none;stroke-width:0.352777"
           id="path1573" />
        <path
           d="m 315.63633,82.259535 c 0.28504,-0.131586 0.66851,-0.213783 0.98107,-0.213783 0.86007,0 1.21638,0.356305 1.21638,1.189214 v 0.361597 c 0,0.285044 0.006,0.498828 0.0109,0.706966 0.006,0.213784 0.0166,0.410987 0.0328,0.630414 h -0.64629 c -0.0275,-0.148166 -0.0275,-0.334433 -0.0332,-0.422275 h -0.0109 c -0.16969,0.312561 -0.53693,0.487892 -0.87136,0.487892 -0.49848,0 -0.98637,-0.301272 -0.98637,-0.838553 0,-0.421922 0.20285,-0.668514 0.48225,-0.805391 0.2794,-0.137231 0.641,-0.164395 0.94791,-0.164395 h 0.4057 c 0,-0.45473 -0.20285,-0.608542 -0.63571,-0.608542 -0.31221,0 -0.62477,0.12065 -0.87136,0.306917 z m 0.86042,2.203097 c 0.22472,0 0.40005,-0.09878 0.51506,-0.252236 0.12065,-0.15875 0.15346,-0.361597 0.15346,-0.581025 h -0.31786 c -0.32879,0 -0.81668,0.05503 -0.81668,0.487892 0,0.2413 0.20285,0.345369 0.46602,0.345369"
           style="fill:#212a72;fill-opacity:1;fill-rule:nonzero;stroke:none;stroke-width:0.352777"
           id="path1577" />
        <path
           d="m 318.20741,80.823765 h 0.73413 v 4.110214 h -0.73413 z"
           style="fill:#212a72;fill-opacity:1;fill-rule:nonzero;stroke:none;stroke-width:0.352777"
           id="path1579" />
        <path
           d="m 319.33908,80.823765 h 0.73413 v 2.416881 h 0.0109 l 0.87701,-1.128889 h 0.86571 l -1.05198,1.260122 1.18357,1.5621 h -0.93169 l -0.94262,-1.370189 h -0.0109 v 1.370189 h -0.73413 z"
           style="fill:#212a72;fill-opacity:1;fill-rule:nonzero;stroke:none;stroke-width:0.352777"
           id="path1583" />
        <path
           d="m 322.13911,80.895026 h 0.73413 v 0.701322 h -0.73413 z m 0,1.21673 h 0.73413 v 2.822223 h -0.73413 z"
           style="fill:#212a72;fill-opacity:1;fill-rule:nonzero;stroke:none;stroke-width:0.352777"
           id="path1585" />
        <path
           d="m 323.40061,82.259535 c 0.28505,-0.131586 0.66852,-0.213783 0.98108,-0.213783 0.86007,0 1.21638,0.356305 1.21638,1.189214 v 0.361597 c 0,0.285044 0.006,0.498828 0.0109,0.706966 0.006,0.213784 0.0166,0.410987 0.0328,0.630414 h -0.6463 c -0.0275,-0.148166 -0.0275,-0.334433 -0.0332,-0.422275 h -0.0109 c -0.17004,0.312561 -0.53693,0.487892 -0.87136,0.487892 -0.49848,0 -0.98637,-0.301272 -0.98637,-0.838553 0,-0.421922 0.20285,-0.668514 0.48225,-0.805391 0.2794,-0.137231 0.641,-0.164395 0.94791,-0.164395 h 0.4057 c 0,-0.45473 -0.20285,-0.608542 -0.63571,-0.608542 -0.31221,0 -0.62477,0.12065 -0.87136,0.306917 z m 0.86043,2.203097 c 0.22472,0 0.40005,-0.09878 0.51505,-0.252236 0.12065,-0.15875 0.15346,-0.361597 0.15346,-0.581025 h -0.31785 c -0.32879,0 -0.81668,0.05503 -0.81668,0.487892 0,0.2413 0.20285,0.345369 0.46602,0.345369"
           style="fill:#212a72;fill-opacity:1;fill-rule:nonzero;stroke:none;stroke-width:0.352777"
           id="path1597" />
      </g>
      <g
         id="g13401"
         style="fill:#212a72;fill-opacity:1">
        <path
           d="m 316.6489,87.333749 c -0.0773,0.02822 -0.20955,0.06809 -0.32667,0.06809 -0.41733,0 -0.59302,-0.3175 -0.59302,-0.674158 0,-0.411692 0.23989,-0.670278 0.5835,-0.670278 0.11324,0 0.21907,0.01482 0.30974,0.05821 v 0.166159 c -0.10019,-0.0508 -0.21132,-0.08114 -0.30763,-0.08114 -0.21554,0 -0.41169,0.171803 -0.41169,0.49283 0,0.340078 0.13582,0.564798 0.42298,0.564798 0.0529,0 0.12065,-0.01341 0.16404,-0.03598 v -0.415219 h -0.22083 V 86.66348 h 0.37958 z"
           style="fill:#212a72;fill-opacity:1;fill-rule:nonzero;stroke:none;stroke-width:0.352777"
           id="path1601" />
        <path
           d="m 316.8829,86.070452 h 0.33796 c 0.1397,0 0.21731,0.03387 0.27764,0.09066 0.0681,0.0642 0.0981,0.154869 0.0981,0.251178 0,0.1397 -0.066,0.273755 -0.26035,0.315383 v 0.0035 c 0.0794,0.01517 0.11712,0.05292 0.14323,0.12841 l 0.18521,0.528815 h -0.17922 l -0.15134,-0.445559 c -0.0377,-0.109361 -0.085,-0.150988 -0.20955,-0.150988 h -0.0755 v 0.596547 h -0.16616 z m 0.16616,0.585258 h 0.12841 c 0.17745,0 0.24553,-0.117122 0.24553,-0.232127 0,-0.147462 -0.0963,-0.217312 -0.24165,-0.217312 h -0.13229 z"
           style="fill:#212a72;fill-opacity:1;fill-rule:nonzero;stroke:none;stroke-width:0.352777"
           id="path1605" />
        <path
           d="m 318.24632,86.057223 c 0.2928,0 0.47978,0.251178 0.47978,0.658989 0,0.455083 -0.18345,0.685447 -0.49495,0.685447 -0.29245,0 -0.47943,-0.251178 -0.47943,-0.658989 0,-0.455083 0.18309,-0.685447 0.4946,-0.685447 m -0.0152,1.208617 c 0.17392,0 0.32102,-0.143581 0.32102,-0.549628 0,-0.266347 -0.0829,-0.52317 -0.30585,-0.52317 -0.17357,0 -0.32103,0.143581 -0.32103,0.549628 0,0.266347 0.0833,0.52317 0.30586,0.52317"
           style="fill:#212a72;fill-opacity:1;fill-rule:nonzero;stroke:none;stroke-width:0.352777"
           id="path1609" />
        <path
           d="m 319.73229,86.903219 c 0,0.130175 -0.007,0.202142 -0.0529,0.294569 -0.0547,0.109714 -0.17004,0.203906 -0.36054,0.203906 -0.19085,0 -0.30586,-0.09419 -0.36089,-0.203906 -0.0452,-0.09243 -0.0526,-0.164394 -0.0526,-0.294569 v -0.832908 h 0.16616 v 0.857602 c 0,0.20567 0.0903,0.337962 0.24729,0.337962 0.15664,0 0.2473,-0.132292 0.2473,-0.337962 v -0.857602 h 0.16616 z"
           style="fill:#212a72;fill-opacity:1;fill-rule:nonzero;stroke:none;stroke-width:0.352777"
           id="path1613" />
        <path
           d="m 319.96646,86.070452 h 0.31715 c 0.13229,0 0.21519,0.03598 0.2854,0.101953 0.066,0.06421 0.10371,0.156633 0.10371,0.271991 0,0.256823 -0.14922,0.392642 -0.42862,0.392642 h -0.11148 v 0.551392 h -0.16616 z m 0.16616,0.630767 h 0.0907 c 0.20214,0 0.27552,-0.09454 0.27552,-0.241653 0,-0.181328 -0.10195,-0.253295 -0.27164,-0.253295 h -0.0946 z"
           style="fill:#212a72;fill-opacity:1;fill-rule:nonzero;stroke:none;stroke-width:0.352777"
           id="path1617" />
        <path
           d="m 320.81796,86.070452 h 0.61383 v 0.143581 h -0.44767 v 0.4191 h 0.42686 v 0.14358 h -0.42686 v 0.468136 h 0.47202 v 0.143581 h -0.63818 z"
           style="fill:#212a72;fill-opacity:1;fill-rule:nonzero;stroke:none;stroke-width:0.352777"
           id="path1621" />
      </g>
      <g
         id="g13393"
         style="fill:#212a72;fill-opacity:1">
        <path
           d="m 324.0239,86.070734 c 0.36583,0 0.61419,0.230364 0.61419,0.644878 0,0.519641 -0.34043,0.672747 -0.69709,0.672747 h -0.4759 c 0.002,-0.02893 0,-0.105481 0,-0.201436 V 86.27217 c 0,-0.0956 0.002,-0.156986 0,-0.201436 z m -0.10689,1.068917 c 0.20249,0 0.36548,-0.06809 0.36548,-0.424039 0,-0.304095 -0.16299,-0.404636 -0.36548,-0.404636 h -0.10584 v 0.828675 z"
           style="fill:#212a72;fill-opacity:1;fill-rule:nonzero;stroke:none;stroke-width:0.352777"
           id="path1633" />
        <path
           d="m 325.15649,87.187029 c 0,0.0956 0.004,0.201436 0.004,0.201436 h -0.35454 c 0,0 0.002,-0.105833 0.002,-0.201436 v -0.914753 c 0,-0.09596 -0.002,-0.201436 -0.002,-0.201436 h 0.83749 v 0.254353 c 0,0 -0.18697,-0.0039 -0.25188,-0.0039 h -0.23495 v 0.264584 l 0.23495,0.0028 c 0.0441,0 0.1965,-0.0028 0.1965,-0.0028 v 0.243416 c 0,0 -0.13406,-0.0032 -0.1965,-0.0032 l -0.23495,0.0014 z"
           style="fill:#212a72;fill-opacity:1;fill-rule:nonzero;stroke:none;stroke-width:0.352777"
           id="path1637" />
        <path
           d="m 322.75944,87.122541 c -0.16616,0 -0.29563,-0.112183 -0.29563,-0.286808 v -0.01552 c 0,0 0.31115,-0.0067 0.41381,-0.0067 0.17992,0 0.25435,-0.0018 0.39335,-0.0039 v -0.09984 c 0,-0.448381 -0.19015,-0.667808 -0.58244,-0.667808 -0.18239,0 -0.60325,0.06809 -0.60325,0.697089 0,0.420158 0.21414,0.670277 0.58349,0.670277 0.29034,0 0.4699,-0.07338 0.59867,-0.16898 -0.0148,-0.02081 -0.12277,-0.215195 -0.13547,-0.236361 -0.0794,0.05962 -0.20849,0.118533 -0.37253,0.118533 m -0.29563,-0.554549 c 0.006,-0.0762 0.0349,-0.252941 0.22648,-0.252941 0.1965,0 0.2085,0.166511 0.2085,0.254 v 0.01834 c 0,0 -0.13194,0.0035 -0.21026,0.0035 -0.079,0 -0.22613,-0.0035 -0.22613,-0.0035 z"
           style="fill:#212a72;fill-opacity:1;fill-rule:nonzero;stroke:none;stroke-width:0.352777"
           id="path1641" />
      </g>
    </g>
  </g>
</svg>
