<?xml version="1.0" encoding="utf-8"?>
<!-- Generator: Adobe Illustrator 26.0.3, SVG Export Plug-In . SVG Version: 6.00 Build 0)  -->
<svg version="1.1" xmlns="http://www.w3.org/2000/svg" xmlns:xlink="http://www.w3.org/1999/xlink" x="0px" y="0px"
	 viewBox="0 0 669.86 112.61" style="enable-background:new 0 0 669.86 112.61;" xml:space="preserve">
<style type="text/css">
	.st0{fill-rule:evenodd;clip-rule:evenodd;fill:#E3131E;}
	.st1{display:none;fill:#858B95;enable-background:new    ;}
	.st2{font-family:'DBSansAlternate-BoldItalic';}
	.st3{font-size:73.0039px;}
	.st4{enable-background:new    ;}
	.st5{fill:#858B95;}
	.st6{display:none;}
	.st7{display:inline;}
	.st8{display:inline;fill:#858B95;}
	.st9{font-size:54.841px;}
	.st10{display:inline;enable-background:new    ;}
</style>
<g id="_x31_zeilig">
	<g id="_xD83C__xDFA8_-Color_00000181773703948023319160000012159095120259199921_" transform="translate(24.000000, 50.000000)">
		<path class="st0" d="M120.38-49.82c4.26-0.06,8.38,1.58,11.42,4.57c3.05,2.98,4.78,7.06,4.81,11.32l0,0v80.3
			c-0.03,8.95-7.28,16.2-16.23,16.23l0,0H-7.94c-4.28-0.02-8.39-1.74-11.4-4.78c-3.01-3.05-4.69-7.17-4.66-11.45l0,0v-80.3
			c-0.02-4.25,1.68-8.33,4.7-11.31c3.02-2.99,7.12-4.64,11.36-4.58l0,0H120.38z M-7.94-38.35c-1.21-0.1-2.41,0.33-3.29,1.17
			c-0.88,0.85-1.35,2.03-1.3,3.24l0,0l0,80.83c0.07,1.04,0.52,2.03,1.27,2.78c0.88,0.87,2.09,1.32,3.32,1.23l0,0h128.54
			c1.21,0.03,2.38-0.44,3.24-1.29c0.86-0.86,1.32-2.03,1.29-3.24l0,0l-0.23-80.25c0.03-1.21-0.44-2.37-1.29-3.22
			c-0.86-0.85-2.03-1.3-3.24-1.25l0,0H-7.94z M93.24-30.43c12.96,0,20.88,7.06,20.88,17.84c-0.13,7.9-5.31,14.84-12.85,17.21
			c8.95,1.11,15.62,8.82,15.43,17.84c0,14.63-9.98,20.71-28.28,20.71l0,0H62.38v-73.59H93.24z M25.16-30.54
			c18.93,0,29.54,12.05,29.54,36.48c0,21.34-7.23,37.05-29.54,37.23H-1.97v-73.71H25.16z M87.62,12.36h-7.69v18.76l7.48,0
			c2.97-0.01,11.62-0.28,11.68-9.46C99.1,17.64,96.8,12.36,87.62,12.36L87.62,12.36z M19.65-18.84h-3.96v49.96h6.19
			c9.52,0,14.97-7.4,14.97-23.57C36.86-7.26,35.25-18.84,19.65-18.84z M85.39-19.13h-5.45v17.84h6.88c2.51,0.25,5.01-0.6,6.86-2.32
			c1.85-1.72,2.86-4.16,2.78-6.68C96.46-16.43,93.42-19.13,85.39-19.13L85.39-19.13z"/>
	</g>
	<text transform="matrix(1 0 0 1 255.5126 84.1347)" class="st1 st2 st3">Südostbayernbahn</text>
	<text transform="matrix(1 0 0 1 255.5126 84.1347)" class="st1 st2 st3">Regional unterwegs</text>
	<text transform="matrix(1 0 0 1 255.5126 84.1347)" class="st1 st2 st3">Regio Bayern</text>
	<text transform="matrix(1 0 0 1 255.5126 84.1347)" class="st1 st2 st3">Regio Baden-Württemberg</text>
	<text transform="matrix(1 0 0 1 255.5126 84.1347)" class="st1 st2 st3">Regio in Hamburg</text>
	<text transform="matrix(1 0 0 1 255.5126 84.1347)" class="st1 st2 st3">Regio in Hessen</text>
	<text transform="matrix(1 0 0 1 255.5126 84.1347)" class="st1 st2 st3">Regio NRW</text>
	<text transform="matrix(1 0 0 1 255.5126 84.1347)" class="st1 st2 st3">Regio im Saarland</text>
	<text transform="matrix(1 0 0 1 255.5126 84.1347)" class="st1 st2 st3">Regio in Sachsen</text>
	<text transform="matrix(1 0 0 1 255.5126 84.1347)" class="st1 st2 st3">Regio in Thüringen</text>
	<text transform="matrix(1 0 0 1 255.5126 84.1347)" class="st1 st2 st3">DB Regio</text>
	<text transform="matrix(1 0 0 1 255.5126 84.1347)" class="st1 st2 st3">Erzgebirgsbahn</text>
	<text transform="matrix(1 0 0 1 255.5126 84.1347)" class="st1 st2 st3">DB RegioNetz</text>
	<text transform="matrix(1 0 0 1 255.5126 84.1347)" class="st1 st2 st3">Kahlgrundbahn</text>
	<text transform="matrix(1 0 0 1 255.5126 84.1347)" class="st1 st2 st3">Westfrankenbahn</text>
	<text transform="matrix(1 0 0 1 255.5126 84.1347)" class="st1 st2 st3">S-Bahn Hannover</text>
	<text transform="matrix(1 0 0 1 255.5126 84.1347)" class="st1 st2 st3">Kurhessenbahn</text>
	<g class="st4">
		<path class="st5" d="M257.51,84.13l10.3-53.08h19.36c5.87,0,10.56,1.07,14.08,3.21c5.23,3.18,7.84,8.39,7.84,15.61
			c0,3.68-0.58,7.83-1.75,12.44c-1.43,5.63-3.6,10.09-6.52,13.37c-5.01,5.63-12.43,8.45-22.24,8.45H257.51z M272.2,74.76h6.84
			c5.73,0,9.89-2.03,12.48-6.1c1.35-2.14,2.42-5.13,3.21-8.98c0.78-3.71,1.18-6.77,1.18-9.2c0-6.56-3.52-9.84-10.55-9.84h-6.52
			L272.2,74.76z"/>
		<path class="st5" d="M312.26,84.13l10.3-53.08h19.28c4.9,0,8.73,0.89,11.51,2.67c3.16,2,4.74,5.06,4.74,9.2
			c0,3.71-1.05,6.71-3.14,9.02c-1.26,1.4-2.78,2.46-4.56,3.17c-0.76,0.31-1.92,0.65-3.49,1.03c3.21,0.57,5.58,1.66,7.13,3.28
			c1.78,1.85,2.67,4.44,2.67,7.77c0,11.29-7.7,16.93-23.1,16.93H312.26z M326.7,74.9h7.63c6.7,0,10.05-2.97,10.05-8.91
			c0-3.85-2.37-5.78-7.09-5.78h-7.74L326.7,74.9z M331.05,52.41h7.06c4.85,0,7.27-2.42,7.27-7.27c0-3.14-1.88-4.71-5.63-4.71h-6.34
			L331.05,52.41z"/>
		<path class="st5" d="M438.91,31.06l-29.55,53.19h-10.02l-9.13-53.19h12.83l5.35,36.04l19.18-36.04H438.91z"/>
		<path class="st5" d="M461.91,82.5c-1.9,0.74-3.33,1.25-4.28,1.53c-2.85,0.86-5.88,1.28-9.09,1.28c-5.99,0-10.4-1.56-13.22-4.67
			c-2.28-2.52-3.42-5.95-3.42-10.3c0-4.63,0.89-9.13,2.67-13.47c1.83-4.47,4.82-7.84,8.98-10.12c3.21-1.78,6.89-2.67,11.05-2.67
			c4.25,0,7.63,0.94,10.12,2.82c2.57,1.95,3.85,4.71,3.85,8.27c0,5.97-3.53,9.92-10.59,11.87c-3.26,0.9-7.95,1.46-14.08,1.68
			c-0.05,0.59-0.07,1.1-0.07,1.53c0,1.81,0.46,3.26,1.39,4.35c1.07,1.24,3.24,1.85,6.52,1.85c2.3,0,4.66-0.33,7.06-1
			c1-0.26,2.6-0.79,4.81-1.57L461.91,82.5z M444.87,62.18l1.25-0.07c3.14-0.21,5.6-0.57,7.38-1.07c2.73-0.78,4.1-2.3,4.1-4.56
			c0-2.88-1.49-4.31-4.46-4.31c-3.07,0-5.3,1.52-6.7,4.56C445.84,58.03,445.32,59.85,444.87,62.18z"/>
		<path class="st5" d="M470.5,84.13l7.24-37.57c4.42-0.14,7.54-0.94,9.38-2.39l2.71,0.64l-1.6,8.38c2.26-2.76,4.43-4.81,6.52-6.17
			c2.19-1.43,4.65-2.32,7.38-2.67l-2.14,10.73c-4.82,0.5-9.08,1.54-12.76,3.14l-5.03,25.92H470.5z"/>
		<path class="st5" d="M524.11,83.6c-2.23,0.9-4.82,1.36-7.77,1.36c-3.49,0-6.13-0.57-7.91-1.71c-1.09-0.71-1.94-1.51-2.53-2.39
			c-0.74-1.14-1.11-2.65-1.11-4.53c0-1.24,0.18-2.73,0.54-4.49l3.64-18.43h-4.81l1.57-8.13h0.71c3.28,0,5.58-1.41,6.92-4.24
			l2.1-4.46h8.38l-1.67,8.7h8.7l-1.57,8.13h-8.73l-3.35,17.36c-0.21,1.07-0.32,1.87-0.32,2.39c0,2,1.38,3,4.14,3
			c1.5,0,3.08-0.36,4.74-1.07L524.11,83.6z"/>
		<path class="st5" d="M530.42,84.13l7.24-37.57c4.42-0.14,7.54-0.94,9.38-2.39l2.71,0.64l-1.6,8.38c2.26-2.76,4.43-4.81,6.52-6.17
			c2.19-1.43,4.65-2.32,7.38-2.67l-2.14,10.73c-4.82,0.5-9.08,1.54-12.76,3.14l-5.03,25.92H530.42z"/>
		<path class="st5" d="M561.07,84.13l7.24-37.57c4.42-0.14,7.54-0.94,9.38-2.39l2.75,0.64l-7.66,39.32H561.07z M577.01,28.46
			c1.76,0,3.21,0.58,4.35,1.75c1.04,1.07,1.57,2.44,1.57,4.1c0,1.78-0.57,3.27-1.71,4.46c-1.26,1.31-2.82,1.96-4.67,1.96
			c-1.76,0-3.21-0.58-4.35-1.75c-1.05-1.07-1.57-2.46-1.57-4.17c0-1.76,0.57-3.22,1.71-4.38C573.62,29.11,575.18,28.46,577.01,28.46
			z"/>
		<path class="st5" d="M613.65,82.5c-1.9,0.74-3.33,1.25-4.28,1.53c-2.85,0.86-5.88,1.28-9.09,1.28c-5.99,0-10.4-1.56-13.22-4.67
			c-2.28-2.52-3.42-5.95-3.42-10.3c0-4.63,0.89-9.13,2.67-13.47c1.83-4.47,4.82-7.84,8.98-10.12c3.21-1.78,6.89-2.67,11.05-2.67
			c4.25,0,7.63,0.94,10.12,2.82c2.57,1.95,3.85,4.71,3.85,8.27c0,5.97-3.53,9.92-10.59,11.87c-3.26,0.9-7.95,1.46-14.08,1.68
			c-0.05,0.59-0.07,1.1-0.07,1.53c0,1.81,0.46,3.26,1.39,4.35c1.07,1.24,3.24,1.85,6.52,1.85c2.3,0,4.66-0.33,7.06-1
			c1-0.26,2.6-0.79,4.81-1.57L613.65,82.5z M596.61,62.18l1.25-0.07c3.14-0.21,5.6-0.57,7.38-1.07c2.73-0.78,4.1-2.3,4.1-4.56
			c0-2.88-1.49-4.31-4.46-4.31c-3.07,0-5.3,1.52-6.7,4.56C597.59,58.03,597.06,59.85,596.61,62.18z"/>
		<path class="st5" d="M644.77,28.95l-4.42,22.64c4.47-4.82,8.97-7.24,13.51-7.24c3.52,0,6.17,1.26,7.95,3.78
			c1.62,2.26,2.42,5.23,2.42,8.91c0,4.52-0.75,9.09-2.25,13.72c-1.74,5.37-4.37,9.27-7.91,11.69c-2.8,1.9-6,2.85-9.59,2.85
			c-4.54,0-8.41-1.81-11.62-5.42l-2.89,4.24h-7.66l10.27-52.76c4.44-0.17,7.56-0.97,9.34-2.42H644.77z M635.65,75.9
			c1.76,1,3.61,1.5,5.56,1.5c3.71,0,6.34-1.65,7.91-4.96c0.88-1.88,1.63-4.42,2.25-7.63c0.5-2.54,0.75-4.53,0.75-5.95
			c0-1.35-0.31-2.5-0.93-3.42c-0.76-1.16-2-1.75-3.71-1.75c-1.57,0-3.16,0.46-4.78,1.39c-0.88,0.52-2.06,1.35-3.53,2.5L635.65,75.9z
			"/>
	</g>
</g>
<g id="_x32_zeilig" class="st6">
	
		<g id="_xD83C__xDFA8_-Color_00000152979710528765335010000004120469788200974747_" transform="translate(24.000000, 50.000000)" class="st7">
		<path class="st0" d="M120.61-50c4.27-0.06,8.39,1.58,11.44,4.57c3.05,2.99,4.79,7.07,4.82,11.34l0,0v80.43
			c-0.03,8.97-7.29,16.23-16.26,16.26l0,0H-7.91c-4.29-0.02-8.4-1.74-11.42-4.79c-3.02-3.05-4.7-7.18-4.67-11.47l0,0v-80.43
			c-0.02-4.26,1.68-8.34,4.71-11.33s7.13-4.64,11.38-4.58l0,0H120.61z M-7.91-38.51c-1.22-0.1-2.42,0.33-3.3,1.17
			c-0.88,0.85-1.35,2.03-1.3,3.25l0,0l0,80.96c0.07,1.04,0.52,2.04,1.27,2.78c0.88,0.87,2.09,1.32,3.32,1.23l0,0h128.75
			c1.21,0.03,2.39-0.44,3.24-1.29c0.86-0.86,1.33-2.03,1.29-3.24l0,0l-0.23-80.38c0.03-1.21-0.44-2.38-1.3-3.23
			c-0.86-0.85-2.03-1.3-3.24-1.26l0,0H-7.91z M93.44-30.58c12.98,0,20.91,7.07,20.91,17.87c-0.13,7.92-5.32,14.86-12.87,17.24
			c8.97,1.12,15.64,8.83,15.45,17.87c0,14.65-10,20.74-28.32,20.74l0,0H62.53v-73.71H93.44z M25.24-30.69
			c18.96,0,29.59,12.06,29.59,36.54c0,21.37-7.24,37.11-29.59,37.29H-1.93v-73.83H25.24z M87.81,12.28h-7.7v18.79l7.49,0
			c2.98-0.01,11.64-0.28,11.7-9.48C99.3,17.57,97,12.28,87.81,12.28L87.81,12.28z M19.73-18.97h-3.96v50.04h6.2
			c9.54,0,15-7.41,15-23.61C36.96-7.37,35.35-18.97,19.73-18.97z M85.57-19.26h-5.46v17.87H87c2.52,0.25,5.02-0.6,6.87-2.33
			c1.85-1.73,2.86-4.17,2.78-6.69C96.65-16.56,93.61-19.26,85.57-19.26L85.57-19.26z"/>
	</g>
	<text transform="matrix(1 0 0 1 255.863 42.6446)" class="st4"><tspan x="0" y="0" class="st8 st2 st9">Regio Bus </tspan><tspan x="0" y="58" class="st8 st2 st9">Baden-Württemberg</tspan></text>
	<text id="Regio_Baden-Württemberg" transform="matrix(1 0 0 1 255.863 42.6446)" class="st4"><tspan x="0" y="0" class="st8 st2 st9">Regio </tspan><tspan x="0" y="58" class="st8 st2 st9">Baden-Württemberg</tspan></text>
	<text id="Regio_Berlin_Brandenburg" transform="matrix(1 0 0 1 255.863 42.6446)" class="st4"><tspan x="0" y="0" class="st8 st2 st9">Regio in  </tspan><tspan x="0" y="58" class="st8 st2 st9">Berlin und Brandenburg</tspan></text>
	<text id="Regio_MeckPomm" transform="matrix(1 0 0 1 255.863 42.6446)" class="st4"><tspan x="0" y="0" class="st8 st2 st9">Regio in Mecklenburg </tspan><tspan x="0" y="58" class="st8 st2 st9">und Vorpommern</tspan></text>
	<text id="Regio_NS__x26__Bremen" transform="matrix(1 0 0 1 255.863 42.6446)" class="st4"><tspan x="0" y="0" class="st8 st2 st9">Regio in Niedersachsen </tspan><tspan x="0" y="58" class="st8 st2 st9">und Bremen</tspan></text>
	<text id="Regio_NRW" transform="matrix(1 0 0 1 255.863 42.6446)" class="st4"><tspan x="0" y="0" class="st8 st2 st9">Regio in  </tspan><tspan x="0" y="58" class="st8 st2 st9">Nordrhein-Westfalen</tspan></text>
	<text id="Regio_RLP" transform="matrix(1 0 0 1 255.863 42.6446)" class="st4"><tspan x="0" y="0" class="st8 st2 st9">Regio in  </tspan><tspan x="0" y="58" class="st8 st2 st9">Rheinland-Pfalz</tspan></text>
	<text id="Regio_Saarland" transform="matrix(1 0 0 1 255.863 42.6446)" class="st4"><tspan x="0" y="0" class="st8 st2 st9">Regio im  </tspan><tspan x="0" y="58" class="st8 st2 st9">Saarland</tspan></text>
	<text id="Regio_Sachsen-Anhalt" transform="matrix(1 0 0 1 255.863 42.6446)" class="st4"><tspan x="0" y="0" class="st8 st2 st9">Regio in </tspan><tspan x="0" y="58" class="st8 st2 st9">Sachsen-Anhalt</tspan></text>
	<text id="Regio_Schleswig-Holstein" transform="matrix(1 0 0 1 255.863 42.6446)" class="st4"><tspan x="0" y="0" class="st8 st2 st9">Regio in </tspan><tspan x="0" y="58" class="st8 st2 st9">Schleswig-Holstein</tspan></text>
	<text id="S-Bahn_Rhein-Neckar" transform="matrix(1 0 0 1 255.863 42.6446)" class="st4"><tspan x="0" y="0" class="st8 st2 st9">S-Bahn </tspan><tspan x="0" y="58" class="st8 st2 st9">Rhein-Neckar</tspan></text>
	<text id="S-Bahn_Hannover" transform="matrix(1 0 0 1 255.863 42.6446)" class="st10"><tspan x="0" y="0" class="st5 st2 st9">S-Bahn </tspan><tspan x="0" y="58" class="st5 st2 st9">Hannover</tspan></text>
</g>
</svg>
