<svg xmlns:xlink="http://www.w3.org/1999/xlink" xmlns="http://www.w3.org/2000/svg" viewBox="0 0 512 512" width="512"  height="512" ><defs><style>.a{fill:#003c8d;}.b{fill:#ffea00;}</style></defs><title>deppon</title><path class="a" d="M512,472a40,40,0,0,1-40,40H40A40,40,0,0,1,0,472V40A40,40,0,0,1,40,0H472a40,40,0,0,1,40,40Z"/><polyline class="b" points="89.5 423.93 255.96 423.93 255.96 338.61 174.39 338.61 174.39 257.07 255.96 257.07 255.96 171.75 89.5 171.75"/><polyline class="b" points="255.96 88.12 255.99 173.44 337.55 173.42 337.58 254.96 256.01 254.99 256.04 340.31 422.5 340.25 422.41 88.07"/></svg>