<?xml version="1.0" encoding="UTF-8" standalone="no"?>
<!-- Created with Inkscape (http://www.inkscape.org/) -->

<svg
   xmlns:dc="http://purl.org/dc/elements/1.1/"
   xmlns:cc="http://creativecommons.org/ns#"
   xmlns:rdf="http://www.w3.org/1999/02/22-rdf-syntax-ns#"
   xmlns:svg="http://www.w3.org/2000/svg"
   xmlns="http://www.w3.org/2000/svg"
   xmlns:sodipodi="http://sodipodi.sourceforge.net/DTD/sodipodi-0.dtd"
   xmlns:inkscape="http://www.inkscape.org/namespaces/inkscape"
   version="1.1"
   id="svg2"
   width="519.7326"
   height="186.73434"
   viewBox="0 0 519.7326 186.73434"
   sodipodi:docname="direction de l'administration pénitentiaire inverser couleur.svg"
   inkscape:version="0.92.4 (5da689c313, 2019-01-14)">
  <metadata
     id="metadata8">
    <rdf:RDF>
      <cc:Work
         rdf:about="">
        <dc:format>image/svg+xml</dc:format>
        <dc:type
           rdf:resource="http://purl.org/dc/dcmitype/StillImage" />
        <dc:title></dc:title>
      </cc:Work>
    </rdf:RDF>
  </metadata>
  <defs
     id="defs6" />
  <sodipodi:namedview
     pagecolor="#ffffff"
     bordercolor="#666666"
     borderopacity="1"
     objecttolerance="10"
     gridtolerance="10"
     guidetolerance="10"
     inkscape:pageopacity="0"
     inkscape:pageshadow="2"
     inkscape:window-width="1920"
     inkscape:window-height="1001"
     id="namedview4"
     showgrid="false"
     inkscape:zoom="1"
     inkscape:cx="130.21456"
     inkscape:cy="191.54202"
     inkscape:window-x="-9"
     inkscape:window-y="-9"
     inkscape:window-maximized="1"
     inkscape:current-layer="svg2"
     inkscape:pagecheckerboard="true"
     fit-margin-top="0"
     fit-margin-left="0"
     fit-margin-right="0"
     fit-margin-bottom="0" />
  <g
     id="g312"
     transform="translate(-23.989517,-30.710518)">
    <g
       id="text14"
       style="font-style:normal;font-variant:normal;font-weight:normal;font-stretch:normal;font-size:41.36910248px;line-height:1.25;font-family:Timok;-inkscape-font-specification:Timok;letter-spacing:0px;word-spacing:0px;fill:#18469d;fill-opacity:1;stroke:none;stroke-width:1.03422761"
       aria-label="Direction de">
      <path
         id="path845"
         style="font-style:normal;font-variant:normal;font-weight:normal;font-stretch:normal;font-family:Raleway;-inkscape-font-specification:Raleway;letter-spacing:-1px;fill:#18469d;fill-opacity:1;stroke-width:1.03422761"
         d="M 249.62491,86.443375 V 57.071312 h 10.1768 q 3.51637,0 6.16399,1.158335 2.689,1.158335 4.46787,3.144052 1.77887,1.985716 2.64762,4.674708 0.91012,2.647623 0.91012,5.667567 0,3.350897 -0.99286,6.081258 -0.99286,2.688992 -2.85447,4.63334 -1.86161,1.902978 -4.50923,2.978575 -2.60625,1.034228 -5.83304,1.034228 z m 20.60181,-14.727401 q 0,-2.482146 -0.70327,-4.550601 -0.66191,-2.109824 -2.02709,-3.599112 -1.32381,-1.489288 -3.26816,-2.31667 -1.94435,-0.868751 -4.42649,-0.868751 h -6.45358 v 22.753006 h 6.45358 q 2.52351,0 4.46786,-0.868751 1.98572,-0.868751 3.26816,-2.399408 1.32381,-1.530656 1.98572,-3.599112 0.70327,-2.109824 0.70327,-4.550601 z"
         inkscape:connector-curvature="0" />
      <path
         id="path847"
         style="font-style:normal;font-variant:normal;font-weight:normal;font-stretch:normal;font-family:Raleway;-inkscape-font-specification:Raleway;letter-spacing:-1px;fill:#18469d;fill-opacity:1;stroke-width:1.03422761"
         d="M 277.69899,86.443375 V 64.848703 h 3.64048 v 21.594672 z m 0,-25.648844 V 56.24393 h 3.64048 v 4.550601 z"
         inkscape:connector-curvature="0" />
      <path
         id="path849"
         style="font-style:normal;font-variant:normal;font-weight:normal;font-stretch:normal;font-family:Raleway;-inkscape-font-specification:Raleway;letter-spacing:-1px;fill:#18469d;fill-opacity:1;stroke-width:1.03422761"
         d="m 297.65114,68.034124 q -2.73036,0.08274 -4.84018,1.40655 -2.06846,1.323811 -2.93721,3.68185 v 13.320851 h -3.64048 V 64.848703 h 3.39227 v 5.005662 q 1.11696,-2.233932 2.93721,-3.599112 1.82024,-1.40655 3.88869,-1.572026 0.41369,0 0.70328,0 0.28958,0 0.49642,0.04137 z"
         inkscape:connector-curvature="0" />
      <path
         id="path851"
         style="font-style:normal;font-variant:normal;font-weight:normal;font-stretch:normal;font-family:Raleway;-inkscape-font-specification:Raleway;letter-spacing:-1px;fill:#18469d;fill-opacity:1;stroke-width:1.03422761"
         d="m 309.33336,86.857066 q -2.44078,0 -4.46786,-0.868751 -2.02709,-0.910121 -3.47501,-2.440778 -1.44792,-1.530656 -2.2753,-3.557742 -0.78601,-2.068455 -0.78601,-4.343756 0,-2.275301 0.78601,-4.302387 0.82738,-2.027086 2.2753,-3.557743 1.48929,-1.530656 3.51637,-2.399408 2.02709,-0.91012 4.46787,-0.91012 2.44077,0 4.42649,0.91012 2.02709,0.910121 3.43364,2.440778 1.40655,1.489287 2.15119,3.516373 0.78601,1.985717 0.78601,4.13691 0,0.455061 -0.0414,0.827383 0,0.372321 -0.0414,0.579167 H 302.1765 q 0.12411,1.613395 0.74465,2.937206 0.62053,1.323812 1.61339,2.275301 0.99286,0.951489 2.23393,1.489288 1.28245,0.537798 2.689,0.537798 0.99285,0 1.94434,-0.248215 0.95149,-0.289583 1.77888,-0.744644 0.82738,-0.45506 1.44791,-1.116965 0.66191,-0.661906 0.99286,-1.489288 l 3.14405,0.868751 q -0.53779,1.199704 -1.48928,2.192563 -0.91012,0.992858 -2.1512,1.737502 -1.1997,0.703275 -2.68899,1.116966 -1.48929,0.413691 -3.10268,0.413691 z m 7.40507,-12.658946 q -0.12411,-1.530656 -0.78602,-2.813099 -0.62053,-1.323811 -1.61339,-2.233931 -0.95149,-0.91012 -2.23393,-1.40655 -1.28244,-0.537798 -2.73036,-0.537798 -1.44792,0 -2.73036,0.537798 -1.28245,0.49643 -2.2753,1.447919 -0.95149,0.91012 -1.57203,2.192562 -0.57917,1.282443 -0.70327,2.813099 z"
         inkscape:connector-curvature="0" />
      <path
         id="path853"
         style="font-style:normal;font-variant:normal;font-weight:normal;font-stretch:normal;font-family:Raleway;-inkscape-font-specification:Raleway;letter-spacing:-1px;fill:#18469d;fill-opacity:1;stroke-width:1.03422761"
         d="m 321.81129,75.60467 q 0,-2.275301 0.78601,-4.302387 0.78601,-2.027086 2.23393,-3.516374 1.44792,-1.530656 3.43364,-2.399408 2.02708,-0.91012 4.50923,-0.91012 3.22679,0 5.54346,1.447919 2.35804,1.406549 3.55774,3.805957 l -3.55774,1.116966 q -0.82738,-1.530657 -2.31667,-2.358039 -1.48929,-0.868751 -3.30953,-0.868751 -1.48929,0 -2.8131,0.620537 -1.32381,0.579167 -2.2753,1.654764 -0.95149,1.075596 -1.53066,2.523515 -0.53779,1.447918 -0.53779,3.185421 0,1.696133 0.57916,3.185421 0.57917,1.489287 1.53066,2.606253 0.99286,1.075597 2.2753,1.696133 1.32381,0.620537 2.8131,0.620537 0.95149,0 1.86161,-0.248215 0.95149,-0.289583 1.69613,-0.744644 0.78602,-0.45506 1.36518,-1.034227 0.57917,-0.620537 0.82738,-1.323811 l 3.55775,1.075596 q -0.49643,1.199704 -1.40655,2.192563 -0.86875,0.992858 -2.06846,1.696133 -1.1997,0.703275 -2.68899,1.116966 -1.44792,0.413691 -3.06131,0.413691 -2.44078,0 -4.46787,-0.910121 -2.02708,-0.91012 -3.475,-2.440777 -1.44792,-1.530656 -2.2753,-3.557742 -0.78601,-2.068456 -0.78601,-4.343756 z"
         inkscape:connector-curvature="0" />
      <path
         id="path855"
         style="font-style:normal;font-variant:normal;font-weight:normal;font-stretch:normal;font-family:Raleway;-inkscape-font-specification:Raleway;letter-spacing:-1px;fill:#18469d;fill-opacity:1;stroke-width:1.03422761"
         d="m 356.37578,85.367778 q -0.33095,0.165476 -0.86875,0.413691 -0.53779,0.206846 -1.24107,0.45506 -0.66191,0.206846 -1.48929,0.330953 -0.78601,0.165476 -1.65476,0.165476 -1.98572,0 -3.43364,-1.075596 -1.44792,-1.116966 -1.44792,-3.433636 V 67.703171 h -2.9372 v -2.854468 h 2.9372 v -7.198224 h 3.64049 v 7.198224 h 4.84018 v 2.854468 h -4.84018 V 81.10676 q 0.0827,1.199704 0.78601,1.737503 0.70327,0.537798 1.65476,0.537798 1.0756,0 1.94435,-0.330953 0.91012,-0.372322 1.24107,-0.579167 z"
         inkscape:connector-curvature="0" />
      <path
         id="path857"
         style="font-style:normal;font-variant:normal;font-weight:normal;font-stretch:normal;font-family:Raleway;-inkscape-font-specification:Raleway;letter-spacing:-1px;fill:#18469d;fill-opacity:1;stroke-width:1.03422761"
         d="M 358.74995,86.443375 V 64.848703 h 3.64048 v 21.594672 z m 0,-25.648844 V 56.24393 h 3.64048 v 4.550601 z"
         inkscape:connector-curvature="0" />
      <path
         id="path859"
         style="font-style:normal;font-variant:normal;font-weight:normal;font-stretch:normal;font-family:Raleway;-inkscape-font-specification:Raleway;letter-spacing:-1px;fill:#18469d;fill-opacity:1;stroke-width:1.03422761"
         d="m 376.71639,86.857066 q -2.44077,0 -4.46786,-0.910121 -1.98572,-0.91012 -3.43364,-2.440777 -1.40655,-1.530656 -2.19256,-3.557742 -0.78601,-2.027086 -0.78601,-4.261018 0,-2.275301 0.78601,-4.302387 0.82738,-2.027086 2.23393,-3.557742 1.44792,-1.530657 3.43364,-2.440778 2.02708,-0.91012 4.42649,-0.91012 2.39941,0 4.4265,0.91012 2.02708,0.910121 3.43363,2.440778 1.44792,1.530656 2.23393,3.557742 0.82739,2.027086 0.82739,4.302387 0,2.233932 -0.78602,4.261018 -0.78601,2.027086 -2.23393,3.557742 -1.44792,1.530657 -3.475,2.440777 -1.98572,0.910121 -4.4265,0.910121 z m -7.15685,-11.128289 q 0,1.696133 0.5378,3.144052 0.57916,1.447918 1.53065,2.523515 0.99286,1.075597 2.2753,1.696133 1.32381,0.620537 2.8131,0.620537 1.48929,0 2.77173,-0.620537 1.32381,-0.620536 2.31667,-1.696133 0.99286,-1.116966 1.53066,-2.564884 0.57917,-1.489288 0.57917,-3.185421 0,-1.654764 -0.57917,-3.102683 -0.5378,-1.489287 -1.53066,-2.564884 -0.99286,-1.116966 -2.31667,-1.737502 -1.28244,-0.620537 -2.77173,-0.620537 -1.48929,0 -2.8131,0.661906 -1.28244,0.620536 -2.2753,1.737502 -0.95149,1.075597 -1.53065,2.564884 -0.5378,1.447919 -0.5378,3.144052 z"
         inkscape:connector-curvature="0" />
      <path
         id="path861"
         style="font-style:normal;font-variant:normal;font-weight:normal;font-stretch:normal;font-family:Raleway;-inkscape-font-specification:Raleway;letter-spacing:-1px;fill:#18469d;fill-opacity:1;stroke-width:1.03422761"
         d="m 409.82974,86.443375 h -3.64048 V 74.363597 q 0,-3.475005 -1.0756,-5.047031 -1.03423,-1.572026 -3.18542,-1.572026 -1.11697,0 -2.23393,0.45506 -1.11697,0.413691 -2.10983,1.158335 -0.99285,0.744644 -1.7375,1.778872 -0.74464,1.034227 -1.11696,2.2753 v 13.031268 h -3.64049 V 64.848703 h 3.30953 v 4.63334 q 1.28245,-2.275301 3.68185,-3.640481 2.44078,-1.365181 5.29525,-1.365181 1.86161,0 3.10268,0.703275 1.24107,0.661906 1.98572,1.902979 0.74464,1.199704 1.03423,2.854468 0.33095,1.654764 0.33095,3.599112 z"
         inkscape:connector-curvature="0" />
      <path
         id="path863"
         style="font-style:normal;font-variant:normal;font-weight:normal;font-stretch:normal;font-family:Raleway;-inkscape-font-specification:Raleway;letter-spacing:-1px;fill:#18469d;fill-opacity:1;stroke-width:1.03422761"
         d="m 432.88907,86.857066 q -2.23393,0 -4.13691,-0.910121 -1.90298,-0.91012 -3.26816,-2.440777 -1.36518,-1.530656 -2.15119,-3.557742 -0.74464,-2.027086 -0.74464,-4.261018 0,-2.275301 0.70327,-4.302387 0.74465,-2.068455 2.02709,-3.599112 1.32381,-1.530656 3.10268,-2.399408 1.82024,-0.91012 3.97143,-0.91012 2.60626,0 4.63334,1.365181 2.06846,1.36518 3.26816,3.309528 V 56.24393 h 3.64048 v 25.731582 q 0,1.282442 1.15834,1.323811 v 3.144052 q -0.57917,0.08274 -0.95149,0.124107 -0.33095,0.04137 -0.66191,0.04137 -1.07559,0 -1.90297,-0.703275 -0.78602,-0.744644 -0.78602,-1.696133 v -1.82024 q -1.28244,2.109824 -3.43363,3.309528 -2.10983,1.158335 -4.46787,1.158334 z m 0.86875,-3.144052 q 0.99286,0 2.02709,-0.372322 1.0756,-0.372322 1.98572,-1.034228 0.95149,-0.661905 1.61339,-1.530656 0.70328,-0.910121 0.91012,-1.902979 v -6.205365 q -0.37232,-1.034228 -1.11696,-1.944348 -0.74465,-0.95149 -1.69614,-1.613395 -0.91012,-0.703275 -1.98571,-1.075597 -1.03423,-0.413691 -2.06846,-0.413691 -1.61339,0 -2.9372,0.703275 -1.28245,0.661905 -2.23394,1.82024 -0.91012,1.116966 -1.40655,2.606254 -0.49642,1.447918 -0.49642,2.978575 0,1.613395 0.57916,3.102683 0.57917,1.447918 1.57203,2.523515 0.99286,1.075597 2.31667,1.737502 1.36518,0.620537 2.9372,0.620537 z"
         inkscape:connector-curvature="0" />
      <path
         id="path865"
         style="font-style:normal;font-variant:normal;font-weight:normal;font-stretch:normal;font-family:Raleway;-inkscape-font-specification:Raleway;letter-spacing:-1px;fill:#18469d;fill-opacity:1;stroke-width:1.03422761"
         d="m 458.56827,86.857066 q -2.44078,0 -4.46787,-0.868751 -2.02708,-0.910121 -3.475,-2.440778 -1.44792,-1.530656 -2.2753,-3.557742 -0.78601,-2.068455 -0.78601,-4.343756 0,-2.275301 0.78601,-4.302387 0.82738,-2.027086 2.2753,-3.557743 1.48929,-1.530656 3.51637,-2.399408 2.02709,-0.91012 4.46787,-0.91012 2.44077,0 4.42649,0.91012 2.02709,0.910121 3.43364,2.440778 1.40655,1.489287 2.15119,3.516373 0.78601,1.985717 0.78601,4.13691 0,0.455061 -0.0414,0.827383 0,0.372321 -0.0414,0.579167 h -17.91282 q 0.12411,1.613395 0.74465,2.937206 0.62053,1.323812 1.61339,2.275301 0.99286,0.951489 2.23393,1.489288 1.28245,0.537798 2.68899,0.537798 0.99286,0 1.94435,-0.248215 0.95149,-0.289583 1.77887,-0.744644 0.82739,-0.45506 1.44792,-1.116965 0.66191,-0.661906 0.99286,-1.489288 l 3.14405,0.868751 q -0.5378,1.199704 -1.48928,2.192563 -0.91013,0.992858 -2.1512,1.737502 -1.1997,0.703275 -2.68899,1.116966 -1.48929,0.413691 -3.10268,0.413691 z m 7.40507,-12.658946 q -0.12411,-1.530656 -0.78602,-2.813099 -0.62053,-1.323811 -1.61339,-2.233931 -0.95149,-0.91012 -2.23393,-1.40655 -1.28244,-0.537798 -2.73036,-0.537798 -1.44792,0 -2.73036,0.537798 -1.28245,0.49643 -2.2753,1.447919 -0.95149,0.91012 -1.57203,2.192562 -0.57917,1.282443 -0.70328,2.813099 z"
         inkscape:connector-curvature="0" />
    </g>
    <g
       id="text18"
       style="font-style:normal;font-variant:normal;font-weight:500;font-stretch:normal;font-size:40.26171112px;line-height:1.25;font-family:Roboto;-inkscape-font-specification:'Roboto Medium';letter-spacing:0px;word-spacing:0px;fill:#18469d;fill-opacity:1;stroke:none;stroke-width:1.0065428"
       aria-label=" pénitentiaire">
      <path
         id="path901"
         style="fill:#18469d;fill-opacity:1;stroke-width:1.0065428"
         d="m 261.25659,176.67169 q -2.53649,0 -4.46905,-1.20785 -1.93256,-1.20785 -3.05989,-3.14041 v 12.52139 h -4.42879 V 155.2122 h 3.90539 v 3.7846 q 1.20785,-1.8923 3.10015,-3.01963 1.93256,-1.12733 4.34826,-1.12733 2.17413,0 3.98591,0.88576 1.81178,0.88576 3.14041,2.37544 1.32864,1.48969 2.05335,3.46251 0.76497,1.97282 0.76497,4.14696 0,2.29491 -0.68444,4.308 -0.68445,1.97282 -1.93257,3.46251 -1.24811,1.44942 -2.97936,2.33518 -1.691,0.84549 -3.74434,0.84549 z m -1.44942,-3.7846 q 1.40916,0 2.53648,-0.60393 1.16759,-0.60392 1.97283,-1.61046 0.84549,-1.00655 1.28837,-2.29492 0.44288,-1.28838 0.44288,-2.65727 0,-1.44943 -0.5234,-2.7378 -0.48314,-1.28838 -1.3689,-2.25466 -0.8455,-0.96628 -2.05335,-1.52994 -1.20785,-0.56367 -2.61701,-0.56367 -0.84549,0 -1.77151,0.3221 -0.92602,0.32209 -1.73126,0.88576 -0.80523,0.56366 -1.40916,1.32863 -0.60392,0.72471 -0.84549,1.61047 v 5.51586 q 0.40261,0.96628 1.0468,1.81177 0.64419,0.8455 1.40916,1.44942 0.80524,0.60393 1.73126,0.96628 0.92601,0.36236 1.8923,0.36236 z"
         inkscape:connector-curvature="0" />
      <path
         id="path903"
         style="font-style:normal;font-variant:normal;font-weight:600;font-stretch:normal;font-family:Raleway;-inkscape-font-specification:'Raleway Semi-Bold';letter-spacing:0.31999999px;fill:#18469d;fill-opacity:1;stroke-width:1.0065428"
         d="m 285.36748,152.19257 -2.89884,-0.88576 2.29492,-4.42879 h 4.22748 z m -0.88575,24.47912 q -2.45597,0 -4.46905,-0.84549 -2.01309,-0.88576 -3.46251,-2.37545 -1.40916,-1.48968 -2.2144,-3.4625 -0.76497,-1.97283 -0.76497,-4.18722 0,-2.2144 0.76497,-4.18722 0.80524,-2.01308 2.2144,-3.50277 1.44942,-1.52994 3.46251,-2.37544 2.01308,-0.88576 4.50931,-0.88576 2.45596,0 4.42879,0.88576 2.01308,0.88576 3.42224,2.37544 1.40916,1.44942 2.13387,3.42225 0.76497,1.93256 0.76497,4.06643 0,0.48314 -0.0403,0.92602 -0.0403,0.40262 -0.0805,0.68445 H 278.2814 q 0.12079,1.40916 0.64419,2.53649 0.56366,1.12732 1.40916,1.97282 0.88576,0.80523 1.97282,1.24811 1.12733,0.44288 2.33518,0.44288 0.88576,0 1.73126,-0.20131 0.88575,-0.24157 1.61046,-0.64418 0.72471,-0.44288 1.28838,-1.04681 0.56366,-0.60392 0.88576,-1.32863 l 3.7846,1.08706 q -1.08707,2.37544 -3.62356,3.90539 -2.49622,1.48968 -5.83794,1.48968 z m 6.40161,-12.52139 q -0.12079,-1.32864 -0.68445,-2.45597 -0.5234,-1.12732 -1.3689,-1.8923 -0.8455,-0.80523 -1.97282,-1.24811 -1.12733,-0.44288 -2.37544,-0.44288 -1.24812,0 -2.37545,0.44288 -1.08706,0.44288 -1.93256,1.24811 -0.84549,0.76498 -1.3689,1.8923 -0.5234,1.12733 -0.64418,2.45597 z"
         inkscape:connector-curvature="0" />
      <path
         id="path905"
         style="font-style:normal;font-variant:normal;font-weight:600;font-stretch:normal;font-family:Raleway;-inkscape-font-specification:'Raleway Semi-Bold';letter-spacing:0.31999999px;fill:#18469d;fill-opacity:1;stroke-width:1.0065428"
         d="m 318.12647,176.26907 h -4.42879 v -11.79668 q 0,-2.97936 -0.96628,-4.308 -0.92602,-1.3689 -2.77806,-1.3689 -0.96628,0 -1.93256,0.36236 -0.96628,0.36235 -1.81177,1.0468 -0.8455,0.64419 -1.52995,1.57021 -0.64419,0.88576 -1.00654,1.97282 v 12.52139 h -4.42879 V 155.2122 h 4.02617 v 4.22748 q 1.20785,-2.13387 3.50277,-3.34172 2.29492,-1.24812 5.07297,-1.24812 1.89231,0 3.10016,0.68445 1.20785,0.68445 1.8923,1.8923 0.72471,1.16759 1.00654,2.7378 0.28183,1.52994 0.28183,3.2612 z"
         inkscape:connector-curvature="0" />
      <path
         id="path907"
         style="font-style:normal;font-variant:normal;font-weight:600;font-stretch:normal;font-family:Raleway;-inkscape-font-specification:'Raleway Semi-Bold';letter-spacing:0.31999999px;fill:#18469d;fill-opacity:1;stroke-width:1.0065428"
         d="M 323.62639,176.26907 V 155.2122 h 4.42879 v 21.05687 z m 0,-24.51938 v -4.87167 h 4.42879 v 4.87167 z"
         inkscape:connector-curvature="0" />
      <path
         id="path909"
         style="font-style:normal;font-variant:normal;font-weight:600;font-stretch:normal;font-family:Raleway;-inkscape-font-specification:'Raleway Semi-Bold';letter-spacing:0.31999999px;fill:#18469d;fill-opacity:1;stroke-width:1.0065428"
         d="m 345.41343,175.18201 q -0.84549,0.40261 -2.33518,0.92602 -1.48968,0.48314 -3.18067,0.48314 -1.04681,0 -1.97283,-0.28183 -0.92602,-0.28184 -1.65073,-0.8455 -0.68445,-0.56366 -1.08706,-1.44942 -0.40262,-0.92602 -0.40262,-2.2144 v -13.16558 h -2.77806 v -3.42224 h 2.77806 v -6.92502 h 4.42879 v 6.92502 h 4.58983 v 3.42224 h -4.58983 v 11.75642 q 0.0805,1.12733 0.68445,1.65073 0.64418,0.48314 1.5702,0.48314 0.92602,0 1.77152,-0.32209 0.8455,-0.32209 1.24811,-0.5234 z"
         inkscape:connector-curvature="0" />
      <path
         id="path911"
         style="font-style:normal;font-variant:normal;font-weight:600;font-stretch:normal;font-family:Raleway;-inkscape-font-specification:'Raleway Semi-Bold';letter-spacing:0.31999999px;fill:#18469d;fill-opacity:1;stroke-width:1.0065428"
         d="m 357.79245,176.67169 q -2.45597,0 -4.46905,-0.84549 -2.01309,-0.88576 -3.46251,-2.37545 -1.40916,-1.48968 -2.2144,-3.4625 -0.76497,-1.97283 -0.76497,-4.18722 0,-2.2144 0.76497,-4.18722 0.80524,-2.01308 2.2144,-3.50277 1.44942,-1.52994 3.46251,-2.37544 2.01308,-0.88576 4.50931,-0.88576 2.45596,0 4.42879,0.88576 2.01308,0.88576 3.42224,2.37544 1.40916,1.44942 2.13387,3.42225 0.76497,1.93256 0.76497,4.06643 0,0.48314 -0.0403,0.92602 -0.0403,0.40262 -0.0805,0.68445 h -16.86966 q 0.12079,1.40916 0.64419,2.53649 0.56366,1.12732 1.40916,1.97282 0.88576,0.80523 1.97282,1.24811 1.12733,0.44288 2.33518,0.44288 0.88576,0 1.73126,-0.20131 0.88575,-0.24157 1.61046,-0.64418 0.72472,-0.44288 1.28838,-1.04681 0.56366,-0.60392 0.88576,-1.32863 l 3.7846,1.08706 q -1.08707,2.37544 -3.62356,3.90539 -2.49622,1.48968 -5.83794,1.48968 z m 6.40161,-12.52139 q -0.12079,-1.32864 -0.68445,-2.45597 -0.5234,-1.12732 -1.3689,-1.8923 -0.8455,-0.80523 -1.97282,-1.24811 -1.12733,-0.44288 -2.37544,-0.44288 -1.24812,0 -2.37545,0.44288 -1.08706,0.44288 -1.93256,1.24811 -0.84549,0.76498 -1.3689,1.8923 -0.5234,1.12733 -0.64418,2.45597 z"
         inkscape:connector-curvature="0" />
      <path
         id="path913"
         style="font-style:normal;font-variant:normal;font-weight:600;font-stretch:normal;font-family:Raleway;-inkscape-font-specification:'Raleway Semi-Bold';letter-spacing:0.31999999px;fill:#18469d;fill-opacity:1;stroke-width:1.0065428"
         d="m 391.43719,176.26907 h -4.42879 v -11.79668 q 0,-2.97936 -0.96628,-4.308 -0.92602,-1.3689 -2.77806,-1.3689 -0.96628,0 -1.93256,0.36236 -0.96628,0.36235 -1.81178,1.0468 -0.8455,0.64419 -1.52995,1.57021 -0.64418,0.88576 -1.00654,1.97282 v 12.52139 h -4.42879 V 155.2122 h 4.02618 v 4.22748 q 1.20785,-2.13387 3.50276,-3.34172 2.29492,-1.24812 5.07298,-1.24812 1.8923,0 3.10015,0.68445 1.20785,0.68445 1.8923,1.8923 0.72471,1.16759 1.00654,2.7378 0.28184,1.52994 0.28184,3.2612 z"
         inkscape:connector-curvature="0" />
      <path
         id="path915"
         style="font-style:normal;font-variant:normal;font-weight:600;font-stretch:normal;font-family:Raleway;-inkscape-font-specification:'Raleway Semi-Bold';letter-spacing:0.31999999px;fill:#18469d;fill-opacity:1;stroke-width:1.0065428"
         d="m 408.41736,175.18201 q -0.8455,0.40261 -2.33518,0.92602 -1.48968,0.48314 -3.18067,0.48314 -1.04681,0 -1.97283,-0.28183 -0.92602,-0.28184 -1.65073,-0.8455 -0.68445,-0.56366 -1.08706,-1.44942 -0.40262,-0.92602 -0.40262,-2.2144 v -13.16558 h -2.77806 v -3.42224 h 2.77806 v -6.92502 h 4.42879 v 6.92502 h 4.58983 v 3.42224 h -4.58983 v 11.75642 q 0.0805,1.12733 0.68445,1.65073 0.64418,0.48314 1.5702,0.48314 0.92602,0 1.77152,-0.32209 0.84549,-0.32209 1.24811,-0.5234 z"
         inkscape:connector-curvature="0" />
      <path
         id="path917"
         style="font-style:normal;font-variant:normal;font-weight:600;font-stretch:normal;font-family:Raleway;-inkscape-font-specification:'Raleway Semi-Bold';letter-spacing:0.31999999px;fill:#18469d;fill-opacity:1;stroke-width:1.0065428"
         d="M 411.80479,176.26907 V 155.2122 h 4.42879 v 21.05687 z m 0,-24.51938 v -4.87167 h 4.42879 v 4.87167 z"
         inkscape:connector-curvature="0" />
      <path
         id="path919"
         style="font-style:normal;font-variant:normal;font-weight:600;font-stretch:normal;font-family:Raleway;-inkscape-font-specification:'Raleway Semi-Bold';letter-spacing:0.31999999px;fill:#18469d;fill-opacity:1;stroke-width:1.0065428"
         d="m 427.47207,176.67169 q -1.52995,0 -2.85859,-0.48314 -1.28837,-0.5234 -2.25465,-1.40916 -0.92602,-0.88576 -1.48969,-2.09361 -0.5234,-1.20785 -0.5234,-2.61701 0,-1.48968 0.64419,-2.69753 0.64419,-1.20786 1.81178,-2.09361 1.20785,-0.88576 2.81832,-1.3689 1.65073,-0.48314 3.62355,-0.48314 1.48968,0 2.93911,0.28183 1.44942,0.24157 2.61701,0.68445 v -1.44942 q 0,-2.33518 -1.32864,-3.62356 -1.32864,-1.32863 -3.82486,-1.32863 -1.69099,0 -3.34172,0.64418 -1.61047,0.60393 -3.34173,1.77152 l -1.36889,-2.81832 q 4.06643,-2.7378 8.45495,-2.7378 4.34827,0 6.76397,2.2144 2.4157,2.21439 2.4157,6.36135 v 7.60946 q 0,1.40916 1.16759,1.44942 v 3.7846 q -0.64418,0.12079 -1.12732,0.16105 -0.44288,0.0403 -0.88576,0.0403 -1.28838,0 -2.01309,-0.64418 -0.68445,-0.64419 -0.84549,-1.65074 l -0.12079,-1.32863 q -1.40916,1.85204 -3.50277,2.85858 -2.05334,0.96628 -4.42878,0.96628 z m 1.20785,-3.2612 q 1.61046,0 3.01962,-0.56366 1.44943,-0.60393 2.25466,-1.65073 0.8455,-0.72471 0.8455,-1.52995 v -2.77805 q -1.12733,-0.44288 -2.41571,-0.68445 -1.24811,-0.24157 -2.45596,-0.24157 -2.37544,0 -3.90539,1.0468 -1.48968,1.00654 -1.48968,2.69754 0,1.5702 1.16759,2.65727 1.16759,1.0468 2.97937,1.0468 z"
         inkscape:connector-curvature="0" />
      <path
         id="path921"
         style="font-style:normal;font-variant:normal;font-weight:600;font-stretch:normal;font-family:Raleway;-inkscape-font-specification:'Raleway Semi-Bold';letter-spacing:0.31999999px;fill:#18469d;fill-opacity:1;stroke-width:1.0065428"
         d="M 444.92152,176.26907 V 155.2122 h 4.42879 v 21.05687 z m 0,-24.51938 v -4.87167 h 4.42879 v 4.87167 z"
         inkscape:connector-curvature="0" />
      <path
         id="path923"
         style="font-style:normal;font-variant:normal;font-weight:600;font-stretch:normal;font-family:Raleway;-inkscape-font-specification:'Raleway Semi-Bold';letter-spacing:0.31999999px;fill:#18469d;fill-opacity:1;stroke-width:1.0065428"
         d="m 466.82936,159.03706 q -2.57675,0.0805 -4.58984,1.20785 -1.97282,1.08707 -2.81831,3.14042 v 12.88374 h -4.42879 V 155.2122 h 4.10669 v 4.71062 q 1.08707,-2.17413 2.81832,-3.46251 1.77152,-1.32863 3.7846,-1.44942 0.40262,0 0.64419,0 0.28183,0 0.48314,0.0403 z"
         inkscape:connector-curvature="0" />
      <path
         id="path925"
         style="font-style:normal;font-variant:normal;font-weight:600;font-stretch:normal;font-family:Raleway;-inkscape-font-specification:'Raleway Semi-Bold';letter-spacing:0.31999999px;fill:#18469d;fill-opacity:1;stroke-width:1.0065428"
         d="m 478.85167,176.67169 q -2.45596,0 -4.46905,-0.84549 -2.01308,-0.88576 -3.4625,-2.37545 -1.40916,-1.48968 -2.2144,-3.4625 -0.76497,-1.97283 -0.76497,-4.18722 0,-2.2144 0.76497,-4.18722 0.80524,-2.01308 2.2144,-3.50277 1.44942,-1.52994 3.4625,-2.37544 2.01309,-0.88576 4.50931,-0.88576 2.45597,0 4.42879,0.88576 2.01309,0.88576 3.42225,2.37544 1.40916,1.44942 2.13387,3.42225 0.76497,1.93256 0.76497,4.06643 0,0.48314 -0.0403,0.92602 -0.0403,0.40262 -0.0805,0.68445 h -16.86966 q 0.12078,1.40916 0.64419,2.53649 0.56366,1.12732 1.40916,1.97282 0.88575,0.80523 1.97282,1.24811 1.12733,0.44288 2.33518,0.44288 0.88576,0 1.73125,-0.20131 0.88576,-0.24157 1.61047,-0.64418 0.72471,-0.44288 1.28838,-1.04681 0.56366,-0.60392 0.88575,-1.32863 l 3.7846,1.08706 q -1.08706,2.37544 -3.62355,3.90539 -2.49623,1.48968 -5.83795,1.48968 z m 6.40161,-12.52139 q -0.12078,-1.32864 -0.68444,-2.45597 -0.52341,-1.12732 -1.3689,-1.8923 -0.8455,-0.80523 -1.97283,-1.24811 -1.12732,-0.44288 -2.37544,-0.44288 -1.24811,0 -2.37544,0.44288 -1.08706,0.44288 -1.93256,1.24811 -0.8455,0.76498 -1.3689,1.8923 -0.5234,1.12733 -0.64419,2.45597 z"
         inkscape:connector-curvature="0" />
    </g>
    <g
       id="text18-8"
       style="font-style:normal;font-variant:normal;font-weight:500;font-stretch:normal;font-size:40px;line-height:1.25;font-family:Roboto;-inkscape-font-specification:'Roboto Medium';letter-spacing:0px;word-spacing:0px;fill:#18469d;fill-opacity:1;stroke:none"
       aria-label="l’administration">
      <path
         id="path868"
         style="font-style:normal;font-variant:normal;font-weight:600;font-stretch:normal;font-family:Raleway;-inkscape-font-specification:'Raleway Semi-Bold';letter-spacing:0.5px;fill:#18469d;fill-opacity:1"
         d="m 249.299,101.61549 h 4.4 v 23.16 q 0,1.16 0.6,1.84 0.6,0.64 1.68,0.64 0.44,0 1,-0.16 0.6,-0.16 1.12,-0.36 l 0.64,3.44 q -0.96,0.44 -2.28,0.68 -1.32,0.28 -2.36,0.28 -2.28,0 -3.56,-1.24 -1.24,-1.24 -1.24,-3.52 z"
         inkscape:connector-curvature="0" />
      <path
         id="path870"
         style="font-style:normal;font-variant:normal;font-weight:600;font-stretch:normal;font-family:Raleway;-inkscape-font-specification:'Raleway Semi-Bold';letter-spacing:0.5px;fill:#18469d;fill-opacity:1"
         d="m 261.5215,111.17549 0.84,-4.72 h -1.4 v -4.96 h 4.32 v 5 l -1.32,4.68 z"
         inkscape:connector-curvature="0" />
      <path
         id="path872"
         style="font-style:normal;font-variant:normal;font-weight:600;font-stretch:normal;font-family:Raleway;-inkscape-font-specification:'Raleway Semi-Bold';letter-spacing:0.5px;fill:#18469d;fill-opacity:1"
         d="m 275.58463,131.21549 q -1.52,0 -2.84,-0.48 -1.28,-0.52 -2.24,-1.4 -0.92,-0.88 -1.48,-2.08 -0.52,-1.2 -0.52,-2.6 0,-1.48 0.64,-2.68 0.64,-1.2 1.8,-2.08 1.2,-0.88 2.8,-1.36 1.64,-0.48 3.6,-0.48 1.48,0 2.92,0.28 1.44,0.24 2.6,0.68 v -1.44 q 0,-2.32 -1.32,-3.6 -1.32,-1.32 -3.8,-1.32 -1.68,0 -3.32,0.64 -1.6,0.6 -3.32,1.76 l -1.36,-2.8 q 4.04,-2.72 8.4,-2.72 4.32,0 6.72,2.2 2.4,2.2 2.4,6.32 v 7.56 q 0,1.4 1.16,1.44 v 3.76 q -0.64,0.12 -1.12,0.16 -0.44,0.04 -0.88,0.04 -1.28,0 -2,-0.64 -0.68,-0.64 -0.84,-1.64 l -0.12,-1.32 q -1.4,1.84 -3.48,2.84 -2.04,0.96 -4.4,0.96 z m 1.2,-3.24 q 1.6,0 3,-0.56 1.44,-0.6 2.24,-1.64 0.84,-0.72 0.84,-1.52 v -2.76 q -1.12,-0.44 -2.4,-0.68 -1.24,-0.24 -2.44,-0.24 -2.36,0 -3.88,1.04 -1.48,1 -1.48,2.68 0,1.56 1.16,2.64 1.16,1.04 2.96,1.04 z"
         inkscape:connector-curvature="0" />
      <path
         id="path874"
         style="font-style:normal;font-variant:normal;font-weight:600;font-stretch:normal;font-family:Raleway;-inkscape-font-specification:'Raleway Semi-Bold';letter-spacing:0.5px;fill:#18469d;fill-opacity:1"
         d="m 301.62275,131.21549 q -2.12,0 -3.92,-0.84 -1.8,-0.88 -3.12,-2.36 -1.32,-1.48 -2.08,-3.44 -0.72,-2 -0.72,-4.28 0,-2.2 0.68,-4.12 0.72,-1.96 1.96,-3.44 1.28,-1.48 2.96,-2.32 1.72,-0.88 3.76,-0.88 2.52,0 4.44,1.24 1.92,1.2 3,3.08 v -12.24 h 4.4 v 24 q 0,0.76 0.24,1.08 0.28,0.32 0.96,0.36 v 3.76 q -0.68,0.12 -1.12,0.16 -0.4,0.04 -0.68,0.04 -1.32,0 -2.16,-0.68 -0.84,-0.68 -0.92,-1.76 l -0.08,-1.56 q -1.16,1.96 -3.16,3.08 -2,1.12 -4.44,1.12 z m 1.08,-3.76 q 0.96,0 1.92,-0.32 0.96,-0.32 1.76,-0.88 0.8,-0.56 1.36,-1.32 0.6,-0.76 0.84,-1.64 v -5.48 q -0.36,-1 -1.04,-1.84 -0.64,-0.84 -1.48,-1.44 -0.84,-0.6 -1.8,-0.92 -0.92,-0.32 -1.88,-0.32 -1.32,0 -2.44,0.6 -1.08,0.6 -1.88,1.6 -0.8,1 -1.28,2.28 -0.44,1.28 -0.44,2.64 0,1.44 0.48,2.72 0.52,1.28 1.4,2.24 0.88,0.96 2,1.52 1.16,0.56 2.48,0.56 z"
         inkscape:connector-curvature="0" />
      <path
         id="path876"
         style="font-style:normal;font-variant:normal;font-weight:600;font-stretch:normal;font-family:Raleway;-inkscape-font-specification:'Raleway Semi-Bold';letter-spacing:0.5px;fill:#18469d;fill-opacity:1"
         d="m 351.0715,130.81549 h -4.4 v -11.72 q 0,-2.92 -0.96,-4.28 -0.96,-1.36 -2.8,-1.36 -1.88,0 -3.44,1.4 -1.52,1.36 -2.2,3.56 v 12.4 h -4.4 v -11.72 q 0,-2.96 -0.96,-4.28 -0.96,-1.36 -2.76,-1.36 -1.88,0 -3.44,1.36 -1.56,1.36 -2.24,3.56 v 12.44 h -4.4 v -20.92 h 4 v 4.2 q 1.24,-2.2 3.24,-3.36 2.04,-1.2 4.64,-1.2 2.6,0 4.08,1.36 1.52,1.36 1.88,3.4 1.32,-2.32 3.32,-3.52 2,-1.24 4.56,-1.24 1.84,0 3.04,0.72 1.24,0.68 1.96,1.84 0.72,1.16 1,2.72 0.28,1.52 0.28,3.24 z"
         inkscape:connector-curvature="0" />
      <path
         id="path878"
         style="font-style:normal;font-variant:normal;font-weight:600;font-stretch:normal;font-family:Raleway;-inkscape-font-specification:'Raleway Semi-Bold';letter-spacing:0.5px;fill:#18469d;fill-opacity:1"
         d="m 356.68088,130.81549 v -20.92 h 4.4 v 20.92 z m 0,-24.36 v -4.84 h 4.4 v 4.84 z"
         inkscape:connector-curvature="0" />
      <path
         id="path880"
         style="font-style:normal;font-variant:normal;font-weight:600;font-stretch:normal;font-family:Raleway;-inkscape-font-specification:'Raleway Semi-Bold';letter-spacing:0.5px;fill:#18469d;fill-opacity:1"
         d="m 385.62838,130.81549 h -4.4 v -11.72 q 0,-2.96 -0.96,-4.28 -0.92,-1.36 -2.76,-1.36 -0.96,0 -1.92,0.36 -0.96,0.36 -1.8,1.04 -0.84,0.64 -1.52,1.56 -0.64,0.88 -1,1.96 v 12.44 h -4.4 v -20.92 h 4 v 4.2 q 1.2,-2.12 3.48,-3.32 2.28,-1.24 5.04,-1.24 1.88,0 3.08,0.68 1.2,0.68 1.88,1.88 0.72,1.16 1,2.72 0.28,1.52 0.28,3.24 z"
         inkscape:connector-curvature="0" />
      <path
         id="path882"
         style="font-style:normal;font-variant:normal;font-weight:600;font-stretch:normal;font-family:Raleway;-inkscape-font-specification:'Raleway Semi-Bold';letter-spacing:0.5px;fill:#18469d;fill-opacity:1"
         d="m 391.27463,130.81549 v -20.92 h 4.4 v 20.92 z m 0,-24.36 v -4.84 h 4.4 v 4.84 z"
         inkscape:connector-curvature="0" />
      <path
         id="path884"
         style="font-style:normal;font-variant:normal;font-weight:600;font-stretch:normal;font-family:Raleway;-inkscape-font-specification:'Raleway Semi-Bold';letter-spacing:0.5px;fill:#18469d;fill-opacity:1"
         d="m 409.06213,131.21549 q -2.52,0 -5.04,-0.8 -2.48,-0.84 -4.28,-2.36 l 1.76,-2.8 q 1.88,1.36 3.72,2.08 1.84,0.68 3.76,0.68 1.96,0 3.08,-0.76 1.16,-0.76 1.16,-2.16 0,-1.32 -1.28,-1.92 -1.28,-0.6 -4,-1.32 -1.96,-0.52 -3.36,-1 -1.4,-0.48 -2.28,-1.12 -0.88,-0.64 -1.28,-1.48 -0.4,-0.84 -0.4,-2.04 0,-1.6 0.6,-2.84 0.64,-1.24 1.72,-2.08 1.12,-0.88 2.6,-1.32 1.48,-0.44 3.2,-0.44 2.36,0 4.4,0.72 2.04,0.72 3.64,2.08 l -1.88,2.64 q -2.92,-2.32 -6.2,-2.32 -1.68,0 -2.84,0.72 -1.12,0.68 -1.12,2.2 0,0.64 0.24,1.08 0.24,0.44 0.76,0.76 0.56,0.32 1.4,0.6 0.88,0.24 2.16,0.56 2.12,0.52 3.64,1.04 1.56,0.52 2.56,1.24 1,0.68 1.48,1.64 0.48,0.92 0.48,2.24 0,3 -2.28,4.76 -2.24,1.72 -6.12,1.72 z"
         inkscape:connector-curvature="0" />
      <path
         id="path886"
         style="font-style:normal;font-variant:normal;font-weight:600;font-stretch:normal;font-family:Raleway;-inkscape-font-specification:'Raleway Semi-Bold';letter-spacing:0.5px;fill:#18469d;fill-opacity:1"
         d="m 433.44588,129.73549 q -0.84,0.4 -2.32,0.92 -1.48,0.48 -3.16,0.48 -1.04,0 -1.96,-0.28 -0.92,-0.28 -1.64,-0.84 -0.68,-0.56 -1.08,-1.44 -0.4,-0.92 -0.4,-2.2 v -13.08 h -2.76 v -3.4 h 2.76 v -6.88 h 4.4 v 6.88 h 4.56 v 3.4 h -4.56 v 11.68 q 0.08,1.12 0.68,1.64 0.64,0.48 1.56,0.48 0.92,0 1.76,-0.32 0.84,-0.32 1.24,-0.52 z"
         inkscape:connector-curvature="0" />
      <path
         id="path888"
         style="font-style:normal;font-variant:normal;font-weight:600;font-stretch:normal;font-family:Raleway;-inkscape-font-specification:'Raleway Semi-Bold';letter-spacing:0.5px;fill:#18469d;fill-opacity:1"
         d="m 448.75338,113.69549 q -2.56,0.08 -4.56,1.2 -1.96,1.08 -2.8,3.12 v 12.8 h -4.4 v -20.92 h 4.08 v 4.68 q 1.08,-2.16 2.8,-3.44 1.76,-1.32 3.76,-1.44 0.4,0 0.64,0 0.28,0 0.48,0.04 z"
         inkscape:connector-curvature="0" />
      <path
         id="path890"
         style="font-style:normal;font-variant:normal;font-weight:600;font-stretch:normal;font-family:Raleway;-inkscape-font-specification:'Raleway Semi-Bold';letter-spacing:0.5px;fill:#18469d;fill-opacity:1"
         d="m 457.66275,131.21549 q -1.52,0 -2.84,-0.48 -1.28,-0.52 -2.24,-1.4 -0.92,-0.88 -1.48,-2.08 -0.52,-1.2 -0.52,-2.6 0,-1.48 0.64,-2.68 0.64,-1.2 1.8,-2.08 1.2,-0.88 2.8,-1.36 1.64,-0.48 3.6,-0.48 1.48,0 2.92,0.28 1.44,0.24 2.6,0.68 v -1.44 q 0,-2.32 -1.32,-3.6 -1.32,-1.32 -3.8,-1.32 -1.68,0 -3.32,0.64 -1.6,0.6 -3.32,1.76 l -1.36,-2.8 q 4.04,-2.72 8.4,-2.72 4.32,0 6.72,2.2 2.4,2.2 2.4,6.32 v 7.56 q 0,1.4 1.16,1.44 v 3.76 q -0.64,0.12 -1.12,0.16 -0.44,0.04 -0.88,0.04 -1.28,0 -2,-0.64 -0.68,-0.64 -0.84,-1.64 l -0.12,-1.32 q -1.4,1.84 -3.48,2.84 -2.04,0.96 -4.4,0.96 z m 1.2,-3.24 q 1.6,0 3,-0.56 1.44,-0.6 2.24,-1.64 0.84,-0.72 0.84,-1.52 v -2.76 q -1.12,-0.44 -2.4,-0.68 -1.24,-0.24 -2.44,-0.24 -2.36,0 -3.88,1.04 -1.48,1 -1.48,2.68 0,1.56 1.16,2.64 1.16,1.04 2.96,1.04 z"
         inkscape:connector-curvature="0" />
      <path
         id="path892"
         style="font-style:normal;font-variant:normal;font-weight:600;font-stretch:normal;font-family:Raleway;-inkscape-font-specification:'Raleway Semi-Bold';letter-spacing:0.5px;fill:#18469d;fill-opacity:1"
         d="m 486.66463,129.73549 q -0.84,0.4 -2.32,0.92 -1.48,0.48 -3.16,0.48 -1.04,0 -1.96,-0.28 -0.92,-0.28 -1.64,-0.84 -0.68,-0.56 -1.08,-1.44 -0.4,-0.92 -0.4,-2.2 v -13.08 h -2.76 v -3.4 h 2.76 v -6.88 h 4.4 v 6.88 h 4.56 v 3.4 h -4.56 v 11.68 q 0.08,1.12 0.68,1.64 0.64,0.48 1.56,0.48 0.92,0 1.76,-0.32 0.84,-0.32 1.24,-0.52 z"
         inkscape:connector-curvature="0" />
      <path
         id="path894"
         style="font-style:normal;font-variant:normal;font-weight:600;font-stretch:normal;font-family:Raleway;-inkscape-font-specification:'Raleway Semi-Bold';letter-spacing:0.5px;fill:#18469d;fill-opacity:1"
         d="m 490.21213,130.81549 v -20.92 h 4.4 v 20.92 z m 0,-24.36 v -4.84 h 4.4 v 4.84 z"
         inkscape:connector-curvature="0" />
      <path
         id="path896"
         style="font-style:normal;font-variant:normal;font-weight:600;font-stretch:normal;font-family:Raleway;-inkscape-font-specification:'Raleway Semi-Bold';letter-spacing:0.5px;fill:#18469d;fill-opacity:1"
         d="m 509.79963,131.21549 q -2.48,0 -4.48,-0.88 -1.96,-0.88 -3.36,-2.36 -1.4,-1.48 -2.16,-3.44 -0.76,-2 -0.76,-4.16 0,-2.16 0.76,-4.12 0.76,-2 2.16,-3.48 1.44,-1.48 3.4,-2.36 2,-0.88 4.44,-0.88 2.44,0 4.4,0.88 2,0.88 3.4,2.36 1.44,1.48 2.2,3.48 0.76,1.96 0.76,4.12 0,2.16 -0.76,4.16 -0.76,1.96 -2.2,3.44 -1.4,1.48 -3.4,2.36 -1.96,0.88 -4.4,0.88 z m -6.24,-10.8 q 0,1.52 0.48,2.8 0.48,1.28 1.32,2.24 0.84,0.92 1.96,1.48 1.16,0.52 2.48,0.52 1.32,0 2.44,-0.52 1.16,-0.56 2,-1.52 0.84,-0.96 1.32,-2.24 0.48,-1.28 0.48,-2.8 0,-1.48 -0.48,-2.76 -0.48,-1.32 -1.32,-2.28 -0.84,-0.96 -2,-1.48 -1.12,-0.56 -2.44,-0.56 -1.28,0 -2.44,0.56 -1.12,0.56 -1.96,1.52 -0.84,0.96 -1.36,2.28 -0.48,1.28 -0.48,2.76 z"
         inkscape:connector-curvature="0" />
      <path
         id="path898"
         style="font-style:normal;font-variant:normal;font-weight:600;font-stretch:normal;font-family:Raleway;-inkscape-font-specification:'Raleway Semi-Bold';letter-spacing:0.5px;fill:#18469d;fill-opacity:1"
         d="m 543.72213,130.81549 h -4.4 v -11.72 q 0,-2.96 -0.96,-4.28 -0.92,-1.36 -2.76,-1.36 -0.96,0 -1.92,0.36 -0.96,0.36 -1.8,1.04 -0.84,0.64 -1.52,1.56 -0.64,0.88 -1,1.96 v 12.44 h -4.4 v -20.92 h 4 v 4.2 q 1.2,-2.12 3.48,-3.32 2.28,-1.24 5.04,-1.24 1.88,0 3.08,0.68 1.2,0.68 1.88,1.88 0.72,1.16 1,2.72 0.28,1.52 0.28,3.24 z"
         inkscape:connector-curvature="0" />
    </g>
    <circle
       r="93.367172"
       cy="124.07769"
       cx="117.35669"
       id="path77"
       style="opacity:1;fill:#18469d;fill-opacity:1;stroke:none;stroke-width:0.01990284;stroke-linecap:round;stroke-linejoin:round;stroke-miterlimit:4;stroke-dasharray:none;stroke-opacity:1" />
    <g
       id="text823"
       style="font-style:normal;font-variant:normal;font-weight:normal;font-stretch:normal;font-size:80.56481171px;line-height:1.25;font-family:Timok;-inkscape-font-specification:Timok;letter-spacing:0px;word-spacing:0px;fill:#ffffff;fill-opacity:1;stroke:none;stroke-width:2.01412034"
       aria-label="dap">
      <path
         id="path928"
         style="font-style:normal;font-variant:normal;font-weight:normal;font-stretch:normal;font-family:'KGNJDH+Themis-Display';-inkscape-font-specification:'KGNJDH+Themis-Display';fill:#ffffff;fill-opacity:1;stroke-width:2.01412034"
         d="m 88.691351,87.617052 h 2.416945 v 49.144538 h 6.122925 v 2.25581 h -8.53987 z m -4.511629,0 h 2.416944 v 21.027418 q -4.269935,-4.10881 -10.71512,-4.10881 -6.20349,0 -9.506648,5.07559 -3.222592,4.99501 -3.222592,14.25997 0,8.4593 3.142028,13.13206 3.142027,4.5922 9.023258,4.5922 2.014121,0 3.947676,-0.88622 2.014121,-0.88621 2.900333,-1.61129 0.966778,-0.80565 2.658639,-2.57808 1.691861,-1.77242 1.772426,-1.85299 v 6.28406 h 10.634555 v 2.25581 H 84.179722 v -3.38372 q -3.705982,4.18937 -8.86213,4.18937 -6.284055,0 -10.55399,-4.99502 -4.18937,-4.99502 -4.18937,-15.14618 0,-10.95682 4.18937,-16.35466 4.18937,-5.39784 10.473426,-5.39784 5.881231,0 8.942694,2.09468 z m 2.416944,44.310648 q -0.08056,0.16113 -0.805648,1.04734 -0.644518,0.80565 -0.966778,1.20847 -0.322259,0.32226 -1.127907,1.20848 -0.725083,0.80564 -1.289037,1.28903 -0.483389,0.40283 -1.369602,1.04734 -0.886213,0.64452 -1.691861,0.96678 -0.805648,0.32226 -1.933555,0.56396 -1.047343,0.24169 -2.094686,0.24169 -4.833888,0 -7.331397,-4.43106 -2.416945,-4.51163 -2.416945,-11.19851 0,-7.41197 2.739204,-12.32642 2.739203,-4.91445 8.217611,-4.91445 5.881231,0 10.070601,5.07558 z m -2.416944,-0.48339 v -19.25499 q -2.497509,-3.14203 -7.331398,-3.14203 -4.431065,0 -6.606315,4.02824 -2.094685,3.94768 -2.094685,10.79569 0,13.21263 7.170268,13.21263 2.094686,0 4.028241,-1.20848 2.01412,-1.20847 2.658639,-1.93355 0.725083,-0.72508 2.17525,-2.49751 z"
         inkscape:connector-curvature="0" />
      <path
         id="path930"
         style="font-style:normal;font-variant:normal;font-weight:normal;font-stretch:normal;font-family:'KGNJDH+Themis-Display';-inkscape-font-specification:'KGNJDH+Themis-Display';fill:#ffffff;fill-opacity:1;stroke-width:2.01412034"
         d="m 102.3987,105.74413 q 5.88123,-3.62541 13.13206,-3.62541 3.70598,0 6.44519,0.96678 2.7392,0.96677 4.18937,2.41694 1.45016,1.3696 2.25581,3.54485 0.88621,2.17525 1.04734,4.02824 0.2417,1.85299 0.2417,4.3505 v 19.33556 h 6.12292 v 2.25581 h -8.53987 v -23.60549 q 0,-10.87625 -11.76246,-10.87625 -7.0897,0 -13.13206,3.70598 z m 22.79984,14.09885 q -11.52077,0 -17.32144,3.38372 -5.7201,3.38372 -5.7201,9.34552 0,3.86711 2.25582,6.52575 2.25581,2.65864 7.25083,2.65864 4.02824,0 7.73422,-1.93356 3.78655,-1.93356 5.80067,-4.10881 v 5.23672 h 10.63455 v 2.25581 h -13.0515 v -3.06146 q -4.67275,3.86711 -11.35963,3.86711 -5.31728,0 -8.62044,-2.9809 -3.222591,-3.06146 -3.222591,-8.53987 0,-7.00914 6.284051,-10.71512 6.36462,-3.78654 16.91861,-4.18937 0,-4.91445 -1.3696,-6.68688 -1.28903,-1.85299 -5.88123,-1.85299 -7.3314,0 -13.13206,4.10881 v -2.49751 q 5.31727,-4.02824 13.13206,-4.02824 9.66778,0 9.66778,8.78156 z m 0,2.25581 v 10.95682 q -1.04734,1.61129 -5.15615,3.94767 -4.1088,2.33638 -8.13705,2.33638 -7.49252,0 -7.49252,-6.84801 0,-4.83389 5.15615,-7.57309 5.23671,-2.81977 15.62957,-2.81977 z m -2.41695,2.25582 q -15.7907,0.88621 -15.7907,8.05648 0,4.67276 5.15615,4.67276 6.20349,0 10.63455,-4.10881 z"
         inkscape:connector-curvature="0" />
      <path
         id="path932"
         style="font-style:normal;font-variant:normal;font-weight:normal;font-stretch:normal;font-family:'KGNJDH+Themis-Display';-inkscape-font-specification:'KGNJDH+Themis-Display';fill:#ffffff;fill-opacity:1;stroke-width:2.01412034"
         d="m 150.53365,150.77986 h 10.23173 v 2.41695 h -12.64867 v -15.71014 q 4.3505,4.18937 10.71512,4.18937 6.20349,0 9.42608,-5.07558 3.30316,-5.07559 3.30316,-14.34054 0,-8.4593 -3.14203,-13.0515 -3.14203,-4.67276 -9.02326,-4.67276 -2.01412,0 -4.02824,0.88622 -1.93355,0.88621 -2.90033,1.69186 -0.88621,0.72508 -2.57807,2.49751 -1.69187,1.77242 -1.77243,1.85299 v -6.28406 h -10.63456 v -2.25581 h 13.0515 v 3.38372 q 3.70598,-4.18937 8.86213,-4.18937 6.28406,0 10.47343,4.99502 4.26993,4.99501 4.26993,15.14618 0,10.95682 -4.18937,16.43522 -4.18937,5.39784 -10.47342,5.39784 -5.7201,0 -8.9427,-2.17525 z m -2.41694,-36.57642 q 0.0806,-0.16113 0.72508,-0.96678 0.72509,-0.88621 1.04735,-1.20847 0.32225,-0.40282 1.04734,-1.20847 0.80565,-0.88622 1.28903,-1.28904 0.56396,-0.48339 1.45017,-1.12791 0.88621,-0.64452 1.69186,-0.96677 0.80565,-0.32226 1.85299,-0.56396 1.12791,-0.24169 2.17525,-0.24169 4.83389,0 7.25084,4.51163 2.49751,4.43106 2.49751,11.11794 0,7.41196 -2.73921,12.40698 -2.7392,4.91446 -8.21761,4.91446 -5.88123,0 -10.0706,-5.15615 z m -2.09469,38.99337 h -8.53987 v -2.41695 h 6.12293 v -41.41031 h -6.12293 v -2.25581 h 8.53987 z m 4.51163,-38.50998 v 19.25499 q 2.57808,3.22259 7.3314,3.22259 4.43107,0 6.52575,-4.02824 2.17525,-4.02824 2.17525,-10.87625 0,-6.04236 -1.77242,-9.58721 -1.77243,-3.62542 -5.39785,-3.62542 -2.09468,0 -4.1088,1.20847 -1.93356,1.20848 -2.65864,1.93356 -0.64452,0.72508 -2.09469,2.49751 z m -13.0515,43.02161 v -2.41695 h 23.28323 v 2.41695 z"
         inkscape:connector-curvature="0" />
    </g>
  </g>
</svg>
