<?xml version="1.0" encoding="UTF-8" standalone="no"?>
<!-- Created with Inkscape (http://www.inkscape.org/) -->
<svg
   xmlns:svg="http://www.w3.org/2000/svg"
   xmlns="http://www.w3.org/2000/svg"
   version="1.0"
   width="670.09998"
   height="205.78999"
   id="svg3399"
   xml:space="preserve"><defs
     id="defs3402" /><g
     transform="matrix(1.25,0,0,-1.25,-73.167833,981.70709)"
     id="g3408"><path
       d="M 518.58294,637.2737 L 517.88447,635.97995 L 516.48699,634.36275 L 515.43879,632.74555 L 513.34285,631.45147 L 511.59618,630.15772 L 509.15091,629.18743 L 506.35592,628.21712 L 464.78416,628.21712 L 462.3387,629.18743 L 459.89342,630.15772 L 457.79725,631.45147 L 456.05059,632.74555 L 454.65327,634.36275 L 453.60513,635.97995 L 452.90644,637.2737 L 405.04644,732.69184 L 403.99847,734.30904 L 402.95051,735.60279 L 401.9023,737.21999 L 400.50499,738.19061 L 398.0597,740.45467 L 394.91556,742.07187 L 391.77141,743.04216 L 388.6275,743.68907 L 385.13401,744.33624 L 381.98986,744.65936 L 295.35278,744.65936 L 292.55817,744.33624 L 289.76336,743.68907 L 287.66718,742.71909 L 285.92053,741.10156 L 284.17387,739.16091 L 283.47507,737.21999 L 282.77639,734.63281 L 282.4271,732.04498 L 282.77639,729.13372 L 283.47507,726.86961 L 284.52322,724.60555 L 286.26988,722.98835 L 288.01653,721.6946 L 290.11264,720.40053 L 292.55817,719.75368 L 295.35278,719.43023 L 359.98125,719.43023 L 364.52272,719.10678 L 368.71483,718.13648 L 373.2563,716.51928 L 377.09912,715.22553 L 380.9419,713.28455 L 384.78466,711.02051 L 387.92864,708.10955 L 391.07279,705.19828 L 393.86758,701.96393 L 395.96359,698.08267 L 398.0597,693.87765 L 399.45701,689.3495 L 400.85451,684.49762 L 401.20367,679.32229 L 401.55301,673.82384 L 401.20367,668.32506 L 400.85451,663.14974 L 399.45701,658.29813 L 398.0597,653.77004 L 395.96359,649.8884 L 393.51823,646.00682 L 391.07279,642.77247 L 387.92864,639.53775 L 384.78466,636.95025 L 380.9419,634.6862 L 377.09912,632.74555 L 373.2563,631.12835 L 368.71483,629.83427 L 364.52272,628.86397 L 359.98125,628.21712 L 275.78964,628.21712 L 273.34436,628.86397 L 271.24818,629.83427 L 269.15207,631.12835 L 267.75474,633.069 L 266.70672,635.00966 L 266.00792,637.59748 L 265.65857,640.83183 L 265.65857,658.29813 L 266.00792,658.94503 L 266.35743,659.91534 L 267.05607,660.56224 L 267.40542,660.88563 L 268.10403,661.20908 L 269.85086,661.53254 L 340.41798,661.53254 L 343.21295,662.17938 L 345.30891,663.14974 L 347.05556,664.76689 L 348.80222,666.38441 L 349.85037,668.32506 L 350.54905,670.91257 L 350.8984,673.82384 L 350.54905,676.7348 L 349.85037,679.32229 L 348.80222,681.58667 L 347.05556,683.20387 L 345.30891,684.49762 L 343.21295,685.46792 L 341.11679,686.11515 L 338.32198,686.43822 L 269.85086,686.43822 L 266.00792,687.08512 L 262.16525,687.40858 L 259.02117,688.37887 L 255.17834,689.3495 L 252.03419,690.9667 L 249.23957,691.93699 L 246.44476,693.55419 L 245.74615,686.43822 L 244.6981,682.88041 L 243.9993,679.32229 L 242.95134,676.08789 L 241.9033,672.52977 L 240.50599,669.29537 L 238.75922,666.38441 L 237.3619,663.14974 L 235.96454,660.56224 L 233.86842,657.65128 L 232.12176,655.06346 L 230.02565,652.47596 L 227.92965,650.21185 L 225.48419,647.94748 L 223.03883,645.68375 L 220.59337,643.74278 L 217.79858,641.80213 L 215.3533,639.86121 L 212.20932,638.24401 L 209.06501,636.6268 L 205.92103,635.00966 L 203.12622,633.71584 L 199.98226,632.74555 L 196.48883,631.77492 L 192.646,630.80463 L 185.65907,629.18743 L 177.97347,628.21712 L 72.4721,628.21712 L 71.77324,628.86397 L 71.074611,629.18743 L 70.725268,629.83427 L 70.026582,630.48118 L 69.677123,631.12835 L 69.677123,716.51928 L 70.026582,717.16618 L 70.725268,718.13648 L 70.725268,718.46025 L 71.77324,719.10678 L 72.4721,719.43023 L 111.24901,719.43023 L 113.69446,718.78333 L 116.13997,717.48958 L 117.88663,715.87243 L 118.93461,714.25523 L 119.98258,711.99113 L 120.68127,709.72675 L 121.03055,707.13925 L 121.03055,664.76689 L 121.38007,663.79659 L 121.72924,663.14974 L 122.07857,662.50283 L 122.77738,662.17938 L 123.47607,661.85631 L 125.22273,661.53254 L 158.75973,661.53254 L 162.95183,662.17938 L 166.7946,662.82629 L 174.48003,665.41411 L 177.97347,667.03131 L 181.11762,669.29537 L 184.26176,671.88286 L 187.05639,674.79414 L 189.50185,677.70509 L 191.59785,680.93944 L 193.34468,684.82107 L 194.74217,688.70232 L 195.78997,693.23075 L 196.48883,698.08267 L 196.83811,703.25768 L 196.48883,708.10955 L 195.78997,712.96116 L 194.74217,717.16618 L 193.34468,721.37083 L 191.59785,724.92901 L 189.50185,728.48681 L 187.05639,731.39809 L 184.26176,734.30904 L 181.11762,736.57309 L 177.97347,738.83747 L 174.48003,740.45467 L 170.63739,742.07187 L 166.7946,743.04216 L 162.95183,743.68907 L 158.75973,744.33624 L 154.21826,744.65936 L 73.869238,744.65936 L 72.4721,744.98282 L 71.77324,745.30627 L 70.725268,745.62966 L 70.725268,746.27689 L 70.026582,746.92374 L 69.677123,747.57064 L 69.677123,766.97793 L 70.026582,768.59507 L 70.725268,771.18257 L 72.122582,773.44668 L 73.869238,774.74043 L 75.965355,776.35763 L 78.410698,777.32793 L 80.15753,777.65138 L 180.06965,777.65138 L 184.26176,777.00447 L 188.80323,776.35763 L 192.646,775.38727 L 197.18745,774.09352 L 201.03023,772.79978 L 205.2224,771.50603 L 209.06501,769.5651 L 212.90777,767.62445 L 216.05193,765.3604 L 219.54541,763.09629 L 222.34003,760.83192 L 225.48419,758.24442 L 228.27898,755.33347 L 231.07361,752.09879 L 232.4711,755.33347 L 233.86842,758.24442 L 235.96454,760.83192 L 238.06053,763.41974 L 240.15671,765.68385 L 242.60199,767.62445 L 245.04745,769.5651 L 247.84208,771.50603 L 250.63689,772.79978 L 253.43168,774.09352 L 256.57566,775.38727 L 260.06914,776.35763 L 263.56264,777.00447 L 267.05607,777.65138 L 406.09465,777.65138 L 409.23856,777.32793 L 412.03342,776.68135 L 414.82823,776.35763 L 417.97214,775.38727 L 420.767,774.09352 L 423.91108,773.12323 L 426.35644,771.50603 L 428.8019,770.21227 L 431.59651,767.9479 L 434.04198,766.00725 L 436.48732,763.7432 L 438.58344,761.15537 L 440.3301,758.24442 L 442.07693,755.33347 L 483.29935,670.91257 L 483.29935,670.58911 L 483.99797,669.94259 L 486.44343,669.94259 L 487.14213,670.58911 L 487.49146,670.91257 L 538.49561,776.03418 L 539.54357,777.00447 L 540.59172,777.65138 L 541.98903,777.65138 L 582.51277,777.65138 L 583.21146,777.32793 L 584.25961,776.35763 L 584.95811,775.38727 L 584.95811,771.50603 L 518.58294,637.2737"
       id="path3410"
       style="fill:#002664;fill-opacity:1;fill-rule:evenodd;stroke:none" /></g></svg>