<svg version="1.1" xmlns="http://www.w3.org/2000/svg" xmlns:xlink="http://www.w3.org/1999/xlink" width="482.35362" height="140.09196" viewBox="0,0,482.35362,140.09196"><g transform="translate(1.67536,-109.45512)"><g fill-rule="nonzero" stroke-linejoin="miter" stroke-miterlimit="10" stroke-dasharray="" stroke-dashoffset="0" style="mix-blend-mode: normal"><path d="M57.78253,116.30234l364.49997,-0.59622c0,0 24.59663,4.82784 34.41631,17.29037c4.86779,6.1779 11.35213,17.05243 14.55042,27.65169c3.25353,10.78236 3.1792,21.2383 3.1792,21.2383c0,0 -0.22803,10.21749 -3.40264,20.1571c-2.16572,6.78082 -6.81787,13.11359 -9.32341,17.2371c-5.07569,8.35336 -21.69026,19.24664 -21.69026,19.24664l-16.68669,4.76976h-367.10727l-13.55794,-2.9811c0,0 -13.59708,-5.6175 -23.76893,-18.20798c-8.96682,-11.09892 -14.69075,-28.41394 -14.29759,-40.81775c0.45483,-14.34964 7.66136,-37.86733 20.92749,-50.5844c13.0984,-12.55627 32.26135,-14.40352 32.26135,-14.40352z" fill="none" stroke="#108865" stroke-width="12.5" stroke-linecap="round"/><path d="M66.31587,127.16937l348.38313,-0.4984c0,0 23.50906,4.03578 32.89454,14.45366c4.65256,5.16434 10.85018,14.25477 13.90705,23.11509c3.10968,9.01338 3.03862,17.75389 3.03862,17.75389c0,0 -0.21794,8.54118 -3.25218,16.85008c-2.06996,5.66834 -6.51641,10.96214 -8.91116,14.40913c-4.85127,6.98288 -20.7312,16.08899 -20.7312,16.08899l-15.94887,3.98722h-350.87514l-12.95846,-2.49201c0,0 -12.99586,-4.69588 -22.71795,-15.22073c-8.57035,-9.27801 -14.04117,-23.75227 -13.6654,-34.12108c0.43472,-11.9954 7.3226,-31.65473 20.00215,-42.28539c12.51923,-10.49626 30.83488,-12.04044 30.83488,-12.04044z" fill="#e63a2c" stroke="none" stroke-width="0" stroke-linecap="round"/><path d="M199.49982,182.05567l-4.44128,-0.22206l5.66263,-13.99003h17.98719l1.11032,1.55445l1.33238,-1.66548l20.98505,0.11103c0,0 1.7395,0.85124 2.38719,1.49893c0.64768,0.64769 1.49893,2.38719 1.49893,2.38719v3.99715l-0.77722,1.77651l-16.21067,33.3096l-14.32313,0.3331l12.87971,-26.86975c0,0 0.15639,-0.84615 -0.11103,-1.33238c-0.26742,-0.48623 -1.11032,-0.88826 -1.11032,-0.88826l-9.99288,-0.22206l-1.55445,0.55516l-14.76726,28.97935l-13.99003,0.11103z" fill="#ffffff" stroke="none" stroke-width="0" stroke-linecap="round"/><path d="M187.17527,181.83359l-11.54733,0.3331l-6.99502,13.54591l0.44413,1.77651l10.88114,0.11103l-6.66192,14.10107l-19.09751,-0.55516l-2.7758,-3.44199v-4.10818l0.55516,-2.7758l8.99359,-18.65338l-5.2185,-0.3331l6.55089,-13.879l5.66263,-0.22206l11.65836,-23.76085l14.32313,0.22206l-11.4363,22.76156l0.55516,0.99929l10.88114,0.11103z" fill="#ffffff" stroke="none" stroke-width="0" stroke-linecap="round"/><path d="M195.16957,156.96244l6.10676,-12.99075l12.21352,0.3331l-6.21779,11.21423l-1.66548,1.11032l-10.10391,1.88754z" fill="#ffffff" stroke="none" stroke-width="0" stroke-linecap="round"/><path d="M107.68344,170.50831l-6.99502,14.32313l-33.9758,0.44413l-2.66477,0.66619l-3.99715,3.77509l-0.11103,5.8847l1.55445,1.55445l32.97651,-0.11103l0.11103,1.88754l-6.66192,12.65765l-33.3096,-0.3331c0,0 -4.50903,-1.54632 -6.22127,-3.3322c-1.72958,-1.80397 -4.1047,-7.4379 -4.1047,-7.4379l-0.44413,-9.10462l0.77722,-3.77509l2.10961,-5.44057l2.55374,-3.21993l2.99786,-2.88683l2.88683,-2.33167l4.21922,-0.66619l-2.7758,-6.43986l0.11103,-4.21922l2.99786,-9.10462l3.1089,-3.55302l6.32882,-3.21993l7.9943,-2.4427l43.52455,0.3331l-6.66192,13.65694l-36.97366,0.77722c0,0 -1.6077,1.23952 -2.4427,2.22064c-0.835,0.98112 -1.99858,2.99786 -1.99858,2.99786l-0.22206,4.21922l2.55374,1.99858z" fill="#ffffff" stroke="none" stroke-width="0" stroke-linecap="round"/><path d="M134.37957,183.61012l-0.11103,-1.55445l-11.76939,0.11103l-2.55374,1.33238l-4.77438,5.99573l0.11103,5.44057l2.33167,1.77651l5.66263,0.66619l-7.10605,14.2121l-6.66192,-0.11103l-5.10747,-2.55374l-3.44199,-4.77438l-0.88826,-7.88327l1.88754,-8.77153l3.55302,-5.99573l5.10747,-6.55089c0,0 3.8508,-3.14674 6.26221,-4.35245c2.32262,-1.16131 7.94989,-2.75359 7.94989,-2.75359l31.08896,0.22206l-13.10178,28.64626l6.88398,0.22206l-0.11103,1.99858l-4.88541,9.32669l-5.44057,2.88683l-18.20925,0.22206z" fill="#ffffff" stroke="none" stroke-width="0" stroke-linecap="round"/><path d="M238.99723,210.62642l19.46879,-40.43518l24.95999,-0.2496l3.4944,-1.7472l1.9968,-3.4944l-0.2496,-4.2432l-2.2464,-1.4976l-46.17598,-0.4992l7.2384,-13.97759l42.68158,-0.4992l6.4896,2.9952l3.2448,3.4944l2.9952,4.7424l0.4992,4.992v5.9904l-3.2448,6.9888l-2.9952,4.4928l-4.4928,3.4944l-8.4864,3.9936l-18.22079,-0.2496l-12.7296,26.70719l-14.22719,0.4992z" fill="#ffffff" stroke="none" stroke-width="0" stroke-linecap="round"/><path d="M324.65023,183.62076l-0.11103,-1.55444l-11.7694,0.11103l-2.55374,1.33238l-4.77438,5.99573l0.11103,5.44056l2.33168,1.77652l5.66263,0.66619l-7.10605,14.2121l-6.66192,-0.11104l-5.10747,-2.55373l-3.442,-4.77437l-0.88825,-7.88327l1.88754,-8.77153l3.55303,-5.99572l5.10747,-6.55089c0,0 3.85079,-3.14675 6.2622,-4.35245c2.32262,-1.1613 7.9499,-2.75359 7.9499,-2.75359l31.08896,0.22206l-13.10177,28.64626l6.88399,0.22206l-0.11104,1.99858l-4.8854,9.32669l-5.44057,2.88683l-18.20925,0.22206z" fill="#ffffff" stroke="none" stroke-width="0" stroke-linecap="round"/><path d="M351.08956,181.66937l-4.99466,-0.33298l5.82711,-13.3191l17.14834,-0.16649l1.16542,1.66489l1.4984,-1.4984l13.81857,-0.16649l0.16649,1.99787l-5.9936,11.65421h-11.65421l-2.49733,1.16542l-13.81857,27.97011l-14.15154,1.16542z" fill="#ffffff" stroke="none" stroke-width="0" stroke-linecap="round"/><path d="M399.92185,144.20938l14.15154,0.16649l-16.3159,33.96371h1.66489l12.15368,-10.82177l17.98079,0.33298l-0.16649,1.83138l-21.97652,18.14727l7.49199,9.98933l19.81216,0.16649l0.33298,1.33191l-6.16008,11.8207l-22.64247,-0.33298l-14.8175,-19.81216l-9.32337,20.47812l-14.98399,-0.66596z" fill="#ffffff" stroke="none" stroke-width="0" stroke-linecap="round"/><text transform="translate(436.66213,210.02003) scale(0.5,0.5)" font-size="40" xml:space="preserve" fill="#ffffff" fill-rule="nonzero" stroke="none" stroke-width="1" stroke-linecap="butt" stroke-linejoin="miter" stroke-miterlimit="10" stroke-dasharray="" stroke-dashoffset="0" font-family="Sans Serif" font-weight="normal" text-anchor="start" style="mix-blend-mode: normal"><tspan x="0" dy="0">®</tspan></text><text transform="translate(427.92823,194.55157) scale(0.5,0.5)" font-size="40" xml:space="preserve" fill="#ffffff" fill-rule="nonzero" stroke="none" stroke-width="0" stroke-linecap="butt" stroke-linejoin="miter" stroke-miterlimit="10" stroke-dasharray="" stroke-dashoffset="0" font-family="Sans Serif" font-weight="normal" text-anchor="start" style="mix-blend-mode: normal"><tspan x="0" dy="0"> </tspan></text></g></g></svg>