<svg version="1.1" id="Calque_1" xmlns="http://www.w3.org/2000/svg" xmlns:xlink="http://www.w3.org/1999/xlink" x="0px" y="0px"
	 viewBox="0 0 282.6 70.8" style="enable-background:new 0 0 282.6 70.8;" xml:space="preserve">
<style type="text/css">
	.st0{clip-path:url(#SVGID_2_);fill:#000023;}
	.st1{clip-path:url(#SVGID_2_);fill:#F8C2D9;}
</style>
<g>
	<defs>
		<rect id="SVGID_1_" y="0" width="282.6" height="70.8"/>
	</defs>
	<clipPath id="SVGID_2_">
		<use xlink:href="#SVGID_1_"  style="overflow:visible;"/>
	</clipPath>
	<path class="st0" d="M26.5,0.5l0.3,7h-1.2c-0.8-3.9-2.9-4.8-7.4-4.8h-5.8c-1.7,0-2.1,0.2-2.1,1.6v10.4h6.8c3.3,0,4.8-1.2,5.2-4.1
		h1.2v11.3h-1.1c-0.6-3.7-2.4-5-6.5-5h-5.6v10.9c0,2.4,0.7,2.8,3.3,2.8h4.9c4.9,0,8.5-1.8,10.6-6.5h1.2L28,32.9H0v-1.1
		c3.3,0,4.1-0.8,4.1-4V5.6c0-3.1-0.8-3.9-4.1-3.9V0.5H26.5"/>
	<path class="st0" d="M54.1,28.5c0,1.7,0.7,2.1,3.1,2.1v1.1c-3.3,0.4-6,1.1-8.4,2L48,33.5v-2c-2.3,1.4-4.3,2.1-6.7,2.1
		c-5.8,0-9.4-3.9-9.4-10.5c0-7.4,5.1-12.7,10.9-12.7c1.9,0,3.4,0.4,5.1,1.3V5c0-1.6-0.9-2.3-2.9-2.4V1.5c2.7-0.3,5.7-0.8,9-1.5V28.5
		 M43.9,12.3c-3.8,0-6,2.9-6,8.4c0,6.5,2.4,9.9,6.6,9.9c1.4,0,2.6-0.4,3.6-1.1V16.8C48,13.9,46.3,12.3,43.9,12.3"/>
	<path class="st0" d="M67.6,33.7c-5.8,0-9.9-4.3-9.9-11.5c0-7.2,4.5-11.8,10.4-11.8c6,0,9.5,3.4,9.9,9.8H63.4c0.1,6,3,9.3,7.2,9.3
		c2.4,0,4.6-1.2,6.8-3.8l1,0.7C76,31.3,72.4,33.7,67.6,33.7 M71.8,18v-0.5c0-3.4-1.5-5.3-3.9-5.3c-2.5,0-4.3,2.1-4.4,5.8H71.8z"/>
	<path class="st0" d="M78.5,31.9c2.3-0.2,3-0.8,3-2.7V15.4c0-1.6-1-2.4-3-2.4v-1.1c3.3-0.4,6.4-0.8,9.2-1.5V13
		c2.8-1.7,5.2-2.8,7.9-2.8c4.2,0,6.8,2.2,6.8,6.3v11.5c0,2.7,0.4,3.7,2.9,3.8V33H93.1v-1.1c2.3-0.1,3.2-0.8,3.2-2.7V16.9
		c0-2.6-0.9-3.6-3.4-3.6c-1.9,0-3.5,0.7-5.2,2v12.8v0.9c0,2.1,0.8,2.9,2.9,2.9V33H78.5V31.9"/>
	<path class="st0" d="M207.4,9.8c0,6.6-4.7,9.8-14.1,9.8h-4.1v8.4c0.1,3.1,0.9,3.9,4.5,3.9V33h-15.7v-1.1c3.6,0,4.4-0.9,4.4-3.9V5.9
		c0-3.1-0.8-3.9-4.4-3.9V0.9h17.5C203.1,0.9,207.4,4.2,207.4,9.8 M192.4,17.6c4.9,0,8.1-3,8.1-8c0-4.2-2.9-6.8-7.7-6.8
		c-2.6,0-3.3,0.2-3.6,2v12.4L192.4,17.6z"/>
	<path class="st0" d="M229.5,29.2c0,1,0.1,1.3,0.7,1.3c0.5,0,0.9-0.3,1.7-0.9l-0.2,1c-2.3,1.9-3.1,3-5,3c-2,0-3.1-1.1-3.3-3.3
		c-3,2.1-5.5,3.3-8.3,3.3c-3.8,0-6.3-2.3-6.3-5.7c0-5.2,4.6-6.7,14.6-9V16c0-2.6-1.3-3.7-4.1-3.7c-2.2,0-3.2,0.8-3.3,2.6
		c-0.2,1.7-0.3,3-2.8,3c-1.6,0-2.7-1-2.7-2.5c0-2.7,3.6-4.9,9.3-4.9c6.8,0,9.8,2.3,9.8,7.4V29.2 M215.1,26.7c0,2.1,1.3,3.4,3.4,3.4
		c1.6,0,3.1-0.8,4.9-2.2v-7.1C217.7,22.2,215.1,23.7,215.1,26.7"/>
	<path class="st0" d="M250.7,10.5c2.2,0,3.6,1.1,3.6,2.9c0,1.8-1.1,2.8-2.8,2.8c-1.5,0-2.3-1.5-3.7-1.5c-0.8,0-1.9,0.6-2.8,1.8V28
		c0,2.7,0.4,3.6,3.4,3.8V33h-13v-1.1c2.4-0.2,3.1-0.8,3.1-2.7V15.4c0-1.6-1-2.4-3.1-2.4v-1.1c2.9-0.3,6.1-0.8,9.6-1.5v3.7
		C246.9,11.7,248.6,10.5,250.7,10.5"/>
	<path class="st0" d="M255.5,31.8c2.4-0.2,3-0.9,3-2.7V5.2c0-1.6-0.9-2.4-3-2.4V1.7c3-0.3,6.1-0.8,9.3-1.5v20.4
		c5-3.6,7.6-5.6,7.6-6.8c0-0.9-0.8-1.4-2.7-1.6v-1.1h11.8v1.2c-2.7,0.1-4.5,1.7-7,3.5l-4.5,3.3l9.3,10.1c1.3,1.4,2.3,2.3,3.3,2.6V33
		h-12.3v-1.1c1.6,0,2.4-0.4,2.4-1.2c0-0.5-0.3-1-0.8-1.6l-7.1-7.9V28c0,2.6,0.1,3.7,2.9,3.8v1.1h-12.2V31.8"/>
	<path class="st1" d="M147.4,24.4c8.6,4.7,17.5,2.8,17.5,2.8c0.6-1.6,0.5-1.9,0.5-1.9l0.4-0.1c0,0,0.6-2.1,0.5-6.2
		c-0.1-2.7-1.4-7-1.4-7s-4.2-0.6-9.3,0.5c-4,0.9-7.3,2.9-7.9,3.3c-0.1-0.1-4-1.7-9,0c0,0,0-0.1,0,0c-0.4-0.2-3.1-2.5-7.3-3.4
		c-5.1-1.1-10.5-0.7-10.5-0.7s-1,4.5-1.1,7.2c-0.1,4,0.5,6.1,0.5,6.1l-0.1,0c0,0,0.1,0.5,0.7,2.1c0,0,9.2,1.8,17.7-2.9
		c0,0,0-0.3,0,0C141.9,25.1,144.2,25.3,147.4,24.4"/>
	<path class="st0" d="M120.6,27.5l0.4,0.1c1.8,0.4,3.6,0.6,5.3,0.6c6.3,0,11.2-2.4,12.4-3.1c1.5,0.5,2.9,0.7,4.2,0.7
		c2.1,0,3.7-0.5,4.5-0.8c0.8,0.5,5.9,3.2,12.6,3.2c1.7,0,3.4-0.2,5.3-0.6l0.4-0.1l0.2-0.4c0-0.1,1.5-3.7,1.5-8.4
		c0-2.2-0.3-4.6-1.3-7l-0.2-0.4l-0.5-0.1c-0.2,0-1.5-0.2-3.5-0.2c-3.7,0-9.7,0.5-14.2,3.8c-1.6-0.4-3.1-0.5-4.4-0.5
		c-1.4,0-2.7,0.2-3.5,0.3c-0.4,0.1-0.7,0.2-1,0.2c-4.5-3.3-10.6-3.9-14.4-3.9c-2,0-3.4,0.2-3.5,0.2l-0.5,0.1l-0.2,0.4
		c-1,2.4-1.3,4.8-1.3,7c0,4.7,1.5,8.3,1.5,8.3L120.6,27.5 M155.3,19.6c-0.4-0.6-0.7-0.7-1.2-0.9c-0.5-0.2-1.1-0.2-1.8-0.2
		c-0.9,0-1.9,0.1-3.2,0.5c-0.1-1-0.3-2.1-0.4-2.8c4-2.9,9.6-3.4,13.2-3.4c1.3,0,2.3,0.1,2.8,0.1c0.7,2,1,4.1,1,6
		c0,2.2-0.3,4.1-0.7,5.5c-0.2,0.7-0.3,1.3-0.5,1.6l-0.1,0.2c-1.5,0.3-3,0.4-4.5,0.4c-3.4,0-6.4-0.8-8.6-1.5
		c-1.1-0.4-1.9-0.8-2.5-1.1c-0.1-0.1-0.3-0.1-0.4-0.2c0.1-0.6,0.3-1.6,0.4-2.6c1.2,0.3,2.3,0.4,3.1,0.4c0.8,0,1.4-0.1,1.9-0.2
		c0.5-0.2,0.8-0.2,1.2-0.9c0,0,0.1-0.2,0.1-0.5C155.4,19.9,155.3,19.6,155.3,19.6 M139.1,17.4c0-0.3,0.1-0.6,0.1-0.9
		c0.6-0.2,2.1-0.5,4.1-0.5c1.1,0,2.4,0.1,3.7,0.4c0,0.3,0.1,0.6,0.2,1.1c0.1,0.9,0.2,1.9,0.2,2.6v0.1c0,0.6-0.2,1.6-0.3,2.4
		c-0.1,0.3-0.1,0.5-0.1,0.8l-0.1,0.1c-0.6,0.2-2.1,0.7-3.9,0.7c-1.1,0-2.3-0.2-3.6-0.6c0-0.3-0.1-0.6-0.2-1
		c-0.1-0.8-0.3-1.8-0.3-2.5l0-0.1C138.8,19.2,139,18.2,139.1,17.4 M121.6,12.8c0.6-0.1,1.6-0.1,2.8-0.1c3.6,0,9.2,0.6,13.2,3.4
		c-0.1,0.6-0.3,1.8-0.4,2.8c-1.3-0.3-2.4-0.5-3.2-0.5c-0.8,0-1.4,0.1-1.8,0.2c-0.5,0.2-0.8,0.3-1.2,0.9c0,0-0.1,0.2-0.1,0.5
		c0,0.2,0.1,0.5,0.1,0.5c0.4,0.6,0.7,0.7,1.2,0.9c0.5,0.1,1.1,0.2,1.9,0.2c0.8,0,1.9-0.1,3.1-0.4c0.1,0.9,0.3,1.9,0.4,2.5
		c-0.1,0.1-0.2,0.1-0.4,0.2c-1.7,0.9-5.9,2.6-11,2.6c-1.4,0-2.9-0.1-4.5-0.4l-0.1-0.2c-0.4-1.2-1.2-3.9-1.2-7.2
		C120.6,16.9,120.8,14.8,121.6,12.8"/>
	<path class="st0" d="M77.6,70.7V57h5.1c1.5,0,2.8,0.4,3.7,1.1c0.9,0.7,1.4,1.6,1.4,2.8c0,0.8-0.2,1.5-0.7,2.1
		c-0.5,0.6-1.1,1.1-1.9,1.3c-0.8,0.3-2,0.4-3.5,0.4h-1.7v5.9H77.6z M82.3,58.7h-2.4V63h2.5c0.9,0,1.7-0.2,2.2-0.6
		c0.5-0.4,0.8-0.9,0.8-1.6C85.4,59.4,84.3,58.7,82.3,58.7"/>
	<path class="st0" d="M111.9,56.9h1.6l7.2,13.7h-2.4l-2.1-4h-6.9l-2,4H105L111.9,56.9z M115.3,64.9l-2.6-4.9l-2.4,4.9H115.3z"/>
	<path class="st0" d="M141.5,70.7V57h4c1.6,0,2.9,0.3,3.9,1c1,0.7,1.4,1.6,1.4,2.8c0,0.8-0.2,1.5-0.7,2.1c-0.5,0.6-1.1,1-2,1.3
		c0.5,0.3,1,0.7,1.5,1.2c0.5,0.5,1.2,1.4,2.1,2.6c0.6,0.8,1,1.4,1.3,1.7l0.9,1h-2.7l-0.7-0.9c0,0-0.1-0.1-0.1-0.2l-0.4-0.5l-0.7-1
		l-0.8-1.1c-0.5-0.6-0.9-1-1.3-1.3c-0.4-0.3-0.8-0.6-1.1-0.7c-0.3-0.1-0.9-0.2-1.6-0.2h-0.6v5.9H141.5z M144.4,58.7h-0.7V63h0.9
		c1.2,0,2-0.1,2.4-0.3c0.4-0.2,0.8-0.4,1-0.8c0.2-0.3,0.4-0.7,0.4-1.2c0-0.4-0.1-0.8-0.4-1.2c-0.3-0.3-0.6-0.6-1.1-0.7
		C146.4,58.8,145.6,58.7,144.4,58.7"/>
	<rect x="174.6" y="57" class="st0" width="2.3" height="13.6"/>
	<path class="st0" d="M203.3,64.9l-1.8-0.9c-1.1-0.6-1.9-1.1-2.3-1.7c-0.5-0.6-0.7-1.2-0.7-1.9c0-1.1,0.4-1.9,1.3-2.6
		c0.9-0.7,2-1,3.4-1c1.3,0,2.6,0.3,3.7,1V60c-1.2-0.9-2.4-1.4-3.7-1.4c-0.8,0-1.4,0.1-1.9,0.4c-0.5,0.3-0.7,0.7-0.7,1.1
		c0,0.4,0.2,0.8,0.5,1.1c0.4,0.4,0.9,0.7,1.7,1.1l1.8,0.9c2,1,2.9,2.3,2.9,3.8c0,1.1-0.4,2-1.3,2.7c-0.9,0.7-2,1-3.4,1
		c-1.6,0-3-0.4-4.3-1.2v-2.5c1.2,1.3,2.7,2,4.3,2c0.7,0,1.3-0.2,1.8-0.5c0.5-0.3,0.7-0.8,0.7-1.3C205.4,66.5,204.7,65.7,203.3,64.9"
		/>
</g>
</svg>
