<svg xmlns="http://www.w3.org/2000/svg" version="1.1" x="0px" y="0px" width="300px" height="331.399px" viewBox="0 0 300 331.399" enable-background="new 0 0 300 331.399" xml:space="preserve"><path fill-rule="evenodd" clip-rule="evenodd" fill="#083F88" d="M267.168 0H300v264.681h-72.076C302.582 178.14 308.419 68.341 267.168 0L267.168 0zM72.167 215.385c3.453 17.231 11.108 33.405 17.998 49.58L51.58 264.87v-36.947L72.167 215.385 72.167 215.385zM67.384 181.299l-15.601 9.008V0h83.86C81.356 57.729 66.044 119.172 67.384 181.299zM246.967 89.408c-3.737-30.443-22.02-52.07-44.517-55.521 -36.368-5.844-75.052 36.763-86.44 92.859 -11.394 56.094 7.184 102.893 42.415 106.63 35.028 3.638 75.048-38.389 85.862-92.852 0.861-4.982 2.68-14.272 3.441-21.158l-24.895 14.263c-5.26 33.5-26.415 68.252-57.614 66.335 -21.931-1.051-31.497-33.596-27.475-71.602 3.732-47.672 69.202-96.576 85.089-26.51l-21.906 11.965c-2.68-9.292-8.814-15.607-15.042-15.607 -11.861 0-25.359 17.716-26.995 35.991 -1.626 18.289 4.213 34.846 16.18 34.846 11.87 0 25.856-21.338 26.323-41.452l65.196-34.167c6.03 62.693-38.202 175.365-114.301 167.999 -44.503-4.213-69.398-60.603-54.853-136.789C112.09 48.435 163.684 0.767 208.578 6.031c13.507 1.624 27.764 9.852 37.616 22.486 9.77 12.746 17.42 30.448 19.256 50.649L246.967 89.408z"/><polygon fill-rule="evenodd" clip-rule="evenodd" fill="#083F88" points="183.685,272.818 244.188,272.818 244.188,328.526   220.829,328.526 220.829,290.622 208.682,290.622 208.682,328.811 183.685,328.526 "/><polygon fill-rule="evenodd" clip-rule="evenodd" fill="#EF3E56" points="0,215.858 51.695,190.197 51.583,228.02 0,262.188 "/><path fill-rule="evenodd" clip-rule="evenodd" fill="#EF3E56" d="M200.828 128.266L71.782 215.764c-2.679-10.819-4.775-22.211-4.497-34.171l66.624-33.791 66.624-33.601L200.828 128.266zM297.221 296.459c-4.497-3.441-8.805-5.26-12.725-5.26 -2.021 0-4.314 0.564-6.033 1.624 -1.623 0.767-3.453 2.106-4.215 3.636 -1.157 1.621-1.726 3.736-1.726 5.555 0 2.68 1.146 5.555 2.862 7.468 1.637 1.804 4.513 3.153 7.67 3.153h0.285 0.293c2.48 0 5.065-0.291 7.077-1.051 2.014-1.059 4.592-2.398 6.795-3.73l-0.76 20.866c-5.174 1.628-10.055 2.679-14.27 2.679 -1.435 0-3.439-0.193-5.636-0.471 -4.895-0.58-9.486-2.395-13.406-4.793 -3.932-2.968-7.375-6.316-9.374-10.336 -2.021-4.215-3.173-8.997-3.173-13.503 0-5.837 1.437-11.392 4.313-15.312 2.496-4.215 6.793-7.953 11.392-10.052 4.795-2.391 10.249-3.73 15.885-3.73 4.795 0 9.964 0.765 14.466 2.679L297.221 296.459z"/><polygon fill-rule="evenodd" clip-rule="evenodd" fill="#083F88" points="133.911,328.622 133.911,272.917 174.027,272.917   174.027,287.749 154.873,287.749 154.873,293.301 172.016,293.301 172.016,307.369 154.873,307.369 154.873,313.502   174.494,313.502 174.494,328.622 "/></svg>