<?xml version="1.0" encoding="UTF-8" standalone="no"?>
<!-- Created with Inkscape (http://www.inkscape.org/) -->

<svg
   xmlns:dc="http://purl.org/dc/elements/1.1/"
   xmlns:cc="http://creativecommons.org/ns#"
   xmlns:rdf="http://www.w3.org/1999/02/22-rdf-syntax-ns#"
   xmlns:svg="http://www.w3.org/2000/svg"
   xmlns="http://www.w3.org/2000/svg"
   xmlns:sodipodi="http://sodipodi.sourceforge.net/DTD/sodipodi-0.dtd"
   xmlns:inkscape="http://www.inkscape.org/namespaces/inkscape"
   width="89.573677mm"
   height="22.620932mm"
   viewBox="0 0 89.573677 22.620932"
   version="1.1"
   id="svg8"
   inkscape:version="0.92+devel unknown"
   sodipodi:docname="eletropauloWiki.svg">
  <defs
     id="defs2" />
  <sodipodi:namedview
     id="base"
     pagecolor="#ffffff"
     bordercolor="#666666"
     borderopacity="1.0"
     inkscape:pageopacity="0.0"
     inkscape:pageshadow="2"
     inkscape:zoom="1.979899"
     inkscape:cx="126.21711"
     inkscape:cy="161.95167"
     inkscape:document-units="mm"
     inkscape:current-layer="layer1"
     inkscape:document-rotation="0"
     showgrid="false"
     inkscape:window-width="1280"
     inkscape:window-height="1000"
     inkscape:window-x="1366"
     inkscape:window-y="0"
     inkscape:window-maximized="1"
     showguides="false"
     fit-margin-top="0"
     fit-margin-left="0"
     fit-margin-right="0"
     fit-margin-bottom="0" />
  <metadata
     id="metadata5">
    <rdf:RDF>
      <cc:Work
         rdf:about="">
        <dc:format>image/svg+xml</dc:format>
        <dc:type
           rdf:resource="http://purl.org/dc/dcmitype/StillImage" />
        <dc:title></dc:title>
      </cc:Work>
    </rdf:RDF>
  </metadata>
  <g
     inkscape:label="Layer 1"
     inkscape:groupmode="layer"
     id="layer1"
     transform="translate(-99.390831,-58.631472)">
    <path
       style="fill:#000000;stroke-width:0.26458335"
       d=""
       id="path4328"
       inkscape:connector-curvature="0" />
    <path
       style="fill:none;stroke:#b40000;stroke-width:1.15334344;stroke-linecap:butt;stroke-linejoin:miter;stroke-miterlimit:4;stroke-dasharray:none;stroke-opacity:1"
       d="m 124.00096,79.409677 h 64.83768"
       id="path4556"
       inkscape:connector-curvature="0" />
    <g
       id="g4569"
       transform="matrix(1.447242,0,0,1.447242,-4.95692,-85.281335)">
      <path
         sodipodi:nodetypes="cccccccccccccc"
         inkscape:connector-curvature="0"
         id="path4348"
         d="m 89.292593,101.66692 h 4.134976 v 1.39432 h -2.162538 v 2.62022 h 1.843721 v 1.35493 h -1.867751 v 2.92975 h 2.028548 l 0.1364,0.003 v 1.45013 h -4.120116 z"
         style="fill:#000080;stroke:none;stroke-width:0.26458332px;stroke-linecap:butt;stroke-linejoin:miter;stroke-opacity:1" />
      <path
         sodipodi:nodetypes="ccsccsscsccc"
         inkscape:connector-curvature="0"
         id="path4350"
         d="m 94.419113,106.34256 v -4.29658 c 0,0 -0.0859,-0.36249 0.627847,-0.36249 0.713787,0 0.688967,0.18461 0.688967,0.18461 v 8.26611 c 0,0 0.0136,0.3529 0.352897,0.3529 0.339297,0 0.430627,0.0774 0.430627,0.24862 0,0.17122 0.0614,0.42107 0,0.48252 -0.0614,0.0615 -0.004,0.23184 -0.231847,0.23184 h -0.871537 c -0.623137,-0.19508 -0.847844,-0.36915 -0.963434,-0.91396 z"
         style="fill:#000080;stroke:none;stroke-width:0.26458332px;stroke-linecap:butt;stroke-linejoin:miter;stroke-opacity:1" />
      <path
         sodipodi:nodetypes="ccscscccscscccscscc"
         inkscape:connector-curvature="0"
         id="path4354"
         d="m 100.08722,104.78117 h -2.156358 c 0,0 -0.541887,0.0948 -0.541887,0.67759 v 5.20049 c 0,0 0.0411,0.77219 0.586067,0.77219 h 2.134538 l 0.004,-0.99709 h -1.168124 c 0,0 -0.321527,-0.007 -0.321527,-0.32154 v -1.30497 c 0,0 0.0114,-0.23642 0.23642,-0.23642 h 0.667714 v -0.84482 h -0.728444 c 0,0 -0.19171,0.0148 -0.19171,-0.33205 v -1.25475 c 0,0 -0.0499,-0.31681 0.31681,-0.31681 h 1.179361 z"
         style="fill:#000080;stroke:none;stroke-width:0.26458332px;stroke-linecap:butt;stroke-linejoin:miter;stroke-opacity:1" />
      <path
         inkscape:connector-curvature="0"
         id="path4358"
         d="m 100.85886,104.80162 c 0,0 -0.26201,0.014 -0.26201,0.262 v 0.51677 c 0,0 0.0395,0.24979 0.25787,0.25786 l 0.79815,0.0295 c 0,0 0.1943,-0.005 0.1943,0.28732 v 5.05189 c 0,0 0.046,0.1908 0.33941,0.1908 l 0.18318,-0.002 v 0.005 l 0.0352,-0.003 0.0351,0.003 v -0.005 l 0.25688,4e-4 c 0.29337,0 0.35633,-0.2186 0.35633,-0.2186 v -5.05189 c 0,-0.29244 0.1943,-0.28732 0.1943,-0.28732 h 0.72325 c 0.21843,0 0.25735,-0.25786 0.25735,-0.25786 v -0.51677 c 0,-0.24796 -0.262,-0.262 -0.262,-0.262 h -1.52084 -0.0656 z"
         style="fill:#000080;stroke:none;stroke-width:0.26458332px;stroke-linecap:butt;stroke-linejoin:miter;stroke-opacity:1"
         sodipodi:nodetypes="cscscscccccccccscscscccc" />
      <path
         inkscape:connector-curvature="0"
         id="path4376"
         d="m 106.49159,104.80834 c -0.16148,-0.008 -0.26355,5.2e-4 -0.26355,5.2e-4 l -1.41594,0.002 v 6.62543 l 1.2561,0.0196 v -2.68821 l 0.15399,0.008 1.07555,2.63603 1.44381,-0.0137 -1.45035,-2.75705 c 0,0 0.50813,-0.14204 0.73466,-0.36856 0.22652,-0.22653 0.33383,-0.57826 0.33383,-0.57826 0,0 0.26342,-0.63043 -0.003,-1.62316 -0.36601,-1.05407 -1.38109,-1.23648 -1.86551,-1.26194 z m -0.32779,1.09966 c 0.17831,0.005 0.75234,0.0427 0.85127,0.41188 0.13192,0.4923 0.0718,1.11569 0.0718,1.11569 0,0 -0.14391,0.42189 -0.29301,0.50798 -0.14911,0.0861 -0.72776,0.2625 -0.72776,0.2625 v -2.29598 c 0,0 0.0382,-0.004 0.0977,-0.002 z"
         style="fill:#000080;stroke:none;stroke-width:0.26458332px;stroke-linecap:butt;stroke-linejoin:miter;stroke-opacity:1"
         sodipodi:nodetypes="ccccccccccccccccccccccc" />
      <path
         sodipodi:nodetypes="ccccccccccccccccccccccccccccccccccc"
         inkscape:connector-curvature="0"
         id="path4381"
         d="m 111.16727,104.81713 c 0,0 -1.32243,0.0193 -1.82418,1.36012 -0.17711,0.58046 -0.19175,0.88134 -0.19172,1.44539 l -0.002,0.29145 h -0.003 l 10e-4,0.1726 -0.002,0.22428 h 0.003 l 0.002,0.29197 c -3e-5,0.56405 0.0151,0.86493 0.19224,1.44539 0.53165,1.37613 1.82418,1.36013 1.82418,1.36013 0,0 1.53034,-0.0801 1.82417,-1.36013 0.17713,-0.58046 0.19175,-0.88134 0.19172,-1.44539 l 0.002,-0.29197 h 0.003 l -0.001,-0.16382 0.002,-0.23306 h -0.004 l -0.002,-0.29145 c 3e-5,-0.56405 -0.0146,-0.86493 -0.19171,-1.44539 -0.50176,-1.29741 -1.82418,-1.36012 -1.82418,-1.36012 z m 0.6907,1.34932 c 0.16665,0.31134 0.15451,0.80305 0.15451,0.80305 v 1.34152 h 5.3e-4 v 0.94516 c 0,0 0.0121,0.4912 -0.15451,0.80254 -0.40707,0.61168 -0.88807,0.62839 -1.35343,0.0242 -0.16665,-0.31134 -0.15451,-0.80254 -0.15451,-0.80254 v -1.34204 h -5.3e-4 v -0.94464 c 0,0 -0.0121,-0.49171 0.15452,-0.80305 0.42219,-0.63285 0.97931,-0.62115 1.35342,-0.0242 z"
         style="fill:#000080;stroke:none;stroke-width:0.26458332px;stroke-linecap:butt;stroke-linejoin:miter;stroke-opacity:1" />
      <path
         inkscape:connector-curvature="0"
         id="path4423"
         d="m 115.63056,104.78974 -1.52135,0.0181 v 10.09135 l 0.004,0.12557 h 1.15394 v -3.55892 c 0.62426,-0.0464 0.65583,-0.0602 1.08882,-0.13385 0.27475,-0.0736 0.26262,-0.049 0.90279,-0.41858 0.69147,-0.48157 0.95756,-1.69601 0.95756,-1.69601 l -0.0294,-1.96371 c -0.20196,-1.49479 -1.03561,-2.26152 -2.55644,-2.46393 z m 0.0754,0.94981 c 0.0659,0.005 0.12683,0.0183 0.17208,0.0444 0.181,0.1045 0.90227,0.347 0.90227,1.5627 v 1.74201 c 0,0 -0.001,0.7743 -0.28318,1.05627 -0.42554,0.53488 -0.65651,0.43884 -1.23145,0.46457 v -4.82555 c 0,0 0.24259,-0.0591 0.44028,-0.0444 z"
         style="fill:#000080;stroke:none;stroke-width:0.26458332px;stroke-linecap:butt;stroke-linejoin:miter;stroke-opacity:1"
         sodipodi:nodetypes="ccccccccccccccsccccc" />
      <path
         sodipodi:nodetypes="cccccccscsccccccc"
         inkscape:connector-curvature="0"
         id="path4427"
         d="m 120.33415,104.81248 c -0.5853,-0.0413 -0.72192,0.72501 -0.72192,0.72501 l -1.24178,5.67873 c 0.0184,0.23651 0.14649,0.25711 0.4377,0.25011 0.15275,0 0.2744,-0.25269 0.2744,-0.25269 l 0.23771,-1.00098 1.58312,0.001 c 0,0 0.1312,0.39158 0.19972,0.8349 0.0559,0.36189 0.39584,0.39584 0.39584,0.39584 h 0.75396 c 0.30527,0 0.23564,-0.40824 0.23564,-0.40824 l -1.54719,-5.77381 c 0,0 -0.17603,-0.4703 -0.6072,-0.4501 z m -0.21032,1.92701 c 0.10227,-0.085 0.64854,2.42931 0.64854,2.42931 l -1.2883,-0.0104 c 0,0 0.53749,-2.33396 0.63976,-2.41897 z"
         style="fill:#000080;stroke:none;stroke-width:0.26458332px;stroke-linecap:butt;stroke-linejoin:miter;stroke-opacity:1" />
      <path
         sodipodi:nodetypes="csccccscccsscc"
         inkscape:connector-curvature="0"
         id="path4433"
         d="m 123.21528,104.78932 c 0,0 -0.27864,0.0529 -0.27864,0.42188 v 3.8851 c 0,0 0.12452,2.09792 1.94137,2.21351 0.97112,-0.0707 1.50494,-1.06953 1.50856,-1.79318 v -4.57055 c 0,0 -0.0488,-0.14734 -0.2552,-0.14734 -0.20639,0 -0.4037,-0.0226 -0.46592,0.085 -0.0622,0.10777 0,4.0066 0,4.0066 -0.035,0.95506 -0.16582,1.39611 -0.76646,1.36961 -0.56304,-0.0149 -0.64671,-0.75267 -0.64671,-1.71439 v -3.35983 c 0,-0.34817 -0.2465,-0.39921 -0.2465,-0.39921 z"
         style="fill:#000080;stroke:none;stroke-width:0.26458332px;stroke-linecap:butt;stroke-linejoin:miter;stroke-opacity:1" />
      <path
         sodipodi:nodetypes="ccsccsscsccc"
         inkscape:connector-curvature="0"
         id="path4350-5"
         d="m 127.56319,106.28904 v -4.29658 c 0,0 -0.0859,-0.36249 0.62785,-0.36249 0.71379,0 0.68897,0.18461 0.68897,0.18461 v 8.26611 c 0,0 0.0136,0.3529 0.3529,0.3529 0.3393,0 0.43063,0.0774 0.43063,0.24862 0,0.17122 0.0614,0.42107 0,0.48252 -0.0614,0.0615 -0.004,0.23184 -0.23185,0.23184 h -0.87154 c -0.62314,-0.19508 -0.84785,-0.36915 -0.96344,-0.91396 z"
         style="fill:#000080;stroke:none;stroke-width:0.26458332px;stroke-linecap:butt;stroke-linejoin:miter;stroke-opacity:1" />
      <path
         sodipodi:nodetypes="ccccccccccccccccccccccccccccccccccc"
         inkscape:connector-curvature="0"
         id="path4381-6"
         d="m 131.97237,104.80703 c 0,0 -1.32243,0.0193 -1.82418,1.36013 -0.17712,0.58046 -0.19175,0.88134 -0.19172,1.44539 l -0.002,0.29145 h -0.003 l 0.001,0.1726 -0.002,0.22428 h 0.003 l 0.002,0.29197 c -3e-5,0.56405 0.0151,0.86493 0.19224,1.44539 0.53165,1.37612 1.82418,1.36012 1.82418,1.36012 0,0 1.53034,-0.0801 1.82417,-1.36012 0.17712,-0.58046 0.19175,-0.88134 0.19172,-1.44539 l 0.002,-0.29197 h 0.003 l -0.001,-0.16382 0.002,-0.23306 h -0.004 l -0.002,-0.29145 c 3e-5,-0.56405 -0.0146,-0.86493 -0.19172,-1.44539 -0.50175,-1.29741 -1.82417,-1.36013 -1.82417,-1.36013 z m 0.50591,1.34933 c 0.16664,0.31133 0.15451,0.80305 0.15451,0.80305 v 1.34152 h 5.3e-4 v 0.94516 c 0,0 0.0121,0.49119 -0.15451,0.80253 -0.40707,0.61169 -0.54647,0.60425 -1.01183,0 -0.16665,-0.31134 -0.15451,-0.80253 -0.15451,-0.80253 v -1.34204 h -5.3e-4 v -0.94464 c 0,0 -0.0121,-0.49172 0.15451,-0.80305 0.4222,-0.63285 0.63772,-0.597 1.01183,0 z"
         style="fill:#000080;stroke:none;stroke-width:0.26458332px;stroke-linecap:butt;stroke-linejoin:miter;stroke-opacity:1" />
    </g>
    <path
       style="fill:#d40000;stroke:none;stroke-width:0.99999994px;stroke-linecap:butt;stroke-linejoin:miter;stroke-opacity:1"
       d="m 377.82617,221.60156 c 0,0 -2.17578,-0.22455 -2.17578,3.76953 0,3.9941 0.1543,9.45703 0.1543,9.45703 v 66.5879 c 0,0 -0.17996,5.35156 3.09179,5.35156 3.27179,0 4.76563,0.13476 4.76563,0.13476 h 3.51758 c 0,0 2.88998,0.28695 4.35742,-3.90234 1.46744,-4.18927 14.32617,-44.57227 14.32617,-44.57227 l -10.38867,0.084 11.5293,-34.17188 c 0.14475,-1.73271 -0.47591,-2.15861 -2.07813,-2.73828 z m 22.41406,5.78516 -10.97265,35.93555 6.41015,-0.0137 c 0,0 3.77769,-0.15641 2.57618,2.77149 -0.0631,0.8732 -10.42383,34.13672 -10.42383,34.13672 -0.68485,1.7511 -2.18636,1.92743 -4.76563,1.69336 l -4.04297,-0.0469 10.15235,-31.60547 -10.57617,-0.11914 13.59375,-42.60742 z"
       transform="scale(0.26458333)"
       id="path4505"
       inkscape:connector-curvature="0" />
    <path
       style="fill:#000080;fill-opacity:1;stroke:none;stroke-width:0.99999994px;stroke-linecap:butt;stroke-linejoin:miter;stroke-opacity:1"
       d="m 454.86719,221.67969 -41.9668,0.0801 c 0,0 -9.59024,28.866 -10.26953,30.45507 -0.67914,1.58906 -0.15039,2.22852 -0.15039,2.22852 l 9.39844,0.002 -16.85352,52.36524 4.25391,0.15625 c 0,0 52.76942,0.1289 54.6875,0.1289 1.91803,0 2.85937,-2.85937 2.85937,-2.85937 0,0 0.008,-77.06246 0,-79.73828 -0.006,-2.67584 -1.95898,-2.81836 -1.95898,-2.81836 z m -36.97461,5.97265 h 34.04883 c 0.82504,0 1.25131,0.74821 0.95507,1.67774 l -6.23632,19.5664 c -0.29624,0.92953 -1.19839,1.67774 -2.02344,1.67774 h -34.04883 c -0.82505,0 -1.25131,-0.74821 -0.95508,-1.67774 l 6.23633,-19.5664 c 0.29624,-0.92953 1.19839,-1.67774 2.02344,-1.67774 z m 0.86719,25.88672 h 34.04687 c 0.82505,0 1.25131,0.74821 0.95508,1.67774 l -6.23633,19.5664 c -0.29624,0.92953 -1.19839,1.67774 -2.02344,1.67774 h -34.04883 c -0.82503,0 -1.24936,-0.74821 -0.95312,-1.67774 l 6.23438,-19.5664 c 0.29622,-0.92953 1.20034,-1.67774 2.02539,-1.67774 z m -7.37891,26.21485 h 40.61328 c 0.82505,0 1.25131,0.7482 0.95508,1.67773 l -6.16602,19.3418 c -0.29623,0.92953 -1.19839,1.67773 -2.02343,1.67773 h -40.61329 c -0.82504,0 -1.24936,-0.7482 -0.95312,-1.67773 l 6.16406,-19.3418 c 0.29624,-0.92953 1.19839,-1.67773 2.02344,-1.67773 z"
       transform="scale(0.26458333)"
       id="path4518"
       inkscape:connector-curvature="0" />
  </g>
</svg>
