<?xml version="1.0" encoding="utf-8"?>
<!-- Generator: Adobe Illustrator 24.1.0, SVG Export Plug-In . SVG Version: 6.00 Build 0)  -->
<svg version="1.1" id="Layer_1" xmlns="http://www.w3.org/2000/svg" xmlns:xlink="http://www.w3.org/1999/xlink" x="0px" y="0px"
	 viewBox="0 0 974.84 429.42" style="enable-background:new 0 0 974.84 429.42;" xml:space="preserve">
<style type="text/css">
	.st0{fill:none;}
	.st1{fill:#29D305;}
</style>
<rect class="st0" width="974.84" height="429.42"/>
<g>
	<rect x="189.11" y="197.81" width="141.06" height="33.82"/>
	<path d="M214.83,297.52c-45.73,0-82.8-37.07-82.8-82.8c0-45.73,37.07-82.8,82.8-82.8c26.32,0,49.75,12.29,64.91,31.43l25.4-22.34
		c-21.38-26.16-53.89-42.87-90.31-42.87c-64.38,0-116.57,52.19-116.57,116.57s52.19,116.57,116.57,116.57
		c36.42,0,68.94-16.71,90.31-42.87l-25.4-22.34C264.58,285.22,241.15,297.52,214.83,297.52z"/>
	<rect x="369.47" y="101.47" width="33.82" height="226.48"/>
	<rect x="633.68" y="162.65" width="33.82" height="165.31"/>
	<polygon points="567.02,162.65 518.17,277.11 469.31,162.65 431.71,162.65 505.01,327.95 531.32,327.95 604.63,162.65 	"/>
	<circle class="st1" cx="650.59" cy="117.65" r="19.5"/>
	<circle class="st1" cx="781.87" cy="296.08" r="18.5"/>
	<polygon points="795.03,162.65 768.72,162.65 693.42,327.95 730.02,327.95 781.88,211.24 833.73,327.95 870.34,327.95 	"/>
</g>
</svg>
