<svg xmlns="http://www.w3.org/2000/svg" viewBox="0 0 150 210">
  <defs>
    <style>
      .cls-1 {
        fill: #0b1e60;
      }

      .cls-2, .cls-4 {
        fill: #fff;
      }

      .cls-3 {
        fill: #232856;
      }

      .cls-4, .cls-7 {
        fill-rule: evenodd;
      }

      .cls-5, .cls-7 {
        fill: #e31d1a;
      }

      .cls-6 {
        fill: #ffdb00;
      }
    </style>
  </defs>
  <g id="Layer_2" data-name="Layer 2">
    <g id="Layer_1-2" data-name="Layer 1">
      <g>
        <path class="cls-1" d="M75,.39A97.91,97.91,0,0,0,59.36,1.76a75,75,0,0,0-18,6.08c-8.53,3.8-16,9.87-22.82,16.15l4,4.37L7.46,40.14l4.91,3.59L.74,52.56l5.62,2.28A97.18,97.18,0,0,0,2.68,71a76.16,76.16,0,0,0,13.63,52.24c3.36,4.57,8.6,8,6.6,14.19-1.16,2.28-2.52,5.29-3.56,7.64,2.52-.27,4.53-1.31,6,.91a134.11,134.11,0,0,1,7,14.85c7.24,16.21,12.86,35.88,33,39,5.43.53,7.56,5.1,9.7,9.55,2.13-4.45,4.26-9,9.69-9.55,20.1-3.08,25.72-22.75,33-39a132.32,132.32,0,0,1,7-14.85c1.49-2.22,3.5-1.18,6-.91-1-2.35-2.38-5.36-3.55-7.64-2-6.22,3.23-9.62,6.59-14.19A76.22,76.22,0,0,0,147.33,71a97.18,97.18,0,0,0-3.68-16.15l5.62-2.28-11.63-8.83,4.91-3.59L127.49,28.36l4-4.37c-6.79-6.28-14.28-12.35-22.82-16.15a75.12,75.12,0,0,0-18-6.08A98,98,0,0,0,75,.39"/>
        <path class="cls-2" d="M145.92,87.66h0c-1.56,14.5-8.52,30.82-18.8,41.18a15.44,15.44,0,0,0-1.09,2c-2.29,1.76-3.4,1.11-3.4,1.11a6.46,6.46,0,0,1-1.23-2.56c-1.5,2.83.59,2.76-.91,4.85-10.47,1.18-2.93,4.53-11.77,11.67a12.1,12.1,0,0,0,5.92-1.3c-.15,6.89-3.29,15.23-6.89,21.16-2.5,4.1-5.23,7.05-7.35,7.55a3,3,0,0,0-3.06,1c-.33.58-1,2.88.72,4.06.71.33,2,.85,2.6.13a5.19,5.19,0,0,0,1.23-1.58c1.84-1.56,4-3.17,5.86-4.84l.71-.66c-.23.7-.47,1.4-.71,2.08a46.09,46.09,0,0,1-10.61,17.2c-2.27,1.76-6.3,4.92-9.75,5.11a4.55,4.55,0,0,0-4-3.54A19.52,19.52,0,0,0,75,190a19.52,19.52,0,0,0-8.45,2.36,4.55,4.55,0,0,0-4,3.54c-3.45-.19-7.48-3.35-9.75-5.11a47.26,47.26,0,0,1-11.32-19.28c2,1.9,4.49,3.74,6.57,5.5a5.19,5.19,0,0,0,1.23,1.58c.59.72,1.89.2,2.61-.13,1.69-1.18,1-3.48.71-4.06a3,3,0,0,0-3.06-1c-4.74-1.14-12.46-14.38-14-25.55a29.24,29.24,0,0,1-.26-3.16l.26.1a11.81,11.81,0,0,0,5.66,1.2c-5.32-4.29-4.71-7.21-5.66-9.11-.63-1.27-1.94-2.09-6.11-2.56-1.5-2.09.58-2-.91-4.85A6.32,6.32,0,0,1,27.3,132s-1.11.65-3.38-1.11a16.91,16.91,0,0,0-1.1-2C12.54,118.48,5.58,102.16,4,87.66a73.87,73.87,0,0,1,4.3-34l8.32-6.82L3.89,51.94l11.19-8.33L26.91,32.79,10,40,23.53,29.65l3.38,3.14a60,60,0,0,0-10.27,14c-4.88,9.57-8.32,21.44-8.32,32.45A69.32,69.32,0,0,0,18,114a68.45,68.45,0,0,0,17.56,19.26A67.59,67.59,0,0,0,75,146.41a67,67,0,0,0,57-32.38,69.43,69.43,0,0,0,9.69-34.76c0-11-3.45-22.88-8.32-32.45a60.37,60.37,0,0,0-10.28-14l3.39-3.14L139.94,40,123,32.79l11.83,10.82,11.19,8.33-12.74-5.12,8.32,6.82a74,74,0,0,1,4.29,34M128,143h0c-3.84-.2-4.36,1.58-5.91,4.53-1,2-2.22,4.33-3.12,6.36-1.12,2.55-2.42,5.44-3.52,8.06-.72.92-1.5,2-2.14,2.75a40.18,40.18,0,0,1-5.53,6.27c-1,.93-2,1.82-3,2.72-.79.66-1.83,1.64-2.87,2.42a5.33,5.33,0,0,0-1.11-2.61c1.52.49,4.12-2.09,7-6.07a111.43,111.43,0,0,0,10.14-18.19l3.84-9.64a42.43,42.43,0,0,1,3.64-6.89C124.46,136.19,126,138.81,128,143Zm-20.22,36.28h0a57.13,57.13,0,0,1-8.39,11.85,26.46,26.46,0,0,1-12.23,6.49,5.75,5.75,0,0,0,.26-1.05c9.1-.85,16.58-12,19.83-19.4.19-.42.36-.86.53-1.31.64-1.77,1.14-3.78,1.81-5.45a45.52,45.52,0,0,0,5.14-6.23A150.17,150.17,0,0,1,107.75,179.28Zm-28.68,14h0c-.33-.13-.72-.26-1.1-.39a24.49,24.49,0,0,0-3-.26,24.66,24.66,0,0,0-3,.26c-.38.13-.77.26-1.1.39a4.56,4.56,0,0,0-1.69-.85,17.43,17.43,0,0,1,11.58,0A4.64,4.64,0,0,0,79.07,193.29Zm-7.55.59h0a10.63,10.63,0,0,1,3.45-.52,10.49,10.49,0,0,1,3.44.52,5.4,5.4,0,0,0-.65,1.12,8.57,8.57,0,0,0-2.79-.52,8.72,8.72,0,0,0-2.8.52A5,5,0,0,0,71.52,193.88ZM75,205.42h0a23,23,0,0,0-5.07-5.58,4.18,4.18,0,0,0,2.53-3.6c0-.19-.12-.39-.12-.65a7.64,7.64,0,0,1,2.66-.53,7.55,7.55,0,0,1,2.66.53c0,.26-.12.46-.12.65a4.18,4.18,0,0,0,2.53,3.6A23.2,23.2,0,0,0,75,205.42ZM50.59,191.13h0c-6.72-7.08-11.08-16.59-15-26.16l-.33-.79.33.46a45.84,45.84,0,0,0,4.81,5.77c.85,2.1,1.43,4.73,2.34,6.76,3.26,7.41,10.73,18.55,19.84,19.4a6.71,6.71,0,0,0,.26,1.05A26.42,26.42,0,0,1,50.59,191.13ZM31,153.89h0c-.91-2-2.15-4.33-3.12-6.36-1.56-2.95-2.08-4.73-5.92-4.53,2-4.19,3.51-6.81,2.6-10.29a43.25,43.25,0,0,1,3.65,6.89L32,149.24c1,2.31,2.23,4.79,3.52,7.23,4.84,9.17,10.92,17.91,13.59,17a5.41,5.41,0,0,0-1.1,2.61c-1-.78-2.08-1.76-2.86-2.42a51.08,51.08,0,0,1-8.53-9l-1.1-1.39c-.35-.46-.7-.93-1-1.36C33.42,159.33,32.11,156.44,31,153.89ZM20.73,23.94h0c3.81-4.17,9.58-8.21,14.83-11.29,1-.6,2-1.17,3-1.69C41.22,9.51,44.21,8.21,47,7A81.43,81.43,0,0,1,75,1.91a81.43,81.43,0,0,1,28,5.11c1.58.67,3.21,1.37,4.82,2.12,1.25.58,2.47,1.19,3.64,1.82,5.92,3.21,13.26,8,17.81,13L125,28.47l-4.61,4.32a65.5,65.5,0,0,1,19.18,41.69c1.17,14.57-3.12,29.12-10.92,41.25a64.58,64.58,0,0,1-107.44,0C13.45,103.6,9.16,89.05,10.33,74.48A65.57,65.57,0,0,1,29.52,32.79L24.9,28.47ZM144,54.76l5.65-2.3L138,43.61l5-3.61L127.77,28.2l4-4.39c-6.82-6.3-14.37-12.39-23-16.2-.36-.18-.72-.37-1.1-.54a77.92,77.92,0,0,0-17-5.56A99,99,0,0,0,75,.14,99.12,99.12,0,0,0,59.23,1.51a75.7,75.7,0,0,0-18.14,6.1,57.57,57.57,0,0,0-5.53,2.83A101.93,101.93,0,0,0,18.13,23.81l4,4.39L7,40l5,3.61L.25,52.46l5.66,2.3A98.26,98.26,0,0,0,2.2,71a76.25,76.25,0,0,0,13.72,52.38c3.38,4.59,8.65,8,6.64,14.23-1.17,2.3-2.54,5.31-3.58,7.67,2.54-.26,4.55-1.31,6,.91A134.82,134.82,0,0,1,32,161c1.2,2.66,2.35,5.41,3.52,8.17,6,14.1,12.74,28.33,29.66,30.91,5.46.53,7.6,5.12,9.75,9.57,2.15-4.45,4.29-9,9.75-9.57,11.26-1.71,18-8.59,23-17.15,4-6.83,6.91-14.71,10.14-21.93a136.73,136.73,0,0,1,7-14.89c1.5-2.22,3.51-1.17,6-.91-1.05-2.36-2.41-5.37-3.58-7.67-2-6.22,3.24-9.64,6.63-14.23A76.15,76.15,0,0,0,147.74,71,97.23,97.23,0,0,0,144,54.76Z"/>
        <path class="cls-3" d="M21,24h0L25,28.37l4.71,4.42-.1.1a65.66,65.66,0,0,0-19.15,41.6C9.38,88.37,13.25,103,21.4,115.65a64.41,64.41,0,0,0,107.2,0c8.15-12.66,12-27.28,10.91-41.15a65.73,65.73,0,0,0-19.15-41.61l-.1-.1L125,28.36,129,24c-5.38-5.86-14.15-10.95-17.69-12.87-1.13-.61-2.35-1.22-3.63-1.81-1.63-.77-3.27-1.47-4.81-2.12A82.14,82.14,0,0,0,75,2.05a82.24,82.24,0,0,0-27.92,5.1c-2.64,1.12-5.7,2.45-8.43,3.93-1.15.62-2.09,1.16-3,1.69C29.44,16.43,24.22,20.39,21,24M75,144.59h0A64.57,64.57,0,0,1,21.17,115.8C13,103.09,9.1,88.41,10.22,74.48A65.94,65.94,0,0,1,29.35,32.79l-4.52-4.22L20.58,24l.08-.1C25.09,19,31.87,14.68,35.52,12.53c.9-.53,1.85-1.07,3-1.69C41.26,9.35,44.33,8,47,6.9A82.11,82.11,0,0,1,75,1.77h0a82.29,82.29,0,0,1,28,5.12c1.55.66,3.19,1.36,4.83,2.13,1.28.59,2.5,1.2,3.64,1.82,3.57,1.93,12.45,7.08,17.85,13l.09.1-4.25,4.61-4.51,4.23a66,66,0,0,1,19.12,41.69c1.12,13.94-2.77,28.61-10.95,41.32a64.22,64.22,0,0,1-21,19.86A65,65,0,0,1,75,144.59Zm0,47.91h0a24.75,24.75,0,0,1,3,.26l.22.08c.29.09.58.19.84.29a6.07,6.07,0,0,1,1.24-.7,17.27,17.27,0,0,0-10.64,0,5.75,5.75,0,0,1,1.24.7l.94-.33.1,0A23.68,23.68,0,0,1,75,192.5Zm-4.12.94h0l-.06,0a4.44,4.44,0,0,0-1.64-.82l-.5-.1.48-.17a17.72,17.72,0,0,1,11.68,0l.47.17-.5.1a4.64,4.64,0,0,0-1.63.82l-.06,0-.07,0c-.27-.11-.57-.21-.89-.32L78,193a25.12,25.12,0,0,0-3-.25,23.77,23.77,0,0,0-3,.26l-.09,0c-.35.12-.7.23-1,.35Zm.9.51h0a5.62,5.62,0,0,1,.5.88,8.61,8.61,0,0,1,2.72-.5,8.52,8.52,0,0,1,2.72.5,4.73,4.73,0,0,1,.5-.88,11.75,11.75,0,0,0-6.44,0Zm.34,1.22h0l0-.12a5.42,5.42,0,0,0-.63-1.08l-.12-.16.18-.06a11.76,11.76,0,0,1,7,0l.19.07-.13.15a5.08,5.08,0,0,0-.63,1.08l0,.12-.12,0a8.53,8.53,0,0,0-2.75-.52,8.62,8.62,0,0,0-2.75.52ZM23.55,29.82h0L11,39.44l15.7-6.69Zm99.76,2.93h0L139,39.44l-12.56-9.62Zm10.13,14h0l11.7,4.7-10.33-7.69-9.33-8.53A59,59,0,0,1,133.44,46.71ZM24.52,35.19h0L15.2,43.71,4.86,51.41l11.71-4.7A58.68,58.68,0,0,1,24.52,35.19ZM34.67,161.88h0l.89,1.16.14.19,1.1,1.39a50.3,50.3,0,0,0,8.51,9l.82.72c.57.5,1.21,1.06,1.85,1.56a5.35,5.35,0,0,1,.89-2.17h-.08c-3.15,0-9.14-9.23-13.32-17.16-1.26-2.38-2.48-4.88-3.52-7.24l-3.83-9.64a40.28,40.28,0,0,0-3.23-6.21c.47,2.8-.65,5.15-2.14,8.31-.18.36-.35.72-.53,1.1,3.38-.1,4.18,1.44,5.41,3.83.13.25.26.51.41.78.38.81.82,1.68,1.25,2.51.65,1.29,1.32,2.63,1.87,3.86.44,1,.9,2.06,1.38,3.13C33.26,158.6,34,160.29,34.67,161.88Zm66.46,11.81h0a5.52,5.52,0,0,1,.89,2.17c.63-.48,1.25-1,1.81-1.52l.86-.76c1-.85,2-1.77,3-2.7a40.35,40.35,0,0,0,5.51-6.25c.42-.51.88-1.12,1.33-1.7l.81-1.05c.7-1.67,1.49-3.46,2.25-5.18l1.26-2.87c.56-1.26,1.26-2.63,1.93-4,.4-.8.82-1.63,1.19-2.4l.41-.78c1.18-2.31,2-3.84,5.06-3.84h.34l-.53-1.14c-1.49-3.14-2.6-5.48-2.14-8.27a42.49,42.49,0,0,0-3.22,6.21l-3.83,9.64a110.37,110.37,0,0,1-10.16,18.22C105.84,170.37,103,173.79,101.13,173.69Zm-59.32-1.77h0a46.84,46.84,0,0,0,11.11,18.72l0,0c2.31,1.79,6.15,4.79,9.51,5a4.75,4.75,0,0,1,4.05-3.52A19.5,19.5,0,0,1,75,189.81h0a19.5,19.5,0,0,1,8.48,2.37,4.65,4.65,0,0,1,4,3.52c3.36-.25,7.21-3.24,9.51-5l0,0a45.91,45.91,0,0,0,10.56-17.13c.17-.48.34-1,.54-1.57l-.32.29c-1.1,1-2.3,1.95-3.47,2.89-.83.67-1.62,1.31-2.37,1.95l-.17.26a4.31,4.31,0,0,1-1.08,1.33c-.47.56-1.37.53-2.75-.12-1.74-1.2-1.18-3.53-.78-4.25a2.75,2.75,0,0,1,2.47-1.11,5.62,5.62,0,0,1,.7.05c2-.49,4.64-3.21,7.24-7.48,4-6.55,6.67-14.71,6.87-20.88a12,12,0,0,1-5.78,1.23h-.39l.3-.25c4-3.2,4.62-5.66,5.09-7.44.58-2.24.93-3.59,6.69-4.25a1.94,1.94,0,0,0,.41-2,3.4,3.4,0,0,1,.46-2.83l.15-.28.21.62a5.24,5.24,0,0,0,1.08,2.17,1.26,1.26,0,0,0,.52.09,4.61,4.61,0,0,0,2.67-1.19,16.79,16.79,0,0,1,1.1-2l0,0c9.76-9.85,17.13-26,18.76-41.09a73.62,73.62,0,0,0-4.28-33.92l-7.79-6.39c5.12,10.27,8.05,21.87,8.05,31.93a69.3,69.3,0,0,1-9.71,34.83,67.43,67.43,0,0,1-24.25,23.64A68.7,68.7,0,0,1,75,146.55,67.17,67.17,0,0,1,17.92,114.1,69.13,69.13,0,0,1,8.21,79.27c0-10.07,2.92-21.67,8-31.93L8.46,53.73A73.5,73.5,0,0,0,4.19,87.65c1.63,15.12,9,31.25,18.75,41.09l0,0a16.06,16.06,0,0,1,1.1,2c2.13,1.65,3.2,1.09,3.2,1.09a5.34,5.34,0,0,0,1.07-2.19l.21-.59.14.28a3.38,3.38,0,0,1,.47,2.83,2,2,0,0,0,.4,2c4.29.49,5.54,1.37,6.16,2.62a8.42,8.42,0,0,1,.54,1.63c.47,1.78,1.11,4.24,5.09,7.44l.3.25h-.39a12,12,0,0,1-5.71-1.21l-.07,0a26.68,26.68,0,0,0,.26,2.93c1.54,11.33,9.34,24.32,13.85,25.43a5.75,5.75,0,0,1,.69-.05,2.73,2.73,0,0,1,2.47,1.1c.41.72,1,3-.75,4.25a4.48,4.48,0,0,1-1.81.52,1.19,1.19,0,0,1-1-.39,4.4,4.4,0,0,1-1.08-1.32c-.06-.11-.12-.19-.17-.27-.74-.64-1.53-1.27-2.35-1.93C44.33,174.09,43,173,41.81,171.92ZM87.29,196h0v-.12a4.41,4.41,0,0,0-3.85-3.42h0A19.31,19.31,0,0,0,75,190.09a19.31,19.31,0,0,0-8.39,2.35h0a4.41,4.41,0,0,0-3.85,3.42l0,.12h-.13c-3.47-.2-7.42-3.27-9.79-5.11l0,0A47.57,47.57,0,0,1,41.38,171.5l-.17-.51.39.37c1.28,1.2,2.76,2.4,4.19,3.55.83.67,1.62,1.31,2.38,2l0,0a2.45,2.45,0,0,1,.18.29,4,4,0,0,0,1,1.25l0,0c.39.47,1.19.42,2.45-.17,1.67-1.17.87-3.46.65-3.86-.51-.77-1.46-1.08-2.92-.92h-.05l-.15,0-.1.13a5.2,5.2,0,0,0-1.07,2.55l0,.24-.18-.14c-.72-.54-1.43-1.17-2.06-1.73l-.81-.71a50.82,50.82,0,0,1-8.55-9c-.29-.36-.66-.81-1.1-1.39l-.14-.18c-.3-.4-.6-.8-.9-1.17l0,0c-.66-1.6-1.41-3.29-2.13-4.93-.48-1.08-.94-2.13-1.38-3.14-.54-1.22-1.22-2.55-1.87-3.85-.42-.83-.86-1.7-1.25-2.5l-.4-.78c-1.26-2.44-2-3.84-5.38-3.67h-.24l.1-.21c.22-.45.43-.89.62-1.31,1.61-3.39,2.77-5.83,2-8.88l-.23-.84.47.73a42.28,42.28,0,0,1,3.66,6.9l3.83,9.64c1,2.35,2.26,4.85,3.51,7.23,4.47,8.46,10.25,17,13.08,17a1.33,1.33,0,0,0,.34,0c-4.71-1.73-12.13-14.22-13.68-25.54a28.9,28.9,0,0,1-.26-3.18v-.22l.45.2a11.49,11.49,0,0,0,5.22,1.18c-3.78-3.14-4.41-5.56-4.88-7.34a8,8,0,0,0-.51-1.57c-.59-1.18-1.8-2-6-2.48H29.4l0,0a2.3,2.3,0,0,1-.48-2.24,3,3,0,0,0-.29-2.34,5.19,5.19,0,0,1-1.18,2.31,1.29,1.29,0,0,1-.68.15A4.86,4.86,0,0,1,23.86,131l0,0,0,0a15,15,0,0,0-1.08-2C12.94,119,5.55,102.85,3.92,87.69a73.73,73.73,0,0,1,4.3-34.1v0l7.65-6.28L3,52.46l12-9L26.25,33.24,9.08,40.56l14.49-11.1L27,32.63l.67-.28-.6.54A59.87,59.87,0,0,0,17,46.55l.49-.19-.67.55c-5.28,10.35-8.3,22.15-8.3,32.36A68.91,68.91,0,0,0,18.15,114a68.36,68.36,0,0,0,17.52,19.22A67.49,67.49,0,0,0,75,146.27a68.42,68.42,0,0,0,32.71-8.78A67,67,0,0,0,131.85,114a69,69,0,0,0,9.67-34.69c0-10.2-3-22-8.29-32.36l-.68-.56.49.2A60.17,60.17,0,0,0,123,32.89l-.6-.54.67.28,3.41-3.17,14.49,11.1-17.18-7.32L135,43.51l12,9-12.9-5.18,7.65,6.28,0,0a74.13,74.13,0,0,1,4.3,34.1c-1.63,15.16-9,31.35-18.83,41.24a15,15,0,0,0-1.08,2v0l0,0a4.88,4.88,0,0,1-2.87,1.27,1.37,1.37,0,0,1-.67-.14,5.05,5.05,0,0,1-1.18-2.31h0a3,3,0,0,0-.29,2.34,2.26,2.26,0,0,1-.49,2.24l0,0h-.06c-5.63.63-6,1.85-6.52,4.05-.46,1.78-1.1,4.2-4.87,7.34a11.78,11.78,0,0,0,5.48-1.29l.19-.09v.22c-.14,6.24-2.86,14.57-6.91,21.23-2.49,4.07-5,6.76-7,7.49,1.3.41,3.74-1.77,6.79-6a110.9,110.9,0,0,0,10.13-18.17l3.83-9.64a41.48,41.48,0,0,1,3.66-6.9l.47-.73-.23.84c-.8,3,.36,5.47,2,8.84.2.44.42.89.63,1.35l.1.21H128c-3.39-.17-4.12,1.23-5.38,3.68l-.4.77c-.37.77-.79,1.6-1.2,2.41-.67,1.32-1.36,2.69-1.92,3.94l-1.26,2.87c-.76,1.73-1.55,3.52-2.25,5.2l0,0c-.27.34-.55.7-.82,1.06-.45.59-.92,1.19-1.33,1.69a39.3,39.3,0,0,1-5.54,6.28c-1,1-2,1.87-3,2.72l-.87.76c-.62.54-1.31,1.15-2,1.68l-.18.14,0-.24a5.18,5.18,0,0,0-1.08-2.55l-.09-.13-.15,0h0c-1.47-.16-2.41.14-2.93.92-.22.4-1,2.7.68,3.87,1.22.57,2,.63,2.42.16l0,0a4.16,4.16,0,0,0,1-1.25l.17-.29,0,0c.77-.65,1.56-1.29,2.41-2,1.16-.94,2.35-1.9,3.45-2.88l.71-.65.39-.39-.17.53c-.26.81-.49,1.48-.71,2.09a46.38,46.38,0,0,1-10.64,17.25l-.06,0c-2.36,1.83-6.32,4.9-9.78,5.1Zm.24.71h0a3.72,3.72,0,0,1-.16.72A26.43,26.43,0,0,0,99.3,191a56.94,56.94,0,0,0,8.36-11.81,140.66,140.66,0,0,0,6.49-14,43.15,43.15,0,0,1-4.44,5.26c-.37,1-.71,2-1,3.06-.25.79-.5,1.6-.77,2.37-.17.43-.34.89-.53,1.31C104.39,184,96.86,195.74,87.53,196.7Zm-.59,1.11h0l.09-.24a4.75,4.75,0,0,0,.25-1l0-.11h.11c9.24-.86,16.74-12.55,19.72-19.32.19-.42.35-.85.52-1.3.27-.76.52-1.57.77-2.35.32-1.05.66-2.14,1-3.1l0-.05a47.5,47.5,0,0,0,5.12-6.21l.7-1-.46,1.13a149.84,149.84,0,0,1-7,15.1,56.52,56.52,0,0,1-8.42,11.88,26.63,26.63,0,0,1-12.29,6.54Zm-51.1-32.59h0c3.62,8.75,8,18.62,14.87,25.81a26.37,26.37,0,0,0,11.92,6.39,5.52,5.52,0,0,1-.15-.68v0c-9.33-.95-16.87-12.68-19.86-19.48a35.21,35.21,0,0,1-1.29-3.68c-.32-1-.65-2.11-1-3.06A44.35,44.35,0,0,1,35.84,165.22Zm27.23,32.59h0l-.26-.05a26.7,26.7,0,0,1-12.29-6.53c-6.94-7.32-11.41-17.36-15.06-26.2l-.78-1.93,1,1.46a45.7,45.7,0,0,0,4.8,5.75l0,.05c.39,1,.73,2,1,3.1a34.64,34.64,0,0,0,1.29,3.65c3,6.77,10.47,18.46,19.72,19.32h.11l0,.25a4.36,4.36,0,0,0,.22.88Zm7.1,2.06h0l.34.31a22,22,0,0,1,4.49,5,21.5,21.5,0,0,1,4.48-4.95l.35-.32a4.27,4.27,0,0,1-2.43-3.63,1.13,1.13,0,0,1,.06-.32,1.4,1.4,0,0,0,.06-.24,6.86,6.86,0,0,0-5,0,.84.84,0,0,0,.06.24,1.13,1.13,0,0,1,.06.32A4.27,4.27,0,0,1,70.17,199.87ZM75,205.7h0l-.12-.21a20.85,20.85,0,0,0-4.55-5.1l-.64-.58.18-.09a4.08,4.08,0,0,0,2.45-3.48.79.79,0,0,0,0-.24,1.59,1.59,0,0,1-.07-.41v-.1l.08,0a8,8,0,0,1,2.72-.52,7.89,7.89,0,0,1,2.71.52l.09,0v.1a1.59,1.59,0,0,1-.07.41.79.79,0,0,0,0,.24,4.06,4.06,0,0,0,2.45,3.48l.18.09-.65.59a20.59,20.59,0,0,0-4.54,5.09ZM22.5,144.62h0a3,3,0,0,1,2.67,1.45,135.85,135.85,0,0,1,7,14.91c1,2.15,1.92,4.4,2.84,6.58l.68,1.59C42.28,184.55,49,197.5,65.27,200c5.42.52,7.62,5,9.73,9.39,2.11-4.38,4.3-8.87,9.74-9.39,9.65-1.47,16.94-6.9,22.92-17.09a137.76,137.76,0,0,0,7.43-15.65c.88-2.08,1.79-4.22,2.71-6.26a133.18,133.18,0,0,1,7-14.9,3,3,0,0,1,2.67-1.46,10.8,10.8,0,0,1,1.95.24c.42.07.86.15,1.32.21-.94-2.14-2.29-5.13-3.48-7.44-1.58-4.9,1.19-8,4.13-11.36.86-1,1.74-2,2.52-3A76.47,76.47,0,0,0,147.63,71a96.54,96.54,0,0,0-3.69-16.17l0-.12,5.54-2.26-11.66-8.81L142.73,40,127.6,28.22l4-4.4c-5.83-5.38-13.68-12-22.82-16.08-.3-.15-.69-.36-1.1-.55a77.85,77.85,0,0,0-17-5.54A97.57,97.57,0,0,0,75,.28,97.88,97.88,0,0,0,59.28,1.65a74.71,74.71,0,0,0-18.1,6.09,57.56,57.56,0,0,0-5.52,2.82,98.93,98.93,0,0,0-17.3,13.26l4,4.4L7.27,40l5,3.61L.56,52.42l5.55,2.26,0,.12A97.43,97.43,0,0,0,2.37,71a76.43,76.43,0,0,0,13.7,52.28c.77,1,1.65,2,2.51,3,2.94,3.33,5.71,6.46,4.13,11.33-1.16,2.29-2.52,5.29-3.48,7.47.46-.06.9-.14,1.32-.21A10.8,10.8,0,0,1,22.5,144.62ZM75,210l-.2-.41c-2.09-4.34-4.24-8.83-9.57-9.34-16.37-2.49-23.17-15.51-29.76-31l-.68-1.59c-.92-2.17-1.88-4.42-2.84-6.57a132.69,132.69,0,0,0-7-14.87,2.65,2.65,0,0,0-2.43-1.33,11.47,11.47,0,0,0-1.9.24c-.5.09-1,.18-1.58.24l-.24,0,.1-.23c1-2.2,2.38-5.32,3.58-7.67,1.52-4.7-1.2-7.77-4.08-11-.86-1-1.75-2-2.54-3a77.57,77.57,0,0,1-11.69-25A74.06,74.06,0,0,1,2.09,70.93,98.26,98.26,0,0,1,5.77,54.84L0,52.5l11.76-8.89L6.81,40,22,28.18,18,23.8l.1-.1c6.63-6.1,12-10.23,17.45-13.38a59.31,59.31,0,0,1,5.54-2.84,76,76,0,0,1,18.17-6.1A98.65,98.65,0,0,1,75,0,98.34,98.34,0,0,1,90.76,1.38a77.77,77.77,0,0,1,17.08,5.56l1.1.55c9.21,4.08,17.13,10.81,23,16.21l.1.1-4,4.38L143.18,40l-4.93,3.6L150,52.5l-5.77,2.34a96.39,96.39,0,0,1,3.68,16.09,74.06,74.06,0,0,1-2.06,27.53,77.57,77.57,0,0,1-11.69,25c-.78,1.06-1.67,2.07-2.53,3-2.88,3.26-5.61,6.34-4.09,11.06,1.23,2.38,2.63,5.51,3.58,7.65l.1.23-.24,0c-.55-.06-1.07-.15-1.58-.24a11.34,11.34,0,0,0-1.9-.24,2.7,2.7,0,0,0-2.44,1.34,134.34,134.34,0,0,0-7,14.86c-.92,2-1.83,4.19-2.7,6.26A138.33,138.33,0,0,1,107.9,183c-6,10.27-13.38,15.74-23.13,17.22-5.32.51-7.47,5-9.56,9.32Z"/>
        <path class="cls-4" d="M103.6,24.25h0l3,1.88-.07.1a1.6,1.6,0,0,0-.2,1.49,3.22,3.22,0,0,0,1.35,1.37,3.33,3.33,0,0,0,1.58.62,1,1,0,0,0,1-.53c.33-.54-.15-1.39-1.43-2.57l-.6-.55a8.76,8.76,0,0,1-2.31-3,2.85,2.85,0,0,1,.34-2.5A3.23,3.23,0,0,1,109,18.84a7.52,7.52,0,0,1,4.15,1.45A7.07,7.07,0,0,1,116,23.18a3.57,3.57,0,0,1-.32,3.17l-2.8-1.78,0,0a1.13,1.13,0,0,0,.08-1.16,3,3,0,0,0-1.17-1.17,3.49,3.49,0,0,0-1.49-.59.94.94,0,0,0-.93.43c-.31.51.16,1.33,1.39,2.49.22.19.38.36.51.48l.1.09a8.59,8.59,0,0,1,2.37,3,2.93,2.93,0,0,1,.08,1.35,3.61,3.61,0,0,1-.51,1.35,3.34,3.34,0,0,1-2.86,1.7,7.8,7.8,0,0,1-4.27-1.48,7.64,7.64,0,0,1-3.13-3.2,3.57,3.57,0,0,1,.39-3.4Zm-11.91-.81h0l3.79-11.88,3.34,1.11L95,24.55ZM75.18,21h0L76,8.55l3.48.25-.67,9.74,6.43.45-.19,2.72ZM61.56,23h0A7.62,7.62,0,0,1,56,22.54a6.07,6.07,0,0,1-2.89-4.27A5.9,5.9,0,0,1,54,13.21a8.27,8.27,0,0,1,5-2.91,7.78,7.78,0,0,1,5.64.41A6.12,6.12,0,0,1,67.57,15a5.89,5.89,0,0,1-.84,5.07A8.66,8.66,0,0,1,61.56,23ZM56.65,17.6h0a4.13,4.13,0,0,0,1.58,2.66,3.69,3.69,0,0,0,3,.31A3.91,3.91,0,0,0,63.79,19a4,4,0,0,0,.3-3,4.47,4.47,0,0,0-1.67-2.85,3.66,3.66,0,0,0-3.05-.4,3.55,3.55,0,0,0-2.44,1.7A4.53,4.53,0,0,0,56.65,17.6ZM40.26,32.83h0L33.75,22.24l5.38-3.42a11.6,11.6,0,0,1,1.91-1,4.13,4.13,0,0,1,1.38-.33,3.11,3.11,0,0,1,1.78.46,4.5,4.5,0,0,1,1.44,1.52,4.43,4.43,0,0,1,.7,2,3.08,3.08,0,0,1-.41,1.82,4.66,4.66,0,0,1-1,1.17A17.89,17.89,0,0,1,42.8,26l-.23.14-1.76,1.12L43.14,31ZM37.91,22.5h0l1.64,2.68L41.35,24a4,4,0,0,0,1.51-1.38,1.36,1.36,0,0,0-.19-1.36,1.29,1.29,0,0,0-1.07-.74,4.14,4.14,0,0,0-1.9.8ZM98,8.08a1.51,1.51,0,1,1-1.48,1.5A1.49,1.49,0,0,1,98,8.08Z"/>
        <polygon class="cls-2" points="58.04 44.5 58.42 44.36 58.42 44.24 59 44.02 59 43.85 59.87 43.54 59.87 43.27 61.16 42.82 59.87 42.35 59.87 42.08 59 41.77 59 41.6 58.42 41.39 58.42 41.27 58.04 41.13 58.2 40.75 58.13 40.67 58.4 40.11 58.27 39.98 58.66 39.15 58.48 38.96 59.06 37.71 57.82 38.31 57.64 38.12 56.81 38.52 56.69 38.4 56.14 38.66 56.05 38.58 55.68 38.75 55.54 38.36 55.43 38.36 55.21 37.78 55.04 37.78 54.74 36.91 54.47 36.91 54.02 35.6 53.56 36.91 53.29 36.91 52.99 37.78 52.81 37.78 52.6 38.36 52.49 38.36 52.35 38.75 51.98 38.58 51.89 38.66 51.34 38.4 51.21 38.52 50.39 38.12 50.2 38.31 48.97 37.71 49.55 38.96 49.37 39.15 49.76 39.98 49.63 40.11 49.9 40.67 49.82 40.75 49.99 41.13 49.61 41.27 49.61 41.39 49.03 41.6 49.03 41.77 48.16 42.08 48.16 42.35 46.87 42.82 48.16 43.27 48.16 43.54 49.03 43.85 49.03 44.02 49.61 44.24 49.61 44.36 49.99 44.5 49.82 44.87 49.9 44.95 49.63 45.52 49.76 45.64 49.37 46.48 49.55 46.66 48.97 47.92 50.2 47.33 50.39 47.51 51.21 47.11 51.34 47.24 51.89 46.97 51.98 47.05 52.35 46.88 52.49 47.27 52.6 47.27 52.81 47.85 52.99 47.85 53.29 48.73 53.56 48.73 54.02 50.02 54.47 48.73 54.74 48.73 55.04 47.85 55.21 47.85 55.43 47.27 55.54 47.27 55.68 46.88 56.05 47.05 56.14 46.97 56.69 47.24 56.81 47.11 57.64 47.51 57.82 47.33 59.06 47.92 58.48 46.66 58.66 46.48 58.27 45.64 58.4 45.52 58.13 44.95 58.2 44.87 58.04 44.5"/>
        <path class="cls-2" d="M54,39.29h0a.87.87,0,0,0-.87.89v.09l-.09,0a2.69,2.69,0,1,0,1.93,0l-.09,0v-.09a.9.9,0,0,0-.88-.89m0,6.5a3,3,0,0,1-2.93-3,3,3,0,0,1,1.79-2.75,1.14,1.14,0,0,1,2.28,0A3,3,0,0,1,54,45.79Z"/>
        <path class="cls-3" d="M49,37.71l10.1,10.2Z"/>
        <polygon class="cls-3" points="59.05 47.93 48.95 37.73 48.98 37.7 59.08 47.9 59.05 47.93"/>
        <rect class="cls-3" x="46.87" y="42.79" width="14.28" height="0.04"/>
        <polygon class="cls-3" points="48.98 47.93 48.95 47.9 59.05 37.7 59.08 37.73 48.98 47.93"/>
        <rect class="cls-3" x="53.99" y="35.6" width="0.04" height="14.43"/>
        <polygon class="cls-3" points="58.02 44.51 49.99 41.15 50 41.11 58.04 44.48 58.02 44.51"/>
        <polygon class="cls-3" points="50 44.51 49.99 44.48 58.02 41.11 58.04 41.15 50 44.51"/>
        <polygon class="cls-3" points="55.66 46.88 52.33 38.76 52.37 38.74 55.7 46.87 55.66 46.88"/>
        <polygon class="cls-3" points="52.37 46.88 52.33 46.87 55.66 38.74 55.7 38.76 52.37 46.88"/>
        <path class="cls-5" d="M55,40.18a2.81,2.81,0,1,1-2,0,1,1,0,0,1,1-1,1,1,0,0,1,1,1"/>
        <path class="cls-2" d="M54,41.33h0l-.18-.52h-.54l.45-.32L53.56,40l.45.31.43-.31-.17.52.44.32h-.54Zm1,0a1.43,1.43,0,0,1-1,2.44,1.4,1.4,0,0,1-1.4-1.43,1.47,1.47,0,0,1,.4-1,1.83,1.83,0,0,0-.75,1.47A1.76,1.76,0,1,0,55,41.35Z"/>
        <polygon class="cls-2" points="71.35 38.81 71.73 38.67 71.73 38.55 72.31 38.34 72.31 38.16 73.18 37.85 73.18 37.58 74.47 37.13 73.18 36.66 73.18 36.4 72.31 36.08 72.31 35.91 71.73 35.7 71.73 35.58 71.35 35.44 71.51 35.07 71.44 34.98 71.7 34.42 71.58 34.3 71.97 33.46 71.79 33.28 72.37 32.02 71.13 32.62 70.95 32.43 70.13 32.83 70 32.71 69.44 32.98 69.36 32.89 68.99 33.06 68.85 32.68 68.74 32.68 68.52 32.09 68.35 32.09 68.05 31.22 67.78 31.22 67.33 29.91 66.87 31.22 66.6 31.22 66.3 32.09 66.12 32.09 65.91 32.68 65.8 32.68 65.66 33.06 65.29 32.89 65.2 32.98 64.65 32.71 64.52 32.83 63.7 32.43 63.52 32.62 62.27 32.02 62.86 33.28 62.68 33.46 63.07 34.3 62.94 34.42 63.21 34.98 63.13 35.07 63.3 35.44 62.92 35.58 62.92 35.7 62.34 35.91 62.34 36.08 61.47 36.4 61.47 36.66 60.18 37.13 61.47 37.58 61.47 37.85 62.34 38.16 62.34 38.34 62.92 38.55 62.92 38.67 63.3 38.81 63.13 39.18 63.21 39.27 62.94 39.83 63.07 39.95 62.68 40.79 62.86 40.97 62.27 42.23 63.52 41.63 63.7 41.82 64.52 41.42 64.65 41.55 65.2 41.28 65.29 41.35 65.66 41.19 65.8 41.58 65.91 41.58 66.12 42.16 66.3 42.16 66.6 43.04 66.87 43.04 67.33 44.34 67.78 43.04 68.05 43.04 68.35 42.16 68.52 42.16 68.74 41.58 68.85 41.58 68.99 41.19 69.36 41.35 69.44 41.28 70 41.55 70.13 41.42 70.95 41.82 71.13 41.63 72.37 42.23 71.79 40.97 71.97 40.79 71.58 39.95 71.7 39.83 71.44 39.27 71.51 39.18 71.35 38.81"/>
        <path class="cls-2" d="M67.31,33.6h0a.88.88,0,0,0-.87.89v.09l-.09,0a2.71,2.71,0,0,0-1.7,2.53,2.68,2.68,0,1,0,3.63-2.53l-.09,0v-.09a.9.9,0,0,0-.88-.89m0,6.5a3,3,0,0,1-1.14-5.7,1.15,1.15,0,0,1,1.14-1.07,1.18,1.18,0,0,1,1.15,1.07,3,3,0,0,1-1.15,5.7Z"/>
        <path class="cls-3" d="M62.27,32l10.1,10.21Z"/>
        <polygon class="cls-3" points="72.36 42.24 62.26 32.04 62.29 32.01 72.39 42.21 72.36 42.24"/>
        <rect class="cls-3" x="60.18" y="37.1" width="14.28" height="0.04"/>
        <polygon class="cls-3" points="62.29 42.24 62.26 42.21 72.36 32.01 72.39 32.04 62.29 42.24"/>
        <rect class="cls-3" x="67.31" y="29.91" width="0.04" height="14.43"/>
        <polygon class="cls-3" points="71.33 38.83 63.29 35.46 63.31 35.42 71.35 38.79 71.33 38.83"/>
        <polygon class="cls-3" points="63.31 38.83 63.29 38.79 71.33 35.42 71.35 35.46 63.31 38.83"/>
        <polygon class="cls-3" points="68.97 41.19 65.64 33.07 65.67 33.05 69.01 41.18 68.97 41.19"/>
        <polygon class="cls-3" points="65.67 41.19 65.64 41.18 68.97 33.05 69.01 33.07 65.67 41.19"/>
        <path class="cls-5" d="M68.33,34.49a2.81,2.81,0,1,1-2,0,1,1,0,0,1,1-1,1,1,0,0,1,1,1"/>
        <path class="cls-2" d="M67.32,35.64h0l-.17-.52H66.6l.45-.32-.18-.52.45.32.43-.32-.16.52.44.32h-.55Zm1,0a1.42,1.42,0,0,1,.43,1,1.44,1.44,0,0,1-1.41,1.44,1.42,1.42,0,0,1-1.4-1.44,1.5,1.5,0,0,1,.4-1,1.85,1.85,0,0,0-.75,1.47,1.76,1.76,0,1,0,2.73-1.47Z"/>
        <polygon class="cls-2" points="91.96 44.52 91.58 44.38 91.58 44.26 91 44.05 91 43.88 90.13 43.56 90.13 43.29 88.85 42.83 90.13 42.37 90.13 42.1 91 41.8 91 41.62 91.58 41.41 91.58 41.29 91.96 41.15 91.8 40.77 91.87 40.69 91.61 40.13 91.73 40 91.34 39.17 91.52 38.99 90.94 37.73 92.18 38.33 92.36 38.14 93.19 38.53 93.31 38.41 93.87 38.68 93.95 38.6 94.32 38.77 94.46 38.38 94.58 38.38 94.79 37.8 94.96 37.8 95.27 36.93 95.53 36.93 95.99 35.62 96.44 36.93 96.71 36.93 97.01 37.8 97.19 37.8 97.4 38.38 97.51 38.38 97.65 38.77 98.02 38.6 98.11 38.68 98.66 38.41 98.79 38.53 99.61 38.14 99.8 38.33 101.04 37.73 100.45 38.99 100.63 39.17 100.24 40 100.37 40.13 100.1 40.69 100.18 40.77 100.01 41.15 100.39 41.29 100.39 41.41 100.97 41.62 100.97 41.8 101.84 42.1 101.84 42.37 103.13 42.83 101.84 43.29 101.84 43.56 100.97 43.88 100.97 44.05 100.39 44.26 100.39 44.38 100.01 44.52 100.18 44.89 100.1 44.98 100.37 45.53 100.24 45.66 100.63 46.5 100.45 46.68 101.04 47.94 99.8 47.34 99.61 47.53 98.79 47.13 98.66 47.26 98.11 46.99 98.02 47.07 97.65 46.9 97.51 47.29 97.4 47.29 97.19 47.87 97.01 47.87 96.71 48.75 96.44 48.75 95.99 50.05 95.53 48.75 95.27 48.75 94.96 47.87 94.79 47.87 94.58 47.29 94.46 47.29 94.32 46.9 93.95 47.07 93.87 46.99 93.31 47.26 93.19 47.13 92.36 47.53 92.18 47.34 90.94 47.94 91.52 46.68 91.34 46.5 91.73 45.66 91.61 45.53 91.87 44.98 91.8 44.89 91.96 44.52"/>
        <path class="cls-2" d="M95.12,40.2h0v.09l-.08,0a2.66,2.66,0,1,0,1.92,0l-.09,0v-.1a.87.87,0,0,0-.87-.88.9.9,0,0,0-.88.89M93,42.85a3,3,0,0,1,1.81-2.75A1.18,1.18,0,0,1,96,39a1.15,1.15,0,0,1,1.14,1.06,3,3,0,0,1,1.79,2.75,2.95,2.95,0,1,1-5.89,0Z"/>
        <path class="cls-3" d="M101,37.73l-10.1,10.2Z"/>
        <polygon class="cls-3" points="90.95 47.95 101.05 37.75 101.02 37.72 90.92 47.92 90.95 47.95"/>
        <rect class="cls-3" x="88.85" y="42.82" width="14.27" height="0.04"/>
        <polygon class="cls-3" points="101.02 47.95 101.05 47.92 90.95 37.72 90.92 37.75 101.02 47.95"/>
        <rect class="cls-3" x="95.97" y="35.62" width="0.04" height="14.42"/>
        <polygon class="cls-3" points="91.98 44.53 100.02 41.17 100 41.13 91.96 44.5 91.98 44.53"/>
        <polygon class="cls-3" points="100 44.53 100.02 44.5 91.98 41.13 91.96 41.17 100 44.53"/>
        <polygon class="cls-3" points="94.34 46.9 97.67 38.78 97.64 38.76 94.31 46.89 94.34 46.9"/>
        <polygon class="cls-3" points="97.64 46.9 97.67 46.89 94.34 38.76 94.31 38.78 97.64 46.9"/>
        <path class="cls-5" d="M95,40.19a2.81,2.81,0,1,0,2,0,1,1,0,0,0-1-1,1,1,0,0,0-1,1"/>
        <path class="cls-2" d="M95.83,40.83h-.54l.44-.32L95.56,40l.43.31.45-.31-.18.52.45.32h-.54l-.18.52Zm-.82.54a1.76,1.76,0,1,0,2.73,1.47A1.83,1.83,0,0,0,97,41.37a1.47,1.47,0,0,1,.4,1A1.41,1.41,0,0,1,96,43.81a1.42,1.42,0,0,1-1-2.44Z"/>
        <polygon class="cls-2" points="78.66 38.81 78.27 38.67 78.27 38.55 77.69 38.34 77.69 38.16 76.82 37.85 76.82 37.58 75.54 37.13 76.82 36.66 76.82 36.4 77.69 36.08 77.69 35.91 78.27 35.7 78.27 35.58 78.66 35.44 78.48 35.07 78.56 34.98 78.3 34.42 78.42 34.3 78.03 33.46 78.21 33.28 77.63 32.02 78.87 32.62 79.05 32.43 79.87 32.83 80 32.71 80.56 32.98 80.64 32.89 81.01 33.06 81.15 32.68 81.27 32.68 81.48 32.09 81.65 32.09 81.95 31.22 82.22 31.22 82.67 29.91 83.13 31.22 83.4 31.22 83.7 32.09 83.88 32.09 84.09 32.68 84.2 32.68 84.34 33.06 84.71 32.89 84.8 32.98 85.35 32.71 85.48 32.83 86.3 32.43 86.48 32.62 87.73 32.02 87.14 33.28 87.32 33.46 86.93 34.3 87.06 34.42 86.79 34.98 86.87 35.07 86.7 35.44 87.08 35.58 87.08 35.7 87.66 35.91 87.66 36.08 88.53 36.4 88.53 36.66 89.82 37.13 88.53 37.58 88.53 37.85 87.66 38.16 87.66 38.34 87.08 38.55 87.08 38.67 86.7 38.81 86.87 39.18 86.79 39.27 87.06 39.83 86.93 39.95 87.32 40.79 87.14 40.97 87.73 42.23 86.48 41.63 86.3 41.82 85.48 41.42 85.35 41.55 84.8 41.28 84.71 41.35 84.34 41.19 84.2 41.58 84.09 41.58 83.88 42.16 83.7 42.16 83.4 43.04 83.13 43.04 82.67 44.34 82.22 43.04 81.95 43.04 81.65 42.16 81.48 42.16 81.27 41.58 81.15 41.58 81.01 41.19 80.64 41.35 80.56 41.28 80 41.55 79.87 41.42 79.05 41.82 78.87 41.63 77.63 42.23 78.21 40.97 78.03 40.79 78.42 39.95 78.3 39.83 78.56 39.27 78.48 39.18 78.66 38.81"/>
        <path class="cls-2" d="M81.81,34.49h0v.09l-.09,0a2.67,2.67,0,1,0,1.93,0l-.09,0v-.09a.88.88,0,0,0-.87-.89.9.9,0,0,0-.88.89m-2.08,2.66a3,3,0,0,1,1.81-2.75,1.18,1.18,0,0,1,1.15-1.07,1.15,1.15,0,0,1,1.14,1.07,3,3,0,1,1-4.1,2.75Z"/>
        <path class="cls-3" d="M87.73,32,77.62,42.23Z"/>
        <polygon class="cls-3" points="77.64 42.24 87.74 32.04 87.71 32.01 77.61 42.21 77.64 42.24"/>
        <rect class="cls-3" x="75.54" y="37.1" width="14.27" height="0.04"/>
        <polygon class="cls-3" points="87.71 42.24 87.74 42.21 77.64 32.01 77.61 32.04 87.71 42.24"/>
        <rect class="cls-3" x="82.66" y="29.91" width="0.04" height="14.43"/>
        <polygon class="cls-3" points="78.67 38.83 86.71 35.46 86.69 35.42 78.65 38.79 78.67 38.83"/>
        <polygon class="cls-3" points="86.69 38.83 86.71 38.79 78.67 35.42 78.65 35.46 86.69 38.83"/>
        <polygon class="cls-3" points="81.03 41.19 84.36 33.07 84.32 33.05 80.99 41.18 81.03 41.19"/>
        <polygon class="cls-3" points="84.32 41.19 84.36 41.18 81.03 33.05 80.99 33.07 84.32 41.19"/>
        <path class="cls-5" d="M81.67,34.49a2.81,2.81,0,1,0,2,0,1,1,0,0,0-1-1,1,1,0,0,0-1,1"/>
        <path class="cls-2" d="M82.52,35.12H82l.44-.32-.16-.52.43.32.45-.32L83,34.8l.45.32h-.54l-.18.52Zm-.82.54a1.78,1.78,0,0,0-.78,1.47,1.76,1.76,0,1,0,3.51,0,1.85,1.85,0,0,0-.75-1.47,1.46,1.46,0,0,1,.4,1,1.42,1.42,0,0,1-1.4,1.44,1.44,1.44,0,0,1-1.41-1.44A1.42,1.42,0,0,1,81.7,35.66Z"/>
        <polygon class="cls-2" points="28.12 49.17 30.39 45.91 29 44.92 27.23 47.48 25.95 46.57 27.74 44.01 26.27 42.95 24 46.21 22.67 45.26 26.07 40.37 32.81 45.21 29.4 50.09 28.12 49.17"/>
        <polygon class="cls-2" points="17.23 56.44 24.24 56.85 17.93 54.5 18.48 52.96 26.24 55.84 25.2 58.7 20.06 58.36 24.18 61.54 23.14 64.42 15.39 61.54 16.06 59.69 22.38 62.03 16.77 57.7 17.23 56.44"/>
        <path class="cls-2" d="M21.36,77.74l-8.23-.65.13-1.67,5.81-2.83h-.28a2.15,2.15,0,0,1-.36,0l-4.92-.39.11-1.53,8.23.65-.16,2.12-5.07,2.45h.55l4.3.34Z"/>
        <path class="cls-2" d="M22.78,85.86h0a.65.65,0,0,1,.14-.55.74.74,0,0,1,.45-.26.7.7,0,0,1,.52.14.68.68,0,0,1,.28.49.82.82,0,0,1-.12.53.69.69,0,0,1-1,.14.73.73,0,0,1-.25-.49M22,87l-8.18,1.1-.26-2L21.77,85Z"/>
        <polygon class="cls-2" points="25.47 99.85 20.11 98.92 16.82 100.07 16.19 98.21 19.48 97.07 23.16 93.01 23.89 95.16 21.44 97.7 24.9 98.18 25.47 99.85"/>
        <polygon class="cls-2" points="29.9 111.17 27.82 107.8 26.38 108.7 28.02 111.36 26.7 112.2 25.06 109.54 23.54 110.51 25.62 113.89 24.23 114.77 21.11 109.69 28.11 105.26 31.23 110.33 29.9 111.17"/>
        <polygon class="cls-2" points="39.12 119.3 37.96 120.47 36.52 119 31.82 123.73 30.44 122.31 35.14 117.58 33.7 116.11 34.85 114.94 39.12 119.3"/>
        <path class="cls-2" d="M56,133.94l-1.7,4.13-.81-.34a6.25,6.25,0,0,0,.11-1,2.71,2.71,0,0,1-2.49.13,3,3,0,0,1-1.88-2.06,4.85,4.85,0,0,1,.32-3.15,5,5,0,0,1,2.1-2.6,3.13,3.13,0,0,1,2.86-.1,3.23,3.23,0,0,1,1.76,1.59,3.44,3.44,0,0,1,.16,2.34l-1.79-.5c.25-1,0-1.64-.74-1.95a1.3,1.3,0,0,0-1.37.2,4.27,4.27,0,0,0-1.15,1.74,3.82,3.82,0,0,0-.34,2,1.41,1.41,0,0,0,.89,1.11,1.46,1.46,0,0,0,1,0,1.34,1.34,0,0,0,.79-.85l-1.44-.61.6-1.44Z"/>
        <polygon class="cls-2" points="67.37 134.36 63.52 133.58 63.19 135.26 66.22 135.88 65.91 137.42 62.89 136.81 62.54 138.6 66.39 139.38 66.08 141.01 60.29 139.85 61.9 131.63 67.68 132.79 67.37 134.36"/>
        <path class="cls-2" d="M78.15,133.15l.11,8.38-1.64,0-3.31-5.62c0,.15,0,.24,0,.29s0,.25,0,.36l.07,5-1.51,0-.11-8.38,2.09,0,2.87,4.9a4.79,4.79,0,0,1,0-.56l-.06-4.38Z"/>
        <polygon class="cls-2" points="88.97 133.09 85.12 133.86 85.45 135.55 88.48 134.94 88.78 136.48 85.76 137.1 86.11 138.89 89.96 138.11 90.28 139.74 84.5 140.9 82.89 132.69 88.67 131.52 88.97 133.09"/>
        <polygon class="cls-2" points="96.99 135.72 100.04 134.49 100.65 136.03 95.78 138 92.72 130.21 94.54 129.48 96.99 135.72"/>
        <polygon class="cls-2" points="114.79 126.88 108.85 123.07 113.25 128.24 112.02 129.31 106.62 122.97 108.9 120.98 113.22 123.81 111.15 119.01 113.44 117 118.83 123.34 117.36 124.63 112.96 119.46 115.79 126.01 114.79 126.88"/>
        <path class="cls-2" d="M117.51,110.44h0a.65.65,0,0,1-.48.29.75.75,0,0,1-.51-.14.71.71,0,0,1-.26-.47.69.69,0,0,1,.14-.55.78.78,0,0,1,.46-.29.62.62,0,0,1,.54.14.63.63,0,0,1,.27.49.74.74,0,0,1-.16.53m2.06-1.2h0l4.07,3.17a4.94,4.94,0,0,1,1.3,1.37,2.29,2.29,0,0,1,.15,1.47,4.46,4.46,0,0,1-.88,1.82,4.18,4.18,0,0,1-1.44,1.31,2.38,2.38,0,0,1-1.43.23,4.13,4.13,0,0,1-1.71-.89l-4.08-3.18,1.28-1.69,4.08,3.18a3.3,3.3,0,0,0,.84.52,1,1,0,0,0,.67,0,1.76,1.76,0,0,0,.65-.56,2.06,2.06,0,0,0,.4-.82,1,1,0,0,0-.11-.66,3.06,3.06,0,0,0-.73-.71l-4.07-3.18Zm-3.29,2.83a.71.71,0,0,1-.48.29.75.75,0,0,1-.51-.15.77.77,0,0,1-.27-.46.7.7,0,0,1,.15-.55.75.75,0,0,1,.46-.29.6.6,0,0,1,.54.14.66.66,0,0,1,.28.48A.83.83,0,0,1,116.28,112.07Z"/>
        <path class="cls-2" d="M123.52,105.41h0l4.62,2.39.36-.72a1.79,1.79,0,0,0,0-1.78,3.2,3.2,0,0,0-1.42-1.32,3.24,3.24,0,0,0-1.37-.38,1.76,1.76,0,0,0-1.82,1.07Zm-2.21,1,1.14-2.28a4.84,4.84,0,0,1,1.43-1.87,3.77,3.77,0,0,1,1.81-.6,4.12,4.12,0,0,1,2.35.53,4.33,4.33,0,0,1,2.16,2.31,3.74,3.74,0,0,1-.25,3.16l-1.29,2.56Z"/>
        <path class="cls-2" d="M127.33,91.13h0l4.92,1.49a4.55,4.55,0,0,1,1.7.81,2.3,2.3,0,0,1,.66,1.31,4.47,4.47,0,0,1-.19,2,4.28,4.28,0,0,1-.87,1.74,2.35,2.35,0,0,1-1.26.74,4.14,4.14,0,0,1-1.91-.2l-4.93-1.5.6-2L131,97a3.09,3.09,0,0,0,1,.18,1,1,0,0,0,.6-.29,1.78,1.78,0,0,0,.41-.76,1.85,1.85,0,0,0,.08-.91.91.91,0,0,0-.33-.58,3.26,3.26,0,0,0-.93-.4l-4.92-1.48ZM125.83,93h0a.7.7,0,0,1-.35.45.72.72,0,0,1-.52,0,.7.7,0,0,1-.41-.35.68.68,0,0,1-.06-.56.8.8,0,0,1,.32-.44.68.68,0,0,1,.56-.06.67.67,0,0,1,.43.35A.77.77,0,0,1,125.83,93Zm-.57,2a.66.66,0,0,1-.35.44.71.71,0,0,1-.94-.28.73.73,0,0,1-.06-.56.76.76,0,0,1,.32-.44.6.6,0,0,1,.57-.07.62.62,0,0,1,.42.35A.83.83,0,0,1,125.26,95Z"/>
        <path class="cls-2" d="M129.63,86.07h0l2.09.23.13-1.2a3,3,0,0,0,0-.86.87.87,0,0,0-.31-.51,1,1,0,0,0-.62-.28,1,1,0,0,0-.64.14.86.86,0,0,0-.37.42,3.87,3.87,0,0,0-.16.9Zm3.49.38,3.25.34-.2,2L128,87.88l.38-3.66a4.7,4.7,0,0,1,.41-1.61,2,2,0,0,1,.95-.92,2.55,2.55,0,0,1,1.42-.26,2.23,2.23,0,0,1,2,1.68L136.88,82l-.23,2.15-3.38.92Z"/>
        <polygon class="cls-2" points="135.13 75.43 134.93 72.11 136.57 72.01 136.88 77.32 128.64 77.82 128.53 75.84 135.13 75.43"/>
        <path class="cls-2" d="M126.49,63.27h0l5-1.18a4.6,4.6,0,0,1,1.87-.14,2.25,2.25,0,0,1,1.21.81,5.32,5.32,0,0,1,.9,3.81,2.4,2.4,0,0,1-.74,1.26,3.75,3.75,0,0,1-1.76.78l-5,1.17-.47-2.07,5-1.18a2.93,2.93,0,0,0,.93-.33.93.93,0,0,0,.38-.55,1.78,1.78,0,0,0,0-.86,1.94,1.94,0,0,0-.38-.83.93.93,0,0,0-.57-.35,3.36,3.36,0,0,0-1,.13l-5,1.17Zm.06,4.37h0a.67.67,0,0,1-.09.56.65.65,0,0,1-.42.31.71.71,0,0,1-.53-.09.65.65,0,0,1-.32-.46.72.72,0,0,1,.06-.54.72.72,0,0,1,1-.25A.75.75,0,0,1,126.55,67.64Zm-.45-2a.68.68,0,0,1-.09.56.71.71,0,0,1-1.28-.25.8.8,0,0,1,.07-.55.65.65,0,0,1,.45-.33.62.62,0,0,1,.55.1A.81.81,0,0,1,126.1,65.65Z"/>
        <path class="cls-2" d="M126.42,52.58h0l4-1.78.35.82a6.44,6.44,0,0,0-.76.64,2.79,2.79,0,0,1,1.88,1.66,3.08,3.08,0,0,1-.06,2.81,4.78,4.78,0,0,1-2.38,2.05,4.87,4.87,0,0,1-3.29.38,3.18,3.18,0,0,1-2.14-1.94,3.27,3.27,0,0,1-.17-2.38,3.36,3.36,0,0,1,1.48-1.8l1,1.61c-.85.55-1.13,1.19-.81,1.93a1.29,1.29,0,0,0,1.13.82,4.15,4.15,0,0,0,2-.44,3.63,3.63,0,0,0,1.6-1.19,1.48,1.48,0,0,0-.55-2.15,1.29,1.29,0,0,0-1.16.05l.62,1.45-1.42.62Zm-3.79,7.27-.38-.88a.88.88,0,0,0,.34-1.23c-.24-.55-.61-.76-1.12-.59l-.38-.89a1.83,1.83,0,0,1,2.37,1.12,2,2,0,0,1,.13,1.38A1.86,1.86,0,0,1,122.63,59.85Z"/>
        <path class="cls-2" d="M119.29,49.81h0a.72.72,0,0,1,.11.56.71.71,0,0,1-.29.44.72.72,0,0,1-.52.11.7.7,0,0,1-.47-.32.81.81,0,0,1-.13-.53.65.65,0,0,1,.31-.48.63.63,0,0,1,.54-.11.81.81,0,0,1,.45.33m-1.6-4.06h0L122,42.84a4.57,4.57,0,0,1,1.69-.81,2.13,2.13,0,0,1,1.42.32,5.35,5.35,0,0,1,2.18,3.22A2.41,2.41,0,0,1,127,47a4.13,4.13,0,0,1-1.38,1.36l-4.26,2.91-1.18-1.77,4.27-2.91a2.7,2.7,0,0,0,.75-.65.89.89,0,0,0,.17-.65,1.71,1.71,0,0,0-.31-.8,1.91,1.91,0,0,0-.65-.65.9.9,0,0,0-.65-.11,3.18,3.18,0,0,0-.89.48l-4.27,2.9Zm.47,2.36a.72.72,0,0,1-.18,1,.68.68,0,0,1-.52.11.69.69,0,0,1-.47-.31.79.79,0,0,1-.12-.54.63.63,0,0,1,.3-.47.67.67,0,0,1,.54-.11A.75.75,0,0,1,118.16,48.11Z"/>
        <path class="cls-6" d="M85.21,121.05l.8-.24.79-.26a4.75,4.75,0,0,0,2.81-2.49,4.2,4.2,0,0,0,0-3.47L89,113.24l-.65.3-.66.29a5,5,0,0,0-2.45,2.34,4.84,4.84,0,0,0-.4,3.44Z"/>
        <path class="cls-6" d="M91.74,123.24a6.82,6.82,0,0,0-4,.16l-.84.28c-.43.12-.86.26-.86.26l.4,1.44a3.79,3.79,0,0,0,2.49,2.54,6.18,6.18,0,0,0,4.4-.27l.92-.42.91-.42-.61-1.35a4.23,4.23,0,0,0-2.78-2.22"/>
        <path class="cls-6" d="M94.12,110.21l-.59.42-.6.39a5,5,0,0,0-2.06,2.72,4.85,4.85,0,0,0,.16,3.47l.62,1.35.75-.37.74-.39a4.77,4.77,0,0,0,2.37-2.93,4.19,4.19,0,0,0-.56-3.42Z"/>
        <path class="cls-6" d="M98.44,119.63a6.82,6.82,0,0,0-4,.82l-.8.42-.79.4.63,1.35a3.7,3.7,0,0,0,2.86,2.09,6.17,6.17,0,0,0,4.28-1l.84-.56.84-.57-.82-1.24a4.17,4.17,0,0,0-3.09-1.71"/>
        <path class="cls-6" d="M98.74,106.37l-.53.5-.53.5a5.1,5.1,0,0,0-1.6,3,4.8,4.8,0,0,0,.7,3.39l.83,1.23.68-.48L99,114a4.82,4.82,0,0,0,1.87-3.28,4.11,4.11,0,0,0-1.09-3.29Z"/>
        <path class="cls-6" d="M104.47,114.94a6.88,6.88,0,0,0-3.77,1.48L100,117l-.72.53.83,1.23a3.67,3.67,0,0,0,3.15,1.59,6.17,6.17,0,0,0,4.07-1.7l.75-.69.72-.71-1-1.08a4.08,4.08,0,0,0-3.31-1.18"/>
        <path class="cls-6" d="M102.93,110.53s.29-.3.6-.6l.57-.61a4.88,4.88,0,0,0,1.34-3.55,4.1,4.1,0,0,0-1.59-3.07l-1.16-.89-.44.58-.45.57a5.1,5.1,0,0,0-1.1,3.26,4.72,4.72,0,0,0,1.22,3.23Z"/>
        <path class="cls-6" d="M109.7,109.32a6.88,6.88,0,0,0-3.49,2.07l-.62.66-.64.63,1,1.09a3.67,3.67,0,0,0,3.36,1,6.34,6.34,0,0,0,3.75-2.35l.62-.8.61-.83-1.16-.9a4.06,4.06,0,0,0-3.45-.6"/>
        <path class="cls-6" d="M106.31,104.33l1.17.89.49-.7c.24-.34.47-.69.47-.69a4.91,4.91,0,0,0,.77-3.73,4,4,0,0,0-2.06-2.75l-1.29-.7s-.17.32-.34.66l-.35.63a5.12,5.12,0,0,0-.57,3.39,4.73,4.73,0,0,0,1.71,3"/>
        <path class="cls-6" d="M114,102.89a7,7,0,0,0-3.11,2.64s-.26.36-.51.75l-.53.73,1.17.89a3.6,3.6,0,0,0,3.48.47,6.34,6.34,0,0,0,3.33-3l.49-.9.48-.9-1.29-.7a4.07,4.07,0,0,0-3.51,0"/>
        <path class="cls-6" d="M111.13,99.22s.18-.38.37-.76.37-.77.37-.77a4.92,4.92,0,0,0,.15-3.81,4,4,0,0,0-2.46-2.37L108.17,91s-.11.35-.23.7l-.24.69a5.14,5.14,0,0,0,0,3.44,4.67,4.67,0,0,0,2.17,2.66Z"/>
        <path class="cls-6" d="M117.16,95.83A7.35,7.35,0,0,0,114.5,99l-.38.83-.41.81,1.3.7a3.61,3.61,0,0,0,3.51-.13,6.43,6.43,0,0,0,2.82-3.46l.34-1,.33-1-1.38-.46a4.08,4.08,0,0,0-3.47.55"/>
        <path class="cls-6" d="M113.78,92.69s.12-.4.26-.81.23-.83.23-.83a4.92,4.92,0,0,0-.45-3.77A4,4,0,0,0,111,85.35l-1.44-.23-.12.72c-.06.37-.14.73-.14.73a5.22,5.22,0,0,0,.53,3.4,4.61,4.61,0,0,0,2.56,2.26Z"/>
        <path class="cls-6" d="M119.19,88.35a7.12,7.12,0,0,0-2.12,3.51s-.13.44-.25.88-.27.88-.27.88l1.39.46a3.61,3.61,0,0,0,3.44-.71,6.47,6.47,0,0,0,2.23-3.9s.09-.51.19-1l.16-1-1.44-.23a4.05,4.05,0,0,0-3.33,1.14"/>
        <path class="cls-6" d="M115.47,85c.06-.43.11-.85.11-.85a4.88,4.88,0,0,0-1-3.65A3.85,3.85,0,0,0,111.46,79H110s0,.37,0,.73l0,.75A5.16,5.16,0,0,0,111,83.78a4.58,4.58,0,0,0,2.88,1.81l1.44.21s.06-.42.11-.84"/>
        <path class="cls-6" d="M123.12,78.93A4.15,4.15,0,0,0,120,80.61a7.25,7.25,0,0,0-1.54,3.83s-.06.45-.11.9-.11.91-.11.91l1.44.22A3.65,3.65,0,0,0,123,85.2,6.55,6.55,0,0,0,124.55,81l0-1c0-.51,0-1,0-1Z"/>
        <path class="cls-6" d="M115.81,77.89c0-.43,0-.86,0-.86a4.85,4.85,0,0,0-1.6-3.43,3.87,3.87,0,0,0-3.26-.92l-1.43.26s.06.37.11.73.1.73.1.73a5.14,5.14,0,0,0,1.54,3.06,4.47,4.47,0,0,0,3.13,1.3h1.46l0-.86"/>
        <path class="cls-6" d="M119.6,72.85a7.35,7.35,0,0,0-.91,4s0,.46,0,.91,0,.92,0,.92l1.46,0a3.71,3.71,0,0,0,3-1.8,6.55,6.55,0,0,0,.9-4.42s-.06-.52-.13-1l-.16-1-1.44.25a4.22,4.22,0,0,0-2.81,2.17"/>
        <path class="cls-6" d="M114.87,70a4.81,4.81,0,0,0-2.11-3.12,3.89,3.89,0,0,0-3.36-.35L108,67s.12.35.23.69.21.7.21.7a5.06,5.06,0,0,0,2,2.76,4.4,4.4,0,0,0,3.29.76l1.43-.25s-.06-.43-.15-.84-.17-.85-.17-.85"/>
        <path class="cls-6" d="M118,65.24a7.35,7.35,0,0,0-.27,4.14l.18.89c.09.45.16.91.16.91l1.44-.26a3.73,3.73,0,0,0,2.71-2.3,6.6,6.6,0,0,0,.2-4.51l-.3-1-.32-1-1.37.49a4.24,4.24,0,0,0-2.43,2.6"/>
        <path class="cls-6" d="M112.86,63.25a4.75,4.75,0,0,0-2.57-2.73,3.9,3.9,0,0,0-3.38.22l-1.27.72s.17.32.33.65l.32.66a4.89,4.89,0,0,0,2.42,2.37,4.39,4.39,0,0,0,3.36.21l1.38-.5-.28-.8c-.15-.4-.31-.8-.31-.8"/>
        <path class="cls-6" d="M115.58,62.15s.15.42.32.85l.3.85,1.37-.49a3.8,3.8,0,0,0,2.32-2.71,6.62,6.62,0,0,0-.53-4.49s-.22-.47-.45-.93l-.47-.9-1.28.71a4.24,4.24,0,0,0-2,3,7.28,7.28,0,0,0,.39,4.13"/>
        <path class="cls-6" d="M109.81,56.91a4.65,4.65,0,0,0-3-2.26,3.9,3.9,0,0,0-3.29.78l-1.15.92.44.59.42.59A4.94,4.94,0,0,0,106,59.48a4.46,4.46,0,0,0,3.36-.37l1.28-.72-.42-.74-.42-.74"/>
        <path class="cls-6" d="M112.31,55.37l.45.78.44.8,1.28-.72a3.82,3.82,0,0,0,1.84-3.07,6.5,6.5,0,0,0-1.22-4.33l-.59-.84-.6-.82-1.16.92a4.35,4.35,0,0,0-1.48,3.27,7.35,7.35,0,0,0,1,4"/>
        <path class="cls-6" d="M103.14,47.33a6.23,6.23,0,0,0,4.64,5.52l.77.19.76.21s0-.41.07-.82.06-.83.06-.83a5.55,5.55,0,0,0-1.34-3.86,5.28,5.28,0,0,0-3.52-1.93l-.8-.06-.81,0s0,.41.09.81.08.82.08.82"/>
        <path class="cls-6" d="M93.73,118.32a43.14,43.14,0,0,0,9.84-7.39,44.48,44.48,0,0,0,12-22.38,45.61,45.61,0,0,0-1.48-24,44.75,44.75,0,0,0-4.53-9.42c-.16-.26-.33-.51-.5-.77h0a1.22,1.22,0,0,0,1.2-.78c.17.24.33.48.48.74a46.25,46.25,0,0,1,4.68,9.73,46.73,46.73,0,0,1,2.4,11.87A47.33,47.33,0,0,1,117,88.87,46.1,46.1,0,0,1,104.59,112a44.15,44.15,0,0,1-10.18,7.63,29.59,29.59,0,0,1-6.55,2.9c-1.6.43-.37.07-1.6.38l-2.38-.77a43.12,43.12,0,0,0,9.85-3.83"/>
        <path class="cls-6" d="M64.79,121.05l-.79-.24-.8-.26a4.7,4.7,0,0,1-2.8-2.49,4.16,4.16,0,0,1,0-3.47l.62-1.35s.33.14.65.3l.66.29a4.94,4.94,0,0,1,2.45,2.34,4.79,4.79,0,0,1,.4,3.44Z"/>
        <path class="cls-6" d="M58.27,123.24a6.79,6.79,0,0,1,4,.16l.85.28.85.26-.4,1.44a3.77,3.77,0,0,1-2.49,2.54,6.15,6.15,0,0,1-4.39-.27l-.93-.42-.91-.42.62-1.35a4.18,4.18,0,0,1,2.78-2.22"/>
        <path class="cls-6" d="M55.88,110.21l.6.42.6.39a5,5,0,0,1,2.05,2.72,4.8,4.8,0,0,1-.16,3.47l-.62,1.35-.74-.37-.75-.39a4.8,4.8,0,0,1-2.37-2.93,4.22,4.22,0,0,1,.56-3.42Z"/>
        <path class="cls-6" d="M51.56,119.63a6.8,6.8,0,0,1,3.95.82l.8.42.8.4-.63,1.35a3.71,3.71,0,0,1-2.87,2.09,6.18,6.18,0,0,1-4.28-1s-.42-.27-.84-.56l-.84-.57.82-1.24a4.19,4.19,0,0,1,3.09-1.71"/>
        <path class="cls-6" d="M51.27,106.37l.52.5.54.5a5.15,5.15,0,0,1,1.6,3,4.81,4.81,0,0,1-.71,3.39L52.4,115l-.69-.48c-.32-.26-.67-.51-.67-.51a4.86,4.86,0,0,1-1.87-3.28,4.15,4.15,0,0,1,1.09-3.29Z"/>
        <path class="cls-6" d="M45.53,114.94a6.88,6.88,0,0,1,3.77,1.48L50,117l.73.53-.83,1.23a3.68,3.68,0,0,1-3.15,1.59,6.21,6.21,0,0,1-4.08-1.7l-.74-.69-.73-.71,1-1.08a4.09,4.09,0,0,1,3.31-1.18"/>
        <path class="cls-6" d="M47.07,110.53l-.59-.6-.58-.61a4.88,4.88,0,0,1-1.34-3.55,4.13,4.13,0,0,1,1.59-3.07l1.17-.89s.21.29.44.58l.45.57a5.22,5.22,0,0,1,1.1,3.26,4.77,4.77,0,0,1-1.22,3.23Z"/>
        <path class="cls-6" d="M40.31,109.32a6.93,6.93,0,0,1,3.49,2.07s.3.33.62.66.63.63.63.63l-1,1.09a3.66,3.66,0,0,1-3.35,1,6.28,6.28,0,0,1-3.75-2.35l-.63-.8c-.3-.42-.61-.83-.61-.83l1.16-.9a4.08,4.08,0,0,1,3.46-.6"/>
        <path class="cls-6" d="M43.69,104.33l-1.17.89-.49-.7c-.24-.34-.47-.69-.47-.69a4.86,4.86,0,0,1-.76-3.73,4,4,0,0,1,2.05-2.75l1.29-.7s.17.32.34.66.35.63.35.63a5.19,5.19,0,0,1,.58,3.39,4.74,4.74,0,0,1-1.72,3"/>
        <path class="cls-6" d="M36,102.89a7,7,0,0,1,3.11,2.64s.26.36.52.75l.52.73L39,107.9a3.6,3.6,0,0,1-3.48.47,6.28,6.28,0,0,1-3.32-3s-.26-.45-.5-.9l-.48-.9,1.29-.7a4.07,4.07,0,0,1,3.51,0"/>
        <path class="cls-6" d="M38.87,99.22s-.18-.38-.37-.76-.37-.77-.37-.77A5,5,0,0,1,38,93.88a4,4,0,0,1,2.46-2.37L41.83,91s.11.35.23.7l.24.69a5.14,5.14,0,0,1,0,3.44,4.67,4.67,0,0,1-2.17,2.66Z"/>
        <path class="cls-6" d="M32.85,95.83A7.26,7.26,0,0,1,35.5,99l.38.83c.21.4.41.81.41.81l-1.3.7a3.59,3.59,0,0,1-3.5-.13,6.34,6.34,0,0,1-2.82-3.46l-.35-1-.32-1,1.38-.46a4.09,4.09,0,0,1,3.47.55"/>
        <path class="cls-6" d="M36.22,92.69s-.12-.4-.25-.81-.24-.83-.24-.83a4.92,4.92,0,0,1,.45-3.77A4,4,0,0,1,39,85.35l1.44-.23s.05.36.11.72.14.73.14.73a5.16,5.16,0,0,1-.52,3.4,4.63,4.63,0,0,1-2.57,2.26Z"/>
        <path class="cls-6" d="M30.81,88.35a7,7,0,0,1,2.12,3.51s.13.44.25.88.27.88.27.88l-1.38.46a3.63,3.63,0,0,1-3.45-.71,6.52,6.52,0,0,1-2.23-3.9l-.18-1c-.08-.52-.17-1-.17-1l1.44-.23a4.05,4.05,0,0,1,3.33,1.14"/>
        <path class="cls-6" d="M34.53,85c-.05-.43-.11-.85-.11-.85a4.93,4.93,0,0,1,1-3.65A3.81,3.81,0,0,1,38.54,79H40s0,.37,0,.73,0,.75,0,.75a5.16,5.16,0,0,1-1,3.27,4.63,4.63,0,0,1-2.89,1.81l-1.44.21s-.06-.42-.11-.84"/>
        <path class="cls-6" d="M26.89,78.93A4.13,4.13,0,0,1,30,80.61a7.25,7.25,0,0,1,1.54,3.83s.06.45.11.9l.12.91-1.44.22A3.63,3.63,0,0,1,27,85.2,6.55,6.55,0,0,1,25.46,81s0-.52,0-1v-1Z"/>
        <path class="cls-6" d="M34.19,77.89l0-.86a4.8,4.8,0,0,1,1.59-3.43,3.87,3.87,0,0,1,3.26-.92l1.44.26-.12.73c-.06.36-.1.73-.1.73a5.14,5.14,0,0,1-1.54,3.06,4.43,4.43,0,0,1-3.13,1.3H34.17l0-.86"/>
        <path class="cls-6" d="M30.4,72.85a7.35,7.35,0,0,1,.91,4s0,.46,0,.91l0,.92-1.46,0a3.66,3.66,0,0,1-3-1.8,6.55,6.55,0,0,1-.91-4.42s.06-.52.14-1,.16-1,.16-1l1.43.25a4.22,4.22,0,0,1,2.81,2.17"/>
        <path class="cls-6" d="M35.13,70a4.82,4.82,0,0,1,2.12-3.12,3.87,3.87,0,0,1,3.35-.35L42,67s-.12.35-.23.69-.21.7-.21.7a5,5,0,0,1-2,2.76,4.43,4.43,0,0,1-3.3.76l-1.43-.25s.06-.43.15-.84.17-.85.17-.85"/>
        <path class="cls-6" d="M32,65.24a7.36,7.36,0,0,1,.26,4.14s-.09.45-.17.89-.16.91-.16.91l-1.45-.26a3.77,3.77,0,0,1-2.71-2.3,6.55,6.55,0,0,1-.19-4.51s.15-.49.29-1l.32-1,1.38.49A4.27,4.27,0,0,1,32,65.24"/>
        <path class="cls-6" d="M37.13,63.25a4.78,4.78,0,0,1,2.59-2.73,3.88,3.88,0,0,1,3.37.22l1.28.72-.34.65-.32.66a5,5,0,0,1-2.41,2.37,4.41,4.41,0,0,1-3.37.21l-1.37-.5s.14-.4.27-.8.3-.8.3-.8"/>
        <path class="cls-6" d="M34.43,62.15l-.32.85-.3.85-1.38-.49a3.8,3.8,0,0,1-2.32-2.71,6.62,6.62,0,0,1,.53-4.49s.22-.47.45-.93l.47-.9,1.29.71a4.3,4.3,0,0,1,2,3,7.37,7.37,0,0,1-.39,4.13"/>
        <path class="cls-6" d="M40.19,56.91a4.67,4.67,0,0,1,3-2.26,3.89,3.89,0,0,1,3.29.78l1.15.92s-.21.3-.43.59l-.42.59A4.93,4.93,0,0,1,44,59.48a4.43,4.43,0,0,1-3.35-.37l-1.28-.72.41-.74.42-.74"/>
        <path class="cls-6" d="M37.69,55.37l-.45.78-.43.8-1.28-.72a3.83,3.83,0,0,1-1.85-3.07,6.56,6.56,0,0,1,1.22-4.33l.59-.84c.31-.41.6-.82.6-.82l1.16.92a4.35,4.35,0,0,1,1.49,3.27,7.45,7.45,0,0,1-1.05,4"/>
        <path class="cls-6" d="M46.87,47.33a6.24,6.24,0,0,1-4.64,5.52l-.77.19-.77.21s0-.41-.07-.82-.06-.83-.06-.83a5.51,5.51,0,0,1,1.35-3.86,5.28,5.28,0,0,1,3.52-1.93l.8-.06.8,0s0,.41-.09.81-.07.82-.07.82"/>
        <path class="cls-6" d="M56.27,118.32a43.14,43.14,0,0,1-9.84-7.39,44.48,44.48,0,0,1-12-22.38,45.69,45.69,0,0,1-.83-12.5,44.55,44.55,0,0,1,2.32-11.48,45.23,45.23,0,0,1,4.52-9.42c.16-.26.33-.51.5-.77h0a1.23,1.23,0,0,1-1.2-.78c-.17.24-.32.48-.48.74a46.25,46.25,0,0,0-4.68,9.73,46.73,46.73,0,0,0-2.4,11.87A47.33,47.33,0,0,0,33,88.87,46.31,46.31,0,0,0,45.41,112a44.15,44.15,0,0,0,10.18,7.63,29.59,29.59,0,0,0,6.55,2.9c1.6.43.38.07,1.6.38l2.39-.77a43.19,43.19,0,0,1-9.86-3.83"/>
        <path class="cls-4" d="M74.79,66.38h0a4.88,4.88,0,0,1,4.61,3.38,11.62,11.62,0,1,1-9.23,0,4.85,4.85,0,0,1,4.62-3.38m3.95,4a10.8,10.8,0,1,1-7.91,0,4.05,4.05,0,0,1,7.91,0Z"/>
        <path class="cls-7" d="M78.76,70.38a10.8,10.8,0,1,1-7.9,0,4,4,0,0,1,7.9,0"/>
        <path class="cls-4" d="M78.13,52.94h0L76.57,66.75a2.64,2.64,0,0,0-.56-.19l1-12.72Zm2.06,3.71h0L77.74,67.42l-.37-.29L79.4,57Zm1.89,2.52h0L78.9,68.7c-.09-.14-.19-.29-.27-.43l2.51-8.83Zm2.31,1.3h0l-4.62,9.47a3.7,3.7,0,0,1-.35-.17s0-.09-.08-.15L83,60.93Zm3-.43h0L80.8,70.51l-.29-.17,4.94-9.46ZM81.92,71.3h0l9.74-12.76-3.39,1.93L81.55,71Zm1.29,1.18h0L97.68,57.65l-5.57,2.56L82.7,72C82.86,72.13,83.06,72.3,83.21,72.48Zm.94,1.15h0l12.64-9.91-1.38-.38-11.49,10A3.4,3.4,0,0,1,84.15,73.63Zm.52.79h0l10.74-6.6-.62-.63-10.27,7C84.56,74.24,84.63,74.33,84.67,74.42Zm.59,1h0L95,70.88l-.73-.71-9.21,4.92C85.13,75.21,85.2,75.33,85.26,75.47Zm.55,1.4h0L96,73.28l-1.64-.49-8.77,3.42A5.66,5.66,0,0,1,85.81,76.87ZM98.5,75h0L86.13,78c0-.2-.1-.35-.14-.54l10.34-3.23ZM86.3,79.11h0l16.27-2.18-3.95-1-12.41,2.5A4.84,4.84,0,0,1,86.3,79.11Zm.1,1.69h21.36l-6.49-2.16L86.38,79.9c0,.21,0,.42,0,.62Zm-.17,1.71h0l16.29,1.87-.72-1.32L86.31,81.83C86.29,82.06,86.27,82.28,86.23,82.51Zm-.2.91h0L98.67,86.2l-.24-1L86.16,82.91C86.13,83.07,86.07,83.25,86,83.42Zm-.43,1.3h0l10.65,3.22-.1-.93L85.8,84.24C85.74,84.4,85.67,84.56,85.6,84.72Zm-.45,1.06h0L95,90.45l-.76-1.81-8.87-3.42C85.31,85.39,85.24,85.59,85.15,85.78Zm-.55,1h0l11.32,7-1.46-2.57-9.51-5A6,6,0,0,1,84.6,86.75Zm-.55.8h0L97,97.91l-2.3-3.81L84.33,87.15A3.6,3.6,0,0,1,84.05,87.55Zm-1,1.2h0L98.13,104l-2.82-5.82L83.6,88.1C83.41,88.34,83.22,88.54,83,88.75ZM82,89.7h0l10,13.73.39-2-10-12.11A1.74,1.74,0,0,1,82,89.7Zm-1.1.79h0l6.93,11.38.39-1.08-6.9-10.56C81.14,90.33,81,90.4,80.85,90.49Zm-1,.56h0l4.92,10.36.55-.81-5.1-9.72C80.05,91,79.92,91,79.81,91.05Zm-1.18.51h0l3.74,10.92.5-2.06-3.79-9C78.91,91.45,78.79,91.52,78.63,91.56Zm-1.22.35h0l3,13.17.71-3L77.9,91.79A3.48,3.48,0,0,1,77.41,91.91Zm-1.08.21h0L78.79,109l.67-4.54L76.87,92.05C76.71,92.05,76.52,92.1,76.33,92.12Zm-1.47.1h0V114l2.3-6.41-1.5-15.36Zm-3.43,16.89h0l1.81-17a2.61,2.61,0,0,0,.48.05L72.55,108Zm.9-17.17h0l-3,13,.71-.27,2.71-12.66Zm-1-.28h0L68,102.17l.6.64,3.1-11C71.53,91.75,71.4,91.7,71.28,91.66Zm-1.15-.45h0l-4.73,10.2,1.62-.73,3.47-9.31A3,3,0,0,1,70.13,91.21Zm-7.71,10.88h0l6.87-11.28c.15.07.29.16.45.22l-5.22,9.85Zm-4.49,1.17h0L68,90a6,6,0,0,0,.67.45l-7.36,11.09Zm-6.24,1.16h0l15-15.56a3,3,0,0,0,.42.38l-9.34,12.43Zm1.17-6.21h0L65.8,87.87c.11.15.24.29.35.42L54.54,98.35Zm1.47-4.28h0l10.82-7c.08.11.15.24.25.36L55,94.54Zm.31-3.22h0l10-4.66.28.51-9.5,5Zm-1.12-2.62h0L63.94,84.6a7.83,7.83,0,0,0,.34.79L55.46,89Zm-2.24-1.81h0l12.31-2.86c0,.18.1.42.16.63l-10.17,3Zm-4.05-2.17h0l16.1-2c0,.28.08.53.14.78L51.28,85.19Zm-5-3.76h21a.3.3,0,0,0,0,.17c0,.32.05.63.07,1l-15.53,1.1Zm5.62-3.75h0L63.33,79a3.73,3.73,0,0,0-.07.68l-14.95-1.7Zm3.39-1.82h0l12.31,2.88c0,.22-.09.44-.15.68L51,75.59ZM53.49,73h0L63.9,76.6a2.76,2.76,0,0,0-.15.43l-10-3.12Zm1.11-2.36h0l9.76,4.88a3.31,3.31,0,0,0-.28.61L55.3,72.31Zm-.57-3h0l10.85,6.84c-.09.19-.21.38-.3.57L55.3,69.87Zm-1.25-4.11h0l12.78,10c-.12.15-.23.29-.33.44L54.69,67Zm-1.23-6h0L66.4,72.46c-.17.19-.36.4-.5.59L54.33,62.87Zm6.24.77h0l9.9,13c-.1.07-.22.18-.34.28l-9.73-11Zm4.39,1.22h0L68.65,70.6c-.14.08-.25.17-.37.24L61.73,60.47Zm3.09.62h0l4.36,9.9c-.19.09-.35.18-.52.28l-4.44-9.61Zm2.4-1h0l3,9.67a4,4,0,0,0-.27.55l-3-8.44Zm1.88-2.45h0L71.7,67.54a2.88,2.88,0,0,0-.44.41l-2.55-8.69ZM71.38,53h0L73,66.74a4.66,4.66,0,0,0-.71.35l-2-10.39Zm3.33-4.52V66.39a3.81,3.81,0,0,0-.95.12l-1-12.72Z"/>
        <path class="cls-2" d="M94.92,71h0v0ZM96.21,87.9h0v0l.08-.11Zm-26.89,17h-.07l.11.07Zm-18-30h0l0-.08,0,.11ZM95.54,63.52h0l-.13,0h0l.08-.24-.14.07,2.14-5.43L92.2,60.31l-.09.13-.23-.1v-.09l-.34-1.49-3.17,1.83-.27,0,0,0-.73-.48L85.56,61l-.32.06v0l-.92-.36L83.05,61l-.25,0v0L82,59.34l-1,.2v-.1l-.85-2.61-.59.18-.27,0v-.07l-1.18-3.72-1,.73V54h-.25l0-.07-2.1-5.08L73,53.63l0,.14,0,.07-.17-.05,0,.05-1.3-.62-1,3.5,0,.14-.16,0-.7,0-.79,2.35v0h0l-.19.12h0l-.91-.06-.3,1.56,0,0-.22.15v0l-1.94-.76-.55.49-.15-.18v.15h0l-2.38-1-.25.54-.09.12v.09l-.18-.09,0,.07-3.81-2-.13,1.85,0,.09v.06l-.24,0,.07.09-5.73-2.76,2.59,4.94,0,0-.14.22,0,0L53,63.64l1.77,3.18.06.07L54.6,67l.1.08.09,0-.56.61,1.19,2.11.09.06-.08.24h-.09l-.58.57.66,1.58,0,0-.06.27h-.06L53.67,73l.23.76,0,0,0,0,0,0,0,0v.23l-.07,0-2.45.75-.25.79-.07-.13,0,.23L48,76.66l.43,1.23-.1-.08,0,.27-5.77,2.29,5.14,2.1v0l.06.25,0-.06L47.48,84l3.81,1h0l.15,0V86.2l2.1.71h0l.2-.06,0,.22-.1.84h.07l0,.15,1.75.77h0l.16.19-.82,1.72.5.59.16.2-.19.15.19,0-1,2.29.41.38.12.11,0,0L55,94.6l.14,0L53.16,98.1l1.21.11h.19l0,.22h.05l-.05.06v0L52,104.14l5.77-2.59.07.21h.05v0l.21,1.29,3.18-1.64.05-.12.23.14v0l1,.45,2-1.12h0l.25.07,0-.12.72.53h0l1.58-.7,0,.07.25,0,0,0,.91,1.45H68l.08.07v0l.62.62h-.08l.14,0,0,0,.73,2.07.57-.21-.08.11.26,0,1.37,4.15.81-.85.08-.07h0l.17.17,0-.12,0,.06,0,0,2.15,5.53,2.16-6h0l0,0,.23.09,0-.12,1.47,1.28.62-4.26h0l-.08-.29.27.13.84.47.64-2.68-.06-.23.23,0,1.14.3.43-1.81-.17-.46v0l.24-.06.19.42,1.74.89.39-.58.08-.09.2.13-.05-.18,2.38,1.16.24-.7,0-.08v-.1l.2,0,0,0,3.72,2.43.33-1.58v-.08l0-.07.21.05,0-.07,0,0,5.3,2.1-2.59-5.35-.1-.08.14-.24.08,0,1.42-.14-2.15-3.61v0l.07-.26h0l1-.35-1.37-2.34h0l0-.26-.07,0,.56-.7v.12l0,0-.66-1.54,0-.12,0-.06.2-.09-.07,0,1.84-.65-.07-.81-.17,0,.2-.17,0,0,0,0,2.37-.79-.21-.79.07.07v-.24h.06l3.89-.78-.61-1.13,0-.12.13-.08,6-2.18L101.9,83l5.41-2.17-6-2H101l.19-.25L102.31,77l-3.69-.88-.1,0-.11-.23,0,.09-.11-1-1.94-.62-.08,0-.15-.2v.08l-.27-.91-1.52-.45.07-.25-.1,0,0,0,.64-1.81-.66-.66.14-.15h-.13l1-2.26-.61-.62,0-.08,1.91-3.36Zm-8.11-3.43h0v0ZM74.6,48.41l.24,0L77,53.63l1-.79.28-.2,0,.3,1.2,3.83.63-.25.16,0,.06.19.86,2.61L82,59l.25-.06-.08.23L83,60.76l1.33-.42.31-.09-.11.19.85.32h0l1.89-.83.1-.08.07.06.75.47h0l3.38-1.95.16.18v-.05l.34,1.51,5.47-2.52.06,0,.2.16-2.21,5.61,1.21.33h0l.18,0,0,.07.09,0-.2.15v0L95,67.19l.53.55h.09l0,.06.08,0-.12.07v0l-1,2.24.63.62h0l.05,0v0l.09.09-.13.07-.59,1.72,1.51.43,0,.16v0l.25.84h0l2.19.72V75l.12.86,4,1h.18l-.18.23-1.11,1.53,6.31,2.11,0,.26h-.11l-5.62,2.25.59,1.13.06.12.12.07-.06,0,0,0-.13,0-.14,0-3.89.77.18.81.06.22-.2,0-.07,0-2.26.77.07.82.08.15-.06,0v0l-.09,0-1.86.68.7,1.6-.13.14-.45.59,1.48,2.56,0,0,.08.07-.23.07h0v0l-1,.32,2.2,3.66h0l.14.16L97,98l-1.46.14,2.78,5.73-.25.15-.18-.19-5.36-2.12-.36,1.71-.05.29-.18-.25-3.69-2.4-.27.81-.08.29-.17-.26,0,0-2.35-1.15-.46.72-.12.21-.12-.22,0,0L83,100.61l-.48,1.92-.19,0h-.08v0l-1-.25-.7,2.86h-.26v0l-.72-.38-.68,4.37v.25l-.21-.19-1.49-1.31L75,114l-.28,0v0l-2.21-5.68-1,1-.23-.1V109L70,104.88l-.62.23,0,0-.08.07,0,0-.1,0,0-.21-.7-2,0,0-.57-.56v0l-.1-.12v0L67,100.85l-1.45.66,0,0-.09.08-.1-.08-.72-.52-2.07,1.17-.14-.14,0,.11-1.08-.5L58,103.38l0,0-.14.11,0-.24-.19-1.31-5.86,2.63-.14-.24v0l2.66-5.81-1.4-.12-.08-.25.1-.09,1.93-3.47L54.27,94l-.14-.11.14-.11h0l.92-2.18-.69-.8-.09-.14.15-.07L55.33,89l-1.85-.82v0h-.13l0-.15.1-.85-2.24-.75v-.19l0,0v-1l-4-1.07,0-.19h0l.4-1.4-5.39-2.15.05-.28h0l5.86-2.36-.39-1.21-.23-.11.17-.06,0,0,.13,0,.05,0,3.07-1,.19-.72L51,74.69l.12-.06,0,0h.05l2.39-.77L53.36,73v0l-.1-.08.07,0,0-.14.21.07,1.65-.54-.68-1.61h0v-.07l.07-.09.63-.6-1.21-2.18.16-.17-.15,0,.57-.62-1.86-3.31.18-.16h-.07l1.41-.63-2.75-5.19.17-.11.06-.06,5.85,2.82.14-2,.25-.06,0,0,3.86,2,.36-.71.09-.23.14.22,0,0,2.32,1,.48-.48.16-.14.07.16,1.79.71.34-1.68h.2l0-.06.95.07.81-2.48.19,0,0,0,.65,0,1-3.67.22,0,0-.06,1.27.6,1.85-5.07v0Z"/>
        <path class="cls-4" d="M78.86,75h0a6.81,6.81,0,1,1-8.48,0,5.62,5.62,0,1,0,8.48,0m-4.32-.43.54-2,2,.05-1.68-1.12.68-1.91-1.56,1.25-1.62-1.25.7,1.91L72,72.65l2-.05Z"/>
        <path class="cls-6" d="M63.92,181.53V180a3.65,3.65,0,0,0,2.21-1.48h1.11v6h1.81v1.34H63.76V184.6h2v-4.16a14.15,14.15,0,0,1-1.82,1.09"/>
        <path class="cls-6" d="M72.46,181.53h0a.87.87,0,0,0,.65-.92.9.9,0,0,0-.27-.69,1.08,1.08,0,0,0-.79-.27.92.92,0,0,0-.65.22.8.8,0,0,0,0,1.12,3,3,0,0,0,1.06.54m-.78,1.36h0a1,1,0,0,0-.81,1,.86.86,0,0,0,.31.71,1.39,1.39,0,0,0,.89.26,1.52,1.52,0,0,0,.81-.2.65.65,0,0,0,.31-.59.81.81,0,0,0-.22-.56A4,4,0,0,0,71.68,182.89Zm1.78-.88a1.86,1.86,0,0,1,1.21,1.79,2.11,2.11,0,0,1-.69,1.61,2.84,2.84,0,0,1-2,.64,2.69,2.69,0,0,1-1.84-.58,1.92,1.92,0,0,1-.64-1.49,1.66,1.66,0,0,1,1.17-1.63,1.82,1.82,0,0,1-1-1.66,2.05,2.05,0,0,1,.63-1.51,2.38,2.38,0,0,1,1.76-.63,2.49,2.49,0,0,1,1.71.55,1.73,1.73,0,0,1,.63,1.37A1.6,1.6,0,0,1,73.46,182Z"/>
        <path class="cls-6" d="M76.41,183h1.78v-2.47c0-.09,0-.21,0-.34v-.3Zm3.23-4.44V183h.92v1.27h-.92v1.68H78.12v-1.68H75.26V183l2.63-4.44Z"/>
        <path class="cls-6" d="M85.7,180.16H82.85l-.11,1.61a1.76,1.76,0,0,1,1.39-.62,2,2,0,0,1,1.51.65,2.33,2.33,0,0,1,.62,1.67,2.65,2.65,0,0,1-.67,1.86A2.69,2.69,0,0,1,81.14,184l1.44-.24a1.06,1.06,0,0,0,1.09,1,1,1,0,0,0,.76-.33,1.22,1.22,0,0,0,0-1.58.91.91,0,0,0-.73-.34,1,1,0,0,0-.94.57l-1.24-.23.26-4.13h4.11Z"/>
        <path class="cls-6" d="M78,167.56c-.53.11-1,.52-.7,1.18a.71.71,0,0,1,.88-.31c0,.51.66,0,1,.14,0,.34.34.09.72.17.89.18,2.75.87,2.92.26.54.11.26.52,0,.9,1-.43.76-1,.42-1.37a2.27,2.27,0,0,0-.07-.7c.75-.26.88.28,1,.7.54-1.31-.06-1.61-1-1.71a9.28,9.28,0,0,0-.93,0c0-.14.28-.11.65-.25s.25-.35.76,0c-.14-.69-.34-.76-1.26-.57a1.32,1.32,0,0,0-1.15.88h-.56c-1,.38-.61-4.32-.88-6.5.38,0,.43-.27.51-.58.12.17.54-.13.58-.32l.74-.06.09.52.66-.16.11.77.82-.13.13,1.55h1l0,.3,1,0,.6,5.29,1,.08c.23,1.45.46,2.94.68,4.41.14.66,1,.83,1.57.93l-1.12-5.14,1.46.16-.9-3.84.28,0,.66-.06-1-5.58c1.12,0,1.09-.58,1.42-.92-2-.34-2.72-4.73-5.68-4.73-2.37,0-5.46,4.39-6.34,3.59a7.59,7.59,0,0,0-.4-.7c-.48,1-1.23,1.3-2.59,1.3a2.53,2.53,0,0,1-2.57-1.3c-.13.21-.26.45-.39.7-.88.8-4-3.59-6.35-3.59-3,0-3.66,4.39-5.68,4.73.33.34.3,1,1.42.92l-1,5.58.66.06.28,0L60.41,168l1.47-.16L60.75,173c.57-.1,1.44-.27,1.58-.93.22-1.48.45-3,.67-4.42l1-.08.59-5.29,1,0,0-.3h.94l.14-1.55.82.13.11-.77.67.16.08-.52.75.06c0,.19.45.49.58.32.07.31.14.62.51.58-.27,2.18.14,6.88-.88,6.5h-.57c-.08-.48-.92-1-1.16-.88-.92-.19-1.13-.12-1.26.57.5-.35.47-.18.74,0,.11.23.65.11.68.25-.34,0-.65,0-.94,0-.92.1-1.52.41-1,1.71.1-.41.23-.95,1-.69-.12.13-.17.33-.07.69-.34.35-.58,1,.41,1.38-.21-.39-.5-.79,0-.89.19.61,2-.09,2.94-.26.38-.1.68.17.72-.17.3-.09.94.19,1-.17a.72.72,0,0,1,.86.33c.33-.66-.17-1.08-.7-1.18,0-.39-.4-.39-.66-.46a.43.43,0,0,1-.2-.35,7.37,7.37,0,0,1,.91-1.55c.1-.1.4,0,.59.1,0-.1,0-.18.06-.26a1,1,0,0,1,.2,1.12,2.29,2.29,0,0,0,0,.64c.14.09.25.16.38.26a1.37,1.37,0,0,1,.13.48c.1,1-.47.38-1.3,2.08a3.86,3.86,0,0,0,5.74,0c-.83-1.7-1.4-1.12-1.3-2.08a1.37,1.37,0,0,1,.13-.48l.38-.26a2.29,2.29,0,0,0,0-.64,1,1,0,0,1,.2-1.12c0,.08,0,.16.06.26.2-.1.49-.19.6-.1a7.81,7.81,0,0,1,.9,1.55.41.41,0,0,1-.2.35c-.26.07-.67.07-.66.47"/>
        <path class="cls-6" d="M75,156.63a3.24,3.24,0,0,1-1.38-.27,3.78,3.78,0,0,1-1.25-1l-.08-.09v-.11a4,4,0,0,1,.19-.88c.13-.43.29-.75.08-1.17l-.32,0a1.84,1.84,0,0,1-.81-.13,1.57,1.57,0,0,1-.76-.8,3.29,3.29,0,0,0-.56-.29.49.49,0,0,0-.74.32l-.17.45-.3-.35c-.74-.84-.74-1.48-.37-2a3.13,3.13,0,0,1,1.5-.87,1.49,1.49,0,0,1,1.36-.83,3.33,3.33,0,0,1,1.7.87.12.12,0,0,0,0,0,1.45,1.45,0,0,1,.65-.45.81.81,0,0,1,.71.11.25.25,0,0,1,.1.08l.12.1,0,.15a5,5,0,0,1-.11.56l-.09.3a1.94,1.94,0,0,1,.57,1.09,3.76,3.76,0,0,1,.23-.6,1.53,1.53,0,0,1,.29-.4l.05,0a2.41,2.41,0,0,1-.31-.87v0l0-.19.17-.11.14-.08a1.1,1.1,0,0,1,.79-.06,1.2,1.2,0,0,1,.44.35,5.19,5.19,0,0,1,1-.7,1.54,1.54,0,0,1,1.08-.1,2.44,2.44,0,0,1,1.15.89,2.8,2.8,0,0,1,1.47.9c.34.48.33,1.12-.39,2l-.24.28-.2-.32c-.34-.54-.91-.28-1.33-.08a1.47,1.47,0,0,1-1.31.92h-.38l-.2,0-.08.17a1,1,0,0,0-.07.15,7.22,7.22,0,0,0,.2.74,3.94,3.94,0,0,1,.22,1l0,.13-.1.09a4.23,4.23,0,0,1-1.17.85l-.22.1a3.39,3.39,0,0,1-1.33.27"/>
        <path class="cls-6" d="M75,174.82a1.11,1.11,0,0,1-1-.47,1.06,1.06,0,0,1-1.45-.41,1.29,1.29,0,0,1-1.29-.64.51.51,0,0,1-.12.13.8.8,0,0,1-.72-.85,1.34,1.34,0,0,1-.72-.74c.73-.62,1.47-1.24,2.17-1.86a4.17,4.17,0,0,0,6.32,0c.7.62,1.44,1.24,2.19,1.86a1.39,1.39,0,0,1-.73.74.8.8,0,0,1-.71.85.67.67,0,0,1-.13-.13,1.31,1.31,0,0,1-1.29.64,1.08,1.08,0,0,1-1.45.41,1.15,1.15,0,0,1-1,.47"/>
        <path class="cls-3" d="M71.06,149.78c.25,0,.51.2.51.39s-.26.39-.51.39-.52-.19-.52-.39.26-.39.52-.39"/>
        <path class="cls-3" d="M78.42,149.78c-.26,0-.52.2-.52.39s.26.39.52.39.51-.19.51-.39-.26-.39-.51-.39"/>
        <path class="cls-3" d="M88.39,158.6h0c-.65,0-1.39-.71-2-1.36h0c.59.65,1.33,1.36,2,1.36a.83.83,0,0,0,.22,0v0a.82.82,0,0,1-.22,0m-20,.8h0l.27-1.65h0Zm13.23,0h0l-.31-1.66h0l.32,1.66Zm-12.49.05h0l.23-1.51h0Zm11.79,0h0l-.27-1.38h0l.27,1.39Zm1.44.3h0l-.27-2.16h0l.27,2.16Zm-14.72,0h0l.22-2.16h0Zm2.08,0h0c.43,0,.82-.58.93-.74h0C70.54,159.22,70.14,159.75,69.71,159.8Zm10.59,0h0c-.45-.05-.84-.58-1-.74h0c.11.16.5.69.94.74Zm3,.61h0l-.23-3.08h0l.23,3.08Zm-16.56,0h0l.18-3.07h0ZM84.36,162h0l-.63-4.77h0l.62,4.77Zm-18.74,0h0l.58-4.78h0Zm-1,.33h0l.59-5.19h0Zm20.68,0h0l-.58-5.19h0l.58,5.2ZM89,164.14h0l-1-5.61h0l1,5.6Zm-28.1,0h0l1-5.61a1.11,1.11,0,0,1-.48,0h0a1,1,0,0,0,.24,0c.62,0,1.28-.62,2-1.36h0a4.57,4.57,0,0,1-1.77,1.33Zm27.32.1h0L87,158.13h0l1.21,6.09.44,0h0Zm-26.46,0h0l-.45,0v0l.45,0,1.21-6.1h0Zm10.95.78h0c.43-1.77.35-3-.24-3.59a2.32,2.32,0,0,0-2.31-.35h0a2.33,2.33,0,0,1,2.33.35C73.08,162,73.15,163.24,72.72,165Zm4.52,0h0c-.38-1.8-.28-3,.33-3.64a2.33,2.33,0,0,1,2.28-.33v0a2.28,2.28,0,0,0-2.27.33c-.6.6-.71,1.82-.33,3.61Zm-4.2.72h0a11.58,11.58,0,0,0,.66-3,2.16,2.16,0,0,0-3.08-2.34.43.43,0,0,1-.4,0h0a.47.47,0,0,0,.35,0h0a2.32,2.32,0,0,0,.43-.27,1.85,1.85,0,0,1,.34-.23h0a2.19,2.19,0,0,0-.33.23,2.13,2.13,0,0,1-.39.25,4.31,4.31,0,0,1,1.52,0,1.77,1.77,0,0,1,1.06.59,2.65,2.65,0,0,1,.46,1.78A10.8,10.8,0,0,1,73,165.75Zm3.91,0h0a10.59,10.59,0,0,1-.68-3,2.6,2.6,0,0,1,.45-1.8,2.74,2.74,0,0,1,2.67-.58,1.78,1.78,0,0,1-.38-.25,2.36,2.36,0,0,0-.34-.24v0a3.69,3.69,0,0,1,.34.25c.25.19.49.39.77.26h0a.43.43,0,0,1-.35,0c-1.3-.23-2.22,0-2.72.58a2.59,2.59,0,0,0-.45,1.78,10.59,10.59,0,0,0,.68,3Zm5.87.8h0a1.2,1.2,0,0,1-.47-.59h0a1.22,1.22,0,0,0,.46.58Zm-15.7,0h0c.29-.1.45-.49.5-.61h0A1,1,0,0,1,67.12,166.6Zm7.86.09h0a2.37,2.37,0,0,1-1.72-.71,2.92,2.92,0,0,0-.28-.21v0l.28.22a2.36,2.36,0,0,0,1.71.7,2.31,2.31,0,0,0,1.67-.69,3.11,3.11,0,0,1,.28-.23v0a1.93,1.93,0,0,0-.28.22A2.33,2.33,0,0,1,75,166.69Zm.23.68h-.38a3.16,3.16,0,0,1-1.77-.51l-.15-.08v0l.16.09a3.12,3.12,0,0,0,1.76.51h.38a3.22,3.22,0,0,0,1.76-.53l.12-.07v0l-.12.06A3.16,3.16,0,0,1,75.21,167.37ZM63,167.66h0c.16-1.11.33-2.24.48-3.33.31-2.29.65-4.65,1-6.95h0c-.36,2.3-.69,4.66-1,6.95C63.34,165.41,63.18,166.54,63,167.66Zm23.94,0h0c-.2-1.45-.41-2.92-.62-4.34-.28-1.95-.57-4-.85-5.94h0c.29,2,.58,4,.86,5.95.2,1.42.41,2.89.62,4.34Zm-20.13.17h0a.85.85,0,0,0,.35-.65.5.5,0,0,0-.31-.36h0a.49.49,0,0,1,.31.37.78.78,0,0,1-.31.62,3,3,0,0,1,1.13-.12,3.24,3.24,0,0,0,1.12-.09h0a3.28,3.28,0,0,1-1.13.1,2.67,2.67,0,0,0-1.16.13h0Zm-4.76,0h0l1.71-10.18h0Zm26.05,0h-.18l-1.71-10.19h0L88,167.86h.17Zm-5,0h0a2.58,2.58,0,0,0-1.12-.13,3,3,0,0,1-1.13-.1h0a2.45,2.45,0,0,0,.85.1H82a2.69,2.69,0,0,1,1.09.11.85.85,0,0,1-.27-.61.68.68,0,0,1,.3-.42h0a.62.62,0,0,0-.28.42.87.87,0,0,0,.28.62Zm-11.26.5h0a.72.72,0,0,1-.17-.61.43.43,0,0,1,.32-.24h0a.41.41,0,0,0-.3.23.68.68,0,0,0,.16.6Zm6.29,0h0a.73.73,0,0,0-.18-.86h0A.72.72,0,0,1,78.16,168.43Zm4.62.57h0c-.18-.18-.25-.32-.23-.43s.09-.18.23-.27h.06a.65.65,0,0,1,.4.22h0a.63.63,0,0,0-.39-.21l0,0a.45.45,0,0,0-.23.26c0,.11.06.24.23.42Zm-15.57,0h0c0-.22,0-.35-.12-.43a.38.38,0,0,0-.31-.06v0a.35.35,0,0,1,.32.07A.53.53,0,0,1,67.21,169Zm10.12.69h0a5.34,5.34,0,0,1-1-2.31h0a5.37,5.37,0,0,0,1,2.3Zm-4.71,0h0a6.51,6.51,0,0,0,1.08-2.29h0A6.47,6.47,0,0,1,72.62,169.71Zm3.9.43h0c-.21-.72-.43-1.68-.63-2.62h0c.2.94.42,1.89.63,2.62Zm-3.26,0h0a12,12,0,0,0,.61-2l.15-.61h0l-.15.61A11.21,11.21,0,0,1,73.26,170.14Zm.76.32h0c0-.27.1-.55.13-.82.11-.65.22-1.33.28-2h0c-.07.65-.18,1.33-.28,2C74.11,169.92,74.06,170.19,74,170.46Zm2,0h0a12.61,12.61,0,0,1-.45-2.8h0a12.06,12.06,0,0,0,.45,2.8Zm-.67.18h0c-.09-1-.09-2-.09-3h0c0,1,0,2,.09,3Zm-.7,0h0a21.6,21.6,0,0,0,.14-3h0A23.24,23.24,0,0,1,74.61,170.69Zm5,1.89h0a14.35,14.35,0,0,0-1.36-1.48l-.39-.4h0l.39.4a15.46,15.46,0,0,1,1.36,1.48Zm-9.2,0h0a20,20,0,0,1,1.41-1.53l.35-.35h0c-.11.12-.23.23-.35.35A20,20,0,0,0,70.37,172.59Zm8.38.72h0c-.12-.16-.3-.43-.53-.74l-.86-1.19h0c.22.32.56.78.85,1.2l.53.73Zm-7.53,0h0l.09-.13c.3-.42.93-1.31,1.3-1.8h0c-.37.5-1,1.39-1.3,1.81Zm1.26.64h0a6.28,6.28,0,0,0,.26-.71c.18-.55.44-1.3.64-1.77h0c-.21.47-.46,1.21-.65,1.76S72.51,174,72.48,174Zm5,0h0a6.63,6.63,0,0,1-.42-1.12c-.16-.47-.35-1-.48-1.36h0c.14.37.32.9.48,1.36s.38,1.09.41,1.11h0Zm-3.51.39h0c.07-.33.13-.68.19-1,.1-.54.19-1,.3-1.52h0c-.11.47-.21,1-.3,1.52C74.07,173.68,74,174,74,174.35Zm2.06,0q-.12-.56-.21-1.11c-.09-.5-.18-1-.29-1.41h0c.1.44.19.91.28,1.41s.13.74.21,1.11Z"/>
        <polygon class="cls-6" points="70.9 120.24 68.26 120.24 68.26 121.51 70.34 121.51 70.34 122.67 68.26 122.67 68.26 124.03 70.9 124.03 70.9 125.25 66.94 125.25 66.94 119.06 70.9 119.06 70.9 120.24"/>
        <path class="cls-6" d="M76,121.94v3.31h-.59a6.82,6.82,0,0,0-.19-.71,1.81,1.81,0,0,1-1.51.8,2,2,0,0,1-1.69-.86,3.87,3.87,0,0,1-.6-2.24,4,4,0,0,1,.64-2.37,2,2,0,0,1,1.75-.9,2,2,0,0,1,1.49.58,2.51,2.51,0,0,1,.7,1.54l-1.23.19c-.11-.75-.43-1.13-1-1.13a.87.87,0,0,0-.8.53,3.48,3.48,0,0,0-.27,1.52,3,3,0,0,0,.29,1.46.93.93,0,0,0,.84.5.85.85,0,0,0,.62-.26,1,1,0,0,0,.28-.8h-1v-1.16Z"/>
        <polygon class="cls-6" points="79.48 125.25 78.11 120.2 78.11 125.25 77.02 125.25 77.02 119.06 79.05 119.06 80.01 122.77 81.04 119.06 83.07 119.06 83.07 125.25 81.77 125.25 81.77 120.2 80.37 125.25 79.48 125.25"/>
      </g>
    </g>
  </g>
</svg>
