<?xml version="1.0" encoding="UTF-8" standalone="no"?>
<!-- Created with Inkscape (http://www.inkscape.org/) -->
<svg
   xmlns:svg="http://www.w3.org/2000/svg"
   xmlns="http://www.w3.org/2000/svg"
   version="1.0"
   width="469.70999"
   height="205.66"
   id="svg2">
  <defs
     id="defs4">
    <clipPath
       id="clipPath2614">
      <path
         d="M 0.015015,1103.175 L 1479.705,1103.175 L 1479.705,0.015 L 0.015015,0.015 L 0.015015,1103.175 z"
         id="path2616" />
    </clipPath>
    <clipPath
       id="clipPath2608">
      <path
         d="M 7.323,1095.677 L 1470,1095.677 L 1470,7.173 L 7.323,7.173 L 7.323,1095.677 z"
         id="path2610" />
    </clipPath>
    <clipPath
       id="clipPath2584">
      <path
         d="M 478.583,342.879 L 567.652,342.879 L 567.652,306.083 L 478.583,306.083 L 478.583,342.879 z"
         id="path2586" />
    </clipPath>
    <clipPath
       id="clipPath2560">
      <path
         d="M 1072.441,421.437 L 1206.045,421.437 L 1206.045,366.244 L 1072.441,366.244 L 1072.441,421.437 z"
         id="path2562" />
    </clipPath>
    <clipPath
       id="clipPath2546">
      <path
         d="M 0.015015,1103.175 L 1479.705,1103.175 L 1479.705,0.015 L 0.015015,0.015 L 0.015015,1103.175 z"
         id="path2548" />
    </clipPath>
    <clipPath
       id="clipPath2540">
      <path
         d="M 7.323,1095.677 L 1470,1095.677 L 1470,7.173 L 7.323,7.173 L 7.323,1095.677 z"
         id="path2542" />
    </clipPath>
    <clipPath
       id="clipPath2528">
      <path
         d="M 0.015015,1103.175 L 1479.705,1103.175 L 1479.705,0.015 L 0.015015,0.015 L 0.015015,1103.175 z"
         id="path2530" />
    </clipPath>
    <clipPath
       id="clipPath2522">
      <path
         d="M 7.323,1095.677 L 1470,1095.677 L 1470,7.173 L 7.323,7.173 L 7.323,1095.677 z"
         id="path2524" />
    </clipPath>
    <clipPath
       id="clipPath2510">
      <path
         d="M 0.015015,1103.175 L 1479.705,1103.175 L 1479.705,0.015 L 0.015015,0.015 L 0.015015,1103.175 z"
         id="path2512" />
    </clipPath>
    <clipPath
       id="clipPath2504">
      <path
         d="M 7.323,1095.677 L 1470,1095.677 L 1470,7.173 L 7.323,7.173 L 7.323,1095.677 z"
         id="path2506" />
    </clipPath>
    <clipPath
       id="clipPath2498">
      <path
         d="M 948.425,948.276 L 1332.52,948.276 L 1332.52,551.425 L 948.425,551.425 L 948.425,948.276 z"
         id="path2500" />
    </clipPath>
    <clipPath
       id="clipPath2484">
      <path
         d="M 0.015015,1103.175 L 1479.705,1103.175 L 1479.705,0.015 L 0.015015,0.015 L 0.015015,1103.175 z"
         id="path2486" />
    </clipPath>
    <clipPath
       id="clipPath2478">
      <path
         d="M 7.323,1095.677 L 1470,1095.677 L 1470,7.173 L 7.323,7.173 L 7.323,1095.677 z"
         id="path2480" />
    </clipPath>
    <clipPath
       id="clipPath2464">
      <path
         d="M 0.015015,1103.175 L 1479.705,1103.175 L 1479.705,0.015 L 0.015015,0.015 L 0.015015,1103.175 z"
         id="path2466" />
    </clipPath>
    <clipPath
       id="clipPath2458">
      <path
         d="M 7.323,1095.677 L 1470,1095.677 L 1470,7.173 L 7.323,7.173 L 7.323,1095.677 z"
         id="path2460" />
    </clipPath>
    <clipPath
       id="clipPath2804">
      <path
         d="M 1072.44,421.437 L 1206.044,421.437 L 1206.044,366.244 L 1072.44,366.244 L 1072.44,421.437 z"
         id="path2806" />
    </clipPath>
    <clipPath
       id="clipPath2794">
      <path
         d="M 1072.44,421.437 L 1206.044,421.437 L 1206.044,366.244 L 1072.44,366.244 L 1072.44,421.437 z"
         id="path2796" />
    </clipPath>
    <clipPath
       id="clipPath2784">
      <path
         d="M 1072.44,421.437 L 1206.044,421.437 L 1206.044,366.244 L 1072.44,366.244 L 1072.44,421.437 z"
         id="path2786" />
    </clipPath>
  </defs>
  <g
     transform="translate(-150.85822,-377.91908)"
     id="layer1">
    <g
       transform="matrix(2.6952274,0,0,2.6952274,-245.74004,-630.66078)"
       id="g2890">
      <g
         transform="matrix(1.25,0,0,-1.25,-1189.8418,904.62406)"
         id="g2780">
        <g
           clip-path="url(#clipPath2784)"
           id="g2782">
          <path
             d="M 1187.59,366.419 L 1187.56,366.414 C 1187.52,366.411 1187.47,366.408 1187.4,366.406 C 1187.26,366.398 1187.06,366.39 1186.8,366.384 C 1186.29,366.376 1185.55,366.384 1184.67,366.446 C 1182.91,366.576 1180.57,366.93 1178.28,367.823 C 1173.7,369.609 1169.3,373.522 1169.96,382.133 L 1182.29,382.133 C 1182.07,378.78 1182.87,376.809 1186.88,376.085 L 1186.89,376.147 L 1186.89,376.147 C 1186.89,376.147 1186.89,376.147 1186.89,376.147 L 1186.89,376.085 L 1186.89,376.147 L 1186.88,376.085 L 1186.89,376.085 C 1188.45,375.988 1189.79,376.242 1190.73,376.928 C 1191.67,377.611 1192.22,378.729 1192.21,380.324 L 1192.15,380.324 L 1192.21,380.324 C 1192.19,384.12 1184.75,385.484 1181.3,387.007 L 1181.28,386.947 C 1181.28,386.947 1181.28,386.947 1181.28,386.947 C 1181.28,386.947 1181.28,386.947 1181.28,386.948 L 1181.3,387.007 C 1177.88,388.629 1173.36,390.511 1173.35,396.74 L 1173.28,396.74 L 1173.35,396.74 C 1173.36,400.021 1174.26,402.24 1175.28,403.687 L 1175.23,403.724 C 1175.23,403.725 1175.23,403.725 1175.23,403.725 L 1175.28,403.687 C 1178.53,408.107 1182.85,409.749 1188.99,410.429 L 1188.99,410.429 C 1194.79,410.739 1199.19,409.443 1202.05,407.065 C 1204.9,404.696 1206.23,401.256 1205.91,397.227 C 1205.89,397.226 1205.84,397.226 1205.78,397.224 C 1205.59,397.221 1205.22,397.218 1204.5,397.218 C 1203.04,397.218 1200.15,397.226 1194.37,397.237 C 1194.39,399.665 1193.34,400.795 1192.28,401.295 C 1191.75,401.549 1191.21,401.649 1190.81,401.684 C 1190.61,401.703 1190.44,401.706 1190.32,401.703 C 1190.26,401.703 1190.22,401.703 1190.18,401.7 C 1190.15,401.7 1190.14,401.7 1190.13,401.7 L 1190.11,401.633 C 1190.11,401.633 1190.11,401.633 1190.11,401.632 C 1190.12,401.697 1190.11,401.697 1190.1,401.697 C 1190.08,401.695 1190.05,401.695 1190.01,401.692 C 1189.93,401.689 1189.82,401.681 1189.68,401.668 C 1189.39,401.638 1189.01,401.579 1188.61,401.449 C 1187.82,401.195 1186.96,400.663 1186.76,399.559 C 1186.36,397.375 1188,396.802 1189.24,396.179 C 1192.16,394.748 1195.17,393.751 1197.95,392.364 C 1201.99,390.349 1205.18,387.649 1205.19,381.693 C 1205.18,374.468 1201.36,366.433 1187.61,366.419 L 1187.6,366.355 C 1187.6,366.355 1187.59,366.354 1187.59,366.354 C 1187.6,366.419 1187.6,366.419 1187.59,366.419 M 1205.97,397.172 L 1205.97,397.172 C 1205.97,397.172 1205.97,397.172 1205.97,397.172 L 1205.97,397.172"
             id="path2788"
             style="fill:#231f20;fill-opacity:1;fill-rule:nonzero;stroke:none" />
        </g>
      </g>
      <g
         transform="matrix(1.25,0,0,-1.25,-1189.8418,904.62406)"
         id="g2790">
        <g
           clip-path="url(#clipPath2794)"
           id="g2792">
          <path
             d="M 1184.66,366.319 C 1182.89,366.449 1180.54,366.803 1178.23,367.704 C 1173.61,369.497 1169.14,373.501 1169.84,382.201 L 1169.84,382.26 L 1182.36,382.26 L 1182.36,382.197 L 1182.36,382.26 L 1182.42,382.26 L 1182.42,382.193 C 1182.22,378.807 1182.91,376.963 1186.9,376.212 L 1186.9,376.212 C 1188.45,376.118 1189.75,376.37 1190.66,377.03 C 1191.56,377.689 1192.09,378.756 1192.08,380.324 L 1192.15,380.324 C 1192.16,377.16 1190.01,375.959 1186.89,376.147 L 1186.89,376.161 L 1186.89,376.147 C 1182.88,376.887 1182.14,378.807 1182.36,382.195 L 1169.9,382.195 C 1168.55,365.202 1186.86,366.284 1187.59,366.354 C 1187.59,366.339 1187.59,366.321 1187.58,366.298 L 1187.61,366.296 L 1187.61,366.357 C 1201.39,366.36 1205.25,374.449 1205.25,381.693 C 1205.25,387.674 1202.02,390.406 1197.98,392.42 C 1195.19,393.811 1192.18,394.807 1189.27,396.235 C 1188.02,396.867 1186.44,397.413 1186.82,399.548 C 1187.19,401.561 1189.81,401.617 1190.11,401.632 C 1190.1,401.619 1190.1,401.603 1190.1,401.584 L 1190.11,401.633 C 1190.13,401.634 1190.13,401.634 1190.13,401.635 C 1190.16,401.616 1194.37,402.084 1194.31,397.172 C 1205.83,397.151 1205.94,397.151 1205.97,397.172 L 1206.01,397.124 L 1205.97,397.172 L 1205.97,397.172 C 1205.97,397.172 1205.97,397.172 1205.97,397.172 C 1206.64,405.302 1200.61,411.112 1188.98,410.491 C 1182.83,409.814 1178.49,408.164 1175.23,403.725 L 1175.18,403.763 C 1178.45,408.218 1182.82,409.876 1188.97,410.556 L 1188.98,410.556 L 1188.98,410.514 L 1188.98,410.493 L 1188.98,410.556 C 1194.8,410.867 1199.24,409.568 1202.13,407.162 C 1204.48,405.216 1205.8,402.542 1206.05,399.427 L 1206.05,397.308 C 1206.04,397.261 1206.04,397.214 1206.03,397.167 L 1206.03,397.143 L 1206.01,397.124 L 1205.94,397.102 C 1205.92,397.099 1205.87,397.097 1205.78,397.097 C 1205.59,397.094 1205.22,397.091 1204.5,397.091 C 1203.04,397.091 1200.13,397.097 1194.31,397.107 L 1194.24,397.107 L 1194.24,397.172 L 1194.31,397.172 L 1194.24,397.172 C 1194.27,399.61 1193.25,400.688 1192.23,401.182 C 1191.18,401.676 1190.18,401.554 1190.1,401.584 L 1190.13,401.571 L 1190.11,401.571 C 1190.09,401.568 1190.06,401.568 1190.02,401.565 C 1189.94,401.562 1189.83,401.554 1189.69,401.541 C 1189.41,401.511 1189.04,401.452 1188.66,401.328 C 1187.88,401.079 1187.07,400.577 1186.88,399.537 C 1186.51,397.451 1188.03,396.935 1189.3,396.293 L 1189.3,396.295 C 1192.2,394.869 1195.22,393.87 1198.01,392.477 C 1202.06,390.465 1205.32,387.701 1205.32,381.693 C 1205.32,378.059 1204.35,374.211 1201.65,371.266 C 1198.95,368.323 1194.51,366.295 1187.61,366.292 L 1187.61,366.293 L 1187.61,366.292 L 1187.57,366.287 C 1187.53,366.284 1187.48,366.282 1187.41,366.276 C 1187.27,366.271 1187.06,366.26 1186.81,366.257 C 1186.7,366.256 1186.59,366.255 1186.46,366.255 C 1185.98,366.255 1185.37,366.27 1184.66,366.319 M 1187.58,366.298 L 1187.6,366.355 C 1187.61,366.356 1187.61,366.357 1187.61,366.357 L 1187.58,366.298 M 1192.08,380.324 C 1192.13,383.942 1184.72,385.379 1181.25,386.891 L 1181.25,386.891 L 1181.28,386.947 L 1181.25,386.891 L 1181.28,386.947 C 1184.74,385.43 1192.16,384.031 1192.15,380.324 L 1192.08,380.324 M 1173.22,396.74 L 1173.28,396.74 C 1173.29,390.471 1177.86,388.565 1181.28,386.948 L 1181.25,386.891 C 1177.84,388.503 1173.23,390.43 1173.22,396.74 C 1173.23,400.045 1174.15,402.294 1175.18,403.76 L 1175.18,403.763 L 1175.23,403.725 L 1175.18,403.76 L 1175.23,403.724 C 1174.2,402.266 1173.29,400.034 1173.28,396.74 L 1173.22,396.74 M 1190.1,401.584 L 1190.1,401.584"
             id="path2798"
             style="fill:#231f20;fill-opacity:1;fill-rule:nonzero;stroke:none" />
        </g>
      </g>
      <g
         transform="matrix(1.25,0,0,-1.25,-1189.8418,904.62406)"
         id="g2800">
        <g
           clip-path="url(#clipPath2804)"
           id="g2802">
          <path
             d="M 1169.9,382.195 L 1182.36,382.195 C 1182.14,378.807 1182.88,376.887 1186.89,376.147 L 1186.88,376.085 C 1182.87,376.809 1182.07,378.78 1182.29,382.133 L 1169.96,382.133 C 1169.3,373.522 1173.7,369.609 1178.28,367.823 C 1180.57,366.93 1182.91,366.576 1184.67,366.446 C 1185.55,366.384 1186.29,366.376 1186.8,366.384 C 1187.06,366.39 1187.26,366.398 1187.4,366.406 C 1187.47,366.408 1187.52,366.411 1187.56,366.414 L 1187.59,366.419 C 1187.6,366.419 1187.6,366.419 1187.59,366.354 C 1187.49,366.345 1187.08,366.318 1186.45,366.318 C 1182.32,366.318 1168.73,367.471 1169.9,382.195 M 1187.61,366.419 L 1187.61,366.357 C 1187.61,366.357 1187.61,366.356 1187.6,366.355 L 1187.61,366.419 C 1201.36,366.433 1205.18,374.468 1205.19,381.693 C 1205.18,387.649 1201.99,390.349 1197.95,392.364 L 1197.98,392.42 L 1197.95,392.364 C 1195.17,393.751 1192.16,394.748 1189.24,396.179 C 1188,396.802 1186.36,397.375 1186.76,399.559 C 1186.96,400.663 1187.82,401.195 1188.61,401.449 C 1189.01,401.579 1189.39,401.638 1189.68,401.668 C 1189.82,401.681 1189.93,401.689 1190.01,401.692 C 1190.05,401.695 1190.08,401.695 1190.1,401.697 C 1190.11,401.697 1190.12,401.697 1190.11,401.632 C 1189.81,401.617 1187.19,401.561 1186.82,399.548 C 1186.44,397.413 1188.02,396.867 1189.27,396.235 C 1192.18,394.807 1195.19,393.811 1197.98,392.42 C 1202.02,390.406 1205.25,387.674 1205.25,381.693 C 1205.25,374.449 1201.39,366.36 1187.61,366.357 L 1187.61,366.419 M 1189.24,396.179 L 1189.27,396.235 L 1189.24,396.179 M 1186.89,376.085 L 1186.88,376.085 L 1186.89,376.147 L 1186.89,376.085 L 1186.89,376.147 C 1190.01,375.959 1192.16,377.16 1192.15,380.324 L 1192.21,380.324 C 1192.22,378.729 1191.67,377.611 1190.73,376.928 C 1189.91,376.335 1188.81,376.065 1187.52,376.065 C 1187.31,376.065 1187.1,376.072 1186.89,376.085 M 1192.15,380.324 C 1192.16,384.031 1184.74,385.43 1181.28,386.947 L 1181.3,387.007 C 1184.75,385.484 1192.19,384.12 1192.21,380.324 L 1192.15,380.324 M 1173.28,396.74 L 1173.35,396.74 C 1173.36,390.511 1177.88,388.629 1181.3,387.007 L 1181.28,386.948 C 1177.86,388.565 1173.29,390.471 1173.28,396.74 C 1173.29,400.034 1174.2,402.266 1175.23,403.724 L 1175.28,403.687 C 1174.26,402.24 1173.36,400.021 1173.35,396.74 L 1173.28,396.74 M 1194.31,397.172 C 1194.37,402.084 1190.16,401.616 1190.13,401.635 C 1190.13,401.634 1190.13,401.634 1190.11,401.633 L 1190.13,401.7 C 1190.14,401.7 1190.15,401.7 1190.18,401.7 C 1190.22,401.703 1190.26,401.703 1190.32,401.703 C 1190.44,401.706 1190.61,401.703 1190.81,401.684 C 1191.21,401.649 1191.75,401.549 1192.28,401.295 C 1193.34,400.795 1194.39,399.665 1194.37,397.237 C 1200.15,397.226 1203.04,397.218 1204.5,397.218 C 1205.22,397.218 1205.59,397.221 1205.78,397.224 C 1205.84,397.226 1205.89,397.226 1205.91,397.227 C 1206.23,401.256 1204.9,404.696 1202.05,407.065 C 1199.19,409.443 1194.79,410.739 1188.99,410.429 L 1188.99,410.429 C 1182.85,409.749 1178.53,408.107 1175.28,403.687 L 1175.23,403.725 C 1178.49,408.164 1182.83,409.814 1188.98,410.491 C 1200.61,411.112 1206.64,405.302 1205.97,397.172 C 1205.97,397.172 1205.97,397.172 1205.97,397.172 L 1205.97,397.172 L 1205.97,397.172 C 1205.96,397.161 1205.92,397.156 1204.49,397.156 C 1203.04,397.156 1200.13,397.161 1194.31,397.172 M 1175.23,403.725 L 1175.23,403.725"
             id="path2808"
             style="fill:#231f20;fill-opacity:1;fill-rule:nonzero;stroke:none" />
        </g>
      </g>
      <path
         d="M 167.50821,391.32781 L 169.12071,377.91906 L 212.50821,377.91906 L 210.88321,391.32781 L 167.50821,391.32781"
         id="path2810"
         style="fill:#ed1c24;fill-opacity:1;fill-rule:nonzero;stroke:none" />
      <path
         d="M 161.02071,445.24031 L 163.72071,420.21781 L 150.85821,420.30906 L 152.47071,406.80906 L 165.34571,406.90031 L 167.32071,393.21781 L 182.53321,393.21781 L 180.90821,406.90031 L 194.77071,406.80906 L 193.15821,420.30906 L 179.29571,420.21781 L 177.94571,432.01031 L 205.57071,432.01031 L 203.95821,445.24031 L 161.02071,445.24031"
         id="path2812"
         style="fill:#ed1c24;fill-opacity:1;fill-rule:nonzero;stroke:none" />
      <path
         d="M 267.67071,445.23781 L 267.67071,445.24031 L 267.67071,445.23781 M 241.84571,445.23781 L 241.84571,445.23781 L 241.84571,445.24031 L 241.84571,445.23781 M 231.22071,445.24031 L 231.22071,445.23781 L 231.22071,445.23781 L 231.22071,445.24031 M 222.13321,445.23781 L 222.13321,445.23781 L 222.13321,445.24031 L 222.13321,445.23781 M 252.73321,445.15906 L 256.49571,415.45906 L 256.34571,415.41531 L 241.79571,445.15906 L 231.29571,445.15906 L 225.72071,415.34406 L 225.55821,415.35031 L 222.05821,445.15906 L 207.19571,445.15906 L 213.47071,393.20781 L 235.92071,393.20781 L 240.23321,417.98281 L 240.32071,417.96906 L 240.38321,418.00406 L 252.24571,393.20781 L 273.79571,393.20781 L 267.59571,445.15906 L 252.73321,445.15906 M 240.23321,417.98281 L 240.28321,418.23031 L 240.38321,418.00406 L 240.30821,417.97031 L 240.23321,417.98281 M 225.55821,415.35031 L 225.64571,415.35781 L 225.64571,415.35906 L 225.64571,415.35906 L 225.55821,415.35031 M 225.64571,415.35781 L 225.72071,415.34406 L 225.64571,415.35906 L 225.64571,415.35781"
         id="path2814"
         style="fill:#231f20;fill-opacity:1;fill-rule:nonzero;stroke:none" />
      <path
         d="M 267.67071,445.31781 L 267.67071,445.24031 L 267.74571,445.24656 L 267.74571,445.31781 L 267.67071,445.31781 M 252.64571,445.31781 L 252.55821,445.31781 L 252.55821,445.23031 L 256.28321,415.91656 L 241.92071,445.27406 L 241.84571,445.23781 L 256.42071,415.44906 L 252.64571,445.24031 L 267.67071,445.24031 L 267.67071,445.31781 L 252.64571,445.31781 M 241.84571,445.31781 L 241.84571,445.24031 L 241.92071,445.27406 L 241.89571,445.31781 L 241.84571,445.31781 M 231.22071,445.31781 L 231.15821,445.31781 L 231.14571,445.25281 L 231.22071,445.24031 L 241.84571,445.24031 L 241.84571,445.31781 L 231.22071,445.31781 M 222.13321,445.31781 L 222.13321,445.24031 L 222.20821,445.24656 L 222.20821,445.31781 L 222.13321,445.31781 M 207.10821,445.31781 L 207.02071,445.31781 L 207.02071,445.23031 L 207.10821,445.24031 L 222.13321,445.24031 L 222.13321,445.31781 L 207.10821,445.31781 M 225.65821,415.89281 L 222.20821,445.24656 L 222.13321,445.23781 L 225.64571,415.35906 L 225.64571,415.35906 L 231.22071,445.23781 L 231.14571,445.25281 L 225.65821,415.89281 M 267.67071,445.23781 L 273.88321,393.13031 L 252.19571,393.13031 L 240.30821,417.97031 L 235.99571,393.13031 L 235.99571,393.04906 L 236.05821,393.04906 L 236.07071,393.11656 L 240.34571,417.71156 L 252.12071,393.09281 L 252.14571,393.04906 L 273.88321,393.04906 L 273.88321,393.12781 L 273.88321,393.04906 L 273.97071,393.04906 L 273.95821,393.13656 L 267.74571,445.24656 L 267.67071,445.23781 M 207.10821,445.23781 L 207.02071,445.23031 L 213.32071,393.12031 L 213.33321,393.04906 L 235.99571,393.04906 L 235.99571,393.13031 L 213.40821,393.13031 L 207.10821,445.24031 L 207.10821,445.23781"
         id="path2816"
         style="fill:#231f20;fill-opacity:1;fill-rule:nonzero;stroke:none" />
      <path
         d="M 252.64571,445.24031 L 256.42071,415.44906 L 241.84571,445.23781 L 241.84571,445.23781 L 241.84571,445.24031 L 231.22071,445.24031 L 231.22071,445.23781 L 231.22071,445.23781 L 225.64571,415.35906 L 225.72071,415.34406 L 231.29571,445.15906 L 241.79571,445.15906 L 256.34571,415.41531 L 256.49571,415.45906 L 252.73321,445.15906 L 267.59571,445.15906 L 273.79571,393.20781 L 252.24571,393.20781 L 240.38321,418.00406 L 240.32071,417.96906 L 240.23321,417.98281 L 235.92071,393.20781 L 213.47071,393.20781 L 207.19571,445.15906 L 222.05821,445.15906 L 225.55821,415.35031 L 225.72071,415.34406 L 225.64571,415.35781 L 225.55821,415.35031 L 225.64571,415.35906 L 225.64571,415.35906 L 222.13321,445.23781 L 222.13321,445.23781 L 222.13321,445.24031 L 207.10821,445.24031 L 213.40821,393.13031 L 235.99571,393.13031 L 240.30821,417.97031 L 252.19571,393.13031 L 273.88321,393.13031 L 267.67071,445.23781 L 267.67071,445.24031 L 252.64571,445.24031 M 240.23321,417.98281 L 240.30821,417.97031 L 240.38321,418.00406 L 240.28321,418.23031 L 240.23321,417.98281"
         id="path2818"
         style="fill:#231f20;fill-opacity:1;fill-rule:nonzero;stroke:none" />
    </g>
  </g>
</svg>
