<?xml version="1.0" encoding="UTF-8"?>
<svg xmlns="http://www.w3.org/2000/svg" xmlns:xlink="http://www.w3.org/1999/xlink" width="311.54pt" height="201.69pt" viewBox="0 0 311.54 201.69" version="1.1">
<defs>
<clipPath id="clip1">
  <path d="M 0 0 L 311.539063 0 L 311.539063 201.691406 L 0 201.691406 Z M 0 0 "/>
</clipPath>
</defs>
<g id="surface1">
<g clip-path="url(#clip1)" clip-rule="nonzero">
<path style=" stroke:none;fill-rule:nonzero;fill:rgb(98.799133%,82.398987%,1.599121%);fill-opacity:1;" d="M 311.535156 0 L 39.03125 0 C 28.339844 0.0390625 18.800781 4.832031 11.804688 11.804688 C 4.835938 18.796875 0.046875 28.335938 0 39.023438 L 0 162.660156 C 0.046875 173.351563 4.835938 182.890625 11.804688 189.886719 C 18.796875 196.851563 28.339844 201.648438 39.03125 201.691406 L 272.515625 201.691406 C 283.207031 201.648438 292.738281 196.851563 299.738281 189.886719 C 306.699219 182.890625 311.492188 173.351563 311.535156 162.660156 L 311.5 105.257813 L 311.535156 105.257813 "/>
<path style=" stroke:none;fill-rule:nonzero;fill:rgb(3.09906%,43.899536%,28.999329%);fill-opacity:1;" d="M 265.742188 151.609375 L 46.777344 151.609375 C 32.441406 151.609375 20.824219 140.597656 20.824219 127.015625 L 20.824219 44.980469 C 20.824219 31.394531 32.441406 20.382813 46.777344 20.382813 L 291.453125 20.382813 L 291.695313 127.015625 C 291.695313 140.597656 280.070313 151.609375 265.742188 151.609375 M 311.535156 0 L 39.035156 0 C 28.339844 0.0390625 18.800781 4.832031 11.804688 11.800781 C 4.835938 18.796875 0.046875 28.335938 0 39.023438 L 0 162.660156 C 0.046875 173.351563 4.835938 182.890625 11.804688 189.886719 C 18.796875 196.851563 28.339844 201.644531 39.035156 201.691406 L 272.515625 201.691406 C 283.210938 201.644531 292.738281 196.851563 299.738281 189.886719 C 306.699219 182.890625 311.496094 173.351563 311.535156 162.660156 L 311.503906 105.257813 L 311.535156 105.257813 "/>
</g>
<path style=" stroke:none;fill-rule:nonzero;fill:rgb(100%,100%,100%);fill-opacity:1;" d="M 265.742188 151.609375 L 46.777344 151.609375 C 32.441406 151.609375 20.824219 140.597656 20.824219 127.015625 L 20.824219 44.980469 C 20.824219 31.394531 32.441406 20.382813 46.777344 20.382813 L 291.453125 20.382813 L 291.695313 127.015625 C 291.695313 140.597656 280.070313 151.609375 265.742188 151.609375 M 305.6875 5.847656 L 39.03125 5.847656 C 30.191406 5.867188 21.988281 9.902344 15.945313 15.9375 C 9.914063 21.984375 5.875 30.179688 5.859375 39.023438 L 5.859375 162.660156 C 5.875 171.5 9.914063 179.703125 15.945313 185.75 C 21.988281 191.78125 30.191406 195.816406 39.03125 195.839844 L 272.515625 195.839844 C 281.359375 195.816406 289.554688 191.78125 295.597656 185.75 C 301.628906 179.703125 305.664063 171.5 305.6875 162.660156 L 305.636719 89.101563 L 305.6875 89.101563 "/>
<path style=" stroke:none;fill-rule:nonzero;fill:rgb(3.09906%,43.899536%,28.999329%);fill-opacity:1;" d="M 265.742188 151.609375 L 46.777344 151.609375 C 32.441406 151.609375 20.824219 140.597656 20.824219 127.015625 L 20.824219 44.980469 C 20.824219 31.394531 32.441406 20.382813 46.777344 20.382813 L 291.453125 20.382813 L 291.695313 127.015625 C 291.695313 140.597656 280.074219 151.609375 265.742188 151.609375 M 301.589844 10.4375 L 39.519531 10.4375 C 24.667969 10.4375 10.828125 24.273438 10.828125 39.132813 L 10.828125 162.765625 C 10.828125 177.625 24.667969 191.460938 39.519531 191.460938 L 273 191.460938 C 287.859375 191.460938 301.691406 177.625 301.691406 162.765625 "/>
<path style=" stroke:none;fill-rule:nonzero;fill:rgb(100%,100%,100%);fill-opacity:1;" d="M 37.070313 175.421875 C 38.054688 175.421875 39.332031 176.433594 41.371094 176.433594 C 42.917969 176.433594 43.488281 175.644531 43.488281 174.785156 C 43.488281 173.457031 41.964844 173.191406 39.703125 172.449219 C 37.636719 171.78125 35.496094 170.898438 35.496094 167.730469 C 35.496094 163.914063 38.472656 162.121094 41.792969 162.121094 C 44.984375 162.121094 46.757813 163.230469 46.757813 164.753906 C 46.757813 165.835938 46.046875 166.621094 44.984375 166.621094 C 43.714844 166.621094 43.292969 165.957031 41.59375 165.957031 C 40.511719 165.957031 39.777344 166.523438 39.777344 167.378906 C 39.777344 168.394531 40.761719 168.519531 43.511719 169.425781 C 45.679688 170.140625 47.765625 171.246094 47.765625 174.5625 C 47.765625 178.59375 44.796875 180.410156 41.078125 180.410156 C 38.742188 180.410156 35.207031 179.507813 35.207031 177.535156 C 35.207031 176.460938 35.867188 175.421875 37.070313 175.421875 "/>
<path style=" stroke:none;fill-rule:nonzero;fill:rgb(100%,100%,100%);fill-opacity:1;" d="M 59.253906 172.996094 C 59.253906 175.324219 60.871094 176.578125 62.839844 176.578125 C 64.808594 176.578125 66.457031 175.324219 66.457031 172.996094 L 66.457031 164.480469 C 66.457031 163.089844 67.289063 162.363281 68.445313 162.363281 C 69.605469 162.363281 70.4375 163.089844 70.4375 164.480469 L 70.4375 172.996094 C 70.4375 177.609375 67.265625 180.410156 62.839844 180.410156 C 58.414063 180.410156 55.269531 177.609375 55.269531 172.996094 L 55.269531 164.480469 C 55.269531 163.089844 56.105469 162.363281 57.261719 162.363281 C 58.414063 162.363281 59.253906 163.089844 59.253906 164.480469 "/>
<path style=" stroke:none;fill-rule:nonzero;fill:rgb(100%,100%,100%);fill-opacity:1;" d="M 82.371094 170.851563 L 84.507813 170.851563 C 86.207031 170.851563 87.140625 169.695313 87.140625 168.464844 C 87.140625 166.890625 86.078125 166.054688 84.507813 166.054688 L 82.371094 166.054688 Z M 78.382813 164.507813 C 78.382813 163.230469 79.34375 162.515625 80.375 162.515625 L 85.269531 162.515625 C 88.34375 162.515625 91.269531 164.507813 91.269531 168.464844 C 91.269531 171.878906 89.179688 174.386719 85.394531 174.386719 L 82.371094 174.386719 L 82.371094 178.050781 C 82.371094 179.457031 81.53125 180.167969 80.375 180.167969 C 79.222656 180.167969 78.382813 179.457031 78.382813 178.050781 "/>
<path style=" stroke:none;fill-rule:nonzero;fill:rgb(100%,100%,100%);fill-opacity:1;" d="M 98.648438 164.507813 C 98.648438 163.230469 99.605469 162.515625 100.636719 162.515625 L 106.734375 162.515625 C 107.992188 162.515625 108.726563 163.25 108.726563 164.359375 C 108.726563 165.515625 107.992188 166.203125 106.734375 166.203125 L 102.628906 166.203125 L 102.628906 169.375 L 106.390625 169.375 C 107.644531 169.375 108.382813 170.089844 108.382813 171.214844 C 108.382813 172.351563 107.644531 173.066406 106.390625 173.066406 L 102.628906 173.066406 L 102.628906 176.332031 L 106.882813 176.332031 C 108.136719 176.332031 108.878906 177.027344 108.878906 178.175781 C 108.878906 179.285156 108.136719 180.023438 106.882813 180.023438 L 100.636719 180.023438 C 99.605469 180.023438 98.648438 179.304688 98.648438 178.027344 "/>
<path style=" stroke:none;fill-rule:nonzero;fill:rgb(100%,100%,100%);fill-opacity:1;" d="M 120.167969 170.0625 L 122.796875 170.0625 C 124.101563 170.0625 124.835938 169.207031 124.835938 168.097656 C 124.835938 166.917969 123.925781 166.207031 122.796875 166.207031 L 120.167969 166.207031 Z M 116.1875 164.507813 C 116.1875 163.230469 117.140625 162.515625 118.171875 162.515625 L 122.964844 162.515625 C 126.511719 162.515625 128.816406 164.683594 128.816406 167.949219 C 128.816406 170.527344 127.246094 172.398438 124.734375 172.863281 L 128.203125 176.601563 C 128.746094 177.191406 129.039063 177.65625 129.039063 178.324219 C 129.039063 178.890625 128.523438 180.167969 127 180.167969 C 125.96875 180.167969 125.601563 179.796875 125.105469 179.183594 L 120.214844 173.015625 L 120.167969 173.015625 L 120.167969 178.050781 C 120.167969 179.457031 119.328125 180.167969 118.171875 180.167969 C 117.019531 180.167969 116.1875 179.457031 116.1875 178.050781 "/>
<path style=" stroke:none;fill-rule:nonzero;fill:rgb(100%,100%,100%);fill-opacity:1;" d="M 138.140625 164.875 C 138.511719 162.785156 139.765625 162.363281 140.769531 162.363281 C 142.761719 162.363281 143.207031 163.523438 144.21875 166.671875 L 146.160156 172.691406 L 146.203125 172.691406 L 148.144531 166.671875 C 149.152344 163.523438 149.597656 162.363281 151.585938 162.363281 C 152.597656 162.363281 153.851563 162.785156 154.21875 164.875 L 155.792969 173.875 C 156.113281 175.691406 156.453125 177.683594 156.453125 178.277344 C 156.453125 179.160156 155.769531 180.167969 154.589844 180.167969 C 152.792969 180.167969 152.472656 178.890625 152.277344 177.535156 L 151.097656 169.769531 L 151.046875 169.769531 L 148.371094 178.375 C 147.972656 179.652344 147.382813 180.167969 146.179688 180.167969 C 144.972656 180.167969 144.386719 179.652344 143.992188 178.375 L 141.3125 169.769531 L 141.265625 169.769531 L 140.085938 177.535156 C 139.886719 178.890625 139.566406 180.167969 137.773438 180.167969 C 136.589844 180.167969 135.902344 179.160156 135.902344 178.277344 C 135.902344 177.683594 136.25 175.691406 136.566406 173.875 "/>
<path style=" stroke:none;fill-rule:nonzero;fill:rgb(100%,100%,100%);fill-opacity:1;" d="M 170.871094 166.550781 L 170.824219 166.550781 L 168.683594 172.957031 L 172.863281 172.957031 Z M 167.429688 165.734375 C 168.136719 163.796875 168.757813 162.121094 170.746094 162.121094 C 172.789063 162.121094 173.40625 163.796875 174.117188 165.734375 L 177.953125 176.082031 C 178.472656 177.484375 178.542969 177.957031 178.542969 178.546875 C 178.542969 179.53125 177.757813 180.167969 176.621094 180.167969 C 175.324219 180.167969 174.90625 179.335938 174.53125 178.226563 L 174.046875 176.65625 L 167.503906 176.65625 L 167.011719 178.226563 C 166.644531 179.335938 166.226563 180.167969 164.921875 180.167969 C 163.796875 180.167969 163.003906 179.53125 163.003906 178.546875 C 163.003906 177.957031 163.078125 177.484375 163.59375 176.082031 "/>
<path style=" stroke:none;fill-rule:nonzero;fill:rgb(100%,100%,100%);fill-opacity:1;" d="M 189.613281 170.0625 L 192.238281 170.0625 C 193.546875 170.0625 194.28125 169.207031 194.28125 168.097656 C 194.28125 166.917969 193.375 166.207031 192.238281 166.207031 L 189.613281 166.207031 Z M 185.625 164.507813 C 185.625 163.230469 186.585938 162.515625 187.617188 162.515625 L 192.410156 162.515625 C 195.953125 162.515625 198.269531 164.683594 198.269531 167.949219 C 198.269531 170.527344 196.6875 172.398438 194.179688 172.863281 L 197.648438 176.601563 C 198.1875 177.191406 198.484375 177.65625 198.484375 178.324219 C 198.484375 178.890625 197.96875 180.167969 196.441406 180.167969 C 195.410156 180.167969 195.042969 179.796875 194.550781 179.183594 L 189.65625 173.015625 L 189.613281 173.015625 L 189.613281 178.050781 C 189.613281 179.457031 188.769531 180.167969 187.617188 180.167969 C 186.464844 180.167969 185.625 179.457031 185.625 178.050781 "/>
<path style=" stroke:none;fill-rule:nonzero;fill:rgb(100%,100%,100%);fill-opacity:1;" d="M 205.890625 164.484375 C 205.890625 163.085938 206.726563 162.363281 207.882813 162.363281 C 209.035156 162.363281 209.871094 163.085938 209.871094 164.484375 L 209.871094 169.347656 L 215.359375 163.375 C 216.144531 162.488281 216.636719 162.363281 217.230469 162.363281 C 218.113281 162.363281 219.21875 163.230469 219.21875 164.289063 C 219.21875 164.875 218.847656 165.441406 218.429688 165.886719 L 213.6875 170.65625 L 218.871094 176.285156 C 219.488281 176.945313 219.976563 177.460938 219.976563 178.199219 C 219.976563 179.480469 218.992188 180.167969 217.890625 180.167969 C 216.828125 180.167969 216.070313 179.207031 215.429688 178.5 L 209.871094 172.253906 L 209.871094 178.050781 C 209.871094 179.457031 209.035156 180.167969 207.882813 180.167969 C 206.726563 180.167969 205.890625 179.457031 205.890625 178.050781 "/>
<path style=" stroke:none;fill-rule:nonzero;fill:rgb(100%,100%,100%);fill-opacity:1;" d="M 229.371094 166.203125 L 227.132813 166.203125 C 225.808594 166.203125 225.074219 165.464844 225.074219 164.355469 C 225.074219 163.203125 225.808594 162.515625 227.132813 162.515625 L 235.589844 162.515625 C 236.917969 162.515625 237.65625 163.203125 237.65625 164.355469 C 237.65625 165.464844 236.917969 166.203125 235.589844 166.203125 L 233.359375 166.203125 L 233.359375 178.054688 C 233.359375 179.453125 232.519531 180.167969 231.367188 180.167969 C 230.214844 180.167969 229.371094 179.453125 229.371094 178.054688 "/>
<path style=" stroke:none;fill-rule:nonzero;fill:rgb(100%,100%,100%);fill-opacity:1;" d="M 244.179688 164.507813 C 244.179688 163.230469 245.136719 162.515625 246.175781 162.515625 L 252.269531 162.515625 C 253.523438 162.515625 254.257813 163.25 254.257813 164.359375 C 254.257813 165.515625 253.523438 166.203125 252.269531 166.203125 L 248.15625 166.203125 L 248.15625 169.375 L 251.925781 169.375 C 253.171875 169.375 253.914063 170.089844 253.914063 171.214844 C 253.914063 172.351563 253.171875 173.066406 251.925781 173.066406 L 248.15625 173.066406 L 248.15625 176.332031 L 252.414063 176.332031 C 253.664063 176.332031 254.40625 177.027344 254.40625 178.175781 C 254.40625 179.285156 253.664063 180.023438 252.414063 180.023438 L 246.175781 180.023438 C 245.136719 180.023438 244.179688 179.304688 244.179688 178.027344 "/>
<path style=" stroke:none;fill-rule:nonzero;fill:rgb(100%,100%,100%);fill-opacity:1;" d="M 261.710938 164.484375 C 261.710938 163.085938 262.550781 162.363281 263.710938 162.363281 C 264.761719 162.363281 265.128906 162.835938 266.460938 164.511719 L 273.066406 172.789063 L 273.121094 172.789063 L 273.121094 164.484375 C 273.121094 163.085938 273.953125 162.363281 275.109375 162.363281 C 276.265625 162.363281 277.105469 163.085938 277.105469 164.484375 L 277.105469 178.050781 C 277.105469 179.457031 276.265625 180.167969 275.109375 180.167969 C 274.054688 180.167969 273.664063 179.703125 272.359375 178.027344 L 265.746094 169.746094 L 265.691406 169.746094 L 265.691406 178.050781 C 265.691406 179.457031 264.859375 180.167969 263.710938 180.167969 C 262.550781 180.167969 261.710938 179.457031 261.710938 178.050781 "/>
<path style=" stroke:none;fill-rule:nonzero;fill:rgb(3.09906%,43.899536%,28.999329%);fill-opacity:1;" d="M 35.375 60.332031 C 35.375 54.699219 39.597656 51.558594 44.144531 51.558594 L 71.015625 51.558594 C 76.539063 51.558594 79.792969 54.808594 79.792969 59.679688 C 79.792969 64.773438 76.539063 67.804688 71.015625 67.804688 L 52.925781 67.804688 L 52.925781 81.78125 L 69.496094 81.78125 C 75.019531 81.78125 78.273438 84.925781 78.273438 89.90625 C 78.273438 94.890625 75.019531 98.027344 69.496094 98.027344 L 52.925781 98.027344 L 52.925781 112.441406 L 71.667969 112.441406 C 77.1875 112.441406 80.441406 115.472656 80.441406 120.5625 C 80.441406 125.4375 77.1875 128.6875 71.667969 128.6875 L 44.144531 128.6875 C 39.597656 128.6875 35.375 125.546875 35.375 119.910156 "/>
<path style=" stroke:none;fill-rule:nonzero;fill:rgb(3.09906%,43.899536%,28.999329%);fill-opacity:1;" d="M 93.011719 61.957031 C 94.636719 52.746094 100.160156 50.90625 104.601563 50.90625 C 113.378906 50.90625 115.324219 55.996094 119.769531 69.863281 L 128.324219 96.40625 L 128.542969 96.40625 L 137.101563 69.863281 C 141.539063 55.996094 143.492188 50.90625 152.265625 50.90625 C 156.707031 50.90625 162.234375 52.746094 163.859375 61.957031 L 170.789063 101.605469 C 172.199219 109.617188 173.71875 118.394531 173.71875 120.996094 C 173.71875 124.894531 170.683594 129.335938 165.480469 129.335938 C 157.574219 129.335938 156.167969 123.703125 155.304688 117.746094 L 150.101563 83.515625 L 149.882813 83.515625 L 138.074219 121.429688 C 136.34375 127.0625 133.742188 129.335938 128.4375 129.335938 C 123.125 129.335938 120.527344 127.0625 118.792969 121.429688 L 106.984375 83.515625 L 106.769531 83.515625 L 101.566406 117.746094 C 100.703125 123.703125 99.296875 129.335938 91.382813 129.335938 C 86.183594 129.335938 83.148438 124.894531 83.148438 120.996094 C 83.148438 118.394531 84.664063 109.617188 86.078125 101.605469 "/>
<path style=" stroke:none;fill-rule:nonzero;fill:rgb(3.09906%,43.899536%,28.999329%);fill-opacity:1;" d="M 191.925781 67.804688 L 182.066406 67.804688 C 176.21875 67.804688 172.964844 64.554688 172.964844 59.679688 C 172.964844 54.589844 176.21875 51.558594 182.066406 51.558594 L 219.332031 51.558594 C 225.183594 51.558594 228.429688 54.589844 228.429688 59.679688 C 228.429688 64.554688 225.183594 67.804688 219.332031 67.804688 L 209.472656 67.804688 L 209.472656 120.023438 C 209.472656 126.195313 205.789063 129.332031 200.699219 129.332031 C 195.605469 129.332031 191.925781 126.195313 191.925781 120.023438 "/>
<path style=" stroke:none;fill-rule:nonzero;fill:rgb(3.09906%,43.899536%,28.999329%);fill-opacity:1;" d="M 252.808594 45.488281 C 251.835938 45.921875 249.996094 46.464844 248.363281 46.464844 C 244.035156 46.464844 241.328125 43.109375 241.328125 38.992188 C 241.328125 36.066406 242.84375 34.007813 245.335938 33.03125 L 261.582031 25.988281 C 262.5625 25.558594 264.402344 25.015625 266.027344 25.015625 C 270.359375 25.015625 273.066406 28.371094 273.066406 32.488281 C 273.066406 35.414063 271.546875 37.472656 269.058594 38.445313 Z M 232.769531 60.332031 C 232.769531 54.699219 236.992188 51.554688 241.546875 51.554688 L 268.410156 51.554688 C 273.933594 51.554688 277.183594 54.808594 277.183594 59.679688 C 277.183594 64.773438 273.933594 67.804688 268.410156 67.804688 L 250.320313 67.804688 L 250.320313 81.78125 L 266.890625 81.78125 C 272.414063 81.78125 275.671875 84.925781 275.671875 89.90625 C 275.671875 94.890625 272.414063 98.027344 266.890625 98.027344 L 250.320313 98.027344 L 250.320313 112.441406 L 269.058594 112.441406 C 274.585938 112.441406 277.835938 115.46875 277.835938 120.5625 C 277.835938 125.4375 274.585938 128.6875 269.058594 128.6875 L 241.546875 128.6875 C 236.992188 128.6875 232.769531 125.546875 232.769531 119.910156 "/>
</g>
</svg>
