<svg xmlns="http://www.w3.org/2000/svg" viewBox="0 0 717.2 201.6" width="196" height="55">
<path d="M333.6 49.4a24.7 24.7 0 1 0-24.7-24.7 24.63 24.63 0 0 0 24.7 24.7zm307.1 152.2c15.4 0 25.7-4.8 37.5-17.1v13.3h39v-79.7c0-18.8-5.7-33.5-17.1-43.2-11-9.5-27.4-14.6-48.1-14.6-20.9 0-37.5 6.3-52.3 19.8l24.3 21.7c9.7-7.2 15.8-9.3 27.2-9.3 7.8 0 14.5 2.1 19.4 6.3 4.8 4 7.6 9.1 7.6 15.2v.8c-12.4-3.6-20.2-4.9-32.7-4.9-30.8 0-55.9 16.7-55.9 45.6 0 27.6 23.2 46.1 51.1 46.1zm7.8-31c-9.5 0-19.4-4.8-19.4-15.2 0-10.8 10.7-16.5 24.2-16.5 8 0 17.1 2.3 24.9 5.5-1 14.5-13.3 26.2-29.5 26.2zM314 197.8h39.6V64.7H314zm-154.6 0h39.4v-65.2c0-19.6 9.5-36.1 28-36.1 16 0 22.3 8.6 22.3 25.1v76.3h39.6v-80.4c0-34.2-17.1-57.1-51.5-57.1a50.83 50.83 0 0 0-40.3 20V64.7h-37.3v133.1zM35.9 126.7c-1.1-18.3 13.3-33.3 30.8-33.3 8.4 0 14.1 1.5 21.1 8.4zm35.8 74.9c36.7 0 66.8-24.9 71.9-62.4h-36.7c-5.1 17.3-17.5 27.2-33.9 27.2-12.2 0-20.2-5.1-24.9-12.2l87.1-42c-11-33.3-34.8-51.9-64.3-51.9C37.5 60.3 0 86.2 0 129.5c0 34.6 25.3 72.1 71.7 72.1zm340-3.8h40.5l25.7-79.5 25.5 79.5h41.1l43.4-133.1h-40.5l-24.2 78.5-24.9-78.5h-39.6l-25.5 78.5-23.6-78.5h-41.3z"></path>
</svg>
