<svg width="194" height="64" fill="none" xmlns="http://www.w3.org/2000/svg"><g clip-path="url(#a)"><path d="M114.531 23.142v3.126h5.659c.149.15.149.298.149.745 0 .595-.149.893-.596.893h-6.254c-.447 0-.744-.149-.744-.744V17.038c.149-.15.446-.15.744-.15h6.552c.149.15.149.299.149.745 0 .447-.149.894-.596.894h-5.211v2.977h4.765c.148.149.148.447.148.744 0 .596-.148.894-.595.894h-4.17Zm9.53-1.638c.745-.893 1.489-1.34 2.532-1.34 1.191 0 2.233.745 2.233 2.531v3.722c0 .298.149.447.298.447h.595v.447c0 .446-.446.744-1.489.744-.893 0-1.191-.298-1.191-1.34v-3.573c0-.744-.447-1.191-1.042-1.191-.745 0-1.34.447-1.936 1.042v4.913c-.149.149-.447.149-1.042.149-.447 0-.745-.149-.745-.893v-4.913c0-.298-.149-.447-.446-.447h-.447c-.149-.149-.149-.447-.149-.744 0-.596.447-.894 1.34-.894.745 0 1.34.447 1.489 1.34Zm8.19 2.978c.149 1.489.894 2.084 1.936 2.084 1.042 0 2.085-.298 2.531-.595.149.148.298.297.298.744s-.149.596-.447.744c-.446.298-1.191.745-2.531.745-2.085 0-3.425-1.638-3.425-4.02 0-2.68 1.787-4.02 3.574-4.02 1.936 0 2.978 1.49 2.978 3.424 0 .298 0 .745-.149 1.043h-4.765v-.15Zm.149-1.191h3.276c0-1.042-.447-1.787-1.489-1.787-.745 0-1.638.596-1.787 1.787Zm8.488-1.936c.595-.744 1.489-1.34 2.233-1.34.894 0 1.489.447 1.489 1.49 0 .892-.446 1.34-1.042 1.34-.298 0-.447-.15-.596-.15 0-.446-.148-.744-.595-.744-.447 0-1.042.298-1.489.744v5.062c-.149.149-.447.149-.894.149-.446 0-.744-.149-.744-.744v-4.913c0-.298-.149-.447-.447-.447h-.596c-.148-.298-.148-.447-.148-.744 0-.447.446-.745 1.34-.745.744-.149 1.34.149 1.489 1.042Zm10.125.149c.298.447.298.893.298 1.638 0 2.084-1.34 2.977-2.978 2.977-.447 0-.893 0-1.191-.148-.149.148-.149.446-.149.595 0 .447.298.745 1.042.745h2.234c1.191 0 1.936.595 1.936 1.786 0 1.787-1.489 2.978-3.723 2.978-1.787 0-3.127-.745-3.127-1.638 0-.298.149-.596.447-.893.595.595 1.34 1.042 2.531 1.042 1.489 0 2.383-.596 2.383-1.191 0-.298-.298-.596-.745-.596h-2.234c-1.637 0-2.233-.595-2.233-1.637 0-.745.298-1.34.744-1.787-.446-.447-.744-1.191-.744-2.233 0-2.084 1.34-2.978 2.978-2.978.745 0 1.34.15 1.787.447.149-.149.298-.298.596-.298h1.191c.149.15.149.298.149.596 0 .297 0 .744-.596.744l-.596-.149Zm-2.531 3.127c.745 0 1.191-.447 1.191-1.638 0-1.191-.446-1.638-1.191-1.638-.745 0-1.34.447-1.34 1.638 0 1.34.595 1.638 1.34 1.638Zm9.083 1.191c0 .297.149.297.298.446.744-1.637 1.638-3.424 1.638-4.169 0-.297-.149-.446-.447-.446h-.596c0-.149-.149-.298-.149-.596 0-.446.596-.744 1.192-.744 1.042 0 1.489.447 1.489 1.34 0 1.489-1.787 5.21-2.83 7.146-1.042 1.638-2.084 2.084-3.424 2.084-.745 0-1.192-.297-1.192-.744 0-.149 0-.298.149-.596h1.34c.596 0 1.192-.297 1.787-1.34.149-.148.149-.297.298-.446a1.341 1.341 0 0 1-.893-.893l-1.787-4.765c-.149-.297-.149-.297-.447-.297h-.596c-.148-.15-.148-.447-.148-.596 0-.446.446-.744 1.34-.744.744 0 1.042.298 1.34 1.042l1.638 4.317Zm10.423-5.658h1.787c.149.15.149.298.149.596 0 .297-.149.893-.744.893h-1.192v5.806c0 .447-.446.596-1.042.596-.298 0-.596-.15-.744-.15v-6.103h-.894c-.149-.149-.149-.298-.149-.596 0-.446.149-.744.745-.744h.298v-1.191c0-1.638.744-2.233 2.084-2.233 1.489 0 1.787.298 1.787.893 0 .298-.149.596-.149.744h-1.042c-.596 0-.894.15-.894.894v.595Zm6.254-.149c2.085 0 3.574 1.191 3.574 4.02 0 2.829-1.489 4.02-3.574 4.02-2.084 0-3.574-1.191-3.574-4.02 0-2.829 1.49-4.02 3.574-4.02Zm0 6.551c1.043 0 1.787-.595 1.787-2.382 0-1.787-.744-2.531-1.787-2.531-1.042 0-1.936.744-1.936 2.531.149 1.787.894 2.382 1.936 2.382Zm7.297-5.211c.595-.744 1.489-1.34 2.233-1.34.894 0 1.489.447 1.489 1.49 0 .892-.446 1.34-1.042 1.34-.298 0-.447-.15-.596-.15 0-.446-.149-.744-.595-.744-.447 0-1.043.298-1.34.744v5.062c-.149.149-.447.149-.894.149s-.744-.149-.744-.744v-4.913c0-.298-.149-.447-.447-.447h-.596c-.149-.298-.149-.447-.149-.744 0-.447.447-.745 1.341-.745.595-.149 1.191.149 1.34 1.042ZM117.658 36.54c.149.447.298.894.298 1.639 0 2.084-1.34 2.977-2.978 2.977-.447 0-.893 0-1.191-.149-.149.149-.149.447-.149.596 0 .446.298.744 1.042.744h2.234c1.191 0 1.936.596 1.936 1.787 0 1.786-1.489 2.977-3.723 2.977-1.787 0-3.127-.744-3.127-1.637 0-.298.149-.596.447-.894.595.596 1.34 1.042 2.531 1.042 1.489 0 2.383-.595 2.383-1.19 0-.298-.149-.596-.745-.596h-2.234c-1.637 0-2.233-.596-2.233-1.638 0-.744.298-1.34.744-1.786-.446-.447-.744-1.191-.744-2.233 0-2.085 1.34-2.978 2.978-2.978.745 0 1.34.149 1.787.447.149-.15.298-.298.595-.298h1.192c.149.149.149.298.149.595 0 .298 0 .745-.596.745h-.596v-.15Zm-2.68 3.276c.745 0 1.191-.447 1.191-1.638 0-1.19-.446-1.637-1.191-1.637-.744 0-1.34.447-1.34 1.638.149 1.19.596 1.637 1.34 1.637Zm6.403-.298c.149 1.49.894 2.085 1.936 2.085 1.042 0 2.085-.298 2.531-.596.149.149.298.298.298.745 0 .446-.149.595-.447.744-.446.298-1.191.744-2.531.744-2.085 0-3.425-1.637-3.425-4.02 0-2.68 1.787-4.02 3.574-4.02 1.936 0 2.978 1.49 2.978 3.425 0 .298 0 .745-.149 1.042h-4.765v-.149Zm0-1.19h3.276c0-1.043-.447-1.787-1.489-1.787-.745 0-1.489.595-1.787 1.786Zm8.637-1.788c.744-.892 1.489-1.34 2.531-1.34 1.191 0 2.085.745 2.085 2.532v3.722c0 .298.149.446.298.446h.595c0 .15.149.15.149.447 0 .447-.447.745-1.489.745-.745 0-1.191-.298-1.191-1.34v-3.574c0-.744-.447-1.34-1.043-1.34-.744 0-1.489.447-1.935 1.043v4.913c-.149.149-.596.149-1.043.149-.446 0-.744-.15-.744-.894v-4.913c0-.297-.149-.446-.447-.446h-.447c-.149-.15-.149-.447-.149-.745 0-.595.447-.744 1.341-.744.893 0 1.489.595 1.489 1.34Zm8.338 2.978c.149 1.49.894 2.085 1.936 2.085 1.042 0 2.085-.298 2.531-.596.149.149.298.298.298.745 0 .446-.149.595-.447.744-.446.298-1.191.744-2.531.744-2.085 0-3.425-1.637-3.425-4.02 0-2.68 1.787-4.02 3.574-4.02 1.936 0 2.978 1.49 2.978 3.425 0 .298 0 .745-.149 1.042h-4.765v-.149Zm0-1.19h3.276c0-1.043-.447-1.787-1.489-1.787-.744 0-1.489.595-1.787 1.786Zm8.488-1.936c.595-.745 1.489-1.34 2.233-1.34.894 0 1.49.447 1.49 1.489 0 .893-.447 1.34-1.043 1.34-.298 0-.447-.15-.595-.15 0-.446-.149-.744-.596-.744-.447 0-1.042.298-1.489.745v5.062c-.149.149-.447.149-.894.149-.446 0-.744-.15-.744-.745v-4.913c0-.298-.149-.446-.447-.446h-.595c-.149-.298-.149-.447-.149-.745 0-.447.446-.744 1.34-.744.893-.15 1.34.149 1.489 1.042Zm4.914 0c0-.893 1.638-1.34 2.68-1.34 1.638 0 2.829.744 2.829 2.53v3.723c0 .298.149.447.298.447h.447s.149.297.149.446c0 .447-.298.596-1.192.596-.595 0-1.042-.447-1.042-.894-.744.596-1.638 1.191-2.531 1.191-1.489 0-2.085-1.042-2.085-2.382s.745-2.233 2.383-2.233l2.233-.149v-.149c0-1.19-.596-1.488-1.489-1.488-.893 0-1.787.149-2.234.446a.82.82 0 0 1-.446-.744Zm4.02 4.466v-1.34l-2.233.15c-.745.148-.894.446-.894 1.041 0 .596.298 1.042.894 1.042.744 0 1.34-.297 2.233-.893Zm5.51-4.168v3.87c0 .745.298 1.043.893 1.043h1.489c0 .149.149.297.149.446 0 .447-.298.894-2.085.894-1.042 0-1.935-.447-1.935-2.085V36.69h-1.043c-.149-.15-.149-.298-.149-.596 0-.446.149-.744.596-.744h.447v-1.936c.149-.148.446-.148.893-.148s.745.148.745.744v1.34h2.084c.149.149.149.298.149.595 0 .298-.149.894-.744.894l-1.489-.15Zm6.105.149v4.466c0 .298.149.447.297.447h.447c0 .148.149.297.149.446 0 .447-.298.745-1.34.745-.893 0-1.34-.298-1.34-1.34v-4.318c0-.297-.149-.446-.447-.446h-.447c-.149-.15-.149-.298-.149-.596 0-.595.447-.893 1.192-.893 1.042-.15 1.638.149 1.638 1.489Zm-1.043-4.616c.596 0 1.043.298 1.043 1.043 0 .744-.298 1.042-1.043 1.042-.595 0-1.042-.298-1.042-1.042 0-.745.447-1.043 1.042-1.043Zm6.552 2.829c2.085 0 3.574 1.191 3.574 4.02 0 2.828-1.489 4.02-3.574 4.02s-3.574-1.192-3.574-4.02c-.149-2.68 1.489-4.02 3.574-4.02Zm0 6.55c1.042 0 1.787-.595 1.787-2.381 0-1.787-.745-2.531-1.787-2.531-1.042 0-1.936.744-1.936 2.53 0 1.787.894 2.383 1.936 2.383Zm7.445-5.062c.745-.892 1.489-1.34 2.532-1.34 1.191 0 2.084.745 2.084 2.532v3.722c0 .298.149.446.298.446h.596c0 .15.149.15.149.447 0 .447-.447.745-1.489.745-.745 0-1.192-.298-1.192-1.34v-3.574c0-.744-.446-1.34-1.042-1.34-.744 0-1.489.447-1.936 1.043v4.913c-.149.149-.446.149-.893.149s-.745-.15-.745-.894v-4.913c0-.297-.149-.446-.446-.446h-.596c-.149-.15-.149-.447-.149-.745 0-.595.447-.744 1.34-.744.745 0 1.34.595 1.489 1.34Zm12.36-.148c0 .447-.149.744-.298.893-.447-.298-1.489-.595-2.383-.595-.893 0-1.191.297-1.191.744s.447.745 1.489.893c1.936.298 2.681 1.043 2.681 2.382 0 1.49-.894 2.382-2.83 2.382-1.935 0-2.978-.595-2.978-1.34 0-.446.149-.744.298-.893.596.298 1.638.745 2.531.745 1.043 0 1.49-.298 1.49-.745 0-.446-.447-.744-1.49-.893-1.935-.298-2.68-1.042-2.68-2.382s.894-2.382 2.829-2.382c1.787-.149 2.532.595 2.532 1.19Z" fill="#0083CA"/><path d="M94.105 28.696c.012-8.503-1.272-23.19-20.7-26.279 0 0-10.265-2.188-26.193-2.119h-.327c-15.933-.067-26.193 2.12-26.193 2.12C1.271 5.511-.013 20.197 0 28.694v7.202c-.013 8.503 1.27 23.19 20.698 26.279 0 0 10.26 2.187 26.194 2.119h.327c15.927.068 26.194-2.12 26.194-2.12 19.428-3.094 20.705-17.78 20.698-26.277-.006-1.379-.006-5.824-.006-7.202Z" fill="url(#b)"/><path d="m19.886 34.858-.06-.201c-.14-.457-.311-1.294-.311-2.666 0-2.243 1.196-2.243 1.59-2.243h14.808l.073.172c.274.694.407 1.538.407 2.646 0 1.62-.646 2.278-2.23 2.278H19.887v.013l-.001.001Zm0-8.975-.06-.2c-.14-.463-.311-1.294-.311-2.666 0-2.243 1.196-2.243 1.59-2.243h14.808l.073.172c.274.694.407 1.538.407 2.646 0 1.62-.646 2.278-2.23 2.278H19.887v.013h-.001Z" fill="#fff"/><path d="m72.474 31.714-.179-.18.126-.228a7.439 7.439 0 0 0 .912-3.595c0-3.337-2.715-6.937-7.106-6.937l-1.477.012H46.433s-.166 0-.212.008c-4.358.125-7.379 2.777-7.386 6.557 0 1.698.585 3.276 1.737 4.48a9.377 9.377 0 0 0 2.368 1.809 13.3 13.3 0 0 0 2.064.879c.325.11 2.062.588 2.587.775.18.062.353.125.526.209.618.29 1.065.85 1.078 1.577a1.45 1.45 0 0 1-.392 1.032c-.327.347-.813.533-1.458.576h-26.24c-.394 0-1.59 0-1.59 2.236 0 1.371.165 2.202.312 2.666l.059.2 27.167.008h.073c4.47-.042 7.59-2.721 7.598-6.565 0-1.682-.586-3.248-1.71-4.46a7.816 7.816 0 0 0-.959-.879 10.718 10.718 0 0 0-1.437-.956 13.27 13.27 0 0 0-2.062-.878c-.333-.11-2.063-.589-2.588-.776a3.976 3.976 0 0 1-.518-.209c-.62-.29-1.066-.85-1.079-1.578-.007-.22.04-.657.392-1.032.326-.346.813-.533 1.457-.574h20.394c1.397.16 1.816 1.364 1.816 1.814 0 .866-.392 1.918-2.275 2.035h-7.691c-.392 0-1.59 0-1.59 2.244 0 1.371.173 2.202.312 2.666l.06.2 10.173-.013c1.877.11 2.276 1.17 2.276 2.036 0 .387-.373 1.842-2.216 1.842l-9.015-.007c-.392 0-1.59 0-1.59 2.243 0 1.365.173 2.202.312 2.667l.06.2h10.227c4.39 0 7.113-3.6 7.113-6.938 0-1.98-.766-3.864-2.11-5.166h-.002Z" fill="#fff"/><path d="M42.68 25.004c-.152 2.472 1.964 3.712 2.728 4.079a1.88 1.88 0 0 1-.585-.436s-.007-.008-.007-.014a1.128 1.128 0 0 1-.16-.208c-.032-.055-.072-.11-.1-.172-.012-.022-.02-.049-.032-.077-.02-.05-.047-.098-.06-.152-.013-.042-.02-.083-.033-.125-.007-.042-.02-.076-.027-.118a1.687 1.687 0 0 1-.026-.263 1.45 1.45 0 0 1 .392-1.032c.047-.05.093-.09.139-.131a.205.205 0 0 1 .047-.035.664.664 0 0 1 .113-.076c.02-.014.04-.02.053-.035a.803.803 0 0 1 .133-.069l.04-.02c.26-.118.565-.188.924-.209h10.746c.832-.262 1.204-1.482 1.204-2.623 0-1.033-.325-2.307-1.236-2.48l-.028-.007H46.84c-2.756.36-4.045 2.402-4.158 4.204v-.001Z" fill="url(#c)"/><path d="M50.871 39.615c.153-2.472-1.963-3.711-2.728-4.078.226.11.426.256.592.436 0 .007.007.007.007.013.052.055.099.116.14.181.006.014.013.02.02.034.033.056.072.11.1.173.012.021.02.05.032.07.02.05.047.103.06.152.013.042.02.083.033.131.007.036.02.077.027.118.013.083.027.174.027.263a1.45 1.45 0 0 1-.131.65c-.092.202-.23.378-.4.515-.015.012-.035.02-.055.033a.654.654 0 0 1-.113.077c-.02.012-.04.02-.053.034a.821.821 0 0 1-.133.069l-.04.02a2.584 2.584 0 0 1-.925.21H36.587c-.833.263-1.205 1.481-1.205 2.623 0 1.032.326 2.306 1.236 2.48l.029.006h10.072c2.749-.374 4.045-2.416 4.152-4.21Z" fill="url(#d)"/></g><defs><linearGradient id="b" x1="1.641" y1="60.655" x2="57.617" y2="-14.929" gradientUnits="userSpaceOnUse"><stop stop-color="#110252"/><stop offset=".068" stop-color="#0A1F66"/><stop offset=".152" stop-color="#033D7B"/><stop offset=".2" stop-color="#004883"/><stop offset=".6" stop-color="#0067A6"/><stop offset="1" stop-color="#00B3F0"/></linearGradient><linearGradient id="c" x1="47.162" y1="30.163" x2="48.236" y2="23.383" gradientUnits="userSpaceOnUse"><stop stop-color="#0067A6"/><stop offset=".92" stop-color="#0067A6" stop-opacity="0"/></linearGradient><linearGradient id="d" x1="46.391" y1="34.454" x2="45.315" y2="41.233" gradientUnits="userSpaceOnUse"><stop stop-color="#0067A6"/><stop offset=".92" stop-color="#0067A6" stop-opacity="0"/></linearGradient><clipPath id="a"><path fill="#fff" d="M0 0h193.185v64H0z"/></clipPath></defs></svg>