<?xml version="1.0" encoding="utf-8"?>
<!-- Generator: Adobe Illustrator 23.0.3, SVG Export Plug-In . SVG Version: 6.00 Build 0)  -->
<svg version="1.1" id="Calque_1" xmlns="http://www.w3.org/2000/svg" xmlns:xlink="http://www.w3.org/1999/xlink" x="0px" y="0px"
	 viewBox="0 0 825.3 191.6" style="enable-background:new 0 0 825.3 191.6;" xml:space="preserve">
<style type="text/css">
	.st0{fill:#B8ABA7;}
	.st1{fill:#70BEB1;}
</style>
<g>
	<path class="st0" d="M783.4,49.1v7.1h-2.2v-7.1h-2.5v-1.8h7.2v1.8H783.4z"/>
	<path class="st0" d="M795.1,56.2l0-6.3h0l-2.3,6.3h-1.5l-2.3-6.3h0l0,6.3h-2v-9h3.1l2,5.8h0l2-5.8h3.1v9H795.1z"/>
</g>
<g>
	<path class="st1" d="M68.2,31.2c0-4.8-4-8.7-8.9-8.7s-8.9,3.9-8.9,8.7v34.7h17.7L68.2,31.2L68.2,31.2z"/>
	<path class="st1" d="M121.4,31.2c0-4.8-4-8.7-8.9-8.7s-8.9,3.9-8.9,8.7v34.7h17.7L121.4,31.2L121.4,31.2z"/>
	<path class="st1" d="M130.3,83.2H41.6c-4.9,0-8.9,3.9-8.9,8.7c0,28.7,23.8,52,53.2,52s53.2-23.3,53.2-52
		C139.2,87,135.2,83.2,130.3,83.2"/>
	<path class="st1" d="M253.6,86.7c-0.1-3.8-0.8-7.4-2-10.7c-1.2-3.3-2.9-6.2-5.2-8.7c-2.3-2.4-5.2-4.4-8.6-5.8
		c-3.4-1.4-7.4-2.2-12-2.2c-4.2,0-8.1,0.7-11.8,2.2c-3.7,1.4-6.9,3.4-9.6,5.8c-2.7,2.4-5,5.3-6.7,8.7c-1.8,3.3-2.8,6.9-3,10.7H253.6
		z M273.7,94.5v3.3c0,1.1-0.1,2.2-0.2,3.3h-78.9c0.1,4.1,1.1,7.9,2.8,11.5c1.8,3.6,4.1,6.7,7,9.3s6.3,4.7,10.2,6.2
		c3.8,1.5,7.9,2.2,12.2,2.2c6.7,0,12.5-1.4,17.4-4.3c4.9-2.9,8.7-6.3,11.5-10.4l13.8,10.8c-5.3,6.9-11.5,11.9-18.7,15.2
		c-7.2,3.2-15.2,4.9-24,4.9c-7.5,0-14.5-1.2-20.9-3.7s-11.9-5.9-16.5-10.3c-4.6-4.4-8.2-9.8-10.9-16.1c-2.6-6.3-4-13.2-4-20.9
		c0-7.5,1.3-14.4,3.9-20.8c2.6-6.3,6.2-11.8,10.8-16.3c4.6-4.5,10.1-8,16.4-10.5c6.3-2.5,13.1-3.8,20.4-3.8s13.9,1.2,19.8,3.5
		c5.9,2.3,11,5.7,15.1,10c4.1,4.4,7.3,9.7,9.5,15.8C272.5,79.8,273.7,86.7,273.7,94.5"/>
	<polygon class="st1" points="336.1,143.8 314.8,143.8 274.4,46.9 296.1,46.9 325.2,123.1 325.7,123.1 355,46.9 375.9,46.9 	"/>
	<path class="st0" d="M482.4,95.1c0-4.5-0.7-8.9-2.1-13.1c-1.4-4.2-3.5-8-6.3-11.2c-2.8-3.3-6.2-5.9-10.4-7.8
		c-4.1-1.9-8.9-2.9-14.3-2.9c-5,0-9.6,1-13.7,2.9c-4.1,1.9-7.6,4.5-10.6,7.8c-2.9,3.3-5.2,7-6.8,11.2c-1.6,4.2-2.4,8.7-2.4,13.3
		c0,4.6,0.8,9.1,2.4,13.3c1.6,4.2,3.9,7.9,6.8,11.2c2.9,3.2,6.5,5.8,10.6,7.7c4.1,1.9,8.7,2.9,13.7,2.9c5.4,0,10.2-1,14.3-3
		c4.1-2,7.6-4.6,10.4-7.9c2.8-3.3,4.9-7,6.3-11.2C481.7,104,482.4,99.6,482.4,95.1 M417.1,174.9h-19.7V46.9h19.3V62h0.6
		c3.2-5.2,7.9-9.4,14.1-12.8c6.2-3.3,13.4-5,21.6-5c7.4,0,14.1,1.3,20.1,3.9c6.1,2.6,11.3,6.2,15.7,10.8c4.4,4.6,7.8,10,10.1,16.3
		s3.5,12.9,3.5,19.9c0,7.1-1.2,13.8-3.5,20c-2.4,6.3-5.7,11.7-10,16.4c-4.3,4.6-9.5,8.3-15.7,10.9s-13,4-20.7,4
		c-7.1,0-13.8-1.5-20-4.5s-11.2-7.2-14.8-12.7h-0.6L417.1,174.9L417.1,174.9z"/>
	<path class="st0" d="M574.4,97.6c-4.9,0-10,0.2-15.2,0.6c-5.2,0.4-10,1.2-14.2,2.4c-4.3,1.2-7.8,3.1-10.6,5.5
		c-2.8,2.4-4.2,5.7-4.2,9.8c0,2.9,0.6,5.2,1.8,7.2c1.2,1.9,2.8,3.5,4.7,4.7c2,1.2,4.1,2.1,6.5,2.6c2.4,0.5,4.8,0.7,7.3,0.7
		c9.2,0,16.3-2.7,21.2-8.1c5-5.4,7.4-12.2,7.4-20.3v-5.1L574.4,97.6L574.4,97.6z M579.2,81c0-7.2-2.2-12.6-6.7-16.1
		c-4.5-3.5-10.4-5.2-17.8-5.2c-5.6,0-10.9,1.1-15.8,3.2c-5,2.1-9.1,4.8-12.5,8.1L516,58.7c4.9-4.5,10.8-8,17.9-10.6
		c7-2.6,14.6-3.9,22.7-3.9c7.1,0,13.3,1,18.5,3c5.2,2,9.5,4.7,12.9,8.1c3.3,3.4,5.9,7.4,7.5,12.1c1.7,4.6,2.5,9.6,2.5,14.9v42.3
		c0,3.3,0.1,6.7,0.3,10.3c0.2,3.6,0.6,6.6,1.2,8.9h-17.8c-1.1-4.6-1.7-9.3-1.7-13.9h-0.6c-3.6,5.2-8.2,9.2-13.7,12.1
		c-5.5,2.9-12,4.3-19.6,4.3c-3.9,0-8-0.5-12.2-1.5c-4.3-1-8.1-2.7-11.6-5c-3.5-2.3-6.4-5.4-8.7-9.2c-2.3-3.8-3.5-8.5-3.5-14.1
		c0-7.4,2-13.2,6.1-17.5c4-4.3,9.3-7.6,15.9-9.8s14-3.7,22.2-4.4c8.2-0.7,16.5-1,24.9-1L579.2,81L579.2,81z"/>
	<path class="st0" d="M673.3,71.4c-2.2-3.5-5.4-6.4-9.4-8.7c-4-2.2-8.6-3.4-13.6-3.4c-2.2,0-4.5,0.2-6.7,0.7c-2.2,0.5-4.2,1.2-6,2.2
		s-3.1,2.3-4.2,3.9c-1,1.6-1.6,3.5-1.6,5.8c0,4.1,1.9,7.1,5.7,9.1c3.8,2,9.4,3.8,17,5.4c4.7,1.1,9.1,2.4,13.2,3.9
		c4,1.5,7.6,3.4,10.6,5.6s5.3,4.9,7,8.1c1.7,3.1,2.5,6.8,2.5,11c0,5.7-1.1,10.6-3.3,14.5c-2.2,3.9-5.2,7.2-8.9,9.7
		c-3.7,2.5-7.9,4.3-12.7,5.4c-4.8,1.1-9.6,1.6-14.7,1.6c-7.5,0-14.9-1.4-22.1-4.3c-7.2-2.9-13.2-7.2-17.9-13.1l14-11.7
		c2.7,3.8,6.3,7,11,9.6c4.7,2.6,9.8,3.9,15.4,3.9c2.5,0,4.9-0.2,7.2-0.7s4.4-1.3,6.3-2.4c1.9-1.1,3.4-2.5,4.5-4.3
		c1.1-1.8,1.7-4,1.7-6.8c0-4.5-2.2-7.8-6.6-10c-4.4-2.2-10.8-4.2-19.4-6.1c-3.3-0.8-6.7-1.8-10.2-3c-3.4-1.2-6.5-2.8-9.3-4.8
		c-2.8-2-5.1-4.6-6.8-7.7c-1.8-3.1-2.6-6.8-2.6-11.3c0-5.2,1.1-9.6,3.2-13.4c2.2-3.8,5-6.8,8.5-9.2c3.5-2.4,7.5-4.2,11.9-5.3
		s9.1-1.7,13.8-1.7c7.1,0,14,1.4,20.6,4.1s11.8,6.7,15.4,11.9L673.3,71.4z"/>
	<path class="st0" d="M758.2,71.4c-2.2-3.5-5.4-6.4-9.4-8.7c-4-2.2-8.6-3.4-13.6-3.4c-2.2,0-4.5,0.2-6.7,0.7c-2.2,0.5-4.2,1.2-6,2.2
		s-3.1,2.3-4.2,3.9c-1,1.6-1.6,3.5-1.6,5.8c0,4.1,1.9,7.1,5.7,9.1c3.8,2,9.4,3.8,17,5.4c4.7,1.1,9.1,2.4,13.2,3.9
		c4,1.5,7.6,3.4,10.6,5.6s5.3,4.9,7,8.1c1.7,3.1,2.5,6.8,2.5,11c0,5.7-1.1,10.6-3.3,14.5c-2.2,3.9-5.2,7.2-8.9,9.7
		c-3.7,2.5-7.9,4.3-12.7,5.4c-4.8,1.1-9.6,1.6-14.7,1.6c-7.5,0-14.9-1.4-22.1-4.3c-7.2-2.9-13.2-7.2-17.9-13.1l14-11.7
		c2.7,3.8,6.3,7,11,9.6c4.7,2.6,9.8,3.9,15.4,3.9c2.5,0,4.9-0.2,7.2-0.7c2.3-0.5,4.4-1.3,6.3-2.4c1.9-1.1,3.4-2.5,4.5-4.3
		c1.1-1.8,1.7-4,1.7-6.8c0-4.5-2.2-7.8-6.6-10c-4.4-2.2-10.8-4.2-19.4-6.1c-3.3-0.8-6.7-1.8-10.2-3c-3.4-1.2-6.5-2.8-9.3-4.8
		c-2.8-2-5.1-4.6-6.8-7.7c-1.8-3.1-2.6-6.8-2.6-11.3c0-5.2,1.1-9.6,3.2-13.4c2.2-3.8,5-6.8,8.5-9.2c3.5-2.4,7.5-4.2,11.9-5.3
		s9.1-1.7,13.8-1.7c7.1,0,14,1.4,20.6,4.1s11.8,6.7,15.4,11.9L758.2,71.4z"/>
</g>
</svg>
