<?xml version="1.0" encoding="utf-8"?>
<!-- Generator: Adobe Illustrator 24.0.0, SVG Export Plug-In . SVG Version: 6.00 Build 0)  -->
<svg version="1.1" id="Ebene_1" xmlns="http://www.w3.org/2000/svg" xmlns:xlink="http://www.w3.org/1999/xlink" x="0px" y="0px"
	 width="771.81px" height="371.89px" viewBox="0 0 771.81 371.89" style="enable-background:new 0 0 771.81 371.89;"
	 xml:space="preserve">
<style type="text/css">
	.st0{fill:#2588CB;}
</style>
<g>
	<path class="st0" d="M100.25,128.85l65.21-0.08L152.9,92.93c-1.58-4.5-5.82-7.51-10.59-7.52l-58.11-0.06L70.65,46.76l79.69,0.14
		L136.98,8.55C135.2,3.43,130.37,0,124.95,0H0l76.58,218.82l133.87,0.09l-15.24-43.07c-1.58-4.48-5.82-7.48-10.58-7.48H114.4
		L100.25,128.85z M263.76,9.98c1.73-4.87-1.88-9.98-7.04-9.98h-72.99l41.86,117.34L263.76,9.98z M323.83,208.88L285.67,98.51
		l-43.19,120.4h74.2C321.88,218.91,325.52,213.79,323.83,208.88 M385.09,9.97c1.73-4.86-1.88-9.97-7.04-9.97h-73l41.88,117.34
		L385.09,9.97z M588.16,218.91L512.71,8.45C510.89,3.38,506.09,0,500.7,0h-56.92l-78.67,218.91h53.78l57.81-161.17l39.17,113.33
		h-27.11c-5.42,0-10.25,3.42-12.04,8.53l-13.81,39.31l69.49-0.06l0.02,0.06H588.16z"/>
	<path d="M572.97,285.97h-13.03v60.01h13.03V285.97z M302.34,309.91v-1.97c0-7.4,4.12-11.8,9.91-11.8c6.01,0,9.91,4.74,9.91,10.99
		v2.78H302.34z M302.34,319.85h32.84v-12.72c0-13.41-10.24-22.66-22.93-22.66c-12.58,0-22.82,8.67-22.82,24.86v12.72
		c0,16.65,10.02,25.44,24.72,25.44c7.11,0,12.23-1.04,18.23-3.34l-3.76-10.76c-4.71,1.42-9.45,2.42-14.47,2.42
		c-7.46,0-11.8-4.39-11.8-13.76V319.85z M379.15,345.99h13.03v-36.77c0-16.19-10.24-24.75-22.82-24.75
		c-12.69,0-23.04,8.56-23.04,24.75v36.77h12.91v-36.19c0-9.02,4.12-13.64,10.13-13.64c5.9,0,9.8,4.63,9.8,13.64V345.99z
		 M418.56,309.91v-1.97c0-7.4,4.12-11.8,9.91-11.8c6.01,0,9.91,4.74,9.91,10.99v2.78H418.56z M418.56,319.85h32.84v-12.72
		c0-13.41-10.24-22.66-22.93-22.66c-12.58,0-22.82,8.67-22.82,24.86v12.72c0,16.65,10.02,25.44,24.72,25.44
		c7.03,0,12.12-1.02,18.03-3.27l-3.76-10.77c-4.65,1.39-9.32,2.36-14.27,2.36c-7.46,0-11.8-4.39-11.8-13.76V319.85z M493.1,296.96
		l3.33-11.01c-2.67-0.91-6.3-1.48-9.4-1.48c-12.8,0-22.71,9.02-22.71,22.78v38.74h12.91v-38.74c0-6.59,3.9-11.1,9.91-11.1
		C489.11,296.15,491.36,296.56,493.1,296.96 M532.23,311.87c0,5.43-2.23,9.71-8.35,9.71c-6.12,0-8.46-4.28-8.46-9.71v-6.13
		c0-5.43,2.34-9.6,8.35-9.6c6.12,0,8.46,4.05,8.46,9.6V311.87z M548.59,293.6l0.78-9.02l-17.37,1.27c-2.45-0.92-5.23-1.39-8.24-1.39
		c-12.25,0-21.15,8.56-21.15,21.28v6.13c0,7.63,3.23,13.76,8.57,17.34c-2,1.85-3.56,4.51-3.56,7.4c0,15.5,27.39,9.83,27.39,17.69
		c0,3.7-4.12,6.13-12.02,6.13c-6.57,0-13.03-1.97-19.37-4.86l-3.34,10.64c6.9,3.47,14.81,5.66,22.93,5.66
		c15.92,0,25.16-7.28,25.16-18.39c0-17.35-29.84-13.88-29.84-18.96c0-0.69,0.33-1.27,0.78-1.85c1.45,0.23,3.01,0.35,4.57,0.35
		c12.36,0,21.15-8.56,21.15-21.16v-6.13c0-4.51-1.22-8.44-3.23-11.79L548.59,293.6z M574.2,268.16c0-4.51-3.67-7.75-7.79-7.75
		c-4.12,0-7.79,3.24-7.79,7.75c0,4.28,3.56,7.86,7.79,7.86C570.64,276.02,574.2,272.44,574.2,268.16 M619.73,309.91h-19.82v-1.97
		c0-7.4,4.12-11.8,9.91-11.8c6.01,0,9.91,4.74,9.91,10.99V309.91z M632.76,319.85v-12.72c0-13.41-10.24-22.66-22.93-22.66
		c-12.58,0-22.82,8.67-22.82,24.86v12.72c0,16.65,10.02,25.44,24.72,25.44c7.11,0,12.23-1.04,18.23-3.34l-3.75-10.76
		c-4.72,1.42-9.46,2.42-14.48,2.42c-7.46,0-11.8-4.39-11.8-13.76v-2.2H632.76z"/>
	<path class="st0" d="M770.58,285.97h-13.03v60.01h13.03V285.97z M670.75,347.23v-12.04c-6.76-1.3-11.17-7.25-11.17-15.91v-40.83
		l-13.36-14.03v55.89C646.23,335.45,657.07,345.91,670.75,347.23 M701,320.31V264.2c-0.02,0.02-0.02,0-0.04,0.02l-13.32,13.98v41.08
		c0,8.58-4.42,14.52-11.02,15.88v12.05C690.24,345.84,701,335.4,701,320.31 M748.52,286.56l0.13-0.59c-2.67-0.92-6.35-1.5-9.46-1.5
		c-12.8,0-22.71,9.02-22.71,22.78v38.74h12.91v-38.74c0-6.59,3.9-11.1,9.91-11.1c1.84,0,3.93,0.36,5.62,0.73L748.52,286.56z
		 M771.81,268.16c0-4.51-3.67-7.75-7.79-7.75s-7.79,3.24-7.79,7.75c0,4.28,3.56,7.86,7.79,7.86
		C768.24,276.02,771.81,272.44,771.81,268.16"/>
</g>
</svg>
