<?xml version="1.0" encoding="UTF-8"?> <svg xmlns="http://www.w3.org/2000/svg" id="Layer_1" data-name="Layer 1" viewBox="0 0 372.43 151.05"><defs><style>.cls-1{fill:#005695;}.cls-2{fill:#007b85;}</style></defs><title>FB-</title><path class="cls-1" d="M100.19,38.36c3.92,0,7.34-.06,8.63-.18,0,1.35,0,5.94.12,8.81-.25.49-1.35.62-2,.25-.61-3.55-1.59-5.33-3.92-5.94a19.48,19.48,0,0,0-5.14-.49H94.8c-2.57,0-2.57.12-2.57,3.55v11c0,1.53.06,1.65,1.47,1.65h3.61c5.33,0,6.3-.12,6.86-2.69l.49-2.08a1.39,1.39,0,0,1,1.83.06c-.06,1.59-.18,3.86-.18,6.12s.12,4.47.18,6.37a1.39,1.39,0,0,1-1.83.06l-.49-2.39c-.56-2.57-1.53-2.69-6.86-2.69H93.7c-1.41,0-1.47.12-1.47,1.65V70c0,6.49.55,6.67,3.43,6.92l2.57.3c.43.43.37,1.54-.12,1.78-3.92-.12-6.68-.18-9.37-.18s-5.45.06-8.27.18c-.48-.24-.55-1.35-.12-1.78L81.7,77c2.88-.37,3.43-.55,3.43-7V47.18c0-6.49-.55-6.68-3.43-7.1L80.9,40c-.43-.42-.36-1.53.13-1.77,2.14.12,4.89.18,7.59.18Z"></path><path class="cls-1" d="M119.22,71.48c0,4.53.25,5.2,2.33,5.51l1.1.18c.43.43.37,1.54-.12,1.78-2.26-.12-4.35-.18-6.61-.18-2,0-4.1.06-6.43.18-.49-.24-.55-1.35-.12-1.78l1.1-.18c2.08-.31,2.33-1,2.33-5.51v-9c0-2.75,0-3.49-1.53-4.41l-.74-.42a1.67,1.67,0,0,1,.06-1.41,36.13,36.13,0,0,0,8-3.31,1.15,1.15,0,0,1,.86.49c-.12,2-.19,5-.19,7.47Zm-7.16-29.63A3.92,3.92,0,1,1,116,45.71,3.74,3.74,0,0,1,112.06,41.85Z"></path><path class="cls-1" d="M147.69,68.79c0,5.57.43,7.47,1.47,7.47a7.43,7.43,0,0,0,2.57-.56c.49.37.61,1.84-.06,2.21A37.67,37.67,0,0,0,142,80.24a1,1,0,0,1-.74-.68l.12-.92a4.17,4.17,0,0,0-.06-1.71l-.3-.06a11.83,11.83,0,0,1-7,2.75c-7,0-11.33-5.63-11.33-11.75,0-8.82,7-14.08,14.7-14.08a12,12,0,0,1,3.54.43c.25-.06.37-.31.37-1v-8c0-4.1-.06-4.53-1.41-5.33l-.85-.55c-.37-.24-.43-1.22,0-1.41,2.38-.67,5.57-2,8-2.93a.81.81,0,0,1,.85.49c-.12,2.44-.18,6.24-.18,8.87Zm-6.43-7.53a4.63,4.63,0,0,0-.79-2.94,5,5,0,0,0-4.11-2.08c-4.16,0-6.79,4.1-6.79,9.24,0,6.31,3.3,10.47,7.65,10.47a5.82,5.82,0,0,0,3.61-1.35,2.37,2.37,0,0,0,.43-1.71Z"></path><path class="cls-1" d="M158,64.26c-1.17,0-1.29.06-1.29.79,0,5.51,3.8,9.92,9.24,9.92a6.36,6.36,0,0,0,5.88-3.06,1.19,1.19,0,0,1,1.35,1,11,11,0,0,1-10.35,6.73c-7.1,0-11.81-5.26-11.81-12.24s4.71-13.59,12.91-13.59c4.53,0,9.19,2.94,9.19,8.26a2.86,2.86,0,0,1-.31,1.41c-.37.55-1.77.8-4.22.8Zm5.63-2.45a6.3,6.3,0,0,0,3-.43,1.53,1.53,0,0,0,.62-1.29,3.77,3.77,0,0,0-4-4,6.27,6.27,0,0,0-6,5.26c0,.25.12.43.85.43Z"></path><path class="cls-1" d="M260.33,47.84c0-5.87-.06-6.61-2.94-6.92l-1.59-.18a1.23,1.23,0,0,1,.06-1.71c2.75-.25,7.22-.55,14-.55,5.14,0,9.24.49,12,2.08s4.28,4.1,4.28,7.95c0,3.62-2.63,6.37-6.92,7.78a.45.45,0,0,0-.37.37c0,.12.13.24.5.36,4.65.74,9.85,3.74,9.85,10.66a10.11,10.11,0,0,1-3.73,8.14c-2.88,2.39-6.92,3.43-13.9,3.43-2.69,0-5.26-.19-7.59-.19-2.69,0-5.57.06-8.27.19a1.32,1.32,0,0,1-.12-1.78l1.35-.18c2.88-.37,3.43-.55,3.43-7Zm7.1,6.74c0,1.59.18,1.65,2.63,1.65,5.75,0,8.39-2.27,8.39-7.78s-4-7.53-7.78-7.53c-3.06,0-3.24.13-3.24,2.58Zm0,14.38c0,5.57.61,7.84,5.94,7.84,4.22,0,7.95-2.76,7.95-8.21,0-6.3-4.28-10-11.08-10-2.69,0-2.81.37-2.81,1.6Z"></path><path class="cls-1" d="M309.36,71.29c-.18,3.55.74,5.38,2.94,5.38a5.62,5.62,0,0,0,2.08-.67c.31,0,.74.67.55,1.23-1.22,1.71-4.22,2.69-6.12,2.69a5.88,5.88,0,0,1-4.41-1.71c-.42-.43-.67-.74-1-.74s-.74.31-1.66.86a9.91,9.91,0,0,1-5.2,1.59c-4.16,0-6.25-2.88-6.25-5.94,0-2.2.86-4.22,5.09-5.69,2.14-.74,4.46-1.59,6.73-2.45,1.22-.43,1.41-1,1.41-1.59l.06-1.59c.12-3.13-.74-5.82-3.74-5.82a3,3,0,0,0-3.24,2.69,2.62,2.62,0,0,1-1.16,2.21,8.44,8.44,0,0,1-3.92,1.1c-.8,0-1.16-.43-1.16-1,0-.73.36-2,2.38-3.92s6.31-3.85,9.43-3.85c4.84,0,7.84,2.26,7.59,7.65Zm-6-2.08c0-.68-.18-1-.49-1a9.84,9.84,0,0,0-2.69.73c-1.71.61-3.3,1.47-3.3,4.1a3.43,3.43,0,0,0,3.42,3.55,2.72,2.72,0,0,0,2.94-2.94Z"></path><path class="cls-1" d="M372.17,77.47l-.61-.06a6.27,6.27,0,0,1-3.49-1.65c-2.2-2.08-6.3-7.84-8.75-11.27a.86.86,0,0,1,0-1.22c1-1,3.06-2.82,5.2-4.72A8.46,8.46,0,0,1,369,56.47l1.1-.18c.43-.49.43-1.59-.12-1.84a89.31,89.31,0,0,1-9.55.49h-1.78a1.15,1.15,0,0,0-.12,1.84l1.65.18c.74.12,1,.31,1,.62s-.49,1-1.77,2.38L357,62.6c-1.71,1.95-2.94,2.32-4,2.32s-1.35-.12-1.35-.86V44.66c0-2.63.06-6.43.19-8.88a.84.84,0,0,0-.86-.49c-2.51,1-5.7,2.27-8,2.94-.43.18-.37,1.16,0,1.41l.67.43c1.54.92,1.6,1.34,1.6,5.45V71.78c0,4.53-.25,5.2-2.33,5.51l-.73.1-.8-.1c-2.08-.31-2.33-1-2.33-5.51V62.29c0-4.78-2.32-8.2-7.28-8.2-3.8,0-5.51,1.47-8.39,3.06-.37-.07-.55-.19-.55-.62a28,28,0,0,1,.12-2.81.83.83,0,0,0-.79-.49,41.4,41.4,0,0,1-8,3.3,1.6,1.6,0,0,0-.06,1.41l.73.43c1.53.92,1.53,1.65,1.53,4.41v9c0,4.53-.24,5.2-2.32,5.51l-1.35.18a1.31,1.31,0,0,0,.12,1.78c2.57-.13,4.65-.19,6.61-.19,2.27,0,4.35.06,6.49.19a1.31,1.31,0,0,0,.12-1.78l-.91-.12c-2.09-.37-2.33-1-2.33-5.57V63.57c0-2.26.06-2.81.86-3.91a5,5,0,0,1,4-1.9c3.67,0,4.9,2.45,4.9,5.57v8.45c0,4.53-.25,5.2-2.33,5.57l-.92.12a1.31,1.31,0,0,0,.12,1.78c2.14-.13,4.23-.19,6.25-.19s3.81,0,5.94.14l.51,0,.52,0c2.08-.09,3.88-.14,5.58-.14,2.26,0,4.34.06,6.92.19a1.33,1.33,0,0,0,.12-1.78L354,77.29c-2.08-.31-2.33-1-2.33-5.51V68.84c0-1.65.19-1.9.92-1.9a2.46,2.46,0,0,1,1.9,1.23l5,7a2.83,2.83,0,0,1,.74,1.46c0,.31-.56.62-1.17.74l-.61.06a1.13,1.13,0,0,0,.12,1.78c2.51-.13,4.16-.19,6.61-.19s4.78.06,6.8.19C372.54,79,372.54,78,372.17,77.47Z"></path><polygon class="cls-1" points="0 151.05 32.84 117.93 32.84 38.51 0 71.34 0 151.05"></polygon><rect class="cls-2" x="46.25" y="51.92" width="25.09" height="13.77"></rect><polygon class="cls-2" points="46.25 104.41 71.34 79.1 46.25 79.1 46.25 104.41"></polygon><path class="cls-2" d="M32.84,38.5h38.5V0Z"></path><path class="cls-1" d="M199.05,77.17,198,77c-2.08-.31-2.33-1-2.33-5.51V60.89c0-2.51.06-5.45.19-7.47a1.15,1.15,0,0,0-.86-.49,36.34,36.34,0,0,1-8,3.31,1.67,1.67,0,0,0-.06,1.41l.73.42c1.54.92,1.54,1.66,1.54,4.41v9c0,4.53-.25,5.2-2.33,5.51l-1,.17L184.6,77c-2.08-.31-2.32-1-2.32-5.51V44.36c0-2.63.06-6.43.18-8.87a.82.82,0,0,0-.86-.49c-2.45,1-5.63,2.26-8,2.93-.43.19-.37,1.17,0,1.41l.67.43c1.53.92,1.59,1.35,1.59,5.45V71.48c0,4.53-.25,5.2-2.33,5.51l-1.28.18c-.43.43-.37,1.54.12,1.78,2.51-.12,4.59-.18,6.61-.18,2.27,0,4.35.06,6.86.18h.06c2.33-.12,4.41-.18,6.43-.18,2.26,0,4.34.06,6.61.18C199.42,78.71,199.48,77.6,199.05,77.17Zm-6.67-31.46a3.86,3.86,0,1,0-3.92-3.86A3.74,3.74,0,0,0,192.38,45.71Z"></path><path class="cls-1" d="M243.07,54.46c-1.66.13-3.31.19-4.9.19-1.35,0-3.61-.06-5.82-.19a1.31,1.31,0,0,0-.12,1.78l2.08.43c.92.18,1.16.49,1.16,1a36,36,0,0,1-2.2,5.94l-1.84,4.1a18,18,0,0,1-2,3.79c-.18-.06-.91-1.53-2.08-4.65l-2.69-7c-1-2.69-1-2.94.43-3.25l1.84-.36c.42-.43.36-1.53-.13-1.78-5.62.33-11.26.11-16.89.11-1.16,0-1.16-.29-1.16-1.27V49.63a1.31,1.31,0,0,0-1.72-.31,11.59,11.59,0,0,1-3.37,3.8,19.68,19.68,0,0,1-4.83,2.57,1,1,0,0,0,.18,1.65h2.14c1,0,1.11.06,1.11,2.2V72c0,4.29,1,7.65,6.85,7.65,3.73,0,6.55-1.65,7.77-3.36a1,1,0,0,0-.79-1.23,4.73,4.73,0,0,1-2.94,1.1c-3.92,0-4.47-3.42-4.47-7.28V59.42c0-2,.07-2.08,1.17-2.08h6.68c.82.72,1.33,2,2.25,4.35l5,12.85a11.71,11.71,0,0,1,1,4.53c0,2.57-1.71,5.82-3,7.65A3.26,3.26,0,0,1,219.25,88L217.9,88c-1.71,0-3.12.73-3.12,2.75A3.06,3.06,0,0,0,218.15,94c2,0,3.61-1,4.65-3.31,2.57-5.63,8-16.53,10.1-20.69L236,63.77c1.89-3.8,3.06-5.57,3.73-6.19.8-.85,2.76-1.16,3.49-1.34C243.68,55.81,243.68,54.65,243.07,54.46Z"></path><path class="cls-1" d="M242.94,105.18h-2V87h2.62c3.45,0,6.65.92,6.65,5a4.75,4.75,0,0,1-4.55,5l5.78,8.14h-2.48l-5.49-8h-.51Zm0-9.75h.63c2.28,0,4.6-.44,4.6-3.25,0-3-2.2-3.28-4.63-3.28h-.6Z"></path><path class="cls-1" d="M256.18,89.6a1.37,1.37,0,1,1-1.37-1.37A1.37,1.37,0,0,1,256.18,89.6Zm-.41,15.58h-1.92V93.86h1.92Z"></path><path class="cls-1" d="M269.52,104.63c0,1.8,0,3.37-1.15,4.86a5.48,5.48,0,0,1-4.38,2c-3.16,0-5.49-2-5.57-5.2h1.93a3.36,3.36,0,0,0,3.61,3.42c3,0,3.64-2.2,3.64-4.75v-1.35h-.05a5,5,0,0,1-3.93,1.88c-3.3,0-5.39-2.77-5.39-5.92s2.12-6,5.47-6a4.74,4.74,0,0,1,3.85,1.92h.05V93.86h1.92ZM260.2,99.4c0,2.22,1.31,4.31,3.71,4.31s3.78-2,3.78-4.29a3.78,3.78,0,0,0-3.8-4.09A3.84,3.84,0,0,0,260.2,99.4Z"></path><path class="cls-1" d="M274.72,85.31v9.88l0,0A3.81,3.81,0,0,1,278,93.55c3.13,0,3.85,2.26,3.85,4.91v6.72h-1.92V98.8c0-1.83-.15-3.47-2.39-3.47-2.65,0-2.82,2.46-2.82,4.48v5.37H272.8V85.31Z"></path><path class="cls-1" d="M287.54,105.18h-1.93V95.64h-1.18V93.86h1.18V89.79h1.93v4.07h2v1.78h-2Z"></path><path class="cls-1" d="M299.19,87h3c3.3,0,6.06,1.21,6.06,4.91a4,4,0,0,1-1.78,3.54,4.62,4.62,0,0,1,3.45,4.65c0,3.61-2.92,5.06-6.51,5.06h-4.21Zm2,8H302c2.29,0,4.24-.27,4.24-3.09s-1.73-3-4.21-3h-.8Zm0,8.28h2c2.26,0,4.64-.55,4.64-3.32s-2.69-3.23-4.91-3.23h-1.76Z"></path><path class="cls-1" d="M311,93.86h2.24l4,8.12,3.66-8.12h2.19l-8.36,17.68h-2.19l3.66-7.42Z"></path><path class="cls-1" d="M329.68,87H332l4.63,8.09L341.26,87h2.34l-6,10.36v7.8h-2v-7.8Z"></path><path class="cls-1" d="M341.21,99.54a5.95,5.95,0,1,1,6,5.95A5.94,5.94,0,0,1,341.21,99.54Zm1.93,0a4,4,0,1,0,4-4.19A4,4,0,0,0,343.14,99.52Z"></path><path class="cls-1" d="M357.06,100.17c0,1.9.21,3.54,2.55,3.54s2.55-1.64,2.55-3.54V93.86h1.93v6.53c0,3-1.14,5.1-4.48,5.1s-4.48-2.09-4.48-5.1V93.86h1.93Z"></path><path class="cls-1" d="M372.08,90.55a2.59,2.59,0,0,1-.35,1.3,2.6,2.6,0,0,1-2.25,1.3,2.6,2.6,0,0,1-2.6-2.59,2.59,2.59,0,0,1,.35-1.3,2.58,2.58,0,0,1,2.25-1.3,2.58,2.58,0,0,1,1.3.34,2.6,2.6,0,0,1,1.3,2.25Zm-.36,0a2.24,2.24,0,0,0-.3-1.12,2.3,2.3,0,0,0-.82-.82,2.15,2.15,0,0,0-1.11-.3,2.21,2.21,0,0,0-1.12.3,2.18,2.18,0,0,0-.83.82,2.35,2.35,0,0,0-.29,1.13,2.19,2.19,0,0,0,1.12,1.94,2.21,2.21,0,0,0,1.12.3,2.12,2.12,0,0,0,1.11-.31,2.15,2.15,0,0,0,.82-.82A2.19,2.19,0,0,0,371.72,90.55ZM368.4,89h1.25a1.61,1.61,0,0,1,.63.09.64.64,0,0,1,.31.28.88.88,0,0,1,.12.46.82.82,0,0,1-.09.4.9.9,0,0,1-.28.27.62.62,0,0,1,.27.22,1.16,1.16,0,0,1,.07.45v.34a.72.72,0,0,0,.1.4l.05.07h-.53a2.27,2.27,0,0,1-.07-.43l0-.37a.56.56,0,0,0-.07-.28.24.24,0,0,0-.14-.12,1.1,1.1,0,0,0-.38,0h-.74V92h-.48Zm.48.43v.89h.73a1,1,0,0,0,.46-.08.41.41,0,0,0,.17-.37.39.39,0,0,0-.13-.33.75.75,0,0,0-.47-.11Z"></path></svg> 