<?xml version="1.0" encoding="utf-8"?>
<!-- Generator: Adobe Illustrator 24.3.0, SVG Export Plug-In . SVG Version: 6.00 Build 0)  -->
<svg version="1.1" id="Layer_1" xmlns="http://www.w3.org/2000/svg" xmlns:xlink="http://www.w3.org/1999/xlink" x="0px" y="0px"
	 viewBox="0 0 614.12 335.03" style="enable-background:new 0 0 614.12 335.03;" xml:space="preserve">
<style type="text/css">
	.st0{fill:#132246;}
</style>
<g>
	<g>
		<g>
			<path class="st0" d="M95.34,180.34H85.13v-17.1h10.21v-3.06c0-13.15,9.32-21.7,22.08-21.7c5.36,0,9.96,1.15,13.02,2.81
				l-3.7,13.66c-1.15-0.89-3.06-1.53-5.23-1.53c-3.83,0-6.51,2.55-6.51,6.77v3.06h12.51v17.1H115v44.54H95.34V180.34z
				 M136.89,139.75h19.66v85.13h-19.66V139.75z"/>
			<path class="st0" d="M209.33,217.48c-3.83,4.34-10.98,8.93-21.31,8.93c-14.04,0-20.29-7.91-20.29-19.27v-43.91h19.66v35.87
				c0,7.4,3.83,9.95,10.21,9.95c5.62,0,9.44-3.06,11.74-6v-39.82h19.66v61.65h-19.66V217.48z"/>
			<path class="st0" d="M268.81,206.25l-12,18.63h-21.44l21.06-31.65l-19.78-29.99h21.57l10.59,16.72l10.47-16.72h21.57
				l-19.66,29.99l21.06,31.65h-21.57L268.81,206.25z"/>
			<path class="st0" d="M320.51,232.54c4.47,0,7.28-0.89,8.3-3.45l1.4-3.32l-24.51-62.54h20.68l13.91,39.06l14.04-39.06h20.8
				l-27.82,70.46c-4.98,13.02-14.29,15.95-26.04,16.21c-1.79,0-6.38-0.38-8.42-1.02l2.81-17.49
				C317.06,232.16,318.97,232.54,320.51,232.54z"/>
			<path class="st0" d="M382.67,203.44c4.59,4.09,14.42,8.17,21.7,8.17c5.87,0,8.3-1.91,8.3-4.59c0-3.19-4.21-4.34-10.59-5.36
				c-10.47-1.79-25.27-3.96-25.27-19.66c0-10.85,9.32-20.29,26.42-20.29c10.34,0,19.15,3.32,25.78,8.17l-7.53,13.02
				c-3.7-3.57-10.72-6.76-18.13-6.76c-4.59,0-7.78,1.53-7.78,4.21c0,2.81,3.32,3.83,9.83,4.98c10.47,1.79,26.04,4.34,26.04,20.68
				c0,11.74-10.34,20.42-28.08,20.42c-10.98,0-22.34-3.7-28.84-9.45L382.67,203.44z"/>
		</g>
	</g>
	<g>
		<path class="st0" d="M496.27,203.68c-0.88,0-1.77-0.04-2.65-0.11c-16.1-1.29-29-14.44-30.01-30.58
			c-0.28-4.41,0.31-8.72,1.75-12.84c-2.12,0.52-4.31,0.78-6.52,0.78c-14.98,0-27.26-12.19-27.39-27.17
			c-0.12-14.68,11.7-27.06,26.35-27.6c3.55-0.13,7.03,0.41,10.33,1.6c0.04,0.02,0.09,0.03,0.13,0.04l0.08-0.08
			c0.04-0.04,0.05-0.08,0.05-0.09c-0.11-0.82-0.17-1.67-0.17-2.51c-0.08-10.56,8.07-19.56,18.56-20.49
			c6.15-0.54,12.14,1.66,16.43,6.05c4.3,4.39,6.37,10.43,5.7,16.57c-1.01,9.15-8.34,16.69-17.44,17.92
			c-1.82,0.25-3.64,0.26-5.43,0.03c-0.22-0.03-0.45,0.05-0.61,0.22v0c-0.2,0.2-0.27,0.48-0.19,0.76c0.66,2.38,1,4.85,1,7.35
			c0,2.19-0.26,4.36-0.76,6.46c4.06-1.43,8.31-2.03,12.68-1.79c16.32,0.9,29.58,13.85,30.83,30.14c0.74,9.61-2.74,19.02-9.54,25.79
			C513.25,200.28,504.93,203.68,496.27,203.68z M465.81,149.89c2.56,0,5.08,1.02,6.95,2.89c2.7,2.7,3.6,6.76,2.29,10.32
			c-1.09,2.96-1.54,6.07-1.34,9.26c0.69,11.15,9.6,20.23,20.71,21.12c6.65,0.53,13.16-1.85,17.86-6.53
			c4.7-4.69,7.1-11.19,6.59-17.85c-0.86-11.24-10.01-20.18-21.28-20.8c-3.38-0.18-6.66,0.35-9.75,1.6
			c-3.38,1.37-7.25,0.55-9.87-2.06l-0.28-0.28c-2.37-2.37-3.25-5.89-2.28-9.17c0.46-1.56,0.69-3.19,0.69-4.86
			c0-1.58-0.21-3.13-0.63-4.63c-1.05-3.79,0.01-7.86,2.79-10.63l0,0c0,0,0,0,0,0l0,0c2.4-2.4,5.7-3.52,9.05-3.1
			c0.91,0.11,1.85,0.11,2.8-0.02c4.56-0.62,8.23-4.4,8.74-9c0.34-3.11-0.7-6.17-2.87-8.38c-2.17-2.21-5.18-3.33-8.3-3.05
			c-5.19,0.46-9.37,5.09-9.33,10.33c0,0.43,0.03,0.86,0.09,1.28c0.39,3-0.61,6.07-2.68,8.3c-1.42,1.76-4.95,4.87-11.05,2.66
			c-2.08-0.75-4.27-1.09-6.52-1c-9.23,0.34-16.67,8.15-16.6,17.4c0.08,9.44,7.82,17.13,17.26,17.13c1.53,0,3.04-0.2,4.49-0.59
			C464.14,150,464.98,149.89,465.81,149.89z"/>
	</g>
</g>
<g>
</g>
<g>
</g>
<g>
</g>
<g>
</g>
<g>
</g>
<g>
</g>
</svg>
