<?xml version="1.0" encoding="UTF-8" standalone="no"?>
<svg
   xmlns:svg="http://www.w3.org/2000/svg"
   xmlns="http://www.w3.org/2000/svg"
   version="1.1"
   id="svg4019"
   viewBox="0 0 652.44514 358.60435"
   height="358.60434"
   width="652.44513">
  <defs
     id="defs4021" />
  <g
     transform="translate(-65.206019,-290.20289)"
     id="layer1">
    <path
       id="path26"
       d="m 491.36618,295.20604 c -8.38728,0.0648 -17.8535,1.14539 -28.35157,4.44922 -21.26745,6.68748 -40.45833,26.5105 -47.17773,47.8418 -1.82749,5.7857 -2.66544,11.7618 -3.06445,18.35352 -0.42296,6.6396 0.62163,17.43002 4.68359,23.35937 5.68196,8.30748 19.65612,15.60051 28.39453,17.78711 13.06373,3.26394 16.43912,4.49304 29.64649,7.79688 7.44561,1.85142 30.57929,8.7392 31.82422,15.29101 2.1866,11.49161 -0.93325,19.6634 -7.17383,24.33984 -12.68865,9.5125 -25.51988,9.56745 -26.52539,9.98243 -12.97594,0.55862 -29.05699,3.59075 -39.63086,-14.66016 -3.43153,-5.92935 -1.26137,-11.78672 -1.55664,-16.54297 l -36.82032,0 c -0.31123,0 -1.53257,12.22542 -1.56445,14.04492 -0.3671,19.91081 6.7033,30.33332 20.9082,39.9336 14.0453,9.48855 32.79047,10.54155 51.48829,9.67968 22.77572,-1.07733 37.38945,-6.39089 53.98046,-19.66211 8.43517,-6.7593 14.34022,-13.04752 18.41016,-21.84179 6.94285,-14.99496 10.92349,-32.44795 4.99414,-48.67188 -6.32836,-17.31721 -35.14491,-23.57449 -52.12695,-28.29883 -14.96304,-4.15772 -40.85912,-5.092 -41.80078,-19.75976 -0.83794,-13.13555 9.36241,-25.58421 21.85156,-28.08203 13.43081,-2.68935 29.01529,-4.16511 39.62109,4.98828 6.87103,5.92935 6.90234,13.72499 7.18164,22.16016 14.34855,0 34.48337,-0.31055 37.13282,-0.31055 0.94966,0 -0.41471,-17.97876 -0.94141,-21.21875 -0.45488,-2.01901 -5.61071,-34.9551 -41.49805,-39.32031 -6.1887,-0.75414 -13.49748,-1.70352 -21.88476,-1.63868 z m -227.95899,5.01954 C 250.59086,365.24893 237.31923,426.96785 224.5029,491.9912 l 137.83593,0 c 0.36709,0 6.63168,-32.17496 7.15039,-33.69922 l -100.48828,0 c 0.82198,-4.24551 8.4272,-47.20371 9.28907,-50.14844 l 88.70898,0 7.70117,-33.64453 -88.87695,0 c 4.00611,-13.99741 7.94739,-36.82097 8.77734,-40.41211 l 95.83594,0 c 0.85389,-4.17368 5.37874,-26.07341 6.6875,-33.82226 -16.62293,0.0799 -88.54838,-0.0391 -133.7168,-0.0391 z m -155.21484,0.12304 c -9.033681,45.00081 -37.986331,191.36556 -37.986331,191.62891 8.95388,0 38.169921,0.0176 38.169921,0.0176 1.59605,-6.26453 15.45888,-75.11838 16.67188,-80.72852 l 79.01172,0 c 1.06137,-5.17122 5.48227,-28.81053 6.51172,-34.01367 l -80.28125,0 c 2.25043,-10.67763 8.76324,-38.27352 9.71289,-42.54297 l 90.91797,0 c 0.98157,-4.17369 5.43586,-26.0778 7,-34.36133 -4.54078,0 -121.77217,0.0797 -129.72852,0 z m 493.67969,7.41797 c 5.33082,3.39163 11.69863,6.76719 17.02148,10.22266 13.73406,8.91397 28.03398,19.99138 37.9375,33.68554 15.19446,21.03603 24.26125,44.10618 22.42578,70.91993 -5.61812,82.06924 -98.29418,138.23435 -159.45508,162.57422 -11.82677,4.70038 -44.61693,15.28285 -78.6289,21.52343 -30.89168,5.61812 -88.31078,7.18211 -107.34375,4.37305 -39.70191,-5.85753 -71.14275,-10.29329 -105.78516,-28.39258 -6.24057,-3.26393 -13.13576,-7.14244 -19.0332,-11.23633 -3.72679,-2.59359 -10.94985,-8.05236 -14.35742,-11.22851 -0.11972,0 -0.25428,-0.20088 0.32031,0.62109 37.13226,53.04495 97.12682,72.64555 150.08398,79.56445 54.92032,7.18226 102.96239,2.54526 148.22657,-9.36132 57.9608,-15.25831 121.38083,-40.87394 174.42578,-100.47071 8.08403,-9.07358 16.11068,-18.17289 21.52929,-28.71484 12.56895,-24.53139 23.09502,-44.61682 23.40625,-75.19727 0.0718,-7.10246 -0.53363,-18.0276 -2.18554,-24.33203 -8.32344,-31.61788 -31.20253,-53.05296 -59.28516,-72.08593 -10.74146,-7.27802 -23.77492,-13.27959 -36.15234,-17.72461 -3.90235,-1.40453 -8.85701,-4.05393 -13.15039,-4.74024 z"
       style="fill:#004082;fill-opacity:1;fill-rule:nonzero;stroke:none" />
  </g>
</svg>
