<?xml version="1.0" encoding="UTF-8"?>
<!-- Generator: Adobe Illustrator 27.2.0, SVG Export Plug-In . SVG Version: 6.00 Build 0)  -->
<svg version="1.1" xmlns="http://www.w3.org/2000/svg" xmlns:xlink="http://www.w3.org/1999/xlink" x="0px" y="0px" viewBox="0 0 1360.63 793.7" style="enable-background:new 0 0 1360.63 793.7;" xml:space="preserve">
<style type="text/css">
	.st0{fill:#FBFDFD;stroke:#1B1D1C;stroke-width:1.0045;stroke-miterlimit:10;}
	.st1{fill:#EF7900;}
	.st2{fill:#C25E17;}
	.st3{fill:#FBFDFD;}
	.st4{fill:#80B650;}
	.st5{fill:#76A93A;}
	.st6{fill:#FFE517;}
	.st7{fill:#FFD702;}
	.st8{fill:#F9FCFD;}
</style>
<g id="Ebene_2">
	<rect class="st0" width="1360.63" height="794.41"/>
</g>
<g id="Ebene_4">
	<path class="st1" d="M1360.63,147.98v442.46C914.91,735.96,448.93,508.06,0,635.72V203.26   C445.72,57.74,911.7,275.64,1360.63,147.98z"/>
	<g>
		<path class="st2" d="M1208.8,407.59c-4.05,28.8-19.75,74.64-65.56,74.64c-34.17,0-50.49-27.86-43.92-74.64    c3.13-22.24,15.09-71.72,64.71-73.31C1198.2,334.28,1215.23,361.81,1208.8,407.59z M1171.16,283.52    c-37.58,0-71.39,14.63-95.87,40.78c-19.6,20.92-33.21,49.22-38,83.29c-10.82,76.97,31.14,125.4,98.81,125.4    c32.98,0,63.25-11.5,86.86-32.21c24.85-21.77,42.33-53.73,47.87-93.19C1281.6,330.96,1238.84,283.52,1171.16,283.52z"/>
		<path class="st2" d="M96.5,289.16l-33.19,236.2h62.03l12.5-88.91h99.85l7.23-51.42h-99.86l6.06-43.12h117.77l7.42-52.75H96.5z"/>
		<path class="st2" d="M426.93,289.16h-124.4l-33.19,236.2h62.03l12.78-88.89h37.82c22.88,0,30.12,12.59,29.13,33.82l-2.43,55.07    h62.03l1.61-65.69c1.24-22.33-6.79-39.65-28.74-45.78c26.93-8.26,46.61-28.81,50.25-57.72    C499.09,318.68,477.69,289.16,426.93,289.16z M411.18,389.37c-4.68,1.7-10.2,2.63-16.61,2.63h-44.46l7.6-54.08h47.77    c20.24,0,27.94,11.28,25.8,26.54C429.7,375.69,423.23,385.03,411.18,389.37z"/>
		<path class="st2" d="M537.24,289.16l-33.2,236.2h62.04l33.19-236.2H537.24z"/>
		<path class="st2" d="M845.67,289.16l-8.73,62.39h69.67l-24.47,173.81h62.04l24.45-173.81h69l8.74-62.39H845.67z"/>
		<path class="st2" d="M691.15,345.4c4.74-8.82,16.2-14.45,32.29-14.45c21.89,0,34.42,2.68,34.56,20.6h60.06    c4.06-47.77-27.53-68.37-87.58-68.37c-58.71,0.65-96.12,25.29-104.32,74.31c-8.14,62.53,50.27,66.4,96.48,78.29    c17.3,4.31,26.8,9.95,24.89,23.55c-3.08,18.54-20.55,23.33-39.48,23.55c-27.2,0-40.54-11.27-39.03-33.83h-61.37    c-5.28,52.45,28.93,84.07,92.08,83.6c35.34,0,64.21-9.27,83.84-26.18c15.01-12.92,24.63-30.32,27.59-51.45    c5.41-38.48-15.26-61.37-55.71-70.99l-46.84-11.28C690.34,368.16,684.97,358.24,691.15,345.4z"/>
	</g>
	<g>
		<path class="st3" d="M1219.72,396.53c-4.05,28.8-19.75,74.64-65.56,74.64c-34.17,0-50.49-27.86-43.92-74.64    c3.13-22.24,15.09-71.72,64.71-73.31C1209.12,323.22,1226.15,350.75,1219.72,396.53z M1182.08,272.46    c-37.58,0-71.39,14.63-95.87,40.78c-19.6,20.92-33.21,49.22-38,83.29c-10.82,76.97,31.14,125.4,98.81,125.4    c32.98,0,63.25-11.5,86.86-32.21c24.85-21.77,42.33-53.73,47.87-93.19C1292.52,319.9,1249.76,272.46,1182.08,272.46z"/>
		<path class="st3" d="M110.42,278.1L77.23,514.3h62.03l12.5-88.91h99.85l7.23-51.42h-99.86l6.06-43.12h117.77l7.42-52.75H110.42z"/>
		<path class="st3" d="M439.85,278.1h-124.4l-33.19,236.2h62.03l12.78-88.89h37.82c22.88,0,30.12,12.59,29.13,33.82l-2.43,55.07    h62.03l1.61-65.69c1.24-22.33-6.79-39.65-28.74-45.78c26.93-8.26,46.61-28.81,50.25-57.72    C512.01,307.62,490.61,278.1,439.85,278.1z M424.1,378.31c-4.68,1.7-10.2,2.63-16.61,2.63h-44.46l7.6-54.08h47.77    c20.24,0,27.94,11.28,25.8,26.54C442.62,364.63,436.15,373.97,424.1,378.31z"/>
		<path class="st3" d="M550.16,278.1l-33.2,236.2H579l33.19-236.2H550.16z"/>
		<path class="st3" d="M858.59,278.1l-8.73,62.39h69.67L895.06,514.3h62.04l24.45-173.81h69l8.74-62.39H858.59z"/>
		<path class="st3" d="M701.07,334.34c4.74-8.82,16.2-14.45,32.29-14.45c21.89,0,34.42,2.68,34.56,20.6h60.06    c4.06-47.77-27.53-68.37-87.58-68.37c-58.71,0.65-96.12,25.29-104.32,74.31c-8.14,62.53,50.27,66.4,96.48,78.29    c17.3,4.31,26.8,9.95,24.89,23.55c-3.08,18.54-20.55,23.33-39.48,23.55c-27.2,0-40.54-11.27-39.03-33.83h-61.37    c-5.28,52.45,28.93,84.07,92.08,83.6c35.34,0,64.21-9.27,83.84-26.18c15.01-12.92,24.63-30.32,27.59-51.45    c5.41-38.48-15.26-61.37-55.71-70.99l-46.84-11.28C700.25,357.1,694.89,347.18,701.07,334.34z"/>
	</g>
	<path class="st4" d="M1360.63,610.7v183H0V679.2c179.11-28.74,357.78-17.68,535.65,1.58   C811.46,717.97,1104.58,743.98,1360.63,610.7z"/>
	<path class="st5" d="M1360.63,610.7c-256.05,133.28-549.17,107.27-824.98,70.08C357.78,661.52,179.11,650.46,0,679.2v-22.57   C451.54,555.18,919.55,782.1,1360.63,610.7z"/>
	<path class="st3" d="M1360.63,590.44v20.26C919.55,782.1,451.54,555.18,0,656.63v-20.91   C448.93,508.06,914.91,735.96,1360.63,590.44z"/>
	<path class="st6" d="M1360.63,0v104.5c-179.11,28.74-357.78,27.68-535.65,8.42C549.17,75.73,256.05,49.72,0,183V0H1360.63z"/>
	<path class="st7" d="M1360.63,104.5v22.57C909.09,228.52,441.08,11.6,0,183C256.05,49.72,549.17,75.73,824.98,112.92   C1002.85,132.18,1181.52,133.24,1360.63,104.5z"/>
	<path class="st8" d="M0,203.26V183c441.08-171.39,909.09,45.53,1360.63-55.93v20.91C911.7,275.64,445.72,57.74,0,203.26z"/>
</g>
</svg>