<?xml version="1.0" encoding="utf-8"?>
<!-- Generator: Adobe Illustrator 13.0.0, SVG Export Plug-In . SVG Version: 6.00 Build 14948)  -->
<!DOCTYPE svg PUBLIC "-//W3C//DTD SVG 1.1//EN" "http://www.w3.org/Graphics/SVG/1.1/DTD/svg11.dtd">
<svg version="1.1" id="Layer_1" xmlns="http://www.w3.org/2000/svg" xmlns:xlink="http://www.w3.org/1999/xlink" x="0px" y="0px"
	 width="175.748px" height="121.431px" viewBox="0 0 175.748 121.431" enable-background="new 0 0 175.748 121.431"
	 xml:space="preserve">
<g>
	<path fill-rule="evenodd" clip-rule="evenodd" fill="#ED1C24" d="M31.627,94.9H16.582V47.706H0l8.673-15.052h7.909V3.317
		c0,0,0.766-3.317,3.572-3.317c2.806,0,54.837,0,54.837,0l-8.923,15.052c0,0-29.337,0-31.378,0s-2.807,1.53-2.807,1.53v16.072h24.49
		L47.445,47.96H31.627V94.9L31.627,94.9z"/>
	<path fill-rule="evenodd" clip-rule="evenodd" fill="#ED1C24" d="M41.083,94.9V57.916c0,0,0.766-3.316,3.571-3.316
		c2.807,0,28.567,0,28.567,0l-8.924,14.535c0,0-3.066,0-5.107,0s-2.806,1.531-2.806,1.531L56.366,94.9H41.083L41.083,94.9z"/>
	<path fill-rule="evenodd" clip-rule="evenodd" fill="#ED1C24" d="M76.806,90.541l-0.029-35.941h15.562v24.738
		c0,0-0.511,2.297,1.275,2.297c1.785,0,4.847,0,4.847,0V54.573h15.302v50.02l-11.475,16.838h-3.571l0.028-26.553
		c0,0-14.286,0-17.857,0C77.316,94.878,76.806,90.541,76.806,90.541L76.806,90.541z"/>
	<polygon fill-rule="evenodd" clip-rule="evenodd" fill="#ED1C24" points="118.864,54.593 130.854,54.593 122.436,68.369 
		118.963,68.369 118.864,54.593 	"/>
	<path fill-rule="evenodd" clip-rule="evenodd" fill="#ED1C24" d="M137.997,54.593h37.751l-8.163,14.795h-17.342
		c0,0-1.531,0.256-1.531,1.277c0,1.02,0,2.039,0,2.039h21.679v17.42c0,0,1.048,4.762-3.885,4.762c-4.932,0-36.565,0-36.565,0
		l8.674-13.848c0,0,14.115,0,15.816,0c1.7,0,2.041-1.529,2.041-1.529v-2.383h-18.708c0,0-3.231-1.02-3.231-3.57s0-12.416,0-15.307
		C134.532,55.358,137.997,54.593,137.997,54.593L137.997,54.593z"/>
	<path fill-rule="evenodd" clip-rule="evenodd" fill="#ED1C24" d="M54.534,40.639c0-3.765,4.605-5.403,6.909-5.403
		c2.302,0,3.764,0,3.764,0v1.815c0,0-3.321,0-3.276,0c-3.942,0-4.695,2.658-4.695,2.658h7.927v1.859h-7.927
		c0,0,0.753,2.658,4.695,2.658c-0.044,0,3.276,0,3.276,0v1.816c0,0-1.461,0-3.764,0C59.139,46.042,54.534,44.403,54.534,40.639
		L54.534,40.639z"/>
	<path fill-rule="evenodd" clip-rule="evenodd" fill="#ED1C24" d="M75.462,40.639c0-3.765,4.605-5.403,6.908-5.403s3.764,0,3.764,0
		v1.815c0,0-3.321,0-3.277,0c-3.941,0-4.694,2.658-4.694,2.658h7.927v1.859h-7.927c0,0,0.753,2.658,4.694,2.658
		c-0.044,0,3.277,0,3.277,0v1.816c0,0-1.461,0-3.764,0S75.462,44.403,75.462,40.639L75.462,40.639z"/>
	<path fill-rule="evenodd" clip-rule="evenodd" fill="#ED1C24" d="M86.879,40.639c0-3.765,4.605-5.403,6.909-5.403
		c2.303,0,3.764,0,3.764,0v1.815c0,0-3.321,0-3.276,0c-3.941,0-4.694,2.658-4.694,2.658l-0.185,0.816l0.185,1.042
		c0,0,0.753,2.658,4.694,2.658c-0.045,0,3.276,0,3.276,0v1.816c0,0-1.461,0-3.764,0C91.484,46.042,86.879,44.403,86.879,40.639
		L86.879,40.639z"/>
	<path fill-rule="evenodd" clip-rule="evenodd" fill="#ED1C24" d="M151.993,40.639c0-3.765,4.605-5.403,6.908-5.403s3.765,0,3.765,0
		v1.815c0,0-3.321,0-3.277,0c-3.941,0-4.694,2.658-4.694,2.658l-0.185,0.816l0.185,1.042c0,0,0.753,2.658,4.694,2.658
		c-0.044,0,3.277,0,3.277,0v1.816c0,0-1.462,0-3.765,0S151.993,44.403,151.993,40.639L151.993,40.639z"/>
	<path fill-rule="evenodd" clip-rule="evenodd" fill="#ED1C24" d="M68.882,35.236h-2.436c0,0,0,7.563,0,8.228
		c0,0.841,1.373,2.569,3.366,2.569c2.479,0,6.687,0,6.687,0v-1.816c0,0-5.757,0-6.421,0c-0.665,0-1.152-0.753-1.152-0.753
		L68.882,35.236L68.882,35.236z"/>
	<polygon fill-rule="evenodd" clip-rule="evenodd" fill="#ED1C24" points="98.199,35.236 109.492,35.236 109.492,37.096 
		104.931,37.096 104.931,46.033 102.495,46.033 102.495,37.14 98.198,37.14 98.199,35.236 	"/>
	<path fill-rule="evenodd" clip-rule="evenodd" fill="#ED1C24" d="M112.613,46.031h-2.501V35.236h7.219c0,0,3.676,0.221,3.676,2.923
		c0,2.701-2.968,3.011-2.968,3.011l3.568,4.864h-3.012l-3.656-4.774h-2.303L112.613,46.031L112.613,46.031L112.613,46.031z
		 M117.508,39.62c0.222,0,1.24-0.443,1.24-1.373c0-0.93-1.417-1.151-1.417-1.151h-4.716v2.522
		C112.615,39.618,117.286,39.62,117.508,39.62L117.508,39.62z"/>
	<path fill-rule="evenodd" clip-rule="evenodd" fill="#ED1C24" d="M139.738,46.033h-2.479V35.246c0,0,6.334,0,7.396,0
		c0.62,0,3.189,0.576,3.189,2.967s0,7.823,0,7.823h-2.48c0,0,0-7.114,0-7.69s-0.443-1.329-1.328-1.329c-0.886,0-4.296,0-4.296,0
		L139.738,46.033L139.738,46.033z"/>
	<polygon fill-rule="evenodd" clip-rule="evenodd" fill="#ED1C24" points="148.552,35.242 150.943,35.242 150.943,46.032 
		148.552,46.032 148.552,35.242 	"/>
	<path fill-rule="evenodd" clip-rule="evenodd" fill="#ED1C24" d="M163.919,46.031v-1.808h6.599c0,0,1.904-0.045,1.904-1.462
		c0-1.151-1.993-1.588-1.993-1.588h-3.897c0,0-2.922-0.443-2.922-2.878s2.967-3.056,2.967-3.056h7.041v1.859h-6.643
		c0,0-1.239,0.177-1.239,1.151c0,0.975,1.194,1.063,1.194,1.063h3.677c0,0,4.384,0.791,4.384,3.404c0,2.612-2.834,3.321-4.207,3.321
		C169.411,46.038,163.919,46.031,163.919,46.031L163.919,46.031z"/>
	<path fill-rule="evenodd" clip-rule="evenodd" fill="#ED1C24" d="M129.333,35.218c3.809,0,6.775,2.923,6.775,5.448
		c0,2.657-2.392,5.536-6.819,5.536c-4.828,0-7.308-3.012-7.308-5.403C121.981,38.407,124.284,35.218,129.333,35.218L129.333,35.218
		L129.333,35.218z M124.417,40.754c0,1.815,2.17,3.587,4.694,3.587s4.783-1.683,4.783-3.499c0-2.081-2.436-3.897-4.65-3.897
		C126.188,36.946,124.417,38.938,124.417,40.754L124.417,40.754z"/>
</g>
</svg>
