<svg width="226" height="40" viewBox="0 0 226 40" fill="none" xmlns="http://www.w3.org/2000/svg">
<path d="M67.3029 33.2571C61.1331 33.2571 56.5679 29.0286 56.5679 23.84V15.9314C56.5679 10.7429 61.1331 6.51428 67.3029 6.51428H81.9477V11.2457H67.3029C63.5513 11.2457 61.5173 13.3029 61.5173 15.9314V23.84C61.5173 26.4457 63.5513 28.5257 67.3029 28.5257H77.1113V22.2171H68.1391V17.5543H82.0607V33.2571H67.3029Z" fill="#00209A"/>
<path d="M107.553 33.2571V24.6171H91.9818V33.2571H87.0098V15.1543C87.0098 9.96571 90.7614 6.51428 96.9086 6.51428H102.581C108.751 6.51428 112.48 9.96571 112.48 15.1543V33.2571H107.553ZM107.553 15.1543C107.553 12.5486 106.333 11.2686 102.604 11.2686H96.9312C93.1796 11.2686 91.9818 12.5486 91.9818 15.1543V19.8857H107.553V15.1543Z" fill="#00209A"/>
<path d="M131.374 33.2114H117.565V28.5714H131.374C133.679 28.5714 135.623 27.7029 135.623 25.28C135.623 22.88 133.747 22.1714 131.374 22.1714H125.701C120.413 22.1714 116.616 19.6571 116.616 14.4686C116.616 9.28 121.249 6.53714 125.701 6.53714H139.51V11.1771H125.701C123.396 11.1771 121.453 12.0457 121.453 14.4686C121.453 16.8686 123.328 17.5771 125.701 17.5771H131.374C136.662 17.5771 140.459 20.0914 140.459 25.28C140.459 30.4686 135.849 33.2114 131.374 33.2114Z" fill="#00209A"/>
<path d="M157.974 33.2343H144.166V28.5943H157.974C160.279 28.5943 162.223 27.7257 162.223 25.3029C162.223 22.9029 160.347 22.1943 157.974 22.1943H152.302C147.013 22.1943 143.216 19.68 143.216 14.4914C143.216 9.30285 147.849 6.56 152.302 6.56H166.11V11.2H152.302C149.996 11.2 148.053 12.0686 148.053 14.4914C148.053 16.8914 149.929 17.6 152.302 17.6H157.974C163.263 17.6 167.059 20.1143 167.059 25.3029C167.059 30.5143 162.426 33.2343 157.974 33.2343Z" fill="#00209A"/>
<path d="M181.207 33.2571C175.037 33.2571 170.472 29.0286 170.472 23.84V15.9314C170.472 10.7429 175.037 6.51428 181.207 6.51428H194.179V11.2457H181.207C177.455 11.2457 175.421 13.3029 175.421 15.9314V23.84C175.421 26.4457 177.455 28.5257 181.207 28.5257H194.179V33.2571H181.207Z" fill="#00209A"/>
<path d="M210.429 34.08C202.722 34.08 196.439 27.7257 196.439 19.9314C196.439 12.0914 202.722 5.78287 210.429 5.78287C218.181 5.78287 224.463 12.0686 224.463 19.9314C224.463 27.7486 218.181 34.08 210.429 34.08ZM210.474 10.5372C205.299 10.5372 201.163 14.7657 201.163 19.9543C201.163 25.1429 205.299 29.3714 210.474 29.3714C215.604 29.3714 219.717 25.1429 219.717 19.9543C219.717 14.7657 215.604 10.5372 210.474 10.5372Z" fill="#00209A"/>
<path d="M67.3029 33.2571C61.1331 33.2571 56.5679 29.0286 56.5679 23.84V15.9314C56.5679 10.7429 61.1331 6.51428 67.3029 6.51428H81.9477V11.2457H67.3029C63.5513 11.2457 61.5173 13.3029 61.5173 15.9314V23.84C61.5173 26.4457 63.5513 28.5257 67.3029 28.5257H77.1113V22.2171H68.1391V17.5543H82.0607V33.2571H67.3029Z" fill="#00209A"/>
<path d="M107.553 33.2571V24.6171H91.9818V33.2571H87.0098V15.1543C87.0098 9.96571 90.7614 6.51428 96.9086 6.51428H102.581C108.751 6.51428 112.48 9.96571 112.48 15.1543V33.2571H107.553ZM107.553 15.1543C107.553 12.5486 106.333 11.2686 102.604 11.2686H96.9312C93.1796 11.2686 91.9818 12.5486 91.9818 15.1543V19.8857H107.553V15.1543Z" fill="#00209A"/>
<path d="M131.374 33.2114H117.565V28.5714H131.374C133.679 28.5714 135.623 27.7029 135.623 25.28C135.623 22.88 133.747 22.1714 131.374 22.1714H125.701C120.413 22.1714 116.616 19.6571 116.616 14.4686C116.616 9.28 121.249 6.53714 125.701 6.53714H139.51V11.1771H125.701C123.396 11.1771 121.453 12.0457 121.453 14.4686C121.453 16.8686 123.328 17.5771 125.701 17.5771H131.374C136.662 17.5771 140.459 20.0914 140.459 25.28C140.459 30.4686 135.849 33.2114 131.374 33.2114Z" fill="#00209A"/>
<path d="M157.974 33.2343H144.166V28.5943H157.974C160.279 28.5943 162.223 27.7257 162.223 25.3029C162.223 22.9029 160.347 22.1943 157.974 22.1943H152.302C147.013 22.1943 143.216 19.68 143.216 14.4914C143.216 9.30285 147.849 6.56 152.302 6.56H166.11V11.2H152.302C149.996 11.2 148.053 12.0686 148.053 14.4914C148.053 16.8914 149.929 17.6 152.302 17.6H157.974C163.263 17.6 167.059 20.1143 167.059 25.3029C167.059 30.5143 162.426 33.2343 157.974 33.2343Z" fill="#00209A"/>
<path d="M181.207 33.2571C175.037 33.2571 170.472 29.0286 170.472 23.84V15.9314C170.472 10.7429 175.037 6.51428 181.207 6.51428H194.179V11.2457H181.207C177.455 11.2457 175.421 13.3029 175.421 15.9314V23.84C175.421 26.4457 177.455 28.5257 181.207 28.5257H194.179V33.2571H181.207Z" fill="#00209A"/>
<path d="M210.429 34.08C202.722 34.08 196.439 27.7257 196.439 19.9314C196.439 12.0914 202.722 5.78287 210.429 5.78287C218.181 5.78287 224.463 12.0686 224.463 19.9314C224.463 27.7486 218.181 34.08 210.429 34.08ZM210.474 10.5372C205.299 10.5372 201.163 14.7657 201.163 19.9543C201.163 25.1429 205.299 29.3714 210.474 29.3714C215.604 29.3714 219.717 25.1429 219.717 19.9543C219.717 14.7657 215.604 10.5372 210.474 10.5372Z" fill="#00209A"/>
<path d="M0.723145 1.07428L19.3681 19.9314L0.723145 38.7886H9.85354L28.5211 19.9314L9.87614 1.07428H0.723145Z" fill="#00209A"/>
<path d="M13.0402 1.07428L31.6626 19.9314L13.0176 38.7886H28.4986L47.1436 19.9314L28.4986 1.07428H13.0402Z" fill="#00209A"/>
</svg>
