<?xml version="1.0" encoding="UTF-8" standalone="no"?>
<!-- Created with Inkscape (http://www.inkscape.org/) -->
<svg
   xmlns:svg="http://www.w3.org/2000/svg"
   xmlns="http://www.w3.org/2000/svg"
   version="1.0"
   width="498.81"
   height="99.169998"
   id="svg2">
  <defs
     id="defs4">
    <clipPath
       id="clipPath3785">
      <path
         d="M 0,651.99 L 878.76,651.99 L 878.76,0.03 L 0,0.03 L 0,651.99 z"
         id="path3787" />
    </clipPath>
    <clipPath
       id="clipPath3779">
      <path
         d="M 0,651 L 878.74,651 L 878.74,-0.968 L 0,-0.968 L 0,651 z"
         id="path3781" />
    </clipPath>
    <clipPath
       id="clipPath3769">
      <path
         d="M 0,651.99 L 878.76,651.99 L 878.76,0.03 L 0,0.03 L 0,651.99 z"
         id="path3771" />
    </clipPath>
    <clipPath
       id="clipPath3763">
      <path
         d="M 0,651 L 878.74,651 L 878.74,-0.968 L 0,-0.968 L 0,651 z"
         id="path3765" />
    </clipPath>
    <clipPath
       id="clipPath3757">
      <path
         d="M 264.911,346.35 C 264.911,343.486 261.519,341.161 257.34,341.161 C 253.161,341.161 249.768,343.486 249.768,346.35 C 249.768,349.214 253.161,351.539 257.34,351.539 C 261.519,351.539 264.911,349.214 264.911,346.35 z"
         id="path3759" />
    </clipPath>
    <clipPath
       id="clipPath3745">
      <path
         d="M 0,651.99 L 878.76,651.99 L 878.76,0.03 L 0,0.03 L 0,651.99 z"
         id="path3747" />
    </clipPath>
    <clipPath
       id="clipPath3739">
      <path
         d="M 0,651 L 878.74,651 L 878.74,-0.968 L 0,-0.968 L 0,651 z"
         id="path3741" />
    </clipPath>
    <clipPath
       id="clipPath3729">
      <path
         d="M 0,651.99 L 878.76,651.99 L 878.76,0.03 L 0,0.03 L 0,651.99 z"
         id="path3731" />
    </clipPath>
    <clipPath
       id="clipPath3723">
      <path
         d="M 0,651 L 878.74,651 L 878.74,-0.968 L 0,-0.968 L 0,651 z"
         id="path3725" />
    </clipPath>
    <clipPath
       id="clipPath3717">
      <path
         d="M 264.612,263.85 C 264.612,260.986 261.219,258.661 257.04,258.661 C 252.861,258.661 249.469,260.986 249.469,263.85 C 249.469,266.714 252.861,269.039 257.04,269.039 C 261.219,269.039 264.612,266.714 264.612,263.85 z"
         id="path3719" />
    </clipPath>
    <clipPath
       id="clipPath3705">
      <path
         d="M 0,651.99 L 878.76,651.99 L 878.76,0.03 L 0,0.03 L 0,651.99 z"
         id="path3707" />
    </clipPath>
    <clipPath
       id="clipPath3699">
      <path
         d="M 0,651 L 878.74,651 L 878.74,-0.968 L 0,-0.968 L 0,651 z"
         id="path3701" />
    </clipPath>
    <clipPath
       id="clipPath3689">
      <path
         d="M 0,651.99 L 878.76,651.99 L 878.76,0.03 L 0,0.03 L 0,651.99 z"
         id="path3691" />
    </clipPath>
    <clipPath
       id="clipPath3683">
      <path
         d="M 0,651 L 878.74,651 L 878.74,-0.968 L 0,-0.968 L 0,651 z"
         id="path3685" />
    </clipPath>
    <clipPath
       id="clipPath3677">
      <path
         d="M 264.612,278.07 C 264.612,275.206 261.219,272.881 257.04,272.881 C 252.861,272.881 249.469,275.206 249.469,278.07 C 249.469,280.934 252.861,283.259 257.04,283.259 C 261.219,283.259 264.612,280.934 264.612,278.07 z"
         id="path3679" />
    </clipPath>
    <clipPath
       id="clipPath3665">
      <path
         d="M 0,651.99 L 878.76,651.99 L 878.76,0.03 L 0,0.03 L 0,651.99 z"
         id="path3667" />
    </clipPath>
    <clipPath
       id="clipPath3659">
      <path
         d="M 0,651 L 878.74,651 L 878.74,-0.968 L 0,-0.968 L 0,651 z"
         id="path3661" />
    </clipPath>
    <clipPath
       id="clipPath3649">
      <path
         d="M 0,651.99 L 878.76,651.99 L 878.76,0.03 L 0,0.03 L 0,651.99 z"
         id="path3651" />
    </clipPath>
    <clipPath
       id="clipPath3643">
      <path
         d="M 0,651 L 878.74,651 L 878.74,-0.968 L 0,-0.968 L 0,651 z"
         id="path3645" />
    </clipPath>
    <clipPath
       id="clipPath3637">
      <path
         d="M 264.612,291.87 C 264.612,289.005 261.219,286.681 257.04,286.681 C 252.861,286.681 249.469,289.005 249.469,291.87 C 249.469,294.735 252.861,297.06 257.04,297.06 C 261.219,297.06 264.612,294.735 264.612,291.87 z"
         id="path3639" />
    </clipPath>
    <clipPath
       id="clipPath3625">
      <path
         d="M 0,651.99 L 878.76,651.99 L 878.76,0.03 L 0,0.03 L 0,651.99 z"
         id="path3627" />
    </clipPath>
    <clipPath
       id="clipPath3619">
      <path
         d="M 0,651 L 878.74,651 L 878.74,-0.968 L 0,-0.968 L 0,651 z"
         id="path3621" />
    </clipPath>
    <clipPath
       id="clipPath3609">
      <path
         d="M 0,651.99 L 878.76,651.99 L 878.76,0.03 L 0,0.03 L 0,651.99 z"
         id="path3611" />
    </clipPath>
    <clipPath
       id="clipPath3603">
      <path
         d="M 0,651 L 878.74,651 L 878.74,-0.968 L 0,-0.968 L 0,651 z"
         id="path3605" />
    </clipPath>
    <clipPath
       id="clipPath3597">
      <path
         d="M 264.612,315.99 C 264.612,313.125 261.219,310.801 257.04,310.801 C 252.861,310.801 249.469,313.125 249.469,315.99 C 249.469,318.855 252.861,321.18 257.04,321.18 C 261.219,321.18 264.612,318.855 264.612,315.99 z"
         id="path3599" />
    </clipPath>
    <clipPath
       id="clipPath3531">
      <path
         d="M 0,651.99 L 878.76,651.99 L 878.76,0.03 L 0,0.03 L 0,651.99 z"
         id="path3533" />
    </clipPath>
    <clipPath
       id="clipPath3525">
      <path
         d="M 0,651 L 878.74,651 L 878.74,-0.968 L 0,-0.968 L 0,651 z"
         id="path3527" />
    </clipPath>
    <clipPath
       id="clipPath3359">
      <path
         d="M 629.947,196.23 L 841.559,196.23 L 841.559,103.043 L 629.947,103.043 L 629.947,196.23 z"
         id="path3361" />
    </clipPath>
    <clipPath
       id="clipPath3281">
      <path
         d="M 0,651.99 L 878.76,651.99 L 878.76,0.03 L 0,0.03 L 0,651.99 z"
         id="path3283" />
    </clipPath>
    <clipPath
       id="clipPath3275">
      <path
         d="M 0,651 L 878.74,651 L 878.74,-0.968 L 0,-0.968 L 0,651 z"
         id="path3277" />
    </clipPath>
    <clipPath
       id="clipPath2929">
      <path
         d="M 0,651.99 L 878.76,651.99 L 878.76,0.03 L 0,0.03 L 0,651.99 z"
         id="path2931" />
    </clipPath>
    <clipPath
       id="clipPath2923">
      <path
         d="M 0,651 L 878.74,651 L 878.74,-0.968 L 0,-0.968 L 0,651 z"
         id="path2925" />
    </clipPath>
    <clipPath
       id="clipPath2911">
      <path
         d="M 538.583,651 L 858.898,651 L 858.898,190.232 L 538.583,190.232 L 538.583,651 z"
         id="path2913" />
    </clipPath>
    <clipPath
       id="clipPath2901">
      <path
         d="M 0,651.99 L 878.76,651.99 L 878.76,0.03 L 0,0.03 L 0,651.99 z"
         id="path2903" />
    </clipPath>
    <clipPath
       id="clipPath2895">
      <path
         d="M 0,651 L 878.74,651 L 878.74,-0.968 L 0,-0.968 L 0,651 z"
         id="path2897" />
    </clipPath>
  </defs>
  <g
     transform="translate(0.8331237,-1.6291098)"
     id="layer1">
    <g
       transform="matrix(2.6356525,0,0,2.6356525,-784.62861,-2240.6381)"
       id="g4725">
      <path
         d="M 334.98125,863.15906 C 335.02,865.26406 334.7925,866.99531 333.37125,868.64531 C 331.94625,870.29531 329.78,871.24406 327.61875,871.24406 C 323.24625,871.24406 319.61625,867.61531 319.61625,863.24281 C 319.61625,858.78781 323.24625,855.15781 327.72,855.15781 C 330.44125,855.15781 332.6475,856.37406 334.2975,858.52031 L 333.0425,859.69531 C 331.74,857.86031 329.98625,856.76656 327.6975,856.76656 C 324.15,856.76656 321.3475,859.75656 321.3475,863.26281 C 321.3475,864.91156 322.00625,866.48156 323.1625,867.65656 C 324.295,868.79031 325.9475,869.63406 327.575,869.63406 C 330.27625,869.63406 333.1225,867.65656 333.1225,864.76906 L 328.505,864.76906 L 328.505,863.15906 L 334.98125,863.15906"
         id="path3287"
         style="fill:#231f20;fill-opacity:1;fill-rule:nonzero;stroke:none" />
      <path
         d="M 342.3,867.28406 L 346.7325,855.42531 L 348.61,855.42531 L 342.3,871.90406 L 335.99,855.42531 L 337.86625,855.42531 L 342.3,867.28406"
         id="path3289"
         style="fill:#231f20;fill-opacity:1;fill-rule:nonzero;stroke:none" />
      <path
         d="M 352.32375,854.53906 L 357.975,867.59281 L 363.64625,854.53906 L 366.8,870.97531 L 365.0275,870.97531 L 363.0275,860.45906 L 362.98375,860.45906 L 357.975,871.61656 L 352.98125,860.45906 L 352.94125,860.45906 L 350.9425,870.97531 L 349.16625,870.97531 L 352.32375,854.53906"
         id="path3291"
         style="fill:#231f20;fill-opacity:1;fill-rule:nonzero;stroke:none" />
      <path
         d="M 327.53875,880.04656 C 327.56,881.17406 327.44125,882.10156 326.6775,882.98531 C 325.915,883.86906 324.755,884.37656 323.59375,884.37656 C 321.25375,884.37656 319.30875,882.43156 319.30875,880.09156 C 319.30875,877.70281 321.25375,875.75781 323.65125,875.75781 C 325.10875,875.75781 326.29125,876.41281 327.17375,877.56031 L 326.50125,878.19031 C 325.80625,877.20656 324.86625,876.62031 323.64,876.62031 C 321.7375,876.62031 320.2375,878.22281 320.2375,880.10031 C 320.2375,880.98531 320.58875,881.82531 321.2075,882.45531 C 321.8175,883.06156 322.7,883.51656 323.57125,883.51656 C 325.0225,883.51656 326.54375,882.45531 326.54375,880.90781 L 324.07125,880.90781 L 324.07125,880.04656 L 327.53875,880.04656"
         id="path3293"
         style="fill:#231f20;fill-opacity:1;fill-rule:nonzero;stroke:none" />
      <path
         d="M 331.00875,879.71406 C 332.1025,879.71406 332.75375,880.55531 332.75375,881.59281 C 332.75375,882.64406 332.15625,883.56031 331.02125,883.56031 C 329.915,883.56031 329.3175,882.59781 329.3175,881.58156 C 329.3175,880.60906 329.98,879.71406 331.00875,879.71406 z M 333.59625,879.03906 L 332.71,879.03906 L 332.71,879.78156 L 332.6875,879.78156 C 332.2575,879.23031 331.61375,878.89781 330.90875,878.89781 C 329.35,878.89781 328.41375,880.16906 328.41375,881.64906 C 328.41375,883.08406 329.3725,884.37656 330.89875,884.37656 C 331.6275,884.37656 332.23625,884.08906 332.6875,883.51656 L 332.71,883.51656 L 332.71,884.23406 L 333.59625,884.23406 L 333.59625,879.03906"
         id="path3295"
         style="fill:#231f20;fill-opacity:1;fill-rule:nonzero;stroke:none" />
      <path
         d="M 337.3275,880.24656 C 337.20875,879.96656 336.94125,879.71406 336.62125,879.71406 C 336.31125,879.71406 335.9825,879.95781 335.9825,880.28906 C 335.9825,880.76281 336.57625,880.94156 337.1825,881.19406 C 337.79375,881.44906 338.38625,881.81281 338.38625,882.68656 C 338.38625,883.67031 337.59125,884.37656 336.63375,884.37656 C 335.7575,884.37656 335.07375,883.88031 334.7975,883.06156 L 335.58375,882.73156 C 335.805,883.21656 336.0575,883.56031 336.64375,883.56031 C 337.1175,883.56031 337.4825,883.23906 337.4825,882.76406 C 337.4825,881.60406 335.14,882.00406 335.14,880.36656 C 335.14,879.49281 335.84875,878.89781 336.68875,878.89781 C 337.28375,878.89781 337.8375,879.31531 338.06875,879.85906 L 337.3275,880.24656"
         id="path3297"
         style="fill:#231f20;fill-opacity:1;fill-rule:nonzero;stroke:none" />
      <path
         d="M 341.36,882.53156 L 342.9075,879.03906 L 343.90125,879.03906 L 341.36,884.57656 L 338.81,879.03906 L 339.8125,879.03906 L 341.36,882.53156"
         id="path3299"
         style="fill:#231f20;fill-opacity:1;fill-rule:nonzero;stroke:none" />
      <path
         d="M 345.19625,881.82531 C 345.2025,882.78656 345.89,883.56031 346.89625,883.56031 C 347.6475,883.56031 348.1325,883.10781 348.47625,882.48781 L 349.2275,882.91781 C 348.72875,883.84656 347.89,884.37656 346.83125,884.37656 C 345.28375,884.37656 344.28875,883.19531 344.28875,881.70281 C 344.28875,880.16906 345.18125,878.89781 346.80875,878.89781 C 348.47625,878.89781 349.35875,880.27781 349.2725,881.82531 L 345.19625,881.82531 z M 348.3425,881.07406 C 348.2225,880.32281 347.59,879.71406 346.82,879.71406 C 346.0575,879.71406 345.3475,880.32281 345.24,881.07406 L 348.3425,881.07406"
         id="path3301"
         style="fill:#231f20;fill-opacity:1;fill-rule:nonzero;stroke:none" />
      <path
         d="M 351.32625,879.60406 L 351.3475,879.60406 C 351.65875,879.19531 351.9225,878.89781 352.4975,878.89781 C 352.79375,878.89781 353.04,878.99781 353.2925,879.14031 L 352.87375,879.94781 C 352.69625,879.82656 352.5725,879.71406 352.34125,879.71406 C 351.36875,879.71406 351.32625,880.96281 351.32625,881.63656 L 351.32625,884.23406 L 350.44375,884.23406 L 350.44375,879.03906 L 351.32625,879.03906 L 351.32625,879.60406"
         id="path3303"
         style="fill:#231f20;fill-opacity:1;fill-rule:nonzero;stroke:none" />
      <path
         d="M 356.6725,879.71406 C 357.76625,879.71406 358.4175,880.55531 358.4175,881.59281 C 358.4175,882.64406 357.82375,883.56031 356.685,883.56031 C 355.57875,883.56031 354.98125,882.59781 354.98125,881.58156 C 354.98125,880.60906 355.64625,879.71406 356.6725,879.71406 z M 354.1425,884.23406 L 355.02875,884.23406 L 355.02875,883.51656 L 355.05,883.51656 C 355.46875,884.07906 356.12125,884.37656 356.84,884.37656 C 358.3625,884.37656 359.325,883.08406 359.325,881.63656 C 359.325,880.16906 358.37375,878.89781 356.825,878.89781 C 356.12125,878.89781 355.46875,879.23031 355.05,879.78156 L 355.02875,879.78156 L 355.02875,875.11906 L 354.1425,875.11906 L 354.1425,884.23406"
         id="path3305"
         style="fill:#231f20;fill-opacity:1;fill-rule:nonzero;stroke:none" />
      <path
         d="M 361.37875,881.93656 C 361.37875,882.80781 361.48,883.56031 362.55,883.56031 C 363.62375,883.56031 363.7225,882.80781 363.7225,881.93656 L 363.7225,879.03906 L 364.6075,879.03906 L 364.6075,882.03656 C 364.6075,883.41781 364.08625,884.37656 362.55,884.37656 C 361.0175,884.37656 360.49625,883.41781 360.49625,882.03656 L 360.49625,879.03906 L 361.37875,879.03906 L 361.37875,881.93656"
         id="path3307"
         style="fill:#231f20;fill-opacity:1;fill-rule:nonzero;stroke:none" />
      <path
         d="M 367.1025,879.67031 L 367.12375,879.67031 C 367.49,879.17281 367.9625,878.89781 368.6025,878.89781 C 370.0425,878.89781 370.37125,879.93406 370.37125,881.15156 L 370.37125,884.23406 L 369.48875,884.23406 L 369.48875,881.30406 C 369.48875,880.46656 369.42375,879.71406 368.39375,879.71406 C 367.17875,879.71406 367.1025,880.84281 367.1025,881.77031 L 367.1025,884.23406 L 366.2175,884.23406 L 366.2175,879.03906 L 367.1025,879.03906 L 367.1025,879.67031"
         id="path3309"
         style="fill:#231f20;fill-opacity:1;fill-rule:nonzero;stroke:none" />
      <path
         d="M 374.2075,879.71406 C 375.30125,879.71406 375.9525,880.55531 375.9525,881.59281 C 375.9525,882.64406 375.355,883.56031 374.21875,883.56031 C 373.11375,883.56031 372.51625,882.59781 372.51625,881.58156 C 372.51625,880.60906 373.1775,879.71406 374.2075,879.71406 z M 375.90875,884.23406 L 376.79,884.23406 L 376.79,875.11906 L 375.90875,875.11906 L 375.90875,879.78156 L 375.88625,879.78156 C 375.4675,879.23031 374.80125,878.89781 374.10625,878.89781 C 372.5475,878.89781 371.60875,880.16906 371.60875,881.64906 C 371.60875,883.08406 372.57,884.37656 374.09625,884.37656 C 374.80125,884.37656 375.45625,884.07906 375.88625,883.51656 L 375.90875,883.51656 L 375.90875,884.23406"
         id="path3311"
         style="fill:#231f20;fill-opacity:1;fill-rule:nonzero;stroke:none" />
      <path
         d="M 382.9125,875.43031 L 385.93875,882.42156 L 388.97625,875.43031 L 390.66875,884.23406 L 389.7175,884.23406 L 388.6475,878.59906 L 388.62625,878.59906 L 385.93875,884.57656 L 383.2675,878.59906 L 383.245,878.59906 L 382.17125,884.23406 L 381.225,884.23406 L 382.9125,875.43031"
         id="path3313"
         style="fill:#231f20;fill-opacity:1;fill-rule:nonzero;stroke:none" />
      <path
         d="M 392.33625,876.45656 C 391.9925,876.45656 391.70625,876.74406 391.70625,877.08531 C 391.70625,877.44031 391.9925,877.71531 392.33625,877.71531 C 392.68,877.71531 392.96625,877.44031 392.96625,877.08531 C 392.96625,876.74406 392.68,876.45656 392.33625,876.45656 z M 392.7775,879.03906 L 391.895,879.03906 L 391.895,884.23406 L 392.7775,884.23406 L 392.7775,879.03906"
         id="path3315"
         style="fill:#231f20;fill-opacity:1;fill-rule:nonzero;stroke:none" />
      <path
         d="M 395.55125,884.23406 L 394.6675,884.23406 L 394.6675,879.85906 L 394.12625,879.85906 L 394.12625,879.03906 L 394.6675,879.03906 L 394.6675,877.17406 L 395.55125,877.17406 L 395.55125,879.03906 L 396.48,879.03906 L 396.48,879.85906 L 395.55125,879.85906 L 395.55125,884.23406"
         id="path3317"
         style="fill:#231f20;fill-opacity:1;fill-rule:nonzero;stroke:none" />
      <path
         d="M 398.20125,884.23406 L 397.31875,884.23406 L 397.31875,879.85906 L 396.77625,879.85906 L 396.77625,879.03906 L 397.31875,879.03906 L 397.31875,877.17406 L 398.20125,877.17406 L 398.20125,879.03906 L 399.13125,879.03906 L 399.13125,879.85906 L 398.20125,879.85906 L 398.20125,884.23406"
         id="path3319"
         style="fill:#231f20;fill-opacity:1;fill-rule:nonzero;stroke:none" />
      <path
         d="M 400.415,881.07406 C 400.5225,880.32281 401.23125,879.71406 401.99125,879.71406 C 402.765,879.71406 403.395,880.32281 403.5175,881.07406 L 400.415,881.07406 z M 404.44625,881.82531 C 404.53375,880.27781 403.65125,878.89781 401.98,878.89781 C 400.35625,878.89781 399.46375,880.16906 399.46375,881.70281 C 399.46375,883.19531 400.4575,884.37656 402.0025,884.37656 C 403.065,884.37656 403.90375,883.84656 404.4,882.91781 L 403.65125,882.48781 C 403.3075,883.10781 402.81875,883.56031 402.07125,883.56031 C 401.065,883.56031 400.37875,882.78656 400.3675,881.82531 L 404.44625,881.82531"
         id="path3321"
         style="fill:#231f20;fill-opacity:1;fill-rule:nonzero;stroke:none" />
      <path
         d="M 405.64,884.23406 L 406.52272,884.23406 L 406.52272,875.11831 L 405.64,875.11831 L 405.64,884.23406 z"
         id="path3323"
         style="fill:#231f20;fill-opacity:1;fill-rule:nonzero;stroke:none" />
      <path
         d="M 408.14625,884.23406 L 409.0321,884.23406 L 409.0321,875.11831 L 408.14625,875.11831 L 408.14625,884.23406 z"
         id="path3325"
         style="fill:#231f20;fill-opacity:1;fill-rule:nonzero;stroke:none" />
      <path
         d="M 412.82875,879.71406 C 413.92375,879.71406 414.575,880.55531 414.575,881.59281 C 414.575,882.64406 413.97875,883.56031 412.84375,883.56031 C 411.73625,883.56031 411.14,882.59781 411.14,881.58156 C 411.14,880.60906 411.80125,879.71406 412.82875,879.71406 z M 415.4175,879.03906 L 414.53125,879.03906 L 414.53125,879.78156 L 414.51,879.78156 C 414.08,879.23031 413.44,878.89781 412.73125,878.89781 C 411.1725,878.89781 410.23625,880.16906 410.23625,881.64906 C 410.23625,883.08406 411.19375,884.37656 412.72,884.37656 C 413.45125,884.37656 414.05875,884.08906 414.51,883.51656 L 414.53125,883.51656 L 414.53125,884.23406 L 415.4175,884.23406 L 415.4175,879.03906"
         id="path3327"
         style="fill:#231f20;fill-opacity:1;fill-rule:nonzero;stroke:none" />
      <path
         d="M 417.935,879.67031 L 417.95625,879.67031 C 418.32125,879.17281 418.795,878.89781 419.44,878.89781 C 420.875,878.89781 421.20625,879.93406 421.20625,881.15156 L 421.20625,884.23406 L 420.32125,884.23406 L 420.32125,881.30406 C 420.32125,880.46656 420.25625,879.71406 419.22875,879.71406 C 418.01,879.71406 417.935,880.84281 417.935,881.77031 L 417.935,884.23406 L 417.0525,884.23406 L 417.0525,879.03906 L 417.935,879.03906 L 417.935,879.67031"
         id="path3329"
         style="fill:#231f20;fill-opacity:1;fill-rule:nonzero;stroke:none" />
      <path
         d="M 425.0375,879.71406 C 426.1325,879.71406 426.7825,880.55531 426.7825,881.59281 C 426.7825,882.64406 426.1875,883.56031 425.05125,883.56031 C 423.945,883.56031 423.3475,882.59781 423.3475,881.58156 C 423.3475,880.60906 424.01,879.71406 425.0375,879.71406 z M 426.74,884.23406 L 427.62625,884.23406 L 427.62625,875.11906 L 426.74,875.11906 L 426.74,879.78156 L 426.7175,879.78156 C 426.29875,879.23031 425.63375,878.89781 424.93875,878.89781 C 423.38,878.89781 422.44375,880.16906 422.44375,881.64906 C 422.44375,883.08406 423.4025,884.37656 424.92875,884.37656 C 425.63375,884.37656 426.2875,884.07906 426.7175,883.51656 L 426.74,883.51656 L 426.74,884.23406"
         id="path3331"
         style="fill:#231f20;fill-opacity:1;fill-rule:nonzero;stroke:none" />
      <path
         d="M 437.10375,881.00781 L 434.28625,881.00781 L 435.7125,877.67156 L 437.10375,881.00781 z M 437.46875,881.87031 L 438.4525,884.23406 L 439.48,884.23406 L 435.7325,875.50531 L 431.88875,884.23406 L 432.90625,884.23406 L 433.91125,881.87031 L 437.46875,881.87031"
         id="path3333"
         style="fill:#231f20;fill-opacity:1;fill-rule:nonzero;stroke:none" />
      <path
         d="M 448.12875,880.04656 C 448.15,881.17406 448.02875,882.10156 447.26875,882.98531 C 446.50625,883.86906 445.345,884.37656 444.18375,884.37656 C 441.845,884.37656 439.9,882.43156 439.9,880.09156 C 439.9,877.70281 441.845,875.75781 444.2425,875.75781 C 445.69875,875.75781 446.88125,876.41281 447.76375,877.56031 L 447.09125,878.19031 C 446.3925,877.20656 445.45625,876.62031 444.23125,876.62031 C 442.3275,876.62031 440.82625,878.22281 440.82625,880.10031 C 440.82625,880.98531 441.18,881.82531 441.7975,882.45531 C 442.405,883.06156 443.29125,883.51656 444.1625,883.51656 C 445.61375,883.51656 447.13625,882.45531 447.13625,880.90781 L 444.6625,880.90781 L 444.6625,880.04656 L 448.12875,880.04656"
         id="path3335"
         style="fill:#231f20;fill-opacity:1;fill-rule:nonzero;stroke:none" />
      <path
         d="M 301.17625,872.62656 L 315.80125,872.62656 L 315.80125,863.12118 L 301.17625,863.12118 L 301.17625,872.62656 z"
         id="path3337"
         style="fill:#007cba;fill-opacity:1;fill-rule:nonzero;stroke:none" />
      <path
         d="M 371.955,864.26781 L 482.82375,864.26781 L 482.82375,863.41776 L 371.955,863.41776 L 371.955,864.26781 z"
         id="path3339"
         style="fill:#007cba;fill-opacity:1;fill-rule:nonzero;stroke:none" />
      <path
         d="M 371.9625,868.37281 L 482.83125,868.37281 L 482.83125,867.52242 L 371.9625,867.52242 L 371.9625,868.37281 z"
         id="path3341"
         style="fill:#007cba;fill-opacity:1;fill-rule:nonzero;stroke:none" />
      <path
         d="M 371.97375,872.44906 L 482.8425,872.44906 L 482.8425,871.59868 L 371.97375,871.59868 L 371.97375,872.44906 z"
         id="path3343"
         style="fill:#007cba;fill-opacity:1;fill-rule:nonzero;stroke:none" />
    </g>
  </g>
</svg>
