<?xml version="1.0" encoding="UTF-8" standalone="no"?>
<!-- Generator: Adobe Illustrator 14.0.0, SVG Export Plug-In . SVG Version: 6.00 Build 43363)  -->

<svg
   xmlns:dc="http://purl.org/dc/elements/1.1/"
   xmlns:cc="http://creativecommons.org/ns#"
   xmlns:rdf="http://www.w3.org/1999/02/22-rdf-syntax-ns#"
   xmlns:svg="http://www.w3.org/2000/svg"
   xmlns="http://www.w3.org/2000/svg"
   xmlns:sodipodi="http://sodipodi.sourceforge.net/DTD/sodipodi-0.dtd"
   xmlns:inkscape="http://www.inkscape.org/namespaces/inkscape"
   version="1.1"
   id="Layer_1"
   x="0px"
   y="0px"
   width="157.47"
   height="100.27"
   viewBox="0 0 157.47 100.27"
   enable-background="new 0 0 175.748 119.395"
   xml:space="preserve"
   inkscape:version="0.47 r22583"
   sodipodi:docname="Geek_Squad.svg"><metadata
   id="metadata41"><rdf:RDF><cc:Work
       rdf:about=""><dc:format>image/svg+xml</dc:format><dc:type
         rdf:resource="http://purl.org/dc/dcmitype/StillImage" /></cc:Work></rdf:RDF></metadata><defs
   id="defs39"><inkscape:perspective
     sodipodi:type="inkscape:persp3d"
     inkscape:vp_x="0 : 59.697498 : 1"
     inkscape:vp_y="0 : 1000 : 0"
     inkscape:vp_z="175.748 : 59.697498 : 1"
     inkscape:persp3d-origin="87.874001 : 39.798332 : 1"
     id="perspective43" /><filter
     id="filter2952"
     inkscape:label="Drop shadow"
     width="1.5"
     height="1.5"
     x="-0.25"
     y="-0.25"
     color-interpolation-filters="sRGB"><feGaussianBlur
       id="feGaussianBlur2954"
       in="SourceAlpha"
       stdDeviation="2.000000"
       result="blur" /><feColorMatrix
       id="feColorMatrix2956"
       result="bluralpha"
       type="matrix"
       values="1 0 0 0 0 0 1 0 0 0 0 0 1 0 0 0 0 0 0.500000 0 " /><feOffset
       id="feOffset2958"
       in="bluralpha"
       dx="4.000000"
       dy="4.000000"
       result="offsetBlur" /><feMerge
       id="feMerge2960"><feMergeNode
         id="feMergeNode2962"
         in="offsetBlur" /><feMergeNode
         id="feMergeNode2964"
         in="SourceGraphic" /></feMerge></filter></defs><sodipodi:namedview
   pagecolor="#ffffff"
   bordercolor="#666666"
   borderopacity="1"
   objecttolerance="10"
   gridtolerance="10"
   guidetolerance="10"
   inkscape:pageopacity="0"
   inkscape:pageshadow="2"
   inkscape:window-width="1024"
   inkscape:window-height="520"
   id="namedview37"
   showgrid="false"
   inkscape:zoom="1.9766322"
   inkscape:cx="77.235998"
   inkscape:cy="48.134499"
   inkscape:window-x="-4"
   inkscape:window-y="-4"
   inkscape:window-maximized="1"
   inkscape:current-layer="Layer_1" />
<g
   id="g3"
   transform="translate(-10.638003,-11.561972)"
   style="filter:url(#filter2952)">
	<path
   d="m 87.874,107.832 c 42.657,0 77.236,-21.563 77.236,-48.149 0,-26.572 -34.58,-48.121 -77.236,-48.121 -42.661,0 -77.236,21.548 -77.236,48.121 -10e-4,26.587 34.574,48.149 77.236,48.149 l 0,0 z"
   id="path5" />
	<path
   d="m 87.874,107.832 c 42.657,0 77.236,-21.563 77.236,-48.149 0,-26.572 -34.58,-48.121 -77.236,-48.121 -42.661,0 -77.236,21.548 -77.236,48.121 -10e-4,26.587 34.574,48.149 77.236,48.149 l 0,0 z"
   id="path7" />
	<path
   d="m 87.874,104.207 c 40.832,0 73.926,-19.925 73.926,-44.524 0,-24.57 -33.095,-44.516 -73.926,-44.516 -40.826,0 -73.927,19.945 -73.927,44.516 -10e-4,24.599 33.101,44.524 73.927,44.524 l 0,0 z"
   id="path9"
   style="fill:#f47d30" />
	<path
   d="m 161.626,69.981 c -7.751,20.926 -37.832,36.511 -73.752,36.511 -35.919,0 -65.994,-15.585 -73.749,-36.499 0,0 18.698,0 25.938,0 -1.146,-1.761 -2.67,-1.14 -4.513,-4.895 -0.512,-1.04 -0.756,-2.187 -1.137,-3.269 -1.146,-7.263 1.526,-14.164 5.331,-20.333 3.813,-5.813 8.383,-10.526 13.714,-15.252 4.952,-3.987 10.673,-7.257 17.147,-8.348 4.184,-0.361 11.426,0 11.048,5.091 0,0.715 1.137,0.715 1.524,1.089 1.142,8.708 -4.571,18.144 -14.093,19.243 -0.381,0 -1.148,-0.735 -0.772,-1.463 3.051,-4.717 9.908,-13.064 2.674,-16.333 -3.049,-1.447 -5.714,0.363 -8.382,1.813 -6.86,4.358 -11.806,10.166 -15.622,16.698 -2.667,5.087 -6.475,10.531 -4.574,16.336 0.766,1.818 1.907,2.911 3.435,4.002 1.139,0.725 3.046,0.725 4.193,0.725 5.708,0.362 9.909,-3.625 12.947,-7.995 -6.097,0 -11.808,1.459 -17.9,1.099 -1.526,-3.635 2.658,-6.899 6.092,-7.62 6.86,-1.458 12.957,-1.458 19.811,0 1.519,0.353 2.665,2.537 1.901,3.985 -3.736,6.053 -8.658,12.445 -15.317,15.425 h 15.74 c -2.956,-2.649 -2.564,-7.58 -1.472,-10.697 2.66,-6.176 6.859,-11.256 12.563,-15.622 3.822,-2.549 7.625,-4.353 12.2,-3.629 2.668,0.366 3.432,3.277 2.28,5.459 -3.431,7.616 -11.806,14.136 -20.953,15.241 -1.519,0.359 -0.759,2.168 -0.379,3.259 0.767,1.818 3.052,3.271 4.954,2.549 1.524,-0.729 2.666,-2.549 3.812,-2.549 3.202,0 -0.07,4.498 -1.764,5.989 h 9.25 c -6.129,-4.759 -1.433,-13.309 2.321,-17.968 3.813,-4.358 7.621,-8.352 12.958,-11.255 2.662,-1.092 6.856,-2.908 9.142,-0.359 1.904,2.532 0.383,5.441 -1.138,7.629 -5.342,6.528 -11.431,11.601 -19.821,12.706 -0.379,2.168 0.389,3.995 2.293,5.078 3.053,1.45 4.95,-1.448 7.234,-2.176 1.146,-0.363 1.525,1.093 1.146,2.176 -0.701,1.672 -2.056,3.098 -3.444,4.17 h 5.358 c 0.104,-2.766 0.762,-4.563 1.51,-6.709 4.576,-9.804 10.291,-18.876 13.72,-29.407 0,-1.09 0.375,-2.179 0.375,-3.271 0.769,-2.902 4.188,-3.989 6.866,-5.081 0.763,0 1.522,0.721 1.522,1.445 0,2.547 -1.147,4.366 -1.909,6.906 -1.521,4.358 -5.332,7.248 -6.097,11.976 3.054,-2.178 6.858,-4.354 11.06,-3.63 1.896,0.364 0.752,2.906 -0.772,3.63 -6.092,3.272 -11.426,6.174 -15.999,11.252 0,0.371 0,0.727 0.385,0.727 2.283,-0.727 6.092,-2.901 7.235,-0.355 0.382,1.452 -0.759,3.629 -0.38,5.079 0.38,1.094 1.525,1.82 3.048,1.449 2.67,-0.72 5.711,-5.801 6.483,-2.898 1.113,3.188 -2.588,6.367 -5.242,8.889 l 29.971,-0.013 0,0 z"
   id="path11" />
	<path
   d="m 109.458,46.212 c 1.143,4.37 -4.121,8.355 -8.379,8.355 -0.387,0 -1.523,0 -1.523,-0.354 1.523,-4.003 5.328,-7.27 9.902,-8.001 l 0,0 z"
   id="path13"
   style="fill:#f47d30" />
	<path
   d="m 79.835,54.568 c 1.529,-3.985 4.953,-6.901 9.141,-8.355 0.379,0 1.15,0 1.15,0.364 -0.771,4.727 -5.338,9.085 -10.675,8.353 l 0.384,-0.362 0,0 z"
   id="path15"
   style="fill:#f47d30" />
	<path
   d="m 35.195,82.343 c 0,0 -5.137,-1.091 -4.956,-5.443 0,0 -1.013,-5.691 10.992,-5.514 0,0 11.362,-0.847 12.442,5.879 h -8.189 c 0,0 -1.149,-2.181 -4.192,-2.181 0,0 -2.667,-0.191 -2.858,1.814 0,0 -1.142,1.455 6.862,1.995 0,0 8.948,-0.54 9.136,5.988 0,0 -0.373,6.359 -11.614,5.806 0,0 -11.812,1.093 -12.76,-5.987 h 8.953 c 0,0 0.563,2.185 4.385,1.813 0,0 2.657,0.37 2.657,-1.44 0,0 0.762,-1.452 -4.945,-1.825 0.001,0 -4.203,-0.353 -5.913,-0.905 l 0,0 z"
   id="path17"
   style="fill:#ffffff" />
	<path
   d="m 69.485,73.084 v 1.455 c -2.952,-1.982 -4.948,-1.904 -4.948,-1.904 -4.48,-0.547 -7.238,1.904 -7.238,1.904 -5.722,5.265 -0.767,9.984 -0.767,9.984 5.419,4.076 11.414,1.648 12.953,0.919 v 5.066 h 5.903 V 73.084 h -5.903 l 0,0 z"
   id="path19"
   style="fill:#ffffff" />
	<path
   d="m 65.481,83.138 c 2.016,0 3.939,-1.367 3.939,-3.214 0,-1.851 -2.118,-3.506 -4.128,-3.506 -2.011,0 -3.934,1.54 -3.934,3.386 0,1.837 2.119,3.334 4.123,3.334 l 0,0 z"
   id="path21" />
	<path
   d="m 90.276,77.081 v 7.29 c -1.625,2.813 -4.375,2.514 -4.375,2.514 -2.07,0.104 -2.96,-0.982 -3.335,-1.933 V 77.167 H 76.663 V 84.7 c 0,6.803 6.946,6.168 6.946,6.168 3.445,0 5.692,-1.313 6.667,-2.059 v 1.523 H 96.18 V 77.081 h -5.904 l 0,0 z"
   id="path23"
   style="fill:#ffffff" />
	<path
   d="m 101.51,80.71 -2.089,-2.721 c 0,0 3.719,-1.547 8.188,-1.637 0,0 11.523,-0.901 10.285,6.171 0,0 -0.188,5.084 1.719,5.265 l -0.197,2.546 h -5.895 l -1.717,-1.273 c 0,0 -2.289,1.809 -6.854,1.809 0,0 -7.146,0.562 -7.623,-4.529 0,0 -0.181,-4.361 7.813,-4.539 h 6.664 c 0,0 1.137,-1.996 -4.574,-1.996 -0.001,-0.002 -4.952,0.177 -5.72,0.904 l 0,0 z"
   id="path25"
   style="fill:#ffffff" />
	<path
   d="m 111.931,84.458 c 0,0 0.442,2.79 -4.322,2.79 0,0 -3.244,0.54 -3.244,-1.634 0,0 0.387,-1.454 4.011,-1.454 l 3.555,0.298 0,0 z"
   id="path27" />
	<path
   d="m 134.283,72.359 v 5.756 l -0.573,-0.3 c -3.813,-2.55 -9.529,-2.55 -12.572,0.72 -3.432,3.989 -1.904,10.167 3.426,11.614 3.375,0.919 6.479,0.36 9.524,-0.726 0,0.288 0,0.791 0.195,1 v 0.086 h 0.188 6.094 v -18.15 h -6.282 l 0,0 z"
   id="path29"
   style="fill:#ffffff" />
	<path
   d="m 130.276,86.885 c -1.512,-0.186 -3.047,-0.732 -3.807,-1.812 -0.383,-1.095 -0.383,-2.18 0.377,-3.273 1.524,-1.816 5.813,-1.451 6.862,0 1.741,2.41 -0.382,5.448 -3.432,5.085 l 0,0 z"
   id="path31" />
	<path
   d="m 114.414,69.992 c 1.142,-2.909 3.044,-5.253 5.712,-7.08 1.107,2.476 1.337,5.255 3.08,7.08 h -8.792 l 0,0 z"
   id="path33"
   style="fill:#f47d30" />
	<path
   d="m 150.388,80.382 v -0.64 h 0.387 c 0.207,0 0.412,0.054 0.412,0.307 0,0.317 -0.217,0.333 -0.461,0.333 h -0.338 l 0,0 z m 0,0.269 h 0.325 l 0.499,0.897 h 0.323 l -0.542,-0.911 c 0.283,-0.038 0.492,-0.203 0.492,-0.567 0,-0.409 -0.215,-0.595 -0.664,-0.595 H 150.1 v 2.073 h 0.287 v -0.897 l 0.001,0 z m 0.349,1.65 c 0.893,0 1.654,-0.752 1.654,-1.781 0,-1.044 -0.763,-1.784 -1.654,-1.784 -0.907,0 -1.678,0.74 -1.678,1.784 0.001,1.029 0.771,1.781 1.678,1.781 l 0,0 z m -1.343,-1.781 c 0,-0.858 0.59,-1.491 1.344,-1.491 0.74,0 1.32,0.633 1.32,1.491 0,0.854 -0.58,1.483 -1.32,1.483 -0.757,0 -1.344,-0.631 -1.344,-1.483 l 0,0 z"
   id="path35"
   style="fill:#ffffff" />
</g>
</svg>