<svg xmlns="http://www.w3.org/2000/svg" height="572" width="530"><path style="fill:#fcdd09;stroke:none;stroke-width:8;stroke-linecap:butt;stroke-linejoin:miter;stroke-miterlimit:4;stroke-dasharray:none" d="M5 284h520v48c0 140-130 236-260 236S5 482 5 332z"/><path style="opacity:.98000004;fill:#0f47af;fill-opacity:1;stroke:none;stroke-width:4;stroke-linecap:round;stroke-linejoin:round;stroke-miterlimit:4;stroke-dasharray:none;stroke-dashoffset:0;stroke-opacity:1" d="M5 4h520v280H5z"/><path d="m229 266 16-38V108l-20-20h-70l-54 16 10-36-10-36 164 26 164-26-10 36 10 36-54-16h-70l-20 20v120l16 38-36-8z" style="fill:#fcdd09;stroke:#000;stroke-width:5;stroke-linecap:round;stroke-linejoin:round;stroke-miterlimit:4;stroke-dasharray:none;stroke-opacity:1"/><g transform="translate(2 4)"><path style="fill:#da121a;stroke:#000;stroke-width:5;stroke-linecap:round;stroke-linejoin:round;stroke-miterlimit:4;stroke-dasharray:none;stroke-opacity:1" d="M248 320c-15-20-43 8-18 28-5-20 20-20 20-10v35h26v-35c0-10 25-10 20 10 25-20-3-48-18-28 0-20-13-29-15-29s-15 9-15 29zm109.275 57.596c14.385-20.446-20.897-38.423-32.192-8.466 17.476-10.936 25.201 12.84 15.69 15.93l-33.286 10.816 8.034 24.728 33.287-10.816c9.51-3.09 17.236 20.687-3.33 22.112 26.746 17.596 44.723-17.686 21.067-25.772 19.021-6.18 23.564-21.325 22.945-23.227-.618-1.902-13.194-11.485-32.215-5.305zm-21.01 121.725c23.89 7.364 30.085-31.747-1.896-33.233 15.801 13.242-4.424 27.936-10.302 19.846l-20.573-28.315L282.46 472.9l20.572 28.316c5.878 8.09-14.347 22.784-22.058 3.665-8.47 30.875 30.64 37.07 31.02 12.073 11.756 16.18 27.563 15.82 29.181 14.644 1.618-1.175 6.846-16.098-4.91-32.278zm-122.259 17.634c.38 24.997 39.49 18.802 31.02-12.073-7.71 19.12-27.936 4.425-22.058-3.665L243.54 472.9l-21.034-15.282-20.573 28.315c-5.878 8.09-26.103-6.604-10.302-19.846-31.981 1.486-25.787 40.597-1.896 33.233-11.756 16.18-6.528 31.103-4.91 32.278 1.618 1.176 17.425 1.536 29.18-14.644zm-54.551-110.827c-23.657 8.086-5.68 43.368 21.067 25.772-20.566-1.425-12.84-25.202-3.33-22.112l33.287 10.816 8.034-24.728-33.287-10.815c-9.51-3.09-1.785-26.867 15.691-15.931-11.295-29.957-46.578-11.98-32.192 8.466-19.02-6.18-31.597 3.403-32.216 5.305-.618 1.902 3.925 17.047 22.946 23.227z"/><circle style="opacity:.98000004;fill:#fff;fill-opacity:1;stroke:#000;stroke-width:5;stroke-linecap:round;stroke-linejoin:round;stroke-miterlimit:4;stroke-dasharray:none;stroke-dashoffset:0;stroke-opacity:1" cx="262.9" cy="423.9" r="53.5"/><path style="opacity:.98000004;fill:none;fill-opacity:1;stroke:#000;stroke-width:8;stroke-linecap:round;stroke-linejoin:round;stroke-miterlimit:4;stroke-dasharray:none;stroke-dashoffset:0;stroke-opacity:1" d="M-219 586.8h30v30h-30z" transform="matrix(.5 0 0 .5 365 123)"/><path d="m-189 596 28-16v44l-28-16zm-30 .375-28-16v44l28-16z" style="fill:#000;stroke:#000;stroke-width:6;stroke-linecap:round;stroke-linejoin:round;stroke-miterlimit:4;stroke-dasharray:none;stroke-opacity:1" transform="matrix(.5 0 0 .5 365 123)"/></g><path d="M5 4h520v328c0 140-130 236-260 236S5 482 5 332z" style="fill:none;stroke:#000;stroke-width:8;stroke-linecap:butt;stroke-linejoin:miter;stroke-miterlimit:4;stroke-dasharray:none"/><path d="M5 284h520" style="fill:none;stroke:#000;stroke-width:6;stroke-linecap:butt;stroke-linejoin:miter;stroke-opacity:1;stroke-miterlimit:4;stroke-dasharray:none"/></svg>