<?xml version="1.0" encoding="UTF-8" standalone="no"?>
<svg
   xmlns:dc="http://purl.org/dc/elements/1.1/"
   xmlns:cc="http://creativecommons.org/ns#"
   xmlns:rdf="http://www.w3.org/1999/02/22-rdf-syntax-ns#"
   xmlns:svg="http://www.w3.org/2000/svg"
   xmlns="http://www.w3.org/2000/svg"
   xmlns:sodipodi="http://sodipodi.sourceforge.net/DTD/sodipodi-0.dtd"
   xmlns:inkscape="http://www.inkscape.org/namespaces/inkscape"
   width="802.81586"
   height="870.6225"
   viewBox="0 0 802.81734 870.61842"
   version="1.1"
   id="svg1169"
   sodipodi:docname="DEU_Trabitz_COA.svg"
   inkscape:version="0.92.5 (2060ec1f9f, 2020-04-08)">
  <metadata
     id="metadata1175">
    <rdf:RDF>
      <cc:Work
         rdf:about="">
        <dc:format>image/svg+xml</dc:format>
        <dc:type
           rdf:resource="http://purl.org/dc/dcmitype/StillImage" />
        <dc:title></dc:title>
      </cc:Work>
    </rdf:RDF>
  </metadata>
  <defs
     id="defs1173">
    <inkscape:path-effect
       effect="spiro"
       id="path-effect5126"
       is_visible="true" />
    <inkscape:path-effect
       effect="spiro"
       id="path-effect5121"
       is_visible="true" />
    <inkscape:path-effect
       effect="spiro"
       id="path-effect5116"
       is_visible="true" />
    <inkscape:path-effect
       effect="spiro"
       id="path-effect4914"
       is_visible="true" />
    <inkscape:path-effect
       effect="spiro"
       id="path-effect4910"
       is_visible="true" />
    <inkscape:path-effect
       effect="spiro"
       id="path-effect4868"
       is_visible="true" />
    <inkscape:path-effect
       effect="spiro"
       id="path-effect4828"
       is_visible="true" />
    <inkscape:path-effect
       effect="spiro"
       id="path-effect4823"
       is_visible="true" />
    <inkscape:path-effect
       effect="spiro"
       id="path-effect4818"
       is_visible="true" />
    <inkscape:path-effect
       effect="spiro"
       id="path-effect4814"
       is_visible="true" />
    <inkscape:path-effect
       effect="spiro"
       id="path-effect4759"
       is_visible="true" />
    <inkscape:path-effect
       effect="spiro"
       id="path-effect4754"
       is_visible="true" />
    <inkscape:path-effect
       effect="spiro"
       id="path-effect4749"
       is_visible="true" />
    <inkscape:path-effect
       effect="spiro"
       id="path-effect4745"
       is_visible="true" />
    <inkscape:path-effect
       effect="spiro"
       id="path-effect4740"
       is_visible="true" />
    <inkscape:path-effect
       effect="spiro"
       id="path-effect4690"
       is_visible="true" />
    <inkscape:path-effect
       effect="spiro"
       id="path-effect4686"
       is_visible="true" />
    <inkscape:path-effect
       effect="spiro"
       id="path-effect4646"
       is_visible="true" />
    <inkscape:path-effect
       effect="spiro"
       id="path-effect4642"
       is_visible="true" />
    <inkscape:path-effect
       effect="spiro"
       id="path-effect4634"
       is_visible="true" />
    <inkscape:path-effect
       effect="spiro"
       id="path-effect4630"
       is_visible="true" />
    <inkscape:path-effect
       effect="spiro"
       id="path-effect4552"
       is_visible="true" />
    <inkscape:path-effect
       effect="spiro"
       id="path-effect4548"
       is_visible="true" />
    <inkscape:path-effect
       effect="spiro"
       id="path-effect4544"
       is_visible="true" />
    <inkscape:path-effect
       effect="spiro"
       id="path-effect4497"
       is_visible="true" />
    <inkscape:path-effect
       effect="spiro"
       id="path-effect4492"
       is_visible="true" />
    <inkscape:path-effect
       effect="spiro"
       id="path-effect4488"
       is_visible="true" />
    <inkscape:path-effect
       effect="spiro"
       id="path-effect4250"
       is_visible="true" />
    <inkscape:path-effect
       effect="spiro"
       id="path-effect4544-1"
       is_visible="true" />
    <inkscape:path-effect
       effect="spiro"
       id="path-effect4544-6"
       is_visible="true" />
    <inkscape:path-effect
       effect="spiro"
       id="path-effect4690-6"
       is_visible="true" />
    <inkscape:path-effect
       effect="spiro"
       id="path-effect4690-6-5"
       is_visible="true" />
    <inkscape:path-effect
       effect="spiro"
       id="path-effect4690-6-2"
       is_visible="true" />
    <inkscape:path-effect
       effect="spiro"
       id="path-effect4868-0"
       is_visible="true" />
    <inkscape:path-effect
       effect="spiro"
       id="path-effect4914-1"
       is_visible="true" />
    <inkscape:path-effect
       effect="spiro"
       id="path-effect4914-1-9"
       is_visible="true" />
    <inkscape:path-effect
       effect="spiro"
       id="path-effect4914-1-9-1"
       is_visible="true" />
    <inkscape:path-effect
       effect="spiro"
       id="path-effect4914-1-9-17"
       is_visible="true" />
    <inkscape:path-effect
       effect="spiro"
       id="path-effect4914-1-9-8"
       is_visible="true" />
    <inkscape:path-effect
       effect="spiro"
       id="path-effect4914-1-9-8-6"
       is_visible="true" />
    <inkscape:path-effect
       effect="spiro"
       id="path-effect4914-1-9-8-1"
       is_visible="true" />
    <inkscape:path-effect
       effect="spiro"
       id="path-effect4914-1-9-8-1-7"
       is_visible="true" />
    <inkscape:path-effect
       effect="spiro"
       id="path-effect4914-1-9-8-1-3"
       is_visible="true" />
    <inkscape:path-effect
       effect="spiro"
       id="path-effect4914-1-9-8-1-1"
       is_visible="true" />
    <inkscape:path-effect
       effect="spiro"
       id="path-effect4914-1-9-8-1-1-8"
       is_visible="true" />
    <inkscape:path-effect
       effect="spiro"
       id="path-effect4914-1-9-8-1-1-8-2"
       is_visible="true" />
    <inkscape:path-effect
       effect="spiro"
       id="path-effect4914-1-9-8-1-1-8-2-0"
       is_visible="true" />
    <inkscape:path-effect
       effect="spiro"
       id="path-effect4914-1-9-8-1-1-8-2-5"
       is_visible="true" />
    <inkscape:path-effect
       effect="spiro"
       id="path-effect5126-3"
       is_visible="true" />
  </defs>
  <sodipodi:namedview
     pagecolor="#ffffff"
     bordercolor="#666666"
     borderopacity="1"
     objecttolerance="10"
     gridtolerance="10"
     guidetolerance="10"
     inkscape:pageopacity="0"
     inkscape:pageshadow="2"
     inkscape:window-width="1920"
     inkscape:window-height="1046"
     id="namedview1171"
     showgrid="false"
     inkscape:zoom="0.91084255"
     inkscape:cx="401.40792"
     inkscape:cy="435.31125"
     inkscape:window-x="-11"
     inkscape:window-y="-11"
     inkscape:window-maximized="1"
     inkscape:current-layer="svg1169"
     inkscape:snap-global="false"
     inkscape:snap-midpoints="true"
     inkscape:snap-smooth-nodes="true"
     showguides="false"
     fit-margin-top="0"
     fit-margin-left="0"
     fit-margin-right="0"
     fit-margin-bottom="0" />
  <path
     inkscape:connector-curvature="0"
     style="fill:#ff0000;fill-opacity:1;fill-rule:evenodd;stroke:none;stroke-width:11;stroke-opacity:1"
     d="m 401.40865,5.4978706 c -21.07553,0.4803179 -42.17014,1.8693475 -63.0216,4.9003994 -23.14524,3.364485 -45.9158,9.036851 -68.60754,14.703152 -49.03707,12.244931 -95.7409,34.644382 -145.79519,41.654373 -16.9862,2.37888 -29.548083,5.803442 -51.455162,0 -1.62875,11.297348 -4.51083,22.414507 -8.57619,33.080144 -6.615025,17.354741 -16.350025,33.461761 -28.177795,47.781331 -8.57103,10.37671 -18.24805,19.83933 -28.81255,28.17778 0,0 15.20558,29.55674 20.15238,45.33799 5.53836,17.66839 8.1439,36.18494 10.45119,54.55674 8.62873,68.7061 6.06906,138.60037 12.58206,207.35584 3.02684,31.95334 9.72462,95.79706 9.72462,95.79706 15.431835,151.04437 164.545647,286.16801 341.535777,286.27786 176.99014,-0.10985 326.10395,-135.23349 341.53579,-286.27786 0,0 6.69778,-63.84371 9.72463,-95.79706 6.513,-68.75548 3.95333,-138.64974 12.58204,-207.35584 2.30731,-18.37181 4.91284,-36.88835 10.4512,-54.55674 4.94679,-15.78126 20.15239,-45.33799 20.15239,-45.33799 -10.56451,-8.33845 -20.24153,-17.80107 -28.81256,-28.17778 -11.82777,-14.31958 -21.56277,-30.4266 -28.1778,-47.781331 -4.06535,-10.665638 -6.94743,-21.782795 -8.57617,-33.080144 -21.90708,5.803443 -34.46898,2.37888 -51.45519,0 C 628.77869,59.745803 582.07487,37.346354 533.03779,25.101422 510.34606,19.435121 487.5755,13.762755 464.43026,10.39827 443.5788,7.3672171 422.4842,5.9781886 401.40865,5.4978706 Z"
     id="path1077-7-0-3" />
  <path
     style="opacity:1;fill:#ffffff;fill-opacity:1;fill-rule:evenodd;stroke:none;stroke-width:5;stroke-linecap:round;stroke-linejoin:round;stroke-miterlimit:4;stroke-dasharray:none;stroke-opacity:1;paint-order:fill markers stroke"
     d="M 401.4082 5.5019531 C 380.33271 5.9822701 359.23814 7.3712969 338.38672 10.402344 C 315.24152 13.766823 292.47099 19.439178 269.7793 25.105469 C 220.74232 37.350377 174.03857 59.749788 123.98438 66.759766 C 106.99821 69.138641 94.436335 72.563197 72.529297 66.759766 C 70.90055 78.057093 68.018477 89.174226 63.953125 99.839844 C 57.338112 117.19455 47.603139 133.30155 35.775391 147.62109 C 27.204376 157.99778 17.527371 167.46039 6.9628906 175.79883 C 6.9628906 175.79883 22.168444 205.3555 27.115234 221.13672 C 32.653584 238.80508 35.259121 257.32159 37.566406 275.69336 C 46.15192 344.05535 43.664192 413.59322 50.054688 482.01562 L 752.76172 482.01562 C 759.15221 413.59321 756.66451 344.05535 765.25 275.69336 C 767.55731 257.32158 770.16282 238.80508 775.70117 221.13672 C 780.64795 205.35549 795.85352 175.79883 795.85352 175.79883 C 785.28903 167.46039 775.61203 157.99778 767.04102 147.62109 C 755.21327 133.30154 745.4783 117.19454 738.86328 99.839844 C 734.79794 89.174225 731.91585 78.057094 730.28711 66.759766 C 708.38007 72.563198 695.81821 69.138641 678.83203 66.759766 C 628.77783 59.749787 582.0741 37.350378 533.03711 25.105469 C 510.34542 19.439178 487.57488 13.766823 464.42969 10.402344 C 443.57827 7.3712959 422.48371 5.9822702 401.4082 5.5019531 z "
     transform="matrix(1.0000018,0,0,1.0000018,0,-0.00284294)"
     id="rect4390" />
  <path
     inkscape:connector-curvature="0"
     style="fill:#000000;stroke:#000000;stroke-width:1.00000179px;stroke-linecap:butt;stroke-linejoin:miter;stroke-opacity:1"
     d="m 426.16118,35.776516 c -2.91681,0.924314 -5.65545,2.411066 -8.01956,4.353523 -2.77853,2.282996 -5.01741,5.167646 -6.87305,8.248062 -3.16119,5.247645 -5.26065,11.12565 -6.18556,17.181673 -0.54961,3.598676 -0.66734,7.388703 0.6875,10.767598 1.12985,2.817766 3.27889,5.214919 5.95704,6.644543 -1.08843,0.646968 -2.24251,1.184891 -3.43751,1.603519 -2.45896,0.861425 -5.08026,1.210731 -7.68555,1.179689 -3.9503,-0.04706 -7.84306,-0.953013 -11.78713,-1.179689 -6.13196,-0.352418 -12.22209,0.939414 -18.32817,1.603519 -6.88147,0.748439 -13.88073,0.707259 -20.61917,2.291019 -3.39112,0.797027 -6.6785,1.999009 -10.0801,2.750006 -2.70382,0.596942 -5.48782,0.906693 -8.24806,0.687501 -2.69253,-0.213816 -5.32551,-0.927105 -8.01759,-1.146486 -3.57283,-0.291155 -7.30291,0.340682 -10.31057,2.29102 -1.63768,1.061964 -3.01387,2.475006 -4.35352,3.894538 -2.35426,2.494598 -4.66096,5.071299 -6.41408,8.019539 -0.4951,0.83263 -0.94867,1.70045 -1.19726,2.63673 -0.2486,0.93627 -0.28057,1.95176 0.0527,2.86133 0.3601,0.98271 1.10859,1.7632 1.83203,2.51954 1.08311,1.13235 2.15198,2.27896 3.20704,3.4375 -0.10369,1.66961 0.30152,3.36683 1.14649,4.81056 0.95454,1.63093 2.42616,2.89697 3.97852,3.97461 1.55236,1.07765 3.21075,1.99849 4.72657,3.12696 1.7895,1.33222 3.35792,2.93843 5.09376,4.33985 1.73584,1.40142 3.70235,2.62192 5.90235,2.9922 1.70168,0.28641 3.45987,0.0458 5.10939,-0.46094 1.64951,-0.50678 3.20608,-1.27438 4.74219,-2.06056 2.104,-1.07681 4.28199,-2.22316 6.64454,-2.29101 1.73497,-0.0498 3.4331,0.49293 5.04103,1.14648 5.77129,2.34579 10.80946,6.15735 16.26565,9.16409 1.57974,0.87053 3.22197,1.69231 4.51564,2.94921 0.64683,0.62846 1.19761,1.36354 1.55079,2.19337 0.35317,0.82983 0.50106,1.75777 0.34766,2.64649 -0.14308,0.82888 -0.54045,1.59942 -1.04884,2.26954 -0.50838,0.67012 -1.12599,1.24748 -1.75781,1.80273 -2.48573,2.1845 -5.25565,4.07313 -8.29884,5.37306 -2.93881,1.25534 -6.08256,1.94556 -9.1133,2.959 -3.03075,1.01341 -6.03961,2.41486 -8.18948,4.77929 -1.87385,2.06089 -2.99978,4.74735 -5.04102,6.6426 -2.07077,1.92266 -4.85949,2.82961 -7.55861,3.66602 -2.54083,0.78735 -5.099,1.56549 -7.49415,2.72266 -2.39515,1.15717 -4.64158,2.72072 -6.25197,4.8379 -1.40863,1.85193 -2.2929,4.09854 -2.52148,6.41408 -2.33598,0.48333 -4.64942,1.07014 -6.93361,1.75781 -4.59163,1.38234 -9.20791,3.26954 -12.53909,6.71876 -2.13877,2.21457 -3.66154,5.01958 -4.35352,8.01955 -2.54846,1.17625 -5.00148,2.55595 -7.33009,4.12306 -1.62416,1.09301 -3.2139,2.30272 -4.35353,3.89453 -1.40839,1.96724 -2.04595,4.47205 -1.74805,6.87306 -4.33618,1.58795 -8.21757,4.39756 -11.08205,8.01954 -2.32896,2.94488 -3.98586,6.41728 -4.81055,10.0801 -2.88036,-1.64786 -5.81242,-3.20516 -8.79103,-4.66798 -8.09273,-3.97438 -16.5289,-7.25432 -24.42974,-11.59767 -7.41728,-4.07753 -14.47742,-9.13748 -22.67973,-11.22658 -7.18651,-1.8304 -14.89916,-1.2171 -21.89066,1.25586 -8.04412,2.84527 -15.02342,7.99324 -22.26371,12.50783 -6.41875,4.00233 -13.37039,7.62205 -20.9102,8.23049 -2.33542,0.18846 -4.68608,0.0816 -7.02345,0.24414 -2.33737,0.1625 -4.71159,0.61616 -6.72267,1.81836 -2.78633,1.66563 -4.65406,4.77524 -4.81251,8.01759 -3.03625,-0.4649 -6.15485,-0.38752 -9.16407,0.22852 -5.27782,1.08046 -10.13523,3.8001 -14.20316,7.33204 -1.37991,1.19809 -2.67773,2.4917 -4.10352,3.63478 -1.42581,1.14308 -3.00116,2.14388 -4.75587,2.65429 -0.92392,0.26875 -1.88458,0.39719 -2.81447,0.64455 -0.92987,0.24734 -1.85429,0.63064 -2.53125,1.31445 -0.43812,0.44256 -0.75716,1.00137 -0.91601,1.60351 0.31896,0.77508 0.71473,1.51749 1.17968,2.21485 0.84883,1.27312 1.9302,2.39176 3.17384,3.28321 -0.69394,1.01877 -1.30859,2.09196 -1.83399,3.20704 -0.69097,1.46645 -1.22918,3.00476 -1.60352,4.58204 1.72291,0.97884 3.48108,1.89682 5.26954,2.75 3.85389,1.83849 7.90227,3.39251 12.14261,3.89454 3.6342,0.43028 7.4003,0.0582 10.7676,-1.375 2.97878,-1.26781 5.57171,-3.32812 7.76954,-5.70509 2.19784,-2.37697 4.02318,-5.07293 5.74806,-7.81251 0.80652,-1.28098 1.59661,-2.57946 2.58204,-3.72853 0.98542,-1.14906 2.18672,-2.15259 3.60351,-2.68555 0.99138,-0.37291 2.054,-0.50383 3.10353,-0.64648 1.04953,-0.14265 2.11155,-0.3042 3.08203,-0.72852 0.5363,-0.23447 1.03539,-0.54447 1.5547,-0.81446 0.51931,-0.26999 1.06983,-0.50344 1.65234,-0.56055 0.71502,-0.0701 1.43627,0.13042 2.08203,0.44532 0.64578,0.31489 1.22766,0.74094 1.81251,1.15821 1.66179,1.18563 3.46434,2.34467 5.49806,2.52148 2.00964,0.17472 4.03754,-0.67312 5.50001,-2.0625 1.77524,-1.68652 2.72505,-4.03424 3.89454,-6.18555 2.08409,-3.83378 4.97855,-7.18798 8.24611,-10.0801 4.52687,-4.00676 9.89862,-7.20434 15.80862,-8.47658 4.28379,-0.92218 8.75262,-0.81216 13.05861,0 5.05066,0.9526 9.92949,2.87426 14.20511,5.72657 5.94506,3.96601 10.56218,9.57891 15.80667,14.43362 2.11067,1.95381 4.33048,3.79001 6.64454,5.49806 -3.89712,0.74279 -8.00495,0.34098 -11.68361,-1.14453 -3.26417,-1.31814 -6.14833,-3.44611 -9.3926,-4.81251 -3.60615,-1.51883 -7.54936,-2.05138 -11.4551,-2.28907 -4.23523,-0.25776 -8.568,-0.17224 -12.60158,1.14454 -3.40528,1.11165 -6.48602,3.06863 -9.24807,5.34962 -2.76203,2.28097 -5.23006,4.89088 -7.70508,7.48048 -5.48696,5.74092 -11.24676,11.55889 -18.55668,14.66213 -4.87929,2.07138 -10.2969,2.85656 -14.8926,5.49806 -1.27263,0.73147 -2.47217,1.60527 -3.47853,2.67383 -1.00636,1.06856 -1.81541,2.33955 -2.24806,3.7422 -0.387,1.25476 -0.4677,2.60304 -0.23046,3.89454 -2.04,-0.15084 -4.11654,0.24782 -5.95509,1.14453 -2.93841,1.43314 -5.11927,4.01112 -7.56056,6.18556 -3.48379,3.10298 -7.57306,5.43165 -11.40432,8.09376 -1.83076,1.27209 -3.60619,2.62348 -5.32032,4.04883 0.75156,1.33463 1.67919,2.57084 2.75,3.66603 0.83541,0.85442 1.757,1.62339 2.74806,2.29102 -0.27382,1.07784 -0.57908,2.14723 -0.91602,3.20704 -0.15384,0.48391 -0.31423,0.96697 -0.41406,1.46484 -0.0998,0.49787 -0.13872,1.01463 -0.0449,1.51367 0.0983,0.52288 0.34028,1.01447 0.66797,1.43361 0.32769,0.41913 0.74002,0.76801 1.18945,1.05273 0.89886,0.56945 1.93408,0.88008 2.95508,1.17969 5.14551,1.50991 10.48117,2.91971 15.80667,2.29102 3.96832,-0.46848 7.82204,-2.11239 10.7676,-4.81251 3.09778,-2.83966 5.08097,-6.69347 6.57033,-10.62306 0.50297,-1.32709 0.95761,-2.67438 1.55664,-3.96095 0.59903,-1.28657 1.35056,-2.52161 2.37109,-3.50782 1.4384,-1.39 3.33153,-2.21379 5.24611,-2.79297 1.91459,-0.57918 3.89258,-0.94227 5.79298,-1.56642 0.8793,-0.28878 1.74654,-0.63559 2.51954,-1.14453 1.62483,-1.06977 2.72184,-2.778 3.55665,-4.53517 0.8348,-1.75715 1.45818,-3.61442 2.40039,-5.31641 1.59829,-2.88711 4.05153,-5.21049 6.66407,-7.22657 2.61255,-2.01609 5.41935,-3.77287 7.99807,-5.83205 2.20719,-1.76251 4.25051,-3.7476 6.63868,-5.25587 1.19408,-0.75412 2.47405,-1.38558 3.83204,-1.77343 1.35798,-0.38785 2.79719,-0.52792 4.19141,-0.30274 1.80176,0.291 3.44964,1.16892 5.04102,2.0625 2.27363,1.27668 4.55816,2.63237 7.10159,3.20704 3.23259,0.7304 6.6904,0.14948 9.85157,1.14454 2.12318,0.66831 3.97096,2.00969 5.63477,3.48828 1.66383,1.47859 3.18428,3.11608 4.90236,4.53126 4.88296,4.02208 11.086,6.04028 17.21098,7.62306 6.12496,1.58278 12.41015,2.84263 18.07229,5.66408 5.70441,2.8425 10.60306,7.191 16.49417,9.62306 5.57171,2.30019 11.74201,2.76498 17.41214,4.81055 8.53671,3.07972 15.3766,9.50302 23.13871,14.20511 12.37878,7.49872 26.91731,10.50868 41.23836,12.59963 24.09958,3.51867 48.58357,4.78324 72.85366,2.75001 18.80549,-1.57544 37.38997,-5.1175 56.13096,-7.33204 3.66011,-0.43251 7.32544,-0.81344 10.99611,-1.14454 -1.87286,3.32381 -3.93927,6.53735 -6.18555,9.62111 -1.34187,1.84214 -2.75029,3.64284 -3.93165,5.59181 -1.18137,1.94897 -2.13742,4.06948 -2.48243,6.32227 -0.62652,4.09103 0.83704,8.29069 3.20703,11.68361 2.24055,3.2076 5.24595,5.80108 8.35549,8.17581 3.10954,2.37473 6.36259,4.57247 9.28517,7.17383 1.51756,1.35077 2.95391,2.82275 4.0254,4.54884 1.0715,1.7261 1.76391,3.73108 1.70117,5.76173 -0.0521,1.68708 -0.62046,3.32736 -1.42969,4.80861 -0.80921,1.48123 -1.85404,2.81785 -2.92187,4.12501 -6.38445,7.81531 -13.8022,14.82867 -22.2227,20.39066 -4.96798,3.28149 -10.27453,6.05194 -15.80862,8.24806 -1.51988,0.60313 -3.0628,1.16486 -4.50392,1.93751 -1.44111,0.77264 -2.7914,1.77263 -3.74415,3.10156 -1.17297,1.63609 -1.67764,3.73829 -1.375,5.72852 -1.57403,0.87308 -2.98046,2.04477 -4.12305,3.43556 -1.30781,1.59189 -2.25475,3.44262 -3.20703,5.26954 -1.37521,2.63822 -2.7839,5.26366 -4.35353,7.79103 -2.91111,4.68738 -6.36032,9.0143 -9.85158,13.28714 -1.81891,2.22609 -3.6514,4.44141 -5.49806,6.64454 l 43.52938,-1.14648 c -0.14271,-2.44406 -0.0665,-4.90168 0.22851,-7.33206 0.27536,-2.26831 0.74451,-4.52524 1.60352,-6.64258 1.07085,-2.63953 2.71972,-4.99871 4.35352,-7.33205 1.06935,-1.5272 2.13811,-3.05456 3.20704,-4.58204 1.5419,1.08502 3.24787,1.93898 5.04103,2.52149 0.90486,0.29394 1.84159,0.51932 2.79297,0.52734 0.95138,0.008 1.92345,-0.21537 2.70509,-0.75781 0.73045,-0.50693 1.25683,-1.26356 1.63476,-2.06836 0.37793,-0.8048 0.61974,-1.66497 0.88477,-2.51368 1.54536,-4.94874 3.94049,-9.63839 7.10352,-13.74612 6.43266,-8.35383 15.85302,-14.04818 25.82623,-17.46878 3.12031,-1.0702 6.30699,-1.93449 9.45509,-2.91993 1.21973,-0.38181 2.44064,-0.78552 3.56642,-1.39062 1.12577,-0.60511 2.16049,-1.42822 2.84766,-2.50587 0.57229,-0.89748 0.88567,-1.94435 1.00586,-3.00196 0.12018,-1.05761 0.0527,-2.12877 -0.0899,-3.1836 -0.22112,-1.63606 -0.62385,-3.24387 -1.14453,-4.81056 -1.28763,-3.87435 -3.29136,-7.4921 -5.72852,-10.76759 -1.1813,-1.58763 -2.46779,-3.10181 -3.51759,-4.7793 -1.04979,-1.6775 -1.865,-3.55378 -1.98047,-5.52931 -0.15303,-2.61802 0.95324,-5.20028 2.61328,-7.23049 1.66005,-2.03019 3.84209,-3.56772 6.09377,-4.91212 3.11501,-1.85985 6.42027,-3.398 9.84962,-4.58204 3.49516,1.90884 6.56801,4.58684 8.93557,7.78908 2.12577,2.87523 3.66747,6.13029 5.43555,9.23831 1.76809,3.108 3.8317,6.14548 6.71681,8.25782 3.09944,2.26926 6.90147,3.30107 10.51174,4.61329 1.80514,0.65611 3.59123,1.39701 5.22657,2.4043 1.63536,1.0073 3.12267,2.29348 4.18361,3.89454 0.98749,1.49024 1.5877,3.25336 1.60351,5.04102 0.0137,1.55041 -0.4069,3.08192 -1.04687,4.49415 -0.63998,1.41223 -1.4946,2.7157 -2.38868,3.98244 -5.44283,7.71144 -12.4988,14.32472 -20.72269,18.95706 -2.58568,1.45645 -5.27934,2.71519 -7.83791,4.21876 -2.55856,1.50357 -5.0047,3.27597 -6.87501,5.58009 -1.79105,2.20645 -3.01163,4.87239 -3.51173,7.66993 -3.68387,1.30697 -7.07395,3.43531 -9.85157,6.18555 -3.90239,3.86393 -6.53192,8.8451 -10.31057,12.83011 -2.24422,2.36677 -4.92606,4.42966 -6.41407,7.33204 -0.62102,1.21129 -1.01282,2.53992 -1.1465,3.89455 8.53317,-0.69664 17.09909,-1.00215 25.66021,-0.91602 4.59636,0.0462 9.23634,0.20159 13.74612,-0.6875 1.73373,-0.3418 3.5034,-0.8734 4.81055,-2.06251 0.89429,-0.81352 1.51497,-1.88673 1.98634,-3 0.47137,-1.11328 0.80588,-2.27852 1.2207,-3.41407 0.83513,-2.28614 1.99695,-4.45423 3.43751,-6.41603 1.67756,0.31907 3.35851,0.62416 5.04103,0.91602 1.37307,0.23818 2.74694,0.46748 4.12304,0.6875 1.33785,-1.75186 2.56348,-3.58933 3.66603,-5.49806 3.33261,-5.7694 5.52319,-12.14543 8.93361,-17.86917 4.92532,-8.26622 12.21667,-14.87135 19.93363,-20.61918 4.76108,-3.54621 9.86876,-6.9679 12.96487,-12.03322 0.70143,-1.14756 1.2922,-2.37462 1.625,-3.67775 0.3328,-1.30312 0.40156,-2.68817 0.0723,-3.9922 -0.46736,-1.85082 -1.70172,-3.42666 -3.13671,-4.68554 -1.43501,-1.2589 -3.08333,-2.24759 -4.65431,-3.33204 -5.14222,-3.5497 -9.58367,-8.27532 -12.14066,-13.9766 -3.68549,-8.21752 -3.1923,-17.67114 -1.83398,-26.57427 1.02826,-6.73973 2.51029,-13.40777 3.43751,-20.16213 0.69825,-5.08641 1.08009,-10.21595 1.14453,-15.34964 2.20154,0.0641 4.4172,-0.45306 6.36329,-1.48438 2.83198,-1.5008 4.99286,-3.99747 7.61135,-5.84571 2.85953,-2.01839 6.19909,-3.21968 9.35353,-4.73634 3.15444,-1.51668 6.26872,-3.48241 8.05861,-6.49026 1.83223,-3.07899 2.01084,-7.08114 0.45898,-10.31055 -12.07102,3.8528 -25.32206,3.91416 -37.4278,0.17187 -10.72032,-3.31401 -20.3145,-9.42962 -30.38678,-14.37503 -19.46364,-9.55649 -40.82331,-14.76215 -62.31456,-17.64065 -21.0876,-2.82445 -42.41723,-3.46874 -63.69153,-3.20704 -6.34762,0.0781 -12.71591,0.23405 -19.02542,-0.46485 -6.30952,-0.6989 -12.60691,-2.28956 -18.08793,-5.49219 -4.39539,-2.56829 -8.2159,-6.1793 -10.79494,-10.56838 -2.57904,-4.38909 -3.8804,-9.56388 -3.41016,-14.63285 0.52743,-5.68549 3.19176,-10.9465 6.18556,-15.80862 6.79405,-11.034 15.47682,-20.77295 22.9102,-31.38677 5.43585,-7.76163 10.33557,-16.42274 10.76759,-25.88872 0.14793,-3.24124 -0.23979,-6.50519 -1.14453,-9.62111 4.85034,1.68327 9.98704,2.53873 15.12112,2.51954 8.92374,-0.0334 17.90024,-2.80361 24.97075,-8.24807 3.31254,-2.55072 6.19131,-5.66313 8.47658,-9.16408 -2.28764,0.22884 -4.60574,0.15216 -6.87307,-0.22852 -2.29374,-0.38511 -4.53381,-1.08131 -6.64258,-2.0625 3.68478,-0.70407 7.29817,-1.78006 10.76759,-3.20704 1.85221,-0.7618 3.66516,-1.62463 5.56056,-2.27148 1.89541,-0.64685 3.89673,-1.07593 5.89454,-0.93555 2.83683,0.19933 5.45305,1.51906 8.0176,2.74805 5.57517,2.67175 11.46196,5.05889 17.64066,5.26954 4.36703,0.14888 8.68935,-0.79745 12.95119,-1.76172 4.26185,-0.96427 8.56828,-1.95598 12.93753,-1.90235 2.55665,0.0314 5.10757,0.42323 7.56055,1.14454 6.49496,1.90984 12.20848,6.07098 18.81645,7.54298 5.62939,1.25399 11.55241,0.45568 17.06058,-1.25391 5.25979,-1.6325 10.39439,-4.10782 15.90042,-4.22657 4.61665,-0.0996 9.07981,1.47154 13.5176,2.74805 5.99419,1.72421 12.13171,2.93704 18.32621,3.66602 1.95893,0.23053 3.93753,0.41366 5.90235,0.24023 1.96481,-0.17342 3.93055,-0.72167 5.55275,-1.84375 1.36688,-0.94548 2.4566,-2.28658 3.10156,-3.81837 0.64496,-1.53177 0.84336,-3.24828 0.56445,-4.88672 -1.06338,-0.13945 -2.13462,-0.21736 -3.20703,-0.23047 -2.75104,-0.0336 -5.49946,0.35094 -8.24807,0.23047 -2.92363,-0.12816 -5.82071,-0.8335 -8.47657,-2.0625 2.67439,-2.32884 5.50869,-4.47309 8.47657,-6.41408 1.7206,-1.12526 3.49704,-2.19096 5.0215,-3.57032 1.52447,-1.37936 2.80343,-3.12486 3.22657,-5.13673 0.31698,-1.5071 0.12842,-3.11628 -0.52734,-4.50977 -0.65576,-1.393491 -1.77537,-2.562931 -3.13868,-3.279298 -2.72986,1.100077 -5.34466,2.483798 -7.78908,4.123058 -2.83462,1.90091 -5.45044,4.1502 -8.47658,5.72852 -2.21603,1.1558 -4.62787,1.934 -7.10157,2.29102 1.13415,-0.83649 2.14203,-1.84436 2.97851,-2.97853 1.7572,-2.38251 2.72878,-5.29803 2.97658,-8.248051 0.21397,-2.547355 -0.0996,-5.138098 -0.91602,-7.56056 -2.18726,1.2272 -4.14025,2.869912 -5.72657,4.812509 -1.52806,1.871243 -2.70647,3.999511 -4.12501,5.955092 -3.15009,4.34264 -7.54834,7.8158 -12.59963,9.62305 -3.94984,1.41319 -8.1845,1.79719 -12.37112,2.06251 -5.26851,0.33389 -10.57982,0.49626 -15.80863,-0.23047 -3.89669,-0.54158 -7.89229,-1.66639 -10.7676,-4.35157 -1.64855,-1.53954 -2.85291,-3.54943 -3.43554,-5.72852 1.68205,0.0941 3.37248,0.0178 5.03907,-0.22852 2.18407,-0.32286 4.31477,-0.93367 6.48634,-1.33204 2.17157,-0.39836 4.43082,-0.58018 6.57227,-0.043 2.19302,0.55016 4.12661,1.81584 6.18556,2.75001 4.4746,2.03016 9.53771,2.47723 14.43362,2.06055 3.24622,-0.27629 6.59271,-0.97796 9.16409,-2.97852 2.01863,-1.57052 3.43235,-3.898551 3.89453,-6.414069 -0.55113,0.485972 -1.22608,0.83084 -1.94336,0.990236 -0.71729,0.159397 -1.47461,0.132597 -2.17969,-0.07422 -0.91048,-0.267065 -1.72845,-0.839451 -2.29103,-1.603518 2.12729,-1.090945 4.26496,-2.159781 6.41408,-3.207037 1.34433,-0.655082 2.69822,-1.303618 3.94141,-2.13477 1.24319,-0.831152 2.38073,-1.858526 3.16017,-3.134772 0.80488,-1.317891 1.20226,-2.881732 1.12109,-4.423836 -0.0812,-1.542104 -0.63935,-3.055137 -1.57812,-4.281258 -2.58412,0.732947 -5.18077,1.419033 -7.78908,2.060551 -3.69555,0.908923 -7.47868,1.751292 -10.7676,3.666023 -0.83829,0.488033 -1.63897,1.043551 -2.5,1.490236 -0.86103,0.446686 -1.79966,0.785719 -2.76954,0.800783 -0.79195,0.0123 -1.58686,-0.196075 -2.26953,-0.597657 -0.68269,-0.401582 -1.25099,-0.995196 -1.62501,-1.693362 0.0132,-2.805472 0.99738,-5.59682 2.74805,-7.789078 1.75441,-2.196945 4.20426,-3.758798 5.95704,-5.957042 1.26943,-1.592046 2.14219,-3.497139 2.51954,-5.498057 -3.48198,-0.281326 -7.02199,0.191196 -10.30861,1.375003 -5.45089,1.96335 -10.25424,6.061976 -12.37112,11.455099 -0.43415,1.106066 -0.75529,2.252994 -1.1836,3.361334 -0.4283,1.10834 -0.97542,2.192346 -1.79492,3.052741 -0.80547,0.84566 -1.85052,1.444873 -2.96095,1.806643 -1.11042,0.36177 -2.28724,0.493107 -3.45507,0.484376 -1.47438,-0.01102 -2.94554,-0.243722 -4.35158,-0.687501 0.0499,-1.194003 0.36481,-2.375221 0.91602,-3.435554 1.10377,-2.123281 3.06431,-3.647886 4.58204,-5.498057 1.06802,-1.301956 1.92225,-2.779032 2.51953,-4.353523 -2.01566,-1.387478 -4.42804,-2.191603 -6.87306,-2.29102 -4.28025,-0.174039 -8.4328,1.792233 -11.68361,4.582039 -2.45007,2.102616 -4.4861,4.686516 -5.95704,7.560561 -2.84737,0.155139 -5.73439,-0.487506 -8.24807,-1.833987 -1.69327,-0.907025 -3.25819,-2.17934 -4.12305,-3.894538 -0.99658,-1.976421 -0.94336,-4.411707 0,-6.414075 1.08101,-2.294537 3.16789,-3.934547 5.2461,-5.388682 2.07822,-1.454135 4.27167,-2.860819 5.75002,-4.921884 1.63751,-2.282981 2.23699,-5.280412 1.60351,-8.017593 -4.01448,0.541663 -7.95521,1.623197 -11.68361,3.207038 -4.90003,2.081546 -9.43107,5.036372 -13.28714,8.707047 -3.99873,3.806478 -7.31334,8.403488 -11.91408,11.455099 -1.65237,1.095997 -3.51649,1.990389 -5.49806,2.060551 -1.4483,0.05128 -2.90869,-0.353623 -4.12305,-1.144534 2.14465,-2.685841 4.20765,-5.437163 6.18555,-8.248061 1.09667,-1.558518 2.17067,-3.142491 3.01368,-4.851572 0.84302,-1.709081 1.45278,-3.556817 1.56836,-5.458994 0.12083,-1.988328 -0.31157,-4.006139 -1.23437,-5.771496 -0.9228,-1.765356 -2.33359,-3.272887 -4.03517,-4.308601 -1.87164,2.414292 -3.70439,4.859261 -5.49805,7.332045 -1.4715,2.028636 -2.91996,4.081369 -4.58205,5.957042 -3.40581,3.843493 -7.63705,6.864615 -11.22658,10.537128 -1.40226,1.434687 -2.7045,2.966961 -3.89453,4.58204 -3.50452,-0.585943 -6.79254,-2.393179 -9.16408,-5.039072 -1.8171,-2.027314 -3.11642,-4.611077 -3.20704,-7.332044 -0.0573,-1.721152 0.36844,-3.441457 1.11329,-4.994151 0.74484,-1.552692 1.80118,-2.94316 3.00976,-4.169928 1.71919,-1.745058 3.73831,-3.160617 5.6172,-4.732431 1.87889,-1.571815 3.66014,-3.355083 4.69337,-5.576182 1.19278,-2.564089 1.27711,-5.621712 0.22852,-8.248063 -1.44104,0.9856 -2.97799,1.830336 -4.58205,2.519536 -4.50802,1.936924 -9.47782,2.619198 -13.97462,4.58204 -6.27629,2.739575 -11.37163,7.970663 -14.20511,14.205105 -2.00098,4.402706 -2.95253,9.325772 -5.72657,13.287133 -0.94541,1.350047 -2.09741,2.567536 -3.45509,3.50196 -1.35767,0.934424 -2.927,1.580096 -4.56447,1.767581 -1.55222,0.177726 -3.15026,-0.06218 -4.58203,-0.687501 0.58716,-2.144976 1.19737,-4.282672 1.83203,-6.414074 0.82727,-2.778221 1.69647,-5.547518 2.75,-8.248062 1.71656,-4.400045 3.96069,-8.795048 3.89455,-13.517603 -0.061,-4.350841 -2.23969,-8.621716 -5.72658,-11.224631 0.0902,3.554393 -0.70388,7.126973 -2.29101,10.308613 -1.75615,3.520422 -4.4328,6.504807 -7.33205,9.16408 -4.14863,3.805234 -8.82501,7.05008 -12.59963,11.226583 -0.98421,1.088997 -1.90361,2.236303 -2.75001,3.435553 -0.76717,-1.449132 -1.53085,-2.89876 -2.29102,-4.351571 -1.43497,-2.742466 -2.8903,-5.6131 -2.97853,-8.707047 -0.0639,-2.242951 0.60277,-4.447205 1.48634,-6.509777 0.88358,-2.062574 1.98844,-4.025221 2.86719,-6.089855 1.20873,-2.839912 1.9841,-5.864424 2.29103,-8.935564 z m 44.70515,55.304789 c 0.81769,-0.01611 1.63614,-0.0039 2.45313,0.04102 2.51092,0.138083 5.00427,0.57466 7.41994,1.273441 2.19689,0.635494 4.33026,1.488059 6.35939,2.542972 -2.69368,2.496933 -5.99597,4.332841 -9.53909,5.300792 -3.57632,0.97702 -7.37289,1.07043 -11.02345,0.42383 -2.36578,-0.41904 -4.69057,-1.151641 -6.78322,-2.332041 -1.67068,-0.942379 -3.18353,-2.165675 -4.45313,-3.603518 2.64922,-1.204878 5.42529,-2.130239 8.2676,-2.755865 2.39727,-0.527671 4.84577,-0.842304 7.29883,-0.890627 z m 56.78526,1.966801 c 2.8895,0.06118 5.77202,0.719066 8.41799,1.890628 2.28557,1.011991 4.40978,2.395629 6.78321,3.179694 1.97152,0.651291 4.08537,0.870631 6.14845,0.636721 -0.31034,0.93891 -0.81984,1.810661 -1.48438,2.542961 -1.18221,1.3028 -2.81944,2.12773 -4.51954,2.58009 -1.70009,0.45236 -3.47372,0.55602 -5.23243,0.59961 -6.1357,0.15208 -12.52466,-0.47776 -17.80667,-3.60353 -1.90805,-1.129121 -3.6332,-2.56707 -5.0879,-4.240229 1.17224,-0.624497 2.37515,-1.190112 3.60353,-1.695317 1.51096,-0.621427 3.06445,-1.152063 4.66407,-1.484377 1.07933,-0.224228 2.17568,-0.354091 3.27539,-0.396485 0.41239,-0.0159 0.8255,-0.01851 1.23828,-0.0098 z"
     id="path4486-4" />
  <g
     id="g4322"
     transform="matrix(0.95800083,0,0,0.95807612,22.927313,30.770918)"
     style="stroke-width:1.0437994">
    <path
       d="m 250.111,490.83 v 42.904 12.811 h 289.93 v -12.811 -13.553 -29.352 h -60.53 v 29.352 h -54.18 v -29.352 h -60.53 v 29.352 h -54.18 v -29.352 h -60.53 z"
       id="path1081"
       inkscape:connector-curvature="0"
       style="fill:#ffffff;stroke:#000000;stroke-width:5.218997;stroke-linecap:round;stroke-linejoin:round" />
    <path
       d="M 259.521,552.54 V 815.1 h 112.11 V 666.96 A 23.453014,19.539331 0 0 1 395.08412,647.42094 23.453014,19.539331 0 0 1 418.53725,666.96 V 815.1 h 112.11 V 552.54 h -271.12 z"
       id="path1083"
       inkscape:connector-curvature="0"
       style="fill:#ffffff;stroke:#000000;stroke-width:5.218997;stroke-linecap:round" />
    <path
       d="m 345.511,552.54 h 99.14 v 32.728 h -99.14 z"
       id="path1085"
       inkscape:connector-curvature="0"
       style="fill:#ffffff;stroke:#000000;stroke-width:5.218997;stroke-linecap:round" />
    <path
       d="m 259.521,552.54 v 32.727 h 85.99 V 552.54 Z m 185.13,0 v 32.727 h 85.988 V 552.54 Z M 259.521,618 v 32.729 h 85.99 V 618 Z m 185.13,0 v 32.729 h 85.988 V 618 Z m -185.13,65.46 v 32.727 h 85.99 V 683.46 Z m 185.13,0 v 32.727 h 85.988 V 683.46 Z m -185.13,65.46 v 32.729 h 85.99 V 748.92 Z m 185.13,0 v 32.729 h 85.988 V 748.92 Z"
       id="path1087"
       inkscape:connector-curvature="0"
       style="fill:#ffffff;stroke:#000000;stroke-width:5.218997;stroke-linecap:round" />
    <path
       inkscape:connector-curvature="0"
       id="path1091"
       d="m 395.081,585.27 h 99.14 v 32.728 h -99.14 z"
       style="fill:#ffffff;stroke:#000000;stroke-width:5.218997" />
    <path
       inkscape:connector-curvature="0"
       id="path1093"
       d="m 295.941,585.27 h 99.14 v 32.728 h -99.14 z"
       style="fill:#ffffff;stroke:#000000;stroke-width:5.218997" />
    <path
       inkscape:connector-curvature="0"
       id="path1095"
       d="m 345.511,618 v 32.729 h 36.533 a 23.453014,19.539331 0 0 1 13.03515,-3.30664 23.453014,19.539331 0 0 1 13.02149,3.30664 h 36.549 V 618 h -99.14 z m 0,65.46 v 32.727 h 26.12 V 683.46 Z m 73.02,0 v 32.727 h 26.12 V 683.46 Z m -73.02,65.46 v 32.729 h 26.12 V 748.92 Z m 73.02,0 v 32.729 h 26.12 V 748.92 Z"
       style="fill:#ffffff;stroke:#000000;stroke-width:5.218997" />
    <path
       inkscape:connector-curvature="0"
       id="path1097"
       d="m 408.10018,650.72563 a 23.453014,19.539331 0 0 1 10.43164,16.23242 v 16.496 h 75.69 v -32.729 h -86.12 z m 10.432,65.46 v 32.729 h 75.69 v -32.729 z m 0,65.46 v 32.727 h 75.69 v -32.727 z"
       style="fill:#ffffff;stroke:#000000;stroke-width:5.218997" />
    <path
       inkscape:connector-curvature="0"
       id="path1099"
       d="m 295.941,650.73 v 32.729 h 75.69 v -16.496 a 23.453014,19.539331 0 0 1 10.41797,-16.23242 h -86.1 z m 0,65.46 v 32.729 h 75.69 V 716.19 Z m 0,65.46 v 32.727 h 75.69 V 781.65 Z"
       style="fill:#ffffff;stroke:#000000;stroke-width:5.218997" />
    <path
       inkscape:connector-curvature="0"
       id="path1101"
       d="m 395.081,606.78 c -26.27,0.018 -52.56,17.45 -60.674,43.19 v 19.316 144.32 h 37.22 v -147.41 a 23.453014,19.539331 0 0 1 23.45312,-19.53906 23.453014,19.539331 0 0 1 23.45313,19.53906 v 147.41 h 37.22 V 669.286 649.97 c -8.114,-25.724 -34.418,-43.15 -60.674,-43.19 z"
       style="fill:#ffffff;stroke:#000000;stroke-width:5.218997" />
    <path
       d="m 382.051,650.73 -11.866,-38"
       id="path1103"
       inkscape:connector-curvature="0"
       style="fill:#ffffff;fill-rule:evenodd;stroke:#000000;stroke-width:5.218997" />
    <path
       d="m 408.111,650.73 11.866,-38"
       id="path1105"
       inkscape:connector-curvature="0"
       style="fill:#ffffff;fill-rule:evenodd;stroke:#000000;stroke-width:5.218997" />
    <path
       d="m 371.621,666.96 -37.22,-6.574"
       id="path1107"
       inkscape:connector-curvature="0"
       style="fill:#ffffff;fill-rule:evenodd;stroke:#000000;stroke-width:5.218997" />
    <path
       d="m 418.531,666.96 37.22,-6.574"
       id="path1109"
       inkscape:connector-curvature="0"
       style="fill:#ffffff;fill-rule:evenodd;stroke:#000000;stroke-width:5.218997" />
    <path
       d="m 371.621,699.82 h -37.22"
       id="path1111"
       inkscape:connector-curvature="0"
       style="fill:#ffffff;fill-rule:evenodd;stroke:#000000;stroke-width:5.218997" />
    <path
       d="m 371.621,744.58 h -37.22"
       id="path1113"
       inkscape:connector-curvature="0"
       style="fill:#ffffff;fill-rule:evenodd;stroke:#000000;stroke-width:5.218997" />
    <path
       d="m 334.401,789.34 h 37.22"
       id="path1115"
       inkscape:connector-curvature="0"
       style="fill:#ffffff;fill-rule:evenodd;stroke:#000000;stroke-width:5.218997" />
    <path
       d="m 455.751,699.82 h -37.22"
       id="path1117"
       inkscape:connector-curvature="0"
       style="fill:#ffffff;fill-rule:evenodd;stroke:#000000;stroke-width:5.218997" />
    <path
       d="m 455.751,744.58 h -37.22"
       id="path1119"
       inkscape:connector-curvature="0"
       style="fill:#ffffff;fill-rule:evenodd;stroke:#000000;stroke-width:5.218997" />
    <path
       d="m 418.531,789.34 h 37.22"
       id="path1121"
       inkscape:connector-curvature="0"
       style="fill:#ffffff;fill-rule:evenodd;stroke:#000000;stroke-width:5.218997" />
    <path
       d="m 250.12,546.54 9.402,16.363 h 271.12 l 9.406,-16.363 h -0.002 -9.297 -271.34 -9.293 z"
       id="path1123"
       inkscape:connector-curvature="0"
       style="fill:#ffffff;fill-rule:evenodd;stroke:#000000;stroke-width:5.218997;stroke-linejoin:round" />
  </g>
  <path
     style="fill:#ff0000;fill-opacity:1;stroke:none;stroke-width:0.99999994px;stroke-linecap:butt;stroke-linejoin:miter;stroke-opacity:1"
     d="M 423.10156 39.976562 C 419.83484 41.914779 416.94456 44.483046 414.63672 47.5 C 410.7257 52.612741 408.54851 58.953116 408.05273 65.371094 C 407.88503 67.54203 407.9047 69.746828 408.38281 71.871094 C 408.86093 73.99536 409.8188 76.045372 411.34375 77.599609 C 412.08604 78.356158 412.94859 78.983133 413.75586 79.669922 C 414.56313 80.356721 415.33122 81.122078 415.8125 82.066406 C 416.43613 83.290084 416.52269 84.776106 416.04688 86.064453 C 417.59383 86.821302 419.08702 87.685652 420.51367 88.650391 C 422.27014 89.838148 423.92572 91.17779 425.45312 92.648438 C 426.76541 90.821911 427.43941 88.545414 427.33398 86.298828 C 427.23828 84.258762 426.52251 82.291402 425.58203 80.478516 C 424.64156 78.665629 423.47598 76.981754 422.39648 75.248047 C 419.46586 70.541356 417.12659 65.271293 416.98828 59.728516 C 416.89418 55.956913 417.82364 52.224825 419.10352 48.675781 C 420.18751 45.669877 421.52696 42.757047 423.10156 39.976562 z M 495.05273 41.208984 C 492.28774 41.442204 489.55127 42.010106 486.92188 42.896484 C 483.01644 44.212992 479.34516 46.237391 476.18164 48.878906 C 472.2958 52.12355 469.18471 56.308329 467.2832 61 C 466.2235 63.614685 465.54098 66.365347 464.56836 69.013672 C 463.59574 71.662007 462.28998 74.263454 460.22656 76.1875 C 458.00744 78.256726 455.06412 79.395119 452.0957 80.023438 C 449.72977 80.524235 447.3013 80.730499 444.88477 80.636719 C 444.57701 83.290684 445.50127 86.063447 447.33984 88.001953 C 448.92441 89.67263 451.1745 90.712299 453.47656 90.761719 C 455.48711 90.804919 457.43828 90.124808 459.30664 89.380859 C 462.4394 88.133432 465.59891 86.657274 468.9707 86.621094 C 471.15546 86.597694 473.29786 87.186264 475.38086 87.845703 C 477.46384 88.505142 479.53977 89.243317 481.70508 89.535156 C 484.0137 89.846306 486.39182 89.635364 488.60938 88.921875 C 489.65888 87.471018 490.48788 85.862002 491.0625 84.166016 C 491.58225 82.631998 491.89418 81.027313 491.98438 79.410156 C 489.05526 79.181417 486.20975 77.978063 484.00586 76.035156 C 480.76255 73.175882 479.02901 68.844396 478.78906 64.527344 C 478.60255 61.17171 479.31824 57.65529 481.39844 55.015625 C 482.64404 53.435008 484.30827 52.245452 485.99414 51.146484 C 487.68001 50.047516 489.42319 49.008361 490.91016 47.652344 C 492.81825 45.912277 494.2619 43.66727 495.05273 41.208984 z M 451.49414 44.457031 C 450.53622 46.622753 449.28803 48.659585 447.79297 50.496094 C 444.96906 53.964941 441.33025 56.658066 437.94531 59.582031 C 434.56038 62.505997 431.31453 65.817331 429.67383 69.978516 C 428.50774 72.935963 428.2244 76.269161 429.08984 79.328125 C 429.59032 81.097073 430.45404 82.738678 431.10742 84.457031 C 431.76081 86.175385 432.2051 88.052789 431.81641 89.849609 C 431.52905 91.177981 430.80998 92.365094 430.11523 93.533203 C 429.42049 94.701312 428.72767 95.911077 428.50586 97.251953 C 428.34244 98.239885 428.4449 99.262104 428.73438 100.2207 C 429.02384 101.1793 429.49664 102.07558 430.06445 102.90039 C 431.64111 105.19065 433.94691 106.91875 436.46875 108.08984 C 438.99059 109.26094 441.72921 109.90255 444.48047 110.30469 C 450.39594 111.16933 456.63256 111.01061 462.01367 113.61523 C 465.95316 115.52207 469.17625 118.80948 473.3125 120.24023 C 475.69247 121.06348 478.26817 121.22293 480.77344 120.9668 C 483.2787 120.71066 485.7259 120.04943 488.11914 119.26562 C 492.35351 117.87884 496.53279 116.08526 500.97656 115.75977 C 505.27504 115.44491 509.55293 116.53019 513.63867 117.90234 C 519.71446 119.94284 525.73803 122.66889 532.14648 122.77148 C 536.24185 122.83705 540.26852 121.8185 544.23242 120.78711 C 548.19633 119.75572 552.20688 118.69835 556.30273 118.68164 C 561.36821 118.66098 566.32288 120.2426 570.91406 122.38281 C 573.88309 123.76685 576.73887 125.38794 579.74414 126.69141 C 582.74941 127.99488 585.95086 128.98369 589.22656 129.00586 C 592.24438 129.02629 595.21098 128.22756 598.05664 127.22266 C 600.9023 126.21775 603.67315 125.0016 606.56445 124.13672 C 612.10243 122.48013 618.05459 122.15692 623.70898 123.35742 C 629.84284 124.65972 635.46508 127.67926 641.4375 129.58984 C 644.89779 130.69679 648.62376 131.42934 652.15234 130.56445 C 655.16339 129.82642 657.86701 127.90523 659.55469 125.30469 C 655.61759 126.01301 651.51852 125.81192 647.66992 124.7207 C 644.35175 123.77988 641.22141 122.18117 638.51367 120.04492 C 640.74829 118.36887 643.02183 116.74407 645.33203 115.17383 C 648.16737 113.24665 651.12675 111.33648 653.125 108.55078 C 654.70469 106.34859 655.60064 103.66269 655.6582 100.95312 C 653.63179 102.23105 651.61873 103.53011 649.61914 104.84961 C 646.13925 107.14594 642.68235 109.51603 638.9043 111.2793 C 635.21882 112.99935 631.25483 114.12102 627.21484 114.58984 C 629.00871 112.65282 630.64053 110.56473 632.08594 108.35547 C 633.36193 106.40517 634.50067 104.34529 635.20312 102.12305 C 635.85749 100.05294 636.12326 97.859857 635.98242 95.693359 C 634.38674 97.844452 632.69491 99.925504 630.91602 101.92773 C 627.53858 105.72921 623.80112 109.27864 619.42188 111.86328 C 611.58753 116.48712 602.21858 117.73433 593.12305 117.90234 C 589.39573 117.9712 585.64645 117.87297 581.98242 117.18555 C 578.31839 116.49813 574.72592 115.19947 571.69336 113.03125 C 570.06719 111.86857 568.60876 110.45747 567.47852 108.80859 C 566.34827 107.15971 565.5509 105.26934 565.26367 103.29102 C 564.97609 101.31024 565.20209 99.276781 565.72852 97.345703 C 566.25495 95.414625 567.07704 93.576957 567.99219 91.796875 C 571.31022 85.342889 575.90484 79.548307 581.43359 74.847656 C 577.777 74.33072 573.95936 75.025901 570.71875 76.796875 C 567.0793 78.785813 564.26336 82.030344 562.08008 85.556641 C 559.8968 89.082936 558.28116 92.923376 556.49805 96.667969 C 554.71936 100.40326 552.6506 104.19183 549.28906 106.60352 C 546.90873 108.31125 544.01801 109.20809 541.10742 109.54102 C 538.19683 109.87394 535.25188 109.66741 532.3418 109.33008 C 528.14077 108.8431 523.94323 108.07669 519.99219 106.56836 C 516.04115 105.06003 512.32894 102.77681 509.54883 99.589844 C 506.73262 96.3615 504.93624 92.183989 504.87305 87.900391 C 504.82268 84.486247 505.86159 81.09924 507.59961 78.160156 C 509.87862 74.306225 513.26854 71.261174 516.36719 68.029297 C 517.62602 66.716338 518.84779 65.357398 519.85938 63.845703 C 520.87095 62.334008 521.66988 60.65882 522.01562 58.873047 C 522.40542 56.859781 522.20025 54.735146 521.43164 52.833984 C 520.24012 55.287161 518.73014 57.585206 516.95117 59.652344 C 512.32932 65.022859 506.01592 68.722797 501.36523 74.068359 C 497.79449 78.172625 495.31248 83.136708 493.57227 88.291016 C 492.87614 90.352872 492.29351 92.455252 491.47266 94.470703 C 490.6518 96.486154 489.57565 98.43165 488.03125 99.964844 C 486.48491 101.49997 484.51654 102.56743 482.44922 103.25586 C 480.3819 103.94429 478.20964 104.26825 476.03906 104.45898 C 468.90025 105.08629 461.54786 104.25608 455 101.34375 C 452.52194 100.24157 450.16046 98.839684 448.14453 97.025391 C 446.12861 95.211097 444.46422 92.970748 443.50586 90.433594 C 442.38875 87.476186 442.26309 84.242505 442.33789 81.082031 C 442.45736 76.034205 443.0783 70.919542 445.06445 66.277344 C 447.02298 61.69973 450.27177 57.660596 451.49414 52.833984 C 452.18675 50.09916 452.18674 47.19186 451.49414 44.457031 z M 556.72461 56.703125 C 551.37456 57.928773 546.30535 60.359895 541.99805 63.761719 C 538.19104 66.768403 535.01656 70.483242 531.71875 74.041016 C 529.95338 75.945532 528.0879 77.851751 525.73438 78.949219 C 522.84793 80.295166 519.47956 80.281539 516.37695 79.5625 C 515.22558 79.29567 514.09583 78.93585 513.00195 78.488281 C 511.91889 79.40721 510.98271 80.50008 510.24023 81.710938 C 509.57581 82.794543 509.06264 83.985507 508.85938 85.240234 C 508.62317 86.698052 508.81728 88.222451 509.41211 89.574219 C 510.00689 90.925986 510.99999 92.099398 512.23438 92.910156 C 518.03213 90.369951 524.56429 89.627658 530.79883 90.148438 C 535.08538 90.506495 538.88744 93.135534 543.07031 94.138672 C 545.94014 94.826921 548.59372 94.60035 551.81641 95.517578 C 552.55638 94.47486 553.32338 93.451577 554.11719 92.449219 C 555.28833 90.970411 556.51653 89.537824 557.79883 88.154297 C 556.198 86.54927 554.38848 85.152697 552.42969 84.011719 C 551.32753 83.36973 550.17674 82.808731 549.11523 82.101562 C 548.05374 81.394396 547.07067 80.522914 546.44727 79.410156 C 545.69596 78.069109 545.52446 76.490623 545.37305 74.960938 C 545.26268 73.84602 545.15503 72.72658 545.20703 71.607422 C 545.25903 70.488264 545.47634 69.360849 545.98633 68.363281 C 546.73769 66.893594 548.0629 65.80539 549.43555 64.888672 C 550.80819 63.971944 552.27446 63.175577 553.50391 62.074219 C 555.08216 60.660381 556.21982 58.761041 556.72461 56.703125 z M 607.54297 68.912109 C 606.2767 68.922409 605.01185 69.152038 603.82422 69.591797 C 601.80891 70.338025 600.04392 71.672914 598.60547 73.269531 C 597.16702 74.866158 596.041 76.720352 595.08008 78.642578 C 593.8166 81.170023 592.79562 83.877073 590.9375 86.005859 C 589.09541 88.116285 586.48847 89.528075 583.72656 89.996094 C 580.91464 90.472593 577.94679 89.977992 575.44141 88.615234 C 574.69841 90.239661 573.98368 91.875281 573.29492 93.523438 C 572.65778 95.048063 572.04322 96.583496 571.45312 98.126953 C 573.03193 99.411061 575.09697 100.07986 577.12891 99.966797 C 578.50754 99.890097 579.84309 99.471334 581.14648 99.015625 C 582.44988 98.559926 583.74813 98.062922 585.10742 97.820312 C 587.20524 97.445885 589.37673 97.695507 591.43164 98.259766 C 593.48655 98.824025 595.44301 99.695595 597.38086 100.58203 C 601.29791 102.37386 605.3469 104.28045 609.6543 104.26367 C 612.73169 104.25167 615.79679 103.2108 618.24609 101.34766 C 616.05424 100.36186 613.72168 99.688455 611.3418 99.353516 C 610.26723 99.202286 609.18048 99.120661 608.11914 98.894531 C 605.73191 98.385902 603.50854 97.137361 601.83008 95.365234 C 603.50285 95.623724 605.20723 95.674308 606.89258 95.517578 C 610.00031 95.228569 612.99515 94.241375 615.94336 93.216797 C 619.17799 92.092679 622.45517 90.882484 625.14844 88.767578 C 627.38598 87.010521 629.15068 84.657603 630.21094 82.017578 C 628.3425 82.108178 626.48628 82.417201 624.68945 82.9375 C 621.27407 83.926468 618.12917 85.656001 614.87109 87.080078 C 612.46203 88.133066 609.95883 89.02775 607.35352 89.380859 C 606.3373 89.518589 605.29893 89.57335 604.28711 89.40625 C 603.27531 89.23913 602.28636 88.839596 601.52344 88.154297 C 600.49483 87.230349 599.95507 85.850164 599.83594 84.472656 C 599.69713 82.867539 600.08548 81.247157 600.75391 79.78125 C 601.42234 78.315353 602.36171 76.990463 603.36328 75.728516 C 605.27758 73.31657 607.4404 71.101366 609.80664 69.130859 C 609.0621 68.97909 608.30273 68.905929 607.54297 68.912109 z M 389.71094 88.070312 C 389.21145 88.069893 388.71265 88.079356 388.21289 88.097656 C 383.12095 88.284496 378.14243 89.6325 373.08203 90.199219 C 366.97534 90.883107 360.7734 90.739317 354.71484 91.765625 C 350.91221 92.409784 347.32413 94.090837 343.50586 94.634766 C 339.46346 95.210615 335.32967 95.383989 331.26172 95.03125 C 327.84037 94.734571 324.62312 92.852418 321.17578 92.929688 C 318.47209 92.990287 315.7488 93.97711 313.82031 95.873047 C 312.24965 97.417204 311.2729 99.464396 309.82812 101.12695 C 308.84764 102.25527 307.6657 103.19052 306.62305 104.26172 C 305.58039 105.33291 304.65218 106.59388 304.36328 108.06055 C 304.19194 108.93039 304.25866 109.85107 304.58398 110.67578 C 304.90931 111.50049 305.4959 112.22576 306.25391 112.68555 C 306.84578 113.04456 307.52403 113.23704 308.20312 113.37109 C 308.88227 113.50513 309.57259 113.58284 310.24805 113.73438 C 312.28245 114.19078 314.11893 115.28888 316.13086 115.83594 C 319.61069 116.78214 323.29419 116.01896 326.84961 115.41602 C 327.95353 115.22881 329.06864 115.05658 330.1875 115.09961 C 331.30636 115.14261 332.43933 115.41441 333.36328 116.04688 C 334.09068 116.54479 334.66819 117.26031 335.00195 118.07617 C 335.33572 118.89204 335.4257 119.80494 335.25586 120.66992 C 334.31412 120.22124 333.3254 119.86855 332.3125 119.61914 C 329.40753 118.90384 326.37251 119.04832 323.38281 118.9375 C 319.37099 118.7888 315.37641 118.17042 311.50781 117.09766 C 313.29529 119.79495 315.50224 122.21386 318.02344 124.24219 C 321.49773 127.03732 325.75212 129.12603 330.21094 129.07617 C 333.77568 129.03627 337.18429 127.65096 340.71875 127.18555 C 344.00563 126.75274 347.35334 127.12304 350.5957 127.81445 C 356.74346 129.12542 362.65414 131.60021 367.82812 135.16992 C 372.49145 138.38731 376.5524 142.47661 381.48828 145.25781 C 386.9355 148.32709 393.33964 149.66817 399.56055 149.04102 C 397.72994 150.1009 395.73831 150.88205 393.67578 151.35156 C 389.82617 152.22797 385.80168 152.00623 381.9082 151.35156 C 380.2352 151.0703 378.5064 150.71283 376.86523 151.14258 C 375.30543 151.55103 374.00763 152.63181 372.91797 153.82031 C 371.8283 155.00875 370.88667 156.33363 369.71875 157.44531 C 367.64197 159.42204 364.95546 160.62119 362.27344 161.63477 C 359.5914 162.64834 356.83185 163.52723 354.37891 165.01172 C 353.2477 165.69631 352.18964 166.50502 351.01562 167.11328 C 349.52494 167.88564 347.86164 168.31877 346.18359 168.37305 C 347.28784 169.6679 348.9025 170.51508 350.5957 170.68555 C 351.81416 170.80823 353.0651 170.58705 354.16797 170.05469 C 353.1812 171.97134 351.72593 173.64531 349.96484 174.88867 C 347.59143 176.56437 344.74855 177.42532 341.92773 178.12109 C 339.10692 178.81686 336.2289 179.38192 333.57422 180.5625 C 330.10933 182.10339 327.08148 184.74052 325.37891 188.12891 C 324.63109 189.61715 324.12504 191.25516 323.06641 192.54102 C 322.37433 193.38162 321.46996 194.03285 320.48828 194.50391 C 319.5066 194.97497 318.44871 195.27063 317.37695 195.46289 C 315.23347 195.84741 313.03771 195.82699 310.87891 196.11328 C 306.59563 196.6813 302.39261 198.5513 299.5293 201.78711 C 298.23117 203.25411 297.22589 204.97995 296.58789 206.83203 C 297.70162 206.67796 298.83745 206.67796 299.95117 206.83203 C 301.74436 207.08008 303.48002 207.73046 304.99414 208.72266 C 302.95634 209.11139 300.92514 209.53258 298.90039 209.98438 C 296.40363 210.54149 293.90751 211.14835 291.52734 212.08594 C 289.14718 213.02354 286.87326 214.30498 285.0293 216.07812 C 283.33318 217.70911 282.02767 219.74274 281.24805 221.96289 C 283.42311 222.87467 285.85171 223.16845 288.18164 222.80273 C 290.26515 222.47569 292.2314 221.64079 294.27539 221.12109 C 296.05757 220.66795 297.9017 220.45487 299.74023 220.49023 C 296.23829 221.6317 292.7994 222.96662 289.44336 224.48438 C 284.00171 226.94531 278.73247 229.92497 274.3125 233.94141 C 269.39481 238.41011 265.56859 244.2445 264.22461 250.75195 C 263.58336 253.8568 263.51298 257.07872 264.01562 260.20898 C 264.939 257.70564 266.13924 255.30515 267.58789 253.06445 C 269.21669 250.54513 271.14884 248.238 273.05078 245.91797 C 275.54775 242.87211 278.00007 239.78994 280.40625 236.67188 C 279.20532 240.37867 277.65539 243.97339 275.7832 247.39062 C 274.00904 250.62893 271.90342 253.823 271.36914 257.47656 C 271.10265 259.29894 271.24894 261.18123 271.79102 262.94141 C 273.04414 261.394 274.30363 259.85311 275.57227 258.31836 C 277.37799 256.13384 279.20031 253.9612 281.03711 251.80273 C 280.33036 254.21792 279.76816 256.6758 279.35547 259.1582 C 279.07754 260.82998 278.86675 262.51241 278.72461 264.20117 C 280.54986 261.92469 282.63507 259.85618 284.92578 258.04883 C 286.72994 256.62538 288.68742 255.35275 290.86328 254.61328 C 293.56201 253.69612 296.47053 253.64043 299.32031 253.69531 C 305.77874 253.81963 312.30417 254.45779 318.6543 253.27344 C 323.81822 252.31032 328.75075 250.1335 332.94336 246.96875 C 330.38492 250.84471 326.45292 253.79519 322.01562 255.16602 C 317.77359 256.47654 313.23758 256.35845 308.80273 256.14648 C 304.3679 255.93451 299.86507 255.64605 295.53711 256.63672 C 291.08636 257.6555 286.89528 260.10353 284.18945 263.78125 C 282.43404 266.1672 281.33295 269.02928 281.03711 271.97656 C 277.86139 270.64973 274.54429 269.6623 271.16016 269.03516 C 262.59901 267.44863 253.79866 268.18659 245.10156 267.77344 C 236.85952 267.38191 228.62291 265.93456 220.93359 262.94141 C 217.7312 261.69484 214.63555 260.18468 211.41992 258.97266 C 208.20429 257.76063 204.8271 256.84189 201.39062 256.8457 C 196.6927 256.8507 192.16601 258.57376 187.94141 260.62891 C 180.88019 264.06399 174.31538 268.49803 168.39648 273.6582 C 162.96835 278.39052 157.87419 283.86437 151.16406 286.47852 C 148.41759 287.54849 145.48905 288.0959 142.75977 289.20898 C 140.31114 290.2076 138.02976 291.67251 136.24414 293.62305 C 135.15687 294.81073 134.25451 296.18103 133.70703 297.69531 C 133.15956 299.20956 132.97781 300.87214 133.30273 302.44922 C 133.5389 303.59551 134.04178 304.68813 134.77344 305.60156 C 135.95782 307.08028 137.73342 308.05563 139.60742 308.33398 C 141.6972 308.64437 143.86005 308.1085 145.70117 307.07227 C 146.47868 306.63466 147.2044 306.11116 147.96484 305.64453 C 148.72529 305.17791 149.5324 304.76352 150.4043 304.57422 C 151.34859 304.3692 152.32909 304.43553 153.29102 304.52734 C 154.25293 304.61914 155.22142 304.73523 156.18164 304.62695 C 157.28446 304.50259 158.34389 304.08195 159.27148 303.47266 C 160.19908 302.86337 160.99786 302.06921 161.67188 301.1875 C 163.02841 299.41287 163.87386 297.30679 164.625 295.20312 C 165.37614 293.09945 166.0568 290.95537 167.13672 289 C 168.90019 285.80691 171.66066 283.26077 174.66992 281.19922 C 177.67919 279.13767 180.95976 277.51351 184.1582 275.75977 C 187.82516 273.74914 191.5515 271.51031 195.7168 271.13672 C 199.35431 270.81047 202.9901 271.96235 206.22461 273.6582 C 208.6224 274.91536 210.92341 276.49991 213.58008 277.02148 C 215.17062 277.33375 216.80744 277.24485 218.42773 277.20117 C 220.04804 277.15747 221.70014 277.16326 223.24609 277.65039 C 224.9507 278.1875 226.42795 279.2837 227.72461 280.51367 C 229.02127 281.74365 230.16835 283.12255 231.44141 284.37695 C 237.52555 290.372 246.00381 293.12048 254.13867 295.72461 C 261.03853 297.93339 267.97642 300.19603 274.3125 303.70898 C 279.43845 306.551 284.30215 310.25772 290.07422 311.27539 C 293.43051 311.86714 296.92013 311.49051 300.16016 310.43359 C 303.21748 309.43626 306.0712 307.8393 308.56641 305.81055 C 309.57979 304.98659 310.55009 304.08319 311.71875 303.5 C 312.87549 302.92277 314.18389 302.68642 315.47656 302.70117 C 316.76923 302.71597 318.04928 302.97356 319.28906 303.33984 C 321.76862 304.07238 324.11002 305.24144 326.61914 305.86523 C 331.5546 307.09224 337.00751 306.04619 341.13867 303.08008 C 339.65256 305.64805 337.28471 307.69371 334.52734 308.78906 C 331.76997 309.88447 328.642 310.02195 325.79883 309.17383 C 323.5802 308.51202 321.56348 307.28242 319.34766 306.61133 C 318.23974 306.27579 317.07658 306.08154 315.92383 306.1875 C 314.77107 306.29346 313.62755 306.71509 312.76953 307.49219 C 311.91624 308.265 311.39381 309.33103 310.66797 310.22461 C 309.38806 311.80029 307.43905 312.81417 305.41406 312.95703 C 309.52382 316.35155 313.88249 319.44427 318.44336 322.20312 C 334.18365 331.72435 352.15509 337.14071 370.34961 339.85547 C 402.52802 344.65674 435.30118 341.24062 467.64844 337.75391 C 476.71246 336.77689 485.78498 335.79383 494.75781 334.18164 C 502.18424 332.84731 509.54099 331.0831 517.0332 330.18945 C 524.00293 329.35811 531.06388 329.28673 538.04883 329.97852 C 537.15016 327.35198 536.06931 324.78678 534.81836 322.30859 C 532.71436 318.14049 530.12625 314.21788 527.12109 310.64453 C 531.94288 313.219 536.0529 317.11031 538.88867 321.7832 C 541.37129 325.87412 542.85921 330.47548 544.35352 335.02148 C 546.06434 340.22616 547.85845 345.51064 551.07812 349.94336 C 555.48323 356.00806 562.18253 359.97987 567.25977 365.49414 C 571.83726 370.46567 575.00064 376.58685 579.44727 381.67578 C 584.15876 387.06787 590.1713 391.14538 596.25977 394.91406 C 598.43658 396.26151 600.65147 397.59136 602.52148 399.33984 C 604.39151 401.08832 605.91742 403.31809 606.34766 405.8418 C 606.67548 407.76472 606.34865 409.75605 605.68359 411.58984 C 605.01854 413.42364 604.02492 415.1196 602.98438 416.76953 C 598.48665 423.90099 592.95027 430.45601 586.17383 435.47266 C 580.59992 439.59905 574.19696 442.69097 569.36133 447.66211 C 566.2004 450.91161 563.8055 454.90248 562.42578 459.2207 C 563.91989 459.79315 565.47095 460.21511 567.04883 460.48047 C 570.09654 460.99302 573.21448 460.91538 576.29688 460.69141 C 578.60631 460.5236 580.9241 460.27414 583.23047 460.48047 C 585.49676 460.68322 587.72356 461.33066 589.74609 462.37305 C 590.86155 461.45983 591.85329 460.39641 592.6875 459.2207 C 595.4694 455.29996 596.35598 450.39422 597.91797 445.84766 C 601.81373 434.50805 610.20676 425.05138 620.2168 418.45117 C 624.30854 415.75325 628.70673 413.47064 632.40625 410.25586 C 633.15352 409.6065 633.87784 408.90817 634.38281 408.05664 C 634.88778 407.20512 635.15631 406.17418 634.92773 405.21094 C 634.76341 404.51845 634.35548 403.90285 633.85938 403.39258 C 633.36322 402.88231 632.77824 402.46693 632.19531 402.05859 C 628.57568 399.52302 624.8419 397.13174 621.47461 394.26953 C 618.1073 391.40735 615.08426 388.02118 613.28125 383.98633 C 610.52414 377.81634 610.84948 370.78035 610.9707 364.02344 C 611.10677 356.43882 610.9248 348.79881 612.23047 341.32617 C 613.05183 336.6252 614.46045 332.00924 614.75391 327.24609 C 615.17362 320.4336 613.21245 313.49721 609.28906 307.91211 C 611.4188 310.10762 614.25988 311.60272 617.27539 312.11523 C 619.36128 312.46975 621.51433 312.36371 623.58008 311.90625 C 627.09075 311.12881 630.29513 309.37461 633.66602 308.12305 C 636.64927 307.01539 639.81877 306.27693 642.49219 304.55078 C 644.12265 303.49804 645.50866 302.11421 646.90625 300.76758 C 648.62001 299.11631 650.37205 297.50403 652.16016 295.93359 C 649.64847 296.41174 647.12475 296.83301 644.59375 297.19531 C 636.79589 298.31148 628.83513 298.87133 621.05859 297.61523 C 605.50275 295.1026 592.10841 285.65282 577.76758 279.12305 C 561.1566 271.55961 542.99437 267.85433 524.80859 266.30273 C 507.76788 264.84884 490.63028 265.23804 473.5332 265.67383 C 464.4413 265.90558 455.30597 266.14791 446.28711 264.97461 C 437.26825 263.80132 428.29266 261.13946 420.78516 256.00586 C 415.35785 252.2947 410.77391 247.30706 407.75781 241.46484 C 404.74173 235.62261 403.32752 228.92569 403.97461 222.38281 C 404.87763 213.25222 409.63898 204.94853 415.11133 197.58398 C 424.09846 185.48931 435.47669 174.71297 440.75 160.59766 C 442.57727 155.70655 443.61436 150.46778 443.27148 145.25781 C 442.91045 139.77163 440.99686 134.39523 437.80859 129.91602 C 441.10754 133.21559 445.16466 135.75201 449.57617 137.27148 C 454.21424 138.86898 459.27644 139.3353 464.07617 138.32227 C 466.58136 137.79352 469.00181 136.86737 471.2207 135.58984 C 467.55619 135.28659 463.90722 134.79573 460.29297 134.11914 C 453.89454 132.92137 447.44659 131.06687 442.2207 127.18555 C 439.66106 125.28446 437.44459 122.92338 435.70703 120.25 C 439.02633 120.1704 442.35572 120.52468 445.58398 121.30078 C 451.47259 122.71645 456.9271 125.4993 462.60547 127.60547 C 466.41951 129.02013 470.35316 130.1343 474.37305 130.75781 C 478.26099 131.36081 482.22152 131.50188 486.14258 131.17773 C 484.74362 129.67326 483.10518 128.39091 481.30859 127.39453 C 478.4508 125.80961 475.24532 124.968 472.27148 123.61328 C 466.40914 120.94272 461.52714 116.3243 455.46094 114.15625 C 452.17219 112.98087 448.65512 112.5742 445.16406 112.47461 C 441.09399 112.35851 437.02057 112.64811 432.97461 113.10547 C 432.03102 113.21214 431.0811 113.32848 430.13477 113.25 C 429.18842 113.1715 428.23147 112.88081 427.50977 112.26367 C 427.00587 111.83279 426.63567 111.25853 426.40039 110.63867 C 426.1651 110.01882 426.06106 109.35405 426.03906 108.69141 C 426.00286 107.60092 426.1852 106.51785 426.33789 105.4375 C 426.49058 104.35715 426.61368 103.25779 426.45898 102.17773 C 426.17552 100.19878 424.99346 98.471895 423.72852 96.923828 C 422.69282 95.65632 421.57734 94.45158 420.36523 93.351562 C 418.30029 91.477536 415.95572 89.913853 413.43164 88.728516 C 409.0251 89.023755 404.59794 89.023755 400.19141 88.728516 C 396.69861 88.494496 393.20733 88.073242 389.71094 88.070312 z M 321.72461 97.009766 C 321.91253 97.033266 322.09623 97.082467 322.27148 97.154297 C 322.62199 97.297927 322.93394 97.529341 323.18555 97.8125 C 323.68877 98.378809 323.94336 99.13359 324.02539 99.886719 C 324.20838 101.56668 323.58539 103.24996 322.66016 104.66406 C 321.46081 106.49711 319.73687 107.98251 317.74609 108.89648 C 317.28192 108.41951 316.9817 107.78454 316.9082 107.12305 C 316.8347 106.46156 316.9878 105.77818 317.33594 105.21094 C 317.72711 104.57362 318.3462 104.09372 318.70117 103.43555 C 319.05249 102.78417 319.1129 102.0174 319.11719 101.27734 C 319.12119 100.53728 319.07679 99.786875 319.24609 99.066406 C 319.35934 98.584447 319.57221 98.120456 319.89844 97.748047 C 320.22467 97.375638 320.66976 97.100411 321.1582 97.019531 C 321.34505 96.988631 321.53669 96.986466 321.72461 97.009766 z M 393.05664 97.208984 C 394.47821 97.245684 395.89418 97.550549 397.20117 98.111328 C 397.889 100.38652 398.70964 102.62138 399.6582 104.80078 C 400.48905 106.70975 401.42292 108.58728 402.66016 110.26172 C 403.83211 111.84782 405.26891 113.23808 406.89258 114.35742 C 405.60296 116.47743 403.72539 118.23498 401.52539 119.38281 C 399.32539 120.53063 396.81057 121.06518 394.33398 120.91016 C 391.03258 120.70351 387.82988 119.25787 385.45898 116.95117 C 383.34239 114.89188 381.87538 112.11337 381.63672 109.16992 C 381.38753 106.09657 382.52047 102.94395 384.64062 100.70508 C 386.20528 99.052821 388.28515 97.895786 390.51367 97.435547 C 391.34937 97.262957 392.2037 97.186974 393.05664 97.208984 z M 424.23242 163.78906 C 425.61856 163.79406 427.00303 164.06912 428.26953 164.60352 C 426.50631 164.72304 424.75674 165.00745 423.05273 165.45312 C 420.66812 166.0768 418.34079 167.01938 415.87109 167.1543 C 414.913 167.2066 413.94752 167.1346 413.00977 166.94141 C 414.04189 166.81467 415.05913 166.58222 416.03906 166.25 C 417.97705 165.59299 419.76586 164.54704 421.76172 164.07031 C 422.56832 163.87762 423.40074 163.78583 424.23242 163.78906 z M 416.83789 173.31445 C 418.44915 173.32045 420.05906 173.64679 421.53125 174.27734 C 419.48166 174.41837 417.44558 174.75345 415.46484 175.2793 C 412.69296 176.01519 409.98797 177.12792 407.11719 177.28711 C 406.0035 177.34891 404.88108 177.26511 403.79102 177.03711 C 404.99077 176.88757 406.17343 176.61267 407.3125 176.2207 C 409.56522 175.44548 411.64487 174.211 413.96484 173.64844 C 414.90244 173.42109 415.87114 173.31056 416.83789 173.31445 z M 405.91992 184.38477 C 407.88171 184.39277 409.84425 184.79562 411.63672 185.57617 C 409.14124 185.75074 406.66362 186.16741 404.25195 186.81836 C 400.87704 187.72932 397.58321 189.10566 394.08789 189.30273 C 392.7319 189.37913 391.36432 189.27444 390.03711 188.99219 C 391.49787 188.80707 392.93928 188.46765 394.32617 187.98242 C 397.06899 187.02279 399.59913 185.49523 402.42383 184.79883 C 403.5654 184.51739 404.74285 184.37996 405.91992 184.38477 z M 398.67578 193.27539 C 401.44845 193.28699 404.22055 193.86792 406.75391 194.99609 C 403.22696 195.2484 399.72488 195.85014 396.31641 196.79102 C 391.54652 198.10768 386.89124 200.09798 381.95117 200.38281 C 380.03473 200.49325 378.1043 200.34151 376.22852 199.93359 C 378.29306 199.66602 380.32699 199.17595 382.28711 198.47461 C 386.16362 197.08759 389.74212 194.87959 393.73438 193.87305 C 395.34774 193.46626 397.01218 193.26845 398.67578 193.27539 z M 393.68164 202.27539 C 396.14601 202.28559 398.60967 202.79897 400.86133 203.79492 C 397.72656 204.01767 394.61347 204.54831 391.58398 205.37891 C 387.34448 206.54126 383.20717 208.29934 378.81641 208.55078 C 377.11304 208.64828 375.39572 208.51438 373.72852 208.1543 C 375.56349 207.91809 377.37307 207.48437 379.11523 206.86523 C 382.5607 205.64076 385.74073 203.69131 389.28906 202.80273 C 390.72309 202.44363 392.20302 202.26926 393.68164 202.27539 z M 387.2168 213.50781 C 389.17859 213.51581 391.13918 213.91867 392.93164 214.69922 C 390.43618 214.87379 387.95847 215.29046 385.54688 215.94141 C 382.17195 216.85236 378.87816 218.22872 375.38281 218.42578 C 374.02684 218.50218 372.65925 218.39747 371.33203 218.11523 C 372.79281 217.93011 374.23422 217.5907 375.62109 217.10547 C 378.36392 216.14584 380.896 214.61826 383.7207 213.92188 C 384.86228 213.64044 386.03972 213.503 387.2168 213.50781 z M 196.52734 215.00781 C 189.3817 214.92889 182.26517 217.18916 176.00195 220.69727 C 171.90422 222.99246 168.1239 225.80515 164.1875 228.36719 C 160.2511 230.92923 156.09486 233.26814 151.55469 234.4707 C 148.13083 235.37758 144.57152 235.61804 141.06836 236.14062 C 137.5652 236.66325 134.02085 237.50636 131.06836 239.46289 C 128.99661 240.83578 127.30075 242.70246 125.73047 244.62891 C 125.06063 245.45068 124.39056 246.30422 123.49219 246.86719 C 122.60694 247.42193 121.55485 247.65647 120.51367 247.74219 C 119.4725 247.8279 118.4252 247.77334 117.38086 247.80078 C 115.66335 247.84591 113.95139 248.11106 112.30078 248.58789 C 112.77136 249.79716 113.47747 250.91482 114.36719 251.85938 C 115.34556 252.898 116.52961 253.71549 117.63867 254.61328 C 118.74411 255.50813 119.78177 256.48848 120.73828 257.54102 C 122.34175 256.98799 124.03438 256.69555 125.73047 256.67969 C 128.0876 256.65765 130.4525 257.16303 132.78906 256.85156 C 134.49057 256.62475 136.11198 255.97013 137.60938 255.13086 C 138.48926 254.63767 139.36657 254.0678 140.36523 253.92578 C 141.44409 253.77235 142.53037 254.14133 143.50195 254.63477 C 144.47354 255.1282 145.38203 255.75161 146.39062 256.16406 C 147.97616 256.81241 149.83349 256.89473 151.38281 256.16406 C 152.45122 255.6602 153.321 254.80519 154.02344 253.85547 C 154.72587 252.90575 155.27775 251.85432 155.85938 250.82617 C 157.44087 248.03044 159.27707 245.35866 161.54102 243.08008 C 166.40007 238.18959 172.94063 235.3777 179.44531 233.09375 C 183.13362 231.7987 186.91013 230.62744 190.80859 230.33984 C 195.66269 229.98174 200.5535 231.01869 205.0625 232.85156 C 209.5715 234.68443 213.72602 237.29456 217.66602 240.15234 C 225.31425 245.6998 232.21117 252.20022 239.18555 258.57422 C 241.18936 260.40554 243.29666 262.28294 245.90039 263.05078 C 247.51055 263.52562 249.21402 263.54343 250.89258 263.56641 C 253.59019 263.60333 256.28763 263.66042 258.98438 263.73828 C 258.72782 260.75978 258.55643 257.77536 258.46875 254.78711 C 258.37785 251.68905 258.37785 248.58829 258.46875 245.49023 C 249.79355 242.04628 241.47259 237.71233 233.67773 232.57812 C 228.29248 229.03109 223.15506 225.10042 217.60547 221.81641 C 212.05588 218.5324 205.9992 215.88071 199.58789 215.18945 C 198.56826 215.07952 197.54815 215.01909 196.52734 215.00781 z M 387.45508 223.61133 C 389.13851 223.61833 390.82125 223.95772 392.35938 224.61914 C 390.21799 224.76707 388.09288 225.12027 386.02344 225.67188 C 383.1274 226.4438 380.30016 227.61035 377.30078 227.77734 C 376.13721 227.84214 374.96506 227.75285 373.82617 227.51367 C 375.07966 227.35681 376.31576 227.06937 377.50586 226.6582 C 379.85948 225.84502 382.03117 224.55105 384.45508 223.96094 C 385.43467 223.72245 386.44502 223.60726 387.45508 223.61133 z M 110.33984 251.49805 C 107.77317 251.60211 105.24032 252.50059 103.19336 254.05469 C 101.49484 255.34423 100.14734 257.04482 98.480469 258.375 C 95.064895 261.10068 90.324867 262.07874 86.109375 260.92773 C 87.526592 262.4542 89.39064 263.56018 91.410156 264.07031 C 93.869562 264.69154 96.518091 264.42324 98.873047 263.48047 C 102.5376 262.01343 105.38001 259.05257 107.90625 256.01953 C 109.12995 254.55033 110.30936 253.04287 111.44141 251.50195 C 111.07469 251.48395 110.70651 251.48325 110.33984 251.49805 z M 114.7793 256.60742 C 112.28303 257.206 109.91999 258.35527 107.90625 259.94727 C 105.06485 262.19359 102.92715 265.29344 99.855469 267.21289 C 97.704133 268.55723 95.217892 269.24174 92.785156 269.96094 C 91.737178 270.27076 90.656482 270.60975 89.839844 271.33594 C 89.415535 271.71326 89.076731 272.18719 88.857422 272.71094 C 91.158388 274.64769 93.845046 276.12517 96.712891 277.03125 C 100.71393 278.29538 105.12508 278.42177 109.08398 277.03125 C 113.59275 275.44762 117.27418 272.00076 119.88477 267.99805 C 121.39292 265.68562 122.58606 263.16699 123.41992 260.53516 C 122.02434 260.63016 120.60807 260.42924 119.29492 259.94727 C 117.51347 259.2934 115.92706 258.11863 114.7793 256.60742 z M 129.31055 301.18555 C 128.29724 301.30097 127.30146 301.56625 126.36523 301.9707 C 124.73306 302.67579 123.3085 303.78683 121.99609 304.98633 C 120.6837 306.18582 119.46297 307.48457 118.11719 308.64648 C 115.34878 311.03667 112.10767 312.80071 108.88867 314.53711 C 108.03807 314.99595 107.18723 315.45454 106.33594 315.91211 C 106.51054 316.74681 106.92032 317.53236 107.50586 318.15234 C 108.09139 318.77231 108.85046 319.22529 109.67383 319.44727 C 110.81695 319.75545 112.04547 319.61473 113.16992 319.24414 C 114.29436 318.87356 115.33082 318.28282 116.34961 317.67969 C 120.54598 315.19541 124.70846 312.27975 127.15039 308.05859 C 128.36268 305.96303 129.10607 303.59785 129.31055 301.18555 z M 593.61523 306.17188 C 594.47459 307.02234 595.42124 307.78267 596.43359 308.43555 C 598.43573 309.72674 600.69177 310.59868 602.56836 312.07422 C 604.59077 313.66442 606.08846 315.93315 606.75195 318.4082 C 605.37387 316.88455 603.85088 315.49334 602.21289 314.26172 C 599.92066 312.53819 597.37474 311.09924 595.47461 308.94141 C 594.73747 308.1043 594.11005 307.16956 593.61523 306.17188 z M 131.86328 307.46875 C 129.78335 309.71126 127.55182 311.81161 125.1875 313.75195 C 121.81032 316.52353 118.12703 319.00419 115.36914 322.39258 C 114.2892 323.71942 113.36371 325.17263 112.61914 326.71289 C 114.52486 327.74729 116.49286 328.66674 118.50977 329.46289 C 120.11585 330.09689 121.76865 330.65712 123.48438 330.85156 C 125.20004 331.04601 126.99643 330.85356 128.52539 330.05078 C 129.9517 329.30231 131.06521 328.07451 132.04102 326.79297 C 133.01681 325.51142 133.89229 324.14626 135.00586 322.98242 C 136.2884 321.64198 137.87629 320.57909 138.93359 319.05469 C 139.74356 317.88692 140.20167 316.47934 140.23633 315.05859 C 140.27103 313.63786 139.88096 312.20976 139.12891 311.00391 C 137.88061 311.21688 136.57502 311.07951 135.39844 310.61133 C 133.90375 310.01652 132.62923 308.88338 131.86328 307.46875 z M 335.46875 311.47266 C 336.37579 311.49456 337.27971 311.62175 338.15039 311.85938 C 336.26109 312.25258 334.41053 312.82719 332.63477 313.56836 C 330.14973 314.60557 327.77425 315.98283 325.12305 316.49805 C 324.09454 316.69792 323.03986 316.76319 321.99609 316.69141 C 323.09341 316.39913 324.15829 315.99364 325.16797 315.48438 C 327.1648 314.47718 328.94254 313.0667 331.0293 312.24805 C 332.43486 311.69664 333.95701 311.43613 335.46875 311.47266 z M 349.03516 315.69141 C 350.24329 315.72101 351.44576 315.89567 352.60547 316.2168 C 350.08898 316.74817 347.62501 317.52183 345.25977 318.52344 C 341.94977 319.9251 338.78717 321.78617 335.25586 322.48242 C 333.88591 322.75253 332.48011 322.84114 331.08984 322.74414 C 332.55144 322.34916 333.97154 321.80151 335.31641 321.11328 C 337.97611 319.75219 340.34161 317.84653 343.12109 316.74023 C 344.99328 315.99507 347.02159 315.64205 349.03516 315.69141 z M 593.4375 315.8418 C 594.29685 316.69227 595.2435 317.45259 596.25586 318.10547 C 598.25799 319.39666 600.51409 320.26664 602.39062 321.74219 C 604.41304 323.33238 605.91072 325.60111 606.57422 328.07617 C 605.19613 326.55252 603.67313 325.1613 602.03516 323.92969 C 599.74293 322.20616 597.19695 320.76917 595.29688 318.61133 C 594.55974 317.77422 593.9323 316.83949 593.4375 315.8418 z M 359.33594 321.55273 C 360.11841 321.57143 360.89732 321.68162 361.64844 321.88477 C 360.01858 322.22093 358.42253 322.71012 356.89062 323.34375 C 354.74688 324.23047 352.69728 325.40719 350.41016 325.84766 C 349.52288 326.01854 348.61332 326.07504 347.71289 326.01367 C 348.65952 325.76379 349.57818 325.41781 350.44922 324.98242 C 352.17183 324.12138 353.70567 322.9147 355.50586 322.21484 C 356.71842 321.74343 358.03181 321.5215 359.33594 321.55273 z M 593.23242 324.3457 C 594.01391 325.1187 594.87429 325.80892 595.79492 326.40234 C 597.61565 327.57592 599.66649 328.36785 601.37305 329.70898 C 603.21221 331.15433 604.5763 333.21719 605.17969 335.4668 C 603.92645 334.08193 602.54036 332.81668 601.05078 331.69727 C 598.96624 330.13072 596.64979 328.8226 594.92188 326.86133 C 594.25153 326.10047 593.68239 325.25251 593.23242 324.3457 z M 373.55469 325.85352 C 374.33716 325.87222 375.11608 325.9824 375.86719 326.18555 C 374.23734 326.52171 372.64125 327.0109 371.10938 327.64453 C 368.9656 328.53125 366.91604 329.70993 364.62891 330.15039 C 363.74164 330.32127 362.83207 330.37581 361.93164 330.31445 C 362.87827 330.06457 363.79694 329.71858 364.66797 329.2832 C 366.39058 328.42215 367.92442 327.21745 369.72461 326.51758 C 370.93716 326.04617 372.25056 325.82229 373.55469 325.85352 z M 392.55469 327.88477 C 393.25598 327.90147 393.95377 328.00093 394.62695 328.18164 C 393.16621 328.48066 391.73429 328.91488 390.36133 329.47852 C 388.43998 330.26727 386.60451 331.31522 384.55469 331.70703 C 383.75948 331.85903 382.94374 331.9081 382.13672 331.85352 C 382.98514 331.63125 383.8092 331.32283 384.58984 330.93555 C 386.13373 330.16963 387.50768 329.09716 389.12109 328.47461 C 390.20784 328.05528 391.38587 327.85699 392.55469 327.88477 z M 527.78906 333.14844 C 526.90388 333.17294 526.02493 333.30162 525.17969 333.5625 C 524.48713 333.77626 523.80741 334.08719 523.28711 334.5918 C 523.02696 334.84411 522.80966 335.14304 522.66797 335.47656 C 522.52629 335.81011 522.46149 336.17875 522.5 336.53906 C 522.551 337.01603 522.78283 337.46519 523.10742 337.81836 C 523.43201 338.17153 523.84658 338.43325 524.28711 338.62305 C 525.07157 338.96104 525.93687 339.07421 526.79102 339.08008 C 527.64516 339.08608 528.49615 338.98954 529.34766 338.92188 C 531.15807 338.77812 533.04377 338.7819 534.70508 339.51562 C 535.2753 339.76747 535.81436 340.10707 536.24414 340.55859 C 536.67391 341.0101 536.98984 341.57939 537.08594 342.19531 C 537.15874 342.66191 537.10557 343.13826 537.13867 343.60938 C 537.15517 343.8449 537.19417 344.08052 537.2793 344.30078 C 537.3645 344.52103 537.4974 344.72729 537.68164 344.875 C 537.91483 345.06195 538.22102 345.14751 538.51953 345.13281 C 538.81805 345.11811 539.10772 345.00598 539.35352 344.83594 C 539.84508 344.49585 540.14984 343.94582 540.36133 343.38672 C 540.97865 341.75472 540.9185 339.84661 540.0625 338.32617 C 539.48936 337.30817 538.59425 336.49755 537.59961 335.88477 C 536.60496 335.27198 535.51006 334.84335 534.4082 334.45508 C 532.925 333.93243 531.41006 333.47582 529.85156 333.26562 C 529.46194 333.21316 529.06939 333.17642 528.67578 333.1582 C 528.38058 333.1445 528.08412 333.14054 527.78906 333.14844 z M 513.57031 336.24219 C 511.18618 337.76154 508.98285 339.56355 507.02148 341.59961 C 503.56384 345.18897 500.87579 349.49063 498.98438 354.10156 C 497.66917 357.30769 496.72506 360.84411 497.49609 364.22266 C 498.09822 366.86101 499.71175 369.18276 501.66797 371.05273 C 503.62419 372.92269 505.92361 374.38884 508.21289 375.83203 C 512.89801 378.7856 517.77253 381.85664 520.71484 386.54883 C 523.02335 390.2303 523.94603 394.78937 523.0957 399.05078 C 522.52482 401.91176 521.19407 404.58007 519.5332 406.97852 C 517.87234 409.37696 515.9653 411.61416 513.86719 413.63672 C 508.67926 418.63778 502.95067 423.1192 496.90039 427.0332 C 491.71603 430.38704 484.12005 434.02398 480.4707 435.58789 C 476.82136 437.1518 473.26637 439.18115 470.70508 442.21484 C 468.46159 444.87207 467.10645 448.14442 465.34766 451.14453 C 464.62351 452.37976 463.82653 453.57327 462.96484 454.7168 C 463.8366 454.94767 464.74335 455.04757 465.64453 455.01367 C 466.05166 454.99837 466.45837 454.95576 466.86523 454.97656 C 467.27212 454.99736 467.68577 455.08744 468.02539 455.3125 C 468.45764 455.59894 468.72633 456.07444 468.92188 456.55469 C 469.11734 457.03495 469.25758 457.53934 469.51367 457.99023 C 469.8115 458.51464 470.26068 458.94742 470.77539 459.26172 C 471.2901 459.57602 471.86949 459.77522 472.46289 459.88281 C 473.64971 460.09794 474.86925 459.95341 476.0625 459.77734 C 478.75114 459.38056 481.4787 458.80537 483.80273 457.39648 C 486.41135 455.81508 488.37242 453.19901 489.16016 450.25195 C 491.1018 451.98178 493.47825 453.22123 496.00781 453.82422 C 497.28066 454.12763 498.64545 454.26641 499.87695 453.82422 C 500.66292 453.54201 501.35615 453.03155 501.91406 452.41016 C 502.47198 451.78876 502.89872 451.05739 503.23047 450.29102 C 503.89398 448.75827 504.18484 447.09506 504.64062 445.48828 C 506.18918 440.03021 509.64265 435.29336 513.57031 431.19922 C 519.69558 424.81432 527.30457 419.6208 535.89648 417.50781 C 537.5848 417.0926 539.30116 416.79736 540.97852 416.33984 C 542.65584 415.88232 544.30974 415.25102 545.71875 414.23242 C 546.84628 413.41731 547.80319 412.35636 548.44336 411.12109 C 549.08352 409.88582 549.40041 408.4749 549.29102 407.08789 C 549.14106 405.18651 548.21358 403.42559 547.06836 401.90039 C 545.92314 400.37518 544.55174 399.03368 543.33789 397.5625 C 540.47076 394.08754 538.4924 389.83334 537.98047 385.35742 C 537.28718 379.29578 539.37347 373.02826 543.33789 368.39062 C 545.61282 365.72943 548.48011 363.57745 551.67188 362.13867 C 550.65473 361.66849 549.67828 361.11589 548.74609 360.49414 C 547.10462 361.6879 545.49969 362.93132 543.93359 364.22266 C 539.65177 367.75325 535.66325 371.64096 532.02539 375.83203 C 533.5138 372.4066 535.31061 369.11569 537.38477 366.00977 C 539.53563 362.78893 541.99167 359.77493 544.69922 357.00586 C 544.5421 356.83266 544.38185 356.66259 544.23047 356.48438 C 543.91869 356.11726 543.61924 355.74003 543.32812 355.35547 C 538.82256 358.11316 534.52796 361.21662 530.51367 364.65039 C 532.49198 361.48254 534.75532 358.49187 537.26562 355.72656 C 538.4458 354.4266 539.68359 353.17839 540.96875 351.98242 C 540.45681 351.23451 539.93195 350.49892 539.38086 349.78711 C 535.06893 351.78721 530.89043 354.07366 526.90625 356.66602 C 529.28076 353.78319 531.91412 351.11354 534.76367 348.69922 C 535.43532 348.13016 536.12329 347.58116 536.81836 347.04102 C 535.5363 345.93897 534.10344 345.06869 532.58008 344.33984 C 529.79404 346.0301 527.08094 347.83948 524.47266 349.79297 C 526.13608 347.47773 527.96085 345.27854 529.92383 343.21094 C 528.15982 342.53425 526.34843 341.94271 524.58398 341.30273 C 520.78147 339.92352 517.09369 338.22893 513.57031 336.24219 z M 463.56055 460.37305 C 462.14175 461.1134 460.75073 461.90743 459.39258 462.75391 C 456.86881 464.32684 454.42817 466.10709 452.54688 468.41016 C 450.28441 471.17975 448.91212 474.66388 448.67773 478.23242 C 450.36126 477.95424 451.98813 477.34464 453.43945 476.44727 C 456.35115 474.64691 458.4545 471.76756 459.98828 468.70703 C 460.76487 467.15741 461.4137 465.54864 462.07227 463.94531 C 462.56235 462.75211 463.0584 461.56123 463.56055 460.37305 z M 466.53711 460.66992 C 466.6743 462.29913 466.3626 463.96476 465.64453 465.43359 C 464.83363 467.09231 463.54394 468.45715 462.36133 469.875 C 461.17871 471.29285 460.05805 472.85061 459.69141 474.66016 C 459.45094 475.84697 459.55469 477.10177 459.98828 478.23242 L 474.87305 478.23242 C 475.90617 475.40089 476.79928 472.51854 477.55078 469.59961 C 478.13322 467.33735 478.62973 465.0538 479.03906 462.75391 C 476.63266 463.84013 473.84501 464.05503 471.30078 463.34961 C 469.52823 462.85815 467.87758 461.92954 466.53711 460.66992 z M 558.51953 460.9668 C 556.79439 460.8838 555.0515 461.19281 553.45898 461.86133 C 550.6728 463.03092 548.38169 465.32727 547.20703 468.11133 C 546.71893 469.26818 546.42021 470.4943 546.01758 471.68359 C 545.21621 474.05063 544.00158 476.27716 542.44531 478.23242 C 543.44159 478.38372 544.47528 478.28112 545.42188 477.93555 C 546.66985 477.4799 547.73987 476.61925 548.60547 475.61133 C 549.47107 474.60341 550.14635 473.44743 550.7793 472.2793 C 551.77039 470.45014 552.71978 468.50922 554.35156 467.21875 C 554.93815 466.75487 555.59623 466.39073 556.22656 465.98828 C 556.85689 465.58583 557.47083 465.1341 557.92383 464.53906 C 558.68457 463.5398 558.91506 462.15878 558.51953 460.9668 z M 563.58008 461.86133 C 560.95992 464.33735 558.65244 467.14418 556.73242 470.19531 C 555.02704 472.90535 553.62771 475.80718 552.56641 478.82812 L 569.5332 480.31641 C 570.51808 477.74382 571.71426 475.25256 573.10547 472.875 C 574.58117 470.35304 576.27654 467.95934 578.16602 465.73047 C 575.98683 465.31315 573.80379 464.91553 571.61719 464.53906 C 570.21607 464.29785 568.80816 464.06432 567.44922 463.64648 C 566.08718 463.2277 564.78242 462.62609 563.58008 461.86133 z "
     transform="matrix(1.0000018,0,0,1.0000018,0,-0.00284294)"
     id="path4542-7" />
  <path
     inkscape:connector-curvature="0"
     style="opacity:1;fill:none;fill-opacity:1;fill-rule:evenodd;stroke:#040000;stroke-width:5.00000906;stroke-linecap:round;stroke-linejoin:round;stroke-miterlimit:4;stroke-dasharray:none;stroke-opacity:1;paint-order:fill markers stroke"
     d="m 401.40892,5.4991073 c -21.07553,0.48032 -42.17013,1.86935 -63.02159,4.9003997 -23.14525,3.36449 -45.91582,9.03685 -68.60755,14.70316 -49.03707,12.24493 -95.74091,34.64438 -145.79519,41.65437 -16.9862,2.37888 -29.548097,5.80344 -51.455177,0 -1.62875,11.29735 -4.51083,22.4145 -8.57619,33.08014 -6.61502,17.354743 -16.35001,33.461773 -28.17778,47.781333 -8.57103,10.37671 -18.24806,19.83934 -28.8125602,28.1778 0,0 15.2055902,29.55672 20.1523902,45.33797 5.53836,17.66839 8.1439,36.18494 10.45119,54.55674 8.58553,68.36212 6.09779,137.90012 12.4883,206.32264 H 752.76309 c 6.3905,-68.42253 3.9028,-137.96052 12.48831,-206.32264 2.30731,-18.37181 4.91282,-36.88835 10.45118,-54.55674 4.94679,-15.78126 20.15239,-45.33797 20.15239,-45.33797 -10.56451,-8.33846 -20.24153,-17.80109 -28.81255,-28.1778 -11.82777,-14.31957 -21.56276,-30.4266 -28.17779,-47.781333 -4.06535,-10.66564 -6.94745,-21.78279 -8.57619,-33.08014 -21.90708,5.80344 -34.46896,2.37888 -51.45517,0 -50.0543,-7.00999 -96.75811,-29.40944 -145.79519,-41.65437 -22.69174,-5.66631 -45.46232,-11.33867 -68.60755,-14.70316 C 443.57907,7.3684573 422.48447,5.9794273 401.40892,5.4991073 Z"
     id="rect4390-0" />
  <path
     inkscape:connector-curvature="0"
     style="fill:none;fill-rule:evenodd;stroke:#000000;stroke-width:11;stroke-opacity:1"
     d="m 401.40865,5.4985867 c -21.07553,0.4803179 -42.17014,1.869347 -63.0216,4.9004003 -23.14524,3.364485 -45.9158,9.036851 -68.60754,14.703152 -49.03707,12.244931 -95.7409,34.644382 -145.79519,41.654373 -16.9862,2.378879 -29.548087,5.803442 -51.455167,0 -1.62875,11.297348 -4.51083,22.414507 -8.57619,33.080145 -6.61502,17.354743 -16.35002,33.461763 -28.17779,47.781323 -8.57103,10.37671 -18.24805,19.83933 -28.8125504,28.17778 0,0 15.2055804,29.55674 20.1523804,45.33799 5.53836,17.66839 8.1439,36.18494 10.45119,54.55674 8.62873,68.70611 6.06906,138.60037 12.58206,207.35584 3.02684,31.95334 9.72462,95.79706 9.72462,95.79706 15.43183,151.04437 164.545657,286.16801 341.535777,286.27786 176.99014,-0.10985 326.10396,-135.23349 341.53579,-286.27786 0,0 6.69779,-63.84371 9.72463,-95.79706 6.513,-68.75548 3.95333,-138.64973 12.58205,-207.35584 2.3073,-18.37181 4.91283,-36.88835 10.45119,-54.55674 4.94679,-15.78126 20.15239,-45.33799 20.15239,-45.33799 -10.56451,-8.33845 -20.24153,-17.80107 -28.81256,-28.17778 -11.82777,-14.31957 -21.56277,-30.42659 -28.17779,-47.781323 -4.06536,-10.665639 -6.94744,-21.782796 -8.57618,-33.080145 -21.90708,5.803443 -34.46898,2.378879 -51.45518,0 C 628.77869,59.74652 582.07487,37.347071 533.0378,25.102139 510.34606,19.435838 487.5755,13.763472 464.43026,10.398987 443.5788,7.3679333 422.4842,5.9789047 401.40865,5.4985867 Z"
     id="path1077-7-0" />
  <path
     transform="translate(836.25177,-0.35066)"
     style="fill:#ffffff;stroke:none;stroke-width:1.00000179px;stroke-linecap:butt;stroke-linejoin:miter;stroke-opacity:1"
     d="m -438.36797,107.88007 c -0.0194,-1.57331 -0.44661,-3.13988 -1.22869,-4.50518 -0.56659,-0.9891 -1.33408,-1.88674 -2.32085,-2.45738 -0.73702,-0.42622 -1.58123,-0.6591 -2.43176,-0.69739 -0.85052,-0.0383 -1.70645,0.11592 -2.50015,0.424 -1.58739,0.61616 -2.89766,1.8362 -3.80541,3.27684 -0.76038,1.20677 -1.25955,2.58192 -1.41368,3.99991 -0.15414,1.418 0.0404,2.87705 0.59456,4.19134 0.76852,1.82265 2.21114,3.32113 3.91812,4.32057 1.70699,0.99943 3.66732,1.51946 5.63832,1.68634 1.87057,0.15838 3.83639,-0.0148 5.46084,-0.95564 1.13329,-0.6564 2.0538,-1.67381 2.59388,-2.86693 -1.95808,-0.0597 -3.91521,-0.15073 -5.87038,-0.27305 -1.5511,-0.097 -3.12938,-0.22006 -4.5734,-0.79465 -0.722,-0.28729 -1.40404,-0.68804 -1.96999,-1.22053 -0.56594,-0.53248 -1.01298,-1.20024 -1.2383,-1.94392 -0.32749,-1.0809 -0.16196,-2.29248 0.40579,-3.26883 0.56776,-0.97635 1.52179,-1.71182 2.59767,-2.05547 1.21542,-0.38822 2.58248,-0.27633 3.7186,0.30435 1.13611,0.58068 2.02755,1.62313 2.42483,2.83562 z"
     id="path5124-7"
     inkscape:connector-curvature="0"
     inkscape:path-effect="#path-effect5126-3"
     inkscape:original-d="m -438.36797,107.88007 c 0,0 -0.46671,-3.14787 -1.22869,-4.50518 -0.55154,-0.98247 -1.22683,-2.18799 -2.32085,-2.45738 -2.99039,-0.73634 -6.82563,0.5889 -8.73732,3.00345 -1.70333,2.15137 -2.02498,5.72637 -0.81912,8.19125 1.65342,3.37975 5.86448,5.2817 9.55644,6.00691 1.81329,0.35618 3.84294,-0.0627 5.46084,-0.95564 1.1283,-0.62271 2.59388,-2.86693 2.59388,-2.86693 0,0 -3.97659,0.22782 -5.87038,-0.27305 -2.81357,-0.74413 -6.94035,-1.17305 -7.78169,-3.9591 -0.58906,-1.95067 1.05225,-4.73704 3.00346,-5.3243 2.20221,-0.6628 6.14343,3.13997 6.14343,3.13997 z"
     sodipodi:nodetypes="caaaaaacaaac" />
</svg>
