<?xml version="1.0" encoding="ISO-8859-1" standalone="yes"?>
<svg width="598.701" height="715.846">
  <defs> 
    <marker id="ArrowEnd" viewBox="0 0 10 10" refX="0" refY="5" 
     markerUnits="strokeWidth" 
     markerWidth="4" 
     markerHeight="3" 
     orient="auto"> 
        <path d="M 0 0 L 10 5 L 0 10 z" /> 
    </marker>
    <marker id="ArrowStart" viewBox="0 0 10 10" refX="10" refY="5" 
     markerUnits="strokeWidth" 
     markerWidth="4" 
     markerHeight="3" 
     orient="auto"> 
        <path d="M 10 0 L 0 5 L 10 10 z" /> 
    </marker> </defs>
<g>
</g>
<g>
<g>
<path style="stroke:#000000; stroke-width:0.216; fill-rule:evenodd; fill:#000000" d="M 2.41747 2.41748L 597.569 2.41748L 597.569 417.929C 597.569 581.441 463.865 714.714 299.921 714.714C 136.049 714.714 2.41747 581.441 2.41747 417.929L 2.41747 2.41748z"/>
<path style="stroke:#000000; stroke-width:1.3680000000000001; fill-rule:evenodd; fill:#d3cec5" d="M 7.16947 7.16949L 586.697 7.16949L 586.697 412.817C 586.697 572.441 456.521 702.617 296.969 702.617C 137.345 702.617 7.16947 572.441 7.16947 412.817L 7.16947 7.16949z"/>
<path style="stroke:none; fill-rule:evenodd; fill:#000000" d="M 419.585 431.393L 419.585 431.753C 419.513 433.121 418.145 434.129 417.209 433.481C 399.425 418.865 384.017 429.882 369.257 445.073C 358.601 447.449 345.353 450.689 332.537 456.449L 332.537 452.201C 341.897 448.457 352.337 445.505 364.361 442.625C 367.529 422.753 376.385 401.441 392.945 400.577C 407.273 399.714 412.097 412.457 415.625 429.305C 415.985 430.745 417.353 430.529 417.209 428.801C 415.553 413.322 407.273 396.617 392.945 397.121C 374.945 397.841 363.713 422.537 360.833 439.241C 351.761 441.401 342.041 444.137 332.537 447.737L 332.537 417.137C 338.441 424.121 345.425 429.305 353.705 434.057C 349.529 435.425 346.721 436.289 342.761 437.873C 341.033 438.737 341.393 440.177 343.049 439.673C 346.721 438.378 352.985 436.649 357.089 435.785C 357.233 434.921 357.377 434.057 357.737 433.049C 347.225 426.353 339.089 420.665 332.537 412.889L 332.537 407.129C 335.129 405.185 337.217 403.098 339.089 400.938C 345.065 406.121 352.697 408.785 363.281 410.729L 364.721 408.281C 353.777 406.697 346.361 404.033 340.457 399.21C 340.817 398.849 341.177 398.201 341.537 397.841C 347.657 402.809 355.289 404.826 365.945 406.121C 373.217 397.985 379.481 394.817 390.713 393.953C 413.825 392.081 418.217 415.409 419.585 431.249C 419.585 431.322 419.585 431.393 419.585 431.393L 419.585 431.393zM 332.537 403.457C 335.417 401.297 338.153 398.705 340.673 395.681C 341.897 393.305 339.161 390.929 337.577 392.585C 335.921 394.169 334.265 395.609 332.537 396.977L 332.537 403.457L 332.537 403.457zM 332.537 394.673C 332.753 394.529 332.969 394.313 333.185 394.169C 332.969 393.882 332.753 393.593 332.537 393.378L 332.537 394.673L 332.537 394.673zM 332.537 390.569C 333.113 391.434 333.689 392.297 334.337 393.089C 334.769 392.729 335.129 392.225 335.561 392.009C 334.409 390.425 333.401 388.841 332.537 387.113L 332.537 390.569L 332.537 390.569zM 332.537 367.457L 332.537 346.289C 339.089 341.826 345.353 337.001 351.113 332.033C 350.753 347.154 344.273 355.721 336.281 364.001C 335.057 365.225 333.833 366.378 332.537 367.457L 332.537 367.457zM 332.537 342.905C 338.801 338.873 344.993 334.409 351.113 329.585C 351.257 326.633 351.257 323.322 351.257 320.369C 345.641 314.322 339.233 309.353 332.537 305.105L 332.537 311.297C 333.041 311.585 333.473 311.873 333.905 312.161C 337.001 320.369 335.777 329.369 332.825 337.434C 332.753 337.505 332.681 337.577 332.537 337.649L 332.537 342.905L 332.537 342.905zM 332.537 300.929L 332.537 269.249C 333.113 269.826 333.761 270.401 334.337 270.977C 345.353 281.849 350.249 301.505 351.113 317.201C 346.001 311.225 339.593 305.753 332.537 300.929L 332.537 300.929zM 353.345 324.905C 353.345 328.865 352.985 332.826 352.697 336.714C 354.065 336.281 356.297 335.993 357.089 334.049C 358.241 331.385 359.105 328.073 359.105 324.905C 358.961 321.809 358.241 318.497 357.089 315.833C 356.297 313.889 354.065 313.602 352.697 313.098C 352.985 317.057 353.345 321.017 353.345 324.905zM 332.537 269.249L 332.537 300.929C 330.233 299.345 327.785 297.833 325.337 296.393L 325.337 263.345C 327.857 265.146 330.233 267.161 332.537 269.249L 332.537 269.249zM 332.537 305.105C 330.161 303.593 327.785 302.154 325.337 300.785L 325.337 347.441C 327.785 346.001 330.161 344.49 332.537 342.905L 332.537 337.649C 331.529 338.297 330.377 338.873 329.369 339.305C 331.745 329.945 332.609 319.434 330.233 310.073C 331.025 310.434 331.817 310.865 332.537 311.297L 332.537 305.105L 332.537 305.105zM 332.537 346.289L 332.537 367.457C 330.305 369.401 327.857 371.129 325.337 372.785L 325.337 350.897C 327.785 349.457 330.161 347.873 332.537 346.289L 332.537 346.289zM 332.537 387.113L 332.537 390.569C 329.657 385.961 328.001 380.921 326.921 374.081C 327.281 373.938 328.145 373.361 328.433 373.073C 329.441 378.905 330.665 383.369 332.537 387.113L 332.537 387.113zM 332.537 393.378C 328.721 388.193 326.777 382.577 325.481 375.017C 325.409 375.089 325.409 375.089 325.337 375.089L 325.337 399.065C 327.929 397.697 329.729 396.689 332.537 394.673L 332.537 393.378L 332.537 393.378zM 332.537 396.977L 332.537 403.457C 330.233 405.185 327.857 406.625 325.337 407.921L 325.337 401.729C 327.857 400.361 330.233 398.705 332.537 396.977L 332.537 396.977zM 332.537 407.129C 331.673 407.849 330.665 408.497 329.657 409.145C 330.593 410.441 331.529 411.737 332.537 412.889L 332.537 407.129L 332.537 407.129zM 332.537 417.137L 332.537 447.737C 330.161 448.673 327.713 449.681 325.337 450.689L 325.337 444.929C 326.129 444.569 326.921 444.21 327.713 443.849C 326.849 442.841 326.057 441.833 325.337 440.897L 325.337 411.665C 326.201 411.233 326.921 410.801 327.569 410.369C 329.153 412.817 330.809 415.049 332.537 417.137L 332.537 417.137zM 332.537 452.201L 332.537 456.449C 330.161 457.602 327.713 458.753 325.337 460.049L 325.337 455.441C 327.713 454.289 330.089 453.21 332.537 452.201zM 325.337 263.345L 325.337 296.393C 323.249 295.098 321.089 293.945 319.001 292.793L 319.001 259.385C 321.233 260.537 323.321 261.906 325.337 263.345L 325.337 263.345zM 325.337 300.785L 325.337 347.441C 323.249 348.665 321.089 349.889 319.001 350.969L 319.001 342.977C 323.105 330.593 323.681 316.913 319.217 303.953C 319.145 303.882 319.073 303.882 319.001 303.809L 319.001 297.473C 321.089 298.553 323.249 299.633 325.337 300.785L 325.337 300.785zM 325.337 350.897C 323.249 352.193 321.089 353.49 319.001 354.641L 319.001 376.602C 321.161 375.378 323.249 374.081 325.337 372.785L 325.337 350.897L 325.337 350.897zM 325.337 375.089L 325.337 399.065C 324.977 399.281 324.545 399.497 324.113 399.714C 321.881 395.609 320.225 391.434 319.001 386.609L 319.001 378.977C 320.945 377.826 323.321 376.385 325.337 375.089L 325.337 375.089zM 325.337 401.729L 325.337 407.921C 324.761 408.21 324.113 408.497 323.537 408.785C 322.025 409.505 320.513 410.154 319.001 410.729L 319.001 404.681C 321.161 403.817 323.321 402.809 325.337 401.729L 325.337 401.729zM 325.337 411.665L 325.337 440.897C 322.961 437.729 320.801 434.705 319.001 431.681L 319.001 414.257C 321.305 413.465 323.537 412.602 325.337 411.665L 325.337 411.665zM 325.337 444.929L 325.337 450.689C 323.177 451.697 321.089 452.705 319.001 453.714L 319.001 448.098C 321.089 447.017 323.177 445.938 325.337 444.929L 325.337 444.929zM 325.337 455.441L 325.337 460.049C 323.177 461.201 321.089 462.425 319.001 463.793L 319.001 458.826C 321.017 457.673 323.177 456.521 325.337 455.441L 325.337 455.441zM 319.001 444.714C 320.153 444.137 321.305 443.561 322.529 442.985C 321.305 441.113 320.153 439.241 319.001 437.369L 319.001 444.714L 319.001 444.714zM 319.001 401.873C 320.297 401.369 321.449 400.865 322.385 400.434C 321.161 397.913 320.009 395.393 319.001 392.801L 319.001 401.873zM 319.001 259.385L 319.001 292.793C 314.393 290.345 309.713 288.113 305.033 286.098L 305.033 254.49C 310.145 255.497 314.753 257.154 319.001 259.385L 319.001 259.385zM 319.001 297.473C 314.321 295.098 309.641 292.938 305.033 290.921L 305.033 298.553C 310.073 314.537 310.073 332.249 305.033 349.457L 305.033 357.449C 309.713 355.649 314.393 353.49 319.001 350.969L 319.001 342.977C 318.785 343.481 318.641 343.985 318.497 344.417C 317.633 344.921 316.625 345.641 315.689 346.073C 319.001 331.961 320.081 316.193 315.761 302.154C 316.913 302.441 317.921 303.233 319.001 303.809L 319.001 297.473L 319.001 297.473zM 319.001 354.641L 319.001 376.602C 314.321 379.193 309.569 381.714 305.033 384.449L 305.033 361.409C 309.713 359.465 314.321 357.233 319.001 354.641L 319.001 354.641zM 319.001 378.977C 318.425 379.266 317.921 379.553 317.489 379.841C 317.921 382.289 318.425 384.521 319.001 386.609L 319.001 378.977L 319.001 378.977zM 319.001 392.801C 317.561 389.201 316.409 385.313 315.689 380.777C 314.609 382.217 307.481 385.098 305.033 386.753L 305.033 391.577C 305.609 396.401 306.545 400.577 307.769 405.257C 311.153 404.537 315.545 403.169 319.001 401.873L 319.001 392.801L 319.001 392.801zM 319.001 404.681L 319.001 410.729C 314.537 412.385 310.001 413.537 305.033 414.113L 305.033 408.21C 310.001 407.561 314.609 406.409 319.001 404.681L 319.001 404.681zM 319.001 414.257L 319.001 431.681C 315.977 426.857 313.673 422.033 311.513 416.417C 313.817 415.913 316.409 415.193 319.001 414.257L 319.001 414.257zM 319.001 437.369C 314.969 431.033 311.153 424.841 308.273 417.137C 307.769 417.281 306.401 417.497 305.033 417.641L 305.033 452.273C 309.497 449.465 314.177 447.017 319.001 444.714L 319.001 437.369L 319.001 437.369zM 319.001 448.098L 319.001 453.714C 314.033 456.233 309.353 459.113 305.033 462.281L 305.033 456.953C 309.569 453.714 314.177 450.761 319.001 448.098L 319.001 448.098zM 319.001 458.826C 314.105 461.705 309.497 465.017 305.033 468.833L 305.033 475.098C 309.281 470.705 313.961 466.961 319.001 463.793L 319.001 458.826L 319.001 458.826zM 305.033 405.761L 305.033 403.889C 305.177 404.465 305.321 405.113 305.465 405.689C 305.321 405.761 305.177 405.761 305.033 405.761zM 305.033 254.49L 305.033 286.098C 304.817 286.025 304.601 285.953 304.385 285.809L 304.385 254.417C 304.601 254.417 304.817 254.49 305.033 254.49L 305.033 254.49zM 305.033 290.921L 305.033 298.553C 304.817 297.905 304.601 297.257 304.385 296.537L 304.385 290.633C 304.601 290.705 304.817 290.777 305.033 290.921L 305.033 290.921zM 305.033 349.457L 305.033 357.449C 304.817 357.593 304.601 357.665 304.385 357.737L 304.385 351.401C 304.385 351.329 304.457 351.329 304.457 351.329C 304.673 350.681 304.889 350.105 305.033 349.457L 305.033 349.457zM 305.033 361.409L 305.033 384.449C 304.889 384.593 304.745 384.665 304.601 384.737C 304.529 384.809 304.457 384.809 304.385 384.882L 304.385 361.697C 304.601 361.553 304.817 361.481 305.033 361.409L 305.033 361.409zM 305.033 386.753L 305.033 391.577C 304.889 390.137 304.745 388.625 304.601 387.042C 304.745 386.969 304.889 386.826 305.033 386.753L 305.033 386.753zM 305.033 403.889L 305.033 405.761C 304.817 405.833 304.601 405.833 304.385 405.905L 304.385 400.721C 304.601 401.801 304.817 402.809 305.033 403.889L 305.033 403.889zM 305.033 408.21L 305.033 414.113C 304.817 414.113 304.601 414.185 304.385 414.185L 304.385 408.353C 304.601 408.281 304.817 408.281 305.033 408.21L 305.033 408.21zM 305.033 417.641L 305.033 452.273C 304.817 452.417 304.601 452.561 304.385 452.705L 304.385 417.714C 304.601 417.714 304.817 417.641 305.033 417.641L 305.033 417.641zM 305.033 456.953L 305.033 462.281C 304.817 462.425 304.601 462.641 304.385 462.785L 304.385 457.457C 304.601 457.241 304.817 457.098 305.033 456.953L 305.033 456.953zM 305.033 468.833L 305.033 475.098C 304.817 475.313 304.601 475.529 304.385 475.745L 304.385 469.409C 304.601 469.266 304.817 469.049 305.033 468.833zM 304.385 254.417L 304.385 285.809C 301.217 284.513 298.121 283.217 295.025 282.137C 294.953 282.137 294.881 282.137 294.881 282.137L 294.881 253.553C 294.881 253.553 294.953 253.553 295.025 253.553C 298.337 253.553 301.433 253.841 304.385 254.417L 304.385 254.417zM 304.385 290.633L 304.385 296.537C 304.241 296.177 304.097 295.817 304.025 295.529C 302.657 294.521 301.289 293.801 299.921 293.297C 304.241 312.809 302.873 333.617 300.353 353.129C 301.649 352.409 303.089 351.977 304.385 351.401L 304.385 357.737C 301.217 358.889 298.193 359.897 295.025 360.833C 294.953 360.833 294.881 360.761 294.881 360.761L 294.881 286.457C 294.881 286.457 294.953 286.457 295.025 286.385C 298.049 287.826 301.145 289.193 304.385 290.633L 304.385 290.633zM 304.385 361.697L 304.385 384.882C 300.929 387.042 298.121 388.697 295.025 391.505C 294.953 391.434 294.881 391.434 294.881 391.361L 294.881 365.081C 294.881 365.081 294.953 365.081 295.025 365.081C 298.121 364.145 301.217 362.993 304.385 361.697L 304.385 361.697zM 304.385 400.721C 303.593 396.617 303.089 392.729 302.873 388.049C 300.065 390.353 297.833 392.369 295.097 395.033C 295.025 394.961 294.953 394.889 294.881 394.817L 294.881 402.665C 294.953 402.665 295.025 402.665 295.097 402.665C 298.337 402.809 301.145 404.753 302.153 406.193C 303.017 406.121 303.737 405.977 304.385 405.905L 304.385 400.721L 304.385 400.721zM 304.385 408.353L 304.385 414.185C 304.169 414.185 304.025 414.257 303.881 414.257C 304.385 412.098 304.385 410.441 303.449 408.425C 303.809 408.425 304.097 408.353 304.385 408.353L 304.385 408.353zM 304.385 417.714L 304.385 452.705C 301.145 454.793 298.049 457.098 295.097 459.689C 295.025 459.617 294.953 459.546 294.881 459.473L 294.881 421.529C 294.953 421.529 295.025 421.529 295.097 421.529C 298.553 421.529 301.289 419.369 302.153 418.001C 302.657 417.929 303.449 417.857 304.385 417.714L 304.385 417.714zM 304.385 457.457C 301.217 459.761 298.121 462.21 295.025 464.873C 294.953 464.801 294.881 464.801 294.881 464.729L 294.881 471.353C 294.881 471.353 294.953 471.425 295.025 471.497C 297.833 468.329 300.929 465.449 304.385 462.785L 304.385 457.457L 304.385 457.457zM 304.385 469.409L 304.385 475.745C 300.857 479.49 297.689 483.665 295.025 488.417C 294.953 488.345 294.881 488.273 294.881 488.201L 294.881 478.913C 294.881 478.985 294.953 479.057 295.025 479.057C 298.049 475.529 301.145 472.289 304.385 469.409L 304.385 469.409zM 294.881 419.585L 294.881 404.609C 294.881 404.609 294.881 404.609 294.881 404.609C 298.985 404.609 302.225 407.993 302.225 412.098C 302.225 416.201 298.985 419.585 294.881 419.585C 294.881 419.585 294.881 419.585 294.881 419.585zM 294.881 253.553L 294.881 282.137C 291.641 283.361 288.401 284.585 285.089 286.025L 285.089 254.417C 288.185 253.914 291.425 253.553 294.881 253.553L 294.881 253.553zM 294.881 286.457L 294.881 360.761C 291.569 359.826 288.329 358.745 285.089 357.593L 285.089 349.889C 285.233 350.393 285.377 350.826 285.521 351.329C 286.889 351.905 288.257 352.409 289.697 353.129C 287.033 333.617 285.809 312.809 289.985 293.297C 288.761 293.801 287.393 294.521 286.025 295.529C 285.737 296.393 285.377 297.257 285.089 298.193L 285.089 290.561C 288.401 289.121 291.713 287.753 294.881 286.457L 294.881 286.457zM 294.881 365.081L 294.881 391.361C 291.713 388.625 288.905 386.897 285.449 384.737C 285.305 384.665 285.233 384.593 285.089 384.521L 285.089 361.553C 288.401 362.921 291.641 364.073 294.881 365.081L 294.881 365.081zM 294.881 394.817C 292.289 392.441 289.985 390.281 287.249 388.193C 286.889 394.313 286.457 399.281 285.089 404.969L 285.089 405.761C 285.809 405.905 286.817 406.121 287.753 406.193C 288.977 404.681 291.569 402.737 294.881 402.665L 294.881 394.817L 294.881 394.817zM 294.881 404.609L 294.881 419.585C 290.705 419.585 287.393 416.201 287.393 412.098C 287.393 407.993 290.705 404.609 294.881 404.609L 294.881 404.609zM 294.881 421.529C 291.281 421.529 288.473 419.154 287.609 418.001C 287.249 417.929 286.241 417.785 285.089 417.641L 285.089 452.345C 288.473 454.505 291.713 456.809 294.881 459.473L 294.881 421.529L 294.881 421.529zM 294.881 464.729L 294.881 471.353C 292.001 468.113 288.689 465.161 285.089 462.497L 285.089 457.098C 288.401 459.473 291.641 462.065 294.881 464.729L 294.881 464.729zM 294.881 478.913C 291.713 475.241 288.473 472.001 285.089 469.049L 285.089 475.313C 288.761 479.129 292.073 483.378 294.881 488.201L 294.881 478.913L 294.881 478.913zM 285.089 414.185L 285.089 408.281C 285.521 408.353 285.953 408.353 286.457 408.425C 285.521 410.225 285.521 412.241 285.881 414.257C 285.593 414.257 285.377 414.185 285.089 414.185L 285.089 414.185zM 285.089 389.201C 285.161 388.481 285.233 387.689 285.305 386.969C 285.233 386.897 285.161 386.897 285.089 386.826L 285.089 389.201zM 285.089 254.417L 285.089 286.025C 282.281 287.249 279.401 288.546 276.521 289.913L 276.521 256.865C 279.257 255.857 282.065 254.993 285.089 254.417L 285.089 254.417zM 285.089 290.561L 285.089 298.193C 279.905 314.393 279.977 332.393 285.089 349.889L 285.089 357.593C 282.209 356.441 279.401 355.217 276.521 353.849L 276.521 294.378C 279.401 293.009 282.281 291.785 285.089 290.561L 285.089 290.561zM 285.089 361.553L 285.089 384.521C 282.353 382.865 279.401 381.21 276.521 379.625L 276.521 357.737C 279.401 359.033 282.281 360.329 285.089 361.553L 285.089 361.553zM 285.089 386.826C 283.721 385.961 279.617 383.585 276.521 381.857L 276.521 403.889C 278.465 404.465 280.409 404.897 282.209 405.257C 283.649 400.001 284.585 395.033 285.089 389.201L 285.089 386.826L 285.089 386.826zM 285.089 404.969L 285.089 405.761C 285.017 405.761 285.017 405.761 284.945 405.689C 285.017 405.473 285.089 405.185 285.089 404.969L 285.089 404.969zM 285.089 408.281L 285.089 414.185C 282.209 413.826 279.329 413.322 276.521 412.673L 276.521 406.697C 279.257 407.417 282.137 407.921 285.089 408.281L 285.089 408.281zM 285.089 417.641L 285.089 452.345C 282.353 450.617 279.473 448.961 276.521 447.378L 276.521 428.513C 278.465 424.985 280.265 421.241 281.777 417.137C 282.497 417.353 283.865 417.497 285.089 417.641L 285.089 417.641zM 285.089 457.098C 282.281 455.081 279.473 453.137 276.521 451.337L 276.521 456.809C 279.545 458.537 282.425 460.481 285.089 462.497L 285.089 457.098L 285.089 457.098zM 285.089 469.049L 285.089 475.313C 282.425 472.577 279.545 470.057 276.521 467.753L 276.521 462.425C 279.473 464.441 282.353 466.602 285.089 469.049L 285.089 469.049zM 276.521 420.809C 277.169 419.369 277.745 417.929 278.321 416.417C 277.745 416.273 277.169 416.129 276.521 415.985L 276.521 420.809zM 276.521 256.865L 276.521 289.913C 274.649 290.777 272.849 291.714 271.049 292.721L 271.049 259.313C 272.777 258.378 274.649 257.586 276.521 256.865L 276.521 256.865zM 276.521 294.378L 276.521 353.849C 274.721 352.913 272.849 352.049 271.049 351.042L 271.049 343.266C 271.121 343.625 271.265 344.057 271.409 344.417C 272.417 344.921 273.425 345.641 274.361 346.073C 270.977 331.961 269.969 316.193 274.289 302.154C 272.993 302.441 272.129 303.233 271.049 303.809L 271.049 297.113C 272.849 296.177 274.721 295.241 276.521 294.378L 276.521 294.378zM 276.521 357.737L 276.521 379.625C 274.721 378.617 272.849 377.609 271.049 376.529L 271.049 354.857C 272.849 355.865 274.721 356.801 276.521 357.737L 276.521 357.737zM 276.521 381.857L 276.521 403.889C 274.649 403.313 272.705 402.665 271.049 402.017L 271.049 393.233C 272.489 389.417 273.569 385.385 274.361 380.705C 275.009 380.993 275.729 381.425 276.521 381.857L 276.521 381.857zM 276.521 406.697L 276.521 412.673C 274.649 412.169 272.849 411.665 271.049 411.017L 271.049 404.969C 272.777 405.617 274.649 406.193 276.521 406.697L 276.521 406.697zM 276.521 415.985L 276.521 420.809C 274.937 424.553 273.137 428.009 271.049 431.465L 271.049 414.329C 272.993 414.977 274.865 415.553 276.521 415.985L 276.521 415.985zM 276.521 428.513C 274.793 431.609 272.921 434.633 271.049 437.658L 271.049 444.641C 272.921 445.505 274.721 446.441 276.521 447.378L 276.521 428.513L 276.521 428.513zM 276.521 451.337L 276.521 456.809C 274.721 455.729 272.921 454.793 271.049 453.785L 271.049 448.169C 272.921 449.177 274.721 450.257 276.521 451.337L 276.521 451.337zM 276.521 462.425L 276.521 467.753C 274.721 466.385 272.921 465.089 271.049 463.865L 271.049 458.897C 272.921 460.049 274.721 461.201 276.521 462.425L 276.521 462.425zM 271.049 386.609C 271.625 384.449 272.129 382.145 272.561 379.697C 272.201 379.553 271.697 379.266 271.049 378.833L 271.049 386.609zM 258.665 384.233C 259.961 381.065 260.897 377.465 261.761 372.929C 261.977 373.217 262.697 373.721 263.129 373.938C 262.121 379.625 260.897 384.233 258.665 388.266L 258.665 384.233L 258.665 384.233zM 271.049 259.313L 271.049 292.721C 266.801 294.953 262.625 297.401 258.665 300.065L 258.665 268.098C 262.481 264.641 266.513 261.69 271.049 259.313L 271.049 259.313zM 271.049 297.113C 266.873 299.201 262.697 301.505 258.665 304.098L 258.665 310.577C 259.025 310.434 259.313 310.217 259.673 310.073C 259.241 312.017 258.881 313.961 258.665 315.905L 258.665 327.929C 259.025 331.817 259.745 335.633 260.609 339.305C 259.961 339.017 259.313 338.729 258.665 338.369L 258.665 343.77C 262.769 346.434 266.873 348.809 271.049 351.042L 271.049 343.266C 266.873 330.809 266.297 317.057 270.689 303.953C 270.833 303.882 270.905 303.882 271.049 303.809L 271.049 297.113L 271.049 297.113zM 271.049 354.857C 266.801 352.553 262.697 350.033 258.665 347.369L 258.665 368.465C 262.481 371.49 266.729 374.081 271.049 376.529L 271.049 354.857L 271.049 354.857zM 271.049 378.833C 268.745 377.537 265.073 375.378 264.569 374.945C 263.417 381.569 261.689 386.753 258.665 391.434L 258.665 395.609C 260.969 397.121 263.345 398.633 265.937 399.857C 268.025 395.753 269.681 391.505 271.049 386.609L 271.049 378.833L 271.049 378.833zM 271.049 393.233L 271.049 402.017C 269.825 401.585 268.745 401.154 267.737 400.721C 269.033 398.201 270.113 395.753 271.049 393.233L 271.049 393.233zM 271.049 404.969L 271.049 411.017C 266.657 409.505 262.553 407.345 258.665 404.609L 258.665 398.201C 262.481 401.009 266.585 403.241 271.049 404.969L 271.049 404.969zM 271.049 414.329C 268.025 413.249 264.929 411.882 262.481 410.369C 261.257 412.241 260.033 413.969 258.665 415.625L 258.665 448.313C 262.913 449.969 267.017 451.77 271.049 453.785L 271.049 448.169C 268.169 446.585 265.217 445.145 262.265 443.849C 265.721 439.529 268.601 435.497 271.049 431.465L 271.049 414.329L 271.049 414.329zM 271.049 437.658L 271.049 444.641C 269.897 444.065 268.745 443.561 267.665 442.985C 268.745 441.185 269.897 439.385 271.049 437.658L 271.049 437.658zM 271.049 458.897L 271.049 463.865C 267.017 461.273 262.913 459.042 258.665 457.098L 258.665 452.777C 262.985 454.649 267.089 456.665 271.049 458.897L 271.049 458.897zM 258.665 410.585C 259.169 410.009 259.601 409.434 260.033 408.785C 259.529 408.497 259.097 408.21 258.665 407.921L 258.665 410.585zM 255.497 393.089C 255.137 392.729 254.633 392.369 254.273 391.865C 256.073 389.561 257.513 387.113 258.665 384.233L 258.665 388.266C 257.801 389.993 256.721 391.577 255.497 393.089L 255.497 393.089zM 258.665 268.098L 258.665 300.065C 251.105 305.105 244.193 310.793 238.793 317.201C 239.657 301.505 244.553 281.849 255.641 270.977C 256.649 269.969 257.657 269.033 258.665 268.098L 258.665 268.098zM 258.665 304.098C 251.465 308.633 244.625 313.961 238.649 320.369C 238.649 323.322 238.649 326.633 238.793 329.585C 245.345 334.697 251.969 339.521 258.665 343.77L 258.665 338.369C 258.161 338.081 257.657 337.793 257.225 337.434C 254.129 329.369 253.049 320.369 256.073 312.161C 257.009 311.658 257.873 311.081 258.665 310.577L 258.665 304.098L 258.665 304.098zM 258.665 315.905C 258.233 319.865 258.305 323.897 258.665 327.929L 258.665 315.905L 258.665 315.905zM 258.665 347.369L 258.665 368.465C 256.937 367.098 255.281 365.585 253.769 364.001C 245.777 355.721 239.297 347.154 239.081 332.033C 244.841 337.434 251.537 342.617 258.665 347.369L 258.665 347.369zM 258.665 391.434C 258.089 392.369 257.441 393.305 256.721 394.169C 257.369 394.673 258.017 395.105 258.665 395.609L 258.665 391.434L 258.665 391.434zM 258.665 398.201C 256.577 396.617 254.489 394.889 252.545 392.945C 250.889 391.505 248.153 393.665 249.449 396.042C 252.329 399.425 255.425 402.233 258.665 404.609L 258.665 398.201L 258.665 398.201zM 258.665 407.921C 255.569 405.833 253.265 403.745 250.601 400.938C 244.553 406.121 237.209 408.785 226.553 410.729L 225.041 408.281C 236.129 406.697 243.329 404.105 249.377 399.21C 249.017 398.849 248.513 398.201 248.225 397.841C 242.105 402.882 234.617 404.826 223.817 406.121C 216.689 397.985 210.353 394.817 199.049 393.953C 176.009 392.081 171.689 415.409 170.249 431.249C 170.177 431.249 170.177 431.322 170.177 431.322L 170.177 431.753C 170.321 433.121 171.761 434.129 172.553 433.481C 190.481 418.865 205.817 429.882 220.505 445.073C 231.593 447.521 245.417 450.977 258.665 457.098L 258.665 452.777C 248.945 448.745 238.001 445.649 225.401 442.625C 222.233 422.753 213.377 401.441 196.817 400.577C 182.489 399.714 177.737 412.457 174.137 429.305C 173.777 430.745 172.409 430.529 172.553 428.801C 174.281 413.322 182.489 396.617 196.817 397.121C 214.889 397.841 226.049 422.537 229.001 439.241C 238.505 441.473 248.729 444.425 258.665 448.313L 258.665 415.625C 252.401 423.401 244.913 429.017 236.129 434.057C 240.305 435.425 243.113 436.289 247.001 437.873C 248.729 438.737 248.369 440.177 246.785 439.673C 243.113 438.378 236.849 436.649 232.673 435.785C 232.529 434.921 232.457 434.057 232.025 433.049C 243.473 425.849 251.825 419.585 258.665 410.585L 258.665 407.921L 258.665 407.921zM 236.561 324.905C 236.561 328.865 236.993 332.826 237.209 336.714C 235.841 336.281 233.681 335.993 232.817 334.049C 231.665 331.385 230.801 328.073 230.801 324.905C 230.945 321.809 231.665 318.497 232.817 315.833C 233.681 313.889 235.841 313.602 237.209 313.098C 236.993 317.057 236.561 321.017 236.561 324.905z"/>
<path style="stroke:#000000; stroke-width:1.944; stroke-linejoin:round; stroke-linecap:round; fill-rule:evenodd; fill:#f94024" d="M 222.665 490.073C 246.353 483.161 273.137 478.985 297.329 479.345C 328.217 479.49 379.769 488.777 379.769 522.114C 379.769 555.305 348.449 567.185 326.633 576.617C 337.721 602.105 357.737 624.569 377.609 644.37C 384.377 651.137 397.841 664.241 410.945 669.714C 388.337 668.633 367.961 665.321 348.089 647.105C 324.977 625.649 301.649 601.961 288.617 573.161C 309.857 564.81 340.241 551.993 340.241 525.209C 340.457 490.649 291.497 493.025 265.433 501.378C 261.113 503.753 260.681 509.009 260.681 515.562L 260.681 639.833C 261.113 655.169 274.001 657.329 274.217 662.081C 257.081 660.786 235.553 660.281 218.777 662.081C 218.633 656.034 231.593 657.185 231.953 639.833L 231.953 515.057C 231.737 493.745 222.809 496.985 222.665 490.073z"/>
<path style="stroke:#000000; stroke-width:1.944; stroke-linejoin:round; stroke-linecap:round; fill-rule:evenodd; fill:#f94024" d="M 286.673 55.0495C 285.017 53.5375 283.217 51.7375 282.425 49.5775C 281.921 47.7055 278.105 46.6255 275.369 46.9855C 273.929 47.2015 271.553 45.4015 271.553 43.7455C 271.337 41.1535 275.513 38.4175 278.609 37.9135C 285.953 36.6175 294.305 39.9295 297.977 49.2175L 286.673 55.0495z"/>
<path style="stroke:#000000; stroke-width:1.944; stroke-linejoin:round; stroke-linecap:round; fill-rule:evenodd; fill:#f9e45b" d="M 290.489 50.7295C 287.753 38.4895 290.489 32.5135 298.337 24.8815C 300.281 22.8655 304.817 19.7695 305.969 21.2095C 306.329 22.5055 303.377 25.2415 302.081 27.4015C 297.977 34.3135 299.273 43.8175 300.857 49.6495L 290.489 50.7295z"/>
<path style="stroke:#000000; stroke-width:1.944; stroke-linejoin:round; stroke-linecap:round; fill-rule:evenodd; fill:#f94024" d="M 200.273 152.177C 200.417 151.602 200.057 151.026 200.417 150.161C 200.993 148.505 202.073 147.425 204.305 147.785C 207.041 147.93 207.545 143.753 209.201 141.378C 211.937 136.121 215.177 131.009 218.849 126.833C 220.505 125.537 221.585 124.457 224.465 124.602C 227.777 124.602 229.793 127.337 231.089 128.633C 235.985 136.266 244.913 140.657 252.185 144.69C 256.217 137.561 260.177 130.649 264.209 123.521C 250.025 116.826 235.409 115.529 231.809 112.578C 228.857 110.201 226.697 108.258 221.369 108.042C 218.273 107.897 215.033 111.714 214.097 114.594C 212.297 118.769 202.433 130.794 198.617 132.449C 195.161 134.105 193.145 136.121 194.081 140.513C 194.081 142.457 189.185 145.553 188.033 147.209C 188.393 150.665 198.113 154.121 200.273 152.177z"/>
<path style="stroke:#000000; stroke-width:1.944; stroke-linejoin:round; stroke-linecap:round; fill-rule:evenodd; fill:#f94024" d="M 205.169 202.433C 205.529 200.273 208.985 197.321 207.401 193.289C 205.385 190.409 207.041 187.097 208.265 184.217C 209.705 178.169 209.921 171.113 211.217 163.769C 211.577 162.329 211.361 158.513 212.081 156.714C 212.801 154.841 214.313 153.977 215.537 152.682C 217.193 150.881 219.209 149.225 221.585 149.225C 224.105 149.441 226.337 150.161 228.353 150.161C 234.545 149.586 240.881 148.289 247.433 147.93C 247.433 140.657 248.945 134.682 253.841 127.337C 255.137 123.378 258.233 120.281 260.969 116.826C 263.489 113.729 265.865 110.777 269.465 108.258C 271.697 106.602 273.497 104.945 274.937 102.209C 277.529 97.8175 282.641 94.7215 282.281 92.9215C 280.409 92.5615 279.185 91.4815 277.529 89.8255C 276.449 88.7455 273.713 88.7455 271.841 90.9055C 270.977 92.2015 268.745 93.2815 267.881 93.1375C 265.505 92.9215 263.849 91.4815 262.193 89.2495C 258.593 90.0415 255.857 81.2575 256.721 77.4415C 257.873 73.7695 260.969 70.6735 263.705 69.0895C 267.881 66.3535 273.353 64.3375 276.449 59.5855C 279.689 53.0335 288.977 46.8415 297.545 45.5455C 303.161 45.0415 306.761 46.9855 310.433 49.9375C 315.689 56.1295 320.657 66.8575 320.801 72.6895C 326.273 78.8815 327.929 85.0735 325.553 91.1215C 324.617 93.4975 326.849 96.9535 324.617 98.7535C 322.817 98.9695 321.377 98.6095 319.721 97.8175C 317.921 104.802 315.689 122.081 313.673 134.321C 315.185 146.706 313.673 155.273 315.185 158.513C 319.505 168.378 324.257 184.001 326.849 187.889C 329.585 192.785 332.465 196.385 334.841 202.433C 340.673 213.018 343.409 224.826 341.033 233.393C 339.737 237.93 334.265 245.777 329.729 249.233C 321.521 255.425 321.161 263.49 321.737 272.921C 309.497 272.561 297.401 272.417 285.161 272.201C 283.505 261.113 285.377 254.706 280.769 243.401C 278.969 239.081 276.593 233.034 276.593 218.273C 274.577 213.018 269.681 205.169 263.489 198.977C 256.937 192.065 251.825 182.201 251.105 172.914C 244.193 171.113 238.505 168.018 235.265 166.865C 233.249 166.001 230.657 166.001 229.217 166.505C 227.993 167.081 227.417 167.297 225.761 168.018C 224.321 168.521 223.601 169.242 222.665 170.034C 221.945 170.753 221.945 173.13 222.161 173.993C 222.161 176.37 221.945 179.105 221.729 181.841C 221.369 188.034 224.105 193.289 220.649 194.225C 219.569 194.586 218.633 197.537 219.065 199.914C 219.425 201.354 220.865 201.857 220.865 203.154C 217.913 204.953 206.465 205.889 205.169 202.433z"/>
<path style="stroke:#000000; stroke-width:1.944; stroke-linejoin:round; stroke-linecap:round; fill-rule:evenodd; fill:#f9e45b" d="M 317.417 61.4575C 323.609 62.7535 329.081 62.3935 334.769 58.5055C 336.929 56.9215 340.385 52.6735 341.465 53.2495C 342.545 54.9055 339.665 59.4415 337.649 61.4575C 333.113 66.7135 326.705 70.9615 320.369 72.0415C 317.273 71.1055 314.897 63.4735 317.417 61.4575z"/>
<path style="stroke:#000000; stroke-width:1.944; stroke-linejoin:round; stroke-linecap:round; fill:none" d="M 319.577 97.8175C 315.401 97.6735 311.225 93.2815 308.489 88.1695C 305.393 81.8335 306.257 77.0815 305.033 73.7695"/>
<path style="stroke:#000000; stroke-width:1.944; stroke-linejoin:round; stroke-linecap:round; fill:none" d="M 320.657 72.4735C 319.217 71.5375 316.697 71.7535 315.617 70.4575"/>
<path style="stroke:#000000; stroke-width:1.944; stroke-linejoin:round; stroke-linecap:round; fill:none" d="M 282.353 92.8495C 288.905 93.9295 296.753 92.8495 299.129 87.3775"/>
<path style="stroke:#000000; stroke-width:1.944; stroke-linejoin:round; stroke-linecap:round; fill-rule:evenodd; fill:#ff3516" d="M 283.361 73.4095C 284.441 73.4095 285.521 71.9695 286.961 72.3295C 288.617 72.5455 290.057 74.3455 291.353 74.9215C 289.913 75.2815 288.257 76.3615 286.601 76.0015C 285.161 75.6415 284.801 74.3455 283.361 73.4095z"/>
<path style="stroke:#000000; stroke-width:1.944; stroke-linejoin:round; stroke-linecap:round; fill:none" d="M 247.505 148.001C 250.817 147.857 255.929 147.641 256.793 149.081"/>
<path style="stroke:#000000; stroke-width:1.944; stroke-linejoin:round; stroke-linecap:round; fill:none" d="M 250.961 172.698C 252.041 173.057 253.121 173.201 254.201 173.561C 255.713 173.777 256.937 174.354 257.657 173.993C 259.889 172.841 261.185 169.961 263.129 169.602"/>
<path style="stroke:#000000; stroke-width:1.944; stroke-linejoin:round; stroke-linecap:round; fill:none" d="M 276.449 218.201C 276.953 213.521 278.609 205.818 277.529 203.802"/>
<path style="stroke:#000000; stroke-width:1.944; stroke-linejoin:round; stroke-linecap:round; fill-rule:evenodd; fill:#f9e45b" d="M 200.417 151.745C 200.273 154.121 200.777 157.433 196.457 158.513C 193.001 159.449 183.713 160.673 185.297 157.217C 184.577 157.073 183.857 156.857 183.497 155.993C 183.353 155.057 183.497 153.977 183.857 153.258C 184.433 151.026 186.233 148.649 188.249 147.209C 188.393 148.865 197.537 153.042 200.417 151.745z"/>
<path style="stroke:#000000; stroke-width:1.944; stroke-linejoin:round; stroke-linecap:round; fill-rule:evenodd; fill:#f9e45b" d="M 220.721 202.578C 221.225 205.313 220.793 208.985 218.921 210.281C 216.473 211.578 214.241 213.233 211.073 214.097C 209.417 214.457 206.465 213.81 206.609 211.649C 204.953 211.578 204.377 211.073 204.089 210.065C 203.873 207.69 204.449 204.665 205.169 202.073C 207.905 205.818 218.129 203.945 220.721 202.578z"/>
<path style="stroke:#000000; stroke-width:1.944; stroke-linejoin:round; stroke-linecap:round; fill:none" d="M 185.441 156.641C 185.801 154.914 186.521 153.329 187.385 152.321"/>
<path style="stroke:#000000; stroke-width:1.944; stroke-linejoin:round; stroke-linecap:round; fill:none" d="M 206.681 211.721C 206.753 210.138 207.113 208.482 207.545 206.826"/>
<path style="stroke:#000000; stroke-width:1.944; stroke-linejoin:round; stroke-linecap:round; fill:none" d="M 262.625 89.2495C 265.289 89.4655 268.385 86.2975 270.977 86.5855"/>
<path style="stroke:#000000; stroke-width:1.944; stroke-linejoin:round; stroke-linecap:round; fill-rule:evenodd; fill:#f9e45b" d="M 294.953 280.409C 312.017 280.337 330.665 282.714 345.641 289.625C 346.289 279.401 349.385 274.434 356.009 267.737C 360.185 264.641 367.241 262.049 369.977 264.641C 374.657 268.673 366.089 268.529 365.873 269.465C 379.049 273.425 390.209 268.313 384.305 258.81C 381.857 255.138 376.745 254.777 369.905 254.345C 386.753 254.345 378.617 246.497 383.729 240.449C 376.889 243.545 362.201 227.273 359.681 244.625C 361.049 238.649 361.409 233.034 357.953 230.225C 348.089 222.378 336.209 237.281 341.393 250.026C 342.401 249.953 346.361 238.505 349.961 243.474C 352.769 247.217 349.025 253.409 344.993 256.578C 343.697 257.513 341.969 258.089 338.585 257.225C 331.961 255.714 329.081 249.881 331.025 243.113C 333.041 242.393 334.409 240.449 334.409 238.289C 334.409 235.337 332.033 232.961 329.153 232.961C 326.273 232.961 323.897 235.337 323.897 238.289C 323.897 239.513 324.473 240.81 325.265 241.745C 323.969 247.289 317.777 252.833 311.153 251.753C 306.761 251.105 303.881 248.225 303.881 243.545C 304.025 238.721 305.465 231.018 310.001 230.513C 316.121 229.865 311.153 240.881 311.729 241.745C 326.057 236.777 328.937 218.201 315.473 216.113C 311.153 215.321 305.033 219.57 301.505 224.537C 312.521 211.001 297.329 208.266 294.953 201.138C 292.577 208.266 277.457 211.001 288.401 224.537C 284.873 219.57 278.825 215.321 274.433 216.113C 260.897 218.201 263.705 236.777 278.177 241.745C 278.825 240.881 273.713 229.865 279.833 230.513C 284.369 231.018 285.881 238.721 286.025 243.545C 286.025 248.225 283.073 251.105 278.825 251.753C 272.057 252.833 265.937 247.289 264.641 241.745C 265.505 240.81 266.009 239.513 266.009 238.289C 266.009 235.337 263.633 232.961 260.753 232.961C 257.801 232.961 255.425 235.337 255.425 238.289C 255.425 240.449 256.865 242.393 258.809 243.113C 260.825 249.881 257.873 255.714 251.321 257.225C 247.937 258.089 246.209 257.513 244.913 256.578C 241.025 253.409 237.281 247.217 240.017 243.474C 243.689 238.505 247.505 249.953 248.513 250.026C 253.697 237.281 241.817 222.378 232.097 230.225C 228.569 233.034 228.929 238.649 230.369 244.625C 227.777 227.273 213.089 243.545 206.249 240.449C 211.361 246.497 203.153 254.345 220.145 254.345C 213.233 254.777 208.193 255.138 205.673 258.81C 199.769 268.313 210.929 273.425 224.033 269.465C 223.961 268.529 215.393 268.673 219.929 264.641C 222.737 262.049 229.721 264.641 233.897 267.737C 240.521 274.434 242.897 279.617 244.697 289.625C 259.529 282.641 277.817 280.337 294.953 280.409z"/>
<path style="stroke:#000000; stroke-width:1.944; stroke-linejoin:round; stroke-linecap:round; fill-rule:evenodd; fill:#f9e45b" d="M 295.025 265.146C 276.449 265.289 257.225 268.169 241.241 277.673C 238.577 278.033 236.489 275.513 238.433 272.849C 253.553 262.914 273.713 259.602 295.025 259.457C 316.193 259.602 336.353 262.914 351.473 272.849C 353.417 275.513 351.329 278.033 348.665 277.673C 332.681 268.169 313.457 265.289 295.025 265.146z"/>
<path style="stroke:#000000; stroke-width:1.944; stroke-linejoin:round; stroke-linecap:round; fill-rule:evenodd; fill:#f9e45b" d="M 295.025 273.929C 277.025 273.857 259.097 276.809 243.401 283.434C 241.241 285.305 242.321 289.553 244.697 289.553C 260.825 282.137 278.177 280.409 295.025 280.409C 311.729 280.409 329.081 282.137 345.209 289.553C 347.585 289.553 348.665 285.305 346.505 283.434C 330.809 276.809 312.881 273.857 295.025 273.929z"/>
<path style="stroke:#000000; stroke-width:1.944; stroke-linejoin:round; stroke-linecap:round; fill:none" d="M 295.025 272.345C 298.913 272.345 302.009 271.049 302.009 269.465C 302.009 267.953 298.913 266.657 295.025 266.657C 291.065 266.657 287.897 267.953 287.897 269.465C 287.897 271.049 291.065 272.345 295.025 272.345z"/>
<path style="stroke:#000000; stroke-width:1.944; stroke-linejoin:round; stroke-linecap:round; fill:none" d="M 263.201 270.113C 267.089 269.393 270.473 270.113 270.761 271.625C 270.977 273.21 268.097 275.009 264.209 275.658C 260.321 276.378 257.009 275.658 256.721 274.145C 256.433 272.561 259.385 270.761 263.201 270.113z"/>
<path style="stroke:#000000; stroke-width:1.944; stroke-linejoin:round; stroke-linecap:round; fill:none" d="M 323.681 269.465C 327.497 270.185 330.449 271.985 330.161 273.497C 329.873 275.081 326.489 275.729 322.673 275.081C 318.785 274.361 315.905 272.561 316.121 271.049C 316.409 269.537 319.793 268.817 323.681 269.465z"/>
</g>
</g>
</svg>