<?xml version="1.0" encoding="utf-8"?>
<!-- Generator: Adobe Illustrator 20.1.0, SVG Export Plug-In . SVG Version: 6.00 Build 0)  -->
<svg version="1.1" id="Capa_1" xmlns="http://www.w3.org/2000/svg" xmlns:xlink="http://www.w3.org/1999/xlink" x="0px" y="0px"
	 viewBox="0 0 665 281.9" style="enable-background:new 0 0 665 281.9;" xml:space="preserve">
<style type="text/css">
	.st0{fill:#E61C29;}
	.st1{fill:#1C98D6;}
	.st2{fill:#FDD700;}
</style>
<g>
	<g>
		<path d="M253,144.3c0,14.1-9,23.7-23.3,23.7c-14.7,0-24.4-9.5-24.4-23.7c0-14.2,9.6-23.7,24.4-23.7c6.9,0,12.7,1.9,16.8,5.2
			l-7.2,6.9c-2-2-5.2-3.1-9.5-3.1c-7.9,0-13.2,5.9-13.2,14.7c0,8.8,5.2,14.7,13.2,14.7c6.5,0,10.8-3.7,11.7-9.4h-10.4v-9h21.8
			C252.9,141.8,253,143,253,144.3z"/>
		<path d="M257.9,150.3c0-10.5,7.5-17.6,18.7-17.6c11,0,18.5,7,18.5,17.6c0,10.6-7.5,17.6-18.5,17.6
			C265.4,168,257.9,160.9,257.9,150.3z M284.1,150.3c0-5.1-3.1-8.5-7.6-8.5c-4.6,0-7.7,3.4-7.7,8.5c0,5.1,3.1,8.5,7.7,8.5
			C281.1,158.8,284.1,155.4,284.1,150.3z"/>
		<path d="M339.3,150.5c0,10.5-7.2,17.5-16.2,17.5c-4.6,0-8-1.7-10.3-4.8l-0.2,4.2h-10.2v-48.6H313v18.6c2.3-2.9,5.7-4.6,10.1-4.6
			C332.1,132.7,339.3,139.9,339.3,150.5z M328.4,150.4c0-5.1-3.1-8.6-7.7-8.6c-4.6,0-7.7,3.5-7.7,8.5c0,5.2,3.1,8.5,7.7,8.5
			C325.3,158.8,328.4,155.4,328.4,150.4z"/>
		<path d="M345.9,123.3c0-3.6,2.6-6.1,6.2-6.1c3.6,0,6.1,2.6,6.1,6.1c0,3.6-2.6,6.1-6.1,6.1C348.5,129.4,345.9,126.9,345.9,123.3z
			 M346.7,133.3h10.6v34h-10.6V133.3z"/>
		<path d="M399.3,154H376c0.6,3.5,2.5,5.6,6.5,5.6c2.9,0,5.2-1.2,6.9-3.1l8.2,4c-2.9,4.4-8.4,7.4-15,7.4c-10.7,0-17.9-6.9-17.9-17.3
			c0-10.7,6.9-18,17.4-18c10.4,0,17.4,6.8,17.4,17.1C399.5,151.2,399.4,152.9,399.3,154z M376,146.9h12.4c-0.7-3.9-2.7-5.9-6.3-5.9
			C378.6,141,376.7,143.1,376,146.9z"/>
		<path d="M429,132.7l-0.7,9.7c-6.5,0-11,3-11,7.4v17.5h-10.6v-34h10.2l0.2,4.1C419.8,134.5,424,132.7,429,132.7z"/>
		<path d="M468.9,146v21.3h-10.6v-19.7c0-3.6-2.6-5.9-6.4-5.9c-3.9,0-6.5,2.3-6.5,5.9v19.7h-10.6v-34H445l0.1,3.8
			c2.7-3,6.5-4.4,10.5-4.4C463.6,132.7,468.9,138,468.9,146z"/>
		<path d="M475.8,150.3c0-10.5,7.5-17.6,18.7-17.6c11,0,18.5,7,18.5,17.6c0,10.6-7.5,17.6-18.5,17.6
			C483.3,168,475.8,160.9,475.8,150.3z M502.1,150.3c0-5.1-3.1-8.5-7.6-8.5c-4.6,0-7.7,3.4-7.7,8.5c0,5.1,3.1,8.5,7.7,8.5
			C499,158.8,502.1,155.4,502.1,150.3z"/>
		<path d="M241.9,173.6v48.6h-10.2l-0.2-4.2c-2.3,3.1-5.7,4.8-10.4,4.8c-9,0-16.2-6.9-16.2-17.5c0-10.6,7.2-17.8,16.2-17.8
			c4.4,0,7.8,1.7,10.1,4.6v-18.6H241.9z M231.3,205.2c0-5.1-3.1-8.5-7.7-8.5c-4.6,0-7.7,3.5-7.7,8.6c0,5.1,3.1,8.5,7.7,8.5
			C228.2,213.7,231.3,210.4,231.3,205.2z"/>
		<path d="M283.8,208.9h-23.3c0.6,3.5,2.5,5.6,6.5,5.6c2.9,0,5.2-1.2,6.9-3.1l8.2,4c-2.9,4.4-8.4,7.4-15,7.4
			c-10.7,0-17.9-6.9-17.9-17.3c0-10.7,6.9-18,17.4-18c10.4,0,17.4,6.8,17.4,17.1C284.1,206.1,283.9,207.8,283.8,208.9z M260.6,201.8
			H273c-0.7-3.9-2.7-5.9-6.3-5.9C263.2,195.9,261.2,198,260.6,201.8z"/>
		<path d="M306,199c0-14.2,10-23.5,25.1-23.5c7.5,0,13.9,2.3,18.6,7.4l-6.9,7c-2.3-3.2-6.5-5.4-11.7-5.4c-8.3,0-13.8,5.9-13.8,14.6
			c0,8.9,5.7,14.7,14,14.7c5.9,0,9.7-2.6,12.5-7l7.4,6.6c-4.7,6.2-11.5,9.4-20.1,9.4C316.1,222.9,306,213.2,306,199z"/>
		<path d="M386.5,200.9v21.3h-10.2l-0.1-3.9c-2.2,2.9-5.7,4.5-9.2,4.5c-7.2,0-12-4.4-12-10.9c0-6.7,5.9-11.1,14.7-11.1
			c1.9,0,4.1,0.2,6.3,0.6c-0.1-3.6-2.7-5.6-7.2-5.6c-2.9,0-5.2,0.8-7.2,2.2l-4.5-6.2c3.9-2.8,8.3-4.2,14.5-4.2
			C380.5,187.6,386.5,192.9,386.5,200.9z M375.9,208.6c-1.7-0.3-3.4-0.5-4.9-0.5c-3.1,0-5.1,1.5-5.1,3.7s1.2,3.6,4.1,3.6
			C373.2,215.3,375.8,212.8,375.9,208.6z"/>
		<path d="M429.4,200.9v21.3h-10.6v-19.7c0-3.6-2.6-5.9-6.4-5.9c-3.9,0-6.5,2.3-6.5,5.9v19.7h-10.6v-34h10.2l0.1,3.8
			c2.7-3,6.5-4.4,10.5-4.4C424.1,187.6,429.4,192.9,429.4,200.9z"/>
		<path d="M460.4,212.7v8.5c-2.7,1.2-5.9,1.7-8.9,1.7c-6.6,0-11.1-4.6-11.1-11.4v-14.6H435v-8.7h5.4v-10h10.6v10h8.9v8.7h-8.9v12.3
			c0,2.7,1.6,4.5,3.9,4.5C456.8,213.7,458.6,213.4,460.4,212.7z"/>
		<path d="M496.8,200.9v21.3h-10.2l-0.1-3.9c-2.2,2.9-5.7,4.5-9.2,4.5c-7.2,0-12-4.4-12-10.9c0-6.7,5.9-11.1,14.7-11.1
			c1.9,0,4.1,0.2,6.3,0.6c-0.1-3.6-2.7-5.6-7.2-5.6c-2.9,0-5.2,0.8-7.2,2.2l-4.5-6.2c3.9-2.8,8.3-4.2,14.5-4.2
			C490.7,187.6,496.8,192.9,496.8,200.9z M486.2,208.6c-1.7-0.3-3.4-0.5-4.9-0.5c-3.1,0-5.1,1.5-5.1,3.7s1.2,3.6,4.1,3.6
			C483.4,215.3,486.1,212.8,486.2,208.6z"/>
		<path d="M542.4,205.4c0,10.5-7.2,17.5-16.2,17.5c-4.6,0-8-1.7-10.3-4.8l-0.2,4.2h-10.2v-48.6h10.6v18.6c2.3-2.9,5.7-4.6,10.1-4.6
			C535.2,187.6,542.4,194.8,542.4,205.4z M531.5,205.3c0-5.1-3.1-8.6-7.7-8.6c-4.6,0-7.7,3.5-7.7,8.5c0,5.2,3.1,8.5,7.7,8.5
			C528.4,213.7,531.5,210.3,531.5,205.3z"/>
		<path d="M572.1,187.6l-0.7,9.7c-6.5,0-11,3-11,7.4v17.5h-10.6v-34H560l0.2,4.1C562.9,189.4,567.1,187.6,572.1,187.6z"/>
		<path d="M577.1,178.2c0-3.6,2.6-6.1,6.2-6.1c3.6,0,6.1,2.6,6.1,6.1c0,3.6-2.6,6.1-6.1,6.1C579.7,184.3,577.1,181.8,577.1,178.2z
			 M577.9,188.2h10.6v34h-10.6V188.2z"/>
		<path d="M627,200.9v21.3h-10.2l-0.1-3.9c-2.2,2.9-5.7,4.5-9.2,4.5c-7.2,0-12-4.4-12-10.9c0-6.7,5.9-11.1,14.7-11.1
			c1.9,0,4.1,0.2,6.3,0.6c-0.1-3.6-2.7-5.6-7.2-5.6c-2.9,0-5.2,0.8-7.2,2.2l-4.5-6.2c3.9-2.8,8.3-4.2,14.5-4.2
			C621,187.6,627,192.9,627,200.9z M616.4,208.6c-1.7-0.3-3.4-0.5-4.9-0.5c-3.1,0-5.1,1.5-5.1,3.7s1.2,3.6,4.1,3.6
			C613.7,215.3,616.4,212.8,616.4,208.6z"/>
	</g>
	<g>
		<g>
			<path class="st0" d="M174.5,105.6H38v83.9H38c0,0.4,0,0.8,0,1.2c0,37.7,30.6,68.2,68.2,68.2s68.2-30.6,68.2-68.2
				c0-0.4,0-0.8,0-1.2h0V105.6z M157.3,187.6L157.3,187.6c0,0.3,0,0.6,0,0.9c0,28.2-22.9,51.1-51.1,51.1s-51.1-22.9-51.1-51.1
				c0-0.3,0-0.6,0-0.9h-0.1v-62.8h102.2V187.6z"/>
			<g>
				<g>
					<circle class="st0" cx="97.2" cy="147.8" r="7.3"/>
					<circle class="st0" cx="78" cy="147.8" r="7.3"/>
				</g>
				<path class="st0" d="M70.4,189.8c0,19.8,16,35.8,35.8,35.8s35.8-16,35.8-35.8H70.4z M106.2,212.5c-4,0-7.3-3.3-7.3-7.3
					c0-4,3.3-7.3,7.3-7.3c4,0,7.3,3.3,7.3,7.3C113.5,209.2,110.3,212.5,106.2,212.5z"/>
				<rect x="70.4" y="166.6" class="st1" width="71.6" height="12.5"/>
				<polygon class="st0" points="132.2,138.4 132.2,144.5 122.8,144.5 122.8,138.4 113,138.4 113,144.5 113,151.3 113,157.1 
					142,157.1 142,151.3 142,144.5 142,138.4 				"/>
			</g>
		</g>
		<path class="st2" d="M145.3,60.4c-5.3,0-10.1,1.4-14.4,3.7c-5-5.2-11.4-8.8-18.7-10.1V43.9h7.3V31.6h-7.3V23h-12v8.6h-7.3v12.4
			h7.3V54c-7.3,1.3-13.7,4.9-18.7,10.1c-4.2-2.3-9.1-3.7-14.4-3.7C51,60.4,38,72.9,38,88.4c0,0,0,0.1,0,0.1v5.7h16.8v-4.1
			c0-6.6,5.5-11.9,12.4-11.9c2,0,4,0.5,5.7,1.3c-0.8,2.9-1.2,5.9-1.3,9h0v5.7h17v-5.5c0-10,7.9-18.2,17.7-18.2s17.7,8.1,17.7,18.2
			v5.5h17v-5.7h0c0-3.1-0.5-6.1-1.3-9c1.7-0.8,3.6-1.3,5.7-1.3c6.8,0,12.4,5.3,12.4,11.9v4.1h16.8v-5.7c0,0,0-0.1,0-0.1
			C174.5,72.9,161.4,60.4,145.3,60.4z"/>
	</g>
</g>
</svg>
