<?xml version="1.0" encoding="UTF-8" standalone="no"?>
<svg
   xmlns:dc="http://purl.org/dc/elements/1.1/"
   xmlns:cc="http://creativecommons.org/ns#"
   xmlns:rdf="http://www.w3.org/1999/02/22-rdf-syntax-ns#"
   xmlns:svg="http://www.w3.org/2000/svg"
   xmlns="http://www.w3.org/2000/svg"
   xmlns:sodipodi="http://sodipodi.sourceforge.net/DTD/sodipodi-0.dtd"
   xmlns:inkscape="http://www.inkscape.org/namespaces/inkscape"
   width="500"
   height="98"
   viewBox="0 0 500 98"
   version="1.1"
   id="svg2"
   inkscape:version="0.48.4 r9939"
   sodipodi:docname="ダウンロード.svg">
  <metadata
     id="metadata10">
    <rdf:RDF>
      <cc:Work
         rdf:about="">
        <dc:format>image/svg+xml</dc:format>
        <dc:type
           rdf:resource="http://purl.org/dc/dcmitype/StillImage" />
        <dc:title></dc:title>
      </cc:Work>
    </rdf:RDF>
  </metadata>
  <defs
     id="defs8" />
  <sodipodi:namedview
     pagecolor="#ffffff"
     bordercolor="#666666"
     borderopacity="1"
     objecttolerance="10"
     gridtolerance="10"
     guidetolerance="10"
     inkscape:pageopacity="0"
     inkscape:pageshadow="2"
     inkscape:window-width="1920"
     inkscape:window-height="1018"
     id="namedview6"
     showgrid="false"
     inkscape:zoom="1"
     inkscape:cx="114.93294"
     inkscape:cy="31.639596"
     inkscape:window-x="-8"
     inkscape:window-y="-8"
     inkscape:window-maximized="1"
     inkscape:current-layer="svg2" />
  <path
     d="M 79.32783344097665 5.7378896961561265 L 73.5 -0.024220607687747142 L 61.78076045384253 11.737889696156126 C 55.335178703455924 18.207050363270255 50.045331907038374 23.95 50.025545350692425 24.5 C 50.005758794346484 25.05 55.27941659011735 30.787637742930357 61.7447848968499 37.25030609540079 L 73.5 49.00061219080158 L 85.5 37.06971736530668 L 97.5 25.138822539811777 L 91.32783344097665 18.31941126990589 C 87.9331418335138 14.568735071457649 82.53314183351381 8.907050363270256 79.32783344097665 5.7378896961561265 Z M 25 0.9895697936997956 C 24.725 0.9895697936997955 19.1 6.394288858784549 12.5 13.00005660499925 L 0.5 25.010543416298702 L 12.750000000000002 37.25527170814935 L 25.000000000000004 49.5 L 37.25 37.25527170814935 L 49.5 25.010543416298702 L 37.5 13.000056604999248 C 30.9 6.394288858784549 25.275 0.9895697936997958 25 0.9895697936997956 Z M 229 25 L 223 25 L 223 38 L 223 51 L 208.75 50.99926478948078 L 194.5 50.998529578961566 L 194.62859988809538 56.24926478948078 L 194.7571997761908 61.5 L 208.87859988809538 61.75 L 223 62 L 223 77.5 L 223 93 L 229 93 L 235 93 L 235 77.5 L 235 62 L 249 62 L 263 62 L 263 56.5 L 263 51 L 249 51 L 235 51 L 235 38 L 235 25 L 229 25 Z M 367.5 25.256336521281607 C 364.4841005448239 24.94775818861392 361.9623428987127 25.60395578630234 357.25 27.923533897158904 L 351 31 L 351 39 L 351 47 L 356.5 47 L 362 47 L 362 50 L 362 53 L 356.5 53 L 351 53 L 351 56.5 L 351 60 L 356.5 60 L 362 60 L 362 71.5 L 362 83 L 359.75 83.47579369463358 C 358.5125 83.73748022668205 356.15 84.07498022668204 354.5 84.22579369463358 L 351.5 84.5 L 351.25 88.75 L 351 93 L 353.25 92.53765483578327 C 354.4875 92.28336499546407 359.775 91.59608254009338 365 91.01036049051507 C 370.225 90.42463844093675 375.9625 89.73269376483428 377.75 89.47270565473178 L 381 89 L 381 85 L 381 81 L 375.48715404740847 81.75 L 369.97430809481693 82.5 L 369.98715404740847 71.25 L 370 60 L 375.5 60 L 381 60 L 381 56.5 L 381 53 L 375.5 53 L 370 53 L 370 50 L 370 47 L 375.5 47 L 381 47 L 381 39 L 381 31 L 376.25 28.332802624122703 C 373.6375 26.86584406739019 369.7 25.481434321111696 367.5 25.256336521281607 Z M 449.25 24.958684782101358 L 444.5 24.917369564202716 L 441.75 28.958684782101358 C 440.2375 31.18140815194561 437.425 33.9 435.5 35 L 432 37 L 432 42 C 432 44.75 432.3375 46.99577717226437 432.75 46.990615938365266 C 433.1625 46.985454704466164 435.75 45.70637530310037 438.5 44.14821726866351 C 441.25 42.59005923422664 445.15770589462653 39.33178206196227 447.1837908769478 36.90760133029824 C 449.2098758592691 34.48342059863421 451.57237585926913 30.8125 452.4337908769478 28.75 L 454 25 L 449.25 24.958684782101358 Z M 155 26 L 138 26 L 138 31 L 138 36 L 150.75 35.99139398462176 L 163.5 35.98278796924352 L 164.214990658866 43.24139398462176 C 164.60823552124228 47.23362729307979 166.2320289208699 55.675 167.8234204358163 62 C 169.4148119507627 68.325 172.693066154273 77.67782817700717 175.10842977695032 82.78406261557149 L 179.5 92.06812523114299 L 186.5 92.07858796664138 C 192.16675791388056 92.08705793652513 193.2763960151333 91.84249131934048 192.32599873619137 90.79452535106988 C 191.68029804109662 90.08253640798145 189.60543170764984 86.35 187.71518466186518 82.5 C 185.82493761608052 78.65 183.104926125335 71.9 181.67071468243068 67.5 C 180.23650323952634 63.1 178.55930549322545 57.25 177.94360857953978 54.5 C 177.32791166585412 51.75 176.42354854650154 45.225 175.93391275875626 40 C 175.42179436135493 34.53508364095682 174.39727395781878 29.544322295562857 173.52183293597335 28.25 L 172 26 L 155 26 Z M 400.5 26 L 385 26 L 385 59.5 L 385 93 L 389.25 91.99156078041098 C 391.5875 91.43691920963701 396.425 89.48216659059982 400 87.64766607143943 L 406.5 84.31221058205692 L 410 87.1839590209851 C 411.925 88.76342066239559 414.7375 90.71817328143278 416.25 91.52785372995663 L 419 93 L 419.00901485413834 88.25 C 419.0167920982293 84.15210680449847 418.5965118112647 83.15678589236923 415.94765841787626 81 L 412.87728712747577 78.5 L 416.4536374553827 72.5 C 418.42063013573147 69.2 420.02324053204944 66.1625 420.0149938916448 65.75 C 420.00674725124014 65.3375 417.975 65 415.5 65 C 412 65 410.77777777777777 65.44444444444444 410 67 C 409.45 68.1 408.55 69 408 69 C 407.45 69 406.54254831103907 67.5375 405.9834406911979 65.75 C 405.4243330713568 63.9625 404.9743330713568 62.1625 404.9834406911979 61.75 C 404.99254831103906 61.3375 407.25 61 410 61 C 413.6666666666667 61 415.53333333333336 60.46666666666667 417 59 L 419 57 L 419 43 C 419 31.888888888888893 418.6904761904762 28.69047619047619 417.5 27.5 C 416.2956989247312 26.295698924731184 412.94444444444446 26 400.5 26 Z M 477.5 26 L 456 26 L 456 30.5 L 456 35 L 477.5 35 L 499 35 L 499 30.5 L 499 26 L 477.5 26 Z M 303.5 30 L 274 30 L 274 35 L 274 40 L 303.5 40 L 333 40 L 333 35 L 333 30 L 303.5 30 Z M 366 33.01657877985079 C 366.275 32.97447958993614 368.75 34.19102696859553 371.5 35.72001739909389 L 376.5 38.5 L 371 38.802259580826615 L 365.5 39.104519161653236 L 360.5 38.802259580826615 L 355.5 38.5 L 360.5 35.7965613807569 C 363.25 34.309670140173196 365.725 33.05867796976544 366 33.01657877985079 Z M 401.5 34 L 410 34 L 410 36.5 L 410 39 L 401.5 39 L 393 39 L 393 36.5 L 393 34 L 401.5 34 Z M 144 42.0014278877302 L 138.5 41.97337758739144 L 137.17055902037458 48.73668879369572 C 136.43936648158063 52.45650995716308 134.25673227286805 60.224999999999994 132.3202607787911 66 C 130.38378928471414 71.775 127.04453772554558 79.9875 124.8997017584165 84.25 L 121 92 L 127.5 92 L 134 92 L 137.93519272319804 83.75 C 140.09954872095693 79.2125 143.2394295666745 70.55 144.91270571368148 64.5 C 146.5859818606885 58.45 148.30264513524938 50.91913259231552 148.72751299048346 47.76473909403448 L 149.5 42.02947818806897 L 144 42.0014278877302 Z M 448 45 C 444.6815392515255 45 442.9906216867956 45.42038481288138 442.97211390338964 46.25 C 442.956776550254 46.9375 441.831776550254 48.9625 440.47211390338964 50.75 C 439.11245125652533 52.5375 436.65 54.675 435 55.5 L 432 57 L 432 62 C 432 64.75 432.225 67 432.5 67 C 432.775 67 434.35 66.325 436 65.5 L 439 64 L 439 78.5 L 439 93 L 443.5 93 L 448 93 L 448 74.5 L 448 56 L 450.5 51 C 451.875 48.25 453 45.775 453 45.5 C 453 45.225 450.75 45 448 45 Z M 401.5 47 L 410 47 L 410 50 L 410 53 L 401.5 53 L 393 53 L 393 50 L 393 47 L 401.5 47 Z M 477.5 47 L 455 47 L 455 51 L 455 55 L 469 55 L 483 55 L 483 69 L 483 83 L 474.5 83 L 466 83 L 466 88 L 466 93 L 474.75 93.0165593088021 C 479.5625 93.02566692864326 484.9625 92.57566692864326 486.75 92.0165593088021 C 488.77405187966167 91.3834612227195 490.5658222093869 89.86835558122614 491.5 88 C 492.6333333333333 85.73333333333333 493 81.33333333333333 493 70 L 493 55 L 496.5 55 L 500 55 L 500 51 L 500 47 L 477.5 47 Z M 25 49.98956979369979 C 24.725 49.98956979369979 19.1 55.39428885878455 12.5 62.000056604999244 L 0.5 74.0105434162987 L 12.750000000000002 86.25527170814935 L 25.000000000000004 98.5 L 37.25 86.25527170814935 L 49.5 74.0105434162987 L 37.5 62.000056604999244 C 30.9 55.39428885878455 25.275 49.98956979369979 25 49.98956979369979 Z M 73.5 55 L 55 55 L 55 74 L 55 93 L 73.5 93 L 92 93 L 92 74 L 92 55 L 73.5 55 Z M 394.7042907900701 61.25 C 395.7839999745468 61.40838100967973 396.70018987774955 62.87428485480409 397.2042907900701 65.25 C 397.64193085553154 67.3125 398.9 70.8 400 73 L 402 77 L 399.75 78.34439087957766 C 398.5125 79.08380586334538 396.4875 80.20880586334538 395.25 80.84439087957766 L 393 82 L 393 71.5 C 393 62.17615458571606 393.19090565982236 61.02800368061229 394.7042907900701 61.25 Z M 355.5 64 L 352 64 L 352 72.5 L 352 81 L 354 81 C 355.1 81 356.675 80.775 357.5 80.5 C 358.6666666666667 80.11111111111111 359 78.22222222222223 359 72 L 359 64 L 355.5 64 Z M 376.5 64 L 373 64 L 373 71 L 373 78 L 376.5 78 L 380 78 L 380 71 L 380 64 L 376.5 64 Z M 303.5 78 L 271 78 L 271 83 L 271 88 L 303.5 88 L 336 88 L 336 83 L 336 78 L 303.5 78 Z "
     fill="#000000"
     id="path4"
     style="fill:#000000" />
  <path
     style="fill:#ff0000"
     d="M 12.679209,37.266932 0.38868312,24.973854 11.663159,13.783997 C 17.86412,7.6295746 23.42757,2.2246419 24.02638,1.7730348 l 1.088746,-0.82110373 3.125889,2.92116433 c 1.719239,1.6066401 7.213262,7.0178686 12.208945,12.0249506 l 9.083053,9.103787 -12.281638,12.279089 -12.28164,12.279089 -12.290526,-12.293079 0,0 z"
     id="path2995"
     inkscape:connector-curvature="0" />
  <path
     style="fill:#ff0000"
     d="M 63.294176,38.722603 C 53.267659,28.627511 50.114763,25.206906 50.114763,24.424139 c 0,-0.608363 4.512273,-5.469533 14.400395,-15.5138583 l 8.970905,-9.11261947 6.418607,6.49663907 c 3.530233,3.5731513 8.56419,8.8510217 11.186568,11.7285997 2.622378,2.877578 5.163704,5.659598 5.64739,6.182266 l 0.879429,0.950306 -3.477801,3.502766 c -1.912787,1.926524 -7.348254,7.28218 -12.078812,11.901458 L 73.460427,48.958385 63.294176,38.722603 z"
     id="path2997"
     inkscape:connector-curvature="0" />
  <path
     style="fill:#ff0000"
     d="m 55.056059,73.975813 0,-19.183856 18.457195,0 18.457195,0 0,19.183856 0,19.183856 -18.457195,0 -18.457195,0 0,-19.183856 z"
     id="path2999"
     inkscape:connector-curvature="0" />
  <path
     style="fill:#ff0000"
     d="M 12.533333,86.243354 0.387641,74.09508 12.612386,61.947448 24.837132,49.799817 l 1.956896,1.753282 c 1.076293,0.964304 6.66566,6.393089 12.420817,12.063966 L 49.678767,73.927749 37.472155,86.159689 C 30.75852,92.887255 25.133578,98.39163 24.972285,98.39163 c -0.161292,0 -5.758821,-5.466725 -12.438952,-12.148276 z"
     id="path3001"
     inkscape:connector-curvature="0" />
</svg>
