<?xml version="1.0" encoding="utf-8"?>
<!-- Generator: Adobe Illustrator 21.1.0, SVG Export Plug-In . SVG Version: 6.00 Build 0)  -->
<svg version="1.1" id="Layer_1" xmlns="http://www.w3.org/2000/svg" xmlns:xlink="http://www.w3.org/1999/xlink" x="0px" y="0px"
	 viewBox="0 0 560 108.5" style="enable-background:new 0 0 560 108.5;" xml:space="preserve">
<style type="text/css">
	.st0{fill-rule:evenodd;clip-rule:evenodd;fill:#005696;}
	.st1{fill:#005696;}
</style>
<g>
	<g>
		<path class="st0" d="M149.8,55.7v5.2c0,5-0.1,9.5-0.2,13.5c-0.1,3.9-0.3,7.7-0.5,11.5c1-0.1,2.2-0.2,3.4-0.2c1.2,0,2.6,0,4.1,0
			c1.5,0,2.9,0,4.1,0c1.2,0,2.3,0.1,3.4,0.2c-0.2-3.8-0.4-7.6-0.5-11.5c-0.1-3.9-0.2-8.4-0.2-13.5V48.5c0-5,0.1-9.5,0.2-13.4
			c0.1-3.9,0.3-7.9,0.5-11.8c-1,0.1-2.2,0.2-3.4,0.4c-1.2,0.1-2.6,0.1-4.1,0.1c-1.5,0-2.9,0-4.1-0.1c-1.2-0.1-2.3-0.2-3.4-0.4
			c0.2,3.9,0.4,7.9,0.5,11.7c0.1,3.8,0.2,8.2,0.2,13.3c-1.8,0.1-3.7,0.1-5.7,0.2c-2.1,0-4.7,0-8,0c-3.3,0-6,0-8.3,0
			c-2.2-0.1-4.1-0.1-5.6-0.2c0-5,0-9.5,0.1-13.3c0.1-3.9,0.3-7.8,0.6-11.7c-1,0.1-2.2,0.2-3.4,0.4c-1.2,0.1-2.6,0.1-4.1,0.1
			c-1.5,0-2.9,0-4.1-0.1c-1.2-0.1-2.3-0.2-3.4-0.4c0.2,3.9,0.4,7.9,0.5,11.8c0.1,3.9,0.2,8.3,0.2,13.4v12.4c0,5-0.1,9.5-0.2,13.5
			c-0.1,3.9-0.3,7.7-0.5,11.5c1-0.1,2.2-0.2,3.4-0.2c1.2,0,2.6,0,4.1,0c1.5,0,2.9,0,4.1,0c1.2,0,2.3,0.1,3.4,0.2
			c-0.2-3.8-0.4-7.6-0.5-11.5c-0.1-3.9-0.2-8.4-0.2-13.5v-5.2c2.3-0.1,4.6-0.2,6.9-0.3c2.3-0.1,4.6-0.1,6.9-0.1
			c2.3,0,4.6,0.1,6.9,0.2C145.2,55.6,147.5,55.7,149.8,55.7z"/>
		<path class="st0" d="M196.3,40.4c-1.6,3.6-3.1,7.2-4.5,10.8c-1.4,3.5-2.8,7.1-4.1,10.8h16.6c-1.3-3.7-2.7-7.3-4-10.8
			C199.1,47.7,197.7,44.1,196.3,40.4z M228.5,85.8c-1.5-0.1-2.8-0.2-4.2-0.2c-1.3,0-2.5,0-3.8,0c-1.3,0-2.6,0-3.9,0
			c-1.3,0-2.5,0.1-3.8,0.2c-1-3-2-6-3-9.1c-1-3.1-2.1-6.2-3.3-9.3c-1.9-0.1-3.9-0.1-5.8-0.1c-1.9-0.1-3.9-0.1-5.8-0.1
			c-1.6,0-3.2,0-4.7,0.1c-1.6,0-3.2,0-4.7,0.1c-1.2,3.1-2.3,6.2-3.4,9.3c-1,3.1-2,6.1-2.8,9.1c-0.7-0.1-1.5-0.2-2.2-0.2
			c-0.7,0-1.4,0-2.1,0c-0.7,0-1.5,0-2.2,0c-0.7,0-1.5,0.1-2.4,0.2c0.7-1.6,1.7-3.8,2.9-6.5c1.2-2.8,2.5-5.9,4-9.5
			c1.5-3.5,3-7.3,4.6-11.3c1.7-4.1,3.4-8.2,5-12.3c1.7-4.1,3.3-8.2,4.9-12.2c1.6-4,3.1-7.7,4.5-11.2c0.6,0.1,1.2,0.2,1.7,0.4
			c0.5,0.1,1.1,0.1,1.7,0.1c0.6,0,1.2,0,1.7-0.1c0.5-0.1,1.1-0.2,1.7-0.4c1.9,5.2,4,10.7,6.2,16.6c2.2,5.9,4.5,11.7,6.7,17.4
			c2.2,5.6,4.4,11,6.5,16.1C224.8,78,226.7,82.3,228.5,85.8z"/>
		<path class="st0" d="M235.5,48.5v12.4c0,5-0.1,9.5-0.2,13.5c-0.1,3.9-0.3,7.7-0.5,11.5c0.5-0.1,1.1-0.1,1.7-0.2c0.7,0,1.8,0,3.1,0
			c1.4,0,3.2,0,5.5,0c2.3,0,5.3,0,9,0c4.2,0,7.5,0,9.8,0c2.4,0.1,4.5,0.1,6.1,0.2c-0.1-0.4-0.2-0.8-0.3-1.4
			c-0.1-0.5-0.1-1.3-0.1-2.3c0-1,0-1.7,0.1-2.3c0.1-0.5,0.2-1.2,0.3-1.8c-3.5,0.4-7,0.7-10.5,0.9c-3.5,0.2-6.9,0.3-10.4,0.3
			c-0.1-2.4-0.1-5.2-0.2-8.4c0-3.2,0-6.6,0-10V48.5c0-5,0.1-9.5,0.2-13.4c0.1-3.9,0.3-7.9,0.5-11.8c-1,0.1-2.2,0.2-3.4,0.4
			c-1.2,0.1-2.6,0.1-4.1,0.1c-1.5,0-2.9,0-4.1-0.1c-1.2-0.1-2.3-0.2-3.4-0.4c0.2,3.9,0.4,7.9,0.5,11.8
			C235.5,39.1,235.5,43.5,235.5,48.5z"/>
		<path class="st0" d="M291.4,57.6h0.2c3.1,4.7,6.1,9.5,9.1,14.3c3,4.7,6,9.4,9.1,14c1.3-0.1,2.6-0.2,3.9-0.2c1.3,0,2.7,0,4,0
			c1.3,0,2.7,0,4.1,0c1.4,0,3,0.1,4.7,0.2c-1.2-1.5-2.8-3.6-4.8-6.5c-2-2.9-4.2-6.1-6.5-9.5c-2.3-3.5-4.6-7-7-10.6
			c-2.4-3.6-4.5-6.9-6.5-9.8c1.2-1.5,2.9-3.4,5.1-5.9c2.2-2.5,4.5-5.2,6.8-7.8c2.4-2.7,4.7-5.2,6.8-7.5c2.1-2.3,3.7-4,4.7-5
			c-1,0.1-2,0.2-2.9,0.4c-0.8,0.1-1.7,0.1-2.5,0.1c-0.8,0-1.7,0-2.5-0.1c-0.8-0.1-1.7-0.2-2.6-0.4c-0.8,1.2-2.1,2.9-3.8,5.2
			c-1.8,2.2-3.7,4.7-5.9,7.5c-2.2,2.7-4.5,5.6-6.8,8.5c-2.4,2.8-4.6,5.5-6.6,7.9v-8.7c0-4.4,0-8.5,0.1-12.1c0.1-3.6,0.3-6.4,0.6-8.2
			c-1,0.1-2.2,0.2-3.4,0.4c-1.2,0.1-2.6,0.1-4.1,0.1c-1.5,0-2.9,0-4.1-0.1c-1.2-0.1-2.3-0.2-3.4-0.4c0.2,3.9,0.4,7.9,0.5,11.8
			c0.1,3.9,0.2,8.3,0.2,13.4v12.4c0,5-0.1,9.5-0.2,13.5c-0.1,3.9-0.3,7.7-0.5,11.5c1-0.1,2.2-0.2,3.4-0.2c1.2,0,2.6,0,4.1,0
			c1.5,0,2.9,0,4.1,0c1.2,0,2.3,0.1,3.4,0.2c-0.4-2.8-0.6-6.5-0.6-11.3C291.4,69.8,291.4,64.2,291.4,57.6z"/>
		<path class="st0" d="M360.7,68.6c0,2-0.3,3.8-0.8,5.3c-0.5,1.5-1.3,2.8-2.2,3.9c-0.9,1-2,1.8-3.2,2.4c-1.2,0.5-2.5,0.8-3.8,0.8
			c-1,0-1.9,0-2.6,0c-0.7-0.1-1.5-0.1-2.4-0.2c0-0.8,0-1.8-0.1-3c0-1.2,0-2.5,0-4c0-1.5,0-2.9-0.1-4.5c0-1.5,0-3,0-4.5
			c0-1.9,0-3.5,0-4.8c0.1-1.4,0.1-2.7,0.1-4c0.5,0,1.1,0,1.7,0c0.6-0.1,1.3-0.1,2.2-0.1c3.6,0,6.4,1.1,8.3,3.2
			C359.7,61.2,360.7,64.3,360.7,68.6z M360.1,39.2c0,1.9-0.3,3.6-0.9,5.1c-0.6,1.5-1.4,2.7-2.4,3.6c-1,0.9-2.1,1.6-3.4,2.1
			c-1.2,0.5-2.5,0.7-3.7,0.7h-4.1c0-1.6,0-3.1-0.1-4.5c0-1.5,0-3.1,0-4.7c0-1.6,0-3.5,0.1-5.8c0.1-2.3,0.2-4.6,0.3-6.8
			c0.6-0.1,1.2-0.2,1.6-0.2c0.5-0.1,1.5-0.1,2.8-0.1c1.8,0,3.3,0.3,4.5,0.9c1.2,0.5,2.2,1.3,3,2.3c0.8,0.9,1.3,2,1.6,3.4
			C359.9,36.4,360.1,37.7,360.1,39.2z M332.1,48.5v12.4c0,5-0.1,9.5-0.2,13.5c-0.1,3.9-0.3,7.7-0.5,11.5c1-0.1,2.4-0.2,4.1-0.2
			c1.8,0,3.5,0,5.1,0c2.3,0,4.5,0,6.6,0.1c2.1,0.1,4.4,0.1,6.8,0.1c2.7,0,5.4-0.3,7.9-0.8c2.5-0.6,4.8-1.6,6.7-3.1
			c2-1.5,3.6-3.3,4.7-5.6c1.2-2.3,1.8-5.1,1.8-8.4c0-2.7-0.6-5-1.8-6.9c-1.2-1.9-2.6-3.5-4.3-4.7c-1.7-1.2-3.5-2.1-5.4-2.6
			c-1.9-0.6-3.5-0.9-4.9-1v-0.2c1.4-0.2,2.9-0.7,4.6-1.4c1.8-0.7,3.4-1.6,4.8-2.7c1.5-1.2,2.8-2.7,3.8-4.5c1-1.8,1.5-4,1.5-6.5
			c0-2.5-0.5-4.6-1.4-6.4c-0.8-1.8-2.1-3.3-3.7-4.4c-1.6-1.2-3.6-2-5.8-2.5c-2.2-0.5-4.7-0.8-7.5-0.8c-2.6,0-5.3,0.1-8.2,0.3
			c-2.9,0.1-5.6,0.2-8.2,0.2c-1.5,0-2.9,0-4.1-0.1c-1.2-0.1-2.3-0.2-3.4-0.4c0.2,3.9,0.4,7.9,0.5,11.8
			C332,39.1,332.1,43.5,332.1,48.5z"/>
		<path class="st0" d="M404.5,40.4c-1.6,3.6-3.1,7.2-4.5,10.8c-1.4,3.5-2.8,7.1-4.1,10.8h16.6c-1.3-3.7-2.7-7.3-4-10.8
			C407.3,47.7,405.9,44.1,404.5,40.4z M436.7,85.8c-1.5-0.1-2.9-0.2-4.2-0.2c-1.3,0-2.5,0-3.8,0c-1.3,0-2.6,0-3.9,0
			c-1.3,0-2.5,0.1-3.8,0.2c-1-3-2-6-3-9.1c-1-3.1-2.1-6.2-3.3-9.3c-1.9-0.1-3.9-0.1-5.8-0.1c-1.9-0.1-3.9-0.1-5.8-0.1
			c-1.6,0-3.2,0-4.7,0.1c-1.6,0-3.2,0-4.7,0.1c-1.2,3.1-2.3,6.2-3.4,9.3c-1,3.1-2,6.1-2.8,9.1c-0.7-0.1-1.5-0.2-2.2-0.2
			c-0.7,0-1.4,0-2.1,0c-0.7,0-1.5,0-2.2,0c-0.7,0-1.5,0.1-2.4,0.2c0.7-1.6,1.7-3.8,2.9-6.5c1.2-2.8,2.5-5.9,4-9.5
			c1.5-3.5,3-7.3,4.6-11.3c1.7-4.1,3.4-8.2,5-12.3c1.7-4.1,3.3-8.2,4.9-12.2c1.6-4,3.1-7.7,4.5-11.2c0.6,0.1,1.2,0.2,1.7,0.4
			c0.5,0.1,1.1,0.1,1.7,0.1c0.6,0,1.2,0,1.7-0.1c0.5-0.1,1.1-0.2,1.7-0.4c1.9,5.2,4,10.7,6.2,16.6c2.2,5.9,4.5,11.7,6.7,17.4
			c2.2,5.6,4.4,11,6.5,16.1C433,78,434.9,82.3,436.7,85.8z"/>
		<path class="st0" d="M444.6,41.4c0,4.6-0.1,9.4-0.3,14.5c-0.1,5-0.3,9.6-0.5,13.9c-0.2,4.2-0.4,7.9-0.5,10.8
			c-0.2,3-0.3,4.7-0.5,5.2c1.4-0.1,2.8-0.2,4.2-0.2c0.7,0,1.4,0,2.1,0c0.7,0,1.5,0.1,2.2,0.2c-0.1-0.7-0.1-1.5-0.2-2.6
			c-0.1-1.2-0.1-2.6-0.2-4.4c-0.1-1.8-0.1-3.9-0.2-6.5c0-2.5,0-5.6,0-9.3V52.5c0-1.8,0-3.6,0-5.4c0.1-1.8,0.1-3.5,0.2-5.3
			c14,14.7,27.3,29.4,39.8,43.9c1-0.1,2.2-0.2,3.5-0.2c1.3,0,2.5,0.1,3.7,0.2V74.9c0-4.4,0-8.5,0-12.3c0.1-3.9,0.2-7.8,0.3-11.7
			c0.1-3.9,0.3-8.1,0.5-12.6c0.2-4.5,0.4-9.5,0.7-15c-1.7,0.3-3.1,0.5-4.1,0.5c-1,0-2.4-0.1-4.1-0.5c0.1,0.6,0.2,1.8,0.3,3.5
			c0.1,1.8,0.2,3.9,0.2,6.3c0.1,2.4,0.1,5.1,0.1,8c0.1,2.9,0.1,5.8,0.1,8.7v8.8v7.9c-6.8-7.3-13.4-14.6-19.9-21.7
			c-6.4-7.1-12.9-14.3-19.6-21.6c-1.7,0.3-3.1,0.5-4.1,0.5c-1,0-2.4-0.1-4.1-0.5c0.1,2.2,0.2,4.7,0.3,7.6
			C444.5,33.7,444.6,37.3,444.6,41.4z"/>
		<path class="st0" d="M524.9,57.6h0.2c3.1,4.7,6.1,9.5,9.1,14.3c3,4.7,6,9.4,9.1,14c1.3-0.1,2.6-0.2,3.9-0.2c1.3,0,2.7,0,4,0
			c1.3,0,2.7,0,4.1,0c1.4,0,3,0.1,4.7,0.2c-1.2-1.5-2.8-3.6-4.8-6.5c-2-2.9-4.2-6.1-6.5-9.5c-2.3-3.5-4.6-7-7-10.6
			c-2.4-3.6-4.5-6.9-6.5-9.8c1.2-1.5,2.9-3.4,5.1-5.9c2.2-2.5,4.5-5.2,6.8-7.8c2.4-2.7,4.7-5.2,6.8-7.5c2.1-2.3,3.7-4,4.7-5
			c-1,0.1-2,0.2-2.9,0.4c-0.8,0.1-1.7,0.1-2.5,0.1c-0.8,0-1.7,0-2.5-0.1c-0.8-0.1-1.7-0.2-2.5-0.4c-0.8,1.2-2.1,2.9-3.8,5.2
			c-1.8,2.2-3.7,4.7-5.9,7.5c-2.2,2.7-4.5,5.6-6.8,8.5c-2.4,2.8-4.6,5.5-6.6,7.9v-8.7c0-4.4,0-8.5,0.1-12.1c0.1-3.6,0.3-6.4,0.6-8.2
			c-1,0.1-2.2,0.2-3.4,0.4c-1.2,0.1-2.6,0.1-4.1,0.1c-1.5,0-2.9,0-4.1-0.1c-1.2-0.1-2.3-0.2-3.4-0.4c0.2,3.9,0.4,7.9,0.5,11.8
			c0.1,3.9,0.2,8.3,0.2,13.4v12.4c0,5-0.1,9.5-0.2,13.5c-0.1,3.9-0.3,7.7-0.5,11.5c1-0.1,2.2-0.2,3.4-0.2c1.2,0,2.6,0,4.1,0
			c1.5,0,2.9,0,4.1,0c1.2,0,2.3,0.1,3.4,0.2c-0.4-2.8-0.6-6.5-0.6-11.3C524.9,69.8,524.9,64.2,524.9,57.6z"/>
	</g>
	<path class="st1" d="M15.6,10.6v88.7h-3.1V10.6H15.6z M9.5,19.8V90H6.3V19.8H9.5z M3.1,29v52H0V29H3.1z M68,108.5v-52H21.8v52h-3.1
		V1.4h3.1v52H68v-52h3.1v107.1H68z M74.3,99.4V10.7h3.1v88.7H74.3z M80.4,90.1V19.9h3.1v70.2H80.4z M86.7,81V29h3.1v52H86.7z
		 M61.8,50.2h-34l-3.1,0V10.5h3.1v36.6h34l0-36.6H65v39.7C65,50.2,61.8,50.2,61.8,50.2z M57.5,44H34.1L31,44V19.7h3.1v21.2h21.6
		V19.7h3.1V44C58.8,44,57.5,44,57.5,44z M50.6,38H40.1L37,38v-9.1h3.1v6h9.3v-6h3.1V38C52.6,38,50.6,38,50.6,38z M27.8,59.4h34
		l3.1,0v39.7h-3.1V62.6h-34l0,36.6h-3.1V59.5C24.7,59.5,27.9,59.5,27.8,59.4z M32.2,65.6h23.4l3.1,0v24.3h-3.1V68.8H34v21.2h-3.1
		V65.7C30.9,65.7,32.2,65.7,32.2,65.6z M39,71.6h10.5l3.1,0v9.1h-3.1v-6h-9.3v6h-3.1v-9.1C37.1,71.7,39,71.7,39,71.6z"/>
</g>
</svg>
