<svg fill="none" height="24" viewBox="0 0 159 24" width="159" xmlns="http://www.w3.org/2000/svg" xmlns:xlink="http://www.w3.org/1999/xlink"><clipPath id="a"><path d="m0 0h158.389v24h-158.389z"/></clipPath><g clip-path="url(#a)"><path d="m28.7373 5.78882h3.2984v5.06298h6.8297v-5.06298h3.2978v13.48908h-3.2978v-5.8581h-6.8297v5.8581h-3.2984z" fill="#616161"/><path d="m48.3869 12.53c0-2.0948 1.052-4.54922 4.0433-4.54922s4.0445 2.45442 4.0445 4.54922c0 2.0986-1.0532 4.5579-4.0445 4.5579s-4.0433-2.4593-4.0433-4.5579zm-3.5021 0c0 2.8178 1.0209 7.1253 7.5454 7.1253 6.524 0 7.5455-4.3075 7.5455-7.1253 0-2.81237-1.0215-7.12204-7.5455-7.12204-6.5245 0-7.5454 4.30967-7.5454 7.12204z" fill="#616161"/><path d="m73.0223 10.8865c-.0987-.8352-.5126-1.60105-1.1571-2.14114-.6446-.54009-1.4711-.81359-2.3106-.76458-3.1256 0-3.7886 2.71802-3.7886 4.54922 0 1.8389.663 4.5579 3.7886 4.5579.8516.0471 1.6884-.2374 2.3348-.7938.6465-.5563 1.0525-1.3413 1.1329-2.1904h3.584c-.4071 3.9299-3.3155 5.5516-7.1701 5.5516-4.4177 0-7.1706-2.1144-7.1706-7.1253 0-5.00484 2.7529-7.12204 7.1706-7.12204 2.921 0 6.6429.83216 7.1357 5.47854z" fill="#616161"/><path d="m79.2021 5.78882h3.2956v5.06298h6.8315v-5.06298h3.2961v13.48908h-3.2961v-5.8581h-6.8315v5.8581h-3.2956z" fill="#616161"/><path d="m99.7254 13.4982h4.5186c1.153 0 1.751.5632 1.751 1.6201 0 .8529-.391 1.5901-1.409 1.5901h-4.8606zm-3.2996 5.7798h8.6472c3.672 0 4.425-2.2859 4.425-4.0794 0-1.4548-.753-3.0099-2.161-3.2686v-.0414c1.139-.3968 1.613-1.6644 1.613-2.69947 0-2.49588-1.645-3.40007-3.413-3.40007h-9.1112zm3.2996-11.03066h4.1256c1.364 0 1.702.60296 1.702 1.45306 0 .9986-.48 1.4531-1.24 1.4531h-4.5876z" fill="#616161"/><path d="m120.208 14.0439h-3.804l1.9-5.34643zm1.766 5.2341h3.553l-5.337-13.48894h-3.976l-5.333 13.48894h3.551l.981-2.777h5.576z" fill="#616161"/><path d="m127.839 5.78882h3.297v5.06298h6.829v-5.06298h3.295v13.48908h-3.295v-5.8581h-6.829v5.8581h-3.297z" fill="#616161"/><path d="m155.193 5.78882h3.196v13.48908h-3.584l-6.613-9.41012h-.033v9.41012h-3.195v-13.48908h3.825l6.372 9.40958h.032z" fill="#616161"/><path d="m12.0037.00000001c-2.37313.00091165-4.69269.70543899-6.66545 2.02450999-1.97275 1.31907-3.51011 3.19345-4.41769 5.38616-.9075851 2.19272-1.144647 4.60533-.681215 6.93273s1.606545 4.4652 3.284825 6.143 3.81635 2.8204 6.14391 3.2832c2.32752.4628 4.74012.2251 6.93252-.6831 2.1925-.9082 4.0665-2.446 5.385-4.4191 1.3185-1.9732 2.0224-4.2929 2.0227-6.666-.0007-3.18334-1.2658-6.23602-3.517-8.48665-2.2513-2.25063-5.3043-3.51490417-8.4876-3.51474999z" fill="#e2011f"/><g fill="#fff"><path d="m15.5283 2.95697h.8795l.4381-.75824.4408.75824h.8812l-.442.76383.442.76271h-.8812l-.4408.76103-.4381-.76103h-.8795l.4375-.76271z"/><path d="m10.5059 1.94562 1.1376.30285.2101-.20618-.3029-1.140435h.9091l-.305 1.140435.2101.20618 1.1376-.30285v.90799l-1.1376-.30173-.2101.20562.305 1.14099h-.9091l.3029-1.14099-.2101-.20562-1.1376.30173z"/><path d="m12.005 4.51978c.9783 0 1.7876.31648 1.9188.7246h-3.8374c.1309-.40812.9396-.7246 1.9186-.7246z"/><path d="m13.9613 6.03345h-3.913v6.79525h3.913z"/><path d="m5.8418 2.9577h.8806l.43975-.75824.43863.75824h.8806l-.43806.76439.43806.76383h-.8806l-.43863.75879-.43975-.75879h-.8806l.44142-.76383z"/><path d="m4.91504 6.03369h1.22369v2.90612h1.46842v-2.90612h1.22201v6.77501h-1.22201v-2.8084h-1.46842v2.8084h-1.22369z"/><path d="m8.83003 15.9885v4.6016h-3.91401v-6.7957h5.17758c-.38113.2267-.69751.5476-.91879.9318-.22127.3843-.34.8189-.34478 1.2623z"/><path d="m19.0932 20.5901h-3.9048v-4.6016c-.005-.4434-.1239-.8782-.3454-1.2624-.2214-.3842-.538-.7051-.9192-.9317h5.1694z"/><path d="m19.0932 12.8087h-1.2231v-2.8084h-1.469v2.8084h-1.2214v-6.77501h1.2214v2.90612h1.469v-2.90612h1.2231z"/><path d="m12.0063 13.9331c-.5325.0129-1.038.2367-1.4056.6221-.3675.3854-.5671.901-.5548 1.4334v4.6016h1.1809v-2.0489h1.5551v2.0489h1.1792v-4.6016c.0133-.5318-.1851-1.0471-.5517-1.4326s-.8713-.6095-1.4031-.6229zm.7756 3.4721h-1.5551v-1.3882c-.0054-.1054.0108-.2108.0475-.3098.0366-.099.0931-.1895.1658-.266s.1602-.1374.2572-.179.2015-.0631.3071-.0631c.1055 0 .21.0215.307.0631s.1845.1025.2572.179c.0728.0765.1292.167.1658.266.0367.099.0529.2044.0475.3098z"/></g></g></svg>