<svg xmlns="http://www.w3.org/2000/svg" xmlns:xlink="http://www.w3.org/1999/xlink" viewBox="0 0 2400 1600"><defs><clipPath id="a"><rect x="28.6065" y="-319.4076" width="3751.4409" height="2652.535" style="fill:none"/></clipPath></defs><rect width="2400" height="1600" style="fill:#fff"/><g style="clip-path:url(#a)"><path d="M1371.5969,198.2523a168.43,168.43,0,0,0-120.8461,50.6822c11.639,10.4538,24.9624,22.2175,37.0247,32.4529A120.0791,120.0791,0,0,1,1491.6809,367.37c0,32.5286-12.2,61.9247-35.26,84.9977l-225.45,225.8289L1044.4971,491.4153a337.6448,337.6448,0,0,1-55.21,14.0809l224.34,224.706c4.5986,4.6074,12.37,10.271,17.3427,10.271,5.1867,0,12.7485-5.6636,17.3426-10.271l242.766-243.18c32.4484-32.4618,49.6039-73.84,49.6039-119.6518,0-93.2458-75.85-169.1177-169.0864-169.1177" style="fill:#8fc045"/><path d="M1613.07,469.6583c-22.85-3.8544-44.5018-8.4842-65.387-13.8537-12.2985,20.5376-19.1339,29.454-31.1071,42.4076,17.0307,4.9015,34.4714,9.2862,52.5136,13.0738q-3.69,5.7682-7.2855,11.43c-81.29,127.6325-135.7691,213.2094-54.9555,376.82-16.6119,18.6349-41.7926,36.7395-73.9068,53.1509-46.1283-18.1715-87.7248-27.3642-123.7737-27.3642-71.3446,0-110.4993,35.7949-126.1085,75.0431-121.02-10.9661-195.9293-72.4051-223.2132-99.15,55.0625-89.5339,69.139-173.2037,41.8327-248.8885C972.39,571.09,899.9577,526.472,856.7571,507.2846c-.6907-7.0494-1.671-21.6338-2.834-29.757a392.2811,392.2811,0,0,0,69.09,6.274h.0267c103.4321,0,203.6915-44.3325,292.45-128.6708a467.7594,467.7594,0,0,1-36.9935-32.3905c-79.0446,74.339-164.7776,112.0277-255.4566,112.05h-.0267a354.2169,354.2169,0,0,1-92.925-12.8644c-8.1945-2.2013-21.7585-5.5566-28.0993.3921-6.1448,5.7482-4.0327,19.74-2.3617,28.0682,4.8748,24.41,8.7961,62.62,9.166,74.1519.5258,16.8525,1.916,18.0422,17.4585,23.4785,18.265,6.4077,99.8049,39.0878,129.33,120.9262,23.3984,64.888,7.4816,139.3473-47.0283,221.4977-9.0413,13.6308-8.6357,16.0638,1.1986,28.8123,3.9213,5.0575,99.6445,122.3655,290.1419,131.38,22.6854,1.0561,21.4689-1.2342,25.1585-19.936,7.0716-35.7547,37.4524-56.3369,84.1154-56.3369,32.2434,0,70.9079,9.665,115.3563,27.7964,9.4556,3.8633,10.7968,3.8633,20.0162-.5213,51.7918-24.65,89.2443-53.445,111.3637-85.1715,7.9718-11.4341,7.8247-13.72,1.6042-25.4927-78.22-147.72-36.6549-212.7149,45.6515-341.9292q12.8265-20.1588,26.6957-42.2382c10.1016-16.1307,11.7192-32.3459-16.7857-37.145" style="fill:#0d52a0"/><path d="M975.6781,403.1154a120.142,120.142,0,0,1,114.6434-155.83,119.0968,119.0968,0,0,1,73.1671,24.8108c41.77,33.8387,59.7011,54.3317,92.1674,81.9276,51.2348,43.57,104.7154,78.8618,157.844,104.7555,9.3264-9.83,21.7808-23.4206,34.65-37.849-56.39-25.6932-117.562-67.1962-167.509-110.0225-27.4488-23.5632-61.55-54.8-72.022-64.4513-.0089-.0133-.0178-.0133-.0178-.0222a168.3875,168.3875,0,0,0-118.2794-48.1825c-93.2279,0-169.0731,75.8719-169.0731,169.1176a170.0025,170.0025,0,0,0,4.808,40.2107,275.5246,275.5246,0,0,0,49.6217-4.4648" style="fill:#0d52a0"/><path d="M733.0851,1180.4861H710.4309c-12.1737-21.4243-17.815-28.0771-22.6587-28.0771h-8.1187v28.0771H661.5043v-78.5856h43.8512c16.1217,0,21.5268,10.0349,21.5268,23.0018,0,11.2691-4.7278,21.0767-19.6107,21.8744,5.3026,1.9116,11.1622,9.0189,25.8135,33.7094m-53.4316-42.9556h20.1811c3.9435,0,6.88-2.8206,6.88-9.812,0-7.1073-2.5978-10.3691-6.6572-10.3691H679.6535Z" style="fill:#8fc045"/><path d="M787.9671,1178.9126a74.1141,74.1141,0,0,1-20.8495,3.1459c-16.2332,0-28.2955-7.0983-28.2955-30.7729,0-23.229,10.5963-30.1046,27.1636-30.1046,19.17,0,27.5112,5.8552,25.9294,35.5186H756.6326c.2273,9.2461,4.3936,10.9305,12.7308,10.9305a78.4764,78.4764,0,0,0,16.0147-1.9161ZM755.7325,1116.44l13.8626-14.54h17.6991l-16.91,14.54Zm1.0115,27.52h20.0653c-.2228-8.0119-2.8162-9.71-9.58-9.71-7.2143,0-9.469,2.375-10.485,9.71" style="fill:#8fc045"/><path d="M824.7106,1181.724c-14.8785,0-23.2246-6.31-23.2246-29.65,0-23.5676,8.7917-30.8932,28.4069-30.8932,9.0189,0,19.8424,1.6888,26.1521,4.0549v50.6288c0,23.1131-13.64,27.6226-31.8959,27.6226a68.3842,68.3842,0,0,1-21.0857-3.3821l3.0435-13.5328a68.4326,68.4326,0,0,0,17.6991,2.5934c9.362,0,14.883-2.3662,14.883-10.7077a31.9631,31.9631,0,0,1-13.9784,3.2662m13.9784-45.21a24.529,24.529,0,0,0-8.7961-1.5775c-8.23,0-10.9305,2.032-10.9305,16.7991,0,12.1737,2.3661,15.4444,10.48,15.4444,5.0754,0,9.2462-1.573,9.2462-4.0594Z" style="fill:#8fc045"/><path d="M889.4,1105.9568c0,7.7846-2.482,9.1347-9.8032,9.1347-7.4414,0-9.8076-1.35-9.8076-9.1347,0-7.0939,2.3662-8.2258,9.8076-8.2258,7.3212,0,9.8032,1.1319,9.8032,8.2258m-1.1274,74.5306h-17.356V1122.76h17.356Z" style="fill:#8fc045"/><path d="M900.6671,1151.2843c0-23.5632,9.5848-30.1046,27.9524-30.1046,18.72,0,28.1885,6.5414,28.1885,30.1046,0,23.6746-9.3576,30.773-28.1885,30.773-18.5948,0-27.9524-7.0984-27.9524-30.773m17.4764.3342c0,14.5488,2.3616,16.9149,10.476,16.9149,8.2346,0,10.6052-2.3661,10.6052-16.9149,0-15.1058-2.3706-16.91-10.6052-16.91-8.1144,0-10.476,1.8046-10.476,16.91" style="fill:#8fc045"/><path d="M986.7771,1180.4861h-17.36v-54.1178a93.3466,93.3466,0,0,1,29.3114-5.1868c15.8989,0,23.7905,6.6484,23.7905,27.4v31.9048h-17.365V1149.927c0-10.476-1.6888-13.3011-10.1462-13.3011a34.6989,34.6989,0,0,0-8.23,1.0116Z" style="fill:#8fc045"/></g><path d="M685.8023,1335.92H661.9V1232.5728h23.9019V1270.23h38.8962v-37.6575h23.8974V1335.92H724.6985V1292.323H685.8023Z" style="fill:#0d52a0"/><g style="clip-path:url(#a)"><path d="M836.1807,1332.06c-10.24,3.703-24.9357,5.9354-36.0711,5.9354-25.0827,0-32.5064-5.3427-32.5064-25.2074,0-21.3486,11.5766-24.7619,29.6857-24.7619a85.8145,85.8145,0,0,1,17.2224,1.9294c0-10.5339-2.3751-13.4927-17.2224-13.4927a84.0151,84.0151,0,0,0-23.5988,3.5559l-3.56-18.1a144.0948,144.0948,0,0,1,32.6533-3.997c22.7121,0,33.3976,6.9647,33.3976,29.5075Zm-34.2843-10.975a38.3238,38.3238,0,0,0,12.6149-2.0676v-14.3839c-3.4133-.8956-7.7178-1.0427-12.3208-1.0427-8.1678,0-11.14.8912-11.14,8.453,0,7.7133,1.9339,9.0412,10.8458,9.0412" style="fill:#0d52a0"/><path d="M901.4986,1259.9994h22.5651v71.3223c-9.6517,3.4088-24.9357,6.8177-38.4417,6.8177-21.0768,0-31.1785-8.8986-31.1785-36.031v-42.109h22.57v40.331c0,13.6353,2.3751,17.4942,13.5061,17.4942a48.6128,48.6128,0,0,0,10.98-1.4839Z" style="fill:#0d52a0"/><path d="M970.2333,1279.5718v28.3222c0,7.7133,2.228,10.8146,10.2443,10.8146a37.3088,37.3088,0,0,0,12.1738-2.0676l3.7073,17.4987c-5.6412,2.3661-14.6958,3.8588-22.8591,3.8588-16.7723,0-26.121-5.04-26.121-27.7295v-30.6972H935.0579v-19.5707h12.3208V1248.732l22.8546-9.1882v20.4573h23.75v19.5707Z" style="fill:#0d52a0"/><path d="M1057.9671,1278.9724a92.1924,92.1924,0,0,0-22.4136-3.2573c-7.13,0-10.6854.5927-10.6854,6.5236,0,4.0059,2.0765,5.0441,13.8,6.5235,17.659,2.2325,25.5282,7.5618,25.5282,23.1265,0,20.6178-14.8384,26.1076-33.9857,26.1076-8.1678,0-20.043-1.6354-27.021-4.1574l4.4515-17.2a84.7312,84.7312,0,0,0,21.5268,3.1192c8.9075,0,13.06-.74,13.06-6.684,0-4.14-2.5266-5.7749-15.137-6.9647-15.8811-1.4794-24.343-6.0735-24.343-22.24,0-20.6,14.6914-25.9516,33.6961-25.9516,8.1634,0,18.8488,1.6353,25.9784,4.1663Z" style="fill:#0d52a0"/></g><path d="M1073.1138,1282.8407h39.0344v21.79h-39.0344Z" style="fill:#0d52a0"/><g style="clip-path:url(#a)"><path d="M1194.8351,1332.6523c-8.3149,3.11-22.5606,5.3427-34.4447,5.3427-25.8224,0-37.3946-9.1972-37.3946-40.34,0-30.5323,13.3591-39.7339,32.2034-39.7339a41.35,41.35,0,0,1,16.7767,3.2707v-32.3281h22.8592Zm-22.8592-50.41c0-3.2707-5.1957-5.7794-11.8752-5.7794-10.6854,0-14.0987,4.7456-14.0987,20.8985,0,18.39,3.56,21.5046,14.3884,21.5046,3.8678,0,8.7693-.5971,11.5855-1.7824Z" style="fill:#0d52a0"/><path d="M1276.1856,1333.8366c-7.5663,2.5266-18.8488,4.1619-27.4533,4.1619-21.38,0-37.2609-9.3486-37.2609-40.487,0-30.5457,13.9472-39.5913,35.7726-39.5913,25.23,0,36.2226,7.7177,34.1417,46.712h-46.4625c.2986,12.1559,5.7884,14.3838,16.7723,14.3838a103.493,103.493,0,0,0,21.0813-2.5309Zm-41.1153-45.9589H1261.49c-.2941-10.525-3.7029-12.7575-12.6194-12.7575-9.4956,0-12.4633,3.1192-13.8,12.7575" style="fill:#0d52a0"/></g><path d="M1291.1936,1282.8407h39.0388v21.79h-39.0388Z" style="fill:#0d52a0"/><path d="M1421.8193,1232.571v20.9075h-51.5066v24.0221h38.1432v20.4574h-38.1432v37.96h-23.8974V1232.571Z" style="fill:#0d52a0"/><g style="clip-path:url(#a)"><path d="M1431.62,1259.9994h22.8636v5.9353c2.5221-4.46,7.4192-8.0163,18.4076-8.0163a71.5257,71.5257,0,0,1,7.5707.4456v21.206a39.9815,39.9815,0,0,0-10.6854-1.1808c-8.1678,0-15.2929,2.6647-15.2929,7.7044V1335.92H1431.62Z" style="fill:#0d52a0"/><path d="M1556.1683,1332.06c-10.2443,3.703-24.94,5.9354-36.0711,5.9354-25.0872,0-32.5019-5.3427-32.5019-25.2074,0-21.3486,11.5722-24.7619,29.6857-24.7619a85.77,85.77,0,0,1,17.2179,1.9294c0-10.5339-2.375-13.4927-17.2179-13.4927a84.1068,84.1068,0,0,0-23.6077,3.5559l-3.56-18.1a144.2017,144.2017,0,0,1,32.6579-3.997c22.7076,0,33.3975,6.9647,33.3975,29.5075Zm-34.2887-10.975a38.35,38.35,0,0,0,12.6193-2.0676v-14.3839c-3.4133-.8956-7.7222-1.0427-12.3208-1.0427-8.1633,0-11.14.8912-11.14,8.453,0,7.7133,1.9383,9.0412,10.8414,9.0412" style="fill:#0d52a0"/><path d="M1597.8891,1335.92H1575.03v-71.18a123.1213,123.1213,0,0,1,38.5932-6.8221c20.93,0,31.3166,8.756,31.3166,36.031V1335.92H1622.085v-40.1885c0-13.7912-2.228-17.4941-13.359-17.4941a45.0337,45.0337,0,0,0-10.8369,1.3323Z" style="fill:#0d52a0"/><path d="M1722.4305,1334.14c-6.0779,2.5176-16.3267,3.8588-23.9018,3.8588-22.7032,0-37.8535-9.3486-37.8535-40.4869,0-30.8354,15.2929-39.5914,37.8535-39.5914,7.8692,0,17.9665,1.1942,23.9018,3.2707l-4.75,19.2676a52.4663,52.4663,0,0,0-17.2178-3.1058c-11.1222,0-16.7723,1.9205-16.7723,20.6089,0,17.7883,5.65,20.4529,16.7723,20.4529a47.2831,47.2831,0,0,0,17.2178-3.4043Z" style="fill:#0d52a0"/><path d="M1795.4652,1333.8366c-7.5618,2.5266-18.8532,4.1619-27.4577,4.1619-21.3753,0-37.2519-9.3486-37.2519-40.487,0-30.5457,13.9516-39.5913,35.7681-39.5913,25.23,0,36.2181,7.7177,34.1417,46.712h-46.4625c.2986,12.1559,5.7928,14.3838,16.7678,14.3838a103.459,103.459,0,0,0,21.0857-2.5309Zm-41.1108-45.9589h26.4239c-.303-10.525-3.7207-12.7575-12.6193-12.7575-9.5,0-12.4723,3.1192-13.8046,12.7575" style="fill:#0d52a0"/></g></svg>