<?xml version="1.0" encoding="utf-8"?>
<!-- Generator: Adobe Illustrator 14.0.0, SVG Export Plug-In . SVG Version: 6.00 Build 43363)  -->
<!DOCTYPE svg PUBLIC "-//W3C//DTD SVG 1.1//EN" "http://www.w3.org/Graphics/SVG/1.1/DTD/svg11.dtd">
<svg version="1.1" id="Ebene_1" xmlns="http://www.w3.org/2000/svg" xmlns:xlink="http://www.w3.org/1999/xlink" x="0px" y="0px"
	 width="392px" height="601px" viewBox="0 0 392 601" enable-background="new 0 0 392 601" xml:space="preserve">
<g>
	<g>
		<defs>
			<rect id="SVGID_1_" x="0.219" y="0.214" width="393" height="601.047"/>
		</defs>
		<clipPath id="SVGID_2_">
			<use xlink:href="#SVGID_1_"  overflow="visible"/>
		</clipPath>
		<rect x="0.219" y="0.214" clip-path="url(#SVGID_2_)" fill="#E00822" width="393" height="601.047"/>
	</g>
	<g>
		<defs>
			<rect id="SVGID_3_" x="0.219" y="0.214" width="393" height="601.047"/>
		</defs>
		<clipPath id="SVGID_4_">
			<use xlink:href="#SVGID_3_"  overflow="visible"/>
		</clipPath>
		<rect x="11.773" y="11.752" clip-path="url(#SVGID_4_)" fill="#FFFFFF" width="369.888" height="254.305"/>
	</g>
	<g>
		<defs>
			<rect id="SVGID_5_" x="0.219" y="0.214" width="393" height="601.047"/>
		</defs>
		<clipPath id="SVGID_6_">
			<use xlink:href="#SVGID_5_"  overflow="visible"/>
		</clipPath>
		<polyline clip-path="url(#SVGID_6_)" fill="#E00822" points="55.16,54.546 55.16,222.6 79.918,222.6 79.918,152.4 105.27,152.4 
			105.27,222.6 130.027,222.6 130.027,54.546 105.27,54.546 105.27,121.862 79.918,121.862 79.918,54.546 55.16,54.546 		"/>
	</g>
	<g>
		<defs>
			<rect id="SVGID_7_" x="0.219" y="0.214" width="393" height="601.047"/>
		</defs>
		<clipPath id="SVGID_8_">
			<use xlink:href="#SVGID_7_"  overflow="visible"/>
		</clipPath>
		<path clip-path="url(#SVGID_8_)" fill="#E00822" d="M232.085,128.119h-33.837v26.861h11.202v40.395
			c-1.024,0.598-2.632,0.898-4.796,0.898c-11.356,0-23.03-14.546-23.03-54.936c0-43.396,13.165-58.72,29.794-58.72
			c6.086,0,10.807,1.439,14.461,3.846l4.238-28.31c-3.928-2.586-11.047-5.11-20.627-5.11c-26.882,0-52.977,25.426-53.604,86.312
			c-0.276,28.972,5.462,53.916,16.348,68.16c8.33,11.177,19.255,16.584,33.722,16.584c9.239,0,20.746-3.124,26.129-5.945V128.119"/>
	</g>
	<g>
		<defs>
			<rect id="SVGID_9_" x="0.219" y="0.214" width="393" height="601.047"/>
		</defs>
		<clipPath id="SVGID_10_">
			<use xlink:href="#SVGID_9_"  overflow="visible"/>
		</clipPath>
		<path clip-path="url(#SVGID_10_)" fill="#E00822" d="M262.813,222.6h24.604v-55.658l5.664-13.703l18.194,69.36h26.994
			l-28.601-94.842l28.208-73.212h-27.152l-16.701,53.734c-2.168,7.396-4.058,14.667-6.096,21.816h-0.512v-75.55h-24.604V222.6"/>
	</g>
	<g>
		<defs>
			<rect id="SVGID_11_" x="0.219" y="0.214" width="393" height="601.047"/>
		</defs>
		<clipPath id="SVGID_12_">
			<use xlink:href="#SVGID_11_"  overflow="visible"/>
		</clipPath>
		<rect x="11.773" y="517.538" clip-path="url(#SVGID_12_)" fill="#FFFFFF" width="369.888" height="72.184"/>
	</g>
	<g>
		<defs>
			<rect id="SVGID_13_" x="0.219" y="0.214" width="393" height="601.047"/>
		</defs>
		<clipPath id="SVGID_14_">
			<use xlink:href="#SVGID_13_"  overflow="visible"/>
		</clipPath>
		<path clip-path="url(#SVGID_14_)" fill="#FFFFFF" d="M222.465,440.959c0-35.94,29.111-65.094,64.952-65.094
			c35.92,0,65.002,29.152,65.002,65.094c0,35.949-29.082,65.092-65.002,65.092C251.576,506.051,222.465,476.908,222.465,440.959"/>
	</g>
	<g>
		<defs>
			<rect id="SVGID_15_" x="0.219" y="0.214" width="393" height="601.047"/>
		</defs>
		<clipPath id="SVGID_16_">
			<use xlink:href="#SVGID_15_"  overflow="visible"/>
		</clipPath>
		<path clip-path="url(#SVGID_16_)" fill="#FFFFFF" d="M11.773,293.286c25.858,11.904,63.35,21.212,107.997,21.032
			c94.44-0.352,95.966-32.516,158.106-32.516c41.214,0,58.274,4.689,103.785,20.616v83.91
			c-50.421-17.976-63.274-22.122-91.493-23.316c-64.129-2.711-90.309,30.708-172.441,32.094
			c-36.945,0.663-83.199-11.427-105.954-20.385V293.286"/>
	</g>
</g>
</svg>
