<?xml version="1.0" encoding="UTF-8" standalone="no"?>
<!-- Created with Inkscape (http://www.inkscape.org/) -->

<svg
   xmlns:dc="http://purl.org/dc/elements/1.1/"
   xmlns:cc="http://creativecommons.org/ns#"
   xmlns:rdf="http://www.w3.org/1999/02/22-rdf-syntax-ns#"
   xmlns:svg="http://www.w3.org/2000/svg"
   xmlns="http://www.w3.org/2000/svg"
   version="1.1"
   width="141.2225"
   height="84.33625"
   id="svg2">
  <defs
     id="defs4">
    <clipPath
       id="clipPath3937">
      <path
         d="m 0.015,914.01 666.99,0 0,-914.01 -666.99,0 0,914.01 z"
         id="path3939" />
    </clipPath>
    <clipPath
       id="clipPath3929">
      <path
         d="m 50.036,839.677 566.929,0 0,-765.354 -566.929,0 0,765.354 z"
         id="path3931" />
    </clipPath>
    <clipPath
       id="clipPath3711">
      <path
         d="m 98.498,734.992 481.437,0 0,-240.003 -481.437,0 0,240.003 z"
         id="path3713" />
    </clipPath>
    <clipPath
       id="clipPath3509">
      <path
         d="m 0.015,914.01 666.99,0 0,-914.01 -666.99,0 0,914.01 z"
         id="path3511" />
    </clipPath>
    <clipPath
       id="clipPath3501">
      <path
         d="m 50.036,839.677 566.929,0 0,-765.354 -566.929,0 0,765.354 z"
         id="path3503" />
    </clipPath>
    <clipPath
       id="clipPath3493">
      <path
         d="m 274.961,211.336 119.056,0 0,-90.211 -119.056,0 0,90.211 z"
         id="path3495" />
    </clipPath>
    <clipPath
       id="clipPath3485">
      <path
         d="m 47.132,71.419 572.736,0 0,771.162 -572.736,0 0,-771.162 z"
         id="path3487" />
    </clipPath>
    <clipPath
       id="clipPath3475">
      <path
         d="m 78.382,102.669 510.236,0 0,708.662 -510.236,0 0,-708.662 z"
         id="path3477" />
    </clipPath>
    <clipPath
       id="clipPath3171">
      <path
         d="m 0.015,914.01 666.99,0 0,-914.01 -666.99,0 0,914.01 z"
         id="path3173" />
    </clipPath>
    <clipPath
       id="clipPath3163">
      <path
         d="m 50.036,839.677 566.929,0 0,-765.354 -566.929,0 0,765.354 z"
         id="path3165" />
    </clipPath>
    <clipPath
       id="clipPath3155">
      <path
         d="m 289.222,218.74 83.128,0 0,-56.189 -83.128,0 0,56.189 z"
         id="path3157" />
    </clipPath>
    <clipPath
       id="clipPath3139">
      <path
         d="m 0.015,914.01 666.99,0 0,-914.01 -666.99,0 0,914.01 z"
         id="path3141" />
    </clipPath>
    <clipPath
       id="clipPath3131">
      <path
         d="m 50.036,839.677 566.929,0 0,-765.354 -566.929,0 0,765.354 z"
         id="path3133" />
    </clipPath>
    <clipPath
       id="clipPath3119">
      <path
         d="m 0.015,914.01 666.99,0 0,-914.01 -666.99,0 0,914.01 z"
         id="path3121" />
    </clipPath>
    <clipPath
       id="clipPath3111">
      <path
         d="m 50.036,839.677 566.929,0 0,-765.354 -566.929,0 0,765.354 z"
         id="path3113" />
    </clipPath>
    <clipPath
       id="clipPath3103">
      <path
         d="m 588.618,773.546 510.236,0 0,-362.078 -510.236,0 0,362.078 z"
         id="path3105" />
    </clipPath>
    <clipPath
       id="clipPath3095">
      <path
         d="m 608.734,734.992 0,-240 481.44,0 0,240"
         id="path3097" />
    </clipPath>
    <clipPath
       id="clipPath3081">
      <path
         d="m 0.015,914.01 666.99,0 0,-914.01 -666.99,0 0,914.01 z"
         id="path3083" />
    </clipPath>
    <clipPath
       id="clipPath3073">
      <path
         d="m 50.036,839.677 566.929,0 0,-765.354 -566.929,0 0,765.354 z"
         id="path3075" />
    </clipPath>
    <clipPath
       id="clipPath3065">
      <path
         d="m 588.618,773.546 510.236,0 0,-362.078 -510.236,0 0,362.078 z"
         id="path3067" />
    </clipPath>
    <clipPath
       id="clipPath3057">
      <path
         d="m 608.734,734.992 0,-240 481.44,0 0,240"
         id="path3059" />
    </clipPath>
    <clipPath
       id="clipPath3049">
      <path
         d="m 608.734,734.992 481.437,0 0,-240.003 -481.437,0 0,240.003"
         id="path3051" />
    </clipPath>
    <clipPath
       id="clipPath3041">
      <path
         d="m 608.734,494.989 481.437,0 0,240.003 -481.437,0 0,-240.003"
         id="path3043" />
    </clipPath>
    <clipPath
       id="clipPath3033">
      <path
         d="m 608.734,494.989 481.437,0 0,240.003 -481.437,0 0,-240.003"
         id="path3035" />
    </clipPath>
    <clipPath
       id="clipPath3025">
      <path
         d="m 1090.171,494.989 -481.437,0 0,240.003 481.437,0 0,-240.003"
         id="path3027" />
    </clipPath>
    <clipPath
       id="clipPath3017">
      <path
         d="m 608.254,735.472 0,-240.961 482.4,0 0,240.961"
         id="path3019" />
    </clipPath>
    <clipPath
       id="clipPath3009">
      <path
         d="m 47.132,71.419 1029.718,0 0,771.162 -1029.718,0 0,-771.162 z"
         id="path3011" />
    </clipPath>
    <clipPath
       id="clipPath2999">
      <path
         d="m 78.382,102.669 510.236,0 0,708.662 -510.236,0 0,-708.662 z"
         id="path3001" />
    </clipPath>
  </defs>
  <metadata
     id="metadata7">
    <rdf:RDF>
      <cc:Work
         rdf:about="">
        <dc:format>image/svg+xml</dc:format>
        <dc:type
           rdf:resource="http://purl.org/dc/dcmitype/StillImage" />
        <dc:title></dc:title>
      </cc:Work>
    </rdf:RDF>
  </metadata>
  <g
     transform="translate(-417.96023,-624.47978)"
     id="layer1">
    <path
       d="m 417.96023,708.81603 141.2225,0 0,-46.33875 -141.2225,0 0,46.33875 z"
       id="path3513"
       style="fill:#af111d;fill-opacity:1;fill-rule:nonzero;stroke:none" />
    <path
       d="m 435.02143,684.54603 61.275,20.86625 46.995,-21.44125 0,-43.00875 -59.2438,-16.4825 -49.0262,18.4975 0,41.56875"
       id="path3517"
       style="fill:#ffffff;fill-opacity:1;fill-rule:nonzero;stroke:none" />
    <path
       d="m 496.28143,692.78103 c 0,-0.0113 0,-0.0237 0,-0.0237 -0.013,0.03 -59.2975,-19.79625 -59.2975,-19.79625 l 0,10.6125 59.2975,19.8725 c 0.056,-0.0275 45.0388,-20.4625 45.0388,-20.4625 l 0,-10.665 -45.0413,20.4625"
       id="path3521"
       style="fill:#1a3a89;fill-opacity:1;fill-rule:nonzero;stroke:none" />
    <path
       d="m 436.99023,644.89603 6.5238,2.17 0,8.0025 3.98,1.32375 0,-8.105 6.4675,2.1525 0,24.5975 -6.4675,-2.1475 0,-8.57 -3.9938,-1.33 0,8.5725 -6.51,-2.16375 0,-24.5025"
       id="path3525"
       style="fill:#af111d;fill-opacity:1;fill-rule:nonzero;stroke:none" />
    <path
       d="m 456.54023,662.72853 c 0.3075,-6.2875 3.455,-9.8425 8.1088,-9.205 0.53,0.0725 1.0637,0.205 1.5962,0.39125 0.5863,0.195 1.1675,0.45875 1.745,0.79125 4.8063,2.7375 8.0025,9.04375 7.8975,15.65 -0.013,0.76875 -0.075,1.5225 -0.1812,2.25125 -0.8863,5.94625 -4.4325,8.805 -9.455,7.1275 -4.6413,-1.55625 -8,-6.0175 -9.2575,-11.8025 -0.155,-0.7325 -0.2788,-1.46125 -0.3575,-2.18 -0.1113,-1.03 -0.1425,-2.04 -0.096,-3.02375 z m 6.4525,3.5075 c 0.1488,2.66375 1.5,4.8675 3.1563,5.41 1.8262,0.5925 3.32,-1.09125 3.2712,-3.98375 -0.054,-2.695 -1.4425,-5.10375 -3.1625,-5.67125 -0.8437,-0.27875 -1.7275,-0.05 -2.3762,0.67 -0.545,0.5925 -0.8475,1.4975 -0.9013,2.79625 0,0.255 0,0.51875 0.012,0.77875"
       id="path3529"
       style="fill:#af111d;fill-opacity:1;fill-rule:nonzero;stroke:none" />
    <path
       d="m 478.48143,658.57728 6.4675,2.1525 0,16.59625 5.6963,1.89 0,8.05625 -12.1638,-4.04375 0,-24.65125"
       id="path3533"
       style="fill:#af111d;fill-opacity:1;fill-rule:nonzero;stroke:none" />
    <path
       d="m 488.79143,662.11853 5.7688,1.9125 0,6.97625 -2.1013,3.73875 -2.5237,-0.78125 2.08,-3.49375 -3.2238,-0.85875 0,-7.49375"
       id="path3537"
       style="fill:#af111d;fill-opacity:1;fill-rule:nonzero;stroke:none" />
    <path
       d="m 503.07773,661.58853 7.8438,-3.54125 5.7537,21.905 -6.2688,2.83375 -0.6437,-2.89 -4.9713,2.29125 -0.5849,3.38 -6.9338,3.14 5.805,-27.11875 z m 5.5313,13.04375 -1.4101,-6.74375 -0.024,0.009 -1.2637,7.95375 2.6975,-1.21875"
       id="path3541"
       style="fill:#af111d;fill-opacity:1;fill-rule:nonzero;stroke:none" />
    <path
       d="m 517.78143,654.96853 8.7013,-3.91875 c 3.885,-1.745 5.9924,-0.0987 6.0237,3.925 0.01,1.85125 -0.4325,3.355 -1.6087,5.29 l -0.5776,0.945 0.4126,0.0775 c 1.6312,0.32625 2.5537,1.87 2.5612,4.2475 0,3.66125 -1.9662,7.32 -5.3388,9.28625 -0.2825,0.17 -0.5649,0.3125 -0.8462,0.44 l -9.3275,4.2075 0,-24.5 z m 6.9125,6.26 c 0.8675,-0.44 1.37,-0.94875 1.6388,-1.7025 0.1212,-0.3375 0.1862,-0.67875 0.1925,-1.00125 0.01,-1.13125 -0.5763,-1.53125 -1.795,-0.9825 l -0.8263,0.375 0,3.7175 0.79,-0.40625 z m 0.78,8.8825 0.1625,-0.0775 c 0.1087,-0.0562 0.2137,-0.12625 0.3213,-0.21 0.62,-0.46625 1.2537,-1.69625 1.2625,-2.475 0.015,-1.11875 -0.695,-1.7675 -1.6926,-1.36625 -0.2174,0.0888 -0.4287,0.17625 -0.6412,0.275 l -0.9825,0.44375 0,4.13 1.57,-0.72"
       id="path3545"
       style="fill:#af111d;fill-opacity:1;fill-rule:nonzero;stroke:none" />
    <path
       d="m 535.61023,647.10353 5.63,-2.5525 0,15.5275 -5.63,2.555 0,-15.53"
       id="path3549"
       style="fill:#af111d;fill-opacity:1;fill-rule:nonzero;stroke:none" />
    <path
       d="m 538.65023,662.76353 c 0.45,-0.11125 0.8975,-0.12375 1.2913,0 l -1.2913,0"
       id="path3553"
       style="fill:#af111d;fill-opacity:1;fill-rule:nonzero;stroke:none" />
    <path
       d="m 540.02523,662.76353 -1.1637,0 c -0.16,0.0438 -0.335,0.11125 -0.4963,0.195 -1.4225,0.72625 -2.9012,2.84 -2.9012,5.15375 0,0.31875 0.031,0.61375 0.09,0.87625 0.3438,1.5325 1.5688,1.8675 2.8025,1.24 0.5151,-0.26625 1.0425,-0.6975 1.5063,-1.2525 0.8288,-0.98875 1.455,-2.35625 1.455,-3.80375 0,-1.405 -0.545,-2.17 -1.2925,-2.40875"
       id="path3557"
       style="fill:#af111d;fill-opacity:1;fill-rule:nonzero;stroke:none" />
    <path
       d="m 451.20523,643.72353 c 0.4938,-0.19125 0.8688,-0.40625 1.125,-0.62625 0.255,-0.22 0.3938,-0.44875 0.415,-0.6725 0.023,-0.2225 -0.076,-0.44 -0.2912,-0.64125 -0.2138,-0.19875 -0.5451,-0.38125 -0.9938,-0.53375 -0.45,-0.15125 -0.9775,-0.26 -1.5413,-0.3225 -0.5687,-0.065 -1.1762,-0.0875 -1.7862,-0.065 -0.6112,0.0213 -1.2312,0.0863 -1.8212,0.18875 -0.5875,0.10625 -1.1463,0.255 -1.6426,0.44 -0.4924,0.18625 -0.8762,0.3975 -1.1462,0.6175 -0.2675,0.22 -0.4225,0.4525 -0.4562,0.67875 -0.036,0.22625 0.046,0.45 0.2512,0.655 0.2075,0.2075 0.5325,0.39375 0.9863,0.54875 0.4525,0.1575 0.9887,0.26625 1.565,0.33125 0.58,0.065 1.2,0.0838 1.8262,0.0588 0.6263,-0.025 1.2588,-0.0963 1.8575,-0.205 0.595,-0.11125 1.1587,-0.2625 1.6525,-0.4525"
       id="path3561"
       style="fill:#1a3a89;fill-opacity:1;fill-rule:nonzero;stroke:none" />
    <path
       d="m 464.53023,638.58353 c 0.46,-0.17625 0.8025,-0.375 1.0325,-0.58 0.23,-0.20375 0.3438,-0.41875 0.3475,-0.62625 0,-0.21125 -0.1087,-0.415 -0.3325,-0.60375 -0.2225,-0.18625 -0.5575,-0.36 -1.0037,-0.50625 -0.4463,-0.145 -0.9613,-0.2475 -1.51,-0.31 -0.5525,-0.065 -1.1388,-0.0862 -1.7238,-0.0712 -0.5887,0.0187 -1.1787,0.0738 -1.7362,0.17125 -0.5575,0.0925 -1.0863,0.22875 -1.5463,0.4 -0.4625,0.1725 -0.8162,0.36875 -1.0587,0.5725 -0.2413,0.205 -0.3713,0.41875 -0.3863,0.6325 -0.016,0.21125 0.08,0.4225 0.2938,0.61375 0.2137,0.1925 0.5462,0.3725 0.9925,0.52125 0.4487,0.14875 0.9725,0.25375 1.535,0.31625 0.5612,0.0625 1.1625,0.0838 1.7637,0.065 0.6038,-0.0213 1.205,-0.08 1.7738,-0.18 0.5675,-0.10125 1.1,-0.23875 1.5587,-0.415"
       id="path3565"
       style="fill:#1a3a89;fill-opacity:1;fill-rule:nonzero;stroke:none" />
    <path
       d="m 476.93773,633.83978 c 0.425,-0.16375 0.7388,-0.3475 0.9425,-0.53625 0.2025,-0.1925 0.295,-0.39 0.2763,-0.58875 -0.016,-0.195 -0.1425,-0.3875 -0.375,-0.5675 -0.2288,-0.1775 -0.5675,-0.34125 -1.0113,-0.48125 -0.4387,-0.13625 -0.945,-0.23875 -1.4812,-0.3 -0.5338,-0.0625 -1.1013,-0.0875 -1.665,-0.075 -0.5613,0.0125 -1.1263,0.0625 -1.6525,0.14875 -0.5313,0.0875 -1.0263,0.21125 -1.4538,0.36875 -0.4287,0.16125 -0.75,0.34125 -0.965,0.53375 -0.2162,0.18875 -0.3225,0.39125 -0.32,0.59 0,0.1975 0.115,0.39625 0.3388,0.57875 0.2237,0.1825 0.555,0.35125 0.9987,0.4925 0.4463,0.14375 0.9575,0.2425 1.5038,0.3075 0.5487,0.0612 1.1287,0.0838 1.705,0.0688 0.5787,-0.0163 1.1525,-0.0688 1.6937,-0.15875 0.535,-0.09 1.0375,-0.2175 1.465,-0.38125"
       id="path3569"
       style="fill:#1a3a89;fill-opacity:1;fill-rule:nonzero;stroke:none" />
    <path
       d="m 488.44023,629.45353 c 0.3975,-0.15 0.6825,-0.32 0.8588,-0.5 0.1737,-0.18 0.2449,-0.365 0.2087,-0.55125 -0.035,-0.1825 -0.175,-0.36625 -0.4163,-0.53375 -0.2387,-0.17 -0.58,-0.32625 -1.02,-0.45875 -0.4375,-0.13375 -0.9337,-0.22875 -1.4537,-0.29125 -0.5213,-0.0625 -1.0663,-0.0875 -1.6063,-0.0775 -0.5425,0.006 -1.0787,0.05 -1.5774,0.13 -0.4988,0.0775 -0.9651,0.18875 -1.3613,0.3375 -0.3975,0.14875 -0.6888,0.31625 -0.8787,0.49625 -0.1875,0.1775 -0.2688,0.36625 -0.25,0.5525 0.021,0.18875 0.1487,0.375 0.3812,0.545 0.2287,0.17375 0.5675,0.335 1.0075,0.47125 0.44,0.13625 0.9425,0.2325 1.4763,0.295 0.53,0.0625 1.0912,0.0863 1.645,0.075 0.5562,-0.01 1.1037,-0.0562 1.6137,-0.14 0.5113,-0.0813 0.98,-0.19875 1.3725,-0.35"
       id="path3573"
       style="fill:#1a3a89;fill-opacity:1;fill-rule:nonzero;stroke:none" />
    <path
       d="m 460.48143,646.80853 c 0.4875,-0.19875 0.8563,-0.415 1.1038,-0.64125 0.2487,-0.22625 0.375,-0.45875 0.3812,-0.685 0.01,-0.23 -0.1025,-0.45 -0.335,-0.655 -0.23,-0.20125 -0.58,-0.3875 -1.045,-0.5425 -0.4675,-0.15125 -1.0112,-0.26 -1.5912,-0.3225 -0.5788,-0.0612 -1.195,-0.08 -1.82,-0.055 -0.62,0.0213 -1.245,0.09 -1.8375,0.1975 -0.5913,0.10875 -1.1538,0.26125 -1.6426,0.4525 -0.4937,0.19625 -0.8687,0.41 -1.1287,0.63625 -0.26,0.22625 -0.4037,0.46125 -0.425,0.69125 -0.023,0.2325 0.077,0.45875 0.3013,0.67 0.22,0.2075 0.5662,0.39625 1.035,0.555 0.4712,0.1575 1.02,0.26625 1.6112,0.33125 0.5925,0.0625 1.225,0.0775 1.8613,0.05 0.635,-0.0275 1.2737,-0.0987 1.875,-0.21375 0.5987,-0.115 1.1637,-0.27 1.6562,-0.46875"
       id="path3577"
       style="fill:#1a3a89;fill-opacity:1;fill-rule:nonzero;stroke:none" />
    <path
       d="m 473.72273,641.51978 c 0.4562,-0.18 0.7938,-0.38125 1.0138,-0.5925 0.2237,-0.21125 0.3262,-0.4275 0.3137,-0.63875 -0.01,-0.21375 -0.1362,-0.42125 -0.375,-0.61375 -0.2388,-0.1925 -0.59,-0.36625 -1.055,-0.51125 -0.4625,-0.14625 -0.995,-0.25125 -1.5588,-0.31375 -0.5637,-0.0612 -1.1625,-0.0838 -1.7587,-0.0612 -0.5975,0.0187 -1.1937,0.0775 -1.7575,0.17625 -0.5612,0.0987 -1.0912,0.23625 -1.55,0.41625 -0.4587,0.17625 -0.8037,0.375 -1.035,0.585 -0.2325,0.21125 -0.3538,0.4275 -0.3563,0.645 0,0.2175 0.1101,0.43125 0.3401,0.62625 0.23,0.195 0.5762,0.375 1.0425,0.5275 0.4675,0.14875 1.0075,0.25375 1.5812,0.31625 0.5763,0.0613 1.19,0.08 1.8013,0.0588 0.6099,-0.0225 1.2212,-0.0875 1.7912,-0.18875 0.5738,-0.10625 1.1038,-0.24875 1.5625,-0.43125"
       id="path3581"
       style="fill:#1a3a89;fill-opacity:1;fill-rule:nonzero;stroke:none" />
    <path
       d="m 486.05273,636.64603 c 0.4263,-0.1675 0.7325,-0.35375 0.9275,-0.5525 0.195,-0.1925 0.2763,-0.39625 0.245,-0.5975 -0.03,-0.19875 -0.1712,-0.395 -0.4187,-0.5775 -0.2488,-0.18 -0.6013,-0.34375 -1.0625,-0.48375 -0.46,-0.13875 -0.98,-0.24125 -1.53,-0.3 -0.5475,-0.0625 -1.1275,-0.0875 -1.7013,-0.0712 -0.5737,0.015 -1.1412,0.0675 -1.675,0.1575 -0.5325,0.09 -1.0287,0.2175 -1.4562,0.37875 -0.4275,0.16375 -0.7413,0.35 -0.9488,0.545 -0.205,0.19625 -0.3012,0.4 -0.2862,0.605 0.02,0.20125 0.1462,0.40375 0.3862,0.58625 0.2388,0.18625 0.5875,0.35625 1.0463,0.49875 0.4625,0.1425 0.9925,0.245 1.5537,0.3075 0.5625,0.0612 1.1538,0.0838 1.7425,0.065 0.5863,-0.0187 1.1688,-0.075 1.7113,-0.1675 0.5437,-0.0962 1.0425,-0.22625 1.4662,-0.39375"
       id="path3585"
       style="fill:#1a3a89;fill-opacity:1;fill-rule:nonzero;stroke:none" />
    <path
       d="m 497.49023,632.14103 c 0.39,-0.155 0.67,-0.3325 0.8413,-0.5125 0.1662,-0.1825 0.2225,-0.375 0.175,-0.56 -0.049,-0.19 -0.2038,-0.375 -0.4575,-0.54625 -0.2588,-0.17 -0.6138,-0.32875 -1.0725,-0.46125 -0.4563,-0.13375 -0.9675,-0.2325 -1.5013,-0.29125 -0.5362,-0.0625 -1.0937,-0.0875 -1.6437,-0.075 -0.5513,0.01 -1.0938,0.0562 -1.5988,0.13625 -0.505,0.0838 -0.9712,0.19875 -1.3637,0.35 -0.3988,0.1525 -0.6825,0.32625 -0.8625,0.50875 -0.18,0.1825 -0.2513,0.375 -0.2175,0.56375 0.034,0.19 0.1762,0.37875 0.425,0.555 0.2475,0.17375 0.6012,0.33875 1.0575,0.475 0.4587,0.13625 0.9762,0.23625 1.5262,0.295 0.545,0.0612 1.1188,0.0825 1.6825,0.0712 0.5638,-0.0125 1.1188,-0.0625 1.6338,-0.14875 0.5112,-0.0838 0.9837,-0.205 1.3762,-0.36"
       id="path3589"
       style="fill:#1a3a89;fill-opacity:1;fill-rule:nonzero;stroke:none" />
    <path
       d="m 470.08023,649.91853 c 0.4863,-0.205 0.8488,-0.4275 1.0875,-0.66 0.2388,-0.23 0.3575,-0.46875 0.3513,-0.70125 0,-0.23 -0.13,-0.455 -0.375,-0.66375 -0.2451,-0.20375 -0.6113,-0.39375 -1.095,-0.545 -0.4838,-0.155 -1.0413,-0.26375 -1.6338,-0.32625 -0.5925,-0.0613 -1.2212,-0.0763 -1.855,-0.0488 -0.6287,0.0237 -1.2612,0.0963 -1.8562,0.21125 -0.595,0.11125 -1.1563,0.26875 -1.6463,0.4675 -0.49,0.1975 -0.8587,0.41875 -1.11,0.65125 -0.25,0.22875 -0.3812,0.47125 -0.3912,0.70625 -0.01,0.23625 0.1062,0.46875 0.3412,0.68 0.2388,0.21 0.5988,0.4025 1.085,0.56375 0.4875,0.1575 1.0525,0.26625 1.6563,0.32875 0.605,0.0612 1.25,0.0775 1.8937,0.0462 0.6425,-0.0312 1.2875,-0.10875 1.8925,-0.22625 0.6038,-0.12125 1.1675,-0.2825 1.655,-0.48375"
       id="path3593"
       style="fill:#1a3a89;fill-opacity:1;fill-rule:nonzero;stroke:none" />
    <path
       d="m 483.24643,644.48103 c 0.4538,-0.18625 0.7863,-0.39375 0.9988,-0.60875 0.2137,-0.21375 0.3075,-0.43625 0.2825,-0.65375 -0.025,-0.2175 -0.165,-0.4275 -0.4188,-0.62375 -0.2537,-0.19125 -0.6225,-0.36875 -1.1037,-0.5175 -0.4775,-0.14625 -1.0263,-0.2475 -1.6025,-0.31 -0.5775,-0.0613 -1.1875,-0.08 -1.795,-0.0588 -0.605,0.0213 -1.2088,0.0838 -1.7763,0.18625 -0.5675,0.1025 -1.095,0.245 -1.5512,0.4275 -0.455,0.18375 -0.7963,0.3875 -1.0188,0.6025 -0.2262,0.21625 -0.3325,0.44 -0.3237,0.65875 0.01,0.22125 0.1375,0.43875 0.3812,0.63625 0.2488,0.19875 0.6113,0.38125 1.0925,0.53375 0.4825,0.14875 1.0388,0.25375 1.6275,0.31625 0.5888,0.0612 1.2125,0.0775 1.8325,0.0525 0.62,-0.025 1.2375,-0.0925 1.8125,-0.19875 0.5738,-0.1075 1.1075,-0.2575 1.5625,-0.4425"
       id="path3597"
       style="fill:#1a3a89;fill-opacity:1;fill-rule:nonzero;stroke:none" />
    <path
       d="m 495.51023,639.46978 c 0.4175,-0.17 0.7213,-0.3625 0.9075,-0.56375 0.1863,-0.19875 0.2538,-0.40625 0.2138,-0.61125 -0.043,-0.20125 -0.1988,-0.4 -0.4613,-0.5825 -0.2637,-0.18625 -0.6325,-0.35375 -1.11,-0.4925 -0.4775,-0.14 -1.0137,-0.23875 -1.5787,-0.30125 -0.56,-0.0625 -1.15,-0.08 -1.7325,-0.065 -0.5838,0.015 -1.1638,0.0712 -1.7,0.16375 -0.535,0.0962 -1.0313,0.22625 -1.4563,0.39375 -0.425,0.17125 -0.735,0.36 -0.9312,0.55875 -0.1975,0.20125 -0.2813,0.40875 -0.2538,0.61375 0.029,0.2075 0.1713,0.4125 0.425,0.59875 0.255,0.18875 0.62,0.35875 1.1013,0.505 0.4775,0.1425 1.0225,0.245 1.5962,0.3075 0.5738,0.0588 1.1788,0.0775 1.7725,0.0588 0.5988,-0.0188 1.1875,-0.0813 1.7338,-0.1775 0.5462,-0.0987 1.0475,-0.235 1.4737,-0.40625"
       id="path3601"
       style="fill:#1a3a89;fill-opacity:1;fill-rule:nonzero;stroke:none" />
    <path
       d="m 506.87523,634.84478 c 0.39,-0.16125 0.6638,-0.3375 0.825,-0.52375 0.1575,-0.18625 0.2075,-0.3825 0.145,-0.57375 -0.061,-0.19 -0.2287,-0.37875 -0.5012,-0.5525 -0.27,-0.17375 -0.645,-0.33125 -1.1188,-0.4675 -0.4725,-0.13375 -1.0025,-0.23 -1.5475,-0.28875 -0.55,-0.0613 -1.1225,-0.0838 -1.6812,-0.0713 -0.56,0.0125 -1.1125,0.0625 -1.6213,0.14625 -0.5075,0.0825 -0.9737,0.20375 -1.3662,0.35875 -0.3925,0.15875 -0.6738,0.335 -0.8438,0.52125 -0.1712,0.18625 -0.2325,0.38125 -0.1862,0.57375 0.05,0.195 0.205,0.3875 0.4675,0.56375 0.2637,0.1775 0.6325,0.34125 1.1075,0.4775 0.4737,0.14 1.01,0.23875 1.5687,0.2975 0.5613,0.06 1.1438,0.0813 1.72,0.0662 0.575,-0.0162 1.135,-0.0687 1.6538,-0.15625 0.5175,-0.0888 0.9887,-0.21375 1.3787,-0.37125"
       id="path3605"
       style="fill:#1a3a89;fill-opacity:1;fill-rule:nonzero;stroke:none" />
    <path
       d="m 479.98893,653.04728 c 0.4838,-0.21125 0.84,-0.44125 1.0725,-0.67625 0.2325,-0.235 0.3375,-0.4775 0.3225,-0.71625 -0.019,-0.23625 -0.155,-0.465 -0.415,-0.6725 -0.2612,-0.21125 -0.6425,-0.4 -1.1413,-0.555 -0.4987,-0.155 -1.07,-0.26125 -1.675,-0.3225 -0.605,-0.06 -1.2462,-0.075 -1.8837,-0.0462 -0.6388,0.03 -1.2775,0.105 -1.8763,0.2225 -0.6012,0.1175 -1.1624,0.2825 -1.6462,0.48375 -0.4875,0.205 -0.8525,0.43375 -1.095,0.67 -0.2412,0.235 -0.3625,0.48 -0.36,0.7225 0,0.23875 0.1312,0.47375 0.3812,0.6875 0.2513,0.2175 0.6313,0.4125 1.1301,0.57125 0.5025,0.1575 1.0774,0.26875 1.6962,0.32875 0.6163,0.0612 1.27,0.0738 1.9237,0.04 0.6526,-0.0337 1.3001,-0.115 1.9101,-0.23875 0.605,-0.12375 1.1724,-0.29125 1.6562,-0.49875"
       id="path3609"
       style="fill:#1a3a89;fill-opacity:1;fill-rule:nonzero;stroke:none" />
    <path
       d="m 493.08773,647.45728 c 0.45,-0.1925 0.7775,-0.40375 0.9825,-0.62375 0.205,-0.22 0.2888,-0.44625 0.2513,-0.66625 -0.034,-0.22 -0.1875,-0.43375 -0.4588,-0.6325 -0.2663,-0.19625 -0.6513,-0.375 -1.1462,-0.52375 -0.4963,-0.14625 -1.0576,-0.24875 -1.6475,-0.31 -0.5925,-0.0587 -1.2126,-0.0775 -1.8288,-0.0537 -0.6138,0.025 -1.225,0.09 -1.795,0.19875 -0.57,0.10625 -1.1,0.25375 -1.5525,0.44 -0.4538,0.18875 -0.7888,0.4 -1.005,0.6175 -0.2175,0.22 -0.3138,0.45 -0.2925,0.6725 0.022,0.22375 0.165,0.44375 0.4262,0.645 0.26,0.20125 0.6375,0.3875 1.1375,0.54 0.4963,0.15125 1.0663,0.2575 1.6676,0.31625 0.6024,0.0588 1.2337,0.0738 1.8637,0.0462 0.6288,-0.0287 1.2525,-0.1 1.8325,-0.21125 0.5763,-0.11125 1.1125,-0.26375 1.565,-0.455"
       id="path3613"
       style="fill:#1a3a89;fill-opacity:1;fill-rule:nonzero;stroke:none" />
    <path
       d="m 505.28143,642.31103 c 0.4188,-0.1775 0.7163,-0.37375 0.8963,-0.5775 0.1775,-0.205 0.2362,-0.415 0.1837,-0.62375 -0.056,-0.20375 -0.2237,-0.40625 -0.5025,-0.59125 -0.2762,-0.18625 -0.6638,-0.3575 -1.1575,-0.49625 -0.4925,-0.1425 -1.0437,-0.2425 -1.6213,-0.30125 -0.5737,-0.0587 -1.1749,-0.08 -1.7674,-0.0587 -0.5925,0.0187 -1.1775,0.0775 -1.7175,0.17375 -0.5425,0.0963 -1.0376,0.2325 -1.46,0.40625 -0.4213,0.17 -0.7288,0.36625 -0.9138,0.57 -0.1925,0.205 -0.2637,0.41875 -0.2237,0.62625 0.04,0.21125 0.1962,0.41625 0.465,0.6075 0.27,0.19 0.6512,0.36375 1.1474,0.50875 0.4926,0.14625 1.0538,0.245 1.6401,0.3075 0.5887,0.0588 1.2025,0.0775 1.8062,0.0525 0.6088,-0.0213 1.2038,-0.0838 1.7525,-0.18625 0.5512,-0.1025 1.0538,-0.2425 1.4725,-0.4175"
       id="path3617"
       style="fill:#1a3a89;fill-opacity:1;fill-rule:nonzero;stroke:none" />
    <path
       d="m 516.58893,637.56103 c 0.3875,-0.16125 0.6538,-0.345 0.8063,-0.53625 0.1512,-0.19 0.1887,-0.3875 0.1137,-0.58125 -0.07,-0.195 -0.2537,-0.38375 -0.5387,-0.56 -0.2888,-0.1775 -0.6788,-0.335 -1.1688,-0.4725 -0.4875,-0.13625 -1.0287,-0.23125 -1.5937,-0.29 -0.5613,-0.06 -1.1438,-0.0813 -1.7113,-0.065 -0.5712,0.015 -1.1287,0.065 -1.64,0.15375 -0.515,0.0875 -0.9825,0.21125 -1.3712,0.3725 -0.39,0.15875 -0.6663,0.34125 -0.8263,0.53 -0.165,0.19 -0.215,0.39125 -0.1562,0.58625 0.06,0.19875 0.23,0.39125 0.5087,0.57 0.2763,0.18 0.6638,0.3475 1.1538,0.48375 0.4925,0.14 1.0412,0.23625 1.615,0.2975 0.5737,0.06 1.1687,0.0775 1.7525,0.06 0.5812,-0.0163 1.1525,-0.0712 1.6725,-0.165 0.5225,-0.0937 0.9925,-0.22 1.3837,-0.38375"
       id="path3621"
       style="fill:#1a3a89;fill-opacity:1;fill-rule:nonzero;stroke:none" />
    <path
       d="m 490.18273,656.19103 c 0.4813,-0.21375 0.8338,-0.45 1.0613,-0.69125 0.2225,-0.2425 0.3187,-0.49 0.2937,-0.7325 -0.027,-0.23875 -0.1787,-0.47125 -0.4525,-0.685 -0.2725,-0.21125 -0.6663,-0.4 -1.1812,-0.55875 -0.5113,-0.15375 -1.0975,-0.26 -1.7138,-0.31875 -0.6175,-0.0625 -1.2687,-0.0738 -1.9175,-0.04 -0.6437,0.0338 -1.29,0.11125 -1.89,0.235 -0.6012,0.12125 -1.1662,0.28875 -1.65,0.5 -0.4837,0.21 -0.8437,0.4425 -1.0762,0.685 -0.235,0.24125 -0.3475,0.4925 -0.3313,0.735 0.012,0.245 0.1525,0.48625 0.4188,0.70375 0.2637,0.21625 0.6537,0.41125 1.1675,0.57375 0.5162,0.16 1.1087,0.26875 1.7349,0.3275 0.6288,0.0588 1.2913,0.0688 1.9526,0.0312 0.6575,-0.0375 1.3137,-0.12 1.9249,-0.25 0.6101,-0.1275 1.175,-0.30125 1.6588,-0.515"
       id="path3625"
       style="fill:#1a3a89;fill-opacity:1;fill-rule:nonzero;stroke:none" />
    <path
       d="m 503.22273,650.44603 c 0.45,-0.19625 0.7725,-0.4125 0.9713,-0.64 0.195,-0.2225 0.2687,-0.45125 0.2237,-0.675 -0.048,-0.22625 -0.2112,-0.44375 -0.4962,-0.64125 -0.2838,-0.19875 -0.6801,-0.38125 -1.1913,-0.5275 -0.5088,-0.14875 -1.085,-0.25125 -1.6875,-0.31375 -0.6038,-0.0587 -1.2362,-0.0712 -1.8587,-0.0462 -0.6238,0.0288 -1.24,0.1 -1.815,0.2075 -0.5738,0.1125 -1.1025,0.26375 -1.5563,0.45625 -0.4488,0.195 -0.78,0.40875 -0.9888,0.6325 -0.2075,0.22625 -0.2937,0.45875 -0.26,0.685 0.031,0.23 0.1863,0.4525 0.4588,0.6575 0.2763,0.205 0.67,0.39 1.1813,0.5425 0.5112,0.1525 1.0937,0.2575 1.7075,0.31625 0.6137,0.0587 1.26,0.0712 1.895,0.04 0.6387,-0.03 1.265,-0.105 1.8475,-0.2225 0.5837,-0.115 1.1199,-0.27375 1.5687,-0.47125"
       id="path3629"
       style="fill:#1a3a89;fill-opacity:1;fill-rule:nonzero;stroke:none" />
    <path
       d="m 515.36023,645.16228 c 0.42,-0.18 0.71,-0.38125 0.8812,-0.58875 0.1701,-0.2075 0.22,-0.425 0.1551,-0.6325 -0.065,-0.21125 -0.245,-0.415 -0.5363,-0.605 -0.295,-0.18625 -0.6937,-0.35625 -1.2025,-0.49875 -0.5088,-0.1425 -1.0725,-0.2425 -1.6625,-0.30125 -0.5887,-0.0588 -1.2025,-0.0738 -1.8012,-0.0525 -0.6013,0.0225 -1.1926,0.0838 -1.7363,0.1825 -0.545,0.1025 -1.0437,0.2425 -1.4637,0.41875 -0.4201,0.1775 -0.7188,0.375 -0.9013,0.58375 -0.18,0.21 -0.245,0.4275 -0.1925,0.64125 0.053,0.21125 0.2238,0.42125 0.505,0.61375 0.2825,0.1925 0.68,0.36875 1.1912,0.515 0.5076,0.145 1.0813,0.245 1.6801,0.30375 0.6025,0.0588 1.2249,0.0738 1.8387,0.05 0.6138,-0.025 1.2188,-0.0937 1.77,-0.19875 0.555,-0.105 1.0575,-0.24875 1.475,-0.43125"
       id="path3633"
       style="fill:#1a3a89;fill-opacity:1;fill-rule:nonzero;stroke:none" />
    <path
       d="m 526.61023,640.29228 c 0.3838,-0.1675 0.6475,-0.35625 0.7925,-0.54875 0.1425,-0.19625 0.1712,-0.3975 0.088,-0.5925 -0.085,-0.19875 -0.2788,-0.39125 -0.5837,-0.5675 -0.2963,-0.17625 -0.7038,-0.34125 -1.2088,-0.4775 -0.505,-0.13375 -1.0625,-0.23 -1.6375,-0.28875 -0.5725,-0.0588 -1.1687,-0.0775 -1.745,-0.0612 -0.58,0.0187 -1.1437,0.0712 -1.6587,0.16375 -0.5175,0.09 -0.985,0.2175 -1.3726,0.38125 -0.3912,0.165 -0.6612,0.35125 -0.8162,0.5425 -0.155,0.19625 -0.195,0.4 -0.1237,0.59875 0.071,0.20125 0.2537,0.3975 0.545,0.58 0.295,0.1825 0.695,0.3475 1.2,0.48625 0.5087,0.14 1.0725,0.23625 1.6587,0.295 0.5863,0.0587 1.1912,0.0775 1.7825,0.0562 0.5925,-0.02 1.1687,-0.0788 1.6925,-0.17375 0.525,-0.0962 1,-0.2275 1.3875,-0.39375"
       id="path3637"
       style="fill:#1a3a89;fill-opacity:1;fill-rule:nonzero;stroke:none" />
    <path
       d="m 500.63773,659.34728 c 0.48,-0.22125 0.8275,-0.4625 1.0475,-0.71125 0.2163,-0.24375 0.3075,-0.49875 0.2738,-0.74375 -0.039,-0.24125 -0.2025,-0.48 -0.4838,-0.69375 -0.2862,-0.215 -0.695,-0.40625 -1.2212,-0.56125 -0.525,-0.15875 -1.1238,-0.26375 -1.75,-0.3225 -0.6288,-0.0562 -1.2888,-0.065 -1.9438,-0.0312 -0.6537,0.0375 -1.305,0.12125 -1.9087,0.24875 -0.605,0.12625 -1.17,0.3 -1.65,0.51375 -0.4813,0.2175 -0.8375,0.45625 -1.0625,0.70125 -0.23,0.2475 -0.3325,0.505 -0.3088,0.7525 0.025,0.24875 0.1738,0.49375 0.45,0.71375 0.2763,0.22 0.6788,0.41875 1.2063,0.58 0.53,0.16125 1.1312,0.27 1.77,0.325 0.6387,0.0588 1.3125,0.065 1.9787,0.025 0.6663,-0.0437 1.3263,-0.13 1.94,-0.26625 0.6138,-0.13375 1.1813,-0.31 1.6625,-0.53"
       id="path3641"
       style="fill:#1a3a89;fill-opacity:1;fill-rule:nonzero;stroke:none" />
    <path
       d="m 513.63393,653.44728 c 0.4462,-0.2025 0.7662,-0.425 0.9588,-0.655 0.1887,-0.22625 0.2537,-0.46125 0.1975,-0.69125 -0.056,-0.22625 -0.2326,-0.44625 -0.53,-0.6475 -0.2913,-0.2025 -0.7038,-0.385 -1.2275,-0.53375 -0.5276,-0.14875 -1.1138,-0.25125 -1.7275,-0.30625 -0.6163,-0.06 -1.255,-0.0712 -1.8875,-0.0412 -0.6326,0.0288 -1.2551,0.1025 -1.8325,0.2175 -0.5763,0.115 -1.1101,0.2725 -1.5588,0.47125 -0.45,0.19875 -0.7725,0.41875 -0.9737,0.6475 -0.2026,0.23 -0.2825,0.46625 -0.2388,0.6975 0.046,0.2325 0.2112,0.46 0.495,0.6675 0.2887,0.205 0.695,0.39375 1.2187,0.545 0.5276,0.1525 1.1225,0.2575 1.7451,0.31375 0.6274,0.0587 1.2812,0.0675 1.9262,0.0337 0.645,-0.0337 1.2775,-0.11125 1.8625,-0.2325 0.5863,-0.12125 1.1238,-0.285 1.5725,-0.48625"
       id="path3645"
       style="fill:#1a3a89;fill-opacity:1;fill-rule:nonzero;stroke:none" />
    <path
       d="m 525.72893,648.02353 c 0.4125,-0.185 0.7,-0.39 0.865,-0.60375 0.1637,-0.21125 0.2075,-0.42875 0.13,-0.6425 -0.074,-0.21375 -0.27,-0.42125 -0.5737,-0.61 -0.3038,-0.18875 -0.7188,-0.3625 -1.2425,-0.505 -0.5213,-0.14375 -1.1013,-0.23875 -1.7026,-0.2975 -0.6012,-0.0562 -1.2212,-0.075 -1.8324,-0.05 -0.6075,0.0238 -1.2063,0.09 -1.7526,0.195 -0.5512,0.105 -1.05,0.2475 -1.4662,0.43125 -0.4175,0.1825 -0.7125,0.38375 -0.8863,0.5975 -0.1762,0.21375 -0.23,0.435 -0.1675,0.65125 0.061,0.2175 0.2451,0.42875 0.5401,0.62375 0.2975,0.195 0.7099,0.3725 1.2299,0.5175 0.5251,0.14625 1.1101,0.245 1.7213,0.30375 0.61,0.0562 1.2463,0.0688 1.87,0.04 0.6225,-0.0275 1.23,-0.0962 1.7875,-0.2075 0.5563,-0.1075 1.0613,-0.2575 1.48,-0.44375"
       id="path3649"
       style="fill:#1a3a89;fill-opacity:1;fill-rule:nonzero;stroke:none" />
    <path
       d="m 536.92393,643.02978 c 0.3837,-0.17375 0.6462,-0.36375 0.7825,-0.56125 0.1363,-0.19875 0.1537,-0.4025 0.061,-0.6025 -0.096,-0.20125 -0.3037,-0.39625 -0.6199,-0.57625 -0.3125,-0.18 -0.7325,-0.34125 -1.2525,-0.4775 -0.52,-0.13625 -1.0913,-0.2325 -1.6775,-0.2875 -0.5863,-0.06 -1.1913,-0.0775 -1.7763,-0.0562 -0.5887,0.0187 -1.16,0.0775 -1.68,0.17 -0.5188,0.0975 -0.99,0.2275 -1.3738,0.395 -0.3887,0.17 -0.6512,0.35875 -0.8,0.555 -0.1487,0.1975 -0.1812,0.405 -0.096,0.61 0.08,0.20125 0.275,0.4025 0.5825,0.58625 0.3062,0.1825 0.7225,0.35 1.2437,0.49 0.52,0.13875 1.0976,0.2375 1.695,0.29375 0.5963,0.0562 1.2125,0.0712 1.8138,0.05 0.5988,-0.0213 1.1825,-0.0838 1.7125,-0.1825 0.5262,-0.1 1.0013,-0.23625 1.385,-0.40625"
       id="path3653"
       style="fill:#1a3a89;fill-opacity:1;fill-rule:nonzero;stroke:none" />
    <path
       d="m 443.59393,678.32978 -1.47,0.1775 -0.1025,-0.35375 c -0.2037,-0.7 -0.4687,-1.01375 -0.85,-1.13125 -0.52,-0.16125 -0.9475,0.21625 -1.0525,1.72875 -0.01,0.11375 -0.013,0.22375 -0.016,0.33875 0,0.235 0.01,0.4775 0.031,0.725 0.1488,1.47875 0.56,2.13125 1.1225,2.31625 0.4438,0.1525 0.7563,-0.0813 0.8862,-0.88375 l 0.059,-0.3525 -1.3637,-0.45875 -0.01,-1.5225 2.9713,1.00125 -0.021,0.81875 c -0.088,2.555 -1.0088,3.35125 -2.345,2.98875 -0.27,-0.075 -0.5388,-0.19 -0.7963,-0.3475 -1.1375,-0.6825 -1.935,-1.91625 -2.1587,-3.78875 -0.028,-0.27 -0.045,-0.53375 -0.051,-0.79625 -0.01,-0.25125 0.01,-0.5 0.027,-0.74375 0.2138,-2.245 1.3175,-2.97125 2.79,-2.4625 1.0263,0.35625 1.8325,1.2 2.2325,2.40625 l 0.115,0.34"
       id="path3657"
       style="fill:#ffffff;fill-opacity:1;fill-rule:nonzero;stroke:none" />
    <path
       d="m 448.82023,682.99728 0,-0.23625 c 0,-0.0462 0,-0.0937 -0.01,-0.14 -0.043,-0.45875 -0.2876,-0.78375 -0.5825,-0.88375 -0.1463,-0.05 -0.3125,-0.03 -0.44,0.0688 -0.094,0.0712 -0.1463,0.1925 -0.1738,0.44875 0,0.035 -0.01,0.0662 -0.01,0.1025 l 0,0.23 1.2112,0.41 z m 1.365,1.3675 -2.5888,-0.87125 0,0.1975 c 0,0.0688 0.01,0.13625 0.015,0.2075 0.087,0.53375 0.3325,0.84875 0.6475,0.96375 0.255,0.0937 0.4287,0.0225 0.5225,-0.24125 l 0.055,-0.17375 1.2838,0.43375 -0.047,0.19875 c -0.2137,0.8625 -0.8137,1.15 -1.7537,0.85875 -1.2813,-0.4 -2.0925,-1.5125 -2.1025,-3.23 0,-0.15875 0,-0.31375 0.016,-0.46875 0.1113,-1.615 0.8825,-2.15875 2.0463,-1.72125 1.15,0.43375 1.8537,1.485 1.8937,3.33375 l 0.013,0.5125"
       id="path3661"
       style="fill:#ffffff;fill-opacity:1;fill-rule:nonzero;stroke:none" />
    <path
       d="m 452.82393,682.18353 0.6138,0.20875 -0.01,-1.4575 1.4575,0.49 0,1.4575 0.6288,0.21 0,1.19375 -0.6137,-0.2075 0.01,4.03 -1.4787,-0.49625 -0.01,-4.02375 -0.605,-0.2025 0,-1.2025"
       id="path3665"
       style="fill:#ffffff;fill-opacity:1;fill-rule:nonzero;stroke:none" />
    <path
       d="m 458.77023,684.17478 1.4875,0.5025 -0.01,0.6075 0.01,0.006 0.1387,-0.165 c 0.2388,-0.27625 0.4325,-0.335 0.8688,-0.25375 l 0.2137,0.0375 0,1.47875 -0.1688,-0.0838 c -0.07,-0.0375 -0.1425,-0.0712 -0.2162,-0.0962 -0.3975,-0.1325 -0.7375,0.0488 -0.8213,0.5675 -0.01,0.0562 -0.016,0.11125 -0.016,0.17 l 0.01,2.94625 -1.4875,-0.5 -0.013,-5.2175"
       id="path3669"
       style="fill:#ffffff;fill-opacity:1;fill-rule:nonzero;stroke:none" />
    <path
       d="m 466.92643,687.31853 0,-0.415 1.4562,0.49 0.013,5.24875 -1.4724,-0.49625 0,-0.475 -0.1826,0.1025 c -0.3012,0.1675 -0.5437,0.18875 -0.8624,0.09 -0.7688,-0.23875 -1.3488,-1.03875 -1.525,-2.66625 -0.025,-0.2325 -0.04,-0.46125 -0.04,-0.68875 -0.01,-1.75125 0.74,-2.33 1.5901,-2.05625 0.3162,0.10125 0.565,0.28375 0.84,0.63375 l 0.1887,0.2325 z m -1.2025,1.80625 c 0.025,0.94125 0.1825,1.27875 0.4775,1.48625 0.044,0.0312 0.09,0.055 0.1363,0.0775 0.385,0.17375 0.6174,-0.0188 0.695,-0.79125 0.01,-0.0738 0.011,-0.1575 0.011,-0.235 0,-0.12125 0,-0.26375 -0.015,-0.465 -0.01,-0.0775 -0.012,-0.15875 -0.021,-0.2425 -0.074,-0.66 -0.2324,-0.89875 -0.5987,-1.025 -0.35,-0.12125 -0.505,-0.0137 -0.6325,0.57 -0.018,0.0862 -0.03,0.17625 -0.04,0.26875 -0.01,0.115 -0.015,0.23625 -0.012,0.35625 z m 1.9313,-4.36125 c 0.4562,0.14625 0.8162,0.6325 0.8099,1.06375 -0.01,0.425 -0.3662,0.6475 -0.8162,0.48625 -0.4425,-0.16125 -0.7837,-0.635 -0.7775,-1.06 0.012,-0.41 0.3537,-0.6325 0.7838,-0.49 z m -2.0575,-0.6825 c 0.4399,0.1525 0.79,0.62125 0.79,1.0425 0,0.43125 -0.3538,0.66625 -0.8,0.51125 -0.4275,-0.15125 -0.7688,-0.60125 -0.7813,-1.02 -0.015,-0.4375 0.3375,-0.685 0.7913,-0.53375"
       id="path3673"
       style="fill:#ffffff;fill-opacity:1;fill-rule:nonzero;stroke:none" />
    <path
       d="m 472.06773,688.63603 1.4875,0.50125 0,0.7575 0.01,0.003 0.17,-0.1575 c 0.3475,-0.31875 0.695,-0.385 1.1574,-0.24125 0.7188,0.225 1.1488,0.855 1.1526,1.80125 l 0.01,3.9 -1.4725,-0.49625 -0.01,-3.40125 0,-0.0225 c -0.01,-0.055 -0.018,-0.1075 -0.036,-0.16375 -0.084,-0.2225 -0.2426,-0.39 -0.425,-0.4675 -0.3063,-0.13 -0.5363,0.04 -0.5338,0.53625 l 0.01,3.18125 -1.4937,-0.5025 -0.013,-5.2275"
       id="path3677"
       style="fill:#ffffff;fill-opacity:1;fill-rule:nonzero;stroke:none" />
    <path
       d="m 479.65393,688.22978 1.51,0.50875 0.01,4.75625 0.01,0.002 0.7875,-1.5225 1.6525,0.555 -1.1812,1.74625 1.4075,3.53375 -1.6125,-0.54125 -1.0538,-2.66625 -0.01,-0.005 0.01,2.31625 -1.5038,-0.50875 -0.019,-8.175"
       id="path3681"
       style="fill:#ffffff;fill-opacity:1;fill-rule:nonzero;stroke:none" />
    <path
       d="m 490.28273,697.84353 -2.5862,-0.8675 0,0.1975 c 0,0.0662 0,0.1375 0.016,0.205 0.086,0.53375 0.3313,0.8525 0.6438,0.9675 0.255,0.09 0.4312,0.0188 0.5212,-0.245 l 0.059,-0.17 1.2837,0.43125 -0.05,0.20125 c -0.2112,0.86125 -0.815,1.15 -1.7512,0.85625 -1.2813,-0.40125 -2.0925,-1.51 -2.1025,-3.23125 0,-0.15875 0,-0.3125 0.016,-0.46625 0.1113,-1.615 0.8838,-2.16 2.0425,-1.72375 1.1538,0.435 1.8538,1.48625 1.8975,3.3375 l 0.01,0.5075 z m -1.3637,-1.36625 0,-0.23625 c 0,-0.0425 0,-0.09 -0.01,-0.13625 -0.045,-0.45875 -0.29,-0.78375 -0.5837,-0.88375 -0.1488,-0.05 -0.3138,-0.0312 -0.4438,0.0688 -0.094,0.07 -0.145,0.18875 -0.17,0.44625 -0.01,0.0337 -0.01,0.0687 -0.01,0.10125 l 0,0.23375 1.21,0.40625"
       id="path3685"
       style="fill:#ffffff;fill-opacity:1;fill-rule:nonzero;stroke:none" />
    <path
       d="m 500.90773,691.93728 2.1575,-0.98 0.7288,4.23 0.01,-0.004 0.7325,-4.895 2.1825,-0.98875 0.725,7.4125 -1.6925,0.76875 -0.3162,-5.41875 -0.01,0.006 -1.0188,6.02375 -1.2537,0.5675 -0.98,-5.175 -0.01,0.006 -0.3312,5.76125 -1.7025,0.77125 0.7787,-8.08625"
       id="path3689"
       style="fill:#ffffff;fill-opacity:1;fill-rule:nonzero;stroke:none" />
    <path
       d="m 514.09893,688.87103 0.01,-0.006 0,-0.39625 1.5462,-0.70375 0,5.2175 -1.5837,0.71625 0.01,-0.46375 -0.01,0.002 -0.05,0.08 c -0.2788,0.44 -0.605,0.74375 -1.0113,0.94875 -0.7312,0.37 -1.2375,0.17625 -1.5562,-0.865 -0.078,-0.26125 -0.1238,-0.58875 -0.1238,-0.94875 0,-0.26875 0.016,-0.54625 0.046,-0.8275 0.1762,-1.5325 0.7537,-2.335 1.6775,-2.76 0.4125,-0.18875 0.6362,-0.20625 0.9025,-0.0738 l 0.1512,0.08 z m -0.57,3.82375 c 0.47,-0.22375 0.6938,-0.62625 0.685,-1.76125 0,-0.33875 -0.031,-0.58 -0.081,-0.72625 -0.1075,-0.35875 -0.2725,-0.43375 -0.5075,-0.33125 -0.086,0.0337 -0.1738,0.0875 -0.255,0.14875 -0.275,0.21125 -0.3713,0.3725 -0.4625,0.81125 -0.01,0.0412 -0.011,0.0788 -0.018,0.115 l -0.029,0.34875 c 0,0.11625 -0.01,0.23625 -0.01,0.3525 0,0.0775 0,0.15 0,0.22375 0.027,0.85875 0.255,1.01375 0.6762,0.81875"
       id="path3693"
       style="fill:#ffffff;fill-opacity:1;fill-rule:nonzero;stroke:none" />
    <path
       d="m 520.51143,685.55478 1.5713,-0.7175 -0.01,0.615 0.01,0 0.1488,-0.28 c 0.2512,-0.4675 0.4562,-0.6875 0.9137,-0.96 l 0.23,-0.14 0,1.47875 -0.1762,0.0525 c -0.075,0.0187 -0.1525,0.05 -0.23,0.085 -0.4188,0.18875 -0.7813,0.65 -0.8713,1.24 -0.01,0.0612 -0.015,0.12 -0.015,0.17875 l 0,2.94875 -1.5713,0.7125 0,-5.21375"
       id="path3697"
       style="fill:#ffffff;fill-opacity:1;fill-rule:nonzero;stroke:none" />
    <path
       d="m 527.87143,679.23978 1.5963,-0.72625 -0.01,4.7625 0.01,-0.004 0.835,-2.1675 1.745,-0.79375 -1.2525,2.7125 1.4787,2.39375 -1.7025,0.7725 -1.1087,-1.81125 -0.01,0.004 0.01,2.3125 -1.59,0.72375 0,-8.17875"
       id="path3701"
       style="fill:#ffffff;fill-opacity:1;fill-rule:nonzero;stroke:none" />
    <path
       d="m 536.29773,678.38853 0.6475,-0.29375 0,-1.4575 1.5388,-0.6975 0,1.4575 0.6637,-0.30125 0,1.19 -0.6487,0.295 0,4.03125 -1.5601,0.71 0,-4.025 -0.6412,0.2925 0,-1.20125"
       id="path3705"
       style="fill:#ffffff;fill-opacity:1;fill-rule:nonzero;stroke:none" />
  </g>
</svg>
