<?xml version="1.0" encoding="utf-8"?>
<!-- Generator: Adobe Illustrator 18.0.0, SVG Export Plug-In . SVG Version: 6.00 Build 0)  -->
<!DOCTYPE svg PUBLIC "-//W3C//DTD SVG 1.1//EN" "http://www.w3.org/Graphics/SVG/1.1/DTD/svg11.dtd">
<svg version="1.1" id="Layer_1" xmlns="http://www.w3.org/2000/svg" xmlns:xlink="http://www.w3.org/1999/xlink" x="0px" y="0px"
	 viewBox="7.7 11.8 619.3 86.7" enable-background="new 7.7 11.8 619.3 86.7" xml:space="preserve">
<g id="Layer_1_1_">
</g>
<polygon points="39.4,12.8 39.4,34 14.1,34 14.1,12.8 7.7,12.8 7.7,62.2 14.1,62.2 14.1,40 39.4,40 39.4,62.2 45.9,62.2 45.9,12.8 
	"/>
<path d="M80.8,57c-9.3,0-18.9-7.2-18.9-19.6c0-12.7,9.8-19.4,18.9-19.4c9.6,0,19.4,6.5,19.4,19.4C100.2,50,90.1,57,80.8,57
	 M80.8,11.8C64,11.8,55,25,55,37.4c0,12.7,9.5,25.8,25.8,25.8c17,0,26.1-13.4,26.1-25.8C106.9,25,97.8,11.8,80.8,11.8"/>
<path d="M154.9,12.8v28.9c0,10.3-5.2,20.9-19.4,20.9c-14.2,0-19.4-10.6-19.4-20.9V12.8h6.4v28.9c0,9.3,4.9,15,13.2,15
	c3.6,0,12.6-1.3,12.6-15V12.8H154.9"/>
<polygon points="234.2,12.8 234.2,19 215.1,19 215.1,34.3 230.1,34.3 230.1,40.2 215.1,40.2 215.1,56 234.2,56 234.2,62.2 
	208.4,62.2 208.4,12.8 "/>
<polygon points="353.8,12.8 353.8,19 332.9,19 332.9,34.3 349.5,34.3 349.5,40.2 332.9,40.2 332.9,62.2 326.5,62.2 326.5,12.8 "/>
<path d="M437.5,36.9h-6.5h-0.5V18.5h0.5h7c7,0,10.9,3.6,10.9,9.8C448.9,33.8,444.8,36.9,437.5,36.9 M446.1,41.2l0.3-0.3
	c5.7-2.3,9-7.2,9-12.7c0-10.3-6.5-15.5-18.9-15.5h-12.4v49.3h6.5V42.5h9.5c0,0,9.1,19.1,9.3,19.6h8
	C456.7,61.1,446.1,41.2,446.1,41.2"/>
<path d="M477.9,44.9l8.5-24.5l0.5-1l8.5,25.6H477.9z M490.8,12.8h-7.5c-0.3,0.5-18.6,48.3-18.9,49.3h7.2c0-0.5,4.4-11.4,4.4-11.4
	h21.4c0,0,4.1,10.8,4.4,11.4h7.2C508.6,61.1,491,13.4,490.8,12.8"/>
<polygon points="413.5,12.8 413.5,19 392.3,19 392.3,34.3 408.9,34.3 408.9,40.2 392.3,40.2 392.3,62.2 385.9,62.2 385.9,12.8 "/>
<path d="M289.8,57c-9.3,0-19.1-7.2-19.1-19.6c0-12.7,9.8-19.4,19.1-19.4c9.6,0,19.1,6.7,19.1,19.4C308.9,50.3,299.1,57,289.8,57
	 M289.8,11.8c-16.8,0-26.1,13.2-26.1,25.6c0,12.7,9.8,25.8,26.1,25.8c17,0,26.1-13.4,26.1-25.8C315.9,25,306.8,11.8,289.8,11.8"/>
<polygon points="583,12.8 583,19 563.9,19 563.9,34.3 578.9,34.3 578.9,40.2 563.9,40.2 563.9,56.2 583,56.2 583,62.2 557.4,62.2 
	557.4,12.8 "/>
<path d="M607.1,37.1l-6.4-0.3h-0.5V18.8h0.5h7c7,0,10.8,3.4,10.8,9.6C618.5,31.7,616.9,37.1,607.1,37.1 M615.6,41.2h0.3
	c5.7-2.6,9-7.5,9-12.9c0-10.3-6.5-15.5-18.9-15.5h-12.4v49.3h6.5V42.8h9.6c0,0,9,18.9,9.3,19.4h8C626.5,61.1,615.6,41.2,615.6,41.2"
	/>
<path d="M191.4,49c0-5.4-5.7-7.2-11.6-9.3c-6.7-2.6-13.9-4.9-13.9-13.2c0-14,13.7-14.7,16.5-14.7c7.7,0,12.9,2.6,14.2,3.1
	c-0.2,0.5-1.5,5.4-1.5,6.2c-1.6-1-6.2-3.6-12.4-3.6c-7,0-10.1,4.1-10.1,8c0,5.2,5.2,6.7,10.8,8.5c7,2.3,14.7,4.6,14.7,14.5
	c0,8.5-7,14.5-16.8,14.5c-8.3,0-15.5-4.1-16.8-4.9c0.3-0.2,1.8-5.2,2.1-5.9c1.5,1.3,8,5.2,15.5,5.2C188.8,57.3,191.4,52.9,191.4,49"
	/>
<path d="M540.4,49c0-5.4-5.7-7.2-11.6-9.3c-6.7-2.6-13.9-4.9-13.9-13.2c0-14,13.7-14.7,16.5-14.7c7.7,0,12.9,2.6,14.2,3.1
	c-0.2,0.5-1.5,5.4-1.5,6.2c-1.5-1-6.2-3.6-12.4-3.6c-7,0-10.1,4.1-10.1,8c0,5.2,5.2,6.7,10.6,8.5c7.2,2.3,15,4.6,15,14.5
	c0,8.5-7,14.5-16.8,14.5c-8.3,0-15.5-4.1-16.8-4.9c0.3-0.2,1.8-5.2,2.1-5.9c1.5,1.3,8,5.2,15.5,5.2C537.8,57.3,540.4,52.9,540.4,49"
	/>
<path d="M242.9,98.5c-3.2,0-5.4-0.7-7.5-2.8l2.1-2.1c1.5,1.5,3.2,2,5.4,2c2.8,0,4.4-1.2,4.4-3.2c0-0.9-0.3-1.7-0.8-2.2
	c-0.5-0.5-1.1-0.7-2.3-0.9l-2.5-0.4c-1.7-0.2-3.1-0.8-4-1.7c-1-1-1.5-2.3-1.5-4c0-3.7,2.7-6.2,7-6.2c2.8,0,4.7,0.7,6.5,2.4l-2,2
	c-1.3-1.2-2.8-1.6-4.6-1.6c-2.5,0-3.9,1.4-3.9,3.3c0,0.8,0.2,1.5,0.8,2c0.5,0.5,1.4,0.8,2.4,1l2.4,0.4c2,0.3,3,0.8,3.9,1.6
	c1.2,1,1.7,2.5,1.7,4.3C250.5,96.2,247.3,98.5,242.9,98.5"/>
<rect x="254.8" y="77.3" width="3.2" height="21.1"/>
<polygon points="276.4,98.4 266.7,83.5 266.7,98.4 263.5,98.4 263.5,77.3 266.4,77.3 276.1,92.1 276.1,77.3 279.3,77.3 279.3,98.4 
	"/>
<path d="M291.6,98.5c-2.2,0-4.1-0.8-5.5-2.3c-2.1-2.1-2-4.4-2-8.5c0-4.1,0-6.4,2-8.5c1.5-1.4,3.4-2.2,5.5-2.2c3.9,0,6.8,2.3,7.5,6.5
	h-3.3c-0.5-2.1-1.9-3.6-4.3-3.6c-1.2,0-2.4,0.5-3.1,1.3c-1,1.1-1.3,2.3-1.3,6.6c0,4.2,0.2,5.4,1.3,6.6c0.7,0.8,1.9,1.3,3.1,1.3
	c2.3,0,3.8-1.5,4.3-3.6h3.2C298.4,96.3,295.5,98.5,291.6,98.5"/>
<polygon points="303.4,98.4 303.4,77.3 316.9,77.3 316.9,80.1 306.6,80.1 306.6,86.3 315.4,86.3 315.4,89.2 306.6,89.2 306.6,95.5 
	316.9,95.5 316.9,98.4 "/>
<polygon points="333.1,98.4 333.1,80.6 329,84.2 329,80.8 333.1,77.3 336.1,77.3 336.1,98.4 "/>
<path d="M349.3,79.8c-1.8,0-3.1,1.4-3.1,3.2c0,1.9,1.3,3.2,3.1,3.2c1.8,0,3.1-1.3,3.1-3.2C352.4,81.2,351.1,79.8,349.3,79.8
	 M349.3,88.8c-2,0-3.5,1.6-3.5,3.5c0,2,1.5,3.5,3.5,3.5c2,0,3.5-1.5,3.5-3.5C352.7,90.4,351.2,88.8,349.3,88.8 M349.3,98.5
	c-3.6,0-6.5-2.3-6.5-6.1c0-2.5,1.4-4.1,2.9-4.9c-1.4-0.8-2.5-2.3-2.5-4.5c0-3.5,2.7-5.8,6.1-5.8s6.2,2.3,6.2,5.8
	c0,2.2-1.2,3.7-2.6,4.5c1.5,0.9,2.9,2.4,2.9,4.9C355.8,96.2,352.9,98.5,349.3,98.5"/>
<polygon points="369.7,95.2 369.7,98.4 366.7,98.4 366.7,95.2 358.2,95.2 358.2,92.4 365.6,77.3 368.9,77.3 361.5,92.4 366.7,92.4 
	366.7,87.5 369.7,87.5 369.7,92.4 371.9,92.4 371.9,95.2 "/>
<path d="M380.8,79.8c-1.9,0-3.2,1.4-3.2,3.7c0,2.1,1.2,3.6,3.2,3.6c1.9,0,3.2-1.4,3.2-3.6C384,81.2,382.7,79.8,380.8,79.8
	 M385.5,88.6l-4.8,9.8h-3.2l4.5-9.1c-0.6,0.2-1.2,0.3-1.9,0.3c-3,0-5.5-2.4-5.5-6.1c0-3.9,2.6-6.4,6.2-6.4c3.6,0,6.2,2.4,6.2,6.3
	C387.1,85.1,386.4,86.7,385.5,88.6"/>
</svg>
