<?xml version="1.0" encoding="utf-8"?>
<svg version="1.1" xmlns="http://www.w3.org/2000/svg" xmlns:xlink="http://www.w3.org/1999/xlink" x="0px" y="0px"
	 viewBox="0 0 765.4 283.5" style="enable-background:new 0 0 765.4 283.5;" xml:space="preserve">
<style type="text/css">
	.st0{fill:#E60028;}
	.st1{fill:#FFFFFF;}
</style>
<g id="red_background">
	<rect class="st0" width="765.4" height="283.5"/>
</g>
<g id="Logo">
	<path class="st1" d="M547.2,117.9h-63.3c-1.3,0-2.4,1.1-2.4,2.4v0v7.6c0,1.3,1.1,2.4,2.4,2.4l0,0h53c1.3,0,2.4,1.1,2.4,2.4
		c0,0.5-0.2,1-0.4,1.4c0,0-8.9,12.1-11.7,16.2c-0.9,1.2-2.3,2-3.8,2h-39.4c-1.3,0-2.4,1.1-2.4,2.4l0,0v8.8c0,1.3,1.1,2.4,2.4,2.4
		h63.2c1.3,0,2.4,1.1,2.4,2.4l0,0v3.3c0,1-0.3,2-0.9,2.8l-9.3,13c-0.9,1.2-2.3,2-3.8,2h-79.7c-1.3,0-2.4-1.1-2.4-2.4v-73.3
		c0-1.5,0.5-2.9,1.3-4.1l9.1-12.7c0.9-1.2,2.3-2,3.8-2h79.7c1.3,0,2.4,1.1,2.4,2.4v18.6C549.6,116.8,548.5,117.9,547.2,117.9
		C547.2,117.9,547.2,117.9,547.2,117.9z M647.9,162c-0.9-0.9-0.9-2.4,0-3.4c0.3-0.3,0.6-0.4,0.9-0.6c14.5-4.4,22-14.9,22-30.2
		c0-20.5-12.8-33.3-40.2-33.3h-50.5c-1.5,0-3,0.7-3.8,2l-9.1,12.7c-0.9,1.2-1.3,2.6-1.3,4.1v73.3c0,1.3,1.1,2.4,2.4,2.4h12.8
		c1.5,0,2.9-0.7,3.8-2l7.8-10.8c0.9-1.2,1.3-2.7,1.3-4.1v-52c0-1.3,1.1-2.4,2.4-2.4l0,0h34.4c10.4,0,11.5,3.5,11.5,10.6
		c0,7.1-1.1,10.6-11.5,10.6h-14.6c-1.5,0-3,0.7-3.8,2l-11.7,16.2c-0.8,1.1-0.5,2.5,0.5,3.3c0.4,0.3,0.9,0.4,1.4,0.4h9.5
		c1.9,0,3.8,0.8,5.1,2.2l22.6,23.7c1.3,1.4,3.2,2.2,5.1,2.2h24.5c1.3,0,2.4-1.1,2.4-2.4c0-0.6-0.3-1.2-0.7-1.7L647.9,162z M444,94.5
		h-26c-1.5,0-3,0.7-3.8,2l-26.3,36.7c-0.8,1.1-2.2,1.3-3.3,0.5c-0.2-0.2-0.4-0.3-0.5-0.5l-26.3-36.7c-0.9-1.2-2.3-2-3.8-2h-26
		c-1.3,0-2.4,1.1-2.4,2.4c0,0.5,0.2,1,0.4,1.4l44.1,61.6c0.6,0.8,0.9,1.8,0.9,2.8v24c0,1.3,1.1,2.4,2.4,2.4h13.5c1.5,0,3-0.7,3.8-2
		l9-12.5c0.9-1.2,1.3-2.6,1.3-4.1v-7.8c0-1,0.3-1.9,0.9-2.8l44.1-61.6c0.8-1.1,0.5-2.5-0.5-3.3C445,94.6,444.5,94.5,444,94.5z
		 M122.7,170.4v-14.7c0-1.3,1.1-2.4,2.4-2.4l0,0h5.9c1.5,0,3-0.7,3.8-2l12.6-17.5c0.8-1.1,0.5-2.5-0.5-3.3c-0.4-0.3-0.9-0.4-1.4-0.4
		h-20.4c-1.3,0-2.4-1.1-2.4-2.4c0,0,0,0,0,0V96.9c0-1.3-1.1-2.4-2.4-2.4l0,0H96.9c-1.3,0-2.4,1.1-2.4,2.4l0,0v89.8
		c0,1.3,1.1,2.4,2.4,2.4l0,0h11.8c1.5,0,3-0.7,3.8-2l9-12.5C122.3,173.3,122.7,171.8,122.7,170.4z M183,96.5l-9.1,12.7
		c-0.9,1.2-1.3,2.6-1.3,4.1v14.5c0,1.3-1.1,2.4-2.4,2.4H162c-1.5,0-3,0.7-3.8,2l-12.6,17.5c-0.8,1.1-0.5,2.5,0.5,3.3
		c0.4,0.3,0.9,0.4,1.4,0.4h22.7c1.3,0,2.4,1.1,2.4,2.4v30.9c0,1.3,1.1,2.4,2.4,2.4h23.5c1.3,0,2.4-1.1,2.4-2.4V96.9
		c0-1.3-1.1-2.4-2.4-2.4h-11.6C185.3,94.5,183.9,95.2,183,96.5z M271.1,92.3c-32.3,0-56.5,15.2-56.5,49.4
		c0,35.2,24.4,49.4,56.5,49.4c32.3,0,56.7-14.2,56.7-49.4C327.7,107.4,303.4,92.3,271.1,92.3z M271.1,167.8
		c-23.6,0-28.3-5.6-28.3-26.1s4.8-26.1,28.3-26.1c23.6,0,28.4,5.6,28.4,26.1C299.5,162.2,294.7,167.8,271.1,167.8z"/>
</g>
</svg>
