<svg width="238.5" height="51.53" version="1.1" viewBox="0 0 238.5 51.53" xmlns="http://www.w3.org/2000/svg"><style type="text/css">.st0{fill:#727171;}
	.st1{fill:#D8032D;}
	.st2{fill:#FFFFFF;}
	.st3{clip-path:url(#SVGID_2_);fill:#727171;}
	.st4{clip-path:url(#SVGID_2_);fill:#D8032D;}</style><g transform="translate(-107.43,-11.53)"><path class="st0" d="m107.43 16.37c0-1.31 0.48-2.44 1.43-3.4 0.96-0.96 2.1-1.44 3.43-1.44 1.36 0 2.51 0.48 3.47 1.44 0.96 0.93 1.43 2.08 1.43 3.43s-0.48 2.51-1.43 3.47c-0.93 0.96-2.08 1.43-3.43 1.43-1.36 0-2.51-0.47-3.47-1.43-0.95-0.95-1.43-2.12-1.43-3.5m8.64 45.75h-7.5v-32.47h7.5z"/><path class="st0" d="m193.57 47.65h-23.27c0.2 2.67 1.07 4.79 2.6 6.36 1.53 1.56 3.5 2.33 5.9 2.33 1.87 0 3.41-0.44 4.63-1.33 1.2-0.89 2.57-2.53 4.1-4.93l6.33 3.53c-0.98 1.67-2.01 3.1-3.1 4.28-1.09 1.19-2.25 2.17-3.5 2.93-1.25 0.77-2.59 1.33-4.03 1.69-1.45 0.35-3.01 0.53-4.7 0.53-4.84 0-8.73-1.56-11.67-4.67-2.93-3.14-4.4-7.29-4.4-12.47 0-5.13 1.42-9.29 4.26-12.47 2.87-3.13 6.67-4.7 11.4-4.7 4.78 0 8.56 1.52 11.33 4.57 2.76 3.03 4.14 7.21 4.14 12.57zm-7.7-6.13c-1.04-4-3.57-6-7.57-6-0.91 0-1.76 0.14-2.57 0.42s-1.53 0.68-2.18 1.2c-0.66 0.52-1.22 1.15-1.68 1.88-0.47 0.73-0.82 1.57-1.07 2.5z"/><path class="st0" d="m201.18 29.65h7.5v3c1.44-1.51 2.68-2.53 3.7-3.07 1.09-0.56 2.46-0.84 4.1-0.84 3.67 0 6.57 1.6 8.7 4.8 2.36-3.2 5.55-4.8 9.57-4.8 7.31 0 10.96 4.44 10.96 13.3v20.07h-7.53v-18.03c0-3.11-0.38-5.31-1.13-6.6-0.78-1.31-2.06-1.97-3.84-1.97-2.07 0-3.57 0.78-4.52 2.34s-1.42 4.05-1.42 7.5v16.77h-7.54v-17.94c0-5.78-1.67-8.67-5-8.67-2.11 0-3.65 0.79-4.62 2.37s-1.45 4.07-1.45 7.47v16.77h-7.5v-32.47z"/><path class="st0" d="m252.91 16.37c0-1.31 0.48-2.44 1.43-3.4s2.1-1.44 3.43-1.44c1.36 0 2.51 0.48 3.47 1.44 0.96 0.93 1.43 2.08 1.43 3.43s-0.48 2.51-1.43 3.47c-0.93 0.96-2.08 1.43-3.43 1.43-1.36 0-2.51-0.47-3.47-1.43-0.96-0.95-1.43-2.12-1.43-3.5m8.63 45.75h-7.5v-32.47h7.5z"/><polygon class="st0" points="272.83 62.13 272.83 36.67 269.59 36.67 269.59 29.67 272.83 29.67 272.83 17.77 280.33 17.77 280.33 29.67 286.24 29.67 286.24 36.67 280.33 36.67 280.33 62.13"/><path class="st0" d="m310.37 35.18-6.2 3.3c-0.98-2-2.19-3-3.63-3-0.69 0-1.28 0.23-1.77 0.68-0.49 0.46-0.73 1.04-0.73 1.75 0 1.25 1.45 2.48 4.33 3.7 3.98 1.71 6.66 3.29 8.04 4.73 1.38 1.45 2.06 3.39 2.06 5.84 0 3.13-1.16 5.76-3.47 7.86-2.24 2-4.96 3-8.13 3-5.44 0-9.3-2.66-11.57-7.97l6.4-2.97c0.89 1.56 1.57 2.55 2.03 2.97 0.91 0.85 2 1.27 3.27 1.27 2.53 0 3.8-1.16 3.8-3.47 0-1.33-0.98-2.58-2.94-3.73-0.76-0.38-1.51-0.74-2.27-1.1-0.76-0.35-1.52-0.72-2.3-1.1-2.18-1.06-3.71-2.13-4.6-3.2-1.13-1.36-1.7-3.1-1.7-5.24 0-2.82 0.97-5.15 2.9-7 1.98-1.84 4.38-2.77 7.2-2.77 4.17 0.02 7.25 2.16 9.28 6.45"/><path class="st0" d="m325.69 29.65v18.64c0 5.38 2.12 8.06 6.37 8.06 4.24 0 6.37-2.69 6.37-8.06v-18.64h7.5v18.8c0 2.6-0.32 4.84-0.97 6.73-0.62 1.69-1.7 3.21-3.23 4.57-2.53 2.2-5.76 3.3-9.67 3.3-3.89 0-7.1-1.1-9.63-3.3-1.55-1.36-2.66-2.88-3.3-4.57-0.62-1.51-0.93-3.75-0.93-6.73v-18.8z"/><path class="st0" d="m148.19 12.83h7.54v49.29h-7.54v-3.4c-2.96 2.89-6.3 4.34-10.03 4.34-4.45 0-8.14-1.62-11.07-4.87-2.92-3.31-4.37-7.45-4.37-12.41 0-4.84 1.46-8.89 4.37-12.14 2.89-3.27 6.52-4.9 10.9-4.9 3.8 0 7.21 1.55 10.2 4.67zm-17.8 32.95c0 3.11 0.83 5.65 2.5 7.6 1.71 1.98 3.87 2.97 6.47 2.97 2.78 0 5.02-0.96 6.74-2.87 1.71-1.98 2.57-4.49 2.57-7.54 0-3.04-0.86-5.56-2.57-7.54-1.71-1.93-3.93-2.9-6.67-2.9-2.58 0-4.74 0.98-6.47 2.94-1.72 1.98-2.57 4.42-2.57 7.34"/></g></svg>
