<?xml version="1.0" encoding="UTF-8" standalone="no"?>
<svg
   xmlns:dc="http://purl.org/dc/elements/1.1/"
   xmlns:cc="http://creativecommons.org/ns#"
   xmlns:rdf="http://www.w3.org/1999/02/22-rdf-syntax-ns#"
   xmlns:svg="http://www.w3.org/2000/svg"
   xmlns="http://www.w3.org/2000/svg"
   xml:space="preserve"
   enable-background="new 30.5 31.5 412 533"
   viewBox="30.5 31.5 420 500"
   height="500"
   width="420"
   y="0"
   x="0"
   version="1.1"
   id="svg2"><metadata
     id="metadata4"><rdf:RDF><cc:Work
         rdf:about=""><dc:format>
          
          
          
          
          image/svg+xml
        
        
        
        
        </dc:format><dc:type
           rdf:resource="http://purl.org/dc/dcmitype/StillImage" /><dc:title></dc:title></cc:Work></rdf:RDF></metadata><defs
     id="defs6" /><path
     style="fill:#000000;fill-opacity:1;fill-rule:evenodd"
     d="m 41,32.7 c -2.09,102.46 3.38,187.49 43.93,296.59 28.05,75.48 74.21,144.77 155.57,201.59 C 321.86,474.06 368.02,404.77 396.07,329.29 436.62,220.19 442.09,135.16 440,32.7 c -133,0.29 -266,0 -399,0 z"
     id="path4218" /><path
     style="fill:none;stroke:#000000"
     id="path4224"
     d="m 41,32.7 c -2.09,102.46 3.38,187.49 43.93,296.59 28.05,75.48 74.21,144.77 155.57,201.59 C 321.86,474.06 368.02,404.77 396.07,329.29 436.62,220.19 442.09,135.16 440,32.7 c -133,0.29 -266,0 -399,0 z" /><path
     style="fill:#ffe000;fill-opacity:1;fill-rule:evenodd;stroke:#020000;stroke-width:0.5;stroke-linecap:round;stroke-linejoin:round;stroke-miterlimit:4;stroke-dasharray:none;stroke-opacity:1"
     d="m 173.35794,151.25096 c 5.00544,2.25071 17.23534,8.25414 28.6843,14.25158 10.93844,5.73001 21.36082,11.29192 26.74599,20.39236 9.25618,15.64209 7.49244,39.35772 7.46177,62.35908 h -1.56586 c -3.84031,-16.03388 -11.38043,-23.7071 -27.74824,-31.44603 -29.4357,-13.91761 -39.64064,-19.87556 -33.57796,-65.55699 z"
     id="path937" /><path
     id="path961"
     d="m 161.73497,210.3402 c 5.93047,2.66668 20.42059,9.77952 33.98541,16.88538 12.95994,6.78898 25.30844,13.37871 31.68891,24.16102 10.96677,18.53292 8.87708,46.63132 8.84071,73.88351 h -1.85521 c -4.55007,-18.99706 -13.48362,-28.08834 -32.87637,-37.25746 -34.87564,-16.48974 -46.9665,-23.54877 -39.78345,-77.67245 z"
     style="fill:#ffe000;fill-opacity:1;fill-rule:evenodd;stroke:#020000;stroke-width:0.5;stroke-linecap:round;stroke-linejoin:round;stroke-miterlimit:4;stroke-dasharray:none;stroke-opacity:1" /><path
     style="fill:#ffe000;fill-opacity:1;fill-rule:evenodd;stroke:#020000;stroke-width:0.5;stroke-linecap:round;stroke-linejoin:round;stroke-miterlimit:4;stroke-dasharray:none;stroke-opacity:1"
     d="m 155.27777,280.32836 c 6.44437,2.89776 22.19017,10.62694 36.93047,18.34859 14.08298,7.3773 27.50155,14.53804 34.43498,26.25473 11.91709,20.13893 9.64632,50.67221 9.60678,80.28597 h -2.01596 c -4.94438,-20.64327 -14.65205,-30.52236 -35.72533,-40.48604 -37.89784,-17.91869 -51.03642,-25.58944 -43.23094,-84.40325 z"
     id="path963" /><path
     style="fill:#ffe000;fill-opacity:1;fill-rule:evenodd;stroke:#020000;stroke-width:0.5;stroke-linecap:butt;stroke-linejoin:miter;stroke-miterlimit:4;stroke-dasharray:none;stroke-opacity:1"
     d="m 262.29903,142.45673 c 0.0828,-19.08591 -14.60588,-36.50147 -21.79903,-55.963277 -7.19315,19.461807 -21.88183,36.877367 -21.79903,55.963277 0.0851,19.60254 10.73898,27.218 21.79903,41.83921 11.06005,-14.62121 21.71397,-22.23667 21.79903,-41.83921 z"
     id="path1098" /><path
     id="path1110"
     d="m 307.64206,151.25096 c -5.00544,2.25071 -17.23534,8.25414 -28.6843,14.25158 -10.93844,5.73001 -21.36082,11.29192 -26.74599,20.39236 -9.25618,15.64209 -7.49244,39.35772 -7.46177,62.35908 h 1.56586 c 3.84031,-16.03388 11.38043,-23.7071 27.74824,-31.44603 29.4357,-13.91761 39.64064,-19.87556 33.57796,-65.55699 z"
     style="fill:#ffe000;fill-opacity:1;fill-rule:evenodd;stroke:#020000;stroke-width:0.5;stroke-linecap:round;stroke-linejoin:round;stroke-miterlimit:4;stroke-dasharray:none;stroke-opacity:1" /><path
     style="fill:#ffe000;fill-opacity:1;fill-rule:evenodd;stroke:#020000;stroke-width:0.5;stroke-linecap:round;stroke-linejoin:round;stroke-miterlimit:4;stroke-dasharray:none;stroke-opacity:1"
     d="m 319.26503,210.3402 c -5.93047,2.66668 -20.42059,9.77952 -33.98541,16.88538 -12.95994,6.78898 -25.30844,13.37871 -31.68891,24.16102 -10.96677,18.53292 -8.87708,46.63132 -8.84071,73.88351 h 1.85521 c 4.55007,-18.99706 13.48362,-28.08834 32.87637,-37.25746 34.87564,-16.48974 46.9665,-23.54877 39.78345,-77.67245 z"
     id="path1112" /><path
     id="path1114"
     d="m 325.72223,280.32836 c -6.44437,2.89776 -22.19017,10.62694 -36.93047,18.34859 -14.08298,7.3773 -27.50155,14.53804 -34.43498,26.25473 -11.91709,20.13893 -9.64632,50.67221 -9.60678,80.28597 h 2.01596 c 4.94438,-20.64327 14.65205,-30.52236 35.72533,-40.48604 37.89784,-17.91869 51.03642,-25.58944 43.23094,-84.40325 z"
     style="fill:#ffe000;fill-opacity:1;fill-rule:evenodd;stroke:#020000;stroke-width:0.5;stroke-linecap:round;stroke-linejoin:round;stroke-miterlimit:4;stroke-dasharray:none;stroke-opacity:1" /></svg>