<?xml version="1.0" encoding="utf-8"?>
<!-- Generator: Adobe Illustrator 27.2.0, SVG Export Plug-In . SVG Version: 6.00 Build 0)  -->
<svg version="1.1" id="레이어_1" xmlns="http://www.w3.org/2000/svg" xmlns:xlink="http://www.w3.org/1999/xlink" x="0px"
	 y="0px" viewBox="0 0 720 209.191" enable-background="new 0 0 720 209.191" xml:space="preserve">
<path fill="#FFFFFF" d="M52.542,2.606c-5.832,2.912-10.177,7.922-12.231,14.108L1.265,134.066
	c-2.069,6.167-1.587,12.802,1.351,18.659c2.916,5.793,7.932,10.148,14.096,12.209l128.052,42.993
	c6.209,2.06,12.837,1.591,18.661-1.333c5.832-2.945,10.186-7.93,12.214-14.132l39.063-117.318
	c4.278-12.779-2.678-26.645-15.456-30.902L71.206,1.263C64.985-0.788,58.4-0.341,52.542,2.606"/>
<path fill="#0099DA" d="M115.135,115.311c-6.955,7.759-15.627,14.021-25.68,17.904l-5.778,2.238V81.081l5.708,2.213
	c10.067,3.843,18.761,10.105,25.75,17.83c4.975-8.007,8.066-17.295,8.698-27.398c1.582-26.067-14.743-49.985-37.169-58.31
	L68.166,9.261c-8.349-2.782-17.235,1.824-19.99,10.148L9.017,136.827c-2.78,8.358,1.903,17.426,10.262,20.173l88.867,29.671
	c9.06-9.633,14.938-22.399,15.795-36.637C124.727,137.328,121.415,125.348,115.135,115.311 M63.768,138.802h-8.823V77.841h8.823
	V138.802z"/>
<path fill="#F15C21" d="M110.009,108.218c-4.962-5.817-10.96-10.705-17.885-14.284v28.654
	C99.049,119,105.08,114.054,110.009,108.218"/>
<path fill="#0055A2" d="M196.406,52.077l-81.554-27.256c10.954,11.992,17.656,27.923,17.688,45.37
	c0.017,13.793-4.283,26.985-11.766,38.027c7.511,11.009,11.836,24.192,11.874,37.983c0.005,16.475-5.915,31.653-15.772,43.404
	l30.626,10.222c8.376,2.785,17.218-1.82,20.003-10.169l39.179-117.407C209.457,63.907,204.769,54.849,196.406,52.077 M174.8,138.607
	l-11.017,0.03l-22.663-30.485l23.02-30.477l11.112-0.044l-23.073,30.565L174.8,138.607z"/>
<path fill="#0055A2" d="M427.571,71.549c3.342,0,6.046,0.703,8.536,1.437c-0.032,0.162-0.534,5.301-0.568,5.639
	c-1.788-0.956-5.717-1.845-7.22-1.845c-3.157,0-6.517,1.29-6.517,4.886c0,3.523,2.728,5.03,6.571,6.781l0.193,0.081
	c4.39,1.991,10.411,4.719,10.411,11.266c0,7.349-7.31,11.306-14.183,11.306c-2.991,0-6.841-0.231-10.267-2.009
	c0.019-0.158,0.347-5.429,0.359-5.784c2.878,1.747,6.71,2.56,8.577,2.56c3.336,0,6.95-1.512,6.95-5.701
	c0-3.078-3.546-5.184-6.637-6.689c-5.116-2.494-10.373-5.79-10.373-11.295C413.402,75.713,418.954,71.549,427.571,71.549z
	 M536.862,71.549c10.792,0,16.478,5.38,16.478,15.571c0,0,0,22.827,0,23.079c-0.219,0-6.94,0-7.19,0c0-0.225,0-5.61,0-5.61
	l-0.681,0.918c-1.218,1.685-4.82,5.594-11.528,5.594c-9.147,0-14.385-4.253-14.385-11.678c0-9.793,11.864-12.388,18.138-12.388
	c2.564,0,4.605,0,7.306,0.145l0.396,0.023v-0.387c-0.046-7.119-2.848-10.035-9.67-10.035c-3.85,0-7.996,1.427-10.874,3.707
	c-0.025-0.367-0.341-5.309-0.341-5.44C528.44,72.723,532.598,71.549,536.862,71.549z M534.551,105.867
	c6.677,0,10.846-3.957,10.846-10.272v-3.592l-4.704-0.158c-4.057,0-13.496,0.742-13.496,7.578
	C527.197,103.388,531.015,105.867,534.551,105.867z M323.633,148.248c10.802,0,16.497,5.375,16.497,15.587c0,0,0,22.831,0,23.064
	c-0.24,0-6.972,0-7.224,0c0-0.223,0-5.608,0-5.608l-0.663,0.919c-1.224,1.7-4.813,5.608-11.536,5.608
	c-9.151,0-14.389-4.268-14.389-11.698c0-9.782,11.881-12.363,18.133-12.363c2.574,0,4.605,0,7.308,0.147l0.404,0.01v-0.395
	c-0.027-7.104-2.848-10.019-9.664-10.019c-3.854,0-8.003,1.422-10.879,3.692c-0.025-0.408-0.341-5.303-0.351-5.45
	C315.198,149.436,319.365,148.248,323.633,148.248z M321.321,182.562c6.698,0,10.854-3.938,10.854-10.266v-3.585l-4.714-0.158
	c-4.058,0-13.485,0.749-13.485,7.567C313.976,180.109,317.776,182.562,321.321,182.562z M703.512,148.248
	c10.792,0,16.488,5.375,16.488,15.587c0,0,0,22.831,0,23.064c-0.229,0-6.95,0-7.211,0c0-0.223,0-5.608,0-5.608l-0.667,0.919
	c-1.229,1.7-4.813,5.608-11.522,5.608c-9.144,0-14.403-4.268-14.403-11.698c0-9.782,11.859-12.363,18.135-12.363
	c2.575,0,4.615,0,7.312,0.147l0.393,0.01v-0.395c-0.044-7.104-2.836-10.019-9.66-10.019c-3.85,0-8.005,1.422-10.873,3.692
	c-0.015-0.378-0.332-5.303-0.351-5.45C695.11,149.436,699.269,148.248,703.512,148.248z M701.177,182.562
	c6.702,0,10.878-3.938,10.878-10.266v-3.585l-4.731-0.158c-4.051,0-13.478,0.749-13.478,7.567
	C693.846,180.109,697.664,182.562,701.177,182.562z M462.372,148.248c11.541,0,19.934,8.307,19.934,19.78
	c0,11.092-8.763,19.789-19.934,19.789c-11.241,0-20.022-8.697-20.022-19.789C442.35,156.555,450.773,148.248,462.372,148.248z
	 M462.372,182.562c8.248,0,12.024-7.533,12.024-14.534c0-7.04-4.201-14.529-12.024-14.529c-7.882,0-12.102,7.489-12.102,14.529
	C450.27,175.029,454.057,182.562,462.372,182.562z M593.452,148.248c11.551,0,19.934,8.307,19.934,19.78
	c0,11.092-8.753,19.789-19.934,19.789c-11.231,0-20.012-8.697-20.012-19.789C573.44,156.555,581.852,148.248,593.452,148.248z
	 M593.452,182.562c8.258,0,12.034-7.533,12.034-14.534c0-7.04-4.201-14.529-12.034-14.529c-7.857,0-12.111,7.489-12.111,14.529
	C581.341,175.029,585.143,182.562,593.452,182.562z M664.048,148.248c11.021,0,16.879,7.316,16.936,21.131
	c-0.254,0-27.553,0-27.553,0v0.372c0.069,7.194,5.696,12.811,12.798,12.811c4.596,0,9.908-2.268,11.837-3.635
	c0,0.436,0,6.315,0,6.483c-0.193,0.065-0.884,0.316-0.884,0.316c-2.65,1.012-5.922,2.091-11.25,2.091
	c-12.904,0-20.599-7.661-20.599-20.458C645.332,156.284,653.202,148.248,664.048,148.248z M653.398,164.588h20.23v-0.391
	c-0.067-5.308-3.089-10.697-9.734-10.697c-6.807,0-9.853,5.507-10.455,10.661l-0.027,0.288L653.398,164.588z M265.115,58.882
	c0,0.249,0,51.064,0,51.316c0.215,0,7.517,0,7.748,0c0-0.252,0-51.067,0-51.316C272.632,58.882,265.33,58.882,265.115,58.882z
	 M265.115,135.584c0.241,0,8.419,0.027,8.419,0.027h6.453c12.037,0,18.398,4.447,18.398,12.826c0,6.29-3.288,10.213-10.061,12.003
	l-0.197,0.046l0.053,0.652l0.199,0.027c7.395,0.772,12.548,5.77,12.548,12.173c0,8.745-7.519,13.562-21.171,13.562
	c0,0-14.4,0-14.641,0C265.115,186.666,265.115,135.833,265.115,135.584z M273.177,157.691h4.289c7.265,0,13.805-0.642,13.805-8.511
	c0-7.16-7.063-7.937-10.094-7.937h-8v16.341V157.691z M273.177,181.282h5.763c9.112,0,13.519-2.823,13.519-8.606
	c0-8.378-8.129-9.333-14.263-9.333h-5.019v17.813V181.282z M562.068,58.882c0,0.249,0,51.064,0,51.316c0.229,0,7.518,0,7.747,0
	c0-0.252,0-51.067,0-51.316C569.586,58.882,562.296,58.882,562.068,58.882z M492.014,147.221v1.933c0,0-8.354,0-8.581,0
	c0,0.229,0,5.006,0,5.242c0.227,0,8.581,0,8.581,0s0,32.27,0,32.503c0.252,0,7.529,0,7.735,0c0-0.233,0-32.503,0-32.503
	s9.138,0,9.374,0c0-0.237,0-5.014,0-5.242c-0.237,0-9.374,0-9.374,0v-2.527c0-4.94,0.541-9.03,6.942-9.03
	c1.159,0,1.824,0.136,2.524,0.37c0.008-0.288,0.271-5.236,0.271-5.456c-1.801-0.273-3.458-0.425-4.876-0.425
	C493.535,132.086,492.014,139.358,492.014,147.221z M393.89,135.584c0,0.249,0,51.082,0,51.315c0.251,0,7.518,0,7.758,0
	c0-0.233,0-19.978,0-19.978s17.315,19.908,17.395,19.978c0.118,0,9.033,0,9.554,0c-0.345-0.379-19.224-22.134-19.224-22.134
	s15.026-15.205,15.404-15.611c-0.542,0-7.198,0-7.304,0c-0.08,0.063-15.825,15.815-15.825,15.815s0-29.135,0-29.385
	C401.408,135.584,394.142,135.584,393.89,135.584z M504.806,72.433c0,0.246,0,37.513,0,37.765c0.215,0,7.482,0,7.726,0
	c0-0.252,0-37.519,0-37.765C512.288,72.433,505.021,72.433,504.806,72.433z M504.806,58.882c0,0.234,0,7.266,0,7.495
	c0.215,0,7.482,0,7.726,0c0-0.229,0-7.26,0-7.495C512.288,58.882,505.021,58.882,504.806,58.882z M493.186,71.549L493.186,71.549
	c-3.723,0.049-7.541,2.527-9.483,6.16v-0.027c-0.01,0.072-0.118,0.234-0.461,0.889l-0.25,0.436c0,0,0-6.341,0-6.574
	c-0.227,0-7.211,0-7.462,0c0,0.246,0,37.513,0,37.765c0.252,0,7.518,0,7.77,0c0-0.252,0-17.16,0-17.16
	c0-9.289,4.056-15.356,10.592-15.81c1.63-0.09,3.361,0.373,4.173,0.617c0-0.298,0-5.655,0-5.847
	C497.549,71.859,495.893,71.495,493.186,71.549z M637.434,148.248L637.434,148.248c-3.709,0.053-7.506,2.541-9.462,6.17v-0.023
	c-0.03,0.053-0.118,0.225-0.488,0.884l-0.208,0.44c0,0,0-6.338,0-6.567c-0.244,0-7.224,0-7.474,0c0,0.238,0,37.513,0,37.745
	c0.25,0,7.516,0,7.754,0c0-0.233,0-17.148,0-17.148c0-9.29,4.049-15.355,10.598-15.804c1.635-0.116,3.374,0.37,4.166,0.599
	c0-0.282,0-5.646,0-5.831C641.788,148.561,640.175,148.208,637.434,148.248z M451.002,62.989c0,0.256,0,9.444,0,9.444
	s-8.379,0-8.619,0c0,0.233,0,5.014,0,5.249c0.24,0,8.619,0,8.619,0v22.55c0,7.309,3.576,10.868,10.922,10.868
	c2.346,0,5.695-0.654,7.005-1.001c0-0.179,0-5.481,0-5.847c-0.821,0.398-2.282,0.969-4.005,0.969c-1.832,0-6.119-0.616-6.119-6.413
	l-0.057-21.126c0,0,9.351,0,9.578,0c0-0.235,0-5.016,0-5.249c-0.227,0-9.578,0-9.578,0s0-9.188,0-9.444
	C458.496,62.989,451.231,62.989,451.002,62.989z M361.998,58.882c0,0.249,0,51.064,0,51.316c-0.252,0-7.533,0-7.76,0
	c0-0.234,0-6.121,0-6.121l-0.665,1.01c-2.009,2.89-6.403,6.013-12.722,6.013c-11.654,0-16.957-10.608-16.957-20.451
	c0-9.207,5.324-19.1,17.022-19.1c5.814,0,10.178,2.009,12.645,5.85l0.677,1.081c0,0,0-19.348,0-19.597
	C354.465,58.882,361.746,58.882,361.998,58.882z M331.706,91.163v0.404c0,3.485,1.069,8.318,4.136,11.464
	c1.835,1.875,4.056,2.836,6.644,2.836c7.878,0,11.435-7.497,11.435-14.474c0-7.029-3.578-14.613-11.5-14.613
	c-2.829,0-5.158,0.956-6.984,2.805c-2.375,2.451-3.732,6.476-3.732,11.071V91.163z M290.453,77.834l-0.691,0.939c0,0,0-6.107,0-6.34
	c-0.229,0-7.494,0-7.735,0c0,0.246,0,37.513,0,37.765c0.241,0,7.506,0,7.735,0c0-0.252,0-17.458,0-17.458
	c0-10.284,4.215-15.96,11.827-15.96c5.983,0.367,8.336,4.269,8.336,13.869c0,0,0,19.298,0,19.549c0.222,0,7.519,0,7.74,0
	c0-0.252,0-22.482,0-22.482c0-10.579-4.921-16.168-14.263-16.168C298.108,71.549,293.243,73.9,290.453,77.834z M358.003,154.536
	L358.003,154.536l-0.686,0.949c0,0,0-6.104,0-6.332c-0.21,0-7.484,0-7.726,0c0,0.238,0,37.513,0,37.745c0.242,0,7.516,0,7.726,0
	c0-0.233,0-17.447,0-17.447c0-10.286,4.212-15.952,11.847-15.952c5.989,0.353,8.326,4.25,8.326,13.86c0,0,0,19.307,0,19.54
	c0.229,0,7.506,0,7.748,0c0-0.233,0-22.466,0-22.466c0-10.581-4.943-16.185-14.26-16.185
	C365.676,148.248,360.809,150.591,358.003,154.536z M398.461,72.433c0,0.246,0,17.474,0,17.474c0,10.284-4.222,15.959-11.848,15.959
	c-5.98-0.389-8.303-4.256-8.303-13.864c0,0,0-19.323,0-19.569c-0.229,0-7.518,0-7.758,0c0,0.246,0,22.477,0,22.477
	c0,10.596,4.944,16.19,14.262,16.19c5.303,0,10.146-2.354,12.95-6.276l0.698-0.956c0,0,0,6.096,0,6.33c0.229,0,7.509,0,7.749,0
	c0-0.252,0-37.519,0-37.765C405.97,72.433,398.69,72.433,398.461,72.433z M562.754,135.574c-0.076,0.08-19.442,23.022-19.442,23.022
	h-0.72c0,0,0-22.78,0-23.022c-0.238,0-8.49,0-8.728,0c0,0.242,0,51.092,0,51.325c0.238,0,8.49,0,8.728,0c0-0.233,0-25.264,0-25.264
	h0.72c0,0,19.968,25.182,20.053,25.264c0.101,0,9.809,0,10.324,0c-0.326-0.377-22.954-27.932-22.954-27.932
	s20.219-22.996,20.579-23.392C570.785,135.574,562.866,135.574,562.754,135.574z"/>
<g>
</g>
<g>
</g>
<g>
</g>
<g>
</g>
<g>
</g>
<g>
</g>
<g>
</g>
<g>
</g>
<g>
</g>
<g>
</g>
<g>
</g>
<g>
</g>
<g>
</g>
<g>
</g>
<g>
</g>
</svg>
