<?xml version="1.0" encoding="UTF-8" standalone="no"?>
<!-- Generator: Adobe Illustrator 16.0.3, SVG Export Plug-In . SVG Version: 6.00 Build 0)  -->

<svg
   version="1.1"
   id="Capa_1"
   x="0px"
   y="0px"
   width="2299.8362"
   height="719.99976"
   viewBox="0 0 2299.8361 719.99974"
   enable-background="new 0 0 595.28 841.89"
   xml:space="preserve"
   sodipodi:docname="Logo del ISSSTE.svg"
   inkscape:version="1.1 (c68e22c387, 2021-05-23)"
   xmlns:inkscape="http://www.inkscape.org/namespaces/inkscape"
   xmlns:sodipodi="http://sodipodi.sourceforge.net/DTD/sodipodi-0.dtd"
   xmlns:xlink="http://www.w3.org/1999/xlink"
   xmlns="http://www.w3.org/2000/svg"
   xmlns:svg="http://www.w3.org/2000/svg"><defs
   id="defs261"><linearGradient
   inkscape:collect="always"
   id="linearGradient2646"><stop
     style="stop-color:#bb945b;stop-opacity:1"
     offset="0"
     id="stop2642" /><stop
     style="stop-color:#e4d1a9;stop-opacity:1"
     offset="1"
     id="stop2644" /></linearGradient><linearGradient
   inkscape:collect="always"
   xlink:href="#linearGradient2646"
   id="linearGradient2648"
   x1="75.616196"
   y1="528.55432"
   x2="75.054558"
   y2="376.15021"
   gradientUnits="userSpaceOnUse"
   gradientTransform="matrix(3.4052484,0,0,3.4052484,125.03804,-1078.0393)" />
	

		
		
		
		
		
		
		
		
		
		
		
		
		
		
		
		
		
		
		
		
		
		
		
		
		
		
		
		
		
		
		
		
		
		
		
		
		
		
		
		
		
		
		
		
		
		
		
		
		
		
		
		
		
		
		
		
		
		
		
		
		
		
		
		
		
		
		
		
		
		
		
		
		
		
		
		
		
		
		
		
		
		
		
		
		
		
		
		
		
		
		
		
		
		
		
		
		
		
		
		
		
		
		
		
		
		
		
		
		
		
		
		
		
		
		
		
		
		
		
		
		
		
		
		
		
		
	</defs><sodipodi:namedview
   id="namedview259"
   pagecolor="#ffffff"
   bordercolor="#666666"
   borderopacity="1.0"
   inkscape:pageshadow="2"
   inkscape:pageopacity="0.0"
   inkscape:pagecheckerboard="0"
   showgrid="false"
   fit-margin-top="0"
   fit-margin-left="0"
   fit-margin-right="0"
   fit-margin-bottom="0"
   inkscape:zoom="0.34940006"
   inkscape:cx="1358.0421"
   inkscape:cy="442.18653"
   inkscape:window-width="1920"
   inkscape:window-height="1017"
   inkscape:window-x="1912"
   inkscape:window-y="-8"
   inkscape:window-maximized="1"
   inkscape:current-layer="Capa_1" />
<path
   id="path4"
   style="fill:url(#linearGradient2648);fill-opacity:1;stroke-width:3.40525"
   d="m 334.93968,0.00111707 c -7.63755,0.0446 -15.27584,1.02334003 -22.91892,2.69362003 -10.36898,2.26789 -20.27299,5.95847 -27.88712,13.5078999 -17.45531,17.31228 -22.9077,38.5245 -18.5626,62.39188 1.815,9.98079 5.08404,19.65186 6.38484,29.789283 1.00795,7.8457 0.42055,9.41347 -6.59767,12.57014 -13.25322,5.95918 -25.43034,13.67687 -35.61544,24.06288 -10.84231,11.05344 -18.46996,24.1 -21.85477,39.39978 -4.56304,18.48369 -5.6532,37.33988 -5.93923,56.27306 -1.65496,0.19069 -2.40666,-1.12826 -3.29884,-2.08173 -3.05451,-3.27926 -6.05895,-6.60234 -9.03854,-9.9497 -12.63347,-14.19648 -25.27407,-28.38829 -37.87009,-42.61883 -9.71176,-10.97171 -19.62204,-21.79284 -28.61871,-33.37409 -7.33491,-9.44275 -15.89724,-17.18628 -27.887122,-20.00583 -13.733366,-3.22818 -26.662083,-2.24276 -36.506656,9.31124 -2.587988,3.03408 -4.30833,3.15377 -7.774873,1.82232 -18.112516,-6.9433 -36.260256,3.45953 -37.550845,22.00111 -1.195242,17.17266 -2.670195,34.3093 -4.2366094,51.44451 -1.283779,14.03644 -2.172548,28.10679 -3.405248,42.14663 -1.685598,19.17836 -2.999013,38.37412 -4.156797,57.58993 -0.391604,6.51424 -0.372129,13.03638 -0.81140603,19.5336 -1.16119,17.11818 -1.765356,34.18082 3.46510603,50.8393 3.289469,10.47114 6.6270394,20.93638 11.3330924,30.89333 h 0.0068 c 1.133948,5.33602 3.791584,10.108 5.753007,15.13074 10.76399,27.55527 22.590366,54.66374 34.76413,81.61288 4.682216,10.36557 8.54515,21.18112 15.12409,30.62728 1.811592,3.5074 4.06161,6.68811 6.704083,9.64376 13.178308,14.74817 30.299418,23.60573 47.693428,32.04393 19.335,9.37465 39.32599,17.25344 58.93341,26.00493 17.24758,7.69586 34.45031,15.49123 51.67065,23.23817 18.59947,9.72539 37.49104,18.85939 55.93386,28.89806 30.1024,16.37924 59.72545,33.51888 87.6519,53.44638 2.09082,1.495 3.68426,1.4638 5.82616,0.021 19.64488,-13.226 39.43517,-26.2043 59.91774,-38.12951 14.0773,-8.19643 28.30806,-16.10938 42.69864,-23.73032 8.5863,-4.54849 17.23158,-8.99411 25.85196,-13.48131 l 0.007,0.007 c 0.40182,-0.0409 0.85663,0.034 1.19715,-0.13315 26.48262,-13.01826 53.00627,-25.9423 80.0167,-37.83683 8.59825,-3.78324 16.8616,-8.37031 25.87188,-11.20007 v -0.007 c 15.88889,-7.01141 32.41143,-12.55321 47.94617,-20.37166 17.76518,-8.93878 29.28473,-23.13141 34.63778,-42.29955 0.0204,-2.2032 0.24552,-4.32314 2.25465,-5.73972 0.0783,-0.51419 0.158,-1.02879 0.23292,-1.54299 0.50057,-1.09649 1.06073,-2.16522 1.48979,-3.28555 8.42459,-22.02515 17.46488,-43.78659 27.69424,-65.04556 6.86839,-14.2748 14.82591,-28.01732 20.73742,-42.75183 0,-1.59366 -0.26186,-3.28685 1.54302,-4.22329 0.2588,-0.54484 0.50946,-1.09452 0.76485,-1.64276 h 0.007 c 6.63683,-16.44395 9.68831,-33.76182 9.49081,-51.2716 -0.20091,-17.78221 -0.27515,-35.59401 -1.02424,-53.39324 -0.87855,-20.77542 -1.10915,-41.58612 -1.74253,-62.37857 -0.59932,-19.58358 -0.6028,-39.17673 -0.99099,-58.76713 -0.126,-6.48018 -1.86353,-12.61545 -5.21429,-18.20347 -6.8752,-11.46206 -19.23138,-16.14714 -31.13272,-11.37298 -5.02615,2.0125 -8.71999,0.97155 -12.66327,-2.31451 -10.73334,-8.94219 -23.19029,-11.52932 -36.72615,-8.83237 -11.80599,2.35303 -20.9815,9.43584 -29.29712,17.59822 -23.90144,23.46217 -47.6475,47.08145 -71.45699,70.63895 -0.67765,0.67084 -1.29171,1.45496 -2.08173,1.94872 -0.99434,0.61635 -0.96301,-0.40576 -1.16392,-0.97104 1.92397,-8.06362 3.07447,-16.20939 2.57389,-24.52841 0.45631,-13.41327 -2.48293,-26.18786 -7.7815,-38.38886 -7.10335,-16.36222 -18.50429,-29.32658 -32.76887,-39.84539 -1.85586,-1.36891 -3.32114,-2.81764 -3.50503,-5.18769 -0.72191,-9.22482 -3.74986,-17.76828 -7.77486,-25.978343 -12.27251,-25.03538 -31.23934,-43.88902 -54.64358,-58.50775 -4.74014,-2.95916 -10.03338,-4.52312 -15.82911,-4.6423 -12.60282,-0.2554 -23.79486,3.6161 -33.95272,10.79436 -11.30883,7.99212 -18.83139,18.58414 -20.1322,32.56269 -1.46085,15.68798 1.27952,30.903553 7.5554,45.365643 5.49266,12.64709 14.79649,21.63599 27.35505,27.28189 3.25882,1.46426 6.18425,1.19637 8.07416,-2.17483 2.336,-4.16462 1.08244,-9.06136 -2.81997,-11.91837 -1.63452,-1.19524 -3.31017,-2.25972 -4.52925,-4.03045 -7.84228,-11.37353 -10.07937,-24.22483 -9.37108,-37.604053 0.36777,-6.99438 5.37609,-12.30252 10.67465,-12.79628 6.18053,-0.57889 11.88267,0.92303 16.95309,4.54253 6.50402,4.6482 11.63909,10.62332 16.03526,17.212483 11.35991,17.01943 19.83442,35.63092 29.27717,53.69916 5.04658,9.65729 11.96635,16.9955 21.69515,21.85479 5.28154,2.63906 9.74694,6.30042 13.28847,11.18014 4.00794,5.52672 5.71829,11.94459 7.90787,18.20344 0.80023,5.63228 2.03188,11.24035 2.31451,16.89987 1.11692,22.30778 -0.62118,44.54596 -2.49407,66.74818 -1.33826,15.80716 -3.50417,31.55017 -4.67558,47.36755 -0.66402,8.97623 -2.71187,16.38711 -12.29083,19.39394 -18.64714,10.38261 -37.54041,20.28837 -56.57235,29.94225 -10.65495,5.40754 -21.19421,11.0471 -31.78453,16.58063 -7.08292,2.99662 -13.91853,6.44631 -20.37828,10.63476 h -0.007 c -0.62316,0.26902 -1.22856,0.61128 -1.87555,0.77814 -2.24406,0.57889 -4.45731,2.70482 -6.81715,0.66508 -2.23384,-1.93415 -1.93876,-4.51387 -1.37008,-7.15634 0.7151,-3.30309 1.06377,-6.68328 1.78908,-9.98296 1.9444,-8.823 8.11359,-14.04069 17.0728,-15.43003 5.69358,-0.88196 11.34645,-0.50973 17.01959,-0.61189 2.50967,-0.0443 3.77882,-0.83122 3.73115,-3.53158 -0.1498,-8.95022 -0.19765,-17.90269 -0.27934,-26.85624 h 0.007 c 0.0102,-10.61416 0.34276,-21.24062 -0.0931,-31.83775 -0.24177,-5.92513 -0.34845,-11.92678 -1.65606,-17.81105 -2.48583,-11.18964 -8.83487,-20.02589 -16.67375,-27.96693 -1.815,-1.83883 -2.3717,-2.86814 0.3525,-4.50266 13.05912,-7.83888 23.40501,-18.82431 33.87956,-29.6496 l -0.007,-0.007 c 7.93853,-7.82672 15.34661,-16.12698 21.38922,-25.5194 4.57666,-7.11697 3.99416,-15.17992 -0.98432,-20.7441 -5.87065,-6.5585 -14.11788,-9.27327 -22.2871,-5.0746 -7.10676,3.65043 -14.55408,6.65481 -22.27378,8.89887 -5.7072,1.65835 -5.66442,1.72581 -6.89031,-3.80431 -0.43928,-1.97845 -0.98486,-3.93143 -1.5297,-5.88604 -3.81388,-13.69251 -9.49378,-26.79583 -12.63002,-40.7233 -1.12373,-5.00571 -4.31083,-9.05888 -9.23141,-11.31315 -8.84683,-4.05225 -18.16493,-4.77368 -27.75411,-4.27652 -5.29516,0.27242 -10.71525,2.31036 -15.93549,-0.49216 -0.85131,-1.22929 -1.689,-2.4622 -2.55394,-3.67794 -1.29399,-1.81837 -0.79555,-3.2878 0.79811,-4.60904 2.71739,-2.25427 5.57113,-4.36505 8.08081,-6.83045 4.90014,-4.81502 10.89445,-8.85395 12.58346,-16.16161 0.91601,-3.967123 1.3315,-8.015383 1.41663,-12.084653 0.11578,-5.5812 -0.20826,-11.19993 0.30593,-16.74027 1.14417,-12.31678 2.10908,-24.5706 0.65844,-36.9589 C 383.33605,19.407327 372.87656,6.9568871 357.85261,2.9080471 350.21123,0.84786707 342.57789,-0.04308293 334.94034,0.00159707 Z M 333.33016,43.278377 c 10.91299,-0.30783 22.77206,4.01745 27.49472,16.8267 4.04884,10.98874 3.91731,21.85155 -1.33017,32.48954 -5.13511,10.413253 -12.40655,19.152243 -21.08993,26.769783 -1.33145,1.1646 -2.86365,2.16417 -2.98624,4.1701 -0.16192,2.64163 4.15416,8.56172 7.16964,10.13593 -0.0105,0.0204 -0.0228,0.0341 -0.0334,0.0531 -0.21793,3.36098 -1.81361,6.10983 -3.60477,8.90554 -5.28495,8.27135 -8.52627,17.20815 -8.95873,27.18213 -0.5823,13.38943 4.3303,24.8136 12.25091,35.0634 2.71058,3.5074 2.9922,6.26753 0.75155,9.85659 -3.8275,6.12948 -6.81449,12.70702 -9.62382,19.35407 -0.79533,1.8814 -2.24327,3.7107 -1.38338,5.99242 -1.29497,0.59799 -1.83934,1.81394 -2.30785,3.02617 -6.88882,17.89118 -8.59959,36.17699 -3.49171,54.78327 1.77073,6.44273 4.72233,12.42844 9.53735,17.33881 9.97738,10.17488 19.93986,10.86481 31.1261,2.04182 6.98076,-5.50629 6.97629,-5.50925 14.23287,-1.01092 6.92628,4.29742 12.24826,2.49717 15.05759,-5.15442 1.1714,-3.19072 2.1186,-6.46967 3.95062,-9.37775 3.00683,-4.77075 6.93159,-5.88335 11.83856,-3.15915 5.31218,2.94894 9.59694,7.06412 13.15543,11.99151 2.06698,2.86382 2.7823,6.01898 1.83564,9.28462 -3.75939,12.9774 -1.51805,26.23607 -2.01521,39.3599 -0.0429,1.12438 -0.31506,2.71824 1.21046,3.2323 -0.0116,0.0487 -0.0146,0.0977 -0.0266,0.14642 -6.91265,0.88877 -13.86079,0.40039 -20.79728,0.48552 -8.25433,0.0988 -11.36614,2.36454 -14.21293,10.16256 -2.08741,5.72082 -2.25054,11.73632 -2.99289,17.65805 -0.42565,3.37801 -1.52965,6.37926 -3.94397,8.7459 -3.57891,3.51081 -7.04801,2.73612 -8.83236,-1.91545 -0.88196,-2.29173 -1.35274,-4.70391 -1.38338,-7.18293 -0.0477,-3.67426 -0.30743,-7.34655 -0.38576,-11.00719 -0.22815,-10.69929 2.99487,-19.74578 12.84285,-25.59259 4.81502,-2.86041 9.60604,-5.63919 14.90461,-7.51548 6.40527,-2.2713 10.28337,-6.83587 11.93832,-13.41481 0.84791,-3.35757 0.72851,-6.74416 0.7183,-10.1426 -0.017,-5.02955 -1.1372,-7.17384 -3.83756,-7.56203 -2.51307,-0.36096 -5.07196,1.8548 -6.60432,5.71976 -0.10216,0.25539 -0.24545,0.50588 -0.27269,0.77149 -0.74234,6.95011 -5.61461,9.74197 -11.51931,11.65232 -7.12719,2.30535 -14.39117,4.11483 -21.54219,6.33165 -11.0909,3.44271 -17.41354,10.98894 -19.75975,22.26712 -1.93418,9.29974 -1.81069,18.66853 -1.45655,28.05339 0.50058,13.17831 6.22597,22.98029 18.39633,29.01779 8.40415,4.17143 16.64927,8.67535 25.21347,12.5369 1.18351,0.5319 2.37621,1.2925 3.73779,0.4988 0.0269,1.5532 -0.72607,2.65194 -1.94206,3.62472 -1.80818,1.44382 -3.63254,2.87212 -5.42711,4.33638 -5.12149,4.17824 -5.14342,4.15365 -9.44425,-0.6784 -0.72191,-0.81726 -1.48799,-1.58855 -2.27459,-2.3411 -12.01373,-11.48931 -24.57196,-22.31971 -38.32235,-31.71138 -1.06232,-0.72579 -2.07762,-1.71015 -3.54492,-1.18383 0.19567,-1.31927 -1.0187,-1.982 -1.9354,-2.6404 -3.60957,-2.58799 -7.50187,-4.73353 -11.3464,-6.94354 -1.06961,-0.61356 -2.20784,-0.78709 -3.32543,-0.26595 -0.45112,-0.24586 -0.90139,-0.49247 -1.35013,-0.73826 0.051,-1.70984 -1.68812,-2.25911 -2.94634,-2.92637 -7.90698,-4.19526 -16.04361,-7.86554 -24.3422,-11.23333 -11.29521,-4.58006 -22.86385,-8.52453 -33.7266,-14.13975 -2.37257,-1.22684 -4.47481,-3.03517 -7.22284,-3.47179 -0.6836,-1.57114 -2.27707,-2.28185 -3.56487,-3.27888 -6.77645,-5.2577 -10.9657,-11.83072 -11.45946,-20.67755 -0.2554,-4.6039 -0.50984,-9.22669 -0.89122,-13.82718 -1.20206,-14.48933 -1.86124,-28.99995 -2.18814,-43.52333 -0.37458,-16.85598 0.42582,-33.70685 2.54729,-50.44024 1.65835,-13.09318 3.85852,-26.11598 9.4908,-38.2625 0.79892,-1.72503 1.9349,-3.43657 1.63611,-5.5069 1.55239,-0.0654 2.24949,-1.5076 2.9929,-2.72021 7.26339,-11.83665 17.18745,-21.0064 28.61206,-28.68524 5.08744,-3.41886 10.32967,-6.58544 15.5431,-9.8034 9.31335,-5.74806 12.68471,-14.30368 11.48606,-24.76119 -1.09649,-9.60621 -2.7177,-19.16219 -6.37154,-28.199723 -1.31783,-3.25882 -0.55377,-5.17461 2.50073,-7.01004 14.41101,-8.65614 23.93435,-20.79439 26.01158,-37.94322 0.25539,-2.0772 1.16177,-3.20519 3.23897,-3.51166 1.49661,-0.22168 3.03676,-0.36174 4.59576,-0.4057 z m 62.17239,124.052113 c 2.9281,-0.3614 8.47205,2.16213 9.17821,4.60243 1.01817,3.53125 1.55119,7.20405 2.62044,10.70124 1.37232,4.4779 0.83514,7.67614 -2.87318,11.18014 -4.55622,4.30424 -7.28702,10.16242 -4.97485,16.69369 2.26789,6.41548 7.80323,8.47501 14.11316,9.39102 11.69703,1.69922 23.05539,0.38395 34.25866,-3.086 1.06925,-0.33372 2.1436,-1.26233 3.61808,-0.32588 -1.98186,4.96825 -4.74187,9.42913 -8.01431,13.62099 -0.94779,1.2123 -2.4659,2.28788 -2.09503,4.12355 -1.8409,-0.42736 -2.8291,1.03506 -3.95062,2.04182 -5.11128,4.60049 -11.11329,6.6922 -17.93741,6.63091 -2.58458,-0.0238 -5.17358,-0.0555 -7.76157,0.0272 -10.98874,0.36092 -17.9264,7.48446 -17.97067,18.45617 -0.0306,8.57782 -0.0102,17.15442 -0.007,25.73224 0.003,2.57777 -0.4911,4.75584 -3.65798,4.7354 -10.60054,-0.0715 -21.22534,0.7967 -31.76458,-1.27029 -4.94442,-0.9705 -8.41666,-3.58828 -10.68796,-7.98105 -6.28949,-12.14993 -5.56135,-24.07225 1.01759,-35.87484 0.96216,-1.72802 2.57656,-3.29948 2.20809,-5.54684 1.50152,-0.29149 2.1964,-1.51387 2.93968,-2.62708 6.27588,-9.40189 12.15461,-19.05291 17.39869,-29.06434 2.75826,-5.26111 4.51382,-10.94004 3.18577,-16.92647 -0.71169,-3.21455 0.55873,-3.99936 3.25228,-4.61571 9.41211,-2.15552 14.95314,-7.90028 15.86234,-17.73123 0.0851,-0.92963 5.3e-4,-1.95138 0.97103,-2.5473 0.28989,-0.17809 0.65249,-0.2874 1.07079,-0.33916 z m -291.18199,35.60879 c 4.64083,0.0732 8.62007,2.40519 9.90981,8.2205 6.01367,27.09897 11.63195,54.27616 17.32553,81.44663 0.35415,1.69241 0.0466,3.52675 0.0466,5.29407 0.0443,0.003 0.0823,0.007 0.11971,0.007 0,1.22249 0.0478,2.44879 -0.007,3.67127 -0.25539,5.43818 -3.0885,9.50327 -7.09648,10.24902 -6.16009,1.14416 -11.68266,-1.47077 -13.79392,-6.82382 -1.99888,-5.06701 -2.77453,-10.45591 -3.57817,-15.81577 -1.80818,-12.04777 -3.51171,-24.11321 -5.35395,-36.15417 -2.189577,-14.31226 -4.514989,-28.60242 -6.684132,-42.91808 -0.500572,-3.30991 1.397961,-5.76468 4.323069,-6.54448 1.618343,-0.43077 3.241693,-0.65626 4.788633,-0.63185 z m 561.3472,1.07081 c 0.97091,-0.0272 1.98291,0.19444 3.05942,0.77149 2.8604,1.53577 2.26432,4.36693 2.98623,6.75728 -1.58004,10.15452 -3.05584,20.33042 -4.76868,30.46103 -2.90808,17.19991 -5.8718,34.39189 -9.03187,51.55093 -0.91942,4.97848 -1.2451,10.3774 -5.72641,13.98015 -2.9217,2.34962 -5.90912,4.65045 -9.88986,2.60049 -2.81273,-1.44724 -4.29763,-6.14791 -3.53826,-10.15589 5.07723,-26.85038 10.11209,-53.70536 15.2438,-80.54212 0.99774,-5.21684 2.16911,-10.49338 7.09651,-13.6875 1.45785,-0.94496 2.95098,-1.68846 4.56912,-1.73586 z m 49.80176,1.28361 c 3.70859,0.10931 6.88528,2.83834 7.98773,7.69508 0.66061,2.91149 1.17426,5.89557 1.15724,8.89219 -0.0919,15.09887 1.36455,30.15678 0.89122,45.26587 -0.60954,19.58698 0.77718,39.15695 0.81804,58.74053 0.003,1.50171 0.36824,2.9881 0.4057,4.46939 0.30647,11.51995 1.61068,23.02421 0,34.5646 -1.72986,12.40532 -5.81361,24.02222 -11.17347,35.26294 -0.84848,1.77996 -2.13516,3.53537 -1.35679,5.67986 -1.49136,-0.0964 -1.75183,1.24039 -2.21474,2.21474 -4.45747,9.33038 -8.68975,18.7573 -12.92928,28.18643 -8.93197,19.84919 -17.68996,39.77749 -27.68096,59.13292 -4.94101,9.57896 -11.40571,17.85239 -20.2253,24.17593 -0.83824,0.6045 -1.85668,1.13698 -2.13492,2.17483 -4.82061,1.48657 -8.77686,4.66247 -13.20201,6.91027 -38.52698,19.58359 -77.87487,37.42079 -117.32807,55.02933 -3.71853,1.65835 -7.48413,3.24472 -11.09369,5.12783 -1.09271,0.57034 -2.7321,1.21414 -2.26129,2.53398 -0.003,-0.003 -0.0102,-0.003 -0.0136,-0.007 -1.7537,-1.0999 -3.10569,0.20499 -4.53589,0.81807 -10.512,4.47791 -20.54748,9.93104 -30.78025,14.98442 -19.13747,9.44957 -37.7559,19.83037 -55.68113,31.43205 -1.09949,0.71091 -2.55936,1.16677 -2.93303,2.56057 -1.60505,0.31329 -3.00028,1.18602 -4.39623,2.08837 -6.17372,3.99096 -12.22884,8.16814 -18.13694,12.53026 -3.12602,2.31217 -5.51836,2.44337 -8.7193,0.0664 -10.60053,-7.87634 -21.764,-14.94554 -33.01494,-21.85479 -1.55961,-0.95687 -3.02892,-2.44125 -5.18104,-1.71594 -0.0167,0.0102 -0.0363,0.0102 -0.0532,0.0204 0.82549,-2.1055 -1.81202,-2.50518 -2.95299,-3.2057 -13.09318,-8.05342 -26.56833,-15.45023 -40.27105,-22.39353 -21.58928,-10.94447 -43.7749,-20.61633 -65.81707,-30.60733 -23.52345,-10.65842 -47.13093,-21.147 -70.2798,-32.61587 -1.23405,-0.61179 -2.50341,-1.1046 -3.85751,-1.17056 -0.51663,-1.49415 -2.18511,-1.77658 -3.4119,-2.39433 -9.94673,-5.02615 -19.92229,-10.00493 -29.72941,-15.3103 -8.47566,-4.58347 -16.0617,-10.06864 -21.60204,-18.19016 C 98.915939,499.2787 94.856617,491.73437 91.144896,484.03851 81.106224,463.23585 71.91615,442.03511 62.31335,421.02813 c -0.691266,-1.51193 -1.039187,-3.48193 -3.238977,-3.75776 -0.04893,0.003 -0.09136,-0.0136 -0.139684,-0.0136 1.191408,-1.58895 0.117209,-3.13732 -0.478863,-4.52922 -2.526694,-5.87405 -5.378164,-11.60232 -8.034258,-17.4253 -5.196449,-11.39714 -8.550087,-23.13572 -8.393446,-35.86794 0.20772,-17.06029 3.809302,-33.77022 4.589103,-50.77944 0.541435,-11.80599 1.582059,-23.61659 1.902152,-35.42258 0.40182,-14.82645 1.705604,-29.60465 1.862245,-44.43451 0.02724,-2.56756 0.518981,-5.15861 1.077441,-7.67509 0.990928,-4.45406 2.635557,-8.60619 6.531161,-11.44616 4.202077,-3.06473 8.248789,-2.59034 11.439506,1.51639 2.73782,3.52102 4.193669,7.61175 4.748725,12.01814 1.733271,13.77083 3.197157,27.57441 4.981507,41.34183 4.423418,34.15464 8.335942,68.37469 14.618624,102.27054 4.348502,23.46897 14.359874,43.76854 31.358874,60.68922 10.72313,10.67205 22.79905,19.32989 36.00119,26.6035 13.94791,7.68224 27.50254,16.10914 42.49245,21.75501 5.67654,2.13849 11.45935,3.56737 17.56496,2.89313 5.79573,-0.64018 9.94173,-3.70644 11.98487,-9.15824 2.10445,-5.62888 1.0211,-10.74179 -3.38529,-14.97111 -2.6629,-2.55734 -5.65511,-4.70176 -8.83901,-6.56443 -12.11247,-7.07611 -24.31858,-13.97913 -36.39359,-21.11653 -12.07161,-7.13399 -24.41202,-13.88677 -35.19644,-22.97878 -6.47338,-5.46202 -11.38917,-12.10154 -13.82052,-20.31841 -1.93758,-6.53807 -3.32623,-13.20279 -4.14349,-19.97923 -0.80364,-6.68451 2.66705,-9.82346 9.19151,-8.40007 5.93194,1.29399 11.33931,3.95833 16.60723,6.75063 22.62788,12.00691 45.91233,22.66898 68.98289,33.75987 7.36214,3.54146 14.67465,7.18491 22.07425,10.64804 1.35297,0.63219 2.85208,2.20225 4.45609,0.89787 0.82783,1.78087 2.64352,2.23125 4.17675,2.99954 18.86167,9.43254 37.68828,18.90897 56.08683,29.2439 15.29978,8.59485 28.65016,19.12531 38.37556,33.99262 15.29637,23.38384 24.51943,49.05076 29.44342,76.41193 1.0386,5.76509 1.39339,11.61088 2.52733,17.35213 0.15324,0.77639 0.27709,1.83437 1.22377,1.88886 1.28718,0.0715 1.30734,-1.17652 1.42993,-2.0485 0.32691,-2.2951 0.003,-4.62824 0.30593,-6.93019 3.30309,-25.17841 10.42682,-49.16753 21.99445,-71.82946 9.82414,-19.24987 23.40544,-35.06902 42.23306,-45.89771 19.92753,-11.46206 40.14337,-22.4177 60.91538,-32.30995 1.18162,-0.56186 2.68702,-0.81726 2.82663,-2.55393 -9.9e-4,-0.007 9.2e-4,-0.0136 0,-0.0204 0.73342,0.68697 1.80802,0.31975 2.78005,0.0865 1.86267,-0.44609 3.53829,-1.39993 5.24091,-2.25465 14.45869,-7.25318 29.16653,-13.99227 43.6763,-21.13648 14.02281,-6.90244 28.37167,-13.13547 42.03353,-20.79728 6.50743,-3.64702 13.28319,-6.92117 20.74409,-8.30029 5.42797,-1.00115 7.72345,0.85308 7.78814,6.31169 0.10557,8.81619 -1.84898,17.23975 -4.96818,25.43959 -0.51052,1.34119 -1.57534,2.77524 -0.38575,4.15015 -0.0528,10e-4 -0.11782,-0.003 -0.16618,0 -5.01593,9.16012 -12.85123,15.57996 -21.28944,21.24289 -14.67321,9.84457 -30.30991,18.1088 -45.41219,27.2553 -8.34626,5.04999 -17.58341,8.69694 -24.74124,15.60959 -4.32466,4.17484 -5.49331,9.10611 -3.37865,14.0267 2.37686,5.53693 6.52701,8.41992 12.66327,8.56634 4.2838,0.10556 8.37221,-0.57671 12.39721,-1.9354 14.25778,-4.82184 27.09839,-12.54388 40.17795,-19.76642 11.51995,-6.35759 22.84806,-13.06556 32.68241,-21.86806 13.09574,-11.7291 24.32345,-24.96415 31.25245,-41.39508 0.0753,0.0306 0.1117,0.10113 0.19274,0.12633 1.8831,-0.53122 2.21059,-2.28373 2.81332,-3.73777 1.51874,-3.65043 2.67546,-7.42208 3.59148,-11.2666 8.0466,-33.76985 13.85057,-67.98299 19.94597,-102.13083 2.91489,-16.33497 5.12156,-32.7891 7.37583,-49.23645 0.9739,-7.11016 3.55358,-13.72989 9.28462,-18.58918 2.27555,-1.92952 4.69175,-2.80569 6.91691,-2.74017 z m -96.61728,41.14231 c 0.53633,-0.017 1.09816,0.0637 1.66939,0.25948 2.12487,0.73213 2.95919,2.75689 3.11927,4.88177 0.14984,2.02952 0.0341,4.07564 0.0341,6.11879 0.0409,0 0.0889,0.007 0.13314,0.007 -1.13395,16.36902 -2.17435,32.74132 -3.47175,49.09673 -0.31328,3.9569 -1.92485,7.65868 -4.92828,10.48844 -2.52669,2.38027 -5.17342,4.50153 -9.04519,2.84658 -3.71853,-1.58684 -4.69941,-4.76241 -4.67558,-8.29365 0.0409,-6.11583 1.49841,-12.07331 2.40761,-18.09038 1.75711,-11.63914 3.16661,-23.34417 5.6865,-34.85722 0.83088,-3.80025 2.4561,-7.19675 4.92831,-10.15591 1.11096,-1.3306 2.53453,-2.25346 4.14347,-2.3012 z m -471.42735,1.81572 c 2.36877,-0.0964 5.00385,1.19132 6.81714,3.31875 3.27585,3.84112 2.88478,8.68127 3.52497,13.14215 2.17936,15.13633 4.35446,30.25856 7.98105,45.13949 0.28263,1.17822 0.2828,2.42256 0.419,3.63136 0.4529,3.3099 -1.04137,5.72998 -3.85751,6.99673 -2.78549,1.25313 -5.19257,-0.1185 -7.39577,-2.02187 -3.4427,-2.97618 -4.5376,-6.95419 -5.17438,-11.18011 -2.54031,-16.84917 -4.99502,-33.71128 -7.68176,-50.54001 -0.55846,-3.49719 -0.12967,-6.20525 3.13256,-7.90788 0.68956,-0.3601 1.4451,-0.5465 2.2347,-0.57861 z m 40.33756,33.62015 c 3.57961,-4.1e-4 5.58593,2.58002 6.76394,5.67985 2.50967,6.60278 3.15294,13.6799 4.69551,20.53126 1.65836,7.36896 3.12368,14.78416 4.496,21.34267 0.003,5.20663 -1.59791,7.34451 -5.21429,7.82805 -4.62092,0.61976 -8.29471,-1.41811 -9.38439,-5.75299 -1.35188,-5.36667 -2.37361,-10.82304 -3.39859,-16.26803 -1.39956,-7.43025 -2.67317,-14.87971 -3.97057,-22.32699 -0.16005,-0.92963 -0.18348,-1.89669 -0.15961,-2.83994 0.0885,-4.04544 2.48142,-7.88479 5.43377,-8.16061 0.25284,-0.0238 0.4996,-0.034 0.73824,-0.034 z m 391.14466,1.2171 c 0.33712,-0.003 0.69127,0.0238 1.06414,0.0998 3.17369,0.64018 2.61649,3.51053 2.50071,5.68649 -0.70148,13.28728 -1.99806,26.53802 -2.58717,39.83211 -0.0817,1.79797 -0.84474,3.42673 -1.83567,4.92164 -2.74122,4.13397 -6.99335,4.27423 -10.11597,0.39906 -0.92282,-1.14757 -1.13837,-2.81699 -2.65371,-3.51166 -0.15357,0.0555 -0.22372,0.15425 -0.34583,0.2261 8.5e-4,-0.0511 -8.9e-4,-0.10181 0,-0.15289 0.75256,-0.68446 1.02457,-1.61409 1.01095,-2.55394 -0.0954,-5.95237 1.01214,-11.74896 2.09501,-17.55831 0.22474,-1.19184 0.29183,-2.41756 -0.66508,-3.41189 10e-4,-0.12361 -4.5e-4,-0.24858 0,-0.37246 1.46912,0.39041 1.5941,-1.06343 1.8689,-2.00856 1.09649,-3.79004 1.79405,-7.6743 2.57386,-11.53926 0.42909,-2.13509 0.85468,-4.2886 1.98863,-6.18533 1.21567,-2.03208 2.74102,-3.84946 5.10123,-3.87081 z" /><path
   fill-rule="evenodd"
   clip-rule="evenodd"
   fill="#a51c3c"
   d="m 2124.6033,333.57233 c -35.5474,0 -71.0982,-0.0545 -106.649,0.0851 -3.6232,0.0136 -5.3701,-0.773 -5.7855,-4.62433 -0.4325,-4.03182 -1.3894,-8.03979 -2.4859,-11.95242 -0.7423,-2.64588 -0.303,-3.70151 2.5267,-4.48812 8.7617,-2.43475 17.3566,-5.5131 26.1558,-7.79802 3.6299,-0.94325 4.6924,-2.64588 4.8592,-6.08518 0.7935,-16.30773 1.7197,-32.61547 1.8082,-48.94704 0.1635,-29.95937 0.3916,-59.92215 0.1873,-89.88153 -0.1158,-17.2612 0.1124,-34.56668 -2.6118,-51.72232 -0.7253,-4.56303 -2.874,-7.64818 -6.991,-9.773063 -7.5426,-3.8956 -15.5994,-6.32014 -23.6767,-8.66976 -2.3973,-0.69808 -2.9591,-1.46766 -2.3326,-3.89901 1.1612,-4.46428 2.0125,-9.0171 2.7957,-13.56651 0.4529,-2.62204 1.6482,-3.31331 4.3349,-3.3065 37.0491,0.11238 74.0982,0.23497 111.1473,0.0272 31.8357,-0.18048 63.6782,-0.50739 95.4491,-2.9183 2.159,-0.16345 3.7084,0.34733 4.7674,2.22703 0.068,0.11918 0.16,0.21794 0.2418,0.3269 8.1657,10.56308 8.1998,10.56649 5.1896,28.02179 -2.5846,15.003533 -5.3224,29.983213 -7.8287,45.003773 -0.3848,2.336 -1.0488,3.23498 -3.5142,3.20774 -8.5778,-0.0953 -17.1386,-0.13962 -25.6824,-1.12373 -2.3939,-0.27583 -3.4019,-0.92623 -3.8547,-3.53806 -2.176,-12.58579 -4.8593,-25.08987 -6.9195,-37.68928 -0.5449,-3.350773 -2.0364,-4.161223 -4.8797,-4.494933 -18.0206,-2.11466 -36.1025,-2.66291 -54.2116,-2.08742 -7.7027,0.24518 -15.4939,-0.46652 -23.0365,2.17255 -2.2781,0.79683 -3.1533,1.64814 -3.3337,4.113543 -2.084,28.26015 -2.3428,56.56117 -2.2952,84.87581 0.01,3.22818 1.9172,2.62545 3.7356,2.54372 25.4134,-1.14416 50.8199,-2.31897 76.2333,-3.45632 4.6958,-0.21113 10.0761,6.03069 9.2691,10.66524 -1.1408,6.5585 -2.4041,13.09999 -3.4359,19.67552 -0.4597,2.94213 -1.7503,3.8956 -4.7878,3.77983 -24.8788,-0.92623 -49.7609,-1.6856 -74.643,-2.48584 -1.2225,-0.0374 -2.4689,0.10897 -3.6743,-0.0545 -2.2509,-0.30307 -2.6799,0.73894 -2.6697,2.76506 0.1021,22.59042 -0.3882,45.19105 1.6924,67.7338 1.1475,12.43256 3.807,15.42237 16.2873,16.97176 19.1239,2.37345 38.2954,1.9512 57.4636,0.51078 4.7469,-0.35755 9.4734,-0.96709 14.2135,-1.4268 2.1453,-0.21112 3.1736,-1.12373 3.6981,-3.44951 3.0068,-13.25323 6.3507,-26.42473 9.3508,-39.67796 0.5925,-2.61523 1.5528,-3.71172 4.2327,-3.69469 9.2555,0.0545 18.4973,0.1294 27.7289,1.03179 2.5199,0.24858 3.2725,1.16459 3.3133,3.40184 0.2861,15.92635 0.9535,31.84588 0.4836,47.77904 -0.1907,6.39165 -0.4291,12.79011 -0.3848,19.18177 0.024,3.5074 -0.9194,4.82523 -4.8252,4.80821 -35.5508,-0.17027 -71.1016,-0.0954 -106.6558,-0.0988 z"
   id="path8"
   style="stroke-width:3.40525" /><path
   fill-rule="evenodd"
   clip-rule="evenodd"
   fill="#a51c3c"
   d="m 1515.5678,285.91248 c 0,-8.70382 0.044,-17.41104 -0.027,-26.11485 -0.02,-2.56075 0.8241,-3.89561 3.579,-4.16462 9.9092,-0.98071 19.8287,-1.21227 29.772,-1.07946 2.0057,0.0272 2.8809,0.75596 3.1976,2.73782 2.0738,12.75946 5.353,25.23289 8.8196,37.67566 0.8479,3.0477 2.336,4.93761 5.0602,6.29971 14.7685,7.37577 30.5689,9.36444 46.7813,8.89111 9.8207,-0.28264 19.5086,-1.56982 28.6551,-5.54375 2.3394,-1.01476 4.1681,-2.44837 5.4791,-4.63795 7.781,-12.97059 10.5426,-26.54391 3.9433,-40.76082 -3.4802,-7.50176 -9.9672,-12.48023 -16.856,-16.77425 -12.8685,-8.02277 -27.0615,-13.22258 -41.0026,-18.9434 -14.8435,-6.08858 -29.4554,-12.56196 -43.0594,-21.24875 -44.796,-28.61771 -44.2682,-89.44906 -0.2145,-119.139423 18.797,-12.66753 39.6677,-19.0115 62.0334,-20.25102 29.074,-1.61068 56.8132,3.88539 82.7067,17.61535 7.3791,3.91263 11.0534,11.159 9.7832,19.31798 -2.5539,16.396273 -6.0477,32.615473 -9.2316,48.889153 -0.3848,1.98526 -0.9398,3.30309 -3.6027,3.23158 -9.1159,-0.23156 -18.2249,-0.48355 -27.3203,-1.09649 -2.4723,-0.16686 -3.058,-1.25994 -3.3304,-3.54146 -1.6617,-13.90363 -3.681,-27.75277 -7.0182,-41.38398 -0.5755,-2.34281 -1.6992,-3.79345 -3.6436,-5.03977 -8.1011,-5.196413 -17.1012,-7.668623 -26.5269,-8.574413 -11.3395,-1.08968 -22.4508,0.23496 -33.5315,3.10558 -10.5801,2.74123 -15.1806,9.929713 -17.3838,19.753853 -4.6005,20.503 1.2327,36.99121 18.4837,49.27394 12.1738,8.66976 25.8765,14.31226 39.5043,20.12161 16.2464,6.92287 32.6597,13.51203 47.3193,23.612 14.4758,9.96716 25.3385,22.61085 29.452,40.13766 7.6278,32.48266 -6.6504,62.72808 -36.7119,78.12321 -17.5371,8.97964 -36.3102,12.7867 -55.8291,13.30771 -28.5905,0.76958 -56.4318,-2.92171 -82.8497,-14.60171 -4.9819,-2.20319 -9.7118,-4.85929 -14.3327,-7.73332 -2.1827,-1.35529 -3.0953,-3.13623 -3.0613,-5.74125 0.109,-8.57441 0.041,-17.14883 0.041,-25.72324 0.3098,0 0.6163,0 0.9228,0 z"
   id="path10"
   style="stroke-width:3.40525" /><path
   fill-rule="evenodd"
   clip-rule="evenodd"
   fill="#a51c3c"
   d="m 1275.4331,286.02826 c 0,-8.70041 0.095,-17.40423 -0.054,-26.10464 -0.054,-3.22136 1.4506,-4.10332 4.3281,-4.37915 9.5006,-0.90579 19.0183,-1.07606 28.5496,-1.01817 2.2202,0.0102 3.2656,0.55165 3.6844,3.07835 2.1079,12.74925 5.3769,25.23629 8.8571,37.67567 0.8036,2.89105 2.3326,4.64475 4.924,5.93194 16.352,8.1113 33.7664,9.85138 51.6508,8.66636 8.1726,-0.54144 16.1749,-1.97505 23.7822,-5.23387 2.2135,-0.95007 3.9706,-2.22022 5.2884,-4.23954 9.8344,-15.07162 13.9513,-40.43732 -9.1022,-55.67921 -12.5858,-8.32243 -26.4418,-13.83212 -40.2535,-19.49845 -15.7118,-6.44273 -31.4883,-12.73563 -45.8142,-22.05239 -17.3361,-11.27478 -30.1058,-25.96161 -33.6302,-46.96859 -4.781,-28.49512 4.798,-51.65762 27.2352,-69.548793 16.9581,-13.52565 36.7154,-20.55749 57.9947,-22.98543 32.1626,-3.66745 62.8405,1.74008 91.6046,16.9343 7.3894,3.90582 10.8219,11.18965 9.5075,19.457593 -2.5846,16.24644 -5.9762,32.33283 -9.1193,48.4703 -0.5414,2.77188 -1.7435,3.40525 -4.3451,3.34736 -8.7072,-0.1975 -17.4042,-0.47673 -26.0978,-1.01817 -2.7616,-0.17026 -3.6538,-1.2327 -3.9433,-3.91263 -1.4438,-13.38603 -3.6606,-26.65288 -6.5483,-39.81076 -0.7355,-3.33373 -2.4347,-5.46201 -5.3462,-7.13059 -13.5938,-7.770773 -28.3214,-9.057963 -43.4612,-7.614133 -8.2815,0.78661 -16.3418,2.70377 -23.7686,6.73899 -2.0023,1.086273 -3.4359,2.499453 -4.4711,4.535793 -9.0035,17.73112 -9.9876,43.27389 12.6777,59.72124 13.0183,9.44616 27.6983,15.49388 42.3068,21.74592 15.6097,6.67769 31.3522,13.07275 45.4737,22.72663 15.7595,10.7708 27.2897,24.54162 30.5723,43.90727 5.4008,31.90717 -7.6379,58.41703 -36.259,73.95518 -17.7244,9.61983 -36.9538,13.39965 -56.8949,13.96833 -29.4418,0.83769 -58.0629,-3.08175 -85.0597,-15.58923 -4.1783,-1.93418 -8.0739,-4.46428 -12.1057,-6.71515 -2.3734,-1.32804 -3.2997,-3.29628 -3.2588,-6.05112 0.1192,-8.4348 0.044,-16.87301 0.044,-25.31121 0.3473,0 0.7014,0 1.0522,0 z"
   id="path12"
   style="stroke-width:3.40525" /><path
   fill-rule="evenodd"
   clip-rule="evenodd"
   fill="#a51c3c"
   d="m 1034.3449,286.45051 c 0.4665,-9.10904 0.2997,-18.22489 0.9807,-27.32712 0.1873,-2.5267 1.1782,-3.23499 3.3235,-3.45973 9.8991,-1.04541 19.822,-1.2327 29.7653,-1.12374 2.1453,0.0238 2.9149,0.74916 3.3031,2.983 2.2032,12.72542 5.4007,25.22608 8.8673,37.66545 0.7968,2.86382 2.2406,4.68222 4.8695,5.98984 16.3486,8.11811 33.7664,9.86841 51.6474,8.72765 7.6209,-0.48695 15.1023,-1.82181 22.2907,-4.55963 3.4223,-1.30421 6.1533,-3.24861 7.9581,-6.55851 6.9876,-12.81735 9.5551,-26.03312 3.0375,-39.75627 -3.4291,-7.21913 -9.6028,-12.07501 -16.2328,-16.25325 -14.1114,-8.89792 -29.8028,-14.38377 -45.0855,-20.74137 -14.6937,-6.11242 -29.2273,-12.49726 -42.283,-21.80721 -21.5416,-15.36789 -32.1013,-36.09563 -30.3203,-62.63273 1.5051,-22.42016 12.7765,-39.477053 30.4122,-52.611093 19.0286,-14.17264 40.8903,-20.76861 64.2537,-22.11028 29.9389,-1.71965 58.4272,4.11354 84.8894,18.65736 4.9853,2.74122 9.2146,11.33607 8.1726,16.83895 -3.1601,16.695933 -6.4563,33.364623 -9.5177,50.077583 -0.5039,2.75485 -1.6072,3.5687 -4.2701,3.42909 -8.5574,-0.44268 -17.1216,-0.80024 -25.6892,-0.96709 -3.1158,-0.0613 -4.1578,-1.33486 -4.4711,-4.32126 -1.3928,-13.25323 -3.6402,-26.37025 -6.4938,-39.39532 -0.6879,-3.13283 -2.1079,-5.29516 -4.9342,-6.9399 -13.8083,-8.032983 -28.788,-9.316763 -44.224,-7.808233 -7.6039,0.74234 -14.9763,2.53691 -21.9332,5.89108 -2.9524,1.42339 -5.1487,3.360983 -6.5279,6.374623 -8.8843,19.43035 -8.193,42.66095 12.9059,58.40342 12.0035,8.9558 25.6211,14.74132 39.2387,20.57451 16.7198,7.16464 33.712,13.79466 48.8585,24.15002 15.8753,10.85253 27.2692,24.76637 30.6779,44.30569 5.302,30.40205 -7.6788,57.64404 -34.8664,72.78718 -18.1159,10.08975 -37.7846,14.18286 -58.2978,14.75835 -28.7335,0.80704 -56.6872,-2.90809 -83.2107,-14.68344 -4.9784,-2.21 -9.739,-4.80821 -14.302,-7.7912 -1.8627,-1.21908 -2.8434,-2.73101 -2.8263,-5.03977 0.075,-8.57442 0.034,-17.14883 0.034,-25.72665 z"
   id="path14"
   style="stroke-width:3.40525" /><path
   fill-rule="evenodd"
   clip-rule="evenodd"
   fill="#a51c3c"
   d="m 1859.6988,69.021987 c 33.0752,0.21113 69.4228,-0.16685 105.6751,-2.63225 7.9648,-0.54144 12.4291,1.48809 16.2294,8.1113 2.1964,3.8275 3.4086,7.2055 3.0817,11.70724 -1.3791,18.865083 -3.5483,37.645023 -5.2849,56.472643 -0.2316,2.49945 -1.1646,3.28607 -3.7186,3.52443 -8.7242,0.81386 -17.3872,0.14643 -26.0808,-0.29285 -2.3802,-0.11918 -3.1532,-1.19524 -3.6163,-3.43249 -2.8468,-13.83893 -5.9865,-27.61997 -8.7277,-41.47933 -0.5789,-2.914893 -1.8014,-3.773013 -4.4915,-3.973923 -13.7163,-1.0352 -27.4531,-1.29059 -41.2035,-1.32464 -2.5948,-0.007 -3.1839,0.92963 -3.1635,3.32692 0.1022,11.029603 0.048,22.062613 0.048,33.092213 0,38.5406 -0.109,77.0812 0.051,115.6252 0.068,15.7629 0.051,31.55644 2.6458,47.20356 0.7117,4.29061 2.9115,7.10335 6.7118,9.06817 7.5324,3.89561 15.5756,6.34739 23.6665,8.66296 2.3836,0.68104 3.1941,1.58684 2.4994,4.17142 -1.1578,4.32808 -2.0431,8.73787 -2.7548,13.16469 -0.4529,2.80933 -1.6345,3.67086 -4.5324,3.64022 -15.797,-0.16005 -31.5939,-0.0749 -47.3909,-0.0749 -20.7005,0 -41.401,-0.0545 -62.1015,0.0613 -2.874,0.017 -4.0522,-0.7185 -4.454,-3.72193 -0.596,-4.42683 -1.7537,-8.78895 -2.8298,-13.13745 -0.5585,-2.26449 -0.1022,-3.39163 2.3394,-4.0897 9.1431,-2.60161 18.1908,-5.51651 27.3271,-8.13174 2.5608,-0.73213 3.6334,-1.82862 3.8241,-4.6754 1.3621,-20.503 2.1181,-41.03325 2.1964,-61.5737 0.1703,-46.03215 0.017,-92.0643 0.126,-138.09304 0.01,-3.384823 -0.5278,-4.620923 -4.3349,-4.576653 -12.9297,0.15664 -25.8356,0.66742 -38.7449,1.36891 -3.2111,0.17707 -4.6448,1.1714 -5.3292,4.532383 -2.8161,13.84574 -6.1158,27.59613 -8.966,41.43847 -0.6947,3.36779 -2.2134,4.34169 -5.4348,4.31104 -9.1193,-0.0885 -18.2215,-0.30306 -27.3101,-1.21227 -2.9898,-0.29966 -3.79,-1.34507 -3.882,-4.26677 -0.681,-22.86284 -0.6402,-45.718873 -0.024,-68.585113 0.089,-3.42908 1.0113,-4.28721 4.3689,-4.27699 36.7801,0.11237 73.5466,0.0681 113.5855,0.0681 z"
   id="path16"
   style="stroke-width:3.40525" /><path
   fill-rule="evenodd"
   clip-rule="evenodd"
   fill="#a51c3c"
   d="m 905.52437,202.37152 c 0,-22.33162 0.15664,-44.66664 -0.0783,-66.99486 -0.0954,-8.9592 -0.72532,-17.92522 -2.08061,-26.82995 -0.77299,-5.07722 -3.26223,-8.40075 -7.81845,-10.580103 -7.38598,-3.53465 -15.12952,-6.05794 -22.98202,-8.2373 -2.37687,-0.66062 -2.99322,-1.3621 -2.31557,-3.87177 1.20546,-4.45066 1.93759,-9.02731 2.79911,-13.56651 0.42566,-2.24065 1.22249,-3.35076 3.93988,-3.34395 36.76987,0.11578 73.54314,0.11237 110.31642,0.0102 2.77868,-0.007 3.7594,0.91261 4.18505,3.53125 0.74235,4.55281 1.70263,9.0852 2.86041,13.55629 0.59932,2.30876 -0.0851,3.04089 -2.24406,3.66405 -9.00348,2.5948 -17.91842,5.48926 -26.9287,8.0466 -2.83317,0.80364 -4.17484,2.01931 -4.38596,5.138523 -1.07947,16.1545 -1.85586,32.33283 -1.93759,48.51117 -0.18729,37.71993 -0.0919,75.43987 0.13621,113.15981 0.0579,9.64025 0.7151,19.28732 2.09763,28.8765 0.773,5.3871 3.28607,8.92516 8.18282,11.21689 7.29404,3.41206 14.89796,5.88427 22.61084,8.07725 2.11807,0.60273 3.19413,1.22248 2.4654,3.86836 -1.26675,4.56984 -2.08741,9.27249 -2.95235,13.94449 -0.41203,2.21682 -1.2974,3.09878 -3.75258,3.09197 -36.90608,-0.0885 -73.81557,-0.0885 -110.72505,0.003 -2.44497,0.007 -3.36099,-0.80363 -3.76621,-3.03748 -0.82407,-4.5426 -1.60728,-9.11585 -2.82295,-13.5597 -0.74575,-2.73101 -0.16005,-3.71172 2.57096,-4.47449 9.15331,-2.56075 18.20446,-5.48586 27.33734,-8.12493 2.25768,-0.6538 3.23839,-1.71965 3.41546,-4.13056 1.11692,-15.33383 1.72306,-30.69491 1.95121,-46.05939 0.2588,-17.29185 0.0613,-34.58711 0.0613,-51.88236 -0.0477,-0.003 -0.0953,-0.003 -0.13961,-0.003 z"
   id="path18"
   style="stroke-width:3.40525" /><path
   id="path48"
   d="m 1067.5735,623.93973 c -1.9512,-0.0204 -2.6284,0.67976 -2.5739,2.60713 0.1056,3.67086 0.027,7.34624 0.027,11.02051 0,12.6539 -0.01,25.31577 0.02,37.97649 0.01,1.49149 -0.6396,3.43916 2.1017,3.41192 10.2055,-0.10556 20.4425,0.28365 30.614,-0.33269 8.2134,-0.50058 14.3268,-5.7845 15.4233,-11.8186 1.3996,-7.70267 -1.4903,-12.9127 -9.5573,-17.02624 0.7526,-0.47333 1.4374,-0.89432 2.115,-1.33019 8.0023,-5.20663 7.9926,-15.82423 -0.02,-20.9968 -3.1635,-2.04315 -6.711,-3.18353 -10.3887,-3.27888 -9.2486,-0.23837 -18.5087,-0.12055 -27.7608,-0.23292 z m 19.0614,11.45281 c 1.4885,-0.001 2.9764,0.0136 4.4628,0.0466 3.0681,0.0715 5.3889,1.41348 5.6,4.6689 0.2214,3.4359 -1.997,5.17455 -5.1877,5.59339 -1.723,0.22475 -3.5045,0.0399 -6.2185,0.0399 -1.134,-0.22475 -4.1018,1.20978 -5.1744,-0.60522 -1.3893,-2.36324 -0.4774,-5.54728 -0.3991,-8.36683 0.044,-1.58341 1.4224,-1.33666 2.4542,-1.34347 1.4881,-0.017 2.9742,-0.0307 4.4627,-0.0341 z m -4.6622,20.79728 c 0.1256,-2e-4 0.2561,0.003 0.3924,0.0136 3.6606,0.24177 7.3369,0.21044 10.9806,0.59858 2.8195,0.30306 4.8974,1.98519 5.0812,4.96818 0.1873,3.05111 -1.8689,4.71478 -4.5624,5.45371 -2.4961,0.68105 -5.0821,0.92879 -6.7507,0.7449 -8.537,-0.29625 -7.3519,1.96667 -7.5221,-8.87224 -0.027,-1.80267 0.442,-2.77667 2.0218,-2.89313 0.1127,-0.007 0.2336,-0.0136 0.3592,-0.0136 z"
   style="fill:#bc955b;fill-opacity:1;stroke-width:3.40525" /><path
   fill-rule="evenodd"
   clip-rule="evenodd"
   fill="#bb955b"
   d="m 922.71065,466.77884 c 0,9.07499 -0.18047,17.98993 0.0885,26.88784 0.10897,3.60616 -0.86153,4.63114 -4.50514,4.53239 -9.25206,-0.24859 -9.25547,-0.0613 -9.25547,-9.48362 0,-14.02281 0.0783,-28.04563 -0.0647,-42.06844 -0.0306,-2.94554 0.69467,-3.72194 3.77983,-4.04543 6.52105,-0.67424 10.72994,1.53236 14.41101,7.04886 5.7753,8.65955 12.44959,16.71977 19.35884,25.84583 0,-10.05229 0.18729,-19.09322 -0.0919,-28.12394 -0.11577,-3.74918 0.93304,-4.82183 4.69925,-4.71287 9.17033,0.26561 9.17374,0.0715 9.17374,9.15672 0,14.15902 -0.0885,28.31804 0.0715,42.47707 0.0341,3.06472 -0.87856,3.69128 -3.87177,3.94327 -6.38484,0.53463 -10.8321,-1.13054 -14.49614,-6.93649 -4.84567,-7.68224 -10.84572,-14.63575 -16.40649,-21.85829 -0.69467,-0.90579 -1.07265,-2.2066 -2.89106,-2.6629 z"
   id="path50"
   style="fill:#bc955b;fill-opacity:1;stroke-width:3.40525" /><path
   id="path52"
   d="m 2000.6648,533.26168 c -5.7744,-0.0667 -11.5733,0.35701 -17.3389,0.0398 -3.0068,-0.16345 -3.6294,1.00986 -3.5715,3.75109 0.1601,7.88996 0.06,15.787 0.06,23.68377 0,8.16919 0.055,16.33604 -0.034,24.50182 -0.027,2.31557 0.4863,3.54701 3.1458,3.45847 8.2952,-0.29285 16.5957,0.30716 24.8943,-0.45228 14.8911,-1.3587 24.2811,-11.26589 25.3265,-26.90279 0.8752,-13.06934 -8.3464,-24.50608 -22.1275,-27.16217 -3.4376,-0.66402 -6.8908,-0.8777 -10.3554,-0.91782 z m -3.1326,12.12456 c 0.3472,0.007 0.7221,0.0419 1.1307,0.0998 1.0658,0.15324 2.1863,0.126 3.2589,0.007 11.5438,-1.24632 18.7879,9.17027 15.4167,21.14312 -2.0874,7.42004 -6.6116,10.03619 -16.3744,10.03619 -6.5994,0 -6.5977,3e-5 -6.5977,-6.67085 0,-6.78666 0.2064,-13.58854 -0.087,-20.36498 -0.1341,-3.10174 0.8219,-4.30638 3.2523,-4.24989 z"
   style="fill:#bc955b;fill-opacity:1;stroke-width:3.40525" /><path
   id="path54"
   d="m 2049.3957,442.72331 c -4.4842,0.0341 -8.9684,0.17333 -13.448,0.0136 -2.5812,-0.0919 -2.3645,1.57381 -2.3611,3.23897 0.01,8.15898 0.01,16.31625 0.01,24.47523 0,8.15897 0.01,16.32612 -0.014,24.4885 0,1.71284 -0.126,3.29458 2.4143,3.19242 9.3576,-0.38479 18.78,0.83514 28.0933,-0.7449 14.4961,-2.45859 22.772,-13.14449 22.5132,-28.79161 -0.2145,-13.06253 -9.9417,-23.36753 -23.7636,-25.2268 -4.4711,-0.60272 -8.9571,-0.67832 -13.4414,-0.64512 z m 1.0243,12.1312 c 0.2401,-0.0102 0.4963,-0.003 0.7781,0.0136 2.8468,0.18048 5.7504,-0.19546 8.5597,0.19274 7.42,1.02157 12.4993,8.08692 12.1179,16.48086 -0.3848,8.54717 -5.4827,14.06129 -13.468,14.57208 -10.2192,0.65721 -10.2158,0.65421 -10.2158,-9.52408 v -6.12546 c 0,-4.2191 0.1206,-8.44757 -0.053,-12.66327 -0.083,-2.09463 0.6003,-2.87675 2.2813,-2.94632 z"
   style="fill:#bc955b;fill-opacity:1;stroke-width:3.40525" /><path
   id="path56"
   d="m 1412.6742,442.71667 c -4.4818,0.0344 -8.9652,0.17708 -13.4414,0.007 -2.5574,-0.0987 -2.4145,1.45639 -2.4077,3.16583 0.021,8.15557 0.01,16.30957 0.01,24.46855 0,8.15557 -0.024,16.31318 0.027,24.46194 0.01,1.33486 -0.6432,3.33074 1.829,3.24561 10.1613,-0.34053 20.4392,1.28936 30.4677,-1.0841 13.7946,-3.26222 21.6344,-14.57385 20.6775,-29.11085 -0.8479,-12.89227 -10.3341,-22.66983 -23.7303,-24.50185 -4.4677,-0.61124 -8.9464,-0.68626 -13.4281,-0.65177 z m 5.6665,12.16444 c 1.7005,-0.007 3.3883,0.0514 5.0347,0.34583 7.1987,1.294 12.2334,8.43409 11.7056,15.92223 -0.6402,9.14309 -5.6049,14.50363 -13.9137,15.01101 -9.7322,0.59592 -9.7302,0.59599 -9.7302,-9.22478 0,-2.30872 0,-4.61156 0,-6.91688 0,-4.20551 0,-8.41791 0,-12.62339 0,-1.26334 -0.031,-2.51838 1.7958,-2.47411 1.6924,0.0409 3.4073,-0.0341 5.1078,-0.0399 z"
   style="fill:#bc955b;fill-opacity:1;stroke-width:3.40525" /><path
   id="path58"
   d="m 1902.877,442.63685 c -3.4173,-0.0102 -4.0909,1.67869 -4.0238,4.93496 0.1566,7.61413 0.053,15.23487 0.053,22.85242 0.01,0 0.014,-0.003 0.014,0 0,8.02276 -0.035,16.05339 0.04,24.07616 0.017,1.64133 -0.2728,3.72364 2.5672,3.61807 9.0954,-0.34733 18.2204,0.69311 27.2886,-0.64512 14.3973,-2.12491 23.614,-13.18502 23.1849,-27.81397 -0.4291,-14.60511 -10.3669,-25.06896 -24.7745,-26.41063 -7.8798,-0.73894 -15.7713,-0.10522 -23.6306,-0.58529 -0.253,-0.017 -0.4905,-0.0272 -0.7183,-0.0272 z m 19.3474,12.18439 c 12.9869,-0.18831 18.4863,14.15484 12.743,24.68141 -2.6765,4.90356 -7.122,6.64494 -12.5568,6.75731 -8.9626,0.18388 -8.9654,0.2891 -8.9654,-8.49317 0,-2.44156 0.01,-4.88772 0.01,-7.32928 0,-4.20549 0.1168,-8.41805 -0.047,-12.61672 -0.089,-2.37686 0.8117,-3.15745 3.066,-2.94632 1.4813,0.13961 2.9881,0.13927 4.4694,0.0136 0.4344,-0.0371 0.8647,-0.0603 1.2836,-0.0664 z"
   style="fill:#bc955b;fill-opacity:1;stroke-width:3.40525" /><path
   id="path60"
   d="m 1364.8677,532.54338 c -17.2885,-0.0102 -30.0592,12.17042 -30.0354,28.65864 0.02,16.14768 12.9402,28.4187 29.929,28.43913 16.9138,0.0204 29.7125,-12.27186 29.7227,-28.54555 0.01,-16.39627 -12.5867,-28.5386 -29.6163,-28.55222 z m -0.5188,12.37729 c 0.2564,-0.007 0.5184,-0.007 0.7781,0 8.0228,0.17367 14.5188,7.38711 14.5256,16.12838 0.01,9.05115 -6.5051,15.94682 -14.9978,15.88893 -8.3837,-0.0545 -14.801,-7.12361 -14.6784,-16.18157 0.1219,-8.72214 6.4219,-15.58004 14.3725,-15.83574 z"
   style="fill:#bc955b;fill-opacity:1;stroke-width:3.40525" /><path
   id="path62"
   d="m 2211.564,532.54338 c -16.9683,0.0238 -29.4228,11.92746 -29.45,28.13988 -0.027,16.81171 12.3634,28.95789 29.5565,28.95789 17.3599,0.003 29.7864,-12.33278 29.9089,-29.69615 0.109,-15.27594 -13.2002,-27.42886 -30.0154,-27.40162 z m 0.4057,12.37065 c 8.2476,0.1294 14.4923,7.02622 14.4923,15.98206 0,9.33038 -6.1754,16.07921 -14.6851,16.04856 -8.4246,-0.0307 -14.889,-7.01478 -14.8448,-16.03528 0.041,-8.89791 6.831,-16.12133 15.0376,-15.99534 z"
   style="fill:#bc955b;fill-opacity:1;stroke-width:3.40525" /><path
   id="path64"
   d="m 1334.1938,623.82665 c -6.1044,-0.0776 -12.2346,0.35887 -18.3364,0.13961 -2.3463,-0.0817 -2.1084,1.59127 -2.1084,3.07937 -0.01,8.15897 -0.01,16.30957 -0.01,24.46855 0,8.01936 0.021,16.03688 -0.01,24.05624 -0.01,1.8865 -0.081,3.46296 2.6537,3.41188 8.5608,-0.16345 17.1455,0.28571 25.6791,-0.26595 14.2577,-0.92282 24.3147,-11.77756 25.0605,-26.29754 0.7014,-13.66185 -8.2444,-25.09051 -21.9812,-27.64104 -3.633,-0.67424 -7.2913,-0.90444 -10.954,-0.95109 z m -3.5183,11.75876 c 0.1236,0.002 0.251,0.0102 0.3858,0.0204 1.6243,0.1294 3.2639,-0.0102 4.895,0.034 12.1976,0.33031 19.1673,10.40655 15.2172,21.9878 -2.101,6.16012 -6.5739,9.44953 -13.1222,9.65044 -9.7492,0.29966 -9.7501,0.30408 -9.7501,-9.27134 0,-2.17595 -0.01,-4.34853 -0.01,-6.52449 0,-4.3485 0.079,-8.69727 -0.034,-13.04237 -0.054,-1.96973 0.5613,-2.8867 2.4143,-2.85323 z"
   style="fill:#bc955b;fill-opacity:1;stroke-width:3.40525" /><path
   id="path66"
   d="m 1327.5496,441.94515 c -17.2612,-0.0783 -30.2874,12.14812 -30.3147,28.45245 -0.024,15.99104 12.5655,28.51269 28.7983,28.63868 18.0682,0.14302 30.7412,-11.59702 30.8468,-28.57218 0.1021,-16.04553 -12.6481,-28.45085 -29.3304,-28.51895 z m -0.1263,12.68989 c 8.3463,0.0715 14.5352,6.80515 14.5454,15.82906 0.017,9.01369 -6.629,16.28342 -14.7981,16.19489 -8.3191,-0.0919 -14.785,-7.19383 -14.785,-16.23476 0,-9.09883 6.4462,-15.8607 15.0377,-15.78919 z"
   style="fill:#bc955b;fill-opacity:1;stroke-width:3.40525" /><path
   id="path68"
   d="m 1577.2301,532.54338 c -16.5597,0.0647 -29.6989,12.12513 -29.7227,27.2819 -0.031,17.34293 12.3925,29.78863 29.7626,29.81587 17.1727,0.0272 29.7265,-12.16593 29.7095,-28.84483 -0.017,-16.45076 -12.5086,-28.31764 -29.7494,-28.25294 z m 0.3924,12.37729 c 8.3736,0.13281 14.5899,7.13277 14.5389,16.36781 -0.054,8.94899 -6.3623,15.66639 -14.7051,15.65617 -8.6085,-0.0136 -14.9406,-7.03892 -14.8248,-16.44762 0.1089,-8.64252 6.9104,-15.70916 14.991,-15.57636 z"
   style="fill:#bc955b;fill-opacity:1;stroke-width:3.40525" /><path
   id="path70"
   d="m 2196.0609,623.14825 c -17.1795,0.017 -29.9193,12.06326 -29.909,28.29949 0,15.85143 13.1628,28.93303 28.8781,28.7185 18.1397,-0.25199 31.0236,-12.19607 30.9997,-28.72514 -0.027,-16.21579 -12.8336,-28.30984 -29.9688,-28.29285 z m 0.1661,12.37066 c 8.2986,-0.007 14.5714,6.77903 14.5987,15.78251 0.027,9.34059 -6.1604,16.2051 -14.5987,16.19488 -8.4484,-0.007 -14.9109,-6.93074 -14.9245,-15.9887 -0.014,-9.06817 6.4421,-15.98188 14.9245,-15.98869 z"
   style="fill:#bc955b;fill-opacity:1;stroke-width:3.40525" /><path
   id="path72"
   d="m 1662.9599,623.93306 c -2.0465,-0.0443 -2.9033,0.56033 -2.8931,2.76012 0.072,16.47119 0.061,32.94483 0,49.41601 -0.01,2.08061 0.6043,2.9006 2.7734,2.86654 8.4382,-0.12599 16.8989,0.24416 25.3132,-0.23939 13.3214,-0.76618 23.9427,-11.15409 24.9541,-23.75692 1.2395,-15.49047 -6.6407,-26.78435 -20.8372,-30.13512 -5.5301,-1.30761 -11.1116,-0.60889 -15.7359,-0.8779 -5.1454,0 -9.3588,0.0688 -13.5745,-0.0341 z m 13.9536,11.65899 c 0.112,10e-4 0.2237,0.003 0.3458,0.0136 1.4915,0.10556 2.9977,-6.4e-4 4.496,0.0272 12.8378,0.21453 19.9556,10.72824 15.43,22.7726 -2.0227,5.37008 -6.6328,8.64089 -12.5103,8.86563 -9.9739,0.37458 -9.9763,0.3768 -9.9763,-9.45756 0,-2.17596 0,-4.35181 0,-6.53117 0,-4.35531 0.076,-8.72029 -0.027,-13.0756 -0.042,-1.8133 0.5585,-2.63345 2.2413,-2.61381 z"
   style="fill:#bc955b;fill-opacity:1;stroke-width:3.40525" /><path
   id="path74"
   d="m 1406.8081,623.14825 c -16.6029,0.27412 -29.1378,11.58711 -29.5831,27.00257 -0.4937,17.05689 11.6321,29.43694 29.2372,29.85578 16.7777,0.40182 29.9652,-11.52394 30.4078,-27.50136 0.4495,-16.352 -11.7159,-28.90423 -28.4391,-29.35031 -0.5438,-0.0136 -1.0872,-0.017 -1.6228,-0.007 z m 0.6917,12.37066 c 8.0296,0.10215 14.669,7.46604 14.5056,16.10175 -0.1703,9.14309 -6.6352,15.94701 -15.1108,15.88231 -8.142,-0.0647 -15.0253,-7.61485 -14.8448,-16.28801 0.1873,-8.81279 7.0629,-15.80502 15.45,-15.69605 z"
   style="fill:#bc955b;fill-opacity:1;stroke-width:3.40525" /><path
   id="path76"
   d="m 2123.4267,623.81337 c -6.1091,-0.0787 -12.2459,0.38469 -18.3498,0.14642 -2.3667,-0.0919 -2.1283,1.50124 -2.1283,2.99955 v 24.0828 c 0,8.302 0.066,16.59888 -0.047,24.90088 -0.031,2.2747 0.6299,3.09036 2.9796,3.0461 8.1589,-0.14984 16.3397,0.18524 24.4885,-0.19955 13.9922,-0.66403 24.6208,-11.18502 25.6458,-24.88093 1.1033,-14.69024 -7.3842,-26.30867 -21.642,-29.09757 -3.6304,-0.71129 -7.2819,-0.95051 -10.9473,-0.99764 z m -2.7136,11.69222 c 0.3508,0.007 0.7345,0.0364 1.1439,0.0933 1.6039,0.21793 3.2408,0.17809 4.8685,0.23938 11.714,0.44269 16.5129,11.73136 13.7274,21.12984 -1.9376,6.5483 -6.814,10.22389 -13.9003,10.30221 -9.0069,0.10215 -9.0053,0.10522 -9.0053,-8.78582 v -6.92355 c 0,-3.9365 0.2367,-7.89592 -0.073,-11.81199 -0.2445,-3.10173 0.7836,-4.29548 3.2389,-4.24324 z"
   style="fill:#bc955b;fill-opacity:1;stroke-width:3.40525" /><path
   id="path78"
   d="m 1102.2046,533.24173 c -6.2002,-0.0671 -12.4249,0.32656 -18.6224,0.12633 -1.7435,-0.0579 -1.9421,1.02897 -1.9421,2.38766 0.01,16.74361 0.01,33.48708 0.01,50.23409 0,1.2974 0.1165,2.62092 1.8157,2.60048 4.0557,-0.0477 8.6855,1.4048 11.9716,-0.64515 2.2338,-1.39275 0.4759,-5.84402 0.7449,-8.91215 0.085,-0.94326 -0.042,-1.90657 0.034,-2.85323 0.061,-0.7832 0.031,-1.76674 0.4722,-2.29455 1.2566,-1.49491 10.1765,-0.27753 11.1403,1.48315 1.9546,3.57888 3.8499,7.18787 5.733,10.80765 0.7117,1.36891 1.3755,2.55148 3.2722,2.51402 4.5869,-0.0987 9.174,-0.034 14.6054,-0.034 -3.6675,-5.74465 -6.7616,-10.6968 -9.983,-15.56971 -1.1101,-1.6822 -1.0481,-2.686 0.6784,-4.00383 7.4507,-5.67314 8.6488,-13.48195 6.6908,-21.96783 -1.8559,-8.05342 -7.8349,-11.79977 -15.4899,-13.02906 -3.6981,-0.59636 -7.4068,-0.80436 -11.127,-0.84467 z m -0.2659,11.27324 c 2.2808,-0.0272 4.6625,0.37308 6.9036,0.7715 5.3122,0.94325 7.8369,4.87917 6.7506,10.09601 -0.5925,2.83998 -2.1963,4.88143 -5.1079,5.74636 -4.1203,1.22589 -8.332,0.57235 -12.5102,0.69835 -1.4541,0.0443 -1.7893,-0.88227 -1.7825,-2.11497 0.017,-2.16574 0.01,-4.33478 0.01,-6.95682 0.4053,-2.17936 -1.3485,-6.20872 0.7117,-7.19624 1.5419,-0.74044 3.254,-1.02321 5.028,-1.04419 z"
   style="fill:#bc955b;fill-opacity:1;stroke-width:3.40525" /><path
   id="path80"
   d="m 1804.996,442.67009 c -2.7693,0.0306 -3.3552,1.48288 -3.352,4.03045 0.031,15.78333 0.055,31.57091 -0.014,47.35424 -0.014,3.0545 0.9705,4.1845 4.2565,4.13683 10.3009,-0.14302 10.2878,0.0102 10.3355,-10.44853 0.01,-1.46426 -0.5173,-3.09946 0.4124,-4.36961 1.185,-1.62431 10.0754,-0.4561 11.0936,1.40997 2.0125,3.6981 3.9687,7.4277 5.8927,11.17347 0.6674,1.294 1.4177,2.19884 3.0727,2.16819 4.5903,-0.0749 9.1808,-0.0204 14.6053,-0.0204 -3.63,-5.7106 -6.7086,-10.66694 -9.9231,-15.53644 -1.1374,-1.71625 -0.9739,-2.656 0.7117,-3.97723 7.6209,-5.9694 8.9193,-14.08224 6.4845,-22.77924 -2.2508,-8.03979 -8.6719,-11.38102 -16.5074,-12.45708 -8.806,-1.20886 -17.6642,-0.20159 -26.4838,-0.67839 -0.2047,-0.0102 -0.4007,-0.0102 -0.5853,-0.007 z m 15.4434,11.63904 c 1.1877,-6.2e-4 2.7091,0.11782 4.6556,0.26595 3.2452,0.24517 6.593,0.0671 8.9188,3.02614 3.6061,4.58687 1.4716,11.59259 -4.1369,13.14879 -1.6651,0.46311 -3.4871,0.46863 -5.2408,0.47884 -8.4382,0.0545 -8.4333,0.0306 -8.4333,-8.4998 0,-6.91426 -0.01,-8.41774 4.2366,-8.42003 z"
   style="fill:#bc955b;fill-opacity:1;stroke-width:3.40525" /><path
   id="path82"
   d="m 935.14795,623.89982 c -2.47987,0.0569 -3.14481,1.09367 -3.11924,3.71782 0.12599,13.46095 0.0531,26.92642 0.0531,40.39078 0,11.63232 -6.8e-4,11.5728 11.80532,10.99391 2.15211,-0.10557 2.86194,-0.78917 2.7734,-2.87318 -0.12259,-2.98981 -0.0473,-5.98224 -0.0136,-8.97205 0.0102,-0.92282 -0.28093,-1.96425 0.49219,-2.72021 1.44379,-1.41655 10.14264,-0.16516 11.13357,1.63612 1.96142,3.5721 3.85722,7.18109 5.71308,10.80768 0.67084,1.31442 1.43446,2.12569 3.08601,2.09504 4.59368,-0.0953 9.18688,-0.034 14.49226,-0.034 -3.49038,-5.54715 -6.62954,-10.56754 -9.81004,-15.56304 -0.82748,-1.30421 -1.49253,-2.08422 0.32588,-3.53826 7.36555,-5.88086 9.77871,-14.94805 6.71739,-23.737 -2.49604,-7.15783 -9.40366,-11.74293 -18.65572,-11.99151 -8.15557,-0.22475 -16.31297,0.003 -24.46854,-0.20636 -0.18185,-0.003 -0.36011,-0.0102 -0.52543,-0.007 z m 19.4804,11.62573 c 1.62771,0.007 3.29165,-0.047 4.87509,0.25948 4.43364,0.86152 6.76732,3.93159 6.6243,8.4333 -0.13621,4.41664 -2.75992,7.22308 -7.30933,7.78154 -0.94325,0.11237 -1.89989,0.13791 -2.84658,0.21282 -9.3406,0.75597 -9.33781,0.7636 -9.33781,-8.54635 0,-8.15898 -10e-4,-8.17474 7.99433,-8.14069 z"
   style="fill:#bc955b;fill-opacity:1;stroke-width:3.40525" /><path
   id="path84"
   d="m 1473.5496,623.87323 c -6.0208,-0.0674 -12.0644,0.39024 -18.0704,0.0204 -3.4325,-0.20772 -3.978,1.12612 -3.944,4.15679 0.143,13.32473 0.06,26.65693 0.06,39.98507 0,11.26797 0,11.19561 11.3463,10.96064 2.3973,-0.0477 3.4589,-0.61451 3.2989,-3.19909 -0.1975,-3.1158 -0.054,-6.2517 -0.034,-9.37771 0,-1.08287 -0.034,-2.04635 1.4965,-2.42093 5.1589,-1.26335 8.9254,0.2983 11.4794,5.02805 1.3553,2.50967 2.7377,5.00779 3.9772,7.57535 0.7934,1.64814 1.8334,2.44231 3.771,2.38102 4.3417,-0.13281 8.6886,-0.0398 13.9735,-0.0398 -3.4325,-5.4484 -6.3472,-10.31518 -9.5107,-15.01102 -1.2974,-1.92396 -1.5099,-2.92909 0.6252,-4.51594 7.2974,-5.41434 8.1488,-13.27611 6.6641,-21.32271 -1.4063,-7.64137 -6.9466,-11.77763 -14.3326,-13.24192 -3.5819,-0.7087 -7.1885,-0.93712 -10.801,-0.97765 z m -0.685,11.56586 c 1.8967,0.0885 3.824,-0.007 5.6798,0.3126 4.4881,0.77299 7.0415,3.86349 6.9768,8.14733 -0.072,4.45403 -2.4817,7.19124 -6.9834,8.11406 -3.3712,0.69126 -6.7612,0.23905 -10.1426,0.39238 -1.8797,0.0817 -2.2522,-0.98023 -2.2147,-2.57389 0.061,-2.57777 0.01,-5.15394 0.01,-7.72831 0,-6.58575 0,-6.58926 6.6774,-6.66417 z"
   style="fill:#bc955b;fill-opacity:1;stroke-width:3.40525" /><path
   fill-rule="evenodd"
   clip-rule="evenodd"
   fill="#bb955b"
   d="m 1608.6128,470.28965 c 0,-8.03298 0.095,-16.06937 -0.055,-24.09554 -0.051,-2.64247 0.6913,-3.52783 3.4223,-3.49719 12.2521,0.13281 24.5042,0.1294 36.7528,0 2.6561,-0.0272 3.6811,0.80705 3.6471,3.4393 -0.1363,10.52222 1.0454,8.29859 -7.856,8.47226 -5.9864,0.12259 -11.983,0.16005 -17.966,-0.034 -2.7685,-0.0919 -3.4121,0.92623 -3.4019,3.51081 0.024,6.62321 -0.089,6.62321 6.6913,6.62321 5.5812,0 11.1624,0.0783 16.7436,-0.0409 2.1045,-0.0443 2.7583,0.60613 2.8332,2.76506 0.3031,8.72084 0.3848,8.70722 -8.2748,8.72424 -4.8967,0.0136 -9.8037,0.1907 -14.697,0.0579 -2.4314,-0.0647 -3.361,0.58911 -3.2895,3.1771 0.235,8.37691 -0.7832,6.70493 6.5381,6.82071 6.6709,0.10216 13.3452,0.12259 20.0126,-0.0272 2.6766,-0.0613 3.4938,0.85812 3.5245,3.52103 0.095,8.40755 0.2009,8.40415 -8.0534,8.40415 -10.7572,0 -21.511,-0.11918 -32.2648,0.0749 -3.2792,0.0579 -4.5187,-0.66402 -4.3961,-4.20888 0.2792,-7.88996 0.089,-15.79354 0.089,-23.68691 z"
   id="path86"
   style="fill:#bc955b;fill-opacity:1;stroke-width:3.40525" /><path
   fill-rule="evenodd"
   clip-rule="evenodd"
   fill="#bb955b"
   d="m 1865.3958,651.04364 c 0,-7.89677 0.095,-15.80035 -0.054,-23.69372 -0.051,-2.69696 0.8343,-3.47335 3.504,-3.44271 12.2555,0.1294 24.511,0.14643 36.7664,-0.007 2.9626,-0.0409 3.6198,0.98412 3.596,3.75259 -0.072,7.86612 0.051,7.86612 -7.9581,7.86612 -5.5846,0 -11.176,0.22815 -16.7436,-0.0817 -3.5687,-0.2009 -4.6618,1.12714 -4.1305,4.39278 0.02,0.1328 0,0.27242 0,0.40863 -0.01,5.35305 -0.01,5.35645 5.21,5.35986 5.5846,0.003 11.1692,0.13961 16.747,-0.0545 3.0511,-0.10556 4.403,0.58911 4.2702,4.02841 -0.3576,9.20439 1.1203,7.57668 -7.8525,7.73332 -4.8968,0.0885 -9.8071,0.30647 -14.6937,0.0783 -3.2656,-0.15324 -4.0863,1.22248 -3.6913,4.07268 0.075,0.53122 0.082,1.09649 0,1.63111 -0.521,3.28607 0.6198,4.51877 4.1442,4.38937 7.3417,-0.27583 14.7073,0.0306 22.0592,-0.14302 2.6868,-0.0647 3.4598,0.76277 3.4598,3.43589 0.01,8.176 0.1191,8.176 -8.0943,8.176 -11.0296,0 -22.0626,-0.0817 -33.0888,0.0579 -2.6834,0.034 -3.5483,-0.75937 -3.4972,-3.44951 0.1396,-8.1692 0.048,-16.34179 0.048,-24.51098 z"
   id="path88"
   style="fill:#bc955b;fill-opacity:1;stroke-width:3.40525" /><path
   fill-rule="evenodd"
   clip-rule="evenodd"
   fill="#bb955b"
   d="m 1464.5538,470.1943 c 0,-8.02617 0.1123,-16.05915 -0.061,-24.08191 -0.061,-2.76166 0.9126,-3.43249 3.5074,-3.40525 12.1124,0.11237 24.2215,0.1294 36.3306,-0.0102 2.7821,-0.034 3.7491,0.64359 3.7219,3.58913 -0.072,8.34627 0.068,8.34627 -8.3088,8.34627 -5.7174,0 -11.4314,0.10556 -17.142,-0.0477 -2.6118,-0.0715 -3.6198,0.70489 -3.5449,3.44271 0.2316,8.29859 -0.773,6.52105 6.6879,6.66407 5.5778,0.10556 11.159,0.11919 16.7334,-0.0272 2.3667,-0.0613 2.9421,0.80704 2.9966,3.05791 0.1975,8.4314 0.2759,8.41778 -8.1896,8.4348 -4.8967,0.0102 -9.7969,0.18729 -14.6902,0.0613 -2.5812,-0.0681 -3.9127,0.63337 -3.5006,3.42568 0.099,0.66402 0.099,1.36891 0,2.03634 -0.5244,3.46313 0.6402,4.81161 4.3961,4.64475 7.0625,-0.31328 14.1489,0.0477 21.2182,-0.15323 3.0749,-0.0851 4.2735,0.58911 4.185,3.98754 -0.2145,7.94785 -0.027,7.95126 -7.8831,7.95126 -11.0228,0 -22.0456,-0.0749 -33.065,0.0579 -2.6902,0.0306 -3.4938,-0.79683 -3.4427,-3.47676 0.1532,-8.16579 0.051,-16.33498 0.051,-24.49736 z"
   id="path90"
   style="fill:#bc955b;fill-opacity:1;stroke-width:3.40525" /><path
   fill-rule="evenodd"
   clip-rule="evenodd"
   fill="#bb955b"
   d="m 2047.6481,561.00887 c 0,-8.03298 0.1191,-16.06937 -0.068,-24.09894 -0.068,-2.92511 0.9228,-3.63681 3.7185,-3.60956 12.1193,0.13961 24.2385,0.12258 36.3544,0.0102 2.6493,-0.0272 3.8514,0.41885 3.8241,3.48698 -0.072,8.1147 0.082,8.1147 -8.1726,8.1147 -5.8536,0 -11.714,0.15664 -17.5609,-0.0647 -2.9659,-0.11237 -3.6878,0.96709 -3.5959,3.74237 0.269,8.05682 -0.9364,6.59597 6.6709,6.70834 5.5812,0.0817 11.1624,0.0919 16.747,-0.017 2.1283,-0.0443 2.748,0.69808 2.8366,2.81274 0.3609,8.66636 0.4358,8.64933 -8.0058,8.66636 -4.9001,0.0136 -9.8105,0.25879 -14.7004,0.0409 -3.0103,-0.13621 -3.647,1.01476 -3.5483,3.75258 0.2622,7.3962 -0.8241,6.13626 6.344,6.21799 6.6709,0.0715 13.3452,0.12599 20.0126,-0.0409 2.7276,-0.0681 3.9195,0.54825 3.7594,3.5687 -0.4631,8.86386 2.0364,8.29859 -8.1419,8.34967 -10.621,0.0579 -21.2454,-0.17367 -31.8595,0.10897 -3.9229,0.10216 -4.8116,-1.23951 -4.6925,-4.87632 0.2486,-7.61754 0.078,-15.24529 0.078,-22.87305 z"
   id="path92"
   style="fill:#bc955b;fill-opacity:1;stroke-width:3.40525" /><path
   fill-rule="evenodd"
   clip-rule="evenodd"
   fill="#bb955b"
   d="m 1835.8144,560.63429 c 0,-8.02957 0.089,-16.06255 -0.054,-24.08872 -0.044,-2.50286 0.7253,-3.25883 3.2282,-3.23499 12.5211,0.10897 25.0422,0.0987 37.5633,0.007 2.3053,-0.017 2.9966,0.70148 3.0647,3.00684 0.2452,8.59144 0.3303,8.58803 -8.1045,8.58803 -5.9864,0 -11.9797,0.11578 -17.9593,-0.0545 -2.571,-0.0715 -3.1873,0.84109 -3.1975,3.27585 -0.044,7.17826 -0.1499,7.17826 6.9978,7.17826 5.3087,0 10.6175,0.0919 15.9263,-0.0443 2.3394,-0.0579 3.3269,0.4529 3.3576,3.09878 0.1021,8.39053 0.2281,8.3735 -8.2577,8.39053 -4.8968,0.0136 -9.8037,0.23837 -14.6903,0.0409 -2.8195,-0.11237 -3.6198,0.9739 -3.2895,3.51763 0.1022,0.80363 0.1192,1.64814 0,2.44837 -0.4937,3.17369 0.7049,4.20889 3.9808,4.09651 7.2055,-0.25199 14.428,0.0715 21.6369,-0.14983 3.109,-0.0953 4.4269,0.78661 4.386,3.99095 -0.1192,9.83436 0.8275,7.83548 -7.5767,7.92742 -10.8866,0.11578 -21.78,-0.0409 -32.6665,0.0647 -3.1908,0.0341 -4.5494,-0.85131 -4.4303,-4.37915 0.269,-7.88315 0.089,-15.78332 0.089,-23.6801 z"
   id="path94"
   style="fill:#bc955b;fill-opacity:1;stroke-width:3.40525" /><path
   fill-rule="evenodd"
   clip-rule="evenodd"
   fill="#bb955b"
   d="m 1043.1407,533.35825 c 6.2588,0 12.5177,0.0851 18.7765,-0.0443 2.2917,-0.0477 2.9966,0.67083 3.0545,2.99662 0.2179,8.60165 0.3099,8.59825 -8.0602,8.59825 -6.1227,0 -12.2453,0.0647 -18.3679,-0.0341 -2.0806,-0.0306 -2.7923,0.62317 -2.8843,2.78209 -0.3166,7.655 -0.4052,7.6516 7.3724,7.6516 5.1726,0 10.3451,0.0885 15.5109,-0.0409 2.319,-0.0579 3.3508,0.43247 3.395,3.09197 0.143,8.39394 0.2622,8.37691 -8.2849,8.39394 -4.8968,0.0136 -9.7969,0.18388 -14.6903,0.0613 -2.4075,-0.0647 -3.3746,0.55846 -3.2997,3.16007 0.2384,8.31221 -0.7798,6.67088 6.5824,6.78326 6.6675,0.10215 13.3383,0.10556 20.0024,-0.0238 2.2645,-0.0443 3.0579,0.74915 3.2929,2.95575 0.9364,8.79236 0.8479,8.96602 -7.7367,8.96602 -10.747,-0.003 -21.4974,-0.0681 -32.2477,0.0341 -3.3065,0.034 -4.7061,-0.80364 -4.6516,-4.58347 0.2384,-15.64371 0.1805,-31.29083 0.031,-46.93794 -0.031,-3.02386 0.7321,-4.01479 3.8411,-3.8888 6.1124,0.2554 12.2419,0.0783 18.3646,0.0783 z"
   id="path96"
   style="fill:#bc955b;fill-opacity:1;stroke-width:3.40525" /><path
   fill-rule="evenodd"
   clip-rule="evenodd"
   fill="#bb945b"
   d="m 1727.9327,651.19687 c 0,-7.88996 0.126,-15.78673 -0.065,-23.66988 -0.072,-2.92511 0.933,-3.64702 3.7185,-3.61978 12.2453,0.13281 24.4872,0.10216 36.729,0.017 2.3224,-0.017 3.378,0.41544 3.4359,3.09537 0.1873,8.4995 0.3065,8.4961 -8.1555,8.4961 -5.9865,0 -11.9763,0.1294 -17.9559,-0.0613 -2.6016,-0.0783 -3.2248,0.82748 -3.1499,3.26563 0.2486,8.3701 -0.9739,6.71856 6.8991,6.85817 5.4416,0.0954 10.8831,0.10557 16.3247,-0.0238 2.3122,-0.0579 2.9762,0.73894 3.0307,3.03748 0.2009,8.72084 0.286,8.70041 -8.3326,8.72425 -4.8968,0.017 -9.7935,0.21793 -14.6869,0.0953 -2.4688,-0.0613 -3.2588,0.66743 -3.2588,3.21115 0,6.76623 -0.1362,6.76623 6.5517,6.76623 6.8003,0 13.604,0.0715 20.4042,-0.0409 2.21,-0.0375 3.0614,0.52441 3.1397,2.92851 0.2622,8.66636 0.3609,8.66295 -8.4382,8.66295 -10.747,0 -21.4974,-0.13621 -32.2409,0.0783 -3.3303,0.0681 -4.1033,-1.02838 -4.0216,-4.16121 0.2111,-7.87634 0.072,-15.77311 0.072,-23.65967 z"
   id="path98"
   style="fill:#bc955b;fill-opacity:1;stroke-width:3.40525" /><path
   fill-rule="evenodd"
   clip-rule="evenodd"
   fill="#bb945b"
   d="m 1516.0411,651.33649 c 0,-7.89337 0.1022,-15.79354 -0.058,-23.6835 -0.058,-2.74463 0.5891,-3.79345 3.5687,-3.75599 12.2521,0.16004 24.5008,0.1328 36.7529,0.0136 2.5233,-0.0238 3.2009,0.74575 3.2247,3.23839 0.068,8.3667 0.1737,8.3667 -8.2236,8.3667 -5.7174,0 -11.4383,0.14983 -17.1489,-0.0647 -2.908,-0.10557 -3.9603,0.89898 -3.5891,3.70491 0.126,0.93303 0.1226,1.91715 0,2.85359 -0.3848,2.93873 0.9637,3.70832 3.739,3.63681 6.2554,-0.14983 12.5211,0.0511 18.7799,-0.0136 2.8809,-0.0306 3.9739,0.92623 3.9024,4.04884 -0.1668,7.61073 0.01,7.59711 -7.7095,7.62776 -5.1725,0.0204 -10.3451,0.21793 -15.5143,0.10215 -2.5301,-0.0579 -3.4597,0.85472 -3.2009,3.3065 0.1294,1.21227 0.126,2.45859 0,3.67086 -0.235,2.30535 0.6913,3.07153 3.0068,3.03748 7.621,-0.11238 15.2487,0.0919 22.8663,-0.10556 2.9523,-0.0783 3.9977,0.5857 3.9262,3.7662 -0.1736,7.8491 0,7.8525 -7.9751,7.8525 -10.6141,0 -21.2351,-0.13961 -31.8492,0.0749 -3.453,0.0715 -4.7606,-0.63338 -4.6073,-4.4098 0.3337,-7.73672 0.1055,-15.5109 0.1055,-23.26806 z"
   id="path100"
   style="fill:#bc955b;fill-opacity:1;stroke-width:3.40525" /><path
   fill-rule="evenodd"
   clip-rule="evenodd"
   fill="#bb955b"
   d="m 1784.3236,462.19537 c 0,4.76735 0.072,9.53811 -0.017,14.29864 -0.2418,12.53472 -8.3905,21.32367 -20.898,22.43378 -5.1794,0.45971 -10.3486,0.24518 -15.2487,-1.84565 -8.7992,-3.7628 -13.3827,-10.64821 -13.7062,-19.99902 -0.3677,-10.47454 -0.058,-20.96952 -0.1259,-31.45428 -0.014,-2.00569 0.4767,-2.81614 2.7003,-2.93192 11.9354,-0.62656 11.932,-0.69126 11.932,11.28159 0,7.08292 -0.072,14.16583 0.031,21.24534 0.099,6.90244 4.3995,11.43483 10.6209,11.43142 6.1363,-0.003 10.0046,-4.16462 10.117,-11.31904 0.1464,-9.26228 0.143,-18.52115 0,-27.78002 -0.054,-3.51081 0.7662,-5.02955 4.764,-4.90696 9.8275,0.29285 9.8343,0.0715 9.8343,9.74241 0,3.26904 0,6.53808 0,9.80371 z"
   id="path102"
   style="fill:#bc955b;fill-opacity:1;stroke-width:3.40525" /><path
   fill-rule="evenodd"
   clip-rule="evenodd"
   fill="#bb945b"
   d="m 1230.225,462.20559 c 0,4.62773 0.024,9.25547 -0.01,13.87979 -0.075,12.61304 -7.8253,21.37475 -20.4213,22.78792 -5.7174,0.64019 -11.4144,0.29286 -16.7572,-2.26789 -8.1624,-3.91263 -12.3202,-10.63119 -12.6233,-19.43716 -0.3643,-10.59713 -0.095,-21.2181 -0.1838,-31.83226 -0.017,-1.92056 0.6231,-2.80933 2.5777,-2.58458 0.1328,0.017 0.269,0.007 0.4052,0 11.755,-0.50057 11.755,-0.50057 11.755,11.33947 0,7.07611 -0.031,14.14881 0.01,21.22492 0.034,6.62661 4.1714,11.16921 10.2498,11.33607 6.2384,0.17367 10.3213,-3.98414 10.4132,-10.9615 0.1226,-9.38486 0.085,-18.77654 0.021,-28.1614 -0.024,-3.33374 0.7151,-5.03296 4.7673,-4.89675 9.7867,0.3235 9.7969,0.0817 9.7969,9.77307 0,3.27244 0,6.53807 0,9.8003 z"
   id="path104"
   style="fill:#bc955b;fill-opacity:1;stroke-width:3.40525" /><path
   id="path106"
   d="m 1737.1105,533.28164 c -2.7991,-0.0272 -4.0691,0.91618 -5.1145,3.3986 -6.2588,14.90818 -12.6636,29.75033 -19.0348,44.60743 -3.1635,7.38258 -3.1811,7.3758 4.7088,7.3758 6.9978,0 7.1026,0.0443 9.5374,-6.24516 0.9637,-2.48583 2.1574,-3.63506 5.028,-3.47842 5.159,0.27582 10.3545,0.3441 15.5032,-0.007 3.6675,-0.24859 5.547,1.01176 6.2518,4.52261 0.8139,4.03178 3.0666,6.14715 7.4424,5.22093 0.6538,-0.13621 1.3575,-0.0136 2.0352,-0.0136 0.9568,0 1.9065,-1.4e-4 2.8532,0.007 5.2168,-0.007 5.2521,-0.017 3.2124,-4.88837 -5.6051,-13.40987 -11.2412,-26.81157 -16.8667,-40.21122 -4.3246,-10.29407 -4.3327,-10.17992 -15.5564,-10.28889 z m 3.4651,15.34357 c 2.3394,6.04772 4.4034,11.45631 6.5112,16.84001 0.613,1.56301 0.2336,2.32371 -1.5097,2.21474 -0.1362,-0.0102 -0.2728,-0.0102 -0.4057,0 -12.2725,0.88536 -12.279,0.88478 -7.9611,-10.47513 0.9977,-2.63225 2.0543,-5.24929 3.3653,-8.57962 z"
   style="fill:#bc955b;fill-opacity:1;stroke-width:3.40525" /><path
   id="path108"
   d="m 1986.5383,442.69004 c -2.605,0 -3.7576,0.89538 -4.7553,3.27224 -6.4121,15.29978 -13.0191,30.5126 -19.547,45.7647 -2.7276,6.37119 -2.6685,5.94267 4.0637,6.50454 5.9762,0.49716 9.9617,-0.74558 11.0139,-7.2428 0.3337,-2.05336 1.7095,-2.70526 3.8242,-2.63375 4.6243,0.16345 9.266,0.0531 13.8937,0.0531 6.7901,0 6.9115,-0.0426 9.2713,6.45135 0.8854,2.42794 2.0496,3.46211 4.6955,3.30547 3.7935,-0.22134 7.6079,-0.0599 12.0381,-0.0599 -0.7423,-1.97164 -1.2137,-3.36667 -1.7824,-4.72877 -5.6187,-13.41327 -11.2747,-26.82113 -16.8866,-40.23781 -4.403,-10.53584 -4.3806,-10.45874 -15.8291,-10.44853 z m 3.658,15.41676 c 2.4824,6.45635 4.5338,11.82598 6.611,17.18584 0.647,1.67538 -0.3434,1.79249 -1.5829,1.78908 -3.9229,-0.017 -7.8478,-0.007 -12.3973,-0.007 2.428,-6.24863 4.6859,-12.06244 7.3692,-18.96829 z"
   style="fill:#bc955b;fill-opacity:1;stroke-width:3.40525" /><path
   id="path110"
   d="m 1266.867,623.89982 c -2.5573,-0.007 -3.8376,0.75165 -4.8285,3.15916 -3.6641,8.92856 -7.5927,17.74938 -11.393,26.62345 -3.521,8.22368 -7.0087,16.46087 -10.7544,25.26003 2.9591,0 5.3641,0.003 7.7682,0 6.9978,0 7.0331,0.0136 9.7369,-6.49125 0.7355,-1.77414 1.5133,-2.97745 3.771,-2.92637 6.2623,0.1328 12.5265,0.0916 18.7887,0.0136 1.815,-0.0204 3.0076,0.70564 3.2324,2.38102 0.916,6.7492 5.2452,7.94567 11.0205,7.04328 1.0624,-0.16686 2.1862,-0.1294 3.2589,0 3.269,0.39841 3.9537,-0.43615 2.5473,-3.67794 -5.8945,-13.59035 -11.5548,-27.28418 -17.279,-40.94944 -4.3928,-10.49498 -4.3797,-10.41478 -15.869,-10.43521 z m 3.6846,15.2704 c 2.3394,6.06475 4.3365,11.39886 6.458,16.6804 0.7389,1.83543 0.2912,2.48141 -1.6361,2.45417 -3.2656,-0.0579 -6.541,-0.0473 -9.8101,-0.007 -1.6209,0.0204 -2.3527,-0.57712 -1.7159,-2.20142 2.1249,-5.41094 4.283,-10.81408 6.7041,-16.9265 z"
   style="fill:#bc955b;fill-opacity:1;stroke-width:3.40525" /><path
   id="path112"
   d="m 1150.1575,623.89982 c -2.554,-0.003 -3.9077,0.76884 -4.8884,3.15252 -3.4598,8.42117 -7.119,16.75351 -10.7013,25.12702 -3.7288,8.71743 -7.4554,17.43953 -11.4395,26.7631 3.2963,0 5.7732,-0.26016 8.1739,0.0531 4.9853,0.64699 8.3221,-0.64595 9.2381,-6.14542 0.3099,-1.83884 1.246,-3.41366 3.8442,-3.33875 6.2554,0.1907 12.5166,0.10148 18.7754,0.0341 1.7843,-0.0204 2.9432,0.61727 3.219,2.37437 1.0216,6.53468 5.1635,8.0749 11.0206,7.04992 0.9262,-0.16345 1.9167,-0.12225 2.8532,-0.007 3.6027,0.44609 4.4469,-0.43645 2.8532,-4.09028 -5.8604,-13.44392 -11.3963,-27.03464 -17.0728,-40.56369 -4.3962,-10.48136 -4.4034,-10.395 -15.8756,-10.40862 z m 3.6313,15.21053 c 2.3905,6.21121 4.5234,11.70589 6.6176,17.22579 0.5483,1.44042 -0.1835,1.96218 -1.5696,1.95536 -3.3814,-0.0204 -6.7611,-0.0409 -10.1425,0.007 -2.1998,0.0306 -2.0496,-1.06813 -1.4366,-2.60049 2.0976,-5.2543 4.1509,-10.52937 6.5311,-16.58731 z"
   style="fill:#bc955b;fill-opacity:1;stroke-width:3.40525" /><path
   id="path114"
   d="m 1017.9979,623.87987 c -2.8536,-0.0204 -3.9797,1.06346 -5.0081,3.50502 -6.109,14.52339 -12.3844,28.97444 -18.60916,43.45015 -3.49037,8.11131 -3.48302,7.79128 5.22761,8.22715 4.81505,0.24177 7.72055,-0.91438 8.61955,-5.88604 0.5108,-2.83316 2.2712,-3.8448 5.2542,-3.67794 4.8831,0.26902 9.8362,0.461 14.6784,-0.0531 3.9978,-0.42566 6.1722,0.60787 6.8771,4.60904 0.7083,4.02841 3.0932,5.71881 7.1829,4.90836 0.6538,-0.1294 1.3575,-0.0204 2.0352,-0.0204 h 3.2655 c 4.9547,-0.0102 4.988,-0.0204 3.1525,-4.40952 -5.5982,-13.40646 -11.208,-26.80829 -16.8266,-40.20454 -4.3996,-10.49157 -4.4109,-10.37021 -15.8491,-10.44853 z m 3.5649,15.2438 c 2.4415,6.25884 4.4942,11.53204 6.5577,16.80677 0.6437,1.63793 0.4244,2.48611 -1.6494,2.40097 -3.1192,-0.1328 -6.2552,-0.14983 -9.371,0 -2.2986,0.10897 -2.9082,-0.48947 -1.982,-2.73352 2.1079,-5.13512 4.0542,-10.33115 6.4447,-16.47422 z"
   style="fill:#bc955b;fill-opacity:1;stroke-width:3.40525" /><path
   id="path116"
   d="m 2056.3858,623.87987 c -3.1328,-0.0443 -4.4724,1.12632 -5.62,3.86414 -6.1941,14.77197 -12.5819,29.45424 -18.8885,44.17513 -3.0034,7.01481 -2.9824,7.02332 4.802,7.02332 7.0318,0 7.1356,0.0433 9.7236,-6.48461 0.9092,-2.29173 2.1793,-2.99417 4.5425,-2.93968 5.9796,0.12599 11.9711,0.0661 17.9507,-0.0599 1.5698,-0.0341 2.7975,0.14949 3.0461,1.85563 1.0863,7.36895 5.918,8.56402 12.2177,7.66844 1.849,-0.2622 3.7712,-0.0398 6.3183,-0.0398 -6.4768,-15.48026 -12.6413,-30.23499 -18.8286,-44.98653 -4.2123,-10.04889 -4.2274,-9.91601 -15.2638,-10.07606 z m 3.1725,15.2438 c 2.605,6.78666 4.8871,12.73873 7.3559,19.16783 -4.4098,0 -8.1887,-0.10998 -11.9583,0.0467 -2.4552,0.0987 -2.7402,-0.73629 -1.8889,-2.80668 2.0977,-5.11127 4.0736,-10.27486 6.4913,-16.40771 z"
   style="fill:#bc955b;fill-opacity:1;stroke-width:3.40525" /><path
   fill-rule="evenodd"
   clip-rule="evenodd"
   fill="#bb945b"
   d="m 1718.129,481.29541 c 0,1.3621 0,2.7242 0,4.0863 0,7.55625 -0.014,7.5256 -7.2804,10.47454 -8.0398,3.26904 -16.2737,4.39959 -24.7153,1.941 -13.192,-3.83772 -21.1398,-15.46664 -20.3123,-29.43497 0.7491,-12.63688 10.5392,-23.30893 23.5575,-25.67898 9.6981,-1.76732 18.5722,0.27583 26.881,5.49267 2.5437,1.60046 2.6152,2.88084 0.613,4.94442 -1.9853,2.04996 -3.2827,5.13511 -5.6153,6.36441 -2.7991,1.47447 -4.5017,-2.3973 -7.0863,-3.29628 -6.4359,-2.23725 -12.5552,-2.70037 -18.0547,2.02271 -5.2406,4.49493 -6.1158,10.55968 -4.7162,16.8049 1.3995,6.24183 5.7446,10.01143 12.0341,11.40078 3.7799,0.83088 7.2498,-0.33712 10.7027,-1.69241 1.4098,-0.55506 1.6584,-1.56301 1.6345,-2.89787 -0.051,-2.99321 0.082,-5.99664 -0.048,-8.98645 -0.089,-2.13849 0.3745,-3.10899 2.8638,-3.19072 9.5449,-0.30647 9.5415,-0.40522 9.5415,9.18736 0,0.82748 0,1.64133 0,2.45859 z"
   id="path118"
   style="fill:#bc955b;fill-opacity:1;stroke-width:3.40525" /><path
   fill-rule="evenodd"
   clip-rule="evenodd"
   fill="#bb955b"
   d="m 1572.3128,441.78432 c 6.8105,0.17707 13.1715,1.85245 19.2193,4.90355 1.8456,0.92623 2.2985,1.91035 1.2633,3.77642 -1.5051,2.7242 -2.1385,6.5517 -4.3859,8.07725 -2.3803,1.6175 -5.2305,-1.77073 -8.016,-2.59139 -3.6606,-1.07606 -7.26,-2.30195 -11.159,-1.96142 -1.9001,0.16345 -3.5108,0.75937 -4.0386,2.78208 -0.5176,2.00229 0.5278,3.4393 2.1044,4.46769 2.6561,1.73668 5.7821,2.31216 8.7243,3.33714 2.6867,0.93645 5.4654,1.65155 8.0738,2.77188 5.6391,2.42113 9.344,6.40527 9.7084,12.89227 0.395,7.08632 -2.3258,12.41553 -8.6834,15.74586 -10.1919,5.34284 -28.8935,2.92511 -37.4033,-4.84566 -0.4801,-0.43928 -1.2837,-1.2327 -1.1577,-1.51193 1.5562,-3.45974 3.1158,-6.92968 5.0023,-10.21234 0.6129,-1.06585 1.6345,0.23155 2.3326,0.72531 4.1476,2.94554 8.6289,5.1249 13.6039,6.28609 2.2918,0.53463 4.6039,0.6504 6.882,0.24518 1.9172,-0.34052 3.6471,-1.14757 4.008,-3.45973 0.3439,-2.19979 -0.6776,-3.6947 -2.4484,-4.7333 -2.731,-1.59706 -5.8638,-2.10444 -8.8127,-3.11239 -2.9524,-1.00455 -6.0069,-1.79798 -8.8128,-3.1124 -10.5154,-4.91718 -11.8299,-18.79016 -2.5335,-25.83562 4.9069,-3.71853 10.6312,-4.53239 16.529,-4.63454 z"
   id="path120"
   style="fill:#bc955b;fill-opacity:1;stroke-width:3.40525" /><path
   fill-rule="evenodd"
   clip-rule="evenodd"
   fill="#bb955b"
   d="m 2278.0369,532.43203 c 6.8071,-0.11578 13.1205,1.74008 19.2125,4.65157 2.0704,0.99092 2.4585,2.04655 1.328,4.05224 -1.529,2.70377 -2.1317,6.64364 -4.3791,8.02958 -2.2032,1.35529 -5.2135,-1.86267 -8.0092,-2.74123 -3.252,-1.02157 -6.47,-2.07039 -9.9399,-1.89672 -2.1896,0.11237 -4.5971,0.0375 -5.1079,2.90808 -0.5006,2.82976 1.3996,4.32467 3.6641,5.15895 4.328,1.59706 8.7549,2.92511 13.117,4.43704 5.2202,1.80478 9.5381,4.62773 11.1828,10.33152 2.9217,10.13402 -3.126,19.34182 -14.3872,21.38837 -10.6039,1.92737 -20.4927,-0.21453 -29.6256,-5.99324 -2.3769,-1.50171 -3.1397,-3.01705 -1.5085,-5.5846 1.5153,-2.39389 2.1521,-6.11583 4.2259,-7.16465 1.8592,-0.93644 4.3042,2.45178 6.7049,3.60276 4.3281,2.07379 8.7038,3.88198 13.5801,3.84112 2.6527,-0.0238 5.4382,-0.48355 6.1567,-3.57551 0.7969,-3.4325 -1.8218,-4.93421 -4.437,-5.87746 -4.4677,-1.60728 -9.0954,-2.75485 -13.5529,-4.36894 -7.1136,-2.57777 -10.4201,-6.90584 -10.5869,-13.37581 -0.1941,-7.5256 3.1226,-12.72542 10.0182,-15.70501 3.7458,-1.61409 6.8786,-2.15212 12.344,-2.11806 z"
   id="path122"
   style="fill:#bc955b;fill-opacity:1;stroke-width:3.40525" /><path
   fill-rule="evenodd"
   clip-rule="evenodd"
   fill="#bb955b"
   d="m 1000.1017,441.80815 c 6.7867,0.0477 13.1443,1.77414 19.2397,4.72308 1.9853,0.96028 2.6016,2.00229 1.5051,4.05225 -1.4745,2.75484 -2.084,6.64023 -4.3281,8.12492 -2.2781,1.49831 -5.1555,-1.89332 -7.941,-2.72079 -3.6572,-1.08628 -7.2498,-2.35643 -11.159,-1.97845 -1.86608,0.18048 -3.60616,0.68786 -4.1544,2.67652 -0.59592,2.15893 0.55846,3.77642 2.39729,4.68222 2.05677,1.01476 4.24294,1.81159 6.42911,2.51988 3.7492,1.20887 7.5733,2.18958 11.125,3.94669 5.1453,2.54712 8.2475,6.4291 8.6254,12.36786 0.4155,6.57553 -1.7741,11.83664 -7.5426,15.17719 -7.4915,4.33488 -15.58921,4.39277 -23.755,2.51648 -5.0602,-1.16119 -9.81052,-3.20434 -14.10113,-6.23161 -1.50172,-1.05903 -2.32919,-1.98526 -1.15098,-3.93646 1.61069,-2.66291 2.24406,-6.66748 4.51877,-7.98531 2.41092,-1.39275 4.68903,2.62885 7.36896,3.70491 4.43022,1.77413 8.75489,3.78323 13.70958,3.41546 2.5845,-0.1941 5.101,-0.70829 5.6322,-3.67085 0.5313,-2.94895 -1.5766,-4.55623 -3.9807,-5.41775 -4.98189,-1.78095 -10.11019,-3.16007 -15.06142,-5.02275 -4.36212,-1.63792 -7.73332,-4.49492 -9.08861,-9.24524 -2.16914,-7.57328 0.89218,-14.88435 7.92061,-18.65736 4.29402,-2.30535 8.94899,-3.10559 13.79122,-3.04089 z"
   id="path124"
   style="fill:#bc955b;fill-opacity:1;stroke-width:3.40525" /><path
   fill-rule="evenodd"
   clip-rule="evenodd"
   fill="#bb955b"
   d="m 983.6646,589.32692 c -8.12492,-0.007 -15.49728,-2.39049 -22.29076,-6.80369 -2.00909,-1.30761 -3.00342,-2.4041 -1.44723,-4.81843 1.60728,-2.49604 2.17936,-6.41548 4.34851,-7.58348 2.13509,-1.14757 4.53919,2.50966 7.08291,3.64361 4.11695,1.83543 8.21687,3.68108 12.81055,3.68789 2.90467,0.003 6.01026,-0.2554 6.64023,-3.94328 0.59933,-3.51762 -2.15893,-4.72649 -4.76394,-5.62888 -4.35872,-1.51193 -8.86386,-2.61863 -13.18172,-4.22591 -7.49835,-2.7923 -10.80485,-7.49155 -10.69929,-14.61192 0.10216,-6.9399 4.11695,-12.55856 11.24073,-14.88775 10.65161,-3.47676 20.89801,-1.83883 30.77321,3.11581 1.6652,0.83428 2.1658,1.69921 1.2123,3.46994 -1.4813,2.74463 -2.0568,6.54149 -4.2838,8.16919 -2.63908,1.93759 -5.42798,-1.67538 -8.28499,-2.51307 -3.68107,-1.07606 -7.29744,-2.14531 -11.17943,-1.83202 -1.89332,0.14983 -3.53464,0.74575 -3.99435,2.80933 -0.44609,1.99888 0.59592,3.38822 2.23724,4.38936 2.94214,1.79116 6.30993,2.4654 9.50746,3.58232 2.42794,0.84791 4.9342,1.51874 7.28382,2.54713 5.97625,2.61523 9.51765,6.95011 9.63685,13.78444 0.126,7.22254 -3.2111,12.15674 -9.5415,15.24871 -4.13397,2.0159 -8.60506,2.35983 -13.1068,2.4007 z"
   id="path126"
   style="fill:#bc955b;fill-opacity:1;stroke-width:3.40525" /><path
   fill-rule="evenodd"
   clip-rule="evenodd"
   fill="#bb945b"
   d="m 1428.1312,589.26222 c -6.8752,-0.11578 -14.0977,-2.57097 -20.7277,-6.95352 -1.7469,-1.15438 -2.3973,-2.25087 -1.1885,-4.2804 1.5256,-2.56074 2.0943,-6.39165 4.2634,-7.68224 2.605,-1.55279 4.7197,2.44838 7.352,3.52443 4.2974,1.75371 8.4995,3.70491 13.2566,3.58573 2.8195,-0.0715 5.7549,-0.62997 6.2997,-3.96711 0.5176,-3.18391 -2.0568,-4.54601 -4.5528,-5.42456 -4.4711,-1.58004 -9.092,-2.76507 -13.5325,-4.42683 -7.3179,-2.74803 -10.8185,-7.48133 -10.8695,-14.16924 -0.054,-6.66747 3.7696,-12.5279 10.5733,-15.00692 11.0193,-4.0182 21.6539,-2.22704 31.8833,3.02045 1.2974,0.66402 1.8967,1.51193 0.9603,2.90808 -0.1464,0.22134 -0.1907,0.51079 -0.3065,0.75597 -1.3144,2.68333 -1.9853,6.2316 -4.1135,7.82185 -2.6221,1.95462 -5.1726,-1.69241 -7.9206,-2.45859 -3.6777,-1.02838 -7.2668,-2.25768 -11.1624,-1.95461 -2.0057,0.15664 -3.8991,0.5857 -4.4064,2.86041 -0.504,2.24746 1.0215,3.58573 2.6969,4.57325 2.5948,1.52555 5.5472,2.16233 8.3906,3.06813 2.5845,0.82066 5.1589,1.70262 7.6686,2.7276 6.218,2.54032 9.8582,6.89903 9.9739,13.93428 0.1192,7.22253 -3.0885,12.23846 -9.5483,15.184 -4.3927,2.00229 -9.0443,2.857 -14.9899,2.35984 z"
   id="path128"
   style="fill:#bc955b;fill-opacity:1;stroke-width:3.40525" /><path
   fill-rule="evenodd"
   clip-rule="evenodd"
   fill="#bb945b"
   d="m 1514.3691,532.44565 c 6.6743,-0.20432 12.8651,1.59706 18.8549,4.39277 2.2713,1.05903 3.1907,2.18957 1.7094,4.64816 -1.5255,2.54372 -2.0908,6.2895 -4.2497,7.65841 -2.1896,1.38934 -4.9717,-1.77414 -7.6346,-2.59821 -3.6504,-1.12032 -7.2463,-2.29854 -11.1454,-2.01591 -2.0397,0.14643 -3.9058,0.66403 -4.3961,2.88766 -0.4836,2.17935 0.899,3.74917 2.6765,4.55622 2.7072,1.22248 5.5778,2.0806 8.3871,3.07834 2.6868,0.95007 5.4348,1.75371 8.0602,2.8502 6.0818,2.53691 9.5415,7.05226 9.6641,13.77422 0.1192,6.73899 -2.7957,11.76514 -8.8434,14.8571 -10.2634,5.24749 -28.9514,2.76847 -37.4066,-4.9342 -0.4904,-0.44609 -1.3996,-0.86834 -1.0965,-1.52215 1.597,-3.44611 3.1907,-6.90584 5.101,-10.17488 0.6504,-1.11011 1.6482,0.28264 2.3122,0.76618 4.4677,3.2452 9.3712,5.48245 14.7788,6.57554 4.9103,0.99092 9.4938,-0.56528 9.7151,-3.54827 0.3474,-4.77076 -3.7491,-5.41775 -6.9909,-6.55851 -3.9637,-1.39275 -8.1147,-2.29173 -12.0035,-3.85134 -5.5097,-2.21341 -9.2249,-5.98302 -9.6369,-12.41553 -0.4325,-6.82412 2.2032,-11.89113 8.016,-15.3134 4.3417,-2.55735 9.1465,-3.29969 14.1283,-3.1124 z"
   id="path130"
   style="fill:#bc955b;fill-opacity:1;stroke-width:3.40525" /><path
   fill-rule="evenodd"
   clip-rule="evenodd"
   fill="#bb945b"
   d="m 1918.0852,532.45246 c 6.6811,-0.24858 12.865,1.61749 18.8719,4.35531 2.2576,1.02839 3.2009,2.18617 1.7366,4.65157 -1.5187,2.55394 -2.0806,6.2929 -4.2429,7.68565 -2.1998,1.41998 -4.9717,-1.7503 -7.6175,-2.60502 -3.7799,-1.21567 -7.5256,-2.29854 -11.5541,-1.96823 -1.9171,0.16004 -3.5346,0.80364 -4.0284,2.80933 -0.4971,2.01931 0.7322,3.40865 2.2781,4.37574 2.6732,1.67538 5.7958,2.2679 8.7379,3.28947 2.8196,0.97731 5.7038,1.80819 8.4416,2.983 5.9286,2.54031 9.2146,7.14762 9.3849,13.59716 0.1703,6.51764 -2.6731,11.56081 -8.4825,14.70045 -10.1817,5.50969 -29.1591,3.10559 -37.7812,-4.69924 -0.4972,-0.44949 -1.3859,-0.88536 -1.0897,-1.52555 1.58,-3.44952 3.1567,-6.91947 5.0568,-10.19531 0.6504,-1.12374 1.6345,0.28944 2.2985,0.76618 4.2532,3.0545 8.8877,5.22024 14.0024,6.35078 0.6606,0.14643 1.3247,0.29967 1.9955,0.37118 4.5767,0.49716 8.2237,-0.94666 8.5233,-3.70151 0.4768,-4.39958 -3.1294,-5.1896 -6.1975,-6.23501 -4.2395,-1.43701 -8.6051,-2.52669 -12.7595,-4.17483 -5.5403,-2.18958 -9.235,-5.94897 -9.6641,-12.3883 -0.4529,-6.82071 2.1215,-11.89793 7.9683,-15.3134 4.3519,-2.53691 9.1363,-3.33714 14.1216,-3.12942 z"
   id="path132"
   style="fill:#bc955b;fill-opacity:1;stroke-width:3.40525" /><path
   fill-rule="evenodd"
   clip-rule="evenodd"
   fill="#bb955b"
   d="m 1597.8556,679.86907 c -8.4484,0.0715 -16.0183,-2.54373 -23.0433,-7.10335 -1.8218,-1.18503 -2.3428,-2.23385 -1.1816,-4.2157 1.5085,-2.57096 2.1078,-6.37803 4.2804,-7.68565 2.6663,-1.60046 4.7809,2.43476 7.4404,3.51763 4.4269,1.80478 8.7583,3.87857 13.6449,3.55167 2.5539,-0.17026 5.4688,-0.73553 5.8059,-4.04544 0.3235,-3.16347 -2.1112,-4.52557 -4.6413,-5.38369 -4.4984,-1.52555 -9.1431,-2.6595 -13.5768,-4.33829 -8.8434,-3.34736 -12.4836,-10.55286 -9.8786,-19.15452 1.6822,-5.56418 5.7447,-8.94218 11.05,-10.56989 10.5529,-3.23499 20.6733,-1.5562 30.3646,3.42227 0.1192,0.0613 0.2929,0.0954 0.3508,0.19751 2.6084,4.51536 -2.1794,7.04886 -2.9149,10.69248 -0.4801,2.35643 -2.0772,1.34848 -3.4189,0.64359 -3.8786,-2.02272 -7.9308,-3.5653 -12.2691,-4.24975 -1.3348,-0.21113 -2.7174,-0.3916 -4.0454,-0.26221 -1.941,0.18729 -3.8548,0.79683 -4.369,3.01365 -0.5175,2.23044 0.8582,3.79345 2.6391,4.58006 3.092,1.3655 6.3508,2.36665 9.5517,3.50059 2.1726,0.76959 4.403,1.39956 6.5347,2.2713 6.8207,2.7855 9.8786,7.29745 9.8786,14.37356 0,7.08291 -3.395,12.30997 -9.8718,14.97628 -1.8763,0.7764 -3.8411,1.44042 -5.8298,1.79457 -2.1317,0.37798 -4.3348,0.3303 -6.5006,0.47333 z"
   id="path134"
   style="fill:#bc955b;fill-opacity:1;stroke-width:3.40525" /><path
   fill-rule="evenodd"
   clip-rule="evenodd"
   fill="#bb945b"
   d="m 1948.2012,622.90607 c 6.8173,-0.0306 13.1374,1.78095 19.2192,4.75713 1.8967,0.92964 2.302,1.93759 1.3451,3.77642 -1.4438,2.76506 -2.0772,6.55851 -4.3145,8.14195 -2.3598,1.66857 -5.1453,-1.78775 -7.924,-2.55393 -3.3984,-0.93304 -6.6811,-2.35644 -10.2872,-2.19639 -2.2066,0.0953 -4.529,0.3916 -5.1113,3.08175 -0.5789,2.67312 1.3042,4.14419 3.3542,4.93421 5.1861,1.99888 10.5835,3.46654 15.7084,5.60503 9.3916,3.92285 12.6266,14.86051 7.1033,23.0944 -3.286,4.90356 -8.2713,7.14421 -13.7402,7.89336 -10.3076,1.41659 -19.999,-0.62656 -28.805,-6.41889 -2.0567,-1.34848 -2.765,-2.61182 -1.3246,-4.91718 1.5017,-2.41091 2.0261,-6.11242 4.0965,-7.30766 2.445,-1.41318 4.563,2.29854 7.0557,3.37801 4.6345,2.0125 9.2384,4.1544 14.4144,3.6981 2.3496,-0.20772 5.0364,-0.67084 5.3565,-3.9569 0.303,-3.10218 -1.8729,-4.47109 -4.1851,-5.31219 -5.227,-1.90013 -10.7299,-3.1158 -15.8106,-5.32581 -9.1124,-3.97052 -11.714,-15.22486 -5.6084,-22.95137 3.3882,-4.29402 8.0704,-6.31674 13.3486,-7.05227 2.0193,-0.27583 4.0761,-0.24859 6.109,-0.36777 z"
   id="path136"
   style="fill:#bc955b;fill-opacity:1;stroke-width:3.40525" /><path
   fill-rule="evenodd"
   clip-rule="evenodd"
   fill="#bb945b"
   d="m 1271.3911,532.53759 c 5.9353,0.23156 12.7662,2.70036 18.7288,7.75035 1.7197,1.45744 1.8116,2.37005 0.2997,3.78663 -0.3882,0.36436 -0.6538,0.86493 -1.008,1.27697 -1.7537,2.0772 -3.143,5.07382 -5.3735,5.95918 -2.2781,0.9058 -3.7559,-2.63906 -5.8978,-3.85474 -6.7901,-3.84452 -13.6415,-3.23839 -18.6506,1.98186 -5.1147,5.33262 -5.7787,14.43144 -1.5153,20.75158 3.916,5.80254 11.0534,7.76056 18.0376,4.93761 0.7525,-0.30647 1.5085,-0.62656 2.1998,-1.04541 1.9103,-1.15438 4.8082,-3.79685 5.4994,-3.30309 2.9286,2.08061 5.2169,5.07382 7.6925,7.77759 0.773,0.84109 0.092,1.44042 -0.5483,2.00228 -8.353,7.32129 -17.8809,10.92404 -28.9582,8.22708 -10.2532,-2.49604 -17.2612,-8.84683 -20.4008,-19.09663 -5.8843,-19.22263 7.6482,-37.08997 29.8947,-37.15126 z"
   id="path138"
   style="fill:#bc955b;fill-opacity:1;stroke-width:3.40525" /><path
   fill-rule="evenodd"
   clip-rule="evenodd"
   fill="#bb945b"
   d="m 1617.4256,560.71261 c 0.01,-11.46887 6.5381,-21.63013 16.8662,-25.67557 12.0546,-4.71967 23.1523,-2.84679 33.1875,5.3837 1.529,1.25654 1.6448,2.28152 0.2248,3.60956 -0.5925,0.55165 -1.0693,1.22589 -1.5937,1.85586 -1.5596,1.88311 -2.7685,4.54601 -4.7673,5.45181 -2.5846,1.1714 -3.6266,-2.41773 -5.6085,-3.59595 -7.0965,-4.20548 -13.999,-3.66404 -19.2567,1.97845 -4.9886,5.35305 -5.5778,14.28161 -1.345,20.39404 4.2395,6.12604 11.68,8.01936 18.7901,4.77756 0.4972,-0.22134 0.9433,-0.55506 1.4507,-0.74235 2.1691,-0.80363 4.0454,-4.28039 5.588,-3.3746 2.9217,1.71625 5.0023,4.88313 7.4166,7.4609 1.1748,1.25313 -0.02,1.90354 -0.7389,2.64929 -7.747,8.06703 -21.78,10.93084 -32.5406,6.64023 -11.0807,-4.41661 -17.6868,-14.44166 -17.6732,-26.81293 z"
   id="path140"
   style="fill:#bc955b;fill-opacity:1;stroke-width:3.40525" /><path
   fill-rule="evenodd"
   clip-rule="evenodd"
   fill="#bb945b"
   d="m 1140.4933,533.35825 c 4.3008,0 7.9853,0.21454 11.6323,-0.0681 2.9932,-0.22815 4.3247,0.91601 5.2339,3.68448 3.3984,10.32131 7.0182,20.5711 10.5631,30.84814 0.4256,1.23611 0.9126,2.45178 1.7469,4.68903 2.6561,-7.53922 4.9853,-14.11475 7.294,-20.69369 1.8423,-5.2543 3.7696,-10.48476 5.445,-15.79695 0.6504,-2.07039 1.672,-2.78549 3.79,-2.70377 3.8003,0.14643 7.6108,0.0409 11.3804,0.0409 0.7866,1.28719 -0.099,2.2032 -0.4495,3.09878 -6.3031,16.21579 -12.7186,32.38391 -18.9298,48.63035 -0.9228,2.41773 -2.1317,3.31671 -4.6447,3.50741 -11.4519,0.88536 -11.4349,0.94666 -15.5212,-9.56875 -5.462,-14.06027 -10.9444,-28.11373 -16.403,-42.1706 -0.3848,-0.98411 -0.6607,-2.01931 -1.1374,-3.49719 z"
   id="path142"
   style="fill:#bc955b;fill-opacity:1;stroke-width:3.40525" /><path
   fill-rule="evenodd"
   clip-rule="evenodd"
   fill="#bb955b"
   d="m 871.15179,533.36166 c 4.03181,0 8.07384,0.0919 12.10906,-0.0409 1.97164,-0.0647 2.50967,1.27015 3.22818,2.56415 3.74577,6.75261 7.48473,13.51202 11.5506,20.85374 3.8275,-7.0693 7.46771,-13.5597 10.84912,-20.18291 1.20205,-2.34962 2.53351,-3.48357 5.30538,-3.26563 3.45973,0.27583 6.95692,0.0681 11.11473,0.0681 -4.23272,8.01255 -8.15217,15.42237 -12.0682,22.8356 -0.44609,0.8411 -0.81045,1.73668 -1.35188,2.50626 -5.3837,7.65841 -7.47793,16.13748 -6.31674,25.40316 0.40863,3.26563 -0.70148,4.53919 -4.1544,4.61751 -10.5767,0.24859 -10.75718,0.37117 -10.49838,-10.19872 0.12259,-4.94101 -0.99774,-9.20779 -3.44952,-13.50181 -5.25089,-9.19757 -10.08635,-18.63692 -15.05801,-27.99454 -0.55846,-1.0352 -1.44042,-1.99207 -1.25994,-3.66405 z"
   id="path144"
   style="fill:#bc955b;fill-opacity:1;stroke-width:3.40525" /><path
   fill-rule="evenodd"
   clip-rule="evenodd"
   fill="#bb955b"
   d="m 1230.0003,644.68263 c 0,5.03637 0.01,10.07613 0,15.1125 -0.024,14.25096 -9.3747,22.06941 -23.5269,19.65168 -5.2475,-0.89898 -9.7731,-3.1805 -13.5393,-7.008 -1.1612,-1.18162 -1.4778,-2.17936 -0.3814,-3.49038 0.3474,-0.41544 0.6198,-0.89558 0.9229,-1.34507 1.3757,-2.02612 2.3326,-4.90356 4.2429,-5.85703 2.3871,-1.18843 3.7287,2.2679 5.7617,3.3746 7.4541,4.05566 11.8026,1.64814 11.806,-6.81049 0,-6.39846 -0.075,-12.80033 0.037,-19.19879 0.041,-2.27811 -0.6878,-3.17369 -3.034,-3.09197 -4.0795,0.13621 -8.1692,-0.0647 -12.2555,0.0715 -2.462,0.0783 -3.6164,-0.41203 -3.6266,-3.32693 -0.034,-8.80937 -0.1771,-8.80937 8.6902,-8.80937 7.0795,0 14.1624,0.11237 21.2385,-0.0579 2.7855,-0.0681 3.8343,0.67764 3.7254,3.61978 -0.2146,5.72081 -0.061,11.44504 -0.061,17.16585 z"
   id="path146"
   style="fill:#bc955b;fill-opacity:1;stroke-width:3.40525" /><path
   fill-rule="evenodd"
   clip-rule="evenodd"
   fill="#bb955b"
   d="m 1055.6175,442.75481 c 6.8037,0 13.604,0.11238 20.4008,-0.0613 2.554,-0.0681 3.2486,0.93644 3.4427,3.25541 0.756,8.95581 0.8139,8.9524 -8.0295,8.9524 -8.7447,0 -8.7447,0 -8.7447,8.63231 0,10.33493 -0.099,20.67326 0.061,31.00478 0.048,2.90809 -0.9058,3.63 -3.7083,3.63 -10.9036,0.007 -10.9036,0.10216 -10.9036,-10.90361 0,-9.65728 -0.089,-19.31457 0.058,-28.96844 0.041,-2.69015 -0.7866,-3.60276 -3.4563,-3.44612 -3.3916,0.19751 -6.8037,-0.0613 -10.1987,0.0817 -2.1827,0.0919 -2.7072,-0.78321 -2.7957,-2.84679 -0.4052,-9.34059 -0.4699,-9.34059 8.7787,-9.34059 5.0296,0.007 10.0625,0.007 15.0955,0.0102 z"
   id="path148"
   style="fill:#bc955b;fill-opacity:1;stroke-width:3.40525" /><path
   fill-rule="evenodd"
   clip-rule="evenodd"
   fill="#bb955b"
   d="m 1144.709,442.75481 c 6.6675,0 13.3384,0.0817 20.0058,-0.0477 2.3599,-0.0443 3.3202,0.46992 3.3542,3.12261 0.126,9.07158 0.2418,9.07158 -8.7447,9.07158 -7.781,0 -7.781,0 -7.781,7.95807 0,10.61416 -0.078,21.22832 0.058,31.84588 0.034,2.68334 -0.7832,3.44271 -3.4597,3.46995 -11.1999,0.10897 -11.1999,0.20091 -11.1999,-11.15219 0,-9.52788 -0.1157,-19.05577 0.068,-28.58025 0.058,-2.91149 -0.8274,-3.79004 -3.6674,-3.59594 -3.3848,0.23496 -6.8037,-0.0307 -10.2021,0.0851 -1.9478,0.0681 -2.4825,-0.6504 -2.5948,-2.57096 -0.5415,-9.60961 -0.6028,-9.60621 9.0545,-9.60621 5.0398,0 10.0761,0 15.1091,0 z"
   id="path150"
   style="fill:#bc955b;fill-opacity:1;stroke-width:3.40525" /><path
   fill-rule="evenodd"
   clip-rule="evenodd"
   fill="#bb955b"
   d="m 1266.7803,442.75481 c 6.6709,0 13.3452,0.10556 20.0127,-0.0579 2.4756,-0.0613 3.3133,0.7764 3.521,3.18391 0.7866,9.02731 0.8547,9.0205 -7.9853,9.0205 -8.3599,0 -8.3565,0 -8.3599,8.24411 0,10.21234 -0.075,20.42468 0.041,30.63702 0.037,3.23158 -0.9262,4.46768 -4.4098,4.4098 -10.1749,-0.17027 -10.1783,-0.0136 -10.1783,-10.19532 0,-9.80371 -0.088,-19.61082 0.058,-29.41113 0.041,-2.74122 -0.5517,-4.10332 -3.5619,-3.72193 -1.6073,0.20772 -3.2724,0.13961 -4.8967,0.0136 -2.5336,-0.20091 -6.1874,1.26334 -7.3588,-0.65722 -1.6788,-2.76506 -0.5959,-6.60277 -0.4903,-9.97737 0.068,-2.11126 1.9648,-1.45405 3.1839,-1.46426 6.8071,-0.0545 13.6141,-0.0238 20.4246,-0.0238 z"
   id="path152"
   style="fill:#bc955b;fill-opacity:1;stroke-width:3.40525" /><path
   fill-rule="evenodd"
   clip-rule="evenodd"
   fill="#bb955b"
   d="m 2003.2368,623.9651 c 6.9399,0 13.8764,0.0749 20.8129,-0.0409 2.2849,-0.0409 2.9898,0.69127 3.0579,3.00683 0.2724,9.13288 0.3541,9.13288 -8.7753,9.13288 -7.6244,0 -7.6244,0 -7.6244,7.80483 0,10.61075 -0.061,21.2181 0.048,31.83226 0.024,2.41773 -0.6164,3.25542 -3.1805,3.3099 -11.5813,0.25199 -11.5778,0.34053 -11.5778,-11.20326 0,-9.38827 -0.1022,-18.77654 0.061,-28.158 0.051,-2.90468 -0.916,-3.91944 -3.7253,-3.61978 -1.6141,0.17707 -3.2792,0.19069 -4.8899,-0.003 -2.4654,-0.29625 -6.109,1.41999 -7.134,-1.042 -1.1612,-2.79231 -0.4904,-6.40528 -0.361,-9.65048 0.072,-1.81499 1.7639,-1.22589 2.8877,-1.3655 0.1328,-0.017 0.269,-0.003 0.4052,-0.003 6.6675,0 13.3315,0 19.9956,0 z"
   id="path154"
   style="fill:#bc955b;fill-opacity:1;stroke-width:3.40525" /><path
   fill-rule="evenodd"
   clip-rule="evenodd"
   fill="#bb945b"
   d="m 895.12133,623.9651 c 6.8105,0 13.61759,0.0954 20.42468,-0.0511 2.47902,-0.0545 3.22818,0.68446 3.25883,3.20775 0.10215,8.93878 0.20431,8.93878 -8.53696,8.93878 -7.87294,0 -7.87294,0 -7.87294,7.91379 0,10.34515 -0.14302,20.6971 0.0851,31.04225 0.0749,3.34736 -1.05562,4.02841 -4.14418,3.99435 -10.53925,-0.11237 -10.53925,0 -10.53925,-10.63799 0,-7.62435 0,-15.25211 0,-22.87646 0,-9.43594 0,-9.42913 -9.24525,-9.44276 -1.4949,0 -2.99321,-0.0749 -4.48811,-0.0988 -1.78435,-0.034 -2.5301,-0.75596 -2.66291,-2.71058 -0.63337,-9.28951 -0.70488,-9.2827 8.61528,-9.2827 5.02955,0.003 10.06592,0.003 15.10568,0.003 z"
   id="path156"
   style="fill:#bc955b;fill-opacity:1;stroke-width:3.40525" /><path
   fill-rule="evenodd"
   clip-rule="evenodd"
   fill="#bb955b"
   d="m 2133.4569,560.3108 c 0,-7.75035 0.1022,-15.5041 -0.055,-23.24763 -0.058,-2.71399 0.5176,-4.05225 3.5483,-3.74237 3.4836,0.35755 7.9717,-1.39615 10.2532,0.67083 2.3394,2.12488 0.7253,6.67088 0.7662,10.14424 0.1158,9.24525 0.1566,18.4939 -0.027,27.73574 -0.061,3.08516 0.6164,4.34851 3.9978,4.17824 5.5608,-0.28944 11.1454,-0.0136 16.7198,-0.10896 2.0738,-0.0409 2.9149,0.59591 2.8604,2.77527 -0.3201,11.84346 1.8729,9.76285 -9.3202,9.9263 -8.428,0.12259 -16.856,-0.0613 -25.284,0.0715 -2.6833,0.0409 -3.5482,-0.86834 -3.504,-3.52443 0.1294,-8.29178 0.044,-16.59037 0.044,-24.87874 z"
   id="path158"
   style="fill:#bc955b;fill-opacity:1;stroke-width:3.40525" /><path
   fill-rule="evenodd"
   clip-rule="evenodd"
   fill="#bb955b"
   d="m 1784.1023,560.72283 c 0,-7.88655 0.099,-15.77992 -0.054,-23.66648 -0.054,-2.69355 0.504,-3.76961 3.5176,-3.76961 11.0875,-0.0136 11.0841,-0.12939 11.0875,10.86956 0,9.52448 0.068,19.04555 -0.048,28.56663 -0.027,2.44156 0.6879,3.36098 3.2248,3.29628 5.7072,-0.15665 11.4212,0.0204 17.1352,-0.0783 2.05,-0.0375 2.7957,0.53462 2.8979,2.731 0.4597,10.00122 0.5346,9.99781 -9.4973,9.99781 -8.2986,0 -16.5972,-0.0919 -24.8923,0.0545 -2.7038,0.0477 -3.4802,-0.85131 -3.4325,-3.51081 0.16,-8.16579 0.061,-16.33157 0.061,-24.49055 z"
   id="path160"
   style="fill:#bc955b;fill-opacity:1;stroke-width:3.40525" /><path
   fill-rule="evenodd"
   clip-rule="evenodd"
   fill="#bb955b"
   d="m 1788.4133,651.45227 c 0,-8.01936 0.092,-16.04553 -0.054,-24.06489 -0.048,-2.62885 0.7117,-3.45973 3.4291,-3.49038 11.3361,-0.126 11.3361,-0.22134 11.3361,11.01938 0,9.24866 0.16,18.49731 -0.085,27.73915 -0.085,3.36099 1.0658,4.12036 4.1578,3.98415 5.1589,-0.22816 10.3383,0.0885 15.4972,-0.12259 2.8877,-0.11919 4.0489,0.47673 4.0012,3.73215 -0.143,8.697 0.027,8.70041 -8.7957,8.70041 -8.7039,0 -17.4043,-0.10216 -26.1047,0.0579 -2.7276,0.0545 -3.4767,-0.84791 -3.4325,-3.48017 0.1431,-8.02617 0.051,-16.04893 0.051,-24.0751 z"
   id="path162"
   style="fill:#bc955b;fill-opacity:1;stroke-width:3.40525" /><path
   fill-rule="evenodd"
   clip-rule="evenodd"
   fill="#bb945b"
   d="m 890.9465,470.68125 c 0,8.02617 -0.11237,16.05575 0.0613,24.07851 0.0613,2.75485 -0.86834,3.56871 -3.48697,3.38823 -2.84338,-0.1941 -5.71741,-0.16005 -8.56761,-0.007 -2.20319,0.11237 -2.75825,-0.80705 -2.74803,-2.86382 0.0613,-16.59718 0.0647,-33.19776 -0.003,-49.79494 -0.0102,-2.17936 0.7764,-2.69356 2.84339,-2.77869 11.90474,-0.49716 11.90134,-0.55165 11.90134,11.24413 0,5.5778 0,11.159 0,16.73339 z"
   id="path164"
   style="fill:#bc955b;fill-opacity:1;stroke-width:3.40525" /><path
   fill-rule="evenodd"
   clip-rule="evenodd"
   fill="#bb955b"
   d="m 1866.0496,470.44629 c 0,-8.15897 0.075,-16.31454 -0.051,-24.46671 -0.037,-2.45518 0.681,-3.23839 3.2111,-3.29287 11.554,-0.23837 11.5506,-0.3235 11.5506,11.21348 0,13.45754 -0.085,26.91168 0.072,40.36581 0.034,3.01705 -0.7424,3.93647 -3.848,3.91604 -10.9342,-0.0647 -10.9342,0.0613 -10.9342,-11.02279 0,-5.57099 0,-11.14197 0,-16.71296 z"
   id="path166"
   style="fill:#bc955b;fill-opacity:1;stroke-width:3.40525" /><path
   fill-rule="evenodd"
   clip-rule="evenodd"
   fill="#bb955b"
   d="m 1210.7708,560.85223 c 0,-8.03639 0.092,-16.07618 -0.054,-24.10916 -0.051,-2.6629 0.756,-3.4393 3.4632,-3.45292 11.1419,-0.0647 11.1385,-0.16005 11.1385,10.80826 0,13.62099 -0.065,27.24199 0.058,40.86298 0.024,2.75484 -0.6504,3.75939 -3.6027,3.76961 -11.0058,0.0579 -11.0024,0.16686 -11.0024,-10.71632 0,-5.72082 0,-11.44504 0,-17.16245 z"
   id="path168"
   style="fill:#bc955b;fill-opacity:1;stroke-width:3.40525" /><path
   fill-rule="evenodd"
   clip-rule="evenodd"
   fill="#bb955b"
   d="m 1305.5729,560.73645 c 0,-7.90017 0.1022,-15.80376 -0.058,-23.70053 -0.058,-2.75484 0.5926,-4.03181 3.5858,-3.71853 3.4869,0.36777 7.9989,-1.41999 10.2532,0.70489 2.2849,2.15893 0.7117,6.69812 0.7355,10.1851 0.089,13.48478 -0.034,26.96956 0.089,40.45435 0.027,2.81954 -0.4154,4.09311 -3.7151,4.08289 -10.89,-0.0375 -10.89,0.10556 -10.89,-10.84912 0,-5.71401 0,-11.43823 0,-17.15905 z"
   id="path170"
   style="fill:#bc955b;fill-opacity:1;stroke-width:3.40525" /><path
   fill-rule="evenodd"
   clip-rule="evenodd"
   fill="#bb955b"
   d="m 1697.4762,561.00206 c 0,8.01596 -0.126,16.03532 0.072,24.05127 0.068,2.78209 -1.0761,3.4393 -3.504,3.61297 -11.1658,0.79683 -11.1658,0.8411 -11.1658,-10.28726 0,-13.85936 0.061,-27.72212 -0.051,-41.57808 -0.021,-2.55394 0.5482,-3.48697 3.3303,-3.5074 11.3259,-0.0817 11.3225,-0.18729 11.3225,10.99895 0,5.56417 0,11.13516 0,16.70955 z"
   id="path172"
   style="fill:#bc955b;fill-opacity:1;stroke-width:3.40525" /><path
   fill-rule="evenodd"
   clip-rule="evenodd"
   fill="#bb955b"
   d="m 1107.2479,470.58931 c 0,7.88996 -0.078,15.77992 0.041,23.66307 0.044,2.95576 -0.9296,3.94669 -4.008,3.93306 -10.5835,-0.0545 -10.5835,0.0715 -10.5835,-10.57329 0,-13.73337 0.068,-27.47014 -0.054,-41.21032 -0.024,-2.77868 0.6878,-3.97052 3.6197,-3.69469 2.428,0.22474 4.907,0.22474 7.3349,0 3.0171,-0.28264 3.7118,1.15097 3.6811,3.81047 -0.088,8.02277 -0.031,16.04553 -0.031,24.0717 z"
   id="path174"
   style="fill:#bc955b;fill-opacity:1;stroke-width:3.40525" /><path
   fill-rule="evenodd"
   clip-rule="evenodd"
   fill="#dcc5a0"
   d="m 703.79405,531.72374 c -1.46085,-2.7855 -0.95007,-4.79459 2.26449,-5.73785 -0.80023,1.89673 -0.88537,4.07268 -2.26449,5.73785 z"
   id="path176"
   style="stroke-width:3.40525" /><path
   fill-rule="evenodd"
   clip-rule="evenodd"
   fill="#e3d0a8"
   d="m 756.21104,413.36071 c -0.88877,-1.91716 -2.97619,-4.27018 1.53917,-4.22251 0.0851,1.6243 -0.46652,3.02386 -1.53917,4.22251 z"
   id="path178"
   style="stroke-width:3.40525" />
</svg>
