<?xml version="1.0" encoding="UTF-8"?>
<svg width="400" height="400" version="1.1" xmlns="http://www.w3.org/2000/svg">
 <circle fill="#e1261c" cx="200" cy="200" r="189.83"/>
 <path d="m318.17 146.66c2.0458-0.92497 3.805-2.5064 5.2486-4.4071 2.151-2.822 4.0081-6.2497 5.0854-9.7858 3.0978-10.164 0.69608-14.618-4.6392-15.652-2.6043-0.50053-7.4285 0.70369-8.5783 6.3766-0.94284 4.6501 1.7846 9.3328-0.44212 14.984-1.1862 2.9997-2.6261 5.2776-1.8607 7.5592 0.90274 2.695 3.453 1.7084 5.1869 0.92497m-152.22 109.82c-0.84107 1.3203-1.752 2.1618-2.4991 2.3105-0.0618 0.0136-0.11209 0.0217-0.11209 0.0217-2.0674 0.0688-4.7154-2.2634-6.997-6.101-3.3842-5.6766-5.8942-14.403-7.2653-25.231-2.8148-22.227 3.5039-40.893 6.9715-41.655 0.0109-3e-3 0.0217-3e-3 0.0411-3e-3 2.9671 0.0544 7.6789 6.743 10.592 19.061 4.1931 17.719 5.7527 41.423-0.72591 51.597m86.4-182.24c-2.9164 1.9986-4.8315 5.2704-4.8024 26.649-1.3784 54.851-0.83077 76.723 0.0721 107.74 0.0217 0.67468 0.072 2.6878 0.072 2.6878 0.22825 14.556-5.5605 22.017-7.9943 24.625-5.4917 5.8761-9.7355 7.1819-14.628 6.9498-1.1898-0.0577-2.8291-0.29016-3.9609-0.81976-7.2726-3.4169-9.4236-13.465-10.207-29.935-0.56963-12.772 2.0058-30.015 6.6595-39.196 0-9e-3 3e-3 -0.0109 9e-3 -0.0136 0.57681-0.87774 1.7374-2.2162 3.4894-1.9007 0.6128 0.11235 1.2333 0.42803 1.8354 0.77619 3e-3 3e-3 0.0109 9e-3 0.0109 0.0109 2.1871 1.5488 4.4578 6.0139 2.4775 19.057-0.26823 1.7665 0.87396 3.4567 2.6152 3.8594 2.7349 0.6348 5.6258-0.18853 7.6135-2.2126 1.5126-1.5343 2.296-4.5376 2.5064-6.6777 0.16649-1.7048 0.24973-3.8703 0.10908-6.2533-0.47911-11.36-7.3922-18.314-7.3922-18.314s-5.2921-5.8797-12.213-5.8942c-11.621-0.0289-24.237 15.833-24.469 50.603-0.0308 9.1261 0.95722 17.225 2.9272 24.074 3e-3 9e-3 3e-3 0.0109 3e-3 0.0191 0.27555 2.3976 0.45033 9.224-2.0203 11.585-0.50382 0.48244-1.5344 1.4182-3.2936 0.6203-1.4944-0.67469-4.0806-3.921-7.57-18.702-2.9344-12.441-5.1289-28.822-6.0175-45.021-0.13792-1.4545-0.65703-2.5318-1.5524-3.2064-0.80919-0.6057-2.1909-1.1063-4.2548 3e-3 -1.7882 1.0773-3.2971 2.695-4.3454 4.5957-0.0411 0.0618-0.11617 0.0729-0.16649 0.0217-2.2163-2.2452-5.0999-4.4687-8.4406-5.4808-2.5862-0.83786-5.1651-1.012-7.6715-0.51141-6.1845 1.2332-11.48 6.5362-14.905 14.929-3.5402 8.6763-5.049 20.407-4.3635 33.926 1.7629 33.109 15.706 46.359 28.143 47.712 1.0953 0.13058 2.1582 0.19587 3.181 0.19587 1.4218 0 2.7712-0.12704 4.0335-0.37724 6.0466-1.2079 12.967-5.8471 14.092-20.414 0.0109-0.0977 0.13356-0.13412 0.19232-0.0503 3.2899 4.621 6.8518 7.2218 12.561 8.0126 3.435 0.47882 6.9207-1.6141 8.1213-3.152 1.5923-2.0385 2.4302-4.0806 2.8655-6.3331 0.0719-0.35915 0.145-0.76538 0.25382-1.2551 0.0217-0.0832 0.12323-0.11617 0.18091-0.0544 4.2076 4.5957 9.4633 7.6679 15.405 8.9738 2.0313 0.42803 4.0407 0.64928 5.9813 0.64928 9.0499 0 16.478-7.8312 21.741-16.598 0.0514-0.0802 0.16649-0.0577 0.18934 0.0329 2.1799 8.3644 7.2726 11.625 12.507 13.704 9e-3 3e-3 0.0109 3e-3 0.0217 9e-3 0.81637 0.29016 2.8945 0.42806 4.2584-0.94303 0.83075-0.83427 1.1318-2.0094 0.90685-3.4567-5.3827-39.903-1.5779-43.418-1.0015-43.715 0.0217-0.0109 0.0308-0.0136 0.0515-0.0109 0.76909 0.0289 4.0081 2.7966 7.8929 10.127 0.92123 1.5416 1.7156 2.7531 3.9101 6.1192l5.0309 7.7223c4.2402 6.2497 7.3198 11.647 9.801 15.978 4.621 8.0815 7.414 12.964 12.587 14.52 3e-3 3e-3 9e-3 3e-3 0.0109 3e-3 3.7723 0.98294 6.6886 1.3493 8.8468 1.2296 2.14-0.11969 3.4748-0.48599 4.2148-1.6359 1.4763-2.2996-0.41744-4.9402-4.1931-10.203-1.7846-2.4847-4.0081-5.575-6.2424-9.1624-4.1242-7.3814-12.873-21.249-22.924-36.309 0-3e-3 -3e-3 -3e-3 -3e-3 -9e-3 -4.6137-5.916-6.7175-8.6146 5.6222-24.419 7.2906-10.432 12.547-16.33 15.369-19.5 0.7177-0.80157 1.2659-1.411 1.6286-1.8607 0.80507-0.98664 1.1607-2.2199 0.99424-3.4712-0.16649-1.2587-0.9501-3.1775-3.7287-5.1615-2.463-1.7556-4.9113-3.3225-8.1069-2.6914-4.3418 0.81606-9.0209 5.5932-16.156 16.493-4.7227 7.2145-8.5204 14.178-11.571 19.772-2.122 3.8848-4.4688 8.1866-5.9197 10.084-0.0514 0.0729-0.17058 0.0474-0.18826-0.04-1.4074-6.4819-0.35575-33.628 0.66422-59.962 0.5727-11.655 0.92845-23.693 1.302-36.439 0.21383-7.2834 0.48223-14.421 0.75057-22.104 0.0109-0.2647-0.0721-0.87418-0.17383-1.1245-0.82358-2.0784-2.2199-2.8583-3.2464-3.1448 0 0-3.0831-1.0628-9.9927 3.6708m66.619 209.25c-3.1738 0-5.7128-2.5572-5.7128-5.7564s2.539-5.7564 5.7128-5.7564 5.7129 2.5572 5.7129 5.7564-2.539 5.7564-5.7129 5.7564m0-13.525c-4.2548 0-7.7115 3.4858-7.7115 7.7695 0 4.2837 3.4568 7.7695 7.7115 7.7695 4.2548 0 7.7115-3.4858 7.7115-7.7695 0-4.2837-3.4568-7.7695-7.7115-7.7695m0.34857 7.5138h-0.62001c-0.41024 0-0.74337-0.33374-0.74337-0.74356v-0.49332c0-0.40983 0.33724-0.7472 0.74748-0.7472h0.61693c0.69608 0 1.0809 0.44975 1.0809 0.96131 0 0.47881-0.38456 1.0228-1.0809 1.0228m2.8547-1.0228c0-1.4074-0.98294-2.6552-2.7603-2.6552h-2.336c-0.47501 0-0.86676 0.39173-0.86676 0.86688v5.7746c0 0.47881 0.39175 0.87417 0.87396 0.87417 0.47913 0 0.87087-0.39174 0.87087-0.87056v-0.66381c0-0.31916 0.28686-0.6094 0.60254-0.6094h0.0618c0.34857 0 0.72899 0.22499 0.88835 0.54411l0.54085 0.92857c0.22117 0.41352 0.69607 0.67098 1.1389 0.67098h0.38044c0.34854 0 0.54082-0.35186 0.38146-0.67098l-0.6961-1.1825c-0.22525-0.38445-0.18825-0.70369 0.1235-1.0228 0.54082-0.515 0.79481-1.2187 0.79481-1.9841m-171.75 19.828c32.881-11.825 56.679-19.815 118.48-23.483 22.681-1.1063 25.22 1.2368 26.743 2.1727 3.6417 2.4701 5.1362 3.9537 5.4916 5.4518 0.16649 0.74356 0.37736 3.1666-2.5862 3.5365-0.1635 0.0217-0.23531 0.04-0.511 0.0544-7.269 0.23585-14.694 0.65289-22.144 1.2442-9.3728 0.73628-18.919 1.7447-30.051 3.1702-4.0807 0.52232-7.8239 1.1643-11.452 1.9587-35.993 7.8783-71.358 20.657-105.1 37.98-1.1062 0.56952-1.4254 0.7182-1.9986 0.7182-0.51818 0-0.9613-0.14854-1.2913-0.33005-1.1534-0.6311-2.1437-1.9841-2.1218-4.3635 0-0.0729-0.0217-0.30833-0.0217-0.38083 0.2179-4.4687 1.4799-10.968 6.286-16.58 1.3529-1.5779 3.1157-3.4241 5.6512-4.7154 0 0 4.9693-2.9634 14.622-6.4347m180.11-107.37c-3e-3 -3e-3 -9e-3 -3e-3 -0.0109-9e-3 -6.6124-5.488-5.0745-12.017-3.8376-17.273l0.19533-0.83427c1.1063-4.7843 4.7336-10.297 6.812-10.352 0.40614-9e-3 0.82666 0.26116 1.2731 0.80886 0.89557 1.0954 1.8789 3.0251 2.92 5.0708 2.7386 5.3719 6.5254 12.739 13.079 12.561 0.68888-0.0191 1.3928-0.11969 2.0965-0.30104 3.2573-0.84876 4.4651-2.7712 4.9041-4.2366 1.0046-3.3442-0.81227-7.7514-5.713-13.871l-0.0721-0.0832c-0.23531-0.25762-2.4085-2.6043-5.7455-4.9548-3.2391-2.2815-8.2157-4.9621-13.537-4.8315-3.2826 0.0873-6.3222 1.2115-8.9483 3.2862-5.3393 3.7142-13.569 15.278-14.849 25.666-0.95722 7.7768 4.5013 14.393 7.4322 17.944l0.15207 0.16323c4.146 3.8703 8.3789 6.8664 12.478 9.7649 6.1916 4.3817 12.042 8.5204 15.615 14.664 0.41744 0.71457 0.60252 3.2283-0.81637 6.0719-1.1245 2.2488-4.0371 6.0466-10.94 6.228l-0.37014 9e-3c-4.5195 0.0289-8.4006-9.7573-10.294-14.483-0.33415-0.83789-0.63438-1.5888-0.89967-2.198-0.41744-0.97933-1.5306-2.6225-4.3165-2.5391-1.5378 0.04-3.5402 0.66741-5.3501 1.683-2.3033 1.2876-3.4568 2.6878-3.4314 4.1568 0.0721 4.1786 0.88835 10.254 4.3635 15.448 3.9609 5.9269 10.251 9.0789 18.786 9.3981 0.82358 0.0289 1.6721 0.0359 2.539 0.0109 7.5628-0.21029 14.146-2.2054 19.572-5.9269 5.4408-3.7324 8.241-8.3318 8.5675-14.059 0.9613-16.878-16.472-27.603-26.964-34.031 0 0-2.1618-1.2224-4.69-2.9526m-208.41 30.025c-0.5182-2.3685-1.0519-4.8133-1.5959-7.3415-10.334-47.796-15.851-87.289-16.878-120.81-0.10474-1.556-0.79479-2.4629-1.3529-2.9453-0.55522-0.47512-1.5199-1.0228-3.0106-0.89226-2.793 0.2394-6.3476 2.9272-8.5348 5.3755-3.6599 3.5148-3.2645 11.078-2.1945 23 0.14173 1.5887 0.27555 3.1049 0.3876 4.5993l0.74752 6.1518c2.7059 22.402 5.5025 45.565 14.98 91.841 6.217 30.596 9.0934 46.7 3.1049 57.738-1.8136 3.3406-4.6356 6.0864-8.2012 7.4104-1.2187 0.45341-2.4556 0.73628-3.7033 0.85236l-0.0822 9e-3c-12.199 1.0334-25.499-13.465-35.561-38.811l-0.09245-0.19587c-1.1316-3.0288-3.3842-2.938-4.4143-2.851-2.5318 0.21382-4.7516 2.6588-7.4248 8.1685l-0.06179 0.13412c-2.1546 5.4263 0.89966 12.434 8.5639 26.09l0.07214 0.11617c8.2446 12.529 21.313 27.07 37.548 27.066 0.7403 0 1.4871-0.0289 2.2416-0.0906l0.0821-9e-3c11.506-0.98294 19.199-8.8613 21.974-12.202l0.0721-0.0873c14.759-19.964 10.697-38.557 3.3225-72.32" fill="#fff"/>
</svg>
