<?xml version="1.0" encoding="UTF-8"?>
<svg width="600" height="300" version="1.1" xmlns="http://www.w3.org/2000/svg">
 <path d="m10 12.81v214.39c0 0.0563 0.0153 0.1073 0.0153 0.15826 0.0724 9.6417 6.6271 18.905 15.395 22.62 1.2616 0.41394 2.5803 0.80731 3.8576 1.2161 69.521 22.196 163.82 36.002 270.77 36.002 104.37 0 200.67-14.256 270.12-35.721 2.7131-0.82773 3.1833-0.88392 4.338-1.3284 8.8598-3.7095 15.502-13.086 15.502-22.814v-214.52z" fill="#06519c"/>
 <path d="m546.03 169.99c0 42.695-110.16 77.313-246.03 77.313-135.89 0-246.03-34.617-246.03-77.313 0-42.731 110.15-77.328 246.03-77.328s246.03 34.597 246.03 77.328" fill="#d02313"/>
 <path d="m291.59 110.24c-7.4548 0-13.525 6.057-13.525 13.532 0 7.4497 6.07 13.54 13.525 13.54 7.5009 0 13.547-6.0901 13.547-13.54 0-7.4753-6.0465-13.532-13.547-13.532zm83.508 78.252c-1.6351 0-2.9534-0.49561-3.8782-1.4613-1.2673-1.3592-1.8957-3.5971-1.7833-6.4993 0.39831-9.7082 8.7884-21.419 18.65-21.419l5.9169 0.0153-2.7387 13.05c-2.8562 11.91-11.323 16.315-16.167 16.315m45.204-67.226h-18.379l-5.1504 24.613h-3.8372c-28.021 0-41.582 19.462-42.302 37.504 0 0.36788-0.0115 0.70002-0.0115 1.0525 0 5.3293 1.6761 9.9738 4.7826 13.208 3.0351 3.1832 7.2557 4.8592 12.186 4.8592 3.5972 0 12.498-1.0372 19.243-9.1308l-1.6555 7.8432h0.15788l-0.0153 0.0767s0.0153-0.0563 0.0153-0.0767l18.236-0.26556c0.36789-1.773 16.729-79.683 16.729-79.683m-320.27 0.0115-19.217-4e-3 -10.475 52.041c-2.192 10.347-6.4125 13.515-13.08 13.515-3.5052 0-6.5504-0.57732-8.9162-1.2621l-3.0504 15.88c2.5803 1.1241 8.1089 1.8088 12.968 1.8088 12.508 0.0153 20.208-3.5511 25.17-11.926 0.4707-0.7204 0.89944-1.5124 1.3238-2.3146 0.14792-0.30657 0.29699-0.59264 0.44464-0.90435 1.681-3.4796 3.0401-7.5673 4.0468-12.513zm450.08 40.341 4.5986-12.477-0.49536-0.3219c-3.6277-2.473-10.429-4.2921-17.485-4.2921-3.1935 0-5.646 0.4548-7.8483 1.0168-1.1804 0.26058-2.2993 0.57731-3.3775 0.93504-0.41859 0.11727-0.84296 0.24526-1.2514 0.35755l0.0433 0.0464c-8.4154 3.2037-13.688 9.4629-13.688 17.229 0 6.0344 4.1949 11.083 12.483 14.986 5.5796 2.5804 6.7037 4.3074 6.7037 6.2592 0 2.4934-2.5138 4.0825-6.3818 4.0825-5.0584 0-11.057-1.9774-14.644-3.6738l-0.7416-0.35256-4.5935 12.457 0.48519 0.3219c3.6431 2.4628 10.786 4.2103 17.848 4.338 4.2972 0.0115 8.5534-0.5314 12.12-1.5022 0.0307-0.0307 0.0724-0.0563 0.087-0.0766 8.4716-2.4525 15.518-9.9176 15.518-17.791 0-3.2037-1.3542-6.111-3.7197-8.7271-0.64886-0.7562-1.4208-1.5022-2.238-2.2124-0.25062-0.19429-0.49097-0.36789-0.7401-0.5621-1.9569-1.5533-4.338-3.0249-7.2555-4.4045-4.4199-1.9161-6.479-3.5971-6.479-5.3395 0-2.9533 3.4286-3.9957 6.6119-3.9957 1.9723 0 3.7094 0.22495 5.3037 0.51608 2.5598 0.58758 4.9256 1.3693 6.9132 2.2124l0.89365 0.38831 0.32152 0.12301c-0.0153-0.0115-0.0153-0.0115-0.0306-0.0307 0.10156 0.0464 0.22036 0.087 0.29124 0.12762zm-42.534 0.30542 0.20004-0.61311 3.3314-16.442-3.9293-0.14332c-6.4073 0-12.299 3.3876-16.647 9.3709 0.64886-3.2752 1.6096-8.1446 1.6096-8.1446h-16.034l-11.379 55.377h18.491l4.103-20.653c1.7066-8.6147 6.0906-18.88 17.158-18.88zm-63.39-4.1111c3.3007 0 5.4213 1.492 5.4213 3.7658v0.12301c0 1.0525-0.34757 1.9263-1.0674 2.6519-2.141 2.1-7.4702 3.1066-16.78 3.0811 1.5022-4.7979 5.8096-9.6213 12.426-9.6213m-2.3401 30.862c-4.752 0-8.349-1.3438-10.408-3.8884-0.8589-1.1445-1.3644-2.8817-1.5176-4.2613 16.269 0.29624 26.933-2.2227 32.533-7.6796 2.9584-2.8869 4.4555-6.6578 4.4555-11.144 0-10.142-8.2928-16.974-20.622-16.974-21.337 0-34.086 17.424-34.086 34.26 0 14.951 9.3045 23.545 25.543 23.545 6.7752 0 16.616-1.8241 23.32-5.8606 0.35219-0.22495 0.35219-0.22495 3.0709-13.903l0.37364-1.8957-1.5534 1.1344c-6.0037 4.3942-15.186 6.668-21.107 6.668m-246.55-43.793c-7.2555 0-13.637 2.8256-18.681 8.206 0.54172-2.657 1.4353-7.0666 1.4353-7.0666h-16.473l-11.47 55.296h18.379l4.7468-24.347c2.5342-12.207 8.7731-17.786 13.52-17.786 3.4388 0 4.9766 1.7679 4.9766 5.7432 0 1.8037-0.1939 3.8117-0.57792 5.8044l-6.0855 30.56h18.379l6.3818-31.694c0.46496-2.7132 0.94003-6.7191 0.94003-9.1972 0-9.7082-5.784-15.518-15.472-15.518m139.39 0c-7.2454 0-13.637 2.8256-18.66 8.206 0.52141-2.657 1.4208-7.0666 1.4208-7.0666h-16.489l-11.466 55.296h18.379l4.7621-24.347c2.5089-12.207 8.7834-17.786 13.51-17.786 3.4591 0 4.9665 1.7679 4.9665 5.7432 0 1.8037-0.18395 3.8117-0.54606 5.8044l-6.1059 30.56h18.374l6.4023-31.694c0.47506-2.7132 0.94578-6.7191 0.94578-9.1972 0-9.7082-5.7839-15.518-15.492-15.518m-56.703-3.4678-12.739 59.878h18.375l11.721-55.544c-1.2195 0.20732-2.4721 0.3219-3.7498 0.3219-5.1175 0-9.8394-1.7401-13.607-4.6555zm-21.26-20.144h-18.385l-16.744 79.944h38.73l3.1066-15.395h-20.31c0.35792-1.7526 13.602-64.549 13.602-64.549m-124.11 49.79c-2.6518 12.707-11.103 17.301-16.141 17.301-1.6453 0-2.9585-0.49565-3.9089-1.4869-1.2977-1.3541-1.9211-3.5971-1.7986-6.5556 0.38816-9.7899 8.8754-21.634 18.849-21.634l5.549 0.0406zm22.753-25.073c-4.7672-0.76647-11.512-0.7204-17.47-0.68986h-3.3876c-28.307 0-42 19.667-42.741 37.918-0.23031 5.83 1.4768 10.934 4.8132 14.404 3.0913 3.2088 7.3476 4.9154 12.34 4.9154 3.6431 0 12.293-1.0474 19.12-9.4016-0.63871 3.1168-1.6707 8.1599-1.6707 8.1599l18.691 0.0345 11.083-55.209z" fill="#fff"/>
</svg>
