<?xml version="1.0" encoding="utf-8"?>
<!-- Generator: Adobe Illustrator 16.0.0, SVG Export Plug-In . SVG Version: 6.00 Build 0)  -->
<!DOCTYPE svg PUBLIC "-//W3C//DTD SVG 1.1//EN" "http://www.w3.org/Graphics/SVG/1.1/DTD/svg11.dtd">
<svg version="1.1" id="Layer_1" xmlns="http://www.w3.org/2000/svg" xmlns:xlink="http://www.w3.org/1999/xlink" x="0px" y="0px"
	 width="460px" height="152px" viewBox="0 0 460 152" enable-background="new 0 0 460 152" xml:space="preserve">
<g>
	
		<rect x="24.595" y="23.878" transform="matrix(-0.7071 0.7071 -0.7071 -0.7071 185.6105 75.868)" fill="#317848" width="104.995" height="104.994"/>
	<rect x="39.972" y="39.254" fill="#FFFFFF" width="74.242" height="74.242"/>
	<circle fill="#E4B365" cx="77.093" cy="76.376" r="34.069"/>
	<g>
		<path fill="#317848" d="M149.038,91.093h4.677l-2.023,18.242l14.183-18.242h6.501l-16.468,21.419l15.642,24.542h-6.032
			l-14.401-22.54l-2.5,22.54h-4.678L149.038,91.093z"/>
		<path fill="#317848" d="M193.709,108.157h4.682l-3.224,28.896h-4.736l0.351-3.098c-2.152,2.618-4.47,3.928-6.952,3.928
			c-2.942,0-5.494-1.484-7.656-4.455c-2.16-2.971-3.241-6.487-3.241-10.553c0-4.232,1.133-7.864,3.398-10.895
			c2.267-3.03,4.968-4.547,8.105-4.547c3.706,0,6.56,2.338,8.56,7.014L193.709,108.157z M192.525,121.991
			c0-2.577-0.712-4.8-2.135-6.667c-1.424-1.868-3.101-2.801-5.029-2.801c-2.021,0-3.753,1.018-5.194,3.054
			c-1.442,2.035-2.162,4.5-2.162,7.391c0,2.842,0.68,5.192,2.037,7.047c1.361,1.855,3.078,2.783,5.155,2.783
			c2.111,0,3.861-1.012,5.249-3.036C191.832,127.739,192.525,125.147,192.525,121.991z"/>
		<path fill="#317848" d="M199.693,137.054l3.28-28.896h4.791l-0.688,6.134c0.166-0.481,0.68-1.491,1.544-3.03
			c0.864-1.541,1.687-2.563,2.468-3.067c0.78-0.505,1.777-0.759,2.99-0.759c0.955,0,2.139,0.314,3.555,0.94l-2.15,5.987
			c-1.267-0.673-2.36-1.011-3.28-1.011c-1.782,0-3.153,0.753-4.119,2.255c-0.966,1.504-1.658,4.071-2.081,7.703l-1.571,13.744
			H199.693z"/>
		<path fill="#317848" d="M238.8,108.157h4.68l-3.223,28.896h-4.737l0.353-3.098c-2.153,2.618-4.47,3.928-6.953,3.928
			c-2.941,0-5.492-1.484-7.655-4.455c-2.159-2.971-3.24-6.487-3.24-10.553c0-4.232,1.132-7.864,3.399-10.895
			c2.266-3.03,4.966-4.547,8.103-4.547c3.708,0,6.562,2.338,8.562,7.014L238.8,108.157z M237.615,121.991
			c0-2.577-0.711-4.8-2.135-6.667c-1.426-1.868-3.102-2.801-5.029-2.801c-2.021,0-3.753,1.018-5.195,3.054
			c-1.44,2.035-2.161,4.5-2.161,7.391c0,2.842,0.678,5.192,2.038,7.047c1.358,1.855,3.077,2.783,5.152,2.783
			c2.112,0,3.862-1.012,5.249-3.036C236.923,127.739,237.615,125.147,237.615,121.991z"/>
		<path fill="#317848" d="M263.412,90.155l-1.378,5.88c-1.34-0.529-2.349-0.793-3.028-0.793c-1.194,0-1.911,0.986-2.149,2.958
			l-1.159,9.957h5.566l-0.744,5.7h-5.484l-2.702,23.196h-4.685l2.671-23.196h-4.35l0.66-5.7h4.347l1.248-10.859
			c0.276-2.525,1.037-4.521,2.288-5.988c1.248-1.467,2.801-2.201,4.657-2.201C260.436,89.108,261.852,89.457,263.412,90.155z"/>
		<path fill="#317848" d="M282.76,108.157h4.682l-3.223,28.896h-4.736l0.351-3.098c-2.153,2.618-4.469,3.928-6.953,3.928
			c-2.94,0-5.493-1.484-7.654-4.455s-3.241-6.487-3.241-10.553c0-4.232,1.133-7.864,3.398-10.895
			c2.267-3.03,4.967-4.547,8.105-4.547c3.706,0,6.56,2.338,8.561,7.014L282.76,108.157z M281.576,121.991
			c0-2.577-0.713-4.8-2.137-6.667c-1.422-1.868-3.1-2.801-5.029-2.801c-2.019,0-3.75,1.018-5.193,3.054
			c-1.44,2.035-2.16,4.5-2.16,7.391c0,2.842,0.679,5.192,2.035,7.047c1.36,1.855,3.077,2.783,5.154,2.783
			c2.112,0,3.861-1.012,5.25-3.036C280.882,127.739,281.576,125.147,281.576,121.991z"/>
		<path fill="#317848" d="M288.744,137.054l3.278-28.896h4.792l-0.688,6.134c0.166-0.481,0.682-1.491,1.544-3.03
			c0.863-1.541,1.687-2.563,2.467-3.067s1.78-0.759,2.993-0.759c0.953,0,2.139,0.314,3.553,0.94l-2.149,5.987
			c-1.268-0.673-2.36-1.011-3.279-1.011c-1.781,0-3.155,0.753-4.12,2.255c-0.967,1.504-1.659,4.071-2.082,7.703l-1.571,13.744
			H288.744z"/>
		<path fill="#317848" d="M310.85,108.157h4.675l-3.141,28.896h-4.677L310.85,108.157z M311.759,95.169
			c0-1.081,0.295-2.008,0.883-2.777c0.586-0.77,1.293-1.154,2.119-1.154c0.829,0,1.538,0.385,2.137,1.154
			c0.6,0.77,0.896,1.696,0.896,2.777c0,1.107-0.295,2.045-0.883,2.815c-0.59,0.77-1.305,1.154-2.15,1.154
			c-0.826,0-1.533-0.391-2.119-1.173C312.054,97.184,311.759,96.253,311.759,95.169z"/>
		<path fill="#317848" d="M318.321,137.054l3.224-28.896h4.68l-0.517,5.124c1.469-1.974,2.815-3.44,4.036-4.402
			c1.223-0.962,2.567-1.444,4.036-1.444c1.598,0,3.032,0.866,4.3,2.599c1.267,1.73,1.899,3.692,1.899,5.88
			c0,0.53-0.019,0.95-0.056,1.264l-2.319,19.877h-4.623l2.094-18.398c0.038-0.24,0.057-0.637,0.057-1.189
			c0-1.468-0.329-2.657-0.981-3.572c-0.655-0.914-1.516-1.37-2.583-1.37c-1.694,0-3.216,1.154-4.559,3.462
			c-1.344,2.308-2.238,5.361-2.68,9.158L323,137.054H318.321z"/>
		<path fill="#317848" d="M363.799,91.093h5.813c3.344,0,6.003,1.017,7.978,3.049s2.964,4.732,2.964,8.099
			c0,4.666-1.893,8.311-5.679,10.932c3.786,2.43,5.679,6.133,5.679,11.112c0,3.8-1.342,6.878-4.025,9.235
			c-2.68,2.356-6.246,3.534-10.691,3.534h-7.218L363.799,91.093z M365.731,115.913l-1.772,15.514h0.414
			c3.122,0,5.328-0.186,6.615-0.559c1.286-0.373,2.376-1.186,3.266-2.436c0.893-1.252,1.338-2.767,1.338-4.547
			c0-1.995-0.666-3.823-1.996-5.483c-1.332-1.658-3.697-2.489-7.092-2.489H365.731z M367.927,96.722l-1.564,13.673
			c3.406,0,5.796-0.751,7.17-2.255c1.373-1.504,2.06-3.266,2.06-5.286c0-2.212-0.603-3.788-1.806-4.725
			C372.582,97.189,370.629,96.722,367.927,96.722z"/>
		<path fill="#317848" d="M404.778,108.157h4.682l-3.225,28.896h-4.736l0.352-3.098c-2.152,2.618-4.472,3.928-6.953,3.928
			c-2.941,0-5.494-1.484-7.655-4.455s-3.241-6.487-3.241-10.553c0-4.232,1.133-7.864,3.398-10.895
			c2.267-3.03,4.967-4.547,8.106-4.547c3.706,0,6.561,2.338,8.56,7.014L404.778,108.157z M403.593,121.991
			c0-2.577-0.713-4.8-2.135-6.667c-1.426-1.868-3.102-2.801-5.029-2.801c-2.022,0-3.752,1.018-5.194,3.054
			c-1.443,2.035-2.163,4.5-2.163,7.391c0,2.842,0.681,5.192,2.038,7.047c1.359,1.855,3.078,2.783,5.153,2.783
			c2.114,0,3.863-1.012,5.252-3.036C402.9,127.739,403.593,125.147,403.593,121.991z"/>
		<path fill="#317848" d="M411.091,137.054l3.225-28.896h4.681l-0.518,5.124c1.469-1.974,2.816-3.44,4.037-4.402
			c1.22-0.962,2.567-1.444,4.034-1.444c1.6,0,3.032,0.866,4.3,2.599c1.267,1.73,1.901,3.692,1.901,5.88
			c0,0.53-0.021,0.95-0.056,1.264l-2.318,19.877h-4.626l2.094-18.398c0.037-0.24,0.058-0.637,0.058-1.189
			c0-1.468-0.328-2.657-0.981-3.572c-0.654-0.914-1.517-1.37-2.584-1.37c-1.692,0-3.214,1.154-4.56,3.462
			c-1.343,2.308-2.237,5.361-2.678,9.158l-1.328,11.91H411.091z"/>
		<path fill="#317848" d="M440.665,89.108h4.736l-3.665,32.364l9.106-13.315h6.134l-9.879,14.503l8.418,14.394h-5.8l-8.168-13.911
			l-1.573,13.911h-4.794L440.665,89.108z"/>
	</g>
</g>
</svg>
