<?xml version="1.0" encoding="UTF-8" standalone="no"?>
<svg
   xmlns:dc="http://purl.org/dc/elements/1.1/"
   xmlns:cc="http://creativecommons.org/ns#"
   xmlns:rdf="http://www.w3.org/1999/02/22-rdf-syntax-ns#"
   xmlns:svg="http://www.w3.org/2000/svg"
   xmlns="http://www.w3.org/2000/svg"
   id="svg2"
   height="500"
   width="400"
   version="1">
  <metadata
     id="metadata51">
    <rdf:RDF>
      <cc:Work
         rdf:about="">
        <dc:format>
          image/svg+xml
        </dc:format>
        <dc:type
           rdf:resource="http://purl.org/dc/dcmitype/StillImage" />
        <dc:title></dc:title>
      </cc:Work>
    </rdf:RDF>
  </metadata>
  <defs
     id="defs4">
    <clipPath
       id="clipPath2516">
      <path
         id="path2518"
         d="M0 0 0 0 0 0 0 0Z" />
    </clipPath>
    <clipPath
       id="clipPath2500">
      <path
         id="path2502"
         d="M0 0 0 0 0 0 0 0Z" />
    </clipPath>
  </defs>
  <path
     d="m 396.865,1.3230837 -393.73,0 0,301.0499963 0,0 c 0,0.03 0,0.06 0,0.09 0,108.73 88.14,196.86 196.86,196.86 108.72,0 196.87,-88.14 196.87,-196.86 0,-0.03 0,-0.06 0,-0.09 l 0,0 0,-301.0499963 z"
     id="path2418"
     style="fill:#e00e00;fill-opacity:1;fill-rule:nonzero" />
  <path
     style="fill:#ffffff;fill-rule:evenodd;stroke:none;stroke-width:1px;stroke-linecap:butt;stroke-linejoin:miter;stroke-opacity:1"
     d="m 255.31833,326.84417 92.73293,105.779 c 9.40927,-10.64847 18.83372,-24.27991 25.46786,-36.56383 l -89.4804,-102.0689 M 256.15363,262.18236 171.79969,165.96114 M 143.904,134.14096 27.49905,1.3596411 3.2,1.3230837 3.27332,39.340369 115.16436,166.97273 m 56.62024,-1.02881 -28.71526,32.85958 84.32614,96.18951 28.75815,-32.81065"
     id="path4243" />
  <path
     style="fill:#ffffff;fill-rule:evenodd;stroke:#000000;stroke-width:1px;stroke-linecap:butt;stroke-linejoin:miter;stroke-opacity:1"
     d="M 340,230 200,70 60,230 200,390 Z"
     id="path4219" />
  <path
     id="path4221"
     d="M 284.26437,230 200,133.69778 115.7355,230 200,326.30213 Z"
     style="fill:#e00e00;fill-opacity:1;fill-rule:evenodd;stroke:#000000;stroke-width:1;stroke-linecap:butt;stroke-linejoin:miter;stroke-miterlimit:4;stroke-dasharray:none;stroke-opacity:1" />
  <path
     id="path4227"
     d="M 396.74404,39.364055 51.9661,432.64686 C 42.55683,421.99839 33.13238,408.36695 26.49824,396.08303 L 372.51831,1.3833274 396.81736,1.34677 Z"
     style="fill:#ffffff;fill-rule:evenodd;stroke:none;stroke-width:1px;stroke-linecap:butt;stroke-linejoin:miter;stroke-opacity:1" />
  <path
     style="fill:none;fill-rule:evenodd;stroke:#000000;stroke-width:1px;stroke-linecap:butt;stroke-linejoin:miter;stroke-opacity:1"
     d="M 26.49824,396.08303 372.51831,1.3833274 M 396.74404,39.364055 51.9661,432.64686"
     id="path4352" />
  <path
     id="path4354"
     d="m 255.31833,326.84417 92.73293,105.779 m 25.46786,-36.56383 -89.4804,-102.0689 M 256.15363,262.18236 171.79969,165.96114 M 143.904,134.14096 27.49905,1.3596411 M 3.27332,39.340369 115.16436,166.97273 m 56.62024,-1.02881 -28.71526,32.85958 84.32614,96.18951 28.75815,-32.81065"
     style="fill:#ffffff;fill-rule:evenodd;stroke:#000000;stroke-width:1px;stroke-linecap:butt;stroke-linejoin:miter;stroke-opacity:1" />
  <path
     id="path4300"
     d="m 396.865,1.3230837 -393.73,0 0,301.0499963 0,0 c 0,0.03 0,0.06 0,0.09 0,108.73 88.14,196.86 196.86,196.86 108.72,0 196.87,-88.14 196.87,-196.86 0,-0.03 0,-0.06 0,-0.09 l 0,0 0,-301.0499963 z"
     style="fill:none;stroke:#000000" />
</svg>
