<?xml version="1.0" encoding="utf-8"?>
<!-- Generator: Adobe Illustrator 21.1.0, SVG Export Plug-In . SVG Version: 6.00 Build 0)  -->
<svg version="1.1" id="Calque_1" xmlns="http://www.w3.org/2000/svg" xmlns:xlink="http://www.w3.org/1999/xlink" x="0px" y="0px"
	 viewBox="0 0 588.6 90.1" enable-background="new 0 0 588.6 90.1" xml:space="preserve">
<g>
	<path fill-rule="evenodd" clip-rule="evenodd" fill="#776F63" d="M563.2,37.1h-50.1c-5.3,0-9.6-4.3-9.6-9.6c0-5.3,4.3-9.6,9.6-9.6
		h56.7l5.6-15.8h-62.3c-14,0-25.4,11.4-25.4,25.4c0,14,11.3,25.3,25.4,25.4h50.1c5.3,0,9.6,4.3,9.6,9.6c0,5.3-4.3,9.6-9.6,9.6h-68.7
		l-5.6,15.8h74.3c14,0,25.4-11.4,25.4-25.4C588.6,48.5,577.3,37.2,563.2,37.1"/>
	<path fill-rule="evenodd" clip-rule="evenodd" fill="#776F63" d="M384.9,63V2.1h-15.8V63c0,13.8,11.2,24.9,24.9,24.9h39.2l5.6-15.8
		H394C389,72.1,384.9,68.1,384.9,63"/>
	<rect x="451.9" y="2.1" fill-rule="evenodd" clip-rule="evenodd" fill="#776F63" width="15.8" height="85.8"/>
	<path fill-rule="evenodd" clip-rule="evenodd" fill="#42A8BF" d="M323.4,2.1h-53.1c-13.8,0-24.9,11.2-24.9,24.9v36
		c0,13.8,11.2,24.9,24.9,24.9h53.1c13.8,0,24.9-11.2,24.9-24.9V27C348.4,13.3,337.2,2.1,323.4,2.1 M332.6,63c0,5-4.1,9.1-9.1,9.1
		h-53.1c-5,0-9.1-4.1-9.1-9.1V27c0-5,4.1-9.1,9.1-9.1h53.1c5,0,9.1,4.1,9.1,9.1V63z"/>
	<path fill-rule="evenodd" clip-rule="evenodd" fill="#42A8BF" d="M200.2,2.1h-51c-13.8,0-24.9,11.2-24.9,24.9v36
		c0,13.8,11.2,24.9,24.9,24.9h64l5.6-15.8h-69.6c-5,0-9.1-4.1-9.1-9.1l0-10.1h85.1V27C225.1,13.3,213.9,2.1,200.2,2.1 M209.3,37.1
		H140l0-10.1c0-5,4.1-9.1,9.1-9.1h51c5,0,9.1,4.1,9.1,9.1V37.1z"/>
	<rect y="2.1" fill-rule="evenodd" clip-rule="evenodd" fill="#42A8BF" width="15.8" height="85.8"/>
	<path fill-rule="evenodd" clip-rule="evenodd" fill="#42A8BF" d="M39.5,41.3l74.1-26L108.1,0l-74,26.7c-7.5,2.7-12.9,9.9-12.9,18.3
		c0,8.4,5.4,15.6,12.9,18.3l74,26.7l5.5-15.3l-74.1-26c-1.5-0.6-2.6-2-2.6-3.7C36.9,43.3,38,41.9,39.5,41.3"/>
</g>
</svg>
