<?xml version="1.0" encoding="UTF-8"?>
<!DOCTYPE svg PUBLIC "-//W3C//DTD SVG 1.1//EN" "http://www.w3.org/Graphics/SVG/1.1/DTD/svg11.dtd">
<!-- Creator: CorelDRAW -->
<svg xmlns="http://www.w3.org/2000/svg" xml:space="preserve" width="3280px" height="3280px" style="shape-rendering:geometricPrecision; text-rendering:geometricPrecision; image-rendering:optimizeQuality; fill-rule:evenodd; clip-rule:evenodd"
viewBox="0 0 3230.69 3230.67"
 xmlns:xlink="http://www.w3.org/1999/xlink">
 <defs>
  <style type="text/css">
   <![CDATA[
    .fil0 {fill:#00923F}
    .fil1 {fill:#383431}
    .fil2 {fill:white}
    .fil3 {fill:#1F1A17;fill-rule:nonzero}
   ]]>
  </style>
 </defs>
 <g id="Warstwa_x0020_1">
  <metadata id="CorelCorpID_0Corel-Layer"/>
  <g id="_124587608">
   <path id="_124587080" class="fil0" d="M477.493 0l2275.92 0c1.39953,276.006 176.144,479.952 477.277,487.257l0 2258.58c-314.397,0.736414 -474.334,194.791 -477.726,484.834l-2275.31 0c2.53033,-291.729 -201.289,-482.625 -477.654,-485.013l0 -2256.84c298.065,3.05152 478.317,-210.783 477.493,-488.818z"/>
   <path id="_124587152" class="fil1" d="M468.383 107.049l2294.73 -0.681735c2.67459,19.0967 8.22038,37.8526 13.3892,55.8732l-2320.88 -0.359482c4.41499,-17.6972 9.60246,-35.9319 12.761,-54.832z"/>
   <path id="_124587224" class="fil1" d="M468.742 3123.63l2293.18 0.73525c3.06315,-19.6528 7.16985,-38.5704 12.0153,-56.0873l-2318.31 0.592156c5.00831,17.3738 9.70949,35.6084 13.1135,54.7599z"/>
   <path id="_124586744" class="fil1" d="M3135.71 2752.5l0.375769 -2274.6c-19.0967,-2.66645 -37.7269,-7.87253 -55.7464,-13.06l0.466512 2298.35c18.8641,-4.53947 37.2965,-8.51936 54.9041,-10.6995z"/>
   <path id="_124587368" class="fil1" d="M94.9904 2754.3l-0.664285 -2272.2c19.0967,-2.66296 37.7456,-6.93602 55.765,-12.0851l0.0360645 2297.21c-17.6972,-4.3987 -36.2378,-9.77929 -55.1368,-12.9262z"/>
   <path id="_124587440" class="fil2" d="M852.599 760.875c161.426,-107.312 355.356,-169.772 565.098,-169.772l0.161709 -101.406c-627.235,0 -1126.62,508.614 -1126.62,1135.87 0,627.253 508.651,1135.92 1135.9,1135.92 627.36,0 1135.92,-518.075 1135.92,-1133.84l-101.408 -0.161709c0,164.333 -39.0904,324.072 -113.234,470.529l-53.5395 -27.5858c67.8082,-131.255 106.576,-295.552 106.576,-443.05l-58.7444 -0.0907429c0,144.788 -34.2985,287.799 -100.33,416.631l-56.0524 -27.9814c61.5446,-120.539 93.7793,-253.319 93.7793,-388.757l-115.37 -0.197773c0,407.298 -330.301,736.162 -737.598,736.162 -407.297,0 -737.579,-330.301 -737.579,-737.598 0,-407.297 320.339,-737.508 727.636,-737.508l0.197773 -115.37c-173.307,0 -333.261,51.7269 -466.203,140.57l-34.5149 -52.2109c142.868,-95.4127 314.721,-150.98 500.825,-150.98l0.0895795 -58.7269c-197.878,0 -380.717,59.0317 -532.809,160.421l-32.1812 -50.8649z"/>
   <path id="_124587512" class="fil3" d="M2781.19 488.362l-0.053515 99.9882c-65.4396,-4.03806 -109.161,14.3409 -110.525,74.4674l-0.449061 459.993c4.97225,56.3211 43.5601,85.3972 115.766,87.1562l0.0895795 86.7979 -480.58 0 2.40585 -89.2026c78.0563,0.0174506 131.093,-21 128.993,-88.3592l-2.40585 -435.871 -228.444 615.855 -148.252 0 -219.99 -564.308 0.251288 414.405 -130.735 0 -0.215224 -475.518c3.51803,-50.5601 -36.7753,-76.6033 -113.379,-82.3469l2.40469 -103.632 415.411 -0.0186139 166.272 519.6 187.253 -519.025 416.182 0.0186139z"/>
   <path id="_124587584" class="fil3" d="M1278.64 1878.69c7.34087,38.283 43.3984,50.075 92.4868,49.7888l0.62822 94.1016 -481.98 0 0 -92.9172c68.7226,-0.52119 108.945,-21.484 113.379,-50.9731l0 -483.971c-6.64168,-59.1213 -47.6354,-81.9699 -112.177,-79.9957l-1.20176 -85.5042 484.384 0 1.81253 86.9759c-70.4107,-3.66113 -94.425,20.3357 -97.3322,56.9144l0 199.726 250.448 -231.118c20.6231,-19.4388 -16.4768,-27.6045 -77.0337,-26.1153l0.0186139 -86.9945 455.183 1.20293 0.898122 87.2272c-8.32857,-0.0709656 -23.4408,-0.0709656 -32.2894,-0.0709656 -2.44075,0 -4.8815,0.0360645 -7.3048,0.0895795 -75.0409,1.68689 -134.162,29.2727 -172.104,67.3952l-148.468 111.26 276.15 373.609c31.6611,42.8062 119.912,63.4107 140.391,62.7825l-1.20293 90.459 -513.963 0.0174506 0 -94.1016 81.1974 -3.24929c32.0194,-0.215224 39.9164,-16.4757 23.7095,-48.8371l-172.41 -237.023 -105.176 65.941 1.95679 173.379z"/>
  </g>
 </g>
</svg>
