<?xml version="1.0" encoding="utf-8"?>
<!-- Generator: Adobe Illustrator 21.0.0, SVG Export Plug-In . SVG Version: 6.00 Build 0)  -->
<svg version="1.1" id="Ebene_1" xmlns="http://www.w3.org/2000/svg" xmlns:xlink="http://www.w3.org/1999/xlink" x="0px" y="0px"
	 viewBox="0 0 303.3 66.1" style="enable-background:new 0 0 303.3 66.1;" xml:space="preserve">
<style type="text/css">
	.st0{fill:#C31924;}
	.st1{fill-rule:evenodd;clip-rule:evenodd;fill:#C31924;}
</style>
<path class="st0" d="M84.8,15.9v-2L81.2,14h-4.1l-5.5-0.1v2c4.6,0,5,0.3,5,5.5V42c0,5.9-4.4,11.6-11.6,11.6c-7.3,0-11.3-4-11.3-11.4
	V20.3c0-3.6,0.5-4.5,4.4-4.5v-2L53.5,14h-4.2l-6.1-0.1v2c4.6,0,4.1,1.5,4.1,5v20.3c0,11.5,7.2,15.8,16.6,15.9
	c9.4,0,16.8-5,16.8-17.2V21.6C80.7,16.3,81.6,15.9,84.8,15.9L84.8,15.9z"/>
<path class="st1" d="M131.8,55.9v-2c-7.2-0.9-12.5-9.8-18.5-17c3.4-1.6,8.3-4.6,8-11.1c-0.2-9-7.1-12.6-19.3-12.1L96.4,14l-6.3-0.1
	v2c3.6,0,4.9,0.5,4.9,5.3v28c0,4.1-0.4,4.8-4.9,4.8v2l5.4-0.2h4.4l7.2,0.2v-2c-5.3,0-6-0.8-6-5.1V38.7c2.1,0.1,4.5-0.1,6-0.3
	c3.5,3.6,10.7,18.1,21.6,17.6L131.8,55.9L131.8,55.9z M115.5,26c0.3,6.2-3.6,10.1-14.4,9.8V16.4C109.8,15,115.1,18.7,115.5,26
	L115.5,26z"/>
<path class="st0" d="M161.1,45.1c0.1-4.6-1.2-8.7-11-14.1c-5.9-3.3-10.6-6.3-8-12c1.2-2.6,4.6-4,7.8-3.7c3.9,0.4,6,1.3,7,6.2h2.2
	l-0.5-7.6c-16.8-3.6-23,3.4-22.5,10.6c0.3,5.8,4.4,9.2,10.6,12.4c4.8,2.4,7.1,4.2,8,7.8c1.1,3.9-2.3,10.2-8.3,10
	c-5.3-0.2-8.2-2.4-8.8-8.6h-2.2l0.3,8.6C149.9,61.1,160.8,52.5,161.1,45.1L161.1,45.1z"/>
<path class="st1" d="M207.2,52.8l-1.2-1.5c-1.4,1.2-3,1.8-4,2c-3.3,0.7-3.2-2.8-3.2-6.7V23c0-6.3-3.8-9.6-10.1-9.5
	c-7.2,0.1-14.4,3.8-17.4,7.8c-1.4,2-2.4,5.9,0.3,5.9c0.9,0,4.4-1,4.4-2.3c0-4.2,4.1-8.5,10.8-8.5c4.4,0,5.5,2.4,5.5,8.6v8
	c-16,0-23.9,6.6-24.5,13.5c-0.7,6.4,6.9,17.4,24.7,4.8c0,3.7,3.2,5.5,6.6,5.5C202.3,56.9,204.6,54.9,207.2,52.8L207.2,52.8z
	 M192.4,48.4c-14.2,9.4-17.8,1.5-17.7-3c0.1-5.5,6.4-9.2,17.7-9.4V48.4L192.4,48.4z"/>
<path class="st0" d="M259.1,15.9v-2l-5.2,0.1h-4.2l-5.3-0.1v2c4.4,0,5.8,1.3,5.8,5.8v24.3c-2.2-3.5-25.5-28.2-28.4-31.9h-5.1
	l-5.4-0.1v2c5.5,0,6.7,1.2,6.7,7.1v22.2c0,7.5-0.8,8.8-5.5,8.8v2l5.7-0.2h4.1l5.7,0.2v-2c-5.2,0-6.1-1.1-6.1-8.5V23.1
	c2.3,3.7,26,29,29.4,33.1h2.9V21.9C254,17.1,254.5,15.9,259.1,15.9L259.1,15.9z"/>
<path class="st1" d="M303.3,52.8l-1.2-1.5c-1.4,1.2-3,1.8-4,2c-3.3,0.7-3.2-2.8-3.2-6.7V23c0-6.3-3.8-9.6-10.1-9.5
	c-7.2,0.1-14.4,3.8-17.4,7.8c-1.4,2-2.4,5.9,0.3,5.9c0.9,0,4.4-1,4.4-2.3c0-4.2,4.1-8.5,10.8-8.5c4.4,0,5.5,2.4,5.5,8.6v8
	c-16,0-23.9,6.6-24.5,13.5c-0.7,6.4,6.9,17.4,24.7,4.8c0,3.7,3.2,5.5,6.6,5.5C298.4,56.9,300.7,54.9,303.3,52.8L303.3,52.8z
	 M288.5,48.4c-14.2,9.4-17.8,1.5-17.7-3c0.1-5.5,6.4-9.2,17.7-9.4V48.4L288.5,48.4z"/>
<path class="st0" d="M10.4,34.9v13.8c0,4.5,0.5,5.2,4.8,5.2v2l-5.4-0.2H5.5L0,55.9v-2c3.6,0,4.1-0.5,4.1-3.9V6.6C4.1,2.8,4.6,2,0,2
	V0l5.7,0.1h4.2L15,0v2c-4.1,0-4.6,0.8-4.6,5.1v26.2c5.1-4.4,10.1-8.8,15.4-14c2.4-2.3,2.6-3.4-1.5-3.4v-2l5.3,0.1h4.2l4.1-0.1
	l-0.1,2c-2.4,0-4.4,0.5-8.5,4.4l-13,12.2c12.4,14.2,22.1,30.8,47.7,31.4l0,1.9C35.9,69.1,14.4,39.9,10.4,34.9L10.4,34.9z"/>
</svg>
