<?xml version="1.0" encoding="utf-8"?>
<!-- Generator: Adobe Illustrator 19.2.1, SVG Export Plug-In . SVG Version: 6.00 Build 0)  -->
<svg version="1.1" id="レイヤー_1" xmlns="http://www.w3.org/2000/svg" xmlns:xlink="http://www.w3.org/1999/xlink" x="0px"
	 y="0px" viewBox="0 0 2444.1 601" style="enable-background:new 0 0 2444.1 601;" xml:space="preserve">
<style type="text/css">
	.st0{fill:#414789;}
	.st1{fill:#4068A9;}
</style>
<g>
	<path class="st0" d="M246,79.5c0,0-114.7,115.6-152.1,153.5V79.5H2v471.2h91.8v-185c23.5,28.8,151.9,185,151.9,185h121.6
		c0,0-195.8-236.7-211.9-256.1c17.6-17.6,215.2-215.1,215.2-215.1H246z"/>
	<path class="st0" d="M721.1,79.5c0,0-95,135.4-115,164c-19.9-28.7-114.7-164-114.7-164H383.5c0,0,171,262.2,176,269.4v201.8h93.1
		V348.9C657.3,341.7,829,79.5,829,79.5H721.1z"/>
	<path class="st0" d="M835.2,148.2c-46.2,46.2-69.7,103-69.7,169.1c0,64.9,23,121.2,68.4,167.4c45.7,46.4,101,69.7,165.2,69.7
		c65.7,0,120.6-24.4,163.2-72.4c19-21.2,32.7-44.8,40.8-70c8-26.3,12.2-56.7,12.2-90.4v-29.3H987v91.3h124.4
		c-5.3,19.1-16.4,36-34.1,51c-22.6,19.2-47.5,28.4-76,28.4c-33.8,0-64.6-12.7-94.3-39.2c-31.2-28.1-46.3-63-46.3-106.8
		c0-42.6,13.8-76.9,41.9-105.1c28-28.5,61.8-42.3,103.4-42.3c46,0,84.1,20.9,116.7,64.3l10.2,13.6l68.9-66l-9.5-10.8
		c-28.3-32.1-57.5-55.9-86.6-70.2c-31.2-14.7-65-22.1-100.7-22.1C938.7,78.4,881.5,101.9,835.2,148.2"/>
	<path class="st0" d="M1978,79.5v274.8c0,35.7-5.4,61-15.9,75.4c-15.9,21.7-37.8,32.1-67,32.1c-29.2,0-50.9-10.5-66.9-32.1
		c-10.4-14.8-15.8-40.3-15.8-75.4V79.5h-97.9v293.7c0,50.8,16.2,93.7,48.2,126.8c35.7,36.9,80.2,55.6,132.4,55.6
		c52.1,0,96.7-18.8,132.4-55.5c32-33.6,48.3-76.2,48.3-126.9V79.5H1978z"/>
	<path class="st0" d="M2177.5,117.3c-30.7,24.3-46.3,55.3-46.3,91.6c0,53.8,35.6,94.6,106.2,121.5c0.1,0,45.7,16.9,45.7,16.9
		c10.3,4,19.7,8.7,27.9,13.3c7.1,4.2,13.1,8.7,17.5,13.4c4.1,4.2,7,8.7,8.9,13.8c2,5,2.8,10.8,2.8,17.4c0,16.2-5.7,29-16.9,39.4
		c-12.1,10.8-26.7,16.1-45.2,16.1c-23.4,0-40.6-7-52.4-21.7c-4.4-5.2-10.2-16.9-13.8-44.1l-2.1-16.1l-102,20.5l2.3,14.2
		c7.2,43,25.6,76.9,54.4,101.2c29.3,24,66.7,36.1,110.8,36.1c46.9,0,86.6-14.2,118.4-42.1c32.2-28.4,48.5-64.5,48.5-107.8
		c0-32.8-10.2-60.8-30.3-83.7c-19.5-21.9-48.8-40-89.9-55.1L2275,245c-27.4-10.1-41.2-22.2-41.2-35.7c0-10.3,4.2-18.3,13.5-25.3
		c10.5-8,23.5-11.8,39.9-11.8c13.5,0,24.2,2.2,31.9,6.6c5.6,2.9,14.1,9.9,25.7,27.9l7.4,11.7l84.5-44.9l-9-13.9
		c-33.2-51.6-80.2-77.8-139.8-77.8C2244.3,81.9,2207.2,93.7,2177.5,117.3"/>
	<path class="st0" d="M1646.6,511.4V79.5h-91.2v231.8C1599.2,361.7,1634.6,424.8,1646.6,511.4"/>
	<path class="st0" d="M1273.9,218.5c-4.2-3.4-8.1-7.2-11.9-11.5v343.7h91V268.3C1325.6,254.1,1299,238.8,1273.9,218.5"/>
	<path class="st1" d="M1302.3,0.5c-105.1,74-77.2,178.4-28.4,218c121.1,98,277,79,376.7,382C1666.9,206.9,1267.4,209.4,1302.3,0.5"
		/>
</g>
</svg>
