<svg width="440.768" height="475" xmlns:xlink="http://www.w3.org/1999/xlink" xmlns="http://www.w3.org/2000/svg"><g transform="translate(-.616 -1)"><path d="M6 6h430l-20 270c-10.34 100-79 194-194 194S36.34 376 26 276Z" fill="#fff"/><g stroke="#000" stroke-linejoin="round" stroke-linecap="round" stroke-width="3"><path d="M243.82 192.7c.586-13.444 4.592-7.616 5.783-1.258.494 2.637 6.585 2.583 7.985 1.496 5.176-4.02-16.338-14.828 1.646-13.354 9.346-22.922 5.872 6.462 12.29 6.458 4.457-.003 8.183-21.1 9.418.724 19.574 10.07-12.797.194-4.232 13.768 8.781 13.916 15.14 21.721 25.293 27.636 5.995 3.493 8.539-7.537 23.525 1.121 3.431 1.982 10.194-7.664 2.475-9.293l-9.475-2c-7.152-1.51-2.622-14.476 12.65-7.259 4.484 2.119 11.167-2.129 9.643-9.979-1.8-9.268-15.01-3.493-21.586-6.227-3.051-1.268-5.116-7.46 3.137-8.864-5.25-2.886-3.197-6.986.002-7.129 5.359-.238 12.887-4.725 21.457-1.836 4.981 3.342 15.13 7.04 21.301 6.692 4.287-.242-1.846 8.03 2.699 9.611 5.16-5.115 10.19-6.848 13.464 1.232-4.915-.365-9.563-.521-6.172 5.575 10.248.645 10.455 5.165 10.404 10.07-9.626-2.102-6.74 5.527-8.757 9.343 4.687 2.681 7.606 4.084 12.293 2.061-9.532 10.367-23.654 24.332-11.768 31.29-5.401 4.02-6.698 7.609-6.453 14.448-11.189 5.539-6.143 12.323-6.02 17.502-4.133-4.371-7.272-2.773-10.494-1.675 4.02 9.371-5.158 12.751-1.91 25.08 3.531 13.398 6.365 13.768 10.752 12.48 18.13-5.324-9.937-7.808-.823-20.2 6.874 13.07 16.827-1.056 16.943 15.411 5.387-7.168 9.67-13.236 9.713-17.633.186-19.15-5.465-19.678-14.354-12.586 2.12-4.076-3.626-13.808 13.507-10.921-5.366-3.645-12.256-9.387-5.921-22.21 6.03-12.212 7.292-15.722 12.12-23.293 6.02-9.437 2.958-20.337-5.657-23.808 5.576-2.807 15.637-5.219 18.475 7.718 2.368 10.795 1.728 23.06-9.06 30.747 3.952 1.685 9.148-.358 11.425 5.293-12.725.931-21.322 6.03-14.657 22.393 6.069 14.897 6.306 26.772 2.899 35.404-5.577 14.13-13.72 17.436-23.546 18.849 14.03 13.948-4.04 14.16-5.939 27.06-10.05-3.651 9.313-22.482-9.889-23.12 3.596 13.365-12.875 20.589-8.404 27.879 4.324 7.05 8.561.71 14.913-.699 5.507-1.222 6.942 4.322 14.905-2.826 1.05 10.07-5.219 14.291-13.525 16.879-3.558 12.585-8.141 13.287-15.06 11.718-1.231 4.935 2.363 5.04 6.718 4.393-9.427 15.271-15 13.75-21.364 12.12 3.816 15.1-2.25 11.281-6.929 12.425-23.304 5.693-17.11 11.391-18.425 17.354-.765 3.467-6.697-.477-9.227-5.03-6.398-3.872-8.327-2.883-9.49.15-4.565 11.897-9.234 17.412-9.873 4.288-17.545-1.711 4.972-6.478 1.691-10.6-2.781-3.494-21.851 16.178-14.06-2.637-5.557-14.273 9.492 3.829 15.728-7.818 3.124-5.834-21.297 2.101-5.354-10.95 3.77-20.973 9.691 17.33 26.354-1.172 3.601-3.998 9.643-3.343 8.596-14.404-9.445 4.777-6.513-1.763-12.425-4.172 3.957-4.576.112-7.202-3.243-9.95l11.182-9.121c5.474-4.466-10.09-9.954-12.11-4.354-2.896 8.04-12.177 17.483-4.768 25.18 5.976 6.21 4.164 10.02.646 14.525-5.626-11.972-9.289-8.05-15.818-9.525-5.991-1.35-9.361-8.03-14.359-10.425-6.356-3.04-9.762.712-12.652-1.757-7.959-6.798-10.194 16.03-11.282-2.828-16.518-7.092 6.11-2.937 2.232-9.172-1.951-3.138-14.199 6.481-10-5.768-1.987-13.922 9.412 1.069 10.768-4.707 1.326-5.651-15.357-3.355-4-11.525 5.943-8.262 7.857 6.298 11.232 6 2.363-.208-3.934-16.57 7.111-7.939 14.272-4.521-7.1 14.295 8.232 17.343 4.184.832 18.365-2.417 16.07-4.636-3.229-3.123-7.874-6.292-2.354-9.525-1.36-8.993-8.484-18.863-6.95-24.768 7.537-2.398 6.585 10.969 20.646 1.05 3.147-2.22 7.852 7.542 13.517 6.125 4.58-1.145 12.628 4.584 17.382 1.935-.954-10.637-5.01-10.723-5.778-18.707-6.598-2.099-9.295.654-10.293 7.889-6.961-5.72-4.702-14.924-10.586-14.414l-19 1.646c-5.774-.769-.869 14.727-11.243 5.464-8.239 2.888-1.25-7.957-8.172-8.697-5.389-.576-7.766 25.434-12.707 8.282-13.2-2.942 6.429-5.932 5.121-11.05-.842-3.296-21.74 13.569-16-4.172-5.695-17.829 5.797 3.73 11.293-4.596 3.473-5.261-14.696-9.349.707-13.464 6.409-14.943 7.079 5.718 16.17 5.743 11.728.033 4.282-9.03 7.793-11.504 9.645 9.08 12.806 2.927 20.561-5.714-16.345 7.314-12.322-6.779-21.12-7.464 5.228-10.804 16.17 7.117 22.01-1.707-8.333 5.721-7.156-9.114-13.811-6.083.551-6.169-1.207-9.105-5.371-8.674-4.127-7.558-4.255-2.207-7.414-1.359 2.365-5.337.21-9.436-.818-14.773-4.793 9.997-5.801-2.797-7.828-7.303-1.82-4.045-16.337 16.818-13.763-.515-7.926-3.426 2.402-6.535 2.894-9.466.766-4.563-24.845-3.77-3.485-9.247z" fill="#da121a" style="fill:#ed1c24"/><g fill="#4d87ca"><path d="M125 136h95v335c-36.431-4.706-65-10-95-25zM76 163c26.03.678 37.1 23.15 39.5 44 5.04 43.886-28.796 40.505-41.5 27 3.376 33.996 26.57 54.11 51 71v17c-24.14 13.91-44.546 32.432-50.1 60.943-31.749-36.13 22.14-58.4 34.22-70.68C94.587 301.008 78.01 280.92 66 296.002c-9.01 11.314-16.753 27.23-29 8.5 10.462 3.354 15.02-4.893 18.5-17 2.098-7.309 14.985-11.728 23-7.5-8.384-12.12-15.343-25.657-14.5-47-16.809 17.743-36.917 7.566-31-24 4.436-23.662 18.868-46.628 43-46z" style="fill:#0066b3"/></g></g><path id="a" d="m15.06 25.621 74.59 7.842 29.06 58.36-74.59-7.842z" fill="#4d87ca" style="fill:#0098df"/><use height="476" width="442" transform="translate(150 14.5)" xlink:href="#a" style="fill:#0098df"/><use height="476" width="442" transform="translate(300.2 28.5)" xlink:href="#a" style="fill:#0098df"/><path d="m269.18 105.4 76.627 8.715L357.12 136l-72.323.887s-15.351-30.901-15.622-31.488zM10.84 81.35l33.93 2.893 26.936 51.641-55.851.289zM360.53 6.58l74.24 4.66-3.116 54.47-42.42-3.953zM218.6 5.161l71.41 1.478 24.814 48.46-74.59-7.842zM74.96 4.803l71.76 1.478 18.1 34.32-74.59-7.842zm43.75 87.02 75.551 6.912 19.678 36.644c.045-.308-71.297.242-71.297.242z" fill="#4d87ca" style="fill:#0098df"/><g stroke="#000" stroke-linejoin="round" stroke-linecap="round" stroke-width="3"><path d="M15 136h410M10.121 81.104l418.404 41.146M4.25 5.25l67.793 130.732M74.75 3.75l68.5 132.5m216.5-131 68.5 132.5m-139.5-134 68.5 132.5m-140-132 67.793 130.732M146.5 5l67.44 130.379M8.5 24.5l423 41.5" fill="none"/><path d="M166.72 166.53c-26.03.678-32.604 19.652-35 40.5-5.04 43.886 23.796 46.51 37 23.5 1.535 38.908-16.305 60.56-43.722 74.47v17c27.08 23.21 55.55 49.942 59.4 78.08-4.03 13.678-1.374 27.469 12.921 34.898-2.207-17.245 10.531-24.677 1.805-35.394.655-29.56-36.662-65.29-63.53-84.79 14.533-11.255 36.665-37.833 45.619-20.761 7.507 14.314 13.253 33.73 29 10.5-15.557 4.203-18.776-1.435-19.5-14-.437-7.591-11.985-15.228-25-8 5.884-10.116 11.343-25.657 10.5-47 17.309 21.243 38.42 3.566 32.5-28-4.436-23.662-17.868-41.628-42-41z" fill="#fff"/></g><path d="M342.234 184.325c0 2.343-1.424 4.243-3.182 4.243-1.757 0-3.181-1.9-3.181-4.243 0-2.343 1.424-4.243 3.181-4.243 1.757 0 3.182 1.9 3.182 4.243z" fill="#fff"/><path d="M292.83 435.22c6.067-.408 13.887-4.655 14-10.02.068-3.208-7.315-3.88-8.77.052-1.486 4.01-2.142 7.452-5.23 9.972zm-11.508 8.545c-4.175-4.421-7.03-12.85-3.463-16.868 2.129-2.4 8 2.123 6.4 5.996-1.637 3.956-3.491 6.924-2.937 10.871zm-24.503-19.728c1.548-5.88 7.198-12.755 12.492-11.852 3.163.54 2.426 7.916-1.71 8.602-4.223.7-7.723.694-10.782 3.25zm8.24-25.515c3.649-4.864 11.472-9.105 16.04-6.274 2.727 1.691-.735 8.247-4.824 7.324-4.176-.942-7.415-2.266-11.212-1.051zm-39.993-31.14c3.772 4.769 11.702 8.808 16.191 5.861 2.682-1.761-.946-8.226-5.01-7.199-4.15 1.049-7.355 2.455-11.181 1.338zm-2.393-4.056c.483-6.06 4.827-13.828 10.197-13.876 3.209-.029 3.789 7.362-.161 8.769-4.03 1.437-7.478 2.05-10.04 5.107zm29.17-43.553c5.718 2.068 12.06 8.311 10.686 13.503-.821 3.102-8.102 1.707-8.414-2.473-.319-4.269 0-7.754-2.271-11.03zm-27.566 15.59c5.063-3.367 13.853-4.753 17.21-.561 2.01 2.505-3.446 7.529-6.993 5.294-3.622-2.282-6.234-4.611-10.218-4.733zm30.68-22.413c5.876 1.563 14.646.053 16.479-4.995 1.095-3.02-5.68-6.02-8.322-2.769-2.697 3.324-4.423 6.369-8.157 7.763zm-14.36 6.757c-2.141-5.691-1.512-14.568 3.329-16.895 2.892-1.39 6.56 5.05 3.584 8-3.039 3.02-5.896 5.04-6.912 8.89zm-17.823-22.413c1.679-5.844 7.481-12.591 12.753-11.57 3.15.61 2.249 7.969-1.902 8.562-4.238.606-7.736.522-10.852 3.01zm9.334-33.399c5.541-2.505 14.439-2.451 17.07 2.228 1.575 2.796-4.617 6.873-7.756 4.094-3.205-2.837-5.406-5.558-9.319-6.322zm-1.058-56.43c2.434 5.572 9.07 11.496 14.167 9.789 3.042-1.02 1.179-8.195-3.01-8.237-4.281-.042-7.738.502-11.153-1.552zm60.21-34.22c.466 6.06-2.617 14.41-7.915 15.293-3.165.527-4.888-6.683-1.205-8.687 3.76-2.046 7.07-3.188 9.12-6.605zm-63.788 16.512c4.896-3.606 13.61-5.411 17.16-1.385 2.123 2.406-3.081 7.685-6.731 5.623-3.727-2.106-6.447-4.307-10.433-4.238zm16.233-18.602c5.541-2.505 14.439-2.451 17.07 2.228 1.575 2.796-4.617 6.873-7.756 4.094-3.205-2.837-5.406-5.558-9.319-6.322zm92.08 1.864c11.03 6.03 20.515 9.798 31.544 9.933 5.562-6.567 13.364-11.09 20.6-13.29 10.469-3.187-.7-13.613-5.534-6.333-.738-10.378-12.152-6.193-6.946 1.369-8.207 9.924-16.186 7.04-16.12-2.244 5.625 5.455 17.1-6.399 2.735-5.633 6.68-9.131-5.808-13.941-5.732-3.444-6.01-8.152-12.778 3.643-3.947 7.159-2.993 6.558-13.912 4.875-13.937-2.496 7.097-7.503-4-14.394-6.23-6.123-9.735-8.412-15.274 2.402-6.159 5.915 4.675 1.802 8.623 7.401 9.726 15.187zm-33.495 19.614c2.478-4.064 8.02 5.468 12.884 7.821 4.828 2.335 9.714 3.178 20.17 3.493 2.087.063 3.892 3.517-.707 3.536-8.184.034-13.271-1.127-20.86-1.414-14.728-.557-15.19-7.368-11.49-13.435z" fill="#fcdd09" stroke="#000" stroke-linejoin="round" stroke-linecap="round" stroke-width="3" style="fill:#fd0"/><path transform="matrix(1.23536 0 0 1.0001 -78.45 -.362)" d="M334.82 161.87c0 2.05-1.345 3.712-3.01 3.712-1.66 0-3.01-1.662-3.01-3.712 0-2.05 1.345-3.712 3.01-3.712 1.66 0 3.01 1.662 3.01 3.712z" id="b" fill="#da121a" stroke="#000" stroke-width="2.699" style="fill:#ed1c24"/><use height="476" width="442" transform="translate(25.456 -1.768)" xlink:href="#b" style="fill:#ed1c24"/><use height="476" width="442" transform="translate(45.609 11.314)" xlink:href="#b" style="fill:#ed1c24"/><g fill="none" stroke="#000"><path d="M46.975 216.26c2.246 2.065 4.642 2.416 8.09 1.379m-12.258 1.172c2.494 3.19 6.3 6.02 11.621 4.207m-14.803.743c6.305 6.216 11.142 6.342 14.803 4.561m-14.1 1.803c6.785 7.119 11.613 4.455 16.571 2.439m43.18-34.26c1.752-.006 3.505.163 5.257-.743m-4.904 6.399c2.597.008 4.664-.515 6.318-1.45m-13.389 13.12c3.665.734 6.249 1.574 11.621-1.803m-14.803 7.814c4.934 1.634 7.929 1.973 14.803-2.157m-19.05 6.753c3.618 1.741 11.739 4.647 18.16-1.273m-21.698 6.93c7.4 4.957 16.818 4.522 24.349-2.864m-8.09-19.41c3.042.744 5.508.625 6.672-1.45m-41.32 25.14c-1.881-17.16 6.313-25.693 12.922-52.908-.97 21.07-6.939 22.438-2.715 54.29m31.866 80.29c5.201-3.68 13.831-7.876 19.05-9.581m-2.782 18.244c6.807-4.428 10.202-6.457 15.16-10.465m31.34-82.17c-5.72-14.227-3.355-24.608 2.78-47.31-1.973 23.949 0 35.876 4.953 53.46m-25.41-23.12c1.635.982 2.739 1.503 4.02 1.202m32.22-1.732c1.964.941 3.122 1.332 5.257-.036m-5.964 5.692c3.257.95 7.02.751 8.09-1.45m-6.318 7.46c3.4 1.222 5.79.046 7.732-1.096m-7.379 6.753c4.463.485 6.098-.484 9.146-2.51m-9.5 7.46c4.811 1.733 9.379 2.494 12.328-3.218m-62.18-3.5c4.07 6.393 11.689 7.782 15.51 5.975m-12.682-9.864c2.909 2.319 5.812 4.648 10.561 4.207m-7.379-8.096c2.177 1.064 2.982 2.586 7.732 2.793m-3.843-5.975c1.635 1.25 3.269 1.771 4.904.672m-84.81 130.5c7.269-.391 13.492.788 15.16 8.803m101.16 42.46c4.581-.192 9.162-.72 13.743-.036m76.06-34.26c5.406 3.845 10.812 3.234 16.218-8.874m-11.268-19.06c2.1-2.282 4.69-2.114 7.732.318m-7.732-5.621c2.343-1.057 4.687-3.419 7.03-.036m-9.5-6.328c1.864-2.929 5.519-2.873 10.207-1.096m29.744 30.441c2.098 3.383 5.118 3.997 8.136 4.62-6.935 1.272-9.02 4.563-4.646 10.547M304.44 349.27c2.492-3.74 1.112-12.319 10.435-7.521-2.557-6.506-4.374-12.944 8.965-17.971m-30.89 99.21c-.078-3.519 3.439-5.76 8.97-8.344m13.835-32.14c5.42-4.291-1.724-3.278-3.313-12.872-2.332 5.078-4.464 10.615-3.097 11.07m-4.197-9.864c2.224-2.439 4.448-8.504 6.672-6.753m-.661-8.45c14.689-16.02 11.31-37.648 17.782-55.933 1.476 7.95 1.282 19.66 6.214 19.835m-24.703-33.2c-1.95 5.6-.302 15.606-7.471 14.814m26.562 92.31c3.462-6.42 10.578-1.736 8.763-12.566-.678-4.047 6.594-3.711 6.34-7.244-.269-3.735-6.195-9.214-2.775-12.05m2.167 26.552c2.931 4.068 8.16 1.078 11.09.848m2.344-19.94c7.235-8.895 14.407-3.728 21.17-8.167m10.653-109.92c2.691-3.08 4.32-7.222 10.561-6.753m-129.99 29.802c3.224 6.02 8.21 4.669 15.434-3.974 1.274 11.03 9.22 2.662 15.487-4.472-.102 5.553-1.661 11.591 5.877 14.597-6.249-12.436 4.04-10.696 11.06-11.754m-27.632-6.513c2.328-2.1 3.384-4.382 10.111-5.854m23.45-13.649c-9.899-5.593-17.244-7.72-21.855-4.415-4.438 3.18-8.457 6.369-7.802 12.475 5.316-6.155 15.998-9.976 18.315-2.897m-8.213-15.666c8.827 2.126 16.948-2.14 24.361 2.568m1.17 17.698c-5.29 7.793-3.092 15.586-4.638 23.379 3.938-3.709 7.944-7.117 9.286-22.508 1.752 6.794 4.04 26.23 5.666-.158 1.774 10.863 8.06 8.06 6.17-5.464 2.179.286 7.353 9.893 4.085-6.766 2.419.707 8.821 10.708 3.976-5.534 4.662 1.285 5.403-2 2.065-10.05m12-7.681c4.813 3.241 7.99.549 9.07-.879m-23.374 45.784c6.386 5.861-1.348 11.278 1.722 19.763m8.531-33.906c2.695 5.239 5.391 1.088 8.09-.743m-5.964-13.05c4.746-3.344 7.573-2.21 9.5 1.025m-2.075-9.157c2.931-.142 5.862-1.823 8.793 2.439m-16.925-17.289c5.288-4.469 10.576-6.871 15.864-5.692m-50.698 15.953c18.313 5.366 9.969-12.92 20.861-12.604m6.549-25.588c.101 9.425 6.895 15.869 8.793 8.803m-2.429 11.349c2.385 1.765 5.584-.624 9.854-3.571m-37.542-13.925c.625 5.553 2.099-1.565 8.346 5.337-6.135-6.966.879-7.907-6.485-12.441m-20.515 76.17c9.09.109 2.445-9.431 9.111-8.604m-.953 157.14c3.285 1.313 7.63 4.04 10.914 3.677m23.734-144.74c3.405 1.618 7.635 3.099 5.611 5.621m-3.843-12.339c3.935.959 9.781.963 8.439 4.561m-52.28 25.845c1.95 4.496-1.299 9.376-3.912 15.627 4.799-3.72 18.923-9.852 17.569-19.418 3.273 11.959 6.547 9.338 9.82 12.919-5.074-3.273 3.158-7.876 1.936-17.283 3.181 6.454 6.362 8.967 9.189 6.883 1.858-3.634-4.738-4.123-2.959-10.925m-72.12-46.669c-.986 2.281.794 4.414-3.228 6.859m61.2-65.79c11.334 1.643 20.717 4.418 32.846 11.05m-30.03-5.01 11.646-2.059m-1.057 6.698 11.822-2.735m-35.3 106.67c2.195 7.12.74 6.939.308 8.803" stroke-linejoin="round" stroke-linecap="round" stroke-width="3"/><path d="M6 6h430l-20 270c-10.34 100-81 195-196 195S36.34 376 26 276Z" stroke-width="10"/></g></g></svg>