<?xml version="1.0" encoding="UTF-8" standalone="no"?>
<!-- Created with Inkscape (http://www.inkscape.org/) -->

<svg
   version="1.1"
   width="164.87248"
   height="145.80991"
   id="svg2"
   xml:space="preserve"
   sodipodi:docname="Landi.svg"
   inkscape:version="1.1.1 (c3084ef, 2021-09-22)"
   xmlns:inkscape="http://www.inkscape.org/namespaces/inkscape"
   xmlns:sodipodi="http://sodipodi.sourceforge.net/DTD/sodipodi-0.dtd"
   xmlns:xlink="http://www.w3.org/1999/xlink"
   xmlns="http://www.w3.org/2000/svg"
   xmlns:svg="http://www.w3.org/2000/svg"><sodipodi:namedview
     id="namedview966"
     pagecolor="#ffffff"
     bordercolor="#666666"
     borderopacity="1.0"
     inkscape:pageshadow="2"
     inkscape:pageopacity="0.0"
     inkscape:pagecheckerboard="0"
     showgrid="false"
     fit-margin-top="0"
     fit-margin-left="0"
     fit-margin-right="0"
     fit-margin-bottom="0"
     inkscape:zoom="1.2761513"
     inkscape:cx="55.636038"
     inkscape:cy="139.09009"
     inkscape:window-width="1323"
     inkscape:window-height="783"
     inkscape:window-x="0"
     inkscape:window-y="25"
     inkscape:window-maximized="0"
     inkscape:current-layer="svg2" /><defs
     id="defs6"><clipPath
       id="clipPath18"><path
         d="M 0,0 H 419.528 V 595.276 H 0 Z"
         id="path20" /></clipPath><clipPath
       id="clipPath26"><path
         d="M 0,0 H 419.526 V 595.278 H 0 Z"
         id="path28" /></clipPath><clipPath
       id="clipPath40"><path
         d="M -3.114,-8.505 H 424.917 V 603.783 H -3.114 Z"
         id="path42" /></clipPath><clipPath
       id="clipPath48"><path
         d="M -102.051,710.595 H 511.551 V -147.402 H -102.051 Z"
         id="path50" /></clipPath><clipPath
       id="clipPath56"><path
         d="M 318.141,595.278 H 0 V 0 h 20.7 v 67.041 c 0,18 18,18 18,18 h 128.691 c 18,0 18,-18 18,-18 V 0 h 132.75 V 595.278 M 11.268,528.075 H 124.551 V 501.201 H 11.268 Z"
         id="path58" /></clipPath><clipPath
       id="clipPath74"><path
         d="M 167.391,85.041 H 38.7 c 0,0 -18,0 -18,-18 L 20.7,0 h 164.691 v 67.041 c 0,0 0,18 -18,18"
         id="path76" /></clipPath><clipPath
       id="clipPath86"><path
         d="M 75.825,173.619 H 178.551 V 499.608 H 75.825 Z"
         id="path88" /></clipPath><clipPath
       id="clipPath94"><path
         d="m 162.281,208.777 c 0,0 -0.628,-11.842 -3.025,-16.2 -2.404,-4.359 -12.277,-11.75 -28.2,-12.37 -15.915,-0.621 -29.612,3.916 -34.42,8.902 -4.801,4.98 -5.778,9.874 -6.221,14.24 -0.449,4.358 -0.628,71.901 -0.628,71.901 l -0.798,70.931 c 0,0 -0.264,15.573 -0.179,17.977 0.093,2.404 1.513,9.702 4.273,14.324 2.754,4.63 4.801,7.034 7.912,12.727 3.117,5.7 7.918,15.751 8.717,21.893 0.799,6.143 2.311,24.476 2.311,24.476 l 0.271,24.027 0.179,0.713 c 0,0 1.869,0.799 0.442,1.869 0,0 -0.799,0.621 -0.799,1.156 0,0.535 -0.093,2.311 0.178,2.761 l 0.264,0.442 -0.356,0.713 c 0,0 0.178,4.716 0.628,5.786 0.442,1.07 0.442,1.155 0.442,1.155 0,0 0.085,1.071 0.713,1.249 0,0 -1.427,1.241 -1.427,2.311 0,1.07 0.443,2.226 0.443,2.226 v 0.799 l -0.171,1.248 0.349,2.048 c 0,0 0,1.776 3.203,2.932 3.203,1.162 19.661,1.162 22.771,-0.179 3.11,-1.334 5.072,-2.846 4.979,-5.072 -0.085,-2.218 -0.264,-3.823 -1.334,-4.266 0,0 -0.178,-0.806 0.272,-1.07 0.442,-0.271 0.527,-1.512 -0.093,-2.49 0,0 -0.714,-0.713 0.356,-1.248 l 0.179,-2.939 c 0,0 0.264,-2.226 0.264,-2.846 0,-0.621 -0.535,-1.156 -0.535,-1.156 0,0 0.713,-0.535 0.627,-1.248 -0.092,-0.714 -0.178,-1.777 -0.713,-2.133 -0.535,-0.357 -1.334,-1.427 -0.713,-1.962 0.628,-0.528 1.155,-0.443 1.155,-1.42 0,-0.977 -0.527,-24.297 -0.527,-24.297 0,0 0.349,-17 2.218,-24.826 1.869,-7.833 6.05,-18.961 11.3,-25.724 5.243,-6.763 8.71,-19.219 8.71,-23.049 0,-3.824 -1.683,-48.41 -1.683,-48.41 l -1.605,-78.136 z"
         id="path96" /></clipPath><clipPath
       id="clipPath102"><path
         d="M 75.827,173.622 H 178.553 V 499.606 H 75.827 Z"
         id="path104" /></clipPath><clipPath
       id="clipPath114"><path
         d="m 121.185,436.68 h -45.36 v 55.134 h 45.36 z"
         id="path116" /></clipPath><clipPath
       id="clipPath122"><path
         d="M 132.396,489.628 V 427.402 H 77.901 v 62.226"
         id="path124" /></clipPath><clipPath
       id="clipPath142"><path
         d="m 130.302,473.148 h 158.454 v 127.8 H 130.302 Z"
         id="path144" /></clipPath><clipPath
       id="clipPath150"><path
         d="m 193.001,552.328 13.945,41.995 h 46.75 l -13.739,-41.995 z"
         id="path152" /></clipPath><linearGradient
       x1="0"
       y1="0"
       x2="1"
       y2="0"
       id="linearGradient166"
       gradientUnits="userSpaceOnUse"
       gradientTransform="matrix(0,-44.194748,-62.894974,0,254.79645,595.42297)"
       spreadMethod="pad"><stop
         id="stop168"
         style="stop-color:#e5f5e4;stop-opacity:1"
         offset="0" /><stop
         id="stop170"
         style="stop-color:#00a650;stop-opacity:1"
         offset="1" /></linearGradient><clipPath
       id="clipPath178"><path
         d="M 193.001,552.328 165.696,478.8 h 46.75 l 27.511,73.528 z"
         id="path180" /></clipPath><linearGradient
       x1="0"
       y1="0"
       x2="1"
       y2="0"
       id="linearGradient194"
       gradientUnits="userSpaceOnUse"
       gradientTransform="matrix(0,75.728119,76.461258,0,164.59619,477.70047)"
       spreadMethod="pad"><stop
         id="stop196"
         style="stop-color:#fffef2;stop-opacity:1"
         offset="0" /><stop
         id="stop198"
         style="stop-color:#fff200;stop-opacity:1"
         offset="1" /></linearGradient><clipPath
       id="clipPath234"><path
         d="M -162.99,306.981 H 14.175 V 584.649 H -162.99 Z"
         id="path236" /></clipPath><clipPath
       id="clipPath242"><path
         d="M -162.99,584.649 H 14.256 V 306.945 H -162.99 Z"
         id="path244" /></clipPath><clipPath
       id="clipPath250"><path
         d="m -111.357,352.62 c 0,0 1.152,-0.621 2.412,-1.143 1.26,-0.522 2.628,-0.936 2.628,-0.936 l 2.493,1.431 0.054,0.405 0.486,-0.297 0.756,0.333 c 0,0 0.036,1.152 0,2.889 -0.072,3.321 -0.243,8.307 -0.243,8.307 0,0 1.44,-1.098 3.213,-1.809 1.566,-0.639 3.492,-0.909 3.492,-0.909 l 0.846,-23.67 -0.405,-2.043 c 0,0 -8.199,-0.639 -10.539,-4.95 -1.791,-3.303 1.548,-8.838 12.87,-8.46 6.372,0.216 9.468,2.502 9.468,2.502 0,0 -3.897,-1.926 -3.645,-5.58 0.135,-1.863 3.483,-6.867 13.644,-6.453 6.894,0.288 12.537,2.736 12.501,7.272 -0.036,5.85 -11.16,6.75 -11.16,6.75 l -0.297,2.133 c 0,0 -0.117,6.291 -0.036,12.213 0.072,5.256 0.351,10.233 0.351,10.233 0,0 0,1.134 0.333,1.386 0.333,0.243 2.979,0.432 5.589,2.205 2.61,1.773 5.886,5.022 4.77,9.972 -0.981,4.374 -4.617,7.434 -4.617,7.434 l 0.09,5.958 c 0,0 8.793,0.477 17.028,2.007 7.218,1.35 14.085,3.852 14.085,3.852 l 0.702,-27.639 3.879,-2.007 c 0,0 3.006,1.341 7.335,3.897 3.654,2.151 4.464,3.465 4.464,3.465 l -0.891,30.744 c 0,0 3.375,2.961 5.562,6.723 1.35,2.34 1.683,4.77 1.683,4.77 l -0.45,12.708 c 0,0 0.45,1.233 0.468,3.969 0.027,2.736 0,2.592 0,2.592 l 0.099,4.653 c 0,0 -0.162,2.61 -0.567,3.807 -0.396,1.188 -0.603,1.422 -0.603,1.422 l -3.366,85.662 c 0,0 0.468,1.332 0.54,3.501 0.072,2.178 0.468,6.615 0.468,6.615 0,0 0.09,2.223 -0.558,3.69 -0.657,1.476 -1.08,1.962 -1.08,1.962 v 1.449 c 0,0 3.627,1.854 6.093,4.473 1.935,2.061 2.835,5.031 2.835,5.031 0,0 0.081,2.259 0.072,4.743 -0.009,2.331 -0.459,4.698 -0.918,6.354 -1.521,5.481 -15.903,18.936 -60.786,18.936 -28.098,0 -45.099,-5.148 -54.279,-9.729 -7.506,-3.735 -9.603,-7.074 -9.603,-7.074 0,0 -1.647,-1.665 -2.196,-4.995 -0.612,-3.735 -0.144,-8.532 -0.144,-8.532 0,0 0.423,-2.853 2.898,-5.382 2.664,-2.718 7.407,-5.13 7.407,-5.13 v -1.008 c 0,0 -2.331,-1.899 -1.773,-5.184 0.504,-2.934 1.116,-8.946 1.116,-8.946 0,0 -0.09,-3.6 -0.297,-8.955 -0.531,-14.31 -1.575,-40.689 -1.575,-40.689 0,0 -4.563,0.252 -7.353,-1.341 -2.763,-1.584 -1.215,-4.311 -1.215,-4.311 0,0 -0.207,-0.351 -0.18,-0.72 0.018,-0.342 0.27,-0.702 0.27,-0.702 0,0 -0.351,-0.846 -0.405,-1.818 -0.063,-1.008 0.18,-2.142 0.18,-2.142 0,0 -0.135,-0.756 -0.027,-1.377 0.099,-0.585 0.45,-1.035 0.45,-1.035 0,0 -0.27,-0.063 -0.324,-0.639 -0.099,-0.837 0,-2.286 0,-2.286 l 0.441,-19.872 c 0,0 0.099,-2.43 -0.315,-3.015 -0.909,-1.278 -4.194,-3.015 -7.038,-8.442 -1.674,-3.186 -2.079,-6.165 -2.043,-9.774 0.036,-3.609 0.18,-6.381 0.18,-6.381 0,0 0.576,-16.569 0.99,-32.553 0.387,-14.841 0.621,-29.187 0.621,-29.187 0,0 -0.756,-6.867 4.869,-9.774 5.157,-2.664 8.622,-2.664 13.914,-2.493 5.292,0.18 11.367,2.538 13.356,7.146 1.485,3.456 0.927,13.788 0.927,13.788 m 34.902,-0.54 c 0,0 0.189,-2.484 0.288,-5.832 0.198,-6.714 0.36,-16.893 0.342,-17.379 -0.036,-0.738 -0.198,-2.295 -0.198,-2.295 l -0.405,-0.567 c 0,0 -1.386,-0.009 -3.24,-0.432 -1.539,-0.36 -3.69,-1.215 -3.69,-1.215 0,0 1.962,1.593 2.403,3.681 0.288,1.314 -0.126,2.934 -1.746,4.158 -4.572,3.447 -9.198,3.096 -9.198,3.096 l -0.342,1.575 c 0,0 -0.063,3.753 -0.054,8.01 0.018,5.643 0.135,14.175 0.135,14.175 l 0.027,1.863 c 0,0 1.971,0.54 2.727,0.783 0.801,0.261 2.052,0.891 2.052,0.891 0,0 -0.234,-5.184 4.833,-8.001 4.446,-2.484 6.066,-2.511 6.066,-2.511"
         id="path252" /></clipPath><clipPath
       id="clipPath258"><path
         d="M -162.992,306.984 H 14.173 v 277.662 h -177.165 z"
         id="path260" /></clipPath><clipPath
       id="clipPath270"><path
         d="m 8.505,117.558 h 92.574 V 444.33 H 8.505 Z"
         id="path272" /></clipPath><clipPath
       id="clipPath278"><path
         d="m 93.209,146.21 c 0,0 0.841,-14.579 -3.849,-18.936 -4.69,-4.357 -30.804,-3.686 -42.689,-3.686 -11.886,0 -27.29,0.837 -30.469,5.697 -3.179,4.86 -2.174,20.78 -2.174,20.78 l 0.332,86.135 0.502,81.442 c 0,0 1.34,14.077 8.372,24.299 7.032,10.222 12.05,12.401 14.562,17.093 2.513,4.692 2.513,6.2 2.513,13.071 0,6.871 0.502,32.007 0.502,32.007 l 0.335,5.865 c 0,0 -0.335,0.838 0.335,1.341 0.67,0.503 1.005,2.011 0.335,2.011 -0.67,0 -1.005,2.011 -1.005,2.011 0,0 -0.164,8.044 1.173,8.044 0,0 -1.169,2.513 0.837,2.681 0,0 -1.34,1.676 -1.34,2.849 0,1.173 0.838,2.011 0.838,2.011 0,0 -2.174,2.346 0.502,4.021 0,0 0.834,1.173 2.677,1.173 1.843,0 8.372,0.503 12.221,0.503 3.849,0 11.551,-0.335 12.221,-2.346 0,0 1.675,-0.838 0.335,-2.849 0,0 1.005,-2.011 -0.503,-2.681 0,0 -0.335,-1.341 0.335,-1.843 0.67,-0.503 0.67,-1.173 0.67,-1.173 l -1.005,-1.006 c 0,0 0.335,-1.005 1.005,-1.508 0.67,-0.503 0.503,-4.86 0.503,-4.86 l -0.168,-3.854 c 0,0 -0.335,-1.341 -1.172,-1.341 0,0 -0.168,-1.173 0.502,-1.843 0.67,-0.67 0.503,-3.016 0.503,-3.016 l -0.67,-23.126 -0.67,-16.088 c 0,0 -0.339,-9.049 3.849,-12.903 4.187,-3.854 11.387,-11.06 14.733,-17.763 3.347,-6.703 6.027,-12.904 6.027,-19.942 0,-7.038 -0.503,-84.627 -0.503,-84.627 z"
         id="path280" /></clipPath><clipPath
       id="clipPath286"><path
         d="m 8.504,117.555 h 92.574 V 444.331 H 8.504 Z"
         id="path288" /></clipPath><clipPath
       id="clipPath298"><path
         d="M 51.732,350.226 H 6.381 v 55.125 h 45.351 z"
         id="path300" /></clipPath><clipPath
       id="clipPath306"><path
         d="M 62.947,403.171 V 340.945 H 8.452 v 62.226"
         id="path308" /></clipPath><clipPath
       id="clipPath324"><path
         d="M 133.227,145.278 H 250.974 V 457.083 H 133.227 Z"
         id="path326" /></clipPath><clipPath
       id="clipPath332"><path
         d="m 161.415,180.851 c 0,0 -0.117,-6.294 -0.078,-7.115 0.039,-0.821 0.469,-6.411 0.781,-7.78 0.313,-1.368 0.587,-3.596 1.173,-4.847 0.587,-1.251 1.212,-2.424 1.877,-3.089 0.664,-0.664 3.636,-1.994 4.339,-2.345 0.704,-0.352 6.685,-1.564 7.975,-1.877 1.29,-0.313 1.095,-0.156 2.58,-0.273 1.486,-0.118 1.447,-0.118 1.916,-0.118 0.469,0 0.586,-0.117 0.782,-0.234 0.195,-0.118 0.313,-0.079 1.016,-0.039 0.704,0.039 2.072,-0.04 2.072,-0.04 l 1.173,-0.156 c 0,0 0.43,0.039 0.977,0 0.548,-0.039 0.665,-0.156 1.017,-0.156 0.352,0 0.743,0.195 1.29,0.117 0.547,-0.078 0.782,-0.039 0.782,-0.039 h 0.586 l 0.43,-0.117 1.095,0.039 h 0.625 1.017 l 0.313,-0.118 c 0,0 0,0.04 0.899,0.079 0.899,0.039 1.016,0.039 1.446,0.039 0.43,0 1.212,-0.039 1.212,-0.039 l 1.173,0.039 1.798,0.156 c 0,0 0.157,-0.156 1.642,0 1.486,0.156 2.385,0.078 3.362,0.196 0.978,0.117 2.698,0.351 3.871,0.469 1.172,0.117 4.143,0.43 5.746,0.782 1.603,0.351 5.161,1.016 6.49,1.485 1.329,0.469 2.502,0.743 3.323,1.368 0.821,0.626 2.267,1.799 2.775,2.659 0.509,0.86 1.955,4.535 2.229,5.668 0.273,1.134 0.43,14.582 0.469,16.381 0.039,1.798 -0.039,4.925 -0.039,4.925 l -0.157,23.457 0.04,30.102 -0.079,28.303 -0.039,29.633 -0.078,29.282 c 0,0 -0.078,9.578 -0.547,12.588 -0.469,3.01 -1.799,6.998 -2.189,7.818 -0.391,0.821 -1.76,3.284 -2.542,4.457 l -0.781,1.173 c 0,0 -1.955,2.424 -3.597,4.066 l -1.642,1.642 c 0,0 -3.206,3.049 -3.792,3.557 -0.586,0.508 -2.815,3.049 -3.284,4.027 -0.469,0.977 -1.642,5.473 -1.642,5.473 l -0.43,2.463 c 0,0 0.039,2.619 -0.039,4.613 -0.078,1.994 0.274,5.825 0.235,6.528 -0.04,0.704 -0.157,5.317 -0.157,5.317 l -0.156,8.093 0.273,0.039 v 0.43 l -0.234,11.923 -0.117,9.539 0.078,0.469 0.156,0.313 c 0,0 0.078,0.078 -0.234,0.469 -0.313,0.391 -0.939,0.86 -1.056,1.329 -0.117,0.469 -0.195,0.665 -0.039,0.939 0.156,0.273 0.235,0.312 0.508,0.586 0.274,0.274 0.548,0.743 0.548,0.743 l 0.195,0.43 0.039,0.938 -0.234,0.86 0.039,0.626 0.234,0.469 0.078,0.43 c 0,0 -0.039,0.821 -0.195,1.251 -0.156,0.43 -0.196,2.072 -0.196,2.072 l -0.078,1.212 -0.234,0.43 -0.157,0.351 v 0.47 l 0.157,0.469 0.078,0.547 v 0.43 l -0.352,0.586 c 0,0 -0.117,0.118 -0.274,0.391 -0.156,0.274 -0.234,0.039 -0.234,0.626 0,0.586 0,0.43 0.234,0.704 0.235,0.273 0.391,0.391 0.43,0.547 0.04,0.156 0.274,0.625 0.196,0.782 -0.078,0.156 -0.235,0.86 -0.235,1.055 0,0.196 0.039,0.743 0.039,0.743 l 0.157,0.665 -0.039,0.938 -0.352,0.743 -0.43,0.508 -0.313,0.313 -0.078,0.508 -0.157,0.508 -0.43,0.352 -0.625,0.391 c 0,0 -1.368,0.391 -2.385,0.547 -1.016,0.157 -6.098,0.352 -8.483,0.391 -2.385,0.039 -10.321,-0.391 -11.572,-0.469 -1.251,-0.078 -2.072,-0.469 -2.697,-0.586 -0.626,-0.118 -1.525,-0.548 -1.603,-0.782 -0.078,-0.235 -0.117,-0.626 -0.117,-0.626 l 0.078,-0.312 -0.391,-0.509 -0.508,-0.586 -0.157,-0.704 0.196,-1.681 0.273,-0.821 0.352,-0.43 0.118,-0.273 -0.861,-1.251 -0.039,-0.978 0.391,-1.212 0.274,-0.352 0.508,-0.273 -0.508,-0.587 -0.508,-0.899 c 0,0 -0.235,-0.586 -0.274,-0.86 -0.039,-0.273 -0.039,-2.619 -0.039,-2.619 l -0.039,-1.212 c 0,0 -0.196,-0.626 -0.196,-0.938 0,-0.313 -0.078,-0.391 0,-0.704 0.079,-0.313 0.196,-0.938 0.196,-0.938 0,0 -0.196,-0.587 -0.196,-0.782 0,-0.196 -0.039,-0.743 -0.039,-0.743 l 0.43,-0.704 0.509,-0.508 0.547,-0.703 c 0,0 0.117,0.078 0.078,-0.313 -0.039,-0.391 -0.43,-0.665 -0.508,-0.821 -0.078,-0.157 -0.43,-0.547 -0.43,-0.547 l -0.352,-0.548 v -0.664 c 0,0 0.156,-0.352 0.195,-0.548 0.04,-0.195 0.196,-21.345 0.196,-21.345 l -0.039,-0.43 0.313,-0.117 -0.039,-3.323 c 0,0 0.234,-22.244 0.039,-23.613 -0.196,-1.368 -0.585,-3.644 -0.821,-4.065 -0.9,-1.603 -2.815,-4.066 -3.714,-5.161 -0.899,-1.094 -5.747,-5.434 -7.115,-6.958 l -1.369,-1.525 c 0,0 -1.211,-1.212 -2.345,-3.167 l -1.134,-1.954 c 0,0 -0.68,-0.944 -1.525,-3.362 -0.86,-2.463 -0.821,-2.737 -0.821,-2.737 0,0 -0.821,-4.183 -0.86,-6.059 l -0.039,-1.877 0.039,-15.09 0.118,-10.673 0.078,-20.719 0.117,-27.014 0.157,-28.577 0.078,-31.823 z"
         id="path334" /></clipPath><clipPath
       id="clipPath340"><path
         d="m 133.228,145.276 h 117.75 v 311.811 h -117.75 z"
         id="path342" /></clipPath><clipPath
       id="clipPath352"><path
         d="m 201.969,374.886 h 45.351 v 55.125 h -45.351 z"
         id="path354" /></clipPath><clipPath
       id="clipPath360"><path
         d="m 190.754,427.829 v -62.227 h 54.494 v 62.227"
         id="path362" /></clipPath><clipPath
       id="clipPath386"><path
         d="m 398.529,584.46 h -54.72 V 3.654 h 54.72 v 512.118 h -6.453 V 9.981 H 344.763 V 583.29 h 47.313 v -11.205 h 6.453 z"
         id="path388" /></clipPath><clipPath
       id="clipPath398"><path
         d="M 392.076,583.29 H 344.763 V 9.981 h 47.313 V 515.772 H 369.63 v 56.313 h 22.446 z"
         id="path400" /></clipPath><linearGradient
       x1="0"
       y1="0"
       x2="1"
       y2="0"
       id="linearGradient422"
       gradientUnits="userSpaceOnUse"
       gradientTransform="matrix(2.4376221,9.0973358,9.0973358,0,439.66786,517.60326)"
       spreadMethod="pad"><stop
         id="stop424"
         style="stop-color:#fffef2;stop-opacity:1"
         offset="0" /><stop
         id="stop426"
         style="stop-color:#fff880;stop-opacity:1"
         offset="0.98890001" /><stop
         id="stop428"
         style="stop-color:#fff880;stop-opacity:1"
         offset="0.98890001" /><stop
         id="stop430"
         style="stop-color:#fff880;stop-opacity:1"
         offset="1" /></linearGradient><clipPath
       id="clipPath442"><path
         d="m 419.526,572.085 h -20.997 v -56.313 h 20.997 z"
         id="path444" /></clipPath><clipPath
       id="clipPath456"><path
         d="m 398.529,572.085 h -6.453 v -56.313 h 6.453 z"
         id="path458" /></clipPath><clipPath
       id="clipPath470"><path
         d="M 392.076,572.085 H 369.63 v -56.313 h 22.446 z"
         id="path472" /></clipPath><clipPath
       id="clipPath478"><path
         d="m 369.63,515.772 h 22.446 v 56.313 H 369.63 Z"
         id="path480" /></clipPath><clipPath
       id="clipPath590"><path
         d="M 124.551,528.075 H 11.268 v -26.874 h 113.283 z"
         id="path592" /></clipPath><linearGradient
       x1="0"
       y1="0"
       x2="1"
       y2="0"
       id="linearGradient610"
       gradientUnits="userSpaceOnUse"
       gradientTransform="matrix(-6.6459808,-24.803146,-24.803146,0,121.72557,528.66145)"
       spreadMethod="pad"><stop
         id="stop612"
         style="stop-color:#fffef2;stop-opacity:1"
         offset="0" /><stop
         id="stop614"
         style="stop-color:#fff200;stop-opacity:1"
         offset="0.98890001" /><stop
         id="stop616"
         style="stop-color:#fff200;stop-opacity:1"
         offset="0.98890001" /><stop
         id="stop618"
         style="stop-color:#fff200;stop-opacity:1"
         offset="1" /></linearGradient><linearGradient
       x1="0"
       y1="0"
       x2="1"
       y2="0"
       id="linearGradient4458"
       xlink:href="#linearGradient166"
       gradientUnits="userSpaceOnUse"
       gradientTransform="matrix(0,-43.768545,-62.288431,0,382.63826,601.09115)"
       spreadMethod="pad" /><linearGradient
       x1="0"
       y1="0"
       x2="1"
       y2="0"
       id="linearGradient4460"
       xlink:href="#linearGradient194"
       gradientUnits="userSpaceOnUse"
       gradientTransform="matrix(0,74.997816,75.723885,0,293.30787,484.50393)"
       spreadMethod="pad" /></defs><g
     transform="matrix(1.25,0,0,-1.25,-18.195477,152.9412)"
     id="g44"><g
       clip-path="url(#clipPath48)"
       id="g46"><g
         id="g52"><g
           clip-path="url(#clipPath56)"
           id="g54"><g
             transform="matrix(318.86395,0,0,595.91992,-0.3352814,-0.1374512)"
             id="g60" /></g></g></g></g><g
     transform="matrix(1.25,0,0,-1.25,-18.195477,152.9412)"
     id="g238"><g
       clip-path="url(#clipPath242)"
       id="g240"><g
         id="g246"><g
           clip-path="url(#clipPath250)"
           id="g248"><g
             id="g254"><g
               clip-path="url(#clipPath258)"
               id="g256"><g
                 transform="matrix(177.16534,0,0,277.66182,-162.99219,306.98387)"
                 id="g262" /></g></g></g></g></g></g><g
     transform="matrix(1.2621721,0,0,-1.2621721,-182.65524,750.13791)"
     id="g146"><g
       clip-path="url(#clipPath150)"
       id="g148"><g
         id="g154"><g
           id="g156"><g
             id="g162"><g
               id="g164"><path
                 d="m 193.001,594.323 h 60.695 v -41.995 h -60.695 z"
                 id="path172"
                 style="fill:url(#linearGradient4458);stroke:none" /></g></g></g></g></g></g><g
     transform="matrix(1.2621721,0,0,-1.2621721,-182.65524,750.13791)"
     id="g174"><g
       clip-path="url(#clipPath178)"
       id="g176"><g
         id="g182"><g
           id="g184"><g
             id="g190"><g
               id="g192"><path
                 d="m 165.696,552.328 h 74.261 V 478.8 h -74.261 z"
                 id="path200"
                 style="fill:url(#linearGradient4460);stroke:none" /></g></g></g></g></g></g><path
     d="m 163.88547,54.30243 c 3.01533,4.498382 -1.34548,11.455474 -6.77155,10.853418 -2.59755,-0.0934 -5.00956,-1.484314 -6.40048,-3.849625 -1.29877,-1.948793 -1.15993,-4.96286 -0.13884,-7.003793 z"
     id="path202"
     style="fill:#00a650;fill-opacity:1;fill-rule:nonzero;stroke:none" /><path
     d="m 14.44682,94.560669 11.897235,-0.0227 -0.02398,12.036081 H 0 L 0.06942,54.48799 h 14.377402 v 40.072699 z"
     id="path204"
     style="fill:#00a650;fill-opacity:1;fill-rule:nonzero;stroke:none" /><path
     d="m 100.25559,74.455532 c 1.20537,1.994232 1.85413,4.220704 2.03967,6.631452 V 106.64345 H 88.660013 l -0.0151,-23.781852 c -0.0467,-0.974396 -0.72701,-1.589074 -1.33033,-2.005591 -0.8343,-0.371079 -1.9021,-0.417779 -2.68969,0 -0.881,0.463217 -1.20538,1.576453 -1.25208,2.55085 v 23.236593 l -13.64029,-0.11612 0.0038,-26.506881 c 0.23224,-4.683921 3.433108,-8.812486 7.69925,-10.435639 6.49387,-2.458711 15.72287,-2.36531 20.96467,2.50415 l 1.855397,2.366572 z"
     id="path206"
     style="fill:#00a650;fill-opacity:1;fill-rule:nonzero;stroke:none" /><path
     d="M 164.62763,106.52733 H 150.43576 V 68.263316 h 14.19187 z"
     id="path208"
     style="fill:#00a650;fill-opacity:1;fill-rule:nonzero;stroke:none" /><path
     d="m 145.13085,88.827886 c -0.0101,7.573033 -5.54977,13.849814 -12.22792,16.447364 -6.35377,2.82853 -14.88858,1.62315 -20.03572,-2.82979 -6.1228,-4.777321 -8.67365,-12.66211 -6.58601,-20.314659 1.76199,-6.957093 8.348,-12.56871 15.3518,-13.867485 2.27191,-0.27894 4.31284,-0.371079 6.49261,0.09214 l 2.50415,11.688976 v -25.742 l 14.50109,-0.01136 z M 123.07061,82.31634 c -1.80869,0.695457 -2.78309,2.31861 -3.29301,4.035164 -0.32437,1.808693 0.27894,3.525247 1.39218,4.730621 1.25081,1.252074 3.15291,1.947534 4.91616,1.669854 1.90083,-0.13884 3.33971,-1.531015 4.174,-3.154168 0.64876,-1.669854 0.46322,-3.756224 -0.51118,-5.240539 -1.39091,-2.134333 -4.31284,-3.060767 -6.67815,-2.040932"
     id="path210"
     style="fill:#00a650;fill-opacity:1;fill-rule:nonzero;stroke:none" /><path
     d="m 62.960929,78.281176 c 1.437614,3.015329 2.226472,6.261636 2.31861,9.83232 V 106.52733 H 51.273216 V 94.004049 l -3.246307,12.939791 c -8.349268,0.69672 -16.140657,-3.3397 -19.851443,-10.482341 -2.921928,-5.379374 -2.736389,-13.264163 0.46448,-18.459263 4.174003,-6.955831 12.244331,-10.760017 20.592337,-9.367842 5.611618,1.066536 11.038958,4.266142 13.728646,9.646782 M 46.913673,82.26964 c -2.226471,-0.556618 -4.314104,0.464479 -5.612879,2.087632 -0.973135,1.437614 -1.390914,3.802925 -0.509918,5.426078 0.927697,1.808693 2.921929,3.339709 5.1484,3.154169 1.994232,0.0467 3.943026,-1.298776 4.730621,-3.060768 0.650019,-1.531015 0.650019,-3.664086 -0.230977,-5.056262 -0.788858,-1.345475 -2.134333,-2.13307 -3.525247,-2.550849"
     id="path212"
     style="fill:#00a650;fill-opacity:1;fill-rule:nonzero;stroke:none" /><path
     d="M 84.575623,80.762606 Z"
     id="path214"
     style="fill:#fff87e;fill-opacity:1;fill-rule:nonzero;stroke:none" /><path
     d="M 100.25559,74.455532 98.400193,72.08896 c -5.2418,-4.86946 -14.4708,-4.962861 -20.964674,-2.50415 -4.266142,1.623153 -7.46701,5.751718 -7.69925,10.435639 l -0.0038,26.506881 13.640294,0.11612 V 83.406857 c 0.0467,-0.974397 0.37108,-2.087633 1.25208,-2.55085 0.78759,-0.417779 1.85539,-0.371079 2.68969,0 0.60332,0.416517 1.28363,1.031195 1.33033,2.005591 l 0.0151,23.781852 H 100.1432 v -0.10476 H 88.763463 c 0,-0.20574 -0.0152,-23.677092 -0.0152,-23.677092 v -0.005 c -0.0492,-1.026146 -0.76613,-1.666067 -1.3745,-2.087633 l -0.0164,-0.0088 c -0.85701,-0.381176 -1.95763,-0.432925 -2.78183,0.0025 -0.93274,0.492247 -1.26091,1.657232 -1.30761,2.63794 v 0.0063 23.130565 c -0.20447,-0.001 -13.228827,-0.11107 -13.430774,-0.11359 0,-0.20574 0.0038,-26.392023 0.0038,-26.399597 0.229716,-4.639744 3.401554,-8.732968 7.631093,-10.342238 6.472421,-2.449876 15.650931,-2.348902 20.852341,2.480168 0.0126,0.01641 1.833937,2.338805 1.844037,2.351427 1.19401,1.976562 1.83898,4.182838 2.02326,6.578441 v 19.797169 h 0.1035 V 81.087032 c -0.18554,-2.410748 -0.8343,-4.63722 -2.03967,-6.631452"
     id="path216"
     style="fill:#fff87e;fill-opacity:1;fill-rule:nonzero;stroke:none" /><path
     d="m 106.38091,82.157306 0.001,-0.0013 c 0.98197,-3.87613 3.4735,-7.335744 6.70592,-9.857564 l -0.0644,-0.08204 c -3.24631,2.533179 -5.75424,6.011726 -6.74252,9.914362 -0.83051,3.043097 -0.91634,6.122797 -0.34458,9.029579 l 0.10098,-0.0202 c -0.56672,-2.891636 -0.48215,-5.953666 0.34331,-8.982879"
     id="path218"
     style="fill:#fff87e;fill-opacity:1;fill-rule:nonzero;stroke:none" /><path
     d="m 62.960929,78.281176 c -1.823838,-3.647678 -4.906063,-6.289404 -8.450242,-7.947898 l -0.04418,0.09466 c 3.526509,1.649659 6.589801,4.276239 8.401018,7.899935 1.431303,3.000183 2.216374,6.232606 2.308512,9.789407 v 18.30655 H 51.37671 V 94.004049 l -0.204472,-0.0252 c 0,0 -3.190771,12.715121 -3.227374,12.865321 -2.341329,0.1868 -4.634696,-0.009 -6.808156,-0.5339 l -0.02398,0.10224 c 2.206277,0.53137 4.534985,0.72953 6.914179,0.53137 L 51.273214,94.004089 V 106.52737 H 65.279537 V 88.113533 c -0.09214,-3.570684 -0.880996,-6.816991 -2.31861,-9.83232"
     id="path220"
     style="fill:#fff87e;fill-opacity:1;fill-rule:nonzero;stroke:none" /><path
     d="m 50.52601,84.764954 c 0,0.0013 0.0013,0.0013 0.0013,0.0013 0,0.0013 0,0.0013 0.0013,0.0013 l -0.0025,-0.0025 z"
     id="path222"
     style="fill:#fff87e;fill-opacity:1;fill-rule:nonzero;stroke:none" /><path
     d="m 50.765822,89.918403 v -0.0013 c 0.660116,-1.554996 0.663903,-3.724669 -0.23855,-5.150924 -0.253697,-0.432925 -0.567977,-0.801479 -0.916337,-1.124595 l -0.07068,0.07573 c 0.342049,0.318067 0.650019,0.680311 0.898667,1.103138 0.880996,1.392176 0.880996,3.525247 0.230977,5.056262 -0.763614,1.707719 -2.619007,3.012805 -4.55013,3.049405 l 0.0025,0.1035 c 1.971513,-0.0366 3.863509,-1.36693 4.643531,-3.111253"
     id="path224"
     style="fill:#fff87e;fill-opacity:1;fill-rule:nonzero;stroke:none" /><g
     transform="matrix(69.599991,0,0,-727.1999,410.96487,148.97159)"
     id="g390" /><g
     transform="matrix(60.599995,0,0,-718.19989,412.16486,141.1716)"
     id="g402" /><g
     transform="matrix(1.25,0,0,-1.25,-18.195477,152.9412)"
     id="g446"><g
       transform="matrix(21.279999,0,0,56.639999,398.42984,515.60805)"
       id="g448" /></g><g
     transform="matrix(1.25,0,0,-1.25,-18.195477,152.9412)"
     id="g460"><g
       transform="matrix(6.8800049,0,0,56.639999,391.86984,515.60805)"
       id="g462" /></g><g
     transform="matrix(1.25,0,0,-1.25,-18.195477,152.9412)"
     id="g474"><g
       clip-path="url(#clipPath478)"
       id="g476"><g
         id="g482"><g
           transform="matrix(22.720001,0,0,56.639999,369.46985,515.60805)"
           id="g484" /></g></g></g><g
     transform="matrix(142.19997,0,0,-33.899994,-4.454594,-473.40691)"
     id="g594" /><g
     transform="matrix(1.25,0,0,-1.25,-18.195477,152.9412)"
     id="g606"><g
       id="g608" /></g></svg>
