<?xml version="1.0" encoding="UTF-8" standalone="no"?>
<!-- Created with Inkscape (http://www.inkscape.org/) -->

<svg
   xmlns:dc="http://purl.org/dc/elements/1.1/"
   xmlns:cc="http://creativecommons.org/ns#"
   xmlns:rdf="http://www.w3.org/1999/02/22-rdf-syntax-ns#"
   xmlns:svg="http://www.w3.org/2000/svg"
   xmlns="http://www.w3.org/2000/svg"
   version="1.1"
   width="479.12"
   height="164.45453"
   id="svg3298">
  <defs
     id="defs3300" />
  <g
     transform="translate(-163.29714,-481.56349)"
     id="layer1">
    <path
       d="m 554.80197,591.37875 c 8.26458,4.50149 17.72482,7.06145 27.78851,7.09143 5.37105,-25.36724 13.11091,-40.51337 30.65957,-60.31465 7.8748,-8.88304 15.39352,-15.97073 23.2758,-21.75782 -1.40555,-3.23837 -3.09968,-6.33056 -5.05246,-9.23535 -2.2751,1.14693 -4.54271,2.3688 -6.81407,3.68065 l -3.9655,-4.19788 c 2.55246,-1.34558 5.07869,-2.5937 7.59742,-3.77062 -2.19265,-2.70613 -4.64016,-5.20237 -7.27884,-7.48123 -9.87627,3.23462 -20.05616,7.4775 -31.4167,12.95723 -27.29751,13.15589 -47.19625,26.78028 -63.91285,44.82745 2.15518,9.24285 6.48424,17.64238 12.4325,24.63262 5.20988,-8.12967 10.68963,-15.401 16.74658,-22.1626 l 12.3163,8.95423 c -4.80508,7.94227 -8.78183,16.66038 -12.37626,26.77654"
       id="path22"
       style="fill:#ffffff;fill-opacity:1;fill-rule:nonzero;stroke:none" />
    <path
       d="m 465,21.3125 c -2.51873,1.17692 -5.03754,2.43942 -7.59375,3.78125 l 3.96875,4.1875 c 2.27511,-1.3156 4.53365,-2.54432 6.8125,-3.6875 C 467.1905,24.10949 466.12444,22.69182 465,21.3125 z M 453.375,27.25 c -3.11842,1.72412 -6.34915,3.57225 -9.625,5.5625 l 5.75,4.125 c 2.83357,-2.00523 5.64515,-3.89713 8.4375,-5.625 L 453.375,27.25 z m -14.9375,8.875 c -0.78336,0.491 -1.51791,0.96651 -2.3125,1.46875 -4.07795,2.61993 -7.8931,5.20255 -11.5625,7.78125 l 8.03125,4.84375 c 1.67166,-1.43928 3.3884,-2.87823 5.1875,-4.34375 2.2901,-1.87031 4.53111,-3.59835 6.75,-5.28125 L 438.4375,36.125 z m -21.0625,14.5 c -6.04571,4.58395 -11.55755,9.17992 -16.625,14 l 11,7.03125 c 4.19413,-5.35981 8.954,-10.52635 14.4375,-15.6875 L 417.375,50.625 z m -25.8125,23.46875 c -6.05695,6.7616 -11.54012,14.02658 -16.75,22.15625 4.6664,5.48349 10.3157,10.09924 16.6875,13.5625 3.59443,-10.11616 7.56992,-18.83898 12.375,-26.78125 l -12.3125,-8.9375 z"
       transform="translate(163.29714,481.56349)"
       id="path24"
       style="fill:#abadb0;fill-opacity:1;fill-rule:nonzero;stroke:none" />
    <path
       d="m 419.46875,1 c -32.38371,0 -58.625,24.89378 -58.625,57.28125 0,4.58768 0.53052,9.05592 1.53125,13.34375 16.7166,-18.04717 36.63999,-31.68786 63.9375,-44.84375 11.35679,-5.47973 21.52998,-9.70288 31.40625,-12.9375 C 447.45267,5.00945 434.0789,1 419.46875,1 z m 53.75,33.84375 c -7.88228,5.78334 -15.40645,12.87071 -23.28125,21.75 -17.54866,19.80503 -25.2852,34.94901 -30.65625,60.3125 0.0675,0 0.12753,0 0.1875,0 32.3912,0 58.65625,-26.24129 58.65625,-58.625 0,-8.33582 -1.76158,-16.26361 -4.90625,-23.4375 z"
       transform="translate(163.29714,481.56349)"
       id="path30"
       style="fill:#00a84f;fill-opacity:1;fill-rule:nonzero;stroke:none" />
    <path
       d="m 166.34375,104.34375 c -4.81259,0 -10.05304,1.2329 -13.625,4.53125 -3.71813,3.30209 -4.25,8.0411 -4.25,12.71875 l 0,10.09375 -3.59375,0 0,9.96875 3.59375,0 0,20.40625 12.5,0 0,-39.09375 c 0,-3.8568 0.20003,-7.84375 5.21875,-7.84375 3.22714,0 5.21875,1.98413 5.21875,5.21875 0,4.12293 -2.96319,5.72493 -6.8125,5.59375 l 0,9.9375 c 5.01872,-0.34482 9.28125,3.19262 9.28125,8.40625 0,5.3673 -4.05638,8.52239 -9.28125,8.3125 l 0,10.65625 2.6875,0 c 5.01497,0 10.86446,-1.09047 14.78125,-4.53125 3.71437,-3.15591 5.5,-8.93368 5.5,-13.75 0,-8.17464 -3.50715,-11.97635 -10.25,-14.65625 3.84932,-2.88605 6.125,-5.82999 6.125,-10.78125 0,-10.0337 -7.74595,-15.1875 -17.09375,-15.1875 z M 20.9375,108.875 c -10.37853,0 -17.875,6.88529 -17.875,17.40625 0,10.02995 5.57925,12.22245 14.03125,14.625 2.88605,0.82832 8.15625,2.12815 8.15625,5.90625 0,3.64691 -3.37159,5.21875 -6.53125,5.21875 -4.60643,0 -8.56795,-2.38648 -11.9375,-5.34375 L 1,157.53125 c 5.29234,3.71064 11.69329,5.9375 18.21875,5.9375 5.22488,0 10.66329,-1.47298 14.71875,-4.90625 4.12292,-3.50824 5.34375,-8.7726 5.34375,-13.9375 0,-8.38453 -5.56988,-12.02358 -12.78125,-14.15625 l -3.4375,-1.03125 c -2.33882,-0.75337 -5.96875,-1.94403 -5.96875,-4.96875 0,-2.8898 3.27998,-4.3125 5.75,-4.3125 3.29833,0 6.46373,1.37229 8.9375,3.4375 l 5.375,-10.46875 c -4.60644,-2.61244 -10.99763,-4.25 -16.21875,-4.25 z m 25.625,7.34375 0,10.59375 -4.0625,0 0,10.3125 4.0625,0 0,24.9375 12.5,0 0,-24.9375 7.09375,0 0,-10.3125 -7.09375,0 0,-10.59375 -12.5,0 z m 69.46875,9.4375 c -10.44224,0 -17.65625,8.64883 -17.65625,18.75 0,10.10867 7.33525,18.84375 17.78125,18.84375 4.12667,0 8.4561,-1.58926 10.65625,-5.09375 l 0.15625,0 0,3.90625 12.5,0 0,-35.25 -12.5,0 0,3.4375 c -2.60869,-3.09594 -6.87829,-4.59375 -10.9375,-4.59375 z m 94.0625,0 c -11.47299,0 -19.5,7.05466 -19.5,18.8125 0,12.16262 8.71964,18.78125 20.40625,18.78125 8.03972,0 15.9435,-3.77667 17.9375,-12.09375 l -12.03125,0 c -1.37555,2.33883 -3.2851,3.21875 -5.96875,3.21875 -5.15365,0 -7.84375,-2.75756 -7.84375,-7.84375 l 26.3125,0 0,-1.28125 c 0,-12.03519 -7.07867,-19.59375 -19.3125,-19.59375 z m 48.9375,0 c -4.88379,0 -8.3952,1.42588 -11.28125,5.6875 l -0.125,0 0,-4.53125 -12.5,0 0,35.25 12.5,0 0,-18.28125 c 0,-4.40402 1.44505,-8.15625 6.53125,-8.15625 6.18814,0 5.625,5.91545 5.625,9.28125 l 0,17.15625 12.5,0 0,-21.78125 c 0,-8.6544 -3.77101,-14.625 -13.25,-14.625 z m -164.5,0.6875 c -4.87255,0 -8.99621,1.92093 -11.40625,6.25 l -0.15625,0 0,-5.78125 -12.5,0 0,35.25 12.5,0 0,-14.21875 c 0,-6.04572 1.746,-10.65625 8.6875,-10.65625 1.92279,0 3.56462,0.22049 5.28125,1.1875 l 0,-12.03125 -2.40625,0 z m 116.1875,7.40625 c 3.36955,0 6.4753,2.20045 7.09375,5.5625 l -14.5,0 c 0.75337,-3.63566 3.76308,-5.5625 7.40625,-5.5625 z m -91.40625,2.75 c 5.0787,0 8.0625,3.63967 8.0625,7.96875 0,4.47525 -2.9838,7.90625 -8.0625,7.90625 -5.08619,0 -8.03125,-3.431 -8.03125,-7.90625 0,-4.32908 2.94506,-7.96875 8.03125,-7.96875 z"
       transform="translate(163.29714,481.56349)"
       id="path122"
       style="fill:#ee3129;fill-opacity:1;fill-rule:nonzero;stroke:none" />
    <path
       d="m 446.86375,633.39512 c -2.9685,0 -5.33731,2.37256 -5.33731,5.34106 0,2.91229 2.36881,5.32982 5.33731,5.32982 2.96102,0 5.33357,-2.41753 5.33357,-5.32982 0,-2.9685 -2.37255,-5.34106 -5.33357,-5.34106"
       id="path136"
       style="fill:#231f20;fill-opacity:1;fill-rule:nonzero;stroke:none" />
    <path
       d="m 458.48665,643.1552 8.93552,0 0,-21.06815 0.0975,0 16.37176,21.06815 8.93925,0 0,-34.3852 -8.93925,0 0,21.02693 -0.09,0 -16.37926,-21.02693 -8.93552,0"
       id="path138"
       style="fill:#00a84f;fill-opacity:1;fill-rule:nonzero;stroke:none" />
    <path
       d="m 536.30127,608.77 -9.30283,0 10.26234,34.3852 9.07419,0 6.74661,-19.92872 0.0975,0 6.01572,19.92872 9.11917,0 10.98572,-34.3852 -9.29532,0 -6.473,22.21133 -0.0937,0 -6.75035,-22.21133 -7.11768,0 -7.20012,22.21133 -0.0937,0"
       id="path140"
       style="fill:#ee3129;fill-opacity:1;fill-rule:nonzero;stroke:none" />
    <path
       d="m 582.82662,633.39512 c -2.96102,0 -5.33732,2.37256 -5.33732,5.34106 0,2.91229 2.3763,5.32982 5.33732,5.32982 2.9685,0 5.33731,-2.41753 5.33731,-5.32982 0,-2.9685 -2.36881,-5.34106 -5.33731,-5.34106"
       id="path142"
       style="fill:#231f20;fill-opacity:1;fill-rule:nonzero;stroke:none" />
    <path
       d="m 517.36954,629.06604 c 4.88004,-0.86581 7.52621,-4.97375 7.52621,-9.71511 0,-7.34255 -5.1574,-10.58093 -11.95273,-10.58093 l -13.35828,0 0,34.3852 8.9355,0 0,-13.22708 0.0937,0 8.44076,13.22708 11.12065,0 -10.80581,-14.08916 z m -8.8493,-13.45572 0.86581,0 c 2.91979,0 6.20688,0.54722 6.20688,4.28783 0,3.74063 -3.28709,4.28785 -6.20688,4.28785 l -0.86581,0 0,-8.57568"
       id="path144"
       style="fill:#abadb0;fill-opacity:1;fill-rule:nonzero;stroke:none" />
  </g>
</svg>
