<svg xmlns="http://www.w3.org/2000/svg" viewBox="0 0 392 537"><path d="m 6 266 h 380 v 64.718 c 0 65.28 -55 155.28 -190 200.28 -135 -45 -190 -135 -190 -200.28 z" fill="none" stroke="#000" stroke-linejoin="round" stroke-linecap="round" stroke-width="3"/><path d="m 6,6 380,0 0,325 C 386,401 326,486 196,531 66,486 6,401 6,331 z" fill="#fff"/><g stroke-linejoin="round" stroke-linecap="round"><g stroke="#000"><g stroke-width="3"><g fill="#0f47af"><path d="m 196 386 h -178 c 33 80 128 135 178 145 z"/><path d="m 196 266 h 190 c 1.776 48.01 -1.203 90.4 -15 120 h -175 z"/></g><path d="m 106.51 414.54 c 12.17 -7.94 16.83 0.94 14.83 4.94 h 34 c -4.119 -5.837 5.087 -13.927 10.561 -8.161 l 125.97 -124.34 c 3.655 -3.608 13.01 4.02 8.43 8.54 l -2.847 2.81 l 11.942 12.1 l -13.522 13.347 l -6.322 -6.405 l 5.694 -5.62 l -5.62 -5.694 l -12.811 12.645 l 30.21 30.603 l 13.522 -13.347 l -6.322 -6.405 l -6.405 6.322 l -6.322 -6.405 l 13.522 -13.347 l 18.967 19.216 l -51.954 51.28 l -18.967 -19.216 l 13.522 -13.347 l 6.322 6.405 l -6.405 6.322 l 6.322 6.405 l 14.234 -14.05 l -30.21 -30.603 l -14.234 14.05 l 5.62 5.694 l 6.405 -6.322 l 6.322 6.405 l -13.522 13.347 l -11.942 -12.1 l -71.17 70.25 c 5.559 5.128 -3.454 13.479 -7.847 10.556 l -0.13 36.07 c 5 -4 13 7 1 15 -12 8 -19 -2 -15 -6 h -32 c 3.181 4.995 -3.993 13.12 -14.496 4.06 -10.5 -9.06 -3.12 -17.12 0.5 -15.06 v -35 c -4 2 -12 -7 0.171 -14.938 z" fill="#fff"/><path fill="none" d="m 115.8 429.03 h 40.491 v 38.09 h -40.491 z"/><path d="m 131.34 459.48 c 0.416 -4.239 7.905 -4.782 9 0 8.346 0.11 8.473 -0.766 8 -7 -4.541 0.197 -4.427 -8.664 0 -9 0.637 -7.04 -0.03 -8.506 -8 -8 -0.07 4.651 -8.664 5.122 -9 0 -7.866 -0.484 -9.177 0.405 -8 8 3.909 0.07 3.793 8.93 0 9 -0.516 5.852 0.305 7.439 8 7 z" fill="#0f47af"/><path d="m 297.34 298.45 l -53.2 52.32 m -112.76 109.29 l -0.04 6.42 m 8.836 -7.085 v 7.192 m 0 -37.16 l 0.16 6.06 m -9 -6 v 6 m 17 17 h 8 m -8 -9 h 7 m -39 9 h 7 m -7 -9 h 7 m 43 23 l -14 9 m -31 -56 l -15 10 m 60.21 -17.769 l 7.725 7.992 m -18.94 -0.22 l 11 11 m -60 34 l 14 11"/><path d="m 284.97 414.54 c -8.259 -6.942 -20.15 1.355 -14.83 4.94 h -34 c 6.195 -6.253 -4.277 -14.803 -10.561 -8.161 l -125.97 -124.34 c -3.84 -3.79 -12.742 4.284 -8.43 8.54 l 2.847 2.81 l -11.942 12.1 l 13.522 13.347 l 6.322 -6.405 l -5.694 -5.62 l 5.62 -5.694 l 12.811 12.645 l -30.21 30.603 l -13.522 -13.347 l 6.322 -6.405 l 6.405 6.322 l 6.322 -6.405 l -13.522 -13.347 l -18.967 19.216 l 51.954 51.28 l 18.967 -19.216 l -13.522 -13.347 l -6.322 6.405 l 6.405 6.322 l -6.322 6.405 l -14.234 -14.05 l 30.21 -30.603 l 14.234 14.05 l -5.62 5.694 l -6.405 -6.322 l -6.322 6.405 l 13.522 13.347 l 11.942 -12.1 l 71.17 70.25 c -5.559 5.544 2.208 16.801 7.847 10.556 l 0.13 36.07 c -5 -4 -13 7 -1 15 12 8 19 -2 15 -6 h 32 c -3.181 4.995 3.993 13.12 14.496 4.06 10.5 -9.06 3.12 -17.12 -0.5 -15.06 v -35 c 3.945 3.378 8.105 -8 -0.154 -14.945 z" fill="#da121a"/><path transform="scale(-1 1)" fill="none" d="m -275.68 429.03 h 40.492 v 38.09 h -40.492 z"/><path d="m 260.14 459.48 c -0.416 -4.239 -7.905 -4.782 -9 0 -8.346 0.11 -8.473 -0.766 -8 -7 4.541 0.197 4.427 -8.664 0 -9 -0.637 -7.04 0.03 -8.506 8 -8 0.07 4.651 8.664 5.122 9 0 7.866 -0.484 9.177 0.405 8 8 -3.909 0.07 -3.793 8.93 0 9 0.516 5.852 -0.305 7.439 -8 7 z" fill="#fff"/><path d="m 94.14 298.45 l 53.2 52.32 m 112.76 109.29 l 0.04 6.42 m -8.836 -7.085 v 7.192 m 0 -37.16 l -0.16 6.06 m 9 -6 v 6 m -17 17 h -8 m 8 -9 h -7 m 39 9 h -7 m 7 -9 h -7 m -43 23 l 14 9 m 31 -56 l 15 10 m -60.21 -17.769 l -7.725 7.992 m 18.94 -0.22 l -11 11 m 60 34 l -14 11"/></g><path d="m 56,34 c 11,11 9,11 25,11 0,-14 0,-12 -9,-25 h 34 c -9,13 -9,11 -9,25 16,0 14,0 25,-11 V 72 C 112,61 114,61 98,61 v 36 c 0,6 5,11 9,15 -7,5 -13,12 -18,20 -4,-8 -9,-14 -17,-20 4,-4 9,-9 9,-15 V 61 C 65,61 67,61 56,72 z"/><path d="m 94.14 66.901 c -0.323 -7.652 10.258 -3.487 15.709 6.225 2.697 4.806 24.399 15 30.451 19.295 5.468 3.876 12.4 1.834 10.53 -7.242 7.671 0.315 6.287 8.01 10.35 8.939 8.28 -0.853 17.466 -5.681 27.636 -1.496 -2.121 -4.738 -5.691 -10.08 3.06 -11.192 8.08 -1.024 22 1.691 22.9 -2.561 3.82 -18.13 -5.794 -20.18 -24.948 -16.587 -7.089 1.329 -12.39 -11.591 -5.482 -14.302 -6.405 -8.03 7.978 -6.515 11.94 -8.07 7.678 -6.853 30.378 -7.637 42.34 -0.974 5.348 2.978 8.02 -1.875 11.08 -2.293 2.98 2.413 -1.947 9.167 -7.443 12.185 8 5.772 15.808 8.605 21.01 2.435 -1.072 13.03 -7.699 13.08 -14.932 13.791 1.639 9.881 0.814 20.11 14.749 15.64 1.451 11.95 -3.957 18.868 -16.926 8.288 -0.515 13.244 -1.767 29.14 16.622 19.01 0.045 10.713 -7.237 20.89 -22.87 7.23 -1.265 3.055 -3.971 22.922 13.12 10.191 0.109 10.07 1.311 21.03 -20.656 13.167 -0.85 24.998 9.836 19.09 21.379 29.21 5.276 4.624 26.89 -0.506 27.687 -20.701 0.467 -11.836 -21.801 -36.728 -3.235 -66.31 -8.931 -14.155 -5.694 -22.46 1.499 -29.12 4.04 -3.736 10.642 -6.336 5.658 -15.198 -1.647 -2.929 -7.716 1.151 -9.242 9.186 -8.987 -16.661 22.455 -25.07 21.325 0.533 4.581 -7.505 7.518 -19.585 24.355 -21.836 12.503 -1.672 25.674 17.16 5.631 20.542 5.764 -5.552 2.494 -9.722 -3.349 -9.939 -6.104 -0.227 -9.751 8.889 -11.621 14.285 7.511 -2.795 17.514 -2.33 21.403 4.79 3.486 6.383 0.891 11.888 -5.367 13.624 6.386 -8.749 1.734 -15.827 -7.962 -13.31 -7.382 1.916 -5.168 8.852 -7.67 13.421 5.641 -0.28 11.73 0.285 16.681 9.92 1.735 3.377 1.317 12.633 -8.987 14.328 19.08 -18.848 -5.14 -14.24 -11.332 -5.936 9.894 6.929 6.925 10.767 -0.769 15.842 15.774 -23.984 -20.887 -2.987 -24.407 -15.332 -5.402 5.751 -3.269 37.846 9.1 49.798 -0.365 -8.228 12.176 -16.509 14.01 -22.813 1.898 -6.507 -9.19 -5.357 -10.347 4.814 -1.645 -3.928 -0.134 -11.58 7.588 -11.679 7.295 -0.093 12.355 5.938 8.988 12.295 -3.58 6.76 -9.01 12.02 -9.08 17.771 7.724 -3.451 10.286 -14.62 23.18 -11.606 5.27 2.328 9.429 8.31 6.416 16.355 -3.436 9.173 -16.725 6.422 -16.218 -0.495 9.574 7.34 13.844 0.615 7.535 -4.209 -11.167 -8.537 -14.962 13.783 -26.11 21.18 6.599 4.83 16.267 16.32 1.628 19.552 8.83 -5.546 5.266 -16.938 -8.988 -11.751 -12.235 4.452 -20.617 10.907 -34.22 11.218 2.16 5.663 8.219 8.77 13.212 6.469 2.902 -1.337 1.413 -5.635 11.843 -9.171 8.904 9.64 13.429 11.439 24.23 9.658 6.442 -3.042 8.53 -7.354 10.328 -11.698 6.627 -16.01 3.587 -16.668 -5.799 -12.542 3.01 -7.56 15.07 -7.747 13.02 7.36 6.323 0.874 3.834 10.809 1.865 17.337 5.188 0.246 15.64 3.42 9.97 12.05 -2.215 -4.127 -4.429 -2.779 -6.644 -2.131 9.691 4.471 8.183 11.578 6.03 18.837 0.044 -5.824 0.471 -12.348 -9.675 -14.792 3.668 6.771 7.412 12.286 5.549 20.02 -2.835 -13.03 -10.801 -18.446 -15.03 -12.225 -3.048 4.483 1.805 11.159 10.115 6.994 -0.351 7.64 -3.665 12.197 -9.04 13.471 2.382 10.806 0.19 9.884 -5.01 9.97 0.405 6.302 3.942 15.261 -1.507 18.312 -5.345 2.993 -12.322 4.01 -18.349 -6.34 -1.069 5.676 -3.618 14.786 -9 8.197 -4.266 -5.219 -1.364 -5.599 -2.856 -7.639 -1.427 5.804 -4.842 10.692 -7.929 3.888 -5.203 -0.954 0.209 -4.4 1.439 -7.284 -2.918 0.593 -11.383 8.637 -11.614 -0.5 -4.414 -4.612 5.34 -7.774 12.545 -6.442 -7.543 -1.184 -6.327 -5.546 -5.139 -9.23 7.443 -5.969 7.824 6.119 16.53 5.449 5.623 -1.024 9.444 -3.248 4.521 -11.302 -9.957 -0.853 -14.962 -6.658 -19.316 -13.11 -9.114 2.306 -16.562 -0.388 -22.12 -8.737 0.013 17.586 3.146 26.728 15.07 13.159 0.192 12.638 -7.726 11.328 -14.316 12.459 -1.357 9.01 -5.823 17.998 -13.433 25.93 -9.262 9.653 -28.03 5.01 -22.687 -5.441 6.334 19.1 30.09 -6.02 25.572 -22.749 -4.68 15.08 -26.23 11.766 -23.08 -1.515 3.744 12.413 16.271 11.517 14.658 -7.618 -0.946 -8.365 -5.19 -12.938 -7.572 -17.992 -3.647 -7.735 -11.501 -10.889 -15.518 -8.638 -8.638 5.696 -11.982 11.563 -9.262 19.894 2.55 7.811 9.219 4.207 14.453 3.813 -0.084 7.922 -2.618 11.762 -9.09 9.04 1.354 6.369 4.361 15.08 -0.974 22.475 -5.118 7.097 -12.01 10.135 -16.226 1.55 4.43 -1.692 11.337 -1.757 10.341 -12.06 -3.207 5.121 -7.355 7.41 -10.562 7.139 0.043 -5 -1.634 -7.853 -4.429 -9.308 -1.133 5.889 0.868 15.277 -10.07 16.393 2.891 -3.706 3.948 -7.413 3.288 -11.12 -2.935 0.992 -5.853 -0.449 -6.167 4.96 -0.421 7.231 -4.04 9.08 -9.04 12.986 6.23 -7.347 4.721 -8.301 -0.487 -11.918 -3.03 5.822 -6.474 14.578 -15.252 17.193 6.442 -4.68 7.197 -9.913 1.515 -12.58 -1.617 4.93 -5.617 9.867 -11.393 12.717 4.659 -6.28 4.513 -14.285 0 -9.612 -2.455 2.542 -1.389 7.589 -7.535 8.859 1.748 -4.097 2.67 -7.863 0.891 -10.548 -5.605 3.094 -6.353 12.646 -11.797 10.99 2.339 -4.347 0.822 -5.61 -0.259 -7.222 l -8.476 2.072 c 0.523 4.91 -10.541 2.499 -11.11 -2.438 -2.486 0.85 -8.175 7.813 -7.459 -2.602 -0.518 -1.372 0.188 -2.853 3.471 -4.566 -11.604 1.209 -6.368 -3.786 -5.328 -7.236 3.697 -5.03 9.614 4.474 10.222 2.952 1.1 -2.757 -10.541 -5.619 -1.963 -6.402 4.689 -13.353 5.725 -1.56 8.821 -1.286 17.597 -1.086 30.11 -21.536 38.41 -27.391 -8.55 0.636 -14.846 2.477 -22.07 8.471 -14.201 -9.436 -26.633 -3.722 -15.511 10.153 -8.992 -1.858 -10.07 -9.641 -4.483 -18.312 -8.366 -0.507 -25.869 -7.431 -13.07 8.692 -7.219 -0.359 -8.894 -5.466 -7.185 -13.471 -7.764 0.76 -11.761 4.581 -12.12 8.417 -0.544 5.814 7.711 9.119 17.04 10.594 -18.697 3.812 -25.612 -7.548 -20.435 -17.771 3.856 -7.614 16.16 -10.483 32.399 -9.399 -2.868 -4.821 -7.436 -12.04 0 -17.33 5.16 -3.672 12.301 0.242 12.58 6.081 -16.816 -11.605 -13.441 5.677 -9.19 8.988 5.493 4.279 43.686 -3.979 49.49 -7.717 11.157 -7.188 19.468 -11.08 36.29 -12.367 10.116 -0.777 1.904 -15.06 -2.976 -16.88 -10.311 -3.856 -7.862 -0.832 -18.699 7.672 -3.412 -4.984 -6.824 -5.221 -10.236 -6.119 -2.092 6.95 5.731 6.943 9.978 10.723 -12.734 5.123 -16.402 2.225 -21.942 -6.103 -4.273 2.433 -6.02 13.01 -14.194 10.449 3.341 -2.178 11.257 -5.787 2.664 -14.445 -3.603 10.428 -8.672 15.929 -17.292 17.322 5.646 -3.973 11.397 -9.285 6.536 -11.918 -4.392 -2.379 -7.586 7.364 -16.331 7.535 8.572 -5.04 5.986 -9.06 3.054 -9.795 -6.271 -1.567 -5.332 15.963 -11.458 4.456 -15.351 4.91 -3.164 -8.644 -8.07 -9.73 -3.043 7.619 -1.926 15.585 -11.98 8.189 -6.724 2.404 -9.943 2.048 -1.408 -7.519 -8.392 4.718 -10.02 3.687 -7.563 -5.968 -5.431 -9.965 -0.809 -10.529 6.832 -6.969 0.268 -4.23 -12.13 -9.855 3.533 -9.782 8.541 -9.679 8.75 2.67 13.654 6.728 7.34 -9.385 24.679 -4.01 35.15 -11.127 -4.436 -6.398 -11.03 0.635 -16.272 -8.904 7.86 -6.554 6.506 -9.706 7.451 -17.413 -2.741 4.838 -3.955 12.159 -12.06 8.288 l -6.178 -8.687 c -1.51 -3.188 1.666 -18.393 -0.216 -23.714 -7.531 1.841 -6.144 -9.936 -4.509 -10.651 z" fill="#da121a" stroke-width="3"/></g><g stroke-width="3"><path d="m 78.33 102.48 c -9.285 0.766 -13.247 -5.169 -5.31 -11.736 -9.198 -4.101 -4.082 -10.928 1.313 -11.679 -6.449 -5.242 -4.732 -13.852 5.637 -12.05 3.662 0.636 3.846 13.989 -5.596 12.187 c 7.93 2.097 12.08 12.652 -0.972 11.464 9.251 1.596 10.373 8.252 4.927 11.815 z" fill="#da121a" stroke="#000001"/><g stroke="#000"><g fill="#0f47af"><path d="m 158.04 71.866 c -26.658 1.195 2.822 -14.258 -9.01 -16.535 -4.769 -0.918 -10.745 6.246 -10.656 11.455 0.176 10.325 12.971 16.251 22.643 13.05 11.734 -3.88 41.11 -9.997 50.747 -1.598 5.155 4.492 -0.858 -19.225 -3.178 -14.09 -3.579 7.921 -37.772 7.145 -50.54 7.717 z"/><path d="m 81.31 71.68 c 3.853 -0.66 5.598 4.835 9.07 10.149 -4.648 1.81 -7.181 -1.861 -11.386 -3.212 -2.852 -0.917 -1.595 -6.267 2.319 -6.937 z"/><path d="m 79.53 85.33 c 3.284 -2.122 7.05 2.246 12.326 5.769 -3.562 3.491 -7.335 1.112 -11.731 1.522 -2.983 0.278 -3.93 -5.136 -0.595 -7.291 z"/><path d="m 79.59 95.87 c 3.126 -2.348 7.189 1.744 12.702 4.886 -3.307 3.734 -7.238 1.626 -11.595 2.344 -2.956 0.488 -4.282 -4.846 -1.107 -7.231 z"/><path d="m 97.38 67.69 c -3.243 -2.183 -7.089 2.114 -12.432 5.537 3.496 3.558 7.312 1.249 11.701 1.741 2.978 0.334 4.03 -5.061 0.731 -7.278 z"/><path d="m 80.15 129.53 c -0.447 -3.884 -7.153 -5.525 -13.226 -5.293 3.144 4.215 6.248 4.865 7.405 8.71 0.863 2.869 6.275 0.528 5.821 -3.417 z"/><path d="m 64.13 146.04 c -3.907 -0.126 -6.511 6.268 -7.169 12.31 4.63 -2.494 5.726 -5.47 9.699 -6.05 2.965 -0.435 1.44 -6.13 -2.529 -6.258 z"/><path d="m 73.64 163.67 c -3.237 2.193 -1.588 8.897 1.427 14.174 2.282 -4.738 1.422 -7.79 4.295 -10.594 2.144 -2.093 -2.435 -5.807 -5.723 -3.579 z"/><path d="m 96.97 166.26 c 0.279 3.9 -6.01 6.751 -12.02 7.645 2.311 -4.724 5.242 -5.935 5.668 -9.928 0.318 -2.979 6.069 -1.678 6.352 2.283 z"/><path d="m 98.37 229.56 c -1.282 -3.693 -8.185 -3.833 -14.06 -2.284 3.987 3.429 7.158 3.386 9.125 6.887 1.468 2.612 6.239 -0.852 4.937 -4.603 z"/><path d="m 89.86 237.38 c -2.47 -3.03 -9 -0.797 -13.993 2.672 4.921 1.855 7.885 0.729 10.932 3.344 2.274 1.951 5.569 -2.938 3.061 -6.02 z"/><path d="m 88.72 248.12 c -3.665 -1.362 -8.166 3.873 -10.711 9.392 5.183 -0.893 7.168 -3.365 11.12 -2.654 2.949 0.53 3.314 -5.354 -0.408 -6.738 z"/><path d="m 104.28 257.25 c -0.956 3.791 -7.82 4.531 -13.809 3.499 3.674 -3.763 6.836 -3.997 8.491 -7.655 1.235 -2.73 6.289 0.306 5.319 4.156 z"/><path d="m 270.92 229.71 c -3.192 -2.257 -8.887 1.646 -12.764 6.327 5.238 0.468 7.791 -1.412 11.428 0.29 2.714 1.27 4.578 -4.324 1.335 -6.617 z"/><path d="m 262.87 243.06 c -3.864 -0.594 -7.216 5.442 -8.595 11.361 4.896 -1.921 6.341 -4.743 10.355 -4.845 2.995 -0.076 2.165 -5.913 -1.76 -6.516 z"/><path d="m 271.65 250.47 c -3.882 0.466 -5.489 7.18 -5.227 13.252 4.2 -3.165 4.834 -6.272 8.673 -7.448 2.865 -0.878 0.497 -6.277 -3.446 -5.804 z"/><path d="m 288.05 256.1 c 0.056 3.909 -6.384 6.397 -12.437 6.947 2.577 -4.584 5.572 -5.627 6.226 -9.588 0.488 -2.956 6.155 -1.329 6.212 2.641 z"/></g><g fill="none"><path d="m 308.06 192.79 c 6.897 -4.609 23.281 -9.729 28.24 1.598 m -19.18 -10.66 c 14.87 -6.01 -1.483 -8.78 7.148 -16.351 m -133.43 79.906 c 13.289 -2.608 14.839 -17.644 1.983 -37.592 6.199 5.829 12.369 13.924 18.559 6.297 m 64.18 22.617 c 3.12 0.219 6.106 1.345 9.856 -2.664 m 10.656 11.721 c 6.481 2.737 21.03 8.973 9.243 -10.149 6.279 -0.872 10.332 -4.34 8.132 -15.1 4.618 0.726 8.869 -4.487 11.395 -7.247 m -59.938 -31.17 c 10.833 4.638 19 8.89 33.565 13.05 m -28.24 -12.787 c 14.08 1.567 7.104 -11.988 13.319 -9.06 m 3.463 14.12 c 12.03 2.279 17.253 0.227 21.578 -2.398 m -2.397 20.512 c -8.904 9.563 -3.516 11.33 2.93 12.52 m -168.07 -12.79 c 11.681 -6.245 1.194 -8.769 -3.809 -9.01 10.77 -5.609 15.329 -14 20.858 -18.959 m -37.03 34.1 c -0.351 -5.899 5.96 -7.373 10.389 -9.324 m 58.872 -34.1 c 13.06 -13.195 35.09 7.443 28.77 22.11 m -32.499 -6.66 c 6.405 -8.01 11.333 -14.395 16.925 -18.335 m 21.435 31.655 c 2.532 0.237 6.395 3.51 8.927 -0.764 1.455 3.02 -0.224 9.797 -2.267 17.01 m -34.897 -33.03 c 4.512 -5.189 9.119 -10.663 12.254 -11.721 m -4.529 13.05 c 3.197 -7.363 6.393 -7.532 9.59 -9.59 m -5.328 10.656 c 3.292 -3.768 6.267 -5.634 9.06 -6.393 m -4.795 8.258 l 6.127 -2.664 m -103.59 69.849 c 4.318 -1.058 6.25 -3.071 8.11 -5.113 m 22.19 1.82 c 2.501 -4.449 -0.497 -13.799 1.819 -18.571 6.549 11.44 14.155 10.376 18.559 14.867 m 9.785 0.592 c 5.919 -9.121 10.09 -27.606 6.509 -40.902 -2.264 10.217 -15.934 23.93 -24.09 21.308 6.11 3.778 9.848 11.657 10.833 15.04 m 18.801 -3.357 c 9.883 -1.909 3.74 -19.04 4.719 -29.412 m -6.603 24.891 c 3.172 -3.17 3.108 -15.842 2.27 -26.21 m 3.569 -18.81 c 3.385 4.174 7.86 8.833 6.415 15.608 m 0.178 -17.68 c 5.02 -0.226 8.71 0.12 11.312 1.103 m -74.79 52.39 c 7.202 0.199 13.725 4.783 14.703 10.333 m 47.646 -15.984 c 1.077 -3.873 -1.223 -13.653 -3.569 -20.747"/><path d="m 283.03 77.18 c -7.231 -6.216 -5.948 -13.231 -3.729 -18.647 m -97.77 87.91 c 5.952 1.072 11.465 1.265 19.446 6.393 m 105.69 -10.857 c 7.459 -10.393 18.585 -18.833 27.28 -8.427 m -37.07 7.563 c -1.895 -7.72 15.841 -22.978 10.401 -29.999 m -10.8 -24.344 c 5.367 -4.542 8.419 -11.206 19.07 -11.366 m -16.01 -5.15 c 4.533 -5.587 11.45 -14.423 22.632 -16.485 m -31.95 18.08 c 10.752 -8.128 12.562 -21.478 25.573 -23.442 m -40.23 -6.393 c 1.858 -14.186 18.36 -10.94 18.11 7.992 m -64.72 81.25 c 3.141 2.637 5.66 5.131 13.586 5.718 m -7.459 -19.57 c -1.615 11.901 7.095 29.419 15.983 12.52 m -10.66 -19.447 c 5.075 3.649 13.786 10.753 19.543 -0.162 m -12.46 -25.1 c 7.535 5.284 11.797 7.556 15.03 -3.509 m -17.31 -25.839 c 4.371 3.26 10.733 3.24 16.516 -0.533 m -39.17 11.188 c 2.754 10.758 0.781 16.11 -1.332 21.311 m 14.92 -17.05 c 3 -5.512 -2.195 -12.716 2.398 -15.717 m -23.18 -14.651 c 8.749 -2.314 16.02 -0.684 22.643 2.664 m -11.988 10.922 c 6.639 -2.316 5.834 -7.113 6.393 -11.455 m -48.39 5.469 c 3.914 -1.208 2.519 -3.477 3.258 -5.32 m 25.43 104.81 c -3.77 -6.216 2.136 -15.628 9.59 -21.844 m 14.826 32.34 c -11.481 -6.34 -8.09 -22.658 -9.03 -36.15 -8.697 30.29 -21.429 35.13 -23.911 10.195 m -41.18 13.554 c -0.102 -4.973 6.078 -10.179 13.742 -15.15 m 12.157 -37.86 c 14.241 -1.956 13.995 10.492 25.404 1.631 m -116.42 -17.05 c 2.359 1.35 5.762 3.067 7.192 7.992 m -5.594 11.188 c 10.211 1.477 5.986 7.464 5.594 12.254 m 46.664 -23.05 c 7.229 10.278 11.518 25.963 -16.619 3.907 m 25.1 17.01 c -20.228 -1.35 7.696 -9.1 16.299 -15.02 m -22.69 57.908 c 11.937 17.11 17.979 -7.768 32.824 4.317 15.586 -2.7 7.699 -10.978 7.793 -21.672 -5.443 7.602 -16.494 20.08 -28.532 18.685 -8.655 -7.491 4.347 -10.915 14.288 -13.584 m -54.08 -9.59 c 19.397 -11.931 60.743 -5.588 72.5 -24.1 2.338 5.748 0.891 30.77 16.874 9.982 10.661 -5.506 19.274 -17.01 21.18 -26.905 m -80.57 33.03 c 2.78 6.712 -8.06 11.638 -13.915 17.02 14.505 5.05 21.868 -8.659 29.742 -19.525 m -26.28 39.921 c 3.036 6.429 9.204 12.688 17.04 8.667 m -88.5 -23.713 c 5.108 -1.012 10.09 -2.935 15.434 -2.742 4.222 0.152 6.01 7.317 13.602 5.406 m -30.634 11.721 c 1.751 -1.119 5.03 -3.131 3.996 -7.725 m 43.42 -36.23 c -14.752 25.299 19.347 -0.895 32.946 -6.477 m 32.746 -43.909 c 1.182 4.885 2.364 5.837 3.547 7.314 1.633 -2.527 1.25 -5.05 5.778 -6.962 0.294 3.291 1.555 4.227 2.901 4.082 1.661 -0.179 1.478 -1.782 2.264 -4.299 1.255 2.768 2.383 4.371 3.729 4.225 1.661 -0.179 2.277 -1.649 2.398 -4.262 m -19.847 21.719 c 0.019 -5.03 1.482 -7.746 2.29 -9.457 2.174 2.08 2.12 5.426 7.082 6.213 -0.428 -2.597 0.697 -4.223 1.95 -4.151 1.335 0.077 3.03 1.052 3.764 3.797 0.72 -1.975 1.845 -3.601 3.098 -3.529 1.335 0.077 3.559 1.185 3.463 3.863"/></g><path d="m 199.19 45.829 c 8.952 0.543 8.517 -9.856 16.14 1.066 1.488 2.133 3.893 -0.493 6.202 0.774 -14.602 6.717 -17.851 -1.968 -22.337 -1.841 z" fill="#fff"/></g></g></g><path d="m 212.68 44.48 a 3.326 2.072 0 0 1 -6.652 0 3.326 2.072 0 1 1 6.652 0 z"/><path d="M 6,6 386,6 V 331 C 386,401 326,486 196,531 66,486 6,401 6,331 z" fill="none" stroke="#000" stroke-width="6"/><g transform="matrix(1.44375 0 0 -1.44375 -238.48 916.34)"><g transform="matrix(0.8 0 0 -0.8 0 841.68)"><path d="m 369.33 275.61 c -1.129 -2.485 1.524 -3.348 4.092 -4.248 1.977 -0.503 2.361 -4.842 7.297 0.994 4.868 -1.081 4.284 3.114 6.711 2.644 1.442 -2.064 2.576 -4.746 6.101 -2.644 0.542 -6.908 6.372 -7.095 7.118 -2.034 2.182 -0.013 3.03 1.92 2.949 3.966 4.758 4.349 4.278 -3.044 9.559 -0.203 2.546 -2.682 3.927 -7.06 8.03 -0.712 8.494 0.222 3.929 4.829 0.203 5.491 -0.554 5.412 -1.308 8.182 -7.322 8.135 0.185 1.206 0.925 3.762 -0.407 4.716 -12.728 -1.807 -26.304 -1.129 -35.638 -0.61 0.883 -1.139 1.346 -4.158 -0.461 -5.834 -3.303 -0.986 -7.525 -1.876 -4.779 -7.22 1.703 -3.314 -1.358 -2.153 -3.457 -2.441 z"/><g fill="#fcdd09"><path d="m 376.35 274.09 c 1.31 -3.562 2.233 -0.084 3.457 2.441 0.78 1.607 2.485 -1.272 3.523 -1.493 1.472 -0.313 2.736 1.056 2.172 4.848 -0.366 2.46 -6.01 0.77 -3.966 3.152 2.44 2.843 5.22 -0.852 6.305 -0.814 1.124 -0.132 2.806 4.859 5.796 -0.203 -2 0.906 -3.871 0.074 -3.625 -1.99 0.137 -1.145 -2.451 -2.113 0.676 -2.993 -0.257 -3.288 1.903 -2.749 4.881 -0.915 1.045 -1.925 -3.337 -5.405 2.847 -4.983 1.259 0.086 2.913 2.103 1.525 6 1.94 -1.033 5.097 -2.654 4.576 2.135 -0.209 1.922 -0.714 2.802 -1.525 3.152 -3.196 1.381 -3.802 -0.449 -4.169 -4.779 -0.63 -2.717 -1.84 -3.807 -1.729 -1.017 0.089 2.217 2.097 4.778 -1.22 3.254 -0.708 -0.326 -0.195 2.736 1.113 2.245 1.776 -0.544 3.151 2.332 4.684 2.229 1.559 0.528 3.118 -2.434 4.678 -2.542 0.819 -0.215 0.846 1.802 2.13 2.459 0.882 0.451 3.685 0.662 1.632 1.913 -0.919 0.56 2.284 1.966 1.119 2.949 -8.812 0.304 -15.468 -0.469 -22.778 -0.915 -1.297 0.432 -4.821 0.419 -7.322 0.61 -1.486 -1.932 0.719 -2.187 2.034 -2.847 -2.058 -0.671 -4.109 -1.206 -3.966 -3.356 l 0.305 -4.576 c -0.567 2.527 -4.296 4.066 -4.373 1.932 -0.068 -1.894 2.564 -4.118 -0.203 -4.271 -2.31 -0.128 -4.948 -3.01 1.424 -1.627 z"/><path d="m 408.17 280.29 c -2.468 -0.236 -2.885 -1.256 0.61 -2.847 1.133 -3.39 3.68 -1.345 5.593 0.712 0.93 -3.391 3.269 -6.754 4.859 -3.895 0.763 -0.334 1.697 -1.093 3.276 0.234 1.101 0.925 1.151 2.35 -2.372 1.654 -0.644 2.371 -2.835 1.811 -2.509 2.718 1.751 4.883 -0.772 4 -2.542 1.932 -3.109 -2.534 -3.659 -0.707 -2.149 0.102 0.532 5.069 -0.322 3.485 -1.105 2.237 -2.863 0.939 -4.03 1.056 -3.661 -2.847 z"/></g></g><path d="m 323.98 612.3 c 0.542 -0.778 1.98 -0.804 2.522 -0.081 m -9.762 0.651 c 0.542 -0.778 1.98 -0.804 2.522 -0.081 m -10.698 0.349 c 0.542 -0.778 1.98 -0.804 2.522 -0.081" fill="none" stroke="#000" stroke-linejoin="round" stroke-linecap="round" stroke-width="1.6"/></g><path d="m 3.336 262.23 h 384.62 v 19.04 h -384.62 z"/></svg>