<?xml version="1.0" encoding="utf-8" standalone="no"?>
<!DOCTYPE svg PUBLIC "-//W3C//DTD SVG 1.1//EN" "http://www.w3.org/Graphics/SVG/1.1/DTD/svg11.dtd">
<svg version="1.1"
   xmlns="http://www.w3.org/2000/svg"
   xmlns:xlink="http://www.w3.org/1999/xlink"
   width="450" height="738.5" viewBox="0 0 4500 7385">
  <title>Wappen von Berlin</title>
  <desc>Das Wappen von Berlin</desc>
  <g fill="#ffc900" stroke="black" stroke-width="20" stroke-linecap="round" stroke-linejoin="round">
    <path d="M 550,2370 L 250,985 470,930 250,985 10,300 c 133,40 240,-60 304,80 7,-31 30,-23 35,-53 30,176 209,163 -18,497 l 14,6 c 129,-224 141,-124 226,-210 11,52 38,71 11,115 139,6 182,349 18,414 14,55 -12,69 -11,112 -79,-84 -178,-18 -256,-115 a 450,410 -7 0,0 887,-163 c -38,118 -154,92 -197,198 -15,-40 -44,-44 -51,-100 -176,-2 -259,-337 -132,-393 -41,-31 -22,-59 -30,-111 110,50 86,-48 286,115 l 11,-11 c -332,-230 -160,-293 -195,-457 16,26 34,11 51,37 -8,-119 139,-115 191,-184 68,54 210,15 230,132 11,-30 32,-19 41,-48 8,178 188,187 -78,491 l 13,7 c 155,-206 155,-105 250,-180 4,52 29,74 -3,115 137,23 138,369 -33,413 7,56 -20,67 -25,110 -68,-93 -174,-39 -239,-145 a 450,500 7 0,0 895,-55 c -52,113 -164,73 -220,173 -10,-42 -38,-49 -38,-106 -175,-23 -216,-366 -83,-406 -37,-36 -15,-61 -17,-114 103,63 91,-37 270,149 l 12,-9 c -301,-269 -124,-300 -137,-478 12,28 32,15 46,43 6,-119 152,-97 212,-159 60,62 206,40 212,159 14,-28 34,-15 46,-43 -13,178 164,209 -137,478 l 12,9 c 179,-186 167,-86 270,-149 -2,53 20,78 -17,114 133,40 92,383 -83,406 0,57 -28,64 -38,106 -56,-100 -168,-60 -220,-173 a 450,500 -7 0,0 895,55 c -65,106 -171,52 -239,145 -5,-43 -32,-54 -25,-110 -171,-44 -170,-390 -33,-413 -32,-41 -7,-63 -3,-115 95,75 95,-26 250,180 l 13,-7 c -266,-304 -86,-313 -78,-491 9,29 30,18 41,48 20,-117 162,-78 230,-132 52,69 199,65 191,184 17,-26 35,-11 51,-37 -35,175 137,227 -195,457 l 11,11 c 200,-163 176,-65 286,-115 -8,52 11,80 -30,111 127,56 44,391 -132,393 -7,56 -36,60 -51,100 -43,-106 -159,-80 -197,-198 a 450,410 7 0,0 887,163 c -78,97 -177,31 -256,115 1,-43 -25,-57 -11,-112 -164,-65 -121,-408 18,-414 -27,-44 0,-63 11,-115 85,86 97,-14 226,210 l 14,-6 c -227,-334 -48,-321 -18,-497 -25,30 28,22 35,53 64,-140 171,-40 304,-80 l -240,685 -220,-55 220,55 -300,1385 M 473,2020 a 9000,9000 0 0,1 3554,0 M 793,1962 l 45,223 m 215,-494 l 37,226 m 286,-31 l 28,228 m 240,-482 l 18,229 m 1176,0 l 18,-229 m 240,482 l 28,-228 m 286,31 l 37,-226 m 215,494 l 45,-223" />
    <g id="PK">
      <path d="M 2020,740 h 460 M 2250,500 v 200" />
      <circle id="P" cx="2250" cy="720" r="85" />
    </g>
    <use xlink:href="#PK" transform="rotate(7,2250,9000)" />
    <use xlink:href="#PK" transform="rotate(-7,2250,9000)" />
    <use xlink:href="#P" transform="rotate(14,2250,9000)" />
    <use xlink:href="#P" transform="rotate(-14,2250,9000)" />
    <path d="M 314,1280 c 136,487 917,450 973,-130 133,507 783,489 963,-50 180,539 830,557 963,50 56,580 837,617 973,130" fill="none" />
    <path d="M 404,1695 a 9000,9000 0 0,1 3692,0 c 40,10 20,113 -20,103 a 9000,9000 0 0,0 -3652,0 c -40,10 -60,-93 -20,-103 M 545,2350 c -40,10 -63,-98 -23,-108 a 9000,9000 0 0,1 3456,0 c 40,10 17,118 -23,108" />
    <path d="M 1910,2194 v -434 a 340,340 0 0,1 680,0 v 434 m -570,-4 v -430 a 230,230 0 0,1 460,0 v 430" />
    <path d="M 2150,1370 h 200 l -30,180 h -140 z" />
    <path stroke-width="25" d="M 2250,1553 v 652" />
    <path stroke-width="35" d="M 555,2355 a 9000,9000 0 0,1 3390,0" />
  </g>
  <path d="M 4096,2390 H 396 V 5490 c 0,410 0,800 550,1120 l 1300,730 1300,-730 c 560,-320 550,-710 550,-1120 z" fill="white" stroke="black" stroke-width="60" />
  <path d="M 2473,3115 c -56,-27 -157,-11 -250,-26 -187,-30 -210,-83 -210,-122 -1,-41 -38,-43 -38,1 1,260 392,127 503,194 M 1201,3026 c 1,-70 -47,-115 -89,-119 25,29 30,71 34,112 -8,-58 -51,-96 -88,-98 20,21 31,64 33,106 -6,-32 -36,-80 -86,-85 23,24 30,69 35,110 -7,-35 -43,-75 -83,-78 17,14 31,65 34,104 -5,-16 -33,-55 -77,-60 23,21 33,72 37,112 M 1126,4084 c -12,-55 -60,-113 -114,-106 25,17 44,81 51,122 -17,-46 -59,-95 -109,-89 27,24 43,83 53,127 -27,-51 -60,-89 -109,-83 33,32 45,88 53,131 -16,-36 -53,-80 -103,-75 31,28 44,89 55,134 -20,-27 -50,-65 -97,-61 31,30 45,89 58,134 M 1286,6041 c -53,-32 -126,-21 -160,23 38,-7 94,14 116,32 -36,-23 -111,-9 -140,31 34,-9 89,14 118,31 -38,-13 -97,-10 -134,35 31,-7 82,10 115,29 -47,-11 -93,7 -120,39 41,-9 87,15 115,28 -53,-1 -85,20 -104,42 34,-7 86,11 124,31 M 2677,6370 c -69,-9 -126,33 -143,82 19,-15 79,-24 118,-12 -54,-3 -108,41 -119,81 22,-18 92,-23 118,-12 -49,2 -96,39 -110,80 23,-15 87,-21 123,-12 -53,8 -91,46 -103,81 32,-21 74,-19 126,-16 -54,20 -72,43 -90,79 30,-19 83,-20 135,-16" fill="#f33b1d" />
  <path d="M 2319,2699 l -244,9 c -12,1 -21,7 -21,21 1,88 18,145 81,191 -8,49 -3,74 48,115 5,-40 21,-58 46,-75 2,1 4,1 5,2 -3,18 -3,37 1,48 10,28 59,29 72,9 12,29 37,30 57,30 21,0 31,-15 38,-29 12,10 24,21 35,35 35,48 41,110 41,169 -11,1 -22,2 -33,3 l 0,-24 c -1,-34 -80,-40 -98,-11 -20,-22 -82,-18 -82,17 l 0,11 c -14,-18 -25,-37 -34,-56 -25,16 -40,28 -36,85 -11,1 -22,2 -32,3 1,66 30,84 266,79 6,66 -60,103 -109,134 -128,73 -263,153 -336,287 -61,106 -76,232 -69,354 l 70,-31 8,38 c -126,60 -356,182 -507,252 -37,17 -133,41 -153,7 -69,-119 -124,-209 -204,-300 -41,-47 -313,178 -263,254 114,173 300,421 610,423 321,2 600,-116 661,-134 l 13,41 c -41,18 -77,31 -120,45 56,220 121,306 272,440 l -31,23 c -27,-16 -73,-67 -98,-91 -321,152 -441,304 -518,461 -85,189 -69,404 -33,603 7,33 -29,49 -56,39 -74,-17 -115,-91 -186,-118 -32,-14 -74,-30 -109,-24 -57,10 -118,298 -60,326 108,53 226,64 346,126 79,32 155,84 245,70 51,-5 102,-40 107,-94 45,-194 108,-400 256,-540 71,-70 163,-126 254,-169 -36,-138 -63,-276 -60,-420 l 44,-2 c 32,548 178,663 435,918 26,26 24,75 -14,90 -50,25 -109,26 -166,29 -61,3 -15,341 75,338 158,-5 322,-128 417,-249 40,-50 88,-100 126,-149 47,-61 -4,-132 -18,-188 -39,-160 -57,-620 -59,-684 l 56,1 8,-116 c -167,-207 -140,-531 -209,-740 -27,-85 -57,-173 -57,-263 0,-122 138,-351 135,-555 -1,-86 -49,-198 -48,-249 1,-148 86,-116 84,-424 -1,-85 -11,-148 -33,-235 149,-157 -56,-314 -174,-216 -95,-25 -107,-50 -293,-50 -159,0 -250,43 -349,109 M 2031,3616 c -105,129 -164,194 -160,507 -991,-566 -701,-647 -918,-985 -34,-53 187,-176 257,-124 141,104 89,300 206,389 116,88 323,127 615,213 M 2636,2889 c -15,0 -42,-8 -50,-19 -87,-133 -109,-85 -122,-39 -11,41 -59,42 -45,-13 35,-135 130,-116 248,71 M 2922,2755 c 24,-32 61,-63 101,-76 59,-20 83,28 36,44 -39,17 -72,41 -100,69 M 2146,2927 c 15,9 36,20 67,29 -17,14 -33,34 -38,56 -27,-19 -38,-54 -29,-85 m 160,53 c 0,13 -3,26 -7,32 -10,16 -47,15 -55,-7 -3,-9 -3,-25 1,-40 20,5 41,9 61,15 m 12,3 c 27,8 53,17 76,32 -5,12 -14,24 -32,24 -16,0 -34,-1 -44,-20 -5,-10 -3,-24 0,-36 M 2205,3248 c -3,-28 0,-52 22,-68 11,20 23,39 37,56 v 7 m 10,-0.5 V 3211 c 0,-33 70,-31 71,0 v 25 m 9,-1 v -28 c 0,-33 81,-31 81,-1 v 22" />
</svg>
