<?xml version="1.0" encoding="UTF-8" standalone="no"?>
<!-- Generator: Adobe Illustrator 16.0.0, SVG Export Plug-In . SVG Version: 6.00 Build 0)  -->

<svg
   xmlns:dc="http://purl.org/dc/elements/1.1/"
   xmlns:cc="http://creativecommons.org/ns#"
   xmlns:rdf="http://www.w3.org/1999/02/22-rdf-syntax-ns#"
   xmlns:svg="http://www.w3.org/2000/svg"
   xmlns="http://www.w3.org/2000/svg"
   xmlns:sodipodi="http://sodipodi.sourceforge.net/DTD/sodipodi-0.dtd"
   xmlns:inkscape="http://www.inkscape.org/namespaces/inkscape"
   version="1.1"
   id="Layer_1"
   x="0px"
   y="0px"
   width="340.18356"
   height="318.64359"
   viewBox="0 0 340.18356 318.64358"
   enable-background="new 0 0 1088.109 1053.104"
   xml:space="preserve"
   inkscape:version="0.48.3.1 r9886"
   sodipodi:docname="lbc-logo-2009.svg"><metadata
   id="metadata15"><rdf:RDF><cc:Work
       rdf:about=""><dc:format>image/svg+xml</dc:format><dc:type
         rdf:resource="http://purl.org/dc/dcmitype/StillImage" /></cc:Work></rdf:RDF></metadata><defs
   id="defs13" /><sodipodi:namedview
   pagecolor="#ffffff"
   bordercolor="#000000"
   borderopacity="1"
   objecttolerance="10"
   gridtolerance="10"
   guidetolerance="10"
   inkscape:pageopacity="0"
   inkscape:pageshadow="2"
   inkscape:window-width="1440"
   inkscape:window-height="838"
   id="namedview11"
   showgrid="false"
   inkscape:showpageshadow="false"
   fit-margin-top="0"
   fit-margin-left="0"
   fit-margin-right="0"
   fit-margin-bottom="0"
   inkscape:zoom="0.89639769"
   inkscape:cx="382.79831"
   inkscape:cy="51.173028"
   inkscape:window-x="-6"
   inkscape:window-y="-6"
   inkscape:window-maximized="1"
   inkscape:current-layer="Layer_1" />
<g
   id="g3"
   transform="matrix(0.32689988,0,0,0.32689988,-7.522214,-11.615967)">
	<path
   d="m 996.835,549.113 c 5.381,-0.88 10.73,-1.93 16.12,-2.77 -0.06,6.76 0.13,13.529 -0.1,20.29 -1.37,11.71 -2.73,23.43 -4.15,35.14 -2.579,0.56 -5.189,0.97 -7.81,1.19 -1.141,-11.301 -2.68,-22.561 -3.971,-33.84 -0.229,-6.67 -0.019,-13.34 -0.089,-20.01 m -58.779,10.09 c 6.08,-0.79 12.029,-2.399 18.149,-2.93 8.811,23.729 17.73,47.41 26.83,71.03 -5.84,0.89 -11.59,2.3 -17.47,2.88 -1.561,-4.87 -3.12,-9.73 -4.84,-14.54 -9.28,1.81 -18.641,3.12 -27.91,4.939 -1.76,5.54 -3.47,11.101 -5.33,16.61 -5.62,0.65 -11.09,2.23 -16.72,2.66 9.47,-26.748 18.16,-53.779 27.291,-80.649 m 8.949,15.851 c -3.39,10.49 -6.63,21.029 -9.76,31.6 6.4,-1.07 12.76,-2.37 19.19,-3.33 -3.33,-9.36 -6.44,-18.801 -9.43,-28.27 m -95.88,-0.42 c 5.3,-1.021 10.62,-1.931 15.931,-2.91 -0.021,20.76 -0.021,41.51 -0.011,62.27 12.57,-2 25.061,-4.43 37.601,-6.59 -0.021,4.65 0.04,9.3 -0.07,13.95 -17.89,2.64 -35.62,6.229 -53.439,9.24 -0.012,-25.321 -10e-4,-50.641 -0.012,-75.96 m -51.01,8.96 c 4.76,-0.49 9.4,-2.33 14.22,-2.021 8.41,23.76 17.801,47.17 26.49,70.84 -5.89,0.66 -11.66,2.71 -17.609,2.5 -1.171,-4.85 -3.061,-9.479 -4.49,-14.25 -9.29,1.69 -18.63,3.181 -27.91,4.92 -1.811,5.54 -3.58,11.091 -5.38,16.641 -5.561,0.82 -11.05,2.02 -16.61,2.79 9.04,-26.521 17.83,-53.13 26.811,-79.66 0.459,-1.98 2.999,-1.241 4.478,-1.76 m 4.91,16.579 c -3.63,10.421 -6.74,21.011 -9.87,31.591 6.35,-1.17 12.69,-2.351 19.061,-3.42 -2.91,-9.441 -6.58,-18.641 -9.191,-28.171 m -75.309,-4.23 c 6.75,-0.87 14.3,-1.44 20.25,2.55 7.05,4.58 10.34,13.051 11.159,21.12 1.53,13.09 -0.72,27.14 -8.35,38.12 -5.06,7.58 -13.5,12.61 -22.42,14.14 -10.99,1.971 -22.021,3.74 -32.98,5.851 0.011,-25.311 0.07,-50.63 -0.029,-75.94 10.759,-2.081 21.59,-3.81 32.37,-5.841 m -16.971,16.12 c -0.07,16.58 -0.01,33.16 -0.029,49.74 5.899,-1.34 11.949,-1.9 17.8,-3.44 7.39,-2.34 12.04,-9.49 13.63,-16.76 1.91,-8.851 2.09,-18.54 -1.58,-26.96 -1.811,-4.46 -7.05,-5.94 -11.44,-5.521 -6.171,0.722 -12.221,2.151 -18.381,2.941 m -53.18,-3.679 c 0.17,-0.17 0.51,-0.53 0.68,-0.7 2.771,9.569 6.92,18.7 10.271,28.08 5.399,14.63 11.109,29.149 16.47,43.79 -5.67,1.09 -11.44,1.71 -17.05,3.09 -1.86,-4.94 -3.4,-10 -5.24,-14.94 -9.24,1.91 -18.58,3.311 -27.83,5.141 -1.71,5.55 -3.49,11.09 -5.36,16.6 -5.489,0.57 -10.859,1.92 -16.34,2.59 8.721,-26.88 18.16,-53.52 26.771,-80.43 5.798,-1.452 11.758,-2.131 17.628,-3.221 m -8.52,18.819 c -3.39,10.48 -6.39,21.091 -9.89,31.54 1.07,-0.13 2.141,-0.26 3.22,-0.39 5.271,-1.05 10.561,-1.98 15.87,-2.76 -2.689,-9.579 -6.38,-18.85 -9.2,-28.39 m 350.13,-18.099 c 3.83,-0.48 7.591,-1.32 11.431,-1.8 -0.04,4.91 -0.04,9.819 0,14.729 -5.15,1.13 -10.37,1.88 -15.54,2.84 0,-4.97 0.04,-9.939 -0.04,-14.909 1.379,-0.271 2.749,-0.561 4.149,-0.86 m -443.489,17.009 c 11.93,-1.53 23.68,-4.22 35.569,-6.03 6.301,-0.819 13.431,0.33 17.95,5.16 3.82,4.311 4.55,10.431 4.45,15.98 -0.109,7.67 -2.3,16.01 -8.68,20.859 -9.44,7.53 -22.09,7.94 -33.48,10 -0.229,9.12 -0.06,18.261 -0.09,27.391 -5.27,0.939 -10.53,1.899 -15.8,2.81 0.02,-25.389 -0.24,-50.78 0.081,-76.17 m 15.669,10.67 c 0.069,7.42 0.02,14.83 0.02,22.25 5.57,-0.989 11.19,-1.729 16.71,-3 4.461,-0.96 8.011,-4.42 9.53,-8.66 0.09,-3.02 0.58,-6.18 -0.399,-9.1 -1.291,-3.61 -5.601,-4.88 -9.08,-4.4 -5.611,0.841 -11.191,1.931 -16.781,2.91 m -99.04,2.431 c 8.45,-2.08 18.02,-2.58 25.77,2.01 6.2,3.439 10.38,10.13 10.93,17.18 -5.29,0.57 -10.46,1.93 -15.75,2.521 -0.79,-3.99 -3.63,-7.561 -7.53,-8.851 -8.56,-2.68 -18.41,0.8 -23.9,7.76 -6.319,7.561 -7.479,18.021 -6.819,27.511 0.5,5.579 2.149,11.819 7.189,15 8.58,5.779 20.771,2.609 27.22,-4.94 3.12,-3.49 5,-7.96 5.68,-12.57 -5.81,1.17 -11.67,2.08 -17.49,3.2 0.01,-4.319 -0.08,-8.64 0.1,-12.95 10.44,-1.55 20.84,-3.42 31.21,-5.39 1.2,4.12 -0.37,8.37 0.29,12.56 0.49,3.351 -0.39,6.7 -0.09,10.061 0.7,5.72 -0.56,11.439 0.3,17.16 -0.2,0.27 -0.6,0.81 -0.8,1.08 -3.26,0.779 -6.6,1.229 -9.92,1.62 -0.54,-3 -1.07,-6 -1.54,-9 -4.189,5.76 -9.38,11.159 -16.27,13.569 -8.74,3.32 -19.19,4.19 -27.55,-0.67 -7.43,-4.05 -12.27,-11.79 -13.78,-20 -2.8,-14.93 0.27,-31.49 10.38,-43.16 5.72,-6.832 13.68,-11.731 22.37,-13.701 m -60.36,12.459 c 4.88,-1.069 9.91,-1.399 14.69,-2.92 0.48,25.391 0.04,50.801 0.23,76.19 -5.3,1.05 -10.63,1.91 -15.93,2.95 -10.22,-16.29 -20.92,-32.28 -30.95,-48.69 -0.25,18.05 0.07,36.11 -0.16,54.16 -4.98,0.71 -9.89,1.76 -14.85,2.55 0.01,-25.34 0.01,-50.68 0,-76.029 5.49,-1 11.05,-1.71 16.47,-3.09 10.521,15.56 20.04,31.8 30.46,47.439 0.12,-17.519 0.03,-35.04 0.04,-52.56 m -107.97,19.131 c 5.24,-1.17 10.56,-1.881 15.81,-2.99 0.11,25.32 -0.07,50.64 0.09,75.96 -5.26,1.13 -10.6,1.86 -15.88,2.88 0.04,-25.291 0.07,-50.571 -0.02,-75.85 m -75.18,13.05 c 12.84,-2.05 25.63,-4.46 38.45,-6.66 5.55,-0.88 11.83,-1.08 16.54,2.5 11.76,8.41 8.34,29.21 -4.47,34.74 3.04,1.229 6.48,2.66 7.81,5.93 2.98,6.92 1.08,14.65 2.01,21.91 0.15,2.55 2.64,3.94 3.27,6.31 -5.88,1.28 -11.84,2.181 -17.74,3.32 -2.88,-7.63 -0.75,-15.92 -2.66,-23.67 -0.72,-3.939 -5.43,-4.74 -8.74,-4.11 -6.25,1.021 -12.5,2.12 -18.71,3.33 -0.25,9.8 -0.12,19.62 -0.03,29.431 -5.16,1.479 -10.54,2.01 -15.79,3.119 0.08,-25.391 -0.03,-50.771 0.06,-76.15 m 15.68,10.49 c -0.08,6.81 0.01,13.63 -0.06,20.45 6.11,-1.11 12.23,-2.141 18.34,-3.23 3.41,-0.73 7.11,-1.6 9.56,-4.28 3.07,-3.18 3.24,-8.17 2.05,-12.189 -1.06,-3.37 -4.85,-4.851 -8.12,-4.36 -7.31,0.798 -14.48,2.598 -21.77,3.609 m -71.37,-0.5 c 6.03,-1.19 12.07,-2.351 18.16,-3.25 8.85,23.729 17.82,47.42 26.86,71.09 -5.75,1.2 -11.56,2.109 -17.34,3.17 -1.64,-4.771 -3.09,-9.601 -4.71,-14.37 -9.42,0.78 -18.71,3.21 -28.1,4.48 -1.77,5.51 -3.43,11.05 -5.17,16.569 -5.55,0.95 -11.08,1.99 -16.62,2.96 8.81,-26.939 18.09,-53.72 26.92,-80.649 m 9,15.779 c -3.24,10.5 -6.72,20.94 -9.69,31.521 6.39,-1.22 12.84,-2.18 19.2,-3.561 -3.47,-9.21 -6.38,-18.63 -9.51,-27.96 m -62.3,-6.479 c 5.29,-0.86 10.55,-1.91 15.83,-2.82 0.04,25.391 -0.07,50.79 -0.03,76.19 -1.53,0.14 -3.06,0.319 -4.6,0.479 l -0.601,0.41 c -3.56,0.37 -7.06,1.15 -10.61,1.62 0.03,-11.21 -0.02,-22.42 0.03,-33.63 -9.87,1.25 -19.58,3.59 -29.44,4.87 -0.63,11.41 0.02,22.859 -0.35,34.28 -5.21,0.6 -10.32,1.829 -15.53,2.479 -0.021,-25.3 -0.03,-50.61 0,-75.92 5.24,-0.78 10.42,-1.9 15.649,-2.73 -0.07,9.54 0.05,19.07 -0.08,28.61 10.01,-0.84 19.79,-3.43 29.73,-4.84 0.002,-9.668 0.002,-19.329 0.002,-28.998 l 0,0 z"
   id="path5"
   inkscape:connector-curvature="0" />
	<path
   d="m 41.415,53.923 c 336.62,-0.07 673.23,-0.01 1009.851,-0.03 0.01,118.77 -0.011,237.53 0.01,356.29 -0.06,30.69 0.12,61.38 -0.11,92.07 -100.3,17.49 -200.55,35.371 -300.84,52.94 -13.109,2.17 -26.13,4.92 -39.27,6.8 l -0.62,0.42 c -41.12,6.9 -82.15,14.391 -123.23,21.58 -181.93,32 -363.82,64.23 -545.76,96.15 -0.071,-208.74 -0.021,-417.479 -0.031,-626.22 m 41.69,113.14 c -0.99,5 -2.28,9.96 -2.85,15.04 11.31,-0.01 22.62,-0.05 33.94,0.01 5.7,-0.07 11.64,2.84 13.93,8.27 3.9,8.97 1.33,18.9 -0.58,28.02 -16.74,81.84 -33.33,163.71 -50.11,245.54 32.59,0.25 65.18,0.03 97.77,0.11 57.7,-0.08 115.41,0.149 173.11,-0.12 7.34,-37.521 15.23,-74.94 22.8,-112.42 -17.35,0.05 -34.69,-0.101 -52.04,0.08 -1.95,11.59 -4.7,23.02 -6.93,34.56 -0.95,5.67 -5.12,10.29 -10.15,12.83 -8.17,4.28 -17.66,4.99 -26.729,4.76 -29.8,-0.03 -59.61,0.061 -89.42,-0.05 18.73,-91.88 37.16,-183.83 55.84,-275.73 -50.19,0.11 -100.39,0.02 -150.59,0.05 -2.811,12.99 -5.211,26.06 -7.991,39.05 m 295.98,15.01 c 11.39,0.07 22.79,-0.06 34.18,0.05 4.899,0.05 10.1,2.03 12.77,6.35 3.82,5.99 3.38,13.53 2.521,20.28 -17.4,85.04 -34.57,170.13 -52.16,255.13 53.28,0.39 106.57,0.05 159.85,0.17 14.79,0.18 29.61,-1.16 44.12,-4.08 16.55,-2.96 32.32,-9.9 45.84,-19.87 13.05,-9.42 23.94,-21.57 32.8,-34.95 11.58,-17.83 18.24,-38.73 19.631,-59.92 0.75,-13.41 -1.65,-27.26 -8.53,-38.93 -5.38,-9.09 -13.86,-16.061 -23.33,-20.58 -1.351,-0.61 -2.62,-1.36 -3.79,-2.25 11.18,-5.271 21.8,-12.12 30.2,-21.26 13.81,-15.03 21.5,-34.87 24.09,-54.93 2.01,-16.21 0.49,-33.64 -8.28,-47.8 -6.68,-11 -17.449,-19.06 -29.35,-23.7 -16.6,-6.58 -34.721,-7.979 -52.42,-7.77 -72.39,0 -144.79,0.01 -217.19,-0.01 -3.552,18.04 -7.382,36.03 -10.952,54.07 m 480.601,-50.179 c -22.07,4.13 -43.8,11.11 -63.37,22.24 -14.66,8.12 -27.12,19.61 -38.311,31.95 -25.659,28.06 -43.34,62.95 -52.52,99.75 -4.61,18.77 -7.54,38.02 -7.62,57.38 0.17,22.3 4.22,44.96 14.55,64.89 8.32,15.82 20.29,30.01 35.65,39.37 16.45,10.32 35.89,14.59 55.04,16.22 20.69,1.42 41.939,2.47 62.11,-3.33 16.22,-4.33 31.239,-12.52 44.359,-22.92 20.11,-16.03 36.84,-36.42 47.92,-59.67 5,-9.98 8.641,-20.54 12.311,-31.06 -15.49,-0.55 -31.01,-0.09 -46.511,-0.23 -7.42,16.05 -16.51,32.03 -30.499,43.27 -12.44,10.46 -28.48,16.08 -44.631,16.86 -14.37,0.92 -29.699,-1.97 -41.05,-11.33 -12.25,-9.66 -19.24,-24.66 -21.39,-39.88 -2.94,-20.45 0.069,-41.19 4.42,-61.21 4.76,-21.99 12.12,-43.69 24.189,-62.81 9.551,-15.02 22.181,-28.52 38,-36.99 15.96,-8.67 34.971,-10.61 52.67,-7.27 11.5,2.1 22.881,7.82 29.591,17.69 7.489,10.68 9.239,24.06 10.22,36.75 15.58,-0.09 31.16,-0.1 46.74,0.01 7.77,-37.8 14.77,-75.75 22.41,-113.58 -12.261,0.061 -24.53,-0.04 -36.791,0.05 -2.01,8.94 -4.629,17.73 -6.939,26.6 -11.8,-13.84 -29.09,-21.96 -46.91,-24.49 -21.098,-2.99 -42.699,-2.121 -63.638,1.74 m -330.731,49.949 c 7.771,-0.27 15.55,-0.06 23.33,-0.13 11.01,-0.1 22.28,0.29 32.79,3.88 7.94,2.7 15,8.83 17.42,17.03 3.24,10.48 0.7,21.68 -2.66,31.79 -4.51,13.47 -14.25,25.351 -27.38,31.12 -16.09,7.09 -34.07,5.82 -51.21,5.91 -3.59,-0.17 -7.31,0.59 -10.76,-0.69 0.24,-0.32 0.72,-0.96 0.95,-1.28 5.501,-29.27 12.001,-58.36 17.52,-87.63 m -29.05,134.47 c 4.75,-0.51 9.53,-0.16 14.3,-0.26 13.41,0.07 27.18,-0.57 40.16,3.439 8,2.39 15.48,7.94 18.5,15.94 3.76,9.76 1.84,20.61 -1.09,30.33 -3.7,12.87 -11.729,24.82 -23.46,31.62 -13.19,7.88 -29.12,8.58 -44.08,8.42 -7.5,-0.01 -14.99,0.01 -22.48,0 6.21,-29.799 12.29,-59.629 18.15,-89.489 m 131.72,410.981 c 139.87,-24.94 279.771,-49.7 419.641,-74.61 -0.04,24.97 0.069,49.95 -0.04,74.92 -180.94,31.99 -361.86,64.01 -542.771,96.16 5.351,-25.931 10.88,-51.83 16.51,-77.71 35.61,-5.901 71.091,-12.601 106.66,-18.76 m 196.521,58.43 c 74.37,-13.09 148.699,-26.49 223.1,-39.391 0.01,25.16 0.11,50.32 -0.08,75.48 -180.689,31.68 -361.319,63.68 -541.979,95.49 -7.17,1.26 -14.32,2.67 -21.53,3.68 5.51,-25.97 11.31,-51.89 16.44,-77.93 108.039,-18.97 216.028,-38.23 324.049,-57.329 m -354.271,-30.62 c 14.351,-2.12 28.58,-4.92 42.851,-7.49 -4.3,19.91 -8.45,39.86 -12.75,59.771 -1.54,6.01 -2,12.33 -4.271,18.13 -14.14,1.91 -28.15,4.8 -42.18,7.37 5.04,-26.001 10.92,-51.852 16.35,-77.781 m -59.149,10.729 c 14.21,-2.59 28.439,-5.109 42.689,-7.52 -5.609,25.78 -10.82,51.64 -16.6,77.38 -14.15,2.44 -28.27,5.14 -42.45,7.41 5.17,-25.809 10.8,-51.54 16.361,-77.27 m -68.921,12.11 c 14.79,-2.16 29.41,-5.51 44.22,-7.55 -5.56,25.72 -11.04,51.47 -16.43,77.229 -14.77,2.41 -29.44,5.45 -44.25,7.641 5.36,-25.799 10.91,-51.56 16.46,-77.32 m -75.7,13.88 c 14.13,-3.359 28.63,-5.06 42.87,-7.979 -5.3,25.87 -10.85,51.7 -16.48,77.51 -14.229,2.33 -28.41,5.01 -42.63,7.37 4.88,-21.45 9.17,-43.05 13.86,-64.54 0.84,-4.121 1.93,-8.191 2.38,-12.361 m -88.64,15.651 c 15.81,-3.33 31.91,-5.74 47.83,-8.71 -2.45,13.93 -5.81,27.71 -8.57,41.59 -2.86,11.95 -4.67,24.17 -8.021,35.97 -15.89,2.42 -31.71,5.33 -47.5,8.29 2.91,-17.54 7.41,-34.79 10.771,-52.26 1.84,-8.291 3.38,-16.67 5.49,-24.88 m -103.5,18.29 c 17.93,-3.511 36.05,-6.19 53.92,-9.97 -0.02,2.329 -0.48,4.609 -1.03,6.869 -5.17,23.551 -9.91,47.19 -15.17,70.71 -18.021,3 -36,6.28 -53.99,9.48 5.36,-25.709 11.05,-51.36 16.27,-77.089 m 375.19,26.33 c 14.31,-2.471 28.6,-5 42.9,-7.54 -5.42,26 -11.03,51.97 -16.53,77.949 -14.28,2.421 -28.5,5.28 -42.82,7.461 5.41,-25.971 11.1,-51.891 16.45,-77.87 m -59.13,10.529 c 14.22,-2.71 28.56,-4.85 42.75,-7.729 -5.27,25.99 -11.13,51.859 -16.36,77.87 -14.21,3.05 -28.64,4.96 -42.89,7.84 5.411,-26.01 11.121,-51.96 16.5,-77.981 m -68.95,12.271 c 14.72,-2.53 29.36,-5.59 44.15,-7.67 -5.15,25.93 -10.91,51.74 -16.37,77.609 -14.72,2.641 -29.48,5.15 -44.18,7.91 5.25,-26 11.08,-51.87 16.4,-77.849 m -75.21,13.179 c 14.18,-2.27 28.29,-5.04 42.45,-7.46 -3.7,19.29 -8.11,38.44 -12.1,57.681 -1.55,6.739 -2.58,13.609 -4.47,20.26 -14.17,2.31 -28.29,4.87 -42.41,7.449 5.47,-25.989 11.101,-51.94 16.53,-77.93 m -89.099,15.83 c 16.06,-2.8 32.09,-5.75 48.16,-8.45 -5.35,25.88 -11.02,51.69 -16.37,77.561 -16,3.239 -32.17,5.54 -48.18,8.67 5.209,-25.981 11.069,-51.821 16.39,-77.781 M 57.795,921.964 c 18.06,-2.631 35.94,-6.381 53.93,-9.4 -5.42,25.92 -11.2,51.77 -16.37,77.73 -18,3.18 -36.03,6.199 -53.99,9.569 0.67,-6.35 2.58,-12.479 3.72,-18.75 4.23,-19.719 8.19,-39.509 12.71,-59.149 l 0,0 z"
   id="path7"
   inkscape:connector-curvature="0"
   style="fill:#db0608" />
	<path
   d="m 947.005,575.054 c 2.99,9.47 6.101,18.91 9.431,28.27 -6.431,0.96 -12.79,2.26 -19.19,3.33 3.129,-10.571 6.369,-21.11 9.759,-31.6 m -295.96,52.149 c 2.82,9.54 6.511,18.811 9.2,28.391 -5.31,0.779 -10.6,1.71 -15.87,2.76 -1.079,0.13 -2.149,0.26 -3.22,0.39 3.5,-10.45 6.5,-21.06 9.89,-31.541 l 0,0 z"
   id="path9"
   inkscape:connector-curvature="0"
   style="fill:#fefefe" />
</g>
</svg>