<?xml version="1.0" encoding="UTF-8"?>
<svg version="1.1" xmlns="http://www.w3.org/2000/svg" width="2880" height="1920">
<path d="M0 0 C950.4 0 1900.8 0 2880 0 C2880 633.6 2880 1267.2 2880 1920 C1929.6 1920 979.2 1920 0 1920 C0 1286.4 0 652.8 0 0 Z " fill="#D31624" transform="translate(0,0)"/>
<path d="M0 0 C2.56030636 1.28015318 2.60255331 2.1215926 3.55859375 4.76953125 C3.85620605 5.56601074 4.15381836 6.36249023 4.46044922 7.18310547 C4.78287598 8.05080566 5.10530273 8.91850586 5.4375 9.8125 C11.76575129 26.17154588 20.29187864 41.12493425 31 55 C32.09054687 56.42505859 32.09054687 56.42505859 33.203125 57.87890625 C42.34560694 69.43855518 52.36543422 79.33776857 65 87 C65.73057617 87.47711426 66.46115234 87.95422852 67.21386719 88.44580078 C75.689159 93.59995704 84.52651471 95.2451837 94.125 97.125 C95.71388754 97.44751949 97.30243259 97.77173098 98.890625 98.09765625 C101.25584279 98.58303484 103.62111385 99.06794055 105.98747253 99.54772949 C111.42564364 100.6553118 116.84146323 101.84043493 122.24609375 103.1015625 C123.26577744 103.33699265 123.26577744 103.33699265 124.30606079 103.57717896 C131.08764627 105.18269692 137.53660456 107.41325483 144 110 C144.67611328 110.2676416 145.35222656 110.5352832 146.04882812 110.81103516 C158.6101487 115.85321529 169.8043053 122.4300757 181 130 C181.72574219 130.49016602 182.45148438 130.98033203 183.19921875 131.48535156 C193.79081456 138.6959325 203.90768566 146.48248729 213.97070312 154.40722656 C216.79775711 156.62615103 219.64741603 158.81397459 222.5 161 C223.50546875 161.77472656 224.5109375 162.54945313 225.546875 163.34765625 C227.45567442 164.8172476 229.36899046 166.28036658 231.28710938 167.73779297 C233.77945176 169.63160001 236.26492875 171.53416578 238.75 173.4375 C239.94979492 174.34338867 239.94979492 174.34338867 241.17382812 175.26757812 C241.91568359 175.83798828 242.65753906 176.40839844 243.421875 176.99609375 C244.08799805 177.50325928 244.75412109 178.0104248 245.44042969 178.53295898 C247 180 247 180 248 183 C246.89164795 182.9285376 245.7832959 182.8570752 244.64135742 182.78344727 C231.85494808 182.00810478 219.11914413 181.88001273 206.3125 181.9375 C204.32747511 181.9425336 202.34244896 181.94709316 200.35742188 181.95117188 C195.57158249 181.96201047 190.78580589 181.97916846 186 182 C190.45565672 194.02766167 205.97048287 202.55208011 216 210 C216.59151855 210.4434375 217.18303711 210.886875 217.79248047 211.34375 C237.87365973 226.35333217 259.79972174 239.25250608 283.12353516 248.48950195 C288.90090165 250.80180329 288.90090165 250.80180329 290 253 C283.93514294 253.02490465 277.87031632 253.04295609 271.80541992 253.05493164 C269.74649537 253.05992942 267.68757431 253.06672987 265.62866211 253.07543945 C262.65217217 253.0877062 259.67572955 253.09327401 256.69921875 253.09765625 C255.7935466 253.10281754 254.88787445 253.10797882 253.95475769 253.11329651 C244.49102187 253.11410871 235.31315958 252.47657724 226.1875 249.875 C225.41760742 249.65980713 224.64771484 249.44461426 223.85449219 249.22290039 C218.83868599 247.74360103 214.38234177 245.86049091 209.75 243.4375 C198.93647264 237.78385213 189.5891165 235.66483226 177.5 235.5625 C176.55576172 235.55226807 175.61152344 235.54203613 174.63867188 235.53149414 C168.42309261 235.61091049 164.22131832 236.54271231 159.171875 240.39453125 C157.11278442 243.21548535 157.20797565 245.85571862 157.37963867 249.25341797 C158.54193206 254.399345 162.89371869 257.01131586 167 260 C170.95882701 262.35074377 175.04520868 264.36954015 179.1875 266.375 C188.8370737 271.22155808 197.51463179 276.35312823 206 283 C207.07624673 283.80849595 208.15440255 284.61445631 209.234375 285.41796875 C223.12632657 295.8203252 236.03524826 307.44663709 248.5546875 319.44921875 C269.42831079 339.11984506 294.62552878 355.05146066 319 370 C319.61649414 370.38140137 320.23298828 370.76280273 320.86816406 371.15576172 C330.37562603 377.03018412 340.11985779 382.47098659 349.90673828 387.86474609 C369.04270956 398.46952916 369.04270956 398.46952916 375.75 405.1875 C376.59046875 406.00605469 377.4309375 406.82460938 378.296875 407.66796875 C380 410 380 410 380.015625 412.17578125 C378.6835676 414.56836128 377.52117985 414.98258986 375 416 C365.93767058 417.04200304 356.45896378 415.34880039 347.4375 414.3125 C346.66042694 414.22585083 345.88335388 414.13920166 345.08273315 414.04992676 C334.08118897 412.82248001 323.15123329 411.30344404 312.21643066 409.58673096 C302.06109789 407.99911489 291.98940523 406.52948951 281.6875 406.4375 C280.85806885 406.42299805 280.0286377 406.40849609 279.17407227 406.39355469 C274.18730618 406.48084572 271.47699365 407.40195047 268 411 C266.55569145 413.88861709 266.62311494 415.79647701 267 419 C272.67905998 426.51101481 281.81378013 429.61988328 290.66015625 431.6484375 C292.00898895 431.97562271 292.00898895 431.97562271 293.3850708 432.30941772 C295.29286626 432.77118931 297.20203725 433.22731035 299.11245728 433.67810059 C304.08710518 434.85327991 309.05077794 436.07326304 314.015625 437.2890625 C314.98385696 437.52512207 315.95208893 437.76118164 316.94966125 438.00439453 C327.7437318 440.64768422 338.37885009 443.73388992 349 447 C351.02836636 447.61420496 353.05702186 448.22745568 355.0859375 448.83984375 C359.92238649 450.30199919 364.75390675 451.7796524 369.58398438 453.26269531 C371.64157812 453.89061903 373.70320342 454.50530724 375.765625 455.1171875 C403.31227911 463.32690461 403.31227911 463.32690461 413 471 C414.00390625 472.9609375 414.00390625 472.9609375 414 475 C413.06640625 477.1171875 413.06640625 477.1171875 411 479 C408.26034215 479.8947015 405.74309155 480.56442623 402.9375 481.125 C402.1645459 481.29040283 401.3915918 481.45580566 400.59521484 481.6262207 C399.06825786 481.95113586 397.53995139 482.26978487 396.01025391 482.58154297 C394.44103518 482.90819355 392.88041296 483.27621928 391.32421875 483.66015625 C384.94112171 485.19073902 378.48528615 485.39906503 371.94970703 485.65893555 C371.16966309 485.69027588 370.38961914 485.72161621 369.5859375 485.75390625 C368.8954834 485.77783447 368.2050293 485.8017627 367.49365234 485.82641602 C365.43730242 485.96955923 363.38844928 486.21639501 361.34545898 486.49072266 C356.5325222 487.11070401 351.73381653 487.2554028 346.88671875 487.39453125 C344.90841246 487.4603883 342.93014182 487.52732339 340.9519043 487.59521484 C339.92769379 487.63007996 338.90348328 487.66494507 337.84823608 487.7008667 C315.94999777 488.46509069 315.94999777 488.46509069 294.1875 490.875 C293.1668042 491.02428955 292.1461084 491.1735791 291.09448242 491.32739258 C283.38921163 492.61149491 273.19061021 494.73547043 268 501 C267.75161619 504.59471004 267.75161619 504.59471004 269 508 C275.55152813 514.03803483 285.75164982 513.23588187 294.125 513.375 C315.92205449 514.05457068 338.44229409 521.06676326 354 537 C355.08872073 538.23877545 356.17144426 539.482833 357.25 540.73046875 C361.07807291 545.14369872 365.11784391 549.30956902 369.25 553.4375 C369.99652832 554.18394775 370.74305664 554.93039551 371.51220703 555.69946289 C376.29561184 560.43380449 381.16352044 564.81173279 386.4609375 568.96484375 C389.25220062 571.2021485 391.87091778 573.57457908 394.5 576 C398.88894746 580.03510021 403.40862766 583.83830304 408.046875 587.58203125 C411.43358782 590.35501436 414.74941743 593.20239709 418.0625 596.0625 C422.71511464 600.07105048 427.41402322 603.99398026 432.234375 607.80078125 C434.46599315 609.57535896 436.68183104 611.3652498 438.890625 613.16796875 C439.58816895 613.73717041 440.28571289 614.30637207 441.00439453 614.89282227 C442.37609172 616.01326799 443.74691972 617.13477901 445.11669922 618.25756836 C449.15929591 621.55600798 453.27008236 624.6976466 457.52685547 627.71630859 C458.01299316 628.13992676 458.49913086 628.56354492 459 629 C459 629.66 459 630.32 459 631 C432.55586287 637.07836872 432.55586287 637.07836872 422 636 C421.13503906 635.93941406 420.27007813 635.87882812 419.37890625 635.81640625 C406.30881752 634.24333465 394.07852002 626.10452847 382.75 619.875 C364.38047238 608.9535197 364.38047238 608.9535197 343.875 609.5 C338.68168224 611.2148323 333.88791891 613.39390539 329.0625 615.9375 C328.44810059 616.26105469 327.83370117 616.58460938 327.20068359 616.91796875 C322.49190745 619.50670415 317.91036997 622.48178504 314.625 626.8125 C313.65189032 630.21838388 313.27421769 633.543308 314 637 C324.52990136 655.11621666 347.2009088 664.45324825 364.8062439 674.13012695 C370.56888672 677.30277649 376.28475817 680.55553647 382 683.8125 C388.80642034 687.68723753 395.66136755 691.41637628 402.625 695 C425.7627229 706.9886598 447.45334474 722.01926813 468 738 C468.5686377 738.43940918 469.13727539 738.87881836 469.72314453 739.33154297 C479.78202341 747.16566244 492.5700373 758.46691535 494.5625 771.75 C493.69288047 776.77446842 492.24164749 779.87948885 488.4375 783.3125 C482.13561052 787.67534656 472.77471098 786.7710274 465.36328125 785.57421875 C454.72358032 782.36854176 445.47076886 775.00041843 436.55175781 768.61328125 C429.9407074 763.89987423 423.13338215 759.58748821 416.20751953 755.35546875 C413.79570747 753.8745596 411.39533706 752.37618211 408.99609375 750.875 C385.99799355 735.92213217 385.99799355 735.92213217 361 725 C359.96491806 724.65022095 358.92983612 724.30044189 357.86338806 723.94006348 C345.68108556 720.33776092 333.67519636 720.45732181 321.04883003 720.5141449 C317.04784166 720.53160374 313.04757717 720.52435521 309.0466156 720.5098877 C299.83330776 720.48111229 290.62013003 720.4915324 281.40679932 720.50258636 C272.95105644 720.51232014 264.49553805 720.51326729 256.03983253 720.48270559 C251.44930836 720.46741091 246.8594678 720.48237841 242.26893616 720.50305176 C223.02346876 720.5014879 207.80301508 718.1303976 190.5625 709.25 C188.67763852 708.30600146 186.78955277 707.36866383 184.90136719 706.43133545 C183.66238563 705.81559745 182.42440908 705.1978326 181.1875 704.57794189 C176.05497475 702.0073125 170.87117169 699.57863201 165.625 697.25 C164.93736572 696.9396582 164.24973145 696.62931641 163.54125977 696.30957031 C155.11582766 692.58944246 147.19706112 690.63707496 138 692 C127.46746322 696.25958249 120.19966294 705.26059588 115.7890625 715.50390625 C113.17044259 723.78756032 112.70468981 731.38088175 112.734375 740.01953125 C112.73246155 741.27215256 112.7305481 742.52477386 112.72857666 743.81535339 C112.72721896 746.46892198 112.72986328 749.12211955 112.73925781 751.77563477 C112.75262695 755.73397386 112.73943758 759.69204785 112.7265625 763.65039062 C112.71901753 776.61507766 113.00141916 789.5134094 113.90234375 802.44921875 C113.98139954 803.5971138 114.06045532 804.74500885 114.14190674 805.9276886 C114.77024781 814.05019362 116.01956998 821.37299678 119 829 C119.37125 830.00160156 119.7425 831.00320313 120.125 832.03515625 C128.51832272 853.43260726 141.81404973 869.32341886 158.92700195 884.16772461 C162.47928054 887.30750212 165.88421953 890.6012247 169.3125 893.875 C174.86408997 899.14207851 180.46883548 904.16859133 186.4609375 908.9296875 C190.2064383 911.98371123 193.71828641 915.2789271 197.26953125 918.5546875 C199.83860481 920.8554601 202.47721708 922.99404512 205.1875 925.125 C210.06936458 929.08364664 214.58926185 933.33612485 219.0625 937.75 C220.01709106 938.6783667 220.01709106 938.6783667 220.9909668 939.62548828 C224.04914844 942.68717122 226.68161331 945.45304225 228.87544816 949.22183974 C231.42929878 953.56374128 234.11134621 957.91186341 239.00403127 959.75490519 C245.01133399 960.98963902 251.13662348 960.72176942 257.23681831 960.61523914 C259.32401646 960.62656876 261.41119005 960.64360153 263.49830079 960.6658099 C269.24778017 960.71041271 274.99434268 960.67388608 280.74367701 960.62439972 C286.99260764 960.58492307 293.24117311 960.62085182 299.49010932 960.64730614 C310.44641166 960.68326157 321.4016919 960.67130585 332.35793114 960.62704659 C344.11262282 960.57981368 355.86685186 960.56097534 367.62163353 960.5768013 C368.36421845 960.57778424 369.10680338 960.57876718 369.87189088 960.5797799 C373.65837219 960.58492284 377.44485267 960.59052791 381.23133307 960.5962962 C408.63459506 960.63709689 436.03751769 960.61505174 463.44073868 960.55968666 C490.57862832 960.50504194 517.71632845 960.47728867 544.85427475 960.48558617 C545.69707662 960.48583162 546.53987849 960.48607707 547.4082198 960.48632996 C555.10591857 960.48858608 562.8036172 960.49117361 570.50131573 960.49415877 C589.63691849 960.50157547 608.77252075 960.50483574 627.90812492 960.50527477 C629.21521357 960.50530976 629.21521357 960.50530976 630.54870805 960.50534546 C672.93680465 960.50611732 715.32483008 960.45900087 757.71289062 960.40795898 C772.42246451 960.39027297 787.13203861 960.37279869 801.84161377 960.35620117 C803.21004796 960.35465678 803.21004796 960.35465678 804.60612729 960.35308119 C847.01634578 960.30550809 889.42655529 960.29195444 931.8367977 960.28717614 C934.59010906 960.28686531 937.34342042 960.28653982 940.09673178 960.28621134 C958.34307325 960.28405791 976.58941474 960.28249083 994.8357563 960.28131637 C1031.14143331 960.27897432 1067.44710952 960.27318709 1103.75278567 960.26503299 C1105.48175581 960.26464469 1107.21072595 960.26425881 1108.93969609 960.26387534 C1162.1950103 960.25205021 1215.45029928 960.22467653 1268.70559692 960.1809845 C1270.85372582 960.17923097 1273.00185472 960.17747758 1275.14998362 960.17572541 C1334.76666467 960.12661548 1394.38333055 960.06118986 1454 960 C1454 1118.4 1454 1276.8 1454 1440 C503.6 1440 -446.8 1440 -1426 1440 C-1426 1281.6 -1426 1123.2 -1426 960 C-1051.78 960 -677.56 960 -292 960 C-291.34 958.35 -290.68 956.7 -290 955 C-274.95663605 930.36855793 -255.34976001 916.8687231 -227.84375 908.7734375 C-218.79414187 906.03459144 -210.46261361 902.47807053 -202.0625 898.125 C-201.12792969 897.64345459 -200.19335938 897.16190918 -199.23046875 896.66577148 C-187.77702424 890.55882245 -178.4448277 882.92553667 -169.375 873.6875 C-168.4984375 872.81416016 -167.621875 871.94082031 -166.71875 871.04101562 C-139.5620512 843.66271172 -106.74875153 801.08462053 -106.68310547 760.8034668 C-106.89285559 746.49514249 -111.90555622 736.23615317 -121.5625 725.9375 C-131.81076084 716.05744015 -146.03652144 707.99667987 -160.4375 706.6875 C-172.14538439 706.9220842 -183.6026479 713.32184511 -194.01446533 718.13607788 C-198.43599609 720.17748911 -202.87200481 722.18688291 -207.30859375 724.1953125 C-208.65963196 724.80716652 -208.65963196 724.80716652 -210.03796387 725.43138123 C-234.91530479 736.6583454 -260.34524082 746.65966845 -285.77340698 756.55934143 C-289.93674245 758.18290696 -294.08263925 759.84122713 -298.21484375 761.54296875 C-310.85480785 766.69023018 -323.54502951 769.75630508 -337 772 C-338.15218018 772.19698486 -338.15218018 772.19698486 -339.32763672 772.39794922 C-349.61905018 774.0743892 -359.96537441 774.21884422 -370.375 774.3125 C-371.63521973 774.33030518 -372.89543945 774.34811035 -374.19384766 774.36645508 C-385.57391137 774.35670545 -397.46844887 772.74352886 -407 766 C-410.33705978 762.4218885 -412.26245807 758.94414275 -412.3125 754 C-412.209375 753.01 -412.10625 752.02 -412 751 C-394.00371711 742.22428452 -374.6522898 736.24873905 -355.4152832 730.85498047 C-286.00772713 711.91765899 -286.00772713 711.91765899 -230 669.5 C-228.55809085 665.89522713 -228.16864929 662.76257866 -229 659 C-231.62283887 653.42071556 -236.01001596 651.32207135 -241.5625 649.125 C-256.18309929 643.92426857 -270.92075913 644.47732793 -285 651 C-290.96492643 654.25997758 -296.47620101 658.23528708 -302.0390625 662.125 C-328.11633076 679.72553838 -359.14552134 690.29971455 -388.875 700 C-389.56312775 700.22592834 -390.25125549 700.45185669 -390.9602356 700.68463135 C-419.01096033 709.84320919 -419.01096033 709.84320919 -431.4375 709.5 C-432.18773437 709.48646484 -432.93796875 709.47292969 -433.7109375 709.45898438 C-444.37176539 709.06174382 -452.56046819 704.64351897 -460 697 C-462.10383778 694.06407549 -464.07411943 691.05505736 -466 688 C-465.20416504 687.99589111 -464.40833008 687.99178223 -463.58837891 687.98754883 C-459.93319812 687.95436817 -456.27963023 687.8836941 -452.625 687.8125 C-451.37332031 687.80669922 -450.12164063 687.80089844 -448.83203125 687.79492188 C-427.5101103 687.29257295 -413.31409733 670.78595743 -399.3125 656.375 C-391.20374349 648.05461824 -383.14779874 640.18638578 -374 633 C-372.90933738 632.07760759 -371.82467011 631.1480078 -370.75 630.20703125 C-351.79035601 613.69813669 -331.11195216 600.13866134 -308.96704102 588.34301758 C-301.54723787 584.3859697 -294.16542198 580.37891621 -286.875 576.1875 C-285.55302612 575.45200928 -285.55302612 575.45200928 -284.2043457 574.70166016 C-276.97237758 570.48738302 -270.36161172 564.86457457 -267 557 C-265.37752326 545.52946674 -269.4015553 535.21515076 -276.19140625 526.1328125 C-280.13991069 521.47647681 -283.75814718 518.26088623 -289.9609375 517.5390625 C-296.28974238 517.6225026 -300.55388549 520.8930995 -305.625 524.375 C-306.59139404 525.01260254 -307.55778809 525.65020508 -308.5534668 526.30712891 C-312.79263526 529.11349299 -316.98554828 531.98498794 -321.16796875 534.875 C-336.30087372 545.28618479 -352.54660344 554.75830212 -371.5 551.375 C-379.61921083 549.2897382 -388.19609688 545.11762761 -394 539 C-394.875 536.1875 -394.875 536.1875 -395 534 C-394.14535156 533.76023437 -393.29070312 533.52046875 -392.41015625 533.2734375 C-388.658058 531.87231032 -385.64513417 529.96574299 -382.4375 527.625 C-381.83470215 527.19018311 -381.2319043 526.75536621 -380.61083984 526.30737305 C-374.51951611 521.81313563 -369.0586042 516.72063121 -363.60229492 511.48974609 C-361.9212288 509.92676187 -360.18445826 508.44907798 -358.43359375 506.96484375 C-354.72210497 503.74154628 -351.27645403 500.30647665 -347.83984375 496.796875 C-347.2828479 496.22966232 -346.72585205 495.66244965 -346.15197754 495.07804871 C-343.83749245 492.71850318 -341.52472396 490.35760028 -339.2277832 487.98095703 C-328.80505836 477.21593992 -317.45298772 466.66540629 -303.5625 460.5625 C-302.86205566 460.2423291 -302.16161133 459.9221582 -301.43994141 459.59228516 C-296.05034788 457.22791965 -290.62646683 455.71622118 -284.89672852 454.43139648 C-274.34399525 452.03322662 -264.16772112 448.27574301 -256 441 C-254.89591797 440.071875 -254.89591797 440.071875 -253.76953125 439.125 C-248.6937515 434.77190246 -244.2734633 430.12994028 -240 425 C-239.22785156 424.10410156 -238.45570312 423.20820312 -237.66015625 422.28515625 C-233.21605352 417.07412054 -228.96413124 411.77450334 -225 406.1875 C-223.9171875 404.66189453 -223.9171875 404.66189453 -222.8125 403.10546875 C-218.93281776 396.45816836 -217.99508989 389.56748623 -219 382 C-220.3505317 377.81218213 -222.19471661 373.97899726 -224.1875 370.0625 C-224.67025391 369.04865234 -225.15300781 368.03480469 -225.65039062 366.99023438 C-229.08471951 359.96136232 -229.08471951 359.96136232 -235 355 C-239.7550821 353.44732013 -242.87768831 354.14915065 -247.44140625 355.76953125 C-262.42753484 360.92353288 -278.03094605 366.05656099 -294 366 C-295.46755055 366.04494226 -296.9349976 366.09334841 -298.40234375 366.14453125 C-299.93483533 366.18223271 -301.467391 366.21741917 -303 366.25 C-303.70713135 366.2718335 -304.4142627 366.29366699 -305.14282227 366.31616211 C-309.85156161 366.34371175 -312.98016163 365.42660975 -317 363 C-318 362 -318 362 -318.6875 358.0625 C-318.58084179 353.54730263 -317.21505267 351.48846 -314.125 348.25 C-302.04469035 337.27563419 -288.11577771 328.5471631 -274.11669922 320.26123047 C-272.09829137 319.05856669 -270.09588544 317.83349042 -268.09765625 316.59765625 C-260.70290145 312.04274152 -253.1770675 307.98987247 -245.3828125 304.1640625 C-217.72003463 292.11384639 -217.72003463 292.11384639 -199 270 C-198.773125 268.9275 -198.54625 267.855 -198.3125 266.75 C-193.64264606 253.40756016 -180.63315634 244.37971609 -168.4453125 238.47412109 C-162.95635437 235.89147535 -158.86110021 234.87980563 -152.8125 234.625 C-146.25026179 234.27166687 -139.87630403 233.87630403 -135 229 C-133.5349735 221.80164863 -135.80609785 216.45582605 -139.296875 210.25 C-141.14159582 207.81293763 -142.11330249 206.92935046 -145 206 C-147.91355861 205.72130019 -147.91355861 205.72130019 -151 205.8125 C-152.03125 205.81894531 -153.0625 205.82539062 -154.125 205.83203125 C-156.86216338 205.89452143 -156.86216338 205.89452143 -158.890625 206.5078125 C-162.14977159 207.26828004 -165.4233169 207.10337607 -168.75 207.0625 C-169.44738281 207.05798828 -170.14476562 207.05347656 -170.86328125 207.04882812 C-172.57555803 207.0371002 -174.28779033 207.01916653 -176 207 C-176.66 205.68 -177.32 204.36 -178 203 C-169.30505868 190.17922378 -156.72197868 182.40003165 -144 174 C-142.60394531 173.06607422 -142.60394531 173.06607422 -141.1796875 172.11328125 C-136.1410689 168.90928162 -130.84487854 166.5992134 -125.375 164.25 C-107.14768091 156.38496865 -84.25624621 142.88436932 -73 126 C-72.60986284 124.0103005 -72.26797351 122.00980131 -72 120 C-78.06389006 119.71480024 -82.52820397 120.52977426 -88.1875 122.625 C-95.23323534 125.10511084 -102.31494248 127.33201383 -109.5 129.375 C-110.41418701 129.63748535 -111.32837402 129.8999707 -112.27026367 130.17041016 C-118.73763676 132 -118.73763676 132 -121 132 C-116.46688961 121.91054981 -107.00755876 113.68579817 -99.24414062 105.98339844 C-97.62653713 104.37652693 -96.01993087 102.75921506 -94.4140625 101.140625 C-87.93444698 94.65166304 -81.23864127 88.64878762 -74 83 C-73.24928223 82.4112207 -72.49856445 81.82244141 -71.72509766 81.21582031 C-69.65974542 79.6099084 -67.58267996 78.02085297 -65.5 76.4375 C-64.76716797 75.87579102 -64.03433594 75.31408203 -63.27929688 74.73535156 C-59.42144236 71.79012606 -55.51745632 68.97525619 -51.5 66.25 C-28.26035779 49.46778509 -13.41220258 24.69637301 0 0 Z " fill="#D31624" transform="translate(1426,480)"/>
<path d="M0 0 C479.49 0 958.98 0 1453 0 C1453 316.8 1453 633.6 1453 960 C1147.46607755 960.48481772 1147.46607755 960.48481772 1030.80384827 960.57797956 C1029.16613261 960.57929207 1027.52841695 960.58060512 1025.89070129 960.58191866 C1025.06953496 960.58257717 1024.24836864 960.58323568 1023.40231848 960.58391415 C994.39041501 960.60721282 965.37851228 960.6312955 936.36661062 960.65675107 C933.59755021 960.6591738 930.82848978 960.66157594 928.05942935 960.66397306 C885.65345997 960.70075996 843.24753207 960.74758496 800.84161377 960.82397461 C799.92955121 960.82561739 799.01748866 960.82726018 798.07778784 960.82895275 C783.37245521 960.8555015 768.66712416 960.8829047 753.96179331 960.91042129 C711.61058216 960.98965576 669.25940277 961.06258159 626.90812492 961.09367752 C626.03736902 961.09431994 625.16661312 961.09496236 624.26947067 961.09562425 C605.15514609 961.10961279 586.04082111 961.12035133 566.92649299 961.12801179 C559.2357534 961.1311513 551.54501405 961.13475873 543.85427475 961.13852692 C543.01255221 961.13892804 542.17082966 961.13932917 541.30360037 961.13974245 C514.17453268 961.15290376 487.04570087 961.2041698 459.91672839 961.2753865 C432.59284465 961.34694068 405.26918986 961.38119738 377.94521003 961.36348785 C374.17068469 961.36105084 370.39615924 961.35904227 366.62163353 961.35729218 C365.88170878 961.35693361 365.14178403 961.35657504 364.37943732 961.35620561 C352.65549514 961.35163491 340.93203691 961.38747584 329.20822665 961.44011835 C317.68421065 961.49103524 306.16104209 961.49829739 294.63692529 961.46198176 C288.46997102 961.44380123 282.30463669 961.44489038 276.13785376 961.49859819 C270.52994115 961.54706917 264.92491592 961.54053999 259.31704906 961.48967971 C257.29855006 961.4810914 255.27984062 961.49273657 253.26161118 961.52682294 C237.46701861 961.77671996 237.46701861 961.77671996 232.65436266 957.37056533 C230.03842682 954.49530074 228.02103491 951.31725733 226 948 C224.90429773 946.64248782 223.78602155 945.30208745 222.625 944 C222.07585937 943.37996094 221.52671875 942.75992188 220.9609375 942.12109375 C214.04175961 934.63680372 206.8802956 927.6906452 198.90625 921.33203125 C189.60279334 913.86675756 180.72736819 905.91873923 172.00390625 897.7890625 C169.42739187 895.38864375 166.81613264 893.03088869 164.1875 890.6875 C159.67482161 886.64088512 155.23784253 882.51656928 150.8125 878.375 C150.14694092 877.75326904 149.48138184 877.13153809 148.7956543 876.4909668 C146.85481257 874.66981393 144.92466815 872.83823022 143 871 C142.38229736 870.4136377 141.76459473 869.82727539 141.12817383 869.22314453 C137.261968 865.47128024 134.01308618 861.63046705 131.0625 857.125 C130.64282959 856.48860596 130.22315918 855.85221191 129.79077148 855.1965332 C123.22596533 844.95881299 117.96343499 833.81314497 115 822 C114.6810376 821.05592285 114.3620752 820.1118457 114.03344727 819.13916016 C112.48651288 813.70471776 112.2692803 808.11368648 111.89453125 802.5 C111.81064651 801.27531006 111.72676178 800.05062012 111.64033508 798.78881836 C110.8224957 785.83302011 110.66230402 772.89049876 110.68432617 759.91210938 C110.68754353 755.9463486 110.66368806 751.98129749 110.63867188 748.015625 C110.63640312 745.44791759 110.63569341 742.88020821 110.63671875 740.3125 C110.627509 739.14984619 110.61829926 737.98719238 110.60881042 736.78930664 C110.67620108 724.78036867 113.02280844 714.8643053 120 705 C120.44085937 704.36320312 120.88171875 703.72640625 121.3359375 703.0703125 C126.0208376 696.97723434 132.48106057 691.89129836 140.109375 690.38671875 C156.43262703 689.68999458 172.23578174 699.77140664 186.39672852 706.85522461 C188.95105376 708.12887422 191.51556987 709.37992896 194.08203125 710.62890625 C194.82532181 711.00817764 195.56861237 711.38744904 196.33442688 711.7782135 C211.99691314 719.33486051 227.89314539 719.55466037 244.96520424 719.45528984 C248.95019215 719.43311002 252.93473069 719.4365825 256.91972351 719.44776917 C266.81302841 719.47073659 276.7062034 719.4526939 286.5994873 719.42626953 C294.30596388 719.40616875 302.01209438 719.39801256 309.71857232 719.42320591 C314.28503863 719.43667468 318.85046919 719.41348019 323.41682434 719.38365173 C341.79103906 719.37204999 359.17241733 721.14520731 375.42578125 730.3828125 C376.13041504 730.78274414 376.83504883 731.18267578 377.56103516 731.59472656 C378.76832275 732.29033691 378.76832275 732.29033691 380 733 C380.98919434 733.56686523 381.97838867 734.13373047 382.99755859 734.71777344 C397.96849338 743.34674607 412.61926829 752.4163041 427 762 C428.12224721 762.74371391 429.24462801 763.48722629 430.3671875 764.23046875 C434.51803693 766.98852653 438.65547325 769.76526507 442.77734375 772.56640625 C443.43629639 773.01153564 444.09524902 773.45666504 444.77416992 773.9152832 C446.04398864 774.77307375 447.31130437 775.6345877 448.57543945 776.50073242 C457.27254428 782.36267868 464.34893364 785.16502693 474.9375 785.3125 C475.62779297 785.34150391 476.31808594 785.37050781 477.02929688 785.40039062 C482.1964443 785.46406164 485.04336414 784.26466816 489 781 C491.95724981 776.56412528 492.46250655 773.26927104 492 768 C490.71413307 765.43969607 489.4941189 763.31821089 487.875 761 C487.45976074 760.38552002 487.04452148 759.77104004 486.61669922 759.13793945 C480.76195979 750.58319883 474.24143712 744.32618947 466 738 C465.34370605 737.49581543 464.68741211 736.99163086 464.01123047 736.47216797 C440.73870696 718.72175819 415.9339719 703.82772523 390.19702148 689.98266602 C382.1524155 685.64918015 374.18312951 681.19361537 366.2434082 676.67114258 C361.86607144 674.17893901 357.48346001 671.70516447 353.05078125 669.3125 C318.34397725 650.55304231 318.34397725 650.55304231 312 637 C311.20240673 632.79990778 311.62407951 629.83727745 313.375 625.9375 C319.01075951 619.63081673 326.06682478 615.77086549 333.625 612.1875 C334.5382605 611.75256226 334.5382605 611.75256226 335.4699707 611.30883789 C342.393382 608.15608866 350.37492587 605.45709644 358 607 C362.55465117 608.83825253 366.82174113 611.14084408 371.14160156 613.47021484 C376.7001112 616.44507147 382.30553573 619.33039599 387.90545654 622.22631836 C389.96798093 623.29589566 392.02648929 624.3728881 394.08447266 625.45117188 C406.89520595 632.20815273 406.89520595 632.20815273 421 635 C421.8765625 635.06445312 422.753125 635.12890625 423.65625 635.1953125 C433.68576827 635.58305161 443.17545501 633.46102842 452.93798828 631.3671875 C455 631 455 631 458 631 C458 630.34 458 629.68 458 629 C457.41460449 628.72921631 456.82920898 628.45843262 456.22607422 628.17944336 C454.01563212 627.00828238 452.29431109 625.73529141 450.3828125 624.12890625 C449.35969971 623.27607056 449.35969971 623.27607056 448.31591797 622.40600586 C447.59291504 621.79764893 446.86991211 621.18929199 446.125 620.5625 C440.77190329 616.09968255 435.38910229 611.69973484 429.875 607.4375 C422.95952704 602.06717359 416.3865828 596.3329371 409.80078125 590.56689453 C407.03691488 588.16200104 404.23929535 585.79798692 401.4375 583.4375 C387.42862336 571.61160168 373.62848602 559.69095494 360.625 546.75 C359.95871582 546.08838867 359.29243164 545.42677734 358.60595703 544.74511719 C355.55877293 541.68797246 352.65287825 538.61994873 349.9296875 535.26953125 C340.21149987 523.75661643 319.46930489 516.53584801 305 515 C300.12141148 514.69704314 295.23763573 514.5591289 290.35253906 514.40405273 C273.21889088 513.77995121 273.21889088 513.77995121 267.25 508.625 C265.8595235 505.70499934 265.62585737 504.19005824 266 501 C267.46875 499.3046875 267.46875 499.3046875 269.5 497.875 C270.1496875 497.39804687 270.799375 496.92109375 271.46875 496.4296875 C278.30812155 492.56670912 285.378714 491.10525407 293.0625 489.9375 C294.73759644 489.68262817 294.73759644 489.68262817 296.4465332 489.42260742 C310.86969914 487.45782718 325.4175377 487.09033938 339.95141602 486.59545898 C340.95022797 486.56114777 341.94903992 486.52683655 342.9781189 486.4914856 C344.8578052 486.42882873 346.73762849 486.37010272 348.61758423 486.31613159 C353.81041896 486.15063145 358.8509504 485.68748757 364 485 C365.37501627 484.92427064 366.75184971 484.87032865 368.12890625 484.859375 C382.10691196 484.5454929 398.24122178 483.16318561 411 477 C411.89386164 474.45224694 411.89386164 474.45224694 412 472 C394.25308956 460.61290388 374.19716431 455.25854863 354.01025391 449.8203125 C349.36736225 448.55509628 344.74738733 447.21277631 340.125 445.875 C333.80784145 444.06150679 327.481159 442.29686749 321.125 440.625 C320.38668945 440.43019043 319.64837891 440.23538086 318.88769531 440.03466797 C314.36504535 438.8514057 309.83376198 437.70868446 305.29385376 436.59335327 C302.5139605 435.90844129 299.73663318 435.21341698 296.95941162 434.51776123 C295.58775602 434.17704633 294.21492648 433.84101749 292.84088135 433.5100708 C282.66898075 431.05845863 273.86561848 428.12821675 266 421 C264.57337781 418.14675563 264.68966132 416.16545451 265 413 C267.09258851 409.82503812 268.82691286 408.11539143 272 406 C275.11546241 405.56415202 278.2597278 405.67771344 281.40234375 405.69921875 C282.33771469 405.70330246 283.27308563 405.70738617 284.23680115 405.71159363 C293.26505649 405.84735936 302.03372297 406.97058112 310.93746948 408.39373779 C315.47663742 409.11785584 320.02394046 409.78771645 324.5703125 410.46484375 C325.46533981 410.59940979 326.36036713 410.73397583 327.28251648 410.87261963 C335.1513715 412.04710934 343.02649405 413.02861532 350.9375 413.875 C352.55797241 414.05446167 352.55797241 414.05446167 354.21118164 414.23754883 C366.47466931 416.03033533 366.47466931 416.03033533 378 413 C377.06438613 407.43555961 373.13076722 404.5231437 369 401 C360.62162692 395.37704658 351.72777841 390.57274373 342.875 385.75 C331.63785688 379.57448096 320.71071369 373.04921659 310 366 C309.15244141 365.4445752 308.30488281 364.88915039 307.43164062 364.31689453 C290.8727405 353.44442989 274.54505798 342.28954846 259 330 C258.05640625 329.26265625 257.1128125 328.5253125 256.140625 327.765625 C250.21486885 323.04510739 244.84307153 317.95197129 239.54296875 312.5546875 C236.17791342 309.17412501 232.63885854 306.07903415 229 303 C227.65615234 301.82244141 227.65615234 301.82244141 226.28515625 300.62109375 C209.93100905 286.37809901 192.42627655 274.32164952 173.11743164 264.46435547 C158.63875014 257.02718407 158.63875014 257.02718407 156 252 C155.05523746 248.41562819 154.9499037 245.56680753 156 242 C158.73405606 238.42192136 161.75580859 236.41473047 166 235 C184.54239537 233.28912727 199.27214227 236.78929483 215.52734375 245.35546875 C228.09265684 251.30597135 241.77037196 252.17772171 255.48046875 252.09765625 C256.88876701 252.09553383 256.88876701 252.09553383 258.32551575 252.09336853 C261.27954504 252.08783898 264.23349421 252.07530045 267.1875 252.0625 C269.20898327 252.05747587 271.23046774 252.05291458 273.25195312 252.04882812 C278.1679989 252.03789277 283.08398594 252.02067824 288 252 C287.41788254 251.76290314 286.83576508 251.52580627 286.23600769 251.28152466 C257.25001692 239.44591872 230.33482543 223.75904629 206 204 C205.05382813 203.24460937 204.10765625 202.48921875 203.1328125 201.7109375 C200.39503251 199.50402897 197.6910169 197.2636201 195 195 C194.0409375 194.20078125 193.081875 193.4015625 192.09375 192.578125 C191.1759375 191.78921875 190.258125 191.0003125 189.3125 190.1875 C188.48363281 189.47980469 187.65476562 188.77210938 186.80078125 188.04296875 C185 186 185 186 185 182 C188.81155333 180.72948222 192.40294547 180.83755744 196.375 180.83203125 C197.21353516 180.82870285 198.05207031 180.82537445 198.91601562 180.82194519 C200.70149183 180.81687563 202.48697754 180.81453687 204.27246094 180.81469727 C206.93441811 180.81255283 209.59593108 180.79451762 212.2578125 180.77539062 C223.96247064 180.73821093 235.38912881 181.53620088 247 183 C244.23735959 180.19559564 241.48997648 177.46695408 238.43359375 174.984375 C237.78946533 174.46012939 237.14533691 173.93588379 236.48168945 173.39575195 C235.80710693 172.85265381 235.13252441 172.30955566 234.4375 171.75 C233.73004639 171.17789795 233.02259277 170.6057959 232.29370117 170.01635742 C227.24619601 165.95428768 222.12259645 162.0217223 216.9140625 158.16796875 C214.35583304 156.26472834 211.82466265 154.33110929 209.30444336 152.37792969 C196.26870457 142.27685593 183.01087283 132.71341557 169 124 C168.39833008 123.62214355 167.79666016 123.24428711 167.17675781 122.85498047 C158.21114261 117.27485843 148.97386843 113.34683097 139.07397461 109.76391602 C137.74655357 109.2749813 136.42599315 108.76672373 135.11547852 108.23413086 C129.13261755 105.8296732 122.98076925 104.53070048 116.6875 103.1875 C115.51340576 102.92815674 114.33931152 102.66881348 113.12963867 102.40161133 C107.0289819 101.05822454 100.92226226 99.77984818 94.7890625 98.59375 C81.48191101 95.95651284 70.08527206 93.01185923 59 85 C58.02675781 84.30003906 57.05351563 83.60007812 56.05078125 82.87890625 C53.24257189 80.69563364 50.61698576 78.40898834 48 76 C47.24106445 75.30463135 47.24106445 75.30463135 46.46679688 74.59521484 C24.25172054 54.00645485 10.52576196 28.06869856 0 0 Z " fill="#FEFEFE" transform="translate(1427,480)"/>
<path d="M0 0 C470.58 0 941.16 0 1426 0 C1416.35777389 19.28445223 1406.19680473 36.05196077 1391.37646484 51.55175781 C1390.06374863 52.93292712 1388.77531682 54.33705691 1387.48828125 55.7421875 C1381.50817988 62.06113075 1375.07181985 67.02131077 1367.97973633 72.01879883 C1355.57755794 80.76894469 1343.92972479 90.4685618 1333 101 C1332.30583984 101.66692871 1331.61167969 102.33385742 1330.89648438 103.02099609 C1321.45706574 112.13999039 1312.56386204 121.24335198 1305 132 C1306.10214844 131.62488281 1307.20429687 131.24976563 1308.33984375 130.86328125 C1316.95912875 127.94934261 1325.594159 125.16222257 1334.33959961 122.6496582 C1337.34699409 121.78528614 1340.32169751 120.88932074 1343.28125 119.87109375 C1346.99766435 118.68034605 1350.43894575 118.21947288 1354 120 C1354.53859438 123.07768217 1354.52055113 125.19643078 1352.79296875 127.86328125 C1350.95051756 130.01640336 1349.02212652 132.01430819 1347 134 C1346.27425781 134.71285156 1345.54851562 135.42570313 1344.80078125 136.16015625 C1330.94046319 149.14990888 1314.33954782 159.61258967 1296.875 167 C1288.16375855 170.6963309 1280.63721764 175.44863204 1273 181 C1272.45085937 181.39364746 1271.90171875 181.78729492 1271.3359375 182.19287109 C1258.39776616 190.93308099 1258.39776616 190.93308099 1249 203 C1249.33 203.99 1249.66 204.98 1250 206 C1252.41674224 206.02705308 1254.8331794 206.04686438 1257.25 206.0625 C1257.93191406 206.07087891 1258.61382813 206.07925781 1259.31640625 206.08789062 C1262.73450378 206.10448333 1265.71341632 205.89139226 1269 205 C1270.97587236 204.85867213 1272.95680649 204.77997266 1274.9375 204.75 C1275.95714844 204.72421875 1276.97679687 204.6984375 1278.02734375 204.671875 C1281.51444147 205.0567846 1283.23231482 205.85922337 1286 208 C1290.36189915 213.68655399 1293.01205493 219.67484516 1292.51953125 226.90234375 C1292 229 1292 229 1289.875 231.5 C1284.50670011 234.30085212 1280.03364637 235.17197871 1274 235.25 C1258.80169428 236.12911768 1246.16083038 244.17584324 1236 255.1875 C1232.16986533 259.54568632 1229.20378989 263.67025123 1227.6875 269.3125 C1223.380338 282.63157019 1211.14680444 289.2717491 1199.4375 295.4375 C1198.38046875 296.00243164 1197.3234375 296.56736328 1196.234375 297.14941406 C1189.73921975 300.60466261 1183.19151983 303.93727896 1176.59326172 307.18994141 C1163.91105882 313.47664817 1151.89200952 320.75275177 1140.11572266 328.59277344 C1138.70973792 329.52793338 1137.300562 330.45831382 1135.88818359 331.38378906 C1126.08800148 337.81066216 1117.29376538 344.70623462 1109 353 C1108.92820036 354.51928038 1108.91607993 356.04167482 1108.9375 357.5625 C1108.95103516 358.80193359 1108.95103516 358.80193359 1108.96484375 360.06640625 C1108.97644531 360.70449219 1108.98804688 361.34257813 1109 362 C1113.73933618 364.81398086 1117.5973221 365.41681391 1123 365.25 C1123.75418213 365.23396729 1124.50836426 365.21793457 1125.28540039 365.20141602 C1126.81694394 365.16373788 1128.34831873 365.11834722 1129.87939453 365.06494141 C1131.68836651 365.00954346 1133.49878507 365.00530857 1135.30859375 365.01171875 C1150.96053164 364.64044931 1166.81458719 358.93250068 1181.44921875 353.75146484 C1185.05262359 352.68989516 1187.44986393 352.79295373 1191 354 C1197.22005816 358.11520423 1199.7449181 363.49058727 1202.875 370.125 C1203.62136719 371.59839844 1203.62136719 371.59839844 1204.3828125 373.1015625 C1208.39288626 381.47424398 1209.44118465 388.66891806 1206.875 397.66796875 C1205.04225281 402.48428278 1202.20336938 406.31729176 1199 410.3125 C1198.42693115 411.04452637 1197.8538623 411.77655273 1197.26342773 412.53076172 C1192.86485058 418.08321344 1188.21651089 423.34683862 1183.3515625 428.4921875 C1181.44628795 430.52405837 1179.67890239 432.58054339 1177.9375 434.75 C1166.82596466 447.80366616 1150.48965936 453.87816085 1134.125 457.25 C1128.90796549 458.51218577 1124.37101016 460.551619 1119.625 463 C1118.97805176 463.32516602 1118.33110352 463.65033203 1117.66455078 463.98535156 C1103.49526868 471.61469897 1092.25146084 483.36723126 1081.125 494.75 C1079.09264664 496.81776191 1077.05798947 498.883183 1075.02047729 500.94586182 C1073.76816041 502.21477749 1072.5189593 503.48678001 1071.27371216 504.76263428 C1067.03692729 509.07134228 1062.59199338 513.07390562 1058 517 C1057.21523285 517.67588165 1057.21523285 517.67588165 1056.41461182 518.36541748 C1038.35408022 533.84812386 1038.35408022 533.84812386 1033.21484375 534.1796875 C1032.48394531 534.12039063 1031.75304688 534.06109375 1031 534 C1033.20833971 540.9647637 1038.8297492 543.66130265 1045 547 C1049.51166792 549.1172503 1054.02992363 550.52210804 1059 551 C1060.24330078 551.13148438 1060.24330078 551.13148438 1061.51171875 551.265625 C1070.68527073 551.80452525 1077.90853604 548.85610542 1086 545 C1087.02480469 544.51660156 1088.04960938 544.03320312 1089.10546875 543.53515625 C1101.19069732 537.39091973 1112.44626731 529.38715445 1123.4765625 521.5390625 C1128.30105099 518.20948594 1132.00933938 515.954476 1138.01171875 516.51953125 C1144.61054458 518.11413946 1149.13324476 523.73290116 1153 529 C1158.15528073 537.66901155 1161.60905294 546.79975366 1160 557 C1155.24794112 568.00660696 1144.65381893 574.11703164 1134.5625 579.5625 C1133.47718994 580.1603833 1132.39187988 580.7582666 1131.27368164 581.37426758 C1127.8537938 583.25817296 1124.42751118 585.13000597 1121 587 C1106.86346961 594.73072158 1092.99242843 602.44414699 1080 612 C1079.00564941 612.72268066 1079.00564941 612.72268066 1077.99121094 613.45996094 C1069.29130653 619.79428262 1060.93690548 626.422958 1052.81103516 633.47753906 C1051.45754594 634.61536041 1050.07758326 635.72182369 1048.68505859 636.81152344 C1039.4797536 644.07467361 1031.47931861 652.42696876 1023.34472656 660.84716797 C1016.5870137 667.82550539 1009.81859373 674.48347095 1001.984375 680.2578125 C1001.08770111 680.91981155 1001.08770111 680.91981155 1000.1729126 681.59518433 C994.27681904 685.77786818 988.75170116 688.3360837 981.41015625 688.51171875 C980.21455078 688.54716797 979.01894531 688.58261719 977.78710938 688.61914062 C975.94342773 688.65297852 975.94342773 688.65297852 974.0625 688.6875 C972.17821289 688.73874023 972.17821289 688.73874023 970.25585938 688.79101562 C967.17066214 688.87313114 964.08573616 688.94240299 961 689 C966.9019826 696.94739575 966.9019826 696.94739575 974.625 703 C975.94371094 703.804375 975.94371094 703.804375 977.2890625 704.625 C988.690346 710.40778356 1001.81348803 708.88861234 1013.8515625 705.890625 C1014.7557341 705.66968674 1015.6599057 705.44874847 1016.59147644 705.22111511 C1026.34143075 702.76915394 1035.82595421 699.62299811 1045.3125 696.3125 C1046.20042236 696.0056427 1047.08834473 695.6987854 1048.00317383 695.38262939 C1062.24298119 690.45712046 1076.28229614 685.25686562 1090 679 C1091.06154297 678.51789062 1092.12308594 678.03578125 1093.21679688 677.5390625 C1105.06547118 672.11387055 1116.44004325 666.67996855 1127 659 C1141.18404499 648.93446531 1155.31689906 642.74732112 1173 645 C1181.96038346 646.92074817 1190.99073532 649.66657411 1196.8515625 657.046875 C1198.46015321 659.78257349 1198.84669133 661.82017799 1198.57421875 664.96875 C1197.41569345 669.06693475 1194.83057834 671.90679068 1192 675 C1191.32324219 675.74507812 1190.64648438 676.49015625 1189.94921875 677.2578125 C1159.55466336 709.11001086 1103.58276393 723.31237609 1062.3125 734.5 C1046.15504082 738.88627837 1030.50252211 744.70336216 1015 751 C1014.46766754 756.11039164 1015.01028304 759.75660544 1017.9140625 764.0703125 C1031.35153194 776.50122992 1054.22182458 773.41478239 1071 773 C1076.3067078 772.77024813 1081.51047758 772.22577927 1086.75146484 771.3671875 C1088.31403269 771.11201898 1089.87987388 770.87643503 1091.44775391 770.65625 C1111.83924242 767.71859043 1130.52134053 759.68384016 1149.48999023 752.012146 C1152.73699753 750.70281028 1155.99028507 749.40955614 1159.24382019 748.11654663 C1182.76430954 738.76260479 1206.01696516 728.83439825 1229.05078125 718.33984375 C1230.36844944 717.74161079 1231.68615722 717.14346501 1233.00390625 716.54541016 C1235.45807518 715.43139564 1237.90586548 714.30609438 1240.3515625 713.17333984 C1254.61945109 706.6726473 1265.28360566 703.99981111 1280.18359375 709.45703125 C1294.35582697 714.98601324 1309.7921411 726.45291641 1316.375 740.5625 C1322.37154016 754.93738365 1321.79312123 771.7308076 1316 786 C1315.48471214 787.34728759 1314.97045032 788.6949679 1314.45703125 790.04296875 C1303.31592685 818.68081927 1284.83202929 844.57733472 1264 867 C1263.26507324 867.79615723 1262.53014648 868.59231445 1261.77294922 869.41259766 C1250.87530543 881.09893045 1240.23870576 890.68150438 1226 898 C1225.26523438 898.391875 1224.53046875 898.78375 1223.7734375 899.1875 C1213.14318676 904.81745858 1202.22657005 908.8021903 1190.71459961 912.26245117 C1169.46392685 918.65765403 1151.86255028 930.95281934 1140 950 C1139.70625528 950.81711949 1139.41251057 951.63423898 1139.1098645 952.47611966 C1137.77619554 955.69569001 1136.57839163 957.62929503 1134 960 C1127.89071057 961.56807555 1121.82404354 961.32474776 1115.55161476 961.23047829 C1113.61064555 961.23787336 1111.66968895 961.24965788 1109.72876984 961.26544327 C1104.36695155 961.29622248 1099.00702007 961.26431575 1093.64534195 961.22266193 C1087.82328895 961.18839497 1082.00143233 961.21201326 1076.17934167 961.22843683 C1065.96637474 961.24920471 1055.75394472 961.23301236 1045.54104996 961.19205475 C1034.58134268 961.14829556 1023.62191428 961.12632627 1012.662117 961.13107681 C1011.97027194 961.13136373 1011.27842687 961.13165066 1010.56561681 961.13194627 C1007.03798718 961.13351 1003.51035785 961.13542948 999.98272848 961.13747464 C974.43952518 961.15155532 948.89657021 961.1172218 923.35344315 961.05730057 C898.05439654 960.99809362 872.75545623 960.95955326 847.45634079 960.94877243 C846.67090425 960.94842831 845.8854677 960.94808419 845.07623005 960.94772965 C837.90256944 960.94459769 830.72890874 960.94172078 823.5552479 960.9391499 C805.72163129 960.9327556 787.88801717 960.92316217 770.05440331 960.91139793 C769.24226336 960.91086476 768.43012341 960.91033158 767.59337317 960.90978225 C728.07897305 960.88356148 688.56464313 960.82048362 649.05029297 960.75439453 C635.33642632 960.73147811 621.62255943 960.70872456 607.90869141 960.68664551 C607.05816614 960.68527602 606.20764087 960.68390652 605.33134211 960.68249553 C565.80333724 960.61907189 526.27532059 960.58191212 486.7472783 960.55131731 C484.1612969 960.54931161 481.57531551 960.54728863 478.98933412 960.54525994 C452.03993491 960.52412616 425.0905348 960.50425527 398.14113423 960.48493221 C397.37120145 960.48438007 396.60126867 960.48382793 395.80800459 960.48325906 C393.73578149 960.48177418 391.66355838 960.48029218 389.59133528 960.47881044 C259.72742365 960.38489789 129.86387879 960.18420408 0 960 C0 643.2 0 326.4 0 0 Z " fill="#FEFEFE" transform="translate(0,480)"/>
<path d="M0 0 C2.56030636 1.28015318 2.60255331 2.1215926 3.55859375 4.76953125 C3.85620605 5.56601074 4.15381836 6.36249023 4.46044922 7.18310547 C4.78287598 8.05080566 5.10530273 8.91850586 5.4375 9.8125 C11.76575129 26.17154588 20.29187864 41.12493425 31 55 C31.72703125 55.95003906 32.4540625 56.90007813 33.203125 57.87890625 C42.34560694 69.43855518 52.36543422 79.33776857 65 87 C66.09586426 87.71567139 66.09586426 87.71567139 67.21386719 88.44580078 C75.689159 93.59995704 84.52651471 95.2451837 94.125 97.125 C95.71388754 97.44751949 97.30243259 97.77173098 98.890625 98.09765625 C101.25584279 98.58303484 103.62111385 99.06794055 105.98747253 99.54772949 C111.42564364 100.6553118 116.84146323 101.84043493 122.24609375 103.1015625 C122.92588287 103.25851593 123.605672 103.41546936 124.30606079 103.57717896 C131.08764627 105.18269692 137.53660456 107.41325483 144 110 C144.67611328 110.2676416 145.35222656 110.5352832 146.04882812 110.81103516 C158.6101487 115.85321529 169.8043053 122.4300757 181 130 C181.72574219 130.49016602 182.45148437 130.98033203 183.19921875 131.48535156 C193.79081456 138.6959325 203.90768566 146.48248729 213.97070312 154.40722656 C216.79775711 156.62615103 219.64741603 158.81397459 222.5 161 C224.00820312 162.16208984 224.00820312 162.16208984 225.546875 163.34765625 C227.45567442 164.8172476 229.36899046 166.28036658 231.28710938 167.73779297 C233.77945176 169.63160001 236.26492875 171.53416578 238.75 173.4375 C239.54986328 174.04142578 240.34972656 174.64535156 241.17382812 175.26757812 C241.91568359 175.83798828 242.65753906 176.40839844 243.421875 176.99609375 C244.42105957 177.75684204 244.42105957 177.75684204 245.44042969 178.53295898 C247 180 247 180 248 183 C246.89164795 182.9285376 245.7832959 182.8570752 244.64135742 182.78344727 C231.85494808 182.00810478 219.11914413 181.88001273 206.3125 181.9375 C204.32747511 181.9425336 202.34244896 181.94709316 200.35742188 181.95117188 C195.57158249 181.96201047 190.78580589 181.97916846 186 182 C190.45565672 194.02766167 205.97048287 202.55208011 216 210 C216.59151855 210.4434375 217.18303711 210.886875 217.79248047 211.34375 C237.87365973 226.35333217 259.79972174 239.25250608 283.12353516 248.48950195 C288.90090165 250.80180329 288.90090165 250.80180329 290 253 C283.93514294 253.02490465 277.87031632 253.04295609 271.80541992 253.05493164 C269.74649537 253.05992942 267.68757431 253.06672987 265.62866211 253.07543945 C262.65217217 253.0877062 259.67572955 253.09327401 256.69921875 253.09765625 C255.7935466 253.10281754 254.88787445 253.10797882 253.95475769 253.11329651 C244.49102187 253.11410871 235.31315958 252.47657724 226.1875 249.875 C225.41760742 249.65980713 224.64771484 249.44461426 223.85449219 249.22290039 C218.83868599 247.74360103 214.38234177 245.86049091 209.75 243.4375 C198.93647264 237.78385213 189.5891165 235.66483226 177.5 235.5625 C176.55576172 235.55226807 175.61152344 235.54203613 174.63867188 235.53149414 C168.42309261 235.61091049 164.22131832 236.54271231 159.171875 240.39453125 C157.11278442 243.21548535 157.20797565 245.85571862 157.37963867 249.25341797 C158.54193206 254.399345 162.89371869 257.01131586 167 260 C170.95882701 262.35074377 175.04520868 264.36954015 179.1875 266.375 C188.8370737 271.22155808 197.51463179 276.35312823 206 283 C207.07624673 283.80849595 208.15440255 284.61445631 209.234375 285.41796875 C223.12632657 295.8203252 236.03524826 307.44663709 248.5546875 319.44921875 C269.42831079 339.11984506 294.62552878 355.05146066 319 370 C319.61649414 370.38140137 320.23298828 370.76280273 320.86816406 371.15576172 C330.37562603 377.03018412 340.11985779 382.47098659 349.90673828 387.86474609 C369.04270956 398.46952916 369.04270956 398.46952916 375.75 405.1875 C376.59046875 406.00605469 377.4309375 406.82460938 378.296875 407.66796875 C380 410 380 410 380.015625 412.17578125 C378.6835676 414.56836128 377.52117985 414.98258986 375 416 C365.93767058 417.04200304 356.45896378 415.34880039 347.4375 414.3125 C346.66042694 414.22585083 345.88335388 414.13920166 345.08273315 414.04992676 C334.08118897 412.82248001 323.15123329 411.30344404 312.21643066 409.58673096 C302.06109789 407.99911489 291.98940523 406.52948951 281.6875 406.4375 C280.85806885 406.42299805 280.0286377 406.40849609 279.17407227 406.39355469 C274.18730618 406.48084572 271.47699365 407.40195047 268 411 C266.55569145 413.88861709 266.62311494 415.79647701 267 419 C272.67905998 426.51101481 281.81378013 429.61988328 290.66015625 431.6484375 C291.55937805 431.86656097 292.45859985 432.08468445 293.3850708 432.30941772 C295.29286626 432.77118931 297.20203725 433.22731035 299.11245728 433.67810059 C304.08710518 434.85327991 309.05077794 436.07326304 314.015625 437.2890625 C314.98385696 437.52512207 315.95208893 437.76118164 316.94966125 438.00439453 C327.7437318 440.64768422 338.37885009 443.73388992 349 447 C351.02836636 447.61420496 353.05702186 448.22745568 355.0859375 448.83984375 C359.92238649 450.30199919 364.75390675 451.7796524 369.58398438 453.26269531 C371.64157812 453.89061903 373.70320342 454.50530724 375.765625 455.1171875 C403.31227911 463.32690461 403.31227911 463.32690461 413 471 C414.00390625 472.9609375 414.00390625 472.9609375 414 475 C413.06640625 477.1171875 413.06640625 477.1171875 411 479 C408.26034215 479.8947015 405.74309155 480.56442623 402.9375 481.125 C401.77806885 481.37310425 401.77806885 481.37310425 400.59521484 481.6262207 C399.06825786 481.95113586 397.53995139 482.26978487 396.01025391 482.58154297 C394.44103518 482.90819355 392.88041296 483.27621928 391.32421875 483.66015625 C384.94112171 485.19073902 378.48528615 485.39906503 371.94970703 485.65893555 C371.16966309 485.69027588 370.38961914 485.72161621 369.5859375 485.75390625 C368.8954834 485.77783447 368.2050293 485.8017627 367.49365234 485.82641602 C365.43730242 485.96955923 363.38844928 486.21639501 361.34545898 486.49072266 C356.5325222 487.11070401 351.73381653 487.2554028 346.88671875 487.39453125 C344.90841246 487.4603883 342.93014182 487.52732339 340.9519043 487.59521484 C339.92769379 487.63007996 338.90348328 487.66494507 337.84823608 487.7008667 C315.94999777 488.46509069 315.94999777 488.46509069 294.1875 490.875 C292.6564563 491.09893433 292.6564563 491.09893433 291.09448242 491.32739258 C283.38921163 492.61149491 273.19061021 494.73547043 268 501 C267.75161619 504.59471004 267.75161619 504.59471004 269 508 C275.55152813 514.03803483 285.75164982 513.23588187 294.125 513.375 C315.92205449 514.05457068 338.44229409 521.06676326 354 537 C355.08872073 538.23877545 356.17144426 539.482833 357.25 540.73046875 C361.07807291 545.14369872 365.11784391 549.30956902 369.25 553.4375 C369.99652832 554.18394775 370.74305664 554.93039551 371.51220703 555.69946289 C376.29561184 560.43380449 381.16352044 564.81173279 386.4609375 568.96484375 C389.25220062 571.2021485 391.87091778 573.57457908 394.5 576 C398.88894746 580.03510021 403.40862766 583.83830304 408.046875 587.58203125 C411.43358782 590.35501436 414.74941743 593.20239709 418.0625 596.0625 C422.71511464 600.07105048 427.41402322 603.99398026 432.234375 607.80078125 C434.46599315 609.57535896 436.68183104 611.3652498 438.890625 613.16796875 C439.58816895 613.73717041 440.28571289 614.30637207 441.00439453 614.89282227 C442.37609172 616.01326799 443.74691972 617.13477901 445.11669922 618.25756836 C449.15929591 621.55600798 453.27008236 624.6976466 457.52685547 627.71630859 C458.25606201 628.35173584 458.25606201 628.35173584 459 629 C459 629.66 459 630.32 459 631 C432.55586287 637.07836872 432.55586287 637.07836872 422 636 C421.13503906 635.93941406 420.27007813 635.87882812 419.37890625 635.81640625 C406.30881752 634.24333465 394.07852002 626.10452847 382.75 619.875 C364.38047238 608.9535197 364.38047238 608.9535197 343.875 609.5 C338.68168224 611.2148323 333.88791891 613.39390539 329.0625 615.9375 C328.44810059 616.26105469 327.83370117 616.58460938 327.20068359 616.91796875 C322.49190745 619.50670415 317.91036997 622.48178504 314.625 626.8125 C313.65189032 630.21838388 313.27421769 633.543308 314 637 C324.52990136 655.11621666 347.2009088 664.45324825 364.8062439 674.13012695 C370.56888672 677.30277649 376.28475817 680.55553647 382 683.8125 C388.80642034 687.68723753 395.66136755 691.41637628 402.625 695 C425.7627229 706.9886598 447.45334474 722.01926813 468 738 C468.5686377 738.43940918 469.13727539 738.87881836 469.72314453 739.33154297 C479.78202341 747.16566244 492.5700373 758.46691535 494.5625 771.75 C493.69288047 776.77446842 492.24164749 779.87948885 488.4375 783.3125 C482.13561052 787.67534656 472.77471098 786.7710274 465.36328125 785.57421875 C454.72358032 782.36854176 445.47076886 775.00041843 436.55175781 768.61328125 C429.9407074 763.89987423 423.13338215 759.58748821 416.20751953 755.35546875 C413.79570747 753.8745596 411.39533706 752.37618211 408.99609375 750.875 C385.99799355 735.92213217 385.99799355 735.92213217 361 725 C359.96491806 724.65022095 358.92983612 724.30044189 357.86338806 723.94006348 C345.68108556 720.33776092 333.67519636 720.45732181 321.04883003 720.5141449 C317.04784166 720.53160374 313.04757717 720.52435521 309.0466156 720.5098877 C299.83330776 720.48111229 290.62013003 720.4915324 281.40679932 720.50258636 C272.95105644 720.51232014 264.49553805 720.51326729 256.03983253 720.48270559 C251.44930836 720.46741091 246.8594678 720.48237841 242.26893616 720.50305176 C223.02346876 720.5014879 207.80301508 718.1303976 190.5625 709.25 C188.67763852 708.30600146 186.78955277 707.36866383 184.90136719 706.43133545 C183.66238563 705.81559745 182.42440908 705.1978326 181.1875 704.57794189 C176.05497475 702.0073125 170.87117169 699.57863201 165.625 697.25 C164.93736572 696.9396582 164.24973145 696.62931641 163.54125977 696.30957031 C155.11582766 692.58944246 147.19706112 690.63707496 138 692 C127.46746322 696.25958249 120.19966294 705.26059588 115.7890625 715.50390625 C113.17044259 723.78756032 112.70468981 731.38088175 112.734375 740.01953125 C112.73246155 741.27215256 112.7305481 742.52477386 112.72857666 743.81535339 C112.72721896 746.46892198 112.72986328 749.12211955 112.73925781 751.77563477 C112.75262695 755.73397386 112.73943758 759.69204785 112.7265625 763.65039062 C112.71901753 776.61507766 113.00141916 789.5134094 113.90234375 802.44921875 C113.98139954 803.5971138 114.06045532 804.74500885 114.14190674 805.9276886 C114.77024781 814.05019362 116.01956998 821.37299678 119 829 C119.37125 830.00160156 119.7425 831.00320313 120.125 832.03515625 C128.51832272 853.43260726 141.81404973 869.32341886 158.92700195 884.16772461 C162.47928054 887.30750212 165.88421953 890.6012247 169.3125 893.875 C174.86408997 899.14207851 180.46883548 904.16859133 186.4609375 908.9296875 C190.2064383 911.98371123 193.71828641 915.2789271 197.26953125 918.5546875 C199.83860481 920.8554601 202.47721708 922.99404512 205.1875 925.125 C217.21660361 934.8792588 228.25248415 946.19414146 237 959 C237 959.33 237 959.66 237 960 C209.21579557 961.6673943 209.21579557 961.6673943 201.75 956 C199.19140625 953.50390625 199.19140625 953.50390625 197 951 C195.56374219 949.64451591 194.12632216 948.29026177 192.6875 946.9375 C189.62311349 943.74700705 186.72973629 940.42117367 183.84765625 937.06640625 C181.09475319 933.98757809 178.13818996 931.12631164 175.19140625 928.234375 C173.14854699 926.15145967 171.29324954 923.99888099 169.4375 921.75 C158.9041 909.68794332 141.81428339 907.32976987 126.71044922 905.35595703 C123.80530206 904.97443077 120.90513001 904.56257577 118.00390625 904.15234375 C96.15593522 900.05111654 96.15593522 900.05111654 75 903 C74.38107612 910.08145376 76.1313717 913.9729458 79.8125 919.9375 C88.79468819 934.78822199 88.79468819 934.78822199 88 943 C81.98892939 943.75138383 78.68621614 941.37791229 74 938 C71.57915397 935.9389915 69.32408354 933.73312217 67.0625 931.5 C54.38476264 919.34198712 39.92876344 909.34821968 25.56640625 899.296875 C18.74223316 894.3948225 13.66742527 889.14266662 11 881 C10.80114067 879.46215448 10.63554609 877.91971394 10.5 876.375 C10.06172613 871.41913389 8.73136833 868.56905255 5 865.1875 C-3.08935117 861.98546516 -10.62524141 864.33524684 -18.53515625 866.96875 C-30.5496039 870.54463972 -41.08007462 871.11978578 -52.3125 865.4375 C-53.09238281 865.00308594 -53.87226562 864.56867187 -54.67578125 864.12109375 C-62.87015654 860.16851273 -74.87395726 860.8639581 -83.61328125 862.80078125 C-97.02017578 867.56440312 -108.67718446 877.44706142 -119.16796875 886.81640625 C-145.77763066 910.46858994 -180.01415752 924.3602082 -215.625 925.375 C-238.17769304 926.08945946 -256.08649468 936.79250511 -271.73828125 952.5703125 C-274.07411914 954.94559278 -274.07411914 954.94559278 -275.83984375 957.78515625 C-278 960 -278 960 -281.453125 960.48828125 C-283.33257813 960.40126953 -283.33257813 960.40126953 -285.25 960.3125 C-286.51328125 960.26738281 -287.7765625 960.22226563 -289.078125 960.17578125 C-290.04234375 960.11777344 -291.0065625 960.05976562 -292 960 C-285.74934727 942.41396666 -268.31262056 925.83163569 -252.125 917.1875 C-244.35209574 913.61346364 -236.04058517 911.18584561 -227.84375 908.7734375 C-218.79414187 906.03459144 -210.46261361 902.47807053 -202.0625 898.125 C-201.12792969 897.64345459 -200.19335938 897.16190918 -199.23046875 896.66577148 C-187.77702424 890.55882245 -178.4448277 882.92553667 -169.375 873.6875 C-168.4984375 872.81416016 -167.621875 871.94082031 -166.71875 871.04101562 C-139.5620512 843.66271172 -106.74875153 801.08462053 -106.68310547 760.8034668 C-106.89285559 746.49514249 -111.90555622 736.23615317 -121.5625 725.9375 C-131.81076084 716.05744015 -146.03652144 707.99667987 -160.4375 706.6875 C-172.14538439 706.9220842 -183.6026479 713.32184511 -194.01446533 718.13607788 C-198.43599609 720.17748911 -202.87200481 722.18688291 -207.30859375 724.1953125 C-208.20928589 724.60321518 -209.10997803 725.01111786 -210.03796387 725.43138123 C-234.91530479 736.6583454 -260.34524082 746.65966845 -285.77340698 756.55934143 C-289.93674245 758.18290696 -294.08263925 759.84122713 -298.21484375 761.54296875 C-310.85480785 766.69023018 -323.54502951 769.75630508 -337 772 C-338.15218018 772.19698486 -338.15218018 772.19698486 -339.32763672 772.39794922 C-349.61905018 774.0743892 -359.96537441 774.21884422 -370.375 774.3125 C-371.63521973 774.33030518 -372.89543945 774.34811035 -374.19384766 774.36645508 C-385.57391137 774.35670545 -397.46844887 772.74352886 -407 766 C-410.33705978 762.4218885 -412.26245807 758.94414275 -412.3125 754 C-412.209375 753.01 -412.10625 752.02 -412 751 C-394.00371711 742.22428452 -374.6522898 736.24873905 -355.4152832 730.85498047 C-286.00772713 711.91765899 -286.00772713 711.91765899 -230 669.5 C-228.55809085 665.89522713 -228.16864929 662.76257866 -229 659 C-231.62283887 653.42071556 -236.01001596 651.32207135 -241.5625 649.125 C-256.18309929 643.92426857 -270.92075913 644.47732793 -285 651 C-290.96492643 654.25997758 -296.47620101 658.23528708 -302.0390625 662.125 C-328.11633076 679.72553838 -359.14552134 690.29971455 -388.875 700 C-389.56312775 700.22592834 -390.25125549 700.45185669 -390.9602356 700.68463135 C-419.01096033 709.84320919 -419.01096033 709.84320919 -431.4375 709.5 C-432.18773437 709.48646484 -432.93796875 709.47292969 -433.7109375 709.45898438 C-444.37176539 709.06174382 -452.56046819 704.64351897 -460 697 C-462.10383778 694.06407549 -464.07411943 691.05505736 -466 688 C-465.20416504 687.99589111 -464.40833008 687.99178223 -463.58837891 687.98754883 C-459.93319812 687.95436817 -456.27963023 687.8836941 -452.625 687.8125 C-451.37332031 687.80669922 -450.12164063 687.80089844 -448.83203125 687.79492188 C-427.5101103 687.29257295 -413.31409733 670.78595743 -399.3125 656.375 C-391.20374349 648.05461824 -383.14779874 640.18638578 -374 633 C-372.90933738 632.07760759 -371.82467011 631.1480078 -370.75 630.20703125 C-351.79035601 613.69813669 -331.11195216 600.13866134 -308.96704102 588.34301758 C-301.54723787 584.3859697 -294.16542198 580.37891621 -286.875 576.1875 C-285.55302612 575.45200928 -285.55302612 575.45200928 -284.2043457 574.70166016 C-276.97237758 570.48738302 -270.36161172 564.86457457 -267 557 C-265.37752326 545.52946674 -269.4015553 535.21515076 -276.19140625 526.1328125 C-280.13991069 521.47647681 -283.75814718 518.26088623 -289.9609375 517.5390625 C-296.28974238 517.6225026 -300.55388549 520.8930995 -305.625 524.375 C-306.59139404 525.01260254 -307.55778809 525.65020508 -308.5534668 526.30712891 C-312.79263526 529.11349299 -316.98554828 531.98498794 -321.16796875 534.875 C-336.30087372 545.28618479 -352.54660344 554.75830212 -371.5 551.375 C-379.61921083 549.2897382 -388.19609688 545.11762761 -394 539 C-394.875 536.1875 -394.875 536.1875 -395 534 C-394.14535156 533.76023437 -393.29070312 533.52046875 -392.41015625 533.2734375 C-388.658058 531.87231032 -385.64513417 529.96574299 -382.4375 527.625 C-381.83470215 527.19018311 -381.2319043 526.75536621 -380.61083984 526.30737305 C-374.51951611 521.81313563 -369.0586042 516.72063121 -363.60229492 511.48974609 C-361.9212288 509.92676187 -360.18445826 508.44907798 -358.43359375 506.96484375 C-354.72210497 503.74154628 -351.27645403 500.30647665 -347.83984375 496.796875 C-347.2828479 496.22966232 -346.72585205 495.66244965 -346.15197754 495.07804871 C-343.83749245 492.71850318 -341.52472396 490.35760028 -339.2277832 487.98095703 C-328.80505836 477.21593992 -317.45298772 466.66540629 -303.5625 460.5625 C-302.86205566 460.2423291 -302.16161133 459.9221582 -301.43994141 459.59228516 C-296.05034788 457.22791965 -290.62646683 455.71622118 -284.89672852 454.43139648 C-274.34399525 452.03322662 -264.16772112 448.27574301 -256 441 C-255.26394531 440.38125 -254.52789063 439.7625 -253.76953125 439.125 C-248.6937515 434.77190246 -244.2734633 430.12994028 -240 425 C-239.22785156 424.10410156 -238.45570313 423.20820312 -237.66015625 422.28515625 C-233.21605352 417.07412054 -228.96413124 411.77450334 -225 406.1875 C-224.278125 405.17042969 -223.55625 404.15335938 -222.8125 403.10546875 C-218.93281776 396.45816836 -217.99508989 389.56748623 -219 382 C-220.3505317 377.81218213 -222.19471661 373.97899726 -224.1875 370.0625 C-224.67025391 369.04865234 -225.15300781 368.03480469 -225.65039062 366.99023438 C-229.08471951 359.96136232 -229.08471951 359.96136232 -235 355 C-239.7550821 353.44732013 -242.87768831 354.14915065 -247.44140625 355.76953125 C-262.42753484 360.92353288 -278.03094605 366.05656099 -294 366 C-295.46755055 366.04494226 -296.9349976 366.09334841 -298.40234375 366.14453125 C-299.93483533 366.18223271 -301.467391 366.21741917 -303 366.25 C-303.70713135 366.2718335 -304.4142627 366.29366699 -305.14282227 366.31616211 C-309.85156161 366.34371175 -312.98016163 365.42660975 -317 363 C-318 362 -318 362 -318.6875 358.0625 C-318.58084179 353.54730263 -317.21505267 351.48846 -314.125 348.25 C-302.04469035 337.27563419 -288.11577771 328.5471631 -274.11669922 320.26123047 C-272.09829137 319.05856669 -270.09588544 317.83349042 -268.09765625 316.59765625 C-260.70290145 312.04274152 -253.1770675 307.98987247 -245.3828125 304.1640625 C-217.72003463 292.11384639 -217.72003463 292.11384639 -199 270 C-198.6596875 268.39125 -198.6596875 268.39125 -198.3125 266.75 C-193.64264606 253.40756016 -180.63315634 244.37971609 -168.4453125 238.47412109 C-162.95635437 235.89147535 -158.86110021 234.87980563 -152.8125 234.625 C-146.25026179 234.27166687 -139.87630403 233.87630403 -135 229 C-133.5349735 221.80164863 -135.80609785 216.45582605 -139.296875 210.25 C-141.14159582 207.81293763 -142.11330249 206.92935046 -145 206 C-147.91355861 205.72130019 -147.91355861 205.72130019 -151 205.8125 C-152.03125 205.81894531 -153.0625 205.82539062 -154.125 205.83203125 C-156.86216338 205.89452143 -156.86216338 205.89452143 -158.890625 206.5078125 C-162.14977159 207.26828004 -165.4233169 207.10337607 -168.75 207.0625 C-169.44738281 207.05798828 -170.14476562 207.05347656 -170.86328125 207.04882812 C-172.57555803 207.0371002 -174.28779033 207.01916653 -176 207 C-176.66 205.68 -177.32 204.36 -178 203 C-169.30505868 190.17922378 -156.72197868 182.40003165 -144 174 C-143.06929687 173.37738281 -142.13859375 172.75476563 -141.1796875 172.11328125 C-136.1410689 168.90928162 -130.84487854 166.5992134 -125.375 164.25 C-107.14768091 156.38496865 -84.25624621 142.88436932 -73 126 C-72.60986284 124.0103005 -72.26797351 122.00980131 -72 120 C-78.06389006 119.71480024 -82.52820397 120.52977426 -88.1875 122.625 C-95.23323534 125.10511084 -102.31494248 127.33201383 -109.5 129.375 C-110.41418701 129.63748535 -111.32837402 129.8999707 -112.27026367 130.17041016 C-118.73763676 132 -118.73763676 132 -121 132 C-116.46688961 121.91054981 -107.00755876 113.68579817 -99.24414062 105.98339844 C-97.62653713 104.37652693 -96.01993087 102.75921506 -94.4140625 101.140625 C-87.93444698 94.65166304 -81.23864127 88.64878762 -74 83 C-73.24928223 82.4112207 -72.49856445 81.82244141 -71.72509766 81.21582031 C-69.65974542 79.6099084 -67.58267996 78.02085297 -65.5 76.4375 C-64.76716797 75.87579102 -64.03433594 75.31408203 -63.27929688 74.73535156 C-59.42144236 71.79012606 -55.51745632 68.97525619 -51.5 66.25 C-28.26035779 49.46778509 -13.41220258 24.69637301 0 0 Z " fill="#008C3E" transform="translate(1426,480)"/>
<path d="M0 0 C10.46598404 5.37442424 21.75439794 4.4151728 32.62890625 0.96875 C33.72074219 0.6078125 34.81257813 0.246875 35.9375 -0.125 C43.19813078 -2.44074075 49.82178093 -3.7131592 56.875 -0.3125 C60.78291635 3.30232263 62.38718604 5.90344032 62.75 11.1875 C63.43940575 18.87309739 66.81263214 24.908471 72.4375 30.125 C76.79542921 33.72659439 81.4620658 36.79525492 86.19921875 39.87109375 C91.80799948 43.63097751 97.08494355 47.80882798 102.375 52 C103.29023437 52.71929688 104.20546875 53.43859375 105.1484375 54.1796875 C111.19690068 59.02200553 116.88148427 64.16820206 122.42944336 69.5715332 C127.55380508 74.46556984 132.20117259 77.14597293 139.375 78 C137.39687829 66.93488166 132.69109329 57.69873302 126.6484375 48.3203125 C124.6275176 44.63802287 124.96693298 42.14868142 125.375 38 C136.14606806 30.81928796 158.36117624 36.69356664 170.75 38.1875 C171.59968353 38.28555939 172.44936707 38.38361877 173.32479858 38.48464966 C196.58274306 41.20988578 213.99929032 46.85879807 229.52734375 64.93359375 C232.28324096 68.01577055 235.24399885 70.87963968 238.19140625 73.77734375 C240.17966079 75.80116635 241.99952565 77.88266496 243.8125 80.0625 C247.17996314 84.00566527 251.03234205 87.09327582 255.140625 90.23828125 C257.375 92 257.375 92 260.375 95 C99.665 95 -61.045 95 -226.625 95 C-213.56722467 77.58963289 -196.738702 63.89197153 -174.625 60 C-171.33494006 59.71520647 -168.05058157 59.63870036 -164.75 59.5625 C-130.4115281 58.19639084 -96.07146309 46.0693761 -70.5859375 22.59375 C-52.3361778 6.60715311 -25.18321353 -15.27702053 0 0 Z " fill="#FEFEFE" transform="translate(1374.625,1345)"/>
<path d="M0 0 C2 3 2 3 1.9375 5.8125 C-0.52952625 14.20038925 -7.76345809 17.88255697 -14.99267578 21.91162109 C-32.59534903 31.45585818 -50.89293664 38.4731786 -71 40 C-72.0415625 40.09410156 -73.083125 40.18820312 -74.15625 40.28515625 C-81.04354986 40.64618407 -81.04354986 40.64618407 -85.05859375 37.93359375 C-88.3543957 34.95984686 -90.14945555 31.61228057 -92 27.625 C-92.33249756 26.93180664 -92.66499512 26.23861328 -93.00756836 25.52441406 C-102.08953998 6.31246739 -102.08953998 6.31246739 -101.91015625 1.6796875 C-101 0 -101 0 -99.1796875 -0.9765625 C-98.41914062 -1.19054687 -97.65859375 -1.40453125 -96.875 -1.625 C-96.12992188 -1.84414063 -95.38484375 -2.06328125 -94.6171875 -2.2890625 C-93.75351563 -2.52367187 -92.88984375 -2.75828125 -92 -3 C-91.00226563 -3.32484375 -90.00453125 -3.6496875 -88.9765625 -3.984375 C-64.65047422 -10.88340245 -21.87728096 -14.32961903 0 0 Z " fill="#FCFEFD" transform="translate(1268,977)"/>
<path d="M0 0 C6.85290465 3.17360979 16.72778473 7.86181946 20.2578125 14.921875 C20.83544489 20.77568622 19.78391007 23.43517787 16.1328125 27.984375 C15.48022461 28.79986816 15.48022461 28.79986816 14.81445312 29.63183594 C0.87922297 46.61116976 0.87922297 46.61116976 -5.7421875 49.921875 C-20.07486631 49.82880566 -37.601139 48.67525453 -48.3671875 38.421875 C-49.7421875 35.921875 -49.7421875 35.921875 -49.7421875 33.484375 C-43.93879709 18.61318708 -25.85459103 6.8313712 -12.08203125 -0.10546875 C-7.46670905 -2.02402506 -4.62039093 -1.81656396 0 0 Z " fill="#FBFDFC" transform="translate(1722.7421875,1047.078125)"/>
<path d="M0 0 C2.91081257 3.92354605 3.65140868 6.87559378 3.4765625 11.66796875 C2.59027762 16.00495296 -0.05964098 18.81841418 -3 22 C-3.52980469 22.6084375 -4.05960938 23.216875 -4.60546875 23.84375 C-12.25668246 32.13105036 -22.72658626 37.84912742 -34.0859375 38.43359375 C-35.84880162 38.45713592 -37.61209712 38.45793526 -39.375 38.4375 C-40.29893555 38.42920166 -41.22287109 38.42090332 -42.17480469 38.41235352 C-53.50005038 38.13191696 -61.71279991 34.85007305 -70 27 C-72.16395553 23.7540667 -72.52476855 22.76564682 -72 19 C-57.866503 0.70314729 -21.27328229 -14.50451065 0 0 Z " fill="#FCFDFC" transform="translate(1653,1033)"/>
<path d="M0 0 C3.37734395 2.64594463 4.66719982 5.36940792 5.34375 9.5703125 C5.49466742 18.41407322 4.13984194 25.2044132 -1.16015625 32.44140625 C-7.20070639 37.06821061 -15.85435013 36.34494535 -23.16015625 35.44140625 C-29.29182182 34.25386611 -35.23531654 32.39395897 -41.16015625 30.44140625 C-42.28550781 30.07273437 -43.41085937 29.7040625 -44.5703125 29.32421875 C-55.84929811 25.40769347 -55.84929811 25.40769347 -59.16015625 20.44140625 C-59.9068564 15.77453029 -59.16455065 12.92040724 -56.72265625 9.00390625 C-41.92315786 -11.30641238 -20.96332473 -11.20386257 0 0 Z " fill="#FCFDFC" transform="translate(1582.16015625,801.55859375)"/>
<path d="M0 0 C8.11694418 5.52008966 12.36081489 13.23385896 17.13232422 21.59179688 C18.19752416 23.45507084 19.2770617 25.30907189 20.36328125 27.16015625 C21.99488665 29.94212587 23.61806108 32.72866123 25.234375 35.51953125 C21.28876128 40.2487686 14.85193944 41.53572849 9.234375 43.51953125 C7.86732422 44.00873047 7.86732422 44.00873047 6.47265625 44.5078125 C1.17620305 46.26221065 -4.21645114 47.87151179 -9.765625 46.51953125 C-19.51505718 40.98606974 -26.02443891 29.28419103 -31.328125 19.70703125 C-31.67488281 19.09730469 -32.02164062 18.48757813 -32.37890625 17.859375 C-34.63860311 13.59929076 -35.25949112 10.30712756 -34.765625 5.51953125 C-27.08951815 -5.48288856 -10.82570318 -6.25753225 0 0 Z " fill="#FBFDFC" transform="translate(1246.765625,812.48046875)"/>
<path d="M0 0 C2.5 1.5 2.5 1.5 4 4 C5.45534352 11.85885499 1.88629226 19.27955802 -2 26 C-11.27890851 39.34055528 -25.95296793 45.98432264 -41 51 C-43.01829161 51.11904875 -45.04073771 51.17521712 -47.0625 51.1875 C-48.12597656 51.20167969 -49.18945312 51.21585938 -50.28515625 51.23046875 C-53 51 -53 51 -55 49 C-55.77515994 42.94854134 -54.85848683 39.8818079 -51.19116211 35.06445312 C-50.65370361 34.40380859 -50.11624512 33.74316406 -49.5625 33.0625 C-49.01408447 32.36447266 -48.46566895 31.66644531 -47.90063477 30.94726562 C-37.17715256 17.4979515 -18.73105664 -1.78391016 0 0 Z " fill="#FBFDFC" transform="translate(1363,715)"/>
<path d="M0 0 C3.10739028 1.71863473 5.38713667 3.77427333 7 7 C7.52898964 13.70392637 7.91135066 20.30060333 4 26 C-3.1233097 31.96783522 -11.10246873 34.76438293 -20 37 C-20.7734375 37.22558594 -21.546875 37.45117188 -22.34375 37.68359375 C-28.31928114 39.20903744 -34.36672764 39.23681396 -40.5 39.3125 C-41.3979126 39.33022461 -42.2958252 39.34794922 -43.22094727 39.36621094 C-44.48829712 39.36476074 -44.48829712 39.36476074 -45.78125 39.36328125 C-46.54501953 39.36626221 -47.30878906 39.36924316 -48.09570312 39.37231445 C-49.03833008 39.1880188 -49.03833008 39.1880188 -50 39 C-52.07303523 35.89044716 -52.61210778 33.96536711 -52.49609375 30.24609375 C-50.82919869 22.69912794 -43.87923197 17.91628892 -37.86279297 13.80834961 C-32.92068165 10.68655032 -27.75906551 8.102788 -22.5 5.5625 C-21.43652344 5.02173828 -20.37304688 4.48097656 -19.27734375 3.92382812 C-12.91701108 0.83731086 -7.13835566 -1.45594185 0 0 Z " fill="#FBFDFC" transform="translate(1436,682)"/>
<path d="M0 0 C7.97669317 0.15303008 14.30747446 2.78619225 19.875 8.5625 C28.47660682 20.09647278 27.78072467 34.64488211 25.9921875 48.3203125 C25.0461244 52.74614792 24.09083825 55.69895219 21.25 59.25 C17.38125516 60.92059436 15.5037925 60.7720975 11.5 59.4375 C-1.50661266 48.99423436 -5.47337901 26.12321695 -7.5 10.4375 C-7.67818855 7.7089495 -7.64961153 5.18331162 -7.5 2.4375 C-4.89154077 -0.17095923 -3.6378953 0.07969616 0 0 Z " fill="#FAFDFB" transform="translate(1292.5,1071.5625)"/>
<path d="M0 0 C1.26521484 -0.00386719 2.53042969 -0.00773438 3.83398438 -0.01171875 C5.8052832 0.00568359 5.8052832 0.00568359 7.81640625 0.0234375 C9.7819043 0.00603516 9.7819043 0.00603516 11.78710938 -0.01171875 C13.68686523 -0.00591797 13.68686523 -0.00591797 15.625 0 C17.35254517 0.00507568 17.35254517 0.00507568 19.11499023 0.01025391 C22.95879303 0.46740451 26.56738608 1.58691733 29.37890625 4.3984375 C30.15954459 8.38836678 29.95492621 10.39499847 27.91015625 13.95703125 C8.457675 41.16734728 8.457675 41.16734728 -1.49609375 42.8984375 C-5.04927125 42.3299291 -6.28390903 41.3106696 -8.39453125 38.4375 C-13.76263751 29.51345074 -18.38415351 18.99478647 -16.62109375 8.3984375 C-12.22688274 2.49763985 -7.26715002 0.02137247 0 0 Z " fill="#FBFDFC" transform="translate(1294.62109375,798.6015625)"/>
<path d="M0 0 C6.83547912 1.47431903 9.95665127 4.0820361 14.0625 9.9453125 C16.09047231 13.27347673 18.06799066 16.61508848 20 20 C20.53625 20.92425781 21.0725 21.84851563 21.625 22.80078125 C25.31607955 29.87884573 26.41595807 37.09016527 25 45 C22.83020432 48.3487333 21.81070715 49.72976428 18 51 C9.68743634 52.41490445 3.36610577 47.03288419 -3.1875 42.48046875 C-8.34148101 38.44836723 -11.30115128 33.94393753 -12.44921875 27.46484375 C-13.06898368 17.89291869 -8.69161843 9.91438748 -2.625 2.75 C-1.325625 1.38875 -1.325625 1.38875 0 0 Z " fill="#FAFDFB" transform="translate(1446,919)"/>
<path d="M0 0 C4.47095659 2.84177274 8.12132215 5.93362047 10.22265625 10.8671875 C11.08408948 17.28713197 11.00282632 23.5123213 7.59765625 29.17578125 C4.20171153 33.35317916 0.66070557 35.49689237 -4.68359375 36.30859375 C-14.51894117 36.69356316 -19.84142142 33.65755933 -27.27734375 27.5546875 C-31.63338441 23.45330768 -31.63338441 23.45330768 -32.65234375 19.3046875 C-30.53676771 10.9934959 -26.28310791 4.42622811 -18.9765625 -0.296875 C-13.17904375 -2.50054998 -5.70404128 -2.32654286 0 0 Z " fill="#FBFDFC" transform="translate(1637.77734375,872.1328125)"/>
<path d="M0 0 C11.70710664 0.16582304 25.78437442 2.58541628 35.6875 9.1875 C34.10697361 13.6316683 31.80887337 17.52332102 29.3125 21.5 C28.8798584 22.19061523 28.4472168 22.88123047 28.00146484 23.59277344 C24.64389056 28.86436754 21.05910024 33.93604927 17.3125 38.9375 C16.81314941 39.60434814 16.31379883 40.27119629 15.79931641 40.95825195 C13.2804914 44.26585572 10.72893052 47.33345619 7.6875 50.1875 C-4.92421895 13.41835322 -4.92421895 13.41835322 -5.3125 1.1875 C-3.73754921 -0.38745079 -2.18569477 0.01742978 0 0 Z " fill="#FAFDFB" transform="translate(1413.3125,1080.8125)"/>
<path d="M0 0 C1.794375 -0.04253906 1.794375 -0.04253906 3.625 -0.0859375 C7.62320106 0.46011311 9.25277282 1.45383292 12 4.375 C14.05149036 10.80979895 10.93655687 18.66553339 8 24.375 C4.7856302 28.4138047 0.01017281 31.21606323 -5 32.375 C-16.29215524 33.50697644 -16.29215524 33.50697644 -20.36328125 30.80859375 C-22.62377413 27.44752677 -22.53212404 25.02353658 -22.5 21 C-22.5103125 19.71351563 -22.520625 18.42703125 -22.53125 17.1015625 C-21.77237741 11.77829447 -19.22338247 7.99058914 -15.0625 4.625 C-10.05420752 0.94543818 -6.20433463 0.06685705 0 0 Z " fill="#F9FCFA" transform="translate(1537,681.625)"/>
<path d="M0 0 C2.9228334 1.83100932 5.43323854 3.86647708 7 7 C7.65731979 14.60766844 7.94665552 21.80195841 3 28 C-2.74550921 33.94847557 -11.37832253 36.02917709 -19.4375 36.375 C-23 36 -23 36 -25.5625 35.0625 C-27.61845846 32.11264656 -27.36390862 30.07766455 -26.79296875 26.58984375 C-23.77968161 16.74841826 -11.70424671 -1.87267947 0 0 Z " fill="#F8FCFA" transform="translate(1495,776)"/>
<path d="M0 0 C2 3 2 3 1.9375 6.375 C0.23809294 12.94604063 -4.71644648 15.6527669 -10.23046875 18.984375 C-15.72859009 22.14002963 -21.82485918 22.04403112 -28 21 C-35.19803295 18.90699168 -42.12235897 15.96134329 -49 13 C-49 12.34 -49 11.68 -49 11 C-12.52174828 -6.89973885 -12.52174828 -6.89973885 0 0 Z " fill="#F8FCFA" transform="translate(1450,782)"/>
<path d="M0 0 C3.56345443 2.30475037 5.92646421 4.19829007 8.296875 7.75390625 C8.703125 10.09375 8.703125 10.09375 8.796875 12.69140625 C8.8484375 13.54605469 8.9 14.40070312 8.953125 15.28125 C8.296875 17.75390625 8.296875 17.75390625 5.89453125 20.046875 C1.17335456 22.28699901 -2.61463936 22.27209385 -7.765625 22.12890625 C-8.65056641 22.12761719 -9.53550781 22.12632812 -10.44726562 22.125 C-16.0397834 22.04948213 -20.56124998 21.89578127 -24.703125 17.75390625 C-25.3083887 13.31268558 -25.19635895 9.08853928 -23.640625 4.87890625 C-17.4629634 -1.89659357 -8.48629744 -3.91203596 0 0 Z " fill="#F8FCFA" transform="translate(1486.703125,679.24609375)"/>
<path d="M0 0 C7.61745732 -0.71562751 12.86054275 0.31339141 19 5 C23.66638158 9.39188854 25.73795938 12.63642937 26.23828125 19.05859375 C26.26277344 20.17363281 26.28726562 21.28867188 26.3125 22.4375 C26.34988281 23.54996094 26.38726563 24.66242188 26.42578125 25.80859375 C25.90841587 29.68646083 24.7918343 31.30288865 22 34 C18.6875 34.375 18.6875 34.375 15 33 C7.48482599 26.03471677 1.72718514 14.7712714 -1 5 C-0.625 2.125 -0.625 2.125 0 0 Z " fill="#F8FCF9" transform="translate(1352,1092)"/>
<path d="M0 0 C4.23898538 0.96766235 7.8882392 1.8882392 11 5 C10.21484028 12.78616718 1.77585495 19.52216359 -3.79296875 24.265625 C-11.26444768 30.13701729 -11.26444768 30.13701729 -15.375 29.8125 C-17 29 -17 29 -18 28 C-18.30734597 24.78028604 -18.27847292 21.54507284 -18.3125 18.3125 C-18.34150391 17.41337891 -18.37050781 16.51425781 -18.40039062 15.58789062 C-18.45488677 9.87417893 -17.9137387 6.47788122 -14 2 C-9.51062081 -0.99291946 -5.26601438 -0.46980421 0 0 Z " fill="#F8FCFA" transform="translate(1325,662)"/>
<path d="M0 0 C9.22463971 0.53491994 17.7313093 5.96915798 24.30078125 12.19140625 C27.27787781 15.60417547 28.52946809 17.98404846 28.73828125 22.44140625 C28.59390625 23.67890625 28.44953125 24.91640625 28.30078125 26.19140625 C25.2179183 28.24664822 23.35785124 28.79684017 19.67578125 28.6953125 C10.06481738 26.65614418 2.16326004 17.99024354 -3.76171875 10.62890625 C-5.077229 7.20857961 -4.51062123 4.70748368 -3.69921875 1.19140625 C-2.69921875 0.19140625 -2.69921875 0.19140625 0 0 Z " fill="#F8FCF9" transform="translate(1329.69921875,915.80859375)"/>
<path d="M0 0 C2.91707514 0.77863901 4.29888182 2.10147581 6.01953125 4.5390625 C8.63808179 9.77616357 7.12214082 15.99153771 5.39453125 21.2890625 C3.43099536 26.22912452 1.65557784 28.88989302 -2.98046875 31.5390625 C-5.60546875 31.6640625 -5.60546875 31.6640625 -7.98046875 30.5390625 C-12.50025739 25.89013704 -14.28199092 21.14998452 -14.54296875 14.7265625 C-14.43130168 9.08039633 -13.16760577 5.86187911 -9.12109375 1.9140625 C-6.02631228 -0.07382633 -3.62164356 -0.33316653 0 0 Z " fill="#F7FCF9" transform="translate(1405.98046875,902.4609375)"/>
<path d="M0 0 C3.75962999 0.10443417 4.92999018 0.92999018 7.625 3.625 C12.95823661 10.75841427 13.92450059 17.18722818 13 26 C11.98046875 28.8671875 11.98046875 28.8671875 11 31 C6.98791373 31.47762932 5.28450965 31.17851586 1.8125 29 C-3.1011433 24.38298084 -4.16126846 18.9294338 -4.375 12.375 C-4.24991766 7.63503747 -3.49894715 3.49894715 0 0 Z " fill="#F5FBF7" transform="translate(1488,943)"/>
</svg>
