<svg xmlns:dc="http://purl.org/dc/elements/1.1/" xmlns:cc="http://creativecommons.org/ns#" xmlns:rdf="http://www.w3.org/1999/02/22-rdf-syntax-ns#" xmlns:svg="http://www.w3.org/2000/svg" xmlns="http://www.w3.org/2000/svg" version="1" width="400" height="500" id="svg2">
  <metadata id="metadata51">
    <rdf:RDF>
      <cc:Work rdf:about="">
        <dc:format>
          
          image/svg+xml
        
        </dc:format>
        <dc:type rdf:resource="http://purl.org/dc/dcmitype/StillImage"/>
      </cc:Work>
    </rdf:RDF>
  </metadata>
  <defs id="defs4">
    <clipPath id="clipPath2516">
      <path d="M0 0 0 0 0 0 0 0Z" id="path2518"/>
    </clipPath>
    <clipPath id="clipPath2500">
      <path d="M0 0 0 0 0 0 0 0Z" id="path2502"/>
    </clipPath>
  </defs>
  <path id="path2418" d="m2.91 1.45 393.73 0 0 301.05 0 0c0 0.03 0 0.06 0 0.09 0 108.73-88.14 196.86-196.86 196.86-108.72 0-196.87-88.14-196.87-196.86 0-0.03 0-0.06 0-0.09l0 0 0-301.05z" style="fill-rule:nonzero;fill:#e00e00"/>
  <path d="m2.91 1.45 393.73 0 0 301.05 0 0c0 0.03 0 0.06 0 0.09 0 108.73-88.14 196.86-196.86 196.86-108.72 0-196.87-88.14-196.87-196.86 0-0.03 0-0.06 0-0.09l0 0 0-301.05z" id="path4300" style="fill:none;stroke:#000"/>
  <path id="path4011" d="m132.72 73.74c-6.96 0.06-19 6.78-22.14 19.5-1.07 8.8 1.96 11.52 5.99 14.84 2.83 2.34 9.08 5.9 4 9.4-3.74 0.56-4.04-0.11-6.68-6.46-2.61-6.26-11.54-11.37-17.96-9.96-14.69 3.24-23.93 11.98-24.32 19.91-0.27 5.55 5.69 13.69 14.53 20.73 5.38 4.29 12.44 3.12 17.14 0.49 3.57-1.99 5.8-3 7.43 0.07 0.02 5.49-5.38 2.74-8.73 4.31-11.32 5.32-13.16 11.2-13.88 19.1-0.54 5.95 3.14 15.47 5.55 17.47 3.51 2.92 13.89 4.42 20.24 3.26 12.12-2.2 17.62-10.73 16.65-17.14l-1.31-8.65c-0.5-3.32 1.66-4.72 3.49-5.06 1.84 0.34 3.99 1.74 3.49 5.06l-1.31 8.65c-0.97 6.41 4.53 14.94 16.65 17.14 6.35 1.15 16.73-0.35 20.24-3.26 2.41-2 6.09-11.52 5.55-17.47-0.72-7.9-2.55-13.78-13.88-19.1-3.35-1.57-8.76 1.18-8.72-4.31 1.63-3.07 3.87-2.06 7.44-0.07 4.7 2.63 11.76 3.8 17.14-0.49 8.84-7.04 14.8-15.19 14.53-20.73-0.39-7.93-9.64-16.68-24.32-19.91-6.42-1.42-15.34 3.69-17.96 9.96-2.65 6.35-2.94 7.02-6.69 6.46-5.09-3.5 1.15-7.06 3.99-9.4 4.03-3.32 7.06-6.04 5.99-14.84-3.13-12.72-15.17-19.44-22.14-19.5M266.82 73.74 266.82 73.74" style="fill:#fff;stroke:#000"/>
  <path id="path4043" d="m266.82 73.74c-6.96 0.06-19 6.78-22.14 19.5-1.07 8.8 1.96 11.52 5.99 14.84 2.83 2.34 9.08 5.9 4 9.4-3.74 0.56-4.04-0.11-6.68-6.46-2.61-6.26-11.54-11.37-17.96-9.96-14.69 3.24-23.93 11.98-24.32 19.91-0.27 5.55 5.69 13.69 14.53 20.73 5.38 4.29 12.44 3.12 17.14 0.49 3.57-1.99 5.8-3 7.43 0.07 0.02 5.49-5.38 2.74-8.73 4.31-11.32 5.32-13.16 11.2-13.88 19.1-0.54 5.95 3.14 15.47 5.55 17.47 3.51 2.92 13.89 4.42 20.24 3.26 12.12-2.2 17.62-10.73 16.65-17.14l-1.31-8.65c-0.5-3.32 1.66-4.72 3.49-5.06 1.84 0.34 3.99 1.74 3.49 5.06l-1.31 8.65c-0.97 6.41 4.53 14.94 16.65 17.14 6.35 1.15 16.73-0.35 20.24-3.26 2.41-2 6.09-11.52 5.55-17.47-0.72-7.9-2.55-13.78-13.88-19.1-3.35-1.57-8.76 1.18-8.72-4.31 1.63-3.07 3.87-2.06 7.44-0.07 4.7 2.63 11.76 3.8 17.14-0.49 8.84-7.04 14.8-15.19 14.53-20.73-0.39-7.93-9.64-16.68-24.32-19.91-6.42-1.42-15.34 3.69-17.96 9.96-2.65 6.35-2.94 7.02-6.69 6.46-5.09-3.5 1.15-7.06 3.99-9.4 4.03-3.32 7.06-6.04 5.99-14.84-3.13-12.72-15.17-19.44-22.14-19.5" style="fill:#fff;stroke:#000"/>
  <path id="path4045" d="m199.78 269.97c-6.96 0.06-19 6.78-22.14 19.5-1.07 8.8 1.96 11.52 5.99 14.84 2.83 2.34 9.08 5.9 4 9.4-3.74 0.56-4.04-0.11-6.68-6.46-2.61-6.26-11.54-11.37-17.96-9.96-14.69 3.24-23.93 11.98-24.32 19.91-0.27 5.55 5.69 13.69 14.53 20.73 5.38 4.29 12.44 3.12 17.14 0.49 3.57-1.99 5.8-3 7.43 0.07 0.02 5.49-5.38 2.74-8.73 4.31-11.32 5.32-13.16 11.2-13.88 19.1-0.54 5.95 3.14 15.47 5.55 17.47 3.51 2.92 13.89 4.42 20.24 3.26 12.12-2.2 17.62-10.73 16.65-17.14l-1.31-8.65c-0.5-3.32 1.66-4.72 3.49-5.06 1.84 0.34 3.99 1.74 3.49 5.06l-1.31 8.65c-0.97 6.41 4.53 14.94 16.65 17.14 6.35 1.15 16.73-0.35 20.24-3.26 2.41-2 6.09-11.52 5.55-17.47-0.72-7.9-2.55-13.78-13.88-19.1-3.35-1.57-8.76 1.18-8.72-4.31 1.63-3.07 3.87-2.06 7.44-0.07 4.7 2.63 11.76 3.8 17.14-0.49 8.84-7.04 14.8-15.19 14.53-20.73-0.39-7.93-9.64-16.68-24.32-19.91-6.42-1.42-15.34 3.69-17.96 9.96-2.65 6.35-2.94 7.02-6.69 6.46-5.09-3.5 1.15-7.06 3.99-9.4 4.03-3.32 7.06-6.04 5.99-14.84-3.13-12.72-15.17-19.44-22.14-19.5" style="fill:#fff;stroke:#000"/>
  <path id="path4047" d="m302.92 194.42c-6.96 0.06-19 6.78-22.14 19.5-1.07 8.8 1.96 11.52 5.99 14.84 2.83 2.34 9.08 5.9 4 9.4-3.74 0.56-4.04-0.11-6.68-6.46-2.61-6.26-11.54-11.37-17.96-9.96-14.69 3.24-23.93 11.98-24.32 19.91-0.27 5.55 5.69 13.69 14.53 20.73 5.38 4.29 12.44 3.12 17.14 0.49 3.57-1.99 5.8-3 7.43 0.07 0.02 5.49-5.38 2.74-8.73 4.31-11.32 5.32-13.16 11.2-13.88 19.1-0.54 5.95 3.14 15.47 5.55 17.47 3.51 2.92 13.89 4.42 20.24 3.26 12.12-2.2 17.62-10.73 16.65-17.14l-1.31-8.65c-0.5-3.32 1.66-4.72 3.49-5.06 1.84 0.34 3.99 1.74 3.49 5.06l-1.31 8.65c-0.97 6.41 4.53 14.94 16.65 17.14 6.35 1.15 16.73-0.35 20.24-3.26 2.41-2 6.09-11.52 5.55-17.47-0.72-7.9-2.55-13.78-13.88-19.1-3.35-1.57-8.76 1.18-8.72-4.31 1.63-3.07 3.87-2.06 7.44-0.07 4.7 2.63 11.76 3.8 17.14-0.49 8.84-7.04 14.8-15.19 14.53-20.73-0.39-7.93-9.64-16.68-24.32-19.91-6.42-1.42-15.34 3.69-17.96 9.96-2.65 6.35-2.94 7.02-6.69 6.46-5.09-3.5 1.15-7.06 3.99-9.4 4.03-3.32 7.06-6.04 5.99-14.84-3.13-12.72-15.17-19.44-22.14-19.5" style="fill:#fff;stroke:#000"/>
  <path id="path4053" d="m96.64 194.42c-6.96 0.06-19 6.78-22.14 19.5-1.07 8.8 1.96 11.52 5.99 14.84 2.83 2.34 9.08 5.9 4 9.4-3.74 0.56-4.04-0.11-6.68-6.46-2.61-6.26-11.54-11.37-17.96-9.96-14.69 3.24-23.93 11.98-24.32 19.91-0.27 5.55 5.69 13.69 14.53 20.73 5.38 4.29 12.44 3.12 17.14 0.49 3.57-1.99 5.8-3 7.43 0.07 0.02 5.49-5.38 2.74-8.73 4.31-11.32 5.32-13.16 11.2-13.88 19.1-0.54 5.95 3.14 15.47 5.55 17.47 3.51 2.92 13.89 4.42 20.24 3.26 12.12-2.2 17.62-10.73 16.65-17.14l-1.31-8.65c-0.5-3.32 1.66-4.72 3.49-5.06 1.84 0.34 3.99 1.74 3.49 5.06l-1.31 8.65c-0.97 6.41 4.53 14.94 16.65 17.14 6.35 1.15 16.73-0.35 20.24-3.26 2.41-2 6.09-11.52 5.55-17.47-0.72-7.9-2.55-13.78-13.88-19.1-3.35-1.57-8.76 1.18-8.72-4.31 1.63-3.07 3.87-2.06 7.44-0.07 4.7 2.63 11.76 3.8 17.14-0.49 8.84-7.04 14.8-15.19 14.53-20.73-0.39-7.93-9.64-16.68-24.32-19.91-6.42-1.42-15.34 3.69-17.96 9.96-2.65 6.35-2.94 7.02-6.69 6.46-5.09-3.5 1.15-7.06 3.99-9.4 4.03-3.32 7.06-6.04 5.99-14.84-3.13-12.72-15.17-19.44-22.14-19.5" style="fill:#fff;stroke:#000"/>
  <rect transform="scale(-1,1)" id="rect4067" y="222.91" x="-203.39" height="50.04" width="7.22" fill="#fff"/>
  <rect id="rect4075" transform="matrix(-0.35217241,0.93593514,0.93593514,0.35217241,0,0)" y="268.5" x="129.83" height="45.71" width="7.22" fill="#fff"/>
  <rect id="rect4077" transform="matrix(0.35217241,0.93593514,-0.93593514,0.35217241,0,0)" y="-105.61" x="270.6" height="45.71" width="7.22" fill="#fff"/>
  <rect id="rect4079" transform="matrix(0.78539556,0.6189942,0.6189942,-0.78539556,0,0)" y="-42.47" x="287.98" height="45.71" width="7.22" fill="#fff"/>
  <rect id="rect4081" transform="matrix(-0.78539556,0.6189942,-0.6189942,-0.78539556,0,0)" y="-289.87" x="-25.9" height="45.71" width="7.22" fill="#fff"/>
  <path id="path4139" d="m224.51 202.74c2.58-6.16 7.69-9.86 15-11.94 7.29-2.08 20.05-0.34 29.37 6.71-4.01 10.98-13.79 19.36-21.04 21.56-7.27 2.21-13.57 1.88-19.08-1.91-2.47-1.69-3.23-2.58-4.4-6.54-1.17-3.96-1-5.12 0.15-7.88z" style="fill:#fff;stroke:#000"/>
  <rect id="rect4091" transform="matrix(0.1266428,0.99194839,0.99194839,-0.1266428,0,0)" y="173.29" x="235.3" height="28.21" width="8.25" fill="#fff"/>
  <path id="path4135" d="m210.61 248.97c-1.78 6.59 0.02 12.79 4.6 19.06 4.57 6.25 15.93 12.86 27.86 13.02 3.65-11.38 1.01-24.29-3.45-30.62-4.47-6.35-9.76-10.03-16.56-10.44-3.05-0.18-4.22 0.06-7.64 2.52-3.42 2.46-4.01 3.5-4.81 6.46z" style="fill:#fff;stroke:#000"/>
  <rect id="rect4101" transform="matrix(-0.83958652,0.54322599,0.54322599,0.83958652,0,0)" y="293.85" x="-53.18" height="28.21" width="8.25" fill="#fff"/>
  <path id="path4129" d="m188.95 248.97c1.78 6.59-0.02 12.79-4.6 19.06-4.57 6.25-15.93 12.86-27.86 13.02-3.65-11.38-1.01-24.29 3.45-30.62 4.47-6.35 9.76-10.03 16.56-10.44 3.05-0.18 4.22 0.06 7.64 2.52 3.42 2.46 4.01 3.5 4.81 6.46z" style="fill:#fff;stroke:#000"/>
  <rect id="rect4105" transform="matrix(0.83958652,0.54322599,-0.54322599,0.83958652,0,0)" y="76.8" x="282.28" height="28.21" width="8.25" fill="#fff"/>
  <path id="path4107" d="m192.26 193.13c-5.18-4.32-7.29-10.41-7.22-18.2 0.07-7.76 5.34-19.81 14.74-26.93 9.4 7.12 14.67 19.16 14.74 26.93 0.07 7.79-2.04 13.88-7.22 18.2-2.32 1.93-3.39 2.43-7.52 2.43-4.13 0-5.2-0.5-7.52-2.43z" style="fill:#fff;stroke:#000"/>
  <rect transform="scale(-1,1)" id="rect4087" y="194.42" x="-203.91" height="28.21" width="8.25" fill="#fff"/>
  <path id="path4119" d="m212.07 186.97c-8.13-4.22-16.47-4.5-24.58 0M169 242.23 169 242.23" style="fill:none;stroke-miterlimit:4;stroke:#000"/>
  <path id="path4131" d="m169 242.23c4.2 8.31 10.91 13.48 20.28 14.58" style="fill:none;stroke-miterlimit:4;stroke:#000"/>
  <path id="path4137" d="m230.56 242.23c-4.2 8.31-10.91 13.48-20.28 14.58" style="fill:none;stroke-miterlimit:4;stroke:#000"/>
  <path id="path4141" d="m235.09 220.31c1.76-9.02-0.34-17.12-6.97-23.65" style="fill:none;stroke-miterlimit:4;stroke:#000"/>
  <path id="path4143" d="m175.05 202.74c-2.58-6.16-7.69-9.86-15-11.94-7.29-2.08-20.05-0.34-29.37 6.71 4.01 10.98 13.79 19.36 21.04 21.56 7.27 2.21 13.57 1.88 19.08-1.91 2.47-1.69 3.23-2.58 4.4-6.54 1.17-3.96 1-5.12-0.15-7.88z" style="fill:#fff;stroke:#000"/>
  <rect id="rect4099" transform="matrix(-0.1266428,0.99194839,-0.99194839,-0.1266428,0,0)" y="-223.04" x="184.71" height="28.21" width="8.25" fill="#fff"/>
  <path id="path4145" d="m164.47 220.31c-1.76-9.02 0.34-17.12 6.97-23.65M266.82 130.37l0-17.63M266.82 130.37l0-17.63" style="fill:none;stroke-miterlimit:4;stroke:#000"/>
  <path id="path4153" d="m266.82 130.37 0-17.63" style="fill:none;stroke-miterlimit:4;stroke:#000"/>
  <path id="path4157" d="m263.71 109.76a3.1 3.06 0 0 0 6.2 0 3.1 3.06 0 1 0-6.2 0z" style="fill:none;stroke-miterlimit:4;stroke-width:1.03;stroke:#000"/>
  <path id="path4159" d="m269.9 132.53 16.91-4.97" style="fill:none;stroke-miterlimit:4;stroke:#000"/>
  <path id="path4161" d="m288.81 123.75a3.1 3.06 73.61 1 0 1.75 5.95 3.1 3.06 73.61 0 0-1.75-5.95z" style="fill:none;stroke-miterlimit:4;stroke-width:1.03;stroke:#000"/>
  <path id="path4165" d="m263.73 132.53-16.91-4.97" style="fill:none;stroke-miterlimit:4;stroke:#000"/>
  <path id="path4167" d="m244.83 123.75a3.06 3.1 16.39 0 1-1.75 5.95 3.06 3.1 16.39 0 1 1.75-5.95z" style="fill:none;stroke-miterlimit:4;stroke-width:1.03;stroke:#000"/>
  <path id="path4169" d="m268.88 137.44 10.64 14.06" style="fill:none;stroke-miterlimit:4;stroke:#000"/>
  <path id="path4171" d="m283.79 152a3.06 3.1 52.89 1 0-4.94 3.74 3.06 3.1 52.89 0 0 4.94-3.74z" style="fill:none;stroke-miterlimit:4;stroke-width:1.03;stroke:#000"/>
  <path id="path4173" d="m264.76 137.44-10.64 14.06" style="fill:none;stroke-miterlimit:4;stroke:#000"/>
  <path id="path4147" d="m261.65 134.6a5.16 5.1 0 1 0 10.32 0 5.16 5.1 0 1 0-10.32 0z" style="fill:#fff;stroke-width:1.03;stroke:#000"/>
  <path id="path4175" d="m249.85 152a3.1 3.06 37.11 1 1 4.94 3.74 3.1 3.06 37.11 0 1-4.94-3.74z" style="fill:none;stroke-miterlimit:4;stroke-width:1.03;stroke:#000"/>
  <path id="path4218" d="m132.74 130.37 0-17.63" style="fill:none;stroke-miterlimit:4;stroke:#000"/>
  <path id="path4220" d="m129.64 109.76a3.1 3.06 0 0 0 6.2 0 3.1 3.06 0 1 0-6.2 0z" style="fill:none;stroke-miterlimit:4;stroke-width:1.03;stroke:#000"/>
  <path id="path4222" d="m135.82 132.53 16.91-4.97" style="fill:none;stroke-miterlimit:4;stroke:#000"/>
  <path id="path4224" d="m154.73 123.75a3.1 3.06 73.61 1 0 1.75 5.95 3.1 3.06 73.61 0 0-1.75-5.95z" style="fill:none;stroke-miterlimit:4;stroke-width:1.03;stroke:#000"/>
  <path id="path4226" d="m129.65 132.53-16.91-4.97" style="fill:none;stroke-miterlimit:4;stroke:#000"/>
  <path id="path4228" d="m110.75 123.75a3.06 3.1 16.39 0 1-1.75 5.95 3.06 3.1 16.39 0 1 1.75-5.95z" style="fill:none;stroke-miterlimit:4;stroke-width:1.03;stroke:#000"/>
  <path id="path4230" d="m134.79 137.44 10.64 14.06" style="fill:none;stroke-miterlimit:4;stroke:#000"/>
  <path id="path4232" d="m149.71 152a3.06 3.1 52.89 1 0-4.94 3.74 3.06 3.1 52.89 0 0 4.94-3.74z" style="fill:none;stroke-miterlimit:4;stroke-width:1.03;stroke:#000"/>
  <path id="path4234" d="m130.68 137.44-10.64 14.06" style="fill:none;stroke-miterlimit:4;stroke:#000"/>
  <path id="path4236" d="m127.58 134.6a5.16 5.1 0 0 0 10.32 0 5.16 5.1 0 1 0-10.32 0z" style="fill:#fff;stroke-width:1.03;stroke:#000"/>
  <path id="path4238" d="m115.77 152a3.1 3.06 37.11 1 1 4.94 3.74 3.1 3.06 37.11 0 1-4.94-3.74z" style="fill:none;stroke-miterlimit:4;stroke-width:1.03;stroke:#000"/>
  <path id="path4242" d="m302.92 251.04 0-17.63M299.82 230.43" style="fill:none;stroke-miterlimit:4;stroke:#000"/>
  <path id="path4244" d="m299.82 230.43a3.1 3.06 0 0 0 6.2 0 3.1 3.06 0 1 0-6.2 0z" style="fill:none;stroke-miterlimit:4;stroke:#000"/>
  <path id="path4246" d="m306.01 253.21 16.92-4.98" style="fill:none;stroke-miterlimit:4;stroke:#000"/>
  <path id="path4248" d="m324.9 244.42a3.1 3.06 73.61 1 0 1.75 5.95 3.1 3.06 73.61 1 0-1.75-5.95z" style="fill:none;stroke-miterlimit:4;stroke:#000"/>
  <path id="path4250" d="m299.82 253.21-16.91-4.97" style="fill:none;stroke-miterlimit:4;stroke:#000"/>
  <path id="path4252" d="m280.93 244.42a3.06 3.1 16.39 0 1-1.75 5.95 3.06 3.1 16.39 0 1 1.75-5.95z" style="fill:none;stroke-miterlimit:4;stroke:#000"/>
  <path id="path4254" d="m304.98 258.11 10.64 14.06" style="fill:none;stroke-miterlimit:4;stroke:#000"/>
  <path id="path4256" d="m319.89 272.67a3.06 3.1 52.89 1 0-4.94 3.74 3.06 3.1 52.89 0 0 4.94-3.74z" style="fill:none;stroke-miterlimit:4;stroke:#000"/>
  <path id="path4258" d="m300.86 258.11-10.64 14.06" style="fill:none;stroke-miterlimit:4;stroke:#000"/>
  <path id="path4260" d="m297.76 255.27a5.16 5.1 0 0 0 10.32 0 5.16 5.1 0 1 0-10.32 0z" style="fill:#fff;stroke-miterlimit:4;stroke:#000"/>
  <path id="path4262" d="m285.95 272.67a3.1 3.06 37.11 1 1 4.94 3.74 3.1 3.06 37.11 0 1-4.94-3.74zM96.64 251.12l0-17.63" style="fill:none;stroke-miterlimit:4;stroke:#000"/>
  <path id="path4266" d="m96.64 251.12 0-17.63" style="fill:none;stroke-miterlimit:4;stroke:#000"/>
  <path id="path4268" d="m93.54 230.51a3.1 3.06 0 0 0 6.2 0 3.1 3.06 0 1 0-6.2 0z" style="fill:none;stroke-miterlimit:4;stroke:#000"/>
  <path id="path4270" d="m99.73 253.29 16.91-4.97" style="fill:none;stroke-miterlimit:4;stroke:#000"/>
  <path id="path4272" d="m118.63 244.5a3.1 3.06 73.61 1 0 1.75 5.95 3.1 3.06 73.61 1 0-1.75-5.95z" style="fill:none;stroke-miterlimit:4;stroke:#000"/>
  <path id="path4274" d="m93.55 253.29-16.91-4.97" style="fill:none;stroke-miterlimit:4;stroke:#000"/>
  <path id="path4276" d="m74.65 244.5a3.06 3.1 16.39 0 1-1.75 5.95 3.06 3.1 16.39 0 1 1.75-5.95z" style="fill:none;stroke-miterlimit:4;stroke:#000"/>
  <path id="path4278" d="m98.7 258.19 10.64 14.06" style="fill:none;stroke-miterlimit:4;stroke:#000"/>
  <path id="path4280" d="m113.61 272.76a3.06 3.1 52.89 0 0-4.94 3.74 3.06 3.1 52.89 0 0 4.94-3.74z" style="fill:none;stroke-miterlimit:4;stroke:#000"/>
  <path id="path4282" d="m94.58 258.19-10.64 14.06" style="fill:none;stroke-miterlimit:4;stroke:#000"/>
  <path id="path4284" d="m91.48 255.35a5.16 5.1 0 0 0 10.32 0 5.16 5.1 0 1 0-10.32 0z" style="fill:#fff;stroke-miterlimit:4;stroke:#000"/>
  <path id="path4286" d="m79.67 272.76a3.1 3.06 37.11 1 1 4.94 3.74 3.1 3.06 37.11 1 1-4.94-3.74zM199.78 326.33l0-17.63" style="fill:none;stroke-miterlimit:4;stroke:#000"/>
  <path id="path4290" d="m199.78 326.33 0-17.63" style="fill:none;stroke-miterlimit:4;stroke:#000"/>
  <path id="path4292" d="m196.68 305.72a3.1 3.06 0 1 0 6.2 0 3.1 3.06 0 1 0-6.2 0z" style="fill:none;stroke-miterlimit:4;stroke:#000"/>
  <path id="path4294" d="m202.87 328.5 16.91-4.97" style="fill:none;stroke-miterlimit:4;stroke:#000"/>
  <path id="path4296" d="m221.77 319.71a3.1 3.06 73.61 0 0 1.75 5.95 3.1 3.06 73.61 1 0-1.75-5.95z" style="fill:none;stroke-miterlimit:4;stroke:#000"/>
  <path id="path4298" d="m196.69 328.5-16.91-4.97" style="fill:none;stroke-miterlimit:4;stroke:#000"/>
  <path id="path4300-0" d="m177.79 319.71a3.06 3.1 16.39 0 1-1.75 5.95 3.06 3.1 16.39 1 1 1.75-5.95z" style="fill:none;stroke-miterlimit:4;stroke:#000"/>
  <path id="path4302" d="m201.84 333.4 10.64 14.06" style="fill:none;stroke-miterlimit:4;stroke:#000"/>
  <path id="path4304" d="m216.75 347.97a3.06 3.1 52.89 1 0-4.94 3.74 3.06 3.1 52.89 0 0 4.94-3.74z" style="fill:none;stroke-miterlimit:4;stroke:#000"/>
  <path id="path4306" d="m197.72 333.4-10.64 14.06" style="fill:none;stroke-miterlimit:4;stroke:#000"/>
  <path id="path4308" d="m194.62 330.56a5.16 5.1 0 1 0 10.32 0 5.16 5.1 0 1 0-10.32 0z" style="fill:#fff;stroke-miterlimit:4;stroke:#000"/>
  <path id="path4310" d="m182.81 347.97a3.1 3.06 37.11 1 1 4.94 3.74 3.1 3.06 37.11 0 1-4.94-3.74z" style="fill:none;stroke-miterlimit:4;stroke:#000"/>
  <path id="path4982" d="m212.22 245.29-8.84-13.66 0 38.86M196.17 270.49l0-38.85-8.84 13.66M196.17 270.49l0-38.85-8.84 13.66" style="fill:none;stroke-linecap:round;stroke-linejoin:round;stroke:#000"/>
  <path id="path4984" d="m196.17 270.49 0-38.85-8.84 13.66" style="fill:none;stroke-linecap:round;stroke-linejoin:round;stroke:#000"/>
  <path id="path4986" d="m180.65 240.43 9.89-15.29-33.64 12.66" style="fill:none;stroke-linecap:round;stroke-linejoin:round;stroke:#000"/>
  <path id="path4990" d="m152.78 231.63 34.93-13.15-15.94-2.03" style="fill:none;stroke-linecap:round;stroke-linejoin:round;stroke:#000"/>
  <path id="path4992" d="m175.72 208.64 13.91 1.78-20.36-25.84" style="fill:none;stroke-linecap:round;stroke-linejoin:round;stroke:#000"/>
  <path id="path4994" d="m174.29 179.3 21.36 27.1 0-11.24" style="fill:none;stroke-linecap:round;stroke-linejoin:round;stroke:#000"/>
  <path id="path4996" d="m203.91 195.17 0 11.35 21.37-27.12" style="fill:none;stroke-linecap:round;stroke-linejoin:round;stroke:#000"/>
  <path id="path4998" d="m230.36 184.62-20.32 25.78 13.79-1.76" style="fill:none;stroke-linecap:round;stroke-linejoin:round;stroke:#000"/>
  <path id="path5000" d="m227.77 216.45-15.81 2.02 34.87 13.12" style="fill:none;stroke-linecap:round;stroke-linejoin:round;stroke:#000"/>
  <path id="path5002" d="m242.68 237.75-33.72-12.69 9.94 15.37" style="fill:none;stroke-linecap:round;stroke-linejoin:round;stroke:#000"/>
</svg>
