<?xml version="1.0" encoding="UTF-8" standalone="no"?>
<svg
   width="235.64828pt"
   height="225pt"
   viewBox="0 0 235.64828 225"
   version="1.2"
   id="svg5538"
   sodipodi:docname="Lila Bäcker Logo 09.2020.svg"
   inkscape:version="1.1.1 (3bf5ae0d25, 2021-09-20)"
   xmlns:inkscape="http://www.inkscape.org/namespaces/inkscape"
   xmlns:sodipodi="http://sodipodi.sourceforge.net/DTD/sodipodi-0.dtd"
   xmlns="http://www.w3.org/2000/svg"
   xmlns:svg="http://www.w3.org/2000/svg">
  <sodipodi:namedview
     id="namedview5540"
     pagecolor="#ffffff"
     bordercolor="#111111"
     borderopacity="1"
     inkscape:pageshadow="0"
     inkscape:pageopacity="0"
     inkscape:pagecheckerboard="1"
     inkscape:document-units="pt"
     showgrid="false"
     inkscape:zoom="2.0966666"
     inkscape:cx="157.15422"
     inkscape:cy="150"
     inkscape:window-width="1600"
     inkscape:window-height="837"
     inkscape:window-x="-8"
     inkscape:window-y="-8"
     inkscape:window-maximized="1"
     inkscape:current-layer="svg5538" />
  <defs
     id="defs741" />
  <path
     style="clip-rule:nonzero;fill:#bd7ac2;fill-opacity:1;fill-rule:nonzero;stroke:none;stroke-width:3.01524"
     d="M 235.64828,214.82393 225.3894,97.629907 c 0,0 -9.30485,-106.3579846 -115.66284,-97.05313159 L 0,10.176081 10.25888,127.37009 c 0,0 9.30486,106.358 115.66285,97.05314 z m 0,0"
     id="path1689" />
  <path
     style="clip-rule:nonzero;fill:#ffffff;fill-opacity:1;fill-rule:nonzero;stroke:none;stroke-width:3.01524"
     d="m 16.11271,32.81396 c -0.37691,-4.251963 2.02584,-7.314322 5.7478,-7.644111 3.72193,-0.318015 6.63118,2.273209 6.9963,6.525172 l 4.7702,54.533496 c 0.36515,4.25197 -2.03764,7.31432 -5.7478,7.64411 -3.72193,0.32979 -6.63119,-2.27321 -6.9963,-6.52517 z m 0,0"
     id="path1695" />
  <path
     style="clip-rule:nonzero;fill:#ffffff;fill-opacity:1;fill-rule:nonzero;stroke:none;stroke-width:3.01524"
     d="m 39.32772,51.482555 c -0.36515,-4.251968 2.03764,-7.314321 5.75956,-7.644114 3.71017,-0.329792 6.61943,2.27321 6.99633,6.525174 l 2.96812,33.992152 c 0.37691,4.25197 -2.03764,7.31432 -5.75956,7.64411 -3.71017,0.31802 -6.61943,-2.28499 -6.98454,-6.52517 z M 51.18845,31.08255 c 0.35336,3.981064 -2.54411,7.620556 -6.52516,7.973903 -3.8044,0.329792 -7.46744,-2.82679 -7.809,-6.725403 -0.31802,-3.627716 2.74432,-7.290763 6.5605,-7.620555 3.80439,-0.329792 7.45564,2.650114 7.77366,6.372055"
     id="path1701" />
  <path
     style="clip-rule:nonzero;fill:#ffffff;fill-opacity:1;fill-rule:nonzero;stroke:none;stroke-width:3.01524"
     d="m 58.95035,29.068461 c -0.36512,-4.251963 2.03764,-7.314318 5.7596,-7.644111 3.72192,-0.318015 6.61938,2.27321 6.9963,6.525173 l 4.7702,54.533494 c 0.3769,4.25197 -2.03765,7.31432 -5.7596,7.64411 -3.71013,0.31802 -6.61939,-2.28499 -6.9963,-6.52517 z m 0,0"
     id="path1707" />
  <path
     style="clip-rule:nonzero;fill:#ffffff;fill-opacity:1;fill-rule:nonzero;stroke:none;stroke-width:3.01524"
     d="m 105.9575,75.804727 c 6.63119,-0.58891 9.23418,-7.597 8.6924,-13.698153 -0.53001,-6.112934 -4.22842,-12.744112 -10.95383,-12.155197 -6.9963,0.612465 -9.49328,7.78545 -8.96326,13.89838 0.5418,6.10116 4.31086,12.55566 11.22469,11.95497 m 22.81457,0.84804 c 0.29458,3.27436 0.73026,8.32725 -5.3709,8.85727 -3.72193,0.32979 -5.40624,-1.57829 -6.58406,-4.86443 -2.93281,4.18129 -6.7372,6.57229 -11.61342,6.99631 -11.95495,1.04826 -21.95473,-8.33904 -23.21499,-22.67322 -1.22494,-13.99261 7.22009,-25.523561 18.91592,-26.548271 4.68777,-0.41224 9.44621,1.048268 12.63812,4.781986 0.0823,-3.133024 2.54411,-5.582909 5.64179,-5.853811 6.10116,-0.530022 6.54875,4.511087 6.83142,7.797231 z m 0,0"
     id="path1713" />
  <path
     style="clip-rule:nonzero;fill:#ffffff;fill-opacity:1;fill-rule:nonzero;stroke:none;stroke-width:3.01524"
     d="m 40.02265,141.6925 c 6.7725,-0.60069 8.57459,-7.45566 8.07988,-13.09746 -0.49468,-5.6418 -3.46279,-12.08454 -10.23533,-11.49561 -6.77251,0.60069 -8.5746,7.45565 -8.07989,13.09746 0.49468,5.6418 3.4628,12.08452 10.23534,11.49561 m -17.7028,-39.84597 c -0.16493,-1.81386 0.80094,-3.038793 2.49701,-3.191913 1.69608,-0.14133 2.86214,0.89514 3.01525,2.709003 l 1.42515,16.24227 0.12966,-0.0118 c 1.26028,-2.19077 4.11062,-4.91155 8.50395,-5.28845 9.03394,-0.78915 14.9584,6.96096 15.724,15.80646 0.77736,8.8455 -3.71016,17.51432 -12.73234,18.30347 -4.3933,0.38868 -7.47922,-0.93049 -9.30482,-3.80439 l -0.12966,0.0118 0.14141,1.63719 c 0.16494,1.81386 -0.81269,3.0388 -2.49698,3.19191 -1.69608,0.14133 -2.86213,-0.89514 -3.02703,-2.709 z m 0,0"
     id="path1719" />
  <path
     style="clip-rule:nonzero;fill:#ffffff;fill-opacity:1;fill-rule:nonzero;stroke:none;stroke-width:3.01524"
     d="m 76.62956,97.912587 c 1.88453,-0.16491 3.52172,1.21316 3.68662,3.097693 0.16493,1.87275 -1.21319,3.50993 -3.08592,3.67482 -1.88453,0.16491 -3.52172,-1.20138 -3.68662,-3.08591 -0.16493,-1.884523 1.21319,-3.521713 3.08592,-3.686603 m -11.66052,1.02471 c 1.88453,-0.16491 3.52172,1.213163 3.68662,3.085913 0.16493,1.88453 -1.21315,3.52171 -3.09768,3.6866 -1.87277,0.16491 -3.50995,-1.21316 -3.67483,-3.08591 -0.16493,-1.88452 1.20137,-3.521713 3.08589,-3.686603 m 8.78663,39.798853 c 6.77251,-0.58892 8.5746,-7.44388 8.07989,-13.08569 -0.49468,-5.65358 -3.45104,-12.08452 -10.22354,-11.49561 -6.77251,0.58892 -8.5746,7.44388 -8.07992,13.08569 0.49468,5.65357 3.45104,12.08452 10.22357,11.49561 m 14.5462,0.8127 c 0.16493,1.94341 -1.27207,2.82678 -2.33211,2.92101 -1.13072,0.0942 -2.63834,-0.53002 -2.81503,-2.47344 l -0.20022,-2.32032 -0.12965,0.0118 c -2.08477,3.59237 -5.07643,5.50045 -8.64527,5.81847 -9.41085,0.8127 -15.39424,-6.93741 -16.1716,-15.78291 -0.77736,-8.83372 3.78085,-17.51432 13.1799,-18.3388 3.82797,-0.3298 6.66653,1.06004 9.48155,3.66305 l 0.12966,-0.0118 -0.15318,-1.75496 c -0.17669,-1.94342 1.2014,-2.82679 2.33211,-2.92102 1.07184,-0.0942 2.63834,0.53003 2.81501,2.47345 z m 0,0"
     id="path1725" />
  <path
     style="clip-rule:nonzero;fill:#ffffff;fill-opacity:1;fill-rule:nonzero;stroke:none;stroke-width:3.01524"
     d="m 106.42864,106.31051 c 5.65357,-0.49469 9.13995,1.15427 9.34019,3.4157 0.0941,1.13072 -0.74202,2.40277 -2.04943,2.50878 -2.14363,0.18845 -3.10947,-1.49584 -6.86674,-1.16605 -6.84318,0.60069 -8.95149,7.47922 -8.45682,13.12102 0.49469,5.65357 3.76906,12.06096 10.60048,11.46027 3.88683,-0.34157 4.73487,-2.30854 6.48983,-2.46166 1.24849,-0.10601 2.20254,0.63603 2.33211,2.13187 0.1767,2.07298 -2.69722,4.59354 -8.39793,5.1 -10.16466,0.88337 -15.77114,-6.90208 -16.5485,-15.7358 -0.7656,-8.84549 3.40394,-17.49076 13.55681,-18.37413"
     id="path1731" />
  <path
     style="clip-rule:nonzero;fill:#ffffff;fill-opacity:1;fill-rule:nonzero;stroke:none;stroke-width:3.01524"
     d="m 119.6439,93.330827 c -0.16493,-1.81386 0.80091,-3.0388 2.49698,-3.19192 1.69607,-0.14133 2.86213,0.89515 3.01525,2.70901 l 2.06122,23.521253 11.15401,-11.15405 c 1.04828,-1.09537 2.04944,-1.88452 2.9917,-1.96697 1.43694,-0.12956 2.41454,0.85981 2.53235,2.23788 0.0706,0.82448 -0.1767,1.60184 -1.16605,2.50877 l -11.68407,11.01271 15.80644,13.08568 c 1.16606,0.96582 1.47232,1.63718 1.56654,2.69723 0.10583,1.26028 -0.94226,2.29676 -2.1319,2.40277 -1.30737,0.11778 -1.90807,-0.21201 -3.34502,-1.41339 l -15.19399,-13.33303 1.16606,13.29769 c 0.15317,1.81386 -0.81273,3.0388 -2.5088,3.19191 -1.68429,0.14133 -2.85034,-0.89514 -3.01524,-2.709 z m 0,0"
     id="path1737" />
  <path
     style="clip-rule:nonzero;fill:#ffffff;fill-opacity:1;fill-rule:nonzero;stroke:none;stroke-width:3.01524"
     d="m 172.84645,115.66247 c -0.42404,-4.77021 -3.66307,-10.04688 -9.75245,-9.51686 -6.85494,0.35335 -8.82193,6.01871 -8.56281,11.11871 z m -17.95014,5.73603 c 0.49471,5.71247 4.52286,9.84665 10.73004,9.30485 7.33787,-0.6478 8.82194,-5.32379 10.89492,-5.51224 1.00115,-0.0824 2.08474,0.7067 2.2143,2.27321 0.2355,2.69723 -6.2307,7.4321 -12.75589,8.00924 -10.65934,0.93048 -16.01848,-6.87852 -16.79584,-15.72402 -0.78915,-9.02217 4.15775,-17.54966 13.49792,-18.36236 9.09285,-0.80092 15.07621,6.96097 15.78292,14.98199 0.16494,1.94342 -0.43579,3.00346 -2.815,3.21547 z m 0,0"
     id="path1743" />
  <path
     style="clip-rule:nonzero;fill:#ffffff;fill-opacity:1;fill-rule:nonzero;stroke:none;stroke-width:3.01524"
     d="m 182.56351,102.61212 c -0.15317,-1.81385 0.81273,-3.038803 2.50881,-3.191913 1.68428,-0.14135 2.85033,0.895153 3.01524,2.709013 l 0.24725,2.82678 0.1179,-0.0118 c 1.03648,-2.68545 3.82794,-6.148273 7.01984,-6.430953 1.95521,-0.1649 3.19194,0.98938 3.3215,2.555893 0.14142,1.56651 -0.89516,2.67367 -3.18014,3.3097 -3.21549,0.84804 -7.01988,3.65127 -6.44273,10.10577 l 1.37806,15.86537 c 0.16493,1.81385 -0.80091,3.03879 -2.49699,3.19191 -1.69607,0.14133 -2.86212,-0.89514 -3.01524,-2.709 z m 0,0"
     id="path1749" />
</svg>
