<?xml version="1.0"?>
<svg xmlns="http://www.w3.org/2000/svg" height="1787" width="2681" viewBox="0 0 2144.8 1429.6">
<rect height="1430" width="2145" fill="#fff"/>
<path fill="#f3d700" d="m1287 1338c4-4 11-7 15-4 11 8 1 23-9 26-10 2-18 7-24 16 1-14 8-28 18-38zm140-6c2-8 11-13 18-9 7 3 10 12 6 19-4 8-11 16-18 21-4-10-7-21-6-31zm-687.3-66c3.9-4 10.8-5 14.6-2 17.7 16-7 52-29.8 45 12.3-12 3.2-32 15.2-43zm502.3-21c9-6 22-8 31-1 6 11-5 23-15 27-11-2-23-2-33 4 3-11 8-23 17-30zm-635.7-43c6.6-7 20.8-10 27.7-2 5.3 6 3.2 16-0.1 23-9.2 13-25.9 20-41.7 20 1.7-14 4.3-29 14.1-41zm687.7-9c10-12 32-17 44-3 7 9-3 23-14 20-11-4-19-13-30-17zm-732.1-75c6.7-6 18.6-7 24.4-1 8.5 9-2.2 22-9.2 30-8.7 5-18.4 9-28.1 11 0.6-14 2.5-30 12.9-40zm74.7-101c15.7-10 37.9-4 44.9 13 6.1 18-22.3 32-32.3 17-6.5-9-11.2-20-12.6-30zm323.7-173.1 229.7-0.1-54 34.1h-122zm-331.9-27.4c2.4-9.5 14.8-14.3 22.9-9.8 7.4 4.2 5.8 14.5 3.9 21.6-4 12.1-11.8 24.2-24 29.1-3.3-13.2-7.2-27.5-2.8-40.9zm270.8-63.3h351.8c-1 14.9-3 29.9-9 43.8-4-1.3-8-0.7-12-0.8h-310.5c-3.9 0-7.9-0.5-11.6 0.7-5.2-14-7.7-28.8-8.7-43.7zm-394.2 2.9c5-11.3 20.8-14.1 30.3-7.3 5.5 5.4 0.4 12.8-2.1 18.5-5.5 13-21.1 14.6-31 22.9-3.9-11.1-1.9-23.4 2.8-34.1zm747-87.3v37l-353.2-0.4-0.1-36.3zm-769.5-6.6c3.9-18.7 22.6-35 41.8-30.4 12.4 2.9 6.5 20.8-1.9 25.8-11.8 7.1-26.3 8.5-39.9 8.3zm416.2-80h353.3v39.1l-353.3 0.1zm-302.2-4.5c-1.4-10.6-0.6-21.9 2.7-31.9 10.4 8.1 24.7 13.9 29.1 27 3 8.9-4.3 20.4-14.8 20.5-9.2 0.1-16-7.3-17-15.6zm302-82.4 353.5-0.1v39.7s-236-0.1-353.5-0.1zm208.5-219.7c2-6.3 7-11.4 13-14.8 0 7.8 2 17.5-4 23.4-4 4.2-11-3.5-9-8.6zm13-53.4c2-6.9 16-3 13 4.1-2 7-7 12.7-11 18.7-1-7.5-5-15.3-2-22.8zm-560.2-29.4c8.5-3.1 18.5-5.5 27.3-1.7 5.7 2.5 6.7 9.9 4 15.1-9.9 19.4-35.5 28.2-55.2 19.6 4.9-12.5 10.1-27.9 23.9-33zm832.2-15.8c9-1.9 17 7.7 13 16.3-3 8.4-16 9.4-21 1.6-4-6.8 0-16.2 8-17.9zm-165 1.7c2-5.8 6-15.5 14-12.6 8 2.7 6 12.7 4 19.1-6-2.5-12-4.8-18-6.5zm109-47.6c9-0.4 18-1.1 27-1.6l-22 32.9c-6-5.3-10-11.1-15-16.6 6-2.6 9-8.6 10-14.7zm-515.8 35.5c-3.2-13.7 6-26.8 14.3-37 8.4 9.7 18.1 22.7 15.1 36-2.8 12.1-26.4 14-29.4 1zm493.8-48.7c7-2.9 16 1.3 18 9 3 9.4-6 19.3-16 17.1-13-2.8-14-21.4-2-26.1zm-379.9 0.3c8-13.8 25-18.58 40.4-18.27 15.4 0.27 33.5 6.37 37.5 22.77 7 25.1-5 49.3-11 73.2-2.4 9.1-2.5 20.2 5 27.5 10 10.8 26 12.6 40 12.6 33-0.1 68 6.3 93 28.3-23-17.7-56-15.2-81-5.5-19 7.1-40 10.3-59.4 4.7-18.2-5.3-37.6-17-42.7-35.2-6.7-23.6 18-44.3 16.1-68.7-1.1-15.2-24-22.4-33.2-10.6-4.1 5.3-4.2 12.4-4.7 18.9-10.6-13.9-8.4-35.2 0-49.7zm347.9 3.3 23-32.05c3 8.39 5 16.95 8 25.35-6 2.5-10 8.2-11 14.6-6-2.5-13-5.3-20-7.9zm42-37.4c12 8.56 25 16.9 39 24.9-10 4.3-20 9.8-28 17.4-2-7.8-10-13.3-18-12.2 3-9.7 6-19.77 7-30.1zm-92-8.13c7-1.88 15 4.82 14 12.69-1 9.78-14 14.04-20 6.62-6-6.48-2-17.27 6-19.31zm-581.4 32.43c-7.9-11.08-3.9-27.33-7.8-40.61 14 5.39 32.7 9.87 38.3 25.05 5.6 15.46-21.6 28.06-30.5 15.56zm106.5-49.8c11.2 8.03 19.2 21.16 20.7 35.01 0.7 7.29-3.2 15.99-11.4 16.79-10 0.9-25.5-4.6-23.1-16.84 2.6-12.57 15.5-20.93 13.8-34.96zm485.9-8.17c13-0.7 25 6.58 32 14.08-7 4.38-13 10.34-16 18.34 8-0.44 16-1.25 24-1.63l-14 33.08c-6-2.9-9-8.1-15-10.2 0 16.4 12 32.2 29 34.1 7 0.8 13-2.3 20-4.4 2 10.1 11 15.3 21 12.5-5 25 25 44.1 47 31.2-5-3.4-11-5-16-8.8 8-8.8 16-17.8 24-26.2 4 7.1 5 14.9 9 21.7 6-6.1 9-13.7 10-21.9 12 2.3 21 12.4 24 24.2-5 4.6-11 8.1-17 12.6-5-4.8-12-6.5-18-2.9-8 4.8-10 15.7-3 23.4-3 5.9-7 11.9-10 18.2-1 2-3 1.7-4 0.3-45-42-97-75.5-154-97.9 4-6.4 8-12.8 13-19.3 8 2.8 18-1.58 20-10.31 2-7.49-4-14.42-10-17.31z"/>
<path d="m744 83.09c-11.6 2.07-23.7 7.82-29.2 18.81-6.1 14.5-1.7 32.1 8.5 43.6-4.5 9.9-14.7 20.9-26.6 16.8-8.5-5.9-6.8-18.4-5.8-27.4 14.2-10.6 19.3-35.18 7.9-48.86-4.1 0.12-7.6 2.11-11.2 3.75 1.7 11.11 5 24.61-3.2 33.71-7.3 8.2-20.5 6-29.6 1.7-12.8-6.2-16.8-22.1-14.8-35.34-7.9 1.83-16.4 5.22-20.5 12.74-4.2 8.1-1.4 18.7 5.9 24.1 8.4 7.1 19.8 8.6 29.5 13.5 8.8 4.5 11.4 17.4 4.4 24.7-6.2-8.2-13.3-17.1-23.8-19.6-8.4-0.6-17.2 0.2-24.7 4 12.5 4.4 20.4 19.1 13.9 31.5-8.2-8.5-16.7-18.6-29.2-20.3-12.9-0.6-29.7 6.8-29.6 21.7 12.3-2.7 31.5-4.4 37.4 7.5 7 14-3.9 39-20.8 46.4 4.9 9.7 16.1 19.6 27.7 15.1 10.2-5.1 15.4-16 19.9-25.8-0.3 13.6 0.9 27.7 7.5 39.9-9.6-0.7-20.6-0.6-28.1 6.3-7.5 7.5-6.1 19.2-3.2 28.4 7.4-5.7 16.5-11.3 26.2-9.5 11.7 3 18 15.9 19.1 27.1-1 12.2-16 13.8-25.6 13.4-1.5 16.5 13.4 30 29.4 29.2-3.4 12.8-19.3 10.7-28.5 6.1 3.4 24.3 24.6 42.9 48.3 46.5 0.2 12.2 0.2 34.2-16.6 34.3 7.5 8.3 18.3 15.1 29.9 13.2 12-2 20-12.1 26.5-21.5 4.3 7.7 12.1 14.1 21.2 14.4-5.4 16.9 4.4 34.7 19.7 42.3 2.4-14.2 10.2-27.8 22.7-35.4-6.3-7.5-14.6-13.1-23.1-17.7-1.6-16.2-8.4-33.3-23.4-41.5-9.4-6.1-25.8-9.9-24.2-24.3 1.5-34.2-9.4-68.5-31.4-94.8 25.9 26.2 41.6 61.7 45.5 98.2 14.5 16.9 34.8 28.8 57.1 31.2 1.6-15 3.1-32.1 14.7-43.3 7.3-7.1 18.5-6.8 27.5-3.5-2.3 6.2-4.3 13.7-0.3 19.7 5.7 8.2 17.7 9.3 26.1 5 17.9-8.8 30.4-29.7 26.6-49.8-2.1-9.6-7.7-18.1-15-24.5-0.1 7.6-1.1 17.6-9.3 20.9-8.2 1.9-15.3-4.1-22-8-24.8-15.7-47.6-38.3-77.7-42.5 1.2-17.2-7.7-32.8-16.2-47 16.8 3.3 36.8 0.5 47.9-13.8 17.1 5.2 37.1 7.6 53.3-1.6 13.7-8 18.1-24.9 18-39.7-7.9 5.3-18.3 9.1-27.6 4.8-14.8-7-20.5-26.5-10.6-39.9-14.2-5.4-24.8 9.2-30.4 20.2-7.3 15-34.4 6.6-31.4-10.2 13.5-0.4 30.1-1.7 38.8-13.4 6.5-14.2-0.2-32.9-12.1-42.5 0.1 23-33.4 25.4-43.1 8.6-5.3-9.3 1.2-20.38 7.7-27.61zm808 11.77c-20 0.18-36 15.74-49 29.94 5 12.5 7 26.4 3 39.2 10-5.3 10-18.4 12-28.4 1-3.7-1-11.4 4-11.6 8 0.8 14 10 12 17.6-6 24.2-19 46.8-36 65-8 8.4-18 15.5-24 25.2-14 20.3-14 54.3 8 68-2 11.6-11 20.7-14 31.8-10 27.7-10 60 4 86 8 13.3 16 25.7 23 39-19 14.1-39 28.2-56 45.9-7 7.1-11 17.2-20 23.1-5 3.7-12 2.1-18 5.5-8 4.7-12 14.4-14 23.4 4-3.8 9-9.5 15-5.8 8 7.3 7 18.4 9 27.8 10 46.8 38 87.4 69 122.9-10-8-23-17.1-37-13.1-17 5.9-25 24.2-29 40.2 5 5.3 12 9.3 18 14-10-13.7 14-25 23-15.5 8 13.8-1 32.1 9 45.3 11 8.9 26 1 36-5.5 7 8.5 6 20.1 4 30-6 23.2-20 44.5-39 58.3-15 10.8-37 12.3-52 1.2-3-11-11-19.9-20-26.5-7-5.6-8-15-12-22.8-12-26.3-33-47.3-55-66.2-10-39-36-73.2-68-96.5-1 35.8 0 71.6-1 107.3-1 21.1-4 42.8-15 60.9 6 14.1 10 29.6 8 45-3-10.8-9-27.1-23-23.3 2 12.4 5 24.7 4 37.3 1 16.9-7 32.4-12 48 2 4.8 5 8.8 9 12.2 5-2.7 9-8.3 13-13.2 20-27 24-61.6 23-94 7 13.5 5 29.7 2 44.1-9 47-34 88.8-59 129.4-20 33-30 73-23 111-2 2-5 2-8 3-10-10-23-24-39-19-20 10-35 27-50 43-10 12-22 23-36 30-1-3-1-12 0-16-3 17-23 26-38 27-11 1-20.4 13-30.6 18 9.3-4 20.6-4 29.6 2 13 10 31 14 47 7-4-6-9-17-1-22 10-4 22-6 32-1-18 7-22 27-32 41-8 11-22 15-35 13 4 10 15 16 25 16 15 0 28-7 40-14 10 1 21-3 25-13 10-19 2-42 5-63 2-10 12-16 21-21 4-1 4 5 2 8-2 8-12 11-13 20-1 11 6 22 15 28-1-8-2-20 7-23 12 3 25 4 35-3 9-8 9-21 9-32 3-1 7-3 10-4 4 7 1 19 11 22 19 7 40 9 60 8 49-4 93-30 129-62 4-3 6-8 11-10 16-6 32-13 47-20-9 32-5 66-5 99-11 17-20 35-29 53-18 7-40 9-59 5 11-13 15-34 5-47-11-11-27-5-38 1 12 8 14 28 2 37-11 5-22-3-30-10-5 8-8 19-2 28 5 9 17 14 27 17 4 0 3 5 3 8-5 5-11 10-16 16 2-15-8-29-23-30-1-9-1-21-10-27-10-3-20 5-26 11 7-1 17 3 18 11 1 11 0 23-8 31-6 5-13 4-20 2 0 12 1 29 14 32 6-7 12-14 21-17 7-3 14 3 16 9-11 5-25 19-16 32 5-6 13-13 20-8 13 9 13 30 0 39 12 5 29 9 40-1 10-11 9-27 6-41 10 6 18 16 18 28 10-11 10-27 9-41l21-11c-8 8-14 19-10 30 4 10 16 15 26 17-8-10 3-21 11-26 10-7 22-1 32 3 3-11 2-24-4-34-6-9-18-9-27-7v-3c13 2 26 1 38-5 16-8 26-24 32-41-3 22-15 43-32 55 4 4 8 9 11 14 7-5 14-13 20-20l-6-9c13-4 27-12 34-25 7-12 7-27 5-40 6-2 14-1 16-9 8-22 14-44 19-67-5 5-10 10-18 11 5-17 11-33 23-45 8-9 21-14 32-10 4-19-16-31-32-31 3-15 5-30 7-45 11-10 22-19.8 29-33.1 1-11.3-4-22.3-9-32.5-7 6.1-15 15.7-25 13.5 1-7.2 5-13.6 9-20.2-9-6-18-12.6-27-17.9-13 2-23 12-32 20.4-6-3.7-15-9-20-2.5-19 22.6-48 35.8-76 34.5-11 0-24-2.7-28-13.9-4-12 2-23.8 8-34.2-7 1.3-19 2.5-21-6.4 7-8.3 12-17.9 17-27.5 6 5.2 12 11.8 19 17.3 9 0 20-1 30-1.4-3-5.8-7-10.8-10-16.5 4-1.9 7-4 11-5.7 4 6.4 9 11.8 15 16.2 14-2.8 28-4.4 41-7.2-2-5.2-6-10-9-15.3 12-0.6 24-2.4 33-10.4s10-21 18-30.4c8-11.6 18-22.9 29-32 4-3.4 10-7.5 16-5.5 6 4.4 6 13.9 2 19.9-7 10-18 15.4-28 19.8 9 3.4 19 6 29 3.1 9-2.7 16-11.8 17-21.2-9-13.3-14-28.8-19-44-9 1.1-18 3.7-26 7-17 6.6-29 21.6-42 34.8 7-15.5 8-32.5 8-49 14-1.4 23-15.3 26-28.2 4-25.8 10-51.7 19-76.2 3-5.2 5-11.6 10-14.2 12 7.4 8 24 4 34.7 12-6.3 20-19.5 24-32.7 2-7.4 1-17.5-7-21-14-5.4-30-3.2-42 5-25 16.7-35 46.6-44 73.4-5-51.6 31-95.4 34-145.9 5-40.1-19-75.2-38-107.9 12-8.7 25-18.6 39-26 10 4.4 22 10.3 33 3.9 13-8.7 17-25.3 22-39.8 3-11.2 4-24.3 13-32.5 6-5.1 16-1.2 16 6.3-1 8.2-11 10.7-15 15.8 14 4.4 30-6.4 33-20.4 1-3.1 1-8.7 0-12.6-1-17.6-20-27.8-36-22.4-3 27.5-22 51.4-46 62.7 5 6.6-1 15-6 19.7-7 8-24 1.5-23-9.8 0-11.7 6-22.7 15-30.9 7-3.8 15 1.9 22 2.6 5-6.2 11-12 12-19.9-6-1.6-12-0.2-19-0.2 20-7.6 35-26.7 38-47.5-8-0.4-15 4.1-22 8.6 8-9 16-17.7 23-27l-21-58.6c-5 4.3-9 8.8-14 13.4 5-0.4 11 1.6 12 6.8 3 10.2 0 20.8-4 30.4-9 23.8-23 45.4-38 66.1-9 13.8-19 28.3-23 45.1-2 11.6 1 24.9 12 31.3-9 9.6-21 15.4-31 22.9-13-19.1-26-38-33-60-7-26.1 3-58.6 27-72.3 11 0.5 22-1.1 31-7.7 12-8.9 18-23.6 22-37.7 6-21.9 12-44.5 24-64 5-8.7 15-18 26-13 11 5.4 13 19.4 9 29.8 9-13 16-31.7 7-46.8-8-13.5-30-23-42-9.6 1 8.5 2 18.6-4 25.5-6 5.7-15 4.5-22 2.7 2 16.1-6 32.5-20 40.8-4 1.5-1 6.1-1 9.2 1 11.6-7 22.3-17 26.6-1 7.5-4 15.8-12 18.4-6 2.7-16-1.2-15-9 3-9.4 13-14 22-15.8 9-2.6 12-13.8 11-22.5-10-3.2-21 0-27 8 5-15.9 22-23.5 37-27.5 12-3.6 14-18.7 13-29.9-10-0.7-19 2.3-26 8.8 6-15.1 23-22.9 39-22.6 11-14.5 14-33.8 13-51.5-1-11.7-6-26.54-20-28.56-1-0.13-2-0.19-4-0.18zm-336 30.94c-9 2.8-18 8.8-26 14.4-21 4-44 6.8-62 18.8-7-3.4-15-5.1-22-5.1-3 6.6-6 16.1 1 21.2 7 3.8 16 0.4 24-2-8 12.7-28-2.3-32 11.8-4 16.1 4 33 12 46.9 2-6.6 4-13.7 9-18.1 7-5.4 18-1.5 21 6.2 3 8 1 16.6-1 24.5 12-3.9 27-7 39 0.6 2 26.9-12 62.5-43 65.9-10-4.6-6-19.3-6-28.4-7 4.5-15 9-23 7-6-1.5-8-7.5-7-12.6-5 1.7-11 3.7-13 8.9s1 10 4 14c-1 4.7-5 8.3-6 12.9 8 4.7 16 8.4 25 10.2 9 2.8 8 13.7 14 18.9 8 6.6 19 5 27 2.4 25-8.3 41-29.8 54-50.8 6-9.3 20-19.1 30-10-1 8.9-12 3.1-18 7.1-9 5-3 20 6 21.3 25 3.3 53-10.7 59-35.6 4 8.9-1 19.3-6 26.6-14 17.1-40 27.1-61 18.9-17 20.9-43 36.4-71 35-26-0.9-50-12.6-72-24.2-13-6.1-25-12.9-40-13.2-38.5-1.3-77.5 2.5-116 8.5-5 1.1-11.2 1.2-14.5 5.8-13.3 17.1-22.7 36.8-36.3 53.6-11.7 11.1-30.5 15.8-45.4 9-10.4-5.3-11.8-18.1-10.5-28.5-8.9 1.9-17.6 7.1-20.6 16-4 11.1-1.3 23.1 2.5 33.8-6.9 6.5-15.6 11.7-20.7 20 5.7 8.8 16.8 12.9 27 11.2 13.6-1.9 25.1-9.8 36.2-17.4 0.1 4.4 0 8.8 0 13.3-21.7 6.6-43.8 16.9-58.1 35.1-17 21.5-9 57.1 15.2 69.5 12.4 6.7 29.6 3.9 40-4.9-22.3-5.3-28.3-32.5-13.2-41.6 9.3-5.7 26.3-4.7 36.9 1.8 11.3 7.4 23.1 15.9 37.3 16v-31.2h37.4c-8-17.1 0.5-36.7 12.3-49.7 13-14.3 33.4-18 51.9-16.6-8.5 6.5-18.4 18.5-11.4 29.1 10.9 16.5 34 17.4 51 11.8 8-42.5 42-61.2 79-44.8-4 7.8-12 30.1 2 38 13 7.3 30 0.6 45-3.5-13 13.1-33 15.2-50 10.1-14-4.2-17-22.4-12-35.1-29-7.1-48 19.4-51 41.8-30 14.4-86 11.7-79-30.2-11.7 1.8-22.4 9.5-28.4 19.5-5.7 9.5-3.2 21.3 2 30.4l316.4-0.4v63.2c12 5.1 18 18.3 19 30.9 25-12.6 40-42.2 33-69.6 15 0.3 31-2.2 43-12.1 12-9.8 16-26.6 14-41.6-9 4.6-20 12-30 6 13-16.2 24-34.1 31-53.6 10 0.5 22-1 28-9.8 7-10.9 4-25 1-36.6-6 1.6-11 6.4-16 3-4-4.8-1-11.2 0-16.6 4-23.2 4-48.9-7-70.1 5 0.6 11 0.1 16-1.5 0-13.5-7-27-19-34.6-14-9.8-32-11.7-48-12.8-4-0.6-8-0.9-10-4.3 2-3.5 7-0.3 10 0.3 10 2.6 22 5.3 32-0.2 2-1.4 6-4.1 4-7.2-9-13.7-21-26.6-37-31.4-13-2.9-19 11.8-22 21.8-7-6.7-4-18.5 3-24.2 4-2.7-2-6.6-3-9.4-21-25.8-52-41.7-83-53.5zm21 30.9c1 0 2 0.1 4 0.3 14 3.1 26 17.6 21 32.5 1 2.1 2 4.4 3 6.9-20-13.2-45-23.7-71-19.3 7-5.4 16-7.3 25-7.8 4-6.3 10-12.6 18-12.6zm-48 34c11-0.1 22 3.6 33 7.4-10 0.2-20-3.3-29-3.3-8 1.2-7 10.8-6 16.1 7 10.6 24 9.8 28 22.7 2 10.3-3 21.1-9 29 3-9.1 8-19 4-28.7-5-11.8-22-9.7-27-21.4-3-7.4-1-15.4 3-21.8zm313 278.9c12 21.9 23 44 30 67.7-16 5.1-20 23.3-22 38.1 8-6.1 21-6.1 28 1.8 4 8.8-3 17.3-7 24.6-16 27.7-24 59.4-26 91.1-23-22.1-45-46.6-60-74.4-11-19.7-19-43.1-13-65.8 10-36.7 42-61.1 70-83.1zm-662.4 40.3c-12.2-0.6-20.6 6.1-19.1 15.9 1.2 10.9 13 15.3 22.3 16.3-13 20.4-42.9 25.6-61.5 9.9-13.3 11.5-26.5 23.1-38.9 35.5-11.9 12-24.6 24.5-30.1 41-5.5 15.5-14.8 29.8-26.9 41-15.5 13-38.2 11.8-55.5 3.2 3.4-10.3 1.7-21.3 0.9-31.9 21.3-8 41.2-28.8 36.3-53.1-0.9-13.6-15.3-20.6-27.6-19.5 5.5 19.6-14.9 40.8-33.9 36.4-13-3-14.6-19.7-15.6-31.1-8.9 6.8-19.1 15-19.6 27.1 0.5 13.1 13 21.3 23.6 26.5 3.5 4.3 2.3 10.5 0.5 15.3-8 0.7-16 1.2-24 1.7 0.8-11.5-0.1-24.4-8-33.5-8-11.3-29.4-6.8-33.7 5.3 10.6 8.1 18.7 23.1 9.9 35.9-6.7 9.9-19.1 12.7-26.5 21.5-6 12.6 7.4 26.6 20.3 25.6 15.9-0.7 27.9-13.9 33.3-28 2.7-0.3 5.1 2.3 7.6 3.2-1.8 11-9.4 21-19.6 25.4 4.2 7 10.5 12.4 17.7 16.3-10.5 3.9-21.2-1.9-31.1-5.2-12.2-5.6-23.7 4.5-34.1 9.8-1.7 7.2 0.2 18.3 8.5 20.8 10.1 0.5 22.9-3.4 30.7 5.4 5.4 8.2 0.4 18.4-3.7 26.1 9.7 11.3 27.2 12.1 39.2 4.4 4.5-7.4 1.9-16.5 1.6-24.7 3.5-2.1 9.6-2.8 10.8 2.2 3.1 11.1-1.8 22.2-7.2 31.7 7.5-0.3 15.3-2.8 20-9 6.8-7 19.4-13.4 28.1-6.1-16.7-1.5-33.4 10.9-33.2 28.4-0.5 11.6 10.4 18.6 19.2 23.8-2.4-11.3 5.1-24.4 17.1-25.6 14.3-2.7 28.2 7.7 31.9 21.3 15.6-4.1 21.5-22 20.6-36.5-1.7-10.9-11.1-18.5-20.4-23 0.5-1.5 1-3 1.6-4.4 32.2 3.5 62.9-15.9 79.2-42.7-6.1 21.4-23.6 37.2-43.1 46.7-9.6 3.9-13.9 16.2-6.6 24.3 6.7-0.4 13.4-2.5 19.3-5.8 0.8 4.2 0.4 11.4 5.5 12.7 12.1-6.1 20.8-18 24.8-30.9-2.3-3.6-2.4-7.9-2.5-12 10.4-11.9 22.1-22.9 35.7-31.1 4-1.8 10.8 1 9.6 6.2-1.8 7.5-7.7 13.1-12.6 18.8 15.2 0 32.6-5.4 40.1-19.8 5.9-10.2 5.1-22.4 4.2-33.8 4.1-3.8 9.4-8.3 15.4-6.7 4.5 3.5 3.9 10 3.9 15.1 15.8 1.6 21.5-16.9 21.3-29.6-1.4-9.9 10.2-13.1 17.5-15.7l-0.8-30.6c-17.6 30.6-52.1 46.9-85.6 53 46.7-11.1 79.3-53.3 92.3-97.6l-6.7-48.7c-11.9-9.8-25.7-16.3-42.4-17.1zm59 24.9 0.1 47.4h353.3v-47.3zm353.4 86.5-353.2 0.1-0.1 47.7 353.3-0.3zm-353.2 84.1s-0.4 31.8 0.4 47.8h351.8c1-15.7 1-47.4 1-47.4zm14.8 90.7c-1.9 0.1-3.8 0.2-5.7 0.8 10.1 22.1 32 35.6 52.4 47 76.7-0.3 153.7 0 230.7-0.1 19-11.8 41-24.8 51-46.8-4-1.3-8-0.7-12-0.8zm-4 17.5c-0.9 0.1-2 1-2.8 1.3-27.9 15.3-55.9 30.7-81.7 49.3-13.4 9.7-26.7 22.9-28.2 40.4-5.6-9.6-14.7-19.1-26.4-19.5-21.4 0.2-41.8 7.6-63 8.8-8.3-0.8-18.5-2-23.5-9.5-0.1-10.7 14.2-12.9 22.1-16.3-20-13.8-52.5-7.6-62.6 15.5-4.4 12-0.4 25.1 5.5 35.9 5.4-17.7 27.9-16.1 42.6-14.5 8.8 0.9 24.8 4.4 21.4 16.3-14.1-3.4-32-4.9-42.5 7.3-19.8 18.3-38.4 43.6-67.3 46.2 11.7 10 28.2 13.9 43.2 11.3 21.8-3.8 39-19.2 53.1-35.2 2.6 12.5-5.5 25.1-17.4 29 11.5 7.1 27.4 7.2 37.8-1.9 12.1-10.7 17.2-26.9 20.7-42.1 2.8 3.9 4.6 8.5 6.7 12.8 6.5-14.5 23.8-25.2 39.4-17.2-18.4 3.5-32.5 20-33.9 38.5 19.8 3.7 37.4-10.9 45.5-27.7-1.1 10.8-3.3 21.6-1.2 32.5-8.5-0.1-17.3 5.1-19.8 13.5-2.1 7.3-0.5 14.7 0.2 22.7 3.4 25 8.6 51-0.1 76-6.1 19-13.1 40-29.4 53-10 8-23 12-35.7 12-4.8-17-17.3-35-36.9-35-0.4-4-1.2-8-1.6-12 23.6-2 42.1-27 34.3-50-2.4-11-13.8-17-24.1-15-1.3 9-4.8 20-14.6 24-13.8 3-29.1-6-31.8-20-10 4-19.5 10-29.3 15 23.5 4 29.8 32 24.7 52-0.8 0-2.2 1-3 1-2.5-15-5.7-32-19.3-42-10.7-5-24.9-2-33.3 6-8.8 9-10.6 22-12.3 33 7.8-3 16.5-6 24.8-3 7.3 3 10.3 11 8.8 19-2.5 11-10.1 21-18.2 29 1.7 3 3.5 5 5.2 8 11-9 23.1-18 37.7-20 12.2-3 22.8 8 20.8 20-8.9-3-18.6-4-27.8-3-13.4 3-23 17-18.8 31 5.8-5 12.8-10 20.9-10 13.9 1 25.8 12 31.1 25 4.4 13-7.9 24-19.2 28 7.8 8 20.5 12 30.7 6 21-9 26.8-36 16.4-56 4.3 2 8.5 4 12.9 5-1.4 15-4.6 29-4.7 44 6.8-8 14.8-16 25.1-19 11.3-3 24.6 1 31.3 11-1.2 3-4.9 9-7.5 3-14.8-14-39.3 4-39.6 22-0.8 17 15.2 28 28.8 36 2.5-12 8-27 21.7-30 12-2 23.7 9 21.2 21 21 10 36.7-16 30.5-34-2.9-10-12.7-17-22.8-17l1.9-5c10.1 1 20.3 1 30.4 2 15.6-23 27.2-49 39.8-74 3.1 2 6.2 4 9.5 6-7.9 17-15.7 34-26.6 50-10.5 12-20.6 26-22.4 43 0.1 4-1.2 11 4.4 12 7.5-1 14.7-4 22.4-3 5.3-8 2.8-19 3.2-28 6.2-3 13.4-4 19.9-2-0.4-13-0.2-27 5.2-40 2.9-7 9.4-13 17.5-13 9.1 0 14.3 10 14.5 18 9.8-14 14.6-37-2-48 3-16 6.8-33 19.9-44 4.8-4 13.1-7 17.9-2 5.1 6 4 15 1.7 22 12.6-5 26.9-14 29.4-28 1.2-11-7.2-20-14.1-26 4.7-5 11.3-8 17-12-2.5-5-5.4-10-8-16-5.9-1-12.2-2-18-4-3.1-5-6.1-11-8.1-17 13.6 10 31.9 17 48.6 11 15-7 26.6-20 36.6-31.5 21-24 41-48.4 60-73.2-40-25.2-81-49.5-121.1-75.2-15.1-9.8-31.4-18.8-43-32.9-0.4-0.5-0.8-0.6-1.3-0.6zm430.4 6.7c12 10.9 18 26.9 20 42.8 2 23.9-4 48-13 70 6 0.1 12 3.6 13 9.6 5 16.4-2 33.2-2 49.9 0 6.9-1 15.4 5 20.4 8 4 17 1 25-2 19-8 42-9 62-5v1c-19-6-38 5-56 12-11 6-27 15-39 5-17-24.5 2-57.7-13-82.1-10 8.6-20 16.1-31 22.5 13-14.5 24-30.7 31-49.2 12-30.3 11-65-2-94.9zm-127 16.6c-1 0.1-2 0.3-3 1.1-42 26.7-84 52.3-126 78.3 15 0.8 29 0.9 44 1.7 21 21 55 19.5 82 15.1 2-7.5-2-14.9-2-22.3 15-20.5 25-49.8 11-73.5-2 0.1-4-0.4-6-0.4zm-199 41 61 37.2 61-37.2zm525 89.8c5 6.5 10 11.9 16 17.6-17 19.7-23 46.7-24 72.7 0 32-2 65-10 97-7 22-16 44-33 61 17-29 25-62 30-94 5-39 4-79 12-117 2-6.4 3-12.6 6-17.5-1-1.1-3-2.1-5-3.1-7 9.6-19 16.6-31 15.5 15-8.2 32-16.1 39-32.2z" fill="#ce2100"/>
</svg>
