<?xml version="1.0" standalone="no"?>
<!DOCTYPE svg PUBLIC "-//W3C//DTD SVG 20010904//EN"
 "http://www.w3.org/TR/2001/REC-SVG-20010904/DTD/svg10.dtd">
<svg version="1.0" xmlns="http://www.w3.org/2000/svg"
 width="1669.000000pt" height="778.000000pt" viewBox="0 0 1669.000000 778.000000"
 preserveAspectRatio="xMidYMid meet">

<g transform="translate(0.000000,778.000000) scale(0.100000,-0.100000)"
fill="#000000" stroke="none">
<path d="M4147 7773 c-4 -3 -7 -294 -7 -645 l0 -638 4005 0 4005 0 0 645 0
645 -3998 0 c-2199 0 -4002 -3 -4005 -7z"/>
<path d="M0 4730 l0 -3040 1815 0 1815 0 0 615 0 615 -1155 0 -1155 0 0 2425
0 2425 -660 0 -660 0 0 -3040z"/>
<path d="M8355 5605 c-318 -60 -566 -229 -729 -501 l-36 -59 0 228 0 227 -645
0 -645 0 0 -1905 0 -1905 645 0 644 0 4 1128 c3 1255 -2 1158 73 1311 67 135
195 236 344 272 67 16 217 16 285 0 142 -34 272 -139 338 -272 75 -153 71 -74
74 -1321 l4 -1118 639 0 640 0 0 1233 c0 1393 0 1386 -76 1666 -147 540 -503
891 -1019 1003 -123 27 -426 34 -540 13z"/>
<path d="M14174 5605 c-189 -28 -368 -86 -544 -176 -727 -372 -1119 -1256
-980 -2210 122 -837 681 -1464 1445 -1620 129 -26 400 -36 514 -20 277 41 489
148 688 349 l103 103 0 -171 0 -170 645 0 645 0 0 1905 0 1905 -645 0 -645 0
0 -154 0 -154 -72 75 c-234 241 -528 355 -911 352 -84 -1 -193 -7 -243 -14z
m742 -1210 c404 -92 653 -555 547 -1019 -64 -285 -276 -512 -543 -582 -88 -23
-263 -23 -350 -1 -89 24 -213 86 -282 141 -114 91 -213 246 -259 406 -32 115
-37 324 -10 455 36 176 140 355 265 456 181 147 399 196 632 144z"/>
<path d="M4150 3595 l0 -1905 640 0 640 0 0 1905 0 1905 -640 0 -640 0 0
-1905z"/>
<path d="M10860 3561 c0 -2146 4 -2017 -65 -2156 -71 -144 -193 -225 -338
-225 -120 1 -278 56 -390 136 -41 30 -52 33 -62 22 -7 -7 -142 -220 -301 -472
l-288 -459 49 -45 c160 -145 425 -266 710 -322 141 -28 417 -38 577 -20 285
31 560 135 766 289 270 204 462 509 558 887 73 289 68 127 71 2327 l3 1977
-645 0 -645 0 0 -1939z"/>
</g>
</svg>
