<?xml version="1.0" encoding="UTF-8" standalone="no"?>
<svg
   xmlns:dc="http://purl.org/dc/elements/1.1/"
   xmlns:cc="http://creativecommons.org/ns#"
   xmlns:rdf="http://www.w3.org/1999/02/22-rdf-syntax-ns#"
   xmlns:svg="http://www.w3.org/2000/svg"
   xmlns="http://www.w3.org/2000/svg"
   xml:space="preserve"
   enable-background="new 30.5 31.5 412 533"
   viewBox="30.5 31.5 400 500"
   height="500"
   width="400"
   y="0"
   x="0"
   version="1.1"
   id="svg2"><metadata
     id="metadata4"><rdf:RDF><cc:Work
         rdf:about=""><dc:format>
          
          
          
          image/svg+xml
        
        
        
        </dc:format><dc:type
           rdf:resource="http://purl.org/dc/dcmitype/StillImage" /><dc:title></dc:title></cc:Work></rdf:RDF></metadata><defs
     id="defs6" /><path
     style="fill:#ffe000;fill-rule:evenodd;stroke:#000000;stroke-width:1px;stroke-linecap:butt;stroke-linejoin:miter;stroke-opacity:1;fill-opacity:1"
     d="m 419.5,33 0,380.89919 L 230.5,530.75 41.5,413.89919 41.5,33 c 126,0 252,0 378,0 z"
     id="path4288" /><path
     id="path4300"
     d="m 181.06832,417.37167 -8.89368,-14.66676 28.24131,-14.51073 c -13.73868,-3.21012 -26.12673,-8.49253 -39.31939,-15.60294 l -50.70954,-1.56029 0,-16.69514 29.02146,1.24824 c -11.45402,-10.30007 -18.77817,-21.40001 -25.74484,-32.61014 l -42.127923,-28.08528 8.737644,-12.79441 22.201869,15.20732 C 98.322813,282.59592 96.815184,268.86707 96.610741,254.42025 L 74.344245,208.6044 87.45071,201.27102 99.933058,226.84091 c 3.695222,-13.41206 8.703502,-26.09052 16.851172,-40.39267 l 2.49647,-50.24145 15.75896,0.46809 -1.09221,28.24131 c 9.27923,-9.4357 19.53437,-17.50511 30.89381,-24.02852 l 29.02146,-44.78042 13.41853,8.89367 -15.75897,24.65264 c 11.17514,-3.22175 25.08229,-5.91507 38.97772,-5.88093 l 49.43168,-25.87167 8.89368,14.66676 -28.24131,14.51073 c 13.73868,3.21012 26.12673,8.49253 39.31939,15.60294 l 50.70954,1.56029 0,16.69514 -29.02146,-1.24824 c 11.45402,10.30007 18.77817,21.40001 25.74484,32.61014 l 42.12792,28.08528 -8.73764,12.79441 -22.20187,-15.20732 c 4.15242,14.70562 5.66004,28.43447 5.86449,42.88129 l 22.26649,45.81585 -13.10646,7.33338 -12.48235,-25.56989 c -3.69522,13.41206 -8.7035,26.09052 -16.85117,40.39267 l -2.49647,50.24145 -15.75896,-0.46809 1.09221,-28.24131 c -9.27923,9.4357 -19.53437,17.50511 -30.89381,24.02852 l -29.02146,44.78042 -13.41853,-8.89367 15.75897,-24.65264 C 258.30258,388.84082 244.39543,391.53414 230.5,391.5 Z"
     style="fill:#e00e00;fill-rule:evenodd;stroke:#000000;stroke-width:1px;stroke-linecap:round;stroke-linejoin:round;stroke-opacity:1;fill-opacity:1" /><path
     id="path4310"
     d="m 247.5,257.5 -17,-17 -17,17 17,17 z"
     style="fill:#ffe000;fill-rule:evenodd;stroke:#000000;stroke-width:1px;stroke-linecap:butt;stroke-linejoin:miter;stroke-opacity:1;fill-opacity:1" /><path
     id="path4341"
     d="m 191.80159,249.5 -40.04288,-24 c -4.14913,9.50873 -6.52407,24 -6.2566,32.09204 -0.26747,8.09204 2.10747,22.58331 6.2566,32.09204 l 40.04288,-24 c -1.0671,-4.08336 -1.1089,-12.15225 0,-16.18408 z"
     style="fill:#ffe000;fill-rule:evenodd;stroke:#000000;stroke-width:1px;stroke-linecap:butt;stroke-linejoin:miter;stroke-opacity:1;fill-opacity:1" /><path
     style="fill:#ffe000;fill-rule:evenodd;stroke:#000000;stroke-width:1px;stroke-linecap:butt;stroke-linejoin:miter;stroke-opacity:1;fill-opacity:1"
     d="m 219.34413,219.62949 0.38312,-46.3391 c -13.18732,1.62609 -24.40484,6.48858 -31.45036,10.47775 -7.04551,3.98916 -18.06191,12.40916 -24.40242,21.14603 l 39.62106,23.90292 c 3.46888,-4.04377 11.79376,-8.16606 15.8486,-9.1876 z"
     id="path4343" /><path
     id="path4345"
     d="m 219.29551,295.53597 0.38312,46.3391 c -13.18732,-1.62609 -24.40484,-6.48858 -31.45036,-10.47775 -7.04551,-3.98916 -18.06191,-12.40916 -24.40242,-21.14603 l 39.62106,-23.90292 c 2.91723,3.60245 11.79376,8.16606 15.8486,9.1876 z"
     style="fill:#ffe000;fill-rule:evenodd;stroke:#000000;stroke-width:1px;stroke-linecap:butt;stroke-linejoin:miter;stroke-opacity:1;fill-opacity:1" /><path
     style="fill:#ffe000;fill-rule:evenodd;stroke:#000000;stroke-width:1px;stroke-linecap:butt;stroke-linejoin:miter;stroke-opacity:1;fill-opacity:1"
     d="m 269.19841,265.77263 40.04288,24 c 4.14913,-9.50873 6.52407,-24 6.2566,-32.09204 0.26747,-8.09204 -2.10747,-22.58331 -6.2566,-32.09204 l -40.04288,24 c 1.0671,4.08336 1.1089,12.15225 0,16.18408 z"
     id="path4351" /><path
     id="path4353"
     d="m 241.65587,295.64314 -0.38312,46.3391 c 13.18732,-1.62609 24.40484,-6.48858 31.45036,-10.47775 7.04551,-3.98916 18.06191,-12.40916 24.40242,-21.14603 l -39.62106,-23.90292 c -3.46888,4.04377 -11.79376,8.16606 -15.8486,9.1876 z"
     style="fill:#ffe000;fill-rule:evenodd;stroke:#000000;stroke-width:1px;stroke-linecap:butt;stroke-linejoin:miter;stroke-opacity:1;fill-opacity:1" /><path
     style="fill:#ffe000;fill-rule:evenodd;stroke:#000000;stroke-width:1px;stroke-linecap:butt;stroke-linejoin:miter;stroke-opacity:1;fill-opacity:1"
     d="m 241.70449,219.73666 -0.38312,-46.3391 c 13.18732,1.62609 24.40484,6.48858 31.45036,10.47775 7.04551,3.98916 18.06191,12.40916 24.40242,21.14603 l -39.62106,23.90292 c -2.91723,-3.60245 -11.79376,-8.16606 -15.8486,-9.1876 z"
     id="path4355" /></svg>