<?xml version="1.0" encoding="utf-8"?>
<!-- Generator: Adobe Illustrator 21.0.0, SVG Export Plug-In . SVG Version: 6.00 Build 0)  -->
<svg version="1.1" id="Capa_1" xmlns="http://www.w3.org/2000/svg" xmlns:xlink="http://www.w3.org/1999/xlink" x="0px" y="0px"
	 viewBox="0 0 1312 1002.3" style="enable-background:new 0 0 1312 1002.3;" xml:space="preserve">
<style type="text/css">
	.st0{fill:#6BA9DB;}
	.st1{fill:#0089CA;}
	.st2{fill:#007AC1;}
</style>
<g>
	<path class="st0" d="M688.7,200.7c-7.9-2.2-16.1-3.6-24.6-4.2v84.1c8.5,0.6,16.7,2,24.6,4.2V200.7z"/>
	<path class="st0" d="M645.7,196.6c-9.6,0.8-18.9,2.8-27.7,5.7v84.2c8.8-2.9,18.1-4.9,27.7-5.7V196.6z"/>
	<path class="st0" d="M599.5,210.1c-7.8,4.1-14.9,9-21.5,14.7v84.2c6.6-5.6,13.8-10.5,21.5-14.6V210.1z"/>
	<path class="st0" d="M559.5,244.4c-14.3,19.2-22.8,42.7-22.8,68.2c0,14.9,3,29,8.2,42.1c3.7-9.3,8.7-18.1,14.6-26.1V244.4z"/>
	<path class="st0" d="M728.8,220.5c-6.7-5-13.9-9.4-21.5-13v84.1c7.7,3.6,14.9,8,21.5,13V220.5z"/>
	<path class="st0" d="M747.2,237.7v84.4c8.3,9.7,15.1,20.7,19.9,32.7c5.2-13.1,8.2-27.2,8.2-42.1C775.3,284.1,764.7,258,747.2,237.7
		"/>
	<path class="st1" d="M602.6,292.8c-10.2,5-19.5,11.3-27.7,18.8v84.2c8.2-7.5,17.6-13.9,27.7-18.9V292.8z"/>
	<path class="st1" d="M691.8,285.7c-9.8-3-20.1-4.7-30.8-5.1v84.1c10.7,0.4,21,2.2,30.8,5.2V285.7z"/>
	<path class="st1" d="M648.7,280.6c-11.8,0.7-23.2,3.1-33.8,6.9v84.1c10.7-3.9,22-6.3,33.8-7V280.6z"/>
	<path class="st1" d="M744.1,318.6v84.1c9.8,10.5,17.6,22.7,23,36.2c5.2-13.1,8.2-27.2,8.2-42.1
		C775.3,366.7,763.4,339.3,744.1,318.6"/>
	<path class="st1" d="M731.8,306.9c-8.4-6.7-17.7-12.3-27.7-16.6v84.2c10,4.4,19.3,10,27.7,16.7V306.9z"/>
	<path class="st1" d="M562.6,324.6c-16.2,19.9-25.9,45-25.9,72.3c0,14.9,3,29,8.2,42.1c4.4-10.9,10.4-21.1,17.7-30.1V324.6z"/>
	<path class="st2" d="M656,364.5c-65.8,0-119.3,52.3-119.3,116.5c0,64.2,53.5,116.5,119.3,116.5c65.8,0,119.3-52.3,119.3-116.5
		C775.3,416.7,721.8,364.5,656,364.5"/>
	<polygon class="st2" points="866.5,494.8 808.8,494.8 808.8,464.7 835.7,464.7 835.7,113.6 476.3,113.6 476.3,464.7 501.5,464.7 
		501.5,494.8 445.5,494.8 445.5,83.6 866.5,83.6 	"/>
	<polygon class="st2" points="116.9,917.4 116.9,894.7 92.4,853.2 111.4,853.2 125.6,878.2 139.9,853.2 158.9,853.2 134.4,894.7 
		134.4,917.4 	"/>
	<path class="st2" d="M194.5,895.5h15.7l-7.8-19.9L194.5,895.5z M167.8,917.4l26.4-64.2h16.2l26.5,64.2h-18.7l-3.4-8.4h-25l-3.4,8.4
		H167.8z"/>
	<path class="st2" d="M259.1,883h12c0.8,0,1.7-0.2,3.3-0.9c1.8-0.7,2.9-3,2.9-6c0-3.2-1.1-5.4-2.9-6.2c-1.8-0.7-2.5-0.8-3.4-0.8
		h-11.9V883z M241.4,917.4v-64.2h30.5c4.9,0,10.3,1.9,14.9,5.6c4.6,3.6,7.9,9.9,7.9,17.2c0,6.6-2.4,12-7.2,16.3
		c-4.8,4.3-10,6.4-15.7,6.4h-12.8v18.6H241.4z"/>
	<path class="st2" d="M299.8,853.2h17.7v34.7c0,10.6,4.1,14.5,11.5,14.5s11.4-3.9,11.4-14.5v-34.7h17.7v36.6
		c0,9.3-2.8,16.4-8.3,21.3c-5.5,4.9-12.5,7.3-20.9,7.3c-8.4,0-15.4-2.4-20.9-7.3c-5.5-4.9-8.3-12-8.3-21.3V853.2z"/>
	<polygon class="st2" points="366.6,917.4 366.6,853.2 414.5,853.2 414.5,869 384.3,869 384.3,877.8 412.4,877.8 412.4,892.2 
		384.3,892.2 384.3,902 415.2,902 415.2,917.4 	"/>
	<path class="st2" d="M430.2,895.2c3.4,4.7,9.4,7.9,16.2,7.9c5.8,0,8.7-1.6,8.7-4.6c0-1.7-1.1-3-3.6-4c-1.2-0.5-2.5-0.9-3.8-1.3
		c-2.5-0.7-7.2-2.1-10.3-3.2c-10-3.7-15-9.9-15-18.5c0-6.1,2.2-10.8,6.8-14.2c4.6-3.4,10-5.1,16.5-5.1c10.7,0,18.7,3.4,24,10.2
		l-11.7,9.9c-2.9-3.4-6.8-5.1-11.7-5.1c-4.6,0-7.1,1.6-7.1,4c0,1.8,0.7,2.8,2.6,3.7c1,0.5,2.1,0.8,3.3,1.1c2.2,0.5,7.4,1.9,11.5,3.4
		c11.2,4,15.7,9.8,15.7,18.5c0,12.4-8.7,20.4-25.9,20.4c-7.3,0-13.2-1.3-18-4c-4.7-2.7-8.2-5.9-10.7-9.7L430.2,895.2z"/>
	<polygon class="st2" points="489.4,917.4 489.4,869.1 471.9,869.1 471.9,853.2 524.2,853.2 524.2,869.1 507.1,869.1 507.1,917.4 	
		"/>
	<path class="st2" d="M543.1,895.5h15.7l-7.8-19.9L543.1,895.5z M516.4,917.4l26.4-64.2H559l26.5,64.2h-18.7l-3.4-8.4h-25l-3.4,8.4
		H516.4z"/>
	<path class="st2" d="M595.4,895.2c3.4,4.7,9.4,7.9,16.2,7.9c5.8,0,8.7-1.6,8.7-4.6c0-1.7-1.1-3-3.6-4c-1.2-0.5-2.5-0.9-3.8-1.3
		c-2.5-0.7-7.2-2.1-10.3-3.2c-10-3.7-15-9.9-15-18.5c0-6.1,2.2-10.8,6.8-14.2c4.6-3.4,10-5.1,16.5-5.1c10.7,0,18.7,3.4,24,10.2
		l-11.7,9.9c-2.9-3.4-6.8-5.1-11.7-5.1c-4.6,0-7.1,1.6-7.1,4c0,1.8,0.7,2.8,2.6,3.7c1,0.5,2.1,0.8,3.3,1.1c2.2,0.5,7.4,1.9,11.5,3.4
		c11.2,4,15.7,9.8,15.7,18.5c0,12.4-8.7,20.4-25.9,20.4c-7.3,0-13.2-1.3-18-4c-4.7-2.7-8.2-5.9-10.7-9.7L595.4,895.2z"/>
	<path class="st2" d="M683.3,901.6h7.6c7.5,0,12.6-1.7,14.9-4.9c2.5-3.2,3.2-6.5,3.2-11.2c0-4.7-0.7-7.9-3.2-10.9
		c-2.5-3-7.5-4.7-15-4.7h-7.5V901.6z M665.6,917.4v-64.2h26.4c11.3,0,19.8,3,25.8,8.9c6.1,6,9,13.7,9,23.3c0,9.8-3,17.5-8.9,23.3
		c-5.9,5.8-14.5,8.7-25.8,8.7H665.6z"/>
	<polygon class="st2" points="733.4,917.4 733.4,853.2 781.3,853.2 781.3,869 751.1,869 751.1,877.8 779.3,877.8 779.3,892.2 
		751.1,892.2 751.1,902 782.1,902 782.1,917.4 	"/>
	<polygon class="st2" points="789.7,917.4 789.7,853.2 807.4,853.2 807.4,901.6 832.1,901.6 832.1,917.4 	"/>
	<polygon class="st2" points="859.3,917.4 859.3,853.2 907.2,853.2 907.2,869 877,869 877,877.8 905.2,877.8 905.2,892.2 877,892.2 
		877,902 907.9,902 907.9,917.4 	"/>
	<path class="st2" d="M922.9,895.2c3.4,4.7,9.4,7.9,16.2,7.9c5.8,0,8.7-1.6,8.7-4.6c0-1.7-1.1-3-3.6-4c-1.2-0.5-2.5-0.9-3.8-1.3
		c-2.5-0.7-7.2-2.1-10.3-3.2c-10-3.7-15-9.9-15-18.5c0-6.1,2.2-10.8,6.8-14.2c4.6-3.4,10-5.1,16.5-5.1c10.7,0,18.7,3.4,24,10.2
		l-11.7,9.9c-2.9-3.4-6.8-5.1-11.7-5.1c-4.6,0-7.1,1.6-7.1,4c0,1.8,0.7,2.8,2.6,3.7c1,0.5,2.1,0.8,3.3,1.1c2.2,0.5,7.4,1.9,11.5,3.4
		c11.2,4,15.7,9.8,15.7,18.5c0,12.4-8.7,20.4-25.9,20.4c-7.3,0-13.2-1.3-18-4c-4.7-2.7-8.2-5.9-10.7-9.7L922.9,895.2z"/>
	<polygon class="st2" points="982.1,917.4 982.1,869.1 964.6,869.1 964.6,853.2 1017,853.2 1017,869.1 999.8,869.1 999.8,917.4 	"/>
	<path class="st2" d="M1035.8,895.5h15.7l-7.8-19.9L1035.8,895.5z M1009.1,917.4l26.4-64.2h16.2l26.5,64.2h-18.7l-3.4-8.4h-25
		l-3.4,8.4H1009.1z"/>
	<path class="st2" d="M1100.4,901.6h7.6c7.5,0,12.6-1.7,14.9-4.9c2.5-3.2,3.2-6.5,3.2-11.2c0-4.7-0.7-7.9-3.2-10.9
		c-2.5-3-7.5-4.7-15-4.7h-7.5V901.6z M1082.6,917.4v-64.2h26.4c11.3,0,19.8,3,25.8,8.9c6.1,6,9,13.7,9,23.3c0,9.8-3,17.5-8.9,23.3
		c-5.9,5.8-14.5,8.7-25.8,8.7H1082.6z"/>
	<path class="st2" d="M1171.2,898c3.4,3.4,7.6,5.1,12.6,5.1c4.8,0,9-1.8,12.5-5.2c3.5-3.5,5.3-7.6,5.3-12.3c0-4.7-1.8-8.9-5.3-12.3
		c-3.4-3.5-7.6-5.3-12.5-5.3c-4.8,0-9,1.7-12.5,5.3c-3.4,3.4-5.2,7.6-5.2,12.3C1166.1,890.4,1167.8,894.6,1171.2,898 M1209.1,909
		c-7,6.4-15.4,9.7-25.3,9.7c-10,0-18.4-3.2-25.3-9.7c-7-6.5-10.4-14.4-10.4-23.5c0-9.1,3.5-17,10.4-23.5c7-6.5,15.4-9.8,25.3-9.8
		c10,0,18.3,3.2,25.3,9.8c7,6.4,10.5,14.3,10.5,23.5C1219.6,894.7,1216.1,902.5,1209.1,909"/>
	<polygon class="st2" points="92.8,803.8 92.8,655.8 134.1,655.8 134.1,767.3 191.7,767.3 191.7,803.8 	"/>
	<path class="st2" d="M262.1,759c8,7.9,17.8,11.7,29.4,11.7c11.3,0,21.1-4,29.1-11.9c8.3-8.1,12.4-17.6,12.4-28.5
		c0-10.8-4.1-20.4-12.4-28.5c-8-8.1-17.8-12.1-29.1-12.1c-11.3,0-21.1,4-29.1,12.1c-8,7.9-12.2,17.4-12.2,28.5
		C250.2,741.6,254.1,751.2,262.1,759 M350.6,784.5c-16.3,14.9-35.9,22.3-59.1,22.3c-23.3,0-42.9-7.4-59.2-22.3
		C216,769.4,208,751.4,208,730.3c0-21,8-39.1,24.4-54.2c16.3-15.1,35.9-22.5,59.2-22.5c23.3,0,42.8,7.4,59.1,22.5
		c16.3,14.9,24.6,32.9,24.6,54.2C375.2,751.4,366.9,769.4,350.6,784.5"/>
	<polygon class="st2" points="432.8,803.8 432.8,692.3 391.9,692.3 391.9,655.8 514.1,655.8 514.1,692.3 474.1,692.3 474.1,803.8 	
		"/>
	<polygon class="st2" points="547,803.8 547,655.8 658.8,655.8 658.8,692.1 588.3,692.1 588.3,712.5 654,712.5 654,745.6 
		588.3,745.6 588.3,768.1 660.5,768.1 660.5,803.8 	"/>
	<path class="st2" d="M738.8,725.4h23.1c11.1,0,17.8-6.4,17.8-17.4c0-9.4-6.3-15.7-14.4-15.7h-26.5V725.4z M697.5,803.8V655.8h68.9
		c15,0,27.8,4.9,38.5,14.9c10.6,10,15.9,21.9,15.9,36.1c0,18.9-10.2,35.3-25.9,42.3l37.9,54.8h-47.4l-30.9-46.1H754h-15.2v46.1
		H697.5z"/>
	<path class="st2" d="M857.7,645.6l10.7-30.8h41.3l-22.4,30.8H857.7z M856.8,655.8h41.3v148.1h-41.3V655.8z"/>
	<path class="st2" d="M984,753.3h36.5l-18.3-45.9L984,753.3z M921.6,803.8l61.8-148.1h37.8l61.8,148.1h-43.7l-7.8-19.3h-58.3
		l-8,19.3H921.6z"/>
	<path class="st2" d="M1120.9,752.6c8,10.8,22,18.3,37.8,18.3c13.5,0,20.2-3.6,20.2-10.6c0-4-2.6-6.8-8.5-9.1
		c-2.8-1.1-5.9-2.1-8.9-3c-5.9-1.7-16.7-4.9-23.9-7.4c-23.3-8.5-35-22.7-35-42.7c0-14,5.2-24.9,15.9-32.7
		c10.7-7.9,23.5-11.7,38.5-11.7c25,0,43.7,7.9,56.1,23.6L1186,700c-6.7-7.9-15.9-11.7-27.4-11.7c-10.7,0-16.5,3.8-16.5,9.1
		c0,4.3,1.5,6.6,6.1,8.5c2.4,1.1,5,1.9,7.6,2.5c5.2,1.1,17.2,4.5,26.7,7.9c26.1,9.1,36.8,22.5,36.8,42.7c0,28.7-20.2,47-60.5,47
		c-17,0-30.9-3-42-9.1c-10.9-6.2-19.1-13.6-25-22.3L1120.9,752.6z"/>
</g>
</svg>
