<?xml version="1.0" encoding="UTF-8" standalone="no"?>
<svg width="271px" height="222px" viewBox="0 0 271 222" version="1.1" xmlns="http://www.w3.org/2000/svg" xmlns:xlink="http://www.w3.org/1999/xlink" xmlns:sketch="http://www.bohemiancoding.com/sketch/ns">
    <!-- Generator: Sketch 3.4.4 (17249) - http://www.bohemiancoding.com/sketch -->
    <title>trebol-positivo-color</title>
    <desc>Created with Sketch.</desc>
    <defs>
        <radialGradient cx="94.8751451%" cy="23.4013282%" fx="94.8751451%" fy="23.4013282%" r="72.2525517%" id="radialGradient-1">
            <stop stop-color="#CFA9CF" offset="0%"></stop>
            <stop stop-color="#893B89" offset="100%"></stop>
        </radialGradient>
        <radialGradient cx="92.3533435%" cy="9.32972464%" fx="92.3533435%" fy="9.32972464%" r="81.6324402%" id="radialGradient-2">
            <stop stop-color="#DEC3DC" offset="0%"></stop>
            <stop stop-color="#BF88B7" offset="47.38%"></stop>
            <stop stop-color="#873888" offset="100%"></stop>
        </radialGradient>
        <linearGradient x1="5.41532518%" y1="-4.12930492%" x2="100.244102%" y2="102.024219%" id="linearGradient-3">
            <stop stop-color="#5A2F7B" offset="0%"></stop>
            <stop stop-color="#9671AC" offset="100%"></stop>
        </linearGradient>
        <radialGradient cx="27.5288553%" cy="28.807098%" fx="27.5288553%" fy="28.807098%" r="47.3674625%" id="radialGradient-4">
            <stop stop-color="#A5D4EC" offset="0%"></stop>
            <stop stop-color="#44A1D6" offset="100%"></stop>
        </radialGradient>
        <linearGradient x1="-6.59331982%" y1="99.42929%" x2="78.4568204%" y2="17.3863417%" id="linearGradient-5">
            <stop stop-color="#6378B5" offset="0%"></stop>
            <stop stop-color="#98B4D8" offset="100%"></stop>
        </linearGradient>
        <radialGradient cx="6.20487585%" cy="14.3431571%" fx="6.20487585%" fy="14.3431571%" r="70.5576769%" id="radialGradient-6">
            <stop stop-color="#CAE7F6" offset="0%"></stop>
            <stop stop-color="#85C7EA" offset="50.07%"></stop>
            <stop stop-color="#48A5D8" offset="100%"></stop>
        </radialGradient>
        <radialGradient cx="24.8341205%" cy="71.554977%" fx="24.8341205%" fy="71.554977%" r="61.15956%" id="radialGradient-7">
            <stop stop-color="#F2B68A" offset="0%"></stop>
            <stop stop-color="#DA3719" offset="100%"></stop>
        </radialGradient>
        <radialGradient cx="28.7035398%" cy="84.3533465%" fx="28.7035398%" fy="84.3533465%" r="69.8269827%" id="radialGradient-8">
            <stop stop-color="#F5C6A8" offset="0%"></stop>
            <stop stop-color="#EC8825" offset="53.66%"></stop>
            <stop stop-color="#DB3D18" offset="100%"></stop>
        </radialGradient>
        <linearGradient x1="17.5490964%" y1="83.1042618%" x2="88.9596063%" y2="9.30136986%" id="linearGradient-9">
            <stop stop-color="#EA677A" offset="0%"></stop>
            <stop stop-color="#DD2B38" offset="100%"></stop>
        </linearGradient>
        <radialGradient cx="63.8128907%" cy="91.3651933%" fx="63.8128907%" fy="91.3651933%" r="65.9019775%" id="radialGradient-10">
            <stop stop-color="#C8DD8E" offset="0%"></stop>
            <stop stop-color="#B1C718" offset="29.95%"></stop>
            <stop stop-color="#569C29" offset="100%"></stop>
        </radialGradient>
        <radialGradient cx="52.4618075%" cy="84.2583295%" fx="52.4618075%" fy="84.2583295%" r="94.8139923%" id="radialGradient-11">
            <stop stop-color="#D5E395" offset="0%"></stop>
            <stop stop-color="#B1C718" offset="24.37%"></stop>
            <stop stop-color="#569C29" offset="100%"></stop>
        </radialGradient>
        <linearGradient x1="7.20806673%" y1="-1.96026827%" x2="98.2758227%" y2="113.538024%" id="linearGradient-12">
            <stop stop-color="#AABCDA" offset="0%"></stop>
            <stop stop-color="#4760A7" offset="100%"></stop>
        </linearGradient>
        <linearGradient x1="10.5023689%" y1="90.7899823%" x2="97.6495058%" y2="6.98904816%" id="linearGradient-13">
            <stop stop-color="#BAC097" offset="0%"></stop>
            <stop stop-color="#899448" offset="100%"></stop>
        </linearGradient>
        <linearGradient x1="-1.87910742%" y1="106.038818%" x2="74.5566801%" y2="18.4840972%" id="linearGradient-14">
            <stop stop-color="#AA99C5" offset="0%"></stop>
            <stop stop-color="#CABFDB" offset="100%"></stop>
        </linearGradient>
        <linearGradient x1="3.84462151%" y1="8.62338213%" x2="99.7857057%" y2="97.9889332%" id="linearGradient-15">
            <stop stop-color="#B3D1E9" offset="0%"></stop>
            <stop stop-color="#6DA6D2" offset="100%"></stop>
        </linearGradient>
        <linearGradient x1="4.74969317%" y1="2.52646201%" x2="100.119501%" y2="97.3672954%" id="linearGradient-16">
            <stop stop-color="#B0CC40" offset="0%"></stop>
            <stop stop-color="#D8E696" offset="100%"></stop>
        </linearGradient>
    </defs>
    <g id="logos" stroke="none" stroke-width="1" fill="none" fill-rule="evenodd" sketch:type="MSPage">
        <g id="Artboard-8" sketch:type="MSArtboardGroup" transform="translate(-133.000000, -69.000000)">
            <g id="trebol-positivo-color" sketch:type="MSLayerGroup" transform="translate(133.000000, 69.000000)">
                <g id="Shape-2-+-Trébol-Copy-6" sketch:type="MSShapeGroup">
                    <g id="Trébol">
                        <path d="M134.064364,100.884041 C135.677014,104.496068 137.504684,108.196811 137.428794,112.987499 C137.131561,135.261662 114.782128,174.030748 91.9204423,190.170803 C64.5559843,209.472966 33.264249,196.140152 26.2508023,176.679567 C22.2855804,165.691402 29.1978413,165.279504 22.0832087,145.540096 C16.6760879,130.534343 5.96935634,128.798036 1.97251385,118.779415 C-6.8559547,96.5939675 15.8918973,77.1967511 36.3946874,73.6037352 C66.5480814,68.3124331 126.342616,83.413239 134.064364,100.884041 L134.064364,100.884041 Z" id="Shape" fill="url(#radialGradient-1)"></path>
                        <path d="M91.9204423,190.170803 C114.782128,174.030748 137.131561,135.261662 137.428794,112.987499 C137.504684,108.209485 135.683338,104.515078 134.077012,100.909389 L21.7100857,144.703627 C21.8302439,145.00146 21.9756987,145.229588 22.0832087,145.540096 C29.1978413,165.279504 22.2855804,165.691402 26.2508023,176.679567 C33.264249,196.140152 64.5559843,209.472966 91.9204423,190.170803 L91.9204423,190.170803 Z" id="Shape" fill="url(#radialGradient-2)"></path>
                        <path d="M134.348949,101.51773 C134.254087,101.308613 134.159225,101.093158 134.070688,100.884041 C126.34894,83.413239 66.5544055,68.3124331 36.4073356,73.6037352 C33.049229,74.1930659 29.6468536,75.2449894 26.3140435,76.6200943 C55.0887798,97.2910252 110.79161,111.808837 134.348949,101.51773 L134.348949,101.51773 Z" id="Shape" fill="url(#linearGradient-3)"></path>
                        <path d="M134.19717,100.833346 C150.747387,93.9134636 201.643887,99.1984287 238.791756,129.792927 C249.808369,138.867352 257.220235,163.701619 236.534046,180.798545 C230.096094,186.115194 220.534027,189.207596 208.094487,189.524441 C201.827287,189.682863 193.833602,191.463528 183.778254,195.740928 C169.163218,201.976427 164.135544,210.372804 157.2802,214.675552 C129.314951,232.222397 93.62163,212.837854 91.6801258,190.525669 C87.5757733,143.347532 119.594782,106.923096 134.19717,100.833346 L134.19717,100.833346 Z" id="Shape" fill="url(#radialGradient-4)"></path>
                        <path d="M134.791637,100.979094 C134.747368,100.877704 134.677803,100.782651 134.633534,100.687598 C134.500728,100.738293 134.329977,100.776314 134.19717,100.827009 C119.594782,106.916759 87.5757733,143.341196 91.6738017,190.525669 C91.9267664,193.408953 92.7615499,196.241543 94.05167,198.953731 C117.615333,177.24355 138.446977,138.601203 138.763183,115.256105 C138.839073,109.609937 136.676224,105.237484 134.791637,100.979094 L134.791637,100.979094 Z" id="Shape" fill="url(#linearGradient-5)"></path>
                        <path d="M236.527721,180.798545 C257.213911,163.701619 249.808369,138.867352 238.785431,129.792927 C201.637563,99.1984287 150.741063,93.9134636 134.190846,100.833346 C134.159225,100.84602 134.127605,100.871367 134.095984,100.884041 L180.369555,197.382183 C181.469951,196.830873 182.545051,196.273227 183.77193,195.747265 C193.827278,191.463528 201.820963,189.6892 208.088163,189.530777 C220.527703,189.207596 230.096094,186.115194 236.527721,180.798545 L236.527721,180.798545 Z" id="Shape" fill="url(#radialGradient-6)"></path>
                        <path d="M133.95053,100.624229 C122.636683,77.4122053 153.327627,33.7890634 171.528438,22.141862 C180.932401,16.1091439 210.700024,6.89530771 229.558543,28.8272796 C236.091357,36.4125354 232.081867,45.5123075 240.024959,57.7615134 C249.163309,71.905449 258.415493,73.6037352 263.677159,80.162415 C280.796546,101.511393 262.507198,125.211357 239.22812,129.792927 C204.477092,136.636767 142.677812,118.557624 133.95053,100.624229 L133.95053,100.624229 Z" id="Shape" fill="url(#radialGradient-7)"></path>
                        <path d="M134.108633,100.86503 L184.145053,80.561639 L233.998074,60.3216165 L240.069227,57.8185454 C240.050255,57.7995348 240.037607,57.786861 240.024959,57.7615134 C232.081867,45.5059707 236.091357,36.4125354 229.558543,28.8272796 C210.706348,6.89530771 180.938725,16.1091439 171.528438,22.141862 C153.397192,33.7447052 122.883323,77.0763502 133.849344,100.351742 L133.975826,100.668587 C134.013771,100.731956 134.077012,100.801662 134.108633,100.86503 L134.108633,100.86503 Z" id="Shape" fill="url(#radialGradient-8)"></path>
                        <path d="M180.034376,18.2003172 C176.49287,19.4423474 173.533183,20.8554736 171.528438,22.141862 C153.327627,33.7890634 122.636683,77.4122053 133.95053,100.624229 C134.083336,100.903052 134.348949,101.181875 134.507052,101.467035 C134.5197,101.460698 134.532348,101.460698 134.538673,101.454361 C162.231985,89.1164388 180.072321,45.6453822 180.034376,18.2003172 L180.034376,18.2003172 Z" id="Shape" fill="url(#linearGradient-9)"></path>
                        <path d="M90.2255787,20.0633625 C94.8168882,18.4221083 103.227965,14.455216 108.034295,10.0510783 C112.846948,5.63426686 126.981352,-3.35777823 148.192443,1.80044919 C154.434347,3.4797247 168.575075,10.3108907 171.458873,22.0721562 C176.587732,42.9965627 160.847003,88.9516797 134.342625,100.757303 C112.271454,110.573144 55.8097292,94.0148538 35.8444891,73.3565966 C21.7290581,58.7500681 33.0429049,37.857346 46.9875848,30.5192288 C53.8555768,26.9072023 57.2516281,25.2849588 72.4927522,24.3534361 C79.6643018,23.9225277 85.4318973,21.7616486 90.2255787,20.0633625 L90.2255787,20.0633625 Z" id="Shape" fill="url(#radialGradient-10)"></path>
                        <path d="M171.458873,22.0721562 C168.575075,10.3108907 154.440671,3.47338781 148.192443,1.80044919 C126.981352,-3.35777823 112.846948,5.62792997 108.034295,10.0510783 C103.759191,13.9672755 96.7773648,17.4398905 92.0216281,19.3346203 L134.140253,100.827009 C134.203494,100.801662 134.279384,100.788988 134.342625,100.757303 C160.853327,88.9516797 176.587732,42.9965627 171.458873,22.0721562 L171.458873,22.0721562 Z" id="Shape" fill="url(#radialGradient-11)"></path>
                        <path d="M244.995715,137.397194 C243.231286,134.323803 241.100059,131.700331 238.791756,129.799264 C201.713453,99.2617976 150.943434,93.945148 134.298356,100.801662 C134.59559,101.625457 134.804286,102.493611 135.183733,103.273048 C144.328407,122.036576 204.951401,140.920504 244.995715,137.397194 L244.995715,137.397194 Z" id="Shape" fill="url(#linearGradient-12)"></path>
                        <path d="M171.484169,22.1672095 C153.27071,33.871443 122.649331,77.431216 133.944205,100.624229 C133.98215,100.712945 134.039067,100.769977 134.077012,100.858694 C134.159225,100.820672 134.247763,100.795325 134.342625,100.757303 C160.821706,88.9643535 176.537139,43.1359743 171.484169,22.1672095 L171.484169,22.1672095 Z" id="Shape" fill="url(#linearGradient-13)"></path>
                        <path d="M137.435119,112.987499 C137.511008,108.196811 135.683338,104.496068 134.083336,100.884041 C119.455651,107.106866 87.6896074,143.37288 91.6738017,190.341899 C91.7496911,190.272193 91.8445528,190.234172 91.9267664,190.170803 C114.788452,174.030748 137.137885,135.261662 137.435119,112.987499 L137.435119,112.987499 Z" id="Shape" fill="url(#linearGradient-14)"></path>
                        <path d="M238.861321,129.862633 C238.842349,129.837286 238.817052,129.805601 238.791756,129.792927 C201.643887,99.1984287 150.747387,93.9134636 134.19717,100.833346 C134.159225,100.84602 134.114957,100.858694 134.095984,100.871367 C143.240659,118.652677 204.198831,136.484682 238.861321,129.862633 L238.861321,129.862633 Z" id="Shape" fill="url(#linearGradient-15)"></path>
                        <path d="M134.05804,100.858694 C126.304671,83.4069021 66.5417573,68.3124331 36.4010115,73.6037352 C36.318798,73.616409 36.2429086,73.6354197 36.1543709,73.6544303 C56.2966863,94.0845596 111.923627,110.389374 134.05804,100.858694 L134.05804,100.858694 Z" id="Shape" fill="url(#linearGradient-16)"></path>
                    </g>
                </g>
            </g>
        </g>
    </g>
</svg>