<?xml version="1.0" encoding="UTF-8" standalone="no"?>
<!-- Generator: Adobe Illustrator 16.0.0, SVG Export Plug-In . SVG Version: 6.00 Build 0)  -->

<svg
   xmlns:dc="http://purl.org/dc/elements/1.1/"
   xmlns:cc="http://creativecommons.org/ns#"
   xmlns:rdf="http://www.w3.org/1999/02/22-rdf-syntax-ns#"
   xmlns:svg="http://www.w3.org/2000/svg"
   xmlns="http://www.w3.org/2000/svg"
   xmlns:sodipodi="http://sodipodi.sourceforge.net/DTD/sodipodi-0.dtd"
   xmlns:inkscape="http://www.inkscape.org/namespaces/inkscape"
   version="1.1"
   id="svg589"
   sodipodi:version="0.32"
   sodipodi:docname="Flag_of_the_Province_of_Manitoba.svg"
   inkscape:version="0.48.4 r9939"
   x="0px"
   y="0px"
   width="1000"
   height="500.00021"
   viewBox="0 0 1000 500.00021"
   enable-background="new 0 0 1000 500"
   xml:space="preserve"><metadata
   id="metadata81535"><rdf:RDF><cc:Work
       rdf:about=""><dc:format>image/svg+xml</dc:format><dc:type
         rdf:resource="http://purl.org/dc/dcmitype/StillImage" /></cc:Work></rdf:RDF></metadata><defs
   id="defs81533" />
<sodipodi:namedview
   inkscape:cy="250.00011"
   inkscape:zoom="0.989"
   id="base"
   showgrid="false"
   inkscape:cx="500"
   snaptogrid="false"
   inkscape:window-x="-4"
   inkscape:window-width="1440"
   inkscape:window-height="844"
   inkscape:window-y="-4"
   inkscape:current-layer="svg589"
   fit-margin-top="0"
   fit-margin-left="0"
   fit-margin-right="0"
   fit-margin-bottom="0"
   inkscape:window-maximized="1">
	<inkscape:grid
   id="GridFromPre046Settings"
   type="xygrid"
   originx="0mm"
   originy="-1.7250335e-006mm"
   spacingx="35mm"
   spacingy="35mm"
   color="#3f3fff"
   empcolor="#3f3fff"
   opacity="0.15"
   empopacity="0.38"
   empspacing="5"
   units="mm"
   visible="true"
   enabled="true"
   snapvisiblegridlinesonly="true" /></sodipodi:namedview>



<g
   id="g81537"
   transform="translate(0,2.0388768e-4)"><rect
     height="500"
     width="1000"
     id="rect603"
     x="0"
     y="0"
     style="fill:#cc0000" /><rect
     height="500"
     width="1000"
     y="0"
     id="rect1320"
     x="0"
     style="fill:none" /><g
     transform="translate(0,2e-5)"
     id="g1690">
	<rect
   height="250"
   width="500"
   y="0"
   id="rect3207"
   x="0"
   style="fill:#000066" />
	<g
   transform="matrix(8.333338,0,0,8.333343,0,-2.256992e-4)"
   id="g878">
		<path
   d="M 0,0 V 3.354 L 53.292,30 H 60 V 26.646 L 6.708,0 H 0 z M 60,0 V 3.354 L 6.708,30 H 0 V 26.646 L 53.292,0 H 60 z"
   id="path879"
   inkscape:connector-curvature="0"
   style="fill:#ffffff" />
		<path
   d="M 25,0 V 30 H 35 V 0 H 25 z M 0,10 V 20 H 60 V 10 H 0 z"
   id="path880"
   inkscape:connector-curvature="0"
   style="fill:#ffffff" />
		<path
   d="m 0,12 v 6 H 60 V 12 H 0 z M 27,0 v 30 h 6 V 0 h -6 z"
   id="path881"
   inkscape:connector-curvature="0"
   style="fill:#cc0000" />
		<path
   d="M 0,30 20,20 h 4.472 l -20,10 H 0 z M 0,0 20,10 H 15.528 L 0,2.236 V 0 z m 35.528,10 20,-10 H 60 L 40,10 H 35.528 z M 60,30 40,20 h 4.472 L 60,27.764 V 30 z"
   id="path882"
   inkscape:connector-curvature="0"
   style="fill:#cc0000" />
	</g>
</g><g
     id="g7751-5-4"
     transform="matrix(1.1330374,0,0,1.1330374,492.26351,-447.06975)"
     style="display:inline"><path
       sodipodi:nodetypes="ccccccc"
       inkscape:connector-curvature="0"
       id="path7468-3-4"
       d="m 305.13208,584.22191 0,-64.02065 -155.49561,0 -2e-5,0 -0.76979,0 c 0.0409,23.69167 0.74639,42.86016 0.75449,63.30817 z"
       style="color:#000000;fill:#ffffff;stroke:none;stroke-width:1.61131108;marker:none;visibility:visible;display:inline;overflow:visible;enable-background:accumulate" /><path
       inkscape:connector-curvature="0"
       id="path7458-9-1"
       d="m 236.02923,584.07419 0,-22.65625 69.09375,0 0,-17.1875 -69.09375,0 0,-24.03125 -17.15625,0 0,0 0,24.03125 -69.21875,0 c -0.003,5.87527 -0.0254,11.56236 -0.0312,17.1875 l 69.25,0 0,22.65625 z"
       style="color:#000000;fill:#bd0000;fill-opacity:1;fill-rule:nonzero;stroke:#5e0000;stroke-width:1;stroke-linecap:butt;stroke-linejoin:miter;stroke-miterlimit:4;stroke-opacity:1;stroke-dasharray:none;stroke-dashoffset:0;marker:none;visibility:visible;display:inline;overflow:visible;enable-background:accumulate" /><path
       id="path7460-2-6"
       transform="matrix(0.54757933,0,0,0.54757933,147.98746,519.38528)"
       d="m 2.9375,117.125 c -0.5169949,1.86331 -0.981759,3.68868 -1.46875,5.53125 l 0,0.4375 C 4.3612003,219.9836 33.714073,290.09511 112.9375,334.875 c 9.66347,6.01128 27.55183,11.72313 31.25,13.6875 3.64292,-1.93561 21.61666,-7.67803 31.28125,-13.6875 C 259.1088,288.64511 284.34955,210.44226 287,123.09375 L 287,118.5 c -0.0106,-0.0211 -0.0207,-0.0414 -0.0312,-0.0625 L 2.9375,117.125 z"
       style="color:#000000;fill:#006e13;fill-opacity:1;stroke:none;stroke-width:1.61131108;marker:none;visibility:visible;display:inline;overflow:visible;enable-background:accumulate"
       inkscape:connector-curvature="0" /><g
       id="g15605-4-1"
       transform="translate(368.69531,-5.266144)"><path
         inkscape:connector-curvature="0"
         id="path7470-6-6"
         transform="translate(-222.53053,521.84651)"
         d="m 42.6875,156.5 c -0.48363,-7.2e-4 -0.78125,0.0312 -0.78125,0.0312 0,0 -2.90303,3.50935 -4.65625,4.09375 -1.20326,0.40109 -2.199129,1.09694 -3.4375,2.15625 8.064779,8.8565 17.915368,16.66391 29.84375,23.40625 5.24655,1.25346 15.09996,6.42435 17.125,7.5 1.994788,-1.0599 11.867566,-6.24394 17.125,-7.5 11.27291,-6.23081 20.5915,-13.55284 28.28125,-21.71875 -0.0755,-0.1316 -0.1447,-0.26629 -0.1875,-0.4375 -1.46101,-5.84405 -1.96553,-4.55155 -3.71875,-4.84375 -1.75321,-0.2922 -7.3138,2.0406 -12.28125,2.625 -4.96744,0.58441 -0.29833,-0.0235 -2.34375,1.4375 -2.04542,1.46101 -4.67785,2.05638 -9.9375,-0.28125 -5.25965,-2.33762 -1.46071,-0.57797 -5.84375,-3.5 -4.38304,-2.92202 -4.96072,-0.29381 -9.34375,0.875 -4.38304,1.16881 -2.0625,1.75 -2.0625,1.75 0,0 -5.54672,2.9172 -8.46875,2.625 -2.92203,-0.2922 -3.51226,-1.44684 -8.1875,-2.03125 -4.67524,-0.5844 -0.86696,0.27351 -5.25,-1.1875 -4.38304,-1.46101 -6.14047,-1.74678 -9.0625,-3.5 -2.191523,-1.31492 -5.361609,-1.49783 -6.8125,-1.5 z"
         style="color:#000000;fill:#ffffff;fill-opacity:1;fill-rule:nonzero;stroke:#393939;stroke-width:0.25;stroke-linecap:butt;stroke-linejoin:miter;stroke-miterlimit:4;stroke-opacity:1;stroke-dasharray:none;stroke-dashoffset:0;marker:none;visibility:visible;display:inline;overflow:visible;enable-background:accumulate" /><path
         inkscape:connector-curvature="0"
         id="path7490-1-3"
         transform="translate(-128.68344,131.61333)"
         d="m -43.75,551.4375 c 0,1.31491 -0.15706,3.06009 0.28125,4.375 0.4383,1.31491 1.7711,4.52964 1.625,5.40625 C -41.98985,562.09535 -42,562.97729 -42,564 c 0,0.6512 -0.09536,2.79265 -0.1875,4.5625 0.672979,0.46684 1.353444,0.91573 2.03125,1.375 0.09202,-1.59683 0.1875,-3.5395 0.1875,-4.1875 0,-1.02271 -0.4375,-6 -0.4375,-6 l 0,-5.5625 c 0,-0.7305 -3.34375,-2.75 -3.34375,-2.75 z"
         style="color:#000000;fill:#a0a0a0;fill-opacity:1;fill-rule:nonzero;stroke:none;stroke-width:1;marker:none;visibility:visible;display:inline;overflow:visible;enable-background:accumulate" /><path
         inkscape:connector-curvature="0"
         id="path7488-8-3"
         transform="translate(-128.68344,131.61333)"
         d="m -2.5,551.03125 -6.03125,0.84375 2.90625,6.5625 -1.03125,5.40625 c 0,0 0.32184,6.29914 0.90625,7.90625 0.45779,1.25893 0.7449,5.2633 1.125,7.65625 0.52163,-0.13248 1.07651,-0.27538 1.53125,-0.375 1.5638788,-0.34258 3.11529283,-0.781 4.65625,-1.25 0.892975,-0.45324 1.7532458,-0.91067 2.5,-1.375 1.0124629,-0.62955 2.0219704,-1.26562 3.03125,-1.90625 l -0.4375,-2.03125 c 0,0 -2.06089,-1.457 -2.9375,-2.1875 -0.87661,-0.73051 -2.16318,-1.31089 -4.0625,-2.1875 -1.89931,-0.87661 -1.01015,-2.06009 -1.15625,-3.375 -0.14611,-1.31491 0.48905,-4.00291 0.78125,-8.09375 L 2.5,552.6875 l -5,-1.65625 z"
         style="color:#000000;fill:#a0a0a0;fill-opacity:1;fill-rule:nonzero;stroke:none;stroke-width:1;marker:none;visibility:visible;display:inline;overflow:visible;enable-background:accumulate" /><path
         inkscape:connector-curvature="0"
         id="path7484-2-5"
         transform="translate(-128.68344,131.61333)"
         d="m -7.96875,556.40625 c -0.56614,0.0365 -1.09334,0.20739 -1.3125,0.71875 -0.4383,1.02271 -0.28125,3.375 -0.28125,3.375 0.1461,1.31491 -0.15625,6.41399 -0.15625,7.875 0,1.46101 -0.86646,0.89208 0.15625,2.9375 1.02271,2.04542 2.03045,6.70619 2.46875,7.875 0.024658,0.0657 0.3468988,1.08513 0.65625,2.0625 2.1107616,-0.82383 4.3618906,-1.74669 6.5,-2.75 -1.3932896,-2.2875 -3.7209057,-5.06753 -4.375,-6.59375 -0.87661,-2.04542 -0.4375,-4.97809 -0.4375,-5.5625 0,-0.5844 0.73985,-6.27964 0.59375,-7.15625 -0.1461,-0.87661 -0.15625,-1.3125 -0.15625,-1.3125 0,0 -1.15464,-1.16639 -2.03125,-1.3125 -0.43831,-0.073 -1.05886,-0.19278 -1.625,-0.15625 z"
         style="color:#000000;fill:#1d1d1d;fill-opacity:1;fill-rule:nonzero;stroke:none;stroke-width:1;marker:none;visibility:visible;display:inline;overflow:visible;enable-background:accumulate" /><path
         inkscape:connector-curvature="0"
         id="path7486-1-5"
         transform="translate(-128.68344,131.61333)"
         d="M 18.5,552.78125 17.03125,554.25 13.375,555.28125 c 0,0 1.76015,1.60229 1.90625,2.625 0.14611,1.0227 1,2.91318 1,4.8125 0,1.79799 0.141309,4.80932 0.15625,6.375 0.766303,-0.50274 1.513008,-1.02502 2.25,-1.53125 -0.328777,-2.7087 -1.0625,-6 -1.0625,-6 0,0 -0.15706,-2.92414 0.28125,-4.53125 0.4383,-1.60712 0.59375,-4.25 0.59375,-4.25 z"
         style="color:#000000;fill:#1d1d1d;fill-opacity:1;fill-rule:nonzero;stroke:none;stroke-width:1;marker:none;visibility:visible;display:inline;overflow:visible;enable-background:accumulate" /><path
         inkscape:connector-curvature="0"
         id="path7498-1-3"
         transform="translate(-128.68344,131.61333)"
         d="m 7.96875,556.25 c -1.16881,0 -3.21714,0.15625 -4.09375,0.15625 -0.87661,0 -2.46875,1.15625 -2.46875,1.15625 0.73051,0.1461 1.875,1.61164 1.875,3.21875 l 0,3.375 c 0,1.46102 -1.15866,2.32104 0.15625,3.34375 1.31491,1.02271 0.89289,0.74759 2.5,2.0625 1.60711,1.31491 -0.16027,-0.44152 2.03125,1.75 0.5252453,0.52525 0.8741334,1.20486 1.125,1.9375 1.450015,-0.93523 2.877914,-1.91041 4.3125,-2.875 -0.01244,-0.29683 -0.01363,-0.47584 -0.03125,-0.8125 C 13.3435,568.96094 10.29301,566.79221 9.5625,566.5 8.832,566.2078 6.6461,564.58441 6.5,564 6.35389,563.4156 5.3547,562.99226 5.0625,561.53125 4.7703,560.07024 4.32105,559.4594 5.34375,558.875 c 1.02271,-0.58441 3.34375,-0.5625 3.34375,-0.5625 0,0 0.45006,-2.0625 -0.71875,-2.0625 z"
         style="color:#000000;fill:#1d1d1d;fill-opacity:1;fill-rule:nonzero;stroke:none;stroke-width:1;marker:none;visibility:visible;display:inline;overflow:visible;enable-background:accumulate" /><path
         inkscape:connector-curvature="0"
         id="path7492-9-2"
         transform="translate(-128.68344,131.61333)"
         d="m -48.5625,549.96875 c -1.60711,0.7305 -2.3531,1.90303 -2.9375,3.65625 -0.58441,1.75321 -1.15625,5.6875 -1.15625,5.6875 0,0 -0.672997,0.0491 -1.46875,0.21875 2.021217,1.68649 4.079527,3.32476 6.1875,4.90625 0.780706,-2.55474 1.6875,-5.84375 1.6875,-5.84375 0,0 0.0102,-3.19685 0.15625,-3.78125 0.14611,-0.58441 0.58441,-2.35309 0,-2.9375 -0.5844,-0.5844 -2.46875,-1.90625 -2.46875,-1.90625 z"
         style="color:#000000;fill:#a0a0a0;fill-opacity:1;fill-rule:nonzero;stroke:none;stroke-width:1;marker:none;visibility:visible;display:inline;overflow:visible;enable-background:accumulate" /><path
         inkscape:connector-curvature="0"
         id="path7494-7-8"
         transform="translate(-128.68344,131.61333)"
         d="m -30.25,554.03125 c -1.355831,0.10057 -3.40625,0.90625 -3.40625,0.90625 -0.43831,1.31491 -1.03205,2.18348 -0.59375,4.375 0.4383,2.19152 0.57265,3.79994 0.71875,4.96875 0.1461,1.16881 0.59536,3.50855 -0.28125,4.53125 -0.8766,1.02271 -2.6242,2.3531 -3.0625,2.9375 -0.06446,0.0859 -0.103622,0.18149 -0.15625,0.28125 2.26939,1.48909 4.550142,2.94823 6.84375,4.375 1.213752,0.75503 2.678138,1.50335 4.21875,2.21875 0.07508,-0.84344 0.148389,-1.67123 0.1875,-2.21875 0.1461,-2.04542 0.1461,-3.63193 0,-5.53125 -0.14611,-1.89931 -1.02029,-5.83973 -1.3125,-8.03125 -0.2922,-2.19152 -1.15545,-3.94443 -1.59375,-5.84375 -0.4383,-1.89932 0.28286,-2.19684 -0.59375,-2.78125 -0.10958,-0.073 -0.25773,-0.13628 -0.4375,-0.15625 -0.157301,-0.0175 -0.33756,-0.0456 -0.53125,-0.0312 z"
         style="color:#000000;fill:#a0a0a0;fill-opacity:1;fill-rule:nonzero;stroke:none;stroke-width:1;marker:none;visibility:visible;display:inline;overflow:visible;enable-background:accumulate" /><path
         inkscape:connector-curvature="0"
         id="path7496-6-2"
         transform="translate(-128.68344,131.61333)"
         d="m -23.15625,556.40625 c 0,0 0.0203,2.7695 0.3125,3.5 0.2922,0.73051 0.5625,3.08199 0.5625,3.8125 0,0.73051 -0.5836,2.90383 -0.4375,4.21875 0.1461,1.31491 1.03044,2.63354 1.46875,3.65625 0.4383,1.02271 0.59294,0.60148 1.03125,2.0625 0.4383,1.46101 0.8539,1.89208 1,3.9375 0.08633,1.20856 0.08979,2.60006 0.0625,3.875 2.785734,1.07838 5.219534,1.97314 6.09375,2.4375 0.505839,-0.26877 1.531237,-0.68177 2.84375,-1.1875 -0.196605,-0.96959 -0.5,-2.21875 -0.5,-2.21875 l -1.90625,-6.125 c 0,0 -2.05074,-3.08199 -2.78125,-3.8125 -0.73051,-0.73051 -0.875,-2.90625 -0.875,-2.90625 0,0 1.03125,-4.5195 1.03125,-5.25 0,-0.73051 0.85631,-3.22729 -0.3125,-4.25 -1.16881,-1.02271 -7.59375,-1.75 -7.59375,-1.75 z"
         style="color:#000000;fill:#a0a0a0;fill-opacity:1;fill-rule:nonzero;stroke:none;stroke-width:1;marker:none;visibility:visible;display:inline;overflow:visible;enable-background:accumulate" /><path
         inkscape:connector-curvature="0"
         id="path7482-2-5"
         transform="translate(-128.68344,131.61333)"
         d="m -20.0625,558.25 c 1.02271,0.58441 1.42735,6.93589 1.28125,7.8125 -0.1461,0.87661 -0.70941,1.28818 -0.125,3.1875 0.5844,1.89932 0.71714,2.20539 1.59375,3.8125 0.87661,1.60712 1.1875,3.95458 1.1875,6 0,1.17751 -0.103749,2.44348 -0.1875,3.5 0.352487,0.13529 0.68862,0.28465 1,0.40625 0.834587,0.13783 1.81518,0.54589 2.75,0.71875 0.359476,-0.1631 0.812467,-0.37137 1.375,-0.59375 -0.285954,-1.33047 -1.028317,-3.67576 -1.15625,-4.1875 -0.29221,-1.16881 -0.88434,-3.95699 -1.46875,-4.6875 -0.5844,-0.7305 -3.0625,-4.09375 -3.0625,-4.09375 0,0 -0.4375,-1.89288 -0.4375,-3.5 0,-1.60711 1.0625,-6.3125 1.0625,-6.3125 l 0.125,-1.46875 -3.9375,-0.59375 z"
         style="color:#000000;fill:#1d1d1d;fill-opacity:1;fill-rule:nonzero;stroke:none;stroke-width:1;marker:none;visibility:visible;display:inline;overflow:visible;enable-background:accumulate" /><path
         inkscape:connector-curvature="0"
         id="path7725-9-3"
         transform="translate(-222.53053,521.84651)"
         d="m 124.71875,160.15625 c -0.9828,0.30712 -2.12351,0.85672 -2.84375,1.0625 -1.34721,0.38492 -3.6875,0.375 -3.6875,0.375 0,0 0.31304,5.01659 1.59375,9.15625 2.26215,-2.02848 4.37831,-4.12774 6.40625,-6.28125 -0.0757,-0.13153 -0.1447,-0.26629 -0.1875,-0.4375 -0.51249,-2.04997 -0.91031,-3.2043 -1.28125,-3.875 z"
         style="color:#000000;fill:#a0a0a0;fill-opacity:1;fill-rule:nonzero;stroke:none;stroke-width:1;marker:none;visibility:visible;display:inline;overflow:visible;enable-background:accumulate" /><path
         style="color:#000000;fill:#ffffff;fill-opacity:1;fill-rule:nonzero;stroke:#393939;stroke-width:0.25;stroke-linecap:butt;stroke-linejoin:miter;stroke-miterlimit:4;stroke-opacity:1;stroke-dasharray:none;stroke-dashoffset:0;marker:none;visibility:visible;display:inline;overflow:visible;enable-background:accumulate"
         d="m -173.60602,675.44029 c -2.14557,0.21246 -4.42281,0.73671 -6.13625,2.04542 -0.83726,0.6395 -1.8196,1.57836 -1.75322,2.62982 0.1218,1.92951 2.03996,3.57998 3.79864,4.38304 0.88601,0.40458 1.94922,0.0485 2.92202,0 0.97765,-0.0488 2.02578,-0.68581 2.92203,-0.2922 1.33769,0.58748 1.27807,2.95205 2.62982,3.50643 1.82249,0.74745 3.87573,-0.80022 5.84406,-0.87661 1.36606,-0.053 3.2325,-0.77183 4.09083,0.29221 0.43242,0.53606 -0.69337,1.48558 -0.2922,2.04541 0.92356,1.28882 3.09647,0.72988 4.67524,0.87661 1.93966,0.18027 3.90855,-0.22043 5.84405,0 2.58229,0.29409 5.00354,1.58813 7.59727,1.75322 1.95378,0.12436 4.04799,0.19461 5.84405,-0.58441 0.94988,-0.412 2.12578,-1.03193 2.33763,-2.04541 0.37443,-1.79128 -3.40864,-3.48359 -2.33763,-4.96745 1.43533,-1.98861 6.05378,-1.23265 7.30507,0.87661 0.53523,0.90222 -1.66847,1.99962 -1.16881,2.92202 0.94622,1.74677 3.85771,1.13678 5.84405,1.16881 3.55434,0.0573 7.31207,-0.22015 10.5193,-1.75321 1.05818,-0.50581 1.53352,-1.92081 2.62982,-2.33762 1.00147,-0.38076 2.14282,0 3.21423,0 2.24022,0 4.61083,0.75313 6.72066,0 1.303753,-0.46539 3.281853,-1.24715 3.214233,-2.62983 -0.0686,-1.40306 -2.29146,-1.63255 -3.506433,-2.33762 -2.26048,-1.31181 -4.59827,-2.50627 -7.01287,-3.50643 -1.70737,-0.70722 -3.42794,-1.50791 -5.25964,-1.75321 -1.74038,-0.23307 -3.50441,0.24348 -5.25965,0.2922 -1.75254,0.0486 -3.50668,-0.0292 -5.25965,0 -2.92324,0.0487 -5.84417,0.19133 -8.76608,0.2922 -2.72734,0.0942 -5.45314,0.24349 -8.18167,0.2922 -1.94771,0.0348 -3.90313,0.1661 -5.84405,0 -2.85586,-0.24439 -5.60758,-1.46101 -8.47388,-1.46101 -2.8663,0 -5.61801,1.21662 -8.47387,1.46101 -2.62025,0.22423 -5.26473,0.16341 -7.88947,0 -0.78376,-0.0488 -1.55618,-0.36958 -2.33763,-0.2922 z"
         id="path7472-5-6"
         inkscape:connector-curvature="0"
         sodipodi:nodetypes="aaaaaaaaaaaaaaaaaaaaaaaaaaaaaaaaaaaa" /><path
         style="color:#000000;fill:#ffffff;fill-opacity:1;fill-rule:nonzero;stroke:#393939;stroke-width:0.25;stroke-linecap:butt;stroke-linejoin:miter;stroke-miterlimit:4;stroke-opacity:1;stroke-dasharray:none;stroke-dashoffset:0;marker:none;visibility:visible;display:inline;overflow:visible;enable-background:accumulate"
         d="m -162.50232,679.53113 c 0,0 0.87661,-2.04542 3.50644,-4.09084 2.62982,-2.04542 7.30506,-4.67524 8.76607,-4.67524 1.46102,0 5.25965,1.75321 5.25965,1.75321 0,0 2.92203,2.92203 2.92203,4.67525 0,1.75321 -0.58441,7.01286 -0.58441,7.01286 l -3.50643,2.62982 c 0,0 -5.55185,-1.46101 -7.30507,-2.33762 -1.75321,-0.87661 -4.38303,-3.50643 -6.13625,-3.50643 -1.75322,0 -2.92203,-1.46101 -2.92203,-1.46101 z"
         id="path7474-2-1"
         inkscape:connector-curvature="0" /><path
         style="color:#000000;fill:#ffffff;fill-opacity:1;fill-rule:nonzero;stroke:#393939;stroke-width:0.25;stroke-linecap:butt;stroke-linejoin:miter;stroke-miterlimit:4;stroke-opacity:1;stroke-dasharray:none;stroke-dashoffset:0;marker:none;visibility:visible;display:inline;overflow:visible;enable-background:accumulate"
         d="m -128.02241,671.34945 c -0.87661,-0.2922 -2.92202,-0.5844 -4.38304,0 -1.46101,0.58441 -2.33762,0.87661 -3.50643,2.33763 -1.16881,1.46101 -1.16881,1.46101 -1.75321,3.50643 -0.58441,2.04541 -0.58441,3.21423 -0.58441,3.21423 0,0 0.87661,2.33762 2.92203,2.33762 2.04542,0 4.67524,-0.58441 5.55185,-1.75322 0.8766,-1.16881 2.04542,-2.04542 3.50643,-3.79863 1.46101,-1.75322 2.04542,-2.62983 1.46101,-3.79864 -0.5844,-1.16881 -3.21423,-2.04542 -3.21423,-2.04542 z"
         id="path7476-0-8"
         inkscape:connector-curvature="0" /><path
         inkscape:connector-curvature="0"
         id="path7478-0-6"
         transform="translate(-128.68344,131.61333)"
         d="m -46.8125,554.0625 c 0,0 -0.8742,0.74839 -1.3125,1.625 -0.43831,0.8766 -0.44685,2.91479 -1.03125,3.9375 -0.420762,0.73633 -1.764662,1.01726 -2.75,1.71875 0.827004,0.66242 1.659198,1.32315 2.5,1.96875 0.575359,-1.13266 1.263803,-2.13436 1.40625,-3.84375 0.1461,-1.75322 1.1875,-5.40625 1.1875,-5.40625 z"
         style="color:#000000;fill:#1d1d1d;fill-opacity:1;fill-rule:nonzero;stroke:none;stroke-width:1;marker:none;visibility:visible;display:inline;overflow:visible;enable-background:accumulate" /><path
         inkscape:connector-curvature="0"
         id="path7480-3-2"
         transform="translate(-128.68344,131.61333)"
         d="m -30.75,558.25 c -0.25168,0.37753 0.28125,6.1875 0.28125,6.1875 0,0 -0.12339,5.41398 -1,6.875 -0.8766,1.46101 -0.3117,0.27964 -0.75,1.15625 -0.166694,0.33338 -0.480042,1.16291 -0.8125,2.125 0.950084,0.6026 1.890799,1.21971 2.84375,1.8125 0.199898,0.12435 0.412873,0.25121 0.625,0.375 0.03652,-0.66087 0.114874,-1.45949 0.28125,-2.125 0.29221,-1.16881 1.1664,-2.4773 1.3125,-3.5 0.1461,-1.02271 -0.7492,-2.48503 -1.1875,-4.96875 -0.43831,-2.48372 -0.85309,-6.14288 -1.4375,-7.75 -0.073,-0.20089 -0.1203,-0.24143 -0.15625,-0.1875 z"
         style="color:#000000;fill:#1d1d1d;fill-opacity:1;fill-rule:nonzero;stroke:none;stroke-width:1;marker:none;visibility:visible;display:inline;overflow:visible;enable-background:accumulate" /><path
         style="color:#000000;fill:#a0a0a0;fill-opacity:1;fill-rule:nonzero;stroke:none;stroke-width:1.11887534;marker:none;visibility:visible;display:inline;overflow:visible;enable-background:accumulate"
         d="m -153.15183,684.06027 c 0,-1.02271 0.87661,-3.36033 1.60711,-3.94474 0.73051,-0.5844 2.92203,-1.75321 2.92203,-1.75321 l -0.43831,-1.31492 c 0,0 -1.60711,-0.1461 -2.19152,-0.2922 -0.5844,-0.1461 -2.92202,-0.7305 -2.92202,-0.7305 0,0 0.1461,0 -0.58441,-0.14611 -0.7305,-0.1461 -1.02271,-0.8766 -1.31491,-0.1461 -0.2922,0.73051 -1.31491,2.04542 -1.75321,2.62983 -0.43831,0.5844 -1.31492,1.31491 -0.73051,1.75321 0.5844,0.43831 2.19152,1.46102 3.06813,2.04542 0.8766,0.58441 2.33762,1.89932 2.33762,1.89932 z"
         id="path7500-9-1"
         inkscape:connector-curvature="0" /><path
         style="color:#000000;fill:#a0a0a0;fill-opacity:1;fill-rule:nonzero;stroke:none;stroke-width:1.11887534;marker:none;visibility:visible;display:inline;overflow:visible;enable-background:accumulate"
         d="m -149.4993,685.52128 c 0.87661,-0.4383 2.19152,-0.87661 2.77593,-1.60711 0.5844,-0.73051 1.46101,-1.02271 2.33762,-2.04542 0.8766,-1.02271 1.46101,-3.21423 1.46101,-1.89932 0,1.31491 -0.2922,3.50643 -0.2922,3.50643 0,0 -1.88512,1.78574 -2.61563,2.22404 -0.7305,0.43831 -3.66673,-0.17862 -3.66673,-0.17862 z"
         id="path7502-1-4"
         inkscape:connector-curvature="0"
         sodipodi:nodetypes="ccssccc" /><path
         style="color:#000000;fill:#a0a0a0;fill-opacity:1;fill-rule:nonzero;stroke:none;stroke-width:1.11887534;marker:none;visibility:visible;display:inline;overflow:visible;enable-background:accumulate"
         d="m -134.74307,681.57655 c 0.43831,-0.58441 1.16881,-1.75322 2.33762,-2.77593 1.16881,-1.02271 3.06813,-3.94473 3.79864,-4.82134 0.7305,-0.87661 1.89931,-2.33762 1.89931,-1.60712 0,0.73051 -0.1461,3.06813 -0.7305,4.23694 -0.58441,1.16881 -2.19152,3.65253 -3.06813,4.09084 -0.87661,0.4383 -3.21423,1.31491 -3.21423,1.31491 z"
         id="path7504-8-6"
         inkscape:connector-curvature="0" /></g><g
       style="display:inline"
       transform="matrix(1.0000016,0,0,1.0000016,-178.72142,21.854454)"
       id="g5149-1-3"><path
         style="color:#000000;fill:#1a140c;fill-opacity:1;fill-rule:nonzero;stroke:none;stroke-width:0.25;marker:none;visibility:visible;display:inline;overflow:visible;enable-background:accumulate"
         d="m 348.35131,605.42905 c 0.81968,1.70242 0.25221,7.06185 0.25221,7.06185 0,0 5.6747,4.41365 6.05301,4.91806 0.37831,0.50442 4.7033,4.74828 4.7033,4.74828 l 1.2236,0.2959 5.04417,-7.56626 7.44016,-6.55743 c 0,0 1.89156,-6.43132 1.38715,-7.56626 -0.50442,-1.13493 -2.26988,-5.04417 -3.53092,-5.80079 -1.26105,-0.75663 -6.05301,-1.63936 -7.44016,-1.51326 -1.38715,0.12611 -3.0265,0 -4.66586,0.37832 -1.63935,0.37831 -2.14377,-0.25221 -4.03534,2.26988 -1.89156,2.52208 -2.14377,3.0265 -3.27871,4.79196 -1.13494,1.76546 -3.15261,4.53975 -3.15261,4.53975 z"
         id="path3219-9-0"
         inkscape:connector-curvature="0"
         sodipodi:nodetypes="ccsccccssssssc" /><path
         style="color:#000000;fill:#2a1f10;fill-opacity:1;fill-rule:nonzero;stroke:none;stroke-width:0.25;marker:none;visibility:visible;display:inline;overflow:visible;enable-background:accumulate"
         d="m 360.24571,596.72747 c -0.6773,0.0188 -1.12753,-0.22551 -2.02956,0.11275 -0.90202,0.33826 -1.24028,0.11276 -1.69129,0.78927 -0.45101,0.67652 -1.57854,0.90203 -0.11275,1.24029 1.46579,0.33826 2.02955,0.45101 2.70607,0.45101 0.67652,0 1.68853,0.85678 2.25506,1.57854 0.44818,0.57099 0.68291,1.31151 0.78927,2.02955 0.0718,0.48475 -0.0939,0.97611 -0.11275,1.46579 -0.0361,0.93892 -0.45102,2.36781 0,2.81883 0.45101,0.45101 2.1423,1.46578 2.59331,0.90202 0.45101,-0.56377 0.89109,-1.44859 1.12753,-2.25506 0.29777,-1.01563 0.33727,-2.0987 0.33826,-3.15708 6.7e-4,-0.71805 -0.0241,-1.45308 -0.2255,-2.14231 -0.21212,-0.72602 -0.52588,-1.45243 -1.01478,-2.02955 -0.66086,-0.78012 -1.50828,-1.48788 -2.48057,-1.80405 -0.6791,-0.22083 -1.42847,-0.0198 -2.1423,0 z"
         id="path4248-5-0"
         inkscape:connector-curvature="0"
         sodipodi:nodetypes="assssaaassaaaaaa" /><path
         style="color:#000000;fill:#202020;fill-opacity:1;fill-rule:nonzero;stroke:#0b0b0b;stroke-width:0.25;stroke-linecap:round;stroke-linejoin:round;stroke-miterlimit:4;stroke-opacity:1;stroke-dasharray:none;stroke-dashoffset:0;marker:none;visibility:visible;display:inline;overflow:visible;enable-background:accumulate"
         d="m 379.38483,643.7358 c -3.93861,-0.68859 -5.1163,3.39169 -5.93463,8.09268 0,0 10.68233,-0.64741 11.00604,-2.15804 0.32371,-1.51064 1.83434,-7.12156 1.07903,-7.01366 -0.75532,0.1079 -6.15044,1.07902 -6.15044,1.07902 z"
         id="path3022-3-4"
         inkscape:connector-curvature="0"
         sodipodi:nodetypes="ccssc" /><path
         style="color:#000000;fill:#705c46;fill-opacity:1;fill-rule:nonzero;stroke:#0b0b0b;stroke-width:0.25;stroke-linecap:round;stroke-linejoin:round;stroke-miterlimit:4;stroke-opacity:1;stroke-dasharray:none;stroke-dashoffset:0;marker:none;visibility:visible;display:inline;overflow:visible;enable-background:accumulate"
         d="m 380.61556,639.14225 c -1.37723,0.98751 -1.5455,3.01687 -2.3552,4.5056 -0.36025,0.66237 -1.11335,1.96903 -1.11335,1.96903 0,0 3.11066,0.51201 4.57832,0.0926 2.22836,-0.63681 4.60515,-1.82328 5.82733,-3.79238 0.69579,-1.121 1.41293,-3.01593 0.46248,-3.93103 -1.79838,-1.7315 -5.37077,-0.29853 -7.39958,1.15618 z"
         id="path3016-2-8"
         inkscape:connector-curvature="0"
         sodipodi:nodetypes="aacaaaa" /><path
         style="color:#000000;fill:#130d0c;fill-opacity:1;fill-rule:nonzero;stroke:#0b0b0b;stroke-width:0.25;stroke-linecap:butt;stroke-linejoin:miter;stroke-miterlimit:4;stroke-opacity:1;stroke-dasharray:none;stroke-dashoffset:0;marker:none;visibility:visible;display:inline;overflow:visible;enable-background:accumulate"
         d="m 372.05981,618.33095 c 2.5436,2.08113 4.16226,3.93102 4.39349,4.85597 0.23124,0.92494 0.69371,2.5436 0.69371,2.5436 l 2.54361,1.15618 0.92494,1.38742 0.92495,5.54968 -0.69371,2.77484 -0.68865,2.46167 -0.78294,1.94195 3.32148,-0.93507 3.69979,0 c 0,0 0.23124,1.8499 0.92495,-0.23123 0.69371,-2.08113 1.84989,-2.31237 2.08113,-3.93103 0.23123,-1.61865 0.69371,-5.31844 0.69371,-5.31844 0,0 0,-1.38742 0,-3.93102 0,-2.54361 0,-3.00608 -0.23124,-6.70587 -0.23124,-3.69978 -0.46247,-5.0872 -0.46247,-5.0872 0,0 -4.62474,0.46247 -6.01216,0.23123 -1.38742,-0.23123 -3.46855,-0.69371 -4.62473,-0.69371 -1.15618,0 -2.77484,-0.46247 -3.69979,0 -0.92494,0.46248 -3.00607,3.93103 -3.00607,3.93103 z"
         id="path3014-5-3-1"
         inkscape:connector-curvature="0"
         sodipodi:nodetypes="cccccccccccsscsscsscc" /><path
         style="color:#000000;fill:#7b644e;fill-opacity:1;fill-rule:nonzero;stroke:none;stroke-width:0.25;marker:none;visibility:visible;display:inline;overflow:visible;enable-background:accumulate"
         d="m 350.19082,606.71875 c -0.37037,0.0159 -0.66238,0.0717 -0.84675,0.15625 -0.11666,0.0535 -0.23496,0.14015 -0.35037,0.21875 0.16098,1.7705 0.0763,4.29526 0.001,5.20181 0.35889,0.0496 0.62741,0.125 0.81498,0.125 0.4214,0 1.34172,-0.35085 1.84077,-0.79556 0.42191,-0.37597 0.51617,-1.01041 0.84675,-1.46875 1.26949,-1.76009 0.40877,-4.27567 0.40877,-4.95219 0,0 -1.60431,1.46712 -2.71543,1.51469 z"
         id="path4285-2-0"
         inkscape:connector-curvature="0"
         sodipodi:nodetypes="csccsascc" /><path
         style="color:#000000;fill:#202020;fill-opacity:1;fill-rule:nonzero;stroke:#0b0b0b;stroke-width:0.25;stroke-linecap:round;stroke-linejoin:round;stroke-miterlimit:4;stroke-opacity:1;stroke-dasharray:none;stroke-dashoffset:0;marker:none;visibility:visible;display:inline;overflow:visible;enable-background:accumulate"
         d="m 384.24044,647.29658 c 0,0 -1.07903,-0.53951 -2.05015,0.21581 -0.97112,0.75531 -0.66262,1.22218 -1.72644,1.40273 -1.62613,0.27599 -3.21325,6.76897 -2.80546,7.01365 0,0 7.07791,-0.14606 10.25073,-1.51063 1.22245,-0.52575 2.49195,-1.30376 3.13897,-2.46659 0.93505,-1.68048 1.28503,-5.62609 0.63761,-5.73399 -0.64741,-0.1079 -7.44526,1.07902 -7.44526,1.07902 z"
         id="path3020-5-1"
         inkscape:connector-curvature="0"
         sodipodi:nodetypes="csscaasc" /><path
         style="color:#000000;fill:#725d47;fill-opacity:1;fill-rule:nonzero;stroke:#0b0b0b;stroke-width:0.25;stroke-linecap:round;stroke-linejoin:round;stroke-miterlimit:4;stroke-opacity:1;stroke-dasharray:none;stroke-dashoffset:0;marker:none;visibility:visible;display:inline;overflow:visible;enable-background:accumulate"
         d="m 386.29058,638.9881 c -0.75531,1.51063 -1.40273,1.83434 -2.05014,3.23707 -0.64742,1.40273 -1.72644,3.66868 -1.72644,3.66868 l -1.51064,4.10029 c 0,0 4.39749,-0.0681 6.36625,-0.91696 1.43396,-0.6183 2.74366,-1.65524 3.66868,-2.91337 0.65091,-0.8853 1.94224,-2.2122 1.18692,-3.07542 -0.75531,-0.86322 -5.93463,-4.10029 -5.93463,-4.10029 z"
         id="path3018-8-2"
         inkscape:connector-curvature="0"
         sodipodi:nodetypes="csccaasc" /><path
         style="color:#000000;fill:#5b452a;fill-opacity:1;fill-rule:nonzero;stroke:#0b0b0b;stroke-width:0.25;stroke-linecap:round;stroke-linejoin:round;stroke-miterlimit:4;stroke-opacity:1;stroke-dasharray:none;stroke-dashoffset:0;marker:none;visibility:visible;display:inline;overflow:visible;enable-background:accumulate"
         d="m 396.3125,568.0625 c -0.62676,0.0262 -1.21174,0.25 -2.21875,0.25 -1.61122,0 -2.9375,0.28125 -2.9375,0.28125 0,0 -2.94438,1.59375 -3.75,1.59375 -0.80561,0 -3.25,0.53125 -3.25,0.53125 l -2.40625,0.8125 c -1.61123,0.53707 -2.67003,0.80668 -4.28125,1.34375 -1.61122,0.53708 -4.59375,1.875 -4.59375,1.875 0,0 -2.11917,1.61335 -2.65625,2.6875 -0.53707,1.07414 -2.15625,2.96875 -2.15625,2.96875 l -2.96875,1.0625 c 0,0 -4.02649,-1.59375 -5.90625,-1.59375 -1.87976,0 -2.93857,0.5196 -4.28125,1.59375 -1.34269,1.07415 -3.51271,4.56356 -3.78125,5.90625 -0.26854,1.34268 -0.53813,1.87024 -1.34375,3.75 -0.80561,1.87976 -3.21875,0.28125 -3.21875,0.28125 -1.6155,1.00968 -0.95476,10.44836 0.28125,10.75 1.04355,0.25466 0.79396,3.74524 1.0625,5.625 0,0 1.61249,0.84257 3.5625,-1.53125 0.30923,-0.37644 0.15021,-1.69386 0.46875,-2.125 0.389,-0.52649 1.15448,0.99952 1.5625,0.46875 0.41449,-0.53917 0.23318,-2.52641 0.625,-3.15625 0.25546,-0.41063 0.98702,1.83495 1.25,1.46875 0.53103,-0.73944 -0.25844,-2.54029 0.15625,-3.5 0.31117,-0.72012 0.6598,0.57749 1.15625,0.15625 0.37161,-0.31531 -0.20801,-2.033 0.125,-2.6875 0.27658,-0.54363 1.4759,-0.0888 1.5625,-0.0937 22.95253,-1.24767 12.06925,17.46671 7.4375,16.8125 -2.73759,-0.38666 3.28125,4.125 3.28125,4.125 0,0 0.30774,-0.8125 2.1875,-0.8125 1.87976,0 6.1875,0.5625 6.1875,0.5625 0,0 5.3517,2.68381 7.5,5.90625 2.1483,3.22245 1.35064,0.80192 2.15625,3.21875 0.80561,2.41683 -0.28125,7.25 -0.28125,7.25 l -3.48989,10.44697 c 0,0 3.2468,-1.27123 5.12656,0.60853 1.87976,1.87976 4.83208,2.632 4.83208,2.632 0,0 1.34375,-0.80085 1.34375,-1.875 0,-1.07415 -1.61229,-5.37607 -1.34375,-6.71875 0.26854,-1.34269 1.34375,-1.0625 1.34375,-1.0625 l 2.65625,2.40625 0,-4.84375 2.6875,0 -2.9375,-4.5625 2.15625,0 c 0,0 -0.29396,-1.59482 -0.5625,-2.9375 -0.0782,-0.39099 -0.20659,-0.94745 -0.375,-1.53125 1.25158,-0.22055 2.49046,-0.5955 3.65625,-1 2.00311,-0.69506 3.62383,-2.2455 5.4375,-3.34375 2.00529,-1.21429 3.94914,-2.51649 6.03125,-3.59375 1.34397,-0.69535 4.86471,-3.56765 4.03125,-2.28125 -1.03758,1.60145 -0.70357,4.49632 5.09375,-0.15625 2.81784,-2.26142 5.83879,2.46772 8.84375,2.09375 2.31621,-0.28826 4.23496,-1.98892 6.21875,-3.21875 2.93429,-1.81907 6.26898,-3.36558 8.34375,-6.125 1.93007,-2.56696 3.61551,-5.8652 3.3125,-9.0625 -0.33176,-3.50074 -2.27926,-7.48502 -5.4375,-9.03125 -2.77895,-1.36054 -5.14532,-2.03218 -7.9375,-2.875 -1.92826,-0.58204 -3.15047,-1.44757 -4.75,-2.09375 -2.06927,-0.83595 -4.09208,-1.87867 -6.28125,-2.3125 -2.34017,-0.46376 -4.69827,-0.53713 -7.09375,-0.53125 -0.58175,-0.73596 -0.94339,-1.5967 -1.625,-1.9375 -1.07415,-0.53708 -2.03814,-2.8321 -2.84375,-3.90625 -0.80561,-1.07415 -4.99418,-0.83899 -5.53125,-2.71875 -0.53708,-1.87976 -3.4375,-3.59375 -3.4375,-3.59375 0,0 -1.08899,-1.05668 -2.96875,-1.59375 -1.87976,-0.53708 -2.40731,-0.27542 -3.75,-0.8125 -0.50351,-0.2014 -0.90519,-0.26573 -1.28125,-0.25 z"
         id="path4287-6-9"
         inkscape:connector-curvature="0"
         sodipodi:nodetypes="cscsccscsccsssscccsccccssccscscssccscssccccccsccsssssssssssscssscsscc" /><path
         sodipodi:type="arc"
         style="color:#000000;fill:#606060;stroke:#0b0b0b;stroke-width:0.2133621;stroke-linecap:round;stroke-linejoin:round;stroke-miterlimit:4;stroke-opacity:1;stroke-dasharray:none;stroke-dashoffset:0;marker:none;visibility:visible;display:inline;overflow:visible;enable-background:accumulate"
         id="path2990-7-0"
         sodipodi:cx="356.76605"
         sodipodi:cy="603.841"
         sodipodi:rx="1.8725537"
         sodipodi:ry="2.3183997"
         d="m 358.63861,603.841 c 0,1.28042 -0.83837,2.3184 -1.87256,2.3184 -1.03418,0 -1.87255,-1.03798 -1.87255,-2.3184 0,-1.28041 0.83837,-2.3184 1.87255,-2.3184 1.02413,0 1.85828,1.01864 1.87238,2.2865"
         sodipodi:start="0"
         sodipodi:end="6.269422"
         sodipodi:open="true"
         transform="matrix(0.89406463,0,0,0.75561139,37.962247,147.65297)" /><path
         sodipodi:type="arc"
         style="color:#000000;fill:#0b0b0b;stroke:#0b0b0b;stroke-width:0.21109805;stroke-linecap:round;stroke-linejoin:round;stroke-miterlimit:4;stroke-opacity:1;stroke-dasharray:none;stroke-dashoffset:0;marker:none;visibility:visible;display:inline;overflow:visible;enable-background:accumulate"
         id="path3015-7-3-7"
         sodipodi:cx="356.47946"
         sodipodi:cy="604.43359"
         sodipodi:rx="0.69647998"
         sodipodi:ry="1.7346293"
         d="m 357.17594,604.43359 c 0,0.95801 -0.31182,1.73463 -0.69648,1.73463 -0.38465,0 -0.69648,-0.77662 -0.69648,-1.73463 0,-0.95801 0.31183,-1.73463 0.69648,-1.73463 0.38466,0 0.69648,0.77662 0.69648,1.73463 z"
         transform="matrix(0.93865047,-0.76592262,0.36014762,0.4413667,-195.85385,610.84907)" /><path
         transform="matrix(0.32051674,-0.26153614,0.12297798,0.1507115,167.51528,606.92515)"
         d="m 357.17594,604.43359 c 0,0.95801 -0.31182,1.73463 -0.69648,1.73463 -0.38465,0 -0.69648,-0.77662 -0.69648,-1.73463 0,-0.95801 0.31183,-1.73463 0.69648,-1.73463 0.38466,0 0.69648,0.77662 0.69648,1.73463 z"
         sodipodi:ry="1.7346293"
         sodipodi:rx="0.69647998"
         sodipodi:cy="604.43359"
         sodipodi:cx="356.47946"
         id="path4321-2-8"
         style="color:#000000;fill:#ffffff;stroke:none;stroke-width:0.21109805;marker:none;visibility:visible;display:inline;overflow:visible;enable-background:accumulate"
         sodipodi:type="arc" /><path
         style="color:#000000;fill:#382f24;fill-opacity:1;fill-rule:nonzero;stroke:#0b0b0b;stroke-width:0.17536826;stroke-linecap:round;stroke-linejoin:round;stroke-miterlimit:4;stroke-opacity:1;stroke-dasharray:none;stroke-dashoffset:0;marker:none;visibility:visible;display:inline;overflow:visible;enable-background:accumulate"
         d="m 355.62244,605.11237 2.94456,-3.55081 c 0,0 -2.16373,-1.36615 -3.37759,0.25982 -1.0361,1.38785 0.43303,3.29099 0.43303,3.29099 z"
         id="path3217-2-8"
         inkscape:connector-curvature="0"
         sodipodi:nodetypes="ccsc" /><path
         style="color:#000000;fill:#aa8d6b;fill-opacity:1;fill-rule:nonzero;stroke:#0b0b0b;stroke-width:0.25;stroke-linecap:round;stroke-linejoin:round;stroke-miterlimit:4;stroke-opacity:1;stroke-dasharray:none;stroke-dashoffset:0;marker:none;visibility:visible;display:inline;overflow:visible;enable-background:accumulate"
         d="m 349.25948,613.14742 c -0.44584,0.89169 -0.51832,1.93542 0.0172,2.62919 0.72958,0.94518 2.63803,1.79665 3.45922,0.92987 0.19259,-0.20328 0.20296,-0.56388 0.0116,-0.85177 -0.10804,-0.16257 -0.53956,-0.50185 -0.42089,-0.39735 0.16761,0.14758 0.49561,0.29844 0.83571,0.27372 0.52912,-0.0385 1.48707,-0.1603 1.8376,-0.49605 0.34857,-0.33387 0.55948,-0.90007 0.46115,-1.37262 -0.14642,-0.70366 -0.83977,-1.21272 -1.44501,-1.60034 -0.41958,-0.26871 -0.92936,-0.47581 -1.42671,-0.44585 -0.61663,0.0371 -1.68973,0.76111 -1.68973,0.76111"
         id="path3223-9-5"
         inkscape:connector-curvature="0"
         sodipodi:nodetypes="casssssaaac" /><path
         style="color:#000000;fill:#0b0b0b;stroke:#0b0b0b;stroke-width:0.25;stroke-linecap:round;stroke-linejoin:round;stroke-miterlimit:4;stroke-opacity:1;stroke-dasharray:none;stroke-dashoffset:0;marker:none;visibility:visible;display:inline;overflow:visible;enable-background:accumulate"
         d="m 348.57399,612.62943 c 0,0 0.22759,2.37215 0.29735,2.00711 0.0678,-0.35459 3.00006,0.46865 3.0997,0.5849 -0.60067,-0.64555 -1.02586,-1.40254 -0.80086,-3.01138 -0.73539,0.6165 -1.6501,0.57545 -2.59619,0.41937 z"
         id="path3029-4-7"
         inkscape:connector-curvature="0"
         sodipodi:nodetypes="csccc" /><path
         style="color:#000000;fill:#202020;fill-opacity:1;fill-rule:nonzero;stroke:#0b0b0b;stroke-width:0.25;stroke-linecap:round;stroke-linejoin:round;stroke-miterlimit:4;stroke-opacity:1;stroke-dasharray:none;stroke-dashoffset:0;marker:none;visibility:visible;display:inline;overflow:visible;enable-background:accumulate"
         d="m 440.24804,650.12999 c -0.49053,0 -1.88036,0.32702 -1.88036,0.32702 -1.83583,0.51509 -3.31458,2.10144 -4.4965,4.57826 l 8.91124,0.1635 c 1.51078,0 1.31234,-4.25123 0.40878,-4.41474 -0.35978,-0.0651 -2.94316,-0.65404 -2.94316,-0.65404 z"
         id="path3012-1-7"
         inkscape:connector-curvature="0"
         sodipodi:nodetypes="ccccsc" /><path
         style="color:#000000;fill:#5b452a;fill-opacity:1;fill-rule:nonzero;stroke:#0b0b0b;stroke-width:0.25;stroke-linecap:round;stroke-linejoin:round;stroke-miterlimit:4;stroke-opacity:1;stroke-dasharray:none;stroke-dashoffset:0;marker:none;visibility:visible;display:inline;overflow:visible;enable-background:accumulate"
         d="m 442.21014,590.12218 c -0.0424,-0.25456 6.99435,0.55762 9.72879,10.54634 0.95742,3.4974 0.23831,7.24834 0.32702,10.87334 0.10602,4.33247 -0.82109,8.79845 0.24526,12.99897 0.20394,0.80334 0.94821,1.40214 1.14456,2.20737 0.17431,0.71485 0.14626,1.48627 0,2.20737 -0.30587,1.50798 -1.79859,4.25124 -1.79859,4.25124 -0.78824,4.34842 -1.97678,8.66198 -0.40878,13.65301 l -3.7607,0.57228 -3.35194,4.33298 -1.14456,0.24527 -4.74176,-1.55334 c 3.35813,-2.90192 5.46757,-5.5457 6.86737,-8.01194 0.15696,-4.76486 0.41007,-9.37415 0.57229,-13.48949 0,0 -0.24527,-1.88036 -0.24527,-2.20738 0,-0.32701 -5.84294,-5.54278 -7.60317,-9.07475 -1.83402,-3.68004 -2.77965,-12.01791 -2.77965,-12.01791"
         id="path3010-9-0"
         inkscape:connector-curvature="0"
         sodipodi:nodetypes="csaaaaccccccccsac" /><path
         style="color:#000000;fill:#836c51;fill-opacity:1;fill-rule:nonzero;stroke:none;stroke-width:0.25;marker:none;visibility:visible;display:inline;overflow:visible;enable-background:accumulate"
         d="m 450.66419,611.47326 c -0.20462,0.81848 -1.34166,3.42661 -1.13704,4.44971 0.20462,1.0231 0.0233,6.1231 0.0233,6.73696 0,0.61386 1.22772,3.27392 1.22772,3.27392 l 1.22772,1.22772 c 0,0 -1.63696,3.0693 -1.63696,4.91089 0,1.84158 -0.81848,4.70626 -0.81848,5.52474 0,0.81848 0.40924,2.86468 0.40924,2.86468 l 2.45544,-9.61714 0.81849,-4.50165 c 0,0 -1.84159,-1.63696 -1.84159,-2.66006 0,-1.0231 0.61386,-12.89107 0.61386,-12.89107 z"
         id="path4095-6-8"
         inkscape:connector-curvature="0"
         sodipodi:nodetypes="cssccsscccscc" /><path
         sodipodi:nodetypes="csscsssssscc"
         inkscape:connector-curvature="0"
         id="path4275-9-9"
         d="m 439.51664,616.27363 c 0.98482,2.42223 4.38505,4.54334 4.87745,5.86455 0.49241,1.32121 1.68613,3.07449 3.40955,3.07449 1.72344,0 2.29977,0.74987 2.29977,0.74987 0,0 0.19664,-7.51021 0.44284,-8.39102 0.24621,-0.88081 0.54198,-4.60093 1.03438,-6.36255 0.49242,-1.76162 0.98482,-3.08283 0.98482,-4.84445 0,-1.76162 -0.73862,-4.62425 -1.72343,-5.06465 -0.98482,-0.44041 -1.96962,-3.30304 -3.93926,-0.66061 -1.96963,2.64243 -2.46205,4.18385 -3.44685,6.38587 -0.98482,2.20202 -2.95445,8.14749 -2.95445,8.14749 z"
         style="color:#000000;fill:#18130c;fill-opacity:1;fill-rule:nonzero;stroke:none;stroke-width:0.25;marker:none;visibility:visible;display:inline;overflow:visible;enable-background:accumulate" /><path
         style="color:#000000;fill:#2c2110;fill-opacity:1;fill-rule:nonzero;stroke:none;stroke-width:0.25;marker:none;visibility:visible;display:inline;overflow:visible;enable-background:accumulate"
         d="m 423.71875,600.3125 c -0.041,0.0411 -0.1483,1.4682 -0.3125,2.125 -0.21893,0.87573 -0.65588,3.85744 -1.09375,6.15625 -0.1933,1.12417 -0.60406,1.65003 -1.3125,3.15625 -0.16488,0.72193 -1.40373,0.83158 -2.0625,1 -0.87574,0.21894 -1.54568,0.0936 -2.96875,0.3125 -1.42307,0.21894 -1.62445,0.6716 -2.28125,1 -0.6568,0.3284 -1.76499,0.87463 -2.53125,1.3125 -0.76627,0.43787 -2.42105,1.42142 -3.40625,1.96875 -0.98521,0.54734 0,-0.015 0,-0.78125 0,-0.76627 0.0157,-1.09246 -0.0937,-2.625 -0.10947,-1.53254 -0.12482,-1.6239 -0.34375,-2.9375 -0.21894,-1.31361 -1.84375,-4.375 -1.84375,-4.375 0,0 -0.0155,2.17123 -0.125,2.9375 -0.10947,0.76627 -0.32803,3.4057 -0.4375,4.0625 -0.10947,0.6568 -0.0936,1.07766 -0.3125,1.625 -0.21893,0.54733 -0.34338,0.76535 -0.78125,1.09375 -0.43787,0.3284 -0.85892,0.65588 -1.40625,1.09375 -0.54734,0.43787 -1.42086,0.67178 -2.625,0.78125 -1.20414,0.10946 -4.9375,0.0937 -4.9375,0.0937 0,0 -0.4375,0.67123 -0.4375,1.4375 0,0.62388 0.39251,3.85549 1,6.75 2.14835,0.3002 4.46877,-0.37813 6.53125,-1.09375 2.00311,-0.69506 3.62383,-2.2455 5.4375,-3.34375 2.00529,-1.21429 3.94914,-2.51649 6.03125,-3.59375 2.43823,-1.26151 4.79246,-3.12443 7.53125,-3.3125 1.02094,-0.0701 3.31956,0.44611 4.29666,0.81313 1.15308,-0.11246 -0.60827,-0.71405 -0.63851,-0.81989 -0.21893,-0.76627 -1.28315,-1.7573 -1.28315,-3.61824 0,-1.86095 0.0937,-2.71691 0.0937,-4.90625 0,-2.18935 0.34375,-4.27996 0.34375,-5.8125 0,-0.38314 -0.0176,-0.51368 -0.0312,-0.5 z"
         id="path3036-8-3"
         inkscape:connector-curvature="0"
         sodipodi:nodetypes="csccccsssscsccscssscsccssscsssscc" /><path
         style="color:#000000;fill:#130d0c;fill-opacity:1;fill-rule:nonzero;stroke:#311d0d;stroke-width:0.1;marker:none;visibility:visible;display:inline;overflow:visible;enable-background:accumulate"
         d="m 348.60208,607.9481 c -0.95338,-1.57339 -0.0294,-5.17679 -1.03269,-5.42163 -1.18831,-0.28999 -2.44342,-9.51423 -0.89027,-10.48495 0,0 2.6396,1.70708 3.41411,-0.10013 0.77453,-1.80721 1.0327,-2.00751 1.29087,-3.29837 0.25818,-1.29087 2.0075,-5.43725 3.29837,-6.46994 1.29086,-1.03269 2.32356,-1.54903 4.13077,-1.54903 1.80721,0 5.52177,1.54903 5.52177,1.54903 l 2.68187,-0.87466 c 0,0 2.4972,-1.49116 3.01354,-2.52384 0.51635,-1.0327 2.86484,-3.43107 2.86484,-3.43107 0,0 2.17931,-1.00775 3.72835,-1.5241 1.54903,-0.51634 2.20424,-0.86889 3.75329,-1.38523 1.54903,-0.51634 2.88977,-0.86889 2.88977,-0.86889 0,0 1.75733,-0.70509 2.53185,-0.70509 0.77453,0 3.42568,-0.60533 3.42568,-0.60533 0,0 1.66835,-1.57935 3.21738,-1.57935 1.54904,0 3.00909,-0.70508 4.29995,-0.18874 1.29087,0.51635 2.27906,0.54129 4.08627,1.05764 1.80721,0.51634 2.74553,1.6434 2.74553,1.6434 0,0 2.97444,1.46016 3.49079,3.26737 0.51634,1.80721 4.53447,1.93503 5.30899,2.96772 0.77451,1.0327 1.6215,3.05913 2.6542,3.57548 1.03269,0.51634 1.29086,2.32355 2.8399,2.83989 1.54903,0.51635 2.8399,0 3.8726,0.51635 1.03268,0.51635 4.25005,0.71927 4.25005,0.71927 0,0 -2.42708,0.32062 -4.11701,1.18715 -1.01874,0.52237 -0.98862,1.60357 -2.20757,1.91245 -2.64122,0.66927 -5.45035,-0.16799 -6.26182,0.41163 -1.80722,1.29086 -2.8399,1.80721 -3.61442,3.35626 -0.77452,1.54903 -1.54904,5.16345 -2.58173,6.19615 -1.03269,1.03268 -2.8399,4.38893 -2.8399,4.38893 0,0 -2.32355,1.03269 -3.35625,3.09807 -1.03269,2.06539 -2.06538,6.45433 -2.06538,6.45433 l -2.32356,4.38894 c 0,0 -1.29086,0.77451 -1.29086,2.58172 0,0.37886 2.83694,3.27166 1.18899,2.35045 -1.26348,-0.70628 -0.41447,1.52214 -0.41447,1.52214 0,0 1.67687,0.82624 1.90108,1.53501 0.31997,1.01145 0.23305,1.8653 0.38472,2.62431 0.25817,1.29086 0.60473,3.37569 0.60473,3.37569 l -2.45994,0.22963 2.15101,3.85314 -1.6808,0.60062 -0.1001,3.84628 -2.61711,-1.66408 c 0,0 -1.0327,-0.25818 -1.29087,1.03269 -0.25818,1.29086 1.36741,5.95743 1.36741,6.99013 0,1.03269 -1.29087,1.80721 -1.29087,1.80721 0,0 -2.33599,-1.59611 -4.55145,-2.87038 -2.20089,-1.26589 -4.65272,-0.31582 -4.65272,-0.31582 l 3.29784,-10.33595 c 0,0 1.03269,-4.45027 0.25817,-6.77382 -0.77451,-2.32355 -0.51597,-1.75771 -2.95117,-4.5744 -2.50828,-2.90122 -7.47489,-5.04006 -7.47489,-5.04006 0,0 -4.13077,-0.51635 -5.93798,-0.51635 -1.80721,0 -2.09524,0.77025 -2.09524,0.77025 0,0 -5.78116,-4.34052 -3.14923,-3.96878 4.45299,0.62896 14.91885,-17.36395 -7.14782,-16.16443 -0.0833,0.005 -1.25256,-0.4267 -1.51846,0.096 -0.32016,0.62924 0.2406,2.26846 -0.11667,2.5716 -0.47729,0.40498 -0.80263,-0.82169 -1.10179,-0.12936 -0.39868,0.92267 0.34215,2.62862 -0.16839,3.33952 -0.25283,0.35207 -0.94058,-1.7787 -1.18618,-1.38392 -0.3767,0.60553 0.11546,3.25675 -0.28303,3.77511 -0.39227,0.51028 -1.44587,-1.69649 -1.81986,-1.19032 -0.30625,0.4145 0.73439,2.8663 0.28989,2.7187 -0.28212,-0.0937 -2.17479,1.57277 -3.38471,1.40468 -0.32822,-0.0456 -0.60781,-0.33352 -0.77954,-0.61692 z"
         id="path3211-2-0"
         inkscape:connector-curvature="0"
         sodipodi:nodetypes="cscssssccscsscscssscssssscssssscsccsscssccccccsscsccsscscssssssssssaac" /><path
         style="color:#000000;fill:#2a2010;fill-opacity:1;fill-rule:nonzero;stroke:none;stroke-width:0.1;marker:none;visibility:visible;display:inline;overflow:visible;enable-background:accumulate"
         d="m 392.21759,576.65553 c -1.69693,0.56564 -0.45251,-2.94135 -2.71509,-2.37571 -2.26258,0.56565 -3.39387,0.56565 -4.18577,2.37571 -0.7919,1.81006 -1.92319,2.03632 -0.45251,2.71509 1.47067,0.67877 1.35754,3.05448 0.7919,3.50699 -0.56564,0.45252 1.24442,-3.05447 -0.7919,1.01816 -2.03632,4.07264 -1.92319,3.95951 -2.26258,4.75141 -0.33938,0.7919 -1.24442,1.01816 -1.92319,1.47068 -0.67877,0.45251 -1.01816,0 -0.67877,1.13129 0.33939,1.13128 1.24442,2.26257 2.3757,1.92319 1.13129,-0.33939 -0.45251,3.84637 -1.69693,4.18576 -1.24442,0.33939 -2.26257,0.22626 -2.03632,0.67877 0.22626,0.45252 2.37571,0.90503 4.97767,0.90503 2.60196,0 1.58381,-3.50699 2.94135,-3.50699 1.35755,0 9.61595,4.75141 9.61595,4.75141 0,0 -1.81006,-3.39386 -2.94135,-3.95951 -1.13129,-0.56564 2.71509,-1.92319 3.39386,-1.92319 0.67878,0 2.37571,-0.67877 2.60197,-1.01816 0.22625,-0.33938 -2.60197,-0.45251 -4.2989,-1.47067 -1.69693,-1.01816 -5.65644,-3.28074 0.11313,-3.28074 5.76957,0 8.14528,-0.56564 8.14528,-0.56564 0,0 1.92319,-2.37571 0.33938,-3.50699 -1.5838,-1.13129 -0.11313,-0.56565 -2.71509,-1.35755 -2.60196,-0.7919 3.73325,-3.05448 4.52515,-3.05448 0.7919,0 -0.7919,-2.26257 -0.90503,-2.71509 -0.11313,-0.45251 -1.69693,-2.60196 -2.14945,-2.71509 -0.45251,-0.11313 -5.09079,-0.45252 -5.09079,-0.45252 z"
         id="path5018-5-7"
         inkscape:connector-curvature="0"
         sodipodi:nodetypes="cssssssssssssscssssscssssscc" /><path
         inkscape:connector-curvature="0"
         style="color:#000000;fill:#100c0c;fill-opacity:1;fill-rule:nonzero;stroke:#100c0c;stroke-width:0.1;marker:none;visibility:visible;display:inline;overflow:visible;enable-background:accumulate"
         d="m 397.96875,570.59375 c 0,0 3.00092,3.51164 3.53125,4.21875 0.53033,0.70711 0.875,1.96875 0.875,1.96875 0,0 -0.54382,0.85448 -1.78125,1.03125 -1.23744,0.17678 -1.04105,0.53309 -0.6875,1.59375 0.35355,1.06066 1.40625,3.1875 1.40625,3.1875 0,0 0.70803,1.58486 0.53125,2.46875 -0.17677,0.88388 -0.88756,1.42065 -2.125,3.71875 -1.23743,2.2981 -1.05454,1.06342 -2.46875,1.59375 -1.41421,0.53033 -6.71875,1.78125 -6.71875,1.78125 0,0 3.72335,0.875 6.375,0.875 2.65165,0 2.29473,-9.2e-4 4.0625,-0.53125 1.76777,-0.53033 1.23744,0.52421 0,2.46875 -1.23744,1.94455 -0.37776,0.002 -1.96875,1.0625 -1.59099,1.06066 -3.17157,0.52144 -6,0.875 -2.82843,0.35355 0.875,1.25 0.875,1.25 0,0 1.41422,3.16789 0,3.875 -1.41421,0.70711 -2.81526,0.37408 -4.40625,-0.15625 -1.59099,-0.53033 -1.9375,0.15625 -1.9375,0.15625 0,0 0.34192,3.20987 -0.71875,4.09375 -0.91219,0.76017 -1.96411,0.34413 -3.8125,0.4375 0.17393,-0.55179 0.18646,-0.98056 -0.0625,-1.3125 -0.24526,-0.32702 -0.31309,-0.0811 -0.34375,0.0312 -0.0182,-0.0435 -0.0765,-0.22328 -0.15625,-0.78125 -0.24527,-1.71685 0.0937,-2.78125 0.0937,-2.78125 0,0 -0.89173,-0.63195 -1.21875,-1.53125 -0.32701,-0.8993 -1.2503,-0.97823 -0.1875,-1.46875 1.06281,-0.49053 1.39173,-0.59848 1.71875,-0.84375 0.32702,-0.24526 0.50726,-0.88921 0.34375,-1.625 -0.16351,-0.73579 -0.75,-1.45423 -0.75,-1.78125 0,-0.32701 -0.24527,0.40909 0,-1.0625 0.24526,-1.47158 -0.15656,-1.71623 0.90625,-2.125 1.0628,-0.40878 1.23296,-0.41099 1.96875,-0.65625 0.7358,-0.24526 0.4757,-0.35323 1.375,-0.84375 0.8993,-0.49053 1.06471,-0.37974 1.71875,-0.625 0.65403,-0.24526 1.32954,-0.34123 0.59375,-0.75 -0.73579,-0.40877 -0.82198,-0.24274 -1.3125,-0.40625 -0.49053,-0.16351 -0.34122,0.6493 -0.75,-0.25 -0.40877,-0.8993 -0.65151,-1.47823 -0.40625,-1.96875 0.24527,-0.49053 0.007,-0.81724 0.90625,-1.0625 0.8993,-0.24527 1.04798,-0.23075 1.375,-0.3125 0.32702,-0.0818 0.10569,-1.22096 0.1875,-1.875 0.0817,-0.65403 -0.26704,-0.74022 0.46875,-1.3125 0.7358,-0.57228 1.63004,-0.65372 0.8125,-1.0625 -0.81755,-0.40877 -0.89647,-0.40625 -1.46875,-0.40625 -0.57228,0 -0.9615,0.16129 -1.125,-0.65625 -0.12552,-0.62759 -0.12021,-1.02366 -0.125,-1.21875 0.0102,0.0313 0.01,-0.0624 -0.0312,-0.59375 -0.0818,-1.06281 -0.74784,-1.2257 -0.0937,-2.125 0.65404,-0.8993 0.66573,-0.87974 1.15625,-1.125 0.49053,-0.24527 0.72349,-0.82923 0.96875,-1.15625 0.24526,-0.32702 0.40846,-0.48074 1.0625,-0.5625 0.65403,-0.0818 1.0622,-0.16099 2.125,-0.40625 0.69554,-0.16051 1.00059,-0.54429 1.15625,-0.78125 -0.16862,0.0383 -0.43498,0.0841 -0.84375,0.125 -1.63509,0.16351 -1.45645,0.15625 -2.4375,0.15625 -0.61316,0 -0.7899,-0.35106 -1.1875,-0.375 -0.0596,-0.004 -0.11689,-0.0116 -0.1875,0 -0.21183,0.0348 -0.49237,0.16158 -0.90625,0.4375 -1.47158,0.98105 -1.56945,1.39899 -2.46875,1.5625 -0.75512,0.13729 -1.52652,0.25486 -2.125,0.34375 0.0155,-0.003 -0.10583,0.003 -0.0937,0 -0.085,0.0125 -0.24141,0.0524 -0.3125,0.0625 -0.0583,0.003 0.0854,-0.0421 -0.8125,0.0937 -2.6979,0.40877 -2.68719,0.3245 -3.75,0.40625 -1.0628,0.0818 -1.82671,0.30998 -2.5625,0.71875 -0.73579,0.40877 -1.375,0.75 -1.375,0.75 0,0 -1.40373,2.22096 -1.8125,2.875 -0.40877,0.65404 -0.48075,0.97096 -0.5625,1.625 -0.0818,0.65404 -0.8918,-0.041 -1.21875,0.53125 -0.32701,0.57228 -0.69445,1.00473 -1.59375,1.25 -0.8993,0.24526 0.76009,1.8125 -0.875,1.8125 -1.63509,0 -4.59375,0.625 -4.59375,0.625 0,0 -2.0382,-2.053 -2.9375,-1.5625 -0.8993,0.49053 -1.7882,0.14431 -2.6875,0.0625 -0.8993,-0.0817 -0.26421,-0.38957 -1,-0.0625 -0.73579,0.32702 -1.86521,1.05524 -2.4375,1.21875 -0.57228,0.16351 -0.74748,0.24495 -1.15625,1.0625 -0.40877,0.81754 -0.62973,1.15121 -0.875,1.96875 -0.12263,0.40877 0.0655,0.29695 0.15625,0.25 -0.0278,0.0568 -0.11194,0.23258 -0.40625,0.625 -0.98106,1.30808 -0.1512,3.56724 -0.96875,3.8125 -0.81755,0.24526 -1.96875,2 -1.96875,2 0,0 -1.8245,-1.28156 -1.90625,-0.21875 -0.0818,1.06281 -0.5,1.22822 -0.5,1.71875 0,0.49053 0.0815,2.31472 0,2.96875 -0.0817,0.65404 0.46149,1.51646 0.625,2.90625 0.16351,1.38983 0.79325,0.11048 0.875,0.4375 0.0818,0.32702 -0.14424,1.50947 -0.0625,2 0.0817,0.49052 0.46875,3.96875 0.46875,3.96875 0,0 2.05746,-0.43024 2.875,-0.59375 0.81755,-0.16351 -0.18975,-1.54535 -0.6875,-2.6875 -0.30584,-0.70181 2.13795,0.58895 2.1875,0.0937 0.18534,-1.85222 0.27388,-2.54902 0.375,-2.84375 0.1358,-0.39587 0.6531,1.09866 1.21875,0.21875 0.24995,-0.38881 0.0324,-1.89909 0.28125,-2.25 0.22194,-0.31292 0.68576,0.0263 0.9375,-0.1875 0.48732,-0.41395 -0.19644,-1.65411 0.3125,-1.9375 0.66912,-0.37258 3.0874,-0.18697 3.84375,-0.25 1.96211,-0.16351 2.90563,-0.0147 5.03125,0.3125 2.12561,0.32702 3.57418,-0.48609 4.71875,1.3125 1.14456,1.7986 1.65625,2.4375 1.65625,2.4375 0,0 1.29072,-0.008 1.78125,2.28125 0.49052,2.28912 0.65403,2.95866 0,4.59375 -0.65404,1.63509 -1.30745,3.58871 -2.125,4.40625 -0.81754,0.81755 -2.24623,0.88702 -3.09375,1.65625 -1.3406,1.24959 -3.23009,0.1689 -4.375,0.9375 -1.33146,0.89384 -3.37778,1.1889 -4.03125,2.28125 -0.49091,0.82061 0.29074,2.53959 0.0937,2.875 -0.67185,0.14739 -1.9241,0.55146 -2.125,0.46875 l -0.3125,-0.1875 c -0.0165,0.0289 -0.0156,0.0644 -0.0312,0.0937 -0.4964,0.92492 -0.65625,2.03125 -0.65625,2.03125 0,0 0.26833,0.28874 0,1.09375 -0.26833,0.805 -0.93,1.20583 -0.125,0.9375 l 1.59375,-0.53125 0.8125,-0.40625 0,2.6875 c 0,0 -0.53667,1.19292 0,0.65625 0.53667,-0.53667 0.8125,-0.9375 0.8125,-0.9375 0,0 0.92834,-0.93208 1.0625,-1.46875 0.13417,-0.53667 0.0129,-1.47042 0.28125,-0.53125 0.26833,0.93917 0.25,1.46875 0.25,1.46875 0,0 0.38209,-0.0682 0.6875,-0.8125 l 0.625,-1.5625 c 0.23552,0.13603 0.45194,0.25747 0.71875,0.40625 0,0 -0.28125,-1.20392 -0.28125,-1.40625 0,-0.20233 -0.12342,-0.79139 0.28125,-0.53125 0.40466,0.26014 0.42502,0.26407 0.65625,0.4375 0.23124,0.17343 0.4375,0.3125 0.4375,0.3125 0,0 0.1586,-0.58361 0.1875,-0.84375 0.0289,-0.26014 0,-0.46875 0,-0.46875 0,0 -0.0367,-0.41639 0.28125,-0.15625 0.31795,0.26014 0.44923,1.48129 0.59375,0.0937 0.14452,-1.38742 0.125,-1.06408 0.125,-1.46875 0,-0.40466 -0.21951,-0.53594 0.15625,-0.59375 0.37576,-0.0578 0.34299,-0.11562 0.71875,0 0.37576,0.11561 0.59533,0.34375 1,0.34375 0.40466,0 0.59375,0.6875 0.59375,0.6875 0,0 -0.34215,-0.16481 0.0625,0.5 0.40467,0.66481 0.41329,0.79298 0.5,0.9375 0.0867,0.14452 0.70861,0.44295 0.96875,0.125 0.26014,-0.31795 0.23282,-0.53125 0.40625,-0.53125 0.17343,0 0.67267,1.04456 0.875,1.59375 0.20233,0.54919 0.13907,0.52111 0.3125,0.78125 0.17343,0.26014 0.44454,-0.16563 0.53125,-0.28125 0.0867,-0.11562 0.66329,-0.64997 0.75,-0.1875 0.0867,0.46247 0.0766,0.5774 0.25,1.53125 0.17343,0.95385 0.12734,2.01407 0.15625,2.1875 0.0289,0.17342 -0.0898,0.49382 0.34375,0.0312 0.43357,-0.46247 0.21564,-0.31175 0.5625,-0.6875 0.34685,-0.37576 0.79798,-2.10323 1.125,-2.59375 0.32702,-0.49053 0.87248,-0.98548 1.28125,-1.3125 0.40877,-0.32701 0.59123,-1.45897 1,-2.03125 0.40878,-0.57228 1.0625,-1.5 1.0625,-1.5 0,0 -0.15404,-0.89647 0.5,-1.46875 0.65404,-0.57228 0.71875,-1.375 0.71875,-1.375 0,0 -0.49779,-0.73327 0.15625,-0.40625 0.65404,0.32702 0.89899,1.04577 1.0625,0.71875 0.10628,-0.21256 0.10138,-0.66754 0.0937,-1.03125 0.8515,0.15809 1.18595,0.22699 2,0.375 1.94454,0.35355 3.16973,0.36428 4.9375,0.1875 1.76776,-0.17677 3.88756,0.51164 5.125,1.21875 1.23744,0.70711 3.54289,0.0248 4.25,-3.6875 0.70711,-3.71231 1.21967,-6.21079 1.75,-7.625 0.53033,-1.41421 1.08487,-1.59559 1.96875,-2.65625 0.88388,-1.06066 3,-2.28125 3,-2.28125 0,0 2.29289,-5.13664 3,-5.84375 0.70711,-0.7071 2.81434,-5.45986 3.875,-6.34375 1.06066,-0.88388 2.50276,-1.59375 4.09375,-1.59375 1.59099,0 4.39737,-9.2e-4 5.28125,-0.53125 0.88388,-0.53033 -2.63756,-0.89644 -3.875,-1.25 -1.23743,-0.35355 -2.29473,-0.3652 -4.0625,-0.71875 -1.76777,-0.35356 -3.375,-3 -3.375,-3 l 4.96875,0.90625 c 0,0 -4.0671,-3.36703 -6.71875,-4.78125 -2.65165,-1.41421 -3.91004,-2.69027 -4.0625,-4.0625 -0.17678,-1.59099 -4.94914,-2.46875 -5.65625,-2.46875 z m -3.90625,0.3125 c 0,0 -0.0589,0.0803 -0.125,0.1875 0.41105,-0.10774 0.125,-0.1875 0.125,-0.1875 z"
         id="path4245-5-4" /><path
         style="color:#000000;fill:#c7c5c8;fill-opacity:1;stroke:#0b0b0b;stroke-width:0.25;stroke-linecap:round;stroke-linejoin:round;stroke-miterlimit:4;stroke-opacity:1;stroke-dasharray:none;stroke-dashoffset:0;marker:none;visibility:visible;display:inline;overflow:visible;enable-background:accumulate"
         d="m 355.9904,591.54176 c 3.96421,-1.9202 3.67284,-5.45353 3.01456,-9.45385 5.1212,3.77343 8.18189,8.12895 -0.77127,14.90183 -1.11957,-1.56812 -3.65626,-2.1915 -2.24329,-5.44798 z"
         id="path3215-4-7"
         inkscape:connector-curvature="0"
         sodipodi:nodetypes="cccc" /><path
         style="color:#000000;fill:#2f281d;fill-opacity:1;fill-rule:nonzero;stroke:none;stroke-width:0.25;marker:none;visibility:visible;display:inline;overflow:visible;enable-background:accumulate"
         d="m 361.61809,614.10316 c -0.34625,-0.57006 -1.52002,-0.92687 -1.27083,-1.54555 0.28871,-0.71679 2.30243,-0.27023 2.30243,-0.27023 l 1.61413,-1.01478 2.09837,-0.90202 c 0,0 0.58893,-0.40148 0.80705,-0.67652 0.44482,-0.56088 0.73771,-1.23916 0.96848,-1.9168 0.18502,-0.5433 0.23498,-1.12411 0.32283,-1.69129 0.0695,-0.44886 0.13446,-0.89963 0.16141,-1.35304 0.0335,-0.56277 0.14166,-1.14561 0,-1.69129 -0.19456,-0.74945 -1.34465,-1.28565 -1.12989,-2.02956 0.17633,-0.61078 1.25052,-0.44055 1.67305,-0.91553 0.34702,-0.3901 -0.0589,-1.00127 0.58673,-1.45228 0.64565,-0.45101 1.77553,-1.12753 1.77553,-1.12753 0,0 0.48424,1.01478 1.45272,1.12753 0.96848,0.11275 1.2913,0.45101 1.2913,1.01478 0,0.56376 -0.48424,0.56376 0,1.01477 0.48424,0.45102 0.96848,0.78928 0.96848,1.46579 0,0.67652 -0.48424,0.90203 -0.16141,1.57854 0.32282,0.67652 0.16141,0.78927 -0.32283,1.6913 -0.48424,0.90202 -1.12989,0.67652 -0.48424,1.69129 0.64566,1.01478 1.29131,0.90203 0.32283,1.24029 -0.96848,0.33825 -1.93696,-0.56377 -1.61413,0.78927 0.32283,1.35303 2.25978,2.36781 1.12989,2.59331 -1.12989,0.22551 -2.42118,0.45102 -2.42118,0.45102 l -0.48424,0.90202 c 0,0 -1.61413,0 -1.77555,0.56376 -0.16141,0.56377 -0.16141,1.35304 -0.16141,1.35304 l -1.2913,-0.33826 c 0,0 -0.80707,-0.78927 -0.96848,0 -0.1614,0.78927 -0.64564,1.6913 -0.64564,1.6913 0,0 -1.61413,0 -1.93696,-0.45102 -0.32282,-0.45101 0,-1.24028 -0.64565,-0.78927 -0.64565,0.45102 0.3927,0.66818 -0.25295,0.78093 -0.64564,0.11275 -0.95436,-0.0476 -1.29129,-0.33826 -0.39678,-0.34224 -0.34523,-0.99786 -0.61725,-1.44571 z"
         id="path4273-9-8-4"
         inkscape:connector-curvature="0"
         sodipodi:nodetypes="aacccaaaaaaascsssscssssscccccccsssaa" /><path
         style="color:#000000;fill:none;stroke:none;stroke-width:0.25;marker:none;visibility:visible;display:inline;overflow:visible;enable-background:accumulate"
         d="m 357.47228,609.60127 c 0,0.56922 0.47435,2.94099 0.85383,3.2256 0.37949,0.28461 0.85384,0.0949 1.51793,0.85383 0.6641,0.75897 0.85384,0.75897 1.23332,1.42306 0.37948,0.66409 0.75896,1.70767 0.66409,2.08715 -0.0949,0.37949 0.0949,0.28461 -0.18974,0.75897 -0.28461,0.47435 0.17969,1.98375 -0.4844,2.17349 -0.6641,0.18975 -1.92671,0.14734 -2.30619,0.43195 -0.37949,0.28461 -1.38371,0.24067 -1.95294,-0.51826 -0.56922,-0.75896 -1.00269,-1.10916 -1.38217,-1.86812 -0.37949,-0.75897 -1.9313,-1.99687 -2.12104,-2.28148 -0.18974,-0.28461 0.95636,-0.1211 1.33581,-0.97494 0.37948,-0.85383 0.93406,-1.61127 0.93406,-1.61127 0,0 -0.0949,-0.56922 0,-1.23332 0.0949,-0.66409 0.37948,-1.51793 0.85383,-1.70767 0.47436,-0.18974 1.04358,-0.75896 1.04358,-0.75896 z"
         id="path3033-1-3"
         inkscape:connector-curvature="0"
         sodipodi:nodetypes="cccsccsccssccsscc" /><path
         style="color:#000000;fill:#21180c;fill-opacity:1;fill-rule:nonzero;stroke:none;stroke-width:0.25;marker:none;visibility:visible;display:inline;overflow:visible;enable-background:accumulate"
         d="m 440.3425,615.08899 c 0.81848,2.25082 3.64441,4.22183 4.05365,5.44955 0.40924,1.22772 1.40134,2.85693 2.83368,2.85693 1.43234,0 1.91133,0.6968 1.91133,0.6968 0,0 0.77198,-7.1617 0.9766,-7.98018 0.20462,-0.81848 -0.15812,-4.09241 0.25112,-5.72937 0.40924,-1.63696 0.81848,-2.86468 0.81848,-4.50164 0,-1.63696 -0.61386,-4.29702 -1.43234,-4.70626 -0.81848,-0.40924 -1.63696,-3.0693 -3.27392,-0.61386 -1.63696,2.45544 -2.0462,3.88778 -2.86468,5.93398 -0.81848,2.0462 -2.45544,7.57095 -2.45544,7.57095 z"
         id="path4059-2-7"
         inkscape:connector-curvature="0"
         sodipodi:nodetypes="csscsssssscc" /><path
         style="color:#000000;fill:#5b452a;fill-opacity:1;fill-rule:nonzero;stroke:#0b0b0b;stroke-width:0.25;stroke-linecap:round;stroke-linejoin:round;stroke-miterlimit:4;stroke-opacity:1;stroke-dasharray:none;stroke-dashoffset:0;marker:none;visibility:visible;display:inline;overflow:visible;enable-background:accumulate"
         d="m 444.20997,590.60356 c 2.75418,1.2642 5.12335,2.91343 6.25647,5.79869 4.06058,10.83735 3.06071,13.28976 7.93505,17.39606 0.76429,0.64386 2.08445,1.34148 2.89934,0.76298 1.58102,-1.12238 0.9072,-3.91257 0.45779,-5.79868 -0.43286,-1.81663 -1.981,-3.16733 -2.91212,-4.78614 -0.73976,-1.28613 -2.12358,-3.9119 -2.12358,-3.9119 l 2.89935,-0.76298 c 0,0 1.55723,3.68738 1.98376,5.0357 0.44137,1.39522 1.9859,2.25844 2.44005,3.64955 0.7597,2.32708 1.30855,5.10389 0.30669,7.33744 -0.59174,1.31924 -1.93212,2.502 -3.35713,2.74674 -1.33203,0.22877 -2.73902,-0.55541 -3.81493,-1.37337 -3.57276,-2.71618 -7.78245,-10.98699 -7.78245,-10.98699 l -3.20453,-4.8831"
         id="path3024-5-1"
         inkscape:connector-curvature="0"
         sodipodi:nodetypes="ccsaaaccsaaaacc" /><path
         style="color:#000000;fill:#5b452a;fill-opacity:1;fill-rule:nonzero;stroke:#0b0b0b;stroke-width:0.25;stroke-linecap:round;stroke-linejoin:round;stroke-miterlimit:4;stroke-opacity:1;stroke-dasharray:none;stroke-dashoffset:0;marker:none;visibility:visible;display:inline;overflow:visible;enable-background:accumulate"
         d="m 423.56596,600.6211 c 0,0 -0.6881,5.63342 -0.53667,8.45254 0.14119,2.62838 0.48144,5.29406 1.34168,7.78169 1.6611,4.80354 7.36286,14.59501 7.24503,13.41673 l -0.53667,3.75668 c -1.37423,5.42968 -4.84242,7.41568 -7.91587,10.06254 0,0 -2.27399,8.1e-4 -3.08584,0.67084 -0.78806,0.65039 -1.20751,2.81751 -1.20751,2.81751 l 5.05348,4.37614 2.32572,-2.63196 5.36669,-2.28085 -1.20751,-1.87834 c 3.76508,-5.95301 8.04577,-9.81189 9.52588,-11.80672 0,0 1.77269,0.70145 2.28084,0.13417 1.42265,-1.58817 -0.99814,-4.175 -1.07334,-6.30586 -0.0967,-2.73953 0.80501,-8.1842 0.80501,-8.1842 0,0 4.47821,-5.72266 5.50085,-9.12337 1.23745,-4.11505 2.81959,-11.40422 0.53667,-12.88006 -1.97358,-1.27585 -3.08571,-3.0857 -4.42752,-4.42751"
         id="path3035-0-0"
         inkscape:connector-curvature="0"
         sodipodi:nodetypes="caacccaccccccaacasc" /><path
         style="color:#000000;fill:#202020;stroke:#0b0b0b;stroke-width:0.25;stroke-linecap:round;stroke-linejoin:round;stroke-miterlimit:4;stroke-opacity:1;stroke-dasharray:none;stroke-dashoffset:0;marker:none;visibility:visible;display:inline;overflow:visible;enable-background:accumulate"
         d="m 418.99186,647.67736 c -2.14995,0.17002 -3.89911,2.47755 -5.3958,6.13159 l 9.48353,0 c 1.54846,-0.74817 1.38404,-1.74103 1.47158,-2.6979 z"
         id="path3008-8-0"
         inkscape:connector-curvature="0"
         sodipodi:nodetypes="ccccc" /><path
         style="color:#000000;fill:#452f14;fill-opacity:1;fill-rule:nonzero;stroke:#291b0c;stroke-width:0.1;stroke-linecap:round;stroke-linejoin:round;stroke-miterlimit:4;stroke-opacity:1;stroke-dasharray:none;stroke-dashoffset:0;marker:none;visibility:visible;display:inline;overflow:visible;enable-background:accumulate"
         d="m 458.46875,591.46875 c 0,0 0.0312,1.19222 0.0312,1.90625 0,0.71403 -0.1548,0.80668 -0.25,1.1875 -0.0952,0.38081 -0.0625,1 -0.0625,1 l -0.875,-2.125 c 0,0 0.15625,1.14031 0.15625,1.78125 0,0.64093 -0.15625,1.59375 -0.15625,1.59375 0,0 -0.48804,-1.27664 -0.96875,-2.71875 -0.4807,-1.44211 -0.16422,-0.31712 0.15625,1.125 0.32047,1.44211 0,0.31187 0,1.59375 0,1.28188 -0.15625,1.58914 -0.15625,3.03125 0,1.44212 0.17953,1.28859 0.5,2.25 0.32047,0.96141 1.32382,1.64828 2.125,1.96875 0.11569,0.0428 0.10663,0.0426 0.15625,0.0625 0.10256,0.0256 0.32372,0.17869 0.375,0.28125 0.0513,0.10257 0.0937,0.3125 0.0937,0.3125 0,0 0.0937,-0.0537 0.0937,-0.15625 0,-0.10257 -0.0425,-0.27805 -0.0937,-0.40625 -0.0513,-0.1282 -0.15625,-0.25 -0.15625,-0.25 0,0 0.28686,0.27244 0.3125,0.375 0.0256,0.10256 0.125,0.40625 0.125,0.40625 0,0 0.0881,-0.1899 0.0625,-0.34375 -0.0256,-0.15384 -0.15625,-0.5625 -0.15625,-0.5625 0,0 0.0481,0.0224 0.125,0.125 0.0769,0.10256 0.25,0.34375 0.25,0.34375 l 0.0625,0.15625 -0.0625,-0.5 -0.1875,-0.28125 0.0312,-0.0312 c 0.0706,0.046 0.21,0.15 0.25,0.25 0.0513,0.1282 0.21875,0.46875 0.21875,0.46875 0,0 0.0312,-0.1899 0.0312,-0.34375 0,-0.13013 -0.0655,-0.42637 -0.0937,-0.53125 0.0155,0.0261 0.0229,0.0462 0.0625,0.0937 0.12821,0.15385 0.3125,0.30369 0.3125,0.40625 0,0.10257 0.0312,0.40945 0.0312,0.28125 0,-0.1282 0.0312,-0.13862 0.0312,-0.34375 0,-0.20512 -0.006,-0.3718 -0.0312,-0.5 l 0.28125,0.75 -0.0312,-0.46875 -0.0312,-0.375 c 0.006,-0.0995 0.004,-0.10409 0,-0.125 l 0.125,-0.0625 c 0,-0.14281 -0.0788,-0.19804 -0.0312,-0.53125 0.0476,-0.33322 -0.0967,-0.63409 0.0937,-1.0625 0.19041,-0.42842 0.29615,-0.89316 0.34375,-1.75 0.0476,-0.85683 0.0759,-0.13735 0.21875,-1.375 0.14281,-1.23765 -0.0312,-1.23401 -0.0312,-2.28125 0,-1.04724 -0.1875,-0.53125 -0.1875,-0.53125 0,0 -0.12209,1.04942 -0.3125,1.90625 -0.1904,0.85684 -0.70094,1.40335 -0.84375,1.59375 -0.14281,0.19041 0.24709,-0.34702 0.4375,-1.15625 0.1904,-0.80923 0.0774,-0.61047 0.125,-1.5625 0.0476,-0.95204 -0.125,-1.875 -0.125,-1.875 0,0 0.003,0.48255 -0.1875,1.625 -0.19041,1.14244 -0.15335,0.68314 -0.34375,0.96875 -0.19042,0.28562 -0.28125,0.59375 -0.28125,0.59375 0,0 -0.1875,-1.56576 -0.1875,-2.375 0,-0.80923 0.0283,-0.31577 0.21875,-1.125 0.1904,-0.80923 -0.2649,-2.15335 -0.3125,-2.34375 -0.0476,-0.19041 -0.0596,0.85901 -0.25,1.90625 -0.1904,1.04724 -0.0923,1.18169 -0.1875,1.5625 -0.0952,0.38082 -0.375,0.90625 -0.375,0.90625 0,0 -0.0625,-1.43169 -0.0625,-1.8125 0,-0.38082 0.0163,-0.93023 -0.0312,-1.40625 -0.0476,-0.47602 -0.375,-1.5 -0.375,-1.5 z"
         id="path3026-3-8"
         inkscape:connector-curvature="0"
         sodipodi:nodetypes="cssccscsssssccccsccccccccccccccsccsssccccccsscssccccscsccsccsccssc" /><path
         style="color:#000000;fill:#584635;fill-opacity:1;fill-rule:nonzero;stroke:#221d15;stroke-width:0.21159706;stroke-linecap:round;stroke-linejoin:round;stroke-miterlimit:4;stroke-opacity:1;stroke-dasharray:none;stroke-dashoffset:0;marker:none;visibility:visible;display:inline;overflow:visible;enable-background:accumulate"
         d="m 366.29824,597.80937 c 0.48557,-3.96473 1.92715,-7.11481 7.8866,-6.41507 0,0 -0.50414,4.46204 -1.61141,6.3895 -0.47954,0.83483 -2.04799,2.01256 -2.04799,2.01256"
         id="path3221-9-3"
         inkscape:connector-curvature="0"
         sodipodi:nodetypes="ccac" /><path
         style="color:#000000;fill:#0e0c0c;fill-opacity:1;fill-rule:nonzero;stroke:none;stroke-width:0.25;marker:none;visibility:visible;display:inline;overflow:visible;enable-background:accumulate"
         d="m 367.06221,597.85964 c 0.7439,-0.39843 1.45393,-0.61921 2.10046,-1.0901 0.61335,-0.44672 1.19252,-0.98378 1.63995,-1.61156 0.41268,-0.57914 0.91698,-1.92261 0.91698,-1.92261 0,0 -0.0526,1.10196 -0.19483,1.64055 -0.17696,0.67018 -0.47153,1.31891 -0.8075,1.9338 -0.34409,0.62985 -1.22375,1.77265 -1.22375,1.77265 -0.46928,-0.49537 -0.5971,-1.2454 -2.43135,-0.72275 z"
         id="path3028-3-4-0"
         inkscape:connector-curvature="0"
         sodipodi:nodetypes="caacaacc" /><path
         style="color:#000000;fill:#67666c;fill-opacity:1;fill-rule:nonzero;stroke:none;stroke-width:0.25;marker:none;visibility:visible;display:inline;overflow:visible;enable-background:accumulate"
         d="m 357.19302,594.0984 c -0.23399,-0.498 0.63948,-0.90844 1.05367,-1.27065 0.5752,-0.50301 1.37624,-0.70346 1.94391,-1.21495 0.5152,-0.46421 0.99127,-1.00962 1.27989,-1.64019 0.38577,-0.8428 0.56351,-1.80088 0.54119,-2.7275 -0.0236,-0.97927 -0.71006,-2.85159 -0.71006,-2.85159 0,0 1.38478,1.57945 1.79095,2.52931 0.31479,0.73614 0.50611,1.5585 0.45843,2.35769 -0.0539,0.90401 -0.36057,1.81307 -0.83196,2.58633 -0.86037,1.41133 -2.14545,2.56556 -3.50035,3.51229 -0.16151,0.11286 -0.31815,0.14153 -0.53664,0.24785 -0.61306,0.29831 -1.75052,-1.20169 -1.489,-1.52859 z"
         id="path3030-9-5"
         inkscape:connector-curvature="0"
         sodipodi:nodetypes="aaaaacaaaasca" /><path
         style="color:#000000;fill:#6c5843;fill-opacity:1;stroke:none;stroke-width:0.25;marker:none;visibility:visible;display:inline;overflow:visible;enable-background:accumulate"
         d="m 431.95715,591.28678 c 0,0 -2.84614,-1.9704 -3.50294,0 -0.65681,1.97041 -1.53254,2.40828 -0.65681,4.15975 0.87574,1.75148 1.53254,2.62721 2.18935,3.94082 0.6568,1.3136 0.87573,2.62721 0.6568,3.50294 -0.21894,0.87574 -0.21894,2.40828 -1.09467,3.94082 -0.87574,1.53254 -2.62721,2.40828 -2.18935,4.59762 0.43787,2.18934 3.72189,4.59762 5.03549,4.59762 1.31361,0 3.94082,0.21893 5.25442,-1.09467 1.31361,-1.31361 2.40828,-3.06508 3.06508,-4.81656 0.6568,-1.75147 2.18934,-5.03548 1.75147,-7.22483 -0.43786,-2.18934 0.65681,-2.18934 -0.87573,-4.81655 -1.53254,-2.62721 -2.18934,-3.28401 -3.50295,-4.15975 -1.31361,-0.87573 -5.03549,-2.40827 -6.13016,-2.62721 z"
         id="path3032-6-0"
         inkscape:connector-curvature="0" /><path
         style="color:#000000;fill:#836c51;fill-opacity:1;fill-rule:nonzero;stroke:none;stroke-width:0.25;marker:none;visibility:visible;display:inline;overflow:visible;enable-background:accumulate"
         d="m 6.3125,514.0625 c 1.530507,3.61519 4.237995,8.51163 5.65625,10.6875 0.930091,-0.67159 1.768174,-1.95329 2,-3.03125 C 14.206809,520.61181 13.45233,519.474 12.875,518.5 12.00301,517.02888 10.923938,515.53814 9.40625,514.75 8.6454798,514.35493 7.4353491,514.16692 6.3125,514.0625 z"
         transform="translate(418.73264,104.49176)"
         id="path87012"
         inkscape:connector-curvature="0" /><path
         style="color:#000000;fill:#21180c;fill-opacity:1;fill-rule:nonzero;stroke:none;stroke-width:0.25;marker:none;visibility:visible;display:inline;overflow:visible;enable-background:accumulate"
         d="m 439.61985,593.25719 c 0,0 4.35131,2.66078 5.47335,4.81655 1.22042,2.34479 1.194,5.25748 0.87574,7.88163 -0.45867,3.78185 -2.15208,7.36426 -3.94081,10.72778 -0.76082,1.43065 -2.27531,2.42432 -2.84615,3.94081 -0.51807,1.3763 -0.6331,2.93748 -0.4165,4.39202 0.33634,2.25866 2.60584,6.33576 2.60584,6.33576 0,0 -1.71769,0.37301 -2.40827,0.87574 -3.36351,2.44859 -4.41132,6.29175 -7.6627,9.85203 1.26246,-4.04366 5.04453,-7.00475 6.10879,-11.08822 0.28259,-1.08428 0.20369,-2.25586 0.0214,-3.36143 -0.32672,-1.98113 -0.599,-4.2257 -1.97041,-5.69229 -0.85013,-0.90913 -2.44246,-0.70917 -3.43886,-1.45512 -1.68743,-1.26329 -4.0049,-4.89397 -4.0049,-4.89397 0,0 3.32355,2.35679 5.25442,2.84614 1.55631,0.39443 3.37429,0.70539 4.81655,0 1.49494,-0.73115 2.27983,-2.47357 3.06508,-3.94081 1.30673,-2.44164 2.22161,-5.14217 2.62721,-7.88163 0.38493,-2.59988 0.62251,-5.39175 -0.21894,-7.88163 -0.71976,-2.12982 -3.94081,-5.47336 -3.94081,-5.47336 z"
         id="path3034-7-1"
         inkscape:connector-curvature="0"
         sodipodi:nodetypes="caaaaacacaaaacaaaaac" /><path
         style="color:#000000;fill:#dddddd;fill-opacity:1;fill-rule:nonzero;stroke:none;stroke-width:0.1;marker:none;visibility:visible;display:inline;overflow:visible;enable-background:accumulate"
         d="m 418.7582,648.73446 c -2.19632,0.76469 -3.16489,2.51159 -3.89388,4.45014 l 2.89259,-0.2225 2.22821,-3.25196 z"
         id="path3987-9-4"
         inkscape:connector-curvature="0"
         sodipodi:nodetypes="ccccc" /><path
         style="color:#000000;fill:#dddddd;fill-opacity:1;fill-rule:nonzero;stroke:none;stroke-width:0.1;marker:none;visibility:visible;display:inline;overflow:visible;enable-background:accumulate"
         d="m 438.6225,651.06925 1.66392,0.57876 -1.59157,2.82142 -3.40018,0 c 0.76774,-1.09544 0.94174,-2.12492 3.32783,-3.40018 z"
         id="path4034-9-5"
         inkscape:connector-curvature="0"
         sodipodi:nodetypes="ccccc" /><path
         style="color:#000000;fill:#78624c;fill-opacity:1;fill-rule:nonzero;stroke:none;stroke-width:0.25;marker:none;visibility:visible;display:inline;overflow:visible;enable-background:accumulate"
         d="m 355.39765,612.738 c 0.56376,-0.22551 1.60842,-0.10561 2.36781,0.11275 0.66309,0.19066 1.30619,0.5371 1.80405,1.01478 0.30029,0.28812 0.63597,0.64626 0.65656,1.06192 0.0574,1.15779 -0.37355,3.01346 -1.52746,3.12423 -0.55355,0.0531 -0.5402,-1.02593 -1.0045,-1.33198 -0.99263,-0.6543 -3.35084,-0.4 -3.4636,-0.85101 0.32305,-0.0915 1.13543,-0.36997 1.36093,-1.04649 0.44608,-1.2059 -0.19375,-2.0842 -0.19375,-2.0842 z"
         id="path4277-7-6"
         inkscape:connector-curvature="0"
         sodipodi:nodetypes="caaaaacccc" /><path
         style="color:#000000;fill:#382f24;fill-opacity:1;fill-rule:nonzero;stroke:none;stroke-width:0.25;marker:none;visibility:visible;display:inline;overflow:visible;enable-background:accumulate"
         d="m 363.15318,614.01274 c 0.41682,-0.13034 0.84416,-0.45086 1.26593,-0.33758 0.40344,0.10836 0.46887,0.90567 0.88615,0.88615 0.63864,-0.0299 0.66205,-1.17152 1.22374,-1.47691 0.42305,-0.23001 0.98962,0.015 1.43472,-0.16879 0.46297,-0.19114 0.77593,-0.63449 1.18153,-0.92835 0.20535,-0.14878 0.40647,-0.30797 0.63297,-0.42198 0.52061,-0.26205 1.17146,-0.25195 1.64571,-0.59077 0.36642,-0.26179 0.73749,-0.61738 0.84395,-1.05494 0.0339,-0.13938 -0.0721,-0.27906 -0.0844,-0.42198 -0.0471,-0.54673 -0.0214,-1.10066 0.0422,-1.64571 0.13504,-1.1563 0.26676,-2.34459 0.71736,-3.41801 0.13741,-0.32734 0.5044,-0.54181 0.59077,-0.88615 0.10659,-0.42492 -0.0204,-0.88311 -0.12659,-1.30813 -0.15129,-0.6057 -0.37042,-1.21107 -0.71736,-1.7301 -0.13265,-0.19845 -0.27176,-0.46236 -0.50637,-0.50637 -0.75519,-0.14167 -1.71501,0.26922 -2.10989,0.92835 -0.18851,0.31465 0.0289,0.73456 0.0844,1.09714 0.0851,0.55651 0.36657,1.08287 0.37978,1.6457 0.0111,0.47166 -0.1361,0.9355 -0.25319,1.39253 -0.0993,0.3878 -0.32555,0.7427 -0.37978,1.13933 -0.0382,0.27907 0.0591,0.5628 0.0422,0.84396 -0.0549,0.91177 0.0556,1.94957 -0.46418,2.70065 -0.26908,0.3888 -0.83001,0.45553 -1.22373,0.71736 -0.4685,0.31156 -0.88182,0.70118 -1.35032,1.01274 -0.39372,0.26183 -0.79526,0.51741 -1.22374,0.71736 -0.37897,0.17685 -0.80006,0.25057 -1.18153,0.42198 -0.45361,0.20383 -0.84422,0.53819 -1.30813,0.71736 -0.75555,0.0945 -0.7263,0.41559 -0.0422,0.67516 z"
         id="path4484-6-2"
         inkscape:connector-curvature="0"
         sodipodi:nodetypes="caaaaaaaaaaaaaaaaaaaaaaaaaacc" /><path
         style="color:#000000;fill:#78624c;fill-opacity:1;fill-rule:nonzero;stroke:#000000;stroke-width:0.25;marker:none;visibility:visible;display:inline;overflow:visible;enable-background:accumulate"
         d="m 353.93706,616.48378 c 0.38923,0.32917 0.38354,1.22288 0.45661,1.32031 1.03166,1.43802 0.92757,1.21418 1.61451,1.31826 0.57328,0.0869 1.59939,-0.47959 1.6128,-0.65165 0.55594,-0.0689 0.0652,-0.99012 -0.23568,-1.32115 -0.2897,-0.31872 -0.81715,-0.11656 -1.24468,-0.34696 -0.25031,-0.13484 -1.57732,-0.0861 -2.20356,-0.31881 z"
         id="path4537-9-0"
         inkscape:connector-curvature="0"
         sodipodi:nodetypes="ccacacc" /><path
         sodipodi:nodetypes="cssssaaassaaaaaacc"
         inkscape:connector-curvature="0"
         id="path4539-3-3"
         d="m 362.27599,598.19147 c -0.42262,-0.0468 -0.75553,-0.2174 -1.34542,-0.0849 -0.58988,0.13242 -1.2972,-0.21013 -1.63591,0.17147 -0.33873,0.3816 -0.18585,0.29504 0.69606,0.63179 0.88193,0.33674 0.94007,0.73803 1.3606,0.79641 0.42051,0.0584 0.97564,0.67827 1.2655,1.17579 0.22932,0.3936 0.25329,0.8784 0.31548,1.32967 0.0432,0.31346 0.0274,0.63226 0.0389,0.94848 0.0329,0.90252 -0.15501,2.38872 0.0864,2.70799 0.24142,0.31927 0.64002,1.2087 0.96901,0.89718 0.329,-0.31152 0.70884,-1.58042 0.89546,-2.42008 0.13346,-0.60048 0.11734,-1.22494 0.15301,-1.83904 0.0261,-0.44985 0.11037,-0.9053 0.0447,-1.3511 -0.0692,-0.46958 -0.236,-0.92834 -0.45565,-1.34912 -0.2742,-0.5253 -0.58322,-1.07315 -1.05658,-1.42961 -0.28471,-0.21441 -0.64674,-0.40219 -1.00197,-0.37324 -0.12612,0.0103 -0.32957,0.18835 -0.32957,0.18835 z"
         style="color:#000000;fill:#392f22;fill-opacity:1;fill-rule:nonzero;stroke:none;stroke-width:0.25;marker:none;visibility:visible;display:inline;overflow:visible;enable-background:accumulate" /><path
         style="color:#000000;fill:#dddddd;fill-opacity:1;fill-rule:nonzero;stroke:none;stroke-width:0.1;marker:none;visibility:visible;display:inline;overflow:visible;enable-background:accumulate"
         d="m 382.82571,650.65219 c 0,0 -1.8996,-0.11174 -2.23483,-0.11174 -0.33522,0 -0.97451,1.57825 -1.22915,2.45831 -0.20809,0.71916 -0.22348,2.23482 -0.22348,2.23482 l 3.46398,-0.5587 z"
         id="path4858-5-5"
         inkscape:connector-curvature="0"
         sodipodi:nodetypes="csaccc" /><path
         style="color:#000000;fill:#dddddd;fill-opacity:1;fill-rule:nonzero;stroke:none;stroke-width:0.1;marker:none;visibility:visible;display:inline;overflow:visible;enable-background:accumulate"
         d="m 376.45646,645.73557 c 0,0 -0.93782,1.51302 -1.22916,2.34657 -0.32539,0.93094 -0.5587,2.90528 -0.5587,2.90528 l 2.79353,-0.22349 1.45264,-4.58139 z"
         id="path4860-7-6"
         inkscape:connector-curvature="0"
         sodipodi:nodetypes="cacccc" /><path
         style="color:#000000;fill:#44362a;fill-opacity:1;fill-rule:nonzero;stroke:none;stroke-width:0.25;marker:none;visibility:visible;display:inline;overflow:visible;enable-background:accumulate"
         d="m 366.6395,597.1052 c 0,0 -0.33883,0.55772 -0.15405,0.98193 0.18474,0.42417 2.39915,1.38921 2.39915,1.38921 0,0 -0.0846,1.25977 0.26649,1.26444 0.35109,0.005 1.45731,-1.17253 1.45731,-1.17253 l 0.78746,-0.76135 c 0,0 -2.42897,-0.24458 -2.83771,-0.19631 -0.93547,0.10958 -2.30094,-1.31048 -1.91865,-1.50539 z"
         id="path4918-6-6"
         inkscape:connector-curvature="0"
         sodipodi:nodetypes="cccsccsc" /><path
         inkscape:connector-curvature="0"
         id="path4937-6-6"
         d="m 433.71575,594.96293 c 0,0 -1.94528,-1.34673 -2.39418,0 -0.44892,1.34673 -1.04746,1.64601 -0.44892,2.8431 0.59855,1.1971 1.04746,1.79564 1.49637,2.69347 0.44891,0.89782 0.59855,1.79564 0.44891,2.39418 -0.14964,0.59855 -0.14964,1.64601 -0.74818,2.69347 -0.59855,1.04746 -1.79564,1.64601 -1.49637,3.14238 0.29927,1.49636 2.54383,3.14237 3.44165,3.14237 0.89782,0 2.69346,0.14964 3.59128,-0.74818 0.89783,-0.89783 1.64601,-2.09492 2.09492,-3.29202 0.44891,-1.19709 1.49637,-3.44164 1.19709,-4.93802 -0.29927,-1.49636 0.44892,-1.49636 -0.59854,-3.29201 -1.04746,-1.79564 -1.49637,-2.24455 -2.39419,-2.8431 -0.89783,-0.59854 -3.44166,-1.646 -4.18984,-1.79564 z"
         style="color:#000000;fill:#836c51;fill-opacity:1;stroke:none;stroke-width:0.25;marker:none;visibility:visible;display:inline;overflow:visible;enable-background:accumulate" /><path
         style="color:#000000;fill:#2a2010;fill-opacity:1;fill-rule:nonzero;stroke:none;stroke-width:0.1;marker:none;visibility:visible;display:inline;overflow:visible;enable-background:accumulate"
         d="m 388.28858,601.042 c -1.21884,1.04472 -0.69648,1.56708 -2.43768,2.08944 -1.74121,0.52236 -5.22361,0.52236 -5.22361,0.52236 0,0 -1.56709,0.87061 -0.69649,1.04473 0.87061,0.17412 2.96005,0 2.96005,0 0,0 2.08945,-0.34824 2.96005,-0.17412 0.8706,0.17412 1.39296,0 2.26356,-0.52236 0.87061,-0.52237 1.56709,-0.52237 3.13417,-0.52237 1.56709,0 2.78593,0 3.65653,-0.17412 0.8706,-0.17412 3.83065,0.52237 1.21884,-0.17412 -2.6118,-0.69648 -2.43768,-0.34824 -3.13416,-0.8706 -0.69649,-0.52236 -0.34824,-1.04472 -1.39297,-0.69648 -1.04472,0.34824 -1.21884,0.8706 -2.26356,0.52236 -1.04473,-0.34824 -1.04473,-1.04472 -1.04473,-1.04472 z"
         id="path5054-5-7"
         inkscape:connector-curvature="0" /><path
         style="color:#000000;fill:#18130c;fill-opacity:1;fill-rule:nonzero;stroke:none;stroke-width:0.1;marker:none;visibility:visible;display:inline;overflow:visible;enable-background:accumulate"
         d="m 382.72861,616.46647 c 2.17389,0.49689 5.12417,1.24222 6.21111,0.74533 1.08695,-0.49689 2.14284,-0.93167 3.10556,-1.02483 0.96272,-0.0932 1.21116,-0.15528 1.45961,-0.18634 0.24844,-0.0311 0.559,-0.0311 0.2795,0.43478 -0.2795,0.46584 -0.49689,0.90061 -0.90061,1.18011 -0.40373,0.2795 -1.64595,0.62111 -2.01861,1.18011 -0.37267,0.559 0.21739,0.68323 -0.65217,0.8385 -0.86956,0.15528 -1.45961,0.65217 -2.236,0.0311 -0.77639,-0.62111 -1.02483,-0.96272 -1.80122,-1.33539 -0.77639,-0.37267 -1.92545,-0.31056 -2.57761,-0.46583 -0.65217,-0.15528 -1.677,-1.08695 -1.677,-1.08695 z"
         id="path5075-8-6"
         inkscape:connector-curvature="0" /><path
         style="color:#000000;fill:#18130c;fill-opacity:1;fill-rule:nonzero;stroke:none;stroke-width:0.1;marker:none;visibility:visible;display:inline;overflow:visible;enable-background:accumulate"
         d="m 387.01428,621.46641 c 0.99378,0.34161 1.3975,0.15528 2.236,0.40372 0.8385,0.24845 2.54655,-0.21739 3.16766,-0.31055 0.62111,-0.0932 1.77017,-0.71428 1.27328,-0.24845 -0.49689,0.46584 -0.90061,0.93167 -1.14905,1.24223 -0.24845,0.31055 -0.65217,0.52794 -1.61489,0.46583 -0.96272,-0.0621 -0.93167,0.0932 -1.92545,-0.15528 -0.99377,-0.24844 -1.9565,-1.24222 -1.9565,-1.24222 l -0.24844,-0.12422 z"
         id="path5077-2-7"
         inkscape:connector-curvature="0" /><path
         style="color:#000000;fill:#44362a;fill-opacity:1;fill-rule:nonzero;stroke:none;stroke-width:0.25;marker:none;visibility:visible;display:inline;overflow:visible;enable-background:accumulate"
         d="m 369.72881,598.80148 c 0.50434,-0.49563 1.47009,-1.77853 1.99083,-2.79634 0.27081,-0.52943 0.48295,-1.10285 0.56812,-1.67996 0.0699,-0.47358 -10e-4,-0.94585 -0.0548,-1.40884 -0.0474,-0.41011 -0.23515,-1.20524 -0.23515,-1.20524 0.41968,-0.31405 1.39075,-0.11862 1.39075,-0.11862 0,0 0.47855,-0.26008 0.37829,0.27678 -0.10027,0.53691 -0.1172,1.42942 -0.24011,2.11253 -0.12262,0.68314 -0.39746,1.33369 -0.5178,1.97797 -0.12033,0.64428 -0.41819,1.37986 -0.7205,1.89612 -0.30237,0.51624 -0.84361,0.98239 -1.45278,1.30961 -0.53814,0.28906 -1.1068,-0.36404 -1.1068,-0.36404 z"
         id="path5130-5-7"
         inkscape:connector-curvature="0"
         sodipodi:nodetypes="caaaccszscsc" /></g><path
       sodipodi:nodetypes="cccccccccc"
       inkscape:connector-curvature="0"
       id="path16091-6-3"
       transform="translate(240.01187,126.34719)"
       d="m -91.143232,393.84375 c 0.02592,15.00313 0.220052,28.89285 -0.07552,42.28125 l 0,24.3125 c 1.583846,53.05488 17.650139,91.44821 61.03125,115.96875 5.291514,3.29165 15.09996,6.42435 17.125,7.5 1.994788,-1.0599 11.8328694,-4.20934 17.125,-7.5 C 49.862063,551.09172 63.673666,508.26774 65.125,460.4375 l 0,-23.6875 c -0.291105,-13.5811 -0.10184,-27.66997 -0.07552,-42.90625 z"
       style="color:#000000;fill:none;stroke:#ffff00;stroke-width:1.61131107999999990;stroke-linecap:butt;stroke-linejoin:miter;stroke-miterlimit:4;stroke-opacity:1;stroke-dasharray:none;stroke-dashoffset:0;marker:none;visibility:visible;display:inline;overflow:visible;enable-background:accumulate" /></g></g>
</svg>