<?xml version="1.0" encoding="UTF-8" standalone="no"?>
<!-- Created with Inkscape (http://www.inkscape.org/) -->

<svg
   xmlns:dc="http://purl.org/dc/elements/1.1/"
   xmlns:cc="http://creativecommons.org/ns#"
   xmlns:rdf="http://www.w3.org/1999/02/22-rdf-syntax-ns#"
   xmlns:svg="http://www.w3.org/2000/svg"
   xmlns="http://www.w3.org/2000/svg"
   version="1.1"
   width="892.91339"
   height="327.75589"
   id="svg3949">
  <defs
     id="defs3951">
    <clipPath
       id="clipPath3847">
      <path
         d="m 36,692.026 169.888,0 0,61.474 -169.888,0 0,-61.474 z"
         id="path3849" />
    </clipPath>
  </defs>
  <metadata
     id="metadata3954">
    <rdf:RDF>
      <cc:Work
         rdf:about="">
        <dc:format>image/svg+xml</dc:format>
        <dc:type
           rdf:resource="http://purl.org/dc/dcmitype/StillImage" />
        <dc:title></dc:title>
      </cc:Work>
    </rdf:RDF>
  </metadata>
  <g
     transform="translate(40.421321,-365.88445)"
     id="layer1">
    <g
       transform="matrix(5.2163617,0,0,-5.2163617,-224.66758,4299.9561)"
       id="g3843">
      <g
         clip-path="url(#clipPath3847)"
         id="g3845">
        <g
           transform="translate(77.711105,721.2628)"
           id="g3851">
          <path
             d="m 0,0 c 0,10.091 -7.161,18.51 -16.681,20.443 l 0,11.794 -8.345,0 0.003,-11.794 C -34.547,18.514 -41.711,10.094 -41.711,0 l 8.341,0.005 c 0,5.453 3.48,10.086 8.344,11.802 l 0,-11.795 8.345,0 -0.005,11.796 C -11.825,10.09 -8.344,5.454 -8.344,0.005 L 0,0"
             id="path3853"
             style="fill:#0b7ac0;fill-opacity:1;fill-rule:nonzero;stroke:none" />
        </g>
        <g
           transform="translate(100.8783,737.14259)"
           id="g3855">
          <path
             d="m 0,0 0.06,0 0.065,-1.628 c 0.191,-4.764 0.14,-9.529 0.149,-14.262 l 4.29,0 C 4.203,-6.845 4.17,-1.508 4.182,4.221 l -6.537,0 c -0.657,-2.077 -1.344,-4.009 -2.052,-6 -1.039,-2.925 -1.89,-5.41 -2.803,-8.215 l -0.06,0 c -0.866,2.805 -1.667,5.32 -2.749,8.245 -0.711,1.96 -1.484,3.92 -1.897,5.97 l -6.579,0 c -0.067,-1.326 -0.378,-13.93 -0.915,-20.111 l 4.427,0 c -0.032,5.336 0.115,10.674 0.36,15.89 l 0.059,0 c 0.454,-1.538 1.264,-3.709 1.853,-5.608 l 3.276,-10.282 4.07,0 L 0,0"
             id="path3857"
             style="fill:#0b7ac0;fill-opacity:1;fill-rule:nonzero;stroke:none" />
        </g>
        <g
           transform="translate(115.6651,723.75481)"
           id="g3859">
          <path
             d="m 0,0 c -0.743,-0.271 -1.52,-0.452 -2.333,-0.452 -1.207,0 -2.548,0.362 -2.604,1.779 -0.108,2.683 4.934,2.532 6.446,3.92 C 1.44,0.181 1.404,-1.176 1.306,-2.503 l 4.191,0 C 5.316,2.02 5.639,6.784 5.553,8.925 c -0.132,3.287 -3.353,3.92 -6.007,3.92 -2.2,0 -4.357,-0.362 -6.478,-0.875 L -7.271,9.166 c 1.84,0.724 3.809,1.266 5.828,1.266 1.116,0 2.753,-0.211 2.811,-1.658 C 1.498,5.518 -9.194,7.478 -8.95,1.387 c 0.054,-1.357 0.682,-4.251 5.537,-4.251 0.965,0 1.866,0.09 2.763,0.271 L 0,0"
             id="path3861"
             style="fill:#0b7ac0;fill-opacity:1;fill-rule:nonzero;stroke:none" />
        </g>
        <g
           transform="translate(127.7305,736.23801)"
           id="g3863">
          <path
             d="m 0,0 -4.221,0 c 0.143,-5.85 0.025,-10.432 -0.215,-14.985 l 4.312,0 c -0.024,1.356 -0.166,5.638 0.19,8.05 0.336,2.171 1.562,3.919 3.944,3.919 2.201,0 3.238,-1.054 3.326,-3.226 0.116,-2.894 -0.068,-5.849 -0.345,-8.743 l 4.463,0 c -0.181,4.522 0.073,8.743 -0.001,10.583 -0.141,3.527 -2.603,4.764 -5.798,4.764 -2.443,0 -4.464,-0.724 -5.647,-2.804 l -0.061,0 L 0,0"
             id="path3865"
             style="fill:#0b7ac0;fill-opacity:1;fill-rule:nonzero;stroke:none" />
        </g>
        <g
           transform="translate(141.45351,736.23801)"
           id="g3867">
          <path
             d="m 0,0 c 0.171,-5.005 0.189,-10.01 -0.094,-14.985 l 4.493,0 C 4.187,-8.925 4.159,-4.463 4.372,0 L 0,0 z m 4.271,2.533 0.007,2.834 -4.341,0 0.052,-2.834 4.282,0"
             id="path3869"
             style="fill:#0b7ac0;fill-opacity:1;fill-rule:evenodd;stroke:none" />
        </g>
        <g
           transform="translate(157.243,733.2831)"
           id="g3871">
          <path
             d="m 0,0 0.002,2.955 -3.768,0 -0.023,3.588 -3.856,-0.844 -0.041,-2.744 -2.231,0 L -9.92,0 -7.81,0 c -0.033,-0.663 -0.203,-6.965 -0.142,-8.503 0.118,-2.955 1.573,-3.889 4.407,-3.889 1.146,0 2.255,0.15 3.359,0.452 l 0.419,3.106 c -0.717,-0.181 -1.192,-0.362 -2.398,-0.362 -1.327,0 -1.609,1.025 -1.66,2.291 -0.042,1.055 0.047,5.609 0.056,6.905 L 0,0"
             id="path3873"
             style="fill:#0b7ac0;fill-opacity:1;fill-rule:nonzero;stroke:none" />
        </g>
        <g
           transform="translate(165.4464,736.5997)"
           id="g3875">
          <path
             d="m 0,0 c -5.035,0 -8.409,-3.106 -8.204,-8.232 0.13,-3.256 2.259,-7.477 8.35,-7.477 6.934,0 8.295,5.186 8.178,8.111 C 8.129,-2.714 4.733,0 0,0 m 0.087,-2.955 c 2.745,0 3.942,-2.05 4.042,-4.553 0.107,-2.683 -1.026,-5.246 -4.042,-5.246 -2.593,0 -4,2.02 -4.096,4.432 -0.112,2.804 0.961,5.367 4.096,5.367"
             id="path3877"
             style="fill:#0b7ac0;fill-opacity:1;fill-rule:evenodd;stroke:none" />
        </g>
        <g
           transform="translate(178.8286,723.63451)"
           id="g3879">
          <path
             d="m 0,0 0.06,0 c 1.128,-1.809 2.915,-2.744 5.085,-2.744 4.884,0 7.015,4.04 6.838,8.473 -0.187,4.673 -2.913,7.236 -7.708,7.236 -1.326,0 -2.644,-0.211 -3.96,-0.482 l 0.212,5.246 -4.342,0 c 0.201,-8.05 0.071,-13.839 -0.1,-20.111 l 4.01,0 L 0,0 z M 3.519,10.01 C 6.384,10.01 7.7,8.021 7.806,5.367 7.899,3.045 6.896,0.211 4.183,0.211 2.072,0.211 0.311,2.02 0.217,4.372 0.139,6.332 0.166,7.9 0.317,9.407 1.359,9.739 2.434,10.01 3.519,10.01"
             id="path3881"
             style="fill:#0b7ac0;fill-opacity:1;fill-rule:evenodd;stroke:none" />
        </g>
        <g
           transform="translate(200.24921,723.75481)"
           id="g3883">
          <path
             d="m 0,0 c -0.743,-0.271 -1.52,-0.452 -2.333,-0.452 -1.207,0 -2.548,0.362 -2.604,1.779 -0.108,2.683 4.934,2.532 6.446,3.92 C 1.44,0.181 1.404,-1.176 1.306,-2.503 l 4.191,0 C 5.316,2.02 5.639,6.784 5.553,8.925 c -0.131,3.287 -3.353,3.92 -6.007,3.92 -2.2,0 -4.357,-0.362 -6.478,-0.875 L -7.271,9.166 c 1.84,0.724 3.809,1.266 5.828,1.266 1.117,0 2.753,-0.211 2.811,-1.658 C 1.498,5.518 -9.194,7.478 -8.95,1.387 c 0.054,-1.357 0.682,-4.251 5.537,-4.251 0.965,0 1.866,0.09 2.763,0.271 L 0,0"
             id="path3885"
             style="fill:#0b7ac0;fill-opacity:1;fill-rule:nonzero;stroke:none" />
        </g>
        <g
           transform="translate(86.054306,711.3235)"
           id="g3887">
          <path
             d="m 0,0 c 0.023,3.951 0.063,5.97 0.134,7.961 l -4.704,0 C -4.247,-0.09 -4.469,-5.88 -4.64,-12.151 l 4.704,0 c -0.059,2.985 -0.112,5.819 -0.087,8.955 l 10.01,0 c 0.065,-3.889 0.016,-6.422 -0.124,-8.955 l 4.764,0 c -0.268,6.724 -0.144,13.418 0.01,20.112 l -4.703,0 C 10.051,5.035 10.049,0.543 10.041,0 L 0,0"
             id="path3889"
             style="fill:#0b7ac0;fill-opacity:1;fill-rule:nonzero;stroke:none" />
        </g>
        <g
           transform="translate(107.7083,698.84039)"
           id="g3891">
          <path
             d="m 0,0 c -0.593,-1.748 -1.413,-3.859 -3.404,-3.859 -1.387,0 -2.031,0.271 -2.891,0.663 l 0.553,-3.256 c 1.005,-0.241 2.065,-0.362 3.09,-0.362 3.949,0 5.01,2.14 5.696,3.829 l 7.349,18.303 -4.161,0 C 4.942,11.368 3.373,7.629 2.205,3.679 l -0.06,0 c -0.969,3.859 -2.599,7.658 -3.753,11.639 l -4.311,0 L 0,0"
             id="path3893"
             style="fill:#0b7ac0;fill-opacity:1;fill-rule:nonzero;stroke:none" />
        </g>
        <g
           transform="translate(129.13699,699.1729)"
           id="g3895">
          <path
             d="M 0,0 3.951,0 C 3.709,6.03 3.86,16.583 4.05,20.111 l -4.281,0 c 0.104,-2.623 0.117,-3.678 0.08,-5.035 -1.001,0.15 -2,0.271 -2.995,0.271 -6,0 -9.013,-3.829 -8.811,-8.895 0.152,-3.799 2.685,-6.814 6.634,-6.814 2.443,0 4.034,0.934 5.318,2.744 l 0.061,0 L 0,0 z m -0.18,12.061 c 0.04,-1.78 0.09,-3.769 -0.141,-5.518 -0.283,-1.99 -1.411,-3.95 -3.672,-3.95 -2.442,0 -3.691,1.808 -3.782,4.1 -0.129,3.227 1.641,5.699 5.5,5.699 0.695,0 1.393,-0.12 2.095,-0.331"
             id="path3897"
             style="fill:#0b7ac0;fill-opacity:1;fill-rule:evenodd;stroke:none" />
        </g>
        <g
           transform="translate(139.7915,714.158)"
           id="g3899">
          <path
             d="m 0,0 -4.01,0 c 0.268,-6.694 0.128,-10.734 0.026,-14.986 l 4.191,0 -0.074,1.87 c -0.07,1.749 -0.168,4.945 0.098,6.573 0.339,2.111 1.518,3.527 3.689,3.527 0.573,0 0.845,-0.043 1.396,-0.224 L 5.298,0.211 C 4.872,0.301 4.448,0.362 3.995,0.362 2.126,0.362 0.926,-0.543 0.05,-2.02 l -0.06,0 L 0,0"
             id="path3901"
             style="fill:#0b7ac0;fill-opacity:1;fill-rule:nonzero;stroke:none" />
        </g>
        <g
           transform="translate(152.4995,714.51939)"
           id="g3903">
          <path
             d="m 0,0 c -5.035,0 -8.409,-3.106 -8.204,-8.231 0.13,-3.257 2.259,-7.478 8.35,-7.478 6.935,0 8.295,5.186 8.178,8.111 C 8.129,-2.714 4.734,0 0,0 m 0.088,-2.954 c 2.744,0 3.941,-2.051 4.041,-4.553 0.107,-2.684 -1.026,-5.247 -4.041,-5.247 -2.594,0 -4.001,2.02 -4.097,4.433 -0.112,2.803 0.961,5.367 4.097,5.367"
             id="path3905"
             style="fill:#0b7ac0;fill-opacity:1;fill-rule:evenodd;stroke:none" />
        </g>
      </g>
    </g>
  </g>
</svg>
