<?xml version="1.0" encoding="utf-8"?>
<svg xmlns="http://www.w3.org/2000/svg" xml:space="preserve" width="137.333" height="98.333">
  <path d="M126.626 71.42c-2.308 0-4.376.981-5.848 2.532l-.014-.012c-2.196 2.737-5.564 4.491-9.346 4.491-6.619 0-11.984-5.363-11.984-11.981V30.759c0-15.54-12.597-28.136-28.137-28.136-7.858 0-14.956 3.228-20.06 8.422-5.104-5.194-12.202-8.422-20.06-8.422-15.54 0-28.136 12.597-28.136 28.136v39.86c0 4.459 3.617 8.076 8.076 8.076s8.076-3.617 8.076-8.076v-39.86c0-6.619 5.365-11.984 11.984-11.984s11.984 5.365 11.984 11.984v41.423c0 4.459 3.616 8.076 8.076 8.076s8.076-3.617 8.076-8.076V30.759c0-6.619 5.365-11.984 11.984-11.984s11.984 5.365 11.984 11.984v35.692c0 15.539 12.597 28.134 28.136 28.134 8.397 0 15.914-3.698 21.069-9.531l-.014-.013c1.373-1.448 2.229-3.393 2.229-5.544.002-4.459-3.616-8.077-8.075-8.077z"/>
  <linearGradient id="a" x1=".6968" x2="138.7733" y1="48.6035" y2="48.6035" gradientUnits="userSpaceOnUse">
    <stop offset="0" stop-color="#3294ca"/>
    <stop offset="1" stop-color="#060a66"/>
  </linearGradient>
  <path fill="url(#a)" d="M126.626 71.42c-2.308 0-4.376.981-5.848 2.532l-.014-.012c-2.196 2.737-5.564 4.491-9.346 4.491-6.619 0-11.984-5.363-11.984-11.981V30.759c0-15.54-12.597-28.136-28.137-28.136-7.858 0-14.956 3.228-20.06 8.422-5.104-5.194-12.202-8.422-20.06-8.422-15.54 0-28.136 12.597-28.136 28.136v39.86c0 4.459 3.617 8.076 8.076 8.076s8.076-3.617 8.076-8.076v-39.86c0-6.619 5.365-11.984 11.984-11.984s11.984 5.365 11.984 11.984v41.423c0 4.459 3.616 8.076 8.076 8.076s8.076-3.617 8.076-8.076V30.759c0-6.619 5.365-11.984 11.984-11.984s11.984 5.365 11.984 11.984v35.692c0 15.539 12.597 28.134 28.136 28.134 8.397 0 15.914-3.698 21.069-9.531l-.014-.013c1.373-1.448 2.229-3.393 2.229-5.544.002-4.459-3.616-8.077-8.075-8.077z"/>
  <path d="M114.284 46.911h10.16c4.459 0 8.077-3.617 8.077-8.076s-3.617-8.076-8.077-8.076h-10.16c-4.459 0-8.076 3.617-8.076 8.076s3.617 8.076 8.076 8.076z"/>
  <linearGradient id="b" x1=".6953" x2="138.7734" y1="38.835" y2="38.835" gradientUnits="userSpaceOnUse">
    <stop offset="0" stop-color="#3294ca"/>
    <stop offset="1" stop-color="#060a66"/>
  </linearGradient>
  <path fill="url(#b)" d="M114.284 46.911h10.16c4.459 0 8.077-3.617 8.077-8.076s-3.617-8.076-8.077-8.076h-10.16c-4.459 0-8.076 3.617-8.076 8.076s3.617 8.076 8.076 8.076z"/>
</svg>