<svg data-name="Layer 2" xmlns="http://www.w3.org/2000/svg" width="390" height="120" viewBox="0 0 390 120"><title>logo-gray</title><path fill="#5f6062" d="M9.11 65.32h8.54l13.88 21.57 13.89-21.57h8.54v45.63h-8.02V78.22l-14.41 21.5h-.26L17 78.35v32.6H9.11V65.32zm73.59 45.63v-4.25a13.89 13.89 0 0 1-11.15 5C65 111.67 59.3 107.95 59.3 101v-.12c0-7.63 5.94-11.27 13.95-11.27a29.14 29.14 0 0 1 9.52 1.43v-.65c0-4.75-3-7.36-8.47-7.36a24.06 24.06 0 0 0-9.85 2.15l-2.15-6.31A29.47 29.47 0 0 1 75.4 76c10.17 0 15.12 5.34 15.12 14.53v20.41zm.19-14.41A22.49 22.49 0 0 0 75 95.17c-5 0-7.89 2-7.89 5.34v.13c0 3.26 2.93 5.09 6.65 5.09 5.21 0 9.12-2.93 9.12-7.24zm13.62-20.02h7.89v7.76c2.15-5.15 6.13-8.67 12.19-8.41v8.34h-.46c-6.91 0-11.73 4.5-11.73 13.62v13.12h-7.89zM140 110.95v-4.25a13.88 13.88 0 0 1-11.14 5c-6.52 0-12.26-3.72-12.26-10.64v-.12c0-7.63 5.94-11.27 14-11.27a29.13 29.13 0 0 1 9.52 1.43v-.65c0-4.75-3-7.36-8.47-7.36a24 24 0 0 0-9.85 2.15l-2.14-6.33A29.46 29.46 0 0 1 132.73 76c10.17 0 15.13 5.34 15.13 14.53v20.41zm.2-14.41a22.51 22.51 0 0 0-7.89-1.37c-4.95 0-7.88 2-7.88 5.34v.13c0 3.26 2.93 5.09 6.65 5.09 5.22 0 9.12-2.93 9.12-7.24zm14.51 4.89V83.3h-4.37v-6.78h4.37v-9.44h7.9v9.45h9.25v6.77h-9.25v16.88c0 3.06 1.56 4.3 4.24 4.3a10.53 10.53 0 0 0 4.88-1.17v6.46a13.82 13.82 0 0 1-7.1 1.76c-5.8 0-9.92-2.55-9.92-10.11m21.42-36.11H184v16.56c2.22-3.26 5.41-6.06 10.75-6.06C202.52 75.81 207 81 207 89v21.91h-7.89V91.39c0-5.34-2.67-8.41-7.36-8.41S184 86.17 184 91.52v19.43h-7.88zM211 93.93v-.13a18 18 0 0 1 18.38-18c10.56 0 18.31 8 18.31 17.86v.13c0 9.78-7.82 17.93-18.44 17.93s-18.25-8-18.25-17.8m28.81 0v-.13c0-6.06-4.37-11.08-10.56-11.08s-10.37 5-10.37 11v.13c0 6 4.37 11.09 10.5 11.09 6.38 0 10.43-5 10.43-11m12.29-17.41h7.9v5.34c2.21-3.26 5.41-6.06 10.75-6.06C278.49 75.81 283 81 283 89v21.91h-7.9V91.39c0-5.35-2.67-8.41-7.36-8.41S260 86.17 260 91.52v19.43h-7.9zm41.1 11.73v-.13c0-12.84 9.91-23.59 23.92-23.59S340.91 75.16 340.91 88v.13c0 12.84-9.91 23.6-23.92 23.6S293.2 101.1 293.2 88.25m39.3 0v-.13c0-8.87-6.45-16.23-15.51-16.23S301.62 79.13 301.62 88v.13c0 8.86 6.45 16.23 15.51 16.23s15.38-7.24 15.38-16.11m13.8-22.94h8.47v7.47h-8.47zm.33 45.64h7.89v-32.9h-7.89zm14.59-45.64h7.88v45.64h-7.88z"/><path d="M205.39 9.65a16 16 0 0 0-3-.27c-20.41 0-25.8 36.24-26.31 40.06H187c.23-2 3.65-30 18.41-39.79" fill="#72cdf4"/><path d="M211.46 8.87a20.75 20.75 0 0 1 9.44-.1 29.69 29.69 0 0 0-5 3.95 28.46 28.46 0 0 0-4.45-3.84m2.45 5.67a18.09 18.09 0 0 0-4.62-3.55c-14.62 7-18.77 35.17-19.2 38.44h10.85c.19-1.65 2.81-22.89 13-34.88" fill="#00a4e4"/><path d="M217.7 14.68a20.22 20.22 0 0 1 5.53-4 18.47 18.47 0 0 1 4.94 3.82 41 41 0 0 0-5.28 8 53.83 53.83 0 0 0-5.18-7.91m7.7-5.72a20.74 20.74 0 0 1 9.43-.1 29.92 29.92 0 0 0-5 3.95 28.83 28.83 0 0 0-4.45-3.84m-4.14 16.6A57.14 57.14 0 0 0 216 17c-8.77 10.74-11.54 29.29-12 32.47h10.86a92.23 92.23 0 0 1 6.38-24" fill="#0081c6"/><path d="M278.32 12.74a91.53 91.53 0 0 1-6.39 24 57.09 57.09 0 0 0 5.29 8.52c8.79-10.77 11.54-29.29 12-32.48zm-40.09 18.98c-3-6.62-5.65-11.32-8.31-14.75a40.87 40.87 0 0 0-5.21 8.53c.8 1.59 1.6 3.26 2.37 5 7.39 16.28 13.3 22.33 21.84 22.33a16.54 16.54 0 0 0 3.4-.35c-4.85-3.54-9.22-10-14.09-20.72" fill="#72cdf4"/><path d="M252.17 31.72c-5.36-11.83-9.86-18-15-20.72a19.92 19.92 0 0 0-5.17 3.7c2.95 3.69 5.91 8.85 9 15.76 5.37 11.83 9.86 18 15 20.72a19.67 19.67 0 0 0 5.19-3.7c-3-3.7-5.92-8.85-9-15.75m6.16 21.69a30.07 30.07 0 0 0 5-4 28.57 28.57 0 0 0 4.45 3.84 20.51 20.51 0 0 1-5 .6 19.68 19.68 0 0 1-4.46-.49m33.92-40.63c-.19 1.66-2.79 22.86-13 34.88a17.84 17.84 0 0 0 4.61 3.56c14.54-7 18.66-34.17 19.22-38.44z" fill="#00a4e4"/><path d="M265 47.63a40.78 40.78 0 0 0 5.28-8 55.06 55.06 0 0 0 5.18 7.91 19.91 19.91 0 0 1-5.52 4 18.33 18.33 0 0 1-4.94-3.91m16.73 5.68a20.54 20.54 0 0 1-5 .6 19.8 19.8 0 0 1-4.47-.49 29.56 29.56 0 0 0 5-4 28.15 28.15 0 0 0 4.45 3.85m-15.6-21.55c-7.39-16.28-13.31-22.34-21.84-22.34a16.54 16.54 0 0 0-3.4.35c4.85 3.55 9.22 10 14.09 20.73 3 6.61 5.64 11.31 8.31 14.76a40.78 40.78 0 0 0 5.21-8.53c-.8-1.59-1.6-3.26-2.37-5m40.09-18.95c-.23 2-3.71 30.05-18.4 39.79a16 16 0 0 0 2.94.26c20.48 0 25.81-36.25 26.32-40.06z" fill="#0081c6"/><path d="M378.57 68.37a1.13 1.13 0 0 0-.37-.88 1.47 1.47 0 0 0-1.06-.32h-1.74v4.08h.71v-1.68h1l.63 1.67h.78l-.71-1.8a1.08 1.08 0 0 0 .76-1.07zM377 69h-.9v-1.2h1c.51 0 .71.29.71.59-.03.46-.44.61-.81.61z" fill="#5f6062"/><path d="M377 65.31a3.9 3.9 0 1 0 3.9 3.9 3.9 3.9 0 0 0-3.9-3.9zm0 7.1a3.2 3.2 0 1 1 3.2-3.2 3.21 3.21 0 0 1-3.2 3.2z" fill="#5f6062"/></svg>