<?xml version="1.0" encoding="UTF-8"?>
<svg width="191px" height="27px" viewBox="0 0 191 27" version="1.1" xmlns="http://www.w3.org/2000/svg" xmlns:xlink="http://www.w3.org/1999/xlink">
    <!-- Generator: Sketch 49.3 (51167) - http://www.bohemiancoding.com/sketch -->
    <title>Page 1</title>
    <desc>Created with Sketch.</desc>
    <defs>
        <polygon id="path-1" points="0 0 190.8 0 190.8 27 0 27"/>
    </defs>
    <g id="Symbols" stroke="none" stroke-width="1" fill="none" fill-rule="evenodd">
        <g id="header" transform="translate(-854.000000, -65.000000)">
            <g id="Page-1" transform="translate(854.000000, 65.000000)">
                <mask id="mask-2" fill="white">
                    <use xlink:href="#path-1"/>
                </mask>
                <g id="Clip-2"/>
                <path d="M21.0866694,9.15728836 L14.5713592,27 L13.5007613,27 L7.37138759,9.07163132 L4.41521407,26.6593755 L0,26.6593755 L4.37210947,0 L7.62901275,0 L14.4019481,17.8427116 L20.870144,0 L24.1716555,0 L28.0721205,26.6593755 L23.6569064,26.6593755 L21.0866694,9.15728836 Z M46.4146309,6.3766906 L42.6429785,17.3733511 L50.4003026,17.3733511 L46.4146309,6.3766906 Z M41.5723806,20.840207 L39.2577639,26.6593755 L34.5874307,26.6593755 L44.7004713,0 L48.6435396,0 L58.498955,26.6593755 L53.7860185,26.6593755 L51.5997131,20.840207 L41.5723806,20.840207 Z M70.9291184,13.3078978 L72.2573415,13.3078978 C75.8871496,13.3078978 77.7000489,11.7535482 77.7000489,8.64484889 C77.7000489,5.64935715 75.9001813,4.15060945 72.2999448,4.15060945 L70.9291184,4.15060945 L70.9291184,13.3078978 Z M83.786318,26.6593755 L78.3436105,26.6593755 L70.972223,15.1046919 L70.9291184,26.6593755 L66.5144055,26.6593755 L66.5144055,0.683753548 L73.4156522,0.683753548 C79.2147244,0.683753548 82.1152629,3.29554183 82.1152629,8.5141092 C82.1152629,10.4842211 81.6000126,12.1247287 80.5705144,13.4366338 C79.5725928,14.7490399 78.1997615,15.5059275 76.4575337,15.705293 L83.786318,26.6593755 Z M90.0013996,0.683753548 L95.2295865,0.683753548 L100.243253,10.398564 L105.68596,0.683753548 L110.914147,0.683753548 L102.600974,14.8477208 L102.600974,26.6593755 L98.18576,26.6593755 L98.18576,14.8477208 L90.0013996,0.683753548 Z M123.301206,13.4366338 L125.485005,13.4366338 C128.71384,13.4366338 130.32926,11.8672566 130.32926,8.73050593 C130.32926,5.70546001 128.670736,4.19368843 125.358699,4.19368843 L123.301206,4.19368843 L123.301206,13.4366338 Z M123.301206,26.6593755 L118.883987,26.6593755 L118.883987,0.683753548 L125.785735,0.683753548 C131.813863,0.683753548 134.828177,3.36617131 134.828177,8.73050593 C134.828177,14.2065453 132.058456,16.9465687 126.515004,16.9465687 L123.301206,16.9465687 L123.301206,26.6593755 Z M153.213792,6.3766906 L149.44214,17.3733511 L157.199464,17.3733511 L153.213792,6.3766906 Z M148.371542,20.840207 L146.056925,26.6593755 L141.386592,26.6593755 L151.499633,0 L155.442701,0 L165.300623,26.6593755 L160.587185,26.6593755 L158.400879,20.840207 L148.371542,20.840207 Z M190.499771,22.9350476 L190.499771,26.6593755 L171.985344,26.6593755 L183.814549,4.40808148 L173.399275,4.40808148 L173.399275,0.683753548 L190.8,0.683753548 L178.929695,22.9350476 L190.499771,22.9350476 Z" id="Fill-1" fill="#477197" mask="url(#mask-2)"/>
            </g>
        </g>
    </g>
</svg>