<?xml version="1.0" encoding="UTF-8" standalone="no"?>
<svg
   xmlns:dc="http://purl.org/dc/elements/1.1/"
   xmlns:cc="http://creativecommons.org/ns#"
   xmlns:rdf="http://www.w3.org/1999/02/22-rdf-syntax-ns#"
   xmlns:svg="http://www.w3.org/2000/svg"
   xmlns="http://www.w3.org/2000/svg"
   version="1.1"
   width="150"
   height="60"
   viewBox="0 0 150 59.999999"
   enable-background="new 0 0 454.67 56.00"
   xml:space="preserve"
   id="svg42"><title
     id="title858">MV_logo</title><metadata
     id="metadata48"><rdf:RDF><cc:Work
         rdf:about=""><dc:format>image/svg+xml</dc:format><dc:type
           rdf:resource="http://purl.org/dc/dcmitype/StillImage" /><dc:title>MV_logo</dc:title></cc:Work></rdf:RDF></metadata><defs
     id="defs46" /><path
     d="m 144.49472,21.70661 h -0.0352 v -0.266524 h 0.0352 m 4.60314,-7.555092 c -1.56678,-3.572363 -5.39347,-5.7560822 -9.42415,-5.5198613 L 99.978113,8.3342039 c -0.593068,-0.010583 -1.307889,0.071706 -1.693122,-0.3332621 l 1.875329,-6.8169705 c 0.0612,-0.26154486 0.10637,-0.62010831 -0.0404,-0.83524806 C 99.937101,0.19475093 99.815347,0.10756931 99.577608,0.04569768 L 94.204219,0 c -0.299044,0.1328793 -0.684276,0.19475093 -0.79065,0.54347093 L 84.192876,33.213007 c -0.136919,0.129482 -0.152192,-0.08704 -0.192456,-0.132182 L 81.308172,20.6457 c -0.08629,-0.312852 -0.430516,-0.625055 -0.765018,-0.676351 l -6.909298,-0.05141 -0.456149,0.158964 c -0.162017,0.225705 -0.238487,0.440824 -0.198223,0.732509 l 7.659685,27.052761 c 0.09665,0.338985 0.360241,0.590606 0.694636,0.734018 l 4.273441,0.01415 c 0.415137,0 0.841274,-0.194061 1.008205,-0.562528 l 9.808954,-33.84014 0.227914,-0.224947 43.021391,-0.05141 1.7697,0.127971 c 1.38842,0.451296 2.73304,1.450434 2.94024,3.018905 l 0.004,32.917135 -0.22321,1.732402 c -0.43041,1.296439 -1.68212,2.224411 -2.90393,2.623872 L 8.1463782,54.376769 7.5887364,54.049231 C 6.6813309,53.624608 5.7482184,52.629033 5.5305893,51.61942 l -0.020164,-24.561718 0.065362,-9.225723 0.2134531,-1.317606 c 0.5472287,-1.142443 1.7994956,-2.3067 3.1428534,-2.475491 l 74.7839142,-0.03585 0.324676,-0.210152 1.500452,-4.900443 c 0.0097,-0.1588988 0.06611,-0.4970638 -0.156998,-0.5273013 L 12.505368,8.3342039 9.0635132,8.4523251 C 7.7250149,8.3342039 6.7369744,9.0260196 5.5757877,9.2974026 5.2058706,9.4408262 4.9068803,9.7740987 4.5418333,9.8718208 3.8173038,10.476455 2.9905761,10.988983 2.3216793,11.752483 0.99361442,13.51577 0,15.484458 0.02503156,17.831979 L 0,51.353653 c 0.11681395,1.085531 0.34974552,2.121926 0.73982135,3.10627 0.32471555,0.337365 0.44152955,0.835099 0.68976785,1.240175 0.6640159,0.655293 1.0540971,1.470846 1.8808355,2.075383 1.2571371,1.220629 3.0920907,1.840609 4.8811518,2.162748 L 139.09164,60 c 1.51445,-0.09276 3.06093,-0.09276 4.3842,-0.666524 1.93097,-0.579267 3.73057,-2.003784 4.83596,-3.705084 1.22181,-1.676246 1.47493,-3.767071 1.65756,-5.87496 l 0.0299,-31.127066 c 0.0107,-1.711884 -0.0854,-3.383161 -0.9014,-4.741372 z"
     id="path28"
     style="fill:#c40147;fill-opacity:1;stroke-width:1.07394814;stroke-linejoin:round" /><path
     d="m 117.69934,48.441551 c 0.2638,-0.07603 0.4005,-0.348706 0.52226,-0.517496 V 18.026688 l -0.3909,-0.461233 h -6.10263 c -0.2937,0.07668 -0.6077,0.312204 -0.74547,0.517496 v 29.779225 c 0.0758,0.205292 0.1068,0.430346 0.33963,0.579375 z"
     id="path30"
     style="fill:#c40147;fill-opacity:1;stroke-width:1.07394814;stroke-linejoin:round" /><path
     d="m 32.639768,20.01017 c -0.496413,-0.05637 -0.917103,0.06177 -1.266771,0.292441 -1.789883,4.458865 -3.396709,9.02097 -5.074558,13.520656 -0.106374,0.02538 -0.288577,0.08305 -0.349668,-0.04071 l -1.297636,-3.643961 -3.350678,-9.67216 C 21.17881,20.220325 20.991054,20.071945 20.722555,20.010174 l -6.584622,-0.04082 c -0.309404,0.05129 -0.603535,0.246112 -0.730094,0.532938 V 48.18 l 0.349774,0.374083 c 1.409457,0.226351 3.01073,0.129266 4.516842,0.05626 0.197476,-0.09708 0.536784,-0.16879 0.59232,-0.490822 l 0.03621,-13.619792 c 0.02018,-0.281318 0.0048,-0.651082 0.329696,-0.651082 0.790436,2.38899 1.631924,4.725929 2.397476,7.1052 l 2.519016,7.396345 c 0.274052,0.203888 0.597981,0.389418 0.968688,0.430239 0.4915,-0.04082 0.921909,0.03089 1.236119,-0.364149 l 5.105103,-14.567635 0.166931,-0.122246 c 0.04582,-0.02116 0.07647,0.0351 0.111927,0.0351 l 0.04026,14.100679 c 0.101569,0.257343 0.152406,0.625812 0.516705,0.651081 h 6.138941 c 0.248313,0 0.405418,-0.250217 0.405418,-0.465444 l 0.04582,-27.402113 c -0.04582,-0.266523 -0.161911,-0.568792 -0.451235,-0.604645 z"
     id="path32"
     style="fill:#c40147;fill-opacity:1;stroke-width:1.07394814;stroke-linejoin:round" /><path
     d="m 49.479774,44.192189 c -0.127307,0.338986 -0.451235,0.677756 -0.765552,0.856265 -0.35458,0.05217 -0.7349,0 -1.013758,-0.178509 -1.074955,-1.154323 -0.755192,-3.158106 -0.273945,-4.541803 0.369959,-0.666525 1.039497,-1.261342 1.794476,-1.373869 0.349774,0 0.238594,0.399461 0.30951,0.594817 m -0.274052,-4.034242 c -1.257052,0.282614 -2.564941,0.451405 -3.781729,0.835315 -1.606826,0.691795 -3.2945,1.425921 -4.379815,2.947307 -1.185495,1.768902 -1.251605,4.259189 -0.562523,6.274096 0.86712,1.988341 2.985738,2.941691 4.942338,3.449251 3.350678,0.461233 7.061704,0.395142 9.702581,-1.614258 0.415777,-0.451189 0.84608,-0.896978 0.947648,-1.538232 l 0.04101,-13.463745 c -0.08128,-0.980132 0.182096,-2.097413 -0.477082,-2.845363 -0.319122,-1.035639 -1.257052,-1.681106 -2.128978,-2.101516 -0.522258,-0.394386 -1.261964,-0.276891 -1.870518,-0.492227 -0.329482,-0.04071 -0.617953,0.04654 -0.916996,-0.09687 -2.83408,0.122247 -5.774001,0.09687 -8.034451,1.773114 l -1.323268,1.342768 c -0.679257,0.860693 -0.542337,2.188126 -0.319763,3.168042 0.304597,0.753781 0.928317,1.373868 1.657663,1.69158 1.034585,0.399461 2.504598,0.348813 3.320774,-0.517496 0.775271,-0.821168 0.775271,-2.009292 1.469906,-2.886616 0.329696,-0.302375 0.75028,-0.436069 1.23708,-0.374082 0.390039,0.118035 0.496413,0.544062 0.699442,0.774731 0.08064,1.153135 0.166931,2.254002 0.05073,3.377546 z"
     id="path34"
     style="fill:#c40147;fill-opacity:1;stroke-width:1.07394814;stroke-linejoin:round" /><path
     d="m 100.22151,39.723496 c 0.28847,-0.486502 0.8511,-0.594817 1.34826,-0.769223 0.30385,0.08725 0.31913,0.486609 0.30385,0.794602 l -0.0299,3.470202 c -0.0306,0.420519 0.0758,0.860693 -0.14749,1.234559 -0.21275,0.246114 -0.47623,0.507777 -0.86136,0.604754 -0.61336,0.1027 -0.958219,-0.383802 -1.262175,-0.814257 -0.44141,-1.451083 -0.38032,-3.352167 0.648815,-4.520637 z m -7.401009,5.607681 c 0.67381,2.197845 3.026002,3.156811 4.987622,3.684026 2.646327,0.323434 5.586137,0.369978 7.943247,-0.573652 1.09482,-0.579375 2.4341,-1.230349 2.72247,-2.573224 l 0.0352,-14.848846 -0.14204,-0.814256 c -0.45605,-1.394064 -1.46959,-2.327112 -2.75195,-2.890935 -0.56317,-0.07171 -1.07496,-0.250973 -1.61719,-0.348814 -0.29424,0.02538 -0.60364,0 -0.8873,-0.09687 -1.70359,0.02517 -3.355595,0.09687 -4.927177,0.414688 -1.059576,0.205292 -2.007224,0.73823 -2.94526,1.230348 -0.719734,0.717281 -1.71822,1.434993 -1.910783,2.460805 -0.243293,1.306267 0.09601,2.808106 1.195962,3.608215 0.481887,0.209505 1.044303,0.404861 1.571367,0.511772 0.958222,-0.122246 2.179922,-0.122246 2.540056,-1.203674 0.729347,-0.703025 0.49652,-1.778621 1.241886,-2.450762 0.344859,-0.277106 0.744729,-0.436069 1.241889,-0.374082 1.23131,0.631319 0.62372,2.178083 0.77036,3.326789 0,0.461341 0.0813,0.897195 -0.34978,1.127757 -1.09514,0.137797 -2.098432,0.52743 -3.213651,0.655292 -1.104967,0.497734 -2.412856,0.794495 -3.38635,1.712747 -0.597981,0.650974 -1.60202,1.08132 -1.774504,2.08521 -0.08053,0.07322 -0.242653,0.113932 -0.182096,0.257345 -0.775271,1.430132 -0.668897,3.561886 -0.162018,5.100119 z"
     id="path36"
     style="fill:#c40147;fill-opacity:1;stroke-width:1.07394814;stroke-linejoin:round" /><path
     d="m 74.039274,28.554573 0.05554,-0.430347 c -0.05554,-0.246113 -0.17729,-0.420519 -0.425496,-0.543413 l -4.511288,-0.03099 -0.390786,0.16944 -2.235459,3.515341 c -0.157211,0.2054 -0.323928,0.466849 -0.593068,0.37538 L 64.18504,27.92952 63.886103,27.580815 57.514229,27.549823 c -0.299044,0.143413 -0.61336,0.281966 -0.6391,0.717821 l 4.268636,8.979717 c 0.217554,0.548273 0.679363,1.036287 0.653624,1.706916 l -5.27684,8.708334 c -0.167571,0.430238 0.146638,0.660801 0.35458,0.88726 l 4.151902,0.04633 c 0.440662,-0.04211 0.887092,-0.08293 1.161144,-0.344493 0.790544,-1.23456 1.505258,-2.598493 2.366824,-3.782513 0.132114,-0.0097 0.263586,0.04643 0.360134,0.112527 l 1.753678,3.537804 c 0.09665,0.322032 0.44643,0.322032 0.659178,0.430348 2.215166,0.04633 4.531367,0.06609 6.711289,-0.03661 0.141832,-0.163067 0.426137,-0.445789 0.263372,-0.7635 L 69.102489,37.417336 v -0.594818 z"
     id="path38"
     style="fill:#c40147;fill-opacity:1;stroke-width:1.07394814;stroke-linejoin:round" /><path
     d="m 124.7258,48.441551 c 3.41123,0.897086 7.73028,0.94363 10.75169,-0.840823 1.15986,-0.76782 1.84445,-1.988341 1.94592,-3.290504 V 27.780489 l -0.18263,-0.199676 -6.61528,-0.02614 c -0.18263,0.138553 -0.31933,0.323434 -0.38448,0.538554 l -0.0822,14.618283 c -0.0705,0.410584 -0.22321,0.712961 -0.50197,1.004106 -0.3439,0.08704 -0.70916,0.133478 -1.09364,0.07732 -0.50197,-0.194169 -0.49236,-0.670844 -0.66965,-1.081428 l -0.0555,-14.833403 -0.2638,-0.2973 -6.46362,-0.02614 c -0.21787,0.02614 -0.36953,0.261664 -0.4005,0.466847 l -0.0299,15.87401 0.28943,1.214906 c 0.54683,1.639528 2.21934,2.850222 3.75621,3.331109 z"
     id="path40"
     style="fill:#c40147;fill-opacity:1;stroke-width:1.07394814;stroke-linejoin:round" /></svg>