<svg height="140" viewBox="0 0 400 99.826087" width="560" xmlns="http://www.w3.org/2000/svg">
  <g fill="none" fill-rule="evenodd" transform="matrix(2 0 0 2 0 -32.071429)">
    <path d="m50 66h150v-50h-150z" fill="#163d82"/>
    <path d="m0 66h50v-50h-50z" fill="#000"/>
    <path d="m25.057 28.544h3.437v1.266c.699-.88 1.835-1.55 3.438-1.55 1.525 0 2.816.645 3.541 1.73.8-1.033 2.247-1.73 3.9-1.73 2.404 0 4.446 1.316 4.446 4.314v8.451h-3.462v-7.392c0-1.834-.776-2.584-1.991-2.584-1.137 0-2.197.776-2.197 2.688v7.288h-3.463v-7.392c0-1.91-.852-2.584-1.99-2.584-1.24 0-2.196.829-2.196 2.844v7.132h-3.463v-12.48zm30.931 4.884h5.375c-.207-1.68-1.267-2.507-2.688-2.507-1.395 0-2.453.904-2.687 2.507zm-.051 2.273c.103 2.042 1.188 2.87 2.688 2.87 1.266 0 2.066-.492 2.635-1.37l3.333.387c-.904 2.041-2.996 3.748-6.15 3.748-3.98 0-5.995-2.585-5.995-6.54 0-4.186 2.764-6.563 6.227-6.563 3.566 0 6.228 2.377 6.228 6.668 0 .31-.025.62-.051.8zm12.079 5.324h3.384v-18.756h-3.385zm9.975-7.597h5.374c-.207-1.68-1.265-2.507-2.687-2.507-1.394 0-2.454.904-2.687 2.507zm-.051 2.272c.103 2.042 1.188 2.87 2.688 2.87 1.265 0 2.066-.492 2.635-1.37l3.334.387c-.905 2.041-2.997 3.748-6.15 3.748-3.98 0-5.996-2.585-5.996-6.54 0-4.186 2.765-6.563 6.228-6.563 3.567 0 6.228 2.377 6.228 6.668 0 .31-.024.62-.05.8zm20.333-2.79c-.258-1.343-1.24-1.964-2.505-1.964-1.81 0-2.74 1.68-2.74 3.877 0 2.171.956 3.747 2.74 3.747 1.317 0 2.455-.8 2.635-2.3h3.36c-.31 2.558-2.249 5.065-5.995 5.065-4.006 0-6.229-2.61-6.229-6.512 0-4.16 2.61-6.59 6.229-6.59 3.435 0 5.711 1.886 5.918 4.677zm10.817-4.366h2.53v2.454h-2.53v5.996c0 1.111.282 1.498 1.548 1.498.517 0 .957-.025.957-.025v2.636c-.67.05-1.447.078-2.197.078-2.712 0-3.72-1.008-3.72-3.05v-7.133h-2.016v-2.454h2.016v-4.447h3.411v4.447zm13.756 2.868c-.13-.026-.543-.052-.982-.052-.646 0-1.317.103-1.834.362-1.085.518-1.63 1.343-1.63 3.205v6.098h-3.358v-12.48h3.334v1.626c.542-1.345 2.171-1.86 3.462-1.86.44 0 .725.026 1.008.076zm4.931 3.385c0 2.249.983 3.8 3 3.8 1.911 0 2.945-1.5 2.945-3.774 0-2.403-1.034-3.85-2.971-3.85-1.94 0-2.974 1.55-2.974 3.824m9.434 0c0 3.67-2.377 6.538-6.46 6.538-4.086 0-6.461-2.791-6.461-6.512 0-3.54 2.375-6.59 6.434-6.59 4.135 0 6.487 2.817 6.487 6.564m3.059-6.253h3.437v1.266c.698-.88 2.095-1.577 3.594-1.577 2.119 0 4.547 1.085 4.547 4.445v8.347h-3.462v-7.288c0-2.015-.776-2.688-2.222-2.688-1.5 0-2.43.829-2.43 2.844v7.132h-3.464v-12.48zm15.156 12.481h3.385v-12.481h-3.385zm0-15.105h3.385v-3.15h-3.385zm15.125 6.99c-.259-1.343-1.24-1.964-2.507-1.964-1.808 0-2.74 1.68-2.74 3.877 0 2.171.958 3.747 2.74 3.747 1.318 0 2.456-.8 2.636-2.3h3.36c-.31 2.558-2.248 5.065-5.996 5.065-4.005 0-6.227-2.61-6.227-6.512 0-4.16 2.61-6.59 6.227-6.59 3.437 0 5.712 1.886 5.92 4.677zm9.031 4.057c.205 1.19 1.008 1.861 2.453 1.861 1.422 0 2.249-.593 2.249-1.37 0-.62-.568-1.006-1.575-1.214l-2.094-.413c-2.844-.569-4.059-1.73-4.059-3.671 0-2.04 1.681-3.927 5.402-3.927 3.18 0 5.118 1.5 5.556 3.618l-3.282.336c-.23-1.06-1.189-1.5-2.274-1.5s-1.86.466-1.86 1.216c0 .646.362.93 1.81 1.24l2.376.49c2.042.415 3.541 1.552 3.541 3.49 0 2.274-2.042 4.213-5.79 4.213-3.539 0-5.297-1.707-5.762-4.058l3.309-.31z" fill="#fff"/>
    <path d="m139.79 58.568v-5.776l-2.477 5.776h-1.375l-2.434-5.776v5.776h-2.562v-10.002h3.425l2.354 5.648 2.464-5.648h3.162v10.002zm4.528 0v-10.002h2.187c.191 0 .383.192.383.399v9.603zm9.672-5.76h3.249c.257 0 .403.21.403.455v5.17c-.916.204-2.345.328-3.405.328-3.732 0-5.699-1.777-5.699-5.208 0-3.06 1.967-5.18 5.246-5.18 1.443 0 2.707.385 3.524.936l-1.008 1.721c-.703-.316-1.655-.537-2.324-.537-1.885 0-2.767 1.25-2.767 3.06 0 1.933 1.02 3.127 2.9 3.127.349 0 .776-.012 1.118-.065v-1.763h-1.238v-2.044zm9.359-2.315h-1.258v2.507h1.258c.748 0 1.342-.4 1.342-1.35 0-.965-.594-1.157-1.342-1.157zm1.895 8.075-1.188-2.753c-.242-.562-.411-.84-.925-.84h-1.04v3.593h-2.517v-9.603c0-.207.23-.399.393-.399h3.551c1.928 0 3.579.4 3.579 2.89 0 1.115-.618 2.257-1.774 2.488.576.197 1.156.935 1.473 1.737l1.143 2.887zm8.251-8.075c-1.35 0-2.309.963-2.309 3.06 0 2.128.96 3.089 2.31 3.089 1.157 0 2.105-.96 2.105-3.089 0-2.097-.948-3.06-2.106-3.06m0 8.268c-3.275 0-5.008-2.312-5.008-5.208 0-2.868 1.733-5.18 5.008-5.18 3.067 0 4.803 2.312 4.803 5.18 0 2.896-1.736 5.208-4.803 5.208m9.727-.001c-1.69 0-3.26-.605-3.962-1.086l1.14-2.022c.636.384 1.874.976 3.015.976.646 0 1.461-.124 1.461-.842 0-.673-.911-.88-2.108-1.22-1.443-.416-3.123-.99-3.123-2.93 0-2.094 1.858-3.263 4.279-3.263 1.597 0 2.834.566 3.466 1.17l-1.387 1.581c-.69-.41-1.39-.73-2.176-.73-.948 0-1.484.36-1.484.883 0 .52.687.785 1.553 1.044 1.528.471 3.618.954 3.618 2.958 0 2.064-1.649 3.482-4.292 3.482" fill="#f60"/>
  </g>
</svg>
