<?xml version="1.0" encoding="utf-8"?>
<!-- Generator: Adobe Illustrator 16.0.4, SVG Export Plug-In . SVG Version: 6.00 Build 0)  -->
<!DOCTYPE svg PUBLIC "-//W3C//DTD SVG 1.1//EN" "http://www.w3.org/Graphics/SVG/1.1/DTD/svg11.dtd">
<svg version="1.1" id="Layer_1" xmlns="http://www.w3.org/2000/svg" xmlns:xlink="http://www.w3.org/1999/xlink" x="0px" y="0px"
	 width="950px" height="1200px" viewBox="0 0 950 1200" enable-background="new 0 0 950 1200" xml:space="preserve">
<g>
	<path fill="#E4032C" d="M4.004,1.18v701.834v25.547c0,60.654,11.494,118.626,32.367,171.868
		c68.671,175.031,239.115,299.011,438.527,299.011c199.39,0,369.841-123.979,438.507-299.011
		c20.882-53.242,32.376-111.214,32.376-171.868v-25.547V1.18H4.004z"/>
	<path fill="#FFCC00" d="M159.076,573.184c5.024,5.379,10.091,10.733,15.678,15.548c1.697,1.454,3.422,2.896,5.249,4.216
		c1.705,1.222,3.5,2.354,4.9,3.937c1.674,1.866,2.606,4.811,4.766,6.183c1.017,0.607,1.875,0.936,2.944,1.191
		c1.266,0.301,3.319-0.048,4.209,1.121c1.574,2.027-1.089,3.781-2.965,3.754c-1.574-0.06-4.566-1.048-5.559-2.384
		c0.15,0.194-0.681,1.746-0.76,1.998c-0.706,2.21-0.886,4.767,0.021,6.952c0.635,1.463,1.775,2.289,3.199,2.868
		c1.754,0.683,3.299,1.39,4.034,3.277c0.739,1.946,0.534,4.234,0.355,6.265c-0.201,2.633-0.478,5.376-1.596,7.811
		c-1.04,2.359-2.944,4.358-3.25,7c-0.329,2.562,0.534,5.406,2.181,7.378c1.98,2.389,5.408,2.917,8.043,1.604
		c5.475-2.686,9.687-9.004,10.782-14.964c0.302-1.681-0.079-3.318-0.462-4.95c-0.223-1.115-0.506-2.134-0.527-3.149v-1.04
		c0-2.305-0.534-4.591-1.523-6.699c-0.509-1.055-1.119-2.101-1.827-3.09c-0.886-1.221-1.653-2.148-1.704-3.731
		c-0.15-2.837,0.818-5.456-0.072-8.266c-0.384-1.291-1.119-2.338-1.875-3.229c-0.133-0.199-0.284-0.37-0.434-0.553
		c-0.605-0.637-1.188-1.293-1.11-1.979c0.021-0.381,0.172-0.788,0.301-1.19c0.254-0.687,0.527-1.474,0.354-2.364
		c-0.079-0.378-0.282-0.763-0.462-1.11c-0.192-0.378-0.404-0.764-0.404-1.02c0,0,0-217.978-0.102-217.946l-0.432-0.08l-8.848-1.191
		v212.803c-0.075-0.13-0.175-0.207-0.283-0.333c-0.193-0.179-0.326-0.351-0.405-0.452c-0.606-0.767-1.211-1.552-1.825-2.364
		c-3.35-4.262-6.72-8.545-10.1-12.863c-17.929-22.751-36.476-46.26-50.116-72.266c-4.954-9.413-8.837-18.241-11.856-26.964
		c-7.579-21.887-11.562-46.061-12.5-76.098c0-0.081-0.03-0.284-0.03-0.536c-0.099-1.754-0.151-3.067-0.151-4.115l-1.244,0.056
		c-1.674,0.053-3.349,0.104-5.023,0.255c-1.442,0.151-2.865,0.484-4.339,0.806c-1.085,0.234-2.126,0.484-3.196,0.662
		c-2.563,0.406-5.17,0.561-7.76,0.561c-3.069,0-6.063-0.204-8.907-0.483c0,1.727,0.029,4.055,0.108,7.354
		c0.527,22.276,4.794,44.223,12.604,65.248c2.26,6.034,4.793,11.97,7.558,17.608c9.062,18.493,21.157,37.341,36.028,56.08
		c5.023,6.338,10.22,12.583,15.548,18.666C150.48,563.77,154.737,568.522,159.076,573.184"/>
	<path fill="#FFCC00" d="M74.248,323.625c3.32,0.637,6.871,0.406,10.242,0.203c0.968-0.053,1.958-0.129,2.947-0.179
		c1.098-0.073,2.209-0.15,3.328-0.273c1.927-0.154,3.935-0.133,5.831-0.462c0.555-0.094,1.14-0.256,1.596-0.605
		c0.765-0.61,0.735-1.982,0.714-3.425V318.4c-0.13-13.318,2.259-26.458,4.038-39.625c0.706-5.252,1.975-10.369,3.267-15.496
		c0.759-3.075,1.544-6.122,2.413-9.161c2.915-10.219,6.59-20.399,11.339-31.147c7.681-17.481,17.373-34.987,28.788-52.084
		c1.321-1.954,2.642-3.96,3.983-5.991c8.93-13.57,19.028-28.916,32.146-38.452c0.727-0.563,2-1.492,3.059-1.492
		c1.201,0,1.907,1.062,2.52,1.926c0.304,0.402,0.578,0.83,0.961,1.159c0.352,0.283,1.019,0.557,1.019,1.121
		c0,0.406-0.334,161.387-0.384,184.469l9.514-0.327c0-23.768-0.028-177.93-0.028-186.25c0.1-0.021,0.229-0.074,0.361-0.102
		c0.758-0.253,1.364-0.378,1.593-1.219c0.254-0.862-0.051-1.748-0.03-2.637c0-0.35-0.021-0.704-0.042-1.089
		c-0.079,0.049-0.129,0.105-0.18,0.154c-2.108,1.163-4.64,1.442-7.032,1.24c-1.725-0.151-4.562-0.403-5.397-2.231
		c-0.205-0.41-0.205-0.89,0-1.321c0.452-1.015,1.52-1.089,2.482-1.015c1.19,0.105,2.388,0.308,3.554,0.406
		c0.886,0.073,1.804,0.125,2.683,0.073c0.945-0.073,1.885-0.301,2.721-0.735c2.765-1.496,2.686-6.216,1.324-8.667
		c-0.284-0.511-0.613-0.917-0.917-1.271c-0.585-0.686-0.991-1.191-0.814-2.21c0.278-1.603,1.14-3.218,2.005-4.769
		c0.504-0.89,1.018-1.821,1.394-2.739c0.359-0.837,0.485-1.723,0.613-2.613c0.022-0.252,0.072-0.536,0.102-0.785
		c0.376-2.195,1.161-4.31,1.926-6.349c0.404-1.11,0.838-2.258,1.161-3.422c1.273-4.083,2.159-7.455,2.744-10.589
		c0.075-0.595,0.226-1.173,0.333-1.803c0.606-2.851,1.263-6.069,0.273-8.927c-1.037-3.079-3.956-5.631-7.021-6.174
		c-1.445-0.284-2.485-0.851-3.754-1.621c-1.474-0.936-3.25-1.426-4.975-1.426c-2.208,0-4.157,0.81-5.354,2.21
		c-1.11,1.317-1.516,3.088-1.194,5.144c0.464,2.63,1.987,4.724,3.455,6.791c1.42,1.947,2.793,3.845,3.115,6.129
		c0.442,2.559,0.414,4.804-0.15,6.769c-0.911,3.372-2.584,6.184-5.479,9.108c-1.825,1.849-2.586,4.629-1.618,7.102
		c1.063,2.738,5.379,2.837,5.936,5.705c0.171,0.945-0.462,1.985-1.352,2.206c-1.112,0.285-2.231-0.301-3.167-0.833
		c-0.275-0.154-2.434-2.059-2.229-2.231c-0.101,0.102-0.255,0.2-0.355,0.28c-3.58,3.142-6.949,6.57-10.381,9.869
		c-3.572,3.422-7.123,6.871-10.625,10.345c-3.63,3.6-7.233,7.231-10.805,10.911c-3.634,3.754-7.203,7.53-10.733,11.364
		c-3.546,3.855-7.053,7.788-10.447,11.745c-0.404,0.483-0.816,0.935-1.218,1.418c-5.078,5.936-9.546,11.616-13.701,17.38
		c-16.085,22.171-28.054,45.098-35.566,68.109c-5.251,16.056-9.235,32.368-11.312,49.108c-0.434,3.221-0.788,6.447-1.068,9.668
		c-0.126,1.524-0.253,3.064-0.355,4.588c-0.222,2.815-0.434,5.631-0.505,8.475c-0.049,1.548-0.33,3.526,0.283,4.875
		C72.24,322.308,72.958,323.376,74.248,323.625"/>
	<path fill="#FFCC00" d="M470.894,223.144c1.546,0.637,3.299,1.019,4.239,1.32c0.935,0.305,1.923,0.689,2.916,0.689
		c1.09,0,1.553-0.868,2.106-1.625c0.836-1.169,1.727-2.287,2.584-3.428c1.772-2.364,3.502-4.745,5.298-7.074
		c1.048-1.324,2.088-2.645,3.146-3.958c0.998-1.169,2.03-2.286,3.127-3.4c2.203-2.185,5.474-2.542,8.447-2.542
		c4.336,0,8.575,0.868,12.781,1.706c10.604,2.101,21.392,3.369,32.09,4.692c3.098,0.381,6.173,0.735,9.24,1.058
		c3.215,0.385,6.465,0.669,9.708,0.669c0.917,0.021,1.652,0.805,1.632,1.723c0.125,5.025,0.654,12.25,1.211,17.201
		c0.739,6.388,1.503,11.511,2.441,16.106c1.03,5.074,3.441,11.917,9.179,15.78c3.043,2.048,6.752,3.32,10.782,3.705
		c7.554,0.704,15.343-0.032,22.809-1.226c1.564-0.249,3.116-0.554,4.643-0.957c1.289-0.333,2.845-0.662,3.702-1.754
		c0.557-0.687,0.729-1.829,0.584-2.687c0,0-2.029-11.237-2.08-11.493c-5.123-29.224-12.207-58.475-23.043-86.172
		c-3.06-7.84-6.456-15.58-10.26-23.117c-3.937-7.84-8.523-15.317-13.762-22.349c-1.213-1.593-2.404-3.138-3.691-4.71
		c-0.669-0.84-1.434-1.958-2.624-1.989c-1.11-0.042-2.027,0.921-2.783,1.632c-0.869,0.84-1.759,1.625-2.616,2.437
		c-20.473,19.026-39.652,39.365-58.22,60.195c-5.375,6.041-10.681,12.126-15.979,18.241c-7.364,8.465-14.458,17.272-20.221,26.965
		C466.989,220.965,468.742,222.278,470.894,223.144"/>
	<path fill="#FFCC00" d="M835.396,247.272c-0.301-2.543-0.634-5.075-0.956-7.617c-0.992-7.683-1.729-15.622-3.635-23.155
		c-1.594-6.5-3.824-12.663-5.601-17.275c-1.445-3.733-3.579-6.194-6.768-9.183c-4.291-4.062-8.023-8.625-11.624-13.065l-0.2-0.231
		c-3.705-4.563-7.538-9.283-11.948-13.419c-7.862-7.333-15.121-11.945-22.903-14.557c-4.542-1.502-9.343-1.019-12.13,1.316
		c-2.059,1.699-3.911,4.132-4.801,5.302c-1.572,2.129-2.784,4.619-3.877,6.798c-0.806,1.677-1.954,3.907-3.215,5.861
		c-2.623,3.929-6.702,6.801-10.632,9.589l-0.287,0.199c-4.104,2.966-8.797,6.314-12.705,10.198
		c-3.526,3.506-8.149,8.807-7.333,14.337c0.182,1.243,0.816,3.022,1.674,4.007c0.788,0.812,1.727,1.215,2.889,1.243
		c1.02,0,2.108-0.28,3.156-0.788c0,0,0.406-0.172,0.427-0.2c5.096-2.381,1.541-9-0.076-12.428c-2.074-4.319,1.981-5.834,5.606-6.038
		c4.996-0.231,8.624,1.362,11.266,5.831c0.225,0.357,0.535,0.992,1.012,0.992c0.402,0,0.715-0.354,0.984-0.558
		c3.936-2.742,9.84-5.789,14.771-5.789c0.507,0,1.036,0.053,1.498,0.15c1.604,0.301,3.299,1.401,4.437,2.868
		c0.326,0.435,2.028,2.693,1.392,4.389c-0.071,0.23-0.229,0.483-0.456,0.714c-2.535,2.434-7.2,3.653-10.419,4.843
		c-1.984,0.735-3.988,1.471-5.971,2.161c-2.283,0.784-6.135,2.893-7.661-0.154c-0.477-0.994-0.383-2.311-0.856-3.352
		c-0.966-2.055-2.262-4.688-4.09-6.114c-1.116-0.862-4.006-2.003-6.289-2.125c-0.48,0-1.064,0.073-1.419,0.479
		c-0.332,0.406-0.38,1.495-0.106,1.951c0.241,0.336,0.741,1.292,0.888,1.576c1.682,3.4,2.339,6.114,2.39,9.666v1.344
		c0,1.902-0.021,3.678,0.867,5.303c0.96,1.775,2.431,2.885,4.105,3.168c1.142,0.204,2.38,0.302,3.705,0.406
		c3.55,0.28,7.234,0.585,9.836,2.483c4.871,3.583,11.039,3.307,16.372,0.844c3.859-1.779,6.997-6.146,11.333-6.829
		c10.092-1.646,13.498,14.127,12.936,20.984c-1.59,19.779-8.061,38.687-11.539,58.139c-1.832,10.047-2.666,20.14-2.508,30.337
		c0.095,4.591,0,7.41-0.259,8.527c-0.042,0.403-0.424,0.756-0.938,0.886c-0.102,0-0.2,0.028-0.307,0
		c-20.446-3.072-41.146-0.634-61.689-0.556c-3.937,0.024-7.89,0-11.823-0.106c-2.055-0.045-7.787,0.865-8.624-1.796
		c-0.102-0.386-0.081-0.711-0.081-0.963c-0.073-0.078-0.785-0.333-3.096-0.484l-0.356-0.049c-0.119,0-0.249-0.032-0.351-0.032
		c-4.815-0.456-9.869-0.763-14.744-1.036c-18.868-1.142-37.792-1.698-56.692-2.263c-6.443-0.178-12.884-0.354-19.333-0.455
		l-6.848-0.099c-0.406,0-0.756-0.182-1.034-0.487c-1.294-1.439-0.913-4.608-0.937-6.383c-0.05-5.46,0.332-10.961,0.701-16.417
		c0.107-1.471,0.251-3.117,0.637-4.742c-2.887-0.504-4.714-2.816-5.453-5.358c-0.455,0.364-1.012,0.687-1.646,1.04
		c-5.032,2.896-11.822,0.785-15.394-3.45c-1.089-1.316-1.965-2.969-2.521-4.563c-2.13,1.622-5.097,2.511-8.415,2.511
		c-2.444,0-4.802-0.512-6.626-1.471c-1.499-0.837-3.353-2.36-4.129-3.957c-0.942-1.926-0.207-4.339,0.302-6.093l0.102-0.372
		c0.633-2.107,1.056-3.732,1.442-5.28c0.028-0.077,0.028-0.151,0.057-0.228c-0.078,0.077-0.155,0.151-0.204,0.199l-0.26,0.225
		c-0.608,0.563-1.239,1.144-1.895,1.652c-4.65,3.4-10.221,5.326-16.161,5.634h-0.738c-1.927,0-4.434-0.427-5.376-2.335
		c-1.526-3.043,0.613-6.497,2.08-9.081c1.853-3.299,3.779-6.549,5.452-9.946c1.426-2.815,2.757-5.705,3.884-8.67
		c1.213-3.327,2.13-7.109,2.717-11.242c0.526-4.083,0.891-8.502,0.051-12.711c-0.289-1.471-0.938-3.32,0.021-4.668
		c0.84-1.191,2.991-1.012,3.732,0.207c1.495,2.417,1.317,5.554,1.362,8.269c0.053,3.523-0.22,7.032-0.809,10.502
		c-0.36,1.958-0.756,3.905-1.247,5.862c-0.427,1.625-0.881,3.243-1.464,4.843c-2.359,6.447-5.812,12.299-9.314,18.162
		c-0.634,1.068-2.935,4.139-1.694,5.329c1.667,1.604,6.52-0.048,8.194-0.71c2.178-0.865,4.388-2.105,6.569-3.702
		c6.213-4.623,9.662-12.582,11.466-18.466c0.73-2.41,1.418-4.85,1.922-7.312c0.253-1.163,0.441-2.304,0.612-3.45
		c0.183-1.012,1.446-1.748,2.382-1.698c0.638,0.025,1.19,0.256,1.625,0.735c0.532,0.557,0.585,1.04,0.532,1.807
		c-0.104,1.164-0.33,2.305-0.631,3.422c-0.336,1.219-0.56,2.434-0.889,3.652c-2.13,7.68-5.351,15.013-7.461,22.725
		c-0.503,1.908-0.965,3.81-1.294,5.76c-0.305,1.552-0.605,3.331,0.56,4.619c2.516,2.788,8.497,2.333,11.319,0.326
		c3.414-2.434,3.827-7.406,5.238-11.059c0.413-1.061,1.078-2.784,2.494-2.784c0.413,0,0.686,0.15,0.938,0.301
		c1.499,1.062,0.59,3.197,0.203,4.591c-1.218,4.458-3.854,12.047,0.158,15.829c1.666,1.624,5.018,2.311,7.072,1.366
		c5.307-2.403,7.66-8.29,9.081-13.189c0.051-0.154,0.134-0.374,0.204-0.679c0.231-0.914,0.403-1.674,0.557-2.238
		c-4.233-0.606-8.136-2.077-11.363-4.287c-6.979-4.72-9.897-12.733-11.108-18.616c-0.998-5.004-1.807-10.25-2.49-16.519
		c-0.427-4.006-0.584-8.04-0.809-12.046c-0.054-0.533,0.021-1.089-0.028-1.653c-0.053-0.605,0-1.19-0.224-1.769
		c-0.306-0.816-1.829-0.794-2.515-0.864c-9.792-0.942-19.632-1.755-29.431-2.966c-2.836-0.365-5.681-0.739-8.516-1.17
		c-6.165-0.967-12.285-2.312-18.495-2.794l-0.745-0.042c-0.981-0.083-1.996-0.155-3.017-0.112c-0.374,0.029-2.994,0.112-2.381,0.869
		c0.301,0.406,1.349,0.455,1.797,0.536c0.714,0.07,1.433,0.119,2.108,0.171c0.638,0.056,1.299,0.078,1.933,0.179
		c0.435,0.053,1.416,0.133,1.598,0.63c0.665,1.804-7.355,1.401-8.292,1.369c-1.072-0.021-2.484-0.192-3.427,0.337
		c-1.042,0.584-0.539,2.308-0.434,3.222c0.133,1.145,0.259,2.283,0.153,3.446c-0.079,1.169-0.402,2.311-0.636,3.45
		c-0.456,2.258-0.936,4.521-1.419,6.779c-0.486,2.28-0.99,4.56-1.502,6.839c-0.273,1.274-0.557,2.546-0.83,3.813l-0.081,0.326
		c-0.708,3.222-1.442,6.5-2.149,9.742c-0.333,1.646-0.637,3.394,0,4.161c0.527,0.658,1.727,0.536,2.482,0.564
		c0.735,0.021,1.453,0.021,2.182,0.021c1.472,0,2.936,0,4.388-0.021c1.272,0,2.714,0.122,3.905-0.361
		c1.32-0.508,0.868-2.413,1.825-3.243c0.331-0.28,0.786-0.438,1.242-0.259c0.554,0.231,0.764,0.866,0.845,1.422
		c0.198,1.652-0.41,3.453-1.503,4.671c-0.736,0.837-1.513,1.412-2.612,1.695c-0.988,0.252-1.996,0.28-2.998,0.336
		c-0.725,0.021-1.572,0.049-2.102,0.633c-0.248,0.249-0.28,0.806-0.328,1.362c-0.077,0.816-0.203,1.775,0.101,2.592
		c0.334,0.858,1.3,1.191,1.979,1.673c0.938,0.631,1.652,1.527,2.339,2.414c0.658,0.858,2.409,2.934,0.854,3.824
		c-0.903,0.536-1.821-0.91-2.309-1.467c-0.476-0.585-1.39-0.812-2.107-0.84c-0.557-0.021-1.411-0.046-1.796,0.381
		c-0.204,0.231-0.282,0.637-0.231,0.914c0.08,0.378,0.461,0.739,0.638,1.065c0.23,0.382,0.413,0.816,0.553,1.247
		c0.414,1.191,0.536,2.487,0.384,3.754c-0.356,2.766-1.749,5.196-2.652,7.81c-0.666,1.958-1.143,4.29-0.827,6.37
		c0.112,0.563,0.312,1.116,0.612,1.6c1.426,2.255,3.961,3.394,6.448,4.129c0.755,0.231,1.574,0.434,2.359,0.634
		c1.766,0.434,3.573,0.787,5.372,1.071c1.472,0.249,2.922,0.375,4.395,0.554c1.17,0.129,2.361,0.336,3.373,0.97
		c1.897,1.138,2.003,3.449,1.954,5.424c-0.078,3.404-0.23,6.773-0.357,10.146c-0.081,2.36-0.146,5.053-2.182,6.829
		c-2.133,1.926-4.896,2.15-7.056,2.15c-0.827,0-1.676-0.021-2.432-0.07l-0.301-0.031c-5.933-0.305-12.2-0.575-17.405-0.735
		c-14.38-0.508-28.766-0.68-43.175-0.809c-4.106-0.021-8.245-0.049-12.358-0.102c-9.739-0.07-19.504,0.081-29.25,0.102
		c-2.837,0-5.703-0.021-8.567-0.13c-2.41-0.07-4.924-0.553-7.355-0.375c-0.947,0.098-1.402,0.455-2.371,1.24
		c-1.392,1.19-2.604,2.129-4.229,2.665c-2.128,0.708-4.489,1.012-7.433,1.012c-7.688,0-15.377-1.041-23.036-1.597
		c-4.106-0.277-8.194-0.427-12.3-0.15c-4.034,0.252-8.345,0.634-12.127-1.04c-1.063-0.456-1.949-1.169-2.815-1.825l-0.384-0.305
		c-0.657-0.536-1.341-1.068-2.077-1.474c-3.725-2.161-8.577-1.754-12.683-1.727c-8.172,0.024-16.316,0-24.456-0.2l-8.527-0.234
		c-11.641-0.329-23.027-0.634-34.444-0.704c-1.396-0.029-2.819-0.029-4.188-0.029c-7.055,0-13.57,0.126-19.889,0.354
		c-4.49,0.15-9.079,0.28-13.541,0.378l-1.958,0.077c-9.08,0.228-18.443,0.511-27.602,1.043c-6.163,0.456-12.532,0.659-19.402,0.659
		c-2.331,0-4.673-0.021-7.004,0.129c-0.735,0.053-1.492,0.15-2.259,0.252c-2.281,0.381-3.928,0.133-5.176-1.271
		c-1.465-1.723-3.09-3.499-5.349-4.973c-2.794-1.797-5.94-3.141-8.697-4.311c-1.729-0.714-3.453-1.446-5.127-2.259
		c-3.299-1.597-6.771-3.096-10.483-3.271c-1.218-0.049-2.409,0-3.6,0.056c-0.706,0.049-1.161,0.119-1.369,0.854
		c-0.304,1.068-0.075,2.238,0,3.331c0.15,2.28,0.208,4.587,0.257,6.891c0.051,1.482,0.072,2.977,0.051,4.448
		c0,0.123,0,1.544-0.079,1.565c1.191-0.273,2.41-0.456,3.601-0.736c1.704-0.406,3.633-1.04,5.351-0.476
		c0.483,0.151,0.948,0.375,1.327,0.683c0.832,0.711,0.888,1.496,0.809,1.93c-0.232,1.421-1.927,2.381-3.326,2.987
		c-4.795,1.803-9.79,2.188-14.66,2.521l-3.22,0.252c-4.29,0.326-8.758,0.654-13.139,0.676l-1.554,0.032
		c-4.41,0-8.929-0.402-11.158-5.253c-1.32-2.837-0.858-6.258-0.635-9.309c0.1-0.966,0.178-1.926,0.283-2.892
		c-0.03,0.077-1.474,0.333-1.625,0.354c-0.555,0.15-1.091,0.329-1.625,0.585c-1.018,0.483-1.879,1.271-2.693,2.056
		c-0.756,0.76-1.465,1.597-2.08,2.515c-0.935,1.369-1.544,2.966-2.058,4.559c-0.523,1.754-0.928,3.53-1.057,5.358
		c-0.134,1.775,0,3.571,0.43,5.326c0.433,1.674,1.194,3.169,2.129,4.623c0.1,0.15,0.205,0.343,0.333,0.504
		c2.282,2.809,5.581,4.056,10.676,4.056c2.031,0,4.105-0.201,6.165-0.406l0.89-0.078c1.704-0.15,3.298-0.305,4.818-0.354h0.661
		c2.155,0,4.892,0.253,7,2.305l0.712,0.742c1.142,1.11,1.93,1.898,3.476,2.28c0.322,0.101,1.29,0.357,1.776,0.536
		c0.483,0.123,0.835,0.605,0.835,1.138c0,0.081-0.03,0.15-0.051,0.252c-0.15,0.483-0.562,0.84-1.04,0.869
		c-0.179,0.021-0.815,0.123-1.753,0.192l-2.049,0.154h-0.261c-1.445,0-2.331-0.83-3.087-1.516c-0.255-0.256-0.485-0.456-0.739-0.662
		c-0.605-0.427-1.32-0.606-2.339-0.606c-0.477,0-0.982,0.028-1.445,0.07c-2.888,0.281-5.375,0.41-7.556,0.41
		c-3.099,0-6.193-0.301-9.234-0.837c-1.14-0.228-2.259-0.505-3.378-0.736c-1.673-0.435-3.32-0.938-4.945-1.523
		c-0.373-0.15-0.756-0.304-1.139-0.477c-0.23,2.403,0.171,4.837,0.634,7.148c0.455,2.107,1.04,3.298,2.948,3.96
		c1.52,0.529,3.266,0.838,5.468,0.935c2.392,0.207,4.952,0.028,7.466-0.097l0.585-0.028c1.444-0.102,2.985-0.183,4.51-0.225h0.869
		c2.026-0.077,3.75,0,5.095,0.378c1.825,0.585,2.687,1.674,3.55,2.714c0.305,0.41,0.613,0.812,0.991,1.19
		c0.15,0.15,0.405,0.329,1.168,0.329c0.328,0,0.657-0.028,0.962-0.049c0.786-0.08,1.553-0.101,2.137,0
		c0.727,0.252,1.035,0.869,0.857,1.475c-0.229,0.756-0.764,0.655-1.393,0.938c-0.666,0.301-1.243,0.683-1.907,0.907
		c-1.746,0.612-2.994,0.563-4.185-0.123c-0.557-0.354-1.041-0.784-1.423-1.141c-0.757-0.684-1.442-1.247-2.505-1.338
		c-1.201-0.133-2.441,0.221-3.631,0.27c-4.106,0.255-8.246-0.078-12.329-0.27c-1.163-0.063-2.36-0.133-3.53-0.214
		c-1.394-0.101-2.786-0.221-4.182-0.406c-0.533-0.049-0.988-0.119-1.369-0.178c-0.555,4.64,0.715,10.712,4.842,14.053
		c0.968,0.792,2.037,1.142,3.377,1.142c2.053,0,4.513-0.935,6.491-1.694c2.36-0.886,4.745-1.775,7.004-1.775h0.301
		c2.714,0.119,5.43,1.219,7.666,3.067c0.478,0.483,0.529,1.12,0.201,1.604c-0.179,0.221-0.634,0.48-0.964,0.48
		c-0.227,0-0.435-0.077-0.638-0.207c-0.858-0.529-2.281-0.406-3.723-0.073l-0.334,0.073c-2.814,0.662-5.809,1.45-9.028,2.462
		c-2.716,0.886-6.042,1.775-8.578,1.594c-0.022,0.36,0,0.767,0.053,1.271c0.18,2.182,1.069,4.287,2.381,5.632
		c2.873,2.892,10.654,3.278,13.218,3.407c3.906,0.22,7.634-0.386,11.802-1.068c2.715-0.413,5.275-0.788,7.91-0.991
		c7.71-0.532,13.954-2.056,19.282-7.687c0.636-0.659,1.241-1.369,1.875-2.157l0.233-0.252c0.475-0.557,0.937-1.064,1.392-1.596
		c2.03-2.238,4.312-4.287,6.287-6.013l0.184-0.182c1.774-1.593,3.984-3.547,6.618-3.674c0.432-0.028,0.866-0.052,1.372-0.052
		c1.623,0,3.248,0.154,5.023,0.329l1.878,0.179c1.926,0.154,3.852,0.305,5.78,0.505c6.285,0.584,12.864,1.04,18.415,1.425
		l0.484,0.028c5.296,0.343,10.805,0.729,16.184,1.211c2.966,0.252,6.193,0.584,9.393,0.991c5.116,0.704,10.652,1.776,17.475,3.376
		c4.592,1.062,9.283,2.203,13.823,3.323c21.462,5.194,43.529,10.523,65.652,11.763c1.725,0.108,3.3,0.129,4.795,0.129
		c6.414,0,11.563-0.858,16.183-2.713c1.475-0.606,2.945-1.293,4.361-1.976c1.702-0.812,3.198-1.373,4.931-1.373
		c0.476,0,0.956,0.049,1.411,0.129l0.817,0.151c9.94,1.699,20.167,1.495,30.21,1.222c3.521-0.08,7.053-0.23,10.574-0.336
		c2.843-0.049,6.065-0.126,8.557,1.447c0.472,0.304,0.756,0.714,0.906,1.219c0.384,1.316-0.735,2.944-1.32,4.026
		c-4.13,7.95-2.506,17.587-1.544,26.062c0.305,2.462,0.968,4.714,1.958,6.489c0.856,1.454,2.046,1.625,4.076,1.804
		c9.138,0.76,18.322,0.528,27.479,0.76c6.362,0.13,12.756-0.021,19.125-0.074c0.352,0,0.885,0.305,1.04,0.638
		c0.481,0.956,0.584,2.027,0.685,3.117c0.534,5.256,0.663,10.551,0.814,15.833c0.485,13.874,0.862,27.777,0.862,41.68
		c0,11.308-0.227,22.626-0.606,33.934c-0.102,3.193-0.383,6.395-0.383,9.584c-0.89,20.704-2.31,39.572-4.29,57.684
		c-0.585,5.225-1.191,10.461-1.521,15.735c-0.434,6.59-8.599,5.196-13.01,4.454c-20.53-3.399-41.529-3.975-62.333-4.23
		c-6.084-0.08-12.148-0.123-18.241-0.203c-15.577-0.15-31.148-0.354-46.755-0.354c-3.572,0.126-6.468,0.434-9.101,1.013
		c-7.437,1.625-8.193,7.073-10.708,13.097c-1.036,2.479-3.5,2.307-5.708,3.016c-2.788,0.938-5.43,2.791-7.356,5.014
		c-3.471,3.965-4.055,9.599-4.339,14.59c-1.089,19.765,0.485,39.548,0.768,59.337c0.273,18.948,0.324,37.904,0.101,56.878
		c-0.129,12.051-0.154,24.121-0.434,36.172c-0.283,11.08-0.079,22.453-2.159,33.384c-1.068,5.782-2.816,11.441-5.708,16.537
		c-2.031,3.603-4.644,7.175-8.215,11.269c-7.333,8.419-15.578,17.194-25.193,26.881c-3.419,3.477-7.175,6.878-11.744,8.808
		c-9.589,4.006-21.178,2.286-31.279,4.699c-9.666,2.301-15.901,6.339-18.515,12.047c-1.525,3.193-2.261,8.85-0.94,12.174
		c2.586,6.568,13.118,5.658,18.647,5.931c10.882,0.586,21.784,0.586,32.672,0.157c10.169-0.409,20.752-0.611,30.743-2.79
		c2.488-0.536,5.123-1.219,7.382-1.797c4.844-1.303,9.87-2.616,15.123-2.997c14.864-1.471,29.194,4.714,44.165,2.462
		c5.68-0.861,11.131-1.877,14.915-5.046c5.981-4.953,5.859-13.147,4.712-19.131c-1.618-8.472-4.057-17.202-7.227-25.95
		c-0.787-2.237-1.697-4.497-2.614-6.721l-0.25-0.637c-3.15-7.789-6.419-15.825-6.316-24.514c0.021-5.953,1.392-11.757,2.714-17.422
		l0.585-2.557c2.843-12.407,5.375-24.486,8.269-38.815l2.23-11.238c2.334-11.44,4.261-22.479,6.57-35.717l0.434-2.409
		c-0.029-0.356,0.354-0.812,0.881-0.941c0.41-0.123,1.02,0.157,1.249,0.585c5.479,9.889,11.665,19.176,17.68,28.161
		c2.054,3.086,3.955,5.983,5.687,8.697c1.618,2.513,4.209,6.04,7.881,7.406c1.27,0.43,2.593,0.664,4.064,0.664
		c3.019,0,6.005-0.889,9.082-1.858c10.706-3.377,21.46-6.595,32.29-9.482c9.179-2.463,18.67-4.206,27.734-7.162
		c1.868-0.606,3.904-1.464,5.902-1.335c4.36,0.256,2.615,6.419,2.464,9.207c-1.163,21.891-2.03,43.785-3.221,65.678
		c-0.413,7.4-0.868,14.856-1.524,22.297c-0.585,6.871-1.42,14.282,0.961,20.953c0.691,1.854,1.854,3.677,3.148,5.021
		c3.78,3.831,8.807,5.81,13.269,7.284c6.416,2.129,13.085,3.479,19.833,4.006c4.947,0.382,10.476-1.372,15.298-0.354
		c3.833,0.81,3.044,3.824,3.299,6.902c0.229,3.146,0.914,6.286,1.974,9.253c2.998,8.395,9.496,13.601,17.256,17.426
		c3.68,1.804,7.917,3.095,12.604,3.841c6.121,0.981,12.561,1.443,19.691,1.443c8.142,0,16.238-0.638,22.395-1.17
		c23.957-2.161,47.745-5.732,71.643-8.304c6.92-0.728,13.85-1.383,20.774-1.947c16.689-1.344,33.436-2.156,50.146-2.99
		c6.294-0.301,12.614-1.046,18.729-2.539c2.557-0.633,5.253-1.189,7.656,0.18c2.741,1.568,3.936,4.793,6.194,6.849
		c3.884,3.548,8.395,6.37,12.933,9.004c13.825,8.068,32.926,15.196,40.562,30.341c3.128,6.185,3.219,13.374,2.994,20.164
		c-0.15,4.574-0.886,9.063-1.267,13.605c-0.288,2.987-1.394,8.614,0.917,11.059c1.369,1.461,3.779,1.771,5.529,1.771
		c1.391,0,2.966-0.2,4.409-0.58c1.548-0.435,2.923-1.114,4.236-2.08c2.571-1.906,4.441-4.692,6.234-7.386
		c2.136-3.148,3.888-6.882,5.26-9.918c0.357-0.734,0.689-1.395,1.017-2.087c3.318-7.014,7.102-14.984,7.405-22.948
		c0.757-18.753-20.885-30.086-20.524-48.835c0.308-14.337,6.703-29.017,2.938-43.333c-1.362-5.123-4.233-9.967-8.316-13.974
		c-4.262-4.209-9.2-6.828-14.322-7.608c-11.066-1.632-20.581,4.843-30.45,8.649c-2.434,0.938-5.249,1.523-8.415,1.796
		c-0.938,0.078-1.829,0.109-2.595,0.13c-4.64,0.154-8.898,1.724-13.497,2.108c-11.637,1.04-23.409-1.068-35.022-1.876
		c-11.976-0.838-23.975-1.268-35.979-1.681c-6.85-0.256-13.696-0.478-20.546-0.782c-5.073-0.203-10.432,0.354-15.398-0.809
		c-1.089-0.229-4.313-0.836-4.285-2.314c0-1.667,3.978-2.305,5.046-2.864c4.563-2.386,9.514-5.432,11.672-10.356
		c-1.303-0.476-4.415-1.895-4.952-2.251c-9.868-6.898-14.609-18.563-16.689-29.955c-2.592-14.127-2.784-28.614-2.736-42.952
		c0.054-8.85,0.222-17.685,0.334-26.514c0.095-6.843,0.066-13.725,0.147-20.566c0.248-20.087-0.358-40.206-0.688-60.328
		c-0.337-19.075-0.812-38.101-2.081-57.152c-0.254-3.677-0.532-7.638-0.706-11.616c-0.767-13.146-1.496-28.643-1.449-43.708
		c0.048-11.017,0.966-22.591,2.892-36.553c0.455-3.219,0.967-6.773,1.577-10.524l0.622-3.96c0.687-4.335,1.405-8.646,2.065-12.964
		c2.789-17.878,6.995-35.566,9.054-53.545c0-0.564,0.508-1.04,1.138-1.04c18.771,0,37.878-0.689,56.697-2.515
		c5.483-0.532,10.989-1.089,16.466-1.547l0.735-25.064c0.077-0.553,0.412-0.959,0.862-1.109c0.941-0.133,3.171-0.333,9.156-0.463
		h0.36c4.161-0.179,10.346-0.385,16.46-0.385c20.29,0,40.588-0.192,60.839-1.597c9.678-0.634,20.644-1.341,30.737-4.027
		c3.096-0.816,5.729-1.772,8.075-2.92c3.972-1.902,7.459-5.173,9.561-8.951c8.013-14.54,10.53-32.144,12.327-48.4
		c1.365-12.261,1.169-24.612,0.856-34.025C838.9,277.35,837.305,262.285,835.396,247.272 M512.855,232.301
		c-0.539,0.381-1.246,0.511-1.778,0.048c-0.484-0.406-0.99-1.19-1.345-1.694c-0.462-0.606-0.857-1.443-0.41-2.182
		c0.516-0.812,1.523-1.02,2.336-0.606c0.992,0.557,1.898,1.817,1.982,2.966C513.668,231.39,513.335,231.943,512.855,232.301
		 M517.219,220.051c-0.15,0.249-0.385,0.456-0.693,0.606c-0.959,0.483-2.129,0.434-3.161,0.434c-0.28,0-2.44,0.172-2.543-0.024
		c0.256,0.508,0.462,1.114,0.462,1.828c0,4.945-7.787,4.994-7.787,0c0-0.413,0.094-0.843,0.255-1.25
		c0.119-0.382,0.505-0.729,0.581-1.111c0.197-0.763-1.552,0-1.933,0.049c-0.966,0.15-3.629,0.456-3.828-0.967
		c-0.149-1.04,0.663-1.975,1.496-2.41c0.966-0.507,2.08-0.406,3.147-0.456c2.253-0.101,4.49-0.073,6.742-0.325
		c0.636-0.081,1.299-0.183,1.933-0.28c1.365-0.182,2.998-1.093,4.21,0C516.967,216.983,517.874,218.909,517.219,220.051"/>
	<path fill="#FFCC00" d="M593.852,270.658c-0.714,4.237-2.279,8.173-3.455,12.278c-0.146,0.557-0.277,1.089-0.372,1.646
		c-0.382,1.878-0.511,4.367,1.313,5.59c1.216,0.808,3.604,0.654,4.896,0.171c1.476-0.536,2.763-1.52,4.039-2.41
		c2.438-1.698,4.384-3.828,5.777-6.471c0.991-1.874,1.484-3.905,1.849-5.96c0.078-0.456,0.612-5.348,0.747-5.379
		c-2.572,0.406-6.062,0.686-9.922,0.686C597.001,270.808,595.376,270.759,593.852,270.658"/>
</g>
</svg>
