<svg xmlns="http://www.w3.org/2000/svg" viewBox="0 0 114.52 36.13"><defs><style>.cls-1{fill:#18bd67;}</style></defs><g id="Layer_2" data-name="Layer 2"><g id="レイヤー_2" data-name="レイヤー 2"><path class="cls-1" d="M24.55,31.84h-4V20.28L18.14,31.84H15L12.3,20.28V31.84H8.75V11.25h5.84l2.08,10.68,1.81-10.68h6.07Z"/><path class="cls-1" d="M35,24.8h-5.5v3.86c0,.57.23.85.71.85s.7-.28.7-.84V25.34H35v3.38q0,3.38-4.82,3.37t-4.77-3.52v-10q0-3.53,4.77-3.53T35,18.43ZM31,22.29V18.45c0-.55-.23-.82-.7-.82s-.71.27-.71.82v3.84Z"/><path class="cls-1" d="M40.06,31.84H36V11.25h4.08Z"/><path class="cls-1" d="M40.9,28.57v-10Q40.9,15,45.76,15a6.46,6.46,0,0,1,3.3.82,2.75,2.75,0,0,1,1.43,2.56V28.71c0,2.26-1.58,3.38-4.73,3.38S40.9,30.92,40.9,28.57Zm5.5.09V18.44c0-.54-.23-.81-.7-.81s-.71.27-.71.81V28.66c0,.57.24.85.71.85S46.4,29.23,46.4,28.66Z"/><path class="cls-1" d="M60.92,31.84H56.83V18.43c0-.51-.24-.76-.73-.76a.64.64,0,0,0-.73.73V31.84H51.28V15.17h4.09v.55A4,4,0,0,1,57.92,15a3.72,3.72,0,0,1,2,.6,2,2,0,0,1,1,1.77Z"/><path class="cls-1" d="M65.18,31.3l-.35.54H61.74V11.25h4.09v4.41A4,4,0,0,1,68.39,15a3.74,3.74,0,0,1,2,.6,1.92,1.92,0,0,1,.93,1.72v12a2.29,2.29,0,0,1-1.11,2,4.78,4.78,0,0,1-2.68.73A4.26,4.26,0,0,1,65.18,31.3Zm2.11-2.56V18.39c0-.51-.25-.76-.73-.76a.64.64,0,0,0-.73.73V28.74c0,.51.24.77.73.77S67.29,29.25,67.29,28.74Z"/><path class="cls-1" d="M72.16,28.57v-10Q72.16,15,77,15a6.48,6.48,0,0,1,3.31.82,2.75,2.75,0,0,1,1.42,2.56V28.71c0,2.26-1.57,3.38-4.73,3.38S72.16,30.92,72.16,28.57Zm5.5.09V18.44c0-.54-.24-.81-.7-.81s-.72.27-.72.81V28.66c0,.57.24.85.72.85S77.66,29.23,77.66,28.66Z"/><path class="cls-1" d="M82.5,28.57v-10Q82.5,15,87.36,15a6.46,6.46,0,0,1,3.3.82,2.75,2.75,0,0,1,1.43,2.56V28.71c0,2.26-1.58,3.38-4.73,3.38S82.5,30.92,82.5,28.57Zm5.5.09V18.44c0-.54-.23-.81-.7-.81s-.72.27-.72.81V28.66c0,.57.24.85.72.85S88,29.23,88,28.66Z"/><path class="cls-1" d="M104.35,31.84h-4.8l-2.5-6.05v6.05H93V11.25h4.09v9.23l2.07-5.31h4.23l-2.95,7.29Z"/><path class="cls-1" d="M104.93,25.14H109v3.52c0,.57.24.85.71.85s.71-.54.71-1.61c0-1.4-.28-2.32-.85-2.73a20.88,20.88,0,0,1-3.86-2.35,2.73,2.73,0,0,1-.67-2V18.57q0-3.53,4.76-3.53c3.08,0,4.62,1.13,4.62,3.37V21.7h-4l.09-2c0-1.39-.26-2.08-.77-2.08s-.78.43-.78,1.31a4.88,4.88,0,0,0,.34,2c.23.46,1.48,1.26,3.75,2.38a3.16,3.16,0,0,1,1.42,2.7v2.51q0,3.52-4.85,3.52t-4.74-3.38Z"/><path class="cls-1" d="M45.71,5.79A3.44,3.44,0,0,0,43,7.2c-3.53-3-18-13.71-35.36-1.42-16.68,14.34-.67,30.35-.67,30.35C-10.83,12.3,23.09-8,42.91,7.26a3.35,3.35,0,0,0-.62,2,3.42,3.42,0,1,0,3.42-3.42Z"/><rect class="cls-1" x="45.29" y="1.98" width="4.34" height="1.17" transform="translate(36.7 48.86) rotate(-80.01)"/><rect class="cls-1" x="49.55" y="4.79" width="3.34" height="1" transform="translate(1.09 17.06) rotate(-19.11)"/><rect class="cls-1" x="50.81" y="8.84" width="1" height="2.5" transform="translate(21.02 52.72) rotate(-65.73)"/></g></g></svg>