<svg xmlns="http://www.w3.org/2000/svg" width="100%" height="100%" viewBox="0 0 96 96" fill="none" xmlns:v="https://vecta.io/nano"><mask id="A" maskUnits="userSpaceOnUse" x="0" y="0"><path d="M96 0H0V96H96V0Z" fill="#fff"/></mask><g mask="url(#A)"><path d="M96 48a48 48 0 0 1-29.631 44.346 48 48 0 0 1-52.31-10.405A48 48 0 0 1 .922 57.364a48 48 0 0 1 2.731-27.733A48 48 0 0 1 48 0a48 48 0 0 1 48 48z" fill="#2E26FF"/><path fill-rule="evenodd" d="M30.693 26.921l-5.4 39.9c-.3 2.22 7.65 3.3 7.95 1.086l5.4-39.9c.3-2.223-7.65-3.3-7.95-1.083m13.295 1.119V68.27c0 2.241 8.021 2.241 8.021 0V28.043c0-2.236-8.021-2.236-8.021 0zm13.365-.039l5.4 39.9c.3 2.22 8.25 1.134 7.95-1.086l-5.4-39.9c-.3-2.223-8.25-1.14-7.95 1.083" fill="#fff"/></g></svg>