<?xml version="1.0" encoding="UTF-8"?>
<svg xmlns="http://www.w3.org/2000/svg" width="488" height="150">
  <circle cx="412.5" cy="75.5" r="74.5" fill="#e2e71f"/>
  <circle cx="246.5" cy="74.5" r="74.5" fill="#78d64b"/>
  <circle cx="75.5" cy="75.5" r="74.5" fill="#101820"/>
  <path fill="#fff" d="M31 120.5h19V70l17.5 50.5h17L54.5 31H31zm89.5 0h-19V71l-14 40L79 86l18.5-55h23z"/>
  <path fill="#231f20" d="M236.11 46.88c0-2.26-4.53-1.93-7.55-1.93-4.24 0-11.75-4.67-11.75 1.26 0 3.08 4.06 4.61 8.14 4.61 4.01 0 11.16-.61 11.16-3.94z"/>
  <path fill="none" stroke="#231f20" stroke-linecap="round" stroke-linejoin="round" stroke-width="4" d="M253.5 86.5a6 6 0 1 1-12 0 6 6 0 0 1 12 0zM257 42h7c3.96 2.37 8.01 33.99 12.24 38.23C278 82 281.45 85.75 285 87m-37.5-.5l8 12.5m4 0h-7M287 86.5a3.5 3.5 0 1 1-7 0 3.5 3.5 0 0 1 7 0zm-73.5 0a3.5 3.5 0 1 1-7 0 3.5 3.5 0 0 1 7 0zm27.5 0h-31l21-31h37.5m-42-8l18 33m7.5.5l17.5-21M305 86.5a21.5 21.5 0 1 1-43 0 21.5 21.5 0 0 1 43 0zm-73.5 0a21.5 21.5 0 1 1-43 0 21.5 21.5 0 0 1 43 0z"/>
  <path fill="#231f20" d="M360.46 63.04c-3.19 0-5.7.72-7.51 2.16a7.22 7.22 0 0 0-2.7 5.96c0 1.34.27 2.51.82 3.52.55 1 1.29 1.88 2.2 2.63.93.76 2.32 1.55 4.16 2.37 1.97.88 3.27 1.53 3.9 1.93.65.4 1.14.83 1.47 1.27.33.43.5.92.5 1.48 0 1-.39 1.76-1.14 2.27a5.7 5.7 0 0 1-3.22.76c-1.17 0-2.47-.18-3.89-.53-1.4-.35-2.06-.95-4.1-1.81l-2.11 4.62c2.47 1.15 6.38 2.72 9.6 2.72 3.5 0 6.01-.74 7.82-2.23a7.43 7.43 0 0 0 2.74-6.09c0-1.86-.49-3.43-1.46-4.7-.96-1.3-2.94-2.58-5.78-3.85-2.15-.97-3.79-1.63-4.42-2a4.66 4.66 0 0 1-1.34-1.15c-.28-.4-.43-.87-.43-1.4 0-.86.35-1.56 1.06-2.1.7-.53 1.7-.8 3.02-.8 1.1 0 2.23.13 3.36.38 1.15.24 2.6.68 4.35 1.3l2.06-4.7a31.86 31.86 0 0 0-4.47-1.49 18.56 18.56 0 0 0-4.49-.52zm53.54.29L403.42 92h6.08l2.14-6.8h9.87c.76 2.27 1.5 4.54 2.13 6.8h6.08L419.3 63.33H414zm-39.9.12V92h5.75V79.68H395V92h5.73V63.45H395v11.19h-15.15v-11.2h-5.76zm58.2 0V92h6.05V81.04h3.22L447.4 92h6.72l-7.4-12.44c2.79-.56 4-1.77 4.93-3.07a7.62 7.62 0 0 0 1.38-4.49c0-2.88-.93-5.02-2.79-6.43-1.86-1.42-2.73-2.12-9.61-2.12h-8.32zm25.4 0V92h18.45v-5h-12.4v-7.36h9.68v-4.96h-9.67V68.4h12.39v-4.96H457.7zm-19.35 4.96h1.84c4.31 0 4.39.28 5.31.86.94.57 1.41 1.53 1.41 2.89s-.46 2.37-1.37 3c-.9.64-1.04.96-5.24.96h-1.95v-7.71zm-21.85 1.35c.95 3.46 2.11 6.91 3.3 10.36h-6.56l3.26-10.36z"/>
</svg>