<svg xmlns="http://www.w3.org/2000/svg" width="2342" height="2004" viewBox="0 0 2342 2004" version="1.1"><path d="M 1457.542 183.708 C 1454.242 184.582, 1451.133 187.049, 1449.018 190.472 C 1442.660 200.758, 1450.038 207.644, 1481 220.322 C 1501.433 228.689, 1512.823 233.901, 1535.820 245.410 C 1615.018 285.043, 1687.948 337.991, 1752.960 403.056 C 1847.431 497.604, 1918.886 612.059, 1959.885 734.500 C 1982.304 801.456, 1995.086 861.147, 2000.464 924 C 2005.132 978.558, 2004.927 1050.427, 1999.955 1102.500 C 1992.364 1181.995, 1973.281 1257.205, 1938.806 1343.500 C 1929.720 1366.244, 1929.354 1369.145, 1934.728 1375.825 C 1938.315 1380.282, 1943.578 1384, 1946.303 1384 C 1959.127 1384, 1994.309 1291.280, 2012.483 1209.589 C 2023.533 1159.923, 2030.100 1111.640, 2033.104 1058 C 2034.581 1031.618, 2033.707 964.948, 2031.557 940 C 2021.431 822.518, 1993.202 718.158, 1944.592 618.500 C 1912.244 552.181, 1879.070 501.451, 1827.540 439.505 C 1788.677 392.784, 1762.299 365.922, 1723.184 333.229 C 1657.399 278.245, 1578.155 229.388, 1503.412 197.729 C 1476.662 186.399, 1463.069 182.244, 1457.542 183.708 M 334.121 813.675 C 329.534 815.982, 327.628 819.424, 323.048 833.665 C 305.161 889.286, 293.482 989.757, 295.403 1071.500 C 298.852 1218.302, 328.087 1339.417, 389.059 1459.500 C 444.491 1568.672, 521.730 1665.817, 614.531 1743.080 C 650.268 1772.833, 704.265 1810.311, 722 1817.670 C 728.435 1820.340, 734.640 1820.641, 737.791 1818.434 C 740.795 1816.330, 744 1809.828, 744 1805.839 C 744 1800.725, 735.494 1793.437, 708.776 1775.662 C 657.267 1741.392, 618.379 1709.591, 575.988 1667.075 C 441.581 1532.272, 354.658 1356.182, 332.098 1173 C 323.838 1105.932, 322.826 1038.404, 329.063 970.500 C 332.549 932.546, 337.499 900.949, 346.141 861.500 C 351.689 836.172, 353.016 824.866, 351.008 820.019 C 348.399 813.721, 340.175 810.631, 334.121 813.675" stroke="none" fill="#ce2027" fill-rule="evenodd"/><path d="M 548.270 712.102 C 541.318 716.555, 530.651 736.808, 516.563 772.304 C 488.387 843.297, 471.919 916.916, 466.904 994.306 C 465.377 1017.865, 466.281 1083.070, 468.424 1104 C 480.803 1224.892, 516.591 1327.724, 579.445 1423 C 632.726 1503.764, 700.276 1572.702, 775.094 1622.669 C 799.506 1638.973, 809.480 1643.115, 816.911 1640.037 C 821.115 1638.295, 825 1632.270, 825 1627.489 C 825 1624.013, 824.317 1622.925, 818.750 1617.540 C 815.313 1614.215, 804.625 1606.147, 795 1599.612 C 739.042 1561.620, 695.435 1522.685, 655.102 1474.705 C 582.191 1387.972, 530.736 1281.139, 508.054 1169.400 C 486.556 1063.496, 492.918 942.501, 525.501 837.551 C 532.290 815.685, 538.295 799.882, 554.134 762.202 C 563.199 740.637, 568.472 726.796, 568.776 723.768 C 569.207 719.477, 568.963 718.768, 566.158 716.148 C 562.437 712.672, 557.061 709.994, 553.849 710.017 C 552.557 710.026, 550.046 710.965, 548.270 712.102 M 1755.192 711.676 C 1753.373 712.572, 1750.504 714.595, 1748.816 716.171 C 1746.039 718.766, 1745.794 719.484, 1746.224 723.768 C 1746.528 726.796, 1751.801 740.637, 1760.866 762.202 C 1776.705 799.882, 1782.710 815.685, 1789.499 837.551 C 1822.082 942.501, 1828.444 1063.496, 1806.946 1169.400 C 1773.901 1332.188, 1681.866 1479.432, 1552.500 1576.478 C 1544.250 1582.667, 1529.625 1593.078, 1520 1599.612 C 1510.375 1606.147, 1499.688 1614.215, 1496.250 1617.540 C 1490.683 1622.925, 1490 1624.013, 1490 1627.489 C 1490 1632.270, 1493.885 1638.295, 1498.089 1640.037 C 1505.520 1643.115, 1515.494 1638.973, 1539.906 1622.669 C 1604.132 1579.777, 1660.177 1525.785, 1711.358 1457.500 C 1768.872 1380.766, 1809.294 1293.928, 1830.897 1200.704 C 1838.087 1169.676, 1842.875 1140.141, 1846.576 1104 C 1848.719 1083.070, 1849.623 1017.865, 1848.096 994.306 C 1844.593 940.254, 1835.712 889.062, 1820.979 838 C 1808.629 795.196, 1786.093 738.439, 1774.561 721.091 C 1767.651 710.697, 1762.379 708.134, 1755.192 711.676" stroke="none" fill="#04743c" fill-rule="evenodd"/><path d="M 1085.628 267.728 L 1082.757 268.156 1083.463 275.328 C 1083.851 279.273, 1084.244 282.571, 1084.335 282.659 C 1084.426 282.746, 1087.586 282.568, 1091.357 282.263 L 1098.214 281.709 1097.618 278.104 C 1097.290 276.122, 1097.017 272.813, 1097.011 270.750 L 1097 267 1092.750 267.150 C 1090.412 267.232, 1087.208 267.492, 1085.628 267.728 M 1068 268.729 L 1062.500 269.080 1062.829 276.540 L 1063.158 284 1066.954 284 C 1069.042 284, 1072.156 283.719, 1073.875 283.375 C 1076.890 282.772, 1077 282.569, 1076.986 277.625 C 1076.970 271.317, 1076.127 267.940, 1074.633 268.189 C 1074.010 268.293, 1071.025 268.536, 1068 268.729 M 967.250 278.145 C 964.913 278.680, 963 279.624, 963 280.242 C 963 281.998, 985.040 384.373, 985.522 384.855 C 986.092 385.425, 997.971 382.885, 998.370 382.107 C 998.541 381.773, 993.672 358.100, 987.549 329.500 C 976.579 278.256, 976.381 277.498, 973.958 277.336 C 972.606 277.246, 969.587 277.610, 967.250 278.145 M 1285.575 283.144 C 1285 284.906, 1283 294.846, 1283 295.947 C 1283 296.730, 1295.946 299.473, 1296.465 298.800 C 1296.813 298.347, 1299 286.842, 1299 285.461 C 1299 284.798, 1297.088 283.952, 1294.750 283.580 C 1292.412 283.208, 1289.492 282.653, 1288.259 282.346 C 1286.855 281.996, 1285.853 282.294, 1285.575 283.144 M 1305.545 288.179 C 1303.866 295.541, 1302.967 300.292, 1303.216 300.486 C 1303.804 300.943, 1316.207 303.125, 1316.479 302.819 C 1316.969 302.269, 1319 291.993, 1319 290.062 C 1319 288.718, 1317.990 288.049, 1315.250 287.577 C 1313.188 287.222, 1310.279 286.690, 1308.787 286.394 C 1306.551 285.952, 1305.981 286.265, 1305.545 288.179 M 924.205 288.763 C 919.277 290.206, 918.951 290.493, 919.502 292.907 C 919.828 294.333, 925.621 315.075, 932.376 339 L 944.658 382.500 937.579 384.744 C 933.686 385.979, 929.600 386.989, 928.500 386.990 C 927.400 386.990, 923.227 388.182, 919.226 389.638 C 915.225 391.094, 911.805 392.109, 911.626 391.893 C 911.447 391.677, 906.427 378.900, 900.472 363.500 C 894.517 348.100, 889.291 335.089, 888.859 334.587 C 887.946 333.525, 858.079 344.817, 850.354 349.145 C 844.043 352.680, 838.657 358.479, 836.989 363.533 C 832.804 376.215, 842.610 404.938, 854.459 414.706 C 862.730 421.523, 871.368 421.470, 890.264 414.483 C 896.932 412.017, 902.707 410, 903.096 410 C 904.221 410, 906 415.971, 906 419.748 C 906 429.582, 897.778 435.846, 878 441.079 C 873.325 442.316, 869.151 443.626, 868.723 443.991 C 868.296 444.355, 868.453 447.013, 869.072 449.898 L 870.196 455.143 874.348 454.449 C 888.507 452.082, 901.700 446.851, 909.529 440.498 C 918.386 433.311, 921.995 420.749, 918.317 409.913 L 916.421 404.327 922 402.163 C 925.068 400.974, 928.461 399.968, 929.539 399.928 C 930.618 399.889, 938.022 397.962, 945.992 395.647 C 955.620 392.851, 960.561 390.945, 960.713 389.969 C 960.839 389.161, 954.527 365.778, 946.686 338.007 C 936.460 301.787, 932.016 287.471, 930.965 287.363 C 930.159 287.280, 927.117 287.910, 924.205 288.763 M 1087 294.482 C 1078.475 295.156, 1069.693 296.213, 1067.485 296.830 C 1060.457 298.792, 1054.762 303.164, 1051.539 309.073 C 1048.790 314.111, 1048.549 315.408, 1048.173 327.180 C 1047.512 347.871, 1051.538 360.357, 1060.859 366.525 C 1067.596 370.984, 1074.397 371.522, 1102.014 369.785 C 1128.576 368.114, 1149.319 368.563, 1185.331 371.589 C 1195.688 372.460, 1204.311 373.021, 1204.494 372.836 C 1204.929 372.398, 1212.133 297.795, 1211.774 297.456 C 1211.224 296.937, 1199.150 296.517, 1198.688 297.001 C 1198.426 297.276, 1197.014 310.325, 1195.550 326 C 1194.086 341.675, 1192.669 355.553, 1192.402 356.840 C 1191.922 359.153, 1191.802 359.173, 1182.208 358.563 C 1176.869 358.223, 1170.110 357.697, 1167.188 357.393 C 1162.068 356.861, 1161.895 356.744, 1162.393 354.170 C 1162.678 352.702, 1163.213 338.603, 1163.583 322.841 L 1164.257 294.182 1157.626 293.841 C 1153.979 293.653, 1150.935 293.500, 1150.860 293.500 C 1150.785 293.500, 1150.223 307.675, 1149.612 325 L 1148.500 356.500 1142 356.267 C 1138.425 356.138, 1131.134 356.030, 1125.797 356.026 L 1116.094 356.018 1115.594 352.759 C 1115.066 349.315, 1111.978 300.443, 1111.992 295.750 C 1112 293.117, 1111.798 293.005, 1107.250 293.128 C 1104.638 293.198, 1095.525 293.807, 1087 294.482 M 1338.086 337.364 C 1330.771 361.764, 1324.451 382.271, 1324.040 382.935 C 1323.469 383.859, 1321.913 383.743, 1317.397 382.438 C 1314.154 381.501, 1311.215 380.291, 1310.867 379.748 C 1310.519 379.204, 1306.469 377.998, 1301.867 377.066 C 1295.810 375.840, 1293.555 374.976, 1293.701 373.936 C 1293.811 373.146, 1296.399 359.625, 1299.451 343.889 C 1302.503 328.153, 1305 314.797, 1305 314.210 C 1305 313.013, 1294.571 310.567, 1292.635 311.310 C 1291.952 311.572, 1290.871 314.593, 1290.233 318.023 C 1289.595 321.454, 1288.944 324.385, 1288.786 324.537 C 1288.629 324.690, 1281.704 323.454, 1273.398 321.793 L 1258.296 318.771 1259.613 312.636 C 1260.337 309.261, 1260.946 306.015, 1260.965 305.423 C 1260.996 304.480, 1248.215 301.429, 1247.478 302.203 C 1247.322 302.366, 1243.751 320.275, 1239.543 342 C 1230.880 386.720, 1230.059 389.204, 1222.738 392.852 C 1218.473 394.977, 1217.559 395.094, 1213.259 394.062 C 1210.641 393.434, 1208.077 392.826, 1207.560 392.710 C 1207.042 392.595, 1205.843 395.113, 1204.895 398.307 L 1203.171 404.115 1205.836 405.179 C 1207.301 405.764, 1211.767 406.473, 1215.760 406.754 C 1224.861 407.394, 1230.672 405.380, 1236.479 399.574 C 1243.114 392.938, 1244.706 388.329, 1250.218 359.789 C 1253.011 345.330, 1255.681 333.070, 1256.153 332.545 C 1256.691 331.945, 1262.409 332.642, 1271.505 334.416 C 1283.137 336.684, 1285.991 337.564, 1285.955 338.871 C 1285.930 339.767, 1283.955 350.400, 1281.566 362.500 C 1279.177 374.600, 1277.395 384.685, 1277.606 384.911 C 1277.816 385.137, 1283.054 386.328, 1289.244 387.557 C 1295.435 388.786, 1302.075 390.455, 1304 391.267 C 1309.746 393.688, 1332.983 400.350, 1333.585 399.749 C 1334.175 399.159, 1365.074 296.659, 1364.712 296.493 C 1363.522 295.949, 1353.090 293, 1352.355 293 C 1351.821 293, 1345.400 312.964, 1338.086 337.364 M 1085.500 307.113 C 1073.310 308.035, 1066.678 310.036, 1064.427 313.471 C 1061.942 317.264, 1060.962 326.494, 1061.992 336.422 C 1063.242 348.477, 1064.875 352.946, 1069.090 355.848 C 1072.358 358.098, 1073.094 358.179, 1086.726 357.789 C 1094.551 357.564, 1101.139 357.183, 1101.366 356.940 C 1102.315 355.930, 1098.569 306.005, 1097.555 306.141 C 1096.975 306.218, 1091.550 306.656, 1085.500 307.113 M 1375.620 357.588 C 1365.292 385.411, 1356.990 408.300, 1357.171 408.452 C 1358.148 409.274, 1369.331 413.002, 1369.703 412.630 C 1370.310 412.023, 1407 313.137, 1407 312.107 C 1407 311.361, 1396.847 307, 1395.110 307 C 1394.719 307, 1385.949 329.764, 1375.620 357.588 M 868.224 354.968 C 850.232 362.339, 847.356 366.033, 850.388 377.871 C 852.790 387.245, 857.698 398.318, 861.298 402.482 C 866.348 408.324, 870.485 408.323, 886.210 402.472 L 898.920 397.743 897.626 394.622 C 896.915 392.905, 892.770 382.388, 888.416 371.251 C 882.892 357.121, 880.047 351.027, 879 351.085 C 878.175 351.131, 873.326 352.878, 868.224 354.968 M 1486.148 354.362 C 1484.787 356.062, 1479.817 366.156, 1480.183 366.476 C 1480.357 366.629, 1483.040 368.175, 1486.144 369.912 L 1491.788 373.071 1495.485 366.460 C 1497.519 362.824, 1499.029 359.730, 1498.841 359.585 C 1498.654 359.440, 1495.926 357.949, 1492.779 356.273 C 1488.660 354.078, 1486.804 353.543, 1486.148 354.362 M 1504.237 364.291 C 1502.518 366.504, 1497.670 376.005, 1498.088 376.342 C 1498.315 376.524, 1501.044 378.105, 1504.154 379.855 L 1509.807 383.037 1513.495 376.443 C 1515.523 372.816, 1517.029 369.737, 1516.841 369.600 C 1516.654 369.463, 1513.952 367.941, 1510.838 366.217 C 1506.578 363.858, 1504.944 363.382, 1504.237 364.291 M 1455.435 379.829 C 1446.469 384.036, 1441.207 390.573, 1429.536 412 C 1425.792 418.875, 1421.653 426.358, 1420.340 428.628 L 1417.952 432.757 1452.042 451.479 C 1470.791 461.777, 1486.257 470.044, 1486.410 469.851 C 1488.997 466.586, 1507.752 430.257, 1509.120 425.861 C 1514.811 407.578, 1507.369 394.227, 1485.413 383.328 C 1476.885 379.094, 1475.172 378.605, 1467.735 378.281 C 1461.183 377.995, 1458.669 378.312, 1455.435 379.829 M 711.761 383.342 C 708.607 385.079, 706.021 386.907, 706.014 387.404 C 706.006 387.902, 716.610 406.729, 729.579 429.242 C 742.547 451.756, 753.010 470.267, 752.829 470.379 C 746.626 474.223, 743.995 476.269, 743.973 477.264 C 743.959 477.944, 741.323 480.365, 738.116 482.645 L 732.285 486.790 713.481 461.435 C 701.503 445.284, 694.258 436.338, 693.520 436.790 C 689.808 439.064, 684.040 443.614, 684.021 444.283 C 684.010 444.713, 692.379 456.322, 702.619 470.080 C 712.860 483.838, 721.072 495.219, 720.869 495.371 C 713.340 500.998, 706.932 506.030, 703.379 509.105 C 700.904 511.247, 698.509 513, 698.057 513 C 697.606 513, 688.296 502.449, 677.368 489.554 C 666.441 476.659, 657.050 466.104, 656.500 466.099 C 655.950 466.094, 653.383 467.988, 650.795 470.309 L 646.090 474.529 666.509 498.498 L 686.927 522.467 684.214 525.301 C 682.721 526.860, 679.160 529.688, 676.301 531.587 C 673.441 533.486, 669.449 537.056, 667.430 539.520 C 665.411 541.984, 663.463 544, 663.101 544 C 662.739 544, 652.330 534.331, 639.971 522.513 C 627.612 510.696, 617.197 501.021, 616.827 501.013 C 616.456 501.006, 609.768 507.814, 601.964 516.143 C 585.797 533.398, 583.013 538.009, 583.031 547.500 C 583.040 552.071, 583.693 554.747, 585.772 558.739 C 591.060 568.893, 605.192 582.462, 615.220 587.014 C 617.919 588.238, 621.737 588.964, 625.554 588.978 C 635.709 589.015, 639.242 586.554, 661.859 563.688 C 683.682 541.624, 709.421 519.513, 736.229 499.801 C 745.431 493.035, 753.190 486.817, 753.473 485.983 C 753.756 485.149, 773.109 473.449, 796.480 459.983 C 819.852 446.517, 838.980 435.119, 838.987 434.654 C 838.994 434.188, 834.612 426.128, 829.250 416.742 C 815 391.798, 806.113 383.193, 792.719 381.370 C 782.626 379.997, 768.326 386.403, 759.170 396.401 C 753.857 402.202, 748.534 413.269, 746.784 422.154 L 745.473 428.808 736.198 412.654 C 731.096 403.769, 724.801 392.829, 722.209 388.342 L 717.495 380.183 711.761 383.342 M 1136 389.500 L 1136 397 1143 397 L 1150 397 1150 389.500 L 1150 382 1143 382 L 1136 382 1136 389.500 M 1156.832 389.332 L 1156.500 396.855 1159.375 397.428 C 1160.956 397.742, 1163.938 398, 1166 398 C 1169.400 398, 1169.808 397.708, 1170.375 394.875 C 1170.719 393.156, 1171 389.781, 1171 387.375 L 1171 383 1166.250 382.986 C 1163.638 382.979, 1160.525 382.711, 1159.332 382.391 C 1157.269 381.838, 1157.149 382.172, 1156.832 389.332 M 1189.645 387.616 C 1189.330 389.202, 1188.952 392.525, 1188.805 395 L 1188.538 399.500 1194.974 400.212 C 1198.513 400.603, 1201.599 400.735, 1201.830 400.504 C 1202.287 400.046, 1203.851 386.673, 1203.500 386.226 C 1203.382 386.075, 1200.345 385.677, 1196.751 385.341 L 1190.218 384.731 1189.645 387.616 M 1461.432 391.909 C 1457.412 393.642, 1450.417 402.890, 1443.628 415.446 C 1439.848 422.436, 1437.148 428.505, 1437.628 428.933 C 1438.860 430.031, 1479.154 452.004, 1479.892 451.981 C 1481.157 451.941, 1494.915 425.250, 1496.476 419.808 C 1497.761 415.326, 1497.883 413.279, 1497.048 410.180 C 1494.241 399.755, 1470.949 387.807, 1461.432 391.909 M 784.500 394.929 C 775.822 397.079, 767.342 404.446, 762.464 414.071 C 759.440 420.039, 755 436.509, 755 441.760 C 755 444.139, 756.629 448.109, 760.075 454.131 C 762.866 459.009, 765.295 463, 765.471 463 C 766.194 463, 818.600 432.664, 819.781 431.562 C 820.809 430.603, 819.693 428.006, 814.141 418.433 C 810.334 411.870, 805.618 404.649, 803.660 402.388 C 798.359 396.265, 790.872 393.350, 784.500 394.929 M 672.267 418.169 L 667.035 422.221 670.052 426.361 C 676.521 435.234, 675.235 434.818, 681.526 430.068 L 687.119 425.845 684.747 422.673 C 683.443 420.928, 681.503 418.277, 680.438 416.781 C 679.372 415.286, 678.275 414.075, 678 414.089 C 677.725 414.104, 675.145 415.940, 672.267 418.169 M 1568.967 459.633 C 1551.660 481.878, 1536.698 501.154, 1535.718 502.469 C 1533.937 504.858, 1533.939 504.862, 1539.179 508.858 C 1542.063 511.057, 1544.750 512.655, 1545.150 512.407 C 1545.550 512.160, 1560.574 493.055, 1578.538 469.951 C 1603.077 438.390, 1610.937 427.629, 1610.145 426.674 C 1609.565 425.976, 1607.143 424.005, 1604.762 422.296 L 1600.435 419.188 1568.967 459.633 M 1522.912 454.172 C 1497.196 491.769, 1495.180 494, 1486.927 494 C 1483.024 494, 1481.328 493.370, 1477.630 490.547 L 1473.107 487.095 1469.040 491.953 L 1464.973 496.810 1468.884 499.908 C 1481.641 510.012, 1497.748 509.353, 1508.664 498.281 C 1512.554 494.336, 1557 429.883, 1557 428.188 C 1557 427.423, 1553.095 424.408, 1547.397 420.772 C 1546.662 420.303, 1537.935 432.207, 1522.912 454.172 M 1631.750 460.535 C 1629.138 463.428, 1627 465.996, 1627 466.241 C 1627 466.486, 1629.324 468.647, 1632.165 471.042 L 1637.331 475.398 1642.124 469.961 L 1646.918 464.524 1644.209 461.670 C 1642.719 460.101, 1640.375 458.020, 1639 457.046 L 1636.500 455.275 1631.750 460.535 M 1114 471.636 C 1097.696 472.579, 1072.270 475.326, 1059.427 477.533 C 971.692 492.609, 885.205 531.572, 813.727 588.224 C 719.751 662.707, 651.081 766.069, 618.143 882.618 C 607.193 921.362, 603.105 952.558, 600.937 1013.913 C 599.289 1060.572, 601.490 1103.880, 607.090 1135 C 632.154 1274.264, 712.710 1404.256, 826.500 1489.059 C 853.946 1509.513, 880.964 1526.104, 911.978 1541.547 C 987.357 1579.082, 1043.863 1592.338, 1139.337 1594.883 C 1223.640 1597.130, 1273.004 1590.175, 1338.226 1566.864 C 1400.812 1544.496, 1455.258 1513.593, 1508.196 1470.393 C 1524.654 1456.962, 1564.082 1417.776, 1577.992 1401.025 C 1634.819 1332.589, 1673.939 1255.101, 1695.888 1167.500 C 1705.237 1130.185, 1708.898 1099.345, 1710.546 1044 C 1711.245 1020.552, 1709.787 981.212, 1707.492 961.599 C 1704.481 935.853, 1696.035 899.480, 1685.980 868.945 C 1637.422 721.495, 1527.740 594.416, 1389.195 525.087 C 1336.232 498.584, 1270.326 478.939, 1216 473.462 C 1200.249 471.874, 1131.242 470.638, 1114 471.636 M 1590.989 506.866 C 1573.402 526.847, 1562.407 538.527, 1559.814 539.984 C 1553.790 543.370, 1547.103 542.483, 1542.144 537.641 C 1540.093 535.638, 1537.963 534, 1537.411 534 C 1536.858 534, 1534.648 535.800, 1532.500 538 L 1528.594 542 1532.547 546.049 C 1544.089 557.870, 1560.774 558.412, 1573.029 547.363 C 1575.385 545.238, 1588.923 530.337, 1603.113 514.249 L 1628.913 484.999 1624.103 480.499 C 1621.457 478.025, 1619.037 476, 1618.725 476 C 1618.413 476, 1605.932 489.890, 1590.989 506.866 M 1102 484.986 C 1084.031 485.950, 1072.547 487.677, 1051 492.654 C 1030.827 497.313, 988.472 509.463, 969.701 515.975 C 924.856 531.534, 869.082 562.160, 827 594.334 C 788.677 623.633, 751.215 661.336, 722.503 699.500 C 667.269 772.920, 630.839 862.031, 616.619 958.500 C 611.759 991.467, 610.525 1007.655, 610.556 1038 C 610.587 1067.759, 612.265 1086.147, 618.085 1120.500 C 645.174 1280.383, 729.542 1410.617, 863 1498.561 C 903.854 1525.482, 944.237 1544.479, 992.327 1559.399 C 1057.599 1579.650, 1094.027 1584.790, 1164.500 1583.693 C 1203.529 1583.085, 1219.457 1581.812, 1248.659 1576.967 C 1326.409 1564.067, 1411.201 1526.992, 1478.608 1476.423 C 1516.041 1448.340, 1552.168 1412.867, 1580.397 1376.477 C 1610.812 1337.269, 1637.505 1291.359, 1656.551 1245.500 C 1670.119 1212.831, 1686.712 1157.820, 1691.389 1130 C 1696.677 1098.548, 1698.980 1049.940, 1697.207 1007.250 C 1695.380 963.294, 1693.156 946.407, 1684.885 913.723 C 1640.927 739.998, 1519.546 595.432, 1359.500 526.184 C 1316.858 507.734, 1265.584 493.085, 1227.818 488.563 C 1199.726 485.200, 1133.248 483.310, 1102 484.986 M 583.222 496.852 L 579.131 501.704 583.850 506.352 C 586.445 508.908, 589.022 511, 589.576 511 C 590.130 511, 592.572 508.974, 595.002 506.498 L 599.421 501.996 594.498 496.998 C 591.790 494.249, 589.066 492, 588.444 492 C 587.822 492, 585.472 494.183, 583.222 496.852 M 569.490 511.010 L 564.550 516.026 569.775 521.251 L 575 526.476 580.011 521.465 L 585.022 516.454 579.727 511.224 L 574.431 505.994 569.490 511.010 M 1640.440 511.900 C 1628.813 514.825, 1610.940 530.397, 1604.747 543 C 1601.579 549.447, 1601.760 557.890, 1605.209 564.542 C 1606.646 567.315, 1612.005 574.232, 1617.117 579.914 L 1626.411 590.243 1623.250 593.068 C 1614.939 600.494, 1606.660 598.958, 1595.986 588.012 C 1592.403 584.337, 1587.720 578.788, 1585.580 575.680 L 1581.688 570.030 1578.094 572.169 C 1571.240 576.249, 1571.262 575.992, 1577.068 584.640 C 1583.978 594.934, 1593.283 604.010, 1600.617 607.612 C 1605.515 610.016, 1607.755 610.500, 1614 610.500 C 1620.523 610.500, 1622.171 610.109, 1626.648 607.500 C 1631.292 604.793, 1691 549.537, 1691 547.945 C 1691 547.579, 1684.531 540.569, 1676.624 532.367 C 1667.605 523.010, 1660.432 516.470, 1657.374 514.814 C 1651.987 511.898, 1645.136 510.719, 1640.440 511.900 M 607.750 528.271 C 595.032 542.148, 593.699 546.003, 598.837 554.054 C 602.440 559.701, 614.767 571.330, 619.954 573.977 C 628.392 578.281, 632.872 576.066, 647.343 560.431 L 652.960 554.361 634.584 536.702 L 616.208 519.042 607.750 528.271 M 1637.473 528.119 C 1631.331 532.014, 1619.882 543.379, 1617.552 547.894 C 1613.648 555.457, 1615.436 559.727, 1628.272 573.500 L 1635.728 581.500 1650.439 567.500 C 1658.531 559.800, 1666.923 551.995, 1669.090 550.155 L 1673.029 546.810 1665.395 538.655 C 1651.830 524.165, 1646.738 522.244, 1637.473 528.119 M 716.419 531.046 C 713.713 533.374, 711.403 535.554, 711.284 535.889 C 711.165 536.225, 713.236 538.945, 715.887 541.932 L 720.705 547.365 725.852 542.932 C 728.683 540.495, 730.980 538.275, 730.956 538 C 730.933 537.725, 728.759 535.095, 726.125 532.157 L 721.337 526.813 716.419 531.046 M 700.750 544.374 C 698.138 546.703, 696.009 549.034, 696.021 549.554 C 696.032 550.074, 697.980 552.717, 700.350 555.426 C 704.336 559.981, 704.810 560.245, 706.664 558.926 C 710.698 556.055, 714.999 552.108, 714.957 551.315 C 714.933 550.867, 712.795 548.169, 710.207 545.319 L 705.500 540.139 700.750 544.374 M 1117.500 593.884 C 1110.092 597.636, 1092.919 613.020, 1075.669 631.359 C 1068.612 638.862, 1062.479 645, 1062.040 645 C 1061.601 645, 1059.743 641.371, 1057.912 636.937 C 1054.095 627.690, 1048.933 621, 1045.618 621 C 1039.452 621, 1024.261 635.425, 1022.028 643.401 C 1020.922 647.349, 1020.982 649.691, 1022.430 659.121 C 1023.366 665.216, 1023.989 670.339, 1023.816 670.507 C 1023.642 670.674, 1013.375 675.634, 1001 681.529 C 960.791 700.683, 943.153 707.632, 918.807 713.908 C 889.544 721.451, 888.202 722.813, 884.540 748.652 C 882.063 766.128, 879.673 771.789, 870.306 782.358 C 862.418 791.258, 866.025 795.086, 876.801 789.250 C 889.438 782.406, 891.947 777.566, 891.978 759.974 L 892 747.448 906.750 742.615 C 963.597 723.987, 1003.255 702.801, 1050.675 665.728 C 1060.121 658.343, 1071.025 649.947, 1074.906 647.070 L 1081.962 641.839 1089.354 645.919 C 1093.420 648.164, 1097.913 650, 1099.338 650 C 1102.075 650, 1108.273 645.226, 1110.192 641.641 C 1111.859 638.527, 1111.361 634.211, 1108.536 627.270 C 1103.349 614.528, 1106.545 609.027, 1120.012 607.516 C 1130.361 606.355, 1131.947 605.916, 1134.971 603.371 C 1141.191 598.137, 1137.834 592.144, 1128.193 591.270 C 1124.412 590.928, 1122.334 591.436, 1117.500 593.884 M 1235.092 608.548 C 1231.076 613.122, 1226.249 622.819, 1221.444 635.967 C 1215.530 652.147, 1207.852 658.472, 1198.742 654.666 C 1192.030 651.861, 1191.830 649.114, 1197.218 633.728 C 1198.907 628.903, 1200.108 624.774, 1199.886 624.552 C 1199.663 624.330, 1194.862 627.913, 1189.216 632.515 C 1183.569 637.117, 1176.574 642.241, 1173.670 643.903 C 1167.405 647.487, 1158.412 650, 1151.849 650 C 1149.247 650, 1146.862 650.414, 1146.550 650.919 C 1145.195 653.111, 1156.822 661, 1161.406 661 C 1163.064 661, 1167.874 659.777, 1172.095 658.282 C 1181.052 655.109, 1182.428 655.593, 1183.535 662.308 C 1186.103 677.880, 1201.650 678.917, 1214.918 664.400 C 1223.677 654.816, 1241 617.520, 1241 608.247 C 1241 603.947, 1239.044 604.047, 1235.092 608.548 M 1269.228 615.257 C 1264.752 620.022, 1254.776 645.672, 1253.418 655.907 C 1252.846 660.216, 1253.012 661.067, 1254.533 661.651 C 1255.802 662.138, 1257.008 661.491, 1258.696 659.418 C 1264.724 652.016, 1274 626.903, 1274 617.988 C 1274 612.352, 1272.672 611.592, 1269.228 615.257 M 1328.011 626.728 C 1326.086 627.706, 1324.118 629.665, 1323.621 631.098 C 1322.396 634.634, 1323.668 640.668, 1326.166 643.166 C 1327.897 644.897, 1328.871 645.096, 1332.360 644.428 C 1339.538 643.053, 1342.590 643.478, 1345.969 646.321 C 1354.327 653.353, 1366.161 644.070, 1358.545 636.455 C 1356.408 634.317, 1355.188 634, 1349.112 634 L 1342.132 634 1339.285 629.750 C 1335.986 624.824, 1333.221 624.083, 1328.011 626.728 M 970.073 629.635 C 967.565 632.823, 967.300 639.556, 969.557 642.777 C 971.451 645.482, 976.114 645.743, 978.575 643.282 C 981.114 640.743, 983.838 634.098, 983.255 631.866 C 982.652 629.560, 978.110 627, 974.622 627 C 973.137 627, 971.315 628.055, 970.073 629.635 M 954.306 641.413 C 948.730 646.209, 951.891 658, 958.751 658 C 962.538 658, 967 652.861, 967 648.500 C 967 645.795, 966.241 644.087, 964.077 641.923 C 960.522 638.368, 957.999 638.237, 954.306 641.413 M 1035.011 647.487 C 1032.467 650.553, 1037.184 654.549, 1041.893 653.318 C 1044.745 652.572, 1044.544 650.573, 1041.365 648.073 C 1038.242 645.616, 1036.683 645.472, 1035.011 647.487 M 1108.899 674.304 C 1107.804 675.512, 1106.207 677.257, 1105.351 678.182 C 1104.494 679.107, 1101.478 680.963, 1098.647 682.307 C 1089.254 686.767, 1085.261 692.697, 1088.413 697.507 C 1089.614 699.341, 1090.929 700, 1093.388 700 C 1096.887 700, 1102 696.783, 1102 694.582 C 1102 691.875, 1105.652 689.844, 1109.294 690.527 C 1111.293 690.902, 1113.690 690.701, 1114.891 690.058 C 1117.234 688.804, 1121 682.108, 1121 679.195 C 1121 676.757, 1118.111 674.179, 1114.084 673.024 C 1111.385 672.250, 1110.584 672.448, 1108.899 674.304 M 1332.421 676.857 C 1325.895 679.884, 1312.305 687.928, 1310.943 689.569 C 1309.843 690.894, 1310.651 690.992, 1317.775 690.398 C 1325.276 689.773, 1326.164 689.907, 1330.177 692.273 C 1332.555 693.675, 1335.810 696.200, 1337.411 697.884 C 1341.644 702.336, 1348.613 704.352, 1357.747 703.766 C 1364.307 703.345, 1366.531 702.630, 1375.691 697.997 C 1387.499 692.026, 1387.583 691.039, 1376.288 691.015 C 1365.889 690.993, 1360.701 688.872, 1346.345 678.772 C 1341.069 675.059, 1337.387 674.553, 1332.421 676.857 M 1155.030 689.327 C 1155.014 689.782, 1154.080 696.307, 1152.955 703.827 C 1150.577 719.725, 1148.446 727.994, 1146.722 728.014 C 1146.050 728.021, 1143.181 725.434, 1140.347 722.264 C 1137.512 719.094, 1134.838 716.849, 1134.404 717.276 C 1133.970 717.703, 1133.364 721.828, 1133.057 726.443 C 1132.751 731.058, 1132.137 735.196, 1131.693 735.640 C 1129.769 737.565, 1124.879 732.986, 1108.188 713.630 C 1106.367 711.518, 1104.714 709.953, 1104.515 710.152 C 1104.316 710.350, 1105.397 715.910, 1106.916 722.507 C 1110.209 736.802, 1111.275 744, 1110.102 744 C 1109.628 744, 1104.826 740.850, 1099.429 737 C 1094.033 733.150, 1089.280 730, 1088.868 730 C 1086.979 730, 1087.179 732.376, 1089.641 739.168 C 1093.415 749.578, 1094.107 753, 1092.438 753 C 1090.741 753, 1077.814 746.206, 1058.891 735.367 C 1050.857 730.765, 1043.953 727, 1043.550 727 C 1043.147 727, 1045.217 730.038, 1048.149 733.750 C 1059.973 748.718, 1071.836 764.908, 1072.490 766.967 C 1072.871 768.168, 1072.918 769.416, 1072.594 769.740 C 1072.270 770.063, 1068.403 769.506, 1064 768.500 C 1059.597 767.494, 1055.659 767.009, 1055.247 767.421 C 1054.502 768.168, 1056.953 770.621, 1062.420 774.599 C 1067.729 778.461, 1065.380 779, 1043.241 779 C 1030.624 779, 1022.969 779.358, 1023.550 779.922 C 1024.072 780.429, 1030.263 783.350, 1037.306 786.412 C 1055.668 794.397, 1063.223 799.212, 1061.575 801.879 C 1061.233 802.432, 1058.826 803.160, 1056.227 803.497 C 1048.348 804.518, 1047.100 804.944, 1046.006 806.989 C 1044.535 809.737, 1047.911 812.995, 1052.250 813.015 C 1062.034 813.061, 1058.752 817.920, 1043.800 825.525 C 1037.585 828.686, 1032.313 831.436, 1032.083 831.636 C 1030.504 833.016, 1034.410 832.675, 1046.089 830.412 C 1053.479 828.979, 1064.988 827.570, 1071.723 827.272 C 1082.598 826.792, 1084.726 826.983, 1091.011 829.003 C 1094.955 830.272, 1097.916 831.766, 1097.715 832.387 C 1097.269 833.765, 1092.863 835.991, 1082.541 840.053 C 1071.768 844.293, 1063.743 844.797, 1049 842.158 C 1030.884 838.914, 1016.004 837.804, 995.500 838.165 C 977.143 838.489, 976.311 838.593, 970.918 841.241 C 967.848 842.749, 959.642 848.708, 952.684 854.484 C 936.823 867.648, 924.443 876.883, 920.323 878.624 C 916.670 880.167, 915.396 883.003, 917.006 886.010 C 919.295 890.289, 926.384 886.166, 951.597 865.894 C 972.327 849.226, 984.397 842, 991.511 842 C 992.880 842, 994.908 842.908, 996.017 844.017 C 997.874 845.874, 997.917 846.260, 996.555 848.893 C 992.245 857.228, 970.102 873.237, 945.344 885.919 C 927.554 895.031, 924.349 897.138, 925.484 898.975 C 926.481 900.588, 933.068 899.788, 947 896.362 C 966.784 891.497, 974.572 886.462, 1001.500 861.121 C 1014.038 849.322, 1017.002 847.005, 1019.558 847.003 C 1021.240 847.001, 1032.715 847.716, 1045.058 848.591 C 1057.401 849.466, 1071.356 850.006, 1076.070 849.791 C 1086.946 849.296, 1090.217 847.456, 1102.802 834.750 L 1112.104 825.358 1098.982 821.533 C 1091.764 819.428, 1084.892 816.923, 1083.709 815.966 C 1081.564 814.228, 1081.563 814.211, 1083.315 806.862 C 1084.281 802.813, 1087.137 795.225, 1089.662 790 C 1093.686 781.674, 1095.504 779.257, 1104.377 770.444 C 1115.890 759.008, 1123.597 753.579, 1132.396 750.707 C 1137.666 748.987, 1141.234 748.714, 1158.500 748.714 C 1181.226 748.714, 1186.236 749.731, 1196.241 756.372 C 1211.145 766.265, 1228.097 789.328, 1232.209 805.308 C 1234.187 812.998, 1233.432 813.843, 1213.277 826.500 C 1209.648 828.779, 1208.500 830.101, 1208.500 832 C 1208.500 835.888, 1214.842 835.931, 1224.388 832.108 C 1236.970 827.070, 1244.489 825.902, 1268.250 825.295 C 1280.213 824.989, 1290 824.460, 1290 824.119 C 1290 823.779, 1280.550 821.485, 1269 819.023 C 1257.450 816.561, 1248.017 814.311, 1248.037 814.023 C 1248.058 813.735, 1252.176 811.025, 1257.190 807.999 C 1262.203 804.974, 1266.349 802.049, 1266.403 801.499 C 1266.456 800.950, 1263.404 800.194, 1259.620 799.820 C 1255.836 799.446, 1252.260 798.660, 1251.673 798.073 C 1249.974 796.374, 1258.400 789.322, 1270.878 782 C 1276.971 778.425, 1281.966 775.241, 1281.978 774.924 C 1281.990 774.608, 1272.801 775.538, 1261.559 776.992 L 1241.118 779.636 1246.309 773.692 C 1258.959 759.207, 1258.929 760.153, 1246.662 762.500 C 1236.960 764.357, 1235 764.375, 1235 762.611 C 1235 761.847, 1238.738 755.884, 1243.306 749.361 C 1254.131 733.904, 1253.787 734.509, 1250.871 736.067 C 1249.567 736.764, 1242.810 740.859, 1235.855 745.167 C 1228.901 749.475, 1222.997 753, 1222.735 753 C 1222.473 753, 1221.948 749.850, 1221.569 746 C 1220.920 739.419, 1220.732 739, 1218.421 739 C 1217.069 739, 1213.703 740.182, 1210.941 741.626 C 1208.179 743.070, 1205.623 743.956, 1205.261 743.594 C 1204.899 743.233, 1205.187 738.563, 1205.900 733.218 C 1206.613 727.873, 1207.436 720.237, 1207.730 716.250 C 1208.183 710.083, 1208.027 709, 1206.682 709 C 1204.875 709, 1201.181 713.602, 1198.162 719.616 C 1193.061 729.777, 1187.242 733, 1185.098 726.851 C 1184.494 725.119, 1184 721.320, 1184 718.410 C 1184 715.499, 1183.599 712.870, 1183.109 712.567 C 1182.096 711.941, 1177.100 717.228, 1172.053 724.268 C 1170.174 726.890, 1168.318 728.690, 1167.931 728.268 C 1167.544 727.845, 1164.871 719.400, 1161.992 709.500 C 1157.257 693.221, 1155.115 687.014, 1155.030 689.327 M 1298 714 C 1296.550 715.450, 1296 717.333, 1296 720.845 C 1296 726.761, 1298.002 728.935, 1304.172 729.721 C 1309.482 730.397, 1312 731.615, 1312 733.510 C 1312 737.249, 1322.617 739.357, 1326.777 736.443 C 1329.549 734.502, 1329.769 729.171, 1327.209 726.010 C 1325.689 724.133, 1324.316 723.770, 1318.151 723.615 C 1310.457 723.421, 1309.045 722.592, 1309.015 718.250 C 1308.995 715.254, 1305.603 712, 1302.500 712 C 1301.125 712, 1299.100 712.900, 1298 714 M 1474.915 719.250 C 1473.303 721.038, 1471.076 723.539, 1469.967 724.810 C 1468.588 726.389, 1467.327 726.921, 1465.975 726.492 C 1462.512 725.393, 1463.835 727.823, 1468.866 731.800 C 1474.584 736.320, 1479.316 738.476, 1481.596 737.602 C 1482.944 737.084, 1483.112 736.054, 1482.565 731.671 C 1481.939 726.664, 1482.045 726.300, 1484.451 725.204 C 1487.822 723.669, 1487.668 721.740, 1483.923 718.589 C 1479.915 715.216, 1478.457 715.323, 1474.915 719.250 M 816.509 721.986 C 813.896 726.214, 834.836 754.085, 845.946 761.166 C 850.596 764.130, 855 764.894, 855 762.737 C 855 758.024, 826.816 726.183, 818.890 721.941 C 817.758 721.335, 816.901 721.351, 816.509 721.986 M 1371.667 729.667 C 1368.720 732.613, 1375.447 742.803, 1384.339 748.862 C 1390.117 752.799, 1393.010 753.273, 1400.568 751.521 C 1409.732 749.395, 1418.082 749.620, 1426.936 752.229 C 1432.962 754.004, 1437.042 754.462, 1447 754.477 C 1460.656 754.498, 1465.298 753.441, 1469.040 749.458 C 1472.359 745.925, 1470.671 744.617, 1464.560 745.987 C 1459.153 747.198, 1454.703 746.608, 1447.500 743.725 C 1443.300 742.043, 1438.979 741.601, 1420.500 740.960 C 1395.715 740.101, 1392.340 739.396, 1382.927 733.110 C 1377.195 729.282, 1373.256 728.078, 1371.667 729.667 M 1504 763.559 C 1496.275 765.563, 1475.072 776.236, 1471.620 779.859 C 1467.443 784.242, 1468.587 786.465, 1474.597 785.642 C 1484.392 784.299, 1509.994 773.984, 1515.250 769.262 C 1517.558 767.189, 1517.473 764.324, 1515.066 763.035 C 1512.598 761.715, 1510.775 761.801, 1504 763.559 M 797.978 786.786 C 793.032 791.733, 791.616 797.019, 792.516 807.183 C 793.119 813.989, 793 815, 791.598 815 C 790.712 815, 784.818 810.050, 778.500 804 C 766.880 792.873, 763 790.687, 763 795.268 C 763 800.281, 775.097 814.156, 787.617 823.504 C 801.423 833.812, 802.642 839.852, 791.816 844.322 C 785.686 846.853, 784.186 851.300, 781.491 874.937 C 777.679 908.379, 766.700 937.614, 748.095 963.865 C 743.795 969.934, 739.484 976.568, 738.516 978.608 C 736.813 982.196, 736.821 982.451, 738.770 986.409 C 742.715 994.420, 759.463 1015, 762.037 1015 C 763.674 1015, 763.134 1013.155, 759.365 1005.872 C 755.915 999.207, 755.791 998.633, 756.933 994.673 C 757.595 992.378, 762.389 983.459, 767.586 974.853 C 785.948 944.446, 787.809 938.205, 791.985 893 C 793.914 872.133, 795.158 864.790, 797.188 862.297 C 797.727 861.635, 800.575 860.393, 803.517 859.538 C 815.168 856.151, 821.770 846.087, 824.029 828.274 C 825.299 818.255, 823.750 807.225, 819.974 799.411 C 816.624 792.474, 807.368 783, 803.942 783 C 802.745 783, 800.061 784.704, 797.978 786.786 M 1441.009 787.261 C 1441.004 788.229, 1441.914 793.179, 1443.031 798.261 C 1447.175 817.116, 1450.567 824.173, 1457.113 827.558 C 1458.694 828.376, 1464.714 829.414, 1470.490 829.864 C 1482.329 830.788, 1484.050 831.700, 1487.044 838.634 C 1488.026 840.908, 1490.503 850.133, 1492.549 859.134 C 1497.145 879.359, 1501.387 891.876, 1509.070 907.880 C 1525.847 942.832, 1548.108 971.085, 1573.296 989.394 C 1579.233 993.711, 1584.360 996.974, 1584.687 996.646 C 1585.015 996.318, 1584.513 992.170, 1583.571 987.429 C 1582.630 982.687, 1582.048 978.619, 1582.278 978.389 C 1582.509 978.158, 1584.298 980.564, 1586.256 983.735 C 1595.552 998.795, 1616.438 1024, 1619.621 1024 C 1622.466 1024, 1620.778 1018.748, 1612.662 1002.349 C 1604.488 985.833, 1602.293 980.598, 1600.116 972.438 C 1598.715 967.186, 1589.852 957.353, 1580.771 950.975 C 1573.102 945.589, 1569.194 944.291, 1565.924 946.041 C 1563.910 947.119, 1563.784 947.716, 1564.379 953.357 C 1564.736 956.736, 1565.273 960.850, 1565.572 962.500 C 1566.100 965.413, 1565.981 965.355, 1561.464 960.500 C 1532.635 929.513, 1518.120 896.677, 1511.513 847.500 C 1508.736 826.826, 1508.025 825.863, 1493.392 822.947 C 1475.533 819.388, 1471.602 816.974, 1453.759 798.612 C 1445.851 790.474, 1441.014 786.168, 1441.009 787.261 M 802.872 799.654 C 798.940 804.393, 804.460 830, 809.414 830 C 813.022 830, 816.472 811.969, 814.005 806.011 C 812.641 802.718, 807.659 798, 805.546 798 C 804.830 798, 803.627 798.744, 802.872 799.654 M 1524.428 800.080 C 1519.717 805.285, 1523.784 815, 1530.674 815 C 1537.056 815, 1539.937 808.647, 1536.537 802.072 C 1534.157 797.469, 1527.745 796.414, 1524.428 800.080 M 1149 799.650 C 1146.564 800.623, 1141.937 805.278, 1140.313 808.389 C 1139.484 809.977, 1137.940 815.577, 1136.883 820.831 C 1134.980 830.295, 1132.813 834.526, 1130.352 833.582 C 1128.040 832.694, 1119.310 835.593, 1113.968 839.021 C 1110.146 841.473, 1108.140 843.633, 1106.607 846.946 C 1104.576 851.336, 1104.489 853.174, 1104.180 898.116 L 1103.861 944.731 1092.180 945.276 C 1085.751 945.576, 1078.113 946.561, 1075.190 947.467 C 1069.678 949.176, 1062.545 954.706, 1061.466 958.108 C 1060.619 960.777, 1064.239 966.596, 1073.532 977.500 C 1081.089 986.369, 1084.930 992.403, 1083.762 993.572 C 1083.434 993.900, 1081.393 994.406, 1079.227 994.696 C 1074.682 995.306, 1074.905 995.504, 1068.051 984.813 C 1062.369 975.951, 1058.875 973.029, 1056.409 975.076 C 1054.307 976.820, 1055.173 980.935, 1058.927 987.036 C 1063.211 993.999, 1065.060 1000.282, 1066.123 1011.500 C 1067.259 1023.486, 1068.403 1028.185, 1071.478 1033.501 C 1074.120 1038.068, 1077.700 1041.634, 1078.669 1040.664 C 1079.031 1040.303, 1078.560 1035.717, 1077.623 1030.473 C 1075.836 1020.468, 1075.998 1019, 1078.885 1019 C 1082.539 1019, 1087 1025.876, 1087 1031.508 C 1087 1036.144, 1091.295 1049.011, 1095.008 1055.500 C 1098.660 1061.882, 1103.667 1067, 1106.258 1067 C 1108.112 1067, 1108.234 1066.529, 1107.743 1061.250 C 1107.449 1058.088, 1105.812 1052.001, 1104.104 1047.724 C 1102.397 1043.447, 1101 1039.723, 1101 1039.448 C 1101 1039.173, 1102.421 1039.683, 1104.157 1040.581 C 1109.193 1043.185, 1116.155 1050.262, 1122.485 1059.209 C 1130.845 1071.026, 1134.808 1075, 1138.234 1075 C 1143.910 1075, 1142.672 1069.379, 1135.119 1060.847 C 1132.854 1058.287, 1131 1055.962, 1131 1055.679 C 1131 1055.396, 1134.938 1056.520, 1139.750 1058.177 C 1150.340 1061.822, 1163.798 1063.153, 1165.790 1060.754 C 1169.407 1056.395, 1161.931 1052.079, 1147.191 1050.014 C 1139.878 1048.990, 1134 1046.765, 1134 1045.021 C 1134 1043.623, 1140.827 1042.012, 1146.782 1042.006 C 1152.327 1042, 1159 1039.840, 1159 1038.051 C 1159 1034.015, 1146.942 1029.373, 1138.927 1030.322 C 1136.320 1030.631, 1130.555 1032.710, 1126.116 1034.942 C 1121.677 1037.174, 1116.754 1039, 1115.177 1039 C 1112.410 1039, 1109 1036.420, 1109 1034.326 C 1109 1032.398, 1112.519 1030.228, 1118.353 1028.559 C 1124.993 1026.659, 1129 1023.274, 1129 1019.565 C 1129 1015.987, 1126.207 1015.566, 1111.976 1017.002 C 1099.949 1018.216, 1091.600 1017.780, 1090.423 1015.876 C 1089.405 1014.229, 1090.488 1013.837, 1098.559 1012.932 C 1106.392 1012.053, 1111 1010.063, 1111 1007.559 C 1111 1004.381, 1109.437 1002.747, 1103.624 999.845 C 1096.988 996.533, 1092 992.426, 1092 990.273 C 1092 988.064, 1088.102 981.013, 1082.346 972.812 C 1079.378 968.584, 1076.244 963.434, 1075.380 961.368 C 1073.918 957.869, 1073.933 957.522, 1075.597 956.306 C 1078.476 954.200, 1092.465 954.681, 1099 957.109 C 1102.025 958.233, 1105.697 959.389, 1107.161 959.677 C 1112.300 960.689, 1112.396 959.832, 1113.113 906.500 C 1113.894 848.452, 1114.465 844.100, 1121.475 842.760 C 1131.323 840.878, 1136.515 853.957, 1137.649 883.500 C 1138.292 900.227, 1139.362 905.851, 1140.402 897.960 C 1140.726 895.507, 1141.462 882.925, 1142.040 870 C 1144.321 818.945, 1145.991 811.698, 1155.988 809.503 C 1162.013 808.179, 1164.935 812.190, 1167.579 825.411 C 1168.489 829.962, 1169.347 845.208, 1169.975 868 C 1170.990 904.833, 1171.694 916, 1173 916 C 1174.535 916, 1175.011 911.083, 1175.566 889.500 C 1176.420 856.232, 1178.348 846.755, 1184.807 844.080 C 1189.545 842.117, 1194.762 844.187, 1196.687 848.793 C 1198.884 854.052, 1199.930 876.987, 1199.967 920.750 C 1199.985 941.788, 1200.282 959, 1200.627 959 C 1200.972 959, 1204.459 957.243, 1208.377 955.095 C 1222.762 947.208, 1245 943.184, 1245 948.467 C 1245 949.200, 1243.352 952.207, 1241.338 955.150 C 1232.422 968.177, 1231.165 970.368, 1230.056 974.802 C 1227.030 986.907, 1226.997 986.977, 1222.980 989.512 C 1217.230 993.143, 1215.447 996.250, 1216.984 999.962 C 1219.448 1005.909, 1230.080 1006.060, 1236.239 1000.237 C 1238.399 998.195, 1240.033 997.631, 1243.960 997.573 C 1251.184 997.467, 1253.138 999.744, 1253.927 1009.186 C 1254.609 1017.345, 1255.285 1019, 1257.938 1019 C 1261.302 1019, 1262.035 1014.452, 1261.761 995.296 C 1261.532 979.312, 1261.706 976.884, 1263.192 975.390 C 1264.783 973.789, 1264.973 973.890, 1266.396 977.094 C 1267.229 978.967, 1268.602 983.034, 1269.448 986.131 C 1273.238 1000.002, 1280.024 998.749, 1279.984 984.185 C 1279.964 976.659, 1277.709 967.383, 1275.109 964.126 C 1269.440 957.023, 1269.009 954.375, 1270.441 935.443 C 1271.299 924.104, 1270.549 920, 1267.620 920 C 1264.670 920, 1262.881 923.832, 1262.069 931.887 C 1261.620 936.344, 1260.690 940.668, 1260.004 941.495 C 1258.417 943.407, 1254.609 943.438, 1253.044 941.553 C 1252.383 940.757, 1249.740 939.294, 1247.171 938.303 C 1241.225 936.008, 1224.765 935.990, 1217.730 938.270 C 1213.035 939.792, 1212.052 939.593, 1209.866 936.679 C 1209.792 936.580, 1209.398 917.600, 1208.990 894.500 C 1208.522 868.015, 1207.828 851.160, 1207.111 848.873 C 1205.603 844.063, 1201.679 840.247, 1195.130 837.223 C 1190.706 835.180, 1188.743 834.836, 1183.977 835.268 C 1180.419 835.591, 1177.771 835.371, 1177.096 834.696 C 1176.493 834.093, 1176 831.462, 1176 828.849 C 1176 812.735, 1167.164 800.199, 1155.225 799.376 C 1152.626 799.197, 1149.825 799.320, 1149 799.650 M 1388 816.593 C 1388 818.116, 1394.082 827.728, 1396.456 829.959 C 1399.594 832.906, 1401.940 831.625, 1400.010 828.019 C 1397.483 823.297, 1388 814.275, 1388 816.593 M 1406.667 824.667 C 1405.526 825.807, 1405.937 844.767, 1407.161 847.453 C 1407.999 849.294, 1409.092 850, 1411.104 850 C 1418.453 850, 1419.035 838.163, 1412.197 827.750 C 1409.847 824.172, 1408.123 823.210, 1406.667 824.667 M 1376 825.540 C 1376 828.631, 1384.325 840, 1386.589 840 C 1389.431 840, 1387.874 836.023, 1382.900 830.581 C 1378.372 825.626, 1376 823.894, 1376 825.540 M 1319 840.040 C 1319 843.034, 1329.126 857.900, 1331.750 858.758 C 1334.052 859.511, 1333.041 855.450, 1329.430 849.441 C 1327.466 846.174, 1324.912 842.487, 1323.755 841.250 C 1321.560 838.902, 1319 838.251, 1319 840.040 M 1349.328 841.588 C 1348.206 844.511, 1349.755 862.392, 1351.508 866.750 C 1353.607 871.969, 1356.305 872.433, 1357.902 867.851 C 1360.313 860.936, 1358.430 847.853, 1354.322 842.971 C 1351.508 839.627, 1350.218 839.269, 1349.328 841.588 M 1373 844.304 C 1373 846.193, 1378.251 854.051, 1381.616 857.197 C 1384.958 860.322, 1390.855 863, 1394.395 863 C 1397.120 863, 1401 858.842, 1401 855.921 C 1401 852.001, 1396.845 849.099, 1389.637 847.986 C 1385.863 847.403, 1381.043 846.042, 1378.927 844.963 C 1374.426 842.667, 1373 842.508, 1373 844.304 M 1425.783 852.750 C 1422.844 856.120, 1421.714 859.447, 1421.714 864.735 C 1421.714 870.730, 1424.558 875, 1428.552 875 C 1432.241 875, 1433.458 872.388, 1433.389 864.615 C 1433.296 853.987, 1429.657 848.310, 1425.783 852.750 M 874.732 859.875 C 869.692 865.454, 866.535 871.364, 863.641 880.642 C 859.596 893.606, 857.667 909.411, 858.285 924.500 C 858.959 940.919, 861.572 954, 864.178 954 C 865.936 954, 869.153 944.867, 873.522 927.468 C 881.221 896.811, 884.637 870.436, 882.375 859.125 C 881.520 854.850, 879.053 855.092, 874.732 859.875 M 1315 857.356 C 1315 861.072, 1329.702 877.404, 1335.405 880.024 C 1341.219 882.695, 1343.957 881.172, 1343.985 875.250 C 1344.005 870.877, 1341.544 868.677, 1333.716 866.072 C 1330.126 864.877, 1324.651 862.122, 1321.550 859.950 C 1315.259 855.543, 1315 855.441, 1315 857.356 M 1408.333 867.575 C 1406.771 871.646, 1413.126 883, 1416.966 883 C 1421.986 883, 1422.259 873.967, 1417.393 868.888 C 1414.299 865.659, 1409.344 864.941, 1408.333 867.575 M 1363.053 871.750 C 1361.719 876.553, 1361.832 882.433, 1363.357 887.492 C 1365.852 895.772, 1371.363 891.286, 1371.267 881.055 C 1371.163 870.060, 1365.350 863.476, 1363.053 871.750 M 1298.418 870.403 C 1297.362 873.085, 1299.677 891.474, 1301.520 895.038 C 1302.362 896.667, 1303.738 898, 1304.577 898 C 1306.289 898, 1309 892.308, 1309 888.714 C 1309 884.025, 1305.957 876.284, 1302.601 872.436 C 1299.524 868.907, 1299.091 868.697, 1298.418 870.403 M 1437.636 875.640 C 1437.286 878.191, 1437 882.271, 1437 884.705 C 1437 892.115, 1435.886 893.200, 1429.072 892.429 C 1422.266 891.659, 1421.334 892.453, 1423.029 897.587 C 1423.672 899.538, 1423.932 901.401, 1423.606 901.728 C 1423.279 902.054, 1419.404 900.628, 1414.994 898.558 C 1410.584 896.489, 1406.306 895.052, 1405.488 895.366 C 1403.529 896.118, 1403.514 903.160, 1405.464 906.931 C 1406.269 908.488, 1408.390 910.992, 1410.176 912.495 C 1413.046 914.909, 1413.995 915.161, 1418.315 914.649 C 1424.815 913.879, 1430.954 910.154, 1439.846 901.582 C 1450.807 891.015, 1452.042 887.546, 1447.360 880.482 C 1444.369 875.969, 1439.961 871, 1438.949 871 C 1438.576 871, 1437.986 873.088, 1437.636 875.640 M 1394.836 875.134 C 1393.371 875.670, 1391.903 876.810, 1391.574 877.667 C 1390.204 881.239, 1399.743 891, 1404.604 891 C 1409.284 891, 1410.193 886.896, 1406.836 880.922 C 1405.110 877.852, 1399.627 873.676, 1397.849 874.079 C 1397.657 874.122, 1396.301 874.597, 1394.836 875.134 M 1272.004 877.250 C 1272.012 882.229, 1277.616 888.048, 1279.487 885.021 C 1280.549 883.302, 1275.030 875, 1272.826 875 C 1272.372 875, 1272.002 876.013, 1272.004 877.250 M 819.461 881.419 C 818.197 883.348, 817.883 885.683, 818.150 891.182 L 818.500 898.410 814.302 899.254 C 811.356 899.846, 809.906 900.722, 809.439 902.193 C 808.734 904.414, 811.788 914.986, 813.496 916.235 C 815.289 917.547, 822.702 917.064, 823.956 915.553 C 824.768 914.575, 824.937 912.346, 824.478 908.674 C 823.719 902.594, 824.634 900.089, 829.166 895.849 C 832.731 892.514, 832.936 887.690, 829.718 882.898 C 826.682 878.377, 821.906 877.688, 819.461 881.419 M 1338.200 888.200 C 1336.134 890.266, 1336.869 892.849, 1340.750 897.157 C 1349.089 906.415, 1359 906.774, 1359 897.818 C 1359 891.526, 1342.503 883.897, 1338.200 888.200 M 1264.032 890.585 C 1267.092 898.632, 1275.775 908.860, 1281.315 910.942 C 1287.278 913.183, 1295 910.878, 1295 906.857 C 1295 903.680, 1288.107 897.387, 1283.225 896.108 C 1280.901 895.498, 1277.220 894.538, 1275.045 893.973 C 1272.870 893.409, 1269.767 891.834, 1268.151 890.473 C 1264.249 887.190, 1262.757 887.231, 1264.032 890.585 M 1376.410 893.497 C 1374.238 896.812, 1374.777 909.205, 1377.198 911.626 C 1379.710 914.138, 1383.728 912.639, 1385.728 908.444 C 1387.174 905.411, 1387.229 904.306, 1386.137 900.220 C 1384.835 895.349, 1381.633 891, 1379.349 891 C 1378.632 891, 1377.310 892.124, 1376.410 893.497 M 1008.197 907.750 C 1008.565 918.923, 1009.047 922.390, 1010.769 926.250 C 1014.056 933.619, 1015.806 932.675, 1020.038 921.250 C 1022.751 913.928, 1025.344 918.874, 1029.565 939.424 C 1030.913 945.982, 1032.168 951.501, 1032.355 951.688 C 1032.541 951.875, 1032.979 947.383, 1033.326 941.705 C 1034.021 930.353, 1033.039 921.930, 1030.428 916.825 C 1028.606 913.265, 1010.255 894, 1008.685 894 C 1008.120 894, 1007.925 899.504, 1008.197 907.750 M 1321.607 898.582 C 1321.273 899.452, 1321 904.802, 1321 910.471 C 1321 918.932, 1321.325 921.179, 1322.812 923.016 C 1326.718 927.840, 1332.989 921.487, 1332.996 912.700 C 1333.001 907.040, 1331.237 903.219, 1326.959 899.619 C 1323.351 896.583, 1322.442 896.407, 1321.607 898.582 M 1452.105 898.374 C 1451.431 899.186, 1450.519 903.426, 1450.078 907.796 C 1449.638 912.166, 1448.944 916.282, 1448.536 916.942 C 1448.054 917.722, 1446.505 917.923, 1444.101 917.517 C 1439.063 916.666, 1436.474 919.372, 1437.323 924.601 C 1439.118 935.663, 1449.919 934.024, 1458.635 921.369 C 1461.663 916.972, 1462.447 914.844, 1462.743 910.218 C 1463.233 902.580, 1460.826 897.629, 1456.415 897.199 C 1454.593 897.021, 1452.828 897.502, 1452.105 898.374 M 891.113 902.788 C 890.551 903.839, 885.821 917.254, 880.601 932.599 C 871.084 960.578, 866.921 971.313, 865.165 972.398 C 864.647 972.718, 863.665 970.027, 862.984 966.417 C 861.618 959.177, 860.925 959.158, 859.002 966.305 C 858.245 969.119, 857.340 970.740, 856.818 970.218 C 856.327 969.727, 855.514 957.665, 855.009 943.413 C 853.856 910.833, 852.499 903, 848.007 903 C 845.571 903, 841.742 909.464, 839.453 917.439 C 836.716 926.973, 837.905 944.921, 842.381 961.678 C 844.318 968.925, 846.599 979.853, 847.451 985.962 C 849.126 997.971, 849.527 1023.619, 848.076 1025.911 C 846.794 1027.936, 845.186 1021.639, 844.012 1010 C 843.486 1004.775, 842.577 995.689, 841.994 989.809 C 841.410 983.928, 840.066 976.598, 839.007 973.520 C 837.053 967.840, 833.528 962, 832.055 962 C 830.751 962, 827.282 970.979, 825.949 977.809 C 823.336 991.190, 826.488 1005.110, 837.514 1028.880 C 845.912 1046.984, 849.021 1057.733, 848.932 1068.362 C 848.886 1073.878, 848.585 1075.856, 847.997 1074.500 C 847.520 1073.400, 844.584 1065.975, 841.472 1058 C 830.416 1029.666, 822.728 1018.803, 817.872 1024.654 C 815.823 1027.123, 816.151 1041.206, 818.415 1048 C 822.339 1059.773, 828.617 1070.202, 840.987 1085.500 C 846.634 1092.484, 855.019 1110.037, 860.334 1126 C 865.918 1142.774, 866.182 1144.403, 863.382 1144.802 C 860.293 1145.243, 855.597 1137.647, 841.865 1110 C 835.445 1097.075, 829.483 1085.600, 828.615 1084.500 C 825.741 1080.855, 824.869 1084.373, 825.272 1098 C 825.594 1108.924, 825.999 1111.383, 828.484 1117.500 C 834.916 1133.335, 846.601 1148.500, 856.810 1154.262 C 863.410 1157.987, 867.415 1161.876, 874.462 1171.405 C 886.920 1188.251, 897.516 1211, 892.904 1211 C 890.314 1211, 885.180 1205.863, 871.614 1189.699 C 856.135 1171.256, 839.493 1152.715, 837.922 1152.160 C 837.392 1151.972, 837.820 1153.997, 838.874 1156.660 C 839.929 1159.322, 843.361 1168.025, 846.503 1176 C 857.354 1203.545, 865.191 1215.543, 875.235 1219.986 C 877.584 1221.025, 883.554 1222.762, 888.503 1223.846 C 902.598 1226.933, 908.495 1229.636, 919.399 1238.007 C 923.922 1241.479, 927.580 1241.899, 928.484 1239.050 C 928.837 1237.939, 927.974 1234.276, 926.479 1230.539 C 922.220 1219.893, 921.919 1218.267, 921.007 1201 C 919.736 1176.940, 914.012 1149.804, 906.896 1134.110 C 902.138 1123.617, 901.493 1126.050, 901.542 1154.304 C 901.583 1178.754, 902.775 1192.322, 905.615 1200.686 C 906.444 1203.128, 906.947 1205.886, 906.732 1206.813 C 906.177 1209.212, 898.582 1201.073, 893.724 1192.873 C 882.625 1174.138, 881.963 1154.480, 891.554 1128.443 C 906.271 1088.487, 909.063 1076.858, 907.052 1063.896 C 905.805 1055.861, 903.293 1049, 901.598 1049 C 900.946 1049, 899.894 1051.476, 899.259 1054.501 C 898.624 1057.527, 896.228 1064.164, 893.935 1069.251 C 888.308 1081.728, 883.853 1095.530, 877.554 1120 L 872.277 1140.500 870.888 1134.500 C 870.125 1131.200, 869.518 1124, 869.539 1118.500 C 869.584 1106.837, 870.226 1104.717, 881.381 1079.336 C 891.864 1055.486, 896 1043.198, 896 1035.903 C 896 1028.578, 894.783 1028.315, 888.346 1034.249 C 876.724 1044.962, 867.519 1064.794, 865.487 1083.500 C 865.128 1086.800, 864.275 1090.850, 863.590 1092.500 L 862.345 1095.500 860.998 1093 C 859.137 1089.549, 858.530 1076.581, 859.917 1069.902 C 861.328 1063.103, 865.537 1054.045, 871.072 1045.894 C 882.074 1029.693, 896 990.110, 896 975.039 C 896 967.519, 894.356 966.756, 889.570 972.054 C 884.138 978.067, 875.852 996.342, 868.556 1018.404 C 862.329 1037.232, 858.943 1045, 856.964 1045 C 855.477 1045, 854.739 1038.284, 855.450 1031.232 C 857.183 1014.068, 861.933 1000.753, 873.592 980.379 C 886.960 957.020, 894.360 936.214, 895.566 918.599 C 896.433 905.934, 894.018 897.360, 891.113 902.788 M 952 908.686 C 942.760 909.157, 931.627 911.091, 929.189 912.649 C 927.690 913.607, 926.987 914.895, 927.189 916.312 C 927.719 920.039, 933.632 921.274, 948 920.657 C 960.304 920.128, 964.333 919.432, 972.750 916.377 C 977.568 914.628, 978.560 911.526, 974.750 910.121 C 971.981 909.099, 959.421 908.307, 952 908.686 M 1351.200 909.200 C 1347.429 912.971, 1353.274 919.861, 1362.524 922.550 C 1369.041 924.444, 1373.323 923.548, 1373.818 920.187 C 1374.700 914.196, 1355.521 904.879, 1351.200 909.200 M 1388.985 912.029 C 1386.095 917.428, 1387.033 930.123, 1390.537 933.031 C 1392.717 934.840, 1396.490 932.886, 1398.565 928.875 C 1401.783 922.651, 1397.687 910, 1392.454 910 C 1391.083 910, 1389.609 910.862, 1388.985 912.029 M 1305.571 917.571 C 1303.557 919.586, 1303.551 924.914, 1305.561 927.783 C 1308.830 932.450, 1319.289 935.015, 1320.645 931.482 C 1321.603 928.987, 1319.055 924.306, 1314.411 920.025 C 1309.654 915.640, 1307.970 915.173, 1305.571 917.571 M 1416.546 922.857 C 1415.544 926.011, 1418.618 931.472, 1424.243 936.528 C 1429.616 941.359, 1433.359 942.889, 1435.905 941.296 C 1438.276 939.812, 1438.371 934.028, 1436.085 930.329 C 1433.672 926.424, 1426.321 921.987, 1421.104 921.287 C 1417.784 920.842, 1417.111 921.074, 1416.546 922.857 M 1336.298 925.750 C 1335.862 927.813, 1335.504 932.726, 1335.503 936.669 C 1335.500 942.883, 1335.823 944.183, 1337.924 946.419 C 1344.578 953.502, 1352.912 944.816, 1349.965 933.870 C 1348.634 928.927, 1342.330 922, 1339.163 922 C 1337.576 922, 1336.905 922.878, 1336.298 925.750 M 1285.011 926.487 C 1283.032 928.871, 1284.644 932.517, 1289.611 936.888 C 1294.609 941.289, 1300.063 943.023, 1302.511 940.991 C 1304.462 939.372, 1304.420 933.045, 1302.439 930.217 C 1301.581 928.991, 1299.578 927.316, 1297.989 926.494 C 1294.218 924.544, 1286.627 924.540, 1285.011 926.487 M 982.145 931.750 C 980.352 936.240, 979.173 942.809, 977.970 955 C 976.597 968.928, 974.620 978.811, 972.040 984.642 C 968.854 991.845, 966.591 990.018, 964.968 978.931 C 962.388 961.316, 961.799 958.381, 960.415 956.250 C 956.796 950.677, 954.056 955.787, 953.900 968.399 C 953.761 979.696, 953.153 981.429, 949.190 981.815 C 944.148 982.306, 935.424 979.355, 933.069 976.361 C 930.454 973.036, 929.551 969.574, 927.095 953.458 C 926.003 946.284, 924.641 939.185, 924.069 937.682 C 923.064 935.038, 920.485 933.182, 919.368 934.299 C 917.910 935.756, 916.853 945.075, 916.011 963.873 C 915.005 986.344, 913.956 991.837, 909.032 1000.444 C 907.284 1003.500, 906.304 1006, 906.854 1006 C 907.404 1006, 912.928 1001.527, 919.130 996.061 C 925.331 990.594, 931.431 985.572, 932.685 984.901 C 935.703 983.286, 940.565 985.464, 951.990 993.548 C 956.691 996.874, 961.105 999.947, 961.799 1000.376 C 962.620 1000.883, 965.761 998.733, 970.781 994.227 C 982.634 983.586, 983.728 983.260, 990 988.500 C 997.819 995.033, 1000.048 992.049, 994.754 982.138 C 990.142 973.504, 988.991 967.794, 988.069 948.972 C 987.175 930.737, 985.034 924.513, 982.145 931.750 M 1367.003 935.503 C 1374.265 942.830, 1380.389 945.933, 1383.890 944.059 C 1385.249 943.331, 1386 941.954, 1386 940.187 C 1386 933.430, 1378.800 929, 1367.819 929 L 1360.558 929 1367.003 935.503 M 1461.500 931.796 C 1450.174 938.047, 1437 948.712, 1437 951.629 C 1437 953.501, 1439.203 953.801, 1442.592 952.391 C 1448.342 950, 1455.051 953.601, 1458.229 960.785 C 1459.848 964.444, 1460.085 966.454, 1459.540 971.877 C 1458.272 984.491, 1454.910 1002.581, 1450.492 1020.562 C 1446.084 1038.507, 1443.869 1045.345, 1442.114 1046.429 C 1440.634 1047.344, 1439.132 1038.676, 1437.588 1020.305 C 1436.538 1007.822, 1435.601 1001.885, 1434.165 998.641 C 1432.062 993.886, 1429.175 991.612, 1426.530 992.627 C 1422.307 994.247, 1418.233 1009.704, 1419.453 1019.472 C 1420.162 1025.146, 1421.694 1027.326, 1424.610 1026.811 C 1426.900 1026.406, 1428.489 1031.709, 1429.979 1044.729 C 1435.633 1094.146, 1452.984 1160.328, 1458.774 1154.562 C 1459.173 1154.165, 1459.789 1142.963, 1460.143 1129.670 C 1460.844 1103.334, 1461.535 1098.838, 1468.539 1075 C 1475.518 1051.253, 1477.084 1045.457, 1479.482 1034.500 C 1483.007 1018.397, 1484.213 1003.896, 1483.406 987.305 C 1483.022 979.414, 1482.553 973.114, 1482.362 973.304 C 1482.172 973.495, 1480.417 981.942, 1478.462 992.075 C 1471.820 1026.501, 1454.492 1087.040, 1451.763 1085.353 C 1449.223 1083.784, 1452.491 1054.384, 1458.526 1024.500 C 1464.897 992.954, 1465.336 989.153, 1465.450 964.500 C 1465.552 942.680, 1465.675 941.253, 1467.858 936.677 C 1470.175 931.818, 1470.147 928.985, 1467.781 929.018 C 1467.077 929.028, 1464.250 930.278, 1461.500 931.796 M 1403.313 930.786 C 1401.404 931.999, 1400 936.754, 1400 942 C 1400 944.678, 1399.538 948.084, 1398.974 949.567 C 1397.993 952.149, 1397.746 952.231, 1393.224 951.470 C 1390.626 951.033, 1386.475 950.636, 1384 950.588 C 1380.059 950.511, 1379.460 950.780, 1379.180 952.757 C 1378.972 954.220, 1379.911 956.065, 1381.853 958.007 C 1384.396 960.550, 1385.614 961, 1389.955 961 C 1396.370 961, 1400.616 959.244, 1406.042 954.347 C 1410.855 950.004, 1413 945.730, 1413 940.482 C 1413 933.111, 1407.816 927.922, 1403.313 930.786 M 706 939 C 704.900 940.100, 704 942.283, 704 943.851 C 704 947.656, 702.195 952.629, 699.242 956.955 C 692.852 966.318, 703.594 978.835, 710.289 969.827 C 712.051 967.457, 712.147 966.642, 711.142 962.649 C 709.751 957.126, 710.455 955, 713.673 955 C 717.643 955, 720.002 953.212, 719.985 950.215 C 719.967 946.732, 717.198 938.747, 715.673 937.777 C 713.370 936.312, 708.010 936.990, 706 939 M 1321.920 942.250 C 1321.875 942.388, 1321.313 944.525, 1320.670 947 C 1319.553 951.296, 1319.341 951.494, 1316 951.365 C 1314.075 951.291, 1309.974 950.897, 1306.887 950.490 C 1303.012 949.978, 1301.053 950.104, 1300.563 950.898 C 1299.725 952.253, 1303.797 965.166, 1305.398 966.235 C 1307.115 967.380, 1315.627 967.127, 1318.434 965.848 C 1319.824 965.215, 1321.256 963.752, 1321.616 962.598 C 1322.444 959.940, 1323.828 959.035, 1327.095 959.015 C 1332.397 958.984, 1334.591 952.977, 1331.490 946.980 C 1329.819 943.749, 1327.211 942, 1324.066 942 C 1322.930 942, 1321.964 942.112, 1321.920 942.250 M 1351.098 955.149 C 1350.494 956.881, 1349.994 959.694, 1349.986 961.399 C 1349.956 968.255, 1349.259 969.063, 1343.629 968.768 C 1338.636 968.507, 1338.491 968.577, 1338.168 971.408 C 1337.631 976.116, 1338.902 980.730, 1341.629 983.971 C 1345.935 989.089, 1351 987.315, 1351 980.688 C 1351 978.274, 1353.523 975.190, 1354.609 976.276 C 1355.949 977.616, 1361.411 974.415, 1364.086 970.722 C 1368.788 964.232, 1367.534 958.347, 1360.528 954.018 C 1355.583 950.961, 1352.426 951.340, 1351.098 955.149 M 1016.315 954.992 C 1013.574 956.115, 1012 958.990, 1012 962.875 C 1012 967.429, 1013.485 967.438, 1017.074 962.906 L 1020.324 958.803 1021.627 961.151 C 1025.822 968.716, 1019.666 982.616, 1013.050 980.516 C 1011.456 980.010, 1010.780 980.450, 1010.001 982.498 C 1008.670 985.998, 1008.669 1018, 1010 1018 C 1010.550 1018, 1011 1017.770, 1011 1017.489 C 1011 1016.218, 1014.138 997.312, 1014.608 995.750 C 1015.478 992.860, 1016.685 993.727, 1019.411 999.196 C 1022.301 1004.996, 1022.661 1010.401, 1020.551 1016.316 C 1018.783 1021.274, 1016.252 1024, 1013.416 1024 C 1010.633 1024, 1007.788 1026.663, 1008.214 1028.871 C 1008.816 1031.998, 1015.775 1033.232, 1035.750 1033.755 C 1046.338 1034.032, 1055 1033.911, 1055 1033.486 C 1055 1033.062, 1050.950 1027.321, 1046 1020.729 C 1040.289 1013.124, 1037 1007.834, 1037 1006.256 C 1037 1004.626, 1038.899 1001.717, 1042.500 997.827 C 1050.055 989.667, 1049.938 988.681, 1039.917 975.895 C 1031.375 964.995, 1028.421 960.237, 1029.524 959.157 C 1029.893 958.796, 1031.458 960.006, 1033.002 961.848 C 1036.298 965.779, 1038.472 965.558, 1041.884 960.943 C 1046.129 955.201, 1045.020 954.525, 1030.988 954.298 C 1024.119 954.188, 1017.517 954.500, 1016.315 954.992 M 1221.667 954.667 C 1220.440 955.894, 1220.983 960.741, 1222.487 961.989 C 1226.264 965.124, 1232.124 959.264, 1228.989 955.487 C 1227.741 953.983, 1222.894 953.440, 1221.667 954.667 M 1246.689 961.750 C 1233.594 982.319, 1233.100 983.954, 1240.401 982.585 C 1245.456 981.636, 1252.046 976.247, 1255.227 970.461 C 1259.485 962.713, 1258.603 955, 1253.458 955 C 1251.498 955, 1250.098 956.397, 1246.689 961.750 M 1400.916 969.694 C 1395.273 973.987, 1390.471 978.063, 1390.244 978.750 C 1389.940 979.676, 1391.786 980, 1397.361 980 C 1403.882 980, 1405.264 980.323, 1407.694 982.418 C 1410.411 984.759, 1410.497 985.132, 1410.407 994.168 C 1410.229 1012.030, 1398.686 1056.344, 1394.500 1055.235 C 1393.950 1055.089, 1393.600 1052.839, 1393.722 1050.235 C 1393.845 1047.631, 1394.066 1037.850, 1394.213 1028.500 C 1394.459 1012.991, 1394.287 1010.974, 1392.252 1005.500 C 1389.226 997.357, 1384.833 993.552, 1381.152 995.885 C 1380.070 996.570, 1380.017 997.802, 1380.880 1002.120 C 1382.804 1011.742, 1384.036 1033.800, 1384.674 1070.055 L 1385.300 1105.610 1379.900 1108.343 C 1373.292 1111.687, 1349.500 1130.630, 1349.500 1132.546 C 1349.500 1133.308, 1355.912 1141.793, 1363.750 1151.402 C 1371.588 1161.012, 1378 1169.127, 1378 1169.437 C 1378 1169.747, 1374.063 1170.006, 1369.250 1170.014 C 1354.160 1170.037, 1353.522 1170.827, 1360.353 1181.011 C 1367.297 1191.362, 1367.359 1194.122, 1360.681 1195.553 C 1348.715 1198.118, 1358.532 1198.970, 1408.090 1199.664 L 1453.680 1200.304 1454.887 1209.365 C 1455.550 1214.349, 1456.297 1218.631, 1456.547 1218.880 C 1457.641 1219.974, 1458.008 1217.733, 1458.216 1208.675 C 1458.515 1195.676, 1458.458 1195.624, 1443.470 1195.148 C 1434.259 1194.856, 1432 1194.497, 1432 1193.327 C 1432 1192.526, 1434.292 1188.120, 1437.093 1183.536 C 1439.894 1178.953, 1442.029 1174.389, 1441.838 1173.395 C 1441.376 1170.999, 1438.178 1170.220, 1428.309 1170.100 C 1423.804 1170.045, 1419.873 1169.603, 1419.573 1169.118 C 1419.273 1168.632, 1419.921 1167.099, 1421.014 1165.710 C 1423.727 1162.261, 1423.494 1158.377, 1420.242 1152.794 C 1417.908 1148.789, 1403.947 1131.512, 1391.776 1117.566 L 1388.342 1113.632 1398.849 1094.793 C 1404.627 1084.432, 1409.655 1076.303, 1410.022 1076.728 C 1410.388 1077.152, 1411.995 1080.650, 1413.593 1084.500 C 1416.442 1091.363, 1424.183 1101, 1426.848 1101 C 1428.906 1101, 1429.391 1097.906, 1428.085 1093.096 C 1427.398 1090.568, 1426.437 1084.355, 1425.948 1079.288 C 1424.681 1066.166, 1421.320 1059, 1416.432 1059 C 1414.908 1059, 1412.219 1061.188, 1408.155 1065.734 C 1404.844 1069.438, 1401.831 1072.165, 1401.460 1071.793 C 1401.089 1071.422, 1402.845 1063.779, 1405.364 1054.809 C 1410.823 1035.366, 1413.553 1017.517, 1415.117 991.058 C 1416.348 970.228, 1415.751 962.768, 1412.808 962.202 C 1411.911 962.029, 1406.559 965.400, 1400.916 969.694 M 1088.035 964.934 C 1085.391 969.876, 1088.580 975, 1094.300 975 C 1100.371 975, 1101.704 971.178, 1097.411 966.077 C 1094.340 962.427, 1089.681 961.859, 1088.035 964.934 M 1314.250 974.630 C 1312.550 975.360, 1312.673 980.467, 1314.474 983.949 C 1316.286 987.453, 1323.634 993.870, 1326.723 994.645 C 1331.828 995.927, 1338 992.123, 1338 987.696 C 1338 983.049, 1327.672 975.944, 1319 974.626 C 1317.075 974.333, 1314.938 974.335, 1314.250 974.630 M 1515.343 977.566 C 1513.268 979.641, 1512.896 980.743, 1513.400 983.316 C 1514.175 987.274, 1516.874 991.036, 1520.347 993 C 1522.705 994.333, 1523.295 994.333, 1525.653 993 C 1527.112 992.175, 1529.233 990.251, 1530.367 988.725 C 1532.423 985.957, 1532.423 985.941, 1530.468 982.311 C 1528.291 978.268, 1523.714 975.009, 1520.205 975.004 C 1518.942 975.002, 1516.754 976.155, 1515.343 977.566 M 1024.073 978.635 C 1019.308 984.692, 1022.150 997.162, 1028.935 999.973 C 1032.767 1001.560, 1035.010 1000.725, 1037.750 996.690 C 1040.845 992.132, 1040.738 986.388, 1037.475 981.966 C 1032.789 975.614, 1027.485 974.296, 1024.073 978.635 M 1350.256 992.281 C 1341.893 997.351, 1335.039 1001.773, 1335.025 1002.106 C 1335.011 1002.440, 1338.598 1003.013, 1342.995 1003.379 C 1352.168 1004.144, 1355.782 1005.268, 1356.692 1007.640 C 1357.044 1008.558, 1356.316 1013.817, 1355.073 1019.327 C 1352.616 1030.225, 1340.155 1069.488, 1339.395 1068.728 C 1339.137 1068.471, 1338.231 1062.262, 1337.380 1054.931 C 1334.623 1031.168, 1330.286 1018.023, 1321.762 1007.595 C 1319.471 1004.793, 1317.462 1002.313, 1317.298 1002.083 C 1317.134 1001.854, 1316.765 1001.902, 1316.478 1002.189 C 1316.191 1002.476, 1316.629 1005.588, 1317.451 1009.105 C 1318.273 1012.622, 1320.093 1024.725, 1321.495 1036 C 1329.402 1099.574, 1331.535 1111.936, 1336.448 1122.667 C 1340.805 1132.185, 1344.161 1128.495, 1351.149 1106.500 C 1359.863 1079.074, 1362.787 1076.810, 1367.136 1094.121 C 1371.100 1109.902, 1374.515 1112.344, 1376.309 1100.681 C 1377.584 1092.393, 1373.138 1067.138, 1369.820 1063.820 C 1365.916 1059.916, 1359.903 1064.518, 1354.303 1075.699 C 1350.218 1083.853, 1346.903 1087.560, 1344.516 1086.644 C 1343.112 1086.106, 1343.094 1085.719, 1344.360 1083.268 C 1351.230 1069.967, 1369.519 987.119, 1366.297 983.897 C 1365.837 983.437, 1358.619 987.210, 1350.256 992.281 M 1239.500 1003.587 C 1233.337 1009.858, 1230.999 1011.150, 1227.192 1010.388 C 1225.539 1010.058, 1221.641 1010.544, 1218.409 1011.484 C 1212.055 1013.331, 1193.414 1021.747, 1194.117 1022.451 C 1194.358 1022.692, 1198.585 1023.389, 1203.510 1024.001 C 1212.747 1025.149, 1217.054 1026.583, 1217.757 1028.744 C 1218.333 1030.511, 1214.159 1031.847, 1204.698 1032.923 C 1194.663 1034.064, 1189.236 1036.310, 1181.750 1042.418 C 1176.006 1047.105, 1174.447 1050.042, 1177.750 1049.952 C 1178.713 1049.926, 1184.581 1048.423, 1190.790 1046.612 C 1197 1044.801, 1201.725 1043.623, 1201.290 1043.994 C 1200.856 1044.364, 1195.550 1048.453, 1189.500 1053.079 C 1175.970 1063.425, 1163.163 1075.502, 1162.370 1078.664 C 1161.485 1082.188, 1163.735 1084.305, 1167.685 1083.664 C 1172.522 1082.879, 1180.102 1077.435, 1192.880 1065.568 C 1203.598 1055.615, 1206.888 1053.243, 1205.707 1056.321 C 1203.850 1061.160, 1200 1074.431, 1200 1075.993 C 1200 1078.480, 1201.539 1079.333, 1204.630 1078.557 C 1208.140 1077.676, 1210.556 1071.680, 1212.418 1059.228 C 1214.358 1046.254, 1216.824 1040.563, 1223.173 1034.408 L 1228.237 1029.500 1227.607 1034.500 C 1225.906 1048.002, 1225.801 1050.760, 1226.911 1052.834 C 1227.549 1054.025, 1228.774 1055, 1229.634 1055 C 1232.428 1055, 1236.931 1048.964, 1238.906 1042.570 C 1241.821 1033.131, 1245.136 1011.881, 1244.799 1004.790 L 1244.500 998.500 1239.500 1003.587 M 978.898 1010.258 C 974.415 1013.237, 971 1020.109, 971 1026.153 C 971 1032.640, 972.644 1033.114, 975.061 1027.324 C 979.983 1015.530, 981.151 1014.387, 987.750 1014.900 C 991.655 1015.204, 991.904 1013.813, 988.545 1010.455 C 985.500 1007.409, 983.254 1007.363, 978.898 1010.258 M 932.455 1015.455 C 930.123 1017.786, 930 1018.507, 930 1029.815 C 930 1042.957, 930.811 1051, 932.136 1051 C 932.611 1051, 933.020 1047.513, 933.044 1043.250 C 933.113 1031.107, 934.546 1021.159, 936.545 1018.951 C 939.485 1015.701, 948.923 1017.119, 951.071 1021.133 C 952.469 1023.745, 953.848 1022.656, 953.231 1019.427 C 952.480 1015.497, 947.626 1013.008, 940.705 1013.004 C 935.882 1013.001, 934.497 1013.412, 932.455 1015.455 M 1026.216 1015.453 C 1023.996 1018.275, 1021.388 1026.721, 1022.418 1027.751 C 1022.799 1028.132, 1026.458 1028.444, 1030.548 1028.444 C 1042.440 1028.444, 1043.974 1024.918, 1035.484 1017.092 C 1030.338 1012.348, 1028.863 1012.087, 1026.216 1015.453 M 1273.366 1017.919 C 1266.198 1022.289, 1261 1032.971, 1261 1043.329 C 1261 1052.059, 1263.085 1058.362, 1271.095 1073.853 C 1282.086 1095.107, 1281.027 1095.254, 1259.892 1075.398 C 1252.072 1068.051, 1245.593 1063.722, 1240.729 1062.594 C 1238.558 1062.091, 1237.393 1062.516, 1235.350 1064.559 C 1232.937 1066.972, 1232.779 1067.663, 1233.224 1073.833 C 1233.827 1082.198, 1237.172 1089.061, 1243.485 1094.880 C 1249.974 1100.861, 1256.910 1103.756, 1268.723 1105.414 C 1280.706 1107.095, 1285 1108.980, 1285 1112.559 C 1285 1117.969, 1293.964 1131, 1297.685 1131 C 1298.482 1131, 1300.566 1129.926, 1302.317 1128.614 C 1304.068 1127.302, 1307.383 1125.283, 1309.684 1124.128 C 1319.307 1119.296, 1319.533 1111.329, 1310.353 1100.570 C 1306.488 1096.040, 1306.230 1093.982, 1308.969 1089.550 C 1311.932 1084.756, 1313.969 1074.574, 1313.985 1064.473 C 1314.002 1054.494, 1312.878 1051.688, 1308.417 1050.569 C 1302.422 1049.064, 1299.597 1054.296, 1294.956 1075.500 C 1292.550 1086.494, 1290.612 1092, 1289.149 1092 C 1286.341 1092, 1285.084 1078.842, 1287.048 1070 C 1288.648 1062.797, 1290.143 1059.896, 1292.769 1058.898 C 1295.484 1057.866, 1295.457 1056.955, 1292.480 1049 C 1291.251 1045.717, 1290.949 1042.800, 1291.363 1038.216 C 1291.830 1033.046, 1291.627 1031.671, 1290.216 1030.466 C 1284.738 1025.786, 1284 1024.800, 1284 1022.155 C 1284 1018.957, 1281.316 1015.998, 1278.421 1016.004 C 1277.365 1016.006, 1275.090 1016.867, 1273.366 1017.919 M 1535.547 1018.923 C 1534.644 1020.385, 1542.760 1026.401, 1551.596 1030.819 C 1570.262 1040.153, 1597.670 1050, 1604.982 1050 C 1608.510 1050, 1609 1049.719, 1609 1047.696 C 1609 1044.929, 1604.048 1039.988, 1598.500 1037.220 C 1592.877 1034.414, 1569.684 1026.779, 1552.328 1022.020 C 1536.127 1017.578, 1536.353 1017.619, 1535.547 1018.923 M 1005.605 1043.588 C 1004.648 1046.081, 1004.902 1067.821, 1005.895 1068.435 C 1007.492 1069.422, 1008 1066.051, 1008 1054.477 C 1008 1043.972, 1007.074 1039.760, 1005.605 1043.588 M 970.675 1050.797 C 970.837 1053.934, 971.282 1065.050, 971.663 1075.500 C 972.433 1096.584, 973.127 1095.675, 974.895 1071.272 C 976.338 1051.355, 976.805 1050.688, 990.846 1048.476 C 997.814 1047.379, 994.383 1046.299, 981.940 1045.674 L 970.379 1045.094 970.675 1050.797 M 694.730 1050.603 C 694.329 1051.005, 694 1051.689, 694 1052.125 C 694 1053.492, 702.258 1057.726, 708.225 1059.418 C 715.598 1061.508, 732.077 1063.991, 738.500 1063.979 C 748.917 1063.959, 748.411 1059.837, 737.555 1056.274 C 727.628 1053.016, 696.446 1048.887, 694.730 1050.603 M 1061.500 1054.680 C 1050.519 1057.140, 1042.801 1062.021, 1039.945 1068.312 C 1038.355 1071.815, 1038.040 1074.922, 1038.022 1087.309 C 1037.998 1103.190, 1039.289 1106.190, 1040.445 1092.941 C 1041.769 1077.763, 1045.381 1068.406, 1051.047 1065.476 C 1054.960 1063.452, 1056.899 1063.608, 1063.129 1066.449 C 1066.083 1067.796, 1071.588 1069.388, 1075.362 1069.986 C 1082.273 1071.082, 1094.825 1070.374, 1093.314 1068.974 C 1092.866 1068.559, 1088.696 1067.463, 1084.046 1066.538 C 1074.141 1064.568, 1068.598 1062.460, 1069.496 1061.007 C 1069.848 1060.437, 1071.905 1059.069, 1074.068 1057.965 C 1076.231 1056.862, 1078 1055.518, 1078 1054.980 C 1078 1054.014, 1065.489 1053.786, 1061.500 1054.680 M 985.773 1063.750 C 983.479 1066.363, 982.761 1069.624, 983.507 1074.042 C 984.327 1078.893, 985.527 1079.069, 987.389 1074.610 C 988.168 1072.746, 990.416 1069.438, 992.385 1067.259 C 994.353 1065.080, 995.672 1063.005, 995.315 1062.649 C 993.933 1061.266, 987.280 1062.034, 985.773 1063.750 M 1550.589 1079.250 C 1553.342 1092.083, 1552.363 1097.363, 1545.460 1106.898 C 1542.393 1111.135, 1542.215 1117.674, 1545.001 1123.813 C 1546.805 1127.787, 1569.223 1152, 1571.099 1152 C 1571.522 1152, 1570.309 1147.388, 1568.403 1141.750 C 1563.909 1128.452, 1563.819 1124.498, 1567.874 1118.376 C 1572.172 1111.888, 1572.256 1104.159, 1568.126 1095.427 C 1565.500 1089.878, 1551.884 1073, 1550.033 1073 C 1549.601 1073, 1549.851 1075.813, 1550.589 1079.250 M 1054.931 1085.682 C 1053.384 1089.752, 1054.138 1099.500, 1056 1099.500 C 1058.076 1099.500, 1061.528 1089.239, 1060.641 1085.705 C 1059.727 1082.062, 1056.312 1082.048, 1054.931 1085.682 M 1503.455 1085.455 C 1500.289 1088.620, 1500.354 1091.841, 1503.703 1097.841 L 1506.407 1102.682 1503.203 1107.038 C 1501.441 1109.434, 1500 1111.946, 1500 1112.620 C 1500 1113.295, 1501.165 1115.231, 1502.589 1116.923 C 1504.504 1119.199, 1506.026 1120, 1508.434 1120 C 1514.438 1120, 1516.598 1115.022, 1514.812 1105.300 C 1513.567 1098.524, 1514.466 1096, 1518.122 1096 C 1522.194 1096, 1518.383 1088.636, 1512.397 1084.936 C 1508.271 1082.386, 1506.415 1082.494, 1503.455 1085.455 M 1092.667 1085.667 C 1091.691 1086.642, 1091.881 1096.264, 1092.908 1097.885 C 1094.920 1101.062, 1097.116 1091.072, 1095.393 1086.582 C 1094.749 1084.903, 1093.762 1084.572, 1092.667 1085.667 M 984.585 1088.906 C 982.445 1091.270, 982.812 1096.868, 985.205 1098.366 C 987.534 1099.824, 992 1095.657, 992 1092.026 C 992 1087.138, 987.789 1085.366, 984.585 1088.906 M 1009.688 1088.792 C 1007.061 1091.695, 1007.629 1100, 1010.455 1100 C 1012.148 1100, 1015.255 1092.840, 1014.838 1089.902 C 1014.412 1086.899, 1011.892 1086.356, 1009.688 1088.792 M 923.625 1089.862 C 916.195 1098.072, 921.595 1116.021, 940.107 1144.647 C 949.302 1158.865, 957.473 1174.382, 959.581 1181.631 C 961.066 1186.740, 961.733 1197.601, 960.628 1198.705 C 958.588 1200.745, 954.428 1192.568, 950.604 1179 C 945.655 1161.441, 933.162 1139.790, 928.807 1141.227 C 925.947 1142.171, 924.906 1146.403, 925.249 1155.697 C 925.572 1164.453, 925.834 1165.389, 930.713 1175.197 C 936.690 1187.212, 942.882 1195.715, 952.977 1205.771 L 960.232 1212.997 958.472 1215.748 C 957.504 1217.262, 953.605 1221.543, 949.808 1225.262 C 942.229 1232.685, 937.005 1241.958, 936.997 1248 C 936.989 1253.859, 933.942 1257.549, 927.026 1260.071 C 923.674 1261.293, 921.094 1262.790, 921.293 1263.397 C 921.491 1264.003, 923.869 1265.069, 926.577 1265.765 C 938.391 1268.801, 945.060 1263.990, 953.518 1246.331 C 956.502 1240.099, 959.163 1235, 959.430 1235 C 959.697 1235, 960.853 1238.150, 962 1242 C 964.071 1248.953, 966.041 1250.834, 967.497 1247.250 C 969.303 1242.807, 970.157 1238.896, 970.976 1231.337 C 972.150 1220.488, 975.885 1212.635, 989.411 1192.578 C 1001.372 1174.842, 1005.750 1166.759, 1009.611 1155.283 C 1014.166 1141.743, 1012.944 1131, 1006.848 1131 C 1004.069 1131, 997.570 1137.382, 993.032 1144.567 C 984.872 1157.487, 980.381 1170.544, 978.955 1185.490 C 977.874 1196.811, 975.838 1203.931, 972.928 1206.566 C 965.856 1212.965, 965.809 1190.984, 972.849 1169.500 C 973.931 1166.200, 976.487 1159, 978.530 1153.500 C 985.376 1135.069, 984.321 1119.503, 975.329 1106.261 C 971.305 1100.336, 966.624 1096.993, 962.382 1097.015 C 958.941 1097.034, 957.681 1097.775, 956.150 1100.684 C 954.123 1104.535, 954.889 1110.415, 960.059 1130.675 C 965.470 1151.882, 967.417 1165.609, 964.905 1164.840 C 962.353 1164.059, 959.020 1155.582, 955.103 1139.912 C 949.329 1116.810, 941.295 1100.016, 932.001 1091.619 C 927.459 1087.517, 926.021 1087.215, 923.625 1089.862 M 685.046 1095.871 C 683.774 1096.745, 683.774 1097.212, 685.046 1099.598 C 688.261 1105.631, 694.910 1107.808, 713.679 1108.976 C 725.502 1109.711, 727.814 1110.156, 732.813 1112.656 C 739.368 1115.934, 741.303 1118.833, 739.804 1123.132 C 738.270 1127.532, 739.344 1133.646, 743.294 1143 C 748.298 1154.853, 752.048 1168.384, 752.340 1175.638 C 752.619 1182.597, 753.881 1184.913, 763.871 1196.793 C 777.347 1212.820, 777.344 1219.023, 763.863 1220.299 C 753.070 1221.320, 748.699 1225.812, 748.789 1235.792 C 748.884 1246.390, 760.884 1266, 767.274 1266 C 770.708 1266, 772.495 1264.035, 774.470 1258.090 C 777.766 1248.167, 780.316 1248.920, 785.999 1261.497 C 790.756 1272.026, 792.626 1274.126, 798.812 1275.889 C 803.618 1277.258, 810.322 1282.788, 812.661 1287.311 C 813.893 1289.694, 813.958 1290.710, 812.994 1292.511 C 812.097 1294.186, 812.078 1295.278, 812.919 1296.848 C 815.396 1301.477, 825.521 1312.637, 847.986 1335.500 C 880.105 1368.188, 885.167 1375.008, 896.975 1401.500 L 903.662 1416.500 917.581 1416.807 C 933.599 1417.160, 940.997 1416.488, 943.638 1414.441 C 945.434 1413.050, 945.416 1412.927, 943.124 1410.987 C 940.737 1408.966, 939.768 1408.643, 932.636 1407.491 C 926.878 1406.561, 921.119 1400.090, 908.614 1380.500 C 888.643 1349.214, 879.407 1338.546, 853.893 1317.293 C 838.596 1304.551, 830.194 1296.241, 827.755 1291.442 C 826.933 1289.824, 825.946 1286.344, 825.562 1283.708 C 824.686 1277.688, 820.901 1273.205, 811.732 1267.329 C 804.427 1262.646, 801.013 1258.248, 800.998 1253.500 C 800.993 1251.850, 800.504 1248.755, 799.912 1246.622 C 798.931 1243.087, 797.843 1241.734, 791.803 1236.531 C 790.023 1234.997, 789.901 1234.039, 790.524 1226.553 C 791.336 1216.802, 790.332 1213.848, 782.021 1201.531 C 775.533 1191.917, 774 1188.272, 774 1182.466 C 774 1176.987, 773.062 1175.030, 767.400 1168.702 C 762.656 1163.398, 759.003 1154.929, 758.994 1149.212 C 758.986 1143.556, 757.088 1137.836, 755.043 1137.301 C 752.707 1136.690, 751.002 1132.861, 750.992 1128.203 C 750.978 1120.966, 748.883 1111.474, 746.501 1107.848 C 743.344 1103.044, 735.811 1099.455, 724.964 1097.589 C 713.919 1095.689, 686.998 1094.530, 685.046 1095.871 M 1131.500 1103.509 C 1093.406 1108.900, 1059.763 1125.638, 1031.140 1153.438 C 1013.394 1170.674, 1001.298 1187.248, 990.956 1208.500 C 970.164 1251.225, 966.523 1296.512, 980.088 1343.674 C 990.198 1378.822, 1009.551 1408.908, 1037.312 1432.634 C 1067.809 1458.698, 1099.354 1472.770, 1136.898 1477.058 C 1152.641 1478.856, 1184.691 1477.804, 1198.500 1475.036 C 1232.652 1468.191, 1260.612 1453.415, 1284.592 1429.540 C 1291.243 1422.918, 1297.686 1416.037, 1298.911 1414.250 L 1301.136 1411 1298.306 1411 C 1296.749 1411, 1288.956 1414.192, 1280.988 1418.093 C 1262.106 1427.338, 1254.741 1430.222, 1242 1433.363 C 1221.436 1438.434, 1202.673 1438.942, 1181.894 1434.991 C 1126.008 1424.366, 1082.211 1380.784, 1068.344 1322 C 1065.275 1308.987, 1064.081 1283.850, 1065.918 1270.892 C 1070.716 1237.038, 1085.154 1207.695, 1108.440 1184.468 C 1144.562 1148.438, 1193.306 1134.631, 1242 1146.637 C 1254.741 1149.778, 1262.106 1152.662, 1280.988 1161.907 C 1288.956 1165.808, 1296.749 1169, 1298.306 1169 L 1301.136 1169 1298.911 1165.750 C 1297.686 1163.963, 1291.243 1157.082, 1284.592 1150.460 C 1260.623 1126.595, 1232.752 1111.861, 1198.500 1104.948 C 1184.292 1102.080, 1147.218 1101.284, 1131.500 1103.509 M 1020.250 1108.031 C 1017.770 1109.028, 1017.313 1111.194, 1019.250 1112.775 C 1019.938 1113.336, 1025.900 1113.968, 1032.500 1114.180 C 1043.068 1114.519, 1045.238 1114.902, 1050.682 1117.389 C 1054.082 1118.941, 1057.351 1120.050, 1057.946 1119.851 C 1060.254 1119.082, 1052.977 1112.153, 1048.241 1110.611 C 1038.509 1107.442, 1024.849 1106.183, 1020.250 1108.031 M 1595.563 1108.898 C 1594.473 1110.662, 1592.832 1135.500, 1593.469 1140.600 C 1594.640 1149.968, 1598.356 1150.915, 1604.863 1143.503 C 1608.653 1139.187, 1608.803 1136.477, 1605.500 1132 C 1602.519 1127.960, 1602.382 1126.070, 1604.841 1122.885 C 1605.854 1121.573, 1606.944 1119.457, 1607.265 1118.182 C 1608.031 1115.136, 1606.263 1110.211, 1603.961 1108.979 C 1601.669 1107.752, 1596.303 1107.701, 1595.563 1108.898 M 991.246 1114.250 C 991.695 1115.609, 1003.732 1116.535, 1007.770 1115.522 C 1012.616 1114.305, 1008.520 1113, 999.858 1113 C 993.085 1113, 990.936 1113.312, 991.246 1114.250 M 1143 1114.040 C 1121.302 1116.697, 1101.790 1122.504, 1082.500 1132.047 C 1064.078 1141.159, 1052.215 1149.743, 1036.987 1164.980 C 1009.317 1192.664, 994.594 1220.611, 987.718 1258.500 C 984.793 1274.619, 984.572 1309.618, 987.308 1323.500 C 998.420 1379.887, 1031.791 1423.039, 1084.182 1448.765 C 1117.255 1465.006, 1156.674 1470.655, 1194 1464.503 C 1211.324 1461.647, 1230.261 1455.070, 1233.893 1450.648 C 1235.816 1448.306, 1235.294 1448.136, 1229 1449.053 C 1213.099 1451.369, 1190.030 1449.577, 1169.827 1444.456 C 1148.310 1439.002, 1128.149 1428.850, 1110.167 1414.415 C 1084.410 1393.739, 1064.513 1359.389, 1056.927 1322.500 C 1054.303 1309.741, 1053.221 1279.515, 1054.923 1266.487 C 1058.452 1239.466, 1069.073 1213.034, 1083.849 1194.500 C 1095.218 1180.240, 1114.853 1162.338, 1130.846 1151.653 C 1154.111 1136.108, 1199.175 1126.602, 1229 1130.947 C 1235.294 1131.864, 1235.816 1131.694, 1233.893 1129.352 C 1230.275 1124.947, 1211.444 1118.394, 1194 1115.471 C 1182.660 1113.571, 1153.509 1112.753, 1143 1114.040 M 1372.156 1122.446 C 1367.397 1127.610, 1366.886 1130.535, 1370.459 1132.163 C 1375.391 1134.410, 1379.918 1128.356, 1378.837 1120.959 C 1378.295 1117.258, 1376.588 1117.638, 1372.156 1122.446 M 1384.975 1128.565 C 1382.462 1135.176, 1384.881 1143.725, 1390.190 1146.995 C 1396.921 1151.140, 1409.030 1153.812, 1408.991 1151.143 C 1408.928 1146.833, 1391.277 1126, 1387.687 1126 C 1386.732 1126, 1385.512 1127.154, 1384.975 1128.565 M 1527.525 1146.750 C 1525.968 1153.213, 1524.486 1162.616, 1524.232 1167.646 C 1523.669 1178.814, 1525.280 1184.452, 1531.408 1192.748 C 1536.459 1199.588, 1558.104 1223.230, 1558.735 1222.598 C 1558.978 1222.356, 1556.280 1215.935, 1552.740 1208.329 C 1542.956 1187.306, 1538.934 1174.530, 1534.460 1150.250 C 1532.914 1141.862, 1531.358 1135, 1531.003 1135 C 1530.648 1135, 1529.083 1140.287, 1527.525 1146.750 M 1364.230 1138.837 C 1362.334 1140.040, 1367.410 1146.606, 1380.078 1159.337 C 1387.003 1166.295, 1391.475 1170.053, 1392.574 1169.837 C 1398.332 1168.704, 1395.364 1159.874, 1388.045 1156.363 C 1382.480 1153.692, 1379 1149.736, 1379 1146.079 C 1379 1144.534, 1378.067 1142.084, 1376.927 1140.635 C 1375.212 1138.454, 1374.049 1138.003, 1370.177 1138.015 C 1367.605 1138.024, 1364.928 1138.393, 1364.230 1138.837 M 711.305 1148.499 C 710.127 1149.324, 708.177 1151.596, 706.971 1153.547 C 704.868 1156.950, 704.850 1157.177, 706.544 1159.048 C 707.515 1160.122, 708.883 1161, 709.582 1161 C 710.282 1161, 711.767 1162.160, 712.883 1163.578 C 714.600 1165.761, 714.823 1167.101, 714.339 1172.328 C 713.842 1177.697, 714.033 1178.739, 715.806 1180.335 C 718.757 1182.991, 725.355 1183.653, 728.479 1181.606 C 732.146 1179.203, 731.804 1175.151, 727.500 1170 C 724.428 1166.323, 724 1165.135, 724 1160.288 C 724 1155.205, 723.690 1154.455, 720.118 1150.882 C 715.858 1146.622, 714.506 1146.257, 711.305 1148.499 M 1402.571 1160.571 C 1400.536 1162.607, 1400.548 1166.889, 1402.591 1167.673 C 1404.574 1168.434, 1410.860 1165.528, 1411.643 1163.489 C 1413.116 1159.650, 1405.834 1157.309, 1402.571 1160.571 M 693.094 1162.750 C 688.610 1166.948, 688.389 1169.234, 692.062 1173.418 C 696.274 1178.215, 699.714 1178.229, 703.896 1173.465 C 705.603 1171.521, 707 1169.226, 707 1168.365 C 707 1166.076, 700.547 1160, 698.116 1160 C 696.969 1160, 694.710 1161.237, 693.094 1162.750 M 1501.832 1170.750 C 1498.176 1174.705, 1491.503 1183.965, 1489.616 1187.700 C 1487.056 1192.769, 1487.656 1202.189, 1491.941 1224.230 C 1495.809 1244.123, 1497.863 1258.881, 1497.217 1262.151 C 1496.788 1264.325, 1491.938 1266.277, 1488.904 1265.498 C 1484.352 1264.328, 1482.733 1262.062, 1479.115 1251.796 C 1475.124 1240.474, 1473.603 1239.230, 1470.799 1245 C 1468.403 1249.931, 1467.176 1259.005, 1466.407 1277.500 C 1466.023 1286.731, 1465.191 1294.854, 1464.442 1296.702 C 1463.441 1299.167, 1461.547 1300.706, 1456.207 1303.396 C 1441.291 1310.907, 1439.856 1319.562, 1452.533 1325.559 C 1460.155 1329.165, 1460.640 1331.143, 1459.100 1352.352 C 1457.952 1368.169, 1458.221 1374, 1460.100 1374 C 1460.585 1374, 1463.078 1372.401, 1465.638 1370.447 C 1468.442 1368.306, 1470.656 1367.256, 1471.205 1367.805 C 1472.214 1368.814, 1470.192 1374.890, 1464.650 1387.500 C 1462.717 1391.900, 1460.429 1398.969, 1459.567 1403.208 C 1457.893 1411.441, 1457.432 1427, 1458.861 1427 C 1459.335 1427, 1461.172 1423.513, 1462.944 1419.250 C 1466.936 1409.645, 1472.393 1399.546, 1480.746 1386.305 C 1489.385 1372.611, 1492.018 1364.241, 1491.944 1350.712 C 1491.881 1339.441, 1490.483 1333.713, 1487.661 1333.172 C 1485.403 1332.739, 1481.569 1336.216, 1478.725 1341.276 C 1475.790 1346.497, 1473.728 1345.818, 1472.613 1339.263 C 1471.689 1333.828, 1474.048 1302.536, 1476.105 1292.945 C 1477.566 1286.132, 1478.588 1285.621, 1484.898 1288.544 C 1491.806 1291.745, 1496.005 1291.708, 1499.921 1288.413 C 1502.932 1285.880, 1504.245 1282.541, 1508.020 1267.821 C 1509.627 1261.556, 1512.256 1259.351, 1518.824 1258.759 C 1528.147 1257.919, 1532.996 1252.137, 1532.998 1241.855 C 1533 1234.783, 1529.749 1224.043, 1526.401 1220.065 C 1523.246 1216.315, 1517.524 1214.666, 1510.648 1215.525 C 1506.117 1216.091, 1505.217 1215.896, 1503.483 1213.979 C 1501.760 1212.073, 1501.506 1210.388, 1501.544 1201.143 C 1501.582 1191.825, 1501.986 1189.347, 1504.794 1181.235 C 1506.557 1176.139, 1508 1171.077, 1508 1169.985 C 1508 1167.098, 1504.847 1167.489, 1501.832 1170.750 M 1364.547 1177.250 C 1364.921 1178.487, 1366.639 1182.199, 1368.364 1185.498 C 1372.836 1194.051, 1373.936 1194.434, 1395.205 1194.830 C 1415.754 1195.214, 1422.460 1194.217, 1426.298 1190.210 C 1429.054 1187.331, 1433.533 1178.199, 1432.630 1177.297 C 1431.700 1176.366, 1404.304 1175.111, 1383.683 1175.055 L 1363.865 1175 1364.547 1177.250 M 1276.230 1198.750 C 1273.006 1203.013, 1265.534 1213.310, 1259.625 1221.634 C 1247.610 1238.556, 1241.343 1245.625, 1237.497 1246.590 C 1235.778 1247.021, 1227.904 1245.344, 1214.200 1241.626 C 1189.764 1234.997, 1179.124 1232.542, 1178.318 1233.349 C 1177.206 1234.460, 1180.268 1240.040, 1188.690 1252.255 C 1212.084 1286.182, 1212.430 1286.761, 1211.066 1289.756 C 1210.379 1291.265, 1204.533 1300.375, 1198.076 1310 C 1185.596 1328.604, 1181.618 1335.124, 1180.536 1338.750 C 1179.952 1340.710, 1180.228 1341, 1182.683 1340.997 C 1186.049 1340.993, 1197.209 1337.979, 1217.279 1331.654 C 1240.868 1324.221, 1239.412 1324.317, 1244.921 1329.828 C 1247.489 1332.398, 1255.488 1342.375, 1262.697 1352 C 1277.397 1371.627, 1280.647 1375.188, 1281.946 1373.088 C 1283.688 1370.269, 1284.082 1354.710, 1282.995 1331.647 C 1282.377 1318.528, 1282.013 1307.688, 1282.186 1307.557 C 1282.359 1307.425, 1291.725 1304.212, 1303 1300.415 C 1323.352 1293.561, 1339.016 1286.667, 1339.782 1284.228 C 1340.506 1281.922, 1323.352 1275.383, 1290.607 1265.481 L 1281.713 1262.791 1282.344 1253.146 C 1283.774 1231.259, 1284.332 1191, 1283.205 1191 C 1282.592 1191, 1279.453 1194.487, 1276.230 1198.750 M 1379.683 1218.965 C 1375.427 1224.023, 1375.082 1233.090, 1378.657 1246 C 1380.231 1251.688, 1382.400 1255, 1384.548 1255 C 1385.896 1255, 1387 1257.184, 1387 1259.850 C 1387 1262.838, 1391.994 1269, 1397.998 1273.420 L 1403.847 1277.725 1397.607 1278.308 C 1389.411 1279.073, 1381.743 1282.029, 1372.784 1287.878 C 1360.647 1295.801, 1356.279 1301.952, 1354.417 1313.745 C 1353.590 1318.980, 1355.016 1321, 1359.541 1321 C 1364.158 1321, 1366.012 1320.099, 1367.059 1317.346 C 1368.123 1314.546, 1371.636 1313, 1376.931 1313 C 1385.903 1313, 1401.488 1302.151, 1423.128 1280.842 C 1439.868 1264.358, 1441.545 1261.066, 1441.387 1245 C 1441.250 1230.990, 1439.695 1222.979, 1436.338 1218.990 C 1432.763 1214.741, 1428.749 1214.926, 1424.395 1219.543 C 1419.466 1224.769, 1417.095 1233.614, 1415.830 1251.500 C 1414.253 1273.793, 1413.237 1274.016, 1408.126 1253.186 C 1404.403 1238.013, 1400.139 1229.174, 1392.961 1221.750 C 1386.413 1214.978, 1383.544 1214.376, 1379.683 1218.965 M 1260.084 1240.996 C 1251.404 1253.503, 1244.168 1261, 1240.776 1261 C 1239.707 1261, 1235.383 1260.134, 1231.167 1259.075 C 1222.294 1256.848, 1205.920 1253.747, 1205.460 1254.206 C 1205.288 1254.379, 1208.541 1259.015, 1212.690 1264.510 C 1220.540 1274.905, 1224.974 1282.915, 1224.990 1286.730 C 1225.009 1291.084, 1221.523 1297.519, 1212.823 1309.183 C 1207.975 1315.682, 1204.223 1321, 1204.484 1321 C 1204.745 1321, 1209.580 1319.685, 1215.229 1318.078 C 1236.265 1312.095, 1243.200 1311.787, 1250.052 1316.536 C 1252.049 1317.920, 1257.467 1324.062, 1262.091 1330.186 L 1270.500 1341.320 1271 1322.361 C 1271.562 1301.046, 1271.994 1299.598, 1278.641 1296.747 C 1280.764 1295.836, 1287.330 1293.240, 1293.234 1290.976 C 1299.138 1288.713, 1304.269 1286.374, 1304.637 1285.779 C 1305.707 1284.046, 1302.445 1282.314, 1290.821 1278.440 C 1278.847 1274.450, 1274.711 1271.683, 1273.007 1266.522 C 1272.388 1264.645, 1271.120 1255.405, 1270.190 1245.989 L 1268.500 1228.870 1260.084 1240.996 M 831.331 1232.618 C 828.700 1236.633, 829.038 1244.347, 831.982 1247.481 C 837.540 1253.398, 845.043 1248.078, 843.411 1239.378 C 842.706 1235.618, 837.567 1230, 834.833 1230 C 833.850 1230, 832.274 1231.178, 831.331 1232.618 M 1361.573 1260.336 C 1358.638 1263.271, 1358.440 1264.755, 1360.377 1269.282 C 1363.179 1275.831, 1370.397 1280.471, 1376.030 1279.344 C 1379.143 1278.721, 1383 1274.832, 1383 1272.315 C 1383 1267.364, 1374.203 1259.394, 1367.545 1258.314 C 1364.796 1257.867, 1363.656 1258.254, 1361.573 1260.336 M 881.635 1293.073 C 879.888 1294.447, 879 1296.107, 879 1298 C 879 1301.080, 882.909 1305, 885.980 1305 C 888.288 1305, 890.460 1307.574, 892.843 1313.133 C 894.928 1317.997, 898.164 1321, 901.321 1321 C 904.625 1321, 910.137 1317.771, 911.083 1315.281 C 912.452 1311.682, 910.622 1309.250, 904.515 1306.549 C 899.134 1304.169, 897.033 1301.646, 895.664 1295.921 C 894.504 1291.069, 886.300 1289.403, 881.635 1293.073 M 1419.420 1325.885 C 1417.726 1326.918, 1415.733 1329.232, 1414.989 1331.026 C 1413.725 1334.077, 1413.794 1334.415, 1416.053 1336.244 C 1420.792 1340.081, 1430 1336.515, 1430 1330.844 C 1430 1328.660, 1425.771 1323.998, 1423.795 1324.004 C 1423.083 1324.006, 1421.114 1324.853, 1419.420 1325.885 M 789.149 1333.887 C 788.128 1334.534, 788.740 1335.448, 791.649 1337.622 C 796.903 1341.548, 798.070 1343.139, 797.510 1345.610 C 796.947 1348.096, 799.097 1350.307, 804.116 1352.404 C 808.822 1354.370, 810.232 1356.227, 809.435 1359.404 C 808.913 1361.482, 809.154 1362.022, 810.642 1362.111 C 820.037 1362.670, 824.597 1358.152, 820.517 1352.327 C 819.701 1351.163, 817.009 1349.023, 814.535 1347.573 C 809.442 1344.589, 808 1342.485, 808 1338.041 C 808 1335.644, 807.425 1334.732, 805.435 1333.975 C 802.282 1332.776, 790.998 1332.715, 789.149 1333.887 M 1396.667 1354.667 C 1396.300 1355.033, 1396 1357.468, 1396 1360.076 C 1396 1366.436, 1402.776 1379.914, 1415.994 1399.843 C 1425.784 1414.604, 1429.716 1418.912, 1432.071 1417.456 C 1435.968 1415.047, 1428.147 1395.878, 1414.246 1373.771 C 1404.104 1357.642, 1399.114 1352.219, 1396.667 1354.667 M 852.223 1405.557 C 850.685 1406.634, 850 1408.136, 850 1410.434 C 850 1414.341, 850.989 1415.321, 857.008 1417.378 C 859.479 1418.222, 862.400 1420.081, 863.500 1421.509 C 872.370 1433.024, 876.747 1435.706, 881.541 1432.565 C 886.821 1429.105, 883.609 1421.044, 875.525 1417.469 C 870.096 1415.067, 867 1411.932, 867 1408.834 C 867 1406.243, 863.055 1404, 858.500 1404 C 856.270 1404, 853.445 1404.701, 852.223 1405.557" stroke="none" fill="#b3662a" fill-rule="evenodd"/></svg>