<?xml version="1.0" encoding="UTF-8" standalone="no"?>
<!-- Created with Inkscape (http://www.inkscape.org/) -->

<svg
   version="1.1"
   id="svg25"
   width="854"
   height="97.400002"
   viewBox="0 0 854 97.4"
   sodipodi:docname="misudo"
   inkscape:version="1.2.1 (ef4d3fba62, 2022-07-19, custom)"
   xmlns:inkscape="http://www.inkscape.org/namespaces/inkscape"
   xmlns:sodipodi="http://sodipodi.sourceforge.net/DTD/sodipodi-0.dtd"
   xmlns="http://www.w3.org/2000/svg"
   xmlns:svg="http://www.w3.org/2000/svg">
  <defs
     id="defs29" />
  <sodipodi:namedview
     id="namedview27"
     pagecolor="#ffffff"
     bordercolor="#666666"
     borderopacity="1.0"
     inkscape:showpageshadow="2"
     inkscape:pageopacity="0.0"
     inkscape:pagecheckerboard="false"
     inkscape:deskcolor="#d1d1d1"
     showgrid="false"
     inkscape:zoom="1.2213909"
     inkscape:cx="454.39999"
     inkscape:cy="73.277116"
     inkscape:window-width="1208"
     inkscape:window-height="896"
     inkscape:window-x="72"
     inkscape:window-y="27"
     inkscape:window-maximized="1"
     inkscape:current-layer="g31" />
  <g
     inkscape:groupmode="layer"
     inkscape:label="Image"
     id="g31">
    <path
       style="fill:#561a03;fill-opacity:1;stroke-width:0.8"
       d="m 252.94409,90.822749 c -7.02802,-1.16775 -12.71018,-4.49796 -15.78159,-9.249285 -2.19276,-3.39209 -2.19404,-3.40288 -2.48449,-20.793851 L 234.3874,43.379614 h -4.32166 -4.32165 V 34.621423 25.86323 l 4.2,-0.241807 4.2,-0.241808 0.4,-4.399999 0.4,-4.4 h 10 10 l 0.23992,4.6 0.23993,4.599999 h 9.56007 9.56008 v 8.8 8.799999 h -10 -10 v 11.547919 c 0,11.180152 0.66672,15.362439 2.65005,16.623551 0.52247,0.332216 2.92995,0.5998 5.34995,0.594632 4.92347,-0.01048 13.07471,-3.06364 17.7984,-6.666575 l 2.79749,-2.133744 0.4116,-8.582896 c 0.60874,-12.693504 4.17799,-21.275384 12.05698,-28.989736 10.75218,-10.527489 28.28314,-13.396651 41.33553,-6.76508 7.57223,3.847249 11.30775,9.973952 11.41901,18.728581 0.19239,15.136981 -13.09576,25.214075 -35.23382,26.719651 -2.31814,0.157656 -4.40023,0.472072 -4.62686,0.698704 -0.80457,0.80456 5.2454,5.350887 8.2198,6.176887 7.04224,1.955648 18.12168,0.430024 25.83171,-3.556984 1.39636,-0.722088 2.63656,-1.196343 2.75598,-1.053904 0.11942,0.142448 1.87589,3.114248 3.90326,6.604008 2.59333,4.463956 3.44884,6.630926 2.88572,7.309446 -1.0896,1.31289 -11.35557,6.254835 -16.7548,8.065605 -6.78403,2.2752 -20.36708,2.05114 -27.14455,-0.44776 -6.12344,-2.25776 -9.69142,-4.221895 -14.19009,-7.811505 -1.83405,-1.46344 -3.58766,-2.6608 -3.89691,-2.6608 -0.30924,0 -3.76345,1.84751 -7.67601,4.10558 -10.63606,6.138435 -23.27931,9.969915 -29.49244,8.937555 z M 321.8465,46.892386 c 7.36212,-2.846606 10.24837,-8.335595 5.88604,-11.193899 -3.06744,-2.009864 -8.6311,-2.349101 -12.74698,-0.777231 -5.85756,2.237024 -11.12613,9.277888 -9.70794,12.973615 0.43359,1.129923 1.40602,1.249438 6.78869,0.834356 3.45544,-0.266464 7.85653,-1.093043 9.78019,-1.836841 z M 183.34409,89.382799 c -4.97053,-1.00029 -14.38117,-4.178205 -18.2,-6.146025 -0.99,-0.51014 -1.81097,-1.4967 -1.82437,-2.19235 -0.0444,-2.30323 4.38681,-14.464811 5.27038,-14.464811 0.47704,0 4.80184,1.508631 9.61067,3.352503 6.69427,2.566832 10.15116,3.428312 14.75059,3.67596 5.34478,0.287776 6.17735,0.135504 7.54954,-1.380744 1.52319,-1.683096 1.52308,-1.723392 -0.009,-3.255528 -0.85324,-0.853232 -5.10306,-2.804239 -9.44404,-4.335567 -10.28036,-3.626496 -19.17684,-8.752536 -22.74952,-13.107964 -2.2554,-2.749542 -2.90275,-4.315739 -3.18359,-7.702325 -0.58159,-7.013206 3.87946,-13.119339 13.85119,-18.959029 9.04825,-5.298884 22.02536,-9.40829 33.77821,-10.696402 l 5,-0.548 v 8.769071 8.769071 l -6.86365,1.363105 c -12.14132,2.411238 -18.88548,4.944864 -20.32567,7.635891 -1.27106,2.375013 1.40997,4.290603 10.68091,7.631468 12.13298,4.37223 14.69772,5.71029 18.55746,9.681666 3.3773,3.474992 5.95095,9.252543 5.95095,13.359207 0,8.626958 -8.38477,16.615353 -19.83937,18.901503 -5.59085,1.11584 -16.08375,0.95273 -22.56063,-0.3507 z m 495.59999,-1.14749 c -6.85128,-1.65726 -11.23976,-5.358125 -14.2956,-12.055695 -1.40614,-3.081906 -1.70455,-5.763194 -2.07346,-18.631025 -0.34854,-12.157183 -0.66037,-15.175701 -1.63094,-15.787747 -1.97429,-1.245002 -2.5541,-0.956289 -6.48238,3.227853 -6.10897,6.506861 -15.84989,27.487605 -17.94367,38.648469 l -0.55201,2.942455 h -9.51097 -9.51097 V 54.955709 23.331812 l 10.18927,0.223902 10.18926,0.223901 -0.25985,6.2 c -0.27114,6.469313 0.36039,7.567329 2.5307,4.4 6.3954,-9.333396 16.89427,-15.655906 24.5014,-14.754954 7.30378,0.865025 12.21392,4.408055 15.182,10.954954 1.45476,3.208861 1.63399,5.234059 1.64966,18.639727 0.0229,19.573854 0.46013,20.563518 9.083,20.557278 4.19274,-0.0032 8.62268,-1.909424 10.73456,-4.619543 0.73986,-0.949432 1,-6.550432 1,-21.530367 V 23.379615 h 10 10 v 21.155388 21.155386 l 1.93395,2.244615 c 1.73536,2.014104 2.42095,2.235912 6.67612,2.159968 5.3047,-0.09468 12.36596,-2.853808 15.26369,-5.964151 1.67018,-1.792728 1.72624,-2.484592 1.72624,-21.302056 v -19.44915 h 9.95228 9.95229 l 0.24771,21.579135 c 0.24379,21.237079 0.27663,21.607999 2.07149,23.399998 3.47127,3.465712 15.02751,1.647168 19.45567,-3.061639 1.83416,-1.950384 1.92056,-2.534216 1.92056,-12.97987 V 41.379614 l -4.6,-0.239923 -4.6,-0.239923 v -8.320153 -8.320153 l 4.6,-0.239923 4.6,-0.239924 0.23992,-4.599999 0.23992,-4.6 h 9.96008 9.96008 v 4.8 4.799999 h 10 10 v 8.4 8.399999 h -10 -10 v 12.660551 c 0,12.097624 0.08,12.735352 1.8,14.342967 5.18928,4.850352 16.35416,3.825576 29.71824,-2.727711 3.03504,-1.48828 5.69248,-2.531744 5.90544,-2.318824 0.21288,0.212928 0.406,3.318152 0.42904,6.900503 0.048,7.483974 0.0664,7.459264 -9.05272,12.226574 -8.94944,4.678555 -14.75328,6.298285 -24.09696,6.724955 -10.06688,0.45971 -14.68344,-0.7268 -19.77064,-5.081275 l -3.29272,-2.81845 -3.41984,1.97224 c -4.72784,2.726565 -10.2188,4.444285 -17.49698,5.473565 -7.63663,1.07995 -12.51423,-0.23679 -19.0399,-5.139965 -4.23397,-3.18128 -4.35711,-3.21784 -6.4,-1.90033 -3.90881,2.52089 -10.87577,5.386675 -16.08296,6.615545 -6.96665,1.6441 -13.26192,0.95067 -19.32073,-2.1282 -5.58605,-2.838615 -5.43744,-2.825255 -9.72316,-0.874635 -3.78223,1.721455 -14.53159,4.114905 -17.92238,3.990605 -1.22855,-0.045 -3.31373,-0.34313 -4.63373,-0.66242 z m -202.35023,-1.33792 c -2.61264,-0.63191 -6.36546,-2.051685 -8.3396,-3.155055 l -3.58936,-2.00614 -3.01349,2.42171 c -2.98041,2.395125 -3.11939,2.421715 -12.6604,2.421715 h -9.64691 V 47.86634 9.1530691 l 1.8,-0.426212 c 0.99,-0.234417 6.62276,-0.861704 12.51724,-1.39397 14.84691,-1.340663 35.34914,-0.610147 43.51949,1.550646 17.27303,4.5681579 27.91755,14.1145839 30.98475,27.7883389 1.14679,5.112421 1.15383,16.471837 0.0133,21.444653 -3.02958,13.209327 -14.53076,25.703859 -26.6236,28.923054 -5.3784,1.43177 -18.76926,1.35549 -24.96143,-0.14219 z M 496.2435,67.7485 c 5.68013,-1.997631 9.32103,-4.867751 11.41367,-8.997383 7.3498,-14.504125 -0.93337,-28.210228 -19.51308,-32.288155 -5.17844,-1.136576 -17.67494,-1.355876 -24.2,-0.424684 l -4.6,0.656468 v 16.342433 c 0,8.988339 0.288,16.342434 0.64,16.342434 0.352,0 1.03711,-0.397112 1.52246,-0.882464 0.64328,-0.64328 2.15024,-0.02544 5.56,2.279616 11.19131,7.565479 20.89544,9.884247 29.17695,6.971735 z m 65.66523,19.239679 c -14.78199,-4.166765 -25.4994,-15.307111 -27.19909,-28.272438 -2.54606,-19.421551 11.07011,-35.63071 32.47349,-38.657542 16.49799,-2.333122 34.05985,6.642759 40.8417,20.874233 1.87542,3.93551 2.11925,5.413647 2.11925,12.847181 0,7.439256 -0.24522,8.9232 -2.14404,12.974455 -3.87072,8.258426 -12.00995,15.598556 -21.05596,18.988741 -6.27291,2.3509 -18.88728,2.97839 -25.03535,1.24537 z M 580.61636,67.33494 c 8.71579,-5.386647 10.47048,-16.34569 3.7566,-23.462047 -3.58486,-3.799769 -6.99522,-5.298708 -12.00318,-5.275709 -10.50148,0.04822 -18.0503,9.435416 -15.42572,19.182349 1.1423,4.242144 5.80709,9.300463 10.00002,10.843639 4.0988,1.50852 10.05511,0.947304 13.67228,-1.288232 z M 5.5913072,85.979619 c -0.135967,-0.33 -0.145871,-15.810007 -0.02201,-34.400005 l 0.225205,-33.799998 h 9.9747948 9.974794 v 11.199999 c 0,6.16 0.27,11.197335 0.6,11.194078 0.33,-0.0033 2.94,-3.691438 5.8,-8.195957 8.774014,-13.819131 13.039272,-17.343903 21.031872,-17.38055 9.496416,-0.04354 14.091048,5.541354 18.21638,22.142496 0.56857,2.288037 1.26841,4.01505 1.55519,3.837807 0.28678,-0.177244 3.63558,-4.80705 7.44178,-10.28846 3.806185,-5.481408 7.918085,-10.751124 9.137555,-11.710478 7.82939,-6.159358 18.234532,-5.098847 23.307042,2.375496 3.11845,4.595028 4.06083,8.42588 8.46859,34.425566 1.97673,11.659999 3.96475,23.139131 4.41782,25.509191 0.45307,2.37006 0.82377,4.631145 0.82377,5.024625 0,0.39386 -4.40346,0.61447 -9.79667,0.49081 l -9.79667,-0.22462 -3.86899,-21.600006 C 99.169858,42.739996 98.108198,39.401685 95.839958,41.808185 c -0.60726,0.644286 -2.03221,3.511429 -3.16655,6.371429 -1.13434,2.86 -4.99006,12.039999 -8.56828,20.399998 -3.578215,8.360002 -6.695255,15.830002 -6.926745,16.600002 -0.36855,1.225865 -1.54488,1.400005 -9.457276,1.400005 h -9.036374 l -0.46576,-3.000005 c -0.256168,-1.65 -1.389864,-8.58 -2.519336,-15.400002 -1.129464,-6.819999 -2.50052,-15.371006 -3.046792,-19.002237 -1.702986,-11.320182 -3.043197,-10.926847 -9.689162,2.84365 -2.484171,5.14722 -7.28483,15.014603 -10.668132,21.927515 l -6.151458,12.568929 -10.152786,0.031 c -5.584033,0.0171 -10.2640328,-0.23892 -10.3999998,-0.56892 z M 134.11483,85.591839 c -0.21892,-0.570495 -0.30189,-10.571635 -0.18439,-22.224746 l 0.21365,-21.187479 10.2127,-0.223996 10.21269,-0.223997 -0.2127,22.223992 -0.21269,22.224006 -9.81561,0.22475 c -7.46753,0.17098 -9.91083,-0.0234 -10.21365,-0.81253 z M 359.34409,52.179613 V 17.779616 h 10 10 v 7.199999 c 0,4.171618 0.32995,7.2 0.78446,7.2 0.43146,0 2.68146,-1.211319 5,-2.69182 8.84214,-5.646128 18.59808,-9.674145 27.21554,-11.236705 l 3,-0.543975 v 9.049974 9.049974 l -6.6,2.341471 c -7.93343,2.814527 -18.37947,8.13244 -24.74333,12.596437 l -4.65667,3.266466 v 16.284087 16.284095 h -10 -10 z M 136.97674,37.284322 c -3.31595,-2.790191 -4.83265,-5.914829 -4.83265,-9.956056 0,-9.070237 8.81111,-14.941872 16.99181,-11.323163 9.10443,4.027324 10.1432,15.950918 1.88274,21.611081 -3.85856,2.643928 -10.69746,2.4823 -14.0419,-0.331862 z"
       id="path193" />
  </g>
</svg>
