<?xml version="1.0" encoding="UTF-8" standalone="no"?>
<!-- Created with Inkscape (http://www.inkscape.org/) -->
<svg
   xmlns:svg="http://www.w3.org/2000/svg"
   xmlns="http://www.w3.org/2000/svg"
   version="1.0"
   width="744.09448"
   height="228.5433"
   id="svg2595">
  <defs
     id="defs2597" />
  <g
     transform="translate(230.2859,-162.4601)"
     id="layer1">
    <g
       transform="translate(17.716531,17.80045)"
       id="g2617">
      <path
         d="M -122.12,247.22765 C -118.95335,250.36097 -117.2034,254.50261 -117.2034,258.90262 C -117.2034,268.09416 -124.70332,275.56915 -133.86992,275.56915 C -134.61995,275.56915 -135.45325,275.51914 -136.20321,275.44413 L -136.20321,307.72726 C -135.45325,307.76893 -134.61995,307.8022 -133.78658,307.81053 C -120.95333,307.96055 -108.78676,303.02728 -99.53688,293.91068 C -90.12025,284.61907 -84.953612,272.1858 -84.953612,258.90262 C -84.953612,232.3028 -106.87012,210.39463 -133.86992,210.04465 C -146.53649,209.8863 -158.61971,214.7529 -167.86966,223.75288 C -177.28629,233.04443 -182.61954,245.51937 -182.70289,258.89429 L -182.70289,342.00196 C -172.86961,347.7686 -162.0364,351.87691 -150.4531,353.91856 L -150.4531,258.89429 C -150.36983,249.78596 -142.95318,242.36938 -133.78658,242.36938 C -129.36997,242.36938 -125.20332,244.09439 -122.12,247.22765"
         style="fill:#a3825b;fill-rule:nonzero;stroke:none"
         id="path42" />
      <path
         d="M -133.78658,162.46164 C -187.03622,162.16167 -230.2859,205.72799 -230.2859,258.90262 C -230.2859,288.05236 -217.3693,314.11885 -196.95278,331.78536 L -196.95278,258.89429 C -196.86944,241.98607 -190.20281,226.13618 -178.36962,214.25291 C -166.45301,202.36971 -150.70313,195.8197 -133.78658,195.8197 C -117.03671,195.8197 -101.20349,202.36137 -89.286947,214.23624 C -77.453685,226.11117 -70.787062,241.9694 -70.703718,258.89429 C -70.537031,275.44413 -77.370342,291.79402 -89.453568,303.76057 C -101.53686,315.79385 -117.37002,322.28545 -133.86992,322.04382 C -134.61995,322.02716 -135.45325,322.00215 -136.20321,321.96048 L -136.20321,355.36021 C -135.45325,355.38521 -134.61995,355.39355 -133.78658,355.40188 C -79.870317,355.59357 -37.370667,311.61054 -37.370667,258.90262 C -37.370667,205.71132 -80.453656,162.76161 -133.78658,162.46164"
         style="fill:#a3825b;fill-rule:nonzero;stroke:none"
         id="path44" />
      <path
         d="M 394.95948,169.45324 C 395.04282,169.45324 387.20952,169.88656 387.20952,169.88656 L 380.0429,170.27828 C 372.87628,170.60325 371.45964,170.57825 370.62634,170.55324 L 363.37638,170.45323 L 363.45972,348.74359 L 398.12614,348.74359 C 398.12614,348.74359 398.12614,304.61894 398.12614,293.96069 C 399.62612,293.98569 401.04276,293.99403 402.54275,293.99403 C 424.87591,293.99403 442.79245,289.03568 455.79239,279.2358 C 470.79225,267.95254 478.37552,250.99431 478.37552,228.82784 C 478.37552,211.32795 472.87557,197.29475 462.12564,187.11149 C 447.87575,173.64489 425.29263,167.70329 394.95948,169.45324 z M 407.29274,198.36968 C 431.70922,198.36968 442.0425,207.55295 442.0425,229.09447 C 442.0425,255.16096 432.20921,264.85256 405.70941,264.85256 C 403.20943,264.85256 400.70946,264.83589 398.12614,264.68587 C 398.12614,255.46927 398.12614,207.96967 398.12614,198.77806 C 400.7928,198.56137 404.12608,198.36968 407.29274,198.36968"
         style="fill:#052b4c;fill-rule:evenodd;stroke:none"
         id="path46" />
      <path
         d="M 242.12726,170.54491 L 242.12726,348.74359 L 340.79325,348.74359 L 340.79325,317.74383 C 340.79325,317.74383 287.04361,317.74383 276.54372,317.74383 C 276.54372,305.86889 276.54372,170.54491 276.54372,170.54491 L 242.12726,170.54491"
         style="fill:#052b4c;fill-rule:evenodd;stroke:none"
         id="path48" />
      <path
         d="M 169.21119,170.54491 C 169.21119,170.54491 129.71144,268.9192 120.29488,292.37736 C 110.71156,268.96087 70.461922,170.54491 70.461922,170.54491 L 36.295501,170.54491 L 32.878812,348.74359 L 67.461885,348.74359 C 67.461885,348.74359 67.711916,290.569 67.878603,254.4026 C 67.878603,252.03598 66.795269,245.42769 65.9619,241.1527 L 66.295274,241.07776 C 67.128577,245.36935 68.96187,252.58598 69.545209,254.05263 C 84.128477,289.46073 108.46162,348.74359 108.46162,348.74359 L 130.21144,348.74359 C 130.21144,348.74359 154.87795,287.56903 169.37781,251.54432 C 170.12784,249.536 171.71116,242.85271 172.46112,238.55278 L 172.87778,238.61938 C 172.04447,242.92772 171.04448,249.66935 171.04448,251.89429 C 171.46113,288.70237 172.04447,348.74359 172.04447,348.74359 L 206.62754,348.74359 L 202.29428,170.54491 L 169.21119,170.54491"
         style="fill:#052b4c;fill-rule:evenodd;stroke:none"
         id="path50" />
    </g>
  </g>
</svg>
