<?xml version="1.0" encoding="utf-8"?>
<!-- Generator: Adobe Illustrator 28.1.0, SVG Export Plug-In . SVG Version: 6.00 Build 0)  -->
<svg version="1.1" id="Layer_1" xmlns="http://www.w3.org/2000/svg" xmlns:xlink="http://www.w3.org/1999/xlink" x="0px" y="0px"
	 width="238px" height="34px" viewBox="0 0 238 34" style="enable-background:new 0 0 238 34;" xml:space="preserve">
<style type="text/css">
	.st0{clip-path:url(#SVGID_00000138540393602103857900000000347314401696084131_);}
	.st1{fill-rule:evenodd;clip-rule:evenodd;fill:#ED6D00;}
	.st2{fill-rule:evenodd;clip-rule:evenodd;fill:#004A8F;}
	.st3{fill:#FFCC00;}
	.st4{fill:#D40511;}
</style>
<g>
	<defs>
		<rect id="SVGID_1_" width="238" height="33.4"/>
	</defs>
	<clipPath id="SVGID_00000018955838105349125880000004052195096857873085_">
		<use xlink:href="#SVGID_1_"  style="overflow:visible;"/>
	</clipPath>
	<g style="clip-path:url(#SVGID_00000018955838105349125880000004052195096857873085_);">
		<path d="M157.9,33.4h-0.5V0h0.5V33.4z"/>
		<path class="st1" d="M75.7,9.4h4.8v8.5l3.5-4h5.8l-4.4,4.2l4.7,7.8h-5.3l-2.5-4.8l-1.8,1.7v3.1h-4.8L75.7,9.4L75.7,9.4z
			 M95.9,17.8l-4.5-0.5c0.2-0.8,0.4-1.4,0.7-1.8c0.3-0.4,0.8-0.8,1.4-1.1c0.4-0.2,1-0.4,1.8-0.5c0.8-0.1,1.6-0.2,2.5-0.2
			c1.4,0,2.5,0.1,3.4,0.2c0.9,0.2,1.6,0.5,2.1,1c0.4,0.3,0.7,0.8,0.9,1.4c0.2,0.6,0.3,1.2,0.3,1.8v5.3c0,0.6,0,1,0.1,1.3
			c0.1,0.3,0.2,0.7,0.5,1.2h-4.4c-0.1-0.2-0.3-0.5-0.3-0.7c-0.1-0.2-0.1-0.5-0.2-0.8c-0.6,0.6-1.2,1-1.8,1.2
			c-0.8,0.3-1.8,0.5-2.9,0.5c-1.5,0-2.6-0.3-3.3-1c-0.8-0.7-1.1-1.5-1.1-2.5c0-0.9,0.3-1.7,0.8-2.2c0.5-0.6,1.6-1,3-1.3
			c1.8-0.3,2.9-0.6,3.4-0.7c0.5-0.1,1.1-0.3,1.7-0.5c0-0.6-0.1-1-0.4-1.2c-0.2-0.2-0.7-0.3-1.3-0.3c-0.8,0-1.3,0.1-1.7,0.4
			C96.3,16.9,96.1,17.3,95.9,17.8L95.9,17.8z M99.9,20.2c-0.7,0.2-1.3,0.4-2,0.6c-1,0.2-1.6,0.5-1.8,0.7c-0.3,0.2-0.4,0.5-0.4,0.9
			c0,0.4,0.1,0.7,0.4,0.9c0.3,0.2,0.6,0.3,1.1,0.3c0.5,0,1-0.1,1.5-0.4c0.5-0.2,0.8-0.6,1-0.9c0.2-0.4,0.3-0.8,0.3-1.4V20.2
			L99.9,20.2z M107.4,13.9h4.4v2c0.4-0.8,0.9-1.4,1.3-1.8c0.5-0.3,1-0.5,1.7-0.5c0.7,0,1.5,0.2,2.3,0.6l-1.5,3.3
			c-0.6-0.2-1-0.3-1.3-0.3c-0.6,0-1.1,0.2-1.4,0.7c-0.5,0.7-0.7,2-0.7,3.9v4h-4.7V13.9L107.4,13.9z M126.8,13.9h4.4v11.3l0,0.5
			c0,0.8-0.2,1.5-0.5,2.1c-0.3,0.7-0.8,1.2-1.3,1.6c-0.5,0.4-1.2,0.7-2.1,0.9c-0.8,0.2-1.8,0.3-2.9,0.3c-2.5,0-4.2-0.4-5.1-1.1
			c-0.9-0.7-1.4-1.7-1.4-2.9c0-0.1,0-0.4,0-0.6l4.6,0.5c0.1,0.4,0.3,0.7,0.5,0.9c0.3,0.2,0.8,0.3,1.3,0.3c0.7,0,1.2-0.2,1.5-0.5
			c0.3-0.4,0.5-1,0.5-1.8v-1.8c-0.5,0.5-0.9,0.9-1.4,1.2c-0.7,0.4-1.5,0.6-2.3,0.6c-1.6,0-3-0.7-4-2.1c-0.7-1-1.1-2.3-1.1-3.9
			c0-1.9,0.5-3.3,1.4-4.3s2.1-1.5,3.6-1.5c1,0,1.7,0.2,2.4,0.5c0.6,0.3,1.2,0.8,1.7,1.6C126.8,15.7,126.8,13.9,126.8,13.9z
			 M122.4,19.7c0,0.9,0.2,1.5,0.6,1.9c0.4,0.4,0.9,0.6,1.5,0.6c0.6,0,1.1-0.2,1.5-0.6c0.4-0.4,0.6-1.1,0.6-2s-0.2-1.5-0.6-2
			c-0.4-0.5-0.9-0.7-1.5-0.7c-0.6,0-1.1,0.2-1.4,0.6C122.6,18,122.4,18.7,122.4,19.7z M133.5,19.9c0-1.8,0.6-3.3,1.9-4.5
			c1.3-1.2,3-1.8,5.1-1.8c2.5,0,4.3,0.7,5.6,2.1c1,1.1,1.5,2.5,1.5,4.1c0,1.8-0.6,3.4-1.9,4.5c-1.3,1.2-3,1.8-5.2,1.8
			c-2,0-3.6-0.5-4.8-1.5C134.2,23.5,133.5,21.9,133.5,19.9L133.5,19.9z M138.2,19.9c0,1.1,0.2,1.9,0.7,2.4s1,0.8,1.7,0.8
			c0.7,0,1.2-0.3,1.7-0.8c0.4-0.5,0.7-1.3,0.7-2.4c0-1-0.2-1.8-0.7-2.3s-1-0.8-1.6-0.8c-0.7,0-1.2,0.3-1.7,0.8
			C138.4,18.1,138.2,18.9,138.2,19.9z"/>
		<path class="st2" d="M70.2,5.3c0,0-1.3-2.1-7.3-2.6c0,0-7.3-0.7-10.3,3.2c0,0-3.7,3.6-2.3,12.2c0,0,0.9,5.6,7.3,7.8h14.2V12.4H62
			v9.1c0,0-0.1,0.6-1,0.6c0,0-0.9,0-1-0.6c-0.1-0.6,0-12.8,0-12.8s0.1-3.1,4.7-2.7c0,0,3.2,0.1,5.7,2L70.2,5.3L70.2,5.3z M27.4,3.6
			H36l7.6,7.2V3.6h4v22.3h-8.7l-7-6.7v6.7h-4.5L27.4,3.6L27.4,3.6z M0,3.6v22.3h3.8v-6.1l5,4.1l6.2-6.1v8.1h9.9V3.6H17l-4.5,4.1
			L8.3,3.6H0z"/>
		<path class="st3" d="M238,10.4h-70.3v15.5H238V10.4z"/>
		<path class="st4" d="M167.7,21.1h9.5l-0.5,0.7h-9V21.1z M167.7,19.8h10.5l-0.5,0.7h-10V19.8z M167.7,22.4h8.5l-0.5,0.7h-8V22.4z
			 M238,21.8h-9.5l0.5-0.7h8.9V21.8z M238,23.1l-10.4,0l0.5-0.7h9.9V23.1z M230,19.8h8v0.7h-8.5L230,19.8z M176.9,23.1l4.5-6.1h5.6
			c0.6,0,0.6,0.2,0.3,0.6c-0.3,0.4-0.8,1.1-1.1,1.6c-0.2,0.2-0.4,0.6,0.5,0.6h7.5c-0.6,0.9-2.6,3.3-6.3,3.3
			C187.9,23.1,176.9,23.1,176.9,23.1z M202.8,19.8l-2.4,3.3h-6.5c0,0,2.4-3.3,2.4-3.3H202.8L202.8,19.8z M212.1,19.8l-2.4,3.3h-6.4
			c0,0,2.4-3.3,2.4-3.3H212.1z M214.2,19.8c0,0-0.5,0.6-0.7,1c-0.8,1.1-0.1,2.4,2.6,2.4h10.4l2.4-3.3L214.2,19.8L214.2,19.8z"/>
		<path class="st4" d="M180.1,13.2l-2.2,3h12.2c0.6,0,0.6,0.2,0.3,0.6c-0.3,0.4-0.8,1.1-1.1,1.6c-0.2,0.2-0.4,0.6,0.5,0.6h5l1.5-2
			c0.9-1.2,0.1-3.8-3.2-3.8L180.1,13.2L180.1,13.2z M212.6,19h-15.8l4.3-5.9h6.4l-2.5,3.4h2.9l2.5-3.4h6.4
			C216.9,13.2,212.6,19,212.6,19z M225.9,13.2l-4.3,5.9h-6.8c0,0,4.3-5.9,4.3-5.9L225.9,13.2L225.9,13.2z"/>
		<path d="M167.7,7.2l1.4-4.2h0.9l1.4,4.2h-0.6l-0.4-1.1h-1.8l-0.4,1.1H167.7L167.7,7.2z M169.5,3.5l-0.7,2.1h1.5L169.5,3.5
			L169.5,3.5z M177.7,7.3c-0.3,0-0.6-0.1-0.8-0.2c-0.2-0.1-0.4-0.3-0.5-0.5c-0.1-0.3-0.2-0.5-0.2-0.8V5.5c0-0.3,0.1-0.6,0.2-0.8
			c0.1-0.2,0.3-0.4,0.5-0.5c0.2-0.1,0.5-0.2,0.8-0.2s0.6,0.1,0.8,0.2c0.2,0.1,0.4,0.3,0.5,0.5c0.1,0.2,0.2,0.5,0.2,0.8v0.2
			c0,0.3-0.1,0.6-0.2,0.8c-0.1,0.2-0.3,0.4-0.5,0.5C178.3,7.2,178,7.3,177.7,7.3L177.7,7.3z M177.7,6.8c0.3,0,0.5-0.1,0.6-0.3
			c0.2-0.2,0.2-0.5,0.2-0.8V5.5c0-0.3-0.1-0.6-0.2-0.8c-0.2-0.2-0.4-0.3-0.6-0.3c-0.3,0-0.5,0.1-0.6,0.3c-0.2,0.2-0.2,0.5-0.2,0.8
			v0.2c0,0.3,0.1,0.6,0.2,0.8C177.2,6.7,177.4,6.8,177.7,6.8z M180,7.2V4h0.5v0.6c0.1-0.2,0.2-0.4,0.4-0.5s0.4-0.2,0.6-0.2
			c0.2,0,0.4,0.1,0.6,0.2c0.2,0.1,0.3,0.3,0.3,0.5c0.1-0.2,0.2-0.4,0.4-0.5C183,4,183.2,4,183.5,4c0.3,0,0.6,0.1,0.8,0.3
			c0.2,0.2,0.3,0.5,0.3,0.9v2H184V5.3c0-0.3-0.1-0.5-0.2-0.6c-0.1-0.1-0.3-0.2-0.5-0.2c-0.2,0-0.4,0.1-0.5,0.2
			c-0.1,0.1-0.2,0.2-0.3,0.4v2.2H182V5.3c0-0.3-0.1-0.5-0.2-0.6c-0.1-0.1-0.3-0.2-0.5-0.2c-0.2,0-0.4,0.1-0.5,0.2
			c-0.1,0.1-0.2,0.2-0.3,0.4v2.2H180L180,7.2z M185.5,8.4V4h0.5v0.6c0.1-0.2,0.2-0.4,0.4-0.5C186.6,4,186.8,4,187,4
			c0.2,0,0.5,0.1,0.6,0.2s0.3,0.3,0.4,0.5c0.1,0.2,0.1,0.5,0.1,0.8v0.2c0,0.3-0.1,0.6-0.1,0.8c-0.1,0.2-0.2,0.4-0.4,0.5
			c-0.2,0.1-0.4,0.2-0.6,0.2c-0.2,0-0.4-0.1-0.6-0.2c-0.2-0.1-0.3-0.3-0.4-0.4v1.8C186,8.4,185.5,8.4,185.5,8.4z M186.9,4.5
			c-0.2,0-0.3,0-0.5,0.1c-0.2,0.1-0.3,0.2-0.4,0.4v1.3c0.1,0.2,0.2,0.3,0.4,0.4c0.1,0.1,0.3,0.1,0.5,0.1c0.2,0,0.5-0.1,0.6-0.3
			c0.2-0.2,0.2-0.5,0.2-0.8V5.5c0-0.3-0.1-0.6-0.2-0.8C187.3,4.6,187.1,4.5,186.9,4.5z M189.7,7.3c-0.3,0-0.5-0.1-0.7-0.3
			c-0.2-0.2-0.3-0.4-0.3-0.7c0-0.3,0.1-0.6,0.3-0.7c0.2-0.2,0.5-0.3,0.9-0.3h0.7V5.3c0-0.5-0.3-0.8-0.8-0.8c-0.1,0-0.3,0-0.4,0.1
			c-0.1,0.1-0.3,0.1-0.4,0.2l-0.3-0.4c0.3-0.3,0.7-0.4,1.1-0.4c0.8,0,1.2,0.4,1.2,1.3v1.2c0,0.2,0.1,0.3,0.3,0.3c0,0,0.1,0,0.1,0
			v0.5c-0.1,0-0.2,0-0.3,0c-0.4,0-0.6-0.2-0.6-0.6C190.6,7.1,190.2,7.3,189.7,7.3L189.7,7.3z M189.9,6.8c0.4,0,0.7-0.2,0.9-0.5V5.8
			h-0.7c-0.2,0-0.4,0.1-0.6,0.2c-0.1,0.1-0.2,0.2-0.2,0.4c0,0.2,0.1,0.3,0.2,0.4C189.6,6.8,189.7,6.8,189.9,6.8L189.9,6.8z
			 M192.3,7.2V4h0.5v0.6c0.1-0.2,0.2-0.3,0.4-0.5c0.2-0.1,0.4-0.2,0.7-0.2c0.3,0,0.6,0.1,0.8,0.3c0.2,0.2,0.3,0.5,0.3,0.9v2h-0.5
			V5.3c0-0.3-0.1-0.5-0.2-0.6c-0.1-0.1-0.3-0.2-0.5-0.2c-0.2,0-0.4,0.1-0.5,0.2c-0.1,0.1-0.2,0.2-0.3,0.4v2.2H192.3L192.3,7.2z
			 M196.3,8.4l0.4-1.2h-0.2L195.4,4h0.6l0.9,2.7h0.1l0.9-2.7h0.6l-1.5,4.4L196.3,8.4L196.3,8.4z M201.4,7.3c-0.3,0-0.6-0.1-0.8-0.2
			c-0.2-0.1-0.4-0.3-0.5-0.5c-0.1-0.3-0.2-0.5-0.2-0.8V5.5c0-0.3,0.1-0.6,0.2-0.8c0.1-0.2,0.3-0.4,0.5-0.5c0.2-0.1,0.5-0.2,0.8-0.2
			s0.6,0.1,0.8,0.2c0.2,0.1,0.4,0.3,0.5,0.5s0.2,0.5,0.2,0.8v0.2c0,0.3-0.1,0.6-0.2,0.8c-0.1,0.2-0.3,0.4-0.5,0.5
			C201.9,7.3,201.6,7.3,201.4,7.3L201.4,7.3z M201.4,6.8c0.3,0,0.5-0.1,0.6-0.3c0.2-0.2,0.2-0.5,0.2-0.8V5.5c0-0.3-0.1-0.6-0.2-0.8
			c-0.2-0.2-0.4-0.3-0.6-0.3c-0.3,0-0.5,0.1-0.6,0.3c-0.2,0.2-0.2,0.5-0.2,0.8v0.2c0,0.3,0.1,0.6,0.2,0.8
			C200.9,6.7,201.1,6.8,201.4,6.8z M203.8,7.2V4.5h-0.5V4h0.5V3.9c0-0.4,0.1-0.7,0.3-0.9s0.4-0.3,0.8-0.3c0.1,0,0.1,0,0.2,0
			c0,0,0.1,0,0.1,0v0.5c-0.1,0-0.2,0-0.2,0c-0.2,0-0.4,0.1-0.5,0.2s-0.1,0.3-0.1,0.5V4h0.8v0.5h-0.8v2.7H203.8L203.8,7.2z
			 M174.7,7.3c-0.3,0-0.5-0.1-0.7-0.2c-0.2-0.1-0.4-0.3-0.5-0.5c-0.1-0.3-0.2-0.5-0.2-0.8V5.5c0-0.3,0.1-0.6,0.2-0.8
			c0.1-0.2,0.3-0.4,0.5-0.5c0.2-0.1,0.5-0.2,0.7-0.2c0.4,0,0.8,0.2,1.1,0.5l-0.3,0.3c-0.2-0.2-0.5-0.3-0.7-0.3
			c-0.3,0-0.5,0.1-0.6,0.3c-0.2,0.2-0.2,0.5-0.2,0.8v0.2c0,0.3,0.1,0.6,0.2,0.8c0.2,0.2,0.4,0.3,0.6,0.3c0.3,0,0.6-0.1,0.8-0.3
			l0.3,0.4C175.5,7.2,175.1,7.3,174.7,7.3L174.7,7.3z"/>
	</g>
</g>
</svg>
