<?xml version="1.0" encoding="UTF-8"?>
<!-- Generator: Adobe Illustrator 20.1.0, SVG Export Plug-In . SVG Version: 6.00 Build 0)  -->
<svg version="1.1" xmlns="http://www.w3.org/2000/svg" xmlns:xlink="http://www.w3.org/1999/xlink" x="0px" y="0px" viewBox="0 0 244.2 51.1" style="enable-background:new 0 0 244.2 51.1;" xml:space="preserve">
<style type="text/css">
	.st0{display:none;}
	.st1{display:inline;fill:#1F4C79;}
	.st2{display:inline;}
	.st3{fill:#FFFFFF;}
	.st4{fill:#1F4C79;}
</style>
<g id="HG" class="st0">
	<rect x="-21.2" y="-15.8" class="st1" width="283.5" height="106"/>
</g>
<g id="logo_x5F_schwarz" class="st0">
	<g class="st2">
		<path d="M202.1,50.7c-1.2,0-2.2-1-2.2-2.2V10.7c0-1.2,1-2.2,2.2-2.2c1.2,0,2.2,1,2.2,2.2v37.9C204.3,49.8,203.3,50.7,202.1,50.7z"/>
		<path d="M138.7,8.5l17.8,0c1.2,0,2.2,1,2.2,2.2s-1,2.2-2.2,2.2l-17.8,0L138.7,8.5z"/>
		<path d="M138.7,46.3l17.8,0c1.2,0,2.2,1,2.2,2.2c0,1.2-1,2.2-2.2,2.2l-17.8,0L138.7,46.3z"/>
		<path d="M138.7,27.4l12.9,0c1.2,0,2.2,1,2.2,2.2s-1,2.2-2.2,2.2l-12.9,0L138.7,27.4z"/>
		<g>
			<path d="M170.2,50.7c-1.2,0-2.2-0.9-2.2-2.2V10.6c0-1.2,1-2.2,2.2-2.2c1.2,0,2.2,1,2.2,2.2v40.1     C172.4,50.7,171.4,50.7,170.2,50.7z"/>
			<path d="M174.6,46.3l15.1,0c1.2,0,2.2,1,2.2,2.2s-1,2.2-2.2,2.2l-15.1,0L174.6,46.3z"/>
		</g>
		<path d="M2.2,8.5C1,8.5,0,9.4,0,10.7v20.6v1.6v15.7c0,1.2,1,2.2,2.2,2.2s2.2-1,2.2-2.2V32.8v-1.6V10.7C4.4,9.4,3.4,8.5,2.2,8.5z"/>
		<path d="M33.3,14.2L19.9,43.7L6.6,14.3v10.3l11.3,24.8c0,0,0,0,0,0c0,0.1,0.1,0.2,0.1,0.3c0,0,0,0,0,0c0,0.1,0.1,0.1,0.2,0.2    c0,0,0,0,0,0.1c0.1,0.1,0.1,0.1,0.2,0.2c0,0,0,0,0,0c0.1,0.1,0.1,0.1,0.2,0.2c0,0,0,0,0.1,0c0.1,0,0.1,0.1,0.2,0.1c0,0,0,0,0,0    c0,0,0,0,0,0c0.1,0,0.2,0.1,0.3,0.1c0,0,0,0,0.1,0c0.1,0,0.1,0,0.2,0c0,0,0,0,0.1,0c0.1,0,0.2,0,0.3,0l0,0l0,0c0.1,0,0.2,0,0.3,0    c0,0,0,0,0.1,0c0.1,0,0.1,0,0.2,0c0,0,0,0,0.1,0c0.1,0,0.2-0.1,0.3-0.1c0,0,0,0,0,0c0,0,0,0,0,0c0.1,0,0.1-0.1,0.2-0.1    c0,0,0,0,0.1,0c0.1,0,0.1-0.1,0.2-0.2c0,0,0,0,0,0c0.1-0.1,0.1-0.1,0.2-0.2c0,0,0,0,0-0.1c0.1-0.1,0.1-0.1,0.2-0.2c0,0,0,0,0,0    c0.1-0.1,0.1-0.2,0.1-0.3c0,0,0,0,0,0l11.3-24.9V14.2z"/>
		<path d="M68.3,12.6c9.4,0,17.1,7.7,17.1,17.1s-7.7,17.1-17.1,17.1S51.2,39,51.2,29.6S58.9,12.6,68.3,12.6 M68.3,8.2    c-11.9,0-21.5,9.6-21.5,21.5s9.6,21.5,21.5,21.5s21.5-9.6,21.5-21.5S80.1,8.2,68.3,8.2L68.3,8.2z M60.9,0.2    c-1.3,0-2.4,1.1-2.4,2.4S59.5,5,60.9,5c1.3,0,2.4-1.1,2.4-2.4S62.2,0.2,60.9,0.2z M60.9,0c-1.4,0-2.6,1.2-2.6,2.6s1.2,2.6,2.6,2.6    c1.4,0,2.6-1.2,2.6-2.6S62.3,0,60.9,0L60.9,0z M75.5,0c-1.4,0-2.6,1.2-2.6,2.6s1.2,2.6,2.6,2.6c1.4,0,2.6-1.2,2.6-2.6S77,0,75.5,0    z M75.5,0.2c-1.3,0-2.4,1.1-2.4,2.4S74.2,5,75.5,5C76.9,5,78,3.9,78,2.6S76.9,0.2,75.5,0.2L75.5,0.2z"/>
		<path d="M134.7,8.5c-1.8,0-2.6,1-2.6,2.2v37.9c0,1.2,1,2.2,2.2,2.2c1.2,0,2.2,0,2.2,0V8.5C136.5,8.5,135.9,8.5,134.7,8.5z"/>
		<path d="M99.5,8.5c-1.8,0-2.6,1-2.6,2.2v37.9c0,1.2,1,2.2,2.2,2.2s2.2,0,2.2,0V8.5C101.3,8.5,100.8,8.5,99.5,8.5z"/>
		<path d="M116.5,26.5c1.9-1.9,3.1-4.5,3.1-7.5c0-5.8-4.7-10.6-10.6-10.6h-5.4v4.4l5.4,0c3.4,0,6.2,2.8,6.2,6.2    c0,3.4-2.8,6.2-6.2,6.2v0h-5.5v4.4l7.4,0c4.6,0,8.4,3.8,8.4,8.4s-3.8,8.4-8.4,8.4v0l-7.4,0v4.4l7.4,0c7.1,0,12.8-5.7,12.8-12.7    C123.6,33,120.7,28.6,116.5,26.5z"/>
		<path d="M37.6,8.5c-1.2,0-2.2,1-2.2,2.2v20.6v1.6v15.7c0,1.2,1,2.2,2.2,2.2c1.2,0,2.2-1,2.2-2.2V32.8v-1.6V10.7    C39.8,9.4,38.8,8.5,37.6,8.5z"/>
		<path d="M243.8,47.5c0.7,1,0.4,2.3-0.6,2.9c-0.4,0.2-0.8,0.4-1.2,0.4c-0.1,0-0.1,0-0.2,0c-0.6,0-1.3-0.4-1.7-0.9l-27.1-38.2    c-0.7-1-0.4-2.3,0.6-2.9c0.4-0.2,0.8-0.4,1.2-0.4c0.7,0,1.4,0.3,1.8,0.9L243.8,47.5z M224.7,31.1l-11.6,16.4    c-0.7,1-0.4,2.3,0.6,2.9c0.4,0.3,0.9,0.4,1.4,0.4c0.6,0,1.3-0.4,1.7-0.9l10.7-15L224.7,31.1z M232.2,28.2l11.6-16.4    c0.7-1,0.4-2.3-0.6-2.9c-1-0.7-2.4-0.4-3.1,0.6l-10.7,15L232.2,28.2z"/>
	</g>
	<g class="st2">
		<path d="M70.2,69l-1.6,1.6V75h-1.7V62.2h1.7v6.3l5.7-6.3h2l-5,5.6l5.4,7.1h-2L70.2,69z"/>
		<path d="M77.7,70.1c0-0.9,0.2-1.8,0.5-2.5s0.9-1.3,1.5-1.7s1.4-0.6,2.2-0.6c1.3,0,2.3,0.4,3.1,1.3c0.8,0.9,1.2,2.1,1.2,3.6v0.1    c0,0.9-0.2,1.8-0.5,2.5s-0.9,1.3-1.5,1.7s-1.4,0.6-2.3,0.6c-1.3,0-2.3-0.4-3.1-1.3s-1.2-2.1-1.2-3.6V70.1z M79.3,70.3    c0,1.1,0.2,1.9,0.7,2.5c0.5,0.6,1.1,1,2,1c0.8,0,1.5-0.3,2-1c0.5-0.6,0.7-1.6,0.7-2.7c0-1-0.2-1.9-0.7-2.5c-0.5-0.6-1.2-1-2-1    c-0.8,0-1.4,0.3-1.9,1C79.6,68.2,79.3,69.1,79.3,70.3z"/>
		<path d="M94.3,72.5c0-0.4-0.2-0.8-0.5-1c-0.3-0.2-0.9-0.5-1.7-0.6c-0.8-0.2-1.5-0.4-2-0.6c-0.5-0.2-0.8-0.5-1.1-0.9    s-0.3-0.7-0.3-1.2c0-0.8,0.3-1.4,1-2c0.7-0.5,1.5-0.8,2.5-0.8c1.1,0,1.9,0.3,2.6,0.8c0.7,0.6,1,1.3,1,2.1h-1.6    c0-0.4-0.2-0.8-0.6-1.1s-0.9-0.5-1.4-0.5c-0.6,0-1.1,0.1-1.4,0.4c-0.3,0.3-0.5,0.6-0.5,1c0,0.4,0.2,0.7,0.5,0.9    c0.3,0.2,0.9,0.4,1.7,0.6c0.8,0.2,1.5,0.4,2,0.6c0.5,0.3,0.9,0.6,1.1,0.9c0.2,0.4,0.4,0.8,0.4,1.3c0,0.8-0.3,1.5-1,2    s-1.6,0.8-2.6,0.8c-0.8,0-1.4-0.1-2-0.4c-0.6-0.3-1-0.6-1.4-1.1s-0.5-1-0.5-1.6h1.6c0,0.5,0.2,1,0.7,1.3s0.9,0.5,1.6,0.5    c0.6,0,1.1-0.1,1.5-0.4C94.2,73.2,94.3,72.9,94.3,72.5z"/>
		<path d="M100.7,63.2v2.3h1.8v1.3h-1.8v5.9c0,0.4,0.1,0.7,0.2,0.9s0.4,0.3,0.8,0.3c0.2,0,0.4,0,0.8-0.1V75    c-0.4,0.1-0.8,0.2-1.2,0.2c-0.7,0-1.3-0.2-1.6-0.7s-0.6-1.1-0.6-1.9v-5.9h-1.7v-1.3h1.7v-2.3H100.7z"/>
		<path d="M105.8,62.5l-0.2,3.2h-1.1l0-4.2h1.3V62.5z"/>
		<path d="M114.1,75v-8.2h-1.5v-1.3h1.5v-1c0-1,0.3-1.8,0.8-2.4c0.5-0.6,1.3-0.8,2.3-0.8c0.4,0,0.7,0,1.1,0.1l-0.1,1.3    c-0.3-0.1-0.6-0.1-0.9-0.1c-0.5,0-0.9,0.2-1.2,0.5c-0.3,0.3-0.4,0.7-0.4,1.3v1h2v1.3h-2V75H114.1z"/>
		<path d="M125.9,75c-0.1-0.2-0.2-0.5-0.2-1c-0.8,0.8-1.7,1.2-2.7,1.2c-0.9,0-1.7-0.3-2.3-0.8s-0.9-1.2-0.9-2c0-1,0.4-1.8,1.1-2.3    c0.8-0.5,1.8-0.8,3.2-0.8h1.6v-0.7c0-0.6-0.2-1-0.5-1.4c-0.3-0.3-0.8-0.5-1.5-0.5c-0.6,0-1.1,0.1-1.5,0.4    c-0.4,0.3-0.6,0.6-0.6,1.1h-1.6c0-0.5,0.2-0.9,0.5-1.4c0.3-0.4,0.8-0.8,1.4-1c0.6-0.3,1.2-0.4,1.9-0.4c1.1,0,1.9,0.3,2.6,0.8    c0.6,0.5,0.9,1.3,1,2.3v4.4c0,0.9,0.1,1.6,0.3,2.1V75H125.9z M123.2,73.7c0.5,0,1-0.1,1.4-0.4c0.5-0.3,0.8-0.6,1-1v-1.9h-1.3    c-2,0-3,0.6-3,1.7c0,0.5,0.2,0.9,0.5,1.2C122.2,73.6,122.6,73.7,123.2,73.7z"/>
		<path d="M135.7,72.5c0-0.4-0.2-0.8-0.5-1c-0.3-0.2-0.9-0.5-1.7-0.6c-0.8-0.2-1.5-0.4-2-0.6c-0.5-0.2-0.8-0.5-1.1-0.9    c-0.2-0.3-0.3-0.7-0.3-1.2c0-0.8,0.3-1.4,1-2c0.7-0.5,1.5-0.8,2.5-0.8c1.1,0,1.9,0.3,2.6,0.8c0.7,0.6,1,1.3,1,2.1h-1.6    c0-0.4-0.2-0.8-0.6-1.1s-0.9-0.5-1.4-0.5c-0.6,0-1.1,0.1-1.4,0.4c-0.3,0.3-0.5,0.6-0.5,1c0,0.4,0.2,0.7,0.5,0.9    c0.3,0.2,0.9,0.4,1.7,0.6c0.8,0.2,1.5,0.4,2,0.6c0.5,0.3,0.9,0.6,1.1,0.9s0.4,0.8,0.4,1.3c0,0.8-0.3,1.5-1,2    c-0.7,0.5-1.6,0.8-2.6,0.8c-0.8,0-1.4-0.1-2-0.4c-0.6-0.3-1-0.6-1.4-1.1s-0.5-1-0.5-1.6h1.6c0,0.5,0.2,1,0.7,1.3s0.9,0.5,1.6,0.5    c0.6,0,1.1-0.1,1.5-0.4C135.6,73.2,135.7,72.9,135.7,72.5z"/>
		<path d="M142.1,63.2v2.3h1.8v1.3h-1.8v5.9c0,0.4,0.1,0.7,0.2,0.9c0.2,0.2,0.4,0.3,0.8,0.3c0.2,0,0.4,0,0.8-0.1V75    c-0.4,0.1-0.8,0.2-1.2,0.2c-0.7,0-1.3-0.2-1.6-0.7s-0.6-1.1-0.6-1.9v-5.9h-1.7v-1.3h1.7v-2.3H142.1z"/>
		<path d="M152.7,65.5l0.1,1.2c0.7-0.9,1.7-1.4,2.8-1.4c2,0,3,1.1,3,3.4V75H157v-6.3c0-0.7-0.2-1.2-0.5-1.5s-0.8-0.5-1.4-0.5    c-0.5,0-1,0.1-1.4,0.4c-0.4,0.3-0.7,0.6-0.9,1.1V75h-1.6v-9.5H152.7z"/>
		<path d="M161.5,63c0-0.3,0.1-0.5,0.2-0.7c0.2-0.2,0.4-0.3,0.7-0.3s0.6,0.1,0.7,0.3c0.2,0.2,0.2,0.4,0.2,0.7s-0.1,0.5-0.2,0.7    c-0.2,0.2-0.4,0.3-0.7,0.3s-0.6-0.1-0.7-0.3C161.6,63.4,161.5,63.2,161.5,63z M163.2,75h-1.6v-9.5h1.6V75z"/>
		<path d="M169.5,68.9l2.1-3.5h1.9l-3.1,4.7l3.2,4.8h-1.9l-2.2-3.6l-2.2,3.6h-1.9l3.2-4.8l-3.1-4.7h1.9L169.5,68.9z"/>
		<path d="M175.8,74.1c0-0.3,0.1-0.5,0.2-0.7s0.4-0.3,0.7-0.3c0.3,0,0.6,0.1,0.7,0.3c0.2,0.2,0.2,0.4,0.2,0.7s-0.1,0.5-0.2,0.7    c-0.2,0.2-0.4,0.3-0.7,0.3c-0.3,0-0.6-0.1-0.7-0.3C175.9,74.6,175.8,74.4,175.8,74.1z M177.5,71.4H176l-0.1-9.1h1.7L177.5,71.4z"/>
	</g>
</g>
<g id="logo_x5F_weiss" class="st0">
	<g class="st2">
		<path class="st3" d="M202.1,50.7c-1.2,0-2.2-1-2.2-2.2V10.7c0-1.2,1-2.2,2.2-2.2c1.2,0,2.2,1,2.2,2.2v37.9    C204.3,49.8,203.3,50.7,202.1,50.7z"/>
		<path class="st3" d="M138.7,8.5l17.8,0c1.2,0,2.2,1,2.2,2.2s-1,2.2-2.2,2.2l-17.8,0L138.7,8.5z"/>
		<path class="st3" d="M138.7,46.3l17.8,0c1.2,0,2.2,1,2.2,2.2c0,1.2-1,2.2-2.2,2.2l-17.8,0L138.7,46.3z"/>
		<path class="st3" d="M138.7,27.4l12.9,0c1.2,0,2.2,1,2.2,2.2s-1,2.2-2.2,2.2l-12.9,0L138.7,27.4z"/>
		<g>
			<path class="st3" d="M170.2,50.7c-1.2,0-2.2-0.9-2.2-2.2V10.6c0-1.2,1-2.2,2.2-2.2c1.2,0,2.2,1,2.2,2.2v40.1     C172.4,50.7,171.4,50.7,170.2,50.7z"/>
			<path class="st3" d="M174.6,46.3l15.1,0c1.2,0,2.2,1,2.2,2.2s-1,2.2-2.2,2.2l-15.1,0L174.6,46.3z"/>
		</g>
		<path class="st3" d="M2.2,8.5C1,8.5,0,9.4,0,10.7v20.6v1.6v15.7c0,1.2,1,2.2,2.2,2.2s2.2-1,2.2-2.2V32.8v-1.6V10.7    C4.4,9.4,3.4,8.5,2.2,8.5z"/>
		<path class="st3" d="M33.3,14.2L19.9,43.7L6.6,14.3v10.3l11.3,24.8c0,0,0,0,0,0c0,0.1,0.1,0.2,0.1,0.3c0,0,0,0,0,0    c0,0.1,0.1,0.1,0.2,0.2c0,0,0,0,0,0.1c0.1,0.1,0.1,0.1,0.2,0.2c0,0,0,0,0,0c0.1,0.1,0.1,0.1,0.2,0.2c0,0,0,0,0.1,0    c0.1,0,0.1,0.1,0.2,0.1c0,0,0,0,0,0c0,0,0,0,0,0c0.1,0,0.2,0.1,0.3,0.1c0,0,0,0,0.1,0c0.1,0,0.1,0,0.2,0c0,0,0,0,0.1,0    c0.1,0,0.2,0,0.3,0l0,0l0,0c0.1,0,0.2,0,0.3,0c0,0,0,0,0.1,0c0.1,0,0.1,0,0.2,0c0,0,0,0,0.1,0c0.1,0,0.2-0.1,0.3-0.1c0,0,0,0,0,0    c0,0,0,0,0,0c0.1,0,0.1-0.1,0.2-0.1c0,0,0,0,0.1,0c0.1,0,0.1-0.1,0.2-0.2c0,0,0,0,0,0c0.1-0.1,0.1-0.1,0.2-0.2c0,0,0,0,0-0.1    c0.1-0.1,0.1-0.1,0.2-0.2c0,0,0,0,0,0c0.1-0.1,0.1-0.2,0.1-0.3c0,0,0,0,0,0l11.3-24.9V14.2z"/>
		<path class="st3" d="M68.3,12.6c9.4,0,17.1,7.7,17.1,17.1s-7.7,17.1-17.1,17.1S51.2,39,51.2,29.6S58.9,12.6,68.3,12.6 M68.3,8.2    c-11.9,0-21.5,9.6-21.5,21.5s9.6,21.5,21.5,21.5s21.5-9.6,21.5-21.5S80.1,8.2,68.3,8.2L68.3,8.2z M60.9,0.2    c-1.3,0-2.4,1.1-2.4,2.4S59.5,5,60.9,5c1.3,0,2.4-1.1,2.4-2.4S62.2,0.2,60.9,0.2z M60.9,0c-1.4,0-2.6,1.2-2.6,2.6s1.2,2.6,2.6,2.6    c1.4,0,2.6-1.2,2.6-2.6S62.3,0,60.9,0L60.9,0z M75.5,0c-1.4,0-2.6,1.2-2.6,2.6s1.2,2.6,2.6,2.6c1.4,0,2.6-1.2,2.6-2.6S77,0,75.5,0    z M75.5,0.2c-1.3,0-2.4,1.1-2.4,2.4S74.2,5,75.5,5C76.9,5,78,3.9,78,2.6S76.9,0.2,75.5,0.2L75.5,0.2z"/>
		<path class="st3" d="M134.7,8.5c-1.8,0-2.6,1-2.6,2.2v37.9c0,1.2,1,2.2,2.2,2.2c1.2,0,2.2,0,2.2,0V8.5    C136.5,8.5,135.9,8.5,134.7,8.5z"/>
		<path class="st3" d="M99.5,8.5c-1.8,0-2.6,1-2.6,2.2v37.9c0,1.2,1,2.2,2.2,2.2s2.2,0,2.2,0V8.5C101.3,8.5,100.8,8.5,99.5,8.5z"/>
		<path class="st3" d="M116.5,26.5c1.9-1.9,3.1-4.5,3.1-7.5c0-5.8-4.7-10.6-10.6-10.6h-5.4v4.4l5.4,0c3.4,0,6.2,2.8,6.2,6.2    c0,3.4-2.8,6.2-6.2,6.2v0h-5.5v4.4l7.4,0c4.6,0,8.4,3.8,8.4,8.4s-3.8,8.4-8.4,8.4v0l-7.4,0v4.4l7.4,0c7.1,0,12.8-5.7,12.8-12.7    C123.6,33,120.7,28.6,116.5,26.5z"/>
		<path class="st3" d="M37.6,8.5c-1.2,0-2.2,1-2.2,2.2v20.6v1.6v15.7c0,1.2,1,2.2,2.2,2.2c1.2,0,2.2-1,2.2-2.2V32.8v-1.6V10.7    C39.8,9.4,38.8,8.5,37.6,8.5z"/>
		<path class="st3" d="M243.8,47.5c0.7,1,0.4,2.3-0.6,2.9c-0.4,0.2-0.8,0.4-1.2,0.4c-0.1,0-0.1,0-0.2,0c-0.6,0-1.3-0.4-1.7-0.9    l-27.1-38.2c-0.7-1-0.4-2.3,0.6-2.9c0.4-0.2,0.8-0.4,1.2-0.4c0.7,0,1.4,0.3,1.8,0.9L243.8,47.5z M224.7,31.1l-11.6,16.4    c-0.7,1-0.4,2.3,0.6,2.9c0.4,0.3,0.9,0.4,1.4,0.4c0.6,0,1.3-0.4,1.7-0.9l10.7-15L224.7,31.1z M232.2,28.2l11.6-16.4    c0.7-1,0.4-2.3-0.6-2.9c-1-0.7-2.4-0.4-3.1,0.6l-10.7,15L232.2,28.2z"/>
	</g>
	<g class="st2">
		<path class="st3" d="M70.2,69l-1.6,1.6V75h-1.7V62.2h1.7v6.3l5.7-6.3h2l-5,5.6l5.4,7.1h-2L70.2,69z"/>
		<path class="st3" d="M77.7,70.1c0-0.9,0.2-1.8,0.5-2.5s0.9-1.3,1.5-1.7s1.4-0.6,2.2-0.6c1.3,0,2.3,0.4,3.1,1.3    c0.8,0.9,1.2,2.1,1.2,3.6v0.1c0,0.9-0.2,1.8-0.5,2.5s-0.9,1.3-1.5,1.7s-1.4,0.6-2.3,0.6c-1.3,0-2.3-0.4-3.1-1.3s-1.2-2.1-1.2-3.6    V70.1z M79.3,70.3c0,1.1,0.2,1.9,0.7,2.5c0.5,0.6,1.1,1,2,1c0.8,0,1.5-0.3,2-1c0.5-0.6,0.7-1.6,0.7-2.7c0-1-0.2-1.9-0.7-2.5    c-0.5-0.6-1.2-1-2-1c-0.8,0-1.4,0.3-1.9,1C79.6,68.2,79.3,69.1,79.3,70.3z"/>
		<path class="st3" d="M94.3,72.5c0-0.4-0.2-0.8-0.5-1c-0.3-0.2-0.9-0.5-1.7-0.6c-0.8-0.2-1.5-0.4-2-0.6c-0.5-0.2-0.8-0.5-1.1-0.9    s-0.3-0.7-0.3-1.2c0-0.8,0.3-1.4,1-2c0.7-0.5,1.5-0.8,2.5-0.8c1.1,0,1.9,0.3,2.6,0.8c0.7,0.6,1,1.3,1,2.1h-1.6    c0-0.4-0.2-0.8-0.6-1.1s-0.9-0.5-1.4-0.5c-0.6,0-1.1,0.1-1.4,0.4c-0.3,0.3-0.5,0.6-0.5,1c0,0.4,0.2,0.7,0.5,0.9    c0.3,0.2,0.9,0.4,1.7,0.6c0.8,0.2,1.5,0.4,2,0.6c0.5,0.3,0.9,0.6,1.1,0.9c0.2,0.4,0.4,0.8,0.4,1.3c0,0.8-0.3,1.5-1,2    s-1.6,0.8-2.6,0.8c-0.8,0-1.4-0.1-2-0.4c-0.6-0.3-1-0.6-1.4-1.1s-0.5-1-0.5-1.6h1.6c0,0.5,0.2,1,0.7,1.3s0.9,0.5,1.6,0.5    c0.6,0,1.1-0.1,1.5-0.4C94.2,73.2,94.3,72.9,94.3,72.5z"/>
		<path class="st3" d="M100.7,63.2v2.3h1.8v1.3h-1.8v5.9c0,0.4,0.1,0.7,0.2,0.9s0.4,0.3,0.8,0.3c0.2,0,0.4,0,0.8-0.1V75    c-0.4,0.1-0.8,0.2-1.2,0.2c-0.7,0-1.3-0.2-1.6-0.7s-0.6-1.1-0.6-1.9v-5.9h-1.7v-1.3h1.7v-2.3H100.7z"/>
		<path class="st3" d="M105.8,62.5l-0.2,3.2h-1.1l0-4.2h1.3V62.5z"/>
		<path class="st3" d="M114.1,75v-8.2h-1.5v-1.3h1.5v-1c0-1,0.3-1.8,0.8-2.4c0.5-0.6,1.3-0.8,2.3-0.8c0.4,0,0.7,0,1.1,0.1l-0.1,1.3    c-0.3-0.1-0.6-0.1-0.9-0.1c-0.5,0-0.9,0.2-1.2,0.5c-0.3,0.3-0.4,0.7-0.4,1.3v1h2v1.3h-2V75H114.1z"/>
		<path class="st3" d="M125.9,75c-0.1-0.2-0.2-0.5-0.2-1c-0.8,0.8-1.7,1.2-2.7,1.2c-0.9,0-1.7-0.3-2.3-0.8s-0.9-1.2-0.9-2    c0-1,0.4-1.8,1.1-2.3c0.8-0.5,1.8-0.8,3.2-0.8h1.6v-0.7c0-0.6-0.2-1-0.5-1.4c-0.3-0.3-0.8-0.5-1.5-0.5c-0.6,0-1.1,0.1-1.5,0.4    c-0.4,0.3-0.6,0.6-0.6,1.1h-1.6c0-0.5,0.2-0.9,0.5-1.4c0.3-0.4,0.8-0.8,1.4-1c0.6-0.3,1.2-0.4,1.9-0.4c1.1,0,1.9,0.3,2.6,0.8    c0.6,0.5,0.9,1.3,1,2.3v4.4c0,0.9,0.1,1.6,0.3,2.1V75H125.9z M123.2,73.7c0.5,0,1-0.1,1.4-0.4c0.5-0.3,0.8-0.6,1-1v-1.9h-1.3    c-2,0-3,0.6-3,1.7c0,0.5,0.2,0.9,0.5,1.2C122.2,73.6,122.6,73.7,123.2,73.7z"/>
		<path class="st3" d="M135.7,72.5c0-0.4-0.2-0.8-0.5-1c-0.3-0.2-0.9-0.5-1.7-0.6c-0.8-0.2-1.5-0.4-2-0.6c-0.5-0.2-0.8-0.5-1.1-0.9    c-0.2-0.3-0.3-0.7-0.3-1.2c0-0.8,0.3-1.4,1-2c0.7-0.5,1.5-0.8,2.5-0.8c1.1,0,1.9,0.3,2.6,0.8c0.7,0.6,1,1.3,1,2.1h-1.6    c0-0.4-0.2-0.8-0.6-1.1s-0.9-0.5-1.4-0.5c-0.6,0-1.1,0.1-1.4,0.4c-0.3,0.3-0.5,0.6-0.5,1c0,0.4,0.2,0.7,0.5,0.9    c0.3,0.2,0.9,0.4,1.7,0.6c0.8,0.2,1.5,0.4,2,0.6c0.5,0.3,0.9,0.6,1.1,0.9s0.4,0.8,0.4,1.3c0,0.8-0.3,1.5-1,2    c-0.7,0.5-1.6,0.8-2.6,0.8c-0.8,0-1.4-0.1-2-0.4c-0.6-0.3-1-0.6-1.4-1.1s-0.5-1-0.5-1.6h1.6c0,0.5,0.2,1,0.7,1.3s0.9,0.5,1.6,0.5    c0.6,0,1.1-0.1,1.5-0.4C135.6,73.2,135.7,72.9,135.7,72.5z"/>
		<path class="st3" d="M142.1,63.2v2.3h1.8v1.3h-1.8v5.9c0,0.4,0.1,0.7,0.2,0.9c0.2,0.2,0.4,0.3,0.8,0.3c0.2,0,0.4,0,0.8-0.1V75    c-0.4,0.1-0.8,0.2-1.2,0.2c-0.7,0-1.3-0.2-1.6-0.7s-0.6-1.1-0.6-1.9v-5.9h-1.7v-1.3h1.7v-2.3H142.1z"/>
		<path class="st3" d="M152.7,65.5l0.1,1.2c0.7-0.9,1.7-1.4,2.8-1.4c2,0,3,1.1,3,3.4V75H157v-6.3c0-0.7-0.2-1.2-0.5-1.5    s-0.8-0.5-1.4-0.5c-0.5,0-1,0.1-1.4,0.4c-0.4,0.3-0.7,0.6-0.9,1.1V75h-1.6v-9.5H152.7z"/>
		<path class="st3" d="M161.5,63c0-0.3,0.1-0.5,0.2-0.7c0.2-0.2,0.4-0.3,0.7-0.3s0.6,0.1,0.7,0.3c0.2,0.2,0.2,0.4,0.2,0.7    s-0.1,0.5-0.2,0.7c-0.2,0.2-0.4,0.3-0.7,0.3s-0.6-0.1-0.7-0.3C161.6,63.4,161.5,63.2,161.5,63z M163.2,75h-1.6v-9.5h1.6V75z"/>
		<path class="st3" d="M169.5,68.9l2.1-3.5h1.9l-3.1,4.7l3.2,4.8h-1.9l-2.2-3.6l-2.2,3.6h-1.9l3.2-4.8l-3.1-4.7h1.9L169.5,68.9z"/>
		<path class="st3" d="M175.8,74.1c0-0.3,0.1-0.5,0.2-0.7s0.4-0.3,0.7-0.3c0.3,0,0.6,0.1,0.7,0.3c0.2,0.2,0.2,0.4,0.2,0.7    s-0.1,0.5-0.2,0.7c-0.2,0.2-0.4,0.3-0.7,0.3c-0.3,0-0.6-0.1-0.7-0.3C175.9,74.6,175.8,74.4,175.8,74.1z M177.5,71.4H176l-0.1-9.1    h1.7L177.5,71.4z"/>
	</g>
</g>
<g id="logo_x5F_blau">
	<g>
		<path class="st4" d="M202.1,50.7c-1.2,0-2.2-1-2.2-2.2V10.7c0-1.2,1-2.2,2.2-2.2c1.2,0,2.2,1,2.2,2.2v37.9    C204.3,49.8,203.3,50.7,202.1,50.7z"/>
		<path class="st4" d="M138.7,8.5l17.8,0c1.2,0,2.2,1,2.2,2.2s-1,2.2-2.2,2.2l-17.8,0L138.7,8.5z"/>
		<path class="st4" d="M138.7,46.3l17.8,0c1.2,0,2.2,1,2.2,2.2c0,1.2-1,2.2-2.2,2.2l-17.8,0L138.7,46.3z"/>
		<path class="st4" d="M138.7,27.4l12.9,0c1.2,0,2.2,1,2.2,2.2s-1,2.2-2.2,2.2l-12.9,0L138.7,27.4z"/>
		<g>
			<path class="st4" d="M170.2,50.7c-1.2,0-2.2-0.9-2.2-2.2V10.6c0-1.2,1-2.2,2.2-2.2c1.2,0,2.2,1,2.2,2.2v40.1     C172.4,50.7,171.4,50.7,170.2,50.7z"/>
			<path class="st4" d="M174.6,46.3l15.1,0c1.2,0,2.2,1,2.2,2.2s-1,2.2-2.2,2.2l-15.1,0L174.6,46.3z"/>
		</g>
		<path class="st4" d="M2.2,8.5C1,8.5,0,9.4,0,10.7v20.6v1.6v15.7c0,1.2,1,2.2,2.2,2.2s2.2-1,2.2-2.2V32.8v-1.6V10.7    C4.4,9.4,3.4,8.5,2.2,8.5z"/>
		<path class="st4" d="M33.3,14.2L19.9,43.7L6.6,14.3v10.3l11.3,24.8c0,0,0,0,0,0c0,0.1,0.1,0.2,0.1,0.3c0,0,0,0,0,0    c0,0.1,0.1,0.1,0.2,0.2c0,0,0,0,0,0.1c0.1,0.1,0.1,0.1,0.2,0.2c0,0,0,0,0,0c0.1,0.1,0.1,0.1,0.2,0.2c0,0,0,0,0.1,0    c0.1,0,0.1,0.1,0.2,0.1c0,0,0,0,0,0c0,0,0,0,0,0c0.1,0,0.2,0.1,0.3,0.1c0,0,0,0,0.1,0c0.1,0,0.1,0,0.2,0c0,0,0,0,0.1,0    c0.1,0,0.2,0,0.3,0l0,0l0,0c0.1,0,0.2,0,0.3,0c0,0,0,0,0.1,0c0.1,0,0.1,0,0.2,0c0,0,0,0,0.1,0c0.1,0,0.2-0.1,0.3-0.1c0,0,0,0,0,0    c0,0,0,0,0,0c0.1,0,0.1-0.1,0.2-0.1c0,0,0,0,0.1,0c0.1,0,0.1-0.1,0.2-0.2c0,0,0,0,0,0c0.1-0.1,0.1-0.1,0.2-0.2c0,0,0,0,0-0.1    c0.1-0.1,0.1-0.1,0.2-0.2c0,0,0,0,0,0c0.1-0.1,0.1-0.2,0.1-0.3c0,0,0,0,0,0l11.3-24.9V14.2z"/>
		<path class="st4" d="M68.3,12.6c9.4,0,17.1,7.7,17.1,17.1s-7.7,17.1-17.1,17.1S51.2,39,51.2,29.6S58.9,12.6,68.3,12.6 M68.3,8.2    c-11.9,0-21.5,9.6-21.5,21.5s9.6,21.5,21.5,21.5s21.5-9.6,21.5-21.5S80.1,8.2,68.3,8.2L68.3,8.2z M60.9,0.2    c-1.3,0-2.4,1.1-2.4,2.4S59.5,5,60.9,5c1.3,0,2.4-1.1,2.4-2.4S62.2,0.2,60.9,0.2z M60.9,0c-1.4,0-2.6,1.2-2.6,2.6s1.2,2.6,2.6,2.6    c1.4,0,2.6-1.2,2.6-2.6S62.3,0,60.9,0L60.9,0z M75.5,0c-1.4,0-2.6,1.2-2.6,2.6s1.2,2.6,2.6,2.6c1.4,0,2.6-1.2,2.6-2.6S77,0,75.5,0    z M75.5,0.2c-1.3,0-2.4,1.1-2.4,2.4S74.2,5,75.5,5C76.9,5,78,3.9,78,2.6S76.9,0.2,75.5,0.2L75.5,0.2z"/>
		<path class="st4" d="M134.7,8.5c-1.8,0-2.6,1-2.6,2.2v37.9c0,1.2,1,2.2,2.2,2.2c1.2,0,2.2,0,2.2,0V8.5    C136.5,8.5,135.9,8.5,134.7,8.5z"/>
		<path class="st4" d="M99.5,8.5c-1.8,0-2.6,1-2.6,2.2v37.9c0,1.2,1,2.2,2.2,2.2s2.2,0,2.2,0V8.5C101.3,8.5,100.8,8.5,99.5,8.5z"/>
		<path class="st4" d="M116.5,26.5c1.9-1.9,3.1-4.5,3.1-7.5c0-5.8-4.7-10.6-10.6-10.6h-5.4v4.4l5.4,0c3.4,0,6.2,2.8,6.2,6.2    c0,3.4-2.8,6.2-6.2,6.2v0h-5.5v4.4l7.4,0c4.6,0,8.4,3.8,8.4,8.4s-3.8,8.4-8.4,8.4v0l-7.4,0v4.4l7.4,0c7.1,0,12.8-5.7,12.8-12.7    C123.6,33,120.7,28.6,116.5,26.5z"/>
		<path class="st4" d="M37.6,8.5c-1.2,0-2.2,1-2.2,2.2v20.6v1.6v15.7c0,1.2,1,2.2,2.2,2.2c1.2,0,2.2-1,2.2-2.2V32.8v-1.6V10.7    C39.8,9.4,38.8,8.5,37.6,8.5z"/>
		<path class="st4" d="M243.8,47.5c0.7,1,0.4,2.3-0.6,2.9c-0.4,0.2-0.8,0.4-1.2,0.4c-0.1,0-0.1,0-0.2,0c-0.6,0-1.3-0.4-1.7-0.9    l-27.1-38.2c-0.7-1-0.4-2.3,0.6-2.9c0.4-0.2,0.8-0.4,1.2-0.4c0.7,0,1.4,0.3,1.8,0.9L243.8,47.5z M224.7,31.1l-11.6,16.4    c-0.7,1-0.4,2.3,0.6,2.9c0.4,0.3,0.9,0.4,1.4,0.4c0.6,0,1.3-0.4,1.7-0.9l10.7-15L224.7,31.1z M232.2,28.2l11.6-16.4    c0.7-1,0.4-2.3-0.6-2.9c-1-0.7-2.4-0.4-3.1,0.6l-10.7,15L232.2,28.2z"/>
	</g>
</g>
</svg>