<?xml version="1.0" encoding="utf-8"?>
<!-- Generator: Adobe Illustrator 24.3.0, SVG Export Plug-In . SVG Version: 6.00 Build 0)  -->
<svg version="1.1" id="Livello_1" xmlns="http://www.w3.org/2000/svg" xmlns:xlink="http://www.w3.org/1999/xlink" x="0px" y="0px"
	 viewBox="0 0 354.33 85.04" style="enable-background:new 0 0 354.33 85.04;" xml:space="preserve">
<g>
	<path d="M47.02,8.44c0.57-1.52,1.09-2.97,1.09-4.46V3.92h12.45v0.21c-1.73,0.48-2.22,2.6-2.22,4.22l4.74,35.21
		c0.43,3.35,0.79,5.28,3.65,7.3v0.21H52.86v-0.21c2.51-0.78,2.96-2.94,2.96-5.36l-4.11-34.56L35.62,52
		c-3.61-2.71-4.6-4.67-6.34-8.67L15.6,11l-4.12,30.82c-0.56,4.38-1.07,7.54,2.33,9.03v0.21H2.06v-0.21
		c3.05-2.65,3.46-6.17,4.04-10.03l4.09-30.03c0.31-2.01,1.08-4.88-2.22-6.67V3.92h12.61v0.07c0,1.15,0.59,2.22,1.01,3.24L35.1,38.82
		L47.02,8.44z"/>
	<path d="M97.65,2.69C82.58,2.34,70.7,13.72,70.7,27.33c0,14.69,12.03,24.86,26.26,24.86c14.28,0,26.44-10.6,26.44-25.21
		C123.4,14.09,112.76,2.62,97.65,2.69 M97.18,7.84c11.34,0,18.02,10.11,18.02,20.56c0,10.68-6.97,18.65-17.9,18.65
		c-11.27,0-18.38-10.33-18.38-20.36C78.91,15.86,86.02,7.84,97.18,7.84"/>
	<path d="M138.82,41.75c0,4.01-0.05,6.89,3.74,9.1v0.21h-12.73v-0.21c3.82-2.22,3.82-5.09,3.82-9.1V13.18c0-4.03,0-6.92-3.73-9.06
		V3.92h10.5v0.07c0.27,0.87,0.58,1.22,1.07,1.81l1,1.42l26.33,33.09V13.18c0-4.03,0.06-6.92-3.74-9.06V3.92h12.66v0.21
		c-3.76,2.14-3.76,5.02-3.76,9.06v40.19c-5.1-1.71-7.35-4.08-10.48-8.16l-24.69-31.18V41.75z"/>
	<path d="M221.4,12.81c-3.95-2.49-8.56-4.05-13.29-4.05c-9.92,0-16.83,7.22-16.83,17.6c0,10.53,7.19,19.91,18.26,19.91
		c5.4,0,10.79-1.94,15.32-4.52h0.22l-3.67,8.31c-3.36,1.55-7.1,2.13-10.84,2.13c-16.98,0-27.47-9.44-27.47-24.77
		c0-14.81,10.49-24.62,25.24-24.62c4.37,0,8.83,0.78,13.07,1.8V12.81z"/>
	<path d="M250.51,45.91c4.89,0.29,9.13-1.35,12.72-4.37h0.22l-3.76,9.52h-29.51v-0.21c3.68-1.29,3.23-6.57,3.23-9.82V14.02
		c0-3.31,0.45-8.55-3.23-9.9V3.92h13.71v0.21c-3.66,1.35-3.15,6.67-3.15,9.9v31.24L250.51,45.91z"/>
	<path d="M280.49,45.09l9.13,0.88c4.75,0.42,9.71-1.08,13.32-4.22h0.2l-3.25,9.39h-29.95v-0.22c3.69-1.3,3.25-6.59,3.25-9.82V14.07
		c0-3.28,0.44-8.51-3.25-9.88V3.97h23c1.23,0,2.44,0.13,3.37-0.35h0.23v8.38h-0.23c-2.22-2.58-5.17-2.85-8.46-2.85
		c-2.53,0-5.05,0.05-7.34,0.49v13.32h8.55c1.17,0,2.32,0,3.18-0.42h0.22v7.6h-0.22c-1.15-2.09-4.18-2.03-6.39-2.03h-5.33V45.09z"/>
	<path d="M326.56,3.93c9.7,0,14.93,5.05,14.93,11.56c0,6.31-5.52,11.26-11.43,12.61l10.36,12.99c3.01,3.72,7.53,7.44,11.64,10.02
		h-6.61c-3.82,0-6.17-0.93-8.32-3.58l-8.83-10.84l-6.65-10.09c5.8-0.87,12.51-3.51,12.51-10.27c0-5.13-4.46-8.15-9.34-7.93
		c-1.66,0.07-3.26,0.3-4.9,0.58v32.06c0,3.32-0.42,8.53,3.24,9.82v0.21h-13.71v-0.21c3.66-1.29,3.18-6.57,3.18-9.82V14.02
		c0-3.31,0.48-8.55-3.18-9.9V3.92L326.56,3.93z"/>
	<path d="M203.47,73.28c1.43,0,2.51,0.81,2.51,2.28c0,1.47-1.08,2.26-2.51,2.26h-1.89v-4.54H203.47z M199.77,83.47h1.8v-4.08h1.89
		c2.51,0,4.31-1.47,4.31-3.83c0-2.38-1.8-3.87-4.31-3.87h-3.69V83.47z M191.63,83.65c2.54,0,4.19-1.82,4.19-4.24v-7.72h-1.8v7.72
		c0,1.54-0.9,2.65-2.39,2.65c-1.47,0-2.37-1.11-2.37-2.65v-7.72h-1.8v7.72C187.46,81.83,189.11,83.65,191.63,83.65 M178.12,82.06
		c-2.37,0-4.31-2-4.31-4.49c0-2.49,1.94-4.47,4.31-4.47c2.39,0,4.35,1.98,4.35,4.47C182.47,80.06,180.51,82.06,178.12,82.06
		 M178.12,83.65c3.45,0,6.15-2.67,6.15-6.08c0-3.41-2.7-6.06-6.15-6.06c-3.43,0-6.11,2.65-6.11,6.06
		C172.01,80.98,174.7,83.65,178.12,83.65 M165.17,73.26c1.47,0,2.54,0.83,2.54,2.3c0,1.5-1.08,2.3-2.54,2.3h-1.89v-4.59H165.17z
		 M161.52,83.47h1.77v-4.1h0.88l3.32,4.1h2.12l-3.39-4.19c1.96-0.34,3.29-1.7,3.29-3.73c0-2.37-1.8-3.87-4.33-3.87h-3.66V83.47z
		 M152.74,83.65c2.76,0,4.51-1.45,5.28-2.9v-3.75h-5.23v1.56h3.48v1.64c-0.48,0.9-1.63,1.86-3.53,1.86c-2.37,0-4.31-1.98-4.31-4.49
		c0-2.49,1.98-4.47,4.43-4.47c1.61,0,2.9,0.67,3.94,1.91l0.21-1.93c-0.99-0.95-2.4-1.57-4.2-1.57c-3.48,0-6.19,2.65-6.19,6.06
		C146.62,80.98,149.31,83.65,152.74,83.65"/>
</g>
</svg>
