<?xml version="1.0" encoding="UTF-8" standalone="no"?>
<svg
   version="1.0"
   width="1907.000000pt"
   height="1906.000000pt"
   viewBox="0 0 1907.000000 1906.000000"
   preserveAspectRatio="xMidYMid meet"
   id="svg12463"
   sodipodi:docname="Muhammadiyah.svg"
   inkscape:version="1.1 (c68e22c387, 2021-05-23)"
   xmlns:inkscape="http://www.inkscape.org/namespaces/inkscape"
   xmlns:sodipodi="http://sodipodi.sourceforge.net/DTD/sodipodi-0.dtd"
   xmlns="http://www.w3.org/2000/svg"
   xmlns:svg="http://www.w3.org/2000/svg">
  <defs
     id="defs12467" />
  <sodipodi:namedview
     id="namedview12465"
     pagecolor="#ffffff"
     bordercolor="#666666"
     borderopacity="1.0"
     inkscape:pageshadow="2"
     inkscape:pageopacity="0.0"
     inkscape:pagecheckerboard="0"
     inkscape:document-units="pt"
     showgrid="false"
     inkscape:zoom="0.2799099"
     inkscape:cx="919.93889"
     inkscape:cy="1795.2205"
     inkscape:window-width="1366"
     inkscape:window-height="705"
     inkscape:window-x="-8"
     inkscape:window-y="-8"
     inkscape:window-maximized="1"
     inkscape:current-layer="svg12463" />
  <g
     transform="translate(0.000000,1906.000000) scale(0.100000,-0.100000)"
     fill="#000000"
     stroke="none"
     id="g12461"
     style="fill:#035f0f;fill-opacity:1">
    <path
       d="M9495 19008 c-13 -29 -85 -188 -159 -353 l-136 -300 55 -1530 c31 -841 59 -1536 63 -1543 6 -11 53 -14 222 -14 l215 0 7 24 c5 18 105 2697 111 2998 l2 75 -161 345 c-109 235 -166 346 -177 348 -13 3 -24 -11 -42 -50z"
       id="path12199"
       style="fill:#035f0f;fill-opacity:1" />
    <path
       d="M4769 17780 c-13 -8 -10 -53 23 -394 l38 -385 179 -288 c98 -158 203 -327 234 -375 31 -47 98 -155 148 -240 51 -84 163 -263 249 -398 87 -135 244 -384 350 -555 106 -170 205 -330 222 -355 16 -25 78 -121 137 -215 60 -93 116 -171 125 -173 9 -2 49 16 89 41 40 24 118 68 175 98 56 30 105 62 108 72 3 10 -31 85 -90 197 -53 99 -96 182 -96 185 0 8 -268 512 -430 810 -81 149 -175 326 -210 394 -34 68 -142 273 -239 455 -98 182 -219 410 -269 507 l-92 175 -306 220 c-361 257 -326 234 -345 224z"
       id="path12201"
       style="fill:#035f0f;fill-opacity:1" />
    <path
       d="M13972 17564 l-312 -225 -66 -127 c-81 -154 -251 -473 -449 -842 -81 -151 -170 -320 -197 -375 -28 -55 -88 -167 -133 -250 -96 -173 -408 -762 -517 -975 -41 -80 -73 -151 -70 -158 2 -6 34 -28 70 -48 37 -21 117 -66 178 -100 61 -35 117 -64 126 -64 13 0 151 207 294 443 32 54 163 262 289 462 127 201 324 517 440 702 115 186 283 455 373 598 91 143 184 292 208 330 l43 70 21 230 c46 514 48 536 29 545 -12 7 -88 -43 -327 -216z"
       id="path12203"
       style="fill:#035f0f;fill-opacity:1" />
    <path
       d="M8731 17335 c-77 -168 -141 -313 -142 -322 0 -10 49 -413 108 -896 95 -769 110 -878 125 -883 28 -8 252 16 264 29 9 9 -5 221 -57 847 -37 459 -79 988 -93 1174 -24 326 -29 355 -57 356 -4 0 -70 -137 -148 -305z"
       id="path12205"
       style="fill:#035f0f;fill-opacity:1" />
    <path
       d="M10174 17628 c-10 -16 -31 -256 -119 -1392 -42 -533 -72 -973 -68 -977 11 -11 239 -32 263 -24 12 4 21 18 25 38 11 64 205 1700 205 1728 0 37 -270 639 -287 639 -6 0 -15 -5 -19 -12z"
       id="path12207"
       style="fill:#035f0f;fill-opacity:1" />
    <path
       d="M6042 16868 c-7 -10 22 -79 105 -253 63 -132 167 -352 230 -490 64 -137 149 -317 191 -400 66 -133 185 -382 407 -857 38 -81 75 -150 82 -152 7 -3 54 14 105 38 51 24 103 46 115 50 37 12 36 39 -6 133 -22 48 -85 198 -141 333 -56 135 -167 398 -247 585 -79 187 -162 383 -184 435 -90 213 -61 182 -364 398 -148 105 -273 192 -276 192 -4 0 -11 -6 -17 -12z"
       id="path12209"
       style="fill:#035f0f;fill-opacity:1" />
    <path
       d="M12749 16695 c-145 -102 -271 -194 -280 -203 -16 -16 -65 -129 -219 -502 -37 -91 -145 -345 -240 -565 -203 -471 -242 -572 -235 -595 7 -21 227 -122 248 -114 8 2 24 31 37 62 13 31 52 116 86 187 92 193 447 938 604 1270 76 160 173 365 218 457 57 120 77 169 69 177 -6 6 -14 11 -17 11 -3 0 -125 -83 -271 -185z"
       id="path12211"
       style="fill:#035f0f;fill-opacity:1" />
    <path
       d="M8336 16473 c-7 -16 -53 -115 -100 -222 l-87 -193 91 -446 c50 -246 94 -450 96 -454 7 -12 39 -10 103 6 31 8 77 17 103 21 33 4 49 12 53 24 5 15 -196 1241 -210 1279 -8 21 -34 13 -49 -15z"
       id="path12213"
       style="fill:#035f0f;fill-opacity:1" />
    <path
       d="M10696 16491 c-3 -5 -42 -218 -85 -473 -119 -700 -134 -795 -128 -812 3 -8 23 -18 44 -21 21 -3 73 -13 117 -22 76 -16 79 -16 92 2 8 10 14 27 14 36 0 10 39 199 86 421 47 222 86 414 85 428 0 14 -42 120 -94 235 -88 195 -113 235 -131 206z"
       id="path12215"
       style="fill:#035f0f;fill-opacity:1" />
    <path
       d="M4915 16224 c-10 -4 -5 -83 41 -607 l7 -77 231 -304 c127 -167 279 -368 338 -447 59 -79 146 -193 193 -254 47 -60 107 -139 133 -175 25 -36 65 -88 87 -116 22 -29 53 -70 68 -93 16 -23 36 -41 45 -41 29 0 222 143 222 164 0 10 -33 64 -72 120 -88 122 -210 299 -376 546 -144 212 -387 561 -553 795 -63 88 -164 235 -224 327 -105 159 -116 172 -140 162z"
       id="path12217"
       style="fill:#035f0f;fill-opacity:1" />
    <path
       d="M14045 16097 c-50 -73 -242 -350 -426 -617 -185 -267 -397 -575 -473 -685 -75 -110 -184 -267 -242 -350 -68 -98 -104 -158 -102 -172 4 -26 183 -163 214 -163 16 0 37 22 75 78 54 78 151 207 321 428 105 136 153 199 467 618 l224 299 13 121 c62 590 61 577 32 575 -7 0 -54 -59 -103 -132z"
       id="path12219"
       style="fill:#035f0f;fill-opacity:1" />
    <path
       d="M7062 16141 c-10 -6 21 -98 136 -402 82 -217 180 -477 217 -579 103 -281 91 -264 163 -234 20 8 65 25 100 36 35 12 67 29 72 38 7 13 -30 135 -134 446 l-142 429 -193 138 c-106 75 -196 137 -199 137 -4 0 -13 -4 -20 -9z"
       id="path12221"
       style="fill:#035f0f;fill-opacity:1" />
    <path
       d="M11809 16024 c-96 -69 -182 -133 -191 -141 -10 -8 -81 -208 -160 -444 -127 -383 -141 -430 -128 -444 14 -13 153 -69 206 -82 11 -2 25 1 31 9 11 14 328 854 405 1072 38 108 46 141 36 148 -7 4 -16 8 -19 8 -3 0 -84 -57 -180 -126z"
       id="path12223"
       style="fill:#035f0f;fill-opacity:1" />
    <path
       d="M7918 15537 c-7 -8 -31 -50 -52 -95 l-39 -81 43 -152 c25 -83 50 -153 56 -156 21 -8 226 51 237 69 8 12 0 55 -28 163 l-38 146 -78 60 c-43 32 -80 59 -83 59 -2 0 -11 -6 -18 -13z"
       id="path12225"
       style="fill:#035f0f;fill-opacity:1" />
    <path
       d="M11055 15492 l-80 -58 -39 -148 c-30 -110 -37 -152 -29 -164 9 -15 181 -69 225 -71 22 -1 40 39 84 190 l34 117 -41 88 c-37 80 -53 104 -69 104 -3 0 -41 -27 -85 -58z"
       id="path12227"
       style="fill:#035f0f;fill-opacity:1" />
    <path
       d="M5032 14971 c-11 -6 -11 -26 -2 -102 6 -52 15 -155 21 -229 13 -161 1 -139 200 -361 79 -88 175 -195 213 -237 38 -42 100 -112 138 -154 38 -43 77 -78 87 -78 10 0 38 17 62 38 24 21 63 53 87 71 23 18 42 41 42 51 0 11 -39 65 -87 121 -49 57 -140 166 -203 245 -168 206 -530 639 -538 641 -4 2 -13 -1 -20 -6z"
       id="path12229"
       style="fill:#035f0f;fill-opacity:1" />
    <path
       d="M10171 14954 c-20 -26 -41 -87 -62 -184 -12 -55 -13 -115 -9 -345 1 -100 -3 -136 -23 -216 -24 -92 -72 -226 -87 -242 -4 -5 -25 42 -46 103 -60 176 -209 437 -349 610 -101 125 -247 275 -269 275 -23 0 -71 -75 -88 -139 -10 -38 -8 -51 17 -120 36 -99 112 -186 162 -186 18 0 35 5 38 11 4 5 10 9 15 7 11 -5 109 -124 162 -197 79 -112 278 -462 278 -490 0 -13 -42 -74 -73 -104 -10 -10 -45 -34 -78 -53 -53 -30 -70 -34 -129 -34 -40 0 -72 -5 -76 -11 -3 -6 -9 -40 -12 -75 -3 -48 -1 -69 11 -88 16 -24 16 -24 209 -25 176 -1 196 1 235 20 87 42 106 138 59 285 l-26 81 25 46 c72 137 111 289 126 496 14 207 27 262 85 368 19 34 34 68 34 77 0 8 -13 31 -30 49 -16 19 -30 46 -30 59 0 50 -37 62 -69 22z m-191 -1279 c0 -30 -19 -45 -56 -45 -62 0 -65 8 -15 55 41 40 47 43 59 28 6 -9 12 -26 12 -38z"
       id="path12231"
       style="fill:#035f0f;fill-opacity:1" />
    <path
       d="M13953 14902 c-35 -42 -97 -120 -139 -172 -42 -52 -95 -115 -118 -140 -22 -25 -97 -115 -166 -199 -69 -85 -171 -209 -227 -277 -57 -68 -103 -131 -103 -142 0 -23 158 -162 183 -162 7 0 47 35 88 78 103 108 323 351 350 387 13 17 59 71 104 120 l81 91 12 94 c18 152 35 369 28 385 -11 28 -31 15 -93 -63z"
       id="path12233"
       style="fill:#035f0f;fill-opacity:1" />
    <path
       d="M8485 14873 c-48 -113 -52 -163 -25 -283 41 -177 59 -265 65 -330 11 -111 26 -168 94 -360 62 -173 31 -241 -145 -321 -150 -67 -268 -70 -383 -8 -53 28 -121 99 -121 125 0 4 -6 15 -14 23 -30 34 -77 232 -92 384 -6 59 -9 67 -27 67 -19 0 -20 -4 -14 -94 5 -89 4 -94 -16 -104 -42 -20 -165 -142 -212 -211 -53 -80 -94 -172 -95 -214 -1 -119 152 -199 289 -151 55 19 81 39 134 104 l41 51 33 -53 c45 -73 109 -136 163 -162 88 -42 247 -18 405 61 83 42 140 93 166 148 23 50 25 194 4 298 -8 40 -28 153 -44 253 -17 99 -42 225 -56 280 -36 135 -43 240 -21 299 10 25 22 45 27 45 5 0 16 11 25 25 15 23 15 28 -1 67 -21 54 -101 148 -125 148 -13 0 -28 -23 -55 -87z m-630 -1040 c4 -10 11 -31 15 -48 5 -16 13 -44 18 -62 10 -32 10 -33 -46 -68 -59 -37 -96 -43 -151 -24 -38 13 -36 27 13 97 73 105 133 147 151 105z"
       id="path12235"
       style="fill:#035f0f;fill-opacity:1" />
    <path
       d="M10010 14881 c-257 -107 -320 -152 -320 -232 0 -45 24 -46 88 -3 85 57 192 117 244 137 50 19 72 39 87 78 7 19 6 30 -2 38 -15 15 -21 14 -97 -18z"
       id="path12237"
       style="fill:#035f0f;fill-opacity:1" />
    <path
       d="M8197 14817 c-14 -11 -14 -20 9 -96 18 -61 24 -107 24 -175 0 -115 19 -186 62 -236 37 -43 37 -43 57 -31 13 8 13 21 2 93 -7 46 -17 139 -20 208 -9 141 -19 171 -79 219 -32 25 -42 28 -55 18z"
       id="path12239"
       style="fill:#035f0f;fill-opacity:1" />
    <path
       d="M9003 14757 c-23 -41 -46 -91 -52 -113 -18 -64 -13 -155 15 -271 35 -148 41 -260 19 -406 -25 -176 -8 -192 73 -69 52 81 81 154 103 257 23 114 -18 467 -77 658 -11 37 -40 17 -81 -56z"
       id="path12241"
       style="fill:#035f0f;fill-opacity:1" />
    <path
       d="M11130 14672 c-63 -19 -42 -125 30 -148 19 -7 35 -18 35 -25 0 -8 -21 -29 -47 -49 -27 -19 -48 -42 -48 -51 0 -22 42 -39 97 -39 180 0 262 213 112 287 -50 24 -139 37 -179 25z"
       id="path12243"
       style="fill:#035f0f;fill-opacity:1" />
    <path
       d="M7940 14552 c-30 -21 -95 -69 -145 -107 -49 -38 -116 -89 -149 -113 -166 -128 -247 -234 -203 -270 10 -8 25 -2 62 26 28 20 97 71 155 112 184 131 328 255 351 305 40 86 12 104 -71 47z"
       id="path12245"
       style="fill:#035f0f;fill-opacity:1" />
    <path
       d="M11999 14420 c-20 -5 -69 -14 -110 -19 -226 -31 -267 -42 -296 -80 -14 -19 -17 -48 -5 -55 5 -3 116 13 248 35 221 37 241 42 262 67 33 37 25 57 -23 59 -22 1 -56 -2 -76 -7z"
       id="path12247"
       style="fill:#035f0f;fill-opacity:1" />
    <path
       d="M1281 14293 c-9 -18 15 -56 146 -238 72 -98 178 -249 235 -333 40 -59 51 -68 168 -132 372 -202 633 -341 700 -372 41 -19 153 -78 248 -131 95 -54 176 -97 181 -97 5 0 56 -26 113 -58 115 -66 315 -172 708 -380 146 -77 351 -185 456 -241 106 -55 199 -101 207 -101 9 0 35 36 63 88 26 48 74 129 106 181 34 54 57 100 53 110 -4 14 -119 88 -580 376 -66 41 -192 120 -280 176 -88 56 -241 152 -340 214 -99 61 -260 162 -357 223 -97 62 -179 112 -181 112 -3 0 -52 31 -109 68 -57 38 -150 97 -208 132 -58 35 -123 75 -145 91 -22 15 -123 77 -224 139 l-184 111 -356 34 c-196 19 -368 37 -383 39 -19 4 -30 0 -37 -11z"
       id="path12249"
       style="fill:#035f0f;fill-opacity:1" />
    <path
       d="M17700 14299 c-36 -4 -203 -22 -372 -38 l-308 -30 -117 -70 c-65 -39 -179 -109 -253 -156 -188 -120 -415 -262 -477 -299 -68 -40 -447 -278 -583 -366 -58 -37 -123 -78 -145 -90 -22 -12 -107 -66 -190 -120 -82 -53 -184 -117 -225 -142 -256 -155 -606 -382 -614 -397 -6 -14 4 -40 42 -102 27 -46 74 -127 104 -179 30 -52 61 -96 70 -98 15 -3 127 54 513 260 88 47 286 152 440 233 154 81 335 179 402 216 68 38 127 69 132 69 5 0 81 40 169 90 89 49 203 110 254 136 51 26 194 102 318 169 124 67 287 155 363 194 132 70 139 75 184 139 159 227 193 275 248 352 140 192 149 208 135 225 -7 8 -15 14 -19 14 -3 -1 -35 -5 -71 -10z"
       id="path12251"
       style="fill:#035f0f;fill-opacity:1" />
    <path
       d="M10951 14164 c-18 -14 -31 -35 -31 -48 0 -20 56 -86 74 -86 4 0 25 14 46 31 44 36 45 57 3 101 -33 35 -53 35 -92 2z"
       id="path12253"
       style="fill:#035f0f;fill-opacity:1" />
    <path
       d="M12015 14161 c-107 -52 -182 -128 -227 -231 -19 -42 -74 -195 -83 -230 -23 -88 -87 -201 -152 -271 -35 -37 -63 -71 -63 -77 0 -6 -6 -13 -12 -15 -7 -3 0 -6 16 -6 44 -1 189 83 255 148 62 59 92 113 175 303 43 101 168 350 187 374 9 11 -8 34 -25 34 -6 0 -38 -13 -71 -29z"
       id="path12255"
       style="fill:#035f0f;fill-opacity:1" />
    <path
       d="M2834 14138 c-4 -14 -2 -24 5 -26 7 -2 67 -42 134 -88 67 -46 163 -111 212 -145 50 -34 137 -95 195 -135 58 -41 128 -89 155 -107 28 -18 147 -100 265 -182 118 -82 269 -186 335 -230 66 -45 170 -117 232 -161 264 -187 399 -278 418 -281 16 -3 35 18 89 94 38 54 71 105 74 115 2 9 -4 23 -15 32 -54 45 -204 161 -323 249 -74 55 -220 166 -325 247 -104 80 -209 160 -232 176 -22 16 -120 90 -217 164 -97 74 -207 158 -244 186 l-69 50 -319 27 c-175 15 -329 30 -341 32 -16 4 -24 -1 -29 -17z"
       id="path12257"
       style="fill:#035f0f;fill-opacity:1" />
    <path
       d="M16095 14145 c-66 -7 -216 -21 -334 -30 l-214 -19 -91 -70 c-117 -91 -355 -272 -409 -311 -91 -65 -281 -209 -416 -314 -78 -61 -168 -128 -199 -150 -31 -21 -106 -78 -167 -126 -60 -47 -116 -90 -123 -94 -7 -4 -14 -16 -14 -27 -2 -24 141 -224 160 -224 8 0 57 30 110 68 115 81 284 198 509 352 92 63 239 165 326 227 87 61 242 169 345 238 103 69 239 162 302 206 63 44 169 117 235 161 66 44 122 81 123 83 6 6 -9 45 -16 44 -4 -1 -61 -7 -127 -14z"
       id="path12259"
       style="fill:#035f0f;fill-opacity:1" />
    <path
       d="M6306 14084 c-20 -20 -20 -23 4 -78 10 -25 16 -46 11 -46 -11 0 -150 -143 -254 -262 -113 -130 -143 -197 -94 -206 20 -4 179 153 286 283 66 80 81 105 81 137 1 20 4 17 23 -15 39 -69 116 -160 190 -226 40 -35 78 -74 86 -85 8 -12 31 -41 52 -66 54 -66 169 -303 154 -318 -2 -2 -30 11 -62 28 -82 46 -318 134 -428 161 l-50 12 31 13 c49 20 84 69 84 115 0 35 3 39 25 39 26 0 45 25 45 59 0 67 -73 157 -106 130 -13 -10 -13 -14 1 -29 24 -26 24 -69 0 -85 -17 -12 -25 -11 -56 4 -19 9 -40 16 -46 14 -12 -4 -5 -43 8 -43 12 0 39 -55 39 -78 0 -47 -73 -61 -115 -22 -25 23 -55 22 -55 -3 0 -8 18 -33 39 -56 39 -42 39 -43 13 -37 -89 20 -267 38 -392 39 l-145 2 3 -35 c6 -64 34 -133 68 -165 47 -44 179 -89 244 -83 50 5 90 29 90 55 0 29 184 6 390 -49 186 -50 401 -124 411 -140 22 -36 21 -120 -2 -200 -21 -71 -29 -85 -71 -120 -53 -45 -54 -59 -11 -120 25 -37 68 -68 94 -68 6 0 37 26 68 58 31 31 86 83 122 114 77 66 129 139 129 180 0 69 -77 158 -185 214 -54 28 -56 31 -76 98 -22 74 -90 219 -130 276 -31 46 -82 114 -90 120 -19 16 -120 143 -141 176 -32 52 -75 159 -83 209 -9 53 -20 65 -63 65 -20 0 -54 11 -78 25 -39 23 -44 24 -58 9z m722 -1094 c17 -11 32 -26 32 -34 0 -16 -33 -51 -63 -67 -16 -9 -17 -5 -15 55 2 36 5 66 8 66 3 0 20 -9 38 -20z"
       id="path12261"
       style="fill:#035f0f;fill-opacity:1" />
    <path
       d="M10515 14035 c-118 -130 -165 -209 -200 -329 -53 -183 44 -388 220 -463 28 -12 94 -30 148 -39 97 -18 100 -18 220 4 177 33 290 93 410 217 136 140 168 242 136 428 -14 81 -24 107 -42 107 -28 0 -197 -90 -197 -105 0 -8 15 -36 34 -62 64 -91 70 -165 21 -250 -70 -119 -217 -183 -389 -169 -185 15 -301 88 -372 234 -24 51 -28 69 -28 162 -1 96 1 110 26 157 15 28 45 72 68 98 22 25 40 48 40 50 0 2 -8 9 -18 14 -16 8 -28 -1 -77 -54z"
       id="path12263"
       style="fill:#035f0f;fill-opacity:1" />
    <path
       d="M4086 14024 c-7 -18 17 -41 184 -175 58 -46 141 -114 185 -151 670 -559 621 -521 646 -508 30 16 149 161 149 181 0 21 -666 629 -688 629 -4 0 -99 9 -212 20 -248 24 -256 24 -264 4z"
       id="path12265"
       style="fill:#035f0f;fill-opacity:1" />
    <path
       d="M14700 14019 c-102 -10 -193 -22 -202 -26 -9 -4 -86 -71 -170 -149 -84 -77 -211 -191 -283 -254 -175 -152 -225 -201 -225 -221 0 -18 121 -163 149 -178 25 -14 79 26 360 264 117 99 223 187 234 195 25 17 259 211 364 301 113 98 103 101 -227 68z"
       id="path12267"
       style="fill:#035f0f;fill-opacity:1" />
    <path
       d="M7076 13958 c-3 -7 -14 -42 -25 -77 -36 -112 -27 -169 59 -346 76 -159 90 -198 98 -281 6 -54 11 -69 25 -72 9 -2 17 2 17 9 0 7 12 37 27 68 54 114 41 217 -51 395 -55 107 -83 178 -98 254 -9 49 -16 62 -30 62 -10 0 -20 -6 -22 -12z"
       id="path12269"
       style="fill:#035f0f;fill-opacity:1" />
    <path
       d="M5131 13926 c-8 -9 -10 -36 -6 -82 11 -133 6 -123 126 -230 60 -55 117 -101 126 -102 19 -5 173 146 173 170 0 9 -45 66 -100 127 -109 120 -100 115 -236 126 -55 5 -73 3 -83 -9z"
       id="path12271"
       style="fill:#035f0f;fill-opacity:1" />
    <path
       d="M13815 13931 c-38 -3 -77 -11 -85 -16 -40 -26 -211 -218 -208 -233 4 -22 160 -172 179 -171 8 0 65 48 126 107 l113 107 9 94 c7 67 7 99 -1 108 -11 13 -17 14 -133 4z"
       id="path12273"
       style="fill:#035f0f;fill-opacity:1" />
    <path
       d="M9082 13701 c-105 -102 -173 -176 -177 -192 -10 -40 -2 -74 16 -74 9 0 95 77 193 170 172 167 176 172 176 212 0 77 -22 65 -208 -116z"
       id="path12275"
       style="fill:#035f0f;fill-opacity:1" />
    <path
       d="M12711 13848 c-12 -12 -23 -29 -26 -38 -4 -12 -26 -20 -78 -29 -81 -14 -207 -50 -207 -60 1 -28 19 -30 185 -20 228 13 249 20 285 88 12 23 10 27 -19 53 -41 36 -109 40 -140 6z"
       id="path12277"
       style="fill:#035f0f;fill-opacity:1" />
    <path
       d="M12360 13384 c-6 -14 -10 -44 -10 -67 0 -29 -15 -74 -46 -142 -26 -55 -54 -119 -62 -142 -15 -37 -21 -43 -58 -51 -39 -8 -63 -6 -165 13 -20 4 -65 21 -100 39 -108 53 -138 137 -95 266 31 94 23 109 -44 85 -80 -28 -117 -80 -146 -205 -21 -93 -7 -168 44 -244 63 -94 126 -128 262 -146 87 -11 206 -8 243 6 11 4 16 -6 22 -43 18 -121 94 -220 289 -378 50 -41 118 -99 151 -130 56 -53 59 -57 40 -68 -37 -22 -105 -97 -120 -133 -23 -56 -19 -114 14 -184 35 -74 67 -110 96 -110 12 0 54 16 93 36 71 35 112 73 112 102 0 9 16 -1 44 -26 24 -22 59 -48 77 -57 52 -27 134 -92 148 -118 11 -20 10 -30 -4 -57 -36 -70 1 -127 104 -161 36 -12 70 -25 75 -30 5 -4 -1 -20 -13 -35 -126 -160 107 -340 311 -240 89 43 197 178 187 231 -4 18 -14 20 -83 23 -86 3 -106 -5 -106 -47 0 -44 -26 -71 -69 -71 -56 0 -75 26 -68 93 3 29 16 74 28 100 31 64 22 78 -65 94 -119 22 -149 57 -121 142 20 62 15 81 -22 81 -22 0 -51 23 -136 108 -59 59 -118 123 -132 143 l-24 37 36 7 c51 9 156 115 174 174 13 43 12 44 -16 68 -27 24 -33 25 -139 21 -91 -4 -122 -9 -173 -30 l-63 -27 -118 89 c-66 48 -144 114 -176 146 -48 50 -60 69 -82 138 -22 70 -25 99 -25 211 0 159 18 229 92 358 43 75 50 92 41 111 -12 27 -74 46 -147 46 -40 0 -47 -3 -55 -26z m697 -1119 c46 -31 21 -85 -40 -85 -27 0 -120 68 -111 81 9 14 67 28 98 23 17 -2 40 -11 53 -19z m-268 -182 c7 -27 15 -74 18 -105 5 -56 4 -57 -23 -64 -17 -5 -37 -2 -53 7 -48 27 -39 158 13 194 29 21 31 20 45 -32z"
       id="path12279"
       style="fill:#035f0f;fill-opacity:1" />
    <path
       d="M7372 13233 c-96 -172 -111 -214 -96 -271 14 -50 43 -21 120 118 67 121 74 139 70 179 -3 39 -17 60 -38 61 -4 0 -29 -39 -56 -87z"
       id="path12281"
       style="fill:#035f0f;fill-opacity:1" />
    <path
       d="m 9450,13193 c -24,-2 -48,-10 -52,-16 -4,-7 -8,-92 -8,-189 l -0.8427,-174.876 L 9341,12810 h -48 l -7,93 c -15,219 -19,255 -26,267 -5,9 -29,10 -94,5 -79,-7 -87,-9 -92,-31 -5,-19 12,-187 32,-316 l 6,-37 -47,-6 c -25,-4 -48,-6 -50,-4 -5,6 -55,285 -55,312 0,44 -21,51 -105,37 -57,-10 -76,-17 -81,-32 -3,-10 11,-93 32,-183 20,-91 35,-167 33,-169 -2,-2 -20,-7 -40,-11 l -35,-7 -39,169 c -21,92 -44,174 -51,182 -20,22 -152,-21 -160,-52 -3,-14 14,-90 40,-182 25,-87 45,-159 43,-160 -1,-1 -17,-7 -34,-13 l -33,-11 -51,162 c -28,89 -57,168 -64,175 -11,12 -25,10 -85,-9 -39,-13 -75,-30 -80,-39 -5,-10 14,-71 51,-170 32,-85 59,-160 59,-166 0,-10 -80,-48 -87,-40 -6,5 -85,189 -108,251 -12,33 -29,64 -38,69 -19,12 -165,-42 -170,-64 -2,-13 38,-111 108,-255 38,-80 38,-81 -10,-106 -24,-13 -45,-21 -47,-19 -8,12 -45,85 -99,191 -33,65 -67,120 -75,123 -26,10 -241,-116 -247,-144 -3,-16 26,-68 115,-203 32,-49 58,-94 58,-100 0,-7 -18,-24 -38,-39 l -38,-27 -37,52 c -20,29 -58,84 -84,123 -67,98 -76,110 -93,116 -23,9 -134,-73 -138,-101 -4,-25 19,-62 126,-199 39,-51 72,-95 72,-97 0,-2 -17,-17 -39,-34 l -38,-31 -112,135 c -69,83 -120,135 -131,135 -21,0 -112,-73 -121,-98 -4,-12 17,-42 75,-106 44,-49 99,-109 120,-133 l 39,-45 -27,-26 -27,-27 -123,128 c -68,70 -129,127 -135,127 -15,0 -118,-88 -125,-107 -3,-7 3,-21 13,-31 97,-92 241,-236 241,-241 0,-4 -10,-17 -22,-28 l -23,-21 -135,119 c -74,65 -140,119 -146,119 -17,0 -104,-107 -104,-128 0,-13 25,-40 68,-73 37,-29 76,-63 87,-74 15,-17 76,-65 114,-91 1,-2 -11,-21 -29,-43 l -32,-40 -107,79 c -58,43 -120,90 -137,104 -18,14 -38,26 -46,26 -8,0 -30,-19 -49,-42 -78,-96 -80,-109 -21,-147 27,-17 203,-140 241,-168 7,-5 -33,-75 -46,-80 -7,-3 -55,22 -105,55 -161,103 -202,124 -221,109 -9,-6 -43,-59 -76,-116 -45,-78 -58,-108 -51,-121 5,-9 77,-52 159,-96 83,-43 151,-82 151,-87 0,-4 -9,-25 -20,-47 l -20,-39 -101,45 c -55,24 -128,58 -161,75 -32,16 -67,27 -77,24 -21,-6 -74,-136 -65,-159 6,-17 60,-44 224,-113 47,-20 88,-39 92,-43 9,-7 -21,-90 -32,-90 -4,0 -81,27 -171,61 l -164,60 -17,-21 c -22,-28 -48,-113 -41,-137 3,-13 47,-32 169,-72 142,-47 164,-57 164,-75 -7.7563,-53 -8,-53 -187,-5 -171,47 -193.638,46.796 -203,11 l -17,-65 c -15,-42 -15,-49 -2,-63 9,-8 90,-33 180,-56 90,-22 165,-42 167,-43 l -18.3711,-69.113 c 0,0 -2187.6289,455.113 -2834.6289,593.113 l -470,100 -222,-102 c -197,-90 -222,-104 -216,-122 3,-11 6,-20 7,-21 0,0 681,-114 1511,-253 1632,-273 2184,-367 2192,-374 2,-3 1,-25 -4,-49 -8,-38 -12,-43 -33,-41 -94,10 -1273,153 -1620,198 -234,30 -897,113 -1475,184 -577,72 -1062,132 -1077,134 -18,2 -122,-40 -334,-138 -169,-78 -309,-145 -311,-151 -8,-27 21,-33 217,-49 113,-9 365,-29 560,-45 195,-17 792,-64 1325,-105 534,-41 1211,-95 1505,-120 294,-24 688,-56 874,-70 187,-14 341,-27 343,-29 2,-1 0,-24 -3,-49 l -7,-47 h -44 c -24,0 -918,31 -1986,70 -1068,38 -2293,81 -2722,96 l -781,26 -89,-39 C 565,9802 409,9731 268,9665 -28,9527 -34,9522 67,9478 c 32,-14 191,-86 353,-160 l 295,-135 755,29 c 2180,85 4765,173 4772,163 4,-5 8,-29 8,-52 0,-35 -3,-43 -19,-43 -10,0 -202,-16 -427,-35 -225,-19 -620,-50 -879,-70 -258,-20 -852,-67 -1320,-105 -467,-38 -1005,-81 -1195,-95 -190,-14 -486,-37 -658,-52 -280,-24 -315,-29 -324,-46 -5,-10 -8,-20 -6,-21 2,-1 142,-65 311,-141 l 309,-139 1081,133 c 595,72 1179,145 1297,161 118,16 337,43 485,60 149,17 515,62 814,100 300,38 546,68 548,66 2,-2 6,-25 9,-53 l 6,-49 -93,-13 c -52,-7 -155,-23 -229,-36 -74,-13 -866,-145 -1760,-295 -948,-158 -1628,-276 -1632,-283 -4,-7 -6,-16 -5,-22 5,-14 418,-204 446,-205 13,0 256,49 540,110 284,60 914,192 1401,294 487,102 991,207 1120,234 l 235,49 13,-29 c 7,-17 11,-32 9,-34 -1,-2 -77,-22 -168,-45 -90,-23 -171,-48 -179,-55 -12,-12 -12,-20 2,-61 9,-27 19,-60 22,-76 4,-17 13,-27 24,-27 10,0 77,17 148,39 195,58 192,58 204,25 6,-15 9,-32 7,-38 -3,-6 -77,-33 -165,-61 -122,-38 -162,-54 -166,-68 -6,-24 20,-109 42,-137 l 17,-21 164,60 c 91,34 168,58 171,54 4,-5 14,-27 23,-50 l 16,-41 -127,-52 c -70,-29 -139,-57 -155,-62 -47,-17 -52,-40 -21,-118 15,-38 34,-72 44,-75 17,-5 142,46 267,108 l 69,35 22,-45 c 12,-26 21,-47 20,-48 -2,-2 -70,-38 -151,-81 -82,-43 -152,-85 -157,-94 -6,-11 1,-34 22,-75 40,-80 88,-157 106,-172 18,-15 33,-7 215,109 59,37 55.8419,33.6084 107.4114,66.2057 0,0 52.5886,-88.2057 48.5886,-92.2057 -2,-2 -38,-25 -79,-51 -138,-88 -200,-138 -200,-159 0,-27 85,-136 106,-136 15,0 116,70 232,162 l 54,42 35,-38 c 19,-20 34,-38 32,-40 -32,-22 -112,-90 -143,-119 -22,-22 -60,-53 -83,-70 -27,-19 -43,-38 -43,-51 0,-24 85,-126 105,-126 12,0 68,46 212,176 l 62,56 25,-29 24,-28 -124,-119 c -68,-65 -124,-126 -124,-136 0,-17 101,-120 118,-120 6,0 34,26 64,58 30,31 85,90 123,130 l 69,72 27,-26 28,-27 -74,-86 c -40,-47 -92,-104 -114,-126 -23,-21 -41,-48 -41,-60 0,-22 99,-115 122,-115 8,0 25,15 38,33 26,35 113,138 145,171 11,12 28,32 37,45 l 16,23 36,-28 c 20,-16 36,-33 36,-39 0,-5 -18,-32 -41,-60 -22,-27 -59,-77 -81,-110 -22,-33 -49,-69 -59,-80 -25,-28 -15,-54 34,-91 57,-42 86,-56 101,-51 13,5 50,57 150,207 27,41 51,76 52,78 5,8 84,-52 84,-63 0,-7 -13,-30 -28,-51 -64,-89 -143,-228 -140,-248 2,-15 34,-39 113,-83 61,-35 113,-63 117,-63 17,0 48,48 113,175 38,74 74,135 80,135 5,0 26,-11 46,-23 43,-27 44,-18 -43,-200 -37,-76 -65,-143 -62,-150 7,-16 153,-77 170,-70 7,2 20,27 30,55 9,28 34,89 56,137 22,47 44,96 49,109 8,22 10,22 46,7 21,-9 41,-19 45,-23 4,-4 -8,-48 -26,-97 -19,-50 -45,-120 -59,-157 -20,-53 -23,-70 -14,-83 14,-18 136,-64 154,-58 7,2 35,77 63,166 29,89 55,166 59,170 5,5 22,2 38,-5 l 30,-13 -47,-168 c -35,-125 -44,-170 -36,-180 6,-7 42,-21 79,-31 78,-19 91,-15 101,37 3,17 20,92 37,165 l 32,134 36,-7 c 20,-4 38,-8 39,-10 2,-2 -12,-76 -32,-164 -20,-88 -36,-167 -36,-175 0,-23 33,-36 104,-43 48,-4 65,-2 72,8 5,8 21,85 36,173 15,87 29,161 32,163 3,3 26,2 52,-2 43,-6 46,-8 41,-33 -3,-15 -13,-93 -23,-174 -14,-113 -15,-151 -7,-159 7,-7 48,-13 100,-13 l 88,-1 7,70 c 3,39 9,118 13,178 l 7,107 h 49 49 v -183 c 0,-129 4,-187 12,-195 15,-15 241,-17 269,-2 18,10 18,20 12,195 l -6,185 h 51 c 35,0 52,-4 52,-12 0,-42 30,-330 35,-338 7,-11 81,-13 138,-4 28,5 39,12 43,30 3,13 -3,94 -15,180 -11,87 -19,159 -17,161 2,2 26,6 53,9 l 49,6 23,-153 c 33,-227 20,-203 101,-196 78,7 110,20 110,46 0,10 -13,85 -30,166 -16,81 -30,154 -30,161 0,12 57,31 65,22 3,-2 21,-76 41,-163 20,-88 42,-166 49,-173 10,-11 24,-10 81,5 38,10 74,24 80,32 8,10 -2,57 -36,180 l -47,166 30,13 c 16,7 33,10 38,5 4,-4 28,-75 54,-157 26,-81 56,-157 66,-167 17,-17 22,-17 58,-5 57,21 98,43 103,58 3,7 -21,83 -53,168 -32,85 -55,158 -51,162 4,4 24,14 44,22 l 37,16 21,-48 c 85,-191 124,-271 136,-276 7,-3 39,8 71,24 32,17 63,30 70,30 20,0 20,34 0,75 -11,22 -43,92 -72,156 l -52,117 37,21 c 21,11 42,21 47,21 5,0 45,-67 89,-149 43,-82 86,-152 95,-154 22,-6 243,117 247,137 2,9 -27,65 -66,124 -79,122 -112,177 -112,184 0,7 81,60 84,56 2,-2 19,-28 39,-58 20,-30 46,-68 58,-84 13,-16 40,-55 61,-87 20,-33 44,-59 52,-59 24,0 141,86 144,106 1,11 -39,74 -98,152 -55,74 -100,137 -100,140 0,4 16,20 36,36 l 36,28 16,-23 c 9,-13 26,-33 37,-45 32,-33 119,-136 145,-171 13,-18 30,-33 38,-33 26,0 122,91 122,115 0,15 -21,45 -57,82 -32,32 -82,86 -111,120 l -54,62 24,31 23,32 120,-126 c 78,-83 127,-126 140,-126 25,0 115,89 115,113 0,18 -49,71 -171,183 l -77,70 25,28 24,28 52,-45 c 29,-25 88,-77 132,-116 44,-39 85,-71 92,-71 13,0 113,109 113,123 0,5 -14,21 -32,35 -17,15 -59,52 -93,82 -34,30 -82,72 -107,92 l -46,37 34,36 34,37 136,-101 c 74,-56 144,-101 154,-101 22,0 100,108 100,138 0,19 -59,65 -197,156 -40,26 -75,51 -78,56 -3,5 6,28 20,50 l 26,41 37,-22 c 20,-13 88,-56 150,-95 63,-40 120,-70 127,-68 14,6 76,104 119,189 16,32 22,55 16,65 -4,8 -74,51 -154,95 -80,43 -146,85 -146,91 0,16 33,74 42,74 3,0 75,-32 158,-70 84,-39 159,-68 168,-65 20,6 83,140 76,159 -6,15 -17,20 -206,96 l -127,52 15,36 c 9,21 18,43 21,50 3,6 6,12 7,12 1,0 75,-27 165,-60 89,-32 168,-57 175,-54 20,8 69,145 56,158 -6,6 -84,34 -173,62 -160,51 -162,52 -160,79 4,51 13,51 183,1 88,-26 167,-46 177,-44 11,2 23,26 36,76 18,63 18,75 6,86 -8,8 -88,32 -179,56 -91,23 -165,42 -166,43 0,1 3,16 8,34 6,22 13,30 26,27 9,-2 301,-63 647,-134 919,-190 1472,-306 2076,-435 295,-63 547,-115 560,-115 28,1 441,191 446,205 1,6 -1,15 -5,22 -4,7 -684,125 -1632,283 -1838,308 -1944,325 -2020,337 l -55,9 3,49 c 2,28 5,51 6,52 1,1 247,-29 547,-67 299,-38 666,-83 814,-100 149,-17 367,-44 485,-60 118,-16 702,-89 1297,-161 l 1081,-133 309,139 c 169,76 309,140 311,141 2,1 -1,11 -6,21 -9,17 -44,22 -324,46 -172,15 -468,38 -658,52 -190,14 -727,57 -1195,95 -467,38 -1030,83 -1250,100 -493,37 -1389,111 -1393,115 -2,1 0,25 3,52 l 7,49 66,-3 c 37,-2 954,-35 2037,-74 1084,-38 2296,-82 2695,-98 l 725,-28 260,118 c 452,204 445,201 445,223 0,16 -21,31 -93,65 -159,75 -489,226 -549,250 l -56,23 -779,-26 c -428,-15 -1652,-58 -2720,-96 -1068,-39 -1962,-70 -1986,-70 h -44 l -7,47 c -3,25 -5,48 -3,50 2,1 158,14 348,28 189,14 585,46 879,70 294,25 942,77 1440,115 498,39 1092,86 1320,105 228,19 507,41 620,50 192,15 219,21 220,47 0,21 -605,292 -645,290 -40,-3 -2044,-250 -2120,-262 -71,-11 -1293,-163 -1750,-218 -217,-26 -322,-35 -326,-28 -4,6 -9,27 -13,48 l -7,36 93,17 c 303,54 752,130 2103,356 831,139 1511,253 1511,253 1,1 4,10 7,21 6,18 -19,32 -216,122 l -222,102 -435,-94 c -700,-150 -2832,-595 -2857,-595 -7,0 -16,15 -21,33 -10,38 -24,32 171,78 76,17 148,40 160,49 21,17 21,17 3,84 -10,37 -26,70 -35,75 -10,5 -71,-7 -171,-35 -85,-24 -162,-43 -171,-44 -11,0 -19,11 -23,32 -3,17 -5,32 -4,34 2,1 77,27 167,57 90,30 167,59 172,64 12,12 -39,150 -57,157 -7,3 -86,-22 -175,-54 -90,-33 -166,-60 -171,-60 -4,0 -8,6 -8,13 0,6 -7,25 -15,41 -18,34 -17,36 55,66 171,71 259,113 264,127 4,8 -2,29 -13,47 -10,17 -24,48 -30,68 -7,20 -21,40 -31,43 -11,4 -51,-10 -102,-36 -46,-23 -118,-57 -160,-75 l -78,-33 -20,42 c -25,50 -37,39 146,138 75,40 140,81 144,90 7,11 -8,46 -53,123 -34,59 -69,112 -78,117 -17,9 -27,4 -221,-118 l -96,-61 -27,39 c -14,22 -23,44 -20,48 5,10 174,132 237,172 20,13 39,32 41,41 6,21 -80,148 -100,148 -15,0 -129,-75 -173,-115 -14,-12 -48,-38 -77,-59 l -52,-37 -28,42 -27,41 25,22 c 154,127 239,201 241,208 0,4 1,12 2,17 1,12 -95,121 -107,121 -5,0 -48,-35 -94,-77 -47,-43 -107,-96 -135,-117 l -49,-40 -25,26 -25,25 42,39 c 150,139 219,212 214,226 -7,18 -110,108 -124,108 -5,0 -66,-57 -135,-127 l -125,-127 -25,24 c -15,13 -26,26 -26,29 0,3 54,64 119,135 89,96 117,133 113,148 -6,25 -98,98 -122,98 -11,0 -62,-53 -130,-135 l -113,-135 -38,31 c -46,37 -54,19 77,184 56,70 86,118 90,144 4,23 -118,110 -146,103 -8,-2 -28,-24 -45,-50 -16,-26 -43,-66 -60,-88 -16,-23 -48,-66 -69,-97 l -39,-55 -39,25 c -21,14 -38,29 -38,34 0,9 25,50 112,182 37,56 68,110 68,120 0,27 -218,158 -250,150 -9,-2 -44,-59 -78,-126 -53,-103 -86,-164 -100,-187 -2,-2 -22,6 -46,19 l -43,24 48,113 c 27,62 60,135 73,163 14,27 23,56 21,63 -6,14 -130,68 -157,68 -10,0 -33,-41 -68,-117 -29,-65 -62,-139 -74,-165 l -21,-48 -42,20 c -24,10 -43,23 -43,27 0,4 27,78 59,163 38,100 56,160 51,170 -5,9 -35,24 -67,34 -32,10 -63,21 -70,23 -20,8 -49,-53 -97,-203 l -46,-143 -33,11 c -17,6 -33,12 -34,13 -2,1 18,73 43,160 25,87 44,167 42,179 -4,30 -142,77 -162,55 -7,-8 -30,-90 -51,-182 l -39,-168 -30,7 c -17,3 -34,8 -37,10 -3,2 10,76 28,165 19,89 32,172 29,184 -5,19 -17,24 -82,35 -72,12 -78,12 -90,-5 -8,-10 -14,-26 -14,-34 1,-9 -10,-83 -22,-164 l -23,-149 -50,7 c -27,3 -51,7 -52,9 -1,1 7,79 19,173 12,94 19,177 15,185 -6,18 -163,36 -179,20 -7,-7 -35.7976,-273.976 -44.0118,-363.428 L 9728,12810 h -51 l 6,179 c 5,137 4,181 -6,189 -14,12 -161,21 -227,15 z m -140,-976 c 0,-13 -6,-37 -14,-53 -8,-16 -21,-45 -30,-65 -40,-87 -103,-131 -486,-339 -268,-145 -398,-217 -543,-298 -126,-71 -123,-81 -36,116 33,74 59,138 59,143 0,5 192,104 428,219 235,115 468,230 517,254 50,25 93,45 98,45 4,1 7,-10 7,-22 z m 1007,-184 c -19,-37 -44,-94 -57,-126 -23,-56 -70,-108 -161,-177 -37,-28 -163,-82 -259,-112 -36,-11 -87,-30 -115,-43 -27,-12 -86,-37 -130,-55 -162,-65 -518,-265 -650,-366 -16,-12 -56,-37 -87,-56 -141,-83 -454,-283 -656,-420 l -43,-30 62,119 c 33,65 86,162 115,215 30,54 61,113 69,132 16,38 -17,20 785,420 239,119 442,221 450,226 8,6 35,20 60,31 47,23 65,32 425,216 121,61 221,108 223,103 2,-4 -12,-39 -31,-77 z m 916,-234 c 40,-22 118,-91 132,-120 18,-33 19,-89 4,-143 -16,-58 -6,-83 41,-97 42,-13 45,-18 53,-87 4,-32 3,-33 -27,-25 -17,4 -51,8 -75,8 -42,0 -46,-2 -71,-45 -39,-67 -376,-493 -450,-570 -80,-82 -330,-294 -338,-286 -1,2 14,39 35,82 47,97 89,214 98,274 l 7,45 111,60 c 132,71 219,146 357,306 115,133 130,167 86,193 -11,6 -27,18 -36,27 -9,8 -25,22 -36,30 -28,20 -64,99 -64,140 2,150 87,253 173,208 z m -875,-539 c 18,-19 42,-60 53,-90 65,-173 -69,-299 -267,-249 -62,16 -84,4 -109,-61 -23,-60 -73,-116 -124,-138 -22,-9 -64,-15 -104,-15 -56,1 -80,7 -130,32 -75,37 -85,45 -121,94 -36,48 -48,111 -40,213 l 7,81 66,-38 c 36,-22 72,-39 79,-39 10,0 12,-8 7,-29 -8,-36 20,-95 52,-110 13,-6 42,-11 65,-11 58,0 98,45 133,150 15,44 30,80 34,80 4,0 18,-11 30,-24 25,-27 123,-58 187,-58 54,-1 85,19 108,71 19,40 19,41 -3,100 -12,32 -19,65 -17,72 2,8 7,27 11,42 l 6,29 23,-34 c 12,-18 37,-49 54,-68 z m -2434,-80 c 65,-11 121,-21 123,-24 5,-5 -85,-278 -95,-288 -9,-9 -277,24 -288,35 -4,4 14,72 41,152 56,169 33,156 219,125 z m 1202,-401 c 15,-126 35,-239 61,-339 8,-30 19,-71 23,-90 4,-19 15,-60 24,-90 20,-68 43,-156 51,-192 3,-16 12,-28 21,-28 20,0 91,50 130,92 36,38 135,172 154,208 12,23 13,23 20,5 12,-35 -9,-171 -42,-267 -37,-107 -92,-211 -154,-287 -24,-29 -44,-63 -44,-75 0,-20 26,-135 51,-226 7,-25 27,-103 46,-175 117,-454 237,-785 411,-1131 28,-54 60,-119 73,-144 59,-118 100,-109 133,30 9,41 22,95 29,120 12,49 86,198 121,245 12,17 38,57 56,90 52,93 145,225 192,275 24,25 75,71 115,103 62,50 71,62 64,80 -14,37 -82,56 -206,56 -194,1 -296,-44 -425,-190 l -65,-73 -7,59 c -4,33 -8,130 -9,215 -4,235 28,374 110,482 52,68 165,178 183,178 7,0 21,8 32,19 12,10 73,41 136,69 242,106 437,174 698,244 99,27 124,37 128,53 4,18 -19,81 -46,125 -23,37 -70,190 -70,227 0,68 38,174 75,209 78,73 169,90 329,59 103,-20 156,-38 236,-82 81,-43 113,-73 152,-141 62,-109 46,-293 -37,-405 -49,-66 -103,-101 -200,-132 -48,-15 -86,-32 -89,-41 -9,-23 68,-189 111,-242 41,-50 42,-50 -67,-10 -67,24 -107,53 -186,135 l -61,64 -144,-41 c -169,-49 -248,-89 -398,-202 -20,-15 -54,-40 -76,-55 -118,-80 -90,-111 120,-132 55,-6 143,-22 195,-35 361,-95 497,-109 830,-86 133,10 179,17 235,39 34,13 128,60 160,79 70,43 125,71 125,64 0,-4 -12,-27 -26,-52 -14,-25 -46,-94 -71,-154 -48,-118 -77,-168 -114,-203 -58,-53 -146,-76 -589,-152 -288,-50 -337,-62 -489,-116 -283,-101 -464,-254 -772,-653 -35,-46 -68,-91 -74,-100 -5,-10 -12,-19 -15,-22 -3,-3 -38,-49 -79,-103 -84,-112 -86,-129 -20,-167 23,-14 58,-35 78,-48 65,-41 157,-81 251,-110 61,-19 235,-32 347,-25 l 109,6 v -94 l -1,-94 53,-107 c 49,-99 72,-128 132,-168 58,-39 58,-39 10,-39 -120,0 -549,51 -615,73 -22,8 -67,21 -100,31 -95,26 -259,113 -328,172 -60,53 -196,209 -197,227 0,5 -15,29 -33,55 -78,108 -170,327 -306,726 -161,475 -167,490 -188,493 -18,3 -28,-14 -67,-106 -25,-60 -46,-113 -46,-116 0,-14 -100,-215 -140,-281 -153,-252 -425,-549 -616,-671 -238,-152 -497,-249 -749,-278 -111,-13 -135,-13 -256,4 -113,16 -233,82 -297,163 -46,58 -120,217 -147,317 -38,139 -42,249 -16,390 12,63 25,129 28,146 5,29 1,33 -95,97 -163,110 -282,276 -360,502 -44,129 -56,217 -48,365 8,134 11,161 46,315 49,222 98,370 151,454 34,53 36,50 9,-12 -31,-70 -50,-248 -52,-492 -1,-177 2,-235 16,-295 39,-170 138,-305 271,-371 58,-29 79,-33 140,-33 87,0 128,22 179,99 37,57 42,68 90,225 19,63 51,165 69,225 47,152 119,329 190,465 144,279 287,397 538,445 158,30 171,23 127,-71 -31,-64 -33,-76 -33,-174 1,-123 21,-191 82,-271 92,-121 274,-174 433,-126 80,25 169,69 175,87 3,9 -14,63 -36,120 -23,58 -57,150 -76,205 l -34,99 16,96 c 27,154 35,175 160,434 29,59 51,94 57,88 5,-5 15,-65 24,-133 z m -1965,92 c 30,-5 84,-12 121,-16 67,-6 67,-7 57,-32 -5,-14 -20,-66 -34,-116 -42,-152 -47,-167 -64,-167 -23,0 -275,30 -278,33 -1,2 5,22 13,47 8,24 26,80 39,124 13,45 28,93 34,109 12,30 25,33 112,18 z m 4539,-2422 c 0,-19 -87,-120 -166,-191 -17,-15 -37,-41 -44,-58 -7,-16 -16,-30 -20,-30 -13,0 -32,-120 -24,-153 10,-49 60,-105 104,-118 82,-25 151,16 202,120 l 18,36 -4,-52 c -9,-103 -63,-185 -148,-227 -72,-36 -201,-37 -268,-3 -67,33 -93,88 -87,188 5,96 45,180 124,258 48,48 52,56 39,69 -13,13 -19,13 -53,-3 -59,-29 -141,-31 -191,-6 -22,11 -44,25 -47,31 -7,11 52,40 82,40 10,0 31,7 47,15 15,8 35,15 42,15 8,0 40,9 71,20 32,11 83,25 113,31 30,6 82,17 115,24 87,19 95,18 95,-6 z M 9440,7889 c -29,-205 -26,-194 -83,-247 -28,-27 -86,-77 -127,-112 -41,-34 -91,-79 -111,-99 -42,-43 -81,-77 -169,-150 -36,-30 -99,-85 -140,-122 -263,-238 -403,-360 -407,-355 -4,3 74,381 84,414 6,16 35,38 88,66 114,61 182,102 245,150 30,23 69,50 85,60 17,10 37,26 46,35 59,59 275,257 329,301 36,30 87,73 114,97 27,24 51,42 53,40 2,-3 -1,-38 -7,-78 z m 229,-613 c 80,-166 95,-225 87,-336 -8,-112 -43,-291 -58,-302 -31,-21 -46,-26 -96,-32 -72,-9 -92,3 -92,57 0,24 11,61 24,87 91,177 89,170 84,250 -4,53 -14,97 -36,150 -60,145 -64,204 -21,298 l 21,47 13,-45 c 6,-25 40,-103 74,-174 z"
       id="path12283"
       style="fill:#035f0f;fill-opacity:1"
       sodipodi:nodetypes="ccscccccccccccscccsscccccccccccccscccccccccccscccccccscccscccccccsccscccsscccccccscccccccccsccccccccscccccccsccccsccccccccccccccccccccccsccccccccccsssccsccscccsccscccscscccsccccccccsccccccccccccccccccscccsccscssccccccsscccccsscccccccsscccccscscccccscccscsccccccccscccccsccccccccccsscccccscscccccccsscccssccccsccccscscccsccccscsccsscccccsccccsccccscsccsccscccccssccccccsscccccssscscccccsscsccccccccsscccccccsccsccccccccccccccsccccsccscccsccsccccccccccscccccsccccccscccccccccccccccscccccccccssccssccccccccccccccccccccsccccccccscccccccscccsccscccccscccccscsccccccccsccccsccscccccscccccscccccccccscsccccccssccccscccsccccccccccccsccccccccccccsccccccccccccccccccccccccsccscscccccccccccssccccsccscccccscccccccccccccccccscccccscccccccccccccccccccssccccccsccccccccccsccccccccscccccccccccccccccscccccccccscccccscccccscccccsccscccccccccscscscscscscccccccccccscsccccccsccccccc" />
    <path
       d="M11181 11634 c-25 -32 -26 -46 -6 -84 16 -32 61 -60 94 -60 24 0 36 20 46 78 10 63 -11 92 -70 92 -35 0 -47 -5 -64 -26z"
       id="path12285"
       style="fill:#035f0f;fill-opacity:1" />
    <path
       d="M11470 10509 c-40 -16 -89 -70 -96 -105 -7 -36 4 -78 43 -166 31 -69 47 -73 115 -28 52 35 97 97 105 146 7 44 -20 117 -51 137 -32 21 -86 28 -116 16z"
       id="path12287"
       style="fill:#035f0f;fill-opacity:1" />
    <path
       d="M7945 9831 c-33 -15 -111 -88 -165 -156 -79 -99 -157 -279 -244 -565 -10 -30 -24 -109 -31 -175 -8 -66 -19 -158 -25 -204 -6 -58 -17 -96 -35 -126 -29 -51 -123 -137 -174 -161 -20 -9 -39 -22 -43 -28 -14 -21 -7 -161 11 -227 37 -138 181 -312 305 -370 154 -72 287 -61 606 48 153 53 394 182 482 258 19 17 59 50 88 75 136 114 276 298 373 490 69 137 88 184 160 391 l41 115 -43 110 c-23 60 -52 133 -63 162 -11 29 -27 56 -36 61 -10 6 -36 -4 -81 -30 -36 -22 -69 -39 -73 -39 -5 0 -49 -18 -99 -41 -208 -94 -357 -80 -504 46 -28 23 -97 105 -155 180 -58 77 -120 148 -142 162 -41 28 -118 39 -153 24z m685 -687 c63 -9 117 -18 120 -20 5 -5 -79 -265 -89 -276 -6 -7 -281 9 -289 16 -2 3 87 286 95 299 2 4 14 5 26 2 12 -2 74 -12 137 -21z m-540 -380 c63 -10 116 -18 118 -20 4 -2 -58 -171 -89 -244 l-19 -45 -103 12 c-56 6 -121 12 -144 12 -30 1 -43 5 -43 15 0 12 68 212 95 279 6 14 15 17 39 13 17 -2 83 -13 146 -22z"
       id="path12289"
       style="fill:#035f0f;fill-opacity:1" />
    <path
       d="M12925 13163 c-11 -2 -30 -6 -42 -9 -15 -3 -23 -12 -23 -25 0 -16 23 -31 113 -73 198 -93 339 -154 487 -210 207 -78 228 -83 287 -65 40 12 48 19 48 39 0 22 -18 32 -180 102 -99 42 -209 90 -245 106 -97 44 -309 120 -355 127 -22 4 -47 8 -55 10 -8 1 -24 1 -35 -2z"
       id="path12291"
       style="fill:#035f0f;fill-opacity:1" />
    <path
       d="M2190 13015 c-10 -13 -10 -19 2 -33 9 -9 59 -81 112 -160 53 -79 134 -195 181 -258 77 -103 91 -117 143 -140 31 -14 287 -122 567 -240 281 -118 626 -264 767 -325 141 -60 263 -107 270 -104 18 7 110 220 106 246 -2 15 -96 63 -413 213 -225 106 -475 225 -555 263 -80 39 -244 117 -365 173 -121 56 -348 165 -504 241 -156 77 -287 139 -291 139 -4 0 -13 -7 -20 -15z"
       id="path12293"
       style="fill:#035f0f;fill-opacity:1" />
    <path
       d="M16640 12924 c-118 -59 -366 -177 -550 -264 -184 -87 -472 -223 -640 -303 -168 -79 -395 -187 -505 -239 -109 -53 -204 -102 -209 -111 -7 -11 5 -46 44 -131 30 -63 60 -118 67 -120 8 -3 74 21 149 54 74 33 199 87 277 119 242 100 884 369 1057 443 110 46 172 79 187 96 71 86 374 526 371 540 -2 9 -10 18 -18 19 -8 1 -112 -45 -230 -103z"
       id="path12295"
       style="fill:#035f0f;fill-opacity:1" />
    <path
       d="M5556 13007 c-13 -11 -13 -21 4 -92 28 -114 36 -129 99 -188 54 -49 163 -110 284 -158 63 -25 155 -88 194 -132 17 -19 46 -60 64 -91 22 -36 40 -56 52 -56 18 0 18 6 12 73 -4 39 -16 95 -27 124 -49 132 -122 189 -423 329 -64 30 -96 54 -162 120 -67 68 -84 80 -97 71z"
       id="path12297"
       style="fill:#035f0f;fill-opacity:1" />
    <path
       d="M5424 12564 c-8 -3 -9 -19 -3 -49 19 -101 54 -131 215 -188 193 -68 319 -115 346 -129 33 -16 53 -50 50 -86 -3 -42 -42 -134 -69 -163 -45 -49 -182 -69 -203 -29 -13 24 -69 57 -209 124 -58 29 -142 71 -186 95 -141 77 -135 75 -150 60 -19 -21 6 -128 45 -183 54 -80 89 -100 249 -142 115 -31 159 -62 198 -142 25 -52 28 -67 28 -167 0 -91 -4 -118 -21 -155 -52 -111 -163 -190 -299 -212 -56 -10 -79 -8 -143 7 -43 9 -81 21 -87 25 -5 3 -26 13 -45 20 -45 18 -137 72 -218 128 -60 42 -92 48 -92 19 0 -13 25 -45 93 -122 28 -32 37 -51 37 -77 0 -52 46 -186 80 -232 83 -112 204 -112 293 2 l39 48 77 2 c171 4 334 92 398 216 46 91 65 250 43 366 -4 25 -11 62 -15 83 -7 35 -6 37 18 37 45 0 173 46 212 76 44 33 79 86 101 151 31 92 -1 188 -97 284 -86 86 -180 142 -379 224 -36 14 -87 37 -115 50 -27 13 -68 29 -90 35 -22 7 -44 16 -49 21 -10 9 -33 11 -52 3z m-211 -1529 c-9 -33 -24 -45 -53 -45 -41 0 -90 62 -90 111 l0 37 75 -41 c62 -35 73 -45 68 -62z"
       id="path12299"
       style="fill:#035f0f;fill-opacity:1" />
    <path
       d="M13903 12486 c-19 -41 -13 -73 22 -114 31 -37 24 -42 -55 -49 -94 -9 -88 -57 11 -107 96 -47 199 -24 240 54 35 65 24 104 -50 183 -44 47 -80 67 -121 67 -25 0 -33 -6 -47 -34z"
       id="path12301"
       style="fill:#035f0f;fill-opacity:1" />
    <path
       d="M4997 12450 c-4 -14 4 -24 29 -39 19 -11 40 -32 46 -47 11 -24 10 -29 -15 -50 -23 -20 -35 -23 -66 -18 -30 5 -39 3 -44 -10 -5 -13 4 -21 38 -36 52 -22 76 -54 68 -93 -10 -52 -75 -71 -144 -42 -11 4 -18 0 -22 -14 -9 -34 57 -71 126 -71 53 0 61 3 98 38 48 45 61 100 35 152 -15 32 -15 34 9 56 59 54 7 137 -115 181 -19 7 -36 13 -36 13 -1 0 -4 -9 -7 -20z"
       id="path12303"
       style="fill:#035f0f;fill-opacity:1" />
    <path
       d="M4622 12359 c2 -15 14 -29 33 -38 17 -7 53 -29 81 -47 36 -23 69 -36 108 -40 54 -7 56 -6 56 17 -1 17 -14 33 -46 54 -79 53 -118 69 -177 73 -57 4 -59 4 -55 -19z"
       id="path12305"
       style="fill:#035f0f;fill-opacity:1" />
    <path
       d="M13554 12063 c-14 -10 -27 -94 -16 -109 4 -6 31 -14 60 -18 50 -6 53 -6 62 19 12 31 13 75 2 92 -10 15 -92 27 -108 16z"
       id="path12307"
       style="fill:#035f0f;fill-opacity:1" />
    <path
       d="M13770 12036 c-14 -37 -13 -81 3 -94 22 -18 92 -25 104 -10 15 17 20 95 7 108 -5 5 -31 13 -57 16 -44 6 -47 5 -57 -20z"
       id="path12309"
       style="fill:#035f0f;fill-opacity:1" />
    <path
       d="M2916 11993 c-7 -17 33 -79 187 -291 l82 -114 434 -145 c355 -118 436 -142 446 -131 7 7 24 47 38 88 15 41 32 89 39 107 17 44 3 56 -95 89 -93 31 -513 187 -871 323 -132 50 -243 91 -247 91 -4 0 -10 -8 -13 -17z"
       id="path12311"
       style="fill:#035f0f;fill-opacity:1" />
    <path
       d="M16055 11978 c-44 -17 -186 -71 -315 -120 -236 -91 -681 -254 -755 -278 -65 -21 -67 -30 -27 -149 19 -58 40 -112 47 -120 11 -11 79 8 427 124 227 75 425 141 439 147 14 5 41 30 59 56 210 293 242 343 230 357 -15 19 -10 20 -105 -17z"
       id="path12313"
       style="fill:#035f0f;fill-opacity:1" />
    <path
       d="M13692 11841 c-6 -3 -15 -27 -21 -51 -8 -35 -7 -48 3 -59 20 -20 98 -32 113 -18 18 18 20 95 3 111 -17 16 -82 27 -98 17z"
       id="path12315"
       style="fill:#035f0f;fill-opacity:1" />
    <path
       d="M4597 11629 c-56 -43 -57 -142 -3 -167 21 -9 22 -13 14 -93 -7 -77 -4 -136 8 -181 6 -20 13 -22 32 -9 17 10 51 240 52 343 0 73 -1 77 -31 102 -37 31 -39 31 -72 5z"
       id="path12317"
       style="fill:#035f0f;fill-opacity:1" />
    <path
       d="M14168 11329 c-42 -24 -20 -43 155 -133 94 -49 183 -98 196 -108 23 -18 92 -25 125 -12 19 7 21 37 4 52 -7 5 -102 55 -210 111 -193 99 -233 112 -270 90z"
       id="path12319"
       style="fill:#035f0f;fill-opacity:1" />
    <path
       d="M3603 11193 c-67 -29 -83 -40 -83 -57 1 -12 24 -55 53 -96 l52 -75 158 -40 c180 -46 179 -46 192 41 3 25 15 69 25 100 29 85 38 78 -190 139 -52 14 -102 25 -110 24 -8 0 -52 -17 -97 -36z"
       id="path12321"
       style="fill:#035f0f;fill-opacity:1" />
    <path
       d="M15275 11209 c-185 -53 -204 -59 -210 -79 -3 -11 5 -58 19 -104 14 -46 26 -91 26 -99 0 -8 7 -20 16 -28 13 -11 40 -7 171 25 l155 38 51 75 c74 107 73 113 -35 157 -49 20 -97 36 -106 35 -9 0 -48 -9 -87 -20z"
       id="path12323"
       style="fill:#035f0f;fill-opacity:1" />
    <path
       d="M14085 11159 c-47 -11 -175 -58 -191 -70 -36 -28 -284 -117 -374 -134 -61 -11 -70 -16 -70 -34 0 -44 271 -59 420 -23 47 11 126 39 175 62 134 63 203 90 275 109 51 13 66 22 68 38 3 21 -16 32 -93 52 -48 13 -154 13 -210 0z"
       id="path12325"
       style="fill:#035f0f;fill-opacity:1" />
    <path
       d="M13483 8603 c-7 -3 -13 -10 -13 -16 0 -20 133 -277 157 -303 22 -24 67 -32 78 -14 3 5 -15 47 -40 92 -25 46 -61 115 -80 154 -26 55 -41 74 -62 81 -16 6 -34 8 -40 6z"
       id="path12327"
       style="fill:#035f0f;fill-opacity:1" />
    <path
       d="M14018 8430 c-9 -5 -22 -26 -28 -45 -9 -29 -8 -45 6 -88 43 -130 127 -189 231 -161 28 8 63 62 63 98 0 36 20 33 61 -11 71 -76 109 -170 109 -271 0 -97 -15 -138 -70 -196 -34 -36 -46 -56 -40 -65 20 -33 144 29 187 93 29 44 47 134 39 189 -10 67 -67 165 -162 283 -76 92 -93 107 -157 139 -56 27 -88 36 -147 40 -45 4 -82 2 -92 -5z m132 -155 c0 -8 -7 -15 -15 -15 -16 0 -20 12 -8 23 11 12 23 8 23 -8z"
       id="path12329"
       style="fill:#035f0f;fill-opacity:1" />
    <path
       d="M4133 8243 c-7 -2 -13 -10 -13 -18 0 -12 129 -129 243 -219 34 -26 73 -59 87 -72 51 -47 144 -70 157 -38 7 18 -30 60 -102 114 -27 21 -70 57 -95 80 -72 66 -161 126 -213 144 -26 9 -49 16 -50 15 -1 0 -8 -3 -14 -6z"
       id="path12331"
       style="fill:#035f0f;fill-opacity:1" />
    <path
       d="M4780 8222 c-28 -13 -56 -37 -73 -62 -20 -28 -24 -158 -6 -191 8 -16 3 -27 -30 -65 -57 -64 -111 -184 -124 -270 -9 -60 -8 -81 7 -134 37 -132 147 -253 317 -349 l56 -31 -39 -81 c-48 -97 -57 -163 -34 -240 37 -124 119 -188 252 -197 104 -7 191 16 352 89 37 17 76 35 87 40 11 5 27 13 35 19 8 5 67 37 130 71 156 83 159 85 153 107 -6 23 -91 62 -136 62 -31 0 -118 -39 -174 -77 -16 -11 -57 -36 -93 -57 -36 -20 -83 -48 -105 -61 -79 -50 -138 -76 -166 -77 -32 -1 -68 27 -90 70 -7 15 -19 34 -25 42 -7 8 -17 32 -22 53 -13 45 -2 82 41 143 26 37 35 42 79 47 32 4 102 31 187 70 75 35 186 84 248 108 62 24 113 49 113 56 0 16 -37 50 -75 70 -39 21 -149 28 -200 14 -22 -6 -76 -34 -119 -63 -180 -121 -201 -127 -314 -81 -165 66 -252 183 -252 341 0 146 65 261 196 348 56 37 203 98 323 134 56 16 71 25 69 38 -3 15 -18 17 -109 17 -85 0 -109 3 -122 17 -9 9 -47 31 -84 49 -57 27 -82 33 -153 36 -47 1 -92 -1 -100 -5z m183 -100 c18 -18 17 -19 -30 -37 -26 -9 -59 -24 -72 -32 -22 -14 -25 -14 -42 8 -33 43 -20 72 38 88 34 10 81 -3 106 -27z"
       id="path12333"
       style="fill:#035f0f;fill-opacity:1" />
    <path
       d="M13331 8217 c-8 -10 6 -47 60 -153 38 -76 79 -148 90 -160 26 -28 55 -36 69 -19 8 10 -1 37 -35 107 l-47 93 51 -51 c69 -69 131 -100 242 -123 125 -26 193 -45 257 -70 62 -25 81 -26 88 -7 7 19 -56 79 -140 133 -84 54 -117 67 -238 89 -51 9 -124 27 -163 40 -63 21 -71 22 -86 8 -16 -15 -19 -12 -40 35 -20 47 -62 91 -87 91 -5 0 -15 -6 -21 -13z"
       id="path12335"
       style="fill:#035f0f;fill-opacity:1" />
    <path
       d="M3765 8132 l-140 -37 -52 -75 c-29 -41 -52 -84 -53 -96 0 -16 19 -29 90 -63 l89 -43 108 32 c175 51 201 60 207 75 3 8 -3 38 -13 68 -10 29 -22 73 -26 98 -10 60 -22 79 -48 78 -12 0 -85 -17 -162 -37z"
       id="path12337"
       style="fill:#035f0f;fill-opacity:1" />
    <path
       d="M15123 8158 c-4 -7 -13 -31 -19 -53 -6 -22 -19 -71 -30 -108 -17 -64 -18 -70 -2 -81 9 -7 80 -32 158 -55 l141 -43 93 43 c112 51 113 56 39 162 l-51 74 -146 37 c-162 40 -171 41 -183 24z"
       id="path12339"
       style="fill:#035f0f;fill-opacity:1" />
    <path
       d="M13044 7851 c-26 -12 -89 -87 -103 -124 -6 -16 -11 -48 -11 -73 0 -39 3 -46 26 -54 39 -15 98 4 127 41 l24 31 22 -35 c11 -19 21 -43 21 -53 1 -53 43 -57 71 -7 44 79 37 171 -19 234 -33 36 -43 42 -87 45 -28 2 -60 0 -71 -5z"
       id="path12341"
       style="fill:#035f0f;fill-opacity:1" />
    <path
       d="M3606 7611 l-420 -138 -45 -64 c-25 -35 -87 -122 -138 -193 -51 -71 -93 -131 -93 -135 1 -42 45 -28 830 268 157 60 309 117 339 127 30 10 58 26 64 34 8 15 -6 61 -68 223 -4 9 -17 17 -29 16 -11 0 -210 -62 -440 -138z"
       id="path12343"
       style="fill:#035f0f;fill-opacity:1" />
    <path
       d="M14045 7728 c-3 -13 -1 -36 4 -52 6 -15 11 -40 11 -55 0 -37 14 -47 74 -54 57 -6 76 -24 76 -73 0 -39 -14 -52 -75 -63 -35 -7 -61 -5 -97 5 -77 23 -88 12 -88 -92 0 -72 -4 -91 -21 -116 -21 -29 -25 -30 -81 -26 -66 5 -73 0 -81 -56 -3 -21 -24 -67 -47 -103 -22 -35 -40 -66 -40 -69 0 -7 -76 -108 -103 -138 -30 -32 -37 -33 -37 -2 0 48 -136 136 -210 136 -64 0 -70 -6 -70 -69 0 -74 37 -186 83 -250 20 -28 37 -57 37 -65 0 -15 -74 -184 -125 -287 -20 -38 -53 -87 -75 -109 -56 -56 -173 -109 -297 -133 -95 -19 -115 -20 -206 -9 -56 6 -136 23 -177 36 -92 30 -99 26 -107 -70 -5 -61 -3 -72 16 -96 21 -26 25 -27 109 -25 59 1 128 -6 215 -23 l127 -24 20 -54 c39 -104 19 -284 -38 -345 -45 -48 -73 -57 -180 -57 -111 0 -124 -8 -97 -60 37 -71 119 -104 242 -98 107 5 164 28 224 90 59 61 89 128 89 204 0 77 -24 219 -49 283 l-19 50 65 32 c100 50 168 132 256 309 63 129 95 189 144 268 l14 23 44 -36 c58 -47 103 -65 165 -65 58 0 96 17 162 72 88 75 85 109 -18 211 -43 42 -65 57 -86 57 l-28 0 29 48 c16 26 38 79 50 119 12 39 36 90 52 113 29 40 30 41 78 34 84 -11 117 26 132 149 5 39 10 72 12 74 2 2 23 -4 47 -12 53 -19 83 -19 119 0 89 45 124 184 75 300 -7 17 -32 52 -55 79 -48 55 -139 102 -214 113 -40 5 -44 4 -50 -19z m-593 -895 c10 -9 18 -29 18 -44 0 -31 -39 -119 -52 -119 -13 0 -48 81 -48 110 0 32 26 70 47 70 9 0 25 -7 35 -17z m322 -192 c27 -30 18 -83 -18 -100 -51 -24 -107 -25 -144 -1 -19 11 -32 26 -30 32 4 12 145 88 164 88 6 0 19 -9 28 -19z"
       id="path12345"
       style="fill:#035f0f;fill-opacity:1" />
    <path
       d="M14995 7733 c-4 -10 -22 -62 -40 -115 -39 -113 -37 -117 45 -143 30 -10 143 -51 250 -92 107 -41 352 -133 545 -204 301 -111 351 -127 363 -115 13 12 -5 41 -124 210 -90 126 -148 198 -164 204 -45 17 -571 190 -705 231 -148 46 -160 48 -170 24z"
       id="path12347"
       style="fill:#035f0f;fill-opacity:1" />
    <path
       d="M13460 7693 c-47 -6 -54 -15 -51 -65 3 -60 15 -71 70 -63 54 8 61 16 61 72 0 32 -5 45 -19 53 -11 5 -21 9 -23 8 -2 0 -19 -3 -38 -5z"
       id="path12349"
       style="fill:#035f0f;fill-opacity:1" />
    <path
       d="M6160 7671 c-19 -11 -57 -25 -85 -33 -57 -15 -129 -76 -123 -105 4 -21 11 -21 97 2 77 20 127 52 160 101 21 30 22 37 10 45 -19 12 -18 12 -59 -10z"
       id="path12351"
       style="fill:#035f0f;fill-opacity:1" />
    <path
       d="M13660 7647 c-21 -11 -24 -18 -22 -57 5 -62 19 -74 76 -66 25 4 49 12 53 19 9 15 4 76 -8 99 -11 21 -62 24 -99 5z"
       id="path12353"
       style="fill:#035f0f;fill-opacity:1" />
    <path
       d="M5795 7637 c-76 -30 -115 -82 -115 -152 0 -70 58 -135 121 -135 17 0 20 -4 16 -22 -14 -53 50 -93 123 -77 35 8 91 34 119 55 2 2 -2 10 -8 18 -9 11 -19 13 -37 5 -43 -16 -82 -11 -98 13 -25 35 -19 54 26 92 37 30 40 36 25 42 -10 3 -35 -1 -55 -9 -64 -27 -82 -29 -107 -13 -20 13 -25 25 -25 61 0 39 4 47 35 71 19 14 35 35 35 45 0 21 -12 23 -55 6z"
       id="path12355"
       style="fill:#035f0f;fill-opacity:1" />
    <path
       d="M13501 7473 c-46 -6 -57 -19 -53 -67 6 -58 18 -69 69 -63 62 7 76 21 67 71 -7 45 -20 67 -38 64 -6 0 -26 -3 -45 -5z"
       id="path12357"
       style="fill:#035f0f;fill-opacity:1" />
    <path
       d="M4095 7254 c-378 -156 -954 -400 -1139 -481 -94 -42 -218 -95 -276 -118 l-105 -43 -76 -103 c-126 -173 -319 -450 -319 -458 0 -4 5 -12 11 -18 9 -9 46 5 148 56 75 38 170 83 211 101 99 43 615 289 1020 485 179 87 424 205 545 261 l220 104 -1 32 c-2 50 -89 228 -111 228 -10 -1 -67 -21 -128 -46z"
       id="path12359"
       style="fill:#035f0f;fill-opacity:1" />
    <path
       d="M14834 7288 c-5 -7 -32 -59 -59 -116 -36 -76 -47 -107 -40 -118 9 -14 576 -292 915 -449 74 -34 189 -89 255 -122 66 -33 251 -121 410 -196 160 -74 352 -164 427 -200 113 -54 139 -63 148 -52 14 17 19 10 -110 185 -59 80 -146 201 -193 270 -82 120 -87 126 -139 145 -29 10 -150 61 -268 113 -356 156 -1308 552 -1326 552 -6 0 -16 -6 -20 -12z"
       id="path12361"
       style="fill:#035f0f;fill-opacity:1" />
    <path
       d="M12811 7228 c-10 -29 -25 -98 -45 -208 -8 -47 -24 -134 -35 -195 -40 -224 -63 -401 -58 -450 7 -69 35 -127 61 -123 16 2 24 21 43 103 45 195 104 528 115 653 l12 127 -27 58 c-28 61 -51 73 -66 35z"
       id="path12363"
       style="fill:#035f0f;fill-opacity:1" />
    <path
       d="M6105 6871 c-28 -7 -85 -35 -129 -64 -11 -6 -70 -53 -132 -103 -98 -80 -132 -101 -229 -145 -11 -5 -60 -12 -110 -16 -80 -7 -90 -10 -90 -28 0 -54 260 -93 350 -52 101 46 181 98 251 163 79 73 152 113 269 148 63 18 80 27 80 42 0 35 -185 75 -260 55z"
       id="path12365"
       style="fill:#035f0f;fill-opacity:1" />
    <path
       d="M4245 6751 c-344 -187 -657 -353 -903 -480 -136 -71 -278 -146 -317 -168 -38 -22 -214 -115 -390 -208 -542 -284 -848 -447 -887 -471 -37 -23 -97 -99 -210 -264 -32 -47 -84 -121 -116 -166 -151 -213 -150 -211 -140 -228 5 -10 17 -15 26 -12 9 3 181 19 382 36 411 35 364 23 540 140 47 31 135 87 195 124 176 108 640 398 840 527 66 42 176 110 245 151 69 41 233 144 365 228 132 84 312 197 400 250 313 189 383 235 389 255 3 13 -13 48 -49 105 -30 47 -77 129 -105 183 -35 67 -55 97 -68 97 -9 -1 -98 -45 -197 -99z"
       id="path12367"
       style="fill:#035f0f;fill-opacity:1" />
    <path
       d="M14607 6828 c-60 -99 -197 -350 -197 -361 0 -15 38 -40 400 -262 118 -73 310 -192 425 -265 205 -131 544 -343 835 -523 80 -49 326 -203 546 -343 l401 -253 314 -26 c173 -15 343 -30 379 -35 49 -6 68 -5 79 6 12 11 12 16 0 32 -8 11 -92 132 -188 268 -96 137 -190 270 -210 297 -32 43 -60 60 -341 208 -287 152 -736 391 -1040 554 -74 40 -241 128 -370 195 -129 67 -320 169 -425 225 -104 56 -275 148 -378 204 -104 55 -195 101 -203 101 -7 0 -20 -10 -27 -22z"
       id="path12369"
       style="fill:#035f0f;fill-opacity:1" />
    <path
       d="M6423 6580 c-11 -5 -29 -22 -39 -39 -14 -23 -29 -32 -66 -41 -27 -5 -64 -10 -82 -10 -68 0 -164 -47 -140 -69 16 -15 386 8 411 25 63 41 67 105 8 130 -39 16 -60 17 -92 4z"
       id="path12371"
       style="fill:#035f0f;fill-opacity:1" />
    <path
       d="M6870 6461 c-14 -5 -59 -24 -100 -44 -82 -38 -176 -121 -270 -237 -30 -36 -146 -160 -259 -277 -235 -243 -270 -268 -359 -261 -142 12 -340 158 -373 276 -26 94 -12 157 53 232 24 27 102 77 168 105 81 35 90 42 90 68 0 17 -5 19 -42 14 -203 -27 -293 -64 -379 -154 -232 -243 -24 -627 367 -678 66 -9 199 24 271 67 53 31 176 145 275 253 48 53 116 114 208 186 74 58 128 107 165 149 77 87 81 90 133 90 34 0 54 5 64 18 32 36 51 88 52 142 1 60 -9 68 -64 51z"
       id="path12373"
       style="fill:#035f0f;fill-opacity:1" />
    <path
       d="M12160 6363 c-27 -11 -39 -37 -40 -86 0 -38 5 -53 25 -72 13 -14 31 -25 39 -25 9 0 18 -12 21 -27 21 -101 53 -206 68 -227 9 -12 19 -16 27 -11 10 6 11 30 6 100 -6 93 -40 297 -52 317 -6 9 -68 39 -76 37 -2 0 -10 -3 -18 -6z"
       id="path12375"
       style="fill:#035f0f;fill-opacity:1" />
    <path
       d="M11656 6221 c-14 -32 -26 -63 -26 -68 0 -6 -17 -48 -39 -94 -21 -47 -51 -120 -66 -162 -27 -76 -28 -79 -11 -113 23 -50 45 -41 74 31 13 33 35 84 48 113 13 29 24 56 24 60 0 5 18 48 40 97 40 91 49 140 30 176 -20 36 -46 23 -74 -40z"
       id="path12377"
       style="fill:#035f0f;fill-opacity:1" />
    <path
       d="M4660 6198 c-58 -38 -143 -98 -190 -132 -47 -35 -170 -121 -275 -193 -104 -71 -284 -194 -400 -273 -115 -79 -257 -176 -315 -215 -58 -39 -190 -131 -295 -204 -104 -73 -227 -158 -272 -189 -82 -57 -97 -77 -67 -89 8 -3 163 9 342 26 l327 32 67 47 c70 49 395 295 682 516 93 72 207 157 253 191 285 206 431 321 432 341 1 32 -138 214 -163 213 -12 0 -68 -32 -126 -71z"
       id="path12379"
       style="fill:#035f0f;fill-opacity:1" />
    <path
       d="M14196 6170 c-52 -71 -73 -106 -69 -120 3 -11 120 -106 272 -219 228 -170 483 -363 611 -461 19 -15 91 -69 160 -120 69 -51 141 -106 160 -121 19 -16 76 -59 127 -97 l91 -68 337 -34 c338 -33 366 -33 353 2 -3 7 -65 54 -138 103 -72 50 -196 135 -273 190 -78 55 -189 131 -247 169 -58 38 -172 116 -255 175 -82 58 -207 144 -276 191 -129 87 -443 305 -629 435 -58 41 -115 74 -127 75 -16 0 -41 -25 -97 -100z"
       id="path12381"
       style="fill:#035f0f;fill-opacity:1" />
    <path
       d="M7036 6214 c-9 -9 -16 -33 -16 -57 0 -32 6 -48 31 -73 l31 -32 -22 -12 c-12 -7 -43 -15 -69 -19 -40 -5 -46 -9 -46 -31 0 -18 12 -32 49 -55 42 -25 59 -30 112 -29 52 0 68 5 98 28 91 69 88 162 -7 240 -68 56 -130 71 -161 40z"
       id="path12383"
       style="fill:#035f0f;fill-opacity:1" />
    <path
       d="M11898 6143 c-23 -6 -32 -74 -25 -191 6 -86 10 -100 48 -170 23 -41 63 -99 88 -127 25 -29 53 -61 61 -71 8 -11 31 -40 51 -64 74 -92 109 -172 143 -322 4 -19 13 -28 25 -28 17 0 20 11 26 103 14 210 -8 270 -207 558 -25 37 -76 120 -113 185 -36 66 -70 122 -73 125 -4 3 -15 4 -24 2z"
       id="path12385"
       style="fill:#035f0f;fill-opacity:1" />
    <path
       d="M11155 5905 c-76 -79 -145 -156 -154 -169 -9 -13 -24 -34 -33 -47 -9 -13 -20 -41 -23 -61 -11 -59 14 -60 76 -1 75 70 260 279 287 321 25 42 26 95 1 100 -10 2 -70 -54 -154 -143z"
       id="path12387"
       style="fill:#035f0f;fill-opacity:1" />
    <path
       d="M5004 5817 c-54 -46 -179 -149 -678 -562 -67 -55 -149 -122 -184 -150 -67 -54 -66 -53 -53 -74 8 -13 35 -12 198 3 304 28 275 20 361 95 244 213 602 544 602 557 0 27 -141 184 -164 183 -12 0 -48 -23 -82 -52z"
       id="path12389"
       style="fill:#035f0f;fill-opacity:1" />
    <path
       d="M13892 5786 c-40 -47 -72 -91 -72 -98 0 -16 55 -70 185 -183 50 -43 177 -158 284 -254 106 -97 199 -179 206 -183 12 -7 408 -48 464 -48 64 0 41 27 -176 207 -118 98 -278 232 -356 297 -249 210 -424 346 -444 346 -12 0 -47 -32 -91 -84z"
       id="path12391"
       style="fill:#035f0f;fill-opacity:1" />
    <path
       d="M6980 5826 c-82 -29 -189 -115 -236 -188 -53 -82 -21 -181 94 -290 l60 -58 -50 -36 c-83 -59 -146 -77 -273 -78 -74 0 -136 6 -190 18 -197 46 -224 61 -271 150 -27 53 -54 71 -69 46 -8 -12 21 -133 41 -171 41 -80 136 -152 243 -183 75 -22 210 -21 291 3 85 24 189 77 269 138 35 26 69 52 76 57 8 6 24 2 46 -12 120 -77 208 -97 282 -63 25 12 48 21 50 21 3 0 7 -27 9 -60 5 -74 43 -133 108 -170 39 -21 57 -25 130 -24 71 1 95 6 143 29 32 15 60 25 61 24 2 -2 15 -27 29 -55 14 -28 42 -65 62 -82 30 -27 43 -32 89 -32 78 0 128 31 208 129 75 92 89 131 64 179 -8 16 -21 32 -28 35 -20 7 -135 -52 -146 -77 -7 -16 -5 -30 11 -59 15 -27 18 -40 10 -48 -18 -18 -47 -1 -88 52 -41 54 -49 92 -32 152 12 43 -16 45 -64 3 -23 -19 -72 -47 -108 -61 -138 -52 -260 -23 -291 71 -10 30 -8 40 16 84 37 68 26 80 -53 55 -76 -24 -166 -30 -206 -14 -18 6 -62 30 -99 52 l-67 41 34 65 c79 157 89 224 44 297 -42 68 -116 91 -199 60z m30 -168 c23 -25 26 -83 6 -137 l-12 -34 -27 33 c-31 37 -67 102 -67 123 0 40 67 50 100 15z"
       id="path12393"
       style="fill:#035f0f;fill-opacity:1" />
    <path
       d="M7727 5777 c-12 -13 -27 -31 -32 -41 -7 -13 -29 -20 -80 -26 -138 -16 -204 -41 -192 -73 6 -15 7 -15 273 2 134 9 165 22 183 72 8 24 7 36 -5 54 -27 42 -112 49 -147 12z"
       id="path12395"
       style="fill:#035f0f;fill-opacity:1" />
    <path
       d="M11409 5750 c-14 -8 -15 -16 -7 -50 6 -22 8 -46 4 -55 -9 -26 -58 -18 -93 16 -18 16 -34 25 -34 20 -4 -28 -2 -39 14 -75 21 -49 21 -52 -3 -76 -30 -30 -62 -25 -99 16 -38 41 -57 40 -55 -3 4 -72 94 -132 168 -112 41 11 86 61 86 93 0 19 4 22 24 19 30 -6 66 38 66 81 0 26 -43 137 -52 136 -2 0 -10 -5 -19 -10z"
       id="path12397"
       style="fill:#035f0f;fill-opacity:1" />
    <path
       d="M10683 5671 c-50 -23 -76 -66 -67 -110 6 -28 -1 -39 -58 -103 -81 -92 -111 -135 -103 -148 7 -12 42 -14 47 -2 2 4 28 27 58 52 30 24 92 82 138 128 75 76 82 86 82 122 0 27 -7 47 -20 60 -24 24 -25 24 -77 1z"
       id="path12399"
       style="fill:#035f0f;fill-opacity:1" />
    <path
       d="M11843 5622 c-17 -10 -83 -190 -77 -207 6 -15 36 -25 77 -25 42 0 111 -35 145 -74 71 -81 66 -252 -11 -372 -47 -73 -151 -158 -252 -205 -62 -29 -72 -31 -153 -27 -61 4 -102 12 -137 28 -141 64 -235 201 -235 342 0 42 -2 48 -21 48 -21 0 -22 -2 -16 -137 6 -145 16 -191 63 -287 43 -88 101 -147 190 -192 73 -37 81 -39 168 -38 100 1 158 21 262 89 55 37 152 136 188 194 118 186 149 463 73 643 -21 51 -89 122 -171 179 -74 52 -75 53 -93 41z"
       id="path12401"
       style="fill:#035f0f;fill-opacity:1" />
    <path
       d="M10430 5554 c-149 -61 -379 -185 -409 -219 -33 -38 -39 -62 -18 -71 22 -8 415 175 461 215 10 9 25 29 33 45 12 24 13 31 1 41 -10 10 -24 8 -68 -11z"
       id="path12403"
       style="fill:#035f0f;fill-opacity:1" />
    <path
       d="M5247 5438 l-115 -113 -6 -95 c-4 -69 -3 -97 6 -106 10 -9 37 -8 112 1 l99 12 103 109 c59 62 103 118 104 129 0 25 -148 175 -172 175 -9 0 -68 -51 -131 -112z"
       id="path12405"
       style="fill:#035f0f;fill-opacity:1" />
    <path
       d="M13602 5467 c-45 -45 -82 -89 -82 -97 0 -13 178 -204 210 -225 8 -5 58 -15 110 -21 125 -15 124 -17 110 112 l-11 99 -112 107 c-62 59 -119 107 -127 107 -9 1 -52 -36 -98 -82z"
       id="path12407"
       style="fill:#035f0f;fill-opacity:1" />
    <path
       d="M8685 5524 c-55 -8 -165 -23 -245 -34 -353 -48 -464 -77 -531 -137 -71 -64 -29 -77 165 -48 55 8 173 24 261 34 238 30 359 54 430 88 56 26 98 73 89 97 -7 19 -31 19 -169 0z"
       id="path12409"
       style="fill:#035f0f;fill-opacity:1" />
    <path
       d="M9490 5519 c-283 -55 -344 -73 -382 -116 -15 -16 -16 -22 -5 -37 12 -16 18 -16 82 -2 39 8 99 20 135 26 230 41 323 72 336 112 13 43 -16 46 -166 17z"
       id="path12411"
       style="fill:#035f0f;fill-opacity:1" />
    <path
       d="M9003 5486 c-134 -74 -172 -140 -218 -376 -9 -47 -28 -119 -42 -160 -49 -145 -32 -162 63 -64 108 112 143 176 194 359 12 44 35 115 51 159 39 109 30 124 -48 82z"
       id="path12413"
       style="fill:#035f0f;fill-opacity:1" />
    <path
       d="M11456 5392 c-43 -10 -51 -31 -35 -83 l14 -44 48 1 c68 1 80 16 64 79 -13 54 -27 61 -91 47z"
       id="path12415"
       style="fill:#035f0f;fill-opacity:1" />
    <path
       d="M9495 5370 c-49 -10 -128 -25 -175 -35 -138 -27 -192 -43 -232 -70 -40 -27 -49 -51 -21 -62 21 -8 254 31 388 64 110 28 168 66 158 104 -6 22 -2 22 -118 -1z"
       id="path12417"
       style="fill:#035f0f;fill-opacity:1" />
    <path
       d="M9859 5364 c-363 -173 -429 -214 -429 -267 0 -29 43 -19 165 37 288 135 327 158 344 208 19 55 1 60 -80 22z"
       id="path12419"
       style="fill:#035f0f;fill-opacity:1" />
    <path
       d="M10655 5266 c-7 -11 -21 -57 -30 -101 -17 -85 -19 -81 31 -111 16 -10 9 -17 -61 -58 -254 -151 -311 -206 -348 -333 -22 -75 -19 -76 165 -68 84 3 166 2 182 -2 l30 -9 -53 -35 c-184 -119 -231 -135 -362 -126 -101 7 -161 38 -231 118 -29 34 -65 76 -80 93 -22 26 -34 31 -70 31 -52 0 -79 -19 -160 -112 -69 -80 -132 -126 -193 -143 -88 -25 -160 4 -191 76 -9 22 -15 122 -20 353 -6 276 -9 324 -22 329 -9 3 -18 0 -20 -6 -2 -7 -10 -18 -17 -25 -7 -7 -23 -33 -36 -58 -23 -42 -24 -55 -27 -259 -2 -136 -7 -223 -14 -238 -25 -48 -72 -64 -203 -65 -138 -2 -175 11 -175 61 -1 88 -30 100 -89 36 -73 -81 -81 -133 -28 -190 45 -49 93 -65 218 -71 82 -4 119 -2 164 11 55 16 68 26 114 86 l19 25 6 -40 c24 -150 93 -224 210 -225 68 0 160 46 221 111 l48 51 56 -55 c72 -70 140 -107 197 -107 36 0 49 6 79 35 19 20 35 42 35 50 0 19 -3 20 71 -17 80 -41 181 -50 262 -23 62 20 157 82 251 164 79 69 160 111 261 136 137 34 172 67 214 198 10 29 10 41 1 52 -9 11 -27 6 -103 -32 l-92 -45 -210 7 c-115 3 -213 10 -218 14 -13 13 117 109 194 144 41 19 125 46 188 62 108 26 114 29 127 60 7 17 16 55 20 83 6 45 3 57 -17 86 -27 40 -44 49 -129 71 -129 33 -150 35 -165 11z m-815 -731 c29 -30 41 -119 17 -128 -12 -5 -127 66 -127 79 0 7 74 74 81 74 3 0 16 -11 29 -25z"
       id="path12421"
       style="fill:#035f0f;fill-opacity:1" />
    <path
       d="M5568 5133 c-57 -64 -143 -161 -193 -215 -185 -202 -306 -344 -310 -363 -3 -11 -9 -76 -15 -145 -5 -69 -14 -167 -20 -219 -9 -76 -9 -96 2 -102 28 -18 8 -40 293 311 66 81 168 205 227 276 274 330 328 398 328 414 0 10 -11 25 -25 34 -13 9 -52 41 -86 71 -34 30 -70 55 -80 55 -10 0 -61 -49 -121 -117z"
       id="path12423"
       style="fill:#035f0f;fill-opacity:1" />
    <path
       d="M13285 5179 c-44 -39 -81 -79 -83 -89 -3 -19 63 -105 298 -386 140 -168 287 -347 412 -503 141 -176 146 -172 124 86 -26 297 -18 273 -127 398 -52 59 -128 144 -169 189 -42 45 -105 115 -140 156 -98 115 -203 220 -220 220 -8 -1 -51 -32 -95 -71z"
       id="path12425"
       style="fill:#035f0f;fill-opacity:1" />
    <path
       d="M9900 5030 c0 -30 -5 -42 -21 -50 -32 -18 -66 -4 -78 31 -12 35 -48 38 -43 4 1 -11 -1 -39 -4 -63 l-5 -43 -47 3 c-45 3 -47 4 -62 46 -18 54 -46 58 -56 7 -13 -70 60 -155 133 -155 50 0 91 25 106 64 6 15 10 17 19 8 19 -19 55 -14 77 9 26 28 34 69 26 129 -6 40 -11 50 -26 50 -15 0 -19 -7 -19 -40z"
       id="path12427"
       style="fill:#035f0f;fill-opacity:1" />
    <path
       d="M8520 4955 c-25 -8 -60 -27 -79 -43 l-34 -28 -7 -115 c-7 -137 -25 -181 -99 -256 -65 -66 -152 -108 -261 -129 -78 -14 -92 -14 -180 1 -103 18 -209 62 -319 133 -99 63 -116 44 -50 -59 53 -82 82 -114 144 -153 66 -43 113 -60 213 -81 97 -19 151 -15 262 22 97 32 169 77 250 155 78 75 103 105 139 167 72 124 127 379 85 395 -9 3 -16 6 -17 5 -1 0 -22 -7 -47 -14z"
       id="path12429"
       style="fill:#035f0f;fill-opacity:1" />
    <path
       d="M12947 4906 c-32 -24 -77 -57 -102 -73 -29 -18 -45 -35 -45 -48 0 -20 120 -198 606 -900 148 -214 327 -473 396 -575 232 -342 329 -475 346 -475 23 0 20 61 -16 415 l-28 275 -215 285 c-118 157 -257 340 -309 408 -52 68 -131 172 -175 231 -44 59 -127 169 -185 245 -58 76 -112 148 -120 160 -38 56 -73 96 -84 96 -7 0 -38 -20 -69 -44z"
       id="path12431"
       style="fill:#035f0f;fill-opacity:1" />
    <path
       d="M5983 4864 c-32 -42 -83 -109 -113 -149 -30 -41 -73 -98 -95 -127 -80 -105 -191 -252 -270 -358 -44 -60 -183 -243 -309 -407 l-230 -298 -13 -130 c-7 -71 -21 -226 -31 -343 -17 -207 -17 -212 2 -218 10 -3 21 -2 25 3 3 5 53 79 110 164 103 152 695 1006 751 1084 16 22 98 141 181 265 84 124 183 269 221 322 38 53 68 105 66 115 -2 10 -39 42 -83 71 -44 30 -87 60 -96 68 -33 29 -56 17 -116 -62z"
       id="path12433"
       style="fill:#035f0f;fill-opacity:1" />
    <path
       d="M6427 4608 c-18 -29 -43 -71 -56 -93 -31 -52 -206 -329 -241 -380 -15 -22 -197 -312 -405 -645 -208 -333 -424 -677 -480 -765 -56 -88 -155 -248 -220 -355 -65 -107 -135 -221 -156 -252 l-39 -57 -20 -208 c-11 -114 -28 -288 -38 -386 -17 -165 -17 -179 -2 -187 13 -7 90 42 332 212 l315 222 100 190 c134 257 444 843 673 1271 187 350 339 637 443 835 30 58 91 174 136 258 53 100 80 160 76 172 -3 10 -52 44 -108 76 -56 31 -134 77 -173 101 -39 24 -78 43 -87 43 -9 0 -31 -24 -50 -52z"
       id="path12435"
       style="fill:#035f0f;fill-opacity:1" />
    <path
       d="M12408 4558 c-137 -79 -177 -108 -177 -123 0 -23 86 -192 368 -720 112 -209 257 -483 323 -610 66 -126 124 -234 128 -240 4 -5 87 -161 185 -345 97 -184 189 -355 203 -380 14 -25 70 -130 123 -235 l98 -190 312 -222 c238 -169 316 -220 329 -213 18 10 19 -12 -26 489 l-25 285 -83 130 c-46 72 -158 250 -248 396 -91 146 -206 328 -255 405 -49 77 -143 228 -208 335 -64 107 -212 343 -328 525 -208 326 -253 397 -420 670 -54 89 -92 141 -104 143 -10 1 -98 -44 -195 -100z"
       id="path12437"
       style="fill:#035f0f;fill-opacity:1" />
    <path
       d="M6986 4208 c-70 -144 -325 -677 -521 -1093 -67 -143 -193 -408 -279 -590 -133 -280 -154 -331 -142 -343 12 -12 54 15 283 182 149 107 275 201 281 208 18 23 207 461 472 1098 83 201 169 402 191 448 23 47 37 91 34 101 -5 16 -218 121 -244 121 -5 0 -39 -60 -75 -132z"
       id="path12439"
       style="fill:#035f0f;fill-opacity:1" />
    <path
       d="M11890 4290 c-61 -29 -108 -57 -113 -68 -7 -15 38 -130 186 -478 108 -253 236 -556 285 -674 165 -396 204 -485 221 -502 9 -9 135 -102 281 -207 215 -154 268 -188 282 -180 13 7 16 14 9 27 -5 9 -59 125 -121 257 -62 132 -174 368 -250 525 -76 157 -224 467 -328 690 -105 223 -207 439 -227 480 -21 41 -48 99 -61 128 -16 36 -28 52 -41 51 -10 0 -65 -23 -123 -49z"
       id="path12441"
       style="fill:#035f0f;fill-opacity:1" />
    <path
       d="M7505 4124 c-12 -13 -25 -37 -28 -52 -3 -15 -100 -279 -216 -587 -206 -551 -220 -598 -176 -581 6 2 97 65 201 139 l189 136 143 437 c118 360 141 439 130 450 -7 6 -60 28 -117 47 l-103 36 -23 -25z"
       id="path12443"
       style="fill:#035f0f;fill-opacity:1" />
    <path
       d="M11485 4127 c-111 -37 -148 -53 -158 -68 -6 -10 32 -140 134 -448 l142 -433 71 -52 c276 -203 317 -230 331 -215 17 17 -7 88 -230 684 -173 465 -204 542 -218 548 -7 2 -39 -5 -72 -16z"
       id="path12445"
       style="fill:#035f0f;fill-opacity:1" />
    <path
       d="M7917 4003 c-3 -5 -24 -74 -47 -155 l-43 -148 38 -85 c21 -47 46 -90 56 -96 15 -7 34 1 93 42 43 30 79 63 85 78 5 14 24 85 43 158 29 117 31 134 18 147 -8 7 -60 25 -116 40 -109 28 -121 30 -127 19z"
       id="path12447"
       style="fill:#035f0f;fill-opacity:1" />
    <path
       d="M11016 3982 c-55 -15 -104 -34 -109 -43 -7 -12 1 -58 28 -167 l39 -151 82 -56 c46 -30 90 -52 97 -49 8 3 33 45 56 93 l42 89 -35 118 c-44 154 -62 194 -84 193 -9 0 -62 -13 -116 -27z"
       id="path12449"
       style="fill:#035f0f;fill-opacity:1" />
    <path
       d="M8342 3897 c-6 -7 -52 -211 -102 -454 l-91 -441 97 -217 c92 -204 114 -240 134 -219 4 5 56 294 115 642 92 538 106 636 94 647 -8 7 -57 20 -109 29 -52 10 -102 19 -111 22 -9 2 -21 -1 -27 -9z"
       id="path12451"
       style="fill:#035f0f;fill-opacity:1" />
    <path
       d="M10601 3886 c-68 -14 -108 -27 -114 -38 -8 -12 15 -168 87 -590 124 -728 117 -693 140 -693 14 0 39 45 113 210 52 116 94 221 95 235 0 14 -39 205 -86 424 -47 219 -86 409 -86 422 0 22 -24 55 -38 53 -4 -1 -54 -11 -111 -23z"
       id="path12453"
       style="fill:#035f0f;fill-opacity:1" />
    <path
       d="M8813 3823 c-7 -2 -13 -18 -13 -34 0 -17 -47 -407 -105 -869 -58 -462 -105 -851 -105 -865 0 -25 277 -635 289 -635 28 1 32 30 56 351 28 374 152 1902 159 1964 3 22 1 47 -4 54 -12 20 -242 49 -277 34z"
       id="path12455"
       style="fill:#035f0f;fill-opacity:1" />
    <path
       d="M10087 3816 c-55 -8 -92 -18 -98 -27 -5 -7 -7 -41 -4 -74 3 -33 37 -465 75 -960 83 -1064 104 -1307 114 -1323 4 -7 13 -12 19 -12 16 0 287 602 287 638 0 15 -47 417 -104 892 -74 605 -109 866 -118 871 -17 11 -61 9 -171 -5z"
       id="path12457"
       style="fill:#035f0f;fill-opacity:1" />
    <path
       d="M9322 3778 c-6 -8 -32 -613 -66 -1543 l-56 -1530 158 -350 c126 -278 162 -350 177 -350 15 0 52 72 179 345 l161 345 -2 70 c-8 390 -109 3003 -116 3013 -7 9 -63 12 -217 12 -154 0 -210 -3 -218 -12z"
       id="path12459"
       style="fill:#035f0f;fill-opacity:1" />
  </g>
</svg>
