<?xml version="1.0" encoding="UTF-8" standalone="no"?>
<svg
   xmlns:dc="http://purl.org/dc/elements/1.1/"
   xmlns:cc="http://creativecommons.org/ns#"
   xmlns:rdf="http://www.w3.org/1999/02/22-rdf-syntax-ns#"
   xmlns:svg="http://www.w3.org/2000/svg"
   xmlns="http://www.w3.org/2000/svg"
   xmlns:sodipodi="http://sodipodi.sourceforge.net/DTD/sodipodi-0.dtd"
   xmlns:inkscape="http://www.inkscape.org/namespaces/inkscape"
   version="1.1"
   id="svg26"
   width="44.264507mm"
   height="52.264511mm"
   viewBox="0 0 167.29891 197.53516"
   sodipodi:docname="_brasão Teixeira de Freitas - BA.svg"
   inkscape:version="1.0.2-2 (e86c870879, 2021-01-15)"
   inkscape:export-filename="C:\GAZILION\_OUTROS\Iconografia\bandeiras, insígnias e brasões\Brasil\bandeiras oficiais\brasão Teixeira de Freitas - BA.png"
   inkscape:export-xdpi="381"
   inkscape:export-ydpi="381">
  <metadata
     id="metadata32">
    <rdf:RDF>
      <cc:Work
         rdf:about="">
        <dc:format>image/svg+xml</dc:format>
        <dc:type
           rdf:resource="http://purl.org/dc/dcmitype/StillImage" />
        <dc:title></dc:title>
      </cc:Work>
    </rdf:RDF>
  </metadata>
  <defs
     id="defs30" />
  <sodipodi:namedview
     pagecolor="#ffffff"
     bordercolor="#666666"
     borderopacity="1"
     objecttolerance="10"
     gridtolerance="10"
     guidetolerance="10"
     inkscape:pageopacity="0"
     inkscape:pageshadow="2"
     inkscape:window-width="1920"
     inkscape:window-height="1017"
     id="namedview28"
     showgrid="false"
     inkscape:zoom="2.3174149"
     inkscape:cx="97.720812"
     inkscape:cy="92.143244"
     inkscape:window-x="-8"
     inkscape:window-y="-8"
     inkscape:window-maximized="1"
     inkscape:current-layer="layer9"
     fit-margin-top="0"
     fit-margin-left="0"
     fit-margin-right="0"
     fit-margin-bottom="0"
     units="mm"
     inkscape:document-rotation="0" />
  <g
     inkscape:groupmode="layer"
     id="layer9"
     inkscape:label="brasão"
     style="display:inline"
     transform="translate(-39.009666,-30.691406)"
     sodipodi:insensitive="true">
    <path
       id="rect1270"
       style="display:inline;fill:#ffffff;fill-opacity:1;stroke:none;stroke-width:0.188976;stroke-linecap:round;stroke-linejoin:round;stroke-miterlimit:4;stroke-dasharray:none;stroke-opacity:1"
       d="M 39.509766,31.191406 V 144.57812 a 83.149605,83.149605 0 0 0 0,0.25782 83.149605,83.149605 0 0 0 83.148434,82.89062 h 0.25782 a 83.149605,83.149605 0 0 0 82.89257,-83.14844 V 31.191406 Z" />
    <path
       id="rect1387"
       style="display:inline;fill:#ffda15;fill-opacity:1;stroke:none;stroke-width:0;stroke-linecap:round;stroke-linejoin:round;stroke-miterlimit:4;stroke-dasharray:none;stroke-opacity:1"
       d="M 39.509766,31.191406 V 61.746094 L 83.777344,103.80859 39.509766,94.339844 v 28.589846 l 55.238281,-10.01563 -0.05273,-3.15625 8.330083,0.0527 -41.048833,-78.619144 z m 52.707031,0 4.945312,63.095703 13.568361,1.72461 14.48828,-64.820313 z m 60.986323,0 -42.24414,66.253906 26.66407,13.109378 68.18554,-79.363284 z m -52.01757,79.998044 -61.675784,29.9961 v 3.39257 a 83.149605,83.149605 0 0 0 0,0.25782 83.149605,83.149605 0 0 0 5.755859,30.13867 l 57.874995,-48.7207 z" />
    <circle
       style="display:inline;fill:#ec252c;fill-opacity:1;stroke:none;stroke-width:0;stroke-linecap:round;stroke-linejoin:round;stroke-miterlimit:4;stroke-dasharray:none;stroke-opacity:1"
       id="path1382"
       cx="104.81799"
       cy="108.17149"
       r="19.370079" />
    <path
       id="path1339"
       style="display:inline;fill:#303591;fill-opacity:1;stroke:none;stroke-width:0.188976;stroke-linecap:round;stroke-linejoin:round;stroke-miterlimit:4;stroke-dasharray:none;stroke-opacity:1"
       d="M 196.98047,31.191406 44.244141,172.23047 a 83.149605,83.149605 0 0 0 6.0625,13.32226 83.149605,83.149605 0 0 0 11.796875,16.00391 L 205.80859,68.859375 v -26.898437 -0.002 -10.767578 z" />
    <path
       id="path1342"
       style="display:inline;fill:#ec252c;fill-opacity:1;stroke:none;stroke-width:0.188976;stroke-linecap:round;stroke-linejoin:round;stroke-miterlimit:4;stroke-dasharray:none;stroke-opacity:1"
       d="M 205.80859,41.958984 50.306641,185.55273 a 83.149605,83.149605 0 0 0 11.796875,16.00391 L 205.80859,68.859375 Z" />
    <path
       id="path1377"
       style="display:inline;fill:none;fill-opacity:1;stroke:#000000;stroke-width:1;stroke-linecap:round;stroke-linejoin:round;stroke-miterlimit:4;stroke-dasharray:none;stroke-opacity:1"
       d="M 39.509766,31.191406 V 144.57812 a 83.149605,83.149605 0 0 0 0,0.25782 83.149605,83.149605 0 0 0 83.148434,82.89062 h 0.25782 a 83.149605,83.149605 0 0 0 82.89257,-83.14844 V 31.191406 Z" />
    <path
       style="display:inline;fill:#303591;fill-opacity:1;stroke:none;stroke-width:0;stroke-linecap:square"
       d="m 166.84008,140.40945 a 24.649093,24.649093 0 0 1 7.43132,8.22857 24.649093,24.649093 0 0 1 -8.16116,-7.33889 v 20.89589 a 24.649093,24.649093 0 0 1 8.16116,-7.33888 24.649093,24.649093 0 0 1 -7.43324,8.23048 h 21.0846 a 24.649093,24.649093 0 0 1 -7.43131,-8.22856 24.649093,24.649093 0 0 1 8.29596,7.53145 v -21.28102 a 24.649093,24.649093 0 0 1 -8.29596,7.52953 24.649093,24.649093 0 0 1 7.43324,-8.22857 z"
       id="path1252" />
    <path
       style="display:inline;fill:#303591;fill-opacity:1;stroke:none;stroke-width:0;stroke-linecap:square"
       d="m 121.8637,186.14173 a 24.649093,24.649093 0 0 1 7.43132,8.22857 24.649093,24.649093 0 0 1 -8.16116,-7.33889 v 20.89589 a 24.649093,24.649093 0 0 1 8.16116,-7.33888 24.649093,24.649093 0 0 1 -7.43324,8.23048 h 21.0846 a 24.649093,24.649093 0 0 1 -7.43131,-8.22856 24.649093,24.649093 0 0 1 8.29596,7.53145 v -21.28102 a 24.649093,24.649093 0 0 1 -8.29596,7.52953 24.649093,24.649093 0 0 1 7.43324,-8.22857 z"
       id="path1260" />
  </g>
</svg>
