<?xml version="1.0" encoding="UTF-8"?><svg id="a" xmlns="http://www.w3.org/2000/svg" viewBox="0 0 1000 350"><path d="M0,209.8035c0-32.0745,3.6213-87.4289,7.2426-102.9488,2.5867-11.3813,10.8639-18.1066,22.2452-18.1066,14.4852,0,23.7972,10.3466,20.6932,22.2452-1.552,6.208,0,10.8639,4.1386,10.8639,10.8639,0,8.7946-36.2131,44.4904-36.2131,32.5918,0,25.8665,30.5225,35.6958,30.5225,9.3119,0,8.7946-30.5225,46.0424-30.5225,28.4532,0,41.9038,18.1066,40.8691,54.837-.5173,19.6586,.5173,34.1438,3.104,53.285,2.0693,13.9679,4.656,29.4879,4.656,37.7651,0,17.0719-11.3813,30.5225-26.3839,30.5225-19.1412,0-28.4532-23.2799-28.4532-70.8743,0-31.5571-4.1386-42.4211-16.0373-42.4211-14.4852,0-20.6932,15.0026-20.6932,50.1811s-6.208,48.6291-23.2799,48.6291c-13.4506,0-20.1759-8.7946-20.1759-26.9012,0-22.2452,7.76-68.2876-16.5546-68.2876-10.8639,0-18.1066,8.2773-21.2106,24.3145-2.5867,13.4506-3.104,29.4879-.5173,52.2504,4.1386,37.2478-3.6213,53.285-24.3145,53.285-22.7625,.0001-31.5571-20.6931-31.5571-72.4262Zm291.2571,140.1965c36.7305,0,67.253-17.0719,84.8422-48.1117,16.5546-29.4878,23.2799-74.4956,23.2799-156.7511,0-23.2799-.5173-37.2478-2.5867-45.0078-3.104-12.4159-9.8293-18.6239-23.2799-18.6239-21.7279,0-30.5225,18.1066-30.5225,62.0797,0,25.8665-1.0347,36.2131-4.656,45.5251-4.1386,10.3466-12.4159,16.5546-22.2452,16.5546-13.4506,0-19.6586-10.8639-19.6586-33.6265,0-21.2106,5.1733-37.2478,5.1733-53.8024,0-20.6932-7.76-31.0398-23.7972-31.0398-22.7626,0-31.0398,20.1759-31.0398,74.4956,0,72.4263,14.4852,102.4314,49.1464,102.4314,16.0372,0,30.0052-6.208,42.9384-19.1412,3.104-3.104,4.6559-4.1386,6.7253-4.1386,2.5867,0,3.6213,2.0693,3.6213,8.2773,0,29.4879-25.3492,52.7677-58.4583,52.7677-32.0745,0-40.3518-22.2452-56.3891-22.2452-10.864,0-19.1412,9.8293-19.1412,22.7626,0,26.3839,34.1438,47.5944,76.0476,47.5944Zm188.8258-55.1216c13.4506,0,24.3145-7.76,26.9012-18.6239,2.0693-7.76,.5173-16.0372-4.656-28.9705-10.8639-27.4185-15.5199-58.4583-15.5199-92.0848,0-13.9679,1.0347-31.0398,4.1386-55.3544,5.6906-43.9731,11.3813-51.2157,40.3518-49.1464,16.5546,1.0346,26.9012,4.656,40.3518,4.656,19.6586,0,28.9705-7.76,28.9705-24.3145,0-11.3813-4.1386-17.5893-13.9679-21.7279C570.6156,2.5867,541.6451,0,484.2214,0,410.7605,0,374.5473,3.6213,353.8541,12.9333c-11.8986,5.1733-17.5893,13.4506-17.5893,25.8665,0,16.0373,9.8292,23.7972,30.0052,23.7972,17.5893,0,29.4879-5.6906,45.0078-5.6906,17.0719,0,23.2799,9.3119,20.6932,32.5918-2.5867,22.2452-4.1386,48.629-4.1386,72.9436,0,82.7729,19.6586,132.4366,52.2505,132.4367Zm108.1219-38.2825c43.4558,0,69.3223-34.1438,69.3223-92.0848,0-55.8717-23.7972-87.9462-64.6663-87.9462-45.5251,0-77.5996,39.3172-77.5996,94.1542,0,52.2504,28.9705,85.8769,72.9436,85.8769Zm2.0693-57.9409c-16.0372,0-24.8319-10.864-24.8319-30.5225,0-21.7279,10.8639-37.2478,26.3838-37.2478,13.9679,0,22.7626,13.4506,22.7626,35.1785,0,21.2105-8.2773,32.5918-24.3145,32.5919Zm51.2157,149.5085c111.226,0,181.5831-49.6637,192.9643-133.4713,2.0693-14.4852,2.5867-29.4879,2.5867-58.4583,0-58.4583-6.7253-76.0476-28.4532-76.0476-20.1759,0-28.4532,13.4506-28.4532,47.0771,0,39.8345-11.3813,61.5624-32.5919,61.5624-12.416,0-18.1066-7.76-18.1066-25.8665,0-9.3119,1.552-22.7626,1.552-34.6612,0-32.0745-10.8639-49.1464-31.0398-49.1464-16.5546,0-25.3492,11.8986-25.3492,33.1092,0,12.9333,3.104,29.4878,4.656,44.4904,.5174,7.2426,2.0693,27.9359,1.552,42.4211-1.0346,33.6265,10.3466,49.6637,35.6958,49.6637,18.1066,0,34.6611-8.2773,51.7331-25.3492,4.1387-4.1386,5.6906-5.1733,7.2426-5.1733,2.5867,0,3.6213,2.0693,3.6213,7.2426,0,38.2825-58.9757,69.8396-131.402,69.8396-45.5251,0-54.837-12.416-72.4263-12.416-16.5545,0-28.9705,10.8639-28.9705,25.8665,0,25.3492,33.6265,39.3171,95.1888,39.3172Zm287.1185-84.8422c43.9731,0,71.3917-23.7972,71.3917-61.045,0-32.0745-20.6932-48.6291-66.2184-53.8024-18.6239-2.0693-25.3492-5.1733-25.3492-12.416s6.7253-10.8639,20.1759-10.8639c11.3812,0,24.3145,2.5867,34.6611,7.2426,9.312,4.1386,16.5546,4.6559,22.2453,1.552,5.6906-2.5867,8.7946-8.2773,8.7946-15.0026,0-20.1759-27.9359-34.6612-67.253-34.6612-44.4904,0-70.8742,18.1066-70.8742,48.6291,0,26.9012,20.1758,40.8691,68.2876,46.0424,23.2799,2.5867,31.5571,6.208,31.5571,14.4852,0,7.2426-6.7252,11.3813-18.6239,11.3813s-26.3839-4.1386-40.3518-12.9333c-6.7252-4.1386-11.8985-6.208-19.1412-6.208-16.5545,0-26.9011,10.3466-26.9011,26.3838,0,28.4532,34.1438,51.2157,77.5996,51.2157Z" fill="#3a2d56"/></svg>