<?xml version="1.0" encoding="utf-8"?>
<!-- Generator: Adobe Illustrator 19.2.1, SVG Export Plug-In . SVG Version: 6.00 Build 0)  -->
<svg version="1.1" id="レイヤー_1" xmlns="http://www.w3.org/2000/svg" xmlns:xlink="http://www.w3.org/1999/xlink" x="0px"
	 y="0px" viewBox="0 0 3084 2000" style="enable-background:new 0 0 3084 2000;" xml:space="preserve">
<style type="text/css">
	.st0{fill:#18498C;}
</style>
<g>
	<path class="st0" d="M163.1,1957.8h61.8v-316.6l143,277.3c19.6,40.4,52.7,40.4,52.7,40.4H517v-125.5h101l62.5,122.2H824v-172.9
		c-2.8-12.5,12.4-9.3,12.4-9.3h97.4v-58.1h-94.9c-14.9,0-14.5-15.8-14.5-15.8v-85.4c-1.1-8.2,17.6-9.6,17.6-9.6h129l23.3-58.1H783.8
		c-36,2.8-43.2,41.4-43.2,41.4v264.8c-6.6,28.7-15.7,4.8-15.7,4.8l-139-282.1c-13.9-27.9-51.2-27.9-51.2-27.9h-87.1v306.3
		c0,24.4-13.4,1.9-13.4,1.9l-146-283.8c-11.7-27.1-49.3-29.6-49.3-29.6h-75.8V1957.8z M518.3,1641.2l71.4,127.6h-71.4V1641.2z"/>
	<path class="st0" d="M1015.8,1102.1c-30.8-214,2.4-380.7,2.4-380.7c28.4-125.3,127.2-120.9,127.2-120.9
		c99.2,2.5,132.7,99.4,132.7,99.4l85.3,291.3C1457.6,1433.2,1749,1729,1749,1729c264.6,294.1,666,270,666,270
		c452.3,0,668.2-327,668.2-327c-413.1,45.2-668.2-337.7-668.2-337.7c-137.9-146.7-413.1-930-413.1-930
		c-179.4-416-496.1-392.6-496.1-392.6c-443,1-480.7,421.3-480.7,421.3c-4.3,12.8-10,1.9-10,1.9l-4.8-25.7
		C884.6-68,488.3,4.4,488.3,4.4C185.6,36.6,169.5,365.6,169.5,365.6C146.9,472,40,457.6,40,457.6C8.5,460.6,4.6,493,4.6,493
		c-19.6,35.7,41.8,25.3,41.8,25.3H144c19.8,3.6,19.8,21.7,19.8,21.7l-0.7,939.6l955.4-2.4
		C1034.3,1295.9,1015.8,1102.1,1015.8,1102.1"/>
	<path class="st0" d="M1253,1655.8c0-89.4-84.4-116-139.5-116c-73.3,0-160.9,50.4-160.9,209.3c0,158.9,82.1,218.9,159.8,218.9
		c78,0,148.2-62.7,148.2-167.4h-65.1c0,0-0.5,98.3-83.2,98.3c-62.5,0-75-118.4-75-150.6c0,0,5.7-152.7,75-152.7
		c58.9,0,77.8,40.1,77.8,55.6c0,0-24.5-13.7-47.2-1.9c-19.1,10-24.2,24.8-24.2,49.9c0,23.3,27.6,45.6,60.9,45.6
		C1216.3,1745,1253,1717.8,1253,1655.8"/>
	<path class="st0" d="M1428.2,1967.6c-55.3,0-155.4-46.5-155.4-219.2c0-173,97.6-211,155.4-211h1.4c56.8,0,156,37.9,156,211
		c0,172.6-100.3,219.2-156,219.2H1428.2z M1428.2,1916.5c43,0,70-77.8,70-168.2c0-91-29.5-163.8-70-163.8
		c-41.4,0-70.5,72.8-70.5,163.8c0,90.3,27.8,168.2,70.8,168.2H1428.2z"/>
</g>
</svg>
