<?xml version="1.0" encoding="utf-8"?>
<!-- Generator: Adobe Illustrator 22.1.0, SVG Export Plug-In . SVG Version: 6.00 Build 0)  -->
<svg version="1.1" id="Calque_1" xmlns="http://www.w3.org/2000/svg" xmlns:xlink="http://www.w3.org/1999/xlink" x="0px" y="0px"
	 viewBox="0 0 701.1 139.1" style="enable-background:new 0 0 701.1 139.1;" xml:space="preserve">
<style type="text/css">
	.st0{fill:#042B60;}
	.st1{fill:#C18F00;}
</style>
<g>
	<path class="st0" d="M203.8,114c-4.9,0-7.4-2.9-7.4-6.7c0.1-6.7,0.3-13.3,0.4-19.5c0.1,0,45.6,0,47.1,0c2.2,0,8,0,9.5-5.6
		c1.8-6.6,2.3-12.1,2.3-12.1h-58.8c0-8.7-0.1-16.2-0.1-22.4c1.1,0,62,0,63.5,0c2.2,0,8,0,9.5-5.6c1.8-6.6,2.3-12.1,2.3-12.1H174
		c0,0-1.1,21.7-1.1,59c0,13.5,0,21,0.3,27.5c0.3,5.6,3.3,16.6,18.7,16.6c0,0,67.3,0,69.3,0c2.2,0,7.8,0,9.5-5.6
		c1.6-5.9,2.3-13.3,2.3-13.3L203.8,114L203.8,114z"/>
	<path class="st1" d="M479.9,114c-4.9,0-7.4-2.9-7.4-6.7c0.1-6.7,0.3-13.3,0.4-19.5c0.1,0,45.6,0,47.1,0c2.2,0,8,0,9.5-5.6
		c1.8-6.6,2.3-12.1,2.3-12.1h-58.8c0-8.7-0.1-16.2-0.1-22.4c1.1,0,62,0,63.5,0c2.2,0,8,0,9.5-5.6c1.8-6.6,2.3-12.1,2.3-12.1h-98
		c0,0-1.1,21.7-1.1,59c0,13.5,0,21,0.3,27.5c0.3,5.6,3.3,16.6,18.7,16.6c0,0,67.3,0,69.3,0c2.2,0,7.8,0,9.5-5.6
		c1.6-5.9,2.3-13.3,2.3-13.3L479.9,114L479.9,114z"/>
	<path class="st0" d="M116.7,5.5c-5.8,1.5-5.6,7.3-5.6,9.5c0,1.8,0,84.2,0,84.2c-9.5-11.4-25.6-30.5-42.7-50
		c-13.7-15.7-32.6-35.7-37.2-40c-3.3-3-7.8-5.6-14.6-5.6C8.4,3.6,0,3.6,0,3.6l0,0V134c0,0,10.4-1.1,17.7-3c5.8-1.5,5.6-7.3,5.6-9.5
		c0-1.8,0-84.7,0-84.7c13.3,16.6,47.4,57.6,80.4,90.4c3.2,3.2,7.7,5.5,14.4,5.6h16.4V2.5C134.4,2.5,124,3.6,116.7,5.5z"/>
	<path class="st1" d="M684.7,31.4c-4.9,1.2-4.9,5.8-4.9,7.6c0,1.4,0,66.8,0,66.8c-8.2-9.1-22.1-24.3-37.1-40
		c-12-12.5-27.5-28-31.5-31.5c-2.9-2.5-6.7-4.5-12.5-4.5c-7.8,0-16.1,0-16.1,0v104c0,0,10.2-0.8,16.5-2.5c4.9-1.2,4.9-5.8,4.9-7.6
		c0-1.4,0-67.3,0-67.3c12.1,13.5,40.7,45.8,68.7,71.9c2.7,2.6,6.6,4.4,12.4,4.5c6.7,0,15.9,0,15.9,0V28.9
		C701.1,28.9,691,29.7,684.7,31.4z"/>
	<path class="st0" d="M357.1,26c-33.5,0-60.7,24.9-60.7,55.4c0,30.6,27.2,55.4,60.7,55.4s60.7-24.9,60.7-55.4
		C417.8,50.9,390.6,26,357.1,26z M357.1,119.5c-21.2,0-38.3-17-38.3-37.9s17.2-37.9,38.3-37.9s38.2,16.9,38.2,37.9
		S378.2,119.5,357.1,119.5z"/>
</g>
</svg>
