<svg xmlns="http://www.w3.org/2000/svg" width="1200" height="600">
  <clipPath id="a">
    <path d="M0 0v150h700v150H600zm0 300v50h300V0h300z"/>
  </clipPath>
  <path fill="#00247d" style="stroke:none;fill:#001e62;fill-opacity:1" d="M0 0h1200v600H0z"/>
  <path d="m0 0 600 300m0-300L0 300" stroke="#fff" stroke-width="60" style="fill:none"/>
  <path d="m0 0 600 300m0-300L0 300" stroke="#cf142b" stroke-width="40" clip-path="url(#a)" style="fill:none;stroke:#da291c;stroke-opacity:1"/>
  <path d="M0 150h700M300 0v350" stroke="#fff" stroke-width="100" style="fill:none"/>
  <path d="M0 150h700M300 0v350" stroke="#cf142b" stroke-width="60" style="fill:none;stroke:#da291c;stroke-opacity:1"/>
  <path style="opacity:1;fill:#fff;fill-opacity:1;fill-rule:nonzero;stroke:none;stroke-width:1.03653693;stroke-linecap:round;stroke-linejoin:miter;stroke-miterlimit:4;stroke-dasharray:none;stroke-opacity:1;paint-order:normal" d="M700 100h400v400H700z"/>
  <path style="opacity:1;fill:#da291c;fill-opacity:1;fill-rule:nonzero;stroke:none;stroke-width:.85837865;stroke-linecap:round;stroke-linejoin:miter;stroke-miterlimit:4;stroke-dasharray:none;stroke-opacity:1;paint-order:normal" d="M867 100h66v400h-66z"/>
  <path style="opacity:1;fill:#da291c;fill-opacity:1;fill-rule:nonzero;stroke:none;stroke-width:.85837865;stroke-linecap:round;stroke-linejoin:miter;stroke-miterlimit:4;stroke-dasharray:none;stroke-opacity:1;paint-order:normal" transform="rotate(90)" d="M267-1100h66v400h-66z"/>
  <path d="M600 0v300H0v300h1200V0H600zm300 150a150 150 0 0 1 150 150 150 150 0 0 1-150 150 150 150 0 0 1-150-150 150 150 0 0 1 150-150z" style="stroke:none;fill:#001e62;fill-opacity:1"/>
  <g style="fill:#ffc828;fill-opacity:1;stroke:#000;stroke-width:.1412148;stroke-miterlimit:4;stroke-dasharray:none;stroke-opacity:1">
    <path style="fill:#ffc828;fill-opacity:1;stroke:#000;stroke-width:.1412148;stroke-linecap:butt;stroke-linejoin:miter;stroke-miterlimit:4;stroke-dasharray:none;stroke-opacity:1" d="M0 0s.66-.41.66-1.114C.66-1.823.532-2.073.5-2.7.462-3.334.386-3.781.759-4.486c.372-.709.895-1.154.895-1.154s.594.594.777.855c.184.259.297.893.259 1.303-.033.405-.112 1.037 0 1.263.114.221.82 1.375.783 1.637-.043.259-.816 2-.816 2l.962.113.113 1.119.744-.188.259.52.523-.261.26.45.41-.262.334.594.551-.447.264.487.485-.598.557.447.329-.631.41.372.302-.634.41.295s.254-.516.254-.778v-.369s.745 0 .782-.189c.038-.184-.221-1.036-.296-1.187-.076-.149-.448-.742-.448-.742s.41-.634.485-.893c.076-.262.076-1.303.594-1.786.518-.483 1.301-.782 1.301-.782l.079-.295s.406-.336 1.188-.336c.777 0 2.266.558 5.758 1.192 3.496.631 4.537 0 5.206-.299.665-.295 1.711-.856 2.342-.856s1.3.373 1.3.966c0 .599-.631 1.004-1.488 1.192-.853.184-5.014-.04-6.093-.372-1.079-.337-2.94-.853-4.98-.853-2.045 0-4.462.554-4.5 2.672-.038 2.118 2.38 2.49 3.048 2.528.669.04 1.636 0 2.008.299.367.294.669.634.669.634l.151-.561s.292.372.48.594c.184.221.745.483 1.075.631.339.151.862.745.862.745s.48-.816.48-1.228c0-.41-.259-1.152-.82-1.447-.555-.299-1.559-.447-2.487-.52-.929-.078-2.493 0-2.714-.038-.227-.04-1.564-.224-1.602-1.487-.033-1.264 1.23-1.524 1.672-1.564.453-.033 2.53-.294 3.054-.033.518.259 1.333.259 1.409.705.075.447.037.819.037.819s.448.034.669-.188c.222-.222.485-.561.485-.561s.26.229.33.45c.08.222.113.632.113.632s.448-.071.707-.37c.264-.3.485-.561.485-.561s.146.188.297.41c.151.222.151.671.151.671s.443-.077.702-.339c.264-.259.485-.631.485-.631s.189.226.26.45c.07.221 0 .593 0 .593s.556-.15.782-.334c.221-.188.405-.559.405-.559s1.23.26 2.083.076c.857-.186 3.161-.226 3.274-2.528.109-2.302-2.049-2.156-2.049-2.156s-.071-.704.452-1.154c.513-.443 1.187-.664 2.007-.554.815.111 1.518.815 2.04.853.519.04 1.155-.148 1.192-.48.034-.335.184-.707.184-.707s.448-.337.556-.521c.113-.188.184-.443.184-.443h-.594s.373-.226.41-.41c.043-.188.076-.633.076-.633l-.335-.038s.038-.594.113-.853c.071-.261.702-.634.632-1.154-.076-.521-.486-.782-.745-1.004-.259-.221-.259-.853-.259-.853s-.448.111-.56.332c-.109.227-.147 1.675-.147 1.675s.038-.56-.146-.855c-.188-.299-.41-.259-.711-.372-.292-.111-.665-.669-.665-.669s-.339.299-.339.632c0 .332.226.742.226.742l.335.671-.561-.599s-.334.116-.594-.032c-.259-.151-.593-.373-.593-.373s-.189.295 0 .667c.183.37.41.41.485.598.071.184.038.443.259.594.222.149.669.259.891.221.221-.039.523 0 .556.373.038.37-.405.742-.815.669-.41-.078-1.748-.893-3.534-.82-1.781.078-2.304 1.265-2.564 1.786-.263.52-.033 1.413-.706 1.818-.669.41-1.635.521-2.078.227-.448-.3-.712-.632-.669-1.082.037-.443.819-.554 1.225-.591.41-.04.853-.151 1.112-.594.259-.45.226-1.192.226-1.192l-.707.189.146-1.376s-.447.148-.669.111c-.221-.038-.221-.373-.33-.705-.113-.337-.296-.488-.296-.488s-.151.3-.561.488c-.41.184-.631-.41-.631-.41s-.297.184-1.155.149c-.853-.038-1.522-.558-2.078-.82-.561-.259-1.041-.37-1.451-.332-.405.037-.895.183-.853.332.038.151.669.45.669.45 0-.005-.301.033-.744.143-.448.116-.707.078-.74.227-.042.151.443.405.631.518.184.115.665.259.702.41.038.148-.669.221-.631.37.038.15.481.372.707.45.221.073.631.443 1.187.332.556-.111.815-.443 1.188-.483.371-.038.673-.111 1.267-.075.598.037 1.263-.113 1.376.52.108.631-.556 1.004-1.338 1.004-.783 0-.632-.445-1.451-.406-.816.033-1.15.705-1.225 1.259-.076.56.852 1.564.852 1.564s-.669-.04-1.338-.372c-.664-.332-.702-.561-.664-.782.033-.222-.523-.37-.82-.26-.302.111-.815.26-.815.038s.259-.41.141-.594c-.108-.188-.853-.148-1.145-.148-.301 0-.674.071-.674-.184 0-.266.556-.299.373-.488-.189-.183-.891-.372-1.711-.372-.815 0-1.743.483-1.743.483s.74-.926.518-1.408c-.226-.488-.485-.559-.669-.71-.189-.148-.669-.11-1.041-.294-.373-.188-.41-.149-.702-.299-.302-.149-1.122-.782-1.122-.782s-.254.117-.292.261c-.042.149-.188.337-.188.337s-.707-.742-1.042-.78c-.334-.04-.259.554-.447.554-.184 0-1.112-.742-1.112-.742s-.043.669-.264.669c-.222 0-.891-.669-.891-.669s-.221.742-1.154.78c-.924.04-1.296-.443-1.889-.41-.599.04-1.494.671-1.494.671s.674.148.711.332c.033.189-1.078.45-1.078.672 0 .221.965.299 1.078.482.109.189-.523.483-.447.67.075.183.89-.111 1.262.15.373.255.448.222.67.073.221-.15.857-.782 1.526-.893.665-.11 1.484-.334 2.342-.15.853.188 2.375.744 2.375.744s-.632-.445-1.225.038c-.594.483-.519.671-.783.782-.259.111-.48-.222-.961-.151-.485.073-1.413.966-1.413.966S.792-8.54.608-8.316c-.184.225.302.779.184 1.079-.109.294-1.334-.189-1.376.072-.033.262.603.971.523 1.23-.071.257-1.225-.075-1.225.184 0 .262.593.782.561 1.004-.038.221-.674.04-.783.221-.113.189.481.521.443.745-.033.221-.155.728-.636 1.027-.485.294-2.035.459-2.035.459l1.898.389s-.428.224-.391.594c.034.372-1.38.063-1.38.063l2.431.853-1.969.266S-1.442 1.048 0 0z" transform="matrix(3.44663 0 0 -3.35215 846.92548 283.63903)"/>
  </g>
  <g style="fill:#ffc828;fill-opacity:1;stroke:#000;stroke-width:.1412148;stroke-miterlimit:4;stroke-dasharray:none;stroke-opacity:1">
    <path style="fill:#ffc828;fill-opacity:1;stroke:#000;stroke-width:.1412148;stroke-linecap:butt;stroke-linejoin:miter;stroke-miterlimit:4;stroke-dasharray:none;stroke-opacity:1" d="M0 0s-.636-.071-.853.035c-.221.116-.504.691-.334.709C-.853.782.085.504.076.372.038 0-.222-1.263-.222-1.263s.151.149.411.111c.259-.038.442-.742.442-.742s.151.742.373.704c.226-.035.523-.11.523-.11S.933.073.971.412c.033.332 1.262.37 1.262.37s-.15-.447-.485-.598c-.334-.149-.707 0-.707 0" transform="matrix(3.44663 0 0 -3.35215 868.75197 286.9724)"/>
  </g>
  <g style="fill:#ffc828;fill-opacity:1;stroke:#000;stroke-width:.1412148;stroke-miterlimit:4;stroke-dasharray:none;stroke-opacity:1">
    <path style="fill:#ffc828;fill-opacity:1;stroke:#000;stroke-width:.1412148;stroke-linecap:butt;stroke-linejoin:miter;stroke-miterlimit:4;stroke-dasharray:none;stroke-opacity:1" d="m0 0 .123-1.713 1.512.724.787 1.314-.787-1.314.193-1.64 1.381.787.264 1.38-.264-1.38.655-1.381.985 1.119.065 1.376-.065-1.376 1.248-1.119.721 1.51-.391 1.251.391-1.251 1.645-.718.391 1.442L8.001.325l.853-1.314 2.101.459-1.051 2.431M3.642 2.973s0-.556.141-.778c.151-.226.114-.56.302-.636.189-.073.222.41.443.377.226-.04 0-.45.188-.782.184-.339.302-.633.632-.671.334-.038.523.41.56.782.033.37-.037.782.147.782.188 0 .151-.561.334-.561.184 0 0 .672.297.856.297.186.561.963.339.963-.23 0-.113-.627-.673-.742-.561-.11-.82 0-.929.226-.113.222-.297.262-.297.262s.071-.189-.108-.373c-.189-.188-.231-.188-.598-.188-.373 0-.556.45-.778.483Z" transform="matrix(3.44663 0 0 -3.35215 852.62582 302.54513)"/>
  </g>
  <path d="m778.2778 316.12193 4.92474-11.48376-11.60255-4.63824 11.60239-4.63818-4.92445-11.48382 11.48379 4.92456 4.63815-11.60262 4.63809 11.60262 11.48398-4.92462-4.92467 11.48388 11.60259 4.63812-11.60259 4.63818 4.92473 11.48394-11.48392-4.92456-4.63815 11.60256-4.63821-11.60268zM1021.7222 316.12193l-4.9247-11.48376 11.6025-4.63824-11.6024-4.63818 4.9245-11.48382-11.4838 4.92456-4.6382-11.60262-4.6381 11.60262-11.48396-4.92462 4.92468 11.48388-11.60261 4.63812 11.60261 4.63818-4.92474 11.48394 11.48392-4.92456 4.6382 11.60256 4.6382-11.60268zM916.122 421.72212l-11.48376-4.92474L900 428.39988l-4.63818-11.60238-11.48382 4.92444 4.92456-11.48376L877.19994 405.6l11.60262-4.63806-4.92462-11.484 11.48388 4.92468L899.99994 382.8l4.63818 11.60262 11.48394-4.92474-4.92456 11.48394 11.60256 4.63812-11.60268 4.63824zM916.122 178.27772l-11.48376 4.92475L900 171.59992l-4.63818 11.60239-11.48382-4.92445 4.92456 11.48379-11.60262 4.63815 11.60262 4.63809-4.92462 11.48398 11.48388-4.92468 4.63812 11.60261 4.63818-11.60261 11.48394 4.92474-4.92456-11.48392 11.60256-4.63815-11.60268-4.63821z" style="fill:#ffc828;fill-opacity:1;fill-rule:nonzero;stroke:none;stroke-width:3.88002229"/>
</svg>
