<?xml version="1.0" encoding="utf-8"?>
<!-- Generator: Adobe Illustrator 15.0.2, SVG Export Plug-In . SVG Version: 6.00 Build 0)  -->
<!DOCTYPE svg PUBLIC "-//W3C//DTD SVG 1.1//EN" "http://www.w3.org/Graphics/SVG/1.1/DTD/svg11.dtd">
<svg version="1.1" id="Layer_1" xmlns="http://www.w3.org/2000/svg" xmlns:xlink="http://www.w3.org/1999/xlink" x="0px" y="0px"
	 width="200px" height="36.518px" viewBox="0 0 200 36.518" enable-background="new 0 0 200 36.518" xml:space="preserve">
<path fill="#0039A6" d="M24.985,20.599L24.523,16.7h-0.106l-0.459,3.971L24.985,20.599z M21.724,15.6l-1.913-0.177V25.56
	l-2.869,0.496v-10.88l-2.447-0.213V10.96l7.229,1.276V15.6z M27.181,24.283l-1.701,0.283l-0.213-1.487l-1.629,0.213l-0.212,1.628
	l-2.199,0.389l2.164-12.754l2.055,0.354L27.181,24.283z M33.241,18.438c0-9.782-7.939-17.72-17.717-17.72
	c-6.132,0-11.554,3.118-14.742,7.865l4.925,0.853l1.346,10.274H7.16l1.488-9.744l4.892,0.852v15.84l-3.083,0.529v-6.804
	c0-2.94,0.033-3.437,0.033-3.437h-0.142L8.506,27.545l-3.083,0.528L3.155,16.665H3.051c0,0,0.14,0.389,0.14,4.005v7.795L1.17,28.819
	c3.226,4.463,8.436,7.336,14.353,7.336C25.302,36.155,33.241,28.218,33.241,18.438"/>
<path fill="#0039A6" d="M58.15,19.112h-3.506c0.142-1.136,0.71-1.811,1.771-1.811C57.125,17.302,58.046,17.728,58.15,19.112
	 M92.028,19.961c0,1.135-0.318,2.621-2.055,2.621c-1.736,0-2.056-1.486-2.056-2.621c0-1.099,0.32-2.588,2.056-2.588
	C91.71,17.373,92.028,18.861,92.028,19.961 M167.861,21.201c0,1.026-0.991,1.701-2.02,1.701c-0.427,0-1.029-0.248-1.029-1.065
	c0-0.918,0.676-1.134,1.526-1.275c0.919-0.143,1.31-0.283,1.522-0.458V21.201L167.861,21.201z M50.676,24.283V12.661h-2.27v8.078
	h-0.034l-4.606-8.078h-2.553v11.622h2.268v-8.291h0.038l4.747,8.291H50.676z M60.49,20.599v-0.428c0-3.933-2.339-4.713-4.038-4.713
	c-3.792,0-4.147,3.297-4.147,4.325c0,3.578,1.877,4.712,4.289,4.712c1.488,0,3.189-0.672,3.793-2.729h-2.341
	c-0.178,0.604-0.815,0.921-1.453,0.921c-1.808,0-1.949-1.452-2.022-2.09L60.49,20.599L60.49,20.599z M73.568,15.673H71.23
	l-1.348,6.164h-0.035l-1.312-6.164h-2.27l-1.202,6.164h-0.038l-1.347-6.164h-2.409l2.409,8.609h2.338l1.348-6.271h0.035l1.348,6.271
	h2.339L73.568,15.673z M86.75,12.661h-2.767l-2.302,5.067l-2.41-5.067h-2.87l4.041,7.229v4.394h2.408v-4.357L86.75,12.661z
	 M94.368,19.961c0-3.085-2.09-4.502-4.395-4.502c-2.304,0-4.394,1.417-4.394,4.502c0,3.118,2.089,4.535,4.394,4.535
	C92.278,24.496,94.368,23.079,94.368,19.961 M100.958,17.764v-2.27c-0.142-0.036-0.315-0.036-0.458-0.036
	c-1.384,0-1.881,0.816-2.34,1.701h-0.036v-1.487h-2.161v8.609h2.231v-4.499c0-0.922,0.356-2.056,2.092-2.056
	C100.5,17.728,100.746,17.728,100.958,17.764 M110.313,24.283l-3.152-5.28l3.049-3.329h-2.766l-2.87,3.26v-6.272h-2.271v11.622
	h2.271v-2.729l0.959-0.956l2.053,3.684L110.313,24.283L110.313,24.283z M124.807,20.313h-2.445
	c-0.282,1.417-1.201,2.162-2.549,2.162c-2.057,0-2.905-1.876-2.905-3.968c0-3.26,1.735-4.041,2.905-4.041
	c1.982,0,2.375,1.313,2.549,1.984h2.445c-0.142-1.7-1.558-4.108-5.031-4.108c-2.977,0-5.352,2.091-5.352,6.13
	c0,4.041,2.233,6.13,5.317,6.13C122.646,24.602,124.313,22.83,124.807,20.313 M128.457,15.673h-2.23v8.609h2.23V15.673z
	 M134.589,24.354v-1.736c-0.179,0.036-0.319,0.036-0.462,0.036c-0.923,0-0.956-0.179-0.956-0.676v-4.678h1.418v-1.628h-1.418v-2.339
	h-2.269v2.339h-1.17v1.628h1.17v5.212c0,1.132,0.354,1.877,2.339,1.877h0.282C133.879,24.39,134.234,24.354,134.589,24.354
	 M128.457,12.554h-2.23v2.091h2.23V12.554z M144.014,15.673h-2.375l-1.77,6.344h-0.037l-1.844-6.344h-2.516l3.154,8.965
	c-0.212,1.169-0.673,1.311-1.488,1.311c-0.178,0-0.318-0.035-0.426-0.035v1.809c0.321,0,0.71,0.036,1.025,0.036
	c1.951,0,2.199-0.463,3.332-3.616L144.014,15.673z M156.203,14.715v-2.054h-9.463v2.054h3.511v9.568h2.442v-9.568H156.203z
	 M161.803,17.764v-2.27c-0.141-0.036-0.281-0.036-0.427-0.036c-1.382,0-1.912,0.816-2.374,1.701h-0.034v-1.487h-2.161v8.609h2.27
	v-4.499c0-0.922,0.316-2.056,2.091-2.056C161.376,17.728,161.625,17.728,161.803,17.764 M170.59,24.283V23.93
	c-0.283-0.072-0.497-0.319-0.497-1.349V17.94c0-2.125-2.229-2.481-3.438-2.481c-1.77,0-3.577,0.356-3.858,3.014h2.195
	c0.069-0.532,0.248-1.204,1.382-1.204c0.604,0,1.488,0.033,1.488,0.992c0,0.496-0.424,0.638-0.778,0.673l-2.056,0.317
	c-1.416,0.212-2.48,1.063-2.48,2.766c0,1.771,1.313,2.479,2.621,2.479c1.523,0,2.27-0.708,2.768-1.242
	c0.032,0.499,0.068,0.641,0.209,1.028L170.59,24.283L170.59,24.283z M179.909,24.283V18.33c0-1.913-1.312-2.871-3.011-2.871
	c-1.631,0-2.27,0.958-2.586,1.489h-0.037v-1.275h-2.162v8.609h2.268v-4.923c0-1.313,0.78-1.987,1.771-1.987
	c1.453,0,1.49,1.063,1.49,1.666v5.244L179.909,24.283L179.909,24.283z M189.337,21.554c0-3.189-5.386-2.195-5.386-3.542
	c0-0.391,0.175-0.853,1.38-0.853c1.242,0,1.454,0.567,1.522,1.133h2.235c-0.18-2.441-2.198-2.834-3.864-2.834
	c-2.692,0-3.474,1.596-3.474,2.871c0,3.225,5.315,2.125,5.315,3.579c0,0.319-0.248,0.887-1.414,0.887
	c-1.42,0-1.883-0.531-1.883-1.275h-2.338c0.071,2.304,2.196,2.977,4.146,2.977C186.927,24.496,189.337,24.071,189.337,21.554
	 M193.34,15.673h-2.266v8.609h2.266V15.673z M199.754,24.354v-1.736c-0.143,0.036-0.318,0.036-0.46,0.036
	c-0.921,0-0.921-0.179-0.921-0.676v-4.678h1.381v-1.628h-1.381v-2.339h-2.268v2.339h-1.17v1.628h1.17v5.212
	c0,1.132,0.354,1.877,2.302,1.877h0.284C199.048,24.39,199.398,24.354,199.754,24.354 M193.34,12.554h-2.266v2.091h2.266V12.554z"/>
</svg>
