<?xml version="1.0" encoding="UTF-8" standalone="no"?><svg height="600" viewBox="0 0 238.12497 158.75001" width="900" xmlns="http://www.w3.org/2000/svg" xmlns:xlink="http://www.w3.org/1999/xlink"><path d="m0 .000004h238.12499v158.749986h-238.12499z" fill="#d90d16"/><g id="a" stroke-width="1.000009" transform="matrix(1 0 0 .99998259 0 .00039)"><path d="m132.88448 43.583445-.17837 6.00507 10.70211 4.63758 5.52942-4.280845z" fill="#fcd41c" stroke="#080808" stroke-linecap="round" stroke-linejoin="round" stroke-width=".901179"/><path d="m62.489539 27.604922c.74961-.439235.700413-3.78644-2.185175-4.030115.458393 1.432197.07271 3.846828.07271 3.846828zm-4.770255-4.066135c.45733-1.138913-1.425539-3.973636-4.057642-2.685917 2.18839 1.576941 1.556875 4.280399 1.556875 4.280399zm-12.518317 6.381953c-.388296-1.142113-4.610535-.405202-5.098229 3.316408 2.788992-1.77282 4.428354-.03713 4.428354-.03713zm5.583005-5.691169c.174805-1.460508-3.450581-3.444162-6.002206-.691116 2.898027.5559 4.118072 3.400635 4.118072 3.400635l1.884134-2.709511zm2.684342 37.156557c-.334793-1.324382-4.153544-1.14319-5.459464 2.490327 2.709692-1.014005 4.720517.766199 4.720517.766199zm-.291275 5.929389c-.827306-1.003248-4.467516.64426-4.025349 5.366662 2.117744-2.857082 4.61073-1.799456 4.61073-1.799456zm9.781737-6.92243c.33795-.987102-2.290115-3.718655-4.702254-2.661925 2.240079 1.445063 2.829563 3.928296 2.829563 3.928296zm113.478294 2.413859c-.43457-.927654-3.49729-.162481-4.1034 2.746933 2.06453-1.198982 3.90912-.211302 3.90912-.211302zm2.79034 6.102078c-1.22056-.162178-3.52862 3.754155-1.60708 6.439523.96568-3.112365 3.60429-4.466691 3.60429-4.466691zm-57.45736-9.072184c.23903-1.098059-1.82303-2.867607-4.09477-.784078 2.2566.519815 2.86446 1.689098 2.82759 1.694365zm-4.61449 2.862313c-.56021-.723547-3.23125-1.068968-3.14704 2.992652 1.93746-1.747391 3.51151-.554889 3.50664-.520884zm.50576 3.921772c-1.08844-.438989-3.05326 1.511794-1.4032 4.144382 1.66201-2.381047 3.0733-2.524253 3.0733-2.524253zm5.95679 3.67419c-1.24912.400253-.64126 3.31518 1.43098 3.520588-.71879-2.240614 1.86816-3.956811.13636-3.956811zm50.56515-2.620812c-.63049-.703499-3.87274 1.013557-2.54664 4.532014 1.3753-2.838928 2.96056-2.015101 2.96056-2.015101zm13.07734 2.738582s-.20268.174336.64937 1.276542c.85205 1.102207 1.30675 3.621106 1.30675 3.621106 1.65617-1.176089 2.42031-5.176151 1.26071-5.22162zm-128.807232 1.311183c-.225071 1.063188.167039 1.08338.617211 1.843048.450106.758793-.268612 3.091321-.268612 3.091321 2.071465.196045 4.705086-3.044602 2.182993-4.540249z" fill="#085d98" stroke="#080808" stroke-width=".654146"/><path d="m135.87217 45.568646c-.15106 6.253318 4.23114 3.839619 8.12437 5.048369 2.02072.678553 3.19116 2.46713 3.08385 4.148296-.10729 1.681167-.61116 2.54464-.85982 4.028692-.15577.929575.36512 1.439999 1.1894 2.383791.82426.9438 1.39069 2.599819 1.09541 3.925992-.39653 1.780818-1.60341 3.976525-3.56874 4.149843.0668-.82858-.0826.529799.0309-.375019 0 0-.21279.754199-.88548 1.149561-.67271.395363-2.28337 1.400554-4.94768.81575 0 0 .69396-.371053.0224.01394-.79422.535925-5.19605.456761-4.07865-.142622.32186.605921 0 0-.19038.09775-.54484.330272-3.64202.615977-3.64202-.323207-.80764.689911-2.30754.480494-3.00563.121484-.55175-.450484-.65428.504217-1.70032.660334-1.0461.156109-3.317-.156117-3.43369-1.407945-.28147-.590201-.0441.465315.009-.313063-3.11381 2.00805-5.72192-.395543-5.98681-2.094373-.10331-.662422-.0507-1.363335.29812-1.989043 0 0-1.33934.110026-1.18054-2.344007.15884-2.454033 1.7773-2.611508 3.48826-2.334117.81392.156109.2064-.220919.34884-.938765.19402-.978158 1.1945-1.20266 2.34307-.643451 1.51198.625701 2.65757 2.520987 3.12267 3.928925.46467 1.407937 3.96148.88295 5.5816.796244 1.97628-.105771 2.18874-1.832529.69763-3.456017-1.49111-1.623481-5.28311-5.004127-5.28311-5.004127-1.44181-1.271052-1.74335-3.523665.11412-4.633522 1.85746-1.109856 3.99152-3.606252 3.82311-5.290164z" fill="#fcd41c" stroke="#080808" stroke-width=".901151"/><path d="m75.612533 52.009196c-.530188 1.551238-.01264 3.832307-1.827243 4.706205-1.824382-.12839-1.8837-2.93829-2.241748-2.322465l.767012-.543994.17776-.299511.382163-.185396z" fill="#fcd41c" stroke="#080808" stroke-width=".784975"/><path d="m79.435098 41.482616s2.990317 10.326077 10.886721 1.682076" fill="none" stroke="#080808" stroke-width=".261658"/><path d="m128.33763 46.551443c-1.97628.312644-6.2132 1.99475-8.68412 4.0098-5.21045 4.249198-14.27658 10.156055-15.43888 11.094819-1.16316.938765-2.85399 1.16664-3.55165.07174-.697654-1.095719-1.163162-.313063-1.046874 1.251829.923904 5.908727-2.029174 7.821533-5.134242 7.753278-.836221-.01842-1.979082-.462628-2.667083-1.019092-.678328 3.302263-3.679662 3.630014-6.390495 3.304358-.04154-.389438.206946-.838889.206946-.838889-.896175 1.134745-3.650245 1.014728-6.014762.843087-.157431-.690749.308041-.620428.275157-1.050271-.793793 1.452417-1.951363 1.217599-4.163116 1.063585-.02608-.305926.287424-.659785.287424-.659785-.96797 1.029407-2.736725.616678-4.3012.641854-.05657-.277115-.489848-.101797-.489848-.101797-.624059.188106-1.952135.386744-3.712207.142506-.873837-.325345-.135296-.776782.05151-1.259804.203449-.495678-2.102313.851944-2.558048-.625701-.09183-.642063 0 0-.486487 1.208599-.303404.753736-.718647 1.23756-1.881382 1.549785-1.163161.313064-4.043814-.125052-4.651388-.781817-.626725-.648363-.930642-2.033645-.465133-2.81672.465133-.78181-2.214253 1.509496-3.371938 1.721427-3.405943.638748-3.853586-5.363396-2.25585-6.104079l.371232-.172096c-1.697336-.71102-1.056994-3.076201-.208781-4.51901.848235-1.442809 3.468556-1.215324 4.999828-.313064.896204.598422 2.814516 2.649695 2.442185 1.094874-.259386-.961008-.260535-2.245663 1.145961-2.708031 4.696496-1.543949 4.210601 3.968506 6.761135 4.585567s4.895582-1.645319 8.851124-1.824655c3.95557-.179342 10.3479-1.744934 10.329984-1.989584-5.210942 1.753734-6.323209-.712869-6.904175-.55676-2.042879.24923-2.534482-1.482911-2.526911-1.466851-1.845535.730229-3.820094-.337352-4.769627-1.24118.663626-.51842 2.991928-1.947879 2.431803-4.051882-2.168603.564606-3.85636 1.784373-4.72613 3.637982-.509374-.653861-1.164281.579856-2.86377-.06466-1.699489-.644535-2.627003-2.212981-4.396329-1.193673-1.891734-2.397069-1.404119-1.848458-3.565613-2.421162-1.311569-.347509-2.121154-2.101951-1.923181-2.441658.198002-.339707-2.041767.310542-2.520055-2.282456.132204-.214157-.496934.03121-1.702784-.516998-1.468082-.890109-1.646073-2.048289-1.761935-2.830106-.750527.07008-2.351066-1.309319-1.628237-1.72142-1.222371-.882112-2.262135-2.333698-1.447782-2.803716-.71317-.546386-.31372-.573159-.715265-1.169992-.741323-.882112-.511693-1.815003.07008-1.815003.581364 0 .667123-2.08272-.27731-2.08272-.944454 0-1.86228.165233-2.446974-.420518-1.180565-1.182793-1.455578-3.389004-.839862-4.942604.517227-1.305201 2.518538-2.682638 3.358429-2.54175.839897.14127.41975.423436.209871-.847255-.209871-1.270684 1.185044-2.22511 2.099171-2.541743 1.107737-.49237 3.111114.07842 3.883111.423812.745282.333436.839551.564706.839551-.423812 0-.694613.600465-1.313299 1.322145-1.495481 1.201299-.276097 2.164189.04465 2.770874.789121.596362.731811 1.049741 1.977044.209901 2.824291-.839552.846872 0 0 1.253565-.15301 1.4608-.178302 2.120894.274291 2.734485 1.000258.762628.902311.768364 2.478155-.314803 3.530275-.955074.927697-2.308696 2.965179-1.574113 3.671163 1.050254 1.13408 5.682266 4.867509 6.666779 5.435907.984513.568405 7.506641.666034 2.298943-.917562.963953-1.657723 2.718866-1.580705 3.727747-1.602212.327222-2.568537 3.393466-1.913838 1.873752-4.095589v-.000014c-1.519721-2.18175-.764809-7.036118 2.462052-5.789737-.902973-2.080921.518202-3.25144 1.863573-2.465866-.408848-1.731917 1.026862-2.786219 2.357806-1.281621-.326991-1.931675 2.192176-3.015077 3.092678-1.184982.09462-1.945242 2.457789-2.883133 3.378823-.383269.687387-2.093094 3.523091-2.420563 3.771583.620666 1.108857-1.722114 3.586022-1.518346 3.121835 1.260345 2.198367-.982161 3.616645.86442 2.726351 3.13388 2.047036-.425618 3.843576 1.471417 2.018626 4.250657 3.94983-1.409498 4.1477 3.899428 2.10889 6.459318 1.05444.62612.61817.60249 1.54838 1.071655.93059.46918 3.21161.878796 4.68973 1.046341s4.9502.0359 7.55825-.312644c2.60805-.348535 6.49117-1.912256 10.92731-2.394549 4.43616-.482299 54.62104.631423 56.13305.474895 1.51197-.156955 3.51959-2.417478 3.40333-4.138479-.11629-1.721008-1.85744-2.96822-3.60157-3.124748-1.74412-.156117-10.69809-.156117-12.32639.156528-1.62783.312225-3.85568.473067-5.11606 2.190181-1.26039 1.717107-.98236 2.097038-1.96771 2.64432-.98531.547274-2.62611-.16519-2.93323-.09358l-.84733.197584c-.65324.25891-2.24037.286593-3.39719 0l-.0881-.09004c-2.37592.637953-5.63034.465842-6.2423.152735-.44695-.327238.43193-.73499-.80429-.130268-.78243.334043-4.023.595496-4.25558-.04703-.0311-.506103-.39833-.258087-.85546-.114143-2.94568.570298-3.43473-.444813-4.9301-.153928-1.49535.290885 2.69939-2.87023 2.01905-2.799779-.93903.09725-3.10028.21641-8.72147.903691-5.62116.687273-14.12694 1.536984-19.00392-.623346-1.65682-.733913-3.04124-2.725824-2.9943-4.537309.0561-2.164289 2.02722-4.065586 3.85344-5.22844 2.93134-1.86652 6.48726-2.08842 10.22097-2.054387 3.23067.02948 7.17185.851236 9.82408.490051 2.65226-.361184 3.41262-2.047826 7.96796-2.502818 4.55537-.454984 8.63233 1.469748 11.14867 3.965219-.69166.170529.32917.02817.32917.02817 3.42099-1.428498 5.95668-2.688764 10.92674-1.443994-1.08548 3.43886-8.27924 7.048934-12.05699 7.601128-3.77772.552187-6.43345.24111-9.014.01979-1.16317-.08477-3.64967.491821-8.66771-1.613576-5.01801-2.10539-7.93803-3.236985-11.96993-3.289086-3.3473-.04327-8.88707.867771-8.88999 4.129925-.003 3.262147 7.04308 2.605959 9.74695 2.651227 2.70387.0453 12.61669-1.065869 19.48181-1.852057 2.32592 0 1.52637.248782 4.77239.24962 3.24598.000723 5.30133-.32041 7.9841-1.30109 2.68273-.98068 2.35669-1.173958 4.91559-1.173958 2.55845 0 21.54187-.710889 24.09991-.554361 3.70315-.02471 7.05855 3.874916 6.82699 7.254984-.23154 3.380068-1.24639 4.741257-1.78378 5.380475 2.97485.01943 7.74224.08626 7.74224 3.773437-2.91228-1.719065-5.70577-1.409606-7.20562-1.409606-.38534.0043-42.20468-.04212-41.26607-.04782 8.85534 1.017242 15.24447 9.881099 17.31275 11.441028 2.06828 1.559936 5.23318 1.407944 6.62807 1.0953 1.39528-.313064 3.02356-1.72142 4.18675-2.81672 1.13893-1.167543 2.21582-1.550436 3.61532-1.18832 1.3995.362109 2.64982 2.113785 1.62073 3.416797 0 0 .74192-.1109 1.97338-.1109 4.69463-.05527 3.69348 2.419298 3.69348 2.419298s3.24131.190367 2.33921 3.857629l.0163.0823c1.91613.22937 2.99614 1.7818 3.09171 3.059686l-.003.657307c.81176.768431 1.53365 4.272193-.65029 4.85928-.24431.06567-.75847.02861-.75847.02861.20695 1.094462.61164 3.488273-2.0317 4.196034-2.64335.707762-4.40172-.98047-4.63465-2.388834-.46384-2.464775-.10281 2.915917-3.30014 3.566802-3.01937.652979-4.62456-1.02144-4.85668-1.803676-.23298-.782655.14112-.76479-1.27859-.313902-1.41972.450889-3.12582-.606556-3.25654-2.033645-.13073-1.427082.22708-2.538485 2.29863-2.734045.25537-.292894.48939.487905-.094-.888202-.58335-1.376108.4889-2.888306 2.07508-3.040217 1.58618-.151912 4.80191 1.888228 5.72074 2.125581 0 0 1.37415-.8126-.74612-2.2046-2.12026-1.392001-6.83436-2.606523-10.64963-2.489649-3.81528.116874-12.06514 2.602044-14.54532 2.501901-1.77179-.07152-7.23426-.238516-9.13164-5.943491-1.54139-5.824377-6.81323-8.12873-9.81083-8.870908-3.79753-.991907-6.20425-1.257398-10.00236-.674552z" fill="#fcd41c" stroke="#080808" stroke-width=".901151"/><path d="m81.862971 39.22215c.524712.835074 2.52301 1.448292 3.420999.548596.678818-.680143 1.021696-.590331 1.298399.388015.286174 1.011716 2.03939.504616 1.995091 1.2404-.11824 1.96404-.881012 3.692799-1.854883 5.701434-1.494718 3.08287-6.216182 2.152435-5.679658.333437.734871-2.491513.576949-6.870943.698317-7.038054z" fill="#085d98" stroke="#080808" stroke-width=".948758"/><path d="m192.55517 67.414959c-.50582-1.361363-2.02367-1.702124-2.02367-1.702124" fill="none" stroke="#080808" stroke-linecap="round" stroke-width=".817682"/><path d="m96.698385 44.99392c1.146792 1.91339 1.483846 4.368153.188481 5.943686" fill="none" stroke="#080808" stroke-linecap="round" stroke-width=".523316"/><path d="m92.142011 49.137499c1.870711 1.973807 2.532444 3.778024 2.059971 6.321508" fill="none" stroke="#080808" stroke-linecap="round" stroke-width=".523316"/><path d="m92.117578 50.870637c.660014 1.428151 1.438868 2.824782.843084 5.75691" fill="none" stroke="#080808" stroke-linecap="round" stroke-width=".523316"/><path d="m87.453345 52.061485c.482826 1.52013.663916 4.026286-1.146791 6.172276" fill="none" stroke="#080808" stroke-linecap="round" stroke-width=".523316"/><path d="m85.015834 57.595692c1.242007-1.348431 1.645698-3.530564 1.376421-5.246522" fill="none" stroke="#080808" stroke-linecap="round" stroke-width=".523316"/><path d="m75.431674 47.39c-1.479237.481764-3.307715 2.552369-3.209516 2.683295" fill="none" stroke="#080808" stroke-linecap="round" stroke-width=".523316"/><path d="m76.540393 50.058564c-1.835189-1.234201-3.899171.925761-3.899171.925761" fill="none" stroke="#080808" stroke-linecap="round" stroke-width=".523316"/><path d="m76.441963 28.696812c1.291211.886317.774894 3.545244.774894 3.545244m24.574453.334462c-1.20976.53422-1.03136 3.321566-1.03136 3.321566" fill="none" stroke="#080808" stroke-linecap="round" stroke-width=".654146"/><path d="m47.411203 27.132542c1.409732.420943 2.295099 1.600832 2.548295 2.716916.253166 1.116077.429929 1.75627.429929 1.75627" fill="none" stroke="#080808" stroke-linecap="round" stroke-width=".901061"/><path d="m58.59794 26.121534c-1.435169 1.304472-1.115337 3.541127-1.115337 3.541127" fill="none" stroke="#080808" stroke-linecap="round" stroke-width=".901061"/><path d="m99.772251 61.455452c.885249-3.056349 4.367659-5.450435 5.206899-5.725831 0 0 .90239.03366-3.0083 2.848348-1.01244.681096-1.974987 2.225941-1.26044 3.218237" fill="none" stroke="#080808" stroke-width=".901061"/><path d="m94.862596 50.146115c4.973908 8.192788-3.610714 9.16672-5.303318 7.971668" fill="none" stroke="#080808" stroke-linecap="round" stroke-width=".901061"/><path d="m101.99341 39.458268c3.04606 1.283759 2.93264 4.160989 3.49098 5.769985-.93391.119735-1.69329-.214611-2.50847-.575095" fill="none" stroke="#080808" stroke-width=".901061"/><path d="m99.472951 49.402557c0 2.723556-1.935534 3.840674-2.820815 4.181435" fill="none" stroke="#080808" stroke-linecap="round" stroke-width=".764614"/><path d="m54.46971 23.828184c.07791 1.098804-.149687 1.471641-.529581 2.433552-.379468.961918.126352 2.646155.126352 2.646155" fill="none" stroke="#080808" stroke-linecap="round" stroke-width=".901061"/><path d="m183.17664 52.677469c-2.40809.336694-3.334 1.025203-3.333 1.024654" fill="none" stroke="#080808" stroke-linecap="round" stroke-width=".817682"/><path d="m188.4965 55.003264c-1.77099.680259-3.2807.710882-3.2807.710882" fill="none" stroke="#080808" stroke-linecap="round" stroke-width=".817682"/><path d="m190.73942 58.963008c-1.51831-.169121-2.32962-.122401-2.32962-.122401" fill="none" stroke="#080808" stroke-linecap="round" stroke-width=".817682"/><path d="m193.97772 62.726143c-.79336-.549868-3.36545-.205047-3.42692-.147845" fill="none" stroke="#080808" stroke-linecap="round" stroke-width=".817682"/><path d="m177.64476 70.581666c.37987-2.042452 2.00693-2.884795 3.39803-2.884795" fill="none" stroke="#080808" stroke-linecap="round" stroke-width=".817682"/><path d="m175.63531 66.068565c1.12623-.17245 2.75066-.06762 2.75066-.06762" fill="none" stroke="#080808" stroke-linecap="round" stroke-width=".817682"/><path d="m71.753529 39.540848c-2.826009 1.844934-3.779494 3.847305-3.214558 7.753401" fill="none" stroke="#080808" stroke-linecap="round" stroke-width=".901061"/><path d="m89.974809 49.135079c1.464499 3.362874 1.666345 9.116779-3.3572 10.993434" fill="none" stroke="#080808" stroke-linecap="round" stroke-width=".894962"/><path d="m85.045223 52.040925c-.253514 2.389086-1.935484 6.825631-5.211658 7.482534" fill="none" stroke="#080808" stroke-linecap="round" stroke-width=".901061"/><path d="m160.52594 34.717177c.63301-1.872921 2.79439-3.528318 2.79439-3.528318" fill="none" stroke="#080808" stroke-linecap="round" stroke-width=".817682"/><path d="m156.55438 34.700322c1.26561-2.212836 3.16817-3.668063 3.16817-3.668063" fill="none" stroke="#080808" stroke-linecap="round" stroke-width=".817682"/><path d="m149.92384 34.682334c1.92433-1.076315 2.73131-1.795837 4.06567-3.625224" fill="none" stroke="#080808" stroke-linecap="round" stroke-width=".817682"/><path d="m144.75918 34.615611c1.15129-.505497 1.75585-.947868 2.52797-1.570859.75583-.609873 1.19539-1.218705 2.02608-2.093839" fill="none" stroke="#080808" stroke-linecap="round" stroke-width=".817682"/><path d="m145.91185 28.7052c-4.40674-.403115-5.91536-2.019855-6.6125-2.923358" fill="none" stroke="#080808" stroke-linecap="round" stroke-width=".901061"/><path d="m153.92876 22.34757c-2.96189 1.20063-4.14629-.01546-4.3994-.01546" fill="none" stroke="#080808" stroke-linecap="round" stroke-width=".901061"/><path d="m76.981469 58.139427c2.414285-1.119726 2.874203-3.753476 2.874203-3.753476" fill="none" stroke="#080808" stroke-linecap="round" stroke-width=".901061"/><path d="m75.906126 45.795626c-2.228932-.340755-7.86721 4.407207-6.048369 10.310907" fill="none" stroke="#080808" stroke-linecap="round" stroke-width=".97511"/><path d="m72.364194 43.192217c-3.16622.600719-4.717446 5.61613-2.782483 8.564166" fill="none" stroke="#080808" stroke-linecap="round" stroke-width=".981218"/><path d="m100.63526 41.012403c2.09254 2.782729 2.88925 4.484434 3.01013 5.453411.19732 1.683658.41467 4.978827-4.531029 4.911685.383196-1.275994.732235-3.698652-.05902-5.009235" fill="none" stroke="#080808" stroke-linecap="round" stroke-width=".823098"/><path d="m91.534177 28.854951c-.402484.01922-.663077.126627-.684497.528997-.0058.09097-.114367.405209-.159981.731212-.04559.326002-.03359.677354.0072 1.071749.209843.935058 1.41653 1.057813 1.640742.28798.129191-.482609.188401-.889581.182029-1.28123-.0036-.195814-.03554-.431383-.07138-.607048-.10835-.453301-.461608-.740061-.913665-.731667z" fill="#080808"/><path d="m84.154719 29.341751c.1966-.630223.32668-2.034317-1.005868-1.754868-.0112.0051-.02239.01047-.03395.01611l-.0029.0014-.0029.0014c-.3411.233199-.648889.916225-.734215 1.310995-.08527.39477-.400996 1.567247.710649 1.64412l.0029-.000181.0029-.000173c.0089.000289.02724.0014.02724.0014.540453-.12766.899158-.700638 1.035978-1.220186z" fill="#080808"/><path d="m98.405063 35.152605h-1.973324c-1.397206 2.469767-5.319826 1.624232-4.265592 2.09568" fill="none" stroke="#080808" stroke-linecap="round" stroke-width=".901061"/><path d="m92.018895 37.12103c.174726 3.258455-5.711308 5.917765-5.856241.845528" fill="none" stroke="#080808" stroke-linecap="round" stroke-width=".901061"/><path d="m86.153769 37.937141c-.128881 2.38322-3.331338 2.73973-4.487767.696852-.899989-1.361781-1.622045-1.093082-2.204045-1.857575-.632627-.831001-.576978-1.459996-1.308578-2.846845" fill="none" stroke="#080808" stroke-linecap="round" stroke-width=".908161"/><path d="m94.954366 36.734018c-1.376017 3.70261-.329975 6.129386-.329975 6.129386" fill="none" stroke="#080808" stroke-linecap="round" stroke-width=".901061"/><path d="m79.491924 37.504046c-.796777 1.239568-1.492053 1.338122-1.492053 1.338122" fill="none" stroke="#080808" stroke-linecap="round" stroke-width=".654146"/><path d="m101.97271 37.179409s.59998.479872 1.29067.41403c.88382-.08425 1.63612-.151565 2.62955.252914-.55493.794489-1.49859 1.591838-2.62838 1.889139-.36154.09513-1.05794-.253861-1.23622-.328126" fill="#fcd41c" stroke="#080808" stroke-width=".901061"/><path d="m48.387401 40.168615c1.343189.282722 2.135147-.547996 2.078177-.505258" fill="none" stroke="#080808" stroke-linecap="round" stroke-width=".654146"/><path d="m49.322738 42.852495c2.375845.724746 4.10369-.667146 4.10369-.667146" fill="none" stroke="#080808" stroke-linecap="round" stroke-width=".654146"/><path d="m52.328602 65.775729c1.498793-.621106 3.525902-.03915 3.525902-.03915" fill="#085d98" stroke="#080808" stroke-linecap="round" stroke-width=".901061"/><path d="m57.559353 70.244827c.759355-1.361355 1.876216-1.899036 1.876216-1.899036" fill="#085d98" stroke="#080808" stroke-linecap="round" stroke-width=".901061"/><path d="m71.347346 72.830464c1.005925-.384165 1.070524-2.455976 1.02689-3.8646" fill="none" stroke="#080808" stroke-linecap="round" stroke-width=".817682"/><path d="m75.985289 72.337365c.940958-.719819.631768-3.352652.631768-3.352652" fill="none" stroke="#080808" stroke-linecap="round" stroke-width=".817682"/><path d="m79.677507 72.372366c.850995-.90122.680885-3.555878.680885-3.555878" fill="none" stroke="#080808" stroke-linecap="round" stroke-width=".915804"/><path d="m85.568785 72.316949c.929493-1.15628.536328-3.634572.536328-3.643595" fill="none" stroke="#080808" stroke-linecap="round" stroke-width=".915804"/><path d="m125.71337 66.748701c-2.6016 1.524494-2.57387 2.784109-2.54586 3.148299" fill="none" stroke="#080808" stroke-linecap="round" stroke-width=".784975"/><path d="m129.5741 66.846084c-.25354 2.212836-1.83634 3.648298-1.83634 3.648298" fill="none" stroke="#080808" stroke-linecap="round" stroke-width=".784975"/><path d="m132.79141 66.986827c-.08 2.10612-1.59062 3.491192-1.59062 3.491192" fill="none" stroke="#080808" stroke-linecap="round" stroke-width=".784975"/><path d="m136.66859 67.022349c-.006 2.489815-1.45383 3.515812-1.45383 3.515812" fill="none" stroke="#080808" stroke-linecap="round" stroke-width=".784975"/><path d="m140.83899 67.028497c-.10683 1.838626-.59151 2.860759-1.35087 3.541017" fill="none" stroke="#080808" stroke-linecap="round" stroke-width=".784975"/><path d="m145.10456 66.421933c.37989 1.191823-.18689 2.426696-.18689 2.426696" fill="none" stroke="#080808" stroke-linecap="round" stroke-width=".784975"/><path d="m119.77229 60.845919c2.12953.4564 2.77596 1.506303 2.77596 1.506303" fill="none" stroke="#080808" stroke-linecap="round" stroke-width=".784975"/><path d="m117.60105 65.271374c1.36639-2.633837 3.44579-1.115867 4.0911-.453069" fill="none" stroke="#080808" stroke-linecap="round" stroke-width=".784975"/><path d="m106.7164 59.923286c-1.80976.721813-2.66583.491402-3.62849-.146891" fill="none" stroke="#080808" stroke-linecap="round" stroke-width=".572377"/><path d="m109.14012 58.145213c-1.87782.880306-2.96656.825026-3.94536.08286" fill="none" stroke="#080808" stroke-linecap="round" stroke-width=".572377"/><path d="m112.37105 55.968043c-1.2698.722225-1.99305.969403-2.62356.380213" fill="none" stroke="#080808" stroke-linecap="round" stroke-width=".572377"/><path d="m114.61173 54.29111c-1.55398.722225-2.43923.969403-3.21077.380206" fill="none" stroke="#080808" stroke-linecap="round" stroke-width=".572377"/><path d="m88.937025 40.450044s-.380097 1.545336-.328971 2.327167c.05252.807283.648282 2.338777.648282 2.338777.607689-.561918 1.852189-2.153893 2.347483-6.276818m-11.747801-1.809072s-.52724 2.46359-.533828 3.653651c-.0086 1.562168.738195 2.841846.738195 2.841846s1.420691-1.354601 1.800636-4.823701" fill="none" stroke="#080808" stroke-width=".784975"/><path d="m50.807509 44.442968c2.096924.322629 3.395445-.645632 3.508295-.722361" fill="none" stroke="#080808" stroke-linecap="round" stroke-width=".654146"/><path d="m59.887511 52.911131c.01864.03381 2.040849.220181 3.317951-2.15843" fill="none" stroke="#080808" stroke-linecap="round" stroke-width=".752267"/><path d="m56.079257 49.956623c1.37679.277469 2.717776.378132 4.07722-1.539333" fill="none" stroke="#080808" stroke-linecap="round" stroke-width=".752267"/><path d="m52.81561 47.339343c.237259-.04089 2.437403 1.543869 4.793829-1.23548" fill="none" stroke="#080808" stroke-linecap="round" stroke-width=".752267"/><path d="m93.942365 30.545813c.06285 1.84697-4.445107 1.37584-4.767366.102281-.453669-1.540214 2.660227-1.904873 3.967548-1.397274.68894.2675.776129.820272.799818 1.294985z" fill="none" stroke="#080808" stroke-width=".829457"/><path d="m85.655469 29.233142c-.37259-1.856254-3.336308-2.038724-4.335985-1.495879-.139117.07557-.328804.334123-.390904.463748-.588277 1.897215 2.733799 2.288647 3.544938 2.268622" fill="none" stroke="#080808" stroke-width=".829457"/><path d="m84.27285 33.349558s-.594729-2.1145 1.057246-3.568224c1.651925-1.453718 1.916246-3.832532 1.916246-3.832532" fill="none" stroke="#080808" stroke-linecap="round" stroke-width=".915804"/><path d="m88.567909 33.547792s.726875-.859016.198233-2.577048c-.528612-1.718032 1.255488-3.23783 1.255488-3.23783" fill="none" stroke="#080808" stroke-linecap="round" stroke-width=".915804"/><path d="m87.821543 33.404079c2.913452.315629 2.126891 2.946389.179248 2.214513.179256 2.896454-3.395041 2.531354-3.089036.312225-1.803186.617675-2.756736-2.427816.09066-2.461698" fill="none" stroke="#080808" stroke-linecap="round" stroke-width=".901061"/></g><use height="100%" transform="translate(0 63.896873)" width="100%" xlink:href="#a"/></svg>