<svg id="Layer_1" data-name="Layer 1" xmlns="http://www.w3.org/2000/svg" viewBox="0 0 170.0787 56.6929"><defs><style>.cls-1{fill:#ffda00;}.cls-2{fill:#2071b5;}</style></defs><title>VF_logo_landscape_black_RGB</title><path class="cls-1" d="M145.0547,17.4956a10.8509,10.8509,0,0,0-10.8508,10.8509h21.7016A10.8508,10.8508,0,0,0,145.0547,17.4956Z"/><path class="cls-2" d="M145.0547,39.1973a10.8508,10.8508,0,0,1-10.8508-10.8508h21.7016A10.8508,10.8508,0,0,1,145.0547,39.1973Z"/><polygon points="47.424 22.481 37.35 22.481 37.35 25.135 40.938 25.135 40.938 34.864 44.181 34.864 44.181 25.135 47.424 25.135 47.424 22.481"/><polygon points="48.554 22.481 48.554 25.135 51.798 25.135 51.798 34.864 55.041 34.864 55.041 25.135 58.628 25.135 58.628 22.481 48.554 22.481"/><polygon points="83.312 34.864 83.312 22.481 80.216 22.481 80.216 29.891 74.697 22.481 71.602 22.481 71.602 34.864 74.697 34.864 74.697 27.544 80.216 34.864 83.312 34.864"/><polygon points="60.201 34.864 63.444 34.864 69.357 34.864 69.357 32.211 63.444 32.211 63.444 29.774 68.456 29.774 68.456 27.12 63.444 27.12 63.444 25.135 69.357 25.135 69.357 22.481 60.201 22.481 60.201 34.864"/><polygon points="85.779 34.864 89.023 34.864 89.023 29.852 94.258 29.852 94.258 27.199 89.023 27.199 89.023 25.135 95.231 25.135 95.231 22.481 85.779 22.481 85.779 34.864"/><polygon points="24.39 22.481 20.864 31.187 20.836 31.187 17.309 22.481 14.173 22.481 19.253 34.864 22.446 34.864 27.526 22.481 24.39 22.481"/><polygon points="119.057 34.864 128.012 34.864 128.012 32.116 122.3 32.116 122.3 22.481 119.057 22.481 119.057 34.864"/><polygon points="108.703 34.864 117.658 34.864 117.658 32.116 111.946 32.116 111.946 22.481 108.703 22.481 108.703 34.864"/><path d="M104.5126,34.8645h3.1357l-5.1619-12.3834H99.31L94.1481,34.8645h3.1358l.8893-2.2114h5.45Zm-5.32-4.7318,1.6944-4.2294h.0215l1.7006,4.2289Z"/><path d="M35.8,34.8645h3.1357l-5.162-12.3834H30.597L25.4349,34.8645h3.1359l.8893-2.2114h5.45Zm-5.32-4.7318,1.6944-4.2294h.0214l1.7006,4.2289Z"/></svg>