<?xml version="1.0" encoding="UTF-8" standalone="no"?>
<svg
   xmlns:dc="http://purl.org/dc/elements/1.1/"
   xmlns:cc="http://creativecommons.org/ns#"
   xmlns:rdf="http://www.w3.org/1999/02/22-rdf-syntax-ns#"
   xmlns:svg="http://www.w3.org/2000/svg"
   xmlns="http://www.w3.org/2000/svg"
   viewBox="0 0 499.99999 190.58367"
   height="190.58368"
   width="500"
   xml:space="preserve"
   version="1.1"
   id="svg3336"><metadata
     id="metadata3342"><rdf:RDF><cc:Work
         rdf:about=""><dc:format>image/svg+xml</dc:format><dc:type
           rdf:resource="http://purl.org/dc/dcmitype/StillImage" /><dc:title></dc:title></cc:Work></rdf:RDF></metadata><defs
     id="defs3340"><clipPath
       id="clipPath3350"
       clipPathUnits="userSpaceOnUse"><path
         id="path3352"
         d="m 0,0 602.646,0 0,841.89 L 0,841.89 0,0 Z" /></clipPath><clipPath
       id="clipPath3362"
       clipPathUnits="userSpaceOnUse"><path
         id="path3364"
         d="m 599.845,745.033 2.8,0 0,5.518 -2.8,0 0,-5.518 z" /></clipPath><clipPath
       id="clipPath3378"
       clipPathUnits="userSpaceOnUse"><path
         id="path3380"
         d="m 0,0 602.646,0 0,841.89 L 0,841.89 0,0 Z" /></clipPath><clipPath
       id="clipPath3400"
       clipPathUnits="userSpaceOnUse"><path
         id="path3402"
         d="m 221.12426,493.22873 55.52973,0 0,-53.4386 -55.52973,0 0,53.4386 z" /></clipPath><radialGradient
       id="radialGradient3404"
       spreadMethod="pad"
       gradientTransform="matrix(54.470871,0,0,-54.470871,239.86938,441.49567)"
       gradientUnits="userSpaceOnUse"
       r="1"
       cy="0"
       cx="0"
       fy="0"
       fx="0"><stop
         id="stop3406"
         offset="0"
         style="stop-opacity:1;stop-color:#9fc9eb" /><stop
         id="stop3408"
         offset="0.4854273"
         style="stop-opacity:1;stop-color:#76acdc" /><stop
         id="stop3410"
         offset="1"
         style="stop-opacity:1;stop-color:#0073bc" /></radialGradient><clipPath
       id="clipPath3418"
       clipPathUnits="userSpaceOnUse"><path
         id="path3420"
         d="m 187.087,391.478 241.536,0 0,101.75 -241.536,0 0,-101.75 z" /></clipPath><clipPath
       id="clipPath3546"
       clipPathUnits="userSpaceOnUse"><path
         id="path3548"
         d="m 173.437,26.12 43.402,0 0,39.074 -43.402,0 0,-39.074 z" /></clipPath><clipPath
       id="clipPath3564"
       clipPathUnits="userSpaceOnUse"><path
         id="path3566"
         d="m 34.016,26.12 182.829,0 0,39.077 -182.829,0 0,-39.077 z" /></clipPath></defs><g
     transform="matrix(1.25,0,0,-1.25,-276.56986,724.44943)"
     id="g3344"><g
       transform="matrix(2.3091149,0,0,2.3091149,-290.69668,-560.16058)"
       id="g3386"><g
         id="g3388"><g
           id="g3394"><g
             id="g3396"><g
               clip-path="url(#clipPath3400)"
               id="g3398"><path
                 id="path3412"
                 style="fill:url(#radialGradient3404);stroke:none"
                 d="m 255.049,493.018 c -4.703,-0.794 -16.068,-4.772 -23.192,-9.208 l 0,0 c -8.184,-5.096 -10.733,-10.056 -9.512,-16.307 l 0,0 c 1.061,-5.41 3.34,-10.717 7.208,-16.951 l 0,0 c 4.238,-6.819 10.625,-10.762 18.629,-7.166 l 0,0 c 8.005,3.607 19.444,12.032 23.607,17.154 l 0,0 c 4.865,5.996 4.865,11.495 3.061,17.015 l 0,0 c -1.426,4.369 -3.598,7.541 -6.601,10.849 l 0,0 c -2.542,2.801 -6.325,4.824 -10.729,4.824 l 0,0 c -0.804,0 -1.629,-0.068 -2.471,-0.21" /></g></g></g></g></g><g
       transform="matrix(2.3091149,0,0,2.3091149,-290.69668,-560.16058)"
       id="g3414"><g
         clip-path="url(#clipPath3418)"
         id="g3416"><g
           transform="translate(241.8112,438.6509)"
           id="g3422"><path
             id="path3424"
             style="fill:#ba0d2b;fill-opacity:1;fill-rule:nonzero;stroke:none"
             d="m 0,0 c 0.957,1.42 2.235,1.903 4.366,1.335 1.859,-0.486 4.452,-1.948 5.099,-2.581 0.948,-0.943 1.263,-1.893 1.101,-3.369 -0.131,-1.209 -0.438,-2.209 -1.009,-3.331 -0.838,-1.65 -2.009,-2.657 -3.552,-2.682 -1.537,-0.037 -4.765,0.329 -6.603,1.142 -1.831,0.818 -2.057,2.768 -1.434,4.88 C -1.466,-2.682 -0.835,-1.236 0,0" /></g><g
           transform="translate(291.2473,453.1558)"
           id="g3426"><path
             id="path3428"
             style="fill:#1f6fb8;fill-opacity:1;fill-rule:nonzero;stroke:none"
             d="m 0,0 c -8.17,0 -11.891,-6.548 -11.891,-12.63 0,-6.074 3.721,-12.633 11.891,-12.633 8.173,0 11.894,6.559 11.894,12.633 C 11.894,-6.548 8.173,0 0,0 m 0,-24.069 c -7.4,0 -10.029,6.168 -10.029,11.439 0,5.276 2.629,11.438 10.029,11.438 7.404,0 10.03,-6.162 10.03,-11.438 0,-5.271 -2.626,-11.439 -10.03,-11.439" /></g><g
           transform="translate(313.968,446.3535)"
           id="g3430"><path
             id="path3432"
             style="fill:#1f6fb8;fill-opacity:1;fill-rule:nonzero;stroke:none"
             d="m 0,0 -2.652,0 0,4.886 c 0,1.117 -0.569,1.117 -0.802,1.117 -0.244,0 -0.808,0 -0.808,-1.117 l 0,-4.886 -2.656,0 c -0.398,0 -0.599,-0.163 -0.599,-0.487 0,-0.323 0.201,-0.488 0.599,-0.488 l 2.656,0 0,-16.415 c 0,-1.07 0.564,-1.07 0.808,-1.07 0.233,0 0.802,0 0.802,1.07 l 0,16.415 2.652,0 c 0.396,0 0.601,0.165 0.601,0.488 C 0.601,-0.163 0.396,0 0,0" /></g><g
           transform="translate(327.4377,436.1568)"
           id="g3434"><path
             id="path3436"
             style="fill:#1f6fb8;fill-opacity:1;fill-rule:nonzero;stroke:none"
             d="M 0,0 C -1.026,0.372 -4.013,1.446 -5.164,1.861 -7.61,2.745 -8.61,4.063 -8.61,5.906 c 0,2.782 3.519,4.508 6.775,4.508 2.036,0 4.224,-0.405 6.12,-1.492 C 5.185,8.416 4.456,7.381 3.638,7.815 2.2,8.569 1.146,9.44 -1.72,9.44 c -2.498,0 -5.093,-1.153 -5.093,-3.349 0,-1.278 1.006,-2.234 2.548,-2.764 C -3.78,3.158 -0.323,1.934 0.268,1.726 3.503,0.58 5.38,-0.686 5.38,-3.242 c 0,-3.004 -3.004,-5.022 -7.477,-5.022 -3.761,0 -6.244,1.669 -7.304,2.732 -0.846,0.844 0.198,1.74 0.913,1.032 0.763,-0.753 2.745,-2.789 6.518,-2.789 3.125,0 5.545,1.697 5.545,3.937 C 3.575,-1.226 1.699,-0.613 0,0" /></g><g
           transform="translate(353.0833,446.5708)"
           id="g3438"><path
             id="path3440"
             style="fill:#1f6fb8;fill-opacity:1;fill-rule:nonzero;stroke:none"
             d="m 0,0 c -0.248,0 -0.816,0 -0.816,-1.068 l 0,-10.952 c 0,-1.492 -0.12,-2.722 -0.789,-3.653 -0.952,-1.309 -2.803,-2.03 -5.313,-2.03 -2.477,0 -4.291,0.728 -5.255,2.062 -0.671,0.926 -0.868,2.149 -0.868,3.621 l 0,10.952 C -13.041,0 -13.6,0 -13.847,0 c -0.243,0 -0.805,0 -0.805,-1.068 l 0,-11.591 c 0,-3.659 3.035,-6.019 7.734,-6.019 4.682,0 7.719,2.36 7.719,6.019 l 0,11.591 C 0.801,0 0.24,0 0,0" /></g><g
           transform="translate(373.0783,428.2466)"
           id="g3442"><path
             id="path3444"
             style="fill:#1f6fb8;fill-opacity:1;fill-rule:nonzero;stroke:none"
             d="M 0,0 C 0.84,-0.627 1.169,-0.224 1.313,-0.04 1.466,0.146 1.815,0.582 0.993,1.238 L -9.51,9.674 c 0,0 10.26,7.663 10.253,7.659 0.553,0.41 0.373,0.725 0.281,0.849 -0.099,0.123 -0.345,0.378 -0.897,-0.029 l -11.513,-8.465 0,16.126 c 0,1.069 -0.568,1.069 -0.812,1.069 -0.242,0 -0.803,0 -0.803,-1.069 l 0,-25.097 c 0,-1.071 0.561,-1.071 0.803,-1.071 0.244,0 0.812,0 0.812,1.071 l 0,8.437 C -11.386,9.154 0.003,0 0,0" /></g><g
           transform="translate(393.7795,446.5708)"
           id="g3446"><path
             id="path3448"
             style="fill:#1f6fb8;fill-opacity:1;fill-rule:nonzero;stroke:none"
             d="M 0,0 C -0.241,0 -0.806,-0.038 -0.806,-1.068 L -0.808,-4.89 C -1.671,-2.42 -4.006,0 -7.833,0 c -6.023,0 -8.766,-4.839 -8.766,-9.33 0,-4.526 2.322,-9.348 8.849,-9.348 4.017,0 6.114,2.506 6.964,4.876 l 0,-3.805 c 0,-1.071 0.545,-1.071 0.786,-1.071 0.24,0 0.81,0 0.81,1.071 l 0,16.539 C 0.815,-0.05 0.24,0 0,0 m -7.75,-17.703 c -5.161,0 -7.124,4.508 -7.124,8.373 0,4.154 2.299,8.356 7.124,8.356 5.122,0 6.944,-4.505 6.944,-8.356 0,-3.865 -1.822,-8.373 -6.944,-8.373" /></g></g></g></g></svg>