<?xml version="1.0" encoding="UTF-8" standalone="no"?>
<svg
   id="svg2"
   version="1.1"
   x="0"
   y="0"
   width="382.98462"
   height="499.23999"
   viewBox="30.5 31.5 382.98462 499.23999"
   enable-background="new 30.5 31.5 412 533"
   xml:space="preserve"
   sodipodi:docname="Øygarden_komm_2020.svg"
   inkscape:version="1.1.2 (b8e25be833, 2022-02-05)"
   xmlns:inkscape="http://www.inkscape.org/namespaces/inkscape"
   xmlns:sodipodi="http://sodipodi.sourceforge.net/DTD/sodipodi-0.dtd"
   xmlns="http://www.w3.org/2000/svg"
   xmlns:svg="http://www.w3.org/2000/svg"
   xmlns:rdf="http://www.w3.org/1999/02/22-rdf-syntax-ns#"
   xmlns:cc="http://creativecommons.org/ns#"
   xmlns:dc="http://purl.org/dc/elements/1.1/"><sodipodi:namedview
   id="namedview11"
   pagecolor="#ffffff"
   bordercolor="#666666"
   borderopacity="1.0"
   inkscape:pageshadow="2"
   inkscape:pageopacity="0.0"
   inkscape:pagecheckerboard="0"
   showgrid="false"
   fit-margin-top="0"
   fit-margin-left="0"
   fit-margin-right="0"
   fit-margin-bottom="0"
   inkscape:zoom="1.648"
   inkscape:cx="191.44417"
   inkscape:cy="249.6966"
   inkscape:window-width="1920"
   inkscape:window-height="991"
   inkscape:window-x="-9"
   inkscape:window-y="-9"
   inkscape:window-maximized="1"
   inkscape:current-layer="svg2" />
  <metadata
   id="metadata4">
    <rdf:RDF>
      <cc:Work
   rdf:about="">
        <dc:format>
          image/svg+xml
        </dc:format>
        <dc:type
   rdf:resource="http://purl.org/dc/dcmitype/StillImage" />
      </cc:Work>
    </rdf:RDF>
  </metadata>
  <defs
   id="defs6" />
  <path
   id="path8"
   d="M 221.94232,530.37 C 147.62232,476.45 96.682315,408.35 66.202315,322.21 c -27.64,-78.1 -38.73,-172.75 -33.91,-289.35 l 0.02,-0.46 H 412.13232 l 0.02,0.46 c 4.81,116.6 -6.28,211.24 -33.91,289.35 -30.48,86.14 -81.42,154.24 -155.74,208.16 l -0.28,0.2 z"
   fill="#ffffff" />
  <path
   id="path10"
   d="m 411.45232,32.45 c 9.07,219.45 -36.25,385.95 -189.45,497.1 C 68.812315,418.4 23.482315,251.9 32.552315,32.45 c 0,0 105.430005,0 189.450005,0 84.02,0 189.45,0 189.45,0 m 0.92,-0.95 h -0.92 -189.45 -189.450005 -0.92 l -0.04,0.92 c -4.82,116.66 6.28,211.36 33.93,289.52 30.51,86.24 81.510005,154.41 155.910005,208.39 l 0.56,0.41 0.56,-0.41 c 74.4,-53.98 125.4,-122.15 155.91,-208.39 27.65,-78.16 38.75,-172.86 33.93,-289.52 l -0.04,-0.92 v 0 z" />
  <path
   id="path4312"
   d="m 121.98232,350.73 v -15.38 l 7.02,-9.58 v -97.36 l -22.33,-34.97 H 94.542315 L 215.30232,89.8 V 73.98 h -9.02 l 10.97,-13.23 h 9.52 l 10.97,13.23 h -9.02 V 89.8 l 120.76,103.64 h -12.13 l -22.33,34.97 v 97.36 l 7.02,9.58 v 15.38 c -66.68,0 -133.36,0 -200.04,0 z"
   style="fill:#0085ca;fill-rule:evenodd;stroke:#000000" />
  <path
   id="path4332"
   d="m 184.00232,228.4 -10,-34.97 h -57 l 22,34.97 z"
   style="fill:#ffffff;fill-rule:evenodd;stroke:#000000" />
  <path
   id="path4350"
   d="m 194.00232,228.4 -10,-34.97 c 25.33,0 50.67,0 76,0 l -10,34.97 c -18.67,0 -37.33,0 -56,0 z"
   style="fill:#ffffff;fill-rule:evenodd;stroke:#000000" />
  <path
   d="m 260.00232,228.4 10,-34.97 h 57 l -22,34.97 z"
   id="path4374"
   style="fill:#ffffff;fill-rule:evenodd;stroke:#000000" />
</svg>
