<svg version="1.1" viewBox="0 0 512 124.12" xmlns="http://www.w3.org/2000/svg">
	<path d="m459.24 26.563c23.95 7.1746 45.405 22.344 20.021 40.554-19.371 13.837-59.276 22.925-74.889 26.512-60.028 13.7-126.68 16.502-172.84 14.725-39.87-1.5032-72.942-7.3113-97.746-15.34 17.492 4.2023 35.463 7.3454 53.741 9.4637 43.253 5.0222 88.043 4.4756 131.47-0.51244 29.279-3.3482 74.069-10.284 109.53-21.49 30.68-9.7028 73.42-33.447 30.714-53.912" fill="#8cc53d"/>
	<path d="m482.44 57.721c18.654 7.1746 34.575 16.638 28.084 27.434-0.81996 1.3666-1.9474 2.7332-3.519 4.1339-15.101 13.734-49.676 21.251-73.318 25.658-90.503 16.809-220.91 10.181-292.79-17.219 18.073 5.8422 37.376 9.8736 57.089 12.812 24.291 3.5873 49.095 5.7739 73.967 6.833 36.146 1.5033 73.249 0.99078 108.99-2.1524 19.952-1.7766 39.631-4.5439 58.251-8.8829 11.992-2.7674 25.658-6.423 37.206-11.309 10.42-4.4414 23.198-11.274 22.105-20.396-0.37583-2.9382-2.1524-6.1155-5.7397-9.532-2.5282-2.3915-5.9447-4.8514-10.318-7.3796" fill="#f57f1e"/>
	<g fill="#ab2b30">
		<path d="m6.96e-6 4.2185v-2.0157c8.5412 0.1367 17.185 0.17081 25.897 0.06822 4.0315-0.06822 5.808-0.23912 9.703 1.2641 20.464 8.0287 9.4634 37.718-12.026 36.659l-0.06822-1.8449c20.772-1.9132 16.536-36.829-4.7147-31.637v57.397c0.23912 4.5097 3.2456 6.0813 8.7803 4.9197v2.2207c-8.5071-0.30752-17.014-0.34163-25.521 0v-2.0499c3.9631 0.99077 6.1838-0.58084 6.6622-4.6464v-56.919c0-3.0065-2.6307-3.5189-4.5439-3.4848l-4.1681 0.06822"/>
		<path d="m51.246 58.707 22.002-57.841c0.75165-0.71745 1.4691-0.61495 2.2207 0.03411l23.437 62.078c1.7082 4.0315 4.5781 6.3546 9.0882 6.0472v2.1866h-20.328l-0.20501-1.8449c-0.03411-0.51244 2.5966-0.75165 1.9474-3.2456l-7.0038-18.688h-20.84l-5.7055 14.691c-1.9474 4.6806-1.9474 8.1996 4.8172 7.2088v2.0157h-20.089l0.03411-2.1182 4.0998-0.06822c4.2365-1.4349 5.0222-6.5938 6.5255-10.454zm11.821-15.374h17.356l-8.2338-24.907z"/>
		<path d="m107.21 7.7345h16.843v58.216c0 1.7765-1.6741 3.1773-3.5532 3.3823l-2.8357 0.30752v1.7082h26.136v-2.0499l-5.3639-0.17081c-2.0157-0.1025-3.6214-1.7424-3.6214-4.0315v-57.705h14.52c3.519 1.1275 5.5006 3.6556 5.6714 7.9262h1.7765l-0.20501-14.042c-0.92246 0.61495-2.0157 0.99077-3.314 1.2299h-46.19c-1.879-0.1367-3.2798-0.75165-4.5781-1.4691l-2.5282 13.529 1.6057 0.20501c0.81995-3.6556 2.4257-6.3546 5.6372-7.038"/>
		<path d="m159.24 58.707 22.002-57.841c0.75165-0.71745 1.5033-0.61495 2.2208 0.03411l23.471 62.078c1.7082 4.0315 4.5097 6.3546 9.0541 6.0472v2.1866h-20.328l-0.17081-1.8449c-0.0682-0.51244 2.5624-0.75165 1.9132-3.2456l-7.0038-18.688h-20.84l-5.7055 14.691c-1.9474 4.6806-1.9132 8.1996 4.8172 7.2088v2.0157h-20.089l0.0341-2.1182 4.134-0.06822c4.2023-1.4349 5.0222-6.5938 6.4913-10.454zm11.821-15.374h17.356l-8.2338-24.907z"/>
		<path d="m225.83 0.081559 47.284 53.263-0.13671-46.772c0-2.7674-5.2614-2.8698-8.5412-2.904v-1.8449h21.866v1.8449c-2.5282 0.23912-7.2088 0.44413-7.2429 2.6307l-0.78576 64.469c0 1.5033-1.9474 0.92246-2.7674 0l-44.551-49.778-1.1958-0.06822 0.58084 44.312c1.5033 4.2365 4.6122 3.6898 8.6437 3.7582v2.2207h-23.505l0.1367-2.1524c3.9973 0.44413 7.6529-0.44413 8.7462-3.7923l0.44414-63.546c0-1.0933 0.68334-2.0157 1.025-1.6399"/>
		<path d="m296.93 2.408h25.556v1.7424h-4.0656c-1.4691 0-3.0407 1.2641-3.0065 3.4164l0.17082 41.34v9.0882c0 17.527-3.3481 26.581-18.517 34.302-4.9539 2.5282-3.8607 2.1182-0.64914-0.92246 9.3611-8.8826 8.8485-19.03 8.8144-31.944-0.0341-17.116-0.27332-34.096-0.27332-51.52 0.0341-2.904-1.7765-3.8948-3.5873-3.8948h-4.4072l-0.0341-1.6057"/>
		<path d="m333.11 58.707 22.002-57.841c0.75165-0.71745 1.4691-0.61495 2.2208 0.03411l23.471 62.078c1.7082 4.0315 4.5439 6.3546 9.0882 6.0472v2.1866h-20.362l-0.17082-1.8448c-0.0682-0.51244 2.5624-0.75165 1.9132-3.2456l-7.0038-18.688h-20.84l-5.7055 14.691c-1.9474 4.6806-1.9474 8.1996 4.8172 7.2088v2.0157h-20.089l0.0341-2.1182 4.134-0.06822c4.2024-1.4351 5.0222-6.5939 6.4913-10.454zm11.821-15.374h17.356l-8.2338-24.907z"/>
		<path d="m391.84 2.408h26.477v1.7424h-5.2956c-1.5033 0-3.0407 1.2641-3.0407 3.4164l0.20501 52.545c0.0341 2.4941 1.0591 5.5006 4.3731 5.5006h13.734c3.4506-0.27332 5.603-2.4257 6.4913-8.4387h1.7424c-0.34163 4.7489-0.88827 9.3269-1.9474 13.495h-40.861v-1.9474c3.0407 0.06822 4.3389-0.95666 5.7739-2.7332l0.0682-58.08c0-2.904-1.7765-3.8948-3.5873-3.8948h-4.0998l-0.0341-1.6057"/>
		<path d="m444.41 2.408h24.496v1.7424h-4.0656c-1.4691 0-3.0065 1.2641-3.0065 3.4164l0.17081 41.34v16.399c0.20501 1.9474 0.81996 3.5531 3.2798 3.6556h5.7397v2.2891h-26.546l0.0341-1.9132 4.0315-0.1025c1.879-0.03411 3.109-1.7082 3.109-4.3048 0-19.03-0.27332-37.752-0.27332-57.021 0-2.904-1.7765-3.8948-3.5873-3.8948h-3.3823v-1.6057"/>
	</g>
</svg>
