<?xml version="1.0" encoding="UTF-8" standalone="no"?>
<!-- Created with Inkscape (http://www.inkscape.org/) -->

<svg
   xmlns:dc="http://purl.org/dc/elements/1.1/"
   xmlns:cc="http://creativecommons.org/ns#"
   xmlns:rdf="http://www.w3.org/1999/02/22-rdf-syntax-ns#"
   xmlns:svg="http://www.w3.org/2000/svg"
   xmlns="http://www.w3.org/2000/svg"
   xmlns:sodipodi="http://sodipodi.sourceforge.net/DTD/sodipodi-0.dtd"
   xmlns:inkscape="http://www.inkscape.org/namespaces/inkscape"
   width="201.45998"
   height="69.314949"
   viewBox="0 0 53.302951 18.33958"
   version="1.1"
   id="svg14388"
   inkscape:version="0.92.0 r15299"
   sodipodi:docname="payless car rental.svg">
  <defs
     id="defs14382">
    <clipPath
       id="clipPath14264"
       clipPathUnits="userSpaceOnUse">
      <path
         inkscape:connector-curvature="0"
         id="path14262"
         d="M 392.16,14.04 H 606 V 117 H 392.16 Z" />
    </clipPath>
    <linearGradient
       id="linearGradient14254"
       spreadMethod="pad"
       gradientTransform="matrix(26.919103,0,0,26.919103,-148.0266,-38.708835)"
       gradientUnits="userSpaceOnUse"
       y2="0"
       x2="1"
       y1="0"
       x1="0">
      <stop
         id="stop14250"
         offset="0"
         style="stop-opacity:1;stop-color:#fdd804" />
      <stop
         id="stop14252"
         offset="1"
         style="stop-opacity:1;stop-color:#ed192e" />
    </linearGradient>
    <clipPath
       id="clipPath14204"
       clipPathUnits="userSpaceOnUse">
      <path
         inkscape:connector-curvature="0"
         id="path14202"
         d="M 392.16,14.04 H 606 V 117 H 392.16 Z" />
    </clipPath>
  </defs>
  <sodipodi:namedview
     id="base"
     pagecolor="#ffffff"
     bordercolor="#666666"
     borderopacity="1.0"
     inkscape:pageopacity="0.0"
     inkscape:pageshadow="2"
     inkscape:zoom="4.4747083"
     inkscape:cx="100.22999"
     inkscape:cy="34.157477"
     inkscape:document-units="mm"
     inkscape:current-layer="layer1"
     showgrid="false"
     fit-margin-top="0"
     fit-margin-left="0"
     fit-margin-right="0"
     fit-margin-bottom="0"
     units="px"
     inkscape:window-width="1280"
     inkscape:window-height="744"
     inkscape:window-x="-4"
     inkscape:window-y="-4"
     inkscape:window-maximized="1" />
  <metadata
     id="metadata14385">
    <rdf:RDF>
      <cc:Work
         rdf:about="">
        <dc:format>image/svg+xml</dc:format>
        <dc:type
           rdf:resource="http://purl.org/dc/dcmitype/StillImage" />
        <dc:title></dc:title>
      </cc:Work>
    </rdf:RDF>
  </metadata>
  <g
     inkscape:label="Layer 1"
     inkscape:groupmode="layer"
     id="layer1"
     transform="translate(173.9299,54.748511)">
    <g
       id="g14529"
       transform="translate(0.13229102,-0.13229287)">
      <path
         d="m -143.72743,-52.440284 -0.30233,-0.201436 c -0.12488,0.197908 -0.28152,0.30233 -0.53516,0.30233 -0.42404,0 -0.6537,-0.344311 -0.6537,-0.890058 0,-0.545394 0.22966,-0.889353 0.6537,-0.889353 0.25047,0 0.37888,0.09349 0.50376,0.291748 l 0.32315,-0.201789 c -0.16651,-0.295275 -0.43074,-0.455084 -0.82691,-0.455084 -0.62901,0 -1.0287,0.517878 -1.0287,1.254478 0,0.736953 0.39969,1.254831 1.0287,1.254831 0.3683,0 0.66392,-0.166864 0.83749,-0.465667 m 2.4571,0.427567 -0.88618,-2.433109 h -0.38559 l -0.87594,2.433109 h 0.37888 l 0.20144,-0.576792 h 0.97331 l 0.20496,0.576792 z m -0.70556,-0.903464 h -0.75036 l 0.19438,-0.556331 c 0.0624,-0.180622 0.14958,-0.458964 0.17745,-0.563033 0.0275,0.104069 0.12488,0.385939 0.18415,0.559505 z m 3.03424,-0.803275 c 0,-0.500239 -0.35807,-0.72637 -0.78211,-0.72637 h -1.0668 v 2.433109 h 0.35772 v -0.962731 h 0.54928 l 0.4833,0.962731 h 0.42051 l -0.49706,-0.994128 c 0.3302,-0.08326 0.53516,-0.323145 0.53516,-0.712611 m -0.3683,0.01058 c 0,0.263878 -0.17074,0.389467 -0.41381,0.389467 h -0.70908 v -0.782109 h 0.70908 c 0.24695,0 0.41381,0.138995 0.41381,0.392642 m 4.18712,-0.01058 c 0,-0.500239 -0.35807,-0.72637 -0.78211,-0.72637 h -1.06715 v 2.433109 h 0.35807 v -0.962731 h 0.54928 l 0.48295,0.962731 h 0.42051 l -0.49706,-0.994128 c 0.33055,-0.08326 0.53551,-0.323145 0.53551,-0.712611 m -0.36865,0.01058 c 0,0.263878 -0.17004,0.389467 -0.41346,0.389467 h -0.70908 v -0.782109 h 0.70908 c 0.2466,0 0.41346,0.138995 0.41346,0.392642 m 2.55129,1.696156 v -0.354542 h -1.25483 v -0.767997 h 0.6985 v -0.354895 h -0.6985 v -0.601133 h 1.20226 v -0.354542 h -1.56739 v 2.433109 z m 2.36643,0 v -2.433109 h -0.35419 v 1.254831 c 0,0.135467 0.004,0.482953 0.004,0.573617 -0.0349,-0.06244 -0.13935,-0.243417 -0.20179,-0.344312 l -0.92428,-1.484136 h -0.37218 v 2.433109 h 0.3549 v -1.261534 c 0,-0.135466 -0.004,-0.472722 -0.004,-0.563033 0.0385,0.06244 0.12171,0.208139 0.18097,0.29845 l 0.96944,1.526117 z m 2.26272,-2.075039 v -0.35807 h -1.78294 v 0.35807 h 0.70908 v 2.075039 h 0.36478 v -2.075039 z m 2.16147,2.075039 -0.88618,-2.433109 h -0.38559 l -0.87594,2.433109 h 0.37888 l 0.20144,-0.576792 h 0.97331 l 0.20496,0.576792 z m -0.7052,-0.903464 h -0.75072 l 0.19474,-0.556331 c 0.0621,-0.180622 0.14922,-0.458964 0.17709,-0.563033 0.0275,0.104069 0.12489,0.385939 0.18415,0.559505 z m 2.76295,0.903464 v -0.35807 h -1.2132 v -2.075039 h -0.36477 v 2.433109 z"
         style="fill:#16203a;fill-opacity:1;fill-rule:nonzero;stroke:none;stroke-width:0.35277778"
         id="path14208"
         inkscape:connector-curvature="0" />
      <path
         d="m -169.14024,-50.884146 h -2.56187 v 2.864203 h 2.59397 c 1.03399,0 1.59103,-0.477309 1.59103,-1.4478 0,-0.970845 -0.63641,-1.416403 -1.62313,-1.416403 m -0.11112,5.028494 h -2.45075 v 3.946172 h -2.22779 v -11.138958 h 4.86939 c 2.10044,0 3.83504,1.161698 3.83504,3.532717 0,2.5781 -1.71873,3.660069 -4.02589,3.660069"
         style="fill:#16203a;fill-opacity:1;fill-rule:nonzero;stroke:none;stroke-width:0.35277778"
         id="path14212"
         inkscape:connector-curvature="0" />
      <path
         d="m -160.5302,-45.419547 c -0.38206,-0.238478 -0.74789,-0.350308 -1.52753,-0.350308 -0.82761,0 -1.27317,0.381705 -1.27317,1.050219 0,0.589139 0.33408,1.114072 1.27317,1.114072 0.71614,0 1.2887,-0.366183 1.52753,-0.763764 z m 0,3.500614 v -0.556684 c -0.39793,0.413456 -1.0982,0.732014 -1.87784,0.732014 -1.55927,0 -3.1189,-0.954969 -3.1189,-2.976033 0,-1.845733 1.49577,-2.7686 3.38948,-2.7686 0.76377,0 1.2573,0.159103 1.60726,0.333728 v -0.413456 c 0,-0.588433 -0.39793,-1.066094 -1.19345,-1.066094 -1.00259,0 -1.52788,0.143228 -2.29164,0.556683 l -0.84349,-1.527527 c 0.97084,-0.556684 1.78258,-0.843139 3.13513,-0.843139 2.02107,0 3.38949,1.049866 3.38949,2.927702 v 5.601406 z"
         style="fill:#16203a;fill-opacity:1;fill-rule:nonzero;stroke:none;stroke-width:0.35277778"
         id="path14216"
         inkscape:connector-curvature="0" />
      <path
         d="m -134.55161,-41.909373 c -1.3208,0 -2.60985,-0.381706 -3.50097,-0.970492 l 0.73202,-1.671108 c 0.89147,0.493183 1.82986,0.763764 2.8963,0.763764 0.85937,0 1.11372,-0.206728 1.11372,-0.636411 0,-0.382058 -0.30198,-0.572911 -1.2252,-0.843139 -2.00518,-0.605014 -3.29388,-1.09855 -3.29388,-2.864556 0,-1.734608 1.3843,-2.482497 3.34151,-2.482497 1.05057,0 2.19639,0.318206 3.08751,0.811389 l -0.70026,1.734608 c -0.82727,-0.445205 -1.73461,-0.668513 -2.43488,-0.668513 -0.89076,0 -1.12959,0.17533 -1.12959,0.541161 0,0.350308 0.25435,0.493536 1.73426,0.970844 1.49613,0.493183 2.78518,1.034345 2.78518,2.7051 0,1.925461 -1.52753,2.60985 -3.40572,2.60985"
         style="fill:#16203a;fill-opacity:1;fill-rule:nonzero;stroke:none;stroke-width:0.35277778"
         id="path14220"
         inkscape:connector-curvature="0" />
      <path
         d="m -142.19102,-48.704367 c -0.79587,0 -1.28905,0.652639 -1.36842,1.495778 h 2.8642 c -0.0635,-0.747889 -0.50906,-1.495778 -1.49578,-1.495778 m 3.59657,3.151011 h -4.99674 c 0.0794,1.145469 0.92286,1.575153 1.71838,1.575153 0.60501,0 1.11407,-0.222603 1.43227,-0.588434 l 1.55963,1.304573 c -0.66851,0.859366 -1.87783,1.35255 -2.9919,1.35255 -2.40277,0 -3.9303,-1.702506 -3.9303,-4.344106 0,-2.562225 1.6069,-4.35998 3.72357,-4.35998 2.22779,0 3.51684,1.972733 3.51684,4.35998 0,0.318206 -0.0159,0.541161 -0.0317,0.700264"
         style="fill:#16203a;fill-opacity:1;fill-rule:nonzero;stroke:none;stroke-width:0.35277778"
         id="path14224"
         inkscape:connector-curvature="0" />
      <path
         d="m -154.01165,-38.652317 h -2.16394 l 1.3074,-3.409597 -3.24627,-8.354483 h 2.419 l 1.36843,4.026252 c 0.22295,0.636411 0.44555,1.431925 0.54116,1.829859 0.0952,-0.413456 0.31785,-1.177573 0.54081,-1.829859 l 1.36842,-4.026252 h 2.35515 z"
         style="fill:#16203a;fill-opacity:1;fill-rule:nonzero;stroke:none;stroke-width:0.35277778"
         id="path14228"
         inkscape:connector-curvature="0" />
      <path
         d="m -146.85947,-54.468332 -2.04364,1.220258 v 11.338631 h 2.04364 z"
         style="fill:#16203a;fill-opacity:1;fill-rule:nonzero;stroke:none;stroke-width:0.35277778"
         id="path14232"
         inkscape:connector-curvature="0" />
      <path
         d="m -127.11661,-41.909373 c -1.3208,0 -2.60985,-0.381706 -3.50097,-0.970492 l 0.73202,-1.671108 c 0.89111,0.493183 1.82986,0.763764 2.89595,0.763764 0.85937,0 1.11407,-0.206728 1.11407,-0.636411 0,-0.382058 -0.30233,-0.572911 -1.22555,-0.843139 -2.00483,-0.605014 -3.29388,-1.09855 -3.29388,-2.864556 0,-1.734608 1.38465,-2.482497 3.34186,-2.482497 1.05022,0 2.19604,0.318206 3.08716,0.811389 l -0.69991,1.734608 c -0.82762,-0.445205 -1.73496,-0.668513 -2.43523,-0.668513 -0.89076,0 -1.12959,0.17533 -1.12959,0.541161 0,0.350308 0.2547,0.493536 1.73461,0.970844 1.49577,0.493183 2.78447,1.034345 2.78447,2.7051 0,1.925461 -1.52753,2.60985 -3.40501,2.60985"
         style="fill:#16203a;fill-opacity:1;fill-rule:nonzero;stroke:none;stroke-width:0.35277778"
         id="path14236"
         inkscape:connector-curvature="0" />
      <path
         inkscape:connector-curvature="0"
         id="path14256"
         style="fill:url(#linearGradient14254);stroke:none;stroke-width:0.35277778"
         d="m -148.02631,-36.408933 c 20.30518,-5.030611 26.9187,-0.745066 26.9187,-0.745066 v 0 l -2.60808,-3.81882 c 0,0 -0.58279,-0.03598 -1.62172,-0.03598 v 0 c -3.69641,0 -13.16496,0.45473 -22.6889,4.599869" />
      <path
         d="m -122.90342,-49.490709 c 0,0.561975 0.44979,1.001536 1.00259,1.001536 0.55916,0 1.0093,-0.439561 1.0093,-1.001536 0,-0.561269 -0.45014,-1.010356 -1.0093,-1.010356 -0.5528,0 -1.00259,0.449087 -1.00259,1.010356 m 0.1591,0 c 0,-0.472722 0.37889,-0.855133 0.84349,-0.855133 0.4699,0 0.85055,0.382411 0.85055,0.855133 0,0.467431 -0.38065,0.855839 -0.85055,0.855839 -0.4646,0 -0.84349,-0.388408 -0.84349,-0.855839 m 0.45403,0.565856 h 0.20355 v -0.47625 h 0.14817 l 0.26141,0.47625 h 0.24623 l -0.30409,-0.498828 c 0.1591,-0.03598 0.2607,-0.143228 0.2607,-0.307975 0,-0.244828 -0.20814,-0.334434 -0.42439,-0.334434 h -0.39158 z m 0.20355,-0.642056 v -0.324908 h 0.1838 c 0.10654,0 0.22578,0.03069 0.22578,0.155575 0,0.137936 -0.1323,0.169333 -0.25118,0.169333 z"
         style="fill:#16203a;fill-opacity:1;fill-rule:nonzero;stroke:none;stroke-width:0.35277778"
         id="path14268"
         inkscape:connector-curvature="0" />
    </g>
  </g>
</svg>
