<?xml version="1.0" encoding="UTF-8" standalone="no"?>
<svg
   xmlns:dc="http://purl.org/dc/elements/1.1/"
   xmlns:cc="http://creativecommons.org/ns#"
   xmlns:rdf="http://www.w3.org/1999/02/22-rdf-syntax-ns#"
   xmlns:svg="http://www.w3.org/2000/svg"
   xmlns="http://www.w3.org/2000/svg"
   xmlns:sodipodi="http://sodipodi.sourceforge.net/DTD/sodipodi-0.dtd"
   xmlns:inkscape="http://www.inkscape.org/namespaces/inkscape"
   xml:space="preserve"
   viewBox="0 0 80 100"
   height="100"
   width="80"
   y="0px"
   x="0px"
   id="レイヤー_1"
   version="1.1"
   sodipodi:docname="Mini_PIAGO_logo.svg"
   inkscape:version="0.92.1 r15371"><sodipodi:namedview
     pagecolor="#ffffff"
     bordercolor="#666666"
     borderopacity="1"
     objecttolerance="10"
     gridtolerance="10"
     guidetolerance="10"
     inkscape:pageopacity="0"
     inkscape:pageshadow="2"
     inkscape:window-width="1360"
     inkscape:window-height="685"
     id="namedview29"
     showgrid="false"
     inkscape:zoom="1.4227273"
     inkscape:cx="110"
     inkscape:cy="-19.230032"
     inkscape:window-x="0"
     inkscape:window-y="0"
     inkscape:window-maximized="1"
     inkscape:current-layer="レイヤー_1" /><metadata
     id="metadata75"><rdf:RDF><cc:Work
         rdf:about=""><dc:format>image/svg+xml</dc:format><dc:type
           rdf:resource="http://purl.org/dc/dcmitype/StillImage" /><dc:title></dc:title></cc:Work></rdf:RDF></metadata><defs
     id="defs73" /><style
     id="style2"
     type="text/css">
	.st0{fill:#FFFFFF;}
	.st1{fill:#F6D8D6;}
	.st2{fill:#EDADAD;}
	.st3{fill:#BC1D21;}
</style><g
     id="g42"><path
       inkscape:connector-curvature="0"
       style="fill:#bc1d21"
       id="path20"
       d="m 68.104377,35.632859 c 0,15.4 -12.5,27.9 -27.9,27.9 -15.4,0 -27.9,-12.5 -27.9,-27.9 0.1,-15.4 12.5,-27.8999998 27.9,-27.8999998 15.4,0.1 27.9,12.4999998 27.9,27.8999998"
       class="st3" /><path
       inkscape:connector-curvature="0"
       style="fill:#ffffff"
       id="path24"
       d="m 19.904377,31.432859 v 0 8.5 h 2.2 v -3 h 0.7 c 1.1,0.1 2.2,-0.2 3.2,-0.9 0.6,-0.5 0.9,-1.2 0.9,-2 0,-0.8 -0.4,-1.5 -1,-2 -0.9,-0.5 -2,-0.8 -3,-0.7 -1.1,0 -2.1,0 -3,0.1 m 3.1,1.3 c 1,0 1.7,0.4 1.7,1.2 0,0.9 -0.7,1.3 -1.9,1.3 h -0.6 v -2.5 c 0,0.2 0.3,0 0.8,0 z"
       class="st0" /><path
       inkscape:connector-curvature="0"
       style="fill:#ffffff"
       id="path26"
       d="m 28.404377,31.332859 v 0 8.7 h 2.2 v -8.7 h -2.2"
       class="st0" /><path
       inkscape:connector-curvature="0"
       style="fill:#ffffff"
       id="path28"
       d="m 35.204377,31.332859 v 0 l -3,8.7 h 2.3 l 0.7,-2.2 h 2.7 l 0.7,2.2 h 2.3 l -3,-8.7 h -2.7 m 1,3.2 c 0.1,-0.3 0.1,-0.7 0.3,-1 0.1,-0.2 0.1,-0.4 0.1,-0.6 v 0.1 c 0.1,0.4 0.3,1 0.4,1.4 l 0.6,1.7 h -2 z"
       class="st0" /><path
       inkscape:connector-curvature="0"
       style="fill:#ffffff"
       id="path30"
       d="m 41.704377,35.832859 c -0.1,1.2 0.5,2.4 1.4,3.2 1.2,0.8 2.6,1.3 4,1.2 1.1,-0.1 2.2,-0.2 3.3,-0.4 v 0 -4.5 h -3.6 v 1.6 h 1.4 v 1.7 c -0.1,0.1 -0.6,0.1 -1,0.1 -1.5,0.2 -2.9,-0.9 -3,-2.4 0,-0.1 0,-0.2 0,-0.3 0,-1.7 1.2,-2.7 3.2,-2.7 0.8,-0.1 1.6,0.1 2.3,0.4 v 0 l 0.4,-1.6 v 0 c -0.9,-0.3 -1.8,-0.4 -2.7,-0.4 -3.6,-0.6 -5.7,1.3 -5.7,4.1"
       class="st0" /><path
       inkscape:connector-curvature="0"
       style="fill:#ffffff"
       id="path32"
       d="m 51.604377,35.832859 c -0.1,2.4 1.8,4.4 4.2,4.5 0.1,0 0.3,0 0.4,0 2.9,0 4.8,-1.7 4.8,-4.6 0.1,-2.3 -1.8,-4.3 -4.1,-4.4 -0.2,0 -0.3,0 -0.5,0 -2.4,-0.2 -4.5,1.5 -4.7,3.9 -0.1,0.2 -0.1,0.4 -0.1,0.6 m 2.5,-0.2 c 0,-1.7 0.9,-2.9 2.3,-2.9 1.6,0 2.3,1.4 2.3,2.9 0,1.7 -0.9,2.9 -2.3,2.9 -1.4,0 -2.3,-1.1 -2.3,-2.9 z"
       class="st0" /><path
       style="fill:#bc1d21;stroke-width:0.47658214"
       inkscape:connector-curvature="0"
       class="st3"
       d="m 64.008316,69.577146 c 0,1.000823 0.81019,1.811012 1.81102,1.811012 1.00082,0 1.81101,-0.810189 1.81101,-1.811012 0,-1.000822 -0.81019,-1.811012 -1.81101,-1.811012 v 0 c -1.00083,0.04766 -1.81102,0.857848 -1.81102,1.811012"
       id="path36" /><path
       style="fill:#bc1d21;stroke-width:0.47658214"
       inkscape:connector-curvature="0"
       class="st3"
       d="m 68.774146,69.577146 c 0,1.000823 0.81019,1.811012 1.81101,1.811012 1.00082,0 1.81101,-0.810189 1.81101,-1.811012 0,-1.000822 -0.81019,-1.811012 -1.81101,-1.811012 v 0 c -1.00082,0.04766 -1.81101,0.857848 -1.81101,1.811012"
       id="path38" /><path
       style="fill:#bc1d21;stroke-width:0.47658214"
       inkscape:connector-curvature="0"
       class="st3"
       d="m 52.332056,72.67493 v 0 l -0.0477,3.907974 c 0,0.04766 0.0477,0.04766 0.0477,0.04766 v 0 h 13.29664 v 6.767466 c 0,2.478228 -0.61955,2.478228 -3.05012,2.478228 h -10.24652 c -0.0477,0 -0.0477,0.04766 -0.0477,0.04766 v 0 3.860315 c 0,0.04766 0.0477,0.04766 0.0477,0.04766 v 0 h 10.24652 c 6.33854,0 8.05424,-1.382088 8.05424,-6.481517 v -10.67544 c 0,-0.04766 -0.0477,-0.04766 -0.0477,-0.04766 v 0 h -18.2531"
       id="path40" /><path
       style="fill:#bc1d21;stroke-width:0.47658214"
       inkscape:connector-curvature="0"
       class="st3"
       d="m 27.740416,70.482652 c -0.0477,-1.477404 -1.19145,-2.66886 -2.66886,-2.66886 -1.4774,0 -2.66886,1.191456 -2.66886,2.66886 0,0.857848 0.42893,1.715696 1.19146,2.192278 h -10.96139 v -2.14462 c 0,-0.04766 -0.0477,-0.04766 -0.0477,-0.04766 v 0 H 7.6762661 c -0.0476,0 -0.0476,0.04766 -0.0476,0.04766 v 0 12.82006 c 0,5.099429 1.71569,6.481517 8.0542299,6.481517 h 10.24652 c 0.0477,0 0.0477,-0.04766 0.0477,-0.04766 v 0 -3.860315 c 0,-0.04766 -0.0477,-0.04766 -0.0477,-0.04766 v 0 h -10.24652 c -2.43056,0 -3.05012,0 -3.05012,-2.478228 v -6.767466 h 13.3443 c 0.0477,0 0.0477,-0.04766 0.0477,-0.04766 v 0 -3.574366 c 1.04848,-0.476583 1.71569,-1.429747 1.71569,-2.525886 m -2.71652,1.191456 c -0.66721,0 -1.19145,-0.524241 -1.19145,-1.191456 0,-0.667215 0.52424,-1.191455 1.19145,-1.191455 0.66722,0 1.19146,0.52424 1.19146,1.191455 0,0.619557 -0.52424,1.143797 -1.19146,1.191456 0.0477,0 0.0477,0 0,0 z"
       id="path42" /><path
       style="fill:#bc1d21;stroke-width:0.47658214"
       inkscape:connector-curvature="0"
       class="st3"
       d="m 29.980356,71.388158 v 0 l -0.0477,3.907974 c 0,0.04766 0.0477,0.04766 0.0477,0.04766 v 0 h 13.3443 v 0.04766 c 0,0.953165 0,3.907974 -6.62449,4.00329 -0.0477,0 -0.0477,0.04766 -0.0477,0.04766 v 0 3.288416 c 0,0.762532 -0.28595,3.288417 -4.05095,3.383734 -0.0477,0 -0.0477,0.04766 -0.0477,0.04766 v 0 4.003283 h 0.0477 c 7.38702,-0.04766 9.10272,-5.290062 9.10272,-7.101074 v -0.04766 h 0.0477 c 3.765,-0.428924 6.62449,-3.860316 6.62449,-8.054239 v -3.431391 c 0,-0.04766 -0.0477,-0.04766 -0.0477,-0.04766 v 0 h -18.34841"
       id="path44" /></g><g
     id="g56"
     transform="translate(112.095,43.045)" /><g
     id="g68"
     transform="translate(229.68,41.312)"><path
       id="path66"
       d="m -23.8,-7.9 v -2.5 h 3 v 2.5 z m 0,10.2 V -7 h 3 v 9.2 z"
       class="st0"
       inkscape:connector-curvature="0"
       style="fill:#ffffff" /></g></svg>