<?xml version="1.0" encoding="UTF-8" standalone="no"?>
<svg
   xmlns:dc="http://purl.org/dc/elements/1.1/"
   xmlns:cc="http://creativecommons.org/ns#"
   xmlns:rdf="http://www.w3.org/1999/02/22-rdf-syntax-ns#"
   xmlns:svg="http://www.w3.org/2000/svg"
   xmlns="http://www.w3.org/2000/svg"
   xmlns:sodipodi="http://sodipodi.sourceforge.net/DTD/sodipodi-0.dtd"
   xmlns:inkscape="http://www.inkscape.org/namespaces/inkscape"
   inkscape:version="1.0 (4035a4fb49, 2020-05-01)"
   sodipodi:docname="PNMlogo-ColorPos.svg"
   version="1.1"
   id="Layer_1"
   x="0px"
   y="0px"
   viewBox="0 0 1580 195"
   xml:space="preserve"
   width="1580"
   height="195"><sodipodi:namedview
   fit-margin-bottom="0"
   fit-margin-right="0"
   fit-margin-left="0"
   fit-margin-top="0"
   inkscape:guide-bbox="true"
   showguides="true"
   inkscape:current-layer="Layer_1"
   inkscape:window-maximized="1"
   inkscape:window-y="-8"
   inkscape:window-x="-8"
   inkscape:cy="218.63139"
   inkscape:cx="731.79721"
   inkscape:zoom="0.31413044"
   showgrid="false"
   id="namedview10"
   inkscape:window-height="747"
   inkscape:window-width="1366"
   inkscape:pageshadow="2"
   inkscape:pageopacity="0"
   guidetolerance="10"
   gridtolerance="10"
   objecttolerance="10"
   borderopacity="1"
   bordercolor="#666666"
   pagecolor="#ffffff"><sodipodi:guide
     id="guide313"
     orientation="0,-1"
     position="628.3148,24.13792" /></sodipodi:namedview><metadata
   id="metadata17"><rdf:RDF><cc:Work
       rdf:about=""><dc:format>image/svg+xml</dc:format><dc:type
         rdf:resource="http://purl.org/dc/dcmitype/StillImage" /><dc:title></dc:title></cc:Work></rdf:RDF></metadata><defs
   id="defs15" />
<style
   type="text/css"
   id="style2">
	.st0{fill:#0093B1;}
	.st1{fill:#F8991D;}
	.st2{fill:#FFFFFF;}
</style>




<path
   class="st0"
   d="m 1572.174,32.457625 c 3.3868,3.389951 5.0801,7.457743 5.0801,12.203455 0,4.745681 -1.6933,8.813434 -5.0801,12.203415 -3.3867,3.389715 -7.4508,5.084676 -12.1922,5.084676 -4.7416,0 -8.8056,-1.694961 -12.1924,-5.084676 -3.3868,-3.389981 -5.08,-7.457734 -5.08,-12.203415 0,-4.745712 1.6932,-8.813504 5.08,-12.203455 3.3868,-3.389754 7.4508,-5.084666 12.1924,-5.084666 4.7414,0 8.8055,1.694912 12.1922,5.084666 z m 2.0322,-1.694803 C 1570.142,27.034063 1565.4005,25 1559.9818,25 c -5.4188,0 -10.1603,2.034063 -14.2245,5.762822 -4.064,4.067831 -5.7573,8.474509 -5.7573,14.237222 0,5.42371 2.032,10.169421 5.7573,14.237321 3.7255,4.067684 8.467,5.762635 14.2245,5.762635 5.4187,0 10.1602,-2.033876 14.2244,-5.762635 4.0641,-4.0679 5.7574,-8.813611 5.7574,-14.237321 0.3387,-5.762713 -1.6933,-10.508385 -5.7574,-14.237222 z m -11.1764,13.220338 c -0.6774,0.338847 -2.0319,0.338847 -3.7254,0.338847 h -3.3867 v -8.135476 h 3.3867 c 2.0317,0 3.7254,0.338857 4.7415,0.67789 1.016,0.678028 1.3546,1.69503 1.3546,3.389873 0,1.694842 -0.6773,3.05076 -2.3707,3.728866 z m -10.8376,11.864343 h 3.7255 v -8.813622 h 3.048 c 2.0322,0 3.3867,0.338847 4.4028,0.678067 1.3547,0.677959 2.032,2.37292 2.032,5.084676 v 1.69503 0.677811 c 0,0 0,0.33922 0,0.33922 0,0 0,0 0,0.338847 h 3.7256 v -0.338847 c 0,-0.33922 0,-0.678106 -0.3384,-1.016923 0,-0.678067 0,-1.01714 0,-1.69502 v -1.694961 c 0,-1.016805 -0.3385,-2.372909 -1.3548,-3.389715 -0.6774,-1.017002 -2.0321,-2.033994 -3.7254,-2.033994 1.3547,-0.338847 2.3707,-0.67792 3.048,-1.016884 1.3548,-1.016914 2.0322,-2.372831 2.0322,-4.406826 0,-2.711795 -1.016,-4.74579 -3.3869,-5.423601 -1.3546,-0.678106 -3.3866,-0.678106 -6.0961,-0.678106 h -7.7896 v 21.694956 z"
   id="path4-2"
   style="fill:#0093b1;stroke-width:3.48912" /><path
   class="st0"
   d="M 144.86239,45.34484 H 32.230114 L 22.179857,91.896601 v 0 L 0,195 h 72.7778 l 11.090028,-51.37935 h 36.388702 c 50.59794,0 67.23288,-18.2758 74.51058,-51.034399 C 202.04491,61.55172 184.3704,45.34484 144.86239,45.34484 Z m -20.10052,48.275911 c -0.34656,2.41376 -1.03977,5.86201 -3.81223,9.310339 -3.46547,3.79305 -9.01038,6.55169 -14.90205,6.55169 H 91.492085 l 3.465672,-15.517299 v 0 -0.34469 l 0.346457,-1.72415 v 0 l 2.079343,-10.34487 h 13.515933 c 10.05015,0 15.59517,3.79306 13.86238,12.06902 z m 195.11377,10.689599 h 0.69302 l 12.47625,-58.6207 h 71.73813 l -26.6852,125.51716 h -89.06608 l -12.82282,-56.8964 c 0,0 -0.34675,-1.03461 -0.34675,-3.10348 0,0 -0.34626,0 -0.34626,0 0,2.41379 0,3.10348 0,3.10348 l -12.47626,56.8964 h -72.08468 l 26.6852,-125.51716 h 91.49218 l 11.08993,55.51729 c -0.34626,-0.34469 0,1.03431 -0.34626,3.10341 z M 523.65344,96.724081 545.8333,45.34484 H 655 l -26.6852,125.51724 h -72.08469 l 13.16937,-61.72407 c 0,0 0.34626,-1.37941 1.03968,-3.4484 h -0.34636 c -0.69312,2.06899 -1.38623,3.4484 -1.38623,3.4484 l -32.57667,61.3793 h -50.9445 l -6.58469,-61.72425 c 0,0 0,-1.03446 0,-3.44822 h -0.69301 c 0,2.06892 -0.34636,3.44822 -0.34636,3.44822 l -13.51583,61.72425 H 392.30728 L 418.99248,45 h 101.54225 l 1.38613,51.379271 c 0,0 0,2.06899 -0.34636,4.137869 h 0.69331 c 0.69312,-2.068879 1.38623,-3.793059 1.38623,-3.793059 z"
   id="path10-2"
   style="fill:#0093b1;stroke-width:3.48912" /><g
   style="stroke-width:0.996624"
   transform="matrix(1.0008313,0,0,1.0059504,-558.72737,-1188.5671)"
   id="g249"><g
     id="g177"
     style="fill:#367e3d;fill-opacity:0.996078;stroke-width:0.996624"><path
       id="path140"
       d="m 1771.5015,1038.8106 c 13.3296,-13.3296 13.2176,-77.01026 -0.1549,-88.10852 -8.8057,-7.30809 -8.666,-8.45441 1.5182,-12.46209 18.5646,-7.30554 26.3975,-5.8212 26.3975,5.00237 0,9.30995 0.7468,9.24824 7.9922,-0.66035 9.2194,-12.6082 31.4801,-10.75608 31.4801,2.61918 0,4.97739 -5.4476,9.02584 -12.1453,9.02584 -22.2277,0 -27.327,8.50943 -27.327,45.60167 0,27.6658 2.4091,37.179 10.6271,41.9656 8.2921,4.8297 4.1937,6.2304 -18.6517,6.3745 -26.6173,0.1678 -28.4115,-0.6829 -19.7362,-9.3582 z"
       style="fill:#367e3d;fill-opacity:0.996078;stroke-width:0.996623" /><path
       id="path130"
       d="m 2041.2253,1050.3506 c -9.6979,-2.5724 -21.0167,-30.6423 -14.8449,-36.8141 1.6613,-1.6613 9.5618,4.5842 17.5566,13.8788 9.5918,11.1511 17.96,15.5854 24.6022,13.0366 18.1452,-6.9629 11.4624,-27.5005 -14.2248,-43.71618 -27.1494,-17.13863 -31.9572,-36.72449 -13.1853,-53.71284 16.8066,-15.20979 47.3731,-13.23061 51.7086,3.34812 4.9186,18.8089 1.0233,20.07557 -14.3772,4.6751 -11.5329,-11.5329 -14.4567,-12.14742 -21.9836,-4.62053 -11.4359,11.43602 -5.8979,23.27943 17.8832,38.24401 44.3947,27.93602 18.4501,79.36422 -33.1348,65.68102 z"
       style="fill:#367e3d;fill-opacity:0.996078;stroke-width:0.996623" /><path
       d="m 1959.0668,1048.311 c -17.7666,-7.1583 -26.2058,-24.4666 -26.2058,-53.74646 0,-50.04333 52.9854,-82.24732 76.4361,-46.45706 15.5873,23.78918 7.5995,33.44657 -27.6642,33.44657 -26.7317,0 -30.5539,1.55384 -30.5539,12.42137 0,16.17588 28.2317,44.40768 39.7424,39.74238 26.537,-10.7554 29.0762,-9.7843 13.0549,4.9929 -18.1837,16.7716 -23.9464,18.0063 -44.8095,9.6003 z m 33.386,-89.52947 c -2.9903,-15.68909 -27.0257,-16.9809 -35.1039,-1.88668 -6.1878,11.56208 -5.0305,12.51386 15.2161,12.51386 17.5929,0 21.5139,-2.09521 19.8878,-10.62718 z"
       style="fill:#367e3d;fill-opacity:0.996078;stroke-width:0.996623"
       id="path126" /><path
       id="path124"
       d="m 1867.9768,1048.311 c -17.9193,-7.2198 -26.2058,-24.5101 -26.2058,-54.67952 0,-33.70662 25.4256,-60.6588 57.2232,-60.6588 17.673,0 21.7215,2.26365 21.7215,12.14534 0,14.26151 -0.5775,14.38867 -21.682,4.77289 -14.3772,-6.5507 -17.4551,-5.79882 -27.6127,6.74542 -15.565,19.22184 -14.3615,45.12537 3.0361,65.35127 13.236,15.3878 15.8886,16.173 31.1481,9.2203 22.6566,-10.323 25.3538,-5.2346 5.5023,10.3805 -17.7544,13.9657 -23.0899,14.7973 -43.1307,6.7226 z"
       style="fill:#367e3d;fill-opacity:0.996078;stroke-width:0.996623" /><path
       id="path122"
       d="m 1662.9715,1040.9295 c -6.2985,-8.9924 -9.4533,-27.2317 -9.4533,-54.65399 0,-28.82795 -2.274,-41.18534 -7.5909,-41.25048 -11.9586,-0.14647 8.8424,-11.85075 21.2544,-11.95936 9.2368,-0.0808 10.6272,6.21637 10.6272,48.12999 0,50.03994 3.9343,58.43694 24.345,51.95884 10.5411,-3.3456 12.091,-9.234 12.091,-45.93701 0,-25.58194 -2.5232,-42.09947 -6.4311,-42.09947 -3.5371,0 -4.7421,-2.7327 -2.6779,-6.07267 2.0642,-3.33997 10.4236,-6.07267 18.5764,-6.07267 14.5533,0 14.8233,0.94006 14.8233,51.6177 0,44.92342 1.3782,51.68162 10.6271,52.11092 6.8282,0.3169 4.1146,3.3723 -7.5908,8.547 -12.0592,5.3311 -20.6529,6.0483 -25.4207,2.1217 -4.7175,-3.8853 -11.3893,-3.6914 -19.3369,0.562 -17.4775,9.3537 -23.2185,8.1659 -33.8428,-7.0025 z"
       style="fill:#367e3d;fill-opacity:0.996078;stroke-width:0.996623" /><path
       d="m 1555.8884,1036.6752 c -33.9885,-33.9884 -17.3826,-103.70252 24.7018,-103.70252 25.556,0 35.9358,5.60042 45.8256,24.72501 21.2457,41.0846 -3.3761,96.72841 -42.8012,96.72841 -5.4865,0 -17.9633,-7.9879 -27.7262,-17.7509 z m 48.8348,-6.1406 c 7.9347,-14.8261 8.1631,-58.41745 0.3826,-72.95602 -16.781,-31.35512 -42.6777,-13.67863 -42.6777,29.13069 0,44.55393 26.9565,72.48573 42.2951,43.82533 z"
       style="fill:#367e3d;fill-opacity:0.996078;stroke-width:0.996623"
       id="path118" /><path
       id="path116"
       d="m 1457.6746,1047.867 c -11.209,-6.5286 -14.9364,-35.9496 -4.5545,-35.9496 3.3399,0 6.0726,4.1576 6.0726,9.2392 0,5.0815 7.0275,12.4411 15.6166,16.3546 12.6429,5.7605 16.6724,5.4466 21.1614,-1.6484 9.721,-15.3644 9.2532,-16.1276 -26.1508,-42.67026 -32.6801,-24.5005 -16.3222,-63.79757 24.591,-59.07607 12.2269,1.41102 16.933,5.7553 18.4964,17.07422 l 2.0968,15.18168 -14.2422,-12.89057 c -7.8332,-7.08982 -17.658,-11.64432 -21.833,-10.12112 -14.6844,5.3575 -7.478,24.91491 13.8083,37.47415 11.7695,6.94419 22.995,16.78468 24.9456,21.86777 6.1497,16.0257 -2.9555,37.2274 -19.1579,44.6097 -18.8336,8.5812 -26.882,8.6905 -40.8503,0.5547 z"
       style="fill:#367e3d;fill-opacity:0.996078;stroke-width:0.996623" /><path
       d="m 1376.0905,1048.311 c -35.3223,-14.2316 -34.8237,-85.97386 0.7692,-110.69082 14.3007,-9.93092 39.5969,-4.56734 49.4611,10.4873 15.5872,23.78918 7.5995,33.44657 -27.6642,33.44657 -23.6807,0 -30.5539,2.13889 -30.5539,9.50823 0,27.17732 28.2917,49.93182 48.5814,39.07312 16.8123,-8.9977 15.7314,2.8722 -1.3513,14.8373 -15.1124,10.5852 -20.185,11.0167 -39.2423,3.3383 z m 33.386,-89.52947 c -2.9903,-15.68909 -27.0257,-16.9809 -35.1039,-1.88668 -6.1879,11.56208 -5.0305,12.51386 15.2161,12.51386 17.5929,0 21.5139,-2.09521 19.8878,-10.62718 z"
       style="fill:#367e3d;fill-opacity:0.996078;stroke-width:0.996623"
       id="path112" /><path
       d="m 1334.703,1049.6185 c -18.2536,-3.8656 -26.8,-12.7741 -43.0847,-44.9105 -19.8562,-39.18437 -32.8237,-38.8545 -32.8237,0.835 0,22.2236 2.7709,31.6754 10.6272,36.2513 8.1422,4.7425 2.8175,6.1898 -22.7725,6.1898 -25.59,0 -30.9148,-1.4473 -22.7725,-6.1898 9.183,-5.3486 10.6272,-16.0519 10.6272,-78.76002 0,-61.67944 -1.4209,-72.57029 -9.4675,-72.57029 -5.4987,0 -7.6872,-2.88035 -5.2207,-6.87125 2.8561,-4.62126 17.3901,-5.6644 44.3853,-3.18562 30.757,2.82418 42.6225,6.71649 50.7657,16.65301 14.2724,17.41523 13.4086,41.27813 -2.0913,57.77704 -15.5351,16.53628 -12.4983,28.76309 16.618,66.90743 11.672,15.2913 20.3518,28.3971 19.2884,29.1241 -1.0635,0.727 -7.399,0.1644 -14.0789,-1.2502 z m -40.6869,-93.56967 c 18.4377,-18.43772 1.1724,-65.58484 -24.0173,-65.58484 -9.6456,0 -11.2042,5.0687 -11.2042,36.43602 0,33.97175 0.9447,36.43602 13.9672,36.43602 7.6819,0 17.2464,-3.27924 21.2543,-7.2872 z"
       style="fill:#367e3d;fill-opacity:0.996078;stroke-width:0.996623"
       id="path108" /></g><g
     style="stroke-width:0.996624"
     id="g187"><path
       id="path136"
       d="m 530.07423,966.37237 v -81.98105 h 25.95951 25.95952 l 28.3385,56.1722 28.3385,56.1722 0.35604,-56.1722 0.35599,-56.1722 h 18.21801 18.21801 v 81.98105 81.98103 h -24.22517 -24.22518 l -27.08516,-53.13584 -27.08517,-53.13587 -0.30735,53.13587 -0.30736,53.13584 h -21.25434 -21.25435 z"
       style="fill:#07446a;fill-opacity:1;stroke-width:0.996623" /><path
       d="m 390.40282,966.37237 v -81.98105 h 42.90792 c 57.32073,0 83.97901,14.98687 84.42502,47.46242 0.44039,32.06855 -20.68212,53.26303 -59.0154,59.21641 l -25.80885,4.00827 v 26.63748 c 0,26.3944 -0.19396,26.6375 -21.25434,26.6375 h -21.25435 z m 69.84345,-9.11195 c 12.7507,-4.84781 15.59182,-9.44986 14.05884,-22.77252 -1.6008,-13.91199 -5.21308,-17.01429 -21.65742,-18.59981 -19.34059,-1.86479 -19.73618,-1.40834 -19.73618,22.77251 0,26.36919 2.47329,28.05213 27.33476,18.59982 z"
       style="fill:#07446a;fill-opacity:1;stroke-width:0.996623"
       id="path132" /><path
       d="m 797.75113,1060.5722 c -0.26368,-11.6494 -10.72705,-45.4186 -23.25193,-75.04254 l -22.77251,-53.86172 -1.73807,58.34274 -1.73807,58.34272 H 727.2161 706.18166 v -82.29839 -82.2984 l 31.77148,1.83552 31.77147,1.83552 20.58304,49.81328 20.58305,49.81327 14.4412,-28.97979 c 22.0168,-44.18199 52.0985,-75.45824 94.4498,-98.20042 33.8589,-18.18186 43.8183,-20.63554 83.9608,-20.68511 53.4898,-0.0661 90.6097,16.48193 113.6275,50.65499 13.6235,20.22587 19.6835,69.23264 9.3441,75.5646 -2.505,1.53406 -4.6744,-7.48907 -4.8209,-20.05141 -0.3553,-30.45587 -16.4615,-53.42575 -47.2703,-67.4139 -28.3233,-12.85973 -84.7672,-15.43507 -120.5385,-5.49976 -57.9594,16.09796 -117.0946,79.01506 -136.3866,145.109 -19.63493,67.2686 -19.40884,66.781 -19.94667,43.0198 z m 45.13627,-31.955 c 5.2719,-25.5522 29.52,-77.07155 43.5869,-92.60818 17.2799,-19.08523 50.7719,-45.54503 57.6496,-45.54503 3.437,0 -2.26,7.9486 -12.6599,17.66355 -27.0754,25.29223 -42.8105,63.85586 -42.9689,105.30806 l -0.1333,34.9178 h -24.7732 c -24.7361,0 -24.7671,-0.03 -20.7012,-19.7362 z"
       style="fill:#07446a;fill-opacity:1;stroke-width:0.996623"
       id="path104" /></g><g
     style="stroke-width:0.996624"
     id="g191"><path
       id="path106"
       d="m 1041.3814,1044.2676 c -22.1701,-10.926 -37.6389,-35.4521 -37.6389,-59.67722 0,-19.93555 14.7879,-49.00202 27.3908,-53.8382 8.7237,-3.3476 8.7446,-2.4398 0.2247,9.72432 -26.1607,37.3495 -0.096,83.5862 47.1188,83.5862 102.3128,0 130.3701,-153.83435 42.1798,-231.26644 -24.1014,-21.1613 -88.6342,-53.85936 -107.8051,-54.62367 -6.6799,-0.26631 -8.7417,-1.85848 -4.5816,-3.53815 4.1601,-1.67967 21.9227,1.64228 39.4724,7.38213 138.1292,45.17678 198.646,179.87801 121.3718,270.15543 -35.3149,41.2575 -84.2118,53.544 -127.7327,32.0956 z"
       style="fill:#07446a;fill-opacity:1;stroke-width:0.996623" /><path
       id="path96"
       d="m 1007.3298,1148.1076 c -57.589,-21.1002 -88.6047,-63.4587 -88.6047,-121.0085 0,-38.13158 13.3592,-69.62532 40.4344,-95.32244 19.9375,-18.92279 56.2104,-35.4545 76.2695,-34.76058 9.8513,0.3408 6.4992,3.08657 -11.5934,9.49609 -45.863,16.24755 -80.936,68.68663 -80.6526,120.58693 0.2307,42.2457 36.3152,90.6956 81.6538,109.6349 24.6522,10.2979 79.1748,13.7486 106.4318,6.7359 12.4129,-3.1936 11.8592,-2.3057 -3.0364,4.8689 -23.3128,11.2289 -89.9723,11.1014 -120.9024,-0.2312 z"
       style="fill:#07446a;fill-opacity:1;stroke-width:0.996623" /></g><text
     xml:space="preserve"
     style="font-style:normal;font-weight:normal;font-size:40px;line-height:1.25;font-family:sans-serif;fill:#367e3d;fill-opacity:0.996078;stroke:none;stroke-width:0.996624"
     x="2101.7715"
     y="938.95728"
     id="text158"><tspan
       style="stroke-width:0.996624"
       sodipodi:role="line"
       id="tspan156"
       x="2101.7715"
       y="938.95728">R</tspan></text><circle
     style="fill:none;fill-opacity:0.996078;stroke:#367d3d;stroke-width:3.9865;stroke-linecap:round;stroke-linejoin:round;stroke-opacity:0.996078"
     id="path160"
     cx="2117.0547"
     cy="924.3772"
     r="19.896194" /></g><g
   transform="matrix(1.0020066,0,0,0.99814634,-561.25472,-877.47155)"
   id="g269"
   style="fill:#367e3d;fill-opacity:0.996078;stroke-width:0.999925"><path
     id="path251"
     d="m 1771.5015,1038.8106 c 13.3296,-13.3296 13.2176,-77.01026 -0.1549,-88.10852 -8.8057,-7.30809 -8.666,-8.45441 1.5182,-12.46209 18.5646,-7.30554 26.3975,-5.8212 26.3975,5.00237 0,9.30995 0.7468,9.24824 7.9922,-0.66035 9.2194,-12.6082 31.4801,-10.75608 31.4801,2.61918 0,4.97739 -5.4476,9.02584 -12.1453,9.02584 -22.2277,0 -27.327,8.50943 -27.327,45.60167 0,27.6658 2.4091,37.179 10.6271,41.9656 8.2921,4.8297 4.1937,6.2304 -18.6517,6.3745 -26.6173,0.1678 -28.4115,-0.6829 -19.7362,-9.3582 z"
     style="fill:#367e3d;fill-opacity:0.996078;stroke-width:0.999924" /><path
     id="path253"
     d="m 2041.2253,1050.3506 c -9.6979,-2.5724 -21.0167,-30.6423 -14.8449,-36.8141 1.6613,-1.6613 9.5618,4.5842 17.5566,13.8788 9.5918,11.1511 17.96,15.5854 24.6022,13.0366 18.1452,-6.9629 11.4624,-27.5005 -14.2248,-43.71618 -27.1494,-17.13863 -31.9572,-36.72449 -13.1853,-53.71284 16.8066,-15.20979 47.3731,-13.23061 51.7086,3.34812 4.9186,18.8089 1.0233,20.07557 -14.3772,4.6751 -11.5329,-11.5329 -14.4567,-12.14742 -21.9836,-4.62053 -11.4359,11.43602 -5.8979,23.27943 17.8832,38.24401 44.3947,27.93602 18.4501,79.36422 -33.1348,65.68102 z"
     style="fill:#367e3d;fill-opacity:0.996078;stroke-width:0.999924" /><path
     d="m 1959.0668,1048.311 c -17.7666,-7.1583 -26.2058,-24.4666 -26.2058,-53.74646 0,-50.04333 52.9854,-82.24732 76.4361,-46.45706 15.5873,23.78918 7.5995,33.44657 -27.6642,33.44657 -26.7317,0 -30.5539,1.55384 -30.5539,12.42137 0,16.17588 28.2317,44.40768 39.7424,39.74238 26.537,-10.7554 29.0762,-9.7843 13.0549,4.9929 -18.1837,16.7716 -23.9464,18.0063 -44.8095,9.6003 z m 33.386,-89.52947 c -2.9903,-15.68909 -27.0257,-16.9809 -35.1039,-1.88668 -6.1878,11.56208 -5.0305,12.51386 15.2161,12.51386 17.5929,0 21.5139,-2.09521 19.8878,-10.62718 z"
     style="fill:#367e3d;fill-opacity:0.996078;stroke-width:0.999924"
     id="path255" /><path
     id="path257"
     d="m 1867.9768,1048.311 c -17.9193,-7.2198 -26.2058,-24.5101 -26.2058,-54.67952 0,-33.70662 25.4256,-60.6588 57.2232,-60.6588 17.673,0 21.7215,2.26365 21.7215,12.14534 0,14.26151 -0.5775,14.38867 -21.682,4.77289 -14.3772,-6.5507 -17.4551,-5.79882 -27.6127,6.74542 -15.565,19.22184 -14.3615,45.12537 3.0361,65.35127 13.236,15.3878 15.8886,16.173 31.1481,9.2203 22.6566,-10.323 25.3538,-5.2346 5.5023,10.3805 -17.7544,13.9657 -23.0899,14.7973 -43.1307,6.7226 z"
     style="fill:#367e3d;fill-opacity:0.996078;stroke-width:0.999924" /><path
     id="path259"
     d="m 1662.9715,1040.9295 c -6.2985,-8.9924 -9.4533,-27.2317 -9.4533,-54.65399 0,-28.82795 -2.274,-41.18534 -7.5909,-41.25048 -11.9586,-0.14647 8.8424,-11.85075 21.2544,-11.95936 9.2368,-0.0808 10.6272,6.21637 10.6272,48.12999 0,50.03994 3.9343,58.43694 24.345,51.95884 10.5411,-3.3456 12.091,-9.234 12.091,-45.93701 0,-25.58194 -2.5232,-42.09947 -6.4311,-42.09947 -3.5371,0 -4.7421,-2.7327 -2.6779,-6.07267 2.0642,-3.33997 10.4236,-6.07267 18.5764,-6.07267 14.5533,0 14.8233,0.94006 14.8233,51.6177 0,44.92342 1.3782,51.68162 10.6271,52.11092 6.8282,0.3169 4.1146,3.3723 -7.5908,8.547 -12.0592,5.3311 -20.6529,6.0483 -25.4207,2.1217 -4.7175,-3.8853 -11.3893,-3.6914 -19.3369,0.562 -17.4775,9.3537 -23.2185,8.1659 -33.8428,-7.0025 z"
     style="fill:#367e3d;fill-opacity:0.996078;stroke-width:0.999924" /><path
     d="m 1555.8884,1036.6752 c -33.9885,-33.9884 -17.3826,-103.70252 24.7018,-103.70252 25.556,0 35.9358,5.60042 45.8256,24.72501 21.2457,41.0846 -3.3761,96.72841 -42.8012,96.72841 -5.4865,0 -17.9633,-7.9879 -27.7262,-17.7509 z m 48.8348,-6.1406 c 7.9347,-14.8261 8.1631,-58.41745 0.3826,-72.95602 -16.781,-31.35512 -42.6777,-13.67863 -42.6777,29.13069 0,44.55393 26.9565,72.48573 42.2951,43.82533 z"
     style="fill:#367e3d;fill-opacity:0.996078;stroke-width:0.999924"
     id="path261" /><path
     id="path263"
     d="m 1457.6746,1047.867 c -11.209,-6.5286 -14.9364,-35.9496 -4.5545,-35.9496 3.3399,0 6.0726,4.1576 6.0726,9.2392 0,5.0815 7.0275,12.4411 15.6166,16.3546 12.6429,5.7605 16.6724,5.4466 21.1614,-1.6484 9.721,-15.3644 9.2532,-16.1276 -26.1508,-42.67026 -32.6801,-24.5005 -16.3222,-63.79757 24.591,-59.07607 12.2269,1.41102 16.933,5.7553 18.4964,17.07422 l 2.0968,15.18168 -14.2422,-12.89057 c -7.8332,-7.08982 -17.658,-11.64432 -21.833,-10.12112 -14.6844,5.3575 -7.478,24.91491 13.8083,37.47415 11.7695,6.94419 22.995,16.78468 24.9456,21.86777 6.1497,16.0257 -2.9555,37.2274 -19.1579,44.6097 -18.8336,8.5812 -26.882,8.6905 -40.8503,0.5547 z"
     style="fill:#367e3d;fill-opacity:0.996078;stroke-width:0.999924" /><path
     d="m 1376.0905,1048.311 c -35.3223,-14.2316 -34.8237,-85.97386 0.7692,-110.69082 14.3007,-9.93092 39.5969,-4.56734 49.4611,10.4873 15.5872,23.78918 7.5995,33.44657 -27.6642,33.44657 -23.6807,0 -30.5539,2.13889 -30.5539,9.50823 0,27.17732 28.2917,49.93182 48.5814,39.07312 16.8123,-8.9977 15.7314,2.8722 -1.3513,14.8373 -15.1124,10.5852 -20.185,11.0167 -39.2423,3.3383 z m 33.386,-89.52947 c -2.9903,-15.68909 -27.0257,-16.9809 -35.1039,-1.88668 -6.1879,11.56208 -5.0305,12.51386 15.2161,12.51386 17.5929,0 21.5139,-2.09521 19.8878,-10.62718 z"
     style="fill:#367e3d;fill-opacity:0.996078;stroke-width:0.999924"
     id="path265" /><path
     d="m 1334.703,1049.6185 c -18.2536,-3.8656 -26.8,-12.7741 -43.0847,-44.9105 -19.8562,-39.18437 -32.8237,-38.8545 -32.8237,0.835 0,22.2236 2.7709,31.6754 10.6272,36.2513 8.1422,4.7425 2.8175,6.1898 -22.7725,6.1898 -25.59,0 -30.9148,-1.4473 -22.7725,-6.1898 9.183,-5.3486 10.6272,-16.0519 10.6272,-78.76002 0,-61.67944 -1.4209,-72.57029 -9.4675,-72.57029 -5.4987,0 -7.6872,-2.88035 -5.2207,-6.87125 2.8561,-4.62126 17.3901,-5.6644 44.3853,-3.18562 30.757,2.82418 42.6225,6.71649 50.7657,16.65301 14.2724,17.41523 13.4086,41.27813 -2.0913,57.77704 -15.5351,16.53628 -12.4983,28.76309 16.618,66.90743 11.672,15.2913 20.3518,28.3971 19.2884,29.1241 -1.0635,0.727 -7.399,0.1644 -14.0789,-1.2502 z m -40.6869,-93.56967 c 18.4377,-18.43772 1.1724,-65.58484 -24.0173,-65.58484 -9.6456,0 -11.2042,5.0687 -11.2042,36.43602 0,33.97175 0.9447,36.43602 13.9672,36.43602 7.6819,0 17.2464,-3.27924 21.2543,-7.2872 z"
     style="fill:#367e3d;fill-opacity:0.996078;stroke-width:0.999924"
     id="path267" /></g></svg>
