<?xml version="1.0" encoding="UTF-8" standalone="no"?>
<!-- Created with Inkscape (http://www.inkscape.org/) -->

<svg
   xmlns:dc="http://purl.org/dc/elements/1.1/"
   xmlns:cc="http://creativecommons.org/ns#"
   xmlns:rdf="http://www.w3.org/1999/02/22-rdf-syntax-ns#"
   xmlns:svg="http://www.w3.org/2000/svg"
   xmlns="http://www.w3.org/2000/svg"
   xmlns:sodipodi="http://sodipodi.sourceforge.net/DTD/sodipodi-0.dtd"
   xmlns:inkscape="http://www.inkscape.org/namespaces/inkscape"
   width="135.46666mm"
   height="41.997166mm"
   viewBox="0 0 135.46666 41.997166"
   version="1.1"
   id="svg984"
   inkscape:version="0.92.1 r15371"
   sodipodi:docname="pcc logo.svg">
  <defs
     id="defs978">
    <clipPath
       clipPathUnits="userSpaceOnUse"
       id="clipPath244">
      <path
         d="m 393.502,405.436 h 232 v 71.924 h -232 z"
         id="path242"
         inkscape:connector-curvature="0" />
    </clipPath>
    <clipPath
       clipPathUnits="userSpaceOnUse"
       id="clipPath228">
      <path
         d="M 393.502,405.436 H 625.501 V 477.36 H 393.502 Z"
         id="path226"
         inkscape:connector-curvature="0" />
    </clipPath>
    <clipPath
       clipPathUnits="userSpaceOnUse"
       id="clipPath162">
      <path
         d="m 393.502,405.436 h 232 v 71.924 h -232 z"
         id="path160"
         inkscape:connector-curvature="0" />
    </clipPath>
  </defs>
  <sodipodi:namedview
     id="base"
     pagecolor="#ffffff"
     bordercolor="#666666"
     borderopacity="1.0"
     inkscape:pageopacity="0.0"
     inkscape:pageshadow="2"
     inkscape:zoom="0.35"
     inkscape:cx="-142.57142"
     inkscape:cy="16.507564"
     inkscape:document-units="mm"
     inkscape:current-layer="layer1"
     showgrid="false"
     fit-margin-top="0"
     fit-margin-left="0"
     fit-margin-right="0"
     fit-margin-bottom="0"
     inkscape:window-width="1600"
     inkscape:window-height="838"
     inkscape:window-x="-8"
     inkscape:window-y="-8"
     inkscape:window-maximized="1" />
  <metadata
     id="metadata981">
    <rdf:RDF>
      <cc:Work
         rdf:about="">
        <dc:format>image/svg+xml</dc:format>
        <dc:type
           rdf:resource="http://purl.org/dc/dcmitype/StillImage" />
        <dc:title></dc:title>
      </cc:Work>
    </rdf:RDF>
  </metadata>
  <g
     inkscape:label="Layer 1"
     inkscape:groupmode="layer"
     id="layer1"
     transform="translate(-14.665475,-111.20379)">
    <g
       transform="matrix(0.58391031,0,0,-0.58391031,-215.1044,389.93922)"
       id="g156">
      <g
         id="g158"
         clip-path="url(#clipPath162)">
        <g
           id="g164"
           transform="translate(441.9388,454.0202)">
          <path
             d="m 0,0 9.914,-9.913 -11.937,-11.937 -4.784,4.784 c -3.242,-3.367 -7.19,-4.381 -10.39,-4.371 -16.707,0.062 -17.122,22.523 -2.495,22.828 4.55,0.092 8.792,-2.549 8.682,-8.054 -0.16,-8.064 -10.651,-7.635 -10.72,-2.719 -0.014,1.029 0.885,2.122 1.996,2.122 1.575,10e-4 1.575,-1.414 2.957,-1.414 1.03,0 1.943,0.982 1.995,1.931 0.302,5.448 -11.024,6.373 -11.34,-2.662 -0.346,-9.929 18.406,-12.142 19.527,2.81 0.589,7.856 -9.234,15.565 -19.855,10.569 l 10e-4,10e-4 11.237,11.238 z m -48.437,-9.9 33.225,-33.224 33.223,33.225 -33.223,33.224 z"
             style="fill:#178cac;fill-opacity:1;fill-rule:nonzero;stroke:none"
             id="path166"
             inkscape:connector-curvature="0" />
        </g>
        <g
           id="g168"
           transform="translate(469.8347,458.194)">
          <path
             d="m 0,0 v 19.066 h 9.188 c 5.482,0 8.129,-2.515 8.129,-6.434 0,-4.105 -2.436,-6.699 -7.918,-6.699 H 6.249 V 0 Z m 8.844,10.381 c 1.456,0 2.516,0.584 2.516,2.225 0,1.773 -2.013,2.011 -3.338,2.011 H 6.249 v -4.236 z"
             style="fill:#178cac;fill-opacity:1;fill-rule:nonzero;stroke:none"
             id="path170"
             inkscape:connector-curvature="0" />
        </g>
        <g
           id="g172"
           transform="translate(495.7748,472.3683)">
          <path
             d="m 0,0 c 4.901,0 7.92,-2.885 7.92,-7.201 0,-5.085 -3.445,-7.468 -7.892,-7.468 -4.449,0 -7.891,2.436 -7.891,7.177 C -7.863,-2.674 -4.685,0 0,0 m -2.354,-7.201 c 0,-2.621 0.979,-3.762 2.382,-3.762 1.484,0 2.383,1.141 2.383,3.762 0,2.039 -0.899,3.574 -2.329,3.495 -1.88,0 -2.436,-1.933 -2.436,-3.495"
             style="fill:#178cac;fill-opacity:1;fill-rule:nonzero;stroke:none"
             id="path174"
             inkscape:connector-curvature="0" />
        </g>
        <g
           id="g176"
           transform="translate(526.1791,466.9547)">
          <path
             d="M 0,0 V 5.018 H -2.648 V 9.334 H -8.077 V 5.018 h -1.176 c -0.24,0.025 -1.801,0 -2.04,0 -2.144,0 -3.196,-0.845 -4.288,-2.807 h -0.054 V 5.018 H -20.64 V -8.859 h 5.508 v 4.792 c 0,2.994 1.139,4.053 3.389,4.053 0.372,0 2.038,0.064 2.407,0.011 l 1.177,0.01 0.003,-3.966 c 0,-4.794 0.874,-5.296 8.102,-4.9 v 3.947 h -0.873 c -1.536,0 -1.721,0.449 -1.721,1.721 V 0 Z"
             style="fill:#178cac;fill-opacity:1;fill-rule:nonzero;stroke:none"
             id="path178"
             inkscape:connector-curvature="0" />
        </g>
        <path
           d="m 528.351,477.36 h 5.507 v -19.067 h -5.507 z"
           style="fill:#178cac;fill-opacity:1;fill-rule:nonzero;stroke:none"
           id="path180"
           inkscape:connector-curvature="0" />
        <g
           id="g182"
           transform="translate(550.973,458.0965)">
          <path
             d="m 0,0 h -5.22 v 1.484 c -1.56,-1.458 -3.138,-1.881 -5.204,-1.881 -2.624,0 -4.953,1.296 -4.953,4.184 0,6.303 9.88,3.441 9.88,6.037 0,1.006 -1.22,1.138 -1.802,1.138 -0.768,0 -1.8,-0.159 -1.936,-1.35 h -5.295 c 0,2.94 2.093,4.661 7.574,4.661 6.568,0 6.963,-2.436 6.963,-5.746 z M -5.497,6.143 C -7.299,5.269 -9.683,5.694 -9.683,3.892 c 0,-0.687 0.662,-1.165 1.746,-1.165 1.936,0 2.568,1.509 2.44,3.416"
             style="fill:#178cac;fill-opacity:1;fill-rule:nonzero;stroke:none"
             id="path184"
             inkscape:connector-curvature="0" />
        </g>
        <g
           id="g186"
           transform="translate(553.4287,471.973)">
          <path
             d="m 0,0 h 5.031 v -2.172 c 1.245,1.669 2.597,2.567 4.689,2.567 3.653,0 5.375,-2.143 5.375,-5.957 v -8.315 h -5.51 v 7.335 c 0,1.377 -0.369,2.595 -1.932,2.595 -1.695,0 -2.144,-1.085 -2.144,-2.858 v -7.072 H 0 Z"
             style="fill:#178cac;fill-opacity:1;fill-rule:nonzero;stroke:none"
             id="path188"
             inkscape:connector-curvature="0" />
        </g>
        <g
           id="g190"
           transform="translate(580.9937,458.0959)">
          <path
             d="m 0,0 v 1.854 c -1.299,-1.695 -2.492,-2.25 -4.263,-2.25 -4.185,0 -6.304,3.15 -6.304,7.069 0,4.608 2.567,7.601 5.878,7.601 1.749,0 2.965,-0.424 4.131,-1.8 v 6.592 H 4.951 V 0 Z m -0.372,6.805 c 0,1.538 -0.53,3.205 -2.358,3.205 -1.825,0 -2.329,-1.748 -2.329,-3.283 0,-1.457 0.37,-3.151 2.171,-3.151 1.909,0 2.516,1.616 2.516,3.229"
             style="fill:#178cac;fill-opacity:1;fill-rule:nonzero;stroke:none"
             id="path192"
             inkscape:connector-curvature="0" />
        </g>
        <g
           id="g194"
           transform="translate(480.4489,446.4453)">
          <path
             d="m 0,0 c -0.186,1.987 -1.43,3.125 -3.39,3.125 -2.198,0 -3.521,-1.88 -3.521,-5.561 0,-2.676 0.582,-5.191 3.759,-5.191 2.013,0 2.966,1.406 3.204,3.231 h 6.011 c -0.555,-4.925 -4.077,-7.892 -9.109,-7.892 -6.303,0 -10.116,3.867 -10.116,10.063 0,6.171 4.185,10.011 9.507,10.011 5.826,0 9.083,-2.887 9.587,-7.786 z"
             style="fill:#178cac;fill-opacity:1;fill-rule:nonzero;stroke:none"
             id="path196"
             inkscape:connector-curvature="0" />
        </g>
        <g
           id="g198"
           transform="translate(505.6558,448.5371)">
          <path
             d="m 0,0 h 5.058 v -2.065 c 0.687,1.06 2.408,2.463 4.396,2.463 2.49,0 3.867,-1.058 4.529,-2.543 1.189,1.67 2.753,2.543 4.79,2.543 4.053,0 5.325,-2.276 5.325,-6.065 v -8.209 h -5.509 v 7.072 c 0,2.039 -0.397,2.859 -1.853,2.859 -1.615,0 -1.932,-1.403 -1.932,-3.072 v -6.859 H 9.295 v 7.072 c 0,2.039 -0.397,2.859 -1.854,2.859 -1.615,0 -1.934,-1.403 -1.934,-3.072 v -6.859 H 0 Z"
             style="fill:#178cac;fill-opacity:1;fill-rule:nonzero;stroke:none"
             id="path200"
             inkscape:connector-curvature="0" />
        </g>
        <g
           id="g202"
           transform="translate(532.1686,448.5371)">
          <path
             d="m 0,0 h 5.058 v -2.065 c 0.688,1.06 2.41,2.463 4.398,2.463 2.488,0 3.865,-1.058 4.528,-2.543 1.188,1.67 2.754,2.543 4.793,2.543 4.051,0 5.321,-2.276 5.321,-6.065 v -8.209 h -5.507 v 7.072 c 0,2.039 -0.397,2.859 -1.853,2.859 -1.615,0 -1.935,-1.403 -1.935,-3.072 v -6.859 H 9.295 v 7.072 c 0,2.039 -0.395,2.859 -1.854,2.859 -1.614,0 -1.932,-1.403 -1.932,-3.072 v -6.859 H 0 Z"
             style="fill:#178cac;fill-opacity:1;fill-rule:nonzero;stroke:none"
             id="path204"
             inkscape:connector-curvature="0" />
        </g>
        <g
           id="g206"
           transform="translate(573.7117,434.6611)">
          <path
             d="m 0,0 h -5.112 v 2.039 c -1.377,-1.906 -2.727,-2.436 -5.006,-2.436 -3.018,0 -4.976,1.853 -4.976,5.826 v 8.447 h 5.505 V 6.382 c 0,-1.907 0.663,-2.516 1.987,-2.516 1.589,0 2.092,1.193 2.092,3.336 v 6.674 H 0 Z"
             style="fill:#178cac;fill-opacity:1;fill-rule:nonzero;stroke:none"
             id="path208"
             inkscape:connector-curvature="0" />
        </g>
        <g
           id="g210"
           transform="translate(576.1627,448.5371)">
          <path
             d="m 0,0 h 5.032 v -2.17 c 1.247,1.669 2.595,2.568 4.688,2.568 3.655,0 5.377,-2.144 5.377,-5.957 v -8.317 h -5.51 v 7.337 c 0,1.375 -0.371,2.594 -1.935,2.594 -1.692,0 -2.141,-1.085 -2.141,-2.859 v -7.072 H 0 Z"
             style="fill:#178cac;fill-opacity:1;fill-rule:nonzero;stroke:none"
             id="path212"
             inkscape:connector-curvature="0" />
        </g>
        <g
           id="g214"
           transform="translate(480.4489,422.9136)">
          <path
             d="m 0,0 c -0.186,1.986 -1.43,3.122 -3.39,3.122 -2.198,0 -3.521,-1.879 -3.521,-5.559 0,-2.675 0.582,-5.192 3.759,-5.192 2.013,0 2.966,1.404 3.204,3.231 h 6.011 c -0.555,-4.926 -4.077,-7.89 -9.109,-7.89 -6.303,0 -10.116,3.866 -10.116,10.062 0,6.17 4.185,10.009 9.507,10.009 5.826,0 9.083,-2.885 9.587,-7.783 z"
             style="fill:#178cac;fill-opacity:1;fill-rule:nonzero;stroke:none"
             id="path216"
             inkscape:connector-curvature="0" />
        </g>
        <path
           d="m 505.665,430.195 h 5.509 v -19.069 h -5.509 z"
           style="fill:#178cac;fill-opacity:1;fill-rule:nonzero;stroke:none"
           id="path218"
           inkscape:connector-curvature="0" />
        <path
           d="m 514.403,430.195 h 5.505 v -19.069 h -5.505 z"
           style="fill:#178cac;fill-opacity:1;fill-rule:nonzero;stroke:none"
           id="path220"
           inkscape:connector-curvature="0" />
      </g>
    </g>
    <g
       transform="matrix(0.58391031,0,0,-0.58391031,-215.1044,389.93922)"
       id="g222">
      <g
         id="g224"
         clip-path="url(#clipPath228)">
        <g
           id="g230"
           transform="translate(527.5538,416.8206)">
          <path
             d="m 0,0 c 0,-1.641 1.271,-2.726 2.727,-2.726 0.876,0 1.67,0.397 2.067,1.217 h 5.269 c -0.952,-3.444 -4.45,-4.58 -7.68,-4.58 -4.447,0 -7.89,2.541 -7.89,7.202 0,4.554 3.416,7.467 7.863,7.467 5.14,0 8.236,-3.547 8.158,-8.58 z m 5.005,2.809 c 0,1.27 -1.137,2.41 -2.435,2.41 C 0.926,5.219 0,4.29 0,2.809 Z"
             style="fill:#178cac;fill-opacity:1;fill-rule:nonzero;stroke:none"
             id="path232"
             inkscape:connector-curvature="0" />
        </g>
        <g
           id="g234"
           transform="translate(547.384,409.128)">
          <path
             d="M 0,0 C 1.587,0 2.241,0.163 2.241,2.15 V 3.288 C 1.447,2.494 0.254,1.779 -1.732,1.779 c -3.84,0 -6.036,3.018 -6.036,6.567 0,3.417 1.64,7.044 6.197,7.044 1.667,0 3.23,-0.872 4.209,-2.223 v 1.826 H 7.483 V 3.818 c 0,-2.931 -0.71,-5.517 -2.772,-6.879 -1.335,-0.883 -4.168,-0.567 -5.808,-0.61 l -1.842,0.016 c 0,0 0.003,2.541 0,3.655 z m -2.262,8.294 c 0,-1.378 0.691,-2.673 2.173,-2.702 1.693,-0.08 2.33,1.379 2.33,2.86 0,1.536 -0.582,2.994 -2.33,2.994 -1.669,0.025 -2.173,-1.353 -2.173,-3.152"
             style="fill:#178cac;fill-opacity:1;fill-rule:nonzero;stroke:none"
             id="path236"
             inkscape:connector-curvature="0" />
        </g>
      </g>
    </g>
    <g
       transform="matrix(0.58391031,0,0,-0.58391031,-215.1044,389.93922)"
       id="g238">
      <g
         id="g240"
         clip-path="url(#clipPath244)">
        <g
           id="g246"
           transform="translate(562.0031,416.8206)">
          <path
             d="m 0,0 c 0,-1.641 1.272,-2.726 2.728,-2.726 0.874,0 1.67,0.397 2.065,1.217 h 5.27 c -0.952,-3.444 -4.447,-4.58 -7.678,-4.58 -4.448,0 -7.893,2.541 -7.893,7.202 0,4.554 3.419,7.467 7.866,7.467 5.137,0 8.237,-3.547 8.157,-8.58 z m 5.007,2.809 c 0,1.27 -1.138,2.41 -2.437,2.41 C 0.928,5.219 0,4.29 0,2.809 Z"
             style="fill:#178cac;fill-opacity:1;fill-rule:nonzero;stroke:none"
             id="path248"
             inkscape:connector-curvature="0" />
        </g>
        <path
           d="m 598.809,456.176 h -5.585 v -5.585 h 5.585 z"
           style="fill:#178cac;fill-opacity:1;fill-rule:nonzero;stroke:none"
           id="path250"
           inkscape:connector-curvature="0" />
        <g
           id="g252"
           transform="translate(620.2051,448.5383)">
          <path
             d="M 0,0 -2.412,-8.56 -4.84,0 h -8.055 v 3.419 h -5.426 V 0 l -8.621,-0.001 v -13.876 h 5.509 v 8.774 h 3.029 v -3.873 c 0,-4.796 0.874,-5.298 8.104,-4.901 v 3.946 h -0.875 c -1.537,0 -1.72,0.45 -1.72,1.722 v 3.106 h 4.357 l 2.711,-7.549 c 0.554,-1.522 0.161,-2.026 -1.564,-2.026 -0.368,0 -0.739,0.029 -1.137,0.029 v -3.843 c 0.424,0 1.432,-0.105 2.436,-0.105 4.899,0 5.483,1.35 6.937,5.64 L 5.296,0 Z"
             style="fill:#178cac;fill-opacity:1;fill-rule:nonzero;stroke:none"
             id="path254"
             inkscape:connector-curvature="0" />
        </g>
        <g
           id="g256"
           transform="translate(495.9105,448.8137)">
          <path
             d="m 0,0 c 4.901,0 7.919,-2.887 7.919,-7.203 0,-5.084 -3.444,-7.466 -7.891,-7.466 -4.45,0 -7.893,2.436 -7.893,7.176 C -7.865,-2.674 -4.685,0 0,0 m -2.356,-7.203 c 0,-2.62 0.98,-3.76 2.384,-3.76 1.483,0 2.382,1.14 2.382,3.76 0,2.041 -0.899,3.577 -2.329,3.497 -1.88,0 -2.437,-1.934 -2.437,-3.497"
             style="fill:#178cac;fill-opacity:1;fill-rule:nonzero;stroke:none"
             id="path258"
             inkscape:connector-curvature="0" />
        </g>
        <g
           id="g260"
           transform="translate(495.8311,425.3943)">
          <path
             d="m 0,0 c 4.898,0 7.918,-2.887 7.918,-7.203 0,-5.085 -3.444,-7.467 -7.89,-7.467 -4.45,0 -7.893,2.436 -7.893,7.176 C -7.865,-2.673 -4.686,0 0,0 m -2.357,-7.203 c 0,-2.622 0.981,-3.761 2.385,-3.761 1.482,0 2.382,1.139 2.382,3.761 0,2.04 -0.9,3.576 -2.331,3.497 -1.879,0 -2.436,-1.935 -2.436,-3.497"
             style="fill:#178cac;fill-opacity:1;fill-rule:nonzero;stroke:none"
             id="path262"
             inkscape:connector-curvature="0" />
        </g>
      </g>
    </g>
  </g>
</svg>
