<svg version="1.1" id="Layer_1" xmlns="http://www.w3.org/2000/svg" xmlns:xlink="http://www.w3.org/1999/xlink" x="0px" y="0px"
	 viewBox="0 0 180 45" style="enable-background:new 0 0 180 45;" xml:space="preserve">
<style type="text/css">
	.st0{fill:#0B0C0E;}
	.st1{fill:#0C0D0E;}
	.st2{fill:#0493DB;}
	.st3{fill:#0593DB;}
	.st4{fill:#0D0E10;}
	.st5{fill:#0593DC;}
	.st6{fill:#0493DC;}
	.st7{fill:#DB167B;}
	.st8{fill:#DB167C;}
	.st9{fill:#DC187C;}
	.st10{fill:#0594DC;}
	.st11{fill:#DA177B;}
	.st12{fill:#DB187C;}
	.st13{fill:#DC177C;}
	.st14{fill:#DC167C;}
	.st15{fill:#0593DA;}
	.st16{fill:#DD177D;}
</style>
<path class="st0" d="M33.6,20.2c0-6.6,0-13.2,0-19.8c0.1,0,0.2,0,0.3,0c2.7,0,5.4,0,8.2,0c1.4,0,2.7,0.3,3.8,1
	c1.4,0.9,2.2,2.2,2.2,3.8c0,3.3,0,6.7,0,10c0,2.1-1.4,3.8-3.6,4.5c-0.8,0.2-1.6,0.4-2.5,0.4c-2.7,0.1-5.4,0-8.2,0
	C33.8,20.2,33.7,20.2,33.6,20.2z M38.2,4.4c0,3.9,0,7.9,0,11.8c0.9,0,1.7,0,2.5,0c0.3,0,0.6,0,0.9,0c1.3-0.1,2-0.8,2-2.1
	c0-2.6,0-5.2,0-7.7c0-1.2-0.6-1.9-1.8-2C40.6,4.3,39.4,4.4,38.2,4.4z"/>
<path class="st1" d="M29.2,10.3c0,1.4,0,2.8,0,4.2c-0.1,2.6-1.4,4.4-3.9,5.3c-2.9,1-5.8,1-8.6-0.4c-1.9-0.9-3-2.6-3-4.7
	c-0.1-2.9-0.1-5.8,0-8.7c0-2.6,1.4-4.4,3.8-5.3c2.7-1,5.5-1,8.2,0.1c2.4,1,3.5,2.9,3.5,5.4C29.2,7.6,29.2,9,29.2,10.3
	C29.2,10.3,29.2,10.3,29.2,10.3z M24.7,10.3c0-1.2,0-2.5,0-3.7c0-1.4-0.6-2.2-2-2.4c-0.8-0.1-1.6-0.1-2.4,0c-1.3,0.2-2,1-2,2.3
	c0,2.5,0,5.1,0,7.6c0,1.4,0.7,2.1,2,2.3c0.7,0.1,1.5,0.1,2.2,0.1c1.6-0.2,2.3-1.1,2.3-2.6C24.7,12.6,24.7,11.5,24.7,10.3z"/>
<path class="st0" d="M64.8,16.5c0,1.3,0,2.5,0,3.7c-4.7,0-9.3,0-14,0c0-1.2,0-2.3,0-3.5c0-0.2,0.2-0.4,0.3-0.5
	c2.7-3.9,5.4-7.7,8.1-11.6c0.1-0.2,0.2-0.3,0.4-0.6c-2.8,0-5.6,0-8.4,0c0-1.2,0-2.4,0-3.6c4.5,0,8.9,0,13.4,0c0,1.2,0,2.3,0,3.5
	c0,0.2-0.1,0.3-0.2,0.5C61.7,8.3,59,12.1,56.2,16c-0.1,0.1-0.2,0.3-0.3,0.5C58.9,16.5,61.8,16.5,64.8,16.5z"/>
<path class="st2" d="M165.8,20.2c-1,0-1.9,0-2.8,0c-0.1,0-0.3-0.2-0.4-0.3c-1.5-2.2-3-4.3-4.5-6.5c-0.2-0.3-0.4-0.4-0.8-0.4
	c-1.4,0-2.9,0-4.4,0c0,2.4,0,4.8,0,7.2c-0.9,0-1.7,0-2.6,0c0-0.2,0-0.3,0-0.5c0-6.3,0-12.6,0-18.9c0-0.3,0-0.5,0.4-0.5
	c2.7,0,5.4,0,8.1,0.1c1,0,2,0.2,2.9,0.7c1.2,0.7,1.9,1.7,1.9,3c0.1,1.7,0.1,3.4,0,5.1c-0.1,1.7-1.1,2.9-2.8,3.4
	c-0.1,0-0.2,0.1-0.3,0.1C162.3,15.2,164,17.6,165.8,20.2z M152.9,10.7c1.1,0,2.1,0,3.1,0c1.1,0,2.2,0,3.3-0.1c1-0.1,1.8-0.7,1.8-1.7
	c0.1-1.3,0.1-2.5,0.1-3.8c0-1.6-0.7-2.3-2.3-2.4c-0.2,0-0.3,0-0.5,0c-1.7,0-3.4,0-5.1,0c-0.1,0-0.2,0-0.4,0
	C152.9,5.3,152.9,8,152.9,10.7z"/>
<path class="st3" d="M112.4,20.2c-1,0-1.9,0-2.8,0c-0.1,0-0.3-0.2-0.4-0.4c-1.5-2.2-3-4.3-4.5-6.5c-0.2-0.3-0.4-0.4-0.7-0.4
	c-1.3,0-2.6,0-3.9,0c-0.2,0-0.4,0-0.6,0c0,2.4,0,4.8,0,7.2c-0.9,0-1.7,0-2.6,0c0-6.6,0-13.2,0-19.8c0,0,0.1-0.1,0.1-0.1
	c2.8,0,5.6,0,8.5,0.1c1,0,1.9,0.2,2.8,0.7c1.2,0.6,1.9,1.7,2,2.9c0.1,1.8,0.2,3.6,0,5.4c-0.2,1.7-1.3,2.8-3.1,3.3
	C108.9,15.2,110.6,17.6,112.4,20.2z M99.5,10.7c1.3,0,2.6,0,3.8,0c0.8,0,1.6,0,2.5-0.1c1.1-0.1,1.8-0.7,1.9-1.8c0.1-1.5,0-2.9,0-4.4
	c0-0.9-0.6-1.4-1.4-1.6c-0.4-0.1-0.8-0.1-1.2-0.2c-0.2-0.1-0.4-0.2-0.7-0.2c-1.4,0-2.9,0-4.3,0c-0.7,0-0.8,0-0.7,0.8
	c0,0.1,0,0.3,0,0.4c0,1.9,0,3.8,0,5.7c0,0.1,0,0.2,0,0.3c0,0.1,0,0.2,0,0.3c0,0.1,0,0.2,0,0.3C99.4,10.4,99.4,10.6,99.5,10.7z"/>
<path class="st3" d="M131.5,10.3c0-1.5,0-3,0-4.5c0.1-3,2-5,5-5.5c1.8-0.3,3.6-0.3,5.4,0.2c2.5,0.7,4.1,2.6,4.2,5.1
	c0.1,3.2,0.1,6.3,0,9.5c-0.1,2.6-1.9,4.7-4.5,5.2c-2.2,0.5-4.4,0.5-6.5-0.3c-2.2-0.9-3.4-2.6-3.5-4.9
	C131.5,13.4,131.5,11.8,131.5,10.3C131.5,10.3,131.5,10.3,131.5,10.3z M143.5,10.2C143.5,10.2,143.5,10.2,143.5,10.2
	c0-1.5,0-3.1,0-4.6c-0.1-1.5-0.8-2.5-2.2-3c-1.6-0.6-3.3-0.6-4.9,0c-1.1,0.4-1.9,1.2-2.1,2.3c-0.1,0.5-0.1,1-0.1,1.4
	c0,2.6,0,5.2,0,7.8c0,2,0.9,3.3,2.6,3.7c1.1,0.2,2.2,0.3,3.3,0.2c2.4-0.3,3.4-1.6,3.4-4C143.5,12.8,143.5,11.5,143.5,10.2z"/>
<path class="st4" d="M4.5,16.2c2.7,0,5.3,0,7.9,0c0,1.3,0,2.6,0,3.9c-4.1,0-8.2,0-12.4,0C0,13.6,0,7,0,0.4c1.5,0,2.9,0,4.5,0
	C4.5,5.7,4.5,10.9,4.5,16.2z"/>
<path class="st5" d="M84.9,20.2c-0.9,0-1.7,0-2.6,0c-0.3-0.8-0.6-1.6-0.8-2.4c-0.3-0.8-0.5-1.6-0.8-2.4c-2.1,0-4.2,0-6.2,0
	c-0.6,0-1.3,0-1.9,0c-0.3,0-0.4,0.1-0.5,0.4c-0.4,1.4-0.9,2.7-1.4,4.1c-0.1,0.3-0.2,0.4-0.5,0.4c-0.7,0-1.5,0-2.3,0
	c0.4-1.2,0.8-2.3,1.2-3.5c1.8-5.3,3.6-10.6,5.4-15.9c0.1-0.4,0.3-0.6,0.8-0.6c0.8,0.1,1.7,0,2.5,0c0.3,0,0.4,0.1,0.5,0.4
	c2.2,6.4,4.4,12.8,6.6,19.2C84.8,19.9,84.8,20,84.9,20.2z M76.4,2.3c0,0-0.1,0-0.1,0c-1.2,3.6-2.4,7.2-3.5,10.9c2.4,0,4.8,0,7.2,0
	C78.8,9.5,77.6,5.9,76.4,2.3z"/>
<path class="st6" d="M118.1,13.1c0,2.4,0,4.7,0,7.1c-0.9,0-1.7,0-2.6,0c0-6.6,0-13.2,0-19.8c0.1,0,0.2-0.1,0.3-0.1
	c2.6,0,5.2,0,7.9,0.1c0.7,0,1.4,0.2,2.1,0.4c1.8,0.6,2.7,2,2.8,3.8c0.1,1.5,0.1,2.9,0,4.4c-0.1,2.4-1.8,3.9-4.4,4.1
	c-1.8,0.1-3.7,0.1-5.5,0.1C118.6,13.1,118.4,13.1,118.1,13.1z M118.1,10.8c0.7,0,1.3,0,1.9,0c1.4,0,2.8,0,4.2-0.2
	c1.1-0.1,1.7-0.8,1.8-1.9c0-1.4,0-2.7,0-4.1c0-1-0.6-1.6-1.5-1.8c-0.4-0.1-0.8-0.2-1.2-0.2c-1.2,0-2.5,0-3.7,0c-0.5,0-0.9,0-1.4,0
	C118.1,5.3,118.1,8,118.1,10.8z"/>
<path class="st7" d="M162.4,42.3c0-4.3,0-8.6,0-12.9c0.7,0,1.3,0,1.9,0c0,5.1,0,10.2,0,15.4c-0.9,0-1.7,0-2.6,0
	c-0.1,0-0.3-0.2-0.3-0.4c-2.1-4-4.2-8.1-6.3-12.2c-0.1-0.1-0.1-0.3-0.3-0.4c0,4.3,0,8.6,0,12.9c-0.7,0-1.3,0-1.9,0
	c0-5.1,0-10.2,0-15.4c0.8,0,1.7,0,2.5,0c0.1,0,0.3,0.2,0.4,0.4c2.1,4.1,4.2,8.1,6.3,12.2c0.1,0.1,0.1,0.2,0.2,0.3
	C162.3,42.3,162.4,42.3,162.4,42.3z"/>
<path class="st8" d="M36.9,44.7c-0.8,0-1.7,0-2.5,0c-0.2,0-0.4-0.2-0.5-0.4c-2.1-4-4.2-8-6.2-12c-0.1-0.2-0.2-0.3-0.4-0.5
	c0,4.3,0,8.6,0,12.9c-0.7,0-1.3,0-1.9,0c0-0.2,0-0.3,0-0.4c0-4.8,0-9.6,0-14.4c0-0.4,0.1-0.6,0.6-0.6c0.6,0,1.2,0,1.8,0
	c0.3,0,0.5,0.1,0.6,0.4c2.1,4.1,4.2,8.2,6.3,12.4c0,0.1,0.1,0.2,0.2,0.4c0-4.4,0-8.7,0-13.1c0.7,0,1.3,0,1.9,0
	C36.9,34.5,36.9,39.6,36.9,44.7z"/>
<path class="st9" d="M53.2,29.3c0.2,0,0.4,0,0.6,0c2.1,0,4.2,0,6.3,0.1c2.3,0.1,3.5,1.4,3.5,3.6c0,0.9,0,1.8,0,2.6
	c0,1.5-0.7,2.6-2.2,3.2c-0.1,0-0.1,0.1-0.3,0.1c1.3,1.9,2.6,3.8,4,5.8c-0.8,0-1.5,0-2.2,0c-0.1,0-0.3-0.2-0.4-0.3
	c-1.1-1.6-2.3-3.3-3.4-4.9c-0.2-0.3-0.4-0.4-0.7-0.4c-1.1,0-2.2,0-3.4,0c0,1.9,0,3.7,0,5.6c-0.7,0-1.3,0-2,0
	C53.2,39.6,53.2,34.5,53.2,29.3z M55.3,37.3c1.6,0,3.2,0.1,4.8,0c1.1-0.1,1.6-0.7,1.6-1.8c0-0.9,0-1.9,0-2.8c0-0.9-0.5-1.5-1.3-1.5
	c-1.7-0.1-3.3-0.1-5.1-0.2C55.3,33.2,55.3,35.3,55.3,37.3z"/>
<path class="st10" d="M171.4,2.6c-2,0-4,0-6,0c0-0.8,0-1.5,0-2.3c4.9,0,9.7,0,14.6,0c0,0.8,0,1.5,0,2.3c-2,0-3.9,0-6,0
	c0,5.9,0,11.7,0,17.6c-0.9,0-1.7,0-2.6,0C171.4,14.3,171.4,8.5,171.4,2.6z"/>
<path class="st11" d="M169.5,29.3c0.6,0,1.1,0,1.7,0c1.6,0,3.2,0,4.7,0.1c2.5,0.1,4,1.7,4,4.2c0,2.2,0,4.5,0,6.7
	c0,2.8-1.4,4.3-4.2,4.5c-2.1,0.1-4.2,0-6.3,0C169.5,39.6,169.5,34.5,169.5,29.3z M171.5,42.9c1.4,0,2.7,0.1,4,0
	c1.5-0.1,2.3-0.7,2.4-2.2c0.1-2.5,0.1-5,0-7.5c0-1.2-0.7-1.8-1.8-1.9c-1.5-0.2-3-0.1-4.5-0.2C171.5,35.1,171.5,39,171.5,42.9z"/>
<path class="st11" d="M120.3,37c0,1.2,0,2.4,0,3.6c-0.1,1.8-1.1,3.2-2.9,3.8c-1.7,0.6-3.5,0.6-5.3,0.1c-2-0.6-3.1-2.1-3.1-4.1
	c0-2.3,0-4.6,0-6.9c0-2.2,1.3-3.6,3.4-4.2c1.7-0.4,3.4-0.4,5.1,0.2c1.8,0.7,2.7,2,2.8,3.8C120.3,34.6,120.3,35.8,120.3,37
	C120.3,37,120.3,37,120.3,37z M118.2,37C118.2,37,118.2,37,118.2,37c0-1.2,0-2.3,0-3.5c0-1.2-0.7-2-1.8-2.4c-1-0.3-2-0.3-3-0.2
	c-1.5,0.3-2.4,1.2-2.4,2.7c0,2.3,0,4.5,0,6.8c0,1.3,0.7,2.2,2,2.6c1,0.3,1.9,0.3,2.9,0.1c1.6-0.3,2.3-1.2,2.3-2.8
	C118.3,39.2,118.2,38.1,118.2,37z"/>
<path class="st12" d="M149,44.7c-0.7,0-1.4,0.2-1.9-0.1c-0.4-0.2-0.5-1-0.7-1.6c-0.2-0.6-0.4-1.2-0.6-1.7c-0.1-0.1-0.3-0.3-0.4-0.3
	c-2,0-4,0-6,0c-0.3,0-0.4,0.1-0.4,0.4c-0.3,1-0.7,2-1,3c-0.1,0.3-0.2,0.4-0.5,0.4c-0.5,0-1,0-1.6,0c0.3-1,0.6-1.9,0.9-2.8
	c1.4-4.1,2.8-8.2,4.2-12.3c0.1-0.3,0.3-0.4,0.6-0.4c0.6,0,1.2,0,1.8,0c0.4,0,0.5,0.1,0.6,0.4c1.4,4.2,2.9,8.4,4.3,12.6
	C148.5,43.1,148.7,43.9,149,44.7z M142.4,30.9c0,0-0.1,0-0.1,0c-0.9,2.8-1.8,5.5-2.7,8.4c1.9,0,3.7,0,5.6,0
	C144.2,36.5,143.3,33.7,142.4,30.9z"/>
<path class="st12" d="M80.1,44.7c-0.7,0-1.4,0-2,0c-0.4-1.1-0.8-2.1-1.1-3.2c-0.1-0.4-0.3-0.5-0.7-0.5c-1.9,0-3.8,0-5.7,0
	c-0.4,0-0.5,0.1-0.6,0.5c-0.3,1-0.7,1.9-1,2.9c-0.1,0.3-0.2,0.4-0.5,0.4c-0.5,0-1,0-1.6,0c0.3-0.8,0.5-1.5,0.7-2.2
	c1.4-4.2,2.9-8.5,4.3-12.7c0.1-0.4,0.3-0.5,0.7-0.5c0.6,0,1.2,0,1.8,0c0.3,0,0.5,0.1,0.6,0.4c1.4,4.1,2.8,8.2,4.2,12.3
	C79.5,42.9,79.8,43.8,80.1,44.7z M76.3,39.3c-0.9-2.8-1.8-5.6-2.8-8.5c-1,2.9-1.9,5.7-2.8,8.5C72.6,39.3,74.4,39.3,76.3,39.3z"/>
<path class="st13" d="M22,42.9c0,0.6,0,1.2,0,1.8c-3,0-6.1,0-9.1,0c0-5.1,0-10.2,0-15.4c3,0,6,0,9.1,0c0,0.6,0,1.1,0,1.7
	c-2.3,0-4.7,0-7.1,0c0,1.7,0,3.2,0,4.9c2.2,0,4.4,0,6.6,0c0,0.6,0,1.2,0,1.8c-2.2,0-4.4,0-6.6,0c0,1.8,0,3.5,0,5.2
	C17.2,42.9,19.6,42.9,22,42.9z"/>
<path class="st14" d="M98.8,39.2c0,1.8,0,3.6,0,5.5c-0.7,0-1.3,0-2,0c0-5.1,0-10.2,0-15.3c0.1,0,0.1-0.1,0.1-0.1
	c2.2,0,4.4,0,6.6,0.1c2.1,0.1,3.2,1.2,3.4,3.2c0.1,1.1,0.1,2.3,0,3.4c-0.2,1.9-1.3,3-3.2,3.1c-1.5,0.1-3,0.1-4.4,0.1
	C99.1,39.2,99,39.2,98.8,39.2z M103,37.5c0.1,0,0.2-0.1,0.3-0.1c1.1-0.2,1.5-0.6,1.6-1.6c0.1-1,0.1-2,0-3c-0.1-1-0.6-1.5-1.6-1.6
	c-1.2-0.1-2.4-0.1-3.6-0.1c-0.3,0-0.6,0-0.9,0c0,2.2,0,4.3,0,6.3c0.1,0,0.2,0.1,0.4,0.1c1.3,0,2.5,0,3.8,0c0.1,0,0.1,0,0.2,0
	C103.1,37.5,103.1,37.5,103,37.5C103,37.5,103,37.5,103,37.5z"/>
<path class="st12" d="M9.6,29.5c-0.1,0.6-0.1,1.1-0.2,1.7c-0.3,0-0.5,0-0.7-0.1C7.4,31.1,6,30.9,4.6,31c-1.4,0-2.1,0.8-2.2,2.2
	c-0.1,2.5-0.1,5,0,7.5c0,1.7,0.8,2.4,2.5,2.4c1.4,0,2.8-0.1,4.2-0.2c0.1,0,0.2,0,0.4,0c0.1,0.6,0.1,1.1,0.2,1.7
	c-0.2,0.1-0.4,0.1-0.6,0.1c-1.8,0.3-3.7,0.5-5.5,0.1c-1.8-0.4-3-1.6-3.1-3.5c-0.1-1.8-0.1-3.6-0.1-5.4c0-0.9,0-1.9,0-2.8
	c0.2-2.3,1.3-3.5,3.6-3.9C5.9,28.9,7.7,29.1,9.6,29.5z"/>
<path class="st15" d="M88.2,0.3c0.9,0,1.7,0,2.5,0c0,6.6,0,13.2,0,19.9c-0.8,0-1.7,0-2.5,0C88.2,13.6,88.2,7,88.2,0.3z"/>
<path class="st12" d="M46.1,44.7c-0.7,0-1.3,0-2,0c0-4.5,0-9.1,0-13.6c-1.6,0-3.1,0-4.6,0c0-0.6,0-1.2,0-1.8c3.8,0,7.5,0,11.3,0
	c0,0.6,0,1.1,0,1.7c-1.5,0-3.1,0-4.6,0C46.1,35.7,46.1,40.2,46.1,44.7z"/>
<path class="st16" d="M82.8,29.3c0.6,0,1.1,0,1.7,0c0.1,0,0.2,0.2,0.3,0.3c0,0.2,0,0.3,0,0.5c0,4.1,0,8.2,0,12.3c0,0.2,0,0.4,0,0.6
	c2.3,0,4.5,0,6.7,0c0,0.6,0,1.2,0,1.8c-2.9,0-5.8,0-8.7,0C82.8,39.6,82.8,34.5,82.8,29.3z"/>
<path class="st8" d="M123.7,29.3c0.7,0,1.3,0,2,0c0,4.5,0,9.1,0,13.6c2.3,0,4.5,0,6.7,0c0,0.6,0,1.2,0,1.8c-2.9,0-5.8,0-8.7,0
	C123.7,39.6,123.7,34.5,123.7,29.3z"/>
</svg>
