<?xml version="1.0" encoding="UTF-8" standalone="no"?>
<!-- Created with Inkscape (http://www.inkscape.org/) -->

<svg
   xmlns:dc="http://purl.org/dc/elements/1.1/"
   xmlns:cc="http://creativecommons.org/ns#"
   xmlns:rdf="http://www.w3.org/1999/02/22-rdf-syntax-ns#"
   xmlns:svg="http://www.w3.org/2000/svg"
   xmlns="http://www.w3.org/2000/svg"
   version="1.1"
   width="1013"
   height="375"
   id="svg5035">
  <defs
     id="defs5037">
    <clipPath
       id="clipPath4853">
      <path
         d="m 441.405,298.678 141.934,0 0,51.545 -141.934,0 0,-51.545 z"
         id="path4855" />
    </clipPath>
  </defs>
  <metadata
     id="metadata5040">
    <rdf:RDF>
      <cc:Work
         rdf:about="">
        <dc:format>image/svg+xml</dc:format>
        <dc:type
           rdf:resource="http://purl.org/dc/dcmitype/StillImage" />
        <dc:title></dc:title>
      </cc:Work>
    </rdf:RDF>
  </metadata>
  <g
     transform="translate(0,-393)"
     id="layer1">
    <g
       transform="matrix(7.0715417,0,0,-7.0715417,-3117.2596,2876.3653)"
       id="g4849">
      <g
         clip-path="url(#clipPath4853)"
         id="g4851">
        <g
           transform="translate(441.4048,317.8054)"
           id="g4857">
          <path
             d="m 0,0 c 1.478,0.274 3.004,0.418 4.563,0.418 6.447,0 12.32,-2.456 16.736,-6.481 -4.218,-2.966 -7.214,-7.552 -8.087,-12.852 L 0,-18.915 0,0 z m 14.756,11.883 c 0,2.916 2.364,5.28 5.28,5.28 2.915,0 5.279,-2.364 5.279,-5.28 0,-2.916 -2.364,-5.28 -5.279,-5.28 -2.916,0 -5.28,2.364 -5.28,5.28 m 18.338,-4.492 1.585,0 10e-4,0.391 c 0,7.752 -8.193,16.731 -14.645,19.475 C 13.581,24.513 5.388,15.534 5.388,7.789 l 0,-3.827 C 5.114,3.97 4.839,3.974 4.563,3.974 3.01,3.974 1.485,3.85 0,3.61 L 0,7.789 C 0,18.614 10.544,29.729 20.035,32.991 29.528,29.727 40.069,18.61 40.068,7.782 l -10e-4,-0.391 1.583,0 c 1.038,0 1.879,-0.841 1.879,-1.879 0,-1.038 -0.841,-1.88 -1.879,-1.88 l -0.524,0 -0.927,-3.85 -1.409,0 0,-18.697 -21.962,0 c 1.488,7.335 7.973,12.855 15.747,12.855 1.159,0 2.29,-0.122 3.379,-0.355 l 0,6.197 -1.408,0 -0.927,3.85 -0.525,0 c -1.038,0 -1.879,0.842 -1.879,1.88 0,1.038 0.841,1.879 1.879,1.879"
             id="path4859"
             style="fill:#b3a06c;fill-opacity:1;fill-rule:evenodd;stroke:none" />
        </g>
        <g
           transform="translate(562.3649,316.7778)"
           id="g4861">
          <path
             d="m 0,0 c 0,-1.765 -1.337,-2.756 -3.317,-2.756 -0.776,0 -1.831,0.099 -2.608,0.413 0.083,0.578 0.264,1.271 0.413,1.716 0.71,-0.296 1.584,-0.445 2.31,-0.445 0.892,0 1.255,0.297 1.255,0.924 0,1.469 -3.961,1.205 -3.961,4.027 0,1.717 1.469,2.69 3.449,2.69 0.578,0 1.403,-0.065 2.029,-0.214 C -0.479,5.842 -0.545,5.1 -0.676,4.621 -1.303,4.77 -2.129,4.885 -2.674,4.885 -3.68,4.885 -3.928,4.556 -3.928,4.011 -3.928,2.641 0,2.872 0,0 m -10.127,1.222 -0.858,2.821 c -0.05,0.183 -0.099,0.447 -0.115,0.711 l -0.132,0 c -0.017,-0.281 -0.067,-0.528 -0.116,-0.711 l -0.841,-2.821 2.062,0 z m 3.07,-3.714 c -0.528,-0.115 -1.386,-0.165 -1.931,-0.165 l -0.693,2.328 -2.937,0 -0.694,-2.328 c -0.528,0 -1.271,0.05 -1.766,0.165 0.793,2.822 1.898,6.19 2.905,8.896 l 2.244,0 c 1.007,-2.74 2.063,-6.074 2.872,-8.896 m -11.247,4.44 c 0,2.228 -0.892,2.905 -2.262,2.905 -0.379,0 -0.776,-0.017 -1.172,-0.05 l 0,-5.776 c 0.38,-0.033 0.809,-0.066 1.139,-0.066 1.585,0 2.295,0.825 2.295,2.987 m 2.095,0.148 c 0,-3.118 -1.733,-4.819 -4.176,-4.819 -0.923,0 -2.458,0.066 -3.316,0.181 l 0,8.863 c 0.775,0.1 2.492,0.183 3.316,0.183 2.278,0 4.176,-1.271 4.176,-4.408 m -12.306,-0.874 -0.858,2.821 c -0.049,0.183 -0.099,0.447 -0.115,0.711 l -0.133,0 c -0.016,-0.281 -0.066,-0.528 -0.115,-0.711 l -0.842,-2.821 2.063,0 z m 3.07,-3.714 c -0.529,-0.115 -1.387,-0.165 -1.93,-0.165 l -0.694,2.328 -2.938,0 -0.693,-2.328 c -0.528,0 -1.271,0.05 -1.766,0.165 0.792,2.822 1.898,6.19 2.905,8.896 l 2.244,0 c 1.007,-2.74 2.064,-6.074 2.872,-8.896 M -34.6,0 c 0,-1.765 -1.337,-2.756 -3.317,-2.756 -0.776,0 -1.832,0.099 -2.608,0.413 0.082,0.578 0.264,1.271 0.413,1.716 0.709,-0.296 1.584,-0.445 2.31,-0.445 0.891,0 1.254,0.297 1.254,0.924 0,1.469 -3.961,1.205 -3.961,4.027 0,1.717 1.47,2.69 3.45,2.69 0.578,0 1.403,-0.065 2.03,-0.214 -0.05,-0.513 -0.115,-1.255 -0.248,-1.734 -0.627,0.149 -1.452,0.264 -1.996,0.264 -1.007,0 -1.255,-0.329 -1.255,-0.874 0,-1.37 3.928,-1.139 3.928,-4.011 m -8.261,1.089 c 0,-2.441 -1.04,-3.845 -3.514,-3.845 -2.147,0 -3.549,0.908 -3.549,3.845 l 0,5.315 1.98,0 0,-5.43 c 0,-1.419 0.247,-1.963 1.584,-1.963 1.271,0 1.684,0.577 1.684,1.963 l 0,5.43 1.815,0 0,-5.315 z m -11.462,0.809 c 0,2.36 -0.693,3.021 -1.98,3.021 -1.337,0 -1.964,-0.644 -1.964,-3.021 0,-2.244 0.561,-3.004 1.964,-3.004 1.402,0 1.98,0.678 1.98,3.004 m 2.08,0 c 0,-3.201 -1.766,-4.654 -4.06,-4.654 -2.394,0 -4.06,1.469 -4.06,4.638 0,3.152 1.7,4.687 4.06,4.687 2.409,0 4.06,-1.502 4.06,-4.671 m -9.898,3.12 c 0,-2.74 -1.848,-3.862 -3.829,-3.862 l -1.304,0 0,-3.747 -2.029,0 0,11.008 c 1.155,0.149 2.211,0.231 3.432,0.231 2.162,0 3.73,-1.171 3.73,-3.63 m -2.047,0.016 c 0,1.304 -0.742,1.981 -1.798,1.981 -0.363,0 -0.792,-0.034 -1.288,-0.083 l 0,-4.094 1.09,0 c 1.271,0 1.996,0.711 1.996,2.196 m 0.282,-18.431 c 0,2.228 -0.892,2.905 -2.262,2.905 -0.379,0 -0.775,-0.017 -1.172,-0.049 l 0,-5.777 c 0.38,-0.033 0.809,-0.066 1.139,-0.066 1.584,0 2.295,0.825 2.295,2.987 m 2.095,0.149 c 0,-3.12 -1.733,-4.819 -4.175,-4.819 -0.925,0 -2.459,0.066 -3.317,0.182 l 0,8.862 c 0.775,0.1 2.491,0.181 3.317,0.181 2.277,0 4.175,-1.27 4.175,-4.406 m 8.129,-3.037 c 0,-0.445 -0.05,-1.056 -0.166,-1.65 l -5.545,0 0,8.995 5.496,0 c 0,-0.595 -0.066,-1.239 -0.132,-1.651 l -3.4,0 0,-1.948 2.493,0 0,-1.634 -2.493,0 0,-2.112 3.747,0 z m 13.028,5.958 c 0,-2.74 -1.848,-3.862 -3.828,-3.862 l -1.305,0 0,-3.746 -2.03,0 0,11.007 c 1.156,0.149 2.211,0.232 3.433,0.232 2.162,0 3.73,-1.172 3.73,-3.631 m -2.046,0.016 c 0,1.304 -0.743,1.981 -1.799,1.981 -0.364,0 -0.792,-0.033 -1.288,-0.083 l 0,-4.093 1.09,0 c 1.27,0 1.997,0.71 1.997,2.195 m 11.945,-3.136 c 0,-3.201 -1.767,-4.653 -4.061,-4.653 -2.393,0 -4.06,1.468 -4.06,4.638 0,3.151 1.701,4.687 4.06,4.687 2.41,0 4.061,-1.502 4.061,-4.672 m -2.08,0 c 0,2.361 -0.694,3.021 -1.981,3.021 -1.336,0 -1.964,-0.644 -1.964,-3.021 0,-2.244 0.562,-3.002 1.964,-3.002 1.403,0 1.981,0.675 1.981,3.002 m 10.356,-2.293 1.057,-2.079 c -0.561,-0.133 -1.453,-0.199 -2.014,-0.199 l -0.677,1.436 c -0.445,0.908 -0.89,1.585 -1.403,2.096 l -0.941,0 0,-3.449 -1.881,0 0,8.912 c 1.139,0.115 2.228,0.181 3.086,0.181 1.667,0 3.053,-0.742 3.053,-2.673 0,-1.255 -0.66,-2.08 -1.601,-2.426 0.529,-0.512 0.958,-1.09 1.321,-1.799 m -1.617,4.109 c 0,0.891 -0.462,1.255 -1.403,1.255 -0.347,0 -0.627,-0.034 -0.958,-0.05 l 0,-2.591 0.876,0 c 1.007,0 1.485,0.396 1.485,1.386 m 10.145,2.691 c 0,-0.463 -0.049,-1.172 -0.165,-1.684 l -2.046,0 0,-7.311 -1.965,0 0,7.311 -2.161,0 0,1.684 6.337,0 z m 8.838,-5.315 c 0,-2.442 -1.04,-3.845 -3.515,-3.845 -2.146,0 -3.548,0.908 -3.548,3.845 l 0,5.315 1.98,0 0,-5.43 c 0,-1.419 0.247,-1.964 1.585,-1.964 1.271,0 1.683,0.578 1.683,1.964 l 0,5.43 1.815,0 0,-5.315 z m 9.416,-3.251 C 3.676,-17.819 2.488,-18.1 1.348,-18.1 c -2.673,0 -4.125,1.651 -4.125,4.67 0,3.235 1.783,4.655 4.225,4.655 0.891,0 2.03,-0.148 2.706,-0.43 -0.033,-0.512 -0.164,-1.221 -0.313,-1.733 -0.56,0.264 -1.468,0.462 -2.245,0.462 -1.501,0 -2.31,-0.594 -2.31,-3.02 0,-2.293 0.809,-2.937 2.229,-2.937 0.263,0 0.659,0.049 0.906,0.148 l 0,1.667 -1.22,0 c -0.133,0.445 -0.166,1.106 -0.166,1.551 l 3.268,0 0,-4.439 z m 9.514,-0.331 c -0.528,-0.115 -1.386,-0.164 -1.931,-0.164 l -0.693,2.327 -2.938,0 -0.692,-2.327 c -0.528,0 -1.271,0.049 -1.767,0.164 0.793,2.823 1.899,6.189 2.905,8.897 l 2.244,0 c 1.007,-2.741 2.064,-6.074 2.872,-8.897 m -3.07,3.715 -0.857,2.821 c -0.05,0.182 -0.099,0.446 -0.116,0.71 l -0.132,0 c -0.017,-0.28 -0.066,-0.528 -0.115,-0.71 l -0.842,-2.821 2.062,0 z m 10.227,-2.08 c 0,-0.495 -0.066,-1.172 -0.165,-1.733 l -5.249,0 0,8.995 1.965,0 0,-7.262 3.449,0 z"
             id="path4863"
             style="fill:#b3a06c;fill-opacity:1;fill-rule:nonzero;stroke:none" />
        </g>
        <g
           transform="translate(498.4583,303.3811)"
           id="g4865">
          <path
             d="m 0,0 c 0,-2.162 -0.71,-2.987 -2.295,-2.987 -0.33,0 -0.759,0.033 -1.138,0.066 l 0,5.776 c 0.396,0.033 0.793,0.05 1.172,0.05 C -0.892,2.905 0,2.228 0,0 m 2.095,0.149 c 0,3.135 -1.897,4.406 -4.175,4.406 -0.825,0 -2.541,-0.081 -3.317,-0.182 l 0,-8.862 c 0.858,-0.115 2.393,-0.181 3.317,-0.181 2.443,0 4.175,1.699 4.175,4.819"
             id="path4867"
             style="fill:#b3a06c;fill-opacity:1;fill-rule:evenodd;stroke:none" />
        </g>
        <g
           transform="translate(508.6828,300.493)"
           id="g4869">
          <path
             d="m 0,0 -3.747,0 0,2.113 2.493,0 0,1.633 -2.493,0 0,1.948 3.4,0 c 0.066,0.412 0.132,1.056 0.132,1.65 l -5.495,0 0,-8.994 5.544,0 C -0.05,-1.056 0,-0.445 0,0"
             id="path4871"
             style="fill:#b3a06c;fill-opacity:1;fill-rule:nonzero;stroke:none" />
        </g>
        <g
           transform="translate(519.6647,306.46719)"
           id="g4873">
          <path
             d="m 0,0 c 0,-1.486 -0.727,-2.195 -1.997,-2.195 l -1.09,0 0,4.093 c 0.496,0.05 0.925,0.083 1.288,0.083 C -0.743,1.981 0,1.304 0,0 m 2.046,-0.016 c 0,2.458 -1.568,3.63 -3.729,3.63 -1.222,0 -2.277,-0.082 -3.434,-0.231 l 0,-11.008 2.03,0 0,3.746 1.305,0 c 1.98,0 3.828,1.123 3.828,3.863"
             id="path4875"
             style="fill:#b3a06c;fill-opacity:1;fill-rule:evenodd;stroke:none" />
        </g>
        <g
           transform="translate(529.53,303.33121)"
           id="g4877">
          <path
             d="m 0,0 c 0,-2.327 -0.578,-3.003 -1.981,-3.003 -1.403,0 -1.965,0.759 -1.965,3.003 0,2.377 0.628,3.02 1.965,3.02 C -0.694,3.02 0,2.36 0,0 m 2.079,0 c 0,3.169 -1.65,4.671 -4.06,4.671 -2.36,0 -4.061,-1.535 -4.061,-4.686 0,-3.17 1.667,-4.638 4.061,-4.638 2.294,0 4.06,1.452 4.06,4.653"
             id="path4879"
             style="fill:#b3a06c;fill-opacity:1;fill-rule:evenodd;stroke:none" />
        </g>
        <g
           transform="translate(538.2682,305.14709)"
           id="g4881">
          <path
             d="m 0,0 c 0,-0.99 -0.478,-1.386 -1.485,-1.386 l -0.875,0 0,2.591 c 0.33,0.016 0.611,0.049 0.958,0.049 C -0.462,1.254 0,0.891 0,0 M 1.618,-4.109 C 1.254,-3.4 0.825,-2.822 0.297,-2.31 c 0.941,0.346 1.601,1.171 1.601,2.426 0,1.93 -1.386,2.673 -3.053,2.673 -0.858,0 -1.947,-0.066 -3.086,-0.182 l 0,-8.911 1.881,0 0,3.449 0.941,0 c 0.512,-0.511 0.957,-1.188 1.403,-2.096 L 0.66,-6.387 c 0.562,0 1.453,0.066 2.014,0.198 l -1.056,2.08 z"
             id="path4883"
             style="fill:#b3a06c;fill-opacity:1;fill-rule:evenodd;stroke:none" />
        </g>
        <g
           transform="translate(548.4138,307.8371)"
           id="g4885">
          <path
             d="m 0,0 -6.337,0 0,-1.683 2.162,0 0,-7.311 1.965,0 0,7.311 2.045,0 C -0.049,-1.172 0,-0.463 0,0"
             id="path4887"
             style="fill:#b3a06c;fill-opacity:1;fill-rule:nonzero;stroke:none" />
        </g>
        <g
           transform="translate(557.25211,302.5229)"
           id="g4889">
          <path
             d="m 0,0 0,5.314 -1.815,0 0,-5.429 c 0,-1.386 -0.413,-1.964 -1.683,-1.964 -1.338,0 -1.585,0.544 -1.585,1.964 l 0,5.429 -1.98,0 0,-5.314 c 0,-2.937 1.402,-3.845 3.548,-3.845 C -1.04,-3.845 0,-2.442 0,0"
             id="path4891"
             style="fill:#b3a06c;fill-opacity:1;fill-rule:nonzero;stroke:none" />
        </g>
        <g
           transform="translate(566.66769,299.27229)"
           id="g4893">
          <path
             d="m 0,0 0,4.439 -3.268,0 c 0,-0.445 0.034,-1.106 0.166,-1.551 l 1.22,0 0,-1.667 C -2.129,1.122 -2.525,1.072 -2.788,1.072 c -1.42,0 -2.229,0.644 -2.229,2.938 0,2.426 0.809,3.02 2.31,3.02 0.777,0 1.684,-0.199 2.245,-0.463 0.149,0.512 0.281,1.222 0.313,1.734 -0.675,0.281 -1.815,0.429 -2.706,0.429 -2.442,0 -4.224,-1.42 -4.224,-4.654 0,-3.02 1.452,-4.67 4.125,-4.67 1.139,0 2.327,0.28 2.954,0.594"
             id="path4895"
             style="fill:#b3a06c;fill-opacity:1;fill-rule:nonzero;stroke:none" />
        </g>
        <g
           transform="translate(573.1118,302.6555)"
           id="g4897">
          <path
             d="m 0,0 -2.062,0 0.842,2.822 c 0.049,0.181 0.098,0.429 0.115,0.709 l 0.132,0 C -0.957,3.267 -0.907,3.003 -0.857,2.822 L 0,0 z M 3.07,-3.714 C 2.261,-0.892 1.205,2.442 0.199,5.182 l -2.245,0 c -1.006,-2.707 -2.113,-6.074 -2.905,-8.896 0.496,-0.116 1.239,-0.165 1.767,-0.165 l 0.692,2.327 2.938,0 0.693,-2.327 c 0.544,0 1.403,0.049 1.931,0.165"
             id="path4899"
             style="fill:#b3a06c;fill-opacity:1;fill-rule:evenodd;stroke:none" />
        </g>
        <g
           transform="translate(583.3385,300.5757)"
           id="g4901">
          <path
             d="m 0,0 -3.449,0 0,7.262 -1.964,0 0,-8.995 5.248,0 C -0.066,-1.172 0,-0.495 0,0"
             id="path4903"
             style="fill:#b3a06c;fill-opacity:1;fill-rule:nonzero;stroke:none" />
        </g>
        <g
           transform="translate(498.1776,321.8123)"
           id="g4905">
          <path
             d="m 0,0 c 0,-1.486 -0.726,-2.196 -1.997,-2.196 l -1.09,0 0,4.094 C -2.591,1.947 -2.162,1.98 -1.799,1.98 -0.743,1.98 0,1.303 0,0 m 2.046,-0.017 c 0,2.459 -1.567,3.631 -3.73,3.631 -1.22,0 -2.276,-0.083 -3.432,-0.231 l 0,-11.009 2.029,0 0,3.747 1.305,0 c 1.98,0 3.828,1.122 3.828,3.862"
             id="path4907"
             style="fill:#b3a06c;fill-opacity:1;fill-rule:evenodd;stroke:none" />
        </g>
        <g
           transform="translate(508.0423,318.67641)"
           id="g4909">
          <path
             d="m 0,0 c 0,-2.327 -0.578,-3.004 -1.981,-3.004 -1.403,0 -1.963,0.76 -1.963,3.004 0,2.376 0.626,3.02 1.963,3.02 C -0.693,3.02 0,2.359 0,0 m 2.079,0 c 0,3.168 -1.65,4.67 -4.06,4.67 -2.359,0 -4.06,-1.534 -4.06,-4.687 0,-3.168 1.667,-4.637 4.06,-4.637 2.295,0 4.06,1.452 4.06,4.654"
             id="path4911"
             style="fill:#b3a06c;fill-opacity:1;fill-rule:evenodd;stroke:none" />
        </g>
        <g
           transform="translate(519.5042,317.86749)"
           id="g4913">
          <path
             d="m 0,0 0,5.314 -1.815,0 0,-5.429 c 0,-1.387 -0.413,-1.964 -1.684,-1.964 -1.337,0 -1.584,0.544 -1.584,1.964 l 0,5.429 -1.98,0 0,-5.314 c 0,-2.938 1.402,-3.845 3.548,-3.845 C -1.04,-3.845 0,-2.442 0,0"
             id="path4915"
             style="fill:#b3a06c;fill-opacity:1;fill-rule:nonzero;stroke:none" />
        </g>
        <g
           transform="translate(527.7646,316.7778)"
           id="g4917">
          <path
             d="m 0,0 c 0,2.872 -3.928,2.641 -3.928,4.011 0,0.545 0.248,0.874 1.255,0.874 0.544,0 1.37,-0.115 1.997,-0.264 0.132,0.479 0.197,1.221 0.247,1.734 -0.627,0.149 -1.452,0.214 -2.03,0.214 -1.98,0 -3.449,-0.973 -3.449,-2.69 0,-2.822 3.961,-2.558 3.961,-4.027 0,-0.627 -0.363,-0.924 -1.254,-0.924 -0.727,0 -1.601,0.149 -2.311,0.445 -0.149,-0.445 -0.33,-1.138 -0.413,-1.716 0.777,-0.314 1.832,-0.413 2.608,-0.413 C -1.337,-2.756 0,-1.765 0,0"
             id="path4919"
             style="fill:#b3a06c;fill-opacity:1;fill-rule:nonzero;stroke:none" />
        </g>
        <g
           transform="translate(533.8502,317.9995)"
           id="g4921">
          <path
             d="m 0,0 -2.063,0 0.842,2.822 c 0.049,0.182 0.099,0.429 0.115,0.71 l 0.133,0 c 0.016,-0.264 0.065,-0.528 0.115,-0.71 L 0,0 z M 3.069,-3.713 C 2.261,-0.892 1.205,2.442 0.198,5.182 l -2.244,0 c -1.007,-2.706 -2.113,-6.074 -2.905,-8.895 0.495,-0.116 1.238,-0.166 1.766,-0.166 l 0.693,2.328 2.938,0 0.693,-2.328 c 0.544,0 1.403,0.05 1.93,0.166"
             id="path4923"
             style="fill:#b3a06c;fill-opacity:1;fill-rule:evenodd;stroke:none" />
        </g>
        <g
           transform="translate(544.0607,318.7256)"
           id="g4925">
          <path
             d="m 0,0 c 0,-2.161 -0.71,-2.987 -2.295,-2.987 -0.33,0 -0.759,0.033 -1.138,0.066 l 0,5.776 c 0.395,0.033 0.792,0.05 1.172,0.05 C -0.892,2.905 0,2.229 0,0 m 2.095,0.149 c 0,3.136 -1.898,4.407 -4.176,4.407 -0.824,0 -2.54,-0.083 -3.316,-0.183 l 0,-8.862 c 0.858,-0.115 2.393,-0.181 3.316,-0.181 2.444,0 4.176,1.699 4.176,4.819"
             id="path4927"
             style="fill:#b3a06c;fill-opacity:1;fill-rule:evenodd;stroke:none" />
        </g>
        <g
           transform="translate(552.2383,317.9995)"
           id="g4929">
          <path
             d="m 0,0 -2.063,0 0.842,2.822 c 0.048,0.182 0.099,0.429 0.115,0.71 l 0.132,0 c 0.017,-0.264 0.066,-0.528 0.115,-0.71 L 0,0 z M 3.069,-3.713 C 2.26,-0.892 1.205,2.442 0.198,5.182 l -2.245,0 c -1.007,-2.706 -2.112,-6.074 -2.904,-8.895 0.495,-0.116 1.238,-0.166 1.766,-0.166 l 0.693,2.328 2.937,0 0.693,-2.328 c 0.545,0 1.404,0.05 1.931,0.166"
             id="path4931"
             style="fill:#b3a06c;fill-opacity:1;fill-rule:evenodd;stroke:none" />
        </g>
        <g
           transform="translate(562.3649,316.7778)"
           id="g4933">
          <path
             d="m 0,0 c 0,2.872 -3.928,2.641 -3.928,4.011 0,0.545 0.248,0.874 1.254,0.874 0.545,0 1.371,-0.115 1.998,-0.264 0.131,0.479 0.197,1.221 0.246,1.734 -0.626,0.149 -1.451,0.214 -2.029,0.214 -1.98,0 -3.449,-0.973 -3.449,-2.69 0,-2.822 3.961,-2.558 3.961,-4.027 0,-0.627 -0.363,-0.924 -1.255,-0.924 -0.726,0 -1.6,0.149 -2.31,0.445 -0.149,-0.445 -0.33,-1.138 -0.413,-1.716 0.777,-0.314 1.832,-0.413 2.608,-0.413 C -1.337,-2.756 0,-1.765 0,0"
             id="path4935"
             style="fill:#b3a06c;fill-opacity:1;fill-rule:nonzero;stroke:none" />
        </g>
      </g>
    </g>
  </g>
</svg>
