<?xml version="1.0" encoding="UTF-8" standalone="no"?>
<!-- Created with Inkscape (http://www.inkscape.org/) -->

<svg
   xmlns:dc="http://purl.org/dc/elements/1.1/"
   xmlns:cc="http://creativecommons.org/ns#"
   xmlns:rdf="http://www.w3.org/1999/02/22-rdf-syntax-ns#"
   xmlns:svg="http://www.w3.org/2000/svg"
   xmlns="http://www.w3.org/2000/svg"
   version="1.0"
   width="773.94415"
   height="855.44269"
   id="svg6049">
  <defs
     id="defs6051" />
  <metadata
     id="metadata6054">
    <rdf:RDF>
      <cc:Work
         rdf:about="">
        <dc:format>image/svg+xml</dc:format>
        <dc:type
           rdf:resource="http://purl.org/dc/dcmitype/StillImage" />
        <dc:title></dc:title>
      </cc:Work>
    </rdf:RDF>
  </metadata>
  <g
     transform="translate(6.9690257,-84.656238)"
     id="layer1">
    <g
       transform="matrix(1.1157046,0,0,1.3015843,-886.4177,114.71901)"
       id="g2687" />
    <g
       id="g3373">
      <g
         id="g3369" />
    </g>
    <g
       id="g4263">
      <path
         d="m 376.19919,87.22156 c -163.91361,0 -326.025966,0 -380.6291282,0 l 0,511.21875 0.7503664,0 C -3.1081704,775.7829 178.94784,937.50281 379.85552,937.50281 z"
         id="path2466"
         style="fill:#ff2117;fill-opacity:1;fill-rule:nonzero;stroke:#000000;stroke-width:5.10878658;stroke-linecap:round;stroke-linejoin:round;stroke-miterlimit:4;stroke-opacity:1;stroke-dasharray:none;stroke-dashoffset:0" />
      <path
         d="m 379.85552,937.50281 c 174.57936,2.77137 384.28961,-154.79143 383.4046,-339.0625 l 0.91349,0 c 0,0 0.57674,-363.00471 0,-511.21875 -64.3519,0 -227.03144,0 -387.97442,0 z"
         id="path2972"
         style="fill:#1791ff;fill-opacity:1;fill-rule:nonzero;stroke:#000000;stroke-width:5.10878658;stroke-linecap:round;stroke-linejoin:round;stroke-miterlimit:4;stroke-opacity:1;stroke-dasharray:none;stroke-dashoffset:0" />
      <path
         d="m 184.70596,339.33094 -20.97059,-78.44552 c -13.95382,-42.02165 2.67189,-45.03718 -11.65032,-86.9891 -2.84886,2.84686 -6.5842,4.80724 -6.9902,10.09695 2.30275,-11.50844 7.9087,-23.5998 -3.88344,-32.62091 -9.44351,3.08214 -14.99814,11.02539 -13.98039,27.18409 0.24967,-8.76558 -1.72955,-8.61557 -3.10676,-10.87363 -21.88857,24.71362 -15.24444,93.15852 13.20371,142.91066 -13.00645,-22.91436 -20.44928,-49.5378 -25.63072,-77.66884 -4.53123,-17.51791 -12.620414,-28.98221 -22.318404,-39.61111 l -0.98225,10.87364 c 0.884,-12.79147 -7.88294,-22.68176 -13.98039,-25.63071 -10.68347,12.69709 -10.28423,26.04611 -6.21351,39.6111 -5.85607,-3.20947 -4.33493,-7.64848 -5.43682,-11.65032 -20.5793,44.77494 35.57176,105.18871 60.581704,146.01741 L 76.746276,284.5898 c -4.31925,-12.84913 -17.32574,-17.01102 -29.18674,-22.3184 1.81562,3.16255 2.79829,6.32511 2.00264,9.48766 -4.58793,-14.55362 -11.3416,-17.73711 -19.41721,-13.98039 -4.70101,8.41145 -8.74768,17.13585 6.21351,34.95097 -3.19645,0.65233 -4.72533,-1.19668 -6.21351,-3.10675 0.94363,42.29586 65.91742,71.4164 97.862744,104.07624 -22.45362,-18.38456 -44.640504,-35.70219 -66.224084,-50.6066 -18.00287,-12.12845 -32.01804,-9.67803 -40.95892,-8.42172 1.67366,12.09677 -1.16109,25.48165 17.86384,32.62091 -5.84324,-2.49986 -8.60117,-2.53148 -10.09695,-1.55337 0.29208,18.4059 81.047144,65.04396 125.046824,64.46513 -29.22597,-2.2129 -60.301814,-11.82526 -94.755984,-34.95097 -17.09767,-2.28987 -28.90526,1.23936 -37.28104,8.54357 3.8965,9.55055 6.43773,20.57957 19.55753,20.06834 -2.02034,2.39591 -4.64002,2.39451 -7.53055,1.30967 22.93947,24.62618 55.5356,33.31887 95.932704,29.13996 -16.91646,0.44496 -33.832924,0.57067 -50.749384,-3.27415 -24.35482,3.57397 -35.74291,19.31203 -38.63501,26.52065 9.41174,3.63605 31.20993,23.26534 62.208914,19.64492 15.68912,-7.20497 30.58527,-11.23809 44.5285,-11.45954 -31.89012,1.17625 -65.335084,16.78532 -75.632954,44.85591 4.7936,5.59808 11.11825,9.3589 24.55615,4.58381 l -0.98225,5.56606 c 35.650504,0.34212 62.926274,-20.25259 90.039234,-41.25433 -16.73167,12.46014 -31.50646,22.57203 -43.87366,29.7948 -11.66155,8.85648 -19.19484,21.84122 -18.66268,42.89141 30.45867,10.89684 73.29121,-29.55947 96.26013,-69.41206 -6.01314,14.07451 -22.31409,31.35031 -39.61726,49.76714 -8.97423,12.83892 -15.53174,26.38864 -9.82247,43.54624 41.29958,-2.14258 52.00573,-39.09837 69.41206,-68.42981 -7.75509,13.85432 -14.88914,29.63934 -24.55615,43.54624 -3.21945,16.3706 -3.95888,29.43449 0.65483,35.36086 31.43228,-10.84941 46.36102,-41.33348 50.09455,-70.06689 -1.93154,9.57123 -2.49344,17.77283 -8.5128,31.43188 -2.1258,11.6559 -2.85109,22.77315 6.2209,30.12221 15.25228,-8.23959 28.216,-21.05631 33.06895,-50.09455 l -19.31751,-56.97027 -90.03923,-65.15566 z"
         id="path3287"
         style="fill:#ffffff;fill-opacity:1;fill-rule:evenodd;stroke:#000000;stroke-width:4;stroke-linecap:round;stroke-linejoin:round;stroke-miterlimit:4;stroke-opacity:1;stroke-dasharray:none;stroke-dashoffset:0" />
      <path
         d="m 215.5547,360.8976 -15.20595,-50.29662 c -5.33047,-19.22313 -37.12203,-37.44369 -30.99676,-52.05115 -27.35046,-3.36984 -19.86023,41.39157 -5.2636,53.80569 9.57406,7.97991 17.01501,17.23969 22.80894,27.48768 -14.79887,-29.76251 -34.78983,-34.86256 -55.56022,-36.26035 -2.33357,21.89466 4.26814,38.03714 15.50718,49.37533 5.9627,1.62841 15.8845,8.43531 25.43193,17.29693 -18.00108,-18.06119 -39.07846,-21.97143 -60.82382,-22.80893 1.45614,6.98763 4.35847,14.81675 12.58295,19.54827 -2.82968,-0.28049 -5.65936,-1.21742 -8.48904,-3.75747 4.56599,13.77524 17.01496,18.54137 26.318,26.90284 9.35751,1.71048 18.71502,4.31787 28.07253,10.5272 -20.46233,-13.37434 -39.70592,-13.74881 -57.8996,-2.92422 9.17583,32.07136 30.42843,33.63298 53.80569,29.82706 -8.44439,2.04045 -14.71765,1.90978 -20.15072,0.93891 -14.15389,2.64432 -19.65566,11.4036 -26.05199,19.53065 11.78191,6.64456 21.35956,18.64231 38.01489,13.45142 9.72102,-5.7131 17.67896,-6.72466 25.14831,-6.43329 -23.64854,-0.5499 -31.2077,15.72091 -38.59974,32.16644 19.46448,16.51836 37.58489,4.81146 55.56022,-9.94235 -16.16408,10.65081 -21.44876,25.65339 -18.71502,43.86333 24.60071,3.1166 35.80699,-13.46448 47.95724,-28.65738 -15.56416,16.54807 -13.98914,30.49929 -4.67875,43.27849 18.73706,-3.48238 29.55034,-16.55672 33.92097,-37.43004 -5.14971,15.68148 -6.12881,30.60467 5.2636,43.27849 6.4108,-5.36607 12.76927,-10.81935 16.96049,-19.88471 l 1.16969,-37.43005 -77.78431,-56.72991 z"
         id="path3285"
         style="fill:#ffffff;fill-opacity:1;fill-rule:evenodd;stroke:#000000;stroke-width:4;stroke-linecap:round;stroke-linejoin:round;stroke-miterlimit:4;stroke-opacity:1;stroke-dasharray:none;stroke-dashoffset:0" />
      <path
         d="m 272.06304,434.90307 c -7.72022,-6.44342 -18.17395,-10.15333 -34.58563,-7.90529 -18.04368,4.06343 -29.8688,-11.9855 -18.53702,-26.40629 13.02492,-18.03531 18.71215,-37.48578 6.67908,-62.52819 -11.64757,-18.2871 -19.8831,-14.28416 -22.7277,-32.60931 -16.50095,21.15043 0.82534,38.2416 9.88161,56.32517 -8.95747,-17.40742 -20.61867,-11.83307 -31.62115,-11.85793 5.88913,10.5603 4.20977,24.90485 19.76322,30.63299 -12.40257,-7.22047 -23.36958,-5.8276 -33.59747,0 9.20888,8.88089 9.70326,24.60888 32.60931,22.7277 -18.67542,-4.35432 -23.88753,6.25061 -33.59747,11.85793 9.67046,12.5809 18.75358,14.0539 33.87152,11.38186 -15.88647,1.66391 -22.53407,10.24242 -25.96623,21.22745 10.02326,2.60268 18.38172,8.81241 34.58563,-1.97632 -8.53259,7.35246 -13.03201,17.72981 -12.84609,31.62115 11.87761,-3.80041 22.70048,1.89187 36.56195,-19.76322 -7.75581,9.21675 -9.06415,21.01248 -5.92896,34.58563 8.76977,-5.80783 17.93486,-5.68579 25.69218,-26.68034 -1.09307,10.44303 -7.78883,19.20526 0.98816,32.60931 8.4085,3.05585 15.31408,-8.91756 22.7277,-15.81058 z"
         id="path4613"
         style="fill:#ffffff;stroke:#000000;stroke-width:4;stroke-linecap:round;stroke-linejoin:round;stroke-miterlimit:4;stroke-opacity:1;stroke-dasharray:none;stroke-dashoffset:0" />
      <path
         d="m 271.44956,283.46477 c -1.86823,1.00653 -30.21412,-18.62956 -43.08272,-4.37071 -2.04301,3.68078 -12.04053,7.34413 -14.9853,-3.53819 -11.1061,13.00893 7.34946,29.37647 21.64542,11.4471 8.56748,-11.7739 23.83026,-4.34201 36.4226,-3.5382 z"
         id="path4334"
         style="fill:#ffd90f;fill-opacity:1;fill-rule:evenodd;stroke:#000000;stroke-width:3.5;stroke-linecap:round;stroke-linejoin:round;stroke-miterlimit:4;stroke-opacity:1;stroke-dasharray:none;stroke-dashoffset:0" />
      <path
         d="m 254.21499,236.58818 c 4.38507,7.40717 7.94703,13.60584 14.54263,18.24986 -0.6685,8.88863 3.49454,17.77725 16.12313,26.66588 2.44383,11.01513 -3.53834,20.31814 -14.41267,20.9978 -10.09467,-6.17455 -17.74847,-10.2667 -30.37628,-4.33162 -1.37384,-10.54706 7.63169,-15.43264 30.66576,-12.66629 -13.2224,-6.30253 -29.40855,-23.62963 -35.33229,-16.66618 -1.44273,-5.29107 -12.55136,-4.85252 -13.33294,6.66647 -10.13004,-11.79213 -15.56193,-58.5478 32.12266,-38.91592 z"
         id="path4332"
         style="fill:#ffd90f;fill-opacity:1;fill-rule:evenodd;stroke:#000000;stroke-width:3.5;stroke-linecap:round;stroke-linejoin:round;stroke-miterlimit:4;stroke-opacity:1;stroke-dasharray:none;stroke-dashoffset:0" />
      <g
         id="g4097"
         style="stroke-width:3.5;stroke-miterlimit:4;stroke-dasharray:none">
        <path
           d="m 324.42165,722.87978 c -3.48179,6.92866 4.9952,13.00311 -10.82272,20.81292 -7.93194,5.24903 -15.26497,7.50347 -24.97549,21.64542 -6.6903,7.49265 -10.24602,14.9853 -25.80801,22.47795 -21.68989,13.46617 -10.44167,22.45182 -4.9951,21.64542 9.38145,-0.0729 15.9947,0.95476 12.25158,12.13152 -6.36053,0.11185 -13.77163,0.44763 -10.58655,12.84398 -3.18166,0.181 -6.83822,5.11095 -9.15768,-3.33007 l -4.16258,-10.82271 c -3.33007,5.21463 -6.66013,1.09869 -9.9902,-0.83252 -8.7337,-8.10288 -8.83606,-0.38164 -12.48774,0.83252 -8.01865,5.78411 -13.24338,7.37733 -17.48285,7.49265 l 0.83252,-7.49265 c -4.78007,12.25624 -9.89268,22.29558 -17.48285,15.81781 0.79369,-7.69136 0.26361,-14.58845 -8.32516,-16.65033 -6.69441,-6.26271 6.20474,-9.49037 14.50505,-9.03761 6.78976,-6.06191 14.28466,-10.22639 29.61832,-13.44033 -27.83798,5.78107 -28.78649,-5.31849 -35.79821,-0.83252 l 0.83252,-3.33007 c -10.50107,11.63241 -17.90538,14.36163 -20.81291,4.16259 3.41251,-4.44289 5.9902,-7.55281 0,-18.31536 2.14024,-5.68312 6.03071,-8.44918 16.65033,0 12.34892,-6.393 26.15256,9.593 39.00425,4.64282 -8.18635,0.33317 -23.48165,-6.9594 -26.19232,-16.80751 3.66139,-0.57099 4.66789,0.0479 6.57211,0.15718 -8.47205,-1.57338 -21.67487,2.52003 -18.55153,-7.97289 6.34877,-1.71244 13.64422,-2.09952 10.82272,-16.65033 6.06107,-7.53448 12.03334,5.63455 14.15278,14.86128 7.1744,4.62776 13.53786,6.62872 14.15278,15.94183 3.51174,8.87737 8.42214,12.85946 17.59895,1.90912 12.21024,-21.76158 21.21443,-34.10034 33.42467,-44.48356 4.44009,-12.85668 10.30509,-16.96802 14.74518,-22.36184 z"
           id="path4340"
           style="fill:#ffd90f;fill-opacity:1;stroke:#000000;stroke-width:3.5;stroke-linecap:round;stroke-linejoin:round;stroke-miterlimit:4;stroke-opacity:1;stroke-dasharray:none;stroke-dashoffset:0" />
        <path
           d="m 258.92464,834.37102 c -2.215,-11.34028 2.74704,-14.10798 11.39927,-12.46796 10.13994,12.05174 5.24465,18.7684 -3.20605,24.22346 2.11158,-7.39916 -0.62174,-11.31604 -8.19322,-11.7555 z"
           id="path4342"
           style="fill:#ffd90f;fill-opacity:1;stroke:#000000;stroke-width:3.5;stroke-linecap:round;stroke-linejoin:round;stroke-miterlimit:4;stroke-opacity:1;stroke-dasharray:none;stroke-dashoffset:0" />
        <path
           d="m 180.91085,846.12652 c 0.65766,-6.94762 2.54302,-12.53832 8.90569,-13.18041 1.13338,-11.97127 -4.6004,-11.65394 -8.90569,-13.89287 -10.72493,9.42661 -13.41922,18.55207 0,27.07328 z"
           id="path4344"
           style="fill:#ffd90f;fill-opacity:1;stroke:#000000;stroke-width:3.5;stroke-linecap:round;stroke-linejoin:round;stroke-miterlimit:4;stroke-opacity:1;stroke-dasharray:none;stroke-dashoffset:0" />
        <path
           d="m 169.51158,797.32338 c -10.22357,-7.93839 -13.67008,-2.028 -17.09891,3.9185 -3.93672,-13.73756 -1.55515,-23.68414 17.09891,-23.86723 4.87514,7.32668 5.99404,14.13166 0,19.94873 z"
           id="path4346"
           style="fill:#ffd90f;fill-opacity:1;stroke:#000000;stroke-width:3.5;stroke-linecap:round;stroke-linejoin:round;stroke-miterlimit:4;stroke-opacity:1;stroke-dasharray:none;stroke-dashoffset:0" />
        <path
           d="m 187.67917,758.85083 c -4.23109,-8.50355 -9.96956,-4.64658 -15.674,-1.06868 3.10663,-10.92668 9.88544,-18.00631 25.64837,-15.67401 4.06397,14.0252 -3.92456,14.2761 -9.97437,16.74269 z"
           id="path4348"
           style="fill:#ffd90f;fill-opacity:1;stroke:#000000;stroke-width:3.5;stroke-linecap:round;stroke-linejoin:round;stroke-miterlimit:4;stroke-opacity:1;stroke-dasharray:none;stroke-dashoffset:0" />
      </g>
      <g
         transform="translate(948.28453,0)"
         id="g4426"
         style="stroke-width:4;stroke-miterlimit:4;stroke-dasharray:none">
        <path
           d="m -706.514,584.51559 c -4.83879,21.70012 20.5942,32.79385 19.3426,59.30034 4.27153,-0.0248 8.23829,-1.96193 7.38073,-11.70736 0.0781,3.98729 1.96716,7.97458 -1.01803,11.96187 9.55762,-5.07243 11.39087,-19.02788 7.38073,-39.70323 l -15.77949,-28.50489 z"
           transform="translate(6.4528995,81.9066)"
           id="path4420"
           style="fill:#ffffff;stroke:#000000;stroke-width:4;stroke-linecap:round;stroke-linejoin:round;stroke-miterlimit:4;stroke-opacity:1;stroke-dasharray:none;stroke-dashoffset:0" />
        <path
           d="m -673.93698,605.63975 c 8.3673,-6.18363 11.4595,-16.88878 15.27047,-26.97784 2.68542,12.30835 0.78381,26.36413 16.79752,33.59504 1.93759,28.19958 -10.42903,32.36462 -16.2885,41.48479 -12.25167,-10.69962 -12.72539,-23.74135 -15.77949,-48.10199 z"
           transform="translate(6.4528995,81.9066)"
           id="path4422"
           style="fill:#ffffff;stroke:#000000;stroke-width:4;stroke-linecap:round;stroke-linejoin:round;stroke-miterlimit:4;stroke-opacity:1;stroke-dasharray:none;stroke-dashoffset:0" />
        <path
           d="m -626.08949,582.22502 -17.81556,32.06799 c -0.75115,18.89457 7.55258,44.3799 25.7053,27.74137 -20.36385,-1.58739 -1.44256,-19.84119 -1.52705,-30.03194 z"
           transform="translate(6.4528995,81.9066)"
           id="path4424"
           style="fill:#ffffff;stroke:#000000;stroke-width:4;stroke-linecap:round;stroke-linejoin:round;stroke-miterlimit:4;stroke-opacity:1;stroke-dasharray:none;stroke-dashoffset:0" />
      </g>
      <path
         d="m 258.14924,622.39232 c -12.17085,5.17671 -13.65579,24.81082 -14.50695,45.30241 4.94434,0.88549 9.86467,1.81899 20.10612,-7.88975 0.43817,-7.13438 -0.80879,-13.28577 7.38073,-24.94177 -11.50399,17.50334 -6.03574,36.46144 6.10819,55.99174 11.73255,-9.75676 19.93456,-21.92917 18.83359,-40.46676 0.95422,17.06802 2.30282,33.95857 16.54302,45.0479 8.95908,-10.87591 16.94305,-21.89113 16.54301,-34.10406 2.31528,13.6073 -9.02487,24.69646 9.41679,37.41266 -11.93396,-12.53346 5.4275,-19.24081 8.65327,-28.75939 l -6.36269,-44.53889 z"
         id="path4418"
         style="fill:#ffffff;stroke:#000000;stroke-width:4;stroke-linecap:round;stroke-linejoin:round;stroke-miterlimit:4;stroke-opacity:1;stroke-dasharray:none;stroke-dashoffset:0" />
      <path
         d="m 327.78376,610.28737 c -24.63287,-17.95732 -68.104,-11.98028 -72.13143,13.15605 4.78362,2.30521 9.34577,4.75806 24.04381,0.45366 2.60152,-3.41013 9.72211,-7.95002 17.69261,-12.70239 -27.64063,12.92118 -12.12205,26.84606 -13.6097,40.37545 5.94607,-4.53001 15.52706,-6.31622 24.95112,-15.42433 1.28317,-3.9775 2.24398,-8.01947 6.80486,-11.34142 -11.06094,16.7118 -3.35616,25.74672 -0.45366,36.7462 11.51658,-7.24978 23.07287,-14.46877 22.22918,-31.30232 -1.10936,-9.95961 -5.06325,-15.36797 -9.52679,-19.9609 z"
         id="path4416"
         style="fill:#ffffff;stroke:#000000;stroke-width:4;stroke-linecap:round;stroke-linejoin:round;stroke-miterlimit:4;stroke-opacity:1;stroke-dasharray:none;stroke-dashoffset:0" />
      <path
         d="m 355.30737,727.13501 c -7.66707,8.04153 -11.01794,18.48096 -12.40476,30.01152 1.14707,12.4377 -6.51923,21.24637 -17.20661,28.81106 -13.57496,12.78167 -24.52002,29.86683 -30.41167,55.22119 4.22632,-4.70428 6.68555,0.31041 9.60369,2.80108 3.23411,3.01616 7.13257,4.98836 15.20583,0.40015 12.2218,-28.85793 30.66446,-35.0446 39.21505,-100.03839 -9.09234,63.95259 -26.39113,72.59823 -40.01535,100.03839 0.5422,6.40534 -0.45371,12.29799 -2.00077,18.00691 2.69334,-0.77979 6.01823,-3.2437 10.80414,-9.60368 l -3.60138,7.60292 c -1.13291,7.14648 3.24987,9.69654 6.00231,13.60522 2.04689,-2.65485 2.8649,-4.94104 11.60445,-9.60369 9.58658,-60.15196 28.79629,-15.01451 26.00998,-146.85636 z"
         id="path4394"
         style="fill:#ffffff;stroke:#000000;stroke-width:4;stroke-linecap:round;stroke-linejoin:round;stroke-miterlimit:4;stroke-opacity:1;stroke-dasharray:none;stroke-dashoffset:0" />
      <path
         d="m 368.22009,718.60749 c 0.22551,36.67879 3.4554,76.6636 -12.0769,107.37941 -8.21666,11.87476 -13.331,24.56577 -13.38961,45.15711 4.67952,-5.85019 10.48458,-7.89223 13.91469,-18.11535 -1.2349,6.76775 -4.65006,10.26511 -8.66386,12.86452 -2.6453,7.75491 0.0536,12.83771 2.88795,17.85281 8.33016,-8.75827 20.37319,-14.11307 21.00331,-29.92971 0.039,-8.17922 2.32434,-14.48647 6.56353,-19.16552 l -1.57525,-100.55333 z"
         id="path4396"
         style="fill:#ffffff;stroke:#000000;stroke-width:4;stroke-linecap:round;stroke-linejoin:round;stroke-miterlimit:4;stroke-opacity:1;stroke-dasharray:none;stroke-dashoffset:0" />
      <path
         d="m 349.90529,691.32127 c -1.62304,12.4098 8.70969,24.49908 -3.80145,36.41397 5.61338,5.01074 18.80532,4.20752 22.00844,-10.60407 l -3.80146,-37.41435 z"
         id="path4390"
         style="fill:#ffffff;fill-opacity:1;fill-rule:evenodd;stroke:#000000;stroke-width:4;stroke-linecap:round;stroke-linejoin:round;stroke-miterlimit:4;stroke-opacity:1;stroke-dasharray:none;stroke-dashoffset:0" />
      <path
         d="m 365.31121,673.31436 c 0.34164,32.66829 1.60614,59.65514 12.0046,61.62365 l 0,-42.61636 z"
         id="path4392"
         style="fill:#ffffff;fill-opacity:1;fill-rule:evenodd;stroke:#000000;stroke-width:4;stroke-linecap:round;stroke-linejoin:round;stroke-miterlimit:4;stroke-opacity:1;stroke-dasharray:none;stroke-dashoffset:0" />
      <path
         d="m 344.10307,654.10699 c -2.37519,13.20891 5.95235,17.06195 3.60138,38.61482 12.57362,-0.81855 19.55795,-9.91904 21.40822,-16.00615 -0.51621,-8.55394 -1.65746,-16.48284 1.40053,-28.61098 -4.34464,30.43097 1.73324,40.01689 7.803,49.61905 l -0.20008,-46.21774 c -6.34062,-24.57376 -9.42728,-39.08409 -12.81727,-39.51887 -1.88669,3.27723 -8.7069,17.78106 -21.19578,42.11987 z"
         id="path4388"
         style="fill:#ffffff;fill-opacity:1;fill-rule:evenodd;stroke:#000000;stroke-width:4;stroke-linecap:round;stroke-linejoin:round;stroke-miterlimit:4;stroke-opacity:1;stroke-dasharray:none;stroke-dashoffset:0" />
      <path
         d="m 324.29547,599.6861 c 1.91371,16.88807 17.66909,31.7881 15.60598,54.22081 23.15495,-1.96093 23.42558,-22.8991 25.40976,-42.41628 0.78206,16.89699 -2.22186,34.44673 13.20507,48.81874 l 0,-62.02381 -37.41436,-45.71754 z"
         id="path4386"
         style="fill:#ffffff;fill-opacity:1;fill-rule:evenodd;stroke:#000000;stroke-width:4;stroke-linecap:round;stroke-linejoin:round;stroke-miterlimit:4;stroke-opacity:1;stroke-dasharray:none;stroke-dashoffset:0" />
      <path
         d="m 294.88418,549.26675 c 1.78537,22.63801 18.14029,34.67997 27.21044,52.01996 20.07781,-8.91147 17.79741,-29.90847 19.0073,-49.01881 0.0105,23.21974 1.43527,45.90524 25.00959,60.22311 7.89874,-3.29206 9.07,-9.57411 12.60484,-14.80568 l -1.20046,-67.42588 -11.00422,-17.60675 -52.32009,2.50095 z"
         id="path4384"
         style="fill:#ffffff;fill-opacity:1;fill-rule:evenodd;stroke:#000000;stroke-width:4;stroke-linecap:round;stroke-linejoin:round;stroke-miterlimit:4;stroke-opacity:1;stroke-dasharray:none;stroke-dashoffset:0" />
      <path
         d="m 307.48901,442.22567 -34.21313,42.81643 c -3.10863,38.11026 10.64319,48.33593 20.60791,64.82488 12.97412,-5.64198 19.69778,-15.97181 22.00845,-29.61137 -0.29416,-8.27669 -2.46427,-17.02236 -0.80031,-24.80952 -4.21633,30.84791 10.93761,44.97384 27.6106,61.02342 17.08626,-7.80663 22.39622,-21.0638 26.21006,-35.01344 -1.84968,-7.71297 -1.65693,-16.90911 -1.40054,-26.21006 -1.24043,23.29054 4.55644,34.65652 10.60407,37.41436 l -1.60061,-49.61904 -26.81029,-48.81874 z"
         id="path4382"
         style="fill:#ffffff;fill-opacity:1;fill-rule:evenodd;stroke:#000000;stroke-width:4;stroke-linecap:round;stroke-linejoin:round;stroke-miterlimit:4;stroke-opacity:1;stroke-dasharray:none;stroke-dashoffset:0" />
      <path
         d="m 308.88955,403.61085 -32.21236,25.40975 c -9.4428,19.77944 -2.64682,39.58694 -9.20353,55.42127 36.48971,6.73266 40.46319,-30.15647 40.41551,-52.42012 -2.59221,28.07807 -2.78712,54.07739 17.60676,62.22388 24.07497,-10.96836 22.04283,-36.17696 23.60906,-59.42281 2.55872,21.00616 1.41067,44.21635 22.80875,54.02074 3.7261,-1.66904 5.10447,-3.80763 6.20238,-6.00231 l -1.00038,-57.62211 -27.21045,-20.00768 z"
         id="path4380"
         style="fill:#ffffff;fill-opacity:1;fill-rule:evenodd;stroke:#000000;stroke-width:4;stroke-linecap:round;stroke-linejoin:round;stroke-miterlimit:4;stroke-opacity:1;stroke-dasharray:none;stroke-dashoffset:0" />
      <path
         d="m 292.14306,385.89432 c 0.2634,19.63556 -22.20757,25.0248 -18.58707,41.64878 12.16191,2.15077 24.32381,3.70523 36.48572,-10.32614 l 4.47466,-21.3407 -4.13045,20.99649 c 1.19651,10.76324 6.37623,19.75616 15.83342,26.84798 24.62441,-13.11895 21.84469,-30.96275 20.65229,-48.53288 0.9419,14.70422 4.66163,28.85287 23.75014,39.92776 l 5.85148,-9.63774 0.6884,-59.54743 -18.24285,-20.6523 -54.04016,15.48922 z"
         id="path4378"
         style="fill:#ffffff;stroke:#000000;stroke-width:4;stroke-linecap:round;stroke-linejoin:round;stroke-miterlimit:4;stroke-opacity:1;stroke-dasharray:none;stroke-dashoffset:0" />
      <g
         transform="translate(891.06614,0)"
         id="g4363"
         style="stroke-width:4;stroke-miterlimit:4;stroke-dasharray:none">
        <path
           d="m -636.65111,225.13225 c 23.86697,-5.71242 48.31208,-9.97947 80.60528,5.37369 7.55337,2.82233 15.3462,9.71548 22.09181,-1.19416 3.8937,6.95027 -3.39998,31.17228 -19.70351,15.52398 0.43306,2.81916 6.31263,4.54902 10.74737,6.56784 16.03581,14.1921 0.90933,35.10815 16.12106,40.60118 -7.86727,6.33923 -12.83852,2.54239 -17.31521,-2.98538 l 11.34445,8.35907 c 1.85143,13.95671 2.98628,29.27491 13.13567,27.4655 -4.35046,9.47704 -21.53909,2.146 -25.67427,-4.17953 5.32383,10.83578 2.77077,18.17072 0.59707,25.67427 -8.38563,-3.32371 -15.15109,-7.25499 -16.71813,-13.13567 l 0,0 c 4.19623,5.20211 7.62946,10.91289 16.7645,12.82247 2.68982,-7.48851 5.08979,-15.06446 -0.64344,-25.09423 6.06953,5.88329 11.90041,12.10749 23.80735,9.65162 l 8.7764,14.47744 -0.96517,22.31116 c -7.34291,0.99064 -11.71484,-9.30492 -14.88909,-17.48534 5.19733,15.84284 4.75024,28.86347 -5.46926,36.9979 -12.84586,-4.01031 -15.48036,-15.87552 -17.37293,-28.31144 1.06518,12.24262 3.6737,24.84838 -9.32991,33.7807 -12.4502,-5.48451 -15.80806,-16.42442 -15.4426,-29.59833 -0.30852,23.80699 -9.56151,32.05838 -29.59832,21.5553 15.04417,-2.87717 14.70508,-14.98429 12.86883,-27.98971 6.51412,-3.49219 7.69671,-8.31727 7.39958,-13.51228 -1.44049,11.5182 -6.39449,14.95534 -16.40776,6.75614 16.78402,-15.65709 -11.52347,-31.31417 -17.69465,-46.97126 10.91323,-2.02972 16.62891,-7.95759 13.834,-20.26841 -6.19108,-7.99651 -18.30496,-9.53179 -16.08605,-26.70284 -7.32494,-8.21546 -20.13061,-11.97783 -14.78307,-30.48968 z"
           id="path4350"
           style="fill:#ffffff;stroke:#000000;stroke-width:4;stroke-linecap:round;stroke-linejoin:round;stroke-miterlimit:4;stroke-opacity:1;stroke-dasharray:none;stroke-dashoffset:0" />
        <g
           transform="translate(57.558981,0)"
           id="g4358"
           style="stroke-width:4;stroke-miterlimit:4;stroke-dasharray:none">
          <path
             d="m -692.92158,152.66326 c 5.59749,-0.46643 7.45433,-2.62431 16.85899,-1.36234 11.10516,1.83368 8.89653,4.4386 18.56192,6.64142"
             transform="translate(6.4528995,81.9066)"
             id="path4352"
             style="fill:none;stroke:#000000;stroke-width:4;stroke-linecap:round;stroke-linejoin:round;stroke-miterlimit:4;stroke-opacity:1;stroke-dasharray:none;stroke-dashoffset:0" />
          <path
             d="m -672.65673,158.36807 a 4.5979066,5.0236387 0 1 1 -9.19582,0 4.5979066,5.0236387 0 1 1 9.19582,0 z"
             transform="matrix(1,0,0,1.1942108,6.4528995,50.174171)"
             id="path4354"
             style="fill:#000000;stroke:#000000;stroke-width:3.66032362;stroke-linecap:round;stroke-linejoin:round;stroke-miterlimit:4;stroke-opacity:1;stroke-dasharray:none;stroke-dashoffset:0" />
          <path
             d="m -686.10986,151.47121 c -5.16183,6.27936 0.88884,18.32747 10.06425,18.54494 7.71866,0.945 11.80668,-7.18592 9.51942,-15.64996"
             transform="translate(6.4528995,81.9066)"
             id="path4356"
             style="fill:none;stroke:#000000;stroke-width:4;stroke-linecap:round;stroke-linejoin:round;stroke-miterlimit:4;stroke-opacity:1;stroke-dasharray:none;stroke-dashoffset:0" />
        </g>
      </g>
      <path
         d="m 254.84585,205.63674 c 1.01955,-3.0978 2.92932,-5.39814 1.59119,-10.60795 -4.50024,-8.75279 -15.53514,-14.63032 -12.90634,-26.51989 2.2504,-7.16795 8.16002,-7.01745 13.79034,-7.42556 l 0.7072,-6.01118 c -15.73632,-4.53145 -25.98345,3.72861 -26.34309,15.55833 0.0292,16.00965 14.88308,23.65209 23.1607,35.00625 z"
         id="path4300"
         style="fill:#ffd90f;fill-opacity:1;fill-rule:evenodd;stroke:#000000;stroke-width:3.5;stroke-linecap:round;stroke-linejoin:round;stroke-miterlimit:4;stroke-opacity:1;stroke-dasharray:none;stroke-dashoffset:0" />
      <path
         d="m 333.20049,209.3722 c -0.6167,-3.20243 -2.21792,-5.72727 -0.22713,-10.72422 5.5784,-8.10832 17.27202,-12.53251 16.17897,-24.66007 -1.31912,-7.39619 -7.19977,-7.99961 -12.73226,-9.12152 l 0.0642,-6.05228 c 16.18531,-2.49027 25.29693,7.00766 24.14693,18.78685 -2.06806,15.87554 -17.77436,21.56385 -27.4307,31.77124 z"
         id="path4302"
         style="fill:#ffd90f;fill-opacity:1;fill-rule:evenodd;stroke:#000000;stroke-width:3.5;stroke-linecap:round;stroke-linejoin:round;stroke-miterlimit:4;stroke-opacity:1;stroke-dasharray:none;stroke-dashoffset:0" />
      <g
         transform="translate(946.5731,1.3093217)"
         id="g4293"
         style="stroke-width:3.5;stroke-miterlimit:4;stroke-dasharray:none">
        <path
           d="m -697.82656,126.1336 0.5304,11.66876 c 26.942,-4.33087 52.85337,-3.27145 76.02368,3.71278 l 0.70719,-11.84555 c -21.64659,-9.77812 -62.02349,-13.11985 -77.26127,-3.53599 z"
           transform="translate(6.4528995,81.9066)"
           id="path4289"
           style="fill:#ffd90f;fill-opacity:1;fill-rule:evenodd;stroke:#000000;stroke-width:3.5;stroke-linecap:round;stroke-linejoin:round;stroke-miterlimit:4;stroke-opacity:1;stroke-dasharray:none;stroke-dashoffset:0" />
        <path
           d="m -698.56248,122.06406 c -1.78266,1.62319 -1.76199,4.4405 0.19902,6.06369 22.85621,-9.98281 58.5159,-6.30671 78.74369,3.442 2.48985,-1.84142 1.78283,-4.19488 1.18391,-5.5215 -18.62757,-10.881 -64.07834,-13.43974 -80.12662,-3.98419 z"
           transform="translate(6.4528995,81.9066)"
           id="path4287"
           style="fill:#ffd90f;fill-opacity:1;fill-rule:evenodd;stroke:#000000;stroke-width:3.5;stroke-linecap:round;stroke-linejoin:round;stroke-miterlimit:4;stroke-opacity:1;stroke-dasharray:none;stroke-dashoffset:0" />
        <path
           d="m -698.15793,137.63618 c -2.18282,2.37263 -2.9426,5.03632 0.50818,6.00055 27.61236,-5.70664 56.75756,-2.99609 76.37726,3.18238 3.00868,-0.49389 2.12107,-4.88085 -0.1768,-5.82374 -24.15897,-9.00885 -55.12033,-8.10645 -76.70864,-3.35919 z"
           transform="translate(6.4528995,81.9066)"
           id="path4291"
           style="fill:#ffd90f;fill-opacity:1;fill-rule:evenodd;stroke:#000000;stroke-width:3.5;stroke-linecap:round;stroke-linejoin:round;stroke-miterlimit:4;stroke-opacity:1;stroke-dasharray:none;stroke-dashoffset:0" />
      </g>
      <path
         d="m 297.36985,153.19574 c -11.90837,-1.41348 -30.02715,-15.75106 -39.53466,1.90528 -9.25142,18.17279 3.06507,35.92997 11.19354,45.965 2.17623,-2.64739 5.48279,-0.77352 5.95402,-10.24091 -4.18688,-7.85888 -12.08498,-18.5742 -7.14482,-32.15168 4.76112,-7.9742 17.04171,-1.24378 25.72135,-1.66712 z"
         id="path4306"
         style="fill:#ffd90f;fill-opacity:1;fill-rule:evenodd;stroke:#000000;stroke-width:3.5;stroke-linecap:round;stroke-linejoin:round;stroke-miterlimit:4;stroke-opacity:1;stroke-dasharray:none;stroke-dashoffset:0" />
      <path
         d="m 297.71058,151.67935 c 11.97379,0.65991 32.29238,-10.34058 38.61479,8.69009 5.98113,19.49525 -9.21131,34.86415 -18.94757,43.3482 -1.68742,-2.98283 -5.26745,-1.70685 -4.10004,-11.11379 5.47862,-7.01974 15.1052,-16.2136 12.57886,-30.4393 -3.31563,-8.67541 -16.57237,-4.16211 -25.0492,-6.07495 z"
         id="path4308"
         style="fill:#ffd90f;fill-opacity:1;fill-rule:evenodd;stroke:#000000;stroke-width:3.5;stroke-linecap:round;stroke-linejoin:round;stroke-miterlimit:4;stroke-opacity:1;stroke-dasharray:none;stroke-dashoffset:0" />
      <path
         d="m 289.03423,147.9562 15.7186,0.47632 c 1.82187,14.68817 -5.11969,32.85458 1.90528,45.48868 -4.78895,8.34439 -20.4738,5.70639 -22.86342,-0.71448 8.00949,-11.96764 1.1992,-32.95832 5.23954,-45.25052 z"
         id="path4304"
         style="fill:#ffd90f;fill-opacity:1;fill-rule:evenodd;stroke:#000000;stroke-width:3.5;stroke-linecap:round;stroke-linejoin:round;stroke-miterlimit:4;stroke-opacity:1;stroke-dasharray:none;stroke-dashoffset:0" />
      <path
         d="m 292.401,104.80967 c 2.00884,3.69614 3.05721,7.42136 3.21875,11.15625 -3.57148,-0.67141 -7.15489,-2.10395 -10.78125,-4.28125 l -0.78125,13.0625 c 3.72806,-1.80964 7.42284,-2.82824 11.09375,-3.0625 -0.68416,3.51941 -2.10488,7.05223 -4.25,10.625 l 13.09375,0.78125 c -1.80772,-3.72409 -2.82677,-7.42669 -3.0625,-11.09375 3.56668,0.61417 7.11718,2.01298 10.625,4.25 l 0.75,-13.09375 c -3.69614,2.00884 -7.39011,3.05722 -11.125,3.21875 0.59843,-3.62387 2.00894,-7.2181 4.28125,-10.78125 l -13.0625,-0.78125 z"
         id="rect4310"
         style="fill:#ffd90f;fill-opacity:1;fill-rule:evenodd;stroke:#000000;stroke-width:3.5;stroke-linecap:round;stroke-linejoin:round;stroke-miterlimit:4;stroke-opacity:1;stroke-dasharray:none;stroke-dashoffset:0" />
      <path
         d="m -645.31718,58.419498 a 10.784753,10.784753 0 1 1 -21.5695,0 10.784753,10.784753 0 1 1 21.5695,0 z"
         transform="translate(953.026,83.215922)"
         id="path4298"
         style="fill:#ffd90f;fill-opacity:1;fill-rule:evenodd;stroke:#000000;stroke-width:3.5;stroke-linecap:round;stroke-linejoin:round;stroke-miterlimit:4;stroke-opacity:1;stroke-dasharray:none;stroke-dashoffset:0" />
      <g
         transform="translate(949.18725,0)"
         id="g4205">
        <path
           d="m -515.22745,580.66534 c 0,0 -0.88209,9.99084 -3.11769,18.70615 6.23365,-1.82061 18.97527,-9.03588 19.51444,-12.3553 -4.08087,-3.73245 -8.667,-6.87543 -16.39675,-6.35085 z m -61.01502,-322.26649 c 7.72291,-18.19515 24.25738,-25.20639 16.10089,-63.55616 -4.04452,-20.25146 -5.93006,-42.33347 4.72323,-67.10832 0.0798,-9.05635 -0.25832,-17.87391 2.07355,-28.21717 1.83331,-6.95932 5.72216,-6.63415 11.16145,-4.07459 7.36099,3.42752 12.42547,8.23296 18.24561,12.58499 13.42441,-4.39955 29.95954,-4.04074 48.75392,3.64215 13.63416,-7.90035 25.94205,-3.46047 25.04374,9.19532 16.03315,1.17702 33.26919,-9.42232 48.46518,0.25248 6.63449,4.30025 6.33691,12.70042 2.83098,15.001 1.50983,11.32476 -1.2724,25.77752 -15.97465,33.64414 l -0.37871,5.04824 c 6.60941,-2.93586 23.3044,4.54616 26.44983,-16.31712 10.79748,0.14832 16.14383,15.44037 3.13718,28.09095 -8.60446,7.15001 -21.19246,5.7774 -32.12925,5.58945 l -0.12624,2.59596 c 5.11441,1.0283 7.89423,7.20877 3.13718,12.69378 -2.55053,3.43356 -3.09633,5.23248 -3.13718,7.59047 -0.86279,10.62988 -11.66967,9.30255 -18.55317,7.75298 -11.39237,-3.8825 -20.79321,-5.9351 -29.49703,-3.76838 -0.0333,18.79731 10.88345,33.16096 22.75397,47.32902 8.0918,0.8104 16.39318,1.49164 28.77586,-0.34245 20.08443,-15.88959 41.82527,-31.98823 67.57702,-45.54422 4.6547,-2.466 9.76912,-8.13929 12.08003,-12.08003 3.86987,-8.0775 9.28834,-11.40828 13.70234,-14.9822 1.26953,-10.16564 -5.02038,-24.17412 9.14161,-27.89353 0.61911,-8.05807 18.99814,-15.37514 23.9264,-5.89564 -2.49355,0.58545 -5.5978,1.63631 -6.81021,9.48944 1.69291,1.12886 2.15445,3.18125 2.52478,5.30205 2.1451,-0.7212 4.33919,-1.14839 6.81693,0.12624 11.78202,-9.66694 22.75768,-3.50074 24.61668,4.7971 -8.43228,0.34952 -10.3953,3.93366 -12.24522,7.57436 1.12864,2.22647 0.79922,3.72391 0.63119,5.30205 10.49994,-0.86797 27.67229,1.82988 23.85925,16.6636 -4.13368,-4.24852 -11.15083,1.5666 -18.17847,0.25248 0.23719,2.75815 -0.67511,4.07945 -1.76736,5.17581 1.55695,1.37943 3.11391,2.71317 4.67086,6.05949 3.98873,-2.6088 22.88301,8.05877 11.48778,18.68343 -3.99653,-1.4791 -7.46211,-6.14382 -12.37145,-2.14607 -1.78792,4.09 -4.38337,7.15222 -9.84668,6.56445 -4.58402,-0.66044 -6.18217,-1.44165 -7.82684,-3.40847 -3.20277,2.68958 -10.1724,1.89126 -17.29479,1.64112 -2.84685,4.35272 -11.27878,7.16439 -5.93325,12.4977 17.15071,6.91632 5.84031,16.76756 -8.83676,12.87641 -9.53313,-4.43018 -14.9153,-2.62535 -20.1983,2.52479 -22.18737,18.89679 -33.05651,43.70493 -56.93396,53.02054 7.31718,6.26942 16.17504,11.24143 25.24788,16.0324 12.55741,-0.46052 23.36515,1.82842 33.57967,5.04958 5.3561,2.26983 6.50726,-0.50626 8.71052,-2.01983 4.12105,-5.22621 10.24674,-11.5079 15.65368,-5.80702 0.24446,4.57055 -9.41718,10.59788 1.2624,13.63386 6.14141,1.04618 11.30186,-8.50414 19.06214,-8.71052 5.2157,-7.94472 11.9584,-11.94471 21.20822,-9.46795 16.17361,-7.14073 23.31688,1.70653 23.22804,9.72043 -5.48574,0.15295 -11.43597,-0.15858 -12.37146,4.54462 0.0707,2.31439 0.0645,4.62877 -1.51487,6.94316 2.70771,0.98801 4.76734,2.94815 6.81693,4.92334 2.74633,1.25403 7.85492,0.73638 13.25513,0 1.10475,4.01812 1.00646,12.98527 -11.36154,15.4012 -1.06389,2.01983 -1.13929,4.03966 -4.03966,6.05949 2.91823,1.71422 3.99431,4.81006 5.68077,7.44812 3.78311,4.56496 10.60411,2.14607 13.50761,0.50496 -1.71919,10.24202 -9.69199,14.91083 -18.30471,16.15864 -1.30065,2.71606 -4.08622,4.68966 -8.07932,6.05949 1.27713,2.55243 1.07572,5.94975 0,9.84667 2.77779,4.72495 6.22292,8.97883 14.64377,9.72044 -7.31527,10.36241 -16.29172,7.43545 -25.24787,4.67085 -12.41105,4.9923 -15.92549,-5.10096 -20.95574,-12.62393 -13.06026,-6.35087 -21.17534,-21.69996 -27.77266,-22.59685 -14.40515,-0.19962 -39.65164,-0.24725 -56.05029,0.25248 -15.0227,1.03611 -33.92539,-19.00094 -69.55789,-14.26505 -23.556,36.43732 -46.8013,31.6653 -63.11969,65.13951 -0.50325,5.1505 0.62135,6.23137 1.38863,8.20556 11.80144,18.67307 34.03605,13.64456 57.43892,33.9584 0.15775,-5.56131 2.45817,-9.05129 -4.41838,-26.76276 -6.50002,-21.7802 0.79011,-35.20868 15.77992,-45.57241 8.40358,-5.46151 2.85881,-12.66795 0.75744,-14.51752 8.03283,-3.25906 14.88073,-0.29726 21.58693,3.40846 20.15875,-4.62449 44.08795,-1.69035 45.31994,18.68343 l -4.54462,-0.12624 c 20.69837,14.96215 8.8196,49.52742 -14.77001,42.54267 3.62548,-10.82487 3.32293,-13.45758 -1.76735,-14.89625 0.32899,9.40563 -3.10033,24.13208 -18.68343,21.46069 1.13709,-7.71963 -3.22487,-16.5734 -13.00265,-2.77726 -4.32251,5.54565 -4.55521,34.12056 -4.67086,36.73566 22.47016,31.62422 22.93843,75.02336 4.29214,104.39996 -6.90513,11.69818 -8.27294,23.39637 2.27231,35.09455 6.78493,6.18836 15.5776,14.81901 26.00531,24.49044 4.99412,3.98916 14.22026,6.15627 17.67351,-3.78718 -0.55649,-11.54827 3.75479,-21.35805 12.62394,-29.54002 5.30011,-5.57609 8.52603,-4.23826 11.8665,-3.28222 7.24884,-4.01724 23.1208,-6.43405 27.01523,8.3318 -6.24126,1.89573 -16.33813,-2.54114 -17.42104,7.82684 15.29968,-3.28809 28.28349,-3.4548 28.27762,13.88633 -7.35003,-1.29066 -13.43265,0.20699 -17.42103,6.31197 11.1054,1.35163 25.41033,13.03006 19.18839,25.50035 -2.14859,-2.50462 -10.38355,-5.55169 -15.40121,-2.77726 -1.07014,1.9237 -1.28494,3.41974 -3.78718,6.05949 8.13883,3.92695 19.40742,14.1756 9.59419,27.52018 -4.84203,-6.3879 -8.64451,-7.44179 -11.36154,-7.57436 0.41896,3.76193 -3.30299,13.82042 -17.67351,2.77727 -9.23525,-2.25264 -15.64434,-1.30229 -21.96566,-0.25248 -10.74194,1.81771 -15.00448,-0.99271 -18.9359,-4.03966 -6.68012,-3.24844 -10.96996,-2.95853 -13.33336,-0.98071 -2.08476,2.17234 -2.33905,6.46733 -1.47246,9.6074 -8.52646,0.52034 -12.08129,-6.2096 -15.99659,-12.41387 -2.384,-3.94627 -3.93901,-4.36933 -5.55453,-5.04958 -10.80476,-6.72475 -20.44161,-13.72292 -29.71527,-23.31848 -4.50835,-5.38815 -8.79913,-5.93958 -12.19621,-6.22153 -11.5677,-1.95486 -15.8147,-8.41166 -19.44086,-16.41112 -3.89154,-7.71428 -7.96576,-15.26395 -6.81693,-27.52019 0.46343,-6.90109 5.35789,-16.03487 8.14334,-22.93596 -15.11429,9.72428 -33.72184,17.7349 -50.81225,21.92605 -10.34788,5.06518 -17.88081,12.60202 -12.11898,31.81232 4.60176,12.41199 7.82015,26.89903 10.85659,41.659 -0.0513,6.74714 5.89604,7.37274 10.85659,4.29213 3.44764,-2.4029 7.37331,-4.08876 11.61402,-5.30205 7.4035,-0.4883 9.21302,-3.06939 10.60411,-5.80701 6.72658,-10.32175 16.95111,-8.70522 19.94582,-3.78718 16.08539,-3.72659 21.57769,8.91533 19.69334,15.4012 -7.47448,-3.20515 -10.52103,-0.5064 -14.64377,0.75744 -0.0402,3.04983 -0.94622,7.87222 -4.01324,12.43548 13.7556,1.20207 22.96694,14.18261 14.11239,24.67889 -2.67239,-4.13352 -6.61048,-5.10279 -10.85658,-5.30205 -0.3703,5.00555 -2.55938,8.33223 -8.07932,8.58428 3.3747,5.99224 20.03215,14.86125 7.58596,25.23627 -4.52077,-6.30449 -8.86874,-8.50188 -13.09848,-7.88886 -1.69468,2.81565 -3.56469,4.22876 -5.65617,3.87001 0.6899,1.31717 1.14288,2.7528 1.04193,4.46539 11.1293,8.03294 9.60631,16.3915 3.42347,22.47581 -3.36824,-9.0946 -10.44385,-8.30287 -15.92657,-11.75887 -13.60847,5.98928 -23.49232,-7.57574 -34.08583,-17.41503 -9.17886,-2.65306 -18.35773,-6.13832 -27.53659,-16.22426 z M -439.625,168.5625 c -12.61847,0.0258 -17.38388,9.47088 -21.21875,16.78125 13.38719,2.54376 18.09788,-13.87251 33.8125,-10.53125 l 0,-3.8125 c -4.91281,-1.72118 -9.06058,-2.44473 -12.59375,-2.4375 z m 8.5625,20.3125 c -8.84915,-0.13784 -16.72578,7.69727 -28.75,8.375 11.10034,7.7906 22.62723,-2.52591 31.9375,-2.6875 l 0.6875,-5.09375 c -1.31852,-0.38841 -2.61084,-0.57406 -3.875,-0.59375 z"
           transform="translate(6.4528995,81.9066)"
           id="path3410"
           style="fill:#000000;fill-opacity:1;fill-rule:evenodd;stroke:none" />
        <path
           d="m -417.73687,189.02715 c -0.38117,-2.4985 -0.77598,-4.97729 -2.61944,-5.3636 2.60391,-1.82944 3.1268,-3.65889 3.61731,-5.48833 6.57897,-1.63112 13.30836,0.83567 20.01994,-1.68392 8.00604,-3.49367 9.966,-9.15389 10.35298,-14.53161 7.93821,4.47028 3.94579,17.32679 -1.68391,22.07807 -8.70128,5.63575 -20.86292,5.17272 -29.68688,4.98939 z m -44.09376,-1.62156 c -1.47298,4.18291 -0.38633,6.14746 0.56131,8.2325 13.94245,-1.52299 23.54659,-12.46088 35.11285,-8.48197 0.91979,-0.005 1.24692,-1.17833 1.43445,-2.05812 l -1.30972,-0.62368 c 0.24155,-2.36586 1.35551,-4.9009 0.49891,-7.10988 -19.73057,-2.02818 -20.31519,14.73487 -36.2978,10.04115 z"
           transform="translate(6.4528995,81.9066)"
           id="path3352"
           style="fill:#ff2117;fill-opacity:1;stroke:none" />
        <g
           id="g3389">
          <path
             d="m -442.12702,269.9589 c 8.58097,0.56094 16.68968,1.43672 28.99194,-0.4832 l 66.92305,-44.2127 c 8.01577,-2.50097 11.61925,-8.67885 15.94556,-14.25437 l 11.78032,-13.51816 c 2.48416,-0.97877 3.5359,-4.42582 2.95725,-8.46739 -0.62874,-3.85327 -3.82537,-20.48554 5.79839,-16.42876 1.91283,2.72705 5.29723,1.74826 11.11357,1.9328 2.90894,-0.22639 5.23362,1.52392 0.4832,5.31518 -3.31147,5.81703 -6.2249,12.52963 -11.35517,14.25437 -3.79029,4.47433 -8.39977,8.75724 -7.24799,11.83838 2.04589,-3.11241 2.53785,-6.91187 8.27142,-7.94997 3.19101,-0.84399 7.77739,-4.14765 10.72266,-10.14718 2.16984,-5.324 3.53962,-12.54294 10.8844,-7.17852 1.04908,6.30122 3.20851,7.75002 7.56944,8.8469 1.83444,2.88767 0.51592,4.33023 -3.38239,4.59039 -10.07553,1.04383 -10.9224,12.81453 -23.35428,16.69318 6.6811,2.99669 12.96427,-9.02869 22.8939,-12.67827 4.46123,-2.25081 8.71076,-4.70749 10.12436,0.33388 -1.9581,3.51138 -0.30431,6.03822 0.96639,8.69758 0.93041,4.72518 -0.75414,7.05331 -5.55678,6.52319 -4.2051,-2.27044 -15.55198,6.2243 -26.90714,8.07846 8.02947,0.0219 16.07797,1.56097 26.66554,-4.69607 6.61239,-1.80271 6.1553,1.2701 6.03998,4.10719 -2.86462,0.89977 -5.27256,8.91405 1.9328,12.56317 0.14337,1.75699 -0.62934,5.38922 -8.69758,2.8992 -2.5637,-1.57164 -5.15597,-3.74316 -7.48959,-0.4832 -5.67109,1.00758 -9.61381,0.59893 -13.34234,-0.41275 -5.16788,6.08416 -10.6399,4.7523 -13.4752,15.63351 -0.086,5.166 3.07393,8.27729 9.42238,8.93918 -1.21851,1.96477 -3.5106,3.35697 -14.25437,0.2416 -7.20567,-4.94664 -12.19173,-3.23448 -16.18716,1.4496 -15.81228,10.70257 -26.41336,25.12743 -37.93112,38.89751 -8.78507,9.81112 -19.41123,15.94008 -33.34072,15.46237 -9.79127,-3.3455 -17.64669,-6.88459 -21.01916,-10.87198 -0.44586,-18.0357 -8.6932,-26.14223 -15.94556,-35.51512 z"
             transform="translate(6.4528995,81.9066)"
             id="path3367"
             style="fill:#ffffff;stroke:none" />
        </g>
        <path
           d="m -263.56921,419.28889 c -3.00921,1.15184 -8.84331,2.14511 -6.33027,9.89824 4.50677,2.28503 11.25547,5.934 14.73226,1.15095 -7.42254,-1.83431 -6.62805,-6.95544 -8.40199,-11.04919 z m 8.17179,-30.27017 c -5.04646,3.38848 -3.62921,6.18934 -2.07172,8.97746 7.29767,0.45417 13.62538,-0.0723 15.42283,-5.1793 -5.91984,0.69324 -8.09634,-4.58453 -13.35111,-3.79816 z m -0.34528,-29.00412 c 3.04578,-1.44742 10.0914,3.50752 13.58129,1.49624 1.42182,4.99921 -3.59286,7.38359 -11.96995,8.40199 -4.45439,-1.87869 -3.19787,-6.20726 -1.61134,-9.89823 z m -10.9341,-23.36444 c -0.70442,4.11264 0.76272,7.04078 6.79065,7.48123 4.01187,-2.15792 4.31752,-7.4163 11.73977,-7.25104 0.1845,-3.65065 -10.60935,-8.98177 -18.53042,-0.23019 z m -1.03586,-112.44852 c -2.74624,0.0673 -3.73314,4.28705 0.80567,8.28689 4.01058,-0.26234 8.55471,-3.01461 11.73977,0.57548 2.3968,-4.80432 -3.2264,-9.56164 -12.54544,-8.86237 z m -0.69057,-26.58711 c -0.89867,2.85104 -2.98915,6.01989 0.46038,7.71141 5.91406,1.10783 11.09565,-3.08538 17.03417,-0.92077 -2.554,-4.23005 -4.51648,-8.81503 -17.49455,-6.79064 z m -14.38697,-19.45118 c -1.40383,3.84158 -1.12989,6.90418 5.98498,6.79065 4.41176,-6.94769 6.97515,-8.76105 8.63218,-8.0567 -3.76482,-3.59917 -10.12857,-3.54693 -14.61716,1.26605 z m -25.86776,-10.13776 c 1.80859,4.47024 5.47947,3.35364 9.07817,2.45356 0.53943,-3.76206 1.97099,-7.3011 4.96156,-10.45037 -3.43224,-2.42641 -13.42934,1.49161 -14.03973,7.99681 z"
           transform="translate(6.4528995,81.9066)"
           id="path3399"
           style="fill:#ffffff;fill-opacity:1;fill-rule:evenodd;stroke:none" />
        <g
           id="g3406">
          <path
             d="m -464.45335,209.9066 c -1.03351,0 -1.875,1.97445 -1.875,4.40625 0,2.4318 0.84149,4.40625 1.875,4.40625 1.03351,0 1.875,-1.97445 1.875,-4.40625 0,-2.4318 -0.84149,-4.40625 -1.875,-4.40625 z m 8.5625,-0.0937 c -0.1747,-0.23767 -1.74212,-0.46965 -1.95441,0.3098 1.08472,11.7495 -9.59301,18.29015 -15.85809,4.84645 l -5.28125,4.84375 c 5.39821,15.38932 28.91387,7.4548 23.09375,-10 z m -86.0625,-29.8438 c -8.77987,27.32161 2.76842,38.65227 1.875,41.5 1.5464,5.35683 -2.12489,4.42429 -2.65625,3.40625 -0.96376,-4.91004 -2.2904,-5.57129 -3.53125,-7.15625 -7.86485,20.30447 -4.51884,39.15474 -1.53125,58.03125 6.87723,23.99638 -1.10834,44.97085 -8.25,54.8125 -5.67652,5.67552 -8.42732,10.62388 -11.90625,15.75 l 0.15625,489.46875 c 6.50177,9.21577 16.32156,14.15452 27.84375,16.84375 8.86431,7.57109 15.28852,17.18662 30.21875,19.625 0.67302,-6.17704 4.79755,-9.25885 9.96875,-11.4375 1.01745,-4.9824 -1.9778,-9.97441 -22.67673,-14.90625 -4.82415,-2.70664 -4.87303,-2.16953 -5.27886,-7.55233 11.16445,9.87869 17.93274,2.2333 26.76809,13.95858 1.88037,1.76858 2.96277,0.85427 3.84375,-0.875 -1.01221,-6.93452 4.54397,-8.9637 6.875,-13.25 -6.14351,-15.49244 -25.68226,0.39564 -28.55233,-15.75239 0.25511,-2.58058 -0.67434,-2.7974 0.42195,-2.18152 8.62514,12.20217 19.79295,1.07603 27.5625,11 4.3779,4.32384 6.80097,2.24538 7.69288,-1.84734 -6.11582,-6.75944 -3.42514,-11.21496 -0.15625,-15.5 -4.41234,-7.71529 -29.43029,5.34898 -33.9375,-3.875 8.99213,-0.86096 20.47313,-1.21474 22.03125,-3.5625 14.44025,-0.15612 14.29533,-4.1536 14,-8.1875 -9.1217,-5.45644 -6.70757,-8.97864 -6.84375,-12.9375 -9.17263,-4.93072 -8.81366,11.03631 -18.77345,11.1328 -3.35332,-0.24049 -4.588,-0.15091 -20.22655,8.0547 -5.93132,3.17095 -10.76783,2.57299 -13.53125,-5.34375 -3.96875,-17.91119 -8.05968,-35.83881 -12.8125,-53.75 -2.89929,-8.51706 -2.8349,-17.19594 9.21875,-26.5 12.49245,-11.3639 31.19848,-30.69434 30.9375,-66.375 -0.13906,-19.01187 -3.25627,-39.29775 -18.875,-57.90625 -10.89109,-8.18532 -16.39228,-25.77367 -9.8125,-34.8125 2.80654,4.75793 -1.72694,16.17679 10.25,28.5625 4.08869,4.48993 6.52703,2.92395 9.53125,3.4375 -0.99915,-11.64053 8.03935,-19.67771 4.46875,-25.46875 -2.62986,-1.04554 -5.19967,-1.24119 -7.4375,3.59375 -0.71962,-1.84538 -2.16318,-2.52964 0.90625,-10.4375 9.69175,-23.40365 22.13168,-37.38029 34.53125,-51.5 -3.84727,2.23104 -8.43358,3.88803 -10.4375,7.59375 -1.29523,-7.29782 1.74334,-12.26728 11.90625,-15.3125 17.03413,-6.36059 29.5852,-20.66867 41.53125,-36.03125 -30.60314,1.81127 -25.17023,-28.85487 -53.4375,-33.5 34.33137,-3.28246 29.26922,27.28457 56.28125,29.1875 28.09355,-2.41794 51.37355,5.84711 74.40625,14.71875 18.84693,2.09561 36.20325,-1.0944 52.25,0.75 1.94722,-0.60126 3.17954,-2.84565 6.84375,-2.53125 7.92773,4.67243 6.70838,12.4058 20.15318,19.96038 16.0926,7.28355 8.55813,19.13092 22.87807,19.03962 -3.05234,-9.70955 6.3907,-14.48487 10.73327,-13.92145 2.09737,-3.84474 -1.05872,-7.18609 -3.45202,-7.18528 -7.61319,-3.38353 -12.51576,-9.57511 -24.40625,-7.61202 8.63593,-11.98562 18.97752,8.03868 31.6875,2.375 -5.64985,-6.90464 -6.76741,-13.22817 3,-18.15625 -1.21491,-3.98557 -2.48057,-8.01891 -18.15625,-2.96875 -3.91043,-2.8744 -8.89619,-3.23079 -14,-3.28125 0.68588,-3.73952 7.25503,-3.0042 14.59375,-1.65625 9.42663,0.79363 16.33052,-0.1605 17.84375,-4.90625 -6.73969,-5.55421 -6.12643,-9.22663 -3.28125,-12.34375 -8.69648,-13.58091 -19.43374,9.24862 -33.03125,2.375 12.4774,-1.90135 17.81167,-11.2248 30.65625,-10.28125 1.17357,-1.95141 1.1206,-3.63243 0.3125,-5.1875 -7.66886,0.21751 -8.5142,-5.16146 -9.84375,-10.125 -3.33969,-2.84256 -8.60314,2.13993 -13.84375,7.28125 -5.65754,2.08188 -11.01032,4.201 -17.84375,10.5625 -8.76917,4.9375 -12.70948,3.20947 -10.875,-3.5625 -4.3467,-4.02964 -1.89777,-7.48553 -1.9375,-11.15625 -4.09331,2.84296 -6.65827,5.98173 -8.78125,9.21875 -2.48077,2.03872 -5.39423,2.75328 -7.875,1.78125 -9.33237,-3.07879 -20.82988,-6.20876 -35.71875,-6.6875 -18.52615,-5.21472 -33.8716,-23.17854 -54.1875,-29.3125 -10.62172,-6.89455 -17.86634,-15.48642 -22.9375,-25.15625 4.72901,-0.26799 8.51135,8.76328 13.25,9.65625 -2.52846,-11.1448 -6.73193,-21.28647 -15.1875,-28.875 -14.5095,-13.68752 -21.73501,-31.27859 -25.15625,-50.90625 -14.29327,-1.87768 -17.69695,-16.2191 -28.125,-22.3125 1.61068,-0.99979 2.69203,-2.9869 6.5625,0.15625 6.40661,6.27457 10.23593,14.73272 21.71875,16.65625 30.09929,-4.04551 33.78889,7.35475 47.9375,5.5 4.63323,-2.9986 1.17932,-10.53483 6.5625,-15.46875 1.43671,-4.80408 -2.75196,-5.61806 -6.71875,-6.5625 -12.96188,-0.31033 -20.32794,7.96532 -33.0625,4.15625 -9.08156,-2.34678 -11.23803,-10.5132 -6.25,-21.90625 6.07984,-14.12416 19.23741,-18.27203 31.375,-15.40625 5.44921,0.84626 9.77701,3.56659 18.8125,-1.65625 8.4663,-6.26437 11.93256,-15.3961 10.125,-27.53125 -2.3123,-2.97102 -5.65678,-4.11434 -9.125,-5.0625 -2.67696,-2.73498 -0.0352,-4.61215 2.1875,-3.53125 3.60295,1.27863 5.87096,3.62975 8.03125,6.0625 2.82328,-0.66879 3.81501,-4.0759 2.4375,-6.8125 -4.50086,-3.86531 -9.90408,-5.86793 -16.75,-4.75 -11.82462,2.65373 -25.42226,4.36958 -41.0625,4.96875 -1.33388,3.52253 -0.86185,7.03997 0.4375,10.5625 3.70992,5.12065 2.63706,12.85593 -6.03125,19.03125 -2.94225,-0.0102 -1.97836,-1.79288 -1.875,-3.1875 3.38895,-4.77389 8.81821,-8.03729 7.03125,-16.625 -2.05301,9.67544 -10.07109,13.12451 -15.625,13.4375 -8.87619,0.0509 -14.07147,-6.09434 -14.625,-9.46875 -6.72537,3.17496 -9.05515,3.11891 -10.25,2.21875 10.2051,-4.20884 14.53248,-11.58872 21.34375,-17.625 2.18372,-1.08761 3.70665,-2.28072 7.8125,-3.09375 6.14889,-0.90179 11.36216,-0.85926 15.75,0 1.17712,-4.70817 -1.35506,-10.64391 -9.03125,-10.125 -6.77681,0.19486 -10.87123,3.06335 -15.40625,5.5 -18.23421,-7.75424 -31.71067,-6.0955 -44.34375,-4.15625 1.97763,2.62874 3.63398,5.35162 4.15625,8.5625 -0.15268,2.47622 -2.94778,5.82643 -5.28125,2.4375 -2.68571,-7.44574 -14.15395,-23.31397 -24.96875,-25.875 z m 2.84375,6.78125 c 0.40413,0.002 0.89233,0.2941 1.4375,0.71875 2.68673,7.90327 1.77399,15.11637 8.6875,20.90625 2.3682,4.70714 -1.82918,13.81733 -6.6875,8.46875 -3.1665,-8.62781 -4.83039,-16.37425 -4.53125,-27.3125 -0.009,-2.04366 0.4202,-2.78425 1.09375,-2.78125 z m 78.03125,251.3125 c 1.88985,-0.1609 4.77259,1.39963 7.09375,3.90625 5.06958,5.58062 11.4403,6.76826 19.625,7.84375 9.28108,1.23111 7.71215,3.25151 9.75,5 -5.17476,-0.62079 -10.27339,-1.92375 -17.375,-1.71875 -6.60439,-0.65652 -10.38989,-1.77144 -12.4375,-4.21875 -2.68044,-3.14664 -4.27624,-6.29086 -8.46875,-9.4375 0.30211,-0.85289 0.95348,-1.3019 1.8125,-1.375 z"
             id="path3321"
             style="fill:#ffffff;stroke:none" />
        </g>
        <g
           id="g3417">
          <path
             d="m -526.96842,479.666 c 3.80961,-7.9142 7.75891,-15.6538 12.78273,-22.05023 3.82737,7.51358 9.52056,14.09426 20.13282,18.2154 21.61152,6.39428 33.39689,15.05614 44.10045,23.96764 -1.42789,15.63833 -12.48163,59.05253 -43.78088,84.68565 -6.51146,-4.97265 -13.45015,-8.41536 -21.64203,-9.18696 2.7885,-15.35323 -2.45772,-36.60784 -14.14964,-60.47897 4.6467,-0.20529 5.21879,-4.9725 5.92949,-10.02209 0.44603,-3.5723 -0.16116,-6.16336 4.2967,-12.02814 0.14623,-8.28647 -1.67605,-13.71857 -7.66964,-13.1023 z"
             transform="translate(6.4528995,81.9066)"
             id="path3403"
             style="fill:#ffffff;fill-opacity:1;fill-rule:evenodd;stroke:none" />
          <path
             d="m -519.64315,604.77641 c -3.32669,10.58573 -8.74446,18.73188 -15.91141,24.83731 69.91223,-19.28773 103.22577,-67.0411 104.00625,-140.09797 1.90626,-11.63057 1.31549,-24.65948 13.97099,-30.27047 8.3393,-1.09508 11.2791,3.20933 12.41865,9.31399 13.5484,0.4306 9.94093,-19.27374 7.76166,-18.62799 8.62921,-2.24974 14.68621,0.3742 14.74716,14.35907 20.6194,-2.01892 16.74796,-37.96283 -6.98549,-40.36063 1.92255,-2.3419 6.23026,-2.89492 13.5829,-1.16425 -5.59663,-14.96581 -27.14957,-13.75604 -41.1368,-8.92591 -2.98223,-6.44035 -7.66197,-6.09064 -12.41866,-5.43316 2.26478,5.49789 1.76906,10.86432 -5.43316,15.9114 -18.04439,9.27919 -17.42719,30.4668 -12.41865,43.07722 4.28514,11.87478 2.77892,20.59065 2.32849,29.88239 -13.30318,72.35448 -46.55958,94.77219 -74.51193,107.499 z"
             transform="translate(6.4528995,81.9066)"
             id="path3414"
             style="fill:#ffffff;fill-opacity:1;fill-rule:evenodd;stroke:none" />
        </g>
        <path
           d="m -334.53835,706.46324 c 11.52383,4.8798 13.36744,11.21163 10.87662,18.19362 -4.49687,-6.55412 -9.72316,-4.11284 -12.65643,-7.38292 -0.71411,-4.05831 -1.45013,-8.12424 1.77981,-10.8107 z m 3.42778,-14.56807 c -3.66017,-3.42089 -3.80228,-7.61136 -1.84573,-12.26091 7.87845,0.10031 16.16541,5.22037 16.41381,12.19499 -9.20383,-2.87656 -10.03928,-0.1742 -14.56808,0.0659 z m -6.46005,-35.06885 c 10.5983,-3.80988 18.33594,0.82832 18.39137,5.80086 -7.0356,-2.66724 -10.28815,2.23164 -15.29318,3.62554 -2.27879,-2.62905 -3.79116,-5.57368 -3.09819,-9.4264 z m -14.20777,-16.33211 c -1.05721,4.49182 2.56375,6.00663 5.15491,8.17676 3.73996,-8.26375 9.47561,-4.886 14.22045,-7.28798 -6.67449,-6.12938 -13.04789,-4.12903 -19.37536,-0.88878 z m -72.6318,-446.0411 c 0.71289,-2.39315 1.81054,-5.86184 2.6818,-9.41747 2.20071,2.70166 1.28319,6.61706 1.43445,9.79167 z m 0.49347,-24.82305 c 1.86434,-0.27451 2.50853,-0.69793 4.85618,0.76729 -0.23489,4.53852 -0.37868,9.8262 -4.30062,13.30504 0.54179,-6.31126 0.32348,-10.12912 -0.55556,-14.07233 z m -60.42956,543.03009 c -5.05105,0.74261 -6.15181,-8.35202 -3.57231,-8.78194 8.23484,-2.26616 12.49951,0.13848 13.99156,5.80501 -6.16483,-0.8346 -8.04513,1.23874 -10.41925,2.97693 z m -2.08385,32.59737 c -4.37167,-3.85485 -3.85448,-7.95414 -0.29769,-12.20541 9.79376,0.35432 14.41737,4.95555 13.09848,14.43811 -5.95304,-5.80258 -8.61202,-1.72293 -12.80079,-2.2327 z m -8.93079,15.33118 c 4.59114,4.75141 14.19798,6.88593 10.5681,15.92657 -6.25121,-7.95354 -9.87358,-4.56504 -14.88464,-7.14463 -0.40046,-3.48442 0.74964,-6.88447 4.31654,-8.78194 z m -10.12155,23.0712 c -6.47336,1.16645 -5.86117,4.84359 -6.69809,7.88886 4.54462,1.94579 9.56177,2.18575 13.39618,8.03771 2.72889,-6.33977 -1.99661,-12.67618 -6.69809,-15.92657 z"
           transform="translate(6.4528995,81.9066)"
           id="path4196"
           style="fill:#ffffff;stroke:none" />
        <path
           d="m -447.71252,681.45374 c -4.83519,-3.99938 -6.18351,-9.01576 -16.66181,-11.36923 -5.23217,-1.7122 -11.28996,-3.82752 -16.17175,-13.23143 -1.8658,-3.22554 0.56915,-7.7165 4.90053,-4.50849 2.79541,1.54973 3.68014,5.01013 4.70451,8.3309 1.19394,5.27996 7.63516,5.64059 12.74138,7.25279 6.35644,1.99734 9.03484,5.14406 11.27122,8.42891 1.50797,4.27243 0.54511,4.9509 -0.78408,5.09655 z M -430.0778,518.1614 c -4.39943,37.48267 -21.1031,69.10618 -53.75972,93.13304 0.29033,4.02406 1.56993,7.67715 -3.28111,13.62923 -5.86869,8.67369 -5.47525,19.85223 -1.26197,32.55871 5.22605,9.3094 8.3265,21.79077 21.20102,19.68666 6.57201,1.19826 12.9847,2.52045 13.62923,8.32897 7.0747,9.38002 17.25041,16.10204 29.0252,21.45341 2.27154,1.30487 4.54307,1.67935 6.81461,6.81461 0.4891,4.46941 1.57728,8.53943 6.05744,10.34812 1.10051,-5.23282 0.0762,-14.00695 6.81461,-9.84333 7.81374,0.22737 15.1514,0.75229 17.66751,4.29068 2.84478,3.85574 7.26678,3.50555 12.11487,2.01914 6.09324,-0.69634 13.0267,-3.91334 17.91991,-1.00957 2.4398,1.20711 4.8796,2.24544 7.3194,-0.50478 4.21358,8.93247 12.76535,5.69609 11.61008,1.76675 -6.94539,-7.19201 -3.86758,-11.25176 -0.25239,-15.14359 -4.89161,-5.48657 -9.33467,-12.26273 -19.43427,-2.77632 -2.19679,1.58911 -4.76886,2.80293 -9.08615,2.27154 -0.9799,-0.83919 -2.15379,-1.69224 0.50479,-2.27154 8.91789,-2.28163 17.83577,-16.36493 26.75366,-6.30983 3.6248,3.42867 5.7383,0.85992 6.30983,-3.28111 -5.3677,-4.16766 -5.13568,-8.91461 -2.77632,-13.88162 -3.39801,-4.0422 -7.04588,-7.30146 -14.38641,1.00958 -3.37136,5.49319 -8.20568,9.81817 -18.42469,9.84333 -0.95725,-1.23035 -1.68537,-2.52318 0.25239,-4.54308 12.96631,1.30715 14.46486,-13.21766 25.99649,-15.90076 2.84109,0.21012 5.37842,0.16322 4.79546,-2.52393 -4.53592,-2.16816 -3.77637,-5.66019 -4.29068,-8.83376 -5.15078,-5.41618 -15.52892,3.16822 -18.92948,9.84333 -0.95541,5.90908 -3.50363,8.40501 -6.30983,10.34811 -0.86419,-0.16066 -3.58398,1.09767 -0.25239,-2.27153 5.05637,-5.28943 2.56366,-17.64552 16.15316,-20.94863 5.02644,-0.007 4.56807,-1.92266 3.5335,-4.03829 -4.65405,-2.63618 -6.70978,-5.42519 -6.81461,-8.32897 -1.85394,-1.66548 -3.65905,-3.60449 -6.81462,2.01915 -4.09084,4.52954 -6.59409,8.37868 -8.83375,12.11486 -2.47863,4.91508 -2.21582,9.58313 -2.01915,13.62923 -1.0663,9.54658 -15.09765,13.32515 -19.43426,11.61008 -2.14922,-0.12054 -11.15936,-4.8779 -15.39598,-11.80807 -5.13199,-6.27903 -10.26399,-10.54384 -15.39598,-14.44081 -18.99162,-18.47284 -10.01761,-40.88744 -0.61078,-55.32569 14.92051,-25.54651 5.40915,-65.63024 -6.70862,-82.73332 z"
           transform="translate(6.4528995,81.9066)"
           id="path4202"
           style="fill:#ffffff;stroke:none" />
      </g>
    </g>
  </g>
</svg>
