<?xml version="1.0" encoding="UTF-8" standalone="no"?>
<!-- Created with Inkscape (http://www.inkscape.org/) -->
<svg
   xmlns:dc="http://purl.org/dc/elements/1.1/"
   xmlns:cc="http://web.resource.org/cc/"
   xmlns:rdf="http://www.w3.org/1999/02/22-rdf-syntax-ns#"
   xmlns:svg="http://www.w3.org/2000/svg"
   xmlns="http://www.w3.org/2000/svg"
   xmlns:sodipodi="http://sodipodi.sourceforge.net/DTD/sodipodi-0.dtd"
   xmlns:inkscape="http://www.inkscape.org/namespaces/inkscape"
   height="912.34869"
   width="745.29761"
   id="svg2122"
   sodipodi:version="0.32"
   inkscape:version="0.44"
   version="1.0"
   sodipodi:docbase="E:\Inkscape - rysunki\WIKIPEDIA\Grafiki SVG"
   sodipodi:docname="POL_powiat_lubelski_COA.svg">
  <defs
     id="defs2124" />
  <sodipodi:namedview
     id="base"
     pagecolor="#ffffff"
     bordercolor="#666666"
     borderopacity="1.0"
     inkscape:pageopacity="0.0"
     inkscape:pageshadow="2"
     inkscape:cx="375"
     inkscape:cy="520"
     inkscape:zoom="0.35"
     inkscape:document-units="px"
     inkscape:current-layer="layer1"
     inkscape:window-width="888"
     inkscape:window-height="573"
     inkscape:window-x="44"
     inkscape:window-y="58" />
  <metadata
     id="metadata2127">
    <rdf:RDF>
      <cc:Work
         rdf:about="">
        <dc:format>image/svg+xml</dc:format>
        <dc:type
           rdf:resource="http://purl.org/dc/dcmitype/StillImage" />
      </cc:Work>
    </rdf:RDF>
  </metadata>
  <g
     inkscape:groupmode="layer"
     inkscape:label="Warstwa 1"
     id="layer1"
     transform="translate(1.220243,-4.759229)">
    <g
       id="g2104"
       transform="translate(-1.220243,4.759229)">
      <g
         style="fill:red"
         transform="translate(-4.319467,-4.80024)"
         inkscape:label="Warstwa 1"
         id="g2131">
        <path
           sodipodi:nodetypes="cccccc"
           id="path4304"
           d="M 10.204572,10.685345 L 743.73197,10.685345 L 743.73197,599.09766 C 736.44318,798.54823 546.26939,914.50786 375.97443,911.19472 C 222.24505,908.54422 16.830772,776.68156 10.204572,599.09766 L 10.204572,10.685345 z "
           style="fill:red;fill-opacity:1;fill-rule:evenodd;stroke:black;stroke-width:11.77021027;stroke-linecap:round;stroke-linejoin:miter;stroke-miterlimit:4;stroke-dasharray:none;stroke-dashoffset:0;stroke-opacity:1" />
      </g>
      <g
         transform="matrix(0.976439,0,0,0.976439,206.1333,378.0802)"
         id="g3024">
        <path
           id="path1877"
           style="fill:black;fill-opacity:0.99572646;fill-rule:evenodd;stroke:none;stroke-width:1.41732287;stroke-linecap:butt;stroke-linejoin:miter;stroke-miterlimit:4;stroke-opacity:1"
           d="M 52.304654,-82.054359 C 25.373285,-85.135143 1.0854701,-89.537704 -20.165698,-95.458589 C -124.31809,-75.018234 -165.55507,-170.12376 -182.61226,-204.83927 C -184.90431,-217.25903 -174.11285,-219.65132 -165.26877,-213.03499 C -140.95076,-187.00032 -134.4337,-145.14258 -81.895425,-144.19259 C -84.631784,-204.99161 -109.25294,-250.73081 -129.54638,-262.23711 C -131.67592,-267.291 -134.28756,-272.34489 -127.38043,-277.39878 C -43.794978,-288.35017 -60.956727,-152.30811 -20.165698,-149.60744 C 28.489605,-176.52087 14.359371,-245.4957 -9.3359125,-286.06262 C -12.600258,-294.70323 -4.2668509,-300.10111 6.9087286,-295.80936 C 50.351487,-264.63398 62.795348,-211.75938 48.061854,-139.86063 C 109.46171,-154.05883 105.92164,-250.31815 89.215055,-296.89233 C 85.030502,-312.56627 97.961544,-324.57115 111.95752,-310.97111 C 165.69187,-238.61358 124.83684,-168.27942 126.03622,-146.35853 C 206.29996,-160.38574 137.13142,-283.18038 225.67016,-293.64342 C 239.87678,-295.65786 241.95221,-284.31263 236.49995,-273.48738 C 212.71236,-260.63024 208.39803,-231.1068 212.46419,-198.51992 C 229.23906,-236.21952 296.50696,-226.49795 344.79765,-282.81363 C 357.65834,-291.79394 360.09802,-281.42092 365.37425,-276.31581 C 376.61113,-284.97963 385.65767,-293.64344 394.61462,-302.30726 C 402.85854,-309.23262 415.46429,-306.54884 414.10818,-296.89233 C 407.34051,-265.40953 379.99877,-249.94142 394.6305,-221.27835 C 419.66346,-256.70444 454.44792,-289.14875 505.07827,-300.14132 C 512.42019,-300.65552 516.76492,-296.2993 514.82509,-281.73066 C 476.60986,-251.6819 403.4879,-211.32832 407.61035,-132.27983 C 435.49695,-105.75108 462.49666,-144.14475 474.75493,-162.60317 C 482.69677,-176.44653 496.31135,-172.84275 498.58045,-162.60317 C 487.30729,-106.58136 456.85643,-82.750677 413.02521,-81.37989 C 416.09717,-46.537809 483.11347,14.646162 473.67196,-79.213948 C 474.51986,-94.352334 490.90614,-91.806352 497.49748,-86.794745 C 519.37058,-37.887682 506.52916,6.2722333 476.04814,18.238167 C 427.46753,27.375423 386.98738,-40.969793 365.37425,-66.21822 C 333.09702,-38.848647 307.26871,-35.432188 283.06793,-38.060822 L 331.80193,-4.4884938 C 338.03766,6.2539001 335.94813,14.22121 331.80193,21.502962 C 290.28781,47.782526 248.7737,39.919375 207.25958,39.913545 L 274.40416,269.50476 C 281.19465,267.97323 287.11769,269.91147 292.81474,272.75368 C 291.78917,248.71749 319.68322,232.07705 345.88062,246.76222 C 364.2204,263.00689 359.33407,289.17365 348.04657,295.49622 C 369.90929,309.05442 360.24856,340.19371 348.04657,347.47913 C 332.51479,358.55486 314.77003,353.38552 303.64453,345.31319 C 284.70478,368.47109 277.66451,400.55359 266.82329,429.78538 C 183.91384,415.88041 99.621417,413.96116 13.40663,428.70241 C 7.1748766,394.32088 2.672286,358.82047 -19.082727,334.4834 C -31.610845,355.08778 -59.100072,350.19888 -69.982668,335.56637 C -79.975938,322.69151 -76.784916,302.13099 -64.567737,294.41325 C -83.50342,280.09744 -81.289618,257.6872 -65.331366,243.85055 C -48.8406,233.57769 -24.184271,239.72998 -16.206682,265.49222 C -9.1848164,258.96739 6.5895142,256.95552 17.010594,266.20232 C 31.239499,223.71995 39.444295,174.75445 37.232144,122.21987 C 39.349373,103.17896 29.923844,88.755153 3.6598154,81.066746 C -22.683927,76.56085 -47.565608,71.366925 -58.069911,59.407175 C -107.49391,61.818963 -121.88678,34.918995 -125.21449,-1.2395806 C -133.64577,-10.098707 -128.76916,-38.547016 -105.72086,-40.226764 C -68.691729,-41.169431 -24.187857,-56.71275 13.40663,-57.554376 C 25.855157,-68.825921 38.911123,-76.452837 52.304654,-82.054359 z M 359.1283,-266.80112 C 357.094,-196.32202 322.77301,-100.08173 247.41889,-113.20068 C 232.41877,-225.57377 309.37167,-175.02456 359.1283,-266.80112 z M 171.92777,-52.545956 C 173.07319,-67.38253 202.13523,-80.96729 202.47331,-79.164215 C 224.49837,-70.537565 238.08787,-59.500756 252.21891,-48.618673 C 222.23037,-55.732459 196.11333,-55.877536 171.92777,-52.545956 z " />
        <g
           id="g3012">
          <g
             id="g2953">
            <path
               style="fill:yellow;fill-opacity:0.99572646;fill-rule:evenodd;stroke:none;stroke-width:1px;stroke-linecap:butt;stroke-linejoin:miter;stroke-opacity:1"
               d="M 4.9891454,-290.85178 C 0.043268927,-296.12119 -8.7481012,-295.60031 -3.7418591,-284.61535 C 16.887737,-244.5747 32.86669,-179.12432 -15.583875,-145.56453 C 1.7925057,-134.82797 21.247151,-131.78802 43.655023,-141.17742 C 50.675977,-194.72573 57.953538,-248.32118 4.9891454,-290.85178 z "
               id="path2056"
               sodipodi:nodetypes="ccccc" />
            <path
               style="fill:yellow;fill-opacity:0.99572646;fill-rule:evenodd;stroke:none;stroke-width:1px;stroke-linecap:butt;stroke-linejoin:miter;stroke-opacity:1"
               d="M -78.579041,-140.55751 C -64.270899,-124.89324 -48.854439,-109.8623 -25.879325,-99.150593 C -108.36049,-84.530075 -151.20966,-150.12976 -177.86154,-199.84469 C -181.67628,-207.12291 -177.88658,-219.06558 -166.09821,-208.31429 C -142.63879,-181.80057 -138.58312,-141.94678 -78.579041,-140.55751 z "
               id="path2058"
               sodipodi:nodetypes="ccccc" />
            <path
               style="fill:yellow;fill-opacity:0.99572646;fill-rule:evenodd;stroke:none;stroke-width:1px;stroke-linecap:butt;stroke-linejoin:miter;stroke-opacity:1"
               d="M 224.91486,-289.246 C 232.76587,-292.00617 240.55595,-283.95506 229.62019,-275.13 C 202.334,-257.7179 203.93313,-225.86315 206.09353,-193.72776 C 204.51534,-170.35589 181.73451,-142.52031 156.68755,-114.20765 C 133.48766,-110.70139 120.04297,-116.5262 125.63236,-140.55751 C 154.46371,-142.73124 172.86205,-167.41831 177.86154,-221.01869 C 179.34897,-269.1663 199.79423,-283.38938 224.91486,-289.246 z "
               id="path2060"
               sodipodi:nodetypes="ccccccc" />
            <path
               style="fill:yellow;fill-opacity:0.99572646;fill-rule:evenodd;stroke:none;stroke-width:1px;stroke-linecap:butt;stroke-linejoin:miter;stroke-opacity:1"
               d="M 398.5416,-301.47986 C 404.8197,-305.6411 411.43752,-301.71493 407.95226,-290.6576 C 400.63784,-270.489 385.02346,-265.42921 386.30774,-217.72495 C 380.98422,-207.98867 368.96738,-123.77321 311.49296,-91.151529 C 283.14813,-79.450718 259.91606,-93.837122 253.61738,-105.26752 C 325.62757,-108.85927 345.56299,-165.63377 359.48735,-228.54722 C 361.91249,-255.50634 371.14391,-280.76388 398.5416,-301.47986 z "
               id="path2062"
               sodipodi:nodetypes="ccccccc" />
            <path
               style="fill:yellow;fill-opacity:0.99572646;fill-rule:evenodd;stroke:none;stroke-width:1px;stroke-linecap:butt;stroke-linejoin:miter;stroke-opacity:1"
               d="M 404.65853,-128.32365 C 400.90166,-113.73712 403.39638,-99.150593 412.18706,-84.564065 C 456.86183,-86.742116 484.2041,-112.03016 495.0009,-159.37884 C 495.78512,-170.51483 484.64917,-171.61266 478.53224,-162.67257 C 458.97009,-137.93408 443.35606,-102.83178 404.65853,-128.32365 z "
               id="path2064"
               sodipodi:nodetypes="ccccc" />
            <path
               style="fill:yellow;fill-opacity:1;fill-rule:evenodd;stroke:none;stroke-width:1px;stroke-linecap:butt;stroke-linejoin:miter;stroke-opacity:1"
               d="M -116.50706,-272.52127 C -130.78986,-271.37433 -125.7898,-267.01359 -120.82214,-262.65824 C -101.38438,-244.7247 -86.630232,-211.95972 -77.054935,-162.79504 C -76.912,-123.41673 -24.41984,-98.562791 28.972656,-90.67162 C 111.03656,-81.817402 131.78548,-70.848874 169.52086,-60.466086 C 175.38335,-71.199247 186.46741,-79.321629 202.19215,-85.123665 C 231.55414,-84.698243 282.49072,6.123818 366.16506,-73.411315 C 390.75441,-44.184558 413.644,6.3585944 466.02825,13.506652 C 506.83572,7.9547183 505.98899,-40.674432 497.46666,-79.57571 C 489.80333,-89.854073 477.76867,-90.19517 477.12416,-76.493512 C 486.36711,12.187876 421.61119,-29.118856 405.00074,-80.808589 C 396.19891,-104.23329 396.13345,-118.4114 396.98702,-141.8361 C 407.30366,-197.91968 445.727,-244.51636 509.79545,-283.61718 C 514.8879,-290.93665 511.84711,-294.77046 505.48037,-297.17885 C 463.83334,-281.77722 420.46335,-256.74993 390.20619,-207.17868 C 364.80191,-121.46427 309.44217,-35.998695 242.87716,-108.54837 C 223.15283,-229.44766 321.50465,-188.3355 355.06914,-268.82263 C 358.28335,-283.8812 352.21989,-284.69952 347.05543,-278.68566 C 287.82472,-212.7754 228.53939,-234.09802 215.75382,-191.76769 C 197.79205,-150.30323 178.6389,-126.70951 159.04138,-109.78125 C 124.93173,-104.02781 114.65775,-114.50728 118.35638,-144.91829 C 139.7814,-202.9977 145.54407,-250.59433 108.49335,-307.65832 C 90.760074,-313.88649 94.268528,-304.66613 93.698801,-298.41172 C 132.86385,-161.68319 60.949133,-106.50803 -19.726063,-140.60322 C -65.007293,-156.67524 -51.380541,-270.13477 -116.50706,-272.52127 z "
               id="path2951"
               sodipodi:nodetypes="ccccccccccccccccccccccccc" />
          </g>
          <path
             sodipodi:nodetypes="csscsssccssssccsscssscssccccsscssscssccsssccsscsc"
             id="path2961"
             d="M 135.8125,203.21875 C 130.96898,203.20972 126.10591,204.50094 121.71875,207.21875 C 108.95609,215.12515 105.16117,232.13032 113.25,245.1875 C 113.30614,245.27813 113.34926,245.37899 113.40625,245.46875 C 106.71601,244.0377 99.557511,245.04497 93.375,248.875 C 80.415992,256.903 76.634966,274.27328 84.90625,287.625 C 93.17753,300.9767 110.41599,305.30927 123.375,297.28125 C 124.57402,296.53846 125.67922,295.70463 126.71875,294.8125 C 130.65748,335.50104 82.314516,345.13836 67.71875,306.90625 C 73.421737,303.68917 77.3125,297.47425 77.3125,290.34375 C 77.3125,279.91316 69.03728,271.4375 58.84375,271.4375 C 48.650219,271.4375 40.374999,279.91316 40.375,290.34375 C 40.375,300.77434 48.650219,309.24999 58.84375,309.25 C 59.599867,309.25 60.330109,309.18425 61.0625,309.09375 C 62.844961,349.63883 16.603457,355.22109 -0.6875,319.625 C 14.114479,319.31541 26.03125,306.82426 26.03125,291.5 C 26.03125,275.98185 13.811736,263.375 -1.25,263.375 C -8.4357031,263.375 -14.969066,266.25443 -19.84375,270.9375 C -19.842593,270.83244 -19.84375,270.73034 -19.84375,270.625 C -19.84375,255.44917 -31.885224,243.12501 -46.71875,243.125 C -61.552278,243.125 -73.593747,255.44918 -73.59375,270.625 C -73.59375,281.13487 -67.821223,290.28028 -59.34375,294.90625 C -66.213958,299.78758 -70.687499,307.74434 -70.6875,316.71875 C -70.6875,331.55228 -58.467986,343.59374 -43.40625,343.59375 C -31.975128,343.59375 -22.182456,336.67221 -18.125,326.84375 C -8.2205891,336.48878 -2.78001,349.70546 4.28125,361.625 C 101.70379,345.63049 197.03736,343.40871 280.875,368.5 C 287.10236,353.33442 295.22058,342.41568 304.78125,334.75 C 310.20013,344.67013 321.59651,350.59371 333.53125,348.625 C 348.57218,346.14392 358.78723,332.09426 356.34375,317.28125 C 354.86542,308.31924 349.07106,301.11785 341.40625,297.375 C 349.10999,291.35894 353.3875,281.27659 351.65625,270.78125 C 349.15636,255.62641 335.09426,245.30652 320.28125,247.75 C 305.46822,250.19351 295.46888,264.47015 297.96875,279.625 C 297.9861,279.73019 298.01278,279.83278 298.03125,279.9375 C 292.39189,276.06389 285.39452,274.2538 278.21875,275.4375 C 263.17784,277.91858 253.03748,292.53455 255.59375,308.03125 C 257.99906,322.61278 270.78043,332.8476 284.8125,331.9375 C 268.28785,362.2807 212.2074,340.18989 222,303.1875 C 231.80373,302.73718 239.625,294.48595 239.625,284.34375 C 239.625,273.91316 231.34977,265.4375 221.15625,265.4375 C 210.96272,265.4375 202.6875,273.91316 202.6875,284.34375 C 202.6875,291.18399 206.2696,297.15201 211.59375,300.46875 C 195.50733,344.90127 148.27853,329.93013 145.1875,296.59375 C 153.48313,300.84648 163.81582,300.7592 172.40625,295.4375 C 185.36527,287.40949 189.46886,270.51267 181.5625,257.75 C 176.77908,250.02848 168.66912,245.56922 160.15625,245.03125 C 164.98454,236.53253 165.10183,225.60513 159.5,216.5625 C 154.19171,207.99374 145.05922,203.23598 135.8125,203.21875 z "
             style="opacity:1;fill:yellow;fill-opacity:1;fill-rule:evenodd;stroke:none;stroke-width:2.11181092;stroke-linecap:round;stroke-linejoin:miter;stroke-miterlimit:4;stroke-dasharray:none;stroke-dashoffset:0;stroke-opacity:1" />
          <path
             sodipodi:nodetypes="ccccc"
             id="path2979"
             d="M 5.944493,368.27185 C 99.488937,350.71462 190.65562,350.75284 278.54196,375.06556 L 263.68073,423.47072 C 176.85062,406.02809 96.842657,411.97568 17.833479,421.34768 C 14.680393,402.84583 11.325767,384.54551 5.944493,368.27185 z "
             style="fill:yellow;fill-opacity:1;fill-rule:evenodd;stroke:none;stroke-width:1px;stroke-linecap:butt;stroke-linejoin:miter;stroke-opacity:1" />
          <path
             sodipodi:nodetypes="ccccccccccccccccccccccccccccccccccccccccccccccccccccccccccccccccccsssc"
             d="M 62.025354,254.32076 C 72.760186,199.18711 69.20895,144.05346 51.274293,88.919811 C 29.610801,79.668118 13.985407,65.887852 9.9240566,43.434552 C -13.068001,30.845117 -46.591627,41.737345 -54.240615,17.797405 C -54.315259,12.094547 -50.85412,12.7561 -46.797572,14.489386 C -45.862918,34.328903 -7.6840029,26.750222 16.540094,39.299528 C 21.092796,58.682627 30.238677,78.006188 47.966274,79.822759 C 68.184055,89.64649 99.428746,86.788764 124.05071,78.995755 C 144.97518,65.967141 137.96936,37.04217 148.86085,35.164504 L 156.30389,36.818514 C 119.29858,117.63775 141.08991,142.55704 141.41781,196.43043 C 160.80011,202.44974 169.16926,216.6045 168.70896,240.26167 C 195.93013,247.82543 201.55719,306.95929 151.34186,302.28703 C 164.87468,334.01353 196.00306,325.38141 203.44316,302.28703 C 186.74218,286.15275 199.52204,255.86229 221.63726,258.45578 C 245.93764,260.99621 257.41072,298.09949 227.4263,307.24906 C 223.13802,325.3555 246.34945,351.0452 274.56557,337.02123 C 239.40492,323.67832 243.58457,286.39778 270.43054,265.89882 C 243.17995,198.31954 227.51058,102.61894 193.5191,33.510495 C 240.296,36.207169 288.80337,43.40305 325.01285,18.62441 C 333.44405,12.28404 332.22694,5.943671 327.49387,-0.39669851 C 276.64282,-48.340509 224.23742,-55.871284 171.18998,-46.708963 C 150.75553,-60.291041 63.127038,-100.74983 16.540094,-53.325001 C -25.88779,-50.530784 -60.915829,-37.463802 -105.8566,-35.130897 C -121.02137,-31.341212 -124.87102,-16.866203 -121.56969,-4.5317221 L -111.64564,30.202476 C -75.261846,25.158683 -63.499327,37.160388 -55.409316,51.704599 C -29.948235,85.688254 11.701869,54.585084 43.403717,105.03237 C 45.339285,159.06384 44.875555,214.04535 20.675118,265.89882 C 33.958796,279.05951 34.900197,315.85787 7.4430425,322.96215 C 21.163179,343.65541 48.880577,340.9219 56.236321,316.34611 C 22.460702,301.47823 35.85853,271.49611 57.89033,266.72583 C 86.227102,273.37693 83.890964,299.74411 74.430425,308.07606 C 91.266401,337.10943 118.33179,323.67288 119.91568,304.76804 C 79.626344,312.03802 54.823144,257.40445 104.20259,239.43467 C 99.165723,215.61753 110.35367,201.78489 133.97476,195.60342 C 132.75858,155.3964 121.7922,112.75182 136.45578,76.51474 C 124.27845,94.109583 90.869714,90.473014 59.54434,88.919811 C 76.072165,140.95526 78.575546,196.49682 68.641392,255.14776 L 62.025354,254.32076 z M -105.0296,13.662382 C -104.282,-13.471694 -111.19644,-19.904749 -89.31651,-24.265936 C -83.709088,-23.499991 -80.669856,-18.07838 -84.711034,-11.233596 C -92.257869,-9.0360584 -101.49691,-11.094544 -98.413562,14.489386 C -100.75211,17.81018 -103.09844,21.341129 -105.0296,13.662382 z M 300.28078,6.6779886 C 260.80517,-4.5299587 238.62786,-31.263459 193.82969,-31.910531 C 175.34669,-34.279715 171.23056,-18.727379 162.33791,-7.9590359 C 162.27903,-2.2526686 165.09209,-3.2475244 168.54756,-5.7413049 C 194.02038,-16.292454 215.32251,4.8314703 194.71678,7.565081 L 198.26515,14.218274 C 215.9662,18.965437 212.87796,-11.907838 187.62004,-16.386414 C 183.91942,-18.456296 185.13649,-20.526178 188.50713,-22.59606 C 224.38696,-26.821911 257.86952,-1.2396384 294.51468,12.444089 C 300.0911,11.757854 301.79978,10.911932 300.28078,6.6779886 z M 7.0967392,-22.59606 C 28.584961,-20.668789 42.964832,-42.384989 67.419022,-38.563724 C 92.649708,-36.574718 98.026666,-14.909653 121.9752,-5.7413049 C 104.05787,-13.586971 87.643814,14.962085 59.878737,12.444089 C 32.15196,8.7688672 31.995712,-13.203845 7.0967392,-22.59606 z M 19.877,-20.429969 C 34.010036,-20.592777 46.656455,-39.095061 66.983964,-34.75919 C 87.379149,-30.757006 94.772108,-15.188634 107.90976,-9.2030576 C 97.065798,-7.6396523 81.329403,9.9183666 60.581522,8.5514484 C 39.866162,5.6878602 35.106847,-11.683949 19.877,-20.429969 z M 77.056035,-19.864267 C 76.696316,-11.455058 68.093055,-5.4221548 57.988593,-5.5248376 C 51.37832,-5.592012 39.845955,-13.408004 40.205674,-21.097776 C 40.514573,-27.70117 50.555858,-33.638612 57.166473,-33.638612 C 67.733994,-33.638612 77.415754,-28.992912 77.056035,-19.864267 z "
             style="fill:white;fill-opacity:1;fill-rule:evenodd;stroke:none;stroke-width:1px;stroke-linecap:butt;stroke-linejoin:miter;stroke-opacity:1"
             id="path2981" />
        </g>
        <path
           style="fill:white;fill-opacity:1;fill-rule:evenodd;stroke:black;stroke-width:1px;stroke-linecap:butt;stroke-linejoin:miter;stroke-opacity:1"
           d="M -109.55591,33.734307 C -89.009089,32.774305 -69.090731,33.210886 -58.991644,55.46807 C -84.424304,55.085806 -101.86116,48.306898 -109.55591,33.734307 z "
           id="path3002"
           sodipodi:nodetypes="ccc" />
      </g>
    </g>
  </g>
</svg>
