<?xml version="1.0" encoding="UTF-8" standalone="no"?>
<!-- Creator: CorelDRAW -->
<svg
   xmlns:dc="http://purl.org/dc/elements/1.1/"
   xmlns:cc="http://web.resource.org/cc/"
   xmlns:rdf="http://www.w3.org/1999/02/22-rdf-syntax-ns#"
   xmlns:svg="http://www.w3.org/2000/svg"
   xmlns="http://www.w3.org/2000/svg"
   xmlns:sodipodi="http://sodipodi.sourceforge.net/DTD/sodipodi-0.dtd"
   xmlns:inkscape="http://www.inkscape.org/namespaces/inkscape"
   xml:space="preserve"
   width="210mm"
   height="234mm"
   style="shape-rendering:geometricPrecision; text-rendering:geometricPrecision; image-rendering:optimizeQuality; fill-rule:evenodd; clip-rule:evenodd"
   viewBox="0 0 210 234"
   id="svg2"
   sodipodi:version="0.32"
   inkscape:version="0.44.1"
   sodipodi:docname="POL powiat łęczyński COA.svg"
   sodipodi:docbase="C:\Documents and Settings\Mistrz\Pulpit\SVG"><metadata
   id="metadata43"><rdf:RDF><cc:Work
       rdf:about=""><dc:format>image/svg+xml</dc:format><dc:type
         rdf:resource="http://purl.org/dc/dcmitype/StillImage" /></cc:Work></rdf:RDF></metadata><sodipodi:namedview
   inkscape:window-height="719"
   inkscape:window-width="1024"
   inkscape:pageshadow="2"
   inkscape:pageopacity="0.0"
   guidetolerance="10.0"
   gridtolerance="10.0"
   objecttolerance="10.0"
   borderopacity="1.0"
   bordercolor="#666666"
   pagecolor="#ffffff"
   id="base"
   inkscape:zoom="0.64473634"
   inkscape:cx="205.07747"
   inkscape:cy="442.44285"
   inkscape:window-x="-4"
   inkscape:window-y="-4"
   inkscape:current-layer="svg2" />
 <defs
   id="defs4">
  <style
   type="text/css"
   id="style6">
   
    .str1 {stroke:black;stroke-width:0.9906}
    .str0 {stroke:#1F1A17;stroke-width:1.9812}
    .fil3 {fill:none}
    .fil5 {fill:#0093DD}
    .fil4 {fill:#1F1A17}
    .fil0 {fill:#DA251D}
    .fil2 {fill:#F8C300}
    .fil1 {fill:white}
   
  </style>
 </defs>
 <g
   id="Warstwa_x0020_1"
   transform="matrix(0.990784,0,0,0.991378,0.954676,1.008769)">
  <metadata
   id="CorelCorpID_0Corel-Layer" />
  <g
   id="_102875040">
   <path
   id="_101726136"
   class="fil0 str0"
   d="M 209.816,0.0027 L 209.9724,126.5697 C 210.0662,194.1535 153.6474,235.3107 100.8874,233.9967 C 48.1277,232.6831 -0.0346,189.8686 0.0274,140.549 L 0.1837,0.19 L 209.8157,0.0023 L 209.816,0.0027 z "
   style="fill:#da251d;stroke:#1f1a17;stroke-width:1.98119998" />
   <path
   id="_102214064"
   class="fil1 str1"
   d="M 149.362,87.0547 C 157.1096,86.9182 165.213,84.154 172.6047,86.6281 C 176.5674,87.942 179.6406,92.8902 179.9317,97.2584 C 180.239,101.78 177.5056,106.5918 174.1251,109.3731 C 169.483,113.2122 162.3663,113.2976 156.8184,115.4304 C 156.1391,113.5364 155.6539,110.3286 155.7186,109.0148 C 160.3768,107.2573 165.1968,107.5644 169.4183,104.8514 C 172.8958,102.6161 173.5913,98.7258 170.1138,94.9207 C 167.7038,92.3101 160.2636,93.6069 148.9577,96.0981 C 158.5006,101.5412 154.1011,106.7283 156.689,115.3622 C 163.4985,116.8808 167.6391,119.3549 165.957,123.979 C 168.642,122.2727 170.7932,124.9174 173.9795,126.0265 C 176.6645,126.9479 179.9156,124.4226 180.2067,119.8839 C 183.2798,123.6548 182.1476,131.2137 177.4409,133.0224 C 169.9844,135.906 165.9085,130.7359 160.4253,136.6738 C 171.0843,132.8859 166.1834,142.9701 174.8206,138.2778 C 172.3783,143.9427 168.2214,147.4235 159.8754,144.1304 C 163.0941,146.9458 166.329,147.3894 169.5639,147.4747 C 165.9085,151.6722 162.2369,151.1262 158.0639,148.7886 C 162.4148,150.3925 164.2749,152.5936 162.9162,156.8252 C 161.137,155.8356 158.5329,152.8495 155.298,153.7539 C 158.0315,155.7503 165.31,155.8526 160.5547,161.5005 C 163.8382,169.6225 152.1279,170.6974 150.4619,166.6023 C 153.7453,167.4896 157.2552,165.9369 155.8642,162.8143 C 151.675,165.1008 151.772,161.108 151.5617,158.7192 C 150.7369,161.6882 149.5885,162.7631 147.2917,161.0568 C 148.7636,166.8412 145.6419,169.3324 141.9056,166.3122 C 139.1236,167.8138 140.1426,170.8851 143.426,172.0113 C 139.9808,175.4068 134.7241,171.0387 136.9239,165.7321 C 133.8184,163.531 141.2586,160.4767 143.5554,157.6954 C 141.7277,159.4017 139.5927,161.2445 136.0828,162.9508 C 136.0019,168.5987 130.6967,167.4725 131.9421,162.9508 C 128.7073,163.0191 127.7853,164.9643 129.4513,170.1002 C 123.4667,167.592 123.6608,160.5791 128.2058,159.0093 C 125.4885,155.3066 134.336,154.6241 139.9647,156.3816 C 139.8676,150.6484 141.6145,145.8708 145.2214,142.0828 C 142.9569,138.2266 142.1806,133.995 142.8599,129.3709 C 135.1932,125.4123 131.3437,118.6895 131.2466,109.6802 C 131.1981,105.6363 132.3303,99.7325 127.9147,97.9921 C 123.9358,96.4052 118.1939,95.4667 114.2149,98.8623 C 113.4871,101.4388 112.1608,102.9233 108.6833,99.7496 C 106.8394,103.401 104.3485,103.0598 102.8767,100.4833 C 101.9871,103.0939 98.639,104.9196 97.07,101.49 C 95.679,102.4626 94.563,102.855 93.6411,102.8721 C 90.6973,102.8721 78.1945,97.7191 73.8274,96.7123 C 77.1269,94.2041 82.4969,87.0888 85.1656,83.7274 C 77.1593,95.7227 70.2043,102.036 63.4757,95.9957 C 69.7514,94.5112 75.8977,88.0955 79.262,83.0108 C 73.3421,93.914 58.3161,101.0122 57.8147,87.8908 C 61.1466,90.8256 63.7507,91.201 68.4089,86.7134 C 79.1973,76.2709 84.1143,70.333 94.1586,66.4767 C 87.9476,69.4286 81.7205,72.1246 75.8977,79.0351 C 72.7437,82.0211 68.9588,85.7579 61.8906,83.7445 C 69.5573,78.7109 71.9835,74.8547 80.7338,68.5243 C 88.8696,62.6205 98.1375,60.6753 107.0335,58.1671 C 102.3914,59.1908 98.6228,60.1122 96.229,57.7234 C 104.8661,57.877 109.9772,51.3589 105.7881,43.9365 C 107.7128,44.0389 109.6376,44.2607 111.3521,44.5508 C 115.8647,45.3186 116.5764,41.7354 113.8429,38.8518 C 109.9934,34.8249 103.9765,33.9035 98.8977,31.5659 C 96.4392,30.4227 95.5496,27.4878 97.345,24.7236 C 94.8056,23.3756 93.5602,21.9082 93.6087,20.5432 C 91.7486,16.687 106.71,15.7656 114.7325,16.8747 C 116.9161,17.1818 120.5715,19.5877 121.9949,20.7309 C 119.5849,21.9765 116.0912,25.2696 116.7543,27.9827 C 116.0912,25.3208 119.7304,21.8912 122.658,20.3555 C 126.6693,18.2397 133.317,15.6461 137.8943,14.5541 C 136.2445,22.5908 136.1798,30.9175 129.6777,35.5757 C 127.4456,37.1625 125.2944,39.0565 120.1995,37.9816 C 121.7361,38.3911 124.8739,38.2716 127.0251,37.555 C 128.8852,40.2339 127.4942,47.0591 126.6693,51.4443 C 115.606,56.9727 106.3056,63.4907 98.9948,71.4421 C 94.7409,76.0832 97.0377,80.6049 98.3155,85.0242 C 96.7304,79.9053 95.5982,75.8614 98.8654,71.8857 C 105.3837,63.9344 118.2747,56.0683 132.2171,48.0828 C 144.3318,41.1553 157.7727,30.5762 157.5139,21.9594 C 157.1743,9.9471 166.5069,10.9367 167.348,20.0654 C 168.4964,32.6067 156.7537,43.0322 142.7305,53.2017 C 155.5083,47.0761 170.7932,32.8285 172.6047,29.689 C 173.834,27.5561 174.2383,24.5189 173.8016,22.3348 C 171.7151,12.0288 181.1286,10.6125 182.9725,22.8296 C 185.2855,38.0157 170.7446,51.0006 147.2917,62.3987 C 156.592,60.2487 167.7524,56.1366 175.225,48.2364 C 184.8002,38.1351 190.5583,46.3424 180.6272,57.2798 C 173.3164,65.3335 161.0238,69.4116 146.7418,72.0222 C 155.8156,71.2544 164.5984,69.0874 173.9795,65.6065 C 186.3368,61.0336 187.1455,71.6639 175.6455,76.6975 C 163.3691,82.0894 150.656,83.079 137.7488,82.8231 C 140.6602,82.9596 142.6658,83.7103 145.561,84.0004 C 152.3058,84.6659 149.6046,94.187 142.1806,94.2723 C 138.0723,94.3065 130.5026,92.7367 125.8444,90.6209 C 130.3894,97.9409 116.7543,98.3845 109.2494,89.6653 C 116.7058,98.3674 130.4541,97.6167 125.8444,90.8427 C 131.3275,92.003 136.7298,94.6648 142.31,94.3406 C 148.246,93.9993 149.9443,90.0237 149.362,87.0547 L 149.362,87.0547 z M 139.9647,153.0202 C 139.2206,150.256 134.1419,148.4814 133.042,151.5016 C 128.6911,149.8294 128.0118,153.515 129.0307,155.6479 C 132.395,154.4364 136.1475,154.7265 139.8838,156.2451 C 139.6412,155.0677 139.6574,153.8051 139.9647,153.0202 L 139.9647,153.0202 z "
   style="fill:white;stroke:black;stroke-width:0.99059999" />
   <path
   id="_102214152"
   class="fil1 str1"
   d="M 99.0326,24.7022 C 100.553,24.7022 113.2661,30.077 110.8561,29.7869 C 108.43,29.4969 103.9335,29.7869 99.0326,30.6742 C 97.5446,30.9302 96.2668,29.3604 96.2668,27.7565 C 96.2668,26.1355 97.5122,24.7022 99.0326,24.7022 z "
   style="fill:white;stroke:black;stroke-width:0.99059999" />
   <path
   id="_102214280"
   class="fil2 str1"
   d="M 93.6131,20.7921 C 89.4536,20.4168 83.6053,20.2605 80.1964,22.7937 C 73.4412,27.8914 78.101,34.6154 81.1659,39.1814 C 81.5725,28.3292 93.3942,30.3933 95.5208,35.2408 C 97.6788,35.147 99.8367,35.9914 102.2761,36.5231 C 105.8101,37.2424 108.6248,39.3691 110.9078,40.9328 C 107.968,40.4324 105.0595,40.0884 102.2448,39.9633 C 95.8961,39.8382 88.3903,40.9015 82.9798,44.4355 C 84.2621,45.5614 84.2308,45.9679 88.359,45.5926 C 91.8617,46.3432 93.8946,49.8772 92.6123,52.0352 C 96.7093,50.8155 96.5842,48.3135 94.2073,46.1556 C 97.022,47.1876 96.6467,51.6286 93.7695,52.0039 C 99.7741,52.6294 101.6193,46.9374 97.2096,44.2478 C 102.0884,43.7787 107.6865,44.3417 111.158,44.5606 C 115.724,44.8733 116.3808,41.7459 113.6599,38.8687 C 109.8132,34.8343 103.8398,33.8648 98.7108,31.5818 C 95.4896,30.1119 95.7085,27.5161 97.3347,24.7327 C 94.0197,23.2002 93.2691,21.918 93.6131,20.7921 L 93.6131,20.7921 z "
   style="fill:#f8c300;stroke:black;stroke-width:0.99059999" />
   <path
   id="_102213840"
   class="fil1 str1"
   d="M 126.275,97.4251 C 117.0879,99.9674 109.5506,102.4245 106.6392,105.7347 C 97.4845,106.8779 92.6321,108.8231 89.7531,111.1437 C 87.7151,117.7641 88.912,123.3608 90.578,128.8039 C 87.5534,132.5919 86.3079,136.3969 85.8712,140.1849 C 79.3206,148.6823 64.0843,145.099 66.1061,150.5421 C 61.3993,151.4976 64.246,158.6129 69.1307,159.8926 C 68.8557,155.3709 68.2734,154.4154 71.7833,153.7329 C 72.8508,158.9542 79.6117,156.5995 81.0351,154.7908 C 82.2805,153.0333 83.5259,151.2758 84.7714,149.5354 C 81.7306,156.8725 74.8079,158.3399 77.9943,164.858 C 79.9676,168.9019 85.2243,168.4071 88.6532,165.5917 C 83.8656,166.0012 80.7763,161.2406 84.0759,159.0224 C 88.3136,165.5064 91.7911,160.7117 90.578,155.2174 C 93.263,155.8999 94.6378,154.2448 94.7348,150.2691 C 94.5731,155.2174 98.7623,156.2412 100.2665,153.3234 C 103.3073,154.7055 102.8059,156.9066 100.687,159.4661 C 105.2644,157.3673 108.5478,154.9956 102.7574,150.5592 C 105.5232,148.2898 105.2967,146.0546 101.9325,143.8364 C 104.6336,145.2526 110.8446,143.3586 109.4051,136.3969 C 109.3727,140.9527 112.5914,142.3348 114.7911,140.9186 C 113.2384,137.1989 113.1737,134.9124 115.2117,130.8514 C 115.0014,133.718 115.5999,136.1068 118.1231,137.1306 C 117.2011,129.6741 128.0218,127.49 119.3685,122.9683 C 117.7672,119.2145 123.0239,116.0066 131.3861,113.0377 C 131.3214,110.5806 130.5936,108.5331 131.3861,105.1546 C 131.4508,101.8273 130.6259,99.1996 126.275,97.4251 L 126.275,97.4251 z "
   style="fill:white;stroke:black;stroke-width:0.99059999" />
   <path
   id="_102213688"
   class="fil1 str1"
   d="M 81.654,142.695 C 79.1673,140.5912 80.045,134.6106 75.7952,138.3477 C 70.4618,132.98 63.8883,139.0837 66.7146,144.9645 C 68.1382,141.587 70.2506,140.1038 72.4766,142.1877 C 69.3511,143.333 70.7339,145.6339 72.8684,145.7908 C 77.8627,144.9367 80.4121,144.1135 81.654,142.695 L 81.654,142.695 z "
   style="fill:white;stroke:black;stroke-width:0.99059999" />
   <path
   id="_102213752"
   class="fil2 str1"
   d="M 110.494,40.7801 C 101.8731,39.3297 92.5404,39.671 84.0812,43.6808 C 73.4545,48.7314 65.4805,40.2341 72.4517,32.6069 C 71.8209,40.5753 78.8406,41.4626 87.4293,38.0159 C 90.9715,36.5826 96.0341,35.9854 102.7626,36.5485 C 105.5608,37.4357 108.5693,38.852 110.494,40.7801 L 110.494,40.7801 z "
   style="fill:#f8c300;stroke:black;stroke-width:0.99059999" />
   <path
   id="_102213712"
   class="fil1 str1"
   d="M 134.982,122.679 C 136.001,123.9757 136.9877,125.2896 138.5728,126.6034 C 134.9497,128.7193 130.6473,130.4426 127.5903,133.8381 C 125.0833,136.6024 125.2774,139.3154 125.1642,142.2331 C 128.5446,141.6701 130.0488,147.0449 128.1079,154.8256 C 126.3772,161.8556 122.1557,166.2919 121.0882,165.3023 C 122.6571,161.3778 124.2422,158.6136 123.7893,154.5014 C 122.9806,159.9786 121.9778,166.1896 117.4166,168.2201 C 118.7591,163.9202 120.0854,160.1663 119.7619,155.6617 C 118.9046,163.2035 117.0608,178.6797 104.3476,175.3694 C 98.6057,173.885 96.681,167.2987 99.56,161.3607 C 99.1233,165.3193 102.1964,170.3188 105.3828,170.8478 C 110.1381,171.6156 114.0361,167.6399 114.5861,162.3675 C 115.0713,157.6069 115.6212,153.0852 117.9665,150.6964 C 114.6669,151.669 115.508,161.8556 112.7745,163.7666 C 108.553,166.7015 103.8462,161.6337 106.4827,158.2894 C 107.5017,162.1798 110.7851,160.8488 111.0439,157.1291 C 111.3512,152.8804 111.1571,149.4167 113.2598,146.6183 C 115.4918,143.6664 118.0151,143.3764 120.053,142.6768 C 120.1016,138.3428 120.9103,133.9917 124.1937,130.1867 C 127.4609,126.4158 130.987,124.4535 134.982,122.679 L 134.982,122.679 z "
   style="fill:white;stroke:black;stroke-width:0.99059999" />
   <path
   id="_102241568"
   class="fil1 str1"
   d="M 127.86,46.0248 L 126.8248,50.9902 C 132.9226,48.0212 139.1659,44.1479 145.3607,39.3191 C 150.116,34.2172 152.8495,29.7126 152.9789,25.754 C 153.2701,15.5162 143.5977,14.6289 145.2314,24.5767 C 145.7975,28.0575 134.1842,38.3806 127.86,46.0248 L 127.86,46.0248 z "
   style="fill:white;stroke:black;stroke-width:0.99059999" />
   <path
   id="_102242080"
   class="fil3 str1"
   d="M 121.563,33.4797 C 118.7648,26.2791 123.9406,22.9177 131.4617,20.3924 C 123.4877,23.8732 119.5735,27.6612 121.563,33.4797 z "
   style="fill:none;stroke:black;stroke-width:0.99059999" />
   <ellipse
   id="_100524312"
   class="fil4 str1"
   cx="99.269302"
   cy="27.6481"
   rx="2.76583"
   ry="2.9177699"
   sodipodi:cx="99.269302"
   sodipodi:cy="27.6481"
   sodipodi:rx="2.76583"
   sodipodi:ry="2.9177699"
   style="fill:#1f1a17;stroke:black;stroke-width:0.99059999" />
   <path
   id="_101203024"
   class="fil3 str1"
   d="M 133.142,51.7375 C 140.1456,47.2841 146.0007,56.1739 136.9107,61.2245 C 146.3566,57.556 147.2138,69.0906 138.1561,69.7048 C 148.5563,71.4964 142.6041,83.3723 133.9993,76.8542 C 142.313,83.1334 130.1498,88.2352 128.0633,82.5533 C 130.5541,90.334 118.6659,89.6515 117.0808,85.8805 C 118.391,89.4126 130.4409,90.5387 127.6913,81.9219 C 129.9072,88.0646 142.1512,83.2528 133.6273,76.2399 C 141.3425,83.3552 148.8636,72.2301 137.7679,69.5171 C 147.0359,69.3977 146.114,57.2318 136.5225,60.6103 C 146.308,57.1635 139.7574,46.6698 133.142,51.7375 L 133.142,51.7375 z "
   style="fill:none;stroke:black;stroke-width:0.99059999" />
   <path
   id="_100524336"
   class="fil3 str1"
   d="M 107.451,80.9126 C 108.7773,85.4343 117.2366,83.3355 115.8779,76.1008 C 117.7541,82.1241 127.8632,80.3324 123.2211,70.8454 C 127.5559,76.4591 134.5917,68.1324 127.572,64.3444 C 134.5432,66.2896 134.6403,56.905 128.7528,56.6831 C 134.5756,56.905 133.9771,65.9313 127.6529,64.2762 C 133.2007,69.0367 129.0924,75.0088 123.3505,71.4256 C 126.8604,76.7151 121.1508,83.6938 115.8779,76.5445 C 116.5087,84.018 108.8582,85.4855 107.451,80.9126 L 107.451,80.9126 z "
   style="fill:none;stroke:black;stroke-width:0.99059999" />
   <path
   id="_100665264"
   class="fil3 str1"
   d="M 157.124,122.797 C 165.0495,127.0798 155.5712,130.4412 156.5741,136.3792 C 155.7815,130.646 164.9363,126.8239 157.124,122.797 z "
   style="fill:none;stroke:black;stroke-width:0.99059999" />
   <rect
   id="_102192400"
   class="fil1 str1"
   x="23.195601"
   y="41.639198"
   width="30.797001"
   height="21.0037"
   style="fill:white;stroke:black;stroke-width:0.99059999" />
   <rect
   id="_102213464"
   class="fil1 str1"
   x="21.208401"
   y="57.680901"
   width="34.8689"
   height="4.6183701"
   rx="0.69217891"
   ry="0.69176441"
   style="fill:white;stroke:black;stroke-width:0.99059999" />
   <rect
   id="_102213528"
   class="fil1 str1"
   x="20.847099"
   y="82.791298"
   width="36.675201"
   height="5.2593598"
   rx="1.2305403"
   ry="1.2298034"
   style="fill:white;stroke:black;stroke-width:0.99059999" />
   <path
   id="_102213344"
   class="fil1 str1"
   d="M 22.762,88.3287 L 55.2268,88.3287 L 55.2268,99.8371 C 55.2268,101.8538 22.762,101.558 22.762,99.5951 L 22.762,88.3287 L 22.762,88.3287 z "
   style="fill:white;stroke:black;stroke-width:0.99059999" />
   <rect
   id="_102142528"
   class="fil1 str1"
   x="25.218901"
   y="62.5224"
   width="27.9111"
   height="20.2673"
   style="fill:white;stroke:black;stroke-width:0.99059999" />
   <rect
   id="_101394944"
   class="fil1 str1"
   x="20.052299"
   y="36.787899"
   width="36.457699"
   height="4.4900098"
   rx="0.64090639"
   ry="0.6405226"
   style="fill:white;stroke:black;stroke-width:0.99059999" />
   <path
   id="_101395440"
   class="fil3 str1"
   d="M 28.2121,82.6263 L 50.8608,82.7064 C 49.4337,80.905 45.1521,79.5039 43.756,79.5039 L 36.0616,79.5039 C 34.5103,79.5039 29.7014,80.8249 28.2121,82.6263 z "
   style="fill:none;stroke:black;stroke-width:0.99059999" />
   <path
   id="_101396112"
   class="fil0 str1"
   d="M 36.5131,79.308 C 32.1074,77.6409 29.5323,67.6858 38.0954,64.0181 C 37.63,72.0679 44.6418,67.8287 42.5941,75.4498 C 45.0761,70.4961 37.1336,68.5908 41.7564,66.3044 C 41.6943,68.9718 50.3505,72.2584 43.4007,79.308 L 36.5131,79.308 L 36.5131,79.308 z "
   style="fill:#da251d;stroke:black;stroke-width:0.99059999" />
   <path
   id="_101396784"
   class="fil2 str1"
   d="M 37.9611,30.3201 C 37.9319,29.6374 38.0194,28.7777 38.1945,27.7157 C 34.1099,28.2467 34.285,23.5689 38.107,23.2402 C 38.8655,19.0176 34.285,20.1048 30.9006,22.4564 C 33.5264,14.3145 45.43,15.7558 44.7881,22.4564 C 44.6714,23.8724 43.6211,26.4262 46.5095,29.8144 C 43.4461,30.8764 40.4702,30.396 37.9611,30.3201 z "
   style="fill:#f8c300;stroke:black;stroke-width:0.99059999" />
   <path
   id="_101397232"
   class="fil2 str1"
   d="M 89.7472,63.6063 C 89.2804,63.4293 88.8136,63.2017 88.3468,62.9741 C 88.4051,63.1511 88.4635,63.3281 88.4926,63.4798 C 84.1747,65.8314 80.0026,68.5369 76.1515,71.7734 C 76.3265,71.9251 76.5016,72.0769 76.6474,72.2033 C 79.244,70.3827 82.5117,66.7922 89.7472,63.6063 z M 75.8597,52.2279 C 61.3595,41.0264 57.6834,32.7834 54.4741,28.7883 C 40.6158,31.9996 34.5474,28.94 32.6801,28.1562 C 25.0945,24.9702 16.5461,31.5444 21.2142,37.3854 C 21.01,34.1741 23.9567,30.6342 28.4497,32.8846 C 25.9114,35.5648 30.1127,38.1945 32.651,35.2867 C 34.9266,36.4245 38.1943,36.6268 40.8784,36.3234 C 42.5122,35.1855 43.2708,34.604 44.9338,33.4661 C 42.9207,34.8568 40.9076,36.2728 38.9237,37.6635 C 36.2979,39.2059 34.2264,39.1806 33.2053,38.3462 C 27.1368,33.2891 16.6337,42.1896 24.1901,45.6537 C 24.2776,42.1643 29.1791,40.1415 30.6962,43.5044 C 28.0121,47.3478 36.5021,48.5109 37.2315,44.44 C 40.3533,43.9848 43.5917,41.5069 45.6048,40.0909 C 44.7879,41.4816 44.5253,42.847 45.8382,43.9595 C 42.804,45.1732 44.1461,48.7132 48.3765,46.9938 C 49.9811,49.0925 49.0767,49.6993 44.642,49.5729 C 46.5093,53.3657 58.5587,49.8257 54.941,43.3527 C 52.8987,39.7116 51.4691,42.7711 50.6813,39.1553 C 50.4771,38.1692 52.0234,37.5624 55.5828,40.8747 C 57.0416,44.2124 64.1895,53.922 69.9663,63.2776 C 72.0669,62.696 74.5468,62.6201 77.6102,63.3028 C 76.6474,61.0524 75.2178,58.9032 75.0428,56.2735 C 74.9261,54.5794 75.2762,53.2393 75.8597,52.2279 L 75.8597,52.2279 z "
   style="fill:#f8c300;stroke:black;stroke-width:0.99059999" />
   <path
   id="_101398128"
   class="fil2 str1"
   d="M 67.9246,108.986 C 62.045,110.6122 56.572,112.6763 52.6628,114.8968 C 50.5361,116.0852 50.1608,118.3682 47.9716,117.9304 C 35.3368,115.3659 35.4619,118.7435 33.6792,119.713 C 26.3611,123.6536 18.949,117.1173 23.734,110.5184 C 23.2962,113.9898 25.7668,117.6177 30.114,114.8968 C 27.956,112.1759 32.0843,109.0485 34.1796,112.0196 C 36.4001,110.6435 39.465,110.2057 41.9357,110.362 C 43.3743,111.4879 44.031,112.0508 45.4697,113.1767 C 43.7183,111.8006 41.9669,110.4246 40.2156,109.0485 C 37.9013,107.5786 35.9623,107.735 34.9615,108.7045 C 28.8943,114.5528 19.8247,105.6396 27.1429,101.3863 C 26.9553,105.1705 31.3649,107.0469 33.0225,103.294 C 30.8333,99.3222 38.8082,97.5083 39.1835,101.8554 C 42.0608,102.1682 44.8442,104.6076 46.6268,105.9836 C 45.97,104.545 45.845,103.1064 47.1272,101.8241 C 44.4376,100.6983 45.9388,96.789 49.7542,98.384 C 51.3805,95.9758 50.5986,95.3816 46.4704,95.8507 C 48.5033,91.5974 59.4493,94.631 55.5713,101.8554 C 53.3821,105.9523 52.2875,102.7311 51.2867,106.6717 C 50.6925,108.9547 51.662,109.1111 54.7894,107.9539 C 57.2601,107.0469 61.5759,104.9203 66.5485,102.6373 C 67.9872,104.0759 70.2702,104.9516 73.6165,104.3886 C 76.5876,103.9195 78.8393,102.2933 81.31,101.0736 C 81.0286,103.3879 81.1849,105.3269 81.7479,107.0157 C 77.9637,107.7663 68.3625,107.8914 67.9246,108.986 L 67.9246,108.986 z "
   style="fill:#f8c300;stroke:black;stroke-width:0.99059999" />
   <path
   id="_101398800"
   class="fil2 str1"
   d="M 40.051,116.996 C 39.7541,117.7116 39.6049,117.9392 39.4805,118.4305 C 36.1285,117.0392 34.4674,122.0003 37.6846,123.1716 C 36.7165,127.7563 33.1296,125.658 31.0858,122.4858 C 30.2619,131.6215 41.1706,132.5666 43.1898,125.337 C 43.6136,123.8229 43.9673,120.773 47.797,117.7948 C 44.8793,117.1268 42.3592,117.0584 40.051,116.996 L 40.051,116.996 z "
   style="fill:#f8c300;stroke:black;stroke-width:0.99059999" />
   <path
   id="_101399448"
   class="fil1 str1"
   d="M 98.8985,95.137 L 95.5085,84.3445 C 89.4896,84.2545 82.8827,85.5436 78.6279,92.4389 C 76.6908,95.5867 70.1184,100.6832 64.6184,99.3641 C 65.5523,102.3021 68.1121,105.27 73.6121,104.3407 C 76.587,103.861 78.87,102.2421 81.2915,101.013 C 80.4613,107.8182 83.6437,111.4158 87.9676,114.0839 C 86.1343,111.026 87.8638,107.2486 93.1563,102.8117 C 97.9991,98.7345 99.3136,97.0257 98.8985,95.137 z "
   style="fill:white;stroke:black;stroke-width:0.99059999" />
   <path
   id="_101399944"
   class="fil1 str1"
   d="M 88.4451,63.472 C 87.775,60.4606 79.1222,53.7037 81.0675,49.1358 C 77.9744,49.5771 74.6728,51.413 75.0164,56.2579 C 75.1788,58.8756 76.5767,61.0386 77.5627,63.2726 C 70.7261,61.7201 66.7154,64.0139 63.5257,67.404 C 66.8394,66.204 69.4317,73.5868 74.432,73.2555 C 78.7426,69.3365 83.4812,66.1942 88.4451,63.472 L 88.4451,63.472 z "
   style="fill:white;stroke:black;stroke-width:0.99059999" />
   <path
   id="_101400392"
   class="fil4 str1"
   d="M 90.0571,24.0584 C 87.1364,23.7802 85.1106,26.1243 84.7558,28.1314 C 85.7411,27.1238 86.9449,25.7441 89.8537,26.3551 C 90.957,26.5903 92.9881,24.3423 90.0571,24.0584 z "
   style="fill:#1f1a17;stroke:black;stroke-width:0.99059999" />
   <path
   id="_101705840"
   class="fil1 str1"
   d="M 116.392,17.3679 C 119.4256,13.7401 124.9924,12.1764 131.0596,11.0505 L 128.7766,17.2741 C 125.8994,18.2123 123.5851,19.3695 121.7712,20.5579 C 120.6766,19.6822 118.3623,18.1185 116.392,17.3679 L 116.392,17.3679 z "
   style="fill:white;stroke:black;stroke-width:0.99059999" />
   <path
   id="_102285064"
   class="fil5 str1"
   d="M 116.7,206.176 C 123.9244,214.8077 139.155,213.6818 149.413,206.5513 C 158.1385,200.5153 166.3011,199.0767 171.4926,201.4536 C 172.8687,202.0791 175.2455,203.4864 177.2784,204.2057 C 183.0641,198.764 188.2556,192.6342 192.7591,185.8164 C 188.7873,186.1604 183.1892,186.0666 177.9039,182.8454 C 170.398,178.248 160.4841,175.4333 148.8187,184.0025 C 138.7797,191.3207 126.1761,192.7593 118.3263,184.1901 C 111.7274,176.9345 95.1208,177.0596 88.5531,184.2527 C 80.7033,192.8531 68.0998,191.4145 58.0607,184.065 C 46.3641,175.5272 36.4814,178.3106 28.9756,182.9079 C 23.6902,186.1604 18.0921,186.2543 14.1203,185.9102 C 18.4674,192.5404 23.6902,198.7327 29.6323,204.2683 C 31.6652,203.5489 34.0108,202.1729 35.3868,201.5474 C 40.5784,199.1705 48.741,200.6092 57.4665,206.6138 C 67.7245,213.7444 82.955,214.8702 90.1794,206.2385 C 96.8096,198.3574 110.1011,198.2636 116.7,206.176 L 116.7,206.176 z "
   style="fill:#0093dd;stroke:black;stroke-width:0.99059999" />
  </g>
 </g>
</svg>