<?xml version="1.0" encoding="utf-8"?>
<!-- Generator: Adobe Illustrator 15.1.0, SVG Export Plug-In . SVG Version: 6.00 Build 0)  -->
<!DOCTYPE svg PUBLIC "-//W3C//DTD SVG 1.1//EN" "http://www.w3.org/Graphics/SVG/1.1/DTD/svg11.dtd">
<svg version="1.1" xmlns="http://www.w3.org/2000/svg" xmlns:xlink="http://www.w3.org/1999/xlink" x="0px" y="0px" width="750px"
	 height="750px" viewBox="0 0 750 750" enable-background="new 0 0 750 750" xml:space="preserve">
<g id="faixa">
	<path id="fundofaixa" fill="#13307D" d="M727.5,675.5c0,0-93.5-46.5-169-45l2-15.5c0,0-88.5-26-185.5-26s-185.5,26-185.5,26l2,15.5
		c-75.5-1.5-169,45-169,45l78,11.5l-47,51c0,0,85.5-38.5,173-35l-2-16.5c0,0,58-18.5,150.5-18.5s150.5,18.5,150.5,18.5l-2,16.5
		c87.5-3.5,173,35,173,35l-47-51L727.5,675.5z"/>
	<g id="natal">
		<path id="N" fill="#FFFFFF" d="M235.683,666.996l-9.359-46.307l9.098-1.84l25.202,27.096l-6.249-30.926l8.687-1.756l9.358,46.309
			l-9.382,1.896l-24.771-26.426l6.104,30.197L235.683,666.996z"/>
		<path id="A" fill="#FFFFFF" d="M343.909,652.275l-10.344,0.834l-4.975-10.365l-18.823,1.52l-3.024,11.01l-10.086,0.814
			l14.542-48.57l10.054-0.813L343.909,652.275z M324.898,635.057L317,618.105l-4.95,17.988L324.898,635.057z"/>
		<path id="T" fill="#FFFFFF" d="M374.247,651.986l0.222-39.252l-14.018-0.08l0.045-7.99l37.543,0.211l-0.045,7.992l-13.986-0.078
			l-0.223,39.25L374.247,651.986z"/>
		<path id="A2" fill="#FFFFFF" d="M461,657.047l-10.332-0.963l-3.111-11.068l-18.805-1.752l-4.877,10.324l-10.076-0.939
			l22.705-45.332l10.043,0.936L461,657.047z M445.246,636.807l-4.855-18.061l-7.98,16.865L445.246,636.807z"/>
		<path id="L" fill="#FFFFFF" d="M485.219,660.979l9.752-45.83l9.33,1.984l-8.096,38.047l23.199,4.936l-1.656,7.785L485.219,660.979
			z"/>
	</g>
</g>
<g id="escudo">
	<path id="fundoescudo" fill="#13307D" d="M176.332,191.666c7.732,0,14,6.268,14,14c0,0,0,182.334,0,241.666
		c0,43.264,35.072,78.336,78.335,78.336h50c0,0,10.427-2.467,28.666,10.666c7.46,5.371,27.667,21,27.667,21s20.207-15.629,27.668-21
		c18.238-13.133,28.664-10.666,28.664-10.666h50c43.264,0,78.336-35.072,78.336-78.336c0-59.332,0-241.666,0-241.666
		c0-7.732,6.268-14,14-14H176.332z"/>
	<polygon id="listrasraio" fill="#FFFFFF" points="503.652,216.105 288.043,444.105 285.043,442.105 482.811,216.105 
		452.441,216.105 271.543,444.605 268.043,442.105 431.748,216.105 408.654,216.105 251.043,450.105 299.043,444.105 
		535.965,216.105 	"/>
	<polygon id="estrela" fill="#FEDE22" points="262.376,401.943 273.998,436.779 310.718,437.066 281.179,458.883 292.253,493.895 
		262.376,472.545 232.5,493.895 243.574,458.883 214.035,437.066 250.755,436.779 	"/>
</g>
<g id="coroa">
	<g>
		<polygon fill="#FFFFFF" stroke="#000000" stroke-width="3" points="436.92,15.3 435.355,33.985 428.879,33.442 427.232,53.124 
			404.313,51.206 405.959,31.525 399.482,30.983 401.045,12.298 		"/>
		<line fill="none" stroke="#000000" stroke-width="3" x1="428.879" y1="33.442" x2="405.959" y2="31.525"/>
	</g>
	<g>
		<polygon fill="#FFFFFF" stroke="#000000" stroke-width="3" points="481.154,22.904 478.047,41.396 471.637,40.317 468.361,59.795 
			445.68,55.982 448.953,36.507 442.543,35.429 445.652,16.938 		"/>
		<line fill="none" stroke="#000000" stroke-width="3" x1="471.637" y1="40.317" x2="448.953" y2="36.507"/>
	</g>
	<g>
		<polygon fill="#FFFFFF" stroke="#000000" stroke-width="3" points="524.078,32.661 519.865,50.933 513.531,49.472 509.094,68.718 
			486.684,63.552 491.119,44.308 484.785,42.847 488.996,24.575 		"/>
		<line fill="none" stroke="#000000" stroke-width="3" x1="513.531" y1="49.472" x2="491.119" y2="44.308"/>
	</g>
	<g>
		<polygon fill="#FFFFFF" stroke="#000000" stroke-width="3" points="566.023,45.979 560.344,63.85 554.148,61.88 543.723,79.29 
			526.246,73.736 532.229,54.915 526.035,52.945 531.715,35.075 		"/>
		<line fill="none" stroke="#000000" stroke-width="3" x1="554.148" y1="61.88" x2="532.229" y2="54.915"/>
	</g>
	<g>
		<polygon fill="#FFFFFF" stroke="#000000" stroke-width="3" points="357,12 357,30.75 363.5,30.75 363.5,50.5 386.5,50.5 
			386.5,30.75 393,30.75 393,12 		"/>
		<line fill="none" stroke="#000000" stroke-width="3" x1="363.5" y1="30.75" x2="386.5" y2="30.75"/>
	</g>
	<g>
		<polygon fill="#FFFFFF" stroke="#000000" stroke-width="3" points="313.08,15.3 314.645,33.985 321.121,33.442 322.768,53.124 
			345.688,51.206 344.041,31.525 350.518,30.983 348.955,12.298 		"/>
		<line fill="none" stroke="#000000" stroke-width="3" x1="321.121" y1="33.442" x2="344.041" y2="31.525"/>
	</g>
	<g>
		<polygon fill="#FFFFFF" stroke="#000000" stroke-width="3" points="268.846,22.904 271.954,41.396 278.363,40.317 281.639,59.795 
			304.32,55.982 301.046,36.507 307.456,35.429 304.348,16.938 		"/>
		<line fill="none" stroke="#000000" stroke-width="3" x1="278.363" y1="40.317" x2="301.046" y2="36.507"/>
	</g>
	<g>
		<polygon fill="#FFFFFF" stroke="#000000" stroke-width="3" points="225.923,32.661 230.135,50.933 236.468,49.472 240.905,68.718 
			263.317,63.552 258.881,44.308 265.215,42.847 261.003,24.575 		"/>
		<line fill="none" stroke="#000000" stroke-width="3" x1="236.468" y1="49.472" x2="258.881" y2="44.308"/>
	</g>
	<g>
		<polygon fill="#FFFFFF" stroke="#000000" stroke-width="3" points="183.978,45.979 189.657,63.85 195.851,61.88 206.276,79.29 
			223.754,73.736 217.771,54.915 223.966,52.945 218.286,35.075 		"/>
		<line fill="none" stroke="#000000" stroke-width="3" x1="195.851" y1="61.88" x2="217.771" y2="54.915"/>
	</g>
	<path fill="#FFFFFF" stroke="#000000" stroke-width="3" d="M510.07,66.584C479.262,56.528,430.172,44.167,375,44.167
		S270.739,56.528,239.931,66.584h-41.263l19.104,31.903L257,164c0,0,98,4,118,4s118-4,118-4l39.229-65.513l19.104-31.903H510.07z"/>
	<line fill="none" stroke="#000000" stroke-width="3" x1="262.166" y1="125.834" x2="262.166" y2="106.084"/>
	<line fill="none" stroke="#000000" stroke-width="3" x1="299.777" y1="125.834" x2="299.777" y2="106.084"/>
	<line fill="none" stroke="#000000" stroke-width="3" x1="337.389" y1="125.834" x2="337.389" y2="106.084"/>
	<line fill="none" stroke="#000000" stroke-width="3" x1="375" y1="125.834" x2="375" y2="106.084"/>
	<line fill="none" stroke="#000000" stroke-width="3" x1="242.166" y1="106.084" x2="242.166" y2="86.334"/>
	<line fill="none" stroke="#000000" stroke-width="3" x1="279.777" y1="106.084" x2="279.777" y2="86.334"/>
	<line fill="none" stroke="#000000" stroke-width="3" x1="317.389" y1="106.084" x2="317.389" y2="86.334"/>
	<line fill="none" stroke="#000000" stroke-width="3" x1="355" y1="106.084" x2="355" y2="86.334"/>
	<line fill="none" stroke="#000000" stroke-width="3" x1="224.555" y1="86.334" x2="224.555" y2="66.584"/>
	<line fill="none" stroke="#000000" stroke-width="3" x1="262.166" y1="86.334" x2="262.166" y2="66.584"/>
	<line fill="none" stroke="#000000" stroke-width="3" x1="299.777" y1="86.334" x2="299.777" y2="66.584"/>
	<line fill="none" stroke="#000000" stroke-width="3" x1="337.389" y1="86.334" x2="337.389" y2="66.584"/>
	<line fill="none" stroke="#000000" stroke-width="3" x1="375" y1="86.334" x2="375" y2="66.584"/>
	<line fill="none" stroke="#000000" stroke-width="3" x1="242.166" y1="139.227" x2="242.166" y2="125.834"/>
	<line fill="none" stroke="#000000" stroke-width="3" x1="279.777" y1="145.584" x2="279.777" y2="125.834"/>
	<line fill="none" stroke="#000000" stroke-width="3" x1="317.389" y1="145.584" x2="317.389" y2="125.834"/>
	<line fill="none" stroke="#000000" stroke-width="3" x1="355" y1="145.584" x2="355" y2="125.834"/>
	<line fill="none" stroke="#000000" stroke-width="3" x1="282.166" y1="66.584" x2="282.166" y2="54.915"/>
	<line fill="none" stroke="#000000" stroke-width="3" x1="319.777" y1="66.584" x2="319.777" y2="48.089"/>
	<line fill="none" stroke="#000000" stroke-width="3" x1="357.389" y1="66.584" x2="357.389" y2="44.581"/>
	<line fill="none" stroke="#000000" stroke-width="3" x1="375" y1="168" x2="375" y2="145.584"/>
	<line fill="none" stroke="#000000" stroke-width="3" x1="317.389" y1="166.325" x2="317.389" y2="150.961"/>
	<path fill="none" stroke="#000000" stroke-width="3" d="M493,164c0,0-65.668-18.416-118-18.416c-52.333,0-118,18.416-118,18.416"/>
	<line fill="none" stroke="#000000" stroke-width="3" x1="515.854" y1="125.834" x2="234.146" y2="125.834"/>
	<line fill="none" stroke="#000000" stroke-width="3" x1="487.834" y1="125.834" x2="487.834" y2="106.084"/>
	<line fill="none" stroke="#000000" stroke-width="3" x1="450.223" y1="125.834" x2="450.223" y2="106.084"/>
	<line fill="none" stroke="#000000" stroke-width="3" x1="412.611" y1="125.834" x2="412.611" y2="106.084"/>
	<line fill="none" stroke="#000000" stroke-width="3" x1="527.68" y1="106.084" x2="222.32" y2="106.084"/>
	<line fill="none" stroke="#000000" stroke-width="3" x1="507.834" y1="106.084" x2="507.834" y2="86.334"/>
	<line fill="none" stroke="#000000" stroke-width="3" x1="470.223" y1="106.084" x2="470.223" y2="86.334"/>
	<line fill="none" stroke="#000000" stroke-width="3" x1="432.611" y1="106.084" x2="432.611" y2="86.334"/>
	<line fill="none" stroke="#000000" stroke-width="3" x1="395" y1="106.084" x2="395" y2="86.334"/>
	<line fill="none" stroke="#000000" stroke-width="3" x1="540" y1="86.334" x2="210" y2="86.334"/>
	<line fill="none" stroke="#000000" stroke-width="3" x1="525.445" y1="86.334" x2="525.445" y2="66.584"/>
	<line fill="none" stroke="#000000" stroke-width="3" x1="487.834" y1="86.334" x2="487.834" y2="66.584"/>
	<line fill="none" stroke="#000000" stroke-width="3" x1="450.223" y1="86.334" x2="450.223" y2="66.584"/>
	<line fill="none" stroke="#000000" stroke-width="3" x1="412.611" y1="86.334" x2="412.611" y2="66.584"/>
	<line fill="none" stroke="#000000" stroke-width="3" x1="504.027" y1="145.584" x2="245.973" y2="145.584"/>
	<line fill="none" stroke="#000000" stroke-width="3" x1="507.834" y1="139.227" x2="507.834" y2="125.834"/>
	<line fill="none" stroke="#000000" stroke-width="3" x1="470.223" y1="145.584" x2="470.223" y2="125.834"/>
	<line fill="none" stroke="#000000" stroke-width="3" x1="432.611" y1="145.584" x2="432.611" y2="125.834"/>
	<line fill="none" stroke="#000000" stroke-width="3" x1="395" y1="145.584" x2="395" y2="125.834"/>
	<line fill="none" stroke="#000000" stroke-width="3" x1="551.332" y1="66.584" x2="198.668" y2="66.584"/>
	<line fill="none" stroke="#000000" stroke-width="3" x1="467.834" y1="66.584" x2="467.834" y2="54.915"/>
	<line fill="none" stroke="#000000" stroke-width="3" x1="430.223" y1="66.584" x2="430.223" y2="48.089"/>
	<line fill="none" stroke="#000000" stroke-width="3" x1="392.611" y1="66.584" x2="392.611" y2="44.581"/>
	<line fill="none" stroke="#000000" stroke-width="3" x1="432.611" y1="166.325" x2="432.611" y2="150.961"/>
</g>
</svg>
