<svg xmlns="http://www.w3.org/2000/svg" viewBox="0 0 83.06 25.9"><defs><style>.cls-1,.cls-2{fill:#164993;}.cls-2{fill-rule:evenodd;}.cls-3{fill:#ea5715;}</style></defs><g id="Layer_2" data-name="Layer 2"><g id="Layer_1-2" data-name="Layer 1"><path class="cls-1" d="M16.19,20.88v4h-.58l-.1-.25a1.36,1.36,0,0,1-.91.33,1.52,1.52,0,0,1-.79-.2,1.39,1.39,0,0,1-.55-.55,1.62,1.62,0,0,1-.19-.79,1.59,1.59,0,0,1,.19-.79,1.45,1.45,0,0,1,.55-.55,1.63,1.63,0,0,1,.79-.2,1.4,1.4,0,0,1,.8.24V20.88Zm-1,3.08a.79.79,0,0,0,.23-.57.78.78,0,0,0-.23-.57.82.82,0,0,0-1.14,0,.85.85,0,0,0,0,1.14.82.82,0,0,0,1.14,0"/><path class="cls-1" d="M20,21.92v2.92H19.4l-.06-.26a1.41,1.41,0,0,1-.95.35,1.48,1.48,0,0,1-1.09-.44,1.52,1.52,0,0,1-.44-1.11,1.48,1.48,0,0,1,.44-1.09,1.53,1.53,0,0,1,2.05-.09l.09-.28Zm-1,2a.78.78,0,0,0,.23-.58.74.74,0,0,0-.23-.57.77.77,0,0,0-.56-.23.81.81,0,0,0-.41.11.65.65,0,0,0-.28.29.77.77,0,0,0-.11.4.82.82,0,0,0,.23.58A.84.84,0,0,0,19,24"/><path class="cls-2" d="M56.18,2.19h-3v-2h3ZM80,4.33a4,4,0,0,0-.49-2.08,2,2,0,0,0-1.85-1,2,2,0,0,0-1.86,1,3.88,3.88,0,0,0-.5,2.08c0,2,.79,3.05,2.36,3.05s2.34-1,2.34-3M83,4.39a4,4,0,0,1-1.29,3.1,5.92,5.92,0,0,1-4.12,1.3,5.92,5.92,0,0,1-4.12-1.3,4,4,0,0,1-1.29-3.1A4,4,0,0,1,73.49,1.3,5.92,5.92,0,0,1,77.61,0a5.92,5.92,0,0,1,4.12,1.3A4,4,0,0,1,83,4.39M68.66,8.62H61.9V.17h3V7.35h3.79Zm-12.48,0h-3V3.43h3ZM48.8,1.42h-4V3.66h3.56V4.9H44.77V8.6h-3V.15h7ZM34.21,4.33a3.86,3.86,0,0,0-.49-2.08,2,2,0,0,0-1.84-1,2,2,0,0,0-1.86,1,3.79,3.79,0,0,0-.51,2.08c0,2,.79,3.05,2.37,3.05s2.33-1,2.33-3m3.07.06A4,4,0,0,1,36,7.49a5.88,5.88,0,0,1-4.11,1.3,6,6,0,0,1-4.13-1.3,4,4,0,0,1-1.29-3.1A4,4,0,0,1,27.75,1.3,6,6,0,0,1,31.88,0,5.88,5.88,0,0,1,36,1.3a4,4,0,0,1,1.29,3.09M19.52,2.72A1.39,1.39,0,0,0,19,1.5a3,3,0,0,0-1.75-.4,3.83,3.83,0,0,0-1.09.15V4.36a5,5,0,0,0,.84.06c1.7,0,2.55-.57,2.55-1.7M23,8.62H19.62L16.17,4.8l0,3.82H13.2V.49a14.65,14.65,0,0,1,4-.49,8.63,8.63,0,0,1,4,.72,2.13,2.13,0,0,1,1.3,1.92,1.72,1.72,0,0,1-.89,1.46,5.2,5.2,0,0,1-2.39.71ZM6.35,2.71c0-1.07-.77-1.61-2.29-1.61a4.71,4.71,0,0,0-1.14.13v3a7.73,7.73,0,0,0,1,.06c1.61,0,2.42-.54,2.42-1.62m2.9,0A2.14,2.14,0,0,1,8,4.64a8.39,8.39,0,0,1-4,.79c-.36,0-.7,0-1,0V8.62H0V.49A14.31,14.31,0,0,1,4.06,0a8,8,0,0,1,4,.8A2.17,2.17,0,0,1,9.25,2.72"/><path class="cls-3" d="M82.84,15H.22A.22.22,0,0,1,0,14.75a.22.22,0,0,1,.22-.23H82.84a.22.22,0,0,1,.22.23.22.22,0,0,1-.22.22"/><path class="cls-1" d="M23.75,21.93l-1.28,2.88a2.44,2.44,0,0,1-.55.85,1.14,1.14,0,0,1-.76.24h-.33v-.71h.28a.6.6,0,0,0,.4-.11,1.1,1.1,0,0,0,.26-.43v0l-1.24-2.7h.86l.78,1.79.72-1.79Z"/><path class="cls-1" d="M27.1,21.92v2.92h-.62l-.07-.26a1.39,1.39,0,0,1-.94.35,1.5,1.5,0,0,1-1.1-.44,1.56,1.56,0,0,1-.43-1.11,1.51,1.51,0,0,1,.43-1.09,1.46,1.46,0,0,1,1.1-.44,1.44,1.44,0,0,1,1,.35l.08-.28Zm-1,2a.82.82,0,0,0,.23-.58.8.8,0,0,0-1.2-.69.74.74,0,0,0-.29.29.77.77,0,0,0-.1.4A.81.81,0,0,0,25,24a.85.85,0,0,0,1.14,0"/><path class="cls-1" d="M30.41,22.19a1.27,1.27,0,0,1,.29.89v1.77h-.79V23.2c0-.43-.16-.65-.5-.65a.65.65,0,0,0-.35.09.56.56,0,0,0-.23.27,1,1,0,0,0-.08.4v1.54H28V21.93h.54l.16.36a1.07,1.07,0,0,1,.19-.18.86.86,0,0,1,.23-.13,1.14,1.14,0,0,1,.26-.09,1.36,1.36,0,0,1,.29,0,1,1,0,0,1,.78.33"/><rect class="cls-1" x="31.53" y="21.93" width="0.79" height="2.92"/><polygon class="cls-1" points="34.98 24.85 34.05 23.45 34.05 24.85 33.26 24.85 33.26 20.88 34.05 20.88 34.05 23.23 34.92 21.93 35.84 21.93 34.85 23.32 35.94 24.85 34.98 24.85"/><rect class="cls-1" x="36.4" y="20.88" width="0.79" height="3.97"/><rect class="cls-1" x="38.05" y="21.93" width="0.79" height="2.92"/><path class="cls-1" d="M43.92,23.61H41.71a.71.71,0,0,0,.24.46.73.73,0,0,0,.48.16.74.74,0,0,0,.36-.09.67.67,0,0,0,.25-.25h.83a1.52,1.52,0,0,1-.55.76,1.54,1.54,0,0,1-.89.28,1.45,1.45,0,0,1-1.09-.45,1.53,1.53,0,0,1-.43-1.09,1.69,1.69,0,0,1,.08-.5,1.15,1.15,0,0,1,.21-.43,1.62,1.62,0,0,1,.32-.32,1.78,1.78,0,0,1,.41-.22,1.63,1.63,0,0,1,.5-.07,1.56,1.56,0,0,1,.78.2,1.53,1.53,0,0,1,.54.56,1.65,1.65,0,0,1,.18.77,1.85,1.85,0,0,1,0,.23M42,22.66a.82.82,0,0,0-.25.41h1.41a.71.71,0,0,0-.15-.3.79.79,0,0,0-.25-.19.78.78,0,0,0-.31-.06.73.73,0,0,0-.45.14"/><polygon class="cls-1" points="47.23 21.93 46.07 24.85 45.34 24.85 44.16 21.93 45 21.93 45.71 23.89 46.41 21.93 47.23 21.93"/><path class="cls-1" d="M52,21.92v2.92H51.4l-.06-.26a1.41,1.41,0,0,1-1,.35,1.48,1.48,0,0,1-1.09-.44,1.52,1.52,0,0,1-.44-1.11,1.48,1.48,0,0,1,.44-1.09,1.53,1.53,0,0,1,2.05-.09l.09-.28Zm-1,2a.78.78,0,0,0,.23-.58.74.74,0,0,0-.23-.57.77.77,0,0,0-.56-.23.81.81,0,0,0-.41.11.71.71,0,0,0-.28.29.77.77,0,0,0-.11.4.82.82,0,0,0,.23.58A.84.84,0,0,0,51,24"/><rect class="cls-1" x="52.89" y="20.88" width="0.79" height="3.97"/><path class="cls-1" d="M57.36,23.61H55.15a.71.71,0,0,0,.24.46.73.73,0,0,0,.48.16.74.74,0,0,0,.36-.09.67.67,0,0,0,.25-.25h.83a1.52,1.52,0,0,1-.55.76,1.54,1.54,0,0,1-.89.28,1.45,1.45,0,0,1-1.09-.45,1.53,1.53,0,0,1-.43-1.09,1.69,1.69,0,0,1,.08-.5,1.15,1.15,0,0,1,.21-.43,1.39,1.39,0,0,1,.32-.32,1.78,1.78,0,0,1,.41-.22,1.63,1.63,0,0,1,.5-.07,1.56,1.56,0,0,1,.78.2,1.53,1.53,0,0,1,.54.56,1.65,1.65,0,0,1,.18.77,1.85,1.85,0,0,1,0,.23m-1.94-.95a.82.82,0,0,0-.25.41h1.41a.84.84,0,0,0-.15-.3.79.79,0,0,0-.25-.19.81.81,0,0,0-.31-.06.73.73,0,0,0-.45.14"/><path class="cls-1" d="M59.78,24.14v.71h-.56a1.09,1.09,0,0,1-.55-.13.78.78,0,0,1-.36-.36,1.19,1.19,0,0,1-.12-.56V22.56h-.53v-.17l1.15-1.22H59v.76h.8v.63H59V23.7a.44.44,0,0,0,.11.33.45.45,0,0,0,.34.11Z"/><rect class="cls-1" x="60.43" y="20.88" width="0.79" height="3.97"/><path class="cls-1" d="M64.9,23.61H62.69a.76.76,0,0,0,.24.46.72.72,0,0,0,.47.16.75.75,0,0,0,.37-.09.6.6,0,0,0,.25-.25h.83a1.52,1.52,0,0,1-.55.76,1.55,1.55,0,0,1-.9.28,1.44,1.44,0,0,1-1.08-.45,1.53,1.53,0,0,1-.43-1.09,1.69,1.69,0,0,1,.08-.5,1.32,1.32,0,0,1,.21-.43,1.62,1.62,0,0,1,.32-.32,1.78,1.78,0,0,1,.41-.22,1.61,1.61,0,0,1,.49-.07,1.57,1.57,0,0,1,.79.2,1.53,1.53,0,0,1,.54.56,1.65,1.65,0,0,1,.18.77,1.85,1.85,0,0,1,0,.23M63,22.66a.82.82,0,0,0-.25.41h1.41a.71.71,0,0,0-.15-.3.69.69,0,0,0-.57-.25.72.72,0,0,0-.44.14"/><path class="cls-1" d="M67.33,21.91v.75H67a.58.58,0,0,0-.47.16.71.71,0,0,0-.15.51v1.52h-.79V21.93h.51l.14.36a1,1,0,0,1,.84-.38Z"/><path class="cls-1" d="M67.89,20.81h.79v.73h-.79Zm0,1.12h.79v2.92h-.79Z"/></g></g></svg>