<?xml version="1.0" encoding="UTF-8" standalone="no"?>
<!-- Created with Inkscape (http://www.inkscape.org/) -->

<svg
   xmlns:dc="http://purl.org/dc/elements/1.1/"
   xmlns:cc="http://creativecommons.org/ns#"
   xmlns:rdf="http://www.w3.org/1999/02/22-rdf-syntax-ns#"
   xmlns:svg="http://www.w3.org/2000/svg"
   xmlns="http://www.w3.org/2000/svg"
   version="1.0"
   width="500"
   height="139.49001"
   id="svg2">
  <metadata
     id="metadata3053">
    <rdf:RDF>
      <cc:Work
         rdf:about="">
        <dc:format>image/svg+xml</dc:format>
        <dc:type
           rdf:resource="http://purl.org/dc/dcmitype/StillImage" />
        <dc:title></dc:title>
      </cc:Work>
    </rdf:RDF>
  </metadata>
  <defs
     id="defs4" />
  <g
     id="g3125">
    <path
       d="m 10,10 0,76.46875 18.8125,0 0,-22.21875 7.8125,0 C 40.25441,64.31355 65.53907,62.924879 65.875,37.71875 66.249517,9.6980685 40.237628,9.922826 36.8125,10 z m 19,9.8125 6.3125,0 c 3.361574,-0.0073 11.49672,1.403633 11.15625,17.4375 -0.331391,15.632113 -7.250202,18.456185 -11.8125,18.40625 l -5.65625,0 z m 122.0625,6.5625 c -16.04749,0.292805 -27.6438,13.986034 -28.125,30.03125 -0.15207,5.082083 0.86676,10.020469 2.84375,14.4375 4.46924,9.968962 13.78245,17.269007 25.28125,17.46875 11.78707,0.204282 21.58783,-7.193893 26.25,-17.4375 1.97019,-4.323969 3.0374,-9.180848 2.9375,-14.15625 C 179.92315,40.308096 167.47542,26.073117 151.0625,26.375 z m 268.03125,0.53125 c -0.29553,0.0043 -0.62214,-0.0045 -0.9375,0.03125 -4.19232,0.474388 -5.72203,3.815897 -6.0625,4.6875 l -19.9375,54.84375 11.65625,0 3.4375,-9.125 18.03125,0 3.21875,9.125 19.28125,0 L 426.125,31.1875 c -0.40218,-1.091632 -2.59829,-4.34631 -7.03125,-4.28125 z m -147.90625,0.125 c -0.98296,-0.0077 -2.068,0.169946 -3.25,0.65625 -3.67944,1.513957 -3.61645,5.489206 -3.59375,6.8125 l 0,51.90625 10.90625,0.03125 0.0624,-31.8125 14.0625,16.21875 11.59375,13.34375 c 1.58205,1.881664 5.38407,4.727318 10.21875,3 3.73609,-1.336912 3.3587,-6.095682 3.375,-7.59375 l 0,-8.75 0,-42.71875 -11,0 0,31.5625 -26.96875,-30.34375 c -0.49879,-0.546455 -2.45736,-2.289518 -5.40625,-2.3125 z m 99.21875,1.0625 0,58.375 17.1875,0 0,-58.375 z m 81.125,0 0,58.375 38.46875,0 0,-9.71875 -21.3125,0 0,-48.65625 z m -129.25,0.03125 0,9.96875 20.59375,0 -21.09375,36.78125 c -0.86475,1.380039 -2.40319,5.445699 -0.0312,8.71875 2.17674,3.005215 5.13624,2.76946 7.6875,2.8125 l 33.75,0 0,-9.9375 -21.875,0 L 362.3438,39.625 c 0.85353,-1.468561 2.98463,-5.57187 -0.125,-9.3125 -1.79092,-2.153947 -3.45936,-2.14882 -6.7188,-2.1875 z m -251.34375,0.03125 0,58.3125 17.125,0 0,-23.03125 16.78125,23.03125 20.625,0 c -6.65098,-8.245857 -13.29548,-16.496931 -19.9375,-24.75 0,0 12.27554,-2.100344 11.8125,-16.90625 C 116.80126,27.439451 99.690767,28.15805 96.9375,28.15625 z m 166.375,0.03125 0,58.25 17.21875,0 0,-58.25 z M 178.09375,28.21875 198.4375,82.5 c 0.60604,1.286977 1.71919,5.690664 7.34375,5.5 5.11159,-0.170235 6.18952,-3.866798 6.875,-5.4375 l 20.375,-54.34375 -11.6875,0 -11.9375,33.15625 -11.9375,-33.15625 z M 152,37.0625 c 8.79094,0.163425 10.57905,10.896886 10.53125,19.9375 -0.025,4.714374 -0.30398,9.798966 -1.625,13.84375 -1.42998,4.376174 -4.06022,7.541017 -8.90625,7.625 -4.88461,0.08843 -7.65538,-3.167113 -9.1875,-7.625 C 141.39388,66.717254 141.02995,61.548679 140.96875,57 140.84618,47.995703 143.12282,36.899074 152,37.0625 z m -63.78125,1.21875 4.9375,0 c 2.140421,-0.03178 7.18783,0.202738 7.4375,9.375 0.22244,8.237104 -4.418943,10.451646 -8.09375,10.40625 l -4.28125,0 z m 328,14.3125 5.84375,16.375 L 410.40625,69 z"
       id="path2502"
       style="fill:#008855;fill-opacity:1;fill-rule:evenodd;stroke:none" />
    <path
       d="m 25.306927,113.43425 c 0,-2.96435 -1.25293,-6.2601 -4.08791,-7.56297 -1.636526,-0.74222 -3.425128,-0.76719 -5.188763,-0.76719 -2.017852,0 -4.010736,0.0251 -6.0308582,0.15217 l 0,17.04619 5.0593842,0 c 3.450096,0 6.439423,-0.48573 8.586653,-3.47733 1.125821,-1.58432 1.661494,-3.44783 1.661494,-5.39077 m -2.401448,0.0772 c 0,2.45365 -0.946507,5.52015 -3.322988,6.6437 -1.327833,0.63782 -2.939391,0.79216 -4.394332,0.79216 l -3.093738,0 0,-14.38599 c 1.150789,-0.0521 2.326545,-0.12929 3.477334,-0.12929 1.225692,0 2.451384,0 3.602172,0.48574 2.580763,1.09858 3.731552,3.93583 3.731552,6.59377"
       id="path2510"
       style="fill:#000000;fill-opacity:1;fill-rule:evenodd;stroke:none" />
    <path
       d="m 34.367969,105.43548 c 0,-0.66505 -0.510705,-1.22569 -1.200725,-1.22569 -0.690019,0 -1.227961,0.53567 -1.227961,1.22569 0,0.66505 0.587878,1.20072 1.227961,1.20072 l 0,-0.0249 c 0.637814,0.0249 1.200725,-0.53795 1.200725,-1.17576 m -2.197167,16.86688 1.967917,0 0,-11.34673 -1.967917,0 0,11.34673 z"
       id="path2514"
       style="fill:#000000;fill-opacity:1;fill-rule:evenodd;stroke:none" />
    <path
       d="m 50.526675,120.89736 c 0,-0.12711 -0.22925,-0.69002 -0.281455,-0.84437 l -0.22925,0 c -0.996442,0.64008 -2.095026,1.02368 -3.270782,1.02368 -2.505859,0 -3.577205,-1.99288 -3.654378,-4.26722 l 7.385929,-0.99645 c 0,-2.76007 -1.202994,-5.13655 -4.269494,-5.13655 -3.500031,0 -5.263666,2.91215 -5.263666,6.133 0,3.21857 1.686462,5.82657 5.136558,5.82657 1.559352,0 2.939391,-0.53794 4.217288,-1.43224 0.10205,-0.0772 0.22925,-0.15435 0.22925,-0.30642 m -2.172199,-6.03086 -5.288634,0.76719 c 0.07481,-1.76363 0.79216,-3.73155 2.859948,-3.73155 1.661494,0 2.301577,1.53438 2.428686,2.96436"
       id="path2518"
       style="fill:#000000;fill-opacity:1;fill-rule:evenodd;stroke:none" />
    <path
       d="m 80.204328,105.25845 -2.095025,0 -6.055827,14.20895 -5.290904,-14.20895 -2.351512,0 6.670942,17.04393 1.225692,0 7.896634,-17.04393 z"
       id="path2522"
       style="fill:#000000;fill-opacity:1;fill-rule:nonzero;stroke:none" />
    <path
       d="m 92.69048,120.89736 c 0,-0.12711 -0.22925,-0.69002 -0.281456,-0.84437 l -0.229249,0 c -0.996443,0.64008 -2.095026,1.02368 -3.270782,1.02368 -2.505859,0 -3.577205,-1.99288 -3.654378,-4.26722 l 7.383659,-0.99645 c 0,-2.76007 -1.200724,-5.13655 -4.267224,-5.13655 -3.500031,0 -5.263666,2.91215 -5.263666,6.133 0,3.21857 1.686461,5.82657 5.136557,5.82657 1.559353,0 2.939391,-0.53794 4.217289,-1.43224 0.10205,-0.0772 0.22925,-0.15435 0.22925,-0.30642 m -2.172199,-6.03086 -5.288634,0.76719 c 0.07481,-1.76363 0.79216,-3.73155 2.862218,-3.73155 1.659224,0 2.299307,1.53438 2.426416,2.96436"
       id="path2526"
       style="fill:#000000;fill-opacity:1;fill-rule:evenodd;stroke:none" />
    <path
       d="m 106.65202,111.54351 c 0,-0.71499 -1.20072,-0.86933 -1.71143,-0.86933 -1.89074,0 -2.96436,1.99288 -3.83369,3.40016 l 0,-3.11871 -1.942951,0 0,11.34673 1.942951,0 0,-6.31231 c 0.33139,-0.53567 0.66505,-1.07362 1.02141,-1.58432 0.61284,-0.91927 1.17575,-1.76364 2.40372,-1.76364 0.43353,0 0.84209,0.10224 1.20072,0.35863 l 0.35636,0 c 0.20428,-0.4358 0.56291,-0.97147 0.56291,-1.45721"
       id="path2530"
       style="fill:#000000;fill-opacity:1;fill-rule:nonzero;stroke:none" />
    <path
       d="m 119.30842,119.13372 c 0,-3.85866 -6.21017,-3.04153 -6.21017,-5.52015 0,-1.22569 1.3301,-1.60929 2.32655,-1.60929 1.07361,0 1.7886,0.30642 2.6829,0.8943 l 0.48574,-0.20428 -0.25649,-1.45721 c -0.0251,-0.10205 -0.0499,-0.17923 -0.15217,-0.22925 -0.41083,-0.22925 -2.02012,-0.33139 -2.50586,-0.33139 -2.04282,0 -4.49647,0.91927 -4.49647,3.32071 0,3.78149 6.18293,2.73511 6.18293,5.46795 0,1.38004 -1.38003,1.76364 -2.52855,1.76364 -1.33011,0 -2.32655,-0.3836 -3.40016,-1.12355 l -0.48347,0.22925 0.27918,1.53438 c 0.0272,0.15217 0.0523,0.20428 0.20429,0.25422 0.76719,0.33366 2.1722,0.5107 3.01656,0.5107 2.1722,0 4.8551,-0.91927 4.8551,-3.50003"
       id="path2534"
       style="fill:#000000;fill-opacity:1;fill-rule:nonzero;stroke:none" />
    <path
       d="m 127.85195,105.43548 c 0,-0.66505 -0.5107,-1.22569 -1.20072,-1.22569 -0.69002,0 -1.22796,0.53567 -1.22796,1.22569 0,0.66505 0.58787,1.20072 1.22796,1.20072 l 0,-0.0249 c 0.63781,0.0249 1.20072,-0.53795 1.20072,-1.17576 m -2.19717,16.86688 1.96792,0 0,-11.34673 -1.96792,0 0,11.34673 z"
       id="path2538"
       style="fill:#000000;fill-opacity:1;fill-rule:evenodd;stroke:none" />
    <path
       d="m 144.39425,112.10642 c 0,-0.10205 0,-0.35863 -0.0772,-0.46077 -0.61285,-0.69002 -2.11999,-0.9692 -2.98933,-0.9692 -3.73155,0 -6.90019,2.70787 -6.90019,6.54156 0,3.03926 2.04509,5.41574 5.16153,5.41574 1.04864,0 2.12226,-0.27918 3.0665,-0.71498 0.35863,-0.15217 1.27789,-0.61285 1.55935,-0.8943 0.0523,-0.0499 0.0772,-0.15217 0.0772,-0.22925 l 0,-0.84437 -0.20428,-0.0748 c -1.07361,0.71498 -2.32654,1.20072 -3.62941,1.20072 -2.55579,0 -3.9086,-2.19943 -3.9086,-4.54868 0,-2.55579 1.38004,-4.3966 4.03798,-4.3966 0.99644,0 1.68646,0.28146 2.47862,0.8943 l 0.43353,0 0.73996,-0.53567 c 0.15434,-0.10223 0.15434,-0.20428 0.15434,-0.3836"
       id="path2542"
       style="fill:#000000;fill-opacity:1;fill-rule:nonzero;stroke:none" />
    <path
       d="m 160.45082,122.30236 0,-7.59021 c 0,-1.14852 -0.0499,-2.45365 -0.99644,-3.24581 -0.69002,-0.58788 -1.53439,-0.78989 -2.42869,-0.78989 -1.68646,0 -3.24354,0.76492 -4.59861,1.68646 l 0,-8.63886 -1.94295,0 0,18.57831 1.94295,0 0,-8.58665 c 0.99644,-0.71499 2.60573,-1.3528 3.85866,-1.3528 2.42641,0 2.22213,1.7886 2.22213,3.60217 l 0,6.33728 1.94295,0"
       id="path2546"
       style="fill:#000000;fill-opacity:1;fill-rule:nonzero;stroke:none" />
    <path
       d="m 176.79565,120.89736 c 0,-0.12711 -0.22925,-0.69002 -0.28146,-0.84437 l -0.22925,0 c -0.99644,0.64008 -2.09502,1.02368 -3.27078,1.02368 -2.50586,0 -3.5772,-1.99288 -3.65438,-4.26722 l 7.38366,-0.99645 c 0,-2.76007 -1.20072,-5.13655 -4.26722,-5.13655 -3.50003,0 -5.26367,2.91215 -5.26367,6.133 0,3.21857 1.68646,5.82657 5.13656,5.82657 1.55935,0 2.93939,-0.53794 4.21729,-1.43224 0.10223,-0.0772 0.22925,-0.15435 0.22925,-0.30642 m -2.1722,-6.03086 -5.28863,0.76719 c 0.0748,-1.76363 0.79216,-3.73155 2.86221,-3.73155 1.65923,0 2.29931,1.53438 2.42642,2.96436"
       id="path2550"
       style="fill:#000000;fill-opacity:1;fill-rule:evenodd;stroke:none" />
    <path
       d="m 190.75721,111.54351 c 0,-0.71499 -1.20073,-0.86933 -1.71143,-0.86933 -1.89075,0 -2.96436,1.99288 -3.83369,3.40016 l 0,-3.11871 -1.94295,0 0,11.34673 1.94295,0 0,-6.31231 c 0.33139,-0.53567 0.66505,-1.07362 1.02141,-1.58432 0.61284,-0.91927 1.17575,-1.76364 2.40371,-1.76364 0.43354,0 0.8421,0.10224 1.20073,0.35863 l 0.35636,0 c 0.20428,-0.4358 0.56291,-0.97147 0.56291,-1.45721"
       id="path2554"
       style="fill:#000000;fill-opacity:1;fill-rule:nonzero;stroke:none" />
    <path
       d="m 205.3293,122.30236 0,-11.34673 -1.94294,0 0,8.17809 c -0.99645,0.79216 -2.68291,1.81357 -4.01074,1.81357 -2.50586,0 -2.12226,-2.65793 -2.12226,-4.36936 l 0,-5.6223 -1.94068,0 0,6.38949 c 0,1.38004 -0.0523,3.0665 0.86706,4.19005 0.66505,0.79216 1.61156,1.09858 2.63297,1.09858 1.7886,0 3.22084,-0.94423 4.57365,-2.04282 l 0,1.71143 1.94294,0"
       id="path2558"
       style="fill:#000000;fill-opacity:1;fill-rule:evenodd;stroke:none" />
    <path
       d="m 223.02695,122.30236 0,-8.15085 c 0,-2.1722 -0.99644,-3.47506 -3.24581,-3.47506 -1.89074,0 -3.32072,0.89203 -4.77793,2.04282 l 0,-1.76364 -1.94295,0 0,11.34673 1.94295,0 0,-8.15085 c 1.09858,-0.84436 2.73511,-1.81584 4.16508,-1.81584 2.01786,0 1.91571,1.94295 1.91571,3.40016 l 0,6.56653 1.94295,0"
       id="path2562"
       style="fill:#000000;fill-opacity:1;fill-rule:evenodd;stroke:none" />
    <path
       d="m 241.18535,124.88314 c 0,-2.55579 -2.98932,-2.73511 -4.83013,-2.98932 -0.53567,-0.0772 -2.91215,-0.33366 -3.32072,-0.69002 -0.15434,-0.12711 -0.25649,-0.25649 -0.25649,-0.46077 0,-0.43353 0.81713,-0.56291 1.12356,-0.63782 2.55579,-0.74222 5.47021,-1.66149 5.47021,-4.88234 0,-1.14851 -0.38359,-2.07005 -1.20299,-2.88718 l 2.71014,0 0,-1.32783 -4.3444,0 c -0.61284,-0.25649 -1.22569,-0.35863 -1.89074,-0.35863 -2.63297,0 -4.67579,1.96791 -4.67579,4.62585 0,2.29931 1.30287,3.67935 3.525,4.11288 l -0.56064,0.20428 c -0.86933,0.30869 -1.91798,0.48574 -1.91798,1.61156 0,1.32783 1.45721,1.63425 2.47862,1.81357 -1.60929,0.61284 -4.44654,1.68646 -4.44654,3.78148 0,2.24938 2.83725,2.68518 4.54868,2.68518 1.02368,0 2.07006,-0.12929 3.04153,-0.3836 1.94295,-0.51297 4.54868,-1.89074 4.54868,-4.21729 m -3.73155,-9.2517 c 0,1.20299 -0.43353,2.12226 -1.55708,2.63297 -0.0772,0.0523 -0.56291,0.22925 -0.64008,0.22925 -2.24938,0 -3.34796,-1.55709 -3.34796,-3.70432 0,-1.60929 0.84437,-2.98932 2.58076,-2.98932 2.02013,0 2.96436,2.07005 2.96436,3.83142 m 1.94295,9.6353 c 0,1.45721 -1.81357,2.35151 -3.01656,2.65794 -0.61285,0.15216 -1.2257,0.22925 -1.86351,0.22925 -1.02368,0 -3.47733,-0.28146 -3.47733,-1.71143 0,-1.55936 2.47862,-2.608 3.62941,-3.14368 0.79216,0.10205 1.58432,0.20429 2.37648,0.35863 0.97147,0.17705 2.35151,0.30642 2.35151,1.60929"
       id="path2566"
       style="fill:#000000;fill-opacity:1;fill-rule:evenodd;stroke:none" />
    <path
       d="m 267.13598,122.30236 0,-18.57831 -1.96792,0 0,7.25882 c -0.76719,-0.20655 -1.45721,-0.30642 -2.24937,-0.30642 -3.88363,0 -7.10221,2.34924 -7.10221,6.43942 0,3.11644 1.81357,5.41574 5.05939,5.41574 1.60929,0 2.93712,-0.58788 4.29219,-1.38004 l 0,1.15079 1.96792,0 z m -1.96792,-2.37648 c -0.99644,0.58788 -2.11999,1.04865 -3.29575,1.04865 -2.55579,0 -4.03797,-1.94295 -4.03797,-4.3966 0,-2.73511 1.58432,-4.3444 4.31943,-4.3444 1.09858,0 2.11999,0.23152 3.01429,0.8943 l 0,6.79805"
       id="path2570"
       style="fill:#000000;fill-opacity:1;fill-rule:evenodd;stroke:none" />
    <path
       d="m 283.53072,120.89736 c 0,-0.12711 -0.22925,-0.69002 -0.28145,-0.84437 l -0.22925,0 c -0.99644,0.64008 -2.09503,1.02368 -3.27078,1.02368 -2.50586,0 -3.57721,-1.99288 -3.65438,-4.26722 l 7.38366,-0.99645 c 0,-2.76007 -1.20073,-5.13655 -4.26723,-5.13655 -3.50003,0 -5.26366,2.91215 -5.26366,6.133 0,3.21857 1.68646,5.82657 5.13656,5.82657 1.55935,0 2.93939,-0.53794 4.21728,-1.43224 0.10205,-0.0772 0.22925,-0.15435 0.22925,-0.30642 m -2.17219,-6.03086 -5.28864,0.76719 c 0.0748,-1.76363 0.79216,-3.73155 2.85995,-3.73155 1.66149,0 2.30158,1.53438 2.42869,2.96436"
       id="path2574"
       style="fill:#000000;fill-opacity:1;fill-rule:evenodd;stroke:none" />
    <path
       d="m 297.49226,111.54351 c 0,-0.71499 -1.20072,-0.86933 -1.71143,-0.86933 -1.89301,0 -2.96435,1.99288 -3.83369,3.40016 l 0,-3.11871 -1.94295,0 0,11.34673 1.94295,0 0,-6.31231 c 0.33139,-0.53567 0.66505,-1.07362 1.02141,-1.58432 0.61285,-0.91927 1.17576,-1.76364 2.40145,-1.76364 0.4358,0 0.84437,0.10224 1.20299,0.35863 l 0.35636,0 c 0.20429,-0.4358 0.56291,-0.97147 0.56291,-1.45721"
       id="path2578"
       style="fill:#000000;fill-opacity:1;fill-rule:nonzero;stroke:none" />
    <path
       d="m 351.67922,117.62658 c 0,-2.83725 -2.53083,-4.01074 -4.75296,-4.98222 -0.99645,-0.4358 -2.1722,-0.81939 -3.04154,-1.50941 -0.63781,-0.51071 -0.8943,-1.07135 -0.8943,-1.89075 0,-2.04282 1.76364,-2.86221 3.57721,-2.86221 1.12582,0 2.65793,0.38359 3.60444,1.02368 0.0499,0.0249 0.20428,0.15216 0.28146,0.15216 0.0251,0 0.075,0 0.10223,-0.0249 l 0.30642,-0.12711 c 0.0499,-0.0521 0.0499,-0.0772 0.0499,-0.12929 0,-0.43353 -0.15217,-1.09858 -0.22925,-1.53212 -0.0251,-0.22925 -0.28146,-0.33139 -0.46077,-0.38359 -0.91927,-0.30642 -2.1722,-0.40857 -3.14141,-0.40857 -2.96436,0 -6.13527,1.32784 -6.13527,4.728 0,5.39077 8.61389,4.08791 8.61389,8.40734 0,2.11999 -2.14723,2.98932 -3.96307,2.98932 -1.58205,0 -3.39789,-0.46077 -4.77792,-1.27789 -0.0499,-0.0251 -0.12711,-0.0772 -0.17923,-0.0772 -0.10205,0 -0.4585,0.15435 -0.4585,0.28146 0,0.33139 0.20428,1.22569 0.25422,1.60929 0.0523,0.30642 0.5107,0.38359 0.76719,0.46077 1.2779,0.33139 2.73511,0.53567 4.06294,0.53567 3.0665,0 6.41446,-1.48218 6.41446,-4.98221"
       id="path2582"
       style="fill:#000000;fill-opacity:1;fill-rule:nonzero;stroke:none" />
    <path
       d="m 369.65602,115.96508 c 0,-3.09147 -1.81358,-5.28863 -5.00945,-5.28863 -1.55709,0 -2.96436,0.53567 -4.34213,1.20072 l 0,-0.71499 c 0,-0.17922 -0.10441,-0.20655 -0.25649,-0.20655 l -1.48218,0 c -0.1794,0 -0.20428,0.0272 -0.20428,0.20655 l 0,17.91327 c 0,0.17704 0.0249,0.20428 0.20428,0.20428 l 1.50715,0 c 0.17922,0 0.23152,-0.0272 0.23152,-0.20428 l 0,-6.9002 c 0.84209,0.20429 1.60929,0.35636 2.47862,0.35636 3.78149,0 6.87296,-2.6829 6.87296,-6.56653 m -2.01786,0.56291 c 0,2.73284 -1.7137,4.44654 -4.44654,4.44654 -1.04864,0 -1.94294,-0.20428 -2.88718,-0.64008 l 0,-7.17938 c 1.02141,-0.58788 2.16993,-0.92154 3.34568,-0.92154 2.50586,0 3.98804,1.89074 3.98804,4.29446"
       id="path2586"
       style="fill:#000000;fill-opacity:1;fill-rule:evenodd;stroke:none" />
    <path
       d="m 387.30373,121.48524 0,-0.91927 -0.12711,-0.0523 c -0.51071,0.28146 -1.04865,0.5107 -1.63653,0.5107 -0.63781,0 -0.66505,-0.43353 -0.66505,-0.97147 0,-1.86351 0.0523,-3.72928 0.0772,-5.59506 0.025,-1.27789 -0.0251,-2.58076 -1.2779,-3.27078 -0.76492,-0.4358 -1.55935,-0.5107 -2.42642,-0.5107 -1.3301,0 -3.55224,0.38359 -4.57591,1.30286 -0.0748,0.0772 -0.12711,0.15199 -0.12711,0.25422 l 0.0251,0.0272 0.0772,1.20072 0.61284,0.12711 c 0.89431,-1.14852 1.89302,-1.42997 3.29802,-1.42997 0.86707,0 2.09503,0.15198 2.40145,1.14851 0.15435,0.51071 0.12711,1.33011 0.12711,1.89075 l 0,0.51297 c -1.71143,0.22925 -3.4501,0.51071 -5.10932,0.99645 -1.45721,0.43353 -2.07006,1.09858 -2.07006,2.65793 0,1.89074 0.94424,3.19361 2.91216,3.19361 1.43224,0 3.09146,-0.51071 4.42157,-0.99644 0.17922,0.66278 0.58788,0.99644 1.27789,0.99644 0.48574,0 2.78505,-0.58788 2.78505,-1.07362 m -4.26722,-1.04864 c -1.04865,0.30642 -2.14724,0.61511 -3.24582,0.61511 -1.25293,0 -1.99288,-0.56291 -1.99288,-1.86577 0,-1.07362 0.43353,-1.25293 1.38004,-1.53439 1.25065,-0.38359 2.55579,-0.63781 3.85866,-0.79216 l 0,3.57721"
       id="path2590"
       style="fill:#000000;fill-opacity:1;fill-rule:evenodd;stroke:none" />
    <path
       d="m 400.62971,111.54351 c 0,-0.71499 -1.20073,-0.86933 -1.71143,-0.86933 -1.89075,0 -2.96436,1.99288 -3.8337,3.40016 l 0,-3.11871 -1.94294,0 0,11.34673 1.94294,0 0,-6.31231 c 0.3314,-0.53567 0.66506,-1.07362 1.02141,-1.58432 0.61512,-0.91927 1.17576,-1.76364 2.40372,-1.76364 0.43353,0 0.8421,0.10224 1.20073,0.35863 l 0.35636,0 c 0.20428,-0.4358 0.56291,-0.97147 0.56291,-1.45721"
       id="path2594"
       style="fill:#000000;fill-opacity:1;fill-rule:nonzero;stroke:none" />
    <path
       d="m 415.84214,122.30236 -6.28734,-6.46439 6.03312,-4.88234 -2.65793,0 -5.57236,5.21373 5.77664,6.133 2.70787,0 z m -10.55457,0 1.94295,0 0,-18.57831 -1.94295,0 0,18.57831 z"
       id="path2598"
       style="fill:#000000;fill-opacity:1;fill-rule:evenodd;stroke:none" />
    <path
       d="m 431.74618,121.48524 0,-0.91927 -0.12711,-0.0523 c -0.51071,0.28146 -1.04865,0.5107 -1.63653,0.5107 -0.63781,0 -0.66505,-0.43353 -0.66505,-0.97147 0,-1.86351 0.0523,-3.72928 0.0772,-5.59506 0.0272,-1.27789 -0.0251,-2.58076 -1.27789,-3.27078 -0.7672,-0.4358 -1.55709,-0.5107 -2.42642,-0.5107 -1.3301,0 -3.55224,0.38359 -4.57365,1.30286 -0.0772,0.0772 -0.12928,0.15199 -0.12928,0.25422 l 0.0272,0.0272 0.0748,1.20072 0.61511,0.12711 c 0.89203,-1.14852 1.89074,-1.42997 3.29575,-1.42997 0.86933,0 2.09503,0.15198 2.40145,1.14851 0.15435,0.51071 0.12711,1.33011 0.12711,1.89075 l 0,0.51297 c -1.71143,0.22925 -3.44783,0.51071 -5.10932,0.99645 -1.45721,0.43353 -2.07006,1.09858 -2.07006,2.65793 0,1.89074 0.94424,3.19361 2.91215,3.19361 1.43225,0 3.09374,-0.51071 4.42157,-0.99644 0.17923,0.66278 0.58788,0.99644 1.2779,0.99644 0.48574,0 2.78505,-0.58788 2.78505,-1.07362 m -4.26723,-1.04864 c -1.04865,0.30642 -2.14723,0.61511 -3.24581,0.61511 -1.25293,0 -1.99289,-0.56291 -1.99289,-1.86577 0,-1.07362 0.43354,-1.25293 1.38004,-1.53439 1.25293,-0.38359 2.5558,-0.63781 3.85866,-0.79216 l 0,3.57721"
       id="path2602"
       style="fill:#000000;fill-opacity:1;fill-rule:evenodd;stroke:none" />
    <path
       d="m 444.86811,119.13372 c 0,-3.85866 -6.21017,-3.04153 -6.21017,-5.52015 0,-1.22569 1.3301,-1.60929 2.32654,-1.60929 1.07362,0 1.7886,0.30642 2.6829,0.8943 l 0.48574,-0.20428 -0.25649,-1.45721 c -0.0249,-0.10205 -0.0499,-0.17923 -0.15198,-0.22925 -0.40857,-0.22925 -2.02012,-0.33139 -2.50586,-0.33139 -2.04282,0 -4.49648,0.91927 -4.49648,3.32071 0,3.78149 6.18294,2.73511 6.18294,5.46795 0,1.38004 -1.38004,1.76364 -2.52856,1.76364 -1.3301,0 -2.32654,-0.3836 -3.40016,-1.12355 l -0.48347,0.22925 0.27919,1.53438 c 0.0272,0.15217 0.0523,0.20428 0.20428,0.25422 0.76719,0.33366 2.1722,0.5107 3.01657,0.5107 2.1722,0 4.8551,-0.91927 4.8551,-3.50003"
       id="path2606"
       style="fill:#000000;fill-opacity:1;fill-rule:nonzero;stroke:none" />
    <path
       d="m 458.52346,119.13372 c 0,-3.85866 -6.21017,-3.04153 -6.21017,-5.52015 0,-1.22569 1.3301,-1.60929 2.32654,-1.60929 1.07362,0 1.78861,0.30642 2.68291,0.8943 l 0.48573,-0.20428 -0.25648,-1.45721 c -0.0249,-0.10205 -0.0499,-0.17923 -0.15199,-0.22925 -0.40856,-0.22925 -2.02012,-0.33139 -2.50586,-0.33139 -2.04282,0 -4.49647,0.91927 -4.49647,3.32071 0,3.78149 6.18293,2.73511 6.18293,5.46795 0,1.38004 -1.38004,1.76364 -2.52855,1.76364 -1.33011,0 -2.32655,-0.3836 -3.40016,-1.12355 l -0.48574,0.22925 0.28145,1.53438 c 0.0272,0.15217 0.0523,0.20428 0.20429,0.25422 0.76719,0.33366 2.17219,0.5107 3.01656,0.5107 2.1722,0 4.8551,-0.91927 4.8551,-3.50003"
       id="path2610"
       style="fill:#000000;fill-opacity:1;fill-rule:nonzero;stroke:none" />
    <path
       d="m 473.55862,120.89736 c 0,-0.12711 -0.22925,-0.69002 -0.28146,-0.84437 l -0.22925,0 c -0.99644,0.64008 -2.09502,1.02368 -3.27078,1.02368 -2.50359,0 -3.57721,-1.99288 -3.65438,-4.26722 l 7.38593,-0.99645 c 0,-2.76007 -1.20299,-5.13655 -4.26949,-5.13655 -3.50003,0 -5.26367,2.91215 -5.26367,6.133 0,3.21857 1.68646,5.82657 5.13656,5.82657 1.55935,0 2.93939,-0.53794 4.21729,-1.43224 0.10205,-0.0772 0.22925,-0.15435 0.22925,-0.30642 m -2.1722,-6.03086 -5.28864,0.76719 c 0.0748,-1.76363 0.79216,-3.73155 2.86222,-3.73155 1.65923,0 2.29931,1.53438 2.42642,2.96436"
       id="path2614"
       style="fill:#000000;fill-opacity:1;fill-rule:evenodd;stroke:none" />
    <path
       d="m 489.99854,122.30236 0,-8.15085 c 0,-2.1722 -0.99644,-3.47506 -3.24581,-3.47506 -1.89075,0 -3.32072,0.89203 -4.77793,2.04282 l 0,-1.76364 -1.94295,0 0,11.34673 1.94295,0 0,-8.15085 c 1.09858,-0.84436 2.73511,-1.81584 4.16508,-1.81584 2.01785,0 1.91571,1.94295 1.91571,3.40016 l 0,6.56653 1.94295,0"
       id="path2618"
       style="fill:#000000;fill-opacity:1;fill-rule:evenodd;stroke:none" />
    <path
       d="m 309.67201,117.1749 0,-6.1625 c 0,0 0.23833,-2.17901 2.51948,-2.17901 l 12.59739,0 c 0,0 2.52856,-0.25876 2.51948,2.14496 l 0,1.7364 -13.48262,0 0,1.32783 13.48262,0 0,5.78799 c 0,0 0.1498,2.55352 -2.28115,2.55352 l -12.93786,0 c 0,0 -2.41734,0.0681 -2.41734,-2.48543 l 0,-1.36188 13.78904,0 0,-1.36188 -13.78904,0"
       id="path2622"
       style="fill:#e2001a;fill-opacity:1;fill-rule:nonzero;stroke:none" />
    <path
       d="m 309.67201,117.1749 0,-6.1625 c 0,0 0.23833,-2.17901 2.51948,-2.17901 l 12.59739,0 c 0,0 2.52856,-0.25876 2.51948,2.14496 l 0,1.7364 -13.48262,0 0,1.32783 13.48262,0 0,5.78799 c 0,0 0.1498,2.55352 -2.28115,2.55352 l -12.93786,0 c 0,0 -2.41734,0.0681 -2.41734,-2.48543 l 0,-1.36188 13.78904,0 0,-1.36188 -13.78904,0 z"
       id="path2626"
       style="fill:none;stroke:#e2001a;stroke-width:0.158886;stroke-linecap:butt;stroke-linejoin:miter;stroke-miterlimit:3.86400008;stroke-opacity:1;stroke-dasharray:none" />
    <path
       d="m 315.51902,103.8194 c 0,-1.59794 1.29605,-2.894 2.89399,-2.894 1.59794,0 2.894,1.29606 2.894,2.894 0,1.59794 -1.29606,2.89399 -2.894,2.89399 -1.59794,0 -2.89399,-1.29605 -2.89399,-2.89399"
       id="path2630"
       style="fill:#e2001a;fill-opacity:1;fill-rule:nonzero;stroke:none" />
    <path
       d="m 315.51902,103.8194 c 0,-1.59794 1.29605,-2.894 2.89399,-2.894 1.59794,0 2.894,1.29606 2.894,2.894 0,1.59794 -1.29606,2.89399 -2.894,2.89399 -1.59794,0 -2.89399,-1.29605 -2.89399,-2.89399 z"
       id="path2634"
       style="fill:none;stroke:#e2001a;stroke-width:0.158886;stroke-linecap:butt;stroke-linejoin:miter;stroke-miterlimit:3.86400008;stroke-opacity:1;stroke-dasharray:none" />
  </g>
</svg>
