<svg xmlns="http://www.w3.org/2000/svg" viewBox="0 -0.003417970146983862 187.89801025390625 48.00341796875"><g xmlns="http://www.w3.org/2000/svg" clip-path="url(#clip0_6491_75555)">
<path d="M69.7823 21.7823L65.5667 14.1241H63.8591V21.7823H59.7604V2.42218H67.5353C68.8649 2.42218 70.0125 2.6455 70.9813 3.09214C71.9502 3.53878 72.6889 4.18812 73.2008 5.04361C73.7127 5.8991 73.9704 6.92293 73.9704 8.11855C73.9704 9.52375 73.5959 10.6988 72.8469 11.6504C72.0979 12.6021 71.0294 13.2652 69.6449 13.6431L74.3449 21.7857H69.7891L69.7823 21.7823ZM63.8591 5.95063V10.8774H67.0475C67.903 10.8774 68.5557 10.6644 69.0127 10.2384C69.4696 9.81234 69.6964 9.19048 69.6964 8.37279C69.6964 7.5551 69.4696 6.90232 69.0127 6.52096C68.5557 6.13959 67.8926 5.95063 67.02 5.95063H63.8591Z" fill="#2B2D33"></path>
<path d="M86.0983 6.7202H89.9978V21.7823H86.0983V19.9888C85.6036 20.6725 84.9783 21.2085 84.219 21.5967C83.4597 21.985 82.6042 22.1808 81.656 22.1808C80.4226 22.1808 79.3197 21.8441 78.3543 21.1707C77.3854 20.4973 76.633 19.5559 76.0902 18.35C75.5473 17.1441 75.2794 15.7835 75.2794 14.265C75.2794 12.7464 75.5508 11.3549 76.0902 10.149C76.6296 8.94309 77.3854 8.00514 78.3543 7.33175C79.3232 6.65835 80.4226 6.32166 81.656 6.32166C82.6042 6.32166 83.4597 6.52093 84.219 6.91946C84.9783 7.318 85.6036 7.86084 86.0983 8.54455V6.7202ZM84.5591 18.137C85.0711 17.7969 85.4765 17.2952 85.7685 16.6425C86.064 15.9862 86.2083 15.196 86.2083 14.265C86.2083 13.3339 86.0605 12.5437 85.7685 11.8875C85.473 11.2347 85.0711 10.7331 84.5591 10.3929C84.0472 10.0528 83.4597 9.88103 82.7932 9.88103C82.1267 9.88103 81.5357 10.0528 81.0135 10.3929C80.4913 10.7331 80.0893 11.2347 79.8042 11.8875C79.519 12.5437 79.3781 13.3339 79.3781 14.265C79.3781 15.196 79.519 15.9862 79.8042 16.6425C80.0893 17.2952 80.4913 17.7969 81.0135 18.137C81.5357 18.4806 82.1301 18.6489 82.7932 18.6489C83.4563 18.6489 84.0472 18.4771 84.5591 18.137Z" fill="#2B2D33"></path>
<path d="M93.6603 3.97167C93.2342 3.54565 93.0212 2.98907 93.0212 2.30536C93.0212 1.62166 93.2342 1.06508 93.6603 0.639056C94.0863 0.21303 94.6429 -0.00341797 95.3266 -0.00341797C96.0103 -0.00341797 96.56 0.209595 96.9791 0.639056C97.3949 1.06508 97.6044 1.62166 97.6044 2.30536C97.6044 2.98907 97.3949 3.54565 96.9791 3.97167C96.56 4.3977 96.0103 4.61415 95.3266 4.61415C94.6429 4.61415 94.0863 4.40113 93.6603 3.97167ZM97.2334 21.7823H93.3339V6.72022H97.2334V21.7823Z" fill="#2B2D33"></path>
<path d="M105.575 6.72018H109.705V10.1387H105.575V21.7857H101.676V10.1387H99.1127V6.72018H101.676V5.80972C101.676 4.15716 102.15 2.89626 103.098 2.0236C104.046 1.15093 105.348 0.7146 106.998 0.7146C107.606 0.7146 108.183 0.769571 108.736 0.886384C109.286 0.999762 109.791 1.15437 110.244 1.34333L109.248 4.33238C108.736 4.1228 108.176 4.01973 107.568 4.01973C106.864 4.01973 106.359 4.18121 106.046 4.50416C105.733 4.82712 105.575 5.32186 105.575 5.98495V6.72362V6.72018Z" fill="#2B2D33"></path>
<path d="M115.542 6.72018H119.672V10.1387H115.542V21.7857H111.643V10.1387H109.08V6.72018H111.643V5.80972C111.643 4.15716 112.117 2.89626 113.065 2.0236C114.013 1.15093 115.315 0.7146 116.965 0.7146C117.573 0.7146 118.15 0.769571 118.703 0.886384C119.253 0.999762 119.758 1.15437 120.211 1.34333L119.215 4.33238C118.703 4.1228 118.143 4.01973 117.535 4.01973C116.831 4.01973 116.326 4.18121 116.013 4.50416C115.7 4.82712 115.542 5.32186 115.542 5.98495V6.72362V6.72018Z" fill="#2B2D33"></path>
<path d="M134.847 15.6324H124.681C124.815 16.773 125.183 17.5976 125.791 18.1095C126.399 18.6214 127.289 18.8791 128.467 18.8791C129.282 18.8791 130.037 18.7623 130.731 18.5252C131.425 18.2881 132.027 17.9514 132.539 17.5151L134.219 20.1915C133.459 20.8374 132.576 21.3322 131.57 21.6723C130.563 22.0124 129.481 22.1842 128.323 22.1842C126.691 22.1842 125.286 21.8716 124.107 21.2463C122.929 20.621 122.032 19.7174 121.417 18.5424C120.799 17.3639 120.493 15.969 120.493 14.3577C120.493 12.7464 120.795 11.3584 121.403 10.1421C122.012 8.92589 122.871 7.98795 123.98 7.32142C125.09 6.65833 126.358 6.32507 127.78 6.32507C129.203 6.32507 130.446 6.64803 131.511 7.29394C132.573 7.93985 133.394 8.86061 133.975 10.0562C134.552 11.2519 134.844 12.657 134.844 14.2718V15.6392L134.847 15.6324ZM124.681 12.956H130.917C130.821 11.8359 130.508 11.001 129.979 10.4513C129.446 9.90162 128.725 9.62677 127.814 9.62677C125.994 9.62677 124.949 10.7365 124.681 12.9594V12.956Z" fill="#2B2D33"></path>
<path d="M137.568 3.97167C137.142 3.54565 136.929 2.98907 136.929 2.30536C136.929 1.62166 137.142 1.06508 137.568 0.639056C137.994 0.21303 138.551 -0.00341797 139.235 -0.00341797C139.918 -0.00341797 140.468 0.209595 140.887 0.639056C141.303 1.06508 141.513 1.62166 141.513 2.30536C141.513 2.98907 141.303 3.54565 140.887 3.97167C140.468 4.3977 139.918 4.61415 139.235 4.61415C138.551 4.61415 137.994 4.40113 137.568 3.97167ZM141.141 21.7823H137.242V6.72022H141.141V21.7823Z" fill="#2B2D33"></path>
<path d="M146.123 21.6826C145.058 21.3494 144.158 20.834 143.419 20.1297L145.24 17.3399C146.36 18.4015 147.783 18.9341 149.511 18.9341C150.27 18.9341 150.844 18.8173 151.232 18.5768C151.62 18.3397 151.816 17.9824 151.816 17.5083C151.816 17.1097 151.641 16.7833 151.291 16.5256C150.94 16.268 150.298 16.0275 149.37 15.8007C148.174 15.5362 147.192 15.2407 146.422 14.9177C145.653 14.5948 145.031 14.1378 144.557 13.5503C144.083 12.9628 143.845 12.1932 143.845 11.245C143.845 10.2383 144.103 9.36568 144.615 8.627C145.127 7.88833 145.859 7.318 146.807 6.91946C147.755 6.52093 148.858 6.32166 150.109 6.32166C151.284 6.32166 152.373 6.49344 153.369 6.83357C154.366 7.17371 155.214 7.67875 155.918 8.34184L154.098 11.0182C153.586 10.5441 152.978 10.1834 152.277 9.936C151.576 9.68863 150.844 9.56494 150.085 9.56494C149.325 9.56494 148.813 9.67832 148.432 9.90851C148.051 10.1353 147.862 10.4788 147.862 10.9323C147.862 11.1969 147.941 11.4202 148.102 11.6023C148.264 11.7844 148.542 11.9562 148.944 12.128C149.346 12.2998 149.913 12.4681 150.652 12.6399C151.675 12.8873 152.558 13.1827 153.3 13.5229C154.043 13.863 154.647 14.3474 155.121 14.9762C155.596 15.6014 155.833 16.3985 155.833 17.3674C155.833 18.3363 155.585 19.1814 155.09 19.9029C154.596 20.6244 153.874 21.1844 152.926 21.583C151.978 21.9815 150.837 22.1808 149.507 22.1808C148.312 22.1808 147.182 22.0159 146.12 21.6826H146.123Z" fill="#2B2D33"></path>
<path d="M171.778 15.6324H161.611C161.745 16.773 162.113 17.5976 162.721 18.1095C163.329 18.6214 164.219 18.8791 165.397 18.8791C166.212 18.8791 166.968 18.7623 167.662 18.5252C168.356 18.2881 168.957 17.9514 169.469 17.5151L171.149 20.1915C170.389 20.8374 169.507 21.3322 168.5 21.6723C167.493 22.0124 166.411 22.1842 165.253 22.1842C163.621 22.1842 162.216 21.8716 161.038 21.2463C159.859 20.621 158.962 19.7174 158.347 18.5424C157.729 17.3639 157.423 15.969 157.423 14.3577C157.423 12.7464 157.726 11.3584 158.334 10.1421C158.942 8.92589 159.801 7.98795 160.91 7.32142C162.02 6.65833 163.288 6.32507 164.71 6.32507C166.133 6.32507 167.376 6.64803 168.441 7.29394C169.503 7.93985 170.324 8.86061 170.905 10.0562C171.482 11.2519 171.774 12.657 171.774 14.2718V15.6392L171.778 15.6324ZM161.611 12.956H167.847C167.751 11.8359 167.438 11.001 166.909 10.4513C166.377 9.90162 165.655 9.62677 164.745 9.62677C162.924 9.62677 161.879 10.7365 161.611 12.9594V12.956Z" fill="#2B2D33"></path>
<path d="M185.376 7.0191C186.183 7.48292 186.805 8.16318 187.242 9.05646C187.678 9.94974 187.898 11.0217 187.898 12.2757V21.7857H183.967V12.7601C183.967 11.7913 183.744 11.0663 183.297 10.5819C182.851 10.0975 182.174 9.85698 181.26 9.85698C180.576 9.85698 179.975 10.0081 179.453 10.3139C178.931 10.6197 178.47 11.0732 178.072 11.6813V21.7891H174.172V6.7202H178.072V8.48614C178.546 7.80244 179.168 7.26991 179.937 6.89198C180.707 6.51405 181.566 6.32166 182.514 6.32166C183.614 6.32166 184.569 6.55528 185.376 7.0191Z" fill="#2B2D33"></path>
<path d="M73.2008 39.1875C73.7505 39.9742 74.0254 40.9397 74.0254 42.0769C74.0254 43.8428 73.4585 45.2068 72.3316 46.1619C71.2012 47.1205 69.6036 47.6015 67.5353 47.6015H59.7604V28.2379H66.8516C68.9027 28.2379 70.4866 28.6777 71.6066 29.5607C72.7267 30.4436 73.2867 31.6908 73.2867 33.3056C73.2867 35.2227 72.4621 36.6004 70.8095 37.4352C71.854 37.8166 72.6511 38.4007 73.2008 39.1875ZM63.8591 31.7114V36.2396H66.5356C67.4082 36.2396 68.0507 36.0507 68.4561 35.6693C68.8649 35.2914 69.0677 34.7314 69.0677 33.9893C69.0677 33.175 68.8478 32.5909 68.4114 32.2371C67.9751 31.8866 67.3189 31.7114 66.4462 31.7114H63.8557H63.8591ZM67.0475 44.1245C67.9407 44.1245 68.6073 43.9356 69.0539 43.5542C69.5006 43.1763 69.7239 42.5682 69.7239 41.7333C69.7239 40.9534 69.5109 40.3762 69.0848 39.9948C68.6588 39.6169 67.9511 39.4245 66.965 39.4245H63.8626V44.1245H67.0509H67.0475Z" fill="#2B2D33"></path>
<path d="M86.356 32.5394H90.2555V47.6015H86.356V45.808C85.8613 46.4917 85.236 47.0277 84.4767 47.4159C83.7174 47.8042 82.8619 48 81.9137 48C80.6803 48 79.5774 47.6633 78.612 46.9899C77.6431 46.3165 76.8907 45.3751 76.3479 44.1692C75.805 42.9633 75.537 41.6028 75.537 40.0842C75.537 38.5656 75.8085 37.1742 76.3479 35.9682C76.8873 34.7623 77.6431 33.8244 78.612 33.151C79.5809 32.4776 80.6803 32.1409 81.9137 32.1409C82.8619 32.1409 83.7174 32.3401 84.4767 32.7387C85.236 33.1372 85.8613 33.6801 86.356 34.3638V32.5394ZM84.8168 43.9562C85.3288 43.6161 85.7342 43.1145 86.0262 42.4617C86.3217 41.8055 86.466 41.0152 86.466 40.0842C86.466 39.1531 86.3182 38.3629 86.0262 37.7067C85.7307 37.0539 85.3288 36.5523 84.8168 36.2122C84.3049 35.872 83.7174 35.7002 83.0509 35.7002C82.3844 35.7002 81.7934 35.872 81.2712 36.2122C80.749 36.5523 80.347 37.0539 80.0618 37.7067C79.7767 38.3629 79.6358 39.1531 79.6358 40.0842C79.6358 41.0152 79.7767 41.8055 80.0618 42.4617C80.347 43.1145 80.749 43.6161 81.2712 43.9562C81.7934 44.2998 82.3878 44.4681 83.0509 44.4681C83.714 44.4681 84.3049 44.2963 84.8168 43.9562Z" fill="#2B2D33"></path>
<path d="M104.792 32.8383C105.599 33.3022 106.221 33.9824 106.657 34.8757C107.094 35.769 107.314 36.8409 107.314 38.0949V47.6049H103.383V38.5794C103.383 37.6105 103.16 36.8856 102.713 36.4011C102.267 35.9167 101.59 35.6762 100.676 35.6762C99.9923 35.6762 99.391 35.8274 98.8688 36.1332C98.3466 36.4389 97.8862 36.8925 97.4876 37.5006V47.6084H93.5881V32.5463H97.4876V34.3123C97.9618 33.6285 98.5836 33.096 99.3532 32.7181C100.123 32.3402 100.982 32.1478 101.93 32.1478C103.029 32.1478 103.985 32.3814 104.792 32.8452V32.8383Z" fill="#2B2D33"></path>
<path d="M118.019 39.5723L124.056 47.6015H119.387L114.233 40.7679V47.6015H110.334V27.1007H114.233V38.6618L119.133 32.5394H123.774L118.023 39.5723H118.019Z" fill="#2B2D33"></path>
<path d="M45.1793 2.41876H0V47.6015H45.1793V2.41876Z" fill="#FEE600"></path>
<path fill-rule="evenodd" clip-rule="evenodd" d="M32.67 21.7995L38.4282 16.0413L39.9674 17.5805L39.9777 17.5702C39.9777 16.5807 39.6857 13.1793 36.9543 10.5167C33.8965 7.53451 30.8353 9.27984 29.7771 10.3312L24.2319 15.8764L25.6062 17.2506L22.5897 20.2672L19.5731 17.2506L20.9474 15.8764L15.4022 10.3312C14.3475 9.2764 11.2863 7.53451 8.22507 10.5167C5.49369 13.1793 5.20166 16.5807 5.20166 17.5702L5.21197 17.5805L6.75116 16.0413L12.5094 21.7995L14.0967 20.2122V16.4192L15.7286 18.0511V22.6378L17.9755 24.8847L6.31482 36.5455L10.929 41.1596L22.5897 29.4989L34.2504 41.1596L38.8645 36.5455L27.2038 24.8847L29.4507 22.6378V18.0511L31.0827 16.4192V20.2122L32.67 21.7995Z" fill="#2B2D33"></path>
</g></svg>