<?xml version="1.0" encoding="UTF-8" standalone="no"?>
<!-- Created with Inkscape (http://www.inkscape.org/) -->
<svg
   xmlns:dc="http://purl.org/dc/elements/1.1/"
   xmlns:cc="http://creativecommons.org/ns#"
   xmlns:rdf="http://www.w3.org/1999/02/22-rdf-syntax-ns#"
   xmlns:svg="http://www.w3.org/2000/svg"
   xmlns="http://www.w3.org/2000/svg"
   xmlns:sodipodi="http://sodipodi.sourceforge.net/DTD/sodipodi-0.dtd"
   xmlns:inkscape="http://www.inkscape.org/namespaces/inkscape"
   id="svg2"
   sodipodi:version="0.32"
   inkscape:version="0.46"
   width="354.32999"
   height="51.904751"
   xml:space="preserve"
   sodipodi:docname="Raiffeisen_2006_4C_SZone.svg"
   version="1.0"
   inkscape:output_extension="org.inkscape.output.svg.inkscape"><metadata
     id="metadata7"><rdf:RDF><cc:Work
         rdf:about=""><dc:format>image/svg+xml</dc:format><dc:type
           rdf:resource="http://purl.org/dc/dcmitype/StillImage" /></cc:Work></rdf:RDF></metadata><defs
     id="defs5"><inkscape:perspective
       sodipodi:type="inkscape:persp3d"
       inkscape:vp_x="0 : 526.18109 : 1"
       inkscape:vp_y="0 : 1000 : 0"
       inkscape:vp_z="744.09448 : 526.18109 : 1"
       inkscape:persp3d-origin="372.04724 : 350.78739 : 1"
       id="perspective9" /><clipPath
       clipPathUnits="userSpaceOnUse"
       id="clipPath19"><path
         d="M 0,1225 L 0,0 L 3408.83,0 L 3408.83,1225 L 0,1225 z"
         id="path21" /></clipPath></defs><sodipodi:namedview
     inkscape:window-height="977"
     inkscape:window-width="1680"
     inkscape:pageshadow="2"
     inkscape:pageopacity="0.0"
     guidetolerance="10.0"
     gridtolerance="10.0"
     objecttolerance="10.0"
     borderopacity="1.0"
     bordercolor="#666666"
     pagecolor="#ffffff"
     id="base"
     showgrid="false"
     showborder="true"
     inkscape:zoom="4"
     inkscape:cx="172.375"
     inkscape:cy="28.625"
     inkscape:window-x="0"
     inkscape:window-y="24"
     inkscape:current-layer="g11" /><g
     id="g11"
     inkscape:groupmode="layer"
     inkscape:label="Raiffeisen_2006_4C_SZone"
     transform="matrix(1.25,0,0,-1.25,-35.96,102.61912)"><path
       id="path27"
       style="fill:#ee2722;fill-opacity:1;fill-rule:evenodd;stroke:none"
       d="M 312.232,41.1145 L 309.029,41.1145 L 295.982,60.5176 C 293.521,64.1895 291.002,68.2652 291.002,68.2652 C 291.002,68.2652 291.117,64.1895 291.117,60.5176 L 291.117,41.1145 L 284.479,41.1145 L 284.479,74.7496 C 284.479,76.4703 284.309,77.4469 283.793,78.65 C 283.049,80.2574 281.902,81.3668 281.902,81.3668 L 291.172,81.3668 L 300.559,67.691 C 303.076,64.0742 305.768,59.8301 305.768,59.8301 C 305.768,59.8301 305.596,64.0742 305.596,67.691 L 305.596,81.3668 L 312.232,81.3668 L 312.232,41.1145 z M 36.7219,41.1145 L 28.768,41.1145 L 28.768,81.7496 C 35.1773,81.7496 39.0113,82.0953 42.043,82.0953 C 50.2836,82.0953 56.293,78.5367 56.293,69.7555 C 56.293,64.4766 53.0883,60.3457 48.3953,59.0828 C 48.3953,59.0828 49.5969,57.6477 50.3406,55.9836 L 57.2645,41.1145 L 48.3383,41.1145 L 40.6699,57.6477 C 38.7246,61.8379 37.4656,62.6973 37.4656,62.6973 C 38.2672,62.6406 39.0113,62.6406 39.6402,62.6406 C 45.4199,62.6406 48.166,65.2812 48.166,69.527 C 48.166,73.773 45.134,75.6676 40.6699,75.6676 C 38.3242,75.6676 36.7219,75.4957 36.7219,75.4957 L 36.7219,41.1145 z M 205.777,81.3668 L 213.732,81.3668 L 213.729,41.1145 L 205.777,41.1145 L 205.777,81.3668 z M 275.438,47.8328 L 273.834,41.1145 L 253.748,41.1145 L 253.748,81.3492 L 274.98,81.3492 L 273.434,74.7496 L 261.646,74.7496 L 261.646,64.707 L 272.92,64.707 L 271.375,58.2219 L 261.646,58.2219 L 261.646,47.8328 L 275.438,47.8328 z M 125.606,58.2219 L 125.606,41.1145 L 117.709,41.1145 L 117.709,81.3668 L 138.939,81.3668 L 137.452,74.7496 L 125.606,74.7496 L 125.606,64.707 L 136.879,64.707 L 135.391,58.2219 L 125.606,58.2219 z M 154.391,58.2219 L 154.391,41.1145 L 146.378,41.1145 L 146.378,81.3668 L 167.609,81.3668 L 166.121,74.7496 L 154.391,74.7496 L 154.391,64.707 L 165.606,64.707 L 164.118,58.2219 L 154.391,58.2219 z M 98.8816,81.3668 L 106.836,81.3668 L 106.836,41.1145 L 98.8816,41.1145 L 98.8816,81.3668 z M 196.965,47.8328 L 195.363,41.1145 L 175.277,41.1145 L 175.277,81.3668 L 196.508,81.3668 L 194.906,74.7496 L 183.176,74.7496 L 183.176,64.707 L 194.449,64.707 L 192.902,58.2219 L 183.176,58.2219 L 183.176,47.8328 L 196.965,47.8328 z M 93.3605,41.1145 L 84.5473,41.1145 L 82.4301,48.6379 L 70.1977,48.6379 L 68.1379,41.1145 L 60.7559,41.1145 L 71.3992,76.2398 C 71.6859,77.2164 71.8578,77.7906 71.8578,78.3648 C 71.8578,79.9723 70.7133,81.3668 70.7133,81.3668 L 80.4414,81.3668 L 93.3605,41.1145 z M 81.0281,54.4324 L 77.4016,67.0992 C 76.8863,68.8785 76.3129,71.6617 76.3129,71.6617 C 76.3129,71.6617 75.7418,68.8785 75.227,67.0992 L 71.6289,54.4324 L 81.0281,54.4324 z M 223.994,49.2004 C 223.994,49.2004 226.496,47.0145 231.461,47.0145 C 235.455,47.0145 237.396,49.3699 237.396,52.2449 C 237.396,55.0066 234.957,56.6223 232.74,57.827 L 229.615,59.5242 C 224.59,62.2539 222.449,65.6348 222.449,69.8648 C 222.449,77.4 227.516,82.0953 234.781,82.0953 C 240.686,82.0953 244.148,80.0816 244.148,80.0816 L 242.615,73.4684 C 240.686,75.1363 238.344,75.7105 235.789,75.7105 C 232.326,75.7105 230.33,73.523 230.33,70.7613 C 230.33,68.5328 231.545,67.2594 233.531,66.2242 L 237.393,64.2109 C 243.479,61.041 245.566,57.7117 245.566,52.9973 C 245.566,45.3215 240.066,40.5715 231.746,40.5715 C 225.584,40.5715 222.381,42.4016 222.381,42.4016 L 223.994,49.2004" /></g></svg>