<svg xmlns="http://www.w3.org/2000/svg" xml:space="preserve" height="600" width="900" version="1.0">
    <path d="M0 0h900v600H0z"/>
    <path style="fill:#d00" d="M0 200h900v400H0z"/>
    <path style="fill:#ffce00" d="M0 400h900v200H0z"/>
    <path d="M25.648 129.832V353.06c0 115.176 94.631 188.297 196.022 188.297 101.39 0 196.022-73.12 196.022-188.297V129.832c-67.594-14.484-128.429-19.313-196.022-19.313-67.594 0-128.428 4.829-196.022 19.313z" style="fill:#fff;stroke:#000;stroke-width:2.8125;stroke-linecap:butt;stroke-linejoin:round;stroke-miterlimit:4;stroke-dasharray:none;stroke-opacity:1" transform="matrix(.5329 0 0 .533 6.548 20.172)"/>
    <path style="fill:#fff;stroke:#000;stroke-width:.9375px;stroke-linecap:round;stroke-linejoin:round;stroke-opacity:1" d="M221.086 110.248c-5.097 133.464-100.532 252.637-178.058 306.82-7.484-20.963-11.786-41.968-11.786-66.523V128.998c62.783-13.764 126.746-18.342 189.844-18.75z" transform="matrix(.5329 0 0 .533 6.548 20.172)"/>
    <path d="M221.836 110.248c5.096 133.464 100.718 252.637 178.245 306.82 7.483-20.963 11.786-41.968 11.786-66.523V128.998c-62.784-13.764-126.933-18.342-190.031-18.75z" style="fill:#da121a;stroke:#000;stroke-width:.9375px;stroke-linecap:butt;stroke-linejoin:miter;stroke-opacity:1" transform="matrix(.5329 0 0 .533 6.548 20.172)"/>
    <path style="fill:none;stroke:#000;stroke-width:2.8125;stroke-linecap:round;stroke-linejoin:round;stroke-miterlimit:4;stroke-dasharray:none;stroke-opacity:1" d="M31.242 128.998v221.547c0 111.821 91.875 183.453 190.312 183.453 98.438 0 190.313-70.991 190.313-182.813V128.998c-65.625-14.063-124.688-18.75-190.313-18.75-65.625 0-124.687 4.687-190.312 18.75z" transform="matrix(.5329 0 0 .533 6.548 20.172)"/>
    <g style="stroke-width:1.00536156" transform="matrix(.4976 0 0 .49635 -135.48 83.459)">
        <circle r="74" cy="109" cx="640" style="opacity:.98999999;fill:#fff;fill-opacity:1;stroke:#000;stroke-width:3.01608443;stroke-linecap:round;stroke-linejoin:round;stroke-miterlimit:4;stroke-dasharray:none;stroke-dashoffset:0;stroke-opacity:1"/>
        <circle r="59" style="opacity:.98999999;fill:#da121a;fill-opacity:1;stroke:#000;stroke-width:3.01608443;stroke-linecap:round;stroke-linejoin:round;stroke-miterlimit:4;stroke-dasharray:none;stroke-dashoffset:0;stroke-opacity:1" cx="640" cy="109"/>
        <circle r="24" cy="109" cx="640" style="opacity:.98999999;fill:#fff;fill-opacity:1;stroke:#000;stroke-width:3.01608443;stroke-linecap:round;stroke-linejoin:round;stroke-miterlimit:4;stroke-dasharray:none;stroke-dashoffset:0;stroke-opacity:1"/>
        <circle r="8" style="opacity:.98999999;fill:#da121a;fill-opacity:1;stroke:#000;stroke-width:3.01608443;stroke-linecap:round;stroke-linejoin:round;stroke-miterlimit:4;stroke-dasharray:none;stroke-dashoffset:0;stroke-opacity:1" cx="640" cy="109"/>
        <path d="M633 86c-3-12-3-23.5 0-35.5 5.406-.809 8.848-.64 14 0 3 12 3 23.5 0 35.5-4.37-1.37-10.307-1.307-14 0zM633 131.958c-3 12-3 23.5 0 35.5 5.406.81 8.848.64 14 0 3-12 3-23.5 0-35.5-4.37 1.37-10.307 1.307-14 0zM656.4 91.427c8.893-8.598 18.852-14.348 30.744-17.75 3.404 4.278 4.978 7.344 7 12.125-8.892 8.598-18.851 14.348-30.744 17.75-.998-4.47-4.021-9.58-7-12.125zM616.6 114.406c-11.893 3.402-21.852 9.152-30.744 17.75 2.002 5.087 3.87 7.983 7 12.125 11.892-3.402 21.851-9.152 30.744-17.75-3.373-3.1-6.285-8.273-7-12.125zM663.4 114.406c11.893 3.402 21.852 9.152 30.744 17.75-2.002 5.087-3.87 7.983-7 12.125-11.892-3.402-21.851-9.152-30.744-17.75 3.373-3.1 6.285-8.273 7-12.125zM623.6 91.427c-8.893-8.598-18.852-14.348-30.744-17.75-3.404 4.278-4.978 7.344-7 12.125 8.892 8.598 18.851 14.348 30.744 17.75.998-4.47 4.021-9.58 7-12.125z" style="fill:#fff;stroke:#000;stroke-width:3.01608443;stroke-linecap:round;stroke-linejoin:round;stroke-miterlimit:4;stroke-dasharray:none;stroke-opacity:1"/>
        <circle r="3" cy="42.5" cx="640" style="opacity:.98999999;fill:none;fill-opacity:1;stroke:#000;stroke-width:2.01072288;stroke-linecap:round;stroke-linejoin:round;stroke-miterlimit:4;stroke-dasharray:none;stroke-dashoffset:0;stroke-opacity:1"/>
        <circle style="opacity:.98999999;fill:none;fill-opacity:1;stroke:#000;stroke-width:2.01072288;stroke-linecap:round;stroke-linejoin:round;stroke-miterlimit:4;stroke-dasharray:none;stroke-dashoffset:0;stroke-opacity:1" cx="640" cy="175.5" r="3"/>
        <circle transform="rotate(60)" style="opacity:.98999999;fill:none;fill-opacity:1;stroke:#000;stroke-width:2.01072288;stroke-linecap:round;stroke-linejoin:round;stroke-miterlimit:4;stroke-dasharray:none;stroke-dashoffset:0;stroke-opacity:1" cx="414.397" cy="-566.256" r="3"/>
        <circle transform="rotate(60)" r="3" cy="-433.256" cx="414.397" style="opacity:.98999999;fill:none;fill-opacity:1;stroke:#000;stroke-width:2.01072288;stroke-linecap:round;stroke-linejoin:round;stroke-miterlimit:4;stroke-dasharray:none;stroke-dashoffset:0;stroke-opacity:1"/>
        <circle r="3" cy="-675.256" cx="-225.603" style="opacity:.98999999;fill:none;fill-opacity:1;stroke:#000;stroke-width:2.01072288;stroke-linecap:round;stroke-linejoin:round;stroke-miterlimit:4;stroke-dasharray:none;stroke-dashoffset:0;stroke-opacity:1" transform="rotate(120)"/>
        <circle style="opacity:.98999999;fill:none;fill-opacity:1;stroke:#000;stroke-width:2.01072288;stroke-linecap:round;stroke-linejoin:round;stroke-miterlimit:4;stroke-dasharray:none;stroke-dashoffset:0;stroke-opacity:1" cx="-225.603" cy="-542.256" r="3" transform="rotate(120)"/>
    </g>
    <path style="fill:#da121a;stroke:#000;stroke-width:2.8125;stroke-linecap:round;stroke-linejoin:round;stroke-miterlimit:4;stroke-dasharray:none;stroke-opacity:1" d="M91.51 109.463v100.501H31.827v46.563h59.685v123.176l46.687-53.22v-69.956h45.746c9.488-12.275 16.693-27.181 19.593-46.563h-65.34v-100.5Z" transform="matrix(.5329 0 0 .533 6.548 20.172)"/>
    <path style="fill:#000;stroke:none;stroke-width:.9375px;stroke-linecap:butt;stroke-linejoin:miter;stroke-opacity:1" d="M43.028 417.068c77.526-54.183 173.43-173.356 178.526-306.82 5.096 133.464 101 252.637 178.527 306.82-29.057 74.833-103.527 116.93-178.527 116.93-75 0-146.207-38.204-178.526-116.93z" transform="matrix(.5329 0 0 .533 6.548 20.172)"/>
    <path d="M213.773 247.657c-2.22-2.96-2.754-6.6 1.605-3.449.675-2.16 3.917-3.988 3.641-.455-.245 3.136 1.054 4.944 3.72 4.677 2.123-.18 5.78-1.93 4.89-3.917-1.872-4.177.934-4.843 3.474-3.19.825-3.05 3.527-4.085 3.788.637 2.633-.315 6.506-.502 3.232 3.979-1.053 1.44.114 5.44 2.263 5.32 1.3-.072 3.143-1.119 3.887-3.423 2.008-6.218 4.494-.834 3.99 1.091 5.273-2.057 5.242 2.913 1.7 4.083-3.433 1.134-5.815 3.428-7.595 5.658-10.041-1.659-19.214-2.837-27.702-2.631.531-2.13.993-5.864-.893-8.38z" style="fill:#da121a;stroke:#000;stroke-width:.46875;stroke-linecap:round;stroke-linejoin:round;stroke-miterlimit:4;stroke-dasharray:none;stroke-opacity:1" transform="matrix(.5329 0 0 .533 10.02 35.13)"/>
    <path d="M209.654 266.777c-2.246-1.47-6.973 1.33-5.38-2.615.794-1.965 2.62-1.589 4.543-1.674 4.47-.198 5.046-5.22 8.073-5.404 7.574-.458 15.422.793 22.947 2.575 3.255.771 4.512 6.32 1.778 11.039 2.094-.532 3.23-2.5 6.435-1.366-.004 4.066-1.768 5.493-2.906 7.858 1.757-1.557 3.561-2.991 5.614-3.064-1.649 7.593-.63 15.01.526 21.98-2.02-1.569-4.977-4.747-6.997-4.915.38 5.297.328 8.177.405 10.054 4.23 2.877 5.81 6.529 6.18 12.328-3.79-1.127-7.018-5.357-10.195-9.864.697 7.273 10.036 11.422 6.88 18.522-2.573-.094-4.152-5.049-6.12-8.173.274 8.675.956 14.615-3.612 15.408-.986-3.89-2.288-8.24-3.897-10.262.28 7.733 1.517 14.134-2.357 18.796-2.291 2.757-5.762 2.61-8.702 1.56 6.072-5.22 2.502-7.307 1.135-11.283-1.039-3.021 3.3-9.266 5.986-13.459-3.647 2.796-7.164 9.248-10.117 14.042-3.48 5.648-6.656 11.386-9.398 14.447-4.987 5.566-10.865.724-10.918-6.003-1.852 3.766-3.771 4.841-6.18 5.963-4.844 2.254-8.857 1.26-10.001-5.481 3.531-.597 5.176 1.252 7.387 1.099 3.082-.214 5.44-2.06 6.102-5.703-3.203 3.9-5.29 4.568-11.015 2.893-3.176-.93-5.842 2.333-8.544 3.937-.003-1.308.765-3.002 1.349-4.603-3.004 2.759-6.677 5.615-10.299 5.598 1.21-7.22 4.983-13.77 10.784-20.477-2.35 1.091-5.954 4.433-7.332 7.101-3.685 7.138-4.755 8.82-8.946 12.612-3.494 3.162-8.99 3.834-13.61 3.743-6.696-.132-12.581-1.679-14.604-7.255 7.02 4.016 14.196 6.168 22.794 1.62 6.664-3.524 8.792-9.928 13.412-20.004-7.733 9.255-15.783 11.657-22.15 7.975 6.98-1.567 15.322-2.602 15.307-10.861-4.342 5.007-8.764 7.672-13.416 3.666 3.577-1.035 7.07-2.212 8.504-6.92-2.61.936-5.206 1.798-7.51.897 2.301-2.077 5.159-3.93 6.007-6.589-1.476-2.293-4.433 3.609-8.19 2.417-3.185-6.806 3.072-11.492 9.362-8.326 1.552-12.355-1.579-12.316-.663-15.247 1.118-3.58 4.116-2.226 5.223-4.366 1.388-2.685-1.22-5.485 2.17-7.078 2.626-1.234 2.83 4.473 5.413 3.857 2.07-.493 3.704-2.068 4.252-5.203 2.386.532 3.952.283 6.103-.1 1.316 4.947 2.03 9.534.178 12.421-2.19 3.414-4.512 7.518-3.783 11.929.633 3.833 3.263 6.213 4.935 7.356-.872 3.04-2.754 4.61-6.415 7.503 4.068-.825 6.648-4.64 7.951-8.776 3.856.483 8.122 2.736 11.173.643 4.104-2.815 10.876-1.995 15.267-4.131 1.218-.416 1.936-1.632 1.597-4.54-3.843-.256-9.007 1.572-7.212-7.587a33.758 33.758 0 0 0 12.99 1.587c1.106 2.219-4.647 1.375-5.817 2.186 2.539 1.821 6.49 1.126 8.727-.204 5.747-3.416-.256-8.398-1.585-12.21 3.383.85 5.5 5.85 6.912 9.092-.298-1 .111-1.717 1.376-2.091-.059-3.299.711-6.416-2.279-7.369.313 1.762.143 3.817-.484 3.097-1.146-1.317-2.197-3.567-4.358-3.991-1.235-.243-2.555-1.005-3.55-1.654-2.161-1.41-5.72-.807-9.983-1.189-1.2-.107-1.59-2.706-2.183-5.347-.753-3.346 4.203.561 4.931-2.417z" style="fill:#fcdd09;stroke:#000;stroke-width:.9375;stroke-linecap:round;stroke-linejoin:round;stroke-miterlimit:4;stroke-dasharray:none;stroke-opacity:1" transform="matrix(.5329 0 0 .533 10.02 35.13)"/>
    <path d="M123.302 350.324c3.534 5.68 7.062 5.775 10.603 5.652 8.793-.307 17.376-1.971 25.408-3.84 9.43-2.195 17.503-4.207 22.074-9.184 2.377 2.967 4.695 3.765 7.131 3.88 2.984.14 6.463-2.013 8.678-4.543 2.516 3.513 5.23 6.494 8.943 5.772 5.448-1.06 7.509-6.038 10.148-10.337 1.885-3.07 3.552-7.305 5.328-9.051 2.374 3.575 4.837 6.336-.416 11.436 3.444 1.89 6.38 1.593 10.194-.22 7.094 6.583 14.622 10.748 20.59 20.185 5.53 8.74 11.821 16.498 14.488 27.564 7.814 1.916 13.328-.139 15.267-5.494 1.082-2.99-.328-14.98-4.095-21.642-1.718-3.04-12.755-23.467-14.45-29.503-4.183-14.899-2.42-27.59-2.434-32.5-.018-6.617.088-11.896-2.009-19.887 2.22 1.382 4.537 2.99 5.853 2.26 3.063-13.138-1.556-13.15-1.135-20.845 3.843 3.578 5.639 9.933 6.337 15.388.941 7.346-2.458 9.162-.17 13.905 2.714-2.37 5.31-4.325 7.406-4.527-4.333 6.42-7.298 11.508-7.333 21.407-.023 6.592.052 15.095 1.755 17.94 3.389 5.66 4.292 1.096 4.972-.995 2.023-6.227 3.765-9.234 6.495-10.942.817 5.068-3.54 11.802-3.844 17.902-.322 6.474.01 15.143 5.397 13.63 2.414-6.895 4.863-14.225 11.256-20.202-.236 4.975-2.976 11.252-5.383 16.848-3.7 8.597-1.624 17.334.68 21.216 1.772-8.78 6.478-13.025 11.644-16.56.921 2.09-3.238 6.96-5.547 12.808-2.136 5.412-2.52 11.812.147 13.987 3.426-6.638 8.78-6.395 12.983-10.007 1.615 6.292-3.514 6.85-7.07 9.94-4.793 4.164-5.856 11.605-10.926 13.965 2.857 5.131 10.223-.689 13.958-4.31 3.434-3.327 7.755-6.766 12.462-7.817 6.478-1.445 10.472 12.148 1.808 12.676-.983-3.225 6.791-9.317-2.702-7.828-4.292.673-8.5 6.683-12.75 10.024-4.495 3.662-8.795 3.514-12.662 4.158-2.13 1.879-1.902 6.503-3.997 6.553-.841.02-1.125-1.943-2.175-2.787-1.087-.872-2.07-2.104-2.991-3.863 1.411 4.922-.414 9.727-2.183 12.187-1.33-2.974-3.295-6.59-5.397-7.134-3.474-.9-7.94-.318-7.102 2.866 1.764 6.699 2.33 10.067 1.738 14.62-.62 4.777-4.293 11.229-.1 13.105 8.64 3.865 13.053-8.205 17.473-6.827 2.557.797 4.702 1.544 7.406 1.617 2.442.066 4.7-1.095 6.831-2.962-.096 1.3-1.124 3.128.481 3.26 1.364.113 2.2.49 2.946.91-2.284 6.977-7.622 3.94-12.38 3.533-5.866-.502-8.222 1.851-10.085 4.466 2.08.059 4.16.015 6.24.365-.3 4.793-3.957 6.605-6.92 9.033 2.261-1.467 4.546-2.855 6.977-3.768 2.524-.949 5.673.84 8.177-.876-.332 2.407-1.677 4.09-4.195 4.935 3.234 4.898-2.16 3.71-5.227 3.08-3.611-.74-3.982.867-5.44 1.909 5.266.845 9.294 2.262 10.513 4.975-3.937-.035-8.08-1.302-11.739.328 1.804 3.803 6.32 6.18 4.075 12.743-2.49.916-4.477 1.174-6.803-2.719-1.135-1.897-2.14-4.565-4.272-4.365-1.63 8.196 4.4 8.327 3.548 13.241-3.56-.301-4.303-6.277-7-6.227-.257 4.86-2.25 5.637-2.886 7.995-2.08.277-.487-4.162-3.86-6.492-2.001-1.382-3.79-.829-5.685-.227 1.468-2.434.074-6.095-.674-6.81-2.019 2.513-2.74 7.64-3.27 11.429-.905 6.472-4.31 6.858-9.402 6.703-5.066.104 1.48-3.061-2.631-7.352-3.781-3.946-6.144 1.26-9.52-.82-.431-5.02 3.539-4.33 2.482-7.021-1.38-3.517-.628-5.322-.469-8.13 3.91.008 9.003.957 10.496-1.859 1.637-3.09 3.233-3.345 2.449-9.318-1.084-8.249-5.534-9.824-6.082-14.34-.994 6.613-7.574 4.578-12.477 5.262 1.916-5.525 9.897-4.383 11.075-13.181.583-4.354-.697-7.52-2.344-11.544 6.82-1.083 8.949-6.8 7.138-16.044-2.294 3.251-5.169 6.051-7.878 6.472.73-8.866-1.653-10.562-6.217-21.056-1.814-4.17-6.026-5.956-8.818-6.23-7.092-.694-10.544-10.997-12.924-10.517-3.321.67-6.826 5.921-10.004 9.321-1.573-.397-2.442-3.423-4.952-3.298-3.006 6.565-4.45 12.929-9.01 13.941.906-4.406 4.778-8.73 2.344-13.415-3.607 1.203-6.228 7.336-9.28 11.31-1.104-1.729-1.943-4.092-1.5-9.532-4.862 2.142-4.817 7.787-8.153 11.25.196-3.301.23-7.459-.74-8.72-6.76 1.502-9.216 7.84-12.013 13.206-.928-2.645-.105-6.79 1.135-11.293-2.72 4.662-6.037 7.329-9.692 8.872 1.583-8.044-1.514-8.133-4.503-9.827-2.973 7.274-5.294 11.419-10.59 9.495 1.686-2.224 2.994-4.841 2.678-6.9-4.885 1.406-3.06-3.95-6.515-5.538-3.18-1.461-9.1-2.248-10.958.45l-4.112-1.404c-1.034-2.222-1.44-5.385-3.609-5.906l.502-6.03c4.34.085 8.52-.166 8.565-7.138z" style="fill:#fcdd09;stroke:#000;stroke-width:.9375;stroke-linecap:round;stroke-linejoin:round;stroke-miterlimit:4;stroke-dasharray:none;stroke-opacity:1" transform="matrix(.5329 0 0 .533 10.02 35.13)"/>
    <path d="M157.227 429.037c-2.809-2.222-4.8-.012-4.523 2.36.375 3.21-1.632 3.825-2.712 5.28-1.374 1.851-2.773 1.027-4.54 1.403-.346 3.264-.442 5.794 1.346 5.909 2.153.138 4.436-.677 6.06 1.132 2.064 2.298.905 6.45-.837 8.747 2.082 1.6 5.118 2.298 7.012.481 4.088-3.921 11.369 1.468 15.45-4.236.102.775-.2 2.144-.544 3.106-.38 1.064-.876 2.25-.416 3.806 3.836 1.31 5.72-3.45 8.778-6.27 1.307 1.392-2.746 7.344.449 11.545 3.678-2.083 5.692-11.158 8.949-14.665-3.675 8.592-2.912 7.371-2.478 12.096 4.458-.145 6.03-6.47 7.51-12.27-.42 5.855.49 8.54 1.343 9.77 4.097-1.553 2.062-10.188 3.54-13.885 1.045-2.612 2.71-4.395 5.101-6.08-4.729-1.761-3.123-14.191-2.126-22.854.066 2.487.778 9.901 2.434 11.407 2.866-.847 3.082-10.747 3.9-17.158 1.175 2.341.78 5.49.908 6.895 4.922-4.505 14.221-10.197 21.78-13.024 3.916-1.465 3.38-7.965 1.972-11.356-1.467-3.532-3.388-6.49-7.27-8.312-.778 3.162 2 4.756 1.257 8.197-3.42 1.012-1.135-5.215-5.077-6.132.065 3.126-.588 6.501 1.58 9.378-2.537.125-3.615-5.337-5.172-8.06-.542 3.243-.783 7.266.65 10.227-3.04-1.102-2.455-5.206-3.827-7.955-4.64-.028-12.634-1.055-17.022.426-3.1 1.046-4.218 3.283-5.769 5.871-2.22-2.437-5.458-2.516-8.46-2.534-3.65-.023-12.786 8.969-11.089 2.28-7.51-.568-1.228 7.513 2.23 7.16 3.49-.355 7.278-1.465 9.133-3.082.327 3.324 2.367 5.598-.28 7.569-3.454 2.57-5.72 3.737-5.409 7.258.306 3.46 3.875 5.37 2.731 8.034-1.668 3.886-4.773 3.812-9.128 3.706-5.557-.134-7.133 3.17-10.81 6.655-1.764 1.673-3.812-.602-6.624-2.825z" style="fill:#fcdd09;stroke:#000;stroke-width:.9375;stroke-linecap:round;stroke-linejoin:round;stroke-miterlimit:4;stroke-dasharray:none;stroke-opacity:1" transform="matrix(.5329 0 0 .533 10.02 35.13)"/>
    <path d="M168.594 268.043c.146 3.841-1.354 5.618-3.08 6.414-2.067.953-6.147 2.138-7.199.04-1.716-3.422 2.614-3.524 2.97-8.206 2.431.998 4.6 2.001 7.31 1.752z" style="fill:#da121a;stroke:#000;stroke-width:.46875;stroke-linecap:round;stroke-linejoin:round;stroke-miterlimit:4;stroke-dasharray:none;stroke-opacity:1" transform="matrix(.5329 0 0 .533 10.02 35.13)"/>
    <path d="M214.922 406.64c4.398-2.173 8.86-4.363 15.703-7.148m-18.516 3.985c.033-1.38.643-1.606 1.29-1.758m-8.555 7.031c1.72-.683 1.369-1.712 1.289-2.695m-3.164-12.07c2.578-.905 5.156-1.048 7.734-.704m-19.336 6.094c1.027-.307 2.19-.07 2.93-1.523m-2.461 10.898c-.223-1.537-.11-2.907 1.523-3.516m-5.507 8.907c2.17.185 3.96-.773 5.507-2.461m-5.039 12.656c1.137-.855 2.282-4.28 1.29-7.383M180 433.008c2.269-.957 4.694-.974 6.68-3.633m-30.47 5.508c.24-.664.34-1.328 1.173-1.992m8.789 3.28c2.71-1.927 4.328-4.48 9.023-5.273m-15.351 19.22c1.462-.64 3.21-.85 4.101-2.345m-11.367-7.148c3.035.878 6.613 1.047 5.742 7.031M228.281 277.031c2.73 3.681 3.95 7.815.469 13.36m-9.023-27.07c.665 1.013 1.623 1.735 1.992 3.046.498-.777 2.684-.88 4.687-1.055-2.226-1.217-4.453-2.02-6.68-1.992zm-40.238 53.154c-2.133-.114-3.365.073-4.176.4m11.83-9.486c-.76.666-1.531 1.445-1.904 2.412m13.085-1.046c-1.719 2.302-5.012 4.797-6.73 5.57m14.656-6.825c-1.875 2.81-3.75 4.091-5.625 5.156m14.351-4.907c-2.222 3.199-4.078 4.842-6.08 5.61m19.62-7.968c-.626 4.89-2.515 7.505-4.688 9.609m.82-22.383c-.338.68-.786 1.142-1.345 1.38m9.59 1.778c.819 4.25 1.191 8.245-.159 11.256m-40.664 24.375c.076-.616.967-1.415 2.108-1.138m9.96 3.164c-1.145 7.562 5.434 6.04 7.034.787m-6.797-14.414c3.984-.043 7.969.366 11.953-1.758-1.995 5.004-4.67 6.272-7.265 7.969m-7.5-3.047c5.463-8.485 16.226-6.143 21.562-15.235m-43.98 21.67c5.359-7.507 13.906-3.094 18.97-10.076m-23.184-12.594c.741-.372 1.52-.706 1.618-1.72m-2.155-5.718c-.263.627-.884.897-1.81.86m-.58-3.894c.78-.361 1.562-.675 2.343-1.679m2.097-18.589c.688-.079 1.413-.121 1.89-.412m-7.006 17.152c.754-.807 1.09-1.698 2.867-2.3m-8.023.894c.765 6.35-1.66 8.06-3.144 11.139" style="fill:none;stroke:#000;stroke-width:1.875;stroke-linecap:round;stroke-linejoin:round;stroke-miterlimit:4;stroke-dasharray:none;stroke-opacity:1" transform="matrix(.5329 0 0 .533 10.02 35.13)"/>
    <path d="M206.491 274.5c-.264 2.615.96 3.307 2.31 3.455-.235-1.24-.504-2.269.123-3.293z" style="fill:#fcdd09;fill-opacity:1;stroke:#000002;stroke-width:.46875;stroke-linecap:butt;stroke-linejoin:miter;stroke-miterlimit:4;stroke-dasharray:none;stroke-opacity:1" transform="matrix(.5329 0 0 .533 10.02 35.13)"/>
    <path d="M194.419 265.68c1.876 3.383-.503 10.56 7.752 13.044 2.613.786 5.382 2.707 8.323 3.72 3.57 1.232 7.63.775 10.467 3.102-4.134 2.495-8.652-.832-12.56-1.279-3.823-.437-7.68-.772-11.292-1.845-6.426-1.91-3.352-11.568-2.69-16.742zM154.937 280.07c4.336 2.016 4.35 4.223 3.47 5.907-1.055 2.016-4.396 5.235-6.497 4.193-3.204-1.59-1.977-4.283-4.29-7.527 2.814-.475 5.536-.105 7.317-2.572zM181.584 271.336c-.215 2.582-5.852 2.358-6.88 1.299-1.717-3.423 2.613-3.174 2.735-8.09 3.134 1.233 3.663 5.165 4.145 6.79zM124.865 344.46c.147 3.842-.377 5.57-2.26 5.83-2.652.367-9.427 1.2-10.48-.898-1.716-3.422 4.724-2.821 4.846-8.323 2.43.998 5.186 3.641 7.894 3.392zM108.936 353.597c2.169 3.175 2.2 5.184 2.01 7.075-.292 2.895-2.55 5.51-4.896 5.522-2.696.015-3.227-4.32-4.374-5.975-1.319-1.902-2.331-2.142-2.4-4.353 3.174.02 7.5-.616 9.66-2.269zM106.163 370.962c3.296-1.535 5.548-2.812 6.882-2.442 1.595.443 3.757 1.213 4.339 2.897.36 1.039-.696 3.484-.937 4.347-1.032 3.687-4.925-1.089-8.012 4.776-3.52-1.045-.912-6.825-2.272-9.578zM156.81 421.737c1.201 3.255 3.49 6.506-1.088 7-2.662.288-7.552 1.67-8.604-.428-1.717-3.422.973-2.939 1.095-8.44 3.655 1.977 6.07 2.263 8.597 1.868zM142.49 433.687c2.048-.1 3.352 1.042 3.039 3.694-.398 3.367 1.644 7.201-.63 7.783-3.634.93-2.627-2.135-4.503-2.868-2.155-.842-5.004.578-6.296-1.218 1.427-2.276 3.614-1.179 5.069-2.5 1.482-1.347 2.114-3.709 3.321-4.891zM147.56 464.536c-1.964-3.562-.993-9.5 1.49-10.993.943-.566 3.51.316 4.399.422 4.583.548 5.718.333 4.93 5.462-.296 1.295-3.015-.163-4.547.064-2.702.402-4.575 4.066-6.272 5.045zM235.714 447.222c1.787 3.841-.603 12.565-1.674 12.508-2.068-.11-4.501 2.721-5.792-.077-.334-.724.488-3.407-.065-5.252-.467-1.556-2.183-.512-2.942-3.071 1.685-1.1 5.503-.077 6.158-1.764 1.031-2.66 2.927-2.135 4.315-2.344zM230.77 467.14c2.375-1.454 2.74 2.479 3.272 2.991 1.288 1.24 2.23 5.444.777 5.557-3.367.517-8.806 2.269-10.33-.336 1.426-2.276 3.178-3.55 2.607-5.43-.979-3.222 2.232-1.9 3.673-2.782zM239.204 477.622c.744-.81 3.856-.46 4.75-.516 4.35-.272 4.546 3.966 4.226 6.165-.295 1.295-1.794.236-3.14 1.002-2.35 1.339-5.116 2.423-5.116 2.423-.48-1.04-1.992-7.69-.72-9.074z" style="fill:#da121a;stroke:#000;stroke-width:.46875;stroke-linecap:round;stroke-linejoin:round;stroke-miterlimit:4;stroke-dasharray:none;stroke-opacity:1" transform="matrix(.5329 0 0 .533 10.02 35.13)"/>
    <path d="M279.258 439.805c-1.206.717-2.583.923-4.102.703m4.219-4.688c-1.324 1.322-2.648 1.283-3.971 1.402m3.268-5.62c-1.59 2.621-2.742 3.318-4.047 4.236m-20.914 26.818c-1.953 4.076-3.906 8.074-5.86 10.313m37.5-90.703c-.459.319-.918.096-1.377 0m3.604 8.437h-1.875m-1.875-5.625c-.765-.14-1.327-.077-1.875 0m-.351 2.461c-.918.493-1.582.222-2.29.083m-.406 1.792c-.558.133-1.102.296-1.875 0m-1.992 1.055c-.766.282-1.325.15-1.875 0m-1.992.937h-1.875m-2.344 1.172c-.542-.021-1.084-.404-1.626-1.077m-1.07 5.882c-.327.408-.856.614-1.626.58m1.978 2.115c-.936.156-1.359.055-1.875 0m2.11 2.695c-.625.234-1.25.209-1.875 0m1.523 2.579h-1.875m1.992 3.046c-.587.663-1.584.916-2.46 1.29m1.992 3.398c-1.055.762-2.11 1.425-3.164 1.875m2.46 2.93c-.977.702-2.108 1.25-3.398 1.64m2.813 2.461c-1.27 1.348-2.323 2.047-3.282 2.461m3.282 1.524c-.962 1.572-2.009 2.637-3.282 2.343m-7.98 25.525c-1.162-.145-2.15.229-2.87 1.408m3.019-6.647c-.275.986-.828 1.276-1.544 1.16m1.867-6.428c-.266.93-.532 1.404-.798 1.906m1.64-5.379c-.668-.053-1.26.276-1.708 1.326m1.992-6.763c-.788-.243-1.293.081-1.875.249m-3.461-28.622c-1.788 3.489-3.195 4.314-4.688 5.742m2.461 4.922c-1.23.698-2.246.547-3.164 0m8.189-15.174c-.45.672-1.128 1.116-1.792 1.574m2.04-4.096c-.75.25-1.344.19-1.875 0m1.395-4.081c-1.012.4-2.023.362-3.035.331m2.078-3.897h-1.875m-5.846-5.33c-.68 1.296-1.36 1.509-2.04 1.973m.88-5.784c-.429.665-1.135 1.128-1.543 1.724m-.28-3.961c-.23.581-.622 1.003-1.295 1.143m.301-4.21c-1.08 1.066-1.722 1.471-2.372 1.89m.383-4.458c-.763 1.504-1.526 1.376-2.289 1.89m.55-5.37c-.957 1.97-1.914 2.135-2.87 2.635m-115.718-8.593c-.822.54-1.756.745-3.018-.033m120.334 3.311c-.852 1.104-1.882 1.495-2.952 1.724m-.11-4.33c-1.288 1.766-2.313 2.217-3.392 2.938m1.118-5.282c-1.359 2.212-2.946 3.147-4.096 4.11m-2.15-3.104c1.378-.687 2.756-1.315 4.134-3.722m-9.096 2.51c2.682-.911 5.296-2.158 7.54-5.253M271.055 435c2.96.254 5.313.245 4.101 5.508-.712 3.092-3.503 3.27-5.976 4.101-6.517 2.19-1.98 4.907.117 6.328m19.673-78.596c.535 3.155.543 5.258.194 6.646m-7.957-27.99c.995 1.986 1.944 4.143 2.287 8.518.913-3.626 1.829-7.225 2.526-12.574m-17.658-15.975c2.458 6.737 4.071 8.41 5.911 11.44.145-2.987.062-6.428.606-8.613M264.375 292.5c2.4 6.257 1.133 11.293.194 14.766m-129.666 57.947c3.392.324 6.975.268 10.81-.291M195 352.5l-.593 4.595m-3.86-4.126-.74 4.337m-4.182-4.103-.9 6.046m-5.234 7.067c2.607-5.055 5.047-10.112 16.28-9.129m-40.724 1.681c4.55-.533 8.953-1.43 12.628-4.15m-47.08 7.654c1.695 1.771 3.54 2.47 5.664 2.093" style="fill:none;stroke:#000;stroke-width:1.875;stroke-linecap:round;stroke-linejoin:round;stroke-miterlimit:4;stroke-dasharray:none;stroke-opacity:1" transform="matrix(.5329 0 0 .533 10.02 35.13)"/>
    <path style="fill:#fcdd09;fill-opacity:1;stroke:#000002;stroke-width:.46875;stroke-linecap:butt;stroke-linejoin:miter;stroke-miterlimit:4;stroke-dasharray:none;stroke-opacity:1" d="M210.635 274.702c-.348 1.87-.128 3.886 1.605 3.501 1.231-.274 1.385-2.15 1.018-3.422zM215.25 275.055c-.348 1.87.27 3.906 1.713 3.645 1.241-.224 1.155-1.23 1.036-2.295-.752-.58-1.835-1.204-2.75-1.35z" transform="matrix(.5329 0 0 .533 10.02 35.13)"/>
    <path style="fill:#fcdd09;stroke:#000100;stroke-width:2.8968749;stroke-linecap:round;stroke-linejoin:round;stroke-miterlimit:4;stroke-dasharray:none;stroke-opacity:1" d="M410.339 101.77c5.943 2.534 9.052-8.543-2.897-9.426l.469-21.094c1.739-6.98 14.21-10.682 19.315-20.367 1.712-3.248-.097-19.919-.097-31.196 1.541-2.714 3.31-5.125 6.7-5.373-1.8-1.542-2.384-4.098-7.69-2.719 2.483-5.324-1.864-9.001-4.36-10.658-3.957 2.532-7.278 5.276-7.524 9.044-4.127-1.59-8.254-3.445-12.381.114 7.414 2.834 12.937 13.805.79 14.83-7.662.645-7.963-4.911-8.347-10.863-4.042 1.583-6.815 4.436-7.735 9.141-13.766 1.743-16.77 12.242-1.171 16.172-3.923.765-6.22 3.156-5.157 8.906 19.793-1.545 12.785 14.649-.234 14.531-9.752-.087-18.977-8.947-6.797-15.234-2.295-3.294-4.9-5.507-8.437-4.453-.359-5.434-1.83-10.034-4.688-13.594-2.797 3.476-7.209 5.608-6.562 11.953-3.747-1.36-6.127-.472-8.672 2.344 6.743 7.15 1.902 13.71-7.266 12.89-18.784-1.676-20.089-13.88-2.11-12.89.212-1.152 1.331-4.594-2.577-6.328 9.644-1.121 19.981-11.976 4.453-16.875.758-2.801.794-5.24-.938-6.797-12.478 9.434-14.822-4.976-1.64-8.672-2.67-2.432-4.961-5.306-11.25-3.515-1.212-3.887-4.241-12.49-9.141-15.938-3.152 2.68-5.83 6.307-7.734 11.484-3.254-3.556-7.058-3.97-9.61-1.64 4.9 2.302 9.035 8.2 4.688 10.547-3.223 1.74-6.407.985-9.61-.852-1.677 2.338-2.75 4.81-2.178 8.42-16.175.007-13.579 12.984-2.99 15.372-1.09 1.772-3.522 3.98-2.8 6.357 14.961-.227 9.202 15.766-1.172 15.468-11.637-.333-16.888-9.24-7.266-15.703-1.192-.625-1.698-1.25-5.86-1.875-1.33-3.087.404-3.877-5.39-10.312-1.886 3.055-4.785 5.504-3.75 10.312-1.577-.903-6.678-.638-8.66 1.406 3.29 7.755 2.437 18.563-11.027 17.344-14.616-1.323-15.907-21.888 1.64-17.812-.163-2.301-1.073-4.23-2.11-6.094 5.477-2.53 7.813-4.61 9.845-8.906-1.027-3.613-3.664-6.152-8.438-7.266.642-3.706-.807-6.995-3.281-10.078-3.187 7.206-8.322 7.853-11.25 5.39-4.486-3.772-2.793-10.85 7.5-12.421-2.946-2.937-6.167-5.322-12.188-2.11-.183-7.286-2.994-13.098-8.017-18.362-5.024 5.264-7.835 11.076-8.018 18.362-6.02-3.212-9.242-.827-12.188 2.11 10.293 1.572 11.986 8.65 7.5 12.422-2.928 2.462-8.063 1.815-11.25-5.391-2.474 3.083-3.923 6.372-3.281 10.078-4.774 1.114-7.411 3.653-8.438 7.266 2.032 4.297 4.368 6.376 9.844 8.906-1.036 1.865-1.946 3.793-2.11 6.094 17.548-4.076 16.257 16.49 1.641 17.812-13.464 1.219-14.316-9.589-11.027-17.344-1.982-2.044-7.083-2.309-8.66-1.406 1.035-4.808-1.864-7.257-3.75-10.312-5.794 6.435-4.06 7.225-5.39 10.312-4.162.625-4.668 1.25-5.86 1.875 9.622 6.462 4.371 15.37-7.266 15.703-10.374.298-16.133-15.695-1.172-15.468.722-2.376-1.71-4.585-2.8-6.357 10.589-2.388 13.185-15.365-2.99-15.372.572-3.61-.501-6.082-2.178-8.42-3.203 1.837-6.387 2.591-9.61.852-4.347-2.347-.211-8.245 4.688-10.547-2.552-2.33-6.356-1.916-9.61 1.64-1.903-5.177-4.582-8.803-7.734-11.484-4.9 3.449-7.929 12.051-9.14 15.938-6.29-1.791-8.58 1.083-11.25 3.515 13.18 3.696 10.837 18.106-1.641 8.672-1.732 1.556-1.696 3.996-.938 6.797-15.528 4.899-5.191 15.754 4.453 16.875-3.908 1.734-2.789 5.176-2.578 6.328 17.98-.99 16.675 11.214-2.109 12.89-9.168.82-14.01-5.74-7.266-12.89-2.545-2.816-4.924-3.703-8.672-2.344.647-6.345-3.765-8.477-6.562-11.953-2.858 3.56-4.33 8.16-4.688 13.594-3.537-1.054-6.142 1.159-8.437 4.453 12.18 6.287 2.955 15.147-6.797 15.234-13.019.118-20.027-16.076-.234-14.53 1.063-5.751-1.234-8.142-5.157-8.907 15.6-3.93 12.595-14.429-1.171-16.172-.92-4.705-3.692-7.558-7.735-9.14-.384 5.951-.685 11.507-8.347 10.861-12.147-1.024-6.624-11.995.79-14.83-4.127-3.558-8.254-1.703-12.381-.113-.246-3.768-3.567-6.512-7.524-9.044C5.198 2.594.851 6.271 3.334 11.595c-5.306-1.379-5.89 1.177-7.69 2.719 3.39.248 5.159 2.66 6.7 5.373 0 11.277-1.81 27.948-.097 31.196C7.35 60.568 19.824 64.269 21.563 71.25l.468 21.094c-11.949.883-8.84 11.96-2.897 9.425 67.594-14.484 128.429-19.312 195.603-19.312s128.008 4.828 195.602 19.312z" transform="matrix(.5329 0 0 .533 10.02 35.13)"/>
    <g style="stroke:#000;stroke-width:2.8125;stroke-miterlimit:4;stroke-dasharray:none;stroke-opacity:1">
        <path style="fill:#da121a;stroke:#000;stroke-width:2.8125;stroke-linecap:round;stroke-linejoin:round;stroke-miterlimit:4;stroke-dasharray:none;stroke-opacity:1" d="m215.04 67.318-6.629-6.63 6.63-6.628 6.629 6.629zM119.416 72.193l-6.63-6.629 6.63-6.63 6.629 6.63zM21.916 87.193l-6.63-6.629 6.63-6.63 6.629 6.63zM310.057 72.193l6.63-6.629-6.63-6.63-6.629 6.63zM407.557 87.193l6.63-6.629-6.63-6.63-6.629 6.63z" transform="matrix(.5329 0 0 .533 10.02 35.13)"/>
    </g>
    <path d="M-344.133 70.911a2.812 2.812 0 0 1-2.812 2.813 2.812 2.812 0 0 1-2.813-2.813 2.812 2.812 0 0 1 2.813-2.812 2.812 2.812 0 0 1 2.812 2.812zm-16.241 3.48a2.812 2.812 0 0 1-2.813 2.813 2.812 2.812 0 0 1-2.812-2.812 2.812 2.812 0 0 1 2.812-2.813 2.812 2.812 0 0 1 2.813 2.813zm6.629-10.937a2.812 2.812 0 0 1-2.813 2.812 2.812 2.812 0 0 1-2.812-2.812 2.812 2.812 0 0 1 2.812-2.813 2.812 2.812 0 0 1 2.813 2.813zm99.768-.663a2.812 2.812 0 0 1-2.812 2.812 2.812 2.812 0 0 1-2.813-2.812 2.812 2.812 0 0 1 2.813-2.813 2.812 2.812 0 0 1 2.812 2.813zm-16.407.828a2.812 2.812 0 0 1-2.812 2.813 2.812 2.812 0 0 1-2.813-2.813 2.812 2.812 0 0 1 2.813-2.812 2.812 2.812 0 0 1 2.812 2.812zm7.955-9.446a2.812 2.812 0 0 1-2.812 2.812 2.812 2.812 0 0 1-2.813-2.812 2.812 2.812 0 0 1 2.813-2.813 2.812 2.812 0 0 1 2.812 2.813zM-85.34 70.91a2.812 2.812 0 0 0 2.812 2.813 2.812 2.812 0 0 0 2.813-2.813 2.812 2.812 0 0 0-2.813-2.812 2.812 2.812 0 0 0-2.812 2.812zm16.241 3.48a2.812 2.812 0 0 0 2.813 2.813 2.812 2.812 0 0 0 2.812-2.812 2.812 2.812 0 0 0-2.812-2.813 2.812 2.812 0 0 0-2.813 2.813zm-6.629-10.937a2.812 2.812 0 0 0 2.813 2.812 2.812 2.812 0 0 0 2.812-2.812 2.812 2.812 0 0 0-2.812-2.813 2.812 2.812 0 0 0-2.813 2.813zm-99.768-.663a2.812 2.812 0 0 0 2.812 2.812 2.812 2.812 0 0 0 2.813-2.812 2.812 2.812 0 0 0-2.813-2.813 2.812 2.812 0 0 0-2.812 2.813zm16.407.828a2.812 2.812 0 0 0 2.812 2.813 2.812 2.812 0 0 0 2.813-2.813 2.812 2.812 0 0 0-2.813-2.812 2.812 2.812 0 0 0-2.812 2.812zm-7.955-9.446a2.812 2.812 0 0 0 2.812 2.812 2.812 2.812 0 0 0 2.813-2.812 2.812 2.812 0 0 0-2.813-2.813 2.812 2.812 0 0 0-2.812 2.813z" style="opacity:.98999999;fill:none;fill-opacity:1;stroke:#000;stroke-width:2.8125;stroke-linecap:round;stroke-linejoin:round;stroke-miterlimit:4;stroke-dasharray:none;stroke-dashoffset:0;stroke-opacity:1" transform="matrix(-.5329 0 0 .533 10.02 35.13)"/>
    <path d="m229.822 41.874-2.45 1.028m3.51 2.67-2.267 2.061m5.124 1.507-2.575 2.3m6.216-.215-1.227 3.921m7.04-3.02c.154-.002-1.104 4.39-1.104 4.39m6.718-5.543.87 4.406m2.262-7.039 3.099 3.54m-1.447-8.158 3.86 2.33m14.285-.135-1.64 2.197m6.307 1.43-1.93 4.35m6.867-3.143-.323 6.03m5.573-6.495 1.673 6.324m2.461-9.09 3.912 5.712m-1.697-9.546 4.363 1.623m26.475 6.144c.326.375-1.83 2.275-1.83 2.275m6.158.766-2.436 4.714m8.388-2.961-1.08 6.421m6.828-5.895-.008 6.049m5.797-7.854 1.786 4.673m.358-7.527 2.885 1.604m16.935 1.963-3.715.475m5.171 2.17-2.92 3.849m5.921-1.466c.526.283-1.925 5.226-1.925 5.226m6.398-3.531c-.016-.004-1.163 6.068-1.163 6.068m6.38-5.736.2 6.714m4.182-7.846c-.02.008 3.065 6.597 3.065 6.597m1.05-9.382c-.237.235 3.817 5.524 3.817 5.524m-156.71-45.814c-11.023.215-20.532 9.293-22.056 23.083m18.553 22.758c3.807-.312 8.376.302 11.029.818m-11.064-4.78c4.086.042 8.26.14 11.895.817m38.024 5.134c3.807-.312 8.377.301 11.029.817m-11.064-4.78c4.086.043 8.26.141 11.895.818m29.081 7.678c4.792.341 8.155.968 10.741 1.75m-10.175-6.009c4.06.457 7.84 1.274 11.388 2.315m-83.206-29.906c7.906 4.542 4.392 17.747-11.29 17.475-14.357-.25-21.702-21.111-5.644-22.689m54.973 3.608c10.06 5.04 7.442 20.227-8.228 19.578-14.026-.581-19.217-18.126-7.467-21.858m69.14 8.672c10.061 5.04 7.196 19.967-9.303 19.152-14.021-.692-19.95-16.69-6.046-18.931M313.401 8.345c-1.408 6.721-4.28 27.225-5.1 38.999m24.375-21.094c-11.022.214-22.852 7.304-24.375 21.094.78-15.77-6.41-22.574-16.172-26.485m84.044 58.485c4.791.341 8.155.968 10.74 1.75m-10.174-6.009c4.06.457 7.84 1.275 11.387 2.316m2.811-27.077c8.403 5.537 6.2 20.929-11.79 18.954-13.955-1.532-23.143-17.637-5.924-21.7m19.51-13.937c10.032.065 15.625 6.233 18.596 16.006m7.94-29.685c-3.826 12.758-.99 20.254-4.18 25.34-3.574 5.7-8.262 8.21-10.225 14.932M199.65 41.874l2.45 1.028m-3.51 2.67 2.267 2.061m-5.124 1.507 2.575 2.3m-6.215-.215 1.226 3.921m-7.04-3.02c-.154-.002 1.104 4.39 1.104 4.39m-6.718-5.543-.87 4.406m-2.262-7.039-3.098 3.54m1.446-8.158-3.86 2.33m-14.285-.135 1.64 2.197m-6.307 1.43 1.93 4.35m-6.867-3.143.323 6.03m-5.573-6.495-1.673 6.324m-2.461-9.09-3.912 5.712m1.698-9.546-4.363 1.623m-26.476 6.144c-.326.375 1.83 2.275 1.83 2.275m-6.158.766 2.436 4.714m-8.388-2.961 1.08 6.421m-6.828-5.895.008 6.049m-5.796-7.854-1.787 4.673m-.358-7.527-2.885 1.604m-16.935 1.963 3.716.475m-5.172 2.17 2.92 3.849m-5.921-1.466c-.526.283 1.925 5.226 1.925 5.226m-6.398-3.531c.016-.004 1.163 6.068 1.163 6.068m-6.38-5.736-.2 6.714m-4.182-7.846c.02.008-3.065 6.597-3.065 6.597m-1.05-9.382c.237.235-3.816 5.524-3.816 5.524m157.744-46.048c11.022.214 20.531 9.527 22.054 23.317M195.667 64.37c-3.807-.312-8.376.302-11.028.818m11.063-4.78c-4.086.042-8.26.14-11.895.817m-38.024 5.134c-3.807-.312-8.376.301-11.029.817m11.064-4.78c-4.086.043-8.26.141-11.895.818m-29.081 7.678c-4.792.341-8.155.968-10.741 1.75m10.175-6.009a66.802 66.802 0 0 0-11.387 2.315m83.205-29.906c-7.906 4.542-4.392 17.747 11.29 17.475 14.357-.25 21.702-21.111 5.644-22.689m-54.973 3.608c-10.06 5.04-7.442 20.227 8.228 19.578 14.026-.581 19.217-18.126 7.467-21.858m-69.14 8.672c-10.06 5.04-7.196 19.967 9.303 19.152 14.021-.692 19.95-16.69 6.046-18.931m16.113-35.704c1.408 6.721 4.28 27.225 5.1 38.999M96.797 26.25c11.022.214 22.852 7.304 24.375 21.094-.78-15.77 6.41-22.574 16.172-26.485M53.3 79.344c-4.791.341-8.155.968-10.74 1.75m10.174-6.009a66.802 66.802 0 0 0-11.387 2.316m-2.811-27.077c-8.403 5.537-6.2 20.929 11.79 18.954 13.955-1.532 23.143-17.637 5.924-21.7M36.74 33.641c-10.031.065-15.625 6.233-18.596 16.006m-7.94-29.685c3.826 12.758.99 20.254 4.18 25.34 3.574 5.7 8.262 8.21 10.225 14.932M215.554-.838c1.408 6.72-1.12 30.442-.3 42.216m192.188 50.966C344.556 79.936 279.122 72.81 214.737 72.81c-64.387 0-129.82 7.126-192.706 19.534" style="fill:none;stroke:#000;stroke-width:2.8125;stroke-linecap:round;stroke-linejoin:round;stroke-miterlimit:4;stroke-dasharray:none;stroke-opacity:1" transform="matrix(.5329 0 0 .533 10.02 35.13)"/>
    <path style="fill:none;stroke:#000;stroke-width:2.8125;stroke-linecap:butt;stroke-linejoin:miter;stroke-miterlimit:4;stroke-dasharray:none;stroke-opacity:1" d="M221.554 111.185v29.063" transform="matrix(.5329 0 0 .533 6.548 20.172)"/>
</svg>
