<?xml version="1.0" encoding="utf-8"?>
<!-- Generator: Adobe Illustrator 13.0.0, SVG Export Plug-In . SVG Version: 6.00 Build 14948)  -->
<!DOCTYPE svg PUBLIC "-//W3C//DTD SVG 1.1//EN" "http://www.w3.org/Graphics/SVG/1.1/DTD/svg11.dtd">
<svg version="1.1" id="Layer_1" xmlns="http://www.w3.org/2000/svg" xmlns:xlink="http://www.w3.org/1999/xlink" x="0px" y="0px"
	 width="223.938px" height="27.26px" viewBox="0 0 223.938 27.26" enable-background="new 0 0 223.938 27.26" xml:space="preserve">
<path fill="#EE4130" d="M156.911,19.918c1.054,3.616,2.11,3.594,3.044,3.594v1.414l-6.654,0.006l-2.101-7.544h-8.294
	c0,0-0.779,2.259-0.903,2.659c-0.161,0.524-0.469,1.472-0.469,2.173c0,0.955,0.771,1.293,1.765,1.293v1.414h-7.216v-1.413
	c0.97,0,1.866-0.114,3.155-4.002l6.623-19.503l4.985,0L156.911,19.918 M143.74,14.696h6.753L147.24,3.982L143.74,14.696z"/>
<path fill="#EE4130" d="M184.32,23.248c-1.973,1.513-3.459,1.977-6.043,2.004c-4.852,0.053-8.552-3.431-8.612-9.038
	c-0.063-5.95,4.211-9.075,8.995-9.126c1.404-0.016,3.126,0.237,4.436,0.816c0.48,0.185,0.8,0.339,1.212,0.56l0.005,3.707
	l-1.787,0.006c-0.392-2.08-1.979-3.197-3.506-3.181c-2.986,0.032-4.648,3.189-4.607,7.065c0.049,4.499,2.518,6.812,5.435,6.781
	c2.138-0.022,3.467-0.835,4.483-1.782L184.32,23.248"/>
<path fill="#EE4130" d="M187.061,12.171l0.006-3.623c0.521-0.245,1.001-0.442,1.471-0.593c1.366-0.474,3.092-0.86,5.24-0.86
	c1.73,0,4.313,0.271,5.905,1.797c1.053,1.019,1.368,2.816,1.368,3.867v8.097c0,2.429,0.615,2.809,2.138,2.809v1.257h-3.968
	c-1.471,0-2.27-0.574-2.27-2.536c-1.015,1.926-3.514,2.862-5.549,2.862c-3.055,0-5.733-1.512-5.733-4.464
	c0-3.875,3.597-5.307,6.92-6.258c2.817-0.813,4.106-1.629,4.106-3.091c0-1.289-1.357-2.402-3.393-2.402
	c-1.323,0-4.007,0.426-4.437,3.135L187.061,12.171 M196.661,14.835c-0.813,0.644-1.12,0.78-3.597,1.831
	c-1.085,0.474-2.986,1.459-2.986,3.359c0,1.38,0.851,2.749,2.953,2.749c0.951,0,1.9-0.339,2.578-1.017
	c1.052-1.053,1.052-2.612,1.052-3.596V14.835z"/>
<path fill="#EE4130" d="M216.978,11.67c0.206,0.562,0.295,1.263,0.295,2.118c0,1.332,0,8.735,0,11.14h6.665c0,0,0-1.084,0-1.23
	c-0.95,0-2.155-0.467-2.155-2.645c0-0.437,0-5.076,0-8.344c0-4.567-3.732-5.619-5.725-5.619c-3.206,0-4.944,1.896-5.527,3.084
	c0,0-0.063-2.258-0.063-2.679h-6.417v1.207c0.927,0,2.155,0.465,2.155,2.621c0,1.336,0,7.34,0,9.743c0,2.156-1.23,2.632-2.155,2.632
	c0,0.208,0,1.23,0,1.23h8.826c0,0,0-1.084,0-1.23c-0.954,0-2.16-0.467-2.16-2.645c0-0.395,0-3.368,0-6.306
	c0-1.239,0.189-2.238,0.59-3.007c0.686-1.292,1.925-1.917,2.966-1.917C215.526,9.822,216.51,10.38,216.978,11.67"/>
<path fill="#EE4130" d="M161.787,24.927c0-2.404,0-18.561,0-19.897c0-2.156-1.229-2.622-2.157-2.622V1.202h6.669
	c0,0,0,18.969,0,19.851c0,2.178,1.204,2.645,2.156,2.645c0,0.146,0,1.23,0,1.23H161.787"/>
<path fill="#EE4130" d="M123.36,7.1c-5.275,0-9.153,3.85-9.153,9.093c0,5.242,3.877,9.091,9.153,9.091
	c5.274,0,9.15-3.849,9.15-9.091C132.511,10.949,128.635,7.1,123.36,7.1 M124.582,23.152c-2.674,0.478-4.739-2.041-5.489-6.234
	c-0.74-4.139,0.371-7.282,2.989-7.75c2.674-0.479,4.748,2.095,5.489,6.234C128.32,19.596,127.256,22.674,124.582,23.152z"/>
<path fill="#EE4130" d="M95.505,11.666c0.204,0.563,0.295,1.264,0.295,2.119c0,1.335,0,8.74,0,11.139h6.667c0,0,0-1.082,0-1.226
	c-0.951,0-2.157-0.467-2.157-2.646c0-0.437,0-5.077,0-8.346c0-4.567-3.731-5.62-5.728-5.62c-3.207,0-4.945,1.899-5.526,3.084
	c0,0-0.063-2.259-0.063-2.679h-6.419v1.207c0.93,0,2.159,0.464,2.159,2.623c0,1.335,0,7.342,0,9.741
	c0,2.159-1.234,2.636-2.159,2.636c0,0.208,0,1.226,0,1.226h8.826c0,0,0-1.082,0-1.226c-0.952,0-2.159-0.467-2.159-2.646
	c0-0.394,0-3.37,0-6.308c0-1.24,0.189-2.238,0.593-3.004c0.682-1.295,1.922-1.923,2.963-1.923
	C94.054,9.816,95.037,10.378,95.505,11.666"/>
<path fill="#EE4130" d="M112.202,24.923c0,0,0-1.082,0-1.226c-0.952,0-2.158-0.467-2.158-2.646c0-0.436,0.004-11.709,0.004-11.709
	h2.512v-1.83h-2.514V3.544c0,0-1.968,0-2.351,0c0,2.639-2.478,4.558-4.479,4.558v1.222l2.318,0.008c0,1.334,0,9.396,0,11.797
	c0,2.711,1.029,3.794,3.988,3.794C110.772,24.923,112.202,24.923,112.202,24.923"/>
<path fill="#EE4130" d="M65.672,2.479c0,0,0,17.5,0,18.378c0,2.179,1.207,2.646,2.159,2.646c0,0.146,0,1.42,0,1.42h-9.055
	c0,0,0-1.338,0-1.42c0.929,0,2.159-0.465,2.159-2.65c0-3.83,0-17.448,0-18.379c-0.491,0.001-1.25,0-2.21,0
	c-2.629,0-3.596,0.677-3.596,2.665c-0.26,0-1.556,0-1.556,0L53.574,0h19.265l-0.002,5.138h-1.481c0-2.018-0.936-2.661-3.565-2.661
	C67.014,2.477,65.672,2.479,65.672,2.479"/>
<path fill="#EE4130" d="M79.033,3.718c0,1.149-1.092,2.081-2.441,2.081c-1.348,0-2.441-0.931-2.441-2.081
	c0-1.149,1.093-2.081,2.441-2.081C77.94,1.638,79.033,2.569,79.033,3.718"/>
<path fill="#EE4130" d="M81.227,24.923c0,0,0-1.082,0-1.226c-0.951,0-2.157-0.467-2.157-2.646c0-0.881,0-13.561,0-13.561H72.4v1.207
	c0.929,0,2.158,0.464,2.158,2.623c0,0.933,0,5.896,0,9.726c0,2.185-1.229,2.651-2.158,2.651c0,0.08,0,1.226,0,1.226H81.227"/>
<path fill="#EE4130" d="M42.649,7.1c-5.275,0-9.151,3.85-9.151,9.093c0,5.242,3.876,9.091,9.151,9.091
	c5.275,0,9.151-3.849,9.151-9.091C51.8,10.949,47.925,7.1,42.649,7.1 M43.872,23.152c-2.674,0.478-4.738-2.041-5.488-6.234
	c-0.74-4.139,0.37-7.282,2.988-7.75c2.674-0.479,4.749,2.095,5.489,6.234C47.61,19.596,46.545,22.674,43.872,23.152z"/>
<path fill="#EE4130" d="M6.896,2.472c0,1.404,0,2.54,0,5.538v5.737c0,3.718,0,6.747,0,7.111c0,2.179,1.207,2.645,2.158,2.645
	c0,0.146,0,1.42,0,1.42H0c0,0,0-1.337,0-1.42c0.929,0,2.158-0.463,2.158-2.65c0-1.405,0-3.928,0-6.928V8.188
	c0-3.718,0-3.758,0-4.122C2.158,1.887,0.951,1.42,0,1.42C0,1.274,0,0,0,0h11.264c6.877,0,8.493,3.637,8.493,6.48
	c0,3.228-2.313,5.383-5.538,5.979c3.423,0.219,5.419,8.945,7.914,12.148c0.334,0.43,1.205,1.213,2.147,1.213
	c0.02,0.001,0.089,0.001,0.108,0.001c0,0.28,0,1.438,0,1.438h-2.673c-1.965,0-3.956-0.865-4.837-2.062
	c-2.932-3.98-4.06-12.178-7.632-12.436c-0.057-0.004-0.26-0.007-0.317-0.007c0-0.378,0-1.488,0-1.488
	c0.055,0,0.254-0.001,0.307-0.002c4.44-0.062,5.241-2.431,5.241-4.412c0-2.292-0.821-4.386-4.872-4.386
	C8.961,2.466,6.896,2.472,6.896,2.472"/>
<path fill="#EE4130" d="M24.926,24.923c0-2.399,0-12.268,0-13.603c0-2.158-1.229-2.623-2.159-2.623V7.491h6.668
	c0,0,0,12.68,0,13.561c0,2.178,1.207,2.646,2.159,2.646c0,0.144,0,1.226,0,1.226H24.926"/>
<path fill="#EE4130" d="M29.483,3.718c0,1.149-1.094,2.081-2.442,2.081c-1.349,0-2.441-0.931-2.441-2.081
	c0-1.149,1.093-2.081,2.441-2.081C28.389,1.638,29.483,2.569,29.483,3.718"/>
</svg>
