<svg xmlns="http://www.w3.org/2000/svg" version="1.0" width="425" height="519"><path d="M420.51 4.265V296.67c0 143.725-103.918 218.065-208.01 218.065-104.092 0-208.01-74.34-208.01-218.065V4.265z" fill="#fff" fill-rule="evenodd"/><path d="M16.327 374.737c21.797 0 43.594-14.915 65.391-14.915 21.797 0 43.594 14.915 65.391 14.915 21.797 0 44.256-14.368 65.391-14.915 21.135-.548 43.594 14.915 65.39 14.915 21.798 0 43.595-14.915 65.392-14.915 21.797 0 43.594 14.915 65.39 14.915-3.79 12.73-11.538 31.617-17.333 41.164-16.02-4.271-32.038-12.327-48.057-12.327-21.797 0-43.594 14.915-65.391 14.915-21.797 0-44.256-15.463-65.391-14.915-21.135.547-43.594 14.915-65.39 14.915-21.798 0-43.595-14.915-65.392-14.915-15.664 0-31.328 7.702-46.992 12.037-6.054-11.834-12.59-27.201-18.399-40.874z" fill="#0f47af" fill-rule="evenodd" stroke="#000" stroke-width="5" stroke-linecap="round" stroke-linejoin="round"/><path d="M190.904 313.082c-22.898 1.453-39.52 29.437-58.99 11.316 16.174 1.736 23.993-20.787 36.664-21.926 22.326-2.007 34.183-14.338 31.194-43.048-10.576-2.866-19.26-10.06-30.423-6.235-6.648 2.277-12.78 4.435-20.643 12.536-16.556 17.058-31.319 13.792-26.642.975 7.348-20.138-4.26-11.314-17.87.325-19.219 16.437-37.233 6.307-25.992-3.574 10.35-9.097 13.506-19.156-8.963-7.912-13.755 6.883-30.188.75-18.654-8.658 7.921-6.46 8.298-13.154-7.223-9.175-9.727 2.494-7.872-25.486 7.548-18.442 7.093 3.24 15.133.257 7.798-6.823-9.937-9.591 8.655-19.484 17.545-5.848 5.772 8.854 13.233 12.965 10.61 4.294-5.677-18.77 9.774-23.63 25.454.58 5.323 8.219 8.05 17.501 8.779 2.214 1.134-23.762 17.37-9.906 33.458 4.608 13.745 12.401 28.375 20.869 43.862 21.769 1.592-16.01-6.855-29.413-17.22-41.263-12.49-14.28-29.427-22.556-52.309-20.469-24.268-.236-16.77-11.66-4.874-14.295 5.731-1.27 3.181-5.176-11.273-5.057-10.946.09-15.381-.425-19.592-.142-6.03.406-28.325-7.37-5.524-14.62 5.168-1.644 8.627-4.523-7.748-7.272-27.587-6.89-17.265-16.279-6.872-15.797 6.662.31 10.48-5.022-2.223-11.04-14.242-6.747-8.702-29.856 10.67-14.627 5.498 4.322 7.38 6.514 10.397-1.625 8.057-21.731 17.237-12.271 18.195 1.3.973 13.789 7.128 21.049 10.721 6.823 1.87-7.402 15.812-17.885 18.195 11.372 1.915 23.514 9.338 27.38 12.671 10.072 2.366-12.281 16.09-11.478 20.47 31.19 2.07 20.169 19.797 38.362 33.79 42.888 1.072-8.832.27-18.601-.326-28.267-.565-9.173-14.813-32.37-24.043-38.988-11.898-8.532-12.992-26.696 9.423-16.246-3.265-7.92-8.433-12.375-15.596-28.916-7.716-17.819 3.007-20.811 11.372-12.671 5.55 5.401 5.83-2.89.715-10.698-12.008-18.328-2.233-30.824 8.707-18.543 3.667 4.116 8.25 6.004 5.609-8.43-3.82-20.873 21.021-14.48 18.741-.23-2.318 14.49 4.699 12.776 8.366 8.66 10.94-12.281 20.715.215 8.707 18.543-5.116 7.807-4.836 16.1.715 10.698 8.365-8.14 19.088-5.148 11.372 12.671-7.163 16.54-12.33 20.996-15.596 28.916 22.415-10.45 21.32 7.714 9.423 16.246-9.23 6.618-23.478 29.815-24.043 38.988-.596 9.666-1.398 19.435-.325 28.267 13.992-4.526 31.72-22.72 33.79-42.888 4.38-42.668 18.103-43.471 20.469-31.19 3.333 17.307 10.756 13.442 12.671-10.072 2.383-29.257 16.325-18.774 18.195-11.372 3.593 14.226 9.748 6.966 10.721-6.823.958-13.571 10.138-23.031 18.195-1.3 3.017 8.139 4.899 5.947 10.397 1.625 19.372-15.229 24.912 7.88 10.67 14.627-12.702 6.018-8.885 11.35-2.223 11.04 10.393-.482 20.715 8.907-6.872 15.797-16.375 2.749-12.916 5.628-7.748 7.271 22.801 7.25.506 15.027-5.524 14.621-4.21-.283-8.646.232-19.592.142-14.454-.12-17.004 3.787-11.273 5.057 11.896 2.635 19.394 14.059-4.874 14.295-22.882-2.087-39.819 6.189-52.31 20.47-10.364 11.849-18.811 25.252-17.22 41.262 15.488-.9 30.118-9.368 43.863-21.769 16.088-14.514 32.324-28.37 33.458-4.608.73 15.287 3.456 6.005 8.78-2.215 15.679-24.21 31.13-19.35 25.453-.58-2.623 8.672 4.838 4.561 10.61-4.293 8.89-13.636 27.482-3.743 17.545 5.848-7.335 7.08.705 10.063 7.798 6.823 15.42-7.044 17.275 20.936 7.548 18.442-15.521-3.98-15.144 2.714-7.223 9.175 11.534 9.409-4.899 15.54-18.654 8.658-22.469-11.244-19.313-1.185-8.963 7.912 11.241 9.88-6.773 20.01-25.992 3.574-13.61-11.639-25.218-20.463-17.87-.325 4.677 12.817-10.086 16.083-26.642-.975-7.863-8.1-12.846-10.719-19.494-12.996-11.164-3.824-21.915.382-32.49 3.25 3.443 32.384 15.227 49.098 40.612 49.71 13.142.316 15.666 20.905 31.84 19.169-19.47 18.12-40.418-9.856-63.355-10.397-13.817-.327-10.78 24.825-26.176 27.846-.812-6.275 2.009-30.388-16.327-29.225z" fill="#078930" fill-rule="evenodd" stroke="#000" stroke-width="5" stroke-linecap="round" stroke-linejoin="round"/><path d="M420.51 4.265V296.67c0 143.725-103.918 218.065-208.01 218.065-104.092 0-208.01-74.34-208.01-218.065V4.265z" fill="none" stroke="#000" stroke-width="8" stroke-linecap="round" stroke-linejoin="round"/><path d="M363.002 228.537c-34.274 9.977-65.465 10.843-101.37 14.295m90.104-21.618c-20.275 13.155-26.971 13.29 4.55 22.418m-28.592-24.043c-31.831 23.289-26.742 17.211-.975 30.216m-35.74-25.342c-29.497 19.64-19.282 20.74.65 28.591M65.63 228.537c34.274 9.977 65.465 10.843 101.37 14.295m-90.104-21.618c20.275 13.155 26.971 13.29-4.55 22.418m28.592-24.043c31.831 23.289 26.742 17.211.975 30.216m35.74-25.342c29.497 19.64 19.282 20.74-.65 28.591m35.15-74.841c-26.753-20.54-57.166-43.345-81.997-66.841m13.796.158c12.225 19.897 15.095 26.517-19.283 15.895m40.832-5.527c15.376 36.32 12.262 28.987-16.527 26.931m43.955-6.121c10.37 30.691 5.75 26.172-17.337 22.036m114.926 15.093c25.778-20.54 61.066-46.918 85.896-70.415m-15.095-3.09c-8.651 23.146-12.496 29.766 18.633 19.144m-38.883-5.528c-15.375 36.32-13.237 30.612 15.553 28.556m-43.955-5.146c-15.245 31.99-6.075 25.522 15.062 22.035m-74.151-7.276c-.441-33.726-3.969-71.079-.897-105.126m15.348 5.715c-14.44 28.599-17.257 36.692-28.195 5.673m27.445 25.482c-18.996 39.327-14.213 27.997-30.428 2.224m28.337 34.248c-14.378 31.782-11.729 20.9-25.98.196" fill="none" stroke="#000" stroke-width="5" stroke-linecap="round" stroke-linejoin="round"/></svg>