<?xml version="1.0" encoding="UTF-8" standalone="no"?>
<svg
   height="521.99988"
   width="458"
   viewBox="0 0 458 521.99988"
   version="1.1"
   id="svg44"
   sodipodi:docname="Wappen_SG-Tostedt.svg"
   inkscape:version="1.2.2 (732a01da63, 2022-12-09)"
   xmlns:inkscape="http://www.inkscape.org/namespaces/inkscape"
   xmlns:sodipodi="http://sodipodi.sourceforge.net/DTD/sodipodi-0.dtd"
   xmlns:xlink="http://www.w3.org/1999/xlink"
   xmlns="http://www.w3.org/2000/svg"
   xmlns:svg="http://www.w3.org/2000/svg">
  <defs
     id="defs48" />
  <sodipodi:namedview
     id="namedview46"
     pagecolor="#ffffff"
     bordercolor="#666666"
     borderopacity="1.0"
     inkscape:showpageshadow="2"
     inkscape:pageopacity="0.0"
     inkscape:pagecheckerboard="0"
     inkscape:deskcolor="#d1d1d1"
     showgrid="false"
     showguides="true"
     inkscape:zoom="1.0254405"
     inkscape:cx="229.65739"
     inkscape:cy="261.83868"
     inkscape:current-layer="svg44" />
  <path
     d="m 5,5 v 288 c 0,123.71187 100.28822,223.9999 224,223.9999 123.71178,0 224,-101.12066 224,-224.83253 V 5 Z"
     stroke-width="10"
     stroke="#111111"
     fill="#eeeeee"
     id="path2"
     sodipodi:nodetypes="cssscc" />
  <g
     id="a"
     stroke="#111111"
     transform="translate(-1,-1)">
    <path
       d="m 219.6,43.48 c 0.001,-1.59 -16.92,-25.7 11.89,-23.52 27.68,2.09 7.09,22.92 8.14,26.2 3.11,9.58 15.56,-10.89 27.4,1.46 15.44,16.1 -24.81,28.43 -15.82,38.4 2.36,2.62 12.55,-3.31 19.33,6.92 8.25,12.46 -16.57,23.82 -29.63,39.69 -8.11,9.85 -5.58,12.1 -7.81,15.18 -4.96,6.85 -8.78,6.95 -8.78,6.95 0,0 6.27,-5.5 2.91,-14.71 -8.34,-22.88 -49,-29.79 -36.87,-50.9 6.13,-10.66 18.87,1.88 20.99,-6 2.89,-10.75 -27.97,-19.8 -15.88,-34.2 9.52,-11.33 23.98,9.31 24.1,-5.44 z"
       stroke-width="5"
       fill="#078930"
       id="path4" />
    <path
       d="m 230.6,51.3 c -0.74,-10e-4 -2.34,21.2 -2.56,25.85 -0.09,1.14 -1.23,-4.92 -5.08,-8.81 -3.84,-3.9 -10.24,-9.58 -13.78,-10 -1.29,-0.16 5.6,4.61 10.6,9.82 5,5.2 7.38,12.83 7.3,15.24 -0.16,4.39 -0.33,10.33 10e-4,22.2 -10e-4,0.21 -1.76,-1.79 -4.79,-3.47 -3.95,-2.2 -11.12,-4.66 -12.71,-4.07 -0.84,0.31 7.33,3.52 11.81,6.35 4.48,2.82 5.34,6.58 5.45,7.62 0.87,8.17 2.66,15.62 2.66,15.62 0,0 1.79,2.93 3.34,0 0.78,-1.47 -1.34,-1.02 -2.11,-11.97 -0.04,-0.52 1.91,-5.77 6.2,-8.36 8.28,-5 12.35,-4.78 11.19,-5.32 -1.4,-0.65 -6.89,0.46 -12.23,3.2 -5.08,2.61 -5.93,5.61 -5.95,5.41 -0.3,-13.15 -0.13,-26.89 0.43,-30.58 0.56,-3.69 4.36,-8.48 9.34,-13 4.94,-4.51 12.54,-8.7 11.97,-8.94 -1.98,-0.84 -9.91,4.17 -14.26,8.11 -4.33,3.91 -6.67,8.1 -6.65,6.7 0.16,-10.86 0.56,-21.52 -0.2,-21.53 z"
       stroke-width="1.6"
       id="path6" />
  </g>
  <g
     id="b"
     transform="translate(-1,-1)">
    <use
       xlink:href="#a"
       transform="translate(156.9,1)"
       id="use9" />
    <use
       xlink:href="#a"
       transform="translate(156.9,152.8)"
       id="use11" />
    <use
       xlink:href="#a"
       transform="translate(139.3,301.3)"
       id="use13" />
  </g>
  <use
     xlink:href="#a"
     transform="translate(0,350.5)"
     id="use16" />
  <g
     stroke="#111111"
     id="g40"
     transform="translate(-1,-1)">
    <path
       d="m 145.1,165 v 109.1 a 84.9,84.9 0 0 0 169.8,0 V 165 Z"
       fill="#078930"
       stroke-width="6"
       id="path18" />
    <path
       d="m 168.9,201.8 5.83,-5.79 c 0,0 5.26,4.33 10.3,9.24 5,4.92 9.86,10.42 9.86,10.42 l -5.83,5.79 c 0,0 -5.73,-4.79 -10.77,-9.7 -5,-4.92 -9.39,-9.96 -9.39,-9.96 z"
       fill="#eecc11"
       stroke-width="2.5"
       id="path20" />
    <path
       d="m 189.5,224.9 8.97,-8.9 c 0,0 58.81,56.4 79.1,77.97 20.1,21.44 16.49,24 16.49,24 0,0 -2.78,3.9 -24.82,-15.92 -21.9,-19.68 -79.7,-77.2 -79.7,-77.2 z"
       fill="#eeeeee"
       stroke-width="1.6"
       id="path22" />
    <path
       d="M 289.4,313.6 194,220.4"
       id="path24" />
    <g
       stroke-width="2.5"
       id="g36">
      <g
         fill="#eecc11"
         id="g32">
        <path
           d="m 180.6,228.1 c 8.4,-7.12 14,-12.73 21.24,-21.1 7.19,-8.35 14,1.06 14,1.06 0,0 -12.5,4.57 -21.1,13.1 -8.61,8.55 -13.34,21.1 -13.34,21.1 0,0 -9.16,-7.1 -0.78,-14.17 z"
           id="path26" />
        <ellipse
           cx="-22.440001"
           cy="256.29999"
           transform="matrix(0.71,-0.704,0.716,0.698,0,0)"
           ry="6.77"
           rx="7.79"
           id="ellipse28" />
        <path
           d="m 251.5,206.1 14.74,12.87 c 0,0 -18.66,26.78 -41.97,50 -23.31,23.26 -43.1,40.98 -51.5,44.7 -8.18,3.63 -13.52,-4.82 -11.51,-11.55 1.97,-6.6 24.85,-17.28 44.4,-36.47 19.52,-19.2 29.83,-40.95 31.1,-42.95 l 14.77,-16.64 z"
           id="path30" />
      </g>
      <path
         d="m 264,188.8 19.39,17.35 c 0,0 5.95,4.82 12.28,7.74 6.33,2.92 13,3.93 13,3.93 0,0 -0.91,6.53 -8.96,15.82 -8,9.27 -17.91,14.47 -17.91,14.47 0,0 -1.89,-7 -5.5,-13.1 -3.61,-6.1 -8.93,-11.24 -8.93,-11.24 l -19.39,-17.35 15.98,-17.58 z"
         fill="#eeeeee"
         id="path34" />
    </g>
    <path
       d="m 266.2,223.2 16,-18.26"
       fill="#eecc11"
       stroke-width="2"
       id="path38" />
  </g>
  <use
     xlink:href="#b"
     transform="matrix(-1,0,0,1,458,0)"
     id="use42" />
</svg>
