<svg height="90.740898" viewBox="0 0 499.99999 90.7409" width="500" xmlns="http://www.w3.org/2000/svg">
  <g transform="translate(0 -1031.7788)">
    <path d="m106.37655 1048.045.21958 10.2534h-.80653c-.37161-2.5718-1.29636-4.6406-2.77432-6.2119-1.47795-1.5658-3.069905-2.3458-4.788545-2.3458-1.32593 0-2.37738.4126-3.15015 1.2379-.77696.8252-1.16545 1.7748-1.16545 2.8488 0 .6726.13935 1.2887.41383 1.8144.37159.7122.97966 1.4187 1.81153 2.1083.6123.5031 2.02268 1.3848 4.235395 2.651 3.09522 1.7748 5.17702 3.4479 6.25802 5.0193 1.07257 1.577 1.60462 3.3688 1.60462 5.398 0 2.5718-.86565 4.7876-2.58427 6.6359-1.72286 1.854-3.91447 2.7809-6.566315 2.7809-.83188 0-1.62153-.096-2.36048-.2939-.73897-.1978-1.67221-.5709-2.79122-1.1135-.62497-.3052-1.14013-.4522-1.53707-.4522-.34204 0-.70096.147-1.07257.4522-.38003.2996-.68407.7687-.92053 1.3848h-.71787v-11.6156h.71787c.57428 3.2671 1.67217 5.7541 3.31059 7.4725 1.62996 1.7183 3.39083 2.5774 5.27417 2.5774 1.456815 0 2.613835-.4635 3.479495-1.3848s1.30059-1.9953 1.30059-3.2219c0-.7291-.16891-1.43-.49828-2.1139-.3336-.6727-.83608-1.3227-1.51172-1.9331-.67987-.6162-1.870655-1.4131-3.589305-2.3967-2.40271-1.3735-4.13404-2.5435-5.18548-3.5157-1.0599-.9666-1.86643-2.0518-2.43227-3.2445-.56586-1.1926-.85298-2.5096-.85298-3.9453 0-2.4532.78117-4.5389 2.3267-6.2685 1.54973-1.7183 3.50063-2.5775 5.85268-2.5775.8572 0 1.68907.113 2.495625.3561.61227.1865 1.35547.52 2.22958 1.0118.87833.4917 1.49904.7404 1.8453.7404.33782 0 .60386-.1243.79812-.3674.19844-.2374.38002-.8195.54471-1.7409zm20.07475 22.7056h-9.34063l-1.11478 2.9957c-.36316 1.0005-.54474 1.8201-.54474 2.4701 0 .8705.29982 1.5036.89942 1.9049.34627.2487 1.21193.4295 2.58854.5482v.8366h-8.79589v-.8366c.94586-.1639 1.73131-.6217 2.33936-1.3791.6123-.7405 1.37238-2.2892 2.26338-4.635l9.46307-24.5482h.37162l9.53062 25.2322c.91632 2.3909 1.65953 3.8944 2.24649 4.5105.44338.4748 1.07256.7462 1.87909.8196v.8366h-12.799v-.8366h.52784c1.02189 0 1.74818-.1639 2.16201-.503.28715-.2374.43494-.5879.43494-1.04 0-.2714-.0422-.554-.12242-.8366-.0253-.1414-.21957-.7066-.58271-1.707zm-.66719-1.6788-3.93556-10.5982-4.06224 10.5982zm23.50777-3.5892v8.6312c0 1.6617.0887 2.7074.26183 3.1314.18156.4352.48559.7856.92476 1.04.44761.2544 1.27103.3844 2.48295.3844v.8365h-13.5422v-.8365c1.22457 0 2.05222-.13 2.49139-.4014.43071-.26.73896-.5991.91632-1.0287.17736-.4239.2618-1.464.2618-3.1257v-19.9642c0-1.6675-.0845-2.7132-.2618-3.1484-.17736-.4296-.48561-.7744-.92899-1.0287-.43917-.26-1.26681-.3844-2.47872-.3844v-.8478h12.29228c3.2008 0 5.54018.2656 7.02235.7743 1.47794.5144 2.68986 1.464 3.63152 2.8488.92901 1.3792 1.40194 3.0071 1.40194 4.8667 0 2.2666-.7052 4.1432-2.10713 5.6298-.89943.9383-2.15358 1.6392-3.76666 2.1083l6.36362 10.4117c.83187 1.3509 1.42306 2.1874 1.76931 2.5209.54051.4692 1.1528.7235 1.858.7688v.8365h-8.3314l-8.5214-14.0235zm0-15.0862v13.4752h1.1148c1.80309 0 3.15436-.1808 4.05379-.5708.89944-.3901 1.60463-1.0853 2.11558-2.0914.51518-1.0062.77276-2.3175.77276-3.9341 0-2.3457-.47293-4.0753-1.41462-5.1945-.94165-1.1248-2.45759-1.6844-4.55629-1.6844zm34.85841 20.3542h-9.34061l-1.11478 2.9957c-.36316 1.0005-.54475 1.8201-.54475 2.4701 0 .8705.29983 1.5036.89945 1.9049.34625.2487 1.21192.4295 2.58852.5482v.8366h-8.79588v-.8366c.94587-.1639 1.73129-.6217 2.33937-1.3791.61228-.7405 1.37237-2.2892 2.26336-4.635l9.46308-24.5482h.3716l9.53062 25.2322c.91634 2.3909 1.65953 3.8944 2.24649 4.5105.44338.4748 1.07257.7462 1.8791.8196v.8366h-12.79902v-.8366h.52785c1.02189 0 1.74818-.1639 2.16202-.503.28715-.2374.43493-.5879.43493-1.04 0-.2714-.0422-.554-.12242-.8366-.0253-.1414-.21958-.7066-.58271-1.707zm-.66719-1.6788-3.93556-10.5982-4.06222 10.5982zm36.18856-20.3315v.8478c-.95856.1752-1.81997.7744-2.57164 1.7862-.54471.7574-1.35969 2.5322-2.43648 5.3358l-9.11682 23.5026h-.63763l-9.07457-24.4579c-1.08946-2.9505-1.82421-4.6801-2.19159-5.1945-.3716-.5144-1.07256-.8422-2.09446-.9722v-.8479h12.67655v.8479h-.42649c-1.14436 0-1.92556.1583-2.3436.4918-.29982.2261-.44761.5595-.44761 1.0004 0 .2713.055.5992.15202.9666.1056.3674.46026 1.3622 1.05145 2.9844l5.64154 15.3066 5.22769-13.6278c.62497-1.6505 1.00923-2.7584 1.14858-3.3123.1478-.5596.21536-1.04.21536-1.4357 0-.4465-.10126-.8535-.31248-1.1983-.20693-.3505-.51517-.6105-.91211-.7913-.56161-.2601-1.30481-.3844-2.22535-.3844v-.8479zm11.88269 22.0103h-9.34062l-1.11057 2.9957c-.36737 1.0005-.54895 1.8201-.54895 2.4701 0 .8705.29982 1.5036.89944 1.9049.34625.2487 1.2119.4295 2.59273.5482v.8366h-8.79589v-.8366c.94589-.1639 1.73131-.6217 2.33515-1.3791.6123-.7405 1.37238-2.2892 2.26337-4.635l9.4631-24.5482h.37157l9.53487 25.2322c.91211 2.3909 1.65952 3.8944 2.24226 4.5105.4476.4748 1.07257.7462 1.87912.8196v.8366h-12.79903v-.8366h.52783c1.02613 0 1.75244-.1639 2.16203-.503.28715-.2374.43493-.5879.43493-1.04 0-.2714-.0379-.554-.11822-.8366-.0296-.1414-.2196-.7066-.58697-1.707zm-.66719-1.6788-3.93134-10.5982-4.06224 10.5982zm22.84482-20.3315 13.05237 19.0824v-13.2266c0-1.8427-.22803-3.0918-.67984-3.7419-.62497-.8761-1.67221-1.3-3.1417-1.2661v-.8478h8.73255v.8478c-1.11903.1583-1.86221.3787-2.25069.6387-.38426.2657-.68408.7009-.89944 1.2944-.21113.5992-.31671 1.6279-.31671 3.0749v25.6166h-.66718l-17.88315-25.6166v19.5629c0 1.7635.34627 2.9561 1.043 3.5779.69675.6274 1.49484.9327 2.38584.9327h.62495v.8365h-9.37862v-.8365c1.45684-.012 2.47029-.3618 3.04036-1.0401.57427-.6839.86143-1.837.86143-3.4705v-21.7164l-.56585-.8196c-.56161-.814-1.05145-1.351-1.4864-1.611-.42649-.2543-1.04723-.3956-1.84954-.4239v-.8478zm35.52137 22.0103h-9.34061l-1.11058 2.9957c-.36737 1.0005-.54895 1.8201-.54895 2.4701 0 .8705.29982 1.5036.89945 1.9049.34627.2487 1.21191.4295 2.59275.5482v.8366h-8.7959v-.8366c.94588-.1639 1.7313-.6217 2.33516-1.3791.61228-.7405 1.37237-2.2892 2.26334-4.635l9.46311-24.5482h.37159l9.53484 25.2322c.91211 2.3909 1.65953 3.8944 2.24227 4.5105.4476.4748 1.07257.7462 1.87909.8196v.8366h-12.79899v-.8366h.52782c1.02613 0 1.75243-.1639 2.16205-.503.28712-.2374.4349-.5879.4349-1.04 0-.2714-.0379-.554-.11821-.8366-.0296-.1414-.21958-.7066-.58695-1.707zm-.66718-1.6788-3.93135-10.5982-4.06221 10.5982zm29.51671 1.6788h-9.34064l-1.11056 2.9957c-.36736 1.0005-.54895 1.8201-.54895 2.4701 0 .8705.2998 1.5036.89943 1.9049.34625.2487 1.21191.4295 2.59273.5482v.8366h-8.79588v-.8366c.94166-.1639 1.7313-.6217 2.33514-1.3791.61232-.7405 1.37239-2.2892 2.26338-4.635l9.46308-24.5482h.37159l9.53488 25.2322c.9121 2.3909 1.65528 3.8944 2.24223 4.5105.4476.4748 1.07258.7462 1.87912.8196v.8366h-12.79901v-.8366h.52784c1.02611 0 1.75241-.1639 2.16202-.503.28713-.2374.43494-.5879.43494-1.04 0-.2714-.0422-.554-.12242-.8366-.0253-.1414-.21537-.7066-.58274-1.707zm-.66298-1.6788-3.93976-10.5982-4.05805 10.5982zm38.44772-5.8728c2.50828.6726 4.27336 1.5036 5.28682 2.4701 1.45682 1.3792 2.18313 3.1597 2.18313 5.3528 0 2.3175-.7981 4.228-2.39426 5.7371-1.9678 1.8371-4.82234 2.7471-8.56365 2.7471h-13.44509v-.8365c1.22459 0 2.05225-.13 2.4914-.4014.43494-.26.73897-.5991.9121-1.0287.18158-.4239.26604-1.464.26604-3.1257v-19.9642c0-1.6675-.0843-2.7132-.26604-3.1484-.17313-.4296-.48561-.7744-.92477-1.0287-.43918-.26-1.26684-.3844-2.47873-.3844v-.8478h12.68077c3.02769 0 5.17705.3165 6.4354.9496 1.26682.6217 2.25914 1.56 2.98545 2.8092.73054 1.2435 1.08946 2.5775 1.08946 3.9793 0 1.4865-.46027 2.8035-1.38504 3.9623-.91633 1.1587-2.54207 2.0744-4.87299 2.7583zm-7.09837-.6217c1.84532 0 3.20504-.2374 4.08334-.7179.87834-.4861 1.54974-1.17 2.02268-2.0405.4645-.8761.70098-2.0009.70098-3.3632 0-1.3565-.23648-2.47-.69252-3.3462-.46027-.8648-1.11903-1.5261-1.98045-1.984-.85721-.4578-2.23382-.6726-4.13403-.6556zm0 1.7748v9.869l-.0168 1.1362c0 .8139.17313 1.4357.53204 1.8483.35893.4126.88257.6218 1.58774.6218 1.0388 0 2.00155-.2601 2.87988-.8027.87834-.537 1.54973-1.317 2.01423-2.3401.47293-1.0174.70941-2.1535.70941-3.4083 0-1.4414-.28713-2.7358-.86141-3.8719-.5701-1.1361-1.35972-1.9388-2.36472-2.391-.99656-.4578-2.49562-.6726-4.48029-.6613zm26.8986.3674v9.5243c0 1.5713.0717 2.5548.21959 2.9505.15201.3957.44762.7348.87832 1.0287.43916.2996 1.02611.4466 1.76508.4466h.87834v.8365h-13.82936v-.8365h.87833c.76854 0 1.38926-.1583 1.85376-.4805.33782-.2035.59962-.5709.77698-1.0909.14779-.3561.22379-1.3057.22379-2.8544v-20.2355c0-1.5714-.076-2.5549-.22379-2.9506-.13935-.3956-.43072-.7348-.86142-1.0287-.43496-.2939-1.02613-.4409-1.76932-.4409h-.87833v-.8478h13.82936v.8478h-.87834c-.76429 0-1.38502.1526-1.84953.4692-.34204.2147-.60807.5765-.7981 1.0909-.14779.3674-.21536 1.317-.21536 2.8601v8.7103h9.34063v-8.7103c0-1.5714-.0717-2.5549-.21115-2.9506-.14779-.3956-.43914-.7348-.87831-1.0287-.4476-.2939-1.03457-.4409-1.77776-.4409h-.86142v-.8478h13.81669v.8478h-.85721c-.78121 0-1.39772.1526-1.858.4692-.3336.2147-.59962.5765-.80231 1.0909-.13514.3674-.21113 1.317-.21113 2.8601v20.2355c0 1.5713.076 2.5548.21113 2.9505.1478.3957.44338.7348.88254 1.0287.44338.2996 1.03034.4466 1.77777.4466h.85721v.8365h-13.81669v-.8365h.86142c.77699 0 1.39771-.1583 1.858-.4805.33358-.2035.59962-.5709.79807-1.0909.13935-.3561.21115-1.3057.21115-2.8544v-9.5243zm36.76708 6.0311h-9.34061l-1.1148 2.9957c-.36315 1.0005-.54471 1.8201-.54471 2.4701 0 .8705.2998 1.5036.89943 1.9049.34625.2487 1.21191.4295 2.5885.5482v.8366h-8.79589v-.8366c.9459-.1639 1.73132-.6217 2.33938-1.3791.6123-.7405 1.37239-2.2892 2.26338-4.635l9.46308-24.5482h.37159l9.53485 25.2322c.91211 2.3909 1.65531 3.8944 2.24227 4.5105.4476.4748 1.07257.7462 1.87909.8196v.8366h-12.79899v-.8366h.52782c1.02613 0 1.7482-.1639 2.16203-.503.28714-.2374.43492-.5879.43492-1.04 0-.2714-.0422-.554-.12241-.8366-.0253-.1414-.21958-.7066-.58274-1.707zm-.66718-1.6788-3.93556-10.5982-4.05803 10.5982zm36.18856-20.3315v.8478c-.95855.1752-1.81998.7744-2.57162 1.7862-.54474.7574-1.35973 2.5322-2.43652 5.3358l-9.11259 23.5026h-.64185l-9.07458-24.4579c-1.09367-2.9505-1.82421-4.6801-2.19158-5.1945-.37159-.5144-1.07256-.8422-2.09446-.9722v-.8479h12.67655v.8479h-.42649c-1.14436 0-1.92555.1583-2.3436.4918-.29982.2261-.4476.5595-.4476 1.0004 0 .2713.055.5992.15623.9666.1056.3674.45606 1.3622 1.05147 2.9844l5.63729 15.3066 5.22772-13.6278c.62494-1.6505 1.01343-2.7584 1.15278-3.3123.14354-.5596.21114-1.04.21114-1.4357 0-.4465-.10125-.8535-.31248-1.1983-.2069-.3505-.51517-.6105-.9121-.7913-.56163-.2601-1.30482-.3844-2.22536-.3844v-.8479zm11.88269 22.0103h-9.34062l-1.11058 2.9957c-.36738 1.0005-.54895 1.8201-.54895 2.4701 0 .8705.29981 1.5036.89944 1.9049.34626.2487 1.2119.4295 2.59274.5482v.8366h-8.79589v-.8366c.94588-.1639 1.7313-.6217 2.33515-1.3791.61229-.7405 1.37239-2.2892 2.26338-4.635l9.46307-24.5482h.3716l9.53486 25.2322c.91211 2.3909 1.65953 3.8944 2.24225 4.5105.44762.4748 1.07257.7462 1.8791.8196v.8366h-12.79478v-.8366h.52361c1.02612 0 1.75243-.1639 2.16626-.503.28292-.2374.43072-.5879.43072-1.04 0-.2714-.0381-.554-.11822-.8366-.0295-.1414-.21957-.7066-.58695-1.707zm-.66298-1.6788-3.93556-10.5982-4.06223 10.5982zm22.84061-20.3315 13.05236 19.0824v-13.2266c0-1.8427-.22802-3.0918-.67985-3.7419-.62496-.8761-1.67219-1.3-3.14168-1.2661v-.8478h8.73254v.8478c-1.11479.1583-1.86221.3787-2.24648.6387-.38849.2657-.68829.7009-.89943 1.2944-.21536.5992-.32093 1.6279-.32093 3.0749v25.6166h-.66718l-17.88313-25.6166v19.5629c0 1.7635.34625 2.9561 1.04722 3.5779.69253.6274 1.4906.9327 2.3816.9327h.62496v.8365h-9.37863v-.8365c1.45684-.012 2.47029-.3618 3.04035-1.0401.57429-.6839.86143-1.837.86143-3.4705v-21.7164l-.56585-.8196c-.56161-.814-1.05144-1.351-1.48637-1.611-.4265-.2543-1.04725-.3956-1.84956-.4239v-.8478zm0 0" fill="#eb1923"/>
    <path d="m116.26362 1089.8325c-.36315.2543-.91647.544-1.65967.8605-.73475.3222-1.43122.5703-2.08572.7568.29558.1978.49853.4183.62528.6613.11823.2487.18231.5532.18231.9093 0 .5822-.23713 1.8653-.70584 3.8493l-1.11494 4.6589-2.07724-8.7668h-.75248l-2.09843 8.8347-1.86104-7.7621 1.12551-1.0726h-3.87046l1.12554 1.0726 2.36127 9.7906-1.12764 1.0789h3.85986l-1.13188-1.0789-.14838-.5321 1.69359-6.963 1.79533 7.4951-1.12766 1.0789h3.88956l-1.12767-1.0789-.16956-.672 1.38625-5.8629c.47713-2.0235.91088-3.5101 1.30358-4.4597.39272-.9439.96312-1.8766 1.71053-2.7979zm145.45172 0c-.8741.7574-2.08972 1.2951-3.64789 1.6173.40537.4578.60622.9955.60622 1.6172 0 .6388-.25212 1.7353-.75884 3.2897l-2.11116 6.4543-2.72374-8.9766 1.13613-1.0726h-3.85987l1.12767 1.0726 2.99291 9.7906-1.12764 1.0788h3.97432l-1.13189-1.0788 2.30617-7.0033c.64184-2.0123 1.16528-3.4529 1.57913-4.3177.4096-.8648.95442-1.6915 1.63848-2.4715zm12.87044 2.6241c-.72208 0-1.42711.2091-2.11964.6274-.89943.5426-1.56172 1.3495-1.98397 2.4291-.38005.9383-.56595 1.979-.56595 3.1095 0 1.1701.20509 2.232.61469 3.1816.50249 1.1587 1.25021 1.9854 2.2341 2.4884.32935.164.69253.2699 1.08951.3265.39691.057 1.03568.085 1.90979.085h3.78354l-1.12764-1.0789v-4.0528l1.12764-1.0789h-5.30757c-.36314 0-.54475-.069-.54475-.2098 0-.079.0363-.125.10809-.142.17315-.04.29271-.096.35609-.1695.0633-.073.0933-.1866.0933-.3392 0-.1696-.0556-.3109-.15687-.4239-.10559-.1187-.23588-.1738-.39212-.1738-.21114 0-.38848.09-.5405.2819-.14355.1922-.22046.4183-.22046.6952 0 .8366.55333 1.2591 1.65544 1.2591h2.22986v4.5911c-.65029.04-1.09891.062-1.33961.062-2.55473 0-3.83018-1.7974-3.83018-5.3923 0-.9609.10256-1.8427.30522-2.6453.14354-.5822.39998-1.1015.77155-1.5707.56585-.7178 1.27513-1.0789 2.12812-1.0789.4645 0 .88748.118 1.2633.3667.32517.2035.58793.4925.78215.8542.2618.4805.42638 1.0952.50235 1.8526l1.4986-3.419c-.33359.2035-.67541.2989-1.02166.2989-.17317 0-.32065-.01-.44726-.045-.13096-.034-.45353-.1414-.97715-.3222-.70519-.2487-1.33327-.3667-1.878-.3667zm-155.22749 0c-1.35548.023-2.40232.5433-3.13705 1.5495-.81076 1.1078-1.21243 2.6799-1.21243 4.7204 0 2.0348.40167 3.6048 1.21243 4.7183.75165 1.0344 1.7985 1.5495 3.14555 1.5495 1.34282 0 2.39177-.5151 3.14342-1.5495.80653-1.1135 1.21031-2.6503 1.21031-4.6229 0-2.114-.40378-3.7193-1.21031-4.8158-.76431-1.0288-1.81753-1.5495-3.15192-1.5495zm9.72492 0c-1.0599 0-2.11956.243-3.17946.7292-.4434.2034-.86003.4592-1.25695.7588l1.12765.7228v4.2329c-.23647.023-.42664.04-.57442.04-.0971 0-.22958-.01-.39849-.017-.0592.373-.17238.7398-.3455 1.0959.31671-.1356.7568-.231 1.31841-.2819v3.8831l-1.12765 1.0789h3.84925l-1.12551-1.0789v-4.1439c.21957-.028.54004-.079.96231-.1695.41806-.085.74705-.1696.98351-.2544.4983 1.4526.86151 2.658 1.09798 3.6415.23646.9723.448 2.1585.64225 3.5547.73475-.6727 1.59143-1.1877 2.57111-1.5495-.60807-.5539-1.2383-1.3947-1.88858-2.5308-.65454-1.1418-1.15658-2.2794-1.50707-3.4211.83189-.2431 1.49198-.643 1.96915-1.2082.47716-.554.71643-1.2054.71643-1.9289 0-.8422-.31192-1.5487-.93688-2.1196-.35471-.3222-.78628-.5702-1.30147-.7567-.51516-.1809-1.0429-.2777-1.59607-.2777zm24.84216 0c-.51094.3957-1.03011.6966-1.56218.9115l-.1505.062c.27869.39.41758.8527.41758 1.3841 0 .2487-.0343.5151-.11026.7864-.076.2769-.16791.491-.28615.6549-.076.1243-.25109.306-.50447.549l.0678.1356c.75586-.2713 1.3391-.6903 1.74869-1.2442.40961-.554.61259-1.2033.61259-1.9607 0-.4126-.077-.8372-.23316-1.2781zm4.98751 0c-.891 0-1.63021.2784-2.22139.8267-.68408.6387-1.02591 1.5077-1.02591 2.6156 0 .9044.24569 1.6568.73553 2.2447.40538.4917 1.11893.8528 2.1366 1.0789.71363.1639 1.23273.3003 1.5452.4133.31249.1074.59876.248.86057.4176.32938.2261.59213.5207.78216.8712.19005.3561.28615.7341.28615 1.1297 0 .6557-.22221 1.1927-.66981 1.6109-.3927.3674-.94178.5554-1.64696.5554-.69252 0-1.30567-.1653-1.84196-.4875-.47295-.277-.83191-.6599-1.08525-1.1404-.14781-.3052-.29521-.8139-.44301-1.5261-.10549.4465-.31281 1.0386-.62106 1.7847-.30826.7461-.59881 1.3622-.87754 1.8483.5194-.373.92318-.5638 1.21032-.5638.21536 0 .49952.062.85422.1865.78119.277 1.35588.4579 1.71903.5427.36738.085.73481.1293 1.1022.1293 1.11057 0 2.01853-.4006 2.71951-1.2145.60806-.6953.91144-1.5269.91144-2.4991 0-.8705-.25422-1.6286-.76095-2.2786-.43495-.5539-1.14422-.9658-2.12812-1.2485-.94587-.2656-1.52055-.4302-1.71902-.4981-.19425-.062-.41642-.1633-.66133-.2989-.66297-.3617-.99623-.9326-.99623-1.7126 0-.5652.16877-1.0351.50659-1.3969.38848-.4069.86921-.6104 1.4477-.6104.46873 0 .90454.1414 1.30147.4239.39272.2713.68328.6232.8733 1.0471.14354.3222.26106.7518.36668 1.2888.19847-.5879.43558-1.1934.7016-1.8039.26605-.616.48185-1.0577.65497-1.329-.41383.1809-.73428.2713-.96232.2713-.17312 0-.453-.072-.84148-.2077-.8361-.3109-1.57105-.4705-2.2129-.4705zm22.78611 0c-1.35125.023-2.39811.5433-3.13706 1.5495-.80654 1.1078-1.21243 2.6799-1.21243 4.7204 0 2.0348.40589 3.6048 1.21243 4.7183.75586 1.0344 1.80271 1.5495 3.14554 1.5495 1.34281 0 2.38967-.5151 3.14132-1.5495.81074-1.1135 1.21241-2.6503 1.21241-4.6229 0-2.114-.40167-3.7193-1.21241-4.8158-.76011-1.0288-1.81121-1.5495-3.1498-1.5495zm131.53629 0c-1.05568 0-2.11535.243-3.17947.7292-.44339.2034-.85999.4592-1.2527.7588l1.12765.7228v4.2329c-.24069.023-.43087.04-.57443.04-.10125 0-.23381-.01-.3985-.017-.0591.373-.1766.7398-.34972 1.0959.31669-.1356.75681-.231 1.32265-.2819v3.8831l-1.12765 1.0789h3.84714l-1.12765-1.0789v-4.1439c.21956-.028.54005-.079.96231-.1695.42229-.085.74707-.1696.98353-.2544.49828 1.4526.86574 2.658 1.1022 3.6415.23225.9723.44799 2.1585.63802 3.5547.73473-.6727 1.59144-1.1877 2.57111-1.5495-.60808-.5539-1.23832-1.3947-1.8886-2.5308-.65451-1.1418-1.15232-2.2794-1.50282-3.4211.82766-.2431 1.48772-.643 1.96491-1.2082.48135-.554.71644-1.2054.71644-1.9289 0-.8422-.3119-1.5487-.93688-2.1196-.35047-.3222-.78631-.5702-1.30147-.7567-.51097-.1809-1.04293-.2777-1.59607-.2777zm37.73592 0c-1.0599 0-2.1217.243-3.18582.7292-.43917.2034-.85579.4592-1.2527.7588l1.12763.7228v4.2329c-.23645.023-.42663.04-.57018.04-.10125 0-.23382-.01-.40273-.017-.0591.373-.17238.7398-.3455 1.0959.31671-.1356.75678-.231 1.31841-.2819v3.8831l-1.12763 1.0789h3.85137l-1.12764-1.0789v-4.1439c.21957-.028.54004-.079.96231-.1695.41806-.085.74705-.1696.98352-.2544.49406 1.4526.8615 2.658 1.09797 3.6415.23646.9723.44799 2.1585.64225 3.5547.73473-.6727 1.59145-1.1877 2.57111-1.5495-.60806-.5539-1.23619-1.3947-1.8907-2.5308-.65031-1.1418-1.15446-2.2794-1.50495-3.4211.83187-.2431 1.49197-.643 1.96914-1.2082.48138-.554.71644-1.2054.71644-1.9289 0-.8422-.31194-1.5487-.94113-2.1196-.35046-.3222-.77991-.5702-1.29509-.7567-.51516-.1809-1.04714-.2777-1.59608-.2777zm17.56543 0c-.89097 0-1.63019.2784-2.21714.8267-.6883.6387-1.03014 1.5077-1.03014 2.6156 0 .9044.24568 1.6568.73551 2.2447.40538.4917 1.11891.8528 2.1366 1.0789.71785.1639 1.23274.3003 1.54521.4133.31249.1074.59878.248.86058.4176.32937.2261.59212.5207.78215.8712.19002.3561.28615.7341.28615 1.1297 0 .6557-.22219 1.1927-.66981 1.6109-.38848.3674-.93753.5554-1.64696.5554-.69251 0-1.3057-.1653-1.84196-.4875-.46873-.277-.8319-.6599-1.08526-1.1404-.14779-.3052-.29521-.8139-.44301-1.5261-.1056.4465-.31278 1.0386-.61682 1.7847-.28766.6963-.56154 1.2683-.82029 1.7381-.41312-.4839-.72889-.9214-.9284-1.3142-.21115-.4239-.38412-.9715-.51507-1.6384-.40539.8704-.78567 1.4406-1.1446 1.7232-.49405.3787-1.30377.566-2.43123.566-.20693 0-.55726-.018-1.0471-.057v-5.1932h2.18323l1.02167 1.4287v-3.6458l-1.02167 1.4371h-2.18323v-4.2965c.52784-.04 1.03416-.062 1.51977-.062.73475 0 1.27954.096 1.63425.2883.21536.1186.4012.2762.54475.4854.14353.2091.30383.5313.48539.9835.0339.1017.0722.2028.11866.3158.20269-.6387.38432-1.1305.55748-1.4753.1689-.3504.45517-.8068.86056-1.3777h-8.44041l1.12766 1.0725v4.0655c-.90788.01-1.46128.4861-1.67663 1.4414.46027-.4692 1.0221-.6896 1.67663-.6614v4.9557l-1.12766 1.0683h8.87494c-.0186-.021-.0307-.038-.0487-.059.46733-.323.842-.5045 1.11281-.5045.21539 0 .49948.062.84998.1866.78119.2769 1.35589.4578 1.72327.5426.36739.085.7306.1294 1.09798.1294 1.11477 0 2.0164-.4007 2.71736-1.2146.60808-.6952.91357-1.5269.91357-2.4991 0-.8704-.25423-1.6285-.76095-2.2786-.43496-.5539-1.14424-.9658-2.12812-1.2484-.94589-.2657-1.52054-.4303-1.71479-.4981-.19845-.062-.42065-.1633-.66557-.2989-.66296-.3618-.9941-.9326-.9941-1.7127 0-.5652.16453-1.0351.50235-1.3968.38848-.407.87133-.6105 1.44984-.6105.46872 0 .90242.1414 1.30357.4239.38849.2714.6854.6232.87541 1.0471.13935.3222.26117.7518.36247 1.2888.20268-.5879.43558-1.1934.70159-1.8038.26604-.6161.48607-1.0577.65498-1.329-.41383.1809-.7364.2713-.96022.2713-.17312 0-.45088-.072-.84361-.2077-.83608-.3109-1.57103-.4706-2.2129-.4706zm37.67869 0c-1.05567 0-2.11534.243-3.17946.7292-.43917.2034-.85787.4592-1.25481.7588l1.12763.7228v4.2329c-.23646.023-.42661.04-.57441.04-.0971 0-.22747-.01-.39638-.017-.059.373-.17235.7398-.3455 1.0959.31672-.1356.75468-.231 1.31629-.2819v3.8831l-1.12763 1.0789h3.84714l-1.12766-1.0789v-4.1439c.22381-.028.5464-.079.96444-.1695.42229-.085.7513-.1696.98775-.2544.49407 1.4526.86151 2.658 1.09798 3.6415.23224.9723.44799 2.1585.63801 3.5547.73899-.6727 1.59569-1.1877 2.57113-1.5495h3.38294c-.31671-.4013-.49834-.6316-.54899-.6995-.25342-.3504-.38154-.775-.38154-1.2781 0-.2657.0385-.5539.11027-.8818.076-.3222.27037-1.0117.57441-2.0687l.0509-.1802c.53206.5991 1.14092 1.5374 1.82076 2.8149.2027-.4296.5403-.9447 1.02592-1.5325.17734-.2035.35896-.4119.54897-.638l1.10222 3.385-1.09373 1.0789h4.03578 3.61399c-.62919-.2317-1.0586-.5822-1.28662-1.0683-.23226-.4861-.34761-1.2831-.34761-2.3909v-6.5052l4.41732 9.9644h1.2972v-8.4891c0-1.1079.1133-1.8985.34551-2.3846.19378-.4056.53466-.7166 1.00471-.9412.50887.984.88488 1.8995 1.12342 2.7492.15624-.5482.29303-.9376.41544-1.1806.30404-.6105.84025-.9157 1.60032-.9157.17312 0 .4637.022.8733.062v10.0217l-1.12765 1.0788h3.84715l-1.12767-1.0788v-10.0217c.41387-.04.70017-.062.87331-.062.7643 0 1.29629.3052 1.60033.9157.12241.243.25921.6324.41969 1.1806.24069-.8817.63167-1.8363 1.17638-2.8763h-9.38574-3.92346c.62919.2261 1.06075.5864 1.29299 1.0725.22803.4861.3455 1.2781.3455 2.3804v6.2126l-3.82172-8.593 1.13189-1.0725h-4.15026l1.12341 1.0725v7.4103c0 1.1022-.11532 1.8999-.34761 2.3803-.20133.4292-.57216.7514-1.08738.9857l-1.10009-.9857-1.4901-4.6907c.30402-.1866.64585-.2841 1.02166-.2841.13515 0 .29531 0 .46844.017-.12242-.2204-.24009-.496-.3667-.8351-.12241-.3448-.21005-.6564-.27343-.939-.28712.4013-.6802.785-1.16581 1.1467l-1.34808-4.2053.8542-1.0726h-3.68817l.84999 1.0726-1.39897 4.324c-.055-.068-.18522-.1971-.3879-.4006-.2069-.2091-.37568-.4126-.4981-.6105-.0381.147-.12559.3738-.26072.6677-.13935.2996-.27601.5653-.40697.797.2829.045.50298.095.65922.1569.15623.068.34209.1872.55745.3624-.23226.8705-.41379 1.4866-.54476 1.8653-.1266.3731-.31251.8083-.55322 1.3057-.29558.6274-.58614 1.1079-.87751 1.4414-.209.2468-.49711.4785-.82243.7058-.52791-.5465-1.07481-1.2944-1.6406-2.2765-.6503-1.1418-1.15233-2.2793-1.50282-3.4211.83187-.243 1.48563-.6429 1.96703-1.2082.47716-.5539.71854-1.2054.71854-1.9289 0-.8422-.31192-1.5487-.94111-2.1196-.35048-.3222-.78205-.5702-1.29721-.7567-.51518-.1809-1.04718-.2777-1.60033-.2777zm42.52631 0c-1.60465 0-2.83309.8761-3.69452 2.6284-.52785 1.0852-.797 2.3407-.797 3.7538 0 1.0344.14742 2.0017.43878 2.8891.38427 1.1701.97176 2.0285 1.76142 2.5711.67985.4692 1.45537.7058 2.32948.7058.78542 0 1.45411-.1921 1.99882-.5765.54474-.3843.92928-.9482 1.15307-1.6999.18157-.5992.26921-1.1418.26921-1.6279 0-.4013-.10038-.5999-.30736-.5999-.16042 0-.25019.1292-.27132.3837-.0803 1.057-.34088 1.8829-.7885 2.4651-.4476.5822-1.03938.8754-1.77836.8754-.53207 0-1.01701-.1695-1.44772-.5087-.39694-.3052-.70675-.7115-.93475-1.2145-.45185-1.0118-.67407-2.3507-.67407-4.0125 0-2.3175.40809-3.862 1.23153-4.642.43071-.407.89643-.6105 1.39048-.6105.36735 0 .73055.1187 1.08948.3561.36316.2374.64089.5377.83514.9051.28293.5313.47736 1.2202.57867 2.0624.40537-1.187.94587-2.4573 1.61728-3.8026-.23647.1922-.41803.3207-.549.3773-.13514.062-.29533.098-.48115.098-.25335 0-.58235-.091-.98351-.2777-.47294-.1978-.83187-.3328-1.08101-.4006-.25337-.062-.55461-.098-.90509-.098zm-314.90196.301 1.12766 1.0725v9.8012l-1.12766 1.0683h8.38106c-.23646-.2769-.49287-.7348-.78003-1.3735-.28715-.6444-.5414-1.3382-.76519-2.09-.15203.961-.44258 1.6505-.8733 2.0688-.43071.4126-1.06949.6211-1.91827.6211-.35472 0-.79271-.018-1.32477-.057v-10.0386l1.12552-1.0726zm8.58878 0 1.12764 1.0725v9.7906l-1.12764 1.0789h3.45712c.80655 0 1.45813-.072 1.94794-.2077.48563-.1414.94065-.3907 1.3587-.7355 1.18235-.9835 1.76991-2.6955 1.76991-5.1486 0-2.1875-.54909-3.7984-1.65544-4.8158-.73897-.6896-1.88409-1.0344-3.42958-1.0344zm25.4293 0 1.12341 1.0725v7.4103c0 1.1022-.11533 1.8999-.34338 2.3803-.23225.4861-.66169.8415-1.2951 1.0789h3.92557c-.63341-.2317-1.05862-.5822-1.29086-1.0683-.23225-.4861-.34761-1.283-.34761-2.3909v-6.5052l4.42156 9.9644h1.29297v-8.4891c0-1.1079.1133-1.8985.3455-2.3846.23225-.4861.66383-.8422 1.29723-1.0683h-3.9277c.63342.2261 1.06075.5864 1.29299 1.0725.23225.4861.3455 1.2782.3455 2.3804v6.2126l-3.8217-8.593 1.13188-1.0725zm31.05694 0 1.12766 1.0725v9.7906l-1.12766 1.0789h3.85139l-1.12765-1.0789v-9.7906l1.12765-1.0725zm4.66533 0 1.12342 1.0725v7.4103c0 1.1022-.1133 1.8999-.3455 2.3803-.22804.4861-.66381.8415-1.293 1.0789h3.92346c-.62917-.2317-1.0586-.5822-1.28662-1.0683-.23226-.4861-.35187-1.283-.35187-2.3909v-6.5052l4.42158 9.9644h1.29721v-8.4891c0-1.1079.1133-1.8985.3455-2.3846.23223-.4861.6638-.8422 1.29299-1.0683h-3.92346c.62917.2261 1.05861.5864 1.29086 1.0725.22802.4861.34338 1.2782.34338 2.3804v6.2126l-3.81746-8.593 1.13187-1.0725zm9.40059 0 1.12765 1.0725v9.7906l-1.12765 1.0789h3.45925c.80652 0 1.45175-.072 1.94159-.2077.48984-.1414.94699-.3907 1.36505-.7355 1.17813-.9835 1.76777-2.6955 1.76777-5.1486 0-2.1875-.5533-3.7984-1.65542-4.8158-.74319-.6896-1.88196-1.0344-3.42745-1.0344zm9.45572 0 1.12552 1.0725v9.7906l-1.12552 1.0789h3.84501 3.99129c-.31248-.4013-.49835-.6316-.54899-.6995-.25329-.3504-.37943-.775-.37943-1.2781 0-.2657.0385-.5539.11446-.8818.0717-.3222.26614-1.0117.57019-2.0687l.0487-.1802c.53205.5991 1.14091 1.5374 1.82077 2.8149.2027-.4296.5403-.9447 1.0259-1.5325.17738-.2035.36318-.4119.54898-.638l1.10646 3.385-1.09796 1.0789h4.03789 3.61823c-.6334-.2317-1.06073-.5822-1.29297-1.0683-.23222-.4861-.3455-1.283-.3455-2.3909v-6.5052l4.42156 9.9644h1.29086v-8.4891c0-1.1079.11533-1.8985.34762-2.3846.23224-.4861.6617-.8422 1.2951-1.0683h-3.92558c.63344.2261 1.05861.5864 1.29088 1.0725.23221.4861.34761 1.2782.34761 2.3804v6.2126l-3.8217-8.593 1.13187-1.0725h-4.15237l1.12765 1.0725v7.4103c0 1.1022-.11749 1.8999-.3455 2.3803-.20494.429-.57471.7514-1.09161.9857l-1.1001-.9857-1.4901-4.6907c.30826-.1866.65007-.2841 1.02166-.2841.13935 0 .29531.01.46844.017-.11821-.2204-.24004-.496-.36246-.8351-.12661-.3448-.2207-.6564-.27555-.939-.29137.4013-.68018.785-1.1658 1.1467l-1.35021-4.2053.8521-1.0726h-3.68605l.84786 1.0726-1.39684 4.324c-.055-.068-.18521-.1971-.3879-.4006-.20692-.2091-.3715-.4126-.49812-.6105-.0381.147-.12762.3738-.26283.6677-.13515.2996-.2739.5653-.40485.797.28291.045.50295.095.65921.1569.15623.068.34209.1872.55745.3624-.23224.8705-.40954 1.4866-.5405 1.8653-.13095.3731-.31676.8083-.55747 1.3057-.29558.6274-.58828 1.1079-.87965 1.4414-.2861.3379-.68286.6517-1.18699.9559l-1.12127-1.0743v-9.7906l1.12553-1.0725zm38.08353 0 1.12765 1.0725v4.0655c-.90365.01-1.46129.4861-1.67663 1.4414.46451-.4692 1.02633-.6896 1.67663-.6614v4.9557l-1.12765 1.0683h8.88129c-.46451-.5313-.80841-1.0004-1.01955-1.4244-.21115-.4239-.38412-.9715-.51507-1.6384-.4054.8704-.78357 1.4406-1.14248 1.7232-.49408.3787-1.30591.566-2.43759.566-.20269 0-.55303-.018-1.04287-.057v-5.1932h2.18323l1.01743 1.4287v-3.6458l-1.01743 1.4371h-2.18323v-4.2965c.52364-.04 1.02996-.062 1.51979-.062.73473 0 1.27952.096 1.63001.2883.21957.1186.4012.2762.54473.4854.14355.2091.30806.5313.48541.9835.0381.1017.0765.2028.12299.3158.19847-.6387.38434-1.1305.55746-1.4753.16891-.3504.4552-.8068.86058-1.3777zm19.74867 0 1.12765 1.0725v4.0655c-.90367.01-1.46127.4861-1.67663 1.4414.4645-.4692 1.02634-.6896 1.67663-.6614v4.9557l-1.12765 1.0683h8.88129c-.46451-.5313-.8063-1.0004-1.01743-1.4244-.21536-.4239-.38411-.9715-.51506-1.6384-.40539.8704-.78567 1.4406-1.14462 1.7232-.49405.3787-1.30379.566-2.43546.566-.20268 0-.55513-.018-1.04497-.057v-5.1932h2.18323l1.02166 1.4287v-3.6458l-1.02166 1.4371h-2.18323v-4.2965c.52361-.04 1.03207-.062 1.52188-.062.73476 0 1.27955.096 1.63426.2883.21535.1186.39695.2762.5405.4854.14353.2091.30382.5313.48541.9835.0379.1017.0743.2028.12082.3158.19847-.6387.38432-1.1305.55747-1.4753.16891-.3504.4573-.8068.86269-1.3777zm8.6778 0c.54472 1.0344.93784 1.9889 1.18276 2.8764.15623-.5483.29091-.9376.41333-1.1807.30404-.6105.84024-.9157 1.60034-.9157.17312 0 .46158.022.87541.062v10.0216l-1.12766 1.0789h3.84714l-1.12763-1.0789v-10.0216c.41383-.04.70016-.062.87328-.062.7643 0 1.29629.3052 1.60457.9157.11822.243.25497.6324.4112 1.1806.24069-.8817.63591-1.8363 1.18065-2.8763zm12.44864 0 .84997 1.0725-1.39896 4.3241c-.0548-.068-.18521-.1971-.38789-.4006-.20691-.2092-.37151-.4126-.49811-.6105-.0422.147-.12763.3738-.26284.6677-.13935.2996-.27389.5652-.40486.797.28292.045.50721.095.65921.1568.15625.068.3421.1873.55746.3625-.23224.8705-.40958 1.4866-.54474 1.8653-.12661.373-.31253.8083-.55322 1.3057-.29558.6274-.58615 1.1079-.87754 1.4413-.28712.3392-.6845.655-1.19123.9602h3.99764c-.31247-.4013-.49834-.6316-.54899-.6995-.25343-.3504-.37942-.775-.37942-1.2781 0-.2657.0385-.5539.11446-.8818.0717-.3222.26615-1.0117.5702-2.0687l.0509-.1802c.53204.5991 1.13878 1.5374 1.81863 2.8149.20269-.4296.54665-.9447 1.02803-1.5325.17734-.2035.36317-.4119.54898-.638l1.10434 3.385-1.09797 1.0789h4.0379l-1.20395-1.0789-1.4901-4.6907c.30825-.1866.64586-.2841 1.02166-.2841.13934 0 .29532.01.46844.017-.12242-.2204-.24003-.496-.36247-.8351-.12675-.3448-.21636-.6564-.27553-.939-.29137.4013-.67807.785-1.1637 1.1467l-1.35231-4.2053.85421-1.0726zm16.59678 0 1.12763 1.0725v9.7906l-1.12763 1.0789h3.84501 3.99552c-.31671-.4013-.49823-.6316-.55322-.6995-.25327-.3504-.37942-.775-.37942-1.2781 0-.2657.0385-.5539.11445-.8818.0717-.3222.26614-1.0117.57019-2.0687l.0487-.1802c.53207.5991 1.14093 1.5374 1.82501 2.8149.19846-.4296.54027-.9447 1.02166-1.5325.18159-.2035.3632-.4119.549-.638l1.10644 3.385-1.09798 1.0789h4.03793 3.61821c-.63341-.2317-1.06073-.5822-1.29297-1.0683-.23225-.4861-.3455-1.283-.3455-2.3909v-6.5052l4.42157 9.9644h1.29085v-8.4891c0-1.1079.11967-1.8985.34763-2.3846.23224-.4861.6617-.8422 1.2951-1.0683h-3.92559c.6334.2261 1.0586.5864 1.29088 1.0725.23221.4861.34761 1.2782.34761 2.3804v6.2126l-3.82172-8.593 1.13189-1.0725h-4.15237l1.12766 1.0725v7.4103c0 1.1022-.1133 1.8999-.3455 2.3803-.20494.429-.5747.7514-1.09163.9857l-1.10009-.9857-1.48585-4.6907c.30403-.1866.64582-.2841 1.01741-.2841.13935 0 .29531.01.46844.017-.11822-.2204-.24002-.496-.36244-.8351-.12242-.3448-.21637-.6564-.27557-.939-.29137.4013-.68018.785-1.16579 1.1467l-1.34597-4.2053.8521-1.0726h-3.6903l.8521 1.0726-1.4011 4.324c-.055-.068-.18097-.1971-.38788-.4006-.2069-.2091-.37136-.4126-.49812-.6105-.0381.147-.12762.3738-.26282.6677-.13516.2996-.2697.5653-.40487.797.28294.045.50718.095.65922.1569.15623.068.34211.1872.55747.3624-.23224.8705-.40956 1.4866-.54051 1.8653-.13096.3731-.31675.8083-.55746 1.3057-.29558.6274-.58827 1.1079-.87541 1.4414-.29085.3385-.68791.6533-1.18913.958l-1.12341-1.0767v-9.7903l1.12553-1.0725zm55.02579 0c.54473 1.0344.93786 1.9889 1.18277 2.8764.15624-.5483.29092-.9376.41334-1.1807.30401-.6105.84021-.9157 1.60031-.9157.17313 0 .46371.022.87329.062v10.0216l-1.12765 1.0789h3.84714l-1.12339-1.0789v-10.0216c.40958-.04.70225-.062.87116-.062.76432 0 1.29631.3052 1.60457.9157.11822.243.25707.6324.4091 1.1806.24492-.8817.63802-1.8363 1.18275-2.8763zm12.44866 0 .85208 1.0725-1.40108 4.3241c-.0548-.068-.18732-.1971-.39001-.4006-.2069-.2092-.3715-.4126-.49812-.6105-.0381.147-.1256.3738-.26071.6677-.13515.2996-.26971.5652-.40486.797.28292.045.50507.095.65709.1568.15625.068.34212.1873.55748.3625-.23225.8705-.40957 1.4866-.54051 1.8653-.13096.373-.31676.8083-.55324 1.3057-.29981.6274-.59038 1.1079-.87753 1.4413-.29137.3392-.68873.655-1.19123.9602h3.99976c-.31671-.4013-.49825-.6316-.55322-.6995-.25343-.3504-.38154-.775-.38154-1.2781.00001-.2657.0385-.5539.11445-.8818.0717-.3222.26617-1.0117.57018-2.0687l.0509-.1802c.53208.5991 1.14093 1.5374 1.82501 2.8149.19847-.4296.54028-.9447 1.02168-1.5325.18158-.2035.36319-.4119.54898-.638l1.10644 3.385-1.09797 1.0789h4.0358l-1.20183-1.0789-1.488-4.6907c.30404-.1866.64582-.2841 1.01743-.2841.13935 0 .29743.01.47057.017-.11823-.2204-.24217-.496-.36458-.8351-.12242-.3448-.21425-.6564-.27344-.939-.29137.4013-.6802.785-1.1658 1.1467l-1.34809-4.2053.85422-1.0726zm6.56452 0 1.12763 1.0725v6.2402c0 1.5771.15381 2.6863.45785 3.3364.4856 1.0569 1.54096 1.5876 3.15401 1.5876.6123 0 1.1699-.1074 1.67241-.3222.54894-.2374.93346-.6451 1.14035-1.2273.11822-.3222.19723-.7164.23529-1.1743.0464-.4578.0678-1.1813.0678-2.1705v-3.8895c0-1.1079.11331-1.8985.34551-2.3846.22803-.4861.65956-.8422 1.29297-1.0683h-3.92769c.62919.2261 1.06495.5822 1.29298 1.0683.23224.4861.34551 1.2767.34551 2.3846v3.8938c0 1.4243-.10473 2.4086-.32007 2.9568-.2998.7688-.97066 1.1595-2.01366 1.1595-.67986 0-1.20117-.1816-1.56854-.532-.21112-.2035-.35853-.4925-.44723-.8542-.0887-.3618-.13139-.8818-.13139-1.5601v-7.4442l1.12763-1.0725zm61.4589 0 1.12766 1.0725v4.252c-.71787.1809-1.21345.7341-1.47529 1.6724.15627-.2487.36773-.4458.62954-.5871.2618-.1356.54592-.2099.84575-.2099v4.6632l-1.12766 1.0789h3.84714l-1.12763-1.0789v-4.6526c.52361.1583 1.19018.2374 2.00092.2374.52364 0 1.03845-.044 1.53251-.123v4.5382l-1.12765 1.0789h3.85137l-1.12763-1.0789v-9.7906l1.12763-1.0725h-3.85137l1.12765 1.0725v4.4215c-.40538.073-.85189.1123-1.34173.1123-.85722 0-1.58785-.095-2.1917-.2988v-4.2351l1.12763-1.0725zm8.97666 11.942h3.99978c-.31672-.4013-.49835-.6316-.54899-.6994-.25332-.3505-.38578-.7751-.38578-1.2782 0-.2656.0385-.5539.11447-.8818.076-.3222.26615-1.0117.57441-2.0687l.0509-.1802c.52785.5992 1.14091 1.5375 1.82077 2.8149.19848-.4296.54029-.9447 1.02166-1.5325.18159-.2035.36322-.4119.55323-.638l1.10222 3.385-1.09797 1.0789h4.04002l-1.20819-1.0789-1.48586-4.6907c.30402-.1866.64583-.2841 1.02166-.2841.13515 0 .29107.01.4642.017-.11822-.2204-.24005-.496-.36247-.8351-.12241-.3448-.21425-.6564-.27341-.939-.29137.4013-.6802.785-1.16582 1.1467l-1.34809-4.2053.85421-1.0726h-3.68604l.84785 1.0726-1.39683 4.324c-.055-.068-.18736-.1971-.39425-.4006-.20268-.2091-.3715-.4126-.49813-.6104-.0381.1469-.12561.3737-.26071.6677-.13515.2995-.27183.5652-.40697.7969.28714.045.50719.095.65921.1569.16047.068.3421.1872.55746.3625-.22802.8704-.40956 1.4865-.54051 1.8652-.1266.3731-.31676.8083-.55323 1.3057-.2998.6275-.58613 1.1079-.87752 1.4414-.28714.3391-.68873.6549-1.19124.9602zm11.45665-11.942 1.12766 1.0725v9.7906l-1.12766 1.0789h3.84714l-1.12339-1.0789v-9.7906l1.12339-1.0725zm4.66108 0 1.12766 1.0725v7.4103c.00001 1.1022-.1175 1.8999-.34549 2.3803-.23225.4861-.6638.8415-1.29299 1.0789h3.92345c-.62917-.2317-1.06073-.5822-1.29297-1.0683-.22806-.4861-.3455-1.283-.3455-2.3909v-6.5052l4.42156 9.9644h1.29085v-8.4891c0-1.1079.11967-1.8985.34763-2.3846.23226-.4861.66169-.8422 1.2951-1.0683h-3.92133c.62918.2261 1.05438.5864 1.28662 1.0725s.34762 1.2782.34762 2.3804v6.2126l-3.81747-8.593 1.12764-1.0725zm-286.3589.1738c-.17313.4974-.42948.8994-.7673 1.2103-.33781.3165-.68817.4684-1.04287.4684-.13935 0-.20772-.052-.20772-.1589 0-.012-.0001-.028.004-.051.009-.039.013-.083.013-.123 0-.1017-.0299-.1936-.089-.2671-.0591-.073-.13384-.1059-.22256-.1059-.10983 0-.20385.046-.28403.1419-.0802.09-.11663.2036-.11663.3392 0 .2034.0876.3829.26072.5299.17314.1469.38464.2204.63802.2204.21957 0 .46088-.044.70583-.1294.24913-.085.44998-.1972.60621-.3328v8.947l-1.12553 1.0789h3.74117l-1.12766-1.0789v-10.6893zm-72.94101.3052c.43496 0 .84301.147 1.22304.4239.38005.2714.67697.6395.8839 1.0917.20269.4521.35433.9997.44723 1.6384.0887.6388.13559 1.4485.13559 2.4207 0 2.3796-.35036 3.9503-1.05134 4.7077-.4307.4635-.92638.7016-1.49222.7016-.42229 0-.82607-.1414-1.21454-.4239-.38427-.277-.6812-.6451-.87967-1.0917-.38848-.8817-.5829-2.2157-.5829-4.0018 0-1.2549.0897-2.2659.25437-3.029.16891-.7574.43385-1.3403.80123-1.736.43069-.4691.92207-.7016 1.47525-.7016zm9.61046 0c.57851 0 1.07633.1866 1.50281.5596.51518.4635.77791 1.0747.77791 1.8377 0 .4127-.0939.8083-.27131 1.187-.2238.4805-.58271.8705-1.07677 1.1701-.65452.3956-1.47701.655-2.45666.7736v-4.8878c.43493-.424.94128-.6402 1.52402-.6402zm52.72812 0c.43915 0 .84512.147 1.22939.4239.38005.2714.67062.6395.87754 1.0917.20689.4521.35434.9997.44724 1.6384.0929.6388.13992 1.4485.13992 2.4207 0 2.3796-.35036 3.9503-1.05135 4.7077-.43071.4635-.92848.7016-1.4901.7016-.42648 0-.83241-.1414-1.22091-.4239-.38427-.277-.67483-.6451-.87754-1.0917-.38426-.8817-.57865-2.2157-.57865-4.0018 0-1.2549.0833-2.2659.25224-3.029.16891-.7574.43594-1.3403.79911-1.736.43071-.4691.92418-.7016 1.47314-.7016zm131.42819 0c.57429 0 1.07208.1866 1.49858.5596.51937.4635.77791 1.0747.77791 1.8377 0 .4127-.0897.8083-.27132 1.187-.21957.4805-.57849.8705-1.07679 1.1701-.6545.3956-1.47276.655-2.45665.7736v-4.8878c.43492-.424.94555-.6402 1.52827-.6402zm37.72955 0c.57428 0 1.07634.1866 1.50283.5596.51517.4635.7779 1.0747.7779 1.8377 0 .4127-.0939.8083-.27132 1.187-.22379.4805-.5827.8705-1.07675 1.1701-.65875.3956-1.47278.655-2.45667.7736v-4.8878c.43492-.424.94127-.6402 1.52401-.6402zm55.2505 0c.57429 0 1.07631.1866 1.50281.5596.51519.4635.77157 1.0747.77157 1.8377 0 .4127-.0877.8083-.26497 1.187-.2238.4805-.5827.8705-1.07677 1.1701-.65874.3956-1.47914.655-2.46303.7736v-4.8878c.43916-.424.94765-.6402 1.53039-.6402zm-259.9037.301c1.12748 0 1.94569.5243 2.45242 1.5643.42649.8874.63801 2.0476.63801 3.472 0 1.7183-.26925 3.0579-.81818 4.0188-.50249.8874-1.2716 1.3269-2.31041 1.3269-.18157 0-.49352-.022-.94112-.062v-10.259c.48983-.04.8188-.062.97928-.062zm70.55216 0c1.12747 0 1.94781.5243 2.45031 1.5643.42648.8874.64012 2.0476.64012 3.472 0 1.7183-.27347 3.0579-.81818 4.0188-.50252.8874-1.27163 1.3269-2.31039 1.3269-.18158 0-.49353-.022-.94113-.062v-10.259c.48984-.04.81882-.062.97927-.062zm14.99431 1.1298 1.50495 4.6229c-.29137.3165-.52849.6048-.70583.8648-.32938.4748-.52378.7461-.57443.814-.56585-.9327-1.08495-1.6901-1.54523-2.2723zm71.06937 0 1.50282 4.6229c-.29137.3165-.52849.6048-.70584.8648-.33361.4748-.52377.7461-.57442.814-.57007-.9327-1.08494-1.6901-1.54522-2.2723zm24.48607 0 1.50495 4.6229c-.28715.3165-.52428.6048-.70585.8648-.32939.4748-.51954.7461-.57019.814-.57007-.9327-1.08917-1.6901-1.54945-2.2723zm59.58303 0 1.50283 4.6229c-.28715.3165-.52214.6048-.70372.8648-.32937.4748-.51954.7461-.5702.814-.57006-.9327-1.08919-1.6901-1.54944-2.2723zm28.7317 0 1.50282 4.6229c-.29137.3165-.52848.6048-.70584.8648-.33359.4748-.52166.7461-.5723.814-.57006-.9327-1.09129-1.6901-1.55157-2.2723zm52.31904 0 1.50282 4.6229c-.28713.3165-.52214.6048-.70373.8648-.32936.4748-.51953.7461-.57018.814-.57006-.9327-1.09131-1.6901-1.55157-2.2723zm-279.51673 7.7388c-.29135 0-.54553.1123-.74398.3497-.20698.2318-.30736.5207-.30736.8542 0 .3392.10039.6204.30736.8521.19845.2375.4441.3561.73126.3561.28714 0 .53071-.1123.7334-.3497.20275-.2317.30524-.5137.30524-.8585 0-.3278-.10256-.6104-.301-.8478-.20269-.2375-.44197-.3561-.72492-.3561z" fill="#29176e"/>
    <path d="m23.088523 1043.3316-.05209 66.2468h-8.338071l-.01953-21.0564h-5.7043159c.325967 6.1863 2.5750929 9.8052 3.7224669 11.0966v9.9676h-4.2765979s-6.128058-6.1476-7.92736804-17.2132c-1.68195596-10.3311.62584604-23.9795 11.82586394-36.6303v15.4037c-1.747145 1.7013-2.4447029 5.993-2.6011829 8.2587l5.3131769.1314v-27.0417c2.966233-3.7658 4.713392-5.9001 8.057743-9.1633zm26.044265-.897v67.1438h17.054274c6.199757-7.609 11.754133-16.409 6.793015-26.9333 5.000248-7.7792-10.561121-29.6785-23.847289-40.2105zm9.661474 44.7806v13.8572c5.156712.2242 6.825631-6.2327 7.405823-10.2383-.482417-3.6885-2.855392-3.7426-7.405823-3.6189zm-.299878-8.7922c4.243999.2474 5.150172-1.3996 4.935046-3.1704-.221668-1.7631-1.492892-4.5856-4.935046-8.2587zm-48.7246149 32.9649c2.4381909 2.0801 4.6286409 3.2633 7.8361039 3.6731h8.481499l.01953 3.7272h7.601386v3.7195c2.425153.016 4.817692.016 7.242861 0v-3.7195h7.601385l.01954-3.7272h8.481484c3.200952-.4098 5.391401-1.593 7.836119-3.6731zm15.8873209-69.8581v26.6008l12.627736 17.3215v15.829h-4.178839v-17.5302h-8.566235l-.01953 22.5488c0 .7656.358569 1.7399.919197 2.3585.554159.6187 1.962315.9202 2.946712.9202h12.829811c1.258217 0 2.881482-.016 3.689882-.9743.808369-.9588.84097-1.5079.91267-2.7142v-22.8582l-12.582102-17.8627v-20.5693l1.818843-2.0105 2.216539 1.8945v21.3503l8.546686.116v-25.2862c-3.859368-4.0675-5.932481-5.4671-10.834938-8.885-3.702919 2.8379-7.373223 6.0393-10.326432 9.7511" fill="#86c140" fill-rule="evenodd"/>
  </g>
</svg>
