<?xml version="1.0" encoding="UTF-8" standalone="no"?>
<!-- Created with Inkscape (http://www.inkscape.org/) -->

<svg
   xmlns:dc="http://purl.org/dc/elements/1.1/"
   xmlns:cc="http://creativecommons.org/ns#"
   xmlns:rdf="http://www.w3.org/1999/02/22-rdf-syntax-ns#"
   xmlns:svg="http://www.w3.org/2000/svg"
   xmlns="http://www.w3.org/2000/svg"
   version="1.1"
   width="892.91339"
   height="344.40945"
   id="svg9066">
  <defs
     id="defs9068">
    <clipPath
       id="clipPath8586">
      <path
         d="m 327.935,238.361 82.712,0 0,50.523 -82.712,0 0,-50.523 z"
         id="path8588" />
    </clipPath>
  </defs>
  <metadata
     id="metadata9071">
    <rdf:RDF>
      <cc:Work
         rdf:about="">
        <dc:format>image/svg+xml</dc:format>
        <dc:type
           rdf:resource="http://purl.org/dc/dcmitype/StillImage" />
        <dc:title></dc:title>
      </cc:Work>
    </rdf:RDF>
  </metadata>
  <g
     transform="translate(71.695091,-299.067)"
     id="layer1">
    <g
       transform="matrix(10.709773,0,0,-10.709773,-3580.2612,3300.5078)"
       id="g8582">
      <g
         clip-path="url(#clipPath8586)"
         id="g8584">
        <g
           transform="translate(324.5337,279.9213)"
           id="g8590">
          <path
             d="m 0,0 0,-31.496 12.09,0 c 0,0 -1.461,0.613 -1.526,4.857 -0.095,6.118 1.698,10.541 5.217,16.377 C 19.053,-4.836 23.965,0 23.965,0 L 0,0 z"
             id="path8592"
             style="fill:#d22027;fill-opacity:1;fill-rule:nonzero;stroke:none" />
        </g>
        <g
           transform="translate(415.2829,279.9213)"
           id="g8594">
          <path
             d="m 0,0 -19.12,0 c 0,0 1.148,-1.909 2.238,-5.037 1.335,-3.828 1.603,-9.802 -1.968,-16.048 -4.907,-8.583 -7.13,-10.411 -7.13,-10.411 L 0,-31.496 0,0 z"
             id="path8596"
             style="fill:#d22027;fill-opacity:1;fill-rule:nonzero;stroke:none" />
        </g>
        <g
           transform="translate(370.3015,269.7581)"
           id="g8598">
          <path
             d="M 0,0 C 0.258,-0.116 0.481,-0.31 0.649,-0.112 0.817,0.087 1.023,0.808 1.129,1.167 1.284,1.689 1.522,2.299 1.378,2.375 1.235,2.451 0.923,2.643 0.722,2.639 0.52,2.636 0.137,2.515 0.066,2.3 -0.019,2.041 -0.362,1.2 -0.419,0.867 -0.476,0.534 -0.334,0.151 0,0 m 17.65,3.111 c 0.11,-0.36 0.554,-0.59 0.928,0.179 0.374,0.768 0.502,1.314 0.526,1.651 0.023,0.336 0.014,0.312 -0.035,0.579 C 19.026,5.758 18.894,5.947 18.526,5.797 18.148,5.644 18.083,5.594 17.66,5.378 17.49,5.292 17.445,5.213 17.54,4.577 17.661,3.768 17.539,3.47 17.65,3.111 M -1.982,-0.102 c 0.211,-0.111 0.327,-0.207 0.466,0.223 0.14,0.431 0.408,1.217 0.484,1.469 0.076,0.252 0.127,0.357 -10e-4,0.568 -0.129,0.212 -0.404,0.334 -0.404,0.334 0,0 -0.544,0.283 -0.678,0.079 C -2.248,2.367 -2.624,1.334 -2.687,0.966 -2.75,0.598 -2.193,0.01 -1.982,-0.102 M 21.519,-1.39 c -0.123,2.02 -0.129,2.636 -0.15,3.092 -0.017,0.373 -0.592,0.518 -0.592,0.518 0,0 -0.961,0.197 -1.134,0.233 C 19.47,2.49 19.226,2.449 19.015,1.88 18.803,1.311 18.759,1.054 18.395,0.7 18.031,0.346 17.724,0.323 17.65,0.109 c -0.075,-0.215 0.059,-0.345 0.423,-0.186 0.401,0.173 0.602,0.272 1.008,0.583 0.309,0.237 0.376,-0.774 0.41,-1.293 0.052,-0.785 0.097,-0.855 0.195,-1.473 0.065,-0.407 0.17,-0.434 -0.376,-0.302 -0.545,0.132 -0.978,0.471 -1.193,0.546 -0.214,0.075 -0.276,0.054 -0.67,-0.377 -0.488,-0.533 -0.87,-0.872 -0.84,-1.142 0.029,-0.27 0.011,-0.154 0.766,-0.17 0.754,-0.016 2.071,-0.28 2.348,-0.215 0.276,0.066 0.835,0.735 1.325,1.324 0.374,0.45 0.517,0.475 0.473,1.206 M 17.292,1.225 C 17.223,2.185 17.119,2.516 16.935,2.548 16.751,2.58 15.282,2.267 15.072,1.924 14.861,1.582 14.847,0.723 14.61,0.338 14.376,-0.04 14.082,-0.349 13.823,-0.579 c 0.105,0.3 0.182,0.539 0.215,0.675 0.117,0.487 0.112,0.634 0.031,0.722 -0.08,0.089 -0.314,0.226 -0.779,0.429 -0.556,0.241 -0.661,0.34 -0.901,0.268 C 12.272,1.479 12.126,1.011 11.844,0.104 11.788,0.024 11.731,-0.061 11.675,-0.155 11.303,-0.772 9.668,-2.61 9.119,-3.159 8.571,-3.708 7.685,-4.428 7.502,-4.169 c -0.136,0.191 -0.138,0.547 -0.04,1.071 0.461,0.189 1.568,0.678 2.014,1.174 0.504,0.56 0.772,1.297 0.814,1.66 0.025,0.225 0.156,0.888 -0.444,1.143 C 9.247,1.133 8.641,1.351 8.327,1.291 8.014,1.232 7.481,0.855 7.028,0.342 6.889,0.183 6.758,0.013 6.636,-0.166 6.483,-0.174 6.264,-0.194 5.937,-0.221 5.653,-0.244 5.436,-0.261 5.258,-0.271 c 0.497,1.255 1.13,2.727 1.812,3.687 0,0 0.065,0.106 0.416,0.409 C 7.678,3.989 8.215,4.174 8.144,3.831 8.075,3.488 7.835,3.061 7.635,2.824 7.434,2.587 8.457,2.379 8.888,2.251 9.319,2.123 9.239,2.417 9.344,2.991 9.425,3.434 9.364,3.806 8.976,4.158 8.821,4.299 8.631,4.456 8.631,4.456 c 0,0 -0.634,0.516 -1.107,0.811 C 7.051,5.562 6.594,5.204 6.044,4.736 5.176,3.996 4.232,2.052 3.393,-0.077 3.231,-0.034 3.039,0.021 2.811,0.09 2.438,0.202 2.068,0.075 1.901,-0.237 1.733,-0.549 1.47,-0.757 2.089,-0.988 2.46,-1.126 2.703,-1.199 2.947,-1.248 2.819,-1.598 2.693,-1.948 2.573,-2.295 2.083,-2.916 1.202,-4.025 0.841,-4.416 0.329,-4.971 -0.485,-6.06 -0.185,-4.96 c 0.097,0.356 0.166,0.566 0.301,1.018 0.633,2.108 0.886,2.496 0.717,2.681 -0.077,0.085 -0.587,0.148 -0.931,0.132 -0.343,-0.017 -0.668,-0.013 -0.78,-0.254 -0.199,-0.427 -0.399,-0.942 -0.399,-0.942 0,0 -0.924,0.807 -1.078,0.912 -0.259,0.175 -0.589,0.193 -0.884,-0.016 -0.688,-0.487 -1.473,-1.681 -1.857,-2.372 -0.251,-0.453 -0.745,-1.427 -0.86,-2.29 -0.167,-0.279 -0.387,-0.627 -0.577,-0.856 -0.363,-0.44 -1.605,-1.51 -1.349,-0.754 0.257,0.755 0.32,0.878 0.72,2.006 0.313,0.883 0.503,1.394 0.475,1.853 -0.021,0.336 -0.222,0.622 -0.599,0.838 -0.377,0.215 -0.474,0.165 -1.243,-0.542 -0.536,-0.492 -1.411,-1.39 -1.959,-1.96 0.257,0.832 0.566,1.749 0.938,2.728 0.714,1.88 0.753,1.978 1.177,2.85 0,0 0.408,0.746 0.639,1.012 0.293,0.338 0.129,0.18 0.431,0.479 0.232,0.23 0.497,0.414 0.299,0.541 -0.238,0.154 -0.267,0.184 -0.829,0.313 -0.699,0.163 -0.755,0.145 -1.133,-0.244 -1.352,-1.39 -2.763,-5.347 -3.633,-8.123 -0.269,-0.257 -2.309,-2.192 -3.284,-2.806 -0.341,-0.215 -0.572,-0.173 -0.57,0.096 0.005,0.525 0.046,0.849 0.756,2.258 0.271,0.537 0.677,1.025 0.846,1.103 0.3,0.139 -0.023,-0.634 -0.054,-0.931 -0.03,-0.297 1.124,0.069 1.124,0.069 0,0 0.326,0.43 0.439,1.307 0.067,0.527 -0.055,1.027 -0.185,1.112 -0.296,0.194 -0.748,0.241 -0.748,0.241 0,0 -0.827,0.18 -1.295,-0.175 -1.614,-1.225 -2.713,-3.752 -3.004,-4.602 -0.303,-0.885 -0.391,-1.862 -0.291,-2.12 0.159,-0.411 1.279,-0.886 1.69,-0.86 0.49,0.032 2.023,1.227 3.13,2.501 0.576,0.662 0.879,1.149 1.038,1.464 -0.135,-0.458 -0.243,-0.84 -0.318,-1.111 -0.595,-2.147 -0.493,-2.191 0.32,-2.106 0.89,0.092 1.184,0.014 1.316,0.347 0.084,0.207 0.296,1.456 0.82,3.354 0.316,0.255 0.71,0.578 0.98,0.816 0.516,0.456 1.156,0.977 0.623,-0.308 -0.131,-0.318 -0.633,-1.675 -0.621,-2.103 0.012,-0.428 0.962,-0.689 1.41,-0.791 0.558,-0.129 0.963,0.096 1.744,0.99 0.378,0.432 0.679,0.804 0.902,1.093 0.03,-0.055 0.063,-0.108 0.103,-0.156 0.897,-1.108 1.769,-0.643 2.146,-0.301 0.373,0.34 0.412,0.413 0.935,1.125 l 0.148,0.201 c 0,0 -0.069,-0.404 0.1,-0.736 0.171,-0.333 0.627,-0.676 1.02,-0.636 0.356,0.036 0.99,0.214 1.935,1.528 0.599,0.832 1.125,1.6 1.431,2.052 -0.462,-1.422 -0.809,-2.609 -0.974,-3.172 -0.657,-2.255 -0.875,-3.312 -0.234,-3.358 0.962,-0.071 1.167,-0.139 1.256,0.207 0.788,3.09 1.983,6.883 2.709,8.759 0.023,0.059 0.046,0.121 0.071,0.183 0.42,-0.007 0.843,0.012 1.173,0.06 -0.446,-1.026 -0.661,-2.07 -0.655,-2.61 0.008,-0.819 -0.009,-1.271 0.952,-1.773 0.628,-0.327 1.738,0.16 2.503,0.933 0.816,0.824 0.96,1.086 1.819,2.063 0.17,0.194 0.35,0.42 0.528,0.658 -0.209,-0.613 -0.454,-1.304 -0.744,-2.075 -0.171,-0.454 0.775,-0.777 1.149,-0.803 0.374,-0.027 0.448,0.013 0.807,0.731 0.247,0.494 0.654,1.476 1.008,2.393 0.018,0.012 0.035,0.023 0.053,0.037 0.604,0.426 0.863,0.65 1.301,1.177 0.191,0.23 0.393,0.5 0.592,0.951 0.202,0.458 0.303,0.068 0.403,-0.668 0.1,-0.737 0.536,-0.262 1.189,0.138 0.562,0.345 0.469,0.463 0.399,1.429 M 8.453,-0.396 C 8.89,0.158 9.094,0.159 9.344,-0.022 9.619,-0.222 9.37,-0.983 8.982,-1.419 8.586,-1.864 8.475,-1.909 8.106,-2.073 7.965,-2.136 7.809,-2.185 7.671,-2.223 c 0.2,0.746 0.4,1.343 0.782,1.827 M -1.946,-4.558 c -0.249,-0.643 -0.289,-0.756 -0.575,-1.151 -0.274,-0.379 -0.814,-0.61 -1.026,-0.507 -0.226,0.111 -0.252,0.302 -0.213,0.602 0.047,0.37 0.047,0.477 0.356,1.151 0.364,0.795 0.777,1.085 1.151,1.438 0.38,0.359 0.7,0.233 0.746,0.132 0.117,-0.256 -0.092,-0.77 -0.439,-1.665 m -16.458,-0.163 c -0.241,0.515 -0.67,0.81 -1.18,0.958 -0.25,0.072 -0.556,0.078 -1.373,0.183 -1.212,0.156 -1.056,0.534 -0.805,1.168 0.349,0.883 0.537,1.141 1.861,2.884 0.994,1.309 1.954,2.041 2.109,2.101 0.465,0.178 0.421,-0.46 0.324,-0.706 -0.133,-0.337 -0.446,-0.702 -0.142,-0.725 0,0 1.919,-0.151 2.108,0.049 0.189,0.2 0.716,2.565 0.064,3.352 -0.358,0.432 -1.325,0.618 -1.716,0.623 -0.487,0.006 -0.978,-0.163 -1.289,-0.392 -0.943,-0.697 -3.776,-3.49 -5.372,-6.496 -0.869,-1.633 -0.836,-2.185 -0.665,-2.851 0.156,-0.604 0.478,-0.868 0.985,-1.033 0.631,-0.206 0.943,-0.277 2.126,-0.507 0.722,-0.141 0.587,-0.752 -0.489,-2.42 0,0 -0.591,-0.954 -1.313,-1.883 -0.9,-1.159 -1.628,-1.878 -1.86,-2.098 -0.233,-0.22 -0.901,-1.05 -0.911,-0.462 -0.005,0.288 0.322,1.59 0.4,1.823 0.319,0.961 -2.103,0.511 -2.453,0.344 -0.179,-0.086 -0.257,-0.796 -0.283,-1.237 -0.064,-1.088 -0.035,-1.984 0.075,-2.525 0.108,-0.536 0.348,-0.948 0.724,-1.047 0.375,-0.1 1.478,-0.185 1.843,-0.012 0.319,0.152 1.065,0.649 1.891,1.481 1.502,1.515 3.74,4.695 4.623,6.532 0.738,1.535 0.984,2.328 0.718,2.896"
             id="path8600"
             style="fill:#d22027;fill-opacity:1;fill-rule:nonzero;stroke:none" />
        </g>
        <g
           transform="translate(351.0132,255.5731)"
           id="g8602">
          <path
             d="m 0,0 -0.683,-1.674 c -0.027,-0.059 -0.038,-0.076 -0.09,-0.076 -0.052,0 -0.072,0.021 -0.097,0.08 L -1.552,0 l 0,-1.664 c 0,-0.058 -0.025,-0.072 -0.073,-0.072 l -0.208,0 c -0.059,0 -0.073,0.017 -0.073,0.079 l 0,2.295 c 0,0.055 0.017,0.072 0.073,0.072 l 0.329,0 c 0.066,0 0.076,-0.007 0.104,-0.072 l 0.672,-1.581 0.652,1.577 C -0.049,0.7 -0.038,0.71 0.028,0.71 l 0.336,0 c 0.055,0 0.073,-0.007 0.073,-0.065 l 0,-2.309 c 0,-0.065 -0.018,-0.072 -0.084,-0.072 l -0.277,0 C 0.011,-1.736 0,-1.722 0,-1.657 L 0,0 z"
             id="path8604"
             style="fill:#231f20;fill-opacity:1;fill-rule:nonzero;stroke:none" />
        </g>
        <g
           transform="translate(352.4106,253.9131)"
           id="g8606">
          <path
             d="m 0,0 c 0,-0.055 -0.007,-0.076 -0.076,-0.076 l -0.302,0 c -0.055,0 -0.058,0.017 -0.058,0.072 l 0,1.65 c 0,0.049 0.007,0.073 0.065,0.073 l 0.295,0 C -0.01,1.719 -0.003,1.702 0,1.643 L 0,0 z m -0.218,1.968 c -0.146,0 -0.236,0.087 -0.236,0.208 0,0.122 0.083,0.219 0.236,0.219 0.149,0 0.222,-0.097 0.225,-0.208 0.004,-0.129 -0.09,-0.219 -0.225,-0.219"
             id="path8608"
             style="fill:#231f20;fill-opacity:1;fill-rule:nonzero;stroke:none" />
        </g>
        <g
           transform="translate(353.3778,255.4414)"
           id="g8610">
          <path
             d="m 0,0 0,-1.071 c 0,-0.1 0.004,-0.322 0.236,-0.333 0.086,0 0.152,0 0.152,-0.09 0,-0.097 -0.194,-0.152 -0.333,-0.152 -0.187,0 -0.308,0.069 -0.377,0.152 -0.097,0.118 -0.101,0.243 -0.101,0.354 l 0,1.14 -0.166,0 c -0.063,0 -0.063,0.014 -0.063,0.135 0,0.042 0.015,0.056 0.059,0.056 l 0.17,0 0,0.194 c 0,0.066 0.011,0.083 0.063,0.121 l 0.249,0.159 C -0.073,0.69 -0.062,0.693 -0.049,0.693 -0.004,0.693 0,0.638 0,0.596 l 0,-0.405 0.263,0 c 0.038,0 0.066,0 0.066,-0.049 C 0.329,0.014 0.329,0 0.27,0 L 0,0 z"
             id="path8612"
             style="fill:#231f20;fill-opacity:1;fill-rule:nonzero;stroke:none" />
        </g>
        <g
           transform="translate(355.6205,254.1558)"
           id="g8614">
          <path
             d="m 0,0 0.794,0 c 0.059,0 0.069,-0.014 0.069,-0.069 l 0,-0.181 C 0.86,-0.308 0.846,-0.319 0.787,-0.319 l -1.186,0 c -0.045,0 -0.069,0.007 -0.069,0.069 l 0,2.309 c 0,0.058 0.021,0.069 0.073,0.069 l 0.322,0 C -0.017,2.128 0,2.117 0,2.059 L 0,0 z"
             id="path8616"
             style="fill:#231f20;fill-opacity:1;fill-rule:nonzero;stroke:none" />
        </g>
        <g
           transform="translate(357.295,253.9131)"
           id="g8618">
          <path
             d="m 0,0 c 0,-0.055 -0.007,-0.076 -0.076,-0.076 l -0.302,0 c -0.055,0 -0.059,0.017 -0.059,0.072 l 0,1.65 c 0,0.049 0.007,0.073 0.066,0.073 l 0.295,0 C -0.011,1.719 -0.004,1.702 0,1.643 L 0,0 z m -0.219,1.968 c -0.145,0 -0.235,0.087 -0.235,0.208 0,0.122 0.083,0.219 0.235,0.219 0.15,0 0.222,-0.097 0.226,-0.208 C 0.01,2.058 -0.083,1.968 -0.219,1.968"
             id="path8620"
             style="fill:#231f20;fill-opacity:1;fill-rule:nonzero;stroke:none" />
        </g>
        <g
           transform="translate(358.7297,255.067)"
           id="g8622">
          <path
             d="m 0,0 c -0.014,0.222 -0.149,0.35 -0.301,0.35 -0.24,0 -0.347,-0.218 -0.364,-0.457 L 0,0 z m -0.648,-0.322 c 0.059,-0.478 0.312,-0.572 0.478,-0.572 0.184,0 0.323,0.111 0.413,0.229 0.055,0.079 0.072,0.1 0.117,0.1 0.046,0 0.091,-0.038 0.091,-0.107 0,-0.097 -0.143,-0.603 -0.687,-0.603 -0.457,0 -0.776,0.333 -0.776,0.946 0,0.689 0.406,0.939 0.776,0.939 0.541,0 0.669,-0.485 0.669,-0.651 0,-0.122 -0.08,-0.132 -0.121,-0.139 l -0.96,-0.142 z"
             id="path8624"
             style="fill:#231f20;fill-opacity:1;fill-rule:nonzero;stroke:none" />
        </g>
        <g
           transform="translate(360.0159,254.4122)"
           id="g8626">
          <path
             d="m 0,0 c 0,-0.083 0,-0.118 0.007,-0.152 0.024,-0.16 0.163,-0.198 0.239,-0.198 0.205,0 0.409,0.225 0.409,0.679 C 0.655,0.499 0.62,0.96 0.284,0.96 0.152,0.96 0.055,0.877 0,0.832 L 0,0 z m 0,1.053 c 0.069,0.066 0.225,0.212 0.482,0.212 0.381,0 0.599,-0.35 0.599,-0.842 0,-0.624 -0.325,-1.043 -0.873,-1.043 -0.222,0 -0.412,0.062 -0.53,0.163 -0.101,0.089 -0.104,0.152 -0.104,0.36 l 0,2.1 c 0,0.055 0.014,0.073 0.069,0.073 l 0.274,0 C -0.021,2.076 0,2.069 0,2.003 l 0,-0.95 z"
             id="path8628"
             style="fill:#231f20;fill-opacity:1;fill-rule:nonzero;stroke:none" />
        </g>
        <g
           transform="translate(362.4702,255.067)"
           id="g8630">
          <path
             d="m 0,0 c -0.014,0.222 -0.149,0.35 -0.302,0.35 -0.239,0 -0.346,-0.218 -0.363,-0.457 L 0,0 z m -0.648,-0.322 c 0.059,-0.478 0.312,-0.572 0.478,-0.572 0.184,0 0.322,0.111 0.412,0.229 0.056,0.079 0.073,0.1 0.118,0.1 0.045,0 0.09,-0.038 0.09,-0.107 0,-0.097 -0.142,-0.603 -0.686,-0.603 -0.457,0 -0.776,0.333 -0.776,0.946 0,0.689 0.406,0.939 0.776,0.939 0.541,0 0.669,-0.485 0.669,-0.651 0,-0.122 -0.08,-0.132 -0.121,-0.139 l -0.96,-0.142 z"
             id="path8632"
             style="fill:#231f20;fill-opacity:1;fill-rule:nonzero;stroke:none" />
        </g>
        <g
           transform="translate(364.8309,254.4122)"
           id="g8634">
          <path
             d="M 0,0 C 0,-0.083 0,-0.118 0.007,-0.152 0.031,-0.312 0.17,-0.35 0.246,-0.35 0.45,-0.35 0.655,-0.125 0.655,0.329 0.655,0.499 0.62,0.96 0.284,0.96 0.152,0.96 0.055,0.877 0,0.832 L 0,0 z m 0,1.053 c 0.069,0.066 0.225,0.212 0.482,0.212 0.381,0 0.599,-0.35 0.599,-0.842 0,-0.624 -0.326,-1.043 -0.873,-1.043 -0.222,0 -0.413,0.062 -0.53,0.163 -0.101,0.089 -0.104,0.152 -0.104,0.36 l 0,2.1 c 0,0.055 0.014,0.073 0.069,0.073 l 0.274,0 C -0.021,2.076 0,2.069 0,2.003 l 0,-0.95 z"
             id="path8636"
             style="fill:#231f20;fill-opacity:1;fill-rule:nonzero;stroke:none" />
        </g>
        <g
           transform="translate(367.174,254.745)"
           id="g8638">
          <path
             d="m 0,0 c -0.27,-0.083 -0.502,-0.156 -0.502,-0.416 0,-0.173 0.104,-0.298 0.287,-0.298 0.212,0 0.215,0.152 0.215,0.229 L 0,0 z M 0.409,-0.541 C 0.406,-0.693 0.392,-0.776 0.257,-0.849 0.076,-0.95 -0.191,-0.953 -0.253,-0.953 c -0.111,0 -0.672,0 -0.672,0.489 0,0.076 0.014,0.221 0.152,0.353 C -0.62,0.038 -0.395,0.097 0,0.201 l 0,0.177 c 0,0.128 -0.003,0.315 -0.211,0.315 -0.167,0 -0.215,-0.128 -0.243,-0.191 -0.031,-0.086 -0.062,-0.173 -0.194,-0.173 -0.104,0 -0.187,0.073 -0.187,0.184 0,0.211 0.27,0.419 0.69,0.419 0.557,0 0.554,-0.35 0.554,-0.607 l 0,-0.866 z"
             id="path8640"
             style="fill:#231f20;fill-opacity:1;fill-rule:nonzero;stroke:none" />
        </g>
        <g
           transform="translate(368.7201,255.4067)"
           id="g8642">
          <path
             d="m 0,0 c -0.208,0 -0.357,-0.243 -0.357,-0.551 0,-0.364 0.18,-0.676 0.458,-0.676 0.204,0 0.301,0.153 0.35,0.232 0.041,0.063 0.062,0.097 0.11,0.097 0.052,0 0.091,-0.044 0.091,-0.121 0,-0.201 -0.188,-0.596 -0.652,-0.596 -0.489,0 -0.724,0.444 -0.724,0.932 0,0.465 0.218,0.953 0.779,0.953 0.399,0 0.586,-0.284 0.586,-0.45 0,-0.125 -0.093,-0.198 -0.187,-0.198 -0.049,0 -0.125,0.025 -0.17,0.125 C 0.229,-0.135 0.166,0 0,0"
             id="path8644"
             style="fill:#231f20;fill-opacity:1;fill-rule:nonzero;stroke:none" />
        </g>
        <g
           transform="translate(370.647,254.8697)"
           id="g8646">
          <path
             d="m 0,0 0.714,-0.929 c 0.017,-0.024 0.031,-0.042 0.031,-0.059 0,-0.038 -0.034,-0.045 -0.069,-0.045 l -0.361,0 c -0.065,0 -0.075,0.004 -0.114,0.052 l -0.624,0.832 0,-0.818 c 0,-0.062 -0.024,-0.066 -0.076,-0.066 l -0.277,0 c -0.063,0 -0.073,0.014 -0.073,0.069 l 0,2.516 c 0,0.059 0.024,0.066 0.07,0.066 l 0.28,0 c 0.052,0 0.076,0 0.076,-0.062 L -0.423,0 0.201,0.693 C 0.253,0.752 0.267,0.762 0.34,0.762 l 0.235,0 c 0.021,0 0.07,0 0.07,-0.045 0,-0.024 -0.017,-0.045 -0.039,-0.069 L 0,0 z"
             id="path8648"
             style="fill:#231f20;fill-opacity:1;fill-rule:nonzero;stroke:none" />
        </g>
        <g
           transform="translate(372.6024,255.067)"
           id="g8650">
          <path
             d="m 0,0 c -0.014,0.222 -0.149,0.35 -0.301,0.35 -0.24,0 -0.347,-0.218 -0.364,-0.457 L 0,0 z m -0.648,-0.322 c 0.058,-0.478 0.311,-0.572 0.478,-0.572 0.184,0 0.322,0.111 0.412,0.229 0.056,0.079 0.073,0.1 0.118,0.1 0.045,0 0.091,-0.038 0.091,-0.107 0,-0.097 -0.143,-0.603 -0.687,-0.603 -0.457,0 -0.776,0.333 -0.776,0.946 0,0.689 0.405,0.939 0.776,0.939 0.541,0 0.669,-0.485 0.669,-0.651 0,-0.122 -0.08,-0.132 -0.121,-0.139 l -0.96,-0.142 z"
             id="path8652"
             style="fill:#231f20;fill-opacity:1;fill-rule:nonzero;stroke:none" />
        </g>
        <g
           transform="translate(374.8967,253.9096)"
           id="g8654">
          <path
             d="m 0,0 c 0,-0.062 -0.02,-0.073 -0.076,-0.073 l -0.277,0 c -0.069,0 -0.076,0.028 -0.076,0.08 l 0,1.171 c 0,0.139 -0.004,0.354 -0.299,0.354 -0.277,0 -0.277,-0.212 -0.277,-0.291 l 0,-1.23 c 0,-0.07 -0.017,-0.084 -0.083,-0.084 l -0.273,0 c -0.056,0 -0.074,0.014 -0.074,0.073 l 0,1.369 c 0,0.139 0.007,0.218 0.163,0.291 0.184,0.083 0.385,0.107 0.586,0.107 0.347,0 0.468,-0.086 0.527,-0.135 C -0.003,1.504 0,1.341 0,1.22 L 0,0 z"
             id="path8656"
             style="fill:#231f20;fill-opacity:1;fill-rule:nonzero;stroke:none" />
        </g>
        <g
           transform="translate(375.6531,253.8162)"
           id="g8658">
          <path
             d="m 0,0 c -0.142,0 -0.257,0.111 -0.257,0.26 0,0.17 0.142,0.256 0.253,0.256 0.139,0 0.26,-0.114 0.257,-0.267 C 0.249,0.111 0.142,0 0,0"
             id="path8660"
             style="fill:#231f20;fill-opacity:1;fill-rule:nonzero;stroke:none" />
        </g>
        <g
           transform="translate(378.2008,255.2473)"
           id="g8662">
          <path
             d="m 0,0 c 0.218,-0.114 0.561,-0.291 0.561,-0.752 0,-0.451 -0.347,-0.714 -0.8,-0.714 -0.562,0 -0.794,0.368 -0.794,0.568 0,0.153 0.121,0.212 0.204,0.212 0.139,0 0.194,-0.107 0.246,-0.201 0.046,-0.094 0.143,-0.281 0.375,-0.281 0.187,0 0.326,0.132 0.326,0.326 0,0.246 -0.181,0.34 -0.458,0.485 l -0.19,0.097 c -0.132,0.073 -0.472,0.256 -0.472,0.676 0,0.419 0.312,0.676 0.742,0.676 0.457,0 0.731,-0.264 0.731,-0.461 0,-0.118 -0.086,-0.201 -0.198,-0.201 -0.121,0 -0.166,0.076 -0.211,0.152 -0.059,0.094 -0.149,0.236 -0.336,0.236 -0.177,0 -0.302,-0.135 -0.302,-0.309 0,-0.225 0.177,-0.315 0.413,-0.429 L 0,0 z"
             id="path8664"
             style="fill:#231f20;fill-opacity:1;fill-rule:nonzero;stroke:none" />
        </g>
        <g
           transform="translate(380.0272,255.067)"
           id="g8666">
          <path
             d="m 0,0 c -0.014,0.222 -0.149,0.35 -0.301,0.35 -0.239,0 -0.347,-0.218 -0.364,-0.457 L 0,0 z m -0.648,-0.322 c 0.059,-0.478 0.312,-0.572 0.478,-0.572 0.184,0 0.322,0.111 0.413,0.229 0.055,0.079 0.073,0.1 0.118,0.1 0.044,0 0.09,-0.038 0.09,-0.107 0,-0.097 -0.143,-0.603 -0.687,-0.603 -0.457,0 -0.776,0.333 -0.776,0.946 0,0.689 0.405,0.939 0.776,0.939 0.541,0 0.669,-0.485 0.669,-0.651 0,-0.122 -0.079,-0.132 -0.121,-0.139 l -0.96,-0.142 z"
             id="path8668"
             style="fill:#231f20;fill-opacity:1;fill-rule:nonzero;stroke:none" />
        </g>
        <g
           transform="translate(381.2546,253.9131)"
           id="g8670">
          <path
             d="m 0,0 c 0,-0.055 -0.007,-0.076 -0.076,-0.076 l -0.302,0 c -0.055,0 -0.058,0.017 -0.058,0.072 l 0,1.65 c 0,0.049 0.006,0.073 0.065,0.073 l 0.295,0 C -0.01,1.719 -0.003,1.702 0,1.643 L 0,0 z m -0.218,1.968 c -0.146,0 -0.236,0.087 -0.236,0.208 0,0.122 0.083,0.219 0.236,0.219 0.149,0 0.222,-0.097 0.225,-0.208 C 0.01,2.058 -0.083,1.968 -0.218,1.968"
             id="path8672"
             style="fill:#231f20;fill-opacity:1;fill-rule:nonzero;stroke:none" />
        </g>
        <g
           transform="translate(382.3602,255.4414)"
           id="g8674">
          <path
             d="m 0,0 0,-1.071 c 0,-0.1 0.004,-0.322 0.236,-0.333 0.087,0 0.152,0 0.152,-0.09 0,-0.097 -0.194,-0.152 -0.332,-0.152 -0.188,0 -0.309,0.069 -0.378,0.152 -0.097,0.118 -0.101,0.243 -0.101,0.354 l 0,1.14 -0.166,0 c -0.062,0 -0.062,0.014 -0.062,0.135 0,0.042 0.014,0.056 0.058,0.056 l 0.17,0 0,0.194 c 0,0.066 0.011,0.083 0.063,0.121 l 0.249,0.159 C -0.072,0.69 -0.062,0.693 -0.048,0.693 -0.003,0.693 0,0.638 0,0.596 l 0,-0.405 0.264,0 c 0.037,0 0.066,0 0.066,-0.049 C 0.33,0.014 0.33,0 0.27,0 L 0,0 z"
             id="path8676"
             style="fill:#231f20;fill-opacity:1;fill-rule:nonzero;stroke:none" />
        </g>
        <g
           transform="translate(384.5266,255.7395)"
           id="g8678">
          <path
             d="m 0,0 c -0.121,-0.042 -0.451,-0.149 -0.593,-0.149 -0.103,0 -0.134,0.066 -0.134,0.111 0,0.08 0.072,0.104 0.103,0.111 0.326,0.093 0.524,0.173 0.77,0.395 0.073,0.069 0.114,0.107 0.177,0.107 0.103,0 0.107,-0.09 0.107,-0.131 l 0,-2.274 c 0,-0.062 -0.024,-0.073 -0.076,-0.073 l -0.274,0 C 0.021,-1.903 0,-1.889 0,-1.823 L 0,0 z"
             id="path8680"
             style="fill:#231f20;fill-opacity:1;fill-rule:nonzero;stroke:none" />
        </g>
        <g
           transform="translate(386.6656,255.7464)"
           id="g8682">
          <path
             d="m 0,0 c 0,0.191 -0.135,0.343 -0.329,0.343 -0.159,0 -0.312,-0.107 -0.312,-0.294 0,-0.188 0.142,-0.33 0.374,-0.458 C -0.204,-0.371 0,-0.249 0,0 m -0.717,-1.258 c 0,-0.17 0.111,-0.416 0.395,-0.416 0.218,0 0.36,0.146 0.36,0.336 0,0.25 -0.198,0.378 -0.447,0.541 -0.184,-0.149 -0.308,-0.253 -0.308,-0.461 m 1.168,-0.021 c 0,-0.364 -0.281,-0.686 -0.801,-0.686 -0.533,0 -0.752,0.333 -0.752,0.638 0,0.339 0.25,0.519 0.482,0.682 -0.174,0.128 -0.388,0.302 -0.388,0.638 0,0.322 0.225,0.603 0.703,0.603 0.44,0 0.662,-0.232 0.662,-0.544 0,-0.312 -0.218,-0.468 -0.419,-0.606 0.253,-0.177 0.513,-0.354 0.513,-0.725"
             id="path8684"
             style="fill:#231f20;fill-opacity:1;fill-rule:nonzero;stroke:none" />
        </g>
        <g
           transform="translate(388.0312,256.0792)"
           id="g8686">
          <path
             d="m 0,0 c -0.204,0 -0.329,-0.177 -0.329,-0.409 0,-0.218 0.114,-0.482 0.398,-0.482 0.164,0 0.271,0.08 0.323,0.118 C 0.406,-0.413 0.312,0 0,0 m -0.111,-1.182 c -0.353,0 -0.624,0.267 -0.624,0.711 0,0.402 0.26,0.734 0.756,0.734 0.54,0 0.794,-0.395 0.794,-0.967 0,-1.205 -0.984,-1.594 -1.307,-1.594 -0.128,0 -0.128,0.094 -0.128,0.104 0,0.073 0.038,0.09 0.211,0.156 0.465,0.18 0.724,0.565 0.777,1.033 -0.105,-0.073 -0.253,-0.177 -0.479,-0.177"
             id="path8688"
             style="fill:#231f20;fill-opacity:1;fill-rule:nonzero;stroke:none" />
        </g>
        <g
           transform="translate(390.222,255.7464)"
           id="g8690">
          <path
             d="m 0,0 c 0,0.191 -0.135,0.343 -0.329,0.343 -0.16,0 -0.312,-0.107 -0.312,-0.294 0,-0.188 0.142,-0.33 0.374,-0.458 C -0.204,-0.371 0,-0.249 0,0 m -0.717,-1.258 c 0,-0.17 0.111,-0.416 0.395,-0.416 0.218,0 0.36,0.146 0.36,0.336 0,0.25 -0.198,0.378 -0.447,0.541 -0.184,-0.149 -0.308,-0.253 -0.308,-0.461 m 1.168,-0.021 c 0,-0.364 -0.281,-0.686 -0.801,-0.686 -0.533,0 -0.752,0.333 -0.752,0.638 0,0.339 0.25,0.519 0.482,0.682 -0.173,0.128 -0.388,0.302 -0.388,0.638 0,0.322 0.225,0.603 0.703,0.603 0.44,0 0.662,-0.232 0.662,-0.544 0,-0.312 -0.218,-0.468 -0.419,-0.606 0.253,-0.177 0.513,-0.354 0.513,-0.725"
             id="path8692"
             style="fill:#231f20;fill-opacity:1;fill-rule:nonzero;stroke:none" />
        </g>
        <g
           transform="translate(391.2694,253.8162)"
           id="g8694">
          <path
             d="m 0,0 c -0.142,0 -0.257,0.111 -0.257,0.26 0,0.17 0.142,0.256 0.253,0.256 0.139,0 0.26,-0.114 0.257,-0.267 C 0.249,0.111 0.142,0 0,0"
             id="path8696"
             style="fill:#231f20;fill-opacity:1;fill-rule:nonzero;stroke:none" />
        </g>
      </g>
    </g>
  </g>
</svg>
