<?xml version="1.0" encoding="UTF-8" standalone="no"?>
<!-- Created with Inkscape (http://www.inkscape.org/) -->

<svg
   xmlns:dc="http://purl.org/dc/elements/1.1/"
   xmlns:cc="http://creativecommons.org/ns#"
   xmlns:rdf="http://www.w3.org/1999/02/22-rdf-syntax-ns#"
   xmlns:svg="http://www.w3.org/2000/svg"
   xmlns="http://www.w3.org/2000/svg"
   xmlns:sodipodi="http://sodipodi.sourceforge.net/DTD/sodipodi-0.dtd"
   xmlns:inkscape="http://www.inkscape.org/namespaces/inkscape"
   width="826.8606"
   height="79.96788"
   id="svg3187"
   version="1.1"
   inkscape:version="0.48.3.1 r9886"
   sodipodi:docname="Neues Dokument 3">
  <defs
     id="defs3189" />
  <sodipodi:namedview
     id="base"
     pagecolor="#ffffff"
     bordercolor="#666666"
     borderopacity="1.0"
     inkscape:pageopacity="0.0"
     inkscape:pageshadow="2"
     inkscape:zoom="0.35"
     inkscape:cx="523.43029"
     inkscape:cy="-207.59247"
     inkscape:document-units="px"
     inkscape:current-layer="layer1"
     showgrid="false"
     fit-margin-top="0"
     fit-margin-left="0"
     fit-margin-right="0"
     fit-margin-bottom="0"
     inkscape:window-width="473"
     inkscape:window-height="447"
     inkscape:window-x="132"
     inkscape:window-y="132"
     inkscape:window-maximized="0" />
  <metadata
     id="metadata3192">
    <rdf:RDF>
      <cc:Work
         rdf:about="">
        <dc:format>image/svg+xml</dc:format>
        <dc:type
           rdf:resource="http://purl.org/dc/dcmitype/StillImage" />
        <dc:title></dc:title>
      </cc:Work>
    </rdf:RDF>
  </metadata>
  <g
     inkscape:label="Ebene 1"
     inkscape:groupmode="layer"
     id="layer1"
     transform="translate(173.43029,-244.80183)">
    <g
       transform="matrix(3.8381511,0,0,3.8381511,-301.23305,73.888961)"
       id="g3079">
      <path
         d="m 33.298,60.427 3.709,-1.98 c 1.235,2.198 3.467,3.419 6.029,3.419 2.262,0 3.89,-0.759 3.89,-2.306 0,-1.52 -1.598,-2.17 -4.522,-2.903 -3.98,-1.003 -8.141,-1.926 -8.141,-6.13 0,-3.744 3.256,-5.996 8.05,-5.996 4.583,0 7.297,1.98 8.865,4.123 l -3.407,2.334 c -1.176,-1.709 -3.316,-2.85 -5.487,-2.85 -2.081,0 -3.227,0.814 -3.227,2.008 0,1.601 1.658,2.17 4.583,2.902 3.92,0.95 8.08,2.062 8.08,6.213 0,3.229 -2.713,6.104 -8.924,6.104 -4.824,0 -7.84,-2.061 -9.498,-4.938 z"
         id="path3081"
         inkscape:connector-curvature="0"
         style="fill:#005191" />
      <path
         d="m 58.832,54.921 c 0,-6.973 4.492,-10.391 10.131,-10.391 5.639,0 8.08,2.713 9.045,6.32 l -4.643,1.221 c -0.724,-2.306 -1.81,-3.879 -4.433,-3.879 -3.377,0 -5.187,2.578 -5.187,6.729 0,4.232 1.869,6.891 5.247,6.891 2.623,0 3.92,-1.492 4.703,-4.232 l 4.613,0.922 c -1.085,4.043 -3.738,6.863 -9.347,6.863 -5.817,0 -10.129,-3.364 -10.129,-10.444 z"
         id="path3083"
         inkscape:connector-curvature="0"
         style="fill:#005191" />
      <path
         d="m 86.688,44.911 h 4.914 v 7.786 h 8.774 v -7.786 h 4.914 v 20.075 h -4.914 v -8.572 h -8.774 v 8.572 H 86.688 V 44.911 z"
         id="path3085"
         inkscape:connector-curvature="0"
         style="fill:#005191" />
      <path
         d="m 115.811,44.911 h 4.885 v 20.075 h -4.885 V 44.911 z"
         id="path3087"
         inkscape:connector-curvature="0"
         style="fill:#005191" />
      <path
         d="m 131.245,44.911 h 15.196 v 3.688 H 136.16 v 4.314 h 7.447 v 3.5 h -7.447 v 4.991 h 10.824 v 3.581 H 131.245 V 44.911 z"
         id="path3089"
         inkscape:connector-curvature="0"
         style="fill:#005191" />
      <path
         d="m 154.458,60.427 3.709,-1.98 c 1.236,2.198 3.468,3.419 6.03,3.419 2.262,0 3.89,-0.759 3.89,-2.306 0,-1.52 -1.598,-2.17 -4.522,-2.903 -3.98,-1.003 -8.141,-1.926 -8.141,-6.13 0,-3.744 3.256,-5.996 8.051,-5.996 4.582,0 7.296,1.98 8.863,4.123 l -3.406,2.334 c -1.177,-1.709 -3.317,-2.85 -5.488,-2.85 -2.08,0 -3.227,0.814 -3.227,2.008 0,1.601 1.658,2.17 4.584,2.902 3.919,0.95 8.08,2.062 8.08,6.213 0,3.229 -2.713,6.104 -8.925,6.104 -4.824,0 -7.839,-2.061 -9.498,-4.938 z"
         id="path3091"
         inkscape:connector-curvature="0"
         style="fill:#005191" />
      <path
         d="m 179.54,60.427 3.709,-1.98 c 1.236,2.198 3.468,3.419 6.03,3.419 2.262,0 3.89,-0.759 3.89,-2.306 0,-1.52 -1.598,-2.17 -4.522,-2.903 -3.98,-1.003 -8.141,-1.926 -8.141,-6.13 0,-3.744 3.256,-5.996 8.051,-5.996 4.582,0 7.295,1.98 8.863,4.123 l -3.406,2.334 c -1.177,-1.709 -3.316,-2.85 -5.488,-2.85 -2.079,0 -3.226,0.814 -3.226,2.008 0,1.601 1.657,2.17 4.583,2.902 3.919,0.95 8.08,2.062 8.08,6.213 0,3.229 -2.713,6.104 -8.925,6.104 -4.824,0 -7.839,-2.061 -9.498,-4.938 z"
         id="path3093"
         inkscape:connector-curvature="0"
         style="fill:#005191" />
      <path
         d="m 207.336,44.911 h 15.196 v 3.688 H 212.25 v 4.314 h 7.448 v 3.5 h -7.448 v 4.991 h 10.825 v 3.581 H 207.336 V 44.911 z"
         id="path3095"
         inkscape:connector-curvature="0"
         style="fill:#005191" />
      <path
         d="m 231.242,44.911 h 8.383 c 5.487,0 8.773,1.764 8.773,6.212 0,3.174 -1.658,4.91 -4.644,5.725 l 4.976,8.139 h -5.187 L 238.9,57.418 h -2.834 v 7.569 h -4.825 V 44.911 z m 8.172,9.088 c 2.834,0 4.191,-0.731 4.191,-2.767 0,-1.98 -1.357,-2.713 -4.191,-2.713 h -3.347 v 5.479 h 3.347 z"
         id="path3097"
         inkscape:connector-curvature="0"
         style="fill:#005191" />
    </g>
  </g>
</svg>
