<?xml version="1.0" encoding="utf-8"?>
<!-- Generator: Adobe Illustrator 20.0.0, SVG Export Plug-In . SVG Version: 6.00 Build 0)  -->
<svg version="1.1" id="レイヤー_1" xmlns="http://www.w3.org/2000/svg" xmlns:xlink="http://www.w3.org/1999/xlink" x="0px"
	 y="0px" width="500px" height="98.4px" viewBox="0 0 500 98.4" style="enable-background:new 0 0 500 98.4;" xml:space="preserve">
<path d="M443.4,97.5c31.1,0,51.6-21.9,51.6-48c0-25-18.4-48.5-52.1-48.5c-29.6,0-50.5,21.4-50.5,48C391.9,76,412.8,97.5,443.4,97.5z
	 M407.7,49c0-18.9,15.3-34.7,35.7-34.7c20.4,0,35.7,15.8,35.7,34.7s-15.8,34.7-35.7,34.7C422.5,83.7,407.7,68.4,407.7,49z"/>
<path d="M270.9,17.8V4h-46.4v13.8h15.3v63.8h-15.3v13.8h46.4V81.6h-15.3V17.8H270.9z M110.7,4v13.8h15.8v63.8h-15.8v13.8h103.6V64.3
	h-15.8v17.4h-56.1V57.1h25v9.2h15.8V32.6h-15.8v10.7h-25V17.8h56.1v18.4h15.8V4L110.7,4z M87.7,69.4c0,7.7-7.1,14.8-29.1,14.8
	c-10.2,0-35.2-4.1-35.2-14.8v-6.1H7v31.6h15.8v-5.6c4.6,2.6,18.4,8.2,36.2,8.2s31.1-3.6,36.7-10.7c4.1-5.1,7.1-10.7,7.1-17.9
	c0-12.8-9.2-22.5-20.9-25c-2-0.5-10.2-1.5-14.8-1.5c-13.3,0.5-26-0.5-35.7-1.5c-6.1-1-10.7-4.1-10.7-11.2c0-3.1,1-6.1,3.1-7.7
	c5.1-5.1,15.3-7.1,27.1-6.6c11.7,0.5,19.9,3.6,26.5,6.6c5.6,2.6,7.7,5.6,7.7,10.2v4.1H101V4H85.1v6.6C80,7.6,66.3,2,48.4,2
	c-18.9,0-29.1,3.6-35.2,9.7C8.6,15.8,5,22.9,5,30.1C5,40.8,11.1,48.5,19.8,52c9.7,3.6,29.6,4.1,39.3,4.6c9.2,0.5,17.4,0,23,3.1
	C85.6,61.2,87.7,65.3,87.7,69.4z M347.5,95.4h47V81.6h-13.3L348,41.8l31.6-24h13.3V4h-45.4v13.8h9.7L311.8,53V17.8h15.3V4h-47v13.8
	h15.3v63.8h-15.3v13.8h47V81.6h-15.3V69.9l23.5-18.4l25,30.1h-12.8L347.5,95.4z"/>
</svg>
