<svg height="473" viewBox="0 0 1893 473" width="1893" xmlns="http://www.w3.org/2000/svg" xmlns:xlink="http://www.w3.org/1999/xlink"><filter id="a" height="101.7%" width="101%" x="-.5%" y="-.8%"><feOffset dx="0" dy="2" in="SourceAlpha" result="shadowOffsetOuter1"/><feGaussianBlur in="shadowOffsetOuter1" result="shadowBlurOuter1" stdDeviation="2"/><feColorMatrix in="shadowBlurOuter1" result="shadowMatrixOuter1" type="matrix" values="0 0 0 0 0   0 0 0 0 0   0 0 0 0 0  0 0 0 0.5 0"/><feMerge><feMergeNode in="shadowMatrixOuter1"/><feMergeNode in="SourceGraphic"/></feMerge></filter><g fill="none" fill-rule="evenodd"><g filter="url(#a)" transform="translate(-201 -490)"><path d="m0 0h2295v1453h-2295z"/></g><g><path d="m0 0h1893v473h-1893z" fill="#e30613" fill-rule="nonzero"/><g fill="#fff"><path d="m89 322.554258c16.011477 7.410023 30.183639 10.445742 48.270242 10.445742 42.092028 0 64.729758-18.094798 64.729758-51.941872 0-25.265788-10.281302-38.269183-41.172371-51.248675-20.350375-8.820318-21.034223-9.035448-25.608931-12.286297-6.178214-4.398207-8.465568-8.103218-8.465568-14.150753 0-10.421839 8.465568-15.991308 24.925084-15.991308 13.488314 0 23.793197 2.31862 40.040484 9.513513v-32.006519c-15.09182-5.569469-27.684057-7.888089-41.856219-7.888089-37.965359 0-59.9192403 18.548961-59.9192403 50.55548 0 24.33356 10.7529213 38.030151 38.8850163 49.623251 29.735601 12.52533 34.546119 16.230341 34.546119 27.130246 0 12.047264-9.833264 18.309928-28.815943 18.309928-15.775668 0-27.896286-3.250849-45.5112691-12.047263v31.982616z" fill-rule="nonzero"/><path d="m332 275.709907v-10.659734c0-41.730706-18.81383-63.050173-55.723404-63.050173-17.18617 0-30.87766 4.397738-41.553192 13.671228-13.476064 11.591863-19.723404 28.059478-19.723404 52.175333 0 44.981208 20.441489 65.153439 65.944149 65.153439 15.103723 0 28.316489-2.55738 44.114362-8.819376v-27.844371c-17.88032 6.501003-26.928192 8.341361-39.710107 8.341361-22.978723 0-29.944149-6.716111-31.117021-28.967707zm-78.007979-20.626346c1.388298-19.479109 7.659575-27.366356 21.590426-27.366356 13.236702 0 17.880319 6.955118 18.81383 27.366356z"/><path d="m350 330h36.855635v-84.616253c10.075132-3.460496 23.571562-5.972912 39.144365-6.897291v-33.799097c-14.864949 1.137697-27.464762 8.509029-39.144365 22.540632v-23.227991h-8.470661c-4.577461 4.598194-13.732382 7.134312-28.384974 7.58465z" fill-rule="nonzero"/><path d="m558 206h-32.094789l-27.455438 71.639189-27.455438-71.639189h-38.994335l50.295317 123h26.55136z" fill-rule="nonzero"/><path d="m568.129071 329h36.741858v-126.793155h-8.444512c-4.563329 4.62714-13.689988 7.179222-28.297346 7.632395zm18.488541-177c-11.173101 0-19.617612 8.32408-19.617612 19.438755 0 11.80636 8.209288 20.130441 19.617612 20.130441 11.1731 0 19.382388-8.324081 19.382388-19.891929 0-11.353187-8.209288-19.677267-19.382388-19.677267z"/><path d="m725 296.855474c-15.748031 6.50219-21.760916 7.888687-32.641374 7.888687-22.214269 0-28.46576-8.342884-28.46576-37.339781 0-28.757847 6.251491-37.10073 27.773801-37.10073 10.641851 0 15.270818 1.17135 32.402768 8.103832v-30.144343c-14.340253-4.637592-23.598187-6.263139-35.647817-6.263139-42.352661 0-63.421618 21.80146-63.421618 65.380474 0 43.818066 21.068957 65.619526 63.421618 65.619526 13.648294 0 24.528752-2.557847 36.578382-8.820985z" fill-rule="nonzero"/><path d="m852 275.709907v-10.659734c0-41.730706-18.81383-63.050173-55.723404-63.050173-17.18617 0-30.87766 4.397738-41.553192 13.671228-13.476064 11.591863-19.723404 28.059478-19.723404 52.175333 0 44.981208 20.441489 65.153439 65.944149 65.153439 15.103723 0 28.316489-2.55738 44.114362-8.819376v-27.844371c-17.88032 6.501003-26.928192 8.341361-39.710107 8.341361-22.978723 0-29.944149-6.716111-31.117021-28.967707zm-78.031915-20.626346c1.388298-19.479109 7.659575-27.366356 21.590426-27.366356 13.236702 0 17.880319 6.955118 18.813829 27.366356z"/><path d="m865 322.554258c16.011477 7.410023 30.183639 10.445742 48.270242 10.445742 42.092028 0 64.729758-18.094798 64.729758-51.941872 0-25.265788-10.281302-38.269183-41.172371-51.248675-20.350375-8.820318-21.034223-9.035448-25.608931-12.286297-6.178214-4.398207-8.465568-8.103218-8.465568-14.150753 0-10.421839 8.465568-15.991308 24.925084-15.991308 13.488314 0 23.793197 2.31862 40.040484 9.513513v-32.006519c-15.09182-5.569469-27.684057-7.888089-41.856219-7.888089-37.965359 0-59.91924 18.548961-59.91924 50.55548 0 24.33356 10.752921 38.030151 38.885016 49.623251 29.735601 12.52533 34.546119 16.230341 34.546119 27.130246 0 12.047264-9.833264 18.309928-28.815943 18.309928-15.775668 0-27.896286-3.250849-45.511269-12.047263v31.982616z" fill-rule="nonzero"/><path d="m1072 301.893485c-7.59989 2.322811-10.82984 3.01726-15.67477 3.01726-12.20732 0-16.12601-4.190639-16.12601-16.954129v-55.292489h29.49706v-25.79039h-29.49706v-27.873737h-26.26712l-3.68119 13.481885c-2.99246 10.440678-8.52613 14.391852-20.495951 14.391852h-2.754959v25.79039h16.12601v58.525268c0 29.502099 12.89606 41.810605 43.53311 41.810605 9.45236 0 18.19224-1.388898 25.34088-4.190639z" fill-rule="nonzero"/><path d="m1145 202c-39.77538 0-62 23.187956-62 64.687226 0 43.124818 21.50923 66.312774 62 66.312774 40.01385 0 62-23.187956 62-65.380474-.02385-42.43157-21.98615-65.619526-62-65.619526zm0 25.984854c8.56077 0 14.33154 3.012044 18.26615 9.514234 3.48154 5.56989 4.86462 13.912773 4.86462 29.905292 0 14.151824-1.14462 22.494708-3.45769 27.825547-3.69616 7.888686-10.18231 11.833029-19.64923 11.833029-8.56077 0-14.33154-3.012044-18.26616-9.514233-3.48154-5.569891-4.86461-13.912774-4.86461-30.598541 0-13.458576 1.14461-21.801459 3.45769-27.132299 3.67231-7.888686 10.15846-11.833029 19.64923-11.833029z"/><path d="m1226 330h36.85563v-84.616253c10.07514-3.460496 23.57157-5.972912 39.14437-6.897291v-33.799097c-14.88854 1.137697-27.46476 8.509029-39.14437 22.540632v-23.227991h-8.47066c-4.57746 4.598194-13.73238 7.134312-28.38497 7.58465z" fill-rule="nonzero"/><path d="m1427 275.709907v-10.659734c0-41.730706-18.80998-63.050173-55.71201-63.050173-17.18265 0-30.87134 4.397738-41.54469 13.671228-13.47331 11.591863-19.7433 28.059478-19.7433 52.175333 0 44.981208 20.43731 65.153439 65.93066 65.153439 15.0767 0 28.3107-2.55738 44.10534-8.819376v-27.844371c-17.87666 6.501003-26.92268 8.341361-39.70198 8.341361-22.97403 0-29.93803-6.716111-31.11066-28.967707zm-78.01595-20.626346c1.38801-19.479109 7.658-27.366356 21.58601-27.366356 13.23399 0 17.87666 6.955118 18.80998 27.366356z"/><path d="m1731.85373 344h-213.44477c-18.26866 0-33.40896-14.791766-33.40896-33.484921v-133.293442c0-18.788894 15.23582-33.221637 33.40896-33.221637h213.44477c17.95821 0 33.14627 14.480613 33.14627 33.221637v133.293442c-.02388 18.645285-15.11642 33.484921-33.14627 33.484921z" fill-rule="nonzero"/><path d="m1507 167h238v157h-238z" fill-rule="nonzero"/></g><path d="m1759 310.087146c0 15.026144-12.09524 26.912854-26.45238 26.912854h-212.80952c-14.64286 0-26.7381-11.910675-26.7381-26.912854v-133.461874c0-15.026143 12.09524-26.625272 26.7381-26.625272h212.80952c14.35714 0 26.45238 11.623094 26.45238 26.625272zm-19.42857 0v-133.461874c0-4.24183-2.80953-7.64488-7.04762-7.64488h-212.80952c-4.21429 0-7.30953 3.40305-7.30953 7.64488v133.461874c0 4.24183 3.09524 7.64488 7.30953 7.64488h212.80952c4.23809 0 7.04762-3.40305 7.04762-7.64488zm-74.88095-56.67756h10.69047c11.54762 0 19.42857 2.827887 19.42857 15.28976 0 12.749456-9.28571 16.152506-19.71428 16.152506h-10.40476zm-28.97619 51.285403h47.28571c21.95238 0 42.78571-10.472767 42.78571-35.420479 0-15.289761-10.14285-24.372549-25.04761-28.614379 10.69047-5.392157 20.54761-13.875817 20.54761-25.786493 0-22.958605-12.66666-32.592592-36.02381-32.592592h-49.54761zm28.97619-103.409586h8.16666c9.57143 0 18.57143 3.115468 18.57143 14.738562 0 10.472767-7.04762 14.738562-16.61905 14.738562h-10.14285v-29.477124zm-135.11905 103.409586h44.7619c37.16667-.287582 48.42857-26.361656 48.42857-61.75817 0-40.812636-16.88095-60.631808-48.42857-60.631808h-44.7619zm29.28571-103.122004h5.90476c26.45239 0 29 19.267974 29 43.928104 0 26.912854-9 39.374728-24.5 39.374728h-10.40476z" fill="#e30613"/></g></g></svg>