<?xml version="1.0" encoding="utf-8"?>
<!-- Generator: Adobe Illustrator 21.1.0, SVG Export Plug-In . SVG Version: 6.00 Build 0)  -->
<svg version="1.1" id="Layer_1" xmlns="http://www.w3.org/2000/svg" xmlns:xlink="http://www.w3.org/1999/xlink" x="0px" y="0px"
	 viewBox="0 0 368 145" style="enable-background:new 0 0 368 145;" xml:space="preserve">
<style type="text/css">
	.st0{fill:#130C0E;}
</style>
<g>
	<path class="st0" d="M218.3,69.7c6.2-2,3.4,11.1,3.4,11.1c-2.1,6.9-5.7,13-9.2,18C207.6,89.2,208.4,73,218.3,69.7 M241.5,105.1
		c-8.5,10-17.6,6.7-23.8,0.6c0.1-0.2,0.2-0.3,0.4-0.5c8.2-11.1,11.7-20.9,11.6-27.7c-0.3-14.4-16.1-17.6-26.7-4.3
		c-6,7.6-7.1,19.6-2.3,29.7c1.1,2.2,2.3,4.2,3.6,5.9c-1.7,1.7-2.7,2.6-2.7,2.6c-7.9,7.8-13,4.4-12.6-6.4c0.3-7.5,1-15.6,1.3-22.1
		c0.2-3.4,1-16.5-8.2-17.6c-9.2-1.1-15.6,15.6-15.6,15.6c0.9-2.8,0.4-11.8,0.4-11.8c-0.3-3-9.9-2.2-9.9-2.2s-0.4,19.7-2.9,32.4
		c-3.6,17.8-13.4,19.4-12.4,1.6c0.4-7.4,1.7-16,2.6-23.4c0.4-3.3-10.8-2.9-11,0.8c-0.7,13.8-3.3,36.6-9.7,36.7
		c-6.4,0.1-4.6-18.8-4.3-22.4c0.6-6.8,2.6-12.8,4.9-16.5c6.5-10.6,14-4.2,14.2-4.1c1.6,0.8,2.5-0.8,2.5-0.8
		c-4.7-7.5-22.7-8.6-29.8,7.8c-4.4,10.2-4.8,20.1-2.5,27.7c-2.7,3.3-11.9,13.6-10.7-3.1c0.3-4.4,1.1-11.7,2.3-19.9
		c2.5-17.1-8.9-21.8-18.1-14.2c-2.8,2.3-6.8,7.1-8.3,11.9c0,0,3-48.3,3.6-71.5c-0.3-3.5-9.2-2-11.2-1.4c0,0-4.9,82.8-3.7,110.1
		c0,0,10.6,1.3,12.3,0c0,0-0.9-20.1,3.3-33.7c4-12.8,12.2-12.5,11.1,0.5c-0.7,7.8-1.2,13.4-2.2,22.2c-1.6,14.2,12.4,15.9,23.2,2.9
		c2.5,5,6.3,8.4,11.1,9.2c9.1,1.5,14.1-9,14.1-9c1.4,9.2,12.1,12.6,19.5,0.2c-1.2,1.9-0.8,5.1-0.5,5.8c1.2,2.7,9.2,2,9.2,2
		c1.8-15.7,3.4-25.6,4.9-31.8c3.4-13.8,12-14.5,10.4,0.7c-0.4,3.6-1.1,7.7-1.4,15.5c-0.5,14.2,16,23.8,32.4,11
		c12.4,9.1,29.1,3,34.3-6.8C244.7,105.8,241.5,105.1,241.5,105.1"/>
	<path class="st0" d="M321.2,114.8c-4.8-0.3-6.7-9.7-5.8-21.8c1.4-19.9,7.1-22.7,10.7-22.5c4.4,0.3,4.3,4.9,4.3,4.9
		s-4.5,0.3-4.8,6.5c-0.4,7,6.2,9.3,6.2,9.3C330.3,115.8,323.4,114.9,321.2,114.8 M349.4,78.7c0,0-1.4,4.8-7.2,4.6
		c0,0-2-16.3-15.4-17.1c-1.5-0.1-20.8-1.9-22.5,27c-0.2,2.6-0.1,5,0.1,7.1c-2,7.4-6.2,16.2-14.6,15.8c-25.1-1.2-20-53.2-20-53.2
		s2.9-52.9,23.6-54.2c14.9-1,18.8,21.6,17.1,37.9c-0.5,4.9,5.6,7.2,6.8,7.4c1.4,0.2,1.7-0.4,1.7-0.4c2.4-10.9,4-19.9,4.7-27.8
		c0.3-3.5,1.5-11.2-3.4-7.6c-2.6,1.9-4.2-0.4-5-1.8c-5.1-9-25-24.9-44.3-3.3c-30.1,33.7-19,104.4,12.1,107.6
		c11.8,1.2,19.1-4.6,23.4-11.3c3,6.8,8.4,9.8,14.2,10.1c8.1,0.5,19.9-4.1,21.3-28.8c0,0,8-2.7,9.2-10.9
		C351.2,79.8,350.8,78.4,349.4,78.7"/>
	<path class="st0" d="M340.3,114.5c0-2.5,1.7-4.5,3.9-4.5c2.1,0,3.9,2,3.9,4.5c0,2.5-1.7,4.5-3.9,4.5
		C342,118.9,340.3,116.9,340.3,114.5"/>
	<path class="st0" d="M53.9,12.6c-1.8,1.7-3.2,0.7-4.6-1.1c-2.4-3.2-10.7-12-22.2-9.6C12.4,5-5.7,20.2,21.3,69.2
		c0.1,0.1,5.4,10.2,5.4,10.2s31.3,51.2,4.9,55.5C17.4,137.2,9.5,115,9,107.3c-1.2-14.8,1.4-15.9,1.1-16.6C9.8,89.2,8.3,89,8.3,89
		s-5.8,5.1-6.1,16.5c-0.5,21,10.9,40.8,32.3,37.4c18.8-3.2,32.8-21.6,5.8-67.3c-1.2-2.1-5.4-10.2-5.4-10.2S3.7,14,29.9,8.5
		c17.8-3.8,16.6,39.3,16.6,39.3c0.3,5.3,7.9,4.6,8.1,3.4c3-21.5,3.2-31.7,3.2-31.7C57.7,16.4,58.1,8.6,53.9,12.6"/>
	<path class="st0" d="M358.3,67.5c0.9,0,1.4-0.4,1.4-1.1v0c0-0.7-0.6-1.1-1.4-1.1h-1.6v2.2H358.3z M354,63.1h4.3
		c1.5,0,2.5,0.4,3.1,1c0.5,0.5,0.8,1.2,0.8,2.1v0c0,1.4-0.7,2.3-1.9,2.8l2.2,3.2h-2.9l-1.9-2.8h-0.1h-1.1v2.8H354V63.1z M365.5,67.9
		L365.5,67.9c0-4.3-3.3-7.8-7.6-7.8c-4.4,0-7.7,3.5-7.7,7.8v0c0,4.2,3.3,7.7,7.6,7.7C362.2,75.7,365.5,72.2,365.5,67.9 M349.2,68
		L349.2,68c0-4.8,3.8-8.8,8.7-8.8c4.9,0,8.7,4,8.7,8.7v0c0,4.7-3.8,8.7-8.7,8.7C352.9,76.6,349.2,72.7,349.2,68"/>
</g>
</svg>
