<?xml version="1.0" encoding="UTF-8"?>
<svg viewBox="0 0 124.47 32.51" xmlns="http://www.w3.org/2000/svg" xmlns:xlink="http://www.w3.org/1999/xlink">
  <radialGradient id="a" cx="16.8175" cy="14.5387" gradientUnits="userSpaceOnUse" r="7.1238">
    <stop offset="0" stop-color="#ffdf00"/>
    <stop offset="1" stop-color="#ff6e00"/>
  </radialGradient>
  <linearGradient id="b" gradientUnits="userSpaceOnUse" x1="-.5856" x2="12.5516" y1="33.8296" y2="9.4108">
    <stop offset="0" stop-color="#003998"/>
    <stop offset=".09" stop-color="#004694"/>
    <stop offset=".36" stop-color="#006b88"/>
    <stop offset=".61" stop-color="#008680"/>
    <stop offset=".83" stop-color="#00977b"/>
    <stop offset="1" stop-color="#009d7a"/>
  </linearGradient>
  <path d="m17.39 14.55c0 2.59-2.1 4.69-4.68 4.69s-4.68-2.1-4.68-4.69 2.1-4.68 4.68-4.68 4.68 2.1 4.68 4.68z" fill="url(#a)"/>
  <path d="m10.74 0c-.8 1.92-2.99 3.73-6.17 6.19-3.55 2.74-5.03 4.54-4.45 10.93 9.9-6.49 10.7-7.74 10.72-17.12h-.09z" fill="#009d7a"/>
  <path d="m17.38 12.95c1.81 4.7-2.08 8.27-5.65 7.87-.64 2.33-.65 6.21-.22 11.7h.09c.94-2.7 2.88-5.24 8.85-9.68 4.17-3.1 4.95-5.92 4.95-12.01v-4.14c-4.09 2.25-7.11 4.35-8.02 6.26z" fill="url(#b)"/>
  <g fill="#333">
    <path d="m66.64 23.02v-12.27h-6.39c-.15 0-.21-.08-.21-.21v-.81c0-.14.06-.21.21-.21h15.79c.15 0 .21.08.21.21v.81c0 .14-.07.21-.21.21h-6.39v12.27h6.98c.15 0 .21.08.21.21v.86c0 .14-.06.21-.21.21h-16.96c-.15 0-.21-.08-.21-.21v-.86c0-.14.06-.21.21-.21z"/>
    <path d="m123.61 23.41h-3.72c.58-.92 1.62-2.69 2.17-3.85.07-.15-.04-.26-.2-.26h-2.29c-.22 0-.42 0-.49.36-.06.35-.44 2.45-.71 3.75h-1.41v-5.28h6.33c.15 0 .21-.07.21-.21v-.65c0-.14-.06-.21-.21-.21h-6.33v-2.62h4.05c.15 0 .21-.07.21-.21v-.64c0-.14-.06-.21-.21-.21h-10.89c-.15 0-.21.07-.21.21v.64c0 .14.06.21.21.21h4.04v2.62h-6.33c-.15 0-.21.07-.21.21v.65c0 .14.06.21.21.21h6.33s0 5.28 0 5.28h-1.41c-.27-1.3-.64-3.4-.71-3.75-.07-.37-.27-.36-.49-.36h-2.29c-.16 0-.27.11-.2.26.56 1.16 1.59 2.94 2.17 3.85h-3.72c-.15 0-.21.07-.21.21v.65c0 .14.06.21.21.21h16.08c.15 0 .21-.07.21-.21v-.65c0-.14-.06-.21-.21-.21z"/>
    <path d="m124.35 12.62c-4.27-1.47-6.74-4.53-7.07-4.85-.11-.1-.24-.14-.38-.14h-2.66c-.14 0-.27.03-.38.14-.33.32-2.8 3.38-7.07 4.85-.08.03-.12.11-.12.21v.73c0 .14.1.22.23.19 2.41-.5 6.5-2.11 8.66-4.21 2.16 2.09 6.25 3.71 8.67 4.21.13.03.23-.06.23-.19v-.73c0-.1-.04-.18-.12-.21z"/>
    <path d="m98.89 10.23h-5.98v-2.36c0-.15-.08-.21-.21-.21h-2.52c-.14 0-.21.06-.22.21v2.36h-5.97c-.49 0-.84.37-.86.86v8.14c.01.48.37.85.86.86h5.97v4.56c0 .15.08.2.22.21h2.52c.14 0 .21-.06.21-.21v-4.56h5.98c.49 0 .84-.38.85-.86v-8.14c-.01-.48-.37-.85-.85-.86zm-8.92 8.72h-4.05v-7.62h4.05zm6.99 0h-4.05v-7.62h4.05z"/>
    <path d="m48.04 18.58h-7.25c-.31 0-.52.24-.53.54v3.69c0 .3.23.53.53.54h7.25c.31 0 .52-.24.53-.54v-3.69c0-.3-.22-.53-.53-.54zm-5.24 3.87v-3h3.22v3s-3.22 0-3.22 0z"/>
    <path d="m53.06 9.17h-7.16v-1.35c0-.15-.07-.21-.21-.21h-2.53c-.14 0-.21.06-.21.21v1.35h-7.16c-.14 0-.21.07-.21.21v.65c0 .14.06.2.21.21h2.89c.59 1.06 1.22 1.89 1.7 2.52h-3.47c-.43 0-.73.33-.74.74v11.18c0 .14.08.2.21.21h2.29c.14 0 .21-.07.21-.21v-10.91s2.4 0 2.4 0c-.09 1.03-.38 2.48-1.66 3.26-.11.07-.17.11-.17.28v.38c0 .16.11.19.27.16.71-.12 3.54-.66 4.15-4.08h1.23v2.33c0 1.06.42 1.42 1.36 1.44h3.5v5.78c0 .3-.01.49-.42.49h-1.28c-.15 0-.21.07-.21.21v.68c0 .14.07.21.21.21h2.04c.99 0 2.37-.32 2.37-2.22v-9.18c-.01-.41-.31-.74-.74-.74h-3.47c.49-.63 1.12-1.46 1.71-2.52h2.89c.15 0 .21-.08.21-.21v-.65c0-.14-.07-.21-.21-.21zm-6.42 3.6h-4.43c-.25-.85-.43-1.65-.56-2.52h5.55c-.12.87-.31 1.67-.56 2.52zm3.32 1v2.82h-2c-.14 0-.29 0-.29-.31v-2.51z"/>
  </g>
</svg>
