<?xml version="1.0" encoding="UTF-8" standalone="no"?>
<svg
   xmlns:dc="http://purl.org/dc/elements/1.1/"
   xmlns:cc="http://creativecommons.org/ns#"
   xmlns:rdf="http://www.w3.org/1999/02/22-rdf-syntax-ns#"
   xmlns:svg="http://www.w3.org/2000/svg"
   xmlns="http://www.w3.org/2000/svg"
   viewBox="0 0 759.54999 140.84625"
   height="140.84625"
   width="759.54999"
   xml:space="preserve"
   version="1.1"
   id="svg7934"><metadata
     id="metadata7940"><rdf:RDF><cc:Work
         rdf:about=""><dc:format>image/svg+xml</dc:format><dc:type
           rdf:resource="http://purl.org/dc/dcmitype/StillImage" /><dc:title></dc:title></cc:Work></rdf:RDF></metadata><defs
     id="defs7938" /><g
     transform="matrix(0,1.25,1.25,0,-89.775,-226.37625)"
     id="g7942"><g
       transform="translate(236.192,221.876)"
       id="g7948"><path
         id="path7950"
         style="fill:#231f20;fill-opacity:1;fill-rule:nonzero;stroke:none"
         d="m 0,0 c 0,-3.07 -0.451,-7.609 -1.354,-13.618 l -8.086,2.399 c 1.006,4.281 1.509,8.137 1.509,11.567 0,3.301 -0.799,6.151 -2.399,8.55 -1.857,2.733 -4.358,4.1 -7.505,4.1 -2.14,0 -3.984,-1.122 -5.532,-3.366 -0.49,-0.748 -1.515,-2.798 -3.076,-6.151 -1.56,-3.353 -3.049,-5.738 -4.468,-7.156 -1.986,-1.987 -4.5,-2.979 -7.544,-2.979 -7.299,0 -12.25,3.236 -14.855,9.71 -1.187,2.992 -1.78,6.253 -1.78,9.788 0,3.533 0.477,8.02 1.431,13.462 l 7.931,-2.36 c -0.902,-5.469 -1.354,-9.298 -1.354,-11.49 0,-6.758 2.321,-10.136 6.964,-10.136 2.089,0 3.843,1.084 5.261,3.25 0.336,0.541 1.284,2.553 2.843,6.035 1.561,3.481 3.076,5.944 4.546,7.389 2.011,2.037 4.617,3.056 7.815,3.056 5.855,0 10.626,-2.218 14.314,-6.654 C -1.78,11.088 0,5.956 0,0" /></g><g
       transform="translate(191.895,263.075)"
       id="g7952"><path
         id="path7954"
         style="fill:#231f20;fill-opacity:1;fill-rule:nonzero;stroke:none"
         d="m 0,0 c 0,-1.444 -0.535,-2.701 -1.606,-3.771 -1.069,-1.07 -2.327,-1.605 -3.772,-1.605 -1.47,0 -2.74,0.528 -3.81,1.585 -1.07,1.058 -1.606,2.322 -1.606,3.791 0,1.471 0.536,2.734 1.606,3.792 1.07,1.057 2.34,1.586 3.81,1.586 1.445,0 2.703,-0.535 3.772,-1.605 C -0.535,2.701 0,1.445 0,0 Z m 43.097,-12.311 -37.486,6.54 -1.743,8.711 39.229,-6.886 0,-8.365" /></g><g
       transform="translate(234.992,311.848)"
       id="g7956"><path
         id="path7958"
         style="fill:#231f20;fill-opacity:1;fill-rule:nonzero;stroke:none"
         d="m 0,0 -23.292,4.1 c -2.566,0.471 -4.697,0.565 -6.392,0.281 -1.565,-0.257 -2.349,-1.508 -2.349,-3.752 0,-1.987 0.732,-4.656 2.196,-8.008 1.746,0.051 3.929,-0.155 6.547,-0.618 l 23.29,-4.14 0,-8.408 -23.292,4.139 c -2.567,0.473 -4.698,0.555 -6.392,0.245 -1.565,-0.283 -2.349,-1.533 -2.349,-3.748 0,-1.957 0.749,-4.429 2.246,-7.418 L 0,-32.63 l 0,-8.405 -32.42,5.687 c -1.444,0.257 -3.133,0.206 -5.068,-0.155 l -1.741,7.699 c 0.851,0.541 1.625,0.876 2.322,1.006 -1.264,3.196 -1.985,6.511 -2.167,9.941 -0.179,3.429 0.8,5.931 2.94,7.505 -1.959,4.977 -2.94,9.465 -2.94,13.463 0,5.958 3.366,8.936 10.097,8.936 1.678,0 3.573,-0.181 5.687,-0.541 L 0,8.405 0,0" /></g><g
       transform="translate(197.427,361.198)"
       id="g7960"><path
         id="path7962"
         style="fill:#231f20;fill-opacity:1;fill-rule:nonzero;stroke:none"
         d="m 0,0 7.079,-2.205 c -1.031,-3.403 -1.547,-6.357 -1.547,-8.858 0,-5.442 4.385,-8.937 13.154,-10.485 8.743,-1.547 13.114,0.414 13.114,5.88 0,3.199 -0.528,6.732 -1.586,10.601 L 37.255,-5.3 c 1.058,-3.688 1.586,-7.569 1.586,-11.644 0,-5.855 -1.882,-9.787 -5.648,-11.799 -2.502,-1.341 -5.468,-2.011 -8.898,-2.011 -1.754,0 -3.636,0.167 -5.649,0.503 -8.871,1.546 -14.855,5.222 -17.95,11.024 -1.495,2.811 -2.231,6.086 -2.205,9.826 C -1.483,-6.668 -0.98,-3.533 0,0" /></g><g
       transform="translate(202.959,381.869)"
       id="g7964"><path
         id="path7966"
         style="fill:#231f20;fill-opacity:1;fill-rule:nonzero;stroke:none"
         d="m 0,0 c 0,-3.301 1.419,-5.841 4.255,-7.62 1.909,-1.186 4.85,-2.141 8.821,-2.863 2.374,-0.439 4.552,-0.657 6.538,-0.657 4.385,-0.053 6.577,2.128 6.577,6.538 0,4.333 -2.166,7.273 -6.5,8.82 -1.804,0.619 -4.01,1.16 -6.615,1.624 C 9.26,6.513 6.125,6.563 3.675,5.997 1.225,5.431 0,3.432 0,0 Z m 33.232,-5.879 c 0,-5.983 -1.844,-9.955 -5.533,-11.915 -2.423,-1.29 -5.351,-1.934 -8.781,-1.934 -1.805,0 -3.739,0.18 -5.804,0.541 -5.957,1.031 -10.728,3.185 -14.313,6.46 -3.894,3.533 -5.842,8.188 -5.842,13.965 0,5.906 1.986,9.918 5.958,12.034 1.831,0.977 3.959,1.558 6.383,1.739 2.27,0.155 4.875,-0.026 7.814,-0.542 13.412,-2.296 20.118,-9.078 20.118,-20.348" /></g><g
       transform="translate(212.902,412.727)"
       id="g7968"><path
         id="path7970"
         style="fill:#231f20;fill-opacity:1;fill-rule:nonzero;stroke:none"
         d="m 0,0 c -0.156,4.512 -1.062,8.343 -2.72,11.49 -0.905,1.728 -2.044,2.592 -3.417,2.592 -2.537,0 -3.806,-1.419 -3.806,-4.256 0,-3.326 1.722,-6.01 5.166,-8.047 C -3.249,0.876 -1.658,0.283 0,0 Z M 7.068,-1.354 C 7.146,-1.38 7.223,-1.392 7.301,-1.392 L 7.61,-1.431 c 0.104,-0.026 0.182,-0.052 0.233,-0.078 5.655,-0.129 8.482,1.832 8.482,5.88 0,4.1 -0.567,8.086 -1.702,11.954 l 7.234,-0.309 c 1.007,-3.637 1.509,-7.764 1.509,-12.379 0,-4.515 -1.367,-7.983 -4.1,-10.407 -2.605,-2.295 -6.203,-3.443 -10.794,-3.443 -9.826,0 -17.112,3.107 -21.858,9.323 -2.398,3.12 -3.598,6.925 -3.598,11.413 0,3.326 0.968,6.151 2.905,8.471 2.066,2.502 4.725,3.753 7.978,3.753 4.829,0 8.354,-2.902 10.574,-8.705 1.86,-4.771 2.724,-9.903 2.595,-15.396" /></g><g
       transform="translate(182.61,498.909)"
       id="g7972"><path
         id="path7974"
         style="fill:#231f20;fill-opacity:1;fill-rule:nonzero;stroke:none"
         d="m 0,0 7.621,-2.322 c -0.747,-4.177 -1.122,-8.369 -1.122,-12.573 0,-6.087 3.289,-10.251 9.865,-12.495 2.606,-0.903 5.842,-1.702 9.711,-2.398 3.611,-0.645 6.719,-0.994 9.323,-1.045 6.784,-0.18 10.175,2.837 10.175,9.051 0,5.314 -0.374,10.202 -1.122,14.662 l 7.544,-0.424 c 0.825,-3.019 1.328,-6.319 1.508,-9.905 0.052,-1.469 0.078,-3.365 0.078,-5.685 0,-9.98 -4.629,-15.411 -13.889,-16.287 -4.28,-0.413 -8.987,-0.143 -14.12,0.812 -4.977,0.929 -9.491,2.334 -13.54,4.217 -9.027,4.179 -13.541,11.155 -13.541,20.929 0,4.539 0.503,9.027 1.509,13.463" /></g><g
       transform="translate(202.959,517.686)"
       id="g7976"><path
         id="path7978"
         style="fill:#231f20;fill-opacity:1;fill-rule:nonzero;stroke:none"
         d="m 0,0 c 0,-3.302 1.419,-5.842 4.255,-7.621 1.909,-1.188 4.85,-2.141 8.821,-2.863 2.374,-0.439 4.552,-0.659 6.538,-0.659 4.385,-0.052 6.577,2.129 6.577,6.539 0,4.333 -2.166,7.272 -6.5,8.82 -1.804,0.62 -4.01,1.161 -6.615,1.626 C 9.26,6.511 6.125,6.563 3.675,5.996 1.225,5.428 0,3.43 0,0 Z m 33.232,-5.881 c 0,-5.983 -1.844,-9.955 -5.533,-11.914 -2.423,-1.289 -5.351,-1.934 -8.781,-1.934 -1.805,0 -3.739,0.18 -5.804,0.541 -5.957,1.031 -10.728,3.185 -14.313,6.46 -3.894,3.533 -5.842,8.189 -5.842,13.966 0,5.906 1.986,9.916 5.958,12.031 1.831,0.979 3.959,1.559 6.383,1.74 2.27,0.155 4.875,-0.024 7.814,-0.541 C 26.526,12.172 33.232,5.39 33.232,-5.881" /></g><g
       transform="translate(234.992,559.521)"
       id="g7980"><path
         id="path7982"
         style="fill:#231f20;fill-opacity:1;fill-rule:nonzero;stroke:none"
         d="m 0,0 -1.819,-0.93 c 1.96,-3.919 2.94,-7.596 2.94,-11.025 0,-4.641 -1.417,-7.608 -4.255,-8.898 -1.728,-0.799 -3.816,-1.198 -6.267,-1.198 -1.599,0 -3.327,0.168 -5.184,0.503 l -22.903,4.061 -1.743,8.719 24.648,-4.373 c 1.746,-0.317 3.209,-0.476 4.39,-0.476 2.85,-0.052 4.273,1.481 4.273,4.6 0,2.656 -0.721,5.451 -2.167,8.39 L -37.486,4.52 -39.229,13.23 -7.196,7.62 C -4.849,7.208 -2.451,7.286 0,7.852 L 0,0" /></g><g
       transform="translate(234.992,598.027)"
       id="g7984"><path
         id="path7986"
         style="fill:#231f20;fill-opacity:1;fill-rule:nonzero;stroke:none"
         d="m 0,0 -23.262,4.139 c -1.622,0.284 -3.142,0.425 -4.559,0.425 -2.808,-0.052 -4.212,-1.595 -4.212,-4.631 0,-2.652 0.725,-5.443 2.172,-8.378 L 0,-13.762 l 0,-8.405 -32.42,5.687 c -1.444,0.257 -3.133,0.206 -5.068,-0.154 l -1.741,7.698 c 0.851,0.541 1.625,0.877 2.322,1.005 -1.445,3.843 -2.167,7.441 -2.167,10.795 0,4.692 1.548,7.748 4.643,9.167 1.47,0.645 3.147,0.993 5.029,1.045 1.909,0.024 3.946,-0.155 6.112,-0.541 L 0,8.395 0,0" /></g><g
       transform="translate(204.081,637.08)"
       id="g7988"><path
         id="path7990"
         style="fill:#231f20;fill-opacity:1;fill-rule:nonzero;stroke:none"
         d="M 0,0 0,-6.027 17.605,-9.12 c 1.857,-0.345 3.197,-0.427 4.023,-0.246 1.366,0.258 2.643,1.92 3.829,4.99 l 6.73,-3.094 c -1.393,-4.385 -2.901,-7.273 -4.526,-8.667 -0.954,-0.851 -2.192,-1.392 -3.715,-1.625 -1.547,-0.258 -3.378,-0.206 -5.493,0.155 l -18.454,3.241 0.001,-3.86 -6.963,1.161 -0.005,3.884 -9.822,1.764 -1.823,8.726 11.65,-2.059 0,7.995 L 0,0" /></g><g
       transform="translate(252.904,645.957)"
       id="g7992"><path
         id="path7994"
         style="fill:#231f20;fill-opacity:1;fill-rule:nonzero;stroke:none"
         d="m 0,0 -5.068,-4.216 c -1.341,1.985 -3.276,3.803 -5.803,5.454 -1.239,0.799 -3.585,2.075 -7.04,3.829 -0.722,-0.49 -1.38,-0.787 -1.974,-0.889 l -35.514,-5.957 -1.822,8.99 27.482,4.022 -26.047,13.067 0,9.203 38.183,-20.117 c 2.244,-1.161 5.545,-3.044 9.905,-5.648 C -4.733,5.699 -2.165,3.12 0,0" /></g><g
       transform="translate(261.549,221.739)"
       id="g7996"><path
         id="path7998"
         style="fill:#231f20;fill-opacity:1;fill-rule:nonzero;stroke:none"
         d="m 0,0 25.567,-4.502 0,4 c 0,4.762 -2.005,8.003 -6.016,9.721 -1.826,0.787 -4.091,1.422 -6.795,1.906 -2.505,0.447 -4.7,0.617 -6.578,0.511 C 2.06,11.384 0,8.84 0,4.003 L 0,0 Z m 31.126,-11.433 -36.686,6.498 0,10.769 c 0,5.336 1.827,8.907 5.479,10.715 1.719,0.842 3.662,1.335 5.828,1.477 4.744,0.287 9.453,-0.555 14.126,-2.523 4.763,-2.005 8.04,-5.014 9.829,-9.023 0.95,-2.114 1.424,-4.495 1.424,-7.144 l 0,-10.769" /></g><g
       transform="translate(262.759,251.223)"
       id="g8000"><path
         id="path8002"
         style="fill:#231f20;fill-opacity:1;fill-rule:nonzero;stroke:none"
         d="m 0,0 c 0,-1.002 -0.372,-1.875 -1.115,-2.617 -0.743,-0.745 -1.616,-1.116 -2.618,-1.116 -1.021,0 -1.903,0.368 -2.645,1.102 -0.743,0.734 -1.115,1.611 -1.115,2.631 0,1.021 0.372,1.899 1.115,2.633 0.742,0.734 1.624,1.101 2.645,1.101 1.002,0 1.875,-0.372 2.618,-1.115 C -0.372,1.876 0,1.002 0,0 Z m 29.917,-8.547 -26.023,4.541 -1.209,6.047 27.232,-4.78 0,-5.808" /></g><g
       transform="translate(293.508,261.876)"
       id="g8004"><path
         id="path8006"
         style="fill:#231f20;fill-opacity:1;fill-rule:nonzero;stroke:none"
         d="m 0,0 c 0,-1.486 -0.16,-3.303 -0.483,-5.451 l -0.458,-2.874 -4.887,1.557 0.418,2.256 c 0.348,1.773 0.522,3.214 0.522,4.324 0,1.541 -0.302,2.892 -0.912,4.055 -0.768,1.451 -1.852,2.176 -3.245,2.176 -0.949,0 -1.797,-0.644 -2.549,-1.935 -0.126,-0.214 -0.599,-1.271 -1.421,-3.168 -0.752,-1.755 -1.502,-3.034 -2.254,-3.841 -1.054,-1.11 -2.37,-1.665 -3.944,-1.665 -4.023,0 -6.66,1.827 -7.913,5.479 -0.554,1.665 -0.831,3.518 -0.831,5.559 0,2.149 0.332,4.842 0.994,8.083 l 4.967,-1.585 c -0.714,-2.399 -1.074,-4.743 -1.074,-7.035 0,-2.901 0.844,-4.35 2.528,-4.35 0.932,0 1.731,0.599 2.394,1.798 0.429,1.004 0.859,2.006 1.289,3.009 0.807,1.843 1.615,3.186 2.42,4.027 1.112,1.182 2.491,1.773 4.141,1.773 3.117,0 5.638,-1.253 7.555,-3.759 C -0.914,6.016 0,3.206 0,0" /></g><g
       transform="translate(271.217,292.271)"
       id="g8008"><path
         id="path8010"
         style="fill:#231f20;fill-opacity:1;fill-rule:nonzero;stroke:none"
         d="m 0,0 0,-4.185 12.221,-2.146 c 1.291,-0.24 2.22,-0.297 2.793,-0.171 0.949,0.177 1.835,1.333 2.659,3.464 l 4.671,-2.149 c -0.966,-3.044 -2.014,-5.048 -3.142,-6.016 -0.661,-0.59 -1.521,-0.966 -2.578,-1.127 -1.074,-0.179 -2.345,-0.144 -3.813,0.108 L 0,-9.972 l 0,-2.681 -4.833,0.806 -0.004,2.697 -6.819,1.224 -1.265,6.058 8.088,-1.429 0,5.549 L 0,0" /></g><g
       transform="translate(271.62,310.522)"
       id="g8012"><path
         id="path8014"
         style="fill:#231f20;fill-opacity:1;fill-rule:nonzero;stroke:none"
         d="m 0,0 c -0.554,-0.93 -0.832,-1.681 -0.832,-2.254 0,-1.251 0.404,-2.808 1.21,-4.668 l 20.677,-3.627 0,-5.835 -22.504,3.948 c -0.413,0.071 -0.869,0.107 -1.369,0.107 -0.788,0 -1.505,-0.071 -2.149,-0.215 l -1.209,5.399 c 0.662,0.357 1.199,0.573 1.611,0.644 -1.002,2.667 -1.503,5.146 -1.503,7.438 0,0.465 0.036,1.218 0.106,2.256 L 0,0" /></g><g
       transform="translate(262.759,320.474)"
       id="g8016"><path
         id="path8018"
         style="fill:#231f20;fill-opacity:1;fill-rule:nonzero;stroke:none"
         d="m 0,0 c 0,-1.003 -0.372,-1.876 -1.115,-2.619 -0.743,-0.743 -1.616,-1.113 -2.618,-1.113 -1.021,0 -1.903,0.365 -2.645,1.099 -0.743,0.736 -1.115,1.613 -1.115,2.633 0,1.02 0.372,1.897 1.115,2.631 0.742,0.735 1.624,1.102 2.645,1.102 1.002,0 1.875,-0.373 2.618,-1.114 C -0.372,1.875 0,1.002 0,0 Z m 29.917,-8.547 -26.023,4.54 -1.209,6.048 27.232,-4.78 0,-5.808" /></g><g
       transform="translate(266.598,347.507)"
       id="g8020"><path
         id="path8022"
         style="fill:#231f20;fill-opacity:1;fill-rule:nonzero;stroke:none"
         d="M 0,0 4.914,-1.53 C 4.2,-3.894 3.84,-5.944 3.84,-7.68 c 0,-3.778 3.045,-6.204 9.132,-7.278 6.068,-1.074 9.104,0.286 9.104,4.082 0,2.22 -0.367,4.673 -1.101,7.358 l 4.886,-0.161 c 0.735,-2.561 1.102,-5.254 1.102,-8.084 0,-4.064 -1.307,-6.793 -3.92,-8.19 -1.736,-0.931 -3.798,-1.397 -6.179,-1.397 -1.216,0 -2.523,0.117 -3.919,0.349 -6.16,1.075 -10.314,3.626 -12.461,7.655 -1.04,1.95 -1.549,4.225 -1.531,6.821 C -1.029,-4.628 -0.68,-2.452 0,0" /></g><g
       transform="translate(271.217,361.628)"
       id="g8024"><path
         id="path8026"
         style="fill:#231f20;fill-opacity:1;fill-rule:nonzero;stroke:none"
         d="m 0,0 0,-4.185 12.221,-2.146 c 1.291,-0.24 2.22,-0.297 2.793,-0.171 0.949,0.179 1.835,1.333 2.659,3.463 l 4.671,-2.148 c -0.966,-3.043 -2.014,-5.049 -3.142,-6.016 -0.661,-0.59 -1.521,-0.966 -2.578,-1.127 -1.074,-0.179 -2.345,-0.144 -3.813,0.108 L 0,-9.973 l 0,-2.68 -4.833,0.806 -0.004,2.695 -6.819,1.226 -1.265,6.058 8.088,-1.429 0,5.549 L 0,0" /></g><g
       transform="translate(293.508,383.95)"
       id="g8028"><path
         id="path8030"
         style="fill:#231f20;fill-opacity:1;fill-rule:nonzero;stroke:none"
         d="m 0,0 c 0,-2.131 -0.314,-5.282 -0.941,-9.453 l -5.612,1.665 c 0.697,2.972 1.048,5.649 1.048,8.031 0,2.291 -0.555,4.269 -1.665,5.933 -1.291,1.899 -3.027,2.847 -5.211,2.847 -1.486,0 -2.766,-0.779 -3.841,-2.336 -0.339,-0.519 -1.051,-1.942 -2.135,-4.269 -1.082,-2.329 -2.115,-3.984 -3.101,-4.969 -1.379,-1.38 -3.124,-2.069 -5.237,-2.069 -5.067,0 -8.505,2.248 -10.313,6.742 -0.823,2.077 -1.235,4.341 -1.235,6.795 0,2.452 0.332,5.566 0.995,9.344 l 5.504,-1.638 c -0.627,-3.795 -0.94,-6.454 -0.94,-7.976 0,-4.691 1.612,-7.035 4.834,-7.035 1.451,0 2.668,0.751 3.653,2.255 0.232,0.376 0.891,1.773 1.973,4.19 1.084,2.417 2.135,4.126 3.156,5.128 1.397,1.415 3.206,2.122 5.424,2.122 4.066,0 7.378,-1.539 9.938,-4.619 C -1.236,7.699 0,4.136 0,0" /></g><g
       transform="translate(266.598,425.673)"
       id="g8032"><path
         id="path8034"
         style="fill:#231f20;fill-opacity:1;fill-rule:nonzero;stroke:none"
         d="M 0,0 4.914,-1.53 C 4.2,-3.894 3.84,-5.944 3.84,-7.68 c 0,-3.778 3.045,-6.204 9.132,-7.278 6.068,-1.073 9.104,0.286 9.104,4.082 0,2.218 -0.367,4.673 -1.101,7.358 l 4.886,-0.161 c 0.735,-2.559 1.102,-5.254 1.102,-8.084 0,-4.064 -1.307,-6.794 -3.92,-8.19 -1.736,-0.931 -3.798,-1.397 -6.179,-1.397 -1.216,0 -2.523,0.117 -3.919,0.351 -6.16,1.073 -10.314,3.624 -12.461,7.653 -1.04,1.95 -1.549,4.225 -1.531,6.821 C -1.029,-4.628 -0.68,-2.452 0,0" /></g><g
       transform="translate(292.675,441.392)"
       id="g8036"><path
         id="path8038"
         style="fill:#231f20;fill-opacity:1;fill-rule:nonzero;stroke:none"
         d="m 0,0 -16.168,2.818 c -1.872,0.33 -3.361,0.361 -4.464,0.092 -1.07,-0.268 -1.604,-1.251 -1.604,-2.948 0,-1.839 0.502,-3.777 1.507,-5.813 L 0,-9.544 0,-15.38 -37.786,-8.745 -38.995,-2.671 -25.729,-5 c -0.931,2.474 -1.395,4.803 -1.395,6.989 0,3.261 1.075,5.386 3.223,6.373 1.021,0.447 2.184,0.689 3.491,0.725 1.326,0.018 2.739,-0.108 4.243,-0.376 L 0,5.836 0,0" /></g><g
       transform="translate(270.439,469.402)"
       id="g8040"><path
         id="path8042"
         style="fill:#231f20;fill-opacity:1;fill-rule:nonzero;stroke:none"
         d="m 0,0 c 0,-2.291 0.984,-4.054 2.954,-5.29 1.326,-0.823 3.366,-1.487 6.124,-1.987 1.647,-0.304 3.16,-0.457 4.538,-0.457 3.044,-0.036 4.565,1.478 4.565,4.539 0,3.008 -1.503,5.048 -4.512,6.124 C 12.417,3.358 10.886,3.734 9.078,4.056 6.427,4.521 4.253,4.555 2.551,4.164 0.851,3.769 0,2.381 0,0 Z m 23.07,-4.082 c 0,-4.154 -1.281,-6.91 -3.841,-8.27 -1.683,-0.895 -3.716,-1.344 -6.097,-1.344 -1.252,0 -2.596,0.126 -4.027,0.376 -4.137,0.716 -7.449,2.211 -9.938,4.485 -2.702,2.453 -4.054,5.684 -4.054,9.695 0,4.101 1.379,6.883 4.135,8.351 1.271,0.68 2.748,1.085 4.431,1.208 1.576,0.108 3.385,-0.016 5.426,-0.373 C 18.415,8.451 23.07,3.743 23.07,-4.082" /></g><g
       transform="translate(270.439,497)"
       id="g8044"><path
         id="path8046"
         style="fill:#231f20;fill-opacity:1;fill-rule:nonzero;stroke:none"
         d="m 0,0 c 0,-2.292 0.984,-4.055 2.954,-5.289 1.326,-0.825 3.366,-1.488 6.124,-1.989 1.647,-0.304 3.16,-0.455 4.538,-0.455 3.044,-0.037 4.565,1.476 4.565,4.536 0,3.009 -1.503,5.05 -4.512,6.124 C 12.417,3.357 10.886,3.733 9.078,4.055 6.427,4.52 4.253,4.557 2.551,4.163 0.851,3.769 0,2.381 0,0 Z m 23.07,-4.082 c 0,-4.154 -1.281,-6.91 -3.841,-8.271 -1.683,-0.896 -3.716,-1.343 -6.097,-1.343 -1.252,0 -2.596,0.125 -4.027,0.376 -4.137,0.717 -7.449,2.211 -9.938,4.486 -2.702,2.451 -4.054,5.682 -4.054,9.694 0,4.099 1.379,6.882 4.135,8.351 1.271,0.681 2.748,1.084 4.431,1.209 1.576,0.108 3.385,-0.019 5.426,-0.376 C 18.415,8.449 23.07,3.741 23.07,-4.082" /></g><g
       transform="translate(289.588,518.824)"
       id="g8048"><path
         id="path8050"
         style="fill:#231f20;fill-opacity:1;fill-rule:nonzero;stroke:none"
         d="M 0,0 4.19,-2.202 C 3.669,-3.562 3.321,-4.422 3.141,-4.779 2.658,-5.747 2.085,-6.462 1.424,-6.928 0.867,-7.341 0.178,-7.582 -0.645,-7.653 c -0.913,-0.072 -2.05,0.009 -3.411,0.241 l -30.642,5.371 -1.21,6.075 32.174,-5.667 C -2.713,-1.812 -1.965,-1.8 -1.49,-1.594 -1.016,-1.388 -0.518,-0.856 0,0" /></g><g
       transform="translate(261.549,555.005)"
       id="g8052"><path
         id="path8054"
         style="fill:#231f20;fill-opacity:1;fill-rule:nonzero;stroke:none"
         d="m 0,0 0,-6.558 8.568,-1.519 0,6.524 c 0,1.449 -0.516,2.648 -1.544,3.596 C 5.994,2.991 4.754,3.466 3.303,3.466 1.101,3.466 0,2.31 0,0 Z m 14.127,-2.489 0,-6.518 11.44,-2.053 0,6.552 c 0,2.649 -1.146,4.626 -3.438,5.934 -1.057,0.591 -2.22,0.885 -3.491,0.885 -1.433,0 -2.542,-0.438 -3.33,-1.314 -0.788,-0.876 -1.181,-2.038 -1.181,-3.486 z m 16.999,-0.866 0,-14.636 -36.686,6.499 0,13.615 c 0,2.203 0.672,4.038 2.015,5.505 1.344,1.469 3.107,2.203 5.291,2.203 2.256,0 4.504,-0.716 6.741,-2.149 1.039,-0.681 1.888,-1.431 2.551,-2.255 1.306,2.094 3.491,3.142 6.552,3.142 2.257,0 4.423,-0.502 6.499,-1.504 2.132,-1.038 3.838,-2.461 5.118,-4.27 1.279,-1.808 1.919,-3.858 1.919,-6.15" /></g><g
       transform="translate(270.439,582.068)"
       id="g8056"><path
         id="path8058"
         style="fill:#231f20;fill-opacity:1;fill-rule:nonzero;stroke:none"
         d="m 0,0 c 0,-2.291 0.984,-4.055 2.954,-5.291 1.326,-0.823 3.366,-1.487 6.124,-1.986 1.647,-0.305 3.16,-0.457 4.538,-0.457 3.044,-0.037 4.565,1.475 4.565,4.539 0,3.007 -1.503,5.048 -4.512,6.122 C 12.417,3.357 10.886,3.732 9.078,4.055 6.427,4.52 4.253,4.555 2.551,4.163 0.851,3.768 0,2.38 0,0 Z m 23.07,-4.083 c 0,-4.153 -1.281,-6.91 -3.841,-8.27 -1.683,-0.896 -3.716,-1.344 -6.097,-1.344 -1.252,0 -2.596,0.126 -4.027,0.377 -4.137,0.715 -7.449,2.21 -9.938,4.485 -2.702,2.452 -4.054,5.684 -4.054,9.694 0,4.1 1.379,6.884 4.135,8.351 1.271,0.681 2.748,1.085 4.431,1.209 1.576,0.108 3.385,-0.018 5.426,-0.376 C 18.415,8.451 23.07,3.741 23.07,-4.083" /></g><g
       transform="translate(270.439,609.47)"
       id="g8060"><path
         id="path8062"
         style="fill:#231f20;fill-opacity:1;fill-rule:nonzero;stroke:none"
         d="m 0,0 c 0,-3.684 2.631,-6.152 7.896,-7.405 2.148,-0.519 4.226,-0.778 6.23,-0.778 2.668,0 4.002,1.03 4.002,3.089 0,2.075 -0.645,4.18 -1.933,6.309 L 0.347,4.026 C 0.116,2.685 0,1.342 0,0 Z m 19.389,6.721 c 0.861,0 1.81,0.091 2.847,0.269 l 0,-5.209 -1.046,-0.619 c 1.217,-2.167 1.826,-4.548 1.826,-7.142 0,-2.919 -0.689,-5.013 -2.069,-6.286 -1.378,-1.271 -3.534,-1.906 -6.472,-1.906 -4.851,0 -9.184,1.154 -12.997,3.465 -4.244,2.542 -6.365,6.078 -6.365,10.608 0,2.649 0.312,6.238 0.94,10.768 L 17,6.99 c 1.02,-0.178 1.818,-0.269 2.389,-0.269" /></g><g
       transform="translate(271.62,639.843)"
       id="g8064"><path
         id="path8066"
         style="fill:#231f20;fill-opacity:1;fill-rule:nonzero;stroke:none"
         d="m 0,0 c -0.554,-0.93 -0.832,-1.682 -0.832,-2.253 0,-1.251 0.404,-2.809 1.21,-4.67 l 20.677,-3.626 0,-5.834 -22.504,3.946 c -0.413,0.072 -0.869,0.108 -1.369,0.108 -0.788,0 -1.505,-0.07 -2.149,-0.215 l -1.209,5.398 c 0.662,0.359 1.199,0.574 1.611,0.645 -1.002,2.668 -1.503,5.147 -1.503,7.44 0,0.464 0.036,1.217 0.106,2.255 L 0,0" /></g><g
       transform="translate(270.952,659.691)"
       id="g8068"><path
         id="path8070"
         style="fill:#231f20;fill-opacity:1;fill-rule:nonzero;stroke:none"
         d="m 0,0 c -0.342,-1.558 -0.513,-2.974 -0.513,-4.247 0,-3.011 1.704,-5.118 5.114,-6.318 1.501,-0.52 3.151,-0.95 4.953,-1.29 1.304,-0.252 2.563,-0.394 3.776,-0.431 2.857,-0.124 4.285,0.974 4.285,3.296 0,2.072 -0.629,4.117 -1.884,6.136 L 0,0 Z m 21.723,-2.456 -1.101,-0.591 c 1.252,-2.077 1.881,-4.476 1.881,-7.198 0,-1.915 -0.206,-3.366 -0.618,-4.351 -0.823,-1.986 -2.551,-3.123 -5.185,-3.409 -5.603,-0.645 -10.58,0.294 -14.931,2.818 -4.78,2.756 -7.169,6.489 -7.169,11.197 0,1.7 0.17,3.293 0.508,4.777 l -10.688,1.931 0,5.837 31.851,-5.668 c 1.576,-0.286 3.394,-0.25 5.452,0.109 l 0,-5.452" /></g><g
       style="fill:#093f5f;fill-opacity:1"
       transform="translate(249.938,74.007)"
       id="g8072"><path
         id="path8074"
         style="fill:#093f5f;fill-opacity:1;fill-rule:nonzero;stroke:none"
         d="m 0,0 c 0.031,0.235 0.082,0.732 0.082,1.461 0,2.708 -0.686,8.4 -5.272,16.117 -5.574,9.371 -15.083,18.762 -28.278,27.91 -11.791,8.919 -21.803,23.124 -25.505,36.201 -2.536,8.962 -4.772,21.984 -4.864,22.533 -0.204,1.207 -1.235,2.08 -2.395,2.08 -1.325,0 -2.401,-1.133 -2.401,-2.526 l 0,-103.434 c 0,-1.397 1.076,-2.528 2.401,-2.528 l 63.854,0 C -1.177,-2.186 -0.16,-1.25 0,0" /></g><g
       style="fill:#093f5f;fill-opacity:1"
       transform="translate(223.501,177.738)"
       id="g8076"><path
         id="path8078"
         style="fill:#093f5f;fill-opacity:1;fill-rule:nonzero;stroke:none"
         d="m 0,0 c 0.04,-2.365 0.52,-14.555 6.148,-22.174 5.048,-6.832 12.58,-12.822 21.302,-19.761 3.093,-2.463 6.294,-5.006 9.542,-7.719 24.892,-20.791 26.95,-44.313 27.63,-52.037 0.075,-0.869 0.137,-1.552 0.212,-2.081 0.18,-1.235 1.187,-2.146 2.371,-2.146 l 0.022,0 c 0.636,0 1.247,0.269 1.696,0.741 0.449,0.473 0.704,1.118 0.704,1.787 L 69.618,0.044 c 0,1.396 -1.076,2.526 -2.401,2.526 l -64.818,0 C 1.757,2.57 1.14,2.301 0.688,1.815 0.239,1.332 -0.006,0.679 0,0" /></g></g></svg>