<?xml version="1.0" encoding="UTF-8" standalone="no"?>
<svg xmlns="http://www.w3.org/2000/svg" width="640" height="340" viewBox="0 0 640 340">
  <path id="sus-logo-text" fill="#2857ab" d="m 235.08123,187.68204 -20.50686,-6.05 c -13.31262,-4.2449 -22.25503,-16.8085 -22.25503,-30.6603 0,-18.0868 14.38846,-32.407 32.54213,-32.407 h 40.27403 v 14.3202 h -28.30609 c -5.44605,0 -10.21976,4.1472 -10.21976,10.2217 0,3.6105 2.35172,7.8651 6.65607,9.0068 l 19.83451,6.66 c 13.85078,4.2448 21.11235,18.0185 21.11235,33.6804 0,19.9018 -16.33815,36.1736 -36.17315,36.1736 h -42.76189 v -16.2718 h 36.71083 c 5.44605,0 11.49711,-5.3767 11.49711,-12.6368 0,-5.4451 -3.02505,-10.2217 -8.40425,-12.0368 m -187.99169,0 -20.43952,-6.05 C 14.00974,177.38714 5,164.82354 5,150.97174 c 0,-18.0868 14.45579,-32.407 32.54212,-32.407 h 40.34137 v 14.3202 H 49.5774 c -5.44605,0 -10.21976,4.1472 -10.21976,10.2217 0,3.6105 2.42003,7.8651 6.58922,9.0068 l 19.90184,6.66 c 13.24529,4.2448 20.43952,18.0185 20.43952,33.6804 0,19.9018 -15.59847,36.1736 -35.50032,36.1736 H 8.09286 v -16.2718 h 36.71083 c 5.37871,0 11.36293,-5.3767 11.36293,-12.6368 0,-5.4451 -3.63005,-10.2217 -9.07708,-12.0368 m 93.39084,44.5121 c -24.67556,0 -43.97239,-17.4818 -43.97239,-39.1353 v -73.8891 h 33.14762 v 76.9142 c 0,9.685 8.40425,17.4183 19.22902,17.4183 10.21976,0 19.29683,-7.7333 19.29683,-17.4183 v -76.9142 h 15.66581 v 73.8891 c 0,21.6535 -19.29635,39.1353 -43.36689,39.1353" />
  <path id="sus-logo-cross" fill="#2857ab" d="m 514.91658,238.51254 c 0,0 -57.15035,3.9033 -105.69445,-0.5367 1.00997,59.0322 8.13541,89.4241 9.27858,95.8792 h 106.09796 c -5.04255,-31.0653 -9.07659,-81.1541 -9.68209,-95.3425 M 334.85929,115.87634 c 7.1269,0.5855 69.65646,6.1184 73.82467,6.1184 l 99.03839,100.651 h 127.27764 v -106.7694 z m 82.90175,-6.1867 H 524.666 V 6.14544 H 417.76104 Z m -0.67332,29.7869 -13.85078,-14.1884 c -18.55717,0.4879 -78.12804,-6.0501 -97.29021,-9.4118 v 106.7694 c 95.67669,9.4117 145.90164,11.8318 201.90931,10.0168 h 0.94167 z m 97.2907,88.6094 h 12.97645 v 83.0373 c -1.54667,-8.675 -6.45456,-59.1688 -5.78222,-75.3723 -1.68329,-1.7077 -7.19423,-7.665 -7.19423,-7.665" />
</svg>
