<?xml version="1.0" encoding="utf-8"?>
<!-- Generator: Adobe Illustrator 23.0.1, SVG Export Plug-In . SVG Version: 6.00 Build 0)  -->
<svg version="1.1"
	 id="svg2" xmlns:inkscape="http://www.inkscape.org/namespaces/inkscape" xmlns:sodipodi="http://sodipodi.sourceforge.net/DTD/sodipodi-0.dtd" xmlns:svg="http://www.w3.org/2000/svg"
	 xmlns="http://www.w3.org/2000/svg" xmlns:xlink="http://www.w3.org/1999/xlink" x="0px" y="0px" width="301.13px"
	 height="184.342px" viewBox="0 0 301.13 184.342" enable-background="new 0 0 301.13 184.342" xml:space="preserve">
<g>
	<path d="M50.596,37.292c-5.272,0-10.542,0.216-15.504,0.759C11.834,40.608,0,54.597,0,71.305c0,13.746,9.992,26.7,28.697,30.293
		l22.544,4.318c8.231,1.599,12.468,3.438,12.468,7.914c0,3.437-3.198,7.037-13.827,7.037c-9.594,0-22.54-1.44-30.778-1.44
		c-7.91,0-16.303,3.599-16.303,19.184c0,1.919,0.32,4.318,0.719,6.234c11.83,1.363,36.692,3.522,53.875,1.68
		c23.741-2.557,35.413-15.588,35.413-33.494c0-15.426-9.513-27.978-31.574-32.053l-21.505-3.997
		c-6.875-1.197-11.189-2.8-11.189-6.716c0-3.674,4.554-6.713,15.511-6.713c10.788,0,20.22,1.12,26.295,1.12
		c7.914,0,16.148-3.36,16.148-18.944c0-2.078-0.243-4.001-0.638-5.995c-8.437-1.036-21.849-2.439-35.248-2.439H50.596z
		 M168.757,50.121l-35.97,39.33l28.933,45.564c5.357,8.312,12.394,12.545,23.826,12.545c7.509,0,13.746-1.754,16.62-3.11
		l-34.85-52.523l24.703-26.218l40.527,63.631l-24.706,52.037c2.483,1.275,7.516,2.797,13.831,2.955
		c10.876,0.239,16.789-3.916,21.184-13.669L301.13,40.689c-2.395-1.278-7.752-2.716-12.073-2.796
		c-7.509-0.159-17.582,1.36-23.978,16.705l-18.864,44.525l-37.009-60.271c-2.398-0.722-8.238-1.757-12.475-1.757
		C183.624,37.093,176.351,41.887,168.757,50.121 M102.212,19.747v127.1c2.078,0.314,4.237,0.476,6.716,0.476
		c18.702,0,22.463-5.515,22.463-15.109V0.722C129.148,0.24,126.749,0,124.351,0C105.487,0,102.212,10.076,102.212,19.747"/>
	<g opacity="0.4">
		<defs>
			<path id="SVGID_1_" opacity="0.4" d="M255.361,77.536c-0.081,0.196-0.068,0.162,0.027-0.064
				C255.381,77.492,255.371,77.512,255.361,77.536 M265.079,54.597c0,0-8.747,20.652-9.691,22.875
				c1.11-2.51,4.392-4.574,6.801-4.912c0,0,19.737-2.78,21.114-2.972c2.952-0.412,6.126-2.783,7.128-5.03l10.7-23.87
				c-2.398-1.278-7.755-2.716-12.073-2.796c-0.307-0.007-0.617-0.01-0.938-0.01C280.725,37.883,271.212,39.88,265.079,54.597
				 M35.093,38.051C11.834,40.608,0,54.597,0,71.305c0,8.976,4.264,17.616,12.434,23.529c0.064,0.047,0.128,0.095,0.192,0.138
				c0.627,0.459,1.778,1.214,2.55,1.659c9.017,5.077,28.69,6.602,37.856,5.317c5.691-0.799,17.872-2.513,24.072-3.384
				c6.028-0.85,12.94,0.388,14.623,5.91c-3.049-11.392-12.68-20.209-30.495-23.499l-21.502-3.997
				c-6.878-1.197-11.193-2.8-11.193-6.716c0-3.674,4.554-6.713,15.511-6.713c10.788,0,20.22,1.12,26.295,1.12
				c7.914,0,16.148-3.36,16.148-18.944c0-2.078-0.243-4.001-0.638-5.998c-8.44-1.029-21.859-2.435-35.265-2.435
				C45.321,37.292,40.055,37.511,35.093,38.051 M168.761,50.114l-35.973,39.336c0,0,2.614,0.921,5.897,0.459
				c2.135-0.3,25.178-3.539,28.903-4.061c3.491-0.492,7.563-2.237,10.353-5.195l14.08-14.944l7.31,11.483
				c1.666,2.614,5.596,3.407,9.219,2.898c0.88-0.125,15.672-2.203,17.997-2.53c2.53-0.354,6.922,0.806,8.251,2.965l-25.59-41.674
				c-2.398-0.722-8.238-1.757-12.475-1.757C183.624,37.093,176.354,41.887,168.761,50.114 M102.212,19.744v84.812
				c0-1.511,0.068-1.768,0.121-3.124c0.128-3.492,2.742-6.801,7.195-7.428c3.174-0.445,12.316-1.731,15.038-2.112
				c2.301-0.324,6.227-1.973,6.824-6.291V0.722C129.148,0.24,126.749,0,124.351,0C105.487,0,102.212,10.073,102.212,19.744"/>
		</defs>
		<clipPath id="SVGID_2_">
			<use xlink:href="#SVGID_1_"  overflow="visible"/>
		</clipPath>
		
			<linearGradient id="SVGID_3_" gradientUnits="userSpaceOnUse" x1="-3098.2703" y1="3090.2522" x2="-3094.897" y2="3090.2522" gradientTransform="matrix(-3.5453 -25.2259 -25.2259 3.5453 67125.5234 -89026.3359)">
			<stop  offset="0" style="stop-color:#FFFFFF"/>
			<stop  offset="1" style="stop-color:#FFFFFF;stop-opacity:0"/>
		</linearGradient>
		<polygon clip-path="url(#SVGID_2_)" fill="url(#SVGID_3_)" points="-8.017,191.528 -40.256,-37.869 309.15,-86.975 
			341.39,142.422 		"/>
	</g>
</g>
</svg>
