<svg xmlns:dc="http://purl.org/dc/elements/1.1/" xmlns:cc="http://creativecommons.org/ns#" xmlns:rdf="http://www.w3.org/1999/02/22-rdf-syntax-ns#" xmlns:svg="http://www.w3.org/2000/svg" xmlns="http://www.w3.org/2000/svg" id="svg2" version="1.1" x="0" y="0" width="400" height="500" viewBox="30.5 31.5 400 500" enable-background="new 30.5 31.5 412 533" xml:space="preserve">
  <metadata id="metadata4">
    <rdf:RDF>
      <cc:Work rdf:about="">
        <dc:format>
          
          
          image/svg+xml
        
        
        </dc:format>
        <dc:type rdf:resource="http://purl.org/dc/dcmitype/StillImage"/>
      </cc:Work>
    </rdf:RDF>
  </metadata>
  <defs id="defs6"/>
  <path id="path8" d="M230.55 531.13C304.87 477.21 355.81 409.11 386.29 322.97 413.93 244.87 425.02 150.22 420.2 33.62l-0.02-0.46-379.82 0-0.02 0.46c-4.81 116.6 6.28 211.24 33.91 289.35 30.48 86.14 81.42 154.24 155.74 208.16l0.28 0.2 0.28-0.2z" fill="#0085ca"/>
  <path id="path4232" d="m40.33 133.35c2.11 32.59 4.76 65.39 10.87 99.68 57.36 38.79 145.08 27.24 179.31-15.9 34.22 43.14 121.94 54.7 179.31 15.9 6.1-34.29 8.75-67.09 10.87-99.68C367.51 185.54 256.41 179.16 230.5 121.13 204.59 179.16 93.49 185.54 40.33 133.35Z" style="fill-rule:evenodd;fill:#fff"/>
  <path d="m365.73 371.53c15.65-31.02 23.69-58.43 32.52-87.7-48.51 21.62-133.92 24.52-167.75-22.57-33.83 47.09-119.47 44.31-167.97 22.68 8.28 30.58 18.07 59.09 32.74 87.92 43.51 21.88 120.14 14.02 135.23-24.65 15.09 38.66 91.72 46.2 135.23 24.32z" id="path4230" style="fill-rule:evenodd;fill:#fff"/>
  <path id="path10" d="m41.04 33.21c-9.07 219.45 36.25 385.95 189.45 497.1 84.47-61.29 136.15-139.41 163.99-233.97 2.09-7.09 4.04-14.27 5.87-21.54 11.45-45.69 17.77-95.02 19.88-147.94 1.2-30.06 1.05-61.28-0.29-93.65l-189.45 0-189.45 0m-0.92-0.95 0.92 0 189.45 0 189.45 0 0.92 0 0.04 0.92c4.82 116.66-6.28 211.36-33.93 289.52-30.51 86.24-81.51 154.41-155.91 208.39l-0.56 0.41-0.56-0.41C155.54 477.11 104.54 408.94 74.03 322.7 46.38 244.54 35.28 149.84 40.1 33.18l0.04-0.92 0 0z"/>
  <path d="M51.19 233.03C108.56 271.83 196.28 260.27 230.5 217.13c34.22 43.14 121.94 54.7 179.31 15.9m10.87-99.68C367.51 185.54 256.41 179.16 230.5 121.13 204.59 179.16 93.49 185.54 40.33 133.35" id="path4216" style="fill:none;stroke:#000"/>
  <path id="path4234" d="M398.25 283.83C349.75 305.45 264.33 308.35 230.5 261.26 196.67 308.35 111.03 305.56 62.53 283.94m32.74 87.92c43.51 21.88 120.14 14.02 135.23-24.65 15.09 38.66 91.72 46.2 135.23 24.32" style="fill:none;stroke:#000"/>
</svg>
