<?xml version="1.0" encoding="UTF-8" standalone="no"?>
<svg
   width="1189"
   height="402"
   overflow="hidden"
   version="1.1"
   id="svg62"
   sodipodi:docname="SOliver-Logo.svg"
   inkscape:version="1.1.1 (3bf5ae0d25, 2021-09-20)"
   xmlns:inkscape="http://www.inkscape.org/namespaces/inkscape"
   xmlns:sodipodi="http://sodipodi.sourceforge.net/DTD/sodipodi-0.dtd"
   xmlns="http://www.w3.org/2000/svg"
   xmlns:svg="http://www.w3.org/2000/svg">
  <sodipodi:namedview
     id="namedview64"
     pagecolor="#ffffff"
     bordercolor="#999999"
     borderopacity="1"
     inkscape:pageshadow="0"
     inkscape:pageopacity="0"
     inkscape:pagecheckerboard="0"
     showgrid="false"
     inkscape:zoom="0.77074044"
     inkscape:cx="680.51444"
     inkscape:cy="287.38598"
     inkscape:window-width="1920"
     inkscape:window-height="1001"
     inkscape:window-x="-9"
     inkscape:window-y="-9"
     inkscape:window-maximized="1"
     inkscape:current-layer="g56" />
  <defs
     id="defs14">
    <clipPath
       id="clip0">
      <rect
         x="73"
         y="93"
         width="1189"
         height="447"
         id="rect2" />
    </clipPath>
    <clipPath
       id="clip1">
      <rect
         x="74"
         y="94"
         width="1187"
         height="446"
         id="rect5" />
    </clipPath>
    <clipPath
       id="clip2">
      <rect
         x="74"
         y="94"
         width="1187"
         height="446"
         id="rect8" />
    </clipPath>
    <clipPath
       id="clip3">
      <rect
         x="74"
         y="-524"
         width="1187"
         height="1680"
         id="rect11" />
    </clipPath>
  </defs>
  <g
     clip-path="url(#clip0)"
     transform="translate(-73,-93)"
     id="g60">
    <g
       clip-path="url(#clip1)"
       id="g58">
      <g
         clip-path="url(#clip2)"
         id="g56">
        <g
           clip-path="url(#clip3)"
           id="g54"
           transform="translate(1.1721081,27.542611)">
          <path
             d="m 204.706,895.395 c 14.138,0 19.123,8.554 19.123,18.903 0,7.796 -4.407,19.222 -18.963,19.222 -12.902,0 -19.422,-8.913 -19.422,-18.584 -0.02,-11.805 7.338,-19.541 19.262,-19.541"
             fill="#e50043"
             transform="matrix(1,0,0,1.00006,74,-523.411)"
             id="path44" />
          <path
             d="m 330.987,941.775 c -77.049,0 -115.573,-76.829 -115.573,-145.962 0,-65.144 34.756,-157.946 127.837,-157.946 9.77,0 20.319,1.077 29.69,4.526 1.795,0.658 0.459,2.772 0.459,2.772 0,0 -1.535,2.532 -3.45,4.566 -0.977,1.057 -4.127,4.746 -6.979,4.587 -20.797,-1.097 -35.473,3.23 -40.997,5.703 -20.498,9.192 -32.582,22.113 -42.712,39.501 -15.752,27.039 -22.153,60.738 -22.153,98.804 0,59.043 27.856,119.122 77.069,119.122 54.137,0 79.741,-67.019 79.741,-124.785 0,-65.344 -26.92,-104.965 -65.245,-104.965 -16.111,0 -28.295,4.107 -44.107,11.984 -1.037,0.518 -4.308,1.355 -2.353,-2.393 4.566,-8.814 17.667,-29.651 58.285,-29.651 69.651,0 88.714,73.041 88.714,124.845 0.02,76.391 -49.791,149.292 -118.226,149.292 z"
             fill="#e50043"
             transform="matrix(1,0,0,1.00006,74,-523.411)"
             id="path46" />
          <path
             d="m 1133.56,759.582 c -52.06,-5.444 -79.38,61.117 -79.66,61.695 l 0.24,-4.108 c -0.36,-4.367 2.07,-38.504 0.28,-52.183 -0.24,-1.855 -1.52,-8.654 -7.14,-6.561 -9.81,3.649 -27.42,13.759 -27.42,20.28 0,5.044 0.36,15.533 0.4,19.78 0.18,19.801 -0.64,30.19 -0.64,30.19 -0.32,3.888 -0.44,7.557 -3.77,16.271 -3.85,10.05 -9.37,19.422 -17.165,29.272 -20.598,23.709 -35.932,29.113 -52.164,29.113 -29.75,0 -38.783,-29.292 -41.555,-41.695 -0.339,-1.556 0.638,-1.595 1.695,-1.635 44.885,-1.496 79.003,-24.726 79.003,-60.24 0,-19.92 -12.124,-42.831 -45.005,-42.831 -45.823,0 -67.558,43.669 -70.708,81.854 -0.02,0.26 -0.06,0.419 -0.06,0.419 -16.969,-5.364 -28.774,-15.613 -28.774,-15.613 -1.375,-1.276 -1.495,-2.752 -1.296,-4.407 0.818,-6.54 4.208,-42.074 0.937,-57.966 -1.136,-5.503 -4.446,-7.178 -7.816,-7.178 -5.224,0 -14.477,6.021 -19.92,9.93 -10.409,7.457 -13.879,15.334 -13.44,22.891 0.638,11.107 3.569,26.939 15.474,42.094 0.837,1.077 1.475,2.253 1.455,3.35 -0.02,1.794 -3.21,11.246 -3.828,13.28 -6.062,19.402 -17.847,53.699 -33.5,53.699 -7.079,0 -36.371,-27.099 -32.443,-123.49 0.16,-3.729 0.419,-7.318 0.519,-10.548 0.1,-3.131 -1.216,-5.424 -3.589,-5.304 -0.439,0.02 -1.197,0 -2.573,0.598 -5.782,2.513 -22.273,12.921 -27.836,16.451 -1.356,0.857 -1.954,1.734 -2.433,3.07 -0.658,1.875 -0.399,5.664 -0.399,6.361 0.1,13.42 2.134,54.577 2.134,54.577 -2.473,29.451 -26.959,57.328 -40.838,61.675 -14.775,4.626 -17.368,-11.905 -17.986,-15.115 -1.794,-9.252 -1.874,-18.823 -2.073,-28.275 -0.3,-13.539 0.299,-25.643 0.398,-39.163 0.04,-5.404 2.194,-42.592 1.237,-51.725 -0.2,-1.894 -0.419,-3.449 -1.835,-4.586 -1.256,-0.997 -3.35,-1.057 -5.184,-0.119 -6.501,3.369 -20.459,10.548 -26.9,15.114 -2.831,2.014 -2.931,5.145 -2.931,6.122 -0.02,10.648 0,20.738 0.02,31.027 0.02,28.554 -2.114,34.277 -2.114,34.277 -7.397,26.68 -37.447,53.918 -56.331,54.178 -22.173,0.299 -29.99,-28.056 -34.018,-43.091 -0.02,-0.1 0.2,-0.359 0.658,-0.758 19.861,-17.428 63.031,-53.519 64.367,-135.294 0.459,-27.637 -4.745,-69.572 -43.768,-69.572 -49.013,0 -64.407,70.09 -64.407,135.634 0,33.14 4.506,57.467 5.503,64.387 0.04,0.219 0.08,0.658 0.16,1.216 -2.931,2.752 -16.451,11.625 -30.808,17.089 -0.877,0.339 -1.934,0.737 -2.771,1.116 -1.037,0.459 -1.496,0.957 -2.633,3.829 -1.714,4.347 -4.107,11.346 -6.899,17.208 -0.259,0.539 -0.578,1.237 -0.698,1.615 -0.219,0.678 0.2,1.097 1.276,0.858 20.898,-4.766 43.65,-18.086 46.72,-20.399 3.27,10.09 17.887,53.739 54.676,53.739 32.722,0 64.926,-33.121 72.284,-46.441 h 0.099 c 1.775,16.431 11.207,46.162 37.887,46.162 15.992,0 41.535,-13.779 66.081,-54.198 0.319,-0.498 0.399,-0.658 0.439,-0.598 3.789,9.492 20.279,54.357 49.193,54.357 38.584,0 60.817,-80.698 62.592,-86.162 0.778,0.459 12.981,8.575 35.573,13.061 0.18,0.579 2.592,69.253 66.64,71.266 56.491,1.775 84.588,-53.858 84.588,-53.858 0,12.064 0.04,39.083 0.08,40.199 0.16,4.327 0.06,7.917 4.31,9.811 1.11,0.499 4.48,1.635 12.72,1.635 5.44,0 11.68,-0.877 13.34,-1.515 3.09,-1.217 3.39,-4.307 3.65,-8.076 0.1,-1.675 0.12,-32.881 0.08,-34.895 -0.08,-4.866 -0.08,-12.463 1.07,-21.057 1.64,-12.124 9.04,-68.136 63.83,-67.318 0.4,0 11.49,-15.055 17.55,-23.689 1.71,-2.433 3.39,-5.065 3.39,-7.697 0,-0.917 -0.54,-1.755 -1.12,-2.054 -1.95,-0.997 -5.48,-1.276 -6.1,-1.336 z M 546.501,680.14 c 14.816,0 17.647,21.097 17.647,45.643 0,41.017 -14.696,83.37 -43.45,108.993 0,0 -3.489,-21.356 -3.489,-54.057 0,-31.207 4.606,-100.579 29.292,-100.579 z m 356.311,160.359 c 0.519,-20.478 7.917,-58.704 37.249,-58.704 14.815,0 21.475,10.768 20.618,23.909 -0.957,14.855 -15.414,34.337 -55.992,36.331 -1.117,0.059 -1.915,-0.12 -1.875,-1.536 z"
             fill="#e50043"
             transform="matrix(1,0,0,1.00006,74,-523.411)"
             id="path48" />
          <path
             d="m 132.124,893.68 c 0.458,-6.142 -1.296,-10.828 -4.467,-14.357 -5.284,-5.903 -14.058,-10.588 -16.57,-12.024 -12.5027,-7.179 -25.5236,-12.862 -34.9753,-17.727 -6.3609,-3.27 -12.2034,-7.338 -15.9521,-11.605 -6.1815,-6.979 -9.1127,-15.853 -9.1127,-26.222 0,-25.124 17.687,-49.631 58.7441,-52.921 3.051,-0.239 11.545,-0.638 20.399,0.778 6.859,1.097 16.031,3.37 26.021,8.275 1.755,0.857 4.706,2.453 6.96,3.988 0.578,0.379 1.455,1.037 1.954,1.775 0.339,0.498 0.159,1.037 -0.06,1.376 -0.479,0.757 -0.937,1.276 -1.196,1.535 -4.507,4.566 -12.264,11.924 -15.334,13.599 -0.339,0.18 -0.958,0.618 -1.955,0.539 -0.717,-0.06 -1.575,-0.599 -2.053,-0.878 -0.938,-0.578 -3.37,-2.153 -4.148,-2.612 -9.412,-5.543 -19.262,-7.537 -25.982,-7.537 -21.356,0.02 -27.0789,11.206 -28.036,18.404 -0.4786,3.61 -0.7179,12.643 8.5145,19.542 3.6091,2.692 13.2205,7.737 16.7695,9.292 14.796,6.54 35.354,14.855 44.766,27.876 5.942,8.216 8.594,16.93 8.594,25.584 0,13.001 -7.477,28.813 -22.094,39.521 -11.705,8.574 -25.044,12.164 -43.0904,12.164 -10.4686,0 -27.5374,-2.573 -40.6979,-8.076 -2.1934,-0.917 -7.7568,-3.29 -12.5225,-6.7 -0.2193,-0.16 -2.9312,-2.054 -2.7118,-4.347 0.1196,-1.296 0.7776,-2.612 2.2133,-4.168 2.3929,-2.612 10.0698,-8.773 12.7817,-10.568 0.4985,-0.339 0.9571,-0.498 1.5952,-0.558 0.7976,-0.08 1.5354,0.259 1.6152,0.299 19.8604,10.668 34.0578,14.098 44.2072,14.098 14.038,0.02 25.025,-7.657 25.823,-18.345 z"
             fill="#e50043"
             transform="matrix(1,0,0,1.00006,74,-523.411)"
             id="path50" />
          <path
             d="m 659.522,723.909 c 0,10.349 -8.953,18.744 -19.98,18.744 -11.027,0 -19.98,-8.395 -19.98,-18.744 0,-10.349 8.953,-18.744 19.98,-18.744 11.027,0 19.98,8.395 19.98,18.744 z"
             fill="#e50043"
             transform="matrix(1,0,0,1.00006,74,-523.411)"
             id="path52" />
        </g>
      </g>
    </g>
  </g>
  <rect
     style="opacity:0;fill:#ff0080;fill-rule:evenodd;stroke:#3673c6;stroke-width:0.15"
     id="rect903"
     width="620.18829"
     height="80.734566"
     x="284.40585"
     y="369.72763" />
</svg>
