<?xml version="1.0" encoding="utf-8"?>
<svg width="173px" height="60px" viewBox="0 0 173 60" version="1.1" xmlns:xlink="http://www.w3.org/1999/xlink" xmlns="http://www.w3.org/2000/svg">
  <desc>Created with Lunacy</desc>
  <path d="M23.4402 0.0192902C23.4526 -0.00236554 23.5395 -0.00646257 23.662 0.0104392L23.7261 0.0206558C29.2544 1.01692 48.0335 5.71825 48.0335 23.6229C48.0335 44.6168 18.7715 44.2364 18.7715 54.7726C18.7715 57.6656 21.9872 59.1325 24.0766 59.7789L24.3368 59.857C24.7413 59.9746 24.6243 60.0263 24.3622 59.987L23.9642 59.9144C18.04 58.7911 0 53.9269 0 36.3763C0 15.3818 29.2626 15.7628 29.2626 5.22593C29.2626 2.2112 25.7722 0.746512 23.7 0.142884L23.5727 0.102063C23.4857 0.0707484 23.4452 0.0462356 23.4391 0.0288579L23.4402 0.0192902ZM31.5692 5.22593C31.5692 4.67214 31.4108 4.30273 31.2689 4.03642C32.561 4.52465 40.7791 7.89377 40.7791 14.5999C40.7791 28.7326 7.24604 31.2721 7.24604 45.4C7.24604 47.3078 7.73478 48.9856 8.55117 50.4591C4.40615 46.7629 2.30725 42.0404 2.30725 36.3763C2.30725 31.5118 3.99693 27.6763 7.62511 24.3078C10.5589 21.5838 14.4286 19.526 18.0311 17.726L19.3672 17.0622C25.6419 13.9546 31.5692 11.0191 31.5692 5.22593ZM63.8149 9.42851C66.2805 9.42851 67.9017 10.2691 68.7455 10.7969C69.3482 11.1742 69.4881 11.6605 69.1899 12.238L69.1328 12.3408L68.8161 12.8666C68.4137 13.5044 67.8681 13.5815 67.2662 13.2531L67.0289 13.1254C66.2766 12.729 65.1601 12.2357 63.6388 12.2357C61.9484 12.2357 60.6453 12.9724 60.6453 14.4808C60.6453 18.0241 69.8374 16.7615 69.8374 22.7957C69.8374 25.8132 67.2662 28.0235 63.4276 28.0235C60.4691 28.0235 58.4306 26.8245 57.4408 26.0932C56.8834 25.683 56.8078 25.1577 57.1325 24.6111L57.194 24.5144L57.5463 24.0235C57.998 23.4123 58.5553 23.3837 59.1661 23.7783L59.4869 23.9815C60.341 24.5083 61.7049 25.2164 63.5332 25.2164C65.2942 25.2164 66.5623 24.3745 66.5623 22.8661C66.5623 19.3925 57.3702 20.5506 57.3702 14.5512C57.3702 11.1827 60.3286 9.42851 63.8149 9.42851ZM83.4489 10.7969C82.605 10.2691 80.9839 9.42851 78.5183 9.42851C75.032 9.42851 72.0735 11.1827 72.0735 14.5512C72.0735 20.5506 81.2656 19.3925 81.2656 22.8661C81.2656 24.3745 79.9975 25.2164 78.2366 25.2164C76.3251 25.2164 74.9213 24.4425 74.077 23.9109L73.8694 23.7783C73.2587 23.3837 72.7014 23.4123 72.2497 24.0235L71.8974 24.5144L71.8359 24.6111C71.5111 25.1577 71.5867 25.683 72.1441 26.0932C73.1339 26.8245 75.1725 28.0235 78.131 28.0235C81.9703 28.0235 84.5408 25.8132 84.5408 22.7957C84.5408 16.7615 75.3487 18.0241 75.3487 14.4808C75.3487 12.9724 76.6518 12.2357 78.3428 12.2357C79.8635 12.2357 80.98 12.729 81.7328 13.1254L81.9703 13.2531C82.5708 13.5815 83.1171 13.5044 83.5195 12.8666L83.8368 12.3408L83.894 12.238C84.1921 11.6605 84.0516 11.1742 83.4489 10.7969ZM94.7884 9.42879C99.7717 9.42879 102.29 13.4705 102.29 18.2866C102.29 18.3767 102.279 18.4566 102.261 18.5283C102.144 19.0609 101.673 19.369 101.125 19.4055L101.014 19.4091L89.4932 19.4091C89.7577 23.2378 92.61 25.076 95.5582 25.076C97.411 25.076 98.858 24.2675 99.634 23.6728C100.122 23.2989 100.737 23.4373 101.093 23.9667L101.15 24.0586L101.453 24.585C101.79 25.1818 101.715 25.6953 101.117 26.1283C100.104 26.8616 98.0841 28.0231 95.356 28.0231C89.9983 28.0231 86.3263 23.9882 86.3263 18.7256C86.3263 13.0772 89.9367 9.42879 94.7884 9.42879ZM89.631 16.6373C90.0029 13.7518 92.2817 12.0953 94.7205 12.0953C97.9039 12.0953 99.3043 14.8847 99.3043 16.8314L89.609 16.8314L89.631 16.6373ZM57.7249 32.3459L62.3758 32.3459L62.7933 32.3497C64.1153 32.3752 64.7585 32.5265 65.3281 32.7693C66.8039 33.4159 67.6984 34.9079 67.6984 36.8021C67.6984 38.9182 66.4906 40.544 64.7242 41.0343L64.7242 41.0787L64.8008 41.1846C64.87 41.2842 64.983 41.4552 65.1265 41.7021L68.5477 48.0068L66.7813 48.0068L63.2257 41.4119L59.2678 41.4119L59.2678 48.0068L57.7249 48.0068L57.7249 32.3459ZM150.321 32.346L150.321 45.0208C150.321 46.4416 150.946 46.6981 151.513 46.7141L151.574 46.7149C151.774 46.7149 151.954 46.6924 151.954 46.6924L151.954 48.0512L151.841 48.0666C151.735 48.0792 151.568 48.0949 151.394 48.0949L151.252 48.0927C150.298 48.0616 148.801 47.6866 148.801 45.3561L148.801 32.346L150.321 32.346ZM136.186 32.346L137.706 32.346L137.706 37.7821C137.706 38.2942 137.662 38.6951 137.662 38.6951L137.706 38.6951L137.75 38.6065C137.965 38.2002 138.998 36.5346 141.531 36.5346C144.549 36.5346 146.428 38.9395 146.428 42.4152C146.428 45.957 144.304 48.2739 141.352 48.2739C138.668 48.2739 137.662 46.0909 137.662 46.0909L137.617 46.0909L137.64 46.3469C137.649 46.4854 137.659 46.6729 137.661 46.8923L137.662 48.0062L136.186 48.0062L136.186 32.346ZM59.2678 33.728L62.4429 33.728C63.6507 33.728 64.2094 33.8611 64.6796 34.1063C65.5961 34.5959 66.1108 35.5539 66.1108 36.8458C66.1108 38.8062 64.9031 40.0319 63.0023 40.0319L59.2678 40.0319L59.2678 33.728ZM92.5469 40.8783C92.5469 38.1155 91.5632 36.5341 88.7905 36.5341C86.1295 36.5341 84.6983 38.3381 84.2959 39.3638L84.2507 39.3638C84.2507 39.3638 84.2959 38.9623 84.2959 38.472L84.2959 36.8018L82.7975 36.8018L82.7975 48.0064L84.3179 48.0064L84.3179 42.638C84.3179 42.1033 84.3624 41.5912 84.4968 41.1228C85.0109 39.2743 86.6663 37.9599 88.5897 37.9599C90.7585 37.9599 91.0265 39.5188 91.0265 41.2791L91.0265 48.0064L92.5469 48.0064L92.5469 40.8783ZM80.3352 41.7026C80.3352 38.918 78.7477 36.5342 75.6391 36.5342C72.5976 36.5342 70.0936 38.7398 70.0936 42.4155C70.0936 45.8679 72.6203 48.2743 75.9749 48.2743C78.0684 48.2743 79.5483 47.2035 79.9941 46.8364L80.1344 46.7146L79.4407 45.5559C79.4407 45.5559 78.0766 46.9147 76.0195 46.9147C73.6937 46.9147 71.7257 45.3558 71.6586 42.4817L80.2906 42.4817C80.2906 42.4817 80.3225 42.1151 80.3324 41.8405L80.3352 41.7026ZM100.376 36.5342C103.485 36.5342 105.072 38.918 105.072 41.7026L105.069 41.8405C105.06 42.1151 105.028 42.4817 105.028 42.4817L96.3963 42.4817C96.4628 45.3558 98.4314 46.9147 100.757 46.9147C102.814 46.9147 104.178 45.5559 104.178 45.5559L104.871 46.7146L104.731 46.8364C104.285 47.2035 102.805 48.2743 100.712 48.2743C97.3573 48.2743 94.8307 45.8679 94.8307 42.4155C94.8307 38.7398 97.3347 36.5342 100.376 36.5342ZM133.12 40.8334C133.12 38.0269 131.621 36.5342 128.915 36.5342C126.761 36.5342 125.37 37.4582 125.007 37.73L124.913 37.8043L125.628 38.9624C125.628 38.9624 126.947 37.8924 128.804 37.8924C130.414 37.8924 131.599 38.6285 131.599 40.7897L131.599 41.0785L130.875 41.0786C128.867 41.0824 124.085 41.23 124.085 44.9543C124.085 47.1824 126.031 48.2743 127.91 48.2743C130.383 48.2743 131.41 46.4017 131.623 45.945L131.667 45.8454L131.711 45.8454C131.711 45.8454 131.667 46.2244 131.667 46.7816L131.667 48.0066L133.12 48.0066L133.12 40.8334ZM158.752 36.5342C161.861 36.5342 163.449 38.918 163.449 41.7026L163.446 41.8405C163.436 42.1151 163.405 42.4817 163.405 42.4817L154.772 42.4817C154.838 45.3558 156.807 46.9147 159.132 46.9147C161.19 46.9147 162.554 45.5559 162.554 45.5559L163.248 46.7146L163.108 46.8364C162.662 47.2035 161.182 48.2743 159.088 48.2743C155.734 48.2743 153.207 45.8679 153.207 42.4155C153.207 38.7398 155.712 36.5342 158.752 36.5342ZM172.687 37.7593C172.687 37.7593 171.591 36.5343 169.22 36.5343C167.185 36.5343 165.374 37.6262 165.374 39.6303C165.374 43.2841 171.434 42.6826 171.434 45.1333C171.434 46.3132 170.383 46.9148 169.176 46.9148C167.412 46.9148 166.247 45.9589 165.917 45.6506L165.821 45.5559L164.994 46.6478C164.994 46.6478 166.425 48.2736 169.153 48.2736C171.412 48.2736 173 46.9599 173 45.1333C173 41.435 166.939 42.1028 166.939 39.6303C166.939 38.3834 168.035 37.8925 169.176 37.8925C170.84 37.8925 171.785 38.7169 171.962 38.8874L171.993 38.9181L172.687 37.7593ZM107.691 36.8018L106.081 36.8018L109.883 48.0064L111.537 48.0064L114.288 40.0316C114.366 39.7878 114.44 39.5272 114.499 39.3111L114.623 38.8291L114.668 38.8291C114.668 38.8291 114.825 39.4744 115.026 40.0316L117.776 48.0064L119.432 48.0064L123.232 36.8018L121.623 36.8018L118.861 45.2602C118.773 45.543 118.693 45.8364 118.637 46.0487L118.559 46.3581L118.515 46.3581C118.515 46.3581 118.358 45.6896 118.178 45.1549L115.406 36.8455L113.908 36.8455L111.135 45.1549C111.045 45.4222 110.961 45.723 110.9 45.957L110.799 46.3581L110.754 46.3581C110.754 46.3581 110.635 45.8462 110.485 45.3601L107.691 36.8018ZM71.7257 41.2349C72.0835 38.9849 73.7163 37.8043 75.5945 37.8043C77.2718 37.8043 78.7031 38.8955 78.7922 41.2349L71.7257 41.2349ZM100.332 37.8043C98.4534 37.8043 96.8206 38.9849 96.4628 41.2349L103.529 41.2349C103.439 38.8955 102.008 37.8043 100.332 37.8043ZM158.708 37.8043C156.83 37.8043 155.198 38.9849 154.839 41.2349L161.906 41.2349C161.817 38.8955 160.385 37.8043 158.708 37.8043ZM137.662 42.4377C137.662 39.2516 139.428 37.9153 141.307 37.9153C143.409 37.9153 144.862 39.6749 144.862 42.4152C144.862 45.2667 143.23 46.9376 141.239 46.9376C138.824 46.9376 137.662 44.6876 137.662 42.4377ZM131.599 42.8163L131.599 42.326L130.73 42.3265C128.908 42.3352 125.651 42.4912 125.651 44.8648C125.651 45.913 126.478 46.9816 128.155 46.9816C130.303 46.9816 131.599 44.7542 131.599 42.8163Z" id="sse-renewables-copy" fill="#123282" fill-rule="evenodd" stroke="none" />
</svg>