<svg xmlns="http://www.w3.org/2000/svg" height="585" width="501"><path d="M5.818 5.954V330.87c0 138.214 106.611 248.176 244.68 248.176 138.067 0 245.53-109.965 244.68-248.176V5.954Z" style="fill:#000;fill-opacity:1;stroke:none;stroke-width:10;stroke-linecap:round;stroke-linejoin:round;stroke-miterlimit:4;stroke-dasharray:none;stroke-opacity:1"/><circle r="52.925" cy="481.174" cx="244.5" style="opacity:1;fill:#fcdb00;fill-opacity:1;stroke:#000;stroke-width:6;stroke-linecap:round;stroke-linejoin:round;stroke-miterlimit:4;stroke-dasharray:none;stroke-opacity:1"/><circle style="opacity:1;fill:#fcdb00;fill-opacity:1;stroke:#000;stroke-width:6;stroke-linecap:round;stroke-linejoin:round;stroke-miterlimit:4;stroke-dasharray:none;stroke-opacity:1" cx="297.5" cy="399.174" r="52.925"/><circle r="52.925" cy="399.174" cx="203.5" style="opacity:1;fill:#fcdb00;fill-opacity:1;stroke:#000;stroke-width:6;stroke-linecap:round;stroke-linejoin:round;stroke-miterlimit:4;stroke-dasharray:none;stroke-opacity:1"/><circle style="opacity:1;fill:#fcdb00;fill-opacity:1;stroke:#000;stroke-width:6;stroke-linecap:round;stroke-linejoin:round;stroke-miterlimit:4;stroke-dasharray:none;stroke-opacity:1" cx="158.5" cy="317.174" r="52.925"/><circle style="opacity:1;fill:#fcdb00;fill-opacity:1;stroke:#000;stroke-width:6;stroke-linecap:round;stroke-linejoin:round;stroke-miterlimit:4;stroke-dasharray:none;stroke-opacity:1" cx="340.5" cy="317.174" r="52.925"/><circle r="52.925" cy="317.174" cx="248.5" style="opacity:1;fill:#fcdb00;fill-opacity:1;stroke:#000;stroke-width:6;stroke-linecap:round;stroke-linejoin:round;stroke-miterlimit:4;stroke-dasharray:none;stroke-opacity:1"/><circle r="52.925" cy="234.24" cx="121.5" style="opacity:1;fill:#fcdb00;fill-opacity:1;stroke:#000;stroke-width:6;stroke-linecap:round;stroke-linejoin:round;stroke-miterlimit:4;stroke-dasharray:none;stroke-opacity:1"/><circle style="opacity:1;fill:#fcdb00;fill-opacity:1;stroke:#000;stroke-width:6;stroke-linecap:round;stroke-linejoin:round;stroke-miterlimit:4;stroke-dasharray:none;stroke-opacity:1" cx="379.5" cy="234.24" r="52.925"/><circle r="52.925" cy="234.24" cx="213.5" style="opacity:1;fill:#fcdb00;fill-opacity:1;stroke:#000;stroke-width:6;stroke-linecap:round;stroke-linejoin:round;stroke-miterlimit:4;stroke-dasharray:none;stroke-opacity:1"/><circle style="opacity:1;fill:#fcdb00;fill-opacity:1;stroke:#000;stroke-width:6;stroke-linecap:round;stroke-linejoin:round;stroke-miterlimit:4;stroke-dasharray:none;stroke-opacity:1" cx="289.5" cy="234.24" r="52.925"/><path style="opacity:1;fill:#fcdb00;fill-opacity:1;stroke:none;stroke-width:1;stroke-linecap:round;stroke-linejoin:round;stroke-miterlimit:4;stroke-dasharray:none;stroke-opacity:1" d="M5.818 5.954h485.798v150.568H5.818z"/><path d="M54.556 140.869c-9.5 13.045-25.974 9.047-34.009-3.98-8.658-14.037 5.32-31.765 17.728-30.39-4.865-16.36-1.124-28.738 14.472-32.2 14.629-3.248 22.43 10.827 26.56 23.71 19.537-7.906 27.913-35.849 43.266-53.015 6.001-6.71 28.515-13.86 42.691-23.879 9.497-6.71 19.668-6.872 15.92 7.978-2.963 11.735-13.144 19.644-24.1 25.378-8.12 4.25-15.422 10.852-21.125 21.637-10.124 19.147-1.77 25.298 6.512 27.496 25.435 6.748 39.81-10.01 56.44-20.26 16.271-10.028 23.192-26.74 36.903-37.627 11.552-9.173 27.875-14.192 36.18-23.878 8.375-9.77 14.043-8.322 15.794 1.659 2.473 14.093-1.56 20.482-8.559 25.113-15.057 9.965-25.824 15.555-33.709 27.073-10.263 14.993 3.067 20.536 6.213 21.408 12.48 3.457 31.653-8.09 46.434-19.45 10.827-8.32 24.928-18.177 41.843-26.498 17.18-8.451 33.42-8.125 50.651-23.878 12.884-11.78 15.018-3.147 16.643 2.532 2.847 9.948-3.624 17.076-9.407 23.517-13.522 15.06-34.889 18.598-48.012 29.349-17.122 14.026-5.342 25.034 14.004 25.282 16.15.206 28.64-13.329 43.415-25.688 18.928-15.832 36.966-13.21 50.315-18.919 14.064-6.016 30.258-8.2 24.214 4.086-3.77 7.664-5.831 12.078-11.939 15.557-10.69 6.088-21.985 8.918-32.2 13.386-16.499 7.217-11.952 12.284-4.341 14.472 16.24 4.67 33.504 8.897 43.053 26.41 6.576 12.062-5.77 12.723-12.282 9.002-8.324-4.756-15.79-10.016-24.62-9.725-12.078.398-26.41 4.899-35.818 3.618-9.874-1.344-19.278-10.962-28.22-7.598-12.676 4.77-25.251 8.581-39.074 10.13-12.534 1.406-20.525-11.594-31.114-11.938-14.678-.479-33.472 9.126-50.289 9.768-12.661.483-26.393-13.158-43.053-11.216-27.573 3.215-35.148 16.472-53.907 16.281-19.957-.204-48.527-14.101-69.297-20.622.748 10.162-1.97 19.407-10.298 21.346-10.858 2.527-16.778-2.472-23.878-5.427z" style="fill:#000;stroke:#000;stroke-width:1;stroke-linecap:round;stroke-linejoin:round;stroke-miterlimit:4;stroke-dasharray:none;stroke-opacity:1"/><path style="fill:none;fill-opacity:1;stroke:#000;stroke-width:10;stroke-linecap:round;stroke-linejoin:round;stroke-miterlimit:4;stroke-dasharray:none;stroke-opacity:1" d="M5.818 5.954V330.87c0 138.214 106.611 248.176 244.68 248.176 138.067 0 245.53-109.965 244.68-248.176V5.954Z"/></svg>