<?xml version="1.0" encoding="UTF-8" standalone="no"?>
<!-- Created with Inkscape (http://www.inkscape.org/) -->
<svg
   xmlns:svg="http://www.w3.org/2000/svg"
   xmlns="http://www.w3.org/2000/svg"
   version="1.0"
   width="205.18478"
   height="240.34198"
   id="svg2780">
  <defs
     id="defs2782" />
  <g
     transform="translate(-40.544164,-790.46784)"
     id="layer1">
    <path
       d="M 41.544164,791.46784 L 45.238429,946.66729 C 47.877183,1057.524 238.39592,1057.524 241.03468,946.66729 L 244.72895,791.46784 L 41.544164,791.46784 z "
       style="fill:#2163c6;fill-opacity:1;fill-rule:evenodd;stroke:#000000;stroke-width:1.99999988;stroke-linecap:butt;stroke-miterlimit:4;stroke-dashoffset:0;stroke-opacity:1"
       id="path3282" />
    <g
       transform="translate(-1.85664,-0.1827656)"
       id="g16666">
      <path
         d="M 106.10682,857.48722 C 107.42664,858.84003 110.40856,856.6238 111.8714,853.79964 C 113.23152,851.17379 110.89716,844.82948 116.15466,843.61686 C 121.53039,842.37697 133.77307,853.51158 134.0415,861.66381 C 134.30994,869.69145 129.22055,874.0321 122.96622,874.10406 C 116.83649,874.17603 119.19486,868.15391 118.54719,866.58773 C 117.88953,864.99741 110.9202,866.79064 109.22062,874.57284 C 107.237,883.65559 121.5595,890.94246 132.38225,881.83443 C 139.24582,876.0583 139.06036,868.40933 139.17569,860.46042 C 139.29103,852.51028 131.73126,834.35043 120.56823,826.52481 C 109.46346,818.74003 97.864782,823.96944 97.535074,833.73878 C 97.205534,843.50314 101.70463,845.69779 104.32622,850.33967 C 107.03119,855.12919 104.84621,856.1951 106.10682,857.48722 z "
         style="fill:#ffffff;fill-opacity:1;fill-rule:evenodd;stroke:#000000;stroke-width:0.99999994px;stroke-linecap:butt;stroke-linejoin:miter;stroke-opacity:1"
         id="path10061" />
      <path
         d="M 183.87957,857.48722 C 182.55975,858.84003 179.57783,856.6238 178.11499,853.79964 C 176.75487,851.17379 179.08923,844.82948 173.83173,843.61686 C 168.456,842.37697 156.21332,853.51158 155.94489,861.66381 C 155.67645,869.69145 160.76584,874.0321 167.02017,874.10406 C 173.1499,874.17603 170.79153,868.15391 171.4392,866.58773 C 172.09686,864.99741 179.06619,866.79064 180.76577,874.57284 C 182.74939,883.65559 168.42689,890.94246 157.60414,881.83443 C 150.74057,876.0583 150.92603,868.40933 150.8107,860.46042 C 150.69536,852.51028 158.25513,834.35043 169.41816,826.52481 C 180.52293,818.74003 192.12161,823.96944 192.45132,833.73878 C 192.78086,843.50314 188.28176,845.69779 185.66017,850.33967 C 182.9552,855.12919 185.14018,856.1951 183.87957,857.48722 z "
         style="fill:#ffffff;fill-opacity:1;fill-rule:evenodd;stroke:#000000;stroke-width:0.99999994px;stroke-linecap:butt;stroke-linejoin:miter;stroke-opacity:1"
         id="path13721" />
      <path
         d="M 140.67369,865.77854 C 140.60889,869.39819 140.60889,954.83906 140.67369,958.45871 C 140.73849,962.07836 138.90827,973.83598 136.29221,980.57875 C 133.76039,987.10441 130.02212,990.59865 131.33173,1001.0069 C 132.62591,1011.2926 140.51986,1013.4929 144.9932,1021.0805 C 149.46654,1013.4929 157.36049,1011.2926 158.65467,1001.0069 C 159.96428,990.59865 156.22601,987.10441 153.69419,980.57875 C 151.07813,973.83598 149.24791,962.07836 149.31271,958.45871 C 149.37751,954.83906 149.37751,869.39819 149.31271,865.77854 C 149.24791,862.15889 151.07813,850.40127 153.69419,843.6585 C 156.22601,837.13284 159.96428,833.6386 158.65467,823.23033 C 157.36049,812.9447 149.46654,810.74435 144.9932,803.15672 C 140.51986,810.74435 132.62591,812.9447 131.33173,823.23033 C 130.02212,833.6386 133.76039,837.13284 136.29221,843.6585 C 138.90827,850.40127 140.73849,862.15889 140.67369,865.77854 z "
         style="fill:#ffffff;fill-opacity:1;fill-rule:evenodd;stroke:#000000;stroke-width:0.99999994px;stroke-linecap:butt;stroke-linejoin:miter;stroke-opacity:1"
         id="path9090" />
      <rect
         width="38.374908"
         height="8.0986013"
         rx="4.0493007"
         ry="4.0493007"
         x="125.80574"
         y="859.40204"
         style="opacity:1;color:#000000;fill:#ffffff;fill-opacity:1;fill-rule:evenodd;stroke:#000000;stroke-width:0.99999994px;stroke-linecap:butt;stroke-linejoin:miter;marker:none;marker-start:none;marker-mid:none;marker-end:none;stroke-miterlimit:4;stroke-dasharray:none;stroke-dashoffset:0;stroke-opacity:1;visibility:visible;display:inline;overflow:visible;enable-background:accumulate"
         id="rect13717" />
      <path
         d="M 106.10682,966.75003 C 107.42664,965.39722 110.40856,967.61345 111.8714,970.43761 C 113.23152,973.06346 110.89716,979.40777 116.15466,980.62039 C 121.53039,981.86028 133.77307,970.72567 134.0415,962.57344 C 134.30994,954.5458 129.22055,950.20515 122.96622,950.13319 C 116.83649,950.06122 119.19486,956.08334 118.54719,957.64952 C 117.88953,959.23984 110.9202,957.44661 109.22062,949.66441 C 107.237,940.58166 121.5595,933.29479 132.38225,942.40282 C 139.24582,948.17895 139.06036,955.82792 139.17569,963.77683 C 139.29103,971.72697 131.73126,989.88682 120.56823,997.71244 C 109.46346,1005.4972 97.864782,1000.2678 97.535074,990.49847 C 97.205534,980.73411 101.70463,978.53946 104.32622,973.89758 C 107.03119,969.10806 104.84621,968.04215 106.10682,966.75003 z "
         style="fill:#ffffff;fill-opacity:1;fill-rule:evenodd;stroke:#000000;stroke-width:0.99999994px;stroke-linecap:butt;stroke-linejoin:miter;stroke-opacity:1"
         id="path16655" />
      <path
         d="M 183.87957,966.75003 C 182.55975,965.39722 179.57783,967.61345 178.11499,970.43761 C 176.75487,973.06346 179.08923,979.40777 173.83173,980.62039 C 168.456,981.86028 156.21332,970.72567 155.94489,962.57344 C 155.67645,954.5458 160.76584,950.20515 167.02017,950.13319 C 173.1499,950.06122 170.79153,956.08334 171.4392,957.64952 C 172.09686,959.23984 179.06619,957.44661 180.76577,949.66441 C 182.74939,940.58166 168.42689,933.29479 157.60414,942.40282 C 150.74057,948.17895 150.92603,955.82792 150.8107,963.77683 C 150.69536,971.72697 158.25513,989.88682 169.41816,997.71244 C 180.52293,1005.4972 192.12161,1000.2678 192.45132,990.49847 C 192.78086,980.73411 188.28176,978.53946 185.66017,973.89758 C 182.9552,969.10806 185.14018,968.04215 183.87957,966.75003 z "
         style="fill:#ffffff;fill-opacity:1;fill-rule:evenodd;stroke:#000000;stroke-width:0.99999994px;stroke-linecap:butt;stroke-linejoin:miter;stroke-opacity:1"
         id="path16657" />
      <rect
         width="38.374908"
         height="8.0986013"
         rx="4.0493007"
         ry="4.0493007"
         x="125.80574"
         y="-964.83521"
         transform="scale(1,-1)"
         style="opacity:1;color:#000000;fill:#ffffff;fill-opacity:1;fill-rule:evenodd;stroke:#000000;stroke-width:0.99999994px;stroke-linecap:butt;stroke-linejoin:miter;marker:none;marker-start:none;marker-mid:none;marker-end:none;stroke-miterlimit:4;stroke-dasharray:none;stroke-dashoffset:0;stroke-opacity:1;visibility:visible;display:inline;overflow:visible;enable-background:accumulate"
         id="rect16659" />
    </g>
  </g>
</svg>
