<?xml version="1.0" encoding="utf-8"?>
<!-- Generator: Adobe Illustrator 15.0.0, SVG Export Plug-In . SVG Version: 6.00 Build 0)  -->
<!DOCTYPE svg PUBLIC "-//W3C//DTD SVG 1.1//EN" "http://www.w3.org/Graphics/SVG/1.1/DTD/svg11.dtd">
<svg version="1.1" id="Ebene_1" xmlns="http://www.w3.org/2000/svg" xmlns:xlink="http://www.w3.org/1999/xlink" x="0px" y="0px"
	 width="260px" height="149px" viewBox="168.138 346.445 260 149" enable-background="new 168.138 346.445 260 149"
	 xml:space="preserve">
<path fill="#1A171B" d="M303.421,400.064l-0.336,0.221c-5.852,3.812-9.077,5.07-13.775,5.076
	c-5.957-0.009-10.311-1.955-13.271-5.953c-2.934-3.97-4.458-9.892-4.6-18.156l34.63,0.021v-0.386c0-9.307-1.766-16.156-5.557-20.7
	c-3.797-4.547-9.587-6.702-17.417-6.698c-8.34-0.002-15.385,2.998-20.33,8.188c-4.947,5.188-7.787,12.555-7.787,21.24
	c0.004,8.467,3.256,17.271,8.826,23.33c4.861,5.354,11.354,7.664,21.442,7.656h3.347h0.014l0.013-0.002l1.763-0.125l15.833-8.965
	L303.421,400.064z M274.532,362.771c1.793-2.861,4.273-4.24,7.665-4.326l0.444-0.001c2.629,0.042,4.907,1.255,6.563,3.291
	c1.685,2.071,2.708,5.003,2.707,8.394c0.002,2.107-0.384,3.646-1.063,4.621c-0.687,0.972-1.632,1.44-2.975,1.449l-16.436,0.02
	C271.69,370.041,272.714,365.684,274.532,362.771z"/>
<path fill="#1A171B" d="M317.801,404.155c0,0,9.066,3.847,13.01,3.841c5.152-0.014,8.759-3.738,8.772-8.773
	c-0.007-2.497-0.586-4.385-2.395-6.594c-1.812-2.207-4.884-4.696-9.812-8.197c-5.238-3.691-8.38-6.167-10.246-8.471
	c-1.871-2.301-2.411-4.469-2.405-7.303c-0.004-4.806,2.025-8.779,5.657-11.504c3.626-2.729,8.824-4.224,15.187-4.227
	c5.026,0,9.585,0.602,15.197,2.035l0.289,0.072v13.174h-3.886l-0.081-0.281c-0.998-3.465-2.371-6.02-4.104-7.692
	c-1.733-1.672-3.816-2.491-6.347-2.493c-4.338,0.014-7.577,3.041-7.586,7.229c0.007,1.486,0.328,2.584,1.276,3.84
	c0.95,1.25,2.563,2.638,5.111,4.531l0.006,0.005l7.883,5.997c7.829,5.826,11.062,10.652,11.058,16.548
	c0.004,5.396-2.197,9.928-6.197,13.073c-3.999,3.145-9.767,4.912-16.905,4.914c-4.695-0.002-13.483-2.789-13.483-2.789
	L317.801,404.155L317.801,404.155z"/>
<path fill="#45C0EB" d="M281.315,446.943c7.984,0,20.828-11.271,36.165-11.271c14.566,0,25.5,11.271,35.341,11.271
	c7.961,0,21.727-11.271,35.335-11.271c14.186,0,28.176,11.271,35.336,11.271h0.605v19.465h-0.605
	c-13.119,0-25.704-11.268-35.336-11.268c-8.557,0-21.984,11.268-35.335,11.268c-15.032,0-26.552-11.268-35.341-11.268
	c-10.722,0-22.434,11.268-36.165,11.268V446.943"/>
<path fill="#A3C653" d="M209.442,466.408c14.187,0,28.167-11.268,35.327-11.268h0.604v-19.471h-0.604
	c-13.121,0-25.707,11.273-35.336,11.273L209.442,466.408"/>
<path fill="#FABC34" d="M209.438,455.14c-8.557,0-21.991,11.27-35.341,11.27l0.004-19.465c7.961,0,21.722-11.273,35.33-11.273
	L209.438,455.14"/>
<path fill="#0093D2" d="M245.384,466.408c14.188,0,28.166-11.268,35.325-11.268h0.606v-19.471h-0.606
	c-13.119,0-25.705,11.273-35.335,11.273L245.384,466.408"/>
<polygon fill="#1A171B" points="193.127,488.728 193.127,482.222 195.109,482.222 195.574,481.05 188.789,481.05 188.789,482.222 
	191.251,482.222 191.251,488.728 "/>
<polygon fill="#1A171B" points="247.194,488.728 248.896,483.246 250.595,488.728 252.53,488.728 254.699,481.193 253.146,480.931 
	251.681,486.867 249.774,480.931 248.31,480.931 246.433,486.867 244.981,480.931 243.104,481.193 245.259,488.728 "/>
<polygon fill="#1A171B" points="281.832,488.728 281.832,487.572 278.696,487.572 278.696,485.273 281.276,485.273 281.276,484.113 
	278.696,484.113 278.696,482.222 281.319,482.222 281.319,481.05 276.806,481.05 276.806,488.728 "/>
<path fill="#1A171B" d="M291.58,485.255c0,1.232,0.058,1.656,0.321,2.186c0.438,0.908,1.568,1.449,3.021,1.449
	c1.039,0,1.832-0.25,2.448-0.775c0.774-0.658,0.952-1.201,0.952-2.93v-4.135h-1.544v4.062c0,1.113-0.055,1.42-0.318,1.857
	c-0.266,0.441-0.75,0.676-1.35,0.676c-0.414,0-0.895-0.133-1.142-0.365c-0.396-0.367-0.515-0.854-0.515-2.125v-4.105h-1.875
	L291.58,485.255"/>
<path fill="#1A171B" d="M314.9,487.5c-0.336,0.072-0.471,0.088-0.775,0.088c-1.716,0-2.857-1.115-2.857-2.787
	c0-1.596,1.081-2.711,2.652-2.711c0.571,0,1.127,0.133,1.67,0.396l0.603-1.086c-0.791-0.383-1.555-0.559-2.391-0.559
	c-2.58,0-4.545,1.715-4.545,3.988c0,2.303,1.98,4.016,4.646,4.016c0.75,0,1.568-0.145,2.654-0.469v-3.18H314.9V487.5"/>
<path fill="#1A171B" d="M363.412,487.5c-0.338,0.072-0.47,0.088-0.778,0.088c-1.713,0-2.856-1.115-2.856-2.787
	c0-1.596,1.084-2.711,2.652-2.711c0.571,0,1.127,0.133,1.67,0.396l0.604-1.086c-0.793-0.383-1.554-0.559-2.39-0.559
	c-2.58,0-4.546,1.715-4.546,3.988c0,2.303,1.98,4.016,4.646,4.016c0.748,0,1.569-0.145,2.655-0.469v-3.18h-1.657L363.412,487.5"/>
<path fill="#1A171B" d="M187.458,479.289l-0.194-0.102c-0.598-0.301-1.154-0.422-1.84-0.422c-1.83,0-3.131,1.012-3.131,2.441
	c0,0.881,0.411,1.568,1.419,2.344l0.761,0.584c1.273,0.996,1.596,1.436,1.596,2.107c0,0.807-0.587,1.314-1.479,1.314
	c-0.543,0-1.031-0.148-1.591-0.504l-0.653,1.203c0.737,0.404,1.512,0.59,2.39,0.59c1.99,0,3.381-1.113,3.381-2.721
	c0-0.379-0.073-0.762-0.221-1.098c-0.263-0.57-0.614-0.98-1.492-1.668l-0.688-0.568c-1.271-1.012-1.419-1.186-1.419-1.699
	c-0.013-0.615,0.513-1.039,1.273-1.039c0.385,0,0.702,0.082,1.078,0.275l0.146,0.078L187.458,479.289"/>
<polygon fill="#1A171B" points="216.793,488.728 216.793,482.222 218.775,482.222 219.241,481.05 212.455,481.05 212.455,482.222 
	214.918,482.222 214.918,488.728 "/>
<path fill="#1A171B" d="M206.658,487.572c1.364,0,2.091-0.174,2.555-0.928c0.307-0.496,0.471-1.154,0.471-1.887
	c0-1.115-0.441-1.936-1.202-2.289c-0.427-0.203-0.793-0.248-1.671-0.248h-0.631v6.508h-1.891v-7.68h2.522
	c1.261,0,1.891,0.072,2.551,0.293c0.468,0.145,0.922,0.424,1.304,0.791c0.688,0.674,1.026,1.496,1.026,2.564
	c0,1.715-0.88,3.078-2.316,3.637c-0.744,0.291-1.459,0.393-2.577,0.395L206.658,487.572"/>
<polygon fill="#1A171B" points="226.217,488.734 226.217,487.388 222.98,487.388 222.98,484.123 225.719,484.123 225.719,482.902 
	222.98,482.902 222.98,480.3 226.008,480.3 226.428,478.955 221.113,478.955 221.113,488.734 "/>
<polygon fill="#1A171B" points="240.513,488.728 240.513,482.222 242.494,482.222 242.96,481.05 236.174,481.05 236.174,482.222 
	238.638,482.222 238.638,488.728 "/>
<path fill="#1A171B" d="M265.935,480.888c-1.524,0-2.623,0.836-2.623,1.992c0,0.719,0.232,1.057,1.332,1.98l0.705,0.586
	c0.836,0.703,1.01,0.938,1.01,1.377c0,0.543-0.467,0.924-1.127,0.924c-0.543,0-1.025-0.174-1.625-0.613l-0.631,1.01
	c0.719,0.498,1.582,0.748,2.49,0.748c1.701,0,2.901-0.924,2.901-2.244c0-0.834-0.335-1.316-1.552-2.285l-0.688-0.527
	c-0.691-0.543-0.881-0.791-0.881-1.1c0-0.428,0.395-0.705,0.996-0.705c0.412,0,0.777,0.121,1.275,0.412l0.586-0.955
	C267.328,481.064,266.696,480.888,265.935,480.888"/>
<path fill="#1A171B" d="M272.403,480.888c-1.524,0-2.625,0.836-2.625,1.992c0,0.719,0.234,1.057,1.334,1.98l0.703,0.586
	c0.836,0.703,1.011,0.938,1.011,1.377c0,0.543-0.468,0.924-1.127,0.924c-0.543,0-1.027-0.174-1.627-0.613l-0.63,1.01
	c0.719,0.498,1.584,0.748,2.49,0.748c1.702,0,2.902-0.924,2.902-2.244c0-0.834-0.335-1.316-1.552-2.285l-0.69-0.527
	c-0.688-0.543-0.878-0.791-0.878-1.1c0-0.428,0.396-0.705,0.996-0.705c0.411,0,0.777,0.121,1.274,0.412l0.588-0.955
	C273.795,481.064,273.165,480.888,272.403,480.888"/>
<polygon fill="#1A171B" points="302.01,488.728 302.01,483.816 306.026,488.728 307.287,488.728 307.287,481.05 305.791,481.05 
	305.791,486.033 301.719,481.05 300.397,481.05 300.397,488.728 "/>
<polygon fill="#1A171B" points="333.034,488.728 333.034,482.222 335.017,482.222 335.482,481.05 328.696,481.05 328.696,482.222 
	331.159,482.222 331.159,488.728 "/>
<polygon fill="#1A171B" points="348.718,488.728 346.843,488.728 346.843,482.222 344.38,482.222 344.38,481.05 357.338,481.05 
	356.87,482.222 354.888,482.222 354.888,488.728 353.013,488.728 353.013,482.222 348.718,482.222 "/>
<path fill="#1A171B" d="M327.364,479.289l-0.193-0.102c-0.598-0.301-1.155-0.422-1.841-0.422c-1.829,0-3.131,1.012-3.131,2.441
	c0,0.881,0.409,1.568,1.42,2.344l0.759,0.584c1.273,0.996,1.597,1.436,1.597,2.107c0,0.807-0.586,1.314-1.479,1.314
	c-0.543,0-1.03-0.148-1.593-0.504l-0.652,1.203c0.737,0.404,1.513,0.59,2.39,0.59c1.991,0,3.382-1.113,3.382-2.721
	c0-0.379-0.073-0.762-0.219-1.098c-0.263-0.57-0.615-0.98-1.495-1.668l-0.688-0.568c-1.271-1.012-1.42-1.186-1.42-1.699
	c-0.013-0.615,0.515-1.039,1.272-1.039c0.385,0,0.702,0.082,1.08,0.275l0.146,0.078L327.364,479.289"/>
<polygon fill="#1A171B" points="386.416,488.728 386.416,482.222 388.398,482.222 388.864,481.05 382.078,481.05 382.078,482.222 
	384.539,482.222 384.539,488.728 "/>
<polygon fill="#1A171B" points="229.603,488.728 229.603,483.816 233.621,488.728 234.881,488.728 234.881,481.05 233.385,481.05 
	233.385,486.033 229.312,481.05 227.992,481.05 227.992,488.728 "/>
<path fill="#1A171B" d="M336.545,485.255c0,1.232,0.056,1.656,0.32,2.186c0.438,0.908,1.568,1.449,3.02,1.449
	c1.041,0,1.832-0.25,2.45-0.775c0.773-0.658,0.95-1.201,0.95-2.93v-4.135h-1.541v4.062c0,1.113-0.056,1.42-0.321,1.857
	c-0.263,0.441-0.747,0.676-1.349,0.676c-0.409,0-0.894-0.133-1.144-0.365c-0.396-0.367-0.513-0.854-0.513-2.125v-4.105h-1.874
	L336.545,485.255"/>
<path fill="#1A171B" d="M199.987,481.048h-1.408l-3.384,7.682h1.498l0.84-2.014h2.711l0.423,1.367l0.2,0.645h1.978L199.987,481.048z
	 M199.945,485.687h-2.017l1.105-2.881L199.945,485.687"/>
<path fill="#1A171B" d="M258.174,479.261c0-0.482-0.381-0.877-0.864-0.877c-0.482,0-0.879,0.395-0.879,0.877
	c0,0.471,0.396,0.865,0.879,0.865C257.792,480.126,258.174,479.744,258.174,479.261"/>
<path fill="#1A171B" d="M261.252,479.261c0-0.482-0.381-0.877-0.864-0.877c-0.484,0-0.878,0.395-0.878,0.877
	s0.396,0.865,0.878,0.865C260.871,480.126,261.252,479.744,261.252,479.261"/>
<path fill="#1A171B" d="M288.416,488.83l1.683-0.359l-2.092-3.32c1.062-0.396,1.557-1.109,1.557-2.049
	c0-0.645-0.221-1.145-0.689-1.512c-0.571-0.451-1.012-0.539-2.639-0.539h-2.433v7.68h1.892v-6.578h0.453
	c1.115,0,1.512,0.293,1.512,1.109c0,0.881-0.477,1.398-1.502,1.398h-0.119L288.416,488.83"/>
<path fill="#1A171B" d="M379.94,488.804l1.683-0.359l-2.094-3.32c1.063-0.396,1.556-1.109,1.556-2.049
	c0-0.645-0.218-1.145-0.688-1.51c-0.573-0.455-1.012-0.543-2.639-0.543h-2.436v7.682h1.893v-6.584h0.454
	c1.114,0,1.509,0.295,1.509,1.115c0,0.881-0.474,1.398-1.502,1.398h-0.116L379.94,488.804"/>
<path fill="#1A171B" d="M211.054,404.155c0,0,9.066,3.847,13.009,3.841c5.152-0.014,8.758-3.738,8.773-8.773
	c-0.007-2.497-0.586-4.385-2.394-6.594c-1.812-2.207-4.883-4.696-9.812-8.197c-5.239-3.691-8.381-6.167-10.247-8.471
	c-1.87-2.301-2.411-4.469-2.405-7.303c-0.004-4.806,2.026-8.779,5.657-11.504c3.627-2.729,8.825-4.224,15.186-4.227
	c5.028,0,9.585,0.602,15.2,2.035l0.289,0.072v13.174h-3.886l-0.082-0.281c-0.997-3.465-2.37-6.02-4.103-7.692
	c-1.732-1.672-3.816-2.491-6.346-2.493c-4.338,0.014-7.577,3.041-7.585,7.229c0.006,1.486,0.328,2.584,1.276,3.84
	c0.95,1.25,2.564,2.638,5.111,4.531l0.007,0.005l7.882,5.997c7.829,5.826,11.062,10.652,11.058,16.548
	c0.004,5.396-2.199,9.928-6.199,13.073c-4,3.145-9.765,4.912-16.904,4.914c-4.696-0.002-13.483-2.789-13.483-2.789L211.054,404.155
	L211.054,404.155z"/>
<path fill="#1A171B" d="M259.291,481.119h-1.408l-3.384,7.68h1.498l0.84-2.014h2.711l0.624,2.014h1.978L259.291,481.119z
	 M259.249,485.757h-2.018l1.105-2.881L259.249,485.757"/>
<path fill="#1A171B" d="M371.073,481.048h-1.409l-3.384,7.682h1.495l0.841-2.014h2.711l0.425,1.367l0.2,0.645h1.979L371.073,481.048
	z M371.03,485.687h-2.019l1.105-2.881L371.03,485.687"/>
</svg>
