<?xml version="1.0" encoding="UTF-8" standalone="no"?>
<!-- Created with Inkscape (http://www.inkscape.org/) -->
<svg
   xmlns:dc="http://purl.org/dc/elements/1.1/"
   xmlns:cc="http://creativecommons.org/ns#"
   xmlns:rdf="http://www.w3.org/1999/02/22-rdf-syntax-ns#"
   xmlns:svg="http://www.w3.org/2000/svg"
   xmlns="http://www.w3.org/2000/svg"
   xmlns:sodipodi="http://sodipodi.sourceforge.net/DTD/sodipodi-0.dtd"
   xmlns:inkscape="http://www.inkscape.org/namespaces/inkscape"
   width="190"
   height="200"
   id="svg2"
   sodipodi:version="0.32"
   inkscape:version="0.46"
   version="1.0"
   sodipodi:docname="Wappen Moessingen.svg"
   inkscape:output_extension="org.inkscape.output.svg.inkscape">
  <defs
     id="defs4" />
  <sodipodi:namedview
     id="base"
     pagecolor="#ffffff"
     bordercolor="#666666"
     borderopacity="1.0"
     inkscape:pageopacity="0.0"
     inkscape:pageshadow="2"
     inkscape:zoom="0.98994949"
     inkscape:cx="120.87612"
     inkscape:cy="86.578879"
     inkscape:document-units="px"
     inkscape:current-layer="layer1"
     showgrid="false"
     inkscape:window-width="1920"
     inkscape:window-height="1150"
     inkscape:window-x="1272"
     inkscape:window-y="-8" />
  <metadata
     id="metadata7">
    <rdf:RDF>
      <cc:Work
         rdf:about="">
        <dc:format>image/svg+xml</dc:format>
        <dc:type
           rdf:resource="http://purl.org/dc/dcmitype/StillImage" />
      </cc:Work>
    </rdf:RDF>
  </metadata>
  <g
     inkscape:label="Ebene 1"
     inkscape:groupmode="layer"
     id="layer1">
    <path
       sodipodi:nodetypes="ccccsc"
       id="path2391"
       d="M 3.9187284,3.9778826 L 186.08127,3.9778826 C 183.38184,37.355598 180.47719,68.831441 178.08668,96.710429 C 171.55124,173.33862 126.38322,196.4206 95.1022,196.01693 C 59.455527,196.35544 17.212326,169.40745 11.337928,96.751761 C 9.1028946,69.108422 5.4695026,26.189544 3.9187284,3.9778826 z"
       style="fill:#000000;fill-opacity:1;fill-rule:evenodd;stroke:#000000;stroke-width:3;stroke-linecap:butt;stroke-linejoin:miter;stroke-miterlimit:4;stroke-dasharray:none;stroke-opacity:1" />
    <g
       id="g1372"
       transform="matrix(0.2227002,0,0,0.2227002,-117.9095,-5.5468582)">
      <g
         style="fill-rule:evenodd"
         id="g2190"
         transform="matrix(3.248992,0,0,3.19535,-708.5078,-52.19496)">
        <g
           id="Layer_x0020_1"
           transform="translate(-57.86415,0)">
          <metadata
             id="CorelCorpID_0Corel-Layer" />
        </g>
      </g>
    </g>
    <path
       style="fill:#ffffff;fill-opacity:1;fill-rule:evenodd;stroke:none;stroke-width:1px;stroke-linecap:butt;stroke-linejoin:miter;stroke-opacity:1"
       d="M 17.856027,16.534737 L 46.540587,16.527067 C 46.540587,24.964309 47.882456,34.669163 32.300567,50.251052 C 15.956112,33.906597 17.856027,24.445264 17.856027,16.534737 z"
       id="path2469"
       sodipodi:nodetypes="cccc" />
    <path
       style="fill:#ffffff;fill-opacity:1;fill-rule:evenodd;stroke:none;stroke-width:1px;stroke-linecap:butt;stroke-linejoin:miter;stroke-opacity:1"
       d="M 36.174369,161.19612 C 66.142069,147.52773 69.72764,116.40924 89.1328,100.46504 C 108.53797,84.520835 127.8164,84.42484 144.52059,72.217274 C 161.22477,60.009707 166.56918,45.48777 179.64052,35.24173 L 181.82136,9.1925961 L 167.70591,8.4526074 C 155.54127,14.504987 137.22051,42.734093 123.99144,51.409186 C 110.76237,60.084279 91.80918,63.558521 76.15828,74.157726 C 60.39365,84.833957 49.13517,107.66101 41.14625,118.91084 C 33.10657,130.23216 31.460877,131.14279 22.429627,135.53803 C 27.121404,145.94008 31.2244,153.67623 36.174369,161.19612 z"
       id="path2471"
       sodipodi:nodetypes="czzccczzzcc" />
    <path
       style="fill:#ffffff;fill-opacity:1;fill-rule:evenodd;stroke:none;stroke-width:1px;stroke-linecap:butt;stroke-linejoin:miter;stroke-opacity:1"
       d="M 122.29243,108.99062 C 123.05108,101.59252 120.0199,101.37443 118.64451,101.53062 C 115.78905,101.85487 114.53557,103.48967 114.79821,112.29802 C 108.8253,98.757062 82.254992,103.08046 84.669786,129.43773 L 97.881496,129.27571 C 99.26097,112.47354 110.43136,106.84434 115.99644,120.14238 L 120.15012,120.17027 C 127.8315,105.465 139.98207,119.02292 136.91759,128.79873 L 149.60922,128.63166 C 151.31666,104.00576 125.84283,98.038377 118.98603,115.15997 C 119.39894,111.99353 121.93748,108.34777 119.82135,105.64701 C 118.29438,104.92176 117.29328,106.54661 116.48347,106.97185 C 117.40992,102.83726 121.52037,104.0296 122.29243,108.99062 z M 120.61002,121.90337 L 115.78122,121.90691 L 114.67683,128.85052 L 121.58282,128.78235 L 120.61002,121.90337 z M 151.3536,130.82854 L 81.865836,131.04007 C 82.31194,141.57573 87.644801,145.73062 93.51132,149.13778 L 139.83832,149.16761 C 149.78567,143.75741 149.75682,137.4507 151.3536,130.82854 z M 93.146575,150.83649 L 94.041494,153.41197 L 138.80513,153.44725 L 139.95559,151.06563 L 93.146575,150.83649 z M 137.61244,155.43515 L 95.359446,155.25524 L 91.548626,159.58474 L 141.3335,159.80736 L 137.61244,155.43515 z M 144.96067,161.61105 L 87.612975,161.54733 L 87.621834,163.48983 L 145.067,163.43794 L 144.96067,161.61105 z"
       id="path3249"
       sodipodi:nodetypes="cscccccccccccccccccccccccccccccccccccc" />
    <path
       style="fill:none;fill-rule:evenodd;stroke:#000000;stroke-width:0.95458078px;stroke-linecap:butt;stroke-linejoin:miter;stroke-opacity:1"
       d="M 87.304628,126.55677 C 87.471641,119.99834 89.645861,114.23593 93.417925,110.86698"
       id="path2389"
       sodipodi:nodetypes="cc" />
    <path
       style="fill:none;fill-rule:evenodd;stroke:#000000;stroke-width:0.95458078px;stroke-linecap:butt;stroke-linejoin:miter;stroke-opacity:1"
       d="M 90.009362,126.4204 C 90.607178,121.86617 91.479868,117.70224 94.160511,114.11453"
       id="path2419"
       sodipodi:nodetypes="cc" />
    <path
       style="fill:none;fill-rule:evenodd;stroke:#000000;stroke-width:0.95458078px;stroke-linecap:butt;stroke-linejoin:miter;stroke-opacity:1"
       d="M 92.810805,126.17026 C 93.083405,122.58032 94.013497,118.31924 96.386498,115.0482"
       id="path2393"
       sodipodi:nodetypes="cc" />
    <path
       style="fill:none;fill-rule:evenodd;stroke:#000000;stroke-width:0.95458078px;stroke-linecap:butt;stroke-linejoin:miter;stroke-opacity:1"
       d="M 95.422525,126.33782 C 95.791995,121.81865 97.030955,117.8389 99.437052,114.71874"
       id="path2395"
       sodipodi:nodetypes="cc" />
    <path
       style="fill:none;fill-rule:evenodd;stroke:#000000;stroke-width:0.95458078px;stroke-linecap:butt;stroke-linejoin:miter;stroke-opacity:1"
       d="M 138.05787,119.93474 C 138.73485,122.09509 139.42015,123.61679 139.30338,126.38862"
       id="path2397"
       sodipodi:nodetypes="cc" />
    <path
       style="fill:none;fill-rule:evenodd;stroke:#000000;stroke-width:0.95458078px;stroke-linecap:butt;stroke-linejoin:miter;stroke-opacity:1"
       d="M 138.52069,115.94141 C 140.44016,118.77179 141.61064,122.56791 141.64307,126.26655"
       id="path2399"
       sodipodi:nodetypes="cc" />
    <path
       style="fill:none;fill-rule:evenodd;stroke:#000000;stroke-width:0.95458078px;stroke-linecap:butt;stroke-linejoin:miter;stroke-opacity:1"
       d="M 140.10787,113.5088 C 143.27547,118.4087 144.50756,122.0049 144.50787,126.26845"
       id="path2401"
       sodipodi:nodetypes="cc" />
    <path
       style="fill:none;fill-rule:evenodd;stroke:#000000;stroke-width:0.95458078px;stroke-linecap:butt;stroke-linejoin:miter;stroke-opacity:1"
       d="M 141.2743,110.73944 C 143.9281,113.42019 147.0527,117.41614 147.04591,126.28205"
       id="path2403"
       sodipodi:nodetypes="cc" />
    <path
       style="fill:none;fill-opacity:1;fill-rule:evenodd;stroke:#ffffff;stroke-width:2.8;stroke-linecap:butt;stroke-linejoin:miter;stroke-miterlimit:4;stroke-dasharray:none;stroke-opacity:1"
       d="M 7.7668842,8.0347876 L 182.23311,8.0347876 C 179.64773,40.002305 176.8658,70.148303 174.57629,96.849412 C 168.31697,170.24009 125.05729,192.34686 95.097882,191.96024 C 60.95727,192.28445 20.498831,166.47501 14.872625,96.888998 C 12.732021,70.413582 9.2521387,29.308013 7.7668842,8.0347876 z"
       id="path2402"
       sodipodi:nodetypes="ccccsc" />
    <path
       style="fill:#ffffff;fill-opacity:1;fill-rule:evenodd;stroke:none;stroke-width:1px;stroke-linecap:butt;stroke-linejoin:miter;stroke-opacity:1"
       d="M 49.518824,16.523874 L 78.203384,16.516204 C 78.203384,24.953446 79.545253,34.6583 63.963364,50.240189 C 47.618909,33.895734 49.518824,24.434401 49.518824,16.523874 z"
       id="path3174"
       sodipodi:nodetypes="cccc" />
    <path
       style="fill:#ffffff;fill-opacity:1;fill-rule:evenodd;stroke:none;stroke-width:1px;stroke-linecap:butt;stroke-linejoin:miter;stroke-opacity:1"
       d="M 34.191784,53.319492 L 62.876344,53.311822 C 62.876344,61.749064 64.218213,71.453918 48.636324,87.035807 C 32.291869,70.691352 34.191784,61.230019 34.191784,53.319492 z"
       id="path3176"
       sodipodi:nodetypes="cccc" />
  </g>
</svg>
