<?xml version="1.0" encoding="UTF-8" standalone="no"?>
<!-- Created with Inkscape (http://www.inkscape.org/) -->
<svg
   xmlns:svg="http://www.w3.org/2000/svg"
   xmlns="http://www.w3.org/2000/svg"
   xmlns:xlink="http://www.w3.org/1999/xlink"
   version="1.0"
   width="143.22694"
   height="203.06375"
   id="svg2">
  <defs
     id="defs5" />
  <g
     id="g4140">
    <g
       id="g4015">
      <path
         d="M 113.94029,36.58872 C 113.94029,39.522236 95.331246,41.900316 72.375829,41.900316 C 49.420404,41.900316 30.811358,39.522236 30.811358,36.58872 C 30.811358,33.655208 49.420404,31.277125 72.375829,31.277125 C 95.331246,31.277125 113.94029,33.655208 113.94029,36.58872 L 113.94029,36.58872 z"
         id="path2444"
         style="fill:#f70000;fill-opacity:1;fill-rule:evenodd;stroke:#000000;stroke-width:0.66935289px;stroke-linecap:butt;stroke-linejoin:miter;marker:none;marker-start:none;marker-mid:none;marker-end:none;stroke-miterlimit:4;stroke-dasharray:none;stroke-dashoffset:0;stroke-opacity:1;visibility:visible;overflow:visible;enable-background:accumulate" />
      <path
         d="M 25.089231,12.039576 L 27.539019,22.968696 C 27.539019,22.968696 26.377291,23.146986 26.178952,23.757665 C 25.971985,24.394904 26.493804,26.189144 27.006818,26.54939 C 27.568585,26.943873 28.544285,26.670768 28.544285,26.670768 L 30.73222,35.592153 C 57.045952,29.629459 87.491919,29.698058 114.18896,35.322711 L 116.65297,26.731457 C 118.46305,27.238041 118.84449,25.192636 118.76864,24.337634 C 118.69322,23.487569 117.46771,23.116479 117.46771,23.116479 L 120.21172,12.730082 C 121.09532,12.980374 121.78267,13.50646 122.68011,13.279545 C 123.58642,13.050384 124.4595,11.047614 123.94848,10.38283 C 123.41699,9.6914151 110.26781,6.300585 109.33939,6.5866722 C 108.41097,6.8727584 108.45733,9.3209406 108.71558,9.6502113 C 108.97383,9.979481 110.70189,10.175337 111.73515,10.496361 L 110.78475,14.310262 C 108.78978,13.938046 102.5335,12.794732 98.160532,12.248452 L 98.630841,8.3047329 C 99.364178,8.3526628 100.89781,8.9015878 101.4926,8.1981146 C 102.06272,7.5238251 102.35235,5.926939 101.86715,5.3672742 C 101.31945,4.7355182 87.549942,3.2920406 86.854932,3.8227896 C 86.198981,4.3237089 86.380849,6.6583567 86.797075,7.0213063 C 87.214308,7.3851413 89.067161,7.3646891 89.910629,7.447271 L 89.475909,11.473519 C 85.09879,11.096033 79.383056,10.79952 77.453286,10.837113 L 77.532187,7.048067 C 78.483676,7.0515241 79.671565,7.355416 80.226827,6.8459819 C 80.782098,6.3365479 81.046553,4.2813242 80.356997,3.8131983 C 79.667441,3.3450725 66.005982,3.2729417 65.445393,3.7356524 C 64.884805,4.1983631 65.139748,6.2425614 65.584878,6.7659097 C 66.030008,7.2892589 67.601046,6.9296029 68.73451,7.016094 L 68.697885,10.973685 C 66.983344,11.027426 58.908874,11.507441 55.387981,11.68599 L 55.046488,7.8459245 C 56.15306,7.7138989 57.525023,7.7737406 57.824286,7.2903452 C 58.175989,6.7222435 58.38076,4.700356 57.733297,4.3362718 C 57.10988,3.9857107 43.248898,5.3482788 42.694317,5.8869447 C 42.201354,6.3657561 42.81281,8.6362719 43.362396,8.9306828 C 43.894805,9.2158934 45.481027,8.7674071 46.324587,8.685818 L 46.609436,12.552654 C 42.541145,13.013839 36.239482,13.94208 34.592841,14.308985 L 33.647232,10.14721 C 34.705023,9.8829771 35.814095,10.043262 36.156089,9.4737405 C 36.623109,8.6960141 36.655294,6.9442627 35.908362,6.4849924 C 35.206025,6.0531436 21.714809,8.9835255 21.119088,9.5707015 C 20.555069,10.126627 21.639901,12.36624 22.164248,12.67712 C 22.688595,12.988001 24.590199,12.224095 25.089231,12.039576 z"
         id="path2814"
         style="fill:#ffffff;fill-opacity:1;fill-rule:evenodd;stroke:#000000;stroke-width:0.67095238px;stroke-linecap:butt;stroke-linejoin:miter;stroke-opacity:1" />
      <path
         d="M 30.581265,35.622955 C 61.566163,29.82772 85.273171,28.730266 114.22061,35.329923"
         id="path2868"
         style="fill:none;fill-opacity:0.75;fill-rule:evenodd;stroke:#000000;stroke-width:0.67095238px;stroke-linecap:butt;stroke-linejoin:miter;stroke-opacity:1;display:inline" />
      <path
         d="M 29.661366,30.986726 C 60.64626,25.191488 86.318506,24.566089 115.26595,31.165746"
         id="path1893"
         style="fill:none;fill-opacity:0.75;fill-rule:evenodd;stroke:#000000;stroke-width:0.67095238px;stroke-linecap:butt;stroke-linejoin:miter;stroke-opacity:1;display:inline" />
      <path
         d="M 28.741468,26.607978 C 59.559108,20.469431 88.074677,19.672373 116.68761,26.786998"
         id="path1889"
         style="fill:none;fill-opacity:0.75;fill-rule:evenodd;stroke:#000000;stroke-width:0.67095238px;stroke-linecap:butt;stroke-linejoin:miter;stroke-opacity:1;display:inline" />
      <path
         d="M 27.243353,23.001686 C 58.060994,16.863137 88.648686,15.955114 117.26162,23.06974"
         id="path1887"
         style="fill:none;fill-opacity:0.75;fill-rule:evenodd;stroke:#000000;stroke-width:0.67095238px;stroke-linecap:butt;stroke-linejoin:miter;stroke-opacity:1" />
      <path
         d="M 26.183183,18.31222 C 57.848185,12.184313 92.765789,11.581314 118.44006,18.865673"
         id="path2870"
         style="fill:none;fill-opacity:0.75;fill-rule:evenodd;stroke:#000000;stroke-width:0.6795243px;stroke-linecap:butt;stroke-linejoin:miter;stroke-opacity:1;display:inline" />
      <path
         d="M 55.321794,11.69114 C 59.127703,11.393968 64.927373,11.121475 68.697816,10.999546 M 77.361893,10.835674 C 80.760955,10.886606 86.211766,11.264632 89.515311,11.476043 M 98.151011,12.247255 C 101.75028,12.699602 107.22232,13.597687 110.60928,14.2749 M 34.549983,14.315659 C 37.692657,13.826235 43.439927,12.930079 46.609436,12.552654"
         id="path3599"
         style="fill:none;fill-opacity:0.75;fill-rule:evenodd;stroke:#000000;stroke-width:0.6795243px;stroke-linecap:butt;stroke-linejoin:miter;stroke-opacity:1;display:inline" />
      <path
         d="M 100.42977,28.332727 L 99.720163,32.597519"
         id="path1901"
         style="fill:none;fill-opacity:0.75;fill-rule:evenodd;stroke:#000000;stroke-width:0.67095238px;stroke-linecap:butt;stroke-linejoin:miter;stroke-opacity:1" />
      <path
         d="M 80.63842,26.521688 L 80.332618,30.882721"
         id="path1903"
         style="fill:none;fill-opacity:0.75;fill-rule:evenodd;stroke:#000000;stroke-width:0.67095238px;stroke-linecap:butt;stroke-linejoin:miter;stroke-opacity:1" />
      <path
         d="M 62.712744,26.703759 L 63.102177,31.129795"
         id="path1907"
         style="fill:none;fill-opacity:0.75;fill-rule:evenodd;stroke:#000000;stroke-width:0.67095238px;stroke-linecap:butt;stroke-linejoin:miter;stroke-opacity:1" />
      <path
         d="M 44.306487,28.590396 L 44.956955,33.32419"
         id="path1909"
         style="fill:none;fill-opacity:0.75;fill-rule:evenodd;stroke:#000000;stroke-width:0.67095238px;stroke-linecap:butt;stroke-linejoin:miter;stroke-opacity:1" />
      <path
         d="M 111.46439,25.712609 L 110.52247,30.142955"
         id="path1923"
         style="fill:none;fill-opacity:0.75;fill-rule:evenodd;stroke:#000000;stroke-width:0.67095238px;stroke-linecap:butt;stroke-linejoin:miter;stroke-opacity:1" />
      <path
         d="M 92.000058,22.553726 L 91.467856,27.166143"
         id="path1921"
         style="fill:none;fill-opacity:0.75;fill-rule:evenodd;stroke:#000000;stroke-width:0.67095238px;stroke-linecap:butt;stroke-linejoin:miter;stroke-opacity:1" />
      <path
         d="M 72.647615,26.496552 L 72.598624,21.727204"
         id="path1919"
         style="fill:none;fill-opacity:0.75;fill-rule:evenodd;stroke:#000000;stroke-width:0.67095238px;stroke-linecap:butt;stroke-linejoin:miter;stroke-opacity:1" />
      <path
         d="M 52.349188,22.94891 L 52.999651,27.439945"
         id="path3585"
         style="fill:none;fill-opacity:0.75;fill-rule:evenodd;stroke:#000000;stroke-width:0.67095238px;stroke-linecap:butt;stroke-linejoin:miter;stroke-opacity:1" />
      <path
         d="M 34.104003,25.733735 L 34.931869,30.042703"
         id="path1915"
         style="fill:none;fill-opacity:0.75;fill-rule:evenodd;stroke:#000000;stroke-width:0.67095238px;stroke-linecap:butt;stroke-linejoin:miter;stroke-opacity:1" />
      <path
         d="M 113.81829,18.022972 L 112.75388,22.392627"
         id="path1925"
         style="fill:none;fill-opacity:0.75;fill-rule:evenodd;stroke:#000000;stroke-width:0.67095238px;stroke-linecap:butt;stroke-linejoin:miter;stroke-opacity:1" />
      <path
         d="M 93.195318,14.377426 L 92.663115,18.989843"
         id="path3595"
         style="fill:none;fill-opacity:0.75;fill-rule:evenodd;stroke:#000000;stroke-width:0.67095238px;stroke-linecap:butt;stroke-linejoin:miter;stroke-opacity:1" />
      <path
         d="M 72.719371,18.337263 L 72.67038,13.567915"
         id="path3597"
         style="fill:none;fill-opacity:0.75;fill-rule:evenodd;stroke:#000000;stroke-width:0.67095238px;stroke-linecap:butt;stroke-linejoin:miter;stroke-opacity:1" />
      <path
         d="M 51.129621,14.772239 L 51.780084,19.263274"
         id="path1917"
         style="fill:none;fill-opacity:0.75;fill-rule:evenodd;stroke:#000000;stroke-width:0.67095238px;stroke-linecap:butt;stroke-linejoin:miter;stroke-opacity:1" />
      <path
         d="M 31.83039,17.414681 L 32.717391,21.966407"
         id="path1911"
         style="fill:none;fill-opacity:0.75;fill-rule:evenodd;stroke:#000000;stroke-width:0.67095238px;stroke-linecap:butt;stroke-linejoin:miter;stroke-opacity:1" />
      <g
         transform="matrix(0.3841783,0,0,0.3411723,2.8922618,-15.060397)"
         id="g3579">
        <path
           d="M 198.81031,64.819983 C 200.5382,64.430259 201.26443,64.646852 201.8596,63.541604 C 202.38635,62.563426 203.2396,56.289513 201.72318,55.360128 C 200.12653,54.381583 164.34913,53.976067 162.89154,55.039749 C 161.41226,56.119238 161.53823,59.982797 162.3871,62.403521 C 163.23595,64.824246 163.99807,64.531655 165.61475,64.684134 L 198.81031,64.819983 z"
           id="path2807"
           style="opacity:1;fill:none;fill-opacity:0.75;fill-rule:evenodd;stroke:#000000;stroke-width:2.44249344px;stroke-linecap:butt;stroke-linejoin:miter;marker:none;marker-start:none;marker-mid:none;marker-end:none;stroke-miterlimit:4;stroke-dasharray:none;stroke-dashoffset:0;stroke-opacity:1;visibility:visible;display:inline;overflow:visible;enable-background:accumulate" />
        <path
           d="M 171.28677,64.707346 L 171.29096,84.278548"
           id="path2842"
           style="fill:none;fill-opacity:0.75;fill-rule:evenodd;stroke:#000000;stroke-width:1.72392178px;stroke-linecap:butt;stroke-linejoin:miter;stroke-opacity:1" />
        <path
           d="M 194.0928,64.800676 L 193.62188,83.967326"
           id="path2844"
           style="fill:none;fill-opacity:0.75;fill-rule:evenodd;stroke:#000000;stroke-width:1.72392178px;stroke-linecap:butt;stroke-linejoin:miter;stroke-opacity:1" />
        <path
           d="M 171.28727,67.030474 C 179.34489,66.291415 185.8495,66.153981 193.621,66.913981"
           id="path2879"
           style="opacity:1;fill:none;fill-opacity:0.75;fill-rule:evenodd;stroke:#000000;stroke-width:3.44784355;stroke-linecap:butt;stroke-linejoin:miter;marker:none;marker-start:none;marker-mid:none;marker-end:none;stroke-miterlimit:4;stroke-dasharray:none;stroke-dashoffset:0;stroke-opacity:1;visibility:visible;display:inline;overflow:visible;enable-background:accumulate" />
      </g>
      <use
         transform="matrix(0.9956162,9.4247784e-2,-9.2824525e-2,0.9956162,22.166104,-6.0124631)"
         id="use3587"
         x="0"
         y="0"
         width="221"
         height="241"
         xlink:href="#g3579" />
      <use
         transform="matrix(0.9683696,0.2514256,-0.2476287,0.9683696,46.948487,-13.569844)"
         id="use3589"
         x="0"
         y="0"
         width="221"
         height="241"
         xlink:href="#g3579" />
      <use
         transform="matrix(0.9951149,-9.9477408e-2,9.7975145e-2,0.9951149,-22.724138,8.5379266)"
         id="use3591"
         x="0"
         y="0"
         width="221"
         height="241"
         xlink:href="#g3579" />
      <use
         transform="matrix(0.9759784,-0.2195315,0.2162162,0.9759784,-43.474451,20.273292)"
         id="use3593"
         x="0"
         y="0"
         width="221"
         height="241"
         xlink:href="#g3579" />
    </g>
    <path
       d="M 139.23122,37.772006 C 139.23122,71.255456 139.3756,142.31341 70.347437,202.2891 C 1.5999954,142.75092 0.96055911,71.094345 0.76878151,37.611526 L 0.86610231,37.311181 L 139.18725,37.311181 L 139.23122,37.772006 z"
       id="path3617"
       style="fill:#ffffff;fill-opacity:1;fill-rule:nonzero;stroke:#000000;stroke-width:1.5434202;stroke-linecap:butt;stroke-linejoin:miter;marker:none;marker-start:none;marker-mid:none;marker-end:none;stroke-miterlimit:4;stroke-dasharray:none;stroke-dashoffset:0;stroke-opacity:1;visibility:visible;overflow:visible;enable-background:accumulate" />
    <g
       id="g4115">
      <path
         d="M 74.381347,41.180055 C 79.515722,39.142808 83.179327,39.916348 86.050097,44.878826 C 92.511182,44.099851 95.341054,46.333727 96.988579,52.46666 C 104.63535,55.617862 105.02975,59.96321 103.09067,65.90469 C 106.91721,70.893931 108.67057,77.64018 101.83763,79.575671 C 104.15384,92.68878 95.832301,93.353011 85.651895,90.976875 C 84.098012,92.154562 82.159044,93.884354 79.988407,94.616761 C 79.422911,99.490358 79.145153,106.77441 81.206002,112.23622 C 84.780589,115.62759 88.409025,116.40275 88.458739,122.39665 C 91.602614,123.17478 92.171022,120.80955 93.784101,113.50305 C 95.974034,103.58361 111.89342,110.16282 105.8564,118.76838 C 106.45573,112.43249 98.548103,114.03611 98.723676,120.39719 C 102.92717,122.01626 103.8963,125.62453 100.68273,129.3116 C 101.07357,126.76019 98.64669,126.27249 96.821745,125.94453 C 94.290352,128.56865 92.711055,129.20499 88.67299,127.85708 C 86.778664,138.15622 77.433399,142.24472 81.9757,151.20486 C 82.279136,151.80341 81.912047,152.76313 82.164528,153.48312 C 79.726924,155.28664 81.780744,155.23343 79.458305,157.50112 C 78.451541,163.23986 79.944254,169.48289 79.9579,175.09918 C 77.312554,174.70092 75.377291,175.89635 74.128877,178.10684 C 75.642772,179.5151 76.159668,181.52614 76.141301,183.86079 C 74.313667,186.74166 71.429115,188.77281 67.472621,189.0028 C 66.451683,187.42673 67.011832,185.58513 67.809486,183.70365 C 64.873754,186.2865 63.383904,186.8966 62.490937,186.7999 C 61.735931,185.23254 62.215835,184.31204 62.2104,182.52957 C 61.617999,183.43264 60.638465,183.11479 59.692922,183.12464 C 57.988245,178.50173 61.213867,179.21491 61.554267,173.86895 C 63.133682,172.22996 64.422866,170.93137 66.002291,169.29238 C 70.642086,145.17761 65.041233,148.37299 63.998234,141.65036 C 63.044409,135.10075 63.559634,128.43207 64.041311,121.88245 C 57.644947,114.18412 51.819512,105.4367 51.91996,95.490606 C 47.417676,90.514438 44.723289,87.272642 40.100933,82.41027 C 38.725081,82.374242 37.349229,82.338215 35.973378,82.302187 C 34.342594,83.862181 32.711811,85.422176 31.081027,86.982175 C 31.21474,89.089207 30.395373,90.87582 29.320357,92.599388 C 28.338054,92.333091 27.602108,91.414728 26.861097,90.702856 C 23.787864,91.501165 22.608056,94.891007 20.969624,97.42424 C 17.748998,99.027025 14.666809,97.856715 11.523231,96.464963 C 13.699538,94.698738 16.035096,94.100823 15.619751,90.782015 C 14.511892,94.493989 12.12839,94.055861 9.4076499,93.371803 C 9.4232347,92.767516 9.4388195,92.163219 9.4544043,91.558932 C 10.755609,91.142196 11.486445,90.299151 11.972368,89.238651 C 10.853857,88.923383 9.7353486,88.608106 8.6168408,88.292828 C 10.651276,86.846017 12.566966,85.243764 14.441984,83.596052 C 21.835001,84.581277 29.330524,74.2615 35.524864,68.045521 C 37.186804,67.517877 38.567234,67.463918 40.26921,67.706191 C 45.666861,69.928682 50.591756,77.501503 57.275159,80.38309 C 59.994932,79.003766 62.087229,77.401871 67.567885,77.503193 C 69.540761,73.690782 73.751681,72.075177 75.737577,68.440232 C 76.889789,64.343971 74.248783,62.973338 73.853748,58.630911 C 72.307196,59.792371 73.141974,60.971325 71.595422,62.132785 C 71.172373,67.38281 76.81205,67.127091 68.173476,71.732575 C 67.731298,70.153089 67.289111,68.573603 66.846933,66.994117 C 68.098622,71.423067 66.682923,75.823175 59.072033,74.827558 C 59.338068,73.212393 65.043169,73.461087 64.760758,68.177938 C 64.524553,68.640658 63.636883,68.857211 63.400677,69.319932 C 63.095326,71.159758 62.337317,71.393991 60.804452,71.739263 C 60.036386,69.05551 58.396388,70.630169 57.71667,68.45163 C 58.757384,65.214797 59.050014,62.031987 59.168306,58.704725 C 57.58422,57.273256 56.456654,54.763383 55.780804,51.768202 C 45.753123,55.126048 34.630273,60.036336 30.115264,60.107718 C 26.361776,60.164486 20.057883,62.100427 17.859382,62.896532 C 15.028897,63.921486 12.496821,63.392063 18.234343,61.418787 C 26.436542,58.597848 23.302417,56.867332 29.385811,56.398666 C 31.037034,51.409592 33.936502,51.906456 39.148821,53.426365 C 40.309124,48.506994 42.682654,48.689398 47.864191,49.847516 C 49.480447,46.594947 51.336743,44.990572 54.989202,44.408206 C 56.293617,43.758861 56.661123,41.367682 56.06944,40.360103 C 57.350593,40.170267 60.218984,40.778334 60.573563,41.988973 C 60.41031,41.186846 59.394895,41.077121 59.343205,39.568422 C 61.267419,39.422012 62.750455,40.555033 64.231624,41.642438 C 67.060304,38.519479 69.734916,38.148767 72.498428,39.781267 M 73.885692,41.686292 C 72.231852,40.851146 69.953673,41.006833 69.701134,42.656736 C 70.642076,42.744209 71.839007,43.06785 72.795539,43.266083 C 73.12611,42.691848 73.466641,42.065354 73.885692,41.686292 z M 93.739636,81.647549 C 91.949459,85.051475 90.071065,86.524525 87.934365,88.616616 C 94.070705,89.461493 96.888936,87.364635 93.739636,81.647549 z M 100.33153,76.537185 C 103.31269,73.493668 99.908027,70.703412 96.197767,69.599209 C 96.330107,70.920451 96.257989,72.138684 95.956049,73.241128 C 97.83543,73.806286 99.325426,74.879878 100.33153,76.537185 z M 100.39856,63.922033 C 100.23579,59.978393 97.465203,58.358868 94.253883,59.083487 C 94.747202,60.484256 95.143703,62.264347 95.422096,63.232014 C 97.281781,62.67999 98.681498,63.08293 100.39856,63.922033 z M 94.265486,51.84786 C 92.387444,50.006514 90.342235,48.962153 88.573093,51.078867 C 89.256002,51.761304 89.629747,52.287975 89.880234,52.752546 C 90.775489,52.364853 91.76592,51.542461 94.265486,51.84786 z M 84.604674,45.649278 C 83.351235,43.450342 81.658609,43.811774 80.089174,45.313095 C 81.202678,45.627083 82.316182,45.889409 83.429686,46.838678 C 83.740375,46.496798 83.466889,46.19951 84.604674,45.649278 z"
         id="path2694"
         style="fill:#000000;fill-opacity:1;stroke:none;stroke-width:1;stroke-miterlimit:4;stroke-dasharray:none;stroke-opacity:1" />
      <g
         id="g4092">
        <path
           d="M 57.264068,42.885943 C 58.869515,42.96024 59.629088,45.378425 58.584342,45.358833 C 57.40096,45.335654 58.748033,43.514663 57.264068,42.885943 z"
           id="path3557"
           style="fill:#f4f4f4" />
        <path
           d="M 67.511983,183.28817 C 67.028625,183.32557 68.211451,177.13173 65.56027,177.91061 C 68.341415,176.61616 67.880577,183.25966 67.511983,183.28817 z"
           id="path3555"
           style="fill:#f4f4f4" />
        <path
           d="M 62.798478,181.14295 C 62.656246,179.63031 64.124464,177.29116 64.523282,175.38911 C 66.402467,173.99214 68.502903,171.58465 70.249651,169.81847 C 71.248606,163.52886 72.757135,157.20875 71.295329,152.3936 C 70.396213,149.43191 69.521006,145.84746 67.558081,142.5868 C 67.223718,129.83097 69.561131,128.47197 67.8909,127.29244 C 68.264811,129.37739 68.104359,131.10338 68.478281,142.61091 C 71.072935,146.61678 71.12175,147.46233 72.464607,152.82259 C 73.843299,158.32587 72.537175,163.24795 70.963087,170.29306 C 70.31608,171.16007 67.379233,173.94118 65.096675,175.93712 C 64.819895,177.89819 63.32074,179.59135 62.798478,181.14295 z"
           id="path3553"
           style="fill:#f4f4f4" />
        <path
           d="M 91.908347,123.63091 C 97.630552,119.91903 94.825322,113.39714 98.198667,111.45569 C 94.324965,112.87544 96.697499,118.92514 91.908347,123.63091 z"
           id="path3551"
           style="fill:#f4f4f4" />
        <path
           d="M 84.826061,124.38757 C 84.46036,117.37526 77.778963,115.53233 78.062264,111.94757 C 79.148154,115.65234 85.914268,117.07477 84.826061,124.38757 z"
           id="path3549"
           style="fill:#f4f4f4" />
        <path
           d="M 67.691261,119.48589 C 63.993161,115.09581 60.242748,107.7808 58.531423,102.23225 C 60.793577,107.4276 65.134826,114.76673 67.691261,119.48589 z"
           id="path3547"
           style="fill:#f4f4f4" />
        <path
           d="M 75.971798,106.65404 C 75.729297,103.72471 75.211639,100.71114 75.418179,97.119531 C 75.643407,100.33071 76.357928,103.43769 75.971798,106.65404 z"
           id="path3545"
           style="fill:#f4f4f4" />
        <path
           d="M 56.084634,98.056293 C 57.751091,100.51637 61.893598,98.508732 67.014999,96.094952 C 65.109431,97.926015 56.656073,102.33322 56.084634,98.056293 z"
           id="path3543"
           style="fill:#f4f4f4" />
        <path
           d="M 57.492711,84.505506 C 50.92007,81.163656 45.590738,75.107666 40.445339,71.897599 C 38.607754,71.253396 37.349084,71.439666 36.17426,72.154517 C 34.516588,74.109714 24.174795,87.392036 16.50293,86.652487 C 15.665323,86.571743 14.975923,87.603314 12.764018,88.713277 C 14.120937,87.500842 15.477943,86.141612 16.205038,86.154701 C 24.734962,86.308371 33.565485,73.387427 35.578475,71.158956 C 36.916947,70.351962 39.127644,69.846284 40.61124,70.831987 C 45.338228,73.48578 50.963535,80.348379 57.36825,83.756494 C 59.306732,82.289023 60.822534,81.434601 62.802134,81.068368 C 60.27265,82.304619 58.098478,84.208741 57.492711,84.505506 z"
           id="path3537"
           style="fill:#f4f4f4" />
        <path
           d="M 70.869201,77.124779 C 72.82589,73.76375 80.257729,70.296578 78.077287,63.606563 C 82.007341,69.309081 74.272242,73.970126 70.869201,77.124779 z"
           id="path3535"
           style="fill:#f4f4f4" />
        <path
           d="M 60.411732,69.258657 C 60.618728,68.339538 60.276377,67.695276 59.998523,67.422993 C 59.742433,67.698376 58.896014,67.424236 59.306463,66.955221 C 60.918905,65.370902 60.952307,68.292483 60.411732,69.258657 z"
           id="path3533"
           style="fill:#f4f4f4" />
        <path
           d="M 83.754627,86.010477 C 98.930724,65.610667 84.590686,47.208728 75.571974,45.876209 C 95.326167,49.487116 94.708739,77.265776 83.754627,86.010477 z"
           id="path3531"
           style="fill:#f4f4f4" />
        <path
           d="M 24.718082,59.183991 C 25.639414,57.824843 26.52101,57.14376 28.125903,57.290437 C 26.514585,57.523444 25.85885,58.444883 24.718082,59.183991 z"
           id="path3529"
           style="fill:#f4f4f4" />
        <path
           d="M 61.797236,57.254811 C 63.560425,57.233564 64.384354,56.487545 64.692531,54.909906 C 65.040031,57.21718 63.886607,57.733614 61.797236,57.254811 z"
           id="path3527"
           style="fill:#f4f4f4" />
        <path
           d="M 30.798614,56.347844 C 30.66095,54.848225 32.437596,53.155187 33.663395,53.222329 C 32.6192,53.819885 31.23163,55.293863 30.798614,56.347844 z"
           id="path3525"
           style="fill:#f4f4f4" />
        <path
           d="M 73.905427,58.504959 C 76.181328,54.641651 74.652136,51.587423 73.106306,49.081315 C 76.896924,51.630273 75.731321,57.562498 73.905427,58.504959 z"
           id="path3523"
           style="fill:#f4f4f4" />
        <path
           d="M 60.808915,56.218247 C 60.085443,55.438028 59.673403,54.604434 59.220161,53.740191 C 61.697197,52.986703 61.730242,54.157895 64.039728,52.649286 C 64.453373,53.683642 64.098689,53.669306 64.318873,54.109188 C 60.483373,53.791362 60.550362,55.212733 60.808915,56.218247 z"
           id="path3521"
           style="fill:#f4f4f4" />
        <path
           d="M 40.59663,52.819959 C 41.165449,50.605485 42.682306,49.724736 44.217663,50.096895 C 42.990984,50.619268 41.314287,51.183883 40.59663,52.819959 z"
           id="path3519"
           style="fill:#f4f4f4" />
        <path
           d="M 49.710207,49.893842 C 50.329768,47.379781 52.534574,45.923471 54.177472,45.691056 C 52.885176,46.634938 51.195148,47.498295 49.710207,49.893842 z"
           id="path2698"
           style="fill:#f4f4f4" />
        <path
           d="M 60.490366,41.822058 C 61.695225,42.41259 61.802722,43.237525 61.785788,43.750537 C 61.454075,42.648671 61.108806,42.69814 60.490366,41.822058 z"
           id="path3582"
           style="fill:#f4f4f4" />
        <path
           d="M 69.710323,54.443842 C 70.560076,52.723343 69.529559,51.589981 68.82408,50.350412 C 70.349363,51.373218 70.543615,53.977683 69.710323,54.443842 z"
           id="path3584"
           style="fill:#f4f4f4" />
      </g>
    </g>
  </g>
</svg>
