<svg xmlns="http://www.w3.org/2000/svg" width="398" height="513"><path d="M3.628 3.57h195v250h-195z"/><path d="M201 6h195v250H201Z" style="fill:#fff" transform="translate(-2 -2)"/><path d="M199 254h195c0 50 4.537 109.82-35 170-39.537 60.18-105 85-160 85z"/><path d="M201 256H6c0 50-4.537 109.82 35 170 39.537 60.18 105 85 160 85z" style="fill:#fff" transform="translate(-2 -2)"/><path style="fill:#078930;stroke:#000;stroke-width:2;stroke-linecap:round;stroke-linejoin:round" d="M285.05 142.15c-.244-11.503-.252-24.422 0-38.903-4.386-7.09-8.146-6.665-11.541-1.861 15.228 4.99-1.801 14.952-12.1 16.38 3.583-5.913-6.06-21.641 7.647-18.18 2.281.619 2.64-3.124 4.452-4.153-14.667-.745-12.161-1.489-18.986-2.234l-3.723 5.584c16.381 3.63-.937 11.462-3.723 20.662-.277-2.512-3.881-5.719-6.701-9.493-4.206-5.63-2.792-9.617 7.632-10.982.72-2.726 1.334-5.714-1.303-5.212-8.325 1.584-13.1 8.792-18.614 7.259-.154 10.232-10.284 8.627-12.773 3.396-2.269-4.771-.24-10.417-3.421-16.425 11.1 1.941 24.316-1.889 15.08 7.446 13.818-1.434 15.81-2.109 8.935-12.844-.391 5.238-11.554 2.724-9.307-2.978 1.985-5.04 5.312-5.889 6.515-13.774 4.243 7.239 14.06 3.788 13.588 13.03-.218 4.222-5.759 2.32-10.05.372 3.847 6.01 8.438 10.273 13.216 10.238 6.222.155 9.632.252 18.986.372 2.827.036.641-4.118 3.909-3.909 3.668.235 1.488 7.435 10.424 8.376 4.632.488 3-6.754.372-8.19-5.969-3.258-6.41-11.03-10.796-11.541-3.154-.368-5.854-.187-5.793 1.862.06 2.01 2.452 3.737 2.814 5.77.644 3.609-10.558 3.176-17.683 4.84 2.01-7.05-.732-10.977 2.234-14.519 3.528-4.214 5.668-1.246 8.376-.558 2.646.672 10.674.198 2.234-4.467-7.793-4.308-13.472-1.566-22.337-2.978-5.906-.941-11.404-3.641-15.08-1.117 6.067 13.679-6.371 9.133-15.08 11.168.86-3.309 2.954-6.248 1.303-11.541-1.345-4.31 2.254-9.162 10.61-4.095 5.528 3.352 3.041-3.282 1.489-5.03-2.104-2.364-3.977-7.553-5.212-13.588-4.814 8.909-12.884 2.296-10.05-4.84 1.829-4.609 2.66-8.137 2.234-11.913 5.662 2.808 8.715 3.802 13.03 4.653 3.658.721 6.581 14.314-1.675 10.238 2.034 8.02 4.895 15.208 11.355 18.8 4.798 3.147 7.478 2.905 4.654-5.584-8.141 1.731-10.601-4.752-8-8.19 1.889-2.501 3.528-6.157 4.467-10.61 3.971 6.01 7.942 5.344 11.913 7.818 4.725 5.356-2.029 8.588-5.212 9.493-.491 10.268 7.896 9.02 13.402 10.982 8.462-1.918 16.486 2.352 24.57 13.03 8.322 10.993 9.997 4.276 6.329-3.723-2.881-6.283-17.11-9.622-18.06-18.614-.533-5.05-3.102-8.322-4.654-3.351 3.65 16.499-7.545 4.767-15.08 6.887 2.783-3.329 2.421-8.323 3.766-11.235 1.355-2.932 4.422-3.752 8.892 1.369 6.165-3.484-1.147-10.1-13.402-13.03-9.784 2.85-14.6-2.106-13.96-15.636 2.204 3.666 13.04.937 16.522 3.229 6.58 4.328 4.406 7.756-.142 8.126 5.792 1.635 11.181 5.473 13.03 4.467 2.817-3.143-8.515-10.826 1.303-13.402 3.633-.953 7.322-.115 10.982-3.164.165 6.68 3.586 10.766 1.303 16.194-1.679 3.992-8.768 5.982-6.143-1.489-4.607 4.121-5.203 5.699-2.234 10.238 3 4.591 5.526 11.197 7.446 14.333 2.641 4.315 5.533 3.454 5.212-.931-.607-8.282-5.576.757-6.143-7.446-.473-6.845 6.104-7.681 6.701-12.658 2.448 4.884 5.358 5.748 8 7.446 3.138 2.01 3.496 13.427-4.653 7.07-.342 5.427-1.715 11.56 4.095 11.913 5.663.344 6.474-15.813 5.956-26.06-3.358 1.769-10.375 3.866-9.865-4.84.243-4.144 7.883-6.432 10.796-14.519 2.792 8.376 14.424 11.611 10.05 17.311-2.137 2.786-5.178 4.206-7.259-1.117.858 11.22 2.02 17.08.931 23.64-.726 4.385 1.353 7.485 6.701 3.537.976-.721 1.564-3.77 2.048-7.446-12.958-2.34-.653-8.545.931-17.497.494 2.85 6.06 5.81 8.092 9.14 2.748 4.5.051 9.528-6.04 3.89.33 5.04-1.767 16.216 7.01 4.293 1.909-2.592 3.929-6.323 5.831-12.669.583-1.944 1.028-6.187.558-10.424-5.638 5.19-11.06 3.897-12.168-.007-1.032-3.62 2.107-9.485.627-14.512 4.205 3.585 10.519 2.85 13.982 3.84 5.097 1.458 4.278 11.729-1.138 7.515 2.619 4.431 1.433 7.825 9.121 5.03 4.849-1.766 6.931-2.922 8.376-4.095-4.551-1.737-7.466-6.912-1.489-10.61 3.349-2.072 9.542 3.248 13.96 1.303-1.089 8.496-5.81 19.358-7.259 10.61-.545-3.289-3.463 4.408-10.796 5.956-6.543 1.382-8.807 3.821-8.562 7.259 3.03 4.269 7.922-.474 10.61 2.42 5.671 6.105-1.947 7.685-.186 13.96-3.851-4.335-7.253-1.465-10.796-2.978-3.234-1.381-1.235-4.094-.558-5.956-4.506-.476-7.295 6.722-10.02 10.449-2.908 3.982-7.772 5.099-10.272 9.282-4.905 8.207-.398 10.424.745 8.19 3.942-7.703 9.08-13 14.891-13.03 29.06-.137 25.23-14.281 29.22-18.242-2.358.973-12.726 2.31-8-5.956 1.431-2.504 8.128-2.471 11.541-8.19-.312 6.12 4.204 7.498 4.453 9.693.591 5.206-.985 11-5.01 5.756-1.638 6.148-4.11 9.848-5.77 10.982-6.463 4.414 3.413 2.204 7.446-.558 5.499-3.768 7.798-10.226 10.424-16.939-3.215-.278-15.181-8.887 1.489-12.285 4.237-.864 8.223-.626 13.402-5.212-4.903 8.154 1.858 26.15-10.61 17.683-2.041 5.453-4.371 10.447-6.515 13.588 3.472 2.103 6.119-2.741 9.111-2.489 2.713.229 5.384 3.077 5.04 7.329-.321 3.914-2.297 7.56-.372 12.658-3.101-2.544-7.505-.565-11.541-3.164-6.785-4.37-3.408-7.947.558-10.424-5.644-1.425-7.341 1.756-10.238 3.537-5.951 3.982-13.292 5.358-21.22 5.212-8.84-.163-12.584 3.968-7.07 3.723 18.884-.839 8.529 7.07 10.238 15.263-7.197-1.458-11.657 1.515-15.263-1.117-7.796-5.69.098-7.558 4.095-10.05-6.33-4.305-9.78 1.036-13.216 3.351-2.844 1.916-5.265 4.486-8.376 9.121-3.84 9.153 2.666 9.583 3.909 6.887 4.157-9.02 7.764-9.368 7.07-4.095 5.562.162 9.931.125 18.242.745 6.109.456 12.362.016 17.497-7.818-19.918-7 2.854-11.158 6.329-18.8.484 8.773 11.618 20.951-2.234 20.289-1.737.139-3.475 3.727-5.212 6.701 2.01 1.049 4.533 2.183 9.493 3.723-2.903-12.12 6.899-4.454 10.61-5.584 2.716-.827 4.252-.921 5.584-4.653 2.7 7.07-.118 14.834-4.84 19.17-6.351 5.835-13.359 5.04-13.03-5.584-4.264-.668-7.523-1.939-9.307-4.095-2.854-.745-7.14-.08-7.07 1.861.208 6.02 8.163 1.612 7.818 8.562-.213 4.296-4.995 5.652-6.143 11.541-3.421-5.543-12.239-7.924-11.355-12.658.664-3.557 10.731-7.176 2.606-7.446-2.987-.099-7.197-.248-12.658 0-3.156.121-3.1 4.462 1.303 5.212 12.469 2.125-2.127 8.777-1.861 18.614-2.668-4.649-6.03-5.287-8-7.818-5.129-6.566-3.746-10.347 4.84-7.07-4.445-7.933-11.641-3.579-12.1-.745-4.141 25.648-3.626 50.09.558 75.945 1.488 9.194 9.415 13.42 21.22 10.05 8.269-2.359 13.791 3.469 21.406 7.259 7.19 3.58 14.707-2.449 19.917-9.493 3.307-4.47 15.13 6.159 3.537 4.467-5.676-.828-6 6.578 1.303 11.913 5.25 3.834-5.923 12.203-5.03 3.537.38-3.673-13.893-6.783-9.679-1.117 7.488 10.07-2.345 4.52-4.467 1.861-4.31-5.399-11.526-2.918-17.683-7.632-8.01-6.13-11.652 1.425-5.584 4.281 7.227 3.403 16.652 5.08 21.406 10.238 3.784 4.106 7.083 1.483 10.61 1.861 8.336.894 5.998 6.949.186 5.03-11.538-3.819-1.342 10.407 10.796 6.701 4.254-1.299 12.136 1.979 3.723 5.398-4.332 1.76-12.79 1.596-17.869-3.164-5.575-5.226-10.441-4.152-6.143.931 6.102 7.216.324 6.211-3.164 3.723-3.15-2.247-3.879-5.677-3.909-11.541-.029-5.739-5.086-9.598-10.238-9.865-6.614-.343-11.57-2.754-14.891-8.562-3.193-5.585-12.904-3.304-8.19 1.489 6.773 6.888 17.236 11.204 21.778 19.17 6.284 11.02-2.669 9.111-4.095 5.77-4.686-10.981-7.155-12.896-6.701-5.212.318 5.375-2.983 9.3-5.03-.558-1.624-7.837-5.064-3.824-7.818-10.05-2.786-6.298-9.534-12.194-12.658-7.632-2.331 3.404 4.02 5.707 7.259 8.749 3.386 3.175 2.427 10.284-2.792 4.654-2.846-3.07-7.552-6.06-6.143 3.537.48 3.268 9.985 1.494 10.61 5.77.982 6.724-2.245 8.589-5.956 3.164-2.762-4.04-3.68 2.402-5.77 4.84-3.249 3.787-6.255 1.361-5.956-2.978.391-5.679-4.03-3.838-6.701 1.117-2.815 2.838-8.296.887-3.164-5.956 3.107-4.143 7.478-6.846 8-9.307 1.426-6.667-1.403-5.364-2.978-3.351-11.1 14.186-10.302 1.357-6.701-1.117 3.318-2.279 4.91-3.23 5.956-4.84 4.905-7.545.402-7.309-1.861-4.84-5.794 6.322-9.453 9.2-14.333 10.61-2.703.781-1.75 5.01-.931 8.749 1.487 6.791-5.972 8-5.212-.372.231-2.543-7.03-7.224-5.956 4.281.451 4.851-5.119 7.66-5.77 0-.496-5.838-.977-8.15 3.909-10.238 7.557-3.229 11.03-7.188 15.45-12.471 4.173-4.987.097-9.911-5.956-2.978-6.314 7.232-10.776 11.138-17.311 14.705-5.932 3.237-6.329 9.509-7.07 14.891-1.175 8.496-11.487 5.516-5.584-.558 1.58-1.626 1.601-8.03-.186-5.398-6.089 8.955-10.725 4.173-16.939 8.19-7.07 4.569-6.862-.348-5.212-2.606 2.196-3 8.379-1.564 14.15-4.095 4.408-1.934 1.072-5.879-2.606-3.909a555.666 555.666 0 0 0-4.095 2.234c-3.784 2.064-6.34-1.955-1.489-6.143 4.259-3.677 12.273 3.62 18.242-3.909 6.639-8.374 14.09-5.114 18.614-14.15 4.494-8.98-3.779-10.905-4.84-4.654-.858 5.057-12.535 8.07-15.822 9.865-3.333 1.823-3.321 2.476-5.212 5.77-2.949 5.139-9.759.498-5.77-3.351 3.833-3.698 4.141-9.38-3.723-7.259-1.88.507-3.356 2.086-5.584 5.398-2.518 3.743-8.448 1.258-4.281-4.84 2.881-4.215 13.247-10.74 5.398-10.61-11.815.196-8.395-6.932-4.467-6.515 3.66.389 9.618-.762 12.1 3.723 5.106 9.227 8.416 11.253 16.01 6.887 5.355-3.079 4.945-12.77 14.891-9.865 8.325 2.431 16.12.686 20.289-3.723 9.972-4.321 7.01-27.96 6.701-42.626z" transform="translate(-2 -2)"/><path d="m345.69 314.39 3.768 3.482c1.653 1.528-1.64 3.917-2.783 2.805l-3.986-3.877c-.736-.716 1.504-3.793 3-2.41zm-32.529-.622c-1.967-1.849 9.738-13.323 11.541-11.541l32.574 32.2c2.716 2.685 3.907 10.384 3.909 16.38 0 3.335-2.794 6.442-6.515 2.792a2654.962 2654.962 0 0 0-41.509-39.834zm-12.975 43.984 7.291 6.438 26.15-27.462-6.701-6.242zm-45.836 45.31c-3.326 3.281 5.132 11.217 8.386 7.799l33.03-34.694-7.269-6.787zm2.32-68.785c-.718-.694 6.01-7.41 6.701-6.769l80.38 74.42c4.67 4.324-4.351 12.247-7.559 9.149zm-20.04 16.538c-1.339 1.649-12.597-8.585-11.3-10.206 12.313-15.384 26.438-28.769 41.22-39.556 1.412-1.03 11.292 10.223 9.833 11.323-15.11 11.387-27.614 23.485-39.755 38.439z" style="fill:#fff" transform="translate(-2 -2)"/><g style="stroke:#000;stroke-width:2;stroke-linecap:round;stroke-linejoin:round"><path style="fill:#0f47af" d="M70 462h132v23H99c-10.691-7.667-20.539-15.333-29-23Zm-35-45h167v23H49c-5.315-7.667-10.4-15.333-14-23Zm-20-47h187v23H23Zm-8-46h195v23H10Zm-1-46h196v23H6Z" transform="translate(-2 -2)"/><path style="fill:#da121a" d="M172.43 390.64c4.555-5.741.159-14.13-8.376-24.57-9.05-11.07-18.74-22.409-15.636-41.32 1.964-11.968 9.196-15.836 17.869-15.263-1.035-7.278 1.487-11.204 8-11.355-1.01 3.02-2.313 5.297-.931 6.887 1.673-3.306 4.249-6.05 9.865-6.887-.461 3.414-2.103 7.813.186 8.935 6.143-2.02 6.887-5.611 10.61-5.212.43 2.01-1.179 4.01-3.723 8 5.537 1.698 5.791 6.096 6.143 9.679-3.143.073-6.858-3.791-11.541-3.537-.247 2.667 1.278 4.449-2.606 8.935-1.234-1.714-.117-4.832-3.537-7.446-.46 4.497-1.485 5.606-2.42 7.259-.647-4.995-4.928-5.661-7.818-12.1-3.971 2.454-10.163 1.744-12.844 9.679-4.102 12.143.552 23.442 4.654 24.757 1.329-4.504 6.63-6.227 8.749-.745-6.527 2.642-2.319 8.987.186 14.15 3.038 6.257 6.205 7.975 9.307 11.541.135-6.611 1.584-10.234-.558-20.1-2.214-10.198-9.115-15.248-13.216-25.315-2.763-6.783-9.993-20.525-7.818-29.969.928-4.03 1.843-8.6 7.818-10.61-.62-15.201 7.183-11.147 7.818-21.22 1.561.726 2.533 2.628 2.606 6.329 7.3-2.126 1.283-6.506 7.07-10.796 4.831 2.336.761 5.41 3.909 8.19 2.236-4.523 5.837-4.95 10.05-3.537-1.305 2.73-2.268 5.832-8.562 8.749.552 2.809 1.29 5.471 4.281 6.329-2.444 2.272-6.121 3.31-11.541 2.606 2.55 1.799 6.113 3.599 5.398 5.398-6.582 3.056-10.947 4.976-16.01.558-4.695 3.502-9.08 9.01-6.515 19.17 4.512 17.87 17.849 30.589 21.03 44.86 3.385-8.738 8.466-7.097 11.913-4.095 2.693 1.433-4.203 1.232-6.161 6.392-1.456 3.839-1.094 14.12-2.588 19.668-.926 10.09-4.548 18.766-11.92 23.406-.493-2.218-1.657-4.901-3.158-7.398zm-70.17-121.36c7.818.16 11.409-6.493 17.869-5.398 4.092.693 9.525-1.489 14.287-1.86 3.166-.247 4.139-4.107 6.375-3.352 3.522 1.189-.858 3.723-2.792 5.584 3.352-.853 7.505-3.719 10.238-.745 1.831 1.993-.467 7.595-3.909 10.796 5.917-.99 8.02 4.372 11.168 8-.563 1.078-6.68-2.818-7.818-.372 4.178 4.309 7.294 19.859.186 12.844 5.235 17.671 2.676 22.844-5.03 14.519 1.055 9.927-2.416 18.34 0 26.25-1.537 3.479-6.461 1.737-7.259-5.584-1.926 10.21-1.22 17.572 7.259 19.359-2.535 4.22-5.079 4.312-8.562 5.212 1.682 1.138 4.04 1.263 4.84 3.723-.098.501-4.805-.604-7.07.372 2.761.875 6.106 1.633 6.515 2.978-2.792 1.263-5.584.92-8.376 1.303 6.664 2.616 10.511 6.657 14.15 11.355 5.767 7.451 10.88 8.423 17.869 10.424 5.478 1.568 10.88 4.794 13.03 11.913 2.2 7.286-2.846 18.769-11.355 30.713 2.687.046 5.389.036 8.562-1.861-2.56 4.632-3.953 8.711 2.792 8.935-4.373 4.247-3.649 8.208 2.048 8.19 9.228-.029 8.427 4.02 7.632 8.19-4.974-1.224-1.326 3.836-1.285 6.413-3.783-3.239-4.341-.135-5.23 2.521-1.765 5.28-.262 9.01 5.03 6.887 5.445-2.19 7.718 0 3.351 5.77.408 2.385-2.244 9.574-4.84 3.909-3.076-6.712-6.04.075-4.84 4.84 1.39 5.529 3.399 8.7-4.84 4.467-6.338 2.364-5.175.617-3.351-3.351 3.72-8.09-4.574-1.594-7.07-3.537-.225 6.04-2.679 7.685-5.212 1.675-10.947-3.97 1.01-4.609 2.978-6.701 3.114-3.306-2.876-2.168-4.541-4.55-3.698 6.891-4.33 2.032-5.139-2.151-.387-7.07 2.523-6.903 8.19-3.723 6.807 3.82 8.619-6.375 5.212-9.679-4.152-4.03-13.381-.592-14.891-14.891.91 12.844-5.501 8.935-8.749 18.428-2.198-4.522-.409-14.586-2.048-22.895-.699 7.379-6.159 5.472-4.281 14.891-10.08-5.845-1.017-19.02-3.537-24.943-6.807 8.441-12.142-2.943-13.96 1.675-3.117 7.918-5.545 6.261-9.121 5.398-6.26-1.511-12.04-5.294-17.12-3.723-9.652 2.981 5.273 14.02-7.446 8.19l-5.212.745c-7.291 1.821 11.642-8.13-2.048-8-2.633.024-4.118 13.316-5.398.372-4.993-1.408-12.336-2.837 1.117-5.77-3.738-.458-6.303-1.502-3.164-5.398-7.781 4.04-10.207 3.585-5.584-2.792 2.544-13.698 4.976-1.862 8.749.745 6.699 4.628 9.438-1.377 4.467-2.978-2.332-.751-13.203-7.268 1.117-6.329 8.344-5.469 4.097.79 6.143 4.654 3.224 6.091 7.096 5.734 12.1 1.675 4.602-3.733 3.469-5.415 5.212-7.632-2.606-2.323-6.701-.014-9.307.931 2.624-7.04 9.594-13.616 17.497-12.285 8.701 1.466 19.323 7.03 27.549 3.909-9.912-7.511-24.699-6.629-29.41-14.519-.524-.878-1.311-4.799-1.861-7.259-6.48 11.603-12.728 8.227-6.329-1.489-7.57 10.759-18.19 8.739-7.07.558-7.442 4.568-15.651 5.555-6.143-2.792-10.69 5.647-13.148-1.451-4.467-3.723l-13.96.372c-5.077.949-2.918 2.84-1.142 5.537 2.125 3.227 4.02 9.65-4.256 4.328-3.695.508-12.743.815-2.978-3.723-2.296-2.551-8.695-4.334-8.935.372-.539 10.583-2.132 4.244-5.956 2.792-10.499-.288-2.195-4.587 2.048-9.679-4.293 1.384-6.738.586-5.584-4.467-1.324 4.868-8.949 9.371-5.212-.745-4.493-15.97 11.523 1.547 13.216-2.048 1.056-2.241-3-6.156-6.515-6.515-6.865-.701-8.48-2.048-.931-6.143 7.501-14.02 4.099 4.519 12.471 5.398 8.188.86 19.364-.42 24.943-3.164-5.344.45-6.494-1.388-.931-6.887-11.47 10.889-10.186 3.213-3.909-2.978-9.472 8.943-11.268 7.438-7.621-1.217.804-1.909 2.139-6.111 5.201-7.346-.884-1.396-4.372-1.057 1.675-7.07-5.61 7.363-11.477 2.585-2.048-3.909-10.06 9.31-9.583 4.808-1.385-5.81-13.351 18.556-7.27-1.666-2.896-7.03-2.186 1-3.949 2.788-7.446-7.632-.366-1.091-2.325-2.187-5.067 1.384-1.948 2.539-10.282 8.841-8.335-2.874-4.763-5.695.784-6.748 5.398-1.489 2.707-3.83.34-6.489-4.653-10.424-.374 4.345-10.211 7.409-4.653-2.42-2.744-11.599 3.378-6.255 10.05-1.117 3.785 2.914 8.646.774 3.537-2.978-5.369-3.943-17.937-6.695-4.84-8 6.858-11.261 7.472 3.481 10.796 6.515 2.163 1.974 5.8 6.593 7.632 0-5.42-1.091-9.424-8.345.372-5.03 8.405-6.402 5.967.265 6.143 8.19.263 11.835 4.897 21.05 10.424 27.549 7.556 2.115.103-5.345 6.515-12.1 1.595 6.633 4.906 8.383 8.798 7.55 2.888-.618.782-5.665 8.886-3.269-6.427-1.656-14.485-7.66-6.701-9.307 5.374-1.137 10.311 6.362 15.263-.745 1.811-2.599 3.245-6.812 0-9.121-4.438-3.158-7.485-.759-11.541-.372-3.433.327-5.422-.873-3.909-5.956-2.619 1.943-8.176-7.617.186-7.446z" transform="translate(-2 -2)"/></g><path transform="translate(-1 -3)" d="M121.49 272.45a1.909 1.974 0 1 1-3.817 0 1.909 1.974 0 1 1 3.817 0z" style="fill:#fff"/><g style="stroke:#000;stroke-width:2;stroke-linecap:round;stroke-linejoin:round"><path d="M126.35 295.46c-1.211 2.797-5.057 8.408-9.752 5.764-3.927-2.211-5.846-.314-7.811.963m9.652-28.734c.573-3.479-2.75-2.969-4.049-4.327 4.944 1.395 4.876-.926 6.588-.109 2.427 1.159 2.56 3.267.47 4.505m18.841-6.932c3.922-.975 6.179.966 1.429 5.203m-6.351-9.805c5.02 2.61-.257 3.82-2.783 4.281m9.429 33.532c.189 1.71.105 2.884-.282 4.281m.981-17.488c-.521 1.866.006 3.732.113 5.597m-4.917 13.716c.169 4.585-2.622 2.862-1.467 7.05m9.675-10.787c.428 2.199.564 3.359.245 4.808m-5.947 7.914c.146 2.676-.258 4.802-.808 6.782m-6.637-4.458c-1.498 1.119-2.469 3.02-2.914 5.203m-1.367-5.947c-1.151.498-2.097 1.355-1.861 4.281m-5.902.998c-1.534 1.08-1.548 2.92-1.73 4.676m-9.811-2.574c-1.713.556-2.469 2.547-2.783 5.203M62.1 296.696c2.275 4.22 5.116 9.607 3.14 11.52m25.597 3.959c-7.844-5.218-7.613 3.954-6.913 5.998.405 1.183 2.359 7.138 9.922 3.68m37.07 6.588c-3.849 7.454-12.307 8.406-8.148-1.176-3.866 10.255-20.469 11.891-10.295.708-10.774 8.99-19.02 11.639-11.816 2.512-7.192 6.608-9.117 2.606-2.534-3.421m38.01-4.252c-1.265 2.288-.299 5.741-.87 10.853m-5.623 4.82c-2.602 1.569-2.987 4.952-1.73 9.678m-5.765.041c1.969 2.261 1.805 4.785 1.561 6.782m-5.37-3.05c1.2 2.388.909 4.477.376 6.519m-16.976 8.217c-3.344.442-3.909-2.266-4.709-4.708-4.104 9.752-11.512 2.83-17.09 6.486 5.386-3.866 6.891-5.474 7.088-10.796-10.532 3.847-10-.929-5.152-8.618-2.107 1.148-3.669 1.287-4.359 1.67m-6.883 14.345c-3.718.058-7.738 1.024-10.812-.852m70.47 2.636c-2.524.604-3.522-1.038-4.769-2.312.594 3.512-.738 5.484-1.83 7.646m-2.104-1.741c-.706.532-1.412-1.053-2.118-2.178.296 9.963-2.614 8.561-6.136 4.987-1.667 4.311-3.612 7.694-7.69 7.526m-.981 42.536c-6.387.541-9.202-.108-13.707-.194m45.686-21.28c-3.863.703-9.08.822-14.629-.457m14.525 4.28c-3.651 1.467-8.907 1.725-14.629.727m12.259 4.725c-3.165.62-5.541.732-9.495.069m20.602-14.806c-.46 4.702-1.595 8.862-5.415 12.05m-4.954-11.1c3.081 1.56 9.884 6.978 5.02 11.09-8.957 7.582-7.144 12.181-10.533 16.586m31.719-10.58c-1.717 3.663-3.435 5.162-5.152 7.177m9.76-7.967c-1.141 3.84-2.615 5.346-4.099 6.782m-72.59-88.23c-2.547-1.252-5.462-.791-3.96-3.62 1.85-3.486 3.527-2.261 4.295-4.379-5.108-3.66-15.09-3.422-10.969 7.262-3.01-4.621-5.675-1.863-8.338 1.069" style="fill:none" transform="translate(-2 -2)"/><path d="M35.06 293.88c.526 4.521 5.269 10.393 11.401 10.04 2.504-.144.892-7.89-2.877-7.749-2.556.096-5.161.517-8.523-2.29zm-5.344-4.108c1.01-4.439 6.348-9.771 12.407-8.765 2.474.411.045 7.94-3.688 7.398-2.532-.368-5.077-1.065-8.719 1.367zm8.396-21.37c3.771-2.549 11.315-2.782 15.05 2.098 1.523 1.993-5.4 5.821-7.751 2.871-1.594-2-2.974-4.25-7.294-4.969zm20.654-2.252c4.418-1.094 11.581 1.288 13.401 7.154.743 2.396-7.08 3.604-8.266.024-.807-2.427-1.327-5.01-5.135-7.178zm135.39 216.52c1.449-4.315-.343-11.647-6.04-13.938-2.327-.935-4.166 6.759-.696 8.237 2.354 1 4.89 1.73 6.737 5.701zm-15.56 15.965c-4.464-.888-9.935-6.088-9.09-12.171.345-2.484 7.936-.255 7.492 3.491-.301 2.54-.93 5.103 1.597 8.68zm-22.886-5.208c-3.356-3.075-5.335-10.359-1.457-15.12 1.584-1.945 6.917 3.899 4.594 6.872-1.575 2.02-3.443 3.88-3.138 8.249zm-13.919-17.521c-.474-4.527 2.874-11.292 8.935-12.285 2.475-.406 2.593 7.505-1.117 8.19-2.516.465-5.15.622-7.818 4.095zm-68.2-30.01c4.549.165 11.07-3.633 11.651-9.748.237-2.497-7.664-2.077-8.095 1.67-.293 2.541-.271 5.18-3.555 8.08zm-9.286-4.215c-2.791-3.596-3.517-11.11 1.108-15.15 1.889-1.651 6.162 5.01 3.373 7.547-1.892 1.722-4.046 3.246-4.48 7.604zM50.026 419.18c.98-4.445 6.292-9.807 12.357-8.835 2.477.397.09 7.94-3.646 7.418-2.534-.353-5.083-1.036-8.711 1.417zm13.677-17.13c3.703-2.647 11.239-3.076 15.09 1.704 1.575 1.952-5.246 5.96-7.674 3.073-1.646-1.958-3.084-4.171-7.421-4.777zm-12.259-14.719c4.482.796 11.469-2.06 12.892-8.03.581-2.44-7.301-3.122-8.249.529-.643 2.476-.988 5.092-4.643 7.505zm-9.26 3.268c-3.322-3.112-5.22-10.418-1.288-15.14 1.606-1.927 6.873 3.976 4.517 6.923-1.598 1.998-3.486 3.841-3.229 8.213zm-14.879-42.751c2.946-3.47 10.15-5.723 15.05-2.026 2 1.51-3.636 7.06-6.693 4.85-2.074-1.498-4.01-3.294-8.361-2.824zm-2.665 23.06c-.474-4.527 2.874-11.292 8.935-12.285 2.475-.406 2.593 7.505-1.117 8.19-2.516.465-5.15.622-7.818 4.095zm52.49-101.63c-5.167-1.515 2.758-8.04 7.259 0 5.1 9.114 8.491 18.979 26.618 18.242 8.411-.342 10.753 2.529 2.048 3.351-6.427.606-16.866-1.275-23.267-3.909-7.363-3.03-7.423-16.15-12.658-17.683z" style="fill:#da121a" transform="translate(-2 -2)"/><path d="M273.6 25.25c-.419 2.296.129 4.405-2.699 6.701m57.61 16.194c2.606-1.653 5.212-3.066 7.818 1.117m40.951-16.939c-2.992 3.17-2.638 5-3.351 7.259m-53.24-17.497c3.813-.401 6.04 1.712 7.07 3.164m-29.596 1.303c2.469 3 1.433 4.02 2.141 6.143m-54.818-5.77c1.88-.044 4.234.387 7.353 1.582m-33.04 4.374c3.444 2.54 3.475 4.592 5.212 6.887m15.08 2.048c3.352 3.975 3.305 5.539 3.257 9.214m14.612 1.396c3.733-3.721 6.01-5.062 8.097-6.236m-42.533 20.755c1.737-2.509 3.288-3.67 5.212-4.188m30.527 18.707c2.552-4.354 6.105-6.152 9.121-6.794m61.798-1.582c2.606.789 3.723 1.169 5.584 4.467m34.529-20.568c3.02 1.018 3.816 2.481 5.305 3.63m-15.822 13.774c1.864 4.04-.331 7.456-1.396 9.493m5.584 9.586c2.161 1 4.882 2.281 6.608 1.768m-24.57-.558c1.882 4.261.72 7.653.372 11.727m-24.01-3.071c1.038 1.084 2.02 2.839 2.234 6.794m-55.842 0c1.042-5.623 3.543-6.869 5.491-9.772m-23.267-1.675c-1.985 2.567-2.02 4.611-2.513 8.097m-25.594-9.121c2.31 3.276 5.639 3.819 9.307 2.978" style="fill:none" transform="translate(-2 -2)"/></g><path d="M130.69 160.29h-52v74h52v-74zm-40 27c0-6 10.07-15.21 13.09-15.303 3.02-.093 13.907 9.303 13.907 15.303v39h-27zm-14-11h-39v50h39zm-30.691 30.715v-18c0-5 11-5 11 0v18zm15 0v-18c0-5 11-5 11 0v18zm109.69-30.715h-38v50h38zm-32.691 30.715v-18c0-5 11-5 11 0v18zm15 0v-18c0-5 11-5 11 0v18zm-76.31-32.715v-14h-6l7.637-15H46.688l-14 29zm99 0-16-29h-30.547l10 15h-6.453v14zm-40-16-20-30h-26l-16 30zm-20-55h-26v23h26zm-22.691 16.715v-11c0-2 7-2 7 0v11zm13-11c0-2 7-2 7 0v11h-7zm9.691-7.715-2.547-12H92.235l-2.547 12zm-3-14-10-51-10 51zm-7.824-55.27c.609-1.961-2.248-3.804-3.702-2.532-1.454 1.271-1.548 2.99-.215 4.04 1.333 1.053 3.308.45 3.917-1.511z" style="fill:#fff" transform="translate(-2 -2)"/><path d="M6 6h390v295c0 105-65 210-195 210S6 406 6 301Z" style="fill:none;stroke:#000;stroke-width:6" transform="translate(-2 -2)"/><path d="M157.33 311.99c2.654-1.331 5.307-1.581 7.961-1.688l1.303 2.244c-3.02 1.243-6.535 2.387-8.411 3.858z" style="fill:#da121a" transform="translate(-2 -2)"/></svg>