<svg xmlns="http://www.w3.org/2000/svg" height="489" width="429"><g transform="translate(0 -978)" stroke="#000"><g stroke-width="3"><path d="m 409.5 1052.5 h -195 v 410 c 90 0 195 -70 195 -180 z" fill="#fcdd09" stroke-linecap="round"/><path d="m 19.5 1052.5 h 195 v 410 c -90 0 -195 -70 -195 -180 z"/><path d="m 19.5,1052.5 390,0 15,-70 -50,0 -5.93724,30.7939 L 329.5,1012.5 l 5,-30 -50,0 -5,30 -40,0 10,-30 -70,0 10,30 -40,0 -5,-30 -50,0 5,30 -40,0 -5,-30 -50,0 z" fill="#da121a"/></g><g stroke-width="2"><g stroke-linejoin="round" stroke-linecap="round"><path d="m 59.67 1223.81 l 21.252 -21.584 l 29.23 28.15 l -39.43 39.38 c -3.611 3.665 6.404 12.532 10.02 8.867 l 37.36 -39.966 l 38.754 40.462 c 3.665 3.611 13.776 -6.65 10.111 -10.261 l -41.2 -38.4 l 32.35 -33.07 l 17.836 17.244 l 17.777 -1.097 l 0.362 -16.18 l -18.782 -18.02 c 4.053 -4.02 -3.076 -11.285 -6.725 -7.177 l -18.471 -18.13 l -18.06 18.324 l 18.732 17.641 l -32.994 33.06 l -29.629 -28.635 l 22.06 -21.909 l -18.324 -18.06 c -22.12 17.855 -36.902 34.661 -50.556 51.31 z" fill="#fcdd09"/><path d="m 227.89 1157.68 l 40.699 -17.67 l 33.21 71.17 l 22.303 0.238 c 4.747 0.051 5.095 1.609 0.996 3.522 l -40.8 19.04 l -34.506 -73.945 l -20.994 1.179 c -4.172 0.234 -5.467 -1.557 -0.91 -3.535 z"/><path d="m 298.86 1157.68 l 40.699 -17.67 l 33.21 71.17 l 22.303 0.238 c 4.747 0.051 5.095 1.609 0.996 3.522 l -40.8 19.04 l -34.506 -73.945 l -20.994 1.179 c -4.172 0.234 -5.467 -1.557 -0.91 -3.535 z"/><path d="m 260.19 1264.77 l 40.699 -17.67 l 33.21 71.17 l 22.303 0.238 c 4.747 0.051 5.095 1.609 0.996 3.522 l -40.8 19.04 l -34.506 -73.945 l -20.994 1.179 c -4.172 0.234 -5.467 -1.557 -0.91 -3.535 z"/></g><g fill="none"><path d="m 109.74 251.93 l 10.572 11.03" transform="translate(0 978)"/><path d="m 116.12 1221.49 l 10.917 10.112"/></g></g></g></svg>