<svg xmlns="http://www.w3.org/2000/svg" width="689" height="753"><g stroke="#000"><path d="M974.5 35.47c26.21 32.62 62.79 73.78 104 119 0 0-57.1-4.47-61 74l-25 503c-3.97 81.4-19.86 133.3-54.19 199.8-30.81 59.7-76 108.7-131.8 151.1-61.52 46.8-162.4 83.23-250 84.11-96.99.97-194.6-24.74-277-87.03-74-56-128.1-127.2-160.5-212.5-17-47-23.42-87-27-145l-30.98-502c-4.13-66.98-59.52-63.51-59.52-63.51s62.99-65.68 98.5-122.5c-3 24.52 9 30.17 28.5 24.47C260.01 19.94 393.01.94 537.01.94c129 0 268 17.21 401 55 18.55 5.27 36.65 13 36.49-20.53z" stroke-width="4.693" stroke-linecap="round" stroke-linejoin="round" transform="matrix(.63605 0 0 .64243 1.031 1.496)"/><path d="M94 58c11.51 17.09 36 7 63 0C283.9 26 402 9.46 537 9.46c144 0 280 21.54 390.9 51.58C955.16 68.425 970 72 980 58l50 70C936.894 73.9 747 25 537 25c-167-.02-380 33-493 103z" fill="#fff" stroke-width="3.129" stroke-linecap="round" stroke-linejoin="round" transform="matrix(.63605 0 0 .64243 1.031 1.496)"/><path d="M88 251l12.84 462.8c0 57.09 11.32 114.2 33.26 167 21.84 52.69 54.09 101.1 94.56 141.5 40.37 40.07 88.75 73.12 141.4 94.16 52.79 22.04 109.9 33.05 167 33.05 57.1 0 114.2-11.02 167-33.05 52.69-21.03 101.1-54.09 141.4-94.16 40.47-40.47 75.864-88.85 97.704-141.5 21.94-52.79 30.116-109.9 30.116-167l12.47-456c2.1-76.85 1.25-93.85 44.25-129.8-164.2-71.71-318.4-96.32-493-96.32-174.6 0-332.8 25.37-493 96.32 49 34.95 42.96 79.76 44 123z" fill="#0f47af" stroke-width="3.129" transform="matrix(.63605 0 0 .64243 1.031 1.496)"/></g><path d="M205.5 110l-8 125h98V135h-78l-7-25z" fill="#da121a" fill-rule="evenodd" stroke="#000" stroke-width="3" stroke-linecap="round" stroke-linejoin="round"/><path d="M394.5 115l-5 5v115h88l-5 5v205l-130-70-130 70V240l-5-5h88V120l-5-5z" fill="#fff" fill-rule="evenodd" stroke="#000" stroke-width="3" stroke-linecap="round" stroke-linejoin="round"/><path d="M479.5 110l8 125h-98V135h78l7-25z" fill="#da121a" fill-rule="evenodd" stroke="#000" stroke-width="3" stroke-linecap="round" stroke-linejoin="round"/><path d="M232 358v-26c0-10-8-10-8 0v26zM258 358v-26c0-10-8-10-8 0v26zM284 358v-26c0-10-8-10-8 0v26z" fill-rule="evenodd" stroke="#000" stroke-linecap="round" stroke-linejoin="round"/><path d="M295.5 235v145M389.5 235v145M212.5 240h83" fill="none" stroke="#000" stroke-width="3" stroke-linecap="round" stroke-linejoin="round"/><path d="M232 298v-26c0-10-8-10-8 0v26zM258 298v-26c0-10-8-10-8 0v26zM284 298v-26c0-10-8-10-8 0v26z" fill-rule="evenodd" stroke="#000" stroke-linecap="round" stroke-linejoin="round"/><path d="M389.5 240h83M295.5 120h94" fill="none" stroke="#000" stroke-width="3" stroke-linecap="round" stroke-linejoin="round"/><path d="M347 347v-30c0-10-9-10-9 0v30zM347 274v-30c0-10-9-10-9 0v30zM373 274v-30c0-10-9-10-9 0v30zM321 274v-30c0-10-9-10-9 0v30zM347 194v-30c0-10-9-10-9 0v30zM373 194v-30c0-10-9-10-9 0v30zM321 194v-30c0-10-9-10-9 0v30z" fill-rule="evenodd" stroke="#000" stroke-linecap="round" stroke-linejoin="round"/><g fill-rule="evenodd" stroke="#000" stroke-linecap="round" stroke-linejoin="round"><path d="M409 358v-26c0-10-8-10-8 0v26zM435 358v-26c0-10-8-10-8 0v26zM461 358v-26c0-10-8-10-8 0v26zM409 298v-26c0-10-8-10-8 0v26zM435 298v-26c0-10-8-10-8 0v26zM461 298v-26c0-10-8-10-8 0v26z"/></g><path d="M285.876 115h113l-54-75h-5z" fill="#da121a" fill-rule="evenodd" stroke="#000" stroke-width="3" stroke-linecap="round" stroke-linejoin="round"/><path d="M390.575 103.275L382.133 115m.41-22.79L366.133 115m8.521-34.056L350.134 115m16.403-45.006L334.133 115m24.432-56.155L318.133 115m32.46-67.305L302.133 115m-7.7-11.725L302.877 115m-.41-22.79l16.41 22.79m-8.52-34.056L334.875 115m-16.404-45.006L350.876 115m-24.432-56.155L366.876 115m-32.46-67.305L382.876 115" fill="none" stroke="#000" stroke-width="3" stroke-linecap="round" stroke-linejoin="round"/><path d="M208 96c9 0 9 14 0 14s-9-14 0-14z" fill="#fcdd09" fill-rule="evenodd" stroke="#000" stroke-width="3" stroke-linecap="round" stroke-linejoin="round"/><path d="M96 465V270l-5-5h85l-5 5v175z" fill="#fff" fill-rule="evenodd" stroke="#000" stroke-width="3" stroke-linecap="round" stroke-linejoin="round"/><path d="M87 265h93l-44-84h-5z" fill="#da121a" fill-rule="evenodd" stroke="#000" stroke-width="3" stroke-linecap="round" stroke-linejoin="round"/><path d="M137.5 403v-26c0-10-8-10-8 0v26z" fill-rule="evenodd" stroke="#000" stroke-linecap="round" stroke-linejoin="round"/><path d="M168.4 243.301L157.034 265m4.453-35.228L143.034 265m11.429-48.546L129.033 265m11.5-75.406L101.032 265m46.485-62.016L115.034 265m-16.4-21.699L110 265m-4.453-35.228L124 265m-11.429-48.546L138 265m-11.498-75.406L166 265m-46.484-62.016L152 265M96 270h75" fill="none" stroke="#000" stroke-width="3" stroke-linecap="round" stroke-linejoin="round"/><path d="M121.5 343v-26c0-10-8-10-8 0v26zM153.5 343v-26c0-10-8-10-8 0v26z" fill-rule="evenodd" stroke="#000" stroke-linecap="round" stroke-linejoin="round"/><path d="M133.5 167.5c9 0 9 14 0 14s-9-14 0-14zM342.476 26.3c9 0 9 14 0 14s-9-14 0-14zM476.5 96c9 0 9 14 0 14s-9-14 0-14z" fill="#fcdd09" fill-rule="evenodd" stroke="#000" stroke-width="3" stroke-linecap="round" stroke-linejoin="round"/><g><path d="M589 465V270l5-5h-85l5 5v175z" fill="#fff" fill-rule="evenodd" stroke="#000" stroke-width="3" stroke-linecap="round" stroke-linejoin="round"/><path d="M598 265h-93l44-84h5z" fill="#da121a" fill-rule="evenodd" stroke="#000" stroke-width="3" stroke-linecap="round" stroke-linejoin="round"/><path d="M547.5 403v-26c0-10 8-10 8 0v26z" fill-rule="evenodd" stroke="#000" stroke-linecap="round" stroke-linejoin="round"/><path d="M516.6 243.301L527.966 265m-4.453-35.228L541.966 265m-11.429-48.546L555.967 265m-11.5-75.406l39.5 75.406m-46.485-62.016L569.966 265m16.4-21.699L575 265m4.453-35.228L561 265m11.429-48.546L547 265m11.498-75.406L519 265m46.484-62.016L533 265" fill="none" stroke="#000" stroke-width="3" stroke-linecap="round" stroke-linejoin="round"/><path d="M563.5 343v-26c0-10 8-10 8 0v26zM531.5 343v-26c0-10 8-10 8 0v26z" fill-rule="evenodd" stroke="#000" stroke-linecap="round" stroke-linejoin="round"/><path d="M551.5 167.5c-9 0-9 14 0 14s9-14 0-14z" fill="#fcdd09" fill-rule="evenodd" stroke="#000" stroke-width="3" stroke-linecap="round" stroke-linejoin="round"/><path d="M514 270h75" fill="none" stroke="#000" stroke-width="3" stroke-linecap="round" stroke-linejoin="round"/></g><path d="M295.578 198.364L268.701 235m26.762-58.287L252.7 235m43.192-80.682L236.7 235m57.468-100.142L220.701 235m-4.092-103.468l-13.638 18.59m26.97-14.953l-28.76 39.202m44.79-39.243l-45.95 62.634m62.003-62.706l-63.687 86.81m79.633-86.737L204.7 235m-5.223-32.404L223.25 235m-22.55-52.546L239.25 235m-37.158-72.458L255.25 235m-51.79-92.4l67.79 92.4m6.718-99.887l17.337 23.632m-33.451-23.788l33.42 45.554m-49.512-45.68l49.65 67.676m-65.495-67.464l65.463 89.23M204.7 122.482L287.25 235M389.751 198.364L416.629 235m-26.762-58.287L432.629 235m-43.192-80.682L448.629 235M391.16 134.858L464.63 235m4.091-103.468l13.638 18.59m-26.97-14.953l28.76 39.202m-44.79-39.243l45.95 62.634m-62.003-62.706l63.687 86.81m-79.633-86.737L480.63 235m5.223-32.404L462.08 235m22.55-52.546L446.08 235m37.158-72.458L430.08 235m51.789-92.4l-67.79 92.4m-6.718-99.887l-17.337 23.632m33.452-23.788l-33.42 45.554m49.512-45.68l-49.65 67.676m65.495-67.464l-65.464 89.23m90.68-101.792L398.079 235" fill="none" stroke="#000" stroke-width="3" stroke-linecap="round" stroke-linejoin="round"/><g stroke="#000" stroke-width="3" stroke-linecap="round" stroke-linejoin="round"><path d="M206.5 450c-58.5-25.417-124.324 9.41-138.1 52 2.16 26.657 9.817 42.97 15.8 61-4.83-77.034 76.896-122.838 134.3-68 13.535-44.87 62-93 125-93s111.465 48.13 125 93c57.404-54.838 138.93-9.034 134.1 68 5.983-18.03 12.74-31.593 14.9-61-13.776-42.59-78.5-77.417-137-52-33.133-47.82-79-79-137-79s-103.867 31.18-137 79z" fill="#fcdd09" fill-rule="evenodd"/><path d="M75.5 539c7.07-62.2 76.944-105.209 139-61 20.818-48.354 69-88 129-88s108.182 39.646 129 88c62.056-44.209 131.93-1.2 139 61" fill="none"/></g><g><path d="M237.365 481.835c3.58 4.388 9.13 5.072 5.303 13.165-5.985 12.658-31.31 8.394-54.525 11.319-20.799 2.62-39.748 10.088-49.42 19.018-9.076 8.382-14.324 18.566-9.192 30.338 10.376 23.797 39.082 28.796 80.61 19.145l-2.474 11.193c-6.358 17.366-14.26 14.075-22.116 13.066-10.457-1.344-19.36 3.01-16.775 17.271-19.183 9.195-12.31-2.53-13.082-6.529-2.8-.406-5.563 2.141-5.303 6.53.937 15.805 11.815 7.557 18.083 10.11-21.007 5.28-7.578 14.428 4.19 7.755-7.37 9.398-11.915 9.599-19.798 12.472 8.022 8.987 16.616 11.68 26.516 0 1.234 5.775.478 11.328-6.717 16.166 5.303-.252 10.606 1.302 15.91-4.242-3.782 7.973 1.194 6.312 6.659 4.113-3.366 4.05-8.032 8.1-4.184 12.15 6.246-5.266 12.492-10.253 18.738-8.132-1.217 3.108.066 6.252 1.768 10.283-11.758 3.761-12.854 14.266-4.95 11.284 4.336 6.009 16.47-1.923 20.506-11.284 2.502 7.633-.13 18.74 12.374 14.466 7.776-.155 2.632-8.815 0-14.466 3.714 2.02 6.857 7.463 11.413 4.428.772 9.115 1.98 10.153 5.558 8.977 5.9-2.592 6.473-5.185 6.01-7.778 1.901-1.876 5.234-3.751-2.828-5.627-4.353-4.655-15.266-5.21-12.728-14.172 3.3.219 6.6 7.78 9.9-.353l-2.122-7.071c.223-8.263-17.823-5.632-16.97 7.424l-12.728-16.166-8.486-11.41c16.93-.362 34.752.618 38.891-18.928-.147-11.242 8.143-6.896 14.142-12.893 1.793 4.298 4.496 8.596 10.96 12.893 2.14 20.738-4.193 22.456-9.545 30.338-2.37 3.49 4.483 7.95 8.131 11.924 1.853 3.3-4.118 6.6-7.424 9.9 6.766 9.042 11.69 1.51 16.617-6.011-1.388 3.26-2.72 6.691-3.182 12.728 5.472-1.886 7.71-3.772 8.485-5.657l-2.179 7.454-3.478 12.698c8.556-.026 11.84-6.2 14.85-12.698 3.1 4.345 7.25 8.514 4.95 13.759 7.31 1.116 7.057-7.502 8.838-13.76 1.72 7.867 4.057 13.54 6.717 14.82 5.386-2.389 7.88-11.96 16.617-8.485-2.163 6.783-7.077 14.31 4.254 12.778 7.68 6.937 5.518-9.285 9.182-7.12 6.44 3.804 8.663 13.447 13.435 5.656 11.27-3.37.048-9.196-5.304-12.02-.707-4.008 6.25-3.922 9.9-2.122 6.676 3.294 13.266 9.923 11.667-3.89 6.71-17.317-13.363-3.103-17.678-9.899 14.956-4.999 10.007-5.022 2.829-10.606-9.496-9.732-11.715 5.845-14.496 10.96-14.102-5.527-26.192-12.06-34.648-20.409 9.085-10.283 18.587-14.379 12.728-30.338 28.512 23.997 48.51 28.224 89.802 30.338-.895 4.399-.223 8.21 6.364 9.802 0 0 7.646-.04 7.778 0 4.697 1.432 6.026 6.231 3.182 15.203 5.002-2.349 9.43-.387 9.546-14.142 2.343 2.806 7.098 2.797 4.243 11.667 5.31-3.955 3.527-11.045 2.475-15.91 7.805 2.528 13.958 6.945 15.203 16.97 4.655-2.382 11.5-4.698 5.303-18.994 4.36-4.096 8.721-.238 13.081 9.803 5.771-2.762 7.855-6.941 1.415-14.399 6.6-2.542 13.199-3.988 19.799 0-5.33-7.232-8.44-14.305-.707-20.603 7.623-2.736 5.99 20.377 13.435 11.313 16.072-2.004-1.372-19.203 4.95-21.048 8.31-2.424 9.726 3.009 12.02 8.32 2.47 5.717 13.474-1.02 9.9-8.32 3.279-7.59-5.796-9.07-12.021-7.236-4.3 1.268-1.942-13.954 3.182-11.667 4.583 2.045 6.782 1.278 9.546-.354 3.595-2.122 1.445-6.01-1.768-8.485-1.541-2.95-7.749-4.145-11.314.587-5.917 7.854-7.652 3.83-10.253 7.191-2.3 2.971-4.073 3.49-5.303-2.828 2.838-1.282 5.39-4.608 1.889-8.545-4.054-4.561-8.018-3.376-10.642.5-2.865 4.232 5.203 12.576-2.207 15.823-17.824 7.81-13.176 10.067-18.385 15.014H464.7c4.735-4.285 10.75-7.84 9.192-15.721 6.19-.864 11.72 5.317 16.97 2.475-2.045-5.697.642-11.394 3.183-17.091 3.572-3.029 10.03.434 10.253-10.133 3.39-1.86 6.665-3.976 6.364-14.142 5.333 1.183 10.778 3.703 15.203-6.01-4.48 2.346-8.484 2.315-12.021-.053.71-4.459-.59-12.633 3.889-15.504 5.97-3.826 6.802 1.156 10.253 4.95 2.034 2.237 5.045 1.826 4.95-4.243 8.76-5.98 1.776-6.287-1.061-7.424-7.993-3.204-4.642-5.467-2.828-8.117 5.795-8.466 25.102 3.761 16.263-10.268-.475-12.55-10.222-10.212-14.85-2.828-4.363 6.963-8.749-7.272 0-9.9 4.284-1.286 3.64-9.223-6.01-6.041-9.431-3.89-5.583 11.576-9.546 13.82-5.354 3.03-6.748-1.76-4.95-9.193 1.001-4.135 1.13-7.305-6.01-5.303-7.464-3.314-7.238 8.715-5.303 12.374 3.587 6.782 12.878 12.637 8.132 17.34-16.432 16.281-22.441 20.603-32.527 30.337 5.428-6.818 3.483-13.636-1.414-20.453-.834 11.155-5.02 7.752-9.546 9.546-4.204 1.666-6.368-1.282-8.486-5.657-3.384-.506-3.569-4.21-.353-11.314-6.408 2.984-13.23 5.186-16.97-1.414l-9.193-1.046c-9.522-1.082-19.809 8.77-19.092 0 .453-5.545 8-5.32 15.91-6.025 15.84-1.415 23.074-1.713 29.345-4.243 9.298-3.751 6.741-10.278 4.102-14.412-3.643-5.708-10.761-8.296-10.466 0 .213 6-1.822 7.008-7.425 8.048-7.278 1.35-26.185 4.798-28.284.707-5.47-12.319 8.358-8.339 12.374-2.475l2.829-4.596v-8.402c-.801 4.169 1.556-3.3 1.414-7.861-.147-4.711 1.563-10.239-8.469-10.443-14.98-2.462-32.441-3.864-57.174 0-5.172 2.217-6.77 10.686-8.25 19.365-5.22-1.925-6.038-3.325-10.253-8.215-1.878 2.773 1.002 5.557 2.596 8.215l4.829 8.048c-2.829 6.071-5.657 6.832-8.485 6.364.635 9.852 6.887 13.866 13.435 15.925-.351 9.764-5.828 11.474-12.728 10.945 2.582 6.363 9.733 11.672 14.495 4.243.273 5.05-.815 10.1 3.89 15.15-8.84 5.642-17.606 3.52-26.517 0-49.037-19.37-85.687-14.717-127.986 0-20.289 7.059-42.743 6.83-54.801 0-4.516-2.554-9.739-5.712-8.485-13.736 2.063-13.214 18.801-16.405 33.234-16.263 11.38 1.583 23.614 2.312 24.041 14.849 5.054-3.25 10.287-6.424 2.475-15.188 13.293 1.346 24.081 3.049 43.487 3.52 17.689 7.11 38.134 10.02 56.215-3.52l5.303-6.732c17.826 1.846 13.105-12.443 12.021-23.605-.585-6.024.26-12.492 9.9-9.276-1.925-15.466-20.147-9.358-17.678.354-5.303-6.987-10.267-3.837-13.435-9.193-2.238-3.783-.64-14.142 7.778-12.728-3.058-9.157-7.87-8.99-11.313-7.07-3.876 2.16-7.272 7.677-5.657 12.02-10.024 1.951-10.577 8.073-7.425 13.789-4.444.118-6.105.458-9.546 3.889-3.472 3.462-5.505 9.012-2.121 13.518 1.414-5.829 9.492-14.817 19.092 3.452 4.148 7.896-9.986 10.176-18.739 11.314-6.404.833-15.91.15-21.92-.707 4.81-6.454 4.128-12.874 4.596-19.362.874-12.117-7.155-13.295-18.031-13.165z" fill="#fff" fill-rule="evenodd" stroke="#000" stroke-width="3" stroke-linecap="round" stroke-linejoin="round"/><g stroke-width="1.027" stroke="#000"><path d="M-343.533 501l4.829 8.49c-2.829 6.403-5.657 7.205-8.485 6.712.635 10.392 6.887 14.625 13.435 16.798h51.972c.453-5.849 8-5.611 15.91-6.356 15.84-1.492 23.074-1.806 29.345-4.475 9.298-3.957 6.741-10.841 4.102-15.202-3.643-6.02-10.761-8.75-10.466 0 .213 6.329-1.822 7.393-7.425 8.49-7.278 1.424-26.185 5.06-28.284.745-5.47-12.994 8.358-8.796 12.374-2.61l2.829-4.848v-7.864zM-196.93 597c3.573-3.195 10.032.458 10.254-10.688 3.39-1.961 6.665-4.194 6.364-14.917 5.333 1.248 10.778 3.906 15.203-6.34-4.48 2.475-8.484 2.443-12.021-.055h-150.968c-8.838 5.951-17.605 3.713-26.516 0H-482.6c-20.289 7.446-42.743 7.204-54.801 0h-24.042c10.376 25.101 39.082 30.373 80.61 20.193L-483.307 597z" fill="#da121a" fill-rule="evenodd" stroke-width="3.081" stroke-linecap="round" stroke-linejoin="round" transform="matrix(1 0 0 .94805 690.974 20.025)"/><path d="M-435.578 629h25.103" fill="none" transform="matrix(1 0 0 .94805 690.974 20.025)"/><path d="M-371.938 661c9.085-10.847 18.587-15.167 12.728-32h-51.265c2.14 21.874-4.194 23.686-9.546 32z" fill="#da121a" fill-rule="evenodd" stroke-width="3.081" stroke-linecap="round" stroke-linejoin="round" transform="matrix(1 0 0 .94805 690.974 20.025)"/><path d="M-200.818 661c6.6-2.682 13.199-4.206 19.799 0-5.33-7.628-8.44-15.089-.707-21.732 7.623-2.886 5.99 21.493 13.435 11.933 16.071-2.114-1.372-20.255 4.95-22.201 8.31-2.558 9.726 3.173 12.02 8.776 2.47 6.03 13.474-1.076 9.9-8.776h-217.79c28.513 25.311 48.512 29.77 89.803 32z" fill="#da121a" fill-rule="evenodd" stroke-width="3.081" stroke-linecap="round" stroke-linejoin="round" transform="matrix(1 0 0 .94805 690.974 20.025)"/></g><g stroke-linecap="round"><path d="M386.797 445.687c-10.258-3.27-14.116 8.376-2.75 6.692 8.799-1.303.974 11.335-11.607 5.036-3.938 2.126-10.876 5.21-11.814-1.75 8.459-1.225 5.301-12.037-4.492-7.064-8.355-9.737-12.966-.012-7.3 4.657 6.684 5.507 9.426 11.609 14.514 22.377 9.492-1.628 20.384-2.635 28.587-2.635 8.204 0 19.095 1.007 28.587 2.635 5.088-10.768 7.83-16.87 14.514-22.377 5.667-4.67 1.055-14.394-7.3-4.657-9.793-4.973-12.95 5.84-4.492 7.064-.938 6.96-7.876 3.876-11.814 1.75-12.58 6.299-20.406-6.34-11.607-5.036 11.366 1.684 9.508-9.961-.75-6.692.011-4.31-3.08-8.687-6.738-8.687-3.658 0-5.55 4.377-5.538 8.687z" fill="#fcdd09" fill-rule="evenodd" stroke="#000" stroke-width="3" stroke-linejoin="round"/><path d="M309.843 518.605l-5.303 6.732H138.724c9.671-8.93 28.62-16.398 49.42-19.018 23.214-2.925 48.54 1.34 54.524-11.32h12.728c-.468 6.489.214 12.909-4.596 19.363 6.01.858 15.516 1.54 21.92.707 8.753-1.138 22.887-3.418 18.739-11.314-2.157-4.104-4.5-7.058-6.445-8.755h36.905c1.03 11.162 5.75 25.451-12.076 23.605zM262.467 682.653c.463 2.593-.11 5.185-6.01 7.778-3.579 1.176-4.786.138-5.558-8.977-4.556 3.035-7.699-2.41-11.413-4.428 2.632 5.65 7.776 14.31 0 14.466-12.504 4.274-9.872-6.833-12.374-14.466-4.036 9.36-16.17 17.293-20.506 11.284-7.904 2.982-6.808-7.523 4.95-11.284h48.083c8.062 1.875 4.73 3.751 2.828 5.627zM216.505 635.277l8.486 11.411h-72.125c7.883-2.874 12.429-3.075 19.799-12.472-11.77 6.673-25.198-2.476-4.191-7.755-6.268-2.554-17.146 5.695-18.083-10.11l4.717-.009c.14 3.198 2.458 5.38 13.668.008h86.62c-4.139 19.546-21.962 18.566-38.89 18.927z" fill="#da121a" fill-rule="evenodd" stroke="#000" stroke-width="3" stroke-linejoin="round"/><path d="M255.396 616.35c-.147-11.242 8.143-6.896 14.142-12.893 1.793 4.298 4.496 8.595 10.96 12.893" fill="none" stroke="#0000fe"/><path d="M287.923 689.724c8.556-.026 11.84-6.2 14.85-12.698 3.1 4.345 7.25 8.514 4.95 13.759 7.31 1.116 7.057-7.502 8.838-13.76 1.72 7.867 4.057 13.54 6.717 14.82 5.386-2.389 7.88-11.96 16.618-8.485-2.164 6.783-8.078 15.56 4.253 12.778 10.43 9.937 5.518-9.285 9.182-7.12 6.44 3.804 6.663 18.197 13.435 5.656 12.77-5.37.048-9.196-5.304-12.02-.707-4.008 6.25-3.922 9.9-2.122 6.676 3.294 13.266 9.923 11.667-3.89l-91.628.384zM545.31 515.069c-.475-12.55-10.222-10.212-14.85-2.828-4.363 6.963-8.749-7.272 0-9.9 4.284-1.286 3.64-9.223-6.01-6.041-9.431-3.89-5.583 11.576-9.546 13.82-5.354 3.03-6.748-1.76-4.95-9.193 1.001-4.135 1.13-7.305-6.01-5.303-7.464-3.314-7.238 8.715-5.303 12.374 3.587 6.782 12.878 12.637 8.132 17.34h22.274c5.795-8.467 25.102 3.76 16.263-10.269z" fill="#da121a" fill-rule="evenodd" stroke="#000" stroke-width="3" stroke-linejoin="round"/><path d="M343.474 679c-4.641-.936-9.484-1.063-13.5-4.5m-5-4c-5.48.27-11.38.12-13 4.25m5-9.75c-5.694 1.318-11.128 1.986-15.5 0m8-6c-3.5 1.577-7 .74-10.5-1m153.174-122.51c-3.421 2.287-10.482 4.78-4.674 9.01 3.795 2.764 9.043 2.595 9 6.5m51.5-12.5l2 12m5-19.5c-1.962 2.792-5.811 5.962-1.5 7.5m-14.5 6.5c1.069 8.558 3.658 11.033 6 14.5m-13-5c1.798 8.31 3.88 15.483 7 18.5m-14-15c1.376 8.205 3 15.67 7 16m-11.5 58.5c6.995-2.067 8.333 9.67 12.5 9 .285-5.333-2.707-10.667 4.5-16m-15-37l-2.5 8.5m-9-16l-.5 16.5m-48.5 32.5c4.996 3.8 8.617 7.877 7 13 6.5 13.292 18-.882 26.75-5.25.086 7.273 11.21 7.4 9.228-4.06 4.347 5.304 8.817 11.217 9.272-2.94m-204.143-39.092c9.47 8.51 23.777 15.339 18.893 28.842m-5.259-27.279c14.43 10.521 20.492 21.341 16.259 32.529m-6.408-31.076c8.274 5.123 15.126 10.957 19.408 18.076m10 15.75c-3.133 5.707-7.827 3.411-7.81 5.998.104 15.267-5.05 9.03-9.44 7.252m-69.75-20.25c-6.242 5.576-22.953 7.047-19 14m1.5-15.5c-7.518-1.221-4.5 6.75-12 9m0-9.5c-4.132-.251-3.5 4-3.5 4m115-50c3.938 5.521 4.906 11.11 11.814 8.13 5.878-2.535 5.781 4.909 6.024 7.657 3.054-7.603 5.774-6.184 8.162 4.213m106.5 3.75c3.083-6.061 6.347-10.692 9.25-9.5 2.96 1.215 2.169 6.31-.5 12.75m9.75-42c12.546 5.381 9.547 15.62 12.5 24m-31.5-22.5c12.085 4.789 3.386 11.808 9 21.5m-19-25c2.462 11.451.694 21.21-3.5 30m-37.5-21.5c1.667-4.683 3.333-4.603 5-5.5 1.667 3.333 1.667 6.667 0 10 2.333.804 4.667-.637 7-4.5-1.068 3.167-2.044 6.333-.5 9.5 1.46 2.994 2.35 6.43 5.5 1.75 2.336 5.936 5.778 9.5 12.75 5.5m-8.75-34.75c5.002 3.86.793 12.757 6.5 13m-14.5-21.75c4.714-.747 10.237-.55 11.142-5.74 4.787 2.052 9.574-.18 14.36-6.127M370.974 520c-1.113 3.333-1.209 6.667 1 10m-6.5-10.5c-1.622 4.485-.619 8.095 1.75 11.25m-5-28.5c5.164 3.595-3.13 7.761 1.75 10.75m13 20.25c-2.376 15.24 8.476 13.505 12 25m12.25-41.75c-2.885-3.083-1.471-6.167-.5-9.25m-5.5 16.5c1.836 10.94 7.578 8.33 13 11.5m10.255-23.914c-12.237.715-19.246 12.716-9.287 14.001M384.974 502c6.305 6.282 11.392 3.64 15.699-4.73 1.512 2.172 4.305 2.849 9.805.368-4.993 3.358-4.814 8.598-2.504 14.612m10.75-30.5c3.65-.217 6.683 1.94 2.25 4.25m-32-2c7.75-.535 9.25-5.076 12-5.5 2.833 1.138 3.167 4.966 8.5 6-6.25.047-5.795 5.732-9 5.5-3.879-.281-2.417-6.428-11.5-6m-8.5-2.5c-5.167-.386-11.866-14.699-15.5 10-.694 4.717 1.813 9.64 6.5 7 4.156-2.341 1.906-7.13 1.75-11.25m44.527 126.005l6.363-12.36c-.955 6.747 2.775 12.156 6.36 17.605 2.333-.055 4.667-1.837 7-9.5 6.204 3.623 1.69 13.104-1.75 22 9.722-5.722 17.352-12.49 16.5-23.5-5.63-11.143-6.969.03-9.5 5m-37.75-19.5c-1.544 8.269 5.306 10.139 6.035 15.53.682 5.04-.053 10.318-3.035 15.97 11.276-4.252 10.634-13.523 9.5-23m-37.59-21.368c7.897 10.693 10.734 18.776-1.91 18.868 8.315 8.53 15.66 9.784 20-11.5-.437 8.543-2.93 18.407 5.5 21.25m-38.75-31.5c12.71 12.73 20.558-.925 20.25-11.25 3.333 5.05 6.667 11.047 10 11m-51.161-18.838c7.533 3.622 13.738 16.144 25.661 3.838 5.684 10.528.394 13.074-8.5 13 5.833 2.018 11.667 2.845 17.5-5m-81 21.5l-3.552-8.295c5.617 3.371 11.235 8.747 16.852.633 2.188 7.362 6.444 10.589 13.297 8.62.917 5.875 5.813 6.277 12.032 4.861 5.624 8.53 11.247 17.205 16.871 8.181-1.588 8.148-2.165 15.227 8.05 10.916-4.158 12.687 3.156 10.28 11.45 6.584 4.882 6.224 9.725 12.71 17.857-2.513 1.6 4.412 3.435 8.125 7.659 4.666-1.322 15.512 4.559 11.363 6.335 3.86 1.161 8.573 5.82 5.252 10.206 2.861 2.779 3.898 5.95 8.12 7.193 15.126m-130.25-11.5c2.951 10.046-5.968 7.196-8.173 10.305-2.757 3.89-1.362 6.715 8.173 10.195m-95.5-4.312c-5.22 1.39-6.02 4.254-7.4 6.924m-5.6-25.112c-2.207 5.703 1.44 4.966 5.802 3.442.286 5.548 2.233 7.442 5.853 5.656 3.243 3.264 5.945 9.774 9.785 9.456 1.782 4.501 3.652 8.561 6.743 6.516l4.067 3.93m-3.25-62.5c-12.166 10.76-24.745 2.585-31.933 7.596-5.74 4.001-4.954 10.854-4.817 20.904m69.25-61.5c.641 6.65-2.134 11.308-9.49 13.295.223 3.818 2.29 8.373-3.768 9.68 3.481 3.62-6.932 11.081-1.742 16.275m52-33.75c-24.478 6.23-21.42 27.09-26.078 43.85m15.578-52.85c-13.882 12.628-25.05 26.79-23.75 48m-10.25-92.5c-16.513 3.907-39.263-3.849-57.752-1.517-20.484 2.583-36.965 9.568-39.248 24.017m99.066 5.304c-13.683 7.469-23.874 16.55-28.899 28.016M306.474 510c-6.872 15.706-15.645 18.638-26.913 24.712m12.643-28.25c5.053 16.436-19.06 24.025-43.879 22.396m35.71-45.962c9.472 3.65 12.788 10.72 16.439 17.604m-9.015-31.393c-.872 10.77 4 12.515 7.515 16.393m149.5 149.5c-.845-5.76 3.099-7.33 7.5-8.5m-186.436-23.043c1.8-3.933 5.075-7.866.543-11.799 13.432-4.15 18.083 10.327 27.393-.158 2.867-3.229 28.147 13.72 34.29 24.85" fill="none" stroke="#000" stroke-width="3" stroke-linejoin="round"/><path d="M522.518 493.848c.778 5.122 9.003 5.153 8.46 3.647-1.703-4.735 1.04-8.664 1.604-14.264-5.422-.684-10.664 6.666-10.064 10.617zM544.005 508.013c-3.53 3.791 1.554 10.256 2.398 8.895 2.652-4.277 7.435-4.568 12.173-7.604-2.832-4.674-11.847-4.216-14.571-1.291zM501.27 492.7c.16 5.178 8.321 6.193 7.963 4.632-1.125-4.904 2.068-8.477 3.298-13.97-5.302-1.327-11.385 5.343-11.261 9.338zM534.006 546.744c-3.747-3.577.948-10.33 1.87-9.02 2.9 4.112 7.691 4.121 12.6 6.873-2.552 4.833-11.579 4.907-14.47 2.147zM548.646 585.717c-3.383 3.923 1.944 10.189 2.736 8.797 2.487-4.375 7.255-4.848 11.874-8.063-3.009-4.563-12-3.761-14.61-.734zM551.449 614.396c-5.07 1.061-4.646 9.274-3.172 8.65 4.633-1.964 8.708.557 14.33.81.383-5.451-7.246-10.278-11.158-9.46zM513.998 581.796c.16 5.178 8.321 6.192 7.963 4.632-1.125-4.905 2.068-8.478 3.298-13.97-5.302-1.327-11.385 5.343-11.261 9.338zM521.754 639.17c-1.245-5.029 6.339-8.21 6.416-6.61.241 5.025 4.28 7.603 6.948 12.558-4.746 2.71-12.404-2.068-13.364-5.948zM385.559 671.941c-5.16.468-4.186 9.176-2.65 8.725 4.83-1.415 8.585 1.56 14.14 2.46 1.01-5.37-7.51-11.546-11.49-11.185zM371.12 691.737c-4.813-1.92-9 5.16-7.426 5.454 4.946.925 6.948 5.279 11.493 8.598 3.333-4.331-.355-12.57-4.068-14.052zM367.81 652.958c-4.042 3.241 1.305 8.873 2.337 7.648 3.242-3.848 7.767-4.945 13.144-5.765-2.127-5.034-12.364-4.384-15.482-1.883zM338.767 696.267c2.195-4.692 10.092-2.395 9.146-1.103-2.974 4.06-1.455 8.604-2.499 14.134-5.394-.878-8.342-9.41-6.647-13.03zM263.686 682.867c-5.098-.924-6.48 7.728-4.88 7.703 5.032-.077 7.86 3.792 12.975 6.14 2.404-4.908-4.162-13.13-8.095-13.843zM242.661 692.85c-1.931-4.808-10.17-2.775-9.07-1.61 3.98 4.218 4.28 6.67 1.208 12.25 5.434-.576 9.352-6.931 7.862-10.64zM257.59 655.28c-5.173-.3-4.977 7.462-3.39 7.244 4.985-.684 9.079 1.534 13.62 4.529 1.794-5.163-6.24-11.54-10.23-11.772zM204.023 687.798c3.358-3.944 10.366.36 9.112 1.356-3.942 3.128-.18 6.912-2.649 11.97-4.97-2.275-9.055-10.283-6.463-13.326z" fill="#da121a" fill-rule="evenodd" stroke="#000" stroke-width="3" stroke-linejoin="round"/></g><path d="M400.5 480c6.162 2.21 5.532 9.87-.354 10.621-9.154-5.449-4.14-9.071.354-10.621z" fill-rule="evenodd"/></g></svg>