<!-- Created with Inkscape (http://www.inkscape.org/) -->
<svg xmlns:rdf="http://www.w3.org/1999/02/22-rdf-syntax-ns#" xmlns="http://www.w3.org/2000/svg" height="496" width="427" version="1.1" xmlns:cc="http://creativecommons.org/ns#" xmlns:xlink="http://www.w3.org/1999/xlink" xmlns:dc="http://purl.org/dc/elements/1.1/">
 <defs></defs>
 <metadata>
  <rdf:RDF>
   <cc:Work rdf:about="">
    <dc:format>image/svg+xml</dc:format>
    <dc:type rdf:resource="http://purl.org/dc/dcmitype/StillImage"/>
    <dc:title/>
   </cc:Work>
  </rdf:RDF>
 </metadata>
 <g transform="translate(0,24)">
  <path stroke-linejoin="miter" d="m7-19.14,415,0l-2,241.14c0,90-100,195-205,240-110-45-205-150-205-240z" stroke="#000" stroke-linecap="butt" stroke-miterlimit="4" stroke-dasharray="none" stroke-width="8" fill="#da121a"/>
  <rect id="rect3819" width="15" transform="translate(0,-24)" height="15" y="15.5" x="54" fill="#fcdd09"/>
  <use xlink:href="#rect3819" transform="translate(64,53)" height="496" width="427" y="0" x="0"/>
  <use xlink:href="#rect3819" transform="translate(46.5,167)" height="496" width="427" y="0" x="0"/>
  <use xlink:href="#rect3819" transform="translate(-13,166.5)" height="496" width="427" y="0" x="0"/>
  <use xlink:href="#rect3819" transform="translate(244.5,168)" height="496" width="427" y="0" x="0"/>
  <use xlink:href="#rect3819" transform="translate(264.5,54.5)" height="496" width="427" y="0" x="0"/>
  <use xlink:href="#rect3819" transform="translate(212.5,-1.5)" height="496" width="427" y="0" x="0"/>
  <use xlink:href="#rect3819" transform="translate(301,-1.5)" height="496" width="427" y="0" x="0"/>
  <use xlink:href="#rect3819" transform="translate(101.5,-0.5)" height="496" width="427" y="0" x="0"/>
  <use xlink:href="#rect3819" transform="translate(313.5,167.5)" height="496" width="427" y="0" x="0"/>
  <use xlink:href="#rect3819" transform="translate(87,294)" height="496" width="427" y="0" x="0"/>
  <use xlink:href="#rect3819" transform="translate(178,297.5)" height="496" width="427" y="0" x="0"/>
  <path stroke-linejoin="round" d="M48.5,109c-0.295-13.176,17.06-1.94,19.732-13.414,3.861-16.575-19.87-22.253-13.232-33.086,6.2215,0.80954,12.365,2.8071,19-8,8-1.7923,0.79289,29.683,11.293,34.111,4.211-17.811-3.846-19.971,5.707-33.111,6.3437,4.5501,8.4319,9.2777,17.022,7.5255,16.57,6.5511-22.36,19.228-4.7546,38.974,6.1408,6.8876,13.674,13.316,14.693,21.091,18.957,11.386,25.712,27.773,36.789,39.409-2.7958-14.432,15.276-27.197,11.25-40.25,9.8333,0.37469,21.167-10.975,31-17.75-7.9392-2.8896-17.381-6.279-13.5-11,10.648-4.3047,19.55-5.9726,26-4,10.467,3.2011,2.5336-9.6667,1.5-14.5-17.727-3.9698-20.509,4.4937-29,7.5-6.9697,2.4675-14.754-8.9217-12.5-15.5-4.5258-4.2948-8.9382-7.0124-5-13.5,9.8333-10.348,18.667-12.72,28.5-14,8.0078-8.6222,18.799-12.911,36.146-12.268,3.36-4.099,2.41-11.916,12.85-9.732,10.509,2.1984,1.9774,8.9794,2.5,16,2.3321-5.5102,3.6257-16.316,7.5-12.5,6.0953,6.0036,2.2325,8.8333,1,14.5,7.8333,5.4789,15.667,13.94,23.5,12-1.6583,8.1862-6.9069,7.9951-12.5,7,8.8333,5.8084,8.6667,26.056,13,28l-8,2.5c7.0551,4.6116-1.1715,33.505,10,34.5-6.0693,2.3896-8.5571,8.1048-17-2,0.00097,8.0335-3.9654,15.274,2,24.5-7.3816,0.89939-15.043,0.99039-18.5-12.5,0.54558,11.167,1.6412,22.333,10,33.5l-11.5-4c8.938,32.237,27.454,43.279,46.5,71.5,14.817,21.955,20.292,45.801,38,48.379,18.921,2.7539,25.592-16.707,20.879-34.379-5.73-21.47-14.75-36.3-17.88-63.5-3.4071-29.616,9.6644-45.558,18.5-69,5.4755-14.527,10.204-36.341,1.5-51.5-13.799-24.032-42.991-22.628-53,2-9.4929,23.358,26.094,59.667,16.5,78-6.2209,11.887-30.528,29.52-6,32.5-2.321,14.063-25.424,5.7988-21-9,4.6585-15.582,8.3968-21.105,11.5-31-5.1336,3.8347-14.176,11.714-18,9,9.4212-4.7629,10.306-24.465,15-37.5-7.4486-10.864-10.881-22.303-9-34.5-2.2977,1.1667-2.5749,2.3333-8.5,3.5,8.1618-14.911,12.194-34.58,35.293-40.207,27.48-6.694,50.22,12.354,54.21,35.207,5.7131,35.223-17.72,62.539-17,81.5,1.2557-23.384,34.56-17.306,25.5-46.243,10.93-3.1704,17.664,8.9047,5,24.743-10.081,12.607-23.465,25.507-24,40.5,6.3333-6.5218,12.667-13.551,19,2-26.66,5.9198-17.613,29.943-17.5,48,2.5138-9.1196,14.622-25.874,26.768-7.2322-22.302,2.6072-5.5634,22.04-18.768,37.732,0.8208,8.184,4.0416,15.368-3,17,0.45692,7.1011-2.6193,10.667-10.5,16,9.7788,1.9,15.419,7.7043,14,18.5-3.8333-6.9084-7.6667-6.3404-11.5-4,10.863,10.23,11.545,19.695-1.5607,23.268-2.36-17.99-11.24-19.92-21.44-19.77-13.17,0.2-18.09-5.39-23.5-10.5,2.3381,13.37,0.99451,24.066-2.5,32.5-2.9464,7.1112-1.2265,9.2332,6,13.5-0.90651,2.021-8.9166-5.206-11,4-2.2056,9.7459,24.642,8.5258,23.121,24-0.94896,9.6556-18.927,25.19-34.621,39-4.508,3.9668,11.729,21.828,3.5,18-8.2417-3.8339-10.127-1.7672-17,0.5-11.867,3.9144,3.9175-16.392-3.5-16.5-13.765-0.20052-15.599,26.39-27,18.5,3.4159-6.486-3.4811-11.253-7.5-16.5-1.131-9.2917,21.957-2.8367,23.5-9.5,1.993-8.6058-28.886-1.2494-18.5-8.5,10.111-7.0582,8.1856-2.4621,10.5-11.5,8.9855-14.108,11.3,25.034,31,7,18.927-17.327,1.2246-20.369-1.5-29.5,1.2304,7.0531,3.9111,15.315-2.5,16,1.8187-7.3333-7.5434-14.667-13-22-3.588,0.20136-4.5075,4.4054-5.5,8.5-26.394-40.752,3.7441-34.997,4.5-64.5-21.13-0.42796-44.489-3.0265-50.5,18.5-4.6371,16.606,18.727,29.149,13.268,36.061-9.3679,11.861-26.004,11.085-38,18.061-23.52,13.68,2.53,31.49-10.27,30.38-5.9486-2.6916-15.212-3.8846-19.828,1.4142-10.618-4.8811,12.275-8.0121-3.5251-22.646-9.19-8.51-17.81,16.38-28.14,7.24,7.0365-6.1667-1.5324-12.333-7.5-18.5,0.83222-11.321,14.733,7.8599,22.879-4.7071,3.5-5.39-24.78-6.73-11.88-16.79,4.226-0.0844,5.5021,2.1815,8.5-6.5,9.4368-10.924,9.8254,26.935,35.146,16.086,11.14-4.78,17.28-10.74,14.85-20.09-3.0532,7.0675-7.1226,9.0539-11.5,9.5,2.568-4.4579,3.5555-11.444-0.5-26.5-0.6558,9.2521-5.0199,13.736-15,11,0.77066-9.5461,10.358-23.314,1.5-27.5,13.195-9.1623,11.169-28.852,41-19.5,6.0268-3.656,11.295-9.3057,35.975-11.146-16.07-4.38-34.07-10.36-45.98-22.85-11.42-11.98,3.38-14.33-4.5-36.5,1.9851,27.198-11.968,33.554-27,38.5-4.1062-1.3919,2.6106-8.4908,1.5-13.5-7.1336,2.6165-18.563,6.544-26.5,12,3.5551-3.3253,4.7719-5.5396,7-11.5-11.047,4.28-23.686,8.1618-24.5,15l-2.5-11c-11.18,2.9968-12.816,8.3794-13.5,14,1.9234-19.821-17.377,1.9079-29.586-1.6716-4.8328-1.417,6.4747,27.6-7.7678,18.354-3.833-4.87-7.313-4.55-11.146-3.18-19.387-0.094,5.9653-8.9879,2.5-19.5-1.3811-4.1896-18.874,20.569-22.207,5,2.4933-5,6.8076-10-2.2929-15-2.6749-10.528,21.075,7.1522,23.5-2,1.3355-7.0106-23.499-7.1718-16.5-14.5,4.6442-3.3004,10.871-0.66344,9.5-12.5,9.1947-19.826,8.2851,33.112,28.5,20.5,25.771-16.078,62.184-25.948,69-46-7-1.7032-10.5-0.95275-17.5,4-5-10.106-10-6.2353-15-8,9.1323-8.8011-21.79-39.383-38-54.172-9.51-8.68-15.905-6.23-25.5,0.67,2.258-5.59-1.826-11.56-7.5-14.5z" transform="translate(0,-24)" stroke="#000" stroke-linecap="round" stroke-miterlimit="4" stroke-dasharray="none" stroke-width="5" fill="#FFF"/>
  <path stroke-linejoin="miter" d="m163.5,86.75c5.144-1.0309,6.7376,9.8575,12.75,3.25,9.4446-10.379,32.398-14.037,32.5-6.5,0.0638,4.6909-23.236,2.8867-28.5,13-4.4185,8.4885-11.557,8.9485-16.25,5.5-4.5526-3.3452-8.632-13.62-0.5-15.25z" transform="translate(0,-24)" stroke="#000" stroke-linecap="butt" stroke-miterlimit="4" stroke-dasharray="none" stroke-width="5" fill="#fcdd09"/>
  <rect transform="translate(0,-24)" height="17" width="347" y="136" x="40" fill="#000"/>
  <rect id="rect3883" width="15" height="77.5" y="126.73" x="69.854" fill="#000"/>
  <use xlink:href="#rect3883" transform="translate(264.26257,-0.08838834)" height="496" width="427" y="0" x="0"/>
  <use xlink:href="#rect3883" transform="translate(65.146447,0.00260196)" height="496" width="427" y="0" x="0"/>
  <use xlink:href="#rect3883" transform="translate(133.64645,-4.4701786e-8)" height="496" width="427" y="0" x="0"/>
  <use xlink:href="#rect3883" transform="translate(200.32323,0.03033006)" height="496" width="427" y="0" x="0"/>
  <path stroke-linejoin="round" d="m114.76,100.54,0.48097,1.4185m-6.981-0.41852,0.48097,1.6685m132.32,139.16c8.1142,0.86776,26.209,17.743,26.997,27.228m47.602,64.696c1.939,4.0136,3.9234,8.0084-5.1759,16.621m-54.92-299.12c-1.1805,6.8657-2.5578,13.338-8.3579,10.964m-59.878,35.351c-5.4814,8.6348-17.11,4.2683-21.793,14.146m30.632-31.471c22.157,3.6318,18.317-5.6626,12.429-13.206-6.974,4.8602-9.9862,8.928-12.301,12.856m-95.342,19.99,0.73097,2.1685m118.93,5.3609c-1.8565,8.6624,1.0454,19.741,8.9663,23.692m21.751-36.782c-7.0656,8.3837-5.3153,13.642-4.1152,19.096m7.0043-41.107c-1.4452,12.318-14.881,16.733-17.396,32.787-3.0976-2.1067-5.1363-5.2722-2.6292-12.984m19.172-82.439c-1.2539,3.5672-8.8717,5.4646-8.0043-0.7028m-5.7487,24.282c8.2307,11.063,10.879,24.102,4.8525,36.241-2.0016,4.0313-3.4927-10.68-7.5044-6.4104-8.15,8.6736-10.183,14.108-11.631,21.031l-2.5599-12.673m-55.87-44.71c6.4958,1.5853,8.9909,11.098,1.1881,14.146m53.282-4.9437c-4.9462-5.1671-9.4348-9.9439-16.97-5.9113-2.7958,1.4963-1.5028-10.311-10.529-15.082,5.4377,0.07259,12.643,8.7971,18.081,0.4914m6.56,74.525c-7.6246,6.1077-19.47,8.5973-21.221,19.74-5.8685-2.9173-1.6452-9.619-0.57226-15.139" stroke="#000" stroke-linecap="round" stroke-miterlimit="4" stroke-dasharray="none" stroke-width="5" fill="none"/>
  <path stroke-linejoin="round" d="m32.31,89.942c6.3622,8.8971,16.112,8.6861,23.823,6.7646,9.0967-2.2667-1.5906-20.023-6.187-13.574-3.6268,5.0888-9.7339,6.1442-17.636,6.809z" stroke="#000" stroke-linecap="round" stroke-miterlimit="4" stroke-dasharray="none" stroke-width="5" fill="#FFF"/>
  <path stroke-linejoin="round" d="m48.706,257.11c10.485,3.1154,18.051-3.0383,22.957-9.2897,5.7878-7.375-13.551-14.826-13.218-6.914,0.26234,6.2434-3.9096,10.827-9.7384,16.204z" stroke="#000" stroke-linecap="round" stroke-miterlimit="4" stroke-dasharray="none" stroke-width="5" fill="#FFF"/>
  <path stroke-linejoin="round" d="m162.44,389.78c10.937-0.14681,16.328-8.2737,19.151-15.702,3.3301-8.7635-17.35-10.121-14.677-2.6659,2.1089,5.8823-0.50966,11.5-4.4735,18.368z" stroke="#000" stroke-linecap="round" stroke-miterlimit="4" stroke-dasharray="none" stroke-width="5" fill="#FFF"/>
  <path stroke-linejoin="round" d="m270.96,414.49c10.834,1.5021,17.388-5.7201,21.297-12.639,4.612-8.162-15.628-12.618-14.108-4.8461,1.1989,6.1328-2.2358,11.292-7.1889,17.485z" stroke="#000" stroke-linecap="round" stroke-miterlimit="4" stroke-dasharray="none" stroke-width="5" fill="#FFF"/>
  <path stroke-linejoin="round" d="m113.7,364.08c-1.9445-10.764,5.0032-17.607,11.756-21.797,7.9663-4.9424,13.248,15.098,5.4198,13.898-6.1768-0.94676-11.191,2.6964-17.176,7.8989z" stroke="#000" stroke-linecap="round" stroke-miterlimit="4" stroke-dasharray="none" stroke-width="5" fill="#FFF"/>
  <path stroke-linejoin="round" d="m228.66,406.22c-1.9445-10.764,5.0032-17.607,11.756-21.797,7.9663-4.9424,13.248,15.098,5.4198,13.898-6.1768-0.94676-11.191,2.6964-17.176,7.8989z" stroke="#000" stroke-linecap="round" stroke-miterlimit="4" stroke-dasharray="none" stroke-width="5" fill="#FFF"/>
  <path stroke-linejoin="round" d="m24.302,235.8c-1.9445-10.764,5.0032-17.607,11.756-21.797,7.9663-4.9424,13.248,15.098,5.4198,13.898-6.1768-0.94676-11.191,2.6964-17.176,7.8989z" stroke="#000" stroke-linecap="round" stroke-miterlimit="4" stroke-dasharray="none" stroke-width="5" fill="#FFF"/>
  <path stroke-linejoin="round" d="m228.65,358.13c6.231-8.9894,15.983-8.9213,23.721-7.1131,9.129,2.1332-1.297,20.044-5.9873,13.663-3.701-5.035-9.8229-6.0009-17.734-6.5498z" stroke="#000" stroke-linecap="round" stroke-miterlimit="4" stroke-dasharray="none" stroke-width="5" fill="#FFF"/>
  <path stroke-linejoin="round" d="m119.4,309.59c8.992-6.2274,18.099-2.7376,24.708,1.6738,7.7977,5.2043-8.256,18.311-10.406,10.689-1.6962-6.0143-7.0886-9.0693-14.303-12.362z" stroke="#000" stroke-linecap="round" stroke-miterlimit="4" stroke-dasharray="none" stroke-width="5" fill="#FFF"/>
  <path stroke-linejoin="round" d="m28.753,188.53c6.231-8.9894,15.983-8.9213,23.721-7.1131,9.129,2.1332-1.297,20.044-5.9873,13.663-3.701-5.035-9.8229-6.0009-17.734-6.5498z" stroke="#000" stroke-linecap="round" stroke-miterlimit="4" stroke-dasharray="none" stroke-width="5" fill="#FFF"/>
  <path stroke-linejoin="round" d="m48.594,23.797c10.453-3.2214,18.08,2.8554,23.049,9.0569,5.8621,7.316-13.4,14.963-13.147,7.0475,0.19912-6.2457-4.019-10.786-9.9019-16.104z" stroke="#000" stroke-linecap="round" stroke-miterlimit="4" stroke-dasharray="none" stroke-width="5" fill="#FFF"/>
  <path stroke-linejoin="round" d="m103.14,16.448c8.3092,7.1129,7.2497,16.808,4.664,24.322-3.0504,8.8647-19.808-3.3286-12.983-7.3457,5.3853-3.1698,6.9687-9.1617,8.3193-16.976z" stroke="#000" stroke-linecap="round" stroke-miterlimit="4" stroke-dasharray="none" stroke-width="5" fill="#FFF"/>
 </g>
</svg>
