<svg width="275" height="79" viewBox="0 0 275 79" version="1.1" xmlns="http://www.w3.org/2000/svg"><g id="Page-1" stroke="none" stroke-width="1" fill="none" fill-rule="evenodd"><g id="gz-logo" fill-rule="nonzero"><path d="M.06 78.37H247.5L275 43S116.17-37.74 36 23.16v18.49H18.26V60H0l.06 18.37z" id="Shape" fill="#000"/><path d="M9.3 68.68h3.63v5.87a6.75 6.75 0 0 1-3 .57c-3.6 0-5.51-2.44-5.51-5.76s1.91-5.77 5.51-5.77a7.41 7.41 0 0 1 2.73.48l-.11 1.85a5 5 0 0 0-2.59-.69c-2.18 0-3.36 1.8-3.36 4.13 0 2.52 1.14 4.12 3.25 4.12a3.41 3.41 0 0 0 1.19-.2v-3H9.3v-1.6zm9.46-4.93h5.9v1.64h-3.84v2.99h3.63v1.64h-3.63v3.3h4v1.64h-6.06zm20.34 1.87h-.03l-2.81 9.34H34.8l-2.68-9.34h-.04v9.34h-1.86V63.75h3.07l2.31 8.37h.03l2.36-8.37h2.97v11.21H39.1zm7.78-1.87h5.89v1.64h-3.84v2.99h3.63v1.64h-3.63v3.3h4v1.64h-6.05z" id="Shape" fill="#FFF"/><path id="Rectangle-path" fill="#FFF" d="M58.37 63.75h2.06v11.21h-2.06z"/><path id="Shape" fill="#FFF" d="M66.31 63.75h2.44l3.72 8.8h.04v-8.8h1.86v11.21h-2.46l-3.71-8.73h-.03v8.73h-1.86zm13.76 9.04a4.57 4.57 0 0 0 2.38.69 1.55 1.55 0 0 0 1.7-1.62c0-.8-.47-1.15-1.46-1.7l-1.05-.58a3.16 3.16 0 0 1-1.83-2.94c0-2 1.66-3.05 3.54-3.05a7.47 7.47 0 0 1 2.34.4l-.1 1.72a5.32 5.32 0 0 0-2.1-.48c-1 0-1.56.55-1.56 1.32s.57 1.15 1.19 1.51l1.21.67a3.06 3.06 0 0 1 1.94 3c0 2.28-1.62 3.37-3.76 3.37a5.21 5.21 0 0 1-2.55-.49l.11-1.82zm18.67 1.93a6.06 6.06 0 0 1-2.42.4c-3.4 0-5.16-2.49-5.16-5.76 0-3.27 1.76-5.77 5.09-5.77a7 7 0 0 1 2.49.47l-.11 1.85a4.23 4.23 0 0 0-2.12-.62c-1.7 0-3.16 1.16-3.16 4.07s1.46 4.06 3.16 4.06a3.44 3.44 0 0 0 2.12-.58l.11 1.88zm5.3-10.97h2.06v4.56h3.32v-4.56h2.06v11.21h-2.06v-4.94h-3.32v4.94h-2.06zM123 72.26h-3.85l-.8 2.7h-2.06l3.76-11.21h2.25L126 75h-2.12l-.88-2.74zm-.43-1.57l-1.41-5.23-1.55 5.23h2.96zm8.25-6.94h5.67v1.64h-3.62v3.05h3.46v1.64h-3.46v4.88h-2.05zm12.84 1.64h-2.5v-1.64h7.05v1.64h-2.49v9.57h-2.06zm9.49 7.4a4.53 4.53 0 0 0 2.37.69 1.55 1.55 0 0 0 1.71-1.62c0-.8-.47-1.15-1.46-1.7l-1-.58a3.14 3.14 0 0 1-1.83-2.94c0-2 1.65-3.05 3.53-3.05a7.55 7.55 0 0 1 2.35.4l-.1 1.72a5.37 5.37 0 0 0-2.1-.48c-1 0-1.56.55-1.56 1.32s.56 1.15 1.19 1.51l1.2.67a3.06 3.06 0 0 1 2 3c0 2.28-1.63 3.37-3.76 3.37a5.18 5.18 0 0 1-2.55-.49l.01-1.82zm11.01.37l4.42-7.77h-4.29v-1.64h6.68v1.71l-4.46 7.86h4.53v1.64h-6.88zm12.12-9.41h5.9v1.64h-3.84v2.99h3.63v1.64h-3.63v3.3h4v1.64h-6.06zm11.46 0h2.44l3.73 8.8h.03v-8.8h1.86v11.21h-2.45l-3.71-8.73h-.04v8.73h-1.86zm15.54 1.64h-2.5v-1.64h7.05v1.64h-2.49v9.57h-2.06zm9.48-1.64h3.5c2 0 3.34.9 3.34 3a2.51 2.51 0 0 1-2.16 2.63v.05c.41.06.88.26 1.23 1.3l1.46 4.27H218l-1.11-3.64a1.45 1.45 0 0 0-1.56-1.18h-.46V75h-2.06l-.05-11.25zm2.89 4.89a1.62 1.62 0 0 0 1.84-1.71c0-1.28-.68-1.6-1.84-1.6h-.83v3.31h.83zm9.6-4.89h5.9v1.64h-3.84v2.99h3.63v1.64h-3.63v3.3h3.99v1.64h-6.05zm11.46 0h2.44l3.73 8.8h.03v-8.8h1.86v11.21h-2.45l-3.71-8.73h-.04v8.73h-1.86zM23.06 55.01l4.42-7.77h-4.29V45.6h6.68v1.7l-4.47 7.87h4.53v1.64h-6.87zM37 45.6v7.26c0 1.86.57 2.47 1.77 2.47 1.2 0 1.75-.61 1.75-2.47V45.6h2.06v7.26c0 2.95-1.7 4.11-3.81 4.11-2.11 0-3.82-1.16-3.82-4.11V45.6H37zm-.35-2.8h1.54v1.77h-1.54V42.8zm2.7 0h1.54v1.77h-1.54V42.8zm9.02 2.8h3.5c2 0 3.34.9 3.34 2.95a2.53 2.53 0 0 1-2.17 2.64v.05c.42.06.88.25 1.24 1.3l1.46 4.27h-2.19l-1.1-3.65a1.47 1.47 0 0 0-1.56-1.17h-.47v4.82h-2l-.05-11.21zm2.89 4.88a1.61 1.61 0 0 0 1.83-1.7c0-1.29-.68-1.61-1.83-1.61h-.84v3.31h.84zm16.55 6.09a6.29 6.29 0 0 1-2.42.4c-3.41 0-5.16-2.49-5.16-5.77 0-3.28 1.75-5.76 5.09-5.76a7.18 7.18 0 0 1 2.49.46l-.11 1.85a4.28 4.28 0 0 0-2.12-.61c-1.7 0-3.16 1.16-3.16 4.06 0 2.9 1.46 4.07 3.16 4.07a3.55 3.55 0 0 0 2.12-.58l.11 1.88zm5.3-10.97h2.05v4.56h3.33V45.6h2.05v11.21h-2.05v-4.95h-3.33v4.95h-2.05zm13.34 0h5.89v1.64H88.5v2.98h3.63v1.64H88.5v3.31h4v1.64h-6.05zm11.42 0h3.5c2 0 3.34.9 3.34 2.95a2.53 2.53 0 0 1-2.17 2.64v.05c.42.06.88.25 1.24 1.3l1.46 4.27h-2.19l-1.1-3.65a1.47 1.47 0 0 0-1.56-1.17h-.47v4.82h-2l-.05-11.21zm2.89 4.88a1.61 1.61 0 0 0 1.83-1.7c0-1.29-.68-1.61-1.83-1.61h-.84v3.31h.84z"/></g></g></svg>