<svg xmlns:dc="http://purl.org/dc/elements/1.1/" xmlns:cc="http://creativecommons.org/ns#" xmlns:rdf="http://www.w3.org/1999/02/22-rdf-syntax-ns#" xmlns:svg="http://www.w3.org/2000/svg" xmlns="http://www.w3.org/2000/svg" xml:space="preserve" enable-background="new 30.5 31.5 412 533" viewBox="30.5 31.5 400 500" height="500" width="400" y="0" x="0" version="1.1" id="svg2">
  <metadata id="metadata4">
    <rdf:RDF>
      <cc:Work rdf:about="">
        <dc:format>
          
          
          
          
          
          
          
          
          
          image/svg+xml
        
        
        
        
        
        
        
        
        
        </dc:format>
        <dc:type rdf:resource="http://purl.org/dc/dcmitype/StillImage"/>
      </cc:Work>
    </rdf:RDF>
  </metadata>
  <defs id="defs6"/>
  <path id="path4148" d="M230.55 531.13C304.87 477.21 355.81 409.11 386.29 322.97 413.93 244.87 425.02 150.22 420.2 33.62l-0.02-0.46-379.82 0-0.02 0.46c-4.81 116.6 6.28 211.24 33.91 289.35 30.48 86.14 81.42 154.24 155.74 208.16l0.28 0.2 0.28-0.2z" fill="#e00e00"/>
  <path d="m41.04 33.21c-9.07 219.45 36.25 385.95 189.45 497.1 84.47-61.29 136.15-139.41 163.99-233.97 2.09-7.09 4.04-14.27 5.87-21.54 11.45-45.69 17.77-95.02 19.88-147.94 1.2-30.06 1.05-61.28-0.29-93.65l-189.45 0-189.45 0m-0.92-0.95 0.92 0 189.45 0 189.45 0 0.92 0 0.04 0.92c4.82 116.66-6.28 211.36-33.93 289.52-30.51 86.24-81.51 154.41-155.91 208.39l-0.56 0.41-0.56-0.41C155.54 477.11 104.54 408.94 74.03 322.7 46.38 244.54 35.28 149.84 40.1 33.18l0.04-0.92 0 0z" id="path10"/>
  <path id="path4360" d="m201.32 456.7c6.23 3.83 25.42 0.81 30.56-4.29 14.76-14.65 20.71-28.66 29.13-42.65 9.29-15.43 9.52-20.11 14.95-31.9 4.23-9.19 9.97-17.95 20.39-27.74 8.34-7.83 31.19-14.7 50.27-14.15-0.46-1.89-12.23-9.7-16.51-8.66-18.56 4.53-44.05 14.36-57.88 40.32-0.29-20.1-1.65-34.88-5.64-52.64-3.49-15.56-10.22-28.68-16.68-44.33-1.14-2.77 1.88-5.59 1.31-8.74-0.72-4.01-1.28-8.26-1.63-12.81-1.33-17.34 4.93-39.42 12.65-49.99 10.38-14.22 19.98-28.93 29.5-25.42 4.1 1.51 7.68-4.57 9.86-2.99 1.34 0.97 4.62 7.2 4.66 8.59 0.27 9.1-24.03 14.35-24.26 38.96 3.61 0.12 6.79-1.04 7.58 4.6 0.63 4.49-0.81 15.04-0.72 21.31 16.34-5.67 26.59 9.08 29.13 39.89 11.2-15.45 19.56-23.85 36.6 5.9 0.22-13.07-4.4-33.29 13.69-30.77 1.28-3.99-1.55-8-4.37-10.24-28.86-22.85-9.43-28.16 2.52-28.14-6.8-4.3-16.12-9.36-20.91-17.05-3.21-5.17 6.49-6.26 12.66-13.52-4.65-1.85-15.29-0.1-27.51-1.35-9.48-0.97-14.41-3.3-19.7-10.44-5.93-8.01-6.46-12.64-5.96-15.58 0.42-2.49 2.4-6.5 1.72-7.29-0.63-0.73-6.06 2.72-8.02 5.09-4.04 4.9-13.86 9.77-16.69 2.81-0.47-1.15 0.15-2.61 1.23-5.04 5.64-12.67 24.45-24.79 39.98-10.8 5.02-12.76 9.68-14.63 26.18-9.5-5.45-13.44 1.57-18.03 26.97-23.31-7.8-14.83 0.07-26.93 16.22-38.26-33.75-0.04-37.18-5.73-39-15.73-16.12 9.13-45.28 36.68-50.56 7.08-4.35 14.63-15.3 40.79-35.09 33.45-3.63 14.43-2.34 30.15-0.84 36.95 1.91 8.62 7.03 12.22 12.54 16.15 2.92 2.08-3.45 7.95-2.75 15.7 0.4 4.43-1.83 7.25-7.37 13.54-6.53 7.42-14.49 17.56-17.05 24.22 0 0-4.34-0.28-5.63-2.67-3.55-6.57-2.71-8.91-4.27-12.13-0.95-1.96 10.05-9.23 8.42-36.09-16.71 3.64-5.92-8.87-12.39-33.51-11.5 14.14-14.44-4.53-15.25-16.27-11.07 15.4-21.23-1.86-27.52-31.13-8.61 18.23 2.75 54.77-14.07 50.82 3.81 4.69 6.9 6.59 9.23 9.3 9.48 11.03 8.56 25.15-3.77 22.45 17.87 18.16 41.01 30.1 51.84 34.36 1.02 0.4 2.57 6.31 4.9 11.23 4.48 9.5-6.7 23.89-4.46 49.17-1.37 0.08-34.68-42.94-63.18-66.9-7.67-6.45-12.83-12.2-16.39-15.24-1.56-1.33-4.58-3.56-5.62-3.51-1.16 0.06 0.79 4.58 1.26 6.49-2.77 4.6-10.43-0.82-15.71-5.96 3.48-10.24 7.64-13.85 3.39-58.69-17.8 20.85-26.77 8.77-23.55-22.24C105.44 95.48 92.21 84.59 89.79 69.6 80.64 87.68 71.36 85.66 52.8 69.18c15.74 41.55 14.12 50.82 1.71 46.72 2.59 5.84 8.26 10.12 11.38 13.01 16.17 14.96 15.96 23.32 1.24 25.14 10.44 10.52 38.84 15.36 70.23 16.47 7.57 3.95 7 8.73 24.31 9.14 13.45 10.76 32.94 27.61 26.1 30.76-15.88 7.32-32.97-24.14-61.51-21.14 16.5 13.35-9.43 19.09-23.35 11.87-1.03 3.66 4.17 10.5 3.34 16.1-0.91 6.14-6.45 5.84-13.64 17.02 17.51-1.82 23.39 0.14 27.41 10.09 6.83-16.11 17.58-18.8 25.66-5.32 11.74-12.32 15.96-25.03 24.16-27.98 3.29-1.18 3.66 4.12 13.37 5.13 7.16 0.74 13.53-1.47 14.57-0.55 29.2 25.78 65.17 88.62 57.85 110.79-0.55 1.67-7.17-8.35-18.68-12.23-15.21-5.13-20.78-4.14-22.61-13.6-0.82-4.22 10.05-17.48 1.99-35.18-9.19 9.9-8.37-5-17.4-17.99-4.14 16.56-11.85 3.18-21.17-6.57-0.39 3.37-3.92 9.08-8.17 9.83-6.65 1.17-9.98-0.78-19.63 4.99 15.49 7.05 13.54 15.6 12.66 26.66 9.5-3.93 17.5-1.23 20.89 3.68 2.66 3.85 6.18 11.84-2.01 13.5 4.81 4.21 20.75 1.37 27.4 3.17 2.55 0.69 4.37 5.5 2.19 5.74-2.95 0.32-6.5 3.49-6.19 4.44 0.31 0.93 3.96 1.21 7.99 1.83 9.22 1.42 24.02 3.19 23.25 9.27-0.77 6.07-21.62 2.05-34.92-1.45-20.56-5.41-41.96-6.1-54.91 10.93 28.14 0.9 7.38 21.92-9.73 27.1 16.75 9.71 2.44 24.04 7.32 42.49 18.63-17.03 31.97-18.87 45.16-11.84-5.53-20.49 15.74-46.03 22.34-24.74 14.81-12.64 11.22-31.2 14.76-34.34 4.44-3.93 6.97-3.61 18.96-4.14 6.14-0.27 9.18 8.3 11.77 16.06 2.22 6.66 7.39 9.75 6.75 14.76-3.82 41.19-32.37 75.91-62.29 97.9z" style="fill:#ffe000;stroke:#000"/>
  <circle r="7.88" cy="220.35" cx="228.82" id="path4664" style="fill:#ffe000;stroke-linecap:round;stroke-linejoin:round;stroke-miterlimit:4;stroke:#000"/>
  <circle id="circle4666" cx="265.42" cy="241.47" r="7.88" style="fill:#ffe000;stroke-linecap:round;stroke-linejoin:round;stroke-miterlimit:4;stroke:#000"/>
  <circle id="circle4668" cx="264.11" cy="263.47" r="7.88" style="fill:#ffe000;stroke-linecap:round;stroke-linejoin:round;stroke-miterlimit:4;stroke:#000"/>
  <circle r="7.88" cy="346.46" cx="241.68" id="circle4670" style="fill:#ffe000;stroke-linecap:round;stroke-linejoin:round;stroke-miterlimit:4;stroke:#000"/>
  <circle r="7.88" cy="385.67" cx="290.25" id="circle4672" style="fill:#ffe000;stroke-linecap:round;stroke-linejoin:round;stroke-miterlimit:4;stroke:#000"/>
  <circle id="circle4674" cx="298.31" cy="406.15" r="7.88" style="fill:#ffe000;stroke-linecap:round;stroke-linejoin:round;stroke-miterlimit:4;stroke:#000"/>
  <circle r="7.88" cy="405.49" cx="274.78" id="circle4676" style="fill:#ffe000;stroke-linecap:round;stroke-linejoin:round;stroke-miterlimit:4;stroke:#000"/>
</svg>
