<?xml version="1.0" encoding="UTF-8" standalone="no"?>
<svg
   xmlns:dc="http://purl.org/dc/elements/1.1/"
   xmlns:cc="http://creativecommons.org/ns#"
   xmlns:rdf="http://www.w3.org/1999/02/22-rdf-syntax-ns#"
   xmlns:svg="http://www.w3.org/2000/svg"
   xmlns="http://www.w3.org/2000/svg"
   id="svg2"
   version="1.1"
   x="0"
   y="0"
   width="420"
   height="500"
   viewBox="30.5 31.5 420 500"
   enable-background="new 30.5 31.5 412 533"
   xml:space="preserve"><metadata
     id="metadata4"><rdf:RDF><cc:Work
         rdf:about=""><dc:format>
          
          
          
          
          image/svg+xml
        
        
        
        
        </dc:format><dc:type
           rdf:resource="http://purl.org/dc/dcmitype/StillImage" /><dc:title></dc:title></cc:Work></rdf:RDF></metadata><defs
     id="defs6" /><path
     id="path4218"
     d="m 440,32.7 c 2.09,102.46 -3.38,187.49 -43.93,296.59 C 368.02,404.77 321.86,474.06 240.5,530.88 159.14,474.06 112.98,404.77 84.93,329.29 44.38,220.19 38.91,135.16 41,32.7 c 133,0.29 266,0 399,0 z"
     style="fill:#e00e00;fill-opacity:1;fill-rule:evenodd" /><path
     style="fill:#ffe000;fill-opacity:1;fill-rule:evenodd;stroke:none;stroke-width:1px;stroke-linecap:butt;stroke-linejoin:miter;stroke-opacity:1"
     d="M 40.54989,53.766524 C 43.48553,56.844349 46.92283,59.922175 50.5,63 c 19.09284,18.43774 43.83159,13.50321 70,38.77374 19.8383,19.15762 10.73265,39.18888 34,61.6579 19.09284,18.43774 43.83159,13.50321 70,38.77374 19.8383,19.15762 10.73265,39.18888 34,61.6579 19.09284,18.43774 43.83159,13.50321 70,38.77374 19.8383,19.15762 10.73265,39.18888 34,61.6579 4.47235,4.3189 9.2545,7.35538 14.29224,9.79805 l -7.28645,14.103 c -6.78392,-2.80109 -13.15954,-6.25539 -19.00579,-11.90105 -23.26735,-22.46902 -14.1617,-42.50028 -34,-61.6579 -26.16841,-25.27053 -50.90716,-20.336 -70,-38.77374 -23.26735,-22.46902 -14.1617,-42.50028 -34,-61.6579 -26.16841,-25.27053 -50.90716,-20.336 -70,-38.77374 -23.26735,-22.46902 -14.1617,-42.50028 -34,-61.6579 C 83.31545,89.453316 59.45509,93.109386 40.67724,76.983365"
     id="path4225" /><path
     style="fill:#ffe000;fill-opacity:1;fill-rule:evenodd;stroke:none;stroke-width:1px;stroke-linecap:butt;stroke-linejoin:miter;stroke-opacity:1"
     d="m 68.86168,32.6836 c 1.9932,2.275922 4.20118,4.501398 6.63832,6.8164 19.24416,18.279748 43.83159,13.50321 70,38.773739 19.8383,19.15762 10.73265,39.188881 34,61.657901 19.09284,18.43774 43.83159,13.50321 70,38.77374 19.8383,19.15762 10.73265,39.18888 34,61.6579 19.09284,18.43774 43.83159,13.50321 70,38.77374 19.8383,19.15762 10.73265,39.18888 34,61.6579 0.99816,0.96391 2.01176,1.86395 3.04018,2.70776 l -6.75108,15.77716 c -2.86483,-1.80517 -5.63165,-3.91865 -8.2891,-6.48492 -23.26735,-22.46902 -14.1617,-42.50028 -34,-61.6579 -26.16841,-25.27053 -50.90716,-20.336 -70,-38.77374 -23.26735,-22.46902 -14.1617,-42.50028 -34,-61.6579 -26.16841,-25.27053 -50.90716,-20.336 -70,-38.77374 -23.26735,-22.46902 -14.1617,-42.50028 -34,-61.657901 C 107.33159,65.00321 82.98388,69.524019 63.5,51.5 56.71882,45.226906 53.197,38.987822 49.36903,32.679499"
     id="path4227" /><path
     style="fill:#ffe000;fill-opacity:1;fill-rule:evenodd;stroke:none;stroke-width:1px;stroke-linecap:butt;stroke-linejoin:miter;stroke-opacity:1"
     d="M 40.91665,96.831706 C 57.13213,104.36677 75.91569,106.3614 95.5,125.27374 c 19.8383,19.15762 10.73265,39.18888 34,61.6579 19.09284,18.43774 43.83159,13.50321 70,38.77374 19.8383,19.15762 10.73265,39.18888 34,61.6579 19.09284,18.43774 43.83159,13.50321 70,38.77374 19.8383,19.15762 10.73265,39.18888 34,61.6579 7.35446,7.10212 15.54664,10.73638 24.33555,13.9649 l -8.28646,13.33619 C 343.3493,411.47806 333.88074,407.8881 325.5,399.79492 c -23.26735,-22.46902 -14.1617,-42.50028 -34,-61.6579 -26.16841,-25.27053 -50.90716,-20.336 -70,-38.77374 -23.26735,-22.46902 -14.1617,-42.50028 -34,-61.6579 -26.16841,-25.27053 -50.90716,-20.336 -70,-38.77374 -23.26735,-22.46902 -14.1617,-42.50028 -34,-61.6579 C 68.795,123.07329 54.54145,118.4108 41.4875,113.77924 Z"
     id="path4223" /><path
     d="m 440,32.7 c 2.09,102.46 -3.38,187.49 -43.93,296.59 C 368.02,404.77 321.86,474.06 240.5,530.88 159.14,474.06 112.98,404.77 84.93,329.29 44.38,220.19 38.91,135.16 41,32.7 c 133,0.29 266,0 399,0 z"
     id="path4224"
     style="fill:none;stroke:#000000" /><path
     id="path4200"
     d="M 40.91665,96.831706 C 57.13213,104.36677 75.91569,106.3614 95.5,125.27374 c 19.8383,19.15762 10.73265,39.18888 34,61.6579 19.09284,18.43774 43.83159,13.50321 70,38.77374 19.8383,19.15762 10.73265,39.18888 34,61.6579 19.09284,18.43774 43.83159,13.50321 70,38.77374 19.8383,19.15762 10.73265,39.18888 34,61.6579 7.35446,7.10212 15.54664,10.73638 24.33555,13.9649 m -8.28646,13.33619 C 343.3493,411.47806 333.88074,407.8881 325.5,399.79492 c -23.26735,-22.46902 -14.1617,-42.50028 -34,-61.6579 -26.16841,-25.27053 -50.90716,-20.336 -70,-38.77374 -23.26735,-22.46902 -14.1617,-42.50028 -34,-61.6579 -26.16841,-25.27053 -50.90716,-20.336 -70,-38.77374 -23.26735,-22.46902 -14.1617,-42.50028 -34,-61.6579 C 68.795,123.07329 54.54145,118.4108 41.4875,113.77924"
     style="fill:none;fill-opacity:1;fill-rule:evenodd;stroke:#000000;stroke-width:1px;stroke-linecap:butt;stroke-linejoin:miter;stroke-opacity:1" /><path
     id="path4214"
     d="M 40.54989,53.766524 C 43.48553,56.844349 46.92283,59.922175 50.5,63 c 19.09284,18.43774 43.83159,13.50321 70,38.77374 19.8383,19.15762 10.73265,39.18888 34,61.6579 19.09284,18.43774 43.83159,13.50321 70,38.77374 19.8383,19.15762 10.73265,39.18888 34,61.6579 19.09284,18.43774 43.83159,13.50321 70,38.77374 19.8383,19.15762 10.73265,39.18888 34,61.6579 4.47235,4.3189 9.2545,7.35538 14.29224,9.79805 m -7.28645,14.103 c -6.78392,-2.80109 -13.15954,-6.25539 -19.00579,-11.90105 -23.26735,-22.46902 -14.1617,-42.50028 -34,-61.6579 -26.16841,-25.27053 -50.90716,-20.336 -70,-38.77374 -23.26735,-22.46902 -14.1617,-42.50028 -34,-61.6579 -26.16841,-25.27053 -50.90716,-20.336 -70,-38.77374 -23.26735,-22.46902 -14.1617,-42.50028 -34,-61.6579 C 83.31545,89.453316 59.45509,93.109386 40.67724,76.983365"
     style="fill:none;fill-opacity:1;fill-rule:evenodd;stroke:#000000;stroke-width:1px;stroke-linecap:butt;stroke-linejoin:miter;stroke-opacity:1" /><path
     id="path4221"
     d="m 68.86168,32.6836 c 1.9932,2.275922 4.20118,4.501398 6.63832,6.8164 19.24416,18.279748 43.83159,13.50321 70,38.773739 19.8383,19.15762 10.73265,39.188881 34,61.657901 19.09284,18.43774 43.83159,13.50321 70,38.77374 19.8383,19.15762 10.73265,39.18888 34,61.6579 19.09284,18.43774 43.83159,13.50321 70,38.77374 19.8383,19.15762 10.73265,39.18888 34,61.6579 0.99816,0.96391 2.01176,1.86395 3.04018,2.70776 m -6.75108,15.77716 c -2.86483,-1.80517 -5.63165,-3.91865 -8.2891,-6.48492 -23.26735,-22.46902 -14.1617,-42.50028 -34,-61.6579 -26.16841,-25.27053 -50.90716,-20.336 -70,-38.77374 -23.26735,-22.46902 -14.1617,-42.50028 -34,-61.6579 -26.16841,-25.27053 -50.90716,-20.336 -70,-38.77374 -23.26735,-22.46902 -14.1617,-42.50028 -34,-61.657901 C 107.33159,65.00321 82.98388,69.524019 63.5,51.5 56.71882,45.226906 53.197,38.987822 49.36903,32.679499"
     style="fill:none;fill-opacity:1;fill-rule:evenodd;stroke:#000000;stroke-width:1px;stroke-linecap:butt;stroke-linejoin:miter;stroke-opacity:1" /></svg>