<?xml version="1.0" encoding="UTF-8" standalone="no"?>
<!-- Created with Inkscape (http://www.inkscape.org/) -->

<svg
   xmlns:dc="http://purl.org/dc/elements/1.1/"
   xmlns:cc="http://creativecommons.org/ns#"
   xmlns:rdf="http://www.w3.org/1999/02/22-rdf-syntax-ns#"
   xmlns:svg="http://www.w3.org/2000/svg"
   xmlns="http://www.w3.org/2000/svg"
   xmlns:sodipodi="http://sodipodi.sourceforge.net/DTD/sodipodi-0.dtd"
   xmlns:inkscape="http://www.inkscape.org/namespaces/inkscape"
   width="212.85373mm"
   height="251.87352mm"
   viewBox="0 0 212.85372 251.87352"
   version="1.1"
   id="svg8"
   inkscape:version="0.92.3 (2405546, 2018-03-11)"
   sodipodi:docname="Sunnfjord komm.svg">
  <defs
     id="defs2" />
  <sodipodi:namedview
     id="base"
     pagecolor="#ffffff"
     bordercolor="#666666"
     borderopacity="1.0"
     inkscape:pageopacity="0.0"
     inkscape:pageshadow="2"
     inkscape:zoom="0.25"
     inkscape:cx="-437.52021"
     inkscape:cy="497.02643"
     inkscape:document-units="mm"
     inkscape:current-layer="layer1"
     showgrid="false"
     fit-margin-top="0"
     fit-margin-left="0"
     fit-margin-right="0"
     fit-margin-bottom="0"
     inkscape:window-width="1920"
     inkscape:window-height="1001"
     inkscape:window-x="-9"
     inkscape:window-y="-9"
     inkscape:window-maximized="1" />
  <metadata
     id="metadata5">
    <rdf:RDF>
      <cc:Work
         rdf:about="">
        <dc:format>image/svg+xml</dc:format>
        <dc:type
           rdf:resource="http://purl.org/dc/dcmitype/StillImage" />
        <dc:title></dc:title>
      </cc:Work>
    </rdf:RDF>
  </metadata>
  <g
     inkscape:label="Layer 1"
     inkscape:groupmode="layer"
     id="layer1"
     transform="translate(-95.218811,-35.507605)">
    <path
       style="color:#000000;font-style:normal;font-variant:normal;font-weight:normal;font-stretch:normal;font-size:medium;line-height:normal;font-family:sans-serif;font-variant-ligatures:normal;font-variant-position:normal;font-variant-caps:normal;font-variant-numeric:normal;font-variant-alternates:normal;font-feature-settings:normal;text-indent:0;text-align:start;text-decoration:none;text-decoration-line:none;text-decoration-style:solid;text-decoration-color:#000000;letter-spacing:normal;word-spacing:normal;text-transform:none;writing-mode:lr-tb;direction:ltr;text-orientation:mixed;dominant-baseline:auto;baseline-shift:baseline;text-anchor:start;white-space:normal;shape-padding:0;clip-rule:nonzero;display:inline;overflow:visible;visibility:visible;opacity:1;isolation:auto;mix-blend-mode:normal;color-interpolation:sRGB;color-interpolation-filters:linearRGB;solid-color:#000000;solid-opacity:1;vector-effect:none;fill:#00564d;fill-opacity:1;fill-rule:nonzero;stroke:none;stroke-width:0.99999994px;stroke-linecap:butt;stroke-linejoin:miter;stroke-miterlimit:4;stroke-dasharray:none;stroke-dashoffset:0;stroke-opacity:1;color-rendering:auto;image-rendering:auto;shape-rendering:auto;text-rendering:auto;enable-background:accumulate"
       d="m 1200.6094,-0.35351562 -802.07815,0.31835937 -0.0234,0.48046875 C 392.83196,145.63793 403.5303,268.8993 429.2168,375.14844 c 7.14954,29.57333 14.23314,58.1787 23.26758,85.21094 32.28489,96.60103 78.21185,175.40373 126.77734,244.85546 44.01377,62.94252 91.38066,119.34512 138.18164,167.6875 27.87753,28.79566 55.42904,53.4568 82.25586,78.41797 l 0.31836,0.28907 0.33203,-0.26758 c 29.97003,-23.7696 36.58318,-28.84961 55.03906,-47.01368 20.15966,-19.84087 52.69566,-51.44927 74.43945,-76.15234 62.28915,-70.76644 90.56968,-109.46509 146.49998,-203.6875 49.6484,-83.63958 92.505,-197.34109 112.3008,-353.06836 v -0.008 -0.008 c 9.0016,-91.18329 15.2865,-181.958624 11.9961,-271.27734688 z"
       id="path4594-0"
       inkscape:connector-curvature="0"
       sodipodi:nodetypes="cccscssccccssccccc"
       transform="matrix(0.26458333,0,0,0.26458333,-9.8273735,35.601139)">
      <title
         id="title4641">shield</title>
    </path>
    <path
       id="path4634"
       style="opacity:1;vector-effect:none;fill:#ffffff;fill-opacity:1;stroke:none;stroke-width:0.03380102;stroke-linecap:butt;stroke-linejoin:miter;stroke-miterlimit:4;stroke-dasharray:none;stroke-dashoffset:0;stroke-opacity:1"
       d="m 208.98453,132.167 c -5.95535,5.33188 -11.41798,11.23093 -17.0437,16.91825 -7.97007,8.24676 -15.79319,17.14091 -20.0924,27.92386 -1.76721,4.30853 -2.59698,8.92864 -2.53046,13.5803 -0.25573,19.7845 -0.13407,39.58063 -0.17331,59.3615 9.80882,12.03967 21.1113,22.78255 32.69928,33.08348 -0.77595,-67.22806 -0.58049,-102.87816 -0.61734,-126.53373 -0.0118,-7.59919 3.64786,-17.62873 7.73284,-22.6794 0.22044,-0.35989 0.92292,-1.61282 0.0251,-1.65426 z m 44.43784,-94.288895 c -0.0171,14.866756 0.0649,29.734032 -0.0526,44.600433 -0.11106,3.539987 -1.09788,7.065711 -2.73308,10.203161 -0.0536,0.280448 -0.51987,0.698196 -0.21409,0.937927 0.62093,-0.139864 1.00724,-0.79293 1.48924,-1.17324 2.27353,-2.283534 4.6715,-4.687808 5.63326,-7.855555 1.13358,-3.689689 1.23195,-7.584313 1.26219,-11.413477 0.10777,-11.766044 0.0504,-23.532865 0.072,-35.299249 -0.6205,-0.189151 -1.38795,-0.02359 -2.06372,-0.07936 h -3.31376 l -0.0668,0.06682 z m -10.73633,-0.0035 c -0.17408,4.774969 -0.0792,9.555921 -0.12233,14.333375 -0.0437,13.293799 0.0523,26.589117 -0.16669,39.881662 0.007,2.096468 -0.2131,4.179992 -0.76836,6.203472 -0.54771,2.285986 -1.53665,4.422306 -2.55923,6.528306 0.12032,0.30128 0.57502,0.0119 0.7338,-0.13841 2.9126,-2.37796 5.83868,-5.125566 7.02859,-8.804486 0.80947,-2.561922 1.14487,-5.254873 1.32011,-7.927244 0.12172,-8.268491 0.009,-16.538826 0.009,-24.807989 -0.0274,-8.421791 -0.0562,-16.843576 -0.0843,-25.265364 -0.62078,-0.188731 -1.38793,-0.02352 -2.06374,-0.07918 h -3.24749 l -0.0683,0.06529 z m -6.88607,-0.01882 c -1.33995,0.01057 -2.67968,0.03909 -4.0195,0.05924 -0.18671,0.622328 -0.0247,1.387672 -0.0803,2.063734 -0.0433,21.001085 8e-5,42.00256 -0.13081,63.003341 0.0305,3.37575 -0.60049,6.77828 -1.90355,9.89033 -0.48046,1.21452 -1.20667,2.32202 -1.74832,3.49812 0.31506,0.32714 0.73027,-0.17406 1.00474,-0.34457 2.46824,-2.08015 4.9398,-4.36795 6.3191,-7.34396 1.21475,-2.73633 1.38481,-5.78114 1.61185,-8.725524 0.23685,-6.704239 0.14758,-13.415358 0.2099,-20.122635 0.0363,-13.876716 0.1234,-27.754037 0.0264,-41.630555 0.12409,-0.552836 -0.59764,-0.287166 -0.89991,-0.349185 -0.12987,5.53e-4 -0.25974,0.0011 -0.38961,0.0017 z m -12.22055,0.02584 c -0.8796,0.01474 -1.75951,0.02076 -2.63882,0.04743 -0.17895,0.645518 -0.0325,1.421903 -0.0878,2.116684 -0.13735,23.238698 -0.16904,46.478144 -0.3869,69.716281 -0.0864,2.71965 0.0352,5.46469 -0.34054,8.16159 -0.63235,4.1209 -2.48547,7.99877 -5.13682,11.20364 -0.12623,0.1542 -0.52107,0.62396 -0.1124,0.67807 0.93891,-0.41265 1.63707,-1.24239 2.43311,-1.87227 2.76701,-2.49095 5.58602,-5.13831 7.07609,-8.62765 1.36243,-3.12808 1.90787,-6.57033 1.84563,-9.96965 0.0881,-18.31109 0.0314,-36.622635 0.0521,-54.933909 l 0.002,-16.476477 c -0.58999,-0.183813 -1.32549,-0.0059 -1.97018,-0.05372 l -0.73582,0.01 z"
       inkscape:connector-curvature="0"
       sodipodi:nodetypes="ccccccscccccccccccccccccccccccccccccccccccccccccccccccccccccccccc" />
  </g>
</svg>
