<?xml version="1.0" encoding="UTF-8" standalone="no"?>
<!-- Created with Inkscape (http://www.inkscape.org/) -->

<svg
   width="167.71471mm"
   height="149.90007mm"
   viewBox="0 0 167.71471 149.90007"
   version="1.1"
   id="svg5"
   inkscape:version="1.1.1 (c3084ef, 2021-09-22)"
   sodipodi:docname="Sunrise 2022.svg"
   xmlns:inkscape="http://www.inkscape.org/namespaces/inkscape"
   xmlns:sodipodi="http://sodipodi.sourceforge.net/DTD/sodipodi-0.dtd"
   xmlns="http://www.w3.org/2000/svg"
   xmlns:svg="http://www.w3.org/2000/svg">
  <sodipodi:namedview
     id="namedview7"
     pagecolor="#ffffff"
     bordercolor="#666666"
     borderopacity="1.0"
     inkscape:pageshadow="2"
     inkscape:pageopacity="0.0"
     inkscape:pagecheckerboard="0"
     inkscape:document-units="mm"
     showgrid="false"
     fit-margin-top="0"
     fit-margin-left="0"
     fit-margin-right="0"
     fit-margin-bottom="0"
     inkscape:zoom="0.49976852"
     inkscape:cx="411.19037"
     inkscape:cy="469.21723"
     inkscape:window-width="1440"
     inkscape:window-height="783"
     inkscape:window-x="93"
     inkscape:window-y="25"
     inkscape:window-maximized="0"
     inkscape:current-layer="layer1" />
  <defs
     id="defs2">
    <clipPath
       id="clip0_915_12851">
      <rect
         width="98.888802"
         height="89"
         fill="#ffffff"
         id="rect830"
         x="0"
         y="0" />
    </clipPath>
  </defs>
  <g
     inkscape:label="Calque 1"
     inkscape:groupmode="layer"
     id="layer1"
     transform="translate(-29.808296,3.7441586)">
    <g
       style="fill:none"
       id="g844"
       transform="matrix(1.6970447,0,0,1.6970447,29.808296,-4.1637205)">
      <g
         clip-path="url(#clip0_915_12851)"
         id="g828">
        <path
           d="M 49.4149,0.247231 C 43.6992,0.246742 38.1118,1.94122 33.3592,5.11636 28.6066,8.2915 24.9023,12.8047 22.7148,18.0852 c -2.1875,5.2805 -2.76,11.0911 -1.6451,16.6969 1.115,5.6059 3.8673,10.7552 7.9089,14.7968 4.0415,4.0415 9.1909,6.7938 14.7967,7.9088 5.6059,1.1149 11.4165,0.5425 16.6969,-1.6451 5.2805,-2.1875 9.7937,-5.8918 12.9689,-10.6444 3.1751,-4.7526 4.8696,-10.34 4.8691,-16.0556 C 78.3023,21.4814 75.2555,14.1364 69.8383,8.71915 64.4211,3.30193 57.076,0.255084 49.4149,0.247231 Z m 0,5.933329 c 3.8554,-0.00201 7.6492,0.96732 11.0311,2.81849 3.382,1.85115 6.243,4.52455 8.3191,7.77325 2.076,3.2487 3.3002,6.9681 3.5594,10.8148 0.2593,3.8467 -0.4548,7.6968 -2.0762,11.1947 H 28.579 c -1.6215,-3.4981 -2.3356,-7.3484 -2.0762,-11.1953 0.2593,-3.8469 1.4837,-7.5664 3.56,-10.8152 2.0764,-3.2488 4.9378,-5.9221 8.3201,-7.77314 3.3822,-1.851 7.1763,-2.82002 11.032,-2.8176 z"
           fill="#da291c"
           id="path824" />
        <path
           d="M 7.78997,88.5773 C 4.79117,88.5773 1.77258,87.4994 0,85.6403 l 3.026,-3.4438 c 1.30276,1.2372 3.02674,1.9335 4.8233,1.9481 1.70583,0 2.7565,-0.6428 2.7565,-1.7306 0,-1.0507 -0.66747,-1.4833 -2.90483,-2.262 -3.52786,-1.2213 -6.675,-2.3017 -6.675,-6.3957 0,-3.864 2.99633,-6.3808 7.81964,-6.3808 2.44919,-0.0282 4.82069,0.8587 6.65029,2.4871 l -2.9667,3.4438 c -1.0243,-0.9578 -2.3728,-1.493 -3.77506,-1.4982 -1.59706,0 -2.54392,0.628 -2.54392,1.649 0,1.5427 2.57111,1.864 5.11008,2.9815 2.8356,1.2361 4.5637,2.6725 4.5637,5.7949 -0.0074,3.9555 -2.9839,6.3437 -8.09403,6.3437 z m 14.58613,0 c -3.4611,0 -5.0928,-2.3165 -5.0928,-6.4105 v -9.5254 h 5.115 v 8.8678 c 0,1.7965 0.6988,2.6956 2.0965,2.6972 1.3102,0 2.2472,-0.8603 2.2472,-2.937 v -8.628 h 5.1225 V 88.0977 H 26.8483 L 26.789,86.2114 c -0.7145,1.3399 -2.1657,2.3659 -4.4105,2.3659 z M 34.0276,72.6414 h 5.0038 l 0.0594,1.9456 c 0.7589,-1.377 2.2546,-2.4253 4.3437,-2.4253 3.4116,0 5.1916,2.225 5.1916,6.5292 v 9.3944 h -5.1298 v -8.8258 c 0,-1.813 -0.689,-2.7194 -2.0668,-2.7194 -1.4685,0 -2.2769,1.0062 -2.2769,2.9345 v 8.628 h -5.1225 z m 16.6579,0 h 4.9716 l 0.0297,2.7837 c 0.5686,-1.6984 1.8294,-3.0854 3.9234,-3.0854 0.5276,-0.0093 1.0536,0.0616 1.56,0.2102 v 4.6725 c -0.627,-0.1635 -1.2707,-0.2539 -1.9185,-0.2695 -2.5118,0 -3.4438,1.34 -3.4438,4.0742 v 7.0706 H 50.688 Z m 14.7097,-1.2683 c -1.6885,0 -2.9049,-1.2361 -2.9049,-2.7194 0,-1.4834 1.1694,-2.7566 2.9049,-2.7566 1.686,0 2.8752,1.1867 2.8752,2.7566 -0.0093,0.3676 -0.0911,0.7298 -0.2408,1.0657 -0.1497,0.3359 -0.3643,0.6389 -0.6315,0.8917 -0.2672,0.2527 -0.5817,0.4501 -0.9254,0.5809 -0.3437,0.1307 -0.7099,0.1923 -1.0775,0.1811 z m -2.5761,1.2584 h 5.1225 V 88.0878 H 62.8191 Z M 76.001,88.5674 c -2.6452,0 -4.9271,-0.7417 -6.675,-2.2472 l 2.5464,-3.1447 c 1.0528,0.8474 2.3571,1.3213 3.7083,1.3474 1.1768,0 1.7677,-0.3091 1.7677,-0.9296 0,-0.6205 -0.8777,-0.8776 -2.2769,-1.3177 -1.7306,-0.5414 -3.0631,-1.0235 -4.0001,-1.9605 -0.8183,-0.8183 -1.1817,-1.8344 -1.1817,-3.1916 0,-3.0359 2.3931,-4.9716 6.3808,-4.9716 2.225,0 4.2967,0.6872 5.78,2.0049 l -2.4549,2.9964 c -0.7046,-0.5785 -2.0321,-0.9889 -3.026,-0.9889 -1.2361,0 -1.8566,0.2917 -1.8566,0.8702 0,0.5785 0.7417,0.8653 2.5142,1.3474 3.0681,0.8306 5.0632,2.1978 5.0632,5.1916 0,3.1892 -2.5093,5.0038 -6.2894,5.0038 z m 15.8222,0 c -6.0816,0 -8.5069,-4.0668 -8.5069,-8.2078 0,-5.162 3.5897,-8.2077 8.0891,-8.2077 4.1188,0 7.4167,2.4722 7.4167,7.7281 0.0211,0.5721 -0.0195,1.1449 -0.1211,1.7083 H 88.3671 c 0.2793,1.8814 1.6119,2.9667 3.7751,2.9667 1.3965,0.0373 2.7556,-0.4545 3.8047,-1.377 l 2.3956,3.0556 c -1.7948,1.6465 -3.7726,2.3437 -6.5267,2.3437 z m 1.9482,-9.9161 c -0.0347,-1.555 -0.7195,-2.8455 -2.5168,-2.8455 -1.5772,0 -2.5455,0.9485 -2.9048,2.8455 z"
           fill="#da291c"
           id="path826" />
      </g>
    </g>
  </g>
</svg>
