<?xml version="1.0" encoding="UTF-8" standalone="no"?>
<!-- Created with Inkscape (http://www.inkscape.org/) -->

<svg
   xmlns:dc="http://purl.org/dc/elements/1.1/"
   xmlns:cc="http://creativecommons.org/ns#"
   xmlns:rdf="http://www.w3.org/1999/02/22-rdf-syntax-ns#"
   xmlns:svg="http://www.w3.org/2000/svg"
   xmlns="http://www.w3.org/2000/svg"
   xmlns:sodipodi="http://sodipodi.sourceforge.net/DTD/sodipodi-0.dtd"
   xmlns:inkscape="http://www.inkscape.org/namespaces/inkscape"
   width="742"
   height="233"
   viewBox="0 0 196.32084 61.647914"
   version="1.1"
   id="svg4763"
   inkscape:version="0.92.0 r15299"
   sodipodi:docname="TMB SVG Logo.svg">
  <defs
     id="defs4757" />
  <sodipodi:namedview
     id="base"
     pagecolor="#ffffff"
     bordercolor="#666666"
     borderopacity="1.0"
     inkscape:pageopacity="0.0"
     inkscape:pageshadow="2"
     inkscape:zoom="1.4"
     inkscape:cx="378.77533"
     inkscape:cy="148.72637"
     inkscape:document-units="mm"
     inkscape:current-layer="layer1"
     showgrid="false"
     units="px"
     inkscape:window-width="1366"
     inkscape:window-height="706"
     inkscape:window-x="-8"
     inkscape:window-y="-8"
     inkscape:window-maximized="1" />
  <metadata
     id="metadata4760">
    <rdf:RDF>
      <cc:Work
         rdf:about="">
        <dc:format>image/svg+xml</dc:format>
        <dc:type
           rdf:resource="http://purl.org/dc/dcmitype/StillImage" />
        <dc:title></dc:title>
      </cc:Work>
    </rdf:RDF>
  </metadata>
  <g
     inkscape:label="Layer 1"
     inkscape:groupmode="layer"
     id="layer1"
     transform="translate(0,-235.35212)">
    <path
       d="m 101.02161,283.47111 c -0.26703,0 -0.40622,-0.11075 -0.40622,-0.33606 v -46.87946 c 0,-0.26894 0.13891,-0.40261 0.40622,-0.40261 h 22.79464 c 17.72468,0 18.25269,19.24144 8.80213,23.0381 3.78992,1.62336 7.05989,5.0018 7.13782,10.91672 0,4.19685 -1.34505,7.52278 -4.03927,9.9796 -2.64973,2.45538 -5.78891,3.68371 -9.42433,3.68371 z m 8.05757,-39.51046 v 0 11.13377 h 14.78653 c 8.84372,-0.61157 8.72779,-11.31736 -0.85613,-11.13377 z m 0,19.25987 v 0 12.08988 h 15.46079 c 9.15489,-0.305 8.15097,-12.29341 0,-12.08988 z"
       style="fill:#c72e8f;fill-opacity:1;fill-rule:evenodd;stroke:none;stroke-width:0.89227873"
       id="path4010"
       inkscape:connector-curvature="0" />
    <path
       d="m 105.59378,288.64084 c 0.20747,0.28461 0.3125,0.62592 0.3125,1.02524 2.6e-4,0.40973 -0.10504,0.74195 -0.31401,0.9859 -0.11793,0.14177 -0.28753,0.26965 -0.51602,0.38498 0.34514,0.12614 0.60458,0.32468 0.78108,0.59183 0.1749,0.27169 0.26293,0.59858 0.26293,0.98429 2.6e-4,0.39738 -0.10242,0.75487 -0.30076,1.07417 -0.12703,0.20737 -0.28808,0.38277 -0.47853,0.52525 -0.21426,0.16322 -0.46833,0.27705 -0.76409,0.3373 -0.29182,0.0615 -0.60833,0.0907 -0.9507,0.0907 h -3.04435 v -6.71498 h 3.26193 c 0.82393,0.0126 1.40623,0.24898 1.75002,0.71543 z m -3.6669,0.45104 v 0 1.47859 h 1.64205 c 0.29333,0 0.53202,-0.0534 0.71488,-0.16247 0.18151,-0.11477 0.27232,-0.30907 0.27232,-0.59157 0,-0.31235 -0.12069,-0.51972 -0.36187,-0.61887 -0.20774,-0.0703 -0.47468,-0.10571 -0.79655,-0.10571 z m 0,2.59236 v 0 1.79084 h 1.64079 c 0.29183,0 0.52155,-0.0401 0.68366,-0.1173 0.29568,-0.14707 0.44356,-0.42709 0.44356,-0.83877 0,-0.35038 -0.14277,-0.59085 -0.43067,-0.71998 -0.16076,-0.0754 -0.38387,-0.11277 -0.67427,-0.11479 z"
       style="fill:#c72e8f;fill-opacity:1;fill-rule:evenodd;stroke:none;stroke-width:0.89227873"
       id="path4012"
       inkscape:connector-curvature="0" />
    <path
       d="m 110.33979,289.77511 c 0.35012,0.1569 0.63675,0.40084 0.86372,0.73607 0.20387,0.29493 0.33851,0.63348 0.39963,1.0247 0.0335,0.22805 0.0465,0.55729 0.0428,0.98643 h -3.63982 c 0.0236,0.49722 0.19734,0.84564 0.5255,1.05023 0.19726,0.12463 0.43693,0.18516 0.71864,0.18516 0.29701,0 0.53935,-0.0774 0.72481,-0.2283 0.10137,-0.0828 0.18966,-0.1955 0.26846,-0.34084 h 1.33496 c -0.0365,0.29313 -0.19857,0.59483 -0.48643,0.89707 -0.44504,0.48235 -1.07548,0.72629 -1.87803,0.72629 -0.66291,0 -1.25201,-0.20384 -1.75889,-0.61149 -0.50877,-0.40795 -0.76409,-1.07239 -0.76409,-1.98967 0,-0.86201 0.22948,-1.51943 0.69127,-1.98077 0.45804,-0.45619 1.05313,-0.68652 1.78502,-0.68652 0.43315,0 0.82617,0.0762 1.17238,0.23159 z m -1.9509,1.12177 v 0 c -0.18537,0.1897 -0.30103,0.44402 -0.34897,0.77044 h 2.24912 c -0.0228,-0.34637 -0.13998,-0.60765 -0.34612,-0.78449 -0.20773,-0.17937 -0.4694,-0.26975 -0.77553,-0.26975 -0.33494,0 -0.59698,0.0963 -0.7785,0.2838"
       style="fill:#c72e8f;fill-opacity:1;fill-rule:evenodd;stroke:none;stroke-width:0.89227873"
       id="path4014"
       inkscape:connector-curvature="0" />
    <path
       d="m 116.60875,291.6182 c 0.24243,-0.0308 0.41615,-0.0656 0.51983,-0.11151 0.1869,-0.0792 0.28154,-0.20433 0.28154,-0.37083 2e-4,-0.20181 -0.0713,-0.34387 -0.2153,-0.42077 -0.14531,-0.0762 -0.3555,-0.11453 -0.63425,-0.11453 -0.31395,0 -0.53454,0.0747 -0.66408,0.22754 -0.0932,0.11151 -0.15418,0.2652 -0.18437,0.45619 h -1.26185 c 0.0288,-0.43492 0.15037,-0.79215 0.36689,-1.07097 0.35024,-0.43945 0.9431,-0.65562 1.7861,-0.65562 0.55125,0 1.03637,0.1057 1.46447,0.32268 0.42547,0.21621 0.63675,0.62207 0.63675,1.21942 v 2.28008 c 0,0.15616 0.003,0.3494 0.0128,0.57268 0.005,0.17104 0.0322,0.28905 0.0752,0.34736 0.0426,0.0606 0.10753,0.11074 0.19451,0.14959 v 0.19096 h -1.42162 c -0.039,-0.0994 -0.0675,-0.19374 -0.0829,-0.28007 -0.0153,-0.089 -0.0262,-0.19096 -0.0365,-0.30195 -0.18284,0.19297 -0.38924,0.35927 -0.6264,0.498 -0.28295,0.15817 -0.60172,0.24016 -0.95722,0.24016 -0.45528,0 -0.8303,-0.13016 -1.12722,-0.38598 -0.29576,-0.25656 -0.44481,-0.61974 -0.44481,-1.09152 0,-0.60898 0.23736,-1.05425 0.71329,-1.32388 0.26202,-0.14961 0.64715,-0.25533 1.15592,-0.31791 z m 0.79754,0.60766 v 0 c -0.0844,0.0513 -0.16991,0.0938 -0.25182,0.12563 -0.0854,0.0308 -0.20237,0.0625 -0.35274,0.0887 l -0.29694,0.055 c -0.28018,0.0494 -0.47879,0.10773 -0.60054,0.17736 -0.20515,0.1173 -0.30758,0.30524 -0.30758,0.55355 0,0.21922 0.0625,0.38063 0.1869,0.47755 0.12705,0.0991 0.28153,0.1496 0.46028,0.1496 0.28555,0 0.54751,-0.0828 0.78895,-0.24647 0.23863,-0.16373 0.36562,-0.46395 0.37351,-0.89683 z"
       style="fill:#c72e8f;fill-opacity:1;fill-rule:evenodd;stroke:none;stroke-width:0.89227873"
       id="path4016"
       inkscape:connector-curvature="0" />
    <path
       d="m 123.18483,293.05457 c 0.0269,0.23209 0.0892,0.39737 0.17777,0.49171 0.16458,0.1728 0.46538,0.2631 0.90382,0.2631 0.25818,0 0.46303,-0.0397 0.61496,-0.11505 0.14937,-0.0787 0.22824,-0.19196 0.22824,-0.34111 0,-0.14658 -0.061,-0.25881 -0.18563,-0.33375 -0.123,-0.0748 -0.57723,-0.20636 -1.36305,-0.39148 -0.56931,-0.14002 -0.96895,-0.31409 -1.20101,-0.52525 -0.23254,-0.20636 -0.34764,-0.50452 -0.34764,-0.89352 0,-0.45664 0.18157,-0.85098 0.54474,-1.18391 0.3616,-0.32848 0.87277,-0.4935 1.53038,-0.4935 0.62533,0 1.13374,0.12438 1.52655,0.37087 0.39186,0.25 0.61759,0.67637 0.67867,1.28358 h -1.30631 c -0.0203,-0.16675 -0.0675,-0.2977 -0.14405,-0.3964 -0.14277,-0.17557 -0.38771,-0.26306 -0.7326,-0.26306 -0.28429,0 -0.49042,0.0437 -0.61109,0.13143 -0.12172,0.0878 -0.18157,0.19097 -0.18157,0.30978 2.8e-4,0.14986 0.065,0.2566 0.19196,0.32387 0.12833,0.0696 0.58498,0.18971 1.36455,0.36131 0.52014,0.11882 0.90937,0.3032 1.17006,0.55088 0.25792,0.24824 0.38368,0.55934 0.38368,0.93295 0,0.49293 -0.18385,0.89476 -0.55231,1.20383 -0.36975,0.31229 -0.93907,0.47097 -1.71094,0.47097 -0.78717,0 -1.36463,-0.16524 -1.742,-0.49597 -0.37348,-0.32866 -0.56162,-0.74923 -0.56162,-1.26132 z"
       style="fill:#c72e8f;fill-opacity:1;fill-rule:evenodd;stroke:none;stroke-width:0.89227873"
       id="path4018"
       inkscape:connector-curvature="0" />
    <path
       d="m 126.73606,290.64469 v -0.92263 h 0.69635 v -1.38691 h 1.29362 v 1.38691 h 0.80791 v 0.92263 h -0.80791 v 2.62332 c 0,0.20458 0.0228,0.33355 0.0738,0.38223 0.0517,0.0515 0.21022,0.0772 0.47727,0.0772 0.0412,0 0.0832,-8.8e-4 0.12579,-0.008 0.0455,0 0.0882,-8.9e-4 0.13085,-0.002 l 2.5e-4,0.9704 -0.61718,0.0228 c -0.61755,0.0202 -1.03928,-0.0857 -1.26623,-0.31861 -0.14404,-0.14833 -0.21809,-0.37742 -0.21809,-0.68971 v -3.05692 z"
       style="fill:#c72e8f;fill-opacity:1;fill-rule:evenodd;stroke:none;stroke-width:0.89227873"
       id="path4020"
       inkscape:connector-curvature="0" />
    <path
       d="m 133.48463,289.77511 c 0.349,0.1569 0.63705,0.40084 0.86402,0.73607 0.20489,0.29493 0.336,0.63348 0.39811,1.0247 0.0352,0.22805 0.0482,0.55729 0.0429,0.98643 h -3.63571 c 0.0178,0.49722 0.19451,0.84564 0.52012,1.05023 0.2011,0.12463 0.44096,0.18516 0.71866,0.18516 0.29845,0 0.54087,-0.0774 0.72785,-0.2283 0.0997,-0.0828 0.19044,-0.1955 0.26954,-0.34084 h 1.33208 c -0.0349,0.29313 -0.19577,0.59483 -0.48514,0.89707 -0.44607,0.48235 -1.07265,0.72629 -1.87679,0.72629 -0.66419,0 -1.25175,-0.20384 -1.75891,-0.61149 -0.50691,-0.40795 -0.76274,-1.07239 -0.76274,-1.98967 0,-0.86201 0.22696,-1.51943 0.68741,-1.98077 0.45806,-0.45619 1.0534,-0.68652 1.78628,-0.68652 0.43442,0 0.82623,0.0762 1.17236,0.23159 z m -1.9506,1.12177 v 0 c -0.18538,0.1897 -0.30228,0.44402 -0.34765,0.77044 h 2.24779 c -0.0254,-0.34637 -0.13871,-0.60765 -0.34747,-0.78449 -0.20768,-0.17937 -0.46456,-0.26975 -0.77445,-0.26975 -0.33467,0 -0.59537,0.0963 -0.77822,0.2838"
       style="fill:#c72e8f;fill-opacity:1;fill-rule:evenodd;stroke:none;stroke-width:0.89227873"
       id="path4022"
       inkscape:connector-curvature="0" />
    <path
       d="m 139.83426,290.2659 c 0.40263,0.42354 0.60863,1.04439 0.60863,1.86106 0,0.86403 -0.20118,1.52347 -0.59575,1.97717 -0.39739,0.45287 -0.90668,0.67867 -1.52936,0.67867 -0.39712,0 -0.72611,-0.0969 -0.98931,-0.29329 -0.14421,-0.10837 -0.28595,-0.26508 -0.42283,-0.47258 v 2.5561 h -1.28175 v -6.83553 h 1.2419 v 0.72651 c 0.1417,-0.21475 0.2912,-0.38348 0.45006,-0.50354 0.29021,-0.22023 0.63557,-0.33055 1.03271,-0.33055 0.58692,0 1.08082,0.21102 1.4857,0.63598 z m -0.99813,0.92187 v 0 c -0.17648,-0.2903 -0.46034,-0.43698 -0.85748,-0.43698 -0.47603,0 -0.80228,0.21924 -0.97899,0.66163 -0.094,0.23593 -0.13791,0.53217 -0.13791,0.89365 2.6e-4,0.56558 0.15354,0.96916 0.46667,1.20041 0.17952,0.13179 0.3973,0.2018 0.65018,0.2018 0.36636,0 0.6434,-0.13877 0.83703,-0.41282 0.18935,-0.27879 0.28471,-0.64609 0.28471,-1.10345 1.7e-4,-0.37916 -0.0887,-0.71631 -0.26426,-1.00424"
       style="fill:#c72e8f;fill-opacity:1;fill-rule:evenodd;stroke:none;stroke-width:0.88414466"
       id="path4024"
       inkscape:connector-curvature="0" />
    <path
       d="m 145.34025,291.6182 c 0.24369,-0.0308 0.41993,-0.0656 0.52264,-0.11151 0.18816,-0.0792 0.27991,-0.20433 0.27991,-0.37083 0,-0.20181 -0.0713,-0.34387 -0.21404,-0.42077 -0.14377,-0.0762 -0.35532,-0.11453 -0.63274,-0.11453 -0.31159,0 -0.53731,0.0747 -0.66567,0.22754 -0.0917,0.11151 -0.15546,0.2652 -0.18539,0.45619 h -1.25799 c 0.0252,-0.43492 0.1491,-0.79215 0.36689,-1.07097 0.34638,-0.43945 0.94182,-0.65562 1.78606,-0.65562 0.54751,0 1.03669,0.1057 1.4617,0.32268 0.42701,0.21621 0.63821,0.62207 0.63821,1.21942 v 2.28008 c 0,0.15616 0.005,0.3494 0.0102,0.57268 0.0103,0.17104 0.0375,0.28905 0.0793,0.34736 0.0442,0.0606 0.10498,0.11074 0.19222,0.14959 v 0.19096 h -1.42163 c -0.0365,-0.0994 -0.064,-0.19374 -0.0807,-0.28007 -0.0178,-0.089 -0.0273,-0.19096 -0.0362,-0.30195 -0.18285,0.19297 -0.39183,0.35927 -0.62792,0.498 -0.28118,0.15817 -0.60172,0.24016 -0.95733,0.24016 -0.45641,0 -0.83144,-0.13016 -1.12586,-0.38598 -0.298,-0.25656 -0.44461,-0.61974 -0.44461,-1.09152 0,-0.60898 0.23735,-1.05425 0.71337,-1.32388 0.26345,-0.14961 0.64839,-0.25533 1.15438,-0.31791 z m 0.79906,0.60766 v 0 c -0.0832,0.0513 -0.16763,0.0938 -0.25183,0.12563 -0.0869,0.0308 -0.20236,0.0625 -0.35023,0.0887 l -0.29816,0.055 c -0.27769,0.0494 -0.4803,0.10773 -0.60056,0.17736 -0.20515,0.1173 -0.30632,0.30524 -0.30632,0.55355 0,0.21922 0.0596,0.38063 0.18563,0.47755 0.12578,0.0991 0.28118,0.1496 0.46026,0.1496 0.283,0 0.54751,-0.0828 0.78739,-0.24647 0.23888,-0.16373 0.36445,-0.46395 0.37358,-0.89683 z"
       style="fill:#c72e8f;fill-opacity:1;fill-rule:evenodd;stroke:none;stroke-width:0.89227873"
       id="path4026"
       inkscape:connector-curvature="0" />
    <path
       d="m 152.02915,289.70346 c 0.25182,0.10469 0.45775,0.26842 0.61854,0.48762 0.1377,0.18365 0.21935,0.37457 0.25281,0.56982 0.0277,0.19804 0.0445,0.51949 0.0445,0.95948 v 2.92003 h -1.33468 v -3.02372 c 0,-0.26796 -0.0455,-0.48414 -0.13618,-0.64858 -0.11689,-0.22908 -0.3411,-0.34462 -0.67326,-0.34462 -0.34111,0 -0.6018,0.11554 -0.77957,0.34335 -0.17498,0.22905 -0.26568,0.55595 -0.26568,0.98252 v 2.69105 h -1.30498 v -6.69301 h 1.30498 v 2.36648 c 0.18917,-0.28327 0.40721,-0.48459 0.65474,-0.60011 0.24928,-0.11325 0.50868,-0.17027 0.78359,-0.17027 0.30605,0 0.58625,0.0543 0.83531,0.15993"
       style="fill:#c72e8f;fill-opacity:1;fill-rule:evenodd;stroke:none;stroke-width:0.89227873"
       id="path4028"
       inkscape:connector-curvature="0" />
    <path
       d="m 157.2848,289.77511 c 0.34612,0.1569 0.63426,0.40084 0.86276,0.73607 0.20364,0.29493 0.33573,0.63348 0.39656,1.0247 0.0377,0.22805 0.0507,0.55729 0.0442,0.98643 h -3.63676 c 0.0228,0.49722 0.19451,0.84564 0.52012,1.05023 0.20211,0.12463 0.44231,0.18516 0.72374,0.18516 0.29576,0 0.53838,-0.0774 0.72375,-0.2283 0.10118,-0.0828 0.19197,-0.1955 0.26855,-0.34084 h 1.3334 c -0.0352,0.29313 -0.19728,0.59483 -0.4854,0.89707 -0.44606,0.48235 -1.0739,0.72629 -1.8793,0.72629 -0.66139,0 -1.25048,-0.20384 -1.75611,-0.61149 -0.51001,-0.40795 -0.76535,-1.07239 -0.76535,-1.98967 0,-0.86201 0.22975,-1.51943 0.69127,-1.98077 0.45805,-0.45619 1.05188,-0.68652 1.78475,-0.68652 0.43344,0 0.82625,0.0762 1.17389,0.23159 z m -1.95214,1.12177 v 0 c -0.18411,0.1897 -0.30103,0.44402 -0.34764,0.77044 h 2.24805 c -0.0254,-0.34637 -0.14024,-0.60765 -0.35024,-0.78449 -0.20515,-0.17937 -0.46331,-0.26975 -0.77195,-0.26975 -0.3344,0 -0.59509,0.0963 -0.77822,0.2838"
       style="fill:#c72e8f;fill-opacity:1;fill-rule:evenodd;stroke:none;stroke-width:0.89227873"
       id="path4030"
       inkscape:connector-curvature="0" />
    <path
       d="m 161.08535,291.6182 c 0.24394,-0.0308 0.41769,-0.0656 0.52262,-0.11151 0.1869,-0.0792 0.28154,-0.20433 0.28154,-0.37083 0,-0.20181 -0.0728,-0.34387 -0.21656,-0.42077 -0.14405,-0.0762 -0.3558,-0.11453 -0.63454,-0.11453 -0.3124,0 -0.53302,0.0747 -0.66255,0.22754 -0.0932,0.11151 -0.15697,0.2652 -0.18691,0.45619 h -1.25924 c 0.0284,-0.43492 0.14911,-0.79215 0.36686,-1.07097 0.34641,-0.43945 0.94311,-0.65562 1.78502,-0.65562 0.54985,0 1.03749,0.1057 1.46584,0.32268 0.42394,0.21621 0.63775,0.62207 0.63775,1.21942 v 2.28008 c 0,0.15616 0.003,0.3494 0.0102,0.57268 0.005,0.17104 0.035,0.28905 0.075,0.34736 0.0455,0.0606 0.1103,0.11074 0.1945,0.14959 v 0.19096 h -1.41884 c -0.0402,-0.0994 -0.0703,-0.19374 -0.0844,-0.28007 -0.0153,-0.089 -0.0288,-0.19096 -0.035,-0.30195 -0.18284,0.19297 -0.39185,0.35927 -0.62668,0.498 -0.28242,0.15817 -0.59895,0.24016 -0.95955,0.24016 -0.45544,0 -0.83154,-0.13016 -1.12596,-0.38598 -0.29566,-0.25656 -0.44498,-0.61974 -0.44498,-1.09152 1.7e-4,-0.60898 0.23863,-1.05425 0.71739,-1.32388 0.25943,-0.14961 0.64331,-0.25533 1.1543,-0.31791 z m 0.79782,0.60766 v 0 c -0.0819,0.0513 -0.16889,0.0938 -0.25181,0.12563 -0.0857,0.0308 -0.2011,0.0625 -0.35024,0.0887 l -0.29818,0.055 c -0.27895,0.0494 -0.47755,0.10773 -0.60054,0.17736 -0.20515,0.1173 -0.30883,0.30524 -0.30883,0.55355 0,0.21922 0.0637,0.38063 0.1907,0.47755 0.12451,0.0991 0.27743,0.1496 0.45652,0.1496 0.28681,0 0.5475,-0.0828 0.78861,-0.24647 0.23989,-0.16373 0.36598,-0.46395 0.37359,-0.89683 z"
       style="fill:#c72e8f;fill-opacity:1;fill-rule:evenodd;stroke:none;stroke-width:0.89227873"
       id="path4032"
       inkscape:connector-curvature="0" />
    <path
       d="m 166.83141,289.75366 c 0.23483,0.13295 0.42682,0.31627 0.57309,0.54991 v -2.36909 h 1.32178 v 6.70593 h -1.26693 v -0.68796 c -0.18816,0.2961 -0.39846,0.50978 -0.63707,0.64398 -0.23736,0.13421 -0.53326,0.20005 -0.88861,0.20005 -0.58497,0 -1.07236,-0.23359 -1.47073,-0.70582 -0.4007,-0.469 -0.59929,-1.07115 -0.59929,-1.80402 0,-0.84965 0.19705,-1.51613 0.58883,-2.00251 0.39058,-0.48385 0.91696,-0.72656 1.57477,-0.72656 0.30076,0 0.56906,0.0658 0.80416,0.19602 z m 0.32029,3.53979 v 0 c 0.19323,-0.27392 0.29038,-0.62857 0.29038,-1.06153 2.5e-4,-0.60721 -0.15419,-1.04339 -0.46662,-1.30325 -0.18564,-0.15944 -0.40499,-0.23739 -0.65531,-0.23739 -0.38236,0 -0.66408,0.14379 -0.84443,0.43037 -0.17522,0.28756 -0.26579,0.64228 -0.26579,1.07036 0,0.45592 0.0905,0.82322 0.27241,1.09793 0.18031,0.2767 0.45771,0.41172 0.8262,0.41172 0.37097,0 0.65251,-0.13498 0.84316,-0.40824"
       style="fill:#c72e8f;fill-opacity:1;fill-rule:evenodd;stroke:none;stroke-width:0.89227873"
       id="path4034"
       inkscape:connector-curvature="0" />
    <path
       d="m 176.40364,294.03238 c -0.4227,0.52019 -1.06226,0.77951 -1.91964,0.77951 -0.85962,0 -1.49794,-0.25932 -1.91842,-0.77951 -0.42395,-0.51589 -0.63417,-1.13719 -0.63417,-1.86579 0,-0.71749 0.20997,-1.33859 0.63417,-1.86553 0.42048,-0.52268 1.05852,-0.78406 1.91842,-0.78406 0.85738,0 1.49669,0.26138 1.91964,0.78406 0.42279,0.52694 0.63177,1.14804 0.63177,1.86553 0,0.7286 -0.20896,1.3499 -0.63177,1.86579 z m -1.04401,-0.71721 v 0 c 0.20363,-0.26939 0.30487,-0.65235 0.30487,-1.14858 0,-0.49795 -0.10118,-0.88114 -0.30487,-1.15088 -0.20387,-0.26709 -0.49954,-0.40263 -0.87939,-0.40263 -0.38148,0 -0.67562,0.13547 -0.88075,0.40263 -0.20768,0.26974 -0.30991,0.65293 -0.30991,1.15088 0,0.49623 0.10221,0.87919 0.30991,1.14858 0.20515,0.26966 0.49927,0.40394 0.88075,0.40394 0.3801,0 0.67552,-0.1342 0.87939,-0.40394"
       style="fill:#c72e8f;fill-opacity:1;fill-rule:evenodd;stroke:none;stroke-width:0.89227873"
       id="path4036"
       inkscape:connector-curvature="0" />
    <path
       d="m 179.89412,287.86231 c 0.0675,0.005 0.15849,0.01 0.27609,0.0228 v 1.05673 c -0.0735,-0.008 -0.19704,-0.0151 -0.36948,-0.0203 -0.17245,-0.002 -0.29181,0.0337 -0.35803,0.11428 -0.065,0.0794 -0.0972,0.16775 -0.0972,0.26796 0,0.0947 0,0.23612 0,0.4197 h 0.8549 v 0.91551 h -0.8549 v 4.00283 h -1.29709 v -4.00283 h -0.73161 v -0.91551 h 0.71212 v -0.32057 c 0,-0.53155 0.0935,-0.89661 0.26981,-1.09793 0.19222,-0.29813 0.64964,-0.44522 1.37215,-0.44522 0.0819,0 0.15824,0 0.22315,0.005"
       style="fill:#c72e8f;fill-opacity:1;fill-rule:evenodd;stroke:none;stroke-width:0.89227873"
       id="path4038"
       inkscape:connector-curvature="0" />
    <path
       d="m 184.61186,294.64041 h -1.30623 v -6.71497 h 1.30623 z"
       style="fill:#c72e8f;fill-opacity:1;fill-rule:evenodd;stroke:none;stroke-width:0.89227873"
       id="path4040"
       inkscape:connector-curvature="0" />
    <path
       d="m 187.08644,289.08361 h -1.32277 v -1.19929 h 1.32277 z m -1.32277,0.59004 v 0 h 1.32277 v 4.96676 h -1.32277 z"
       style="fill:#c72e8f;fill-opacity:1;fill-rule:evenodd;stroke:none;stroke-width:0.89227873"
       id="path4042"
       inkscape:connector-curvature="0" />
    <path
       d="m 190.27606,287.86231 c 0.0663,0.005 0.15824,0.01 0.2723,0.0228 v 1.05673 c -0.0728,-0.008 -0.19475,-0.0151 -0.36714,-0.0203 -0.17243,-0.002 -0.29038,0.0337 -0.35532,0.11428 -0.0675,0.0794 -0.0987,0.16775 -0.0987,0.26796 0,0.0947 0,0.23612 0,0.4197 h 0.85616 v 0.91551 h -0.85616 v 4.00283 h -1.29842 v -4.00283 h -0.73009 v -0.91551 h 0.71335 v -0.32057 c 0,-0.53155 0.0892,-0.89661 0.26858,-1.09793 0.1907,-0.29813 0.64589,-0.44522 1.37088,-0.44522 0.0817,0 0.15569,0 0.22442,0.005"
       style="fill:#c72e8f;fill-opacity:1;fill-rule:evenodd;stroke:none;stroke-width:0.89227873"
       id="path4044"
       inkscape:connector-curvature="0" />
    <path
       d="m 194.44485,289.77511 c 0.35147,0.1569 0.63669,0.40084 0.86241,0.73607 0.20643,0.29493 0.33859,0.63348 0.40095,1.0247 0.0337,0.22805 0.048,0.55729 0.0426,0.98643 h -3.63693 c 0.0203,0.49722 0.19476,0.84564 0.52291,1.05023 0.19728,0.12463 0.4397,0.18516 0.71837,0.18516 0.29824,0 0.53989,-0.0774 0.72527,-0.2283 0.0997,-0.0828 0.19068,-0.1955 0.26703,-0.34084 h 1.3359 c -0.036,0.29313 -0.19551,0.59483 -0.48381,0.89707 -0.44989,0.48235 -1.07369,0.72629 -1.88064,0.72629 -0.66414,0 -1.24895,-0.20384 -1.75889,-0.61149 -0.50848,-0.40795 -0.76131,-1.07239 -0.76131,-1.98967 2.9e-4,-0.86201 0.2295,-1.51943 0.69002,-1.98077 0.45669,-0.45619 1.05187,-0.68652 1.78474,-0.68652 0.43319,0 0.82366,0.0762 1.1714,0.23159 z m -1.95088,1.12177 v 0 c -0.18411,0.1897 -0.29952,0.44402 -0.34898,0.77044 h 2.24912 c -0.0228,-0.34637 -0.13872,-0.60765 -0.3462,-0.78449 -0.20896,-0.17937 -0.46583,-0.26975 -0.77447,-0.26975 -0.33699,0 -0.59509,0.0963 -0.77947,0.2838"
       style="fill:#c72e8f;fill-opacity:1;fill-rule:evenodd;stroke:none;stroke-width:0.89227873"
       id="path4046"
       inkscape:connector-curvature="0" />
    <path
       d="m 16.017014,283.47111 c -0.269007,0 -0.403914,-0.11075 -0.403914,-0.33606 V 243.98013 H 0.82191363 c -0.26927681,0 -0.404184,-0.13395 -0.404184,-0.4019 v -7.32264 c 0,-0.26894 0.13490981,-0.40261 0.404184,-0.40261 H 39.310288 c 0.270083,0 0.404988,0.13369 0.404988,0.40261 v 7.32264 c 0,0.26786 -0.13491,0.4019 -0.404988,0.4019 H 24.590135 v 39.15492 c 0,0.22529 -0.134909,0.33606 -0.403468,0.33606 z"
       style="fill:#c72e8f;fill-opacity:1;fill-rule:evenodd;stroke:none;stroke-width:0.89227873"
       id="path4048"
       inkscape:connector-curvature="0" />
    <path
       d="m 38.822904,283.13711 c -0.124538,0.25675 -0.282783,0.34182 -0.473516,0.34182 h -8.907076 c -0.189127,0 -0.343619,-0.15338 -0.343619,-0.34182 l 18.733723,-46.97843 c 0.02584,-0.0963 0.163261,-0.29592 0.348719,-0.29592 l 9.032859,-0.0459 c 0.190903,0 0.344873,0.15464 0.344873,0.34183 z"
       style="fill:#c72e8f;fill-opacity:1;fill-rule:evenodd;stroke:none;stroke-width:0.89227873"
       id="path4050"
       inkscape:connector-curvature="0" />
    <path
       d="m 66.760626,283.16657 c 0.08034,0.18466 0.25283,0.34137 0.440955,0.34137 h 8.942055 c 0.188239,0 0.406063,-0.15666 0.343621,-0.34137 L 57.651188,236.15868 c -0.09234,-0.26888 -0.274912,-0.34183 -0.463047,-0.34183 h -8.916026 c -0.190648,0 -0.377614,0.10468 -0.42297,0.29289 z"
       style="fill:#3052a1;fill-opacity:1;fill-rule:evenodd;stroke:none;stroke-width:0.89227873"
       id="path4052"
       inkscape:connector-curvature="0" />
    <path
       d="m 86.494437,283.0854 c 0.06853,0.18314 0.21659,0.34255 0.408297,0.34255 h 8.972026 c 0.18938,0 0.387994,-0.15263 0.345141,-0.34255 L 77.432945,236.15868 c -0.109044,-0.20107 -0.172466,-0.30828 -0.360613,-0.30828 l -9.01998,-0.0335 c -0.190649,0 -0.347374,0.15464 -0.347374,0.34182 z"
       style="fill:#3052a1;fill-opacity:1;fill-rule:evenodd;stroke:none;stroke-width:0.89227873"
       id="path4054"
       inkscape:connector-curvature="0" />
    <path
       d="m 63.530913,247.16225 c 0.168636,0.39149 3.591584,9.09616 4.420259,11.21372 0.09357,0.21669 0.328145,0.28426 0.469668,-0.0151 0.13491,-0.29494 8.958879,-22.28084 8.958879,-22.28084 -0.04516,-0.1549 -0.214082,-0.26262 -0.390316,-0.26262 h -9.038231 c -0.128291,0.005 -0.282425,0.16802 -0.344871,0.34183 l -4.111887,10.26343 c 0,0 -0.151723,0.29411 0.03649,0.74014"
       style="fill:#c72e8f;fill-opacity:1;fill-rule:evenodd;stroke:none;stroke-width:0.89227873"
       id="path4056"
       inkscape:connector-curvature="0" />
    <path
       d="m 158.10085,246.04216 v 6.61558 h -1.16603 v -6.61558 h -2.12103 v -1.04338 h 5.40505 v 1.04338 z"
       style="fill:#3052a1;fill-opacity:1;fill-rule:evenodd;stroke:none;stroke-width:0.89227873"
       id="path4058"
       inkscape:connector-curvature="0" />
    <path
       d="m 163.27992,252.65774 v -0.495 c -0.40096,0.39629 -0.78082,0.5588 -1.46073,0.5588 -0.68186,0 -1.13882,-0.16245 -1.4733,-0.49624 -0.27895,-0.28834 -0.4306,-0.70759 -0.4306,-1.16824 0,-0.91826 0.6383,-1.57238 1.89254,-1.57238 h 1.44872 v -0.38884 c 0,-0.6879 -0.34612,-1.02085 -1.20126,-1.02085 -0.60584,0 -0.89611,0.14052 -1.19815,0.52793 l -0.72374,-0.67629 c 0.51753,-0.60374 1.05689,-0.78706 1.96732,-0.78706 1.50223,0 2.25692,0.63543 2.25692,1.87281 v 3.64536 z m -0.0228,-2.40921 v 0 h -1.28796 c -0.64743,0 -0.98192,0.29039 -0.98192,0.78459 0,0.49491 0.31239,0.77364 1.00402,0.77364 0.42295,0 0.73662,-0.031 1.02726,-0.31106 0.16357,-0.16195 0.23863,-0.41925 0.23863,-0.80698 z"
       style="fill:#3052a1;fill-opacity:1;fill-rule:evenodd;stroke:none;stroke-width:0.89227873"
       id="path4060"
       inkscape:connector-curvature="0" />
    <path
       d="m 172.35965,252.65774 v -3.324 c 0,-0.84856 -0.48532,-1.21567 -1.10413,-1.21567 -0.59133,0 -1.13355,0.3769 -1.13355,1.16273 v 3.37694 h -1.1036 v -3.324 c 0,-0.84856 -0.48515,-1.21567 -1.10134,-1.21567 -0.61747,0 -1.13357,0.3769 -1.13357,1.21567 v 3.324 h -1.10509 v -5.45366 h 1.08183 v 0.54972 c 0.36815,-0.39985 0.90786,-0.61423 1.45758,-0.61423 0.68369,0 1.21552,0.26966 1.55913,0.79615 0.44121,-0.53942 0.99356,-0.79615 1.71855,-0.79615 0.56198,0 1.0585,0.18339 1.38403,0.49569 0.42282,0.40688 0.5851,0.92502 0.5851,1.53661 v 3.48587 z"
       style="fill:#3052a1;fill-opacity:1;fill-rule:evenodd;stroke:none;stroke-width:0.89227873"
       id="path4062"
       inkscape:connector-curvature="0" />
    <path
       d="m 174.74978,246.1292 v -1.16247 h 1.16773 v 1.16247 z m 0.0342,6.52854 v 0 -5.45366 h 1.10207 v 5.45366 z"
       style="fill:#3052a1;fill-opacity:1;fill-rule:evenodd;stroke:none;stroke-width:0.89227873"
       id="path4064"
       inkscape:connector-curvature="0" />
    <path
       d="m 178.73061,252.65774 c -1.04938,0 -1.50331,-0.69879 -1.50331,-1.5058 v -6.15316 h 1.10138 v 6.08782 c 0,0.41953 0.15289,0.63366 0.59516,0.63366 l 0.48667,-2.8e-4 v 0.93776 z"
       style="fill:#3052a1;fill-opacity:1;fill-rule:evenodd;stroke:none;stroke-width:0.89227873"
       id="path4066"
       inkscape:connector-curvature="0" />
    <path
       d="m 183.58205,252.65774 v -3.324 c 0,-0.84856 -0.4828,-1.21567 -1.10008,-1.21567 -0.61621,0 -1.13507,0.3769 -1.13507,1.21567 v 3.324 h -1.10386 v -5.45366 h 1.08184 v 0.54972 c 0.37862,-0.40892 0.90785,-0.61423 1.46035,-0.61423 0.56048,0 1.02478,0.18339 1.35042,0.49569 0.42019,0.40688 0.54973,0.92502 0.54973,1.53661 l 2.8e-4,3.48587 z"
       style="fill:#3052a1;fill-opacity:1;fill-rule:evenodd;stroke:none;stroke-width:0.89227873"
       id="path4068"
       inkscape:connector-curvature="0" />
    <path
       d="m 188.95938,252.65774 v -0.495 c -0.40061,0.39629 -0.78072,0.5588 -1.45786,0.5588 -0.68617,0 -1.13884,-0.16245 -1.47458,-0.49624 -0.28027,-0.28834 -0.43085,-0.70759 -0.43085,-1.16824 0,-0.91826 0.63545,-1.57238 1.8912,-1.57238 h 1.44882 v -0.38884 c 0,-0.6879 -0.34774,-1.02085 -1.19851,-1.02085 -0.60582,0 -0.90024,0.14052 -1.20127,0.52793 l -0.72375,-0.67629 c 0.51763,-0.60374 1.05851,-0.78706 1.96636,-0.78706 1.50355,0 2.25978,0.63543 2.25978,1.87281 v 3.64536 z m -0.0228,-2.40921 v 0 h -1.2842 c -0.65119,0 -0.98695,0.29039 -0.98695,0.78459 0,0.49491 0.31519,0.77364 1.00519,0.77364 0.42297,0 0.73546,-0.031 1.02853,-0.31106 0.1623,-0.16195 0.23736,-0.41925 0.23736,-0.80698 z"
       style="fill:#3052a1;fill-opacity:1;fill-rule:evenodd;stroke:none;stroke-width:0.89227873"
       id="path4070"
       inkscape:connector-curvature="0" />
    <path
       d="m 194.50569,252.65774 v -0.58122 c -0.41234,0.49338 -0.85615,0.64502 -1.45025,0.64502 -0.55107,0 -1.03775,-0.18088 -1.34101,-0.48441 -0.54976,-0.54634 -0.61372,-1.48356 -0.61372,-2.31299 2.8e-4,-0.8283 0.064,-1.75152 0.61372,-2.30026 0.30326,-0.30099 0.77954,-0.48431 1.3283,-0.48431 0.5848,0 1.04025,0.14128 1.44086,0.61423 v -2.75502 h 1.1001 v 7.65896 z m -1.15693,-4.53967 v 0 c -0.99604,0 -1.14794,0.83834 -1.14794,1.80607 0,0.96917 0.1519,1.81907 1.14794,1.81907 0.99232,0 1.13483,-0.8499 1.13483,-1.81907 0,-0.96799 -0.14278,-1.80607 -1.13483,-1.80607"
       style="fill:#3052a1;fill-opacity:1;fill-rule:evenodd;stroke:none;stroke-width:0.89227873"
       id="path4072"
       inkscape:connector-curvature="0" />
    <path
       d="m 154.491,263.41302 v -5.11982 l -1.77186,3.73381 h -0.86524 l -1.81847,-3.73381 v 5.11982 h -1.16472 v -7.65923 h 1.16472 l 2.24911,4.76572 2.20646,-4.76572 h 1.16881 v 7.65923 z"
       style="fill:#3052a1;fill-opacity:1;fill-rule:evenodd;stroke:none;stroke-width:0.89227873"
       id="path4074"
       inkscape:connector-curvature="0" />
    <path
       d="m 157.96442,261.00534 c 0,0.93337 0.494,1.52778 1.393,1.52778 0.61496,-2.6e-4 0.94052,-0.17357 1.32823,-0.55951 l 0.70424,0.65484 c -0.56399,0.56056 -1.09195,0.85042 -2.05584,0.85042 -1.36963,0 -2.46435,-0.72122 -2.46435,-2.7972 2.6e-4,-1.76391 0.91696,-2.78583 2.32686,-2.78583 1.4686,-2.8e-4 2.32321,1.07594 2.32321,2.62385 v 0.48565 z m 2.31022,-1.50856 v 0 c -0.17243,-0.40618 -0.56172,-0.68572 -1.07808,-0.68572 -0.52237,0 -0.92073,0.27954 -1.0932,0.68596 -0.10778,0.24901 -0.12984,0.41046 -0.13897,0.74446 h 2.46464 c -0.0127,-0.334 -0.0455,-0.49543 -0.15444,-0.7447"
       style="fill:#3052a1;fill-opacity:1;fill-rule:evenodd;stroke:none;stroke-width:0.89227873"
       id="path4076"
       inkscape:connector-curvature="0" />
    <path
       d="m 165.61726,259.23949 c -0.24878,-0.24823 -0.44229,-0.36436 -0.8224,-0.36436 -0.59414,0 -1.09199,0.47205 -1.09199,1.22708 v 3.31081 h -1.10258 v -5.45408 h 1.08184 v 0.59279 c 0.27992,-0.3875 0.84291,-0.65589 1.45911,-0.65589 0.5305,-2.8e-4 0.9312,0.13925 1.30603,0.51618 z"
       style="fill:#3052a1;fill-opacity:1;fill-rule:evenodd;stroke:none;stroke-width:0.89227873"
       id="path4078"
       inkscape:connector-curvature="0" />
    <path
       d="m 168.79625,263.47887 c -1.23348,0 -2.44362,-0.75353 -2.44362,-2.7972 0,-2.04387 1.21014,-2.78583 2.44362,-2.78583 0.75648,-2.8e-4 1.28671,0.21419 1.80684,0.76439 l -0.75854,0.73037 c -0.34639,-0.37742 -0.61898,-0.51547 -1.0483,-0.51547 -0.4227,0 -0.77957,0.17028 -1.01566,0.48389 -0.23964,0.30194 -0.32661,0.68819 -0.32661,1.32265 0,0.63595 0.0869,1.03333 0.32661,1.33322 0.23636,0.31309 0.59296,0.48467 1.01566,0.48467 0.42957,0 0.70191,-0.14001 1.04811,-0.51618 l 0.75873,0.71928 c -0.51987,0.54962 -1.05036,0.77621 -1.80684,0.77621"
       style="fill:#3052a1;fill-opacity:1;fill-rule:evenodd;stroke:none;stroke-width:0.89227873"
       id="path4080"
       inkscape:connector-curvature="0" />
    <path
       d="m 174.40518,263.41302 v -0.49418 c -0.39999,0.39862 -0.77832,0.56003 -1.45822,0.56003 -0.67937,0 -1.13633,-0.16144 -1.47081,-0.49623 -0.28145,-0.2896 -0.4321,-0.70911 -0.4321,-1.17208 2.5e-4,-0.91292 0.63705,-1.56908 1.89127,-1.56908 h 1.4465 v -0.389 c 0,-0.68569 -0.34262,-1.01997 -1.19743,-1.01997 -0.60708,0 -0.89748,0.13923 -1.20102,0.52651 l -0.72499,-0.67683 c 0.51986,-0.60516 1.05949,-0.78635 1.97136,-0.78635 1.50099,-2.8e-4 2.25827,0.6355 2.25827,1.8688 v 3.64838 z m -0.0228,-2.40768 v 0 h -1.28295 c -0.64841,0 -0.98594,0.28887 -0.98594,0.78378 0,0.49599 0.314,0.77346 1.00553,0.77346 0.42144,0 0.73635,-0.0295 1.02701,-0.31148 0.16383,-0.16044 0.23635,-0.41854 0.23635,-0.80328 z"
       style="fill:#3052a1;fill-opacity:1;fill-rule:evenodd;stroke:none;stroke-width:0.89227873"
       id="path4082"
       inkscape:connector-curvature="0" />
    <path
       d="m 180.14695,263.41302 v -3.32363 c 0,-0.8499 -0.48487,-1.21426 -1.10243,-1.21426 -0.6187,0 -1.13633,0.37538 -1.13633,1.21426 l 2.8e-4,3.32363 h -1.10138 v -5.45408 h 1.08061 v 0.55096 c 0.3789,-0.40921 0.90661,-0.61406 1.45911,-0.61406 0.56299,-2.8e-4 1.02736,0.18115 1.35013,0.49678 0.42423,0.40634 0.55386,0.92306 0.55386,1.53676 l 2.8e-4,3.48364 z"
       style="fill:#3052a1;fill-opacity:1;fill-rule:evenodd;stroke:none;stroke-width:0.89227873"
       id="path4084"
       inkscape:connector-curvature="0" />
    <path
       d="m 184.2031,263.41302 c -1.02728,0 -1.50484,-0.72958 -1.50484,-1.51666 v -3.00075 h -0.62638 v -0.83727 h 0.62638 v -1.65665 h 1.10541 v 1.65665 h 1.05823 v 0.83727 h -1.05823 v 2.9478 c 0,0.39808 0.19298,0.63544 0.60554,0.63544 h 0.45269 v 0.93417 z"
       style="fill:#3052a1;fill-opacity:1;fill-rule:evenodd;stroke:none;stroke-width:0.89227873"
       id="path4086"
       inkscape:connector-curvature="0" />
    <path
       d="m 185.85831,256.88681 v -1.16478 h 1.16566 v 1.16478 z m 0.0309,6.52621 v 0 -5.45408 h 1.10261 v 5.45408 z"
       style="fill:#3052a1;fill-opacity:1;fill-rule:evenodd;stroke:none;stroke-width:0.89227873"
       id="path4088"
       inkscape:connector-curvature="0" />
    <path
       d="m 189.83509,263.41302 c -1.0481,0 -1.50103,-0.69799 -1.50103,-1.50456 l 2.5e-4,-6.15467 h 1.10108 v 6.08962 c 0,0.41854 0.15038,0.63544 0.59545,0.63544 h 0.48514 v 0.93417 z"
       style="fill:#3052a1;fill-opacity:1;fill-rule:evenodd;stroke:none;stroke-width:0.89227873"
       id="path4090"
       inkscape:connector-curvature="0" />
    <path
       d="m 191.88841,261.00534 c 0,0.93337 0.4965,1.52778 1.39292,1.52778 0.61601,-2.6e-4 0.94307,-0.17357 1.33216,-0.55951 l 0.70135,0.65484 c -0.56145,0.56056 -1.09044,0.85042 -2.05427,0.85042 -1.37216,0 -2.4644,-0.72122 -2.4644,-2.7972 0,-1.76391 0.91826,-2.78583 2.32287,-2.78583 1.47208,-2.8e-4 2.32696,1.07594 2.32696,2.62385 l 2.8e-4,0.48565 z m 2.31274,-1.50856 v 0 c -0.17142,-0.40618 -0.56074,-0.68572 -1.08211,-0.68572 -0.51736,0 -0.91822,0.27954 -1.09073,0.68596 -0.10751,0.24901 -0.1311,0.41046 -0.14022,0.74446 h 2.46589 c -0.0128,-0.334 -0.0444,-0.49543 -0.1529,-0.7447"
       style="fill:#3052a1;fill-opacity:1;fill-rule:evenodd;stroke:none;stroke-width:0.89227873"
       id="path4092"
       inkscape:connector-curvature="0" />
    <path
       d="m 159.78565,274.16911 h -3.11277 v -7.65673 h 2.99336 c 1.42824,0 2.32444,0.80657 2.32444,2.09539 1.8e-4,0.82973 -0.51886,1.42002 -1.03648,1.6272 0.59544,0.23436 1.15594,0.80399 1.15594,1.77315 0,1.40941 -0.96137,2.16099 -2.32449,2.16099 z m -0.2153,-6.61407 v 0 h -1.73024 v 2.1935 h 1.73024 c 0.7471,0 1.25273,-0.38598 1.25273,-1.09565 0,-0.70938 -0.50563,-1.09785 -1.25273,-1.09785 z m 0.10727,3.23687 v 0 h -1.83751 v 2.33576 h 1.83751 c 0.81223,0 1.26363,-0.49642 1.26363,-1.17278 0,-0.67857 -0.4514,-1.16298 -1.26363,-1.16298"
       style="fill:#3052a1;fill-opacity:1;fill-rule:evenodd;stroke:none;stroke-width:0.89227873"
       id="path4094"
       inkscape:connector-curvature="0" />
    <path
       d="m 166.28268,274.16911 v -0.49348 c -0.39685,0.39559 -0.77698,0.55828 -1.45787,0.55828 -0.68242,0 -1.13507,-0.16272 -1.4711,-0.49366 -0.27999,-0.29039 -0.43164,-0.70967 -0.43164,-1.17483 0,-0.91168 0.6368,-1.56918 1.89103,-1.56918 h 1.45007 v -0.38569 c 0,-0.69045 -0.34641,-1.02266 -1.20101,-1.02266 -0.60432,0 -0.89775,0.14077 -1.20002,0.52569 l -0.72347,-0.67608 c 0.51759,-0.60118 1.061,-0.78461 1.9676,-0.78461 1.50204,0 2.25824,0.63453 2.25824,1.87116 v 3.64506 z m -0.0203,-2.40822 v 0 h -1.28647 c -0.65003,0 -0.98345,0.28941 -0.98345,0.78512 0,0.49267 0.3124,0.77346 1.00269,0.77346 0.42425,0 0.73537,-0.0308 1.02728,-0.31157 0.1623,-0.16246 0.2399,-0.42051 0.2399,-0.80649 z"
       style="fill:#3052a1;fill-opacity:1;fill-rule:evenodd;stroke:none;stroke-width:0.89227873"
       id="path4096"
       inkscape:connector-curvature="0" />
    <path
       d="m 172.02597,274.16911 v -3.32317 c 0,-0.85018 -0.4864,-1.21622 -1.10108,-1.21622 -0.61853,0 -1.13867,0.37688 -1.13867,1.21622 v 3.32317 h -1.10127 v -5.45283 h 1.08025 v 0.54686 c 0.37885,-0.40608 0.90784,-0.61025 1.46071,-0.61025 0.56146,0 1.02728,0.18341 1.3514,0.49375 0.41912,0.4084 0.55,0.92583 0.55,1.53812 l 2.7e-4,3.48435 z"
       style="fill:#3052a1;fill-opacity:1;fill-rule:evenodd;stroke:none;stroke-width:0.89227873"
       id="path4098"
       inkscape:connector-curvature="0" />
    <path
       d="m 177.8981,274.16911 -1.53704,-2.51537 -0.8107,0.91168 v 1.60369 h -1.10385 v -7.65673 h 1.10385 v 4.72129 l 2.13087,-2.51739 h 1.34157 l -1.90429,2.14202 2.14134,3.31081 z"
       style="fill:#3052a1;fill-opacity:1;fill-rule:evenodd;stroke:none;stroke-width:0.89227873"
       id="path4100"
       inkscape:connector-curvature="0" />
    <path
       d="m 182.34044,274.16911 v -7.65673 h 1.16729 v 6.61529 h 3.70977 v 1.04144 z"
       style="fill:#3052a1;fill-opacity:1;fill-rule:evenodd;stroke:none;stroke-width:0.89227873"
       id="path4102"
       inkscape:connector-curvature="0" />
    <path
       d="m 189.67301,274.16911 c -1.03006,0 -1.50483,-0.73109 -1.50483,-1.51595 v -3.00074 h -0.62381 v -0.84003 h 0.62381 v -1.65336 h 1.10394 v 1.65336 h 1.05976 v 0.84003 h -1.05976 v 2.94754 c 0,0.4001 0.19426,0.63397 0.60431,0.63397 h 0.45545 v 0.93518 z"
       style="fill:#3052a1;fill-opacity:1;fill-rule:evenodd;stroke:none;stroke-width:0.89227873"
       id="path4104"
       inkscape:connector-curvature="0" />
    <path
       d="m 194.50569,274.16911 v -0.58051 c -0.41234,0.49625 -0.85615,0.64531 -1.44873,0.64531 -0.55259,0 -1.03927,-0.18087 -1.34253,-0.48406 -0.54976,-0.54722 -0.61372,-1.4839 -0.61372,-2.31237 2.8e-4,-0.82693 0.064,-1.75347 0.61372,-2.30195 0.30326,-0.29921 0.77954,-0.48264 1.3283,-0.48264 0.5848,0 1.0415,0.13876 1.44086,0.61025 v -2.75076 h 1.1001 v 7.65673 z m -1.15693,-4.53939 v 0 c -0.99757,0 -1.14794,0.83958 -1.14794,1.80776 0,0.96774 0.15037,1.81834 1.14794,1.81834 0.99232,0 1.13483,-0.8506 1.13483,-1.81834 0,-0.96818 -0.14278,-1.80776 -1.13483,-1.80776"
       style="fill:#3052a1;fill-opacity:1;fill-rule:evenodd;stroke:none;stroke-width:0.89227873"
       id="path4106"
       inkscape:connector-curvature="0" />
  </g>
</svg>
