<?xml version="1.0" encoding="UTF-8" standalone="no"?>
<!-- Created with Inkscape (http://www.inkscape.org/) -->
<svg
   xmlns:dc="http://purl.org/dc/elements/1.1/"
   xmlns:cc="http://creativecommons.org/ns#"
   xmlns:rdf="http://www.w3.org/1999/02/22-rdf-syntax-ns#"
   xmlns:svg="http://www.w3.org/2000/svg"
   xmlns="http://www.w3.org/2000/svg"
   xmlns:sodipodi="http://sodipodi.sourceforge.net/DTD/sodipodi-0.dtd"
   xmlns:inkscape="http://www.inkscape.org/namespaces/inkscape"
   width="205.97"
   height="98.57"
   id="svg5691"
   sodipodi:version="0.32"
   inkscape:version="0.46"
   version="1.0"
   sodipodi:docname="tws Logo.svg"
   inkscape:output_extension="org.inkscape.output.svg.inkscape">
  <defs
     id="defs5693">
    <inkscape:perspective
       sodipodi:type="inkscape:persp3d"
       inkscape:vp_x="0 : 526.18109 : 1"
       inkscape:vp_y="0 : 1000 : 0"
       inkscape:vp_z="744.09448 : 526.18109 : 1"
       inkscape:persp3d-origin="372.04724 : 350.78739 : 1"
       id="perspective5699" />
  </defs>
  <sodipodi:namedview
     id="base"
     pagecolor="#ffffff"
     bordercolor="#666666"
     borderopacity="1.0"
     inkscape:pageopacity="0.0"
     inkscape:pageshadow="2"
     inkscape:zoom="1.4"
     inkscape:cx="423.36764"
     inkscape:cy="73.612342"
     inkscape:document-units="px"
     inkscape:current-layer="layer1"
     showgrid="false"
     inkscape:window-width="1280"
     inkscape:window-height="744"
     inkscape:window-x="-4"
     inkscape:window-y="-4" />
  <metadata
     id="metadata5696">
    <rdf:RDF>
      <cc:Work
         rdf:about="">
        <dc:format>image/svg+xml</dc:format>
        <dc:type
           rdf:resource="http://purl.org/dc/dcmitype/StillImage" />
      </cc:Work>
    </rdf:RDF>
  </metadata>
  <g
     inkscape:label="Ebene 1"
     inkscape:groupmode="layer"
     id="layer1"
     transform="translate(-393.30171,-433.64805)">
    <path
       id="path4046"
       style="fill:#fab20a;fill-opacity:1;fill-rule:evenodd;stroke:none"
       d="M 395.56196,506.40255 L 402.20821,506.40255 L 402.20821,523.27517 L 419.08446,523.27517 L 419.08446,530.21892 L 395.56196,530.21892" />
    <path
       id="path4048"
       style="fill:#fab20a;fill-opacity:1;fill-rule:evenodd;stroke:none"
       d="M 419.12284,435.64867 L 419.12284,442.29367 L 402.24659,442.29367 L 402.24659,459.16742 L 395.30171,459.16742 L 395.30171,435.64867" />
    <path
       style="fill:#231f20;fill-opacity:1;fill-rule:evenodd;stroke:none"
       d="M 434.41721,474.60917 L 434.41721,466.03167 L 441.63334,466.03167 L 441.63334,458.06667 L 453.68221,454.32292 L 453.68221,466.03167 L 462.25971,466.03167 L 462.25971,474.60917 L 453.68221,474.60917 L 453.68221,487.67917 C 453.68221,491.96792 454.70346,494.14667 458.58346,494.14667 L 459.12109,502.06042 C 456.80721,502.33292 458.10721,502.31542 455.04459,502.31542 C 444.08471,502.31542 441.42971,497.48167 441.42971,489.04042 L 441.42971,474.60917 L 434.41721,474.60917 z"
       id="path5711" />
    <path
       style="fill:#231f20;fill-opacity:1;fill-rule:evenodd;stroke:none"
       d="M 467.24346,466.03167 L 479.07459,466.03167 L 484.76471,491.28805 L 484.91459,491.28805 L 490.45609,466.03167 L 503.93471,466.03167 L 509.25221,491.28805 L 509.40109,491.28805 L 514.86846,466.03167 L 526.09959,466.03167 L 515.69221,501.49917 L 503.11096,501.49917 L 496.74596,475.56292 L 496.59721,475.56292 L 490.60596,501.49917 L 477.72596,501.49917 L 467.24346,466.03167 z"
       id="path5709" />
    <path
       style="fill:#231f20;fill-opacity:1;fill-rule:evenodd;stroke:none"
       d="M 528.92096,500.61417 L 529.60209,491.69555 C 532.46109,492.92167 536.68096,494.14667 541.10584,494.14667 C 543.62471,494.14667 546.07596,493.73792 546.07596,491.28805 C 546.07596,485.29667 528.64846,489.51792 528.64846,476.71917 C 528.64846,468.55042 536.68096,465.21542 543.76096,465.21542 C 547.98221,465.21542 552.27096,465.69167 556.21846,467.25667 L 555.26596,475.76667 C 552.67846,474.20042 548.79846,473.3843 545.73596,473.3843 C 543.08096,473.3843 540.08484,473.86042 540.08484,475.83417 C 540.08484,481.34917 558.32971,476.99167 558.32971,490.47042 C 558.32971,499.93292 549.81971,502.31542 541.78721,502.31542 C 536.27346,502.31542 532.52846,501.77042 528.92096,500.61417"
       id="path4050" />
    <path
       id="path4052"
       style="fill:#d0113f;fill-opacity:1;fill-rule:evenodd;stroke:none"
       d="M 469.99096,507.02917 L 462.32096,507.02917 C 460.97471,507.02917 460.43721,507.02917 459.42734,506.15417 L 458.04846,504.94292 C 456.76971,503.79917 456.39984,503.0593 456.39984,501.31042 L 456.39984,495.08667 C 456.39984,493.37042 456.63596,492.36167 457.98084,491.21792 L 459.12471,490.24167 C 460.63846,488.93042 461.37846,488.89667 462.69096,488.89667 L 465.65109,488.89667 C 467.23209,488.89667 467.97221,489.06417 469.21721,490.0743 L 470.52846,491.11667 C 472.00971,492.2943 472.21096,493.53917 472.21096,495.3218 L 472.21096,497.91167 C 472.21096,499.76292 471.90846,500.30042 469.99096,500.30042 L 459.62971,500.30042 L 459.62971,501.37667 C 459.62971,501.68042 459.86471,502.08417 460.10096,502.31917 L 460.90721,503.19417 C 461.34471,503.6643 461.98471,503.79917 463.06096,503.79917 L 469.99096,503.79917 C 471.06709,503.79917 472.21096,504.03417 472.21096,505.41417 C 472.21096,506.82667 470.93221,507.02917 469.99096,507.02917 z M 459.62971,494.7843 L 459.62971,497.07167 L 468.98221,497.07167 L 468.98221,495.12042 C 468.98221,494.5143 469.01471,494.01042 468.57846,493.60667 L 467.33346,492.52917 C 466.92971,492.15917 466.29096,492.12542 465.78596,492.12542 L 463.06096,492.12542 C 462.45471,492.12542 461.95096,492.12542 461.41209,492.49542 L 460.30221,493.30292 C 459.89846,493.60667 459.62971,493.84167 459.62971,494.7843" />
    <path
       id="path4054"
       style="fill:#fab20a;fill-opacity:1;fill-rule:evenodd;stroke:none"
       d="M 597.00971,459.46555 L 590.36221,459.46555 L 590.36221,442.59192 L 573.48721,442.59192 L 573.48721,435.64805 L 597.00971,435.64805" />
    <path
       id="path4056"
       style="fill:#fab20a;fill-opacity:1;fill-rule:evenodd;stroke:none"
       d="M 573.44959,530.21917 L 573.44959,523.57305 L 590.32459,523.57305 L 590.32459,506.70042 L 597.26971,506.70042 L 597.26971,530.21917" />
  </g>
</svg>
