<?xml version="1.0" encoding="utf-8"?>
<!-- Generator: Adobe Illustrator 26.0.1, SVG Export Plug-In . SVG Version: 6.00 Build 0)  -->
<svg version="1.1" id="Telia_Company" xmlns="http://www.w3.org/2000/svg" xmlns:xlink="http://www.w3.org/1999/xlink" x="0px"
	 y="0px" viewBox="0 0 1248.93 215.72" style="enable-background:new 0 0 1248.93 215.72;" xml:space="preserve">
<style type="text/css">
	.st0{fill:#990AE3;}
</style>
<g id="Symbol">
	<path class="st0" d="M141.19,151.57c27.97-16.22,53.16-43.73,61.11-63.35c2.26-16.23,2.71-18.29,2.99-36.15
		c0.04-2.47-0.12-4.85-0.34-7.12c-1.63,26.23-35.53,59.21-80.39,80.76c-54.1,25.99-94.7,32.99-112.81,13.16
		c6.29,12.42,10.42,18.46,17.49,27.68C50.14,185.07,94.11,178.88,141.19,151.57z"/>
	<path class="st0" d="M118.25,107.13c51.04-24.62,86.58-59.64,80.38-82.86C188.45,6.69,167.86,0,145.78,0
		C80.33,0-0.01,43.14-0.01,98.18c0,7.07,1.56,14.99,4.36,23.27C19.29,141.27,64.93,132.85,118.25,107.13z"/>
	<path class="st0" d="M113.95,185.15L113.95,185.15c-35.89,14.56-56.44,9.92-67.79,0.84L46,185.86
		c17.58,17.53,37.6,29.86,55.17,29.86c30.76,0,72.88-37.32,92.8-95.18C182.73,141.43,158.63,167.09,113.95,185.15z"/>
</g>
<g id="Wordmark">
	<path class="st0" d="M327.29,76.16h-33.28v93.76h-21.12V76.16h-33.6V57.92h88V76.16z"/>
	<path class="st0" d="M390.65,135.52h-59.04c2.08,11.84,10.56,19.68,21.44,19.68c8.16,0,14.72-3.68,18.72-9.76l15.68,9.44
		c-8,10.72-21.12,17.12-34.4,17.12c-21.92,0-40.96-17.44-40.96-42.4s18.88-42.24,40-42.24C379.77,87.36,393.37,109.44,390.65,135.52
		z M332.25,120.64h39.36c-2.4-10.4-9.12-16.96-19.52-16.96C342.33,103.68,334.97,110.4,332.25,120.64z"/>
	<path class="st0" d="M432.57,170.24c-3.04,0.64-6.24,0.8-9.12,0.8c-14.08,0-20.32-6.72-20.32-20.32v-92.8h19.68V148
		c0,6.88,4.16,7.84,9.76,7.2V170.24z"/>
	<path class="st0" d="M442.81,67.2c0-6.24,5.44-11.36,11.68-11.36c6.08,0,11.52,5.12,11.52,11.36s-5.44,11.36-11.52,11.36
		C448.25,78.56,442.81,73.44,442.81,67.2z M444.57,169.92v-80h19.68v80H444.57z"/>
	<path class="st0" d="M546.96,113.28v56.64h-18.4v-9.28c-6.24,8.16-16.16,11.2-24.48,11.2c-17.28,0-27.52-10.88-27.52-24.48
		c0-15.52,17.44-28.16,38.72-28.16c4.16,0,8.64,0.32,12.64,1.6v-5.28c0-8-4.64-12.16-14.08-12.16c-8.48,0-16,4.32-20.64,9.92
		l-13.92-10.24c7.84-9.12,21.28-15.52,34.88-15.52C535.44,87.52,546.96,96.8,546.96,113.28z M527.92,139.04v-3.52
		c-3.2-1.12-6.56-1.44-10.72-1.44c-14.4,0-21.76,5.76-21.76,12.8c0,5.76,4.96,9.44,12.48,9.44
		C517.84,156.32,527.92,150.4,527.92,139.04z"/>
</g>
<g id="Company">
	<path class="st0" d="M581.35,113.95c0-34.08,26.24-58.57,57.45-58.57c16.48,0,31.04,6.72,40.64,16.64L665.2,85.46
		c-6.4-7.04-15.68-11.84-26.4-11.84c-20.48,0-35.84,16.64-35.84,40.32s15.36,40.33,35.84,40.33c11.52,0,21.44-5.6,27.68-13.44
		l14.56,13.28c-9.6,11.04-24.8,18.4-42.25,18.4C607.6,172.52,581.35,148.03,581.35,113.95z"/>
	<path class="st0" d="M684.4,129.63c0-24.8,18.72-42.24,41.45-42.24c22.88,0,41.6,17.44,41.6,42.24c0,24.96-18.72,42.41-41.6,42.41
		C703.12,172.04,684.4,154.59,684.4,129.63z M747.45,129.63c0-14.88-9.12-25.44-21.6-25.44c-12.32,0-21.44,10.56-21.44,25.44
		c0,15.04,9.12,25.6,21.44,25.6C738.33,155.23,747.45,144.67,747.45,129.63z"/>
	<path class="st0" d="M895.62,113.15v56.81h-19.68v-50.09c0-8.16-2.72-14.24-11.84-14.24c-8.16,0-16.8,6.72-16.8,21.12v43.21h-19.84
		v-50.09c0-8.16-2.56-14.24-11.68-14.24c-8.16,0-16.96,6.72-16.96,21.12v43.21h-19.68V89.95h19.04v11.2
		c5.28-8.96,14.4-13.44,23.52-13.44c11.04,0,19.52,5.76,23.36,14.4c6.08-9.6,15.2-14.4,25.12-14.4
		C885.22,87.71,895.62,98.43,895.62,113.15z"/>
	<path class="st0" d="M993.39,130.27c0,24.64-16.48,42.25-38.08,42.25c-9.28,0-17.28-3.84-23.36-10.4v38.24h-19.68V89.95h18.88v9.28
		c6.08-7.04,14.56-11.36,24.16-11.36C976.91,87.87,993.39,105.47,993.39,130.27z M973.55,130.27c0-15.04-8.96-25.6-21.12-25.6
		c-12,0-20.8,10.56-20.8,25.6c0,14.88,8.8,25.44,20.8,25.44C964.58,155.71,973.55,145.15,973.55,130.27z"/>
	<path class="st0" d="M1070.35,113.31v56.65h-18.4v-9.28c-6.24,8.16-16.16,11.2-24.48,11.2c-17.28,0-27.52-10.88-27.52-24.48
		c0-15.52,17.44-28.16,38.72-28.16c4.16,0,8.64,0.32,12.64,1.6v-5.28c0-8-4.64-12.16-14.08-12.16c-8.48,0-16,4.32-20.64,9.92
		l-13.92-10.24c7.84-9.12,21.28-15.52,34.88-15.52C1058.83,87.55,1070.35,96.83,1070.35,113.31z M1051.31,139.07v-3.52
		c-3.2-1.12-6.56-1.44-10.72-1.44c-14.4,0-21.76,5.76-21.76,12.8c0,5.76,4.96,9.44,12.48,9.44
		C1041.23,156.35,1051.31,150.43,1051.31,139.07z"/>
	<path class="st0" d="M1159.16,113.63v56.33h-19.84v-49.61c0-8.48-2.88-14.72-13.28-14.72c-9.44,0-19.52,6.88-19.52,21.44v42.88
		h-19.68V89.94h19.04v11.84c5.6-9.44,15.84-14.08,26.24-14.08C1148.11,87.71,1159.16,98.59,1159.16,113.63z"/>
	<path class="st0" d="M1228.6,89.95h20.32l-30.4,77.93c-8.8,22.56-21.12,32.48-29.92,35.52l-9.44-14.08
		c6.56-3.68,12.96-8,19.2-20.96l-32.32-78.41h21.28l21.12,54.73L1228.6,89.95z"/>
</g>
</svg>
