<?xml version="1.0" encoding="UTF-8" standalone="no"?>
<!-- Created with Inkscape (http://www.inkscape.org/) -->

<svg
   xmlns:dc="http://purl.org/dc/elements/1.1/"
   xmlns:cc="http://creativecommons.org/ns#"
   xmlns:rdf="http://www.w3.org/1999/02/22-rdf-syntax-ns#"
   xmlns:svg="http://www.w3.org/2000/svg"
   xmlns="http://www.w3.org/2000/svg"
   xmlns:sodipodi="http://sodipodi.sourceforge.net/DTD/sodipodi-0.dtd"
   xmlns:inkscape="http://www.inkscape.org/namespaces/inkscape"
   id="svg2816"
   version="1.1"
   inkscape:version="0.47 r22583"
   width="200"
   height="55"
   xml:space="preserve"
   sodipodi:docname="20786A0Dd01.pdf"><metadata
     id="metadata2822"><rdf:RDF><cc:Work
         rdf:about=""><dc:format>image/svg+xml</dc:format><dc:type
           rdf:resource="http://purl.org/dc/dcmitype/StillImage" /><dc:title></dc:title></cc:Work></rdf:RDF></metadata><defs
     id="defs2820"><inkscape:perspective
       sodipodi:type="inkscape:persp3d"
       inkscape:vp_x="0 : 0.5 : 1"
       inkscape:vp_y="0 : 1000 : 0"
       inkscape:vp_z="1 : 0.5 : 1"
       inkscape:persp3d-origin="0.5 : 0.33333333 : 1"
       id="perspective2824" /><clipPath
       clipPathUnits="userSpaceOnUse"
       id="clipPath2832"><path
         d="m 0,0 595.275,0 0,841.89 L 0,841.89 0,0 z"
         id="path2834" /></clipPath><clipPath
       clipPathUnits="userSpaceOnUse"
       id="clipPath2844"><path
         d="m 0,0 595.276,0 0,841.89 L 0,841.89 0,0 z"
         id="path2846" /></clipPath><clipPath
       clipPathUnits="userSpaceOnUse"
       id="clipPath2902"><path
         d="m 0,0 595.276,0 0,841.89 L 0,841.89 0,0 z"
         id="path2904" /></clipPath></defs><sodipodi:namedview
     pagecolor="#ffffff"
     bordercolor="#666666"
     borderopacity="1"
     objecttolerance="10"
     gridtolerance="10"
     guidetolerance="10"
     inkscape:pageopacity="0"
     inkscape:pageshadow="2"
     inkscape:window-width="1920"
     inkscape:window-height="1000"
     id="namedview2818"
     showgrid="false"
     inkscape:zoom="7.1762341"
     inkscape:cx="121.25874"
     inkscape:cy="20.3464"
     inkscape:window-x="-8"
     inkscape:window-y="-8"
     inkscape:window-maximized="1"
     inkscape:current-layer="g2826" /><g
     id="g2826"
     inkscape:groupmode="layer"
     inkscape:label="20786A0Dd01"
     transform="matrix(1.25,0,0,-1.25,-217.29413,727.10807)"><g
       id="g2840"><g
         id="g2842"
         clip-path="url(#clipPath2844)" /></g><g
       id="g2898"
       transform="matrix(0.931333,0,0,0.931333,-31.304336,115.77743)"><g
         id="g2900"
         clip-path="url(#clipPath2902)"><g
           id="g2906"
           transform="translate(268.1067,492.1057)"><path
             d="m 0,0 0.327,0.516 c -5.251,0.626 -9.872,-1.431 -17.671,-12.695 -6.857,-9.904 -8.093,-18.183 -14.588,-21.528 -16.753,-8.629 -17.577,15.563 -4.626,20.678 5.605,2.213 9.035,-3.59 5.17,-9.032 l 1.269,0 c 3.358,3.917 4.229,12.36 -3.296,12.361 -13.5,0.004 -18.981,-26.186 -6.902,-28.319 9.919,-1.752 17.528,6.706 22.153,14.978 C -14.419,-16.343 -5.304,0.489 0,0 m 120.29,-10.253 c 1.656,2.715 3.474,6.268 1.523,5.877 -2.013,-0.405 -2.719,-5.223 -2.719,-5.223 -10.504,-15.829 -19.988,-21.794 -16.578,-15.238 2.406,4.327 8.451,11.396 6.335,14.23 -2.358,3.152 -9.187,-2.18 -9.187,-2.18 l 0.028,0.026 c -0.069,6.941 -6.396,0.961 -9.598,-1.786 0.553,2.243 0.161,4.244 -2.273,5.186 -6.095,2.358 -15.747,-7.907 -16.846,-14.877 -3.307,-1.931 -7.824,-4.401 -6.565,-2.006 l 8.924,15.268 4.094,0 0.744,1.233 -4.118,0 4.011,6.863 -4.421,0 -4.025,-6.863 -2.384,0 -0.789,-1.233 2.45,0 -8.036,-13.696 c -2.49,-1.667 -7.152,-4.52 -5.541,-1.156 1.97,4.11 9.129,12.159 6.843,15.221 -2.357,3.152 -9.188,-2.18 -9.188,-2.18 L 53,-12.761 c -0.068,8.01 -8.037,-1.32 -8.96,-1.169 -1.551,0.398 2.035,6.322 -3.347,4.074 -1.841,-0.77 -3.13,-2.596 -3.13,-2.596 -0.627,6.413 -6.001,0.824 -9.821,-2.244 0.61,2.303 0.257,4.372 -2.231,5.335 -6.191,2.396 -16.048,-8.228 -16.891,-15.198 -2.448,-1.69 -7.332,-5.157 -5.569,-1.268 1.883,4.149 9.147,12.172 6.841,15.22 C 7.752,-7.78 2.039,-11.753 0.353,-13.033 1.62,-10.75 8.521,2.291 17.596,5.1 L 17.86,5.752 C 10.515,3.165 0.664,4.698 -8.116,6.436 -17.262,8.245 -23.133,2.78 -25.923,-1.46 l 0.98,-0.004 c 11.761,10.23 16.711,0.996 34.253,3.904 0,0 -5.475,-1.96 -15.174,-18.659 -0.148,-0.232 -7.398,-13.173 -7.398,-13.173 l 4.654,0.005 c 0,0 2.558,4.847 4.279,7.922 2.239,4.003 5.174,8.085 8.225,8.398 5.523,0.566 -4.186,-7.799 -5.386,-13.252 -1.111,-5.059 4.24,-4.416 10.104,0.028 0.214,-1.61 1.11,-2.877 2.911,-3.508 2.399,-0.838 6.615,1.252 10.751,5.972 1.008,1.149 3.255,3.969 4.614,6.858 1.666,0.896 3.709,2.492 4.596,3.328 0.474,0.448 2.291,1.632 1.044,-0.591 l -8.842,-15.115 4.463,0 c 0,0 6.961,11.81 7.568,12.905 1.686,3.037 4.538,4.946 4.075,2.495 -0.888,-4.706 2.471,-3.38 5.273,-1.273 3.11,2.337 4.87,4.317 2.747,0.724 l -8.691,-14.865 4.416,0 6.686,11.431 c 1.836,2.559 3.865,4.602 5.941,4.863 5.433,0.681 -3.948,-7.667 -5.405,-13.206 -0.85,-6.188 6.538,-2.561 9.16,-0.585 -0.73,-3.304 2.923,-2.835 2.923,-2.835 2.048,0.029 6.158,2.573 8.04,3.813 0.112,-1.807 0.998,-3.238 2.951,-3.919 2.399,-0.838 6.615,1.252 10.751,5.972 1.01,1.152 3.26,3.978 4.621,6.872 3.538,1.9 8.248,7.34 5.297,2.459 l -8.691,-14.865 4.415,0 6.688,11.431 c 1.836,2.559 3.864,4.602 5.94,4.863 5.432,0.681 -3.948,-7.667 -5.407,-13.206 -0.441,-3.225 1.341,-3.639 3.554,-3.542 4.951,0.454 14.772,12.045 18.091,18.147 0,0 1.652,-16.575 -5.127,-17.691 -2.074,-0.343 -2.707,1.836 -2.707,1.836 0,0 2.356,-1.087 2.93,1.091 0.655,2.494 -3.449,3.928 -4.089,0.221 -1.191,-6.907 13.074,-7.573 12.973,4.041 -0.049,5.674 -4.072,9.803 -2.784,11.917 M 21.12,-21.362 c -4.334,-5.621 -7.778,-7.156 -8.934,-6.022 -2.269,2.223 9.299,17.42 12.564,15.791 0.826,-0.412 0.786,-1.78 0.038,-3.67 -0.075,0.297 -0.254,0.586 -0.652,0.7 -0.403,0.115 -1.632,-0.307 -1.688,-1.34 -0.057,-1.076 0.619,-1.393 1.358,-1.413 -0.689,-1.25 -1.589,-2.624 -2.686,-4.046 m 62.31,0 c -4.334,-5.621 -7.778,-7.156 -8.935,-6.022 -2.268,2.223 9.302,17.42 12.567,15.791 0.824,-0.412 0.784,-1.78 0.036,-3.67 -0.075,0.297 -0.252,0.586 -0.652,0.7 -0.403,0.115 -1.632,-0.307 -1.688,-1.34 -0.057,-1.076 0.619,-1.393 1.36,-1.413 -0.691,-1.25 -1.591,-2.624 -2.688,-4.046 m 36.86,11.109 c 1.656,2.715 3.474,6.268 1.523,5.877 -2.013,-0.405 -2.719,-5.223 -2.719,-5.223 -10.504,-15.829 -19.988,-21.794 -16.578,-15.238 2.406,4.327 8.451,11.396 6.335,14.23 -2.358,3.152 -9.187,-2.18 -9.187,-2.18 l 0.028,0.026 c -0.069,6.941 -6.396,0.961 -9.598,-1.786 0.553,2.243 0.161,4.244 -2.273,5.186 -6.095,2.358 -15.747,-7.907 -16.846,-14.877 -3.307,-1.931 -7.824,-4.401 -6.565,-2.006 l 8.924,15.268 4.094,0 0.744,1.233 -4.118,0 4.011,6.863 -4.421,0 -4.025,-6.863 -2.384,0 -0.789,-1.233 2.45,0 -8.036,-13.696 c -2.49,-1.667 -7.152,-4.52 -5.541,-1.156 1.97,4.11 9.129,12.159 6.843,15.221 -2.357,3.152 -9.188,-2.18 -9.188,-2.18 L 53,-12.761 c -0.068,8.01 -8.037,-1.32 -8.96,-1.169 -1.551,0.398 2.035,6.322 -3.347,4.074 -1.841,-0.77 -3.13,-2.596 -3.13,-2.596 -0.627,6.413 -6.001,0.824 -9.821,-2.244 0.61,2.303 0.257,4.372 -2.231,5.335 -6.191,2.396 -16.048,-8.228 -16.891,-15.198 -2.448,-1.69 -7.332,-5.157 -5.569,-1.268 1.883,4.149 9.147,12.172 6.841,15.22 C 7.752,-7.78 2.039,-11.753 0.353,-13.033 1.62,-10.75 8.521,2.291 17.596,5.1 L 17.86,5.752 C 10.515,3.165 0.664,4.698 -8.116,6.436 -17.262,8.245 -23.133,2.78 -25.923,-1.46 l 0.98,-0.004 c 11.761,10.23 16.711,0.996 34.253,3.904 0,0 -5.475,-1.96 -15.174,-18.659 -0.148,-0.232 -7.398,-13.173 -7.398,-13.173 l 4.654,0.005 c 0,0 2.558,4.847 4.279,7.922 2.239,4.003 5.174,8.085 8.225,8.398 5.523,0.566 -4.186,-7.799 -5.386,-13.252 -1.111,-5.059 4.24,-4.416 10.104,0.028 0.214,-1.61 1.11,-2.877 2.911,-3.508 2.399,-0.838 6.615,1.252 10.751,5.972 1.008,1.149 3.255,3.969 4.614,6.858 1.666,0.896 3.709,2.492 4.596,3.328 0.474,0.448 2.291,1.632 1.044,-0.591 l -8.842,-15.115 4.463,0 c 0,0 6.961,11.81 7.568,12.905 1.686,3.037 4.538,4.946 4.075,2.495 -0.888,-4.706 2.471,-3.38 5.273,-1.273 3.11,2.337 4.87,4.317 2.747,0.724 l -8.691,-14.865 4.416,0 6.686,11.431 c 1.836,2.559 3.865,4.602 5.941,4.863 5.433,0.681 -3.948,-7.667 -5.405,-13.206 -0.85,-6.188 6.538,-2.561 9.16,-0.585 -0.73,-3.304 2.923,-2.835 2.923,-2.835 2.048,0.029 6.158,2.573 8.04,3.813 0.112,-1.807 0.998,-3.238 2.951,-3.919 2.399,-0.838 6.615,1.252 10.751,5.972 1.01,1.152 3.26,3.978 4.621,6.872 3.538,1.9 8.248,7.34 5.297,2.459 l -8.691,-14.865 4.415,0 6.688,11.431 c 1.836,2.559 3.864,4.602 5.94,4.863 5.432,0.681 -3.948,-7.667 -5.407,-13.206 -0.441,-3.225 1.341,-3.639 3.554,-3.542 4.951,0.454 14.772,12.045 18.091,18.147 0,0 1.652,-16.575 -5.127,-17.691 -2.074,-0.343 -2.707,1.836 -2.707,1.836 0,0 2.356,-1.087 2.93,1.091 0.655,2.494 -3.449,3.928 -4.089,0.221 -1.191,-6.907 13.074,-7.573 12.973,4.041 -0.049,5.674 -4.072,9.803 -2.784,11.917 M 21.12,-21.362 c -4.334,-5.621 -7.778,-7.156 -8.934,-6.022 -2.269,2.223 9.299,17.42 12.564,15.791 0.826,-0.412 0.786,-1.78 0.038,-3.67 -0.075,0.297 -0.254,0.586 -0.652,0.7 -0.403,0.115 -1.632,-0.307 -1.688,-1.34 -0.057,-1.076 0.619,-1.393 1.358,-1.413 -0.689,-1.25 -1.589,-2.624 -2.686,-4.046 m 62.31,0 c -4.334,-5.621 -7.778,-7.156 -8.935,-6.022 -2.268,2.223 9.302,17.42 12.567,15.791 0.824,-0.412 0.784,-1.78 0.036,-3.67 -0.075,0.297 -0.252,0.586 -0.652,0.7 -0.403,0.115 -1.632,-0.307 -1.688,-1.34 -0.057,-1.076 0.619,-1.393 1.36,-1.413 -0.691,-1.25 -1.591,-2.624 -2.688,-4.046"
             style="fill:#331015;fill-opacity:1;fill-rule:nonzero;stroke:none"
             id="path2908" /></g></g></g></g></svg>