<?xml version="1.0" standalone="no"?>
<!DOCTYPE svg PUBLIC "-//W3C//DTD SVG 20010904//EN"
 "http://www.w3.org/TR/2001/REC-SVG-20010904/DTD/svg10.dtd">
<svg version="1.0" xmlns="http://www.w3.org/2000/svg"
 width="1181.000000pt" height="1181.000000pt" viewBox="0 0 1181.000000 1181.000000"
 preserveAspectRatio="xMidYMid meet">
<metadata>
Created by potrace 1.16, written by Peter Selinger 2001-2019
</metadata>
<g transform="translate(0.000000,1181.000000) scale(0.100000,-0.100000)"
fill="#E2001A" stroke="none">
<path d="M0 5905 l0 -5905 5905 0 5905 0 0 5905 0 5905 -5905 0 -5905 0 0
-5905z m8740 4958 c-1 -13 -56 -82 -83 -103 -36 -29 -107 -60 -138 -60 -29 0
-81 -32 -144 -88 -57 -50 -63 -64 -25 -50 32 11 154 7 166 -5 11 -10 -44 -65
-95 -95 -34 -20 -61 -26 -122 -30 l-78 -5 -26 -64 c-23 -58 -55 -185 -55 -216
0 -7 11 2 24 19 14 16 43 43 66 59 34 24 43 26 50 14 5 -7 7 -23 5 -34 -2 -11
-7 -38 -10 -60 -9 -53 -46 -116 -91 -154 l-37 -30 12 -47 c28 -111 85 -216
166 -309 32 -36 35 -37 25 -12 -5 16 -10 45 -10 66 0 45 27 141 40 141 15 0
59 -71 76 -124 16 -47 15 -126 -1 -167 -5 -12 11 -24 67 -52 108 -53 123 -55
142 -19 17 34 66 178 66 196 0 6 -11 -2 -24 -19 -13 -16 -27 -28 -29 -25 -3 3
3 37 14 75 10 38 22 97 25 131 l7 63 -54 3 -54 3 49 24 c39 19 61 22 119 19
61 -2 72 0 75 14 6 30 -32 56 -95 64 -82 10 -133 30 -171 67 l-33 32 -22 -26
c-12 -14 -27 -35 -34 -45 -10 -17 -13 -14 -33 30 -12 27 -25 66 -27 87 -7 47
5 54 117 68 47 6 105 15 130 20 61 14 126 13 210 -1 55 -10 83 -9 131 1 34 7
64 10 66 7 8 -8 -18 -37 -52 -58 l-30 -18 48 0 c34 0 48 -4 45 -12 -3 -11 -47
-38 -80 -50 -3 -2 7 -41 22 -88 16 -47 35 -119 44 -160 18 -87 46 -297 46
-341 0 -26 2 -28 19 -19 17 9 19 18 14 83 -7 87 12 155 56 208 l29 34 17 -39
c17 -40 23 -134 11 -176 -6 -21 -2 -19 28 15 81 91 139 198 166 307 l12 46
-45 41 c-25 23 -55 62 -66 87 -21 44 -40 164 -27 164 20 0 67 -33 104 -74 23
-25 42 -39 42 -31 0 35 -32 159 -56 219 l-28 66 -65 0 c-74 0 -129 21 -192 71
-44 35 -49 54 -16 63 33 9 108 7 144 -3 44 -13 35 3 -38 64 -64 54 -88 67
-164 84 -27 7 -67 23 -88 37 -35 23 -97 97 -97 116 0 14 93 9 142 -8 25 -8 65
-32 89 -52 23 -20 67 -53 96 -72 29 -20 80 -62 113 -94 l60 -59 0 41 c0 42 56
167 75 165 18 -2 44 -86 44 -143 0 -36 -8 -75 -24 -114 l-24 -59 23 -46 c38
-74 67 -180 73 -267 l6 -80 24 23 c24 25 107 67 156 78 35 9 36 -9 2 -74 -29
-58 -92 -115 -148 -134 -38 -12 -42 -18 -58 -71 -17 -56 -17 -58 2 -77 10 -10
19 -24 19 -31 0 -20 -32 -48 -56 -48 -17 0 -29 -11 -43 -39 -11 -21 -43 -67
-71 -102 l-52 -64 59 -6 c59 -6 126 -29 136 -47 10 -15 -100 -63 -157 -69 -31
-3 -70 1 -101 11 -48 15 -52 15 -94 -7 l-43 -22 6 -80 c3 -44 6 -106 6 -137 0
-69 4 -72 142 -70 207 2 358 77 461 228 80 118 98 248 52 370 -29 76 -32 149
-9 182 25 36 100 68 239 101 245 60 373 109 502 191 36 23 39 2 9 -56 -37 -71
-90 -115 -198 -167 -48 -23 -87 -44 -87 -47 0 -3 14 -14 32 -25 43 -27 57 -81
35 -129 l-16 -33 36 -18 c21 -10 53 -17 72 -16 79 5 229 35 327 66 82 26 105
30 110 20 10 -28 -85 -140 -164 -194 -44 -30 -159 -77 -227 -92 -48 -10 -54
-14 -46 -30 20 -37 11 -80 -23 -114 l-33 -33 23 -26 c13 -15 23 -40 23 -55 0
-28 2 -29 88 -46 56 -11 157 -19 285 -22 108 -3 197 -9 197 -13 0 -16 -94 -89
-146 -114 -90 -44 -174 -59 -309 -53 -66 3 -131 8 -145 12 -20 5 -28 1 -41
-23 -10 -17 -32 -35 -50 -42 -33 -12 -34 -13 -32 -69 1 -64 -1 -62 138 -133
116 -59 234 -102 368 -133 70 -17 117 -33 117 -40 0 -15 -95 -59 -163 -76 -31
-7 -85 -10 -145 -6 -115 6 -206 34 -354 108 l-101 51 -32 -17 c-19 -11 -45
-16 -68 -13 -36 4 -37 3 -37 -28 0 -20 -10 -44 -26 -63 l-26 -31 48 -90 c66
-125 183 -277 303 -393 55 -54 101 -103 101 -109 0 -17 -137 -3 -201 21 -71
27 -180 103 -240 167 -25 27 -74 92 -109 144 -92 139 -119 170 -143 170 -12 1
-33 7 -47 14 -23 13 -26 12 -42 -16 -25 -40 -80 -63 -121 -48 -17 6 -41 20
-54 32 -20 19 -23 19 -29 4 -17 -45 -128 -62 -164 -26 -27 27 -25 10 5 -49 29
-58 118 -172 237 -303 49 -53 84 -99 78 -103 -5 -3 -44 10 -86 29 -42 20 -72
30 -67 23 5 -6 62 -87 127 -179 65 -92 121 -170 126 -173 5 -3 66 37 136 90
119 89 130 95 174 95 76 0 132 -62 115 -127 l-7 -28 -14 27 c-22 43 -77 66
-67 29 5 -22 -38 -41 -78 -35 -17 3 -48 -13 -109 -56 -97 -69 -101 -67 95 -46
74 8 132 9 152 4 72 -20 108 -116 63 -169 l-19 -24 -1 31 c0 19 -9 39 -25 54
-20 19 -25 20 -25 7 0 -27 -19 -29 -65 -7 -40 19 -54 21 -133 15 -137 -12
-135 -5 -41 -129 87 -116 103 -159 79 -215 -14 -34 -80 -72 -111 -64 -20 6
-20 7 5 27 15 12 29 36 33 56 6 35 6 35 -15 17 -20 -18 -21 -18 -32 3 -6 12
-10 37 -9 55 3 28 -8 50 -65 130 -38 52 -74 95 -80 95 -6 0 -50 -5 -98 -11
-76 -9 -92 -14 -117 -40 -34 -34 -61 -37 -68 -9 -5 20 -7 20 -24 4 -11 -9 -19
-25 -19 -35 0 -30 -18 -30 -28 0 -11 31 -2 92 17 115 20 24 62 34 183 46 82 9
116 16 111 24 -13 22 -246 371 -252 378 -3 4 -7 -19 -9 -50 -3 -65 -10 -92
-22 -92 -4 0 -27 35 -50 78 -43 79 -150 244 -193 297 l-25 30 -6 -45 c-29
-200 -23 -380 15 -520 41 -151 139 -316 200 -335 23 -8 25 -31 3 -39 -26 -10
-94 -7 -117 5 -12 6 -33 21 -46 33 l-24 21 13 -25 c30 -59 96 -142 138 -175
63 -49 136 -69 219 -60 76 8 81 -3 17 -47 -115 -78 -241 -62 -364 49 l-50 45
14 -40 c21 -58 54 -121 92 -173 19 -26 34 -52 34 -58 0 -29 -82 0 -132 46
l-26 25 -7 -48 c-8 -61 -51 -154 -71 -154 -19 0 -61 91 -70 153 l-6 48 -27
-24 c-48 -46 -131 -75 -131 -46 0 5 17 36 39 67 45 67 67 110 87 164 l14 40
-50 -45 c-71 -64 -142 -97 -206 -97 -61 0 -125 21 -171 56 -49 37 -43 48 22
39 81 -10 155 9 216 55 51 38 117 117 146 175 l16 30 -24 -21 c-13 -12 -34
-27 -46 -33 -23 -12 -91 -15 -117 -5 -22 8 -20 31 3 39 35 11 103 96 142 179
96 205 104 349 36 645 l-12 54 -44 -58 c-51 -67 -161 -246 -180 -293 -25 -60
-41 -39 -50 63 l-6 73 -139 -204 c-76 -113 -136 -208 -133 -210 3 -3 51 -10
108 -15 137 -13 142 -15 178 -45 25 -20 31 -34 31 -64 0 -21 -3 -46 -6 -55 -6
-14 -9 -11 -20 13 -7 17 -22 36 -34 42 -19 10 -21 9 -18 -12 4 -31 -28 -27
-59 8 -18 19 -38 26 -95 34 -138 18 -127 22 -206 -87 -56 -78 -69 -103 -65
-124 3 -15 0 -37 -7 -49 -11 -21 -12 -21 -32 -3 -21 18 -21 18 -15 -22 4 -27
15 -47 34 -62 l28 -23 -33 0 c-76 0 -129 81 -99 152 8 20 50 81 93 137 42 56
75 103 73 104 -2 2 -55 9 -118 15 -106 10 -115 9 -134 -9 -25 -23 -79 -27 -71
-4 9 21 -6 19 -33 -7 -13 -12 -23 -33 -23 -47 0 -24 -1 -24 -17 -8 -38 37 -11
122 50 157 22 12 45 12 189 -2 89 -8 164 -15 165 -14 1 0 -40 30 -90 65 -73
52 -98 64 -124 63 -46 -3 -78 15 -62 34 25 30 -33 14 -62 -17 l-29 -31 0 35
c0 68 74 121 143 103 13 -3 80 -48 150 -101 l126 -95 24 33 c20 26 127 178
219 309 l19 27 -53 -23 c-123 -54 -127 -44 -23 66 82 87 138 157 215 269 l50
73 -32 13 c-18 8 -40 23 -49 35 l-17 21 -7 -21 c-8 -29 -54 -52 -100 -52 -27
0 -44 8 -65 29 -28 28 -30 28 -46 10 -26 -28 -76 -42 -110 -29 -35 14 -74 49
-74 67 0 17 -10 16 -34 -2 -11 -8 -32 -15 -47 -15 -24 0 -40 -19 -129 -150
-56 -83 -125 -171 -153 -196 -107 -97 -216 -151 -323 -161 -109 -10 -108 -6
24 124 129 129 213 238 291 382 l51 93 -25 30 c-26 30 -41 71 -32 85 3 5 -12
7 -34 5 -25 -3 -48 2 -65 13 -26 17 -29 16 -169 -49 -192 -89 -335 -115 -472
-86 -55 12 -155 60 -157 75 0 6 46 22 104 36 187 45 309 92 448 171 69 40 72
43 66 72 -3 17 -1 43 5 58 9 24 7 27 -17 33 -32 8 -72 43 -72 63 0 11 -9 12
-42 5 -24 -4 -104 -8 -178 -8 -140 0 -191 11 -283 57 -41 21 -127 95 -127 109
0 5 69 9 153 9 130 0 276 14 378 35 19 4 28 14 32 34 3 16 18 42 32 59 24 29
25 31 6 37 -34 11 -54 53 -49 106 l5 48 -49 11 c-78 16 -193 68 -257 115 -55
41 -147 158 -136 175 3 4 55 -8 117 -27 105 -31 245 -59 328 -64 19 -1 52 6
72 16 34 17 36 20 22 39 -33 47 -5 135 49 155 18 7 7 15 -65 50 -99 48 -160
97 -200 160 -27 43 -37 81 -20 81 4 0 21 -9 37 -21 96 -65 233 -116 470 -175
272 -67 312 -112 249 -280 -23 -60 -25 -81 -22 -159 5 -123 42 -202 136 -294
111 -109 223 -151 402 -151 58 0 110 4 116 8 15 10 107 182 101 188 -3 3 -15
0 -27 -6 -34 -18 -43 -7 -20 23 14 17 17 27 9 27 -7 0 -54 20 -105 44 l-91 45
-49 -15 c-64 -20 -142 -12 -210 21 -30 15 -54 30 -54 34 0 15 81 44 141 50
l61 6 -52 64 c-28 35 -60 80 -70 101 -16 31 -26 39 -52 42 -26 2 -35 9 -43 32
-8 24 -6 31 12 45 20 17 20 20 7 71 -16 63 -15 62 -75 84 -73 27 -137 99 -164
185 -7 22 -5 23 27 16 55 -12 121 -44 154 -76 l31 -30 6 83 c6 89 35 194 72
269 l24 46 -26 54 c-32 65 -34 139 -9 217 15 45 20 51 33 41 24 -21 63 -106
70 -154 l6 -46 56 56 c31 31 81 73 111 93 30 20 61 45 67 54 17 21 76 58 122
74 39 14 141 19 141 7z m99 -421 c19 -48 35 -89 37 -91 2 -2 23 14 48 37 47
43 114 82 142 82 12 0 7 -11 -20 -45 -32 -39 -70 -109 -90 -168 -5 -15 -12
-17 -43 -10 -33 7 -152 7 -236 0 -25 -2 -30 4 -51 56 -13 32 -43 82 -65 112
-23 30 -36 55 -29 55 28 -1 99 -41 143 -81 25 -23 47 -40 49 -38 2 2 18 43 37
91 19 49 36 88 39 88 3 0 20 -39 39 -88z m-380 -522 c20 0 77 9 127 20 96 21
233 28 164 8 -19 -6 -89 -28 -154 -50 -172 -58 -226 -46 -226 46 l0 41 26 -32
c21 -27 33 -33 63 -33z m1506 -6384 c264 -56 450 -196 570 -427 43 -84 95
-239 95 -285 l0 -24 -230 2 -231 3 -24 68 c-64 184 -209 276 -418 264 -72 -4
-99 -10 -152 -36 -63 -31 -131 -96 -161 -153 -47 -91 -70 -433 -54 -798 13
-303 36 -381 136 -469 162 -142 470 -109 598 66 47 63 75 156 83 270 l6 93
-216 0 -217 0 0 195 0 195 445 0 445 0 0 -219 c0 -349 -23 -501 -99 -656 -74
-150 -190 -265 -351 -349 -229 -119 -531 -135 -774 -39 -108 42 -198 103 -292
197 -73 74 -99 108 -132 176 -83 168 -102 310 -102 755 0 424 19 582 90 732
111 239 359 413 642 453 83 12 255 5 343 -14z m-7110 -206 l0 -205 -302 -3
-303 -2 -2 -963 -3 -962 -230 0 -230 0 -3 963 -2 962 -305 0 -305 0 0 210 0
210 843 -2 842 -3 0 -205z m785 -965 l0 -1175 -230 0 -230 0 0 1175 0 1175
230 0 230 0 0 -1175z m820 798 c51 -208 131 -537 179 -731 l86 -352 211 727
210 728 172 3 c171 2 172 2 181 -20 5 -13 100 -339 211 -725 112 -387 205
-701 207 -699 3 2 84 327 182 722 l177 719 242 3 c133 1 242 -1 242 -5 -1 -5
-141 -532 -313 -1173 l-313 -1165 -194 0 -194 0 -212 700 c-117 385 -215 693
-218 685 -3 -8 -98 -321 -211 -694 -113 -373 -208 -683 -211 -687 -3 -5 -90
-9 -194 -9 l-189 0 -15 53 c-46 162 -606 2272 -606 2283 0 12 42 14 239 14
l239 0 92 -377z m3458 350 c5 -16 195 -536 422 -1158 227 -621 415 -1138 418
-1148 4 -16 -10 -17 -238 -15 l-243 3 -70 208 -69 207 -411 -2 -410 -3 -70
-207 -69 -208 -240 0 c-228 0 -239 1 -236 19 2 10 192 539 423 1175 l420 1156
182 0 181 0 10 -27z"/>
<path d="M8750 10130 c0 -11 7 -36 14 -55 27 -64 92 -37 102 41 l5 39 -14 -31
c-8 -17 -22 -34 -31 -37 -13 -5 -16 1 -16 28 0 32 -2 35 -30 35 -23 0 -30 -4
-30 -20z"/>
<path d="M7593 9410 c-30 -12 -56 -65 -48 -99 6 -30 34 -60 75 -81 l25 -13
-40 -14 c-52 -17 -75 -46 -75 -93 0 -30 6 -44 31 -64 42 -35 82 -34 121 4 16
17 31 30 33 30 1 0 17 -22 34 -49 81 -126 259 -242 446 -292 52 -14 125 -23
209 -26 115 -5 129 -4 123 10 -3 9 -9 31 -12 50 l-7 34 -96 6 c-170 11 -342
68 -478 159 -67 45 -154 129 -154 149 0 5 18 9 40 9 56 0 90 34 90 90 0 84
-77 116 -154 64 l-39 -27 6 37 c14 88 -52 147 -130 116z"/>
<path d="M10018 9389 c-28 -28 -30 -34 -25 -80 3 -27 5 -49 3 -49 -1 0 -17 11
-36 25 -70 52 -155 16 -155 -65 0 -55 37 -90 96 -90 21 0 39 -4 39 -9 0 -20
-112 -121 -181 -164 -147 -91 -344 -147 -518 -147 -100 0 -99 1 -85 -70 l7
-32 141 5 c100 3 164 11 221 26 175 48 345 157 431 277 l46 64 34 -30 c46 -40
86 -40 125 -1 53 53 31 131 -42 153 -47 14 -49 22 -9 38 41 17 60 46 60 91 0
29 -7 43 -31 63 -42 36 -82 34 -121 -5z"/>
<path d="M7593 2412 l-141 -407 276 -3 c151 -1 277 0 280 2 5 5 -257 797 -267
808 -4 5 -70 -175 -148 -400z"/>
</g>
</svg>
