<?xml version="1.0" encoding="UTF-8" standalone="no"?>
<!-- Created with Inkscape (http://www.inkscape.org/) -->

<svg
   width="338.1069mm"
   height="79.375mm"
   viewBox="0 0 338.10691 79.375"
   version="1.1"
   id="svg5"
   inkscape:version="1.1.1 (3bf5ae0d25, 2021-09-20)"
   sodipodi:docname="Trenes argentinos.svg"
   xmlns:inkscape="http://www.inkscape.org/namespaces/inkscape"
   xmlns:sodipodi="http://sodipodi.sourceforge.net/DTD/sodipodi-0.dtd"
   xmlns="http://www.w3.org/2000/svg"
   xmlns:svg="http://www.w3.org/2000/svg">
  <sodipodi:namedview
     id="namedview7"
     pagecolor="#ffffff"
     bordercolor="#111111"
     borderopacity="1"
     inkscape:pageshadow="0"
     inkscape:pageopacity="0"
     inkscape:pagecheckerboard="1"
     inkscape:document-units="mm"
     showgrid="false"
     inkscape:zoom="0.26079027"
     inkscape:cx="-101.61422"
     inkscape:cy="523.40911"
     inkscape:window-width="1920"
     inkscape:window-height="991"
     inkscape:window-x="-9"
     inkscape:window-y="-9"
     inkscape:window-maximized="1"
     inkscape:current-layer="g854" />
  <defs
     id="defs2" />
  <g
     inkscape:label="Capa 1"
     inkscape:groupmode="layer"
     id="layer1"
     transform="translate(171.63527,-18.884811)">
    <g
       id="g854"
       transform="translate(29.168155,30.436335)">
      <path
         style="fill:#00b0d5;fill-opacity:1;stroke-width:0.112598"
         d="m -200.80343,-11.551524 h 4.49792 v 79.375 h -4.49792 z"
         id="path856-5"
         sodipodi:nodetypes="ccccc" />
      <path
         style="fill:#0076b4;fill-opacity:1;stroke-width:0.191903"
         d="m -6.4641227,21.662342 c -3.49366,-0.54631 -7.1095803,-2.18437 -10.0207903,-4.53953 l -0.42561,-0.34433 1.83316,-2.20688 c 1.00824,-1.21379 1.9463,-2.32427 2.0846,-2.46773 0.21064,-0.21851 0.42387,-0.13344 1.31426,0.52432 2.8732103,2.12257 5.3424603,2.99577 8.4767403,2.99762 1.95024,10e-4 2.18398,-0.0393 3.07046003,-0.53128 1.16821997,-0.64837 1.63117997,-1.39617 1.63117997,-2.6347 0,-1.82936 -1.31274997,-2.6714496 -6.24547,-4.0062696 -3.67067,-0.9933 -4.77414,-1.37811 -6.3964703,-2.23063 -2.38225,-1.25183 -3.80724,-3.11088 -4.26514,-5.56434999 -0.29725,-1.59268 -0.11597,-4.16973001 0.38635,-5.49213001 0.98583,-2.59526 3.29157,-4.69501 6.2390103,-5.6816004 1.43706,-0.48103 1.77404,-0.51788 4.62057,-0.5053 3.42054003,0.0151 4.84633003,0.29182 7.56904,1.4689604 1.69138,0.73125 4.07703,2.2426 3.99867,2.53322 -0.0294,0.10917 -0.82712,1.32656 -1.77265,2.70534 l -1.71915,2.50686 -0.67964,-0.46952 c -1.30203,-0.89951 -4.07422997,-2.13316 -5.51259,-2.45317 -4.17757,-0.92942 -7.1406,0.81474 -6.20422,3.65202 0.44034,1.33426001 1.2648,1.71594001 7.87075003,3.6438 4.48915997,1.31009 7.09413997,2.99869 8.24436997,5.34414 1.69392,3.4541096 0.79357,8.5016096 -1.96039,10.9903296 -1.07721,0.97346 -3.1087,2.03944 -4.77806997,2.50723 -1.24757,0.34957 -5.75239003,0.50481 -7.35897003,0.25358 z M -168.52676,8.6223524 v -12.85754 h -4.89354 -4.89354 v -3.26237 -3.2623604 h 13.3373 13.33731 v 3.2623604 3.26237 h -4.89355 -4.89354 v 12.85754 12.8575496 h -3.55022 -3.55022 z m 22.45273,-3.27766 V -10.790518 l 8.68364,0.0819 c 7.26932,0.0685 8.8868,0.13374 9.93102,0.40037 3.34328,0.8537004 5.64561,2.5360504 6.97279,5.0951304 0.87036,1.67824 1.15093,2.98046 1.14099,5.29578001 -0.0177,4.13007999 -1.8149,7.19796999 -5.35465,9.14069999 l -1.42748,0.7834396 0.34167,0.51963 c 0.18792,0.2858 1.91767,2.81657 3.84391,5.62393 1.92623,2.80737 3.50224,5.15499 3.50224,5.21693 0,0.0619 -1.81031,0.11264 -4.02291,0.11264 h -4.02291 l -3.47545,-5.1814 -3.47545,-5.1814 h -2.76848 -2.76849 v 5.1814 5.1814 h -3.55022 -3.55022 z m 16.98108,-0.90592 c 2.15931,-0.99457 2.99269,-2.68876 2.56117,-5.20663999 -0.18621,-1.08653001 -0.3176,-1.33974001 -1.0973,-2.11486001 -1.31434,-1.30658 -1.75578,-1.40246 -6.88275,-1.49487 l -4.46176,-0.0804 V 0.27456241 5.0071224 l 4.46176,-0.0637 c 4.17497,-0.0596 4.52328,-0.0921 5.41888,-0.5046 z m 16.21825,0.92122 V -10.759918 h 12.18589 12.185876 v 3.1664104 3.16641 h -8.635664 -8.635662 v 3.26236 3.26237 h 7.580192 7.580195 v 3.1664 3.16642 h -7.580195 -7.580192 v 3.3583096 3.35832 h 8.731614 8.731616 v 3.1664 3.16642 h -12.28183 -12.28184 z m 30.896491,0 V -10.759918 h 3.24446 3.244464 l 7.550115,9.88108041 7.550122,9.88106999 0.04968,-9.88106999 0.04968,-9.88108041 h 3.45254 3.452539 V 5.3599924 21.479902 h -2.967129 -2.967129 l -7.698345,-10.07279 C -71.251311,5.8670924 -74.795254,1.2850924 -74.89264,1.2249024 c -0.107324,-0.0663 -0.177084,3.90184 -0.177084,10.0727696 v 10.18223 h -3.454259 -3.454262 z m 36.461695,0 V -10.759918 h 12.089931 12.08993 v 3.1664104 3.16641 h -8.63567 -8.63566 v 3.26236 3.26237 h 7.58019 7.5802 v 3.1664 3.16642 h -7.5802 -7.58019 v 3.3583096 3.35832 h 8.73161 8.73162 v 3.1664 3.16642 h -12.18588 -12.185881 z"
         id="path1288"
         sodipodi:nodetypes="sscssscssssssssssscsssssssscccccccccccccccccccssssscssssccccccccccsssscccssscccccccccccccccccccccccccccccccccccccccsssccccccccccccccccccccccccccccc" />
      <path
         style="fill:#0076b4;fill-opacity:1;stroke-width:0.189513"
         d="m -93.601162,67.092431 c -8.409678,-0.88887 -14.108868,-6.93791 -14.528928,-15.42077 -0.41031,-8.28618 5.25673,-15.46547 13.391849,-16.96545 1.755977,-0.32378 5.518917,-0.27515 7.504908,0.097 0.922433,0.17285 2.348864,0.57331 3.169847,0.88992 1.473304,0.56816 4.865328,2.66536 4.865328,3.0081 0,0.0971 -0.948894,1.32284 -2.108648,2.72386 l -2.108647,2.54732 -0.970943,-0.7326 c -3.549766,-2.67835 -8.125289,-3.22009 -11.564578,-1.36923 -3.147079,1.69361 -5.270086,5.86465 -4.960596,9.74602 0.48562,6.09043 5.105373,9.9177 11.152644,9.23953 1.549319,-0.17374 3.341388,-0.71925 4.384294,-1.33459 l 0.68059,-0.40155 v -2.3502 -2.35019 h -3.505994 -3.505994 v -3.03222 -3.03221 h 6.917231 6.917231 v 6.9182 6.91821 l -1.279216,0.94621 c -4.109312,3.03961 -9.402446,4.48818 -14.450378,3.95464 z m 183.00876,0.007 c -6.82107,-0.72035 -12.4366,-5.33903 -14.16903,-11.65384 -2.31017,-8.42059 2.01815,-17.00638 10.0501,-19.93575 3.72791,-1.35962 8.95728,-1.36578 12.4025,-0.0146 2.733062,1.07188 4.525722,2.27667 6.378672,4.28696 2.02313,2.19489 3.29421,4.69643 3.89635,7.66814 0.42072,2.07632 0.27944,5.9146 -0.29012,7.88167 -1.5409,5.32173 -5.77999,9.58164 -11.048662,11.1029 -1.33685,0.386 -5.09887,0.95296 -5.61543,0.84628 -0.0671,-0.0139 -0.78909,-0.0957 -1.60438,-0.18176 z m 4.40215,-6.5283 c 3.38696,-0.79837 6.00063,-3.44824 6.933432,-7.02948 0.37143,-1.42598 0.36462,-3.97297 -0.0146,-5.4435 -1.888202,-7.32346 -11.081792,-9.81394 -16.165722,-4.37919 -1.95224,2.08695 -2.68541,4.02475 -2.68781,7.10401 -0.005,6.64087 5.62107,11.23637 11.93461,9.74816 z m 28.728892,6.34667 c -3.45014,-0.53951 -7.02103,-2.15717 -9.89596,-4.483 l -0.42032,-0.34002 1.81032,-2.17941 c 0.99568,-1.19867 1.92206,-2.29531 2.05865,-2.43698 0.208,-0.2158 0.41859,-0.13178 1.29787,0.51779 2.83743,2.09612 5.27592,2.95844 8.37116,2.96028 1.92595,0.001 2.15678,-0.0388 3.03222,-0.52467 1.15366,-0.64029 1.61085,-1.37877 1.61085,-2.60188 0,-1.80657 -1.2964,-2.63817 -6.16767,-3.95636 -3.62495,-0.98093 -4.71467,-1.36095 -6.31679,-2.20284 -2.35258,-1.23625 -3.75981,-3.07214 -4.21201,-5.49504 -0.29355,-1.57284 -0.11452,-4.1178 0.38153,-5.42372 0.97355,-2.56294 3.25057,-4.63652 6.1613,-5.61083 1.41916,-0.47504 1.75194,-0.51143 4.56301,-0.49901 3.37794,0.0149 4.78596,0.28819 7.47476,1.45067 1.43831,0.62184 3.99079,2.17743 3.99079,2.43215 0,0.0735 -0.80026,1.29137 -1.77836,2.70632 -1.44205,2.08615 -1.8201,2.52235 -1.99915,2.30659 -0.46884,-0.56491 -4.32953,-2.34907 -5.78266,-2.67236 -4.17183,-0.92814 -7.10189,0.7792 -6.1721,3.59648 0.43485,1.31764 1.24904,1.69458 7.77271,3.59841 4.43292,1.29368 7.00533,2.9611 8.142,5.27757 1.66821,3.39973 0.77566,8.40268 -1.9363,10.85344 -1.06379,0.96132 -3.06997,2.01404 -4.71855,2.47599 -1.23203,0.34523 -5.68073,0.49852 -7.2673,0.25043 z m -300.56474,-0.88645 c 0.15825,-0.39316 3.21601,-7.57996 6.79503,-15.97066 l 6.50729,-15.25581 3.21921,-0.0517 3.21921,-0.0517 3.94435,9.24311 c 2.16939,5.08371 5.24377,12.29191 6.83194,16.01821 l 2.88758,6.77509 h -3.64113 -3.64114 l -1.44013,-3.55336 -1.44013,-3.55338 -6.79005,-0.0458 -6.79004,-0.0458 -1.42404,3.55176 -1.42404,3.55176 -3.55083,0.0516 -3.55082,0.0516 z m 19.30215,-16.01804 c -0.78333,-1.90224 -1.72771,-4.21061 -2.09862,-5.12972 -0.37092,-0.91911 -0.73699,-1.60135 -0.81351,-1.5161 -0.10331,0.11511 -3.44611,8.12357 -4.11878,9.86754 -0.0714,0.18522 0.84088,0.2369 4.18188,0.2369 h 4.27326 z m 19.07108,0.80543 v -15.91911 h 7.53812 c 7.38919,0 9.89388,0.14108 11.60271,0.65352 3.72506,1.11707 6.24536,3.65197 6.98132,7.02177 1.14434,5.23967 -0.69456,9.68806 -4.97635,12.03804 l -1.42798,0.78373 0.98079,1.45391 c 0.53943,0.79965 2.28089,3.35142 3.8699,5.67058 l 2.88911,4.21667 h -4.06191 -4.06191 l -3.41469,-5.11686 -3.41469,-5.11685 h -2.74621 -2.74622 v 5.11685 5.11686 h -3.50599 -3.506 z m 16.76956,-0.90975 c 1.88667,-0.86899 2.64054,-2.0524 2.6197,-4.11235 -0.007,-0.72962 -0.10323,-1.55164 -0.21299,-1.8267 -0.32635,-0.81784 -1.30586,-1.79945 -2.26444,-2.26927 -0.84757,-0.41542 -1.15058,-0.4441 -5.3989,-0.51108 l -4.50094,-0.071 v 4.67581 4.67581 l 4.40618,-0.063 c 4.12297,-0.0589 4.46694,-0.0909 5.35139,-0.49831 z m 51.834217,0.90975 v -15.91895 h 11.939331 11.939332 v 3.12697 3.12697 h -8.528094 -8.528094 v 3.22172 3.22173 h 7.48577 7.48577 v 3.12696 3.12698 h -7.48577 -7.48577 v 3.31647 3.31648 h 8.622849 8.622849 v 3.12697 3.12697 h -12.034086 -12.034087 z m 30.322108,-0.004 v -15.92358 l 3.260886,0.0519 3.260878,0.0519 7.399237,9.67952 7.399237,9.67952 0.04907,-9.7269 0.04906,-9.72689 h 3.409534 3.409533 v 15.91911 15.9191 h -2.90891 -2.90891 l -7.656451,-10.01977 -7.65645,-10.01977 -0.04906,10.01977 -0.04906,10.01977 h -3.504341 -3.504338 v -15.92358 z m 43.3985273,3.2262 v -12.69738 h -4.83259 -4.832583 v -3.22173 -3.22173 H 6.1775353 19.348701 v 3.22173 3.22173 H 14.516118 9.6835283 v 12.69738 12.69738 h -3.505993 -3.505993 z m 22.3625547,-3.22173 v -15.91911 h 3.505993 3.505993 v 15.91911 15.91911 H 28.54009 25.034097 Z m 14.97154,0 v -15.91911 h 3.204049 3.204042 l 7.45607,9.758 7.45608,9.75799 0.0491,-9.75799 0.0491,-9.758 h 3.40953 3.40953 v 15.91911 15.91911 h -2.93017 -2.93017 l -7.60245,-9.9473 c -4.18134,-5.47102 -7.68114,-9.99594 -7.77733,-10.05539 -0.10598,-0.0655 -0.17487,3.85324 -0.17487,9.94731 v 10.05538 h -3.41124 -3.411237 z"
         id="path1288-7"
         sodipodi:nodetypes="ssssssscssssscccccccccccssssssssssssssscscsssscssscssssssssssssssssssssscccsscccccccccccsssssscsccsssscssccccccccccccssssscccssscccccccccccccccccccccccccccccccccccccccccccccccccccccccccccccccccccccccccccccccccccccccssscccc" />
    </g>
  </g>
</svg>
