<?xml version="1.0" encoding="UTF-8" standalone="no"?>
<!-- Created with Inkscape (http://www.inkscape.org/) -->

<svg
   xmlns:dc="http://purl.org/dc/elements/1.1/"
   xmlns:cc="http://creativecommons.org/ns#"
   xmlns:rdf="http://www.w3.org/1999/02/22-rdf-syntax-ns#"
   xmlns:svg="http://www.w3.org/2000/svg"
   xmlns="http://www.w3.org/2000/svg"
   xmlns:xlink="http://www.w3.org/1999/xlink"
   version="1.1"
   width="390"
   height="480"
   id="svg4228">
  <metadata
     id="metadata38">
    <rdf:RDF>
      <cc:Work
         rdf:about="">
        <dc:format>image/svg+xml</dc:format>
        <dc:type
           rdf:resource="http://purl.org/dc/dcmitype/StillImage" />
        <dc:title></dc:title>
      </cc:Work>
    </rdf:RDF>
  </metadata>
  <defs
     id="defs4232" />
  <path
     d="m 0,0 c 130,0 260,0 390,0 0.16659,197.08961 0.65784,320.96005 -195.11163,479.99815 C -0.18452689,323.19971 0.01888531,196.87947 0,0 z"
     id="path4240"
     style="fill:#003380;fill-opacity:1;stroke:none" />
  <path
     d="m 4.1923877,4.9497477 c 127.1075223,0 254.2150523,0 381.3225623,0 C 385.67784,197.29425 386.15815,318.18242 194.74452,473.39155 4.0119668,320.36816 4.2108543,197.08919 4.1923877,4.9497477 z"
     id="path4240-7"
     style="fill:#c3a869;fill-opacity:1;stroke:none" />
  <path
     d="m 23.04163,20.506099 c 114.50125,0 229.00252,0 343.50377,0 C 366.69215,197.56214 367.12482,308.84153 194.6952,451.71388 22.879102,310.85353 23.058264,197.37336 23.04163,20.506099 z"
     id="path4240-7-1"
     style="fill:#003380;fill-opacity:1;stroke:none" />
  <path
     d="m 176.72893,87.340015 c -2.21689,-0.0456 -11.24626,11.03925 -15.00956,18.278725 l -4.47951,-2.7634 c 7.53325,-12.065127 14.62754,-20.982205 20.30549,-24.998625 -2.66446,-2.539 -16.60391,11.93503 -23.09412,23.343195 l -3.42642,-2.147078 c 8.39175,-14.53206 21.33761,-24.592357 26.20863,-28.760597 -1.97296,-3.02137 -21.33156,13.57365 -28.94062,27.15254 l -3.3752,-2.065913 c 8.52658,-15.15523 23.0751,-26.277287 33.52667,-33.663467 -2.35315,-3.24949 -27.77441,16.73859 -36.17744,32.07499 l -3.40713,-2.03284 c 15.34188,-27.39703 49.85516,-43.00344 57.62587,-46.39603 10.12601,4.26295 42.36713,20.425 57.2142,47.98301 l -3.63624,1.83138 c -6.63954,-14.42078 -33.73924,-36.60542 -36.23386,-33.81439 5.13631,4.15182 25.59735,18.62046 33.33688,35.23386 l -4.3144,2.16261 c -4.85728,-11.28683 -26.11722,-31.33075 -28.23265,-28.70897 9.53923,8.28089 19.91259,18.76307 25.34195,30.142595 l -3.81044,1.88032 c -4.44593,-9.058835 -20.42939,-24.718065 -22.05692,-22.978955 7.84426,8.0764 15.31773,14.9346 19.12843,24.425815 l -4.16311,2.04018 c -3.1184,-7.862245 -10.55926,-15.474925 -13.72562,-18.312145 l -5.98901,7.91208 12.34291,28.785825 -8.78998,0.0334 c -1.79584,-8.7841 -4.01469,-20.01069 -6.95953,-25.797285 l 4.62852,25.752495 -7.92939,-5.9e-4 c -0.25294,-7.66193 -1.00589,-19.66761 -3.67715,-26.026625 l 1.40647,26.016475 -9.4565,0.0334 2.06102,-25.994965 c -2.84482,6.019475 -3.64475,20.307695 -4.36097,25.961535 l -7.8846,-0.0227 5.54227,-24.784985 c -2.28665,2.313005 -5.70233,16.825515 -7.89058,24.774235 l -7.77233,0 11.23624,-27.466545 -5.11227,-9.08254 z"
     id="path2827"
     style="fill:#c3a869;fill-opacity:1;stroke:none" />
  <path
     d="m 180.60017,62.690315 c -0.0194,3.13879 14.18831,2.04315 14.16007,0.0178 -3.56023,-1.02517 -12.03738,-0.90703 -14.16007,-0.0178 z"
     id="path3671"
     style="fill:#003380;fill-opacity:1;stroke:none" />
  <path
     d="m 194.23491,65.928135 c -3.68514,4.63115 -5.32967,11.90477 -5.76923,19.01099 l 10.67307,0.0549 1.27748,-1.96428 -9.02473,-0.055 c -0.45757,-5.33232 1.23929,-11.57541 2.84341,-17.04671 z"
     id="path3726"
     style="fill:#003380;fill-opacity:1;stroke:none" />
  <path
     d="m 188.11311,90.336375 c 1.0748,-1.10131 4.28267,-0.84511 7.70786,-0.84715 3.12004,-0.0104 7.6436,-0.16758 8.58015,0.72208 -0.017,0.94754 -2.73062,1.30734 -8.42675,1.2775 -5.91795,0.0275 -7.82241,-0.39871 -7.86126,-1.15243 z"
     id="path3822"
     style="fill:#003380;fill-opacity:1;stroke:none" />
  <path
     d="m 198.49692,62.879895 c -0.0194,3.1388 14.18831,2.04315 14.16007,0.0178 -3.56023,-1.02516 -12.03738,-0.90703 -14.16007,-0.0178 z"
     id="path3671-0"
     style="fill:#003380;fill-opacity:1;stroke:none" />
  <path
     d="m 184.74689,67.603475 c -0.006,-2.2268 6.00853,-2.06852 5.86538,-0.0405 0.10977,4.0886 -5.82976,3.80172 -5.86538,0.0405 z"
     id="path2853-4-4-9-0"
     style="fill:#003380;fill-opacity:1;stroke:none" />
  <path
     d="m 202.35178,67.652565 c -0.006,-2.2268 6.00853,-2.06851 5.86538,-0.0405 0.10977,4.0886 -5.82976,3.80172 -5.86538,0.0405 z"
     id="path2853-4-4-9-0-4"
     style="fill:#003380;fill-opacity:1;stroke:none" />
  <path
     d="m 91.146254,116.98687 79.990586,0.0946 -3.98462,8.54922 58.21823,0.23311 -3.89927,-8.39381 94.42538,-0.73322 -0.12039,17.25384 -77.40463,-0.12502 c -8.87181,13.89186 -10.66344,36.06159 -21.42772,48.0107 l -41.62826,0.12503 c -9.57257,-7.71052 -14.49383,-42.69709 -19.92309,-48.13573 l -65.088882,-0.50012 0.842666,-16.37864 z"
     id="path5421"
     style="fill:#c3a869;fill-opacity:1;stroke:none" />
  <rect
     width="15.377775"
     height="35.127777"
     x="119.78434"
     y="114.86768"
     id="rect5484"
     style="opacity:0.98999999;fill:#c3a869;fill-opacity:1;stroke:#003380;stroke-width:3.5;stroke-miterlimit:4;stroke-opacity:1;stroke-dasharray:none" />
  <rect
     width="15.36755"
     height="35.356831"
     x="257.72699"
     y="115.19602"
     id="rect5484-1"
     style="opacity:0.98999999;fill:#c3a869;fill-opacity:1;stroke:#003380;stroke-width:3.51022482;stroke-miterlimit:4;stroke-opacity:1;stroke-dasharray:none" />
  <path
     d="m 80.754482,66.962835 -6.375,9.90625 4.90625,0.15625 0.0625,104.031255 3.1875,-0.0625 -0.0937,-104.062505 4.03125,0 -5.71875,-9.96875 z"
     id="path5583"
     style="fill:#c3a869;fill-opacity:1;stroke:none" />
  <path
     d="m 108.9216,69.701875 -10.267708,5.77482 4.263578,2.43259 -51.346684,96.107985 2.596676,1.68545 51.583718,-96.400205 3.56324,1.88528 -0.39279,-11.48589 -3e-5,-3e-5 z"
     id="path5583-6"
     style="fill:#c3a869;fill-opacity:1;stroke:none" />
  <path
     d="m 51.942859,76.432135 -0.574447,11.76625 4.328373,-2.31536 52.018765,90.091925 2.73014,-1.64634 -52.061448,-90.103385 3.492305,-2.01365 -9.933688,-5.77944 z"
     id="path5583-0"
     style="fill:#c3a869;fill-opacity:1;stroke:none" />
  <rect
     width="10.429825"
     height="9.7227182"
     ry="0"
     x="176.43092"
     y="185.04216"
     id="rect5638"
     style="opacity:0.98999999;fill:#c3a869;fill-opacity:1;stroke:none" />
  <rect
     width="10.429825"
     height="9.7227182"
     ry="0"
     x="190.66147"
     y="184.99797"
     id="rect5638-9"
     style="opacity:0.98999999;fill:#c3a869;fill-opacity:1;stroke:none" />
  <rect
     width="10.429825"
     height="9.7227182"
     ry="0"
     x="205.46652"
     y="184.99797"
     id="rect5638-4"
     style="opacity:0.98999999;fill:#c3a869;fill-opacity:1;stroke:none" />
  <path
     d="m 170.81826,199.62625 50.11619,0 12.55115,47.64132 -75.04171,0 12.37437,-47.64132 z"
     id="path5702"
     style="fill:#c3a869;fill-opacity:1;stroke:none" />
  <path
     d="m 165.9627,249.93229 19.625,0.125 c -7.29167,14.41667 -4.50642,17.12198 -6.42697,29.3118 -2.5244,14.97533 -10.94207,20.02023 -15.125,34.875 -0.94298,4.27779 1.07746,18.30308 -1.875,18.875 -14.70685,1.51712 -43.02779,4.89759 -44.25,3 -6.97754,-12.70653 24.125,-12.8125 27.375,-19.875 8.38618,-20.70274 12.57792,-45.21549 20.67697,-66.3118 z"
     id="path5704"
     style="fill:#c3a869;fill-opacity:1;stroke:none" />
  <path
     d="m 227.1418,250.21312 -19.625,0.125 c 7.29167,14.41667 3.90248,17.12198 5.82303,29.3118 2.5244,14.97533 10.94207,20.02023 15.125,34.875 0.94298,4.27779 -1.07746,18.30308 1.875,18.875 14.70685,1.51712 43.02779,4.89759 44.25,3 6.97754,-12.70653 -24.125,-12.8125 -27.375,-19.875 -8.38618,-20.70274 -11.97398,-45.21549 -20.07303,-66.3118 z"
     id="path5704-1"
     style="fill:#c3a869;fill-opacity:1;stroke:none" />
  <path
     d="m 161.31711,233.41919 2.9718,-11.65898 c -7.39602,-26.27528 -11.06238,-63.54562 -11.55269,-87.13974 l -6.71225,-0.005 c 0.79832,34.0711 3.41062,70.13669 15.29314,98.80337 z"
     id="path5728"
     style="fill:#c3a869;fill-opacity:1;stroke:none" />
  <path
     d="m 236.72251,138.72515 c 0.64613,-1.42683 1.06565,-2.24871 2.07646,-4.13653 l 2.41356,0.003 c 13.48603,41.33786 23.7149,84.4369 33.8232,120.40271 l -40.22909,16.1686 -1.66415,-6.00845 34.06117,-14.43617 C 256.78433,211.08366 246.5436,172.8412 236.72251,138.72515 z"
     id="path5730"
     style="fill:#c3a869;fill-opacity:1;stroke:none" />
  <path
     d="m 211.68228,270.81674 c 0.0128,2.33705 0.10631,4.55405 0.51118,7.26645 -9.63212,1.94222 -21.31999,3.77592 -32.77269,3.98289 0.64071,-2.94163 0.76255,-4.84489 1.01993,-7.26248 10.98774,-0.2682 20.27816,-1.88241 31.24158,-3.98686 z"
     id="path5732"
     style="fill:#c3a869;fill-opacity:1;stroke:none" />
  <rect
     width="3.7411168"
     height="162.43652"
     x="282.51428"
     y="44.432564"
     id="rect5784"
     style="opacity:0.98999999;fill:#c3a869;fill-opacity:1;stroke:none" />
  <path
     d="m 281.39208,42.294985 c 64.25285,17.44288 73.84351,139.239075 1.23745,165.639775 -12.30549,-6.22731 44.10579,-11.31371 44.98967,-83.96894 2.09186,-57.629205 -54.05272,-80.170035 -46.22711,-81.670835 l -10e-6,0 z"
     id="path5786"
     style="fill:#c3a869;fill-opacity:1;stroke:#003380;stroke-width:1.60000002;stroke-linecap:butt;stroke-linejoin:miter;stroke-miterlimit:4;stroke-opacity:1;stroke-dasharray:none" />
  <path
     d="m 187.94277,170.25851 0,-32.38375 -18.78107,-0.0975 18.78107,32.48128 z"
     id="path6383"
     style="fill:#c3a869;fill-opacity:1;stroke:#003380;stroke-width:3.42241549;stroke-linecap:butt;stroke-linejoin:miter;stroke-miterlimit:4;stroke-opacity:1;stroke-dasharray:none" />
  <path
     d="m 203.94658,170.25441 0,-32.55189 18.77295,-0.098 -18.77295,32.64993 z"
     id="path6383-8"
     style="fill:#c3a869;fill-opacity:1;stroke:#003380;stroke-width:3.43054605;stroke-linecap:butt;stroke-linejoin:miter;stroke-miterlimit:4;stroke-opacity:1;stroke-dasharray:none" />
  <rect
     width="3.8167839"
     height="17.056616"
     x="282.48224"
     y="116.8877"
     id="rect8890"
     style="fill:#003380;fill-opacity:1;stroke:none" />
  <path
     d="m 331.77706,117.73683 c -5.35695,-1.47457 -14.85095,0.98541 -15.02602,-3.53553 -0.18557,-4.79201 26.57614,-5.8964 19.18027,3.62392 0.78925,1.8884 3.14709,3.07964 0,6.71752 1.2709,1.80232 2.12713,3.68758 -0.0884,6.18718 6.56113,9.63254 -19.27912,9.56924 -19.09188,4.77297 0.22977,-5.88586 9.84057,-2.35702 14.76085,-3.53553 -4.97921,-1.32583 -14.59011,1.5283 -14.93763,-3.97748 -0.28195,-4.467 3.64418,-3.0667 14.58408,-3.27037 -10.93517,-0.69654 -14.22562,0.0502 -14.31892,-3.44714 -0.13792,-5.16978 9.18856,-2.50261 14.93764,-3.53554 z"
     id="path5375-0"
     style="fill:#c3a869;fill-opacity:1;stroke:#003380;stroke-width:1.5;stroke-linecap:butt;stroke-linejoin:miter;stroke-miterlimit:4;stroke-opacity:1;stroke-dasharray:none" />
  <use
     transform="matrix(-1,0,0,1,408.08264,0)"
     id="use3030"
     x="0"
     y="0"
     width="390"
     height="480"
     xlink:href="#path5375-0" />
</svg>
