<?xml version="1.0" encoding="utf-8"?>
<!-- Generator: Adobe Illustrator 23.0.1, SVG Export Plug-In . SVG Version: 6.00 Build 0)  -->
<svg version="1.1"
	 id="Layer_1" xmlns:cc="http://creativecommons.org/ns#" xmlns:dc="http://purl.org/dc/elements/1.1/" xmlns:inkscape="http://www.inkscape.org/namespaces/inkscape" xmlns:rdf="http://www.w3.org/1999/02/22-rdf-syntax-ns#" xmlns:sodipodi="http://sodipodi.sourceforge.net/DTD/sodipodi-0.dtd" xmlns:svg="http://www.w3.org/2000/svg"
	 xmlns="http://www.w3.org/2000/svg" xmlns:xlink="http://www.w3.org/1999/xlink" x="0px" y="0px" width="1492.8px"
	 height="611.1px" viewBox="0 0 1492.8 611.1" enable-background="new 0 0 1492.8 611.1" xml:space="preserve">
<g>
	<g>
		<path fill-rule="evenodd" clip-rule="evenodd" fill="#E10119" d="M769.7,581.6v28H238.8c-78.7,0-158.8-12-192.1-25.3v-57.4
			c25.3,17.3,82.7,54.7,216.1,54.7C262.8,581.6,769.7,581.6,769.7,581.6z"/>
		<path fill-rule="evenodd" clip-rule="evenodd" fill="#018F35" d="M328.2,526.9h441.6v28H292.2C188.1,555,81.4,492.3,24,401.5
			V288.2C28,301.5,92,526.9,328.2,526.9z"/>
		<path fill="#FFFFFF" d="M292.2,555C190.8,555,90.7,526.9,0,401.5v64C90.7,553.6,162.8,579,262.8,583h506.9v-28
			C769.7,555,292.2,555,292.2,555z"/>
	</g>
	<g>
		<path fill="#959CA1" d="M1040.4,577.4h13.8v17.3c-2,0.5-5,0.9-8.8,0.9c-13.6,0-19.2-7.8-19.2-27c0-19,5.8-27,19.2-27
			c6.7,0,12.5,1.3,20,4.4l3.2,1.3v-16.4l-1.3-0.6c-4-2-11.3-4.3-23.4-4.3c-22.8,0-34.4,14.3-34.4,42.6c0,28.3,11.5,42.6,34.1,42.6
			c11.2,0,21-2.5,25.7-5.1l1.2-0.7v-43.2h-30.2V577.4z"/>
		<path fill="#959CA1" d="M1137.9,552.7c0,6.4-1.6,10.2-10,10.2h-13.1v-20.3h13.1C1136.3,542.5,1137.9,546.1,1137.9,552.7
			 M1155.3,552.7c0-17.2-9.5-25.5-29-25.5h-27.7v82.7h16.3v-31.8h12.4l14.2,31.8h18.8l-16.9-35.1
			C1151.5,571,1155.3,563.9,1155.3,552.7"/>
		<path fill="#959CA1" d="M1225.8,581.9c0,9.6-4.4,13.9-14.3,13.9c-9.9,0-14.3-4.3-14.3-13.9v-54.8h-16.3V583
			c0,26.1,23.5,28.1,30.6,28.1c7.2,0,30.6-2,30.6-28.1v-55.8h-16.3V581.9z"/>
		<path fill="#959CA1" d="M1295.7,565.3h-11.6v-22.8h11.6c7.7,0,11.5,3.7,11.5,11.4C1307.2,561.6,1303.4,565.3,1295.7,565.3
			 M1295.2,527.1h-27.4v82.7h16.3v-29.3h11.1c26.5,0,29.4-18.6,29.4-26.7C1324.6,537.1,1313.6,527.1,1295.2,527.1"/>
		<path fill="#959CA1" d="M1376.3,565.3h-11.6v-22.8h11.6c7.8,0,11.5,3.7,11.5,11.4C1387.8,561.6,1384,565.3,1376.3,565.3
			 M1375.8,527.1h-27.4v82.7h16.3v-29.3h11.1c26.5,0,29.4-18.6,29.4-26.7C1405.1,537.1,1394.1,527.1,1375.8,527.1"/>
		<path fill="#959CA1" d="M1460.3,595.8c-11.7,0-15.8-7.2-15.8-27.3c0-20.2,4.1-27.4,15.8-27.4c11.7,0,15.8,7.2,15.8,27.4
			C1476.1,588.7,1472,595.8,1460.3,595.8 M1460.3,525.9c-28.7,0-32.4,22.8-32.4,42.6c0,19.8,3.7,42.6,32.4,42.6
			c28.7,0,32.4-22.8,32.4-42.6C1492.7,548.6,1489,525.9,1460.3,525.9"/>
		<path fill="#003661" d="M1271.3,224.7c-46.1,0-53.9,26.5-53.9,85.8c0,59.4,7.8,85.9,53.9,85.9c46.1,0,53.9-26.5,53.9-85.9
			C1325.2,251.2,1317.4,224.7,1271.3,224.7 M1271.3,457.7c-111.2,0-125.4-78.6-125.4-147.1c0-68.5,14.3-147.1,125.4-147.1
			c111.2,0,125.4,78.6,125.4,147.1C1396.7,379.1,1382.5,457.7,1271.3,457.7"/>
		<path fill="#003661" d="M640.7,163.5c-23.5,0-47.1,5.7-69.2,16.6c-4.9-16-19.9-27.8-37.5-27.8h-31.8v298.9h71V238.9
			c11.7-6.2,29.9-13.6,57.1-13.6c26.4,0,37.6,10.4,37.6,34.9v191h71V254.8C739.1,194.2,706,163.5,640.7,163.5"/>
		<path fill="#003661" d="M993.3,395.9c-26.1,0-43.7-8.4-53.3-13.6V238.9c9.7-5.2,27.4-13.6,53.3-13.6c46.7,0,56.1,32.6,56.1,85.3
			C1049.3,363.2,1039.9,395.9,993.3,395.9 M1007.3,163.5c-25.5,0-48.3,5.3-69.4,16c-5.1-15.7-20-27.2-37.3-27.2h-31.8v457.5h71
			V440.4c20.3,11,44.4,17.3,67.4,17.3c76.4,0,113.5-48.1,113.5-147.1C1120.9,211.6,1083.7,163.5,1007.3,163.5"/>
		<path fill="#003661" d="M839.5,451.2V152.3h-71v259.6v0c0,21.6,17.7,39.3,39.3,39.3H839.5z"/>
		<path fill="#003661" d="M804,128.7c24.7,0,44.7-20.1,44.7-44.7S828.7,39.3,804,39.3c-24.7,0-44.7,20-44.7,44.7
			S779.3,128.7,804,128.7"/>
		<path fill="#003661" d="M1421.8,0v411.9h0v0c0,21.6,17.7,39.3,39.2,39.3h31.8v-412c0-21.6-17.7-39.2-39.3-39.2H1421.8L1421.8,0z"
			/>
		<path fill="#003661" d="M441.2,0c-21.6,0-39.3,17.7-39.3,39.3v273.4c0,29.1,0,68.5-39.2,103.3c-53.6,47.6-124.2,24.2-126,23.6v0
			c32.1,15.9,66.9,18.1,83.7,18.1c35.8,0,152.5-10.1,152.5-139.5V0H441.2z"/>
		<path fill="#003661" d="M320.4,392c-54.8,0-81.5-25.9-81.5-79.4V39.3c0-21.6-17.7-39.3-39.3-39.3h-31.8v39.3h0V318
			c0,55.2,21.2,88.6,48.3,108.9c17.2,4.2,124.6,26.3,171.5-61.4C374.5,383.3,352.1,392,320.4,392"/>
	</g>
</g>
</svg>
