<?xml version="1.0" encoding="UTF-8" standalone="no"?>
<!-- Created with Inkscape (http://www.inkscape.org/) -->

<svg
   xmlns:dc="http://purl.org/dc/elements/1.1/"
   xmlns:cc="http://creativecommons.org/ns#"
   xmlns:rdf="http://www.w3.org/1999/02/22-rdf-syntax-ns#"
   xmlns:svg="http://www.w3.org/2000/svg"
   xmlns="http://www.w3.org/2000/svg"
   xmlns:sodipodi="http://sodipodi.sourceforge.net/DTD/sodipodi-0.dtd"
   xmlns:inkscape="http://www.inkscape.org/namespaces/inkscape"
   width="213.34262"
   height="58.457504"
   id="svg235158"
   version="1.1"
   inkscape:version="0.48.4 r9939"
   sodipodi:docname="Documento nuevo 6">
  <defs
     id="defs235160" />
  <sodipodi:namedview
     id="base"
     pagecolor="#ffffff"
     bordercolor="#666666"
     borderopacity="1.0"
     inkscape:pageopacity="0.0"
     inkscape:pageshadow="2"
     inkscape:zoom="5.6"
     inkscape:cx="71.332009"
     inkscape:cy="3.0297992"
     inkscape:document-units="px"
     inkscape:current-layer="layer1"
     showgrid="false"
     fit-margin-top="0"
     fit-margin-left="0"
     fit-margin-right="0"
     fit-margin-bottom="0"
     inkscape:window-width="1920"
     inkscape:window-height="1018"
     inkscape:window-x="-8"
     inkscape:window-y="-8"
     inkscape:window-maximized="1" />
  <metadata
     id="metadata235163">
    <rdf:RDF>
      <cc:Work
         rdf:about="">
        <dc:format>image/svg+xml</dc:format>
        <dc:type
           rdf:resource="http://purl.org/dc/dcmitype/StillImage" />
        <dc:title></dc:title>
      </cc:Work>
    </rdf:RDF>
  </metadata>
  <g
     inkscape:label="Capa 1"
     inkscape:groupmode="layer"
     id="layer1"
     transform="translate(2118.0999,465.438)">
    <g
       id="g234921"
       transform="matrix(1.25,0,0,-1.25,-2092.8816,-427.64367)">
      <path
         inkscape:connector-curvature="0"
         d="m 0,0 c -0.251,-3.321 -1.541,-6.645 -3.878,-9.97 -2.452,-3.556 -4.923,-5.24 -7.416,-5.052 -2.519,0.19 -4.716,2.184 -6.591,5.985 -1.746,3.524 -2.494,6.961 -2.242,10.308 0.27,3.587 1.725,5.282 4.367,5.083 2.394,-0.18 4.239,-2.896 5.531,-8.15 1.744,5.024 3.987,7.435 6.727,7.229 C -0.91,5.238 0.258,3.428 0,0"
         style="fill:#333535;fill-opacity:1;fill-rule:nonzero;stroke:none"
         id="path234923" />
    </g>
    <g
       id="g234925"
       transform="matrix(1.25,0,0,-1.25,-2069.9237,-412.50542)">
      <path
         inkscape:connector-curvature="0"
         d="m 0,0 c -0.262,-2.008 -0.843,-3.331 -1.74,-3.963 -0.525,-0.363 -1.046,-0.51 -1.563,-0.44 -0.964,0.126 -1.897,0.854 -2.798,2.181 -1.22,-0.914 -2.652,-1.265 -4.298,-1.049 -2.163,0.283 -3.916,1.548 -5.259,3.794 -1.343,2.245 -1.82,4.849 -1.431,7.807 0.402,3.063 1.534,5.543 3.396,7.435 1.862,1.891 3.897,2.692 6.11,2.402 2.443,-0.321 4.199,-1.332 5.267,-3.031 0.715,-1.114 1.32,-3.046 1.822,-5.8 C 0.171,5.672 0.337,2.561 0,0 m -7.215,7.315 c 0.048,0.37 -0.054,0.739 -0.303,1.109 -0.252,0.368 -0.612,0.585 -1.083,0.644 -0.447,0.06 -0.841,-0.043 -1.187,-0.305 -0.344,-0.266 -0.547,-0.607 -0.6,-1.03 -0.053,-0.398 0.06,-0.761 0.34,-1.094 0.277,-0.332 0.629,-0.526 1.051,-0.58 0.425,-0.057 0.816,0.047 1.173,0.31 0.357,0.261 0.56,0.577 0.609,0.946"
         style="fill:#383b3b;fill-opacity:1;fill-rule:nonzero;stroke:none"
         id="path234927" />
    </g>
    <g
       id="g234929"
       transform="matrix(1.25,0,0,-1.25,-2053.6602,-426.63467)">
      <path
         inkscape:connector-curvature="0"
         d="m 0,0 c -0.152,-4.134 -0.841,-7.659 -2.065,-10.577 -1.141,-2.707 -2.344,-4.036 -3.606,-3.989 -1.286,0.047 -2.398,1.478 -3.333,4.29 -0.956,2.972 -1.354,6.524 -1.198,10.658 0.158,4.291 0.671,7.756 1.54,10.395 1.006,3.058 2.374,4.556 4.105,4.492 C -1.142,15.141 0.377,10.052 0,0"
         style="fill:#383b3b;fill-opacity:1;fill-rule:nonzero;stroke:none"
         id="path234931" />
    </g>
    <g
       id="g234933"
       transform="matrix(1.25,0,0,-1.25,-2030.3378,-415.19529)">
      <path
         inkscape:connector-curvature="0"
         d="m 0,0 c -0.115,-1.827 -1.066,-3.257 -2.843,-4.284 -1.624,-0.935 -3.488,-1.333 -5.584,-1.196 -2.496,0.16 -4.601,1.31 -6.309,3.449 -1.712,2.139 -2.473,4.66 -2.286,7.559 0.192,2.976 1.275,5.456 3.251,7.438 1.977,1.981 4.212,2.892 6.707,2.732 2.076,-0.134 3.869,-0.8 5.381,-1.994 1.627,-1.312 2.38,-2.9 2.26,-4.768 C 0.477,7.414 -0.026,6.334 -0.935,5.696 -1.481,5.329 -2.48,5.018 -3.935,4.764 -4.714,4.627 -5.497,4.583 -6.288,4.633 -6.957,4.677 -7.756,4.783 -8.687,4.949 -8.764,3.751 -8.369,3.125 -7.506,3.07 c 0.544,-0.034 1.101,0.045 1.672,0.24 0.573,0.197 1.149,0.405 1.735,0.626 0.226,0.062 0.475,0.086 0.746,0.067 C -2.463,3.947 -1.7,3.632 -1.068,3.059 -0.272,2.316 0.083,1.296 0,0 m -5.855,9.593 c 0.047,0.757 -0.312,1.162 -1.077,1.209 -0.791,0.052 -1.21,-0.302 -1.261,-1.061 -0.017,-0.271 0.084,-0.522 0.307,-0.753 0.221,-0.231 0.492,-0.359 0.813,-0.379 0.319,-0.018 0.599,0.07 0.834,0.272 0.238,0.203 0.365,0.439 0.384,0.712"
         style="fill:#383b3b;fill-opacity:1;fill-rule:nonzero;stroke:none"
         id="path234935" />
    </g>
    <g
       id="g234937"
       transform="matrix(1.25,0,0,-1.25,-2004.8091,-419.56367)">
      <path
         inkscape:connector-curvature="0"
         d="m 0,0 c -0.217,-2.683 -0.745,-4.911 -1.584,-6.687 -1.022,-2.163 -2.307,-3.184 -3.861,-3.055 -1.185,0.096 -2.094,1.025 -2.72,2.785 -0.549,1.489 -0.755,3.07 -0.62,4.742 0.009,0.133 0.042,0.371 0.094,0.716 0.028,0.317 0.048,0.568 0.063,0.755 0.113,1.407 -0.112,2.134 -0.682,2.18 -0.542,0.044 -0.864,-0.586 -0.972,-1.885 -0.012,-0.16 -0.033,-0.426 -0.064,-0.799 -0.031,-0.37 -0.053,-0.649 -0.068,-0.834 -0.137,-1.7 -0.631,-3.212 -1.479,-4.531 -0.936,-1.476 -2.005,-2.165 -3.211,-2.067 -1.523,0.122 -2.511,1.513 -2.963,4.168 -0.399,2.388 -0.398,6.063 0.003,11.028 0.2,2.47 0.995,4.142 2.384,5.02 1.02,0.64 2.467,0.881 4.343,0.73 0.443,-0.035 1.06,-0.105 1.845,-0.208 0.787,-0.106 1.316,-0.167 1.587,-0.191 C -2.034,11.393 0.603,7.436 0,0"
         style="fill:#383b3b;fill-opacity:1;fill-rule:nonzero;stroke:none"
         id="path234939" />
    </g>
    <g
       id="g234941"
       transform="matrix(1.25,0,0,-1.25,-1980.1933,-420.50079)">
      <path
         inkscape:connector-curvature="0"
         d="m 0,0 c -0.204,-2.919 -1.161,-5.29 -2.877,-7.119 -1.849,-1.95 -4.233,-2.823 -7.143,-2.619 -2.199,0.154 -3.763,0.529 -4.69,1.127 -1.262,0.78 -2.1,2.24 -2.525,4.376 -0.434,2.298 -0.49,5.768 -0.165,10.415 0.355,5.123 1.215,8.929 2.582,11.422 0.996,1.825 2.035,2.699 3.124,2.623 1.358,-0.094 2.406,-1.087 3.142,-2.981 0.694,-1.785 0.958,-3.89 0.79,-6.308 2.667,-0.183 4.707,-1.353 6.123,-3.504 C -0.343,5.424 0.206,2.944 0,0 m -7.577,0.788 c 0.026,0.372 -0.111,0.735 -0.408,1.09 -0.297,0.353 -0.694,0.551 -1.187,0.584 -0.445,0.031 -0.839,-0.095 -1.181,-0.379 -0.345,-0.283 -0.529,-0.637 -0.558,-1.063 -0.025,-0.372 0.11,-0.722 0.41,-1.051 0.301,-0.327 0.673,-0.507 1.119,-0.535 0.444,-0.033 0.85,0.093 1.214,0.373 0.37,0.282 0.565,0.609 0.591,0.981"
         style="fill:#383b3b;fill-opacity:1;fill-rule:nonzero;stroke:none"
         id="path234943" />
    </g>
    <g
       id="g234945"
       transform="matrix(1.25,0,0,-1.25,-1965.4174,-420.87792)">
      <path
         inkscape:connector-curvature="0"
         d="m 0,0 c -0.138,-2.923 -0.809,-5.395 -2.018,-7.418 -1.125,-1.863 -2.318,-2.765 -3.582,-2.708 -1.286,0.061 -2.404,1.084 -3.352,3.07 -0.97,2.122 -1.385,4.629 -1.253,7.526 0.139,2.974 0.633,5.374 1.483,7.199 0.992,2.109 2.35,3.125 4.086,3.046 C -1.226,10.558 0.32,6.986 0,0 m -0.288,16.396 c -0.055,-1.198 -0.505,-2.212 -1.348,-3.039 -0.843,-0.827 -1.821,-1.216 -2.933,-1.164 -1.14,0.05 -2.085,0.529 -2.836,1.43 -0.75,0.902 -1.1,1.952 -1.044,3.148 0.057,1.198 0.503,2.22 1.351,3.059 0.842,0.841 1.822,1.238 2.933,1.186 1.112,-0.053 2.051,-0.535 2.816,-1.451 0.764,-0.915 1.117,-1.972 1.061,-3.169"
         style="fill:#383b3b;fill-opacity:1;fill-rule:nonzero;stroke:none"
         id="path234947" />
    </g>
    <g
       id="g234949"
       transform="matrix(1.25,0,0,-1.25,-1955.8063,-418.96792)">
      <path
         inkscape:connector-curvature="0"
         d="m 0,0 c 0,0 -0.517,-1.617 -2.989,-2.461 -2.473,-0.845 -4.944,-1.097 -6.902,-0.667 -1.959,0.43 -3.745,1.202 -3.745,1.202 0,0 -0.768,-0.168 0.85,-0.854 1.616,-0.686 8.85,-4.451 15.75,-4.21 6.9,0.236 11.162,2.016 11.162,2.016 0,0 7.496,-0.955 13.124,1.842 5.631,2.798 7.854,6.029 8.537,6.965 0.683,0.936 2.564,3.828 3.079,5.189 0.517,1.362 2.358,6.517 1.901,10.815 -0.457,4.304 -1.092,6.476 -3.893,9.891 -2.804,3.414 -7.27,7.43 -14.636,7.448 C 14.609,37.194 9.007,33.35 6.122,31.507 3.32,29.714 -0.881,25.346 -2.506,21.39 -4.092,17.525 -4.736,14.836 -4.657,12.279 -4.58,9.723 -4.946,8.158 -3.144,4.525 -1.427,1.068 0,0 0,0"
         style="fill:#262659;fill-opacity:1;fill-rule:nonzero;stroke:none"
         id="path234951" />
    </g>
    <g
       id="g234953"
       transform="matrix(1.25,0,0,-1.25,-1931.7648,-429.78605)">
      <path
         inkscape:connector-curvature="0"
         d="m 0,0 c -0.252,-2.034 -1.32,-3.641 -3.201,-4.82 -1.884,-1.177 -3.904,-1.633 -6.068,-1.365 -2.908,0.358 -5.093,1.272 -6.556,2.742 -1.209,1.221 -1.732,2.507 -1.565,3.857 0.094,0.765 0.411,1.318 0.949,1.655 0.37,0.249 0.839,0.34 1.406,0.27 0.436,-0.056 1.215,-0.311 2.334,-0.772 0.319,-0.173 0.644,-0.281 0.977,-0.321 0.414,-0.051 0.643,0.108 0.687,0.479 0.041,0.343 -0.264,0.622 -0.915,0.837 -1.2,0.442 -1.91,0.719 -2.132,0.827 -1.003,0.553 -1.794,1.389 -2.374,2.507 -0.582,1.12 -0.795,2.301 -0.644,3.542 0.256,2.062 1.358,3.699 3.311,4.908 1.836,1.143 3.838,1.58 6.002,1.315 2.858,-0.353 5.029,-1.265 6.521,-2.737 1.21,-1.198 1.733,-2.468 1.57,-3.818 C 0.22,8.473 -0.015,7.962 -0.397,7.58 -0.784,7.2 -1.313,7.051 -1.982,7.133 -2.264,7.168 -3.054,7.439 -4.352,7.948 -4.849,8.144 -5.253,8.26 -5.56,8.298 -5.975,8.348 -6.196,8.242 -6.23,7.976 -6.316,7.264 -5.684,6.823 -4.332,6.656 -2.982,6.49 -1.862,5.667 -0.974,4.189 -0.152,2.799 0.173,1.404 0,0"
         style="fill:#ffffff;fill-opacity:1;fill-rule:nonzero;stroke:none"
         id="path234955" />
    </g>
    <g
       id="g234957"
       transform="matrix(1.25,0,0,-1.25,-1917.6763,-432.39192)">
      <path
         inkscape:connector-curvature="0"
         d="m 0,0 c -0.359,-2.9 -1.244,-5.306 -2.655,-7.22 -1.316,-1.764 -2.63,-2.567 -3.941,-2.406 -1.339,0.165 -2.429,1.277 -3.274,3.335 -0.852,2.191 -1.1,4.726 -0.748,7.599 0.365,2.953 1.06,5.302 2.086,7.05 1.188,2.022 2.684,2.922 4.489,2.7 C -0.493,10.621 0.855,6.936 0,0 M 0.919,16.359 C 0.773,15.17 0.23,14.198 -0.713,13.444 c -0.946,-0.756 -1.993,-1.063 -3.149,-0.921 -1.186,0.145 -2.136,0.7 -2.855,1.659 -0.717,0.958 -1.003,2.035 -0.854,3.223 0.145,1.19 0.691,2.167 1.636,2.936 0.942,0.771 1.993,1.084 3.15,0.939 1.161,-0.142 2.102,-0.702 2.831,-1.676 0.73,-0.976 1.021,-2.056 0.873,-3.245"
         style="fill:#ffffff;fill-opacity:1;fill-rule:nonzero;stroke:none"
         id="path234959" />
    </g>
  </g>
</svg>
