<?xml version="1.0" encoding="utf-8"?>
<!-- Generator: Adobe Illustrator 22.0.1, SVG Export Plug-In . SVG Version: 6.00 Build 0)  -->
<svg version="1.1" id="Calque_1" xmlns="http://www.w3.org/2000/svg" xmlns:xlink="http://www.w3.org/1999/xlink" x="0px" y="0px"
	 viewBox="0 0 294 150.2" style="enable-background:new 0 0 294 150.2;" xml:space="preserve">
<style type="text/css">
	.st0{fill:#7E7F82;}
	.st1{fill:#1B9DD9;}
</style>
<title>logo-veloh</title>
<polygon class="st0" points="51.3,65.7 37.1,58.7 30.6,77.9 18.4,58.3 0.3,68.6 27.7,111.5 44,111 "/>
<path class="st0" d="M86.3,66.6c6.1-1.7,12.5,6.1,12.5,6.1l-20.7,7.7C78.1,80.4,80.3,68.4,86.3,66.6 M80.2,95.4l39.1-15.2
	c0,0-11.2-38.3-40.7-28.6c-23.9,8.6-21.2,41.1-18.2,48.7s11.9,22.4,47.5,12.6c-1.9-5-3.4-10.1-4.4-15.3
	C103.5,97.6,82.8,104.2,80.2,95.4"/>
<polygon class="st0" points="107.4,12.7 132.6,111.1 153.8,108.9 131.1,1.8 "/>
<polygon class="st0" points="163.1,0.3 144.4,21.9 154.4,31.6 174.6,13.2 "/>
<path class="st1" d="M213.7,10.4l9.3,69.5l18.2,2.2L240,52.9l4.4-0.5l5.4,24.8l15.1-0.4L258,8.2l-16.4-0.6l0.4,26.5l-3.9,0.3
	c0,0-5-33.3-6.7-33.1S213.7,10.4,213.7,10.4"/>
<polygon class="st1" points="272.9,9.5 292.3,7 291.1,56.8 275.7,54.4 "/>
<path class="st1" d="M293.6,70.6c0,5.9-4.7,10.7-10.7,10.7c-5.1,0-9.6-3.6-10.5-8.6c-1.1-5.8,2.6-11.4,8.4-12.6
	c5.8-1.1,11.4,2.6,12.6,8.4C293.5,69.3,293.6,69.9,293.6,70.6"/>
<path class="st1" d="M186.3,76.3c-7.2,0.8-13.8-4.4-14.6-11.7c-0.8-7.2,4.4-13.8,11.7-14.6c7.2-0.8,13.8,4.4,14.6,11.7
	c0,0.1,0,0.1,0,0.2C198.7,69.1,193.5,75.5,186.3,76.3 M179.9,33c-16.6,1.7-28.8,16.6-27.1,33.2c1.7,16.6,16.6,28.8,33.2,27.1
	c16.6-1.7,28.8-16.5,27.1-33.2C211.4,43.5,196.6,31.3,179.9,33C179.9,33,179.9,33,179.9,33"/>
<path class="st1" d="M72.3,136.6c-2.5-1.3-3.4-4.4-2.1-6.9c0-0.1,0.1-0.1,0.1-0.2c1.4-2.5,4.5-3.5,7.1-2.1c0,0,0.1,0.1,0.1,0.1
	l1,0.5l3.3,1.6c16.7,7.7,35.2,10.9,53.5,9.3l5.3-0.7c24.7-4.1,43.9-12.1,70-43.3c1.9-2.2,5.2-2.5,7.4-0.7c2.2,1.8,2.6,5.1,0.8,7.3
	c0,0,0,0.1-0.1,0.1c-26.9,32.6-50.1,42.9-76.4,47l-6,0.8C100.6,152.9,72.8,136.9,72.3,136.6"/>
</svg>
