<?xml version="1.0" encoding="UTF-8" standalone="no"?>
<!-- Created with Inkscape (http://www.inkscape.org/) -->
<!-- http://www.veoliawater.com/ressources/files/1/2457,Business-Overview-2010-Veolia-Eau.pdf -->
<svg
   xmlns:svg="http://www.w3.org/2000/svg"
   xmlns="http://www.w3.org/2000/svg"
   version="1.0"
   width="249.99"
   height="76.992">
  <path
     d="M 30.846,48.247 C 34.625,44.04 38.389,38.282 37.42,33.563 C 36.604,28.788 33.047,27.21 30.694,27.252 C 28.328,27.21 24.771,28.788 23.968,33.563 C 22.972,38.282 26.764,44.04 30.542,48.247 C 18.598,48.109 8.9654,38.393 8.9654,26.435 C 8.9654,14.394 18.736,4.6233 30.777,4.6233 C 42.818,4.6233 52.589,14.394 52.589,26.435 C 52.589,38.462 42.86,48.219 30.846,48.247 z M 30.694,0.00072 C 13.74,0.00072 -0.00288,13.744 -0.00288,30.684 C -0.00288,47.638 13.74,61.381 30.694,61.381 C 47.648,61.381 61.378,47.638 61.378,30.684 C 61.378,13.744 47.648,0.00072 30.694,0.00072 M 155.81,21.771 C 149.65,21.771 147.01,25.065 147.01,32.622 C 146.95,40.192 149.75,43.624 155.86,43.624 C 161.86,43.624 164.57,40.192 164.57,32.58 C 164.57,25.162 161.81,21.771 155.81,21.771 z M 156.26,49.05 C 151.64,49.05 147.21,47.887 144.46,45.908 C 140.94,43.431 139.01,38.78 139.01,32.871 C 139.01,21.716 144.46,16.346 155.75,16.346 C 167.05,16.346 172.5,21.771 172.5,33.106 C 172.5,43.583 166.95,49.05 156.26,49.05 M 193.94,42.725 C 189.49,42.725 188.04,42.448 186.82,41.438 C 185.66,40.427 185.37,39.735 185.22,36.608 L 185.22,20.512 C 185.2,18.865 183.83,17.55 182.12,17.522 L 178.02,17.522 L 178.02,34.767 C 178.02,40.151 178.56,42.545 180.39,44.662 C 182.48,47.098 185.56,48.205 190.44,48.205 L 200.11,48.205 L 200.11,42.725 L 193.94,42.725 M 228.12,35.639 L 232.7,24.871 L 237.28,35.639 L 228.12,35.639 z M 236.66,17.508 L 231.8,17.508 C 229.92,17.564 228.33,18.643 227.62,20.193 L 215.46,48.192 L 220.37,48.192 C 222.3,48.192 223.94,47.071 224.65,45.493 L 226.56,41.064 L 238.83,41.064 L 240.77,45.534 C 241.49,47.098 243.12,48.192 245.02,48.192 L 249.99,48.192 L 236.66,17.508 M 207.71,17.508 C 206.01,17.55 204.65,18.851 204.61,20.47 L 204.61,48.192 L 208.62,48.192 C 210.32,48.178 211.71,46.863 211.74,45.244 L 211.74,17.508 L 207.71,17.508 M 100.13,17.55 C 98.247,17.591 96.628,18.685 95.922,20.235 L 88.393,39.126 L 80.352,20.262 C 79.646,18.685 78.041,17.578 76.117,17.55 L 71.204,17.55 L 84.781,48.233 L 88.698,48.233 C 90.525,48.192 92.102,47.154 92.822,45.645 L 105.53,17.55 L 100.13,17.55 M 116.35,26.394 C 117.54,23.958 119.99,23.044 124.45,22.989 C 124.52,22.989 133.83,22.989 133.83,22.989 L 133.83,17.508 L 121.64,17.508 C 119.69,17.508 118.18,17.647 116.92,17.951 C 116.92,17.951 116.89,17.951 116.86,17.951 C 115.95,18.173 115.17,18.477 114.45,18.865 C 112.67,19.778 111.66,20.844 111.66,20.844 C 110.55,21.937 109.64,23.307 108.93,24.913 C 107.84,27.127 107.35,29.577 107.35,32.594 L 107.35,33.106 C 107.35,36.123 107.84,38.573 108.93,40.787 C 109.68,42.476 110.63,43.901 111.84,45.008 C 111.84,45.008 112.47,45.604 112.82,45.853 C 113.68,46.517 114.59,46.96 115.31,47.25 C 115.6,47.375 115.92,47.486 116.25,47.583 C 116.57,47.68 116.77,47.721 116.77,47.721 C 118.07,48.039 119.62,48.192 121.64,48.192 L 133.83,48.192 L 133.83,42.725 C 133.83,42.725 124.52,42.725 124.45,42.711 C 119.99,42.656 117.54,41.756 116.35,39.306 C 115.88,38.365 115.6,37.203 115.46,35.763 L 115.46,35.5 L 133.04,35.5 L 133.04,30.213 L 115.46,30.213 L 115.46,29.937 C 115.6,28.497 115.88,27.335 116.35,26.394"
     style="fill:#ed1c24;fill-opacity:1;fill-rule:nonzero;stroke:none" />
  <path
     d="M 84.366,76.923 C 84.989,76.923 85.528,76.536 85.722,75.996 L 88.836,65.851 L 92.185,76.923 C 92.864,76.923 95.369,76.923 95.369,76.923 C 95.991,76.923 96.531,76.55 96.711,75.996 L 101.69,61.367 C 101.04,61.367 99.604,61.367 99.604,61.367 C 98.635,61.381 97.804,61.976 97.514,62.834 L 94.248,73.284 L 90.691,61.367 C 90.192,61.367 88.725,61.367 88.725,61.367 C 87.757,61.381 86.912,61.962 86.636,62.834 L 83.563,73.214 C 83.563,73.214 80.297,62.807 80.297,62.82 C 80.006,61.962 79.162,61.367 78.207,61.367 L 76.117,61.367 L 81.404,76.923 C 82.041,76.923 84.366,76.923 84.366,76.923 M 148.67,63.775 L 153.48,63.775 C 154.44,63.775 154.96,63.886 155.42,64.177 C 155.99,64.55 156.29,65.215 156.29,66.018 C 156.29,67.249 155.71,68.107 154.74,68.329 C 154.41,68.398 153.94,68.453 153.48,68.453 L 148.67,68.453 L 148.67,63.775 z M 148.67,71.304 L 148.67,71.083 L 151.32,71.083 C 154.66,71.083 155.78,71.996 156.08,75.014 C 156.14,75.401 156.29,76.439 156.49,76.923 L 159.95,76.923 C 159.85,76.439 159.68,75.581 159.61,74.751 C 159.59,74.252 159.39,72.536 158.59,71.567 C 158.15,71.055 157.77,70.834 156.74,70.474 L 156.07,70.253 L 156.74,70.045 C 157.51,69.81 157.75,69.671 158.2,69.339 C 158.58,69.062 158.89,68.716 159.12,68.315 L 159.12,68.301 C 159.52,67.692 159.77,66.613 159.77,65.616 C 159.77,63.762 158.56,62.198 156.8,61.727 C 155.81,61.492 154.63,61.381 153.1,61.381 L 146.81,61.381 C 146.04,61.381 145.41,61.976 145.4,62.696 L 145.4,76.923 L 148.67,76.923 L 148.67,71.304 M 106.07,70.834 L 108.81,64.412 L 111.53,70.834 L 106.07,70.834 z M 110.7,61.381 C 110.16,61.381 108.34,61.381 108.34,61.381 C 107.46,61.395 106.69,61.893 106.34,62.641 L 100.16,76.923 C 100.85,76.923 102.36,76.923 102.36,76.923 C 103.24,76.923 104.05,76.425 104.39,75.65 L 105.44,73.214 L 112.14,73.214 C 112.14,73.214 113.21,75.678 113.21,75.678 C 113.55,76.425 114.36,76.923 115.22,76.923 L 117.47,76.923 C 117.01,75.899 110.7,61.381 110.7,61.381 M 137.98,74.529 C 135.49,74.501 134.19,73.948 133.55,72.633 C 133.3,72.121 133.15,71.484 133.08,70.695 L 133.08,70.308 L 142.24,70.308 L 142.24,68.01 L 133.08,68.01 L 133.08,67.623 C 133.15,66.82 133.3,66.197 133.55,65.685 C 134.19,64.371 135.49,63.817 137.98,63.789 L 142.65,63.789 L 142.65,61.381 L 136.53,61.381 C 135.53,61.381 134.74,61.45 134.11,61.603 L 134.08,61.616 C 133.64,61.713 133.23,61.866 132.87,62.073 C 132.22,62.391 131.78,62.765 131.6,62.945 L 131.48,63.056 C 130.92,63.609 130.45,64.301 130.09,65.118 L 130.09,65.118 C 129.54,66.225 129.3,67.471 129.3,69.021 L 129.3,69.284 C 129.3,70.848 129.54,72.093 130.09,73.2 L 130.09,73.2 C 130.47,74.059 130.97,74.778 131.56,75.332 C 131.62,75.387 131.91,75.65 132.04,75.761 C 132.42,76.038 132.85,76.273 133.3,76.453 C 133.46,76.522 133.61,76.577 133.77,76.619 C 133.89,76.66 133.97,76.674 134,76.688 L 134.04,76.688 C 134.69,76.854 135.49,76.937 136.53,76.937 L 142.65,76.937 L 142.65,74.529 C 141.68,74.529 137.98,74.529 137.98,74.529 M 123.88,75.664 L 123.88,63.789 L 129.28,63.789 L 129.28,61.381 L 115.56,61.381 L 115.56,63.789 L 120.75,63.789 L 120.75,76.993 C 121.26,76.993 122.44,76.993 122.44,76.993 C 123.21,76.979 123.87,76.384 123.88,75.664"
     style="fill:#808285;fill-opacity:1;fill-rule:nonzero;stroke:none" />
</svg>
