<?xml version="1.0" encoding="utf-8"?>
<!-- Generator: Adobe Illustrator 19.2.1, SVG Export Plug-In . SVG Version: 6.00 Build 0)  -->
<svg version="1.1" id="Layer_1" xmlns="http://www.w3.org/2000/svg" xmlns:xlink="http://www.w3.org/1999/xlink" x="0px" y="0px"
	 viewBox="0 0 298.5 348.4" style="enable-background:new 0 0 298.5 348.4;" xml:space="preserve">
<style type="text/css">
	.st0{clip-path:url(#SVGID_3_);}
	.st1{fill:#4D87CA;stroke:#000000;stroke-width:4;stroke-miterlimit:10;}
	.st2{fill:#FFFFFF;stroke:#000000;stroke-width:4;stroke-miterlimit:10;}
	.st3{fill:none;stroke:#000000;stroke-width:6;stroke-miterlimit:10;}
	.st4{clip-path:url(#SVGID_6_);}
	.st5{fill:#078930;stroke:#000000;stroke-width:4;stroke-miterlimit:10;}
	.st6{fill:#4D87CA;}
	.st7{fill:#DA121A;stroke:#000000;stroke-width:1.5;stroke-miterlimit:10;}
	.st8{fill:none;stroke:#000000;stroke-linecap:round;stroke-linejoin:round;}
	.st9{fill:#FFFFFF;}
	.st10{fill:#FCDD09;stroke:#000000;stroke-width:2;stroke-linecap:round;stroke-linejoin:round;}
	.st11{fill:#FCDD09;}
	.st12{fill:#FCDD09;stroke:#000000;stroke-width:3;stroke-miterlimit:10;}
	.st13{fill:none;stroke:#000000;stroke-width:4;stroke-miterlimit:10;}
</style>
<g>
	<g>
		<g>
			<defs>
				<path id="SVGID_2_" d="M3.4,3.2v186c0,90.6,65.4,156,146,156s146-65.4,146-156V3.2H3.4z"/>
			</defs>
			<clipPath id="SVGID_3_">
				<use xlink:href="#SVGID_2_"  style="overflow:visible;"/>
			</clipPath>
			<g class="st0">
				<polygon class="st1" points="149.3,162.5 295.4,3.2 149.3,3.2 				"/>
				<polygon class="st2" points="149.3,162.5 149.3,3.2 3.4,3.2 149.2,162.5 				"/>
				<polygon class="st2" points="295.4,162.5 295.4,3.2 149.3,162.5 				"/>
				<path class="st1" d="M295.4,162.5H149.3l0,0l107,136.1c24.3-26.1,39.1-61,39.1-99.4V162.5z"/>
				<path class="st2" d="M149.3,345.2c0.1,0,0.1,0,0.2,0c42.2,0,80.2-17.9,106.9-46.6l-107-136.1L149.3,345.2L149.3,345.2z"/>
				<path class="st1" d="M42.4,298.5c26.6,28.7,64.7,46.7,106.9,46.7V162.6L42.4,298.5z"/>
				<path class="st2" d="M149.2,162.5H3.4v36.7c0,38.3,14.8,73.2,39,99.3L149.2,162.5L149.2,162.5z"/>
				<polygon class="st1" points="3.4,3.2 3.4,162.5 149.2,162.5 				"/>
			</g>
		</g>
	</g>
	<g>
		<path id="SVGID_1_" class="st3" d="M3.4,3.2v186c0,90.6,65.4,156,146,156s146-65.4,146-156V3.2H3.4z"/>
	</g>
</g>
<g>
	<g>
		<defs>
			<path id="SVGID_5_" d="M25.4,28.9v166.5c0,68.5,55.6,124,124,124s124-55.6,124-124V28.9H25.4z"/>
		</defs>
		<clipPath id="SVGID_6_">
			<use xlink:href="#SVGID_5_"  style="overflow:visible;"/>
		</clipPath>
		<g class="st4">
			<g>
				<rect x="-25.7" y="-24.4" class="st5" width="175.1" height="432"/>
				<rect x="149.4" y="-24.4" class="st2" width="187.9" height="432"/>
			</g>
			<g>
				<g>
					<g>
						<path class="st6" d="M197.7,177c-1.1,0-2.4-0.7-3.3-1.5c-0.6,1.1-1.2,1.5-1.9,1.5c-1.1,0-2.1-0.8-2.4-6.2
							c-1.8,2.2-3.2,3.6-4.7,3.6c-2.3,0-2.8-3.2-3-4.7c-1.7-1.8-2.3-3.4-1.7-4.8c0.9-2.2,4.3-2.6,6.9-2.6c0.8,0,1.7,0,2.5,0.1
							c-0.4-1.2-1.1-2.2-1.8-2.2c-2.5-0.1-5.5-1.8-5.6-3.9c0-1,0.5-2.6,4.5-3.1c0.6-1.5,1.5-2.9,2.8-2.9c1.6,0,2.4,2,3.4,4.3
							c0.5,1.1,1.6,3.7,2.2,3.7c0.7-0.1,1.4-0.1,2.1-0.1c1.9,0,3.5,0.3,4.6,0.5c0.3,0.1,0.6,0.1,0.8,0.1s0.3,0,0.4,0
							c0.8,0,1-0.3,1.2-0.6c0.7-1.2,0.1-3.9-1.3-6.5c-1.1-2-1.4-3.8-1.4-5.7c-1.5,0.2-2.9,0.3-4.2,0.3c-3.7,0-6.4-1-7.9-2.9
							c-1.6-2.1-1.9-5.3-0.7-9.7c0.1-0.4,0.4-0.7,0.8-0.7h0.1c0.3,0,0.7,0.2,0.8,0.5c2.1,3.4,3.9,5,5.5,5c1.4,0,2.7-1.2,4.2-2.4
							c1.7-1.4,3.6-3,6-3.2c0.3,0,0.5,0,0.8,0c3.5,0,5.8,1.8,8.4,3.8c2.8,2.2,5.7,4.5,10.7,4.5c1.9,0,4.1-0.4,6.5-1.1
							c0.1,0,0.2,0,0.3,0c0.4,0,0.8,0.3,1,0.7c2.3,7.5-2.6,14.4-3.2,15.2c-0.2,0.3-0.4,0.6-0.7,0.8c-0.7,0.7-1.7,1-2.8,1
							c-1.8,0-3.7-0.8-5.6-1.7c-1.4-0.6-2.9-1.3-3.8-1.3c-0.4,0-0.8,0-1,1.1c-0.4,2.3-0.1,4.1,1,5.5c1,1.4,2.9,2.4,5.1,2.7
							c0.3,0,0.6,0.2,0.8,0.5s0.2,0.6,0,0.9c-1.3,2.6-2.9,3.9-4.8,3.9c-1.2,0-2.4-0.5-3.3-1c-0.2-0.1-0.4-0.2-0.7-0.3
							c-0.4,1.3,0,2.7,2.7,4.1c0.3,0.2,0.5,0.5,0.5,0.9s-0.2,0.7-0.5,0.9c-1.1,0.6-2.3,0.9-3.4,0.9c-2.6,0-4.9-1.8-5.7-4.5
							c-0.6,0.1-1.1,0.3-1.4,0.8c-0.3,0.5-0.2,1.5,0.3,2.5c0.1,0.3,0.1,0.6,0,0.9c-0.2,0.3-0.5,0.5-0.8,0.5c-0.1,0-0.2,0-0.4,0
							c-2.3,0-4.6-1.4-6.5-3c0.3,2,0.1,3.3-0.6,4.2C199.2,176.7,198.5,177,197.7,177z"/>
						<path d="M207.7,133.7c6.9,0,9.3,8.2,19.1,8.2c1.9,0,4.2-0.3,6.8-1.1c2.3,7.6-3.3,14.9-3.5,14.9l0,0c-0.6,0.6-1.4,0.8-2.2,0.8
							c-3,0-7-2.9-9.4-2.9c-1,0-1.7,0.5-2,1.9c-1,6.1,2.8,8.7,6.9,9.3c-1.3,2.6-2.6,3.3-3.9,3.3c-1.7,0-3.3-1.3-4.6-1.6
							c-1.2,2.4-0.6,4.5,2.8,6.3c-1,0.5-2,0.8-2.9,0.8c-2.6,0-4.5-2-4.9-4.6c-4.1,0.3-3.5,3.2-2.8,4.8c-0.1,0-0.2,0-0.3,0
							c-3,0-6.1-2.9-8.1-4.8c1.4,5.3,0.5,6.9-0.9,6.9c-1.2,0-2.8-1.2-3.6-2.3c-0.7,1.6-1.3,2.3-1.7,2.3c-1.2,0-1.5-5.3-1.5-8
							c-2,2.7-4.1,5.4-5.6,5.4c-1,0-1.7-1.1-2.1-4.2c-4.2-4.3-0.6-6,4.3-6c1.2,0,2.5,0.1,3.8,0.3c-0.2-1.7-1.3-4.3-3-4.4
							c-3.9-0.1-7.9-4.5-0.4-5.1c0.8-2.1,1.5-2.9,2.1-2.9c1.9,0,3.2,7.9,5.6,7.9h0.1c0.7-0.1,1.3-0.1,1.9-0.1c2.4,0,4.4,0.5,5.3,0.7
							c0.2,0,0.4,0,0.6,0c3.5,0,2.8-4.8,0.8-8.5c-1.2-2.1-1.4-4-1.3-6.4c-2,0.4-3.7,0.5-5.2,0.5c-8.9,0-9.1-5.8-7.6-11.4
							c2.6,4.1,4.6,5.5,6.4,5.5c3.5,0,6.1-5.3,10.2-5.6C207.2,133.8,207.4,133.7,207.7,133.7 M207.7,131.7L207.7,131.7
							c-0.3,0-0.6,0-0.9,0c-2.7,0.2-4.8,2-6.6,3.5c-1.3,1.1-2.5,2.1-3.5,2.1c-1.2,0-2.8-1.6-4.7-4.5c-0.4-0.6-1-0.9-1.7-0.9
							c-0.1,0-0.2,0-0.3,0c-0.8,0.1-1.4,0.7-1.6,1.5c-1.3,4.7-1,8.1,0.8,10.5c1.7,2.2,4.6,3.3,8.7,3.3c1,0,2.1-0.1,3.2-0.2
							c0.1,1.7,0.5,3.3,1.5,5.1c1.6,2.8,1.6,5.1,1.3,5.5l0,0c0,0-0.1,0-0.3,0c-0.1,0-0.2,0-0.3,0c-0.2,0-0.5-0.1-0.8-0.1
							c-1.1-0.2-2.8-0.5-4.8-0.5c-0.6,0-1.2,0-1.8,0.1c-0.5-0.6-1.1-2.1-1.5-3c-1.1-2.5-2.1-4.9-4.3-4.9c-1.7,0-2.7,1.4-3.5,3
							c-4.3,0.7-4.9,2.8-4.9,4c0.1,2.8,3.5,4.8,6.5,4.9l0.1,0.1c-0.3,0-0.6,0-0.8,0c-4.2,0-6.9,1.1-7.8,3.2
							c-0.7,1.7-0.2,3.6,1.6,5.6c0.3,1.8,1,5.3,4,5.3c1.4,0,2.6-0.8,3.9-2.2c0.5,3.4,1.4,4.8,3.2,4.8c0.9,0,1.6-0.5,2.2-1.1
							c0.9,0.6,2,1.1,3.1,1.1s2.1-0.5,2.7-1.3c0.5-0.7,0.8-1.6,0.9-2.7c1.6,1.1,3.4,1.9,5.4,1.9c0.1,0,0.3,0,0.4,0
							c0.7,0,1.3-0.4,1.6-1s0.4-1.3,0.1-1.9c-0.3-0.7-0.4-1.3-0.4-1.5c1.2,2.5,3.5,4.1,6.2,4.1c1.3,0,2.6-0.3,3.8-1
							c0.7-0.3,1.1-1,1.1-1.8s-0.4-1.4-1.1-1.8c-1.1-0.6-1.7-1.1-2-1.6c0.8,0.4,1.8,0.7,2.9,0.7c2.3,0,4.2-1.5,5.7-4.5
							c0.3-0.6,0.3-1.3,0-1.8s-0.9-1-1.5-1c-1.1-0.2-3.3-0.7-4.4-2.3c-0.8-1.2-1.1-2.7-0.8-4.7c0-0.1,0-0.2,0.1-0.3
							c0.7,0,2.1,0.6,3.4,1.2c2,0.9,4,1.7,6,1.7c1.4,0,2.5-0.4,3.4-1.2c0.4-0.3,0.6-0.6,0.8-0.9c0.6-0.8,5.8-8.2,3.3-16.1
							c-0.3-0.9-1.1-1.4-1.9-1.4c-0.2,0-0.4,0-0.6,0.1c-2.3,0.7-4.3,1-6.2,1c-4.6,0-7.3-2.1-10.1-4.2
							C214.1,133.8,211.5,131.7,207.7,131.7L207.7,131.7z"/>
					</g>
					<g>
						<path class="st7" d="M179.7,151.1c4-3.3,7.4-2.5,9.2,0.7c1.3,2.3-1.9,5.4-3.8,3.7C183.7,154.4,183.8,150.7,179.7,151.1
							L179.7,151.1z"/>
						<path class="st7" d="M179.5,178.2c-2-5.4-0.7-9.3,2.2-10.9c2.1-1.2,4,3.2,2.4,5.2C182.8,174,179.9,173.1,179.5,178.2
							L179.5,178.2z"/>
						<path class="st7" d="M189.9,182.3c4.8,0.6,7.5-2,7.8-5.9c0.3-2.8-3.7-3.7-4.8-1.1C192.1,177.1,193.7,180.2,189.9,182.3z"/>
					</g>
					<g>
						<path class="st6" d="M195.7,132.6c-2.7,0-3.7-3.5-4.7-6.7c-0.2-0.5-0.3-1-0.5-1.5c-1.4,0.7-1.4,1.6-1.4,3.1
							c0,0.6,0,1.2-0.1,1.8c-0.1,0.5-0.5,0.8-1,0.9h-0.2c-3.3,0-4.6-2.7-5.7-5.2c-0.5,4.5-0.8,5.7-2.2,5.7c-0.8,0-1.4-0.6-2.4-1.6
							c-1.3,0.5-2.3,0.8-3,0.8c-1,0-1.6-0.5-1.8-0.8c-0.6-0.8-0.5-1.9-0.1-3.6c-3,2.7-4.4,3.1-5.4,3.1c-0.7,0-1.3-0.3-1.7-0.7
							c-0.8-0.8-1-2.2-0.9-4.4c-1.3-2.4-1.5-4.3-0.7-5.6c0.7-1.2,2.1-1.8,3.6-2c-3.1-1.7-3.4-3.4-3.3-4.5c0.3-1.7,2.2-3,4.8-3l0,0
							c1.1-1.7,2.2-2.5,3.4-2.5c2.1,0,3.5,2.5,4.2,7.6c4.9-3.1,17.4-7.2,28.5-10.8c4.8-1.6,9.4-3.1,12.4-4.2c0.1,0,0.2-0.1,0.4-0.1
							s0.4,0.1,0.6,0.2c0.3,0.2,0.4,0.5,0.4,0.8c-0.1,3.9-4.5,8.3-9.6,13.3c-5.9,5.9-12.7,12.7-12.7,19
							C196.7,132.1,196.3,132.6,195.7,132.6L195.7,132.6z"/>
						<path d="M218,99.2L218,99.2 M218,99.2c-0.2,7.9-22.2,20.2-22.3,32.4l0,0c-2.6,0-3.4-5.5-4.5-8.5c-3.8,1.3-2.7,3.6-3.1,6H188
							c-3.9,0-4.4-4.8-6.4-7.5c-0.7,5.9-0.8,8-1.6,8c-0.4,0-1.1-0.7-2.2-1.8c-1.5,0.6-2.5,1-3.3,1c-2.2,0-1.2-2.8,0.4-7.2
							c-2.3,2.6-5.7,5.9-7.7,5.9c-1.2,0-1.9-1.2-1.6-4.4c-3-5.6,0.2-6.6,5.1-6.6c0.5,0,1,0,1.5,0c-9.9-3-7.6-7.3-3.1-7.3
							c0.2,0,0.4,0,0.6,0c1-1.7,1.9-2.6,2.8-2.6c1.5,0,2.8,2.6,3.4,8.4C180.3,110.9,207.6,103.1,218,99.2 M218,97.2
							C217.9,97.2,217.9,97.2,218,97.2c-0.3,0-0.5,0.1-0.7,0.1c-3,1.1-7.5,2.6-12.3,4.2c-12.5,4.1-22.3,7.4-27.4,10.2
							c-0.7-3.6-2-7-5-7c-1.4,0-2.7,0.9-3.9,2.6c-2.8,0.2-4.9,1.7-5.2,3.8c-0.2,1,0.1,2.6,2,4.2c-0.9,0.4-1.7,1-2.2,1.9
							c-1.3,2.2-0.2,5,0.5,6.4c-0.1,2.3,0.2,3.9,1.2,4.9c0.6,0.7,1.5,1.1,2.5,1.1c0.9,0,2.1-0.3,4-1.7c0,0.7,0.2,1.2,0.6,1.7
							c0.3,0.5,1.1,1.3,2.7,1.3c0.8,0,1.6-0.2,2.8-0.6c0.9,0.9,1.6,1.4,2.6,1.4c2.1,0,2.6-2.3,2.7-3c0-0.1,0.1-0.3,0.1-0.4
							c1.1,1.6,2.6,2.9,5.2,2.9h0.2c1,0,1.8-0.7,1.9-1.7c0.1-0.7,0.1-1.3,0.1-1.9c0-0.4,0-0.6,0-0.9c1,3.2,2.2,7,5.5,7
							c0,0,0,0,0.1,0c1.1,0,2-0.9,2-2c0-6,6.6-12.5,12.4-18.3c5.2-5.2,9.7-9.7,9.9-13.9c0-0.1,0-0.1,0-0.2
							C220,98.1,219.1,97.2,218,97.2L218,97.2L218,97.2z M218,101.2L218,101.2L218,101.2L218,101.2z"/>
					</g>
					<g>
						<path class="st7" d="M162.5,105.9c4.1-3.1,7.5-2.1,9.2,1.2c1.2,2.4-2,5.3-3.9,3.5C166.4,109.3,166.7,105.7,162.5,105.9
							L162.5,105.9z"/>
						<path class="st7" d="M162.8,132.6c-2.5-5-1.7-9.1,1.1-11.1c2-1.5,4.3,2.5,2.9,4.8C165.7,128,162.7,127.5,162.8,132.6
							L162.8,132.6z"/>
						<path class="st7" d="M170.8,134.2c4.6,1.9,7.7,0.1,8.7-3.6c0.8-2.7-2.9-4.6-4.5-2.4C174,129.8,174.9,133.2,170.8,134.2z"/>
					</g>
					<g>
						<path class="st6" d="M221.8,212.2c-0.7,0-1.5-0.3-2.8-1.1c-0.6,0.1-1.1,0.2-1.6,0.2c-1,0-1.9-0.3-2.4-0.9
							c-0.8-0.9-0.8-2.2-0.7-3.6c-0.4,0.1-0.8,0.3-1.2,0.5c-1,0.4-1.8,0.8-2.7,0.8c-2.8,0-3.1-3.6-3.1-5.3c-0.7-1.2-1.5-2.9-0.7-4.3
							c0.8-1.4,2.7-1.6,4.2-1.6c0.2,0,0.3,0,0.5,0c-1.8-1.2-2.6-2.2-2.6-3.4c0.1-1.6,1.8-2.6,4.6-3.8c2-2.3,3.4-3.3,4.5-3.3
							c1.9,0,2.2,2.2,2.5,4.2c0.2,1.1,0.4,2.4,0.8,3.1c0.4-0.3,1.1-1.1,1.7-1.8c2.3-2.5,5.7-6.4,10.9-7c1.1-0.1,1.5-0.6,1.7-0.9
							c1.3-2-0.3-6.9-1.6-10.8c-0.1-0.3-0.2-0.5-0.3-0.8c-2.3,5.9-5,7.2-7,7.2c-1.7,0-3.3-1-4.6-2.8c-0.2-0.2-0.2-0.5-0.2-0.8
							c0.1-0.3,0.2-0.5,0.5-0.7c2.6-1.7,5.9-5.5,3.2-19.5c-0.1-0.3,0-0.7,0.3-0.9l0.1-0.1c2.6-2.6,8-8,5.2-13
							c-1.2-2.1-3.8-4.4-6.8-7.1c-7.3-6.5-17.4-15.3-15.3-30.2c0.7-4.8,13.5-8.9,16.1-9.6c0.1,0,0.2,0,0.3,0c0.4,0,0.7,0.2,0.9,0.6
							c0.4,0.8,9,20.1,11.4,28.3c0.2,0.6,0.3,1.2,0.5,1.8c1.4,5.1,2.6,9.5,9.7,10.4c1.6-1.5,0.7-16.2-1.5-26.1
							c-0.4-1.8-0.9-3.7-1.5-5.7c-2.8-10.3-6.1-21.9,2.8-36.5c1.2-2,2.8-3,4.2-3.8c2.4-1.5,4.2-2.5,2.7-9.5
							c-0.1-0.4,0.1-0.9,0.5-1.1c0.2-0.1,0.3-0.1,0.5-0.1s0.5,0.1,0.7,0.3c0.7,0.6,1.4,1.1,2.1,1.5c2,1.3,4.1,2.6,4.5,6.7
							c0.1,0.9,0.6,1.1,2.1,1.6c1.2,0.4,2.7,0.8,3.5,2.4c0.7,1.6,0.4,4-1.1,7.5c-0.1,0.4-0.5,0.6-0.9,0.6c0,0,0,0-0.1,0
							c-0.4,0-0.7-0.2-0.9-0.5c-1.5-2.6-3.6-3.9-6.3-3.9c-0.2,0-0.4,0-0.6,0c0.9,1.3,1.1,3,1.3,4.5c0.3,2.6,0.5,3.3,1.8,3.3
							c0.7,0,1.5-0.2,2.6-0.6c0.1,0,0.2-0.1,0.3-0.1c0.3,0,0.6,0.1,0.8,0.4c0.3,0.3,0.3,0.8,0,1.2c-3,4.3-5.5,6.5-7.7,6.5
							c-1.1,0-2.6-0.5-3.6-3.2c-1.4-4.4-2.3-4.7-2.3-4.7c-1.1,0.4-2.6,6.7-2.8,14.4c1-0.8,2-1,3.3-1c0.2,0,0.4,0,0.7,0
							c0.2,0,0.4,0,0.6,0c1.3,0,2.6-0.2,4.2-2.3c0.2-0.3,0.5-0.4,0.8-0.4c0.1,0,0.2,0,0.3,0c0.4,0.1,0.7,0.5,0.7,0.9
							c0.2,5.9-3.1,7.5-5.4,8.6c-1.4,0.7-2.4,1.1-2.7,2.1c-0.4,1.1,0,3,1.3,5.7c0.7-0.5,1.2-0.6,1.7-0.7c0.8-0.2,1.8-0.3,5.1-5.5
							c0.2-0.3,0.5-0.5,0.8-0.5c0.1,0,0.1,0,0.2,0c0.4,0.1,0.7,0.4,0.8,0.8c0.6,4.2-1,7.2-2.6,10.1c-1.5,2.7-3,5.5-2.9,9.6l0.4,18.9
							c0,0.1,0,0.1,0,0.2c-0.7,5.3-2.3,7.7-5.2,7.7c-0.8,0-1.5-0.2-2.2-0.3c-0.3-0.1-0.5-0.1-0.7-0.2c0.8,4.6-0.4,7.7-1.4,10.3
							c-0.6,1.6-1.1,2.9-1,4.2c1.2,9,4.3,14,9.1,14.8c0.3,0.1,0.6,0.2,0.7,0.5c0.1,0.3,0.2,0.6,0,0.9c-1.1,2.5-3.3,4.2-5.4,4.2
							c-0.6,0-1.4-0.1-2.2-0.7c0.4,4.3,1.9,8.1,7.6,10.8c0.3,0.1,0.5,0.4,0.5,0.7s0,0.6-0.2,0.8c-2.1,2.8-4.3,4-7.2,4
							c-0.6,0-1.2,0-1.8-0.1c0.5,2.1,2.3,3.4,4.4,4.8l0.3,0.2c0.3,0.2,0.5,0.6,0.4,0.9c0,0.4-0.3,0.7-0.6,0.8
							c-1.6,0.7-3.4,1.4-5.2,1.4c-1.7,0-3.2-0.5-4.8-1.7c-0.1,1.4-0.6,2.4-1,3.3c-0.5,1.1-0.9,2-0.7,3.2c0,0.3,0,0.5-0.2,0.8
							c-0.2,0.2-0.4,0.3-0.7,0.4c-0.2,0-0.3,0-0.5,0c-2.4,0-3.9-1.5-5-3.3c-0.7,2.7-1.7,5.1-3.9,5.7c-0.1,0-0.2,0-0.3,0
							c-0.4,0-0.8-0.3-1-0.7c-0.8-2.6-1.9-3-3.2-3.4c-0.4-0.1-0.7-0.3-1.1-0.4c-0.1,0.6-0.2,1.2-0.3,1.7
							C223.7,210.6,223.5,212.2,221.8,212.2z"/>
						<path d="M255.8,54.4c2.6,2.4,5.8,2.6,6.3,7.6c0.4,4.5,9.3-0.3,4.5,11c-1.8-3.1-4.3-4.4-7.2-4.4c-0.9,0-1.9,0.1-2.8,0.4
							c4.1,2.1,0.8,9.4,5.3,9.4c0.7,0,1.7-0.2,3-0.7c-3,4.3-5.2,6-6.9,6c-1.2,0-2.1-0.9-2.7-2.5c-1.2-3.8-2.2-5.3-3.2-5.3
							c-2.5,0-4,10.5-3.8,18.7c1.3-3,2.7-3.3,4.3-3.3c0.4,0,0.8,0,1.3,0c1.5,0,3.2-0.3,5-2.7c0.4,11.7-13.4,3.7-6.2,18
							c2.9-2.8,2.5,1.4,8-7.2c1,7.6-5.7,10.8-5.5,19.5l0.4,18.9c-0.7,5.7-2.4,6.8-4.2,6.8c-1.2,0-2.6-0.6-3.7-0.6
							c-0.2,0-0.3,0-0.5,0c2,8.2-2.7,11.7-2.1,15.6c1.1,7.7,3.7,14.6,9.9,15.7c-0.9,2.1-2.8,3.6-4.5,3.6c-1.3,0-2.6-0.9-3.4-3.1
							c0,5.5,0.5,11.4,8.3,15.1c-2.2,2.9-4.2,3.6-6.4,3.6c-0.9,0-1.9-0.1-2.9-0.3c0,3.6,2.7,5.2,5.3,7c-1.8,0.8-3.3,1.3-4.8,1.3
							c-1.9,0-3.7-0.8-5.9-3c0.7,4.3-2,5.6-1.6,8.8c-0.1,0-0.3,0-0.4,0c-2.6,0-4.1-2.2-5.4-5.1c-0.8,3.4-1.6,7-3.9,7.7
							c-1.5-4.8-4.4-3.4-5.9-5.3c-1,3.2-0.5,5.4-1.8,5.4c-0.5,0-1.3-0.3-2.6-1.1c-0.7,0.2-1.3,0.2-1.8,0.2c-2.7,0-2.2-2.2-2-4.8
							c-1.8,0.2-3.6,1.5-5,1.5c-1.2,0-2-1-2.2-4.6c-2.3-3.7-0.4-4.6,2.5-4.6c1.5,0,3.2,0.2,4.9,0.4c-7.4-3.8-7.8-5.3-1.7-7.7
							c2-2.3,3.2-3.2,3.9-3.2c1.9,0,1.1,5.3,2.8,7.2c0.1,0.1,0.3,0.2,0.4,0.2c1.8,0,5.5-8,12.8-8.9c6.2-0.8,1.3-11.1-0.2-16.8
							c-2,7-4.6,9.6-7,9.6c-1.4,0-2.7-0.9-3.8-2.3c3.9-2.4,6.1-7.7,3.7-20.5c2.7-2.7,8.6-8.6,5.4-14.3c-4.4-7.8-24.8-16.4-22-36.6
							c0.6-4.4,15.4-8.8,15.4-8.8s9,20,11.3,28.2c1.7,5.7,2.4,11.8,11.2,12.9h0.1c3.2,0,1.3-18.7-0.6-27.3
							c-2.6-11.6-9.1-24.4,1.2-41.4C252,63.1,258.3,65.9,255.8,54.4 M255.8,52.4c-0.3,0-0.7,0.1-1,0.3c-0.8,0.4-1.1,1.3-1,2.1
							c1.3,6.3,0.1,7-2.3,8.4c-1.4,0.9-3.2,1.9-4.6,4.2c-9.1,15-5.8,26.8-2.9,37.3c0.5,2,1,3.8,1.5,5.6c2,8.5,2.9,21.6,1.9,24.8
							c-5.9-1-6.8-4.6-8.2-9.6c-0.2-0.6-0.3-1.2-0.5-1.8c-2.4-8.3-11.1-27.6-11.4-28.5c-0.3-0.7-1.1-1.2-1.8-1.2
							c-0.2,0-0.4,0-0.6,0.1c-0.2,0-3.9,1.2-7.7,2.8c-5.9,2.6-8.7,5-9.1,7.6c-2.2,15.4,8.1,24.4,15.6,31c2.9,2.6,5.5,4.8,6.6,6.8
							c2.1,3.8-1.2,7.9-5,11.8l-0.1,0.1c-0.5,0.5-0.7,1.1-0.5,1.8c2.5,13.4-0.4,16.9-2.8,18.4c-0.5,0.3-0.8,0.8-0.9,1.3
							c-0.1,0.5,0,1.1,0.3,1.6c1.5,2,3.4,3.2,5.4,3.2s4.6-1.1,6.8-5.4c1,3.2,2,6.9,1.1,8.3c-0.1,0.1-0.2,0.4-1,0.5
							c-5.5,0.7-9.3,4.8-11.5,7.3c-0.2,0.2-0.4,0.4-0.5,0.6c-0.1-0.5-0.2-1-0.2-1.4c-0.3-2-0.8-5-3.5-5l0,0c-1.5,0-3,1-5.1,3.5
							c-2.5,1-4.9,2.3-5,4.6c0,1,0.3,1.8,1,2.6c-1.1,0.2-2.4,0.7-3,1.9c-1,1.8,0,4,0.6,5.1c0.1,2,0.6,6,4.1,6c1,0,1.9-0.4,2.8-0.7
							c0,1,0.3,2,1,2.8s1.8,1.2,3.1,1.2c0.4,0,0.9,0,1.4-0.1c1.3,0.7,2.2,1,3,1c2.5,0,2.9-2.4,3.1-3.9c0-0.1,0-0.3,0.1-0.5l0,0
							c1.2,0.4,1.9,0.7,2.6,2.8c0.3,0.8,1.1,1.4,1.9,1.4c0.2,0,0.4,0,0.6-0.1c2.1-0.6,3.2-2.4,4-4.5c1.1,1.2,2.6,2.1,4.7,2.1
							c0.2,0,0.4,0,0.6,0c0.5,0,1-0.3,1.4-0.7c0.3-0.4,0.5-1,0.4-1.5c-0.1-0.9,0.1-1.5,0.6-2.6c0.3-0.6,0.6-1.3,0.8-2.1
							c1.4,0.8,2.7,1.1,4.1,1.1c2,0,3.9-0.7,5.6-1.5c0.7-0.3,1.1-0.9,1.2-1.7c0.1-0.7-0.3-1.4-0.9-1.8l-0.3-0.2
							c-1.5-1-2.7-1.9-3.4-2.8c0.1,0,0.1,0,0.2,0c3.2,0,5.7-1.4,8-4.4c0.4-0.5,0.5-1.1,0.4-1.7c-0.1-0.6-0.5-1.1-1.1-1.3
							c-4.5-2.2-6.2-5-6.8-8.3c0.4,0.1,0.8,0.1,1,0.1c2.5,0,5.1-1.9,6.3-4.8c0.3-0.6,0.2-1.2-0.1-1.8s-0.8-0.9-1.4-1
							c-4.3-0.8-7.1-5.5-8.3-14c-0.1-1,0.3-2.2,0.9-3.7c0.9-2.3,2-5.2,1.7-9.4c0.5,0.1,1.1,0.2,1.7,0.2c5,0,5.8-6.2,6.1-8.6
							c0-0.1,0-0.2,0-0.3l-0.4-18.9c-0.1-3.8,1.3-6.3,2.8-9.1c1.6-3,3.3-6.2,2.7-10.7c-0.1-0.8-0.7-1.5-1.6-1.7c-0.1,0-0.3,0-0.4,0
							c-0.7,0-1.3,0.3-1.7,0.9c-3.1,4.8-3.9,5-4.4,5.1c-0.3,0.1-0.7,0.1-1,0.3c-1-2.5-1-3.6-0.8-4c0.2-0.6,0.9-0.9,2.2-1.5
							c2.5-1.2,6.3-2.9,6-9.5c0-0.8-0.6-1.6-1.4-1.8c-0.2-0.1-0.4-0.1-0.6-0.1c-0.6,0-1.2,0.3-1.6,0.8c-1.3,1.7-2.2,1.9-3.4,1.9
							c-0.2,0-0.4,0-0.6,0c-0.2,0-0.5,0-0.7,0c-0.7,0-1.5,0.1-2.2,0.3c0.3-4.9,1.1-9.1,1.8-10.9c0.3,0.6,0.7,1.6,1.2,3.1v0.1
							c1.2,3.3,3.4,3.8,4.5,3.8c2.5,0,5.2-2.2,8.5-6.9c0.5-0.7,0.5-1.7-0.1-2.4c-0.4-0.5-1-0.8-1.6-0.8c-0.2,0-0.5,0-0.7,0.1
							c-1.2,0.4-1.9,0.5-2.3,0.5c-0.3,0-0.4,0-0.4,0c-0.2-0.2-0.4-1.5-0.5-2.3c-0.1-1-0.2-2.2-0.6-3.3c1.9,0.3,3.3,1.4,4.4,3.3
							c0.4,0.6,1,1,1.7,1h0.1c0.8,0,1.4-0.5,1.7-1.2c1.6-3.9,2-6.4,1.1-8.3s-2.7-2.5-4.1-2.9c-0.4-0.1-1.2-0.4-1.4-0.5
							c0,0,0-0.1,0-0.2c-0.4-4.6-2.9-6.2-5-7.5c-0.7-0.4-1.4-0.9-2-1.4C256.7,52.5,256.3,52.4,255.8,52.4L255.8,52.4z"/>
					</g>
					<g>
						<path class="st7" d="M206.4,188c3.9-3.5,7.3-2.8,9.2,0.4c1.4,2.3-1.7,5.4-3.7,3.9C210.5,191.1,210.6,187.5,206.4,188z"/>
						<path class="st7" d="M204.9,212.5c-2.5-5.1-1.6-9.1,1.1-11.1c2-1.5,4.3,2.6,2.8,4.8C207.8,207.9,204.8,207.4,204.9,212.5
							L204.9,212.5z"/>
						<path class="st7" d="M214.2,216.8c4.9,0.2,7.3-2.7,7.4-6.6c0.1-2.8-3.9-3.3-4.9-0.6C216.1,211.4,217.9,214.3,214.2,216.8
							L214.2,216.8z"/>
					</g>
					<g>
						<path class="st6" d="M187.9,92.5c-1.6,0-2.9-0.3-3.7-0.9c-0.3-0.3-0.5-0.7-0.3-1.1c0.1-0.7-0.3-4.1-0.5-5.2c0-0.1,0-0.2,0-0.4
							c-0.9-0.3-1.6-0.5-2.2-0.5c-1.2,0-1.9,0.7-2.9,1.6c-0.3,0.3-0.6,0.6-1,0.9c-0.2,0.2-0.4,0.2-0.6,0.2c-0.1,0-0.2,0-0.3-0.1
							c-0.3-0.1-0.6-0.4-0.6-0.7c-1-5,1.1-7.6,3.3-10.1c-0.6,0-1.3,0.5-2,1c-0.5,0.4-1.1,0.7-1.7,1c-0.1,0.1-0.3,0.1-0.4,0.1
							c-0.3,0-0.6-0.2-0.8-0.4c-2-2.9-1-5.5,0-7.8c-1.7,1.6-3,2.5-4.1,2.5c-0.6,0-1-0.2-1.4-0.6c-0.7-0.8-0.9-2.3-0.7-5
							c-1.9-2.9-2.4-4.6-1.8-5.8c0.4-0.7,1.1-1.1,2.3-1.1c0.8,0,1.8,0.2,2.7,0.4c0.6,0.1,1.2,0.2,1.6,0.3c-0.5-1-2.7-2.3-4-3.2
							c-2.2-1.4-3.8-2.4-3.5-3.8c0.3-1.1,1.6-1.6,4.9-1.8c0.7-2.7,1.6-4.5,3-4.5c1.3,0,2.2,1.4,3.3,3.3c1,1.7,2.3,3.9,3.5,3.9h0.1
							c-0.4-3.8-0.4-5.7,0.4-6.7c0.3-0.3,0.7-0.5,1.2-0.5c0.9,0,2,0.7,4.3,3.8c2.6,0.1,3.8,1.5,3.9,2.7c0.3,2.1-1.8,4.9-6.8,6.5
							c3.2,5.7,16,24.8,16.8,26c0,0.1,0.1,0.1,0.1,0.2c0.2,0.3,0.1,0.8-0.1,1.1C197.5,90.6,191.9,92.5,187.9,92.5L187.9,92.5z"/>
						<path d="M181.6,48.4c0.7,0,1.8,1.1,3.8,3.8c0.1,0,0.2,0,0.2,0c5.3,0,4.2,5.5-4.1,7.6c1.9,4,17.4,27.2,17.5,27.2l0,0
							c-2.1,2.8-7.4,4.5-11.1,4.5c-1.3,0-2.4-0.2-3.1-0.7c0.2-0.4-0.5-6.1-0.5-6.6c-1.3-0.6-2.3-0.8-3.1-0.8c-2.1,0-3,1.4-4.5,2.7
							c-1-5.1,1.6-7.5,4-10.3c-0.6-0.5-1.1-0.6-1.6-0.6c-1.5,0-2.7,1.5-4.1,2c-2.7-3.9,0.8-6.9,1.3-10.8c-2.5,2.5-5,5.1-6.3,5.1
							c-1,0-1.4-1.3-1-4.8c-3-4.6-2.2-5.6-0.5-5.6c1.4,0,3.4,0.7,4.5,0.7c0.5,0,0.9-0.1,0.9-0.6c0.2-3.8-15.1-7.6-2.9-8.2l0,0
							c0.8-3.3,1.5-4.4,2.3-4.4c1.8,0,3.6,7.1,6.8,7.1c0.4,0,0.8-0.1,1.2-0.3C180.7,51.6,180.4,48.4,181.6,48.4 M181.6,46.4
							c-0.7,0-1.4,0.3-1.9,0.8c-0.9,1-1.1,2.6-0.8,5.4c-0.6-0.8-1.2-1.9-1.6-2.5c-1.2-2-2.2-3.8-4.1-3.8c-2.1,0-3.1,2.1-3.8,4.5
							c-2.6,0.2-4.6,0.7-5.1,2.5c-0.5,2.1,1.5,3.4,3.9,4.8c0.3,0.2,0.7,0.4,1.1,0.7c-0.3,0-0.6,0-0.9,0c-1.9,0-2.7,0.9-3.1,1.6
							c-0.8,1.5-0.3,3.4,1.6,6.5c-0.2,2.8,0,4.4,0.9,5.4c0.6,0.6,1.3,1,2.1,1c0.7,0,1.4-0.2,2.1-0.7c-0.3,1.7-0.1,3.5,1.2,5.5
							c0.4,0.6,1,0.9,1.7,0.9c0.2,0,0.4,0,0.7-0.1c-1,1.9-1.6,4.2-0.9,7.4c0.1,0.7,0.6,1.3,1.3,1.5c0.2,0.1,0.4,0.1,0.7,0.1
							c0.5,0,0.9-0.2,1.3-0.5c0.4-0.3,0.7-0.6,1-0.9c1-1,1.5-1.3,2.2-1.3c0.4,0,0.8,0.1,1.3,0.2c0.3,2.6,0.4,4.1,0.4,4.7
							c-0.2,0.7,0.1,1.5,0.7,2c1,0.8,2.4,1.1,4.3,1.1c4.3,0,10.2-2,12.7-5.3c0.5-0.6,0.5-1.4,0.2-2.1c-0.1-0.1-0.1-0.2-0.2-0.3
							c-0.8-1.2-12.2-18.3-16.1-24.8c4.7-1.8,6.6-4.8,6.3-7.1c-0.2-1.6-1.5-3.3-4.4-3.6C184.3,47.4,183,46.4,181.6,46.4L181.6,46.4
							L181.6,46.4L181.6,46.4z"/>
					</g>
					<g>
						<path class="st7" d="M162.8,49.5c3.8-3.7,7.2-3.1,9.2-0.1c1.4,2.2-1.5,5.5-3.6,4C166.9,52.5,166.9,48.8,162.8,49.5z"/>
						<path class="st7" d="M185.4,41.6c3.9,3.5,4.4,7.6,2.5,10.8c-1.4,2.3-4.8-0.4-4.2-3.1C184.2,47.3,187.1,46.3,185.4,41.6z"/>
						<path class="st7" d="M161.6,63.1c1,5.8,4,8,7.1,7.2c2.3-0.6,1.7-5.4-0.7-5.9C166.3,64.1,164.4,66.9,161.6,63.1L161.6,63.1z"/>
					</g>
				</g>
				<path class="st7" d="M203.7,57.8c-2.9-6.5-5.7-13.2,1-20.5c-6.7-5-10.8,5.1-8.1,14.9c2.3,8.2,5,12.1,11.1,17.1
					c4.5,3.7,18.2,3.4,18.2,3.4S208.8,69.1,203.7,57.8L203.7,57.8z"/>
				<g>
					<path class="st8" d="M213.2,149.8c1.6,1.6,2.9,3.2,7.3,4.7"/>
					<path class="st8" d="M183.9,69.1c-1.4,6.9,2.5,6.1,3,12.2"/>
					<path class="st8" d="M176.3,113.6c-0.9,2.8-4.6,2.9-7.1,2.5"/>
					<path class="st8" d="M187.8,116.5c-2.7,1.9-8-1.9-9.6,1.9"/>
					<g>
						<path class="st8" d="M226.2,121.7c-6.5,1.8-1.5,3.7,1.7,7.5"/>
						<path class="st8" d="M230.7,117.5c3.8,5.8,3.7,8.7,4.9,12.7"/>
					</g>
					<path class="st8" d="M195.6,158.7c-2.6,0.3-0.6,4.7-4.5,4.3"/>
					<path class="st8" d="M223.2,191.2c-3.9,6.1-8.6,2.9-9.5,6.5"/>
					<path class="st8" d="M200.7,164c-6.5,0.5-4.1,2.4-4.7,4.9"/>
					<path class="st8" d="M211.1,141c-1,2.1-2.6,4.1,0.2,6.2"/>
					<path class="st8" d="M214,155.8c3.1,7.1-3.1,6.6-7.7,7.7"/>
					<g>
						<path class="st8" d="M234.5,154.3c0.4,3.2,0.8,6.4-1.5,7"/>
						<path class="st8" d="M244,182.7c2.4,3.8,3.8,8.1,8.5,8.8"/>
						<path class="st8" d="M237,192.5c-3.2,6-9.6-3-11.1,4.7"/>
						<path class="st8" d="M242.1,161.3c0.5,7.2,3.7,7.8,2.8,16.5"/>
						<path class="st8" d="M244.9,144.7c0.6,3.6,0.4,7.4-3,12.4"/>
					</g>
					<g>
						<path class="st8" d="M231.3,146.5c-4.3,1.3-9.2,1.1-13.5-0.3"/>
						<path class="st8" d="M230.3,150.4c-2.5,1-7.2,1.8-12.7-0.3"/>
						<path class="st8" d="M231.5,143c-3.7,1.2-7.5,0.6-11.8-0.8"/>
						<path class="st8" d="M228,152.8c-0.5-0.1-3.2,0.9-7.7,0"/>
						<path class="st8" d="M232.2,144.2c-4.3,2.3-13,0.7-17.5-1.3"/>
						<path class="st8" d="M231.2,148.2c-3.5,1.9-11.6,1.6-16.8-1.3"/>
					</g>
				</g>
				<g>
					<g>
						<g>
							<path class="st6" d="M201.1,127.6c-1.6,0-2.5-1.3-2.9-1.9c-0.6-0.9-0.8-2-0.9-2.7c-0.3-2.4,0.7-4.1,1.6-5.6
								c0.6-0.9,1.1-1.8,1.4-2.8l0,0c-0.1,0-0.2,0-0.2,0c-0.1,0-0.3,0.3-0.5,0.4c-0.9,0.8-1.5,1.4-2.3,1.4c-0.4,0-0.8-0.2-1-0.5
								c-0.2-0.2-0.2-0.4-0.2-0.7c0-1.6,0.1-9.9,3-12.1c0.2-0.1,0.4-0.2,0.6-0.2c1.7,0,22.7,0.1,22.9,0.1c0.5,0,1,0.5,1,1
								c0,1.1-1.4,2.2-3.6,3.9c-0.7,0.6-1.7,1.3-1.9,1.6c-0.3,0.5-0.3,2-0.3,3.4c0,3.8-0.1,9.6-5.7,9.6l0,0c-0.1,0-0.3,0-0.5,0
								c-0.9-0.1-1.9-0.2-2.8-0.4c-1-0.2-2-0.4-3-0.4c-0.7,0-1.3,0.1-1.8,0.3c-1.5,0.6-1.5,0.8-1.4,2.4c0,0.6,0,1.3-0.1,2.1
								c0,0.4-0.4,0.8-0.8,0.9C201.5,127.6,201.3,127.6,201.1,127.6z"/>
							<path d="M199.7,104c1.7,0,22.9,0.1,22.9,0.1c0,1.2-5,4.1-5.4,5c-1.3,2.6,1.5,12.5-5.1,12.5c-0.1,0-0.3,0-0.4,0
								c-1.9-0.1-3.9-0.8-5.8-0.8c-0.7,0-1.5,0.1-2.2,0.4c-2.8,1.1-1.8,2.2-2.1,5.3c-0.2,0-0.3,0.1-0.5,0.1c-1.1,0-1.7-1-2.1-1.5
								c-0.5-0.7-0.6-1.6-0.7-2.4c-0.5-3.4,2.4-5.1,3-8.1c0.1-0.4-0.1-0.7-0.1-1.1c-0.3,0-0.6,0-0.9,0c-0.3,0-0.5,0-0.7,0.2
								c-0.5,0.3-1.6,1.7-2.3,1.7c-0.1,0-0.2,0-0.3-0.1C197.1,111.7,197.6,105.5,199.7,104 M199.7,102c-0.4,0-0.9,0.1-1.2,0.4
								c-3.1,2.3-3.4,9.8-3.4,12.8c0,0.5,0.2,0.9,0.5,1.3c0.4,0.5,1.1,0.8,1.8,0.8c0.2,0,0.3,0,0.5,0c-0.9,1.5-1.9,3.3-1.5,5.8
								c0.1,0.9,0.3,2.1,1,3.2c0.4,0.6,1.6,2.4,3.7,2.4c0.3,0,0.6,0,0.9-0.1c0.8-0.2,1.5-0.9,1.6-1.8s0.1-1.6,0.1-2.2
								c0-0.4,0-0.9,0-1c0.1,0,0.2-0.2,0.8-0.4c0.4-0.2,0.8-0.2,1.4-0.2c0.8,0,1.8,0.2,2.8,0.4c0.9,0.2,1.9,0.4,2.9,0.4
								c0.2,0,0.3,0,0.5,0c6.6,0,6.7-6.9,6.7-10.6c0-1,0-2.4,0.2-2.9c0.3-0.3,1.1-0.9,1.6-1.3c2.6-2,4-3.1,4-4.7c0-1.1-0.9-2-2-2
								C221.7,102.1,201.4,102,199.7,102L199.7,102z"/>
						</g>
						<g>
							<path class="st6" d="M221.5,117.9c-1,0-2.6-0.5-3.8-2.7c-2.2-3.9-2.7-11.4-1.4-13.6c0.1-0.2,0.2-0.3,0.4-0.4
								c0.7-0.3,1.3-0.7,2.1-1.1c2-1.2,4.3-2.5,6.9-2.6l0,0c0.3,0,0.6,0.1,0.8,0.3c0.2,0.2,0.3,0.5,0.2,0.8c-0.8,4.2-2,5.9-2.9,7.1
								c-1,1.3-1.4,1.8,0.8,7.3c0.4,1.1,1.8,2.1,1.8,2.1c0.3,0.2,0.5,0.6,0.4,1s-0.4,0.7-0.7,0.8c-0.1,0-3.3,0.8-4.4,1
								C221.6,117.9,221.5,117.9,221.5,117.9L221.5,117.9z"/>
							<path d="M225.7,98.5L225.7,98.5 M225.7,98.5c-1.8,9.8-6,4.8-2,14.9c0.6,1.4,2.1,2.6,2.1,2.6s-3.2,0.8-4.3,0.9l0,0
								c-4.6,0-5.8-12.4-4.4-14.8C219.7,100.9,222.5,98.7,225.7,98.5 M225.7,96.5L225.7,96.5L225.7,96.5L225.7,96.5
								C225.6,96.5,225.6,96.5,225.7,96.5c-2.9,0.1-5.3,1.5-7.4,2.7c-0.7,0.4-1.4,0.8-2,1.1c-0.3,0.2-0.6,0.4-0.8,0.8
								c-1.6,2.7-0.9,10.6,1.4,14.6c1.5,2.7,3.4,3.2,4.7,3.2l0,0c0.1,0,0.2,0,0.3,0c1.2-0.2,4.2-0.9,4.5-1c0.8-0.2,1.3-0.8,1.5-1.5
								c0.2-0.8-0.1-1.5-0.8-2c-0.4-0.3-1.2-1.1-1.4-1.7c-2-4.9-1.7-5.3-0.9-6.3c0.9-1.2,2.2-3,3-7.4c0-0.1,0.1-0.3,0.1-0.5
								C227.7,97.4,226.8,96.5,225.7,96.5L225.7,96.5L225.7,96.5L225.7,96.5z M225.7,100.5L225.7,100.5L225.7,100.5L225.7,100.5z"/>
						</g>
						<g>
							<path class="st6" d="M202,105.3c-0.2,0-0.5-0.1-0.7-0.3c-0.2-0.2-0.4-0.5-0.3-0.8l1-10.1c0.1-0.5,0.5-0.9,1-0.9l13.6-0.3
								c0.5,0,1,0.4,1,1l0.3,7.4c0,0.5-0.3,0.9-0.8,1l-14.9,3.1C202.1,105.3,202.1,105.3,202,105.3z"/>
							<path d="M216.6,93.8l0.3,7.4l-14.9,3.1l1-10.1L216.6,93.8 M216.6,91.8L216.6,91.8L203,92.1c-1,0-1.8,0.8-1.9,1.8l-1,10.1
								c-0.1,0.6,0.2,1.3,0.6,1.7c0.4,0.3,0.8,0.5,1.3,0.5c0.1,0,0.3,0,0.4,0l14.9-3.1c1-0.2,1.6-1.1,1.6-2l-0.3-7.4
								C218.5,92.7,217.7,91.8,216.6,91.8L216.6,91.8z"/>
						</g>
						<g>
							<path class="st6" d="M231.4,107.4c-0.6,0-0.8,0-0.9-0.1c-1.6-0.4-3.9-2.1-4.8-4.2c-1-2-2.5-9.1-0.1-11.1
								c0.1-0.1,0.3-0.2,0.4-0.2c0.7-0.1,1.3-0.3,2-0.3c0.4,0,0.7,0.2,0.9,0.5c0.1,0.3,0.4,0.8,0.8,1.6c1.3,2.5,3.7,7.3,5.7,10.1
								c0.4,0.6,0.5,1.8,0,2.4C234.7,107,233.3,107.4,231.4,107.4L231.4,107.4z"/>
							<path d="M228,92.6c0.6,1.1,3.9,8.1,6.6,11.8c0.2,0.2,0.2,0.9,0,1.2c-0.6,0.7-2.3,0.8-3.2,0.8c-0.4,0-0.6,0-0.6,0
								c-1.4-0.3-3.4-1.8-4.3-3.7c-1-2.1-2.1-8.5-0.4-9.9C226.7,92.7,227.3,92.6,228,92.6 M228,90.6c-0.8,0-1.5,0.1-2.2,0.3
								c-0.3,0.1-0.7,0.2-0.9,0.4c-3.1,2.6-0.8,10.8-0.1,12.3c1.2,2.4,3.7,4.2,5.6,4.7c0.2,0,0.3,0.1,1.1,0.1c2.3,0,3.8-0.5,4.7-1.6
								c0.8-1,0.7-2.7,0.1-3.6c-2-2.7-4.4-7.4-5.6-9.9c-0.4-0.8-0.7-1.4-0.9-1.7C229.3,91,228.7,90.6,228,90.6L228,90.6z"/>
						</g>
						<g>
							<path class="st6" d="M233.2,98.5c-4,0-5.4-4.4-5.4-8.6c0-0.1,0-0.2,0.1-0.3c0,0,2.2-4.7,3.6-4.7c0.5,0,1,0.4,1,0.9
								c0.1,1.1,0.9,4.4,1.3,5.6c0.3,1,0.8,1.3,1.7,1.8c0.5,0.3,1,0.6,1.6,1c0.4,0.3,0.6,0.7,0.7,1.1c0.1,0.1,0.1,0.3,0.2,0.5
								c0.2,0.3,0.2,0.6,0.1,0.9c-0.1,0.3-0.4,0.5-0.7,0.6c-0.4,0.1-0.8,0.3-1.3,0.5c-0.8,0.3-1.7,0.7-2.6,0.7H233.2z"/>
							<path d="M231.4,85.9c0.1,1.2,0.9,4.6,1.3,5.8c0.6,2.1,2,2,3.6,3.3c0.3,0.3,0.4,0.8,0.7,1.3c-1.2,0.4-2.5,1.1-3.7,1.2
								c-0.1,0-0.1,0-0.2,0c-3.4,0-4.4-4.3-4.4-7.6C229.1,89.1,231.1,85.9,231.4,85.9 M231.4,83.9c-1.2,0-1.9,0.9-3,2.6
								c-0.3,0.4-1.2,1.9-1.5,2.7c-0.1,0.2-0.1,0.5-0.1,0.7c0,5.9,2.4,9.6,6.4,9.6c0.1,0,0.2,0,0.3,0c1.1,0,2.1-0.5,3-0.8
								c0.4-0.2,0.8-0.3,1.1-0.4c0.6-0.2,1.1-0.6,1.3-1.2s0.1-1.3-0.2-1.8c0,0-0.1-0.2-0.1-0.3c-0.2-0.4-0.4-1-1-1.5
								s-1.2-0.8-1.7-1.1c-0.8-0.5-1-0.6-1.2-1.2c-0.4-1.3-1.2-4.5-1.2-5.4C233.3,84.7,232.5,83.9,231.4,83.9L231.4,83.9z"/>
						</g>
					</g>
					<g>
						<g>
							<path class="st9" d="M218.8,76.6c-0.1,0-0.3-0.1-0.4-0.2c-1.5-1.7-1.4-2.3-0.6-4.3c0.1-0.2,0.3-0.3,0.5-0.3
								c0.5,0,0.9,0.2,1.2,0.5c0.7,0.7,0.7,2,0.7,3.1v0.2c0,0.2-0.1,0.4-0.3,0.5c-0.3,0.1-0.5,0.2-0.8,0.4
								C219,76.5,218.9,76.6,218.8,76.6z"/>
							<path d="M218.3,72.3c1.5,0,1.4,2,1.4,3.3c-0.3,0.1-0.6,0.2-0.9,0.5C217.5,74.6,217.5,74.2,218.3,72.3 M218.3,71.3
								c-0.4,0-0.8,0.2-0.9,0.6c-0.9,2.2-0.9,3,0.7,4.8c0.2,0.2,0.5,0.3,0.8,0.3c0.2,0,0.4-0.1,0.6-0.2c0.2-0.2,0.4-0.2,0.7-0.3
								c0.4-0.1,0.6-0.5,0.6-0.9v-0.2c0-1.1,0-2.6-0.9-3.4C219.5,71.5,218.9,71.3,218.3,71.3L218.3,71.3z"/>
						</g>
						<g>
							<path class="st9" d="M215,75.7c-0.1,0-0.2,0-0.2-0.1c-1-0.6-2-1.1-2-3c0-0.1,0-0.2,0.1-0.3c0.6-0.6,0.9-0.6,1.6-0.6
								c0.2,0,0.4,0.1,0.5,0.3c0.3,0.9,0.7,1.8,1.1,2.7v0.1c0.1,0.2,0,0.3,0,0.5c-0.1,0.1-0.2,0.2-0.4,0.2c-0.1,0-0.2,0.1-0.3,0.2
								C215.2,75.7,215.1,75.7,215,75.7z"/>
							<path d="M214.5,72.2c0.3,0.9,0.7,1.9,1.1,2.8c-0.2,0-0.4,0.1-0.6,0.2l0,0c-1-0.6-1.7-1.1-1.7-2.6
								C213.7,72.2,213.9,72.2,214.5,72.2 M214.5,71.2c-0.7,0-1.3,0-2,0.8c-0.2,0.2-0.2,0.4-0.2,0.7c0,2.2,1.2,2.9,2.2,3.5
								c0.2,0.1,0.3,0.1,0.5,0.1s0.3,0,0.5-0.1c0.1,0,0.2-0.1,0.2-0.1c0.3,0,0.6-0.2,0.8-0.4c0.2-0.3,0.2-0.6,0.1-0.9v-0.1
								c-0.4-0.9-0.8-1.8-1-2.7C215.3,71.5,215,71.2,214.5,71.2L214.5,71.2z"/>
						</g>
						<g>
							<path class="st9" d="M220.5,70.3c-0.1,0-0.3-0.1-0.4-0.2c-0.1-0.1-0.3-0.3-0.4-0.4c-0.7-0.7-1.7-1.7-0.9-3.2
								c0.1-0.2,0.3-0.3,0.4-0.3c0.5,0,1.2,0,1.8,0.1c0.2,0,0.4,0.2,0.4,0.4c0.1,1,0.2,1.9,0.4,2.9c0,0.1,0,0.3-0.1,0.4
								s-0.2,0.2-0.4,0.2L220.5,70.3L220.5,70.3z"/>
							<path d="M219.3,66.8c0.5,0,1.1,0,1.7,0.1c0.1,0.9,0.2,1.9,0.4,2.9h-0.9C219.8,69,218.5,68.2,219.3,66.8 M219.3,65.8
								c-0.4,0-0.7,0.2-0.9,0.5c-1,1.8,0.2,3.1,0.9,3.8c0.1,0.1,0.3,0.3,0.4,0.4c0.2,0.2,0.5,0.3,0.8,0.3h0.9c0.3,0,0.6-0.1,0.8-0.4
								c0.2-0.2,0.3-0.5,0.2-0.8c-0.2-1-0.3-1.9-0.4-2.9c0-0.4-0.4-0.8-0.8-0.9C220.5,65.8,219.8,65.8,219.3,65.8L219.3,65.8z"/>
						</g>
						<g>
							<path class="st9" d="M214.3,69.5c-0.2,0-0.5-0.2-0.5-0.4c-0.1-0.7-0.1-1.4-0.1-2c0-0.3,0.2-0.5,0.5-0.5c0.7,0,1.5,0,2.2,0.1
								c0.1,0,0.2,0.1,0.3,0.2s0.1,0.2,0.1,0.4C216.7,68.5,215.8,69.3,214.3,69.5C214.4,69.5,214.4,69.5,214.3,69.5z"/>
							<path d="M214.2,67.1c0.7,0,1.4,0,2.1,0.1c-0.2,1.2-1.1,1.7-2,1.8l0,0C214.2,68.3,214.2,67.7,214.2,67.1 M214.2,66.1
								c-0.6,0-1,0.4-1,1s0,1.3,0.1,2c0.1,0.5,0.5,0.9,1,0.9h0.1c1.6-0.2,2.6-1.1,2.9-2.6c0-0.3,0-0.5-0.2-0.7s-0.4-0.4-0.7-0.4
								C215.7,66.1,215,66.1,214.2,66.1L214.2,66.1z"/>
						</g>
					</g>
					<g>
						<path class="st6" d="M190.5,118.5c-0.1,0-0.2,0-0.3-0.1c-0.2-0.1-0.3-0.2-0.4-0.3l0,0c-0.4-0.5-0.8-1-1.1-1.5
							c-0.1-0.1-0.1-0.2-0.1-0.4c-0.9-5,0.3-8.5,2.6-11.2c-0.9,0.3-1.9,0.4-2.8,0.6c-1.2,0.2-2.3,0.4-3.2,0.8c-1,0.4-1.8,1.1-2.7,2
							l-0.4,0.4c-0.2,0.2-0.4,0.3-0.7,0.3h-0.7c-0.6,0-1-0.4-1-1c0-2.6,1.5-4.8,4-5.8c-0.3,0-0.5,0-0.8,0.1c-0.7,0-1.4,0.1-2.1,0.1
							c-0.5,0-1,0-1.5-0.1c-3.5-0.4-6.5-2.4-8.4-5.7c0-0.1-3.2-5.9-1.9-8.1c0.3-0.6,0.9-0.9,1.6-0.9c0.4,0,0.7,0.2,0.9,0.6
							c0.2,0.5,0.4,1,0.7,1.5c1,2.3,2,4.4,3.8,5.8l0.1,0.1c0.7,0.5,1.4,1.1,2.3,1.5c0.7,0.3,1.3,0.6,2,0.7c0.3,0.1,0.8,0.1,1.4,0.1
							c0.6,0,1.3,0,1.6-0.1c1.8-0.3,3.4-1.3,4.6-2.2l0,0c-3.1-0.1-7.6-0.3-8.8-4.8c-0.2-0.6,0-1.1,0.1-1.4c0-0.1,0-0.1,0.1-0.2
							c0.1-0.4,0.5-0.7,1-0.7c0.1,0,0.1,0,0.2,0c0.5,0.1,0.9,0.2,1.4,0.3c0.8,0.2,1.7,0.4,2.5,0.4c0.1,0,0.2,0,0.3,0
							c1.5-0.1,3.2-0.5,4.9-1.3c0.9-0.4,1.8-1.4,2.7-2.4c0.7-0.7,1.3-1.4,2.1-2c-0.2,0-0.4-0.1-0.6-0.1c-1.6-0.5-2.7-1.8-3.2-2.9
							c-1.2-2.6,0.2-3.8,1.3-4.7c0.4-0.3,0.8-0.7,1.1-1.1c0.2-0.2,0.5-0.3,0.8-0.3s0.5,0.1,0.7,0.3c0.3,0.3,0.3,0.7,0.3,0.9
							c0,0.4-0.1,1.7,0.8,2.6c0.8,0.9,2.3,1.3,4.3,1.3c0.7,0,1.4,0,2.2-0.1c0.1,0,0.2,0,0.3,0c1.4,0,2.4,1.1,3.2,2
							c0.3,0.4,0.6,0.7,0.9,0.9c0.1,0.1,0.3,0.2,0.4,0.3c0.2,0.1,0.5,0.3,0.8,0.6c0.1,0.1,0.2,0.2,0.3,0.3l0,0
							c1.1,0,2.2,0.1,3.4,0.2c1.1,0.1,2.3,0.2,3.4,0.2c1.6,0,2.9-0.2,3.9-0.6c1.1-0.5,2.7-2,3.5-3.3c-0.1,0-0.1,0-0.2,0
							c-2.1,0.1-4.2,0.2-6.2,0.3c-0.2,0.3-0.5,0.5-0.9,0.5c-1,0-2-0.5-2.6-1.3c-0.8-0.9-1.1-2.3-0.8-3.6c0-0.2,0.1-0.3,0.2-0.5
							c0.3-0.4,0.6-0.5,0.9-0.7c0.2-0.1,0.3-0.1,0.5-0.1c0.1,0,0.1,0,0.2,0c0.4,0.1,0.8,0.2,1.3,0.3c1.9,0.4,3.9,0.9,5.8,0.9
							c0.8,0,1.5-0.1,2.1-0.2c0.4-1.2,0.3-2.4,0.3-3.9c0-0.5,0-1,0-1.5c0-0.1,0-0.2,0-0.3c0.4-1.4,0.8-1.9,1.4-2.6
							c-1.1-0.4-1.9-0.8-2.5-2c-0.2,0.1-0.3,0.2-0.5,0.2c-1.4,0.7-2.8,1.3-4.2,1.3c-1.7,0-2.9-0.9-3.7-2.8c-0.1-0.1-0.1-0.3-0.1-0.4
							c0-1,0.1-1.9,0.2-2.9c0-0.3,0.2-0.6,0.5-0.8c0.7-0.4,1.4-0.6,2.1-0.7c-1.7-0.6-3.5-1.5-3.1-3.1c0.1-0.4,0.5-0.7,1-0.7
							s1.1,0,1.6,0s1,0,1.5,0c0.7,0,1.3,0,1.8-0.1c0.5-0.5,1.4-1.4,2.2-2.3c1-1.1,2-2.1,2.6-2.6c0.1-0.1,0.2-0.2,0.4-0.2
							c0.1,0,0.2,0,0.3,0c1,0,16.6,7.5,16.6,12.3c0,0.3-0.2,0.6-0.4,0.8c-0.3,0.2-1.6,1.9-2.5,3c-1,1.2-1.6,2-2.1,2.5l0,0
							c0.1,0,0.2-0.1,0.3-0.1c1.9-1.7,3.6-2.8,6.1-2.8c0.3,0,0.5,0.1,0.7,0.3c0.2,0.2,0.3,0.5,0.3,0.8c-0.1,1.2-0.2,2.6-0.2,4.1v0.1
							c-0.3,2.8-1.5,4.1-3.5,5.4c-0.1,0.1-0.3,0.1-0.4,0.2c-0.8,0.1-1.5,0.3-2.3,0.5c0.3,0.2,0.5,0.4,0.7,0.7c0.9,1.4,0.7,3,0.5,4.4
							c-0.1,1-0.2,1.9-0.1,2.7c0.1,0.3,0.2,0.4,0.6,0.7c0.4,0.4,1,0.9,1.3,1.9c0.1,0.3,0,0.6-0.2,0.8S239,89,238.6,89h-2.2
							c-0.2,0-0.5-0.1-0.7-0.2c-1.4-1.2-2.5-3.1-3.3-4.6c-0.1,0.4-0.3,0.8-0.7,1.2c-0.3,0.4-0.6,0.7-0.9,1c0.1,0.1,0.2,0.1,0.2,0.2
							c0.2,0.2,0.3,0.5,0.2,0.8c-0.4,2.1-1.4,2.9-2.4,3.5c-0.5,0.4-0.9,0.7-1.4,1.3c-0.7,0.9-2.6,1.6-3.4,1.6
							c-0.3,0-0.6-0.2-0.8-0.4c0.1,0.5,0.2,0.9,0.3,1.1s0.3,0.5,0.6,0.7c0.5,0.5,1.1,1.1,1.2,2c0.1,0.8-0.2,1.8-0.8,2.6
							c-0.9,1.1-3.9,3-5,3.6c-0.1,0.1-0.3,0.1-0.5,0.1s-0.4,0-0.5-0.1l-0.1-0.1c-0.1,0.4-0.2,0.7-0.3,1s-0.3,0.5-0.6,0.5
							c-2.2,0.8-9.8,8.9-10.1,10.9c-0.1,0.5-0.5,0.8-1,0.8c-0.6,0-1.2-0.3-1.6-0.7c-1.5-1.6-1.7-5.6-1.7-6.6c0.2-4.8,2-5.6,5.1-6.4
							c0.7-0.2,1.5-0.4,2.4-0.7c0.6-0.2,1.3-0.4,1.9-0.5c1.3-0.3,2.5-0.6,3-1.4c0.2-0.3,0.3-0.7,0.4-1.1V99c0.2-1,0.3-1.5,0.4-1.9
							c0.1-0.6,0.2-0.9,0.3-1.2h-0.2c-0.9,0.3-1.9,0.6-2.8,0.6c-0.8,0-1.4-0.2-1.9-0.6c-0.6-0.5-0.7-1.1-0.7-1.6
							c-0.8,0.4-1.6,0.5-2.3,0.5c-0.4,0-0.8,0.1-1.2,0.2c0.1,0.1,0.2,0.1,0.3,0.2c0.3,0.4,0.3,0.9-0.1,1.2c-0.7,0.8-2.4,3-2.9,4
							c-0.5,0.8-0.8,1.8-1,2.6c-0.2,0.8-0.4,1.6-0.5,2.3c0,0.3-0.2,0.6-0.4,0.7c-1.1,0.7-2.1,1.3-3.1,1.8c-2.9,1.6-5.2,2.9-7,6.3
							c-0.3,0.9-0.6,2-0.8,3.2c-0.1,0.5-0.5,0.8-0.9,0.8c-0.1,0-0.1,0.1-0.2,0.1C190.8,118.4,190.6,118.5,190.5,118.5z M197.4,92.7
							c0,0.1,0,0.3,0,0.5c0.2,0.6,0.7,1,1.4,1.3C198.1,94.1,197.6,93.6,197.4,92.7L197.4,92.7z M222.6,89.9c0.1,0.1,0.2,0.2,0.2,0.3
							c0-0.2,0-0.4,0.1-0.6C222.8,89.7,222.7,89.8,222.6,89.9z M205.6,86.6c-0.3,0.3-0.5,0.6-0.5,0.7s0.1,0.2,0.4,0.4
							c0.7,0.5,1,0.7,1.5,0.9c-1-0.6-1.3-1.4-1.3-1.8C205.6,86.8,205.6,86.7,205.6,86.6z M230.5,63l-0.1-0.1V63l0,0
							C230.5,63,230.5,63,230.5,63z M229.4,61.6c0.2,0,0.3,0,0.5,0.1c-0.1-0.3-0.1-0.5-0.1-0.8c0-0.5-0.1-1-0.3-1.7
							c0-0.1-0.1-0.2-0.1-0.3c-0.1,0.1-0.3,0.1-0.5,0.1c-0.1,0-0.2,0-0.3-0.1c-0.5-0.2-0.9-0.3-1.2-0.3c-0.2,0-0.5,0-0.9,0.4
							s-0.5,0.8-0.4,1.1c0,0.4,0.2,0.8,0.5,0.9c0.5,0.3,1.3,0.6,2.1,0.6c0.2,0,0.4,0,0.5-0.1C229.3,61.6,229.3,61.6,229.4,61.6z"/>
						<path d="M224,51.3c0.6,0,15.6,7.2,15.6,11.3c-0.7,0.5-4.2,5.2-5,5.8c-0.1,0.3-0.1,0.8-0.1,1.3c0.2,0.1,0.4,0.2,0.7,0.5
							c0.3-0.2,0.7-0.3,1.1-0.5c1.7-1.7,3.3-2.7,5.6-2.7c-0.1,1.3-0.2,2.7-0.2,4.1c-0.3,2.5-1.3,3.5-3,4.7c-1.4,0.2-2.7,0.6-4.1,0.9
							c-0.1,0.2-0.1,0.5-0.1,0.8c0.6,0.2,1.5,0.3,1.9,0.9c1.2,1.9-0.2,4.5,0.3,6.8c0.3,1.3,1.5,1.3,1.8,2.6h-2.2
							c-2-1.8-3.7-5.8-4.2-6c-0.7,0.8-0.4,1.8-1.2,2.7c-0.7,0.8-1.4,1.5-1.9,1.5c-0.4,0-0.7-0.5-0.7-1.7c0.1-0.6,0.7-1.4,1-1.8
							c-0.2-0.1-0.4-0.2-0.6-0.2c-1.6,2-1.8,3.8-0.9,4.6c0.2,0.2,0.4,0.2,0.6,0.2c0.4,0,0.9-0.2,1.8-0.2c-0.5,2.7-2.1,2.5-3.6,4.4
							c-0.5,0.6-2,1.2-2.6,1.2c-1.2-2.3,1-7,1-7.7c-1.4,0-1.2,1.7-2,2.7c-0.6,0.7-1.2,1.6-2,2c-0.7,0.3-1.5,0.7-2.3,0.7
							c-0.3,0-0.6-0.1-0.9-0.3c-0.5-0.4-0.3-1.6-0.3-2.2c-1.3,0.7-1.8,2.5-0.4,3.3c0.4,0.2,0.9,0.3,1.4,0.3c1.1,0,2.3-0.5,3.4-1
							c0.2,0.9,0.3,3.1,0.7,4.1c0.4,0.9,1.6,1.5,1.7,2.5c0.1,0.6-0.2,1.3-0.6,1.8c-0.7,0.9-3.6,2.7-4.7,3.3c0-2,0.7-4,1.2-5.2
							c0.1-0.3,0.9-1.1,0.9-1.3c-0.2,0-0.3,0-0.4,0c-3,0-2.5,5.7-3.5,7.9c-2.3,0.8-10.4,9.2-10.8,11.7c-1.9,0-2.4-4.8-2.3-6.3
							c0.2-5.5,2.5-4.7,6.8-6.3c1.9-0.7,4.4-0.6,5.5-2.3c0.3-0.5,0.4-1,0.5-1.5c0.7-3.6,0.1-2.1,1.5-4.3c0.3-0.4,0.5-0.8,0.7-1.2
							c-1.1,0-1.5,0.9-2.5,1.2c-0.9,0.3-1.9,0.6-2.8,0.6c-0.5,0-1-0.1-1.3-0.4c-0.4-0.3-0.2-0.8-0.2-1.2c0.9-0.9,1.8-1.8,2.7-2.6
							v-0.9c-1.6,0-2.4,1.7-3.9,2.8c-1.4,1-2.6,0.4-4.2,1.1c0,0-2.4,0.8-3.7,0.8c-0.2,0-0.4,0-0.6-0.1c-1.3-0.6-4-0.9-4.2-2.3
							c-0.2-1.3,4.2-2.5,4.3-2.7c0,0-0.1,0-0.3,0c-1.4,0-7,0.9-5.9,3.7c0.8,2.2,3.3,2.2,5.5,3.1c0.3,0.1,0.7,0.2,1.1,0.2
							c1.1,0,2.3-0.4,3.8-1c-0.7,0.8-2.4,3.1-3,4.2c-0.5,0.9-0.8,1.9-1.1,2.8c-0.2,0.8-0.4,1.7-0.5,2.5c-4.2,2.7-7.8,3.5-10.5,8.6
							c-0.3,1.1-0.6,2.2-0.8,3.4c-0.2,0-0.4,0.1-0.6,0.2l0,0c-0.4-0.5-0.7-0.9-1-1.4c-1.7-9.3,4.4-13,10.6-15.7
							c0-0.7,0.5-1.5,0.6-2.1c-2.2,2.4-3.5,1.4-6.2,4c-2.5,2.4-6.7,2.2-9.7,3.3c-1.4,0.5-2.3,1.5-3.5,2.6h-0.7c0-2.7,1.8-4.5,4-5.1
							c0.4-0.5,0.3-1.2,0.2-1.8c-1.4,0-2.8,0.2-4.1,0.2c-0.4,0-0.9,0-1.3-0.1c-3.2-0.4-5.9-2.2-7.6-5.2c-0.3-0.4-3.7-7.4-1.2-7.4
							c1.3,2.8,2.3,5.8,4.8,7.7c0.8,0.6,1.6,1.2,2.5,1.7c0.7,0.3,1.4,0.6,2.2,0.8c0.4,0.1,1,0.1,1.6,0.1c0.7,0,1.4,0,1.8-0.1
							c2.8-0.5,5.2-2.5,6.4-3.5c1.8-1.5,5.6-4.6,5.6-5c-2.1,0.9-4.1,1.9-5.6,3.4c-0.5,0.5-1.4,0.9-1.9,0.9c0,0,0,0-0.1,0
							c-3.1-0.1-6.8-0.4-7.8-4.1c-0.1-0.3,0.1-0.7,0.2-1.1c1.3,0.2,2.7,0.7,4.1,0.7c0.1,0,0.2,0,0.3,0c1.8-0.1,3.6-0.6,5.3-1.4
							c2.5-1.1,4-4.7,6.7-5.4c0.3-0.1,0.6-0.1,1-0.1c1.2,0,2.4,0.4,3.7,0.4c0-0.3-2.9-1.5-4.5-1.5h-0.1c-0.7,0-1.4,0.3-2.1,0.3
							c-0.2,0-0.4,0-0.5-0.1c-1.2-0.4-2.1-1.4-2.5-2.4c-1.2-2.6,0.7-2.9,2.2-4.7c0.1,0-1,5.1,6.1,5.1c0.7,0,1.5,0,2.3-0.2
							c0.1,0,0.1,0,0.2,0c1.4,0,2.4,1.8,3.6,2.7c0.4,0.3,0.8,0.5,1.2,0.8c-0.6,1.2-4.6,2.8-2.2,4.7c1.5,1.2,1.9,1.1,4,1.5
							c0,0,0.1,0,0.2,0c1.2,0,7-1,4.7-2.3c-0.9,0.1-1.8,0.5-2.6,0.6c-0.3,0-0.7,0-1,0c-0.7,0-1.4-0.1-2-0.3
							c-2.1-0.8-1.8-2.4-0.1-3.7c2.1,0,4.5,0.4,6.7,0.4c1.5,0,3-0.2,4.3-0.7c1.7-0.7,4.1-3.3,4.5-5c-0.6-0.1-1.1-0.2-1.6-0.2
							c-2.3,0.1-4.7,0.2-6.9,0.4c-0.1,0.1-0.2,0.2-0.2,0.5c-1.6,0-2.8-1.7-2.4-3.7c0.2-0.2,0.4-0.4,0.6-0.5c2.3,0.5,4.8,1.2,7.3,1.2
							c1,0,1.9-0.1,2.9-0.4c0.8-2,0.5-3.9,0.5-6.3c0.4-1.5,0.8-1.8,1.6-2.7c-0.1-0.4-0.2-0.6-0.2-0.8c-1.6-0.6-2.2-0.7-2.9-2.4
							c-0.2-0.1-0.4-0.1-0.5-0.1c-1.5,0.7-3.3,1.7-4.8,1.7c-1.1,0-2.1-0.6-2.8-2.2c0-0.9,0.1-1.9,0.2-2.8c1-0.6,2.2-0.6,3.5-0.7V59
							c-0.7-0.3-4.4-1.3-4.1-2.5c1,0,2.1,0.1,3.1,0.1c0.8,0,1.5,0,2.3-0.2C220.1,55.5,222.9,52.3,224,51.3L224,51.3 M222.5,58.7
							c0.3,0,0.6,0,1-0.1c0.6-0.7,2.1-1.6,3.5-1.6c0.8,0,1.5,0.3,2,1c-0.5-0.2-1-0.4-1.6-0.4c-0.5,0-1,0.2-1.6,0.6
							c-1.3,1.1-0.9,3,0.2,3.6c0.7,0.4,1.7,0.8,2.7,0.8c0.3,0,0.5,0,0.8-0.1c-0.2,1-1.1,1.4-2.1,1.4c-1.3,0-2.7-0.7-3.4-2
							c-0.4-0.8-0.4-2.5-0.6-2.6c-0.1,0.6,0.1,3.2,0.1,3.8c0.8,1.2,2.3,1.8,3.7,1.8c1.2,0,2.4-0.4,3.3-1.1l2.2,0.3
							c0-0.4,0-0.7,0.1-1.1c-2.4-1.1-1.6-1.6-2.2-4.2c-0.2-0.9-0.9-2.2-1.7-2.7c-0.5-0.3-1.5-0.5-2.3-0.5c-0.3,0-0.6,0-0.8,0.1
							c-1.4,0.5-2.8,0.9-4.3,1.3C221.5,58.4,221.8,58.7,222.5,58.7 M242,67L242,67 M224,49.3L224,49.3c-0.2,0-0.4,0-0.6,0.1
							c-0.3,0.1-0.5,0.2-0.7,0.4c-0.7,0.6-1.6,1.6-2.7,2.7c-0.7,0.7-1.4,1.5-1.9,2c-0.4,0-0.8,0.1-1.3,0.1s-1,0-1.5,0s-1.1,0-1.7,0
							c-0.9,0-1.7,0.6-1.9,1.5c-0.4,1.4,0.4,2.4,1.5,3.2c-0.5,0.3-0.9,0.9-0.9,1.5c-0.1,1-0.2,2-0.2,3.1c0,0.3,0.1,0.5,0.2,0.8
							c1.2,2.8,3.2,3.4,4.6,3.4c1.5,0,3-0.7,4.3-1.3c0.4,0.5,0.8,0.9,1.3,1.1c-0.3,0.5-0.5,1.1-0.8,1.9c0,0.2-0.1,0.3-0.1,0.5
							c0,0.5,0,1.1,0,1.6c0,1.1,0.1,2.1-0.1,3c-0.4,0.1-0.8,0.1-1.3,0.1c-1.8,0-3.7-0.4-5.6-0.9c-0.4-0.1-0.9-0.2-1.3-0.3
							c-0.1,0-0.3,0-0.4,0c-0.3,0-0.7,0.1-1,0.3c-0.2,0.1-0.7,0.4-1.1,0.9c-0.2,0.3-0.4,0.6-0.4,0.9c-0.3,1.6,0,3.2,1,4.4
							c0.8,1,2.1,1.6,3.4,1.6c0.5,0,1-0.2,1.4-0.5c1.2-0.1,2.5-0.1,3.8-0.2c-0.6,0.6-1.2,1-1.7,1.2c-0.9,0.4-2,0.6-3.5,0.6
							c-1.1,0-2.2-0.1-3.3-0.2c-1-0.1-2-0.2-2.9-0.2l-0.1-0.1c-0.4-0.3-0.7-0.5-1-0.7c-0.1-0.1-0.2-0.1-0.3-0.2
							c-0.2-0.2-0.5-0.5-0.8-0.8c-0.9-1-2.1-2.3-4-2.3c-0.2,0-0.3,0-0.5,0c-0.7,0.1-1.4,0.1-2.1,0.1c-1.7,0-3-0.3-3.6-1
							c-0.6-0.6-0.5-1.5-0.5-1.9c0-0.3,0.1-1-0.5-1.6c-0.4-0.4-0.9-0.6-1.5-0.6s-1.1,0.3-1.5,0.7c-0.3,0.4-0.6,0.6-1,1
							c-1.1,1-3,2.6-1.5,5.9c0.6,1.3,1.6,2.4,2.7,3c-0.3,0.3-0.6,0.6-0.9,1c-0.8,0.9-1.6,1.8-2.4,2.1c-1.6,0.7-3.2,1.2-4.6,1.2
							c-0.1,0-0.1,0-0.2,0c-0.7,0-1.5-0.2-2.3-0.4c-0.5-0.1-1-0.2-1.5-0.3c-0.1,0-0.2,0-0.3,0c-0.9,0-1.7,0.6-1.9,1.4
							c0,0.1,0,0.1-0.1,0.2c-0.1,0.4-0.4,1.1-0.2,2c1,3.7,4,4.9,6.7,5.3c-0.5,0.2-1.1,0.4-1.6,0.5c-0.3,0-0.8,0.1-1.5,0.1
							c-0.6,0-1.1,0-1.2-0.1c-0.6-0.1-1.1-0.4-1.8-0.7c-0.8-0.4-1.4-0.8-2.1-1.4l-0.1-0.1c-1.6-1.2-2.5-3.3-3.5-5.4
							c-0.2-0.5-0.4-1-0.7-1.5c-0.3-0.7-1-1.2-1.8-1.2c-1.1,0-1.9,0.5-2.4,1.4c-1.6,2.8,1.9,9,1.9,9.1c2.1,3.5,5.3,5.7,9.1,6.2
							c0.4,0,0.8,0.1,1.2,0.1c-1.1,1.3-1.7,2.9-1.7,4.7c0,1.1,0.9,2,2,2h0.7c0.5,0,1-0.2,1.4-0.5l0.4-0.4c0.8-0.8,1.5-1.5,2.3-1.8
							c0.9-0.3,2-0.5,3.1-0.7c0.1,0,0.2,0,0.3-0.1c-1.4,2.5-2,5.7-1.3,9.8c0,0.3,0.1,0.5,0.3,0.7c0.3,0.5,0.7,1.1,1.2,1.6
							c0.2,0.3,0.6,0.5,0.9,0.6c0.2,0.1,0.4,0.1,0.6,0.1c0.3,0,0.7-0.1,1-0.3l0,0c0.8-0.2,1.4-0.8,1.6-1.6c0.2-1.1,0.5-2.2,0.7-3
							c1.7-3.1,3.8-4.3,6.5-5.8c0.6-0.3,1.2-0.7,1.9-1.1c-0.1,0.5-0.1,1-0.1,1.5c0,0.1-0.1,5.1,2,7.3c0.7,0.7,1.5,1,2.3,1
							c1,0,1.8-0.7,2-1.7c0.5-1.8,7.5-9.4,9.5-10.1c0.5-0.2,0.9-0.6,1.2-1.1c0-0.1,0.1-0.1,0.1-0.2c0.3,0,0.6-0.1,0.9-0.2
							c0.8-0.4,4.2-2.5,5.3-3.8c0.8-1,1.2-2.2,1-3.4c-0.2-1.1-0.8-1.9-1.4-2.4c1.1-0.3,2.6-0.9,3.3-1.8c0.3-0.4,0.7-0.7,1.2-1.1
							c1-0.7,2.3-1.7,2.8-4.2c0.1-0.4,0-0.8-0.1-1.1c0.1-0.1,0.2-0.2,0.3-0.3c0.7,1.2,1.6,2.5,2.7,3.4c0.4,0.3,0.8,0.5,1.3,0.5h2.2
							c0.6,0,1.2-0.3,1.6-0.8c0.4-0.5,0.5-1.1,0.4-1.7c-0.3-1.3-1.1-2-1.6-2.4c-0.1-0.1-0.2-0.2-0.3-0.2c-0.1-0.6,0-1.5,0.1-2.3
							c0.2-1.4,0.4-3.1-0.4-4.7c0.2,0,0.4-0.1,0.6-0.1c0.3,0,0.6-0.2,0.8-0.3c2.1-1.5,3.5-3,3.9-6.1c0-0.1,0-0.2,0-0.2
							c0-1.3,0.1-2.5,0.2-3.9c0-0.1,0-0.2,0-0.3c0-1.1-0.9-2-2-2l0,0c-0.8,0-1.4,0.1-2.1,0.2c0.4-0.5,0.7-0.9,0.9-1
							c0.5-0.4,0.8-1,0.8-1.6c0-1.6-0.9-4.3-8.5-8.9C232,53,225.5,49.3,224,49.3L224,49.3z M227.1,60.2c0,0-0.1-0.1-0.1-0.2
							c0-0.1,0-0.1,0.1-0.2c0.2-0.1,0.2-0.1,0.3-0.1c0.2,0,0.6,0.2,0.9,0.2c0.1,0,0.3,0.1,0.4,0.1c0,0.2,0.1,0.5,0.1,0.7h-0.1
							C228.2,60.7,227.6,60.5,227.1,60.2L227.1,60.2z M209,95.7c0.4,0,0.8-0.1,1.3-0.2c0.2,0.4,0.4,0.7,0.8,1
							c0.7,0.5,1.5,0.8,2.5,0.8c0.5,0,1.1-0.1,1.6-0.2c-0.1,0.4-0.2,0.9-0.3,1.5v0.1c-0.1,0.4-0.1,0.6-0.2,0.8
							c-0.3,0.5-1.4,0.7-2.4,1c-0.7,0.2-1.4,0.3-2.1,0.6c-0.8,0.3-1.6,0.5-2.3,0.7c-1.1,0.3-2.1,0.6-3,1.1c0.2-0.7,0.5-1.4,0.8-2
							c0.5-0.9,2.2-3.1,2.8-3.9C208.8,96.7,209,96.2,209,95.7L209,95.7z"/>
					</g>
					<path class="st10" d="M249.7,59.7c3.6-1.4,1.4-7.4-2.4-3.8c3.4-7.3-2.8-8-2.5-4.3c0.2,3.6-2.2,3.1-3.7,3.7
						c-2.5,0.9-5.4,0.4-4.4-3.7c0.3-1.4,0.5-4.7,2.5-3.6c3.6,2,3.9-4.2,0.1-4.2c3-5.9-1.9-9.1-3.3-1.7c-3.4-3.3-4.2,1.8-2.1,3.2
						c1.8,1.2,0.1,2.3-0.9,3.7c-3.2,4.5-6.6,0.2-6.4-4.8c4.2,0.3,2.1-8.5-1.7-5.2c-0.8-5.8-4.9-4.6-3.8,0.9c1.7,6.1,2,6.4,1.2,11.4
						c8.2,2.5,11.8,7.3,17.5,13.4C243.5,61.5,245.9,61.4,249.7,59.7L249.7,59.7z"/>
				</g>
			</g>
			<g>
				<g>
					<path class="st11" d="M52.3,299.6v-1c0,0,0.2-103.2,0.3-160.9c-0.4,0.6-1,1.2-1.9,1.5c-0.3,0.1-0.6,0.2-1.1,0.2
						c-0.1,0-0.2,0-0.3,0h-0.1c-2.2,0-4-0.9-5-2.4c-0.9-1.3-1.5-3.7,0.2-7.6c2.2-4.9,1.5-6.2,0.7-7.8l-0.1-0.3
						c-0.3-0.5-0.8-0.8-1.3-0.8c-0.2,0-0.3,0-0.3,0l-2.4,0.7l1.3-2.2c0-0.1,1-1.6,3-2.3c0.6-0.2,1.1-0.3,1.7-0.3
						c0.6,0,1.3,0.1,1.9,0.4c2,0.6,3.1,2.1,3.7,3.8c0-4.8,0-9,0-12.3l-0.1,0.1c-0.6,1-1.3,2.4-2.9,2.7c-0.2,0-0.5,0.1-0.8,0.1
						c-0.2,0-0.4,0-0.5-0.1c-2.2-0.2-3.9-1.3-4.7-2.9c-1.1-2-0.7-4.7,0.9-7.6c2.7-4.7,2.1-6,1.5-7.7l-0.1-0.3c-0.3-0.6-0.8-1-1.4-1
						c-0.1,0-0.1,0-0.2,0L41.8,92l1.5-2c0-0.1,1.2-1.5,3.3-1.9C47,88,47.4,88,47.8,88c0.8,0,1.6,0.2,2.4,0.6c2.2,1,3,2.9,3.4,4.8
						c1-4.8,2.7-9.1,5.2-12.9c-0.7,0-1.4,0.3-2.1,0.7c-0.8,0.4-1.6,0.8-2.6,0.8c-0.5,0-0.9-0.1-1.4-0.3c-0.3-0.1-0.8-0.3-1.1-0.8
						c-1.6-1.4-2.4-3.3-2.2-5.1c0.3-2.2,2.2-4.2,5.2-5.6c4.9-2.2,5.3-3.6,5.7-5.4l0.1-0.3c0.2-1.2-0.5-1.6-0.7-1.7l-2.3-1.1l2.4-0.7
						c0.1,0,0.6-0.2,1.4-0.2c0.8,0,1.6,0.2,2.4,0.5c1.2,0.5,2.1,1.3,2.6,2.5c1.8,3.1-0.1,6.2-1.5,8.4c-0.5,0.7-1.2,1.9-1.1,2.2
						c0,0,0,0,0,0.1c4.5-4.1,10-7.1,16.6-8.8c-0.5-0.6-1.3-0.9-2.3-1.2c-1.1-0.3-2.6-0.8-3.2-2.3c-0.1-0.3-0.3-0.8-0.3-1.3
						c-0.2-1.8,0.3-3.5,1.3-4.7s2.6-1.8,4.5-1.8c1.1,0,2.4,0.2,3.7,0.7c2,0.7,3.6,1,4.8,1c1.4,0,2.1-0.4,3.1-1l0.3-0.2
						c1-0.8,0.7-1.7,0.7-1.7l-1.1-2.5l2.4,1.2c0.1,0,1.7,0.8,2.5,2.8c0.5,1.2,0.6,2.4,0.2,3.6c-0.8,3.5-4.3,4.5-6.8,5.2
						c-0.8,0.2-2.1,0.6-2.3,0.9c1.8-0.2,3.6-0.3,5.3-0.3c3.7,0,7.3,0.7,10.6,2.2c0-0.7-0.2-1.3-0.5-2c-0.4-1.1-0.9-2.5-0.1-4
						c0.2-0.3,0.4-0.7,0.9-1.1c1.2-1.2,2.7-1.8,4.1-1.8c2.7,0,5,2.2,6.3,5.9c1.7,5.1,3.1,5.6,4.8,6.2l0.3,0.1c0.2,0,0.4,0.1,0.6,0.1
						c0.8,0,1.1-0.5,1.2-0.6l1.3-2.2l0.5,2.5c0,0.1,0.3,1.9-0.7,3.7c-0.7,1.1-1.5,1.9-2.7,2.4c-0.6,0.3-1.3,0.4-2,0.4
						c-0.8,0-1.7-0.2-2.5-0.5c2.2,2.9,4.1,6.3,5.5,9.9c0.6-0.5,0.8-1.2,1.1-2.2c0.3-1.1,0.7-2.6,2.3-3.2c0.3-0.1,0.8-0.3,1.3-0.3
						l0,0c0.3,0,0.6,0,0.9,0c1.9,0,3.5,0.8,4.5,2.1c0.9,1.2,1.7,3.5,0.5,7.4c-1.6,5.1-0.9,6.3,0.1,7.8l0.2,0.3
						c0.3,0.4,0.8,0.7,1.3,0.7c0.3,0,0.4-0.1,0.4-0.1l2.4-0.9l-1.1,2.3c0,0.1-0.8,1.7-2.8,2.6c-0.7,0.3-1.4,0.5-2.2,0.5
						c-0.5,0-1-0.1-1.4-0.2c-3.2-0.7-4.3-3.6-5.1-6.1c0,0.4,0,0.7,0,1.1c0,2.4-0.2,5.9-1.2,9.6c0.4-0.2,0.8-0.5,1.2-0.7
						c0.8-0.5,1.7-1.2,2.9-1.2c0.3,0,0.6,0,1,0.1c0.3,0.1,0.8,0.2,1.2,0.6c1.8,1.2,2.8,2.9,2.8,4.8c0,2.3-1.6,4.5-4.4,6.3
						c-4.5,2.9-4.7,4.3-4.9,6.1v0.3c-0.1,1.3,0.9,1.6,0.9,1.6l2.6,0.8l-2.5,1.1c-0.1,0-0.9,0.4-2.1,0.4c-0.6,0-1.1-0.1-1.6-0.2
						c-1.3-0.4-2.2-1.1-2.9-2.1c-1.4-1.8-1.3-3.8-0.8-5.6c-2.2,2.1-4.8,3.7-7.8,4.9c0.4,0.2,0.8,0.3,1.3,0.5c1,0.3,2.2,0.6,2.9,1.9
						c0.1,0.3,0.3,0.7,0.3,1.1c0.2,1.6-0.1,3.1-1,4.1c-0.6,0.7-1.9,1.6-4,1.6c-0.9,0-1.8-0.2-2.9-0.4c-1.6-0.5-2.8-0.7-3.7-0.7
						c-1.3,0-1.8,0.4-2.6,0.9l-0.2,0.1c-0.7,0.6-0.4,1.2-0.4,1.2l1.2,2.4l-2.5-1.1c-0.2-0.1-1.5-0.7-2.3-2.3c-0.5-1-0.6-2-0.3-3.1
						c0.5-2.7,2.9-3.8,4.9-4.4c-0.8,0-1.5,0.1-2.3,0.1c-5.4,0-9.5-1.5-12.2-4.5c-2.8-3.1-4-7.9-3.5-13.9c-0.8-1.2-1.8-2.2-3.1-3
						c0,0.7-0.1,1.4-0.2,2c-0.4,1.8-1.8,3.1-3.4,3.1c-0.4,0-0.7-0.1-1.1-0.2c-1.6-0.6-2.6-2.4-2.5-4.4c-0.5,0.3-0.8,0.4-1.1,0.4
						c-0.1,0-0.3,0-0.4,0c-1.8,0-3.3-1.6-3.5-3.7c-0.2-2.3,1.1-4.4,3.1-4.6c0.1,0,0.2,0,0.3,0c0.2,0,0.9,0,2.5,0.6
						c-0.1-0.5-0.2-1-0.3-1.4c-0.2-2.3,1.2-4.3,3.1-4.6c0.1,0,0.3,0,0.4,0c1.8,0,3.3,1.6,3.5,3.8c0.1,1.1-0.2,2.9-0.8,4.3
						c1.6,0.7,3,1.6,4.1,2.6c0.1-0.4,0.2-0.7,0.3-1.1c0.1-0.4,0.2-0.8,0.3-1.2c0.2-0.7,0.3-1.1,0.3-1.1c0.8-2.3,1.9-4.5,3-6.2
						c-1.2-0.2-2.3-0.7-3.1-1.2c-2.3-1.5-3-4.7-1.5-7c0.9-1.4,2.5-2.3,4.3-2.3c1,0,1.9,0.3,2.8,0.8c0.6,0.4,1.2,1,1.8,1.7
						c0.6-4,1.2-4.9,1.4-5.2c0.9-1.4,2.5-2.2,4.2-2.2c1,0,2,0.3,2.8,0.9c2.3,1.6,2.9,4.7,1.4,7.1c-0.2,0.2-0.5,0.8-2.1,1.9
						c2.6,0.7,4.3,3.2,3.8,5.9c-0.5,2.4-2.6,4.1-5,4.1c-0.3,0-0.7,0-1-0.1c-1.5-0.3-3.5-1.3-4.9-2.7c-1.7,2.8-3.5,6-4.1,9.9
						l-0.1,0.4c2.3-0.9,4.1-1.3,6.1-1.3c0.3,0,0.5,0,0.8,0c-0.1-0.8-0.1-1.5,0-2.1c0.4-1.8,2-3,3.8-3c0.3,0,0.6,0,0.8,0.1
						c1,0.2,1.9,0.8,2.5,1.7c0.6,0.9,0.7,1.9,0.5,2.9c-0.1,0.4-0.2,0.7-0.4,1.1c1.1-0.2,1.9-0.3,2.5-0.3c0.3,0,0.6,0,0.8,0.1
						c1,0.2,1.9,0.9,2.4,1.7c0.5,0.9,0.7,1.9,0.5,2.9c-0.4,1.8-2,3-3.8,3c-0.3,0-0.6,0-0.9-0.1s-0.7-0.2-1.4-0.6
						c0,0.7-0.3,1.5-0.7,2.1c-0.6,0.8-1.5,1.4-2.5,1.6c-0.2,0-0.4,0.1-0.7,0.1c-1.9,0-3.5-1.4-3.8-3.2c-0.2-1,0-2.5,0.4-3.8
						c-0.4,0-0.7,0-1.1,0c-2,0-3.7,0.6-6,1.8c0.8,5.8,5,8.7,12.5,8.7c4.6,0,8.2-1.3,10.7-3.9c5.1-5.3,4.8-14.8,4.7-19.4
						c0-0.7,0-1.2,0-1.7c0-4.9-9.4-19.7-23.3-19.7c-14.2,0-25.7,15.9-25.7,29v197.3H52.3V299.6z"/>
					<path d="M93.9,52.9c0,0,1.4,0.7,2.1,2.3c0.3,0.7,0.6,1.7,0.2,2.9c-1.1,4.9-8.6,4.1-9.1,6.1c-0.2,0.4,0,0.9,0.2,1.2
						c0,0.1,0.1,0.1,0.1,0.2c2-0.2,4-0.4,6-0.4c4.2,0,8,1,11.2,2.6c1.2-2.8-1.6-4.7-0.4-6.9c0.2-0.3,0.3-0.6,0.6-0.8
						c1.1-1,2.3-1.6,3.5-1.6c2,0,4.1,1.6,5.3,5.2c2,5.8,3.6,6.2,5.6,6.9c0.3,0.1,0.7,0.1,0.9,0.1c1.4,0,2-1.1,2-1.1s0.3,1.5-0.6,3
						c-0.4,0.7-1,1.5-2.2,1.9c-0.5,0.2-1.1,0.3-1.6,0.3c-3.4,0-6.7-4.1-7.8-4.1c-0.1,0-0.2,0-0.2,0.1c5.1,4.2,8.6,10.2,10.6,15.8
						c0.1,0,0.1,0,0.2,0c3.1-1.4,1.8-4.9,4.2-5.9c0.3-0.1,0.6-0.2,0.9-0.2c0,0,0,0,0.1,0c0.3,0,0.6-0.1,0.8-0.1
						c3.5,0,5.8,2.8,4.1,8.2c-1.9,5.8-0.8,7.1,0.4,8.9c0.7,0.9,1.5,1.2,2.1,1.2c0.5,0,0.8-0.2,0.8-0.2s-0.6,1.4-2.3,2.1
						c-0.5,0.2-1.1,0.4-1.8,0.4c-0.4,0-0.8,0-1.2-0.2c-4.9-1-4.1-8.5-6.2-9.1c-0.1,0-0.2-0.1-0.3-0.1c-0.1,0-0.2,0-0.3,0
						c0.4,1.8,0.5,3.5,0.5,5.1c0,3.3-0.4,7.1-1.6,10.8c0.1,0,0.2,0,0.3,0c2.2,0,3.4-2.1,5.2-2.1c0.2,0,0.4,0,0.7,0.1
						c0.3,0.1,0.6,0.2,0.9,0.4c3.3,2.1,3.7,6.2-1.5,9.4c-5.2,3.3-5.2,5-5.4,7.1c-0.1,2.2,1.6,2.7,1.6,2.7s-0.7,0.3-1.7,0.3
						c-0.4,0-0.9-0.1-1.4-0.2c-0.8-0.2-1.7-0.7-2.4-1.7c-2.8-3.6,1.4-8.2,1.3-10.3c-2.5,4.2-6.5,7.9-12.5,9.8c1.2,2.5,4.1,1.3,5,3.2
						c0.1,0.2,0.2,0.5,0.2,0.8c0.4,2.6-1,4.7-4.1,4.7c-0.8,0-1.6-0.1-2.6-0.4c-1.8-0.5-3-0.7-4-0.7c-1.7,0-2.5,0.6-3.4,1.3
						c-1.4,1.1-0.8,2.5-0.8,2.5s-1.1-0.5-1.8-1.8c-0.3-0.6-0.5-1.4-0.3-2.4c0.7-4.1,6.9-3.6,7.3-5.3c0.1-0.2,0-0.5,0-0.7
						c-1.8,0.3-3.6,0.4-5.7,0.4c-13.8,0-15.4-10.1-14.6-17.6c-1.3-2.2-3-3.5-5.2-4.5c0.2,1.2,0.2,2.6,0,3.5
						c-0.3,1.4-1.3,2.3-2.4,2.3c-0.2,0-0.5,0-0.7-0.1c-1.3-0.5-2.1-2.3-1.7-4c0.1-0.6,0.5-1.4,1-2.1c-1.2,1-2.6,2-3.3,2.1
						c-0.1,0-0.2,0-0.3,0c-1.3,0-2.4-1.2-2.5-2.8c-0.2-1.8,0.8-3.4,2.2-3.6c0.1,0,0.1,0,0.2,0c1,0,3,0.9,4.4,1.5
						c-0.6-1-1-2.4-1.1-3.4c-0.1-1.8,0.9-3.3,2.3-3.5c0.1,0,0.2,0,0.3,0c1.3,0,2.4,1.2,2.5,2.9c0.1,1.3-0.4,3.5-1.2,4.7
						c2.3,0.9,4.4,2.1,6.1,4.1c0.2-1.1,0.4-2,0.6-2.8c0.1-0.4,0.2-0.8,0.3-1.2c0.2-0.6,0.3-1,0.3-1l0,0c1-2.7,2.3-5.1,3.7-7.3
						c-1.6-0.1-3.3-0.6-4.2-1.2c-1.9-1.2-2.4-3.8-1.2-5.7c0.8-1.2,2.1-1.9,3.4-1.9c0.8,0,1.5,0.2,2.2,0.7c0.9,0.6,2.1,1.9,2.9,3.2
						c0.1-0.1,0.2-0.3,0.2-0.4c0.3-2.5,0.8-5.6,1.5-6.7c0.8-1.2,2.1-1.8,3.4-1.8c0.8,0,1.6,0.2,2.3,0.7c1.9,1.3,2.4,3.8,1.1,5.7
						c-0.6,0.9-2.8,2.3-4.8,3.5c0.7-0.1,1.4-0.2,2-0.2c0.4,0,0.8,0,1.1,0.1c2.2,0.4,3.7,2.6,3.2,4.8c-0.4,1.9-2.1,3.3-4,3.3
						c-0.3,0-0.5,0-0.8-0.1c-1.6-0.3-4.2-1.8-5.2-3.4c-2.2,3.4-4.2,7-4.9,11.4c0,0.1,0,0.2-0.1,0.4c-0.1,0.5-0.1,1.1-0.2,1.7v0.1
						c2.8-1.3,4.9-1.9,7.2-1.9c0.7,0,1.3,0,2.1,0.1c-0.3-1-0.4-2.2-0.2-3c0.3-1.3,1.5-2.3,2.8-2.3c0.2,0,0.4,0,0.6,0.1
						c1.6,0.3,2.5,1.9,2.2,3.4c-0.2,0.8-0.8,2-1.6,2.8l0,0c1.5-0.4,3.5-0.8,4.7-0.8c0.2,0,0.4,0,0.6,0.1c1.6,0.4,2.5,1.9,2.2,3.5
						c-0.3,1.3-1.5,2.2-2.8,2.2c-0.2,0-0.4,0-0.7-0.1c-0.8-0.2-2.2-1.3-3.5-2.3c0.4,0.7,0.8,1.4,0.9,2c0.3,1.6-0.8,3-2.4,3.3
						c-0.2,0-0.3,0-0.5,0c-1.4,0-2.6-1-2.8-2.4c-0.2-1.2,0.1-3.3,1-4.4c-0.1,0-0.2,0-0.3,0c-0.9-0.1-1.6-0.2-2.3-0.2
						c-2.4,0-4.3,0.7-7.1,2.2c0.4,4.8,3.2,10.3,13.6,10.3c18.7,0,16.3-20.7,16.3-26c0-5.3-9.7-20.7-24.3-20.7s-26.7,16.3-26.7,30
						s0,196.3,0,196.3h-10c0,0,0.2-108.1,0.3-164.9c-1.5,1.5-1.2,3.9-3.2,4.5c-0.3,0.1-0.5,0.2-0.8,0.2c-0.1,0-0.1,0-0.2,0h-0.1
						c-3.9,0-6.3-3.1-3.9-8.7c2.5-5.6,1.5-7,0.5-8.9c-0.7-1.2-1.6-1.4-2.2-1.4c-0.4,0-0.6,0.1-0.6,0.1s0.8-1.3,2.5-1.8
						c0.4-0.1,0.9-0.2,1.4-0.2s1,0.1,1.6,0.3c4.7,1.5,3.3,8.5,5.1,9.6c0-9.3,0-16.9,0-21.7c-2.2,1.2-2,4.1-4.2,4.6
						c-0.2,0-0.4,0.1-0.6,0.1c-0.1,0-0.2,0-0.4,0c-3.9-0.3-6.1-3.7-3.1-9s2.2-6.8,1.5-8.8c-0.7-1.4-1.8-1.6-2.3-1.6
						c-0.2,0-0.3,0-0.3,0s0.9-1.2,2.7-1.6c0.3-0.1,0.6-0.1,1-0.1c0.6,0,1.2,0.1,1.9,0.5c4.5,2,2.4,8.9,4.1,10
						c0.6-8.1,3-14.5,6.7-19.6c0,0,0,0-0.1,0c-0.6-0.2-1.1-0.3-1.5-0.3c-1.8,0-3.2,1.5-4.7,1.5c-0.3,0-0.6-0.1-1-0.2
						c-0.3-0.1-0.6-0.3-0.8-0.5c-3-2.6-2.8-6.6,2.8-9.1s5.8-4.2,6.4-6.3c0.4-2.1-1.2-2.9-1.2-2.9s0.4-0.1,1.1-0.1
						c0.5,0,1.3,0.1,2,0.4c0.7,0.3,1.6,0.9,2.1,2C68.1,68.7,62,73.2,63,75c0.2,0.4,0.6,0.6,0.9,0.8c0.1,0,0.1,0.1,0.2,0.1
						c4.9-4.8,11.1-7.8,17.8-9.3c0-0.1,0-0.3-0.1-0.4c-1.4-3.1-4.9-1.8-5.9-4.2c-0.1-0.3-0.3-0.6-0.2-1c-0.3-3,1.3-5.4,4.8-5.4
						c1,0,2.1,0.2,3.4,0.6c2.3,0.8,3.9,1.1,5.1,1.1c1.8,0,2.7-0.7,3.8-1.4C94.6,54.5,93.9,52.9,93.9,52.9 M88.9,48.3l3.1,5.4
						c0,0.1,0,0.3-0.3,0.5l-0.2,0.1c-0.9,0.6-1.4,0.9-2.5,0.9s-2.5-0.3-4.5-1c-1.4-0.5-2.8-0.7-4.1-0.7c-2.8,0-4.4,1.2-5.2,2.1
						C74,57,73.5,58.9,73.7,61c0,0.7,0.3,1.3,0.4,1.7c0.8,1.9,2.5,2.5,3.8,2.8c-4,1.3-7.6,3.1-10.8,5.3c1.1-2.1,1.9-4.7,0.3-7.4
						c-0.7-1.3-1.7-2.3-3.1-2.9c-0.9-0.4-1.8-0.6-2.8-0.6c-0.9,0-1.5,0.2-1.7,0.2L53.5,62l5.9,1.9c0.1,0.1,0.2,0.2,0.1,0.6l-0.1,0.2
						c-0.4,1.6-0.7,2.7-5.2,4.7c-3.4,1.5-5.4,3.8-5.8,6.4c-0.3,2.1,0.6,4.3,2.4,6c0.5,0.5,1.1,0.8,1.4,1c0.6,0.3,1.2,0.4,1.8,0.4
						c0.9,0,1.6-0.3,2.3-0.6C55,85,54,87.5,53.2,90.2c-0.6-1-1.5-1.8-2.8-2.4c-0.9-0.5-1.8-0.7-2.8-0.7c-0.5,0-0.9,0.1-1.4,0.2
						c-2.4,0.5-3.7,2.1-3.8,2.3l-3.9,5.2l5.9-2c0.1,0,0.3,0,0.5,0.4l0.1,0.2c0.6,1.6,1,2.6-1.4,6.8c-1.8,3.2-2.2,6.3-1,8.6
						c1,1.9,3,3.2,5.5,3.4c0.2,0,0.4,0.1,0.7,0.1c0.4,0,0.8-0.1,1.1-0.1c0.7-0.2,1.3-0.4,1.8-0.8c0,1.8,0,3.8,0,5.9
						c-0.6-0.6-1.4-1.1-2.4-1.4c-0.7-0.3-1.5-0.4-2.2-0.4s-1.3,0.1-2,0.3c-2.3,0.8-3.5,2.5-3.6,2.7l-3.4,5.5l5.7-2.6l0,0
						c0.1,0,0.3,0,0.5,0.4l0.1,0.2c0.8,1.5,1.3,2.5-0.7,7c-1.5,3.4-1.5,6.4-0.1,8.6c1.2,1.8,3.3,2.9,5.8,2.9l0,0c0.1,0,0.2,0,0.3,0
						c0.6,0,1.1-0.2,1.4-0.3c0.2-0.1,0.4-0.1,0.6-0.2c-0.1,57.5-0.3,157.7-0.3,158.7v2h2h10h2v-2V105.3c0.8,0.8,1.8,1.3,3,1.3
						c0.2,0,0.4,0,0.6,0l0,0c0.3,1.8,1.5,3.3,3.1,3.9c0.5,0.2,0.9,0.2,1.4,0.2c2.1,0,3.9-1.6,4.4-3.9c0-0.1,0-0.2,0.1-0.3
						c0.4,0.4,0.8,0.9,1.2,1.4c-0.5,6.1,0.8,11,3.8,14.3c2.6,2.8,6.3,4.4,11.2,4.7c-0.9,0.8-1.6,1.8-1.8,3.2
						c-0.3,1.3-0.2,2.5,0.4,3.7c0.9,2,2.6,2.7,2.8,2.8l4.9,2.2L98,134c0,0,0-0.1,0.1-0.1l0.1-0.1c0.8-0.5,1.1-0.8,2-0.8
						c0.8,0,2,0.2,3.4,0.6c1.1,0.3,2.2,0.5,3.2,0.5c2.5,0,4-1.1,4.8-2c1.1-1.3,1.5-3,1.3-4.8c0-0.7-0.3-1.2-0.4-1.5
						c-0.6-1.2-1.4-1.7-2.3-2.1c1.3-0.7,2.6-1.4,3.7-2.3c0,1.2,0.4,2.5,1.4,3.7c0.8,1.2,2,2,3.5,2.5c0.6,0.2,1.3,0.3,1.9,0.3
						c1.4,0,2.4-0.4,2.6-0.5l5.9-2.7l-6.1-1c-0.1-0.1-0.2-0.2-0.2-0.6v-0.2c0.2-1.7,0.3-2.8,4.5-5.4c3.1-2,4.9-4.5,4.9-7.1
						c0-2.2-1.2-4.2-3.2-5.6c-0.6-0.5-1.2-0.6-1.5-0.8c-0.4-0.1-0.8-0.2-1.2-0.2c-1,0-1.9,0.4-2.6,0.8c0.3-1.5,0.5-2.9,0.6-4.2
						c0.9,1.2,2.1,2.2,4,2.6c0.6,0.2,1.1,0.2,1.7,0.2c0.9,0,1.7-0.2,2.6-0.6c2.3-1,3.2-2.8,3.3-3.1l2.8-5.9l-5.4,3.1c0,0,0,0-0.1,0
						s-0.2,0-0.5-0.3l-0.1-0.2c-0.9-1.4-1.5-2.3,0-7c1.4-4.3,0.4-6.9-0.6-8.3c-1.2-1.6-3.1-2.5-5.4-2.5c-0.3,0-0.6,0-0.9,0.1
						c-0.7,0-1.3,0.3-1.7,0.4c-2,0.9-2.5,2.6-2.8,3.9v0.1c-0.9-2.1-2-4.1-3.3-6h0.1c0.8,0,1.6-0.2,2.4-0.5c1.4-0.5,2.4-1.5,3.2-2.8
						c1.2-2.1,0.9-4.2,0.8-4.4l-1.2-6.4l-2.4,5.7c-0.1,0.1-0.2,0.1-0.3,0.1c-0.1,0-0.2,0-0.3,0l-0.2-0.1c-1.6-0.6-2.6-1-4.2-5.6
						c-2-6-5.7-6.6-7.2-6.6c-1.7,0-3.3,0.7-4.8,2c-0.6,0.4-0.9,1-1.1,1.3c-1.1,1.9-0.4,3.6,0,4.8l0,0c-2.6-0.9-5.3-1.4-8.1-1.5
						c1.7-0.9,3.2-2.2,3.8-4.6c0.4-1.4,0.3-2.8-0.3-4.2c-1-2.3-2.8-3.2-3-3.3L88.9,48.3L88.9,48.3z M65.9,96.9
						c1.1-4.7,3.4-9.5,6.8-13.5c4.9-5.9,11.1-9.2,17.3-9.2c13.9,0,22.3,14.8,22.3,18.7c0,0.5,0,1,0,1.7c0.1,4.5,0.4,13.7-4.4,18.7
						c-2.3,2.4-5.6,3.6-9.9,3.6c-6.7,0-10.5-2.3-11.4-7.1c1.8-0.8,3.1-1.3,4.7-1.3c-0.2,1.1-0.3,2.1-0.1,3c0.4,2.4,2.4,4.1,4.8,4.1
						c0.3,0,0.5,0,0.8-0.1c1.3-0.2,2.4-0.9,3.2-2c0.3-0.4,0.5-0.8,0.6-1.2c0.2,0.1,0.3,0.1,0.4,0.1c0.4,0.1,0.7,0.1,1.1,0.1
						c2.3,0,4.2-1.5,4.8-3.8c0.3-1.3,0.1-2.6-0.6-3.7s-1.8-1.9-3-2.2c-0.3-0.1-0.6-0.1-1-0.1c-0.3,0-0.7,0-1.1,0.1
						c0.2-1.2-0.1-2.4-0.7-3.4c-0.5-0.8-1.3-1.5-2.2-1.8c1.7-0.8,3-2.4,3.3-4.3c0.3-1.6,0-3.2-0.9-4.6c-0.5-0.7-1.1-1.3-1.9-1.8
						c0.5-0.4,0.8-0.8,0.9-1c1.9-2.8,1.1-6.6-1.6-8.4c-1-0.7-2.2-1-3.4-1c-2,0-3.9,1-5.1,2.7c-0.3,0.5-0.8,1.4-1.3,3.7
						c-0.2-0.2-0.4-0.3-0.6-0.5c-1-0.6-2.1-1-3.3-1c-2.1,0-4,1-5.1,2.8c-0.9,1.4-1.2,3-0.9,4.6c0.3,1.6,1.3,3,2.6,3.8
						c0.6,0.4,1.3,0.7,2.2,1c-0.8,1.5-1.7,3.3-2.4,5.2l0,0c-0.1,0.3-0.2,0.7-0.4,1.1c-0.1,0.3-0.2,0.5-0.2,0.8
						c-0.7-0.5-1.5-1-2.3-1.4c0.4-1.3,0.6-2.8,0.5-3.8c-0.2-2.7-2.2-4.7-4.5-4.7c-0.2,0-0.3,0-0.5,0c-2.4,0.3-4.2,2.7-4,5.5
						c-0.6-0.1-1-0.2-1.3-0.2c-0.2,0-0.3,0-0.5,0C67.1,96.3,66.5,96.5,65.9,96.9L65.9,96.9z M86.9,103.1c0.6-2.7,1.8-5,3.1-7.2
						c1.2,0.9,2.6,1.6,3.8,2c-1.1,0.7-1.9,1.8-2.2,3.1c-0.1,0.4-0.1,0.8-0.1,1.3C89.9,102.4,88.4,102.6,86.9,103.1L86.9,103.1z"/>
				</g>
				<g>
					<g>
						<path class="st11" d="M47.7,172.2c-0.6,0-1-0.4-1-1v-21.8c0-0.6,0.4-1,1-1h21.7c0.6,0,1,0.4,1,1v21.8c0,0.6-0.4,1-1,1H47.7z"
							/>
						<path d="M69.4,149.5v21.8H47.7v-21.8H69.4 M69.4,147.5H47.7c-1.1,0-2,0.9-2,2v21.8c0,1.1,0.9,2,2,2h21.8c1.1,0,2-0.9,2-2
							v-21.8C71.4,148.4,70.5,147.5,69.4,147.5L69.4,147.5z"/>
					</g>
					<g>
						<path class="st11" d="M45.2,165.2c-2.4,0-4.5-2.1-4.5-4.5V160c0-2.4,2.1-4.5,4.5-4.5h25.3c2.4,0,4.5,2.1,4.5,4.5v0.7
							c0,2.4-2.1,4.5-4.5,4.5H45.2z"/>
						<path d="M70.5,156.5c1.9,0,3.5,1.6,3.5,3.5v0.7c0,1.9-1.6,3.5-3.5,3.5H45.2c-1.9,0-3.5-1.6-3.5-3.5V160c0-1.9,1.6-3.5,3.5-3.5
							H70.5 M70.5,154.5H45.2c-3,0-5.5,2.5-5.5,5.5v0.7c0,3,2.5,5.5,5.5,5.5h25.3c3,0,5.5-2.5,5.5-5.5V160
							C76,157,73.5,154.5,70.5,154.5L70.5,154.5z"/>
					</g>
				</g>
			</g>
			<path class="st12" d="M3.4,363.2v-114c136.6,0,146-144,146-144s14.2,144,146,144v114H3.4z"/>
			<g id="Ebene_x0020_1">
				<path d="M176.5,228.4l4.1,4.1l8.2,16.4l-16.4-8.2l-4-4l-16,16.6l26.1,25.3c0.6,0.6,0.7,1.6,0.1,2.3c-1.1,1.3-2.3,2.5-3.6,3.6
					c-0.7,0.6-1.7,0.5-2.3-0.1l-25.2-26.1l-25.2,26.1c-0.6,0.6-1.6,0.7-2.3,0.1c-1.3-1.1-2.5-2.3-3.6-3.6c-0.6-0.7-0.5-1.7,0.1-2.3
					l26.1-25.2l-17.3-17.9c-3.1,3.5-5.8,7.5-7.8,11.7l-9-7.9c5.7-10.5,14.4-19.2,24.9-24.9l7.8,9c-4.3,2.1-8.2,4.7-11.7,7.8l18,17.4
					l16.7-16.1l-9.4-9.4l8.2-8.2l9.6,9.6l1.2-1.2l3.8,3.8L176.5,228.4L176.5,228.4z"/>
			</g>
		</g>
	</g>
	<g>
		<path id="SVGID_4_" class="st13" d="M25.4,28.9v166.5c0,68.5,55.6,124,124,124s124-55.6,124-124V28.9H25.4z"/>
	</g>
</g>
</svg>
