<?xml version="1.0" encoding="UTF-8" standalone="no"?>
<!-- Created with Inkscape (http://www.inkscape.org/) -->
<svg
   xmlns:svg="http://www.w3.org/2000/svg"
   xmlns="http://www.w3.org/2000/svg"
   version="1.1"
   width="100%"
   height="100%"
   viewBox="0 0 560 600"
   id="svg2">
  <defs
     id="defs5" />
  <path
     d="M 280,2.5 L 557.5,2.5 L 557.5,323.28261 C 557.5,475.19904 433.735,597.5 280,597.5 C 126.265,597.5 2.5,475.19904 2.5,323.28261 L 2.5,2.5 L 280,2.5 z"
     id="schild0"
     style="opacity:1;fill:#da121a;fill-opacity:1;fill-rule:evenodd;stroke:#000000;stroke-width:5;stroke-linecap:round;stroke-linejoin:miter;marker:none;marker-start:none;marker-mid:none;marker-end:none;stroke-miterlimit:4;stroke-dasharray:none;stroke-dashoffset:0;stroke-opacity:1;visibility:visible;display:inline;overflow:visible;enable-background:accumulate" />
  <path
     d="M 280,74.93478 L 485.22093,74.93478 L 485.22093,317.61379 C 485.22093,432.54189 393.69239,525.06522 280,525.06522 C 166.30761,525.06522 74.77907,432.54189 74.77907,317.61379 L 74.77907,74.93478 L 280,74.93478 z"
     id="schild10"
     style="opacity:0.2;fill:#ffffff;fill-opacity:1;fill-rule:evenodd;stroke:#000000;stroke-width:5;stroke-linecap:round;stroke-linejoin:miter;marker:none;marker-start:none;marker-mid:none;marker-end:none;stroke-miterlimit:4;stroke-dasharray:none;stroke-dashoffset:0;stroke-opacity:1;visibility:visible;display:inline;overflow:visible;enable-background:accumulate" />
  <path
     d="M 280,74.93478 L 280,525.06522 C 166.30761,525.06522 74.77907,432.54189 74.77907,317.61379 L 74.77907,74.93478 L 280,74.93478 z"
     id="dexter20"
     style="opacity:1;fill:#ffffff;fill-opacity:1;fill-rule:evenodd;stroke:#000000;stroke-width:5;stroke-linecap:round;stroke-linejoin:miter;marker:none;marker-start:none;marker-mid:none;marker-end:none;stroke-miterlimit:4;stroke-dasharray:none;stroke-dashoffset:0;stroke-opacity:1;visibility:visible;display:inline;overflow:visible;enable-background:accumulate" />
  <path
     d="M 280,74.93478 L 485.22093,74.93478 L 485.22093,317.61379 C 485.22093,432.54189 393.69239,525.06522 280,525.06522 L 280,74.93478 z"
     id="sinister30"
     style="opacity:1;fill:#fcdd09;fill-opacity:1;fill-rule:evenodd;stroke:#000000;stroke-width:5;stroke-linecap:round;stroke-linejoin:miter;marker:none;marker-start:none;marker-mid:none;marker-end:none;stroke-miterlimit:4;stroke-dasharray:none;stroke-dashoffset:0;stroke-opacity:1;visibility:visible;display:inline;overflow:visible;enable-background:accumulate" />
  <path
     d="M 148.34883,74.93478 L 148.34883,256.02174 L 74.77907,256.02174 L 74.77907,317.62364 L 74.77907,318.1087 L 148.34883,318.1087 L 148.34883,476.96399 C 166.55858,492.33388 187.50357,504.58164 210.30233,512.85802 L 210.30233,318.1087 L 280,318.1087 L 280,256.02174 L 210.30233,256.02174 L 210.30233,74.93478 L 148.34883,74.93478 z"
     id="kreuz40"
     style="opacity:1;fill:#da121a;fill-opacity:1;fill-rule:evenodd;stroke:#000000;stroke-width:5;stroke-linecap:round;stroke-linejoin:miter;marker:none;marker-start:none;marker-mid:none;marker-end:none;stroke-miterlimit:4;stroke-dasharray:none;stroke-dashoffset:0;stroke-opacity:1;visibility:visible;display:inline;overflow:visible;enable-background:accumulate" />
  <g
     transform="matrix(2.5813953,0,0,2.5869565,2.5,2.5)"
     id="gitter50"
     style="stroke-width:0;stroke-miterlimit:4;stroke-dasharray:none">
    <path
       d="M 142.25,28 L 121,64.4375 L 129.5,79 L 159.25,28 L 142.25,28 z M 112.5,79 L 107.5,87.5625 L 107.5,116.71875 L 121,93.5625 L 112.5,79 z"
       id="schraegleiste501"
       style="opacity:1;fill:#da121a;fill-opacity:1;fill-rule:evenodd;stroke:#000000;stroke-width:1.93485391;stroke-linecap:round;stroke-linejoin:miter;marker:none;marker-start:none;marker-mid:none;marker-end:none;stroke-miterlimit:4;stroke-dasharray:none;stroke-dashoffset:0;stroke-opacity:1;visibility:visible;display:inline;overflow:visible;enable-background:accumulate" />
    <path
       d="M 186.25,28 L 165,64.4375 L 173.5,79 L 187,55.84375 L 187,28 L 186.25,28 z M 156.5,79 L 122,138.15625 L 130.5,152.71875 L 165,93.5625 L 156.5,79 z M 113.5,152.71875 L 107.5,163 L 107.5,192.15625 L 122,167.28125 L 113.5,152.71875 z"
       id="schraegleiste502"
       style="opacity:1;fill:#da121a;fill-opacity:1;fill-rule:evenodd;stroke:#000000;stroke-width:1.93485391;stroke-linecap:round;stroke-linejoin:miter;marker:none;marker-start:none;marker-mid:none;marker-end:none;stroke-miterlimit:4;stroke-dasharray:none;stroke-dashoffset:0;stroke-opacity:1;visibility:visible;display:inline;overflow:visible;enable-background:accumulate" />
    <path
       d="M 187,98.71875 L 164,138.15625 L 172.5,152.71875 L 186.75,128.28125 C 186.91739,126.14736 187,123.99125 187,121.8125 L 187,98.71875 z M 155.5,152.71875 L 128.375,199.1875 C 136.72302,196.91599 144.52346,193.35151 151.53125,188.65625 L 164,167.28125 L 155.5,152.71875 z"
       id="schraegleiste503"
       style="opacity:1;fill:#da121a;fill-opacity:1;fill-rule:evenodd;stroke:#000000;stroke-width:1.93485391;stroke-linecap:round;stroke-linejoin:miter;marker:none;marker-start:none;marker-mid:none;marker-end:none;stroke-miterlimit:4;stroke-dasharray:none;stroke-dashoffset:0;stroke-opacity:1;visibility:visible;display:inline;overflow:visible;enable-background:accumulate" />
    <path
       d="M 126.75,28 L 134.5,41.28125 L 142.25,28 L 126.75,28 z M 151.5,41.28125 L 143,55.84375 L 177.5,115 L 186,100.4375 L 151.5,41.28125 z M 186.75,128.28125 L 186,129.5625 L 186.53125,130.5 C 186.60929,129.76307 186.69173,129.02414 186.75,128.28125 z"
       id="schraegleiste504"
       style="opacity:1;fill:#da121a;fill-opacity:1;fill-rule:evenodd;stroke:#000000;stroke-width:1.93485391;stroke-linecap:round;stroke-linejoin:miter;marker:none;marker-start:none;marker-mid:none;marker-end:none;stroke-miterlimit:4;stroke-dasharray:none;stroke-dashoffset:0;stroke-opacity:1;visibility:visible;display:inline;overflow:visible;enable-background:accumulate" />
    <path
       d="M 107.5,41.28125 L 107.5,70.4375 L 134.5,116.71875 L 143,102.15625 L 107.5,41.28125 z M 151.5,116.71875 L 143,131.28125 L 167.90625,174 C 171.39669,169.88913 174.5101,165.43076 177.125,160.65625 L 151.5,116.71875 z"
       id="schraegleiste505"
       style="opacity:1;fill:#da121a;fill-opacity:1;fill-rule:evenodd;stroke:#000000;stroke-width:1.93485391;stroke-linecap:round;stroke-linejoin:miter;marker:none;marker-start:none;marker-mid:none;marker-end:none;stroke-miterlimit:4;stroke-dasharray:none;stroke-dashoffset:0;stroke-opacity:1;visibility:visible;display:inline;overflow:visible;enable-background:accumulate" />
    <path
       d="M 108.5,115 L 107.5,116.71875 L 107.5,142.4375 L 134.5,188.71875 L 143,174.15625 L 108.5,115 z"
       id="schraegleiste506"
       style="opacity:1;fill:#da121a;fill-opacity:1;fill-rule:evenodd;stroke:#000000;stroke-width:1.93485391;stroke-linecap:round;stroke-linejoin:miter;marker:none;marker-start:none;marker-mid:none;marker-end:none;stroke-miterlimit:4;stroke-dasharray:none;stroke-dashoffset:0;stroke-opacity:1;visibility:visible;display:inline;overflow:visible;enable-background:accumulate" />
  </g>
</svg>