<?xml version="1.0" encoding="UTF-8" standalone="no"?>
<svg xmlns="http://www.w3.org/2000/svg" width="416" height="456" viewBox="0 0 416 456">
 <defs>
  <clipPath>
   <path d="m38 479.75h217.25v-240.87h-217.25v240.87"/>
  </clipPath>
 </defs>
 <g fill-rule="evenodd">
  <path d="m13.14 13h390v235c0 110-90 195-195 195-105 0-195-85-195-195v-235" fill="#fff"/>
  <g stroke="#000" stroke-width="3">
   <path d="m62.799 377.75c16.466-5.481 33.534-8.869 48.43-22.596 24.533-22.605 16.538-48.695 40.743-70.998 24.21-22.303 50.17-12.765 74.09-34.808 23.923-22.04 16.82-48.955 40.743-70.998 23.923-22.04 50.17-12.765 74.09-34.808 23.923-22.04 16.82-48.955 40.787-71.04 7.04-6.485 14.272-10.265 21.586-12.929l-.085-47.07-36.962.266c-10.352 2.838-20.64 6.609-30.539 15.73-23.967 22.08-16.864 48.996-40.787 71.04-23.923 22.04-50.17 12.765-74.09 34.808-23.923 22.04-16.82 48.955-40.743 70.998-23.923 22.04-49.883 12.505-74.09 34.808-24.21 22.303-16.21 48.39-40.743 70.998-10.633 9.797-22.37 14.328-34.21 18.11" fill="#0f47af"/>
   <path d="m46.14 211v-5l6-6v-111l-10-10v-38h30v33h15v-33h30v33h15v-33h30v38l-10 10v111l6 6v5z" fill="#da121a" stroke-linejoin="round" stroke-linecap="round"/>
  </g>
  <path d="m83.14 200v-37c0-25 40-25 40 0v37z"/>
  <g stroke="#000" stroke-width="3">
   <path d="m268.14 370.14c-4 0-4 8 0 8 0 6-8 10-17 4 1 6 1 16 9 17 8 1 9-13 13-21-3 14-8 27 2.5 36 10.5-9 5.5-22 2.5-36 4 8 5 22 13 21 8-1 8-11 9-17-9 6-17 2-17-4 4 0 4-8 0-8l.049-60.02 53.951-.123c0 4 8 4 8 0 6 0 10 8 4 17 6-1 16-.883 17-8.883 1-8-13-9-21-13 14 3 27 7.8 36-2.7-9-10.5-22-5.417-36-2.417 8-4 22-4.883 21-12.883-1-8-11-8.117-17-9.117 6 9 2 17-4 17 0-4-8-4-8 0h-53.996l-.004-60c4 0 4-8 0-8 0-6 8-10 17-4-1-6-1-16-9-17-8-1-9 13-13 21 3-14 8-27-2.5-36-10.5 9-5.5 22-2.5 36-4-8-5-22-13-21-8 1-8 11-9 17 9-6 17-2 17 4-4 0-4 8 0 8l-.033 60.03-54.01-.029c0-4-8-4-8 0-6 0-10-8-4-17-6 1-16 1.117-17 9.117-1 8 13 8.883 21 12.883-14-3-27-8.08-36 2.417 9 10.5 22 5.7 36 2.7-8 4-22 5-21 13 1 8 11 7.883 17 8.883-6-9-2-17 4-17 0 4 8 4 8 0l53.986.126z" fill="#da121a" stroke-linejoin="round" stroke-linecap="round"/>
   <g fill="none">
    <path d="m268.14 227h15m-15 8h15m-15 135h15m-15 8h15m62-83v15m-8-15v15m-123-15v15m-8-15v15"/>
    <path d="m52.14 89h100m-104-5h109m-114-5h118m-3 127h-112m6-6h100" stroke-linejoin="round" stroke-linecap="round"/>
   </g>
  </g>
  <path d="m48.14 47h18v25h-18z"/>
  <path d="m93.14 47h18v25h-18z"/>
  <path d="m138.14 47h18v25h-18z"/>
  <path d="m13.14 13h390v235c0 110-90 195-195 195-105 0-195-85-195-195v-235" fill="none" stroke="#000" stroke-linejoin="round" stroke-linecap="round" stroke-width="20"/>
 </g>
</svg>
