<?xml version="1.0" encoding="UTF-8" standalone="no"?><svg height="660" width="600" xmlns="http://www.w3.org/2000/svg" xmlns:xlink="http://www.w3.org/1999/xlink"><radialGradient id="a" cx="220" cy="220" gradientUnits="userSpaceOnUse" r="405"><stop offset="0" stop-color="#fff" stop-opacity=".31"/><stop offset=".19" stop-color="#fff" stop-opacity=".25"/><stop offset=".6" stop-color="#6b6b6b" stop-opacity=".125"/><stop offset="1" stop-opacity=".125"/></radialGradient><path d="m300.00395 1.5-.002 655.62109c-66.86291-109.31738-298.498-46.34569-298.498-175.1289v-480.49219z" fill="#2b5df2"/><path d="m89.632812 130.91211c-11.641052.44065-9.911834 40.20107-11.154296 42.68164-1.262173 2.51986-4.78711 2.34766-4.78711 2.34766s-2.039949 35.16101-17.339844 36.11132c-15.299906.95036-23.969749-46.56502-26.009765-56.06835-1.098431-5.11706-15.641328-6.91642-28.841797-7.49805v270.26367h298.5v-256.0918l-7.51953 1.87891s-18.10522 58.44443-27.28516 50.8418c-9.17999-7.60265-7.26686-64.38364-8.79687-65.33399-1.52996-.95032-1.91238 2.84994-7.77735 2.96875-5.86508.11882-6.24023 18.0586-6.24023 18.0586s-11.36139-22.50982-15.86914-22.84571c-4.50777-.33598-8.61778-1.98373-14.86524-3.76562-6.24746-1.78185-14.88497 4.26965-20.4746 3.42968-5.58965-.84-9.91659-13.94496-17.66993-15.79296-7.75341-1.84795-25.98828 4.75976-25.98828 4.75976s-13.68174 13.88903-27.20508 11.87305c-13.52333-2.01594-17.32226-16.96858-29.583394-17.80859-.191587-.0131-.907608-.0166-1.092384-.01z" fill="#5ab532" stroke="#000" stroke-linecap="round" stroke-linejoin="round" stroke-width="2.5"/><path d="m134.35352 297.40039c-30.68042-.13904-82.720494 14.59947-94.964848 21.27344-15.888799 8.66042-36.7695864 10.28382-37.8847658 10.36523v152.95313c.0000001 128.78321 231.6351338 65.81152 298.4980438 175.1289l.00196-358.73047c-50.88451 6.54884-109.89952 48.08553-160.18555 34.6211-29.18853-10.38171 28.69283-12.85364 15.83008-29.66211-3.21568-4.20211-11.06812-5.90288-21.29492-5.94922z" fill="#fff" stroke="#000" stroke-linecap="round" stroke-linejoin="round" stroke-width="2.5"/><path d="m313.95957 296.67495s-84.5973.24721-134.56411 48.94228c0 0 8.905 13.8423 51.45097-1.97746 42.54599-15.81972 82.61838-2.22465 82.61838-2.22465z" stroke="#313131" stroke-linecap="round" stroke-linejoin="round" stroke-width="2.5"/><path d="m300 1.5.00195 655.62109c66.86296-109.31738 298.49805-46.34569 298.49805-175.1289v-480.49219z" fill="#e20909"/><g fill-rule="evenodd" stroke="#313131" stroke-linecap="round" stroke-linejoin="round" stroke-width="1.5"><path d="m240.35554 328.00483 2.59483-.0991 1.38514.82206 2.6911-1.91509 2.89297 1.01449 3.77809-2.20657 3.90544.44463.44255-1.61053 5.23778-1.10612c-9.20859-4.49427-9.15441-9.12818-18.25698-12.7084-13.30956-12.62056-41.01474-60.56898-47.98825-91.11474l-2.00086.68571c9.27508 38.1526 30.95886 70.25963 45.68154 102.62385.94594 2.49489 1.09239 4.41162-.36335 5.16976z"/><path d="m195.25913 216.42985c-.25271-1.30556-.2182-6.84275-.48948-8.46595-1.81806-10.94842 11.89122-21.4203 23.69206-28.9015-.265.4483.10355.44039-2.14784 3.63729.42301.21342.71607.30221 1.00337.31337-1.01487.52212-1.77996 1.04254-2.59562 1.41993.21996.32508.58672-.11911.99285.44636-.39487.17507-1.55612.59363-2.8655 1.13766.33197.11609.43637.29529.8662.90779-1.08159.12695-2.43693.6101-3.70188 1.21536.58068.1796.50813.44958.98676.64884-1.62731.22346-2.2554.67951-3.5537 1.34755.88833.32393 1.11559.3543 1.74155.53765-1.47183.4113-2.00069.72291-3.52877 1.28289.41127.14513 1.30416.341 2.20958.66439-1.25484.41836-3.20628 1.38414-4.50849 1.88033.98884.39657 2.25941.51587 2.48903.66847-1.55504.50668-1.94502.80811-3.59143 1.18225.21458.13489 1.97715.48164 2.51726.71073-.63581.24744-2.38243.80274-4.10579 1.27661.60021.18039 2.15403.88581 2.64462 1.22402-1.59748.30927-1.71348.57508-3.48976.99781.76826.22824 1.46532.57899 2.17845.77445-1.84478.52874-1.48611.4904-3.27724 1.13875 1.75007.38369.88803.25574 2.07123.66561-.39268.0838-1.80585.9317-2.92233 1.43829.97942.1776.9614.4099 1.84696.91173-.55423.13854-2.52931 1.11106-3.16025 1.63996-.55761.43316-.83468 7.31142-.78951 7.83445z"/><path d="m194.92036 215.89305c-.80429-3.22653-1.018-4.24999-1.00533-5.64952.10192-11.25108-15.4729-19.39669-28.57833-24.86184.34232.3976-.0221.45087 2.77524 3.22632-.37789.28029-.65039.41628-.93132.47488 1.09423.34606 1.94215.73183 2.81393.96836-.15764.3566-.59944-.0201-.89683.6041.42067.107 1.64027.32681 3.02851.64566-.30587.16932-.37618.36311-.68837 1.03755 1.08823-.0542 2.51071.19709 3.86632.58359-.53931.2731-.41886.52696-.85409.80251 1.64321-.0496 2.34452.29552 3.74436.73833-.81609.46621-1.03441.53377-1.61762.81806 1.52416.16121 2.10155.38047 3.70809.67879-.37872.21107-1.22254.55192-2.05558 1.02042 1.31174.20412 3.40885.83194 4.78137 1.10486-.90192.55439-2.13161.8824-2.33005 1.07074 1.62341.24135 2.06217.47361 3.75153.56928-.18686.16839-1.85982.80194-2.35019 1.11705.67109.13835 2.492.39585 4.27524.57699-.55839.27711-1.96069 1.2293-2.38249 1.64368 1.6294.0399 1.79186.28246 3.61794.40447-.71521.35208-1.33808.81301-2.00495 1.12367 1.91277.21508 1.55259.23675 3.43421.5785-1.65394.66784-.82817.399-1.9191.99871.40195.0175 1.94754.61838 3.13903.93231-.93236.33718-.87247.56297-1.65357 1.20394.57098.0446 2.69259.67515 3.40994 1.09151.86457 1.76256 1.90997 5.14906 1.96773 6.08371z"/><path d="m196.10922 219.06374c-18.19446 3.03536-16.50043 28.42738-13.42347 49.39955.21052-.64943.9736-1.7889 1.52518-5.35558.56343.25909.89655.48805 1.14963.77596-.35044-1.48714-.49194-2.71443-.81447-3.87431.50021-.0445.37954.70682 1.2695.65379-.16358-.55517-.73776-2.10709-1.31539-3.91735.39237.24636.65387.2044 1.60937.13651-.78927-1.22543-1.46467-3.03229-1.94557-4.84781.66363.45057.86377.1495 1.46042.47799-1.15616-1.87091-1.2444-2.90253-1.69268-4.80511 1.06284.64807 1.28389.85785 1.98935 1.35208-.84316-1.86723-.98754-2.67528-1.73421-4.7252.48738.30409 1.43005 1.06408 2.50677 1.73034-.65329-1.64865-1.45376-3.03574-2.0717-4.79854 1.21796.69131 2.40502 1.90618 2.74646 2.01603-.82101-2.03313-.85814-2.68898-1.88453-4.70579.31161.10918 2.13383 1.64278 2.81116 2.00996-.29668-.86509-1.23217-3.13718-2.22693-5.31708.68085.47009 2.6743 1.48749 3.41549 1.71206-1.04791-1.91184-.88848-2.25431-1.97729-4.44621.86888.60392 1.79638 1.03168 2.58705 1.60599-1.04402-2.35149-.77862-1.94824-1.66163-4.34429 1.84751 1.48981.99656.70482 2.39131 1.58615-.25004-.47652-.62111-2.64847-1.07227-4.22775.99798.86481 1.20765.65175 2.4404 1.14806-.33334-.68946-1.0576-3.54722-1.07776-4.64275-.0509-.93955 3.53045-2.70561 4.00975-2.84043z"/><path d="m196.189 218.94606c-13.82902-10.03563-28.62748 6.91696-39.91518 22.31276.54961-.27555.24017.34449 4.19725-2.05984.2043.53587.27705.90108.26003 1.25114.71389-1.17873 1.39966-2.05434 1.92427-3.00604.35547.30075-.19997.70032.41594 1.25207.24507-.46155.85365-1.82882 1.62382-3.36304.10048.41523.29817.56053.96637 1.14589.26081-1.30058.96484-2.89697 1.80165-4.37089.14843.72392.47032.66361.65235 1.26562.43012-1.95354 1.02666-2.66933 1.94-4.17729.28436 1.11249.29595 1.39164.44404 2.17094.63258-1.7453 1.0506-2.35547 1.86218-4.15371.12603.51454.26078 1.61933.5427 2.75251.61816-1.48094.97414-2.89198 1.68786-4.42246.35842 1.24211.36457 2.79769.5183 3.09239.75228-1.83647 1.14396-2.27901 1.75149-4.24021.13462.27463.35422 2.45134.56449 3.13107.35456-.74675 1.18351-2.81087 1.91518-4.85522.14731.74767.80629 2.70793 1.14881 3.33877.52692-1.90842.84844-2.02187 1.5262-4.13574.18545.95673.52099 1.83971.67404 2.72607.80832-2.18617.7262-1.75442 1.6681-3.86308.26389 2.16544.205 1.10507.55858 2.58464.13861-.46832 1.27331-2.09721 1.97975-3.401.10448 1.20801.37676 1.2101.86851 2.33763.2192-.65889 1.55779-2.95746 2.23942-3.66921.56254-.63254 4.02574.59781 4.42485.8272z"/><path d="m196.2743 219.77615c-1.55575-18.448-27.25535-19.62078-47.55424-18.58125.6059.27292.21212.53786 4.91368 2.21598-.28974.53709-.53355.8473-.82785 1.07195 1.4492-.20568 2.63422-.22803 3.76817-.43755.005.5034-.70457.31025-.71982 1.20339.54343-.10947 2.07124-.53212 3.84651-.93319-.26487.36765-.24411.63265-.24998 1.5926 1.2313-.6689 3.01056-1.16783 4.78372-1.47189-.48043.61854-.20712.8474-.56575 1.4109 1.87623-.97246 2.87005-.96061 4.72409-1.22366-.69903.9977-.91618 1.19798-1.44149 1.85402 1.84952-.66051 2.63352-.72634 4.6507-1.27287-.32715.45685-1.12436 1.32387-1.84182 2.33369 1.62622-.49222 4.38499-.92775 6.11786-1.37364-.75193 1.14831-2.0026 2.21513-2.13305 2.54517 2.00664-.62235 2.63702-.59588 4.64325-1.42471-.12757.30034-1.73038 1.97004-2.13198 2.61031.84988-.21226 3.09368-.9257 5.25365-1.70717-.50036.63381-1.62186 2.52433-1.89175 3.24214 1.9074-.86048 2.22334-.66823 4.40175-1.54241-.6424.80848-1.12053 1.69252-1.7288 2.42582 2.32782-.81402 1.92224-.58825 4.28076-1.2373-1.56275 1.69916-.74841.9261-1.69528 2.23242.47458-.20335 2.5807-.36328 4.12555-.66055-.90165.91203-.71328 1.14188-1.27968 2.32382.68453-.26583 3.47316-.7118 4.52312-.62582.90294.0401 2.32753 3.78457 2.42102 4.27587z"/><path d="m195.12997 217.76151c13.99382-12.14419 32.14118 5.48864 46.05134 21.35201-.6273-.25433-.56353.47507-5.03751-2.26069-.16586.60301-.20653 1.00824-.15108 1.38935-.90137-1.22733-1.74017-2.12577-2.41156-3.12115-.35519.35893.29153.74833-.32067 1.4037-.31543-.48355-1.12207-1.92586-2.1222-3.53686-.0656.4623-.26542.63792-.93099 1.3345-.42106-1.39908-1.35576-3.08364-2.42205-4.62311-.0852.80372-.44193.76525-.57657 1.43861-.67422-2.09819-1.39903-2.82961-2.55224-4.39975-.19216 1.23992-.17532 1.546-.25435 2.41018-.87262-1.85335-1.39196-2.48456-2.465-4.38057-.0829.57303-.11305 1.79178-.30036 3.05413-.82907-1.56574-1.36538-3.0774-2.30366-4.68915-.25911 1.38789-.10174 3.08834-.23797 3.42347-1.01254-1.94282-1.48552-2.39312-2.3537-4.48455-.11758.31157-.12698 2.70896-.28416 3.46967-.46468-.78586-1.58466-2.97094-2.59672-5.14269-.0815.82959-.59201 3.02784-.89827 3.74637-.77481-2.04063-1.13673-2.13723-2.09742-4.38956-.10095 1.06129-.37304 2.05477-.44616 3.03642-1.11037-2.32019-.97547-1.85541-2.22309-4.0795-.0589 2.38881-.10659 1.22503-.33538 2.872-.20028-.49997-1.60719-2.18344-2.51362-3.54802.0137 1.32898-.28246 1.35447-.6988 2.62847-.30806-.70137-2.00751-3.09926-2.82449-3.81902-.67904-.64335-4.31884.99601-4.72905 1.28067z"/><path d="m195.17423 219.07884c17.77798-4.90646 27.01709 18.81978 33.12738 39.12227-.46637-.49999-.39412.018-3.65481-4.21197-.40071.47195-.60547.81966-.71267 1.18711-.31342-1.49532-.70593-2.66718-.90579-3.85415-.47223.17021-.0441.80034-.87316 1.12684-.0873-.57202-.22544-2.2202-.47006-4.10398-.25108.38842-.50588.46044-1.40068.80105.19535-1.44281.0408-3.36465-.29373-5.2125-.41027.68768-.71942.49903-1.12079 1.04786.25398-2.18223-.10378-3.15435-.50481-5.06736-.68828 1.03468-.79961 1.31784-1.22927 2.06268-.0281-2.04717-.24015-2.84029-.43327-5.01242-.31268.48073-.84456 1.56625-1.53771 2.62326-.10747-1.76915.0294-3.3632-.15851-5.22093-.81053 1.13915-1.37088 2.73981-1.63372 2.98307-.11861-2.1882-.36325-2.79823-.28879-5.05809-.2361.23009-1.23687 2.38695-1.69494 3.00479-.0982-.90891-.21444-3.36186-.23785-5.75621-.4176.71259-1.7926 2.47367-2.36906 2.98914.1385-2.17377-.15132-2.41706-.0946-4.86187-.53122.91304-1.19033 1.69109-1.66323 2.54436-.0516-2.5706-.121-2.09343-.33743-4.63665-1.04227 2.12781-.60412 1.05821-1.49424 2.44398.0244-.53711-.56089-2.66176-.82212-4.28298-.53753 1.20382-.81796 1.09897-1.72462 2.06761.01-.76516-.54666-3.66003-.99324-4.66142-.35252-.87295-4.34778-.96629-4.83939-.88675z"/><path d="m195.40792 219.61345c-1.8149-18.42636 23.28268-23.83952 43.46275-26.17903-.54722.36917-.11132.56485-4.43721 2.99654.3828.48096.67919.74608 1.0098.91856-1.46458.0375-2.63569.21189-3.79048.19342.0859.49668.75019.18881.92724 1.06589-.55505-.0178-2.13641-.18086-3.95756-.28171.32756.31818.3552.58261.53515 1.52706-1.33402-.45477-3.17686-.65134-4.97832-.657.58537.52958.35772.80025.81317 1.29579-2.02427-.64685-3.00088-.47053-4.87455-.4224.86943.86677 1.11965 1.02805 1.75602 1.58711-1.94134-.34407-2.72541-.27899-4.8112-.48302.40509.39572 1.34753 1.11753 2.23734 1.99317-1.69089-.21532-4.48691-.18715-6.27443-.33917.94887 1.00632 2.37416 1.84977 2.56252 2.15319-2.08916-.28042-2.7052-.14992-4.83142-.63379.18014.27466 2.06161 1.6535 2.5733 2.21752-.87553-.0682-3.21478-.39907-5.48382-.81082.60777.54129 2.0553 2.21737 2.45133 2.87959-2.03462-.53141-2.31092-.28973-4.61494-.78974.77935.68979 1.41065 1.48123 2.14275 2.10264-2.44025-.41599-1.99985-.26085-4.44042-.50929 1.84737 1.41451.9051.78808 2.07465 1.91773-.50429-.12164-2.60752.0698-4.18292.033 1.05348.74882.90966 1.0064 1.68193 2.07659-.7224-.14838-3.54972-.12555-4.56817.13309-.88198.18915-1.60562 4.11291-1.60856 4.61225z"/></g><g stroke="#000"><path d="m135.12573 24.081385c-.97292 3.805011.0995 6.93734 1.95901 9.888814 1.4379 2.282299 2.38267 4.714511 2.33772 7.327733-.65409.368829-1.27781.76639-1.87989 1.194213l-15.02768-9.981553 10.08883 14.861895c-.18127.250277-.35787.510401-.5279.76778-2.86155-1.289061-5.54775-1.544672-8.10746-1.049523-3.6185.699967-6.6906-.05788-9.89852-1.969804 2.00258 3.378513 4.9903 4.834315 8.39217 5.606453 2.63585.59827 5.01839 1.648106 6.83661 3.534913-.19784.710979-.36123 1.430093-.48547 2.160087l-17.68862 3.586967 17.64874 3.37507c.0485.303635.10697.606381.16896.909508-2.93573 1.110743-5.02298 2.825145-6.48316 4.985765-2.06373 3.053616-4.75739 4.690812-8.37768 5.607218 3.80501.972934 6.93209-.112163 9.88357-1.971672 2.2823-1.437899 4.71452-2.382668 7.32773-2.337716.36883.654084.76638 1.277806 1.19421 1.879877l-9.9763 15.040359 14.86931-10.106742c.24834.179734.49979.364465.75512.533147-1.28906 2.861541-1.53943 5.560413-1.04427 8.120124.69995 3.618531-.0632 6.677952-1.97506 9.885864 3.37853-2.002559 4.83433-4.990291 5.60645-8.392188.59827-2.635849 1.6481-5.018389 3.53492-6.836608.71241.198412 1.42858.360968 2.16007.485466l3.58698 17.688637 3.37507-17.648755c.30363-.0485.60638-.106953.90952-.168955 1.1101 2.93662 2.82563 5.023316 4.98575 6.483172 3.05363 2.063729 4.69082 4.757401 5.60723 8.377668.97294-3.804997-.11216-6.932095-1.97168-9.883564-1.44069-2.286756-2.3749-4.711591-2.32505-7.332983.6498-.366968 1.2688-.763745 1.86722-1.188968l15.04034 9.976314-10.09406-14.874578c.17735-.245319.35391-.497722.52049-.749861 2.86233 1.292793 5.55909 1.539675 8.12011 1.044275 3.6185-.699989 6.67794.06312 9.88585 1.975059-2.00257-3.378519-4.98505-4.821643-8.38693-5.593788-2.63287-.597589-5.01271-1.667637-6.82917-3.552832.19735-.70976.34877-1.426129.47279-2.154832l17.69387-3.574303-17.65399-3.387733c-.0485-.303636-.10697-.606389-.16896-.909516 2.93844-1.109719 5.02277-2.824857 6.48317-4.985758 2.06372-3.053615 4.76264-4.678148 8.38291-5.594549-3.80501-.972935-6.93735.09948-9.88882 1.958987-2.28673 1.440708-4.71156 2.374917-7.33295 2.325062-.36699-.649807-.76376-1.268796-1.18898-1.867206l9.98155-15.027696-14.87982 10.081412c-.24532-.177359-.49771-.353912-.74985-.520487 1.29105-2.860711 1.54467-5.547749 1.04951-8.107451-.69997-3.618518.0579-6.690607 1.96982-9.89853-3.37852 2.002584-4.82166 4.985061-5.59379 8.386935-.59894 2.638797-1.66709 5.029086-3.56025 6.847098-.70758-.196512-1.42102-.367085-2.1474-.490713l-3.57432-17.693872-3.38774 17.65399c-.30364.04851-.60638.106958-.90951.168961-1.11053-2.936516-2.82482-5.022751-4.98576-6.48317-3.05363-2.063726-4.67815-4.762633-5.59456-8.382917z" fill="#fcef3c" stroke-linejoin="round" stroke-width="2.25"/><path d="m134.35352 351.28711c-30.68042-.13904-82.720494 14.59947-94.964848 21.27344-15.888727 8.66038-36.7694095 10.28185-37.8847658 10.36328v53.88672c1.1151794-.08141 21.9959668-1.70481 37.8847658-10.36524 16.325806-8.89862 103.397048-32.13265 116.259768-15.32422 12.86275 16.80848-45.01861 19.28043-15.83008 29.66211 50.28541 13.46429 109.29951-28.07148 160.18359-34.62109v-53.88477c-50.88406 6.54963-109.8982 48.08341-160.18359 34.61914-29.18853-10.38171 28.69283-12.85363 15.83008-29.6621-3.21568-4.20211-11.06812-5.90092-21.29492-5.94727zm0 107.77148c-30.68042-.13904-82.720494 14.59948-94.964848 21.27344-15.105532 8.23349-34.643494 10.09818-37.513672 10.33399 1.887385 21.471 10.890198 37.07846 24.736328 48.9082 4.317301-1.3874 8.714725-3.14108 12.777344-5.35547 16.325806-8.89862 103.397048-32.1346 116.259768-15.32617 12.86275 16.80848-45.01861 19.28043-15.83008 29.66211 50.28541 13.46429 109.29951-28.07149 160.18359-34.6211v-53.88476c-50.88406 6.54963-109.8982 48.0834-160.18359 34.61914-29.18853-10.38171 28.69283-12.85364 15.83008-29.66211-3.21568-4.20211-11.06812-5.90092-21.29492-5.94727zm0 107.77149c-10.21161-.04628-22.78959 1.55687-35.47852 3.96094 17.75671 4.38346 36.7108 8.09099 55.77148 12.10937 3.04145-2.72911 4.16283-5.9906 1.00196-10.12109-3.21568-4.20211-11.06812-5.90288-21.29492-5.94922zm165.64843.99023c-28.82409 3.71014-60.25479 18.63168-91.23242 28.43946 37.90577 11.60534 71.6437 28.83479 91.23242 60.86132z" fill="#2b5df2" stroke-linecap="round" stroke-linejoin="round" stroke-width="2.5"/><path d="m399.5 1.5v592.32617c32.71348-9.22095 67.92204-14.84879 99.5-22.50781v-569.81836z" fill="#fff" stroke-linecap="round" stroke-linejoin="round" stroke-width="3"/><path d="m300.00195 657.12109-.00195-655.62109" fill="none" stroke-width="3"/></g><path d="m1.5 1.5v481.5c0 129.05477 231.64002 65.9482 298.5 175.5 66.85998-109.5518 298.5-46.44523 298.5-175.5v-481.5z" fill="url(#a)"/><path d="m1.4999995 1.5000047v480.4923153c0 128.78467 231.6400205 65.81018 298.5000005 175.13271 66.85998-109.32253 298.5-46.34804 298.5-175.13271v-480.4923153z" fill="none" stroke="#000" stroke-width="2.999999"/></svg>