<?xml version="1.0" encoding="UTF-8"?>
<svg width="124px" height="49px" viewBox="0 0 124 49" version="1.1" xmlns="http://www.w3.org/2000/svg" xmlns:xlink="http://www.w3.org/1999/xlink">
    <title>D2371099-6550-4138-83FF-5E1EEF4DEF2D</title>
    <g id="Guide-de-style" stroke="none" stroke-width="1" fill="none" fill-rule="evenodd">
        <g transform="translate(-81.000000, -1360.000000)" id="Logo">
            <g transform="translate(81.000000, 1286.000000)">
                <g id="logo-ville-de-levis-124x49" transform="translate(0.000000, 74.000000)">
                    <path d="M47.1390413,2.88588824 L51.2824799,14.2137557 L55.5496449,2.88588824 L56.7661957,2.88588824 L51.5500874,16.7462732 L50.3548109,16.7462732 L45.9840739,5.27758666 C45.3867156,3.67625635 45.2831436,3.47309835 43.7368421,3.23042194 L43.7368421,2.88588824 L47.1390413,2.88588824 Z M73.2725442,6.87802643 C75.2096199,6.87802643 76.735207,7.99289074 76.735207,10.4046267 L76.735207,10.7074156 L70.7157162,10.7074156 L70.7157162,11.1326559 C70.7157162,13.099114 72.1590055,15.9561277 75.0237502,15.9561277 C75.5192161,15.9561277 76.0342767,15.8353461 76.487754,15.7128947 L76.487754,16.3813681 C76.2403009,16.4832254 75.2096199,16.7464959 73.9320457,16.7464959 C70.9015859,16.7464959 69.1285458,14.9030457 69.1285458,11.5183778 C69.1285458,8.59958175 70.2622389,6.87802643 73.2725442,6.87802643 Z M86.8906344,2.8859439 L90.0453805,2.92156612 L90.0453805,16.52369 L88.4576503,16.52369 L88.4576503,15.1867434 L88.4162215,15.1867434 C88.0663162,15.8151417 87.2830882,16.7463289 85.8190844,16.7463289 C83.3249594,16.7463289 81.9846822,14.6590892 81.9846822,11.8221129 C81.9846822,9.18773808 83.1396496,6.87785945 85.7160723,6.87785945 C87.220945,6.87785945 88.0870306,7.85079146 88.4162215,8.47918977 L88.4576503,8.47918977 L88.4576503,5.41456525 C88.4576503,4.09821273 88.1071851,3.2510717 86.8906344,3.2304776 L86.8906344,2.8859439 Z M95.0990208,6.87802643 C97.0360965,6.87802643 98.5622434,7.99289074 98.5622434,10.4046267 L98.5622434,10.7074156 L92.5421928,10.7074156 L92.5421928,11.1326559 C92.5421928,13.099114 93.9849223,15.9561277 96.8502268,15.9561277 C97.3451328,15.9561277 97.8601934,15.8353461 98.3142305,15.7128947 L98.3142305,16.3813681 C98.0662177,16.4832254 97.0360965,16.7464959 95.7574026,16.7464959 C92.7275026,16.7464959 90.9544625,14.9030457 90.9544625,11.5183778 C90.9544625,8.59958175 92.0887155,6.87802643 95.0990208,6.87802643 Z M59.7554506,6.87785945 L59.7554506,16.52369 L58.1682802,16.52369 L58.1682802,6.89066119 L59.7554506,6.87785945 Z M61.0130942,2.88622219 L64.2092692,2.92184442 L64.2092692,16.5234117 L62.6215389,16.5234117 L62.6215389,4.56770252 C62.6215389,3.3109059 61.5908579,3.2708309 61.0130942,3.2307559 L61.0130942,2.88622219 Z M64.9823079,2.88622219 L68.1784829,2.92184442 L68.1784829,16.5234117 L66.5913125,16.5234117 L66.5913125,4.56770252 C66.5913125,3.3109059 65.5600716,3.2708309 64.9823079,3.2307559 L64.9823079,2.88622219 Z M86.0872518,7.66822756 C84.1703306,7.66822756 83.7370079,10.1812642 83.7370079,11.8221129 C83.7370079,13.2197286 84.0869132,15.9559608 86.0049541,15.9559608 C87.9011609,15.9559608 88.4576503,13.7679769 88.4576503,12.2067216 L88.4576503,11.3968726 C88.4576503,9.89684299 87.9633041,7.66822756 86.0872518,7.66822756 Z M73.0043767,7.66839454 C71.1277647,7.66839454 70.7985738,9.32928076 70.7358707,10.0194614 L74.9414525,10.0194614 L74.9414525,9.83689746 C74.9414525,8.70199565 74.241082,7.66839454 73.0043767,7.66839454 Z M94.8297336,7.66839454 C92.9536814,7.66839454 92.6250503,9.32928076 92.5629072,10.0194614 L96.7673692,10.0194614 L96.7673692,9.83689746 C96.7673692,8.70199565 96.0669988,7.66839454 94.8297336,7.66839454 Z M58.9996552,2.63157895 C59.6177279,2.63157895 60.1540627,3.13808245 60.1540627,3.76648076 C60.1540627,4.43495407 59.6177279,4.90138258 58.9996552,4.90138258 C58.3401537,4.90138258 57.8245332,4.39487907 57.8245332,3.76648076 C57.8245332,3.13808245 58.3401537,2.63157895 58.9996552,2.63157895 Z" id="Combined-Shape" fill="#00233E"></path>
                    <path d="M74.9972016,26.291242 C82.0089358,26.291242 82.5846173,31.2906231 82.5846173,33.9906874 L70.8983937,33.9906874 C70.8983937,38.0214108 72.5786711,43.7447944 78.3599834,43.7447944 C80.0836875,43.7447944 81.5167671,43.3407258 82.2138205,43.0595383 L82.2138205,44.8319052 C81.4343678,45.1130927 79.2608081,45.920123 76.4336217,45.920123 C70.1590271,45.920123 66.3864758,42.1728013 66.3864758,35.4420135 C66.3864758,29.0743341 69.5031733,26.291242 74.9972016,26.291242 Z M117.636384,26.2911313 C119.727545,26.2911313 121.530308,26.816974 122.227361,26.9774945 L122.227361,29.9997067 C121.612707,29.595638 119.645145,28.0646053 117.3491,28.0646053 C116.036279,28.0646053 114.478487,28.5483806 114.478487,30.2831083 C114.478487,34.1101368 123.457783,34.1920576 123.457783,40.3582562 C123.457783,44.3070588 120.136201,45.9200123 116.078592,45.9200123 C113.575436,45.9200123 111.771559,45.4351299 110.828421,45.1937958 L110.828421,42.0498094 C112.018757,42.8579467 113.945119,44.1465383 116.242278,44.1465383 C118.824493,44.1465383 119.767631,42.8579467 119.767631,41.446474 C119.767631,37.4954573 110.788335,37.2541231 110.788335,31.692367 C110.788335,28.7908218 112.797096,26.2911313 117.636384,26.2911313 Z M53.6622439,18.4882885 L53.6625204,40.9618356 C53.6679125,43.4547706 53.7784501,43.5763772 56.0444707,43.5823092 L59.9368384,43.5826135 C62.519054,43.5826135 64.7738995,43.422093 64.7738995,39.6327038 L65.924149,39.6327038 L65.7994366,45.4767545 L49.152553,45.4767545 L49.152553,24.2526325 C49.152553,20.8662049 49.0300676,19.8997612 45.0526316,19.3772395 L45.0526316,18.4882885 L53.6622439,18.4882885 Z M88.3967737,26.7347212 L94.1357729,40.9236202 L99.7122005,26.7347212 L102.050559,26.7347212 L94.7103409,45.4768652 L91.7172424,45.4768652 L85.8134446,31.1672991 C84.789021,28.4683418 84.3380519,27.7830856 81.5487246,27.5417515 L81.5487246,26.7347212 L88.3967737,26.7347212 Z M107.927855,26.6480401 L107.927855,45.4765331 L103.82682,45.4765331 L103.82682,26.6823583 L107.927855,26.6480401 Z M74.832403,27.6628614 C71.7591322,27.6628614 70.8983937,30.8467011 70.8983937,32.3777339 L78.4835824,32.3777339 L78.4827454,32.2341299 C78.4687916,31.1135726 78.2379029,27.6628614 74.832403,27.6628614 Z M105.968088,18.6242327 C107.363309,18.6242327 108.59373,19.7146646 108.59373,21.1239232 C108.59373,22.535396 107.363309,23.6645742 105.928002,23.6645742 C104.532782,23.6645742 103.385873,22.535396 103.385873,21.1239232 C103.385873,19.7534109 104.532782,18.6242327 105.968088,18.6242327 Z M80.4277602,18.9460485 C81.0758195,19.5106376 81.5234481,20.5468246 80.8275081,21.3339282 C80.641553,21.5453724 79.934478,21.7878136 79.4823954,21.9306214 L74.7333012,23.4162657 L72.7067241,23.3188464 L77.5838712,19.19956 C78.3800265,18.607295 79.2574676,17.9242529 80.4277602,18.9460485 Z" id="Combined-Shape" fill="#00233E"></path>
                    <g id="Symbole" transform="translate(0.148452, 0.087891)">
                        <path d="M7.01915998,11.7912709 L2.71574041,11.7912709 L2.71574041,20.8872323 C1.88144811,21.5489262 1.57787244,21.898054 1.57787244,21.898054 L1.57787244,11.2256409 C1.57787244,10.9130747 1.83313559,10.6600109 2.14680642,10.6600109 L7.28523937,10.6600109 C7.28523937,10.6600109 7.06603033,11.3252893 7.01915998,11.7912709" id="Fill-80" fill="#C4A006"></path>
                        <path d="M11.4632627,44.3484038 C11.3666377,44.3398011 11.2692916,44.3340659 11.1719454,44.3340659 L5.72200491,44.2910522 C4.06423654,44.2910522 2.71581252,42.9103128 2.71581252,41.211989 L2.71581252,31.2507355 C2.48001858,31.0815483 1.57794454,30.2277266 1.57794454,30.2277266 L1.57794454,41.211989 C1.57794454,43.5332944 3.43689489,45.4223122 5.71695733,45.4223122 L11.1668979,45.464609 C12.5333489,45.464609 13.9834456,46.9650699 14.8105271,48.2490285 C14.915084,48.4124805 15.0953546,48.511412 15.2900468,48.511412 L15.3390804,48.511412 C15.5337727,48.511412 15.7140433,48.4124805 15.8178791,48.2504623 C16.6464028,46.9650699 18.0979416,45.464609 19.4643927,45.464609 L24.9662511,45.4223122 C27.2513611,45.4223122 29.1103115,43.5332944 29.1103115,41.211989 L29.1103115,29.8872015 C28.913456,29.8241148 27.9731646,29.3172702 27.9731646,29.3172702 L27.9731646,41.211989 C27.9731646,42.9103128 26.6232984,44.2910522 24.9619246,44.2910522 L19.4600662,44.3340659 C17.6357278,44.3340659 16.1149651,45.942061 15.3203323,46.9865767 C15.3203323,46.9865767 13.540701,44.5025362 11.4632627,44.3484038" id="Fill-82" fill="#C4A006"></path>
                        <path d="M17.5713351,11.5427234 L17.6484909,11.368518 L17.5713351,11.5427234 Z" id="Fill-84" fill="#00233E"></path>
                        <path d="M32.4414957,17.7567677 L32.4551963,17.7517495 C30.8486247,17.4327313 27.3146001,17.6693066 25.1015983,19.1145665 C25.7058653,16.7466629 26.4132471,14.5006315 25.9733869,12.2194722 C26.683653,12.4911753 27.4530479,12.6424401 28.2584969,12.6424401 C31.770168,12.6424401 34.6162801,9.81285626 34.6162801,6.32229539 C34.6162801,2.83030074 31.770168,1.16865582e-13 28.2584969,1.16865582e-13 C24.9609872,1.16865582e-13 22.2497175,2.49622775 21.9317202,5.69214485 C21.8574487,6.32731365 21.8798023,6.79544597 21.8798023,6.79544597 C21.8221157,6.99044136 22.3009144,11.9097736 22.3009144,11.9097736 C22.3009144,11.9097736 19.9307166,7.38043214 14.5016875,6.55313552 C14.0971603,6.47212641 13.6782114,6.42982961 13.2506096,6.42911272 C9.74038061,6.42839582 6.89354743,9.25869656 6.89210526,12.7499743 C6.8906631,16.2398183 9.73821737,19.0708359 13.2470042,19.0722697 C16.0325453,19.0737035 18.3969744,17.2929368 19.2586679,14.8160652 C20.5840172,18.9797903 16.7601175,24.5808895 16.7601175,24.5808895 C13.981066,19.9612193 8.3054267,19.6981189 6.39960601,19.7468677 L6.35778323,19.7454339 C2.73939191,19.9203563 -4.67462326e-15,22.5764516 -4.67462326e-15,26.0684462 C-4.67462326e-15,29.5582902 2.84683318,32.3885909 6.35778323,32.3885909 C9.86873327,32.3885909 12.7155665,29.5582902 12.7155665,26.0684462 C12.7155665,25.6935102 12.6809545,25.3286108 12.6182203,24.9723141 C13.027074,25.4232409 13.3205546,25.8505102 13.464771,26.2118252 C13.464771,26.2118252 15.1095599,29.6056053 13.9738552,41.200662 C13.9738552,41.200662 13.9060734,43.2294744 12.9636188,43.8768304 C12.6045198,44.1227253 12.0975989,44.2696887 11.4630464,44.3485472 C13.1619164,44.506264 14.5665849,46.0017066 15.3165106,46.9910215 C14.9869759,38.8571329 15.7938671,29.8479157 14.8708817,26.7480625 C13.8044008,23.1635884 11.2986396,22.5570954 11.2986396,22.5570954 C10.4376673,22.2337759 9.58606899,22.0860955 8.79287838,22.0445156 C10.1629349,22.866794 11.0794306,24.3608028 11.0794306,26.0684462 C11.0794306,28.660021 8.96521707,30.7619566 6.35778323,30.7619566 C3.74962831,30.7619566 1.63541481,28.660021 1.63541481,26.0684462 C1.63541481,24.2769261 2.64420904,22.7212643 4.1260333,21.9283787 C4.1548766,21.9104563 4.20751561,21.8839312 4.28034493,21.8502371 C4.57526762,21.7061413 4.88893845,21.5928719 5.21486768,21.5111459 C6.58636634,21.1039496 9.04958371,20.6981872 11.6361062,21.6695796 C14.2190232,22.6409721 15.9654847,24.2991498 16.6238329,28.1194823 C16.6238329,28.1194823 16.677193,28.339569 16.7319952,28.4105416 C16.7406482,28.3445873 16.7478591,28.2800667 16.7579542,28.2126786 C17.0485504,26.1709622 18.9392284,22.7112278 19.6033452,21.3957258 C22.1913098,15.2569555 19.7684731,12.3148192 17.622532,10.9785272 C17.8482307,11.5269518 17.972978,12.124842 17.9722569,12.7535588 C17.9715358,15.3451336 15.8558802,17.4456354 13.2477252,17.4456354 C10.6410125,17.4449185 8.52679899,15.342266 8.52679899,12.7499743 C8.52752007,10.155532 10.6438968,8.05431327 13.2506096,8.05503016 L13.35084,8.05718085 C15.3778026,7.95753247 21.3584597,9.27375135 22.4847904,15.6232887 C22.5821365,16.1695626 22.6254014,16.7452291 22.6225171,17.3302153 C23.234716,15.3393984 23.5692982,12.9492711 23.103479,10.0365274 C22.3369685,5.25125453 24.7691793,3.10845593 25.0395852,2.88765232 C25.8832516,2.10623697 27.0146298,1.62735123 28.2584969,1.62735123 C30.8666518,1.62735123 32.9801442,3.72928684 32.9801442,6.32229539 C32.9801442,8.91458705 30.8666518,11.0165227 28.2584969,11.0165227 C26.8458965,11.0165227 25.5789548,10.3992762 24.713656,9.42214858 C24.818934,9.90820327 24.9364704,10.4537602 24.9552186,11.3613491 C24.9552186,11.3613491 25.1354891,17.5180417 22.6405442,21.5469906 L22.5583408,21.6824837 C26.7831624,18.4155941 31.3187704,19.1618816 32.2302186,19.3697811 C34.4345674,19.7669408 36.1067574,21.6839175 36.1067574,23.9873006 C36.1067574,26.5817429 33.9918228,28.6829616 31.3829468,28.6829616 C28.776234,28.6829616 26.6612994,26.5817429 26.6612994,23.9873006 C26.6612994,22.4043968 27.4508846,21.0050181 28.6594187,20.1547809 C27.2432129,20.399242 25.5219893,21.0587852 23.7553375,22.6051274 C23.7553375,22.6051274 15.1867157,30.9404634 25.0886188,42.788584 C25.3114332,42.9355475 25.5335266,43.0574196 25.75562,43.1477484 C16.9302929,29.8715732 24.4144068,23.5241865 24.4144068,23.5241865 C24.6574115,23.2897619 24.8960898,23.0653738 25.1311627,22.8495885 C25.064102,23.2195062 25.0266057,23.5987436 25.0266057,23.9873006 C25.0266057,27.4792952 27.8719967,30.3088791 31.3829468,30.3088791 C34.895339,30.3088791 37.7414511,27.4792952 37.7414511,23.9873006 C37.7414511,20.855904 35.4498513,18.2571603 32.4414957,17.7567677" id="Fill-110" fill="#00233E"></path>
                        <path d="M21.0189741,21.1445259 C21.5662756,20.0562795 22.1705427,18.8017136 22.6227963,17.3306454 C22.6255456,16.7449424 22.5822807,16.1699927 22.4849346,15.6237189 C21.3586039,9.27346459 15.3779468,7.95724571 13.3509842,8.05689409 L13.2507538,8.05474341 C10.64332,8.05402651 8.52766429,10.1559621 8.52694321,12.7496876 C8.52694321,15.3419792 10.6404356,17.4453486 13.2478695,17.4460655 C15.8560244,17.4460655 17.970959,15.3448468 17.97168,12.753272 C17.9724011,12.1245553 17.848375,11.526665 17.6226762,10.9782405 C19.7686173,12.3152493 22.1914541,15.2566687 19.6034894,21.396156 C18.9393726,22.7116579 17.0486946,26.1713923 16.7580984,28.2123919 C16.7480033,28.27978 16.7400714,28.3443005 16.7321395,28.4109717 C15.747862,35.954139 20.4565299,39.8002797 20.9432605,40.1759326 C18.0913797,37.5599834 17.446011,34.141112 17.7293964,30.9236881 C18.1836783,25.7763833 21.0189741,21.1445259 21.0189741,21.1445259" id="Fill-112" fill="#AFBDD2"></path>
                        <path d="M32.2302907,19.3697811 C31.3188426,19.1618816 26.7832345,18.4155941 22.5584129,21.6824837 C19.3077736,26.9953912 18.8131111,31.6752806 19.784409,35.4224898 C20.5227974,38.269996 22.1084575,40.5776804 23.977503,42.2100499 C24.6928167,42.645922 25.089412,42.7900178 25.089412,42.7900178 L25.0886909,42.788584 C15.1867878,30.9404634 23.7554096,22.6051274 23.7554096,22.6051274 C25.5220614,21.0587852 27.243285,20.399242 28.6594908,20.1547809 C27.4509567,21.0050181 26.6613715,22.4043968 26.6613715,23.9873006 C26.6613715,26.5817429 28.7763061,28.6829616 31.3830189,28.6829616 C33.9918949,28.6829616 36.1068295,26.5817429 36.1068295,23.9873006 C36.1068295,21.6839175 34.4346395,19.7669408 32.2302907,19.3697811" id="Fill-114" fill="#E7D298"></path>
                        <path d="M28.2587132,1.62735123 C27.014125,1.62735123 25.8834679,2.10623697 25.0398015,2.88765232 C24.7693956,3.10845593 22.3371848,5.25125453 23.1036954,10.0365274 C23.5695146,12.9492711 23.2349324,15.3393984 22.6227334,17.3302153 C22.1706148,18.8020004 21.5663478,20.0565663 21.0190462,21.1448126 C21.0190462,21.1448126 18.1837504,25.77667 17.7294685,30.9232579 C17.4460831,34.1413988 18.0914518,37.5602701 20.9426115,40.1755024 C21.7473394,40.9139041 22.724406,41.5877852 23.9077022,42.175639 L23.9769261,42.2100499 C22.1086017,40.5776804 20.5222205,38.269996 19.7845532,35.4224898 C18.8125342,31.6752806 19.3079178,26.9953912 22.5585571,21.6824837 L22.6407605,21.5469906 C25.1357055,17.5180417 24.9554349,11.3613491 24.9554349,11.3613491 C24.9366867,10.4544771 24.8184292,9.90820327 24.7138723,9.42214858 C25.5791711,10.3992762 26.8461128,11.0165227 28.2587132,11.0165227 C30.8668681,11.0165227 32.9803605,8.91458705 32.9803605,6.32229539 C32.9803605,3.72928684 30.8668681,1.62735123 28.2587132,1.62735123" id="Fill-116" fill="#C4A006"></path>
                    </g>
                </g>
            </g>
        </g>
    </g>
</svg>