<?xml version="1.0" encoding="UTF-8" standalone="no"?>
<!-- Created with Inkscape (http://www.inkscape.org/) -->

<svg
   width="284.95624mm"
   height="65.352081mm"
   viewBox="0 0 284.95624 65.352081"
   version="1.1"
   id="svg5"
   xmlns="http://www.w3.org/2000/svg"
   xmlns:svg="http://www.w3.org/2000/svg">
  <defs
     id="defs2" />
  <g
     id="layer1"
     transform="translate(29.443904,-183.85188)">
    <path
       style="fill:#fa0009;fill-opacity:1;stroke-width:0.264583"
       d="M -29.443904,216.52792 V 183.85188 H 113.03421 255.51233 v 32.67604 32.67604 H 113.03421 -29.443904 Z m 155.775564,-0.33073 0.0683,-15.41198 h -0.66359 -0.66359 v 15.49653 15.49653 l 0.59532,-0.0846 0.59531,-0.0845 z M 6.8790878,216.69276 c 2.4325632,-7.40367 4.4228402,-13.53857 4.4228402,-13.63312 0,-0.0945 -1.7463735,-0.13896 -3.8808333,-0.0987 l -3.8808315,0.0732 -1.8959512,5.68854 -1.89594848,5.68854 -1.91813662,-5.75468 -1.918135,-5.75469 h -3.975055 c -3.0707579,0 -3.9464349,0.0752 -3.8492419,0.33073 0.0692,0.1819 2.0604795,6.22432 4.4250709,13.4276 2.36459,7.20328 4.351801,13.18617 4.416024,13.29531 0.06422,0.10914 1.3341504,0.19844 2.82206122,0.19844 H 2.4562442 Z m 20.9044762,12.67085 c 2.768454,-1.39215 5.061688,-4.79218 5.908077,-8.75953 0.60743,-2.84728 0.368056,-7.34484 -0.543097,-10.20413 -1.205085,-3.78168 -3.754141,-6.46954 -6.882484,-7.25727 -1.819945,-0.45826 -5.070377,-0.19399 -6.57156,0.53429 -4.462866,2.16513 -6.777261,7.09392 -6.469212,13.77699 0.287784,6.24344 2.774196,10.50955 7.135404,12.2427 1.737463,0.69047 5.745062,0.51066 7.422872,-0.33305 z m -5.4586,-6.61534 c -0.962327,-1.14366 -1.311587,-3.25353 -1.180716,-7.13271 0.120642,-3.57607 0.630102,-5.20875 1.824855,-5.84817 1.25758,-0.67303 2.287674,0.21367 2.84146,2.44592 0.430425,1.735 0.384488,6.91417 -0.07669,8.64691 -0.686691,2.58002 -2.146382,3.38848 -3.408907,1.88805 z m 30.913421,6.55509 c 3.560035,-1.85999 5.122725,-5.29058 5.548257,-12.18013 l 0.175678,-2.84427 h -5.309365 -5.309362 v 3.04271 3.04271 h 1.322917 c 1.195819,0 1.322821,0.0572 1.321927,0.59531 -0.0016,0.91985 -0.961395,2.28094 -1.74775,2.47831 -1.123405,0.28195 -2.033106,-0.18915 -2.616885,-1.3552 -0.458719,-0.91625 -0.52913,-1.58532 -0.528887,-5.02571 1.7e-4,-2.4142 0.129601,-4.39395 0.330439,-5.05429 0.427606,-1.40591 1.433623,-2.48634 2.315114,-2.48634 0.78939,0 1.984375,1.14359 1.984375,1.89903 0,0.27436 0.150506,0.55658 0.334457,0.62717 0.308393,0.11834 6.700605,-2.06473 7.040272,-2.4044 0.297283,-0.29728 -1.17824,-2.66328 -2.47668,-3.97135 -0.729396,-0.7348 -1.921486,-1.62777 -2.649091,-1.98437 -1.160219,-0.56863 -1.68085,-0.64837 -4.233333,-0.64837 -2.652104,0 -3.04433,0.0658 -4.419232,0.74093 -2.694437,1.32315 -4.762555,4.22708 -5.629542,7.90466 -0.530291,2.24939 -0.530108,7.80811 2.65e-4,9.8858 1.023477,4.0089 3.071603,6.67245 6.114729,7.95208 1.382536,0.58135 1.856555,0.64318 4.330592,0.56485 2.3784,-0.0753 2.968469,-0.18741 4.101041,-0.77913 z m 24.738541,-2.45669 v -3.30729 h -3.175 -3.175 v -1.98438 -1.98437 h 2.918322 2.91832 l -0.07405,-3.37344 -0.07405,-3.37344 -2.84427,-0.0751 -2.844271,-0.0751 v -1.57855 -1.57855 h 3.175 3.175 v -3.30729 -3.30729 h -6.879168 -6.879166 v 13.62605 13.62604 h 6.879166 6.879167 z m 19.049999,0.009 v -3.29803 l -2.711979,-0.0754 c -2.684026,-0.0746 -2.712392,-0.0822 -2.752053,-0.73686 -0.02204,-0.3638 -0.05181,-4.97748 -0.06615,-10.25261 l -0.02607,-9.59114 h -3.704164 -3.704167 v 13.62629 13.62604 h 6.482291 6.482292 v -3.29803 z m 19.314575,-0.009 v -3.30729 h -3.175 -3.175 v -1.98438 -1.98437 h 2.77813 2.77812 v -3.43958 -3.43959 h -2.77812 -2.77813 v -1.5875 -1.5875 h 3.175 3.175 v -3.30729 -3.30729 h -7.01145 -7.01146 v 13.62604 13.62604 h 7.01146 7.01145 z m 27.55243,2.85128 c 2.00369,-0.64369 4.19009,-2.82315 4.98379,-4.96795 0.48421,-1.30849 0.56823,-1.98275 0.47803,-3.83645 -0.15749,-3.23663 -1.16724,-4.83693 -4.59565,-7.2834 -1.75037,-1.24903 -2.22485,-1.83303 -2.22485,-2.73837 0,-0.6405 0.94365,-1.35532 1.78921,-1.35532 0.87165,0 2.53272,0.90509 3.27074,1.78217 0.34573,0.41088 0.72469,0.77329 0.84215,0.80536 0.11746,0.0321 0.21573,-1.7574 0.21838,-3.97659 l 0.005,-4.0349 -1.54129,-0.57958 c -1.0991,-0.4133 -2.15541,-0.5841 -3.68184,-0.59531 -1.87586,-0.0138 -2.34078,0.0843 -3.75972,0.79337 -1.89894,0.94892 -2.75971,1.88471 -3.82964,4.16347 -0.63478,1.35196 -0.78423,2.02684 -0.79428,3.58697 -0.0176,2.73058 0.76253,4.33409 3.11243,6.3974 3.06855,2.69433 3.83989,3.4861 3.83989,3.94167 0,0.7384 -1.21699,1.73889 -2.11518,1.73889 -1.14012,0 -2.88762,-0.9317 -3.89416,-2.07623 l -0.84996,-0.96648 -0.01,4.28386 c -0.005,2.35613 0.0965,4.34963 0.2265,4.42999 0.13004,0.0804 0.87418,0.31769 1.65364,0.52737 1.98273,0.53338 5.1496,0.51498 6.87693,-0.0399 z M 162.11442,224.73 v -5.42395 h 1.71979 1.71979 v 5.42395 5.42396 h 3.813 3.813 l 0.0342,-13.62604 0.0342,-13.62604 h -3.84718 -3.84719 v 4.89479 4.89479 l -1.12448,-0.004 c -2.4574,-0.008 -2.3151,0.30276 -2.3151,-5.05434 v -4.73164 h -3.70417 -3.70416 v 13.62644 13.62604 h 3.70416 3.70417 z m 30.03021,4.6687 c 2.704,-1.28573 4.7359,-3.91784 5.85952,-7.59041 0.37472,-1.22475 0.48001,-2.43163 0.4722,-5.41266 -0.009,-3.43917 -0.0835,-4.0575 -0.71973,-5.97096 -1.19348,-3.58952 -3.32629,-5.98751 -6.33126,-7.11846 -0.96158,-0.36189 -1.78317,-0.44429 -3.57567,-0.35859 -2.90124,0.13871 -4.38873,0.79875 -6.42313,2.85009 -2.74348,2.76636 -3.88938,6.50023 -3.6178,11.78854 0.21709,4.22738 1.24381,7.16674 3.29731,9.43972 1.99966,2.21339 4.05031,3.08295 7.33439,3.11008 1.80207,0.0149 2.35261,-0.0947 3.70417,-0.73735 z m -5.24884,-6.65043 c -0.94574,-1.12393 -1.30319,-3.2313 -1.18461,-6.98388 0.0806,-2.55124 0.21585,-3.45703 0.66279,-4.43936 1.03095,-2.26595 2.63734,-2.38976 3.59817,-0.27734 0.71407,1.56992 0.96349,6.90969 0.43834,9.38432 -0.60745,2.86246 -2.18198,3.90011 -3.51469,2.31626 z m 30.25196,4.0984 v -3.30729 h -3.175 -3.175 v -1.98438 -1.98437 h 2.77813 c 2.45997,0 2.78097,-0.053 2.80298,-0.46302 0.0137,-0.25466 0.0187,-1.77271 0.0111,-3.37344 l -0.0137,-2.91042 -2.78925,-0.0751 -2.78926,-0.0751 v -1.57855 -1.57855 h 3.175 3.175 v -3.30729 -3.30729 h -7.01146 -7.01146 l 0.002,12.23698 c 10e-4,6.73034 0.0774,12.86205 0.16914,13.62604 l 0.16685,1.38906 h 6.84231 6.84231 v -3.30729 z m 15.21354,2.55465 c 2.97069,-1.40763 4.63174,-3.97602 4.83947,-7.48295 0.21788,-3.67816 -0.86604,-5.51681 -5.1702,-8.77017 -1.37103,-1.03632 -1.65364,-1.38307 -1.65364,-2.02896 0,-0.8909 0.80904,-1.60278 1.82156,-1.60278 0.88616,0 2.7606,1.14276 3.58017,2.18266 l 0.67781,0.86005 0.003,-4.26225 0.003,-4.26226 -1.72535,-0.56639 c -1.12723,-0.37006 -2.39657,-0.56639 -3.66185,-0.56639 -4.70006,0 -8.16607,3.63362 -8.20232,8.59896 -0.0108,1.47816 0.12781,2.14587 0.68652,3.30729 0.86381,1.79564 1.12091,2.08554 3.84107,4.33101 1.9419,1.60301 2.18282,1.89982 2.18282,2.68919 0,2.35817 -3.30252,2.25197 -5.59282,-0.17985 l -1.03526,-1.09924 0.0729,4.33022 0.0729,4.33022 1.45521,0.45597 c 0.89952,0.28186 2.36452,0.46208 3.83646,0.47194 2.08711,0.014 2.57735,-0.077 3.96875,-0.73627 z M 30.616511,200.87998 c 0,-0.0934 -0.325745,-1.34356 -0.723877,-2.77813 l -0.723876,-2.6083 h -6.580473 c -5.155125,0 -6.553204,0.0716 -6.454589,0.33073 0.06924,0.1819 0.407567,1.43205 0.751845,2.77812 l 0.625965,2.4474 h 6.552501 c 3.603879,0 6.552504,-0.0764 6.552504,-0.16982 z"
       id="path21" />
  </g>
</svg>
