<?xml version="1.0" encoding="UTF-8" standalone="no"?>
<!-- Created with Inkscape (http://www.inkscape.org/) -->
<svg xmlns:rdf="http://www.w3.org/1999/02/22-rdf-syntax-ns#" xmlns="http://www.w3.org/2000/svg" xml:space="preserve" height="135.74" width="200" version="1.1" xmlns:cc="http://creativecommons.org/ns#" xmlns:dc="http://purl.org/dc/elements/1.1/"><metadata><rdf:RDF><cc:Work rdf:about=""><dc:format>image/svg+xml</dc:format><dc:type rdf:resource="http://purl.org/dc/dcmitype/StillImage"/><dc:title/></cc:Work></rdf:RDF></metadata><path stroke-linejoin="miter" d="m10.2503,100.58,179.498,0,0-90.4428-179.498,0,0,90.4428z" stroke="#104680" stroke-linecap="butt" stroke-miterlimit="4" stroke-dasharray="none" stroke-width="0.27000001000000001" fill="#104680"/><path fill-rule="nonzero" fill="#104680" d="m181.972,109.455c0.1035-0.35291,0.18705-0.64471,0.18705-0.74821,0-0.0836-0.1247-0.1247-0.22945-0.1247h-0.78936c-0.313,0-0.35416-0.1671-0.35416-0.31176,0-0.12595,0.12471-0.313,0.31176-0.39655l3.32705-1.26822c0.1883-0.0624,0.35415-0.1035,0.47885-0.1035,0.20826,0,0.27061,0.1035,0.27061,0.24941,0,0.1035-0.0199,0.20825-0.0623,0.3317l-1.47648,4.88956h0.0412c0.76941-0.72951,1.97528-1.41537,3.37069-1.41537,1.51763,0,2.57884,0.91531,2.57884,2.32943,0,0.33296-0.0636,0.74821-0.22945,1.31062l-1.37297,4.59651c-0.0624,0.207-0.1247,0.45765-0.1247,0.58235,0,0.10351,0.1035,0.31176,0.35415,0.31176,0.39531,0,1.14352-0.52001,1.37297-0.52001,0.207,0,0.37411,0.1459,0.37411,0.41526,0,0.50005-1.02007,1.93537-2.82949,1.93537-0.99887,0-1.85058-0.68586-1.85058-1.56127,0-0.39405,0.0823-0.87291,0.20825-1.28816l1.22707-4.1189c0.1247-0.43646,0.16585-0.74822,0.16585-1.05997,0-0.68586-0.45765-0.97766-1.12232-0.97766-0.95771,0-2.24713,0.56116-2.68358,1.99647l-2.03888,6.80124h-2.49529l3.39065-11.8554m-5.52066,1.10237c1.10237,0,2.05883,0.1247,3.1824,0.95646-0.0412,0.64471-0.14591,1.43532-0.25066,1.97653-0.1459,0.74821-0.41525,0.89411-0.83176,0.89411-0.43646,0-0.62351-0.1671-0.74946-0.62476l-0.2282-0.91406c-0.12346-0.52001-0.58111-0.70831-1.06122-0.70831-2.41173,0-3.99171,2.60003-3.99171,4.78356,0,1.66352,0.93527,2.76714,2.53644,2.76714,1.22582,0,2.18478-0.83177,2.49654-0.83177,0.18705,0,0.45765,0.14466,0.45765,0.53996,0,0.79061-2.24838,2.12118-4.36956,2.12118-2.22343,0-3.82585-1.39292-3.82585-3.9306,0-3.6388,2.91179-7.02944,6.63539-7.02944m-10.2156,2.74593c0.0424-0.16585,0.10475-0.39406,0.10475-0.49881s-0.10475-0.1671-0.22945-0.1671h-0.70706c-0.14466,0-0.31176-0.14465-0.33296-0.31175-0.0212-0.1247,0.10351-0.35291,0.22945-0.39406l3.4106-1.24951c0.20826-0.0823,0.35416-0.12346,0.47761-0.12346,0.12471,0,0.29181,0.12346,0.29181,0.31176,0,0.1459-0.0624,0.31175-0.10351,0.45765l-2.22593,7.42475c-0.0836,0.2494-0.16585,0.49881-0.16585,0.62351,0,0.1035,0.1035,0.31175,0.35291,0.31175,0.3953,0,1.14351-0.52,1.37296-0.52,0.20826,0,0.37411,0.1459,0.37411,0.4165,0,0.49881-1.01881,1.93412-2.82824,1.93412-0.99762,0-1.85183-0.68586-1.85183-1.56002,0-0.3953,0.0836-0.87291,0.20826-1.28941l1.62237-5.36592zm3.07765-6.80124c0.74945,0,1.14476,0.45766,1.14476,1.06122,0,0.97766-0.93651,1.89172-1.93413,1.89172-0.66591,0-1.14352-0.39405-1.14352-1.01881,0-1.10112,1.01882-1.93413,1.93289-1.93413m-7.77269,2.84944c0.0823-0.2706,0.16585-0.49881,0.16585-0.64471,0-0.1035-0.10475-0.1247-0.2494-0.1247h-0.74946c-0.18705,0-0.31175-0.1459-0.31175-0.2918,0-0.12346,0.0836-0.31176,0.3741-0.41526l3.3495-1.26822c0.1671-0.0624,0.26935-0.1035,0.43521-0.1035,0.20825,0,0.313,0.16461,0.313,0.31051,0,0.10475-0.0611,0.2918-0.1247,0.50005l-3.4106,11.4601c-0.0836,0.26935-0.16586,0.51876-0.16586,0.64346,0,0.0836,0.12346,0.27185,0.33296,0.27185,0.14465,0,0.24816-0.0636,1.04001-0.41651,0.0823-0.0412,0.22821-0.10475,0.37411-0.10475,0.207,0,0.39406,0.16711,0.39406,0.37411,0,0.52125-1.10237,1.97652-2.84944,1.97652-1.12232,0-1.89298-0.74945-1.89298-1.80942,0-0.2494,0.0424-0.45765,0.10475-0.66591l2.87064-9.69182m-8.45977,1.20587c0.76941,0,1.68472,0.18705,2.08003,0.95646l0.56116-1.97527c0.0836-0.29181,0.1459-0.56241,0.1459-0.70831,0-0.1035-0.1035-0.207-0.2706-0.207h-0.60356c-0.20701,0-0.31176-0.12595-0.31176-0.27061,0-0.2494,0.10475-0.43645,0.31176-0.52l3.05769-1.16472c0.24941-0.0836,0.47886-0.16585,0.66591-0.16585,0.16585,0,0.26936,0.0823,0.26936,0.2494,0,0.1459-0.0823,0.35291-0.16586,0.62351l-3.22354,11.2718c-0.0412,0.1671-0.12471,0.45765-0.12471,0.66715,0,0.16585,0.16586,0.24816,0.27061,0.24816s0.18705-0.02,0.29055-0.0624l0.62476-0.26936c0.16585-0.0624,0.33296-0.1459,0.43646-0.1459,0.16585,0,0.4165,0.18705,0.4165,0.49881,0,0.2282-0.87416,1.93412-2.76714,1.93412-0.76941,0-1.53882-0.56116-1.60117-1.39292-0.87416,0.95646-1.97528,1.39292-3.1188,1.39292-2.26708,0-3.20484-1.56002-3.20484-3.40935,0-3.51659,3.05894-7.55069,6.26129-7.55069zm-3.6812,7.36239c0,0.83176,0.313,1.89173,1.47647,1.89173,2.37058,0,3.4742-4.99181,3.4742-6.07173,0-0.99886-0.52126-1.47772-1.24952-1.47772-2.24463,0-3.70115,3.8483-3.70115,5.65772m-12.4216-4.2224c0.1247-0.43646,0.25065-0.78936,0.25065-0.93526,0-0.22945-0.12595-0.35416-0.35415-0.35416h-0.72826c-0.18706,0-0.31176-0.20825-0.31176-0.3741,0-0.16586,0.10475-0.31176,0.41651-0.41651l3.57645-1.28817c0.10475-0.0424,0.20825-0.0835,0.313-0.0835,0.1459,0,0.29056,0.0412,0.29056,0.14466,0,0.10475-0.0411,0.25065-0.0836,0.3953l-0.33171,1.01882h0.0411c1.04002-0.78937,1.83063-1.24702,3.12005-1.24702,1.51762,0,2.57883,0.91531,2.57883,2.32943,0,0.33171-0.0624,0.74821-0.22945,1.30937l-1.37172,4.59651c-0.0624,0.20825-0.1247,0.45765-0.1247,0.5836,0,0.1035,0.1035,0.31175,0.35291,0.31175,0.3953,0,1.14351-0.52,1.37296-0.52,0.20826,0,0.37411,0.1459,0.37411,0.41525,0,0.49881-1.01881,1.93413-2.82824,1.93413-0.99886,0-1.85183-0.68586-1.85183-1.56002,0-0.3953,0.0836-0.87291,0.20826-1.28942l1.22706-4.11765c0.12471-0.4377,0.1671-0.74821,0.1671-1.05996,0-0.68711-0.45765-0.97767-1.12356-0.97767-0.95646,0-2.24713,0.56116-2.68234,1.99523l-2.03888,6.80124h-2.49653l2.26708-7.6118m-11.7094-0.18586c0.1035-0.35415,0.16585-0.62351,0.16585-0.74946,0-0.0823-0.1247-0.1247-0.31175-0.1247h-0.54121c-0.2282,0-0.45765-0.16585-0.45765-0.33295,0-0.16586,0.18705-0.37411,0.43645-0.47761l3.10009-1.14476c0.20701-0.0823,0.39406-0.12346,0.56116-0.12346,0.18706,0,0.27061,0.18705,0.27061,0.35291,0,0.0836-0.0623,0.29055-0.12471,0.52l-1.89297,6.34358c-0.0836,0.31176-0.1671,0.56116-0.1671,0.78937,0,0.6659,0.5412,1.12356,1.26946,1.12356,1.51763,0,2.14238-1.37297,2.37059-2.16233l1.26947-4.2648c0.0623-0.18705,0.1035-0.39406,0.1035-0.47761,0-0.1035-0.0624-0.1459-0.20701-0.1459h-0.5624c-0.22821,0-0.37411-0.14465-0.37411-0.35291,0-0.25065,0.1247-0.31175,0.47761-0.45765l3.14124-1.18592c0.10351-0.0412,0.22946-0.0823,0.37411-0.0823,0.1247,0,0.2706,0.1035,0.2706,0.20701,0,0.1247-0.1035,0.5412-0.2282,0.89411l-2.06008,7.13419c-0.0624,0.18705-0.1247,0.3953-0.1247,0.58236,0,0.0823,0.1671,0.31175,0.31175,0.31175,0.14591,0,0.22946-0.02,0.35416-0.0836l0.60356-0.29056c0.18705-0.0836,0.31175-0.1247,0.41525-0.1247,0.12595,0,0.33296,0.1459,0.33296,0.47886,0,0.31175-1.12357,1.85057-2.70354,1.85057-0.85296,0-1.33057-0.41526-1.68473-1.37296-1.04001,0.97766-2.01767,1.37296-3.09884,1.37296-1.74708,0-2.70479-1.18591-2.70479-2.47533,0-0.29055,0.0623-0.76941,0.1883-1.20586l1.22707-4.32591zm2.70354-3.973c-0.66591,0-1.12357-0.49881-1.12357-1.04001,0-0.99762,0.87417-2.03763,2.08003-2.03763,0.66591,0,1.12357,0.47761,1.12357,1.16472-0.0212,1.10236-1.10237,1.91292-2.08003,1.91292zm4.53416,0c-0.6659,0-1.12356-0.49881-1.12356-1.04001,0-0.99762,0.87416-2.03763,2.08003-2.03763,0.66591,0,1.12356,0.47761,1.12356,1.16472-0.0212,1.10236-1.10236,1.91292-2.08003,1.91292m-15.3583,4.15881c0.1247-0.43646,0.25065-0.78936,0.25065-0.93526,0-0.22945-0.12595-0.35416-0.3554-0.35416h-0.72701c-0.18706,0-0.31176-0.20825-0.31176-0.3741,0-0.16586,0.10351-0.31176,0.41651-0.41651l3.57645-1.28817c0.10475-0.0424,0.20825-0.0835,0.313-0.0835,0.14466,0,0.28931,0.0412,0.28931,0.14466,0,0.10475-0.02,0.1671-0.0399,0.27185l-0.37411,1.14227h0.0412c1.14477-0.93527,2.20473-1.24702,3.0153-1.24702,0.31175,0,0.64595,0.0212,0.91531,0.12345l-0.60356,3.05769c-0.1035,0.54121-0.3741,0.76941-0.81056,0.76941-0.35415,0-0.56241-0.14465-0.66591-0.60231l-0.31175-1.26946c-1.24827,0.10475-1.93538,0.52125-2.32944,1.80942l-2.05883,6.86359h-2.49653l2.26708-7.6118m-6.63544-1.35058-0.91531,0c-0.25065,0-0.35416-0.18705-0.35416-0.33295,0-0.10351,0.12471-0.39531,0.35416-0.50006l1.08116-0.47761c0.20826-0.1035,0.35416-0.43645,0.43646-0.72701l0.39531-1.35301c0.60355-2.03763,2.64118-2.78709,3.8059-2.78709,1.95533,0,2.51649,0.83301,2.51649,1.41412,0,0.81181-0.51876,1.47772-1.45527,1.47772-0.43771,0-0.85297-0.2918-0.87292-0.70831-0.0424-0.64471-0.25065-0.72701-0.5624-0.72701-0.33171,0-0.64471,0.1247-0.81057,0.70706l-0.68711,2.43293h2.37184l-0.70831,1.58122h-2.09998l-2.28828,8.02705c-1.18467,4.07775-3.49415,5.36592-5.11528,5.36592-1.02006,0-1.95658-0.60231-1.95658-1.45527,0-0.70706,0.64596-1.12356,1.33182-1.12356,0.72826,0,1.08117,0.87416,1.68473,0.87416,0.43645,0,0.6871-0.66466,0.79061-1.04001l3.05769-10.6483m-14.1964-0.43796c0.674638,0,1.47772,0.16461,1.82439,0.838l0.491326-1.73211c0.07357-0.25439,0.128443-0.49257,0.128443-0.61977,0-0.091-0.09103-0.18206-0.236933-0.18206h-0.528737c-0.182065,0-0.274344-0.10974-0.274344-0.23694,0-0.21947,0.09228-0.38283,0.274344-0.45641l2.67984-1.0213c0.21823-0.0723,0.419-0.14591,0.58485-0.14591,0.14466,0,0.23569,0.0736,0.23569,0.21823,0,0.12845-0.0723,0.31051-0.1459,0.54869l-2.82575,9.88262c-0.03616,0.1459-0.109738,0.40154-0.109738,0.5836,0,0.1459,0.145901,0.21823,0.236934,0.21823,0.09103,0,0.164606-0.0175,0.254392-0.0549l0.547442-0.23693c0.147148-0.0536,0.291802-0.1272,0.382835-0.1272,0.145901,0,0.366623,0.16461,0.366623,0.43771,0,0.19952-0.766917,1.69594-2.42545,1.69594-0.675885,0-1.35052-0.49257-1.40539-1.22208-0.76567,0.83925-1.73211,1.22208-2.73472,1.22208-1.98775,0-2.80704-1.36798-2.80704-2.99035,0-3.08263,2.6786-6.61917,5.48689-6.61917zm-3.22604,6.45456c0,0.72951,0.273097,1.65854,1.29316,1.65854,2.08003,0,3.04522-4.37579,3.04522-5.32352,0-0.87541-0.455162-1.29441-1.09239-1.29441-1.97029,0-3.24599,3.37319-3.24599,4.95939m-11.0199-3.70238c0.109738-0.38283,0.218229-0.69209,0.218229-0.82054,0-0.20077-0.108491-0.30926-0.310508-0.30926h-0.637228c-0.163359,0-0.274344-0.18331-0.274344-0.32921s0.09103-0.2731,0.365377-0.36413l3.13626-1.1298c0.09103-0.0374,0.182065-0.0736,0.273098-0.0736,0.128443,0,0.254392,0.0362,0.254392,0.12719,0,0.091-0.03492,0.21948-0.07108,0.34667l-0.291803,0.89287h0.03492c0.912819-0.6921,1.60616-1.09364,2.73596-1.09364,1.33182,0,2.26085,0.80184,2.26085,2.04262,0,0.2918-0.05362,0.65593-0.20077,1.1485l-1.20213,4.03037c-0.05487,0.18206-0.109737,0.40029-0.109737,0.51003,0,0.091,0.09103,0.27309,0.309261,0.27309,0.347918,0,1.0026-0.45516,1.20337-0.45516,0.182065,0,0.329213,0.1272,0.329213,0.36413,0,0.43895-0.894113,1.69594-2.48032,1.69594-0.875408,0-1.62237-0.60106-1.62237-1.36797,0-0.34543,0.07357-0.76567,0.182065-1.1298l1.07618-3.61137c0.109738-0.38283,0.145902-0.65593,0.145902-0.92902,0-0.60231-0.401541-0.85671-0.986393-0.85671-0.837998,0-1.9678,0.49133-2.35063,1.74957l-1.78698,5.96324h-2.18852l1.98775-6.67404m-10.3278-0.16334c0.09228-0.31051,0.145901-0.54744,0.145901-0.65593,0-0.0736-0.109737-0.11099-0.274344-0.11099h-0.472621c-0.20077,0-0.40154-0.14465-0.40154-0.29055,0-0.14715,0.163359-0.32797,0.382835-0.42025l2.71726-1.0026c0.182065-0.0723,0.346671-0.10849,0.491326-0.10849,0.164606,0,0.236934,0.16461,0.236934,0.30926,0,0.0736-0.05487,0.25564-0.108491,0.45641l-1.65854,5.56045c-0.07482,0.27435-0.145901,0.49257-0.145901,0.69334,0,0.58361,0.47262,0.98515,1.1111,0.98515,1.33182,0,1.87801-1.20337,2.07878-1.89672l1.11234-3.73731c0.05487-0.1646,0.09103-0.34667,0.09103-0.42024,0-0.091-0.05487-0.12845-0.183312-0.12845h-0.491326c-0.200771,0-0.327967-0.12594-0.327967-0.30926,0-0.21947,0.109738-0.27309,0.418999-0.40154l2.75467-1.03876c0.09103-0.0362,0.199523-0.0723,0.327966-0.0723,0.108491,0,0.235687,0.091,0.235687,0.18207,0,0.10849-0.08979,0.47386-0.200771,0.78437l-1.80444,6.25379c-0.05487,0.16336-0.10849,0.34668-0.10849,0.51128,0,0.0723,0.145901,0.2731,0.273097,0.2731,0.128443,0,0.199523-0.0187,0.309261-0.0736l0.528736-0.25439c0.165854-0.0736,0.273098-0.10973,0.365377-0.10973,0.108491,0,0.291803,0.12719,0.291803,0.41899,0,0.27435-0.985146,1.62362-2.37058,1.62362-0.748212,0-1.16721-0.36538-1.47772-1.20462-0.911572,0.85795-1.76827,1.20462-2.71601,1.20462-1.53134,0-2.37183-1.04001-2.37183-2.17106,0-0.25439,0.05612-0.67463,0.164607-1.05747l1.07618-3.79218m-15.3257-5.04294c0.10475-0.35291,0.187053-0.64471,0.187053-0.74946,0-0.0823-0.124702-0.1247-0.228205-0.1247h-0.79061c-0.311755,0-0.352907-0.16585-0.352907-0.31175,0-0.12471,0.124702-0.31176,0.311755-0.39531l3.32705-1.26822c0.1883-0.0623,0.354153-0.1035,0.478855-0.1035,0.208253,0,0.270604,0.1035,0.270604,0.24816,0,0.10475-0.0212,0.2095-0.06235,0.33295l-1.47647,4.88831h0.04115c0.769412-0.72826,1.97528-1.41412,3.36945-1.41412,1.51887,0,2.57884,0.91531,2.57884,2.32943,0,0.33296-0.06235,0.74821-0.228204,1.31062l-1.37297,4.59651c-0.06235,0.207-0.124702,0.45765-0.124702,0.58235,0,0.10351,0.103502,0.31176,0.352906,0.31176,0.395306,0,1.14476-0.52001,1.37297-0.52001,0.208253,0,0.375353,0.14466,0.375353,0.41526,0,0.50005-1.02006,1.93537-2.82949,1.93537-0.998863,0-1.85058-0.68711-1.85058-1.56127,0-0.39405,0.0823-0.87291,0.208252-1.28941l1.22707-4.11765c0.124702-0.43646,0.165854-0.74946,0.165854-1.05997,0-0.68711-0.457657-0.97766-1.12356-0.97766-0.956465,0-2.24588,0.56116-2.68234,1.99647l-2.03763,6.80124h-2.49654l3.3894-11.8554m-5.56047,1.10236c1.10237,0,2.06008,0.1247,3.1824,0.95646-0.0424,0.64471-0.145901,1.43532-0.249404,1.97653-0.145901,0.74821-0.415257,0.89411-0.831762,0.89411-0.436457,0-0.624757-0.1671-0.749459-0.62351l-0.228205-0.91531c-0.124702-0.52001-0.582358-0.70831-1.06121-0.70831-2.41298,0-3.99296,2.60128-3.99296,4.78481,0,1.66352,0.936512,2.76589,2.53644,2.76589,1.22831,0,2.18478-0.83177,2.49653-0.83177,0.187053,0,0.457656,0.14466,0.457656,0.53996,0,0.79061-2.24588,2.12243-4.36706,2.12243-2.22593,0-3.8271-1.39417-3.8271-3.93185,0-3.6388,2.91054-7.02944,6.63415-7.02944m-6.66282,2.70354c-0.124702,0.53996-0.498808,0.85296-0.915313,0.85296-0.478855,0-0.643462-0.313-0.685861-0.66591l-0.103502-0.74821c-0.0424-0.33295-0.270604-0.6871-1.12357-0.6871-0.874161,0-1.49767,0.6659-1.49767,1.31061,0,1.56002,3.24475,2.09998,3.24475,4.38826,0,2.26708-2.08003,3.80714-4.59652,3.80714-2.14238,0-2.95419-0.6871-3.49415-1.16596l0.520008-2.09998c0.124702-0.4988,0.270603-0.79061,0.79061-0.79061,0.478856,0,0.790611,0.24941,0.790611,0.58236l0.06235,1.16472c0.04115,0.72825,0.894113,0.85296,1.45527,0.85296,1.22707,0,1.89173-0.93651,1.89173-1.60242,0-1.62113-3.2435-2.20348-3.2435-4.61646,0-1.91293,1.78947-3.28589,4.18001-3.28589,1.10237,0,2.30948,0.26935,3.12004,1.05996l-0.395305,1.64357m-12.4365,0.0424c0.04115-0.16585,0.10475-0.3953,0.10475-0.49881,0-0.10475-0.10475-0.1671-0.229452-0.1671h-0.70706c-0.145902,0-0.313002-0.14465-0.332955-0.31175-0.01995-0.1247,0.103503-0.35291,0.228205-0.39531l3.4106-1.24826c0.208252-0.0823,0.354154-0.1247,0.478856-0.1247s0.291802,0.1247,0.291802,0.31175c0,0.1459-0.06235,0.313-0.104749,0.45766l-2.22468,7.42599c-0.08355,0.2494-0.167101,0.49881-0.167101,0.62351,0,0.1035,0.10475,0.31175,0.354154,0.31175,0.395305,0,1.14352-0.52,1.37172-0.52,0.208252,0,0.375353,0.1459,0.375353,0.4165,0,0.49881-1.01882,1.93412-2.82824,1.93412-0.998863,0-1.85182-0.68586-1.85182-1.56002,0-0.3953,0.08355-0.87416,0.208253-1.28941l1.62237-5.36592zm3.07765-6.80124c0.748212,0,1.14476,0.45766,1.14476,1.05997,0,0.97766-0.936512,1.89297-1.93413,1.89297-0.665909,0-1.14476-0.3953-1.14476-1.01881,0-1.10236,1.01882-1.93413,1.93413-1.93413m-11.1646,7.19529c0.124702-0.43646,0.249404-0.79061,0.249404-0.93651,0-0.2282-0.124702-0.35291-0.354154-0.35291h-0.727012c-0.187053,0-0.313002-0.20825-0.313002-0.3741,0-0.1671,0.104749-0.313,0.416504-0.41651l3.57645-1.28817c0.10475-0.0424,0.209499-0.0836,0.313002-0.0836,0.145901,0,0.290556,0.0412,0.290556,0.14466,0,0.10475-0.01995,0.1671-0.04115,0.2706l-0.374106,1.14352h0.04115c1.14476-0.93527,2.20473-1.24702,3.01654-1.24702,0.311755,0,0.64471,0.0199,0.914066,0.12345l-0.602311,3.05769c-0.103502,0.54121-0.374106,0.76941-0.810563,0.76941-0.354154,0-0.562406-0.14465-0.665909-0.60231l-0.311755-1.26946c-1.24827,0.10475-1.93538,0.52-2.32943,1.80942l-2.06008,6.86359h-2.49529l2.26708-7.6118m-6.80623-1.35172-0.915313,0c-0.249404,0-0.352906-0.18705-0.352906-0.33295,0-0.10351,0.123455-0.39531,0.352906-0.49881l1.08117-0.47886c0.208252-0.1035,0.352906-0.43645,0.436457-0.72701l0.395305-1.35301c0.603558-2.03763,2.64244-2.78584,3.8059-2.78584,1.95533,0,2.51649,0.83176,2.51649,1.41412,0,0.81056-0.51876,1.47647-1.45527,1.47647-0.436458,0-0.851715-0.2918-0.872915-0.70706-0.0424-0.64471-0.250651-0.72826-0.562406-0.72826-0.331707,0-0.644709,0.1247-0.810563,0.70706l-0.687108,2.43293h2.37183l-0.708307,1.58122h-2.09998l-2.28828,8.0283c-1.18467,4.0765-3.4929,5.36592-5.11652,5.36592-1.01757,0-1.95408-0.60231-1.95408-1.45652,0-0.70706,0.64471-1.12231,1.33057-1.12231,0.72826,0,1.08117,0.87291,1.68472,0.87291,0.436457,0,0.687108-0.66466,0.790611-1.04001l3.05769-10.6483"/><path stroke-linejoin="miter" d="m163.876,69.8215c-4.85789,0-8.79297-5.06068-8.79297-11.3062,0-6.24325,3.93508-11.3039,8.79297-11.3039,4.85562,0,8.79069,5.06068,8.79069,11.3039,0,6.24553-3.93507,11.3062-8.79069,11.3062zm-76.9493,0.09114c-4.8579,0-8.79297-5.06296-8.79297-11.3062,0-6.24325,3.93508-11.3039,8.79297-11.3039,4.85562,0,8.79297,5.06068,8.79297,11.3039,0,6.24325-3.93736,11.3062-8.79297,11.3062zm86.8333-30.7354c-4.4318-4.4318-12.9741-6.03362-19.4977-4.78725-10.3766,1.98462-17.0505,10.814-18.7389,20.2974v-34.4769l-19.9602,2.65908v32.4763c-2.237-12.1835-14.204-21.4846-28.6368-21.4846-11.3791,0-21.2248,5.78526-25.9779,14.2068l9.5335-27.8804-20.9354,2.6795-11.8098,39.5285-11.7209-42.1852-15.7654,1.99374v11.6867l16.2667,48.9822h22.5281l9.10058-26.609c-0.150385,1.05269-0.236971,2.1259-0.236971,3.21504,0,14.1498,12.9924,25.6201,29.0175,25.6201,14.4324,0,26.3994-9.30335,28.637-21.4868v19.2607h19.9602v-19.3222c1.11193,7.58076,5.71691,12.6642,11.7346,15.7015,6.26833,3.16264,17.6543,3.36771,25.4037-2.07577,0,6.12704-1.47195,11.8986-8.8636,11.8986-6.84936,0-8.29853-6.20224-8.29853-6.20224h-19.9762c0.88636,7.44405,7.92484,13.382,14.7491,15.7745,2.30363,0.622046,4.60725,1.58132,6.99974,1.93678l10.2626-0.009c10.5201-1.26916,19.7369-9.39449,22.2137-19.5637v-44.0468l-15.9887,2.21248z" stroke="#fff200" stroke-linecap="butt" stroke-miterlimit="4" stroke-dasharray="none" stroke-width="0.27000001000000001" fill="#fff200"/></svg>
