<?xml version="1.0" encoding="UTF-8" standalone="no"?>
<!DOCTYPE svg PUBLIC "-//W3C//DTD SVG 1.1//EN" "http://www.w3.org/Graphics/SVG/1.1/DTD/svg11.dtd">
<svg width="100%" height="100%" viewBox="0.6 163.9 41.1 41.1" version="1.1" xmlns="http://www.w3.org/2000/svg" xmlns:xlink="http://www.w3.org/1999/xlink" xml:space="preserve" xmlns:serif="http://www.serif.com/" style="fill-rule:evenodd;clip-rule:evenodd;stroke-linejoin:round;stroke-miterlimit:2;">
    <g>
        <circle cx="21.1" cy="184.5" r="20.5" style="fill:white;"/>
        <g>
            <path d="M9.7,181.8C9.7,181.8 13.7,180.9 14.8,180.5C15.8,180.1 16.6,179.4 17,178.4C17,178.3 17.1,178.3 17.1,178.2C17.5,177 18,175.2 18.4,173L18.4,172.8C19,170 19.6,166.7 20,164C9.5,164.5 1.1,172.9 0.6,183.4C3.5,183 6.8,182.4 9.7,181.8Z" style="fill:rgb(227,0,20);fill-rule:nonzero;"/>
            <path d="M32.6,181.8C32.6,181.8 28.6,180.9 27.5,180.5C26.5,180.1 25.7,179.4 25.3,178.4C25.3,178.3 25.2,178.3 25.2,178.2C24.8,177 24.3,175.2 23.9,173L23.9,172.8C23.3,170 22.7,166.7 22.3,163.9C32.8,164.4 41.3,172.8 41.7,183.4C38.8,183 35.4,182.4 32.6,181.8Z" style="fill:rgb(227,0,20);fill-rule:nonzero;"/>
            <path d="M9.7,187.1C9.7,187.1 13.7,188 14.8,188.4C15.8,188.8 16.6,189.5 17,190.5C17,190.6 17.1,190.6 17.1,190.7C17.5,191.9 18,193.7 18.4,195.9L18.4,196.1C19,198.9 19.6,202.2 20,204.9C9.5,204.4 1.1,196 0.6,185.5C3.5,185.9 6.8,186.5 9.7,187.1Z" style="fill:rgb(227,0,20);fill-rule:nonzero;"/>
            <path d="M32.6,187.1C32.6,187.1 28.6,188 27.5,188.4C26.5,188.8 25.7,189.5 25.3,190.5C25.3,190.6 25.2,190.6 25.2,190.7C24.8,191.9 24.3,193.7 23.9,195.9L23.9,196.1C23.3,198.9 22.7,202.2 22.3,204.9C32.8,204.4 41.2,196 41.7,185.5C38.8,185.9 35.4,186.5 32.6,187.1Z" style="fill:rgb(227,0,20);fill-rule:nonzero;"/>
        </g>
    </g>        
</svg>
