<?xml version="1.0" encoding="UTF-8" standalone="no"?>
<!-- Created with Inkscape (http://www.inkscape.org/) -->
<svg
   xmlns:svg="http://www.w3.org/2000/svg"
   xmlns="http://www.w3.org/2000/svg"
   version="1.0"
   width="671.20862"
   height="341.0433"
   id="svg2005">
  <defs
     id="defs2007" />
  <g
     transform="translate(567.433,21.41601)"
     id="layer1">
    <g
       transform="translate(5.314166,5.31489)"
       id="g2022">
      <path
         d="M -379.51574,149.23598 L -250.72014,149.23598 L -250.72014,-20.754217 L -379.51574,-20.754217 L -379.51574,149.23598 z "
         style="fill:white;fill-rule:nonzero;stroke:none"
         id="path14" />
      <path
         d="M -291.45229,-20.741719 L -566.33747,-20.741719 L -566.33747,308.99751 L 93.147241,308.99751 L 93.147241,-20.741719 L -256.45689,-20.741719 L -320.56097,146.89878 L -354.36904,146.89878 L -291.45229,-20.741719"
         style="fill:#00adee;fill-rule:nonzero;stroke:none"
         id="path16" />
      <path
         d="M -428.63429,169.05838 L -456.69311,169.05838 C -456.69311,169.05838 -466.72929,185.86867 -472.96598,196.72975 C -482.98966,214.22745 -497.86521,242.0238 -497.86521,242.0238 C -497.86521,242.0238 -493.727,227.81317 -491.89099,218.53938 C -488.07024,199.25441 -482.58971,169.05838 -482.58971,169.05838 L -515.46665,169.05838 L -525.59407,274.39455 L -494.54564,274.39455 C -494.54564,274.39455 -480.46499,252.07248 -472.29106,237.32442 C -466.39184,226.67582 -457.85546,209.65305 -457.85546,209.65305 L -470.96624,274.39455 L -439.2579,274.39455 L -370.01698,169.05838 L -402.22526,169.05838 C -402.22526,169.05838 -414.8861,189.64317 -422.4851,203.11641 C -431.10897,218.3894 -443.56983,242.86119 -443.56983,242.86119 C -443.56983,242.86119 -435.60838,211.66529 -432.12134,191.20547 C -430.62153,182.43162 -428.63429,169.05838 -428.63429,169.05838"
         style="fill:#fff100;fill-rule:nonzero;stroke:none"
         id="path18" />
      <path
         d="M -400.90043,274.39455 L -369.51705,274.39455 L -328.18497,169.05838 L -359.06842,169.05838 L -400.90043,274.39455"
         style="fill:#fff100;fill-rule:nonzero;stroke:none"
         id="path20" />
      <path
         d="M -269.56766,230.95025 L -279.52886,169.05838 L -311.07472,169.05838 L -352.91923,274.39455 L -321.53585,274.39455 L -298.62635,213.00261 C -298.62635,213.00261 -290.15246,270.37008 -288.3277,274.39455 L -257.94419,274.39455 L -216.93707,169.05838 L -247.32058,169.05838 C -264.41834,213.84 -269.56766,230.95025 -269.56766,230.95025"
         style="fill:#fff100;fill-rule:nonzero;stroke:none"
         id="path22" />
      <path
         d="M -184.89128,217.20206 L -141.88442,217.20206 L -163.80654,274.39455 L -184.22886,274.39455 L -180.66683,263.07104 C -190.54053,272.90725 -199.82682,276.69425 -213.74999,276.54427 C -225.04851,276.43179 -233.4724,275.45691 -241.15889,267.1955 C -251.59502,255.94697 -246.84565,230.35033 -238.0218,209.15311 C -226.6108,181.75671 -204.32623,166.02127 -175.5925,166.37123 C -162.23175,166.54621 -151.65814,168.57094 -143.88416,179.45701 C -137.64748,188.16837 -136.18517,196.10483 -138.89731,206.46597 L -169.11835,206.46597 C -169.80576,201.06668 -170.94311,192.35532 -181.91667,192.24283 C -195.96482,192.11785 -206.55093,203.69133 -211.80025,218.31441 C -216.96207,232.70003 -222.31137,252.94737 -201.16414,253.77226 C -192.94022,254.08472 -184.04139,248.8729 -178.91706,240.01157 L -193.8526,240.01157 L -184.89128,217.20206"
         style="fill:white;fill-rule:nonzero;stroke:none"
         id="path24" />
      <path
         d="M -77.667846,202.86644 L -101.6772,238.08682 L -79.61759,238.08682 L -77.667846,202.86644 z M -160.03204,274.39455 L -80.155019,169.05838 L -49.021604,169.05838 L -51.696253,274.39455 L -82.304737,274.39455 L -82.304737,259.82147 L -116.26278,259.82147 L -126.7739,274.39455 L -160.03204,274.39455"
         style="fill:white;fill-rule:evenodd;stroke:none"
         id="path26" />
      <path
         d="M 30.305487,203.21639 L 60.014088,203.21639 C 60.901472,193.70514 61.813852,185.6187 55.402193,177.88222 C 47.665709,168.55844 32.10525,167.80854 24.806208,167.80854 C 10.220622,167.80854 -10.26419,172.40794 -20.375363,189.19323 C -25.899638,198.35453 -30.099087,213.8025 -20.912793,223.35125 C -14.701108,229.8129 -8.1394688,230.95025 0.77186185,233.94986 C 8.2458811,236.46203 17.157212,237.91184 17.157212,243.64859 C 17.157212,251.41007 8.4208582,255.15958 2.2091733,254.9846 C -9.1768327,254.64715 -12.726367,250.29772 -12.901344,240.78646 L -43.322352,240.78646 C -46.446942,250.32271 -46.23447,258.52164 -39.960293,266.29562 C -32.836228,275.09446 -17.188281,277.62538 -5.6148001,278.16281 C 6.9960451,278.74898 28.530719,273.65715 37.779506,262.70859 C 45.753459,253.25983 49.165512,247.43559 48.815558,234.31231 C 48.478102,221.72647 38.866863,215.25231 25.693592,211.30283 C 17.007231,208.70317 4.6963469,207.34085 4.8713239,200.8917 C 5.0587993,194.11759 12.407835,191.01799 19.106956,191.16797 C 26.755952,191.35545 31.567821,196.20481 30.305487,203.21639"
         style="fill:white;fill-rule:nonzero;stroke:none"
         id="path28" />
      <path
         d="M -567.13362,307.63144 L 90.660067,307.63144 M -567.13362,-21.11667 L 90.660067,-21.11667"
         style="fill:none;stroke:white;stroke-width:0.59867144;stroke-linecap:butt;stroke-linejoin:miter;stroke-miterlimit:10;stroke-dasharray:none"
         id="path30" />
    </g>
  </g>
</svg>
