<?xml version="1.0" encoding="UTF-8" standalone="no"?>
<svg xmlns:rdf="http://www.w3.org/1999/02/22-rdf-syntax-ns#" xmlns="http://www.w3.org/2000/svg" height="60.509" width="213.134" version="1.1" xmlns:cc="http://creativecommons.org/ns#" xmlns:xlink="http://www.w3.org/1999/xlink" xmlns:dc="http://purl.org/dc/elements/1.1/">
 <g fill="#e8282c" fill-rule="evenodd">
  <path d="m53.5815 18.9193c0.93613 1.37312 1.73838 2.9175 2.67438 4.46288l1.46975 2.40388 0.2685-0.172375 2.543-4.292 1.46824-2.57325h10.7021v0.170875l-2.14012 3.26275c-0.400375 0.515625-0.9375 1.20012-1.206 1.71388l-2.13874 3.09225-0.80075 1.20212-1.73688 2.57475-2.01062 2.74662c-0.26475 0.34275-0.53225 0.857875-0.80088 1.3705v8.07275h-7.89162v-8.07275l-0.266-0.33925-2.40725-3.43612-2.80913-4.11862-1.73925-2.40375-1.3355-2.06162-2.54287-3.6035h10.6996"/>
  <path d="m82.7369 37.6327c0 0.339375-0.267625 0.51125-0.53375 0.683625-1.07175 0.6895-2.40725 0.6895-3.74612 0.6895-1.07075 0-2.13762-0.171875-3.07612-0.861875-0.13575-0.171875-0.13575-0.34175-0.13575-0.51125 0.13575-0.86175 0.805625-0.86175 1.206-1.20262 1.07088-0.34425 2.2745-0.34425 3.34475-0.34425 0.400375 0.17 0.6665 0.17 1.06838 0.17 0.534625 0.17425 1.20212 0.345125 1.73925 0.857875 0.133375 0.17575 0.267625 0.34575 0.133375 0.519zm5.35-10.1294c-0.533125-0.515125-1.07025-0.859375-1.60738-1.20262-1.87012-1.20112-4.01025-1.54538-6.14888-1.71625-0.67 0-1.20462-0.171-1.87362 0-0.80075 0-1.8715 0-2.67475 0.170875-1.47225 0.171375-2.80762 0.515625-4.1455 1.03075-1.46975 0.857875-3.2105 2.23238-3.479 4.46488-0.132875 0.170875-0.132875 0.34175 0 0.514125h8.29338c0.401875-0.6885 1.07088-0.860875 1.604-1.02925 1.20512-0.173375 2.40725-0.173375 3.47812 0.34075 0.533125 0.174375 1.07025 0.857875 1.07025 1.54638 0 0.172375-0.13425 0.172375-0.13425 0.172375-0.669-0.172375-1.33788-0.345625-2.13862-0.5175-0.9375 0-1.87362-0.171-2.80862-0.171h-0.9365c-0.266125 0.171-0.669 0-0.9375 0-2.5415 0.171-5.08062 1.02788-6.95312 3.09088-0.537125 0.6845-0.9375 1.543-1.06938 2.57325-0.40288 2.40475 0.668875 4.46388 2.273 5.665 0.2685 0.17575 0.534625 0.519 0.802125 0.689 1.73688 1.20311 3.877 1.37302 6.01812 1.37302 1.47212-0.169912 2.94188-0.3457 4.28075-1.20365 0.53375-0.339375 1.06688-0.682625 1.604-1.20362v0.86425h7.356v-11.1596c0-1.71875-0.80075-3.26175-1.87262-4.292"/>
  <path d="m92.6329 18.9193h7.49162v13.733l0.26712-0.1685 1.46975-2.40725 2.67575-4.63525h8.69338v0.172375c-0.669 1.03025-1.3355 2.0605-1.87263 2.91988l-2.40725 4.11875-0.935 1.3705c0 0.174875 0.13188 0.174875 0.13188 0.34675l0.66887 0.856 1.87263 2.23388c0.53462 0.6845 1.07175 1.3745 1.73575 2.23238l2.544 3.08988v0.17325h-9.49513l-1.6055-2.23525-1.60637-2.2325-1.60163-2.40138-0.40375-0.688375c-0.13187 0-0.13187 0.17325-0.13187 0.17325l0.13187 7.38425h-7.48687v-0.17325l-0.136625-21.1172v-2.57325-0.171875"/>
  <path d="m114.703 25.4413h7.08738v7.72512 0.688c0.13438 1.543 1.06688 2.9165 2.14113 3.605 0.80325 0.34275 1.73825 0.6845 2.67575 0.34275 1.20124-0.34275 2.40812-1.54638 2.67437-3.08938 0.13375-0.69 0.13375-1.54638 0.13375-2.40375v-6.86775h7.22125v1.3745l0.1325 15.9659-1.3375 0.17325h-5.88375v-1.3745h-0.1325c-1.60688 1.71388-3.61125 2.74761-5.88663 3.0894-2.13874 0-4.1455-0.687025-5.88387-2.05815-1.74075-1.54875-2.81-4.1245-2.94188-6.871v-10.127-0.172375"/>
  <path d="m139.179 18.9193h7.355v4.46288l0.1325 19.3995c-0.66875 0.17325-1.3375 0-2.0075 0h-5.48l-0.135-23.0044v-0.858h0.135"/>
  <path d="m148.941 25.4413h4.54625v-6.522h0.26875 6.68625c0.1325 0 0.1325 0.171875 0.1325 0.171875v6.17975l0.13375 0.170375h4.41125v5.49312 0.172375h-4.545v1.71875l0.13375 3.09088v0.513625c0 0.859375 0.40125 1.71388 1.0725 2.05712 0.26625 0.17675 0.53375 0.34675 0.8025 0.34675 0.1325 0.171875 0.26625 0 0.535 0 0.66875-0.17 1.20375-0.861875 1.3325-1.72025 0.1375-0.51275 0.1375-1.02788 0.1375-1.543h7.355 0.5325c0 0.515125-0.13125 1.03025-0.26375 1.543-0.53625 2.57812-2.275 4.977-4.1475 6.18062-2.13875 1.20365-4.54625 1.54301-6.955 1.20365-0.40125 0-0.6675 0-1.0675-0.169913-2.00625-0.345237-3.745-1.54636-5.0825-3.60836-0.94-1.71388-1.4725-3.606-1.4725-5.66412v-3.94875h-4.41375-0.1325v-5.6655"/>
  <path d="m175.736 29.1562v1.13038h0.6975c0.60875 0 1.44375 0.09862 1.44375-0.516125 0-0.580125-0.46875-0.61425-1.01125-0.61425h-1.13zm2.73625 3.872h-0.74l-1.16375-2.09375h-0.8325v2.09375h-0.655v-4.53262h1.8975c0.835 0 1.56 0.254375 1.56 1.20362 0 0.895-0.59625 1.21962-1.20125 1.23525l1.135 2.09375zm-5.2225-2.29238c0 1.89688 1.54375 3.375 3.38125 3.375 1.84125 0 3.38625-1.47812 3.38625-3.375 0-1.90775-1.545-3.378-3.38625-3.378-1.8375 0-3.38125 1.47025-3.38125 3.378zm-0.65625 0c0-2.24275 1.78-4.03088 4.0375-4.03088 2.25875 0 4.04875 1.78812 4.04875 4.03088 0 2.23875-1.79 4.03075-4.04875 4.03075-2.2575 0-4.0375-1.792-4.0375-4.03075"/>
  <path d="m31.8799 31.8099h-0.13575c-0.018-0.422375-0.0279-0.84375-0.0279-1.2695 0-0.127 0.0108-0.249 0.0156-0.375-0.005-0.1255-0.0156-0.2475-0.0156-0.3745 0-0.42475 0.01-0.847125 0.0279-1.26712h0.13575c3.2626-20.5639 56.4671-21.1132 69.329-21.0766v-3.43412h-21.897c-8.3105 0-72.9565-1.39988-75.2441 24.8013h-0.0283c-0.0259 0.477-0.0396 0.956-0.0396 1.4404 0 0.484875 0.0137 0.964375 0.0391 1.44138h0.0283c2.2876 26.1987 66.9336 24.7998 75.2441 24.7998h21.897v-3.6084c-12.8609 0.0356-66.0654-0.5161-69.3281-21.0777"/>
  <path d="m209.095 28.8143h-0.0288c-2.287-26.2011-66.936-24.8012-75.245-24.8012h-22.3241v3.43662c10.559-0.05525 67.0516-0.13675 70.4179 21.0741h0.13375c0.0225 0.42 0.03 0.842375 0.03 1.26712 0 0.127-0.0125 0.249-0.015 0.3745 0.002 0.126 0.015 0.248 0.015 0.375 0 0.42575-0.007 0.847125-0.03 1.2695h-0.13375c-3.36625 21.2085-59.8589 21.129-70.4179 21.0718v3.61425h22.3241c8.30875 0 72.9575 1.39892 75.245-24.7998h0.0288c0.025-0.477 0.0387-0.9565 0.0387-1.44138 0-0.484375-0.0137-0.963375-0.0387-1.4405"/>
 </g>
</svg>
