<?xml version="1.0" encoding="UTF-8" standalone="no"?>
<!-- Generator: Adobe Illustrator 10.0, SVG Export Plug-In . SVG Version: 3.0.0 Build 77)  -->

<svg
   xmlns:ns5="http://ns.adobe.com/SaveForWeb/1.0/"
   xmlns:ns4="http://ns.adobe.com/Variables/1.0/"
   xmlns:ns3="http://ns.adobe.com/AdobeIllustrator/10.0/"
   xmlns:dc="http://purl.org/dc/elements/1.1/"
   xmlns:cc="http://creativecommons.org/ns#"
   xmlns:rdf="http://www.w3.org/1999/02/22-rdf-syntax-ns#"
   xmlns:svg="http://www.w3.org/2000/svg"
   xmlns="http://www.w3.org/2000/svg"
   xmlns:sodipodi="http://sodipodi.sourceforge.net/DTD/sodipodi-0.dtd"
   xmlns:inkscape="http://www.inkscape.org/namespaces/inkscape"
   ns3:viewOrigin="47.9404 549.769"
   ns3:rulerOrigin="0 0"
   ns3:pageBounds="0 793 595 0"
   width="300"
   height="300"
   viewBox="0 0 300 300"
   overflow="visible"
   enable-background="new 0 0 499.004 303.564"
   xml:space="preserve"
   id="svg2"
   version="1.1"
   inkscape:version="0.91 r13725"
   sodipodi:docname="youme_logo.svg"
   style="overflow:visible"><defs
     id="defs37" /><sodipodi:namedview
     pagecolor="#ffffff"
     bordercolor="#666666"
     borderopacity="1"
     objecttolerance="10"
     gridtolerance="10"
     guidetolerance="10"
     inkscape:pageopacity="0"
     inkscape:pageshadow="2"
     inkscape:window-width="1920"
     inkscape:window-height="1017"
     id="namedview35"
     showgrid="false"
     inkscape:zoom="0.98997372"
     inkscape:cx="-12.983547"
     inkscape:cy="165.3893"
     inkscape:window-x="-8"
     inkscape:window-y="-8"
     inkscape:window-maximized="1"
     inkscape:current-layer="レイヤー_1"><inkscape:grid
       type="xygrid"
       id="grid3392" /></sodipodi:namedview><metadata
     id="metadata4"><ns4:variableSets><ns4:variableSet
         varSetName="binding1"
         locked="none"><ns4:variables /><ns4:sampleDataSets /></ns4:variableSet></ns4:variableSets><ns5:sfw><ns5:slices /><ns5:sliceSourceBounds
         x="-7894"
         y="-7795"
         width="16383"
         height="16383"
         bottomLeftOrigin="true" /></ns5:sfw><rdf:RDF><cc:Work
         rdf:about=""><dc:format>image/svg+xml</dc:format><dc:type
           rdf:resource="http://purl.org/dc/dcmitype/StillImage" /><dc:title /></cc:Work></rdf:RDF></metadata><g
     id="レイヤー_1"
     ns3:layer="yes"
     ns3:dimmedPercent="50"
     ns3:rgbTrio="#4F008000FFFF"
     transform="translate(0,-3.5639861)"><path
       ns3:knockout="Off"
       d="m 300,303.56399 -295.735007,0 C -41.767204,-96.436014 300,-96.436014 300,303.56399 Z"
       id="path13"
       inkscape:connector-curvature="0"
       style="fill:#ffffff"
       sodipodi:nodetypes="ccc" /><path
       ns3:knockout="Off"
       d="m 300,303.56399 -300,0 0,-300.0000043 300,0 z M 150.29192,192.18752 c 2.2671,-4.00295 6.2623,-7.78809 13.288,-7.78809 9.2598,0 8.4106,17.18769 8.4106,17.18769 l 0.011,36.34116 22.5588,0 0.022,-40.5311 c 0,0 2.7071,-32.04889 -22.5797,-32.04889 -15.6618,0 -24.6323,12.94936 -24.6323,12.94936 0,0.0111 -4.0931,-12.94936 -19.6581,-12.94936 -15.6519,0 -24.6323,12.94936 -24.6323,12.94936 l 0.0968,-12.92736 -21.1948,-0.0219 0,72.57999 21.098,0 0.022,-36.34115 c 0,0 1.2353,-17.1877 16.1997,-17.1877 9.2598,0 8.4007,17.1877 8.4007,17.1877 l 0.011,36.34115 22.5797,0 0.011,-40.5311 z m -91.9644,-55.8163 c 0.7953,2.24512 0.7414,5.01716 0.0319,7.34809 -2.5355,8.315 -11.4081,9.26541 -18.9816,8.4272 l 0,14.20117 c 12.3211,2.24513 27.5,2.05702 33.3652,-9.63612 14.2329,-28.31654 35.35291,-87.592958 35.35291,-87.592958 l -22.76231,0 -13.3738,42.083208 -13.3848,-42.083208 -23.1704,0 c 0,0 14.7807,44.559338 22.9229,67.252618 z m 118.1532,-30.80368 c 0,0 3.3627,-36.437938 -36.6421,-36.437938 -40.014699,0 -36.8566,36.426938 -36.8566,36.426938 0,0 -3.158099,36.44894 36.8566,36.44894 40.0048,0 36.6421,-36.43794 36.6421,-36.43794 z m -22.0319,-0.1078 c 0,0 1.1605,20.74845 -14.7169,20.74845 -15.8774,0 -14.7378,-20.74845 -14.7378,-20.74845 0,0 -1.1385,-20.733049 14.7378,-20.733049 15.8763,0 14.7169,20.733049 14.7169,20.733049 z m 47.9301,36.24434 c 15.6728,0 24.6422,-12.94496 24.6422,-12.94496 l -0.0858,12.91196 22.6446,0.0319 0,-72.584379 -22.5588,0 -0.022,36.341139 c 0,0 -1.2243,17.19321 -16.1887,17.19321 -9.2708,0 -8.4216,-17.19321 -8.4216,-17.19321 l -0.011,-36.341139 -22.5698,0 -0.011,40.531089 c 0.001,0 -2.69501,32.05439 22.5819,32.05439 z m 17.1336,66.56453 45.1066,0 c 0,0 4.3934,-42.90932 -32.6997,-42.90932 -41.6471,0 -33.8272,42.89942 -33.8272,42.89942 0,0 3.3517,29.64866 35.7819,29.64866 19.7769,0.0219 24.8897,-4.35055 24.8897,-4.35055 l 0.011,-15.87759 c 0,0 -8.1422,5.30646 -21.2157,5.30646 -17.4339,0 -18.0466,-14.71708 -18.0466,-14.71708 z m 0.4191,-13.93276 c 0,-8.40741 5.5858,-15.22639 12.4828,-15.22639 6.886,0 12.4608,6.81898 12.4608,15.22639 z"
       id="path33"
       inkscape:connector-curvature="0"
       style="fill:#c60079;fill-opacity:1"
       sodipodi:nodetypes="ccccccsccccscsccccccscccccccccccccccccscsccscscsccccccsccccsccsccccsccscc" /></g></svg>