<?xml version="1.0" encoding="UTF-8" standalone="no"?>
<!DOCTYPE svg PUBLIC "-//W3C//DTD SVG 1.1//EN" "http://www.w3.org/Graphics/SVG/1.1/DTD/svg11.dtd">
<svg width="100%" height="100%" viewBox="0 0 309 110" version="1.1" xmlns="http://www.w3.org/2000/svg" xmlns:xlink="http://www.w3.org/1999/xlink" xml:space="preserve" xmlns:serif="http://www.serif.com/" style="fill-rule:evenodd;clip-rule:evenodd;stroke-linejoin:round;stroke-miterlimit:2;">
    <g id="アートボード1" transform="matrix(0.782037,0,0,0.536042,-299.65,-617.607)">
        <rect x="383.166" y="1152.16" width="393.929" height="204.976" style="fill:none;"/>
        <g transform="matrix(7.10395,0,0,10.364,-106.581,-1143.92)">
            <g id="Untitled">
                <path d="M92.202,226.379L95.122,226.379L96.007,229.756L93.1,229.756L92.202,226.379Z" style="fill-rule:nonzero;"/>
                <path d="M84.471,227.752L86.44,227.754L86.731,226.343L89.638,226.343L89.284,227.666L91.748,227.666C92.248,227.666 92.635,228.135 92.635,228.611L92.635,232.633C92.635,233.019 92.347,233.318 91.985,233.318L88.236,233.318L88.236,232.565L89.269,232.576C89.638,232.576 89.817,232.332 89.817,231.997L89.817,229.174C89.915,228.664 89.657,228.492 89.088,228.492L87.746,233.318L84.797,233.318L86.206,228.501L84.233,228.486L84.471,227.752Z" style="fill-rule:nonzero;"/>
                <path d="M78.617,227.887C76.861,227.887 75.829,229.09 75.829,231.017C75.829,232.54 77.377,233.771 78.782,233.771C80.181,233.771 81.756,232.571 81.756,231.155C81.756,229.734 80.982,227.887 78.617,227.887M84.295,232.632C83.644,234.698 82.027,236.159 80.151,237.181C78.291,238.191 75.635,238.2 73.394,236.82C71.968,235.943 69.939,234.125 69.939,231.964L72.684,231.964C72.684,233.505 73.365,235.354 74.284,236.123C75.57,237.207 77.177,237.462 78.782,236.85C80.466,236.212 81.615,234.967 81.615,233.453C80.62,234.891 79.37,235.538 77.439,235.538C75.152,235.538 73.001,233.845 73.001,230.793C73.001,228.184 75.057,226.158 77.904,226.158C80.339,226.158 81.79,228.355 81.79,228.355L81.792,225.083L69.555,225.083L69.601,224.422L81.778,224.422L81.778,222.435L84.532,222.435L84.519,224.346L86.968,224.334L86.956,225.065L84.506,225.083C84.506,225.083 84.527,230.311 84.527,230.985C84.527,231.658 84.295,232.632 84.295,232.632" style="fill-rule:nonzero;"/>
                <path d="M99.199,230.02L102.55,226.462C102.86,226.051 103.599,226.08 103.727,226.462L105.654,233.205L102.822,233.205C102.404,231.635 102.045,230.18 101.585,228.771L101.41,228.771C100.108,230.352 98.672,231.807 97.378,233.242C96.935,233.516 96.348,233.234 96.348,232.743L96.348,226.364L99.183,226.374L99.199,230.02Z" style="fill-rule:nonzero;"/>
                <path d="M98.409,233.991C98.409,236.75 101.4,239.439 104.56,239.439C107.922,239.439 109.966,237.312 109.966,235.096C109.966,232.767 108.562,231.589 107.498,231.102C106.893,230.826 105.361,230.768 105.361,230.768L105.361,226.282L108.195,226.282L108.195,230.614C110.174,230.712 112.796,231.931 112.796,235.008C112.796,238.618 108.84,240.139 105.154,240.139C102.67,240.139 100.894,239.347 98.89,238.221C97.067,237.185 95.585,234.822 95.326,233.991L98.409,233.991Z" style="fill-rule:nonzero;"/>
                <path d="M112.403,229.597L109.481,229.597C109.226,228.492 108.969,227.392 108.711,226.281L111.546,226.281L112.403,229.597Z" style="fill-rule:nonzero;"/>
                <path d="M120.553,232.661C120.464,232.909 120.495,233.189 120.616,233.361L122.695,236.029L121.663,236.04L118.499,231.934C118.241,231.602 118.241,231.12 118.409,230.761L120.295,226.281L123.211,226.281L120.553,232.661Z" style="fill-rule:nonzero;"/>
                <rect x="112.744" y="229.017" width="5.752" height="0.579" style="fill-rule:nonzero;"/>
            </g>
        </g>
    </g>
</svg>
