<?xml version="1.0" encoding="UTF-8" standalone="no"?>
<!-- Created with Inkscape (http://www.inkscape.org/) -->

<svg
   xmlns:dc="http://purl.org/dc/elements/1.1/"
   xmlns:cc="http://creativecommons.org/ns#"
   xmlns:rdf="http://www.w3.org/1999/02/22-rdf-syntax-ns#"
   xmlns:svg="http://www.w3.org/2000/svg"
   xmlns="http://www.w3.org/2000/svg"
   xmlns:sodipodi="http://sodipodi.sourceforge.net/DTD/sodipodi-0.dtd"
   xmlns:inkscape="http://www.inkscape.org/namespaces/inkscape"
   width="540"
   height="536.99988"
   id="svg2"
   version="1.1"
   inkscape:version="0.47 r22583"
   sodipodi:docname="Novi dokument 1">
  <defs
     id="defs4" />
  <sodipodi:namedview
     id="base"
     pagecolor="#ffffff"
     bordercolor="#666666"
     borderopacity="1.0"
     inkscape:pageopacity="0.0"
     inkscape:pageshadow="2"
     inkscape:zoom="0.91731006"
     inkscape:cx="270"
     inkscape:cy="268.49991"
     inkscape:document-units="px"
     inkscape:current-layer="layer1"
     showgrid="false"
     inkscape:window-width="1024"
     inkscape:window-height="749"
     inkscape:window-x="-4"
     inkscape:window-y="-4"
     inkscape:window-maximized="1" />
  <metadata
     id="metadata7">
    <rdf:RDF>
      <cc:Work
         rdf:about="">
        <dc:format>image/svg+xml</dc:format>
        <dc:type
           rdf:resource="http://purl.org/dc/dcmitype/StillImage" />
        <dc:title></dc:title>
        <cc:license
           rdf:resource="http://creativecommons.org/licenses/by-sa/3.0/" />
      </cc:Work>
      <cc:License
         rdf:about="http://creativecommons.org/licenses/by-sa/3.0/">
        <cc:permits
           rdf:resource="http://creativecommons.org/ns#Reproduction" />
        <cc:permits
           rdf:resource="http://creativecommons.org/ns#Distribution" />
        <cc:requires
           rdf:resource="http://creativecommons.org/ns#Notice" />
        <cc:requires
           rdf:resource="http://creativecommons.org/ns#Attribution" />
        <cc:permits
           rdf:resource="http://creativecommons.org/ns#DerivativeWorks" />
        <cc:requires
           rdf:resource="http://creativecommons.org/ns#ShareAlike" />
      </cc:License>
    </rdf:RDF>
  </metadata>
  <g
     inkscape:label="Layer 1"
     inkscape:groupmode="layer"
     id="layer1"
     transform="translate(-390,-549.57648)">
    <g
       transform="matrix(1.2439278,0,0,-1.2439278,289.76032,1341.701)"
       inkscape:label="ink_ext_XXXXXX"
       id="g2826">
      <g
         transform="scale(0.1,0.1)"
         id="g2828">
        <path
           id="path2830"
           style="fill:#303493;fill-opacity:1;fill-rule:evenodd;stroke:none"
           d="m 805.832,6367.93 4341.088,0 0,-4316.97 -4341.088,0 0,4316.97 z M 3385.97,2733.11 c -9.3,0 -17.12,0 -22.83,0 l -36.57,0 c -105.27,0 -178.62,-16.21 -219.21,-48.24 -40.79,-32.05 -61.3,-90.74 -61.3,-175.67 0,-78.81 15.64,-133.03 46.5,-162.47 30.86,-29.43 89,-44.16 173.56,-44.16 53.47,0 86.87,5.23 99.98,15.47 13.11,10.25 19.87,32.23 19.87,65.39 l 0,349.68 z m 657.7,2031.25 0,-84.29 c 0,-81.57 17.46,-140.29 52.2,-175.55 34.93,-35.46 93.45,-53.29 175.36,-53.29 70.6,0 121.87,17.25 153.27,51.35 31.4,34.1 47.19,90.67 47.19,169.36 0,40.68 -4.46,66.45 -13.01,76.72 -8.54,10.47 -30.64,15.7 -65.94,15.7 l -349.07,0 z m -361.47,-1520.77 0,-0.18 773.93,0 20.48,361.39 -25.23,0 c -19.14,-113.48 -65.96,-213.98 -116.62,-259.32 -50.53,-45.24 -129.26,-68.17 -235.43,-68.17 -52.9,0 -86.02,5.59 -97.9,17.32 -11.59,11.47 -16.96,43.68 -16.96,94.88 l 0,349.3 4.33,0 21.48,2.03 c 31.57,2.98 81.06,-11.79 111.2,-37.58 30.14,-25.79 57.35,-118.44 57.35,-182.74 l 23.88,0 0,450.51 -23.88,0 c 0,-53.69 -9.05,-123.85 -52.96,-161.06 -29.5,-25.01 -66.89,-37.38 -114.76,-37.38 l -26.64,0 0,345.93 c 0,39.03 7.69,63.55 22.7,72.76 14.99,9.22 51.49,13.82 109.33,13.82 100.25,0 173.55,-20.97 219.26,-63.01 45.61,-41.93 86.06,-138.55 101.85,-243.74 l 23.65,0 -1.38,345.07 -750.52,0 0,-0.67 -47.66,0 c -17.09,0 -31.77,1.36 -43.66,3.68 -11.89,2.33 -22.11,6.21 -30.28,11.05 -17.09,10.08 -25.83,24.03 -25.83,41.47 0,18.38 12.45,33.5 37.35,44.74 24.9,11.24 60.56,17.04 107.01,17.04 l 18.95,0 c 40.5,0 77.29,5.05 109.98,14.74 32.7,9.69 61.12,22.28 84.72,37.78 45.69,29.46 80.44,76.93 104.03,142.04 15.25,-82.55 44.97,-146.89 88.81,-193 43.66,-46.11 96.61,-69.16 158.45,-69.16 34.93,0 68,8.72 99.21,25.95 31.21,17.05 56.85,40.11 76.92,68.79 19.87,28.68 33.99,61.81 42.16,99.21 8.18,37.19 12.27,89.71 12.27,157.14 l 0,390.44 -30.1,0 0,-44.37 c 0,-34.49 -6.13,-57.75 -18.21,-69.37 -12.07,-11.63 -34.37,-17.43 -66.32,-17.43 l -772.09,0 c -33.08,0 -55.18,6 -66.32,17.62 -11.15,11.63 -16.73,34.69 -16.73,69.18 l 0,44.37 -32.88,0 0,-401.48 32.88,0 0,46.69 c 0,34.49 5.39,57.35 15.98,68.2 10.59,10.87 33.07,16.29 67.07,16.29 l 394.41,0 0,-66.85 c 0,-65.5 -10.41,-110.45 -30.84,-134.09 -10.57,-12.6 -26.01,-22.67 -45.7,-29.65 -19.7,-6.98 -43.65,-10.46 -71.52,-10.46 l -67.81,-2.91 c -49.23,0 -92.9,-3.49 -130.79,-10.27 -37.9,-6.59 -67.26,-15.5 -87.69,-25.96 -28.24,-14.53 -49.98,-33.53 -64.84,-56.58 -14.86,-22.86 -22.29,-49.42 -22.29,-79.05 0,-46.11 15.03,-81.56 44.94,-106.36 29.93,-24.81 72.1,-37.21 125.97,-37.21 l 66.52,0 0,0.13 29.12,0 c 34.93,0 58.62,-5.71 70.46,-16.76 11.84,-11.05 17.76,-32.61 17.76,-64.3 l 0,-765.86 c 0,-16.57 -1.58,-30.2 -4.54,-40.89 -2.96,-10.5 -7.12,-18.8 -12.63,-24.14 -11.03,-10.66 -35.14,-15.84 -71.05,-15.84 l -68.09,0 0,0.05 -395.82,-2.29 c -38.48,-0.21 -71.88,-0.94 -99.36,-2.79 -27.48,-1.86 -52.64,-4.66 -75.47,-8.38 -44.4,-7.45 -82.22,-19.57 -113.51,-36.33 -45.45,-24.23 -81.17,-56.08 -106.52,-95.21 -13.53,-20.86 -23.89,-41.72 -30.23,-62.04 -6.34,-20.11 -9.51,-41.36 -9.51,-63.34 0,-66.32 26.42,-122.59 79.26,-168.42 52.62,-45.83 127.88,-77.87 225.12,-95.57 -84.56,-11.92 -153.26,-40.81 -205.47,-86.07 -52,-45.28 -78.2,-97.45 -78.2,-156.11 0,-75.08 30,-132.46 89.82,-171.96 59.82,-39.5 146.93,-59.24 260.64,-59.24 l 453.44,0 0,32.96 -48.41,0 c -37.42,0 -62.78,5.79 -75.47,16.96 -12.68,11.18 -19.03,32.98 -19.03,65.02 l 0,774.45 c 0,33.91 6.78,56.64 19.88,67.82 13.1,11.18 38.27,16.77 74.62,16.77 l 49.96,0 z m -1290.76,2290.27 294.02,0 -145.11,498.22 -148.91,-498.22 z m 263.04,-367.65 0,32.92 c 33.97,0 59.4,14.66 76.16,24.78 16.82,10.16 25.18,25.3 25.18,44.83 0,5.02 0,10.43 0,16 -1.41,5.58 -2.59,9.68 -3,11.91 l -9,37.77 -43.17,149.02 -324.81,0 -41.16,-141.4 -7,-32.92 -2.2,-27.17 c 0,-24.55 8.59,-42.97 25.38,-54.51 8,-5.58 20.16,-10.08 32.6,-14.71 12.43,-4.62 32.44,-8.52 50.95,-7.26 l 23.84,-0.6 0,-647.97 -33.4,0 -958.56,511.94 -0.18,-96.59 c 0,-112.61 22.2,-193.01 66.43,-240.63 44.21,-47.64 122.59,-78.13 234.73,-91.08 l 0,-30.67 -333.23,0 0,603.57 26.57,0 964.05,-514.03 0,105.17 c 0,123.08 -28.84,213.19 -86.54,269.59 -57.68,56.4 -158.08,92.79 -300.61,108.41 l 0,32.95 128.64,-3.26 c 25.09,5.77 47.25,18.42 66.39,37.87 27.22,27.66 50.67,72.16 69.54,133.21 l 246.36,796.44 85.65,0 250.86,-830.68 c 16.58,-56.37 34.57,-93.02 53.34,-109.39 18.69,-16.3 76.07,-35.9 115.98,-40.4 33.64,5.21 89.45,4.82 102.62,12.43 14.58,8.43 22.68,17.91 22.68,30.42 0,11.46 -10.5,28.13 -31.12,49.38 l -21.75,23.55 c -21.18,24.38 -37.67,52.09 -49.29,82.51 -11.63,30.41 -17.62,63.13 -17.62,97.52 0,105.84 49.67,195.64 148.64,268.99 98.98,73.33 224.37,110.01 375.46,110.01 154.47,0 281.72,-36.68 381.26,-110.01 99.53,-73.35 149.4,-163.57 149.4,-270.46 0,-50.63 -15.75,-98.55 -46.86,-143.35 -31.31,-44.79 -47.62,-69.17 -48.36,-72.72 0,-6.25 3.18,-13.13 9.18,-20.42 3.18,-4.17 7.12,-8.33 11.24,-12.08 4.13,-3.76 9.38,-7.71 15.38,-11.46 l 45.17,-28.96 0,-35.22 -364.76,-12.5 0,38.34 c 107.39,28.13 191.55,68.55 252.1,120.85 60.56,52.52 90.92,111.26 90.92,175.85 0,72.1 -40.87,125.22 -122.6,158.98 -81.72,33.76 -209.92,50.85 -384.06,50.85 -169.08,0 -290.92,-17.72 -365.53,-52.72 -74.6,-35.22 -112.09,-91.89 -112.09,-169.6 0,-60.01 21.38,-105.67 63.74,-136.69 42.34,-31.03 17.93,-46.67 100.61,-46.67 l 157.07,0 c 32.43,0 54.81,6.21 66.36,18.33 11.63,12.22 17.62,37.54 17.62,75.01 l 0,39.81 31.68,0 0,-394.62 -31.68,0 0,25.83 c 0,37.46 -5.78,62.77 -17.25,74.79 -11.55,12.11 -33.98,17.47 -66.73,18.33 l -363.24,13.33 -397.98,-0.74 z m 731.49,-2402.92 0,372.24 c 0,48.07 -6.13,78.25 -18.18,90.17 -12.05,11.93 -37.84,17.89 -76.94,17.89 -96.4,0 -164.25,-18.45 -203.36,-54.96 -39.32,-36.52 -58.98,-98.56 -58.98,-185.75 0,-86.81 22.41,-148.48 66.79,-184.81 44.4,-36.52 121.77,-54.78 231.27,-54.78 l 59.4,0" />
        <path
           id="path2832"
           style="fill:#fbc707;fill-opacity:1;fill-rule:nonzero;stroke:none"
           d="m 1929.37,4082.64 0,-529.18 459.67,0 c 242.97,0 398.07,91.38 394.65,279.63 -3.28,181.38 -133.72,249.55 -371.92,249.55 l -482.4,0 z m -455.22,361.59 911.56,0 c 447.52,0 868.2,-56.56 868.2,-601.07 0,-501.91 -408.77,-643.67 -838.81,-643.67 l -485.73,0 0,-945.73 -455.22,0 0,2190.47" />
      </g>
    </g>
  </g>
</svg>
