<?xml version="1.0" encoding="UTF-8" standalone="no"?>
<svg xmlns="http://www.w3.org/2000/svg" width="442" height="502">
 <path d="m435.96 6.04h-429.96v309.97c0 119.99 84.992 179.98 214.98 179.98 129.99 0 214.98-59.995 214.98-179.98v-309.97" fill="#da121a"/>
 <rect y="176" x="221" height="65" width="215" fill="#fff"/>
 <g transform="translate(-4-6)">
  <g fill-rule="evenodd">
   <g fill="#fff" stroke="#000" stroke-linejoin="round" stroke-linecap="round" stroke-width="2">
    <path d="m249 182v-97h-5l22-29 22 29h-5v97z"/>
    <path d="m309.34 182h43.828l-.169-107h10v-17h-10v4l-21.5-33-21.5 33v-4h-10v17h10z"/>
    <path d="m373 85c5-8 8-16 10-27h26c2 11 5 19 10 27h-6v97h-34v-97z"/>
    <path d="m233 167h8v15h-8z"/>
   </g>
   <path d="m263 115h6v-12c0-6-6-6-6 0z"/>
   <path d="m259 182h13v-15c0-11-13-11-13 0z"/>
   <path d="m329 88h5v6h6v5h-6v6h-5v-6h-6v-5h6z"/>
  </g>
  <g fill="#fff" stroke="#000" stroke-linejoin="round" stroke-linecap="round" stroke-width="2">
   <circle cx="266" cy="52.5" r="4.5"/>
   <circle cx="331.5" cy="27.5" r="4.5"/>
   <circle cx="384" cy="52.5" r="4.5"/>
   <circle cx="408" cy="52.5" r="4.5"/>
  </g>
  <g fill-rule="evenodd">
   <path d="m387 115h6v-12c0-6-6-6-6 0z"/>
   <path d="m399 115h6v-12c0-6-6-6-6 0z"/>
   <path d="m389.5 182h13v-15c0-11-13-11-13 0z"/>
   <path d="m322 182h19v-20c0-14-19-14-19 0z"/>
   <g fill="#fff" stroke="#000" stroke-linejoin="round" stroke-linecap="round" stroke-width="2">
    <path d="m292 167h8v15h-8z"/>
    <path d="m362 167h8v15h-8z"/>
    <path d="m421.5 167h8v15h-8z"/>
   </g>
  </g>
 </g>
 <g fill-rule="evenodd">
  <g fill="#fff">
   <path d="m31 416h190v80c-63.842.459-159.32-22.671-190-80"/>
   <g stroke="#000" stroke-linejoin="round" stroke-linecap="round" stroke-width="2">
    <path d="m40.852 416v-97h-5l22-29 22 29h-5v97z"/>
    <path d="m98.84 416h43.828l-.169-107h10v-17h-10v4l-21.5-33-21.5 33v-4h-10v17h10z"/>
    <path d="m160.85 319c5-8 8-16 10-27h26c2 11 5 19 10 27h-6v97h-34v-97z"/>
    <path d="m25.652 401h9.2v15h-3.852c-1.597-5-5.446-10-5.348-15z"/>
   </g>
  </g>
  <path d="m54.852 349h6v-12c0-6-6-6-6 0z"/>
  <path d="m50.852 416h13v-15c0-11-13-11-13 0z"/>
  <path d="m118.5 322h5v6h6v5h-6v6h-5v-6h-6v-5h6z"/>
 </g>
 <g fill="#fff" stroke="#000" stroke-linejoin="round" stroke-linecap="round" stroke-width="2">
  <circle r="4.5" cy="286.5" cx="57.852"/>
  <circle r="4.5" cy="261.5" cx="121"/>
  <circle r="4.5" cy="286.5" cx="171.85"/>
  <circle r="4.5" cy="286.5" cx="195.85"/>
 </g>
 <g fill-rule="evenodd">
  <path d="m174.85 349h6v-12c0-6-6-6-6 0z"/>
  <path d="m186.85 349h6v-12c0-6-6-6-6 0z"/>
  <path d="m177.35 416h13v-15c0-11-13-11-13 0z"/>
  <path d="m111.5 416h19v-20c0-14-19-14-19 0z"/>
  <g stroke="#000" stroke-linejoin="round" stroke-linecap="round">
   <g fill="#fff" stroke-width="2">
    <path d="m83 401h8v15h-8z"/>
    <path d="m150.5 401h8v15h-8z"/>
    <path d="m207 401h8v15h-8z"/>
    <path d="m119.55 54.704c-1.415-9.389 5.675-8.66 12.3-7.917 3.457.388 11.516-5.876 16.528-6.02 7.782-.217 15.314 3.868 18.818 11.53 3.02 6.606.869 14.44-4.524 19.793 12.562-.36 22.973 7.92 38.467 6.1-.231 2.379-.433 3.777-1.551 6.323 3.629.26 7.685.812 12.143-3.516.724 6.774-1.624 10.875-6.645 13.714 1.969.941 3.568.428 6.221.141-8.992 12.416-22.626 16.12-32.8 18.804-13.378 3.535-31.669 4.659-40.576-5.797-10.781-12.654-8.606-25.71 3.393-34.07 8.39-5.848 22.24-9.38 16.824-19.228-5.937-10.796-18.798-2.945-26.01 5.09-3.362 3.743-14.918 7.367-12.583-4.948z"/>
   </g>
   <path d="m139.3 118.74c6.646 2.206 11.922 3.398 18.347 4.199 1.246.155 1.393 1.317.171 1.449-6.971.754-11.183 1.401-17.727 3.863.809-3.316-1.518-3.497-3.239-4.283 2.02-1.262 4.306-2.416 2.448-5.228z" stroke-width=".5"/>
   <path d="m110.06 65.01c3.267-2.3 5.093-2.121 7.106-5.05 2.346-3.41 5.858-4.62 5.901-5.839.04-1.146-2.669.46-3.252-4.807-3.328-1.339-4.673 2.993-7.07 5.686-1.564 1.757-5.424 2.146-6.644 3.786-2.294 3.084-1.628 5.677 2.969 2.828-1.184 2.536-2.108 5.573.99 3.393z"/>
   <path d="m162.61 119.3c6.928 1.025 10.217 1.307 16.672.997 1.254-.06 1.449.856.322 1.189-6.04 1.78-9.351 2.692-15.372 6.246.224-3.406-1.499-2.582-3.33-3.06 1.768-1.592 4.02-2.923 1.708-5.372z" stroke-width=".5"/>
   <path d="m29.23 58.704c-1.415-9.389 5.675-8.66 12.3-7.917 3.457.388 11.516-5.876 16.528-6.02 7.782-.217 15.314 3.868 18.818 11.53 3.02 6.606.869 14.44-4.524 19.793 12.562-.36 22.973 7.92 38.467 6.1-.231 2.379-.433 3.777-1.551 6.323 3.629.26 7.685.812 12.143-3.516.724 6.774-1.624 10.875-6.645 13.714 1.969.941 3.568.428 6.221.141-8.992 12.416-22.626 16.12-32.8 18.804-13.378 3.535-31.669 4.659-40.576-5.797-10.781-12.654-8.606-25.71 3.393-34.07 8.39-5.848 22.24-9.38 16.824-19.228-5.937-10.796-18.798-2.945-26.01 5.09-3.362 3.743-14.918 7.367-12.583-4.948z" fill="#fff" stroke-width="2"/>
   <path d="m48.986 122.74c6.646 2.206 11.922 3.398 18.347 4.199 1.246.155 1.393 1.317.171 1.449-6.971.754-11.183 1.401-17.727 3.863.809-3.316-1.518-3.497-3.239-4.283 2.02-1.262 4.306-2.416 2.448-5.228z" stroke-width=".5"/>
   <path d="m19.744 69.01c3.267-2.3 5.093-2.121 7.106-5.05 2.346-3.41 5.858-4.62 5.901-5.839.04-1.146-2.669.46-3.252-4.807-3.328-1.339-4.673 2.993-7.07 5.686-1.564 1.757-5.424 2.146-6.644 3.786-2.294 3.084-1.628 5.677 2.969 2.828-1.184 2.536-2.108 5.573.99 3.393z"/>
   <path d="m72.29 123.3c6.928 1.025 10.217 1.307 16.672.997 1.254-.06 1.449.856.322 1.189-6.04 1.78-9.351 2.692-15.372 6.246.224-3.406-1.499-2.582-3.33-3.06 1.768-1.592 4.02-2.923 1.708-5.372z" stroke-width=".5"/>
   <path d="m85.62 147.87c-1.415-9.389 5.675-8.66 12.3-7.917 3.457.388 11.516-5.876 16.528-6.02 7.782-.217 15.314 3.868 18.818 11.53 3.02 6.606.869 14.44-4.524 19.793 12.562-.36 22.973 7.92 38.467 6.1-.231 2.379-.433 3.777-1.551 6.323 3.629.26 7.685.812 12.143-3.516.724 6.774-1.624 10.875-6.645 13.714 1.969.941 3.568.428 6.221.141-8.992 12.416-22.626 16.12-32.8 18.804-13.378 3.535-31.669 4.659-40.576-5.797-10.781-12.654-8.606-25.71 3.393-34.07 8.39-5.848 22.24-9.38 16.824-19.228-5.937-10.796-18.798-2.945-26.01 5.09-3.362 3.743-14.918 7.367-12.583-4.948z" fill="#fff" stroke-width="2"/>
   <path d="m105.37 211.91c6.646 2.206 11.922 3.398 18.347 4.199 1.246.155 1.393 1.317.171 1.449-6.971.754-11.183 1.401-17.727 3.863.809-3.316-1.518-3.497-3.239-4.283 2.02-1.262 4.306-2.416 2.448-5.228z" stroke-width=".5"/>
   <path d="m76.13 158.17c3.267-2.3 5.093-2.121 7.106-5.05 2.346-3.41 5.858-4.62 5.901-5.839.04-1.146-2.669.46-3.252-4.807-3.328-1.339-4.673 2.993-7.07 5.686-1.564 1.757-5.424 2.146-6.644 3.786-2.294 3.084-1.628 5.677 2.969 2.828-1.184 2.536-2.108 5.573.99 3.393z"/>
   <path d="m128.68 212.46c6.928 1.025 10.217 1.307 16.672.997 1.254-.06 1.449.856.322 1.189-6.04 1.78-9.351 2.692-15.372 6.246.224-3.406-1.499-2.582-3.33-3.06 1.768-1.592 4.02-2.923 1.708-5.372z" stroke-width=".5"/>
   <path d="m331.25 283.34c-1.415-9.389 5.675-8.66 12.3-7.917 3.457.388 11.516-5.876 16.528-6.02 7.782-.217 15.314 3.868 18.818 11.53 3.02 6.606.869 14.44-4.524 19.793 12.562-.36 22.973 7.92 38.467 6.1-.231 2.379-.433 3.777-1.551 6.323 3.629.26 7.685.812 12.143-3.516.724 6.774-1.624 10.875-6.645 13.714 1.969.941 3.568.428 6.221.141-8.992 12.416-22.626 16.12-32.8 18.804-13.378 3.535-31.669 4.659-40.576-5.797-10.781-12.654-8.606-25.71 3.393-34.07 8.39-5.848 22.24-9.38 16.824-19.228-5.937-10.796-18.798-2.945-26.01 5.09-3.362 3.743-14.918 7.367-12.583-4.948z" fill="#fff" stroke-width="2"/>
   <path d="m351.01 347.37c6.646 2.206 11.922 3.398 18.347 4.199 1.246.155 1.393 1.317.171 1.449-6.971.754-11.183 1.401-17.727 3.863.809-3.316-1.518-3.497-3.239-4.283 2.02-1.262 4.306-2.416 2.448-5.228z" stroke-width=".5"/>
   <path d="m321.76 293.64c3.267-2.3 5.093-2.121 7.106-5.05 2.346-3.41 5.858-4.62 5.901-5.839.04-1.146-2.669.46-3.252-4.807-3.328-1.339-4.673 2.993-7.07 5.686-1.564 1.757-5.424 2.146-6.644 3.786-2.294 3.084-1.628 5.677 2.969 2.828-1.184 2.536-2.108 5.573.99 3.393z"/>
   <path d="m374.31 347.93c6.928 1.025 10.217 1.307 16.672.997 1.254-.06 1.449.856.322 1.189-6.04 1.78-9.351 2.692-15.372 6.246.224-3.406-1.499-2.582-3.33-3.06 1.768-1.592 4.02-2.923 1.708-5.372z" stroke-width=".5"/>
   <path d="m240.94 287.34c-1.415-9.389 5.675-8.66 12.3-7.917 3.457.388 11.516-5.876 16.528-6.02 7.782-.217 15.314 3.868 18.818 11.53 3.02 6.606.869 14.44-4.524 19.793 12.562-.36 22.973 7.92 38.467 6.1-.231 2.379-.433 3.777-1.551 6.323 3.629.26 7.685.812 12.143-3.516.724 6.774-1.624 10.875-6.645 13.714 1.969.941 3.568.428 6.221.141-8.992 12.416-22.626 16.12-32.8 18.804-13.378 3.535-31.669 4.659-40.576-5.797-10.781-12.654-8.606-25.71 3.393-34.07 8.39-5.848 22.24-9.38 16.824-19.228-5.937-10.796-18.798-2.945-26.01 5.09-3.362 3.743-14.918 7.367-12.583-4.948z" fill="#fff" stroke-width="2"/>
   <path d="m260.69 351.37c6.646 2.206 11.922 3.398 18.347 4.199 1.246.155 1.393 1.317.171 1.449-6.971.754-11.183 1.401-17.727 3.863.809-3.316-1.518-3.497-3.239-4.283 2.02-1.262 4.306-2.416 2.448-5.228z" stroke-width=".5"/>
   <path d="m231.45 297.64c3.267-2.3 5.093-2.121 7.106-5.05 2.346-3.41 5.858-4.62 5.901-5.839.04-1.146-2.669.46-3.252-4.807-3.328-1.339-4.673 2.993-7.07 5.686-1.564 1.757-5.424 2.146-6.644 3.786-2.294 3.084-1.628 5.677 2.969 2.828-1.184 2.536-2.108 5.573.99 3.393z"/>
   <path d="m284 351.93c6.928 1.025 10.217 1.307 16.672.997 1.254-.06 1.449.856.322 1.189-6.04 1.78-9.351 2.692-15.372 6.246.224-3.406-1.499-2.582-3.33-3.06 1.768-1.592 4.02-2.923 1.708-5.372z" stroke-width=".5"/>
   <path d="m287.32 378.51c-1.415-9.389 5.675-8.66 12.3-7.917 3.457.388 11.516-5.876 16.528-6.02 7.782-.217 15.314 3.868 18.818 11.53 3.02 6.606.869 14.44-4.524 19.793 12.562-.36 22.973 7.92 38.467 6.1-.231 2.379-.433 3.777-1.551 6.323 3.629.26 7.685.812 12.143-3.516.724 6.774-1.624 10.875-6.645 13.714 1.969.941 3.568.428 6.221.141-8.992 12.416-22.626 16.12-32.8 18.804-13.378 3.535-31.669 4.659-40.576-5.797-10.781-12.654-8.606-25.71 3.393-34.07 8.39-5.848 22.24-9.38 16.824-19.228-5.937-10.796-18.798-2.945-26.01 5.09-3.362 3.743-14.918 7.367-12.583-4.948z" fill="#fff" stroke-width="2"/>
   <path d="m307.08 442.54c6.646 2.206 11.922 3.398 18.347 4.199 1.246.155 1.393 1.317.171 1.449-6.971.754-11.183 1.401-17.727 3.863.809-3.316-1.518-3.497-3.239-4.283 2.02-1.262 4.306-2.416 2.448-5.228z" stroke-width=".5"/>
   <path d="m277.84 388.81c3.267-2.3 5.093-2.121 7.106-5.05 2.346-3.41 5.858-4.62 5.901-5.839.04-1.146-2.669.46-3.252-4.807-3.328-1.339-4.673 2.993-7.07 5.686-1.564 1.757-5.424 2.146-6.644 3.786-2.294 3.084-1.628 5.677 2.969 2.828-1.184 2.536-2.108 5.573.99 3.393z"/>
   <path d="m330.38 443.1c6.928 1.025 10.217 1.307 16.672.997 1.254-.06 1.449.856.322 1.189-6.04 1.78-9.351 2.692-15.372 6.246.224-3.406-1.499-2.582-3.33-3.06 1.768-1.592 4.02-2.923 1.708-5.372z" stroke-width=".5"/>
   <path d="m436 241h-430m215-235v490" fill="none" stroke-width="3"/>
  </g>
 </g>
 <g fill="none" stroke="#000" stroke-linejoin="round" stroke-linecap="round">
  <path d="m435.96 6.04h-429.96v309.97c0 119.99 84.992 179.98 214.98 179.98 129.99 0 214.98-59.995 214.98-179.98v-309.97" stroke-width="5.999"/>
  <path d="m133.89 484.76c2.225-2.146 3.978-4.779 8.28-4.779 7.261 0 7.261 7.5 14.522 7.5 7.261 0 7.261-7.5 14.522-7.5 7.261 0 7.261 7.5 14.522 7.5 7.261 0 7.261-7.5 14.522-7.5 7.261 0 7.261 7.5 14.522 7.5 2.98 0 4.737-1.263 6.275-2.753m-.057-308.73h215m-405 240h190m-179.15-97h34m23.648-23v5h8v-9h9.5v9h8v-9h9.5v9h8v-5m-43 13h43m25.352 10h34m-155.11 117.78c2.233-2.149 3.984-4.796 8.298-4.796 7.261 0 7.261 7.5 14.522 7.5 7.261 0 7.261-7.5 14.522-7.5 7.182.328 7.261 7.5 14.522 7.5 7.261 0 7.261-7.5 14.522-7.5 7.261 0 7.261 7.5 14.522 7.5 7.261 0 7.261-7.5 14.522-7.5 7.261 0 7.261 7.5 14.522 7.5 7.261 0 7.261-7.5 14.522-7.5 7.261 0 7.261 7.5 14.522 7.5 7.261 0 7.261-7.5 14.522-7.5 7.261 0 7.261 7.5 14.522 7.5 3.04 0 4.807-1.315 6.367-2.843m-166.11 7.343c7.261 0 7.261 7.5 14.522 7.5 7.261 0 7.261-7.5 14.522-7.5 7.182.328 7.261 7.5 14.522 7.5 7.261 0 7.261-7.5 14.522-7.5 7.261 0 7.261 7.5 14.522 7.5 7.261 0 7.261-7.5 14.522-7.5 7.261 0 7.261 7.5 14.522 7.5 7.261 0 7.261-7.5 14.522-7.5 7.261 0 7.261 7.5 14.522 7.5 7.261 0 7.261-7.5 14.522-7.5 7.261 0 7.261 7.5 14.522 7.5 2.976 0 4.732-1.26 6.268-2.746m-145.7 12.449c2.456-2.205 4.144-5.203 8.734-5.203 7.182.328 7.261 7.5 14.522 7.5 7.261 0 7.261-7.5 14.522-7.5 7.261 0 7.261 7.5 14.522 7.5 7.261 0 7.261-7.5 14.522-7.5 7.261 0 7.261 7.5 14.522 7.5 7.261 0 7.261-7.5 14.522-7.5 7.261 0 7.261 7.5 14.522 7.5 7.261 0 7.261-7.5 14.522-7.5 7.261 0 7.261 7.5 14.522 7.5 2.977 0 4.733-1.26 6.27-2.748m-119.32 14.18c4.344-1.748 5.362-6.932 11.398-6.932 7.261 0 7.261 7.5 14.522 7.5 7.261 0 7.261-7.5 14.522-7.5 7.261 0 7.261 7.5 14.522 7.5 7.261 0 7.261-7.5 14.522-7.5 7.261 0 7.261 7.5 14.522 7.5 7.261 0 7.261-7.5 14.522-7.5 7.261 0 7.261 7.5 14.522 7.5 2.98 0 4.737-1.263 6.275-2.753m.568-237.25c7.261 0 7.261-7.5 14.522-7.5 7.261 0 7.261 7.5 14.522 7.5 7.261 0 7.261-7.5 14.522-7.5 7.261 0 7.261 7.5 14.522 7.5 7.261 0 7.261-7.5 14.522-7.5 7.182.328 7.261 7.5 14.522 7.5 7.261 0 7.261-7.5 14.522-7.5 7.261 0 7.261 7.5 14.522 7.5 7.261 0 7.261-7.5 14.522-7.5 7.261 0 7.261 7.5 14.522 7.5 7.261 0 7.261-7.5 14.522-7.5 7.261 0 7.261 7.5 14.522 7.5 7.261 0 7.261-7.5 14.522-7.5 7.261 0 7.261 7.5 14.522 7.5 5.849 0 6.986-4.867 11-6.759m-214.31-5.241c7.261 0 7.261-7.5 14.522-7.5 7.261 0 7.261 7.5 14.522 7.5 7.261 0 7.261-7.5 14.522-7.5 7.261 0 7.261 7.5 14.522 7.5 7.261 0 7.261-7.5 14.522-7.5 7.182.328 7.261 7.5 14.522 7.5 7.261 0 7.261-7.5 14.522-7.5 7.261 0 7.261 7.5 14.522 7.5 7.261 0 7.261-7.5 14.522-7.5 7.261 0 7.261 7.5 14.522 7.5 7.261 0 7.261-7.5 14.522-7.5 7.261 0 7.261 7.5 14.522 7.5 7.261 0 7.261-7.5 14.522-7.5 7.261 0 7.261 7.5 14.522 7.5 5.849 0 6.986-4.867 11-6.759m-214.31-5.241c7.261 0 7.261-7.5 14.522-7.5 7.261 0 7.261 7.5 14.522 7.5 7.261 0 7.261-7.5 14.522-7.5 7.261 0 7.261 7.5 14.522 7.5 7.261 0 7.261-7.5 14.522-7.5 7.182.328 7.261 7.5 14.522 7.5 7.261 0 7.261-7.5 14.522-7.5 7.261 0 7.261 7.5 14.522 7.5 7.261 0 7.261-7.5 14.522-7.5 7.261 0 7.261 7.5 14.522 7.5 7.261 0 7.261-7.5 14.522-7.5 7.261 0 7.261 7.5 14.522 7.5 7.261 0 7.261-7.5 14.522-7.5 7.261 0 7.261 7.5 14.522 7.5 5.849 0 6.986-4.867 11-6.759m-214.31-5.241c7.261 0 7.261-7.5 14.522-7.5 7.261 0 7.261 7.5 14.522 7.5 7.261 0 7.261-7.5 14.522-7.5 7.261 0 7.261 7.5 14.522 7.5 7.261 0 7.261-7.5 14.522-7.5 7.182.328 7.261 7.5 14.522 7.5 7.261 0 7.261-7.5 14.522-7.5 7.261 0 7.261 7.5 14.522 7.5 7.261 0 7.261-7.5 14.522-7.5 7.261 0 7.261 7.5 14.522 7.5 7.261 0 7.261-7.5 14.522-7.5 7.261 0 7.261 7.5 14.522 7.5 7.261 0 7.261-7.5 14.522-7.5 7.261 0 7.261 7.5 14.522 7.5 5.849 0 6.986-4.867 11-6.759m-59.933-113.73h34m-104-10h43m-43-13v5h8v-9h9.5v9h8v-9h9.5v9h8v-5m-103 23h34m63.41 365.21l7.768-8.09m-30.21 10.695l9.146-6.887m.331-44.04c-12.837 1.882-22.2 10.133-22.06 19.511.131 8.618 7.578 16.369 16.966 17.39 6.091.663 11.689-.592 15.552-6.504 8.099 1.229 11.903-2.911 13.997-9.19 7.454 1.265 11.352-5.115 12.457-8.784m-70.33-55.27l7.768-8.09m-30.21 10.695l9.146-6.887m.331-44.04c-12.837 1.882-22.2 10.133-22.06 19.511.131 8.618 7.578 16.369 16.966 17.39 6.091.663 11.689-.592 15.552-6.504 8.099 1.229 11.903-2.911 13.997-9.19 7.454 1.265 11.352-5.115 12.457-8.784m66.36 31.893l7.768-8.09m-30.21 10.695l9.146-6.887m.331-44.04c-12.837 1.882-22.2 10.133-22.06 19.511.131 8.618 7.578 16.369 16.966 17.39 6.091.663 11.689-.592 15.552-6.504 8.099 1.229 11.903-2.911 13.997-9.19 7.454 1.265 11.352-5.115 12.457-8.784m-269.59-99.58l7.768-8.09m-30.21 10.695l9.146-6.887m.331-44.04c-12.837 1.882-22.2 10.133-22.06 19.511.131 8.618 7.578 16.369 16.966 17.39 6.091.663 11.689-.592 15.552-6.504 8.099 1.229 11.903-2.911 13.997-9.19 7.454 1.265 11.352-5.115 12.457-8.784m-80.33-53.27l7.768-8.09m-30.21 10.695l9.146-6.888m.331-44.04c-12.837 1.882-22.2 10.133-22.06 19.511.131 8.618 7.578 16.369 16.966 17.39 6.091.663 11.689-.592 15.552-6.504 8.099 1.229 11.903-2.911 13.997-9.19 7.454 1.265 11.352-5.115 12.457-8.784m66.36 31.893l7.768-8.09m-30.21 10.695l9.146-6.888m.331-44.04c-12.837 1.882-22.2 10.133-22.06 19.511.131 8.618 7.578 16.369 16.966 17.39 6.091.663 11.689-.592 15.552-6.504 8.099 1.229 11.903-2.911 13.997-9.19 7.454 1.265 11.352-5.115 12.457-8.784" fill-rule="evenodd" stroke-width="2"/>
 </g>
</svg>
