<?xml version="1.0" encoding="UTF-8" standalone="no"?>
<svg
   width="375px"
   height="326px"
   viewBox="0 0 375 326"
   version="1.1"
   id="svg13"
   sodipodi:docname="warning.svg"
   inkscape:version="1.1.1 (1:1.1+202109281949+c3084ef5ed)"
   xmlns:inkscape="http://www.inkscape.org/namespaces/inkscape"
   xmlns:sodipodi="http://sodipodi.sourceforge.net/DTD/sodipodi-0.dtd"
   xmlns:xlink="http://www.w3.org/1999/xlink"
   xmlns="http://www.w3.org/2000/svg"
   xmlns:svg="http://www.w3.org/2000/svg">
  <defs
     id="defs17" />
  <sodipodi:namedview
     id="namedview15"
     pagecolor="#505050"
     bordercolor="#eeeeee"
     borderopacity="1"
     inkscape:pageshadow="0"
     inkscape:pageopacity="0"
     inkscape:pagecheckerboard="0"
     showgrid="false"
     inkscape:zoom="1.4642107"
     inkscape:cx="178.936"
     inkscape:cy="206.93743"
     inkscape:current-layer="svg13" />
  <use
     xlink:href="#image14"
     id="use2"
     x="0"
     y="0"
     width="100%"
     height="100%" />
  <path
     style="fill:#d80000;fill-opacity:1;fill-rule:nonzero;stroke:#850000;stroke-width:6.171;stroke-linecap:round;stroke-linejoin:round;stroke-miterlimit:4;stroke-opacity:1"
     d="m 182.39842,4.4414152 c -4.16407,0.2148439 -7.9336,2.5156259 -10.02735,6.1171888 L 5.6367161,298.55475 c -2.2109375,3.82423 -2.2148435,8.53517 -0.01953,12.35939 2.1992189,3.82031 6.2695309,6.18359 10.6796879,6.18359 l 332.496056,0.52343 c 4.41016,0.0196 8.4961,-2.33202 10.70703,-6.14452 2.21094,-3.82422 2.21875,-8.52735 0.0273,-12.35938 L 193.73044,10.597667 C 191.41013,6.5742282 187.02732,4.1953217 182.40232,4.4375091 Z"
     id="path4"
     sodipodi:nodetypes="ccccccccccc" />
  <path
     style="fill:url(#linear1);fill-rule:nonzero;stroke:url(#linear2);stroke-width:24.6776;stroke-linecap:round;stroke-linejoin:round;stroke-miterlimit:4"
     d="M 348.73433,305.21885 16.37501,304.67979 183.03123,16.843729 348.73433,305.27744 Z m 0,0"
     id="path6" />
  <path
     style="fill:#ffffff;fill-opacity:1;fill-rule:nonzero;stroke:none;stroke-width:1.10954"
     d="m 182.44462,69.008328 c -2.84753,0.151695 -5.43067,1.755324 -6.86527,4.264788 L 61.244899,273.97819 c -1.508278,2.65249 -1.512612,5.93777 -0.0087,8.60326 1.508278,2.66116 4.299461,4.30812 7.324686,4.30812 l 227.988435,0.37274 c 3.0209,0 5.81209,-1.63397 7.33336,-4.28646 1.52562,-2.66548 1.52562,-5.94209 0.0216,-8.61626 L 190.22005,73.303455 c -1.59062,-2.804185 -4.58985,-4.459824 -7.77543,-4.295127 z m 0,0"
     id="path8" />
  <path
     style="fill:#000000;fill-opacity:1;fill-rule:nonzero;stroke:none"
     d="m 186.20703,216.78125 h -5.26953 c -0.54297,-9.33594 -2.35938,-20.52734 -5.4375,-33.55078 l -6.26563,-26.55469 c -3.75,-15.91406 -5.625,-27.3125 -5.625,-34.1875 0,-13.89062 6.6211,-20.83594 19.875,-20.83594 5.80079,0 10.59766,1.91797 14.37891,5.75782 3.77734,3.84375 5.67188,8.74609 5.67188,14.70312 0,6.33203 -1.99219,17.84766 -5.98829,34.5625 l -6.35546,26.55469 c -2.23047,9.33594 -3.89844,20.51953 -4.98438,33.55078 z M 183.75,234.20703 c 6.17578,0 10.95312,2.10156 14.33984,6.3125 3.39453,4.20703 5.08203,8.70313 5.08203,13.50391 0,6.32031 -2.05468,11.1914 -6.16796,14.60937 -4.11719,3.41016 -8.52735,5.10938 -13.25391,5.10938 -6.22656,0 -11.02344,-2.08594 -14.37891,-6.26563 -3.35547,-4.17578 -5.03125,-8.66406 -5.03125,-13.45312 0,-5.58985 1.85547,-10.29297 5.57422,-14.10547 3.72266,-3.81641 8.33985,-5.71094 13.83594,-5.71094 z m 0,0"
     id="path10" />
</svg>
