<?xml version="1.0" encoding="UTF-8" standalone="yes"?>
<svg xmlns="http://www.w3.org/2000/svg" xmlns:xlink="http://www.w3.org/1999/xlink" width="328px" height="374px" viewBox="0 0 328 374" version="1.1">
  <g id="surface1">
    <path style=" stroke:none;fill-rule:nonzero;fill:rgb(100%,100%,100%);fill-opacity:1;" d="M 328.25 186.207031 C 328.25 289.484375 254.78125 373.207031 164.152344 373.207031 C 73.523438 373.207031 0.0507812 289.484375 0.0507812 186.207031 C 0.0507812 82.929688 73.523438 -0.792969 164.152344 -0.792969 C 254.78125 -0.792969 328.25 82.929688 328.25 186.207031 Z M 328.25 186.207031 "/>
    <path style=" stroke:none;fill-rule:evenodd;fill:rgb(0%,0%,0%);fill-opacity:1;" d="M 128.941406 108.324219 C 140.230469 107.28125 149 97.5625 149 86.191406 C 149 73.957031 139.011719 63.976562 126.769531 63.976562 C 114.527344 63.976562 104.542969 73.957031 104.542969 86.191406 C 104.542969 89.925781 105.585938 93.742188 107.324219 96.953125 L 115.242188 208.34375 L 196.8125 208.367188 L 230.265625 286.71875 L 274.191406 269.5 L 267.390625 253.3125 L 242.808594 262.179688 L 210.4375 187.484375 L 134.597656 187.992188 L 133.554688 173.886719 L 188.457031 173.90625 L 188.457031 153.035156 L 131.460938 153.011719 Z M 128.941406 108.324219 "/>
    <path style=" stroke:none;fill-rule:evenodd;fill:rgb(0%,0%,0%);fill-opacity:1;" d="M 210.980469 268.070312 C 197.210938 295.273438 168.394531 313.195312 137.660156 313.195312 C 92.515625 313.195312 55.695312 276.390625 55.695312 231.269531 C 55.695312 199.585938 74.90625 170.144531 103.574219 157.09375 L 105.425781 181.292969 C 88.472656 191.96875 78.019531 211.238281 78.019531 231.433594 C 78.019531 264.167969 104.730469 290.863281 137.480469 290.863281 C 167.441406 290.863281 192.988281 267.882812 196.472656 238.398438 Z M 210.980469 268.070312 "/>
  </g>
</svg>