<svg width="512" height="512" viewBox="0 0 512 512" fill="none" xmlns="http://www.w3.org/2000/svg">
<path d="M187.682 12H258.891L174.118 310.833L69 422.896L187.682 12Z" fill="#1390A5"/>
<path d="M228.373 249.708L272.455 205.562L442 497.604H367.4L228.373 249.708Z" fill="#00387D"/>
<path d="M152.728 229.333V170.06H173.42C177.543 170.06 180.943 170.774 183.622 172.203C186.3 173.611 188.294 175.511 189.604 177.904C190.914 180.277 191.569 182.911 191.569 185.805C191.569 188.352 191.116 190.455 190.211 192.114C189.324 193.774 188.149 195.086 186.685 196.05C185.24 197.015 183.67 197.729 181.974 198.192V198.771C183.785 198.886 185.606 199.523 187.436 200.681C189.267 201.839 190.798 203.498 192.031 205.659C193.265 207.82 193.881 210.463 193.881 213.589C193.881 216.56 193.206 219.233 191.858 221.606C190.509 223.979 188.38 225.86 185.471 227.25C182.562 228.639 178.776 229.333 174.113 229.333H152.728ZM159.895 222.966H174.113C178.795 222.966 182.119 222.059 184.084 220.245C186.068 218.412 187.061 216.194 187.061 213.589C187.061 211.583 186.55 209.73 185.529 208.032C184.508 206.315 183.053 204.945 181.165 203.922C179.277 202.88 177.042 202.36 174.46 202.36H159.895V222.966ZM159.895 196.109H173.188C175.346 196.109 177.292 195.684 179.026 194.835C180.779 193.986 182.167 192.789 183.188 191.246C184.229 189.703 184.749 187.889 184.749 185.805C184.749 183.2 183.843 180.991 182.032 179.178C180.221 177.344 177.35 176.428 173.42 176.428H159.895V196.109ZM208.085 229.333H200.571L222.304 170.06H229.702L251.435 229.333H243.921L226.234 179.438H225.772L208.085 229.333ZM210.859 206.18H241.146V212.547H210.859V206.18ZM298.332 188.583C297.696 186.635 296.858 184.889 295.818 183.345C294.797 181.782 293.573 180.451 292.148 179.351C290.741 178.251 289.142 177.412 287.35 176.833C285.558 176.254 283.593 175.964 281.455 175.964C277.948 175.964 274.759 176.872 271.888 178.685C269.018 180.499 266.735 183.171 265.039 186.702C263.344 190.233 262.496 194.565 262.496 199.697C262.496 204.829 263.353 209.161 265.068 212.692C266.783 216.223 269.104 218.895 272.033 220.709C274.962 222.523 278.256 223.429 281.917 223.429C285.307 223.429 288.294 222.705 290.876 221.259C293.477 219.792 295.5 217.728 296.945 215.065C298.409 212.383 299.141 209.229 299.141 205.601L301.338 206.064H283.535V199.697H306.077V206.064C306.077 210.946 305.036 215.19 302.956 218.799C300.894 222.407 298.043 225.204 294.402 227.192C290.78 229.159 286.618 230.144 281.917 230.144C276.676 230.144 272.071 228.909 268.103 226.439C264.153 223.969 261.071 220.458 258.855 215.904C256.658 211.351 255.56 205.948 255.56 199.697C255.56 195.008 256.186 190.793 257.439 187.049C258.711 183.287 260.502 180.084 262.814 177.441C265.126 174.798 267.862 172.772 271.022 171.363C274.181 169.954 277.659 169.25 281.455 169.25C284.576 169.25 287.485 169.723 290.182 170.668C292.899 171.595 295.317 172.916 297.436 174.633C299.574 176.331 301.357 178.367 302.782 180.74C304.208 183.094 305.191 185.708 305.73 188.583H298.332ZM109.204 331.208V286.753H116.025V331.208H109.204ZM112.672 279.344C111.343 279.344 110.197 278.891 109.233 277.985C108.289 277.077 107.817 275.987 107.817 274.714C107.817 273.44 108.289 272.35 109.233 271.444C110.197 270.537 111.343 270.083 112.672 270.083C114.002 270.083 115.139 270.537 116.083 271.444C117.046 272.35 117.528 273.44 117.528 274.714C117.528 275.987 117.046 277.077 116.083 277.985C115.139 278.891 114.002 279.344 112.672 279.344ZM128.517 331.208V286.753H135.106V293.7H135.684C136.609 291.326 138.102 289.484 140.164 288.172C142.225 286.84 144.701 286.175 147.59 286.175C150.519 286.175 152.956 286.84 154.902 288.172C156.867 289.484 158.399 291.326 159.497 293.7H159.96C161.096 291.404 162.801 289.58 165.075 288.23C167.349 286.86 170.075 286.175 173.254 286.175C177.222 286.175 180.469 287.42 182.993 289.908C185.517 292.378 186.778 296.227 186.778 301.456V331.208H179.959V301.456C179.959 298.176 179.062 295.832 177.27 294.423C175.479 293.015 173.369 292.31 170.942 292.31C167.821 292.31 165.402 293.256 163.688 295.147C161.973 297.018 161.115 299.391 161.115 302.266V331.208H154.18V300.761C154.18 298.234 153.361 296.199 151.723 294.655C150.085 293.092 147.976 292.31 145.394 292.31C143.622 292.31 141.965 292.783 140.423 293.729C138.902 294.674 137.669 295.986 136.724 297.665C135.799 299.324 135.337 301.244 135.337 303.424V331.208H128.517ZM199.249 347.878V286.753H205.838V293.815H206.647C207.148 293.044 207.842 292.06 208.728 290.864C209.634 289.648 210.924 288.568 212.601 287.622C214.296 286.657 216.589 286.175 219.479 286.175C223.217 286.175 226.511 287.111 229.363 288.983C232.214 290.854 234.439 293.507 236.038 296.941C237.637 300.376 238.437 304.427 238.437 309.097C238.437 313.805 237.637 317.886 236.038 321.339C234.439 324.774 232.223 327.436 229.391 329.327C226.559 331.199 223.294 332.135 219.594 332.135C216.743 332.135 214.46 331.662 212.745 330.717C211.03 329.752 209.711 328.661 208.786 327.446C207.861 326.211 207.148 325.188 206.647 324.378H206.069V347.878H199.249ZM205.953 308.981C205.953 312.338 206.445 315.3 207.428 317.866C208.41 320.413 209.845 322.41 211.734 323.857C213.622 325.285 215.934 325.999 218.669 325.999C221.521 325.999 223.901 325.247 225.808 323.742C227.735 322.217 229.18 320.172 230.143 317.606C231.125 315.02 231.616 312.145 231.616 308.981C231.616 305.855 231.135 303.039 230.172 300.53C229.228 298.003 227.792 296.006 225.865 294.539C223.958 293.053 221.56 292.31 218.669 292.31C215.896 292.31 213.564 293.015 211.676 294.423C209.788 295.813 208.362 297.761 207.399 300.27C206.436 302.759 205.953 305.662 205.953 308.981ZM266.874 332.135C262.867 332.135 259.351 331.179 256.326 329.269C253.32 327.359 250.97 324.687 249.274 321.252C247.599 317.818 246.76 313.805 246.76 309.213C246.76 304.582 247.599 300.54 249.274 297.086C250.97 293.632 253.32 290.95 256.326 289.04C259.351 287.13 262.867 286.175 266.874 286.175C270.882 286.175 274.389 287.13 277.394 289.04C280.419 290.95 282.77 293.632 284.445 297.086C286.141 300.54 286.989 304.582 286.989 309.213C286.989 313.805 286.141 317.818 284.445 321.252C282.77 324.687 280.419 327.359 277.394 329.269C274.389 331.179 270.882 332.135 266.874 332.135ZM266.874 325.999C269.919 325.999 272.423 325.217 274.389 323.655C276.353 322.092 277.808 320.037 278.752 317.49C279.696 314.943 280.168 312.184 280.168 309.213C280.168 306.241 279.696 303.473 278.752 300.907C277.808 298.34 276.353 296.266 274.389 294.684C272.423 293.102 269.919 292.31 266.874 292.31C263.83 292.31 261.326 293.102 259.36 294.684C257.396 296.266 255.941 298.34 254.997 300.907C254.053 303.473 253.581 306.241 253.581 309.213C253.581 312.184 254.053 314.943 254.997 317.49C255.941 320.037 257.396 322.092 259.36 323.655C261.326 325.217 263.83 325.999 266.874 325.999ZM297.4 331.208V286.753H303.989V293.468H304.451C305.261 291.269 306.725 289.484 308.844 288.114C310.964 286.744 313.352 286.059 316.011 286.059C316.512 286.059 317.139 286.069 317.89 286.088C318.641 286.108 319.21 286.136 319.595 286.175V293.121C319.364 293.063 318.834 292.976 318.005 292.861C317.196 292.725 316.339 292.658 315.434 292.658C313.276 292.658 311.349 293.111 309.653 294.018C307.977 294.906 306.648 296.14 305.665 297.723C304.702 299.285 304.22 301.07 304.22 303.077V331.208H297.4ZM349.767 286.753V292.542H326.762V286.753H349.767ZM333.466 276.103H340.287V318.474C340.287 320.403 340.566 321.851 341.125 322.815C341.703 323.761 342.435 324.398 343.322 324.726C344.227 325.034 345.181 325.188 346.182 325.188C346.934 325.188 347.551 325.15 348.032 325.073C348.514 324.976 348.899 324.899 349.188 324.841L350.576 330.977C350.113 331.151 349.468 331.324 348.639 331.498C347.811 331.691 346.761 331.787 345.489 331.787C343.563 331.787 341.675 331.372 339.824 330.543C337.995 329.713 336.472 328.45 335.259 326.752C334.064 325.054 333.466 322.912 333.466 320.326V276.103Z" fill="black"/>
</svg>
