<?xml version="1.0" encoding="UTF-8" standalone="no"?>
<svg
   enable-background="new 0 0 255.1 255.1"
   version="1.1"
   viewBox="0 0 203.39999 192.65533"
   xml:space="preserve"
   id="svg2"
   sodipodi:docname="boat.svg"
   width="203.39999"
   height="192.65533"
   inkscape:version="1.3.2 (1:1.3.2+202311252150+091e20ef0f)"
   xmlns:inkscape="http://www.inkscape.org/namespaces/inkscape"
   xmlns:sodipodi="http://sodipodi.sourceforge.net/DTD/sodipodi-0.dtd"
   xmlns:xlink="http://www.w3.org/1999/xlink"
   xmlns="http://www.w3.org/2000/svg"
   xmlns:svg="http://www.w3.org/2000/svg"><sodipodi:namedview
   id="namedview2"
   pagecolor="#ffffff"
   bordercolor="#999999"
   borderopacity="1"
   inkscape:showpageshadow="2"
   inkscape:pageopacity="0"
   inkscape:pagecheckerboard="0"
   inkscape:deskcolor="#d1d1d1"
   inkscape:zoom="2.2971383"
   inkscape:cx="101.86587"
   inkscape:cy="97.294968"
   inkscape:window-width="1920"
   inkscape:window-height="995"
   inkscape:window-x="0"
   inkscape:window-y="0"
   inkscape:window-maximized="1"
   inkscape:current-layer="svg2" />
<style
   type="text/css"
   id="style1">
	.st0{fill:#AFDFF9;}
	.st1{clip-path:url(#a);}
</style>


	<defs
   id="defs1">
		<path
   id="b"
   d="M 126.9,6.9 H 22.8 c -8.9,0 -16,7.1 -16.1,16 v 208.3 c 0,8.9 7.2,16.1 16.1,16.1 H 231 c 8.9,0 16.1,-7.2 16.1,-16.1 V 22.9 C 247,14 239.9,6.9 231,6.9 Z" />
	</defs>
	<clipPath
   id="a">
		<use
   xlink:href="#b"
   id="use1" />
	</clipPath>
	<g
   class="st1"
   clip-path="url(#a)"
   id="g2"
   transform="translate(-25.7,-29.887382)">
		<path
   d="m 139.7,39.8 -0.3,-6 c -0.2,-1.3 -1.2,-2.3 -2.6,-2.6 -3.1,-0.9 -6.3,-1.4 -9.6,-1.3 -3.2,-0.1 -6.4,0.4 -9.5,1.3 -1.3,0.2 -2.4,1.2 -2.5,2.6 l -0.3,6 c 4,-0.8 8.1,-1.3 12.2,-1.3 4.3,0.1 8.5,0.5 12.6,1.3 m 60.2,86.5 C 198,121.7 190,120 185.2,117.4 H 185 V 65.1 c 0,-3.3 -2.7,-6 -6,-6 H 140.6 L 140,46.6 c -4.2,-0.9 -8.5,-1.3 -12.9,-1.3 -4.2,0 -8.4,0.5 -12.5,1.3 L 114,59.1 H 75.7 c -3.3,0 -6,2.7 -6,6 v 52.2 h -0.1 c -4.9,2.6 -12.8,4.3 -14.8,8.9 -0.9,1.8 -1,3.9 -0.1,5.8 4.9,12.5 10.3,24.9 15.5,37.1 v 20.1 c 2,0.5 4.1,0.7 6.1,0.6 4.9,0 6.7,-0.9 12.2,-3.7 3.8,-1.9 7.9,-2.9 12.1,-3.1 4.2,0.2 8.3,1.2 12.1,3.1 3.4,1.6 8.6,4.1 14.4,3.7 h 0.1 c 4.9,0 6.7,-0.9 12.2,-3.7 3.8,-1.9 7.9,-2.9 12.1,-3.1 4.2,0.2 8.3,1.2 12.1,3.1 3.4,1.6 8.6,4.1 14.4,3.7 2.2,0.1 4.3,-0.3 6.3,-1 v -19.6 c 5.2,-12.2 10.7,-24.6 15.6,-37.1 1,-1.9 0.9,-4 0,-5.8 M 173,112.6 171.9,112.2 127.4,94 82.9,112.2 81.8,112.6 V 71.1 H 173 Z m 41.7,85.9 c 3.4,1.6 8.6,4.1 14.4,3.7 v 20.3 c -5.9,0.4 -11,-2.1 -14.4,-3.7 -3.8,-1.9 -7.9,-2.9 -12.1,-3.1 -4.2,0.2 -8.3,1.2 -12.1,3.1 -5.5,2.7 -7.3,3.7 -12.2,3.7 -5.9,0.4 -11,-2.1 -14.4,-3.7 -3.8,-1.9 -7.9,-2.9 -12.1,-3.1 -4.2,0.2 -8.3,1.2 -12.1,3.1 -5.6,2.7 -7.4,3.7 -12.3,3.7 h -0.1 c -5.9,0.4 -11,-2.1 -14.4,-3.7 -3.8,-1.9 -7.9,-2.9 -12.1,-3.1 -4.2,0.2 -8.3,1.2 -12.1,3.1 -5.5,2.7 -7.4,3.7 -12.2,3.7 -5.9,0.4 -11,-2.1 -14.4,-3.7 -3.8,-1.9 -7.9,-2.9 -12.1,-3.1 -4.2,0.2 -8.3,1.2 -12.1,3.1 -5.5,2.7 -7.3,3.7 -12.2,3.7 v -20.3 c 4.9,0 6.7,-0.9 12.2,-3.7 3.8,-1.9 7.9,-2.9 12.1,-3.1 4.2,0.2 8.3,1.2 12.1,3.1 3.4,1.6 8.6,4.1 14.4,3.7 4.9,0 6.7,-0.9 12.2,-3.7 3.8,-1.9 7.9,-2.9 12.1,-3.1 4.2,0.2 8.3,1.2 12.1,3.1 3.5,1.6 8.6,4.1 14.4,3.7 h 0.1 c 4.9,0 6.7,-0.9 12.2,-3.7 3.8,-1.9 7.9,-2.9 12.1,-3.1 4.2,0.2 8.3,1.2 12.1,3.1 3.5,1.6 8.6,4.1 14.4,3.7 4.9,0 6.7,-0.9 12.2,-3.7 3.8,-1.9 7.9,-2.9 12.1,-3.1 4.3,0.2 8.4,1.2 12.2,3.1"
   id="path2" />
	</g>

</svg>
