<?xml version="1.0" encoding="UTF-8" standalone="no"?>
<svg
   xmlns:dc="http://purl.org/dc/elements/1.1/"
   xmlns:cc="http://creativecommons.org/ns#"
   xmlns:rdf="http://www.w3.org/1999/02/22-rdf-syntax-ns#"
   xmlns:svg="http://www.w3.org/2000/svg"
   xmlns="http://www.w3.org/2000/svg"
   xmlns:sodipodi="http://sodipodi.sourceforge.net/DTD/sodipodi-0.dtd"
   xmlns:inkscape="http://www.inkscape.org/namespaces/inkscape"
   width="404"
   height="404"
   version="1.1"
   id="svg2"
   inkscape:version="0.91 r13725"
   sodipodi:docname="Airport_Customs.svg">
  <metadata
     id="metadata12">
    <rdf:RDF>
      <cc:Work
         rdf:about="">
        <dc:format>image/svg+xml</dc:format>
        <dc:type
           rdf:resource="http://purl.org/dc/dcmitype/StillImage" />
        <dc:title></dc:title>
      </cc:Work>
    </rdf:RDF>
  </metadata>
  <sodipodi:namedview
     pagecolor="#ffffff"
     bordercolor="#666666"
     borderopacity="1"
     objecttolerance="10"
     gridtolerance="10"
     guidetolerance="10"
     inkscape:pageopacity="0"
     inkscape:pageshadow="2"
     inkscape:window-width="1600"
     inkscape:window-height="843"
     id="namedview10"
     showgrid="false"
     inkscape:zoom="0.68604651"
     inkscape:cx="27.813559"
     inkscape:cy="172"
     inkscape:window-x="1920"
     inkscape:window-y="568"
     inkscape:window-maximized="1"
     inkscape:current-layer="svg2" />
  <defs
     id="defs4" />
  <g
     transform="translate(5,32)"
     id="g6">
    <path
       d="m 47,126 -24,0 C 10,126 0,136 0,150 l 0,115 c 0,13 10,24 23,24 l 24,0 0,-163 z m 0,163 0,24 c 0,13 10,23 24,23 l 114,0 c 13,0 24,-10 24,-23 l 0,-24 -162,0 z m 286,-247 -71,0 -8,0 -20,20 20,0 0,5 c 0,24 20,43 43,43 24,0 43,-19 43,-43 l 0,-25 -7,0 z m 8,-14 -89,0 -18,-28 107,0 z m 32,98 0,0 -4,0 -108,138 88,0 0,25 -111,0 0,47 111,0 47,0 0,-47 0,-24 0,-88 0,-27 c 0,-14 -10,-24 -23,-24 z m -37,0 -102,0 -11,0 0,0 c -5,0 -9,2 -13,7 -30,38 -61,76 -91,115 -16,20 13,50 29,29 29,-36 57,-73 86,-109 l 0,89 102,-131 z"
       id="path8"
       inkscape:connector-curvature="0"
       style="fill:#000000;stroke:none" />
  </g>
</svg>
