<?xml version="1.0" encoding="UTF-8" standalone="no"?>
<!-- Generator: Adobe Illustrator 15.1.0, SVG Export Plug-In . SVG Version: 6.00 Build 0)  -->

<svg
   xmlns:dc="http://purl.org/dc/elements/1.1/"
   xmlns:cc="http://creativecommons.org/ns#"
   xmlns:rdf="http://www.w3.org/1999/02/22-rdf-syntax-ns#"
   xmlns:svg="http://www.w3.org/2000/svg"
   xmlns="http://www.w3.org/2000/svg"
   xmlns:sodipodi="http://sodipodi.sourceforge.net/DTD/sodipodi-0.dtd"
   xmlns:inkscape="http://www.inkscape.org/namespaces/inkscape"
   version="1.1"
   id="Layer_1"
   x="0px"
   y="0px"
   width="100"
   height="100"
   viewBox="0 0 100 100"
   enable-background="new 0 0 51.856 100"
   xml:space="preserve"
   inkscape:version="0.91 r13725"
   sodipodi:docname="room_laboratory.svg"><metadata
     id="metadata21"><rdf:RDF><cc:Work
         rdf:about=""><dc:format>image/svg+xml</dc:format><dc:type
           rdf:resource="http://purl.org/dc/dcmitype/StillImage" /><dc:title /></cc:Work></rdf:RDF></metadata><defs
     id="defs19" /><sodipodi:namedview
     pagecolor="#ffffff"
     bordercolor="#666666"
     borderopacity="1"
     objecttolerance="10"
     gridtolerance="10"
     guidetolerance="10"
     inkscape:pageopacity="0"
     inkscape:pageshadow="2"
     inkscape:window-width="1600"
     inkscape:window-height="843"
     id="namedview17"
     showgrid="false"
     inkscape:zoom="9.44"
     inkscape:cx="48.520331"
     inkscape:cy="31.445646"
     inkscape:window-x="1440"
     inkscape:window-y="512"
     inkscape:window-maximized="1"
     inkscape:current-layer="Layer_1" /><ellipse
     cx="57.499287"
     cy="2.5"
     id="circle3"
     rx="2.5069063"
     ry="2.5" /><ellipse
     cx="58.502052"
     cy="11.499001"
     id="circle5"
     rx="2.5069063"
     ry="2.5" /><ellipse
     cx="43.96199"
     cy="19.998999"
     id="circle7"
     rx="3.0082874"
     ry="3" /><ellipse
     cx="48.975803"
     cy="7.9990005"
     id="circle9"
     rx="3.0082874"
     ry="3" /><ellipse
     cx="53.488235"
     cy="20.498999"
     id="circle11"
     rx="4.5124311"
     ry="4.5" /><path
     d="m 74.882173,89.16 -14.855926,-34.568 0,-22.118 1.232395,-2.475 -4.475329,0 -0.768116,1.532 0,23.881 15.252018,35.482 c 0.787168,1.569 0.945605,3.008 0.426174,3.848 C 71.190002,95.553 69.895436,96 68.047344,96 l -18.046716,0 -0.001,0 -18.047719,0 c -1.847089,0 -3.141655,-0.447 -3.645042,-1.258 -0.520434,-0.84 -0.360995,-2.278 0.426174,-3.848 l 15.252017,-35.482 0,-23.881 -0.767113,-1.532 -4.475329,0 1.232395,2.475 0,22.118 -14.857932,34.568 c -1.406875,2.842 -1.489102,5.64 -0.222613,7.685 0.892459,1.439 2.840826,3.155 7.057443,3.155 l 18.047719,0 0.001,0 18.046716,0 c 4.216617,0 6.164984,-1.716 7.057443,-3.155 1.267492,-2.045 1.185265,-4.843 -0.222614,-7.685 z"
     id="path15"
     inkscape:connector-curvature="0" /><path
     style="fill:#000000;fill-opacity:1;fill-rule:evenodd;stroke:none;stroke-width:1px;stroke-linecap:butt;stroke-linejoin:miter;stroke-opacity:1"
     d="M 32,92 68,92 52,56 48,56 Z"
     id="path4139"
     inkscape:connector-curvature="0"
     sodipodi:nodetypes="ccccc" /></svg>