<?xml version="1.0" encoding="UTF-8" standalone="no"?>
<!-- Generator: Adobe Illustrator 14.0.0, SVG Export Plug-In . SVG Version: 6.00 Build 43363)  -->

<svg
   xmlns:dc="http://purl.org/dc/elements/1.1/"
   xmlns:cc="http://creativecommons.org/ns#"
   xmlns:rdf="http://www.w3.org/1999/02/22-rdf-syntax-ns#"
   xmlns:svg="http://www.w3.org/2000/svg"
   xmlns="http://www.w3.org/2000/svg"
   xmlns:sodipodi="http://sodipodi.sourceforge.net/DTD/sodipodi-0.dtd"
   xmlns:inkscape="http://www.inkscape.org/namespaces/inkscape"
   version="1.0"
   id="Layer_1"
   x="0px"
   y="0px"
   width="32"
   height="32"
   viewBox="0 0 32 32"
   enable-background="new 0 0 90.321 100"
   xml:space="preserve"
   inkscape:version="0.91 r13725"
   sodipodi:docname="room_computer.svg"><metadata
     id="metadata9"><rdf:RDF><cc:Work
         rdf:about=""><dc:format>image/svg+xml</dc:format><dc:type
           rdf:resource="http://purl.org/dc/dcmitype/StillImage" /><dc:title></dc:title></cc:Work></rdf:RDF></metadata><defs
     id="defs7" /><sodipodi:namedview
     pagecolor="#ffffff"
     bordercolor="#666666"
     borderopacity="1"
     objecttolerance="10"
     gridtolerance="10"
     guidetolerance="10"
     inkscape:pageopacity="0"
     inkscape:pageshadow="2"
     inkscape:window-width="1600"
     inkscape:window-height="843"
     id="namedview5"
     showgrid="false"
     inkscape:zoom="18.88"
     inkscape:cx="11.485072"
     inkscape:cy="16.136916"
     inkscape:window-x="1440"
     inkscape:window-y="512"
     inkscape:window-maximized="1"
     inkscape:current-layer="Layer_1" /><path
     d="m 27.673508,31 0,-2.430511 -7.673508,0 0,-4.593925 11.409145,0 C 31.735369,23.975564 32,23.706668 32,23.375496 L 32,1.6007883 C 32,1.2688968 31.735369,1 31.409145,1 L 0.59085517,1 C 0.2646315,1 0,1.2688968 0,1.6007883 L 0,23.375496 c 0,0.331172 0.2646315,0.600068 0.59085517,0.600068 l 11.40914483,0 0,4.593925 -7.5596338,0 0,2.430511 z m -25.51062,-9.895011 0,-17.5280016 c 0,-0.2861755 0.2277478,-0.5183554 0.5074193,-0.5183554 l 26.5444377,0 c 0.279671,0 0.507419,0.2325399 0.507419,0.5183554 l 0,17.5280016 c 0,0.286536 -0.227748,0.517636 -0.507419,0.517636 l -26.5444377,0 c -0.2796715,3.6e-4 -0.5074193,-0.2311 -0.5074193,-0.517636 z"
     id="path3"
     style="clip-rule:evenodd;fill:#000000;fill-opacity:1;fill-rule:evenodd;stroke:none;stroke-opacity:1"
     inkscape:connector-curvature="0"
     sodipodi:nodetypes="ccccsssssssscccccssssssscs" /><path
     d="m 2.162888,21.104989 0,-17.5280011 c 0,-0.2861755 0.227748,-0.5183554 0.507419,-0.5183554 l 26.544438,0 c 0.279671,0 0.507419,0.2325399 0.507419,0.5183554 l 0,17.5280011 c 0,0.286536 -0.227748,0.517636 -0.507419,0.517636 l -26.544438,0 c -0.279671,3.6e-4 -0.507419,-0.2311 -0.507419,-0.517636 z"
     id="path3-7"
     style="clip-rule:evenodd;fill:#ffffff;fill-opacity:1;fill-rule:evenodd;stroke:none;stroke-opacity:1"
     inkscape:connector-curvature="0"
     sodipodi:nodetypes="ssssssscs" /></svg>