<?xml version="1.0" encoding="UTF-8" standalone="no"?>
<!-- Created with Inkscape (http://www.inkscape.org/) -->
<svg xmlns:dc="http://purl.org/dc/elements/1.1/" xmlns:cc="http://creativecommons.org/ns#" xmlns:rdf="http://www.w3.org/1999/02/22-rdf-syntax-ns#" xmlns:svg="http://www.w3.org/2000/svg" xmlns="http://www.w3.org/2000/svg" xmlns:sodipodi="http://sodipodi.sourceforge.net/DTD/sodipodi-0.dtd" xmlns:inkscape="http://www.inkscape.org/namespaces/inkscape" width="24mm" height="24mm" viewBox="0 0 24 24" version="1.1" id="svg26577" inkscape:version="0.92.2 2405546, 2018-03-11" sodipodi:docname="2euro.svg">
  <title id="title27173">simple 2 euro</title>
  <defs id="defs26571"/>
  <sodipodi:namedview id="base" pagecolor="#ffffff" bordercolor="#666666" borderopacity="1.0" inkscape:pageopacity="0.0" inkscape:pageshadow="2" inkscape:zoom="2.6699112" inkscape:cx="45.354331" inkscape:cy="45.354331" inkscape:document-units="mm" inkscape:current-layer="layer1" showgrid="false" fit-margin-top="0.5" fit-margin-right="0.5" fit-margin-bottom="0.5" fit-margin-left="0.5" inkscape:window-width="1501" inkscape:window-height="887" inkscape:window-x="282" inkscape:window-y="94" inkscape:window-maximized="0"/>
  <metadata id="metadata26574">
    <rdf:RDF>
      <cc:Work rdf:about="">
        <dc:format>image/svg+xml</dc:format>
        <dc:type rdf:resource="http://purl.org/dc/dcmitype/StillImage"/>
        <dc:title>simple 2 euro</dc:title>
        <cc:license rdf:resource="http://creativecommons.org/publicdomain/zero/1.0/"/>
        <dc:date>2018-10-11</dc:date>
        <dc:creator>
          <cc:Agent>
            <dc:title>Frank Tremmel</dc:title>
          </cc:Agent>
        </dc:creator>
        <dc:subject>
          <rdf:Bag>
            <rdf:li>cent</rdf:li>
            <rdf:li>money</rdf:li>
            <rdf:li>teaching</rdf:li>
            <rdf:li>school</rdf:li>
            <rdf:li>education</rdf:li>
            <rdf:li>simple</rdf:li>
            <rdf:li>counting</rdf:li>
          </rdf:Bag>
        </dc:subject>
        <dc:description>simple money for worksheets</dc:description>
      </cc:Work>
      <cc:License rdf:about="http://creativecommons.org/publicdomain/zero/1.0/">
        <cc:permits rdf:resource="http://creativecommons.org/ns#Reproduction"/>
        <cc:permits rdf:resource="http://creativecommons.org/ns#Distribution"/>
        <cc:permits rdf:resource="http://creativecommons.org/ns#DerivativeWorks"/>
      </cc:License>
    </rdf:RDF>
  </metadata>
  <g inkscape:label="Ebene 1" inkscape:groupmode="layer" id="layer1" transform="translate(97.38638,-201.37647)">
    <circle style="fill:#e6e6e6;fill-opacity:1;stroke:#808080;stroke-width:0.80000001;stroke-linecap:round;stroke-miterlimit:4;stroke-dasharray:none;stroke-dashoffset:0;stroke-opacity:1" id="path815" cx="-85.386383" cy="213.37646" r="11.1"/>
    <circle style="fill:#d0c27b;fill-opacity:1;stroke:#918133;stroke-width:0.30000001;stroke-linecap:round;stroke-miterlimit:4;stroke-dasharray:none;stroke-dashoffset:0;stroke-opacity:1" id="path815-3" cx="-85.386383" cy="213.37646" r="9.6000004"/>
    <path inkscape:connector-curvature="0" style="display:inline;fill:#918133;fill-opacity:1;stroke:#918133;stroke-width:0.2;stroke-linecap:butt;stroke-linejoin:miter;stroke-miterlimit:4;stroke-dasharray:none;stroke-opacity:1" d="m -78.476603,206.7201 c -0.120589,0.0454 -0.19581,0.12384 -0.290005,0.21467 -0.223528,0.12885 -0.429965,0.28665 -0.622554,0.42135 -0.161014,0.151 -0.291562,0.33311 -0.414514,0.51644 -0.05986,0.0893 -0.129176,0.17806 -0.156034,0.28212 -0.01352,0.0524 0.02496,0.11433 0,0.16234 -0.0225,0.0433 -0.10843,0.0366 -0.119784,0.0841 -0.0079,0.033 0.04781,0.0598 0.04781,0.0898 0.100944,0.12194 -0.05639,0.12719 -0.07197,0.16233 -0.01996,0.0459 0.01449,0.10708 0.01784,0.13186 -0.03014,0.0398 -0.105937,-0.0239 -0.149729,0 -0.08141,0.0445 -0.0877,0.16579 -0.150255,0.23432 -0.07689,0.0842 -0.181488,0.13826 -0.270039,0.21014 -0.132356,0.10746 -0.329689,0.17114 -0.390348,0.33046 -0.0151,0.0397 0.04028,0.09 0.01786,0.12609 -0.01333,0.0215 -0.05542,0.005 -0.07198,0.0237 -0.03731,0.043 -0.02493,0.11141 -0.02995,0.16812 -0.0042,0.048 -0.03405,0.11042 0,0.14447 0.03529,0.0353 0.11834,-0.0388 0.14973,0 0.0116,0.0143 -0.0067,0.0363 -0.01156,0.0541 -0.0084,0.0305 -0.01377,0.063 -0.03047,0.0898 -0.0074,0.012 -0.01931,0.0207 -0.02995,0.0299 -0.01507,0.0131 -0.04399,0.0166 -0.04781,0.0362 -0.0044,0.0228 0.01704,0.0461 0.03572,0.0599 0.02,0.0148 0.0589,-0.003 0.0725,0.0179 0.02555,0.0392 -0.02603,0.0915 -0.02417,0.13817 0.0019,0.0475 -0.0056,0.11463 0.03573,0.13817 0.05625,0.032 0.132499,-0.0184 0.186505,-0.0541 0.02378,-0.0157 0.03598,-0.0442 0.05411,-0.0662 0.01986,-0.0241 0.03747,-0.0503 0.05989,-0.072 0.04912,-0.0476 0.117684,-0.0738 0.161813,-0.12608 0.03813,-0.0451 0.02505,-0.15879 0.08406,-0.15604 0.04123,0.002 0.03412,0.0753 0.04833,0.11401 0.01156,0.0315 0.01211,0.0677 0.02995,0.0961 0.02179,0.0347 0.06691,0.05 0.08984,0.0841 0.06233,0.0924 0.08096,0.20775 0.12031,0.31207 0.02036,0.054 0.03851,0.10877 0.05989,0.16233 0.02827,0.0708 0.07835,0.16812 0.09036,0.21015 0.01201,0.042 0.0634,0.0703 0.07775,0.114 0.01816,0.0553 0.0063,0.15041 0.0063,0.17443 0,0.024 0.0066,0.0427 0.02364,0.0478 0.02674,0.008 0.05544,-0.0199 0.0725,-0.042 0.03671,-0.0476 0.02022,-0.12049 0.04781,-0.1739 0.01308,-0.0253 0.03371,-0.0463 0.05411,-0.0662 0.0327,-0.0319 0.08217,-0.0465 0.108225,-0.0841 0.02272,-0.0327 0.0297,-0.0746 0.03572,-0.114 0.01422,-0.093 0.0035,-0.18815 0,-0.28213 -0.0293,-0.21402 0.1667,-0.31083 0.30052,-0.46863 0.0092,-0.0285 0.01954,-0.0671 0,-0.0898 -0.0092,-0.0107 -0.03367,0.005 -0.04203,-0.006 -0.0071,-0.01 0.0041,-0.0238 0.0058,-0.0357 0.01666,-0.0311 -0.0043,-0.0667 -0.0058,-0.0904 -0.03187,-0.028 -0.09061,0.005 -0.126088,-0.0179 -0.03534,-0.0232 -0.05125,-0.0687 -0.0662,-0.10822 -0.01219,-0.0323 -0.01822,-0.0674 -0.01786,-0.10193 0.01674,-0.27006 0.108926,-0.48777 0.26373,-0.70241 0.01778,-0.027 0.03643,-0.054 0.04833,-0.084 0.01286,-0.0325 0.0096,-0.0702 0.02417,-0.10193 0.01133,-0.0247 0.03091,-0.0448 0.04781,-0.0662 0.02474,-0.0312 0.066,-0.0524 0.07828,-0.0904 0.0074,-0.0229 0.0055,-0.051 -0.0063,-0.072 -0.04659,-0.0148 -0.03039,-0.0779 -0.04203,-0.1077 0.0036,-0.0268 0.02195,-0.0496 0.03625,-0.0725 0.10659,-0.11491 0.145966,-0.27039 0.19806,-0.39613 0.170207,-0.0374 0.177054,-0.0157 0.282122,0.12031 0.03697,0.0572 0.0824,0.11352 0.09614,0.1802 0.0097,0.0472 -0.0013,0.097 -0.01209,0.14395 -0.02497,0.10865 -0.07538,0.21004 -0.120309,0.31207 -0.03248,0.0737 -0.06187,0.15016 -0.107701,0.21645 -0.04348,0.0629 -0.124178,0.0986 -0.156034,0.16812 -0.0453,0.0988 -0.05412,0.2169 -0.03625,0.32415 0.0262,0.15725 0.07827,0.33485 0.204368,0.43238 0.06768,0.0523 0.144952,-0.0286 0.227119,-0.0524 0.07877,-0.0229 0.136978,-0.0718 0.204733,-0.11801 0.08431,-0.0575 0.176797,-0.0592 0.276343,-0.0818 0.05073,-0.0115 0.104482,-0.007 0.156033,0 0.09049,0.0121 0.194873,0.0126 0.26426,0.072 0.02991,0.0256 0.0401,0.0692 0.04833,0.10771 0.0084,0.0392 0.02006,0.0856 0,0.1203 -0.06017,0.10414 -0.199138,0.14029 -0.312593,0.18021 -0.04965,0.0175 -0.103629,0.0193 -0.156034,0.0242 -0.119677,0.0111 -0.288022,-0.0844 -0.360402,0.0116 -0.0199,0.0264 0.0092,0.0667 0.02417,0.0961 0.0284,0.0559 0.09898,0.0855 0.12031,0.14447 0.01907,0.0527 -0.01201,0.10808 0,0.16812 0.01201,0.06 0.06782,0.0437 0.09614,0.072 0.05655,0.0565 0.179678,0.12026 0.14395,0.19176 -0.01613,0.0323 -0.07312,0.008 -0.108226,0 -0.04345,-0.0102 -0.07701,-0.0471 -0.119783,-0.0599 -0.06572,-0.0197 -0.135784,-0.0255 -0.204368,-0.0242 -0.07694,0.001 -0.176515,-0.0209 -0.228009,0.0363 -0.05093,0.0566 -0.01854,0.15217 -0.01209,0.22801 0.0077,0.09 0.01755,0.18448 0.05989,0.26426 0.04118,0.0776 0.157056,0.10755 0.180201,0.19228 0.0097,0.0357 -0.0082,0.0749 -0.02417,0.10823 -0.03322,0.0692 -0.08696,0.12829 -0.14396,0.17967 -0.0495,0.0446 -0.102483,0.0967 -0.168118,0.10823 -0.08895,0.0157 -0.175274,-0.0444 -0.264259,-0.0599 -0.131055,-0.0228 -0.263361,-0.0566 -0.396127,-0.0483 -0.164691,0.0102 -0.432151,0.12031 -0.480185,0.12031 -0.04803,0 -0.204143,0.0599 -0.252176,0.0599 -0.04803,0 -0.107324,0.0573 -0.156559,0.0362 -0.09402,-0.0403 -0.119963,-0.16853 -0.156034,-0.26426 -0.03017,-0.0801 -0.05511,-0.16693 -0.04781,-0.25218 0.0058,-0.0682 0.05253,-0.12666 0.07198,-0.19228 0.02094,-0.0707 0.05796,-0.14291 0.04781,-0.21593 -0.0081,-0.0585 -0.03135,-0.12936 -0.08406,-0.15603 -0.05049,-0.0255 -0.12289,-0.0104 -0.168117,0.0237 -0.07023,0.0528 -0.0988,0.1532 -0.1077,0.24062 -0.0075,0.0733 0.03374,0.14356 0.04781,0.21592 0.0186,0.0957 0.01815,0.19574 0.04833,0.28843 0.03601,0.11058 0.185947,0.19968 0.156033,0.31207 -0.01114,0.0419 -0.07864,0.0403 -0.108225,0.072 -0.04408,0.0472 -0.0415,0.13374 -0.09614,0.16811 -0.09202,0.0246 -0.189248,0.0143 -0.276343,0.0121 -0.06958,-0.0165 -0.145246,-0.15045 -0.191759,-0.0961 l -0.01208,0.26425 c -0.08806,0.0641 -0.168468,0.14041 -0.26426,0.19229 -0.05579,0.0302 -0.136403,0.0606 -0.226959,0.0904 l -0.143781,0.12421 c -0.336894,0.0576 -0.213665,0.0138 -0.336894,0.0576 -0.0011,8e-4 -0.0031,0.002 -0.0063,0.003 -0.06849,0.0271 -0.18211,0.0617 -0.246923,0.0967 -0.08103,0.0438 -0.143543,0.11933 -0.228009,0.15603 -0.0339,0.0147 -0.07174,0.0301 -0.108226,0.0242 -0.06901,-0.0112 -0.11231,-0.0895 -0.179675,-0.10823 -0.07771,-0.0257 -0.152556,0.0143 -0.216453,0.0242 -0.04125,0.0343 -0.07526,0.0904 -0.07197,0.14395 0.03818,0.0916 0.137833,0.14811 0.20437,0.20437 0.07083,0.0575 0.156246,0.0991 0.215926,0.16812 0.02109,0.0244 0.03468,0.0546 0.04781,0.0841 0.03608,0.0809 0.07311,0.16425 0.08406,0.25217 0.0065,0.0517 -0.01156,0.108 -0.01156,0.15604 0,0.048 -0.0031,0.13122 -0.02417,0.19228 -0.03046,0.0882 -0.08535,0.16748 -0.143945,0.24009 -0.05516,0.0684 -0.108016,0.1554 -0.192285,0.18021 -0.04303,0.0127 -0.08949,-0.011 -0.132392,-0.0242 -0.06674,-0.0204 -0.127396,-0.0571 -0.191759,-0.0841 -0.0795,-0.0333 -0.158507,-0.0683 -0.240093,-0.0961 -0.05514,-0.0188 -0.111893,-0.0325 -0.168117,-0.0478 -0.107886,-0.0293 -0.213427,-0.073 -0.324677,-0.0841 -0.07174,-0.007 -0.1444,0.003 -0.215926,0.0121 -0.04055,0.005 -0.102291,-0.013 -0.120309,0.0236 -0.02762,0.0562 0.08221,0.10548 0.08406,0.16811 0.0018,0.0609 -0.03435,0.12016 -0.07198,0.16812 -0.03706,0.0472 -0.113832,0.0563 -0.143951,0.10823 -0.0057,0.10035 -0.04577,0.20432 -0.07197,0.28842 -0.01735,0.0259 -0.04748,0.0405 -0.07197,0.0599 -0.04722,0.0373 -0.111177,0.0581 -0.144476,0.10823 -0.05474,0.0824 -0.05292,0.19083 -0.07197,0.2879 -0.01445,0.10083 -0.03266,0.2093 -0.0478,0.30051 -0.0056,0.0438 -0.03112,0.092 -0.01208,0.13186 0.05599,0.11714 0.300134,0.1679 0.324151,0.21593 0.02402,0.048 0.110879,0.12404 0.180201,0.16811 0.03647,0.0232 0.07832,0.0381 0.120309,0.0483 0.08205,0.02 0.167829,0.0201 0.252176,0.0242 0.107927,0.005 0.216111,-0.001 0.324151,0 0.144165,0.002 0.29384,0.0515 0.432378,0.0116 0.06916,-0.0199 0.116377,-0.0855 0.179675,-0.11978 0.0536,-0.029 0.116252,-0.04 0.168117,-0.072 0.05815,-0.0359 0.09652,-0.12038 0.15656,-0.13239 0.06004,-0.012 0.01108,-0.0958 0.01156,-0.14395 6.61e-4,-0.0642 -0.02611,-0.12974 -0.01156,-0.19228 0.01461,-0.0628 0.05991,-0.11444 0.09562,-0.16812 0.03637,-0.0547 0.06398,-0.12226 0.120309,-0.15603 0.04173,-0.025 0.08391,-1.4e-4 0.14395,-0.0242 0.06004,-0.024 0.125333,-0.0849 0.192285,-0.11979 0.05405,-0.0282 0.11146,-0.0495 0.168117,-0.072 0.04351,-0.0173 0.106391,-0.009 0.131867,-0.0483 0.03057,-0.0471 -0.01551,-0.11208 -0.01156,-0.16811 0.004,-0.0572 -0.0071,-0.13002 0.03572,-0.16812 0.06306,-0.0561 0.167761,-0.0222 0.252176,-0.0237 0.0642,-0.001 0.128575,0.0196 0.192285,0.0116 0.116769,-0.0147 0.238953,-0.0415 0.336234,-0.1077 0.04712,-0.0321 0.06871,-0.0913 0.108226,-0.13239 0.06288,-0.0654 0.115725,-0.15875 0.203842,-0.1802 0.06421,-0.0156 0.151646,-0.004 0.192285,0.0483 0.04178,0.0536 -0.02589,0.14101 0,0.20384 0.08115,0.0863 0.171496,0.17181 0.252185,0.25216 0.03547,0.0414 0.06304,0.089 0.09614,0.1324 0.03107,0.0407 0.05635,0.0876 0.09614,0.11978 0.04176,0.0338 0.10256,0.0383 0.14395,0.0725 0.05052,0.0418 0.06722,0.11684 0.119784,0.15604 0.183766,0.0441 0.295607,0.15044 0.432377,0.26425 0.06823,0.0463 0.149458,0.0717 0.216451,0.11979 0.04834,0.0347 0.107844,0.0659 0.131867,0.1203 0.01449,0.0329 0.0043,0.0721 0,0.10771 -0.006,0.0492 -0.0253,0.096 -0.03572,0.14447 -0.0094,0.0437 -0.05278,0.0975 -0.02417,0.13187 0.01536,0.0184 0.04798,0 0.07198,0 0.06004,0 0.0607,-0.0346 0.08406,-0.0599 0.04757,-0.0514 0.09518,-0.11136 0.108225,-0.1802 0.0091,-0.0478 -0.0019,-0.1007 -0.02417,-0.14395 -0.01554,-0.0302 -0.05758,-0.0412 -0.07198,-0.072 -0.0188,-0.0401 -0.03629,-0.0953 -0.01209,-0.13239 0.01383,-0.0212 0.04689,-0.0276 0.07198,-0.0242 0.02864,0.004 0.04481,0.0385 0.07198,0.0483 0.072,0.0262 0.168226,0.0714 0.228535,0.0242 0.02227,-0.0174 0.02428,-0.0588 0.01156,-0.0841 -0.04508,-0.0895 -0.172865,-0.10217 -0.263734,-0.14448 -0.07017,-0.0327 -0.155755,-0.036 -0.216451,-0.0841 -0.06083,-0.0481 -0.06795,-0.14779 -0.131867,-0.19176 -0.0849,-0.0584 -0.210633,-0.0221 -0.30051,-0.0725 -0.07885,-0.0442 -0.149055,-0.11209 -0.191759,-0.19176 -0.03857,-0.072 0.126235,-0.0985 0.0853,-0.1691 -0.06514,0.0666 -0.005,-0.29247 -0.0079,-0.29659 -0.15029,-0.19406 -0.04156,-0.44685 -0.04156,-0.44685 0.04418,-0.0766 0.07783,0.0525 0.12031,0.072 0.05754,0.0264 0.13106,0.02 0.1802,0.0599 0,0 0.118807,0.1801 0.168057,0.28838 0.02714,0.0445 0.04587,0.0964 0.08406,0.13187 0.04328,0.0402 0.105659,0.0532 0.156034,0.084 0.10786,0.0661 0.210627,0.14036 0.312068,0.21593 0.08222,0.0613 0.207243,0.0952 0.240093,0.19229 0.01584,0.0468 -0.03808,0.0946 -0.03572,0.14395 0.0034,0.0721 0.04704,0.13658 0.07198,0.20437 0.01923,0.0523 0.03743,0.10505 0.05989,0.15603 0.02526,0.0573 0.04894,0.11623 0.08406,0.16811 0.05409,0.0799 0.180276,0.16842 0.192284,0.21646 0.01201,0.048 -0.03149,0.0558 -0.02417,0.0841 0.01421,0.0548 0.0986,0.0675 0.120309,0.11978 0.01841,0.0443 -0.01832,0.0996 0,0.14395 0.02596,0.0628 0.07988,0.12175 0.14395,0.14448 0.07203,0.0255 0.160977,0.0126 0.22801,-0.0242 0.04502,-0.0247 0.07648,-0.0729 0.09614,-0.12031 0.04282,-0.16108 -0.001,-0.25696 -0.07198,-0.38404 -0.0272,-0.0572 -0.03654,-0.12137 -0.05989,-0.18021 -0.02116,-0.0533 -0.06658,-0.099 -0.0725,-0.15603 -0.0055,-0.0531 -0.0129,-0.13515 0.03625,-0.15603 0.04301,-0.0183 0.07379,0.0764 0.120309,0.072 0.04791,-0.005 0.06788,-0.0691 0.1077,-0.0961 0.0593,-0.0402 0.137832,-0.0496 0.192284,-0.0961 0.02614,-0.0224 0.02698,-0.074 0.05989,-0.0841 0.0744,0.0107 0.146343,0.0644 0.204366,0.0961 0.07027,0.0161 0.151825,0.0209 0.215926,-0.0121 0.04553,-0.0234 0.05549,-0.0887 0.09614,-0.11979 0.05554,-0.0425 0.148861,-0.0292 0.192279,-0.0841 0.02784,-0.0352 0.03909,-0.0901 0.02417,-0.13239 -0.03871,-0.10971 -0.215818,-0.12223 -0.26426,-0.22801 -0.04003,-0.0874 -0.006,-0.19247 0,-0.28842 0.0053,-0.0861 0.0013,-0.17764 -0.0042,-0.27057 -0.05851,-0.15617 -0.08812,-0.34254 -0.07776,-0.55689 0.04546,-0.55504 0.549298,-0.99042 1.072455,-1.05044 -0.01766,-0.29978 -0.06117,-0.68066 -0.104022,-0.97791 -0.07921,-0.54938 -0.25996,-1.06561 -0.418664,-1.54822 -0.144947,-0.44078 -0.382689,-0.88541 -0.568918,-1.30072 -0.168206,-0.37511 -0.598991,-0.92287 -0.86459,-1.24756 -0.374884,-0.45829 -0.338225,-0.43598 -0.709784,-0.91288 z" id="path4129" sodipodi:nodetypes="cccccccccccccccccccccccccccccccccccccccscccccccccccccccccccccccccccccccccccccccccccccccccccccccccccsscccccccccccccccccccccscccccccccscsccccccccccccccccccccccccccccccscccccccccccccccccccccccscccccccccccccccccccccccccccccccccccccccccccccccccccccsssscc"/>
    <path style="display:inline;fill:#716428;fill-opacity:1;stroke:#000000;stroke-width:0.04190873;stroke-linecap:butt;stroke-linejoin:miter;stroke-miterlimit:4;stroke-dasharray:none;stroke-opacity:1" d="m -92.455575,208.39161 0.666538,0.37474 c 0.360566,-0.42202 1.248996,-1.52632 2.52355,-1.55318 0.712063,-0.015 1.757808,0.81215 1.630111,1.84238 -0.31908,2.57425 -2.653756,5.01032 -3.325544,5.58685 l -3.535929,3.03455 c -0.169505,0.18824 -0.212047,0.5956 0.291612,0.62457 l 7.665189,0.12492 1.374732,-3.33107 -0.749857,-0.37474 c 0,0 -0.361027,0.63294 -0.583216,0.90384 -0.249011,0.30359 -0.284549,0.49278 -0.641705,0.65611 -0.650057,0.29728 -4.024064,0.14722 -4.024064,0.14722 0,0 2.148204,-1.73414 3.124396,-2.70649 0.718024,-0.7152 1.478402,-1.4211 1.999617,-2.29011 0.442903,-0.73844 0.848058,-1.55677 0.916489,-2.41502 0.07096,-0.89 0.01001,-1.92089 -0.541564,-2.62321 -0.590091,-0.75145 -1.583939,-1.23385 -2.589984,-1.22937 -1.667068,0.007 -2.320711,0.70979 -3.117245,1.52084 -0.610628,0.62175 -1.083126,1.70717 -1.083126,1.70717 z" id="path3934" inkscape:connector-curvature="0" sodipodi:nodetypes="ccssscccccsscsssssscc"/>
  </g>
</svg>