<?xml version="1.0" encoding="UTF-8" standalone="no"?>
<!-- Created with Inkscape (http://www.inkscape.org/) -->
<svg xmlns:dc="http://purl.org/dc/elements/1.1/" xmlns:cc="http://creativecommons.org/ns#" xmlns:rdf="http://www.w3.org/1999/02/22-rdf-syntax-ns#" xmlns:svg="http://www.w3.org/2000/svg" xmlns="http://www.w3.org/2000/svg" xmlns:sodipodi="http://sodipodi.sourceforge.net/DTD/sodipodi-0.dtd" xmlns:inkscape="http://www.inkscape.org/namespaces/inkscape" width="18.5mm" height="18.5mm" viewBox="0 0 18.5 18.5" version="1.1" id="svg26577" inkscape:version="0.92.2 2405546, 2018-03-11" sodipodi:docname="05cent.svg">
  <title id="title27173">simple 5 euro cent</title>
  <defs id="defs26571"/>
  <sodipodi:namedview id="base" pagecolor="#ffffff" bordercolor="#666666" borderopacity="1.0" inkscape:pageopacity="0.0" inkscape:pageshadow="2" inkscape:zoom="3.3752252" inkscape:cx="34.96063" inkscape:cy="34.96063" inkscape:document-units="mm" inkscape:current-layer="layer1" showgrid="false" fit-margin-top="0.5" fit-margin-right="0.5" fit-margin-bottom="0.5" fit-margin-left="0.5" inkscape:window-width="1106" inkscape:window-height="867" inkscape:window-x="1287" inkscape:window-y="278" inkscape:window-maximized="0" inkscape:snap-global="false"/>
  <metadata id="metadata26574">
    <rdf:RDF>
      <cc:Work rdf:about="">
        <dc:format>image/svg+xml</dc:format>
        <dc:type rdf:resource="http://purl.org/dc/dcmitype/StillImage"/>
        <dc:title>simple 5 euro cent</dc:title>
        <cc:license rdf:resource="http://creativecommons.org/publicdomain/zero/1.0/"/>
        <dc:date>2018-10-11</dc:date>
        <dc:creator>
          <cc:Agent>
            <dc:title>Frank Tremmel</dc:title>
          </cc:Agent>
        </dc:creator>
        <dc:subject>
          <rdf:Bag>
            <rdf:li>cent</rdf:li>
            <rdf:li>money</rdf:li>
            <rdf:li>teaching</rdf:li>
            <rdf:li>school</rdf:li>
            <rdf:li>education</rdf:li>
            <rdf:li>simple</rdf:li>
            <rdf:li>counting</rdf:li>
          </rdf:Bag>
        </dc:subject>
        <dc:description>simple money for worksheets</dc:description>
      </cc:Work>
      <cc:License rdf:about="http://creativecommons.org/publicdomain/zero/1.0/">
        <cc:permits rdf:resource="http://creativecommons.org/ns#Reproduction"/>
        <cc:permits rdf:resource="http://creativecommons.org/ns#Distribution"/>
        <cc:permits rdf:resource="http://creativecommons.org/ns#DerivativeWorks"/>
      </cc:License>
    </rdf:RDF>
  </metadata>
  <g inkscape:label="Ebene 1" inkscape:groupmode="layer" id="layer1" transform="translate(120.44047,-189.54166)">
    <circle style="fill:#ff8c4e;fill-opacity:1;stroke:#c84600;stroke-width:0.9000001;stroke-linecap:round;stroke-miterlimit:4;stroke-dasharray:none;stroke-dashoffset:0;stroke-opacity:1" id="path815-7-2-6-2" cx="-111.19047" cy="198.79166" r="8.3000002"/>
    <path sodipodi:nodetypes="ssccccccsssssssssssssccs" inkscape:connector-curvature="0" id="path3918" d="m -115.21216,193.52332 c 0.0709,-0.20725 0.14122,-0.31742 0.47905,-0.2994 l 2.24552,0.11977 c 0.72597,0.0151 0.95922,-0.26964 1.24252,-0.52396 l 0.43413,0.26946 -0.75599,1.78145 -3.07636,-0.0898 -0.79342,1.9087 c 0.22368,-0.2805 0.93291,-0.242 1.04791,-0.23953 0.49449,0.0107 2.60044,0.62509 2.6048,2.59732 0.002,0.90693 -0.44303,1.8681 -1.10779,2.48505 -0.70341,0.65282 -1.74995,0.96569 -2.70959,0.97305 -0.617,0.005 -1.26971,-0.21334 -1.75151,-0.5988 -0.26063,-0.20852 -0.50842,-0.57251 -0.53144,-0.84581 -0.03,-0.35619 0.0281,-0.78745 0.41917,-0.92815 0.4444,-0.15988 0.63685,-0.0605 0.92814,0.20958 0.22798,0.21134 0.24483,0.55849 0.3518,0.93563 0.0859,0.30306 0.35867,0.55708 0.67366,0.5539 0.84823,-0.009 1.57408,-0.6946 1.90121,-1.69163 0.21619,-0.65893 0.14764,-1.51778 -0.49402,-2.02097 -0.43833,-0.34373 -1.09598,-0.36797 -1.64671,-0.28443 -0.26037,0.0395 -0.7036,0.35929 -0.7036,0.35929 l -0.2994,-0.16468 z" style="display:inline;fill:#6e2600;fill-opacity:1;stroke:#c84600;stroke-width:0.04317892;stroke-linecap:butt;stroke-linejoin:miter;stroke-miterlimit:4;stroke-dasharray:none;stroke-opacity:1"/>
    <g transform="matrix(0.01343818,-0.00183433,0.00183663,0.01342891,-114.41387,195.53858)" id="layer1-0" style="stroke:#c84600;stroke-width:28.0630703;stroke-miterlimit:0;stroke-dasharray:none;stroke-opacity:1">
      <g transform="translate(-3.1565,4.0357)" stroke-miterlimit="0" id="g2485" style="stroke:#c84600;stroke-width:28.0630703;stroke-miterlimit:0;stroke-dasharray:none;stroke-opacity:1">
        <path d="m 654.29,578.08 a 231.43,231.43 0 1 1 -462.86,0 231.43,231.43 0 1 1 462.86,0 z" transform="matrix(0.99284,0.11944,-0.11944,0.99284,20.955,-98.214)" id="path2392" inkscape:connector-curvature="0" style="fill:#ff8c4e;fill-opacity:1;stroke:#c84600;stroke-width:28.06311035;stroke-miterlimit:0;stroke-dasharray:none;stroke-opacity:1"/>
        <path transform="matrix(-0.44349,-0.19233,0.21042,-0.3707,97.221,255.04)" d="m -815.11,230.18 a 241.43,241.43 0 0 1 373.23,-85.32" id="path2396" inkscape:connector-curvature="0" style="fill-opacity:0;stroke:#c84600;stroke-width:62.00033951;stroke-miterlimit:0;stroke-dasharray:none;stroke-opacity:1"/>
        <path transform="matrix(-1.0189,-0.45628,0.49607,-0.85034,-380.71,484.23)" d="m -815.11,230.18 a 241.43,241.43 0 0 1 373.23,-85.32" id="path3170" inkscape:connector-curvature="0" style="fill-opacity:0;stroke:#c84600;stroke-width:26.84560013;stroke-miterlimit:0;stroke-dasharray:none;stroke-opacity:1"/>
        <path transform="matrix(0.64115,-0.98764,0.80549,0.6552,575.85,-235.75)" d="m -815.11,230.18 a 241.43,241.43 0 0 1 373.23,-85.32" id="path3172" inkscape:connector-curvature="0" style="fill-opacity:0;stroke:#c84600;stroke-width:25.45288658;stroke-miterlimit:0;stroke-dasharray:none;stroke-opacity:1"/>
        <path d="M 422.2,299.12 314.83,753.5" id="path3178" inkscape:connector-curvature="0" style="fill:none;stroke:#c84600;stroke-width:28.0630703;stroke-miterlimit:0;stroke-dasharray:none;stroke-opacity:1"/>
        <path transform="matrix(-1.3253,-0.66861,0.7111,-1.0989,-589.04,215.76)" d="m -794.06,193.28 a 241.43,241.43 0 0 1 285.09,-87.65" id="path2393" inkscape:connector-curvature="0" style="fill-opacity:0;stroke:#c84600;stroke-width:20.1907177;stroke-linecap:round;stroke-miterlimit:0;stroke-dasharray:none;stroke-opacity:1"/>
        <path transform="matrix(-0.31108,1.1351,-0.96591,-0.37971,404.8,1314.6)" d="m -815.11,230.18 a 241.43,241.43 0 0 1 373.23,-85.32" id="path2395" inkscape:connector-curvature="0" style="fill-opacity:0;stroke:#c84600;stroke-width:25.46431541;stroke-miterlimit:0;stroke-dasharray:none;stroke-opacity:1"/>
      </g>
    </g>
  </g>
</svg>