<?xml version="1.0" encoding="UTF-8" standalone="yes"?>
<svg xmlns="http://www.w3.org/2000/svg" width="375px" height="375px" viewBox="0 0 375 375" version="1.1">
  <g id="surface1">
    <path style=" stroke:none;fill-rule:nonzero;fill:rgb(33.333334%,33.333334%,33.333334%);fill-opacity:1;" d="M 187.5 0 L 53.570312 53.570312 L 53.570312 160.714844 L 321.429688 160.714844 L 321.429688 53.570312 Z M 80.355469 80.355469 L 133.929688 80.355469 L 133.929688 133.929688 L 80.355469 133.929688 Z M 160.714844 80.355469 L 214.285156 80.355469 L 214.285156 133.929688 L 160.714844 133.929688 Z M 241.070312 80.355469 L 294.644531 80.355469 L 294.644531 133.929688 L 241.070312 133.929688 Z M 104.632812 177.457031 L 80.355469 375 L 120.535156 375 L 125.558594 335.660156 L 187.5 294.644531 L 249.441406 336.496094 L 254.464844 375 L 294.644531 375 L 270.367188 178.292969 Z M 143.136719 192.523438 L 231.863281 193.359375 L 236.886719 235.210938 L 187.5 267.855469 L 138.113281 235.210938 Z M 134.765625 259.488281 L 167.410156 281.25 L 128.90625 307.199219 Z M 240.234375 259.488281 L 246.09375 307.199219 L 207.589844 281.25 Z M 240.234375 259.488281 "/>
  </g>
</svg>