<?xml version="1.0" encoding="UTF-8" standalone="no"?>
<svg id="Nederlands_verkeersbord_J1" width="350" height="300" viewBox="0 0 350 300" xmlns="http://www.w3.org/2000/svg" version="1.1">

<path id="rode_driehoek" fill="#c1121c" d="M 11,300 C 11,300 27.820331,300 11,300 C -3.9165388,300 3.7804912,283.85305 3.7804912,283.85305 L 164.90679,8.074496 C 164.90679,8.074496 161.40064,14.190767 164.90679,8.074496 C 171.16011,-2.85324 179.31089,-2.372093 185.11873,7.601505 L 346.21203,283.85305 C 346.21203,283.85305 353.91732,300 339,300 C 322.17219,300 339,300 339,300 L 11,300"/>

<path id="witte_driehoek" fill="#f7fbf5" d="M 175.483,73.698 L 283.20852,259.57553 L 66.297261,259.57553 L 175.483,73.698"/>

<path fill="#2a2d2f" d="M 240.37467,220.23576 C 226.11049,220.23576 220.79801,198.59373 206.92043,198.59373 C 192.72056,198.59373 187.50451,220.23576 173.36975,220.23576 C 159.39572,220.23576 152.27972,198.59373 138.49858,198.59373 C 124.17011,198.59373 120.11301,220.23576 106.91216,220.23576 L 103.01579,220.23576 L 103.01579,238.53696 L 244.68895,238.53696 L 244.68895,220.17057 L 240.37467,220.23576"/>

</svg>