<svg id="Nederlands_verkeersbord_J28" width="350" height="300" viewBox="0 0 350 300" xmlns="http://www.w3.org/2000/svg" version="1.1">

<path id="rode_driehoek" fill="#c1121c" d="M 11,300 C 11,300 27.820331,300 11,300 C -3.9165388,300 3.7804912,283.85305 3.7804912,283.85305 L 164.90679,8.074496 C 164.90679,8.074496 161.40064,14.190767 164.90679,8.074496 C 171.16011,-2.85324 179.31089,-2.372093 185.11873,7.601505 L 346.21203,283.85305 C 346.21203,283.85305 353.91732,300 339,300 C 322.17219,300 339,300 339,300 L 11,300"/>

<path id="witte_driehoek" fill="#f7fbf5" d="M 175.483,73.698 L 283.20852,259.57553 L 66.297261,259.57553 L 175.483,73.698"/>

<path id="zwart_symbool" fill="#2a2d2f" d="M 137.63853,175.41781 C 138.96208,175.76944 141.03015,177.43762 141.03015,177.43762 L 157.57466,182.00877 C 157.57466,182.00877 219.6745,181.39547 221.61847,181.68985 C 222.58633,181.87793 223.19848,182.71202 224.16633,184.59282 C 224.16633,187.11962 224.19942,210.98118 224.16633,220.14801 C 224.16633,222.44585 224.87775,222.2823 225.58917,223.50073 C 226.30057,224.67827 226.14341,227.94104 225.58917,228.12912 C 225.04319,228.32538 222.19754,225.44694 221.84182,223.81965 C 221.48612,222.15964 221.84182,219.66555 221.84182,219.66555 C 221.84182,219.66555 222.00728,194.36477 221.84182,193.60428 C 221.58539,192.16506 220.48518,192.00151 220.12946,192.95826 C 219.77377,193.92319 220.12946,240.32975 220.12946,240.32975 L 219.55042,245.53874 L 213.63575,245.53874 L 216.80402,237.9992 C 216.80402,237.9992 217.58161,235.60323 217.259,231.48184 C 216.9281,227.33592 212.31218,222.2823 212.31218,222.2823 C 212.31218,222.2823 210.98862,222.73206 207.14202,221.77531 C 203.26234,220.81855 200.71448,215.74041 200.71448,215.74041 C 200.71448,215.74041 173.82965,215.00445 172.37373,215.86307 C 170.9509,216.69716 168.00598,219.47747 167.68336,222.66664 C 167.36074,225.83128 167.55928,234.17219 167.23666,238.63704 C 166.91404,243.07735 166.23572,245.53874 166.23572,245.53874 L 161.15655,245.53874 C 161.15655,245.53874 163.00127,241.35192 163.71268,237.90925 C 164.97006,231.51455 161.35508,220.6223 160.08942,218.70879 C 158.79895,216.79529 156.63162,217.65391 154.05069,214.13765 C 151.46146,210.62956 148.91361,203.98136 148.91361,203.98136 C 148.91361,203.98136 146.35747,202.4849 142.8335,199.63917 C 139.28469,196.76074 135.21475,193.18723 135.21475,193.18723 C 135.21475,193.18723 131.9803,192.86831 129.55652,193.30989 C 128.67967,193.47344 128.71276,193.98044 127.87726,194.14398 C 124.64281,194.78182 124.38637,194.14398 124.38637,194.14398 L 121.86333,191.24102 C 121.86333,191.24102 130.52438,179.70275 130.74773,178.87684 C 131.01245,178.04275 128.1006,176.47269 127.97652,175.90028 C 127.87726,175.29515 133.88291,174.94353 133.88291,174.94353 C 133.88291,174.94353 136.30669,175.06619 137.63853,175.41781"/>

</svg>