<?xml version="1.0" encoding="UTF-8" standalone="no"?>
<svg id="Nederlands_verkeersbord_J18" width="350" height="300" viewBox="0 0 350 300" xmlns="http://www.w3.org/2000/svg" version="1.1">

<path id="rode_driehoek" fill="#c1121c" d="M 11,300 C 11,300 27.820331,300 11,300 C -3.9165388,300 3.7804912,283.85305 3.7804912,283.85305 L 164.90679,8.074496 C 164.90679,8.074496 161.40064,14.190767 164.90679,8.074496 C 171.16011,-2.85324 179.31089,-2.372093 185.11873,7.601505 L 346.21203,283.85305 C 346.21203,283.85305 353.91732,300 339,300 C 322.17219,300 339,300 339,300 L 11,300"/>

<path id="witte_driehoek" fill="#f7fbf5" d="M 175.483,73.698 L 283.20852,259.57553 L 66.297261,259.57553 L 175.483,73.698"/>

<path id="zwart_symbool" fill="#2a2d2f" d="M 152.8914,254.3522 L 166.0863,254.3522 L 166.0863,120.5132 L 152.8914,120.5132 L 152.8914,254.3522 z M 210.81741,202.89379 L 210.81741,254.3522 L 224.05341,254.3522 L 224.02054,197.49765 L 198.07469,171.7847 L 198.07469,171.75219 L 198.07469,120.5132 L 184.83869,120.5132 L 184.83869,177.20522 L 210.81741,202.89379 L 210.81741,202.89379"/>

</svg>