<svg id="Nederlands_verkeersbord_J37" width="350" height="300" viewBox="0 0 350 300" xmlns="http://www.w3.org/2000/svg" version="1.1">

<path id="rode_driehoek" fill="#c1121c" d="M 11,300 C 11,300 27.820331,300 11,300 C -3.9165388,300 3.7804912,283.85305 3.7804912,283.85305 L 164.90679,8.074496 C 164.90679,8.074496 161.40064,14.190767 164.90679,8.074496 C 171.16011,-2.85324 179.31089,-2.372093 185.11873,7.601505 L 346.21203,283.85305 C 346.21203,283.85305 353.91732,300 339,300 C 322.17219,300 339,300 339,300 L 11,300"/>

<path id="witte_driehoek" fill="#f7fbf5" d="M 175.483,73.698 L 283.20852,259.57553 L 66.297261,259.57553 L 175.483,73.698"/>

<path id="zwart_symbool" style="fill:#2a2d2f;stroke:#2a2d2f;stroke-width:1.22561049" d="M 175.00664,215.79575 C 181.31216,215.79575 186.47203,210.54446 186.47203,204.123 L 186.47203,130.86619 C 186.47203,124.44473 181.31216,119.19344 175.00664,119.19344 C 168.66294,119.19344 163.54124,124.44473 163.54124,130.86619 L 163.54124,204.123 C 163.54124,210.54446 168.66294,215.79575 175.00664,215.79575 z M 175.00664,247.86435 C 181.35031,247.86435 186.54835,242.76779 186.54835,236.49139 C 186.54835,230.186 181.35031,225.08945 175.00664,225.08945 C 168.6248,225.08945 163.46493,230.186 163.46493,236.49139 C 163.46493,242.76779 168.6248,247.86435 175.00664,247.86435"/>

</svg>