<svg id="Nederlands_verkeersbord_J26" width="350" height="300" viewBox="0 0 350 300" xmlns="http://www.w3.org/2000/svg" version="1.1">

<path id="rode_driehoek" fill="#c1121c" d="M 11,300 C 11,300 27.820331,300 11,300 C -3.9165388,300 3.7804912,283.85305 3.7804912,283.85305 L 164.90679,8.074496 C 164.90679,8.074496 161.40064,14.190767 164.90679,8.074496 C 171.16011,-2.85324 179.31089,-2.372093 185.11873,7.601505 L 346.21203,283.85305 C 346.21203,283.85305 353.91732,300 339,300 C 322.17219,300 339,300 339,300 L 11,300"/>

<path id="witte_driehoek" fill="#f7fbf5" d="M 175.483,73.698 L 283.20852,259.57553 L 66.297261,259.57553 L 175.483,73.698"/>

<g id="zwart_symbool">

<path style="fill:none;stroke:#2a2d2f;stroke-width:5.36964893" d="M 267.37797,246.54765 C 263.18929,248.87058 262.3565,250.72079 256.39505,250.72079 L 256.2961,250.65558 C 250.49956,250.65558 247.861,246.13195 242.06448,246.13195 C 236.30087,246.13195 235.32792,250.55777 229.37472,250.55777 C 223.51222,250.55777 221.80541,245.27613 215.87693,245.27613 C 210.11337,245.27613 207.21097,250.42737 201.57935,250.42737 C 195.65086,250.42737 194.68615,245.27613 188.82364,245.27613 C 183.24972,245.27613 181.18837,250.55777 175.5155,250.55777 L 172.29977,249.82422 M 261.22686,237.31289 C 260.45179,238.36433 256.2961,238.78001 256.2961,238.78001 C 250.49956,238.78001 247.861,234.25637 242.06448,234.25637 C 236.30087,234.25637 235.32792,238.6496 229.37472,238.6496 C 223.51222,238.6496 221.80541,233.40056 215.87693,233.40056 C 210.11337,233.40056 207.21097,238.52734 201.57935,238.52734 C 195.65086,238.52734 194.68615,233.40056 188.82364,233.40056 C 183.24972,233.40056 181.18837,238.6496 175.5155,238.6496 L 172.29977,237.79378"/>

<path fill="#2a2d2f" d="M 173.65203,255.39931 L 173.65203,196.40449 L 109.29635,196.40449 L 74.129557,255.39931 L 173.65203,255.39931"/>

<path fill="#2a2d2f" d="M 198.35537,210.57042 C 195.19737,208.6876 194.16668,204.61227 196.10436,201.46607 C 198.00082,198.34436 202.12355,197.35812 205.28155,199.26538 C 208.47253,201.14819 209.47022,205.22355 207.53255,208.33713 C 205.63609,211.45884 201.51337,212.47767 198.35537,210.57042"/>

<path fill="#2a2d2f" d="M 154.58033,184.17842 C 151.43056,182.29562 150.39988,178.22025 152.32933,175.09854 C 154.22577,171.97682 158.34849,170.95799 161.50649,172.86524 C 164.69749,174.74807 165.69518,178.82342 163.76576,181.94513 C 161.86106,185.09946 157.73834,186.0857 154.58033,184.17842"/>

<path fill="#2a2d2f" d="M 218.22688,211.45884 L 210.50091,208.56535 C 210.50091,208.56535 213.36207,201.05037 206.53485,196.94244 C 200.41673,193.28276 194.80983,198.05907 193.26793,200.5695 L 166.01675,184.08061 C 167.43497,181.0241 168.91916,174.71547 163.14735,171.24326 C 157.35081,167.77107 152.61791,170.89278 150.55655,172.93045 L 146.68945,168.8225 L 152.1974,159.84858 L 163.85645,163.89132 L 178.9621,160.41914 L 200.02919,173.02826 L 204.60542,188.75915 L 221.99505,205.28061 L 218.22688,211.45884 z M 198.48729,173.72922 L 187.59507,167.23311 L 182.44167,175.63648 L 202.8986,187.90331 L 198.48729,173.72922 z M 185.41003,165.8964 L 178.67351,161.88625 L 164.88713,165.13023 L 180.25662,174.33237 L 185.41003,165.8964"/>

</g>

</svg>