<svg id="Nederlands_verkeersbord_J36" width="350" height="300" viewBox="0 0 350 300" xmlns="http://www.w3.org/2000/svg" version="1.1">

<path id="rode_driehoek" fill="#c1121c" d="M 11,300 C 11,300 27.820331,300 11,300 C -3.9165388,300 3.7804912,283.85305 3.7804912,283.85305 L 164.90679,8.074496 C 164.90679,8.074496 161.40064,14.190767 164.90679,8.074496 C 171.16011,-2.85324 179.31089,-2.372093 185.11873,7.601505 L 346.21203,283.85305 C 346.21203,283.85305 353.91732,300 339,300 C 322.17219,300 339,300 339,300 L 11,300"/>

<path id="witte_driehoek" fill="#f7fbf5" d="M 175.483,73.698 L 283.20852,259.57553 L 66.297261,259.57553 L 175.483,73.698"/>

<path id="zwart_symbool" fill="#2a2d2f" d="M 143.90625,140.4375 L 140.34375,147.15625 L 146.46875,157.625 L 135.78125,156.875 L 131.3125,163.03125 L 134.96875,169.90625 L 154.28125,171.0625 L 163.84375,187.4375 L 163.65625,187.5625 L 163.8125,187.8125 L 144.25,187.8125 L 133.6875,172.03125 L 125.84375,172.34375 L 122.6875,179.28125 L 128.5625,187.8125 L 116.4375,187.8125 L 112.375,194.4375 L 116.4375,200.875 L 128.71875,200.875 L 122.6875,209.65625 L 125.84375,216.53125 L 133.6875,216.875 L 144.375,200.875 L 163.53125,200.875 L 163.53125,201.09375 L 163.8125,201.09375 L 154.03125,217.84375 L 134.96875,218.96875 L 131.3125,225.875 L 135.78125,232.03125 L 146.15625,231.28125 L 140.125,241.625 L 143.90625,248.46875 L 151.59375,248.1875 L 157.71875,237.71875 L 162.375,247.21875 L 170.03125,247.96875 L 174.25,241.40625 L 165.5625,224.25 L 175.125,207.84375 L 175.34375,207.96875 L 175.46875,207.78125 L 185.25,224.53125 L 176.71875,241.40625 L 180.9375,247.96875 L 188.5625,247.21875 L 193.09375,237.96875 L 199.125,248.28125 L 207,248.46875 L 210.59375,241.78125 L 204.4375,231.25 L 215.1875,232.03125 L 219.65625,225.875 L 216,218.96875 L 196.59375,217.8125 L 187.03125,201.5 L 187.28125,201.34375 L 187.125,201.09375 L 206.6875,201.09375 L 217.21875,216.875 L 225.125,216.53125 L 228.25,209.65625 L 222.40625,201.09375 L 234.46875,201.09375 L 238.5625,194.4375 L 234.46875,188.03125 L 222.25,188.03125 L 228.25,179.28125 L 225.125,172.34375 L 217.21875,172.03125 L 206.53125,188.03125 L 187.40625,188.03125 L 187.40625,187.8125 L 187.125,187.8125 L 196.9375,171.03125 L 216,169.90625 L 219.65625,163.03125 L 215.1875,156.875 L 204.78125,157.59375 L 210.8125,147.28125 L 207,140.4375 L 199.375,140.71875 L 193.25,151.21875 L 188.5625,141.65625 L 180.9375,140.9375 L 176.71875,147.5 L 185.40625,164.65625 L 175.84375,181.03125 L 175.59375,180.90625 L 175.46875,181.125 L 165.6875,164.40625 L 174.25,147.5 L 170.03125,140.9375 L 162.375,141.65625 L 157.8125,150.9375 L 151.78125,140.59375 L 143.90625,140.4375"/>

</svg>