<?xml version="1.0" encoding="UTF-8" standalone="no"?>
<svg id="Nederlands_verkeersbord_J12" width="140" height="300" viewBox="0 0 140 300" xmlns="http://www.w3.org/2000/svg" version="1.1">

<path fill="#f7fbf5" d="M 30.94191,29.0153 L 0.75706965,15.85028 L 1.0726696,9.5229596 L 5.2726496,5.4073696 L 35.23899,18.47518 L 30.94191,29.0153"/>

<path fill="#f7fbf5" d="M 108.79935,50.53304 L 139.24314,63.89251 L 138.29633,70.15501 L 134.4686,74.14098 L 104.50226,61.07316 L 108.79935,50.53304"/>

<path fill="#f7fbf5" d="M 1.0726696,9.5229596 L 5.2726496,5.4073696 L 139.24314,63.89251 L 138.29633,70.15501 L 134.71947,74.33541 L 0.75706965,15.85028 L 1.0726696,9.5229596"/>

<path fill="#f7fbf5" d="M 1.0726696,9.5229596 L 5.2726496,5.4073696 L 139.24314,63.89251 L 138.29633,70.15501 L 134.71947,74.33541 L 0.75706965,15.85028 L 1.0726696,9.5229596"/>

<path fill="#c1121c" d="M 30.94191,29.0153 L 0.75706965,15.85028 L 1.0726696,9.5229596 L 5.2726496,5.4073696 L 35.23899,18.47518 L 30.94191,29.0153"/>

<path fill="#c1121c" d="M 108.79935,50.53304 L 139.24314,63.89251 L 138.29633,70.15501 L 134.4686,74.14098 L 104.50226,61.07316 L 108.79935,50.53304"/>

<path style="fill:none;stroke:#2a2d2f;stroke-width:0.74492407" d="M 1.0726696,9.5229596 L 5.2726496,5.4073696 L 139.24314,63.89251 L 138.29633,70.15501 L 134.71947,74.33541 L 0.75706965,15.85028 L 1.0726696,9.5229596"/>

<path style="fill:none;stroke:#2a2d2f;stroke-width:1.51413929" d="M 1.0726696,9.5229596 L 5.2726496,5.4073696 L 139.24314,63.89251 L 138.29633,70.15501 L 134.71947,74.33541 L 0.75706965,15.85028 L 1.0726696,9.5229596"/>

<path fill="#f7fbf5" d="M 64.32326,299.24272 L 75.66886,299.24272 L 75.66886,0.75706965 L 64.32326,0.75706965 L 64.32326,299.24272"/>

<path fill="#c1121c" d="M 75.73361,21.82923 L 75.73361,0.75706965 L 64.32326,0.75706965 L 64.388,27.55703 L 75.73361,21.82923"/>

<path fill="#c1121c" d="M 75.57985,91.55122 L 75.57985,56.13932 L 64.22615,61.86711 L 64.22615,97.27902 L 75.57985,91.55122"/>

<path fill="#c1121c" d="M 75.57985,161.92944 L 75.57985,126.48513 L 64.22615,132.21293 L 64.22615,167.62484 L 75.57985,161.92944"/>

<path fill="#c1121c" d="M 75.73361,230.63874 L 75.73361,195.19443 L 64.388,200.92223 L 64.388,236.33414 L 75.73361,230.63874"/>

<path fill="#c1121c" d="M 75.73361,299.24272 L 75.73361,265.47543 L 64.388,271.20324 L 64.388,299.24272 L 75.73361,299.24272"/>

<path style="fill:none;stroke:#2a2d2f;stroke-width:0.74492407" d="M 64.32326,299.24272 L 75.66886,299.24272 L 75.66886,0.75706965 L 64.32326,0.75706965 L 64.32326,299.24272 z M 75.66886,299.24272 L 75.66886,299.24272"/>

<path style="fill:none;stroke:#2a2d2f;stroke-width:1.51413929" d="M 64.32326,299.24272 L 75.66886,299.24272 L 75.66886,0.75706965 L 64.32326,0.75706965 L 64.32326,299.24272 z M 75.66886,299.24272 L 75.66886,299.24272"/>

<path fill="#f7fbf5" d="M 109.05021,29.0153 L 139.24314,15.85028 L 138.92754,9.5229596 L 134.71947,5.4073696 L 104.75313,18.47518 L 109.05021,29.0153"/>

<path fill="#f7fbf5" d="M 31.19277,50.53304 L 0.75706965,63.89251 L 1.7038796,70.15501 L 5.5235196,74.14098 L 35.48986,61.07316 L 31.19277,50.53304"/>

<path fill="#f7fbf5" id="path108" d="M 138.92754,9.5229596 L 134.71947,5.4073696 L 0.75706965,63.89251 L 1.7038796,70.15501 L 5.2726496,74.33541 L 139.24314,15.85028 L 138.92754,9.5229596"/>

<path fill="#f7fbf5" d="M 138.92754,9.5229596 L 134.71947,5.4073696 L 0.75706965,63.89251 L 1.7038796,70.15501 L 5.2726496,74.33541 L 139.24314,15.85028 L 138.92754,9.5229596"/>

<path fill="#c1121c" d="M 109.05021,29.0153 L 139.24314,15.85028 L 138.92754,9.5229596 L 134.71947,5.4073696 L 104.75313,18.47518 L 109.05021,29.0153"/>

<path fill="#c1121c" d="M 31.19277,50.53304 L 0.75706965,63.89251 L 1.7038796,70.15501 L 5.5235196,74.14098 L 35.48986,61.07316 L 31.19277,50.53304"/>

<path style="fill:none;stroke:#2a2d2f;stroke-width:0.74492407" d="M 138.92754,9.5229596 L 134.71947,5.4073696 L 0.75706965,63.89251 L 1.7038796,70.15501 L 5.2726496,74.33541 L 139.24314,15.85028 L 138.92754,9.5229596"/>

<path style="fill:none;stroke:#2a2d2f;stroke-width:1.51413929" d="M 138.92754,9.5229596 L 134.71947,5.4073696 L 0.75706965,63.89251 L 1.7038796,70.15501 L 5.2726496,74.33541 L 139.24314,15.85028 L 138.92754,9.5229596"/>

</svg>