<?xml version="1.0" encoding="UTF-8" standalone="no"?>
<svg id="Nederlands_verkeersbord_J31" width="350" height="300" viewBox="0 0 350 300" xmlns="http://www.w3.org/2000/svg" version="1.1">

<path id="rode_driehoek" fill="#c1121c" d="M 11,300 C 11,300 27.820331,300 11,300 C -3.9165388,300 3.7804912,283.85305 3.7804912,283.85305 L 164.90679,8.074496 C 164.90679,8.074496 161.40064,14.190767 164.90679,8.074496 C 171.16011,-2.85324 179.31089,-2.372093 185.11873,7.601505 L 346.21203,283.85305 C 346.21203,283.85305 353.91732,300 339,300 C 322.17219,300 339,300 339,300 L 11,300"/>

<path id="witte_driehoek" fill="#f7fbf5" d="M 175.483,73.698 L 283.20852,259.57553 L 66.297261,259.57553 L 175.483,73.698"/>

<g id="zwart_symbool">

<path fill="#2a2d2f" d="M 115.90793,256.15655 L 122.61947,256.15655 L 122.61947,187.20644 L 115.90793,187.20644 L 115.90793,256.15655"/>

<path style="fill:#2a2d2f;stroke:#2a2d2f;stroke-width:1.34128714" d="M 152.04628,225.48353 C 160.71848,228.14246 171.41839,220.08281 175.93464,207.49221 C 180.4844,194.9099 177.14959,182.55124 168.47738,179.92543 C 159.77168,177.27479 149.06338,185.33443 144.54714,197.91674 C 139.99738,210.50734 143.37408,222.83286 152.04628,225.48353"/>

<path style="fill:#f7fbf5;stroke:#f7fbf5;stroke-width:1.34128714" d="M 167.36299,228.75541 C 175.54083,231.24869 185.62907,223.64464 189.91071,211.79953 C 194.16722,199.9213 191.0251,188.27498 182.84727,185.78172 C 174.66104,183.29674 164.58118,190.9008 160.29116,202.73762 C 156.00116,214.61585 159.17677,226.26215 167.36299,228.75541"/>
 
<path style="fill:#2a2d2f;stroke:#2a2d2f;stroke-width:1.34128714" d="M 186.11506,233.9656 C 193.80692,236.32635 203.33377,229.17787 207.35565,218.01199 C 211.38592,206.84612 208.40302,195.87905 200.67765,193.55144 C 192.99417,191.1907 183.50081,198.33919 179.47055,209.50506 C 175.44866,220.66265 178.42319,231.62972 186.11506,233.9656"/>

<path style="fill:#f7fbf5;stroke:#f7fbf5;stroke-width:1.34128714" d="M 200.55197,237.78421 C 207.78298,239.97929 216.74845,233.25325 220.55248,222.73347 C 224.34815,212.22198 221.53282,201.86786 214.29341,199.66452 C 207.02888,197.4363 198.06341,204.16234 194.26776,214.71525 C 190.47211,225.22674 193.28743,235.54772 200.55197,237.78421"/>

<path style="fill:#2a2d2f;stroke:#2a2d2f;stroke-width:1.34128714" d="M 218.3572,242.72933 C 225.22794,244.8333 233.74094,238.43031 237.3355,228.43237 C 240.93844,218.43445 238.29069,208.62703 231.38644,206.52308 C 224.50735,204.41911 216.00272,210.83039 212.39978,220.82832 C 208.76331,230.82624 211.45296,240.62538 218.3572,242.72933"/>

<path style="fill:#f7fbf5;stroke:#2a2d2f;stroke-width:1.34128714" d="M 232.7606,246.35742 C 239.13696,248.2957 247.02993,242.37315 250.36473,233.12072 C 253.70793,223.86827 251.21939,214.77322 244.83464,212.83494 C 238.44989,210.89665 230.59883,216.81092 227.25563,226.07164 C 223.9208,235.32407 226.40936,244.386 232.7606,246.35742"/>

<path style="fill:none;stroke:#2a2d2f;stroke-width:1.34128714" d="M 244.83464,212.83494 L 165.49448,177.95401 L 120.23146,188.63117 L 145.72858,223.83515 L 232.7606,246.35742"/>

</g>

</svg>