<?xml version="1.0" encoding="UTF-8" standalone="no"?>
<svg
   xmlns:dc="http://purl.org/dc/elements/1.1/"
   xmlns:cc="http://creativecommons.org/ns#"
   xmlns:rdf="http://www.w3.org/1999/02/22-rdf-syntax-ns#"
   xmlns:svg="http://www.w3.org/2000/svg"
   xmlns="http://www.w3.org/2000/svg"
   width="14"
   height="14"
   id="svg3800"
   version="1.1"
   viewBox="0 0 14 14">
  <defs
     id="defs3802" />
  <metadata
     id="metadata3805">
    <rdf:RDF>
      <cc:Work
         rdf:about="">
        <dc:format>image/svg+xml</dc:format>
        <dc:type
           rdf:resource="http://purl.org/dc/dcmitype/StillImage" />
        <dc:title></dc:title>
      </cc:Work>
    </rdf:RDF>
  </metadata>
  <path
     style="fill:#94bb28;fill-opacity:1;stroke-width:1.2259587"
     d="M 4.7296291,5.7048034 V 6.7417316 H 6.3625149 V 5.7048034 Z m 3.1970987,0 v 1.0369282 h 1.635428 V 5.7048034 Z m 0,1.3615319 V 9.929158 c 0,0.137344 0.1248063,0.247964 0.2797758,0.247964 h 0.020344 0.2594303 v 2.774907 c 0,0.132728 0.1223883,0.2412 0.2721487,0.2412 h 2.4010024 c 0.149759,0 0.272149,-0.10847 0.272149,-0.2412 V 11.22532 l 0.0051,-0.25247 -1.040267,-3.9065147 z m -4.038976,0.00453 -1.0428083,3.9065137 0.0051,0.254723 v 1.726711 c 4.5e-6,0.13273 0.1223942,0.241202 0.2721522,0.241202 h 2.4010035 c 0.152362,0 0.2746909,-0.108471 0.2746909,-0.241198 v -2.772669 h 0.2568822 0.020347 c 0.1549659,0 0.2797778,-0.112874 0.2797778,-0.250215 V 7.0708438 Z m 2.8283005,0 v 2.662175 H 7.5630154 V 7.0708438 Z"
     id="rect239-1" />
  <path
     id="rect4777"
     d="M 7.0889837,-0.10160715 0.17796583,4.9812788 0.91238492,5.7921972 1.4027311,5.2552234 v 7.6895316 0.02769 c -2.072e-4,0.275222 0.1061456,0.530617 0.2804973,0.673602 0.1801358,0.146852 0.4049368,0.151545 0.5883574,0.01229 0.1841777,-0.138991 0.2983989,-0.401233 0.2987393,-0.685886 V 4.6246818 L 7.1197677,1.5197554 11.792346,4.6870601 v 8.3477549 c -2.08e-4,0.275221 0.106147,0.530617 0.280497,0.673602 0.180136,0.146852 0.404937,0.151547 0.588359,0.01229 0.184177,-0.138991 0.298398,-0.401233 0.298739,-0.685886 V 5.3176049 l 0.428778,0.2562714 0.611282,-0.4990267 z"
     style="fill:#734a08;fill-opacity:1;fill-rule:evenodd;stroke:none;stroke-width:1.356004;stroke-opacity:1" />
</svg>
