<?xml version="1.0" encoding="UTF-8" standalone="no"?>
<!DOCTYPE svg PUBLIC "-//W3C//DTD SVG 20010904//EN" "http://www.w3.org/TR/2001/REC-SVG-20010904/DTD/svg10.dtd">
<svg version="1.0" xmlns="http://www.w3.org/2000/svg" width="1280.000000pt" height="989.000000pt" viewBox="0 0 1280.000000 989.000000" preserveAspectRatio="xMidYMid meet">
<metadata>
Created by potrace 1.15, written by Peter Selinger 2001-2017
</metadata>
<g transform="translate(0.000000,989.000000) scale(0.100000,-0.100000)" fill="#000000" stroke="none">
<path d="M436 9874 c-32 -8 -88 -28 -125 -46 -90 -43 -206 -158 -249 -249 -55 -116 -62 -165 -62 -471 l0 -278 385 0 385 0 0 -3885 0 -3885 -385 0 -385 0 0 -277 c0 -308 7 -358 62 -472 43 -90 161 -207 250 -249 36 -18 94 -38 129 -47 57 -13 734 -15 5959 -15 5225 0 5902 2 5959 15 35 9 93 29 129 47 89 42 207 159 250 249 55 114 62 164 62 472 l0 277 -385 0 -385 0 0 3885 0 3885 385 0 385 0 0 278 c0 306 -7 355 -62 471 -43 90 -159 206 -249 249 -36 17 -95 38 -130 47 -57 13 -733 15 -5964 14 -5059 -1 -5908 -3 -5959 -15z m2934 -3532 l0 -2487 -76 -65 c-99 -84 -243 -243 -337 -373 -214 -294 -341 -601 -414 -996 -13 -70 -17 -202 -22 -721 l-6 -635 -440 0 -440 0 -3 3870 c-1 2129 0 3876 3 3883 3 9 187 12 870 12 l865 0 0 -2488z m2598 2296 l2 -187 -42 -11 c-559 -142 -1022 -505 -1291 -1010 -61 -116 -131 -294 -161 -415 -52 -207 -60 -277 -60 -510 0 -233 8 -304 59 -508 139 -549 545 -1039 1068 -1287 110 -52 272 -111 385 -140 l42 -11 0 -94 0 -93 -682 -5 c-710 -4 -741 -6 -954 -51 -40 -8 -78 -17 -85 -18 -12 -3 -14 355 -17 2252 -1 1240 0 2261 3 2268 3 10 182 12 867 10 l863 -3 3 -187z m2597 -2078 c0 -1906 -2 -2265 -14 -2262 -7 1 -45 10 -85 18 -213 45 -244 47 -953 51 l-683 5 0 93 0 94 43 12 c378 100 681 274 944 541 297 301 469 637 550 1078 13 72 17 148 17 315 0 167 -4 243 -17 315 -82 445 -261 792 -564 1095 -250 250 -578 435 -930 525 l-43 11 0 183 c0 100 3 186 7 189 3 4 394 6 867 5 l861 -3 0 -2265z m2600 -1615 l0 -3880 -440 0 -440 0 -6 630 c-5 592 -6 637 -27 748 -55 299 -137 528 -272 764 -120 209 -308 441 -468 578 l-82 70 0 2487 0 2488 868 -2 867 -3 0 -3880z"/>
</g>
</svg>