<?xml version="1.0" encoding="utf-8"?>
<!-- Generator: Adobe Illustrator 24.2.1, SVG Export Plug-In . SVG Version: 6.00 Build 0)  -->
<svg version="1.1" id="Laag_1" xmlns="http://www.w3.org/2000/svg" xmlns:xlink="http://www.w3.org/1999/xlink" x="0px" y="0px"
	 viewBox="0 0 100 100" style="enable-background:new 0 0 100 100;" xml:space="preserve">
<style type="text/css">
	.st0{fill:#003B8B;}
	.st1{fill:#72B154;}
	.st2{fill:#FDC400;}
	.st3{fill:none;}
	.st4{fill:#E64335;}
	.st5{fill:#9C9B9A;}
	.st6{fill:#020203;}
	.st7{fill:#0081C1;}
	.st8{clip-path:url(#SVGID_2_);}
	.st9{fill:none;stroke:#003B8B;stroke-width:9;stroke-linecap:round;}
	.st10{clip-path:url(#SVGID_4_);}
	.st11{clip-path:url(#SVGID_6_);}
	.st12{fill:#FFFFFF;}
</style>
<g>
	<path class="st3" d="M22.18,92.56c0,0,0,0.01,0.01,0.01c0.97,0.56,2.04,1.14,3.22,1.69c0,0,0,0,0,0
		C24.23,93.71,23.15,93.13,22.18,92.56C22.19,92.56,22.18,92.56,22.18,92.56z"/>
	<path class="st3" d="M31.45,55.28c1.33-3.83-0.4-8.1-3.87-9.52c-3.47-1.42-7.37,0.55-8.7,4.38c-1.33,3.83,0.4,8.1,3.86,9.52
		C26.21,61.08,30.12,59.12,31.45,55.28z"/>
	<path class="st3" d="M20.76,94.39c0.46,0.34,0.92,0.67,1.38,0.97C21.68,95.05,21.22,94.73,20.76,94.39
		C20.76,94.39,20.76,94.39,20.76,94.39z"/>
	<path class="st3" d="M22.13,95.37C22.13,95.36,22.13,95.36,22.13,95.37c-0.44,0.29-1.01,0.3-1.49,0c0,0,0.01,0.01,0.01,0.01
		C21.12,95.67,21.69,95.65,22.13,95.37z"/>
	<path class="st3" d="M35.74,71c-3.18-1.31-6.76,0.5-7.99,4.01c-1.22,3.52,0.36,7.44,3.55,8.74c3.18,1.3,6.77-0.5,7.99-4.02
		C40.51,76.22,38.92,72.3,35.74,71z"/>
	<path class="st3" d="M38.64,22.51c-3.47-1.42-7.37,0.55-8.7,4.38c-1.33,3.83,0.4,8.1,3.86,9.52c3.47,1.42,7.37-0.54,8.7-4.37
		C43.84,28.2,42.1,23.93,38.64,22.51z"/>
	<path class="st3" d="M58.97,13.28c-2.59-1.06-5.51,0.41-6.5,3.27c-0.99,2.86,0.3,6.06,2.88,7.11c2.59,1.06,5.5-0.41,6.5-3.27
		C62.85,17.53,61.56,14.34,58.97,13.28z"/>
	<path class="st4" d="M91.37,11.51C63.22-7.72,24.2-3.67,8.98,29.84c-6.77,14.91-6.89,31.7-0.36,49.91
		c0.26,0.73,0.54,1.44,0.85,2.13c3.34,5.36,7.29,9.52,11.29,12.5c0,0,0,0-0.01,0c0,0,0,0,0,0c-4.01-2.97-7.95-7.15-11.29-12.5
		c2.38,5.47,6.06,10,10.75,13.2c0,0,0,0,0,0c0.07,0.05,0.15,0.1,0.22,0.15c-0.07-0.05-0.16-0.1-0.22-0.14
		c0.14,0.09,0.28,0.19,0.42,0.29c0.01,0.01,0.02,0,0.03,0.01c0,0-0.01-0.01-0.01-0.01c0.48,0.31,1.05,0.29,1.49,0
		c0,0,0,0.01-0.01,0.01c-0.44,0.29-1.01,0.3-1.48,0.01c0.46,0.31,0.92,0.63,1.46,0.95c0.71,0.42,1.5,0.84,2.35,1.22
		c1.46,0.66,2.81,1.1,3.98,1.39c-0.39-0.11-0.78-0.22-1.17-0.36c-0.03-0.01-0.06-0.02-0.09-0.04c-0.25-0.1-0.41-0.33-0.57-0.55
		c0.16,0.22,0.32,0.44,0.57,0.55c0.03,0.01,0.06,0.02,0.09,0.04c0.39,0.13,0.78,0.24,1.17,0.36c0.02-0.08,0.04-0.17,0.06-0.26
		c-0.69-0.25-1.39-0.54-2.1-0.87c0,0,0,0,0,0c0,0-0.01,0-0.01-0.01c-0.18-0.36-0.23-0.81-0.11-1.24c0.18-0.65,0.7-1.09,1.28-1.16
		c-0.57,0.07-1.08,0.51-1.27,1.16c-0.12,0.44-0.07,0.88,0.11,1.25c0.71,0.33,1.41,0.63,2.1,0.88c0.22-0.97,0.44-1.94,0.67-2.91
		c0,0,0,0,0.01,0c-0.22,0.97-0.45,1.94-0.67,2.91c0,0,0,0-0.01,0c-0.02,0.09-0.04,0.17-0.06,0.26c0.84,0.24,1.71,0.34,2.57,0.5
		c0.61,0.14,1.21,0.27,1.8,0.35c0.01,0.01,0.03,0.01,0.04,0.01c6.81,0.9,13.49-1.31,13.49-1.31c1.59-0.53,2.78-1.06,3.24-1.28
		c2.42-1.14,7.4-3.49,11.36-9.09c2.54-3.6,3.58-7.02,4.08-8.74c1.32-4.51,1.48-8.71,1.22-12.11c-0.66-4.62-1.43-8.2-2.02-10.64
		c-0.46-1.89-0.91-3.52-0.89-5.91c0.02-2.08,0.39-4.15,1.11-6.22c3.02-8.69,9.97-12.71,20.65-11.95c4.86,0.35,9-2.74,10.54-7.86
		C96.93,20.45,96.1,14.74,91.37,11.51z M20.76,94.39C20.76,94.39,20.76,94.39,20.76,94.39c0.46,0.34,0.92,0.66,1.38,0.97
		C21.68,95.05,21.22,94.73,20.76,94.39z M25.41,94.26c-1.18-0.55-2.25-1.13-3.22-1.69c0,0,0-0.01-0.01-0.01c0,0,0,0,0,0
		C23.15,93.13,24.23,93.71,25.41,94.26C25.41,94.26,25.41,94.26,25.41,94.26z M22.74,59.66c-3.46-1.42-5.2-5.68-3.86-9.52
		c1.33-3.83,5.24-5.79,8.7-4.38c3.47,1.42,5.2,5.68,3.87,9.52C30.12,59.12,26.21,61.08,22.74,59.66z M39.28,79.74
		c-1.22,3.52-4.8,5.32-7.99,4.02c-3.18-1.3-4.77-5.22-3.55-8.74c1.23-3.52,4.81-5.32,7.99-4.01C38.92,72.3,40.51,76.22,39.28,79.74z
		 M42.51,32.03c-1.33,3.83-5.24,5.8-8.7,4.37c-3.46-1.42-5.2-5.69-3.86-9.52c1.33-3.83,5.24-5.79,8.7-4.38
		C42.1,23.93,43.84,28.2,42.51,32.03z M61.85,20.39c-1,2.86-3.91,4.33-6.5,3.27c-2.59-1.06-3.88-4.25-2.88-7.11
		c0.99-2.86,3.91-4.33,6.5-3.27S62.85,17.53,61.85,20.39z"/>
</g>
</svg>
