<?xml version="1.0" encoding="utf-8"?>
<!-- Generator: Adobe Illustrator 24.2.1, SVG Export Plug-In . SVG Version: 6.00 Build 0)  -->
<svg version="1.1" id="Laag_1" xmlns="http://www.w3.org/2000/svg" xmlns:xlink="http://www.w3.org/1999/xlink" x="0px" y="0px"
	 viewBox="0 0 100 100" style="enable-background:new 0 0 100 100;" xml:space="preserve">
<g>
	<path d="M39.2,90.4c1.2-1.2,2.1-2.6,2.8-4.1c0.3-0.8,0.6-1.6,0.7-2.5c-0.8-0.1-1.6-0.2-2.3-0.2C34.9,83,29.6,81.8,24.5,80
		c-6.6-2.2-12.3-5.1-16.6-8.2c4.9,9.2,12.6,16.6,22,21c0,0,0,0,0.1,0c0,0,0,0,0.1,0C33.3,93.2,36.5,92.4,39.2,90.4L39.2,90.4z"/>
	<path d="M11.4,22.5c0,3.8,7.1,11.9,13.9,19.8c10.5,12,22.4,25.6,22.4,36.9c0,0.1,0,0.3,0,0.4c3,0.1,6,0,9-0.2
		C56.2,33.2,53,23.8,41.2,3.2c0-0.1-0.1-0.2-0.1-0.3c-12,2.3-22.6,9.1-29.7,19C11.4,22.1,11.4,22.3,11.4,22.5
		C11.4,22.5,11.4,22.5,11.4,22.5z"/>
	<path d="M88.7,22c0.8,9.3-3.1,18.5-6.8,27.5c-3.9,7.9-6.3,16.4-7,25.2c0,0.1,0,0.1,0,0.2c7.4-3.2,14.1-7.9,19.7-13.8
		c0.7-0.8,1.4-1.6,2.1-2.4C99.3,45.8,96.3,32.6,88.7,22z"/>
	<path d="M12.1,69.2c0.1,0,0.1,0.1,0.2,0.1c7.4,4.7,18.6,8.8,31,10v-0.1c0-9.7-11.8-23.1-21.2-34c-3-3.1-5.9-6.5-8.4-10
		c-2.4-3-4.3-5.8-5.4-8.2c-1.4,2.6-2.6,5.3-3.5,8c0,0.1-0.1,0.2-0.1,0.3c-0.1,0.2-0.1,0.4-0.2,0.5c-0.1,0.2-0.1,0.4-0.2,0.7
		c0,0.1-0.1,0.2-0.1,0.3C4,37.1,4,37.4,3.9,37.8c0,0,0,0,0,0c-1,3.8-1.5,7.8-1.5,11.9c0,0.2,0,0.4,0,0.5c0,0.2,0,0.3,0,0.5
		c0.1,3.7,0.6,7.4,1.6,11c0.1,0.1,0.2,0.2,0.3,0.4c1.5,2.3,4.1,4.7,7.7,7C12,69.2,12,69.2,12.1,69.2z"/>
	<path d="M70.4,75.2c0-0.2,0-0.3,0-0.5c0.6-9.4,3.1-18.5,7.3-26.9c4.8-11.6,9.4-22.5,4.3-33.2C73.6,6.8,62.6,2.4,51.1,2.1
		c-0.4,0-0.8,0-1.1,0l0,0c-1.4,0-2.7,0.1-4.1,0.2C58,23.6,60.8,35,61.3,78.8c3.1-0.5,6.2-1.2,9.2-2.2C70.4,76.1,70.4,75.7,70.4,75.2
		z"/>
	<path d="M56.8,84c-3.1,0.3-6.2,0.3-9.3,0.2c-0.2,1.1-0.5,2.1-0.9,3.2c-0.9,2.5-2.3,4.7-4.3,6.5c0,0-0.1,0.1-0.1,0.1c0,0,0,0,0,0
		c-1,0.8-2.1,1.5-3.3,2c3.7,0.9,7.4,1.4,11.2,1.4c2.3,0,4.6-0.2,6.8-0.5c0-0.1,0-0.1,0-0.2c0-4.2,0-8.2,0-11.9
		C56.8,84.5,56.8,84.3,56.8,84z"/>
	<path d="M75.8,80.4c0.3,0.9,0.7,1.6,1.1,2.3c1,1.4,2.4,2.6,4.1,3.2c5.7-4.8,10.1-10.9,13-17.8c-5.5,4.9-11.7,8.7-18.4,11.5
		C75.6,79.8,75.7,80.1,75.8,80.4z"/>
	<path d="M72.4,83.9c-0.2-0.4-0.5-0.9-0.7-1.4c-0.2-0.5-0.4-1-0.5-1.5c-3.2,1.1-6.6,1.9-10,2.4c0,3.9,0,8,0,12.4
		c5.6-1.4,10.9-3.8,15.7-7C75.4,87.9,73.7,86.4,72.4,83.9z"/>
</g>
</svg>
