<?xml version="1.0" encoding="utf-8"?>
<!-- Generator: Adobe Illustrator 24.2.1, SVG Export Plug-In . SVG Version: 6.00 Build 0)  -->
<svg version="1.1" id="Laag_1" xmlns="http://www.w3.org/2000/svg" xmlns:xlink="http://www.w3.org/1999/xlink" x="0px" y="0px"
	 viewBox="0 0 100 100" style="enable-background:new 0 0 100 100;" xml:space="preserve">
<style type="text/css">
	.st0{fill:#003B8B;}
	.st1{fill:#72B154;}
	.st2{fill:#FDC400;}
	.st3{fill:none;}
	.st4{fill:#E64335;}
	.st5{fill:#9C9B9A;}
	.st6{fill:#020203;}
	.st7{fill:#0081C1;}
	.st8{clip-path:url(#SVGID_2_);}
	.st9{fill:none;stroke:#003B8B;stroke-width:9;stroke-linecap:round;}
	.st10{clip-path:url(#SVGID_4_);}
	.st11{clip-path:url(#SVGID_6_);}
	.st12{fill:#FFFFFF;}
</style>
<g>
	<path class="st3" d="M72.79,34.66l-3.1,2.84c-0.25,0.23-0.6,0.16-0.78-0.07l-5.58-7.15c-0.09-0.12-0.14-0.27-0.13-0.42
		c-0.01,0.15,0.04,0.31,0.13,0.42l5.58,7.15c0.18,0.23,0.52,0.3,0.78,0.07L72.79,34.66c0.24-0.22,0.24-0.6,0.06-0.83
		C73.03,34.07,73.03,34.44,72.79,34.66z"/>
	<path class="st3" d="M47.92,43.19C47.92,43.2,47.92,43.2,47.92,43.19l6.69,8.57c4.21-4.4,7.98-8.6,11.05-12.32
		c-3.07,3.71-6.84,7.92-11.05,12.31L47.92,43.19z"/>
	<path class="st3" d="M50.85,55.61c-0.56,0.56-1.13,1.14-1.7,1.7c-0.32,0.32-0.64,0.64-0.96,0.95c-1.26,1.24-2.54,2.49-3.84,3.74
		c-1.29,1.24-2.59,2.48-3.9,3.69c-0.3,0.29-0.61,0.57-0.92,0.86c-0.68,0.64-1.37,1.27-2.05,1.89l0,0.01
		c-8.62,7.19-17.24,14.39-25.86,21.58c0,0.01-0.01,0.01-0.01,0.01c-0.43,0.32-0.86,0.63-1.28,0.94c-1.55,0.77-4.15,0.96-5.6-0.8
		c-0.05-0.07-0.1-0.13-0.15-0.2C4.23,89.49,4,88.96,3.86,88.4C4,88.97,4.23,89.51,4.58,90c0.05,0.07,0.1,0.14,0.15,0.2
		c1.4,1.74,3.81,2.1,5.6,0.8c0.57-0.29,0.99-0.65,1.28-0.94c5.32-3.94,11.27-8.75,17.36-14.01l7.58-6.73
		c0.31-0.28,0.62-0.56,0.93-0.85c0-0.02,0-0.02,0-0.02c0.68-0.62,1.37-1.25,2.05-1.89c0.31-0.28,0.61-0.57,0.92-0.85
		c1.31-1.22,2.61-2.45,3.9-3.69c1.29-1.24,2.57-2.49,3.84-3.74c0.32-0.32,0.64-0.64,0.96-0.95c0.58-0.57,1.14-1.13,1.7-1.7
		c0.36-0.37,0.72-0.73,1.08-1.09l-0.01-0.01C51.57,54.89,51.21,55.25,50.85,55.61z M4.73,90.19c1.45,1.77,4.05,1.58,5.6,0.8
		C8.54,92.29,6.13,91.93,4.73,90.19z M36.55,69.31l-7.58,6.73c-6.08,5.27-12.04,10.07-17.36,14.01c0-0.01,0.01-0.01,0.01-0.01
		c8.62-7.19,17.23-14.38,25.86-21.58C37.17,68.75,36.86,69.03,36.55,69.31z"/>
	<path class="st3" d="M95.13,6.33c-6.07,0.59-10.41,1.65-13.37,2.76c-3.1,1.16-4.75,2.35-5.55,3.08c0.81-0.72,2.45-1.91,5.54-3.07
		C84.71,7.98,89.06,6.93,95.13,6.33z"/>
	<path class="st3" d="M87.49,26.75c-2.56,2.35-5.62,3.54-8.32,4.18C81.86,30.29,84.92,29.1,87.49,26.75
		c1.58-1.44,5.57-6.32,8.83-20.55c0,0,0,0,0,0C93.05,20.43,89.06,25.31,87.49,26.75z"/>
	<path class="st4" d="M99.16,3.59c-0.75-0.96-1.89-1.48-3.05-1.39c-6.05,0.5-17.01,2.07-22.35,6.96c-4.32,3.96-6.41,9.52-7.38,13.33
		c-0.83,0.1-1.61,0.47-2.26,1.06l-3.1,2.84c-0.88,0.8-1.43,1.95-1.49,3.29c-8.09,6.36-16.19,12.71-24.29,19.07
		C24.18,59.62,13.13,70.48,2.09,81.34c-0.54,0.64-1.48,1.94-1.9,3.86c-0.45,2.08-0.22,4.96,1.47,7.24c2.75,3.7,7.35,3.02,8,2.91
		c2.1-0.35,3.46-1.43,5.24-2.83c6.62-5.23,10.11-7.99,10.15-7.97c0,0,0,0.01-0.01,0.01c3.36-3.13,8.16-7.45,14.92-13.13
		c9.57-8.79,20.69-19.83,28.87-29.83c1.24,0.16,2.37-0.25,3.24-1.05l3.1-2.84c0.66-0.6,1.11-1.39,1.33-2.23
		c3.63-0.41,9.04-1.71,13.36-5.67c5.34-4.9,8.59-16.34,10.04-22.72C100.19,5.86,99.91,4.56,99.16,3.59z M50.85,55.62
		c-0.56,0.57-1.13,1.13-1.7,1.7c-0.32,0.32-0.64,0.64-0.96,0.95c-1.27,1.25-2.55,2.5-3.84,3.74c-1.29,1.24-2.59,2.47-3.9,3.69
		c-0.31,0.29-0.61,0.57-0.92,0.85c-0.68,0.64-1.37,1.27-2.05,1.89c0,0,0,0,0,0.02c-0.31,0.29-0.62,0.57-0.93,0.85l-7.58,6.73
		c-6.08,5.26-12.04,10.07-17.36,14.01c-0.29,0.29-0.71,0.65-1.28,0.94c-1.79,1.3-4.21,0.94-5.6-0.8c-0.05-0.07-0.1-0.13-0.15-0.2
		C4.23,89.51,4,88.97,3.86,88.4c0.15,0.56,0.38,1.09,0.72,1.58c0.05,0.07,0.1,0.14,0.15,0.2c1.45,1.77,4.05,1.58,5.6,0.8
		c0.42-0.31,0.85-0.62,1.28-0.94c0-0.01,0.01-0.01,0.01-0.01c8.62-7.19,17.24-14.39,25.86-21.58l0-0.01
		c0.68-0.62,1.36-1.25,2.05-1.89c0.31-0.29,0.62-0.57,0.92-0.86c1.31-1.22,2.61-2.45,3.9-3.69c1.31-1.25,2.58-2.5,3.84-3.74
		c0.32-0.32,0.64-0.64,0.96-0.95c0.57-0.57,1.14-1.14,1.7-1.7c0.36-0.36,0.72-0.72,1.07-1.08l0.01,0.01
		C51.57,54.9,51.22,55.26,50.85,55.62z M54.61,51.76l-6.69-8.57c0,0,0,0,0,0L54.61,51.76c4.21-4.4,7.98-8.6,11.05-12.32
		C62.59,43.16,58.82,47.36,54.61,51.76z M72.79,34.66l-3.1,2.84c-0.25,0.23-0.6,0.16-0.78-0.07l-5.58-7.15
		c-0.09-0.12-0.14-0.27-0.13-0.42c-0.01,0.15,0.04,0.3,0.13,0.42l5.58,7.15c0.18,0.22,0.52,0.3,0.78,0.07L72.79,34.66
		c0.24-0.22,0.24-0.59,0.06-0.83C73.04,34.07,73.04,34.44,72.79,34.66z M76.21,12.17c0.8-0.72,2.45-1.91,5.55-3.08
		c2.96-1.11,7.3-2.17,13.37-2.76C89.06,6.93,84.71,7.98,81.75,9.1C78.66,10.26,77.02,11.44,76.21,12.17z M87.49,26.75
		c-2.57,2.35-5.63,3.54-8.32,4.18C81.86,30.29,84.92,29.1,87.49,26.75c1.57-1.43,5.56-6.31,8.82-20.55c0,0,0,0,0,0
		C93.06,20.43,89.06,25.31,87.49,26.75z"/>
	<path class="st4" d="M11.61,90.05c5.32-3.94,11.27-8.74,17.36-14.01l7.58-6.73c0.31-0.28,0.62-0.56,0.93-0.85
		c-8.62,7.19-17.24,14.39-25.86,21.58C11.62,90.04,11.62,90.05,11.61,90.05z"/>
	<path class="st4" d="M4.73,90.19c1.4,1.74,3.81,2.1,5.6,0.8C8.78,91.76,6.19,91.95,4.73,90.19z"/>
</g>
</svg>
