<?xml version="1.0" encoding="UTF-8" standalone="yes"?>
<svg xmlns="http://www.w3.org/2000/svg" xmlns:xlink="http://www.w3.org/1999/xlink" width="375px" height="375px" viewBox="0 0 375 375" version="1.1">
  <g id="surface1">
    <path style=" stroke:none;fill-rule:nonzero;fill:rgb(100%,100%,100%);fill-opacity:1;" d="M 374.863281 188.140625 C 374.863281 291.519531 290.890625 375.324219 187.308594 375.324219 C 83.722656 375.324219 -0.25 291.519531 -0.25 188.140625 C -0.25 84.757812 83.722656 0.953125 187.308594 0.953125 C 290.890625 0.953125 374.863281 84.757812 374.863281 188.140625 Z M 374.863281 188.140625 "/>
    <path style=" stroke:none;fill-rule:nonzero;fill:rgb(45.09804%,29.019609%,3.137255%);fill-opacity:1;" d="M 188.226562 61.175781 L 50.847656 100.425781 L 50.847656 120.050781 L 188.226562 80.800781 L 325.605469 120.050781 L 325.605469 100.425781 Z M 120.265625 131.285156 C 117.203125 131.40625 114.164062 132.011719 111.140625 133.160156 L 111.140625 255.246094 C 111.140625 255.246094 160.289062 253.359375 172.816406 301.050781 L 172.816406 172.835938 C 163.257812 152.910156 141.691406 130.429688 120.265625 131.285156 Z M 172.816406 301.050781 C 141.011719 276.726562 95.695312 270.539062 95.695312 270.539062 L 95.695312 154.550781 L 80.285156 148.417969 L 80.285156 285.796875 L 172.816406 316.308594 L 203.636719 316.308594 L 296.164062 285.796875 L 296.164062 148.417969 L 280.757812 154.550781 L 280.757812 276.632812 L 203.636719 301.050781 C 193.355469 297.164062 181.394531 297.855469 172.816406 301.050781 Z M 265.308594 133.160156 C 234.585938 131.535156 199.136719 149.800781 180.519531 165.511719 L 180.519531 294.6875 C 197.710938 280.578125 228.511719 262.027344 265.308594 258.3125 Z M 265.308594 133.160156 "/>
  </g>
</svg>