<?xml version="1.0" encoding="UTF-8"?><svg id="Layer_1" xmlns="http://www.w3.org/2000/svg" viewBox="0 0 100.4 122.34"><defs><style>.cls-1{fill:#fff;}.cls-2{fill:#ed6e18;}</style></defs><path class="cls-2" d="M50.2,122.34c-16.98-12.77-29.59-24.98-37.84-36.63C4.12,74.06,0,62.6,0,51.32c0-8.43,1.52-15.84,4.56-22.22,3.04-6.38,6.97-11.74,11.81-16.08,4.83-4.34,10.23-7.59,16.18-9.76S44.38,0,50.2,0s11.71,1.08,17.66,3.25,11.34,5.42,16.18,9.76c4.83,4.34,8.77,9.7,11.81,16.08,3.04,6.38,4.56,13.79,4.56,22.22,0,11.28-4.12,22.75-12.36,34.4-8.24,11.65-20.86,23.86-37.84,36.63Zm0-71.03h0Z"/><path class="cls-1" d="M71.39,41.28H31.96c-.66,0-1.19,.53-1.19,1.19v13.14c0,3.47,1.17,6.83,3.31,9.56h-10.48c-.35,0-.68,.15-.91,.42s-.32,.62-.27,.97l.53,3.17c.47,2.89,2.97,5,5.89,4.99h39.69c2.92,0,5.42-2.11,5.89-4.99l.53-3.17c.06-.35-.04-.7-.27-.97s-.56-.42-.91-.42h-10.48c.77-.97,1.42-2.03,1.93-3.16l8.65-2.49c3.5-1.08,5.88-4.32,5.87-7.98v-1.9c0-4.62-3.75-8.36-8.36-8.36Zm-4.78,7.17h3.79c1.09,.01,2,.82,2.15,1.9s-.53,2.1-1.57,2.4l-4.36,1.19v-5.5Zm5.46,20.9c-.28,1.73-1.78,3-3.54,2.99H28.84c-1.75,0-3.25-1.26-3.54-2.99l-.3-1.78h47.36l-.3,1.78Zm-34.77-4.17c-2.64-2.48-4.14-5.94-4.14-9.56v-11.95h31.06v11.95c0,3.62-1.51,7.08-4.15,9.56h-22.78Zm40.06-13.63c.01,2.61-1.68,4.92-4.17,5.69l-7.04,2.03c.22-.93,.36-1.88,.41-2.83l5.04-1.37c2.22-.6,3.64-2.75,3.34-5.03s-2.25-3.98-4.54-3.97h-3.79v-2.39h4.78c3.3,0,5.97,2.68,5.97,5.97v1.9Z"/><path class="cls-1" d="M46.3,37.69c0,.66,.53,1.19,1.19,1.19s1.19-.53,1.19-1.19c-.03-1.13,.33-2.24,1.01-3.15,.93-1.29,1.41-2.84,1.38-4.42,.03-1.58-.45-3.13-1.38-4.42-.68-.91-1.04-2.01-1.01-3.15-.03-1.13,.33-2.24,1.01-3.14,.93-1.28,1.41-2.84,1.38-4.42,0-.66-.53-1.19-1.19-1.19s-1.19,.53-1.19,1.19c.03,1.13-.33,2.24-1.01,3.14-.93,1.28-1.41,2.84-1.38,4.42-.03,1.58,.45,3.13,1.38,4.42,.68,.91,1.04,2.02,1.01,3.15,.03,1.13-.33,2.24-1.01,3.15-.93,1.29-1.41,2.84-1.38,4.42Z"/><path class="cls-1" d="M39.07,19.21c.35-.56,.18-1.3-.38-1.65-.56-.35-1.3-.18-1.65,.38l-.12,.19c-.93,1.29-1.41,2.84-1.38,4.42-.03,1.58,.45,3.13,1.38,4.42,.68,.91,1.04,2.02,1.01,3.15,.03,1.13-.33,2.24-1.01,3.15l-.13,.2c-.35,.56-.18,1.3,.38,1.65,.56,.35,1.3,.18,1.65-.38l.12-.19c.93-1.29,1.41-2.84,1.38-4.42,.03-1.58-.45-3.13-1.38-4.42-.68-.91-1.04-2.01-1.01-3.15-.03-1.13,.33-2.24,1.01-3.14l.13-.2Z"/><path class="cls-1" d="M60.58,19.21c.35-.56,.18-1.3-.38-1.65-.56-.35-1.3-.18-1.65,.38l-.12,.19c-.93,1.29-1.41,2.84-1.38,4.42-.03,1.58,.45,3.13,1.38,4.42,.68,.91,1.04,2.02,1.01,3.15,.03,1.13-.33,2.24-1.01,3.15l-.13,.2c-.35,.56-.18,1.3,.38,1.65,.56,.35,1.3,.18,1.65-.38l.12-.19c.93-1.29,1.41-2.84,1.38-4.42,.03-1.58-.45-3.13-1.38-4.42-.68-.91-1.04-2.01-1.01-3.15-.03-1.13,.33-2.24,1.01-3.14l.13-.2Z"/></svg>