<?xml version="1.0" encoding="UTF-8"?><svg id="Layer_1" xmlns="http://www.w3.org/2000/svg" viewBox="0 0 100.4 122.34"><defs><style>.cls-1{fill:#fff;}.cls-2{fill:#c55c47;}</style></defs><path class="cls-2" d="M50.2,122.34c-16.98-12.77-29.59-24.98-37.84-36.63C4.12,74.06,0,62.6,0,51.32c0-8.43,1.52-15.84,4.56-22.22,3.04-6.38,6.97-11.74,11.81-16.08,4.83-4.34,10.23-7.59,16.18-9.76S44.38,0,50.2,0s11.71,1.08,17.66,3.25,11.34,5.42,16.18,9.76c4.83,4.34,8.77,9.7,11.81,16.08,3.04,6.38,4.56,13.79,4.56,22.22,0,11.28-4.12,22.75-12.36,34.4-8.24,11.65-20.86,23.86-37.84,36.63Zm0-71.03h0Z"/><path class="cls-1" d="M59.16,41.54c0,3.47-.1,6.94,.03,10.4,.1,2.63-.86,4.75-2.54,6.63-2.81,3.13-6.29,5.32-10.35,6.25-2.03,.47-2.4,1.33-2.33,3.17,.26,6.71,5.12,12.12,11.82,12.96,6.09,.76,12.16-3.45,13.92-9.67,.54-1.92,.44-3.9,.45-5.86,.02-4.57-.03-9.14,.03-13.7,.02-1.32-.29-2.06-1.66-2.65-4.14-1.79-6.18-6.01-5.23-10.24,.96-4.27,4.71-7.33,8.98-7.31,4.14,.02,7.98,3.08,8.93,7.13,.98,4.17-1.06,8.53-5.15,10.34-1.47,.65-1.73,1.46-1.72,2.86,.06,5.2,.04,10.4,.02,15.59-.05,10.04-7.55,17.78-17.22,17.77-9.73,0-17.33-7.69-17.35-17.69,0-1.63-.4-2.29-2.07-2.66-3.6-.8-6.71-2.67-9.4-5.19-2.46-2.3-3.83-5.02-3.74-8.55,.16-6.53,.05-13.07,.04-19.61,0-4.18,1.64-7.47,5.27-9.65,.7-.42,1.14-1,1.6-1.66,1.39-2.02,3.82-2.56,5.81-1.37,1.86,1.11,2.59,3.57,1.66,5.58-.94,2.04-3.27,3.21-5.32,2.13-2.61-1.39-3.34,.28-4.21,1.98-.51,.99-.55,2.11-.55,3.23,.02,6.62,.04,13.23-.01,19.85-.01,1.51,.41,2.76,1.33,3.91,6.01,7.5,17.78,7.41,23.68-.17,.76-.98,1.09-2.03,1.09-3.27-.03-6.93-.02-13.86,0-20.79,0-1.36-.16-2.67-1-3.8-.87-1.17-1.56-2.12-3.38-1.02-2.02,1.22-4.55,.11-5.6-1.95-1.02-2-.35-4.38,1.56-5.58,2.01-1.27,4.42-.85,5.82,1.2,.6,.88,1.33,1.47,2.18,2.04,3,2.03,4.65,4.83,4.64,8.52,0,3.62,0,7.25,0,10.87Zm17.92-.82c0-2.74-2.26-5.01-4.93-4.95-2.63,.05-4.97,2.48-4.9,5.09,.07,2.57,2.29,4.71,4.92,4.73,2.87,.02,4.91-2,4.9-4.86Z"/></svg>