<?xml version="1.0" encoding="UTF-8"?><svg id="Layer_1" xmlns="http://www.w3.org/2000/svg" viewBox="0 0 100.4 122.34"><defs><style>.cls-1{fill:#fdfeff;}.cls-2{fill:#fcfeff;}.cls-3{fill:#55b3e6;}</style></defs><path class="cls-3" d="M50.2,122.34c-16.98-12.77-29.59-24.98-37.84-36.63C4.12,74.06,0,62.6,0,51.32c0-8.43,1.52-15.84,4.56-22.22,3.04-6.38,6.97-11.74,11.81-16.08,4.83-4.34,10.23-7.59,16.18-9.76S44.38,0,50.2,0s11.71,1.08,17.66,3.25,11.34,5.42,16.18,9.76c4.83,4.34,8.77,9.7,11.81,16.08,3.04,6.38,4.56,13.79,4.56,22.22,0,11.28-4.12,22.75-12.36,34.4-8.24,11.65-20.86,23.86-37.84,36.63Zm0-71.03h0Z"/><g><path class="cls-2" d="M73.81,51.92c-.16-.08-.21-.17-.21-.34,0-2.09,0-4.17,0-6.26,0-.6-.39-1-.99-1.01-1.34,0-2.68,0-4.02,0-.61,0-1.01,.41-1.01,1.02,0,1.66,0,3.33,0,4.99,0,.19-.04,.25-.25,.25-2.52,0-5.04,0-7.56,0-.58,0-.96,.37-.97,.95,0,.32,0,.65,0,.97,0,.72,.35,1.07,1.06,1.07,2.5,0,5,0,7.5,0,.16,0,.21,.04,.21,.2,0,.81,0,1.62,0,2.42,0,.18-.04,.24-.23,.24-1.77,0-3.54,0-5.3,0-1.4,0-2.8,0-4.21,0-.34,0-.58,.12-.76,.43-.61,1.08-1.25,2.15-1.87,3.22-1.24,2.13-2.48,4.25-3.72,6.38-.07,.13-.13,.16-.26,.07-.21-.15-.42-.28-.64-.41-.41-.24-.83-.13-1.08,.26-.11,.17-.22,.35-.33,.52-.34,.53-.25,.92,.28,1.26,.76,.48,1.51,.97,2.27,1.45,.64,.41,1.29,.83,1.94,1.23,.44,.27,.87,.15,1.13-.28,.17-.3,.35-.6,.52-.89,.43-.75,.87-1.5,1.3-2.26,.08,.05,.08,.13,.1,.19,.71,1.93,1.81,3.6,3.34,4.96,3.3,2.91,7.13,3.93,11.41,2.92,6.4-1.51,10.53-7.79,9.4-14.26-.75-4.27-3.17-7.35-7.05-9.28Zm-2.07,20.54c-5.19,1.82-10.81-.96-12.51-6.15-.26-.81-.41-1.64-.47-2.49,0-.09,.01-.16,.06-.24,.45-.78,.9-1.55,1.34-2.33,.08-.14,.18-.13,.29-.13,3.99,0,7.98,0,11.97,0,.12,0,.23,0,.35-.01,.52-.04,.83-.37,.83-.89,0-1.66,0-3.31,0-4.97,0-.07-.02-.15,.03-.24,.24,.14,.46,.29,.68,.46,2.11,1.61,3.41,3.72,3.81,6.34,.73,4.82-2.14,9.16-6.39,10.65Z"/><path class="cls-1" d="M52.97,40.36c-2.58-2.33-5.21-4.61-7.75-6.99-.17-.16-.37-.22-.6-.22-1.62,0-3.25,0-4.87,0-2.17,0-4.34,0-6.51,0-.24,0-.44,.07-.62,.23-.72,.67-1.44,1.35-2.18,2-1.85,1.66-3.71,3.31-5.56,4.97-.43,.38-.45,.86-.07,1.29,.36,.4,.71,.81,1.08,1.2,.35,.38,.85,.41,1.23,.07,1.95-1.74,3.89-3.48,5.84-5.21,.23-.2,.48-.38,.75-.6v.3c0,2.14,0,4.28,0,6.42,0,.58,.24,.82,.82,.82,2.94,0,5.87,0,8.81,0,.56,0,.8-.24,.8-.81,0-2.15,0-4.3,0-6.44,0-.08-.02-.16,.03-.26,.24,.19,.49,.37,.71,.57,1.94,1.73,3.88,3.47,5.82,5.2,.41,.37,.91,.34,1.28-.07,.35-.39,.7-.78,1.05-1.17,.38-.43,.36-.91-.07-1.29Z"/><path class="cls-1" d="M43.49,55.01c-1.52,0-3.04,0-4.56,0s-3.05,0-4.58,0c-.49,0-.68,.21-.61,.7,.15,1.04,.31,2.09,.47,3.13,.24,1.61,.48,3.22,.73,4.83,.26,1.74,.52,3.48,.78,5.22,.07,.45,.32,.67,.77,.67,1.63,0,3.26,0,4.89,0,.43,0,.7-.24,.77-.66,.25-1.66,.5-3.33,.75-4.99,.41-2.73,.81-5.46,1.22-8.18,.07-.5-.11-.71-.62-.71Z"/><path class="cls-2" d="M38.85,31.64c1.96,0,3.53-1.54,3.53-3.48,0-1.92-1.56-3.48-3.49-3.49-1.94,0-3.48,1.54-3.48,3.48,0,1.92,1.54,3.48,3.43,3.49Z"/><path class="cls-2" d="M70.63,42.88c1.92,0,3.47-1.56,3.48-3.47,0-1.92-1.58-3.51-3.5-3.5-1.92,0-3.47,1.56-3.47,3.48,0,1.96,1.54,3.5,3.49,3.49Z"/><path class="cls-1" d="M52.28,51.85c-.07-.16-.17-.3-.28-.43-1.14-1.32-2.28-2.65-3.42-3.97-.23-.27-.52-.47-.85-.61-.43-.18-.88-.25-1.35-.25-9.59,0-19.19,0-28.78,0h-1.72s-.04,0-.05,0h-.26v6.73h2.03c2.6-.01,5.21-.02,7.81-.02,8.6,0,17.2,0,25.79,0,.07,0,.14,0,.21,0,.8-.04,1.21-.72,.87-1.45Z"/><path class="cls-1" d="M71.34,26.56c-.15-.31-.44-.4-.75-.25-.16,.08-.31,.19-.41,.34-.08,.1-.14,.11-.26,.06-2.39-1.13-4.79-2.25-7.19-3.37-.1-.04-.15-.11-.18-.21-.08-.24-.2-.46-.37-.64-.07-.08-.09-.16-.09-.26,0-2.06,0-4.11,0-6.17v-1.44h-2.8v2.14h0c0,1.8,0,3.6,0,5.39,0,.17-.03,.3-.15,.43-.13,.13-.22,.3-.28,.48-.05,.15-.14,.23-.28,.3-2.29,1.07-4.57,2.13-6.85,3.21-.28,.13-.46,.19-.73-.08-.46-.47-.98-.27-1.08,.38-.14,.89,.14,1.67,.73,2.32,.32,.35,.59,.38,1.03,.18,.05-.02,.1-.04,.15-.07,2.59-1.22,5.19-2.43,7.78-3.65,.13-.06,.24-.07,.37-.01,.44,.18,.89,.18,1.33,.02,.19-.07,.33-.05,.5,.03,2.62,1.24,5.25,2.47,7.88,3.7,.4,.19,.66,.14,.98-.17,.43-.42,.65-.95,.75-1.53,.07-.38,.08-.76-.1-1.11Z"/></g></svg>