<?xml version="1.0" encoding="UTF-8" standalone="yes"?>
<svg xmlns="http://www.w3.org/2000/svg" width="375px" height="375px" viewBox="0 0 375 375" version="1.1">
  <g id="surface1">
    <path style=" stroke:none;fill-rule:nonzero;fill:rgb(49.019608%,91.764706%,49.411765%);fill-opacity:1;" d="M 375 187.5 C 375 291.054688 291.054688 375 187.5 375 C 83.945312 375 0 291.054688 0 187.5 C 0 83.945312 83.945312 0 187.5 0 C 291.054688 0 375 83.945312 375 187.5 Z M 375 187.5 "/>
    <path style=" stroke:none;fill-rule:nonzero;fill:rgb(100%,100%,100%);fill-opacity:1;" d="M 187.464844 19.152344 C 95.289062 19.152344 20.566406 93.875 20.566406 186.050781 C 20.617188 255.785156 64.011719 318.136719 129.382812 342.402344 L 97.367188 304.296875 C 95.941406 302.59375 95.46875 300.28125 96.113281 298.15625 C 96.761719 296.03125 98.441406 294.375 100.582031 293.757812 L 149.363281 279.695312 C 149.886719 279.542969 150.417969 279.460938 150.945312 279.441406 C 153.230469 279.355469 155.445312 280.476562 156.71875 282.464844 C 158.285156 284.917969 158.054688 288.105469 156.152344 290.304688 L 150.570312 296.746094 C 148.769531 299.40625 147.132812 301.519531 145.675781 303.449219 C 163.554688 307.117188 222.035156 316.058594 255.714844 284.792969 C 257.671875 282.925781 260.277344 281.890625 262.984375 281.910156 C 267.277344 281.945312 271.109375 284.609375 272.632812 288.621094 C 274.160156 292.636719 273.066406 297.171875 269.878906 300.046875 C 226.066406 340.71875 159.164062 328.34375 139.945312 323.675781 C 140.0625 324.699219 140.210938 325.773438 140.402344 326.929688 L 141.738281 338.371094 C 142.074219 341.253906 140.480469 344.015625 137.816406 345.167969 C 137.796875 345.175781 137.777344 345.179688 137.757812 345.1875 C 153.839844 350.273438 170.601562 352.890625 187.464844 352.953125 C 279.640625 352.953125 354.367188 278.226562 354.367188 186.050781 C 354.332031 116.605469 311.296875 54.441406 246.3125 29.953125 C 247.125 30.398438 247.851562 31.015625 248.429688 31.789062 L 278.988281 72.644531 C 280.316406 74.425781 280.65625 76.757812 279.890625 78.84375 C 279.125 80.929688 277.355469 82.488281 275.183594 82.984375 L 225.683594 94.269531 C 222.851562 94.914062 219.925781 93.621094 218.5 91.085938 C 217.074219 88.546875 217.484375 85.378906 219.507812 83.289062 L 225.441406 77.175781 C 227.390625 74.621094 229.148438 72.601562 230.707031 70.757812 C 213.070312 66.085938 155.183594 53.855469 119.792969 83.164062 C 116.933594 85.601562 112.988281 86.3125 109.460938 85.019531 C 105.9375 83.730469 103.378906 80.640625 102.765625 76.9375 C 102.15625 73.234375 103.589844 69.488281 106.515625 67.132812 C 130.238281 47.484375 159.296875 42.25 184.480469 42.574219 C 208.1875 42.882812 228.414062 48.105469 237.574219 50.890625 C 237.515625 49.863281 237.425781 48.777344 237.304688 47.613281 L 236.617188 36.113281 C 236.441406 33.21875 238.1875 30.550781 240.914062 29.554688 C 241.597656 29.304688 242.296875 29.171875 242.996094 29.15625 C 243.367188 29.144531 243.738281 29.167969 244.105469 29.21875 C 225.949219 22.613281 206.785156 19.207031 187.464844 19.152344 Z M 209.679688 109.71875 L 221.40625 109.71875 C 226.347656 109.71875 230.335938 111.640625 233.214844 114.074219 C 236.09375 116.507812 237.917969 119.40625 238.859375 121.722656 L 238.890625 121.808594 C 238.984375 122.070312 238.933594 121.929688 238.964844 122.027344 C 238.992188 122.121094 239.035156 122.257812 239.09375 122.4375 C 239.207031 122.789062 239.371094 123.304688 239.578125 123.960938 C 239.996094 125.28125 240.597656 127.175781 241.34375 129.53125 C 242.832031 134.234375 244.902344 140.757812 247.230469 148.101562 L 247.144531 147.882812 C 247.320312 148.269531 247.347656 148.476562 247.335938 148.4375 L 247.335938 148.441406 C 249.246094 154.464844 251.335938 161.074219 253.410156 167.636719 C 255.058594 167.375 256.730469 167.199219 258.425781 167.109375 L 258.40625 166.988281 L 260.882812 166.988281 C 286.84375 166.988281 307.933594 188.070312 307.929688 214.03125 C 307.929688 239.988281 286.84375 261.078125 260.886719 261.078125 C 234.929688 261.078125 213.839844 239.992188 213.839844 214.03125 C 213.839844 195.515625 224.570312 179.507812 240.148438 171.839844 L 237.570312 163.707031 L 186.324219 214.953125 L 190.398438 226.585938 L 192.300781 226.585938 C 195.980469 226.585938 199.003906 229.617188 199.003906 233.296875 C 199.003906 236.976562 195.980469 240.007812 192.300781 240.007812 L 178.878906 240.007812 C 175.199219 240.007812 172.167969 236.980469 172.167969 233.296875 C 172.167969 230.285156 174.210938 227.738281 176.964844 226.902344 L 174.019531 219.8125 L 164.195312 219.8125 C 161.335938 243.050781 141.5625 261.078125 117.566406 261.078125 C 91.613281 261.078125 70.527344 239.988281 70.527344 214.03125 C 70.527344 188.070312 91.613281 166.984375 117.566406 166.984375 C 122.023438 166.984375 126.316406 167.648438 130.402344 168.808594 L 142.886719 142.949219 L 138.003906 130.820312 L 129.785156 130.820312 C 128.832031 130.820312 127.886719 130.613281 127.09375 130.101562 C 126.296875 129.589844 125.761719 128.804688 125.46875 128.066406 C 124.890625 126.585938 124.972656 125.214844 124.972656 123.859375 C 124.972656 122.503906 124.890625 121.128906 125.46875 119.648438 C 125.761719 118.910156 126.296875 118.125 127.09375 117.613281 C 127.886719 117.101562 128.832031 116.898438 129.785156 116.898438 L 161.121094 116.898438 C 164.941406 116.898438 168.089844 120.035156 168.089844 123.859375 C 168.089844 127.683594 164.941406 130.820312 161.121094 130.820312 L 153.007812 130.820312 L 155.117188 136.035156 L 228.808594 136.035156 L 225.917969 126.90625 C 225.789062 126.640625 225.34375 125.804688 224.59375 125.058594 C 223.804688 124.269531 222.832031 123.644531 221.402344 123.644531 L 209.679688 123.644531 C 208.726562 123.644531 207.78125 123.441406 206.988281 122.929688 C 206.191406 122.414062 205.65625 121.628906 205.367188 120.890625 C 204.792969 119.414062 204.875 118.039062 204.875 116.683594 C 204.875 115.332031 204.792969 113.957031 205.367188 112.480469 C 205.65625 111.738281 206.191406 110.953125 206.984375 110.441406 C 207.777344 109.925781 208.722656 109.71875 209.679688 109.71875 Z M 160.730469 149.957031 L 175.414062 186.375 L 177.796875 186.382812 C 181.425781 186.394531 184.496094 189.28125 184.484375 192.902344 C 184.476562 195.574219 182.78125 197.828125 180.433594 198.824219 L 181.105469 200.484375 L 231.632812 149.957031 Z M 149.925781 160.394531 L 143.070312 174.585938 C 149.269531 178.601562 154.4375 184.019531 158.164062 190.410156 C 158.699219 189.144531 159.632812 188.09375 160.804688 187.375 Z M 117.570312 180.871094 C 99.230469 180.871094 84.410156 195.691406 84.410156 214.03125 C 84.410156 232.371094 99.234375 247.191406 117.574219 247.191406 C 133.933594 247.191406 147.464844 235.371094 150.199219 219.8125 L 116.867188 219.8125 C 114.46875 219.8125 112.246094 218.570312 110.972656 216.550781 L 110.972656 216.546875 C 109.699219 214.523438 109.558594 211.976562 110.601562 209.820312 L 124.21875 181.621094 C 122.058594 181.179688 119.855469 180.871094 117.570312 180.871094 Z M 260.886719 180.871094 C 259.792969 180.871094 258.714844 180.941406 257.648438 181.046875 C 262.996094 198.046875 266.78125 210.933594 266.796875 210.992188 C 267.949219 214.632812 265.902344 218.570312 262.261719 219.726562 L 262.257812 219.730469 L 262.253906 219.730469 C 258.609375 220.875 254.675781 218.832031 253.519531 215.195312 L 253.515625 215.183594 L 244.394531 185.347656 C 234.464844 191.070312 227.730469 201.722656 227.730469 214.03125 C 227.730469 232.371094 242.550781 247.191406 260.890625 247.191406 C 279.226562 247.191406 294.050781 232.371094 294.050781 214.03125 C 294.050781 195.695312 279.226562 180.871094 260.890625 180.871094 Z M 136.984375 187.199219 L 127.960938 205.882812 L 149.675781 205.882812 C 147.742188 198.25 143.179688 191.691406 136.984375 187.199219 Z M 162.042969 198.902344 C 162.8125 201.160156 163.40625 203.488281 163.828125 205.886719 L 168.269531 205.886719 L 165.628906 199.335938 L 164.335938 199.332031 C 163.53125 199.328125 162.765625 199.164062 162.042969 198.902344 Z M 162.042969 198.902344 "/>
  </g>
</svg>