<?xml version="1.0" encoding="UTF-8"?>
<!DOCTYPE svg PUBLIC "-//W3C//DTD SVG 1.1//EN" "http://www.w3.org/Graphics/SVG/1.1/DTD/svg11.dtd">
<svg version="1.2" width="25.03mm" height="25.02mm" viewBox="68649 30500 2503 2502" preserveAspectRatio="xMidYMid" fill-rule="evenodd" stroke-width="28.222" stroke-linejoin="round" xmlns="http://www.w3.org/2000/svg" xmlns:ooo="http://xml.openoffice.org/svg/export" xmlns:xlink="http://www.w3.org/1999/xlink" xmlns:presentation="http://sun.com/xmlns/staroffice/presentation" xmlns:smil="http://www.w3.org/2001/SMIL20/" xmlns:anim="urn:oasis:names:tc:opendocument:xmlns:animation:1.0" xml:space="preserve">
 <defs class="EmbeddedBulletChars">
  <g id="bullet-char-template-57356" transform="scale(0.00048828125,-0.00048828125)">
   <path d="M 580,1141 L 1163,571 580,0 -4,571 580,1141 Z"/>
  </g>
  <g id="bullet-char-template-57354" transform="scale(0.00048828125,-0.00048828125)">
   <path d="M 8,1128 L 1137,1128 1137,0 8,0 8,1128 Z"/>
  </g>
  <g id="bullet-char-template-10146" transform="scale(0.00048828125,-0.00048828125)">
   <path d="M 174,0 L 602,739 174,1481 1456,739 174,0 Z M 1358,739 L 309,1346 659,739 1358,739 Z"/>
  </g>
  <g id="bullet-char-template-10132" transform="scale(0.00048828125,-0.00048828125)">
   <path d="M 2015,739 L 1276,0 717,0 1260,543 174,543 174,936 1260,936 717,1481 1274,1481 2015,739 Z"/>
  </g>
  <g id="bullet-char-template-10007" transform="scale(0.00048828125,-0.00048828125)">
   <path d="M 0,-2 C -7,14 -16,27 -25,37 L 356,567 C 262,823 215,952 215,954 215,979 228,992 255,992 264,992 276,990 289,987 310,991 331,999 354,1012 L 381,999 492,748 772,1049 836,1024 860,1049 C 881,1039 901,1025 922,1006 886,937 835,863 770,784 769,783 710,716 594,584 L 774,223 C 774,196 753,168 711,139 L 727,119 C 717,90 699,76 672,76 641,76 570,178 457,381 L 164,-76 C 142,-110 111,-127 72,-127 30,-127 9,-110 8,-76 1,-67 -2,-52 -2,-32 -2,-23 -1,-13 0,-2 Z"/>
  </g>
  <g id="bullet-char-template-10004" transform="scale(0.00048828125,-0.00048828125)">
   <path d="M 285,-33 C 182,-33 111,30 74,156 52,228 41,333 41,471 41,549 55,616 82,672 116,743 169,778 240,778 293,778 328,747 346,684 L 369,508 C 377,444 397,411 428,410 L 1163,1116 C 1174,1127 1196,1133 1229,1133 1271,1133 1292,1118 1292,1087 L 1292,965 C 1292,929 1282,901 1262,881 L 442,47 C 390,-6 338,-33 285,-33 Z"/>
  </g>
  <g id="bullet-char-template-9679" transform="scale(0.00048828125,-0.00048828125)">
   <path d="M 813,0 C 632,0 489,54 383,161 276,268 223,411 223,592 223,773 276,916 383,1023 489,1130 632,1184 813,1184 992,1184 1136,1130 1245,1023 1353,916 1407,772 1407,592 1407,412 1353,268 1245,161 1136,54 992,0 813,0 Z"/>
  </g>
  <g id="bullet-char-template-8226" transform="scale(0.00048828125,-0.00048828125)">
   <path d="M 346,457 C 273,457 209,483 155,535 101,586 74,649 74,723 74,796 101,859 155,911 209,963 273,989 346,989 419,989 480,963 531,910 582,859 608,796 608,723 608,648 583,586 532,535 482,483 420,457 346,457 Z"/>
  </g>
  <g id="bullet-char-template-8211" transform="scale(0.00048828125,-0.00048828125)">
   <path d="M -4,459 L 1135,459 1135,606 -4,606 -4,459 Z"/>
  </g>
  <g id="bullet-char-template-61548" transform="scale(0.00048828125,-0.00048828125)">
   <path d="M 173,740 C 173,903 231,1043 346,1159 462,1274 601,1332 765,1332 928,1332 1067,1274 1183,1159 1299,1043 1357,903 1357,740 1357,577 1299,437 1183,322 1067,206 928,148 765,148 601,148 462,206 346,322 231,437 173,577 173,740 Z"/>
  </g>
 </defs>
 <g class="Page">
  <g class="com.sun.star.drawing.PolyPolygonShape">
   <g id="id3">
    <rect class="BoundingBox" stroke="none" fill="none" x="68649" y="30500" width="2503" height="2502"/>
    <path fill="rgb(255,0,0)" stroke="none" d="M 71151,31751 L 71151,31720 71149,31689 71147,31659 71145,31628 71141,31597 71137,31567 71132,31537 71127,31507 71120,31477 71113,31447 71106,31417 71097,31388 71088,31358 71078,31329 71067,31301 71056,31272 71044,31244 71031,31215 71017,31187 71003,31160 70988,31133 70973,31107 70957,31081 70940,31055 70923,31030 70905,31005 70886,30980 70867,30956 70847,30933 70827,30910 70806,30888 70785,30866 70763,30844 70740,30823 70717,30803 70694,30783 70670,30764 70645,30745 70620,30728 70595,30710 70569,30693 70543,30677 70517,30662 70490,30647 70463,30633 70435,30619 70407,30607 70379,30595 70351,30583 70322,30573 70293,30563 70263,30553 70234,30545 70204,30537 70174,30530 70144,30523 70114,30518 70084,30513 70054,30509 70023,30505 69992,30503 69962,30501 69931,30500 69901,30500 69870,30500 69839,30501 69808,30503 69778,30505 69747,30509 69717,30513 69687,30518 69657,30523 69627,30530 69597,30537 69567,30545 69538,30553 69508,30563 69479,30573 69450,30583 69422,30595 69394,30607 69366,30619 69338,30633 69311,30647 69284,30662 69258,30677 69232,30693 69206,30710 69181,30728 69156,30745 69131,30764 69107,30783 69084,30803 69061,30823 69038,30844 69016,30866 68995,30888 68974,30910 68954,30933 68934,30956 68915,30980 68896,31005 68878,31030 68861,31055 68844,31081 68828,31107 68813,31133 68798,31160 68784,31187 68770,31215 68757,31244 68744,31272 68733,31301 68722,31329 68712,31358 68703,31388 68694,31417 68687,31447 68680,31477 68673,31507 68668,31537 68663,31567 68659,31597 68655,31628 68653,31659 68651,31689 68649,31720 68649,31750 68649,31781 68651,31812 68653,31842 68655,31873 68659,31904 68663,31934 68668,31964 68673,31994 68680,32024 68687,32054 68694,32084 68703,32113 68712,32143 68722,32172 68733,32200 68744,32229 68757,32257 68770,32285 68784,32313 68798,32340 68813,32367 68828,32393 68844,32419 68861,32445 68878,32470 68896,32495 68915,32520 68934,32544 68954,32567 68974,32590 68995,32612 69016,32634 69038,32656 69061,32677 69084,32697 69107,32717 69131,32736 69156,32755 69181,32772 69206,32790 69232,32807 69258,32823 69284,32838 69311,32853 69338,32867 69366,32881 69394,32893 69422,32905 69450,32917 69479,32927 69508,32937 69538,32947 69567,32955 69597,32963 69627,32970 69657,32977 69687,32982 69717,32987 69747,32991 69778,32995 69808,32997 69839,32999 69870,33000 69900,33001 69931,33000 69962,32999 69992,32997 70023,32995 70054,32991 70084,32987 70114,32982 70144,32977 70174,32970 70204,32963 70234,32955 70263,32947 70293,32937 70322,32927 70351,32917 70379,32905 70407,32893 70435,32881 70463,32867 70490,32853 70517,32838 70543,32823 70569,32807 70595,32790 70620,32772 70645,32755 70670,32736 70694,32717 70717,32697 70740,32677 70763,32656 70785,32634 70806,32612 70827,32590 70847,32567 70867,32544 70886,32520 70905,32495 70923,32470 70940,32445 70957,32419 70973,32393 70988,32367 71003,32340 71017,32313 71031,32285 71044,32257 71056,32229 71067,32200 71078,32172 71088,32143 71097,32113 71106,32084 71113,32054 71120,32024 71127,31994 71132,31964 71137,31934 71141,31904 71145,31873 71147,31842 71149,31812 71151,31781 71151,31751 Z"/>
   </g>
  </g>
  <g class="com.sun.star.drawing.PolyPolygonShape">
   <g id="id4">
    <rect class="BoundingBox" stroke="none" fill="none" x="69363" y="31926" width="1075" height="718"/>
    <path fill="rgb(0,0,255)" stroke="none" d="M 70437,32463 L 69900,31926 69363,32463 69377,32474 69392,32484 69407,32494 69422,32504 69437,32513 69453,32523 69468,32531 69484,32540 69500,32548 69516,32556 69533,32564 69549,32571 69566,32579 69583,32585 69599,32592 69616,32597 69634,32603 69651,32608 69668,32613 69686,32617 69703,32622 69721,32625 69738,32629 69756,32632 69774,32635 69792,32637 69810,32639 69828,32641 69845,32642 69864,32643 69882,32643 69900,32643 69917,32643 69935,32643 69953,32642 69971,32641 69989,32639 70007,32637 70025,32635 70043,32632 70061,32629 70078,32625 70096,32622 70113,32617 70131,32613 70148,32608 70165,32603 70183,32597 70199,32592 70216,32585 70233,32579 70250,32571 70266,32564 70284,32556 70300,32548 70316,32540 70332,32531 70347,32523 70363,32513 70378,32504 70393,32494 70408,32484 70423,32474 70437,32463 Z"/>
   </g>
  </g>
  <g class="com.sun.star.drawing.PolyPolygonShape">
   <g id="id5">
    <rect class="BoundingBox" stroke="none" fill="none" x="69363" y="30857" width="1075" height="718"/>
    <path fill="rgb(0,0,255)" stroke="none" d="M 69900,31574 L 69363,31036 69377,31025 69392,31015 69407,31005 69422,30995 69437,30986 69453,30976 69468,30968 69484,30959 69500,30951 69516,30943 69533,30935 69549,30928 69566,30921 69583,30915 69599,30909 69616,30903 69634,30897 69651,30892 69668,30887 69686,30883 69703,30878 69721,30875 69738,30871 69756,30868 69774,30865 69792,30863 69810,30861 69828,30860 69845,30858 69864,30857 69882,30857 69900,30857 69917,30857 69935,30857 69953,30858 69971,30860 69989,30861 70007,30863 70025,30865 70043,30868 70060,30871 70078,30875 70096,30878 70113,30883 70131,30887 70148,30892 70165,30897 70183,30903 70199,30909 70216,30915 70233,30921 70250,30928 70266,30935 70284,30943 70300,30951 70316,30959 70332,30968 70347,30976 70363,30986 70378,30995 70393,31005 70408,31015 70423,31025 70437,31036 69900,31574 Z"/>
   </g>
  </g>
  <g class="com.sun.star.drawing.PolyPolygonShape">
   <g id="id6">
    <rect class="BoundingBox" stroke="none" fill="none" x="70076" y="31213" width="719" height="1075"/>
    <path fill="rgb(0,0,255)" stroke="none" d="M 70614,32287 L 70076,31750 70614,31213 70625,31227 70635,31242 70645,31257 70655,31272 70665,31287 70674,31303 70683,31318 70691,31334 70699,31350 70707,31367 70715,31383 70722,31399 70729,31416 70735,31433 70742,31450 70747,31467 70753,31484 70758,31501 70763,31518 70768,31536 70772,31553 70775,31571 70779,31589 70782,31606 70785,31624 70787,31642 70789,31661 70791,31679 70792,31697 70793,31715 70794,31733 70794,31751 70794,31768 70793,31786 70792,31804 70791,31822 70789,31840 70787,31858 70785,31876 70782,31894 70779,31912 70775,31929 70772,31947 70768,31964 70763,31982 70758,31999 70753,32016 70747,32033 70742,32050 70735,32067 70729,32084 70722,32101 70715,32117 70707,32133 70699,32150 70691,32166 70683,32182 70674,32197 70665,32213 70655,32228 70645,32243 70635,32258 70625,32273 70614,32287 Z"/>
   </g>
  </g>
  <g class="com.sun.star.drawing.PolyPolygonShape">
   <g id="id7">
    <rect class="BoundingBox" stroke="none" fill="none" x="69006" y="31213" width="719" height="1075"/>
    <path fill="rgb(0,0,255)" stroke="none" d="M 69724,31750 L 69187,31213 69176,31227 69166,31242 69156,31257 69146,31272 69136,31287 69127,31303 69118,31318 69110,31334 69102,31350 69093,31367 69085,31383 69078,31399 69071,31416 69065,31433 69058,31450 69052,31467 69047,31484 69042,31501 69037,31518 69032,31536 69028,31553 69025,31571 69021,31588 69018,31606 69015,31624 69013,31642 69011,31661 69009,31679 69008,31697 69007,31715 69006,31733 69006,31751 69006,31768 69007,31786 69008,31804 69009,31822 69011,31840 69013,31858 69015,31876 69018,31894 69021,31912 69025,31929 69028,31947 69032,31964 69037,31982 69042,31999 69047,32016 69052,32033 69058,32050 69065,32067 69071,32084 69078,32101 69085,32117 69093,32133 69102,32150 69110,32166 69118,32182 69127,32197 69136,32213 69146,32228 69156,32243 69166,32258 69176,32273 69187,32287 69724,31750 Z"/>
   </g>
  </g>
 </g>
</svg>