<?xml version="1.0" encoding="UTF-8"?>
<!DOCTYPE svg PUBLIC "-//W3C//DTD SVG 1.1//EN" "http://www.w3.org/Graphics/SVG/1.1/DTD/svg11.dtd">
<svg version="1.2" width="16.69mm" height="25.02mm" viewBox="93466 30500 1669 2502" preserveAspectRatio="xMidYMid" fill-rule="evenodd" stroke-width="28.222" stroke-linejoin="round" xmlns="http://www.w3.org/2000/svg" xmlns:ooo="http://xml.openoffice.org/svg/export" xmlns:xlink="http://www.w3.org/1999/xlink" xmlns:presentation="http://sun.com/xmlns/staroffice/presentation" xmlns:smil="http://www.w3.org/2001/SMIL20/" xmlns:anim="urn:oasis:names:tc:opendocument:xmlns:animation:1.0" xml:space="preserve">
 <defs class="EmbeddedBulletChars">
  <g id="bullet-char-template-57356" transform="scale(0.00048828125,-0.00048828125)">
   <path d="M 580,1141 L 1163,571 580,0 -4,571 580,1141 Z"/>
  </g>
  <g id="bullet-char-template-57354" transform="scale(0.00048828125,-0.00048828125)">
   <path d="M 8,1128 L 1137,1128 1137,0 8,0 8,1128 Z"/>
  </g>
  <g id="bullet-char-template-10146" transform="scale(0.00048828125,-0.00048828125)">
   <path d="M 174,0 L 602,739 174,1481 1456,739 174,0 Z M 1358,739 L 309,1346 659,739 1358,739 Z"/>
  </g>
  <g id="bullet-char-template-10132" transform="scale(0.00048828125,-0.00048828125)">
   <path d="M 2015,739 L 1276,0 717,0 1260,543 174,543 174,936 1260,936 717,1481 1274,1481 2015,739 Z"/>
  </g>
  <g id="bullet-char-template-10007" transform="scale(0.00048828125,-0.00048828125)">
   <path d="M 0,-2 C -7,14 -16,27 -25,37 L 356,567 C 262,823 215,952 215,954 215,979 228,992 255,992 264,992 276,990 289,987 310,991 331,999 354,1012 L 381,999 492,748 772,1049 836,1024 860,1049 C 881,1039 901,1025 922,1006 886,937 835,863 770,784 769,783 710,716 594,584 L 774,223 C 774,196 753,168 711,139 L 727,119 C 717,90 699,76 672,76 641,76 570,178 457,381 L 164,-76 C 142,-110 111,-127 72,-127 30,-127 9,-110 8,-76 1,-67 -2,-52 -2,-32 -2,-23 -1,-13 0,-2 Z"/>
  </g>
  <g id="bullet-char-template-10004" transform="scale(0.00048828125,-0.00048828125)">
   <path d="M 285,-33 C 182,-33 111,30 74,156 52,228 41,333 41,471 41,549 55,616 82,672 116,743 169,778 240,778 293,778 328,747 346,684 L 369,508 C 377,444 397,411 428,410 L 1163,1116 C 1174,1127 1196,1133 1229,1133 1271,1133 1292,1118 1292,1087 L 1292,965 C 1292,929 1282,901 1262,881 L 442,47 C 390,-6 338,-33 285,-33 Z"/>
  </g>
  <g id="bullet-char-template-9679" transform="scale(0.00048828125,-0.00048828125)">
   <path d="M 813,0 C 632,0 489,54 383,161 276,268 223,411 223,592 223,773 276,916 383,1023 489,1130 632,1184 813,1184 992,1184 1136,1130 1245,1023 1353,916 1407,772 1407,592 1407,412 1353,268 1245,161 1136,54 992,0 813,0 Z"/>
  </g>
  <g id="bullet-char-template-8226" transform="scale(0.00048828125,-0.00048828125)">
   <path d="M 346,457 C 273,457 209,483 155,535 101,586 74,649 74,723 74,796 101,859 155,911 209,963 273,989 346,989 419,989 480,963 531,910 582,859 608,796 608,723 608,648 583,586 532,535 482,483 420,457 346,457 Z"/>
  </g>
  <g id="bullet-char-template-8211" transform="scale(0.00048828125,-0.00048828125)">
   <path d="M -4,459 L 1135,459 1135,606 -4,606 -4,459 Z"/>
  </g>
  <g id="bullet-char-template-61548" transform="scale(0.00048828125,-0.00048828125)">
   <path d="M 173,740 C 173,903 231,1043 346,1159 462,1274 601,1332 765,1332 928,1332 1067,1274 1183,1159 1299,1043 1357,903 1357,740 1357,577 1299,437 1183,322 1067,206 928,148 765,148 601,148 462,206 346,322 231,437 173,577 173,740 Z"/>
  </g>
 </defs>
 <g class="Page">
  <g class="com.sun.star.drawing.PolyPolygonShape">
   <g id="id3">
    <rect class="BoundingBox" stroke="none" fill="none" x="93466" y="30500" width="1669" height="2502"/>
    <path fill="rgb(0,0,255)" stroke="none" d="M 93466,30687 L 93466,32813 93466,32822 93467,32831 93468,32841 93470,32850 93472,32859 93474,32867 93477,32876 93480,32885 93484,32893 93488,32901 93493,32909 93498,32917 93503,32925 93508,32932 93514,32939 93521,32946 93527,32952 93534,32958 93542,32964 93549,32969 93557,32974 93565,32978 93573,32983 93582,32986 93590,32990 93599,32992 93608,32995 93617,32997 93626,32999 93635,33000 93644,33000 93653,33001 94947,33001 94956,33000 94965,33000 94974,32999 94983,32997 94992,32995 95001,32992 95010,32990 95018,32986 95027,32983 95035,32978 95043,32974 95051,32969 95058,32964 95066,32958 95072,32952 95079,32946 95086,32939 95091,32932 95097,32925 95102,32917 95107,32909 95112,32901 95116,32893 95120,32885 95123,32876 95126,32867 95128,32859 95130,32850 95132,32841 95133,32831 95134,32822 95134,32813 95134,30687 95134,30678 95133,30669 95132,30660 95130,30650 95128,30641 95126,30633 95123,30624 95120,30615 95116,30607 95112,30599 95107,30591 95102,30583 95097,30575 95091,30568 95086,30561 95079,30554 95072,30548 95066,30542 95058,30536 95051,30531 95043,30526 95035,30522 95027,30518 95018,30514 95010,30511 95001,30508 94992,30505 94983,30503 94974,30502 94965,30500 94956,30500 94947,30500 93653,30500 93644,30500 93635,30500 93626,30502 93617,30503 93608,30505 93599,30508 93590,30511 93582,30514 93573,30518 93565,30522 93557,30526 93549,30531 93542,30536 93534,30542 93527,30548 93521,30554 93514,30561 93508,30568 93503,30575 93498,30583 93493,30591 93488,30599 93484,30607 93480,30615 93477,30624 93474,30633 93472,30641 93470,30650 93468,30660 93467,30669 93466,30678 93466,30687 Z"/>
   </g>
  </g>
  <g class="com.sun.star.drawing.PolyPolygonShape">
   <g id="id4">
    <rect class="BoundingBox" stroke="none" fill="none" x="93871" y="30708" width="859" height="1252"/>
    <path fill="rgb(255,255,255)" stroke="none" d="M 94100,31208 L 94374,31208 94386,31207 94398,31205 94410,31202 94422,31198 94433,31193 94443,31187 94453,31179 94462,31171 94471,31162 94478,31152 94484,31142 94489,31131 94494,31119 94497,31107 94498,31095 94499,31083 94499,31041 94498,31029 94497,31017 94494,31005 94489,30993 94484,30982 94478,30972 94471,30962 94462,30953 94453,30945 94443,30937 94433,30931 94422,30926 94410,30921 94398,30919 94386,30917 94374,30916 94100,30916 94100,31208 Z M 93871,31959 L 94100,31959 94100,31416 94395,31416 94411,31416 94427,31415 94444,31413 94460,31410 94476,31406 94492,31402 94507,31397 94522,31391 94537,31384 94552,31377 94566,31369 94580,31360 94593,31351 94606,31341 94619,31330 94630,31319 94642,31307 94653,31294 94663,31281 94672,31268 94681,31254 94689,31240 94696,31225 94704,31210 94710,31195 94715,31180 94719,31164 94723,31148 94726,31132 94728,31116 94729,31099 94729,31083 94729,31041 94729,31025 94728,31009 94726,30992 94723,30976 94719,30960 94715,30944 94710,30929 94704,30914 94696,30899 94689,30884 94681,30870 94672,30856 94663,30843 94653,30830 94642,30817 94630,30805 94619,30794 94606,30783 94593,30773 94580,30764 94566,30755 94552,30747 94537,30740 94522,30733 94507,30727 94492,30722 94476,30718 94460,30714 94444,30711 94427,30709 94411,30708 94395,30708 93871,30708 93871,31959 Z"/>
   </g>
  </g>
  <g class="com.sun.star.drawing.PolyPolygonShape">
   <g id="id5">
    <rect class="BoundingBox" stroke="none" fill="none" x="93549" y="32691" width="1504" height="102"/>
    <path fill="rgb(255,255,255)" stroke="none" d="M 95051,32792 L 93549,32792 93549,32754 94251,32754 94360,32691 95051,32691 95051,32792 Z"/>
   </g>
  </g>
  <g class="com.sun.star.drawing.PolyPolygonShape">
   <g id="id6">
    <rect class="BoundingBox" stroke="none" fill="none" x="93776" y="32356" width="1039" height="399"/>
    <path fill="rgb(255,255,255)" stroke="none" d="M 94809,32650 L 94807,32643 94806,32636 94805,32629 94805,32622 94805,32615 94805,32608 94806,32600 94808,32593 94810,32585 94811,32576 94813,32567 94814,32558 94814,32549 94814,32540 94814,32530 94814,32521 94813,32512 94812,32503 94811,32494 94809,32486 94807,32477 94804,32468 94801,32459 94798,32451 94796,32445 94795,32440 94794,32434 94793,32428 94792,32423 94792,32417 94792,32411 94792,32405 94792,32397 94791,32389 94789,32382 94786,32374 94781,32370 94775,32366 94770,32363 94763,32360 94757,32358 94750,32357 94743,32356 94737,32356 94730,32357 94723,32358 94717,32361 94711,32363 94705,32367 94699,32371 94694,32376 94690,32381 94689,32385 94688,32389 94687,32394 94687,32398 94687,32403 94687,32407 94688,32412 94689,32416 94692,32467 94677,32468 94680,32514 94389,32534 94384,32533 94378,32533 94373,32531 94368,32529 94363,32527 94358,32524 94354,32521 94349,32517 94343,32512 94337,32508 94330,32504 94323,32501 94315,32499 94308,32497 94300,32496 94292,32496 94284,32497 94276,32499 94269,32502 94262,32505 94255,32509 94249,32514 94243,32519 94237,32525 94234,32529 94230,32533 94225,32536 94221,32539 94216,32542 94211,32544 94205,32545 94200,32546 93910,32565 93907,32519 93891,32520 93887,32469 93888,32465 93888,32460 93888,32456 93887,32451 93887,32447 93885,32442 93884,32438 93882,32434 93877,32429 93871,32426 93865,32422 93859,32420 93853,32418 93845,32416 93838,32416 93831,32416 93825,32417 93818,32418 93812,32420 93806,32423 93800,32427 93794,32431 93789,32435 93785,32440 93783,32448 93782,32456 93782,32464 93783,32472 93784,32477 93785,32483 93785,32489 93786,32495 93785,32501 93785,32506 93784,32512 93783,32518 93781,32527 93779,32536 93778,32545 93777,32554 93776,32563 93776,32572 93776,32581 93776,32590 93777,32599 93778,32608 93780,32617 93782,32626 93784,32635 93786,32643 93789,32652 93792,32661 93794,32667 93796,32674 93798,32681 93799,32688 93800,32695 93800,32703 93799,32710 93799,32717 93799,32720 93800,32723 93800,32726 93802,32729 93803,32732 93805,32734 93807,32737 93810,32739 93814,32742 93819,32745 93825,32748 93830,32750 93836,32752 93842,32754 93848,32754 93855,32754 93861,32752 93866,32751 93872,32749 93878,32747 93883,32744 93888,32741 93892,32737 93897,32733 93899,32730 93902,32726 93904,32722 93905,32718 93905,32713 93905,32709 93904,32704 93903,32700 93899,32645 93915,32644 93912,32597 94202,32578 94208,32578 94213,32579 94218,32580 94224,32582 94229,32584 94233,32587 94238,32590 94242,32594 94248,32599 94254,32604 94261,32607 94269,32611 94276,32613 94284,32614 94292,32615 94300,32615 94307,32614 94315,32612 94323,32610 94330,32607 94337,32602 94343,32598 94349,32592 94354,32587 94358,32582 94362,32579 94366,32575 94371,32572 94376,32570 94381,32568 94386,32566 94391,32565 94682,32546 94685,32593 94701,32592 94704,32647 94703,32651 94703,32656 94704,32660 94705,32665 94706,32669 94709,32673 94712,32676 94715,32679 94720,32683 94725,32686 94730,32688 94736,32690 94741,32692 94747,32693 94753,32693 94759,32693 94765,32692 94770,32691 94776,32690 94782,32687 94787,32685 94792,32681 94796,32678 94801,32674 94803,32671 94805,32669 94806,32666 94807,32663 94808,32660 94809,32656 94809,32653 94809,32650 Z"/>
   </g>
  </g>
 </g>
</svg>