<?xml version="1.0" encoding="UTF-8"?>
<!DOCTYPE svg PUBLIC "-//W3C//DTD SVG 1.1//EN" "http://www.w3.org/Graphics/SVG/1.1/DTD/svg11.dtd">
<svg version="1.2" width="16.7mm" height="25.02mm" viewBox="82365 30500 1670 2502" preserveAspectRatio="xMidYMid" fill-rule="evenodd" stroke-width="28.222" stroke-linejoin="round" xmlns="http://www.w3.org/2000/svg" xmlns:ooo="http://xml.openoffice.org/svg/export" xmlns:xlink="http://www.w3.org/1999/xlink" xmlns:presentation="http://sun.com/xmlns/staroffice/presentation" xmlns:smil="http://www.w3.org/2001/SMIL20/" xmlns:anim="urn:oasis:names:tc:opendocument:xmlns:animation:1.0" xml:space="preserve">
 <defs class="EmbeddedBulletChars">
  <g id="bullet-char-template-57356" transform="scale(0.00048828125,-0.00048828125)">
   <path d="M 580,1141 L 1163,571 580,0 -4,571 580,1141 Z"/>
  </g>
  <g id="bullet-char-template-57354" transform="scale(0.00048828125,-0.00048828125)">
   <path d="M 8,1128 L 1137,1128 1137,0 8,0 8,1128 Z"/>
  </g>
  <g id="bullet-char-template-10146" transform="scale(0.00048828125,-0.00048828125)">
   <path d="M 174,0 L 602,739 174,1481 1456,739 174,0 Z M 1358,739 L 309,1346 659,739 1358,739 Z"/>
  </g>
  <g id="bullet-char-template-10132" transform="scale(0.00048828125,-0.00048828125)">
   <path d="M 2015,739 L 1276,0 717,0 1260,543 174,543 174,936 1260,936 717,1481 1274,1481 2015,739 Z"/>
  </g>
  <g id="bullet-char-template-10007" transform="scale(0.00048828125,-0.00048828125)">
   <path d="M 0,-2 C -7,14 -16,27 -25,37 L 356,567 C 262,823 215,952 215,954 215,979 228,992 255,992 264,992 276,990 289,987 310,991 331,999 354,1012 L 381,999 492,748 772,1049 836,1024 860,1049 C 881,1039 901,1025 922,1006 886,937 835,863 770,784 769,783 710,716 594,584 L 774,223 C 774,196 753,168 711,139 L 727,119 C 717,90 699,76 672,76 641,76 570,178 457,381 L 164,-76 C 142,-110 111,-127 72,-127 30,-127 9,-110 8,-76 1,-67 -2,-52 -2,-32 -2,-23 -1,-13 0,-2 Z"/>
  </g>
  <g id="bullet-char-template-10004" transform="scale(0.00048828125,-0.00048828125)">
   <path d="M 285,-33 C 182,-33 111,30 74,156 52,228 41,333 41,471 41,549 55,616 82,672 116,743 169,778 240,778 293,778 328,747 346,684 L 369,508 C 377,444 397,411 428,410 L 1163,1116 C 1174,1127 1196,1133 1229,1133 1271,1133 1292,1118 1292,1087 L 1292,965 C 1292,929 1282,901 1262,881 L 442,47 C 390,-6 338,-33 285,-33 Z"/>
  </g>
  <g id="bullet-char-template-9679" transform="scale(0.00048828125,-0.00048828125)">
   <path d="M 813,0 C 632,0 489,54 383,161 276,268 223,411 223,592 223,773 276,916 383,1023 489,1130 632,1184 813,1184 992,1184 1136,1130 1245,1023 1353,916 1407,772 1407,592 1407,412 1353,268 1245,161 1136,54 992,0 813,0 Z"/>
  </g>
  <g id="bullet-char-template-8226" transform="scale(0.00048828125,-0.00048828125)">
   <path d="M 346,457 C 273,457 209,483 155,535 101,586 74,649 74,723 74,796 101,859 155,911 209,963 273,989 346,989 419,989 480,963 531,910 582,859 608,796 608,723 608,648 583,586 532,535 482,483 420,457 346,457 Z"/>
  </g>
  <g id="bullet-char-template-8211" transform="scale(0.00048828125,-0.00048828125)">
   <path d="M -4,459 L 1135,459 1135,606 -4,606 -4,459 Z"/>
  </g>
  <g id="bullet-char-template-61548" transform="scale(0.00048828125,-0.00048828125)">
   <path d="M 173,740 C 173,903 231,1043 346,1159 462,1274 601,1332 765,1332 928,1332 1067,1274 1183,1159 1299,1043 1357,903 1357,740 1357,577 1299,437 1183,322 1067,206 928,148 765,148 601,148 462,206 346,322 231,437 173,577 173,740 Z"/>
  </g>
 </defs>
 <g class="Page">
  <g class="com.sun.star.drawing.PolyPolygonShape">
   <g id="id3">
    <rect class="BoundingBox" stroke="none" fill="none" x="82365" y="30500" width="1670" height="2502"/>
    <path fill="rgb(0,0,255)" stroke="none" d="M 82366,30687 L 82366,32813 82366,32822 82367,32831 82368,32841 82370,32850 82372,32859 82374,32867 82377,32876 82380,32885 82384,32893 82388,32901 82393,32909 82397,32917 82403,32925 82408,32932 82414,32939 82421,32946 82427,32952 82434,32958 82442,32964 82449,32969 82457,32974 82465,32978 82473,32983 82482,32986 82490,32990 82499,32992 82508,32995 82518,32997 82527,32999 82536,33000 82545,33000 82554,33001 83847,33001 83856,33000 83865,33000 83874,32999 83883,32997 83892,32995 83901,32992 83910,32990 83918,32986 83927,32983 83935,32978 83943,32974 83951,32969 83958,32964 83966,32958 83972,32952 83979,32946 83986,32939 83992,32932 83997,32925 84002,32917 84007,32909 84012,32901 84016,32893 84020,32885 84023,32876 84026,32867 84028,32859 84030,32850 84032,32841 84033,32831 84034,32822 84034,32813 84034,30687 84034,30678 84033,30669 84032,30660 84030,30650 84028,30641 84026,30633 84023,30624 84020,30615 84016,30607 84012,30599 84007,30591 84002,30583 83997,30575 83992,30568 83986,30561 83979,30554 83972,30548 83966,30542 83958,30536 83951,30531 83943,30526 83935,30522 83927,30518 83918,30514 83910,30511 83901,30508 83892,30505 83883,30503 83874,30502 83865,30500 83856,30500 83847,30500 82554,30500 82545,30500 82536,30500 82527,30502 82518,30503 82508,30505 82499,30508 82490,30511 82482,30514 82473,30518 82465,30522 82457,30526 82449,30531 82442,30536 82434,30542 82427,30548 82421,30554 82414,30561 82408,30568 82403,30575 82397,30583 82393,30591 82388,30599 82384,30607 82380,30615 82377,30624 82374,30633 82372,30641 82370,30650 82368,30660 82367,30669 82366,30678 82366,30687 Z"/>
   </g>
  </g>
  <g class="com.sun.star.drawing.PolyPolygonShape">
   <g id="id4">
    <rect class="BoundingBox" stroke="none" fill="none" x="83376" y="32236" width="427" height="564"/>
    <path fill="rgb(255,255,255)" stroke="none" d="M 83658,32236 L 83802,32236 83802,32799 83377,32799 83377,32236 83519,32236 83525,32243 83533,32250 83541,32257 83550,32262 83559,32266 83569,32269 83579,32271 83589,32271 83599,32271 83609,32269 83619,32266 83628,32262 83637,32257 83645,32250 83652,32243 83658,32236 Z"/>
   </g>
  </g>
  <g class="com.sun.star.drawing.PolyPolygonShape">
   <g id="id5">
    <rect class="BoundingBox" stroke="none" fill="none" x="82628" y="30915" width="1145" height="1670"/>
    <path fill="rgb(255,255,255)" stroke="none" d="M 82935,31583 L 83300,31583 83308,31583 83316,31582 83324,31581 83332,31580 83340,31578 83348,31576 83356,31573 83364,31570 83371,31567 83378,31563 83385,31559 83392,31555 83399,31550 83406,31545 83412,31540 83418,31534 83423,31528 83429,31522 83434,31515 83438,31509 83443,31502 83447,31495 83450,31487 83454,31480 83457,31472 83459,31465 83461,31457 83463,31449 83465,31441 83466,31432 83466,31424 83466,31416 83466,31361 83466,31352 83466,31344 83465,31336 83463,31328 83461,31320 83459,31312 83457,31305 83454,31297 83450,31289 83447,31282 83443,31275 83438,31268 83434,31261 83429,31255 83423,31249 83418,31243 83412,31237 83406,31232 83399,31227 83392,31222 83385,31218 83378,31214 83371,31210 83364,31207 83356,31204 83348,31201 83340,31199 83332,31197 83324,31196 83316,31195 83308,31194 83300,31194 82935,31194 82935,31583 Z M 82628,32584 L 82935,32584 82935,31861 83327,31861 83349,31860 83371,31858 83393,31856 83414,31852 83435,31847 83456,31841 83477,31835 83498,31827 83518,31818 83537,31808 83556,31797 83574,31786 83592,31773 83610,31760 83626,31745 83642,31730 83657,31715 83671,31698 83684,31681 83697,31663 83709,31645 83719,31626 83729,31606 83738,31586 83746,31566 83753,31545 83759,31524 83763,31503 83767,31481 83770,31460 83772,31438 83772,31416 83772,31361 83772,31339 83770,31317 83767,31295 83763,31274 83759,31253 83753,31232 83746,31211 83738,31191 83729,31171 83719,31151 83709,31132 83697,31114 83684,31096 83671,31079 83657,31062 83642,31046 83626,31031 83610,31017 83592,31004 83574,30991 83556,30979 83537,30969 83518,30959 83498,30950 83477,30942 83456,30935 83435,30929 83414,30925 83393,30921 83371,30918 83349,30917 83327,30916 82628,30916 82628,32584 Z"/>
   </g>
  </g>
  <g class="com.sun.star.drawing.PolyPolygonShape">
   <g id="id6">
    <rect class="BoundingBox" stroke="none" fill="none" x="83397" y="32255" width="385" height="524"/>
    <path fill="rgb(0,0,255)" stroke="none" d="M 83670,32256 L 83781,32256 83781,32778 83397,32778 83397,32256 83510,32256 83518,32264 83527,32271 83536,32278 83546,32283 83557,32287 83567,32290 83579,32292 83590,32292 83601,32292 83612,32290 83623,32287 83634,32283 83643,32278 83653,32271 83662,32264 83670,32256 Z"/>
   </g>
  </g>
  <g class="com.sun.star.drawing.PolyPolygonShape">
   <g id="id7">
    <rect class="BoundingBox" stroke="none" fill="none" x="83466" y="32488" width="248" height="118"/>
    <path fill="rgb(255,255,255)" stroke="none" d="M 83466,32533 L 83543,32488 83547,32494 83551,32499 83556,32504 83562,32508 83568,32511 83575,32513 83582,32514 83589,32515 83596,32514 83603,32513 83609,32511 83615,32508 83621,32504 83626,32499 83631,32494 83635,32488 83713,32533 83708,32541 83702,32548 83696,32555 83690,32562 83683,32568 83676,32574 83669,32580 83660,32585 83651,32589 83643,32593 83634,32596 83625,32599 83616,32601 83607,32602 83598,32604 83589,32605 83580,32604 83570,32602 83561,32601 83552,32599 83543,32596 83534,32593 83526,32589 83518,32585 83510,32580 83502,32574 83495,32568 83489,32562 83482,32555 83476,32548 83471,32541 83466,32533 Z"/>
   </g>
  </g>
  <g class="com.sun.star.drawing.PolyPolygonShape">
   <g id="id8">
    <rect class="BoundingBox" stroke="none" fill="none" x="83541" y="32620" width="97" height="142"/>
    <path fill="rgb(255,255,255)" stroke="none" d="M 83541,32761 L 83637,32761 83637,32621 83541,32621 83541,32761 Z"/>
   </g>
  </g>
  <g class="com.sun.star.drawing.PolyPolygonShape">
   <g id="id9">
    <rect class="BoundingBox" stroke="none" fill="none" x="83498" y="32361" width="184" height="21"/>
    <path fill="rgb(255,255,255)" stroke="none" d="M 83681,32362 L 83498,32362 83498,32381 83681,32381 83681,32362 Z"/>
   </g>
  </g>
  <g class="com.sun.star.drawing.PolyPolygonShape">
   <g id="id10">
    <rect class="BoundingBox" stroke="none" fill="none" x="83498" y="32334" width="184" height="21"/>
    <path fill="rgb(255,255,255)" stroke="none" d="M 83498,32354 L 83681,32354 83681,32335 83498,32335 83498,32354 Z"/>
   </g>
  </g>
  <g class="com.sun.star.drawing.PolyPolygonShape">
   <g id="id11">
    <rect class="BoundingBox" stroke="none" fill="none" x="83498" y="32309" width="184" height="20"/>
    <path fill="rgb(255,255,255)" stroke="none" d="M 83681,32328 L 83498,32328 83498,32309 83681,32309 83681,32328 Z"/>
   </g>
  </g>
  <g class="com.sun.star.drawing.PolyPolygonShape">
   <g id="id12">
    <rect class="BoundingBox" stroke="none" fill="none" x="83552" y="32632" width="76" height="119"/>
    <path fill="rgb(0,0,255)" stroke="none" d="M 83552,32750 L 83627,32750 83627,32632 83552,32632 83552,32750 Z"/>
   </g>
  </g>
  <g class="com.sun.star.drawing.PolyPolygonShape">
   <g id="id13">
    <rect class="BoundingBox" stroke="none" fill="none" x="83553" y="32396" width="73" height="103"/>
    <path fill="rgb(255,255,255)" stroke="none" d="M 83553,32396 L 83625,32396 83589,32498 83553,32396 Z"/>
   </g>
  </g>
  <g class="com.sun.star.drawing.PolyPolygonShape">
   <g id="id14">
    <rect class="BoundingBox" stroke="none" fill="none" x="83566" y="32646" width="48" height="91"/>
    <path fill="rgb(255,255,255)" stroke="none" d="M 83579,32658 L 83591,32658 83593,32658 83594,32658 83596,32659 83597,32660 83598,32661 83599,32663 83600,32665 83600,32666 83600,32675 83600,32677 83599,32679 83598,32680 83597,32682 83596,32683 83594,32683 83593,32684 83591,32684 83579,32684 83579,32658 Z M 83566,32736 L 83566,32646 83592,32646 83596,32647 83600,32648 83604,32649 83607,32652 83609,32655 83611,32659 83612,32662 83613,32666 83613,32675 83612,32679 83611,32683 83609,32686 83607,32689 83604,32693 83600,32695 83596,32696 83592,32696 83579,32696 83579,32736 83566,32736 Z"/>
   </g>
  </g>
 </g>
</svg>