<?xml version="1.0" encoding="UTF-8" standalone="no"?>
<svg
   xmlns:dc="http://purl.org/dc/elements/1.1/"
   xmlns:cc="http://creativecommons.org/ns#"
   xmlns:rdf="http://www.w3.org/1999/02/22-rdf-syntax-ns#"
   xmlns:svg="http://www.w3.org/2000/svg"
   xmlns="http://www.w3.org/2000/svg"
   xmlns:sodipodi="http://sodipodi.sourceforge.net/DTD/sodipodi-0.dtd"
   xmlns:inkscape="http://www.inkscape.org/namespaces/inkscape"
   version="1.1"
   x="0px"
   y="0px"
   viewBox="0 0 149.776 123.811"
   xml:space="preserve"
   id="svg8"
   sodipodi:docname="picnic_table.svg"
   width="149.776"
   height="123.811"
   inkscape:version="0.92.5 (2060ec1f9f, 2020-04-08)"><metadata
     id="metadata14"><rdf:RDF><cc:Work
         rdf:about=""><dc:format>image/svg+xml</dc:format><dc:type
           rdf:resource="http://purl.org/dc/dcmitype/StillImage" /></cc:Work></rdf:RDF></metadata><defs
     id="defs12" /><sodipodi:namedview
     pagecolor="#ffffff"
     bordercolor="#666666"
     borderopacity="1"
     objecttolerance="10"
     gridtolerance="10"
     guidetolerance="10"
     inkscape:pageopacity="0"
     inkscape:pageshadow="2"
     inkscape:window-width="1920"
     inkscape:window-height="999"
     id="namedview10"
     showgrid="false"
     inkscape:zoom="6.675088"
     inkscape:cx="81.643648"
     inkscape:cy="53.732862"
     inkscape:window-x="0"
     inkscape:window-y="0"
     inkscape:window-maximized="1"
     inkscape:current-layer="svg8" /><path
     d="M 120.5016,54.798382 106.3259,54.34895 98.946949,36.258098 h 8.431841 c 3.5921,0 6.51504,-2.922946 6.51504,-6.515734 v -4.158833 c 0,-3.592788 -2.92294,-6.515734 -6.51504,-6.515734 H 42.463639 c -3.592788,0 -6.515735,2.922946 -6.515735,6.515734 v 4.158833 c 0,3.592788 2.922947,6.515734 6.515735,6.515734 h 8.364028 L 44.497392,55.547436 H 29.273705 c -3.42256,0 -6.207109,2.784549 -6.207109,6.207109 -0.298174,5.64483 -0.229972,14.335835 6.207109,14.532142 h 6.025117 l -9.760454,25.159203 c -0.288558,0.74458 -0.19168,1.58465 0.259494,2.24411 0.451867,0.65946 1.199211,1.0532 1.998454,1.0532 H 38.98918 c 0.997843,0 1.893964,-0.6124 2.256565,-1.54174 L 51.74524,76.285995 h 46.284828 l 10.499492,26.915465 c 0.3626,0.92934 1.25803,1.54174 2.25657,1.54174 h 11.19355 c 0.79925,0 1.54659,-0.39374 1.99846,-1.0532 0.45186,-0.65946 0.54874,-1.49953 0.25949,-2.24411 l -9.76045,-25.158511 h 6.02511 c 3.42256,0 6.20711,-2.783857 6.20711,-6.207109 0,-3.024696 0,-6.049391 0,-9.074087 -6.9e-4,-3.423252 -2.84726,-5.559199 -6.2078,-6.207801 z M 82.414725,36.258098 92.069306,61.007649 H 57.70531 l 9.654581,-24.749551 z"
     id="path2"
     inkscape:connector-curvature="0"
     style="stroke-width:0.69198543;fill:#8c6726;fill-opacity:0.98431373"
     sodipodi:nodetypes="sccssssssssccscccccssccccsscccsccsccccc" /></svg>