<?xml version="1.0" encoding="utf-8"?>
<!-- Generator: Adobe Illustrator 14.0.0, SVG Export Plug-In . SVG Version: 6.00 Build 43363)  -->
<!DOCTYPE svg PUBLIC "-//W3C//DTD SVG 1.1//EN" "http://www.w3.org/Graphics/SVG/1.1/DTD/svg11.dtd">
<svg version="1.1" id="Calque_1" xmlns="http://www.w3.org/2000/svg" xmlns:xlink="http://www.w3.org/1999/xlink" x="0px" y="0px"
	 width="79.194px" height="79.177px" viewBox="0 0 79.194 79.177" enable-background="new 0 0 79.194 79.177" xml:space="preserve">
<path fill-rule="evenodd" clip-rule="evenodd" fill="#ED1C24" d="M39.597,79.177c-30.431,0-49.458-32.972-34.242-59.375
	c15.215-26.402,53.27-26.402,68.485,0C89.055,46.205,70.028,79.177,39.597,79.177z"/>
<path fill="none" stroke="#ED1C24" stroke-width="0" stroke-miterlimit="3.863" d="M39.597,79.177
	c-30.431,0-49.458-32.972-34.242-59.375c15.215-26.402,53.27-26.402,68.485,0C89.055,46.205,70.028,79.177,39.597,79.177z"/>
<path fill-rule="evenodd" clip-rule="evenodd" fill="#FFFFFF" d="M39.597,68.146c-22.002,0-35.73-23.801-24.729-42.828
	c10.97-19.027,38.488-19.058,49.458,0C75.327,44.345,61.6,68.146,39.597,68.146z"/>
<path fill="none" stroke="#ED1C24" stroke-width="0" stroke-miterlimit="3.863" d="M39.597,68.146
	c-22.002,0-35.73-23.801-24.729-42.828c10.97-19.027,38.488-19.058,49.458,0C75.327,44.345,61.6,68.146,39.597,68.146z"/>
<path fill="#1A1D21" d="M64.45,50.047h0.683v0.589H13.814v-0.589h28.541V46.64h-0.621c-1.518-2.264-1.177-4.557-1.177-7.902
	c0-0.744,0.496-0.744,0.651-0.961c0.154-0.155,0.309-0.094,0.371-0.155l3.099-7.809h17.386l3.656,7.748
	c0.155,0.062,0.248,0,0.403,0.092c0.155,0.218,0.619,0.218,0.619,0.992c0,3.315,0.248,5.424-1.332,7.717H64.45V50.047z"/>
<path fill="none" stroke="#1A1D21" stroke-width="0.155" stroke-miterlimit="3.863" d="M64.45,50.047h0.683v0.589H13.814v-0.589
	h28.541V46.64h-0.621c-1.518-2.264-1.177-4.557-1.177-7.902c0-0.744,0.496-0.744,0.651-0.961c0.154-0.155,0.309-0.094,0.371-0.155
	l3.099-7.809h17.386l3.656,7.748c0.155,0.062,0.248,0,0.403,0.092c0.155,0.218,0.619,0.218,0.619,0.992
	c0,3.315,0.248,5.424-1.332,7.717H64.45V50.047z"/>
<path fill="#FFFFFF" d="M45.236,50.108 M61.63,50.108H45.236V46.7H61.63V50.108z"/>
<path fill="none" stroke="#120C0E" stroke-width="0.155" stroke-miterlimit="3.863" d="M45.236,50.108 M61.63,50.108H45.236V46.7
	H61.63V50.108z"/>
<path fill="#FFFFFF" d="M64.977,37.373c-3.471-0.496-7.901-0.341-11.063-0.465c-3.254,0.124-7.654-0.031-11.156,0.465l2.604-6.756
	h16.207L64.977,37.373z"/>
<path fill="none" stroke="#120C0E" stroke-width="0.155" stroke-miterlimit="3.863" d="M64.977,37.373
	c-3.471-0.496-7.901-0.341-11.063-0.465c-3.254,0.124-7.654-0.031-11.156,0.465l2.604-6.756h16.207L64.977,37.373z"/>
<path fill="#ED1C24" d="M14.712,49.892h2.851v-3.438h16.394v3.438h2.882v-3.687H37.8c1.58-2.293,1.301-4.401,1.301-7.716
	c0-0.775-0.464-0.775-0.619-0.992c-0.155-0.094-0.248-0.031-0.403-0.094l-3.626-7.747H17.037l-3.098,7.809
	c-0.062,0.063-0.217,0-0.341,0.155c-0.155,0.217-0.682,0.217-0.682,0.961c0,3.347-0.31,5.64,1.177,7.901h0.62V49.892z"/>
<path fill="none" stroke="#ED1C24" stroke-width="0.155" stroke-miterlimit="3.863" d="M14.712,49.892h2.851v-3.438h16.394v3.438
	h2.882v-3.687H37.8c1.58-2.293,1.301-4.401,1.301-7.716c0-0.775-0.464-0.775-0.619-0.992c-0.155-0.094-0.248-0.031-0.403-0.094
	l-3.626-7.747H17.037l-3.098,7.809c-0.062,0.063-0.217,0-0.341,0.155c-0.155,0.217-0.682,0.217-0.682,0.961
	c0,3.347-0.31,5.64,1.177,7.901h0.62V49.892z"/>
<path fill="#FFFFFF" d="M36.901,37.342c-3.44-0.495-7.902-0.341-11.063-0.465c-3.223,0.124-7.654-0.03-11.156,0.465l2.634-6.756
	h16.176L36.901,37.342z"/>
<path fill="none" stroke="#EF402B" stroke-width="0.155" stroke-miterlimit="3.863" d="M36.901,37.342
	c-3.44-0.495-7.902-0.341-11.063-0.465c-3.223,0.124-7.654-0.03-11.156,0.465l2.634-6.756h16.176L36.901,37.342z"/>
</svg>
