<?xml version="1.0" encoding="utf-8"?>
<!-- Generator: Adobe Illustrator 14.0.0, SVG Export Plug-In . SVG Version: 6.00 Build 43363)  -->
<!DOCTYPE svg PUBLIC "-//W3C//DTD SVG 1.1//EN" "http://www.w3.org/Graphics/SVG/1.1/DTD/svg11.dtd">
<svg version="1.1" id="Calque_1" xmlns="http://www.w3.org/2000/svg" xmlns:xlink="http://www.w3.org/1999/xlink" x="0px" y="0px"
	 width="79.403px" height="79.271px" viewBox="0 0 79.403 79.271" enable-background="new 0 0 79.403 79.271" xml:space="preserve">
<path fill-rule="evenodd" clip-rule="evenodd" fill="#ED1C24" d="M39.721,0c30.504,0,49.576,33.023,34.303,59.45
	c-15.232,26.427-53.374,26.427-68.646,0C-9.894,33.023,9.176,0,39.721,0z"/>
<path fill="none" stroke="#ED1C24" stroke-width="0" stroke-miterlimit="3.863" d="M39.721,0c30.504,0,49.576,33.023,34.303,59.45
	c-15.232,26.427-53.374,26.427-68.646,0C-9.894,33.023,9.176,0,39.721,0z"/>
<path fill-rule="evenodd" clip-rule="evenodd" fill="#FFFFFF" d="M39.681,68.286c-22.069,0-35.862-23.868-24.828-42.979
	c11.035-19.11,38.662-19.15,49.696,0C75.583,44.418,61.79,68.286,39.681,68.286z"/>
<path fill="none" stroke="#ED1C24" stroke-width="0" stroke-miterlimit="3.863" d="M39.681,68.286
	c-22.069,0-35.862-23.868-24.828-42.979c11.035-19.11,38.662-19.15,49.696,0C75.583,44.418,61.79,68.286,39.681,68.286z"/>
<path d="M19.451,33.383c0.16,0,1.239,0.801,1.399,0.841c5.878,3.998,1.999,6.597,6.157,10.435l-4.517,4.797
	c0,0.04-0.08,0.08-0.04,0.16c-0.36,0.521-0.44,1.16-0.36,1.799c0.08,0.04,0.919,2.879,1.479,3.56c-0.04,0.158,0.04,0.358,0.12,0.479
	c0,0.04,0.04,0.12,0.08,0.16c-0.24,0.36-0.36,0.8-0.32,1.2c0.2,0.2,0.44,0.398,0.64,0.679l1.039-0.559l-0.12-0.801
	c-0.08-0.479-0.319-0.52-0.559-0.88c0-0.08-0.4-0.759-0.4-0.839c-0.2-0.2-0.28-1.24-0.4-1.519c-0.44-1.08,0.04-0.4-0.44-1.4
	c0.12-0.16,0.12-0.719,0.36-0.639c2.079-1.48,4.158-2.919,6.277-4.398c0.68,1.079,1.959,2.519,2.399,4.198
	c0.36,1.479,3.358,4.877,3.798,6.037c0.2,0.479-0.36,1.199-0.36,1.759h1.479l-0.12-1.08l0.36-0.12l-0.799-1.159
	c-0.68-1.039-0.72-0.84-1.32-1.959c-0.36-0.72-0.639-1.438-0.759-2.118c-0.04-0.12-0.8-3.998-0.44-5.837l0.959-0.681
	c1.48,0,2.719,0.12,4.238-0.12c1.08-0.16,3-0.319,3.798-0.879c1.839-0.56,2.439-1.359,2.959-1.52c0.08,0-0.04,0.04,0,0
	c0,0,0.04,0.92,1.398,3.119c0.561,1.238,1.959,2.519,0.881,3.798c-0.44,0.56-2.439,2.759-2.64,3.237c0,0.16-0.12,0.36-0.239,0.48
	c0,0.08-0.08,0.12-0.041,0.24c-0.199,0.12-0.319,0.319-0.439,0.52c0.04,0.44-0.318,0.64-0.04,1.079c0.28,0.16,0.2,0.68,0.28,0.92
	l1.039-0.92l-0.359-0.36l0.359-0.198l-0.199-0.48c-0.08-0.16,0.08-0.359,0.12-0.52c0.52-0.84,1.198-1.399,1.879-2.039
	c1.039-0.959,2.039-1.799,2.918-2.839c0.399-0.72,0.2-1.6,0.28-2.438c0.08,0.12,0.08,0.2,0.08,0.359
	c0.119,0.12,0.24,0.319,0.24,0.479c0.719,0.8,1.719,1.72,2.719,2.279c0.56,0.32,0.799,0.36,1.238,0.68c0.521,0.08,1.16,1.039,1,1.64
	l0.24,4.478c0.08,0.12,0.08,0.28,0.08,0.44c-0.561,0.318-0.68,0.919-0.6,1.599h1.358l-0.079-1.24l0.239-0.08
	c0.16-0.04-0.36-2.478-0.16-3.518c0.24-3.038,0.761-1.839,0.28-3.558c-0.32-1.08-0.999-0.841-1.52-1.8
	c-0.359,0-1.959-2.799-2.358-4.038c-0.32-0.96-0.4-3.878-0.12-4.638c0.4-1.119,0.12-2.639-0.359-3.438c0.159-0.12,0.439,0,0.6-0.04
	c0.119,0.08,0.199,0.159,0.359,0.159c1.959,1.359,1.439,3.479,2.279,5.397c0.04,0.04,0.08,0.08,0.12,0.12
	c-0.04,0.08,0.04,0.12,0.04,0.2c0.158,0.64,0.759,1.039,1.398,0.919c0.521-0.359,1.119-0.759,1.64-0.64l-2.958-5.677
	c-0.52-0.76-1.08-1-1.44-1.32c-0.879-0.319-1.319-0.239-2.198-0.279c-1.959-0.12-2.08-1.56-4.039-1.64
	c-3.357-0.119-3.397-0.119-5.196,0c-0.28,0-1.359,0.36-1.24,0.16l0.04-0.279l-1.238,0.039l0.479-1.118l-0.36-0.28l-1.479,1.479
	c0-0.839-0.16-1.118-0.36-1.679c-0.4-0.479-0.48-0.88-0.8-1.239c-0.2-1.279-0.599-5.438-3.798-6.236l-0.04-0.48l-0.36,0.12v-0.6
	l0.36,0.04l-0.24-0.999l0.52-1.12c-0.959-0.08-2.799-1.159-3.358,0c-0.4,0-0.6,0.12-0.92,0.16l0.84,0.319h0.08l0.04,0.721
	l-0.36,0.919h0.36v0.68c0,0.2-0.04,0.439,0.2,0.439c0.319-0.159,0.679,0,1.039-0.039l0.44,0.239c0.28,1.199-0.72,0.64,0.28,2.998
	c0,0.44-0.44,1.159-0.84,1.64c-0.6,0.84-0.679,0.8-2.119,2.039c-0.719,0.079-1.039,0.399-1.119,1.119c0.2,0.2,0.32,0.399,0.6,0.52
	c0.159,0.04,0.279-0.04,0.439-0.04c0.4-0.16,0.24-0.799,0.32-0.879c0.04-0.04,0.12-0.08,0.16-0.08c0.16,0.2,0.32,0.36,0.48,0.52
	c0.6-0.04,0.959-0.68,2.199-1.399c0.04-0.439,0.799-0.399,0.759-0.839c0-0.16,0.08,0.239,0.2,0.319
	c-0.08,0.839,0.32,1.56-0.24,2.358l-1.039,1.479h-1.319c-0.76,0-1.72-0.119-1.959-0.479c-1.64-0.96-2.439-1.279-3.799-2.239
	c-3.198-2.279-6.556-2.959-7.596-2.959c-0.44,0-0.879-0.358-1.159-0.599c0-0.08,0-0.12,0-0.2c-0.16-0.4-0.64-0.68-0.6-1.16
	l-0.28,0.92l-0.719-0.88c-0.04,0.04-0.08,0.12-0.08,0.2c0.239,0.479,0,1.08,0.08,1.6c-0.08,0.04-0.08,0.119-0.12,0.159
	c0,0.32-0.16,0.64-0.32,0.88c0.12,0.8-0.8,1.199-0.52,2.039c-0.12,1-0.4,1.479-0.76,2.399c-0.279,0.68-0.319,1.238-0.24,2.199
	c0.04,0.399,0.52,0.679,0.96,0.759c0.12,0,0.16-0.16,0.28-0.2c0.08,0.12,0.12,0.24,0.24,0.36c0.32,0,0.36,0.119,0.599-0.12
	c-0.04-0.279,0.28-0.479,0.28-0.76C18.612,34.543,18.612,34.703,19.451,33.383z"/>
<path fill="none" stroke="#000000" stroke-width="0.2" stroke-miterlimit="3.863" d="M19.451,33.383c0.16,0,1.239,0.801,1.399,0.841
	c5.878,3.998,1.999,6.597,6.157,10.435l-4.517,4.797c0,0.04-0.08,0.08-0.04,0.16c-0.36,0.521-0.44,1.16-0.36,1.799
	c0.08,0.04,0.919,2.879,1.479,3.56c-0.04,0.158,0.04,0.358,0.12,0.479c0,0.04,0.04,0.12,0.08,0.16c-0.24,0.36-0.36,0.8-0.32,1.2
	c0.2,0.2,0.44,0.398,0.64,0.679l1.039-0.559l-0.12-0.801c-0.08-0.479-0.319-0.52-0.559-0.88c0-0.08-0.4-0.759-0.4-0.839
	c-0.2-0.2-0.28-1.24-0.4-1.519c-0.44-1.08,0.04-0.4-0.44-1.4c0.12-0.16,0.12-0.719,0.36-0.639c2.079-1.48,4.158-2.919,6.277-4.398
	c0.68,1.079,1.959,2.519,2.399,4.198c0.36,1.479,3.358,4.877,3.798,6.037c0.2,0.479-0.36,1.199-0.36,1.759h1.479l-0.12-1.08
	l0.36-0.12l-0.799-1.159c-0.68-1.039-0.72-0.84-1.32-1.959c-0.36-0.72-0.639-1.438-0.759-2.118c-0.04-0.12-0.8-3.998-0.44-5.837
	l0.959-0.681c1.48,0,2.719,0.12,4.238-0.12c1.08-0.16,3-0.319,3.798-0.879c1.839-0.56,2.439-1.359,2.959-1.52c0.08,0-0.04,0.04,0,0
	c0,0,0.04,0.92,1.398,3.119c0.561,1.238,1.959,2.519,0.881,3.798c-0.44,0.56-2.439,2.759-2.64,3.237c0,0.16-0.12,0.36-0.239,0.48
	c0,0.08-0.08,0.12-0.041,0.24c-0.199,0.12-0.319,0.319-0.439,0.52c0.04,0.44-0.318,0.64-0.04,1.079c0.28,0.16,0.2,0.68,0.28,0.92
	l1.039-0.92l-0.359-0.36l0.359-0.198l-0.199-0.48c-0.08-0.16,0.08-0.359,0.12-0.52c0.52-0.84,1.198-1.399,1.879-2.039
	c1.039-0.959,2.039-1.799,2.918-2.839c0.399-0.72,0.2-1.6,0.28-2.438c0.08,0.12,0.08,0.2,0.08,0.359
	c0.119,0.12,0.24,0.319,0.24,0.479c0.719,0.8,1.719,1.72,2.719,2.279c0.56,0.32,0.799,0.36,1.238,0.68c0.521,0.08,1.16,1.039,1,1.64
	l0.24,4.478c0.08,0.12,0.08,0.28,0.08,0.44c-0.561,0.318-0.68,0.919-0.6,1.599h1.358l-0.079-1.24l0.239-0.08
	c0.16-0.04-0.36-2.478-0.16-3.518c0.24-3.038,0.761-1.839,0.28-3.558c-0.32-1.08-0.999-0.841-1.52-1.8
	c-0.359,0-1.959-2.799-2.358-4.038c-0.32-0.96-0.4-3.878-0.12-4.638c0.4-1.119,0.12-2.639-0.359-3.438c0.159-0.12,0.439,0,0.6-0.04
	c0.119,0.08,0.199,0.159,0.359,0.159c1.959,1.359,1.439,3.479,2.279,5.397c0.04,0.04,0.08,0.08,0.12,0.12
	c-0.04,0.08,0.04,0.12,0.04,0.2c0.158,0.64,0.759,1.039,1.398,0.919c0.521-0.359,1.119-0.759,1.64-0.64l-2.958-5.677
	c-0.52-0.76-1.08-1-1.44-1.32c-0.879-0.319-1.319-0.239-2.198-0.279c-1.959-0.12-2.08-1.56-4.039-1.64
	c-3.357-0.119-3.397-0.119-5.196,0c-0.28,0-1.359,0.36-1.24,0.16l0.04-0.279l-1.238,0.039l0.479-1.118l-0.36-0.28l-1.479,1.479
	c0-0.839-0.16-1.118-0.36-1.679c-0.4-0.479-0.48-0.88-0.8-1.239c-0.2-1.279-0.599-5.438-3.798-6.236l-0.04-0.48l-0.36,0.12v-0.6
	l0.36,0.04l-0.24-0.999l0.52-1.12c-0.959-0.08-2.799-1.159-3.358,0c-0.4,0-0.6,0.12-0.92,0.16l0.84,0.319h0.08l0.04,0.721
	l-0.36,0.919h0.36v0.68c0,0.2-0.04,0.439,0.2,0.439c0.319-0.159,0.679,0,1.039-0.039l0.44,0.239c0.28,1.199-0.72,0.64,0.28,2.998
	c0,0.44-0.44,1.159-0.84,1.64c-0.6,0.84-0.679,0.8-2.119,2.039c-0.719,0.079-1.039,0.399-1.119,1.119c0.2,0.2,0.32,0.399,0.6,0.52
	c0.159,0.04,0.279-0.04,0.439-0.04c0.4-0.16,0.24-0.799,0.32-0.879c0.04-0.04,0.12-0.08,0.16-0.08c0.16,0.2,0.32,0.36,0.48,0.52
	c0.6-0.04,0.959-0.68,2.199-1.399c0.04-0.439,0.799-0.399,0.759-0.839c0-0.16,0.08,0.239,0.2,0.319
	c-0.08,0.839,0.32,1.56-0.24,2.358l-1.039,1.479h-1.319c-0.76,0-1.72-0.119-1.959-0.479c-1.64-0.96-2.439-1.279-3.799-2.239
	c-3.198-2.279-6.556-2.959-7.596-2.959c-0.44,0-0.879-0.358-1.159-0.599c0-0.08,0-0.12,0-0.2c-0.16-0.4-0.64-0.68-0.6-1.16
	l-0.28,0.92l-0.719-0.88c-0.04,0.04-0.08,0.12-0.08,0.2c0.239,0.479,0,1.08,0.08,1.6c-0.08,0.04-0.08,0.119-0.12,0.159
	c0,0.32-0.16,0.64-0.32,0.88c0.12,0.8-0.8,1.199-0.52,2.039c-0.12,1-0.4,1.479-0.76,2.399c-0.279,0.68-0.319,1.238-0.24,2.199
	c0.04,0.399,0.52,0.679,0.96,0.759c0.12,0,0.16-0.16,0.28-0.2c0.08,0.12,0.12,0.24,0.24,0.36c0.32,0,0.36,0.119,0.599-0.12
	c-0.04-0.279,0.28-0.479,0.28-0.76C18.612,34.543,18.612,34.703,19.451,33.383z"/>
<path d="M31.445,32.624c0.56,0.479,1.28,1.799-0.24,1.56c-0.04,0-0.4-0.521-0.479-0.48c-0.24-0.24,0.04-0.479,0.04-0.72
	c0-0.12,0.159,0.12,0.199,0.24c-0.12,0.439,0.32,0.8,0.76,0.72c0.04-0.08-0.08,0.04,0,0c0-0.12,0.28,0.04,0.08-0.48
	c-0.08-0.199-0.56-0.319-0.6-0.52L31.445,32.624z"/>
<path fill="none" stroke="#000000" stroke-width="0.2" stroke-miterlimit="3.863" d="M31.445,32.624
	c0.56,0.479,1.28,1.799-0.24,1.56c-0.04,0-0.4-0.521-0.479-0.48c-0.24-0.24,0.04-0.479,0.04-0.72c0-0.12,0.159,0.12,0.199,0.24
	c-0.12,0.439,0.32,0.8,0.76,0.72c0.04-0.08-0.08,0.04,0,0c0-0.12,0.28,0.04,0.08-0.48c-0.08-0.199-0.56-0.319-0.6-0.52
	L31.445,32.624z"/>
<path d="M17.012,36.342l-0.04,0.48c1.24-0.4,3.479-0.76,5.078-1.56l-0.32-0.32C20.131,35.742,18.252,35.942,17.012,36.342z"/>
<path fill="none" stroke="#000000" stroke-width="0.2" stroke-miterlimit="3.863" d="M17.012,36.342l-0.04,0.48
	c1.24-0.4,3.479-0.76,5.078-1.56l-0.32-0.32C20.131,35.742,18.252,35.942,17.012,36.342z"/>
<polygon points="30.166,32.464 30.406,32.783 29.006,32.983 28.607,32.704 "/>
<polygon fill="none" stroke="#000000" stroke-width="0.2" stroke-miterlimit="3.863" points="30.166,32.464 30.406,32.783 
	29.006,32.983 28.607,32.704 "/>
</svg>
