<?xml version="1.0" encoding="utf-8"?>
<!-- Generator: Adobe Illustrator 14.0.0, SVG Export Plug-In . SVG Version: 6.00 Build 43363)  -->
<!DOCTYPE svg PUBLIC "-//W3C//DTD SVG 1.1//EN" "http://www.w3.org/Graphics/SVG/1.1/DTD/svg11.dtd">
<svg version="1.1" id="Calque_1" xmlns="http://www.w3.org/2000/svg" xmlns:xlink="http://www.w3.org/1999/xlink" x="0px" y="0px"
	 width="77.626px" height="77.526px" viewBox="0 0 77.626 77.526" enable-background="new 0 0 77.626 77.526" xml:space="preserve">
<path fill-rule="evenodd" clip-rule="evenodd" fill="#ED1C24" d="M38.809,0c29.832,0,48.49,32.294,33.563,58.141
	c-14.906,25.847-52.201,25.847-67.127,0C-9.661,32.294,8.977,0,38.809,0z"/>
<path fill="none" stroke="#ED1C24" stroke-width="0" stroke-miterlimit="3.863" d="M38.809,0c29.832,0,48.49,32.294,33.563,58.141
	c-14.906,25.847-52.201,25.847-67.127,0C-9.661,32.294,8.977,0,38.809,0z"/>
<path fill-rule="evenodd" clip-rule="evenodd" fill="#FFFFFF" d="M38.789,66.757c-21.548,0-35.029-23.328-24.244-42.004
	c10.784-18.677,37.725-18.677,48.509,0C73.838,43.429,60.359,66.757,38.789,66.757z"/>
<path fill="none" stroke="#ED1C24" stroke-width="0" stroke-miterlimit="3.863" d="M38.789,66.757
	c-21.548,0-35.029-23.328-24.244-42.004c10.784-18.677,37.725-18.677,48.509,0C73.838,43.429,60.359,66.757,38.789,66.757z"/>
<polygon fill-rule="evenodd" clip-rule="evenodd" fill="#FFCB04" points="21.636,41.281 29.197,36.006 24.879,36.397 28.728,33.72 
	23.903,30.985 29.295,32.392 18.51,22.213 28.806,27.586 24.801,19.595 31.502,23.053 30.76,19.166 33.808,22.741 36.406,18.423 
	36.758,22.702 38.848,14.496 39.826,21.862 42.951,16.684 43.244,22.858 49.925,17.329 49.613,25.847 52.857,24.186 50.16,27.801 
	55.904,29.461 50.785,31.122 63.328,35.049 50.238,36.494 56.548,43.136 48.167,40.636 51.43,47.669 42.775,43.567 42.248,47.669 
	39.434,42.296 36.347,47.708 36.015,42.003 30.682,48.451 32.01,42.492 25.348,44.386 30.33,40.695 "/>
<polygon fill="none" stroke="#FFCB04" stroke-width="1.172" stroke-miterlimit="3.863" points="21.636,41.281 29.197,36.006 
	24.879,36.397 28.728,33.72 23.903,30.985 29.295,32.392 18.51,22.213 28.806,27.586 24.801,19.595 31.502,23.053 30.76,19.166 
	33.808,22.741 36.406,18.423 36.758,22.702 38.848,14.496 39.826,21.862 42.951,16.684 43.244,22.858 49.925,17.329 49.613,25.847 
	52.857,24.186 50.16,27.801 55.904,29.461 50.785,31.122 63.328,35.049 50.238,36.494 56.548,43.136 48.167,40.636 51.43,47.669 
	42.775,43.567 42.248,47.669 39.434,42.296 36.347,47.708 36.015,42.003 30.682,48.451 32.01,42.492 25.348,44.386 30.33,40.695 "/>
<polyline fill-rule="evenodd" clip-rule="evenodd" fill="#120C0E" points="48.441,31.923 28.142,31.923 23.199,41.125 
	22.906,41.398 22.476,41.828 22.047,42.414 21.851,42.57 21.773,42.882 21.695,43.214 21.695,46.868 21.734,48.431 22.047,50.052 
	22.281,50.833 22.672,51.5 23.199,51.927 23.824,52.125 23.824,56.852 26.97,56.852 26.97,52.358 49.613,52.358 49.613,56.852 
	52.797,56.852 52.797,52.125 53.422,51.927 53.99,51.5 54.341,50.833 54.576,50.052 54.888,48.431 54.927,46.868 54.927,43.214 
	54.848,42.882 54.576,42.414 54.145,41.828 53.715,41.398 53.422,41.125 48.441,31.923 "/>
<polygon fill="none" stroke="#120C0E" stroke-width="0" stroke-linecap="round" stroke-linejoin="round" stroke-miterlimit="3.863" points="
	48.441,31.923 28.142,31.923 23.199,41.125 22.906,41.398 22.476,41.828 22.047,42.414 21.851,42.57 21.773,42.882 21.695,43.214 
	21.695,46.868 21.734,48.431 22.047,50.052 22.281,50.833 22.672,51.5 23.199,51.927 23.824,52.125 23.824,56.852 26.97,56.852 
	26.97,52.358 49.613,52.358 49.613,56.852 52.797,56.852 52.797,52.125 53.422,51.927 53.99,51.5 54.341,50.833 54.576,50.052 
	54.888,48.431 54.927,46.868 54.927,43.214 54.848,42.882 54.576,42.414 54.145,41.828 53.715,41.398 53.422,41.125 "/>
<polyline fill-rule="evenodd" clip-rule="evenodd" fill="#FFFFFF" points="50.726,47.923 49.964,47.806 49.339,47.337 
	48.949,46.791 48.792,46.4 48.753,46.067 48.792,45.638 48.949,45.248 49.339,44.583 49.964,44.192 50.316,44.075 50.726,44.036 
	51.117,44.075 51.469,44.192 52.094,44.583 52.525,45.248 52.641,46.067 52.525,46.791 52.094,47.337 51.469,47.806 50.726,47.923 
	"/>
<polyline fill-rule="evenodd" clip-rule="evenodd" fill="#FFFFFF" points="25.934,47.962 25.387,47.884 24.918,47.689 
	24.528,47.337 24.215,46.947 24.02,46.517 23.981,46.067 24.02,45.52 24.215,45.011 24.567,44.583 24.958,44.309 25.426,44.114 
	25.934,44.036 26.423,44.114 26.853,44.309 27.282,44.583 27.595,45.011 27.829,45.52 27.908,46.067 27.829,46.517 27.595,46.947 
	27.321,47.337 26.931,47.689 26.423,47.884 25.934,47.962 "/>
<polyline fill-rule="evenodd" clip-rule="evenodd" fill="#FFFFFF" points="39.865,32.822 47.816,32.822 51.859,41.086 
	48.558,40.656 45.178,40.304 41.72,40.109 38.34,40.07 34.902,40.109 31.444,40.304 28.064,40.656 24.762,41.086 28.806,32.822 
	39.865,32.822 "/>
<rect x="21.695" y="56.226" fill="#120C0E" width="33.232" height="1.094"/>
<path fill="none" stroke="#120C0E" stroke-width="0" stroke-linecap="round" stroke-linejoin="round" stroke-miterlimit="3.863" d="
	M21.695,56.226 M54.927,56.226H21.695v1.094h33.232V56.226z"/>
<rect x="29.49" y="48.08" fill="#FFFFFF" width="17.563" height="0.469"/>
<path fill="none" stroke="#FFFFFF" stroke-width="0" stroke-linecap="round" stroke-linejoin="round" stroke-miterlimit="3.863" d="
	M29.49,48.08 M47.053,48.08H29.49v0.469h17.563V48.08z"/>
<rect x="30.545" y="46.146" fill="#FFFFFF" width="15.493" height="0.488"/>
<path fill="none" stroke="#FFFFFF" stroke-width="0" stroke-linecap="round" stroke-linejoin="round" stroke-miterlimit="3.863" d="
	M30.545,46.146 M46.037,46.146H30.544v0.488h15.492V46.146z"/>
<rect x="31.131" y="49.896" fill="#FFFFFF" width="14.28" height="0.469"/>
<path fill="none" stroke="#FFFFFF" stroke-width="0" stroke-linecap="round" stroke-linejoin="round" stroke-miterlimit="3.863" d="
	M31.131,49.897 M45.412,49.897h-14.28v0.469h14.28V49.897z"/>
<polygon fill-rule="evenodd" clip-rule="evenodd" points="39.297,24.909 39.336,26.414 39.611,25.476 39.512,26.629 39.708,26.296 
	39.611,27.058 40.158,26.199 39.844,27.273 40.119,27.078 39.923,27.664 40.314,27.39 40.041,28.035 40.724,27.898 40.098,28.699 
	40.49,29.051 40.08,29.383 40.607,30.243 39.943,29.989 40.059,30.399 39.865,30.282 40.294,31.767 39.826,30.809 39.865,31.317 
	39.65,30.829 39.689,31.435 39.512,30.985 39.629,32.372 39.258,31.063 39.18,32.021 39.064,31.102 38.848,32.587 38.828,31.356 
	38.653,31.903 38.672,31.181 38.242,32.431 38.457,30.868 38.223,31.181 38.379,30.399 37.969,30.907 38.262,29.832 37.598,29.969 
	38.106,29.246 37.695,29.149 38.106,28.758 37.695,28.426 38.184,28.191 37.949,27.586 38.242,27.762 38.164,27.43 38.36,27.547 
	38.067,26.277 38.535,27.078 38.438,25.867 38.711,26.707 38.731,25.241 38.946,26.394 39.004,25.652 39.102,26.296 "/>
<polygon fill="none" stroke="#000000" stroke-width="1.172" stroke-miterlimit="3.863" points="39.297,24.909 39.336,26.414 
	39.611,25.476 39.512,26.629 39.708,26.296 39.611,27.058 40.158,26.199 39.844,27.273 40.119,27.078 39.923,27.664 40.314,27.39 
	40.041,28.035 40.724,27.898 40.098,28.699 40.49,29.051 40.08,29.383 40.607,30.243 39.943,29.989 40.059,30.399 39.865,30.282 
	40.294,31.767 39.826,30.809 39.865,31.317 39.65,30.829 39.689,31.435 39.512,30.985 39.629,32.372 39.258,31.063 39.18,32.021 
	39.064,31.102 38.848,32.587 38.828,31.356 38.653,31.903 38.672,31.181 38.242,32.431 38.457,30.868 38.223,31.181 38.379,30.399 
	37.969,30.907 38.262,29.832 37.598,29.969 38.106,29.246 37.695,29.149 38.106,28.758 37.695,28.426 38.184,28.191 37.949,27.586 
	38.242,27.762 38.164,27.43 38.36,27.547 38.067,26.277 38.535,27.078 38.438,25.867 38.711,26.707 38.731,25.241 38.946,26.394 
	39.004,25.652 39.102,26.296 "/>
<polygon fill-rule="evenodd" clip-rule="evenodd" fill="#FFCB04" points="39.297,28.074 39.297,28.797 39.395,28.348 39.357,28.895 
	39.416,28.739 39.395,29.09 39.572,28.68 39.473,29.188 39.572,29.11 39.494,29.383 39.629,29.246 39.533,29.559 39.766,29.5 
	39.551,29.872 39.689,30.047 39.551,30.204 39.727,30.614 39.512,30.477 39.551,30.692 39.473,30.634 39.629,31.337 39.455,30.887 
	39.473,31.122 39.395,30.887 39.416,31.181 39.357,30.966 39.395,31.63 39.279,31.005 39.24,31.454 39.201,31.024 39.141,31.728 
	39.123,31.141 39.064,31.395 39.082,31.063 38.926,31.649 39.004,30.907 38.926,31.063 38.965,30.692 38.848,30.927 38.946,30.419 
	38.711,30.477 38.887,30.145 38.75,30.087 38.887,29.911 38.75,29.754 38.907,29.637 38.828,29.344 38.926,29.422 38.907,29.266 
	38.965,29.325 38.868,28.719 39.024,29.11 39.004,28.524 39.082,28.934 39.102,28.231 39.162,28.778 39.18,28.426 39.219,28.739 "/>
<polygon fill="none" stroke="#FFCB04" stroke-width="0" stroke-miterlimit="3.863" points="39.297,28.074 39.297,28.797 
	39.395,28.348 39.357,28.895 39.416,28.739 39.395,29.09 39.572,28.68 39.473,29.188 39.572,29.11 39.494,29.383 39.629,29.246 
	39.533,29.559 39.766,29.5 39.551,29.872 39.689,30.047 39.551,30.204 39.727,30.614 39.512,30.477 39.551,30.692 39.473,30.634 
	39.629,31.337 39.455,30.887 39.473,31.122 39.395,30.887 39.416,31.181 39.357,30.966 39.395,31.63 39.279,31.005 39.24,31.454 
	39.201,31.024 39.141,31.728 39.123,31.141 39.064,31.395 39.082,31.063 38.926,31.649 39.004,30.907 38.926,31.063 38.965,30.692 
	38.848,30.927 38.946,30.419 38.711,30.477 38.887,30.145 38.75,30.087 38.887,29.911 38.75,29.754 38.907,29.637 38.828,29.344 
	38.926,29.422 38.907,29.266 38.965,29.325 38.868,28.719 39.024,29.11 39.004,28.524 39.082,28.934 39.102,28.231 39.162,28.778 
	39.18,28.426 39.219,28.739 "/>
<path d="M45.451,25.613c-0.272,0.547-0.703,0.762-0.78,1.504c0.155-0.039,0.332-0.059,0.487-0.098
	C45.531,26.668,45.648,25.202,45.451,25.613z"/>
<path fill="none" stroke="#000000" stroke-width="0" stroke-miterlimit="3.863" d="M45.451,25.613
	c-0.272,0.547-0.703,0.762-0.78,1.504c0.155-0.039,0.332-0.059,0.487-0.098C45.531,26.668,45.648,25.202,45.451,25.613z"/>
<path d="M46.35,28.778c-0.606,0.019-1.094,0.429-1.327,0.859c0.194,0.098,0.428,0.156,0.663,0.117
	c0.392-0.332,0.88-0.449,1.406-0.488c0.04-0.195,0.021-0.41,0.06-0.606C46.859,28.641,46.527,28.445,46.35,28.778z"/>
<path fill="none" stroke="#000000" stroke-width="0" stroke-miterlimit="3.863" d="M46.35,28.778
	c-0.606,0.019-1.094,0.429-1.327,0.859c0.194,0.098,0.428,0.156,0.663,0.117c0.392-0.332,0.88-0.449,1.406-0.488
	c0.04-0.195,0.021-0.41,0.06-0.606C46.859,28.641,46.527,28.445,46.35,28.778z"/>
<path d="M27.302,27.586c0.918,0.371,1.465,1.426,2.266,2.032c-0.117,0.019-0.234,0.019-0.371,0.058
	c-0.684,0.039-1.856-1.348-2.52-1.66c-0.117,0.019-0.215,0.039-0.313,0.078c-0.254-0.254-0.215-0.704,0-0.977
	C26.696,27.039,27.028,27.469,27.302,27.586z"/>
<path fill="none" stroke="#000000" stroke-width="0" stroke-miterlimit="3.863" d="M27.302,27.586
	c0.918,0.371,1.465,1.426,2.266,2.032c-0.117,0.019-0.234,0.019-0.371,0.058c-0.684,0.039-1.856-1.348-2.52-1.66
	c-0.117,0.019-0.215,0.039-0.313,0.078c-0.254-0.254-0.215-0.704,0-0.977C26.696,27.039,27.028,27.469,27.302,27.586z"/>
<path d="M33.182,26.589c-0.644-0.214-0.898-1.035-1.602-1.074c-0.097,0.293-0.136,0.586-0.234,0.879
	c0.059,0.098,0.098,0.195,0.117,0.293C31.913,26.804,32.694,26.765,33.182,26.589z"/>
<path fill="none" stroke="#000000" stroke-width="1.172" stroke-miterlimit="3.863" d="M33.182,26.589
	c-0.644-0.214-0.898-1.035-1.602-1.074c-0.097,0.293-0.136,0.586-0.234,0.879c0.059,0.098,0.098,0.195,0.117,0.293
	C31.913,26.804,32.694,26.765,33.182,26.589z"/>
<path d="M27.556,22.428c0.137,0.45,0.449,0.762,0.801,1.036c0-0.118,0-0.254,0-0.372C28.201,22.819,27.81,22.624,27.556,22.428z"/>
<path fill="none" stroke="#000000" stroke-width="1.172" stroke-miterlimit="3.863" d="M27.556,22.428
	c0.137,0.45,0.449,0.762,0.801,1.036c0-0.118,0-0.254,0-0.372C28.201,22.819,27.81,22.624,27.556,22.428z"/>
<path d="M34.159,29.559c-0.371-0.254-0.957-0.254-1.328,0c-0.02,0.117-0.059,0.234-0.078,0.352
	C33.026,29.715,34.12,30.184,34.159,29.559z"/>
<path fill="none" stroke="#000000" stroke-width="0" stroke-miterlimit="3.863" d="M34.159,29.559c-0.371-0.254-0.957-0.254-1.328,0
	c-0.02,0.117-0.059,0.234-0.078,0.352C33.026,29.715,34.12,30.184,34.159,29.559z"/>
<path d="M35.996,22.428c0.136,0.313,0.39,0.547,0.586,0.821c0.254-0.02,0.488-0.059,0.742-0.078
	c-0.019-0.118-0.058-0.254-0.078-0.372c-0.273-0.429-0.899-0.449-1.094-0.957C36.113,21.979,35.937,22.311,35.996,22.428z"/>
<path fill="none" stroke="#000000" stroke-width="1.172" stroke-miterlimit="3.863" d="M35.996,22.428
	c0.136,0.313,0.39,0.547,0.586,0.821c0.254-0.02,0.488-0.059,0.742-0.078c-0.019-0.118-0.058-0.254-0.078-0.372
	c-0.273-0.429-0.899-0.449-1.094-0.957C36.113,21.979,35.937,22.311,35.996,22.428z"/>
<path d="M41.642,21.549c-0.039,0.606-0.059,1.27-0.352,1.836c0.117,0,0.234,0,0.352,0C41.427,22.721,41.955,22.096,41.642,21.549z"
	/>
<path fill="none" stroke="#000000" stroke-width="1.172" stroke-miterlimit="3.863" d="M41.642,21.549
	c-0.039,0.606-0.059,1.27-0.352,1.836c0.117,0,0.234,0,0.352,0C41.427,22.721,41.955,22.096,41.642,21.549z"/>
<path d="M52.445,33.994c0.646-0.078,1.192,0.312,1.721,0.625c0.078-0.039,0.156-0.078,0.234-0.098
	c0.02-0.078,0.059-0.156,0.098-0.234c-0.039-0.098-0.059-0.195-0.098-0.293c-0.763-0.098-0.899-1.016-1.72-0.977
	C52.426,33.251,52.699,33.759,52.445,33.994z"/>
<path fill="none" stroke="#000000" stroke-width="1.172" stroke-miterlimit="3.863" d="M52.445,33.994
	c0.646-0.078,1.192,0.312,1.721,0.625c0.078-0.039,0.156-0.078,0.234-0.098c0.02-0.078,0.059-0.156,0.098-0.234
	c-0.039-0.098-0.059-0.195-0.098-0.293c-0.763-0.098-0.899-1.016-1.72-0.977C52.426,33.251,52.699,33.759,52.445,33.994z"/>
<path d="M51.351,29.031c-0.742-0.058-1.367,0.333-1.992,0.665c0.098,0.078,0.195,0.136,0.293,0.215
	c0.605-0.039,1.231-0.02,1.836-0.059c0.078-0.078,0.138-0.176,0.215-0.234C51.742,29.383,51.801,29.071,51.351,29.031z"/>
<path fill="none" stroke="#000000" stroke-width="1.172" stroke-miterlimit="3.863" d="M51.351,29.031
	c-0.742-0.058-1.367,0.333-1.992,0.665c0.098,0.078,0.195,0.136,0.293,0.215c0.605-0.039,1.231-0.02,1.836-0.059
	c0.078-0.078,0.138-0.176,0.215-0.234C51.742,29.383,51.801,29.071,51.351,29.031z"/>
<path d="M46.859,22.213c0.137,0.45,0.448,0.762,0.801,1.036c0-0.118,0-0.254,0-0.371C47.503,22.604,47.113,22.409,46.859,22.213z"/>
<path fill="none" stroke="#000000" stroke-width="1.172" stroke-miterlimit="3.863" d="M46.859,22.213
	c0.137,0.45,0.448,0.762,0.801,1.036c0-0.118,0-0.254,0-0.371C47.503,22.604,47.113,22.409,46.859,22.213z"/>
</svg>
