<?xml version="1.0" encoding="utf-8"?>
<!-- Generator: Adobe Illustrator 14.0.0, SVG Export Plug-In . SVG Version: 6.00 Build 43363)  -->
<!DOCTYPE svg PUBLIC "-//W3C//DTD SVG 1.1//EN" "http://www.w3.org/Graphics/SVG/1.1/DTD/svg11.dtd">
<svg version="1.1" id="Calque_1" xmlns="http://www.w3.org/2000/svg" xmlns:xlink="http://www.w3.org/1999/xlink" x="0px" y="0px"
	 width="79.429px" height="79.325px" viewBox="0 0 79.429 79.325" enable-background="new 0 0 79.429 79.325" xml:space="preserve">
<path fill-rule="evenodd" clip-rule="evenodd" fill="#ED1C24" d="M39.71,0c30.525,0,49.616,33.043,34.343,59.49
	c-15.252,26.446-53.414,26.446-68.687,0C-9.885,33.043,9.185,0,39.71,0z"/>
<path fill="none" stroke="#ED1C24" stroke-width="0" stroke-miterlimit="3.863" d="M39.71,0c30.525,0,49.616,33.043,34.343,59.49
	c-15.252,26.446-53.414,26.446-68.687,0C-9.885,33.043,9.185,0,39.71,0z"/>
<path fill-rule="evenodd" clip-rule="evenodd" fill="#FFFFFF" d="M39.69,68.306c-22.049,0-35.842-23.868-24.808-42.979
	c11.035-19.11,38.601-19.11,49.636,0C75.552,44.438,61.759,68.306,39.69,68.306z"/>
<path fill="none" stroke="#ED1C24" stroke-width="0" stroke-miterlimit="3.863" d="M39.69,68.306
	c-22.049,0-35.842-23.868-24.808-42.979c11.035-19.11,38.601-19.11,49.636,0C75.552,44.438,61.759,68.306,39.69,68.306z"/>
<path d="M47.326,43.418c0.04,0.859-0.459,2.019-1.299,2.039l-1.438,0.06c-0.381,0.08-0.98,0.12-1.261,0.7
	c-0.559,1.199-0.14,2.419-1.739,2.718c-0.738,0.141-4.058,0.24-4.638-0.778c-0.04-0.021-0.06-0.021-0.119-0.021
	c-0.62-0.64-0.78-1.319-1.26-2.039c-0.7-1-2.139-1.12-2.139-2.779c0-4.258-3.438-7.695-7.676-7.695
	c-4.258,0-7.736,3.357-7.736,7.616h-0.46c0-4.478,3.638-8.097,8.096-8.097H19.44l1.22,1.759l-0.54,0.421l-1.659-2.18h-0.72h0.02
	h-0.02v-0.739h11.414v-1.199h0.8v1.199h0.16v1.739h1.099c-0.08-0.92,0.06-2.539,0.18-3.478c0.16-1.101,0.48-2.319,1-3.299
	c0.26-0.5,0.979-1.699,1.499-2.159c0.2-0.2,0.6-0.539,1.039-0.839c0.32-0.24,0.84-0.261,0.98-0.641c0.08-0.22,0.02-0.52-0.16-0.739
	c-0.16-0.08-0.22-0.399-0.26-0.619c-0.18-0.641-0.14-1.341,0-2.3c0.02-0.119-0.3,0.04-0.3-0.079c0-0.44,0.5-1.141,0.64-1.399
	c1.039-1.32,2.439-1.4,3.678-0.74c1.1,0.58,1.739,2.02,1.32,3.139c-0.079,0.06-0.1,0.239-0.18,0.38
	c-0.24,0.42-0.06,0.859-0.08,1.398c-0.18,0-0.28-0.04-0.44,0.04c-0.2,0.2-0.08,0.3-0.1,0.62c0,0.26-0.94-0.06-1.06,0.28
	c-0.179,0.42,0.12,1.999,0.22,2.639l2.439,2.458l1.039,0.34c1.18,0.38,2.438-0.239,3.738-0.16c0.619,0.021,0.999-0.06,1.419,0.04
	l0.5,0.301l2.56-0.341l0.299,0.78l1.26-0.8h0.999v2.159h-1.22l-0.879-0.52l1.18,2.898c0.34-0.14,0.42-0.16,0.959-0.24
	c0.14-0.02-0.12-1.159,0.14-1.179c0.261-0.021,3.638-0.04,3.638-0.021c0.141,0.8-0.16,1.339,0.08,1.439c1.34,0.56,2.1,1,2.979,1.859
	l-0.181,0.279c-1.338-1.299-3.178-2.099-5.196-2.099c-4.138,0-7.617,3.259-7.617,7.396C47.326,43.038,47.326,43.317,47.326,43.418z"
	/>
<path fill="none" stroke="#000000" stroke-width="0.2" stroke-miterlimit="3.863" d="M47.326,43.418
	c0.04,0.859-0.459,2.019-1.299,2.039l-1.438,0.06c-0.381,0.08-0.98,0.12-1.261,0.7c-0.559,1.199-0.14,2.419-1.739,2.718
	c-0.738,0.141-4.058,0.24-4.638-0.778c-0.04-0.021-0.06-0.021-0.119-0.021c-0.62-0.64-0.78-1.319-1.26-2.039
	c-0.7-1-2.139-1.12-2.139-2.779c0-4.258-3.438-7.695-7.676-7.695c-4.258,0-7.736,3.357-7.736,7.616h-0.46
	c0-4.478,3.638-8.097,8.096-8.097H19.44l1.22,1.759l-0.54,0.421l-1.659-2.18h-0.72h0.02h-0.02v-0.739h11.414v-1.199h0.8v1.199h0.16
	v1.739h1.099c-0.08-0.92,0.06-2.539,0.18-3.478c0.16-1.101,0.48-2.319,1-3.299c0.26-0.5,0.979-1.699,1.499-2.159
	c0.2-0.2,0.6-0.539,1.039-0.839c0.32-0.24,0.84-0.261,0.98-0.641c0.08-0.22,0.02-0.52-0.16-0.739c-0.16-0.08-0.22-0.399-0.26-0.619
	c-0.18-0.641-0.14-1.341,0-2.3c0.02-0.119-0.3,0.04-0.3-0.079c0-0.44,0.5-1.141,0.64-1.399c1.039-1.32,2.439-1.4,3.678-0.74
	c1.1,0.58,1.739,2.02,1.32,3.139c-0.079,0.06-0.1,0.239-0.18,0.38c-0.24,0.42-0.06,0.859-0.08,1.398c-0.18,0-0.28-0.04-0.44,0.04
	c-0.2,0.2-0.08,0.3-0.1,0.62c0,0.26-0.94-0.06-1.06,0.28c-0.179,0.42,0.12,1.999,0.22,2.639l2.439,2.458l1.039,0.34
	c1.18,0.38,2.438-0.239,3.738-0.16c0.619,0.021,0.999-0.06,1.419,0.04l0.5,0.301l2.56-0.341l0.299,0.78l1.26-0.8h0.999v2.159h-1.22
	l-0.879-0.52l1.18,2.898c0.34-0.14,0.42-0.16,0.959-0.24c0.14-0.02-0.12-1.159,0.14-1.179c0.261-0.021,3.638-0.04,3.638-0.021
	c0.141,0.8-0.16,1.339,0.08,1.439c1.34,0.56,2.1,1,2.979,1.859l-0.181,0.279c-1.338-1.299-3.178-2.099-5.196-2.099
	c-4.138,0-7.617,3.259-7.617,7.396C47.326,43.038,47.326,43.317,47.326,43.418z"/>
<path fill-rule="evenodd" clip-rule="evenodd" d="M17.042,50.974 M62.399,50.974H17.042v-0.619h45.358V50.974z"/>
<path fill="none" stroke="#000000" stroke-width="0.2" stroke-miterlimit="3.863" d="M17.042,50.974 M62.399,50.974H17.042v-0.619
	h45.358V50.974z"/>
<path fill-rule="evenodd" clip-rule="evenodd" d="M54.943,50.314c-5.478,0-8.896-5.937-6.157-10.694s9.596-4.778,12.333,0
	C63.858,44.378,60.44,50.314,54.943,50.314z"/>
<path fill="none" stroke="#000000" stroke-width="0.2" stroke-miterlimit="3.863" d="M54.943,50.314
	c-5.478,0-8.896-5.937-6.157-10.694s9.596-4.778,12.333,0C63.858,44.378,60.44,50.314,54.943,50.314z"/>
<path fill-rule="evenodd" clip-rule="evenodd" d="M25.757,50.314c-5.497,0-8.936-5.937-6.177-10.694
	c2.739-4.758,9.615-4.778,12.354,0C34.693,44.378,31.254,50.314,25.757,50.314z"/>
<path fill="none" stroke="#000000" stroke-width="0.2" stroke-miterlimit="3.863" d="M25.757,50.314
	c-5.497,0-8.936-5.937-6.177-10.694c2.739-4.758,9.615-4.778,12.354,0C34.693,44.378,31.254,50.314,25.757,50.314z"/>
<path fill-rule="evenodd" clip-rule="evenodd" fill="#FFFFFF" d="M25.857,48.275c-3.878,0-6.297-4.197-4.358-7.556
	c1.939-3.358,6.777-3.358,8.716,0S29.735,48.275,25.857,48.275z"/>
<path fill="none" stroke="#000000" stroke-width="0.2" stroke-miterlimit="3.863" d="M25.857,48.275
	c-3.878,0-6.297-4.197-4.358-7.556c1.939-3.358,6.777-3.358,8.716,0S29.735,48.275,25.857,48.275z"/>
<path fill-rule="evenodd" clip-rule="evenodd" fill="#FFFFFF" d="M54.943,48.275c-3.899,0-6.317-4.197-4.378-7.556
	s6.796-3.358,8.734,0C61.239,44.078,58.821,48.275,54.943,48.275z"/>
<path fill="none" stroke="#000000" stroke-width="0.2" stroke-miterlimit="3.863" d="M54.943,48.275
	c-3.899,0-6.317-4.197-4.378-7.556s6.796-3.358,8.734,0C61.239,44.078,58.821,48.275,54.943,48.275z"/>
<path fill-rule="evenodd" clip-rule="evenodd" d="M47.587,43.317 M53.183,43.317h-5.597v-0.679h5.597V43.317z"/>
<path fill="none" stroke="#000000" stroke-width="0.2" stroke-miterlimit="3.863" d="M47.587,43.317 M53.183,43.317h-5.597v-0.679
	h5.597V43.317z"/>
<path fill-rule="evenodd" clip-rule="evenodd" d="M27.636,43.438 M30.914,43.438h-3.278v-0.479h3.278V43.438z"/>
<path fill="none" stroke="#000000" stroke-width="0.2" stroke-miterlimit="3.863" d="M27.636,43.438 M30.914,43.438h-3.278v-0.479
	h3.278V43.438z"/>
<path fill-rule="evenodd" clip-rule="evenodd" d="M25.857,45.117c-1.439,0-2.319-1.56-1.619-2.799c0.719-1.26,2.519-1.26,3.238,0
	C28.176,43.558,27.296,45.117,25.857,45.117z"/>
<path fill="none" stroke="#000000" stroke-width="0.2" stroke-miterlimit="3.863" d="M25.857,45.117
	c-1.439,0-2.319-1.56-1.619-2.799c0.719-1.26,2.519-1.26,3.238,0C28.176,43.558,27.296,45.117,25.857,45.117z"/>
<polygon fill-rule="evenodd" clip-rule="evenodd" points="27.096,41.858 26.697,41.559 28.716,39.06 29.115,39.38 "/>
<polygon fill="none" stroke="#000000" stroke-width="0.2" stroke-miterlimit="3.863" points="27.096,41.858 26.697,41.559 
	28.716,39.06 29.115,39.38 "/>
<polygon fill-rule="evenodd" clip-rule="evenodd" points="52.724,38.721 53.384,38.44 54.583,41.379 53.903,41.659 "/>
<polygon fill="none" stroke="#000000" stroke-width="0.2" stroke-miterlimit="3.863" points="52.724,38.721 53.384,38.44 
	54.583,41.379 53.903,41.659 "/>
<polygon fill-rule="evenodd" clip-rule="evenodd" points="57.161,38.721 57.781,39.1 56.082,41.959 55.462,41.579 "/>
<polygon fill="none" stroke="#000000" stroke-width="0.2" stroke-miterlimit="3.863" points="57.161,38.721 57.781,39.1 
	56.082,41.959 55.462,41.579 "/>
<path fill-rule="evenodd" clip-rule="evenodd" d="M54.943,45.117c-1.44,0-2.339-1.56-1.62-2.799c0.721-1.26,2.499-1.26,3.219,0
	C57.261,43.558,56.362,45.117,54.943,45.117z"/>
<path fill="none" stroke="#000000" stroke-width="0.2" stroke-miterlimit="3.863" d="M54.943,45.117c-1.44,0-2.339-1.56-1.62-2.799
	c0.721-1.26,2.499-1.26,3.219,0C57.261,43.558,56.362,45.117,54.943,45.117z"/>
<polygon fill-rule="evenodd" clip-rule="evenodd" points="58.861,37.081 58.382,36.782 58.581,36.481 59.062,36.782 "/>
<polygon fill="none" stroke="#000000" stroke-width="0.2" stroke-miterlimit="3.863" points="58.861,37.081 58.382,36.782 
	58.581,36.481 59.062,36.782 "/>
<polygon fill-rule="evenodd" clip-rule="evenodd" points="52.464,36.362 51.944,36.602 51.804,36.262 52.324,36.042 "/>
<polygon fill="none" stroke="#000000" stroke-width="0.2" stroke-miterlimit="3.863" points="52.464,36.362 51.944,36.602 
	51.804,36.262 52.324,36.042 "/>
<polygon fill-rule="evenodd" clip-rule="evenodd" points="30.415,37.921 29.995,37.561 30.315,37.181 30.735,37.541 "/>
<polygon fill="none" stroke="#000000" stroke-width="0.2" stroke-miterlimit="3.863" points="30.415,37.921 29.995,37.561 
	30.315,37.181 30.735,37.541 "/>
<line fill="none" stroke="#000000" stroke-width="0" stroke-miterlimit="3.863" x1="39.23" y1="31.563" x2="41.449" y2="33.163"/>
<path fill="#FFFFFF" d="M41.729,33.203l2.339-0.221l4.258-0.818l1.819-0.32l0.919,2.219c-0.699,0.2-1.239,0.261-1.88,0.36
	c-0.238-0.021-0.639-0.12-0.818-0.22c-0.939-0.54-1.04-0.34-1.619-0.44l-0.64,0.14l-3.718,1.64c-0.521,0.24-3.199,0.26-3.778-0.18
	c0.559-0.899,0.679-2.698,0.619-3.799L41.729,33.203z"/>
<path fill="none" stroke="#000000" stroke-width="0.2" stroke-miterlimit="3.863" d="M41.729,33.203l2.339-0.221l4.258-0.818
	l1.819-0.32l0.919,2.219c-0.699,0.2-1.239,0.261-1.88,0.36c-0.238-0.021-0.639-0.12-0.818-0.22c-0.939-0.54-1.04-0.34-1.619-0.44
	l-0.64,0.14l-3.718,1.64c-0.521,0.24-3.199,0.26-3.778-0.18c0.559-0.899,0.679-2.698,0.619-3.799L41.729,33.203z"/>
<polygon fill-rule="evenodd" clip-rule="evenodd" points="24.479,42.039 22.319,39.7 22.738,39.32 24.877,41.659 "/>
<polygon fill="none" stroke="#000000" stroke-width="0.2" stroke-miterlimit="3.863" points="24.479,42.039 22.319,39.7 
	22.738,39.32 24.877,41.659 "/>
<polygon fill-rule="evenodd" clip-rule="evenodd" points="20.799,38.161 20.46,37.681 20.979,37.301 21.339,37.761 "/>
<polygon fill="none" stroke="#000000" stroke-width="0.2" stroke-miterlimit="3.863" points="20.799,38.161 20.46,37.681 
	20.979,37.301 21.339,37.761 "/>
</svg>
