<?xml version="1.0" encoding="utf-8"?>
<!-- Generator: Adobe Illustrator 14.0.0, SVG Export Plug-In . SVG Version: 6.00 Build 43363)  -->
<!DOCTYPE svg PUBLIC "-//W3C//DTD SVG 1.1//EN" "http://www.w3.org/Graphics/SVG/1.1/DTD/svg11.dtd">
<svg version="1.1" id="Calque_1" xmlns="http://www.w3.org/2000/svg" xmlns:xlink="http://www.w3.org/1999/xlink" x="0px" y="0px"
	 width="79.651px" height="79.536px" viewBox="0 0 79.651 79.536" enable-background="new 0 0 79.651 79.536" xml:space="preserve">
<path fill-rule="evenodd" clip-rule="evenodd" fill="#ED1C24" d="M39.825,79.536c-30.612,0-49.744-33.137-34.438-59.642
	c15.306-26.525,53.571-26.525,68.877,0C89.57,46.399,70.438,79.536,39.825,79.536z"/>
<path fill="none" stroke="#ED1C24" stroke-width="0" stroke-miterlimit="3.863" d="M39.825,79.536
	c-30.612,0-49.744-33.137-34.438-59.642c15.306-26.525,53.571-26.525,68.877,0C89.57,46.399,70.438,79.536,39.825,79.536z"/>
<path fill-rule="evenodd" clip-rule="evenodd" fill="#FFFFFF" d="M39.805,68.156c-21.857,0-35.52-23.66-24.581-42.592
	c10.918-18.933,38.245-18.933,49.184,0C75.346,44.496,61.683,68.156,39.805,68.156z"/>
<path fill="none" stroke="#FFFFFF" stroke-width="0" stroke-miterlimit="3.863" d="M39.805,68.156
	c-21.857,0-35.52-23.66-24.581-42.592c10.918-18.933,38.245-18.933,49.184,0C75.346,44.496,61.683,68.156,39.805,68.156z"/>
<path d="M55.132,38.987h2.945v-1.522h-0.902l-0.48-0.481H47.74l0.219-1.362l1.082-0.661c0.481-0.261,0.803-0.762,0.682-1.663
	c-0.16-0.18-0.3-0.301-0.48-0.261h-6.15v0.381l4.066,1.202l-2.224,6.571c-0.08,0.28-0.36,0.562-0.642,0.621h-4.947
	c-0.361-0.08-0.501-0.501-0.762-0.761l-3.265-4.168l0.16-0.561l-0.661-0.761l-0.281,0.24l-0.44-0.541l1.001-2.825h-0.781
	c0.341-0.42,0.461-1.422,0.661-2.203v-1.964h1.883v-0.681h-1.242c-0.06,0-0.14,0-0.18,0c0-0.14-0.04-0.28-0.16-0.381
	c-0.341-0.12-0.541-0.18-0.882,0.04c-0.08,0.101-0.22,0.241-0.22,0.341v3.606l-1.282-1.082h-1.082l-0.942,0.281l0.361,1.542h0.38
	l1.122-0.32c0.161-0.04,0.481-0.14,0.641-0.14c0.341,0.2,0.301,0.3,0.261,0.46c-0.301,0.321-0.481,0.241-0.821,0.461l-3.106,6.632
	c-0.921-0.421-1.923-0.643-2.985-0.643c-0.721,0-1.422,0.102-2.083,0.302l-0.101,0.601c-2.684,0.883-4.587,3.406-4.587,6.411
	c0,3.706,3.025,6.731,6.751,6.731c2.985,0,5.53-1.963,6.391-4.648l0.26-0.721l0.321-0.04c0.08-0.441,0.14-0.961,0.14-1.402
	c0-2.646-1.222-4.889-3.325-6.171l1.502-2.684c0.14,0.06,0.261,0.12,0.301,0.26c0.22,1.082,0.44,1.563,1.342,2.344
	c0.601,0.521,0.641,0.521,2.284,0.762c0.18,0.02,0.601,0.041,0.721,0.181c0.24,0.079,0.26,0.399,0.301,0.501
	c0.02,0.98-1.082,6.09-0.061,7.292c0.782,1.643,4.328,0.801,5.449,0.661v1.082h-0.58v0.5h1.541v-0.461h-0.479v-1.182l3.767-0.24
	c1.041,2.324,3.405,3.967,6.149,3.967c3.728,0,6.731-3.025,6.731-6.731l-0.119-1.342l0.14-0.341
	C58.998,41.671,57.335,39.767,55.132,38.987z"/>
<path fill="none" stroke="#000000" stroke-width="0.2" stroke-miterlimit="3.863" d="M55.132,38.987h2.945v-1.522h-0.902
	l-0.48-0.481H47.74l0.219-1.362l1.082-0.661c0.481-0.261,0.803-0.762,0.682-1.663c-0.16-0.18-0.3-0.301-0.48-0.261h-6.15v0.381
	l4.066,1.202l-2.224,6.571c-0.08,0.28-0.36,0.562-0.642,0.621h-4.947c-0.361-0.08-0.501-0.501-0.762-0.761l-3.265-4.168l0.16-0.561
	l-0.661-0.761l-0.281,0.24l-0.44-0.541l1.001-2.825h-0.781c0.341-0.42,0.461-1.422,0.661-2.203v-1.964h1.883v-0.681h-1.242
	c-0.06,0-0.14,0-0.18,0c0-0.14-0.04-0.28-0.16-0.381c-0.341-0.12-0.541-0.18-0.882,0.04c-0.08,0.101-0.22,0.241-0.22,0.341v3.606
	l-1.282-1.082h-1.082l-0.942,0.281l0.361,1.542h0.38l1.122-0.32c0.161-0.04,0.481-0.14,0.641-0.14c0.341,0.2,0.301,0.3,0.261,0.46
	c-0.301,0.321-0.481,0.241-0.821,0.461l-3.106,6.632c-0.921-0.421-1.923-0.643-2.985-0.643c-0.721,0-1.422,0.102-2.083,0.302
	l-0.101,0.601c-2.684,0.883-4.587,3.406-4.587,6.411c0,3.706,3.025,6.731,6.751,6.731c2.985,0,5.53-1.963,6.391-4.648l0.26-0.721
	l0.321-0.04c0.08-0.441,0.14-0.961,0.14-1.402c0-2.646-1.222-4.889-3.325-6.171l1.502-2.684c0.14,0.06,0.261,0.12,0.301,0.26
	c0.22,1.082,0.44,1.563,1.342,2.344c0.601,0.521,0.641,0.521,2.284,0.762c0.18,0.02,0.601,0.041,0.721,0.181
	c0.24,0.079,0.26,0.399,0.301,0.501c0.02,0.98-1.082,6.09-0.061,7.292c0.782,1.643,4.328,0.801,5.449,0.661v1.082h-0.58v0.5h1.541
	v-0.461h-0.479v-1.182l3.767-0.24c1.041,2.324,3.405,3.967,6.149,3.967c3.728,0,6.731-3.025,6.731-6.731l-0.119-1.342l0.14-0.341
	C58.998,41.671,57.335,39.767,55.132,38.987z"/>
<line fill="none" stroke="#000000" stroke-width="0" stroke-miterlimit="3.863" x1="59.359" y1="44.356" x2="59.679" y2="43.855"/>
<path fill="#FFFFFF" d="M50.263,39.107c-2.424,1.021-4.146,3.426-4.146,6.25h-0.422v-2.624l1.764-4.888h1.002
	C48.56,38.746,49.462,39.147,50.263,39.107z"/>
<path fill="none" stroke="#000000" stroke-width="0.2" stroke-miterlimit="3.863" d="M50.263,39.107
	c-2.424,1.021-4.146,3.426-4.146,6.25h-0.422v-2.624l1.764-4.888h1.002C48.56,38.746,49.462,39.147,50.263,39.107z"/>
<polygon points="57.736,39.007 59.699,43.735 59.539,43.755 57.457,38.987 "/>
<polygon fill="none" stroke="#000000" stroke-width="0.2" stroke-miterlimit="3.863" points="57.736,39.007 59.699,43.735 
	59.539,43.755 57.457,38.987 "/>
<path fill="#FFFFFF" d="M38.964,48.423c-1.202,0.359-2.164-0.803-1.883-2.045h1.402C38.623,46.74,38.303,47.501,38.964,48.423z"/>
<path fill="none" stroke="#000000" stroke-width="0.2" stroke-miterlimit="3.863" d="M38.964,48.423
	c-1.202,0.359-2.164-0.803-1.883-2.045h1.402C38.623,46.74,38.303,47.501,38.964,48.423z"/>
<polygon fill="#FFFFFF" points="42.891,48.062 44.695,47.822 44.554,46.88 42.891,47.521 "/>
<polygon fill="none" stroke="#000000" stroke-width="0.2" stroke-miterlimit="3.863" points="42.891,48.062 44.695,47.822 
	44.554,46.88 42.891,47.521 "/>
<polygon fill="#FFFFFF" points="42.35,48.122 40.828,48.322 42.33,47.761 "/>
<polygon fill="none" stroke="#000000" stroke-width="0.2" stroke-miterlimit="3.863" points="42.35,48.122 40.828,48.322 
	42.33,47.761 "/>
<polygon fill="#FFFFFF" points="45.736,46.079 45.736,46.66 45.936,46.9 46.197,46.9 46.256,46.359 46.117,45.858 "/>
<polygon fill="none" stroke="#000000" stroke-width="0.2" stroke-miterlimit="3.863" points="45.736,46.079 45.736,46.66 
	45.936,46.9 46.197,46.9 46.256,46.359 46.117,45.858 "/>
<path fill="#FFFFFF" d="M48.46,48.623c0.941,1.342,2.564,2.264,4.348,2.264c2.885,0,5.208-2.344,5.208-5.209
	c0-2.864-2.323-5.209-5.208-5.209c-0.081,0-0.141,0-0.221,0.021l0.381,3.767c0.781,0,1.382,0.602,1.382,1.422
	c0,0.541-0.34,1.043-0.841,1.263l2.363-0.06v1.742H48.46z"/>
<path fill="none" stroke="#000000" stroke-width="0.2" stroke-miterlimit="3.863" d="M48.46,48.623
	c0.941,1.342,2.564,2.264,4.348,2.264c2.885,0,5.208-2.344,5.208-5.209c0-2.864-2.323-5.209-5.208-5.209
	c-0.081,0-0.141,0-0.221,0.021l0.381,3.767c0.781,0,1.382,0.602,1.382,1.422c0,0.541-0.34,1.043-0.841,1.263l2.363-0.06v1.742H48.46
	z"/>
<path fill="#FFFFFF" d="M51.686,40.609l0.36,3.867c-0.42,0.26-0.682,0.681-0.682,1.222h-3.726
	C47.639,43.214,49.382,41.13,51.686,40.609z"/>
<path fill="none" stroke="#000000" stroke-width="0.2" stroke-miterlimit="3.863" d="M51.686,40.609l0.36,3.867
	c-0.42,0.26-0.682,0.681-0.682,1.222h-3.726C47.639,43.214,49.382,41.13,51.686,40.609z"/>
<path fill="#FFFFFF" d="M47.639,46.199h3.767c0.159,0.36,0.541,0.682,0.881,0.841l-4.328,0.501
	C47.799,47.12,47.699,46.679,47.639,46.199z"/>
<path fill="none" stroke="#000000" stroke-width="0.2" stroke-miterlimit="3.863" d="M47.639,46.199h3.767
	c0.159,0.36,0.541,0.682,0.881,0.841l-4.328,0.501C47.799,47.12,47.699,46.679,47.639,46.199z"/>
<path fill="#FFFFFF" d="M28.787,40.95c-0.661-0.321-1.383-0.461-2.164-0.461c-2.865,0-5.209,2.324-5.209,5.209
	c0,2.865,2.344,5.188,5.209,5.188c2.865,0,5.209-2.323,5.209-5.188h-3.767c0,0.781-0.641,1.422-1.442,1.422
	c-0.781,0-1.422-0.641-1.422-1.422c0-0.801,0.641-1.442,1.422-1.442c0.16,0,0.341,0.041,0.481,0.08L28.787,40.95z"/>
<path fill="none" stroke="#000000" stroke-width="0.2" stroke-miterlimit="3.863" d="M28.787,40.95
	c-0.661-0.321-1.383-0.461-2.164-0.461c-2.865,0-5.209,2.324-5.209,5.209c0,2.865,2.344,5.188,5.209,5.188
	c2.865,0,5.209-2.323,5.209-5.188h-3.767c0,0.781-0.641,1.422-1.442,1.422c-0.781,0-1.422-0.641-1.422-1.422
	c0-0.801,0.641-1.442,1.422-1.442c0.16,0,0.341,0.041,0.481,0.08L28.787,40.95z"/>
<path fill="#FFFFFF" d="M31.712,44.977c-0.201-1.503-1.042-2.785-2.244-3.587l-1.763,3.406c0.04,0.061,0.06,0.12,0.1,0.181H31.712z"
	/>
<path fill="none" stroke="#000000" stroke-width="0.2" stroke-miterlimit="3.863" d="M31.712,44.977
	c-0.201-1.503-1.042-2.785-2.244-3.587l-1.763,3.406c0.04,0.061,0.06,0.12,0.1,0.181H31.712z"/>
</svg>
