<svg width="600" height="300" viewBox="0 0 600 300" fill="none" xmlns="http://www.w3.org/2000/svg">
<rect y="50" width="600" height="250" fill="#000569"/>
<rect x="50" width="25" height="50" fill="#000569"/>
<rect x="525" width="25" height="50" fill="#000569"/>
<rect x="115" y="75" width="320" height="200" fill="#D9D9D9"/>
<circle cx="524.5" cy="137.5" r="62.5" fill="#D9D9D9"/>
<rect x="13" y="75" width="74" height="75" fill="#D9D9D9"/>
<path d="M138.416 126.72C135.856 126.72 133.544 126.272 131.48 125.376C129.432 124.464 127.744 123.168 126.416 121.488C125.104 119.792 124.272 117.776 123.92 115.44L130.736 114.432C131.216 116.416 132.208 117.944 133.712 119.016C135.216 120.088 136.928 120.624 138.848 120.624C139.92 120.624 140.96 120.456 141.968 120.12C142.976 119.784 143.8 119.288 144.44 118.632C145.096 117.976 145.424 117.168 145.424 116.208C145.424 115.856 145.368 115.52 145.256 115.2C145.16 114.864 144.992 114.552 144.752 114.264C144.512 113.976 144.168 113.704 143.72 113.448C143.288 113.192 142.736 112.96 142.064 112.752L133.088 110.112C132.416 109.92 131.632 109.648 130.736 109.296C129.856 108.944 129 108.44 128.168 107.784C127.336 107.128 126.64 106.264 126.08 105.192C125.536 104.104 125.264 102.736 125.264 101.088C125.264 98.768 125.848 96.84 127.016 95.304C128.184 93.768 129.744 92.624 131.696 91.872C133.648 91.12 135.808 90.752 138.176 90.768C140.56 90.8 142.688 91.208 144.56 91.992C146.432 92.776 148 93.92 149.264 95.424C150.528 96.912 151.44 98.736 152 100.896L144.944 102.096C144.688 100.976 144.216 100.032 143.528 99.264C142.84 98.496 142.016 97.912 141.056 97.512C140.112 97.112 139.12 96.896 138.08 96.864C137.056 96.832 136.088 96.976 135.176 97.296C134.28 97.6 133.544 98.048 132.968 98.64C132.408 99.232 132.128 99.936 132.128 100.752C132.128 101.504 132.36 102.12 132.824 102.6C133.288 103.064 133.872 103.44 134.576 103.728C135.28 104.016 136 104.256 136.736 104.448L142.736 106.08C143.632 106.32 144.624 106.64 145.712 107.04C146.8 107.424 147.84 107.968 148.832 108.672C149.84 109.36 150.664 110.272 151.304 111.408C151.96 112.544 152.288 113.984 152.288 115.728C152.288 117.584 151.896 119.208 151.112 120.6C150.344 121.976 149.304 123.12 147.992 124.032C146.68 124.928 145.192 125.6 143.528 126.048C141.88 126.496 140.176 126.72 138.416 126.72ZM173.115 126C171.323 126.336 169.563 126.48 167.835 126.432C166.123 126.4 164.587 126.104 163.227 125.544C161.883 124.968 160.859 124.048 160.155 122.784C159.515 121.6 159.179 120.4 159.147 119.184C159.115 117.952 159.099 116.56 159.099 115.008V92.88H165.627V114.624C165.627 115.632 165.635 116.544 165.651 117.36C165.683 118.16 165.851 118.8 166.155 119.28C166.731 120.192 167.651 120.688 168.915 120.768C170.179 120.848 171.579 120.784 173.115 120.576V126ZM154.683 105.12V100.08H173.115V105.12H154.683ZM186.091 126.72C184.235 126.72 182.659 126.368 181.363 125.664C180.083 124.944 179.107 123.992 178.435 122.808C177.779 121.608 177.451 120.288 177.451 118.848C177.451 117.648 177.635 116.552 178.003 115.56C178.371 114.568 178.963 113.696 179.779 112.944C180.611 112.176 181.723 111.536 183.115 111.024C184.075 110.672 185.219 110.36 186.547 110.088C187.875 109.816 189.379 109.56 191.059 109.32C192.739 109.064 194.587 108.784 196.603 108.48L194.251 109.776C194.251 108.24 193.883 107.112 193.147 106.392C192.411 105.672 191.179 105.312 189.451 105.312C188.491 105.312 187.491 105.544 186.451 106.008C185.411 106.472 184.683 107.296 184.267 108.48L178.363 106.608C179.019 104.464 180.251 102.72 182.059 101.376C183.867 100.032 186.331 99.36 189.451 99.36C191.739 99.36 193.771 99.712 195.547 100.416C197.323 101.12 198.667 102.336 199.579 104.064C200.091 105.024 200.395 105.984 200.491 106.944C200.587 107.904 200.635 108.976 200.635 110.16V126H194.923V120.672L195.739 121.776C194.475 123.52 193.107 124.784 191.635 125.568C190.179 126.336 188.331 126.72 186.091 126.72ZM187.483 121.584C188.683 121.584 189.691 121.376 190.507 120.96C191.339 120.528 191.995 120.04 192.475 119.496C192.971 118.952 193.307 118.496 193.483 118.128C193.819 117.424 194.011 116.608 194.059 115.68C194.123 114.736 194.155 113.952 194.155 113.328L196.075 113.808C194.139 114.128 192.571 114.4 191.371 114.624C190.171 114.832 189.203 115.024 188.467 115.2C187.731 115.376 187.083 115.568 186.523 115.776C185.883 116.032 185.363 116.312 184.963 116.616C184.579 116.904 184.291 117.224 184.099 117.576C183.923 117.928 183.835 118.32 183.835 118.752C183.835 119.344 183.979 119.856 184.267 120.288C184.571 120.704 184.995 121.024 185.539 121.248C186.083 121.472 186.731 121.584 187.483 121.584ZM222.428 126C220.636 126.336 218.876 126.48 217.148 126.432C215.436 126.4 213.9 126.104 212.54 125.544C211.196 124.968 210.172 124.048 209.468 122.784C208.828 121.6 208.492 120.4 208.46 119.184C208.428 117.952 208.412 116.56 208.412 115.008V92.88H214.94V114.624C214.94 115.632 214.948 116.544 214.964 117.36C214.996 118.16 215.164 118.8 215.468 119.28C216.044 120.192 216.964 120.688 218.228 120.768C219.492 120.848 220.892 120.784 222.428 120.576V126ZM203.996 105.12V100.08H222.428V105.12H203.996ZM228.684 96.48V90.72H235.212V96.48H228.684ZM228.684 126V100.08H235.212V126H228.684ZM254.071 126.72C251.463 126.72 249.175 126.136 247.207 124.968C245.239 123.8 243.703 122.192 242.599 120.144C241.511 118.08 240.967 115.712 240.967 113.04C240.967 110.336 241.527 107.96 242.647 105.912C243.767 103.848 245.311 102.24 247.279 101.088C249.247 99.936 251.511 99.36 254.071 99.36C256.679 99.36 258.967 99.944 260.935 101.112C262.919 102.28 264.463 103.896 265.567 105.96C266.671 108.008 267.223 110.368 267.223 113.04C267.223 115.728 266.663 118.104 265.543 120.168C264.439 122.216 262.895 123.824 260.911 124.992C258.943 126.144 256.663 126.72 254.071 126.72ZM254.071 120.624C256.167 120.624 257.727 119.92 258.751 118.512C259.791 117.088 260.311 115.264 260.311 113.04C260.311 110.736 259.783 108.896 258.727 107.52C257.687 106.144 256.135 105.456 254.071 105.456C252.647 105.456 251.479 105.776 250.567 106.416C249.655 107.056 248.975 107.944 248.527 109.08C248.095 110.216 247.879 111.536 247.879 113.04C247.879 115.36 248.399 117.208 249.439 118.584C250.495 119.944 252.039 120.624 254.071 120.624ZM290.165 126V113.76C290.165 113.168 290.133 112.416 290.069 111.504C290.005 110.576 289.805 109.648 289.469 108.72C289.133 107.792 288.581 107.016 287.813 106.392C287.061 105.768 285.989 105.456 284.597 105.456C284.037 105.456 283.437 105.544 282.797 105.72C282.157 105.896 281.557 106.24 280.997 106.752C280.437 107.248 279.973 107.984 279.605 108.96C279.253 109.936 279.077 111.232 279.077 112.848L275.333 111.072C275.333 109.024 275.749 107.104 276.581 105.312C277.413 103.52 278.661 102.072 280.325 100.968C282.005 99.864 284.117 99.312 286.661 99.312C288.693 99.312 290.349 99.656 291.629 100.344C292.909 101.032 293.901 101.904 294.605 102.96C295.325 104.016 295.837 105.12 296.141 106.272C296.445 107.408 296.629 108.448 296.693 109.392C296.757 110.336 296.789 111.024 296.789 111.456V126H290.165ZM272.453 126V100.08H278.261V108.672H279.077V126H272.453Z" fill="#000569"/>
<path d="M31.9694 126V98.544L25.4894 102.528V95.328L31.9694 91.44H38.6414V126H31.9694Z" fill="#000569"/>
<line x1="525" y1="135" x2="525" y2="91" stroke="black" stroke-width="6" stroke-linecap="round"/>
<line x1="525" y1="135" x2="549" y2="135" stroke="black" stroke-width="6" stroke-linecap="round"/>
</svg>
