<?xml version="1.0" encoding="UTF-8" standalone="no"?>
<svg id="Nederlands_verkeersbord_E8" width="200" height="300" viewBox="0 0 200 300" xmlns="http://www.w3.org/2000/svg" version="1.1">

<rect id="blauw_vlak" width="200" height="300" fill="#0e518d"/>

<path id="witte_bies" style="fill:none;stroke:#f7fbf5;stroke-width:6.72582531" d="M 175.62623,292.09141 C 184.58296,292.09141 191.86981,285.0188 191.86981,276.30711 L 191.86981,23.66005 C 191.86981,14.956562 184.58296,7.875758 175.62623,7.875758 L 24.34006,7.875758 C 15.38333,7.875758 8.10491,14.956562 8.10491,23.66005 L 8.10491,276.30711 C 8.10491,285.0188 15.38333,292.09141 24.34006,292.09141 L 175.62623,292.09141"/>

<path id="letter_P" fill="#f7fbf5" d="M 77.47607,170.15749 L 53.05663,170.15749 L 53.05663,33.296274 L 108.82467,33.296274 C 135.33625,33.296274 150.57539,50.928494 150.57539,74.180604 C 150.57539,94.260854 137.92212,115.927 108.95856,115.927 L 77.47607,115.927 L 77.47607,170.15749 z M 101.50219,93.528884 C 123.53659,93.528884 127.98029,83.110564 127.98029,74.880034 C 127.98029,66.047654 124.42365,55.629344 101.50219,55.629344 L 77.18317,55.629344 L 77.18317,93.528884 L 101.50219,93.528884"/>

<path id="personenauto" fill="#f7fbf5" d="M 58.14287,266.48084 C 64.56944,266.48084 69.77312,261.4243 69.77312,255.14664 C 69.77312,248.90995 64.56944,243.84521 58.14287,243.84521 C 51.68256,243.84521 46.47888,248.90995 46.47888,255.14664 C 46.47888,261.4243 51.68256,266.48084 58.14287,266.48084 z M 147.28854,266.25957 C 153.71512,266.25957 158.9188,261.17023 158.9188,254.92536 C 158.9188,248.68048 153.71512,243.62394 147.28854,243.62394 C 140.87039,243.62394 135.65828,248.68048 135.65828,254.92536 C 135.65828,261.17023 140.87039,266.25957 147.28854,266.25957 z M 27.76419,238.0183 L 68.7189,229.09353 L 89.90471,210.13763 L 132.698,210.13763 L 152.00305,228.42151 L 172.98644,232.77326 L 172.98644,250.69654 L 163.53212,253.32726 C 162.35137,248.52478 158.13446,239.84588 146.33552,239.84588 C 134.57874,239.84588 131.05341,250.34416 130.36183,256.0809 L 74.8503,256.30219 C 74.8503,251.27842 70.82737,239.39512 58.37058,239.39512 C 44.50536,239.39512 41.8993,252.87651 41.8993,252.87651 L 27.76419,250.34416 L 27.76419,238.0183 z M 72.07558,229.3476 L 113.65439,229.3476 L 113.65439,212.5061 L 91.54932,212.5061 L 72.07558,229.3476 z M 118.13277,229.3476 L 149.33797,229.3476 L 131.77872,212.5061 L 118.13277,212.5061 L 118.13277,229.3476"/>

</svg>