<?xml version="1.0" encoding="UTF-8" standalone="no"?>
<svg id="Nederlands_verkeersbord_E4" width="300" height="300" viewBox="0 0 300 300" xmlns="http://www.w3.org/2000/svg" version="1.1">

<rect id="blauw_vlak" width="300" height="300" fill="#0e518d"/>

<path id="witte_bies" style="fill:none;stroke:#f7fbf5;stroke-width:6.7612772" d="M 276.33022,292.06475 C 285.02492,292.06475 292.09652,285.02651 292.09652,276.30011 L 292.09652,23.66726 C 292.09652,14.97345 285.02492,7.894449 276.33022,7.894449 L 23.66982,7.894449 C 14.94249,7.894449 7.86274,14.97345 7.86274,23.66726 L 7.86274,276.30011 C 7.86274,285.02651 14.94249,292.06475 23.66982,292.06475 L 276.33022,292.06475 z"/>

<path id="letter_P" fill="#f7fbf5" d="M 113.22695,258.2031 L 73.69295,258.2031 L 73.69295,45.491334 L 163.98415,45.491334 C 206.90304,45.491334 231.59243,74.859331 231.59243,113.63052 C 231.59243,147.11706 211.07911,181.4924 164.20436,181.4924 L 113.22695,181.4924 L 113.22695,258.2031 z M 150.73002,144.34411 C 184.62796,144.34411 191.51195,127.8374 191.51195,114.78049 C 191.51195,100.79374 186.03085,84.229943 150.73002,84.229943 L 113.22695,84.229943 L 113.22695,144.34411 L 150.73002,144.34411"/>

</svg>