<?xml version="1.0" encoding="UTF-8" standalone="no"?>
<svg id="Nederlands_verkeersbord_E3" width="300" height="300" viewBox="0 0 300 300" xmlns="http://www.w3.org/2000/svg" version="1.1">

<circle id="blauwe_cirkel_met_rode_rand" cx="150" cy="150" r="130.5" fill="#0e518d" stroke="#c1121c" stroke-width="39"/>

<path id="rode_streep" fill="#c1121c" d="M 250.92439,235.82866 L 64.77523,49.654158 L 51.72217,62.676325 L 237.90399,248.8835 L 250.92439,235.82866"/>

<g id="fiets">

<path fill="#f7fbf5" d="M 55.93705,190.09586 C 55.93705,179.85132 64.22795,171.55928 74.4711,171.55928 C 84.68157,171.55928 93.01331,179.85132 93.01331,190.09586 C 93.01331,200.30772 84.68157,208.6406 74.4711,208.6406 C 64.22795,208.6406 55.93705,200.30772 55.93705,190.09586 z M 74.43842,204.04117 C 82.16571,204.04117 88.41452,197.79151 88.41452,190.06318 C 88.41452,182.34301 82.16571,176.09335 74.43842,176.09335 C 66.71931,176.09335 60.46233,182.34301 60.46233,190.06318 C 60.46233,197.79151 66.71931,204.04117 74.43842,204.04117 z"/>

<path fill="#f7fbf5" d="M 98.59232,153.68444 L 98.59232,149.15854 L 90.55463,149.15854 C 86.95238,149.15854 85.89866,153.68444 85.89866,153.68444 C 83.37463,160.86542 73.06614,190.00599 73.06614,190.00599 C 72.04509,192.62023 76.19463,194.09074 77.183,191.59904 C 78.17137,189.07467 89.95017,155.8902 89.95017,155.8902 C 90.74251,153.36583 93.07866,153.68444 93.07866,153.68444 L 98.59232,153.68444"/>

<path fill="#f7fbf5" d="M 134.17377,187.80023 C 132.31955,183.87887 125.5888,169.45155 121.31674,160.26088 L 86.21722,160.26088 L 83.37463,167.72779 L 105.13519,192.3343 L 131.58439,192.3343 C 136.7223,192.3343 134.17377,187.80023 134.17377,187.80023"/>

<path fill="#0e518d" d="M 129.25641,187.76755 C 126.22594,181.41986 121.72516,171.74718 118.53949,164.88481 L 86.75634,164.8603 L 107.11193,187.76755 L 129.25641,187.76755"/>

<path fill="#f7fbf5" d="M 128.93784,153.68444 L 128.93784,157.29535 L 113.30356,157.23 C 110.59166,157.23 110.55899,153.68444 113.30356,153.68444 C 114.70853,153.68444 128.93784,153.68444 128.93784,153.68444"/>

<path fill="#f7fbf5" d="M 113.81817,190.09586 C 113.81817,179.85132 122.10908,171.55928 132.35222,171.55928 C 142.59537,171.55928 150.89444,179.85132 150.89444,190.09586 C 150.89444,200.30772 142.59537,208.6406 132.35222,208.6406 C 122.10908,208.6406 113.81817,200.30772 113.81817,190.09586 z M 132.31955,204.04117 C 140.04683,204.04117 146.32831,197.79151 146.32831,190.06318 C 146.32831,182.34301 140.04683,176.09335 132.31955,176.09335 C 124.60043,176.09335 118.34345,182.34301 118.34345,190.06318 C 118.34345,197.79151 124.60043,204.04117 132.31955,204.04117"/>

<path fill="#f7fbf5" d="M 108.32902,191.34579 L 124.6331,156.62546 L 120.54891,154.70563 L 104.17949,189.62202 L 108.32902,191.34579"/>

</g>

<g id="bromfiets">

<path fill="#f7fbf5" d="M 206.98669,116.73384 C 206.98669,107.09384 214.80382,99.27564 224.40983,99.27564 C 234.04035,99.27564 241.83298,107.09384 241.83298,116.73384 C 241.83298,126.34116 234.04035,134.15936 224.40983,134.15936 C 214.80382,134.15936 206.98669,126.34116 206.98669,116.73384 z M 224.40983,128.31817 C 230.82201,128.31817 235.99259,123.11421 235.99259,116.73384 C 235.99259,110.32079 230.82201,105.11682 224.40983,105.11682 C 218.02216,105.11682 212.82708,110.32079 212.82708,116.73384 C 212.82708,123.11421 218.02216,128.31817 224.40983,128.31817 z"/>

<path fill="#f7fbf5" d="M 146.29564,116.73384 C 146.29564,107.09384 154.11278,99.27564 163.75146,99.27564 C 173.35748,99.27564 181.17461,107.09384 181.17461,116.73384 C 181.17461,126.34116 173.35748,134.15936 163.75146,134.15936 C 154.11278,134.15936 146.29564,126.34116 146.29564,116.73384 z M 163.75146,128.31817 C 170.13097,128.31817 175.33422,123.11421 175.33422,116.73384 C 175.33422,110.32079 170.13097,105.11682 163.75146,105.11682 C 157.33929,105.11682 152.13603,110.32079 152.13603,116.73384 C 152.13603,123.11421 157.33929,128.31817 163.75146,128.31817 z"/>

<path fill="#f7fbf5" d="M 189.49819,75.919068 L 181.7464,75.919068 C 181.7464,75.919068 177.76023,75.56778 175.62012,80.926965 L 160.97422,116.09662 C 160.97422,116.09662 159.85515,118.71085 162.21581,119.60133 C 164.60914,120.46729 166.36534,117.33838 166.36534,117.33838 L 181.49318,81.915473 L 189.49819,81.915473 L 189.49819,75.919068"/>

<path fill="#f7fbf5" d="M 176.13472,88.81052 L 189.24497,89.06378 L 194.51357,97.46201 L 190.48656,108.98099 L 193.86827,113.8255 L 225.04697,113.95621 C 225.04697,113.95621 227.79154,113.8255 227.79154,116.48058 C 227.79154,119.09482 225.30019,119.60133 225.30019,119.60133 L 194.38288,119.73204 C 194.38288,119.73204 190.48656,120.46729 187.74199,115.4594 C 187.74199,115.4594 174.98298,94.55367 174.85229,94.55367 C 174.72976,94.55367 176.13472,88.81052 176.13472,88.81052"/>

<path fill="#f7fbf5" d="M 236.69507,88.94123 L 236.91562,95.82811 L 220.4155,96.69408 C 220.4155,96.69408 216.27413,97.20059 214.38724,99.56157 C 212.54118,101.95523 209.88646,100.93404 209.15947,99.21028 C 208.39165,97.46201 205.26316,91.93944 205.26316,91.93944 C 205.26316,91.93944 204.14409,88.94123 208.04041,88.94123 L 236.69507,88.94123"/>

<path fill="#f7fbf5" d="M 164.35592,99.82299 L 164.60914,96.1794 C 164.60914,96.1794 158.8341,95.57486 156.47344,97.07805 L 157.59251,100.58276 L 164.35592,99.82299"/>

</g>

</svg>