<?xml version="1.0" encoding="UTF-8" standalone="yes"?>
<svg xmlns="http://www.w3.org/2000/svg" xmlns:xlink="http://www.w3.org/1999/xlink" width="375px" height="375px" viewBox="0 0 375 375" version="1.1">
  <g id="surface1">
    <use xlink:href="#image12" mask="url(#mask0)"/>
    <path style="fill-rule:nonzero;fill:rgb(47.058824%,26.666668%,12.941177%);fill-opacity:1;stroke-width:0.52917;stroke-linecap:butt;stroke-linejoin:miter;stroke:rgb(33.333334%,13.333334%,0%);stroke-opacity:1;stroke-miterlimit:10;" d="M 20.645112 33.168846 C 18.838166 31.440571 18.931301 17.90506 18.931301 17.90506 L 14.927939 17.90506 C 14.927939 17.90506 15.044709 31.71186 13.21448 33.168846 C 15.459933 33.725888 18.136132 33.716363 20.645112 33.168846 Z M 20.645112 33.168846 " transform="matrix(11.072725,0,0,11.072725,0,0)"/>
    <path style="fill-rule:nonzero;fill:rgb(0%,50.196081%,0%);fill-opacity:1;stroke-width:0.52917;stroke-linecap:butt;stroke-linejoin:miter;stroke:rgb(8.627451%,31.37255%,8.627451%);stroke-opacity:1;stroke-miterlimit:10;" d="M 21.14712 9.623167 C 18.634612 7.007294 17.798873 3.519699 17.798873 3.519699 C 17.798873 3.519699 16.544383 9.688079 11.226911 11.82558 L 15.094099 11.82558 C 13.300206 14.514479 11.323926 16.768751 8.862218 17.861668 L 13.933801 17.861668 C 11.807589 20.92769 9.459829 23.465245 6.584309 24.741961 L 12.327235 24.767008 " transform="matrix(11.072725,0,0,11.072725,0,0)"/>
    <path style="fill-rule:nonzero;fill:rgb(0%,50.196081%,0%);fill-opacity:1;stroke-width:0.52917;stroke-linecap:butt;stroke-linejoin:round;stroke:rgb(8.627451%,31.37255%,8.627451%);stroke-opacity:1;stroke-miterlimit:10;" d="M 12.327941 24.767008 C 12.86946 24.769478 13.403571 24.637537 13.89182 24.402232 C 14.579391 25.429531 15.73475 26.046546 16.971248 26.046546 C 18.087095 26.046193 19.143675 25.542774 19.846768 24.676696 C 20.234827 24.810047 20.641937 24.878487 21.051869 24.878487 C 23.098353 24.87884 24.757483 23.219709 24.757836 21.173578 C 24.757836 20.460255 24.551812 19.761748 24.164458 19.162725 C 25.467984 18.553472 26.300901 17.245006 26.300901 15.806364 C 26.300901 13.942268 24.601906 12.548429 22.753333 12.311007 C 22.249561 10.873424 21.465328 9.953723 21.147825 9.623167 " transform="matrix(11.072725,0,0,11.072725,0,0)"/>
    <path style="fill:none;stroke-width:0.52917;stroke-linecap:round;stroke-linejoin:round;stroke:rgb(8.627451%,31.37255%,8.627451%);stroke-opacity:1;stroke-miterlimit:10;" d="M 20.91499 18.352034 C 20.91499 20.257758 19.408261 21.822696 17.503948 21.895016 " transform="matrix(11.072725,0,0,11.072725,0,0)"/>
    <path style="fill:none;stroke-width:0.52917;stroke-linecap:round;stroke-linejoin:miter;stroke:rgb(0%,0%,0%);stroke-opacity:1;stroke-miterlimit:10;" d="M 10.444089 28.036938 L 22.261908 7.55093 " transform="matrix(11.072725,0,0,11.072725,0,0)"/>
  </g>
</svg>
