<?xml version="1.0" encoding="UTF-8" standalone="no"?>
<svg id="Nederlands_verkeersbord_B4" width="350" height="300" viewBox="0 0 350 300" xmlns="http://www.w3.org/2000/svg" version="1.1">

<path id="rode_driehoek" fill="#c1121c" d="M 11,300 C 11,300 27.820331,300 11,300 C -3.9165388,300 3.7804912,283.85305 3.7804912,283.85305 L 164.90679,8.074496 C 164.90679,8.074496 161.40064,14.190767 164.90679,8.074496 C 171.16011,-2.85324 179.31089,-2.372093 185.11873,7.601505 L 346.21203,283.85305 C 346.21203,283.85305 353.91732,300 339,300 C 322.17219,300 339,300 339,300 L 11,300"/>

<path id="witte_driehoek" fill="#f7fbf5" d="M 175.483,73.698 L 283.20852,259.57553 L 66.297261,259.57553 L 175.483,73.698"/>

<path id="zwart_symbool" fill="#2a2d2f" d="M 175.12808,233.3272 L 193.04152,251.0346 L 193.04152,133.12161 L 175.12808,102.20729 L 157.21383,133.12161 L 157.21383,169.71473 L 123.55245,169.71473 L 123.55245,184.93459 L 157.21383,184.93459 L 157.21383,251.0346 L 175.12808,233.3272"/>

</svg>