<?xml version="1.0" encoding="UTF-8" standalone="yes"?>
<svg xmlns="http://www.w3.org/2000/svg" xmlns:xlink="http://www.w3.org/1999/xlink" width="375px" height="375px" viewBox="0 0 375 375" version="1.1">
  <g id="surface1">
    <path style="fill-rule:nonzero;fill:rgb(100%,0%,0%);fill-opacity:1;stroke-width:2;stroke-linecap:butt;stroke-linejoin:miter;stroke:rgb(0%,0%,0%);stroke-opacity:1;stroke-miterlimit:4;" d="M 15 9 C 15 12.313688 12.313688 15 9 15 C 5.686313 15 3 12.313688 3 9 C 3 5.686313 5.686313 3 9 3 C 12.313688 3 15 5.686313 15 9 Z M 15 9 " transform="matrix(20.833333,0,0,20.833333,0,0)"/>
    <path style=" stroke:none;fill-rule:nonzero;fill:rgb(100%,100%,100%);fill-opacity:1;" d="M 145.832031 125 L 145.832031 229.167969 L 166.667969 229.167969 L 166.667969 187.5 L 208.332031 187.5 L 208.332031 229.167969 L 229.167969 229.167969 L 229.167969 125 L 208.332031 125 L 208.332031 166.667969 L 166.667969 166.667969 L 166.667969 125 Z M 145.832031 125 "/>
  </g>
</svg>