<?xml version="1.0" encoding="UTF-8" standalone="yes"?>
<svg xmlns="http://www.w3.org/2000/svg" xmlns:xlink="http://www.w3.org/1999/xlink" width="375px" height="375px" viewBox="0 0 375 375" version="1.1">
  <g id="surface1">
    <path style=" stroke:none;fill-rule:nonzero;fill:rgb(85.09804%,61.960787%,50.980395%);fill-opacity:1;" d="M 302.082031 177.082031 L 302.082031 229.167969 C 302.082031 272.3125 251.082031 322.917969 187.5 322.917969 C 123.917969 322.917969 72.917969 272.3125 72.917969 229.167969 L 72.917969 177.082031 L 52.082031 177.082031 L 52.082031 229.167969 C 52.082031 283.8125 106.957031 343.75 187.5 343.75 C 268.042969 343.75 322.917969 283.8125 322.917969 229.167969 L 322.917969 177.082031 Z M 302.082031 177.082031 "/>
    <path style=" stroke:none;fill-rule:nonzero;fill:rgb(75.686276%,41.176471%,30.980393%);fill-opacity:1;" d="M 229.167969 334.199219 C 229.167969 345.230469 220.230469 354.167969 209.199219 354.167969 L 165.800781 354.167969 C 154.769531 354.167969 145.832031 345.230469 145.832031 334.199219 L 145.832031 332.46875 C 145.832031 321.4375 154.769531 312.5 165.800781 312.5 L 209.199219 312.5 C 220.230469 312.5 229.167969 321.4375 229.167969 332.46875 Z M 229.167969 334.199219 "/>
    <path style=" stroke:none;fill-rule:nonzero;fill:rgb(91.764706%,34.901962%,43.137255%);fill-opacity:1;" d="M 20.832031 177.082031 C 20.832031 148.3125 89.699219 125 187.5 125 C 285.300781 125 354.167969 148.3125 354.167969 177.082031 C 354.167969 205.84375 285.300781 239.582031 187.5 239.582031 C 89.699219 239.582031 20.832031 205.84375 20.832031 177.082031 Z M 20.832031 177.082031 "/>
    <path style=" stroke:none;fill-rule:nonzero;fill:rgb(86.666667%,18.039216%,26.666668%);fill-opacity:1;" d="M 31.25 166.667969 C 31.25 93.75 95.8125 20.832031 187.5 20.832031 C 279.1875 20.832031 343.75 93.75 343.75 166.667969 C 343.75 177.082031 279.1875 208.332031 187.5 208.332031 C 95.8125 208.332031 31.25 177.082031 31.25 166.667969 Z M 31.25 166.667969 "/>
    <path style=" stroke:none;fill-rule:nonzero;fill:rgb(62.7451%,1.568628%,11.764706%);fill-opacity:1;" d="M 260.417969 197.917969 C 254.65625 197.917969 250 193.25 250 187.5 C 250 107 229.894531 45.574219 229.699219 44.957031 C 227.886719 39.5 230.832031 33.605469 236.300781 31.78125 C 241.738281 29.980469 247.644531 32.917969 249.46875 38.363281 C 250.300781 40.863281 269.011719 97.84375 270.71875 176.105469 C 282.582031 174.425781 303.6875 169.832031 328.675781 157.34375 C 333.824219 154.769531 340.074219 156.855469 342.65625 162 C 345.230469 167.144531 343.144531 173.40625 338 175.980469 C 294.625 197.667969 261.792969 197.917969 260.417969 197.917969 Z M 114.582031 197.917969 C 113.207031 197.917969 80.375 197.667969 37.011719 175.980469 C 31.863281 173.40625 29.78125 167.144531 32.355469 162 C 34.925781 156.863281 41.175781 154.761719 46.332031 157.34375 C 71.324219 169.84375 92.425781 174.425781 104.300781 176.105469 C 106.011719 97.84375 124.707031 40.863281 125.542969 38.363281 C 127.363281 32.90625 133.292969 29.980469 138.707031 31.78125 C 144.167969 33.59375 147.125 39.5 145.300781 44.957031 C 145.09375 45.5625 125 106.988281 125 187.5 C 125 193.25 120.332031 197.917969 114.582031 197.917969 Z M 114.582031 197.917969 "/>
    <path style=" stroke:none;fill-rule:nonzero;fill:rgb(100%,100%,100%);fill-opacity:1;" d="M 218.75 125 L 197.917969 125 L 197.917969 104.167969 C 197.917969 98.417969 193.25 93.75 187.5 93.75 C 181.75 93.75 177.082031 98.417969 177.082031 104.167969 L 177.082031 125 L 156.25 125 C 150.5 125 145.832031 129.667969 145.832031 135.417969 C 145.832031 141.167969 150.5 145.832031 156.25 145.832031 L 177.082031 145.832031 L 177.082031 166.667969 C 177.082031 172.417969 181.75 177.082031 187.5 177.082031 C 193.25 177.082031 197.917969 172.417969 197.917969 166.667969 L 197.917969 145.832031 L 218.75 145.832031 C 224.511719 145.832031 229.167969 141.167969 229.167969 135.417969 C 229.167969 129.667969 224.511719 125 218.75 125 Z M 218.75 125 "/>
  </g>
</svg>