<?xml version="1.0" encoding="UTF-8" standalone="no"?>
<svg
   version="1.1"
   id="Layer_1"
   x="0px"
   y="0px"
   width="769.688px"
   height="769.656px"
   viewBox="-360.791 -360.781 769.688 769.656"
   xml:space="preserve"
   sodipodi:docname="maxspeed_130.svg"
   inkscape:version="1.1.2 (b8e25be833, 2022-02-05)"
   xmlns:inkscape="http://www.inkscape.org/namespaces/inkscape"
   xmlns:sodipodi="http://sodipodi.sourceforge.net/DTD/sodipodi-0.dtd"
   xmlns:xlink="http://www.w3.org/1999/xlink"
   xmlns="http://www.w3.org/2000/svg"
   xmlns:svg="http://www.w3.org/2000/svg"><defs
   id="defs852"><linearGradient
     id="linearGradient14960"
     inkscape:swatch="solid"><stop
       style="stop-color:#000000;stop-opacity:1;"
       offset="0"
       id="stop14958" /></linearGradient><linearGradient
     inkscape:collect="always"
     xlink:href="#linearGradient14960"
     id="linearGradient14962"
     x1="-80.236004"
     y1="-53.933023"
     x2="-56.330762"
     y2="-53.933023"
     gradientUnits="userSpaceOnUse" /></defs><sodipodi:namedview
   id="namedview850"
   pagecolor="#ffffff"
   bordercolor="#666666"
   borderopacity="1.0"
   inkscape:pageshadow="2"
   inkscape:pageopacity="0.0"
   inkscape:pagecheckerboard="0"
   showgrid="false"
   inkscape:zoom="0.9536728"
   inkscape:cx="384.828"
   inkscape:cy="384.828"
   inkscape:window-width="1920"
   inkscape:window-height="1027"
   inkscape:window-x="-8"
   inkscape:window-y="-8"
   inkscape:window-maximized="1"
   inkscape:current-layer="layer1" />
<path
   fill="#E41408"
   d="M-360.791,24.031c0-212.523,172.305-384.812,384.852-384.812c212.508,0,384.836,172.289,384.836,384.812  c0,212.531-172.328,384.844-384.836,384.844C-188.486,408.875-360.791,236.562-360.791,24.031"
   id="path839" />
<path
   fill="#FFFFFF"
   d="M-258.15,24.031c0-155.852,126.336-282.203,282.211-282.203c155.852,0,282.18,126.352,282.18,282.203  c0,155.875-126.328,282.188-282.18,282.188C-131.814,306.219-258.15,179.906-258.15,24.031"
   id="path841" />
<path
   fill-rule="evenodd"
   d="M-181.415,128.5h47.915V-75.371h-42.533v8.891c0,10.621-10.715,21.291-21.29,21.291h-17.734v40.708  h33.643V128.5"
   id="path843" />
<path
   fill-rule="evenodd"
   d="M261.186-18.972c-8.891-35.421-44.358-62.045-81.559-62.045c-37.246,0-70.889,26.624-81.58,62.045  c-5.264,24.799-5.264,63.824,0,88.623c10.691,35.421,44.334,61.999,81.58,61.999c37.2,0,72.668-26.578,81.559-61.999  C268.204,44.852,268.204,5.827,261.186-18.972z M216.827,53.742c-1.802,17.64-19.466,31.864-37.2,31.864  c-17.71,0-33.736-14.225-37.246-31.864c-1.754-15.957-1.754-40.755,0-56.758c3.51-17.781,19.536-31.912,37.246-31.912  c17.734,0,35.398,14.131,37.2,31.912C220.336,12.987,220.336,37.785,216.827,53.742z"
   id="path845" />

<g
   inkscape:groupmode="layer"
   id="layer1"
   inkscape:label="Layer 1"><g
     aria-label="3"
     id="text22897"
     style="font-size:279.418px;line-height:163.721px;font-family:Ccrige;-inkscape-font-specification:Ccrige;letter-spacing:0px;word-spacing:0px;stroke-width:1px"><path
       d="m -81.065491,-14.057334 44.287753,4.8199606 q -0.209563,-8.3825396 4.680252,-15.2282806 0.977963,-1.117672 2.095635,-2.16549 24.518929,-18.511442 47.291496,2.095635 0.279418,0.419127 0.488981,0.908109 6.426614,16.6253706 -8.731812,26.0557281 -3.5625795,1.257381 -7.404577,1.536799 h -22.98213 V 44.969718 H 6.8813245 q 2.514762,0.349273 4.7501055,1.327236 14.669445,8.103122 9.430358,24.029948 -3.911852,6.636177 -10.478175,10.617884 -25.496892,12.364246 -42.331827,-10.338466 -3.911852,-6.217051 -4.81996,-13.481919 l -46.313534,8.172977 q 1.606654,15.647408 9.919339,28.989617 4.95967,6.775885 11.17672,12.503955 59.8653065,45.19586 115.469488,-5.30894 Q 75.967425,73.190936 61.29798,40.289467 54.522093,29.252456 43.485082,22.406715 53.683839,15.910247 59.761181,5.4320716 78.831459,-35.991647 41.668865,-62.466502 q -60.70356,-36.743467 -111.208363,13.062791 -10.827448,15.996681 -11.525993,35.346377 z"
       id="path1034" /></g></g></svg>
