<?xml version="1.0" encoding="UTF-8" standalone="no"?>
<svg
   width="500"
   height="500"
   viewBox="0 0 500 500"
   version="1.1"
   id="svg43"
   sodipodi:docname="logo.svg"
   inkscape:version="1.1.1 (1:1.1+202109281949+c3084ef5ed)"
   xmlns:inkscape="http://www.inkscape.org/namespaces/inkscape"
   xmlns:sodipodi="http://sodipodi.sourceforge.net/DTD/sodipodi-0.dtd"
   xmlns="http://www.w3.org/2000/svg"
   xmlns:svg="http://www.w3.org/2000/svg">
  <sodipodi:namedview
     id="namedview27"
     pagecolor="#505050"
     bordercolor="#eeeeee"
     borderopacity="1"
     inkscape:pageshadow="0"
     inkscape:pageopacity="0"
     inkscape:pagecheckerboard="0"
     showgrid="false"
     inkscape:zoom="1.682"
     inkscape:cx="249.70273"
     inkscape:cy="359.69084"
     inkscape:current-layer="svg43" />
  <defs
     id="defs47" />
  <path
     style="fill:#0070b3;fill-opacity:1;fill-rule:nonzero;stroke:none;stroke-width:1.31226"
     d="m 123.20588,5.0282119 h 250.57063 c 20.88857,0 37.87624,17.0132951 37.87624,38.0761541 V 458.07704 c 0,20.90907 -16.98767,37.64557 -37.87624,37.64557 H 122.92395 c -21.02698,0 -38.024893,-17.02355 -38.024893,-37.93776 L 85.047711,43.104366 c 0,-21.057733 17.136319,-38.0761541 38.158169,-38.0761541 z m 0,0"
     id="path2" />
  <path
     style="fill:#ffffff;fill-opacity:1;fill-rule:nonzero;stroke:none;stroke-width:1.31226"
     d="m 399.51543,458.51275 c 0,13.69675 -11.08247,24.79974 -24.48192,24.79974 H 121.87425 c -13.53785,0 -24.476795,-11.10812 -24.476795,-24.79974 V 42.094539 c 0,-13.558352 10.938945,-24.809988 24.476795,-24.809988 79.35095,0 173.66991,0 253.15926,0 13.39945,0 24.48192,11.108108 24.48192,24.948389 z m 0,0"
     id="path4" />
  <g
     id="g943"
     transform="matrix(1.3122638,0,0,1.3122638,97.2488,12.77877)">
    <path
       style="fill:#0070b3;fill-opacity:1;fill-rule:nonzero;stroke:none"
       d="m 221.11719,339.77344 c 0,5.27343 -4.38282,9.45312 -9.54297,9.45312 H 18.652344 c -5.15625,0 -9.324219,-4.17969 -9.324219,-9.45312 V 22.230469 c 0,-5.167969 4.167969,-9.453125 9.324219,-9.453125 55.640625,0 137.503906,0 193.140626,0 5.15625,0 9.32422,4.175781 9.32422,9.453125 z m 0,0"
       id="path6" />
  </g>
  <path
     style="fill:#ffffff;fill-opacity:1;fill-rule:nonzero;stroke:none;stroke-width:1.31226"
     d="m 143.53173,319.32564 h 41.5516 v 42.83312 h -41.5516 z m 0,0"
     id="path8" />
  <path
     style="fill:#ffffff;fill-opacity:1;fill-rule:nonzero;stroke:none;stroke-width:1.31226"
     d="m 304.3353,321.69387 h 41.55161 v 42.8331 H 304.3353 Z m 0,0"
     id="path10" />
  <path
     style="fill:#fd0000;fill-opacity:1;fill-rule:nonzero;stroke:none;stroke-width:1.31226"
     d="m 252.27534,455.83184 c -0.651,-0.20505 -1.63008,-0.77403 -2.16319,-1.30202 -2.2452,-2.08117 -2.16319,-0.65613 -2.16319,-34.74423 v -31.56097 h -76.33684 v 30.54601 h -24.49217 v -30.14106 h -5.14141 l -1.67621,-2.93208 c -4.24435,-7.45325 -6.7356,-16.00348 -7.91972,-26.9988 -0.60999,-5.54125 -0.56899,-40.73144 0.041,-43.01253 0.41008,-1.42503 1.1021,-2.15806 5.06452,-5.33108 0.73302,-0.65613 1.63008,-1.1431 1.99915,-1.1431 0.97907,0 1.26613,-0.60999 4.4904,-9.16533 1.7121,-4.47503 4.28537,-11.23626 5.71553,-15.06541 1.46604,-3.78813 5.71552,-14.94751 9.42677,-24.80487 3.75738,-9.81635 7.06367,-18.44858 7.39173,-19.2226 l 0.56899,-1.38403 h 42.29488 l 3.83427,-13.6455 c 3.26528,-11.60533 4.00343,-13.76339 4.9825,-14.70145 1.42504,-1.38403 10.93895,-5.29519 19.30976,-7.98124 l 6.65359,-2.11705 -2.36823,-1.75309 c -4.24435,-3.09613 -7.2277,-7.74031 -8.3708,-13.07138 -0.69202,-3.4242 -0.69202,-4.89023 0.0409,-8.43232 2.16318,-10.26231 10.69802,-17.31061 20.98084,-17.31061 4.29049,0 7.59678,0.81505 10.86206,2.65016 5.99745,3.37805 10.08289,9.65231 10.97996,16.94153 0.85604,6.92526 -3.26528,15.76255 -9.18585,19.55069 l -1.99915,1.34301 7.63266,2.52201 c 10.00088,3.30116 17.39261,6.43829 18.61774,7.90434 0.69201,0.81504 2.08116,5.00813 4.81333,14.61943 l 3.83941,13.48147 h 14.69632 l 4.16234,9.28324 c 2.28622,5.09527 9.22686,20.52975 15.38834,34.29314 l 11.22601,25.05091 1.34814,0.24093 c 1.95815,0.32806 5.51049,3.09611 6.44856,5.04913 0.77916,1.58907 0.82017,2.65016 0.90218,19.38665 0.041,18.37169 -0.20504,23.05176 -1.75823,30.58702 -1.43016,7.13032 -4.69544,15.5575 -8.08375,20.81169 l -1.261,1.91714 h -8.16577 v 32.58104 H 310.4096 v -30.54601 h -29.80274 v 21.99067 h 11.43105 v 10.18542 h -23.67714 v -32.17609 h -8.16576 l -0.082,32.13508 -0.11784,32.17097 -1.43016,1.46604 c -0.77916,0.77404 -2.04017,1.63008 -2.86033,1.83513 -1.63008,0.44596 -1.83512,0.44596 -3.42931,0 z m -4.32638,-82.06775 V 371.9341 H 196.1043 v 3.6651 h 51.84466 z m 20.32984,-0.082 0.12296,-1.74797 H 260.195 v 3.70611 l 4.00343,-0.12296 3.95728,-0.12296 z m 21.71899,0.082 v -1.82999 h -9.39088 v 3.6651 h 9.39088 z m -73.48164,-13.44045 v -1.83 h -31.43282 v 3.66512 h 31.43282 z m 31.43281,0 v -1.83 h -7.75567 v 3.66512 h 7.75567 z m 20.41186,0 v -1.83 h -8.16576 v 3.66512 h 8.16576 z m 32.65794,0 v -1.83 h -20.41185 v 3.66512 h 20.41185 z M 168.46987,356.5355 c 3.71637,-1.42504 8.12476,-6.83813 8.89879,-10.87232 0.4921,-2.52713 -0.20504,-5.90519 -1.75311,-8.83727 -1.6352,-3.09613 -2.86032,-4.2751 -5.87955,-5.90518 -5.14654,-2.72706 -10.575,-2.3221 -15.26532,1.09697 -2.0863,1.50704 -3.14738,2.77318 -4.3315,5.29518 -0.93806,1.91714 -1.10209,2.77318 -1.10209,6.11023 -0.041,4.56218 0.61512,6.15123 3.96242,9.69332 3.26528,3.46008 6.2435,4.64418 10.85693,4.35713 1.47117,-0.082 3.55234,-0.52798 4.61343,-0.93806 z m 161.81853,0.36907 c 2.12217,-0.40495 5.67452,-3.0141 7.83769,-5.74115 3.14226,-3.95217 3.14226,-11.2824 0.041,-15.92658 -2.57326,-3.74713 -6.98165,-6.15124 -11.43104,-6.15124 -5.1004,-0.0409 -9.5088,2.28108 -11.87703,6.31527 -3.67536,6.19225 -3.67536,10.67239 -0.082,15.63952 1.58907,2.19907 5.38746,5.33621 6.85864,5.61813 0.44596,0.082 1.1841,0.24605 1.63006,0.32807 1.43017,0.32293 5.22343,0.24605 7.02267,-0.082 z M 227.53712,346.27319 v -1.63008 H 196.1043 v 3.26016 h 31.43282 z m 20.41184,0 v -1.63008 h -7.75567 v 3.26016 h 7.75567 z m 20.41186,0 v -1.63008 h -8.16576 v 3.26016 h 8.16576 z m 21.63697,0 v -1.63008 h -9.39088 v 3.26016 h 9.39088 z M 157.12084,306.60797 c 11.63609,-1.34816 27.96249,-2.11706 53.59777,-2.52715 l 16.81851,-0.24605 v -9.07819 c 0,-8.63737 0.041,-9.12434 0.94319,-10.79543 2.24519,-4.23409 7.63265,-4.35712 10.65188,-0.28192 0.81505,1.09697 0.85606,1.74797 0.97908,10.46223 l 0.12296,9.32937 4.94149,0.12296 c 2.69116,0.082 4.97738,0.0409 5.05939,-0.0409 0.082,-0.082 0.16404,-5.33621 0.16404,-11.61047 0,-6.31014 0.20504,-12.78431 0.41008,-14.4554 0.24093,-1.67109 0.32295,-3.13713 0.20504,-3.21915 -0.28706,-0.32294 -8.65786,0.69202 -12.8202,1.54806 -7.26871,1.50706 -19.63782,6.27427 -20.57589,7.94022 -0.28193,0.53311 -2.52713,0.61513 -14.77834,0.61513 h -14.49123 v -7.7403 h 11.0261 v -1.0611 c 0,-0.93294 7.14056,-26.75787 7.63265,-27.56778 0.082,-0.16404 -7.91971,-0.24605 -17.83858,-0.20505 l -18.04363,0.12296 -9.34988,25.04579 c -5.14141,13.76339 -10.16492,27.20385 -11.185,29.89501 l -1.79411,4.80308 1.50706,-0.19991 c 0.81503,-0.16403 3.92141,-0.5331 6.81762,-0.85604 z m 176.06377,-7.45325 c -2.28622,-4.68519 -8.77577,-18.08464 -14.45029,-29.85401 l -10.32894,-21.38067 -6.12049,-0.24605 0.81504,2.76805 c 3.79839,13.23541 6.89964,24.55882 6.89964,25.29184 0,0.85605 0.12296,0.89706 5.1004,0.89706 h 5.14653 l -0.12296,3.78813 -0.12296,3.74713 -14.49129,0.12296 c -13.02011,0.082 -14.49128,0.0409 -14.81934,-0.57412 -0.85606,-1.54293 -12.49215,-6.02308 -19.87875,-7.69417 -4.04444,-0.89705 -13.34819,-2.11705 -13.63525,-1.79411 -0.082,0.082 0.12296,2.28109 0.41008,4.84923 0.28194,2.56301 0.52799,9.20123 0.569,14.78347 v 10.05726 h 10.16491 l 0.12296,-9.93424 0.12296,-9.93937 1.02008,-1.1021 c 3.10126,-3.29604 7.96073,-2.89108 10.08291,0.85605 0.89705,1.50705 0.93806,1.99915 0.93806,11.00047 v 9.40625 l 12.16407,0.24605 c 16.53658,0.36396 33.63702,1.50706 40.70068,2.68605 4.24435,0.73302 4.28536,1.38403 -0.28705,-7.98123 z M 223.74385,275.2059 c 19.75573,-7.98123 43.18681,-7.6993 62.33253,0.651 2.04017,0.89707 3.96242,1.75311 4.24436,1.87613 0.28706,0.11784 0.4921,-0.082 0.4921,-0.45109 0,-0.52797 0.73302,-0.651 4.40838,-0.73302 l 4.40839,-0.12295 -3.75226,-13.44046 c -2.08629,-7.37123 -3.8804,-13.84541 -4.04443,-14.33239 -0.20504,-0.93806 -0.28706,-0.93806 -7.26359,-0.93806 h -7.10468 l -0.69201,3.99318 -0.69714,3.94704 2.2862,7.49426 c 1.22513,4.11621 2.16319,7.57628 2.12218,7.6583 -0.082,0.082 -2.2452,-0.41009 -4.81334,-1.10211 -14.49641,-3.74713 -29.18761,-3.74713 -43.35596,0.0409 -1.75311,0.4921 -3.26528,0.81505 -3.3473,0.69203 -0.082,-0.082 0.85604,-3.41907 2.08117,-7.45326 l 2.24521,-7.28921 -0.69203,-3.98805 -0.69201,-3.99318 h -14.12734 l -0.44596,1.54806 c -0.24605,0.81504 -2.04529,7.28921 -4.04444,14.33751 l -3.55234,12.82533 3.8394,0.12296 c 2.85519,0.082 3.83427,0.24605 3.9983,0.69201 0.20504,0.52797 0.41008,0.52797 1.43016,0 0.65101,-0.36394 2.77831,-1.26101 4.73645,-2.03503 z m 6.65359,-35.92322 c 0,-0.24093 -2.53226,-15.35246 -3.79839,-22.51866 -0.082,-0.5331 -6.40754,21.6626 -6.40754,22.51866 0,0.16403 2.28622,0.28706 5.10041,0.28706 2.81931,0 5.10552,-0.12296 5.10552,-0.28706 z m 58.78532,0 c 0,-0.24093 -5.63351,-20.68867 -6.24863,-22.68269 -0.12296,-0.28706 -3.99831,21.90865 -3.9573,22.68269 0,0.16403 2.28621,0.28706 5.1004,0.28706 2.81932,0 5.10553,-0.12296 5.10553,-0.28706 z m 0,0"
     id="path12" />
  <path
     style="fill:#ffffff;fill-opacity:1;fill-rule:nonzero;stroke:none;stroke-width:1.31226"
     d="m 252.27534,455.83184 c -0.651,-0.20505 -1.63008,-0.77403 -2.16319,-1.30202 -2.28621,-2.12218 -2.16319,1.22 -2.16319,-56.32995 0,-56.44784 -0.082,-54.40769 1.79925,-55.95574 0.56898,-0.4921 0.651,-3.87015 0.651,-30.9561 0,-17.99749 0.16403,-31.684 0.41008,-33.59601 0.20504,-1.79411 0.32295,-3.34217 0.20504,-3.42419 -0.28705,-0.32294 -8.65785,0.69202 -12.8202,1.54806 -7.2687,1.50706 -19.63782,6.27427 -20.57588,7.94022 -0.28193,0.53311 -2.52714,0.61513 -14.77835,0.61513 h -14.49129 v -7.7403 h 11.0261 v -1.0611 c 0,-0.60999 2.65015,-10.38533 5.87443,-21.7036 3.26528,-11.32341 7.2277,-25.29184 8.81677,-30.99711 2.28621,-8.10426 3.14738,-10.62626 4.00343,-11.4823 1.34814,-1.46605 8.9808,-4.68521 18.48959,-7.82233 l 7.59678,-2.48101 -2.00427,-1.42502 c -4.28537,-2.9321 -7.55065,-7.98636 -8.69375,-13.32256 -0.73303,-3.50108 -0.73303,-4.92611 0,-8.4682 2.16317,-10.26231 10.69802,-17.31061 20.98084,-17.31061 4.29049,0 7.59677,0.81505 10.86205,2.65016 5.99746,3.37805 10.0829,9.65231 10.97996,16.94153 0.85605,6.92526 -3.26528,15.76255 -9.18584,19.55069 l -1.99916,1.34301 7.63267,2.52201 c 10.00088,3.30116 17.39261,6.43829 18.61774,7.90434 0.69201,0.81504 1.99914,4.80308 4.57241,13.68138 10.40585,36.61523 14.08121,49.72762 14.08121,50.58366 0,0.89706 0.082,0.89706 5.1004,0.89706 h 5.14653 l -0.12296,3.78813 -0.12296,3.74713 -14.49129,0.12296 c -13.02011,0.082 -14.49128,0.0409 -14.81934,-0.57412 -0.85606,-1.54293 -12.49215,-6.02308 -19.87875,-7.69417 -4.04444,-0.89705 -13.34819,-2.11705 -13.63525,-1.79411 -0.082,0.082 0.12296,2.28109 0.41008,4.84923 0.36396,3.37806 0.52799,12.62541 0.569,33.51912 v 28.7929 l 2.04016,3.09613 -0.082,54.04373 -0.11784,54.00273 -1.43016,1.46605 c -0.77916,0.77404 -2.04016,1.63008 -2.86033,1.83512 -1.63008,0.44596 -1.83512,0.44596 -3.42931,0 z M 223.74385,275.2059 c 19.75573,-7.98123 43.18681,-7.6993 62.33253,0.651 2.04017,0.89707 3.96242,1.75311 4.24948,1.87613 0.28194,0.11784 0.48698,-0.082 0.48698,-0.45109 0,-0.52797 0.73302,-0.651 4.40838,-0.73302 l 4.40839,-0.12295 -8.40669,-30.05393 c -4.57242,-16.53657 -8.41182,-29.89501 -8.45283,-29.73098 -0.0409,0.19993 -1.58907,9.04233 -3.3883,19.66858 l -3.26528,19.38665 2.24519,7.45325 c 1.22513,4.15722 2.16319,7.57628 2.12218,7.6583 -0.082,0.082 -2.2452,-0.41009 -4.81334,-1.10211 -14.49641,-3.74713 -29.18761,-3.74713 -43.35596,0.0409 -1.75311,0.4921 -3.26528,0.81505 -3.3473,0.69203 -0.082,-0.082 0.85604,-3.41907 2.08117,-7.41225 l 2.2042,-7.28922 -3.34731,-19.70958 c -1.87612,-10.83643 -3.42931,-19.50968 -3.55234,-19.22262 -0.0769,0.24093 -3.83427,13.76339 -8.36568,30.01292 l -8.24778,29.60795 3.8394,0.12296 c 2.85519,0.082 3.83427,0.24605 3.9983,0.69201 0.20504,0.52797 0.41008,0.52797 1.43016,0 0.65101,-0.36394 2.77831,-1.26101 4.73645,-2.03503 z m 0,0"
     id="path14" />
  <path
     style="fill:#ffffff;fill-opacity:1;fill-rule:nonzero;stroke:none;stroke-width:1.31226"
     d="m 268.36082,397.91795 c -0.0409,-90.00798 0.0409,-112.81368 0.36908,-113.62873 0.77402,-1.99914 3.26528,-3.5831 5.6335,-3.5831 2.16319,0 4.24435,1.22 5.30545,3.091 l 0.93806,1.58907 v 124.8291 h 11.43105 v 10.18542 h -23.67714 z m 0,0"
     id="path16" />
  <path
     style="fill:#ffffff;fill-opacity:1;fill-rule:nonzero;stroke:none;stroke-width:1.31226"
     d="m 216.51615,357.26852 v -4.8851 h 11.02097 v -66.66916 l 0.94319,-1.75311 c 2.24519,-4.23409 7.63265,-4.35712 10.65188,-0.28192 0.85606,1.13798 0.85606,1.30201 0.97908,39.82925 l 0.082,38.65028 h -23.67714 z m 0,0"
     id="path18" />
  <path
     style="fill:#ffffff;fill-opacity:1;fill-rule:nonzero;stroke:none;stroke-width:1.31226"
     d="m 129.2096,73.496601 h 20.51437 v 8.442572 h -15.2038 v 8.72963 h 13.76852 v 8.155514 h -13.76852 v 17.746313 h -0.14353 0.14353 -0.28706 0.14353 -0.28706 0.14353 -0.28706 0.14353 -0.28706 0.14353 -0.28706 0.14353 -0.28705 0.14352 -0.28705 0.14353 -0.28706 0.14353 -0.28706 0.14353 -0.28706 0.14353 -0.28706 0.14353 -0.28706 0.14353 -0.28706 0.14353 -0.28705 0.14352 -0.28705 0.14353 -0.28706 0.14353 -0.28706 0.14353 -0.28706 0.14353 -0.28706 0.14353 -0.28706 0.14353 -0.28706 0.14353 -0.28706 0.14353 -0.28705 0.14352 -0.28705 0.14353 -0.28706 0.14353 -0.28706 0.14353 -0.28706 0.14353 -0.28706 0.14353 -0.28706 0.14353 -0.28706 0.14353 -0.28706 0.14353 -0.28705 0.14352 -0.28705 0.14353 -0.28706 0.14353 -0.28706 0.14353 -0.28706 0.14353 -0.28706 0.14353 -0.28706 0.14353 -0.28706 0.14353 -0.28706 0.14353 -0.28705 0.14352 -0.28705 0.14353 -0.28706 0.14353 -0.28706 0.14353 -0.28706 0.14353 -0.28706 0.14353 -0.28706 0.14353 -0.28706 0.14353 -0.14353 V 73.496601 Z m 0,0"
     id="path20" />
  <path
     style="fill:#ffffff;fill-opacity:1;fill-rule:nonzero;stroke:none;stroke-width:1.31226"
     d="m 156.75176,73.209543 c 2.43999,0 3.87016,1.286634 4.44427,4.008556 0,2.14268 -0.57411,3.859901 -1.71722,5.008132 -2.58352,1.286634 -4.44939,0.56899 -5.59763,-2.434865 -0.57411,-3.43444 0.28706,-5.582247 2.87058,-6.581823 z m -1.14823,12.594658 h 5.16191 v 30.766429 h -6.5972 V 85.804201 Z m 0,0"
     id="path22" />
  <path
     style="fill:#ffffff;fill-opacity:1;fill-rule:nonzero;stroke:none;stroke-width:1.31226"
     d="m 175.83085,85.086555 c 7.17131,-0.143527 11.32852,4.295614 12.33323,13.307177 l 0.28705,1.435288 v 0.85605 c 0,1.28663 0.14353,2.43486 0,3.29091 l -0.28705,-0.14353 h -15.6344 c 0.28706,3.29091 1.57882,5.15166 3.87528,5.8693 3.00898,0.57412 5.44897,-0.43058 7.31485,-2.86032 l 0.71764,0.99957 c 0.28706,0.28706 0.42546,0.57412 0.56899,0.86118 l 0.14353,0.1384 0.14353,0.14353 c 0.28706,0.28706 0.57411,0.57412 0.71764,0.86117 l 0.14353,0.28706 c 0.14353,0.14353 0.14353,0.14353 0.14353,0.28706 h 0.28706 l 0.14353,0.28193 v 0.14353 l 0.28706,0.14353 v 0.28706 c 0.28705,0.28705 0.57411,0.57411 0.71764,0.71764 -2.72705,4.57754 -6.5972,6.29477 -11.47206,5.15166 -5.88468,-1.29176 -9.32425,-6.01283 -10.04189,-13.88129 -0.57412,-10.02139 2.57839,-16.172627 9.61131,-18.176905 z m 1.57369,6.868882 c -2.72192,0.574116 -4.30074,2.434864 -4.87486,5.582247 h 9.61131 c -0.57412,-3.434441 -2.15293,-5.295189 -4.73645,-5.582247 z m 0,0"
     id="path24" />
  <path
     style="fill:#ffffff;fill-opacity:1;fill-rule:nonzero;stroke:none;stroke-width:1.31226"
     d="m 202.36318,73.496601 c 0.14353,0.143528 0.28706,0.287057 0.28706,0.568989 v 11.451553 h 6.02821 v 7.01241 h -6.02821 V 107.841 l 0.14353,0.71765 c 1.14823,1.43016 2.87058,1.57369 5.31056,0.42546 l 0.14353,0.43059 0.43059,1.86075 0.14353,0.28705 v 0.99958 l 0.28706,0.71764 v 0.28706 c 0.14353,0.56899 0.28706,0.99958 0.28706,1.28663 l 0.28705,1.14311 c -3.73175,1.43529 -7.17644,1.71722 -10.47248,0.86117 -1.0047,-0.57411 -1.72234,-1.43016 -2.29646,-2.29133 -0.43059,-0.85605 -0.71764,-1.71722 -1.0047,-2.42974 v -0.71765 c 0,-0.43058 0,-0.85604 0,-1.1431 V 92.529553 h -3.87015 v -7.01241 h 3.87015 V 75.92634 l 0.28706,-0.143529 0.28705,-0.138403 0.71765,-0.143529 c 0.28706,-0.287058 0.71764,-0.287058 0.86117,-0.430587 l 1.14823,-0.430586 0.43059,-0.143529 0.86117,-0.430587 c 0.86118,-0.138403 1.43016,-0.425461 1.86075,-0.568989 z m 0,0"
     id="path26" />
  <path
     style="fill:#ffffff;fill-opacity:1;fill-rule:nonzero;stroke:none;stroke-width:1.31226"
     d="m 221.5858,84.799497 c 4.44939,-0.287057 8.17602,1.148231 11.19011,4.582672 l -0.28705,0.425461 -0.28706,0.287058 c -0.14352,0.287058 -0.28706,0.574115 -0.43058,0.717644 l -0.43059,0.574116 -0.28706,0.281932 c -0.14352,0.430585 -0.43058,0.861173 -0.71764,1.0047 l -0.14353,0.287058 -0.14353,0.281932 -0.14353,0.143529 -1.14823,1.71722 c -3.87015,-4.146958 -6.88426,-4.577545 -8.89366,-1.286634 0,0.861173 0.14353,1.573692 0.43059,2.291336 h 0.28705 l 0.28706,0.287058 h 0.28706 l 0.28706,0.143529 0.71764,0.138403 1.29176,0.430587 c 3.29604,0 5.87955,1.286634 7.88896,3.721502 1.72234,3.29091 2.0094,6.43829 1.14823,9.73433 -1.0047,2.86032 -2.58352,4.72107 -4.59292,5.57712 -6.5972,2.43486 -12.04617,1.0047 -16.49557,-4.43402 0.14353,-0.43058 0.43059,-0.86117 0.71765,-1.1431 l 0.43058,-0.14353 c 0.28706,-0.71765 0.71765,-1.14823 1.14823,-1.57882 l 0.28706,-0.42546 0.14353,-0.14353 0.14353,-0.28706 0.28706,-0.28705 h 0.14353 l 0.14352,-0.14353 c 0.43059,-0.71252 0.86118,-1.28664 1.29176,-1.57369 2.86546,3.72149 5.87956,5.00813 8.89367,3.86502 l 0.14353,-0.28705 c 0.28705,-0.28706 0.71764,-0.71765 0.86117,-1.28664 0.14353,-1.14823 -0.14353,-2.00428 -0.86117,-2.57839 h -0.28706 l -0.14353,-0.14353 h -0.28706 l -0.28706,-0.14353 -0.14352,-0.28193 c -0.86118,-0.14353 -1.57882,-0.28706 -2.15294,-0.57412 -5.16191,-0.28705 -8.17602,-3.29091 -8.75013,-8.873155 0,-6.581823 2.87058,-10.303322 8.46308,-10.877438 z m 0,0"
     id="path28" />
  <path
     style="fill:#ffffff;fill-opacity:1;fill-rule:nonzero;stroke:none;stroke-width:1.31226"
     d="m 245.53974,84.799497 c 4.44939,-0.287057 8.17602,1.148231 11.19012,4.582672 l -0.28706,0.425461 -0.28706,0.287058 c -0.14352,0.287058 -0.28705,0.574115 -0.57411,0.717644 l -0.28706,0.574116 -0.28706,0.281932 c -0.28705,0.430585 -0.57411,0.861173 -0.71763,1.0047 l -0.14354,0.287058 -0.14352,0.281932 -0.28706,0.143529 -1.14823,1.71722 c -3.72663,-4.146958 -6.74073,-4.577545 -8.89367,-1.286634 0,0.861173 0.14353,1.573692 0.43059,2.291336 h 0.43058 l 0.28706,0.287058 h 0.28706 l 0.14353,0.143529 0.71764,0.138403 1.43529,0.430587 c 3.30117,0 5.87956,1.286634 7.88896,3.721502 1.72235,3.29091 2.00941,6.43829 1.00471,9.73433 -0.86117,2.86032 -2.44,4.72107 -4.4494,5.57712 -6.5972,2.43486 -12.1897,1.0047 -16.6391,-4.43402 0.28706,-0.43058 0.57412,-0.86117 0.86117,-1.1431 l 0.28706,-0.14353 c 0.43059,-0.71765 0.86117,-1.14823 1.29177,-1.57882 l 0.28706,-0.42546 0.14352,-0.14353 0.28706,-0.57411 h 0.28705 l 0.14354,-0.14353 c 0.43058,-0.71252 0.86117,-1.28664 1.29175,-1.57369 2.87058,3.72149 5.87956,5.00813 8.89367,3.86502 v -0.28705 c 0.43058,-0.28706 0.71764,-0.71765 1.0047,-1.28664 0,-1.14823 -0.28706,-2.00428 -0.86117,-2.57839 h -0.28706 l -0.14352,-0.14353 h -0.28706 l -0.28706,-0.14353 -0.14354,-0.28193 c -0.86117,-0.14353 -1.57881,-0.28706 -2.15292,-0.57412 -5.30545,-0.28705 -8.17602,-3.29091 -8.75014,-8.873155 0,-6.581823 2.87058,-10.303322 8.46308,-10.877438 z m 0,0"
     id="path30" />
  <path
     style="fill:#ffffff;fill-opacity:1;fill-rule:nonzero;stroke:none;stroke-width:1.31226"
     d="m 270.35485,73.496601 c 0.14353,0.143528 0.14353,0.287057 0.14353,0.568989 v 11.451553 h 6.16662 v 7.01241 h -6.16662 V 107.841 l 0.28706,0.71765 c 1.14823,1.43016 2.87058,1.57369 5.31056,0.42546 l 0.14354,0.43059 0.42546,1.86075 v 0.28705 l 0.14352,0.99958 0.28706,0.71764 v 0.28706 c 0.14353,0.56899 0.14353,0.99958 0.28706,1.28663 l 0.28705,1.14311 c -3.72662,1.43529 -7.17131,1.71722 -10.46735,0.86117 -1.00471,-0.57411 -1.72234,-1.43016 -2.44,-2.29133 -0.43058,-0.85605 -0.71763,-1.71722 -0.86117,-2.42974 v -0.71765 c 0,-0.43058 -0.14352,-0.85604 0,-1.1431 V 92.529553 h -3.87527 v -7.01241 h 3.87527 V 75.92634 l 0.28706,-0.143529 0.14353,-0.138403 0.86118,-0.143529 c 0.28706,-0.287058 0.57411,-0.287058 0.86117,-0.430587 l 1.14823,-0.430586 0.43058,-0.143529 0.85606,-0.430587 c 0.71763,-0.138403 1.43529,-0.425461 1.86587,-0.568989 z m 0,0"
     id="path32" />
  <path
     style="fill:#ffffff;fill-opacity:1;fill-rule:nonzero;stroke:none;stroke-width:1.31226"
     d="m 294.16526,85.230085 h 2.0094 v 8.155514 c -3.43956,-0.568989 -5.87956,0.861173 -7.31485,4.152085 v 0.287058 c -0.28706,0.856047 -0.43058,1.71722 -0.43058,2.573268 v 16.0291 h -6.59719 V 85.804201 h 6.59719 v 3.003853 c 1.57881,-2.004278 3.30116,-3.290911 5.30545,-3.577969 z m 0,0"
     id="path34" />
  <path
     style="fill:#ffffff;fill-opacity:1;fill-rule:nonzero;stroke:none;stroke-width:1.31226"
     d="m 310.23024,84.51244 c 4.01881,-0.42546 7.31998,0.861173 10.04189,3.721498 v 0.287058 c 0.28705,0.430587 0.43059,0.717644 0.57411,1.143105 0.28706,0.574116 0.57412,1.148231 0.57412,1.578818 v 0.425461 c 0.28706,0.717643 0.28706,1.435288 0.28706,1.860748 v 11.020962 c 0,1.86075 0,3.43444 0.28705,4.72108 0.71765,0.86117 1.43529,1.57369 2.44,1.71722 l -0.14354,0.43058 -0.28705,0.57412 -0.14353,0.42546 -0.14353,0.28706 v 0.28706 l -0.14352,0.43058 -0.4306,1.14311 -0.28705,0.57411 v 0.43059 l -0.14353,0.14353 -0.57411,1.71722 c -2.72706,0 -4.58779,-1.0047 -5.87956,-3.15251 -2.58352,3.15251 -5.74115,4.00856 -9.46777,2.43486 -3.4447,-1.28663 -5.44898,-3.86502 -6.0231,-8.01198 0.14354,-6.15636 2.29135,-9.590806 6.74073,-10.59038 0.28706,-0.143529 0.4306,-0.287058 0.71766,-0.430587 h 0.28705 c 0.14353,0 0.14353,0 0.28706,0 l 0.28706,-0.143529 1.57369,-0.287058 0.71764,-0.143528 0.28706,-0.143529 1.43529,-0.143529 c 0.86117,-0.143529 1.43528,-0.143529 2.0094,-0.143529 0.14353,-4.146958 -1.57881,-5.577121 -5.44897,-4.146958 h -0.28705 l -0.71765,0.143527 -0.86118,0.430588 -0.86117,0.42546 c -0.43058,0.287057 -0.86117,0.574115 -1.29175,0.717644 -0.4306,0.574115 -1.00471,0.856047 -1.43529,0.999576 l -0.57412,-1.430163 -0.28706,-0.143529 v -0.287057 l -0.28705,-0.281931 V 92.81661 c -0.4306,-0.574115 -0.71765,-1.14823 -0.86118,-1.573691 -0.14353,-0.287058 -0.28705,-0.574116 -0.43059,-0.861173 -0.28706,-0.574116 -0.56898,-0.999577 -0.71252,-1.573692 h 0.28706 l 0.1384,-0.287058 0.28706,-0.143529 c 0.28706,-0.287057 0.71765,-0.568989 1.00471,-0.712518 0.28706,-0.287058 0.43058,-0.430587 0.71764,-0.430587 l 0.14353,-0.143529 c 0.57412,-0.287057 1.0047,-0.574115 1.43529,-0.717644 l 0.14352,-0.281931 h 0.28706 c 0.28706,-0.14353 0.57412,-0.287057 0.71765,-0.430587 h 0.28706 c 0.43058,-0.287058 0.71764,-0.430586 1.14823,-0.430586 0.71764,-0.430588 1.57881,-0.574115 2.29133,-0.717645 z m 4.16234,18.46396 h -0.28706 c -0.28705,0.14353 -0.57411,0.28706 -0.86117,0.28706 h -0.28706 c 0,0.14353 -0.14353,0.14353 -0.14353,0.14353 l -0.43058,0.14353 h -0.57412 l -0.57411,0.1384 c -0.14354,0.14353 -0.14354,0.14353 -0.28706,0.14353 l -0.57412,0.28706 c -0.85605,0.14353 -1.43017,0.43058 -2.00428,0.71764 -0.57412,0.99958 -0.71764,2.14781 -0.43058,3.29091 1.43529,2.57327 3.58309,3.00386 6.31014,1.28664 l 0.71765,-1.28664 0.14352,-0.43058 v -4.72108 z m 0,0"
     id="path36" />
  <path
     style="fill:#ffffff;fill-opacity:1;fill-rule:nonzero;stroke:none;stroke-width:1.31226"
     d="m 336.7677,84.51244 c 4.01881,-0.42546 7.31485,0.861173 10.04189,3.721498 l 0.14354,0.287058 c 0.14352,0.430587 0.43058,0.717644 0.43058,1.143105 0.28705,0.574116 0.57411,1.148231 0.71765,1.578818 v 0.425461 c 0.14352,0.717643 0.14352,1.435288 0.14352,1.860748 v 11.020962 c 0,1.86075 0,3.43444 0.28706,4.72108 0.71765,0.86117 1.43529,1.57369 2.44,1.71722 l -0.14354,0.43058 -0.28706,0.57412 -0.14352,0.42546 v 0.28706 l -0.14354,0.28706 -0.14352,0.43058 -0.43059,1.14311 -0.28706,0.57411 v 0.43059 l -0.14352,0.14353 -0.57412,1.71722 c -2.58352,0 -4.59292,-1.0047 -5.87956,-3.15251 -2.58351,3.15251 -5.74115,4.00856 -9.46778,2.43486 -3.30116,-1.28663 -5.31056,-3.86502 -5.88468,-8.01198 0,-6.15636 2.15293,-9.590806 6.60233,-10.59038 0.28706,-0.143529 0.57411,-0.287058 0.71252,-0.430587 h 0.28706 c 0.14352,0 0.14352,0 0.28705,0 l 0.28706,-0.143529 1.57881,-0.287058 0.71765,-0.143528 0.28706,-0.143529 1.43529,-0.143529 c 0.86117,-0.143529 1.43529,-0.143529 2.0094,-0.143529 0.14353,-4.146958 -1.57882,-5.577121 -5.45409,-4.146958 h -0.28706 l -0.71765,0.143527 -0.56899,0.287058 -0.28705,0.14353 -0.86118,0.42546 c -0.43059,0.287057 -0.86117,0.574115 -1.29176,0.717644 -0.43058,0.574115 -0.86118,0.856047 -1.43529,0.999576 l -0.57412,-1.430163 -0.28705,-0.143529 v -0.287057 l -0.14353,-0.281931 -0.14353,-0.287058 c -0.43058,-0.574115 -0.57412,-1.14823 -0.71764,-1.573691 -0.28706,-0.287058 -0.43059,-0.574116 -0.57411,-0.861173 -0.28706,-0.574116 -0.57412,-0.999577 -0.57412,-1.573692 h 0.14352 l 0.4306,-0.430587 c 0.43058,-0.287057 0.71763,-0.568989 1.00469,-0.712518 0.28706,-0.287058 0.43059,-0.430587 0.71765,-0.430587 l 0.14352,-0.143529 c 0.57412,-0.287057 1.00471,-0.574115 1.43529,-0.717644 l 0.14354,-0.281931 h 0.28706 c 0.28705,-0.14353 0.57411,-0.287057 0.71763,-0.430587 h 0.28706 c 0.43059,-0.287058 0.71765,-0.430586 1.14823,-0.430586 0.85606,-0.430588 1.57369,-0.574115 2.29135,-0.717645 z m 4.16233,18.46396 h -0.14352 c -0.43059,0.14353 -0.71765,0.28706 -1.00471,0.28706 h -0.14352 c -0.14354,0.14353 -0.28706,0.14353 -0.28706,0.14353 l -0.43059,0.14353 h -0.57412 l -0.57411,0.1384 c 0,0.14353 -0.14352,0.14353 -0.28706,0.14353 l -0.57411,0.28706 c -0.86118,0.14353 -1.43529,0.43058 -1.86587,0.71764 -0.71252,0.99958 -0.85606,2.14781 -0.569,3.29091 1.43017,2.57327 3.5831,3.00386 6.31015,1.28664 l 0.71764,-1.28664 0.14353,-0.43058 v -4.72108 z m 0,0"
     id="path38" />
  <path
     style="fill:#ffffff;fill-opacity:1;fill-rule:nonzero;stroke:none;stroke-width:1.31226"
     d="m 363.87927,73.496601 c 0.14354,0.143528 0.28706,0.287057 0.28706,0.568989 v 11.451553 h 6.02309 v 7.01241 h -6.02309 V 107.841 l 0.14353,0.71765 c 1.14823,1.43016 2.87058,1.57369 5.30545,0.42546 l 0.14352,0.43059 0.43059,1.86075 0.14352,0.28705 v 0.99958 l 0.28706,0.71764 v 0.28706 c 0.14354,0.56899 0.28706,0.99958 0.28706,1.28663 l 0.28706,1.14311 c -3.72662,1.43529 -7.17131,1.71722 -10.47248,0.86117 -0.99958,-0.57411 -1.71722,-1.43016 -2.29134,-2.29133 -0.43059,-0.85605 -0.71765,-1.71722 -1.0047,-2.42974 v -0.71765 c 0,-0.43058 0,-0.85604 0,-1.1431 V 92.529553 h -3.87528 v -7.01241 h 3.87528 V 75.92634 l 0.28705,-0.143529 0.28706,-0.138403 0.71765,-0.143529 c 0.28706,-0.287058 0.57412,-0.287058 0.86118,-0.430587 l 1.1431,-0.430586 0.43059,-0.143529 0.86117,-0.430587 c 0.86117,-0.138403 1.43529,-0.425461 1.86587,-0.568989 z m 0,0"
     id="path40" />
</svg>
