<?xml version="1.0" encoding="UTF-8" standalone="no"?>
<svg
   xmlns:dc="http://purl.org/dc/elements/1.1/"
   xmlns:cc="http://creativecommons.org/ns#"
   xmlns:rdf="http://www.w3.org/1999/02/22-rdf-syntax-ns#"
   xmlns:svg="http://www.w3.org/2000/svg"
   xmlns="http://www.w3.org/2000/svg"
   xmlns:sodipodi="http://sodipodi.sourceforge.net/DTD/sodipodi-0.dtd"
   xmlns:inkscape="http://www.inkscape.org/namespaces/inkscape"
   width="600"
   height="1050"
   viewBox="0 0 158.74999 277.81251"
   version="1.1"
   id="svg8"
   inkscape:version="1.0.1 (3bc2e813f5, 2020-09-07)"
   sodipodi:docname="Zeichen_244_1024-10.svg">
  <defs
     id="defs2" />
  <sodipodi:namedview
     id="base"
     pagecolor="#ffffff"
     bordercolor="#666666"
     borderopacity="1.0"
     inkscape:pageopacity="0.0"
     inkscape:pageshadow="2"
     inkscape:zoom="0.49497475"
     inkscape:cx="25.435944"
     inkscape:cy="633.76088"
     inkscape:document-units="mm"
     inkscape:current-layer="layer1"
     inkscape:document-rotation="0"
     showgrid="false"
     units="px"
     inkscape:window-width="1759"
     inkscape:window-height="997"
     inkscape:window-x="2295"
     inkscape:window-y="176"
     inkscape:window-maximized="0" />
  <metadata
     id="metadata5">
    <rdf:RDF>
      <cc:Work
         rdf:about="">
        <dc:format>image/svg+xml</dc:format>
        <dc:type
           rdf:resource="http://purl.org/dc/dcmitype/StillImage" />
        <dc:title></dc:title>
      </cc:Work>
    </rdf:RDF>
  </metadata>
  <g
     inkscape:label="Laag 1"
     inkscape:groupmode="layer"
     id="layer1">
    <g
       transform="matrix(0.33072917,0,0,-0.33072917,7.18851e-7,158.75)"
       id="g13058">
      <g
         id="g13060">
        <path
           id="path13062"
           style="fill:#ffffff;fill-opacity:1;fill-rule:nonzero;stroke:none"
           d="M 30.445,479.762 C 0.172,479.762 0.238,449.621 0.238,449.621 V 30.379 c 0,0 -0.066,-30.137 30.207,-30.137 h 419.11 c 30.273,0 30.203,30.137 30.203,30.137 v 419.242 c 0,0 0.07,30.141 -30.203,30.141 z" />
        <path
           id="path13064"
           style="fill:#000000;fill-opacity:1;fill-rule:nonzero;stroke:none"
           d="M 29.809,471.852 C 8.148,471.887 8.23,450.262 8.23,450.262 V 29.738 c 0,0 -0.082,-21.625 21.579,-21.586 h 420.386 c 21.66,-0.039 21.575,21.586 21.575,21.586 v 420.524 c 0,0 0.085,21.625 -21.575,21.59 z m 0,-11.989 h 420.386 c 0,0 9.563,-0.383 9.586,-9.601 V 29.738 c -0.023,-9.218 -9.586,-9.597 -9.586,-9.597 H 29.809 c 0,0 -9.567,0.379 -9.59,9.597 v 420.524 c 0.023,9.218 9.59,9.601 9.59,9.601 z" />
        <path
           id="path13066"
           style="fill:#000000;fill-opacity:1;fill-rule:nonzero;stroke:none"
           d="M 30.445,480 C 15.23,480 7.57,472.391 3.777,464.797 -0.02,457.203 0,449.617 0,449.617 V 30.379 c 0,0 -0.02,-7.582 3.777,-15.176 C 7.57,7.613 15.23,0 30.445,0 h 419.11 c 15.215,0 22.875,7.613 26.668,15.203 3.797,7.594 3.777,15.18 3.777,15.18 v 419.234 c 0,0.004 0.02,7.586 -3.777,15.18 C 472.43,472.387 464.77,480 449.555,480 Z m 0,-0.238 h 419.11 c 30.273,0 30.203,-30.141 30.203,-30.141 V 30.379 c 0,0 0.07,-30.137 -30.203,-30.137 H 30.445 C 0.172,0.242 0.238,30.379 0.238,30.379 v 419.242 c 0,0 -0.066,30.141 30.207,30.141 z" />
        <path
           id="path13068"
           style="fill:#000000;fill-opacity:1;fill-rule:evenodd;stroke:none"
           d="M 41.504,48.914 V 93.629 H 70.27 V 87.215 H 48.316 V 74.074 h 18.75 V 68.066 H 48.316 V 48.914 Z m 56.734,0 h -6.41 v 3.285 l -0.164,-0.32 -0.476,-0.645 -0.481,-0.558 -0.562,-0.481 -0.641,-0.398 -0.723,-0.406 -0.64,-0.239 -0.801,-0.16 -0.723,-0.078 h -4.969 l -1.199,0.16 -1.199,0.239 -1.129,0.484 -1.035,0.558 -0.965,0.719 -0.883,0.805 -0.718,0.961 -0.641,1.043 -0.559,1.039 -0.324,1.121 -0.238,1.203 -0.082,1.199 0.082,1.207 0.238,1.2 0.324,1.121 0.559,1.121 0.641,1.043 0.718,0.883 0.883,0.8 0.965,0.723 1.035,0.641 1.129,0.398 1.199,0.32 1.199,0.164 h 10.18 v 3.364 l -0.078,0.484 -0.086,0.399 -0.152,0.398 -0.164,0.324 -0.243,0.399 -0.238,0.32 -0.324,0.242 -0.316,0.238 -0.399,0.243 -0.406,0.16 -0.399,0.078 -0.16,0.078 -0.879,0.164 -1.683,0.082 h -1.688 l -1.761,-0.082 -0.797,-0.164 -0.246,-0.078 -0.399,-0.078 -0.398,-0.16 -0.324,-0.243 -0.399,-0.238 -0.238,-0.324 -0.324,-0.317 -0.239,-0.32 -0.082,-0.164 -5.047,4.012 0.321,0.398 0.8,0.883 0.805,0.801 0.961,0.637 0.961,0.562 1.043,0.481 1.121,0.324 0.563,0.156 1.117,0.16 2.246,0.16 h 2.242 l 2.324,-0.16 1.121,-0.16 0.559,-0.156 1.121,-0.324 1.047,-0.481 1.043,-0.562 0.875,-0.723 0.883,-0.797 0.722,-0.883 0.645,-0.961 0.562,-1.039 0.399,-1.043 0.238,-1.207 0.16,-1.121 z m -6.41,13.941 v -4.246 l -0.078,-0.48 -0.086,-0.481 -0.152,-0.402 -0.246,-0.48 -0.317,-0.403 -0.32,-0.32 -0.324,-0.316 -0.399,-0.247 -0.402,-0.238 -0.961,-0.32 -0.48,-0.078 h -5.692 l -0.48,0.078 -0.481,0.16 -0.476,0.16 -0.407,0.238 -0.8,0.645 -0.321,0.402 -0.238,0.399 -0.242,0.484 -0.16,0.477 -0.082,0.484 v 0.957 l 0.082,0.563 0.16,0.484 0.242,0.398 0.238,0.477 0.723,0.723 0.398,0.246 0.407,0.238 0.476,0.238 0.481,0.082 0.48,0.078 z m 15.945,-13.941 v 44.715 h 6.415 v -16.43 l 0.398,0.481 0.961,0.883 0.961,0.8 1.121,0.641 1.121,0.559 1.207,0.324 1.281,0.238 1.2,0.082 h 1.285 l 1.281,-0.238 1.203,-0.324 1.121,-0.481 1.121,-0.641 1.039,-0.796 0.883,-0.805 0.801,-0.961 0.723,-1.047 0.562,-1.199 0.481,-1.121 0.238,-1.281 0.164,-1.204 0.082,-0.64 V 48.914 h -6.414 v 19.949 l -0.16,0.805 -0.16,0.801 -0.321,0.722 -0.402,0.723 -0.481,0.637 -0.48,0.562 -0.641,0.481 -0.718,0.48 -0.723,0.321 -0.723,0.242 -0.801,0.156 -0.804,0.086 -0.797,-0.086 -0.801,-0.156 -0.723,-0.242 -0.722,-0.321 -0.719,-0.48 -0.641,-0.481 -0.484,-0.562 -0.48,-0.637 -0.403,-0.723 -0.316,-0.722 -0.16,-0.801 -0.16,-0.805 V 48.914 Z m 35.18,0 v 31.895 h 6.414 v -3.61 l 0.399,0.481 0.879,0.883 0.882,0.722 1.043,0.641 1.125,0.558 1.121,0.325 1.2,0.316 1.203,0.082 h 1.199 l 1.207,-0.16 1.199,-0.238 1.121,-0.403 1.121,-0.558 0.965,-0.645 0.481,-0.398 -4.489,-5.61 -0.32,0.317 -0.64,0.406 -0.645,0.398 -0.719,0.239 -0.801,0.16 -0.722,0.078 h -0.801 l -0.797,-0.078 -0.723,-0.16 -0.722,-0.239 -0.723,-0.398 -0.558,-0.406 -0.645,-0.563 -0.477,-0.558 -0.484,-0.641 -0.316,-0.641 -0.246,-0.718 -0.239,-0.805 -0.078,-0.723 V 48.914 Z m 26.367,0 v 31.895 h 6.41 v -3.61 l 0.403,0.481 0.883,0.883 0.875,0.722 1.043,0.641 1.125,0.558 1.121,0.325 1.203,0.316 1.199,0.082 h 1.199 l 1.207,-0.16 1.2,-0.238 1.121,-0.403 1.125,-0.558 0.961,-0.645 0.48,-0.398 -4.488,-5.61 -0.321,0.317 -0.64,0.406 -0.645,0.398 -0.715,0.239 -0.804,0.16 -0.723,0.078 h -0.801 l -0.797,-0.078 -0.722,-0.16 -0.723,-0.239 -0.723,-0.398 -0.558,-0.406 -0.641,-0.563 -0.48,-0.558 -0.485,-0.641 -0.316,-0.641 -0.242,-0.718 -0.242,-0.805 -0.079,-0.723 V 48.914 Z m 50.321,0 h -6.328 v 3.285 l -0.239,-0.32 -0.402,-0.645 -0.559,-0.558 -0.562,-0.481 -0.641,-0.398 -0.64,-0.406 -0.723,-0.239 -0.723,-0.16 -0.797,-0.078 h -4.972 l -1.203,0.16 -1.122,0.239 -1.121,0.484 -1.039,0.558 -0.961,0.719 -0.882,0.805 -0.801,0.961 -0.645,1.043 -0.48,1.039 -0.399,1.121 -0.242,1.203 -0.078,1.199 0.078,1.207 0.242,1.2 0.399,1.121 0.48,1.121 0.645,1.043 0.801,0.883 0.882,0.8 0.961,0.723 1.039,0.641 1.121,0.398 1.122,0.32 1.203,0.164 h 10.258 v 3.204 l -0.079,0.16 v 0.484 l -0.082,0.399 -0.156,0.398 -0.246,0.324 -0.16,0.399 -0.317,0.32 -0.644,0.48 -0.32,0.243 -0.399,0.16 -0.402,0.078 -0.238,0.078 -0.801,0.164 -1.766,0.082 h -1.683 l -1.68,-0.082 -0.883,-0.164 -0.16,-0.078 -0.402,-0.078 -0.399,-0.16 -0.402,-0.243 -0.321,-0.238 -0.32,-0.324 -0.238,-0.317 -0.242,-0.32 -0.082,-0.164 -5.047,4.012 0.32,0.398 0.723,0.883 0.879,0.801 0.882,0.637 1.043,0.562 1.039,0.481 1.043,0.324 0.563,0.156 1.121,0.16 2.324,0.16 h 2.246 l 2.243,-0.16 1.121,-0.16 0.558,-0.156 1.125,-0.324 1.043,-0.481 1.039,-0.562 0.961,-0.723 0.805,-0.797 0.801,-0.883 0.636,-0.961 0.485,-1.039 0.398,-1.043 0.242,-1.207 0.157,-1.121 z m -6.328,13.941 v -4.007 l -0.079,-0.239 v -0.48 l -0.16,-0.481 -0.16,-0.402 -0.242,-0.48 -0.238,-0.403 -0.321,-0.32 -0.398,-0.316 -0.406,-0.247 -0.399,-0.238 -0.48,-0.16 -0.399,-0.16 -0.484,-0.078 h -5.692 l -0.476,0.078 -0.563,0.16 -0.398,0.16 -0.484,0.238 -0.399,0.325 -0.32,0.32 -0.324,0.402 -0.317,0.399 -0.16,0.484 -0.16,0.477 -0.164,0.484 v 0.957 l 0.164,0.563 0.16,0.484 0.16,0.398 0.317,0.477 0.324,0.324 0.32,0.399 0.399,0.246 0.484,0.238 0.398,0.238 0.563,0.082 0.476,0.078 z m 40.628,-13.941 h -6.41 v 3.602 l -0.398,-0.477 -0.883,-0.883 -1.043,-0.801 -1.039,-0.644 -1.203,-0.559 -1.199,-0.324 -1.207,-0.238 -1.2,-0.078 h -1.281 l -1.207,0.238 -1.199,0.324 -1.203,0.477 -1.121,0.644 -1.922,1.602 -0.801,0.965 -0.723,1.039 -0.562,1.203 -0.402,1.121 -0.317,1.285 -0.16,1.199 v 12.5 l 0.16,1.204 0.317,1.281 0.402,1.121 0.562,1.199 0.723,1.047 0.801,0.961 0.961,0.805 0.961,0.796 1.121,0.641 1.203,0.481 1.199,0.324 1.207,0.238 h 1.281 l 1.2,-0.082 1.207,-0.238 1.199,-0.324 1.203,-0.559 1.039,-0.641 1.043,-0.8 0.883,-0.883 0.398,-0.481 v 16.43 h 6.41 z m -6.41,12.336 v -0.398 l -0.082,-0.801 -0.238,-0.801 -0.238,-0.719 -0.403,-0.722 -0.48,-0.645 -0.563,-0.559 -0.644,-0.48 -0.637,-0.48 -0.723,-0.325 -0.8,-0.238 -0.805,-0.16 -0.797,-0.078 -0.801,0.078 -0.644,0.16 -0.801,0.238 -0.723,0.325 -0.636,0.48 -0.645,0.48 -0.558,0.559 -0.481,0.645 -0.402,0.722 -0.242,0.719 -0.239,0.801 -0.082,0.801 v 8.011 l 0.082,0.805 0.239,0.801 0.242,0.722 0.402,0.723 0.481,0.637 0.558,0.562 0.645,0.481 0.636,0.48 0.723,0.321 0.801,0.242 0.644,0.156 0.801,0.086 0.797,-0.086 0.805,-0.156 0.8,-0.242 0.723,-0.321 0.637,-0.48 0.644,-0.481 0.563,-0.562 0.48,-0.637 0.403,-0.723 0.238,-0.722 0.238,-0.801 0.082,-0.805 z m 14.422,-7.289 0.805,-0.723 1.762,-1.441 1.925,-1.203 2.082,-0.961 2.082,-0.719 2.243,-0.484 2.246,-0.16 h 2.242 l 2.246,0.32 2.246,0.562 1.039,0.321 0.559,0.238 0.961,0.484 0.964,0.641 0.879,0.805 0.723,0.797 0.645,0.96 0.558,0.961 0.403,1.043 0.32,1.125 0.156,1.121 0.082,1.122 -0.16,1.121 -0.238,1.121 -0.325,1.043 -0.48,1.039 -0.641,0.961 -0.718,0.883 -0.801,0.804 -0.883,0.641 -0.961,0.637 -1.043,0.406 -1.125,0.316 -1.035,0.242 -0.645,0.082 -6.73,0.399 h -0.238 l -0.325,0.082 -0.398,0.078 -0.32,0.16 -0.325,0.238 -0.32,0.247 -0.238,0.238 -0.238,0.32 -0.243,0.32 -0.16,0.321 -0.082,0.32 -0.078,0.402 -0.082,0.399 0.082,0.324 v 0.399 l 0.078,0.398 0.16,0.324 0.239,0.32 0.164,0.317 0.32,0.246 0.238,0.238 0.321,0.239 0.324,0.16 0.398,0.16 0.16,0.078 0.723,0.086 1.524,0.238 h 1.519 l 1.524,-0.16 1.523,-0.32 1.441,-0.481 1.364,-0.722 1.285,-0.801 0.637,-0.481 4.011,5.047 -0.969,0.645 -1.843,1.199 -2.082,0.961 -2.082,0.805 -2.243,0.476 -2.242,0.242 -2.246,-0.082 -2.242,-0.238 -1.121,-0.238 -0.563,-0.16 -1.043,-0.403 -0.96,-0.48 -0.961,-0.641 -0.883,-0.722 -0.801,-0.883 -0.641,-0.883 -0.562,-1.039 -0.399,-1.043 -0.324,-1.043 -0.16,-1.121 v -1.199 l 0.082,-1.122 0.242,-1.042 0.321,-1.122 0.476,-1.046 0.645,-0.961 0.722,-0.875 0.801,-0.805 0.883,-0.641 0.957,-0.644 1.047,-0.399 1.121,-0.324 1.121,-0.238 0.559,-0.078 6.808,-0.399 h 0.164 l 0.321,-0.082 0.398,-0.078 0.324,-0.16 0.321,-0.246 0.316,-0.238 0.246,-0.239 0.477,-0.644 0.16,-0.317 0.078,-0.324 0.164,-0.797 v -0.324 l -0.082,-0.398 -0.082,-0.321 -0.156,-0.402 -0.161,-0.32 -0.242,-0.325 -0.242,-0.238 -0.32,-0.238 -0.317,-0.238 -0.32,-0.161 -0.164,-0.086 -0.719,-0.238 -1.523,-0.398 -1.52,-0.16 -1.523,-0.079 -1.527,0.157 -1.438,0.32 -1.527,0.484 -1.36,0.719 -1.281,0.801 -1.203,0.883 -0.559,0.562 z m 47.121,-5.047 h -4.406 l -0.883,0.078 -0.883,0.242 -0.8,0.317 -0.719,0.402 -0.723,0.481 -0.64,0.562 -0.641,0.645 -0.481,0.714 -0.402,0.805 -0.316,0.801 -0.164,0.801 -0.161,0.883 v 20.031 h -3.203 v 5.133 h 3.203 v 9.617 h 6.415 v -9.617 h 4.804 V 75.676 H 304.27 V 56.527 l 0.156,-0.484 0.16,-0.238 0.082,-0.16 0.164,-0.165 0.238,-0.16 0.16,-0.156 0.239,-0.082 0.238,-0.078 0.242,-0.082 0.242,-0.078 h 2.883 z m 8.817,0 v 31.895 h 6.328 v -3.61 l 0.402,0.481 0.883,0.883 0.961,0.722 1.043,0.641 1.039,0.558 1.203,0.325 1.121,0.316 1.199,0.082 h 1.285 l 1.204,-0.16 1.121,-0.238 1.121,-0.403 1.125,-0.558 1.043,-0.645 0.476,-0.398 -4.562,-5.61 -0.324,0.317 -0.645,0.406 -0.637,0.398 -0.722,0.239 -0.723,0.16 -0.797,0.078 h -0.801 l -0.722,-0.078 -0.805,-0.16 -0.723,-0.239 -0.636,-0.398 -0.641,-0.406 -0.562,-0.563 -0.563,-0.558 -0.402,-0.641 -0.399,-0.641 -0.238,-0.718 -0.16,-0.805 -0.164,-0.723 V 48.914 Z m 50.324,0 h -6.41 v 3.285 l -0.16,-0.32 -0.481,-0.645 -0.48,-0.558 -0.645,-0.481 -0.559,-0.398 -0.722,-0.406 -0.723,-0.239 -0.715,-0.16 -0.722,-0.078 h -4.969 l -1.207,0.16 -1.199,0.239 -1.121,0.484 -1.043,0.558 -0.961,0.719 -0.883,0.805 -0.801,0.961 -0.637,1.043 -0.484,1.039 -0.398,1.121 -0.165,1.203 -0.082,1.199 0.082,1.207 0.165,1.2 0.398,1.121 0.484,1.121 0.637,1.043 0.801,0.883 0.883,0.8 0.961,0.723 1.043,0.641 1.121,0.398 1.199,0.32 1.207,0.164 h 10.176 v 3.364 l -0.082,0.484 -0.078,0.399 -0.161,0.398 -0.16,0.324 -0.238,0.399 -0.242,0.32 -0.641,0.48 -0.402,0.243 -0.399,0.16 -0.402,0.078 -0.16,0.078 -0.883,0.164 -1.684,0.082 h -1.761 l -1.684,-0.082 -0.801,-0.164 -0.238,-0.078 -0.398,-0.078 -0.407,-0.16 -0.316,-0.243 -0.402,-0.238 -0.243,-0.324 -0.316,-0.317 -0.246,-0.32 -0.078,-0.164 -5.047,4.012 0.316,0.398 0.723,0.883 0.883,0.801 0.961,0.637 0.961,0.562 1.043,0.481 1.121,0.324 0.562,0.156 1.121,0.16 2.243,0.16 h 2.246 l 2.324,-0.16 1.121,-0.16 0.562,-0.156 1.122,-0.324 1.039,-0.481 0.964,-0.562 0.961,-0.723 0.883,-0.797 0.723,-0.883 0.637,-0.961 0.484,-1.039 0.398,-1.043 0.317,-1.207 0.086,-1.121 0.078,-0.558 z m -6.41,13.941 v -4.246 l -0.082,-0.48 -0.078,-0.481 -0.161,-0.402 -0.238,-0.48 -0.324,-0.403 -0.637,-0.636 -0.406,-0.247 -0.399,-0.238 -0.96,-0.32 -0.485,-0.078 h -5.687 l -0.481,0.078 -0.476,0.16 -0.485,0.16 -0.398,0.238 -0.485,0.325 -0.316,0.32 -0.324,0.402 -0.242,0.399 -0.239,0.484 -0.16,0.477 -0.078,0.484 -0.086,0.477 0.086,0.48 0.078,0.563 0.16,0.484 0.239,0.398 0.242,0.477 0.324,0.324 0.316,0.399 0.485,0.246 0.398,0.238 0.485,0.238 0.476,0.082 0.481,0.078 z m 15.949,-13.941 v 35.098 l 0.078,0.562 0.082,1.121 0.238,1.043 0.399,1.039 0.484,0.965 0.559,0.879 0.64,0.883 0.801,0.719 0.883,0.722 0.883,0.563 1.043,0.398 0.476,0.239 1.047,0.324 2.004,0.398 2.16,0.238 h 2.082 l 2.086,-0.238 2.082,-0.398 1.043,-0.324 0.481,-0.239 0.961,-0.398 0.961,-0.563 0.882,-0.722 0.719,-0.719 0.723,-0.883 0.562,-0.879 0.481,-0.965 0.402,-1.039 0.238,-1.043 0.082,-1.121 v -2.086 l -0.082,-0.797 -0.16,-0.722 -0.242,-0.723 -0.32,-0.644 -0.399,-0.637 -0.484,-0.645 -0.559,-0.558 -0.562,-0.403 -0.641,-0.476 -0.64,-0.324 -0.403,-0.082 0.403,-0.157 0.64,-0.32 0.641,-0.402 0.562,-0.481 0.559,-0.562 0.484,-0.559 0.399,-0.641 0.32,-0.722 0.242,-0.719 0.16,-0.723 0.082,-0.722 V 57.164 l -0.082,-1.039 -0.64,-2.086 -0.481,-0.879 -0.64,-0.883 -0.723,-0.8 -0.805,-0.719 -0.875,-0.645 -0.882,-0.48 -2.086,-0.641 -1.039,-0.078 h -4.489 v 5.93 h 3.364 l 0.402,0.078 0.398,0.082 0.325,0.16 0.32,0.156 0.316,0.246 0.321,0.239 0.246,0.32 0.238,0.316 0.32,0.645 0.156,0.801 V 70.23 l -0.156,0.801 -0.32,0.641 -0.238,0.316 -0.246,0.325 -0.321,0.238 -0.316,0.242 -0.32,0.156 -0.325,0.164 -0.398,0.082 -0.402,0.078 h -4.165 v 5.93 h 4.004 l 0.161,0.082 h 0.402 l 0.398,0.078 0.645,0.321 0.316,0.242 0.321,0.238 0.246,0.32 0.238,0.325 0.16,0.316 0.16,0.32 0.156,0.805 v 2 l -0.156,0.645 -0.16,0.398 -0.082,0.324 -0.238,0.317 -0.242,0.242 -0.243,0.238 -0.316,0.242 -0.242,0.16 -0.403,0.161 -0.16,0.078 -0.636,0.242 -1.446,0.242 -1.359,0.16 h -1.445 l -1.446,-0.16 -1.359,-0.242 -0.723,-0.242 -0.16,-0.078 -0.32,-0.161 -0.317,-0.16 -0.246,-0.242 -0.316,-0.238 -0.16,-0.242 -0.242,-0.317 -0.157,-0.324 -0.086,-0.398 -0.078,-0.321 -0.082,-0.324 V 48.914 Z m 60.738,13.543 H 418.543 V 61.25 l 0.078,-0.797 0.238,-0.801 0.243,-0.722 0.402,-0.723 0.398,-0.641 0.563,-0.64 0.558,-0.563 0.723,-0.48 0.641,-0.403 0.398,-0.16 0.485,-0.156 0.96,-0.242 1.043,-0.16 0.961,-0.078 1.043,0.078 0.961,0.242 0.961,0.238 0.961,0.403 0.883,0.558 0.797,0.563 1.043,1.043 4.89,-4.168 -0.64,-0.641 -1.203,-1.121 -1.442,-1.043 -1.441,-0.883 -1.606,-0.64 -1.683,-0.563 -1.68,-0.32 -1.762,-0.078 -1.687,0.078 -1.762,0.246 -1.601,0.476 -0.879,0.239 -0.723,0.32 -1.367,0.801 -1.281,0.883 -1.121,1.043 -1.04,1.203 -0.882,1.281 -0.723,1.441 -0.559,1.446 -0.324,1.519 -0.238,1.524 v 8.011 l 0.238,1.684 0.403,1.605 0.64,1.52 0.801,1.445 0.961,1.36 1.125,1.203 1.281,1.047 1.363,0.875 1.524,0.722 1.605,0.485 1.598,0.316 1.684,0.082 1.601,-0.082 1.606,-0.316 1.601,-0.485 1.52,-0.722 1.367,-0.875 1.281,-1.047 1.121,-1.203 0.961,-1.36 0.801,-1.445 0.644,-1.52 0.399,-1.605 0.238,-1.684 z m -19.949,5.609 v 0.399 l 0.078,0.883 0.238,0.8 0.321,0.801 0.402,0.723 0.481,0.719 0.64,0.644 0.645,0.477 0.722,0.484 0.715,0.399 0.805,0.242 0.883,0.156 0.879,0.086 0.8,-0.086 0.879,-0.156 0.805,-0.242 0.723,-0.399 0.718,-0.484 0.719,-0.477 0.563,-0.644 0.484,-0.719 0.398,-0.723 0.321,-0.801 0.238,-0.8 0.086,-0.883 v -0.399 z" />
        <path
           id="path13070"
           style="fill:#154889;fill-opacity:1;fill-rule:nonzero;stroke:none"
           d="m 389.996,276.973 c 0,-82.84 -67.156,-150 -150,-150 -82.844,0 -150,67.16 -150,150 0,82.84 67.156,150 150,150 82.844,0 150,-67.16 150,-150 z" />
        <path
           id="path13072"
           style="fill:#ffffff;fill-opacity:1;fill-rule:evenodd;stroke:none"
           d="m 221.566,350.617 h -16.187 l -2.082,-0.238 -2.086,-0.484 -2,-0.719 -1.926,-0.961 -1.762,-1.125 -1.683,-1.36 -1.442,-1.605 -1.281,-1.68 -1.047,-1.843 -0.875,-1.922 -0.324,-1.043 -13.461,-43.196 -2.805,0.485 -5.687,0.398 -5.691,-0.238 -5.61,-1.043 -5.531,-1.605 -5.207,-2.399 -4.891,-2.965 -4.488,-3.527 -4.004,-4.094 -3.445,-4.484 -2.887,-4.965 -2.246,-5.215 -1.598,-5.523 -0.882,-5.614 -0.243,-5.769 0.563,-5.688 1.199,-5.531 1.926,-5.367 2.562,-5.133 3.125,-4.723 3.77,-4.332 4.242,-3.843 4.648,-3.286 5.051,-2.644 5.371,-2.004 5.528,-1.359 5.687,-0.645 h 5.77 l 5.609,0.801 5.531,1.441 5.368,2.168 4.972,2.723 4.649,3.367 4.168,3.926 3.601,4.41 3.043,4.809 2.488,5.207 1.762,5.445 1.121,5.531 0.403,5.688 -0.243,5.691 -1.039,5.61 -1.687,5.449 -2.399,5.211 -2.964,4.886 -3.528,4.485 -4.168,4.008 -4.488,3.449 -4.969,2.883 -2.644,1.203 3.687,11.777 54.414,-60.422 0.321,-0.316 0.722,-0.645 0.797,-0.64 0.801,-0.481 0.883,-0.32 0.961,-0.32 0.961,-0.243 0.964,-0.078 h 19.793 l 0.641,-2.726 1.844,-5.367 2.48,-5.129 3.129,-4.809 3.602,-4.406 4.172,-3.848 4.648,-3.367 4.969,-2.723 5.285,-2.086 5.531,-1.441 5.692,-0.801 h 5.687 l 5.609,0.645 5.528,1.359 5.371,2.004 5.051,2.644 4.648,3.29 4.246,3.839 3.684,4.25 3.207,4.809 2.562,5.047 1.926,5.367 1.199,5.531 0.559,5.61 -0.16,5.773 -0.875,5.609 -1.606,5.446 -2.242,5.293 -2.805,4.886 -3.449,4.571 -4.004,4.086 -4.41,3.523 -4.887,3.043 -5.207,2.328 -5.371,1.68 -5.609,1.043 -5.77,0.32 -5.609,-0.398 -5.609,-1.047 -2.723,-0.797 -13.383,29.891 3.442,9.215 h 10.339 v 9.214 h -39.586 l -0.238,-0.082 -0.246,-0.078 -0.32,-0.16 -0.156,-0.16 -0.243,-0.16 -0.16,-0.239 -0.16,-0.246 -0.16,-0.238 -0.082,-0.238 -0.078,-0.246 v -0.875 l 0.078,-0.246 0.082,-0.239 0.32,-0.476 0.16,-0.246 0.243,-0.16 0.238,-0.157 0.238,-0.16 0.246,-0.082 h 0.156 l 19.473,-4.726 -3.441,-9.215 h -82.305 l 3.687,11.937 0.243,0.559 0.398,0.969 0.563,0.875 0.64,0.882 0.723,0.723 0.801,0.723 0.882,0.558 0.961,0.485 1.043,0.398 1.039,0.238 1.043,0.082 h 15.625 z m -30.449,-36.863 57.617,-64.027 24.039,64.027 z m -18.429,-28.207 -2.247,0.32 -4.488,0.238 -4.566,-0.316 -4.41,-0.883 -4.325,-1.441 -4.086,-1.922 -3.847,-2.406 -3.528,-2.887 -3.125,-3.285 -2.726,-3.606 -2.242,-4.007 -1.684,-4.164 -1.199,-4.411 -0.645,-4.484 -0.16,-4.488 0.481,-4.571 1.047,-4.324 1.519,-4.25 2.082,-4.008 2.484,-3.765 2.965,-3.442 3.446,-3.047 3.687,-2.566 4.004,-2.16 4.25,-1.606 4.406,-1.043 4.489,-0.562 4.57,0.086 4.484,0.558 4.41,1.2 4.246,1.605 3.926,2.164 3.688,2.723 3.367,3.047 2.879,3.445 2.488,3.848 2.004,4.008 1.523,4.242 0.883,4.41 0.399,4.57 -0.16,4.485 -0.723,4.488 -1.281,4.406 -1.762,4.164 -2.328,3.848 -2.723,3.613 -3.207,3.281 -3.523,2.801 -3.848,2.406 -2.082,0.965 -10.82,-34.941 -0.082,-0.238 -0.239,-0.563 -0.32,-0.48 -0.316,-0.481 -0.485,-0.398 -0.398,-0.321 -0.563,-0.324 -0.48,-0.16 -0.563,-0.16 -0.562,-0.078 h -1.199 l -0.559,0.16 -0.562,0.238 -0.485,0.238 -0.476,0.325 -0.407,0.398 -0.398,0.484 -0.32,0.481 -0.239,0.48 -0.324,1.121 v 1.122 l 0.082,0.644 0.082,0.238 z M 258.43,249.25 h 9.218 l 0.079,2.719 0.558,5.371 1.285,5.207 1.84,5.051 2.485,4.89 2.964,4.485 3.528,4.086 3.926,3.687 4.328,3.203 2.324,1.367 -9.535,21.395 z m 18.429,0 h 32.055 l -14.184,31.648 -1.761,-1.121 -3.367,-2.566 -2.965,-2.965 -2.727,-3.281 -2.32,-3.527 -1.844,-3.77 -1.441,-4.004 -0.961,-4.086 -0.485,-4.246 z m 1.121,-9.219 0.645,-2.082 1.684,-4.172 2.082,-3.925 2.644,-3.688 2.965,-3.285 3.445,-2.961 3.688,-2.484 4.086,-2.004 4.164,-1.524 4.41,-0.961 4.488,-0.484 4.485,0.086 4.41,0.637 4.324,1.203 4.172,1.683 3.922,2.16 3.609,2.649 3.285,3.125 2.887,3.367 2.402,3.766 2.004,4.086 1.442,4.164 0.965,4.332 0.398,4.484 -0.16,4.488 -0.723,4.489 -1.203,4.246 -1.762,4.168 -2.242,3.926 -2.644,3.527 -3.125,3.289 -3.45,2.801 -3.765,2.406 -4.086,1.922 -4.246,1.441 -4.41,0.883 -4.485,0.316 -4.488,-0.16 -4.406,-0.797 -2.168,-0.562 16.992,-38.063 0.078,-0.238 0.16,-0.562 0.16,-0.485 v -1.121 l -0.078,-0.48 -0.16,-0.563 -0.238,-0.476 -0.246,-0.485 -0.321,-0.398 -0.8,-0.801 -0.477,-0.242 -0.965,-0.481 -0.48,-0.082 -0.559,-0.078 z" />
      </g>
    </g>
    <g
       transform="matrix(0.33072917,0,0,-0.33072549,0,277.81217)"
       id="g6020">
      <g
         id="g6022">
        <path
           id="path6024"
           style="fill:#ffffff;fill-opacity:1;fill-rule:nonzero;stroke:none"
           d="m 31.996,359.761 c -17.504,0 -31.754,-14.239 -31.754,-31.754 V 31.999 c 0,-17.508 14.25,-31.758 31.754,-31.758 h 416.008 c 17.516,0 31.766,14.25 31.766,31.758 v 296.008 c 0,17.515 -14.25,31.754 -31.766,31.754" />
        <path
           id="path6026"
           style="fill:#000000;fill-opacity:1;fill-rule:nonzero;stroke:none"
           d="m 31.996,0.472 c -17.383,0 -31.523,14.14 -31.523,31.527 v 296.008 c 0,17.382 14.14,31.511 31.523,31.511 h 416.008 c 17.383,0 31.523,-14.129 31.523,-31.511 V 31.999 c 0,-17.387 -14.14,-31.527 -31.523,-31.527 z M 448.004,360.003 H 31.996 C 14.328,360.003 0,345.675 0,328.007 V 31.999 c 0,-17.672 14.328,-32 31.996,-32 h 416.008 c 17.668,0 31.996,14.328 31.996,32 v 296.008 c 0,17.668 -14.328,31.996 -31.996,31.996" />
        <path
           id="path6028"
           style="fill:#000000;fill-opacity:1;fill-rule:nonzero;stroke:none"
           d="m 31.996,7.995 c -13.25,0 -23.992,10.754 -23.992,24.004 v 296.008 c 0,13.257 10.742,24.004 23.992,24.004 h 416.008 c 13.25,0 24.004,-10.747 24.004,-24.004 V 31.999 c 0,-13.25 -10.754,-24.004 -24.004,-24.004" />
        <path
           id="path6030"
           style="fill:#ffffff;fill-opacity:1;fill-rule:nonzero;stroke:none"
           d="M 31.996,20.003 C 25.379,20.003 20,25.366 20,31.999 v 296.008 c 0,6.629 5.379,11.996 11.996,11.996 h 416.008 c 6.629,0 12.004,-5.367 12.004,-11.996 V 31.999 c 0,-6.633 -5.375,-11.996 -12.004,-11.996" />
        <path
           id="path6032"
           style="fill:#000000;fill-opacity:1;fill-rule:nonzero;stroke:none"
           d="m 307.199,116.128 h -9.597 v 9.597 h 9.597 z m 0,-57.61 h -9.597 v 48.008 h 9.597 z m -52.801,28.801 h 20.411 c 0,5.629 -4.567,10.192 -10.207,10.192 -5.641,0 -10.204,-4.563 -10.204,-10.192 z m 30.008,-8.402 h -30.008 v -1.199 c 0,-4.168 2.551,-7.918 6.422,-9.465 5.332,-2.133 11.438,-0.633 15.176,3.726 l 7.289,-6.269 c -6.422,-7.465 -16.89,-10.028 -26.039,-6.363 -7.508,3 -12.445,10.277 -12.445,18.371 v 9.601 c 0,10.938 8.871,19.801 19.801,19.801 10.929,0 19.804,-8.863 19.804,-19.801 z M 207.602,58.518 v 48.008 h 9.597 v -5.418 c 5.629,6.957 15.824,8.047 22.785,2.418 H 240 l -6.816,-8.422 c -3.969,3.516 -10.028,3.164 -13.559,-0.785 -1.559,-1.769 -2.43,-4.035 -2.43,-6.398 V 58.53 h -9.597 z m -29.997,0 v 40.204 h -4.804 v 7.804 h 4.804 v 7.203 c 0,6.621 5.375,11.996 11.997,11.996 h 7.203 v -9.003 h -6.598 c -1.66,0 -3.004,-1.344 -3.004,-2.993 v -7.203 h 9.602 v -7.804 h -9.602 V 58.518" />
        <path
           id="path6034"
           style="fill:#000000;fill-opacity:1;fill-rule:nonzero;stroke:none"
           d="m 215.176,288.585 c -1.836,0 -3.594,-0.727 -4.891,-2.024 L 163.848,240.128 65.789,223.776 c -3.332,-0.551 -5.797,-3.441 -5.797,-6.828 v -32.207 c 0,-3.824 3.113,-6.926 6.93,-6.926 h 17.305 c 0,19.121 15.503,34.614 34.625,34.614 19.113,0 34.617,-15.493 34.617,-34.614 h 176.539 c 0,19.121 15.492,34.614 34.613,34.614 19.109,0 34.613,-15.493 34.613,-34.614 h 13.844 c 3.828,0 6.93,3.102 6.93,6.926 v 45.129 c 0,2.109 -0.957,4.098 -2.594,5.406 l -64.746,51.793 c -1.23,0.988 -2.75,1.516 -4.32,1.516 z m 0,-13.844 h 59.445 v -41.543 h -95.488 c -1.914,0 -3.465,1.551 -3.465,3.465 0,0.914 0.363,1.805 1.012,2.453 l 33.605,33.59 c 1.297,1.308 3.055,2.035 4.891,2.035 z m 69.824,0 h 49.062 c 1.836,0 3.598,-0.723 4.895,-2.035 l 27.688,-27.688 c 2.703,-2.703 2.703,-7.089 0,-9.785 -1.297,-1.308 -3.059,-2.035 -4.895,-2.035 H 285 Z m -166.148,-69.23 c -15.293,0 -27.696,-12.403 -27.696,-27.696 0,-15.297 12.403,-27.687 27.696,-27.687 15.296,0 27.687,12.39 27.687,27.687 0,15.293 -12.391,27.696 -27.687,27.696 z m 245.769,0 c -15.297,0 -27.687,-12.403 -27.687,-27.696 0,-15.297 12.39,-27.687 27.687,-27.687 15.293,0 27.699,12.39 27.699,27.687 0,15.293 -12.406,27.696 -27.699,27.696 z" />
      </g>
    </g>
  </g>
</svg>
