<?xml version="1.0" encoding="UTF-8" standalone="no"?>
<svg
   xmlns:dc="http://purl.org/dc/elements/1.1/"
   xmlns:cc="http://creativecommons.org/ns#"
   xmlns:rdf="http://www.w3.org/1999/02/22-rdf-syntax-ns#"
   xmlns:svg="http://www.w3.org/2000/svg"
   xmlns="http://www.w3.org/2000/svg"
   viewBox="0 0 601.63623 330.57626"
   height="330.57626"
   width="601.63623"
   xml:space="preserve"
   version="1.1"
   id="svg5353"><metadata
     id="metadata5359"><rdf:RDF><cc:Work
         rdf:about=""><dc:format>image/svg+xml</dc:format><dc:type
           rdf:resource="http://purl.org/dc/dcmitype/StillImage" /><dc:title></dc:title></cc:Work></rdf:RDF></metadata><defs
     id="defs5357" /><g
     transform="matrix(1.25,0,0,-1.25,0,330.57625)"
     id="g5361"><g
       id="g5363"><path
         id="path5365"
         style="fill:#ffffff;fill-opacity:1;fill-rule:nonzero;stroke:none"
         d="m 32.055,264.063 c -17.457,0 -31.657,-14.161 -31.657,-31.555 l 0,-200.809 c 0,-17.39 14.2,-31.535 31.657,-31.535 l 417.207,0 c 17.457,0 31.648,14.145 31.648,31.535 l 0,200.809 c 0,17.394 -14.191,31.555 -31.648,31.555 l -417.207,0 z" /><path
         id="path5367"
         style="fill:#000000;fill-opacity:1;fill-rule:nonzero;stroke:none"
         d="m 32.043,19.668 417.207,0 c 6.605,0 11.961,5.336 11.961,11.918 l 0,201.039 c 0,6.582 -5.356,11.918 -11.961,11.918 l -417.207,0 c -6.613,0 -11.965,-5.336 -11.965,-11.918 l 0,-201.039 c 0,-6.582 5.352,-11.918 11.965,-11.918 z M 32.609,8.316 c -13.214,0 -23.918,10.668 -23.918,23.84 l 0,199.895 c 0,13.168 10.704,23.836 23.918,23.836 l 416.184,0 c 13.215,0 23.922,-10.668 23.922,-23.836 l 0,-199.895 c 0,-13.172 -10.707,-23.84 -23.922,-23.84" /><path
         id="path5369"
         style="fill:#000000;fill-opacity:1;fill-rule:nonzero;stroke:none"
         d="M 32.055,264.461 C 14.379,264.461 0,250.121 0,232.508 L 0,31.938 C 0,14.328 14.379,0 32.055,0 l 417.207,0 c 17.672,0 32.047,14.328 32.047,31.938 l 0,200.57 c 0,17.613 -14.371,31.953 -32.047,31.953 l -417.207,0 z m 0,-0.398 417.207,0 c 17.457,0 31.648,-14.161 31.648,-31.555 l 0,-200.57 c 0,-17.391 -14.191,-31.536 -31.648,-31.536 l -417.207,0 C 14.598,0.402 0.398,14.547 0.398,31.938 l 0,200.57 c 0,17.394 14.2,31.555 31.657,31.555 z" /><path
         id="path5371"
         style="fill:#000000;fill-opacity:1;fill-rule:nonzero;stroke:none"
         d="m 387.453,146.535 0,48.133 9.633,0 0,-5.43 c 5.625,6.977 15.859,8.063 22.836,2.422 0.012,-0.012 0.012,-0.012 0.023,-0.012 l -6.847,-8.445 c -3.969,3.543 -10.059,3.184 -13.59,-0.789 -1.555,-1.754 -2.422,-4.035 -2.422,-6.394 l 0,-29.485 -9.633,0 z m -43.312,28.883 20.453,0 c 0,5.648 -4.582,10.223 -10.231,10.223 -5.652,0 -10.222,-4.575 -10.222,-10.223 z m 30.074,-8.426 -30.074,0 0,-1.207 c 0,-4.179 2.543,-7.941 6.425,-9.488 5.352,-2.149 11.461,-0.645 15.215,3.73 l 7.305,-6.273 c -6.43,-7.492 -16.926,-10.07 -26.094,-6.395 -7.539,3.016 -12.484,10.309 -12.484,18.426 l 0,9.633 c 0,10.969 8.887,19.852 19.855,19.852 10.969,0 19.852,-8.883 19.852,-19.852 l 0,-8.426 z m -62.567,-1.797 0,10.825 c 0,5.32 -4.308,9.621 -9.628,9.621 -5.321,0 -9.633,-4.301 -9.633,-9.621 l 0,-10.825 c 0,-5.32 4.312,-9.632 9.633,-9.632 5.32,0 9.628,4.312 9.628,9.632 z m 9.622,29.473 0,-48.734 c 0,-7.297 -4.114,-13.953 -10.641,-17.223 -9.203,-4.594 -20.359,-2.184 -26.84,5.793 l 7.469,6.066 c 3.64,-4.476 9.906,-5.824 15.07,-3.25 3.258,1.637 5.32,4.973 5.32,8.614 l 0,6.031 c -5.636,-6.977 -15.871,-8.063 -22.847,-2.422 -3.817,3.082 -6.031,7.73 -6.031,12.633 l 0,16.847 c 0,8.973 7.269,16.247 16.242,16.247 4.906,0 9.554,-2.215 12.636,-6.032 l 0,5.43 9.622,0 z m -80.622,-19.25 20.457,0 c 0,5.648 -4.574,10.223 -10.222,10.223 -5.649,0 -10.235,-4.575 -10.235,-10.223 z m 30.086,-8.426 -30.086,0 0,-1.207 c 0,-4.179 2.543,-7.941 6.438,-9.488 5.344,-2.149 11.465,-0.645 15.215,3.73 l 7.304,-6.273 c -6.437,-7.492 -16.925,-10.07 -26.105,-6.395 -7.535,3.016 -12.473,10.309 -12.473,18.426 l 0,9.633 c 0,10.969 8.887,19.852 19.856,19.852 10.957,0 19.851,-8.883 19.851,-19.852 l 0,-8.426 z m -52.945,37.305 -9.629,0 0,9.621 9.629,0 0,-9.621 z m 0,-57.762 -9.629,0 0,48.133 9.629,0 0,-48.133 z m -21.664,0 -6.008,0 c -5.98,0 -10.828,4.848 -10.828,10.828 l 0,56.555 9.621,0 0,-55.348 c 0,-1.656 1.348,-3.007 3.004,-3.007 l 4.211,0 0,-9.028 z m -68.574,0 0,48.133 9.617,0 0,-5.43 c 5.641,6.977 15.875,8.063 22.848,2.422 3.82,-3.082 6.035,-7.73 6.035,-12.637 l 0,-32.488 -9.633,0 0,29.485 c 0,5.32 -4.309,9.621 -9.617,9.621 -5.321,0 -9.633,-4.301 -9.633,-9.621 l 0,-29.485 -9.617,0 z m -47.242,24.067 19.875,0 -9.938,29.484 -9.937,-29.484 z m -18.946,-24.067 24.668,67.383 8.426,0 24.668,-67.383 -10.836,0 -5.066,15.039 -25.965,0 -5.067,-15.039" /><path
         id="path5373"
         style="fill:#000000;fill-opacity:1;fill-rule:nonzero;stroke:none"
         d="m 308.039,108.035 -9.629,0 0,9.621 9.629,0 0,-9.621 z m 0,-57.762 -9.629,0 0,48.133 9.629,0 0,-48.133 z m -52.945,28.883 20.457,0 c 0,5.649 -4.586,10.223 -10.235,10.223 -5.648,0 -10.222,-4.574 -10.222,-10.223 z m 30.078,-8.425 -30.078,0 0,-1.208 c 0,-4.179 2.547,-7.941 6.429,-9.488 5.352,-2.148 11.473,-0.644 15.223,3.731 l 7.293,-6.274 C 277.613,50 267.117,47.422 257.945,51.098 c -7.535,3.015 -12.48,10.308 -12.48,18.425 l 0,9.633 c 0,10.969 8.894,19.852 19.851,19.852 10.969,0 19.856,-8.883 19.856,-19.852 l 0,-8.425 z m -77.012,-20.458 0,48.133 9.629,0 0,-5.429 c 5.637,6.976 15.871,8.062 22.848,2.421 0,-0.011 0.011,-0.011 0.011,-0.011 l -6.832,-8.446 c -3.972,3.543 -10.058,3.184 -13.589,-0.789 -1.571,-1.754 -2.438,-4.035 -2.438,-6.394 l 0,-29.485 -9.629,0 z m -30.078,0 0,40.313 -4.816,0 0,7.82 4.816,0 0,7.215 c 0,6.649 5.387,12.035 12.035,12.035 l 7.215,0 0,-9.015 -6.613,0 c -1.668,0 -3.016,-1.352 -3.016,-3.02 l 0,-7.215 9.629,0 0,-7.82 -9.629,0 0,-40.313" /></g></g></svg>