<?xml version="1.0" encoding="UTF-8" standalone="no"?>
<!-- Created with Inkscape (http://www.inkscape.org/) -->

<svg
   xmlns:dc="http://purl.org/dc/elements/1.1/"
   xmlns:cc="http://creativecommons.org/ns#"
   xmlns:rdf="http://www.w3.org/1999/02/22-rdf-syntax-ns#"
   xmlns:svg="http://www.w3.org/2000/svg"
   xmlns="http://www.w3.org/2000/svg"
   xmlns:sodipodi="http://sodipodi.sourceforge.net/DTD/sodipodi-0.dtd"
   xmlns:inkscape="http://www.inkscape.org/namespaces/inkscape"
   version="1.0"
   width="490"
   height="270"
   id="svg2"
   inkscape:version="0.48.2 r9819"
   sodipodi:docname="Zusatzzeichen_1020-30.svg">
  <metadata
     id="metadata3039">
    <rdf:RDF>
      <cc:Work
         rdf:about="">
        <dc:format>image/svg+xml</dc:format>
        <dc:type
           rdf:resource="http://purl.org/dc/dcmitype/StillImage" />
        <dc:title></dc:title>
      </cc:Work>
    </rdf:RDF>
  </metadata>
  <sodipodi:namedview
     pagecolor="#ffffff"
     bordercolor="#666666"
     borderopacity="1"
     objecttolerance="10"
     gridtolerance="10"
     guidetolerance="10"
     inkscape:pageopacity="0"
     inkscape:pageshadow="2"
     inkscape:window-width="1440"
     inkscape:window-height="880"
     id="namedview3037"
     showgrid="false"
     inkscape:zoom="1.8044317"
     inkscape:cx="203.35879"
     inkscape:cy="82.861499"
     inkscape:window-x="0"
     inkscape:window-y="-3"
     inkscape:window-maximized="1"
     inkscape:current-layer="svg2" />
  <defs
     id="defs4" />
  <path
     d="M 38.78125,4.984375 C 20.356889,4.9843748 9.96875,12.12016 9.96875,33.203125 L 9.65625,236.79688 C 9.65625,257.87984 20.044391,265.01563 38.46875,265.01563 L 451.21875,264.98438 C 469.64311,264.98438 480.03124,257.84859 480.03125,236.76563 L 480.34375,33.234375 C 480.34375,12.15141 469.95561,5.0156248 451.53125,5.015625 L 38.78125,4.984375 z "
     style="fill:white;fill-opacity:1;fill-rule:evenodd;stroke:black;stroke-width:2;stroke-linecap:butt;stroke-linejoin:miter;stroke-miterlimit:4;stroke-dasharray:none;stroke-opacity:1"
     id="path1881" />
  <path
     d="M 453.3125,17.796875 L 36.78125,17.828125 C 28.356999,17.828125 23.40625,23.829135 23.40625,32.703125 L 23.40625,237.35938 C 23.406249,246.23335 28.35701,252.23438 36.78125,252.23438 L 453.28125,252.20313 C 461.70549,252.20312 466.65625,246.20211 466.65625,237.32813 L 466.65625,32.671875 C 466.65625,23.797885 461.73674,17.796875 453.3125,17.796875 z "
     style="fill:none;fill-opacity:1;fill-rule:evenodd;stroke:black;stroke-width:10.05090809;stroke-linecap:butt;stroke-linejoin:miter;stroke-miterlimit:4;stroke-dasharray:none;stroke-opacity:1"
     id="path3976" />
  <g
     id="g3041"
     transform="matrix(1.299337,0,0,1.2831287,-101.83972,-45.940599)">
    <path
       id="text3933"
       style="font-size:99.22093964px;font-style:normal;font-variant:normal;font-weight:normal;font-stretch:normal;text-align:center;line-height:100%;writing-mode:lr-tb;text-anchor:middle;fill:#000000;fill-opacity:1;stroke:none;font-family:DIN 1451 Mittelschrift"
       d="m 282.35719,175.38083 0,-42.5371 -5.08701,0 0,-7.75164 5.08701,0 0,-6.63734 c 0,-4.68321 1.29193,-8.13107 3.87582,-10.34359 2.58387,-2.21237 5.84601,-3.31859 9.78644,-3.31866 l 6.54045,0 0,9.49575 -5.71684,0 c -2.93918,6e-5 -4.40876,1.38889 -4.40874,4.1665 l 0,6.63734 10.12558,0 0,7.75164 -10.12558,0 0,42.5371 z m 25.91954,0 0,-50.28874 10.12557,0 0,5.3777 0.19379,0 c 3.13293,-3.97266 7.49322,-5.95902 13.08089,-5.95907 3.68199,5e-5 7.18637,1.29199 10.51315,3.87582 l -7.3156,8.72059 c -2.19633,-1.64718 -4.42492,-2.4708 -6.68579,-2.47084 -2.48701,4e-5 -4.73982,0.83173 -6.75846,2.49506 -2.01867,1.66341 -3.028,4.33611 -3.02798,8.0181 l 0,30.23138 z m 77.51635,-21.317 -31.29723,0 c -1e-5,4.13422 1.12236,7.23488 3.36712,9.30196 2.24473,2.06712 5.11121,3.10067 8.59947,3.10066 4.16648,1e-5 7.8485,-1.61491 11.04608,-4.84477 l 7.31561,6.24975 c -2.48703,2.90687 -5.28892,4.98205 -8.40568,6.22554 -3.11684,1.24349 -6.37091,1.86523 -9.76222,1.86523 -5.16778,0 -10.17404,-1.67144 -15.01879,-5.01434 -4.84478,-3.34288 -7.26716,-10.18208 -7.26716,-20.51761 0,-9.7864 2.23666,-16.55293 6.71001,-20.29959 4.47332,-3.74658 9.14853,-5.61989 14.02562,-5.61994 5.52301,5e-5 10.35162,1.91373 14.48587,5.74106 4.13416,3.82741 6.20126,8.98708 6.2013,15.47904 z m -31.29723,-8.33301 21.22011,0 c -0.16153,-3.77889 -1.22738,-6.6696 -3.19755,-8.67214 -1.97024,-2.00247 -4.44107,-3.00372 -7.4125,-3.00376 -3.00378,4e-5 -5.49884,1.00129 -7.48518,3.00376 -1.98637,2.00254 -3.02799,4.89325 -3.12488,8.67214 z m 42.24642,29.65001 0,-50.28874 10.12557,0 0,50.28874 z m 0,-60.46276 0,-10.12557 10.12557,0 0,10.12557 z"
       inkscape:connector-curvature="0"
       sodipodi:nodetypes="cccccscccccsccccccccccccccccscccccsccsssssccscccccscccccccccccc" />
  </g>
  <g
     id="g3190"
     transform="matrix(0.40967854,0,0,0.40967854,299.67499,84.393661)">
    <path
       id="path1993"
       style="fill:none;stroke:#000000;stroke-width:9.79856491;stroke-linecap:butt;stroke-linejoin:miter;stroke-miterlimit:4;stroke-opacity:1;stroke-dasharray:none"
       d="m -554.86402,121.94984 349.17245,0"
       inkscape:connector-curvature="0" />
    <path
       inkscape:connector-curvature="0"
       d="m -500.31655,260.61425 c -0.59771,-44.06005 -2.98857,-6.14792 23.567,-71.4695 19.21223,-44.4016 -0.25616,-32.44732 99.13511,-34.06969 88.46165,1.79314 70.61563,-11.01501 90.9379,36.119 25.44553,60.36909 23.48161,28.77565 23.31084,68.13937 -0.93927,43.20618 15.02824,32.10578 -118.85967,33.55737 -132.86325,-1.79314 -117.15192,9.47803 -118.09118,-32.27655 z m 26.89712,-42.52307 18.18758,-42.01075 c 3.39337,-7.46246 2.31074,-6.36085 10.24653,-6.40407 l 127.15808,-0.0137 c 6.88372,0.0253 5.87383,-0.42166 8.70954,6.14792 l 18.08638,41.76828 -182.38811,0.51233 z m -13.00739,79.61928 34.01277,-0.0759 c -0.10437,42.70333 3.43448,40.32197 -15.11363,40.5971 -22.08695,-0.0854 -18.59554,2.14418 -18.89914,-40.5212 z m 175.15862,0.3036 34.06969,0 c -0.2277,42.76974 2.88421,39.84759 -16.39444,39.96144 -19.93328,-0.26565 -17.40011,2.88421 -17.67525,-39.96144 z"
       style="fill:#000000;fill-rule:evenodd;stroke:none"
       id="Car" />
    <circle
       transform="matrix(0.249759,0,0,0.249759,-506.97679,146.62168)"
       d="m 216.5,412 c 0,36.72694 -29.77306,66.5 -66.5,66.5 -36.72694,0 -66.5,-29.77306 -66.5,-66.5 0,-36.72694 29.77306,-66.5 66.5,-66.5 36.72694,0 66.5,29.77306 66.5,66.5 z"
       sodipodi:ry="66.5"
       sodipodi:rx="66.5"
       sodipodi:cy="412"
       sodipodi:cx="150"
       cx="150"
       cy="412"
       r="66.5"
       style="fill:#ffffff;fill-opacity:1;stroke:none"
       id="LeftLamp" />
    <circle
       transform="matrix(0.249759,0,0,0.249759,-506.97679,146.62168)"
       d="m 916.5,412 c 0,36.72694 -29.77306,66.5 -66.5,66.5 -36.72694,0 -66.5,-29.77306 -66.5,-66.5 0,-36.72694 29.77306,-66.5 66.5,-66.5 36.72694,0 66.5,29.77306 66.5,66.5 z"
       sodipodi:ry="66.5"
       sodipodi:rx="66.5"
       sodipodi:cy="412"
       sodipodi:cx="850"
       cx="850"
       cy="412"
       r="66.5"
       style="fill:#ffffff;fill-opacity:1;stroke:none"
       id="RightLamp" />
    <path
       inkscape:connector-curvature="0"
       d="m -338.82989,78.993245 c -25.69861,-1.294891 -63.51248,3.230803 -76.19936,-12.849306 -5.81346,-30.597408 -22.42578,-45.999487 -50.94898,-46.317253 -17.51305,-33.82166 14.27726,-39.1217 36.00793,-47.811359 1.38044,15.720598 0.53457,32.0616408 25.39979,41.237298 0.99814,-4.8647361 3.03771,-8.8368279 9.56227,-8.9646286 l 36.75498,0.1494118 25.99743,-20.3198292 c 4.20125,6.6817396 12.53801,15.24325815 12.55048,20.0210056 l 39.44437,0.1494118 c 2.87245,2.4465907 5.30879,8.9386016 -0.44823,15.3892816 -23.62912,-0.717271 -66.57535,1.864151 -58.12068,59.315967 z"
       style="fill:#000000;fill-opacity:1;fill-rule:evenodd;stroke:none"
       id="path4749" />
    <path
       inkscape:connector-curvature="0"
       d="m -402.94512,-50.33436 0.10565,-13.931429 15.60058,-2.117382 0,-11.056376 -15.91753,2.645627 c 1.17058,-9.960557 7.57485,-17.162586 21.68265,-19.248319 8.85818,0.62431 18.14757,1.10459 23.43181,17.6742 1.54862,6.572278 0.58336,13.221766 -3.49833,18.949498 -13.21286,-7.243045 -23.10187,-2.298673 -32.12326,5.827008 l -9.28157,1.257173 z"
       style="fill:#000000;fill-opacity:1;fill-rule:evenodd;stroke:none"
       id="path5636" />
    <path
       inkscape:connector-curvature="0"
       d="m -430.11971,-20.215326 46.46667,-35.111468 c 6.24571,-3.33137 13.13367,-3.965267 21.3657,1.045874 7.03708,6.392754 18.92432,24.102532 28.38799,36.157338 L -360.345,1.6733129 -385.74479,-33.662271 -425.93621,-2.8837074 c -3.09372,-5.3997025 -3.81764,-11.7370726 -4.1835,-17.3316186 z"
       style="fill:#000000;fill-opacity:1;fill-rule:evenodd;stroke:none"
       id="path6523" />
    <path
       inkscape:connector-curvature="0"
       d="m -428.0308,64.412847 c 0.003,18.415938 -14.92543,33.346516 -33.34136,33.346516 -18.41594,0 -33.34421,-14.930578 -33.34136,-33.346516 -0.003,-18.415938 14.92542,-33.346515 33.34136,-33.346515 18.41593,0 33.3442,14.930577 33.34136,33.346515 l 0,0 z"
       style="fill:none;stroke:#000000;stroke-width:13.95699406;stroke-linecap:round;stroke-linejoin:round;stroke-miterlimit:4;stroke-opacity:1;stroke-dasharray:none;stroke-dashoffset:0"
       id="path7410" />
    <path
       inkscape:connector-curvature="0"
       d="m -262.70657,64.458097 c 0.003,18.415938 -14.92543,33.346516 -33.34136,33.346516 -18.41594,0 -33.34421,-14.930578 -33.34136,-33.346516 -0.003,-18.415938 14.92542,-33.346515 33.34136,-33.346515 18.41593,0 33.3442,14.930577 33.34136,33.346515 l 0,0 z"
       style="fill:none;stroke:#000000;stroke-width:13.95699406;stroke-linecap:round;stroke-linejoin:round;stroke-miterlimit:4;stroke-opacity:1;stroke-dasharray:none;stroke-dashoffset:0"
       id="path8297" />
  </g>
</svg>
